<?xml version="1.0" encoding="UTF-8" standalone="no"?>
<!DOCTYPE svg PUBLIC "-//W3C//DTD SVG 1.0//EN" "http://www.w3.org/TR/2001/REC-SVG-20010904/DTD/svg10.dtd">
<svg xmlns="http://www.w3.org/2000/svg" xmlns:xlink="http://www.w3.org/1999/xlink" fill-rule="evenodd" height="0.77in" preserveAspectRatio="none" stroke-linecap="round" viewBox="0 0 2046 770" width="2.046in">
<style type="text/css">
.brush0 { fill: rgb(255,255,255); }
.pen0 { stroke: rgb(0,0,0); stroke-width: 1; stroke-linejoin: round; }
.brush1 { fill: none; }
.pen1 { stroke: none; }
.brush2 { fill: rgb(0,0,0); }
</style>
<g>
<polygon class="pen1 brush2" points="63,410 63,413 62,423 61,438 61,458 61,481 64,507 69,535 77,564 88,593 103,621 123,648 147,673 178,694 214,711 257,724 308,730 354,730 396,723 434,711 469,694 499,673 524,648 545,620 562,589 573,556 580,522 582,487 578,452 569,417 554,383 534,350 508,320 521,354 530,389 534,424 533,460 528,495 519,529 506,562 489,592 469,619 446,643 420,663 391,678 360,688 326,692 291,689 253,680 210,660 176,635 150,605 133,571 124,535 122,498 127,459 139,422 157,386 182,353 213,323 249,299 291,280 337,268 388,265 443,270 422,263 402,256 384,250 367,245 350,241 334,239 318,238 302,238 284,240 266,244 246,251 225,259 201,270 175,284 146,301 113,320 93,312 74,314 59,324 47,339 40,357 40,376 47,395 63,410"/>
<polygon class="pen1 brush2" points="1237,455 1237,459 1238,469 1239,484 1240,504 1238,528 1235,555 1229,583 1220,612 1207,642 1190,670 1167,696 1139,720 1104,740 1062,755 1012,765 954,768 906,764 863,751 823,732 788,706 758,676 734,642 716,604 705,565 702,524 707,484 721,444 743,407 776,372 819,341 873,315 938,295 886,326 844,360 811,395 787,431 771,467 763,503 763,539 769,572 782,604 800,633 824,659 852,680 885,697 921,709 961,715 1003,715 1044,707 1080,693 1111,673 1137,647 1158,618 1173,586 1183,551 1187,515 1186,478 1179,442 1166,407 1147,375 1122,345 1090,320 1052,299 1008,285 1028,285 1046,286 1063,288 1078,290 1093,293 1106,297 1118,301 1130,306 1141,311 1152,317 1162,323 1172,330 1182,337 1191,345 1201,353 1211,361 1232,358 1248,365 1260,380 1267,399 1269,419 1265,437 1254,450 1237,455"/>
<polygon class="pen1 brush2" points="558,335 559,334 563,330 569,326 577,320 586,313 597,306 610,300 624,294 638,290 654,288 670,288 687,291 703,297 720,307 737,321 753,340 742,339 732,337 722,335 713,333 703,331 694,328 684,326 674,324 664,323 652,322 640,322 626,322 612,324 596,326 578,330 558,335"/>
<polygon class="pen1 brush2" points="313,215 324,208 337,200 351,193 368,185 386,176 405,168 426,160 448,151 471,142 495,134 520,126 546,117 572,109 599,101 626,93 653,86 680,78 708,72 735,65 762,59 789,53 815,48 841,44 866,40 890,37 913,34 935,32 955,31 974,31 992,31 1009,33 1023,35 1045,41 1065,48 1083,58 1099,68 1112,80 1124,92 1134,105 1141,118 1145,131 1147,143 1146,155 1142,165 1136,174 1126,181 1113,187 1097,190 1067,189 1046,179 1032,163 1022,144 1014,124 1004,107 992,95 973,90 966,90 958,90 947,91 935,92 920,93 905,94 888,96 869,98 849,100 829,102 807,104 784,107 760,110 736,113 711,117 686,121 661,125 635,129 609,133 583,138 557,143 532,148 506,154 482,160 457,166 434,172 411,178 389,185 368,192 349,200 330,207 313,215"/>
<polygon class="pen1 brush2" points="1300,352 1308,344 1327,332 1355,318 1391,302 1433,284 1481,266 1532,248 1586,231 1642,216 1696,203 1750,194 1800,189 1847,189 1888,195 1921,207 1947,226 1979,267 1999,308 2010,346 2012,381 2006,411 1993,433 1973,447 1947,450 1924,443 1911,428 1905,407 1903,383 1906,358 1909,333 1912,310 1913,292 1886,277 1856,265 1821,258 1783,254 1743,253 1700,255 1657,259 1612,265 1567,274 1523,283 1480,294 1438,305 1399,317 1362,329 1329,341 1300,352"/>
<polygon class="pen1 brush2" points="348,360 173,485 183,500 348,360"/>
<polygon class="pen1 brush2" points="278,455 253,485 233,485 278,455"/>
<polygon class="pen1 brush2" points="1107,510 973,615 993,625 1107,510"/>
<polygon class="pen1 brush2" points="1087,560 1057,605 1072,610 1087,560"/>
<polygon class="pen1 brush2" points="153,0 188,115 123,20 153,0"/>
<polygon class="pen1 brush2" points="253,20 283,20 268,140 253,20"/>
<polygon class="pen1 brush2" points="88,105 68,135 173,195 88,105"/>
</g>
</svg>
