<?xml version="1.0" encoding="UTF-8" standalone="no"?>
<!DOCTYPE svg PUBLIC "-//W3C//DTD SVG 1.0//EN" "http://www.w3.org/TR/2001/REC-SVG-20010904/DTD/svg10.dtd">
<svg xmlns="http://www.w3.org/2000/svg" xmlns:xlink="http://www.w3.org/1999/xlink" fill-rule="evenodd" height="2.049in" preserveAspectRatio="none" stroke-linecap="round" viewBox="0 0 943 2049" width="0.943in">
<style type="text/css">
.brush0 { fill: rgb(255,255,255); }
.pen0 { stroke: rgb(0,0,0); stroke-width: 1; stroke-linejoin: round; }
.brush1 { fill: none; }
.pen1 { stroke: none; }
.brush2 { fill: rgb(0,0,0); }
</style>
<g>
<polygon class="pen1 brush2" points="161,1936 162,1937 165,1941 169,1946 175,1952 182,1959 190,1967 200,1974 211,1981 223,1986 236,1990 249,1992 264,1991 278,1988 294,1981 310,1969 326,1954 343,1935 363,1914 386,1891 410,1866 438,1841 468,1815 501,1789 537,1763 576,1738 618,1714 664,1690 712,1669 765,1649 820,1632 880,1617 943,1606 918,1602 893,1599 866,1597 840,1596 813,1596 785,1597 757,1599 729,1603 701,1607 672,1612 644,1619 615,1626 587,1634 559,1643 531,1653 503,1664 476,1675 449,1688 422,1701 397,1715 372,1730 347,1745 324,1762 301,1778 280,1796 259,1814 240,1833 221,1853 204,1873 188,1893 174,1914 161,1936"/>
<polygon class="pen1 brush2" points="402,885 403,899 404,937 405,994 404,1064 402,1142 396,1221 386,1296 372,1362 358,1322 340,1287 319,1256 296,1230 271,1207 245,1188 217,1172 189,1159 161,1148 133,1139 106,1132 81,1126 57,1121 35,1117 16,1113 0,1109 9,1123 24,1142 44,1164 69,1190 98,1219 129,1251 162,1285 197,1320 231,1358 264,1396 296,1435 326,1474 352,1514 374,1553 391,1590 402,1627 412,1654 424,1666 439,1665 455,1654 470,1636 483,1613 494,1588 500,1563 510,1521 525,1478 546,1437 570,1396 598,1356 627,1318 658,1283 688,1250 718,1219 746,1193 771,1169 792,1150 808,1136 819,1126 823,1122 820,1123 808,1128 791,1136 771,1148 748,1162 723,1177 696,1195 668,1214 640,1233 612,1252 586,1272 562,1291 540,1308 522,1325 508,1339 498,1351 494,1360 497,1287 492,1215 483,1145 469,1079 453,1018 436,964 418,919 402,885"/>
<polygon class="pen1 brush2" points="396,0 402,12 405,26 406,41 406,57 405,75 405,95 405,117 407,142 412,169 419,200 431,233 448,270 469,311 497,355 532,404 575,457 588,477 600,501 609,529 615,559 618,592 618,626 615,661 608,695 596,728 581,759 560,787 535,812 504,831 468,846 426,854 378,856 333,848 297,830 268,802 247,766 232,724 222,677 218,625 218,571 222,516 230,460 239,406 251,355 264,308 277,266 290,230 303,203 305,261 302,335 300,419 301,505 309,586 327,655 358,705 407,729 408,689 411,650 413,612 415,573 414,533 410,489 400,441 384,387 404,415 419,452 431,497 440,546 446,598 449,650 449,698 448,741 475,719 497,689 513,651 521,604 518,548 502,483 472,409 425,325 397,275 379,231 370,191 368,155 371,119 378,82 387,43 396,0"/>
</g>
</svg>
