<?xml version="1.0" encoding="UTF-8" standalone="no"?>
<!DOCTYPE svg PUBLIC "-//W3C//DTD SVG 1.0//EN" "http://www.w3.org/TR/2001/REC-SVG-20010904/DTD/svg10.dtd">
<svg xmlns="http://www.w3.org/2000/svg" xmlns:xlink="http://www.w3.org/1999/xlink" fill-rule="evenodd" height="2.052in" preserveAspectRatio="none" stroke-linecap="round" viewBox="0 0 1362 2052" width="1.362in">
<style type="text/css">
.brush0 { fill: rgb(255,255,255); }
.pen0 { stroke: rgb(0,0,0); stroke-width: 1; stroke-linejoin: round; }
.brush1 { fill: none; }
.pen1 { stroke: none; }
.brush2 { fill: rgb(0,0,0); }
</style>
<g>
<polygon class="pen1 brush2" points="338,214 349,203 361,190 373,176 387,162 401,148 417,135 434,123 453,114 474,108 496,106 520,109 546,116 575,130 606,150 639,178 675,214 701,216 726,220 750,226 772,233 793,242 813,252 832,264 849,276 865,289 880,303 893,318 904,333 915,349 924,364 931,380 937,395 960,397 983,402 1004,409 1023,422 1038,442 1050,470 1056,508 1056,557 1057,591 1060,622 1063,652 1064,678 1060,702 1048,720 1025,734 990,743 999,732 1007,721 1011,709 1014,697 1013,683 1010,668 1004,652 995,633 985,613 977,591 971,569 968,548 968,528 970,509 976,493 985,481 977,474 969,467 960,460 951,453 942,446 933,439 923,431 913,422 902,414 891,404 879,394 867,383 853,371 839,358 825,343 809,328 776,325 749,322 726,319 707,314 691,308 677,299 664,287 652,271 645,262 637,253 628,244 618,236 608,227 596,219 585,212 573,205 560,198 547,193 534,188 522,184 509,182 496,180 484,180 472,181 451,187 433,195 417,205 403,215 389,223 374,226 358,224 338,214"/>
<polygon class="pen1 brush2" points="214,224 212,223 205,222 195,221 184,221 173,223 162,227 153,235 148,247 121,242 96,245 73,255 55,275 44,304 41,342 48,392 67,452 60,472 53,492 48,511 47,529 51,546 63,560 85,572 119,581 118,557 113,538 112,519 124,495 132,481 134,466 131,452 124,437 114,421 102,405 87,389 72,371 66,362 64,352 65,342 69,332 75,322 84,312 95,303 107,294 120,286 134,278 148,272 162,268 176,265 189,263 200,264 210,266 225,271 236,271 242,268 244,261 242,253 236,243 227,233 214,224"/>
<polygon class="pen1 brush2" points="114,619 113,622 112,630 109,642 107,658 104,677 103,697 103,720 105,743 109,766 115,789 125,809 138,828 156,844 178,856 205,864 238,867 262,865 281,861 296,855 309,849 321,843 333,839 346,837 362,838 372,840 383,842 395,844 409,846 423,847 437,849 452,849 467,849 481,848 495,846 508,843 520,839 531,834 540,827 547,819 553,809 532,811 511,814 490,817 470,819 451,820 432,820 413,818 395,814 378,808 360,803 343,798 325,795 306,795 286,798 265,806 243,819 221,825 202,815 186,791 173,759 163,723 156,686 152,653 152,628 153,611 151,600 147,594 142,592 136,594 129,599 121,608 114,619"/>
<polygon class="pen1 brush2" points="472,900 495,888 517,877 538,866 557,857 575,847 593,839 609,830 625,822 641,814 656,805 671,797 686,788 701,779 716,769 731,759 747,748 765,738 785,731 807,727 831,726 855,728 879,733 902,740 924,751 943,764 960,780 973,798 982,819 986,843 984,869 976,898 961,929 941,957 920,979 898,994 875,1003 851,1008 827,1009 802,1006 778,1001 755,994 732,986 710,977 690,969 671,961 655,955 640,952 628,952 607,955 588,955 570,955 554,954 540,953 528,954 519,957 514,962 527,949 539,938 549,930 559,924 569,919 580,916 594,915 610,914 618,915 626,916 633,919 639,922 646,926 652,930 659,934 667,938 675,942 684,945 694,947 706,948 719,948 734,946 752,943 771,938 792,931 812,923 832,914 851,904 869,893 885,882 898,871 908,861 915,850 918,840 917,831 911,823 899,816 882,811 858,807 828,805 796,806 766,809 738,814 713,822 690,831 668,841 648,851 628,861 609,872 591,881 573,890 554,897 535,902 515,904 494,904 472,900"/>
<polygon class="pen1 brush2" points="152,881 154,884 161,890 172,900 187,909 207,917 230,923 259,923 291,917 307,912 323,907 337,902 351,898 363,894 375,891 386,888 396,886 405,886 415,886 423,888 431,891 439,896 447,902 454,909 461,919 443,922 428,924 415,926 403,928 392,932 381,940 370,951 357,967 349,976 339,983 328,988 315,992 301,994 286,994 270,993 255,989 239,984 223,976 208,966 194,954 181,939 170,922 160,903 152,881"/>
<polygon class="pen1 brush2" points="429,328 411,328 389,329 366,332 341,336 316,343 293,352 272,364 254,379 241,397 233,419 233,445 240,475 257,509 283,549 321,593 372,643 351,636 328,626 306,613 283,598 261,580 239,561 219,540 201,518 186,495 173,471 164,447 159,423 158,400 162,376 171,354 186,333 202,318 220,305 240,296 260,288 281,284 302,281 323,280 343,281 362,284 380,287 395,292 408,298 419,305 426,312 429,320 429,328"/>
<polygon class="pen1 brush2" points="333,476 335,474 341,469 349,462 355,453 360,443 360,434 353,425 338,419 320,418 304,425 291,438 284,455 281,474 285,495 295,515 314,533 311,519 313,506 321,492 333,476"/>
<polygon class="pen1 brush2" points="386,476 387,478 391,484 397,493 406,504 416,516 429,530 443,543 459,555 476,566 495,575 515,581 536,583 558,580 581,572 604,559 628,538 645,514 652,488 650,461 641,436 625,412 605,391 582,374 557,362 572,380 584,400 593,420 598,440 599,458 595,475 586,489 572,500 563,504 555,508 546,512 537,514 529,517 520,518 510,519 500,518 490,517 478,515 466,512 453,507 438,501 422,494 405,486 386,476"/>
<polygon class="pen1 brush2" points="680,395 685,393 694,394 706,398 721,405 738,415 756,428 774,443 791,461 807,482 821,505 832,531 839,559 841,590 839,622 830,658 814,695 794,704 779,708 769,708 764,704 762,696 763,683 766,668 771,648 775,625 775,598 772,569 765,537 752,504 735,469 711,432 680,395"/>
<polygon class="pen1 brush2" points="690,514 689,516 687,523 683,532 677,544 669,557 659,571 646,584 631,597 612,608 591,616 566,620 538,621 506,616 470,605 430,587 386,562 395,577 406,592 416,607 428,623 441,638 454,653 468,666 483,678 499,689 515,698 533,705 551,709 570,710 590,709 611,704 633,695 670,673 695,651 708,629 713,606 712,583 706,560 698,537 690,514"/>
<polygon class="pen1 brush2" points="186,600 189,597 193,596 200,598 208,601 217,606 228,613 240,621 252,629 265,638 279,647 293,656 308,665 322,673 336,680 349,686 362,690 386,696 409,702 430,706 449,711 467,718 484,725 499,735 514,748 500,756 488,764 474,772 459,779 442,783 420,783 394,778 362,767 345,760 330,753 317,746 305,739 294,731 285,723 276,715 267,706 258,697 250,687 241,675 232,663 222,649 211,634 199,618 186,600"/>
<polygon class="pen1 brush2" points="438,347 422,353 408,368 398,388 394,410 398,432 412,450 437,461 476,462 460,452 448,441 439,430 434,418 433,408 436,398 442,391 453,386 465,384 477,387 489,392 500,401 509,412 518,424 524,438 529,452 532,457 536,458 541,456 546,451 551,444 556,434 559,424 560,412 559,400 555,388 547,377 536,367 520,358 498,352 471,348 438,347"/>
<polygon class="pen1 brush2" points="823,424 828,422 836,425 848,432 861,443 876,457 892,474 908,494 923,515 936,538 947,562 955,587 959,611 959,635 953,658 941,680 923,700 902,714 885,718 872,714 864,704 861,689 862,671 868,652 880,633 892,615 898,597 899,578 894,555 884,530 869,500 849,465 823,424"/>
<polygon class="pen1 brush2" points="236,1157 242,1157 257,1157 282,1158 313,1160 349,1163 389,1167 431,1172 473,1180 513,1190 550,1202 583,1217 609,1235 626,1256 634,1281 630,1309 613,1342 591,1368 574,1377 562,1372 552,1358 545,1337 541,1314 537,1292 534,1274 530,1267 522,1258 510,1250 494,1241 475,1232 455,1223 432,1214 408,1205 383,1196 358,1188 334,1181 310,1174 288,1168 268,1163 250,1160 236,1157"/>
<polygon class="pen1 brush2" points="278,1201 280,1203 284,1209 291,1219 301,1232 312,1248 325,1265 338,1285 353,1305 367,1326 381,1347 395,1368 407,1388 418,1407 427,1424 435,1439 439,1451 449,1470 465,1485 486,1493 508,1494 530,1486 548,1468 561,1439 566,1396 555,1408 544,1419 535,1427 526,1433 516,1435 505,1432 492,1423 476,1407 467,1396 456,1385 445,1372 433,1358 420,1343 407,1328 393,1312 380,1297 366,1282 352,1267 338,1253 325,1240 312,1228 300,1217 288,1208 278,1201"/>
<polygon class="pen1 brush2" points="356,1232 358,1233 363,1234 372,1237 383,1240 396,1245 410,1251 426,1258 442,1266 457,1276 472,1286 486,1298 498,1311 508,1326 515,1341 519,1358 519,1376 515,1371 509,1366 502,1359 494,1351 485,1343 475,1334 464,1324 453,1314 441,1304 429,1294 417,1283 404,1272 392,1262 380,1252 368,1242 356,1232"/>
<polygon class="pen1 brush2" points="1157,992 1151,992 1136,992 1111,993 1080,995 1044,997 1004,1001 962,1007 920,1014 880,1024 843,1036 810,1051 784,1069 767,1090 759,1114 763,1143 780,1175 802,1201 819,1210 832,1206 842,1191 848,1171 853,1148 856,1126 859,1108 863,1101 871,1092 884,1084 899,1075 918,1066 939,1057 962,1048 986,1039 1010,1031 1035,1023 1059,1015 1083,1009 1105,1003 1125,998 1143,994 1157,992"/>
<polygon class="pen1 brush2" points="1116,1035 1114,1037 1110,1043 1102,1053 1093,1066 1082,1082 1069,1099 1055,1119 1041,1139 1027,1160 1013,1181 999,1202 986,1222 975,1241 966,1258 959,1272 955,1284 945,1303 928,1318 908,1326 886,1327 864,1320 846,1302 833,1273 828,1230 839,1242 849,1252 858,1261 868,1267 878,1269 889,1266 902,1257 917,1241 926,1230 937,1218 948,1205 960,1191 973,1176 986,1161 1000,1146 1014,1130 1028,1115 1042,1101 1056,1087 1069,1074 1082,1062 1094,1051 1106,1042 1116,1035"/>
<polygon class="pen1 brush2" points="1037,1066 1035,1067 1030,1068 1021,1071 1010,1075 997,1079 983,1085 967,1093 952,1101 936,1110 921,1121 907,1132 895,1145 885,1159 878,1175 874,1191 874,1209 879,1204 885,1199 892,1192 900,1185 909,1177 919,1168 930,1159 941,1149 953,1139 965,1128 977,1118 989,1107 1001,1096 1014,1086 1026,1076 1037,1066"/>
<polygon class="pen1 brush2" points="586,971 598,974 611,982 624,995 638,1013 651,1033 665,1057 679,1083 691,1110 703,1139 715,1167 724,1195 733,1222 740,1248 745,1271 748,1291 748,1308 782,1275 782,1365 735,1385 733,1390 726,1404 714,1427 698,1456 678,1492 653,1533 624,1579 591,1628 559,1680 535,1737 517,1795 507,1854 502,1911 503,1964 509,2012 519,2052 499,2032 481,1997 466,1950 456,1895 451,1835 451,1775 458,1717 472,1666 472,1585 519,1585 521,1583 526,1578 535,1569 546,1558 558,1543 573,1527 588,1508 603,1487 619,1465 633,1442 647,1417 659,1392 669,1367 676,1341 680,1315 680,1290 676,1242 669,1197 661,1155 651,1116 638,1079 623,1042 606,1007 586,971"/>
<polygon class="pen1 brush2" points="1341,354 1362,387 1181,425 1341,354"/>
<polygon class="pen1 brush2" points="1278,531 1279,584 1170,533 1278,531"/>
<polygon class="pen1 brush2" points="1217,235 1238,269 1125,332 1217,235"/>
</g>
</svg>
