<?xml version="1.0" encoding="UTF-8" standalone="no"?>
<!DOCTYPE svg PUBLIC "-//W3C//DTD SVG 1.0//EN" "http://www.w3.org/TR/2001/REC-SVG-20010904/DTD/svg10.dtd">
<svg xmlns="http://www.w3.org/2000/svg" xmlns:xlink="http://www.w3.org/1999/xlink" fill-rule="evenodd" height="1.388in" preserveAspectRatio="none" stroke-linecap="round" viewBox="0 0 2000 1388" width="2.0in">
<style type="text/css">
.brush0 { fill: rgb(255,255,255); }
.pen0 { stroke: rgb(0,0,0); stroke-width: 1; stroke-linejoin: round; }
.brush1 { fill: none; }
.pen1 { stroke: none; }
.brush2 { fill: rgb(0,0,0); }
</style>
<g>
<polygon class="pen1 brush2" points="971,495 966,493 952,487 930,478 901,466 865,453 825,438 780,423 733,408 684,394 633,382 583,371 533,364 486,361 441,361 401,367 366,378 334,393 302,409 271,426 241,445 214,464 189,485 169,506 152,529 140,552 133,577 132,602 138,628 152,655 173,683 203,712 242,741 273,758 307,769 345,775 385,778 426,777 469,773 512,766 554,757 595,747 633,735 669,723 701,712 729,700 751,690 768,682 778,676 748,680 712,684 670,688 624,691 574,694 524,696 472,696 422,695 374,693 330,688 291,681 258,671 233,658 216,641 210,622 215,598 226,578 241,558 259,539 280,522 304,505 329,489 356,475 383,462 411,450 438,440 465,432 491,426 515,421 537,418 556,417 572,419 588,422 609,426 632,431 659,436 687,441 717,447 748,453 779,460 810,466 841,472 869,477 896,482 920,487 941,490 958,493 971,495"/>
<polygon class="pen1 brush2" points="593,330 596,328 605,323 620,317 640,309 665,300 695,293 728,287 765,283 806,282 849,286 895,295 943,310 992,331 1043,361 1095,399 1148,447 1111,434 1074,423 1038,412 1002,402 968,393 934,385 901,378 870,372 840,367 812,363 786,360 762,359 740,358 720,359 703,361 689,364 666,370 647,371 632,370 620,365 611,358 604,350 598,340 593,330"/>
<polygon class="pen1 brush2" points="936,261 939,260 949,256 964,252 984,246 1009,241 1038,236 1071,233 1107,232 1145,233 1185,238 1226,247 1269,261 1312,280 1354,306 1396,338 1437,378 1400,361 1365,345 1331,332 1299,320 1269,310 1241,301 1214,294 1189,289 1166,285 1146,283 1127,282 1110,283 1096,286 1084,290 1074,295 1066,302 1051,314 1032,319 1011,318 991,313 971,303 954,291 942,276 936,261"/>
<polygon class="pen1 brush2" points="1430,330 1433,331 1441,335 1454,341 1470,348 1488,358 1508,369 1529,382 1550,395 1570,410 1588,425 1604,441 1616,457 1623,474 1625,490 1621,506 1609,522 1593,536 1575,546 1556,553 1536,557 1515,560 1493,561 1470,561 1446,560 1422,559 1397,559 1371,560 1345,563 1318,567 1291,574 1264,584 1237,598 1209,613 1179,626 1147,637 1115,647 1081,656 1048,663 1015,670 983,675 952,679 922,681 895,683 870,684 849,684 830,684 816,682 806,680 841,672 873,665 902,657 929,650 955,642 978,635 1000,627 1021,619 1041,612 1060,604 1078,595 1096,587 1114,578 1132,569 1150,560 1169,550 1198,536 1227,524 1255,514 1282,505 1308,499 1333,494 1358,491 1381,489 1403,488 1424,487 1444,488 1463,489 1481,490 1497,492 1512,494 1526,495 1537,495 1545,493 1549,489 1551,484 1549,476 1546,467 1540,457 1532,446 1522,433 1512,420 1499,406 1486,391 1473,376 1458,361 1444,345 1430,330"/>
<polygon class="pen1 brush2" points="1409,110 1413,110 1424,111 1440,113 1462,116 1488,121 1517,128 1549,138 1582,150 1615,167 1648,187 1679,211 1708,240 1733,275 1754,314 1770,360 1780,412 1758,391 1737,371 1717,351 1697,332 1678,314 1659,296 1640,279 1622,263 1604,249 1587,236 1569,224 1552,214 1535,205 1518,199 1502,194 1485,192 1510,221 1528,245 1540,266 1548,285 1553,303 1556,320 1558,338 1560,357 1549,347 1540,337 1533,327 1526,317 1520,307 1514,297 1508,286 1501,275 1494,264 1486,252 1476,239 1465,225 1452,210 1436,194 1417,177 1396,158 1390,152 1384,146 1376,139 1367,131 1357,124 1346,116 1334,109 1321,103 1306,98 1291,94 1274,91 1255,90 1236,92 1215,95 1193,101 1169,110 1189,129 1206,147 1221,166 1234,183 1244,198 1252,210 1256,217 1258,220 1253,216 1238,206 1217,192 1192,175 1165,159 1139,145 1117,135 1100,131 1093,132 1086,131 1080,130 1075,128 1069,126 1062,123 1054,121 1045,119 1035,117 1022,116 1008,116 990,117 970,120 947,124 919,130 888,138 898,130 908,121 919,112 929,104 940,95 951,86 962,78 975,71 988,64 1001,58 1016,54 1032,51 1048,49 1067,49 1086,51 1107,55 1121,50 1136,45 1153,41 1172,37 1191,34 1211,32 1232,31 1253,31 1274,33 1296,37 1317,43 1337,51 1357,62 1375,75 1393,91 1409,110"/>
<polygon class="pen1 brush2" points="947,71 943,71 932,72 914,74 891,76 865,80 836,85 806,91 775,99 746,108 718,119 694,132 674,147 661,164 654,183 655,205 665,229 681,250 696,262 711,267 726,264 739,255 752,241 764,223 775,201 780,190 786,180 793,172 800,164 808,156 816,149 826,143 836,136 846,130 858,123 870,116 884,109 898,101 913,92 930,82 947,71"/>
<polygon class="pen1 brush2" points="1780,323 1782,324 1789,327 1800,333 1813,340 1828,350 1844,361 1861,375 1877,390 1892,407 1905,425 1916,446 1922,468 1924,491 1922,516 1913,542 1897,570 1878,595 1860,613 1843,626 1827,633 1812,635 1797,632 1783,626 1770,617 1757,605 1745,592 1734,576 1723,560 1713,543 1703,526 1693,510 1684,495 1706,503 1725,513 1742,522 1759,529 1775,534 1791,535 1809,532 1828,522 1843,505 1848,481 1844,453 1835,422 1822,392 1807,364 1792,340 1780,323"/>
<polygon class="pen1 brush2" points="984,721 1001,743 1015,764 1027,786 1038,808 1049,829 1061,849 1074,869 1090,887 1109,904 1132,920 1160,934 1194,945 1235,955 1284,962 1342,966 1409,968 1477,969 1537,972 1589,976 1635,981 1675,987 1709,993 1740,999 1767,1004 1790,1009 1812,1012 1832,1014 1852,1014 1871,1012 1892,1008 1914,1000 1938,989 1935,997 1931,1004 1926,1012 1919,1019 1910,1025 1898,1031 1884,1037 1866,1041 1845,1045 1820,1048 1790,1049 1756,1050 1717,1049 1673,1046 1623,1043 1567,1037 1509,1032 1454,1028 1402,1025 1353,1022 1306,1018 1263,1013 1222,1006 1184,996 1149,983 1117,965 1088,941 1061,912 1038,876 1017,833 999,782 984,721"/>
<polygon class="pen1 brush2" points="1739,808 1721,821 1704,832 1687,842 1671,854 1653,870 1634,891 1612,920 1588,959 1587,927 1595,896 1610,867 1630,841 1652,819 1672,802 1690,790 1702,785 1680,771 1654,757 1624,744 1591,731 1556,719 1519,708 1481,698 1442,688 1403,680 1366,672 1329,664 1294,658 1262,653 1233,648 1207,645 1186,642 1241,628 1243,628 1247,628 1254,629 1264,630 1276,631 1291,633 1308,635 1326,638 1347,641 1369,645 1393,649 1418,654 1445,660 1472,667 1501,674 1530,682 1560,691 1590,701 1620,712 1651,724 1681,737 1712,751 1742,766 1772,782 1801,799 1829,818 1856,838 1882,860 1907,882 1931,906 1953,932 1973,959 1977,968 1977,974 1972,980 1962,985 1955,987 1950,985 1949,982 1954,979 1955,976 1953,971 1948,962 1941,951 1931,938 1919,924 1906,909 1891,893 1874,878 1857,863 1838,849 1819,836 1799,825 1779,816 1759,811 1739,808"/>
<polygon class="pen1 brush2" points="1772,883 1797,903 1772,925 1778,928 1801,906 1825,932 1829,925 1805,903 1826,886 1818,877 1804,899 1781,876 1772,883"/>
<polygon class="pen1 brush2" points="975,753 971,758 961,761 946,763 926,764 904,763 878,762 851,760 824,757 796,754 769,750 744,747 721,744 702,741 688,739 678,738 675,737 785,696 829,716 832,717 842,719 856,722 875,726 897,731 921,738 948,745 975,753"/>
<polygon class="pen1 brush2" points="1509,777 1413,708 1335,850 1339,850 1351,851 1369,850 1391,848 1415,844 1439,836 1462,825 1481,809 1466,806 1451,802 1438,798 1427,793 1419,786 1414,777 1413,764 1417,749 1509,777"/>
<polygon class="pen1 brush2" points="1203,734 1198,735 1186,738 1171,743 1155,750 1143,760 1138,773 1143,789 1162,808 1165,799 1166,791 1166,783 1167,776 1170,768 1176,759 1186,748 1203,734"/>
<polygon class="pen1 brush2" points="1244,801 1240,802 1231,804 1219,809 1207,816 1197,827 1193,842 1196,861 1210,885 1212,868 1215,854 1220,843 1225,834 1231,827 1236,819 1241,811 1244,801"/>
<polygon class="pen1 brush2" points="1306,737 1303,737 1297,738 1288,741 1280,744 1273,750 1270,757 1273,766 1283,778 1286,769 1287,760 1292,750 1306,737"/>
<polygon class="pen1 brush2" points="1031,903 1026,915 1018,927 1009,941 998,955 986,970 971,986 955,1002 937,1019 918,1035 897,1052 874,1069 850,1085 824,1101 796,1117 767,1132 737,1147 676,1175 624,1201 580,1224 544,1244 513,1262 487,1278 466,1291 448,1303 432,1313 417,1320 403,1327 388,1331 372,1334 353,1336 331,1337 305,1336 311,1342 318,1347 326,1352 335,1355 346,1357 359,1358 375,1357 393,1354 413,1349 437,1341 465,1330 496,1316 531,1300 570,1279 614,1255 663,1227 699,1206 734,1187 767,1169 800,1152 831,1136 861,1120 890,1104 917,1088 942,1072 965,1055 987,1038 1007,1020 1024,1000 1039,979 1052,957 1063,932 1031,903"/>
<polygon class="pen1 brush2" points="412,1089 424,1091 436,1091 448,1090 460,1088 472,1086 484,1083 496,1081 509,1080 521,1080 534,1083 546,1088 559,1095 572,1106 585,1121 599,1140 612,1164 607,1137 599,1115 590,1096 578,1081 566,1069 553,1059 539,1053 524,1048 510,1046 496,1045 483,1045 470,1046 459,1048 449,1050 442,1052 436,1053 449,1031 466,1010 484,989 505,967 527,947 550,926 575,907 600,887 625,869 650,851 675,835 699,819 722,805 743,791 763,779 780,769 724,780 720,781 708,785 690,792 666,803 638,817 605,835 570,858 532,886 493,919 454,957 415,1001 378,1052 343,1109 312,1173 284,1244 262,1323 262,1333 265,1339 271,1342 282,1343 290,1341 294,1338 293,1335 287,1334 285,1326 288,1303 296,1270 309,1230 328,1188 351,1148 379,1113 412,1089"/>
<polygon class="pen1 brush2" points="395,1229 399,1199 368,1199 369,1193 400,1194 400,1160 407,1163 405,1193 430,1192 430,1203 406,1197 405,1228 395,1229"/>
<polygon class="pen1 brush2" points="609,966 668,863 798,960 794,962 783,967 767,974 746,982 722,988 697,991 672,990 647,983 660,974 672,965 682,956 690,946 695,937 695,926 691,915 681,903 609,966"/>
<polygon class="pen1 brush2" points="870,801 875,800 887,797 903,795 921,795 936,799 946,809 948,825 938,850 931,843 927,836 924,830 920,824 914,818 905,813 891,807 870,801"/>
<polygon class="pen1 brush2" points="860,878 864,877 873,876 886,875 900,877 913,883 924,895 929,914 926,941 917,926 908,915 899,907 891,901 882,897 875,892 867,886 860,878"/>
<polygon class="pen1 brush2" points="777,845 779,844 786,843 795,841 804,841 812,843 818,849 819,858 815,873 812,870 809,867 807,863 804,859 801,856 795,852 788,848 777,845"/>
<polygon class="pen1 brush2" points="1629,670 1609,661 1589,653 1568,645 1548,637 1528,629 1508,622 1489,615 1472,609 1455,603 1440,598 1427,593 1415,589 1406,586 1399,584 1394,582 1393,582 1260,609 1384,630 1489,643 1629,670"/>
<polygon class="pen1 brush2" points="150,379 0,383 15,342 150,379"/>
<polygon class="pen1 brush2" points="57,179 84,151 180,296 57,179"/>
<polygon class="pen1 brush2" points="194,144 228,138 242,254 194,144"/>
</g>
</svg>
