<?xml version="1.0" encoding="UTF-8" standalone="no"?>
<!DOCTYPE svg PUBLIC "-//W3C//DTD SVG 1.0//EN" "http://www.w3.org/TR/2001/REC-SVG-20010904/DTD/svg10.dtd">
<svg xmlns="http://www.w3.org/2000/svg" xmlns:xlink="http://www.w3.org/1999/xlink" fill-rule="evenodd" height="0.598in" preserveAspectRatio="none" stroke-linecap="round" viewBox="0 0 770 598" width="0.77in">
<style type="text/css">
.brush0 { fill: rgb(255,255,255); }
.pen0 { stroke: rgb(0,0,0); stroke-width: 1; stroke-linejoin: round; }
.brush1 { fill: none; }
.pen1 { stroke: none; }
.brush2 { fill: rgb(0,0,0); }
</style>
<g>
<polygon class="pen1 brush2" points="485,188 596,184 613,182 630,180 647,177 663,174 678,171 692,167 706,164 718,160 729,157 739,154 748,151 755,148 761,145 765,143 767,141 768,140 763,139 751,140 734,143 710,147 683,151 652,156 618,160 582,164 546,167 509,169 474,169 440,167 408,162 380,155 356,144 338,129 322,113 306,97 291,84 276,71 261,60 246,50 231,42 217,35 202,29 188,25 173,23 158,22 144,23 129,25 113,29 98,35 84,41 71,49 59,58 48,68 39,79 30,91 22,103 16,117 7,146 4,176 7,205 16,234 21,245 28,256 35,266 43,275 53,283 63,290 73,297 85,302 97,306 109,309 121,311 133,312 145,311 157,309 169,306 181,302 190,297 199,292 208,286 215,279 222,272 228,263 233,254 238,245 244,225 246,204 244,184 238,164 234,157 229,151 223,146 216,142 208,139 200,136 192,133 184,130 176,127 169,125 162,124 156,123 150,124 143,125 136,127 129,130 122,133 117,136 113,140 109,144 106,149 103,154 100,160 97,167 94,179 93,188 96,198 101,210 106,219 112,224 120,227 130,231 135,233 140,235 143,235 147,235 150,235 153,233 158,231 163,229 172,226 179,224 184,221 188,214 192,204 196,195 197,186 195,177 193,173 192,170 190,167 187,164 193,168 200,171 208,175 212,179 217,192 220,206 221,220 218,233 215,239 211,245 206,250 200,256 194,261 188,266 181,270 175,273 167,276 157,279 147,281 136,283 126,285 115,285 106,284 97,281 89,277 81,272 72,267 65,260 57,253 51,245 46,237 42,229 35,205 33,178 35,151 42,127 47,117 54,106 62,96 71,87 80,78 90,71 101,64 111,59 123,54 136,51 148,48 161,47 174,47 187,48 201,50 214,54 227,59 240,65 253,73 266,83 278,94 290,106 302,120 313,136 320,144 328,151 339,158 351,164 363,169 377,174 391,177 405,181 419,183 432,186 445,187 456,188 466,189 475,189 481,189 485,188"/>
<polygon class="pen1 brush2" points="331,570 330,468 327,347 322,247 314,205 304,266 301,401 304,537 314,598 318,596 324,591 329,583 331,570"/>
<polygon class="pen1 brush2" points="460,401 458,385 453,350 446,316 440,300 434,319 430,361 426,404 425,426 427,475 432,527 436,567 437,581 439,581 443,579 448,578 451,578 458,562 461,520 461,463 460,401"/>
<polygon class="pen1 brush2" points="599,574 603,526 604,465 604,408 604,374 602,349 597,300 590,254 583,233 579,240 576,259 573,289 571,325 570,409 571,493 576,558 583,584 586,584 591,583 596,580 599,574"/>
</g>
</svg>
