<?xml version="1.0" encoding="iso-8859-1"?>
<!DOCTYPE svg PUBLIC "-//W3C//DTD SVG 1.0//EN" "http://www.w3.org/TR/2001/REC-SVG-20010904/DTD/svg10.dtd">
<svg xmlns="http://www.w3.org/2000/svg" xml:space="preserve" width="1000px" height="1000px" style="shape-rendering:geometricPrecision; text-rendering:geometricPrecision; image-rendering:optimizeQuality; fill-rule:evenodd"
     viewBox="0 0 1000 1000">
 <g>
  <path d="M492 261l-20 -3 -21 -5 -18 -10 -15 -13 -13 -16 -11 -18 -5 -20 -2 -21 2 -22 5 -19 11 -18 13 -16 15 -13 18 -10 21 -5 20 -3 21 3 19 5 18 10 16 13 13 16 10 18 5 19 3 22 -3 21 -5 20 -10 18 -13 16 -16 13 -18 10 -19 5 -21 3z"/>
  <path d="M531 308l0 83 4 0 10 0 15 -2 21 -1 23 -4 27 -6 29 -9 28 -12 28 -17 26 -19 25 -26 20 -29 17 -36 10 -43 4 -49 -3 -56 0 2 2 8 0 13 -2 15 -2 20 -5 20 -7 22 -10 22 -14 22 -18 22 -23 19 -29 17 -33 13 -40 9 -48 3 -55 -1z"/>
  <path d="M460 308l0 83 -4 0 -10 0 -16 -2 -20 -1 -25 -4 -25 -6 -29 -9 -29 -12 -29 -17 -27 -19 -24 -26 -21 -29 -16 -36 -11 -43 -4 -49 3 -56 0 2 -1 8 0 13 1 15 3 20 5 20 6 22 10 22 15 22 18 22 23 19 28 17 35 13 41 9 48 3 55 -1z"/>
  <path d="M542 382l-2 2 -7 5 -11 11 -14 12 -17 17 -18 20 -21 21 -19 24 -21 24 -20 27 -18 28 -16 29 -14 28 -10 30 -7 28 -1 28 4 20 8 19 14 19 17 20 19 19 22 19 23 18 23 17 25 15 23 16 20 13 20 10 16 9 13 8 8 4 3 1 -8 -6 -21 -19 -28 -27 -33 -36 -34 -41 -28 -45 -21 -46 -8 -48 7 -38 15 -46 22 -48 26 -48 26 -44 22 -36 15 -24 6 -9z"/>
  <path d="M446 382l2 2 7 5 11 11 15 12 16 17 18 20 20 21 20 24 21 24 19 27 18 28 17 29 13 28 10 30 7 28 1 28 -4 20 -8 19 -13 19 -16 20 -20 19 -21 19 -24 18 -24 17 -23 15 -23 16 -22 13 -20 10 -16 9 -12 8 -9 4 -3 1 8 -6 21 -19 28 -27 34 -36 33 -41 28 -45 21 -46 8 -48 -7 -38 -15 -46 -22 -48 -25 -48 -25 -44 -22 -36 -16 -24 -6 -9z"/>
 </g>
</svg>
