<?xml version="1.0" encoding="UTF-8" standalone="no"?>
<!DOCTYPE svg PUBLIC "-//W3C//DTD SVG 1.0//EN" "http://www.w3.org/TR/2001/REC-SVG-20010904/DTD/svg10.dtd">
<svg xmlns="http://www.w3.org/2000/svg" xmlns:xlink="http://www.w3.org/1999/xlink" fill-rule="evenodd" height="0.544in" preserveAspectRatio="none" stroke-linecap="round" viewBox="0 0 546 544" width="0.546in">
<style type="text/css">
.brush0 { fill: rgb(255,255,255); }
.pen0 { stroke: rgb(0,0,0); stroke-width: 1; stroke-linejoin: round; }
.brush1 { fill: none; }
.pen1 { stroke: none; }
.brush2 { fill: rgb(0,0,0); }
</style>
<g>
<polygon class="pen1 brush2" points="448,96 378,167 404,198 422,233 433,270 437,308 433,346 422,382 404,416 378,447 364,460 349,471 333,481 317,489 300,495 283,500 266,504 248,505 230,505 212,504 195,501 177,496 160,490 144,482 128,472 113,461 132,476 151,488 172,498 193,507 215,513 237,518 260,520 282,520 305,518 327,514 349,508 370,500 391,490 411,478 430,463 448,447 480,408 503,365 517,320 522,272 517,225 503,179 480,135 448,96"/>
<polygon class="pen1 brush2" points="97,447 168,377 142,346 124,312 113,275 110,237 113,199 124,162 142,127 168,96 182,83 197,72 213,63 229,55 246,48 263,43 281,40 299,38 316,38 334,40 352,43 369,48 386,54 402,62 418,72 433,83 414,68 394,56 374,45 352,37 330,31 308,26 286,24 263,24 241,26 218,30 196,36 175,43 154,54 134,66 115,80 97,96 65,135 42,179 29,225 24,272 29,320 42,365 65,408 97,447"/>
<polygon class="pen1 brush2" points="360,183 325,218 338,234 347,251 352,269 354,288 352,308 347,326 338,343 325,359 311,371 295,380 278,385 261,388 243,387 225,383 208,376 193,366 202,373 212,379 223,384 233,389 244,392 256,394 267,395 278,395 289,394 300,392 311,389 322,385 332,380 342,374 351,367 360,359 376,340 388,318 394,295 397,271 394,248 388,224 376,203 360,183"/>
<polygon class="pen1 brush2" points="185,359 221,324 208,308 199,291 194,273 192,253 194,234 199,216 208,199 221,183 235,171 251,162 269,157 286,154 304,155 321,159 338,166 353,176 344,169 334,163 324,157 313,153 302,150 291,148 280,147 269,147 257,148 246,150 235,153 224,157 214,162 204,168 194,175 185,183 169,203 158,224 151,248 149,271 151,295 158,318 169,340 185,359"/>
</g>
</svg>
