<?xml version="1.0" encoding="UTF-8" standalone="no"?>
<!DOCTYPE svg PUBLIC "-//W3C//DTD SVG 1.0//EN" "http://www.w3.org/TR/2001/REC-SVG-20010904/DTD/svg10.dtd">
<svg xmlns="http://www.w3.org/2000/svg" xmlns:xlink="http://www.w3.org/1999/xlink" fill-rule="evenodd" height="0.49in" preserveAspectRatio="none" stroke-linecap="round" viewBox="0 0 490 490" width="0.49in">
<style type="text/css">
.brush0 { fill: rgb(255,255,255); }
.pen0 { stroke: rgb(0,0,0); stroke-width: 1; stroke-linejoin: round; }
.brush1 { fill: none; }
.pen1 { stroke: none; }
.brush2 { fill: rgb(0,0,0); }
</style>
<g>
<polygon class="pen1 brush2" points="245,69 227,70 210,73 193,77 177,83 161,90 147,99 133,109 121,121 109,133 99,147 90,161 83,177 77,193 73,210 70,227 69,245 72,276 79,304 91,331 107,355 127,376 150,393 176,407 204,416 204,245 152,245 245,146 338,245 284,245 284,417 312,408 338,394 362,377 382,356 398,332 411,305 418,276 421,245 420,227 417,210 413,193 407,177 400,161 391,147 381,133 369,121 357,109 343,99 329,90 313,83 297,77 280,73 263,70 245,69 245,0 270,1 294,5 318,11 340,19 362,30 382,42 401,56 418,72 434,89 448,108 460,128 471,150 479,172 485,196 489,220 490,245 489,270 485,294 479,318 471,340 460,362 448,382 434,401 418,418 401,434 382,448 362,460 340,471 318,479 294,485 270,489 245,490 220,489 196,485 172,479 150,471 128,460 108,448 89,434 72,418 56,401 42,382 30,362 19,340 11,318 5,294 1,270 0,245 1,220 5,196 11,172 19,150 30,128 42,108 56,89 72,72 89,56 108,42 128,30 150,19 172,11 196,5 220,1 245,0 245,69"/>
</g>
</svg>
