<?xml version="1.0" encoding="UTF-8" standalone="no"?>
<!DOCTYPE svg PUBLIC "-//W3C//DTD SVG 1.0//EN" "http://www.w3.org/TR/2001/REC-SVG-20010904/DTD/svg10.dtd">
<svg xmlns="http://www.w3.org/2000/svg" xmlns:xlink="http://www.w3.org/1999/xlink" fill-rule="evenodd" height="0.5in" preserveAspectRatio="none" stroke-linecap="round" viewBox="0 0 500 500" width="0.5in">
<style type="text/css">
.brush0 { fill: rgb(255,255,255); }
.pen0 { stroke: rgb(0,0,0); stroke-width: 1; stroke-linejoin: round; }
.brush1 { fill: none; }
.pen1 { stroke: none; }
.brush2 { fill: rgb(0,0,0); }
</style>
<g>
<polygon class="pen1 brush2" points="75,141 81,144 88,146 96,146 104,145 112,145 120,145 128,147 135,151 140,156 143,159 144,162 146,164 148,165 151,166 154,166 158,167 161,164 164,161 167,158 171,155 167,144 166,135 166,128 165,121 161,116 154,111 145,105 136,95 129,78 129,62 132,46 135,28 122,35 110,44 98,52 87,61 76,71 66,82 56,93 47,104 56,114 62,124 68,133 75,141"/>
<polygon class="pen1 brush2" points="354,23 343,18 332,14 320,11 309,7 297,5 285,3 273,1 260,0 256,13 252,24 248,34 245,44 249,58 258,70 267,84 270,99 269,107 268,111 266,113 266,116 266,118 267,121 268,124 270,127 270,127 270,127 270,127 271,127 273,128 275,128 277,128 279,129 285,119 291,113 296,108 301,103 302,97 302,88 301,78 303,65 307,56 312,49 318,44 324,39 332,35 339,32 347,28 354,23"/>
<polygon class="pen1 brush2" points="208,382 209,379 208,376 207,373 207,370 203,368 199,366 195,364 191,362 182,370 175,374 168,377 162,381 159,386 157,395 154,405 149,417 143,424 137,429 130,433 122,435 115,437 107,439 99,440 91,442 102,451 114,459 126,466 138,473 151,479 164,485 178,489 192,493 198,482 204,473 210,465 214,457 213,443 207,428 201,413 201,397 204,390 206,386 207,384 208,382"/>
<polygon class="pen1 brush2" points="417,435 412,424 408,414 404,405 399,397 394,393 387,390 380,388 372,387 364,386 356,384 349,380 343,375 339,369 337,365 336,362 334,360 332,358 330,357 327,355 324,354 320,357 316,359 312,362 308,364 310,375 309,384 308,391 307,398 310,403 316,410 323,418 330,429 333,446 331,461 325,475 319,490 333,486 346,480 359,474 371,468 383,460 395,453 406,444 417,435"/>
<polygon class="pen1 brush2" points="411,119 402,130 398,146 392,161 382,173 376,177 372,178 370,179 367,180 365,182 364,184 362,187 360,190 362,194 364,198 366,202 368,206 374,205 379,206 384,206 388,207 391,209 395,210 398,211 402,211 405,210 408,209 411,206 414,203 418,200 423,197 429,194 435,192 444,190 453,190 460,192 467,195 474,198 481,202 488,206 496,210 493,196 490,181 486,168 481,154 475,141 468,129 461,117 453,105 447,108 441,110 435,111 430,112 425,114 420,115 415,117 411,119"/>
<polygon class="pen1 brush2" points="330,60 327,73 330,89 333,105 330,120 326,126 323,130 321,132 319,134 318,136 318,139 318,142 318,145 322,148 326,150 329,153 333,156 338,153 342,150 346,149 351,148 354,147 358,146 362,145 365,144 369,140 372,132 377,122 385,112 392,106 400,102 408,100 416,99 424,99 432,99 440,100 449,99 440,88 430,77 420,67 409,57 397,48 385,40 373,33 360,26 356,32 352,36 347,40 343,44 339,48 336,51 333,55 330,60"/>
<polygon class="pen1 brush2" points="148,71 152,77 157,82 164,85 171,89 179,92 186,96 192,101 196,108 199,115 200,119 200,122 200,125 201,127 204,129 206,131 209,133 213,132 217,130 222,129 226,128 226,128 226,128 226,128 226,128 227,117 231,109 234,102 236,96 235,90 231,82 227,73 223,60 223,50 225,42 228,34 232,27 237,21 243,14 248,7 253,0 252,0 252,0 251,0 250,0 235,0 221,2 207,4 193,7 179,10 166,15 153,20 140,26 143,39 144,51 145,61 148,71"/>
<polygon class="pen1 brush2" points="313,450 311,444 306,438 301,433 294,428 288,423 282,418 278,412 275,404 274,397 274,392 275,390 275,387 274,384 272,382 270,379 268,376 264,377 260,377 255,378 251,378 251,378 251,378 250,378 250,378 246,389 241,396 236,402 233,408 233,414 235,422 238,433 238,446 236,455 233,462 229,469 224,474 218,479 212,484 206,489 200,495 206,496 212,497 218,498 225,499 231,499 237,500 244,500 250,500 258,500 266,499 274,499 282,498 289,497 297,495 304,494 311,492 311,480 313,469 314,460 313,450"/>
<polygon class="pen1 brush2" points="450,311 443,310 436,310 429,313 422,315 414,318 406,320 398,320 390,318 384,315 380,312 378,311 376,309 373,308 370,308 367,309 363,309 361,313 359,316 356,320 354,324 361,333 365,341 367,348 370,354 372,356 375,357 379,359 383,360 388,362 393,364 398,367 404,371 415,384 420,398 421,414 423,430 433,420 442,409 451,398 459,387 466,375 473,363 479,350 484,337 479,334 474,330 470,326 466,323 462,319 458,316 454,313 450,311"/>
<polygon class="pen1 brush2" points="454,210 448,212 442,216 436,221 431,227 425,233 419,239 412,242 404,244 397,244 393,244 390,243 387,243 385,244 382,245 379,247 376,249 376,250 377,250 377,251 377,252 377,256 377,259 376,263 376,267 386,272 393,277 398,282 404,287 407,288 410,288 414,287 418,286 423,285 429,285 435,285 442,286 451,289 458,292 464,297 469,303 473,309 478,316 482,323 487,330 492,311 497,291 499,271 500,250 500,242 499,233 498,225 497,217 491,216 485,215 479,214 474,213 469,212 464,211 459,210 454,210"/>
<polygon class="pen1 brush2" points="60,336 66,333 71,328 76,322 80,315 84,308 89,301 95,296 102,292 109,291 114,290 116,290 119,290 121,289 124,287 126,284 128,282 127,277 127,273 126,268 125,264 119,263 114,262 110,260 107,258 103,256 100,254 97,252 94,251 91,251 88,251 84,253 80,254 75,256 70,258 64,259 57,260 47,259 39,256 32,253 26,248 20,242 14,236 8,231 1,225 0,231 0,237 0,244 0,250 1,273 4,295 9,317 16,338 23,337 29,337 34,337 40,337 45,338 50,338 55,337 60,336"/>
<polygon class="pen1 brush2" points="122,415 128,403 129,387 131,371 138,357 144,352 147,350 150,349 152,348 154,345 155,342 156,339 157,336 154,333 151,329 148,326 146,322 140,324 135,325 130,325 126,325 122,325 118,325 115,325 111,325 106,328 100,334 93,342 83,350 74,354 66,355 58,355 50,354 43,352 35,349 27,347 19,345 25,358 31,371 38,383 46,395 55,406 64,417 74,427 85,437 90,433 95,430 100,428 105,425 110,423 114,421 118,418 122,415"/>
<polygon class="pen1 brush2" points="76,168 68,163 62,156 57,149 54,142 52,134 49,126 47,118 43,110 35,122 29,134 22,147 17,161 12,174 8,189 5,203 2,218 9,220 15,223 20,226 25,229 29,231 34,234 38,236 43,237 50,237 57,235 64,231 71,227 78,223 85,219 93,218 101,218 108,220 112,221 115,223 117,224 119,224 122,223 125,222 129,221 130,217 131,212 133,208 135,204 126,197 121,189 117,183 113,177 111,176 108,175 104,174 99,174 94,173 88,172 82,170 76,168"/>
</g>
</svg>
