<?xml version="1.0" encoding="UTF-8" standalone="no"?>
<!DOCTYPE svg PUBLIC "-//W3C//DTD SVG 1.0//EN" "http://www.w3.org/TR/2001/REC-SVG-20010904/DTD/svg10.dtd">
<svg xmlns="http://www.w3.org/2000/svg" xmlns:xlink="http://www.w3.org/1999/xlink" fill-rule="evenodd" height="0.35in" preserveAspectRatio="none" stroke-linecap="round" viewBox="0 0 499 350" width="0.499in">
<style type="text/css">
.brush0 { fill: rgb(255,255,255); }
.pen0 { stroke: rgb(0,0,0); stroke-width: 1; stroke-linejoin: round; }
.brush1 { fill: none; }
.pen1 { stroke: none; }
.brush2 { fill: rgb(0,0,0); }
</style>
<g>
<polygon class="pen1 brush2" points="499,350 499,0 0,0 0,350 499,350"/>
<polygon class="pen1 brush0" points="254,118 261,131 267,146 271,161 272,177 270,199 263,219 253,237 240,253 224,266 205,276 185,282 163,284 141,282 121,276 102,266 87,253 73,237 63,219 57,199 55,177 57,155 63,135 73,116 87,100 102,87 121,77 141,70 163,68 168,68 172,69 177,69 181,70 186,71 190,72 194,73 198,74 202,69 207,64 211,59 216,54 221,49 226,45 231,41 237,37 229,33 220,30 211,26 202,24 192,22 183,20 173,19 163,19 131,22 102,31 75,46 52,65 33,89 18,116 9,145 6,177 9,209 18,238 33,265 52,288 75,307 102,321 131,330 163,333 195,330 224,321 251,307 274,288 293,265 308,238 317,209 320,177 318,153 313,129 305,108 294,88 288,90 283,93 277,97 272,100 267,104 263,109 258,113 254,118"/>
<polygon class="pen1 brush0" points="329,19 298,22 268,31 242,46 218,65 199,89 184,116 175,145 172,177 174,201 180,224 188,246 200,266 206,263 211,260 217,257 222,253 226,249 231,245 235,241 239,236 232,223 226,208 223,193 222,177 224,155 230,135 240,116 253,100 269,87 287,77 307,70 329,68 351,70 371,77 390,87 406,100 419,116 429,135 436,155 438,177 436,199 429,219 419,237 406,253 390,266 371,276 351,282 329,284 325,284 320,284 316,283 312,283 308,282 304,281 300,280 296,279 292,284 287,289 283,293 278,298 273,303 267,307 262,311 256,315 264,319 273,323 282,326 291,328 300,330 309,332 319,333 329,333 361,330 390,321 417,307 441,288 460,265 475,238 484,209 487,177 484,145 475,116 460,89 441,65 417,46 390,31 361,22 329,19"/>
</g>
</svg>
