<?xml version="1.0" encoding="UTF-8" standalone="no"?>
<!DOCTYPE svg PUBLIC "-//W3C//DTD SVG 1.0//EN" "http://www.w3.org/TR/2001/REC-SVG-20010904/DTD/svg10.dtd">
<svg xmlns="http://www.w3.org/2000/svg" xmlns:xlink="http://www.w3.org/1999/xlink" fill-rule="evenodd" height="0.494in" preserveAspectRatio="none" stroke-linecap="round" viewBox="0 0 496 494" width="0.496in">
<style type="text/css">
.brush0 { fill: rgb(255,255,255); }
.pen0 { stroke: rgb(0,0,0); stroke-width: 1; stroke-linejoin: round; }
.brush1 { fill: none; }
.pen1 { stroke: none; }
.brush2 { fill: rgb(0,0,0); }
</style>
<g>
<polygon class="pen1 brush2" points="82,246 83,263 85,279 89,294 95,309 102,323 110,337 119,349 130,361 142,371 154,380 168,389 182,395 197,401 213,405 229,407 246,408 262,407 279,405 294,401 309,395 323,389 336,380 349,371 360,361 371,349 380,337 388,323 395,309 401,294 405,279 407,263 408,246 407,229 405,213 401,197 395,182 388,168 380,154 371,142 360,130 349,119 336,110 323,102 309,95 294,89 279,85 262,83 246,82 229,83 213,85 197,89 182,95 168,102 154,110 142,119 130,130 119,142 110,154 102,168 95,182 89,197 85,213 83,229 82,246 0,243 0,238 27,236 32,214 6,202 12,179 37,186 43,162 25,150 32,129 56,136 69,118 50,105 65,80 83,97 101,80 88,62 107,45 120,66 143,52 132,30 157,19 166,39 189,32 182,10 206,4 212,28 233,28 239,0 258,0 261,28 283,28 287,2 313,8 311,32 331,39 339,16 366,28 357,47 373,60 387,41 410,60 394,77 412,93 432,77 448,101 432,116 442,136 463,123 474,150 454,159 461,181 482,175 489,200 467,207 469,229 496,231 496,243 496,257 496,257 469,257 467,279 489,285 482,313 458,306 452,331 471,343 463,364 438,353 427,371 448,390 432,410 412,396 396,410 412,427 387,446 375,425 357,442 366,460 341,473 328,453 309,460 313,481 290,487 283,464 264,466 261,494 239,494 239,466 212,464 206,487 182,487 189,460 166,453 157,475 132,466 143,442 122,431 107,448 88,435 101,414 81,396 67,412 50,390 67,373 54,358 35,366 23,345 43,331 37,313 12,318 6,291 30,285 25,261 2,259 0,243 82,246"/>
<polygon class="pen1 brush2" points="248,330 265,328 280,323 294,316 306,306 316,293 324,279 328,264 330,247 328,231 324,215 316,201 306,189 294,179 280,171 265,167 248,165 232,167 216,171 202,179 190,189 180,201 172,215 168,231 166,247 168,264 172,279 180,293 190,306 202,316 216,323 232,328 248,330"/>
</g>
</svg>
