<?xml version="1.0" encoding="UTF-8" standalone="no"?>
<!DOCTYPE svg PUBLIC "-//W3C//DTD SVG 1.0//EN" "http://www.w3.org/TR/2001/REC-SVG-20010904/DTD/svg10.dtd">
<svg xmlns="http://www.w3.org/2000/svg" xmlns:xlink="http://www.w3.org/1999/xlink" fill-rule="evenodd" height="0.352in" preserveAspectRatio="none" stroke-linecap="round" viewBox="0 0 492 352" width="0.492in">
<style type="text/css">
.brush0 { fill: rgb(255,255,255); }
.pen0 { stroke: rgb(0,0,0); stroke-width: 1; stroke-linejoin: round; }
.brush1 { fill: none; }
.pen1 { stroke: none; }
.brush2 { fill: rgb(0,0,0); }
</style>
<g>
<polygon class="pen1 brush2" points="492,226 490,196 485,168 477,140 465,114 363,226 492,226 492,226"/>
<polygon class="pen1 brush2" points="246,279 246,223 344,0 351,3 358,6 365,10 371,14 378,18 384,22 390,26 396,31 389,43 371,72 347,112 320,157 293,202 269,241 252,269 246,279"/>
<polygon class="pen1 brush2" points="246,297 246,352 451,90 447,84 443,79 439,74 435,68 430,63 426,58 421,54 417,49 246,297"/>
<polygon class="pen1 brush2" points="0,226 2,196 7,168 15,140 26,114 129,226 0,226 0,226"/>
<polygon class="pen1 brush2" points="246,279 246,223 148,0 141,3 134,6 127,10 121,14 114,18 108,22 102,26 96,31 103,43 121,72 145,112 172,157 199,202 223,241 240,269 246,279"/>
<polygon class="pen1 brush2" points="246,297 246,352 41,90 45,84 49,79 53,74 57,68 61,63 66,58 70,54 75,49 246,297"/>
</g>
</svg>
