<?xml version="1.0" encoding="UTF-8" standalone="no"?>
<!DOCTYPE svg PUBLIC "-//W3C//DTD SVG 1.0//EN" "http://www.w3.org/TR/2001/REC-SVG-20010904/DTD/svg10.dtd">
<svg xmlns="http://www.w3.org/2000/svg" xmlns:xlink="http://www.w3.org/1999/xlink" fill-rule="evenodd" height="0.482in" preserveAspectRatio="none" stroke-linecap="round" viewBox="0 0 480 482" width="0.48in">
<style type="text/css">
.brush0 { fill: rgb(255,255,255); }
.pen0 { stroke: rgb(0,0,0); stroke-width: 1; stroke-linejoin: round; }
.brush1 { fill: none; }
.pen1 { stroke: none; }
.brush2 { fill: rgb(0,0,0); }
</style>
<g>
<polygon class="pen1 brush2" points="398,241 478,242 471,216 461,192 448,170 433,149 414,131 394,115 372,102 348,92 398,241"/>
<polygon class="pen1 brush2" points="345,402 241,478 246,479 251,479 256,480 261,481 266,481 271,482 276,482 281,482 297,481 313,479 329,476 344,471 359,466 373,459 387,451 400,442 345,402"/>
<polygon class="pen1 brush2" points="431,341 447,392 453,382 459,372 464,362 469,351 473,340 476,329 478,317 480,305 431,341"/>
<polygon class="pen1 brush2" points="261,341 126,242 293,241 343,90 335,88 328,85 320,84 312,82 305,81 297,81 289,80 281,80 260,81 240,84 221,89 203,96 185,104 168,114 153,126 138,139 125,153 114,169 103,185 95,203 88,221 83,240 80,260 79,281 82,314 89,345 102,374 119,400 139,424 163,444 190,460 219,472 261,341"/>
<polygon class="pen1 brush2" points="281,47 290,45 297,40 301,32 303,23 301,14 297,7 290,2 281,0 272,2 265,7 260,14 258,23 260,32 265,40 272,45 281,47"/>
<polygon class="pen1 brush2" points="191,64 199,59 204,52 206,43 204,34 202,30 199,26 195,24 191,21 187,20 182,20 178,20 173,21 166,26 161,34 159,43 161,52 163,56 166,60 170,62 173,64 178,66 182,66 186,65 191,64"/>
<polygon class="pen1 brush2" points="115,115 120,107 122,98 120,90 115,82 111,79 107,77 103,76 99,75 94,76 90,77 86,79 82,82 77,90 75,98 77,107 82,115 86,118 90,120 94,121 99,122 103,121 107,120 111,118 115,115"/>
<polygon class="pen1 brush2" points="64,191 66,182 64,173 60,166 52,161 47,160 43,159 38,160 34,161 30,163 26,166 23,170 21,174 19,183 21,191 26,199 34,204 39,205 43,206 47,205 52,204 55,202 59,199 62,195 64,191"/>
<polygon class="pen1 brush2" points="46,281 44,272 39,265 32,260 23,258 14,260 7,265 2,272 0,281 2,290 7,297 14,302 23,304 32,302 39,297 44,290 46,281"/>
</g>
</svg>
