<?xml version="1.0" encoding="UTF-8" standalone="no"?>
<!DOCTYPE svg PUBLIC "-//W3C//DTD SVG 1.0//EN" "http://www.w3.org/TR/2001/REC-SVG-20010904/DTD/svg10.dtd">
<svg xmlns="http://www.w3.org/2000/svg" xmlns:xlink="http://www.w3.org/1999/xlink" fill-rule="evenodd" height="0.939in" preserveAspectRatio="none" stroke-linecap="round" viewBox="0 0 1040 939" width="1.04in">
<style type="text/css">
.brush0 { fill: rgb(255,255,255); }
.pen0 { stroke: rgb(0,0,0); stroke-width: 1; stroke-linejoin: round; }
.brush1 { fill: none; }
.pen1 { stroke: none; }
.brush2 { fill: rgb(0,0,0); }
</style>
<g>
<polygon class="pen1 brush2" points="479,2 434,8 391,18 350,32 310,49 273,70 237,94 204,122 174,152 147,184 122,219 101,257 83,296 69,337 59,380 52,424 50,470 52,518 60,564 71,609 87,652 107,693 130,732 157,768 188,801 221,832 257,859 296,882 337,902 380,918 425,929 472,937 520,939 568,937 614,929 659,918 702,902 743,882 781,859 817,832 851,801 881,768 908,732 931,693 951,652 967,609 978,564 986,518 988,470 986,423 979,377 968,333 952,290 933,250 910,211 884,176 855,142 823,112 788,85 750,61 710,41 669,24 625,12 580,4 533,0 536,5 541,10 547,16 553,22 561,28 569,35 578,41 587,48 577,48 568,48 559,48 551,49 543,50 535,52 527,53 520,55 532,61 546,68 561,75 577,82 594,91 611,100 629,110 646,122 662,134 678,148 692,164 705,181 716,200 724,221 729,243 732,268 729,317 720,361 704,398 684,430 662,455 638,474 614,486 591,490 583,464 582,431 587,399 598,377 605,367 613,351 622,333 630,312 636,290 642,268 645,249 646,232 643,216 636,199 625,183 612,168 595,155 575,145 553,139 529,137 509,138 492,140 476,144 462,151 450,162 438,176 428,196 418,221 407,231 394,242 378,253 361,263 345,273 330,281 319,288 311,291 306,293 302,296 300,300 300,304 301,307 305,310 312,311 322,311 337,309 356,304 378,298 402,291 425,284 445,279 462,276 474,277 483,280 493,283 501,288 507,293 509,301 506,310 497,321 479,334 457,349 436,366 416,383 399,402 385,420 376,438 371,455 372,470 351,451 332,433 314,415 299,396 287,374 279,350 276,322 277,289 280,271 284,253 290,234 297,216 305,198 315,181 326,164 338,149 352,134 367,120 382,108 399,98 417,89 436,82 456,78 477,75 471,72 465,68 459,64 452,60 446,57 439,53 432,49 424,46 433,41 441,35 448,30 455,24 461,18 467,13 473,7 479,2"/>
<polygon class="pen1 brush0" points="449,214 457,204 467,195 479,185 491,177 504,171 517,166 529,164 540,166 551,169 564,173 577,179 589,188 598,202 604,221 604,247 598,282 586,318 573,350 558,377 545,402 535,424 528,445 527,465 533,486 545,507 560,528 577,550 594,574 609,599 620,627 627,657 627,691 621,725 610,757 597,785 581,809 565,831 549,848 536,861 526,870 511,857 495,845 478,836 460,830 443,825 428,824 414,825 404,829 412,837 422,846 432,855 442,865 451,875 459,884 465,891 467,897 385,867 315,829 256,786 207,738 169,686 140,632 121,575 110,517 108,459 114,402 128,346 149,294 177,245 211,202 251,163 297,132 274,168 256,203 243,237 234,270 230,302 229,332 232,361 239,388 248,413 261,437 276,459 294,478 314,496 336,512 359,525 384,536 424,548 452,552 469,549 476,541 474,530 462,517 441,505 413,495 416,474 426,451 441,426 459,401 479,377 499,355 517,337 533,323 544,312 550,301 552,291 550,281 546,272 540,264 533,257 526,252 519,248 512,243 504,238 495,232 486,227 475,222 463,218 449,214"/>
<polygon class="pen1 brush0" points="707,105 755,139 799,179 836,223 867,272 892,323 910,377 920,432 923,489 917,546 903,602 880,658 847,711 805,762 753,810 690,854 616,893 637,858 656,814 670,764 679,711 682,660 676,612 660,571 634,542 650,532 667,518 685,502 702,483 720,461 736,436 750,410 762,381 772,351 778,319 779,285 776,251 768,215 755,179 734,142 707,105"/>
<polygon class="pen1 brush2" points="524,228 530,227 535,223 539,217 540,211 539,205 535,200 530,196 524,195 518,196 513,200 509,205 508,211 509,217 513,223 518,227 524,228"/>
</g>
</svg>
