<?xml version="1.0" encoding="UTF-8" standalone="no"?>
<!DOCTYPE svg PUBLIC "-//W3C//DTD SVG 1.0//EN" "http://www.w3.org/TR/2001/REC-SVG-20010904/DTD/svg10.dtd">
<svg xmlns="http://www.w3.org/2000/svg" xmlns:xlink="http://www.w3.org/1999/xlink" fill-rule="evenodd" height="0.499in" preserveAspectRatio="none" stroke-linecap="round" viewBox="0 0 499 499" width="0.499in">
<style type="text/css">
.brush0 { fill: rgb(255,255,255); }
.pen0 { stroke: rgb(0,0,0); stroke-width: 1; stroke-linejoin: round; }
.brush1 { fill: none; }
.pen1 { stroke: none; }
.brush2 { fill: rgb(0,0,0); }
</style>
<g>
<polygon class="pen1 brush2" points="153,499 166,477 161,471 157,464 152,458 148,451 112,452 107,439 101,426 127,401 125,393 124,386 122,378 121,370 88,357 88,344 88,331 121,317 122,309 123,302 125,294 127,287 101,262 107,249 112,236 148,237 152,230 157,224 161,217 166,211 151,177 161,168 171,158 204,172 210,168 217,163 223,159 230,155 229,119 242,113 255,108 280,134 287,132 295,130 302,129 309,128 323,94 337,94 350,94 364,128 368,128 372,129 375,130 379,130 383,131 387,132 390,133 394,134 419,108 432,113 445,119 444,155 451,159 457,163 464,168 470,172 499,162 499,0 0,0 0,499 153,499"/>
<polygon class="pen1 brush2" points="449,344 447,321 440,300 430,281 416,264 400,250 381,240 360,233 337,231 314,233 293,240 274,250 258,264 244,281 234,300 227,321 225,344 227,367 234,388 244,407 258,423 274,437 293,447 314,454 337,456 360,454 381,447 400,437 416,423 430,407 440,388 447,367 449,344"/>
</g>
</svg>
