<?xml version="1.0" encoding="UTF-8" standalone="no"?>
<!DOCTYPE svg PUBLIC "-//W3C//DTD SVG 1.0//EN" "http://www.w3.org/TR/2001/REC-SVG-20010904/DTD/svg10.dtd">
<svg xmlns="http://www.w3.org/2000/svg" xmlns:xlink="http://www.w3.org/1999/xlink" fill-rule="evenodd" height="0.494in" preserveAspectRatio="none" stroke-linecap="round" viewBox="0 0 442 494" width="0.442in">
<style type="text/css">
.brush0 { fill: rgb(255,255,255); }
.pen0 { stroke: rgb(0,0,0); stroke-width: 1; stroke-linejoin: round; }
.brush1 { fill: none; }
.pen1 { stroke: none; }
.brush2 { fill: rgb(0,0,0); }
</style>
<g>
<polygon class="pen1 brush2" points="357,309 359,314 365,320 373,325 382,327 391,326 400,323 410,319 420,312 429,303 436,292 440,278 442,262 441,249 437,237 431,226 422,215 412,207 399,200 385,196 369,194 349,196 329,203 311,214 294,229 280,247 269,268 262,292 260,317 261,332 264,347 269,360 276,371 284,381 295,388 307,392 320,394 329,393 336,392 343,389 347,385 351,382 353,378 355,374 355,370 354,362 350,357 347,354 344,353 345,356 345,364 340,372 325,375 316,373 308,369 302,362 298,355 294,347 292,340 291,334 291,331 292,319 295,307 301,296 309,285 319,276 332,268 347,264 364,262 376,264 386,270 392,278 395,288 395,298 391,306 384,312 372,314 365,313 361,311 358,310 357,309"/>
<polygon class="pen1 brush2" points="85,309 83,314 77,320 69,325 60,327 51,326 42,323 32,319 22,312 13,303 6,292 2,278 0,262 1,249 5,237 11,226 20,215 30,207 43,200 57,196 73,194 93,196 113,203 131,214 148,229 162,247 173,268 180,292 183,317 182,332 179,347 174,360 167,371 158,381 147,388 135,392 121,394 112,393 105,392 99,389 95,385 91,382 89,378 87,374 87,370 88,362 92,357 95,354 98,353 97,356 97,364 102,372 117,375 126,373 134,369 140,362 144,355 147,347 149,340 150,334 150,331 149,319 146,307 140,296 133,285 123,276 110,268 95,264 78,262 66,264 56,270 50,278 47,288 47,298 51,306 58,312 70,314 76,313 81,311 84,310 85,309"/>
<polygon class="pen1 brush2" points="148,343 143,342 139,340 136,336 135,331 136,326 139,322 143,319 148,318 294,318 299,319 303,322 306,326 307,331 306,336 303,340 299,342 294,343 148,343"/>
<polygon class="pen1 brush2" points="221,0 218,6 210,15 199,26 187,39 174,54 163,72 155,93 152,116 154,140 159,164 165,188 173,213 181,238 187,265 192,293 194,322 192,344 188,362 181,376 173,386 165,394 157,400 150,405 146,408 146,412 153,416 164,421 179,428 194,438 208,452 217,470 221,494 225,470 234,452 248,438 263,428 278,421 289,416 296,412 296,408 292,405 285,400 278,394 270,386 262,376 255,362 251,344 249,322 251,293 255,265 262,238 270,213 277,188 284,164 288,140 290,116 287,93 279,72 268,54 256,39 243,26 232,15 224,6 221,0"/>
</g>
</svg>
