<?xml version="1.0" encoding="UTF-8" standalone="no"?>
<!DOCTYPE svg PUBLIC "-//W3C//DTD SVG 1.0//EN" "http://www.w3.org/TR/2001/REC-SVG-20010904/DTD/svg10.dtd">
<svg xmlns="http://www.w3.org/2000/svg" xmlns:xlink="http://www.w3.org/1999/xlink" fill-rule="evenodd" height="0.342in" preserveAspectRatio="none" stroke-linecap="round" viewBox="0 0 511 342" width="0.511in">
<style type="text/css">
.brush0 { fill: rgb(255,255,255); }
.pen0 { stroke: rgb(0,0,0); stroke-width: 1; stroke-linejoin: round; }
.brush1 { fill: none; }
.pen1 { stroke: none; }
.brush2 { fill: rgb(0,0,0); }
</style>
<g>
<polygon class="pen1 brush2" points="336,0 170,0 155,15 186,15 177,5 342,5 336,0"/>
<polygon class="pen1 brush2" points="377,40 129,40 115,55 227,55 217,46 383,46 377,40"/>
<polygon class="pen1 brush2" points="419,81 89,81 74,96 267,96 258,86 424,86 419,81"/>
<polygon class="pen1 brush2" points="465,121 48,121 34,136 308,136 298,127 471,127 465,121"/>
<polygon class="pen1 brush2" points="506,162 9,162 0,171 7,177 338,177 343,172 338,167 511,167 506,162"/>
<polygon class="pen1 brush2" points="154,323 173,342 187,327 342,327 346,323 154,323"/>
<polygon class="pen1 brush2" points="113,282 127,296 219,296 228,287 383,287 387,282 113,282"/>
<polygon class="pen1 brush2" points="73,243 86,257 259,256 268,247 429,247 434,243 73,243"/>
<polygon class="pen1 brush2" points="32,202 46,216 300,216 308,207 471,207 475,202 32,202"/>
</g>
</svg>
