<?xml version="1.0" encoding="UTF-8" standalone="no"?>
<!DOCTYPE svg PUBLIC "-//W3C//DTD SVG 1.0//EN" "http://www.w3.org/TR/2001/REC-SVG-20010904/DTD/svg10.dtd">
<svg xmlns="http://www.w3.org/2000/svg" xmlns:xlink="http://www.w3.org/1999/xlink" fill-rule="evenodd" height="1.037in" preserveAspectRatio="none" stroke-linecap="round" viewBox="0 0 991 1037" width="0.991in">
<style type="text/css">
.brush0 { fill: rgb(255,255,255); }
.pen0 { stroke: rgb(0,0,0); stroke-width: 1; stroke-linejoin: round; }
.brush1 { fill: none; }
.pen1 { stroke: none; }
.brush2 { fill: rgb(0,0,0); }
</style>
<g>
<polygon class="pen1 brush2" points="612,727 632,719 653,716 673,716 693,719 713,726 732,735 750,746 767,759 780,769 790,780 796,792 799,805 799,817 796,830 791,842 784,854 775,865 764,875 752,883 740,890 726,895 713,897 699,897 685,895 671,888 657,878 645,865 634,847 625,824 618,797 614,765 612,727 612,727"/>
<polygon class="pen1 brush2" points="233,530 13,530 13,530 13,530 13,530 14,530 26,551 40,569 55,582 72,592 91,600 111,605 131,608 153,609 175,609 197,608 219,607 241,605 263,604 285,603 305,603 325,605 339,640 340,676 333,714 320,752 306,791 294,829 288,866 291,903 295,920 301,937 310,952 321,966 333,979 346,991 361,1001 376,1010 394,1018 413,1024 431,1028 449,1029 465,1028 480,1024 494,1018 506,1009 544,979 567,941 578,899 580,852 576,803 570,754 565,707 564,662 581,641 598,625 618,616 638,611 659,609 681,611 704,615 727,621 750,627 773,634 796,639 818,643 841,644 862,643 882,637 902,626 912,619 922,610 930,601 939,591 946,580 953,569 960,558 966,547 968,543 971,538 973,534 974,530 844,530 835,544 822,552 804,556 783,557 759,556 733,553 705,550 676,547 647,547 619,549 591,555 565,565 541,582 520,605 503,635 490,675 443,824 425,796 414,765 409,731 406,696 403,661 398,625 387,591 369,557 360,556 348,554 332,552 313,549 294,545 273,541 253,536 233,530 233,530"/>
<polygon class="pen1 brush2" points="27,733 33,720 40,708 49,698 59,689 70,682 82,675 94,670 108,666 121,663 135,660 149,658 163,657 177,656 191,656 204,656 216,656 226,674 230,693 230,713 225,735 218,757 209,780 199,802 189,824 174,839 157,849 141,854 124,856 108,853 93,847 78,837 65,825 56,816 48,806 39,795 33,783 27,771 24,758 24,746 27,733"/>
<polygon class="pen1 brush2" points="845,496 842,485 836,475 829,468 819,462 808,458 796,455 782,453 768,452 753,452 737,452 722,453 706,454 692,455 677,455 664,455 652,455 613,438 583,411 559,377 542,338 529,297 519,257 513,221 507,192 500,191 493,190 487,190 480,189 474,189 467,189 459,189 450,189 474,442 463,463 450,480 435,492 419,500 401,505 383,507 363,507 343,504 323,501 302,496 282,491 261,485 241,481 222,477 203,474 185,474 182,483 182,491 185,499 191,506 199,513 208,519 220,525 233,530 13,530 6,510 3,492 3,475 6,459 8,449 11,440 15,431 20,423 25,415 32,408 39,401 47,395 55,390 64,385 73,381 82,377 92,374 102,372 113,371 123,370 134,370 145,370 156,372 167,374 178,377 189,381 200,385 210,391 221,397 234,404 248,412 263,420 279,428 295,435 312,442 329,447 346,451 362,453 378,453 392,450 405,444 417,434 427,421 435,403 435,385 431,369 424,355 415,342 404,329 391,318 377,307 363,296 348,285 333,274 320,262 307,249 296,236 287,220 281,204 277,185 282,157 292,131 307,108 325,88 347,69 370,51 393,35 417,19 427,14 438,10 450,7 462,5 475,4 487,3 500,4 513,6 525,8 536,11 547,16 558,21 567,28 575,36 582,44 587,54 598,96 602,141 601,188 600,236 603,281 613,324 634,361 670,391 683,391 697,391 711,390 725,387 740,385 754,382 769,379 784,376 798,372 813,369 828,367 842,365 856,363 870,362 883,363 896,364 911,366 925,371 938,378 951,388 962,400 972,416 980,435 987,457 988,476 987,495 982,513 974,530 844,530 845,522 846,514 846,505 845,496 845,496"/>
<polygon class="pen1 brush2" points="285,365 308,363 322,356 328,345 327,331 320,314 308,296 292,277 273,259 252,241 230,225 207,212 186,203 166,197 148,197 135,203 126,216 124,224 122,231 121,239 121,247 122,255 125,263 129,271 135,280 144,289 155,298 169,308 185,318 205,329 228,340 255,352 285,365 285,365"/>
<polygon class="pen1 brush2" points="763,324 785,322 806,315 825,305 842,292 856,275 869,257 880,237 888,215 895,182 896,149 892,117 882,88 860,84 839,82 818,82 797,84 778,88 759,94 741,101 725,110 711,120 698,132 688,144 679,158 674,173 670,188 670,205 673,222 680,232 688,242 697,253 708,266 719,279 733,293 747,308 763,324"/>
</g>
</svg>
