<?xml version="1.0" encoding="UTF-8" standalone="no"?>
<!DOCTYPE svg PUBLIC "-//W3C//DTD SVG 1.0//EN" "http://www.w3.org/TR/2001/REC-SVG-20010904/DTD/svg10.dtd">
<svg xmlns="http://www.w3.org/2000/svg" xmlns:xlink="http://www.w3.org/1999/xlink" fill-rule="evenodd" height="0.656in" preserveAspectRatio="none" stroke-linecap="round" viewBox="0 0 343 656" width="0.343in">
<style type="text/css">
.brush0 { fill: rgb(255,255,255); }
.pen0 { stroke: rgb(0,0,0); stroke-width: 1; stroke-linejoin: round; }
.brush1 { fill: none; }
.pen1 { stroke: none; }
.brush2 { fill: rgb(0,0,0); }
</style>
<g>
<polygon class="pen1 brush2" points="172,239 154,240 137,243 121,247 105,253 90,260 76,269 63,279 50,290 39,302 29,316 21,330 14,345 8,361 3,377 1,394 0,412 1,429 3,446 8,463 14,478 21,493 29,507 39,521 50,533 63,544 76,554 90,562 105,569 121,575 137,580 154,582 172,583 189,582 206,580 223,575 238,569 253,562 267,554 281,544 293,533 304,521 314,507 322,493 330,478 335,463 340,446 342,429 343,412 342,394 340,377 335,361 330,345 322,330 314,316 304,302 293,290 281,279 267,269 253,260 238,253 223,247 206,243 189,240 172,239"/>
<polygon class="pen1 brush0" points="172,499 154,497 137,492 122,484 109,473 98,461 90,446 85,430 83,412 85,394 90,377 98,362 109,349 122,338 137,330 154,325 172,323 190,325 206,330 221,338 234,349 245,362 253,377 258,394 260,412 258,430 253,446 245,461 234,473 221,484 206,492 190,497 172,499"/>
<polygon class="pen1 brush2" points="154,656 154,171 196,171 196,656 154,656"/>
<polygon class="pen1 brush0" points="154,582 159,583 163,583 168,583 172,583 178,583 184,582 190,582 196,581 196,241 190,240 184,240 178,239 172,239 168,239 163,239 159,240 154,240 154,582"/>
<polygon class="pen1 brush2" points="154,325 154,498 159,499 163,499 168,499 172,499 178,499 184,498 190,497 196,496 196,326 190,325 184,324 178,323 172,323 168,323 163,324 159,324 154,325"/>
<polygon class="pen1 brush2" points="76,171 175,0 273,171 76,171"/>
</g>
</svg>
