<?xml version="1.0" encoding="UTF-8" standalone="no"?>
<!DOCTYPE svg PUBLIC "-//W3C//DTD SVG 1.0//EN" "http://www.w3.org/TR/2001/REC-SVG-20010904/DTD/svg10.dtd">
<svg xmlns="http://www.w3.org/2000/svg" xmlns:xlink="http://www.w3.org/1999/xlink" fill-rule="evenodd" height="1.0in" preserveAspectRatio="none" stroke-linecap="round" viewBox="0 0 720 1000" width="0.72in">
<style type="text/css">
.brush0 { fill: rgb(255,255,255); }
.pen0 { stroke: rgb(0,0,0); stroke-width: 1; stroke-linejoin: round; }
.brush1 { fill: none; }
.pen1 { stroke: none; }
.brush2 { fill: rgb(0,0,0); }
</style>
<g>
<polygon class="pen1 brush2" points="45,267 54,232 65,197 78,163 92,130 108,97 126,64 145,32 166,0 632,21 642,44 652,69 661,97 669,127 676,160 683,194 688,230 693,267 622,267 620,256 617,245 614,233 612,221 610,233 608,245 606,256 605,267 533,267 535,226 534,184 531,140 527,96 516,140 509,184 505,226 504,267 429,267 425,252 421,236 415,220 408,204 401,187 392,170 383,153 372,135 367,152 362,168 357,185 352,201 347,218 343,234 339,251 335,267 274,267 275,219 274,172 272,135 270,115 261,149 254,187 249,227 247,267 179,267 176,250 172,234 168,217 164,201 160,184 155,168 150,151 145,135 138,151 132,168 126,184 121,201 117,217 112,234 109,250 105,267 45,267"/>
<polygon class="pen1 brush2" points="565,1000 497,568 337,980 325,936 316,891 310,845 305,798 299,753 290,708 278,665 260,625 166,980 144,929 123,879 105,830 88,782 73,735 61,689 50,643 42,598 35,554 31,511 28,469 27,427 29,386 32,346 38,306 45,267 105,267 97,334 94,401 96,468 102,534 111,601 122,667 133,733 145,800 163,731 177,663 188,596 194,530 196,464 194,398 189,333 179,267 247,267 249,285 251,302 254,317 260,331 266,325 270,311 273,291 274,267 335,267 327,320 321,373 320,425 322,477 328,529 338,581 353,632 372,683 376,627 385,573 397,522 411,472 423,423 431,373 434,321 429,267 504,267 506,290 509,314 513,337 518,361 522,338 527,315 530,291 533,267 605,267 596,337 587,407 581,476 578,544 577,612 582,680 590,749 605,818 607,743 613,673 621,607 629,543 635,479 637,412 633,342 622,267 693,267 700,366 702,469 697,574 685,677 666,774 640,863 607,939 565,1000"/>
</g>
</svg>
