<?xml version="1.0" encoding="UTF-8" standalone="no"?>
<!DOCTYPE svg PUBLIC "-//W3C//DTD SVG 1.0//EN" "http://www.w3.org/TR/2001/REC-SVG-20010904/DTD/svg10.dtd">
<svg xmlns="http://www.w3.org/2000/svg" xmlns:xlink="http://www.w3.org/1999/xlink" fill-rule="evenodd" height="0.538in" preserveAspectRatio="none" stroke-linecap="round" viewBox="0 0 563 538" width="0.563in">
<style type="text/css">
.brush0 { fill: rgb(255,255,255); }
.pen0 { stroke: rgb(0,0,0); stroke-width: 1; stroke-linejoin: round; }
.brush1 { fill: none; }
.pen1 { stroke: none; }
.brush2 { fill: rgb(0,0,0); }
</style>
<g>
<polygon class="pen1 brush2" points="189,5 182,7 173,10 163,14 152,20 142,26 132,32 123,38 115,43 108,48 100,54 91,61 81,70 70,82 59,96 47,114 34,136 23,159 14,180 9,199 5,216 3,231 3,245 3,257 5,267 8,287 11,310 15,333 21,352 25,361 29,372 34,383 40,395 46,408 53,420 61,433 70,444 78,456 89,467 101,478 114,489 127,498 141,507 153,514 164,520 175,524 186,528 197,531 209,533 220,535 230,536 240,537 249,537 258,537 268,536 278,535 289,535 299,534 309,534 317,534 324,534 331,534 338,534 345,533 352,531 359,528 366,525 372,522 378,519 383,516 389,513 396,510 403,508 410,505 417,502 425,498 433,494 441,488 449,481 457,473 464,465 472,456 479,448 485,440 492,434 498,427 505,418 511,407 518,395 524,384 531,374 536,366 541,360 549,346 555,323 559,299 561,281 561,263 560,239 556,214 548,195 549,171 544,147 535,127 526,113 520,107 514,100 506,92 498,83 490,74 483,66 476,58 470,52 464,45 455,38 445,29 433,20 421,12 409,6 397,2 387,0 392,6 399,12 407,18 415,23 423,28 430,33 437,37 441,40 445,44 452,49 459,57 467,65 475,74 482,83 488,90 493,96 501,111 510,132 517,154 520,174 527,176 529,204 529,238 525,271 515,295 511,305 506,317 500,330 492,343 484,355 475,366 466,374 457,378 446,382 436,386 428,391 420,397 412,402 405,408 399,414 392,419 385,424 378,428 370,432 362,435 353,438 344,440 334,442 323,443 313,444 304,445 297,446 292,447 288,448 286,448 284,449 284,449 275,445 264,442 253,438 240,434 228,431 216,427 205,424 196,421 191,417 186,413 181,409 177,406 171,403 166,400 160,396 154,392 146,385 137,375 126,362 116,348 105,332 97,316 90,300 87,285 89,273 86,257 83,234 80,210 76,192 80,171 87,146 94,122 103,104 109,96 116,85 126,72 137,58 150,44 164,30 179,18 195,8 189,5"/>
<polygon class="pen1 brush2" points="238,59 233,63 227,69 219,77 211,86 203,96 195,105 190,113 187,120 183,135 179,153 176,173 177,191 180,208 184,228 192,249 206,270 214,280 221,289 227,296 232,303 238,308 243,311 248,314 254,315 261,315 268,316 275,317 282,319 289,321 295,323 300,326 303,329 309,328 315,328 322,328 328,328 335,327 342,325 348,322 355,317 362,312 368,306 375,302 382,297 390,293 397,290 405,286 412,283 417,276 423,267 429,258 435,247 440,237 445,226 448,215 450,205 451,188 451,174 447,159 439,138 429,117 423,103 419,95 418,93 416,92 412,90 406,86 398,81 389,75 380,68 372,61 365,54 373,56 382,59 391,63 401,68 411,74 420,81 428,88 434,96 440,104 447,112 453,119 459,127 465,135 469,144 471,152 471,161 475,181 479,204 482,224 482,238 480,250 478,263 474,276 464,288 459,297 455,306 450,316 445,325 440,335 434,343 428,350 422,356 415,362 408,368 401,374 393,380 383,386 373,391 361,396 346,399 331,401 316,403 302,405 288,406 276,407 264,407 253,405 244,403 234,401 224,398 213,395 202,392 190,386 179,378 169,368 159,354 150,339 143,327 137,316 132,306 127,297 124,289 121,280 118,270 114,244 112,212 115,180 125,154 132,142 140,129 149,116 159,103 167,92 175,83 182,76 187,73 192,71 197,69 202,66 208,63 214,60 219,58 223,56 227,56 233,57 239,56 241,57 238,59"/>
<polygon class="pen1 brush2" points="304,147 300,156 300,168 303,179 309,186 313,188 317,190 323,191 328,192 333,192 338,191 342,189 345,186 348,176 348,165 344,153 336,144 340,146 345,148 350,151 356,154 361,158 364,163 365,168 363,173 368,183 371,193 370,202 363,209 361,219 358,228 350,237 334,243 324,245 315,246 306,246 299,246 292,245 286,244 282,242 279,239 275,232 271,224 267,215 263,205 262,199 262,190 264,180 267,169 273,160 281,152 291,148 304,147"/>
</g>
</svg>
