<?xml version="1.0" encoding="UTF-8" standalone="no"?>
<!DOCTYPE svg PUBLIC "-//W3C//DTD SVG 1.0//EN" "http://www.w3.org/TR/2001/REC-SVG-20010904/DTD/svg10.dtd">
<svg xmlns="http://www.w3.org/2000/svg" xmlns:xlink="http://www.w3.org/1999/xlink" fill-rule="evenodd" height="0.558in" preserveAspectRatio="none" stroke-linecap="round" viewBox="0 0 558 558" width="0.558in">
<style type="text/css">
.brush0 { fill: rgb(255,255,255); }
.pen0 { stroke: rgb(0,0,0); stroke-width: 1; stroke-linejoin: round; }
.brush1 { fill: none; }
.pen1 { stroke: none; }
.brush2 { fill: rgb(0,0,0); }
</style>
<g>
<polygon class="pen1 brush2" points="0,0 558,0 558,558 0,558 0,0"/>
<polygon class="pen1 brush2" points="530,530 530,28 28,28 28,530 530,530"/>
<polygon class="pen1 brush0" points="28,28 97,97 149,150 216,217 327,332 394,399 444,449 524,530 28,530 28,28 28,28"/>
<polygon class="pen1 brush2" points="327,332 322,337 316,342 309,347 302,350 295,353 287,355 279,357 270,357 254,355 239,351 225,343 214,333 204,321 196,308 192,292 190,276 192,259 197,243 205,229 216,217 149,150 137,163 127,176 118,191 111,207 105,223 100,240 98,258 97,276 98,294 100,311 105,328 111,344 118,359 126,373 136,386 148,398 160,410 173,420 187,428 202,435 218,441 235,446 252,448 270,449 288,448 305,446 322,441 338,436 354,428 368,420 382,410 394,399 327,332"/>
<polygon class="pen1 brush0" points="97,97 149,150 216,217 327,332 394,399 444,449 469,423 419,368 426,355 432,341 438,327 442,312 516,312 516,238 442,238 438,222 433,206 426,192 418,178 470,126 418,74 365,126 358,122 352,118 345,115 338,112 330,109 323,107 315,105 307,103 307,27 233,27 233,104 225,106 218,108 210,110 203,113 196,117 189,120 182,124 175,128 121,72 97,97"/>
</g>
</svg>
