<?xml version="1.0" encoding="UTF-8" standalone="no"?>
<!DOCTYPE svg PUBLIC "-//W3C//DTD SVG 1.0//EN" "http://www.w3.org/TR/2001/REC-SVG-20010904/DTD/svg10.dtd">
<svg xmlns="http://www.w3.org/2000/svg" xmlns:xlink="http://www.w3.org/1999/xlink" fill-rule="evenodd" height="1.058in" preserveAspectRatio="none" stroke-linecap="round" viewBox="0 0 1031 1058" width="1.031in">
<style type="text/css">
.brush0 { fill: rgb(255,255,255); }
.pen0 { stroke: rgb(0,0,0); stroke-width: 1; stroke-linejoin: round; }
.brush1 { fill: none; }
.pen1 { stroke: none; }
.brush2 { fill: rgb(0,0,0); }
</style>
<g>
<polygon class="pen1 brush2" points="807,1026 795,1038 780,1033 766,1028 754,1023 743,1019 731,1015 718,1011 703,1008 685,1007 662,1002 639,991 616,979 596,970 577,966 563,973 553,993 548,1030 545,1039 538,1045 528,1048 517,1049 507,1046 498,1041 492,1032 490,1021 489,992 482,975 469,968 454,968 436,973 417,982 398,992 381,1002 379,1003 375,1004 371,1005 365,1006 359,1007 352,1008 343,1008 334,1009 321,1010 309,1012 297,1014 286,1018 275,1022 264,1027 253,1032 242,1038 230,1026 241,1006 253,988 267,972 281,958 297,946 314,936 331,929 349,923 368,920 387,919 407,920 426,924 446,929 465,937 485,947 504,959 503,938 500,918 496,900 489,884 481,869 472,855 461,843 448,832 435,822 420,814 404,807 387,802 369,798 350,796 330,795 310,795 292,794 275,790 260,784 245,776 232,766 219,756 207,745 194,734 182,723 169,713 156,705 142,698 127,694 111,693 93,695 74,700 57,706 42,709 31,710 25,708 23,703 27,694 37,682 54,666 89,639 124,618 159,604 193,596 226,594 259,596 290,604 321,616 350,633 378,653 404,677 428,704 451,734 471,766 489,800 504,836 501,799 496,763 491,726 485,689 480,653 475,616 472,580 471,544 567,544 566,580 563,616 558,652 553,689 547,726 542,762 537,799 534,836 550,805 567,774 585,745 605,716 625,690 647,666 670,645 695,627 720,612 748,601 776,594 806,592 837,595 870,603 905,618 941,638 959,650 976,663 990,676 1001,688 1008,698 1011,706 1008,712 1000,714 971,704 946,699 924,697 905,700 889,705 874,712 862,721 850,732 838,743 826,754 814,765 801,775 786,784 769,790 749,794 726,795 706,795 687,796 668,799 650,802 634,808 618,815 603,823 590,832 577,843 566,856 557,869 549,885 542,901 538,919 535,938 534,959 553,947 572,937 591,929 610,924 630,921 649,919 668,920 687,923 705,929 722,936 739,946 755,958 770,971 783,988 796,1006 807,1026 807,1026 807,1026"/>
<polygon class="pen1 brush2" points="522,241 539,241 555,242 572,244 588,247 603,251 618,256 632,262 645,269 658,277 669,287 678,298 686,311 693,325 698,340 701,357 702,376 698,407 686,435 668,458 645,478 617,493 587,504 554,511 520,513 485,511 452,505 422,494 394,479 371,459 353,434 341,405 337,371 338,352 341,336 347,320 354,307 363,295 373,284 384,275 397,267 411,260 426,255 441,250 457,247 473,244 489,242 506,241 522,241 522,241 522,241"/>
<polygon class="pen1 brush2" points="430,559 401,557 371,549 340,538 308,523 276,505 245,483 216,459 190,433 166,406 146,377 131,347 120,316 116,286 118,256 128,227 145,199 158,185 170,176 184,170 197,167 210,167 223,170 236,175 249,182 262,191 274,201 285,212 296,223 307,235 316,247 325,258 333,268 320,289 310,309 303,330 298,351 296,371 296,390 299,410 304,428 312,446 322,462 334,478 349,493 366,506 385,518 406,528 430,537 430,559 430,559"/>
<polygon class="pen1 brush2" points="608,559 613,539 629,524 650,511 675,497 699,479 721,455 736,421 742,375 741,360 739,345 736,332 732,319 727,306 720,294 713,281 705,268 713,258 721,247 731,236 742,224 753,212 765,201 777,191 790,182 804,175 817,170 830,167 844,167 857,170 869,177 881,187 893,202 909,231 917,261 918,292 913,322 903,353 887,382 868,411 845,438 819,463 790,486 760,507 729,525 698,539 667,550 637,557 608,559 608,559"/>
<polygon class="pen1 brush2" points="675,242 658,233 640,226 621,219 601,213 581,209 561,206 540,204 519,203 498,203 478,204 458,207 438,211 418,217 400,224 382,232 365,242 348,220 335,199 328,180 325,163 327,146 332,132 341,118 353,106 368,96 385,86 404,79 425,72 448,67 471,64 495,62 520,61 545,62 569,64 592,68 615,73 636,79 655,87 672,96 687,107 699,119 708,132 713,147 715,163 712,181 705,200 692,220 675,242 675,242 675,242"/>
</g>
</svg>
