<?xml version="1.0" encoding="UTF-8" standalone="no"?>
<!DOCTYPE svg PUBLIC "-//W3C//DTD SVG 1.0//EN" "http://www.w3.org/TR/2001/REC-SVG-20010904/DTD/svg10.dtd">
<svg xmlns="http://www.w3.org/2000/svg" xmlns:xlink="http://www.w3.org/1999/xlink" fill-rule="evenodd" height="0.911in" preserveAspectRatio="none" stroke-linecap="round" viewBox="0 0 990 911" width="0.99in">
<style type="text/css">
.brush0 { fill: rgb(255,255,255); }
.pen0 { stroke: rgb(0,0,0); stroke-width: 1; stroke-linejoin: round; }
.brush1 { fill: none; }
.pen1 { stroke: none; }
.brush2 { fill: rgb(0,0,0); }
</style>
<g>
<polygon class="pen1 brush2" points="50,911 61,882 74,853 87,824 101,795 115,765 130,735 146,705 162,675 178,645 194,615 209,584 225,554 240,523 255,493 269,462 283,432 0,493 294,385 0,249 23,250 46,253 69,258 92,264 115,272 137,280 160,288 182,297 204,306 227,314 249,321 271,328 293,333 316,336 338,338 361,337 362,296 361,255 359,213 355,171 350,129 345,86 339,43 334,0 347,32 358,76 368,127 377,180 386,231 395,275 405,308 416,324 437,306 458,287 479,268 500,248 520,228 541,208 562,188 584,168 606,149 628,130 650,111 674,94 698,77 722,61 748,46 774,33 757,54 739,74 721,93 703,111 684,129 665,146 646,164 628,181 610,199 592,218 576,237 560,257 545,277 532,300 520,323 510,348 743,317 732,324 722,330 711,335 700,340 689,344 678,348 667,352 656,355 644,359 633,363 620,367 608,371 595,376 582,381 568,387 554,394 534,419 560,428 587,435 615,441 643,447 671,452 699,456 728,459 757,463 786,466 816,469 845,472 874,475 903,479 932,483 961,488 990,493 972,513 940,513 908,512 876,510 844,507 812,502 781,497 749,492 717,486 686,480 654,474 622,469 590,464 559,459 527,455 494,453 462,451 457,493 458,535 462,578 469,620 478,663 486,707 493,752 497,797 481,796 470,764 461,712 452,647 441,580 426,521 406,478 378,462 355,487 335,514 315,541 296,569 279,598 261,627 244,656 227,686 209,715 191,745 171,774 151,803 129,831 105,859 79,885 50,911"/>
</g>
</svg>
