<?xml version="1.0" encoding="UTF-8" standalone="no"?>
<!DOCTYPE svg PUBLIC "-//W3C//DTD SVG 1.0//EN" "http://www.w3.org/TR/2001/REC-SVG-20010904/DTD/svg10.dtd">
<svg xmlns="http://www.w3.org/2000/svg" xmlns:xlink="http://www.w3.org/1999/xlink" fill-rule="evenodd" height="1.091in" preserveAspectRatio="none" stroke-linecap="round" viewBox="0 0 545 1091" width="0.545in">
<style type="text/css">
.brush0 { fill: rgb(255,255,255); }
.pen0 { stroke: rgb(0,0,0); stroke-width: 1; stroke-linejoin: round; }
.brush1 { fill: none; }
.pen1 { stroke: none; }
.brush2 { fill: rgb(0,0,0); }
</style>
<g>
<polygon class="pen1 brush2" points="370,515 360,511 347,508 334,507 319,507 304,508 290,510 276,511 263,511 278,527 293,543 308,557 323,570 338,583 352,596 365,609 378,622 390,636 401,650 410,665 417,682 423,700 427,720 429,742 429,766 440,760 453,753 466,747 480,743 492,743 503,747 509,758 512,775 508,801 498,821 483,839 467,855 450,871 435,889 425,910 421,937 425,953 434,961 448,961 464,959 479,956 493,955 502,960 506,973 504,986 499,998 491,1009 480,1019 468,1027 454,1033 440,1037 425,1039 411,1038 398,1034 386,1027 376,1016 369,1002 365,984 364,961 368,934 355,947 340,960 324,973 307,984 290,995 271,1005 252,1013 232,1020 212,1025 191,1029 171,1031 151,1031 131,1028 112,1023 94,1016 76,1006 59,991 48,973 42,954 42,936 48,919 60,905 77,896 100,893 125,897 143,908 155,924 164,942 171,961 180,977 193,988 211,992 243,989 273,979 300,964 324,944 344,920 362,892 376,863 386,831 392,799 394,767 392,735 384,704 372,676 355,651 332,629 304,612 292,607 279,603 266,601 253,600 239,600 225,602 212,604 200,608 188,614 177,620 167,628 159,638 152,648 146,660 143,673 142,688 144,707 150,724 160,740 173,755 191,768 212,780 238,790 267,799 258,826 238,825 217,822 197,819 177,814 158,807 139,800 122,791 105,781 90,769 76,756 63,741 53,725 45,708 38,689 34,668 33,646 35,627 40,606 48,585 59,566 73,550 90,540 109,538 130,544 139,549 147,554 155,559 163,564 171,568 179,571 189,573 199,574 208,574 218,573 227,572 237,571 247,570 256,570 266,570 275,571 259,554 243,539 228,524 213,511 199,498 185,485 172,472 160,459 149,445 139,431 130,415 123,399 117,381 113,361 110,339 109,315 79,330 55,334 38,330 27,319 24,304 27,285 36,264 53,243 65,231 77,220 88,210 97,200 105,189 111,176 115,160 116,142 112,126 103,119 89,119 74,121 59,125 45,125 36,120 32,107 36,88 47,71 63,58 82,48 103,43 125,42 145,46 161,56 173,75 176,99 173,123 169,145 182,132 197,119 215,107 233,95 254,84 275,74 297,65 319,58 341,53 364,50 386,50 407,52 427,57 447,65 464,77 480,92 490,106 496,120 498,133 496,145 492,156 485,166 476,174 465,180 454,184 441,187 428,186 415,183 402,177 391,168 381,156 372,140 369,131 365,121 362,112 358,104 353,97 346,92 338,88 327,87 296,90 268,99 242,113 218,132 197,154 180,180 165,208 154,238 147,269 144,300 144,331 149,362 159,390 173,417 192,440 217,460 229,467 242,472 256,476 271,479 286,481 301,480 316,479 330,476 343,471 356,465 368,457 377,448 386,437 392,424 396,410 397,394 395,375 389,358 379,342 365,327 347,314 325,302 300,291 270,282 281,254 301,255 321,258 341,262 361,267 381,273 399,281 417,290 434,300 449,312 463,325 475,340 486,356 494,374 501,393 505,414 506,436 505,459 500,479 493,498 483,514 468,530 454,539 440,543 427,543 413,539 399,532 385,524 370,515 370,515 370,515"/>
</g>
</svg>
