<?xml version="1.0" encoding="UTF-8" standalone="no"?>
<!DOCTYPE svg PUBLIC "-//W3C//DTD SVG 1.0//EN" "http://www.w3.org/TR/2001/REC-SVG-20010904/DTD/svg10.dtd">
<svg xmlns="http://www.w3.org/2000/svg" xmlns:xlink="http://www.w3.org/1999/xlink" fill-rule="evenodd" height="1.0in" preserveAspectRatio="none" stroke-linecap="round" viewBox="0 0 695 1000" width="0.695in">
<style type="text/css">
.brush0 { fill: rgb(255,255,255); }
.pen0 { stroke: rgb(0,0,0); stroke-width: 1; stroke-linejoin: round; }
.brush1 { fill: none; }
.pen1 { stroke: none; }
.brush2 { fill: rgb(0,0,0); }
</style>
<g>
<polygon class="pen1 brush2" points="428,1000 368,719 361,719 337,922 0,483 196,605 53,381 301,514 463,0 428,415 587,112 543,415 655,240 611,446 695,274 621,707 516,756 611,791 597,803 584,816 571,828 559,841 548,854 537,867 526,880 516,893 505,907 495,920 485,933 474,947 463,960 452,973 440,987 428,1000"/>
</g>
</svg>
