<?xml version="1.0" encoding="UTF-8" standalone="no"?>
<!DOCTYPE svg PUBLIC "-//W3C//DTD SVG 1.0//EN" "http://www.w3.org/TR/2001/REC-SVG-20010904/DTD/svg10.dtd">
<svg xmlns="http://www.w3.org/2000/svg" xmlns:xlink="http://www.w3.org/1999/xlink" fill-rule="evenodd" height="0.973in" preserveAspectRatio="none" stroke-linecap="round" viewBox="0 0 751 973" width="0.751in">
<style type="text/css">
.brush0 { fill: rgb(255,255,255); }
.pen0 { stroke: rgb(0,0,0); stroke-width: 1; stroke-linejoin: round; }
.brush1 { fill: none; }
.pen1 { stroke: none; }
.brush2 { fill: rgb(0,0,0); }
</style>
<g>
<polygon class="pen1 brush2" points="222,973 376,377 92,973 222,973"/>
<polygon class="pen1 brush0" points="179,973 417,377 134,973 179,973"/>
<polygon class="pen1 brush2" points="404,377 557,973 687,973 404,377"/>
<polygon class="pen1 brush0" points="362,377 600,973 645,973 362,377"/>
<polygon class="pen1 brush2" points="376,752 357,752 338,750 320,748 302,745 284,741 266,736 249,730 232,724 215,716 199,708 183,699 167,689 152,679 138,667 124,655 110,642 85,615 63,585 44,554 28,521 16,486 7,451 2,414 0,377 2,339 7,303 16,267 28,233 44,200 63,168 85,139 110,111 124,98 138,86 152,74 167,64 183,54 199,45 215,36 232,29 249,22 266,16 284,11 302,7 320,4 338,2 357,0 376,0 395,0 413,2 431,4 449,7 467,11 485,16 502,22 519,29 536,36 552,45 568,54 584,64 599,74 613,86 627,98 641,111 666,139 688,168 707,200 723,233 735,267 744,303 749,339 751,377 749,415 743,453 734,488 721,523 706,556 687,587 665,615 641,642 614,666 585,688 554,707 522,723 487,735 451,744 414,750 376,752"/>
<polygon class="pen1 brush2" points="376,752 357,752 338,750 320,748 302,745 284,741 266,736 249,730 232,724 215,716 199,708 183,699 167,689 152,679 138,667 124,655 110,642 85,615 63,585 44,554 28,521 16,486 7,451 2,414 0,377 2,339 7,303 16,267 28,233 44,200 63,168 85,139 110,111 124,98 138,86 152,74 167,64 183,54 199,45 215,36 232,29 249,22 266,16 284,11 302,7 320,4 338,2 357,0 376,0 395,0 413,2 431,4 449,7 467,11 485,16 502,22 519,29 536,36 552,45 568,54 584,64 599,74 613,86 627,98 641,111 666,139 688,168 707,200 723,233 735,267 744,303 749,339 751,377 749,415 743,453 734,488 721,523 706,556 687,587 665,615 641,642 614,666 585,688 554,707 522,723 487,735 451,744 414,750 376,752"/>
<polygon class="pen1 brush2" points="376,752 357,752 338,750 320,748 302,745 284,741 266,736 249,730 232,724 215,716 199,708 183,699 167,689 152,679 138,667 124,655 110,642 85,615 63,585 44,554 28,521 16,486 7,451 2,414 0,377 2,339 7,303 16,267 28,233 44,200 63,168 85,139 110,111 124,98 138,86 152,74 167,64 183,54 199,45 215,36 232,29 249,22 266,16 284,11 302,7 320,4 338,2 357,0 376,0 395,0 413,2 431,4 449,7 467,11 485,16 502,22 519,29 536,36 552,45 568,54 584,64 599,74 613,86 627,98 641,111 666,139 688,168 707,200 723,233 735,267 744,303 749,339 751,377 749,415 743,453 734,488 721,523 706,556 687,587 665,615 641,642 614,666 585,688 554,707 522,723 487,735 451,744 414,750 376,752"/>
<polygon class="pen1 brush0" points="376,721 341,719 306,714 273,706 241,694 211,680 183,663 156,643 131,621 109,596 89,570 72,541 57,511 46,480 37,447 32,412 30,377 32,342 37,307 46,274 57,242 72,212 89,184 109,157 131,132 156,110 183,90 211,73 241,58 273,47 306,38 341,33 376,31 411,33 445,38 478,47 510,58 540,73 569,90 595,110 620,132 642,157 662,184 679,212 694,242 705,274 714,307 719,342 721,377 719,412 714,447 705,480 694,511 679,541 662,570 642,596 620,621 595,643 569,663 540,680 510,694 478,706 445,714 411,719 376,721"/>
<polygon class="pen1 brush2" points="376,645 348,644 322,640 296,633 271,624 247,613 225,599 204,584 185,567 168,548 152,527 139,505 127,482 118,457 111,431 107,405 106,377 107,349 111,323 118,297 127,272 139,248 152,226 168,205 185,186 204,169 225,153 247,140 271,128 296,119 322,112 348,108 376,107 403,108 430,112 456,119 480,128 504,140 526,153 546,169 566,186 583,205 598,226 612,248 623,272 632,297 639,323 643,349 644,377 643,405 639,431 632,457 623,482 612,505 598,527 583,548 566,567 546,584 526,599 504,613 480,624 456,633 430,640 403,644 376,645"/>
<polygon class="pen1 brush0" points="376,488 354,486 333,479 314,469 298,455 284,439 274,420 267,399 265,377 267,354 274,333 284,315 298,298 314,285 333,275 354,268 376,266 398,268 419,275 437,285 454,298 467,315 477,333 484,354 486,377 484,399 477,420 467,439 454,455 437,469 419,479 398,486 376,488"/>
<polygon class="pen1 brush2" points="377,320 356,323 336,331 319,343 303,356 291,369 281,381 275,389 273,392 275,395 281,403 291,415 303,428 319,441 336,453 356,461 377,464 398,461 417,453 434,441 450,428 462,415 472,403 478,395 480,392 478,389 472,381 462,369 450,356 434,343 417,331 398,323 377,320"/>
<polygon class="pen1 brush2" points="377,293 361,295 344,299 329,307 313,315 299,326 287,336 276,346 267,356 266,361 266,366 265,372 265,377 265,378 265,378 265,379 265,380 272,370 283,359 295,346 309,334 325,322 342,313 359,306 377,304 394,306 411,312 427,322 442,333 456,345 468,358 478,369 486,379 486,378 486,378 486,378 486,377 486,372 485,367 485,362 484,357 475,347 465,337 452,326 439,316 424,307 409,300 393,295 377,293"/>
<polygon class="pen1 brush0" points="375,420 368,419 362,417 356,414 351,410 347,405 344,400 342,394 341,387 342,380 344,374 347,368 351,363 356,359 362,356 368,354 375,353 382,354 388,356 393,359 398,363 402,368 405,374 407,380 408,387 407,394 405,400 402,405 398,410 393,414 388,417 382,419 375,420"/>
<polygon class="pen1 brush0" points="626,96 622,92 617,89 613,86 609,82 373,381 626,96"/>
<polygon class="pen1 brush0" points="626,96 622,92 617,89 613,86 609,82 373,381 626,96"/>
<polygon class="pen1 brush0" points="669,142 665,137 662,133 658,128 654,124 373,381 669,142"/>
<polygon class="pen1 brush0" points="704,194 701,189 698,184 695,180 692,175 373,381 704,194"/>
<polygon class="pen1 brush0" points="730,251 728,246 726,240 724,235 722,230 373,381 730,251"/>
<polygon class="pen1 brush0" points="746,316 745,309 744,303 742,297 741,290 373,381 746,316"/>
<polygon class="pen1 brush0" points="751,373 751,368 751,362 751,357 750,352 373,381 751,373"/>
<polygon class="pen1 brush0" points="746,436 747,431 748,425 748,420 749,414 373,381 746,436"/>
<polygon class="pen1 brush0" points="731,497 733,492 735,486 736,481 738,476 373,381 731,497"/>
<polygon class="pen1 brush0" points="707,554 709,549 712,544 714,539 716,534 373,381 707,554"/>
<polygon class="pen1 brush0" points="673,605 676,601 680,596 683,592 686,588 373,381 673,605"/>
<polygon class="pen1 brush0" points="373,381 629,652 634,648 639,643 643,639 648,634 373,381"/>
<polygon class="pen1 brush0" points="583,689 588,686 592,682 597,679 601,676 373,381 583,689"/>
<polygon class="pen1 brush2" points="374,393 372,392 369,391 368,389 367,386 368,384 369,382 372,381 374,380 377,381 379,382 380,384 381,386 380,389 379,391 377,392 374,393"/>
</g>
</svg>
