<?xml version="1.0" encoding="UTF-8" standalone="no"?>
<!DOCTYPE svg PUBLIC "-//W3C//DTD SVG 1.0//EN" "http://www.w3.org/TR/2001/REC-SVG-20010904/DTD/svg10.dtd">
<svg xmlns="http://www.w3.org/2000/svg" xmlns:xlink="http://www.w3.org/1999/xlink" fill-rule="evenodd" height="0.676in" preserveAspectRatio="none" stroke-linecap="round" viewBox="0 0 632 676" width="0.632in">
<style type="text/css">
.brush0 { fill: rgb(255,255,255); }
.pen0 { stroke: rgb(0,0,0); stroke-width: 1; stroke-linejoin: round; }
.brush1 { fill: none; }
.pen1 { stroke: none; }
.brush2 { fill: rgb(0,0,0); }
</style>
<g>
<polygon class="pen1 brush2" points="574,566 541,491 468,414 432,452 349,498 311,558 281,507 208,407 161,460 87,501 44,562 10,527 75,468 158,400 199,379 217,355 312,478 354,442 443,385 471,353 584,486 621,531 574,566"/>
<polygon class="pen1 brush2" points="585,441 546,377 478,291 444,327 364,394 322,434 293,383 224,292 173,335 129,389 55,437 22,402 87,344 169,275 210,253 228,230 326,372 376,343 455,259 483,227 595,362 632,407 585,441"/>
<polygon class="pen1 brush2" points="564,676 525,590 450,539 423,562 339,605 301,668 271,617 203,520 151,570 82,605 34,672 0,637 66,578 148,510 189,488 207,464 302,588 344,553 433,494 461,462 574,596 611,641 564,676"/>
<polygon class="pen1 brush2" points="425,190 420,199 415,209 411,216 409,220 408,221 406,223 402,226 398,229 393,232 388,234 382,237 376,238 374,238 371,239 367,241 362,242 357,244 352,246 348,247 346,247 344,246 340,246 335,245 329,244 324,243 318,243 314,242 312,242 307,237 299,228 290,219 285,214 281,207 278,195 275,183 274,178 276,171 278,159 281,147 282,143 283,141 286,137 290,133 295,128 301,123 306,119 310,115 313,114 316,114 322,113 329,113 338,113 346,114 353,114 359,114 362,115 372,124 380,139 383,156 379,174 374,180 367,186 361,190 358,191 355,192 348,192 340,192 336,191 330,185 323,176 319,165 320,154 322,151 326,148 331,145 335,143 338,143 343,143 348,144 351,145 353,148 355,155 357,162 357,166 354,169 350,171 346,171 342,170 340,169 338,166 338,163 339,160 328,155 326,163 326,170 330,177 336,182 341,183 346,183 351,182 356,180 360,177 363,175 366,173 367,171 369,166 371,160 371,155 371,151 369,148 364,142 359,137 357,134 351,133 342,131 334,131 329,131 326,133 319,138 312,144 308,148 307,159 310,175 316,192 328,203 332,205 337,206 342,206 347,207 352,207 356,207 358,207 359,207 360,206 364,204 368,201 374,198 379,194 385,190 390,186 393,181 397,167 396,150 394,136 392,128 388,123 381,114 373,106 368,101 360,98 350,97 341,96 331,97 322,98 314,99 308,100 305,101 303,102 299,104 295,108 290,112 284,117 279,123 275,128 271,134 265,155 263,180 265,201 268,212 270,215 274,220 280,226 285,232 292,239 298,245 303,250 308,253 312,255 319,256 327,257 336,258 345,258 354,258 364,257 372,255 375,254 380,250 387,246 395,241 402,236 409,231 414,228 417,226 422,218 427,206 429,196 430,192 425,190"/>
<polygon class="pen1 brush2" points="322,75 332,21 335,18 343,12 351,9 356,14 354,29 346,49 339,65 335,72 322,75"/>
<polygon class="pen1 brush2" points="382,94 384,91 389,84 397,74 406,63 415,52 424,43 432,38 438,38 441,48 437,59 430,68 426,72 387,104 382,94"/>
<polygon class="pen1 brush2" points="416,145 419,143 426,140 437,134 449,129 462,124 473,121 482,120 486,123 486,133 482,141 477,145 474,147 426,155 416,145"/>
<polygon class="pen1 brush2" points="267,99 266,97 262,91 256,84 249,75 242,67 234,60 227,55 221,55 214,61 212,69 213,77 214,80 255,104 267,99"/>
<polygon class="pen1 brush2" points="238,172 177,174 174,178 168,186 164,195 165,201 169,202 175,201 183,200 191,198 198,197 205,195 209,194 211,193 238,179 238,172"/>
<polygon class="pen1 brush2" points="247,239 245,241 238,245 229,251 219,259 209,267 201,275 197,282 197,288 204,291 214,287 222,281 226,278 252,249 247,239"/>
<polygon class="pen1 brush2" points="313,278 310,288 305,309 302,330 308,341 317,336 323,322 326,308 327,302 322,278 313,278"/>
<polygon class="pen1 brush2" points="384,283 386,291 392,310 400,329 409,339 416,338 421,333 423,328 423,326 406,295 397,276 384,283"/>
<polygon class="pen1 brush2" points="433,235 435,236 441,240 450,245 461,251 472,256 482,260 490,262 496,260 500,252 499,245 497,240 496,238 469,226 440,216 433,235"/>
</g>
</svg>
