<?xml version="1.0" encoding="UTF-8" standalone="no"?>
<!DOCTYPE svg PUBLIC "-//W3C//DTD SVG 1.0//EN" "http://www.w3.org/TR/2001/REC-SVG-20010904/DTD/svg10.dtd">
<svg xmlns="http://www.w3.org/2000/svg" xmlns:xlink="http://www.w3.org/1999/xlink" fill-rule="evenodd" height="0.994in" preserveAspectRatio="none" stroke-linecap="round" viewBox="0 0 827 994" width="0.827in">
<style type="text/css">
.brush0 { fill: rgb(255,255,255); }
.pen0 { stroke: rgb(0,0,0); stroke-width: 1; stroke-linejoin: round; }
.brush1 { fill: none; }
.pen1 { stroke: none; }
.brush2 { fill: rgb(0,0,0); }
</style>
<g>
<polygon class="pen1 brush2" points="0,994 15,965 31,937 48,908 65,881 82,853 100,826 119,798 137,771 156,744 176,718 196,691 216,664 236,638 256,611 277,584 298,557 293,554 284,554 272,554 257,556 239,559 220,564 199,568 178,574 157,579 135,585 115,590 96,596 79,600 64,604 52,607 44,609 59,601 74,594 89,587 105,581 121,576 137,571 153,566 170,562 186,557 203,553 219,549 236,544 252,539 269,534 285,528 301,522 307,504 295,503 282,500 269,496 255,491 241,486 228,480 214,475 202,470 215,468 232,469 249,473 267,477 284,482 299,484 310,482 317,476 301,451 286,425 270,400 255,375 239,349 224,324 208,298 193,273 178,247 163,221 148,195 133,169 118,143 103,117 89,91 74,64 93,84 111,105 128,128 144,151 159,176 174,201 188,227 202,254 216,280 230,307 245,333 260,359 275,384 291,408 309,432 327,454 330,343 333,228 336,113 340,0 346,57 349,114 349,173 349,232 349,292 351,351 355,409 364,467 387,447 411,425 436,403 461,380 486,356 512,332 537,307 563,282 589,257 614,231 639,206 664,180 688,154 711,129 734,104 756,79 757,85 757,90 757,95 755,102 751,110 746,121 739,135 730,153 722,160 708,172 689,189 667,211 641,235 614,261 585,290 555,318 526,347 498,375 471,401 448,425 428,445 413,461 403,473 399,478 406,479 422,476 444,471 472,464 505,456 541,445 579,435 618,423 656,412 693,402 728,393 758,385 784,379 803,376 814,375 817,378 412,515 712,609 691,612 670,613 650,612 630,609 610,604 590,599 571,592 552,585 532,577 513,569 494,561 474,554 454,547 434,541 413,537 392,534 611,791 593,783 575,774 559,763 544,750 529,737 515,723 501,708 488,693 474,677 461,661 448,646 434,630 420,615 405,601 390,587 374,575 372,585 373,610 376,645 380,685 385,726 389,764 393,793 395,809 381,805 369,782 361,746 354,702 350,656 346,614 343,582 340,564 330,568 316,580 299,598 279,622 257,650 234,682 209,717 184,753 160,790 135,827 113,863 92,896 73,927 57,953 45,975 37,990 0,994"/>
</g>
</svg>
