<?xml version="1.0" encoding="UTF-8" standalone="no"?>
<!DOCTYPE svg PUBLIC "-//W3C//DTD SVG 1.0//EN" "http://www.w3.org/TR/2001/REC-SVG-20010904/DTD/svg10.dtd">
<svg xmlns="http://www.w3.org/2000/svg" xmlns:xlink="http://www.w3.org/1999/xlink" fill-rule="evenodd" height="0.872in" preserveAspectRatio="none" stroke-linecap="round" viewBox="0 0 875 872" width="0.875in">
<style type="text/css">
.brush0 { fill: rgb(255,255,255); }
.pen0 { stroke: rgb(0,0,0); stroke-width: 1; stroke-linejoin: round; }
.brush1 { fill: none; }
.pen1 { stroke: none; }
.brush2 { fill: rgb(0,0,0); }
</style>
<g>
<polygon class="pen1 brush2" points="861,534 853,561 842,589 828,617 814,645 800,670 788,690 778,705 773,713 766,719 753,731 736,746 717,762 697,778 680,793 667,804 661,809 654,815 643,820 630,826 615,831 598,837 580,842 562,847 543,852 524,856 506,860 489,863 474,866 461,868 450,870 442,871 438,871 420,870 401,867 382,865 363,861 345,858 330,856 318,853 310,852 301,850 291,845 279,839 265,832 251,824 236,814 221,804 205,794 190,784 176,774 163,764 150,756 140,748 131,742 125,737 121,734 111,724 100,709 87,690 75,669 62,648 52,629 43,614 37,604 32,592 27,572 22,547 17,519 12,491 8,467 5,448 3,437 5,411 11,368 19,328 22,310 25,300 32,285 40,266 50,246 59,227 69,210 76,197 81,189 91,176 107,160 126,141 147,122 167,103 187,86 202,73 213,64 219,61 228,57 240,52 254,47 269,42 286,37 304,31 323,26 341,21 359,16 377,12 393,8 408,5 420,3 431,1 438,1 445,2 454,3 466,6 479,8 493,12 509,15 525,19 541,23 558,28 574,32 589,36 603,40 616,44 627,47 636,50 643,53 656,59 669,67 681,76 693,85 705,96 717,107 728,118 739,129 749,141 759,152 768,163 777,173 785,182 792,191 799,198 805,204 812,216 821,241 833,274 845,312 856,351 865,388 871,417 872,437 870,467 866,497 863,522 861,534"/>
<polygon class="pen1 brush0" points="819,587 817,591 815,597 811,606 806,616 798,629 789,644 776,661 761,680 753,689 746,697 738,706 729,714 721,722 712,729 703,737 694,744 691,746 683,751 670,758 655,767 638,777 621,787 603,795 588,802 570,808 552,813 534,818 515,821 496,824 477,826 457,828 438,828 420,827 401,825 382,822 363,818 344,813 325,808 306,802 288,795 270,788 254,782 238,775 224,768 212,762 200,756 191,751 184,746 162,729 141,711 122,691 105,670 89,648 75,624 62,600 51,575 39,543 30,509 25,473 24,437 26,416 31,390 38,360 48,327 59,294 73,261 88,231 105,203 111,196 119,187 129,178 141,169 154,159 168,149 182,139 197,129 212,119 227,110 241,102 254,94 266,88 276,83 285,79 291,76 308,71 326,66 344,60 363,55 381,51 400,47 419,45 438,44 457,44 476,46 495,48 513,51 532,54 550,59 568,64 585,70 607,78 627,88 648,99 668,110 686,123 705,137 722,151 738,167 760,192 780,222 798,255 815,288 828,320 839,349 845,372 848,388 849,400 850,412 851,424 851,437 850,457 849,476 846,496 843,515 838,533 833,552 826,570 819,587"/>
<polygon class="pen1 brush0" points="328,160 330,157 336,151 342,150 346,160 347,179 348,196 349,210 349,215 348,224 347,248 345,282 345,320 348,358 354,391 365,414 382,422 399,419 410,414 417,406 420,398 421,390 420,384 419,379 418,377 403,390 376,392 367,324 362,136 361,133 359,128 354,122 346,120 338,124 333,134 330,147 328,160"/>
<polygon class="pen1 brush2" points="492,795 487,794 473,793 454,790 431,786 407,781 386,774 368,766 358,757 350,746 339,733 326,719 312,702 298,684 286,662 277,639 271,613 267,583 261,549 256,513 250,478 244,447 240,421 237,404 236,398 235,389 233,364 231,328 230,287 230,246 233,208 239,180 249,166 260,164 269,167 276,173 281,181 285,190 287,198 288,204 288,206 301,283 301,300 303,337 307,375 313,395 321,398 324,395 324,392 323,390 316,260 315,239 316,192 321,142 334,115 343,112 350,112 356,114 360,118 364,122 366,126 368,129 368,130 369,146 370,181 371,219 371,243 370,272 372,321 376,367 383,390 391,389 399,383 404,376 406,373 405,360 403,330 400,297 396,276 393,249 390,203 389,156 389,128 390,120 391,109 394,97 397,85 402,73 409,64 417,59 428,58 438,61 444,66 448,73 450,79 451,86 450,92 449,96 449,97 450,130 454,205 457,283 458,327 460,345 466,366 473,383 479,388 482,373 482,344 481,316 480,303 477,273 471,205 467,136 468,100 471,96 475,90 479,85 484,81 490,78 495,78 501,81 507,88 517,115 524,151 528,183 529,196 530,225 531,292 534,364 536,411 539,441 543,476 550,505 563,518 553,523 550,517 542,503 534,484 528,466 524,444 521,417 519,393 518,383 513,195 513,182 512,154 509,122 503,101 501,102 496,102 491,103 489,103 481,123 482,141 485,181 487,226 488,255 489,284 491,330 492,373 490,395 483,401 477,403 472,402 467,399 464,395 461,391 460,387 459,386 457,381 453,367 448,349 446,330 446,299 447,256 447,218 447,201 447,181 445,136 439,91 426,70 413,70 406,72 403,75 403,76 404,87 406,112 407,141 408,161 408,184 408,219 409,254 410,276 413,300 418,338 419,377 413,400 407,404 402,408 396,409 390,410 385,409 381,406 376,402 373,396 367,377 364,352 362,330 361,321 361,304 361,266 361,226 361,200 361,182 359,158 355,139 347,131 339,135 336,142 334,149 334,152 333,165 332,194 331,227 332,251 332,275 330,309 328,339 327,352 329,359 333,375 335,394 332,408 329,413 329,414 326,414 316,415 310,411 305,402 303,393 302,389 276,240 274,232 271,215 265,198 259,190 254,191 251,192 249,194 249,195 246,256 251,371 253,388 257,425 262,464 264,486 266,495 269,512 273,535 279,562 284,589 290,613 295,633 299,645 304,655 310,668 318,684 327,701 336,718 347,733 358,746 369,754 383,760 401,765 421,771 442,776 461,781 477,784 488,786 492,787 492,795"/>
<polygon class="pen1 brush2" points="555,520 592,489 602,456 599,445 594,418 591,388 597,365 602,357 606,349 609,341 612,334 615,328 619,323 625,319 632,316 639,315 646,315 651,315 655,317 659,318 661,320 663,321 663,321 664,331 665,353 668,378 670,395 675,407 683,421 690,433 693,438 695,443 700,456 702,471 700,483 694,493 683,512 669,538 654,565 638,593 625,616 616,633 613,639 611,644 607,656 600,673 591,694 581,715 570,735 560,752 550,762 543,768 535,773 527,779 519,785 512,790 506,793 501,796 498,797 496,795 497,791 499,787 500,785 502,784 506,780 513,774 521,767 530,760 538,753 545,746 550,741 559,727 568,708 575,691 578,683 619,590 621,587 627,578 634,566 644,551 653,536 662,523 668,513 672,507 676,501 680,492 683,479 684,460 680,440 672,424 664,411 660,400 660,385 660,366 660,350 660,343 658,341 652,337 645,334 637,333 629,335 621,339 614,347 610,360 608,375 607,391 607,408 609,425 612,443 615,459 616,471 617,476 617,478 616,482 614,488 608,495 603,499 596,503 587,507 578,511 569,515 562,517 557,519 555,520"/>
<polygon class="pen1 brush2" points="439,616 437,613 433,606 426,600 418,601 410,608 405,618 405,630 413,641 420,647 427,651 435,655 442,657 450,657 456,656 462,652 467,646 474,632 477,618 475,605 467,591 460,584 452,577 443,571 433,565 422,562 410,561 399,564 389,570 380,580 371,592 364,605 358,620 355,635 354,649 356,662 362,674 370,685 379,695 389,705 400,714 413,721 429,725 446,727 466,725 485,720 501,714 515,706 526,696 534,685 540,673 543,660 544,645 544,628 544,613 542,601 540,589 535,578 528,567 519,554 506,540 495,529 482,517 468,506 454,495 442,486 432,479 425,474 423,472 424,472 427,471 431,465 436,452 439,435 440,421 439,411 439,407 438,410 437,418 434,428 431,437 428,442 424,446 419,451 413,455 407,459 402,462 398,465 395,466 394,467 396,470 400,473 405,477 410,481 415,485 420,489 424,491 428,494 434,500 442,507 450,515 458,524 467,532 475,539 481,545 488,551 495,558 502,568 509,578 515,589 520,601 523,613 525,625 525,647 521,666 515,681 505,690 498,693 490,696 481,700 472,703 462,706 451,707 440,706 429,703 418,697 407,689 396,680 387,669 380,658 374,647 371,637 371,628 372,620 375,611 378,604 381,596 386,590 390,585 396,581 402,579 409,578 416,578 424,578 432,580 440,582 447,585 452,589 457,593 463,604 467,615 465,626 457,634 448,637 439,636 431,633 425,628 421,622 419,617 420,613 424,611 431,611 436,613 438,615 439,616"/>
</g>
</svg>
