<?xml version="1.0" encoding="UTF-8" standalone="no"?>
<!DOCTYPE svg PUBLIC "-//W3C//DTD SVG 1.0//EN" "http://www.w3.org/TR/2001/REC-SVG-20010904/DTD/svg10.dtd">
<svg xmlns="http://www.w3.org/2000/svg" xmlns:xlink="http://www.w3.org/1999/xlink" fill-rule="evenodd" height="0.984in" preserveAspectRatio="none" stroke-linecap="round" viewBox="0 0 997 984" width="0.997in">
<style type="text/css">
.brush0 { fill: rgb(255,255,255); }
.pen0 { stroke: rgb(0,0,0); stroke-width: 1; stroke-linejoin: round; }
.brush1 { fill: none; }
.pen1 { stroke: none; }
.brush2 { fill: rgb(0,0,0); }
</style>
<g>
<polygon class="pen1 brush2" points="527,984 512,978 498,972 483,966 468,959 452,952 437,944 423,935 408,926 394,916 380,905 367,892 354,879 342,865 331,850 320,833 311,815 306,804 306,793 308,783 312,773 317,763 321,752 323,740 321,726 308,722 293,725 275,732 256,739 236,746 215,747 194,742 173,726 167,712 167,696 172,680 180,666 188,657 198,649 211,642 225,635 240,628 258,623 276,617 295,611 315,606 336,600 357,594 377,588 398,582 418,574 438,567 457,558 437,538 415,522 390,510 363,500 334,493 305,487 274,482 244,477 213,473 183,467 153,460 125,451 98,439 73,424 51,405 31,381 22,364 19,348 21,333 27,319 37,308 51,298 68,291 87,287 110,285 135,287 162,291 190,298 220,307 250,318 281,331 312,344 341,358 370,373 398,387 423,400 446,413 467,424 484,433 497,440 517,410 410,263 401,251 390,239 378,227 365,214 352,201 338,187 325,174 312,159 300,144 289,129 280,113 273,97 268,80 266,62 267,43 271,24 273,19 276,14 281,10 286,7 292,5 298,3 305,2 311,3 331,9 348,18 363,30 376,44 388,61 399,79 409,99 419,119 428,141 438,162 448,183 459,203 471,223 485,241 500,257 517,271 686,42 705,37 723,34 742,34 759,36 776,40 793,47 809,55 825,64 842,76 858,89 873,104 888,119 901,135 913,151 923,167 933,182 950,213 964,245 975,278 983,311 988,346 991,381 991,417 989,453 985,498 980,545 973,592 964,639 952,686 937,731 919,774 896,815 881,837 864,857 846,876 826,892 805,908 783,922 760,934 736,945 712,954 686,962 660,969 634,975 608,979 581,982 554,983 527,984"/>
</g>
</svg>
