<?xml version="1.0" encoding="UTF-8" standalone="no"?>
<!DOCTYPE svg PUBLIC "-//W3C//DTD SVG 1.0//EN" "http://www.w3.org/TR/2001/REC-SVG-20010904/DTD/svg10.dtd">
<svg xmlns="http://www.w3.org/2000/svg" xmlns:xlink="http://www.w3.org/1999/xlink" fill-rule="evenodd" height="0.959in" preserveAspectRatio="none" stroke-linecap="round" viewBox="0 0 970 959" width="0.97in">
<style type="text/css">
.brush0 { fill: rgb(255,255,255); }
.pen0 { stroke: rgb(0,0,0); stroke-width: 1; stroke-linejoin: round; }
.brush1 { fill: none; }
.pen1 { stroke: none; }
.brush2 { fill: rgb(0,0,0); }
</style>
<g>
<polygon class="pen1 brush2" points="10,411 14,387 19,363 24,339 30,314 36,289 44,264 52,240 62,216 72,193 83,171 95,149 109,129 124,110 140,93 157,78 176,64 188,57 201,50 214,43 227,37 241,31 255,26 269,22 283,18 298,15 312,12 327,10 342,9 356,9 371,9 385,10 399,12 413,14 426,18 439,22 452,27 465,32 477,39 489,47 500,55 510,64 520,75 529,86 538,98 546,112 553,126 559,141 565,158 588,246 601,233 612,218 622,201 631,184 640,167 649,151 659,138 670,128 685,128 700,130 715,132 731,135 746,139 762,144 777,150 792,156 807,164 822,172 836,180 850,190 863,200 876,210 888,221 899,233 915,252 929,273 941,294 950,316 955,340 958,364 957,388 952,414 948,430 944,445 938,462 931,478 923,495 914,512 904,529 893,546 881,563 869,581 856,598 842,616 827,633 812,651 796,668 780,685 757,708 734,731 710,754 685,775 660,796 635,817 609,836 583,855 558,873 532,889 507,904 482,918 458,931 435,942 413,951 391,959 371,949 350,938 330,927 311,916 292,904 273,892 254,880 237,867 219,854 202,841 186,827 170,813 154,798 140,783 125,768 112,752 87,718 65,682 46,644 31,602 19,559 12,512 9,463 10,411"/>
</g>
</svg>
