<?xml version="1.0" encoding="UTF-8" standalone="no"?>
<!DOCTYPE svg PUBLIC "-//W3C//DTD SVG 1.0//EN" "http://www.w3.org/TR/2001/REC-SVG-20010904/DTD/svg10.dtd">
<svg xmlns="http://www.w3.org/2000/svg" xmlns:xlink="http://www.w3.org/1999/xlink" fill-rule="evenodd" height="0.869in" preserveAspectRatio="none" stroke-linecap="round" viewBox="0 0 1022 869" width="1.022in">
<style type="text/css">
.brush0 { fill: rgb(255,255,255); }
.pen0 { stroke: rgb(0,0,0); stroke-width: 1; stroke-linejoin: round; }
.brush1 { fill: none; }
.pen1 { stroke: none; }
.brush2 { fill: rgb(0,0,0); }
</style>
<g>
<polygon class="pen1 brush2" points="83,818 79,809 76,802 73,795 69,790 57,772 48,754 41,735 37,716 35,697 36,679 39,661 44,644 52,628 61,614 73,601 88,590 104,581 123,574 143,569 166,568 185,569 203,573 220,579 237,587 252,597 266,608 279,621 292,635 304,650 316,665 326,681 337,698 347,714 357,730 367,745 376,760 389,753 402,747 415,740 427,734 439,727 450,721 461,714 471,707 481,701 490,694 499,688 508,681 516,675 523,668 530,662 537,655 546,627 550,601 551,578 548,555 542,535 533,517 520,500 506,486 489,473 470,462 449,452 427,444 403,439 379,434 353,432 327,431 298,429 271,425 245,418 221,408 199,395 179,381 160,364 143,346 129,325 116,304 104,280 95,256 88,231 83,204 80,177 79,150 89,163 100,175 112,186 125,197 139,206 153,215 168,223 184,230 201,236 218,242 237,246 256,250 276,253 297,255 319,257 341,257 380,259 416,266 449,276 478,290 503,307 526,327 544,350 560,375 572,403 580,432 585,463 587,495 585,529 580,562 572,597 560,631 579,612 598,592 617,571 635,550 653,527 671,503 687,479 703,454 717,428 730,402 741,375 749,348 756,321 760,293 762,265 761,237 751,257 739,276 723,293 706,307 688,316 668,318 648,310 627,293 615,277 608,261 606,246 608,231 612,217 619,203 628,189 638,175 648,162 657,149 666,136 673,123 678,110 679,96 677,83 670,69 660,58 649,54 638,55 627,59 616,66 606,73 596,78 586,80 586,80 586,80 587,65 591,50 596,37 604,25 614,15 626,7 639,2 655,0 688,5 714,19 735,40 751,67 763,97 772,128 779,160 784,189 794,165 805,140 816,115 829,92 844,71 863,55 887,45 915,41 935,44 954,54 970,67 982,84 989,102 990,120 984,136 969,150 966,141 962,132 957,123 952,114 946,107 939,100 930,96 920,95 902,98 890,105 885,116 884,130 887,147 893,167 900,187 909,208 917,229 923,249 927,269 928,286 925,300 916,311 900,318 877,321 861,319 848,313 836,303 825,292 816,279 807,265 799,252 792,239 790,278 785,318 775,356 763,394 747,431 728,466 707,499 682,530 713,533 738,542 758,556 775,574 788,596 800,620 810,646 819,673 829,700 841,726 854,751 871,774 891,794 917,810 947,822 985,828 984,843 969,847 953,849 935,851 917,851 898,850 879,849 860,846 841,842 822,837 804,830 786,823 770,815 755,806 741,796 730,784 720,772 708,752 698,729 690,704 683,677 677,647 673,615 671,581 670,545 654,565 638,583 622,601 606,617 591,633 575,649 558,663 542,678 525,691 508,705 490,718 472,730 454,743 434,756 414,768 393,781 410,794 428,805 447,813 466,818 486,820 506,819 526,815 546,807 551,817 537,826 523,834 509,840 495,844 480,848 465,850 451,851 436,851 421,849 406,847 392,843 377,838 363,833 349,826 335,818 322,810 303,818 284,825 264,831 245,835 225,839 206,841 186,843 166,844 146,844 126,844 106,843 86,842 65,841 45,840 25,839 4,838 4,814 83,818 105,818 118,819 131,819 144,819 156,820 169,819 181,819 193,818 205,817 217,815 229,813 241,811 253,808 266,805 278,801 290,796 303,791 296,783 296,783 297,783 288,774 279,764 269,754 258,745 247,735 236,727 224,719 211,712 199,706 186,701 173,698 160,697 146,698 133,701 120,706 107,714 96,725 89,737 86,750 86,764 88,778 93,792 99,805 105,818 83,818"/>
</g>
</svg>
