<?xml version="1.0" encoding="UTF-8" standalone="no"?>
<!DOCTYPE svg PUBLIC "-//W3C//DTD SVG 1.0//EN" "http://www.w3.org/TR/2001/REC-SVG-20010904/DTD/svg10.dtd">
<svg xmlns="http://www.w3.org/2000/svg" xmlns:xlink="http://www.w3.org/1999/xlink" fill-rule="evenodd" height="0.713in" preserveAspectRatio="none" stroke-linecap="round" viewBox="0 0 443 713" width="0.443in">
<style type="text/css">
.brush0 { fill: rgb(255,255,255); }
.pen0 { stroke: rgb(0,0,0); stroke-width: 1; stroke-linejoin: round; }
.brush1 { fill: none; }
.pen1 { stroke: none; }
.brush2 { fill: rgb(0,0,0); }
</style>
<g>
<polygon class="pen1 brush2" points="286,177 285,253 281,323 275,386 268,442 258,487 247,522 235,543 222,551 209,543 197,522 185,487 176,442 167,386 161,323 157,253 156,177 157,130 158,84 161,41 164,0 148,26 133,58 120,95 109,136 100,182 94,232 89,284 88,339 91,414 99,484 111,548 127,603 147,649 170,684 195,705 222,713 249,705 273,684 296,649 315,603 331,548 344,484 351,414 354,339 353,284 349,232 342,182 333,136 323,95 310,58 295,26 279,0 282,41 284,84 286,130 286,177"/>
<polygon class="pen1 brush2" points="286,177 285,253 281,323 275,386 268,442 258,487 247,522 235,543 222,551 209,543 197,522 185,487 176,442 167,386 161,323 157,253 156,177 157,130 158,84 161,41 164,0 148,26 133,58 120,95 109,136 100,182 94,232 89,284 88,339 91,414 99,484 111,548 127,603 147,649 170,684 195,705 222,713 249,705 273,684 296,649 315,603 331,548 344,484 351,414 354,339 353,284 349,232 342,182 333,136 323,95 310,58 295,26 279,0 282,41 284,84 286,130 286,177"/>
<polygon class="pen1 brush2" points="286,177 285,253 281,323 275,386 268,442 258,487 247,522 235,543 222,551 209,543 197,522 185,487 176,442 167,386 161,323 157,253 156,177 157,130 158,84 161,41 164,0 148,26 133,58 120,95 109,136 100,182 94,232 89,284 88,339 91,414 99,484 111,548 127,603 147,649 170,684 195,705 222,713 249,705 273,684 296,649 315,603 331,548 344,484 351,414 354,339 353,284 349,232 342,182 333,136 323,95 310,58 295,26 279,0 282,41 284,84 286,130 286,177"/>
<polygon class="pen1 brush2" points="443,237 443,215 0,215 0,237 443,237"/>
<polygon class="pen1 brush0" points="157,237 157,232 157,226 157,220 157,215 96,215 95,220 95,226 94,231 93,237 157,237"/>
<polygon class="pen1 brush0" points="347,215 286,215 286,220 286,226 286,232 286,237 349,237 349,231 348,226 348,220 347,215"/>
<polygon class="pen1 brush2" points="443,286 443,264 0,264 0,286 443,286"/>
<polygon class="pen1 brush0" points="159,286 159,281 159,275 158,269 158,264 91,264 90,269 90,275 90,281 90,286 159,286"/>
<polygon class="pen1 brush0" points="352,264 285,264 284,269 284,275 284,281 284,286 353,286 353,281 353,275 352,269 352,264"/>
<polygon class="pen1 brush2" points="443,335 443,313 0,313 0,335 443,335"/>
<polygon class="pen1 brush0" points="162,335 162,330 162,324 161,319 161,313 89,313 88,318 88,324 88,330 88,335 162,335"/>
<polygon class="pen1 brush0" points="354,313 282,313 281,319 281,324 281,330 280,335 354,335 354,330 354,324 354,318 354,313"/>
<polygon class="pen1 brush2" points="443,387 443,365 0,365 0,387 443,387"/>
<polygon class="pen1 brush0" points="354,365 278,365 277,371 277,376 276,382 275,387 353,387 354,382 354,376 354,371 354,365"/>
<polygon class="pen1 brush0" points="89,387 168,387 167,382 167,376 166,371 165,365 89,365 89,371 89,376 89,382 89,387"/>
</g>
</svg>
