<?xml version="1.0" encoding="UTF-8" standalone="no"?>
<!DOCTYPE svg PUBLIC "-//W3C//DTD SVG 1.0//EN" "http://www.w3.org/TR/2001/REC-SVG-20010904/DTD/svg10.dtd">
<svg xmlns="http://www.w3.org/2000/svg" xmlns:xlink="http://www.w3.org/1999/xlink" fill-rule="evenodd" height="0.771in" preserveAspectRatio="none" stroke-linecap="round" viewBox="0 0 1196 771" width="1.196in">
<style type="text/css">
.brush0 { fill: rgb(255,255,255); }
.pen0 { stroke: rgb(0,0,0); stroke-width: 1; stroke-linejoin: round; }
.brush1 { fill: none; }
.pen1 { stroke: none; }
.brush2 { fill: rgb(0,0,0); }
</style>
<g>
<polygon class="pen1 brush2" points="655,303 669,315 683,326 698,337 713,347 729,356 745,365 761,372 778,378 795,383 812,386 829,388 846,387 864,385 881,381 898,374 915,365 924,359 931,353 938,347 943,340 947,334 950,327 952,320 952,313 953,281 958,259 969,248 982,246 998,251 1015,262 1032,278 1049,298 1064,320 1076,344 1084,367 1088,389 1085,408 1076,423 1060,433 1034,437 1007,449 981,459 956,467 932,472 909,476 887,477 865,476 844,473 822,469 801,462 780,453 759,442 737,429 715,414 692,397 669,378 659,369 645,358 629,346 613,336 597,332 584,334 574,347 571,372 574,395 583,417 595,438 610,460 624,482 636,505 645,529 648,555 644,591 633,619 615,640 593,653 567,659 538,660 507,655 477,644 447,630 419,611 395,588 375,563 360,535 352,505 352,474 361,442 368,426 373,406 374,386 364,371 351,364 339,363 329,368 320,376 312,386 303,399 295,413 287,427 277,441 266,452 254,460 239,465 223,465 203,459 181,447 155,427 130,400 114,371 106,339 104,307 110,274 121,242 138,213 160,185 186,162 217,143 250,130 286,123 324,123 364,132 404,150 445,178 458,153 472,131 486,112 501,94 517,79 533,66 551,55 569,46 588,39 609,34 630,30 651,28 674,27 698,28 723,30 749,33 767,36 783,39 797,43 808,49 817,57 824,69 828,84 829,104 828,122 826,139 823,155 818,171 812,185 805,200 796,213 786,226 774,238 761,250 747,260 731,270 714,279 696,288 676,296 655,303 655,303 655,303"/>
</g>
</svg>
