<?xml version="1.0" encoding="UTF-8" standalone="no"?>
<!DOCTYPE svg PUBLIC "-//W3C//DTD SVG 1.0//EN" "http://www.w3.org/TR/2001/REC-SVG-20010904/DTD/svg10.dtd">
<svg xmlns="http://www.w3.org/2000/svg" xmlns:xlink="http://www.w3.org/1999/xlink" fill-rule="evenodd" height="0.798in" preserveAspectRatio="none" stroke-linecap="round" viewBox="0 0 470 798" width="0.47in">
<style type="text/css">
.brush0 { fill: rgb(255,255,255); }
.pen0 { stroke: rgb(0,0,0); stroke-width: 1; stroke-linejoin: round; }
.brush1 { fill: none; }
.pen1 { stroke: none; }
.brush2 { fill: rgb(0,0,0); }
</style>
<g>
<polygon class="pen1 brush2" points="85,125 96,123 109,125 122,131 138,141 154,155 171,172 188,193 207,216 226,243 245,273 264,305 284,339 303,376 323,414 342,455 360,497 377,539 393,580 408,620 420,659 432,696 441,732 450,766 456,798 459,764 458,723 453,677 443,626 430,571 412,513 391,453 366,391 347,349 328,309 308,270 288,234 267,200 247,168 226,139 206,113 186,90 166,70 147,54 129,41 112,32 96,27 81,26 68,29 47,47 34,79 29,124 33,179 46,245 67,318 98,398 137,484 138,480 129,446 114,392 98,326 82,258 73,196 72,148 85,125"/>
<polygon class="pen1 brush2" points="95,483 85,477 76,469 69,459 64,448 61,437 61,425 63,414 67,402 73,392 81,383 91,376 101,371 112,368 124,367 136,369 148,373 158,380 167,388 174,397 179,408 182,419 182,431 180,443 176,454 170,465 162,474 152,480 142,485 130,488 118,489 107,487 95,483"/>
<polygon class="pen1 brush0" points="107,459 98,454 90,447 83,440 78,432 74,423 72,413 71,403 72,393 71,395 69,397 68,400 67,402 66,403 66,403 66,404 66,405 65,415 65,425 67,435 71,445 76,453 83,461 91,468 100,473 110,477 120,479 130,479 141,478 150,475 159,470 168,464 175,457 175,456 176,455 176,455 176,454 177,452 178,449 179,447 180,444 173,451 165,456 156,461 146,463 136,465 126,465 117,463 107,459"/>
<polygon class="pen1 brush2" points="167,585 159,583 152,578 147,571 145,563 147,554 152,547 159,543 167,541 176,543 183,547 187,554 189,563 187,571 183,578 176,583 167,585"/>
<polygon class="pen1 brush2" points="237,697 231,696 227,692 223,688 222,682 223,676 227,671 231,667 237,666 243,667 248,671 252,676 253,682 252,688 248,692 243,696 237,697"/>
<polygon class="pen1 brush2" points="360,768 356,767 352,765 350,761 349,757 350,753 352,750 356,748 360,747 364,748 368,750 370,753 371,757 370,761 368,765 364,767 360,768"/>
</g>
</svg>
