<?xml version="1.0" encoding="UTF-8" standalone="no"?>
<!DOCTYPE svg PUBLIC "-//W3C//DTD SVG 1.0//EN" "http://www.w3.org/TR/2001/REC-SVG-20010904/DTD/svg10.dtd">
<svg xmlns="http://www.w3.org/2000/svg" xmlns:xlink="http://www.w3.org/1999/xlink" fill-rule="evenodd" height="0.558in" preserveAspectRatio="none" stroke-linecap="round" viewBox="0 0 541 558" width="0.541in">
<style type="text/css">
.brush0 { fill: rgb(255,255,255); }
.pen0 { stroke: rgb(0,0,0); stroke-width: 1; stroke-linejoin: round; }
.brush1 { fill: none; }
.pen1 { stroke: none; }
.brush2 { fill: rgb(0,0,0); }
</style>
<g>
<polygon class="pen1 brush2" points="271,558 541,96 0,96 271,558"/>
<polygon class="pen1 brush2" points="515,259 515,255 515,252 515,249 515,246 515,242 515,239 515,236 515,233 495,228 494,222 493,216 492,210 491,204 510,195 509,192 509,188 508,185 507,182 506,179 505,176 504,173 503,170 482,170 480,165 478,159 476,153 473,148 489,134 487,132 486,129 484,126 482,123 481,120 479,117 478,115 476,112 456,118 452,113 449,108 445,104 441,99 452,82 450,79 448,77 446,74 443,72 441,70 439,67 436,65 434,63 416,74 411,70 407,67 402,63 397,60 404,40 401,38 398,36 395,35 393,33 390,31 387,30 384,28 381,27 367,42 362,40 356,37 351,35 345,33 346,12 343,11 340,10 337,10 334,9 331,8 328,7 324,6 321,6 312,24 306,23 300,22 294,21 288,21 284,0 281,0 278,0 274,0 271,0 268,0 265,0 262,0 258,0 253,21 247,21 241,22 235,23 230,24 220,5 217,6 214,6 211,7 208,8 205,9 202,10 198,11 195,12 196,33 190,35 185,37 179,39 174,42 160,27 157,28 154,30 151,31 149,33 146,34 143,36 140,37 138,39 143,59 138,63 134,66 129,70 124,74 107,63 105,65 103,67 100,70 98,72 96,74 94,76 91,79 89,81 100,99 96,104 92,108 89,113 85,118 65,111 64,114 62,117 61,120 59,122 57,125 56,128 54,131 53,134 67,148 65,153 63,159 60,165 58,170 38,169 37,172 36,175 35,178 34,182 33,185 33,188 32,191 31,194 49,204 48,210 48,216 47,222 46,228 26,232 26,235 26,238 26,242 26,245 26,248 26,251 26,255 26,258 46,263 47,269 48,275 48,281 49,286 31,296 32,299 33,302 33,305 34,308 35,312 36,315 37,318 38,321 58,320 60,326 63,331 65,337 67,342 52,356 54,359 55,362 57,365 58,368 60,370 62,373 63,376 65,379 85,373 88,377 92,382 96,386 100,391 88,408 90,410 93,412 95,415 97,417 99,419 102,421 104,424 106,426 124,416 129,420 134,423 138,427 143,430 137,450 140,451 143,453 145,454 148,456 151,458 154,460 156,461 159,463 174,448 179,450 185,452 190,455 196,457 195,477 198,478 201,479 204,480 207,481 210,482 213,482 216,483 219,484 230,466 235,467 241,467 247,468 253,469 258,489 261,489 264,489 267,490 270,490 274,490 277,489 280,489 283,489 288,469 294,468 300,467 306,467 312,466 320,484 324,483 327,482 330,482 333,481 336,480 339,479 342,479 345,478 345,457 350,455 356,452 362,450 367,448 381,463 384,461 387,460 389,458 392,457 395,455 398,453 400,452 403,450 397,430 402,427 407,423 411,420 416,416 434,427 436,425 439,422 441,420 443,418 445,416 448,413 450,411 452,409 441,391 445,386 449,382 452,377 456,373 475,379 477,377 479,374 480,371 482,368 484,366 485,363 487,360 488,357 473,343 476,337 478,331 480,326 482,320 503,321 504,318 505,315 506,312 507,309 508,306 509,303 509,300 510,297 491,287 492,281 493,275 494,269 494,263 515,259"/>
<polygon class="pen1 brush0" points="271,447 292,446 312,443 331,438 349,431 367,423 384,413 399,401 414,388 427,374 438,358 449,341 457,324 464,305 469,286 472,266 473,245 472,224 469,204 464,185 457,166 449,148 438,132 427,116 414,101 399,88 384,77 367,67 349,58 331,51 312,46 292,43 271,42 250,43 230,46 211,51 192,58 174,67 158,77 142,88 128,101 114,116 103,132 93,148 84,166 77,185 72,204 69,224 68,245 69,266 72,286 77,305 84,324 93,341 103,358 114,374 128,388 142,401 158,413 174,423 192,431 211,438 230,443 250,446 271,447"/>
<polygon class="pen1 brush2" points="271,437 290,436 309,433 328,428 345,422 362,414 378,404 393,393 406,381 419,368 430,353 440,337 448,320 454,302 459,284 462,265 463,245 462,225 459,206 454,188 448,170 440,153 430,138 419,123 406,109 393,97 378,86 362,76 345,68 328,62 309,57 290,54 271,53 251,54 232,57 213,62 196,68 179,76 163,86 148,97 134,109 122,123 111,138 101,153 93,170 87,188 82,206 79,225 78,245 79,265 82,284 87,302 93,320 101,337 111,353 122,368 134,381 148,393 163,404 179,414 196,422 213,428 232,433 251,436 271,437"/>
<polygon class="pen1 brush0" points="271,371 296,368 319,361 340,350 359,334 374,316 386,294 393,271 396,245 393,220 386,196 374,175 359,156 340,141 319,129 296,122 271,119 245,122 222,129 200,141 182,156 166,175 155,196 148,220 145,245 148,271 155,294 166,316 182,334 200,350 222,361 245,368 271,371"/>
<polygon class="pen1 brush2" points="271,363 294,361 316,354 336,343 354,329 368,311 379,291 386,269 388,245 386,221 379,199 368,179 354,162 336,147 316,136 294,129 271,127 247,129 225,136 205,147 188,162 173,179 162,199 155,221 153,245 155,269 162,291 173,311 188,329 205,343 225,354 247,361 271,363"/>
</g>
</svg>
