<?xml version="1.0" encoding="UTF-8" standalone="no"?>
<!DOCTYPE svg PUBLIC "-//W3C//DTD SVG 1.0//EN" "http://www.w3.org/TR/2001/REC-SVG-20010904/DTD/svg10.dtd">
<svg xmlns="http://www.w3.org/2000/svg" xmlns:xlink="http://www.w3.org/1999/xlink" fill-rule="evenodd" height="0.549in" preserveAspectRatio="none" stroke-linecap="round" viewBox="0 0 549 549" width="0.549in">
<style type="text/css">
.brush0 { fill: rgb(255,255,255); }
.pen0 { stroke: rgb(0,0,0); stroke-width: 1; stroke-linejoin: round; }
.brush1 { fill: none; }
.pen1 { stroke: none; }
.brush2 { fill: rgb(0,0,0); }
</style>
<g>
<polygon class="pen1 brush2" points="301,249 373,249 368,236 362,224 355,213 346,203 336,195 325,187 313,181 301,177 301,249"/>
<polygon class="pen1 brush2" points="249,249 249,177 236,181 224,187 212,195 202,203 194,213 186,224 180,236 176,249 249,249"/>
<polygon class="pen1 brush2" points="301,301 301,374 313,370 325,364 336,356 346,348 355,338 362,326 368,314 373,301 301,301"/>
<polygon class="pen1 brush2" points="249,301 176,301 180,314 186,326 194,338 202,348 212,356 224,364 236,370 249,374 249,301"/>
<polygon class="pen1 brush2" points="100,249 106,221 117,195 132,171 150,150 171,132 195,118 221,107 249,100 249,0 225,3 201,9 178,17 156,26 135,37 115,50 97,64 80,80 64,98 49,116 36,136 25,157 16,178 9,201 3,225 0,249 100,249"/>
<polygon class="pen1 brush2" points="301,100 329,107 355,118 378,132 399,150 417,171 432,195 442,221 449,249 549,249 546,225 540,201 533,178 523,157 512,136 499,116 485,98 469,80 452,64 434,50 414,37 393,26 371,17 349,9 325,3 301,0 301,100"/>
<polygon class="pen1 brush2" points="449,301 442,329 432,355 417,379 399,400 378,418 355,432 329,443 301,449 301,549 325,546 349,540 371,533 393,524 414,513 434,500 452,485 469,470 485,452 499,434 512,414 523,393 533,372 540,349 546,325 549,301 449,301"/>
<polygon class="pen1 brush2" points="249,449 221,443 195,432 171,418 150,400 132,379 117,355 106,329 100,301 0,301 3,325 9,349 16,372 25,393 36,414 49,434 64,452 80,470 97,485 115,500 135,513 156,524 178,533 201,540 225,546 249,549 249,449"/>
</g>
</svg>
