<?xml version="1.0" encoding="UTF-8" standalone="no"?>
<!DOCTYPE svg PUBLIC "-//W3C//DTD SVG 1.0//EN" "http://www.w3.org/TR/2001/REC-SVG-20010904/DTD/svg10.dtd">
<svg xmlns="http://www.w3.org/2000/svg" xmlns:xlink="http://www.w3.org/1999/xlink" fill-rule="evenodd" height="0.552in" preserveAspectRatio="none" stroke-linecap="round" viewBox="0 0 551 552" width="0.551in">
<style type="text/css">
.brush0 { fill: rgb(255,255,255); }
.pen0 { stroke: rgb(0,0,0); stroke-width: 1; stroke-linejoin: round; }
.brush1 { fill: none; }
.pen1 { stroke: none; }
.brush2 { fill: rgb(0,0,0); }
</style>
<g>
<polygon class="pen1 brush2" points="276,552 304,551 331,546 357,540 383,530 407,519 429,505 451,489 470,471 488,451 504,430 518,407 529,383 539,358 545,331 550,304 551,276 550,248 545,220 539,194 529,169 518,145 504,122 488,101 470,81 451,63 429,47 407,33 383,22 357,12 331,6 304,1 276,0 248,1 220,6 194,12 168,22 144,33 121,47 100,63 81,81 63,101 47,122 33,145 22,169 12,194 6,220 1,248 0,276 1,304 6,331 12,358 22,383 33,407 47,430 63,451 81,471 100,489 121,505 144,519 168,530 194,540 220,546 248,551 276,552"/>
<polygon class="pen1 brush0" points="407,90 421,104 434,120 445,137 455,155 462,174 467,195 471,216 472,237 470,262 466,286 459,309 449,330 436,350 421,368 405,385 386,399 398,387 409,374 419,360 427,345 433,329 438,312 441,294 442,276 441,256 438,238 432,219 425,202 416,186 405,171 393,157 380,145 388,155 394,165 400,176 405,187 409,199 412,212 414,225 415,238 414,255 411,271 407,286 400,300 393,314 383,326 373,338 361,348 372,333 380,315 385,296 387,276 386,262 384,248 379,235 374,222 367,211 359,200 349,190 339,182 346,193 352,206 356,220 357,235 355,252 351,268 343,282 333,294 320,305 306,312 291,317 274,319 257,317 241,312 227,305 214,294 204,282 197,268 192,252 190,235 191,220 195,206 201,193 208,182 198,190 188,200 180,211 173,222 167,235 163,248 160,262 159,276 161,296 166,315 175,333 186,348 174,338 164,326 154,314 147,300 140,286 136,271 133,255 132,238 133,225 135,212 138,199 142,187 147,176 153,165 159,155 167,145 153,157 141,171 131,186 122,202 115,219 109,238 106,256 105,276 106,294 109,312 114,329 120,345 128,360 138,374 149,387 161,399 142,385 126,368 111,350 99,330 89,309 81,286 77,262 75,237 76,216 80,195 85,174 93,155 102,137 113,120 126,104 140,90 120,107 101,126 85,147 71,169 60,194 52,220 47,248 45,276 46,299 50,322 55,343 63,364 73,384 84,403 97,421 112,437 129,452 146,465 165,476 185,486 206,494 228,499 251,503 274,504 297,503 320,499 341,494 362,486 382,476 401,465 419,452 435,437 450,421 463,403 474,384 484,364 492,343 497,322 501,299 502,276 500,248 495,220 487,194 476,169 462,147 446,126 427,107 407,90"/>
</g>
</svg>
