<?xml version="1.0" encoding="UTF-8" standalone="no"?>
<!DOCTYPE svg PUBLIC "-//W3C//DTD SVG 1.0//EN" "http://www.w3.org/TR/2001/REC-SVG-20010904/DTD/svg10.dtd">
<svg xmlns="http://www.w3.org/2000/svg" xmlns:xlink="http://www.w3.org/1999/xlink" fill-rule="evenodd" height="0.464in" preserveAspectRatio="none" stroke-linecap="round" viewBox="0 0 943 464" width="0.943in">
<style type="text/css">
.brush0 { fill: rgb(255,255,255); }
.pen0 { stroke: rgb(0,0,0); stroke-width: 1; stroke-linejoin: round; }
.brush1 { fill: none; }
.pen1 { stroke: none; }
.brush2 { fill: rgb(0,0,0); }
</style>
<g>
<polygon class="pen1 brush2" points="561,85 590,90 618,96 645,103 670,111 694,118 717,127 738,136 757,145 775,155 791,166 806,176 819,188 829,199 838,211 845,223 850,235 852,246 853,257 852,268 849,278 843,289 837,300 828,310 817,321 800,335 779,348 756,360 730,371 702,380 672,389 639,396 606,402 570,407 534,410 497,413 459,413 421,412 383,410 345,406 308,401 290,398 273,394 256,390 240,385 225,380 211,375 198,369 185,363 174,357 164,351 155,345 147,338 140,331 134,324 130,317 127,310 125,297 128,284 135,272 146,259 157,250 169,242 184,235 201,228 219,222 238,217 259,212 280,208 303,205 326,203 349,202 373,201 398,202 422,203 445,206 469,209 493,214 514,220 532,227 548,234 560,242 569,249 576,257 579,265 580,269 580,274 576,282 568,292 561,297 554,302 545,307 534,311 523,314 511,318 499,320 485,323 471,325 457,326 442,327 427,327 412,327 397,326 382,324 367,322 352,319 339,316 328,312 319,307 311,303 306,299 302,294 300,290 299,289 300,286 301,283 305,278 313,273 324,268 338,263 354,260 372,258 391,257 410,258 430,260 440,262 448,264 454,266 459,268 463,270 466,273 467,276 467,279 465,283 461,287 453,291 444,294 432,296 419,298 405,299 390,299 388,304 401,306 415,308 429,309 442,309 456,308 468,305 478,301 487,295 493,289 497,283 498,276 497,269 494,262 490,256 484,251 477,246 468,242 458,238 447,235 435,232 413,229 391,228 369,229 349,232 329,236 312,242 297,249 286,258 276,270 272,281 271,291 273,299 277,308 283,316 291,323 302,330 314,336 329,341 345,346 363,349 380,351 396,353 413,354 430,355 446,354 463,353 478,352 494,350 509,347 523,343 536,340 549,335 560,330 571,325 580,319 588,312 599,299 606,285 609,271 607,256 601,244 592,232 579,221 563,211 545,201 523,193 499,187 473,181 448,177 422,175 396,173 370,172 345,173 319,174 295,177 271,180 248,185 226,190 206,196 187,203 169,211 153,219 139,229 127,239 116,250 108,261 102,272 99,283 97,293 97,302 97,310 99,318 103,327 108,336 114,345 122,354 131,362 141,370 152,378 165,385 179,392 193,399 209,405 226,411 244,416 263,421 282,425 303,429 342,435 381,439 421,441 461,442 500,441 539,438 577,435 614,429 649,423 683,415 715,405 745,395 772,383 797,370 819,356 837,341 853,325 865,308 873,293 878,277 881,263 881,250 880,237 877,226 872,212 864,198 854,184 843,171 829,159 814,146 796,135 777,123 756,113 733,103 709,94 684,85 656,77 628,69 597,63 566,57 561,85"/>
<polygon class="pen1 brush2" points="637,177 489,58 685,0 563,70 637,177"/>
<polygon class="pen1 brush2" points="943,290 0,290 0,315 943,315 943,290"/>
</g>
</svg>
