<?xml version="1.0" encoding="UTF-8" standalone="no"?>
<!DOCTYPE svg PUBLIC "-//W3C//DTD SVG 1.0//EN" "http://www.w3.org/TR/2001/REC-SVG-20010904/DTD/svg10.dtd">
<svg xmlns="http://www.w3.org/2000/svg" xmlns:xlink="http://www.w3.org/1999/xlink" fill-rule="evenodd" height="0.869in" preserveAspectRatio="none" stroke-linecap="round" viewBox="0 0 1022 869" width="1.022in">
<style type="text/css">
.brush0 { fill: rgb(255,255,255); }
.pen0 { stroke: rgb(0,0,0); stroke-width: 1; stroke-linejoin: round; }
.brush1 { fill: none; }
.pen1 { stroke: none; }
.brush2 { fill: rgb(0,0,0); }
</style>
<g>
<polygon class="pen1 brush2" points="939,818 943,809 946,802 949,795 953,790 965,772 974,754 981,735 985,716 987,697 986,679 983,661 978,644 970,628 961,614 949,601 934,590 918,581 899,574 879,569 856,568 837,569 819,573 802,579 786,587 770,597 756,608 743,621 730,635 718,650 706,665 696,681 685,698 675,714 665,730 655,745 646,760 633,753 620,747 607,740 595,734 583,727 572,721 562,714 551,707 542,701 532,694 523,688 515,681 507,675 500,668 493,662 486,655 477,627 473,601 472,578 475,555 481,535 490,517 502,500 516,486 533,473 552,462 573,452 595,444 619,439 643,434 669,432 695,431 724,429 751,425 777,418 801,408 823,395 843,381 862,364 879,346 893,325 906,304 918,280 927,256 934,231 939,204 942,177 943,150 933,163 921,175 910,186 897,197 883,206 869,215 853,223 837,230 821,236 803,242 784,246 765,250 745,253 724,255 702,257 680,257 641,259 605,266 573,276 544,290 518,307 496,327 478,350 462,375 450,403 442,432 437,463 435,495 437,529 442,562 450,597 462,631 443,612 424,592 405,571 387,550 369,527 351,503 335,479 319,454 305,428 292,402 281,375 273,348 266,321 262,293 260,265 261,237 271,257 283,276 299,293 316,307 334,316 354,318 374,310 395,293 407,277 414,261 416,246 415,231 410,217 403,203 394,189 385,175 375,162 365,149 356,136 349,123 345,110 343,96 345,83 352,69 362,58 373,54 384,55 395,59 406,66 416,73 426,78 436,80 436,80 436,80 435,65 431,50 426,37 418,25 408,15 396,7 382,2 366,0 333,5 307,19 287,40 271,67 259,97 250,128 243,160 238,189 228,165 217,140 206,115 193,92 177,71 158,55 135,45 106,41 86,44 68,54 52,67 40,84 33,102 31,120 38,136 52,150 56,141 60,132 65,123 70,114 76,107 83,100 92,96 102,95 120,98 132,105 137,116 138,130 135,147 129,167 122,187 113,208 105,229 99,249 95,269 94,286 97,300 106,311 122,318 145,321 161,319 174,313 186,303 197,292 206,279 215,265 223,252 230,239 232,278 237,318 247,356 259,394 275,431 294,466 315,499 340,530 309,533 284,542 264,556 247,574 234,596 222,620 212,646 203,673 193,700 181,726 168,751 151,774 131,794 105,810 75,822 37,828 38,843 53,847 69,849 87,851 105,851 124,850 143,849 162,846 181,842 200,837 218,830 235,823 252,815 267,806 280,796 291,784 301,772 313,752 323,729 332,704 339,677 345,647 349,615 351,581 352,545 368,565 384,583 399,601 415,617 431,633 447,649 463,663 480,678 497,691 514,705 532,718 550,730 569,743 588,756 608,768 629,781 612,794 594,805 575,813 556,818 537,820 517,819 497,815 477,807 472,817 486,826 500,834 514,840 528,844 543,848 557,850 572,851 587,851 601,849 616,847 630,843 645,838 659,833 672,826 686,818 699,810 718,818 738,825 757,831 777,835 796,839 816,841 836,843 856,844 876,844 896,844 916,843 936,842 956,841 976,840 997,839 1017,838 1017,814 939,818 917,818 904,819 891,819 878,819 866,820 853,819 841,819 829,818 816,817 804,815 792,813 780,811 768,808 756,805 743,801 731,796 718,791 725,783 725,783 725,783 734,774 743,764 753,754 764,745 775,735 786,727 798,719 811,712 823,706 836,701 849,698 862,697 876,698 889,701 902,706 915,714 926,725 933,737 936,750 936,764 934,778 929,792 923,805 917,818 939,818"/>
</g>
</svg>
