<?xml version="1.0" encoding="UTF-8" standalone="no"?>
<!DOCTYPE svg PUBLIC "-//W3C//DTD SVG 1.0//EN" "http://www.w3.org/TR/2001/REC-SVG-20010904/DTD/svg10.dtd">
<svg xmlns="http://www.w3.org/2000/svg" xmlns:xlink="http://www.w3.org/1999/xlink" fill-rule="evenodd" height="0.344in" preserveAspectRatio="none" stroke-linecap="round" viewBox="0 0 485 344" width="0.485in">
<style type="text/css">
.brush0 { fill: rgb(255,255,255); }
.pen0 { stroke: rgb(0,0,0); stroke-width: 1; stroke-linejoin: round; }
.brush1 { fill: none; }
.pen1 { stroke: none; }
.brush2 { fill: rgb(0,0,0); }
</style>
<g>
<polygon class="pen1 brush2" points="69,172 70,190 72,207 77,223 83,239 90,254 98,268 108,281 119,294 132,305 145,315 159,323 174,330 190,336 206,341 223,343 241,344 258,343 275,341 292,336 307,330 322,323 336,315 350,305 362,294 373,281 383,268 391,254 399,239 404,223 409,207 411,190 412,172 411,154 409,137 404,121 399,105 391,90 383,76 373,63 362,50 350,39 336,29 322,21 307,14 292,8 275,3 258,1 241,0 223,1 206,3 190,8 174,14 159,21 145,29 132,39 119,50 108,63 98,76 90,90 83,105 77,121 72,137 70,154 69,172"/>
<polygon class="pen1 brush0" points="328,172 326,190 321,207 313,222 303,235 290,246 275,254 259,259 241,261 223,259 206,254 191,246 178,235 167,222 159,207 154,190 152,172 154,154 159,138 167,123 178,110 191,99 206,91 223,86 241,84 259,86 275,91 290,99 303,110 313,123 321,138 326,154 328,172"/>
<polygon class="pen1 brush2" points="485,190 0,190 0,148 485,148 485,190"/>
<polygon class="pen1 brush0" points="411,190 412,185 412,181 412,176 412,172 412,166 411,160 411,154 410,148 70,148 69,154 69,160 69,166 69,172 69,176 69,181 69,185 69,190 411,190"/>
<polygon class="pen1 brush2" points="154,190 327,190 328,185 328,181 328,176 328,172 328,166 327,160 326,154 325,148 155,148 154,154 153,160 152,166 152,172 152,176 153,181 153,185 154,190"/>
</g>
</svg>
