<?xml version="1.0" encoding="UTF-8" standalone="no"?>
<!DOCTYPE svg PUBLIC "-//W3C//DTD SVG 1.0//EN" "http://www.w3.org/TR/2001/REC-SVG-20010904/DTD/svg10.dtd">
<svg xmlns="http://www.w3.org/2000/svg" xmlns:xlink="http://www.w3.org/1999/xlink" fill-rule="evenodd" height="0.499in" preserveAspectRatio="none" stroke-linecap="round" viewBox="0 0 500 499" width="0.5in">
<style type="text/css">
.brush0 { fill: rgb(255,255,255); }
.pen0 { stroke: rgb(0,0,0); stroke-width: 1; stroke-linejoin: round; }
.brush1 { fill: none; }
.pen1 { stroke: none; }
.brush2 { fill: rgb(0,0,0); }
</style>
<g>
<polygon class="pen1 brush2" points="500,0 500,499 0,499 0,0 500,0"/>
<polygon class="pen1 brush0" points="106,170 106,171 107,173 108,176 109,179 110,184 111,191 113,201 115,210 115,219 114,227 111,235 108,243 105,248 102,250 99,250 96,249 94,246 92,239 91,231 90,224 90,218 92,211 94,204 96,196 99,188 102,179 105,173 106,170 113,125 113,124 112,122 110,117 107,110 104,101 102,94 100,86 96,79 91,72 89,65 87,59 87,53 87,48 88,43 88,40 88,39 85,39 77,39 70,39 67,39 67,41 67,45 67,50 68,56 69,65 72,76 74,87 76,95 80,103 87,116 93,128 96,133 98,142 98,143 98,144 97,146 96,148 93,152 87,159 81,169 77,177 74,187 70,201 68,215 68,225 70,233 73,244 75,255 77,261 80,266 85,271 90,275 96,276 101,275 106,274 111,271 115,267 119,260 123,253 127,246 129,241 131,236 132,229 134,221 134,215 134,207 132,195 131,183 129,172 127,163 124,153 122,147 121,144 122,139 125,136 130,128 136,119 139,112 140,100 142,81 143,62 143,51 142,46 142,41 142,37 141,36 137,36 129,37 122,38 119,38 120,39 121,43 123,49 125,55 127,61 128,68 129,76 127,82 127,85 125,91 124,98 123,104 121,109 117,116 114,122 113,125 106,170"/>
<polygon class="pen1 brush0" points="212,208 211,208 210,208 208,208 207,209 206,211 204,211 203,212 203,214 203,216 202,217 202,220 204,224 206,227 208,229 210,229 212,228 215,228 217,227 219,227 219,224 219,220 219,218 219,217 218,215 216,213 214,210 213,209 212,208"/>
<polygon class="pen1 brush0" points="150,207 155,207 160,206 166,205 170,204 174,202 178,200 182,197 185,195 187,193 189,191 191,189 195,185 198,181 199,178 201,176 208,175 218,175 226,176 232,178 236,184 240,194 243,206 245,217 246,225 247,232 247,241 248,250 251,255 254,258 255,260 257,261 259,260 261,255 261,248 261,241 260,233 259,225 257,216 256,208 256,199 257,190 258,180 259,170 260,159 262,149 263,142 263,137 259,135 252,134 246,135 240,135 233,135 227,134 223,133 221,131 223,128 225,124 226,119 227,115 232,114 236,114 241,115 247,115 252,116 256,116 261,117 264,118 266,119 270,119 274,119 277,121 278,129 278,145 278,166 278,186 278,199 280,212 282,229 283,247 281,260 276,268 270,274 263,278 256,277 250,273 245,270 241,267 239,261 237,252 234,243 232,234 231,224 230,215 229,206 227,199 223,194 218,191 213,190 208,190 204,193 199,199 194,207 189,213 185,215 186,215 188,216 190,218 194,222 198,230 204,242 209,254 211,262 212,274 213,294 215,314 215,328 214,346 214,378 217,410 223,432 230,442 234,450 237,454 238,456 220,460 219,459 216,457 212,453 208,446 206,436 205,423 204,409 204,397 203,387 202,377 200,367 199,357 199,344 200,327 200,308 199,291 196,276 192,261 187,249 184,242 181,238 179,235 177,231 174,228 169,225 163,221 158,217 155,215 153,213 149,211 146,208 145,207 150,207"/>
<polygon class="pen1 brush0" points="263,458 284,455 283,454 282,450 279,444 276,434 274,424 273,417 272,409 270,399 267,386 265,374 264,362 264,352 264,341 265,331 264,322 262,315 261,312 260,311 258,310 253,306 250,308 247,315 247,326 249,338 252,350 253,362 254,374 254,385 255,396 255,405 256,413 257,421 258,431 258,443 257,454 257,458 263,458"/>
<polygon class="pen1 brush0" points="308,451 311,450 318,448 324,446 327,445 326,444 323,441 320,437 319,433 318,427 318,420 317,413 316,406 315,399 315,391 314,383 313,374 312,364 311,351 309,339 308,329 308,321 309,316 309,312 308,308 306,304 305,301 303,300 302,301 300,304 298,307 295,312 294,317 294,323 295,329 297,337 299,348 301,357 302,363 303,370 304,381 306,397 307,413 308,427 308,435 306,439 305,445 304,451 303,453 308,451"/>
<polygon class="pen1 brush0" points="374,448 371,443 368,440 367,436 366,430 366,422 366,415 366,407 365,397 363,389 362,382 360,374 358,363 357,352 357,345 357,338 357,330 356,322 355,317 355,314 355,312 356,310 358,307 359,305 358,304 353,302 346,300 341,300 340,305 342,313 342,321 342,331 341,343 341,355 343,368 345,379 346,387 346,395 345,405 345,415 347,422 349,428 350,435 349,440 349,442 374,448"/>
<polygon class="pen1 brush0" points="401,447 421,448 420,447 419,445 416,440 413,430 411,419 411,409 411,398 409,386 406,373 404,363 403,354 402,346 402,337 403,329 404,323 403,319 399,314 395,310 391,308 389,310 387,316 386,323 385,331 386,339 388,347 390,356 390,367 391,380 392,392 394,400 396,407 397,415 396,425 394,436 392,445 391,449 401,447"/>
<polygon class="pen1 brush0" points="448,289 443,287 438,286 431,285 423,284 418,283 412,283 406,283 399,283 392,283 386,283 380,283 375,283 369,283 363,283 355,282 348,282 340,281 333,280 327,280 323,279 316,279 310,279 306,279 303,275 301,270 299,266 299,264 305,264 311,265 316,265 322,265 329,266 335,266 340,266 345,265 350,265 354,265 358,264 362,263 366,263 370,262 374,261 379,261 384,261 389,261 395,262 400,262 405,262 410,263 416,263 421,263 426,263 435,264 440,265 443,265 444,262 445,264 446,274 448,284 448,289"/>
<polygon class="pen1 brush0" points="447,254 443,250 441,248 438,246 432,246 430,247 424,247 415,246 404,243 398,241 392,239 386,238 380,237 375,237 371,236 367,236 365,235 364,234 363,233 362,232 357,231 350,231 344,230 339,230 338,228 341,225 344,222 348,220 351,219 354,219 359,220 366,220 373,221 381,222 389,223 395,223 400,224 405,224 411,225 418,226 425,226 432,227 438,228 442,228 444,228 446,228 449,228 452,228 453,228 447,254"/>
<polygon class="pen1 brush0" points="453,211 452,211 448,211 442,211 436,211 432,210 429,210 425,209 421,208 416,207 412,206 407,205 402,204 397,203 392,203 387,202 382,201 377,200 372,199 367,198 363,198 359,198 354,197 349,197 344,196 340,196 336,195 333,195 331,195 327,194 322,193 319,191 319,190 320,187 322,184 326,181 333,181 338,182 344,183 350,184 357,185 363,186 369,186 375,186 380,186 385,186 389,186 394,186 398,186 403,186 407,187 411,187 415,187 419,187 425,187 431,186 437,186 443,186 448,185 451,185 452,185 453,211"/>
<polygon class="pen1 brush0" points="314,52 315,57 316,63 316,70 316,79 316,90 317,104 318,118 317,128 316,136 316,143 316,148 318,151 321,154 325,157 330,160 333,158 335,154 336,150 337,145 337,138 337,130 337,123 337,116 336,108 335,94 335,77 335,61 335,55 314,52"/>
<polygon class="pen1 brush0" points="169,37 186,35 186,39 187,47 187,58 186,68 185,80 184,96 184,111 184,120 184,125 184,134 184,142 184,148 185,152 186,157 186,162 184,165 181,168 180,172 178,176 176,177 174,178 171,180 169,179 169,172 170,160 170,145 170,131 170,119 170,107 171,94 171,82 172,73 172,64 171,52 169,41 169,37"/>
<polygon class="pen1 brush0" points="208,37 226,35 226,37 225,42 224,48 224,55 224,63 224,73 224,83 223,90 222,95 219,99 216,102 212,102 208,101 207,100 208,98 208,90 207,80 207,71 207,65 207,59 207,53 208,46 208,40 208,37"/>
<polygon class="pen1 brush0" points="256,41 256,42 256,45 255,50 255,59 254,68 254,76 254,81 254,84 255,86 256,88 257,91 259,92 261,94 263,96 265,97 267,96 269,94 270,91 271,86 270,77 270,66 272,55 274,47 275,44 256,41"/>
<polygon class="pen1 brush0" points="377,106 374,106 372,105 371,106 370,112 369,121 368,128 369,134 373,139 377,144 381,148 386,150 391,147 395,144 397,143 398,141 400,134 403,126 406,121 407,118 405,114 402,109 400,106 398,105 395,104 389,104 383,105 379,106 377,106"/>
<polygon class="pen1 brush0" points="394,59 392,59 391,57 389,58 387,65 384,74 382,79 381,84 383,88 386,92 389,96 392,96 394,93 396,88 398,84 399,80 400,75 401,69 402,64 401,61 400,59 398,59 396,59 395,59 394,59"/>
<polygon class="pen1 brush0" points="409,93 408,96 409,100 411,104 415,105 420,106 425,107 429,108 432,107 433,105 434,103 435,100 435,97 436,93 436,91 435,89 432,88 428,88 425,88 423,88 420,88 416,90 413,91 410,92 409,93"/>
<polygon class="pen1 brush0" points="413,132 410,136 408,141 408,145 409,148 412,153 416,158 420,163 423,165 425,166 429,166 432,165 434,164 436,161 438,158 439,154 438,150 435,147 433,145 431,143 428,141 424,138 419,135 415,133 413,132"/>
<polygon class="pen1 brush0" points="383,155 381,163 379,170 378,175 381,178 387,181 394,183 400,184 401,181 400,177 400,174 400,172 399,168 398,163 397,159 395,155 393,153 390,153 387,154 384,155 383,155"/>
<polygon class="pen1 brush0" points="360,150 355,154 351,157 348,161 347,164 347,169 349,175 352,179 356,178 361,174 364,169 366,165 367,162 368,158 369,155 369,153 369,152 364,145 360,150"/>
<polygon class="pen1 brush0" points="343,133 350,133 356,134 361,134 363,132 364,128 364,125 364,122 363,119 363,117 363,115 362,114 357,114 349,115 345,115 342,116 341,118 341,122 342,127 343,131 343,133"/>
<polygon class="pen1 brush0" points="363,100 365,98 367,97 368,97 369,95 369,91 369,85 368,79 365,75 360,71 355,68 350,67 347,71 347,78 348,84 350,88 351,90 363,100"/>
<polygon class="pen1 brush0" points="47,316 49,319 52,322 55,325 60,328 64,331 67,333 70,334 73,333 77,331 79,329 81,328 85,325 90,322 94,318 97,315 98,314 103,312 104,314 107,318 110,323 113,327 117,330 122,333 126,335 130,334 133,333 135,333 138,331 142,326 147,320 150,316 153,314 155,314 157,316 160,318 163,321 167,326 171,332 175,337 178,341 180,342 182,341 184,340 187,338 188,335 188,332 187,329 185,325 180,318 175,311 171,304 167,299 162,296 157,293 154,290 151,290 148,293 143,299 137,305 133,310 131,312 130,313 128,313 124,312 121,308 117,301 113,295 109,290 108,288 89,304 87,306 83,309 78,311 73,308 66,301 57,293 49,287 45,284 47,316"/>
<polygon class="pen1 brush0" points="44,357 48,358 54,360 61,361 66,363 71,365 77,368 82,369 88,368 93,364 99,359 103,356 107,354 110,353 114,353 117,353 120,355 124,360 130,367 135,372 140,373 145,369 150,365 153,361 156,359 159,359 163,360 166,361 169,364 173,370 179,377 184,383 186,386 185,388 181,393 177,396 173,394 170,391 168,389 166,388 164,385 162,381 162,377 160,375 156,378 152,384 150,388 148,390 144,390 140,389 136,388 132,386 127,382 121,377 117,373 115,370 113,370 110,372 105,374 100,378 94,382 89,385 84,388 78,389 73,388 65,384 56,382 47,380 44,379 44,357"/>
<polygon class="pen1 brush0" points="43,402 50,411 57,417 63,420 66,423 69,424 72,424 76,423 79,420 83,416 87,411 91,407 95,405 98,405 103,406 108,407 113,410 116,414 118,418 120,419 125,418 131,415 137,411 142,408 147,407 151,407 155,408 157,410 158,410 160,413 166,418 172,424 176,428 179,430 181,434 181,437 179,439 175,441 171,443 167,445 164,442 161,438 159,434 157,431 154,428 151,426 148,425 144,425 140,428 136,434 133,440 129,444 123,443 115,440 110,437 106,435 103,432 99,429 95,428 90,429 85,432 78,437 71,443 65,448 63,450 62,451 60,452 58,454 55,454 52,446 48,428 45,410 43,402"/>
<polygon class="pen1 brush0" points="61,446 61,447 62,449 66,451 72,453 76,453 81,454 87,454 92,454 98,454 103,454 108,454 113,454 118,454 124,454 131,454 139,454 146,454 153,454 160,454 165,454 170,454 176,454 181,453 187,453 192,453 197,452 201,452 204,452 208,451 212,451 218,450 227,450 233,450 237,450 242,450 245,450 249,449 252,449 256,448 260,447 265,446 270,445 276,444 282,443 288,442 293,442 298,441 302,440 306,439 309,437 313,436 319,436 323,436 327,436 331,437 334,437 338,437 342,438 347,438 352,438 357,438 362,438 367,437 372,437 377,437 381,437 386,437 391,437 396,438 402,438 408,439 414,440 419,441 424,441 429,442 432,442 439,444 447,445 453,446 456,442 457,433 456,418 454,402 452,387 449,376 447,366 445,359 444,355 445,352 445,347 445,338 445,323 444,308 444,298 443,290 442,281 441,271 440,263 440,256 440,246 441,235 440,225 441,214 443,204 446,193 447,182 447,170 446,156 444,142 443,131 443,120 444,107 446,93 447,80 447,71 447,67 447,65 447,62 445,59 441,59 435,59 427,58 419,57 412,57 407,57 403,57 398,57 392,58 387,59 383,60 379,62 371,63 366,64 361,64 356,65 352,65 348,65 344,65 340,65 337,65 333,64 330,64 325,63 314,61 307,60 301,58 297,57 293,55 289,54 285,54 282,53 278,53 274,53 271,53 268,52 265,52 261,51 257,50 253,50 247,49 241,48 237,48 232,47 228,46 225,45 221,44 217,44 212,44 202,45 194,45 187,45 183,46 182,47 183,49 179,50 168,48 161,46 155,45 151,44 147,44 144,43 141,43 138,43 134,43 127,43 120,42 113,42 105,42 100,42 96,42 91,42 87,42 83,43 80,43 77,43 75,43 71,43 67,43 63,45 61,50 59,66 56,94 53,123 51,144 51,159 51,175 52,190 53,200 54,207 54,213 54,220 54,230 53,242 53,253 52,264 51,273 50,281 49,288 48,295 49,303 49,315 49,331 48,346 48,355 48,363 48,374 48,386 48,394 49,404 51,418 53,431 54,436 50,437 42,439 34,440 30,439 30,436 30,433 29,427 29,417 29,404 30,391 30,378 29,364 27,352 26,343 26,335 26,324 25,306 24,282 24,257 26,237 28,220 30,204 31,189 32,177 34,161 35,138 37,114 39,96 40,86 41,80 40,76 40,70 40,62 41,55 42,48 41,43 38,39 34,35 31,32 34,29 38,28 45,28 54,28 64,28 74,28 84,27 94,27 101,27 110,26 122,26 136,25 151,24 167,24 181,23 193,23 201,23 208,23 218,24 228,24 239,25 250,26 261,27 270,29 278,30 285,32 292,33 300,35 308,37 316,39 324,40 331,41 338,41 346,41 355,41 365,42 376,42 387,42 398,43 409,43 419,43 428,43 435,42 441,42 446,42 450,42 454,42 458,43 462,43 464,43 467,45 470,47 471,51 470,59 468,73 467,90 468,104 469,118 468,136 467,156 466,175 466,199 467,229 467,259 467,280 467,302 466,331 466,359 467,380 468,392 469,401 469,408 470,415 472,424 473,434 475,444 476,450 477,455 477,461 474,465 468,466 464,465 459,465 453,464 447,463 441,463 436,463 431,463 428,464 423,467 417,469 409,470 399,468 394,466 389,465 386,463 382,461 378,460 374,460 368,460 361,462 353,464 345,466 338,467 331,469 325,469 319,470 314,470 310,470 306,470 300,470 292,470 284,470 276,470 268,471 261,471 255,472 250,472 247,473 244,473 241,473 238,474 235,474 231,475 225,475 219,475 212,475 206,475 199,475 192,475 184,475 176,475 168,475 159,475 149,475 139,475 128,474 118,474 110,473 103,472 98,472 93,471 86,470 77,469 67,467 57,466 49,464 42,462 37,460 33,456 32,452 32,449 32,448 61,446"/>
<polygon class="pen1 brush0" points="30,436 32,450 53,449 55,433 30,436"/>
</g>
</svg>
