<?xml version="1.0" encoding="UTF-8" standalone="no"?>
<!DOCTYPE svg PUBLIC "-//W3C//DTD SVG 1.0//EN" "http://www.w3.org/TR/2001/REC-SVG-20010904/DTD/svg10.dtd">
<svg xmlns="http://www.w3.org/2000/svg" xmlns:xlink="http://www.w3.org/1999/xlink" fill-rule="evenodd" height="1.035in" preserveAspectRatio="none" stroke-linecap="round" viewBox="0 0 185 1035" width="0.185in">
<style type="text/css">
.brush0 { fill: rgb(255,255,255); }
.pen0 { stroke: rgb(0,0,0); stroke-width: 1; stroke-linejoin: round; }
.brush1 { fill: none; }
.pen1 { stroke: none; }
.brush2 { fill: rgb(0,0,0); }
</style>
<g>
<polygon class="pen1 brush2" points="96,922 95,894 90,866 82,839 74,811 64,783 56,756 51,730 48,705 50,680 58,655 71,631 91,608 92,591 89,574 84,558 77,542 68,527 58,512 48,498 38,484 28,467 21,450 16,434 14,418 15,403 20,387 28,371 41,355 57,329 66,303 71,278 70,254 66,231 60,209 51,187 41,166 33,151 26,138 19,125 13,113 8,100 5,86 3,72 3,55 4,47 7,40 12,32 19,25 27,18 36,12 48,6 61,0 60,23 64,43 74,62 87,79 103,95 119,111 134,126 148,142 159,160 164,178 162,199 152,221 121,281 104,330 98,372 101,405 110,434 124,457 139,478 153,497 161,512 166,526 166,542 160,561 135,604 117,640 107,670 105,697 110,722 121,747 139,773 162,804 173,820 178,841 179,866 173,895 169,907 164,920 158,933 150,947 140,961 129,974 116,988 102,1001 93,1008 82,1014 69,1020 57,1025 46,1029 37,1032 30,1033 28,1034 30,1031 36,1022 44,1009 55,993 66,975 78,956 88,938 96,922"/>
</g>
</svg>
