<?xml version="1.0" encoding="UTF-8" standalone="no"?>
<!DOCTYPE svg PUBLIC "-//W3C//DTD SVG 1.0//EN" "http://www.w3.org/TR/2001/REC-SVG-20010904/DTD/svg10.dtd">
<svg xmlns="http://www.w3.org/2000/svg" xmlns:xlink="http://www.w3.org/1999/xlink" fill-rule="evenodd" height="0.814in" preserveAspectRatio="none" stroke-linecap="round" viewBox="0 0 999 814" width="0.999in">
<style type="text/css">
.brush0 { fill: rgb(255,255,255); }
.pen0 { stroke: rgb(0,0,0); stroke-width: 1; stroke-linejoin: round; }
.brush1 { fill: none; }
.pen1 { stroke: none; }
.brush2 { fill: rgb(0,0,0); }
</style>
<g>
<polygon class="pen1 brush2" points="162,798 155,784 153,767 156,749 164,729 174,709 186,688 200,666 215,643 231,620 247,598 263,575 278,554 292,533 303,513 313,496 319,479 322,465 321,454 315,445 304,439 287,435 271,434 256,436 241,440 227,445 213,453 200,461 187,470 175,480 163,491 151,501 140,511 129,520 118,528 108,535 98,540 84,544 71,544 58,540 49,533 42,524 41,514 45,502 56,489 63,484 71,480 79,476 86,471 94,467 100,462 104,457 107,452 106,446 101,441 92,437 80,433 67,429 53,425 39,421 27,416 17,412 9,406 5,399 6,392 10,384 16,377 24,371 33,365 43,360 53,356 62,353 70,351 79,350 87,350 96,350 105,351 114,352 123,353 132,355 141,357 154,361 167,365 180,369 193,373 205,377 217,381 228,385 239,388 249,390 259,391 269,392 277,391 285,388 292,385 299,379 304,372 305,368 303,363 299,358 292,353 283,347 273,341 261,335 248,328 234,321 220,314 206,307 193,300 180,292 168,285 157,278 148,270 138,258 134,246 135,236 140,228 148,223 159,221 171,223 185,229 192,235 200,241 207,248 214,255 222,261 230,266 238,269 246,270 253,263 252,248 248,228 246,209 248,197 254,189 263,186 274,186 286,190 296,197 306,207 312,219 318,240 322,264 326,289 330,313 336,332 346,346 359,352 378,348 387,340 390,327 389,311 385,291 379,271 374,249 369,228 368,208 371,193 377,178 386,165 397,154 408,147 420,146 430,150 438,162 440,177 438,196 434,217 429,239 427,261 430,281 440,298 459,310 468,305 477,285 487,255 497,219 507,181 515,145 523,115 529,95 534,85 540,79 547,75 555,74 564,75 573,78 583,82 594,87 606,88 621,83 637,73 653,63 667,54 678,50 684,52 684,64 675,90 660,111 641,128 619,143 596,157 574,171 553,188 536,208 532,220 533,231 539,239 550,242 563,239 576,232 591,223 605,211 620,196 636,180 652,163 668,145 684,126 699,107 715,89 730,72 745,56 759,41 773,29 786,19 795,14 803,10 810,7 817,7 823,8 828,12 833,18 837,26 837,34 833,42 826,50 818,57 810,65 805,72 803,80 806,87 813,94 822,97 833,98 843,98 852,98 860,100 864,105 864,114 860,129 851,141 839,150 824,158 807,164 788,169 768,173 748,176 728,179 709,182 692,185 677,189 665,193 657,199 654,206 655,215 667,220 679,223 692,224 705,223 717,221 730,217 743,212 757,206 770,200 783,194 797,187 810,181 823,176 837,171 850,167 864,165 887,166 898,173 901,184 898,197 891,212 883,225 878,236 877,242 889,252 902,262 914,271 923,279 928,288 927,297 917,305 897,314 881,317 864,317 848,315 831,310 815,303 798,295 782,286 765,277 749,269 733,261 717,254 701,249 685,246 670,246 655,249 640,256 633,263 634,270 642,277 657,284 676,291 699,297 726,304 754,309 784,315 814,319 843,324 870,327 895,330 916,332 932,334 942,334 948,335 954,336 960,339 966,342 972,346 977,351 982,356 986,361 992,373 995,385 992,396 985,405 969,415 952,420 936,423 921,423 910,424 904,426 904,431 911,441 920,448 929,454 940,460 949,466 957,473 962,481 964,490 961,502 952,513 938,517 920,515 900,508 876,497 850,482 823,464 795,444 767,423 739,402 712,381 687,361 664,343 644,328 627,316 614,308 604,305 593,304 582,305 571,309 561,314 553,321 547,330 545,340 547,357 557,372 571,387 591,401 614,414 639,426 667,439 695,451 723,464 750,477 775,490 796,504 813,518 826,534 832,550 831,568 822,585 808,588 791,582 773,570 756,557 740,546 728,541 721,547 719,560 720,575 722,591 723,607 723,623 720,637 713,648 701,655 683,653 669,635 658,608 649,574 642,539 635,507 629,481 623,467 615,460 604,450 592,441 578,431 563,425 550,422 538,425 529,435 518,470 522,505 536,539 557,572 578,603 597,631 608,658 606,682 602,688 597,692 591,694 585,694 578,692 570,689 562,685 553,679 543,672 533,665 524,657 515,650 508,643 502,638 498,634 496,632 494,638 491,656 486,679 478,703 473,711 468,718 462,723 456,727 449,728 442,727 434,723 425,716 419,699 421,669 429,632 442,589 455,545 467,502 476,464 479,435 477,426 471,419 463,415 454,412 444,413 434,416 425,421 418,429 401,461 388,496 378,533 369,572 360,611 351,650 340,687 326,723 323,729 319,735 316,741 313,747 309,753 305,759 301,765 296,770 291,776 286,780 282,784 277,786 272,788 268,788 264,788 260,787 254,782 250,774 246,763 238,753 234,752 229,754 225,758 220,763 216,770 211,777 207,783 202,789 197,794 192,799 188,803 183,805 178,806 173,805 167,803 162,798"/>
</g>
</svg>
