<?xml version="1.0" encoding="UTF-8" standalone="no"?>
<!DOCTYPE svg PUBLIC "-//W3C//DTD SVG 1.0//EN" "http://www.w3.org/TR/2001/REC-SVG-20010904/DTD/svg10.dtd">
<svg xmlns="http://www.w3.org/2000/svg" xmlns:xlink="http://www.w3.org/1999/xlink" fill-rule="evenodd" height="0.848in" preserveAspectRatio="none" stroke-linecap="round" viewBox="0 0 1085 848" width="1.085in">
<style type="text/css">
.brush0 { fill: rgb(255,255,255); }
.pen0 { stroke: rgb(0,0,0); stroke-width: 1; stroke-linejoin: round; }
.brush1 { fill: none; }
.pen1 { stroke: none; }
.brush2 { fill: rgb(0,0,0); }
</style>
<g>
<polygon class="pen1 brush2" points="694,335 708,354 724,368 742,377 761,382 781,384 802,384 824,384 847,384 888,389 924,403 954,424 979,452 998,484 1011,520 1019,559 1022,598 1019,638 1010,676 995,712 974,744 948,771 916,792 877,805 833,810 816,808 811,803 815,795 827,787 841,777 857,768 870,761 877,755 888,741 895,727 897,715 897,703 893,692 886,682 877,673 867,664 855,657 842,650 828,643 814,638 801,633 788,628 777,624 767,621 745,610 728,596 716,579 709,560 703,539 699,517 694,496 689,475 738,469 743,499 756,521 775,535 797,541 819,539 838,530 851,513 856,489 856,489 851,463 838,443 819,430 797,424 775,425 756,433 743,447 738,469 689,475 686,465 682,456 677,448 671,440 664,433 656,426 646,421 635,416 627,436 623,456 623,477 626,499 630,521 637,544 643,567 649,590 654,613 656,636 656,659 652,682 644,705 630,726 609,748 582,768 569,774 550,780 528,785 505,787 484,786 465,781 453,770 448,753 463,752 477,748 490,742 503,734 513,724 521,712 526,699 528,684 525,665 515,647 502,631 486,615 470,599 454,583 440,566 431,547 494,486 498,511 510,529 526,542 544,547 562,546 578,538 590,522 594,499 594,499 594,499 590,470 578,450 562,438 544,433 526,436 510,446 498,463 494,486 431,547 425,524 422,502 422,482 425,463 431,446 439,430 450,416 463,404 477,393 493,383 511,375 529,369 549,364 569,360 590,358 611,358 601,342 589,327 576,314 562,302 547,291 531,281 515,273 498,266 481,261 463,257 445,254 427,253 408,253 390,255 372,258 355,262 326,270 302,280 279,291 257,303 237,317 218,332 200,349 185,366 170,385 157,405 146,425 136,447 128,470 122,494 118,518 115,544 114,570 114,570 142,565 169,557 193,548 215,536 235,522 254,506 270,488 284,468 296,447 306,425 314,402 320,377 325,351 327,325 327,298 326,270 355,262 354,296 352,328 348,358 343,387 336,414 327,439 316,463 303,485 288,506 271,525 252,543 230,559 205,574 178,588 149,601 116,612 121,637 135,662 153,685 171,708 188,730 199,751 201,772 190,792 170,806 150,809 130,803 110,789 93,771 78,751 66,730 59,712 50,674 45,637 45,600 48,563 55,528 65,493 78,459 95,427 115,397 137,368 162,341 190,317 219,294 251,275 285,258 320,244 312,216 300,189 285,164 267,142 245,123 221,109 193,99 163,96 137,99 126,107 124,119 129,134 136,151 141,169 140,186 129,202 107,214 86,214 67,205 53,189 45,167 45,143 55,118 77,94 99,79 121,69 142,63 164,62 184,64 205,70 225,79 244,91 261,105 278,121 294,139 308,158 321,178 333,198 342,219 350,239 367,236 383,234 400,233 415,232 431,233 446,234 461,236 476,239 491,243 505,248 519,254 533,260 547,267 560,276 574,285 587,295 596,301 603,307 610,312 616,316 621,319 625,322 628,324 630,325 621,290 613,253 610,217 612,182 621,151 640,127 671,111 716,105 716,105 716,105 730,106 744,109 759,114 773,121 787,128 801,136 816,143 830,151 844,158 859,164 873,168 887,171 901,171 915,169 928,164 942,155 958,136 963,118 959,100 950,83 942,69 937,58 939,51 952,48 969,52 983,63 995,78 1006,97 1014,118 1019,139 1023,158 1024,173 1021,212 1014,243 1002,268 987,286 968,299 946,308 922,313 897,315 870,315 842,314 815,313 788,313 762,314 737,318 714,324 694,335 732,282 748,279 761,272 771,261 778,248 780,233 779,218 773,205 761,193 731,180 705,182 685,195 672,215 669,238 677,260 697,276 732,282 694,335"/>
</g>
</svg>
