<?xml version="1.0" encoding="UTF-8" standalone="no"?>
<!DOCTYPE svg PUBLIC "-//W3C//DTD SVG 1.0//EN" "http://www.w3.org/TR/2001/REC-SVG-20010904/DTD/svg10.dtd">
<svg xmlns="http://www.w3.org/2000/svg" xmlns:xlink="http://www.w3.org/1999/xlink" fill-rule="evenodd" height="0.656in" preserveAspectRatio="none" stroke-linecap="round" viewBox="0 0 865 656" width="0.865in">
<style type="text/css">
.brush0 { fill: rgb(255,255,255); }
.pen0 { stroke: rgb(0,0,0); stroke-width: 1; stroke-linejoin: round; }
.brush1 { fill: none; }
.pen1 { stroke: none; }
.brush2 { fill: rgb(0,0,0); }
</style>
<g>
<polygon class="pen1 brush2" points="408,616 448,616 457,525 457,420 506,357 708,234 579,253 561,110 534,293 459,353 477,212 429,105 468,0 355,118 407,197 428,318 357,226 274,176 172,314 278,243 374,301 415,475 371,621 401,621 386,609 409,513 426,473 411,420 379,302 337,275 281,234 240,259 200,289 230,248 277,192 334,225 362,247 401,299 431,333 437,276 413,187 372,135 386,102 440,40 423,108 442,163 469,214 454,312 457,372 490,343 532,301 546,277 558,181 572,245 579,271 605,256 675,247 622,278 546,327 501,352 460,402 451,438 450,531 439,604 408,616"/>
<polygon class="pen1 brush0" points="427,471 425,470 419,466 410,460 400,454 390,446 379,439 370,433 364,428 358,424 351,421 342,418 332,415 322,412 311,407 299,402 288,396 278,390 272,385 267,381 264,378 261,377 257,376 253,375 246,375 238,376 230,377 223,380 216,383 210,386 205,388 202,390 201,391 199,391 193,390 186,389 177,389 169,390 162,392 158,397 158,405 161,414 164,421 168,426 172,430 177,432 183,433 191,433 200,431 209,429 219,426 227,425 235,423 241,422 247,422 250,421 251,421 267,431 268,433 270,438 271,444 270,451 265,457 257,462 249,465 246,466 242,466 233,467 219,468 203,469 187,470 173,471 162,471 157,472 151,472 138,473 121,474 101,475 81,476 63,477 49,478 43,479 37,482 29,484 22,488 21,493 24,498 29,500 32,501 34,501 75,502 152,496 154,496 160,495 168,494 178,493 187,493 194,494 199,496 200,500 194,508 184,512 175,514 171,514 130,516 18,520 16,522 11,526 6,532 6,537 11,541 20,545 27,547 30,548 103,548 162,538 164,538 168,538 175,539 182,540 189,542 195,543 199,546 200,549 197,555 193,560 190,563 188,564 128,569 125,569 115,568 103,567 88,567 73,567 59,567 49,568 45,570 45,576 48,583 51,588 53,590 95,596 174,592 176,592 180,591 185,591 192,591 198,591 204,592 207,594 207,596 204,598 199,601 194,603 188,604 182,605 177,606 173,607 172,607 99,618 95,619 88,622 80,626 77,631 79,633 85,636 92,638 100,639 109,640 116,641 121,642 123,642 128,642 140,641 158,640 179,639 200,637 219,636 233,635 240,634 246,632 258,630 274,627 292,624 310,621 327,618 339,616 345,615 349,613 355,610 363,606 372,600 380,595 388,590 394,586 398,583 404,577 410,570 414,564 416,562 434,499 435,495 435,487 433,478 427,471"/>
<polygon class="pen1 brush2" points="437,493 436,504 432,529 424,555 414,572 408,577 400,583 392,591 382,599 371,607 358,614 344,619 329,623 311,626 291,629 270,632 250,636 232,639 217,642 207,643 203,644 197,644 183,646 162,647 138,647 113,647 91,646 74,642 66,636 65,629 66,624 70,620 75,617 80,615 85,614 89,613 90,613 135,606 138,606 145,606 155,605 167,604 179,603 189,602 197,600 201,598 202,593 201,592 199,593 198,593 121,597 118,597 109,597 96,597 81,597 66,596 52,594 42,591 36,586 34,577 38,570 43,567 45,566 48,566 54,566 64,565 75,565 87,564 97,564 106,564 111,564 117,564 128,564 142,564 157,564 172,563 185,562 194,560 198,558 197,553 194,548 190,545 188,544 186,544 180,545 172,545 163,546 153,547 144,548 136,549 131,550 125,551 115,552 102,553 88,553 74,554 61,554 50,554 44,554 39,554 33,553 26,551 19,549 12,546 7,542 3,537 3,531 8,521 16,518 23,517 26,518 31,518 46,517 66,516 89,515 113,515 135,514 152,513 161,513 166,513 172,512 178,510 184,508 190,507 194,505 197,503 197,501 194,500 188,499 180,499 171,499 162,499 154,500 149,500 147,500 142,501 129,502 111,504 89,505 68,507 48,508 34,509 27,508 21,504 16,498 14,491 20,484 27,481 36,478 47,476 58,474 68,473 76,472 82,471 84,471 89,471 101,471 119,470 140,470 162,469 183,468 199,468 210,467 218,466 228,465 238,464 248,463 258,461 265,458 271,455 273,451 276,457 275,457 273,459 269,461 264,463 259,465 253,468 248,470 243,471 237,472 230,473 222,474 214,475 206,476 200,476 196,477 194,477 83,480 81,480 76,480 68,480 59,481 49,481 40,483 33,484 28,486 28,487 29,490 29,494 29,495 41,499 44,499 52,498 63,498 76,497 89,496 102,496 112,495 119,495 126,495 136,494 149,494 163,493 176,493 188,493 197,493 201,494 206,502 203,508 199,512 196,513 195,513 193,514 189,515 185,516 180,518 174,519 168,520 163,520 155,520 145,520 133,521 120,521 108,522 98,523 91,523 88,523 85,523 76,522 63,522 49,522 34,523 22,525 13,528 9,532 11,541 15,544 20,544 22,544 23,544 27,544 32,544 39,543 46,543 52,543 58,543 63,543 68,543 77,543 87,543 97,543 108,543 118,543 126,542 131,542 136,541 145,540 155,539 167,537 179,536 190,536 198,537 203,540 208,546 209,553 208,559 202,563 197,565 190,566 183,567 175,568 168,569 162,570 158,570 157,570 154,570 147,570 137,570 125,570 113,570 101,570 92,570 86,570 81,570 75,570 69,570 62,571 56,572 50,573 47,575 46,578 48,583 52,585 56,586 58,586 60,586 65,586 73,587 83,587 92,587 102,587 110,587 116,587 122,587 130,587 140,587 150,587 159,587 167,587 173,587 175,587 176,587 179,586 184,586 189,585 194,585 200,585 205,586 208,587 211,589 212,589 212,591 212,597 210,601 205,603 199,605 197,605 110,620 109,620 105,621 101,622 95,623 89,625 85,626 81,628 80,630 80,633 82,635 83,636 83,636 119,638 187,635 190,635 197,634 207,633 219,631 231,630 241,629 250,628 254,627 259,626 270,624 283,622 299,619 315,616 330,613 341,610 348,607 354,604 362,600 371,596 381,590 391,585 400,578 407,572 412,565 419,547 425,523 430,502 432,493 437,493"/>
<polygon class="pen1 brush2" points="274,456 256,434 237,429 235,430 229,431 221,433 212,435 202,436 192,437 183,436 177,434 168,429 162,425 157,420 154,412 154,404 155,398 156,394 157,393 158,393 161,392 165,391 171,390 176,389 181,388 186,387 190,386 198,384 207,382 214,379 217,378 218,377 221,376 225,374 230,371 236,370 242,369 247,369 252,371 258,374 270,380 286,388 304,396 322,404 337,411 347,415 351,417 353,418 360,421 369,426 380,432 391,439 402,446 411,453 417,459 424,468 431,477 436,485 438,489 437,490 435,490 432,489 431,488 428,486 420,481 412,474 405,469 402,466 397,462 391,458 385,453 380,449 375,445 372,443 371,442 316,419 314,418 309,415 302,410 293,405 284,399 276,394 270,390 267,388 263,386 258,383 250,382 239,381 233,382 227,383 222,385 218,388 214,391 210,393 206,394 203,395 199,395 194,395 189,395 184,395 178,395 174,395 171,395 170,395 169,396 167,400 165,404 164,409 165,413 168,418 173,422 180,424 185,425 189,425 194,426 199,426 203,427 208,426 213,426 218,425 224,424 230,421 237,419 244,417 250,415 255,414 260,415 263,416 267,424 271,438 273,450 274,456"/>
<polygon class="pen1 brush0" points="439,471 441,470 447,466 455,460 465,454 475,446 485,439 494,433 500,428 506,424 513,421 522,418 532,415 543,412 554,407 566,402 577,396 587,390 593,385 598,381 601,378 604,377 607,376 612,375 618,375 626,376 634,377 642,380 649,383 655,386 660,388 663,390 664,391 666,391 672,390 679,389 688,389 696,390 702,392 706,397 706,405 703,414 700,421 697,426 692,430 687,432 681,433 674,433 665,431 655,429 646,426 637,425 630,423 623,422 618,422 615,421 614,421 597,431 596,433 594,438 593,444 595,451 600,457 609,462 616,465 619,466 623,466 632,467 646,468 662,469 678,470 692,471 703,471 708,472 714,472 727,473 744,474 764,475 784,476 802,477 815,478 821,479 828,482 836,484 843,488 844,493 840,498 836,500 832,501 831,501 790,502 713,496 711,496 705,495 697,494 688,493 678,493 671,494 666,496 665,500 671,508 681,512 690,514 694,514 734,516 846,520 849,522 854,526 859,532 859,537 853,541 845,545 837,547 834,548 761,548 702,538 700,538 696,538 689,539 682,540 675,542 669,543 665,546 664,549 667,555 671,560 675,563 676,564 736,569 739,569 749,568 762,567 777,567 792,567 806,567 816,568 820,570 820,576 817,583 814,588 812,590 770,596 691,592 689,592 685,591 680,591 673,591 667,591 661,592 658,594 658,596 661,598 665,601 671,603 677,604 683,605 688,606 692,607 693,607 766,618 769,619 777,622 784,626 787,631 785,633 780,636 772,638 764,639 756,640 748,641 743,642 741,642 736,642 724,641 706,640 685,639 664,637 645,636 631,635 625,634 619,632 607,630 591,627 573,624 554,621 538,618 525,616 519,615 515,613 509,610 501,606 493,600 485,595 477,590 471,586 467,583 461,577 456,570 452,564 450,562 432,499 431,495 431,487 433,478 439,471"/>
<polygon class="pen1 brush2" points="429,493 430,504 434,529 441,555 451,572 457,577 465,583 473,591 483,599 494,607 506,614 520,619 535,623 553,626 573,629 594,632 615,636 633,639 648,642 658,643 662,644 668,644 682,646 703,647 727,647 752,647 774,646 790,642 798,636 799,629 798,624 794,620 790,617 784,615 780,614 776,613 775,613 730,606 727,606 720,606 710,605 698,604 686,603 676,602 668,600 664,598 662,593 664,592 666,593 667,593 743,597 746,597 755,597 768,597 783,597 799,596 813,594 823,591 829,586 831,577 827,570 822,567 820,566 817,566 811,566 801,565 790,565 778,564 767,564 758,564 753,564 747,564 736,564 722,564 707,564 693,563 680,562 671,560 667,558 668,553 671,548 675,545 677,544 679,544 685,545 693,545 702,546 712,547 721,548 729,549 734,550 740,551 750,552 763,553 777,553 791,554 804,554 815,554 821,554 826,554 832,553 839,551 846,549 853,546 858,542 862,537 862,531 857,521 849,518 842,517 839,518 834,518 819,517 799,516 775,515 751,515 729,514 713,513 704,513 699,513 693,512 687,510 681,508 675,507 671,505 668,503 668,501 671,500 677,499 685,499 694,499 703,499 711,500 716,500 718,500 723,501 736,502 754,504 776,505 797,507 817,508 831,509 838,508 843,504 849,498 850,491 844,484 837,481 828,478 818,476 807,474 797,473 789,472 783,471 781,471 776,471 764,471 746,470 725,470 703,469 682,468 665,468 654,467 646,466 637,465 627,464 617,463 607,461 600,458 594,455 592,451 589,457 590,457 592,459 596,461 601,463 606,465 611,468 617,470 622,471 628,472 635,473 643,474 651,475 659,476 665,476 669,477 671,477 782,480 784,480 789,480 797,480 806,481 816,481 825,483 832,484 837,486 836,487 836,490 835,494 835,495 824,499 821,499 814,498 802,498 790,497 776,496 763,496 753,495 746,495 739,495 729,494 716,494 702,493 689,493 677,493 668,493 664,494 659,502 661,508 666,512 669,513 670,513 672,514 675,515 680,516 685,518 691,519 696,520 702,520 710,520 720,520 732,521 745,521 757,522 767,523 774,523 777,523 780,523 789,522 801,522 816,522 830,523 842,525 851,528 855,532 853,541 849,544 844,544 842,544 841,544 837,544 832,544 826,543 819,543 812,543 807,543 802,543 797,543 788,543 778,543 768,543 757,543 747,543 739,542 734,542 729,541 720,540 709,539 697,537 685,536 675,536 666,537 661,540 656,546 655,553 657,559 663,563 668,565 675,566 682,567 689,568 696,569 702,570 706,570 707,570 710,570 717,570 727,570 739,570 752,570 764,570 773,570 779,570 784,570 790,570 796,570 803,571 809,572 815,573 818,575 819,578 817,583 813,585 809,586 807,586 805,586 799,586 792,587 782,587 772,587 763,587 755,587 749,587 743,587 735,587 725,587 715,587 705,587 697,587 691,587 689,587 688,587 685,586 680,586 675,585 670,585 664,585 659,586 656,587 653,589 653,589 653,591 652,597 654,601 660,603 665,605 668,605 755,620 760,621 770,623 779,626 784,630 784,633 783,635 782,636 782,636 745,638 678,635 675,635 668,634 658,633 646,631 634,630 623,629 614,628 610,627 605,626 594,624 581,622 565,619 549,616 535,613 523,610 516,607 511,604 503,600 494,596 484,590 474,585 465,578 458,572 453,565 447,547 441,523 436,502 434,493 429,493"/>
<polygon class="pen1 brush2" points="590,456 609,434 628,429 630,430 636,431 644,433 653,435 663,436 673,437 682,436 688,434 697,429 703,425 707,420 710,412 711,404 710,398 708,394 707,393 706,393 703,392 699,391 694,390 688,389 683,388 678,387 675,386 667,384 659,382 651,379 648,378 647,377 644,376 640,374 635,371 629,370 623,369 617,369 612,371 606,374 594,380 578,388 560,396 542,404 527,411 517,415 513,417 511,418 504,421 495,426 485,432 474,439 463,446 455,453 449,459 442,468 435,477 430,485 428,489 429,490 432,490 434,489 435,488 438,486 445,481 454,474 461,469 464,466 469,462 475,458 480,453 485,449 490,445 493,443 494,442 549,419 551,418 556,415 563,410 572,405 581,399 589,394 595,390 598,388 602,386 607,383 615,382 626,381 632,382 637,383 642,385 647,388 650,391 654,393 658,394 661,395 665,395 670,395 675,395 681,395 686,395 690,395 693,395 694,395 695,396 698,400 700,404 701,409 700,413 697,418 692,422 685,424 680,425 676,425 671,426 666,426 661,427 656,426 651,426 646,425 641,424 634,421 628,419 621,417 615,415 610,414 605,415 602,416 598,424 594,438 591,450 590,456"/>
</g>
</svg>
