<?xml version="1.0" encoding="UTF-8" standalone="no"?>
<!DOCTYPE svg PUBLIC "-//W3C//DTD SVG 1.0//EN" "http://www.w3.org/TR/2001/REC-SVG-20010904/DTD/svg10.dtd">
<svg xmlns="http://www.w3.org/2000/svg" xmlns:xlink="http://www.w3.org/1999/xlink" fill-rule="evenodd" height="0.559in" preserveAspectRatio="none" stroke-linecap="round" viewBox="0 0 563 559" width="0.563in">
<style type="text/css">
.brush0 { fill: rgb(255,255,255); }
.pen0 { stroke: rgb(0,0,0); stroke-width: 1; stroke-linejoin: round; }
.brush1 { fill: none; }
.pen1 { stroke: none; }
.brush2 { fill: rgb(0,0,0); }
</style>
<g>
<polygon class="pen1 brush2" points="138,280 139,256 142,232 147,209 154,187 163,166 173,145 185,126 198,107 213,90 229,74 246,59 265,46 284,34 305,24 326,16 348,9 340,7 331,5 323,4 315,2 306,1 298,1 289,0 280,0 251,1 223,6 197,13 171,22 146,34 123,48 102,64 82,82 64,102 48,124 34,147 22,171 13,197 6,224 1,251 0,280 1,309 6,336 13,363 22,389 34,413 48,436 64,457 82,477 102,495 123,511 146,525 171,537 197,546 223,553 251,558 280,559 289,559 298,558 306,558 315,557 323,556 331,554 340,553 348,551 326,544 305,536 284,526 265,514 246,501 229,486 213,470 198,453 185,434 173,415 163,394 154,373 147,351 142,328 139,304 138,280"/>
<polygon class="pen1 brush2" points="463,380 483,378 502,372 519,363 534,351 546,336 555,319 561,300 563,280 561,260 555,241 546,225 534,210 519,198 502,189 483,183 463,181 443,183 424,189 408,198 393,210 381,225 372,241 366,260 364,280 366,300 372,319 381,336 393,351 408,363 424,372 443,378 463,380"/>
<polygon class="pen1 brush0" points="492,273 503,271 513,264 519,255 521,244 519,233 513,223 503,216 492,214 486,215 481,216 475,219 471,223 467,227 464,233 463,238 462,244 463,250 464,255 467,260 471,264 475,268 481,271 486,272 492,273"/>
</g>
</svg>
