<?xml version="1.0" encoding="UTF-8" standalone="no"?>
<!DOCTYPE svg PUBLIC "-//W3C//DTD SVG 1.0//EN" "http://www.w3.org/TR/2001/REC-SVG-20010904/DTD/svg10.dtd">
<svg xmlns="http://www.w3.org/2000/svg" xmlns:xlink="http://www.w3.org/1999/xlink" fill-rule="evenodd" height="0.731in" preserveAspectRatio="none" stroke-linecap="round" viewBox="0 0 477 731" width="0.477in">
<style type="text/css">
.brush0 { fill: rgb(255,255,255); }
.pen0 { stroke: rgb(0,0,0); stroke-width: 1; stroke-linejoin: round; }
.brush1 { fill: none; }
.pen1 { stroke: none; }
.brush2 { fill: rgb(0,0,0); }
</style>
<g>
<polygon class="pen1 brush2" points="225,366 226,336 230,307 236,278 244,250 254,223 266,197 280,173 296,149 313,127 333,106 353,87 376,70 399,54 424,40 450,28 477,18 464,14 450,11 436,7 423,5 408,3 394,1 380,0 365,0 328,2 291,7 256,16 223,29 191,44 161,63 133,84 107,107 83,133 62,161 44,192 29,224 16,257 7,292 2,329 0,366 2,403 7,439 16,474 29,508 44,540 62,570 83,598 107,624 133,647 161,669 191,687 223,702 256,715 291,724 328,729 365,731 380,731 394,730 408,729 423,727 436,724 450,721 464,718 477,714 450,704 424,692 399,678 376,662 353,645 333,626 313,605 296,583 280,559 266,535 254,509 244,482 236,454 230,425 226,396 225,366"/>
<polygon class="pen1 brush2" points="323,102 308,102 308,626 323,626 323,102"/>
<polygon class="pen1 brush2" points="274,102 259,102 259,626 274,626 274,102"/>
<polygon class="pen1 brush2" points="384,35 369,35 369,693 384,693 384,35"/>
<polygon class="pen1 brush2" points="436,17 421,17 421,711 436,711 436,17"/>
<polygon class="pen1 brush0" points="127,366 128,354 131,343 135,332 142,323 149,314 158,307 167,301 178,297 173,295 167,294 162,293 156,293 141,294 127,299 115,306 104,314 95,325 88,338 83,351 82,366 83,381 88,395 95,407 104,418 115,427 127,434 141,439 156,440 162,440 167,439 173,437 178,436 167,431 158,425 149,418 142,410 135,400 131,389 128,378 127,366"/>
</g>
</svg>
