<?xml version="1.0" encoding="UTF-8" standalone="no"?>
<!DOCTYPE svg PUBLIC "-//W3C//DTD SVG 1.0//EN" "http://www.w3.org/TR/2001/REC-SVG-20010904/DTD/svg10.dtd">
<svg xmlns="http://www.w3.org/2000/svg" xmlns:xlink="http://www.w3.org/1999/xlink" fill-rule="evenodd" height="0.478in" preserveAspectRatio="none" stroke-linecap="round" viewBox="0 0 478 478" width="0.478in">
<style type="text/css">
.brush0 { fill: rgb(255,255,255); }
.pen0 { stroke: rgb(0,0,0); stroke-width: 1; stroke-linejoin: round; }
.brush1 { fill: none; }
.pen1 { stroke: none; }
.brush2 { fill: rgb(0,0,0); }
</style>
<g>
<polygon class="pen1 brush2" points="469,211 464,216 456,229 448,243 442,254 441,262 436,269 429,276 422,282 426,286 427,291 429,296 432,301 437,307 444,317 451,329 458,342 464,355 469,367 473,378 474,386 474,389 475,393 477,398 478,404 478,202 476,205 473,208 471,210 469,211"/>
<polygon class="pen1 brush2" points="478,433 475,430 472,426 468,422 464,417 460,412 456,408 452,403 448,400 445,396 441,391 437,386 433,381 428,375 425,369 421,364 418,359 412,350 405,341 398,333 392,327 388,319 384,307 381,295 378,286 376,280 378,274 381,269 386,265 390,263 394,261 398,258 403,255 408,252 412,249 415,246 418,244 423,239 429,232 434,227 439,224 444,221 450,217 455,211 459,207 462,203 467,198 472,194 477,190 478,189 478,189 478,189 478,188 478,138 474,139 470,140 466,142 464,143 462,144 458,146 454,147 450,148 445,150 441,151 436,152 433,153 428,154 420,156 410,159 399,162 387,166 376,169 367,172 361,175 356,177 351,179 345,180 340,181 334,182 329,183 325,184 322,185 318,182 313,176 308,169 303,160 299,151 295,141 291,131 288,121 284,109 278,96 272,84 268,75 265,67 261,55 257,43 254,35 251,29 247,20 242,10 237,0 234,4 232,8 229,12 228,15 227,20 226,28 225,36 224,42 223,49 222,56 220,64 219,71 216,81 214,96 211,110 210,120 208,111 209,99 210,88 212,80 213,71 213,58 213,43 213,33 214,24 215,13 216,4 216,0 218,13 218,10 218,7 218,4 219,0 0,0 0,198 7,197 13,196 20,195 27,195 33,194 39,193 44,193 48,192 53,191 59,191 65,190 72,189 78,189 84,188 89,188 93,187 97,187 100,187 104,187 109,187 113,188 118,188 123,188 128,187 134,187 140,187 147,187 153,188 160,188 165,189 170,190 174,190 170,193 166,196 161,199 157,202 152,204 148,206 144,208 140,208 136,208 132,210 127,212 122,214 117,217 112,220 109,223 106,225 111,229 106,231 99,232 91,232 82,232 74,232 65,232 58,232 53,232 56,235 58,238 57,240 55,242 58,244 62,247 66,250 72,254 77,258 82,262 86,266 90,268 95,270 103,274 111,279 118,284 124,288 130,292 135,295 140,298 136,297 132,295 127,293 122,290 118,288 114,286 110,285 107,284 104,284 99,282 94,281 88,279 83,276 78,274 74,272 72,271 69,270 65,269 59,267 53,265 46,264 40,262 34,259 30,257 27,256 24,254 20,253 16,252 12,250 8,249 4,248 0,247 0,478 146,478 147,474 148,470 149,467 150,465 152,456 152,446 154,436 157,428 160,420 161,411 162,402 165,395 169,386 172,375 175,364 178,358 181,374 182,389 183,403 183,415 183,427 184,441 185,455 186,468 193,460 199,453 204,446 209,441 213,436 217,432 220,429 223,427 228,424 234,420 240,416 245,411 248,408 251,405 255,402 260,400 264,397 269,395 273,392 278,390 285,384 292,376 297,369 302,364 303,365 307,366 312,369 317,374 320,377 325,380 331,383 338,386 344,389 351,392 357,394 362,395 367,396 373,399 379,402 385,406 392,410 398,414 405,418 411,421 420,426 426,429 429,432 429,435 425,433 419,431 411,429 404,426 396,423 390,421 384,419 381,418 378,417 374,416 370,415 365,414 359,412 355,410 351,407 348,404 345,403 340,402 334,400 328,397 321,395 315,393 310,392 307,391 303,398 298,404 293,409 288,415 282,420 278,426 274,431 271,436 269,440 266,446 262,451 258,457 254,462 249,468 243,473 238,478 478,478 478,433 478,433 478,433 478,433 478,433"/>
<polygon class="pen1 brush2" points="284,24 286,30 289,37 293,44 297,48 302,53 306,60 310,67 312,73 313,77 316,82 319,86 323,91 326,96 328,102 330,107 331,111 333,116 337,122 342,129 346,135 350,135 354,135 358,134 363,133 367,133 371,132 375,132 378,132 380,130 383,129 388,128 393,128 398,128 403,128 409,128 414,129 418,129 424,129 429,128 435,128 441,127 447,127 451,127 455,127 459,127 465,127 471,127 478,126 478,0 271,0 275,6 278,13 281,19 284,24"/>
</g>
</svg>
