<?xml version="1.0" encoding="UTF-8" standalone="no"?>
<!DOCTYPE svg PUBLIC "-//W3C//DTD SVG 1.0//EN" "http://www.w3.org/TR/2001/REC-SVG-20010904/DTD/svg10.dtd">
<svg xmlns="http://www.w3.org/2000/svg" xmlns:xlink="http://www.w3.org/1999/xlink" fill-rule="evenodd" height="0.372in" preserveAspectRatio="none" stroke-linecap="round" viewBox="0 0 706 372" width="0.706in">
<style type="text/css">
.brush0 { fill: rgb(255,255,255); }
.pen0 { stroke: rgb(0,0,0); stroke-width: 1; stroke-linejoin: round; }
.brush1 { fill: none; }
.pen1 { stroke: none; }
.brush2 { fill: rgb(0,0,0); }
</style>
<g>
<polygon class="pen1 brush2" points="700,357 700,337 667,326 667,319 665,306 663,294 662,288 692,271 685,249 651,247 637,215 659,188 650,171 615,179 593,148 606,114 590,99 562,116 560,115 557,112 552,108 546,103 541,99 536,95 532,92 531,91 532,86 534,75 536,64 537,58 534,55 528,52 522,48 519,47 495,72 493,71 488,68 481,65 474,62 466,59 460,57 456,55 454,54 454,20 431,14 414,44 412,43 407,43 400,42 392,41 385,40 378,40 374,39 372,39 364,8 338,10 335,44 333,44 329,45 324,45 317,46 310,47 304,48 299,49 297,50 279,21 257,27 255,61 254,61 250,63 244,65 238,67 232,69 226,72 221,74 219,75 193,53 172,63 181,95 180,96 176,99 170,103 164,108 158,113 152,117 148,121 146,122 118,105 100,123 116,154 112,158 104,168 95,178 91,184 60,174 48,195 70,222 68,227 63,239 57,252 55,259 21,259 15,283 45,300 44,306 43,319 41,332 40,339 8,345 7,361 0,364 0,338 32,333 35,302 7,289 16,251 50,251 61,222 39,199 58,166 87,175 106,151 92,121 118,95 146,111 171,91 164,62 195,42 219,65 247,54 248,22 286,13 302,39 329,39 329,2 371,0 379,32 409,34 426,6 463,17 464,49 492,60 517,38 545,54 538,88 563,106 590,90 615,114 602,146 619,169 652,161 669,193 647,217 657,240 690,242 699,277 671,292 675,320 706,330 706,361 700,357"/>
<polygon class="pen1 brush2" points="356,108 384,109 411,113 438,119 463,128 487,139 510,152 532,166 552,183 571,201 588,221 603,243 616,266 626,290 635,315 641,342 645,369 646,364 646,359 646,354 646,348 645,318 640,290 633,262 623,235 611,210 596,186 580,164 561,143 540,124 518,108 494,93 469,81 442,71 414,64 386,59 356,58 326,59 297,64 269,71 243,81 217,93 193,108 171,124 150,143 131,164 115,186 100,210 88,235 78,262 71,290 66,318 65,348 65,354 66,359 66,364 66,369 70,342 76,315 85,290 95,266 108,243 123,221 140,201 159,183 179,166 201,152 224,139 248,128 274,119 300,113 328,109 356,108"/>
<polygon class="pen1 brush2" points="0,372 706,372 706,356 0,356 0,372"/>
</g>
</svg>
