<?xml version="1.0" encoding="UTF-8" standalone="no"?>
<!DOCTYPE svg PUBLIC "-//W3C//DTD SVG 1.0//EN" "http://www.w3.org/TR/2001/REC-SVG-20010904/DTD/svg10.dtd">
<svg xmlns="http://www.w3.org/2000/svg" xmlns:xlink="http://www.w3.org/1999/xlink" fill-rule="evenodd" height="0.284in" preserveAspectRatio="none" stroke-linecap="round" viewBox="0 0 569 284" width="0.569in">
<style type="text/css">
.brush0 { fill: rgb(255,255,255); }
.pen0 { stroke: rgb(0,0,0); stroke-width: 1; stroke-linejoin: round; }
.brush1 { fill: none; }
.pen1 { stroke: none; }
.brush2 { fill: rgb(0,0,0); }
</style>
<g>
<polygon class="pen1 brush2" points="381,215 379,206 373,195 367,186 362,179 358,173 354,168 349,164 342,160 334,157 326,153 319,150 314,148 340,120 343,116 347,110 350,104 352,97 357,100 360,97 363,95 366,94 368,93 371,92 376,90 379,87 380,83 378,78 377,71 376,65 376,59 376,55 374,51 372,48 370,44 363,47 358,49 354,53 349,58 346,64 344,69 344,73 342,76 340,79 339,84 339,90 339,96 339,102 339,109 339,115 340,120 314,148 312,147 309,146 305,145 302,144 297,143 293,142 288,142 283,142 278,142 272,143 266,144 260,144 254,146 248,147 243,148 238,150 234,116 235,118 237,118 238,117 237,113 236,108 237,103 237,99 237,95 237,92 237,89 238,86 239,82 240,72 237,65 233,61 229,58 225,55 219,52 213,49 208,46 205,51 202,57 200,65 200,71 202,77 206,82 208,88 209,93 209,97 211,99 214,101 218,103 223,106 228,109 232,113 234,116 238,150 234,152 229,154 224,157 219,160 214,163 209,167 206,171 203,175 199,182 195,188 191,193 186,198 166,194 163,191 160,189 157,187 154,186 151,186 151,185 150,182 147,178 144,174 141,169 138,165 135,162 132,159 130,157 128,156 125,156 123,157 119,157 115,158 110,159 106,160 101,160 96,162 92,163 94,168 98,176 102,182 105,186 109,188 114,190 120,193 125,195 128,197 133,197 137,197 140,196 144,195 149,194 153,194 157,195 161,197 165,197 167,196 166,194 186,198 181,207 177,217 174,228 174,236 174,243 175,251 175,259 175,264 169,284 0,284 0,275 1,267 1,258 2,250 4,251 5,251 7,252 8,253 14,256 22,258 28,260 32,261 33,260 34,259 36,258 39,258 42,259 46,261 51,262 55,262 59,261 63,260 67,260 70,260 73,261 77,262 81,263 86,262 91,261 94,260 97,259 100,258 104,256 110,253 116,251 121,251 124,251 129,251 134,251 140,251 145,250 150,249 152,247 152,245 148,245 143,245 139,245 136,244 133,242 131,242 127,242 123,243 119,242 116,240 113,238 109,237 105,237 101,237 97,236 93,235 88,233 82,231 76,229 71,228 67,227 63,224 59,223 53,223 49,224 45,225 41,226 38,228 34,229 30,231 26,232 23,233 19,234 14,235 9,237 4,239 9,215 16,191 25,168 35,147 48,126 62,107 78,89 95,72 96,74 97,76 98,77 99,79 102,84 107,90 112,95 116,98 119,99 122,101 123,102 125,104 128,107 132,111 136,115 140,116 143,117 146,118 151,121 155,124 160,128 165,131 170,134 176,138 182,141 186,144 189,146 191,147 190,143 184,136 177,129 172,124 170,121 169,117 166,112 163,107 161,103 159,99 158,96 157,94 156,90 153,85 149,80 146,77 144,74 142,70 140,66 139,62 137,59 132,56 127,54 121,52 138,41 155,31 173,22 192,15 212,9 232,5 253,2 274,0 274,2 273,4 273,6 272,8 271,14 272,23 272,32 272,38 272,43 274,48 277,53 278,57 279,62 281,69 283,75 283,79 283,83 285,91 287,98 288,104 289,99 291,90 292,81 291,75 290,71 290,64 291,56 292,50 296,66 298,59 300,52 302,47 303,42 304,36 307,28 309,20 311,14 312,11 312,7 312,4 310,1 329,4 348,7 367,12 385,19 403,26 420,35 436,44 452,55 451,56 451,56 450,57 449,57 445,62 440,67 435,73 431,77 428,79 424,81 420,83 418,88 416,94 413,100 410,106 408,112 404,120 396,129 390,137 387,143 393,141 400,138 405,134 408,130 410,126 412,124 416,123 419,121 422,118 427,114 431,111 437,110 444,110 452,107 458,104 461,101 463,99 466,97 470,95 473,92 474,90 475,87 477,83 480,78 495,94 509,110 522,128 533,146 543,166 551,186 558,207 563,229 559,228 555,226 550,225 544,225 538,225 532,226 527,226 522,226 517,226 513,226 509,225 506,225 501,225 496,226 492,227 487,228 481,229 474,231 467,234 460,236 454,237 446,239 439,240 432,241 435,244 442,244 451,244 460,244 468,245 475,247 482,250 488,252 495,254 503,257 510,259 515,261 519,263 523,264 527,265 532,265 535,264 539,263 544,261 549,259 554,257 559,255 563,253 565,252 565,252 566,251 566,251 567,251 568,259 568,267 569,276 569,284 169,284 175,264 179,264 183,264 188,264 194,264 200,264 206,264 212,263 217,263 223,262 232,262 241,261 251,261 261,261 270,261 277,262 283,263 289,264 297,264 308,263 319,262 330,261 339,260 347,260 352,259 357,258 359,255 356,254 345,254 342,254 337,254 331,253 324,252 317,252 311,251 306,250 303,250 300,250 296,249 291,248 287,247 281,246 276,245 271,244 267,243 262,242 255,241 247,240 239,238 231,237 224,236 219,235 215,235 216,227 218,218 220,210 224,203 229,196 235,190 241,184 247,181 253,178 260,175 266,171 268,167 271,166 275,164 280,163 286,161 291,160 296,159 300,159 303,159 306,160 310,160 315,161 320,163 324,164 328,165 331,166 333,167 337,170 344,174 350,178 355,180 359,184 365,191 372,202 381,215 413,190 421,188 428,186 434,185 438,184 432,188 434,188 440,190 447,191 452,192 456,193 459,193 462,193 466,194 469,194 471,193 473,190 475,186 478,181 482,173 485,166 488,161 488,158 483,157 477,156 470,154 463,154 455,156 447,160 441,162 438,164 436,168 434,172 429,174 424,176 421,181 417,186 413,190 381,215"/>
</g>
</svg>
