<?xml version="1.0" encoding="UTF-8" standalone="no"?>
<!DOCTYPE svg PUBLIC "-//W3C//DTD SVG 1.0//EN" "http://www.w3.org/TR/2001/REC-SVG-20010904/DTD/svg10.dtd">
<svg xmlns="http://www.w3.org/2000/svg" xmlns:xlink="http://www.w3.org/1999/xlink" fill-rule="evenodd" height="0.507in" preserveAspectRatio="none" stroke-linecap="round" viewBox="0 0 396 507" width="0.396in">
<style type="text/css">
.brush0 { fill: rgb(255,255,255); }
.pen0 { stroke: rgb(0,0,0); stroke-width: 1; stroke-linejoin: round; }
.brush1 { fill: none; }
.pen1 { stroke: none; }
.brush2 { fill: rgb(0,0,0); }
</style>
<g>
<polygon class="pen1 brush2" points="377,52 373,52 369,52 364,52 359,52 354,53 348,54 343,55 337,56 330,57 322,59 313,60 304,62 294,64 284,66 275,68 267,70 258,72 247,75 234,79 220,83 206,86 193,90 181,93 172,96 164,98 158,99 151,100 145,101 139,102 133,103 127,105 120,108 113,111 106,115 99,118 93,121 87,124 82,128 77,131 73,135 68,141 65,144 61,146 52,147 45,147 38,148 31,149 25,149 19,150 15,151 12,152 11,153 10,155 7,158 4,159 3,160 5,160 9,160 11,162 10,164 6,167 3,170 2,172 2,173 3,174 4,175 6,176 11,175 15,174 21,173 27,172 33,170 40,168 47,166 54,164 61,161 68,158 75,156 83,154 91,152 99,151 107,149 114,149 120,148 124,148 128,149 131,149 134,150 138,150 143,150 151,148 162,144 173,139 183,135 191,131 198,127 203,124 208,121 213,119 218,117 223,115 229,114 235,112 240,111 246,110 252,109 259,107 265,106 271,104 276,102 282,99 287,97 293,94 299,91 306,88 315,86 323,84 328,82 332,81 335,81 338,80 342,80 347,79 354,78 362,77 369,76 376,76 381,76 385,75 389,74 391,72 393,69 392,62 386,57 380,53 377,52"/>
<polygon class="pen1 brush2" points="369,0 366,3 362,7 358,13 353,21 347,29 342,35 338,41 337,47 336,53 334,60 332,67 331,77 331,91 330,110 328,128 325,142 323,157 321,179 320,199 319,209 318,223 318,253 318,285 319,307 320,320 322,333 325,345 327,353 328,358 329,363 330,370 331,380 332,390 333,396 335,400 340,401 346,401 349,399 351,396 350,388 349,379 348,371 348,362 346,350 344,337 343,326 343,313 342,294 342,273 344,256 344,238 343,218 341,192 341,164 342,139 344,122 345,111 346,98 348,83 352,66 357,50 360,39 362,32 365,25 368,18 370,11 371,7 371,5 369,0"/>
<polygon class="pen1 brush2" points="375,308 371,310 367,313 363,315 359,318 354,321 350,324 344,326 339,329 334,331 329,333 325,335 321,337 316,339 309,343 301,348 291,354 280,361 268,366 257,371 246,376 235,379 225,383 216,386 207,389 199,392 191,394 184,397 176,400 168,403 160,406 150,409 139,412 129,415 121,418 115,420 110,422 105,423 100,424 92,425 83,426 73,426 64,427 56,427 49,428 43,429 38,430 33,430 28,431 19,433 13,435 9,437 8,439 9,442 12,445 16,448 21,448 27,446 32,445 38,443 43,442 43,442 40,445 34,449 27,453 19,459 12,464 7,468 5,471 4,479 5,490 9,498 19,498 25,494 32,489 38,483 43,477 48,471 53,466 56,462 59,459 62,456 65,453 69,450 79,446 85,444 89,443 93,443 97,442 100,442 104,441 107,441 111,439 118,436 122,433 126,431 129,428 130,427 130,426 130,425 129,424 130,423 134,422 140,420 150,418 162,416 172,413 180,410 188,407 196,405 203,403 210,401 217,400 229,399 235,399 239,398 245,396 249,394 253,392 256,390 260,387 264,385 268,382 272,379 276,376 282,371 286,367 292,364 303,361 310,359 317,358 323,357 329,356 334,355 339,353 344,351 348,347 354,340 357,336 361,333 368,330 377,326 385,323 390,320 393,318 391,316 385,313 379,312 376,311 375,308"/>
<polygon class="pen1 brush2" points="91,97 88,99 85,100 82,104 80,115 79,129 78,143 77,156 77,169 77,181 79,193 80,201 80,205 71,219 72,219 74,221 76,224 77,229 77,238 77,250 76,261 76,268 76,273 75,281 74,292 73,304 72,315 71,325 69,335 68,347 66,360 64,374 63,387 62,397 62,406 62,414 62,424 62,435 62,447 62,456 62,462 62,466 62,470 61,475 62,478 63,478 66,475 68,471 70,468 72,465 74,465 76,467 78,465 79,456 80,443 80,433 81,425 81,418 80,410 79,401 78,389 79,373 83,357 87,344 91,334 93,325 94,314 95,302 96,289 96,276 96,261 95,243 96,226 97,213 100,205 105,197 109,190 110,182 109,174 107,165 105,156 103,146 102,136 101,126 100,118 100,112 100,107 101,102 101,98 101,97 91,97"/>
<polygon class="pen1 brush2" points="157,173 158,170 162,165 167,159 174,155 181,153 187,151 194,149 203,147 208,146 212,144 216,142 219,140 223,138 226,137 229,137 233,138 240,140 246,141 253,143 259,149 266,158 275,168 283,178 288,184 292,195 298,214 302,233 303,246 301,255 298,266 294,279 287,292 282,298 277,304 271,310 264,315 257,320 251,323 246,326 241,328 236,329 231,330 226,331 221,331 216,331 211,331 207,330 204,329 197,324 188,317 180,309 175,302 172,293 168,284 165,275 163,270 162,266 161,260 162,252 164,242 169,230 174,219 179,210 183,205 187,201 192,197 198,193 202,191 207,189 214,188 223,189 231,192 238,196 244,199 248,204 250,211 251,220 251,231 251,240 248,247 242,254 235,262 227,270 219,276 213,280 207,281 203,281 201,280 200,277 199,272 199,266 202,262 206,258 210,254 213,250 215,247 217,243 218,239 220,235 221,231 221,227 220,223 219,219 218,218 217,217 214,215 210,213 206,214 200,219 194,226 189,234 186,239 184,243 181,249 179,256 180,262 183,268 187,277 191,285 194,290 198,294 204,300 210,305 216,307 218,307 222,308 226,308 231,308 236,308 240,308 245,307 248,305 253,300 257,294 261,288 263,283 264,278 265,272 266,267 268,264 270,262 273,259 276,256 278,251 279,244 279,235 279,227 279,224 278,221 274,213 270,204 267,197 264,191 259,185 253,179 248,175 245,174 240,173 234,172 228,171 221,170 215,170 209,170 205,171 200,173 195,175 188,179 182,182 175,186 169,190 165,194 162,197 159,201 155,208 150,216 145,225 139,234 135,242 131,249 130,254 130,266 133,285 136,303 139,313 141,316 145,319 149,324 154,329 159,334 163,338 167,341 170,342 173,342 176,342 181,343 186,343 191,343 197,343 202,343 207,344 212,345 218,345 224,345 231,345 237,345 243,344 248,344 252,343 256,342 261,340 267,337 273,335 279,332 284,330 287,329 288,328 297,325 292,333 291,334 287,335 283,337 278,340 276,342 273,344 271,346 267,348 263,350 259,352 254,353 248,354 242,354 237,355 231,356 225,356 219,357 214,358 208,359 203,359 197,359 191,360 184,361 178,361 171,361 165,361 160,360 155,359 150,357 145,353 140,349 135,345 131,340 127,336 124,333 123,331 120,327 117,322 114,316 113,310 113,300 113,283 113,266 113,254 113,247 114,240 116,233 120,227 124,220 129,212 134,204 138,198 143,191 149,183 155,176 157,173"/>
</g>
</svg>
