<?xml version="1.0" encoding="UTF-8" standalone="no"?>
<!DOCTYPE svg PUBLIC "-//W3C//DTD SVG 1.0//EN" "http://www.w3.org/TR/2001/REC-SVG-20010904/DTD/svg10.dtd">
<svg xmlns="http://www.w3.org/2000/svg" xmlns:xlink="http://www.w3.org/1999/xlink" fill-rule="evenodd" height="0.971in" preserveAspectRatio="none" stroke-linecap="round" viewBox="0 0 1059 971" width="1.059in">
<style type="text/css">
.brush0 { fill: rgb(255,255,255); }
.pen0 { stroke: rgb(0,0,0); stroke-width: 1; stroke-linejoin: round; }
.brush1 { fill: none; }
.pen1 { stroke: none; }
.brush2 { fill: rgb(0,0,0); }
</style>
<g>
<polygon class="pen1 brush2" points="811,219 764,210 731,186 712,152 705,113 712,74 732,40 765,16 811,7 857,16 890,40 910,74 917,113 910,152 891,186 858,210 811,219 824,180 841,177 853,168 860,155 863,141 860,127 853,114 841,105 824,102 824,102 824,102 808,105 797,114 790,127 788,141 790,155 797,168 808,177 824,180 811,219"/>
<polygon class="pen1 brush2" points="140,739 101,731 72,711 55,682 50,648 55,615 72,586 100,566 140,558 180,566 208,586 225,615 230,648 225,682 208,711 179,731 140,739 156,704 171,701 182,693 189,682 191,669 189,656 182,645 171,637 156,634 156,634 141,637 130,645 123,656 121,669 123,682 130,693 141,701 156,704 140,739"/>
<polygon class="pen1 brush2" points="22,45 0,45 0,9 16,9 32,9 48,9 64,8 80,8 96,8 112,8 128,9 145,9 161,10 177,11 193,12 209,14 225,16 240,18 256,21 273,24 290,27 307,30 324,32 341,33 358,35 375,36 393,36 410,36 427,36 444,35 462,34 479,32 496,30 513,27 530,24 545,20 561,17 576,14 592,11 608,10 623,11 639,14 654,20 644,37 636,52 629,66 623,79 618,90 615,100 613,108 613,115 616,134 622,154 631,173 641,191 654,208 668,224 683,239 700,253 718,264 737,274 757,281 777,285 797,287 818,286 838,282 858,274 864,271 869,268 875,265 881,262 887,261 893,260 899,261 905,263 903,271 899,280 893,290 885,300 877,310 868,319 861,327 855,334 839,360 830,391 829,423 835,456 847,488 865,515 887,537 915,551 939,559 956,566 967,573 973,580 974,586 972,591 966,597 958,603 948,609 936,615 924,622 912,629 901,637 891,646 882,655 877,666 870,694 867,723 869,754 875,784 884,812 899,838 917,860 939,878 957,890 971,901 979,910 984,918 985,925 983,930 978,934 970,937 961,939 950,940 937,940 924,939 911,938 897,936 884,934 872,931 858,927 844,922 830,916 815,910 801,904 786,897 771,890 757,884 742,878 727,872 713,868 698,865 684,863 670,862 656,864 643,867 627,873 612,880 597,887 584,894 571,900 558,906 547,911 536,914 525,916 516,915 506,912 498,906 490,897 482,884 475,867 469,846 464,831 458,812 450,791 441,770 430,751 417,733 403,720 388,713 375,710 362,709 349,708 336,708 323,707 310,706 297,704 285,701 287,677 290,655 294,635 297,614 296,594 290,574 278,554 257,532 240,519 223,510 205,504 188,501 171,500 154,501 137,503 121,507 105,510 89,514 74,517 60,519 47,520 35,519 24,515 14,509 16,501 19,494 22,489 25,484 29,480 35,476 41,471 49,466 69,449 85,430 98,409 108,386 115,363 118,339 118,314 116,290 110,266 102,242 91,220 78,199 62,180 43,162 23,148 0,136 0,102 51,110 98,125 144,147 187,175 228,209 267,247 305,288 341,331 376,377 410,423 443,470 476,516 509,560 542,601 575,640 608,674 621,686 633,698 646,710 658,721 671,733 684,744 697,756 710,767 723,777 737,788 751,797 766,807 780,816 795,824 811,832 827,839 794,808 764,776 734,743 706,709 679,675 652,641 627,606 602,571 577,535 553,500 528,464 503,428 478,392 453,357 426,321 399,286 383,266 365,246 346,226 325,205 303,184 281,164 257,145 233,127 208,110 182,94 156,80 129,68 102,58 76,51 49,47 22,45 22,45 22,45"/>
<polygon class="pen1 brush2" points="284,947 245,939 217,919 200,890 195,856 200,823 217,794 245,774 284,766 323,774 351,794 368,823 373,856 368,890 351,919 323,939 284,947 277,921 292,918 302,910 309,899 311,887 309,875 302,864 292,856 277,853 277,853 263,856 252,864 246,875 244,887 246,899 252,910 262,918 277,921 284,947"/>
</g>
</svg>
