<?xml version="1.0" encoding="UTF-8" standalone="no"?>
<!DOCTYPE svg PUBLIC "-//W3C//DTD SVG 1.0//EN" "http://www.w3.org/TR/2001/REC-SVG-20010904/DTD/svg10.dtd">
<svg xmlns="http://www.w3.org/2000/svg" xmlns:xlink="http://www.w3.org/1999/xlink" fill-rule="evenodd" height="0.75in" preserveAspectRatio="none" stroke-linecap="round" viewBox="0 0 1123 750" width="1.123in">
<style type="text/css">
.brush0 { fill: rgb(255,255,255); }
.pen0 { stroke: rgb(0,0,0); stroke-width: 1; stroke-linejoin: round; }
.brush1 { fill: none; }
.pen1 { stroke: none; }
.brush2 { fill: rgb(0,0,0); }
</style>
<g>
<polygon class="pen1 brush2" points="559,335 633,220 633,345 761,322 696,427 807,485 696,531 774,632 653,586 646,734 559,619 457,724 461,583 320,586 428,495 307,417 461,387 454,233 559,335"/>
<polygon class="pen1 brush2" points="256,230 253,233 245,241 234,255 220,273 204,295 188,322 172,353 158,387 147,425 139,465 137,508 141,553 152,600 171,649 200,699 239,750 235,743 226,722 213,693 198,657 185,619 174,581 169,547 171,520 174,528 181,548 192,577 206,610 222,644 238,673 255,694 270,703 264,693 248,664 230,620 212,564 202,500 205,431 225,360 268,292 274,286 283,280 295,273 309,265 325,257 343,248 362,238 383,228 404,216 426,204 448,190 470,176 492,160 514,144 534,126 554,107 553,107 549,110 541,115 531,122 518,130 503,139 486,149 468,159 449,169 429,179 409,189 389,197 369,205 350,211 332,214 316,216 315,213 313,203 312,187 316,164 325,134 344,97 373,52 416,0 411,3 399,10 380,24 358,44 335,70 313,103 295,144 282,193 277,206 268,217 260,226 256,230"/>
<polygon class="pen1 brush2" points="348,176 347,172 348,167 351,160 357,152 365,143 374,133 385,123 397,112 409,102 421,93 432,86 443,80 452,76 459,73 465,73 469,75 470,79 469,85 465,92 460,100 452,109 443,119 432,129 420,140 408,150 396,159 385,166 374,171 365,176 358,178 352,178 348,176"/>
<polygon class="pen1 brush2" points="867,230 870,233 878,241 889,255 903,273 919,295 935,322 951,353 965,387 976,425 983,465 986,508 982,553 971,600 951,649 922,699 883,750 887,743 896,722 910,693 924,657 938,619 949,581 954,547 952,520 949,528 942,548 931,577 917,610 901,644 885,673 868,694 853,703 859,693 874,664 893,620 910,564 920,500 918,431 898,360 855,292 849,286 840,280 828,273 814,265 798,257 780,248 761,238 740,228 719,216 697,204 675,190 653,176 631,160 610,144 589,126 570,107 571,107 575,110 583,115 593,122 606,130 621,139 638,149 656,159 675,169 694,179 714,189 734,197 754,205 773,211 791,214 807,216 808,213 810,203 810,187 807,164 797,134 778,97 749,52 706,0 711,3 724,10 742,24 764,44 787,70 809,103 828,144 841,193 846,206 855,217 863,226 867,230"/>
<polygon class="pen1 brush2" points="775,176 776,172 775,167 771,160 766,152 758,143 749,133 738,123 726,112 714,102 702,93 690,86 680,80 671,76 663,73 657,73 654,75 653,79 654,85 657,92 663,100 670,109 680,119 690,129 702,140 715,150 727,159 738,166 749,171 758,176 765,178 771,178 775,176"/>
<polygon class="pen1 brush0" points="556,595 532,593 509,586 488,575 470,560 456,543 444,522 437,500 435,476 437,452 444,429 456,408 470,390 488,376 509,364 532,357 556,355 580,357 602,364 622,376 640,390 654,408 666,429 673,452 675,476 673,500 666,522 654,543 640,560 622,575 602,586 580,593 556,595"/>
</g>
</svg>
