<?xml version="1.0" encoding="UTF-8" standalone="no"?>
<!DOCTYPE svg PUBLIC "-//W3C//DTD SVG 1.0//EN" "http://www.w3.org/TR/2001/REC-SVG-20010904/DTD/svg10.dtd">
<svg xmlns="http://www.w3.org/2000/svg" xmlns:xlink="http://www.w3.org/1999/xlink" fill-rule="evenodd" height="0.402in" preserveAspectRatio="none" stroke-linecap="round" viewBox="0 0 811 402" width="0.811in">
<style type="text/css">
.brush0 { fill: rgb(255,255,255); }
.pen0 { stroke: rgb(0,0,0); stroke-width: 1; stroke-linejoin: round; }
.brush1 { fill: none; }
.pen1 { stroke: none; }
.brush2 { fill: rgb(0,0,0); }
</style>
<g>
<polygon class="pen1 brush2" points="811,402 809,361 802,321 792,282 778,246 761,210 741,177 717,146 691,118 662,92 631,69 598,49 563,32 526,18 487,8 447,2 406,0 365,2 325,8 286,18 249,32 213,49 180,69 149,92 120,118 94,146 71,177 50,210 33,246 19,282 9,321 2,361 0,402 811,402"/>
<polygon class="pen1 brush0" points="807,347 800,344 793,340 786,336 778,332 771,328 764,324 756,319 749,315 728,304 707,296 685,290 664,286 643,284 622,283 601,284 580,286 559,290 539,295 518,300 497,307 477,313 456,321 436,328 416,336 403,341 391,346 379,350 367,354 355,359 343,363 331,366 319,370 302,374 285,378 270,380 255,380 241,380 228,379 215,377 202,373 190,370 177,365 165,359 153,353 140,346 128,339 115,331 101,323 92,318 83,312 74,307 64,302 54,296 43,291 32,285 21,279 21,279 21,279 21,279 20,279 18,287 16,294 13,302 11,310 21,315 31,320 40,326 49,331 58,336 67,341 76,346 84,351 97,359 109,366 121,373 133,380 145,386 157,392 169,397 182,402 329,402 341,398 354,394 366,390 379,385 391,381 404,376 416,372 428,367 447,360 466,353 485,346 504,339 523,333 542,328 562,324 581,320 600,318 619,317 638,317 657,319 676,322 695,328 713,335 732,344 742,350 753,355 763,361 773,366 782,371 792,376 801,381 810,386 810,376 809,366 808,357 807,347"/>
<polygon class="pen1 brush0" points="732,166 714,161 696,158 678,156 660,155 642,155 625,157 607,159 589,161 571,165 554,169 536,174 519,179 501,184 484,190 466,196 449,202 437,206 425,211 413,215 402,219 390,222 378,226 367,230 355,233 338,237 322,240 307,241 292,242 278,242 265,241 252,239 240,236 228,232 216,228 204,223 192,218 179,212 167,205 154,198 141,191 134,188 127,184 120,180 113,176 106,173 98,169 91,165 83,161 78,167 74,173 69,179 65,185 73,189 81,193 88,197 96,201 103,205 110,208 117,212 124,216 138,224 151,231 164,238 178,244 191,250 204,255 218,260 232,264 246,267 261,269 276,271 292,271 309,270 327,268 345,265 365,261 377,258 389,254 401,250 414,246 426,242 438,238 450,234 462,230 480,223 499,217 518,211 536,205 555,200 574,195 592,191 611,188 630,186 649,185 667,185 686,186 704,189 723,194 741,200 759,208 753,197 746,186 739,176 732,166"/>
</g>
</svg>
