<?xml version="1.0" encoding="UTF-8" standalone="no"?>
<!DOCTYPE svg PUBLIC "-//W3C//DTD SVG 1.0//EN" "http://www.w3.org/TR/2001/REC-SVG-20010904/DTD/svg10.dtd">
<svg xmlns="http://www.w3.org/2000/svg" xmlns:xlink="http://www.w3.org/1999/xlink" fill-rule="evenodd" height="0.703in" preserveAspectRatio="none" stroke-linecap="round" viewBox="0 0 572 703" width="0.572in">
<style type="text/css">
.brush0 { fill: rgb(255,255,255); }
.pen0 { stroke: rgb(0,0,0); stroke-width: 1; stroke-linejoin: round; }
.brush1 { fill: none; }
.pen1 { stroke: none; }
.brush2 { fill: rgb(0,0,0); }
</style>
<g>
<polygon class="pen1 brush2" points="471,0 193,699 203,703 481,4 471,0"/>
<polygon class="pen1 brush2" points="135,552 345,636 353,640 355,631 446,98 433,93 132,542 127,549 135,552"/>
<polygon class="pen1 brush0" points="342,594 167,524 417,150 342,594"/>
<polygon class="pen1 brush2" points="106,273 558,454 567,431 115,251 106,273"/>
<polygon class="pen1 brush2" points="261,172 515,274 522,256 269,155 261,172"/>
<polygon class="pen1 brush2" points="0,376 567,602 572,587 6,362 0,376"/>
</g>
</svg>
