<?xml version="1.0" encoding="UTF-8" standalone="no"?>
<!DOCTYPE svg PUBLIC "-//W3C//DTD SVG 1.0//EN" "http://www.w3.org/TR/2001/REC-SVG-20010904/DTD/svg10.dtd">
<svg xmlns="http://www.w3.org/2000/svg" xmlns:xlink="http://www.w3.org/1999/xlink" fill-rule="evenodd" height="1.0in" preserveAspectRatio="none" stroke-linecap="round" viewBox="0 0 960 1000" width="0.96in">
<style type="text/css">
.brush0 { fill: rgb(255,255,255); }
.pen0 { stroke: rgb(0,0,0); stroke-width: 1; stroke-linejoin: round; }
.brush1 { fill: none; }
.pen1 { stroke: none; }
.brush2 { fill: rgb(0,0,0); }
</style>
<g>
<polygon class="pen1 brush2" points="869,623 863,610 855,598 845,586 833,575 819,564 802,554 784,545 764,537 749,533 736,533 723,535 710,540 699,547 688,554 678,563 668,571 658,579 649,586 640,591 631,594 622,595 613,592 604,586 595,575 586,559 584,544 587,531 595,518 608,505 624,493 644,482 666,470 690,458 715,446 741,433 767,420 792,405 815,390 837,373 856,355 869,339 880,321 888,302 892,282 892,259 888,235 880,210 866,182 857,169 845,158 832,148 817,142 800,137 782,135 763,135 743,137 723,142 702,150 682,161 662,174 642,190 623,209 605,231 589,256 574,284 563,308 554,328 548,347 543,363 539,378 534,392 527,406 524,407 518,407 511,405 502,401 493,394 486,382 480,364 477,341 474,311 468,281 459,252 449,223 436,196 422,169 407,144 390,122 373,101 355,83 337,68 318,57 300,48 282,44 265,44 249,48 239,54 229,61 220,71 212,84 205,98 199,116 193,136 189,159 188,192 194,220 208,245 227,267 251,286 279,303 308,318 340,333 371,347 401,361 429,375 454,391 475,408 490,427 498,449 499,474 492,511 480,537 465,553 446,560 424,561 400,555 373,545 344,533 314,519 283,506 252,494 220,486 188,482 157,485 127,495 98,514 87,526 78,538 72,551 67,565 65,579 65,594 67,608 71,623 16,623 10,468 6,312 5,156 8,0 956,17 958,75 958,219 956,414 954,623 869,623"/>
<polygon class="pen1 brush2" points="71,626 80,648 92,670 107,691 123,710 141,728 160,744 180,757 199,768 224,777 248,782 270,781 292,776 311,768 330,758 349,745 366,731 383,716 400,701 417,687 433,674 450,663 468,655 485,650 504,649 521,655 532,667 539,685 544,707 547,731 551,756 557,780 567,802 586,829 607,849 630,862 655,869 681,871 707,867 733,859 759,847 783,831 806,812 827,791 844,767 859,742 870,716 876,690 878,663 877,653 876,643 873,633 869,623 954,623 953,748 953,854 952,934 952,979 940,980 925,981 906,981 885,982 860,983 833,984 803,985 771,985 738,986 702,987 666,988 628,988 589,989 550,990 510,990 471,991 431,991 392,992 353,992 316,992 279,992 244,992 210,992 179,992 149,992 122,991 98,991 76,990 58,989 43,988 31,987 24,986 23,895 22,804 19,714 16,623 71,623 71,624 71,625 71,625 71,626"/>
</g>
</svg>
