<?xml version="1.0" encoding="UTF-8" standalone="no"?>
<!DOCTYPE svg PUBLIC "-//W3C//DTD SVG 1.0//EN" "http://www.w3.org/TR/2001/REC-SVG-20010904/DTD/svg10.dtd">
<svg xmlns="http://www.w3.org/2000/svg" xmlns:xlink="http://www.w3.org/1999/xlink" fill-rule="evenodd" height="0.56in" preserveAspectRatio="none" stroke-linecap="round" viewBox="0 0 551 560" width="0.551in">
<style type="text/css">
.brush0 { fill: rgb(255,255,255); }
.pen0 { stroke: rgb(0,0,0); stroke-width: 1; stroke-linejoin: round; }
.brush1 { fill: none; }
.pen1 { stroke: none; }
.brush2 { fill: rgb(0,0,0); }
</style>
<g>
<polygon class="pen1 brush2" points="0,1 76,78 134,138 208,212 332,339 407,414 462,470 551,560 0,560 0,1 0,1"/>
<polygon class="pen1 brush0" points="332,339 326,345 319,351 312,356 305,360 296,363 288,365 279,367 269,367 251,365 234,360 219,352 205,341 194,327 186,312 181,295 179,277 181,258 186,241 195,226 208,212 134,138 121,152 109,167 99,183 91,200 85,219 80,237 77,257 76,277 77,297 80,316 85,334 91,352 99,369 109,385 120,400 132,413 146,425 161,436 177,446 194,454 211,460 230,465 249,468 269,469 288,468 308,465 326,461 344,455 362,447 378,437 393,426 407,414 332,339"/>
<polygon class="pen1 brush2" points="76,78 134,138 208,212 332,339 407,414 462,470 490,441 434,380 442,365 449,350 455,334 459,317 542,317 542,235 460,235 456,217 450,200 442,184 433,169 491,110 433,52 375,111 367,106 360,102 352,98 344,94 335,91 327,88 319,86 310,84 310,0 228,0 228,86 219,88 210,90 202,93 194,96 186,100 178,104 170,108 163,113 103,51 76,78"/>
</g>
</svg>
