<?xml version="1.0" encoding="UTF-8" standalone="no"?>
<!DOCTYPE svg PUBLIC "-//W3C//DTD SVG 1.0//EN" "http://www.w3.org/TR/2001/REC-SVG-20010904/DTD/svg10.dtd">
<svg xmlns="http://www.w3.org/2000/svg" xmlns:xlink="http://www.w3.org/1999/xlink" fill-rule="evenodd" height="1.001in" preserveAspectRatio="none" stroke-linecap="round" viewBox="0 0 699 1001" width="0.699in">
<style type="text/css">
.brush0 { fill: rgb(255,255,255); }
.pen0 { stroke: rgb(0,0,0); stroke-width: 1; stroke-linejoin: round; }
.brush1 { fill: none; }
.pen1 { stroke: none; }
.brush2 { fill: rgb(0,0,0); }
</style>
<g>
<polygon class="pen1 brush2" points="487,1001 457,986 427,972 397,959 367,946 337,934 307,922 276,911 246,900 215,891 185,881 154,873 123,865 93,858 62,852 31,846 0,841 17,832 34,824 52,817 71,811 89,806 108,801 128,798 147,795 167,793 186,791 206,790 226,789 246,789 265,789 285,789 304,790 304,774 293,748 273,716 251,679 229,640 213,600 207,561 216,527 243,532 267,540 289,549 307,560 324,573 338,586 350,601 360,616 369,631 376,647 383,663 388,679 392,694 396,708 399,722 402,734 483,473 507,520 528,584 543,659 552,740 552,821 543,895 521,957 487,1001 487,1001"/>
<polygon class="pen1 brush2" points="470,402 446,401 424,397 404,391 386,383 370,373 356,360 344,347 333,331 324,315 317,298 312,279 309,260 307,240 307,220 308,200 311,180 317,153 326,127 338,102 353,79 369,58 388,40 410,25 433,14 448,9 463,6 479,5 496,5 513,7 531,11 549,16 568,24 596,39 620,56 641,74 658,94 671,115 681,137 688,160 692,182 692,212 688,242 680,271 668,297 652,322 633,344 610,362 585,376 573,378 560,381 546,383 531,386 516,389 500,393 485,397 470,402"/>
</g>
</svg>
