<?xml version="1.0" encoding="UTF-8" standalone="no"?>
<!DOCTYPE svg PUBLIC "-//W3C//DTD SVG 1.0//EN" "http://www.w3.org/TR/2001/REC-SVG-20010904/DTD/svg10.dtd">
<svg xmlns="http://www.w3.org/2000/svg" xmlns:xlink="http://www.w3.org/1999/xlink" fill-rule="evenodd" height="0.693in" preserveAspectRatio="none" stroke-linecap="round" viewBox="0 0 461 693" width="0.461in">
<style type="text/css">
.brush0 { fill: rgb(255,255,255); }
.pen0 { stroke: rgb(0,0,0); stroke-width: 1; stroke-linejoin: round; }
.brush1 { fill: none; }
.pen1 { stroke: none; }
.brush2 { fill: rgb(0,0,0); }
</style>
<g>
<polygon class="pen1 brush2" points="231,0 237,23 243,46 249,67 255,86 261,105 268,122 274,138 281,153 289,167 297,182 307,197 317,212 328,228 341,244 354,260 368,276 385,294 403,315 418,337 431,358 442,379 450,401 456,422 460,443 461,464 460,487 457,510 451,531 444,552 434,572 423,591 409,609 393,626 384,634 375,642 366,649 357,655 348,661 338,667 328,672 318,676 308,680 297,684 287,687 276,689 265,691 254,692 243,693 231,693 219,693 207,692 196,691 185,689 174,687 163,684 153,680 142,676 132,672 122,667 113,661 103,655 94,649 85,642 77,634 68,626 52,609 38,591 26,572 17,552 9,531 4,510 1,487 0,464 1,443 5,422 11,401 19,379 30,358 43,337 58,315 76,294 93,276 107,260 120,244 133,228 144,212 154,197 164,182 172,167 180,153 187,138 194,122 201,105 207,86 213,67 219,46 225,23 231,0"/>
<polygon class="pen1 brush0" points="394,616 387,616 380,614 374,611 369,606 364,602 359,598 353,595 345,593 337,593 328,595 317,599 306,605 300,609 294,611 288,613 282,613 277,613 271,612 266,609 261,606 252,600 244,596 235,594 227,593 219,594 211,596 204,600 198,606 191,611 184,614 178,616 173,616 167,615 162,613 157,610 154,607 152,604 149,602 146,599 142,597 138,596 133,594 129,594 124,593 119,593 114,593 109,594 105,596 100,598 96,600 93,603 89,606 83,612 77,617 71,619 66,620 65,620 64,620 63,620 62,619 64,621 65,622 67,624 68,626 70,627 71,629 73,630 74,632 81,629 87,626 94,621 100,614 106,609 112,606 119,605 124,605 130,606 135,608 140,611 143,614 148,619 155,624 163,627 172,628 177,628 182,628 187,627 192,625 196,623 201,621 204,618 208,614 214,609 220,606 226,605 232,606 238,607 243,610 249,612 253,615 260,620 267,623 275,625 282,626 290,625 298,623 306,620 314,616 323,611 331,608 337,606 343,606 348,607 353,609 356,612 359,615 362,618 366,620 369,623 373,624 377,626 381,627 386,628 390,628 391,628 392,627 392,627 393,626 396,623 399,620 402,617 404,614 402,615 399,615 396,616 394,616"/>
<polygon class="pen1 brush0" points="406,562 400,558 393,554 385,551 376,549 365,549 354,551 341,555 327,561 319,564 311,567 304,568 297,569 290,568 283,567 276,565 270,561 259,555 248,551 237,549 227,548 217,549 207,552 198,556 190,562 186,565 182,567 178,569 174,570 170,571 166,571 163,571 160,571 152,570 145,568 140,566 136,563 133,560 130,557 125,555 121,553 116,551 110,550 104,549 98,548 92,548 86,549 80,550 74,552 68,554 63,556 58,559 54,562 48,567 42,571 35,574 29,575 31,578 32,581 34,584 36,587 40,586 44,585 48,583 52,581 56,579 60,576 64,573 68,570 75,565 83,562 91,561 97,561 105,562 112,563 118,566 122,569 125,572 128,575 132,577 137,579 142,581 147,582 152,583 158,584 165,584 171,584 177,583 183,581 189,579 194,577 199,574 203,570 210,565 218,562 226,561 234,561 241,563 248,565 254,568 259,571 268,576 277,579 287,581 296,581 306,581 316,579 326,576 336,571 347,566 357,563 366,562 373,562 379,563 385,565 389,567 393,570 397,573 400,575 404,577 409,579 413,581 417,582 422,583 427,584 429,581 431,578 432,575 434,572 426,571 419,569 412,566 406,562"/>
<polygon class="pen1 brush0" points="436,523 432,523 428,523 424,522 420,521 416,520 413,518 409,515 406,513 400,509 393,505 385,503 376,501 365,501 354,502 341,506 327,512 319,516 311,518 304,520 297,520 290,520 283,519 276,516 270,513 259,507 248,503 237,501 227,500 217,501 207,503 198,507 190,513 186,516 182,518 178,520 174,521 170,522 166,523 163,523 160,523 152,522 145,520 140,517 136,514 133,511 130,509 125,506 121,504 116,503 110,501 104,501 98,500 92,500 86,500 80,501 74,503 68,505 63,507 58,510 54,514 47,520 39,524 32,526 25,527 19,526 14,525 10,522 6,520 7,524 9,528 10,533 11,537 14,538 17,538 20,539 24,539 30,539 35,538 41,537 46,535 52,533 57,529 63,526 68,521 75,516 83,513 91,512 97,512 105,513 112,515 118,518 122,521 125,524 128,526 132,529 137,531 142,532 147,534 152,534 158,535 165,535 171,535 177,534 183,532 189,530 194,528 199,525 203,522 210,517 218,514 226,513 234,513 241,514 248,517 254,519 259,522 268,527 277,530 287,532 296,533 306,532 316,530 326,527 336,523 347,518 357,515 366,513 373,513 379,514 385,516 389,519 393,522 397,525 402,528 408,530 413,532 419,534 425,535 431,536 437,536 441,536 444,535 447,535 450,534 451,530 453,526 454,522 455,518 451,520 446,522 441,523 436,523"/>
</g>
</svg>
