<?xml version="1.0" encoding="UTF-8" standalone="no"?>
<!DOCTYPE svg PUBLIC "-//W3C//DTD SVG 1.0//EN" "http://www.w3.org/TR/2001/REC-SVG-20010904/DTD/svg10.dtd">
<svg xmlns="http://www.w3.org/2000/svg" xmlns:xlink="http://www.w3.org/1999/xlink" fill-rule="evenodd" height="0.848in" preserveAspectRatio="none" stroke-linecap="round" viewBox="0 0 999 848" width="0.999in">
<style type="text/css">
.brush0 { fill: rgb(255,255,255); }
.pen0 { stroke: rgb(0,0,0); stroke-width: 1; stroke-linejoin: round; }
.brush1 { fill: none; }
.pen1 { stroke: none; }
.brush2 { fill: rgb(0,0,0); }
</style>
<g>
<polygon class="pen1 brush2" points="0,842 10,821 20,796 30,766 41,733 52,696 64,656 77,615 91,571 105,526 121,479 138,433 156,387 175,341 196,297 218,254 241,213 252,195 264,177 276,160 288,143 301,127 314,112 328,98 342,85 357,73 372,61 387,51 403,41 419,33 436,25 453,19 471,14 482,12 493,10 505,8 516,8 528,7 540,7 553,8 565,9 578,11 591,14 604,17 618,20 632,25 646,30 660,35 674,41 611,62 553,87 500,114 453,143 410,174 372,207 338,240 308,275 283,310 260,345 241,379 226,413 213,445 202,476 194,505 188,532 211,502 234,471 257,441 280,412 303,383 326,355 348,329 371,303 394,278 417,255 441,233 464,213 488,195 511,179 536,165 560,153 585,144 611,137 635,133 659,131 683,131 705,133 726,136 745,140 763,144 779,149 793,154 805,159 814,163 821,167 825,169 826,170 778,183 730,199 684,217 639,236 595,258 553,282 511,307 472,334 433,363 396,393 361,425 327,458 296,493 266,528 237,565 211,603 229,593 251,576 277,555 306,530 338,501 373,470 409,438 448,404 487,372 526,340 566,311 606,285 644,262 681,244 717,232 750,227 774,228 795,232 813,238 830,247 846,258 862,270 880,284 900,297 864,295 825,299 782,309 737,323 690,341 643,362 596,386 549,411 505,438 462,465 423,492 389,518 359,542 334,565 316,584 306,599 327,587 350,573 375,559 401,545 429,530 457,514 487,499 517,483 548,468 579,452 610,437 640,423 670,409 700,396 729,384 756,373 766,369 778,366 791,363 805,361 819,359 834,358 850,359 866,360 882,363 897,368 913,374 928,382 942,393 955,405 967,420 978,437 963,438 945,441 926,444 904,449 881,454 856,460 830,466 803,473 774,481 745,490 715,499 685,508 654,518 623,528 592,538 561,549 530,559 500,570 471,581 442,592 414,603 388,614 362,624 339,635 317,645 296,654 278,664 262,673 248,681 237,689 228,696 222,703 269,698 315,691 359,681 401,669 442,655 482,640 520,625 557,609 593,594 629,579 663,566 697,554 730,545 763,538 795,534 827,534 847,536 866,541 884,548 901,556 916,566 930,577 943,589 954,602 964,614 973,626 980,638 986,648 990,658 993,665 995,671 995,674 963,673 930,673 898,674 866,675 834,677 802,680 770,683 738,687 707,691 676,696 645,701 614,706 584,712 554,718 524,725 495,731 466,738 438,745 410,752 383,759 356,766 330,773 305,780 280,786 256,793 233,799 210,805 188,811 168,817 147,822 128,827 110,831 93,835 77,838 61,841 47,843 33,844 21,844 10,844 0,842"/>
</g>
</svg>
