<?xml version="1.0" encoding="UTF-8" standalone="no"?>
<!DOCTYPE svg PUBLIC "-//W3C//DTD SVG 1.0//EN" "http://www.w3.org/TR/2001/REC-SVG-20010904/DTD/svg10.dtd">
<svg xmlns="http://www.w3.org/2000/svg" xmlns:xlink="http://www.w3.org/1999/xlink" fill-rule="evenodd" height="0.737in" preserveAspectRatio="none" stroke-linecap="round" viewBox="0 0 724 737" width="0.724in">
<style type="text/css">
.brush0 { fill: rgb(255,255,255); }
.pen0 { stroke: rgb(0,0,0); stroke-width: 1; stroke-linejoin: round; }
.brush1 { fill: none; }
.pen1 { stroke: none; }
.brush2 { fill: rgb(0,0,0); }
</style>
<g>
<polygon class="pen1 brush2" points="665,15 0,0 7,262 21,711 249,737 606,728 724,717 687,411 671,14 649,34 640,127 662,548 669,687 342,698 61,661 37,313 52,43 189,41 641,58 665,15"/>
<polygon class="pen1 brush2" points="501,326 642,239 459,262 466,30 374,228 218,36 223,270 30,200 191,426 5,455 215,515 97,659 282,565 300,726 393,561 494,708 494,465 702,504 501,326"/>
<polygon class="pen1 brush0" points="465,400 454,519 458,606 446,586 393,506 349,561 326,594 308,497 262,551 193,582 235,527 250,484 164,477 99,466 167,460 235,454 132,279 187,292 251,329 253,291 257,217 240,108 351,277 402,222 439,152 430,302 517,285 454,333 553,396 587,444 465,400"/>
<polygon class="pen1 brush2" points="416,324 403,314 390,307 378,301 368,297 359,294 352,292 348,291 346,291 340,294 323,302 301,315 277,333 256,354 242,379 238,407 250,438 267,459 284,474 302,484 320,488 336,490 351,488 364,485 373,481 381,476 389,470 396,464 404,457 410,450 415,445 418,441 419,440 420,436 424,426 428,411 431,393 433,373 432,354 426,337 416,324"/>
<polygon class="pen1 brush0" points="394,424 390,431 383,438 375,444 366,450 356,456 347,459 339,462 333,462 326,460 318,456 309,451 300,445 291,440 284,435 280,431 278,430 276,427 273,419 271,405 273,386 277,373 282,362 289,352 296,343 303,336 309,331 313,328 314,327 343,320 343,319 349,321 357,323 366,326 374,330 382,334 388,339 392,345 393,351 393,370 395,390 397,408 394,424"/>
<polygon class="pen1 brush2" points="345,342 343,343 336,346 327,351 318,357 309,365 302,374 298,384 300,395 305,405 310,413 316,420 322,424 329,425 337,424 346,420 356,413 371,395 373,378 368,363 359,352 351,346 347,343 345,342 345,342"/>
<polygon class="pen1 brush0" points="337,368 334,371 328,377 324,386 327,395 335,399 344,397 350,394 353,392 337,368"/>
</g>
</svg>
