<?xml version="1.0" encoding="UTF-8" standalone="no"?>
<!DOCTYPE svg PUBLIC "-//W3C//DTD SVG 1.0//EN" "http://www.w3.org/TR/2001/REC-SVG-20010904/DTD/svg10.dtd">
<svg xmlns="http://www.w3.org/2000/svg" xmlns:xlink="http://www.w3.org/1999/xlink" fill-rule="evenodd" height="0.552in" preserveAspectRatio="none" stroke-linecap="round" viewBox="0 0 551 552" width="0.551in">
<style type="text/css">
.brush0 { fill: rgb(255,255,255); }
.pen0 { stroke: rgb(0,0,0); stroke-width: 1; stroke-linejoin: round; }
.brush1 { fill: none; }
.pen1 { stroke: none; }
.brush2 { fill: rgb(0,0,0); }
</style>
<g>
<polygon class="pen1 brush2" points="276,552 304,551 331,546 357,540 383,530 407,519 429,505 451,489 470,471 488,451 504,430 518,407 529,383 539,358 545,331 550,304 551,276 550,248 545,220 539,194 529,169 518,145 504,122 488,101 470,81 451,63 429,47 407,33 383,22 357,12 331,6 304,1 276,0 248,1 220,6 194,12 168,22 144,33 121,47 100,63 81,81 63,101 47,122 33,145 22,169 12,194 6,220 1,248 0,276 1,304 6,331 12,358 22,383 33,407 47,430 63,451 81,471 100,489 121,505 144,519 168,530 194,540 220,546 248,551 276,552"/>
<polygon class="pen1 brush0" points="266,190 151,462 384,462 266,190"/>
<polygon class="pen1 brush0" points="411,199 358,174 356,168 354,163 352,157 349,152 368,96 313,115 308,112 303,110 297,108 291,106 266,53 240,106 234,108 229,110 223,112 218,115 163,96 182,152 179,157 177,163 175,168 173,174 120,199 173,225 177,236 182,246 187,256 195,265 202,273 211,279 221,285 231,290 247,251 239,248 233,243 226,238 221,231 217,224 214,216 212,208 211,199 212,188 215,178 220,168 227,160 235,153 244,148 255,145 266,144 277,145 287,148 296,153 304,160 311,168 316,178 319,188 320,199 319,208 317,216 314,224 310,231 305,237 299,243 293,247 285,251 302,289 312,284 321,278 329,272 337,264 344,255 350,246 354,236 358,225 411,199"/>
<polygon class="pen1 brush0" points="266,173 141,469 395,469 395,468 395,468 424,413 266,173"/>
<polygon class="pen1 brush2" points="161,455 266,207 374,455 161,455"/>
</g>
</svg>
