<?xml version="1.0" encoding="UTF-8" standalone="no"?>
<!DOCTYPE svg PUBLIC "-//W3C//DTD SVG 1.0//EN" "http://www.w3.org/TR/2001/REC-SVG-20010904/DTD/svg10.dtd">
<svg xmlns="http://www.w3.org/2000/svg" xmlns:xlink="http://www.w3.org/1999/xlink" fill-rule="evenodd" height="0.499in" preserveAspectRatio="none" stroke-linecap="round" viewBox="0 0 195 499" width="0.195in">
<style type="text/css">
.brush0 { fill: rgb(255,255,255); }
.pen0 { stroke: rgb(0,0,0); stroke-width: 1; stroke-linejoin: round; }
.brush1 { fill: none; }
.pen1 { stroke: none; }
.brush2 { fill: rgb(0,0,0); }
</style>
<g>
<polygon class="pen1 brush2" points="0,389 2,387 7,382 16,376 28,370 35,367 41,365 46,362 52,359 56,357 61,354 67,351 72,348 77,345 81,343 85,341 89,339 93,336 98,333 104,330 111,325 119,320 125,315 132,310 137,306 141,302 144,299 146,297 147,296 144,294 137,289 128,283 120,277 117,274 112,272 108,270 102,267 97,265 91,263 86,261 81,258 76,255 70,251 65,247 60,243 56,240 53,237 51,236 50,235 49,235 46,234 41,233 36,231 30,229 24,227 19,225 15,223 14,218 19,212 28,206 36,200 36,200 40,197 44,192 48,186 52,179 56,173 61,167 65,161 69,157 77,149 84,141 90,134 96,126 102,113 109,96 114,81 116,74 115,73 111,72 105,70 98,69 92,68 87,67 83,66 80,66 77,65 73,64 70,63 69,62 71,62 75,60 81,58 88,56 96,53 104,51 111,48 116,46 120,44 123,42 125,40 128,38 131,35 136,32 142,28 150,24 159,20 166,15 173,11 179,7 183,4 186,2 188,1 189,0 190,1 190,3 190,7 188,14 183,25 179,39 175,54 173,65 171,79 167,98 164,115 163,122 162,125 161,131 158,135 155,134 152,128 148,121 145,116 143,111 141,106 139,101 136,97 135,95 134,98 131,105 126,115 120,127 114,140 108,152 101,162 96,169 87,177 80,182 74,188 69,196 64,205 58,212 55,217 53,219 54,220 57,223 66,228 82,235 91,239 98,242 104,244 108,246 112,248 116,250 120,252 124,254 129,256 134,258 138,260 142,262 147,264 151,266 156,268 162,270 162,270 173,276 180,283 185,288 186,290 192,301 190,303 185,307 176,314 165,323 159,327 153,332 148,336 143,340 138,344 133,348 127,351 120,354 114,356 109,358 106,359 103,360 100,362 96,363 91,365 84,368 76,371 67,375 59,379 52,382 45,385 40,387 37,388 36,389 37,389 39,390 43,391 47,392 52,395 58,397 64,401 70,405 76,409 80,412 85,414 89,416 94,419 100,421 107,424 116,428 125,432 131,435 137,437 141,439 144,440 148,441 151,442 155,444 163,449 170,455 174,460 175,462 178,464 183,469 185,475 178,480 172,480 166,477 160,474 154,471 148,469 143,466 139,465 138,464 140,467 145,474 149,483 151,489 150,493 147,495 144,496 142,495 138,491 133,487 127,481 121,475 116,469 112,465 109,463 108,462 107,462 104,461 99,459 94,456 91,454 88,451 84,448 80,445 75,442 70,438 64,435 58,432 53,429 48,427 44,426 41,424 38,422 34,419 29,416 24,412 14,402 6,395 2,391 0,389 0,389"/>
</g>
</svg>
