<?xml version="1.0" encoding="UTF-8" standalone="no"?>
<!DOCTYPE svg PUBLIC "-//W3C//DTD SVG 1.0//EN" "http://www.w3.org/TR/2001/REC-SVG-20010904/DTD/svg10.dtd">
<svg xmlns="http://www.w3.org/2000/svg" xmlns:xlink="http://www.w3.org/1999/xlink" fill-rule="evenodd" height="0.456in" preserveAspectRatio="none" stroke-linecap="round" viewBox="0 0 496 456" width="0.496in">
<style type="text/css">
.brush0 { fill: rgb(255,255,255); }
.pen0 { stroke: rgb(0,0,0); stroke-width: 1; stroke-linejoin: round; }
.brush1 { fill: none; }
.pen1 { stroke: none; }
.brush2 { fill: rgb(0,0,0); }
</style>
<g>
<polygon class="pen1 brush2" points="378,35 374,34 364,30 349,26 330,22 307,20 283,21 258,26 234,37 213,49 195,59 179,66 165,70 151,71 136,69 119,64 99,56 159,456 161,455 166,454 174,450 186,445 200,438 217,428 236,416 257,401 279,388 302,380 326,376 349,374 369,376 386,378 398,380 404,381 402,369 398,338 393,292 387,236 381,178 377,121 376,72 378,35"/>
<polygon class="pen1 brush2" points="108,120 107,120 106,120 105,120 104,120 83,123 63,131 46,144 30,162 18,183 8,207 2,234 0,263 2,291 8,318 18,342 30,363 46,380 63,393 83,401 104,404 110,404 116,403 122,402 128,400 133,398 139,396 144,393 149,389 108,120"/>
<polygon class="pen1 brush0" points="149,389 162,379 173,367 183,354 191,338 198,321 203,303 206,284 207,263 205,235 199,209 190,185 178,164 163,147 147,133 128,124 108,120 149,389"/>
<polygon class="pen1 brush0" points="376,69 372,68 369,68 365,67 361,67 340,64 313,63 288,68 266,76 246,86 230,97 218,107 210,114 206,118 221,156 228,150 231,148 238,143 248,135 262,127 278,119 296,112 315,109 334,109 354,112 360,113 366,113 371,114 376,115 376,69"/>
<polygon class="pen1 brush2" points="376,115 389,116 401,117 411,116 421,114 431,112 441,107 450,101 460,93 460,26 451,41 442,53 433,61 423,67 413,70 402,71 390,70 376,69 376,115"/>
<polygon class="pen1 brush0" points="380,165 380,165 380,165 379,165 379,165 358,162 331,161 306,166 284,174 265,184 248,195 236,205 228,213 225,216 239,254 246,248 249,246 256,241 266,233 280,225 296,217 314,210 333,207 352,207 372,210 375,210 378,210 381,211 384,211 380,165"/>
<polygon class="pen1 brush2" points="384,211 399,213 412,214 425,214 436,213 447,210 457,206 467,200 478,191 478,125 468,141 458,153 448,161 437,166 425,169 412,169 397,167 380,165 384,211"/>
<polygon class="pen1 brush0" points="389,262 376,260 349,259 324,264 301,272 282,282 266,293 254,303 246,311 243,314 257,351 265,345 267,343 274,338 284,330 298,322 313,315 331,308 350,305 370,305 391,308 392,308 393,308 393,308 394,308 389,262"/>
<polygon class="pen1 brush2" points="394,308 411,310 426,312 439,312 451,312 463,309 474,305 485,298 496,289 496,223 486,239 476,251 466,259 455,264 443,267 430,267 414,265 397,263 389,262 394,308"/>
</g>
</svg>
