<?xml version="1.0" encoding="UTF-8" standalone="no"?>
<!DOCTYPE svg PUBLIC "-//W3C//DTD SVG 1.0//EN" "http://www.w3.org/TR/2001/REC-SVG-20010904/DTD/svg10.dtd">
<svg xmlns="http://www.w3.org/2000/svg" xmlns:xlink="http://www.w3.org/1999/xlink" fill-rule="evenodd" height="0.81in" preserveAspectRatio="none" stroke-linecap="round" viewBox="0 0 809 810" width="0.809in">
<style type="text/css">
.brush0 { fill: rgb(255,255,255); }
.pen0 { stroke: rgb(0,0,0); stroke-width: 1; stroke-linejoin: round; }
.brush1 { fill: none; }
.pen1 { stroke: none; }
.brush2 { fill: rgb(0,0,0); }
</style>
<g>
<polygon class="pen1 brush2" points="808,808 808,2 1,2 1,808 808,808"/>
<polygon class="pen1 brush0" points="405,729 371,727 337,722 304,713 271,702 238,687 207,670 178,651 150,629 124,605 101,579 80,551 63,522 48,492 38,460 31,428 29,395 33,363 43,333 59,304 79,276 102,249 127,224 152,199 176,176 188,165 200,154 212,145 225,135 239,127 252,119 266,112 281,106 295,100 310,95 326,91 341,87 357,85 373,83 389,81 405,81 421,81 437,83 452,85 468,87 483,91 498,95 513,100 528,106 542,112 556,119 570,127 584,135 597,145 609,154 621,165 633,176 655,200 674,225 690,253 703,281 714,311 722,342 726,373 728,405 726,437 722,469 714,499 703,529 690,557 674,584 655,610 633,634 621,645 609,656 597,665 584,675 570,683 556,691 542,698 528,704 513,710 498,715 483,719 468,723 452,725 437,727 421,729 405,729 405,810 425,809 445,808 465,806 484,802 503,798 522,792 541,786 559,779 577,771 595,762 612,752 628,742 645,730 660,718 675,705 690,691 717,661 741,629 761,595 778,560 792,523 801,484 807,445 809,405 807,364 801,324 791,285 777,248 760,212 740,179 716,148 690,119 662,93 630,69 597,49 562,32 525,18 486,8 446,2 405,0 385,0 365,2 345,4 325,8 306,12 287,17 268,24 250,31 232,39 214,48 197,57 180,68 164,79 148,92 133,105 118,119 91,149 68,181 47,214 31,250 17,287 8,325 2,365 0,405 2,445 8,484 17,523 31,560 47,595 68,629 91,661 118,691 133,705 148,718 164,730 180,742 197,752 214,762 232,771 250,779 268,786 287,792 306,798 325,802 345,806 365,808 385,809 405,810 405,729"/>
<polygon class="pen1 brush0" points="323,648 298,647 272,643 246,636 220,627 194,616 170,603 146,588 124,572 103,554 84,534 68,513 54,491 42,469 34,445 29,421 28,396 32,360 40,332 52,308 67,289 84,272 103,257 121,242 139,226 148,218 159,211 170,205 182,199 194,194 206,190 218,185 229,181 240,177 251,173 263,170 275,167 286,165 298,163 311,162 323,162 335,162 347,163 359,165 371,167 382,169 394,172 405,176 416,180 426,185 437,190 447,196 457,202 467,209 476,217 485,225 494,233 510,251 525,270 537,290 547,312 555,334 560,357 564,381 565,405 564,429 560,453 555,476 547,498 537,519 525,539 510,558 494,576 485,584 476,592 467,600 457,607 447,613 437,619 426,624 416,629 405,634 394,637 382,641 371,643 359,645 347,647 335,648 323,648 323,708 338,708 353,707 368,705 382,702 397,699 411,695 425,691 439,685 452,679 465,673 478,665 490,657 503,649 514,639 526,630 537,619 557,597 575,573 590,548 603,521 613,494 620,465 625,435 626,405 624,374 620,344 612,315 602,287 589,260 574,235 556,212 537,190 515,171 492,153 467,138 440,125 413,115 384,107 354,103 323,101 308,101 293,102 278,104 263,107 249,110 234,114 220,119 207,124 193,130 180,137 167,144 154,152 142,161 130,170 119,180 108,190 88,213 70,237 55,262 42,289 32,317 25,345 20,375 19,405 20,435 25,465 32,494 42,521 55,548 70,573 88,597 108,619 119,630 130,639 142,649 154,657 167,665 180,673 193,679 207,685 220,691 234,695 249,699 263,702 278,705 293,707 308,708 323,708 323,648"/>
<polygon class="pen1 brush0" points="232,587 213,586 195,583 178,579 161,573 145,565 130,556 116,546 103,534 91,521 80,507 71,492 63,476 57,459 53,442 50,424 49,405 50,387 53,370 57,352 63,336 71,320 80,304 91,290 103,276 116,264 131,253 146,244 162,237 179,231 196,226 214,224 232,223 250,224 268,226 285,231 302,237 318,244 333,253 347,264 361,276 373,290 384,304 393,320 400,336 406,352 411,370 413,387 414,405 413,423 411,441 406,458 400,475 393,491 384,506 373,520 361,533 347,545 333,556 318,565 302,573 285,579 268,583 250,586 232,587 232,632 243,632 255,631 266,630 277,628 288,625 298,622 309,619 319,615 329,611 339,606 349,600 358,594 367,588 376,581 385,573 393,565 408,548 421,530 433,512 442,492 449,471 455,450 458,428 459,405 458,382 454,359 449,338 441,317 432,297 420,278 407,260 393,244 377,229 359,216 340,205 321,195 300,187 278,182 255,178 232,177 221,177 209,178 198,179 187,181 176,184 166,187 155,190 145,194 135,199 125,204 115,209 106,215 97,222 88,229 79,236 71,244 56,261 42,279 31,298 21,318 14,339 8,360 5,382 4,405 5,428 8,450 14,471 21,492 31,512 42,530 56,548 71,565 79,573 88,581 97,588 106,594 115,600 125,606 135,611 145,615 155,619 166,622 176,625 187,628 198,630 209,631 221,632 232,632 232,587"/>
</g>
</svg>
