<?xml version="1.0" encoding="UTF-8" standalone="no"?>
<!DOCTYPE svg PUBLIC "-//W3C//DTD SVG 1.0//EN" "http://www.w3.org/TR/2001/REC-SVG-20010904/DTD/svg10.dtd">
<svg xmlns="http://www.w3.org/2000/svg" xmlns:xlink="http://www.w3.org/1999/xlink" fill-rule="evenodd" height="0.989in" preserveAspectRatio="none" stroke-linecap="round" viewBox="0 0 988 989" width="0.988in">
<style type="text/css">
.brush0 { fill: rgb(255,255,255); }
.pen0 { stroke: rgb(0,0,0); stroke-width: 1; stroke-linejoin: round; }
.brush1 { fill: none; }
.pen1 { stroke: none; }
.brush2 { fill: rgb(0,0,0); }
</style>
<g>
<polygon class="pen1 brush2" points="487,575 500,575 510,596 522,621 536,649 552,681 567,714 581,749 594,784 604,818 610,852 613,884 610,913 601,938 586,959 562,975 530,985 489,989 448,985 417,975 394,958 380,936 372,910 370,880 374,847 381,813 392,778 405,742 420,708 436,675 451,644 466,617 478,593 487,575 487,575"/>
<polygon class="pen1 brush2" points="428,541 443,557 422,586 401,613 382,639 364,662 347,684 331,704 317,721 303,737 291,752 279,764 269,774 260,783 252,789 245,794 240,797 235,798 210,795 196,788 191,776 194,760 204,741 220,721 240,698 264,675 289,652 316,629 342,607 367,587 390,570 408,556 421,546 428,541 428,541 428,541"/>
<polygon class="pen1 brush2" points="544,557 559,541 569,549 583,559 601,571 621,586 643,602 666,619 689,637 711,655 733,674 752,693 768,711 781,728 789,745 793,760 790,774 781,785 768,791 753,791 737,785 720,775 702,760 683,742 664,722 645,699 627,676 610,653 594,631 579,610 567,591 556,576 549,564 544,557 544,557 544,557"/>
<polygon class="pen1 brush2" points="416,494 415,508 394,518 369,530 340,544 309,560 275,575 241,589 206,602 171,612 137,618 105,621 77,618 51,609 30,594 14,570 4,538 0,497 4,456 15,424 32,402 54,387 81,379 111,378 144,381 178,389 214,400 249,414 284,429 317,444 348,459 375,473 397,485 415,494 416,494 416,494"/>
<polygon class="pen1 brush2" points="572,508 572,494 592,484 616,472 645,457 676,442 709,427 744,412 779,399 815,389 849,381 881,379 910,381 936,389 957,403 974,426 984,457 988,497 984,539 974,571 957,594 936,610 910,618 880,621 848,618 814,611 779,601 743,588 708,574 675,559 644,544 616,530 592,517 572,508 572,508 572,508"/>
<polygon class="pen1 brush2" points="446,433 431,450 420,442 406,431 388,418 368,404 347,389 325,372 302,355 281,337 260,318 241,300 224,282 211,265 202,248 198,233 198,219 205,206 217,197 231,196 248,201 265,211 284,226 304,245 324,266 344,289 363,314 381,338 398,361 413,383 425,401 435,417 442,428 446,433 446,433 446,433"/>
<polygon class="pen1 brush2" points="556,450 543,433 547,427 554,415 564,400 577,381 591,360 608,337 625,313 644,290 662,267 682,247 701,228 719,213 737,203 753,197 767,197 780,204 788,216 790,229 786,245 777,261 765,279 748,297 729,315 708,334 686,353 663,370 640,388 619,404 599,418 581,431 567,442 556,450 556,450"/>
<polygon class="pen1 brush2" points="500,415 487,415 477,395 465,371 450,343 435,311 419,278 405,243 392,208 381,173 374,139 371,107 373,78 381,52 396,30 418,14 449,4 489,0 531,4 563,14 586,31 602,52 611,78 613,108 611,140 604,174 593,209 580,245 566,279 551,313 536,344 522,372 509,396 500,415 500,415 500,415"/>
</g>
</svg>
