<?xml version="1.0" encoding="UTF-8" standalone="no"?>
<!DOCTYPE svg PUBLIC "-//W3C//DTD SVG 1.0//EN" "http://www.w3.org/TR/2001/REC-SVG-20010904/DTD/svg10.dtd">
<svg xmlns="http://www.w3.org/2000/svg" xmlns:xlink="http://www.w3.org/1999/xlink" fill-rule="evenodd" height="0.994in" preserveAspectRatio="none" stroke-linecap="round" viewBox="0 0 622 994" width="0.622in">
<style type="text/css">
.brush0 { fill: rgb(255,255,255); }
.pen0 { stroke: rgb(0,0,0); stroke-width: 1; stroke-linejoin: round; }
.brush1 { fill: none; }
.pen1 { stroke: none; }
.brush2 { fill: rgb(0,0,0); }
</style>
<g>
<polygon class="pen1 brush2" points="12,987 6,742 3,496 2,250 0,3 126,5 114,21 101,37 88,53 75,70 64,87 55,106 49,125 48,146 56,177 73,206 96,234 121,261 143,289 161,318 170,350 166,386 159,402 148,416 135,430 121,444 107,458 95,472 85,487 79,504 78,524 81,542 87,558 96,574 107,589 119,603 132,616 146,629 159,642 171,654 182,667 191,680 196,694 199,709 197,724 191,741 177,766 159,793 141,821 126,851 114,882 110,915 115,949 132,984 129,984 119,983 105,983 87,983 68,983 48,984 29,985 12,987 12,987"/>
<polygon class="pen1 brush2" points="224,987 251,987 273,988 291,989 305,989 315,990 322,990 326,988 329,986 368,907 392,844 401,793 400,753 391,720 376,692 359,667 341,642 319,602 305,568 299,539 299,513 304,490 312,469 322,450 333,431 343,412 351,391 356,369 356,344 351,315 338,282 316,244 285,200 271,173 269,149 275,125 287,102 300,78 312,54 319,28 318,0 210,3 197,18 184,33 172,48 161,62 150,77 142,92 135,108 130,125 130,144 134,161 143,178 155,193 168,208 182,222 197,236 210,250 225,270 233,290 237,310 236,331 231,353 224,374 215,395 204,415 194,435 184,454 175,473 169,490 165,506 165,521 170,534 180,545 228,597 255,653 265,710 261,765 248,818 230,863 210,900 193,926 200,938 205,950 211,960 215,969 219,976 222,982 223,985 224,987 224,987"/>
<polygon class="pen1 brush2" points="420,987 422,946 435,909 455,874 478,841 500,809 516,777 524,744 520,709 508,687 491,666 470,646 449,627 429,606 413,584 404,559 404,530 413,505 428,481 446,458 466,435 482,411 493,386 496,359 488,329 475,306 458,285 439,264 420,242 401,221 385,198 373,173 366,146 369,125 381,105 399,87 419,69 439,53 456,36 466,20 466,3 613,0 610,227 608,487 611,750 622,984 420,987"/>
</g>
</svg>
