<?xml version="1.0" encoding="UTF-8" standalone="no"?>
<!DOCTYPE svg PUBLIC "-//W3C//DTD SVG 1.0//EN" "http://www.w3.org/TR/2001/REC-SVG-20010904/DTD/svg10.dtd">
<svg xmlns="http://www.w3.org/2000/svg" xmlns:xlink="http://www.w3.org/1999/xlink" fill-rule="evenodd" height="0.458in" preserveAspectRatio="none" stroke-linecap="round" viewBox="0 0 935 458" width="0.935in">
<style type="text/css">
.brush0 { fill: rgb(255,255,255); }
.pen0 { stroke: rgb(0,0,0); stroke-width: 1; stroke-linejoin: round; }
.brush1 { fill: none; }
.pen1 { stroke: none; }
.brush2 { fill: rgb(0,0,0); }
</style>
<g>
<polygon class="pen1 brush2" points="930,458 930,0 3,0 3,458 930,458"/>
<polygon class="pen1 brush0" points="169,125 159,124 150,121 141,117 134,111 128,103 123,95 120,86 119,76 120,66 123,56 128,48 134,40 141,34 150,30 159,27 169,26 179,27 189,30 197,34 205,40 211,48 215,56 218,66 219,76 218,86 215,95 211,103 205,111 197,117 189,121 179,124 169,125"/>
<polygon class="pen1 brush0" points="187,148 187,187 194,187 211,186 235,181 262,171 288,154 309,128 322,91 323,41 323,46 323,59 319,78 311,99 296,119 271,136 236,147 187,148"/>
<polygon class="pen1 brush0" points="154,148 154,187 147,187 130,186 106,181 79,171 53,154 32,128 19,91 18,41 18,46 18,59 22,78 30,99 45,119 70,136 105,147 154,148"/>
<polygon class="pen1 brush0" points="194,183 189,187 177,198 161,215 141,236 122,260 106,287 95,314 91,341 97,359 110,377 130,395 152,412 175,426 194,438 208,445 213,448 209,445 200,436 186,423 171,407 155,387 141,366 132,344 128,322 131,304 138,282 149,259 161,236 173,216 184,199 191,187 194,183"/>
<polygon class="pen1 brush0" points="147,183 152,187 163,198 180,215 199,236 218,260 235,287 246,314 250,341 244,359 230,377 211,395 188,412 166,426 147,438 133,445 128,448 132,445 141,436 155,423 171,407 186,387 200,366 209,344 213,322 210,304 203,282 192,259 180,236 168,216 157,199 150,187 147,183"/>
<polygon class="pen1 brush0" points="465,125 455,124 446,121 437,117 430,111 424,103 419,95 416,86 415,76 416,66 419,56 424,48 430,40 437,34 446,30 455,27 465,26 475,27 484,30 493,34 500,40 506,48 510,56 513,66 514,76 513,86 510,95 506,103 500,111 493,117 484,121 475,124 465,125"/>
<polygon class="pen1 brush0" points="483,148 483,187 490,187 507,186 530,181 557,171 583,154 605,128 617,91 618,41 618,46 618,59 615,78 606,99 591,119 567,136 532,147 483,148"/>
<polygon class="pen1 brush0" points="450,148 450,187 443,187 426,186 402,181 375,171 349,154 328,128 315,91 315,41 315,46 315,59 318,78 327,99 342,119 366,136 401,147 450,148"/>
<polygon class="pen1 brush0" points="490,183 485,187 474,198 457,215 438,236 419,260 402,287 391,314 387,341 393,359 407,377 426,395 449,412 471,426 490,438 504,445 509,448 505,445 496,436 482,423 467,407 451,387 437,366 428,344 424,322 427,304 434,282 445,259 457,236 469,216 480,199 487,187 490,183"/>
<polygon class="pen1 brush0" points="443,183 447,187 459,198 476,215 495,236 514,260 530,287 541,314 545,341 539,359 525,377 506,395 484,412 462,426 443,438 429,445 424,448 428,445 437,436 451,423 467,407 482,387 496,366 505,344 509,322 506,304 499,282 488,259 476,236 464,216 453,199 446,187 443,183"/>
<polygon class="pen1 brush0" points="763,125 753,124 743,121 735,117 728,111 721,103 717,95 714,86 713,76 714,66 717,56 721,48 728,40 735,34 743,30 753,27 763,26 773,27 782,30 791,34 798,40 804,48 809,56 812,66 813,76 812,86 809,95 804,103 798,111 791,117 782,121 773,124 763,125"/>
<polygon class="pen1 brush0" points="781,148 781,187 788,187 805,186 829,181 856,171 882,154 903,128 916,91 916,41 916,46 916,59 913,78 904,99 889,119 865,136 830,147 781,148"/>
<polygon class="pen1 brush0" points="747,148 747,187 740,187 723,186 700,181 673,171 647,154 626,128 613,91 612,41 612,46 612,59 615,78 624,99 639,119 663,136 698,147 747,148"/>
<polygon class="pen1 brush0" points="787,183 782,187 771,198 754,215 735,236 716,260 699,287 688,314 684,341 690,359 704,377 724,395 746,412 769,426 788,438 802,445 807,448 803,445 794,436 780,423 764,407 748,387 734,366 725,344 721,322 724,304 731,282 742,259 754,236 766,216 777,199 784,187 787,183"/>
<polygon class="pen1 brush0" points="741,183 746,187 757,198 774,215 793,236 812,260 828,287 839,314 843,341 837,359 824,377 804,395 782,412 759,426 740,438 726,445 721,448 725,445 734,436 748,423 764,407 780,387 794,366 803,344 807,322 804,304 797,282 786,259 774,236 762,216 751,199 744,187 741,183"/>
</g>
</svg>
