<?xml version="1.0" encoding="UTF-8" standalone="no"?>
<!DOCTYPE svg PUBLIC "-//W3C//DTD SVG 1.0//EN" "http://www.w3.org/TR/2001/REC-SVG-20010904/DTD/svg10.dtd">
<svg xmlns="http://www.w3.org/2000/svg" xmlns:xlink="http://www.w3.org/1999/xlink" fill-rule="evenodd" height="0.842in" preserveAspectRatio="none" stroke-linecap="round" viewBox="0 0 674 842" width="0.674in">
<style type="text/css">
.brush0 { fill: rgb(255,255,255); }
.pen0 { stroke: rgb(0,0,0); stroke-width: 1; stroke-linejoin: round; }
.brush1 { fill: none; }
.pen1 { stroke: none; }
.brush2 { fill: rgb(0,0,0); }
</style>
<g>
<polygon class="pen1 brush2" points="177,0 208,3 236,12 262,26 285,44 303,67 317,93 326,121 329,152 326,183 317,211 303,237 285,259 262,278 236,292 208,301 177,304 146,301 117,292 91,278 69,259 50,237 36,211 27,183 24,152 27,121 36,93 50,67 69,44 91,26 117,12 146,3 177,0"/>
<polygon class="pen1 brush0" points="177,87 164,88 152,92 141,98 131,106 123,116 117,127 113,139 112,152 113,165 117,177 123,188 131,198 141,206 152,212 164,216 177,217 190,216 202,212 213,206 223,198 231,188 237,177 241,165 242,152 241,139 237,127 231,116 223,106 213,98 202,92 190,88 177,87"/>
<polygon class="pen1 brush2" points="195,842 195,251 173,251 173,842 195,842"/>
<polygon class="pen1 brush2" points="217,842 195,251 173,251 151,842 217,842"/>
<polygon class="pen1 brush2" points="84,842 167,303 145,300 0,842 84,842"/>
<polygon class="pen1 brush2" points="369,842 217,300 195,303 283,842 369,842"/>
<polygon class="pen1 brush0" points="179,99 160,102 143,109 127,120 113,131 102,143 93,154 88,161 86,164 88,167 93,174 102,185 113,196 127,208 143,219 160,226 179,229 198,226 216,219 232,208 246,196 257,185 266,174 271,167 273,164 271,161 266,154 257,143 246,131 232,120 216,109 198,102 179,99"/>
<polygon class="pen1 brush0" points="86,132 88,129 93,122 102,112 113,100 127,88 143,78 160,71 179,68 198,71 216,78 232,88 246,100 257,112 266,122 271,129 273,132 273,143 271,140 266,133 257,122 246,110 232,99 216,88 198,81 179,78 160,81 143,88 127,99 113,110 102,122 93,133 88,140 86,143 86,132"/>
<polygon class="pen1 brush2" points="177,190 171,189 166,188 160,185 156,181 152,177 149,171 148,166 147,160 148,154 149,148 152,143 156,138 160,134 166,131 171,130 177,129 183,130 189,131 194,134 199,138 203,143 206,148 207,154 208,160 207,166 206,171 203,177 199,181 194,185 189,188 183,189 177,190"/>
<polygon class="pen1 brush2" points="176,154 674,35 674,324 176,154"/>
<polygon class="pen1 brush0" points="179,155 674,213 674,121 178,155 179,155"/>
</g>
</svg>
