<?xml version="1.0" encoding="UTF-8" standalone="no"?>
<!DOCTYPE svg PUBLIC "-//W3C//DTD SVG 1.0//EN" "http://www.w3.org/TR/2001/REC-SVG-20010904/DTD/svg10.dtd">
<svg xmlns="http://www.w3.org/2000/svg" xmlns:xlink="http://www.w3.org/1999/xlink" fill-rule="evenodd" height="0.639in" preserveAspectRatio="none" stroke-linecap="round" viewBox="0 0 666 639" width="0.666in">
<style type="text/css">
.brush0 { fill: rgb(255,255,255); }
.pen0 { stroke: rgb(0,0,0); stroke-width: 1; stroke-linejoin: round; }
.brush1 { fill: none; }
.pen1 { stroke: none; }
.brush2 { fill: rgb(0,0,0); }
</style>
<g>
<polygon class="pen1 brush2" points="0,0 1,608 291,639 486,627 666,628 652,389 662,6 0,0"/>
<polygon class="pen1 brush0" points="475,466 465,471 455,477 443,483 431,488 419,494 406,500 393,505 380,510 367,514 355,518 343,520 331,522 320,523 310,522 302,520 294,517 282,511 268,505 253,498 237,492 221,486 205,480 192,474 180,468 253,438 66,398 98,470 143,589 156,536 154,492 168,502 184,513 201,525 220,537 237,549 254,558 268,566 279,570 286,571 296,572 307,571 319,570 333,568 347,565 363,561 378,557 394,553 410,548 425,543 440,538 454,533 467,527 478,522 488,517 506,502 524,480 541,453 558,422 572,389 586,357 597,328 606,303 601,292 598,298 588,315 574,340 556,368 536,399 515,427 494,450 475,466"/>
<polygon class="pen1 brush0" points="485,64 492,106 478,98 461,89 443,79 425,70 407,61 390,54 376,48 365,45 358,45 349,45 338,47 326,50 313,54 300,58 285,63 271,69 256,75 242,81 227,88 214,95 201,102 189,108 179,115 170,121 154,137 138,161 124,190 111,222 99,255 89,288 80,318 74,343 86,352 88,346 95,329 104,306 117,277 131,248 147,220 164,196 180,179 189,173 199,166 209,158 221,151 233,143 245,135 258,128 270,121 283,114 295,109 307,104 319,100 329,98 339,97 348,98 356,100 368,105 381,109 397,113 413,117 429,120 444,124 458,128 469,132 395,173 585,188 547,121 492,11 485,64"/>
</g>
</svg>
