<?xml version="1.0" encoding="UTF-8" standalone="no"?>
<!DOCTYPE svg PUBLIC "-//W3C//DTD SVG 1.0//EN" "http://www.w3.org/TR/2001/REC-SVG-20010904/DTD/svg10.dtd">
<svg xmlns="http://www.w3.org/2000/svg" xmlns:xlink="http://www.w3.org/1999/xlink" fill-rule="evenodd" height="1.0in" preserveAspectRatio="none" stroke-linecap="round" viewBox="0 0 997 1000" width="0.997in">
<style type="text/css">
.brush0 { fill: rgb(255,255,255); }
.pen0 { stroke: rgb(0,0,0); stroke-width: 1; stroke-linejoin: round; }
.brush1 { fill: none; }
.pen1 { stroke: none; }
.brush2 { fill: rgb(0,0,0); }
</style>
<g>
<polygon class="pen1 brush2" points="599,946 602,930 611,912 625,894 640,875 654,857 663,841 665,826 658,815 656,816 651,818 644,822 634,827 623,832 609,839 595,845 579,852 561,858 544,864 526,869 508,873 489,875 472,876 455,875 439,872 430,869 422,866 413,862 405,857 398,851 393,844 388,835 386,825 387,819 390,815 397,813 407,813 419,814 433,815 448,818 465,820 483,823 500,826 518,828 536,830 553,830 569,829 583,827 596,822 599,820 602,817 603,814 602,811 599,807 593,802 582,798 568,794 564,793 554,789 539,784 520,777 497,768 470,758 441,747 410,734 377,721 344,706 310,691 276,676 244,660 212,644 183,628 156,612 140,602 126,592 113,582 102,572 93,563 87,554 82,545 81,537 83,531 87,527 93,524 101,521 108,518 115,516 120,512 123,508 126,489 124,473 123,461 129,453 135,452 143,454 153,459 165,467 178,477 192,489 207,502 223,517 236,530 250,543 264,556 279,570 293,585 308,599 324,613 339,627 355,641 370,654 385,667 401,678 416,689 430,699 445,708 459,716 473,722 484,723 493,721 499,716 502,709 503,701 501,693 497,686 478,665 458,644 438,624 416,605 395,586 372,567 350,548 327,529 304,510 281,491 258,472 235,452 213,431 191,410 170,388 149,365 136,352 121,341 106,332 90,325 75,319 60,313 46,307 34,301 27,295 20,289 15,282 11,274 8,265 7,254 7,242 10,229 12,224 16,220 20,218 27,216 34,216 42,217 50,218 59,220 71,224 83,228 95,232 106,236 116,240 124,243 131,245 136,247 149,249 156,249 159,246 159,242 157,236 154,230 153,223 155,216 166,208 182,214 205,232 232,260 263,298 298,342 335,391 374,444 413,498 453,551 492,602 529,649 565,690 597,724 626,748 650,760 661,761 669,760 674,756 677,750 678,744 678,737 677,731 676,726 648,670 619,615 587,563 554,513 520,465 486,420 452,376 418,335 385,297 353,260 322,226 294,194 268,165 245,138 226,113 210,91 197,66 191,46 191,29 200,17 208,12 216,10 224,10 231,12 238,17 245,23 251,31 258,40 271,62 283,90 297,120 312,149 328,177 348,199 370,215 396,220 408,217 411,208 407,195 400,179 389,162 378,145 368,129 362,115 361,103 363,93 370,83 383,75 389,73 396,74 403,77 410,82 418,88 426,97 434,107 443,119 461,146 479,179 498,216 518,255 538,298 559,342 579,387 599,432 618,477 637,520 656,560 673,598 689,631 703,660 716,683 727,700 732,705 738,709 744,712 750,714 757,714 762,712 767,707 770,699 772,676 771,649 768,620 764,589 760,559 757,529 755,501 757,477 759,467 761,458 765,450 769,443 774,437 780,432 788,429 797,427 810,430 817,440 819,456 818,476 817,493 815,511 814,530 814,549 816,568 820,585 829,599 842,611 848,613 854,610 859,605 864,597 868,588 873,579 878,571 883,565 903,551 922,543 939,542 954,545 967,553 978,565 986,579 990,595 991,610 990,626 985,642 978,658 966,672 951,684 932,693 909,700 893,701 878,700 863,699 848,698 836,700 825,704 816,714 811,729 812,742 818,753 827,762 837,770 845,779 850,788 848,798 838,811 813,825 791,824 773,811 757,794 744,776 733,764 724,762 717,777 711,803 705,828 700,852 695,875 689,896 683,916 676,934 669,950 663,962 657,972 651,980 645,987 639,992 633,996 627,997 622,997 615,992 609,982 603,967 599,946"/>
</g>
</svg>
