<?xml version="1.0" encoding="UTF-8" standalone="no"?>
<!DOCTYPE svg PUBLIC "-//W3C//DTD SVG 1.0//EN" "http://www.w3.org/TR/2001/REC-SVG-20010904/DTD/svg10.dtd">
<svg xmlns="http://www.w3.org/2000/svg" xmlns:xlink="http://www.w3.org/1999/xlink" fill-rule="evenodd" height="0.162in" preserveAspectRatio="none" stroke-linecap="round" viewBox="0 0 563 162" width="0.563in">
<style type="text/css">
.brush0 { fill: rgb(255,255,255); }
.pen0 { stroke: rgb(0,0,0); stroke-width: 1; stroke-linejoin: round; }
.brush1 { fill: none; }
.pen1 { stroke: none; }
.brush2 { fill: rgb(0,0,0); }
</style>
<g>
<polygon class="pen1 brush2" points="379,151 346,151 313,149 282,147 252,145 224,141 197,137 172,133 149,127 127,122 109,116 92,109 79,102 68,95 60,87 55,79 53,71 55,63 59,55 67,48 77,40 90,34 105,27 122,21 142,16 111,22 84,28 59,36 39,44 22,53 10,62 3,72 0,82 2,90 7,98 15,106 26,113 39,120 56,127 74,133 95,138 118,144 144,148 170,152 199,156 229,158 260,160 292,162 325,162 343,162 360,162 377,161 394,160 410,159 426,158 442,157 457,155 472,153 487,152 501,149 514,147 527,145 540,142 552,140 563,137 553,139 543,140 533,142 522,143 511,144 500,145 489,146 477,147 465,148 453,149 441,150 429,150 417,150 404,151 392,151 379,151"/>
<polygon class="pen1 brush2" points="387,118 365,118 344,117 323,115 303,113 284,110 266,107 250,104 234,100 220,95 208,91 197,85 188,80 181,74 175,68 172,62 171,56 173,47 180,39 190,31 204,23 221,16 241,10 264,5 289,0 270,1 252,3 234,5 218,8 202,11 187,14 173,18 160,22 149,26 138,30 129,35 122,40 116,45 112,51 109,56 108,62 109,68 112,74 118,80 125,86 134,91 145,97 158,101 172,106 187,110 204,113 222,116 241,119 261,121 282,123 303,124 325,124 338,124 352,123 365,123 377,122 390,121 402,120 414,118 425,117 420,117 415,117 411,117 406,117 401,118 397,118 392,118 387,118"/>
<polygon class="pen1 brush2" points="366,86 394,85 420,83 444,80 464,76 481,71 494,66 502,60 505,53 502,46 494,40 481,35 464,30 444,26 420,23 394,21 366,20 338,21 312,23 289,26 269,30 252,35 239,40 231,46 228,53 231,60 239,66 252,71 269,76 289,80 312,83 338,85 366,86"/>
</g>
</svg>
