<?xml version="1.0" encoding="UTF-8" standalone="no"?>
<!DOCTYPE svg PUBLIC "-//W3C//DTD SVG 1.0//EN" "http://www.w3.org/TR/2001/REC-SVG-20010904/DTD/svg10.dtd">
<svg xmlns="http://www.w3.org/2000/svg" xmlns:xlink="http://www.w3.org/1999/xlink" fill-rule="evenodd" height="0.837in" preserveAspectRatio="none" stroke-linecap="round" viewBox="0 0 975 837" width="0.975in">
<style type="text/css">
.brush0 { fill: rgb(255,255,255); }
.pen0 { stroke: rgb(0,0,0); stroke-width: 1; stroke-linejoin: round; }
.brush1 { fill: none; }
.pen1 { stroke: none; }
.brush2 { fill: rgb(0,0,0); }
</style>
<g>
<polygon class="pen1 brush2" points="0,344 7,327 22,327 40,327 62,327 86,327 113,327 141,327 170,327 199,326 229,325 258,324 285,322 311,320 334,318 355,315 372,311 385,307 377,286 369,266 360,246 350,226 339,206 328,187 316,168 303,149 290,130 276,111 262,93 248,75 233,56 218,38 203,20 188,2 193,2 202,1 214,2 228,2 243,3 256,3 268,3 276,3 456,273 462,210 463,145 463,79 469,12 476,9 482,7 489,6 497,5 505,6 513,7 522,9 531,12 530,45 528,78 526,111 525,144 525,177 528,211 534,245 544,280 564,265 584,251 604,236 623,221 642,205 661,189 680,173 699,156 717,139 736,121 754,103 772,84 790,65 808,45 826,24 844,3 849,7 854,10 860,12 865,13 871,14 877,15 884,16 891,17 884,25 872,38 856,55 836,75 815,98 791,122 767,147 742,173 717,199 693,224 672,247 652,267 636,285 624,299 616,309 614,313 636,317 658,320 680,322 702,322 724,322 747,322 769,320 792,318 815,316 837,314 860,311 883,308 906,306 929,304 952,302 975,300 973,348 950,352 926,356 903,361 878,366 854,371 829,375 805,380 780,385 755,389 730,393 705,396 680,399 655,401 631,402 606,403 582,402 590,422 602,446 617,473 634,502 653,533 674,566 695,599 717,632 739,665 761,697 781,727 800,756 817,781 832,804 844,823 852,837 842,825 828,808 810,785 788,758 764,728 737,696 710,663 682,628 653,595 626,563 600,533 577,507 556,485 538,468 525,457 517,453 515,497 515,542 514,588 513,635 509,681 504,728 494,773 480,817 473,772 468,727 464,681 461,635 456,588 450,541 442,494 429,446 417,452 406,459 395,466 384,475 373,485 363,495 353,505 343,516 332,527 322,538 312,548 301,559 290,569 279,578 268,586 256,594 244,595 233,597 221,599 210,602 199,604 187,605 175,606 161,604 171,589 183,575 196,560 210,546 225,531 241,516 257,502 273,487 290,472 306,457 322,442 337,427 352,411 367,396 380,380 392,364 0,344"/>
</g>
</svg>
