<?xml version="1.0" encoding="UTF-8" standalone="no"?>
<!DOCTYPE svg PUBLIC "-//W3C//DTD SVG 1.0//EN" "http://www.w3.org/TR/2001/REC-SVG-20010904/DTD/svg10.dtd">
<svg xmlns="http://www.w3.org/2000/svg" xmlns:xlink="http://www.w3.org/1999/xlink" fill-rule="evenodd" height="0.484in" preserveAspectRatio="none" stroke-linecap="round" viewBox="0 0 485 484" width="0.485in">
<style type="text/css">
.brush0 { fill: rgb(255,255,255); }
.pen0 { stroke: rgb(0,0,0); stroke-width: 1; stroke-linejoin: round; }
.brush1 { fill: none; }
.pen1 { stroke: none; }
.brush2 { fill: rgb(0,0,0); }
</style>
<g>
<polygon class="pen1 brush2" points="485,229 482,206 478,184 471,163 463,142 453,123 442,105 428,87 414,71 398,57 381,44 362,32 343,22 323,14 301,7 280,3 257,0 485,229"/>
<polyline class="pen0" fill="none" points="485,229 485,229 482,206 478,184 471,163 463,142 453,123 442,105 428,87 414,71 398,57 381,44 362,32 343,22 323,14 301,7 280,3 257,0 485,229"/>
<polygon class="pen1 brush2" points="242,0 217,1 193,5 170,11 148,19 127,29 108,41 89,55 72,70 56,87 42,106 30,125 20,146 12,168 6,191 2,215 0,239 242,0"/>
<polyline class="pen0" fill="none" points="242,0 242,0 217,1 193,5 170,11 148,19 127,29 108,41 89,55 72,70 56,87 42,106 30,125 20,146 12,168 6,191 2,215 0,239 242,0"/>
<polygon class="pen1 brush2" points="215,212 395,212 252,69 48,270 2,270 5,291 10,311 17,330 25,349 34,367 46,384 58,400 72,414 87,428 102,441 119,452 137,461 156,469 176,476 196,481 217,484 215,212"/>
<polyline class="pen0" fill="none" points="215,212 395,212 252,69 48,270 2,270 2,270 5,291 10,311 17,330 25,349 34,367 46,384 58,400 72,414 87,428 102,441 119,452 137,461 156,469 176,476 196,481 217,484 215,212"/>
<polygon class="pen1 brush2" points="291,270 291,480 310,475 328,469 346,462 363,453 379,443 394,432 408,420 421,406 433,392 445,377 454,361 463,344 470,327 476,308 481,289 484,270 291,270"/>
<polyline class="pen0" fill="none" points="291,270 291,480 291,480 310,475 328,469 346,462 363,453 379,443 394,432 408,420 421,406 433,392 445,377 454,361 463,344 470,327 476,308 481,289 484,270 291,270"/>
</g>
</svg>
