<?xml version="1.0" encoding="UTF-8" standalone="no"?>
<!DOCTYPE svg PUBLIC "-//W3C//DTD SVG 1.0//EN" "http://www.w3.org/TR/2001/REC-SVG-20010904/DTD/svg10.dtd">
<svg xmlns="http://www.w3.org/2000/svg" xmlns:xlink="http://www.w3.org/1999/xlink" fill-rule="evenodd" height="0.304in" preserveAspectRatio="none" stroke-linecap="round" viewBox="0 0 788 304" width="0.788in">
<style type="text/css">
.brush0 { fill: rgb(255,255,255); }
.pen0 { stroke: rgb(0,0,0); stroke-width: 1; stroke-linejoin: round; }
.brush1 { fill: none; }
.pen1 { stroke: none; }
.brush2 { fill: rgb(0,0,0); }
</style>
<g>
<polygon class="pen1 brush2" points="395,304 352,303 311,301 271,297 234,292 199,286 167,278 137,270 109,260 85,249 63,237 44,225 29,212 16,198 7,183 2,168 0,152 2,136 7,121 16,107 29,93 44,80 63,67 85,55 109,44 137,35 167,26 199,18 234,12 271,7 311,3 352,1 395,0 438,1 479,3 518,7 555,12 589,18 622,26 652,35 679,44 703,55 725,67 744,80 759,93 772,107 781,121 786,136 788,152 786,168 781,183 772,198 759,212 744,225 725,237 703,249 679,260 652,270 622,278 589,286 555,292 518,297 479,301 438,303 395,304"/>
<polygon class="pen1 brush0" points="392,209 378,208 366,204 354,197 344,189 336,179 329,167 325,155 324,141 325,127 329,115 336,104 344,94 354,85 366,79 378,75 392,74 405,75 418,79 429,85 439,94 447,104 453,115 457,127 458,141 457,155 453,167 447,179 439,189 429,197 418,204 405,208 392,209"/>
<polygon class="pen1 brush0" points="606,22 605,21 605,21 604,21 603,21 600,35 596,50 591,66 585,83 578,101 570,120 560,138 549,156 536,173 521,188 505,203 486,215 466,226 444,233 419,238 392,240 366,238 343,233 321,226 302,215 284,203 267,189 253,173 240,156 228,139 218,121 209,103 202,85 195,67 190,51 185,36 182,22 181,22 179,22 178,23 176,23 179,51 184,79 191,105 199,131 209,155 220,177 233,198 247,217 262,235 278,250 295,264 313,275 332,284 351,291 371,295 392,296 413,295 433,291 452,284 471,275 489,264 506,250 522,235 537,217 550,198 563,177 574,154 584,130 592,105 598,78 603,51 606,22"/>
</g>
</svg>
