<?xml version="1.0" encoding="UTF-8" standalone="no"?>
<!DOCTYPE svg PUBLIC "-//W3C//DTD SVG 1.0//EN" "http://www.w3.org/TR/2001/REC-SVG-20010904/DTD/svg10.dtd">
<svg xmlns="http://www.w3.org/2000/svg" xmlns:xlink="http://www.w3.org/1999/xlink" fill-rule="evenodd" height="0.567in" preserveAspectRatio="none" stroke-linecap="round" viewBox="0 0 567 567" width="0.567in">
<style type="text/css">
.brush0 { fill: rgb(255,255,255); }
.pen0 { stroke: rgb(0,0,0); stroke-width: 1; stroke-linejoin: round; }
.brush1 { fill: none; }
.pen1 { stroke: none; }
.brush2 { fill: rgb(0,0,0); }
</style>
<g>
<polygon class="pen1 brush2" points="502,476 493,454 484,432 475,410 465,388 455,367 444,346 433,325 422,304 411,284 399,264 387,244 375,225 362,206 350,188 337,170 324,152 338,135 351,120 365,104 378,90 392,76 405,63 419,51 432,39 457,56 479,75 500,96 519,119 535,144 548,171 559,199 567,229 567,0 328,0 333,1 338,2 343,3 347,4 352,5 357,6 361,8 366,9 356,19 345,30 335,41 325,52 314,63 304,75 293,87 283,100 272,87 262,75 251,63 241,52 230,41 219,30 209,19 198,9 203,8 208,6 212,5 217,4 222,3 226,2 231,1 236,0 0,0 0,219 8,191 19,164 33,139 48,115 66,93 86,73 108,55 132,39 145,51 159,63 172,76 186,90 199,104 213,120 227,135 241,152 228,170 215,188 203,206 190,225 178,244 166,264 154,284 143,304 131,325 120,346 110,367 99,388 89,410 80,432 71,454 62,476 51,463 42,449 33,435 24,420 17,405 10,389 5,373 0,357 0,567 206,567 193,563 181,559 169,554 157,549 146,543 135,537 124,530 113,523 121,500 130,478 139,456 148,435 158,414 168,393 178,372 189,352 200,332 211,313 223,294 235,275 246,257 258,239 271,222 283,205 295,222 307,239 319,257 330,275 342,294 353,313 364,332 375,352 386,372 396,393 406,414 416,435 425,456 434,478 443,500 451,523 441,530 430,537 419,543 407,549 395,554 384,559 371,563 359,567 567,567 567,347 563,365 557,382 550,399 543,416 534,432 524,447 514,462 502,476"/>
</g>
</svg>
