<?xml version="1.0" encoding="UTF-8" standalone="no"?>
<!DOCTYPE svg PUBLIC "-//W3C//DTD SVG 1.0//EN" "http://www.w3.org/TR/2001/REC-SVG-20010904/DTD/svg10.dtd">
<svg xmlns="http://www.w3.org/2000/svg" xmlns:xlink="http://www.w3.org/1999/xlink" fill-rule="evenodd" height="0.74in" preserveAspectRatio="none" stroke-linecap="round" viewBox="0 0 999 740" width="0.999in">
<style type="text/css">
.brush0 { fill: rgb(255,255,255); }
.pen0 { stroke: rgb(0,0,0); stroke-width: 1; stroke-linejoin: round; }
.brush1 { fill: none; }
.pen1 { stroke: none; }
.brush2 { fill: rgb(0,0,0); }
</style>
<g>
<polygon class="pen1 brush2" points="858,709 802,611 789,611 781,616 778,625 777,636 779,648 781,660 783,672 783,682 781,694 778,703 774,710 769,714 763,716 757,717 750,716 743,713 734,708 725,701 715,693 707,685 698,676 691,667 684,659 679,652 679,673 674,689 666,700 656,706 645,707 636,701 628,690 623,671 628,655 636,642 645,631 654,620 664,610 673,599 682,586 688,571 686,562 681,554 674,546 665,540 655,535 644,532 634,531 625,534 612,547 602,562 593,577 585,593 577,608 568,624 558,638 545,652 531,655 520,652 513,643 507,632 503,621 498,610 492,602 483,600 477,608 474,615 471,622 468,628 464,634 458,639 450,643 438,646 427,647 412,648 394,647 375,644 358,640 344,634 337,625 337,615 347,601 362,590 381,582 403,576 426,571 449,565 470,558 489,547 497,540 503,533 506,526 507,519 506,513 501,507 494,503 483,500 476,500 467,502 457,506 444,510 431,516 416,523 400,531 383,539 365,548 348,557 330,565 312,574 294,582 276,589 259,596 243,601 233,604 221,607 207,610 195,611 184,609 177,604 174,594 178,578 184,567 191,560 199,556 207,552 213,547 216,542 216,533 211,520 205,520 195,522 183,526 169,530 154,536 137,541 120,546 104,551 78,556 60,554 51,547 48,537 52,524 60,511 73,500 90,490 102,486 115,483 129,481 143,480 159,480 174,480 191,481 207,482 224,484 240,486 257,488 273,490 289,492 304,494 319,495 333,496 350,496 372,494 396,491 420,487 440,481 453,473 457,464 448,452 427,438 405,427 381,419 357,414 332,411 306,410 280,411 254,414 228,418 203,422 178,428 154,434 131,440 110,446 90,451 71,456 59,459 49,461 39,463 30,464 23,463 17,462 12,460 9,457 7,450 7,444 10,438 15,433 21,427 29,422 39,417 49,412 66,403 84,394 102,385 117,375 129,365 137,355 138,343 133,331 125,326 116,324 105,323 95,323 84,322 74,320 66,317 59,310 54,303 51,295 48,289 47,283 49,279 53,276 60,275 71,276 91,280 115,288 142,297 172,309 203,321 235,335 268,348 299,360 328,371 355,379 379,386 398,388 412,388 420,382 421,371 415,355 404,341 392,328 380,315 368,302 355,290 342,279 328,268 313,257 299,248 283,239 267,231 251,223 234,216 217,211 199,206 181,202 177,203 170,203 159,202 145,200 129,198 113,195 97,191 81,186 66,180 54,173 46,166 42,159 42,151 47,143 58,135 74,127 81,125 89,123 97,122 105,121 113,119 120,117 127,114 133,109 129,95 119,83 110,73 107,61 111,51 117,44 125,40 135,39 146,41 158,45 173,52 188,61 214,80 242,103 272,130 303,159 336,191 368,225 400,259 432,293 462,326 491,359 518,389 542,416 563,439 581,459 595,473 604,482 609,482 614,481 620,480 625,478 630,475 634,473 638,470 641,466 633,439 622,414 610,389 596,366 579,343 562,321 543,300 523,280 502,261 481,242 459,224 436,206 414,189 392,172 370,155 348,139 338,122 334,99 335,74 341,48 345,38 351,29 357,21 364,14 372,10 381,7 390,6 400,7 408,10 415,13 421,17 427,21 433,26 438,32 443,38 448,44 456,59 463,74 469,91 474,109 479,126 484,144 490,161 496,178 500,184 503,188 506,190 510,190 514,189 518,187 523,184 529,180 532,164 531,147 527,130 522,113 517,97 516,80 519,65 529,50 534,45 541,41 549,38 558,36 568,35 576,36 584,38 590,43 606,66 620,94 633,126 644,161 654,197 664,236 672,275 680,314 688,352 695,388 703,423 711,453 720,480 730,503 740,519 752,530 758,530 764,529 768,527 773,525 777,523 781,519 784,516 787,511 787,463 780,414 769,366 759,318 753,271 755,225 767,180 795,136 805,128 817,122 830,120 843,121 853,126 861,133 865,142 864,155 858,172 849,197 839,225 831,254 826,281 827,302 837,314 856,315 867,308 876,292 882,272 888,248 896,223 905,198 918,176 935,159 944,154 952,152 960,153 967,156 973,161 978,168 982,176 985,185 988,201 988,216 985,231 979,243 968,259 949,285 927,317 903,351 881,385 865,415 857,438 860,449 875,450 889,440 902,422 915,402 928,384 942,370 957,365 975,374 986,393 993,412 996,431 995,450 992,463 987,476 979,489 970,500 959,511 946,520 931,529 914,536 905,547 901,557 900,567 903,576 908,585 914,594 922,604 931,615 940,629 948,645 953,664 955,686 954,700 952,711 949,720 945,728 939,733 931,737 922,739 911,740 903,739 896,738 888,735 881,732 874,728 868,723 862,716 858,709"/>
</g>
</svg>
