<?xml version="1.0" encoding="UTF-8" standalone="no"?>
<!DOCTYPE svg PUBLIC "-//W3C//DTD SVG 1.0//EN" "http://www.w3.org/TR/2001/REC-SVG-20010904/DTD/svg10.dtd">
<svg xmlns="http://www.w3.org/2000/svg" xmlns:xlink="http://www.w3.org/1999/xlink" fill-rule="evenodd" height="1.023in" preserveAspectRatio="none" stroke-linecap="round" viewBox="0 0 1003 1023" width="1.003in">
<style type="text/css">
.brush0 { fill: rgb(255,255,255); }
.pen0 { stroke: rgb(0,0,0); stroke-width: 1; stroke-linejoin: round; }
.brush1 { fill: none; }
.pen1 { stroke: none; }
.brush2 { fill: rgb(0,0,0); }
</style>
<g>
<polygon class="pen1 brush2" points="1003,71 1003,18 968,18 933,17 898,17 862,16 826,15 790,14 754,13 718,12 682,12 646,13 610,13 575,15 539,17 504,20 470,23 436,28 430,29 421,31 408,33 394,37 378,40 360,45 343,50 325,56 307,62 291,68 276,75 264,83 254,91 248,98 245,107 247,115 259,117 274,119 289,122 305,125 319,130 330,137 338,147 341,160 338,174 329,180 316,182 301,179 285,174 270,169 256,165 246,163 222,165 200,172 179,182 160,194 142,210 126,227 111,245 97,264 89,275 83,284 78,290 76,292 90,296 107,297 126,295 145,293 163,293 177,295 187,301 191,313 189,322 183,329 174,333 165,334 131,339 103,353 81,375 64,402 51,432 40,465 32,497 24,528 29,532 38,530 47,527 55,524 63,521 71,518 79,515 88,512 96,510 102,515 95,537 84,558 69,578 54,599 40,619 30,640 25,662 29,686 28,714 25,754 23,802 22,852 23,900 29,940 40,968 58,978 70,969 82,944 93,909 102,868 110,825 117,786 122,755 126,736 134,705 144,674 155,644 166,614 179,586 192,558 207,530 222,504 239,478 256,453 274,429 293,406 313,383 334,362 355,341 377,321 400,302 424,284 449,267 474,251 500,236 527,223 554,210 582,198 610,187 639,177 669,169 699,162 730,155 762,150 794,147 826,144 837,143 848,143 859,142 870,141 881,141 892,140 903,140 915,139 926,139 937,139 948,139 959,138 970,138 981,138 992,138 1003,138 1003,116 958,116 913,117 869,119 826,122 784,126 743,132 702,139 661,147 622,158 583,171 544,187 506,205 468,225 431,249 394,275 358,305 325,336 294,368 266,400 240,434 217,468 195,503 176,539 159,576 144,613 130,652 118,691 107,731 97,772 89,814 82,857 75,901 73,914 70,931 65,947 58,959 51,948 47,926 45,902 45,888 46,846 49,806 53,766 59,726 67,688 77,650 88,614 100,578 115,543 131,510 148,477 167,445 187,414 208,385 231,356 256,329 281,303 308,278 336,255 365,233 396,212 427,192 460,174 493,157 528,142 564,128 600,116 638,105 677,96 716,88 756,82 797,78 810,77 823,76 835,75 848,74 861,74 874,73 887,73 900,72 913,72 925,72 938,71 951,71 964,71 977,71 990,71 1003,71 1003,71"/>
<polygon class="pen1 brush2" points="873,931 842,931 811,932 781,933 751,934 721,935 692,934 664,933 636,929 609,924 582,917 557,906 532,893 509,876 486,856 465,831 445,802 459,811 472,818 486,825 501,830 515,835 530,838 544,839 558,839 572,838 586,835 599,830 612,824 624,815 635,805 646,793 656,779 667,757 673,736 675,716 672,698 666,682 657,667 646,655 633,644 620,636 606,630 592,627 579,627 568,630 559,635 553,645 550,657 557,665 565,661 572,657 578,653 585,651 591,650 598,651 607,654 616,660 636,681 645,702 645,723 640,740 630,753 620,760 611,759 606,749 598,723 583,705 562,695 539,692 516,697 496,710 481,731 474,760 467,772 460,779 453,782 445,782 438,778 431,771 425,761 419,748 410,721 405,693 403,666 406,639 411,612 419,587 431,562 445,539 462,518 480,498 501,481 524,466 549,454 575,445 602,440 630,438 671,441 704,448 730,460 748,474 761,491 768,508 770,525 768,541 762,556 754,567 744,575 732,578 719,575 706,565 694,548 683,522 672,531 666,542 664,553 666,565 672,577 680,588 691,598 704,606 718,613 734,618 751,619 768,618 785,613 801,604 817,590 831,572 846,538 847,511 837,490 820,472 800,458 782,445 768,433 762,421 768,408 784,406 803,408 822,412 835,411 838,402 825,380 792,340 776,325 759,314 740,306 719,300 699,299 678,300 657,304 637,312 625,316 618,316 615,311 615,304 615,295 617,285 617,275 616,267 598,271 579,275 559,281 539,287 522,297 508,309 498,324 495,344 500,362 512,373 526,380 539,385 546,391 543,400 526,415 490,439 455,466 426,498 405,534 390,573 382,614 379,657 383,700 392,743 397,760 403,780 406,801 402,819 383,803 365,792 347,787 329,787 313,793 299,806 287,826 277,852 275,860 273,867 269,873 263,879 274,889 287,892 300,889 312,884 323,879 333,877 339,880 341,892 335,912 318,925 295,931 268,929 241,920 218,904 201,880 195,849 197,832 201,813 202,796 194,783 185,788 178,795 172,803 168,811 165,820 163,830 161,840 161,851 163,876 169,899 179,919 191,936 206,951 223,962 242,970 262,976 282,978 303,977 324,974 344,966 363,956 381,942 396,925 409,905 419,882 424,859 426,835 427,810 449,846 475,877 504,903 536,925 570,942 606,955 644,965 684,972 724,976 765,979 806,980 847,979 887,978 927,976 966,975 1003,974 1003,920 983,923 961,927 938,929 917,929 900,925 888,916 884,900 889,877 894,858 895,841 893,827 887,815 878,805 868,798 856,793 842,790 829,789 815,791 802,795 790,802 780,810 772,822 767,835 765,851 768,870 776,886 788,898 803,909 820,917 838,923 856,928 873,931 873,931"/>
</g>
</svg>
