<?xml version="1.0" encoding="UTF-8" standalone="no"?>
<!DOCTYPE svg PUBLIC "-//W3C//DTD SVG 1.0//EN" "http://www.w3.org/TR/2001/REC-SVG-20010904/DTD/svg10.dtd">
<svg xmlns="http://www.w3.org/2000/svg" xmlns:xlink="http://www.w3.org/1999/xlink" fill-rule="evenodd" height="0.516in" preserveAspectRatio="none" stroke-linecap="round" viewBox="0 0 614 516" width="0.614in">
<style type="text/css">
.brush0 { fill: rgb(255,255,255); }
.pen0 { stroke: rgb(0,0,0); stroke-width: 1; stroke-linejoin: round; }
.brush1 { fill: none; }
.pen1 { stroke: none; }
.brush2 { fill: rgb(0,0,0); }
</style>
<g>
<polygon class="pen1 brush2" points="26,0 46,17 65,34 84,51 102,69 120,86 139,103 157,120 176,136 186,146 195,155 205,164 215,172 225,181 235,189 245,197 255,205 265,212 275,220 285,228 296,236 306,244 317,252 327,260 338,268 350,278 364,287 378,294 392,301 407,309 421,316 435,325 449,335 454,338 458,342 463,346 467,349 472,353 476,357 480,362 484,366 490,374 496,382 502,390 508,397 514,405 520,413 526,421 532,429 539,436 548,446 558,456 569,467 581,478 593,487 604,493 614,496 578,499 542,502 505,503 467,504 429,505 391,505 352,504 313,503 274,502 235,501 197,500 159,499 121,498 83,497 46,496 10,496 11,374 11,249 13,123 26,0"/>
<polygon class="pen1 brush2" points="402,29 416,32 433,39 452,49 470,63 489,78 505,97 519,117 529,139 536,161 542,183 546,204 549,225 549,246 546,269 541,292 532,317 529,326 525,336 521,346 516,357 510,367 503,377 495,387 486,396 476,405 464,414 452,423 438,431 423,438 405,444 386,448 365,450 343,449 324,445 305,438 289,430 274,420 261,409 249,397 239,386 230,375 223,363 217,351 213,339 209,326 207,314 205,303 204,292 199,280 201,269 205,256 210,243 216,230 223,218 231,207 238,199 246,194 254,190 264,187 275,184 287,181 299,179 311,178 322,178 333,180 342,183 351,187 359,192 367,197 374,202 380,207 386,212 391,217 399,230 405,249 406,268 403,284 400,291 397,298 393,305 388,311 382,318 375,323 367,327 357,330 351,331 345,331 339,331 332,331 326,330 320,328 314,326 309,323 297,311 289,297 286,281 289,266 292,259 297,252 302,247 309,243 316,241 324,240 334,242 344,246 339,245 333,245 327,246 320,247 314,250 308,254 304,260 302,268 300,284 302,297 307,308 317,317 323,320 331,321 339,321 347,320 354,317 361,314 366,310 370,306 374,292 376,272 377,255 378,245 379,240 378,234 374,227 367,221 362,219 357,216 353,213 348,210 341,208 334,207 325,206 313,207 301,209 292,210 285,213 279,216 274,220 270,224 266,231 262,238 256,257 253,280 254,303 262,322 268,330 274,337 281,344 289,350 298,355 307,359 318,361 329,362 340,363 349,365 358,367 366,368 374,369 382,369 390,367 398,362 407,355 416,348 424,339 433,330 440,322 446,313 450,306 452,300 454,276 455,248 453,219 450,196 445,190 440,182 434,174 428,165 421,157 414,148 408,141 402,134 391,128 377,121 362,113 345,106 328,99 311,94 295,92 280,93 266,96 252,100 238,105 224,110 210,115 197,122 186,128 176,136 167,143 159,150 151,156 143,163 136,170 129,178 123,187 117,197 111,209 105,223 99,238 93,254 88,271 85,288 82,305 81,321 82,351 85,381 92,416 101,459 93,449 85,436 78,422 71,407 64,392 59,376 55,362 53,349 51,324 49,298 48,271 50,243 55,214 61,186 69,160 79,139 85,129 92,119 100,109 108,99 117,89 127,79 139,70 151,62 164,54 177,47 189,39 202,31 214,24 228,18 241,13 256,9 272,7 290,6 310,6 330,7 350,10 369,15 387,21 402,29"/>
<polygon class="pen1 brush0" points="365,450 386,448 405,444 423,438 438,431 452,423 464,414 476,405 486,396 489,393 492,390 495,387 497,384 494,379 491,375 487,370 484,366 480,362 476,357 472,353 467,349 463,346 458,342 454,338 449,335 446,333 443,330 440,328 436,326 432,331 428,336 423,341 418,345 413,350 408,354 403,358 398,362 390,367 382,369 374,369 366,368 358,367 349,365 340,363 329,362 318,361 307,359 298,355 289,350 281,344 274,337 268,330 262,322 254,303 253,280 256,257 262,238 265,232 268,227 271,223 274,219 270,216 267,214 263,211 259,208 255,205 252,202 248,199 244,196 236,202 229,211 222,221 215,233 209,246 204,258 201,270 199,280 204,292 205,303 207,314 209,326 213,339 217,351 223,363 230,375 239,386 249,397 261,409 274,420 289,430 305,438 324,445 343,449 365,450"/>
<polygon class="pen1 brush0" points="101,459 92,416 85,381 82,351 81,321 82,305 85,288 88,271 93,254 99,238 105,223 111,209 117,197 123,187 129,178 136,170 143,163 151,156 159,150 167,143 176,136 169,130 162,123 155,117 148,111 141,105 134,98 127,92 120,85 114,92 108,99 102,106 97,112 92,119 88,126 83,133 79,139 69,160 61,186 55,214 50,243 48,271 49,298 51,324 53,349 55,362 59,376 64,392 71,407 78,422 85,436 93,449 101,459"/>
<polygon class="pen1 brush0" points="309,323 314,326 320,328 326,330 332,331 339,331 345,331 351,331 357,330 364,328 370,326 375,323 380,320 384,316 388,312 391,307 394,303 389,300 384,297 379,295 374,292 373,296 372,300 371,303 370,306 366,310 361,314 354,317 347,320 339,321 331,321 323,320 317,317 307,308 302,297 300,284 302,268 303,262 306,257 310,253 314,250 312,248 311,247 309,245 307,244 301,248 296,253 292,259 289,266 286,281 289,297 297,311 309,323"/>
</g>
</svg>
