<?xml version="1.0" encoding="UTF-8" standalone="no"?>
<!DOCTYPE svg PUBLIC "-//W3C//DTD SVG 1.0//EN" "http://www.w3.org/TR/2001/REC-SVG-20010904/DTD/svg10.dtd">
<svg xmlns="http://www.w3.org/2000/svg" xmlns:xlink="http://www.w3.org/1999/xlink" fill-rule="evenodd" height="0.792in" preserveAspectRatio="none" stroke-linecap="round" viewBox="0 0 464 792" width="0.464in">
<style type="text/css">
.brush0 { fill: rgb(255,255,255); }
.pen0 { stroke: rgb(0,0,0); stroke-width: 1; stroke-linejoin: round; }
.brush1 { fill: none; }
.pen1 { stroke: none; }
.brush2 { fill: rgb(0,0,0); }
</style>
<g>
<polygon class="pen1 brush2" points="379,468 368,525 353,577 337,623 319,664 299,698 277,725 255,744 231,756 220,758 209,759 198,758 187,755 176,750 165,743 155,734 144,724 117,686 94,637 75,579 62,512 54,441 51,366 54,290 63,214 70,179 79,146 89,117 101,91 113,70 127,53 141,40 155,33 161,32 168,31 174,32 181,34 187,37 193,41 200,46 206,52 223,76 237,107 248,144 257,186 262,232 263,280 262,328 256,375 251,399 245,421 238,439 231,455 224,467 216,477 208,483 201,487 197,488 191,487 184,484 174,476 164,461 155,442 148,418 142,392 139,363 138,334 139,303 143,274 146,259 149,246 153,235 158,225 162,218 166,212 171,208 175,206 176,206 179,206 182,208 187,212 198,231 205,261 208,297 205,337 201,355 197,366 192,372 186,374 178,367 171,350 167,325 166,296 161,294 158,321 157,348 160,374 170,393 176,399 183,403 189,404 197,403 203,400 209,396 214,390 219,383 223,374 227,364 230,353 233,341 236,319 237,297 236,276 233,255 229,236 223,218 216,204 207,192 201,186 195,182 189,180 184,178 179,177 174,177 170,178 166,179 157,183 149,189 141,197 135,208 128,220 123,235 119,251 115,269 111,302 110,336 111,369 115,400 121,430 130,456 140,478 153,495 160,501 166,506 173,510 180,513 187,514 195,515 202,515 209,513 221,507 233,498 244,485 255,470 264,451 272,430 278,406 283,380 289,328 292,277 290,226 284,178 274,133 261,93 245,59 226,33 215,22 204,14 193,8 182,5 172,3 163,3 155,4 147,6 128,14 111,28 94,47 79,71 65,100 53,132 43,169 35,209 25,287 22,367 26,445 35,520 49,589 69,651 94,703 123,743 140,759 157,771 173,780 188,785 202,787 216,787 228,786 239,783 253,778 267,770 280,761 293,749 306,735 318,720 330,703 341,683 351,663 361,640 370,616 379,590 387,563 395,534 401,504 407,473 379,468"/>
<polygon class="pen1 brush2" points="288,543 406,395 464,591 394,470 288,543"/>
<polygon class="pen1 brush2" points="141,317 162,274 187,319 163,293 141,317"/>
</g>
</svg>
