<?xml version="1.0" encoding="UTF-8" standalone="no"?>
<!DOCTYPE svg PUBLIC "-//W3C//DTD SVG 1.0//EN" "http://www.w3.org/TR/2001/REC-SVG-20010904/DTD/svg10.dtd">
<svg xmlns="http://www.w3.org/2000/svg" xmlns:xlink="http://www.w3.org/1999/xlink" fill-rule="evenodd" height="0.984in" preserveAspectRatio="none" stroke-linecap="round" viewBox="0 0 587 984" width="0.587in">
<style type="text/css">
.brush0 { fill: rgb(255,255,255); }
.pen0 { stroke: rgb(0,0,0); stroke-width: 1; stroke-linejoin: round; }
.brush1 { fill: none; }
.pen1 { stroke: none; }
.brush2 { fill: rgb(0,0,0); }
</style>
<g>
<polygon class="pen1 brush2" points="26,984 13,968 5,950 2,930 3,910 6,890 12,869 19,849 27,828 50,795 65,760 76,726 85,691 95,658 109,627 130,598 161,572 166,540 175,511 187,485 201,461 218,440 237,419 257,398 279,378 289,344 303,313 320,285 338,258 355,230 371,201 383,169 389,133 402,116 419,103 438,92 458,82 477,71 493,57 506,38 513,14 520,12 526,9 533,7 539,5 546,3 553,1 560,0 567,0 574,13 580,25 583,38 585,51 584,70 579,90 572,110 561,130 549,150 534,171 518,192 500,213 487,229 473,245 460,261 446,277 433,293 420,309 407,326 395,342 384,359 373,376 364,392 356,409 349,426 344,443 340,460 338,477 326,491 314,506 301,522 288,538 275,555 262,572 249,591 236,610 225,630 214,651 204,673 195,696 188,719 182,745 178,771 176,798 159,805 141,819 121,840 101,864 81,893 61,923 43,954 26,984"/>
</g>
</svg>
