<?xml version="1.0" encoding="UTF-8" standalone="no"?>
<!DOCTYPE svg PUBLIC "-//W3C//DTD SVG 1.0//EN" "http://www.w3.org/TR/2001/REC-SVG-20010904/DTD/svg10.dtd">
<svg xmlns="http://www.w3.org/2000/svg" xmlns:xlink="http://www.w3.org/1999/xlink" fill-rule="evenodd" height="0.741in" preserveAspectRatio="none" stroke-linecap="round" viewBox="0 0 437 741" width="0.437in">
<style type="text/css">
.brush0 { fill: rgb(255,255,255); }
.pen0 { stroke: rgb(0,0,0); stroke-width: 1; stroke-linejoin: round; }
.brush1 { fill: none; }
.pen1 { stroke: none; }
.brush2 { fill: rgb(0,0,0); }
</style>
<g>
<polygon class="pen1 brush2" points="433,128 432,114 429,94 427,75 425,65 420,55 413,46 404,37 396,28 387,21 379,15 372,10 367,7 361,5 351,3 341,2 329,1 318,1 308,1 301,1 296,1 291,3 283,7 273,14 262,23 251,33 241,44 232,56 226,67 222,83 220,101 220,116 222,125 224,129 227,135 232,144 238,153 246,163 254,172 263,180 272,185 275,186 280,186 287,186 294,187 301,187 308,187 312,186 315,186 319,185 324,182 332,178 340,173 348,166 356,160 362,152 366,145 369,130 368,113 365,99 364,93 361,89 354,81 345,72 335,66 325,63 315,64 304,66 294,70 285,75 277,80 271,85 267,90 266,97 267,108 268,119 268,124 271,129 279,136 286,143 292,147 298,148 307,149 316,149 321,148 325,146 329,141 334,134 337,128 337,121 335,110 330,98 321,90 316,88 312,88 307,88 303,90 299,92 295,95 292,99 289,104 304,110 306,107 309,104 312,103 315,104 319,107 322,111 324,117 323,122 319,125 311,129 303,132 299,133 295,131 290,127 286,123 284,120 283,114 282,108 281,101 282,96 286,90 291,86 298,83 306,81 313,81 320,81 326,81 330,82 334,85 341,92 346,99 348,104 349,108 350,117 351,128 349,137 344,147 336,155 327,162 317,166 307,169 297,170 288,170 280,168 277,166 272,161 265,154 259,146 252,138 246,131 242,125 240,122 239,112 239,94 241,78 243,70 246,65 254,54 264,41 269,35 271,34 275,31 281,28 287,24 294,21 301,18 307,16 311,16 314,16 320,16 328,17 336,17 344,18 352,19 357,19 360,20 362,21 365,25 370,29 375,34 380,39 385,43 388,46 390,48 394,54 400,66 404,78 407,84 410,95 411,109 411,122 410,129 410,129 410,130 410,130 410,131 391,127 394,154 391,181 370,178 344,181 347,200 344,225 326,228 311,225 297,225 300,244 297,272 282,272 263,275 249,272 247,292 249,322 234,326 222,323 223,322 219,323 215,322 215,323 204,326 188,322 191,292 188,272 173,275 155,272 140,272 137,244 140,225 125,225 111,228 93,225 90,200 93,181 67,178 46,181 42,154 46,127 27,131 27,130 27,130 26,129 26,129 26,122 26,109 27,95 30,84 32,78 37,66 42,54 46,48 48,46 51,43 56,39 62,34 67,29 72,25 75,21 77,20 80,19 85,19 93,18 101,17 109,17 117,16 123,16 126,16 130,16 136,18 143,21 150,24 156,28 162,31 166,34 168,35 173,41 183,54 191,65 194,70 197,78 198,94 198,112 197,122 195,125 191,131 185,138 178,146 171,154 165,161 160,166 157,168 149,170 140,170 130,169 120,166 110,162 100,155 93,147 87,137 86,128 87,117 88,108 89,104 91,99 96,92 103,85 107,82 111,81 117,81 124,81 131,81 138,83 145,86 150,90 154,96 155,101 155,108 154,114 153,120 151,123 146,127 141,131 138,133 134,132 126,129 118,125 114,122 113,117 114,111 117,107 121,104 125,103 128,104 131,107 133,110 147,104 145,99 142,95 138,92 134,90 130,88 125,88 120,88 115,90 106,98 101,110 99,121 99,128 102,134 107,141 112,146 116,148 121,149 130,149 139,148 144,147 150,143 158,136 166,129 169,124 169,119 170,108 170,97 169,90 165,85 160,80 152,75 143,70 133,66 122,64 112,63 102,66 92,72 83,81 76,89 73,93 72,99 69,113 68,130 70,145 74,152 81,160 88,166 96,173 104,178 112,182 117,185 121,186 124,186 129,187 135,187 143,187 150,186 157,186 162,186 165,185 175,180 184,172 192,163 199,153 205,144 210,135 214,129 216,125 218,116 218,101 216,83 212,67 206,56 197,44 187,33 175,23 164,14 154,7 146,3 141,1 136,1 128,1 118,1 107,1 96,2 85,3 76,5 70,7 65,10 58,15 50,21 41,28 32,37 23,46 16,55 11,65 10,75 8,94 5,114 4,128 0,127 0,614 4,614 5,628 8,648 10,667 11,677 16,687 23,696 32,705 41,714 50,721 58,727 65,732 70,735 76,737 85,738 96,739 107,740 118,740 128,740 136,741 141,741 146,739 154,735 164,728 175,719 187,709 197,698 206,686 212,675 216,659 218,641 218,625 216,617 214,613 210,607 205,598 199,589 192,579 184,570 175,562 165,556 162,555 157,555 150,555 143,555 135,555 129,555 124,555 121,555 117,556 112,559 104,563 96,569 88,575 81,582 74,589 70,597 68,612 69,629 72,642 73,649 76,652 83,660 92,669 102,676 112,679 122,678 133,676 143,672 152,667 160,662 165,656 169,652 170,645 170,633 169,622 169,617 166,613 158,606 150,599 144,594 139,593 130,593 121,593 116,594 112,596 107,601 102,607 99,613 99,620 101,632 106,644 115,652 120,653 125,654 130,653 134,652 138,649 142,646 145,643 147,638 133,632 131,635 128,637 125,638 121,637 117,634 114,630 113,625 114,620 118,616 126,613 134,610 138,609 141,611 146,615 151,619 153,622 154,627 155,634 155,640 154,645 150,651 145,655 138,658 131,660 124,661 117,661 111,661 107,660 103,656 96,649 91,642 89,638 88,634 87,625 86,614 87,604 93,594 100,586 110,580 120,575 130,572 140,571 149,572 157,574 160,576 165,581 171,588 178,596 185,604 191,611 195,616 197,619 198,630 198,647 197,664 194,672 191,677 183,688 173,701 168,707 166,708 162,711 156,714 150,717 143,721 136,724 130,726 126,726 123,726 117,725 109,725 101,724 93,724 85,723 80,723 77,722 75,720 72,717 67,713 62,708 56,703 51,699 48,696 46,694 42,687 37,676 32,664 30,658 27,647 26,633 26,620 26,613 26,613 27,612 27,612 27,611 46,614 42,588 46,560 67,564 93,560 90,541 93,517 111,513 125,517 140,517 137,497 140,470 155,471 173,468 188,470 191,451 188,421 204,417 215,419 215,421 219,420 223,421 222,419 234,417 249,421 247,451 249,470 263,468 282,471 297,470 300,497 297,517 311,517 326,513 344,517 347,541 344,560 370,564 391,560 394,588 391,614 410,611 410,612 410,612 410,613 410,613 411,620 411,633 410,647 407,658 404,664 400,676 394,687 390,694 388,696 385,699 380,703 375,708 370,713 365,717 362,720 360,722 357,723 352,723 344,724 336,724 328,725 320,725 314,726 311,726 307,726 301,724 294,721 287,717 281,714 275,711 271,708 269,707 264,701 254,688 246,677 243,672 241,664 239,647 239,630 240,619 242,616 246,611 252,604 259,596 265,588 272,581 277,576 280,574 288,572 297,571 307,572 317,575 327,580 336,586 344,594 349,604 351,614 350,625 349,634 348,638 346,642 341,649 334,656 330,660 326,661 320,661 313,661 306,660 298,658 291,655 286,651 282,645 281,640 282,634 283,627 284,622 286,619 290,615 295,611 299,609 303,610 311,613 319,616 323,620 324,625 322,630 319,634 315,637 312,638 309,637 306,635 304,632 289,638 292,643 295,646 299,649 303,652 307,653 312,654 316,653 321,652 330,644 335,632 337,620 337,613 334,607 329,601 325,596 321,594 316,593 307,593 298,593 292,594 286,599 279,606 271,613 268,617 268,622 267,633 266,645 267,652 271,656 277,662 285,667 294,672 304,676 315,678 325,679 335,676 345,669 354,660 361,652 364,649 365,642 368,629 369,612 366,597 362,589 356,582 348,575 340,569 332,563 324,559 319,556 315,555 312,555 308,555 301,555 294,555 287,555 280,555 275,555 272,556 263,562 254,570 246,579 238,589 232,598 227,607 224,613 222,617 220,625 220,641 222,659 226,675 232,686 241,698 251,709 262,719 273,728 283,735 291,739 296,741 301,741 308,740 318,740 329,740 341,739 351,738 361,737 367,735 372,732 379,727 387,721 396,714 404,705 413,696 420,687 425,677 427,667 429,648 432,628 433,614 437,614 437,127 433,128"/>
</g>
</svg>
