<?xml version="1.0" encoding="UTF-8" standalone="no"?>
<!DOCTYPE svg PUBLIC "-//W3C//DTD SVG 1.0//EN" "http://www.w3.org/TR/2001/REC-SVG-20010904/DTD/svg10.dtd">
<svg xmlns="http://www.w3.org/2000/svg" xmlns:xlink="http://www.w3.org/1999/xlink" fill-rule="evenodd" height="0.696in" preserveAspectRatio="none" stroke-linecap="round" viewBox="0 0 698 696" width="0.698in">
<style type="text/css">
.brush0 { fill: rgb(255,255,255); }
.pen0 { stroke: rgb(0,0,0); stroke-width: 1; stroke-linejoin: round; }
.brush1 { fill: none; }
.pen1 { stroke: none; }
.brush2 { fill: rgb(0,0,0); }
</style>
<g>
<polygon class="pen1 brush2" points="497,296 638,209 455,232 462,0 370,198 214,6 219,240 26,170 187,396 0,425 211,485 93,629 278,535 296,696 389,531 489,678 490,435 698,474 497,296"/>
<polygon class="pen1 brush0" points="460,370 450,489 454,576 442,556 389,476 345,531 322,564 304,467 258,521 189,552 231,497 245,454 160,448 95,436 163,430 231,424 128,249 183,262 247,299 249,261 253,187 236,78 347,247 397,192 434,122 426,272 513,255 450,303 549,366 583,414 460,370"/>
<polygon class="pen1 brush2" points="411,294 398,284 385,277 374,271 363,267 355,264 348,262 344,261 342,261 336,264 319,272 297,285 273,303 252,324 237,349 234,377 245,408 262,429 280,444 298,454 316,458 332,460 347,459 360,456 369,452 377,447 385,441 392,434 400,427 406,420 411,415 414,411 415,410 416,406 420,396 423,381 427,363 429,343 427,324 422,307 411,294"/>
<polygon class="pen1 brush0" points="390,394 386,401 379,408 371,414 362,420 352,426 343,429 335,432 329,432 322,430 314,426 305,421 296,415 287,410 280,405 276,401 274,400 272,397 269,389 267,375 269,356 273,343 278,332 285,322 292,313 299,306 305,301 309,298 310,297 339,290 339,289 345,291 353,293 362,296 370,300 378,304 384,309 388,315 389,321 389,340 391,360 392,378 390,394"/>
<polygon class="pen1 brush2" points="341,312 339,313 332,316 323,321 314,327 305,335 298,344 294,354 296,365 301,375 306,383 312,390 318,394 325,395 333,394 342,390 352,383 367,365 369,348 364,333 355,322 347,316 343,313 341,312 341,312"/>
<polygon class="pen1 brush0" points="333,338 330,341 324,347 320,356 323,365 331,369 340,367 346,364 349,362 333,338"/>
</g>
</svg>
