<?xml version="1.0" encoding="UTF-8" standalone="no"?>
<!DOCTYPE svg PUBLIC "-//W3C//DTD SVG 1.0//EN" "http://www.w3.org/TR/2001/REC-SVG-20010904/DTD/svg10.dtd">
<svg xmlns="http://www.w3.org/2000/svg" xmlns:xlink="http://www.w3.org/1999/xlink" fill-rule="evenodd" height="0.533in" preserveAspectRatio="none" stroke-linecap="round" viewBox="0 0 417 533" width="0.417in">
<style type="text/css">
.brush0 { fill: rgb(255,255,255); }
.pen0 { stroke: rgb(0,0,0); stroke-width: 1; stroke-linejoin: round; }
.brush1 { fill: none; }
.pen1 { stroke: none; }
.brush2 { fill: rgb(0,0,0); }
</style>
<g>
<polygon class="pen1 brush2" points="209,417 195,417 181,415 167,413 154,410 141,406 129,401 117,395 105,389 22,533 396,533 312,389 301,395 289,401 276,405 264,409 250,413 237,415 223,416 209,417"/>
<polygon class="pen1 brush2" points="171,275 195,234 189,230 185,224 182,217 181,209 183,198 189,189 198,183 209,181 220,183 229,189 235,198 237,209 236,217 233,224 229,229 223,233 247,275 255,270 262,263 268,256 274,248 278,239 281,229 283,219 284,209 282,194 278,179 271,166 262,155 251,146 238,139 224,135 209,133 194,135 179,139 166,146 155,155 146,166 139,179 135,194 133,209 134,219 136,229 139,239 143,248 149,256 155,263 163,270 171,275"/>
<polygon class="pen1 brush2" points="223,233 209,209 195,234 198,235 202,236 205,237 209,237 213,237 216,236 220,235 223,233"/>
<polygon class="pen1 brush2" points="209,285 204,285 199,284 194,284 189,283 184,281 180,280 175,277 171,275 138,332 146,337 154,341 163,344 172,347 181,349 190,351 199,352 209,352 219,352 228,351 237,349 246,346 254,344 263,340 271,336 279,332 247,275 243,277 238,279 234,281 229,282 224,283 219,284 214,285 209,285"/>
<polygon class="pen1 brush2" points="105,389 138,332 123,322 109,310 96,297 86,281 77,265 71,247 67,229 66,209 69,180 77,153 90,129 108,108 129,91 153,78 180,70 209,67 237,70 264,78 287,91 308,108 326,129 339,153 347,180 350,209 349,229 345,247 339,265 331,281 320,297 308,310 294,322 279,332 312,389 335,374 355,357 373,337 388,314 400,290 409,265 415,237 417,209 416,188 413,167 408,147 401,128 392,110 381,92 369,76 356,61 341,48 325,36 308,25 290,16 271,9 251,4 230,1 209,0 188,1 167,4 147,9 128,16 110,25 92,36 76,48 61,61 48,76 36,92 25,110 16,128 9,147 4,167 1,188 0,209 2,237 8,265 17,291 29,315 44,337 62,357 82,374 105,389"/>
</g>
</svg>
