<?xml version="1.0" encoding="UTF-8" standalone="no"?>
<!DOCTYPE svg PUBLIC "-//W3C//DTD SVG 1.0//EN" "http://www.w3.org/TR/2001/REC-SVG-20010904/DTD/svg10.dtd">
<svg xmlns="http://www.w3.org/2000/svg" xmlns:xlink="http://www.w3.org/1999/xlink" fill-rule="evenodd" height="0.626in" preserveAspectRatio="none" stroke-linecap="round" viewBox="0 0 485 626" width="0.485in">
<style type="text/css">
.brush0 { fill: rgb(255,255,255); }
.pen0 { stroke: rgb(0,0,0); stroke-width: 1; stroke-linejoin: round; }
.brush1 { fill: none; }
.pen1 { stroke: none; }
.brush2 { fill: rgb(0,0,0); }
</style>
<g>
<polygon class="pen1 brush2" points="9,0 0,315 13,626 349,626 474,626 481,439 485,3 9,0"/>
<polygon class="pen1 brush0" points="448,200 439,212 429,229 420,249 409,271 399,293 387,315 375,336 363,353 351,368 339,384 328,398 319,411 311,422 304,430 300,436 299,438 293,337 294,332 297,320 302,303 309,282 318,259 331,238 345,219 363,206 381,196 396,188 408,180 416,173 421,167 423,163 421,159 415,157 405,158 390,162 373,168 356,176 339,184 325,191 316,196 312,198 310,201 304,208 296,220 286,234 276,250 268,268 261,285 258,302 257,302 257,259 258,208 258,184 260,180 265,169 272,153 281,135 291,115 302,95 312,78 321,65 326,56 327,50 324,46 318,45 310,46 301,49 291,54 282,61 274,70 266,82 260,95 255,108 251,121 248,131 247,138 246,141 244,139 240,133 234,125 226,115 219,105 211,95 205,87 200,81 194,77 185,72 174,66 162,61 150,56 140,53 133,50 130,49 129,52 129,60 133,70 142,79 149,84 157,92 165,102 173,112 180,121 186,129 190,135 191,137 206,179 204,178 200,177 193,175 184,172 173,168 161,164 148,160 134,156 119,152 105,148 91,145 78,142 66,140 55,139 46,140 39,141 29,145 21,148 16,152 12,155 10,157 8,159 8,161 8,161 10,161 15,161 22,162 33,163 44,163 58,165 72,166 87,168 102,169 117,172 131,174 143,177 154,180 163,183 170,186 173,190 177,200 182,213 188,229 194,245 201,261 207,275 213,287 218,294 225,306 229,320 230,332 230,337 225,333 211,324 191,310 167,292 142,273 119,253 99,234 87,218 79,207 71,201 64,199 57,200 51,204 46,207 43,211 42,212 45,215 52,222 63,232 76,245 90,258 104,271 115,282 124,290 133,298 147,309 164,321 181,334 197,347 211,357 220,364 224,367 249,456 247,455 242,451 235,445 225,438 213,429 199,418 184,407 169,395 153,382 137,369 121,357 106,344 93,333 81,322 71,312 63,304 51,292 42,286 34,283 27,285 23,289 20,295 20,302 21,310 24,315 29,321 37,329 47,338 59,348 73,359 87,370 103,382 118,393 134,404 149,415 164,425 178,434 190,442 201,449 209,454 222,463 233,472 240,481 246,490 249,497 251,503 252,507 252,508 248,506 238,500 223,491 205,481 185,470 166,459 149,449 136,442 128,439 123,441 122,448 124,458 129,469 137,482 148,494 160,505 174,514 189,522 203,527 215,532 226,535 235,537 241,538 243,538 230,626 269,626 268,607 266,590 265,578 264,573 266,570 273,561 282,547 294,530 307,509 320,487 332,465 342,442 353,419 368,395 386,370 405,344 423,318 439,293 452,268 461,245 469,209 470,190 463,187 448,200"/>
</g>
</svg>
