<?xml version="1.0" encoding="UTF-8" standalone="no"?>
<!DOCTYPE svg PUBLIC "-//W3C//DTD SVG 1.0//EN" "http://www.w3.org/TR/2001/REC-SVG-20010904/DTD/svg10.dtd">
<svg xmlns="http://www.w3.org/2000/svg" xmlns:xlink="http://www.w3.org/1999/xlink" fill-rule="evenodd" height="0.662in" preserveAspectRatio="none" stroke-linecap="round" viewBox="0 0 831 662" width="0.831in">
<style type="text/css">
.brush0 { fill: rgb(255,255,255); }
.pen0 { stroke: rgb(0,0,0); stroke-width: 1; stroke-linejoin: round; }
.brush1 { fill: none; }
.pen1 { stroke: none; }
.brush2 { fill: rgb(0,0,0); }
</style>
<g>
<polygon class="pen1 brush2" points="269,279 269,283 270,293 271,308 274,326 279,346 285,365 294,381 305,394 317,405 327,416 337,427 348,437 360,445 376,452 396,456 421,456 447,453 469,446 488,438 504,428 516,418 525,410 530,404 532,402 533,399 537,392 542,381 547,367 552,351 556,334 558,317 556,302 551,288 543,273 532,259 522,247 511,236 502,227 496,222 494,220 490,217 480,209 464,198 444,187 422,178 398,174 374,176 352,188 330,207 312,224 297,239 286,253 278,264 273,272 270,277 269,279"/>
<polygon class="pen1 brush0" points="357,304 357,310 359,323 363,339 371,351 376,355 380,360 384,364 389,368 394,372 400,375 409,377 419,377 430,375 439,373 446,369 453,365 458,361 461,357 463,355 464,354 466,350 470,339 474,326 474,313 468,301 460,290 452,282 449,279 447,278 443,274 436,270 428,266 419,262 409,260 399,261 390,266 381,274 374,281 368,287 364,293 361,298 359,301 357,303 357,304"/>
<polygon class="pen1 brush2" points="398,585 385,580 370,574 354,568 338,561 320,554 303,546 285,538 268,529 251,521 235,511 221,502 208,492 197,483 188,473 182,463 179,453 176,437 172,419 167,399 162,379 157,359 152,339 148,321 145,305 238,341 121,140 77,229 0,368 61,337 101,300 105,345 111,398 118,447 127,481 132,489 139,498 148,508 160,519 173,530 187,542 203,553 219,565 236,577 254,588 271,598 288,608 304,617 320,625 334,632 347,637 360,641 376,644 393,645 411,645 431,644 452,642 473,640 495,636 517,633 539,628 560,623 580,618 600,613 618,607 634,602 649,597 649,553 647,554 641,555 631,558 619,561 604,565 586,569 568,574 548,578 527,582 506,585 485,588 464,590 445,591 427,591 411,589 398,585"/>
<polygon class="pen1 brush2" points="775,270 740,310 736,290 731,267 726,243 720,217 714,193 708,171 701,153 695,140 690,133 682,125 672,116 660,107 646,98 631,88 614,79 597,70 580,61 562,52 544,44 527,36 510,30 494,24 479,19 466,16 453,14 438,14 421,15 403,18 384,23 364,28 344,34 323,41 302,49 281,57 261,66 242,74 223,82 206,90 191,98 177,105 181,143 183,142 189,139 198,135 210,130 225,123 242,116 260,109 280,101 300,94 321,87 341,81 361,76 380,73 398,70 414,70 427,72 440,75 454,79 470,83 486,87 502,92 519,98 536,104 553,110 569,117 584,124 597,131 610,139 621,147 629,156 636,165 640,174 645,189 652,206 660,224 668,243 677,261 685,279 692,296 697,310 593,278 738,464 771,375 831,234 775,270"/>
</g>
</svg>
