<?xml version="1.0" encoding="UTF-8" standalone="no"?>
<!DOCTYPE svg PUBLIC "-//W3C//DTD SVG 1.0//EN" "http://www.w3.org/TR/2001/REC-SVG-20010904/DTD/svg10.dtd">
<svg xmlns="http://www.w3.org/2000/svg" xmlns:xlink="http://www.w3.org/1999/xlink" fill-rule="evenodd" height="1.0in" preserveAspectRatio="none" stroke-linecap="round" viewBox="0 0 929 1000" width="0.929in">
<style type="text/css">
.brush0 { fill: rgb(255,255,255); }
.pen0 { stroke: rgb(0,0,0); stroke-width: 1; stroke-linejoin: round; }
.brush1 { fill: none; }
.pen1 { stroke: none; }
.brush2 { fill: rgb(0,0,0); }
</style>
<g>
<polygon class="pen1 brush2" points="409,504 397,515 383,528 369,542 354,558 338,574 321,591 305,609 288,627 271,647 255,666 239,686 225,706 210,726 198,745 186,765 176,784 166,805 160,824 156,843 155,859 156,875 160,888 165,900 173,910 184,919 198,925 214,927 231,924 249,917 268,906 287,890 306,868 333,829 359,785 382,739 403,693 421,651 437,613 448,583 456,564 463,588 474,622 488,662 505,706 525,752 547,797 572,839 598,876 613,892 628,907 643,918 659,926 676,931 692,932 710,929 727,922 739,913 748,902 754,891 758,877 760,863 759,848 757,831 752,814 744,792 734,770 723,748 709,725 694,703 679,680 662,659 644,637 627,617 609,597 591,578 574,560 558,544 542,529 528,516 515,504 919,504 907,1000 18,1000 8,504 409,504"/>
<polygon class="pen1 brush2" points="184,62 177,69 170,77 165,87 162,97 159,109 159,120 160,133 163,146 170,166 181,187 194,209 209,232 226,254 244,277 263,301 284,324 304,346 325,369 346,390 365,411 384,431 401,450 417,468 430,484 425,489 420,493 415,498 409,504 8,504 0,0 929,13 919,504 515,504 508,498 502,494 497,490 492,487 501,479 513,467 528,452 544,434 563,414 582,392 603,368 623,343 644,317 664,290 683,263 701,236 717,209 730,184 741,159 748,136 751,113 749,93 741,77 727,64 716,58 705,55 693,55 682,57 671,62 660,68 648,77 637,88 623,104 609,122 596,143 583,165 570,189 557,213 545,239 534,265 522,291 512,317 502,342 493,367 484,390 476,412 469,432 463,450 464,442 462,428 458,410 452,388 445,362 435,334 424,304 411,273 397,241 382,209 365,179 348,150 330,123 311,99 291,79 271,64 261,58 250,54 239,51 228,50 216,50 205,52 194,56 184,62"/>
</g>
</svg>
