<?xml version="1.0" encoding="UTF-8" standalone="no"?>
<!DOCTYPE svg PUBLIC "-//W3C//DTD SVG 1.0//EN" "http://www.w3.org/TR/2001/REC-SVG-20010904/DTD/svg10.dtd">
<svg xmlns="http://www.w3.org/2000/svg" xmlns:xlink="http://www.w3.org/1999/xlink" fill-rule="evenodd" height="1.013in" preserveAspectRatio="none" stroke-linecap="round" viewBox="0 0 233 1013" width="0.233in">
<style type="text/css">
.brush0 { fill: rgb(255,255,255); }
.pen0 { stroke: rgb(0,0,0); stroke-width: 1; stroke-linejoin: round; }
.brush1 { fill: none; }
.pen1 { stroke: none; }
.brush2 { fill: rgb(0,0,0); }
</style>
<g>
<polygon class="pen1 brush2" points="88,1000 79,990 69,977 59,961 49,942 39,921 30,898 22,875 14,850 8,821 4,791 2,763 3,736 7,712 15,688 26,665 39,641 52,617 65,593 78,569 88,544 91,511 86,460 75,396 62,322 48,243 36,163 30,85 30,13 46,9 62,8 77,8 92,9 107,10 122,10 139,8 156,4 142,16 123,34 100,58 79,86 62,120 53,158 56,202 74,250 85,269 99,290 115,311 131,334 147,357 162,381 175,405 186,429 192,446 195,464 197,482 195,500 192,509 188,518 183,528 177,537 170,546 161,555 151,564 139,573 124,584 110,594 98,603 87,614 77,626 66,640 55,657 43,679 31,710 24,742 23,776 27,810 36,844 50,876 69,907 91,935 105,946 124,959 146,971 169,984 191,995 210,1004 224,1010 230,1013 225,1013 210,1011 187,1009 161,1007 135,1005 112,1003 95,1001 88,1000"/>
</g>
</svg>
