<?xml version="1.0" encoding="UTF-8" standalone="no"?>
<!DOCTYPE svg PUBLIC "-//W3C//DTD SVG 1.0//EN" "http://www.w3.org/TR/2001/REC-SVG-20010904/DTD/svg10.dtd">
<svg xmlns="http://www.w3.org/2000/svg" xmlns:xlink="http://www.w3.org/1999/xlink" fill-rule="evenodd" height="0.506in" preserveAspectRatio="none" stroke-linecap="round" viewBox="0 0 882 506" width="0.882in">
<style type="text/css">
.brush0 { fill: rgb(255,255,255); }
.pen0 { stroke: rgb(0,0,0); stroke-width: 1; stroke-linejoin: round; }
.brush1 { fill: none; }
.pen1 { stroke: none; }
.brush2 { fill: rgb(0,0,0); }
.brush3 { fill: rgb(191,191,255); }
</style>
<g>
<polygon class="pen1 brush2" points="604,328 606,331 603,336 597,345 592,356 587,364 583,370 579,374 573,381 569,387 569,389 572,390 576,392 581,394 586,395 592,396 599,397 604,400 604,404 601,409 597,414 594,418 591,422 586,428 579,436 573,444 569,449 565,453 559,460 553,468 549,472 547,477 544,482 542,487 541,491 540,494 538,498 534,501 529,504 521,505 513,505 508,504 503,503 498,502 492,501 486,500 480,499 473,498 465,498 458,498 451,498 444,497 437,497 431,497 425,496 419,495 414,494 405,493 399,493 393,494 385,495 381,494 381,491 384,487 388,483 393,478 399,473 403,468 407,465 431,459 429,461 424,464 418,469 416,473 417,475 419,474 423,474 429,473 434,472 437,471 439,468 443,465 478,473 486,472 493,472 500,471 505,471 509,471 514,472 518,472 521,472 524,470 528,468 532,465 533,464 536,456 551,436 553,435 558,432 565,427 572,420 578,413 582,409 584,408 585,408 570,405 572,413 571,414 569,415 566,417 563,419 559,422 556,428 552,434 551,436 536,456 534,457 529,460 523,462 516,464 510,464 504,463 499,462 494,463 489,466 484,469 480,472 478,473 443,465 444,462 439,460 434,459 431,459 407,465 413,459 421,450 428,440 434,429 439,422 447,413 456,402 467,390 478,378 488,365 497,353 504,343 506,341 507,338 509,335 511,333 508,357 505,360 498,366 490,373 485,377 481,383 477,392 473,402 471,407 474,407 480,403 487,397 492,392 494,390 495,388 497,386 499,383 500,418 496,421 491,426 486,432 482,436 477,441 472,446 468,450 466,452 496,436 497,435 498,432 500,429 501,426 501,423 501,421 500,419 500,418 499,383 502,379 505,375 507,372 508,371 508,370 508,366 508,361 508,357 511,333 517,325 524,318 532,310 539,303 547,295 555,288 562,280 569,272 576,263 582,255 588,249 592,243 597,238 601,234 605,229 609,225 617,219 620,216 622,215 622,215 629,219 628,223 625,233 621,246 617,258 612,267 607,275 600,285 590,299 581,313 578,320 579,323 583,325 589,327 594,327 599,328 604,328 588,337 578,335 571,337 577,342 571,357 571,357 572,357 574,357 576,356 579,352 583,346 587,340 588,337 604,328"/>
<polygon class="pen1 brush2" points="579,119 589,130 590,133 594,141 597,150 599,156 597,155 591,148 584,139 577,130 574,124 575,121 578,119 579,119 578,97 575,98 574,102 572,110 569,120 567,126 565,131 564,137 563,142 566,145 573,149 583,158 591,167 595,171 598,175 606,184 614,192 617,193 616,188 615,181 612,173 610,165 608,158 606,152 604,145 600,133 594,120 587,108 581,100 578,97 579,119"/>
<polygon class="pen1 brush2" points="628,47 628,47 630,46 632,45 635,44 641,44 641,47 640,55 639,65 639,72 638,80 637,90 636,100 635,107 635,108 635,103 634,96 634,93 628,47 620,41 623,52 624,67 625,81 625,91 626,103 627,121 628,139 629,146 635,166 636,165 638,164 640,161 641,157 641,151 641,142 642,129 643,112 645,94 647,78 648,64 649,53 649,45 649,38 648,34 646,32 642,32 636,33 631,34 629,34 620,41 628,47"/>
<polygon class="pen1 brush2" points="695,110 694,114 692,120 690,127 688,131 686,135 684,141 683,145 683,146 687,140 693,132 698,124 701,121 695,110 694,85 695,86 699,88 704,93 709,99 713,105 715,109 717,113 718,118 717,123 713,127 707,132 699,137 691,145 684,156 678,166 673,175 670,178 669,175 668,170 668,163 669,156 672,147 676,137 683,126 687,115 689,107 689,98 690,89 694,85 695,110"/>
<polygon class="pen1 brush2" points="651,484 645,485 640,487 636,489 632,490 629,489 627,486 626,483 626,481 639,471 640,471 643,472 647,473 653,474 659,475 666,476 673,477 679,478 688,479 695,479 700,479 706,480 709,481 707,483 702,485 695,486 689,486 682,485 674,484 668,483 664,482 660,482 656,483 651,484 664,493 671,493 675,493 680,493 689,494 696,495 702,495 707,496 713,497 718,498 722,499 727,499 731,498 738,496 744,494 750,493 760,491 766,490 772,489 778,488 783,487 788,486 793,486 798,485 803,485 787,450 786,450 783,450 778,451 772,451 766,452 761,453 756,453 753,454 748,454 743,452 738,450 734,447 730,446 727,446 724,448 720,450 715,451 711,451 706,450 701,449 700,447 704,445 710,442 715,441 716,441 719,441 724,441 730,442 735,442 740,443 744,444 747,445 751,446 755,446 761,445 767,444 774,445 780,447 785,449 787,450 803,485 811,485 815,484 819,484 827,485 834,486 838,487 840,488 844,487 850,485 855,484 860,482 865,479 871,476 876,473 880,472 882,471 882,469 880,464 878,459 875,455 871,452 867,450 862,446 854,439 848,436 849,439 847,441 842,441 837,440 836,439 835,436 835,432 836,429 839,428 842,430 845,433 848,436 854,439 850,435 844,429 836,418 826,403 820,395 815,387 811,381 808,377 805,374 801,373 796,371 791,370 788,370 786,369 784,368 781,366 776,379 789,390 791,391 795,394 800,397 807,401 813,406 817,412 819,416 819,418 817,417 811,414 805,411 800,409 796,408 792,405 787,400 782,392 778,385 776,381 776,379 776,379 781,366 775,362 767,357 759,352 754,347 717,360 719,363 721,367 722,371 723,374 724,378 726,386 728,394 730,401 730,403 727,399 723,393 720,387 718,382 714,377 711,373 710,371 709,376 701,372 701,370 702,366 704,361 709,356 713,353 715,354 715,357 717,360 754,347 752,343 750,340 747,335 742,326 737,319 732,310 725,302 719,293 713,285 707,278 703,273 701,270 698,264 695,256 691,248 689,243 687,240 684,236 681,232 679,227 678,222 676,218 674,214 673,213 666,230 667,231 669,232 671,234 673,236 675,240 678,246 681,252 682,254 687,289 716,300 717,302 721,305 725,310 728,314 731,319 735,325 739,332 742,336 739,334 732,327 724,319 720,315 714,323 713,322 710,319 705,315 699,309 694,304 691,299 689,294 687,289 682,254 680,252 674,249 668,246 664,244 663,242 664,237 665,232 666,230 673,213 662,217 662,219 661,223 658,230 654,238 649,246 644,253 638,260 633,268 639,284 640,285 642,287 644,290 648,293 651,295 653,298 655,301 658,304 658,305 656,305 653,303 648,301 643,299 638,297 634,295 631,294 630,292 632,289 636,286 639,284 633,268 628,276 624,282 621,287 619,290 617,293 616,296 615,299 614,300 616,301 620,303 625,305 631,307 637,309 642,311 646,312 647,313 648,314 649,316 648,321 643,330 637,339 632,348 628,355 625,360 622,364 619,367 617,369 616,370 618,371 622,374 627,378 632,381 638,384 645,387 651,390 653,391 669,387 684,384 691,371 690,372 686,373 681,373 677,370 690,365 699,352 698,353 696,354 694,357 691,359 689,358 688,353 687,348 687,345 699,352 690,365 691,371 684,384 684,385 683,387 681,390 679,394 677,396 675,396 674,393 672,390 669,387 653,391 653,393 653,397 652,404 647,411 643,415 638,420 633,426 628,432 624,439 619,444 616,448 614,451 614,455 615,459 618,463 619,464 618,464 615,466 611,469 608,474 602,481 594,490 591,497 597,501 603,501 608,502 612,502 616,502 619,503 623,502 626,502 630,501 634,500 638,498 643,497 647,496 651,495 656,494 660,493 664,493 651,484"/>
<polygon class="pen1 brush3" points="7,2 7,0 0,0 0,2 7,2"/>
</g>
</svg>
