<?xml version="1.0" encoding="UTF-8" standalone="no"?>
<!DOCTYPE svg PUBLIC "-//W3C//DTD SVG 1.0//EN" "http://www.w3.org/TR/2001/REC-SVG-20010904/DTD/svg10.dtd">
<svg xmlns="http://www.w3.org/2000/svg" xmlns:xlink="http://www.w3.org/1999/xlink" fill-rule="evenodd" height="0.669in" preserveAspectRatio="none" stroke-linecap="round" viewBox="0 0 669 669" width="0.669in">
<style type="text/css">
.brush0 { fill: rgb(255,255,255); }
.pen0 { stroke: rgb(0,0,0); stroke-width: 1; stroke-linejoin: round; }
.brush1 { fill: none; }
.pen1 { stroke: none; }
.brush2 { fill: rgb(0,0,0); }
</style>
<g>
<polygon class="pen1 brush2" points="335,669 369,667 402,662 434,654 465,643 494,629 522,612 547,593 571,571 593,547 612,522 629,494 643,465 654,434 662,402 667,369 669,335 667,301 662,267 654,235 643,205 629,175 612,148 593,122 571,98 547,77 522,57 494,40 465,26 434,15 402,7 369,2 335,0 301,2 267,7 235,15 205,26 175,40 148,57 122,77 98,98 77,122 57,148 40,175 26,205 15,235 7,267 2,301 0,335 2,369 7,402 15,434 26,465 40,494 57,522 77,547 98,571 122,593 148,612 175,629 205,643 235,654 267,662 301,667 335,669"/>
<polygon class="pen1 brush0" points="76,320 81,326 87,333 94,342 101,351 107,360 114,369 120,377 125,383 129,389 134,393 138,397 143,401 147,403 151,406 154,408 158,410 164,412 170,414 176,417 182,423 186,429 187,432 190,434 197,436 203,438 209,440 216,443 222,446 228,450 232,454 235,459 236,463 233,468 227,469 220,468 212,469 207,470 201,471 194,473 186,474 177,475 168,475 159,475 151,473 158,479 169,487 183,496 199,504 215,512 233,519 249,523 264,526 271,525 281,525 291,527 303,530 315,534 325,537 334,539 340,541 345,542 350,542 356,542 362,542 367,541 373,541 378,540 382,540 386,540 391,540 396,539 401,539 407,538 412,537 418,536 423,535 427,535 431,535 435,536 438,536 442,535 447,534 453,531 460,526 469,521 477,517 486,514 495,512 503,509 510,506 515,502 519,496 522,490 526,483 530,477 535,471 540,466 545,462 550,458 555,456 561,446 568,434 574,422 578,413 579,418 579,429 574,443 563,457 561,462 559,468 556,474 553,482 548,489 543,496 537,501 530,505 526,510 522,515 517,520 512,525 507,530 503,535 498,539 494,542 490,545 486,549 481,554 476,560 469,565 460,571 449,577 435,582 443,584 437,586 431,588 425,590 419,591 412,593 404,594 395,595 386,597 377,598 369,599 361,599 354,599 348,599 342,599 337,600 331,601 325,602 318,603 311,603 304,603 297,602 290,601 282,600 274,598 265,596 255,593 244,590 233,586 221,581 209,575 198,567 188,558 178,558 170,551 161,542 152,532 142,520 133,508 125,495 118,482 113,470 108,464 101,463 94,468 91,478 90,492 87,506 82,518 74,528 69,530 70,525 73,517 77,508 77,501 75,495 73,489 74,482 76,473 75,463 73,453 71,445 68,437 64,429 62,421 63,412 66,397 67,375 70,348 76,320"/>
<polygon class="pen1 brush0" points="77,302 83,293 89,283 93,272 95,256 101,250 106,242 111,234 117,225 121,216 126,207 131,200 135,193 140,187 145,182 151,178 158,173 164,170 170,167 176,165 181,163 190,158 199,151 205,145 208,143 221,139 237,135 255,132 274,129 294,126 313,125 330,124 345,124 352,128 359,132 368,136 378,140 390,143 402,146 416,147 431,148 442,153 458,161 478,173 499,188 520,206 540,226 558,248 572,272 568,271 564,270 561,269 557,268 553,268 549,268 544,267 538,267 532,267 525,266 518,265 511,264 504,263 497,262 491,261 485,261 479,261 473,261 467,260 461,260 455,260 451,259 448,259 447,259 452,265 459,271 466,279 472,288 476,292 481,297 487,301 494,305 501,308 508,311 514,313 519,315 527,317 535,319 542,324 548,330 552,334 556,337 562,340 567,343 573,346 579,349 584,351 588,353 592,355 596,358 601,360 606,362 611,363 615,365 617,366 618,366 624,350 628,331 629,314 627,304 626,294 626,285 625,277 624,269 623,262 623,257 624,254 626,250 627,245 627,238 625,229 625,219 625,211 624,209 622,211 620,218 617,227 614,235 611,243 609,251 606,257 602,261 596,270 591,287 588,265 583,247 577,230 572,215 569,207 566,198 562,188 557,177 552,167 545,156 537,147 529,138 521,131 514,126 507,121 501,117 495,114 489,110 482,106 475,100 467,94 457,89 448,85 438,81 428,78 419,75 410,74 403,73 397,72 391,70 385,68 380,66 373,65 365,64 356,65 345,68 337,67 330,67 324,66 319,66 314,66 309,66 303,67 297,68 290,69 281,70 271,70 260,71 249,72 239,75 229,79 221,85 227,89 222,92 216,94 211,97 205,99 200,103 194,107 188,112 182,119 176,126 170,131 164,136 158,141 151,145 145,150 139,154 133,159 126,168 125,174 125,180 123,187 116,196 107,208 99,221 96,232 92,244 85,261 78,280 77,302"/>
</g>
</svg>
