<?xml version="1.0" encoding="UTF-8" standalone="no"?>
<!DOCTYPE svg PUBLIC "-//W3C//DTD SVG 1.0//EN" "http://www.w3.org/TR/2001/REC-SVG-20010904/DTD/svg10.dtd">
<svg xmlns="http://www.w3.org/2000/svg" xmlns:xlink="http://www.w3.org/1999/xlink" fill-rule="evenodd" height="0.994in" preserveAspectRatio="none" stroke-linecap="round" viewBox="0 0 666 994" width="0.666in">
<style type="text/css">
.brush0 { fill: rgb(255,255,255); }
.pen0 { stroke: rgb(0,0,0); stroke-width: 1; stroke-linejoin: round; }
.brush1 { fill: none; }
.pen1 { stroke: none; }
.brush2 { fill: rgb(0,0,0); }
</style>
<g>
<polygon class="pen1 brush2" points="10,986 6,743 4,499 5,254 10,8 190,5 210,23 227,44 240,69 250,95 255,123 257,151 255,180 248,207 240,225 229,241 214,256 198,270 180,284 161,297 141,310 122,323 104,336 88,351 74,367 63,384 55,403 52,424 54,447 61,473 71,493 84,513 100,532 118,550 138,568 158,586 178,604 198,622 215,640 231,659 244,679 253,700 257,722 257,746 251,771 238,798 222,822 204,844 183,867 162,889 140,912 119,936 101,960 85,986 76,986 67,986 58,986 49,986 40,986 30,986 20,986 10,986 10,986"/>
<polygon class="pen1 brush2" points="216,986 346,983 373,943 397,907 415,875 430,845 441,818 447,792 450,768 449,744 444,720 435,696 423,670 407,642 387,611 364,577 338,540 309,498 293,469 288,441 290,413 300,386 316,359 335,332 358,304 382,276 406,248 429,218 449,187 465,155 475,121 479,85 474,48 460,8 444,6 428,5 413,5 398,5 383,5 368,6 354,7 339,8 347,58 350,101 349,138 344,169 336,195 325,218 311,238 296,255 279,271 261,286 243,302 226,319 208,337 192,358 178,383 166,412 164,431 170,451 183,473 201,495 222,519 245,545 269,573 290,604 309,638 323,676 331,717 330,761 320,810 299,864 265,922 216,986 216,986"/>
<polygon class="pen1 brush2" points="434,986 442,968 453,952 466,935 480,920 495,904 511,888 526,872 542,856 557,838 570,820 582,801 592,780 600,757 604,732 605,705 602,676 596,653 587,633 575,615 561,600 545,586 527,573 508,561 489,550 471,539 453,528 436,517 421,504 408,490 398,474 391,456 388,436 389,419 393,404 401,388 412,374 424,360 439,346 455,332 472,319 489,306 507,293 524,280 540,267 555,254 569,240 580,227 588,213 600,180 605,151 603,125 595,100 583,77 569,54 553,29 538,3 555,3 572,3 588,3 604,2 619,2 633,2 646,2 659,3 663,246 664,490 665,735 666,980 652,982 638,984 624,985 610,986 596,986 581,986 567,986 552,986 538,986 523,985 508,985 494,984 479,984 464,985 449,985 434,986"/>
</g>
</svg>
