<?xml version="1.0" encoding="UTF-8" standalone="no"?>
<!DOCTYPE svg PUBLIC "-//W3C//DTD SVG 1.0//EN" "http://www.w3.org/TR/2001/REC-SVG-20010904/DTD/svg10.dtd">
<svg xmlns="http://www.w3.org/2000/svg" xmlns:xlink="http://www.w3.org/1999/xlink" fill-rule="evenodd" height="0.515in" preserveAspectRatio="none" stroke-linecap="round" viewBox="0 0 171 515" width="0.171in">
<style type="text/css">
.brush0 { fill: rgb(255,255,255); }
.pen0 { stroke: rgb(0,0,0); stroke-width: 1; stroke-linejoin: round; }
.brush1 { fill: none; }
.pen1 { stroke: none; }
.brush2 { fill: rgb(0,0,0); }
</style>
<g>
<polygon class="pen1 brush2" points="124,508 131,509 139,511 145,513 148,514 145,510 140,503 134,496 131,490 133,484 139,474 144,466 146,462 144,463 137,466 128,469 117,474 106,478 95,481 87,483 81,483 77,482 72,479 67,477 62,474 59,471 56,468 56,465 58,462 62,459 66,456 71,453 77,450 82,447 88,444 94,442 99,441 105,440 111,439 116,437 122,436 127,433 131,431 135,428 137,425 143,419 150,412 152,403 147,392 141,386 135,382 128,380 121,380 114,380 107,382 100,383 93,384 87,385 83,386 78,386 75,387 70,387 66,386 60,384 53,382 46,379 40,377 35,374 32,372 29,370 28,367 29,365 31,362 35,359 41,356 47,353 53,351 60,349 66,347 71,346 74,346 77,346 82,346 88,346 94,346 100,346 105,346 110,346 114,346 118,346 124,345 130,344 137,342 143,340 149,337 153,334 155,331 157,320 158,305 154,291 141,285 133,285 125,285 117,286 110,286 103,286 95,286 87,285 79,284 71,282 63,281 55,281 49,280 43,280 39,279 35,278 33,276 28,270 23,262 21,255 27,252 32,252 37,253 41,253 46,254 50,254 56,255 63,254 71,254 81,254 91,254 101,254 111,254 120,254 128,253 134,251 139,248 148,239 157,227 164,216 165,204 163,199 160,195 155,191 150,188 144,187 137,185 131,185 124,185 117,186 111,187 105,188 100,189 94,190 89,191 84,192 78,192 72,192 66,192 60,192 54,192 49,192 44,191 39,189 36,187 30,181 27,174 27,167 32,163 36,162 41,161 46,160 51,159 57,158 63,158 69,157 75,156 86,154 94,152 100,150 104,146 107,140 109,134 109,129 106,123 99,107 116,109 145,121 144,119 140,114 133,103 123,87 116,77 110,67 103,57 96,47 91,38 86,29 83,21 81,15 78,13 74,22 71,34 69,40 69,44 69,52 67,63 63,71 58,78 54,87 49,95 44,103 39,109 35,114 32,118 31,119 51,115 81,104 83,108 87,118 90,129 90,137 90,135 86,135 81,136 75,138 69,141 64,143 62,144 62,144 57,145 53,144 48,144 43,143 38,142 32,142 27,144 22,148 12,158 6,167 4,175 7,182 10,185 14,189 18,193 22,197 27,201 32,204 37,206 43,207 49,207 56,208 63,208 70,209 77,209 83,209 89,209 94,208 100,207 107,205 114,204 121,203 128,202 133,202 137,204 138,207 139,215 140,221 138,226 129,230 121,231 112,232 103,233 94,234 85,234 76,235 68,235 61,236 54,236 47,236 40,235 33,235 27,235 22,235 18,236 16,239 13,247 10,256 8,266 12,275 15,280 18,285 21,289 26,294 33,298 42,301 54,303 69,304 75,304 84,302 94,301 105,300 116,299 125,299 132,300 135,303 136,310 136,317 134,323 129,329 125,331 121,332 116,333 111,333 105,333 98,333 90,333 81,333 72,333 63,333 55,334 46,334 39,335 32,337 25,339 20,342 13,352 12,365 18,379 31,390 38,394 45,397 50,399 55,400 59,401 62,402 64,403 66,404 68,405 71,406 74,406 78,406 83,406 87,406 92,405 96,405 101,405 107,404 113,403 118,403 123,404 126,404 128,406 127,409 122,416 117,421 109,425 98,426 92,426 87,426 82,425 78,425 74,425 71,426 68,428 65,431 61,434 56,438 50,441 43,444 37,448 32,452 29,457 28,462 29,471 32,477 40,482 55,488 64,491 70,494 76,497 80,499 84,500 89,501 93,501 99,501 105,502 109,504 115,506 124,508"/>
<polygon class="pen1 brush0" points="118,515 117,509 115,495 113,480 114,470 114,467 112,466 108,467 105,469 103,473 102,478 102,483 102,485 102,488 104,493 105,500 105,504 107,507 112,511 116,514 118,515"/>
<polygon class="pen1 brush0" points="78,509 76,486 83,473 70,472 69,474 68,479 67,484 66,488 66,491 67,495 67,499 67,500 78,509"/>
<polygon class="pen1 brush0" points="59,465 45,464 30,469 25,472 28,462 29,455 39,452 55,454 68,458 59,465"/>
<polygon class="pen1 brush0" points="89,452 83,447 75,443 60,436 47,437 57,429 72,431 74,431 77,433 82,434 85,436 88,439 92,442 96,446 97,447 89,452"/>
<polygon class="pen1 brush0" points="118,442 105,428 96,419 111,416 122,423 132,431 118,442"/>
<polygon class="pen1 brush0" points="147,406 146,406 143,407 139,408 136,408 132,408 127,408 122,408 120,408 118,403 139,398 147,384 149,385 153,387 157,390 158,393 157,395 156,396 154,397 154,397 147,406"/>
<polygon class="pen1 brush0" points="106,409 106,398 111,378 102,381 99,395 97,402 98,408 106,409"/>
<polygon class="pen1 brush0" points="71,411 81,392 80,381 67,381 65,392 63,406 60,410 71,411"/>
<polygon class="pen1 brush0" points="36,398 38,393 41,385 45,378 46,375 38,372 32,386 31,386 28,388 26,389 26,391 29,393 32,395 35,397 36,398"/>
<polygon class="pen1 brush0" points="31,364 16,366 9,365 9,355 19,359 36,360 31,364"/>
<polygon class="pen1 brush0" points="47,356 38,352 34,342 31,331 37,331 43,341 45,343 50,347 54,351 55,353 52,353 50,354 48,356 47,356"/>
<polygon class="pen1 brush0" points="69,349 63,340 63,330 72,330 72,335 77,348 69,349"/>
<polygon class="pen1 brush0" points="109,348 99,349 96,344 93,332 101,331 100,338 103,344 109,348"/>
<polygon class="pen1 brush0" points="137,344 130,342 123,334 121,328 128,323 133,334 144,336 157,336 148,342 137,344"/>
<polygon class="pen1 brush0" points="159,302 152,310 141,310 133,308 129,300 138,298 147,291 150,285 157,292 159,302"/>
<polygon class="pen1 brush0" points="109,283 102,284 103,292 102,300 100,306 107,306 112,298 109,283"/>
<polygon class="pen1 brush0" points="80,280 72,279 74,290 66,309 74,307 81,295 80,280"/>
<polygon class="pen1 brush0" points="47,277 39,274 37,290 24,297 33,302 43,298 47,277"/>
<polygon class="pen1 brush0" points="29,262 24,255 15,260 5,257 6,266 15,268 29,262"/>
<polygon class="pen1 brush0" points="42,255 35,247 35,230 42,233 39,244 51,257 42,255"/>
<polygon class="pen1 brush0" points="80,256 68,255 65,244 63,232 69,229 71,245 80,256"/>
<polygon class="pen1 brush0" points="105,259 98,257 93,243 94,227 104,228 103,247 108,253 115,261 105,259"/>
<polygon class="pen1 brush0" points="144,250 138,254 130,247 126,235 125,233 124,230 123,227 124,225 127,225 129,224 130,224 130,224 132,236 136,243 147,245 144,250"/>
<polygon class="pen1 brush0" points="166,219 153,219 141,216 135,212 135,205 152,206 168,201 171,206 166,219"/>
<polygon class="pen1 brush0" points="120,207 114,210 115,199 111,187 110,186 109,184 108,182 109,182 113,182 118,182 123,181 125,181 123,194 120,207"/>
<polygon class="pen1 brush0" points="89,213 80,213 78,207 81,196 78,188 92,186 94,198 89,213"/>
<polygon class="pen1 brush0" points="59,189 51,188 50,198 39,209 40,210 43,211 46,212 49,211 52,208 56,206 59,204 60,203 59,189"/>
<polygon class="pen1 brush0" points="33,181 32,174 21,181 9,177 2,175 8,187 21,187 33,181"/>
<polygon class="pen1 brush0" points="46,163 35,163 26,157 22,142 32,139 33,152 38,156 46,163"/>
<polygon class="pen1 brush0" points="84,160 74,161 65,153 62,138 69,138 71,148 77,156 84,160"/>
<polygon class="pen1 brush0" points="116,133 115,134 112,135 109,137 106,138 102,138 97,137 92,137 90,137 84,129 84,124 93,128 100,129 110,123 116,133"/>
</g>
</svg>
