<?xml version="1.0" encoding="UTF-8" standalone="no"?>
<!DOCTYPE svg PUBLIC "-//W3C//DTD SVG 1.0//EN" "http://www.w3.org/TR/2001/REC-SVG-20010904/DTD/svg10.dtd">
<svg xmlns="http://www.w3.org/2000/svg" xmlns:xlink="http://www.w3.org/1999/xlink" fill-rule="evenodd" height="0.766in" preserveAspectRatio="none" stroke-linecap="round" viewBox="0 0 999 766" width="0.999in">
<style type="text/css">
.brush0 { fill: rgb(255,255,255); }
.pen0 { stroke: rgb(0,0,0); stroke-width: 1; stroke-linejoin: round; }
.brush1 { fill: none; }
.pen1 { stroke: none; }
.brush2 { fill: rgb(0,0,0); }
</style>
<g>
<polygon class="pen1 brush2" points="594,743 586,712 589,681 600,648 616,615 630,583 640,553 642,524 631,497 614,490 594,508 573,543 551,589 531,639 512,686 496,724 485,746 480,750 475,754 470,755 465,756 461,756 456,756 452,754 448,753 441,744 436,731 431,717 421,706 411,703 400,704 389,707 378,710 368,712 361,711 357,705 357,692 361,678 368,665 377,653 389,642 402,631 417,622 432,612 447,603 462,594 476,585 488,577 498,568 506,558 511,548 512,538 509,527 491,534 473,542 456,551 439,561 422,571 405,583 389,595 373,608 358,622 342,635 328,650 313,664 299,679 285,694 272,708 259,723 252,730 244,736 235,741 226,745 217,747 208,749 199,750 191,749 184,744 180,734 176,721 165,706 155,699 143,695 129,693 116,691 105,689 97,685 95,678 98,668 109,657 127,645 151,634 181,622 214,610 250,599 287,587 324,575 360,563 394,551 424,539 449,527 468,515 480,503 483,491 476,479 469,481 457,484 443,486 425,489 405,492 382,496 357,499 331,502 304,504 275,507 247,509 219,510 191,511 163,512 137,511 113,510 100,509 88,507 76,506 66,504 56,501 47,499 40,496 33,492 24,484 20,475 22,463 30,449 42,439 57,433 74,431 92,431 111,432 129,432 148,432 165,429 176,423 181,414 180,403 171,392 154,384 135,381 115,383 94,386 74,388 54,389 36,385 19,375 9,363 4,352 3,342 6,334 8,330 11,327 14,324 18,321 22,318 27,315 32,313 37,310 47,307 58,305 68,303 79,302 89,301 99,301 108,301 116,301 131,304 150,311 172,320 197,332 225,345 254,359 285,374 315,388 346,401 375,413 403,423 429,429 452,432 472,432 487,426 498,415 472,397 445,379 417,362 388,346 359,330 329,315 299,300 268,285 237,271 205,256 174,242 142,228 110,213 79,199 47,184 16,169 17,156 20,144 25,135 32,127 41,121 51,116 63,113 77,111 96,111 115,112 134,115 152,117 168,120 182,121 193,121 199,118 203,98 208,83 215,72 223,65 233,63 245,66 259,73 277,85 290,96 303,107 316,119 328,131 340,144 351,158 363,171 374,185 389,205 403,225 418,246 433,266 448,286 463,306 479,325 495,343 512,360 530,376 550,391 570,404 592,415 615,424 640,431 667,435 687,434 699,427 704,415 703,400 699,383 693,366 685,350 678,337 669,323 659,309 648,295 635,282 622,268 609,255 594,241 580,228 565,215 551,202 536,190 522,177 508,165 495,153 483,142 472,131 460,118 450,106 442,95 436,84 432,74 431,64 433,55 437,46 456,35 475,34 493,41 511,53 529,66 544,79 558,88 570,91 572,80 575,63 579,44 586,27 590,21 595,17 601,13 608,12 616,12 625,14 636,19 648,26 658,33 666,42 674,53 681,66 687,81 693,97 698,114 702,132 713,183 725,237 736,291 748,340 761,379 775,406 790,415 807,402 814,388 814,373 811,357 806,341 803,326 803,313 811,301 827,293 848,290 868,297 885,310 899,328 907,350 910,373 906,397 894,419 890,423 884,426 878,430 871,433 865,437 860,442 858,448 860,455 868,465 878,472 890,476 903,478 917,481 931,484 945,489 958,496 971,511 974,527 969,541 955,550 941,551 927,546 915,538 903,528 891,519 879,511 867,508 854,510 840,518 831,527 828,536 828,546 833,557 841,568 851,579 864,590 878,602 894,614 909,625 925,637 940,648 954,659 966,669 976,679 982,687 986,696 989,705 989,713 986,721 981,728 971,733 958,735 945,732 932,723 921,711 910,697 898,683 886,672 872,665 857,665 850,668 846,675 843,684 842,694 840,704 836,713 831,719 823,723 809,720 801,705 798,681 797,650 796,613 793,574 788,534 776,496 768,483 757,474 744,469 732,468 720,472 710,482 704,497 702,519 706,544 714,568 725,593 735,618 744,643 748,668 746,694 736,720 729,729 722,729 715,723 708,714 702,702 696,690 690,680 684,675 670,675 665,686 663,705 660,725 655,736 648,745 639,751 629,755 618,756 609,754 600,750 594,743"/>
</g>
</svg>
