<?xml version="1.0" encoding="UTF-8" standalone="no"?>
<!DOCTYPE svg PUBLIC "-//W3C//DTD SVG 1.0//EN" "http://www.w3.org/TR/2001/REC-SVG-20010904/DTD/svg10.dtd">
<svg xmlns="http://www.w3.org/2000/svg" xmlns:xlink="http://www.w3.org/1999/xlink" fill-rule="evenodd" height="1.057in" preserveAspectRatio="none" stroke-linecap="round" viewBox="0 0 995 1057" width="0.995in">
<style type="text/css">
.brush0 { fill: rgb(255,255,255); }
.pen0 { stroke: rgb(0,0,0); stroke-width: 1; stroke-linejoin: round; }
.brush1 { fill: none; }
.pen1 { stroke: none; }
.brush2 { fill: rgb(0,0,0); }
</style>
<g>
<polygon class="pen1 brush2" points="722,359 703,357 682,356 661,356 638,358 614,360 590,364 566,369 542,374 517,381 494,388 471,396 450,405 429,415 411,425 394,436 379,447 391,474 387,478 384,484 383,491 382,499 382,499 384,510 388,520 395,530 403,538 413,544 423,547 434,545 444,539 453,526 454,512 449,499 440,487 428,477 414,471 402,470 391,474 379,447 397,448 415,450 432,455 446,461 459,471 469,484 475,501 477,521 476,528 475,537 473,545 473,553 473,559 477,562 484,562 495,558 495,584 487,586 481,590 477,598 475,610 475,610 476,621 481,632 487,642 494,650 503,655 513,657 522,655 531,647 537,635 538,624 536,613 530,603 523,595 514,589 504,585 495,584 495,558 509,554 522,555 534,562 544,572 551,584 557,598 561,612 562,626 560,636 554,650 547,666 541,682 537,696 539,706 548,710 567,705 567,725 563,726 558,729 554,732 550,736 543,752 544,766 550,777 560,783 571,785 582,780 590,769 593,750 593,750 593,750 591,738 585,729 577,725 567,725 567,705 587,701 602,705 611,716 616,731 616,750 612,770 605,789 594,805 586,817 584,825 586,830 593,833 601,837 610,840 618,845 623,853 630,884 628,911 619,936 604,958 585,978 565,997 545,1017 527,1036 541,992 558,984 569,971 576,954 578,934 577,910 573,884 566,857 557,828 547,800 535,772 523,746 512,721 501,699 491,681 483,666 477,656 463,634 448,613 432,592 415,572 397,553 379,534 361,516 342,497 322,480 303,462 283,445 263,427 244,410 224,392 205,375 186,357 175,345 156,324 133,296 107,266 83,237 61,212 46,195 40,188 32,193 32,207 36,227 45,250 54,274 64,294 72,310 76,317 104,358 135,397 168,434 202,469 236,504 272,538 307,573 341,607 374,643 406,679 435,717 462,757 485,799 505,844 520,892 531,944 534,962 537,976 539,986 541,992 527,1036 516,1036 517,997 515,960 510,923 501,888 490,855 476,822 459,790 441,759 420,730 398,701 374,673 349,645 323,619 296,592 268,567 240,542 220,559 201,576 183,594 166,611 150,629 136,648 123,666 110,685 99,704 90,723 81,743 73,763 67,783 62,804 58,825 55,846 74,825 93,804 112,787 132,774 152,769 172,773 193,788 213,817 219,827 225,837 230,848 233,860 220,860 211,859 206,858 202,856 198,853 194,849 187,842 176,834 164,830 157,837 151,850 146,866 138,881 125,891 107,891 79,878 62,875 50,888 43,914 39,947 38,982 38,1016 39,1042 39,1057 17,1057 17,1017 18,978 20,940 23,902 28,865 34,827 42,790 53,751 59,720 57,697 49,679 37,664 24,649 12,633 3,613 0,586 0,586 4,573 14,548 24,534 28,551 30,558 35,567 43,577 55,590 70,612 77,637 80,664 83,690 98,666 113,643 129,621 146,600 164,580 183,560 203,541 224,522 200,498 178,475 156,452 136,430 117,407 99,385 82,363 67,340 53,316 41,291 31,265 22,238 15,209 10,178 7,145 6,110 7,80 11,68 16,71 23,85 29,104 35,124 40,141 43,151 51,162 61,168 73,171 84,173 94,176 102,181 107,191 108,207 108,226 111,237 116,243 124,243 133,241 142,237 151,234 160,232 179,250 165,253 155,262 151,275 152,289 158,303 167,316 181,325 199,328 199,328 199,328 209,325 215,316 217,303 216,289 211,275 203,262 192,253 179,250 160,232 196,237 217,250 228,269 232,290 232,311 234,330 241,343 256,348 262,347 267,345 272,341 276,337 280,334 284,330 289,328 293,327 312,330 326,339 336,352 342,369 344,387 344,405 342,423 339,438 319,417 327,404 325,390 317,378 304,368 290,362 277,362 267,369 263,384 263,384 263,384 265,393 269,402 275,410 284,416 292,421 302,423 311,422 319,417 339,438 356,423 375,409 396,397 417,385 440,374 463,365 487,356 512,348 536,341 561,335 586,330 611,325 636,322 660,319 683,316 705,314 697,302 691,291 685,280 681,270 677,261 675,252 673,244 673,237 709,255 715,277 729,286 750,284 775,272 799,253 820,229 834,202 840,174 840,174 840,174 824,187 804,195 783,201 761,205 741,211 724,220 713,234 709,255 673,237 675,219 681,205 691,194 703,185 717,179 733,174 751,170 769,166 786,163 804,160 820,155 834,150 846,143 856,133 862,121 864,106 863,95 861,84 859,75 859,67 861,64 867,66 877,75 893,92 912,121 918,149 913,178 900,206 880,232 857,255 832,276 808,293 822,292 839,291 857,290 875,290 891,293 905,299 914,310 917,326 914,343 905,355 892,361 876,365 859,366 841,365 824,364 810,363 833,377 855,394 874,413 892,434 907,456 919,479 930,504 937,529 942,555 944,581 942,607 938,633 930,658 919,682 904,705 885,727 862,744 837,751 813,750 790,742 772,728 761,711 759,690 767,668 787,681 809,686 832,684 854,675 874,661 890,643 901,621 905,598 903,582 898,568 891,555 881,544 868,535 854,526 839,518 823,511 806,504 789,497 772,491 755,485 740,478 725,471 712,463 701,454 691,442 686,429 685,416 688,403 693,391 701,379 711,368 722,359 734,387 725,399 721,410 722,421 726,430 734,439 745,447 757,455 772,462 787,468 803,474 819,480 834,485 849,490 861,495 871,499 879,504 879,504 879,504 883,492 883,479 880,466 875,453 867,440 857,427 846,415 834,404 821,395 807,386 793,380 779,376 766,374 754,375 743,380 734,387 722,359"/>
</g>
</svg>
