<?xml version="1.0" encoding="UTF-8" standalone="no"?>
<!DOCTYPE svg PUBLIC "-//W3C//DTD SVG 1.0//EN" "http://www.w3.org/TR/2001/REC-SVG-20010904/DTD/svg10.dtd">
<svg xmlns="http://www.w3.org/2000/svg" xmlns:xlink="http://www.w3.org/1999/xlink" fill-rule="evenodd" height="0.562in" preserveAspectRatio="none" stroke-linecap="round" viewBox="0 0 563 562" width="0.563in">
<style type="text/css">
.brush0 { fill: rgb(255,255,255); }
.pen0 { stroke: rgb(0,0,0); stroke-width: 1; stroke-linejoin: round; }
.brush1 { fill: none; }
.pen1 { stroke: none; }
.brush2 { fill: rgb(0,0,0); }
</style>
<g>
<polygon class="pen1 brush2" points="563,293 563,263 539,258 536,234 557,219 549,191 523,191 513,167 530,150 516,124 491,131 476,112 487,90 465,69 443,81 422,66 430,42 404,28 385,46 363,38 362,11 335,5 322,27 298,24 291,0 262,1 254,25 231,29 219,6 191,14 190,39 172,48 153,30 127,44 133,70 115,83 90,73 71,93 83,114 69,134 43,129 30,151 47,171 39,193 13,193 4,223 27,236 25,261 0,267 0,296 26,304 31,328 8,341 16,368 41,369 51,390 34,409 49,434 74,428 88,446 74,468 94,489 117,477 134,489 128,514 152,529 172,512 192,521 196,547 223,555 235,533 259,536 268,562 293,562 302,537 325,534 338,555 367,549 368,523 390,512 408,531 437,513 429,489 432,487 439,482 446,477 449,474 472,486 493,465 481,443 495,425 520,429 535,404 515,388 525,367 550,367 558,338 536,325 539,301 563,293"/>
<polygon class="pen1 brush2" points="552,341 547,361 519,361 517,365 514,375 510,384 507,389 527,406 519,422 491,417 473,442 486,466 472,479 449,467 445,470 435,477 425,483 420,487 429,511 410,522 392,504 391,505 387,506 383,508 377,511 372,514 367,516 363,517 361,518 361,545 343,550 329,526 328,526 324,527 319,528 313,528 307,529 301,530 297,530 295,530 288,557 285,557 280,557 274,557 271,556 270,552 267,543 264,535 263,531 262,531 258,530 253,529 248,528 242,527 237,526 234,526 232,525 219,549 202,544 198,516 171,503 150,522 136,514 142,486 119,470 95,482 81,469 96,446 93,443 87,435 80,426 77,421 50,426 41,411 60,393 58,389 54,379 49,369 47,363 19,361 15,344 37,330 36,325 35,315 33,304 33,298 7,289 6,273 31,266 31,261 32,250 34,238 35,232 11,219 15,201 43,201 45,196 49,185 54,174 56,168 37,149 38,147 41,142 43,137 45,135 50,136 59,137 68,139 72,140 75,136 82,128 88,119 92,115 78,93 90,80 117,90 141,73 135,46 149,38 170,56 196,45 197,17 215,12 228,36 229,36 232,35 237,34 242,34 248,33 253,32 257,32 259,32 267,5 285,5 292,31 293,31 297,31 302,32 307,32 313,33 318,33 322,34 324,34 340,12 356,16 357,42 358,42 362,44 366,46 372,48 377,50 382,52 385,53 387,54 408,36 422,44 415,69 419,72 428,78 438,85 443,90 467,77 479,89 468,114 471,117 477,124 484,133 487,138 514,132 524,148 505,166 507,171 512,182 517,193 519,198 545,197 551,217 527,232 528,237 530,247 532,257 532,262 558,268 558,286 532,297 532,302 531,312 530,322 529,328 552,341"/>
<polygon class="pen1 brush0" points="281,48 292,48 304,49 315,51 326,52 337,55 348,58 359,61 369,65 380,70 390,75 400,81 409,87 419,93 428,100 437,108 445,116 461,133 474,151 486,171 496,191 503,212 509,234 512,257 513,280 512,304 508,327 503,349 495,370 485,391 473,410 460,428 445,444 429,459 411,472 392,484 371,494 350,502 328,507 305,511 281,512 281,48"/>
</g>
</svg>
