<?xml version="1.0" encoding="UTF-8" standalone="no"?>
<!DOCTYPE svg PUBLIC "-//W3C//DTD SVG 1.0//EN" "http://www.w3.org/TR/2001/REC-SVG-20010904/DTD/svg10.dtd">
<svg xmlns="http://www.w3.org/2000/svg" xmlns:xlink="http://www.w3.org/1999/xlink" fill-rule="evenodd" height="1.0in" preserveAspectRatio="none" stroke-linecap="round" viewBox="0 0 892 1000" width="0.892in">
<style type="text/css">
.brush0 { fill: rgb(255,255,255); }
.pen0 { stroke: rgb(0,0,0); stroke-width: 1; stroke-linejoin: round; }
.brush1 { fill: none; }
.pen1 { stroke: none; }
.brush2 { fill: rgb(0,0,0); }
</style>
<g>
<polygon class="pen1 brush2" points="588,960 559,935 530,911 503,890 477,870 452,852 428,837 405,823 383,812 361,804 340,798 320,795 300,795 281,797 262,803 244,812 226,824 211,835 196,844 181,852 168,858 155,863 142,866 130,868 119,868 108,868 98,866 88,863 79,859 71,854 63,849 55,842 48,835 36,818 26,800 18,780 12,760 8,739 6,718 5,698 7,679 10,665 14,652 20,642 26,634 34,630 43,628 54,630 65,635 75,641 85,646 95,651 104,656 113,660 123,663 132,665 142,667 152,668 163,669 174,668 186,667 199,664 213,661 228,657 244,652 261,645 274,636 283,625 287,612 289,597 287,581 282,564 275,546 266,526 254,505 241,483 227,461 212,438 197,414 181,390 165,365 147,335 130,304 115,273 102,243 91,214 84,184 81,156 82,129 85,114 89,99 96,85 104,71 113,58 125,46 139,34 155,23 164,17 172,13 180,9 188,6 195,3 202,2 209,1 215,1 222,2 229,3 235,6 241,10 246,15 251,20 256,27 260,34 276,89 282,162 284,245 284,331 288,411 298,478 320,524 357,541 369,537 380,526 391,509 402,487 412,461 424,431 436,399 449,366 464,333 481,300 501,269 523,240 548,215 576,194 609,179 645,170 671,168 695,169 717,174 735,181 752,191 765,204 777,218 786,234 793,252 797,271 800,292 800,313 798,335 794,357 788,380 780,402 765,430 742,455 714,476 681,496 645,514 606,529 568,544 530,558 494,572 461,586 433,600 411,615 396,632 390,650 393,670 408,693 422,707 436,717 451,725 466,730 482,732 498,732 514,730 529,727 545,723 560,717 575,712 589,706 603,700 616,694 627,690 638,686 653,682 667,678 682,675 696,673 711,671 725,670 738,669 752,669 765,670 777,671 789,673 801,675 812,678 823,682 833,687 842,692 850,697 857,702 863,709 869,715 874,723 878,731 882,740 885,750 889,772 890,796 887,823 881,852 874,872 866,890 857,906 847,921 835,935 822,948 809,959 794,969 781,976 768,983 754,988 740,992 725,995 711,997 696,998 682,997 669,995 657,993 644,990 632,985 621,980 609,974 598,967 588,960"/>
</g>
</svg>
