<?xml version="1.0" encoding="UTF-8" standalone="no"?>
<!DOCTYPE svg PUBLIC "-//W3C//DTD SVG 1.0//EN" "http://www.w3.org/TR/2001/REC-SVG-20010904/DTD/svg10.dtd">
<svg xmlns="http://www.w3.org/2000/svg" xmlns:xlink="http://www.w3.org/1999/xlink" fill-rule="evenodd" height="1.137in" preserveAspectRatio="none" stroke-linecap="round" viewBox="0 0 887 1137" width="0.887in">
<style type="text/css">
.brush0 { fill: rgb(255,255,255); }
.pen0 { stroke: rgb(0,0,0); stroke-width: 1; stroke-linejoin: round; }
.brush1 { fill: none; }
.pen1 { stroke: none; }
.brush2 { fill: rgb(0,0,0); }
</style>
<g>
<polygon class="pen1 brush2" points="305,828 368,853 389,790 336,780 332,786 328,792 325,798 321,804 317,810 313,816 309,822 305,828 305,828"/>
<polygon class="pen1 brush2" points="314,774 304,770 295,766 287,763 280,760 273,759 268,757 264,756 261,756 292,809 297,802 305,791 311,780 314,774 314,774"/>
<polygon class="pen1 brush2" points="323,756 339,712 318,707 303,703 292,700 284,698 276,698 267,701 254,707 236,717 247,723 257,728 268,733 279,738 290,743 301,747 312,752 323,756 323,756 323,756"/>
<polygon class="pen1 brush2" points="229,696 248,683 220,672 229,696 229,696"/>
<polygon class="pen1 brush2" points="235,603 220,616 215,613 210,610 205,607 201,603 213,593 198,588 205,637 265,668 269,663 273,657 277,652 281,645 286,639 290,632 295,624 299,616 235,603 235,603"/>
<polygon class="pen1 brush2" points="252,585 308,595 313,587 317,577 322,565 326,552 275,544 252,585 252,585"/>
<polygon class="pen1 brush2" points="252,540 206,525 203,535 200,545 198,555 197,565 208,566 217,569 223,572 228,573 232,572 237,567 244,557 252,540 252,540 252,540"/>
<polygon class="pen1 brush2" points="668,868 709,868 728,809 693,809 668,868 668,868"/>
<polygon class="pen1 brush2" points="610,803 584,852 592,854 601,856 609,858 616,859 624,861 631,862 638,863 645,864 668,809 610,803 610,803"/>
<polygon class="pen1 brush2" points="675,790 692,729 642,729 622,784 675,790 675,790"/>
<polygon class="pen1 brush2" points="597,779 618,725 553,717 527,760 534,762 542,765 550,767 558,769 567,771 577,774 587,776 597,779 597,779 597,779"/>
<polygon class="pen1 brush2" points="611,704 624,705 639,653 584,653 559,699 611,704 611,704"/>
<polygon class="pen1 brush2" points="559,653 539,649 525,645 516,644 509,644 504,648 498,655 492,667 482,683 487,686 493,688 500,690 508,691 516,692 523,693 531,695 537,696 559,653 559,653"/>
<polygon class="pen1 brush2" points="567,632 580,585 527,581 513,621 567,632 567,632"/>
<polygon class="pen1 brush2" points="536,848 549,865 565,883 582,904 601,924 621,944 642,963 663,979 683,993 703,1003 721,1008 738,1008 753,1002 765,988 774,966 780,936 782,896 781,868 777,837 771,805 763,772 753,739 740,705 725,672 709,640 691,609 670,580 649,553 625,529 600,508 573,491 545,479 516,471 509,470 499,468 489,465 477,461 467,457 458,451 452,444 450,435 450,435 412,433 423,471 421,499 416,527 412,566 414,596 420,628 430,661 443,696 461,732 482,769 507,808 536,848 559,853 584,799 575,797 564,794 551,791 538,787 525,782 513,777 504,771 498,765 502,757 506,749 510,742 514,736 518,730 521,724 525,719 529,715 503,712 483,709 468,704 459,698 456,689 459,676 467,660 482,638 450,629 450,612 490,616 496,602 501,591 504,583 505,578 498,578 490,577 483,577 476,576 468,574 461,573 454,571 447,569 447,552 509,557 513,532 513,532 513,516 519,517 525,518 531,521 537,525 533,562 584,562 587,540 607,548 607,565 633,565 645,585 602,585 592,632 645,632 646,626 648,620 650,614 652,609 668,616 668,632 678,632 684,653 668,653 648,709 697,709 702,690 719,696 719,709 727,709 727,729 716,729 702,790 728,790 736,778 751,797 736,868 737,868 739,868 741,868 745,868 751,888 728,890 724,899 720,908 716,917 712,925 707,933 703,940 698,948 693,955 674,945 702,890 660,888 639,923 618,916 635,885 624,883 614,881 603,879 593,877 584,873 575,869 566,862 559,853 536,848"/>
<polygon class="pen1 brush2" points="357,871 339,868 350,881 362,895 375,909 389,923 405,937 421,950 437,962 454,972 471,980 488,985 504,987 521,986 536,980 550,971 564,956 576,936 556,916 537,896 518,873 500,850 483,826 467,801 451,776 438,749 425,723 415,695 406,668 399,640 394,612 391,584 391,557 393,529 397,492 397,472 396,456 395,429 375,424 361,418 350,412 341,407 332,403 321,401 306,401 284,405 285,423 281,438 274,449 264,459 252,469 240,479 228,491 217,506 261,518 273,485 292,490 284,525 331,531 339,506 357,513 352,536 347,558 341,579 334,600 336,602 339,603 342,603 345,604 345,621 323,621 288,676 297,679 306,681 314,684 322,686 328,687 334,689 340,689 344,690 351,664 371,664 364,696 371,696 378,717 357,717 344,761 395,771 401,752 418,768 413,791 406,815 398,838 389,862 450,877 456,862 474,862 473,881 482,881 490,901 467,901 464,909 460,918 454,930 447,944 428,936 444,898 381,881 374,888 357,881 358,877 358,874 358,872 357,871 357,871 357,871"/>
<polygon class="pen1 brush2" points="584,259 549,230 532,238 517,245 505,252 493,258 480,264 467,268 451,271 433,272 439,266 446,261 453,255 461,249 469,243 478,237 488,230 498,224 476,221 457,219 442,219 429,222 416,228 404,237 390,250 374,268 344,268 347,263 351,259 354,254 358,249 363,244 367,238 372,233 377,228 336,228 296,275 257,280 288,241 282,238 277,235 272,232 267,230 263,228 259,227 255,225 252,224 201,293 159,304 160,302 162,298 165,293 169,287 174,279 180,270 188,260 196,248 138,268 122,291 107,309 92,325 76,338 60,351 42,363 22,378 0,394 31,429 45,420 57,411 68,404 78,397 87,392 96,388 104,385 111,382 119,381 127,381 136,383 145,385 155,388 167,393 180,398 194,405 198,405 202,404 207,403 212,401 218,399 225,397 232,394 240,391 175,357 193,350 209,349 224,353 238,361 252,369 268,376 286,380 308,378 302,373 296,368 290,363 283,357 275,351 267,345 258,339 249,333 275,331 295,336 310,345 324,357 337,370 353,382 372,391 398,394 391,384 384,374 376,364 367,355 358,345 349,336 339,327 328,318 368,318 385,338 400,356 413,371 426,385 440,398 455,409 474,420 498,429 492,418 482,404 471,387 458,369 445,352 435,337 428,325 425,318 445,322 464,331 481,346 496,364 510,385 522,406 533,426 543,444 601,469 594,454 587,438 578,422 569,405 560,389 549,371 537,354 525,336 548,344 569,357 587,375 602,396 616,419 627,444 637,468 645,490 687,497 681,481 674,465 667,449 660,434 653,418 645,403 638,388 630,373 668,385 677,402 685,419 692,436 700,452 706,468 712,484 717,499 722,513 761,516 758,505 755,494 751,482 746,469 740,456 734,442 727,427 719,411 738,419 752,427 762,437 769,448 775,461 780,476 786,493 795,513 828,501 803,450 812,455 820,459 828,463 835,466 842,469 848,471 853,473 858,474 866,463 869,453 868,445 864,438 857,431 847,425 837,418 826,411 879,405 870,367 851,368 834,370 818,373 803,376 787,377 772,377 756,374 739,367 755,361 771,355 787,351 802,347 817,344 832,342 847,340 862,340 858,334 855,329 851,324 847,319 843,314 840,310 836,306 832,302 818,302 804,304 791,306 778,308 765,311 753,314 740,317 728,320 716,323 704,325 692,326 680,327 667,327 655,325 643,322 630,318 641,313 651,309 662,305 673,302 684,298 694,295 705,292 716,290 727,287 738,285 749,284 760,282 770,281 781,281 792,280 803,280 787,271 771,264 755,259 740,256 725,254 710,254 696,255 681,257 666,260 651,264 637,268 621,273 606,279 590,285 574,290 558,296 555,296 552,295 548,295 544,294 540,292 536,291 532,288 527,286 531,284 536,282 541,279 548,276 556,272 564,268 574,264 584,259 584,259"/>
<polygon class="pen1 brush2" points="819,104 827,70 777,70 791,47 798,30 800,20 796,15 787,15 775,21 761,32 745,47 742,34 741,23 739,16 739,12 697,26 698,39 699,52 702,67 705,83 683,105 676,90 672,74 669,58 668,41 634,62 635,76 638,93 642,114 648,137 630,152 624,134 619,115 614,96 607,78 574,94 577,115 583,136 590,158 599,180 584,192 578,184 573,176 568,167 562,158 557,149 552,139 548,130 543,120 539,123 534,126 530,129 526,132 522,135 519,138 516,141 513,144 518,157 527,172 539,189 553,207 568,223 583,237 598,247 610,252 668,238 661,236 655,235 649,233 644,231 638,230 633,228 629,226 624,224 641,207 655,210 669,213 683,215 698,217 713,219 728,221 743,223 758,224 765,217 771,209 777,200 783,190 768,190 753,189 739,189 725,188 711,186 698,185 685,182 672,180 692,159 799,162 803,154 807,146 810,138 813,129 723,127 745,105 819,104 819,104"/>
<polygon class="pen1 brush2" points="482,70 474,47 466,49 459,51 453,53 447,54 441,56 436,57 432,57 428,58 467,19 455,14 445,11 436,11 428,12 421,16 413,22 405,30 395,39 389,9 361,22 359,36 360,50 361,64 364,78 344,100 339,83 336,68 335,56 334,47 303,70 306,84 309,99 314,114 319,129 301,159 295,143 290,127 286,111 282,94 266,112 259,127 259,141 263,153 269,165 273,177 273,191 267,207 308,228 319,207 334,207 350,205 368,203 386,200 405,196 426,192 447,186 470,180 472,172 473,164 474,158 474,152 453,157 434,162 415,166 398,169 382,172 367,174 354,175 341,175 353,162 368,154 385,147 403,143 422,139 442,136 460,131 478,125 480,118 481,111 482,103 482,94 463,100 446,106 430,111 417,115 405,118 395,120 387,122 380,122 391,108 401,99 412,92 424,87 436,84 450,80 465,76 482,70 482,70"/>
</g>
</svg>
