<?xml version="1.0" encoding="UTF-8" standalone="no"?>
<!DOCTYPE svg PUBLIC "-//W3C//DTD SVG 1.0//EN" "http://www.w3.org/TR/2001/REC-SVG-20010904/DTD/svg10.dtd">
<svg xmlns="http://www.w3.org/2000/svg" xmlns:xlink="http://www.w3.org/1999/xlink" fill-rule="evenodd" height="0.224in" preserveAspectRatio="none" stroke-linecap="round" viewBox="0 0 651 224" width="0.651in">
<style type="text/css">
.brush0 { fill: rgb(255,255,255); }
.pen0 { stroke: rgb(0,0,0); stroke-width: 1; stroke-linejoin: round; }
.brush1 { fill: none; }
.pen1 { stroke: none; }
.brush2 { fill: rgb(0,0,0); }
</style>
<g>
<polygon class="pen1 brush2" points="326,157 296,156 267,154 239,150 212,145 186,139 161,131 137,122 115,112 95,101 76,89 59,76 44,62 31,48 20,32 11,16 5,0 3,8 1,17 0,25 0,34 2,53 7,72 15,91 26,108 39,125 56,140 74,155 96,168 119,181 144,192 171,201 199,209 229,215 260,220 293,223 326,224 359,223 391,220 422,215 452,209 481,201 507,192 533,181 556,168 577,155 595,140 612,125 625,108 636,91 644,72 649,53 651,34 651,25 650,17 648,8 646,0 640,16 631,32 620,48 607,62 592,76 575,89 556,101 536,112 513,122 490,131 465,139 439,145 412,150 384,154 355,156 326,157"/>
<polygon class="pen1 brush2" points="326,67 296,68 267,70 239,74 212,79 186,85 161,93 137,102 115,112 95,123 76,135 59,148 44,162 31,176 20,192 11,208 5,224 3,216 1,208 0,199 0,191 2,171 7,152 15,134 26,116 39,100 56,84 74,69 96,56 119,43 144,32 171,23 199,15 229,9 260,4 293,1 326,0 359,1 391,4 422,9 452,15 481,23 507,32 533,43 556,56 577,69 595,84 612,100 625,116 636,134 644,152 649,171 651,191 651,199 650,208 648,216 646,224 640,208 631,192 620,176 607,162 592,148 575,135 556,123 536,112 513,102 490,93 465,85 439,79 412,74 384,70 355,68 326,67"/>
<polygon class="pen1 brush0" points="588,78 582,83 576,87 570,92 563,96 557,100 550,104 542,108 535,112 542,116 550,120 557,124 563,128 570,133 576,137 582,142 588,146 593,142 598,138 602,134 607,130 611,125 615,121 618,116 622,112 618,108 615,103 611,99 607,95 602,90 598,86 593,82 588,78"/>
<polygon class="pen1 brush0" points="62,78 57,82 53,86 48,90 44,95 40,99 36,103 32,108 29,112 32,116 36,121 40,125 44,130 48,134 53,138 57,142 62,146 68,142 74,137 81,133 88,128 94,124 101,120 109,116 116,112 109,108 101,104 94,100 88,96 81,92 74,87 68,83 62,78"/>
<polygon class="pen1 brush2" points="323,142 316,141 310,140 305,137 300,133 296,128 293,123 292,117 291,110 292,104 293,98 296,92 300,88 305,84 310,81 316,79 323,78 329,79 335,81 341,84 345,88 349,92 352,98 354,104 355,110 354,117 352,123 349,128 345,133 341,137 335,140 329,141 323,142"/>
</g>
</svg>
