<?xml version="1.0" encoding="UTF-8" standalone="no"?>
<!DOCTYPE svg PUBLIC "-//W3C//DTD SVG 1.0//EN" "http://www.w3.org/TR/2001/REC-SVG-20010904/DTD/svg10.dtd">
<svg xmlns="http://www.w3.org/2000/svg" xmlns:xlink="http://www.w3.org/1999/xlink" fill-rule="evenodd" height="0.821in" preserveAspectRatio="none" stroke-linecap="round" viewBox="0 0 999 821" width="0.999in">
<style type="text/css">
.brush0 { fill: rgb(255,255,255); }
.pen0 { stroke: rgb(0,0,0); stroke-width: 1; stroke-linejoin: round; }
.brush1 { fill: none; }
.pen1 { stroke: none; }
.brush2 { fill: rgb(0,0,0); }
</style>
<g>
<polygon class="pen1 brush2" points="275,821 261,818 249,813 237,806 228,798 219,789 212,779 206,768 202,757 199,739 199,722 202,705 209,689 220,676 234,666 251,659 272,657 287,662 299,669 310,676 320,684 328,692 333,701 338,711 340,721 341,735 340,749 336,762 329,776 320,789 308,801 293,812 275,821 275,821"/>
<polygon class="pen1 brush2" points="0,108 22,156 45,204 69,250 94,295 120,339 147,382 176,423 206,463 237,501 269,537 303,572 338,604 375,635 412,663 451,689 492,713 519,727 546,739 574,751 603,761 632,770 662,778 693,785 724,791 756,796 789,799 822,801 856,801 890,800 926,798 962,794 999,789 989,748 977,703 961,655 942,606 919,555 892,503 862,451 827,400 788,351 744,304 695,259 642,219 583,182 519,150 449,125 374,105 354,101 333,98 312,95 290,93 268,91 246,90 223,89 200,89 177,89 153,90 128,92 104,94 78,96 53,100 27,103 0,108 0,108"/>
<polygon class="pen1 brush2" points="79,504 91,499 103,498 115,500 127,505 138,512 148,521 157,532 164,544 169,557 173,570 174,584 172,598 168,612 161,626 151,638 137,649 127,659 115,663 102,663 88,659 74,652 60,642 48,629 37,615 30,601 26,586 24,571 27,556 32,541 43,528 58,515 79,504 79,504"/>
<polygon class="pen1 brush2" points="786,253 778,240 774,227 773,215 775,202 780,190 788,180 797,170 809,163 818,159 829,156 839,155 850,154 862,155 873,157 884,160 894,163 906,173 914,185 919,198 920,211 918,225 912,238 904,250 894,261 884,268 873,273 861,276 848,276 833,275 818,271 802,263 786,253 786,253"/>
<polygon class="pen1 brush2" points="600,35 611,29 624,23 639,19 654,16 669,14 684,14 699,16 712,21 719,26 726,33 731,41 736,50 738,61 739,74 738,88 735,105 724,122 711,134 696,143 680,148 663,149 646,147 630,143 616,135 606,127 597,118 591,107 587,94 586,81 587,67 592,51 600,35"/>
<polygon class="pen1 brush2" points="275,814 261,811 249,806 237,799 228,791 219,782 212,772 206,761 202,750 199,732 199,715 202,698 209,682 220,669 234,659 251,652 272,650 287,655 299,662 310,669 320,677 328,685 333,694 338,704 340,714 341,728 340,742 336,756 329,769 320,782 308,794 293,805 275,814 275,814 275,814 275,814 275,814"/>
<polygon class="pen1 brush2" points="0,102 22,150 45,198 69,244 94,289 120,333 147,376 176,417 206,456 237,494 269,531 303,565 338,598 375,628 412,656 451,682 492,706 519,720 546,732 574,744 603,754 632,763 662,771 693,778 724,784 756,789 789,792 822,794 856,794 890,793 926,791 962,787 999,782 989,741 977,696 961,648 942,599 919,548 892,497 862,445 827,394 788,345 744,298 695,254 642,213 583,176 519,145 449,119 374,99 354,95 333,92 312,89 290,87 268,85 246,84 223,83 200,82 177,83 153,84 128,85 104,87 78,90 53,93 27,97 0,102 0,102 0,102 0,102 0,102"/>
<polygon class="pen1 brush2" points="79,497 91,492 103,491 115,493 127,498 138,505 148,514 157,525 164,537 169,550 173,563 174,577 172,592 168,606 161,620 151,632 137,643 127,652 115,656 102,656 88,652 74,644 60,634 48,622 37,608 30,594 26,579 24,564 27,549 32,534 43,521 58,508 79,497 79,497 79,497 79,497 79,497"/>
<polygon class="pen1 brush2" points="786,247 778,234 774,221 773,208 775,195 780,184 788,173 797,163 809,156 818,152 829,150 839,149 850,148 862,149 873,151 884,153 894,157 906,167 914,178 919,191 920,205 918,219 912,232 904,244 894,254 884,261 873,266 861,269 848,270 833,269 818,265 802,258 786,247 786,247 786,247 786,247 786,247"/>
<polygon class="pen1 brush2" points="600,28 611,22 624,17 639,12 654,9 669,8 684,8 699,11 712,15 719,20 726,27 731,35 736,44 738,55 739,68 738,82 735,99 724,116 711,128 696,137 680,142 663,143 646,141 630,137 616,129 606,121 597,111 591,100 587,88 586,75 587,60 592,45 600,28 600,28 600,28"/>
</g>
</svg>
