<?xml version="1.0" encoding="UTF-8" standalone="no"?>
<!DOCTYPE svg PUBLIC "-//W3C//DTD SVG 1.0//EN" "http://www.w3.org/TR/2001/REC-SVG-20010904/DTD/svg10.dtd">
<svg xmlns="http://www.w3.org/2000/svg" xmlns:xlink="http://www.w3.org/1999/xlink" fill-rule="evenodd" height="0.936in" preserveAspectRatio="none" stroke-linecap="round" viewBox="0 0 999 936" width="0.999in">
<style type="text/css">
.brush0 { fill: rgb(255,255,255); }
.pen0 { stroke: rgb(0,0,0); stroke-width: 1; stroke-linejoin: round; }
.brush1 { fill: none; }
.pen1 { stroke: none; }
.brush2 { fill: rgb(0,0,0); }
</style>
<g>
<polygon class="pen1 brush2" points="138,918 109,911 84,900 62,886 43,869 28,850 17,828 9,804 5,778 4,758 6,738 10,717 16,697 25,676 36,656 50,637 66,619 91,599 117,587 144,582 172,582 200,587 228,595 256,605 283,616 309,626 334,635 356,642 377,644 394,642 409,633 420,617 428,592 428,566 420,539 404,511 382,483 356,454 326,425 294,395 262,364 231,333 202,301 176,268 156,234 142,200 136,164 139,128 152,91 163,72 176,55 189,41 204,30 219,20 234,13 250,9 266,6 284,5 302,6 319,10 335,15 350,23 363,33 375,44 384,57 408,113 419,172 421,230 420,287 418,341 421,388 432,429 456,460 477,473 495,474 511,466 525,450 538,426 550,396 562,362 573,324 585,284 597,243 610,203 624,165 640,130 658,99 679,73 702,55 714,49 726,43 738,38 750,34 763,31 775,28 787,26 799,25 810,24 822,24 833,25 845,27 856,29 866,32 877,36 887,41 904,51 921,63 935,77 948,94 959,114 968,135 975,159 979,186 979,214 972,240 960,265 942,290 920,313 894,336 867,358 837,380 807,402 777,423 748,445 721,467 696,489 675,512 659,536 648,561 645,577 649,589 657,599 669,606 685,611 705,614 726,616 750,618 775,619 800,620 825,621 850,623 873,627 894,632 912,639 927,649 948,671 964,694 975,718 981,743 982,767 978,791 971,814 959,835 947,850 933,863 917,875 900,886 880,894 858,901 835,905 810,906 781,904 753,897 725,887 698,873 672,857 646,840 621,821 597,802 573,784 550,767 528,752 507,740 486,731 466,726 447,726 428,732 411,741 395,753 378,766 362,781 346,797 330,814 314,831 297,847 280,863 262,878 244,891 225,902 204,911 183,917 161,919 138,918"/>
</g>
</svg>
