<?xml version="1.0" encoding="UTF-8" standalone="no"?>
<!DOCTYPE svg PUBLIC "-//W3C//DTD SVG 1.0//EN" "http://www.w3.org/TR/2001/REC-SVG-20010904/DTD/svg10.dtd">
<svg xmlns="http://www.w3.org/2000/svg" xmlns:xlink="http://www.w3.org/1999/xlink" fill-rule="evenodd" height="0.235in" preserveAspectRatio="none" stroke-linecap="round" viewBox="0 0 496 235" width="0.496in">
<style type="text/css">
.brush0 { fill: rgb(255,255,255); }
.pen0 { stroke: rgb(0,0,0); stroke-width: 1; stroke-linejoin: round; }
.brush1 { fill: none; }
.pen1 { stroke: none; }
.brush2 { fill: rgb(0,0,0); }
</style>
<g>
<polygon class="pen1 brush2" points="411,235 425,235 422,230 418,225 414,220 411,215 407,211 403,206 399,202 395,197 380,184 364,172 347,161 329,153 310,146 291,141 271,138 251,137 237,137 224,139 211,141 198,144 186,148 173,153 162,158 150,164 139,171 129,179 119,187 109,195 100,204 92,214 84,224 77,235 89,235 106,235 110,230 114,224 119,219 124,214 137,202 151,191 166,182 182,175 199,169 216,164 233,162 251,161 269,162 287,164 304,169 320,175 336,182 351,191 365,202 378,214 383,219 387,224 392,230 396,235 411,235"/>
<polygon class="pen1 brush2" points="32,81 38,96 42,111 45,121 47,126 50,128 55,131 62,135 68,139 75,144 80,148 85,152 87,155 88,157 89,159 90,162 91,166 95,176 98,182 102,188 109,201 119,194 118,190 115,183 110,175 104,165 98,156 91,148 86,142 82,139 80,138 76,136 70,132 63,127 57,121 51,113 47,103 46,92 32,81"/>
<polygon class="pen1 brush2" points="129,22 130,39 129,55 128,66 128,71 135,78 144,90 153,102 157,110 158,112 158,115 158,118 158,122 158,133 160,139 162,147 165,161 176,157 176,145 171,126 164,106 158,95 156,93 153,90 148,84 144,77 139,69 137,60 136,49 138,38 129,22"/>
<polygon class="pen1 brush2" points="242,0 238,16 234,31 229,42 228,47 233,56 239,69 244,83 246,92 246,94 245,97 245,100 244,104 242,114 241,121 241,129 240,143 252,142 255,131 255,110 254,89 251,77 247,71 242,56 239,37 246,17 242,0"/>
<polygon class="pen1 brush2" points="359,19 351,34 343,47 336,56 333,61 335,70 338,85 340,99 339,108 338,110 337,113 335,116 334,119 329,129 327,135 325,142 320,156 331,158 337,148 343,129 347,109 348,96 346,89 344,74 347,55 359,37 359,19"/>
<polygon class="pen1 brush2" points="460,73 454,80 449,85 443,91 437,95 432,99 429,103 426,105 425,106 425,116 423,131 421,145 418,154 416,156 414,158 412,160 410,163 403,171 399,176 395,183 387,195 398,201 401,198 406,192 411,184 416,175 421,165 426,156 429,148 430,143 430,136 432,121 440,104 456,90 460,73"/>
<polygon class="pen1 brush2" points="105,107 132,178 151,166 105,107"/>
<polygon class="pen1 brush2" points="85,86 88,85 90,84 91,82 92,79 91,76 90,74 88,73 85,72 83,73 81,74 80,76 79,79 80,82 81,84 83,85 85,86"/>
<polygon class="pen1 brush2" points="197,71 199,146 221,141 197,71"/>
<polygon class="pen1 brush2" points="186,44 189,44 192,43 194,42 195,40 195,37 195,35 193,33 191,31 188,31 185,31 183,33 182,35 182,38 183,41 184,43 186,44"/>
<polygon class="pen1 brush2" points="297,71 276,143 298,145 297,71"/>
<polygon class="pen1 brush2" points="295,42 297,43 300,43 302,42 304,41 305,38 305,36 304,33 303,31 301,30 298,30 296,30 294,32 293,35 293,37 293,40 295,42"/>
<polygon class="pen1 brush2" points="393,105 349,168 370,177 393,105"/>
<polygon class="pen1 brush2" points="400,78 402,80 404,81 407,81 409,80 411,78 412,75 412,73 411,70 409,68 407,68 404,68 401,69 399,71 399,73 399,76 400,78"/>
<polygon class="pen1 brush2" points="37,172 90,226 103,208 37,172"/>
<polygon class="pen1 brush2" points="10,159 12,158 14,156 14,153 14,151 12,149 10,147 7,147 5,147 3,149 2,151 1,153 1,156 3,158 5,159 8,160 10,159"/>
<polygon class="pen1 brush2" points="465,175 401,216 416,232 465,175"/>
<polygon class="pen1 brush2" points="482,151 483,154 485,155 487,156 490,156 493,155 494,153 495,151 495,148 494,146 492,144 490,143 487,143 485,144 483,146 482,149 482,151"/>
</g>
</svg>
