<?xml version="1.0" encoding="UTF-8" standalone="no"?>
<!DOCTYPE svg PUBLIC "-//W3C//DTD SVG 1.0//EN" "http://www.w3.org/TR/2001/REC-SVG-20010904/DTD/svg10.dtd">
<svg xmlns="http://www.w3.org/2000/svg" xmlns:xlink="http://www.w3.org/1999/xlink" fill-rule="evenodd" height="0.279in" preserveAspectRatio="none" stroke-linecap="round" viewBox="0 0 559 279" width="0.559in">
<style type="text/css">
.brush0 { fill: rgb(255,255,255); }
.pen0 { stroke: rgb(0,0,0); stroke-width: 1; stroke-linejoin: round; }
.brush1 { fill: none; }
.pen1 { stroke: none; }
.brush2 { fill: rgb(0,0,0); }
</style>
<g>
<polygon class="pen1 brush2" points="559,279 558,251 553,223 546,196 537,171 525,146 511,123 495,102 477,82 457,64 436,48 413,34 388,22 363,13 336,6 308,1 280,0 251,1 223,6 197,13 171,22 146,34 123,48 102,64 82,82 64,102 48,123 34,146 22,171 13,196 6,223 1,251 0,279 559,279"/>
<polygon class="pen1 brush0" points="280,257 281,233 284,209 287,183 292,159 298,136 304,116 309,100 315,89 307,82 300,74 294,65 289,55 285,46 282,38 281,30 280,24 279,30 278,38 275,46 271,55 266,65 260,74 253,82 245,89 251,100 256,116 262,136 268,159 273,183 277,209 279,233 280,257"/>
<polygon class="pen1 brush0" points="280,257 257,251 233,243 208,235 185,225 164,215 146,205 131,197 122,189 113,195 104,201 94,205 84,208 74,210 65,211 57,211 51,210 57,212 64,215 72,220 80,225 88,232 95,240 102,248 107,257 112,255 119,254 127,252 136,251 146,250 156,249 168,249 180,248 192,248 205,249 218,249 231,250 244,251 256,253 268,255 280,257"/>
<polygon class="pen1 brush0" points="280,257 265,238 251,218 237,196 225,174 215,153 206,134 201,118 198,106 187,106 176,104 166,101 157,97 148,93 140,88 134,83 130,79 137,91 143,109 146,129 144,151 155,156 170,164 187,176 206,190 226,205 245,222 264,240 280,257"/>
<polygon class="pen1 brush0" points="280,257 303,251 327,243 351,235 374,225 395,215 413,205 428,197 437,189 446,195 455,201 465,205 476,208 485,210 494,211 502,211 508,210 502,212 495,215 487,220 479,225 471,232 463,240 457,248 451,257 446,255 439,254 432,252 423,251 413,250 402,249 391,249 379,248 367,248 354,249 341,249 328,250 316,251 303,253 291,255 280,257"/>
<polygon class="pen1 brush0" points="280,257 295,238 309,218 322,196 334,174 344,153 352,134 358,118 360,106 371,106 382,104 392,101 402,97 411,93 419,88 425,83 429,79 422,91 416,109 413,129 414,151 403,156 388,164 371,176 353,190 333,205 314,222 296,240 280,257"/>
</g>
</svg>
