<?xml version="1.0" encoding="UTF-8" standalone="no"?>
<!DOCTYPE svg PUBLIC "-//W3C//DTD SVG 1.0//EN" "http://www.w3.org/TR/2001/REC-SVG-20010904/DTD/svg10.dtd">
<svg xmlns="http://www.w3.org/2000/svg" xmlns:xlink="http://www.w3.org/1999/xlink" fill-rule="evenodd" height="0.902in" preserveAspectRatio="none" stroke-linecap="round" viewBox="0 0 1018 902" width="1.018in">
<style type="text/css">
.brush0 { fill: rgb(255,255,255); }
.pen0 { stroke: rgb(0,0,0); stroke-width: 1; stroke-linejoin: round; }
.brush1 { fill: none; }
.pen1 { stroke: none; }
.brush2 { fill: rgb(0,0,0); }
</style>
<g>
<polygon class="pen1 brush2" points="827,414 825,373 819,332 809,293 796,255 779,219 758,184 734,151 706,121 691,107 676,93 660,81 643,69 626,58 609,48 591,39 572,31 554,24 535,18 515,12 495,8 475,4 455,2 435,1 414,0 372,2 331,8 291,19 253,33 217,50 183,71 151,95 122,121 95,151 71,183 50,217 33,253 19,291 8,331 2,372 0,414 112,414 113,384 118,354 125,326 135,298 147,271 162,246 180,222 200,200 211,190 222,180 234,171 246,162 259,154 272,147 285,140 298,134 312,129 326,124 340,120 355,117 369,114 384,112 399,111 414,111 429,111 444,112 459,114 473,117 488,120 502,124 516,129 530,134 543,140 556,147 569,154 581,162 594,171 605,180 617,190 628,200 648,222 666,246 681,271 693,298 703,326 710,354 715,384 716,414 827,414"/>
<polygon class="pen1 brush0" points="781,356 777,331 770,305 760,278 748,251 733,224 716,198 697,173 677,151 663,138 649,126 635,115 620,104 605,94 589,85 573,77 556,70 540,63 522,58 505,53 487,49 469,46 451,44 433,42 414,42 396,42 377,44 359,46 341,49 323,53 306,58 289,63 272,70 255,77 239,85 223,94 208,104 193,115 178,126 164,138 151,151 131,173 113,196 97,220 83,245 70,272 60,299 53,327 47,356 51,356 60,356 70,357 75,357 81,330 88,305 97,280 108,256 121,233 136,211 152,190 171,170 183,158 196,147 210,137 224,127 238,118 252,109 267,102 283,95 298,89 314,84 330,79 347,76 363,73 380,71 397,69 414,69 431,69 448,71 465,73 482,76 498,79 514,84 530,89 546,95 561,102 576,109 590,118 605,127 618,137 632,147 645,158 657,170 675,190 692,211 707,233 720,256 731,280 741,305 748,331 753,357 758,356 768,356 777,356 781,356"/>
<polygon class="pen1 brush2" points="775,517 695,517 774,675 854,517 775,517 775,415 1018,415 775,902 532,415 775,415 775,517"/>
</g>
</svg>
