<?xml version="1.0" encoding="UTF-8" standalone="no"?>
<!DOCTYPE svg PUBLIC "-//W3C//DTD SVG 1.0//EN" "http://www.w3.org/TR/2001/REC-SVG-20010904/DTD/svg10.dtd">
<svg xmlns="http://www.w3.org/2000/svg" xmlns:xlink="http://www.w3.org/1999/xlink" fill-rule="evenodd" height="1.005in" preserveAspectRatio="none" stroke-linecap="round" viewBox="0 0 1045 1005" width="1.045in">
<style type="text/css">
.brush0 { fill: rgb(255,255,255); }
.pen0 { stroke: rgb(0,0,0); stroke-width: 1; stroke-linejoin: round; }
.brush1 { fill: none; }
.pen1 { stroke: none; }
.brush2 { fill: rgb(0,0,0); }
</style>
<g>
<polygon class="pen1 brush2" points="549,402 554,434 560,464 568,492 577,518 588,542 600,563 613,583 627,600 641,616 657,629 672,641 689,650 705,657 721,663 738,666 754,667 774,666 792,662 808,656 824,648 837,637 849,624 860,608 869,590 887,621 901,651 909,680 911,706 905,731 891,753 868,771 835,787 824,796 819,810 818,828 821,848 826,869 831,889 835,905 838,918 882,914 917,909 944,902 963,890 976,873 984,848 988,813 989,767 987,726 981,686 970,649 956,613 939,578 919,546 895,516 869,488 840,463 809,440 776,419 741,401 705,386 667,374 629,364 589,358 592,326 601,292 615,261 631,236 646,223 657,225 663,247 660,293 660,306 664,316 671,326 680,333 692,338 705,342 719,343 734,342 749,339 764,334 778,327 790,316 800,304 808,289 813,271 814,250 813,229 812,209 813,189 816,172 823,157 835,146 853,139 879,136 907,140 930,150 947,164 958,180 962,194 961,206 953,211 938,208 909,203 892,215 887,238 892,263 906,287 929,300 958,298 994,274 1009,255 1017,234 1019,213 1015,193 1007,173 994,154 979,137 961,122 928,102 895,88 861,80 827,78 794,80 761,87 729,99 699,115 670,135 644,158 619,185 598,215 580,247 566,282 555,319 549,358 549,358 549,358 538,358 527,359 516,360 505,361 494,362 483,364 472,366 462,368 451,370 440,372 429,374 418,377 408,379 397,381 386,383 375,385 413,339 438,297 452,259 457,225 452,196 441,172 423,151 401,136 375,124 347,117 318,115 290,117 262,123 238,134 218,149 203,169 220,178 239,191 256,204 270,217 277,226 275,231 260,227 230,214 206,208 181,211 156,221 133,236 112,254 96,275 85,296 81,315 96,332 108,345 120,354 129,360 138,363 146,364 153,363 161,361 168,357 176,353 184,348 194,343 204,338 217,334 231,332 247,331 243,339 236,346 227,354 217,360 208,366 200,371 195,376 193,379 198,382 205,386 214,390 225,395 238,400 253,407 270,413 290,421 277,426 266,431 254,435 244,438 234,441 224,443 214,444 205,445 195,445 186,445 175,445 165,444 154,443 142,441 130,439 116,437 99,441 80,454 63,475 49,500 40,526 37,552 43,573 60,588 69,592 77,594 86,596 95,596 104,597 113,596 122,596 131,596 104,622 81,636 63,644 49,649 38,659 31,679 27,715 26,771 29,811 36,844 46,869 60,889 76,902 93,910 111,913 128,912 145,907 159,899 171,887 179,874 183,859 181,842 174,825 160,807 151,800 143,794 134,791 125,789 115,788 106,789 96,791 85,795 83,788 83,778 86,766 92,754 98,743 105,734 112,727 119,725 126,726 132,727 139,729 146,731 152,732 158,733 164,731 170,728 167,704 168,681 171,660 172,637 196,685 216,720 232,742 246,754 257,756 265,749 273,736 279,716 285,692 291,665 297,636 304,606 312,577 322,549 335,525 350,505 354,540 352,575 348,610 348,645 352,645 356,644 360,643 365,642 370,640 375,638 380,635 386,632 379,646 371,662 363,678 356,695 351,712 351,728 356,744 367,758 387,771 401,772 410,763 416,748 419,729 423,709 428,691 435,678 440,686 442,698 442,713 440,729 439,746 438,762 440,776 446,787 460,768 478,751 497,735 517,718 535,701 550,682 560,661 564,637 563,618 560,601 555,585 548,570 540,556 530,543 519,530 508,518 495,507 481,497 467,487 453,477 438,467 423,458 408,448 394,439 405,431 419,424 435,418 453,413 474,409 497,405 522,403 549,402 587,406 600,409 617,413 636,418 658,425 681,434 705,443 728,454 751,466 771,478 790,492 805,507 817,522 824,537 825,553 821,570 809,587 792,602 775,610 757,613 738,611 719,604 701,594 683,580 666,564 650,545 635,525 621,504 610,483 600,462 593,442 589,423 587,406 549,402"/>
</g>
</svg>
