<?xml version="1.0" encoding="UTF-8" standalone="no"?>
<!DOCTYPE svg PUBLIC "-//W3C//DTD SVG 1.0//EN" "http://www.w3.org/TR/2001/REC-SVG-20010904/DTD/svg10.dtd">
<svg xmlns="http://www.w3.org/2000/svg" xmlns:xlink="http://www.w3.org/1999/xlink" fill-rule="evenodd" height="0.657in" preserveAspectRatio="none" stroke-linecap="round" viewBox="0 0 657 657" width="0.657in">
<style type="text/css">
.brush0 { fill: rgb(255,255,255); }
.pen0 { stroke: rgb(0,0,0); stroke-width: 1; stroke-linejoin: round; }
.brush1 { fill: none; }
.pen1 { stroke: none; }
.brush2 { fill: rgb(0,0,0); }
</style>
<g>
<polygon class="pen1 brush2" points="643,657 643,0 0,0 0,657 643,657"/>
<polygon class="pen1 brush2" points="643,657 643,0 0,0 0,657 643,657"/>
<polygon class="pen1 brush0" points="199,403 301,403 301,657 343,657 343,403 442,403 321,248 199,403"/>
<polygon class="pen1 brush0" points="657,128 486,128 486,28 332,150 486,272 486,170 657,170 657,128"/>
<polygon class="pen1 brush0" points="147,128 0,128 0,170 147,170 147,272 302,150 147,28 147,128"/>
</g>
</svg>
