<?xml version="1.0" encoding="UTF-8" standalone="no"?>
<!DOCTYPE svg PUBLIC "-//W3C//DTD SVG 1.0//EN" "http://www.w3.org/TR/2001/REC-SVG-20010904/DTD/svg10.dtd">
<svg xmlns="http://www.w3.org/2000/svg" xmlns:xlink="http://www.w3.org/1999/xlink" fill-rule="evenodd" height="0.502in" preserveAspectRatio="none" stroke-linecap="round" viewBox="0 0 500 502" width="0.5in">
<style type="text/css">
.brush0 { fill: rgb(255,255,255); }
.pen0 { stroke: rgb(0,0,0); stroke-width: 1; stroke-linejoin: round; }
.brush1 { fill: none; }
.pen1 { stroke: none; }
.brush2 { fill: rgb(0,0,0); }
</style>
<g>
<polygon class="pen1 brush2" points="500,0 500,499 0,499 0,0 500,0"/>
<polygon class="pen1 brush0" points="227,174 231,172 235,170 239,168 243,167 247,167 251,166 256,167 260,168 267,171 274,174 281,179 288,183 293,187 298,190 301,192 302,193 305,197 308,204 313,212 318,220 323,227 328,233 332,237 336,237 339,229 338,214 334,198 330,188 325,179 320,171 314,164 307,157 300,151 292,146 284,142 275,138 265,134 254,133 243,133 233,135 223,138 213,143 204,149 196,157 187,169 179,181 173,195 167,209 164,218 160,230 158,241 161,247 166,245 173,238 182,228 191,216 201,203 211,191 220,181 227,174"/>
<polygon class="pen1 brush0" points="164,306 169,317 174,327 180,337 188,347 192,352 197,356 201,360 206,364 211,368 217,371 223,373 229,375 237,376 245,378 253,379 261,379 269,380 277,379 285,377 293,375 301,370 308,364 314,358 320,350 325,343 329,334 332,326 335,317 337,306 341,292 343,279 340,272 336,274 330,279 324,287 317,298 310,309 302,320 294,330 286,337 279,338 272,339 264,339 257,339 249,338 241,337 234,336 228,334 221,327 212,318 203,308 194,298 185,289 177,282 171,277 166,276 162,282 162,292 163,302 164,306"/>
<polygon class="pen1 brush0" points="256,314 267,312 278,307 287,301 294,293 300,285 304,277 307,268 308,261 307,253 304,244 299,235 292,226 284,218 275,212 264,208 253,207 243,209 234,213 226,220 220,227 216,235 213,244 211,252 210,259 211,267 215,275 221,285 228,294 235,302 243,308 250,313 256,314"/>
<polygon class="pen1 brush0" points="118,162 121,165 125,165 130,163 136,159 142,155 147,150 151,145 154,142 158,137 159,130 158,124 154,119 152,117 150,116 149,115 149,115 143,109 136,102 128,95 121,88 115,82 109,77 106,74 105,73 100,67 94,63 87,62 82,65 82,69 83,75 86,82 89,89 118,162"/>
<polygon class="pen1 brush0" points="227,40 225,57 220,73 215,89 215,106 217,106 222,106 228,106 237,105 245,105 253,104 260,104 265,103 269,98 268,89 266,82 264,79 262,58 258,34 252,13 245,4 238,10 232,22 228,34 227,40"/>
<polygon class="pen1 brush0" points="362,130 367,123 374,114 382,104 390,94 397,84 402,76 405,69 405,65 400,64 390,68 378,74 364,82 349,92 336,102 326,111 319,120 320,127 327,136 336,144 344,150 350,150 355,145 359,137 362,130 362,130"/>
<polygon class="pen1 brush0" points="375,259 386,257 400,254 416,249 432,243 448,237 460,231 468,225 471,221 466,218 455,216 439,214 420,214 402,214 386,215 374,217 370,220 371,230 373,243 374,254 375,259"/>
<polygon class="pen1 brush0" points="363,372 374,380 388,389 403,399 419,408 434,416 447,422 456,426 461,425 459,419 451,407 438,391 422,374 406,359 391,345 380,337 375,336 370,344 364,355 361,365 363,372 363,372"/>
<polygon class="pen1 brush0" points="290,500 295,485 297,453 295,423 290,410 285,411 279,411 272,411 264,411 257,411 252,412 248,414 247,417 248,421 252,430 258,444 265,459 272,475 279,488 286,497 290,500"/>
<polygon class="pen1 brush0" points="148,360 139,369 129,381 117,395 106,410 96,424 89,436 84,446 84,451 89,452 98,450 110,445 125,438 140,430 155,421 167,412 177,404 181,399 182,392 181,386 177,380 170,374 160,368 152,362 148,360"/>
<polygon class="pen1 brush0" points="7,274 12,277 25,279 43,281 63,282 83,283 101,283 113,283 118,283 122,278 122,267 120,254 119,244 114,240 101,240 83,243 63,248 42,254 24,261 12,268 7,274"/>
</g>
</svg>
