<?xml version="1.0" encoding="UTF-8" standalone="no"?>
<!DOCTYPE svg PUBLIC "-//W3C//DTD SVG 1.0//EN" "http://www.w3.org/TR/2001/REC-SVG-20010904/DTD/svg10.dtd">
<svg xmlns="http://www.w3.org/2000/svg" xmlns:xlink="http://www.w3.org/1999/xlink" fill-rule="evenodd" height="0.503in" preserveAspectRatio="none" stroke-linecap="round" viewBox="0 0 508 503" width="0.508in">
<style type="text/css">
.brush0 { fill: rgb(255,255,255); }
.pen0 { stroke: rgb(0,0,0); stroke-width: 1; stroke-linejoin: round; }
.brush1 { fill: none; }
.pen1 { stroke: none; }
.brush2 { fill: rgb(0,0,0); }
</style>
<g>
<polygon class="pen1 brush2" points="94,163 94,164 96,167 97,170 97,173 98,178 100,187 101,197 103,208 104,217 103,226 100,235 97,244 93,250 89,253 86,252 83,251 80,247 78,240 77,231 76,223 76,216 78,209 80,200 83,192 86,183 90,173 93,166 94,163 102,113 102,112 100,110 98,105 95,96 92,87 90,78 87,70 82,62 77,54 75,47 73,40 73,33 73,27 74,22 74,18 74,17 70,17 62,18 54,18 51,18 51,20 51,24 51,31 51,37 53,46 56,59 58,71 61,80 66,90 73,104 80,116 83,122 85,132 85,133 85,135 84,137 83,138 79,143 73,151 67,162 62,171 59,182 55,198 52,214 52,224 55,233 57,246 60,258 62,265 65,270 70,275 76,280 82,281 88,280 94,279 99,276 103,271 107,264 112,255 116,248 119,242 121,236 123,228 124,220 125,214 125,205 123,192 122,177 120,165 117,155 114,145 111,137 110,134 112,128 115,125 121,116 127,107 131,99 132,86 134,64 135,43 135,30 134,25 134,19 133,16 132,14 128,14 120,15 112,16 108,16 109,18 111,22 113,28 115,35 117,42 118,50 119,58 117,65 117,68 115,75 114,84 112,90 110,96 107,103 103,110 102,113 94,163"/>
<polygon class="pen1 brush2" points="212,206 211,205 210,205 208,205 206,207 205,209 203,209 202,210 202,212 202,214 201,216 201,219 203,223 205,226 207,228 209,228 212,228 215,227 218,227 219,226 220,223 220,219 220,217 220,215 219,213 217,211 215,208 213,207 212,206"/>
<polygon class="pen1 brush2" points="143,205 148,205 155,204 161,202 165,201 169,199 174,196 178,193 182,191 184,189 186,187 189,184 193,180 196,175 198,172 200,170 208,169 213,169 218,168 223,169 227,169 231,170 234,172 237,175 239,179 243,190 246,203 248,215 250,224 251,232 251,242 252,251 255,257 258,260 260,263 262,265 264,263 266,258 266,251 266,242 265,233 264,224 262,215 261,205 261,195 262,185 263,175 264,164 265,151 267,139 269,131 268,127 263,124 256,123 249,124 243,124 235,124 228,124 224,122 222,120 224,116 226,111 227,106 229,102 234,101 239,101 244,102 250,102 256,103 261,103 265,104 269,105 271,106 275,107 280,106 284,108 285,117 285,135 285,158 285,180 286,195 288,209 290,229 291,249 289,263 283,272 277,279 269,283 261,281 254,277 248,275 244,271 241,264 239,254 236,244 234,234 233,223 232,213 230,203 228,195 224,190 218,187 213,185 207,185 202,188 197,195 192,204 186,211 181,214 182,214 185,214 188,217 192,221 197,230 203,243 209,257 211,266 212,279 213,301 215,324 215,339 214,359 214,394 217,430 224,454 231,466 237,474 240,479 241,481 220,485 219,484 216,482 212,477 208,470 206,459 204,444 203,429 202,416 201,405 200,393 198,382 197,371 197,356 198,337 198,316 197,298 194,281 189,264 184,251 180,243 177,239 175,235 172,231 169,227 164,223 157,219 151,216 148,214 145,212 142,209 138,206 137,205 143,205"/>
<polygon class="pen1 brush2" points="268,484 291,480 290,479 289,475 286,468 283,457 281,446 280,438 279,430 276,418 273,404 271,389 270,376 269,364 270,353 270,343 269,333 267,325 265,321 265,319 263,318 257,314 253,316 251,325 250,337 253,350 256,362 257,376 258,390 258,403 259,414 259,425 260,434 262,442 263,453 263,467 262,478 261,483 268,484"/>
<polygon class="pen1 brush2" points="318,476 322,474 330,472 337,470 340,469 339,468 335,464 332,460 330,455 330,449 329,441 328,433 327,425 326,418 326,409 325,400 324,390 323,378 321,365 320,351 319,340 319,332 319,326 319,321 319,316 317,312 315,309 313,308 311,309 309,312 306,316 304,321 303,327 303,333 304,340 305,349 307,360 310,370 311,377 312,385 314,398 316,415 318,433 318,449 318,457 317,463 315,470 314,476 313,478 318,476"/>
<polygon class="pen1 brush2" points="391,472 388,466 385,463 384,459 383,452 383,443 383,435 383,426 382,416 380,407 378,399 376,390 374,378 373,366 373,357 373,349 373,341 372,333 371,327 370,324 371,321 372,318 374,316 375,313 374,312 369,310 361,307 355,307 354,313 356,322 357,332 356,343 355,355 355,369 357,383 359,396 360,405 360,413 359,424 359,435 361,443 364,450 364,457 364,464 364,466 391,472"/>
<polygon class="pen1 brush2" points="422,471 444,472 443,471 441,469 438,463 435,452 433,439 433,429 433,417 431,403 428,389 426,377 424,368 423,358 423,349 425,340 425,333 424,328 420,323 416,318 412,316 409,318 407,325 405,333 404,341 406,350 408,359 409,369 410,381 411,397 412,410 414,419 416,426 417,435 416,447 414,459 412,469 411,473 422,471"/>
<polygon class="pen1 brush2" points="474,296 469,293 463,292 456,291 446,290 440,289 434,289 427,289 420,289 413,289 406,289 399,289 393,289 387,289 379,288 371,288 363,287 354,286 346,286 340,285 335,284 328,284 321,285 316,284 313,280 311,274 308,270 309,268 315,268 321,269 328,269 335,269 342,270 348,270 354,270 360,269 365,269 369,268 374,267 378,267 383,266 387,265 392,265 397,265 403,265 409,265 414,265 420,265 426,266 432,266 438,266 444,267 450,267 460,268 466,269 469,269 470,266 471,268 472,278 474,290 474,296"/>
<polygon class="pen1 brush2" points="473,256 469,252 466,249 463,248 456,248 455,248 454,249 451,249 447,249 442,249 437,248 431,247 425,245 418,242 411,240 405,239 398,238 393,238 388,237 384,237 382,236 381,235 380,233 378,232 373,231 366,231 358,230 353,230 352,228 355,225 359,221 363,219 366,218 369,218 375,218 382,219 391,220 400,221 408,221 416,222 421,223 426,224 433,224 440,225 448,226 456,227 462,227 467,228 469,228 472,228 476,228 479,228 480,228 473,256"/>
<polygon class="pen1 brush2" points="480,209 478,209 474,209 468,209 461,208 457,207 453,207 448,206 443,205 438,204 433,203 428,202 422,201 417,200 411,199 406,198 400,197 395,196 390,195 385,194 380,194 375,194 370,194 364,193 359,192 354,192 349,191 346,191 343,191 339,190 334,189 330,187 330,186 332,183 334,179 339,176 347,176 353,177 359,178 366,179 373,180 380,181 387,181 393,181 398,181 403,181 409,181 414,181 419,181 424,181 429,182 433,182 437,182 442,182 448,182 455,182 462,181 469,181 474,180 478,180 479,180 480,209"/>
<polygon class="pen1 brush2" points="325,32 326,38 327,44 327,52 327,61 328,74 329,90 329,105 328,117 327,126 327,133 327,139 329,142 332,145 337,149 342,151 346,149 348,145 350,141 350,135 350,128 350,119 350,111 350,103 350,94 349,79 349,59 349,42 349,35 325,32"/>
<polygon class="pen1 brush2" points="164,16 183,13 183,17 184,27 184,39 183,50 182,63 181,81 181,98 181,107 181,114 181,123 181,133 181,139 182,143 183,149 183,154 181,157 178,160 176,165 174,169 172,171 169,172 166,174 164,174 164,166 165,152 165,136 165,120 165,107 165,93 166,78 166,65 167,55 167,45 166,32 165,21 164,16"/>
<polygon class="pen1 brush2" points="208,15 227,13 227,15 226,21 225,29 225,36 225,45 225,56 225,66 224,74 223,79 220,84 216,87 211,87 208,86 207,86 207,83 207,74 206,62 206,53 206,46 206,40 206,33 207,25 208,18 208,15"/>
<polygon class="pen1 brush2" points="261,19 261,20 260,24 260,30 259,39 258,50 258,58 258,65 258,68 259,70 260,73 262,75 264,77 266,79 268,81 271,82 273,81 275,79 277,75 277,70 276,60 277,47 279,35 281,27 282,23 261,19"/>
<polygon class="pen1 brush2" points="396,92 392,92 390,91 389,92 387,99 386,109 385,117 386,123 390,129 395,134 400,138 405,140 410,138 414,134 417,133 418,131 421,123 424,114 428,109 429,105 427,101 423,96 421,92 419,91 415,90 409,90 403,91 398,92 396,92"/>
<polygon class="pen1 brush2" points="414,40 412,40 410,38 408,39 406,46 403,56 400,62 400,68 402,73 405,78 408,81 411,82 414,78 417,72 418,68 420,63 421,57 422,50 423,45 422,42 421,40 419,40 416,40 415,40 414,40"/>
<polygon class="pen1 brush2" points="430,78 430,81 431,86 433,89 437,91 443,92 449,93 454,94 456,93 457,91 459,89 460,86 460,82 461,78 461,75 460,73 456,72 451,72 449,72 446,72 443,73 438,74 434,76 431,77 430,78"/>
<polygon class="pen1 brush2" points="435,121 431,126 430,131 430,135 431,139 434,144 439,149 443,154 446,157 449,158 453,158 456,158 458,156 460,153 463,150 465,146 463,141 460,137 458,135 456,133 452,131 447,127 441,124 437,122 435,121"/>
<polygon class="pen1 brush2" points="402,146 400,155 397,163 396,168 399,172 406,175 414,178 420,179 422,176 421,172 421,168 421,164 420,160 418,155 417,150 415,146 413,144 410,144 406,145 403,146 402,146"/>
<polygon class="pen1 brush2" points="376,140 371,144 367,149 363,153 362,156 362,161 364,168 367,173 372,172 377,167 381,162 383,158 384,154 385,150 386,147 387,144 387,143 381,135 376,140"/>
<polygon class="pen1 brush2" points="358,122 366,122 372,123 377,123 379,121 381,117 381,112 380,109 379,107 379,105 380,102 379,101 373,101 365,102 360,103 356,104 355,106 355,110 356,115 357,120 358,122"/>
<polygon class="pen1 brush2" points="379,85 382,83 384,82 386,82 386,80 386,76 386,69 385,62 382,57 377,53 371,49 366,48 362,53 362,61 364,68 366,72 367,74 379,85"/>
<polygon class="pen1 brush2" points="28,325 30,328 34,332 38,336 43,339 47,342 51,345 54,346 58,344 62,342 64,340 67,338 71,335 76,332 81,328 84,325 85,324 91,321 92,323 95,328 98,334 102,338 106,341 111,344 116,346 120,346 124,345 126,344 129,342 134,337 140,330 143,325 146,323 148,323 151,325 155,328 158,332 162,337 166,343 170,349 174,353 177,355 179,354 181,352 184,349 185,346 185,343 184,340 182,335 177,328 171,320 167,312 162,307 157,303 151,300 147,297 144,297 140,300 135,306 128,313 123,319 121,321 120,322 117,323 114,322 110,317 106,309 102,302 98,297 96,295 75,312 73,314 69,318 63,320 57,317 54,313 49,309 44,304 39,300 35,296 31,293 28,291 27,290 28,325"/>
<polygon class="pen1 brush2" points="25,371 30,372 37,374 44,375 50,377 55,380 62,383 68,385 74,383 80,379 85,373 91,369 95,366 98,365 102,365 105,366 109,369 114,375 120,382 126,387 132,388 138,385 143,380 147,376 150,374 153,374 157,374 161,376 164,379 168,385 174,394 180,401 182,404 181,406 177,411 173,415 168,413 165,409 163,407 161,405 158,402 156,397 156,392 154,391 150,394 145,400 143,405 141,407 137,407 132,406 127,405 123,403 117,399 111,393 107,388 104,385 102,385 99,387 94,390 87,395 81,399 75,403 69,406 63,407 57,405 53,403 49,401 43,400 38,399 33,398 29,397 26,396 25,396 25,371"/>
<polygon class="pen1 brush2" points="24,422 33,431 40,437 46,441 50,444 53,445 57,445 61,444 64,441 68,436 73,431 78,426 81,424 85,424 90,425 96,427 101,430 104,434 107,438 109,440 115,438 123,435 129,431 135,428 140,427 144,427 148,428 150,430 151,430 154,433 160,439 167,446 172,450 175,453 177,457 178,460 175,462 171,464 166,467 162,469 159,466 156,461 153,456 150,453 147,450 144,448 140,446 136,446 131,450 127,457 125,463 120,468 112,467 104,463 98,460 93,458 90,454 86,451 82,450 76,452 70,455 63,460 56,466 49,472 47,474 46,475 44,477 41,479 38,479 35,470 30,450 26,431 24,422"/>
<polygon class="pen1 brush2" points="44,470 44,471 46,474 49,476 56,478 61,478 66,478 72,478 79,478 85,479 91,479 97,479 102,479 108,479 115,479 122,479 131,479 139,479 147,479 154,479 160,479 166,479 171,479 178,478 184,478 189,477 194,477 199,476 202,476 207,475 211,475 217,475 228,475 234,475 240,475 244,475 249,474 253,474 257,473 261,472 265,471 270,470 276,469 283,468 290,467 296,466 302,465 307,464 311,463 316,461 320,460 324,458 331,458 335,458 340,458 344,459 348,459 352,460 357,461 362,461 367,461 373,461 379,461 384,460 389,460 395,460 400,460 405,460 411,460 417,461 423,461 430,462 436,463 442,464 448,465 453,465 457,466 464,468 472,469 479,470 483,466 484,456 483,439 481,421 478,405 475,392 473,381 470,373 470,368 471,365 471,359 471,349 471,333 470,316 469,306 468,297 467,287 466,276 465,267 465,258 466,248 466,236 466,224 466,213 469,201 472,189 473,177 473,163 472,147 470,132 469,119 468,107 470,93 472,78 473,63 473,52 473,48 473,46 473,43 470,40 466,39 463,40 459,40 455,40 450,39 446,39 441,38 437,37 434,37 429,37 424,37 419,38 412,39 406,40 402,41 397,43 388,45 383,45 377,46 372,46 368,46 363,46 359,46 355,46 351,46 347,46 344,45 338,44 325,42 317,40 311,38 306,37 302,36 298,35 294,34 290,33 285,33 281,33 277,33 274,32 271,31 267,31 263,30 257,29 251,29 245,28 239,27 234,26 230,25 226,24 221,23 216,23 211,23 206,23 200,24 196,24 191,24 187,25 184,25 181,25 179,25 178,27 179,29 175,30 163,28 155,26 149,25 144,23 140,23 137,22 134,22 130,22 126,22 121,22 117,22 113,21 109,21 105,21 102,21 98,21 93,21 88,21 83,21 78,21 73,21 69,22 65,22 62,22 60,22 56,22 51,22 47,24 44,30 42,48 38,78 35,110 33,134 33,151 33,169 34,185 35,197 36,204 36,211 36,219 36,230 36,243 35,256 34,268 33,278 31,286 30,294 30,302 30,311 31,325 31,342 30,359 30,369 30,378 30,391 30,404 30,413 31,423 33,438 35,452 36,458 32,459 23,462 14,463 10,462 9,459 9,456 8,450 8,438 9,424 10,410 10,395 8,379 6,365 5,355 5,347 5,335 4,315 3,288 3,260 5,238 7,220 9,201 10,185 12,171 14,153 16,127 17,101 19,81 21,70 22,63 21,58 21,52 21,44 22,35 22,28 21,22 18,18 13,13 11,10 14,7 19,6 27,5 36,5 47,5 59,5 70,4 80,4 89,4 98,3 112,3 127,2 144,1 161,1 177,0 190,0 199,0 207,0 218,1 229,1 242,2 254,3 266,5 276,6 285,8 293,10 301,12 309,14 318,15 327,17 335,19 344,20 352,20 361,20 371,20 382,21 394,21 406,21 418,22 430,22 442,22 452,22 460,21 466,21 472,21 476,21 480,21 485,22 490,22 492,23 495,24 498,27 500,30 499,39 497,55 496,74 497,90 498,106 497,125 495,147 494,169 494,195 495,229 495,262 495,286 495,310 495,342 494,374 495,397 497,411 497,420 497,428 498,436 500,446 502,457 503,467 505,474 506,480 506,486 503,491 497,492 492,491 486,490 480,490 473,489 467,489 461,489 456,489 452,490 449,491 446,493 443,494 439,495 435,496 431,497 425,496 419,495 413,493 408,490 404,488 400,487 396,486 391,485 385,486 377,488 368,490 360,492 351,494 344,495 337,496 330,497 325,497 320,497 315,497 308,497 300,497 292,497 283,497 274,497 266,498 260,498 255,499 251,499 247,500 244,500 241,501 237,501 232,502 226,502 219,502 212,502 204,502 197,502 189,502 181,502 172,502 163,502 153,502 142,502 130,502 118,501 107,500 98,500 90,499 85,498 80,497 71,497 62,495 51,494 40,492 30,490 23,488 18,486 14,481 12,476 12,473 12,472 44,470"/>
<polygon class="pen1 brush2" points="9,459 12,474 35,473 37,456 9,459"/>
</g>
</svg>
