<?xml version="1.0" encoding="UTF-8" standalone="no"?>
<!DOCTYPE svg PUBLIC "-//W3C//DTD SVG 1.0//EN" "http://www.w3.org/TR/2001/REC-SVG-20010904/DTD/svg10.dtd">
<svg xmlns="http://www.w3.org/2000/svg" xmlns:xlink="http://www.w3.org/1999/xlink" fill-rule="evenodd" height="0.6in" preserveAspectRatio="none" stroke-linecap="round" viewBox="0 0 435 600" width="0.435in">
<style type="text/css">
.brush0 { fill: rgb(255,255,255); }
.pen0 { stroke: rgb(0,0,0); stroke-width: 1; stroke-linejoin: round; }
.brush1 { fill: none; }
.pen1 { stroke: none; }
.brush2 { fill: rgb(0,0,0); }
</style>
<g>
<polygon class="pen1 brush2" points="232,307 227,312 221,318 217,324 212,331 208,338 205,345 202,353 200,361 198,381 199,400 204,418 213,435 225,450 239,463 256,473 275,479 288,481 300,482 313,480 325,478 337,473 348,468 358,461 367,453 435,526 426,534 416,541 407,548 396,555 386,560 375,565 364,570 352,573 340,577 328,579 316,580 304,581 292,581 279,580 267,579 254,576 234,571 216,563 198,554 182,544 167,532 153,518 140,504 129,488 120,472 112,454 106,436 101,417 99,398 98,379 100,359 103,339 107,324 112,309 119,294 126,281 134,268 144,256 153,245 164,234 232,307"/>
<polygon class="pen1 brush2" points="321,232 321,217 318,202 312,187 304,172 291,156 276,144 260,135 242,129 223,127 204,129 185,134 167,144 157,152 148,160 140,170 134,181 129,192 125,204 123,216 122,228 22,226 24,202 28,179 36,156 46,134 58,113 74,93 92,76 112,60 130,50 148,41 166,35 185,31 204,28 224,27 243,29 262,31 280,36 298,43 315,51 332,61 348,72 362,86 376,101 388,117 396,131 403,145 409,159 414,174 417,189 420,204 421,219 421,234 321,232"/>
<polygon class="pen1 brush2" points="73,446 78,452 84,457 90,462 97,466 103,470 111,474 118,476 126,478 146,481 166,479 185,474 202,466 217,454 230,440 240,423 246,404 248,391 248,379 247,366 244,354 239,342 234,331 227,321 219,312 292,244 307,263 320,283 331,304 339,327 344,351 347,375 346,400 342,425 337,445 329,463 320,481 310,498 298,513 285,527 270,539 255,550 238,559 220,567 202,573 183,578 164,580 144,581 124,579 104,576 89,572 74,566 59,560 46,552 33,544 21,535 10,525 0,514 73,446"/>
</g>
</svg>
