<?xml version="1.0" encoding="UTF-8" standalone="no"?>
<!DOCTYPE svg PUBLIC "-//W3C//DTD SVG 1.0//EN" "http://www.w3.org/TR/2001/REC-SVG-20010904/DTD/svg10.dtd">
<svg xmlns="http://www.w3.org/2000/svg" xmlns:xlink="http://www.w3.org/1999/xlink" fill-rule="evenodd" height="0.556in" preserveAspectRatio="none" stroke-linecap="round" viewBox="0 0 541 556" width="0.541in">
<style type="text/css">
.brush0 { fill: rgb(255,255,255); }
.pen0 { stroke: rgb(0,0,0); stroke-width: 1; stroke-linejoin: round; }
.brush1 { fill: none; }
.pen1 { stroke: none; }
.brush2 { fill: rgb(0,0,0); }
</style>
<g>
<polygon class="pen1 brush2" points="528,113 416,224 429,250 433,278 429,306 416,332 528,443 532,447 535,452 538,457 541,462 541,94 538,99 535,104 532,108 528,113"/>
<polygon class="pen1 brush2" points="124,224 13,113 9,108 5,104 2,99 0,94 0,462 2,457 5,452 9,447 13,443 124,332 111,306 107,278 111,250 124,224"/>
<polygon class="pen1 brush2" points="106,21 217,132 230,124 243,119 257,116 271,115 285,116 299,119 312,124 324,132 435,21 439,17 443,14 447,11 451,9 456,7 460,5 465,4 470,3 464,2 459,1 453,0 447,0 94,0 88,0 82,1 76,2 71,3 76,4 81,5 85,7 90,9 94,11 98,14 102,17 106,21"/>
<polygon class="pen1 brush2" points="435,535 324,424 312,432 299,437 285,440 271,441 257,440 243,437 230,432 217,424 106,535 102,539 98,542 94,545 90,547 85,549 81,551 76,552 71,553 76,554 82,555 88,556 94,556 447,556 453,556 459,555 464,554 470,553 465,552 460,551 456,549 451,547 447,545 443,542 439,539 435,535"/>
<polygon class="pen1 brush2" points="361,285 363,282 364,278 363,275 361,272 277,187 274,185 271,184 267,185 264,187 179,272 177,275 177,278 177,282 179,285 264,370 267,372 271,372 274,372 277,370 361,285"/>
</g>
</svg>
