<?xml version="1.0" encoding="UTF-8" standalone="no"?>
<!DOCTYPE svg PUBLIC "-//W3C//DTD SVG 1.0//EN" "http://www.w3.org/TR/2001/REC-SVG-20010904/DTD/svg10.dtd">
<svg xmlns="http://www.w3.org/2000/svg" xmlns:xlink="http://www.w3.org/1999/xlink" fill-rule="evenodd" height="0.76in" preserveAspectRatio="none" stroke-linecap="round" viewBox="0 0 657 760" width="0.657in">
<style type="text/css">
.brush0 { fill: rgb(255,255,255); }
.pen0 { stroke: rgb(0,0,0); stroke-width: 1; stroke-linejoin: round; }
.brush1 { fill: none; }
.pen1 { stroke: none; }
.brush2 { fill: rgb(0,0,0); }
</style>
<g>
<polygon class="pen1 brush2" points="405,760 405,0 4,0 4,760 405,760"/>
<polygon class="pen1 brush0" points="100,195 80,198 61,206 44,217 29,229 17,242 8,253 2,261 0,264 2,267 8,275 17,286 29,299 44,312 61,323 80,331 100,334 120,331 139,323 156,312 171,299 183,286 192,275 198,267 200,264 198,261 192,253 183,242 171,229 156,217 139,206 120,198 100,195"/>
<polygon class="pen1 brush2" points="98,292 91,291 85,290 80,287 75,283 71,278 68,273 66,267 65,260 66,253 68,247 71,242 75,237 80,233 85,230 91,228 98,227 104,228 110,230 116,233 120,237 124,242 127,247 129,253 130,260 129,267 127,273 124,278 120,283 116,287 110,290 104,291 98,292"/>
<polygon class="pen1 brush0" points="299,195 279,198 260,206 243,217 228,229 216,242 207,253 201,261 199,264 201,267 207,275 216,286 228,299 243,312 260,323 279,331 299,334 319,331 338,323 354,312 369,299 381,286 390,275 396,267 398,264 396,261 390,253 381,242 369,229 354,217 338,206 319,198 299,195"/>
<polygon class="pen1 brush0" points="172,0 172,760 179,760 347,649 203,672 203,0 172,0"/>
<polygon class="pen1 brush2" points="289,262 657,178 657,351 289,262"/>
<polygon class="pen1 brush2" points="297,292 290,291 284,290 279,287 274,283 270,278 267,273 265,267 264,260 265,253 267,247 270,242 274,237 279,233 284,230 290,228 297,227 304,228 310,230 315,233 320,237 324,242 327,247 328,253 329,260 328,267 327,273 324,278 320,283 315,287 310,290 304,291 297,292"/>
<polygon class="pen1 brush0" points="657,221 329,260 657,311 657,221"/>
</g>
</svg>
