<?xml version="1.0" encoding="UTF-8" standalone="no"?>
<!DOCTYPE svg PUBLIC "-//W3C//DTD SVG 1.0//EN" "http://www.w3.org/TR/2001/REC-SVG-20010904/DTD/svg10.dtd">
<svg xmlns="http://www.w3.org/2000/svg" xmlns:xlink="http://www.w3.org/1999/xlink" fill-rule="evenodd" height="0.299in" preserveAspectRatio="none" stroke-linecap="round" viewBox="0 0 536 299" width="0.536in">
<style type="text/css">
.brush0 { fill: rgb(255,255,255); }
.pen0 { stroke: rgb(0,0,0); stroke-width: 1; stroke-linejoin: round; }
.brush1 { fill: none; }
.pen1 { stroke: none; }
.brush2 { fill: rgb(0,0,0); }
</style>
<g>
<polygon class="pen1 brush2" points="531,158 527,149 523,140 516,131 509,122 500,114 489,106 478,98 465,91 452,84 437,77 421,71 404,65 386,60 367,55 348,51 327,47 324,65 343,69 361,73 379,77 396,82 411,87 426,93 440,99 453,105 464,112 475,118 484,125 493,132 500,140 505,147 510,155 513,163 515,170 515,176 515,182 513,188 511,183 507,177 503,172 498,166 490,159 481,153 470,148 458,143 446,138 432,134 418,131 403,128 387,126 371,124 355,123 338,123 321,123 304,124 288,126 271,128 270,129 270,129 270,129 269,129 268,129 268,129 267,129 267,128 250,126 233,124 216,123 199,123 183,123 166,124 150,126 134,128 119,131 105,134 91,138 79,143 67,148 56,153 47,159 39,166 34,172 29,177 26,183 23,188 22,182 22,176 22,170 23,163 26,155 31,147 36,140 44,132 52,125 61,118 72,112 84,105 97,99 111,93 125,87 141,82 158,77 176,73 194,69 213,65 210,47 189,51 169,55 150,60 133,65 116,71 100,77 85,84 71,91 59,98 47,106 37,114 28,122 21,131 14,140 10,149 6,158 3,172 4,189 11,207 25,227 32,238 43,248 55,257 71,265 89,273 109,280 131,286 155,291 169,293 183,295 197,296 212,297 226,298 240,299 255,299 269,299 283,299 297,299 312,298 326,297 340,296 354,295 368,293 382,291 406,286 428,280 448,273 466,265 481,257 494,248 504,238 511,227 525,207 532,189 534,172 531,158"/>
<polygon class="pen1 brush0" points="195,214 197,216 200,218 203,220 206,222 204,222 202,222 199,222 197,221 187,219 179,217 172,214 166,211 161,208 157,206 154,203 153,200 152,199 153,197 154,195 156,192 160,189 166,186 174,183 182,181 182,190 184,198 188,206 195,214"/>
<polygon class="pen1 brush0" points="354,181 363,183 370,186 376,189 380,192 383,195 384,197 384,199 384,200 383,203 380,206 376,208 371,211 365,214 358,217 350,219 340,221 338,222 336,222 333,222 331,222 334,220 336,218 339,216 341,214 348,206 353,198 355,190 354,181"/>
<polygon class="pen1 brush0" points="296,162 288,164 281,166 275,168 269,171 263,168 257,166 250,164 242,162 238,161 235,161 232,160 228,160 232,158 237,156 241,155 246,153 251,152 257,150 263,149 269,148 275,149 281,150 286,152 291,153 296,155 301,156 305,158 309,160 306,160 303,161 299,161 296,162"/>
<polygon class="pen1 brush0" points="39,213 38,205 40,196 44,188 52,180 58,175 64,170 72,166 81,162 90,159 100,155 110,152 121,150 133,147 145,146 157,144 170,143 183,142 196,142 209,142 222,142 214,147 206,151 200,156 194,161 186,162 178,163 171,165 165,167 158,169 153,172 148,175 144,179 137,187 134,194 134,201 135,206 138,212 142,217 147,222 154,227 162,231 172,234 182,237 194,239 203,241 213,242 222,243 232,243 241,243 251,243 260,242 269,241 278,242 287,243 296,243 306,243 315,243 324,242 334,241 343,239 355,237 365,234 374,231 383,227 390,222 395,217 399,212 402,206 403,201 402,194 399,187 393,179 389,175 384,172 378,169 372,167 365,165 358,163 351,162 343,161 337,156 331,151 323,147 315,142 328,142 341,142 354,142 367,143 380,144 392,146 404,147 416,150 427,152 437,155 447,159 456,162 465,166 473,170 479,175 485,180 493,188 497,196 499,205 497,213 497,214 497,214 497,215 496,216 495,217 494,218 493,219 492,220 484,227 475,233 465,239 454,244 442,250 429,255 415,259 401,263 386,267 371,270 355,273 338,275 321,277 304,279 287,280 269,280 251,280 233,279 216,277 199,275 182,273 166,270 151,267 136,263 121,259 108,255 95,250 83,244 72,239 62,233 53,227 45,220 44,219 43,218 42,217 41,216 40,215 40,214 40,214 39,213"/>
<polygon class="pen1 brush2" points="374,125 277,48 405,10 325,56 374,125"/>
<polygon class="pen1 brush2" points="148,118 252,50 127,0 203,53 148,118"/>
</g>
</svg>
