<?xml version="1.0" encoding="UTF-8" standalone="no"?>
<!DOCTYPE svg PUBLIC "-//W3C//DTD SVG 1.0//EN" "http://www.w3.org/TR/2001/REC-SVG-20010904/DTD/svg10.dtd">
<svg xmlns="http://www.w3.org/2000/svg" xmlns:xlink="http://www.w3.org/1999/xlink" fill-rule="evenodd" height="1.007in" preserveAspectRatio="none" stroke-linecap="round" viewBox="0 0 801 1007" width="0.801in">
<style type="text/css">
.brush0 { fill: rgb(255,255,255); }
.pen0 { stroke: rgb(0,0,0); stroke-width: 1; stroke-linejoin: round; }
.brush1 { fill: none; }
.pen1 { stroke: none; }
.brush2 { fill: rgb(0,0,0); }
</style>
<g>
<polygon class="pen1 brush2" points="349,394 329,395 311,396 294,399 277,403 261,408 244,414 227,422 210,430 223,435 237,440 250,444 263,449 275,455 288,461 301,468 313,475 336,494 354,517 367,542 375,569 379,597 379,626 375,653 367,679 356,703 343,723 326,739 307,750 285,755 262,753 237,744 211,726 203,719 195,714 189,711 184,709 198,699 210,696 220,699 230,705 240,713 250,721 262,727 276,729 306,720 326,696 338,662 342,623 338,585 328,551 313,527 292,518 282,523 282,537 287,556 293,577 296,599 293,618 278,632 247,637 218,631 199,616 187,593 182,565 183,535 188,505 197,477 208,455 203,452 198,449 192,446 187,444 137,493 103,547 81,604 70,663 68,726 71,790 77,855 85,921 89,905 92,887 96,869 101,851 108,835 119,823 133,814 151,811 178,818 196,835 205,859 205,885 198,910 183,928 161,936 132,929 115,924 104,927 97,936 94,949 94,964 95,981 97,995 100,1007 46,1007 44,968 42,930 40,891 38,852 36,813 36,775 37,737 40,699 45,662 53,626 63,590 76,556 93,522 113,490 137,459 166,430 151,422 136,415 122,408 109,401 96,394 84,384 73,371 62,355 51,329 45,294 43,256 46,216 56,179 72,149 95,128 126,120 150,125 165,139 171,158 170,179 164,198 154,212 141,218 127,212 122,206 123,200 126,195 131,190 136,185 139,179 138,172 132,163 127,160 122,158 117,157 112,157 107,158 102,161 97,164 93,167 79,187 71,215 70,247 74,279 83,310 96,336 114,353 135,360 144,355 144,343 139,325 132,305 128,285 131,267 145,255 174,250 187,251 199,255 209,261 218,269 225,279 231,290 234,302 235,315 234,330 229,344 223,357 214,369 204,380 192,389 179,397 166,404 169,406 174,409 178,412 184,416 205,404 226,394 248,385 271,377 293,371 316,367 339,364 362,363 385,363 408,366 430,370 452,377 474,386 495,396 515,410 535,425 542,431 548,435 553,438 558,439 562,439 566,437 571,432 575,424 587,406 601,395 616,390 632,391 648,396 663,405 678,417 691,431 701,447 708,464 712,481 712,497 706,513 695,526 678,536 654,543 641,548 632,556 627,566 627,577 632,586 641,593 654,595 672,592 709,589 732,606 742,635 741,670 731,703 712,730 687,742 656,733 637,724 623,722 613,725 607,732 606,742 610,753 620,764 635,773 653,789 658,810 651,834 636,857 616,873 594,880 574,873 558,848 553,838 548,832 543,829 538,830 534,833 531,840 530,850 531,862 530,874 522,883 511,889 497,891 483,888 472,880 465,866 465,845 458,839 436,840 420,829 411,810 409,786 414,761 426,738 446,722 472,716 486,718 498,725 506,733 511,742 512,751 509,757 500,760 486,757 471,753 460,753 452,757 448,763 447,771 448,780 452,789 458,797 467,805 477,811 489,814 502,814 517,810 532,801 548,787 565,766 582,737 593,707 599,676 600,645 596,613 588,582 577,552 561,524 543,497 521,472 497,450 471,431 442,415 412,404 381,397 349,394 349,394 349,394"/>
<polygon class="pen1 brush2" points="475,21 488,20 497,62 511,91 528,107 546,112 562,105 575,87 583,59 584,21 592,21 602,21 614,20 628,20 644,19 660,19 677,20 694,21 710,22 726,25 740,28 753,32 764,38 772,44 777,52 779,62 777,70 773,75 767,77 760,77 752,76 745,74 738,71 733,68 716,58 700,51 685,49 671,49 658,53 646,59 636,67 628,76 622,86 618,97 617,107 618,117 623,127 631,135 642,141 657,145 669,150 673,157 671,167 665,178 656,189 646,199 636,207 629,212 607,222 584,226 562,225 540,220 518,212 497,201 476,188 456,175 435,161 416,148 397,137 378,129 361,123 344,122 327,126 312,135 300,148 294,161 294,173 300,183 309,192 322,199 336,202 352,203 355,216 348,225 334,229 315,229 295,221 277,206 264,181 259,147 261,129 265,113 273,99 282,86 294,74 308,64 323,55 339,47 356,40 374,35 392,30 410,27 428,24 444,22 460,21 475,21 475,21"/>
</g>
</svg>
