<?xml version="1.0" encoding="UTF-8" standalone="no"?>
<!DOCTYPE svg PUBLIC "-//W3C//DTD SVG 1.0//EN" "http://www.w3.org/TR/2001/REC-SVG-20010904/DTD/svg10.dtd">
<svg xmlns="http://www.w3.org/2000/svg" xmlns:xlink="http://www.w3.org/1999/xlink" fill-rule="evenodd" height="0.912in" preserveAspectRatio="none" stroke-linecap="round" viewBox="0 0 1097 912" width="1.097in">
<style type="text/css">
.brush0 { fill: rgb(255,255,255); }
.pen0 { stroke: rgb(0,0,0); stroke-width: 1; stroke-linejoin: round; }
.brush1 { fill: none; }
.pen1 { stroke: none; }
.brush2 { fill: rgb(0,0,0); }
</style>
<g>
<polygon class="pen1 brush2" points="472,331 432,337 394,346 356,359 319,374 284,392 251,412 220,436 191,461 165,489 141,520 120,552 103,586 89,622 79,660 72,700 70,741 71,788 76,823 84,849 98,867 117,878 144,885 179,889 223,892 225,880 229,863 234,843 238,822 240,801 240,783 235,769 225,761 192,746 169,728 155,707 149,683 150,657 158,628 171,598 190,566 199,583 210,598 222,611 236,622 251,630 268,636 286,640 306,641 332,639 356,634 377,627 397,616 415,603 431,588 445,571 458,553 469,533 479,512 487,490 495,467 501,444 506,421 510,398 513,376 530,376 530,376 535,377 547,379 566,382 588,386 612,391 634,398 654,404 668,412 654,421 639,430 624,439 610,449 595,459 581,469 567,480 554,491 542,503 531,515 522,529 513,543 506,559 501,575 498,592 497,611 501,635 511,656 526,675 544,692 563,708 583,725 600,742 615,761 619,737 620,701 621,668 627,653 633,657 636,668 638,682 640,699 642,717 646,731 652,742 661,746 688,741 703,729 709,711 708,688 702,665 693,641 683,620 675,604 679,607 684,610 688,612 693,614 698,616 703,617 708,618 713,619 711,584 708,548 707,512 712,480 729,500 742,523 752,549 760,576 767,604 772,632 776,659 780,684 791,722 804,734 820,726 836,706 852,678 867,648 880,624 890,611 891,627 891,644 890,661 889,677 891,690 895,699 904,704 919,703 935,703 952,709 967,720 978,734 983,747 980,758 968,765 944,766 918,770 898,785 887,807 883,832 889,857 904,877 930,887 967,885 998,867 1019,833 1031,789 1037,740 1036,693 1031,653 1023,625 1014,615 1005,614 994,611 982,606 970,600 958,592 947,585 938,578 932,571 960,569 983,563 1000,555 1013,544 1021,531 1025,516 1025,501 1021,486 1015,471 1005,456 994,443 980,432 964,423 947,417 928,415 909,417 889,420 871,422 855,421 838,419 822,416 806,410 789,403 770,394 817,377 846,365 861,358 863,352 857,346 845,338 829,324 814,304 835,304 853,310 870,318 887,328 903,335 918,338 935,335 952,321 965,306 973,295 977,286 977,277 972,268 964,257 952,243 938,226 924,209 912,195 900,185 888,178 876,175 862,176 845,181 826,190 799,203 787,205 786,201 794,190 808,177 825,163 843,150 859,141 852,131 844,123 834,115 823,109 810,103 797,98 783,95 768,92 753,90 738,89 724,89 710,90 696,92 684,95 672,99 662,103 627,129 608,160 602,193 608,228 621,263 640,298 663,330 686,358 676,358 665,357 655,356 644,354 634,352 623,349 612,347 602,344 591,342 580,340 569,337 558,335 547,333 536,332 524,331 513,331 510,297 502,264 491,233 477,203 459,175 438,149 415,126 389,106 362,88 332,74 302,64 270,57 237,54 204,56 171,63 138,74 113,86 90,103 69,123 53,145 42,169 40,195 47,220 66,246 102,272 131,275 153,261 167,237 172,211 167,188 150,176 121,181 107,184 99,178 98,167 102,152 113,137 129,122 152,112 180,108 221,117 242,141 249,174 250,213 251,252 259,285 281,309 324,318 362,313 385,299 396,279 399,257 397,235 393,215 392,201 397,196 415,200 430,212 442,229 452,250 460,273 465,295 469,315 472,331 473,379 473,379 473,379 469,404 462,429 454,454 443,477 430,499 414,520 396,538 376,555 362,564 347,571 330,577 313,580 297,581 280,578 265,571 252,560 241,543 236,526 238,510 245,495 256,480 271,465 290,451 311,439 333,427 356,416 380,407 403,398 424,391 444,386 460,382 473,379 472,331"/>
</g>
</svg>
