<?xml version="1.0" encoding="UTF-8" standalone="no"?>
<!DOCTYPE svg PUBLIC "-//W3C//DTD SVG 1.0//EN" "http://www.w3.org/TR/2001/REC-SVG-20010904/DTD/svg10.dtd">
<svg xmlns="http://www.w3.org/2000/svg" xmlns:xlink="http://www.w3.org/1999/xlink" fill-rule="evenodd" height="1.239in" preserveAspectRatio="none" stroke-linecap="round" viewBox="0 0 742 1239" width="0.742in">
<style type="text/css">
.brush0 { fill: rgb(255,255,255); }
.pen0 { stroke: rgb(0,0,0); stroke-width: 1; stroke-linejoin: round; }
.brush1 { fill: none; }
.pen1 { stroke: none; }
.brush2 { fill: rgb(0,0,0); }
.pen2 { stroke: rgb(255,255,255); stroke-width: 1; stroke-linejoin: round; }
.brush3 { fill: rgb(127,127,127); }
.brush4 { fill: rgb(63,63,63); }
</style>
<g>
<polygon class="pen1 brush2" points="742,1239 731,1204 721,1172 712,1142 703,1114 694,1088 686,1062 679,1038 672,1014 663,981 654,944 644,906 635,868 625,830 616,794 607,761 599,733 591,702 582,667 574,629 565,589 556,550 547,515 538,484 528,460 515,461 498,462 479,465 458,467 438,470 420,473 406,474 398,475 392,475 383,475 374,475 365,474 356,474 349,475 344,475 342,476 344,504 347,541 352,585 358,631 363,677 368,721 373,757 375,784 378,817 384,870 391,935 400,1008 408,1080 415,1147 421,1202 424,1238 573,1159 742,1239"/>
<polygon class="pen1 brush2" points="706,1199 698,1171 690,1145 682,1121 675,1099 668,1077 661,1057 655,1037 650,1018 643,991 636,962 628,932 621,901 613,871 606,842 599,816 592,793 584,765 576,726 566,681 556,633 545,586 535,544 526,509 517,486 507,487 494,488 478,490 462,492 445,494 431,496 419,498 412,498 408,498 401,498 394,498 387,498 380,498 374,499 370,499 369,500 371,526 376,565 382,614 390,667 397,721 404,770 409,809 412,835 414,861 419,903 425,956 432,1013 438,1072 444,1125 449,1169 452,1198 571,1134 706,1199"/>
<polyline class="pen2" fill="none" points="706,1199 706,1199 698,1171 690,1145 682,1121 675,1099 668,1077 661,1057 655,1037 650,1018 650,1018 643,991 636,962 628,932 621,901 613,871 606,842 599,816 592,793 592,793 584,765 576,726 566,681 556,633 545,586 535,544 526,509 517,486 517,486 507,487 494,488 478,490 462,492 445,494 431,496 419,498 412,498 412,498 408,498 401,498 394,498 387,498 380,498 374,499 370,499 369,500 369,500 371,526 376,565 382,614 390,667 397,721 404,770 409,809 412,835 412,835 414,861 419,903 425,956 432,1013 438,1072 444,1125 449,1169 452,1198 571,1134 706,1199"/>
<polygon class="pen1 brush2" points="319,1237 322,1201 328,1146 336,1080 344,1007 352,935 360,870 366,817 369,784 371,756 375,720 380,678 386,632 391,587 396,544 399,506 401,476 399,475 394,475 387,474 378,474 369,475 360,475 352,475 346,475 336,474 321,472 302,468 280,465 258,462 237,458 219,456 206,455 201,475 194,505 186,542 177,583 167,626 158,668 149,707 141,739 134,769 126,801 117,836 108,871 99,908 90,944 80,979 71,1013 63,1039 56,1065 48,1090 40,1117 32,1145 22,1174 12,1205 0,1239 162,1164 319,1237"/>
<polygon class="pen1 brush2" points="299,1189 301,1160 306,1116 312,1063 319,1004 326,947 332,894 337,852 339,826 341,800 346,762 352,715 359,664 366,613 371,566 376,527 378,500 377,499 373,499 367,498 360,498 353,498 346,498 339,498 334,498 326,497 314,496 298,493 281,490 263,488 247,485 232,484 222,483 217,503 210,535 201,578 192,625 182,674 172,721 164,761 157,790 151,814 145,840 138,868 131,896 123,925 116,954 108,983 100,1010 94,1030 88,1051 82,1071 76,1092 69,1115 62,1138 54,1163 44,1190 174,1130 299,1189"/>
<polyline class="pen2" fill="none" points="299,1189 299,1189 301,1160 306,1116 312,1063 319,1004 326,947 332,894 337,852 339,826 339,826 341,800 346,762 352,715 359,664 366,613 371,566 376,527 378,500 378,500 377,499 373,499 367,498 360,498 353,498 346,498 339,498 334,498 334,498 326,497 314,496 298,493 281,490 263,488 247,485 232,484 222,483 222,483 217,503 210,535 201,578 192,625 182,674 172,721 164,761 157,790 157,790 151,814 145,840 138,868 131,896 123,925 116,954 108,983 100,1010 100,1010 94,1030 88,1051 82,1071 76,1092 69,1115 62,1138 54,1163 44,1190 174,1130 299,1189"/>
<polygon class="pen1 brush3" points="364,557 391,556 418,552 443,545 468,536 491,525 513,511 534,496 553,478 570,459 586,439 599,416 611,393 620,368 627,342 631,316 632,288 631,261 627,234 620,208 611,184 599,160 586,138 570,118 553,98 534,81 513,66 491,52 468,41 443,32 418,25 391,21 364,20 337,21 310,25 284,32 260,41 236,52 214,66 194,81 175,98 157,118 142,138 128,160 117,184 108,208 101,234 97,261 96,288 97,316 101,342 108,368 117,393 128,416 142,439 157,459 175,478 194,496 214,511 236,525 260,536 284,545 310,552 337,556 364,557"/>
<polygon class="pen1 brush0" points="176,75 182,70 190,64 199,57 208,49 218,42 227,35 234,30 240,26 244,35 248,46 253,59 258,72 263,85 268,96 271,104 273,109 266,114 259,119 251,125 247,130 239,123 230,115 220,107 210,99 200,92 190,85 182,79 176,75"/>
<polyline class="pen0" fill="none" points="176,75 176,75 182,70 190,64 199,57 208,49 218,42 227,35 234,30 240,26 240,26 244,35 248,46 253,59 258,72 263,85 268,96 271,104 273,109 273,109 266,114 259,119 251,125 247,130 247,130 239,123 230,115 220,107 210,99 200,92 190,85 182,79 176,75"/>
<polygon class="pen1 brush0" points="108,163 112,156 117,148 123,138 129,127 136,117 142,108 147,100 150,95 157,102 165,111 175,121 184,132 193,143 201,152 207,158 210,162 206,169 200,176 196,184 193,191 183,187 172,183 160,179 148,175 136,171 125,168 115,165 108,163"/>
<polyline class="pen0" fill="none" points="108,163 108,163 112,156 117,148 123,138 129,127 136,117 142,108 147,100 150,95 150,95 157,102 165,111 175,121 184,132 193,143 201,152 207,158 210,162 210,162 206,169 200,176 196,184 193,191 193,191 183,187 172,183 160,179 148,175 136,171 125,168 115,165 108,163"/>
<polygon class="pen1 brush0" points="77,280 81,262 86,239 91,216 94,201 103,206 114,212 126,218 138,225 150,232 161,237 169,242 173,244 171,252 169,261 167,270 167,277 157,276 145,276 132,277 119,277 106,278 95,278 85,279 77,280"/>
<polyline class="pen0" fill="none" points="77,280 77,280 81,262 86,239 91,216 94,201 94,201 103,206 114,212 126,218 138,225 150,232 161,237 169,242 173,244 173,244 171,252 169,261 167,270 167,277 167,277 157,276 145,276 132,277 119,277 106,278 95,278 85,279 77,280"/>
<polygon class="pen1 brush0" points="91,380 88,363 85,339 82,316 80,300 90,301 102,303 116,305 130,307 143,309 155,311 164,313 169,314 170,322 171,331 172,340 174,346 164,349 153,354 141,358 129,363 118,368 107,372 98,377 91,380"/>
<polyline class="pen0" fill="none" points="91,380 91,380 88,363 85,339 82,316 80,300 80,300 90,301 102,303 116,305 130,307 143,309 155,311 164,313 169,314 169,314 170,322 171,331 172,340 174,346 174,346 164,349 153,354 141,358 129,363 118,368 107,372 98,377 91,380"/>
<polygon class="pen1 brush0" points="229,546 223,541 215,535 206,527 197,519 188,511 180,503 174,497 169,492 177,487 187,480 199,473 211,465 223,458 233,452 241,448 245,445 251,450 258,457 265,463 271,467 265,476 259,486 253,497 247,509 241,520 236,530 232,539 229,546"/>
<polyline class="pen0" fill="none" points="229,546 229,546 223,541 215,535 206,527 197,519 188,511 180,503 174,497 169,492 169,492 177,487 187,480 199,473 211,465 223,458 233,452 241,448 245,445 245,445 251,450 258,457 265,463 271,467 271,467 265,476 259,486 253,497 247,509 241,520 236,530 232,539 229,546"/>
<polygon class="pen1 brush0" points="141,473 137,466 132,457 127,447 121,436 115,426 110,416 106,407 103,401 113,399 125,396 138,394 153,391 166,388 178,386 186,385 191,384 195,391 199,399 203,407 208,412 200,419 191,426 181,435 171,444 162,452 153,460 146,467 141,473"/>
<polyline class="pen0" fill="none" points="141,473 141,473 137,466 132,457 127,447 121,436 115,426 110,416 106,407 103,401 103,401 113,399 125,396 138,394 153,391 166,388 178,386 186,385 191,384 191,384 195,391 199,399 203,407 208,412 208,412 200,419 191,426 181,435 171,444 162,452 153,460 146,467 141,473"/>
<polygon class="pen1 brush0" points="338,574 330,572 320,569 309,566 298,562 286,559 275,555 266,552 260,550 265,542 272,532 280,520 288,508 295,497 302,487 307,479 310,475 313,476 317,477 322,479 326,481 330,482 335,483 339,484 342,484 340,506 338,532 338,556 338,574"/>
<polyline class="pen0" fill="none" points="338,574 338,574 330,572 320,569 309,566 298,562 286,559 275,555 266,552 260,550 260,550 265,542 272,532 280,520 288,508 295,497 302,487 307,479 310,475 310,475 313,476 317,477 322,479 326,481 330,482 335,483 339,484 342,484 342,484 340,506 338,532 338,556 338,574"/>
<polygon class="pen1 brush0" points="449,564 441,566 431,567 420,569 408,571 397,572 386,573 377,574 370,575 373,553 377,525 381,500 383,486 387,486 391,485 395,485 400,485 405,485 409,484 412,483 415,481 418,491 422,502 427,514 432,526 437,537 441,548 446,557 449,564"/>
<polyline class="pen0" fill="none" points="449,564 449,564 441,566 431,567 420,569 408,571 397,572 386,573 377,574 370,575 370,575 373,553 377,525 381,500 383,486 383,486 387,486 391,485 395,485 400,485 405,485 409,484 412,483 415,481 415,481 418,491 422,502 427,514 432,526 437,537 441,548 446,557 449,564"/>
<polygon class="pen1 brush0" points="550,509 544,514 536,520 526,526 516,533 506,540 496,546 489,551 483,554 476,533 468,505 461,481 457,467 464,463 472,458 480,453 484,448 491,456 500,464 509,473 519,482 528,490 537,498 544,504 550,509"/>
<polyline class="pen0" fill="none" points="550,509 550,509 544,514 536,520 526,526 516,533 506,540 496,546 489,551 483,554 483,554 476,533 468,505 461,481 457,467 457,467 464,463 472,458 480,453 484,448 484,448 491,456 500,464 509,473 519,482 528,490 537,498 544,504 550,509"/>
<polygon class="pen1 brush0" points="616,420 613,427 608,436 602,446 595,456 589,466 583,476 578,483 574,489 567,482 559,472 549,462 540,451 531,441 523,432 517,425 514,421 518,415 524,407 529,399 531,393 541,397 552,401 564,405 576,409 588,413 599,416 609,418 616,420"/>
<polyline class="pen0" fill="none" points="616,420 616,420 613,427 608,436 602,446 595,456 589,466 583,476 578,483 574,489 574,489 567,482 559,472 549,462 540,451 531,441 523,432 517,425 514,421 514,421 518,415 524,407 529,399 531,393 531,393 541,397 552,401 564,405 576,409 588,413 599,416 609,418 616,420"/>
<polygon class="pen1 brush0" points="649,313 646,331 641,354 636,377 632,392 623,388 612,382 600,375 588,369 576,362 565,356 557,352 553,349 555,342 557,333 559,324 559,317 569,317 581,317 594,317 607,316 620,316 631,315 641,314 649,313"/>
<polyline class="pen0" fill="none" points="649,313 649,313 646,331 641,354 636,377 632,392 632,392 623,388 612,382 600,375 588,369 576,362 565,356 557,352 553,349 553,349 555,342 557,333 559,324 559,317 559,317 569,317 581,317 594,317 607,316 620,316 631,315 641,314 649,313"/>
<polygon class="pen1 brush0" points="640,207 643,225 646,248 649,271 651,287 641,286 629,284 615,282 601,280 588,278 576,276 567,275 562,274 561,266 560,257 559,248 556,242 566,239 578,234 590,230 602,224 613,219 624,215 633,210 640,207"/>
<polyline class="pen0" fill="none" points="640,207 640,207 643,225 646,248 649,271 651,287 651,287 641,286 629,284 615,282 601,280 588,278 576,276 567,275 562,274 562,274 561,266 560,257 559,248 556,242 556,242 566,239 578,234 590,230 602,224 613,219 624,215 633,210 640,207"/>
<polygon class="pen1 brush0" points="589,109 593,116 598,125 603,135 609,146 615,156 620,166 624,175 627,181 617,183 605,186 591,188 577,191 564,194 552,196 543,198 538,199 535,192 531,183 527,175 522,170 530,164 539,156 549,148 559,139 568,130 576,122 583,115 589,109"/>
<polyline class="pen0" fill="none" points="589,109 589,109 593,116 598,125 603,135 609,146 615,156 620,166 624,175 627,181 627,181 617,183 605,186 591,188 577,191 564,194 552,196 543,198 538,199 538,199 535,192 531,183 527,175 522,170 522,170 530,164 539,156 549,148 559,139 568,130 576,122 583,115 589,109"/>
<polygon class="pen1 brush0" points="505,35 511,40 519,47 528,55 537,63 546,71 554,79 560,85 565,90 557,95 547,101 535,109 523,116 511,123 501,129 493,134 489,136 483,131 476,124 469,118 463,115 469,106 475,96 481,85 487,73 493,62 498,51 502,42 505,35"/>
<polyline class="pen0" fill="none" points="505,35 505,35 511,40 519,47 528,55 537,63 546,71 554,79 560,85 565,90 565,90 557,95 547,101 535,109 523,116 511,123 501,129 493,134 489,136 489,136 483,131 476,124 469,118 463,115 463,115 469,106 475,96 481,85 487,73 493,62 498,51 502,42 505,35"/>
<polygon class="pen1 brush0" points="387,0 394,2 404,5 415,8 426,11 437,15 448,18 457,21 463,23 458,31 451,42 443,54 435,66 428,77 421,87 416,94 413,98 410,97 406,96 402,94 398,92 394,91 390,90 386,90 383,90 385,68 387,42 387,18 387,0"/>
<polyline class="pen0" fill="none" points="387,0 387,0 394,2 404,5 415,8 426,11 437,15 448,18 457,21 463,23 463,23 458,31 451,42 443,54 435,66 428,77 421,87 416,94 413,98 413,98 410,97 406,96 402,94 398,92 394,91 390,90 386,90 383,90 383,90 385,68 387,42 387,18 387,0"/>
<polygon class="pen1 brush0" points="275,16 283,15 293,13 304,11 317,10 328,8 339,7 349,6 355,5 352,27 348,55 344,80 342,94 339,95 334,95 330,95 325,96 320,96 316,97 312,98 309,99 306,89 302,78 297,66 292,54 287,43 283,32 278,23 275,16"/>
<polyline class="pen0" fill="none" points="275,16 275,16 283,15 293,13 304,11 317,10 328,8 339,7 349,6 355,5 355,5 352,27 348,55 344,80 342,94 342,94 339,95 334,95 330,95 325,96 320,96 316,97 312,98 309,99 309,99 306,89 302,78 297,66 292,54 287,43 283,32 278,23 275,16"/>
<polygon class="pen1 brush4" points="365,490 385,489 405,486 424,481 443,474 460,466 477,456 492,444 506,431 519,417 531,401 541,384 549,367 556,348 561,329 564,309 565,288 564,267 561,247 556,228 549,210 541,192 531,176 519,160 506,146 492,133 477,121 460,111 443,103 424,96 405,91 385,88 365,87 344,88 324,91 305,96 287,103 269,111 252,121 237,133 222,146 209,160 198,176 187,192 179,210 172,228 167,247 164,267 163,288 164,309 167,329 172,348 179,367 187,384 198,401 209,417 222,431 237,444 252,456 269,466 287,474 305,481 324,486 344,489 365,490"/>
<polygon class="pen1 brush0" points="364,470 383,469 400,466 418,462 434,456 450,448 465,439 479,429 492,417 504,404 514,390 523,375 531,359 537,343 541,325 544,308 545,289 544,270 541,252 537,235 531,218 523,202 514,187 504,173 492,160 479,149 465,138 450,129 434,121 418,115 400,111 383,108 364,107 345,108 328,111 310,115 294,121 278,129 263,138 249,149 236,160 224,173 214,187 205,202 197,218 191,235 187,252 184,270 183,289 184,308 187,325 191,343 197,359 205,375 214,390 224,404 236,417 249,429 263,439 278,448 294,456 310,462 328,466 345,469 364,470"/>
</g>
</svg>
