<?xml version="1.0" encoding="UTF-8" standalone="no"?>
<!DOCTYPE svg PUBLIC "-//W3C//DTD SVG 1.0//EN" "http://www.w3.org/TR/2001/REC-SVG-20010904/DTD/svg10.dtd">
<svg xmlns="http://www.w3.org/2000/svg" xmlns:xlink="http://www.w3.org/1999/xlink" fill-rule="evenodd" height="0.499in" preserveAspectRatio="none" stroke-linecap="round" viewBox="0 0 500 499" width="0.5in">
<style type="text/css">
.brush0 { fill: rgb(255,255,255); }
.pen0 { stroke: rgb(0,0,0); stroke-width: 1; stroke-linejoin: round; }
.brush1 { fill: none; }
.pen1 { stroke: none; }
.brush2 { fill: rgb(0,0,0); }
</style>
<g>
<polygon class="pen1 brush2" points="500,0 500,499 0,499 0,0 500,0"/>
<polygon class="pen1 brush0" points="178,475 178,26 125,26 125,475 178,475"/>
<polygon class="pen1 brush0" points="391,475 391,26 338,26 338,475 391,475"/>
<polygon class="pen1 brush0" points="285,475 285,26 231,26 231,475 285,475"/>
<polygon class="pen1 brush0" points="62,131 60,129 58,128 58,126 59,125 60,124 61,124 62,123 63,123 68,121 73,119 80,117 87,115 96,113 105,111 116,109 127,108 139,106 152,105 167,103 182,102 198,101 215,101 232,100 251,100 269,100 287,101 303,101 319,102 334,103 348,105 361,106 373,108 385,109 395,111 404,113 413,115 420,117 427,119 432,121 437,123 438,123 439,123 439,124 440,124 442,125 442,125 440,126 438,127 433,129 428,131 421,132 414,134 405,136 396,138 385,140 374,142 362,144 349,145 335,146 320,148 304,149 287,149 270,150 251,150 232,150 214,150 197,149 181,148 165,147 151,146 138,145 125,144 114,142 104,141 94,139 86,138 78,136 72,134 66,133 62,131 47,151 55,154 63,158 73,161 83,163 95,166 107,168 120,170 133,172 147,174 161,175 176,176 191,177 206,178 221,179 236,179 251,179 268,179 284,178 301,178 318,177 335,176 351,174 367,172 382,170 397,168 410,165 423,162 434,159 444,155 453,151 460,147 466,142 470,137 473,133 474,128 474,125 474,121 473,117 470,112 466,107 460,102 453,98 444,94 434,91 423,88 410,85 397,82 382,80 367,78 351,76 335,74 318,73 301,72 284,72 268,71 251,71 230,71 209,72 189,73 169,74 150,76 132,78 115,80 99,83 82,87 67,91 54,95 44,100 36,105 30,111 27,118 26,125 26,128 27,133 30,137 34,142 36,145 39,147 43,149 47,151 62,131"/>
<polygon class="pen1 brush0" points="62,256 60,255 58,253 58,252 59,251 60,250 61,250 62,249 63,249 68,247 73,245 80,243 87,241 96,239 105,237 116,235 127,234 139,232 152,231 167,229 182,228 198,227 215,227 232,226 251,226 269,226 287,227 303,227 319,228 334,229 348,231 361,232 373,234 385,235 395,237 404,239 413,241 420,243 427,245 432,247 437,249 438,249 439,249 439,250 440,250 442,251 442,251 440,252 438,253 433,255 428,257 421,258 414,260 405,262 396,264 385,266 374,267 362,269 349,270 335,272 320,273 304,274 287,274 270,275 251,275 232,275 214,275 197,274 181,273 165,273 151,272 138,271 125,269 114,268 104,266 94,265 86,263 78,261 72,260 66,258 62,256 47,277 55,280 63,284 73,287 83,289 95,292 107,294 120,296 133,298 147,300 161,301 176,302 191,303 206,304 221,305 236,305 251,305 268,305 284,304 301,304 318,303 335,301 351,300 367,298 382,296 397,293 410,291 423,288 434,284 444,281 453,277 460,273 466,268 470,263 473,259 474,254 474,251 474,247 473,243 470,238 466,233 460,228 453,224 444,220 434,217 423,214 410,211 397,208 382,206 367,204 351,202 335,200 318,199 301,198 284,198 268,197 251,197 230,197 209,198 189,199 169,200 150,202 132,204 115,206 99,209 82,213 67,217 54,221 44,226 36,231 30,237 27,244 26,251 26,254 27,259 30,263 34,268 36,271 39,273 43,275 47,277 62,256"/>
<polygon class="pen1 brush0" points="62,381 60,380 58,378 58,377 59,376 60,375 61,375 62,374 63,374 68,372 73,370 80,368 87,366 96,364 105,363 116,361 127,359 139,358 152,356 167,355 182,354 198,353 215,353 232,352 251,352 269,352 287,353 303,353 319,354 334,355 348,356 361,358 373,359 385,361 395,363 404,364 413,366 420,368 427,370 432,372 437,374 438,374 439,374 439,375 440,375 442,376 442,376 440,376 438,377 433,379 428,381 421,383 414,385 405,387 396,389 385,391 374,392 362,394 349,395 335,397 320,398 304,399 287,399 270,400 251,400 232,400 214,400 197,399 181,398 165,398 151,397 138,396 125,394 114,393 104,391 94,390 86,388 78,386 72,385 66,383 62,381 47,402 55,405 63,409 73,412 83,414 95,417 107,419 120,421 133,423 147,425 161,426 176,427 191,428 206,429 221,430 236,430 251,430 268,430 284,429 301,429 318,428 335,426 351,425 367,423 382,421 397,418 410,416 423,413 434,409 444,406 453,402 460,398 466,393 470,388 473,384 474,379 474,376 474,372 473,368 470,363 466,358 460,354 453,350 444,346 434,342 423,339 410,336 397,334 382,331 367,329 351,328 335,326 318,325 301,324 284,324 268,323 251,323 230,323 209,324 189,325 169,326 150,328 132,330 115,332 99,335 82,339 67,342 54,347 44,351 36,357 30,362 27,369 26,376 26,379 27,384 30,388 34,393 36,395 39,397 43,400 47,402 62,381"/>
</g>
</svg>
