<?xml version="1.0" encoding="UTF-8" standalone="no"?>
<!DOCTYPE svg PUBLIC "-//W3C//DTD SVG 1.0//EN" "http://www.w3.org/TR/2001/REC-SVG-20010904/DTD/svg10.dtd">
<svg xmlns="http://www.w3.org/2000/svg" xmlns:xlink="http://www.w3.org/1999/xlink" fill-rule="evenodd" height="0.639in" preserveAspectRatio="none" stroke-linecap="round" viewBox="0 0 666 639" width="0.666in">
<style type="text/css">
.brush0 { fill: rgb(255,255,255); }
.pen0 { stroke: rgb(0,0,0); stroke-width: 1; stroke-linejoin: round; }
.brush1 { fill: none; }
.pen1 { stroke: none; }
.brush2 { fill: rgb(0,0,0); }
</style>
<g>
<polygon class="pen1 brush2" points="0,0 1,608 291,639 486,627 666,628 652,389 662,6 0,0"/>
<polygon class="pen1 brush0" points="546,341 540,353 534,365 528,377 522,389 516,400 512,409 509,415 507,418 504,421 498,426 489,433 478,441 466,448 452,455 437,461 421,464 417,465 408,468 396,471 383,476 369,480 357,483 347,486 341,486 336,485 326,484 313,482 298,480 284,478 270,477 260,475 255,474 251,471 242,463 232,452 220,440 208,428 197,416 189,408 184,403 174,384 165,353 159,324 157,309 160,292 167,260 174,230 178,220 180,215 187,206 199,194 212,180 226,168 239,156 250,148 257,144 265,144 279,143 299,143 321,143 342,144 362,144 376,145 384,147 398,157 411,171 422,189 432,209 438,232 440,255 437,278 429,301 423,309 416,316 407,324 398,330 389,335 382,339 377,342 375,343 372,345 365,346 356,347 346,347 336,346 326,346 319,345 315,344 308,339 299,330 290,319 282,306 275,291 271,276 270,262 274,248 277,244 281,240 286,236 291,232 297,228 302,225 308,222 313,219 316,219 321,219 327,219 334,220 340,221 346,223 351,224 354,225 358,233 364,250 369,268 370,279 367,284 363,287 358,290 353,292 347,294 342,294 336,293 331,291 325,286 322,279 322,272 324,264 295,250 291,260 289,270 289,280 291,290 295,299 300,308 307,315 316,320 328,323 341,323 354,320 367,315 378,309 388,303 395,297 398,293 403,280 407,264 408,250 407,240 405,237 401,231 396,225 390,217 383,210 377,203 372,199 369,196 363,194 354,192 343,190 332,189 321,188 311,187 303,187 299,188 297,190 291,194 282,200 272,207 262,215 253,223 247,229 244,233 242,245 241,261 243,281 247,303 255,324 265,344 278,361 295,374 306,378 319,381 333,383 346,384 358,384 368,384 375,384 377,384 381,381 390,377 402,371 415,362 430,353 443,342 455,330 464,317 473,281 473,238 467,201 461,180 458,176 452,168 443,157 434,146 424,134 414,124 406,116 401,112 391,108 379,104 367,102 355,100 342,99 329,99 316,99 304,100 292,101 280,103 270,104 260,106 252,108 245,109 240,110 236,111 230,114 221,120 209,129 196,140 183,153 170,167 158,182 149,196 139,221 133,251 129,283 128,314 129,344 132,369 135,388 140,398 146,405 157,418 170,433 185,450 202,468 218,483 233,496 245,503 250,505 256,507 263,509 272,511 282,512 292,514 304,515 315,516 328,517 340,518 353,518 365,517 378,516 390,514 401,512 412,509 419,505 433,497 450,485 469,472 489,458 506,446 519,437 526,432 533,424 540,412 546,399 551,384 555,370 558,358 559,350 560,347 546,341"/>
<polygon class="pen1 brush0" points="340,3 289,3 276,75 307,68 308,67 310,63 313,57 318,49 323,39 328,28 334,16 340,3"/>
<polygon class="pen1 brush0" points="575,5 503,4 490,20 478,35 466,50 456,64 448,76 442,85 437,91 436,93 449,118 549,37 551,35 558,28 566,18 575,5"/>
<polygon class="pen1 brush0" points="524,225 549,250 656,234 658,165 637,172 614,181 592,191 571,201 552,210 537,218 528,223 524,225"/>
<polygon class="pen1 brush0" points="0,51 103,111 134,99 132,96 127,88 118,76 107,62 95,46 81,29 66,14 52,1 0,0 0,51"/>
<polygon class="pen1 brush0" points="1,351 12,348 21,345 26,344 28,343 97,305 97,286 1,290 1,351"/>
<polygon class="pen1 brush0" points="1,529 1,591 7,587 12,583 18,579 22,575 26,572 29,569 30,568 31,567 100,492 87,467 85,468 79,472 70,478 59,486 45,495 31,506 16,517 1,529"/>
<polygon class="pen1 brush0" points="253,547 251,555 245,574 238,602 231,633 285,639 287,628 289,618 290,612 290,610 278,547 253,547"/>
<polygon class="pen1 brush0" points="499,578 474,528 443,547 445,554 449,573 457,599 466,628 486,627 525,627 499,578"/>
<polygon class="pen1 brush0" points="655,430 586,408 568,457 570,458 576,462 585,468 597,474 611,482 626,491 642,499 659,507 655,430"/>
</g>
</svg>
