<?xml version="1.0" encoding="UTF-8" standalone="no"?>
<!DOCTYPE svg PUBLIC "-//W3C//DTD SVG 1.0//EN" "http://www.w3.org/TR/2001/REC-SVG-20010904/DTD/svg10.dtd">
<svg xmlns="http://www.w3.org/2000/svg" xmlns:xlink="http://www.w3.org/1999/xlink" fill-rule="evenodd" height="0.498in" preserveAspectRatio="none" stroke-linecap="round" viewBox="0 0 229 498" width="0.229in">
<style type="text/css">
.brush0 { fill: rgb(255,255,255); }
.pen0 { stroke: rgb(0,0,0); stroke-width: 1; stroke-linejoin: round; }
.brush1 { fill: none; }
.pen1 { stroke: none; }
.brush2 { fill: rgb(0,0,0); }
</style>
<g>
<polygon class="pen1 brush2" points="229,447 229,219 0,219 0,447 229,447"/>
<polygon class="pen1 brush2" points="33,219 36,214 42,209 49,204 56,200 56,200 60,197 63,192 67,186 71,179 75,173 80,167 84,161 88,157 96,149 103,141 109,134 115,126 121,113 128,96 133,81 135,74 134,73 131,72 125,70 118,69 111,68 106,67 102,66 99,66 96,65 92,64 89,63 88,62 90,62 94,60 100,58 107,56 115,53 123,51 130,48 135,46 139,44 142,42 145,40 148,38 151,35 155,32 161,28 169,24 178,20 185,15 192,11 198,7 202,4 205,2 207,1 208,0 209,1 209,3 209,7 207,14 202,25 198,39 194,54 192,65 190,79 187,98 184,115 183,122 182,125 180,131 178,135 174,134 171,128 167,121 164,116 162,111 160,106 158,101 155,97 154,95 153,98 150,105 145,115 140,127 133,140 127,152 121,162 115,169 106,177 99,182 93,188 88,196 83,205 77,212 74,217 72,219 33,219"/>
<polygon class="pen1 brush0" points="103,447 97,443 91,439 84,436 77,432 72,429 67,427 64,426 61,424 57,422 54,419 49,416 44,412 33,402 25,395 21,391 19,389 19,389 21,387 26,382 35,375 48,370 55,367 61,365 66,362 71,359 76,357 81,354 86,351 91,348 96,345 100,343 104,341 108,339 112,336 117,333 123,330 130,325 138,320 145,315 151,310 156,306 160,302 163,299 165,297 166,296 163,294 156,289 147,283 139,277 136,274 132,272 127,270 122,267 116,265 111,263 105,261 100,258 95,255 90,251 84,247 80,243 75,240 72,237 70,236 69,235 68,235 65,234 60,233 55,231 49,229 43,227 38,225 34,223 33,222 32,221 32,220 33,219 72,219 72,219 73,220 74,221 77,223 81,225 86,228 93,231 102,235 111,239 118,242 123,244 128,246 131,248 135,250 139,252 143,254 148,256 153,258 157,260 161,262 166,263 170,265 175,268 181,270 181,270 192,276 200,283 204,288 206,290 211,301 209,303 204,307 195,314 184,323 178,327 173,332 168,336 163,340 157,344 152,348 146,351 139,354 133,356 129,358 126,359 123,360 119,362 115,363 110,365 103,368 95,371 86,375 78,378 71,381 65,384 60,387 57,388 56,389 57,389 59,390 62,391 67,392 72,395 78,397 84,401 90,405 96,409 100,412 105,414 109,416 114,419 120,421 127,424 135,428 144,432 150,435 156,437 160,438 163,440 167,441 170,442 174,443 176,444 178,445 179,446 181,447 103,447"/>
<polygon class="pen1 brush2" points="181,447 186,452 191,456 193,460 194,461 197,463 202,468 204,474 197,479 191,479 185,476 179,473 173,470 167,468 162,465 158,464 157,463 159,466 164,473 168,481 170,487 169,491 167,494 164,495 161,494 158,490 153,486 147,480 141,474 136,468 131,464 128,461 127,460 126,460 123,459 119,458 114,455 112,453 109,451 106,449 103,447 181,447"/>
</g>
</svg>
