<?xml version="1.0" encoding="UTF-8" standalone="no"?>
<!DOCTYPE svg PUBLIC "-//W3C//DTD SVG 1.0//EN" "http://www.w3.org/TR/2001/REC-SVG-20010904/DTD/svg10.dtd">
<svg xmlns="http://www.w3.org/2000/svg" xmlns:xlink="http://www.w3.org/1999/xlink" fill-rule="evenodd" height="0.482in" preserveAspectRatio="none" stroke-linecap="round" viewBox="0 0 437 482" width="0.437in">
<style type="text/css">
.brush0 { fill: rgb(255,255,255); }
.pen0 { stroke: rgb(0,0,0); stroke-width: 1; stroke-linejoin: round; }
.brush1 { fill: none; }
.pen1 { stroke: none; }
.brush2 { fill: rgb(0,0,0); }
</style>
<g>
<polygon class="pen1 brush2" points="437,482 437,0 0,0 0,482 437,482"/>
<polygon class="pen1 brush0" points="437,396 433,394 428,392 424,393 419,395 409,402 398,408 387,414 376,420 365,425 354,429 342,432 331,435 319,438 307,440 295,441 283,442 271,442 258,442 246,441 234,439 222,437 210,434 198,430 186,426 175,422 164,416 153,411 142,405 132,398 122,391 113,383 104,375 95,367 86,358 79,349 71,339 61,322 52,305 45,287 39,269 36,250 34,231 35,211 37,192 41,173 47,154 54,137 64,120 75,104 87,89 101,75 116,63 129,55 143,48 157,42 171,38 186,36 201,34 217,34 232,36 247,39 261,44 275,50 288,57 300,66 312,76 322,87 332,99 344,120 352,142 355,165 353,189 351,201 347,212 342,223 336,233 330,243 322,252 313,260 304,268 296,273 288,278 280,281 271,284 263,285 254,286 244,286 235,285 226,283 217,280 208,276 200,272 193,267 186,261 179,254 173,247 166,234 162,221 160,207 161,193 165,179 171,166 179,154 190,145 195,142 200,139 205,137 210,136 215,135 220,134 226,134 231,135 237,136 242,138 247,140 252,143 256,146 260,150 264,154 267,158 271,165 274,173 275,181 274,189 272,197 268,204 264,211 258,216 253,219 247,221 241,222 235,221 229,220 224,217 219,214 215,209 213,205 212,201 211,197 211,193 212,189 214,185 217,182 220,179 224,175 226,170 225,165 223,160 219,156 214,154 209,154 204,156 197,163 191,170 187,179 184,188 183,198 185,207 188,216 193,225 197,230 200,234 205,237 209,241 214,243 220,245 225,247 231,248 237,249 242,249 247,249 253,247 258,246 263,244 268,241 273,238 283,229 292,218 297,206 301,193 302,180 300,166 296,154 289,142 284,136 278,130 272,124 266,120 259,116 252,112 244,110 236,108 228,107 220,107 211,108 204,109 196,112 188,115 181,118 174,123 166,129 159,136 153,144 147,152 143,160 139,169 136,178 134,188 132,208 135,227 141,246 151,263 159,272 167,281 176,289 186,295 196,301 207,306 218,310 230,312 242,313 254,313 266,312 277,310 289,307 299,302 310,297 320,290 332,281 342,271 351,260 360,248 367,235 373,222 377,208 380,194 382,179 382,164 380,150 378,135 374,122 369,108 362,95 354,83 343,69 330,56 317,44 302,34 287,25 270,18 253,13 236,9 218,7 200,7 182,8 165,11 148,16 131,23 115,31 100,41 83,55 67,70 53,87 40,105 30,124 21,144 14,165 10,187 7,209 7,232 9,254 13,275 19,296 27,316 37,336 49,354 57,365 66,376 75,386 85,395 95,404 106,413 117,421 128,428 140,435 152,441 164,447 177,452 190,456 203,460 216,463 230,466 244,468 257,469 271,470 284,469 297,469 311,467 324,465 337,462 350,459 363,455 375,450 388,444 400,439 412,432 424,425 435,417 436,417 436,416 436,416 437,416 437,396"/>
</g>
</svg>
