<?xml version="1.0" encoding="UTF-8" standalone="no"?>
<!DOCTYPE svg PUBLIC "-//W3C//DTD SVG 1.0//EN" "http://www.w3.org/TR/2001/REC-SVG-20010904/DTD/svg10.dtd">
<svg xmlns="http://www.w3.org/2000/svg" xmlns:xlink="http://www.w3.org/1999/xlink" fill-rule="evenodd" height="1.0in" preserveAspectRatio="none" stroke-linecap="round" viewBox="0 0 692 1000" width="0.692in">
<style type="text/css">
.brush0 { fill: rgb(255,255,255); }
.pen0 { stroke: rgb(0,0,0); stroke-width: 1; stroke-linejoin: round; }
.brush1 { fill: none; }
.pen1 { stroke: none; }
.brush2 { fill: rgb(0,0,0); }
</style>
<g>
<polygon class="pen1 brush2" points="37,970 27,960 19,950 13,938 10,925 8,911 9,897 12,881 16,865 25,840 38,813 54,786 71,759 91,731 112,703 135,676 158,649 181,623 204,599 226,575 247,554 267,535 285,518 300,504 313,493 300,477 284,459 268,441 249,421 230,401 210,380 190,358 170,336 149,313 129,290 110,268 92,245 74,223 59,201 45,179 33,158 23,138 16,119 12,100 11,83 13,67 19,52 29,38 43,27 57,19 72,14 86,12 101,14 115,18 130,24 144,33 158,44 179,64 198,89 218,116 236,146 253,177 270,210 285,243 298,276 311,308 322,338 331,367 338,392 344,415 347,433 349,446 348,454 355,434 363,412 371,388 381,362 391,335 402,307 414,278 426,249 439,221 452,193 466,165 480,139 495,115 510,92 525,72 540,54 553,43 565,33 578,26 591,21 604,18 616,18 629,21 641,27 654,39 662,54 666,73 665,94 659,119 649,146 636,174 619,204 600,235 579,266 556,297 533,327 509,356 485,384 463,410 441,433 422,454 405,471 391,485 381,494 390,501 401,510 414,522 429,535 446,551 464,568 483,587 503,607 523,629 543,651 563,675 583,699 601,724 618,749 633,775 647,801 659,829 668,855 674,880 676,904 674,925 667,944 655,960 638,973 621,981 603,985 587,985 570,981 554,974 539,964 524,951 509,936 493,917 477,896 463,873 448,849 435,824 422,798 410,771 399,745 388,719 378,693 370,669 362,646 355,626 349,607 344,591 340,578 336,588 331,602 324,618 317,638 308,659 298,683 287,708 276,734 263,761 250,788 236,815 222,841 207,867 191,890 175,912 159,932 144,948 129,961 114,971 98,978 83,982 67,982 52,978 37,970"/>
</g>
</svg>
