<?xml version="1.0" encoding="UTF-8" standalone="no"?>
<!DOCTYPE svg PUBLIC "-//W3C//DTD SVG 1.0//EN" "http://www.w3.org/TR/2001/REC-SVG-20010904/DTD/svg10.dtd">
<svg xmlns="http://www.w3.org/2000/svg" xmlns:xlink="http://www.w3.org/1999/xlink" fill-rule="evenodd" height="0.848in" preserveAspectRatio="none" stroke-linecap="round" viewBox="0 0 1007 848" width="1.007in">
<style type="text/css">
.brush0 { fill: rgb(255,255,255); }
.pen0 { stroke: rgb(0,0,0); stroke-width: 1; stroke-linejoin: round; }
.brush1 { fill: none; }
.pen1 { stroke: none; }
.brush2 { fill: rgb(0,0,0); }
</style>
<g>
<polygon class="pen1 brush2" points="1007,848 984,831 960,814 935,797 908,780 881,763 853,747 824,731 794,716 763,701 731,686 699,671 666,657 633,644 600,630 566,617 532,605 497,593 463,582 428,571 393,561 359,551 324,542 290,533 256,525 222,518 188,511 156,505 123,500 91,495 60,491 30,488 0,486 1,482 3,474 8,462 17,449 29,435 48,422 73,411 105,402 124,399 143,399 162,400 183,404 206,409 230,417 256,426 284,437 315,449 349,464 385,480 425,497 469,516 517,536 569,558 626,581 603,559 580,538 555,518 529,499 502,480 473,462 444,445 412,428 380,412 346,397 310,383 272,369 233,356 192,344 150,332 105,321 114,312 125,301 138,288 153,276 169,265 186,256 204,251 223,249 236,252 255,260 277,272 303,288 333,307 365,329 400,354 436,381 474,410 513,440 552,471 591,504 630,536 667,568 703,600 737,631 718,603 699,575 679,546 658,516 636,487 612,457 587,427 560,397 532,367 501,338 468,310 433,282 396,255 356,230 313,205 267,182 267,178 271,171 278,161 290,150 306,140 328,132 355,128 389,128 406,134 427,147 450,168 476,196 503,228 532,265 563,305 594,348 626,393 658,438 690,483 721,527 751,569 781,608 808,643 834,673 810,615 784,558 756,504 728,450 699,400 670,351 641,306 612,263 584,224 557,189 532,157 508,130 487,107 468,89 452,76 440,68 447,64 454,62 462,60 470,60 480,61 490,63 500,66 511,71 523,76 534,83 547,91 560,100 573,111 587,122 601,135 615,149 631,169 650,196 672,231 695,272 719,317 744,365 769,414 794,464 818,513 841,560 861,603 880,641 895,673 906,698 913,713 916,719 917,711 913,691 905,661 894,622 879,576 862,524 841,468 819,409 794,349 768,288 741,229 713,172 685,119 656,72 628,32 601,0 603,1 610,3 621,5 636,9 654,14 674,21 696,30 719,41 731,48 743,56 754,65 766,74 777,85 788,97 799,111 808,125 825,157 841,192 855,230 868,271 879,314 890,360 901,407 911,455 921,505 931,555 941,605 952,656 964,705 977,754 991,802 1007,848"/>
</g>
</svg>
