<?xml version="1.0" encoding="UTF-8" standalone="no"?>
<!DOCTYPE svg PUBLIC "-//W3C//DTD SVG 1.0//EN" "http://www.w3.org/TR/2001/REC-SVG-20010904/DTD/svg10.dtd">
<svg xmlns="http://www.w3.org/2000/svg" xmlns:xlink="http://www.w3.org/1999/xlink" fill-rule="evenodd" height="1.0in" preserveAspectRatio="none" stroke-linecap="round" viewBox="0 0 939 1000" width="0.939in">
<style type="text/css">
.brush0 { fill: rgb(255,255,255); }
.pen0 { stroke: rgb(0,0,0); stroke-width: 1; stroke-linejoin: round; }
.brush1 { fill: none; }
.pen1 { stroke: none; }
.brush2 { fill: rgb(0,0,0); }
</style>
<g>
<polygon class="pen1 brush2" points="477,1000 459,998 445,994 435,986 428,977 421,965 415,953 408,939 399,925 352,925 341,910 335,891 334,870 337,847 344,822 353,795 364,768 376,740 389,711 402,683 414,655 425,629 433,603 439,580 442,559 440,540 425,547 410,557 396,572 382,590 368,611 354,633 340,657 326,682 311,707 296,732 280,756 263,778 245,798 226,815 206,828 184,838 181,837 176,833 170,826 164,817 157,809 153,801 149,796 149,794 146,794 137,796 124,797 109,797 92,795 75,790 60,781 48,768 39,753 35,738 34,724 36,711 40,699 46,687 53,676 61,666 60,665 56,661 51,654 45,646 39,638 34,631 29,626 27,623 52,605 78,590 105,578 132,568 160,561 188,555 216,551 243,547 270,544 296,541 321,537 345,532 367,527 387,519 406,510 422,498 400,493 377,489 353,488 327,487 302,488 275,489 249,490 222,490 196,490 170,488 145,484 120,477 97,468 74,456 53,439 34,419 57,376 55,374 49,369 41,360 33,349 26,334 22,317 23,297 31,274 44,254 60,241 77,234 93,231 108,232 120,234 127,236 129,237 153,196 178,200 201,207 223,216 243,228 262,243 280,259 297,277 314,296 330,317 345,338 360,359 375,381 390,402 405,423 421,443 437,462 438,440 436,419 430,398 421,377 411,356 399,335 386,314 373,292 360,270 348,247 338,224 330,200 325,175 324,150 327,123 334,95 379,95 381,90 384,79 389,64 397,46 409,29 423,14 442,4 466,0 490,5 509,17 523,34 533,54 540,73 544,89 545,99 545,102 588,105 597,138 594,176 582,219 564,266 543,315 522,365 503,416 490,466 511,458 530,446 548,432 564,415 579,396 593,376 607,355 622,333 636,311 651,290 667,270 685,252 704,235 725,222 748,211 774,203 797,244 801,244 812,243 828,241 847,241 867,244 886,252 903,264 915,284 920,306 919,326 914,343 906,359 896,372 887,382 881,391 878,396 881,403 887,419 893,434 896,440 881,449 865,457 847,463 829,467 810,470 789,473 768,474 746,475 723,476 699,477 674,478 648,480 621,482 594,486 566,491 537,497 558,507 580,514 603,519 626,523 650,525 674,526 699,528 724,529 749,531 774,535 798,539 822,546 846,556 869,568 892,584 913,604 911,607 906,613 900,621 893,629 887,638 881,645 877,649 876,649 879,651 885,659 894,672 903,688 910,706 914,726 912,746 903,766 888,781 871,789 853,794 835,794 818,792 805,789 795,786 792,784 791,787 787,793 782,800 776,808 770,816 764,823 761,828 761,829 736,820 714,809 694,795 676,780 660,763 645,745 631,725 618,705 606,685 593,665 580,644 567,625 553,605 538,587 522,570 504,555 511,604 527,649 549,691 572,732 593,773 609,817 614,865 606,919 567,925 563,939 557,953 549,965 539,976 526,986 511,993 495,998 477,1000"/>
</g>
</svg>
