<?xml version="1.0" encoding="UTF-8" standalone="no"?>
<!DOCTYPE svg PUBLIC "-//W3C//DTD SVG 1.0//EN" "http://www.w3.org/TR/2001/REC-SVG-20010904/DTD/svg10.dtd">
<svg xmlns="http://www.w3.org/2000/svg" xmlns:xlink="http://www.w3.org/1999/xlink" fill-rule="evenodd" height="0.551in" preserveAspectRatio="none" stroke-linecap="round" viewBox="0 0 551 551" width="0.551in">
<style type="text/css">
.brush0 { fill: rgb(255,255,255); }
.pen0 { stroke: rgb(0,0,0); stroke-width: 1; stroke-linejoin: round; }
.brush1 { fill: none; }
.pen1 { stroke: none; }
.brush2 { fill: rgb(0,0,0); }
</style>
<g>
<polygon class="pen1 brush2" points="551,290 527,263 504,242 480,226 456,216 432,210 409,208 388,209 367,213 348,219 330,227 315,236 302,245 291,254 283,263 278,270 276,276 298,261 320,251 340,245 359,242 378,243 396,247 413,254 429,263 444,275 459,288 472,302 485,318 498,334 509,350 520,367 530,383 538,361 544,338 549,315 551,290"/>
<polygon class="pen1 brush2" points="480,91 444,88 413,90 385,96 360,106 340,118 322,133 307,149 296,167 286,185 279,203 275,220 272,236 271,250 271,262 273,271 276,276 281,250 289,227 299,209 311,193 325,181 340,171 357,164 375,159 393,156 413,155 433,155 453,157 473,160 493,163 512,168 531,172 526,161 521,150 515,140 509,129 502,119 495,110 488,100 480,91"/>
<polygon class="pen1 brush2" points="382,21 371,17 360,13 349,10 337,7 326,4 314,2 302,1 290,0 263,24 241,47 226,72 215,95 209,119 207,142 208,164 212,184 218,204 226,221 235,237 245,250 254,261 263,269 270,274 276,276 261,254 251,232 244,212 242,192 243,173 247,155 254,138 263,122 274,107 287,92 302,79 317,66 333,53 350,42 366,31 382,21"/>
<polygon class="pen1 brush2" points="171,20 160,25 149,30 139,36 128,42 118,49 109,56 99,63 90,71 87,107 90,139 96,167 105,192 118,213 132,230 149,245 166,257 184,266 202,273 219,278 236,280 250,281 262,281 271,279 276,276 227,263 193,241 170,212 158,177 154,139 156,98 163,58 171,20"/>
<polygon class="pen1 brush2" points="21,169 13,191 6,214 2,238 0,262 24,289 47,310 72,326 95,336 119,343 142,345 164,343 185,339 204,333 221,326 237,317 250,307 261,298 269,289 274,282 276,276 254,291 232,301 212,308 192,310 173,309 155,305 138,298 122,289 107,278 92,265 79,250 66,235 53,219 42,202 31,185 21,169"/>
<polygon class="pen1 brush2" points="276,276 271,302 263,324 253,343 240,359 226,371 211,381 194,388 176,393 157,396 138,397 118,396 98,395 78,392 58,388 39,384 20,380 25,391 30,402 36,412 42,423 48,433 55,442 63,452 71,461 107,464 139,462 167,455 191,446 212,434 230,419 244,403 256,385 265,367 272,350 277,332 280,316 281,302 280,290 279,281 276,276"/>
<polygon class="pen1 brush2" points="276,276 291,298 301,320 307,340 309,359 308,378 304,396 297,413 288,429 277,444 264,459 249,472 234,485 218,498 201,509 184,520 168,530 179,535 190,539 202,542 214,545 225,547 237,549 250,550 262,551 289,527 310,504 326,480 336,456 342,432 344,409 343,388 339,367 333,348 325,330 316,315 307,302 298,291 289,283 282,278 276,276"/>
<polygon class="pen1 brush2" points="276,276 324,289 359,311 381,341 393,375 397,414 394,454 388,494 379,532 390,527 401,521 412,516 422,509 432,503 442,496 451,488 460,480 463,444 461,413 455,385 445,361 433,340 419,322 402,308 385,296 367,287 349,280 332,275 316,272 302,271 290,272 281,273 276,276"/>
</g>
</svg>
