<?xml version="1.0" encoding="UTF-8" standalone="no"?>
<!DOCTYPE svg PUBLIC "-//W3C//DTD SVG 1.0//EN" "http://www.w3.org/TR/2001/REC-SVG-20010904/DTD/svg10.dtd">
<svg xmlns="http://www.w3.org/2000/svg" xmlns:xlink="http://www.w3.org/1999/xlink" fill-rule="evenodd" height="0.5in" preserveAspectRatio="none" stroke-linecap="round" viewBox="0 0 1028 500" width="1.028in">
<style type="text/css">
.brush0 { fill: rgb(255,255,255); }
.pen0 { stroke: rgb(0,0,0); stroke-width: 1; stroke-linejoin: round; }
.brush1 { fill: none; }
.pen1 { stroke: none; }
.brush2 { fill: rgb(0,0,0); }
</style>
<g>
<polygon class="pen1 brush2" points="332,230 318,217 304,204 291,191 279,177 267,164 256,151 247,138 240,125 235,114 232,103 231,93 232,83 236,74 243,65 252,57 265,50 287,44 305,46 321,54 335,66 349,80 363,93 379,105 397,111 412,109 425,101 437,87 449,69 461,51 474,34 488,19 504,9 513,6 522,4 532,3 541,3 551,3 560,5 570,7 579,10 589,13 597,17 606,22 613,27 620,32 626,38 631,44 635,50 642,68 649,93 657,121 668,150 683,174 703,191 728,196 761,186 749,175 735,160 721,140 708,119 698,97 693,76 693,58 700,44 708,36 715,30 723,27 731,25 739,25 747,26 755,29 764,34 774,41 785,50 795,60 806,71 817,83 828,96 840,110 852,124 864,139 877,153 890,167 903,181 917,195 931,207 946,219 961,230 610,230 601,224 592,219 582,214 571,209 560,205 548,201 536,197 524,194 512,191 499,189 487,186 475,184 462,183 450,181 438,181 427,180 428,182 429,185 432,190 436,196 440,203 446,211 453,220 460,230 332,230"/>
<polygon class="pen1 brush2" points="697,277 691,290 685,306 680,324 675,343 670,364 665,384 660,404 654,423 650,435 645,446 640,455 634,463 627,469 620,473 612,474 602,473 580,465 571,453 570,440 575,425 581,411 584,397 581,385 568,375 555,373 542,378 529,388 515,401 500,417 485,434 470,451 454,466 445,473 437,480 428,485 419,489 410,492 401,493 392,492 383,489 373,482 369,474 368,464 369,454 369,444 368,435 363,426 353,419 342,415 330,412 317,412 303,413 288,415 272,419 257,423 240,428 224,433 207,438 190,442 173,446 156,449 140,451 124,451 108,450 99,449 91,447 82,444 74,441 66,437 59,432 52,426 45,419 37,401 43,386 59,374 80,364 104,355 124,347 137,339 139,331 130,321 119,312 106,304 92,297 77,290 62,283 48,276 35,268 29,263 23,258 18,252 14,246 11,239 9,231 9,222 11,213 17,198 28,187 43,179 60,174 79,171 98,170 116,170 133,172 151,177 169,187 186,200 202,215 219,233 235,251 250,271 266,290 282,308 298,325 313,339 329,351 346,359 362,363 379,362 397,355 409,345 412,333 409,319 401,303 388,287 371,269 352,250 332,230 460,230 468,239 476,248 486,258 496,267 506,275 517,283 529,290 541,295 557,301 573,303 587,304 600,302 612,298 622,292 630,285 636,277 639,268 638,258 633,247 623,237 620,236 617,234 614,232 610,230 961,230 969,234 977,238 986,242 994,245 1002,248 1011,251 1019,254 1028,256 1021,266 1014,277 1005,290 996,303 986,317 976,331 965,344 954,356 942,367 930,376 918,381 906,384 893,384 880,379 868,369 855,355 848,344 842,333 837,322 832,311 827,300 821,289 814,280 806,271 811,302 814,346 814,394 806,439 802,450 797,460 791,468 784,474 776,478 767,479 756,478 744,474 725,459 721,437 727,411 738,382 750,351 756,322 753,294 735,270 729,266 723,264 718,263 713,264 709,266 705,269 701,272 697,277"/>
</g>
</svg>
