<?xml version="1.0" encoding="UTF-8" standalone="no"?>
<!DOCTYPE svg PUBLIC "-//W3C//DTD SVG 1.0//EN" "http://www.w3.org/TR/2001/REC-SVG-20010904/DTD/svg10.dtd">
<svg xmlns="http://www.w3.org/2000/svg" xmlns:xlink="http://www.w3.org/1999/xlink" fill-rule="evenodd" height="0.994in" preserveAspectRatio="none" stroke-linecap="round" viewBox="0 0 895 994" width="0.895in">
<style type="text/css">
.brush0 { fill: rgb(255,255,255); }
.pen0 { stroke: rgb(0,0,0); stroke-width: 1; stroke-linejoin: round; }
.brush1 { fill: none; }
.pen1 { stroke: none; }
.brush2 { fill: rgb(0,0,0); }
</style>
<g>
<polygon class="pen1 brush2" points="500,994 483,977 466,960 447,942 429,923 409,903 390,882 371,860 353,837 335,813 319,787 303,760 290,731 278,701 268,670 261,636 256,601 256,582 259,564 264,546 273,529 286,511 301,495 321,479 344,463 355,457 367,453 379,451 390,451 402,452 414,455 425,458 437,463 449,468 460,474 472,480 484,487 495,493 507,500 519,506 530,511 528,510 524,511 517,514 508,519 498,525 486,534 472,543 459,554 444,566 430,580 416,595 403,610 391,627 380,645 371,663 364,682 363,688 364,702 368,722 374,747 385,775 401,804 423,834 452,863 455,864 459,862 465,858 471,854 476,849 481,844 485,840 486,838 490,797 503,757 522,719 547,682 575,645 605,610 637,574 668,538 698,502 724,465 746,427 761,388 770,347 769,304 758,259 736,211 718,183 699,158 679,135 659,115 637,98 615,84 592,72 568,63 544,58 519,55 493,55 466,59 439,65 411,74 383,87 354,102 307,131 264,160 225,189 191,218 162,248 138,277 119,307 106,337 98,367 96,397 100,426 111,456 128,485 151,514 182,543 219,572 207,578 195,580 181,580 166,578 151,575 135,571 118,567 101,564 78,536 61,504 50,469 45,432 45,395 52,358 63,322 81,288 96,266 111,243 128,221 147,198 166,177 187,155 209,135 232,115 256,97 281,80 307,64 334,50 362,37 391,27 421,19 452,13 469,11 486,9 505,8 524,8 543,9 563,10 583,13 602,16 622,21 641,27 659,34 677,42 693,52 709,64 723,77 736,92 767,136 795,182 819,230 836,279 845,329 844,380 831,432 804,484 784,515 762,544 740,574 718,603 695,632 672,661 650,690 628,720 606,750 586,781 567,813 550,846 534,881 520,917 509,954 500,994"/>
</g>
</svg>
