<?xml version="1.0" encoding="UTF-8" standalone="no"?>
<!DOCTYPE svg PUBLIC "-//W3C//DTD SVG 1.0//EN" "http://www.w3.org/TR/2001/REC-SVG-20010904/DTD/svg10.dtd">
<svg xmlns="http://www.w3.org/2000/svg" xmlns:xlink="http://www.w3.org/1999/xlink" fill-rule="evenodd" height="0.403in" preserveAspectRatio="none" stroke-linecap="round" viewBox="0 0 609 403" width="0.609in">
<style type="text/css">
.brush0 { fill: rgb(255,255,255); }
.pen0 { stroke: rgb(0,0,0); stroke-width: 1; stroke-linejoin: round; }
.brush1 { fill: none; }
.pen1 { stroke: none; }
.brush2 { fill: rgb(0,0,0); }
</style>
<g>
<polygon class="pen1 brush2" points="152,256 190,212 219,177 240,147 252,121 255,96 249,70 233,40 207,4 209,5 214,8 222,13 232,20 243,28 255,38 266,50 277,64 286,79 293,96 297,115 297,134 293,156 283,178 268,202 246,227 208,272 191,308 190,337 200,360 216,376 233,386 247,392 253,394 251,394 244,393 234,392 221,390 207,388 192,384 176,379 161,373 147,365 135,356 126,345 121,332 120,316 124,299 135,279 152,256"/>
<polygon class="pen1 brush2" points="249,255 287,211 316,176 337,146 349,120 351,95 345,69 329,39 304,3 306,4 311,7 319,12 329,19 340,27 352,37 363,49 374,63 383,78 390,95 394,114 394,133 390,155 380,177 365,201 343,226 305,271 288,307 287,336 297,359 312,375 330,385 343,391 349,393 347,393 340,392 330,391 318,389 303,387 288,383 272,378 257,372 243,364 231,355 223,344 217,331 217,315 221,298 232,278 249,255"/>
<polygon class="pen1 brush2" points="357,253 395,209 425,174 446,144 458,118 461,93 455,66 439,36 413,0 415,1 420,4 428,9 438,16 449,24 461,34 473,47 483,60 492,76 499,92 503,111 503,131 498,152 489,175 473,199 451,224 414,269 397,305 396,334 406,357 422,373 439,383 453,389 459,391 457,391 450,390 440,389 428,387 413,385 398,381 382,376 367,370 353,362 341,353 332,342 327,329 326,313 330,296 340,276 357,253"/>
<polygon class="pen1 brush2" points="609,403 609,360 0,360 0,403 609,403"/>
</g>
</svg>
