<?xml version="1.0" encoding="UTF-8" standalone="no"?>
<!DOCTYPE svg PUBLIC "-//W3C//DTD SVG 1.0//EN" "http://www.w3.org/TR/2001/REC-SVG-20010904/DTD/svg10.dtd">
<svg xmlns="http://www.w3.org/2000/svg" xmlns:xlink="http://www.w3.org/1999/xlink" fill-rule="evenodd" height="0.499in" preserveAspectRatio="none" stroke-linecap="round" viewBox="0 0 229 499" width="0.229in">
<style type="text/css">
.brush0 { fill: rgb(255,255,255); }
.pen0 { stroke: rgb(0,0,0); stroke-width: 1; stroke-linejoin: round; }
.brush1 { fill: none; }
.pen1 { stroke: none; }
.brush2 { fill: rgb(0,0,0); }
</style>
<g>
<polygon class="pen1 brush2" points="16,114 67,94 104,52 153,34 144,30 152,20 140,28 144,12 139,17 88,37 52,79 2,97 11,101 3,108 18,106 5,120 16,114"/>
<polygon class="pen1 brush2" points="144,249 126,165 83,90 66,8 60,14 54,0 53,21 42,11 46,17 64,101 106,175 123,256 134,245 147,255 144,249"/>
<polygon class="pen1 brush2" points="16,187 67,167 104,126 153,107 143,106 150,94 138,103 144,85 139,91 88,110 51,152 2,170 14,172 0,181 17,177 8,191 16,187"/>
<polygon class="pen1 brush2" points="62,237 113,217 149,175 198,157 183,154 195,146 183,149 189,135 184,140 134,160 97,202 48,220 55,223 51,232 62,225 57,243 62,237"/>
<polygon class="pen1 brush2" points="139,237 91,264 60,312 12,339 14,345 3,345 15,349 7,358 19,352 11,362 56,392 82,439 124,480 119,494 127,486 133,499 130,484 141,488 131,479 171,436 185,392 229,369 207,358 225,360 210,353 223,349 210,350 212,343 182,336 176,302 143,299 146,284 140,293 133,281 136,294 125,293 137,300 108,325 114,353 91,371 109,369 109,384 114,371 132,359 129,334 129,327 140,318 140,329 144,319 147,326 147,317 159,319 163,331 172,346 194,351 180,354 189,355 196,355 187,361 199,360 180,371 160,386 152,420 140,433 132,455 133,442 127,457 123,441 123,454 113,434 90,416 71,376 35,357 44,353 35,351 43,348 35,346 82,320 110,276 155,251 139,245 139,237"/>
</g>
</svg>
