<?xml version="1.0" encoding="UTF-8" standalone="no"?>
<!DOCTYPE svg PUBLIC "-//W3C//DTD SVG 1.0//EN" "http://www.w3.org/TR/2001/REC-SVG-20010904/DTD/svg10.dtd">
<svg xmlns="http://www.w3.org/2000/svg" xmlns:xlink="http://www.w3.org/1999/xlink" fill-rule="evenodd" height="0.899in" preserveAspectRatio="none" stroke-linecap="round" viewBox="0 0 1036 899" width="1.036in">
<style type="text/css">
.brush0 { fill: rgb(255,255,255); }
.pen0 { stroke: rgb(0,0,0); stroke-width: 1; stroke-linejoin: round; }
.brush1 { fill: none; }
.pen1 { stroke: none; }
.brush2 { fill: rgb(0,0,0); }
</style>
<g>
<polygon class="pen1 brush2" points="410,883 373,873 339,860 307,845 277,829 248,811 221,791 196,769 172,745 149,720 127,694 107,667 87,638 68,608 49,576 31,544 13,511 9,456 9,397 12,337 21,277 36,220 58,166 89,119 130,79 145,70 160,61 175,53 191,46 207,39 223,33 239,27 255,23 272,19 289,15 306,13 324,12 342,11 360,11 378,13 397,15 427,41 449,75 464,115 476,159 486,205 496,250 508,293 525,331 534,314 544,296 553,277 563,257 574,236 586,216 598,196 611,176 625,157 641,139 658,122 677,106 697,92 719,81 743,72 769,65 816,83 856,105 892,130 922,158 948,190 969,224 987,261 1002,299 1013,339 1021,381 1027,423 1031,466 1034,510 1035,553 1036,596 1036,639 1022,675 1005,704 988,727 970,745 953,760 935,773 919,784 904,795 878,813 850,828 821,840 792,850 761,857 730,863 699,868 667,870 634,872 602,874 569,875 537,875 505,876 473,878 441,880 410,883"/>
</g>
</svg>
