<?xml version="1.0" encoding="UTF-8" standalone="no"?>
<!DOCTYPE svg PUBLIC "-//W3C//DTD SVG 1.0//EN" "http://www.w3.org/TR/2001/REC-SVG-20010904/DTD/svg10.dtd">
<svg xmlns="http://www.w3.org/2000/svg" xmlns:xlink="http://www.w3.org/1999/xlink" fill-rule="evenodd" height="0.763in" preserveAspectRatio="none" stroke-linecap="round" viewBox="0 0 763 763" width="0.763in">
<style type="text/css">
.brush0 { fill: rgb(255,255,255); }
.pen0 { stroke: rgb(0,0,0); stroke-width: 1; stroke-linejoin: round; }
.brush1 { fill: none; }
.pen1 { stroke: none; }
.brush2 { fill: rgb(0,0,0); }
</style>
<g>
<polygon class="pen1 brush2" points="382,687 350,685 318,680 286,672 255,661 225,648 195,632 167,613 141,593 117,570 95,546 75,520 59,493 45,464 35,434 29,404 27,373 31,343 41,314 56,287 75,260 97,235 120,211 143,188 166,166 177,155 188,146 200,136 212,128 225,120 238,112 251,106 265,100 279,94 293,90 307,86 322,83 337,80 352,78 367,77 382,77 397,77 412,78 427,80 441,83 456,86 470,90 484,94 498,100 511,106 525,112 538,120 550,128 562,136 574,146 586,155 597,166 617,189 635,213 651,238 663,265 673,293 680,322 685,352 686,382 685,412 680,442 673,471 663,499 651,526 635,551 617,575 597,597 586,608 574,618 562,627 550,636 538,644 525,651 511,658 498,664 484,669 470,674 456,678 441,681 427,684 412,686 397,687 382,687 382,763 401,763 420,761 438,759 457,756 475,752 493,747 510,741 527,734 544,727 561,719 577,709 593,699 608,688 623,677 637,664 651,651 676,623 699,593 718,561 734,528 747,493 756,457 761,420 763,382 761,343 755,305 746,269 733,234 717,200 698,169 676,139 651,112 624,88 594,65 563,46 530,30 495,17 458,8 421,2 382,0 363,0 344,2 325,4 307,7 289,11 271,16 253,22 236,29 219,37 202,45 186,54 170,64 155,75 140,87 126,99 112,112 87,140 64,170 45,202 29,236 16,271 7,307 2,344 0,382 2,420 7,457 16,493 29,528 45,561 64,593 87,623 112,651 126,664 140,677 155,688 170,699 186,709 202,719 219,727 236,734 253,741 271,747 289,752 307,756 325,759 344,761 363,763 382,763 382,687"/>
<polygon class="pen1 brush2" points="305,611 281,610 256,606 232,600 207,592 183,581 160,569 138,555 117,539 97,522 79,504 64,484 50,464 40,442 32,420 27,397 26,374 30,340 38,313 49,291 64,273 80,257 97,243 114,228 131,213 140,206 150,199 160,193 172,188 183,184 194,179 205,175 216,171 226,167 237,163 248,160 259,157 270,156 282,154 293,153 305,153 316,153 328,154 339,155 350,157 361,160 371,163 382,166 392,170 402,175 412,180 422,185 431,191 440,198 449,205 458,212 466,220 481,237 495,255 506,275 516,295 523,316 529,337 532,359 533,382 532,405 529,427 523,449 516,470 506,490 495,508 481,526 466,543 458,551 449,559 440,566 431,572 422,578 412,584 402,589 392,593 382,598 371,601 361,604 350,607 339,608 328,610 316,611 305,611 305,668 319,668 333,667 347,665 361,662 374,659 388,656 401,651 414,646 426,641 439,634 451,627 463,620 474,612 485,603 496,594 506,584 525,563 542,540 556,517 568,492 578,466 584,438 589,411 590,382 589,353 584,324 577,297 568,271 556,246 541,222 525,200 506,180 486,161 464,145 441,131 416,118 390,109 362,102 334,97 305,96 291,96 276,97 262,99 248,102 235,105 221,108 208,113 195,118 182,123 170,130 158,137 146,144 134,152 123,161 112,170 102,180 83,201 66,224 52,248 40,273 30,299 24,326 19,354 18,382 19,411 24,438 30,466 40,492 52,517 66,540 83,563 102,584 112,594 123,603 134,612 146,620 158,627 170,634 182,641 195,646 208,651 221,656 235,659 248,662 262,665 276,667 291,668 305,668 305,611"/>
<polygon class="pen1 brush2" points="219,553 201,552 184,550 168,545 152,540 137,532 123,524 110,514 97,503 86,491 76,478 68,464 61,449 55,433 50,417 48,400 47,382 48,365 50,348 54,332 60,316 67,301 76,287 86,273 97,261 110,249 124,239 138,230 153,223 169,217 185,213 202,211 219,210 236,211 253,213 269,217 285,223 300,230 314,239 328,249 340,261 352,273 362,287 371,301 378,316 384,332 388,348 390,365 391,382 390,399 388,416 384,432 378,448 371,463 362,477 352,490 340,503 328,514 314,524 300,533 285,540 269,546 253,550 236,552 219,553 219,596 240,595 261,592 281,587 301,580 320,571 338,560 355,547 371,533 385,517 398,501 408,483 417,464 424,445 429,424 432,403 433,382 432,360 429,339 423,318 416,299 407,280 396,262 384,246 370,231 355,217 339,205 321,194 302,185 283,178 262,172 241,169 219,168 197,169 176,172 156,177 136,184 117,193 99,203 83,216 67,230 53,246 40,263 29,281 20,300 13,320 8,340 5,361 4,382 5,403 8,424 13,445 20,464 29,483 40,501 53,517 67,533 83,547 99,560 117,571 136,580 156,587 176,592 197,595 219,596 219,553"/>
</g>
</svg>
