<?xml version="1.0" encoding="UTF-8" standalone="no"?>
<!DOCTYPE svg PUBLIC "-//W3C//DTD SVG 1.0//EN" "http://www.w3.org/TR/2001/REC-SVG-20010904/DTD/svg10.dtd">
<svg xmlns="http://www.w3.org/2000/svg" xmlns:xlink="http://www.w3.org/1999/xlink" fill-rule="evenodd" height="0.262in" preserveAspectRatio="none" stroke-linecap="round" viewBox="0 0 543 262" width="0.543in">
<style type="text/css">
.brush0 { fill: rgb(255,255,255); }
.pen0 { stroke: rgb(0,0,0); stroke-width: 1; stroke-linejoin: round; }
.brush1 { fill: none; }
.pen1 { stroke: none; }
.brush2 { fill: rgb(0,0,0); }
</style>
<g>
<polygon class="pen1 brush2" points="26,0 543,0 285,258 26,0"/>
<polygon class="pen1 brush2" points="20,65 28,63 35,59 39,53 41,45 39,37 35,30 28,26 20,24 12,26 6,30 2,37 0,45 2,53 6,59 12,63 20,65"/>
<polygon class="pen1 brush2" points="64,105 72,103 78,99 82,92 84,84 82,76 78,70 72,66 64,64 56,66 49,70 45,76 43,84 45,92 49,99 56,103 64,105"/>
<polygon class="pen1 brush2" points="101,142 109,140 116,136 120,130 122,122 120,114 116,108 109,104 101,102 93,104 87,108 83,114 81,122 83,130 87,136 93,140 101,142"/>
<polygon class="pen1 brush2" points="143,184 151,182 157,178 161,171 163,163 161,155 157,149 151,145 143,143 135,145 128,149 124,155 122,163 124,171 128,178 135,182 143,184"/>
<polygon class="pen1 brush2" points="180,225 188,223 195,219 199,213 201,205 199,197 195,190 188,186 180,184 172,186 166,190 162,197 160,205 162,213 166,219 172,223 180,225"/>
<polygon class="pen1 brush2" points="224,262 232,260 238,256 242,249 244,241 242,234 238,228 232,224 224,222 216,224 209,228 205,234 203,241 205,249 209,256 216,260 224,262"/>
</g>
</svg>
