<?xml version="1.0" encoding="UTF-8" standalone="no"?>
<!DOCTYPE svg PUBLIC "-//W3C//DTD SVG 1.0//EN" "http://www.w3.org/TR/2001/REC-SVG-20010904/DTD/svg10.dtd">
<svg xmlns="http://www.w3.org/2000/svg" xmlns:xlink="http://www.w3.org/1999/xlink" fill-rule="evenodd" height="1.078in" preserveAspectRatio="none" stroke-linecap="round" viewBox="0 0 1031 1078" width="1.031in">
<style type="text/css">
.brush0 { fill: rgb(255,255,255); }
.pen0 { stroke: rgb(0,0,0); stroke-width: 1; stroke-linejoin: round; }
.brush1 { fill: none; }
.pen1 { stroke: none; }
.brush2 { fill: rgb(0,0,0); }
</style>
<g>
<polygon class="pen1 brush2" points="394,925 389,923 383,921 375,919 365,916 345,907 341,904 336,902 332,900 328,898 324,896 320,894 316,893 313,891 288,879 285,878 281,876 277,875 274,873 270,871 266,868 262,866 258,863 236,851 229,846 222,840 216,835 209,829 194,817 189,812 183,807 178,801 173,795 158,780 151,771 146,763 142,757 139,752 125,737 121,728 116,720 113,712 110,704 98,684 87,658 80,632 78,627 75,620 72,613 69,604 64,579 62,570 60,561 59,552 59,543 53,519 51,514 49,506 48,496 48,483 21,500 23,545 28,588 37,628 49,666 63,701 81,734 101,765 124,794 149,820 176,844 205,866 236,885 268,902 302,917 337,930 373,940 410,949 448,955 487,958 526,960 565,960 604,957 643,952 681,945 719,936 757,925 794,911 829,896 864,878 897,859 929,837 959,813 978,796 989,783 994,772 995,762 991,751 984,738 976,722 968,700 952,645 942,590 938,536 940,482 946,428 956,375 970,321 988,267 992,244 990,222 982,200 968,179 950,158 928,138 903,119 876,102 846,86 816,71 786,57 757,45 728,35 702,27 678,21 658,17 637,14 617,12 596,10 576,9 555,8 535,8 514,8 494,8 473,8 452,9 432,10 411,10 391,11 370,12 350,13 329,13 309,13 288,14 268,14 247,15 227,15 206,16 185,16 165,17 144,17 124,18 103,18 82,18 62,19 41,19 21,19 0,19 0,44 96,44 96,55 92,66 86,75 80,83 72,92 66,102 62,113 60,125 62,144 67,159 76,170 86,177 98,181 111,182 125,179 138,174 150,167 160,158 168,148 173,136 174,123 171,110 163,96 150,82 144,77 139,73 133,70 129,66 125,62 122,58 121,52 120,44 138,43 156,42 175,41 194,40 213,39 232,39 251,38 270,38 289,38 308,37 327,37 346,37 365,37 384,37 403,37 421,37 379,58 344,86 315,119 292,156 275,197 265,239 261,283 263,327 271,369 285,409 305,446 330,479 362,506 399,527 442,540 491,545 508,544 524,542 541,539 558,535 574,529 589,522 604,514 619,505 632,495 643,483 654,470 663,456 670,441 675,425 679,408 680,390 676,362 665,337 648,315 627,297 602,286 576,281 550,285 525,299 505,324 502,349 511,372 529,390 551,399 573,397 591,379 602,344 604,333 608,325 614,321 620,319 626,321 633,325 639,331 645,340 657,372 660,402 654,428 642,452 623,473 599,490 572,503 542,513 512,518 481,519 452,516 425,508 403,494 385,476 373,452 369,423 369,423 369,423 374,395 386,368 401,343 418,318 433,293 442,267 442,239 430,209 424,200 417,193 410,189 402,186 394,185 385,185 375,185 364,185 353,188 343,195 335,205 327,218 318,231 310,242 300,252 289,258 287,240 288,223 292,205 299,187 307,170 318,153 331,136 345,121 360,106 376,92 392,80 409,69 426,60 443,52 459,46 475,42 487,40 507,38 530,36 555,35 579,36 599,38 613,44 618,54 616,58 609,62 600,65 590,69 579,74 570,81 563,91 561,103 563,124 568,142 576,155 586,165 598,171 610,174 623,174 636,171 647,166 658,158 666,149 672,138 675,125 673,111 668,96 657,80 653,74 649,69 646,63 645,57 645,52 649,48 655,46 664,45 679,46 698,51 720,57 745,66 771,77 798,89 825,103 852,118 878,135 902,151 924,169 942,186 956,203 966,220 970,236 968,252 954,255 939,258 925,261 911,264 896,267 882,271 868,275 854,280 824,298 798,323 777,355 761,391 752,428 751,465 760,499 780,529 793,520 788,506 789,494 793,485 800,477 810,470 821,464 832,457 843,451 861,435 875,415 889,393 901,369 913,346 926,325 941,306 958,293 941,337 927,383 918,431 913,479 913,528 916,576 923,623 934,669 939,687 940,703 939,716 934,727 926,737 915,746 900,755 882,764 857,773 837,777 821,776 808,771 797,762 789,750 783,735 777,719 772,701 768,683 762,665 756,647 748,630 738,614 725,601 709,591 700,587 690,584 679,580 667,578 655,576 642,574 628,573 614,572 615,605 618,641 624,676 635,705 624,698 613,691 603,682 592,673 582,664 571,654 561,645 550,637 539,630 527,625 515,620 502,618 489,618 475,621 460,626 445,635 420,657 404,684 398,712 402,740 413,765 432,786 459,800 493,805 494,789 471,782 452,769 438,754 429,736 425,719 429,703 440,691 460,684 494,681 519,685 536,694 549,707 559,724 570,743 584,763 603,783 625,800 648,814 670,824 693,831 716,836 739,837 762,836 785,833 808,827 830,819 852,809 874,797 895,783 915,768 935,751 954,733 966,754 967,773 958,791 943,807 923,822 901,835 880,846 860,856 829,871 798,884 767,895 736,903 705,910 675,914 645,917 615,918 585,916 557,913 528,908 501,901 474,893 448,883 422,871 398,857 374,842 352,825 331,807 311,787 292,766 274,743 258,719 243,694 230,667 218,639 208,610 199,580 193,548 188,515 185,482 184,447 185,432 188,412 190,389 192,366 192,344 188,327 180,317 166,316 155,352 136,379 113,399 87,417 62,433 41,450 27,472 21,500 48,483 67,470 84,459 99,449 111,442 121,436 129,431 135,429 139,428 139,439 138,450 138,460 137,471 121,480 107,487 94,495 83,501 73,507 65,511 58,516 52,519 59,543 71,535 83,527 94,520 105,514 115,507 124,502 133,496 141,491 143,499 144,507 145,516 146,524 141,528 134,532 126,537 117,544 106,551 93,559 79,568 64,578 69,604 75,599 85,592 98,582 111,572 125,563 137,555 145,549 150,547 150,547 157,583 146,590 135,597 124,603 114,610 105,616 96,622 88,627 80,632 87,658 96,650 104,642 113,635 122,629 131,622 140,616 150,610 160,604 161,612 162,620 164,627 167,635 167,635 162,638 155,643 146,650 136,657 125,665 115,672 106,679 98,684 110,704 181,657 183,662 186,669 189,678 193,690 184,695 175,700 166,705 157,711 149,717 141,723 133,730 125,737 139,752 147,745 155,738 163,731 171,725 179,719 187,714 195,709 203,704 208,711 212,718 215,724 218,729 210,736 202,743 195,750 187,756 180,762 172,768 165,774 158,780 173,795 183,786 193,777 202,770 210,763 216,757 222,752 227,748 231,744 235,750 239,756 244,763 250,770 194,817 209,829 216,824 223,818 230,812 237,807 245,801 252,796 260,792 267,788 272,792 277,796 281,802 284,807 281,810 274,816 267,823 258,830 250,838 243,844 238,849 236,851 258,863 265,856 272,850 278,844 284,838 289,834 293,830 297,826 301,823 307,827 313,832 319,836 324,841 320,847 316,852 311,857 307,861 302,865 298,870 293,874 288,879 313,891 318,886 324,880 329,875 333,871 337,866 341,862 345,859 348,855 355,859 363,863 370,868 377,872 345,907 365,916 372,909 378,901 383,891 387,883 393,885 402,889 410,894 415,896 415,896 410,903 405,910 399,918 394,925 417,930 422,923 428,916 433,910 438,902 438,902 438,902 465,914 454,938 449,938 443,937 438,936 434,935 429,934 425,933 421,931 417,930 394,925"/>
</g>
</svg>
