<?xml version="1.0" encoding="UTF-8" standalone="no"?>
<!DOCTYPE svg PUBLIC "-//W3C//DTD SVG 1.0//EN" "http://www.w3.org/TR/2001/REC-SVG-20010904/DTD/svg10.dtd">
<svg xmlns="http://www.w3.org/2000/svg" xmlns:xlink="http://www.w3.org/1999/xlink" fill-rule="evenodd" height="0.497in" preserveAspectRatio="none" stroke-linecap="round" viewBox="0 0 289 497" width="0.289in">
<style type="text/css">
.brush0 { fill: rgb(255,255,255); }
.pen0 { stroke: rgb(0,0,0); stroke-width: 1; stroke-linejoin: round; }
.brush1 { fill: none; }
.pen1 { stroke: none; }
.brush2 { fill: rgb(0,0,0); }
</style>
<g>
<polygon class="pen1 brush2" points="176,281 176,293 175,306 174,318 173,328 191,316 192,315 194,311 197,307 203,304 208,303 213,301 218,299 224,297 229,295 234,293 237,291 239,289 240,290 239,296 235,305 230,313 226,316 221,318 214,319 208,319 201,318 196,317 192,316 191,316 173,328 170,346 168,361 166,376 165,396 184,392 185,391 188,390 191,387 196,385 201,382 206,379 211,377 215,376 223,374 232,369 239,364 242,359 243,359 241,367 238,378 234,388 230,391 224,392 216,393 207,393 198,393 191,393 186,392 184,392 165,396 165,414 166,438 166,460 165,473 164,474 162,467 161,460 160,456 159,453 158,444 156,432 154,417 126,420 125,420 122,420 117,419 112,418 106,418 100,417 94,415 90,414 83,410 77,404 73,400 71,398 72,398 74,399 77,399 81,400 86,401 92,402 97,403 103,404 113,408 120,413 125,418 126,420 154,417 152,405 150,394 148,384 147,378 146,371 145,361 145,347 144,332 119,335 118,336 116,337 113,340 109,342 104,345 99,348 94,350 89,351 84,351 79,350 74,347 69,345 65,342 61,339 59,338 58,337 59,337 62,337 66,336 72,336 77,335 83,333 89,330 94,327 103,324 111,328 117,332 119,335 144,332 143,316 143,301 142,288 141,278 100,272 99,272 97,272 93,272 88,271 82,270 76,269 70,267 64,264 54,255 48,244 45,235 44,231 45,232 48,233 52,235 57,238 62,240 68,243 73,245 77,246 88,252 95,260 99,268 100,272 141,278 138,266 134,255 129,246 122,238 115,230 108,224 101,218 94,213 87,206 79,196 72,185 65,173 58,161 54,152 50,145 49,143 35,123 38,125 42,128 49,132 57,137 64,142 71,148 77,153 81,158 86,166 91,172 96,176 101,178 105,179 109,179 111,179 112,179 114,175 118,165 121,151 121,137 97,125 96,125 94,124 91,123 86,122 82,120 76,118 71,115 66,112 58,104 53,96 50,89 48,85 49,85 52,86 56,87 61,89 67,91 72,93 78,95 82,97 88,103 93,113 96,121 97,125 121,137 120,125 120,113 119,100 117,83 112,62 106,43 100,29 98,24 40,8 1,8 1,25 1,63 1,104 3,127 7,149 10,174 10,203 8,237 9,258 13,293 17,330 18,354 17,374 17,400 18,424 19,440 18,437 16,456 14,481 13,493 15,493 22,494 31,494 43,495 57,495 71,496 84,496 97,496 110,495 126,494 143,493 160,492 176,490 188,489 197,488 200,488 283,492 284,483 285,461 285,431 283,400 280,360 278,309 278,256 278,212 277,173 275,141 274,114 278,92 282,66 282,38 279,15 277,5 275,5 268,5 259,6 248,6 236,6 223,7 212,7 203,7 196,7 188,6 179,5 170,3 160,2 148,1 136,0 123,0 109,0 95,1 81,3 68,4 57,5 48,7 42,8 40,8 98,24 101,26 107,31 115,39 122,49 130,61 138,72 145,89 151,113 169,104 169,100 171,92 172,82 175,73 180,66 188,62 195,59 198,58 198,62 198,72 196,83 194,92 188,97 180,101 172,103 169,104 151,113 151,130 150,154 149,176 148,185 152,180 160,169 170,157 177,150 180,148 184,145 188,142 193,139 198,136 203,134 208,132 212,131 220,130 229,130 236,130 239,130 236,132 229,138 219,147 207,159 195,173 185,190 177,209 174,230 174,240 175,250 176,263 176,281 201,254 203,251 208,243 214,235 220,230 228,227 238,222 246,219 249,217 248,220 244,227 239,236 233,241 229,243 224,245 218,247 213,249 208,251 205,253 202,254 201,254 176,281"/>
</g>
</svg>
