<?xml version="1.0" encoding="UTF-8" standalone="no"?>
<!DOCTYPE svg PUBLIC "-//W3C//DTD SVG 1.0//EN" "http://www.w3.org/TR/2001/REC-SVG-20010904/DTD/svg10.dtd">
<svg xmlns="http://www.w3.org/2000/svg" xmlns:xlink="http://www.w3.org/1999/xlink" fill-rule="evenodd" height="0.434in" preserveAspectRatio="none" stroke-linecap="round" viewBox="0 0 767 434" width="0.767in">
<style type="text/css">
.brush0 { fill: rgb(255,255,255); }
.pen0 { stroke: rgb(0,0,0); stroke-width: 1; stroke-linejoin: round; }
.brush1 { fill: none; }
.pen1 { stroke: none; }
.brush2 { fill: rgb(0,0,0); }
</style>
<g>
<polygon class="pen1 brush2" points="101,359 83,352 67,345 53,338 41,332 32,325 25,319 21,312 20,306 22,298 27,290 36,282 49,273 67,263 90,254 117,246 150,237 175,232 201,228 228,224 256,221 285,219 314,217 343,217 372,217 400,217 429,219 456,221 483,224 508,228 533,232 555,237 576,243 589,247 599,251 608,256 615,260 620,264 623,267 625,271 626,274 625,277 622,282 617,286 609,292 598,297 584,303 567,309 545,314 529,317 513,320 495,322 478,324 460,325 441,326 423,327 404,327 386,326 368,325 351,324 334,322 318,320 302,318 288,315 275,311 267,308 260,306 255,303 251,301 248,298 246,297 245,295 245,294 245,293 247,291 250,289 255,286 261,282 269,279 280,275 294,272 304,270 315,268 325,267 337,265 348,265 360,264 372,264 383,264 395,264 406,264 417,265 428,267 438,268 448,270 457,272 465,274 474,277 479,279 481,281 482,282 482,282 482,281 482,281 482,280 481,281 477,284 469,288 454,292 441,295 427,296 413,297 398,297 383,297 369,296 357,294 346,291 346,291 342,291 339,292 336,294 334,297 333,301 334,305 337,308 340,309 340,309 352,312 366,315 381,316 397,317 413,317 429,315 444,314 458,311 468,308 477,305 484,302 490,299 495,295 498,291 500,287 501,282 501,278 500,274 497,270 494,266 490,263 484,260 478,257 471,255 462,253 452,250 442,249 431,247 420,246 408,245 396,244 384,244 372,244 359,244 347,245 335,246 323,247 312,249 301,251 290,253 275,257 262,261 251,265 242,270 235,275 230,281 227,287 226,294 226,299 228,305 232,310 236,314 242,318 250,322 259,325 269,328 283,332 298,335 314,338 330,341 348,343 366,344 385,345 404,345 423,345 442,345 461,344 480,342 499,341 516,338 534,335 550,332 566,328 583,323 599,317 613,311 626,304 636,295 642,286 645,275 644,267 642,260 637,253 630,246 621,240 610,234 597,229 582,224 560,218 537,213 512,209 486,205 459,202 431,200 402,199 372,198 343,198 313,199 283,200 254,202 226,205 198,209 171,214 146,219 121,225 96,233 71,241 49,251 30,262 14,275 4,289 0,305 1,313 4,321 9,330 18,339 30,349 47,358 69,368 96,377 112,382 129,386 147,390 165,394 184,397 203,400 223,402 244,404 265,406 286,408 307,409 329,410 351,411 373,411 396,411 418,411 441,410 464,409 487,408 509,407 532,405 555,403 577,401 600,399 622,396 644,393 665,390 686,387 707,383 728,379 748,375 767,371 766,371 762,372 755,372 747,374 736,375 723,376 709,378 692,380 674,381 654,383 633,385 611,387 587,389 563,390 538,392 512,393 485,394 458,395 430,396 403,396 375,396 347,395 320,394 292,393 266,391 239,388 214,385 189,381 165,377 143,371 121,366 101,359"/>
<polygon class="pen1 brush2" points="387,409 387,57 351,57 351,409 387,409"/>
<polygon class="pen1 brush2" points="278,115 368,0 454,116 368,60 278,115"/>
</g>
</svg>
