<?xml version="1.0" encoding="UTF-8" standalone="no"?>
<!DOCTYPE svg PUBLIC "-//W3C//DTD SVG 1.0//EN" "http://www.w3.org/TR/2001/REC-SVG-20010904/DTD/svg10.dtd">
<svg xmlns="http://www.w3.org/2000/svg" xmlns:xlink="http://www.w3.org/1999/xlink" fill-rule="evenodd" height="0.421in" preserveAspectRatio="none" stroke-linecap="round" viewBox="0 0 593 421" width="0.593in">
<style type="text/css">
.brush0 { fill: rgb(255,255,255); }
.pen0 { stroke: rgb(0,0,0); stroke-width: 1; stroke-linejoin: round; }
.brush1 { fill: none; }
.pen1 { stroke: none; }
.brush2 { fill: rgb(0,0,0); }
</style>
<g>
<polygon class="pen1 brush2" points="297,300 278,298 261,293 245,284 231,273 220,260 211,244 206,227 204,208 206,189 211,172 220,156 231,142 245,131 261,122 278,117 297,115 315,117 332,122 348,131 361,142 372,156 381,172 386,189 388,208 386,227 381,244 372,260 361,273 348,284 332,293 315,298 297,300"/>
<polygon class="pen1 brush2" points="0,0 2,43 6,85 13,125 23,164 36,201 51,236 68,268 87,298 108,325 131,349 155,370 181,388 209,402 237,412 267,419 297,421 327,419 357,412 385,402 412,388 438,370 462,349 485,325 506,298 525,268 542,236 557,201 570,164 580,125 587,85 591,43 593,0 593,4 591,15 588,32 584,54 578,80 569,109 558,140 544,171 527,203 507,234 483,263 455,289 423,311 386,328 344,339 297,343 252,339 212,328 177,311 145,289 117,263 93,234 72,203 55,171 40,140 28,109 19,80 11,54 6,32 3,15 1,4 0,0"/>
</g>
</svg>
