<?xml version="1.0" encoding="UTF-8" standalone="no"?>
<!DOCTYPE svg PUBLIC "-//W3C//DTD SVG 1.0//EN" "http://www.w3.org/TR/2001/REC-SVG-20010904/DTD/svg10.dtd">
<svg xmlns="http://www.w3.org/2000/svg" xmlns:xlink="http://www.w3.org/1999/xlink" fill-rule="evenodd" height="1.0in" preserveAspectRatio="none" stroke-linecap="round" viewBox="0 0 1002 1000" width="1.002in">
<style type="text/css">
.brush0 { fill: rgb(255,255,255); }
.pen0 { stroke: rgb(0,0,0); stroke-width: 1; stroke-linejoin: round; }
.brush1 { fill: none; }
.pen1 { stroke: none; }
.brush2 { fill: rgb(0,0,0); }
</style>
<g>
<polygon class="pen1 brush2" points="10,375 30,370 51,365 72,361 93,357 114,353 135,351 156,348 178,346 199,345 221,344 242,344 264,344 286,344 307,345 329,346 351,348 373,350 395,352 417,355 439,358 460,362 482,365 504,369 525,374 547,378 568,383 590,389 611,394 632,400 653,406 674,412 695,419 693,407 691,395 691,383 693,371 698,359 706,349 718,341 736,335 729,332 722,328 716,324 710,319 705,313 700,307 696,299 692,291 686,313 669,328 646,336 621,337 598,330 581,316 573,294 580,264 593,243 608,230 625,225 641,225 657,230 671,239 683,249 691,261 691,258 691,253 692,248 695,243 699,237 705,230 714,225 725,219 719,220 710,219 698,216 685,211 671,204 656,196 642,186 628,175 616,162 607,148 600,132 596,116 597,98 602,80 613,61 630,41 646,28 663,18 682,11 701,8 720,8 738,10 753,15 766,23 778,33 788,46 796,60 802,76 806,94 809,112 809,132 808,152 817,145 829,137 843,129 861,123 880,121 901,123 924,131 949,146 957,153 965,160 971,168 977,175 982,182 986,190 990,197 993,204 790,204 792,196 795,188 799,179 803,169 798,178 792,187 786,194 780,199 773,204 767,207 759,209 752,210 761,210 770,212 778,217 786,223 792,229 797,234 800,238 801,240 795,232 791,223 790,214 790,204 993,204 995,216 996,229 995,241 993,252 989,264 984,274 977,285 969,294 961,302 952,309 942,316 931,321 919,325 907,328 895,330 882,331 886,333 890,336 893,339 897,342 804,342 807,338 810,334 814,331 818,328 823,326 828,324 834,324 841,324 834,320 827,317 822,313 818,308 814,303 812,296 810,288 810,278 806,294 802,306 797,315 791,322 785,327 777,330 769,333 760,335 769,340 777,345 783,350 788,355 791,360 794,365 796,370 797,376 797,371 797,362 799,352 803,342 897,342 904,355 906,370 904,386 900,400 893,413 884,422 874,427 864,425 883,437 895,453 901,471 902,488 897,504 887,516 874,523 858,524 837,517 823,507 815,494 811,481 812,466 817,452 825,440 835,429 828,426 821,423 815,421 811,417 807,413 804,407 802,399 800,389 799,399 795,409 789,420 781,430 771,439 759,445 747,448 733,447 754,472 776,499 796,528 817,559 836,591 855,624 872,658 887,692 901,728 913,764 922,799 927,832 929,865 928,895 922,924 912,949 889,956 866,963 844,969 821,974 799,979 777,982 755,986 733,988 711,990 690,991 669,992 648,992 627,992 606,991 586,989 566,987 541,984 517,979 492,974 469,969 445,962 423,955 400,947 378,938 357,929 336,919 316,908 296,897 276,885 258,873 240,860 222,846 206,833 190,820 175,806 161,791 147,777 134,762 121,746 109,730 97,714 86,698 76,681 66,664 57,647 49,630 41,612 34,594 26,568 19,541 13,514 9,486 7,459 6,431 7,403 10,375 10,375"/>
<polygon class="pen1 brush2" points="415,319 434,318 449,313 462,307 473,299 481,289 487,278 491,266 493,253 493,238 491,223 487,209 482,195 475,184 466,174 456,167 445,163 430,162 416,164 404,169 393,175 383,183 375,192 369,203 364,214 360,230 359,247 361,263 365,278 373,292 384,304 398,313 415,319 415,319"/>
<polygon class="pen1 brush2" points="138,234 155,233 169,229 182,222 192,212 199,201 205,188 209,174 210,160 210,143 207,127 202,112 194,99 185,87 173,79 160,74 144,74 127,74 111,77 97,83 85,91 74,102 65,114 58,128 53,142 50,158 51,174 55,190 63,204 75,216 91,225 112,232 138,234"/>
</g>
</svg>
