<?xml version="1.0" encoding="UTF-8" standalone="no"?>
<!DOCTYPE svg PUBLIC "-//W3C//DTD SVG 1.0//EN" "http://www.w3.org/TR/2001/REC-SVG-20010904/DTD/svg10.dtd">
<svg xmlns="http://www.w3.org/2000/svg" xmlns:xlink="http://www.w3.org/1999/xlink" fill-rule="evenodd" height="0.658in" preserveAspectRatio="none" stroke-linecap="round" viewBox="0 0 827 658" width="0.827in">
<style type="text/css">
.brush0 { fill: rgb(255,255,255); }
.pen0 { stroke: rgb(0,0,0); stroke-width: 1; stroke-linejoin: round; }
.brush1 { fill: none; }
.pen1 { stroke: none; }
.brush2 { fill: rgb(0,0,0); }
</style>
<g>
<polygon class="pen1 brush2" points="0,658 414,0 827,658 0,658"/>
<polygon class="pen1 brush0" points="729,658 718,645 706,630 694,616 680,601 664,588 646,576 625,566 601,559 585,556 570,554 556,553 542,552 529,552 517,551 505,551 493,550 482,548 472,545 462,541 453,536 444,528 435,519 428,508 420,494 416,476 422,461 433,449 447,437 460,425 470,411 474,393 467,371 462,364 457,358 450,354 442,350 431,347 418,342 403,336 384,327 369,318 358,310 352,301 348,292 348,283 351,274 356,265 364,255 373,246 384,237 397,227 410,217 423,208 437,198 451,188 464,178 469,174 474,170 479,166 484,162 488,157 493,153 498,148 503,143 484,113 477,118 469,123 461,128 453,132 444,137 435,142 425,147 415,151 405,156 393,161 382,165 370,170 357,174 344,179 331,183 317,187 310,189 303,191 297,193 291,195 232,289 235,296 239,302 243,307 248,312 252,317 256,321 260,324 264,327 279,337 298,350 315,366 328,383 332,403 324,423 300,443 255,463 215,482 182,505 156,531 136,558 121,586 110,612 103,635 98,654 98,658 729,658"/>
</g>
</svg>
