<?xml version="1.0" encoding="UTF-8" standalone="no"?>
<!DOCTYPE svg PUBLIC "-//W3C//DTD SVG 1.0//EN" "http://www.w3.org/TR/2001/REC-SVG-20010904/DTD/svg10.dtd">
<svg xmlns="http://www.w3.org/2000/svg" xmlns:xlink="http://www.w3.org/1999/xlink" fill-rule="evenodd" height="0.493in" preserveAspectRatio="none" stroke-linecap="round" viewBox="0 0 551 493" width="0.551in">
<style type="text/css">
.brush0 { fill: rgb(255,255,255); }
.pen0 { stroke: rgb(0,0,0); stroke-width: 1; stroke-linejoin: round; }
.brush1 { fill: none; }
.pen1 { stroke: none; }
.brush2 { fill: rgb(0,0,0); }
</style>
<g>
<polygon class="pen1 brush2" points="437,420 330,420 327,411 322,403 317,395 310,389 302,384 294,380 285,378 275,377 265,378 256,380 247,384 240,389 233,395 227,403 222,411 219,420 114,420 111,413 108,406 104,400 99,394 152,304 156,305 160,306 163,307 167,307 179,306 190,302 199,297 208,290 215,281 220,272 224,261 225,249 224,237 220,226 215,216 208,207 261,115 264,116 268,116 271,117 275,117 279,117 283,116 286,116 290,115 343,208 336,217 331,227 327,237 326,249 327,261 331,272 336,281 343,290 352,297 361,302 372,306 384,307 388,307 392,306 395,306 399,305 451,395 446,400 443,406 439,413 437,420 437,451 440,460 445,468 451,475 458,481 465,486 474,490 483,492 493,493 505,492 516,488 525,483 534,476 541,467 546,458 550,447 551,435 550,423 546,412 541,403 534,394 525,387 516,382 505,378 493,377 489,377 486,378 482,378 478,379 426,289 433,281 438,271 441,261 442,249 441,237 437,226 432,217 425,208 416,201 407,196 396,192 384,191 380,191 377,191 373,192 370,193 317,99 323,91 328,81 331,70 332,59 331,47 328,36 322,26 316,17 307,10 297,5 287,1 275,0 263,1 252,5 243,10 234,17 227,26 222,36 218,47 217,59 218,70 221,81 227,91 234,99 180,192 177,191 174,191 171,191 167,191 155,192 144,196 135,201 126,208 119,217 114,226 110,237 109,249 110,260 113,270 118,280 125,289 72,379 69,378 65,378 62,377 58,377 46,378 35,382 26,387 17,394 10,403 5,412 1,423 0,435 1,447 5,458 10,467 17,476 26,483 35,488 46,492 58,493 68,492 77,490 86,486 94,481 100,475 106,468 111,460 114,451 219,451 222,460 227,468 233,475 240,481 247,486 256,490 265,492 275,493 285,492 294,490 302,486 310,481 317,475 322,468 327,460 330,451 437,451 437,420"/>
</g>
</svg>
