<?xml version="1.0" encoding="UTF-8" standalone="no"?>
<!DOCTYPE svg PUBLIC "-//W3C//DTD SVG 1.0//EN" "http://www.w3.org/TR/2001/REC-SVG-20010904/DTD/svg10.dtd">
<svg xmlns="http://www.w3.org/2000/svg" xmlns:xlink="http://www.w3.org/1999/xlink" fill-rule="evenodd" height="0.564in" preserveAspectRatio="none" stroke-linecap="round" viewBox="0 0 564 564" width="0.564in">
<style type="text/css">
.brush0 { fill: rgb(255,255,255); }
.pen0 { stroke: rgb(0,0,0); stroke-width: 1; stroke-linejoin: round; }
.brush1 { fill: none; }
.pen1 { stroke: none; }
.brush2 { fill: rgb(0,0,0); }
</style>
<g>
<polygon class="pen1 brush2" points="283,564 312,563 340,558 366,551 392,542 417,530 440,516 462,499 482,481 500,461 516,439 530,416 542,391 551,366 558,339 563,311 564,282 563,253 558,225 551,198 542,172 530,147 516,124 500,103 482,82 462,64 440,48 417,34 392,22 366,13 340,6 312,1 283,0 254,1 226,6 199,13 173,22 148,34 125,48 103,64 83,82 65,103 48,124 34,147 22,172 13,198 6,225 1,253 0,282 1,311 6,339 13,366 22,391 34,416 48,439 65,461 83,481 103,499 125,516 148,530 173,542 199,551 226,558 254,563 283,564"/>
<polygon class="pen1 brush0" points="490,343 482,350 474,357 466,363 458,369 449,374 440,378 431,382 422,386 524,285 524,284 525,283 525,282 525,281 525,275 524,269 523,264 523,258 383,397 376,398 369,398 362,399 355,400 519,236 518,230 517,224 515,218 514,213 327,399 322,398 317,397 312,396 306,395 507,194 505,189 503,184 501,179 499,174 284,388 280,387 275,385 271,384 266,382 490,158 487,153 484,149 481,144 478,140 248,372 244,370 240,367 236,364 232,362 467,126 464,122 461,118 457,115 454,111 217,349 215,347 214,346 212,344 210,343 209,341 207,339 206,338 204,336 441,99 437,95 433,92 429,89 425,86 191,321 188,317 186,313 183,310 181,306 410,76 406,73 401,70 397,67 392,65 171,287 169,282 167,278 165,273 163,269 374,57 369,55 364,53 358,52 353,50 157,247 156,242 155,236 154,231 153,225 333,44 327,43 322,42 316,41 310,40 152,198 152,191 153,184 154,177 155,170 286,39 285,39 285,39 284,39 283,39 276,39 270,39 263,39 256,40 165,131 169,122 173,112 178,103 184,95 190,86 196,78 203,70 210,62 215,58 220,53 224,49 229,45 209,51 190,58 171,66 154,76 137,88 122,100 107,114 94,129 82,145 71,162 62,180 54,199 48,219 44,239 41,260 40,281 41,306 45,330 51,353 59,375 69,396 82,416 96,435 111,452 129,468 147,481 167,494 189,504 211,512 234,518 258,522 283,523 307,522 330,518 352,513 374,505 394,496 413,485 432,472 449,457 464,441 478,424 490,405 501,385 510,365 517,343 521,320 524,297 521,303 517,309 513,315 509,321 505,327 500,332 495,338 490,343"/>
</g>
</svg>
