<?xml version="1.0" encoding="UTF-8" standalone="no"?>
<!DOCTYPE svg PUBLIC "-//W3C//DTD SVG 1.0//EN" "http://www.w3.org/TR/2001/REC-SVG-20010904/DTD/svg10.dtd">
<svg xmlns="http://www.w3.org/2000/svg" xmlns:xlink="http://www.w3.org/1999/xlink" fill-rule="evenodd" height="0.752in" preserveAspectRatio="none" stroke-linecap="round" viewBox="0 0 461 752" width="0.461in">
<style type="text/css">
.brush0 { fill: rgb(255,255,255); }
.pen0 { stroke: rgb(0,0,0); stroke-width: 1; stroke-linejoin: round; }
.brush1 { fill: none; }
.pen1 { stroke: none; }
.brush2 { fill: rgb(0,0,0); }
</style>
<g>
<polygon class="pen1 brush2" points="231,0 237,23 243,45 249,66 255,86 261,104 268,121 274,137 281,152 289,166 297,181 307,196 317,211 328,227 341,243 354,259 368,275 385,294 403,315 418,337 431,358 442,379 450,400 456,421 460,443 461,464 460,487 457,509 451,530 444,551 434,571 423,590 409,608 393,625 384,633 375,641 366,648 357,655 348,661 338,666 328,671 318,676 308,680 297,683 287,686 276,689 265,691 254,692 243,693 231,693 219,693 207,692 196,691 185,689 174,686 163,683 153,680 142,676 132,671 122,666 113,661 103,655 94,648 85,641 77,633 68,625 52,608 38,590 26,571 17,551 9,530 4,509 1,487 0,464 1,443 5,421 11,400 19,379 30,358 43,337 58,315 76,294 93,275 107,259 120,243 133,227 144,211 154,196 164,181 172,166 180,152 187,137 194,121 201,104 207,86 213,66 219,45 225,23 231,0"/>
<polygon class="pen1 brush0" points="231,232 236,255 242,274 249,292 256,307 260,314 264,321 268,328 273,336 278,344 284,351 290,359 297,367 306,376 315,386 322,397 329,407 334,418 338,428 341,439 342,449 343,460 342,471 341,482 338,492 335,502 330,512 324,521 318,530 310,538 301,546 292,552 283,558 274,563 264,566 253,569 242,570 231,571 220,570 209,569 198,566 188,563 178,558 168,552 159,546 151,538 143,530 136,521 131,512 126,502 122,492 119,482 118,471 117,460 118,449 119,439 122,428 127,418 132,407 139,397 146,386 155,376 163,367 170,359 176,351 183,344 188,336 193,328 198,321 202,314 206,307 213,292 219,274 225,255 231,232"/>
<polygon class="pen1 brush2" points="33,728 34,729 35,732 38,735 41,739 46,743 51,747 57,749 64,751 69,751 74,750 79,749 83,746 88,743 92,739 97,735 101,729 108,723 115,720 122,718 127,718 133,719 139,721 144,724 147,728 150,732 153,735 156,738 160,740 164,743 169,744 173,745 178,746 184,746 189,745 194,744 199,742 204,740 208,737 212,733 216,729 222,723 229,719 235,718 241,719 248,720 253,723 258,727 263,730 270,736 278,740 286,742 294,743 303,742 311,740 320,736 328,731 337,725 346,721 353,719 359,719 364,720 369,723 373,726 376,729 380,733 384,737 388,740 393,742 398,744 403,746 408,747 413,747 418,746 422,745 427,744 431,742 435,739 438,736 441,733 444,729 433,720 429,725 424,728 418,731 412,732 405,731 398,729 392,725 387,720 382,715 376,710 369,706 361,704 353,704 343,706 332,711 320,718 314,722 307,725 301,727 295,728 289,727 283,726 277,723 272,719 263,712 253,707 244,704 236,703 227,704 219,708 212,713 205,720 198,726 191,729 184,731 179,731 173,730 167,727 162,725 159,721 157,717 154,714 150,711 147,709 142,706 138,705 133,704 128,703 122,703 117,704 112,705 107,707 102,709 98,712 94,716 90,720 84,727 78,732 71,735 65,736 57,733 51,728 46,723 45,721 33,728"/>
</g>
</svg>
