<?xml version="1.0" encoding="UTF-8" standalone="no"?>
<!DOCTYPE svg PUBLIC "-//W3C//DTD SVG 1.0//EN" "http://www.w3.org/TR/2001/REC-SVG-20010904/DTD/svg10.dtd">
<svg xmlns="http://www.w3.org/2000/svg" xmlns:xlink="http://www.w3.org/1999/xlink" fill-rule="evenodd" height="0.944in" preserveAspectRatio="none" stroke-linecap="round" viewBox="0 0 464 944" width="0.464in">
<style type="text/css">
.brush0 { fill: rgb(255,255,255); }
.pen0 { stroke: rgb(0,0,0); stroke-width: 1; stroke-linejoin: round; }
.brush1 { fill: none; }
.pen1 { stroke: none; }
.brush2 { fill: rgb(0,0,0); }
</style>
<g>
<polygon class="pen1 brush2" points="379,562 368,619 353,671 337,718 319,758 299,792 277,819 255,839 231,850 220,852 209,853 198,852 187,849 176,844 165,837 155,828 144,818 117,780 94,731 75,673 62,606 54,535 51,460 54,384 63,308 70,273 79,240 89,211 101,185 113,164 127,147 141,134 155,127 161,126 168,125 174,126 181,128 187,131 193,136 200,141 206,147 223,170 237,202 248,239 257,281 262,327 263,374 262,422 256,469 251,493 245,515 238,533 231,548 224,561 216,570 208,577 201,580 197,581 191,581 184,578 174,570 164,555 155,536 148,513 142,486 139,458 138,428 139,398 143,368 146,353 149,340 153,329 158,319 162,312 166,306 171,302 175,300 176,300 179,300 182,302 187,306 198,325 205,355 208,391 205,431 201,449 197,460 192,466 186,468 178,461 171,444 167,419 166,390 161,388 158,415 157,442 160,468 170,487 176,493 183,497 189,499 197,497 203,494 209,490 214,484 219,477 223,469 227,459 230,448 233,436 236,414 237,392 236,370 233,349 229,330 223,312 216,298 207,286 201,280 195,277 189,274 184,272 179,272 174,272 170,272 166,273 157,277 149,283 141,291 135,302 128,314 123,329 119,345 115,363 111,396 110,430 111,463 115,495 121,524 130,550 140,571 153,588 160,594 166,599 173,604 180,606 187,608 195,609 202,609 209,607 221,601 233,592 244,580 255,564 264,546 272,524 278,500 283,474 289,422 292,371 290,320 284,272 274,227 261,187 245,153 226,127 215,116 204,108 193,102 182,99 172,97 163,97 155,98 147,100 128,108 111,122 94,141 79,165 65,194 53,226 43,263 35,303 25,382 22,461 26,540 35,615 49,684 69,746 94,797 123,837 140,853 157,865 173,874 188,879 202,881 216,882 228,881 239,878 253,872 267,865 280,855 293,843 306,830 318,814 330,797 341,778 351,757 361,734 370,710 379,684 387,657 395,628 401,598 407,567 379,562"/>
<polygon class="pen1 brush2" points="288,638 406,489 464,685 394,564 288,638"/>
<polygon class="pen1 brush2" points="175,944 175,0 151,0 151,944 175,944"/>
</g>
</svg>
