<?xml version="1.0" encoding="UTF-8" standalone="no"?>
<!DOCTYPE svg PUBLIC "-//W3C//DTD SVG 1.0//EN" "http://www.w3.org/TR/2001/REC-SVG-20010904/DTD/svg10.dtd">
<svg xmlns="http://www.w3.org/2000/svg" xmlns:xlink="http://www.w3.org/1999/xlink" fill-rule="evenodd" height="0.914in" preserveAspectRatio="none" stroke-linecap="round" viewBox="0 0 1036 914" width="1.036in">
<style type="text/css">
.brush0 { fill: rgb(255,255,255); }
.pen0 { stroke: rgb(0,0,0); stroke-width: 1; stroke-linejoin: round; }
.brush1 { fill: none; }
.pen1 { stroke: none; }
.brush2 { fill: rgb(0,0,0); }
</style>
<g>
<polygon class="pen1 brush2" points="490,497 490,499 490,500 490,501 490,503 485,522 480,537 476,550 471,560 466,568 460,574 453,578 446,581 437,582 427,582 415,581 401,579 385,577 367,575 346,572 323,570 344,585 367,597 391,607 415,615 440,619 464,622 488,621 511,618 533,613 553,604 571,593 586,580 599,563 608,544 614,522 615,497 730,497 728,529 723,560 715,591 705,620 691,648 674,675 654,698 631,719 617,728 603,737 590,746 576,757 563,768 550,781 537,796 524,813 496,819 469,823 441,826 415,826 388,825 362,821 337,816 312,809 288,801 264,791 241,780 219,767 197,753 177,737 157,721 138,703 118,682 99,659 81,635 65,609 51,583 38,555 27,527 17,497 490,497"/>
<polygon class="pen1 brush2" points="602,438 596,429 587,421 578,412 566,405 554,398 541,392 528,387 514,383 501,381 488,381 476,383 464,386 454,392 446,400 439,411 435,425 443,436 452,445 461,454 469,462 476,470 483,478 487,487 490,497 17,497 10,466 4,434 1,401 0,368 4,346 9,325 15,304 22,285 30,267 38,249 47,232 57,216 69,198 81,181 94,165 107,149 121,133 134,118 148,102 162,87 174,79 186,71 199,64 211,58 224,51 237,46 250,40 264,35 277,31 290,27 304,23 318,20 332,17 346,14 360,12 374,10 390,8 405,7 421,6 437,6 453,6 469,7 485,8 501,10 516,12 532,14 548,17 564,20 580,24 596,28 611,32 627,37 642,42 656,46 670,52 684,57 698,63 712,70 726,76 739,83 753,90 766,98 779,106 792,114 804,122 817,130 829,139 841,148 864,167 887,187 907,208 927,229 946,251 963,274 978,297 993,321 1005,346 1015,372 1022,397 1027,423 1028,448 1028,473 1026,498 1021,523 1013,555 1001,587 987,618 969,648 950,677 928,704 904,731 878,756 858,773 838,790 817,806 796,821 774,834 751,847 728,859 706,869 682,879 659,887 636,894 613,899 590,903 568,905 546,906 524,905 510,902 494,900 477,899 459,897 440,894 421,889 402,882 384,871 450,859 507,847 555,833 594,819 628,804 656,787 679,769 700,751 718,731 736,710 754,687 773,663 795,638 820,612 850,584 886,554 900,504 905,455 900,403 886,344 858,312 826,282 792,253 755,228 716,204 675,184 634,167 591,153 547,143 503,137 460,136 416,139 374,147 332,160 292,179 254,203 248,219 240,230 229,239 217,247 203,255 189,265 175,278 162,297 158,322 151,347 143,373 139,405 158,391 175,376 189,360 203,345 218,330 235,315 255,300 279,287 306,281 335,277 365,275 396,274 427,275 459,278 491,283 522,290 553,298 583,309 611,322 638,336 663,353 686,371 706,392 723,415 727,435 730,456 731,476 730,497 615,497 614,483 612,469 608,454 602,438"/>
</g>
</svg>
