<?xml version="1.0" encoding="UTF-8" standalone="no"?>
<!DOCTYPE svg PUBLIC "-//W3C//DTD SVG 1.0//EN" "http://www.w3.org/TR/2001/REC-SVG-20010904/DTD/svg10.dtd">
<svg xmlns="http://www.w3.org/2000/svg" xmlns:xlink="http://www.w3.org/1999/xlink" fill-rule="evenodd" height="1.0in" preserveAspectRatio="none" stroke-linecap="round" viewBox="0 0 673 1000" width="0.673in">
<style type="text/css">
.brush0 { fill: rgb(255,255,255); }
.pen0 { stroke: rgb(0,0,0); stroke-width: 1; stroke-linejoin: round; }
.brush1 { fill: none; }
.pen1 { stroke: none; }
.brush2 { fill: rgb(0,0,0); }
</style>
<g>
<polygon class="pen1 brush2" points="83,207 79,182 73,157 65,132 55,106 43,81 30,54 16,27 0,0 673,6 645,352 653,404 660,454 665,504 665,554 663,579 659,605 653,630 645,656 634,682 621,709 606,736 587,764 594,797 594,829 589,861 578,891 562,919 542,945 517,968 490,987 495,899 507,808 522,717 536,624 546,532 547,439 535,347 507,256 510,239 512,220 512,199 511,177 508,155 503,134 495,115 486,99 480,104 474,112 469,122 464,135 459,150 455,167 451,186 448,207 213,207 213,196 212,185 210,175 206,168 176,163 176,175 176,186 176,196 176,207 83,207"/>
<polygon class="pen1 brush2" points="202,632 194,680 187,728 179,775 171,822 163,868 155,913 146,957 137,1000 126,985 121,965 118,941 117,914 115,888 111,862 103,840 88,822 0,1000 0,632 111,632 100,724 107,715 114,706 120,695 125,684 129,672 132,659 136,646 138,632 202,632"/>
<polygon class="pen1 brush2" points="0,433 23,404 43,375 58,346 70,318 78,290 83,262 85,235 83,207 176,207 176,224 176,241 176,258 176,274 184,272 191,268 196,261 201,252 205,242 209,231 211,219 213,207 448,207 437,293 427,394 417,505 406,618 391,729 372,831 347,919 314,987 296,949 286,905 284,857 289,804 297,749 309,692 322,634 336,577 348,520 358,466 363,416 362,369 355,328 338,293 312,265 274,246 264,293 254,340 244,388 235,436 227,485 218,534 210,583 202,632 138,632 142,580 141,527 139,477 137,433 111,632 0,632 0,433"/>
</g>
</svg>
