<?xml version="1.0" encoding="UTF-8" standalone="no"?>
<!DOCTYPE svg PUBLIC "-//W3C//DTD SVG 1.0//EN" "http://www.w3.org/TR/2001/REC-SVG-20010904/DTD/svg10.dtd">
<svg xmlns="http://www.w3.org/2000/svg" xmlns:xlink="http://www.w3.org/1999/xlink" fill-rule="evenodd" height="0.482in" preserveAspectRatio="none" stroke-linecap="round" viewBox="0 0 506 482" width="0.506in">
<style type="text/css">
.brush0 { fill: rgb(255,255,255); }
.pen0 { stroke: rgb(0,0,0); stroke-width: 1; stroke-linejoin: round; }
.brush1 { fill: none; }
.pen1 { stroke: none; }
.brush2 { fill: rgb(0,0,0); }
</style>
<g>
<polygon class="pen1 brush2" points="239,52 240,52 242,53 246,53 250,54 255,55 261,55 266,56 271,56 276,56 281,54 286,52 292,49 297,46 302,43 306,39 310,36 314,33 317,30 321,27 326,25 330,23 335,21 340,19 345,17 355,15 362,16 367,18 369,19 371,24 376,37 381,51 385,62 389,71 394,82 401,96 406,111 409,118 415,123 421,126 428,128 436,130 443,131 450,131 455,131 464,132 471,134 477,137 481,141 481,148 477,159 473,172 469,184 467,190 464,199 460,208 456,218 451,229 446,239 442,248 438,256 434,267 436,275 443,289 455,313 460,327 461,338 459,347 454,354 449,359 443,363 437,366 432,368 426,371 417,374 406,377 394,381 382,384 371,386 362,387 355,388 349,388 342,389 333,391 324,393 315,395 306,398 298,401 291,404 285,408 278,412 272,416 265,421 258,427 251,433 243,440 234,447 226,453 219,457 214,459 209,459 204,459 198,459 190,459 179,459 168,457 159,451 151,443 144,433 138,422 134,412 129,404 125,398 121,394 116,392 110,390 105,388 98,387 91,386 83,386 75,385 66,385 58,384 50,382 42,380 35,377 29,373 23,368 18,361 14,343 19,320 27,295 35,271 39,260 44,248 50,236 56,225 62,214 67,204 70,196 72,190 69,180 63,169 55,155 50,134 50,123 52,115 56,109 61,105 66,102 72,100 78,98 84,95 91,92 100,88 111,84 123,79 135,75 148,70 160,66 171,63 182,61 193,58 205,56 216,55 225,54 232,53 237,52 239,52 248,40 245,40 237,40 226,40 212,41 196,42 181,43 166,46 154,49 142,54 127,59 112,65 96,71 81,78 69,85 59,91 53,97 46,108 39,119 34,130 35,144 40,161 47,180 53,195 56,201 54,205 49,214 42,229 33,245 25,263 17,280 11,295 7,305 5,327 4,355 8,381 18,395 25,397 34,399 43,401 52,402 61,403 69,404 76,405 82,405 88,405 94,405 100,406 106,407 112,409 117,411 121,414 124,417 127,423 131,432 137,442 145,453 154,463 163,471 173,476 183,477 192,476 200,475 206,475 211,474 217,473 224,471 232,466 242,460 253,453 262,445 270,439 278,432 285,427 292,422 299,417 306,414 315,412 326,410 338,408 350,407 364,406 378,404 392,401 406,398 419,394 431,391 441,387 449,383 456,378 462,372 467,364 470,353 474,332 475,316 473,303 469,294 463,289 457,285 453,279 453,268 456,260 460,248 465,235 471,220 477,205 483,190 488,176 492,164 498,146 500,134 498,127 489,121 483,119 477,119 470,118 464,118 458,117 452,116 445,113 438,109 431,104 425,98 419,91 413,85 408,77 404,69 400,61 397,52 395,43 395,34 395,25 395,17 394,11 391,6 384,3 374,2 362,3 352,5 343,8 334,11 326,14 318,18 310,22 301,25 291,28 282,31 273,33 265,35 258,37 253,39 249,40 248,40 239,52"/>
<polygon class="pen1 brush2" points="303,98 306,98 314,98 322,100 328,106 328,113 324,116 318,119 310,121 304,120 302,115 302,107 303,98 298,88 292,89 286,92 282,96 281,103 284,112 287,122 293,130 302,134 308,134 313,134 319,134 324,133 329,131 333,128 337,124 339,118 343,107 347,99 347,93 340,88 334,86 327,85 320,84 313,85 307,86 302,87 299,88 298,88 303,98"/>
<polygon class="pen1 brush2" points="403,204 415,207 416,208 418,210 421,214 423,219 421,224 415,227 407,229 400,229 396,227 397,221 399,213 403,204 397,189 390,192 386,195 384,201 385,209 385,219 385,229 386,237 392,241 396,241 401,241 405,241 410,241 414,240 418,239 421,237 424,235 430,230 437,223 440,214 437,204 432,199 427,195 422,192 416,190 411,188 406,188 401,188 397,189 403,204"/>
<polygon class="pen1 brush2" points="368,331 365,337 363,343 364,346 366,346 371,343 376,340 380,337 380,334 377,332 373,331 369,331 368,331 365,316 366,314 367,313 368,311 369,308 372,306 377,307 382,310 388,314 391,319 393,325 392,334 389,346 385,356 379,360 371,360 362,359 355,356 353,349 353,340 354,330 355,324 358,321 361,319 365,316 368,331"/>
<polygon class="pen1 brush2" points="229,385 230,390 230,394 228,398 225,402 220,406 215,408 209,407 205,405 203,402 205,397 209,390 214,381 216,381 220,380 225,381 229,385 235,368 220,365 215,366 211,366 206,371 200,385 195,402 192,413 193,419 200,422 205,423 211,423 216,422 221,422 226,421 230,419 233,417 235,414 239,408 242,402 243,395 243,388 241,381 239,375 236,370 235,368 229,385"/>
<polygon class="pen1 brush2" points="84,316 78,319 73,324 71,328 70,333 74,336 80,335 85,334 88,333 90,332 93,330 96,326 96,322 94,318 92,315 89,314 84,316 78,299 83,299 87,299 92,299 95,299 99,301 103,307 105,314 107,320 107,326 105,333 102,338 98,342 95,344 88,347 79,349 69,349 62,345 59,339 59,331 59,322 60,314 64,308 68,304 72,301 73,300 75,300 76,299 78,299 84,316"/>
<polygon class="pen1 brush2" points="158,115 153,117 148,118 143,118 138,119 137,134 144,132 149,133 153,135 157,138 159,143 158,150 155,157 153,160 152,160 148,162 144,163 139,164 135,164 132,162 129,157 125,149 123,142 125,139 130,137 137,134 138,119 133,119 129,120 125,122 123,126 119,134 116,142 114,149 115,157 119,164 124,171 130,176 138,178 146,177 153,175 158,173 160,172 163,168 169,160 174,149 175,140 173,131 171,121 166,115 158,115"/>
<polygon class="pen1 brush2" points="280,320 270,325 260,327 249,328 239,327 228,325 217,321 207,318 197,314 189,309 182,301 177,292 173,281 170,270 167,259 166,249 165,241 165,235 167,230 169,225 173,221 178,216 183,210 190,203 197,193 205,184 213,178 221,175 229,173 236,173 241,174 245,175 246,175 246,175 248,174 250,174 254,173 258,172 264,172 271,172 280,173 288,175 296,179 303,184 309,189 315,195 320,202 326,208 331,215 336,229 334,244 327,259 320,273 317,279 313,285 309,291 305,297 300,303 295,309 288,314 280,320 288,331 294,327 301,323 308,318 316,312 323,305 330,297 335,287 339,276 344,254 347,234 347,217 339,201 332,193 325,185 318,178 309,172 300,166 290,162 278,159 266,158 265,158 262,158 257,159 250,159 242,161 234,163 225,166 216,170 207,174 199,177 192,180 186,183 180,187 175,192 170,200 165,209 156,230 150,250 147,266 151,279 155,286 160,294 166,304 174,315 185,324 200,333 220,339 245,342 251,342 257,342 262,341 267,340 272,339 277,337 282,334 288,331 280,320"/>
<polygon class="pen1 brush2" points="252,285 245,286 239,286 235,285 231,283 228,281 224,278 220,275 214,273 205,268 202,260 202,252 203,242 203,234 205,230 208,226 213,221 219,215 227,212 233,210 235,209 236,209 238,208 240,207 245,206 249,205 255,204 262,203 269,203 281,204 287,208 292,214 297,222 301,231 301,240 299,249 295,259 292,264 289,268 285,272 280,275 274,278 268,280 260,283 252,285 266,302 271,299 277,296 283,292 289,289 294,285 298,281 301,276 303,270 308,260 314,252 316,242 311,226 304,209 299,199 293,193 283,190 277,189 270,189 264,190 258,190 253,191 249,192 247,193 246,193 238,196 230,198 222,200 214,202 208,205 203,208 199,214 197,221 193,238 187,255 187,271 199,284 210,289 221,293 232,296 243,299 252,300 259,301 264,302 266,302 252,285"/>
</g>
</svg>
