<?xml version="1.0" encoding="UTF-8" standalone="no"?>
<!DOCTYPE svg PUBLIC "-//W3C//DTD SVG 1.0//EN" "http://www.w3.org/TR/2001/REC-SVG-20010904/DTD/svg10.dtd">
<svg xmlns="http://www.w3.org/2000/svg" xmlns:xlink="http://www.w3.org/1999/xlink" fill-rule="evenodd" height="1.038in" preserveAspectRatio="none" stroke-linecap="round" viewBox="0 0 1074 1038" width="1.074in">
<style type="text/css">
.brush0 { fill: rgb(255,255,255); }
.pen0 { stroke: rgb(0,0,0); stroke-width: 1; stroke-linejoin: round; }
.brush1 { fill: none; }
.pen1 { stroke: none; }
.brush2 { fill: rgb(0,0,0); }
</style>
<g>
<polygon class="pen1 brush2" points="645,694 666,714 687,736 707,761 726,788 743,815 757,844 769,871 777,898 780,924 779,947 772,968 760,986 741,999 715,1008 681,1011 639,1009 617,1007 597,1004 578,1003 560,1002 541,1002 522,1003 502,1005 480,1008 467,1010 454,1011 441,1012 428,1013 414,1013 401,1011 388,1009 376,1006 364,1002 353,996 344,989 336,980 329,970 324,957 321,943 320,926 325,901 339,868 359,829 383,788 409,750 435,718 458,696 476,688 478,688 481,689 485,689 490,690 496,692 503,693 511,695 520,697 536,700 552,702 568,701 583,700 599,698 614,696 630,695 645,694 645,694"/>
<polygon class="pen1 brush2" points="196,438 206,441 218,444 232,447 246,450 262,454 278,458 294,463 311,468 326,473 341,480 354,487 366,495 375,504 383,514 387,525 389,537 390,553 391,567 394,579 398,591 403,602 409,613 417,626 425,640 429,653 429,668 425,685 418,703 408,723 395,743 379,763 363,783 344,803 326,821 306,838 287,853 269,865 252,874 236,880 222,882 191,876 168,861 152,839 140,811 132,780 126,749 121,719 116,693 106,667 92,637 76,606 62,574 52,542 49,510 58,482 80,456 94,446 108,440 122,436 136,433 150,433 165,434 180,436 196,438 196,438"/>
<polygon class="pen1 brush2" points="754,485 766,481 780,476 795,471 811,465 828,459 845,453 863,448 882,443 900,439 918,435 936,433 954,432 970,433 986,435 1001,439 1014,446 1030,468 1034,503 1030,547 1020,596 1006,648 992,697 979,740 971,773 964,803 954,827 944,847 931,862 918,872 903,878 888,881 872,880 855,875 838,868 821,858 804,846 787,832 771,816 755,798 740,780 713,745 692,720 678,700 671,684 669,668 674,650 685,626 702,595 707,581 710,564 712,546 714,528 718,511 725,498 737,488 754,485 754,485"/>
<polygon class="pen1 brush2" points="430,538 433,510 440,486 452,465 468,449 486,436 506,426 528,421 551,419 573,421 595,427 615,436 633,449 649,466 661,486 668,510 671,538 668,566 661,590 649,610 633,627 615,640 595,649 573,655 551,656 528,655 506,649 486,640 468,627 452,610 440,590 433,566 430,538 430,538"/>
<polygon class="pen1 brush2" points="541,206 542,227 544,252 546,278 546,303 544,328 538,349 527,365 509,376 485,385 465,395 450,406 438,416 429,426 421,436 415,444 409,452 402,458 394,462 384,465 371,465 355,462 334,456 307,447 275,435 251,425 228,414 206,403 186,391 168,379 153,365 141,352 132,338 127,323 125,308 129,292 137,275 150,259 169,241 194,223 225,205 240,197 254,189 267,181 278,174 288,167 297,161 304,155 310,150 330,131 350,114 371,99 391,85 411,75 430,67 448,63 465,61 481,64 496,70 509,81 520,96 529,115 535,140 540,170 541,206 541,206 541,206"/>
<polygon class="pen1 brush2" points="568,350 567,313 565,269 564,220 567,172 577,128 595,92 625,67 668,58 686,61 704,68 722,80 739,93 756,109 771,124 785,138 797,150 807,159 819,167 832,175 846,184 860,192 876,200 891,209 906,218 920,227 934,237 946,247 957,258 966,270 973,283 977,296 979,311 976,328 968,345 956,362 940,378 920,394 898,409 874,423 849,435 824,445 798,453 773,459 750,461 729,461 710,457 694,450 683,438 672,426 656,413 637,401 617,389 599,377 583,367 572,358 568,350 568,350 568,350"/>
</g>
</svg>
