<?xml version="1.0" encoding="UTF-8" standalone="no"?>
<!DOCTYPE svg PUBLIC "-//W3C//DTD SVG 1.0//EN" "http://www.w3.org/TR/2001/REC-SVG-20010904/DTD/svg10.dtd">
<svg xmlns="http://www.w3.org/2000/svg" xmlns:xlink="http://www.w3.org/1999/xlink" fill-rule="evenodd" height="1.0in" preserveAspectRatio="none" stroke-linecap="round" viewBox="0 0 744 1000" width="0.744in">
<style type="text/css">
.brush0 { fill: rgb(255,255,255); }
.pen0 { stroke: rgb(0,0,0); stroke-width: 1; stroke-linejoin: round; }
.brush1 { fill: none; }
.pen1 { stroke: none; }
.brush2 { fill: rgb(0,0,0); }
</style>
<g>
<polygon class="pen1 brush2" points="4,21 13,16 22,11 31,8 42,6 54,4 70,4 90,5 115,7 144,22 172,36 198,51 224,65 250,79 274,92 297,106 320,119 341,132 362,145 382,157 401,169 419,181 437,193 454,205 470,216 487,228 503,240 518,252 532,263 546,274 559,285 571,296 583,307 594,317 605,328 615,338 624,347 633,357 641,367 649,376 656,385 678,416 695,446 708,474 718,502 726,529 732,556 738,582 744,609 739,614 733,618 725,622 715,623 705,621 693,616 680,606 667,591 646,555 625,519 604,482 582,446 560,410 537,375 513,341 488,308 461,278 432,250 402,225 369,203 334,184 297,169 256,158 213,152 217,161 231,179 253,203 283,234 318,271 357,313 399,361 441,412 483,467 523,525 559,585 590,647 614,710 629,773 635,836 629,899 626,907 622,914 618,919 613,923 607,926 601,927 593,926 585,923 570,892 552,854 531,810 508,762 483,709 456,654 428,597 399,540 368,483 337,427 305,373 273,323 240,278 208,238 177,205 146,179 137,206 138,238 149,275 167,316 191,362 221,410 254,460 289,513 326,566 362,620 397,674 429,727 457,779 479,829 494,876 501,920 498,930 493,939 487,947 481,953 472,958 463,962 453,964 442,966 400,929 363,889 329,847 299,803 272,757 248,709 226,660 206,610 187,558 169,506 152,453 135,399 118,345 100,292 81,238 61,185 58,245 60,303 66,358 77,412 91,465 108,516 127,565 149,613 173,660 198,706 224,751 250,796 277,840 303,884 327,927 351,970 338,975 325,979 313,982 301,984 289,985 278,985 267,984 256,983 245,980 235,976 225,972 215,967 206,961 196,954 188,947 179,939 154,911 132,876 111,836 94,791 78,743 64,691 52,637 41,581 28,497 19,413 12,330 7,252 4,180 3,116 3,62 4,21"/>
</g>
</svg>
