<?xml version="1.0" encoding="UTF-8" standalone="no"?>
<!DOCTYPE svg PUBLIC "-//W3C//DTD SVG 1.0//EN" "http://www.w3.org/TR/2001/REC-SVG-20010904/DTD/svg10.dtd">
<svg xmlns="http://www.w3.org/2000/svg" xmlns:xlink="http://www.w3.org/1999/xlink" fill-rule="evenodd" height="0.671in" preserveAspectRatio="none" stroke-linecap="round" viewBox="0 0 671 671" width="0.671in">
<style type="text/css">
.brush0 { fill: rgb(255,255,255); }
.pen0 { stroke: rgb(0,0,0); stroke-width: 1; stroke-linejoin: round; }
.brush1 { fill: none; }
.pen1 { stroke: none; }
.brush2 { fill: rgb(0,0,0); }
</style>
<g>
<polygon class="pen1 brush2" points="336,671 302,669 268,664 236,656 205,645 176,631 148,614 122,594 98,573 77,549 57,523 40,496 26,466 15,436 7,404 2,370 0,336 2,302 7,268 15,236 26,205 40,176 57,148 77,123 98,99 122,77 148,58 176,41 205,26 236,15 268,7 302,2 336,0 370,2 403,7 435,15 466,26 495,41 523,58 549,77 573,99 594,123 614,148 630,176 645,205 656,236 664,268 669,302 671,336 669,370 664,404 656,436 645,466 630,496 614,523 594,549 573,573 549,594 523,614 495,631 466,645 435,656 403,664 370,669 336,671"/>
<polygon class="pen1 brush0" points="336,0 323,0 311,1 298,2 286,4 274,6 262,8 250,11 239,15 227,19 216,23 205,27 194,32 183,37 173,43 163,49 153,55 525,612 557,587 585,559 610,528 631,494 648,457 661,419 668,378 671,336 669,302 664,268 656,236 645,205 630,176 614,148 594,123 573,99 549,77 523,58 495,41 466,26 435,15 403,7 370,2 336,0"/>
<polygon class="pen1 brush0" points="336,0 323,0 311,1 298,2 286,4 274,6 262,8 250,11 239,15 227,19 216,23 205,27 194,32 183,37 173,43 163,49 153,55 525,612 557,587 585,559 610,528 631,494 648,457 661,419 668,378 671,336 669,302 664,268 656,236 645,205 630,176 614,148 594,123 573,99 549,77 523,58 495,41 466,26 435,15 403,7 370,2 336,0"/>
<polygon class="pen1 brush2" points="253,205 275,237 275,6 269,7 264,8 258,10 253,11 253,205"/>
<polygon class="pen1 brush2" points="323,310 345,343 345,1 343,1 341,0 338,0 336,0 333,0 330,0 327,1 323,1 323,310"/>
<polygon class="pen1 brush2" points="389,409 411,441 411,9 405,8 400,7 394,6 389,5 389,409"/>
<polygon class="pen1 brush2" points="476,539 498,571 498,43 493,40 487,37 482,34 476,32 476,539"/>
<polygon class="pen1 brush2" points="570,97 570,575 576,569 581,563 587,557 592,551 592,120 587,114 581,108 576,102 570,97"/>
<polygon class="pen1 brush2" points="639,478 645,464 651,449 656,434 661,419 661,254 656,238 651,223 645,208 639,193 639,478"/>
<polygon class="pen1 brush2" points="184,101 205,134 205,27 200,29 195,32 189,35 184,37 184,101"/>
</g>
</svg>
