<?xml version="1.0" encoding="UTF-8" standalone="no"?>
<!DOCTYPE svg PUBLIC "-//W3C//DTD SVG 1.0//EN" "http://www.w3.org/TR/2001/REC-SVG-20010904/DTD/svg10.dtd">
<svg xmlns="http://www.w3.org/2000/svg" xmlns:xlink="http://www.w3.org/1999/xlink" fill-rule="evenodd" height="0.564in" preserveAspectRatio="none" stroke-linecap="round" viewBox="0 0 561 564" width="0.561in">
<style type="text/css">
.brush0 { fill: rgb(255,255,255); }
.pen0 { stroke: rgb(0,0,0); stroke-width: 1; stroke-linejoin: round; }
.brush1 { fill: none; }
.pen1 { stroke: none; }
.brush2 { fill: rgb(0,0,0); }
</style>
<g>
<polygon class="pen1 brush2" points="86,552 71,536 57,518 44,501 33,482 22,463 14,444 6,424 0,404 0,564 99,564 95,561 92,558 89,555 86,552"/>
<polygon class="pen1 brush2" points="86,73 99,60 114,49 128,38 144,29 160,21 176,13 192,7 209,2 0,2 0,221 6,201 14,181 22,162 33,143 44,124 57,107 71,89 86,73"/>
<polygon class="pen1 brush2" points="348,2 365,7 381,13 397,21 413,29 429,38 443,49 458,60 471,73 500,108 520,146 532,187 536,229 532,271 520,312 500,351 471,386 458,398 443,408 428,417 412,424 396,430 379,434 363,436 346,437 328,436 312,434 295,430 279,424 263,417 248,408 233,398 220,386 201,363 188,338 180,311 177,283 180,255 188,228 201,203 220,180 229,172 238,165 248,159 259,154 270,150 281,148 292,146 303,145 314,146 325,148 336,150 347,154 358,159 368,165 377,172 386,180 398,195 407,212 413,230 415,248 413,267 407,285 398,302 386,317 374,327 360,334 345,339 330,340 315,339 300,334 286,327 274,317 260,295 255,270 260,246 274,224 283,217 292,212 302,209 313,208 323,209 333,212 342,217 351,224 361,239 365,256 361,274 351,289 347,292 343,294 339,296 334,297 329,298 324,297 320,297 315,295 308,291 302,285 299,278 298,271 299,267 301,263 305,261 309,260 313,261 316,263 318,267 319,271 319,272 321,273 322,274 323,275 326,276 330,276 333,275 336,274 341,266 343,256 341,247 336,239 331,235 325,232 319,230 313,229 307,230 301,232 295,235 290,239 280,254 277,270 280,287 290,302 299,309 309,314 319,317 330,318 341,317 352,314 362,309 371,302 387,277 393,248 387,220 371,195 356,183 339,174 321,169 303,167 285,169 267,174 250,183 235,195 219,215 208,236 201,259 199,283 201,306 208,329 219,351 235,370 247,381 260,390 273,398 287,404 301,409 316,413 331,415 346,416 360,415 375,413 390,409 404,404 418,398 431,390 444,381 456,370 482,339 500,305 511,268 515,230 511,192 500,155 482,120 457,89 435,73 414,60 393,49 372,41 352,34 331,30 312,27 292,27 273,29 254,32 235,38 217,46 198,55 180,66 163,79 145,94 128,112 111,133 96,157 84,185 74,214 67,246 64,280 66,315 68,328 71,342 74,357 79,371 85,387 92,402 101,418 111,435 123,451 136,467 152,484 169,500 188,516 209,533 233,548 259,564 561,564 561,2 348,2"/>
</g>
</svg>
