<?xml version="1.0" encoding="UTF-8" standalone="no"?>
<!DOCTYPE svg PUBLIC "-//W3C//DTD SVG 1.0//EN" "http://www.w3.org/TR/2001/REC-SVG-20010904/DTD/svg10.dtd">
<svg xmlns="http://www.w3.org/2000/svg" xmlns:xlink="http://www.w3.org/1999/xlink" fill-rule="evenodd" height="0.982in" preserveAspectRatio="none" stroke-linecap="round" viewBox="0 0 1001 982" width="1.001in">
<style type="text/css">
.brush0 { fill: rgb(255,255,255); }
.pen0 { stroke: rgb(0,0,0); stroke-width: 1; stroke-linejoin: round; }
.brush1 { fill: none; }
.pen1 { stroke: none; }
.brush2 { fill: rgb(0,0,0); }
</style>
<g>
<polygon class="pen1 brush2" points="985,198 993,227 993,278 991,329 988,364 975,383 963,402 951,421 939,440 928,460 916,479 905,498 894,518 883,537 872,556 861,576 849,595 838,614 826,633 814,651 801,670 815,661 828,650 841,639 854,628 866,615 878,602 890,589 901,575 912,562 923,548 935,534 946,520 957,507 969,494 980,481 992,469 991,498 989,522 985,543 978,562 968,579 954,594 936,610 913,625 910,627 905,630 899,633 892,638 883,643 873,649 861,656 848,664 833,673 817,682 800,693 781,704 761,716 739,729 716,743 692,758 711,757 730,755 750,752 769,748 788,743 807,737 826,730 845,723 863,715 882,706 900,697 918,688 935,679 952,669 969,659 985,650 982,672 975,692 963,708 947,722 928,734 907,744 883,752 858,758 833,763 807,767 781,770 757,772 734,774 713,776 695,778 680,781 667,784 653,789 637,794 619,801 599,808 578,816 555,826 530,836 548,844 566,852 585,861 603,869 621,877 639,885 657,894 675,903 693,911 711,921 728,930 746,940 763,950 780,960 797,971 814,982 795,981 777,980 761,977 746,974 732,969 719,964 707,958 695,951 683,944 671,937 659,929 647,920 634,912 619,903 604,894 587,885 570,876 555,869 542,863 530,858 520,855 511,852 502,851 494,851 486,853 477,856 468,859 457,864 445,871 432,878 417,886 399,896 383,905 368,914 354,922 342,930 330,938 319,945 308,951 297,957 286,963 275,968 263,972 251,975 237,978 222,980 206,982 188,982 205,971 222,960 239,949 257,939 274,930 292,920 309,911 327,902 345,894 363,885 381,877 399,869 417,860 435,852 454,844 472,836 458,830 445,825 432,819 420,814 408,810 397,806 386,802 375,798 366,795 356,791 347,789 339,786 331,784 324,783 317,781 311,780 296,778 279,777 258,775 236,773 212,770 187,767 162,762 138,757 114,750 91,742 71,732 52,720 37,706 26,690 19,671 16,650 32,659 49,669 66,678 83,688 101,697 120,706 138,714 157,722 176,730 195,737 214,743 233,748 252,752 271,755 290,757 309,758 285,741 261,725 235,711 210,697 184,684 160,671 135,658 113,644 91,630 71,614 54,596 38,576 26,554 17,529 11,501 9,469 21,481 33,494 45,507 56,521 67,534 78,548 89,562 101,575 112,589 123,602 135,615 147,627 160,639 173,650 187,660 201,670 188,651 176,632 164,613 153,594 141,575 130,556 119,536 107,517 96,498 85,478 73,459 62,440 50,421 38,402 26,383 13,364 11,330 8,278 9,228 16,198 33,234 47,271 58,308 67,346 76,383 87,421 101,458 118,494 117,452 113,410 108,369 103,328 97,286 92,245 88,204 87,162 167,36 161,67 157,99 156,130 156,162 145,186 137,210 131,232 128,255 125,277 124,301 123,325 123,351 139,318 155,283 171,247 187,210 202,173 216,137 227,101 237,66 398,0 381,15 367,33 354,51 342,70 331,88 320,104 307,118 294,129 274,143 255,159 238,175 222,193 207,213 194,233 182,254 171,275 162,298 154,321 147,344 142,368 138,391 136,415 135,439 135,463 144,439 152,416 159,395 167,374 174,355 182,337 190,319 199,303 209,287 221,272 234,258 249,244 266,231 285,219 307,206 332,194 321,219 308,243 293,266 277,288 259,309 242,330 224,351 208,372 192,393 179,416 168,439 159,463 154,489 153,516 157,545 165,577 169,587 173,597 179,607 185,617 192,627 200,637 209,648 219,658 206,614 199,573 199,534 206,498 221,464 245,433 277,404 319,378 318,387 314,396 309,406 303,416 297,427 291,438 286,450 283,462 276,493 265,522 253,550 241,578 233,605 232,633 240,663 260,694 267,702 275,710 284,717 294,724 304,730 315,736 327,741 339,746 316,713 302,679 295,646 298,616 310,592 333,577 366,572 411,582 415,590 387,602 365,615 350,631 341,647 337,665 338,683 343,702 352,720 364,738 379,756 397,772 416,786 437,799 458,810 480,818 501,823 522,818 544,810 565,799 586,786 605,771 622,755 638,738 650,720 659,702 664,683 665,665 661,647 652,631 636,615 615,602 586,590 593,581 601,574 612,570 623,568 635,568 648,571 660,576 673,583 684,591 694,601 702,613 708,627 711,641 712,658 709,675 702,693 699,697 696,703 692,708 688,715 682,722 676,729 670,737 662,746 705,727 737,704 757,677 767,648 768,617 761,584 746,550 725,517 723,498 721,481 718,465 715,449 710,434 703,419 694,403 683,387 683,378 724,403 756,431 779,462 794,496 802,533 802,572 796,614 783,658 799,640 812,622 824,603 833,584 841,565 846,545 849,525 850,505 848,484 844,464 837,443 827,424 816,404 803,385 789,366 774,347 759,328 743,309 728,290 714,271 700,252 688,233 677,214 669,194 694,207 717,220 736,233 753,246 768,260 781,273 792,288 802,303 811,318 819,335 826,353 834,372 841,392 849,414 857,438 866,463 866,439 865,415 863,391 859,368 854,344 847,321 840,298 830,275 820,254 808,233 795,213 780,193 764,175 746,159 727,143 707,129 693,118 681,104 670,87 659,69 647,51 635,33 621,15 604,0 765,66 774,96 785,126 797,154 810,182 824,210 837,238 849,267 859,296 864,313 869,328 873,340 878,351 878,325 877,301 876,277 874,255 870,232 864,210 856,186 845,162 845,129 845,98 842,67 835,36 914,162 913,204 909,245 905,286 899,328 893,369 889,410 885,452 884,494 902,458 915,422 926,384 935,347 944,309 955,272 968,234 985,198 985,198 985,198"/>
</g>
</svg>
