<?xml version="1.0" encoding="UTF-8" standalone="no"?>
<!DOCTYPE svg PUBLIC "-//W3C//DTD SVG 1.0//EN" "http://www.w3.org/TR/2001/REC-SVG-20010904/DTD/svg10.dtd">
<svg xmlns="http://www.w3.org/2000/svg" xmlns:xlink="http://www.w3.org/1999/xlink" fill-rule="evenodd" height="0.767in" preserveAspectRatio="none" stroke-linecap="round" viewBox="0 0 1005 767" width="1.005in">
<style type="text/css">
.brush0 { fill: rgb(255,255,255); }
.pen0 { stroke: rgb(0,0,0); stroke-width: 1; stroke-linejoin: round; }
.brush1 { fill: none; }
.pen1 { stroke: none; }
.brush2 { fill: rgb(0,0,0); }
</style>
<g>
<polygon class="pen1 brush2" points="43,753 31,662 22,570 14,477 9,384 5,291 2,197 0,103 0,9 23,9 47,8 70,8 94,8 117,8 141,8 165,8 189,7 213,7 237,7 261,6 285,6 310,5 334,3 358,2 383,0 354,13 325,27 297,41 270,56 243,71 217,88 192,105 169,123 147,142 126,162 107,183 90,205 75,228 62,252 51,277 43,304 38,332 35,362 35,393 39,425 45,459 56,495 69,532 87,571 96,588 107,605 120,621 134,636 150,651 167,665 185,678 204,690 223,702 244,713 264,723 286,733 307,742 328,750 350,757 371,764 351,764 331,764 311,764 291,764 270,764 249,764 229,764 208,764 187,763 166,763 145,762 125,761 104,759 84,757 63,755 43,753 43,753"/>
<polygon class="pen1 brush2" points="529,763 996,753 1005,34 983,34 960,34 938,33 916,33 893,33 870,32 848,32 825,32 802,32 779,32 757,32 734,33 711,33 689,34 666,35 644,37 622,39 600,41 578,44 556,47 534,50 513,54 492,59 471,64 450,70 429,77 409,84 389,92 370,100 350,110 332,120 313,131 267,162 228,197 197,235 172,277 155,320 145,364 142,408 146,452 157,493 175,532 201,567 233,598 273,624 319,643 373,655 434,659 462,658 490,655 516,650 541,643 566,635 589,625 612,613 633,601 653,587 672,571 690,555 707,537 723,519 737,500 750,480 762,459 770,447 777,433 783,417 787,401 790,383 791,366 789,348 784,330 775,314 763,298 746,283 724,270 697,259 664,250 625,244 580,241 555,243 528,248 500,256 472,267 445,280 419,296 396,313 376,332 360,352 349,373 344,394 345,415 354,435 371,456 398,475 434,493 451,493 469,491 487,489 505,485 522,480 537,474 551,467 562,459 562,441 556,427 546,416 535,406 525,396 517,384 515,368 519,347 536,338 552,330 568,325 583,320 598,318 611,317 624,318 637,321 648,325 659,331 669,339 677,349 685,360 692,374 697,389 702,406 667,459 628,501 585,533 541,554 495,567 450,571 405,568 363,557 324,541 289,518 260,491 237,459 222,424 215,386 218,346 232,304 253,267 282,234 316,205 356,181 399,160 446,144 495,132 544,125 594,122 643,125 690,132 735,145 775,163 811,186 841,215 864,249 875,272 882,298 887,326 887,356 884,389 876,424 864,461 848,501 836,522 819,543 798,565 774,587 748,609 720,630 692,650 663,670 636,688 609,705 586,720 565,734 548,745 536,754 529,760 529,763"/>
</g>
</svg>
