<?xml version="1.0" encoding="UTF-8" standalone="no"?>
<!DOCTYPE svg PUBLIC "-//W3C//DTD SVG 1.0//EN" "http://www.w3.org/TR/2001/REC-SVG-20010904/DTD/svg10.dtd">
<svg xmlns="http://www.w3.org/2000/svg" xmlns:xlink="http://www.w3.org/1999/xlink" fill-rule="evenodd" height="0.498in" preserveAspectRatio="none" stroke-linecap="round" viewBox="0 0 491 498" width="0.491in">
<style type="text/css">
.brush0 { fill: rgb(255,255,255); }
.pen0 { stroke: rgb(0,0,0); stroke-width: 1; stroke-linejoin: round; }
.brush1 { fill: none; }
.pen1 { stroke: none; }
.brush2 { fill: rgb(0,0,0); }
</style>
<g>
<polygon class="pen1 brush2" points="175,329 160,332 146,336 132,341 120,348 110,359 103,372 100,390 102,412 106,425 114,435 124,442 137,445 151,446 165,444 180,441 194,436 204,432 214,428 223,423 231,417 238,410 244,400 248,389 252,374 254,359 252,347 248,338 241,331 230,327 215,325 197,326 175,329 152,282 163,280 175,279 186,277 197,276 209,275 220,274 231,273 241,273 252,272 262,271 272,269 282,268 292,266 301,264 310,261 318,258 347,240 363,216 368,189 364,160 354,132 339,107 322,89 304,78 298,76 290,74 282,73 272,71 262,70 251,70 239,70 227,71 214,72 201,74 188,77 174,81 160,86 146,92 133,99 119,107 89,132 70,158 58,185 53,210 53,232 55,250 58,262 59,266 55,258 46,238 37,211 34,182 36,158 39,139 43,122 48,108 55,96 64,85 75,74 88,62 95,56 103,50 111,44 119,39 128,34 137,29 146,25 157,20 168,17 179,13 192,10 205,8 220,5 235,4 251,3 269,2 287,2 304,4 320,7 336,11 351,17 366,24 379,32 392,42 404,52 415,65 426,78 435,92 444,108 452,125 458,144 464,163 469,203 465,243 453,281 436,317 414,350 391,379 366,403 343,422 331,430 320,438 309,446 298,453 287,460 275,466 264,472 252,477 240,482 228,486 215,489 201,492 187,495 172,497 156,498 139,498 115,496 91,489 70,478 51,462 38,443 31,419 32,391 42,360 52,342 63,327 75,315 89,304 103,296 119,290 135,286 152,282 175,329"/>
<polygon class="pen1 brush2" points="142,253 144,252 149,251 158,248 168,246 181,244 194,242 208,242 221,243 236,244 252,244 270,242 288,239 304,234 319,228 330,221 337,212 283,216 284,214 287,208 292,200 297,190 304,180 310,170 317,163 323,158 321,158 314,160 305,162 294,165 283,169 272,174 264,181 258,189 257,177 257,149 258,117 264,94 262,97 257,107 249,121 241,138 232,157 225,175 220,193 219,208 218,204 214,195 208,181 202,165 194,148 187,132 179,119 173,111 175,224 174,221 170,214 164,205 155,195 142,186 126,180 106,178 83,183 86,185 93,191 104,199 115,209 126,221 136,232 141,243 142,253"/>
<polygon class="pen1 brush2" points="168,412 176,412 184,410 190,408 196,405 201,402 205,398 207,394 208,389 207,384 205,380 201,376 196,373 190,370 184,368 176,366 168,366 160,366 152,368 146,370 140,373 135,376 131,380 129,384 128,389 129,394 131,398 135,402 140,405 146,408 152,410 160,412 168,412"/>
</g>
</svg>
