<?xml version="1.0" encoding="UTF-8" standalone="no"?>
<!DOCTYPE svg PUBLIC "-//W3C//DTD SVG 1.0//EN" "http://www.w3.org/TR/2001/REC-SVG-20010904/DTD/svg10.dtd">
<svg xmlns="http://www.w3.org/2000/svg" xmlns:xlink="http://www.w3.org/1999/xlink" fill-rule="evenodd" height="0.694in" preserveAspectRatio="none" stroke-linecap="round" viewBox="0 0 461 694" width="0.461in">
<style type="text/css">
.brush0 { fill: rgb(255,255,255); }
.pen0 { stroke: rgb(0,0,0); stroke-width: 1; stroke-linejoin: round; }
.brush1 { fill: none; }
.pen1 { stroke: none; }
.brush2 { fill: rgb(0,0,0); }
</style>
<g>
<polygon class="pen1 brush2" points="461,694 461,1 229,1 229,694 461,694"/>
<polygon class="pen1 brush2" points="231,0 237,23 243,45 249,66 255,85 261,104 268,121 274,137 281,152 289,166 297,181 307,196 317,211 328,227 341,243 354,259 368,275 385,294 403,315 418,336 431,357 442,378 450,400 456,421 460,442 461,463 460,486 457,509 451,530 444,551 434,571 423,590 409,608 393,625 384,633 375,641 366,648 357,654 348,660 338,666 328,671 318,675 308,679 297,683 287,686 276,688 265,690 254,691 243,692 231,692 219,692 207,691 196,690 185,688 174,686 163,683 153,679 142,675 132,671 122,666 113,660 103,654 94,648 85,641 77,633 68,625 52,608 38,590 26,571 17,551 9,530 4,509 1,486 0,463 1,442 5,421 11,400 19,378 30,357 43,336 58,315 76,294 93,275 107,259 120,243 133,227 144,211 154,196 164,181 172,166 180,152 187,137 194,121 201,104 207,85 213,66 219,45 225,23 231,0"/>
<polygon class="pen1 brush0" points="231,232 236,254 242,274 249,292 256,307 260,314 264,321 268,328 273,335 278,343 284,351 290,359 297,367 306,376 315,386 322,397 329,407 334,418 338,428 341,439 342,449 343,459 342,470 341,481 338,492 335,502 330,512 324,521 318,530 310,538 301,546 292,552 283,558 274,563 264,566 253,569 242,570 231,571 220,570 209,569 198,566 188,563 178,558 168,552 159,546 151,538 143,530 136,521 131,512 126,502 122,492 119,481 118,470 117,459 118,449 119,439 122,428 127,418 132,407 139,397 146,386 155,376 163,367 170,359 176,351 183,343 188,335 193,328 198,321 202,314 206,307 213,292 219,274 225,254 231,232"/>
<polygon class="pen1 brush0" points="461,456 459,436 455,415 449,395 440,375 430,355 417,334 402,314 385,294 368,275 354,259 341,243 328,227 317,211 307,196 297,181 289,166 281,152 274,137 268,121 261,104 255,86 249,66 243,46 237,24 231,1 231,1 231,692 243,692 254,691 265,690 276,688 287,686 297,683 308,679 318,675 328,671 338,666 348,660 357,654 366,648 375,641 384,633 393,625 408,608 421,591 433,573 442,554 450,535 456,515 459,494 461,472 461,456"/>
<polygon class="pen1 brush2" points="231,571 231,571 231,571 231,571 231,571 242,570 253,569 264,566 274,563 283,558 292,552 301,546 310,538 318,530 324,521 330,512 335,502 338,492 341,481 342,470 343,459 342,449 341,439 338,428 334,418 329,407 322,397 315,386 306,376 297,367 290,359 284,351 278,343 273,335 268,328 264,321 260,314 256,307 249,292 242,274 236,254 231,232 231,232 231,232 231,232 231,233 231,571"/>
</g>
</svg>
