<?xml version="1.0" encoding="UTF-8" standalone="no"?>
<!DOCTYPE svg PUBLIC "-//W3C//DTD SVG 1.0//EN" "http://www.w3.org/TR/2001/REC-SVG-20010904/DTD/svg10.dtd">
<svg xmlns="http://www.w3.org/2000/svg" xmlns:xlink="http://www.w3.org/1999/xlink" fill-rule="evenodd" height="0.752in" preserveAspectRatio="none" stroke-linecap="round" viewBox="0 0 730 752" width="0.73in">
<style type="text/css">
.brush0 { fill: rgb(255,255,255); }
.pen0 { stroke: rgb(0,0,0); stroke-width: 1; stroke-linejoin: round; }
.brush1 { fill: none; }
.pen1 { stroke: none; }
.brush2 { fill: rgb(0,0,0); }
</style>
<g>
<polygon class="pen1 brush2" points="715,391 644,391 640,364 634,339 627,314 619,291 609,269 599,248 587,229 574,210 560,193 546,178 530,164 513,151 495,140 476,130 456,122 435,115 426,113 416,110 407,109 398,107 389,106 380,106 371,105 362,105 362,15 361,9 358,4 353,1 347,0 341,1 337,4 334,9 333,15 333,108 315,111 297,116 279,122 262,129 246,137 231,147 216,158 202,170 188,184 176,198 164,214 153,230 144,248 135,267 127,286 121,307 117,328 114,349 114,370 115,391 15,391 9,392 5,395 1,400 0,406 1,412 5,416 9,420 15,421 121,421 130,448 142,473 158,497 177,519 198,538 222,555 249,568 278,578 285,580 292,581 299,582 306,583 312,584 319,584 326,584 333,584 333,737 334,743 337,747 341,751 347,752 353,751 358,747 361,743 362,737 362,581 385,574 407,564 428,552 447,536 464,519 478,498 490,476 498,452 500,444 502,436 503,429 503,421 715,421 721,420 726,416 729,412 730,406 729,400 726,395 721,392 715,391"/>
<polygon class="pen1 brush0" points="427,143 446,149 463,156 480,165 496,175 511,187 526,199 539,214 551,229 563,245 573,263 583,282 591,301 598,322 605,344 610,367 614,391 502,391 497,370 490,351 479,333 467,316 452,301 435,289 416,278 395,271 391,270 387,269 383,268 379,268 374,267 370,267 366,267 362,267 362,135 370,135 378,135 387,136 395,136 403,138 411,139 419,141 427,143"/>
<polygon class="pen1 brush0" points="276,364 280,353 284,343 290,334 297,325 305,318 314,312 323,306 333,302 333,338 327,341 322,344 317,348 312,353 308,358 304,363 301,369 299,376 298,380 299,384 300,388 303,391 274,391 273,384 274,377 274,371 276,364"/>
<polygon class="pen1 brush0" points="327,384 328,381 329,379 331,376 333,374 333,391 323,391 324,389 325,388 326,386 327,384 327,384"/>
<polygon class="pen1 brush0" points="333,421 333,451 331,451 329,451 327,451 325,450 319,448 313,445 307,442 302,439 297,435 293,431 289,426 285,421 333,421"/>
<polygon class="pen1 brush0" points="362,421 387,421 383,429 377,436 370,442 362,447 362,421"/>
<polygon class="pen1 brush0" points="362,391 362,364 362,364 362,364 362,364 362,364 372,368 380,374 386,382 390,391 362,391"/>
<polygon class="pen1 brush0" points="419,391 417,381 413,372 409,364 403,356 396,349 388,343 380,339 370,335 368,335 366,334 364,334 362,334 362,296 369,296 375,297 381,298 388,299 404,305 418,313 432,322 443,334 453,346 461,360 468,375 472,391 419,391"/>
<polygon class="pen1 brush0" points="150,314 156,296 162,278 170,262 178,246 187,231 197,217 208,205 219,193 232,182 244,172 258,164 272,156 286,150 302,144 317,140 333,137 333,271 318,276 304,283 291,291 279,301 269,313 260,326 252,340 247,356 245,365 244,374 244,383 244,391 145,391 143,372 143,353 146,333 150,314"/>
<polygon class="pen1 brush0" points="285,550 261,542 239,531 219,517 200,501 184,483 171,464 160,443 151,421 251,421 256,431 262,440 269,449 277,457 286,464 295,470 306,475 317,479 321,480 325,480 329,480 333,480 333,555 327,555 321,555 315,555 309,554 303,554 297,553 291,551 285,550"/>
<polygon class="pen1 brush0" points="470,444 463,464 454,482 442,498 429,512 414,525 398,536 380,544 362,550 362,478 372,474 381,470 389,464 397,457 404,449 410,441 414,431 418,421 474,421 473,426 472,432 471,438 470,444"/>
</g>
</svg>
