<?xml version="1.0" encoding="UTF-8" standalone="no"?>
<!DOCTYPE svg PUBLIC "-//W3C//DTD SVG 1.0//EN" "http://www.w3.org/TR/2001/REC-SVG-20010904/DTD/svg10.dtd">
<svg xmlns="http://www.w3.org/2000/svg" xmlns:xlink="http://www.w3.org/1999/xlink" fill-rule="evenodd" height="0.501in" preserveAspectRatio="none" stroke-linecap="round" viewBox="0 0 501 501" width="0.501in">
<style type="text/css">
.brush0 { fill: rgb(255,255,255); }
.pen0 { stroke: rgb(0,0,0); stroke-width: 1; stroke-linejoin: round; }
.brush1 { fill: none; }
.pen1 { stroke: none; }
.brush2 { fill: rgb(0,0,0); }
</style>
<g>
<polygon class="pen1 brush2" points="501,0 501,501 1,501 1,0 501,0"/>
<polygon class="pen1 brush0" points="247,386 234,385 221,383 209,380 198,376 187,370 176,364 166,356 156,347 147,337 139,326 133,315 127,303 123,290 120,278 118,264 117,251 118,238 120,225 123,212 127,200 133,188 139,177 147,166 156,156 166,147 177,139 188,133 200,127 212,123 225,120 238,118 251,117 264,118 278,120 290,123 303,127 315,133 326,139 337,147 347,156 356,166 364,177 370,188 376,200 380,212 383,225 385,238 386,251 383,278 375,304 362,327 344,347 324,363 300,375 274,383 247,386 256,420 273,419 288,417 304,413 318,407 332,400 346,392 359,382 371,371 382,359 392,345 400,331 407,316 413,300 417,284 419,268 420,251 419,234 417,218 413,202 407,187 400,172 392,158 382,144 371,132 359,121 345,111 331,102 316,95 300,90 284,86 268,84 251,83 234,84 217,86 201,91 186,96 171,103 157,112 144,121 132,132 121,144 112,157 103,171 96,186 91,201 86,217 84,234 83,251 84,268 86,284 90,300 96,316 102,331 111,345 121,359 132,371 145,382 159,392 173,400 189,407 205,413 222,417 239,419 256,420 247,386"/>
<polygon class="pen1 brush0" points="251,274 246,273 242,272 238,270 234,267 231,263 230,259 228,255 228,250 228,246 230,241 231,237 234,234 238,231 242,229 246,228 251,227 255,228 260,229 264,231 267,234 270,237 272,241 273,246 274,250 272,259 267,267 260,272 251,274 251,308 257,308 262,307 267,306 273,304 277,301 282,298 287,295 291,291 298,282 304,272 307,262 308,250 307,239 304,228 298,219 291,210 287,206 282,203 277,200 273,197 267,195 262,194 257,193 251,193 239,194 229,198 219,203 211,210 204,218 198,228 195,239 194,250 195,262 198,272 203,282 210,291 214,295 219,298 224,301 229,304 234,306 239,307 245,308 251,308 251,274"/>
<polygon class="pen1 brush0" points="345,368 477,500 501,501 501,475 374,348 345,368"/>
<polygon class="pen1 brush0" points="158,132 27,0 1,0 0,23 134,156 158,132"/>
<polygon class="pen1 brush0" points="132,346 0,477 1,501 25,500 154,371 132,346"/>
<polygon class="pen1 brush0" points="371,155 501,25 501,0 476,0 347,130 371,155"/>
<polygon class="pen1 brush0" points="401,266 501,266 501,231 401,232 401,266"/>
<polygon class="pen1 brush0" points="232,0 233,103 267,103 267,0 232,0"/>
<polygon class="pen1 brush0" points="98,232 0,232 0,266 98,266 98,232"/>
<polygon class="pen1 brush0" points="233,407 233,500 267,500 267,407 233,407"/>
</g>
</svg>
