<?xml version="1.0" encoding="UTF-8" standalone="no"?>
<!DOCTYPE svg PUBLIC "-//W3C//DTD SVG 1.0//EN" "http://www.w3.org/TR/2001/REC-SVG-20010904/DTD/svg10.dtd">
<svg xmlns="http://www.w3.org/2000/svg" xmlns:xlink="http://www.w3.org/1999/xlink" fill-rule="evenodd" height="0.41in" preserveAspectRatio="none" stroke-linecap="round" viewBox="0 0 707 410" width="0.707in">
<style type="text/css">
.brush0 { fill: rgb(255,255,255); }
.pen0 { stroke: rgb(0,0,0); stroke-width: 1; stroke-linejoin: round; }
.brush1 { fill: none; }
.pen1 { stroke: none; }
.brush2 { fill: rgb(0,0,0); }
</style>
<g>
<polygon class="pen1 brush2" points="707,410 707,0 0,0 0,410 707,410"/>
<polygon class="pen1 brush0" points="214,336 210,336 205,336 201,335 198,334 195,333 193,333 189,333 185,334 181,333 178,331 175,329 171,328 167,328 164,328 160,327 156,325 151,323 145,322 139,320 134,319 130,318 127,315 123,314 117,314 113,315 109,316 105,317 102,318 98,320 94,321 90,322 87,323 83,324 79,325 75,327 71,329 66,331 63,333 59,334 57,336 59,338 63,339 68,341 73,344 79,347 86,349 92,351 96,352 97,351 98,350 100,349 103,349 106,350 110,352 115,353 119,353 123,352 127,351 130,351 133,351 136,352 140,353 144,354 149,353 154,352 157,351 160,350 162,349 166,347 173,345 179,343 184,342 187,342 191,342 196,342 202,342 207,341 212,340 214,338 214,336"/>
<polygon class="pen1 brush0" points="227,287 224,284 221,282 218,280 215,279 213,279 212,278 212,275 209,271 205,267 203,262 200,259 197,256 194,253 192,250 190,249 187,249 185,250 181,251 177,252 173,252 168,253 163,254 159,255 155,256 157,261 160,269 164,275 167,279 171,281 176,283 182,285 187,288 190,290 194,290 198,289 202,288 206,287 211,286 215,286 219,288 223,290 226,290 228,289 227,287"/>
<polygon class="pen1 brush0" points="251,241 249,240 246,238 242,235 237,232 231,228 226,225 221,222 217,218 213,215 208,212 204,211 201,210 198,209 194,206 190,202 188,199 186,197 184,195 181,194 178,192 174,190 169,185 165,179 162,174 159,169 156,164 153,160 151,155 149,149 145,142 142,135 142,130 147,131 152,133 156,134 159,136 163,138 169,142 175,145 181,147 187,149 193,152 198,154 201,157 202,161 204,165 206,169 208,172 211,175 214,180 217,185 219,189 219,191 220,194 222,198 224,202 227,207 230,211 231,215 233,218 238,223 245,230 251,237 251,241"/>
<polygon class="pen1 brush0" points="268,142 265,147 263,153 261,160 261,167 263,172 266,178 268,183 269,188 269,192 271,194 274,196 278,198 283,201 287,204 291,208 293,211 295,213 297,213 298,211 297,207 296,203 296,198 297,194 297,190 297,187 297,184 298,181 299,177 300,167 297,161 293,157 289,154 284,151 279,148 273,145 268,142"/>
<polygon class="pen1 brush0" points="348,43 344,49 339,59 335,69 333,76 333,82 333,90 333,99 331,105 330,111 331,119 331,128 331,134 331,139 333,144 335,149 336,153 337,158 340,164 341,170 341,174 342,179 344,186 346,194 347,199 348,194 349,186 350,177 350,171 349,166 349,159 349,152 350,146 354,161 356,155 358,148 360,143 361,138 362,132 365,124 367,117 369,111 370,107 370,103 369,99 367,97 366,89 364,82 362,74 359,68 356,61 354,54 351,48 348,43"/>
<polygon class="pen1 brush0" points="426,140 420,143 415,145 411,149 406,154 403,160 401,165 401,169 399,171 397,174 396,179 396,185 396,191 396,197 396,204 396,209 397,214 400,210 403,204 407,199 409,192 414,195 417,192 419,190 422,189 424,188 428,187 432,185 435,182 436,179 434,174 433,167 432,160 432,155 432,151 430,147 428,144 426,140"/>
<polygon class="pen1 brush0" points="554,128 548,130 540,133 532,137 526,138 520,140 514,144 508,149 504,153 500,158 494,163 489,168 486,172 483,174 479,176 475,178 473,183 472,189 469,195 465,201 463,207 459,214 452,223 446,231 443,237 449,235 455,232 460,228 463,224 465,220 468,218 471,217 474,216 477,213 482,209 486,206 492,205 499,205 506,202 512,199 515,196 517,194 520,192 524,190 527,187 529,183 532,176 538,167 543,157 548,148 552,139 555,132 554,128"/>
<polygon class="pen1 brush0" points="468,283 472,279 476,274 479,269 484,267 488,265 491,261 493,257 496,255 501,253 509,250 517,248 524,248 531,249 537,250 542,252 542,254 539,259 535,266 531,274 528,279 527,283 525,286 523,287 520,287 517,286 513,285 510,285 506,284 501,283 495,282 489,281 487,281 493,277 489,277 483,278 476,280 468,283"/>
<polygon class="pen1 brush0" points="487,331 493,331 501,329 508,328 515,327 521,325 528,322 535,320 541,319 545,318 550,317 554,316 559,316 562,316 565,317 570,317 574,317 579,317 584,317 590,316 596,316 606,317 614,320 620,323 625,325 630,327 636,329 640,332 641,333 637,334 629,337 622,341 617,343 615,344 611,346 607,348 602,350 597,352 592,354 588,355 585,356 580,356 575,355 571,354 568,352 563,350 556,348 548,346 542,344 536,341 529,338 522,336 514,335 506,335 497,336 490,335 487,331"/>
<polygon class="pen1 brush0" points="437,307 435,298 429,288 423,279 418,272 414,267 410,261 405,257 399,254 392,251 384,247 377,244 372,242 370,241 367,240 363,239 360,237 355,236 351,235 346,235 341,235 336,236 330,237 324,237 318,238 313,239 307,240 302,242 298,243 294,245 289,247 284,250 279,253 274,257 269,260 266,264 263,268 259,275 256,281 252,286 247,291 242,299 238,309 235,319 235,327 235,334 236,342 236,349 236,355 240,355 244,355 249,355 255,355 260,355 266,355 272,354 277,354 283,353 291,353 300,352 310,352 319,352 328,352 336,353 341,354 347,355 356,355 366,354 377,353 387,352 397,351 404,351 409,350 414,349 416,347 412,345 401,345 398,345 393,345 388,344 381,343 375,343 369,342 364,341 361,341 358,341 354,340 350,339 345,338 340,336 335,335 330,334 326,333 321,332 314,331 306,330 299,329 291,328 284,327 279,326 275,326 276,318 278,310 280,303 284,296 289,289 295,282 301,277 306,274 313,271 319,268 324,264 327,260 330,259 334,258 339,257 344,255 349,254 354,253 358,252 361,252 364,253 368,253 373,254 378,256 383,257 387,258 390,260 392,261 395,263 401,267 407,271 412,273 415,277 421,284 428,295 437,307"/>
</g>
</svg>
