<?xml version="1.0" encoding="UTF-8" standalone="no"?>
<!DOCTYPE svg PUBLIC "-//W3C//DTD SVG 1.0//EN" "http://www.w3.org/TR/2001/REC-SVG-20010904/DTD/svg10.dtd">
<svg xmlns="http://www.w3.org/2000/svg" xmlns:xlink="http://www.w3.org/1999/xlink" fill-rule="evenodd" height="1.016in" preserveAspectRatio="none" stroke-linecap="round" viewBox="0 0 493 1016" width="0.493in">
<style type="text/css">
.brush0 { fill: rgb(255,255,255); }
.pen0 { stroke: rgb(0,0,0); stroke-width: 1; stroke-linejoin: round; }
.brush1 { fill: none; }
.pen1 { stroke: none; }
.brush2 { fill: rgb(0,0,0); }
</style>
<g>
<polygon class="pen1 brush2" points="451,977 451,89 118,89 118,977 451,977"/>
<polygon class="pen1 brush0" points="200,429 198,433 192,445 184,464 174,489 165,520 156,556 149,595 145,638 146,684 152,732 164,781 184,830 213,879 252,926 301,972 363,1016 356,1009 339,990 314,961 285,926 256,888 231,849 213,813 206,782 207,784 212,790 218,799 227,810 238,824 250,839 263,855 277,871 291,888 306,903 320,918 335,930 348,941 361,949 372,953 381,953 378,951 370,944 358,932 343,916 326,897 307,874 287,847 268,817 250,785 235,749 222,711 213,671 209,629 211,585 219,540 235,494 240,485 248,475 259,463 272,450 287,435 303,418 321,401 340,382 360,361 380,340 400,317 420,293 439,268 457,241 474,214 489,186 488,187 484,192 477,200 468,211 456,224 443,240 428,257 411,275 393,293 375,311 356,329 336,346 317,361 298,374 280,385 262,392 260,389 254,379 248,361 244,334 244,297 251,249 269,188 298,115 294,119 282,133 267,154 249,184 233,222 220,267 213,319 216,378 215,394 209,411 203,424 200,429"/>
<polygon class="pen1 brush2" points="200,429 198,433 192,445 184,464 174,489 165,520 156,556 149,595 145,638 146,684 152,732 164,781 184,830 213,879 252,926 301,972 363,1016 356,1009 339,990 314,961 285,926 256,888 231,849 213,813 206,782 207,784 212,790 218,799 227,810 238,824 250,839 263,855 277,871 291,888 306,903 320,918 335,930 348,941 361,949 372,953 381,953 378,951 370,944 358,932 343,916 326,897 307,874 287,847 268,817 250,785 235,749 222,711 213,671 209,629 211,585 219,540 235,494 240,485 248,475 259,463 272,450 287,435 303,418 321,401 340,382 360,361 380,340 400,317 420,293 439,268 457,241 474,214 489,186 488,187 484,192 477,200 468,211 456,224 443,240 428,257 411,275 393,293 375,311 356,329 336,346 317,361 298,374 280,385 262,392 260,389 254,379 248,361 244,334 244,297 251,249 269,188 298,115 294,119 282,133 267,154 249,184 233,222 220,267 213,319 216,378 215,394 209,411 203,424 200,429"/>
<polygon class="pen1 brush0" points="451,251 451,231 442,241 432,253 421,264 410,276 398,288 386,300 374,312 361,324 348,336 336,347 323,357 310,366 298,374 285,382 273,387 262,392 260,389 254,379 248,361 244,334 244,297 251,249 269,188 298,115 294,119 282,133 267,154 249,184 233,222 220,267 213,319 216,378 215,394 209,411 203,424 200,429 198,433 193,443 185,460 177,483 167,511 159,543 151,579 147,619 145,661 148,705 156,750 170,796 191,843 221,889 259,934 307,977 327,977 309,956 289,932 269,906 250,879 233,852 219,826 210,803 206,782 207,784 211,789 218,797 226,807 236,820 248,833 261,848 274,864 289,879 303,894 318,909 332,922 346,934 359,943 371,949 381,953 378,951 370,944 358,932 343,916 326,897 307,874 287,847 268,817 250,785 235,749 222,711 213,671 209,629 211,585 219,540 235,494 239,487 245,478 253,468 264,458 275,446 288,433 303,419 318,404 334,388 351,371 368,353 385,335 402,315 419,294 435,273 451,251"/>
<polygon class="pen1 brush0" points="284,336 281,332 281,326 282,317 286,305 291,292 297,278 306,263 315,247 325,232 336,218 346,206 355,196 364,188 372,183 378,180 383,181 386,185 386,192 385,201 381,212 376,225 369,239 361,254 351,270 341,285 330,299 320,312 311,322 302,330 294,335 288,337 284,336"/>
<polygon class="pen1 brush2" points="420,96 484,65 440,54 449,0 408,46 346,27 381,81 331,133 377,113 421,171 420,96"/>
<polygon class="pen1 brush0" points="373,89 331,133 377,113 421,171 420,96 434,89 373,89"/>
</g>
</svg>
