<?xml version="1.0" encoding="UTF-8" standalone="no"?>
<!DOCTYPE svg PUBLIC "-//W3C//DTD SVG 1.0//EN" "http://www.w3.org/TR/2001/REC-SVG-20010904/DTD/svg10.dtd">
<svg xmlns="http://www.w3.org/2000/svg" xmlns:xlink="http://www.w3.org/1999/xlink" fill-rule="evenodd" height="0.576in" preserveAspectRatio="none" stroke-linecap="round" viewBox="0 0 381 576" width="0.381in">
<style type="text/css">
.brush0 { fill: rgb(255,255,255); }
.pen0 { stroke: rgb(0,0,0); stroke-width: 1; stroke-linejoin: round; }
.brush1 { fill: none; }
.pen1 { stroke: none; }
.brush2 { fill: rgb(0,0,0); }
</style>
<g>
<polygon class="pen1 brush2" points="66,182 79,181 92,182 106,183 118,185 131,187 144,191 156,196 168,201 179,207 191,214 201,221 212,230 222,239 231,248 240,259 248,270 268,297 287,320 304,339 321,354 336,367 351,377 366,384 381,388 381,0 0,0 0,200 8,196 15,193 23,190 32,188 40,186 48,184 57,183 66,182"/>
<polygon class="pen1 brush2" points="218,377 231,394 243,410 254,424 265,436 276,448 286,457 296,466 306,473 315,480 324,485 334,489 343,493 352,495 362,497 371,498 381,498 381,429 370,427 360,424 349,420 339,416 329,411 319,405 309,398 299,390 289,381 279,372 269,361 259,350 249,338 238,324 227,310 216,294 202,277 186,262 169,249 150,239 131,231 111,226 90,224 69,224 60,225 50,227 41,229 33,231 24,235 16,239 8,243 0,248 0,296 4,295 8,294 13,293 17,292 22,291 26,290 31,289 35,289 48,288 61,289 75,290 88,292 100,294 113,298 125,303 137,308 149,314 160,321 171,328 181,337 191,346 201,355 210,366 218,377"/>
<polygon class="pen1 brush2" points="130,505 117,489 103,475 88,463 72,453 55,445 37,439 19,436 0,434 0,576 187,576 180,569 173,561 166,553 159,544 152,535 145,525 137,515 130,505"/>
<polygon class="pen1 brush2" points="185,400 171,383 155,368 138,356 119,346 100,338 80,333 59,331 38,331 33,331 28,332 23,333 19,334 14,335 9,336 5,338 0,339 0,392 12,393 24,394 35,396 47,398 58,402 69,406 80,410 91,416 101,422 111,428 121,435 131,443 139,452 148,460 156,470 164,480 176,497 188,512 199,526 209,538 220,550 229,560 239,568 248,576 381,576 381,540 368,539 355,538 342,535 330,532 317,527 306,522 294,515 282,507 271,499 259,488 247,477 235,464 223,450 211,435 198,418 185,400"/>
</g>
</svg>
