<?xml version="1.0" encoding="UTF-8" standalone="no"?>
<!DOCTYPE svg PUBLIC "-//W3C//DTD SVG 1.0//EN" "http://www.w3.org/TR/2001/REC-SVG-20010904/DTD/svg10.dtd">
<svg xmlns="http://www.w3.org/2000/svg" xmlns:xlink="http://www.w3.org/1999/xlink" fill-rule="evenodd" height="0.498in" preserveAspectRatio="none" stroke-linecap="round" viewBox="0 0 287 498" width="0.287in">
<style type="text/css">
.brush0 { fill: rgb(255,255,255); }
.pen0 { stroke: rgb(0,0,0); stroke-width: 1; stroke-linejoin: round; }
.brush1 { fill: none; }
.pen1 { stroke: none; }
.brush2 { fill: rgb(0,0,0); }
</style>
<g>
<polygon class="pen1 brush2" points="27,104 132,156 134,157 139,159 147,164 156,171 166,180 175,191 182,205 187,222 191,246 192,265 191,280 188,292 184,303 180,314 174,326 168,340 171,341 180,338 188,335 192,333 202,313 208,284 210,252 206,221 202,204 196,190 190,177 184,166 178,158 174,152 170,148 169,147 180,145 196,140 214,134 234,127 252,120 268,114 281,109 287,106 283,106 273,106 258,106 240,106 222,106 206,107 193,107 186,108 189,106 199,100 212,92 227,82 241,72 254,63 264,56 267,52 263,53 252,56 236,60 218,64 200,69 183,74 171,78 166,81 167,78 171,70 175,59 181,45 186,31 190,18 193,7 193,0 191,3 184,12 175,24 165,38 155,53 146,67 139,77 137,83 135,81 131,74 124,65 116,55 108,45 99,35 92,28 87,25 90,38 96,66 104,97 110,116 107,115 98,114 86,112 72,109 57,107 43,105 33,104 27,104"/>
<polygon class="pen1 brush0" points="143,141 151,139 159,135 166,129 168,123 165,116 158,110 150,105 142,103 135,106 129,113 125,121 124,128 126,134 130,138 136,141 143,141"/>
<polygon class="pen1 brush2" points="147,131 151,130 154,127 156,125 156,121 155,118 153,115 149,114 145,113 141,114 138,116 136,119 135,123 136,126 139,129 143,130 147,131"/>
<polygon class="pen1 brush2" points="260,395 156,344 154,343 149,340 141,336 132,329 122,320 113,309 106,295 101,278 97,254 96,235 97,220 100,208 104,197 108,186 114,174 120,160 117,159 108,162 100,165 96,167 86,187 79,215 77,248 81,279 86,295 91,310 97,323 104,333 110,342 114,348 118,352 119,353 108,355 92,359 74,365 54,372 35,379 19,385 7,390 0,392 4,392 15,392 30,392 47,392 65,392 82,392 95,391 102,390 99,392 89,398 76,406 61,416 46,426 33,435 24,442 20,446 24,445 35,442 51,438 70,434 88,429 104,424 116,421 122,418 121,421 117,429 113,440 107,453 102,467 98,480 95,491 95,498 97,495 104,486 113,474 123,460 133,445 142,432 149,422 151,416 153,418 157,424 164,433 172,443 180,454 189,463 196,470 201,473 198,460 192,432 184,401 178,383 181,384 190,385 202,387 216,390 231,392 244,394 254,395 260,395"/>
<polygon class="pen1 brush0" points="145,358 137,360 129,364 122,370 120,376 123,382 130,389 139,394 147,396 154,393 159,386 163,377 164,370 162,365 158,361 152,358 145,358"/>
<polygon class="pen1 brush2" points="142,368 138,369 134,371 132,374 132,378 133,381 136,383 139,385 143,385 147,384 150,382 152,379 153,375 152,372 149,370 146,368 142,368"/>
</g>
</svg>
