<?xml version="1.0" encoding="UTF-8" standalone="no"?>
<!DOCTYPE svg PUBLIC "-//W3C//DTD SVG 1.0//EN" "http://www.w3.org/TR/2001/REC-SVG-20010904/DTD/svg10.dtd">
<svg xmlns="http://www.w3.org/2000/svg" xmlns:xlink="http://www.w3.org/1999/xlink" fill-rule="evenodd" height="0.505in" preserveAspectRatio="none" stroke-linecap="round" viewBox="0 0 504 505" width="0.504in">
<style type="text/css">
.brush0 { fill: rgb(255,255,255); }
.pen0 { stroke: rgb(0,0,0); stroke-width: 1; stroke-linejoin: round; }
.brush1 { fill: none; }
.pen1 { stroke: none; }
.brush2 { fill: rgb(0,0,0); }
</style>
<g>
<polygon class="pen1 brush2" points="252,505 278,504 303,500 327,494 350,485 372,475 393,462 412,447 430,431 446,413 461,394 474,373 484,351 493,328 499,304 503,279 504,253 503,227 499,202 493,178 484,155 474,133 461,112 446,92 430,74 412,58 393,43 372,31 350,20 327,11 303,5 278,1 252,0 226,1 201,5 177,11 154,20 132,31 111,43 92,58 74,74 58,92 43,112 30,133 20,155 11,178 5,202 1,227 0,253 1,279 5,304 11,328 20,351 30,373 43,394 58,413 74,431 92,447 111,462 132,475 154,485 177,494 201,500 226,504 252,505"/>
<polygon class="pen1 brush0" points="179,152 175,155 168,162 162,172 159,184 160,193 164,201 170,209 179,216 182,219 185,222 186,225 187,229 186,234 185,239 182,244 178,248 170,256 164,264 161,273 160,282 162,290 165,297 171,304 179,310 182,313 185,318 188,323 188,329 188,331 187,333 185,337 180,340 171,347 163,355 159,363 158,373 159,380 162,388 169,397 180,404 190,386 186,384 182,381 179,377 178,373 179,369 181,365 185,360 190,357 199,351 205,344 208,337 209,330 207,319 203,309 197,300 190,294 187,291 184,288 181,285 180,281 181,277 183,272 186,268 191,263 198,256 204,247 207,238 208,228 206,220 203,212 197,205 190,199 186,196 183,193 180,189 179,185 180,180 183,175 187,171 190,169 179,152"/>
<polygon class="pen1 brush0" points="225,152 221,155 214,162 208,172 205,184 206,193 210,201 216,209 225,216 228,219 231,222 232,225 233,229 233,234 231,239 228,244 224,248 216,256 211,264 207,273 206,282 208,290 211,297 217,304 225,310 228,313 232,318 234,323 235,329 235,331 234,333 231,337 226,340 217,347 210,355 205,363 204,373 205,380 208,388 215,397 226,404 236,386 232,384 228,381 225,377 224,373 225,369 227,365 231,360 236,357 245,351 251,344 254,337 255,330 254,319 250,309 244,300 237,294 233,291 230,288 228,285 227,281 227,277 229,272 233,268 238,263 245,256 250,247 253,238 254,228 252,220 249,212 244,205 237,199 233,196 229,193 226,189 225,185 226,180 230,175 233,171 236,169 225,152"/>
<polygon class="pen1 brush0" points="275,150 273,152 268,155 261,162 255,172 252,184 253,193 257,201 263,209 272,216 275,219 278,222 280,225 281,229 280,234 278,239 275,244 271,248 263,256 258,264 254,273 253,282 255,290 258,297 264,304 272,310 275,313 279,318 281,323 282,329 282,331 281,333 278,337 273,340 264,347 257,355 252,363 251,373 252,380 255,388 262,397 273,404 283,386 279,384 275,381 272,377 271,373 272,369 274,365 278,360 283,357 292,351 298,344 301,337 302,330 301,319 297,309 291,300 284,294 280,291 277,288 275,285 274,281 274,277 276,272 280,268 285,263 292,256 297,247 300,238 301,228 299,220 296,212 291,205 284,199 280,196 276,193 274,189 273,185 274,181 275,178 278,175 280,172 281,171 281,171 281,171 281,171 282,171 282,171 283,171 283,171 275,150"/>
<polygon class="pen1 brush0" points="283,171 361,171 362,171 362,172 362,283 362,285 363,286 365,286 365,286 361,284 351,279 339,273 326,267 312,260 296,254 280,247 263,241 245,235 228,230 210,226 192,223 175,222 158,222 142,224 128,227 114,233 105,239 97,246 90,255 84,264 79,275 76,286 73,299 72,313 72,313 72,313 72,316 73,322 75,330 79,342 85,355 94,370 106,386 122,403 133,412 146,421 160,430 176,438 193,445 210,450 228,454 247,455 269,454 291,451 311,446 331,439 349,431 366,422 381,410 396,397 411,380 423,362 433,344 441,325 447,306 451,288 453,271 454,256 453,244 452,230 449,215 445,199 439,183 432,167 423,151 412,135 402,122 389,109 374,96 356,84 336,74 313,66 287,60 258,58 240,58 224,60 209,62 195,66 182,70 170,75 159,81 149,88 140,94 131,102 124,109 117,116 110,124 104,131 98,138 93,145 86,154 102,167 109,158 119,144 131,130 145,117 161,104 179,93 202,85 228,79 258,78 284,80 307,85 327,92 346,101 362,112 377,124 389,138 400,152 409,166 416,181 422,196 427,210 430,223 432,236 434,247 434,256 433,268 432,282 428,298 423,315 416,332 407,350 395,367 381,383 368,395 354,405 339,414 323,421 306,427 287,431 268,433 247,434 231,433 214,430 199,426 184,420 170,412 157,405 146,396 136,388 122,374 112,361 104,348 99,337 96,328 94,320 93,315 93,313 93,314 94,303 95,292 98,283 101,275 106,267 111,261 117,256 124,251 139,245 155,242 173,242 193,244 213,247 233,253 253,259 273,266 291,274 309,281 325,289 339,296 350,302 359,307 365,310 367,311 383,320 383,317 383,311 383,305 383,302 383,161 383,150 372,150 278,150 275,150 283,171"/>
</g>
</svg>
