<?xml version="1.0" encoding="UTF-8" standalone="no"?>
<!DOCTYPE svg PUBLIC "-//W3C//DTD SVG 1.0//EN" "http://www.w3.org/TR/2001/REC-SVG-20010904/DTD/svg10.dtd">
<svg xmlns="http://www.w3.org/2000/svg" xmlns:xlink="http://www.w3.org/1999/xlink" fill-rule="evenodd" height="0.179in" preserveAspectRatio="none" stroke-linecap="round" viewBox="0 0 558 179" width="0.558in">
<style type="text/css">
.brush0 { fill: rgb(255,255,255); }
.pen0 { stroke: rgb(0,0,0); stroke-width: 1; stroke-linejoin: round; }
.brush1 { fill: none; }
.pen1 { stroke: none; }
.brush2 { fill: rgb(0,0,0); }
</style>
<g>
<polygon class="pen1 brush2" points="280,179 308,179 336,177 362,175 388,172 412,168 435,164 457,159 476,153 494,146 510,139 524,132 536,124 545,116 552,107 557,98 558,89 557,80 552,71 545,63 536,54 524,47 510,39 494,32 476,26 457,20 435,15 412,11 388,7 362,4 336,2 308,0 280,0 251,0 223,2 197,4 171,7 146,11 123,15 102,20 82,26 64,32 48,39 34,47 22,54 13,63 6,71 1,80 0,89 1,98 6,107 13,116 22,124 34,132 48,139 64,146 82,153 102,159 123,164 146,168 171,172 197,175 223,177 251,179 280,179"/>
<polygon class="pen1 brush0" points="328,143 304,143 280,142 257,140 235,138 214,136 194,133 175,130 158,126 142,122 128,117 116,112 106,107 98,102 92,96 88,90 87,84 88,78 92,72 97,67 105,62 114,57 125,52 138,47 153,43 130,47 110,52 92,58 77,64 65,71 56,77 50,85 48,92 49,98 53,104 59,110 67,115 77,120 89,125 103,130 119,134 136,138 154,141 174,144 195,146 217,148 240,150 264,151 289,151 302,151 315,151 327,150 339,150 351,149 363,148 375,147 386,146 397,145 407,144 418,142 428,140 437,139 447,137 456,135 464,133 449,135 433,137 417,139 400,140 383,141 365,142 347,143 328,143"/>
<polygon class="pen1 brush0" points="334,119 318,119 302,118 287,117 272,115 258,113 245,111 232,108 221,105 211,102 201,99 193,95 187,91 181,87 177,82 175,78 174,73 176,66 180,60 188,54 199,48 211,43 226,39 243,35 262,32 234,34 209,37 186,42 167,47 150,54 138,61 131,69 128,77 129,82 131,86 135,91 141,95 147,99 155,103 165,106 175,109 187,112 199,115 212,117 226,119 241,121 257,122 273,123 289,123 299,123 309,123 318,122 327,122 336,121 345,120 354,119 362,118 355,118 348,118 341,119 334,119"/>
<polygon class="pen1 brush0" points="319,95 339,95 359,93 376,91 391,88 403,84 413,80 419,76 421,71 419,66 413,61 403,57 391,53 376,50 359,48 339,46 319,46 299,46 279,48 262,50 247,53 235,57 225,61 219,66 217,71 219,76 225,80 235,84 247,88 262,91 279,93 299,95 319,95"/>
</g>
</svg>
