<?xml version="1.0" encoding="UTF-8" standalone="no"?>
<!DOCTYPE svg PUBLIC "-//W3C//DTD SVG 1.0//EN" "http://www.w3.org/TR/2001/REC-SVG-20010904/DTD/svg10.dtd">
<svg xmlns="http://www.w3.org/2000/svg" xmlns:xlink="http://www.w3.org/1999/xlink" fill-rule="evenodd" height="0.902in" preserveAspectRatio="none" stroke-linecap="round" viewBox="0 0 1010 902" width="1.01in">
<style type="text/css">
.brush0 { fill: rgb(255,255,255); }
.pen0 { stroke: rgb(0,0,0); stroke-width: 1; stroke-linejoin: round; }
.brush1 { fill: none; }
.pen1 { stroke: none; }
.brush2 { fill: rgb(0,0,0); }
.brush3 { fill: rgb(255,214,0); }
</style>
<g>
<polygon class="pen1 brush2" points="200,314 198,318 192,330 184,349 174,374 165,405 156,441 149,481 146,524 146,570 152,618 165,666 185,716 214,765 252,812 302,858 364,902 357,895 340,876 315,847 286,812 257,774 232,735 213,699 206,668 207,670 212,676 218,685 227,696 238,709 250,724 263,740 277,757 292,773 307,789 321,803 336,816 349,826 362,834 373,838 382,838 379,836 371,829 359,817 344,801 327,782 308,759 288,732 269,702 251,670 235,634 222,597 213,557 209,515 211,471 219,426 235,380 240,371 248,361 259,349 272,335 287,320 304,304 322,286 341,267 361,247 381,225 401,202 421,178 440,153 458,127 475,100 490,72 489,73 485,77 478,85 469,96 457,110 444,125 429,142 412,160 394,179 376,197 356,215 337,231 318,246 298,259 280,270 262,277 260,274 254,264 248,246 244,219 244,182 252,134 269,73 299,0 295,4 283,18 267,39 250,69 233,107 220,152 214,204 216,263 215,279 209,296 203,309 200,314"/>
<polygon class="pen1 brush2" points="284,222 281,218 281,211 282,202 286,190 291,178 298,163 306,148 316,132 326,117 337,103 347,91 356,81 365,73 373,68 379,65 384,66 387,70 387,77 386,86 382,97 377,110 370,125 362,140 352,156 342,171 331,185 321,197 312,207 303,215 295,220 289,223 284,222"/>
<polygon class="pen1 brush2" points="811,314 813,318 819,330 827,349 836,374 846,405 855,441 862,481 865,524 864,570 858,618 846,666 826,716 797,765 758,812 709,858 647,902 654,895 671,876 696,847 725,812 754,774 779,735 797,699 804,668 803,670 798,676 792,685 783,696 772,709 760,724 747,740 733,757 719,773 704,789 690,803 675,816 662,826 649,834 638,838 629,838 632,836 640,829 652,817 667,801 684,782 703,759 723,732 742,702 760,670 776,634 789,597 798,557 802,515 800,471 792,426 776,380 771,371 763,361 752,349 739,335 724,320 707,304 689,286 670,267 650,247 630,225 610,202 590,178 571,153 553,127 537,100 522,72 523,73 527,77 533,85 543,96 554,110 568,125 583,142 599,160 617,179 635,197 654,215 674,231 693,246 712,259 731,270 749,277 751,274 757,264 763,246 767,219 766,182 759,134 741,73 712,0 716,4 728,18 744,39 761,69 778,107 790,152 797,204 794,263 796,279 802,296 808,309 811,314"/>
<polygon class="pen1 brush2" points="726,222 729,218 729,211 728,202 724,190 719,178 713,163 704,148 695,132 684,117 674,103 664,91 654,81 646,73 638,68 632,65 627,66 624,70 624,77 625,86 629,97 634,110 640,125 649,140 658,156 669,171 679,185 689,197 699,207 707,215 715,220 721,223 726,222"/>
<polygon class="pen1 brush2" points="504,414 565,319 565,422 670,403 616,490 708,538 616,575 681,659 581,621 576,743 504,648 420,735 423,619 306,621 396,547 295,482 423,457 417,330 504,414"/>
<polygon class="pen1 brush0" points="501,629 481,627 462,621 446,612 431,600 419,585 410,568 404,550 402,530 404,510 410,491 419,475 431,460 446,448 462,439 481,433 501,431 521,433 539,439 556,448 570,460 582,475 591,491 597,510 599,530 597,550 591,568 582,585 570,600 556,612 539,621 521,627 501,629"/>
<polygon class="pen1 brush2" points="554,491 551,487 548,483 545,479 541,476 537,473 533,470 528,468 523,467 517,465 510,465 504,465 498,465 492,467 486,468 480,471 474,474 464,482 455,491 449,501 445,513 442,529 443,544 446,559 453,572 459,580 467,586 476,590 484,593 492,595 498,596 502,596 504,596 498,592 493,589 487,586 482,582 477,579 473,575 469,570 465,565 460,554 457,542 456,530 458,517 461,508 467,499 473,492 481,486 486,484 490,482 495,480 500,479 504,479 509,479 514,479 519,480 526,483 533,487 539,492 543,498 546,505 548,512 548,520 547,528 546,533 543,538 539,542 534,546 529,548 523,550 517,550 512,549 508,548 504,545 501,543 498,539 496,535 495,531 495,526 495,522 496,519 498,516 500,514 503,512 503,512 503,512 503,512 503,512 501,514 499,516 498,518 497,521 496,525 497,528 497,532 499,535 501,538 504,541 507,543 511,544 515,544 519,544 523,543 527,541 531,538 534,535 536,532 538,528 538,523 538,518 537,513 535,508 532,504 528,500 523,498 519,496 513,495 507,496 501,497 496,500 491,504 487,508 484,513 482,519 481,526 481,533 483,540 486,546 490,552 496,556 501,559 508,562 512,563 516,563 521,563 525,563 529,562 533,561 537,559 541,557 547,552 553,546 557,539 560,531 562,521 562,510 559,500 554,491"/>
<polygon class="pen1 brush3" points="511,523 511,523 512,523 512,523 512,522 512,522 513,522 513,522 514,522 514,522 514,522 514,522 514,522 514,523 514,523 514,523 514,523 514,523 514,523 514,523 515,522 515,522 515,522 515,522 515,522 516,522 516,522 516,523 517,523 517,524 517,524 517,524 517,525 511,523"/>
<polygon class="pen1 brush2" points="515,541 510,540 506,538 504,534 503,529 504,525 506,521 510,518 515,517 519,518 523,521 526,525 527,529 526,534 523,538 519,540 515,541"/>
</g>
</svg>
