<?xml version="1.0" encoding="UTF-8" standalone="no"?>
<!DOCTYPE svg PUBLIC "-//W3C//DTD SVG 1.0//EN" "http://www.w3.org/TR/2001/REC-SVG-20010904/DTD/svg10.dtd">
<svg xmlns="http://www.w3.org/2000/svg" xmlns:xlink="http://www.w3.org/1999/xlink" fill-rule="evenodd" height="1.078in" preserveAspectRatio="none" stroke-linecap="round" viewBox="0 0 979 1078" width="0.979in">
<style type="text/css">
.brush0 { fill: rgb(255,255,255); }
.pen0 { stroke: rgb(0,0,0); stroke-width: 1; stroke-linejoin: round; }
.brush1 { fill: none; }
.pen1 { stroke: none; }
.brush2 { fill: rgb(0,0,0); }
</style>
<g>
<polygon class="pen1 brush2" points="899,311 901,363 904,414 906,463 906,510 901,556 889,600 868,642 835,682 810,710 793,737 783,763 779,789 781,814 788,839 800,863 814,887 832,911 852,935 873,959 896,982 918,1006 940,1030 960,1054 979,1078 912,1078 900,1063 883,1041 863,1016 841,990 819,966 797,946 778,932 761,927 738,928 715,930 691,932 666,934 641,936 616,937 591,938 567,938 542,936 519,933 496,928 474,922 453,912 434,900 415,885 399,867 309,751 319,752 327,755 333,758 338,763 343,768 350,773 358,777 368,781 390,786 412,789 433,790 453,790 472,789 491,789 509,788 527,788 544,788 562,791 579,795 596,801 613,810 631,822 648,838 666,858 678,871 691,880 705,886 719,891 733,894 748,898 763,902 778,908 784,896 764,883 744,868 725,851 707,834 688,816 671,797 654,778 637,757 620,737 604,717 588,696 572,675 557,655 541,636 526,616 511,598 514,592 516,584 517,574 517,562 559,562 573,579 586,594 599,610 612,625 625,639 637,654 649,668 660,682 672,697 682,712 693,727 703,743 712,759 721,777 729,795 737,814 755,809 748,804 741,759 735,711 730,662 729,613 733,566 744,521 763,481 793,447 811,429 827,411 839,393 851,376 862,359 873,342 885,326 899,312 899,311 899,311"/>
<polygon class="pen1 brush2" points="279,367 286,333 304,309 329,294 358,289 386,294 411,309 429,333 436,367 429,401 411,425 386,439 358,444 329,439 304,425 286,401 279,367 279,367"/>
<polygon class="pen1 brush2" points="544,298 568,266 581,235 584,206 580,179 568,155 550,135 529,117 504,103 477,93 450,88 423,87 398,91 377,101 360,116 349,137 345,165 332,165 332,137 303,118 275,106 248,101 222,103 198,110 176,121 157,137 141,155 127,175 118,197 113,219 112,241 116,262 125,281 141,297 162,310 162,310 162,318 150,318 139,318 129,319 119,322 110,326 102,331 94,339 86,350 73,374 66,398 64,422 66,446 73,468 83,489 96,508 111,525 128,540 146,551 164,560 181,564 199,564 214,560 228,551 239,537 248,547 240,569 240,589 248,608 262,625 281,639 305,650 331,658 358,662 386,662 412,658 437,649 457,635 473,616 484,590 487,559 481,521 488,526 495,531 501,535 508,538 514,540 520,542 526,543 531,543 560,540 585,530 605,516 621,498 633,476 641,453 645,428 646,402 643,377 637,354 628,333 616,316 602,302 585,294 565,293 544,298 493,257 500,271 507,289 515,312 522,340 555,352 577,371 590,395 592,421 587,446 573,466 552,480 524,484 508,483 496,483 486,484 477,487 468,491 458,496 447,504 433,513 427,557 411,588 389,606 363,612 337,607 315,591 299,564 293,527 288,524 280,519 270,513 260,507 250,502 240,497 232,494 227,492 197,501 171,497 149,481 133,458 127,432 131,404 148,379 179,361 179,361 200,288 180,264 172,238 175,213 187,190 205,172 229,163 255,163 282,177 294,185 306,191 317,194 329,196 340,196 353,195 366,194 381,194 392,174 404,159 418,149 432,143 446,140 460,141 474,145 486,151 497,160 506,171 512,183 516,197 516,212 513,227 505,242 493,257 544,298"/>
</g>
</svg>
