<?xml version="1.0" encoding="UTF-8" standalone="no"?>
<!DOCTYPE svg PUBLIC "-//W3C//DTD SVG 1.0//EN" "http://www.w3.org/TR/2001/REC-SVG-20010904/DTD/svg10.dtd">
<svg xmlns="http://www.w3.org/2000/svg" xmlns:xlink="http://www.w3.org/1999/xlink" fill-rule="evenodd" height="1.004in" preserveAspectRatio="none" stroke-linecap="round" viewBox="0 0 980 1004" width="0.98in">
<style type="text/css">
.brush0 { fill: rgb(255,255,255); }
.pen0 { stroke: rgb(0,0,0); stroke-width: 1; stroke-linejoin: round; }
.brush1 { fill: none; }
.pen1 { stroke: none; }
.brush2 { fill: rgb(0,0,0); }
</style>
<g>
<polygon class="pen1 brush2" points="933,472 940,480 947,489 953,498 959,507 962,517 962,527 959,538 950,549 947,552 941,558 933,565 925,572 917,579 910,585 906,590 904,593 905,597 908,609 911,627 912,647 896,645 894,632 888,621 879,614 869,609 859,609 850,613 844,621 842,635 842,635 844,649 850,660 859,668 869,671 879,671 888,667 894,658 896,645 912,647 911,658 910,668 906,678 902,686 895,692 886,697 875,699 861,699 854,699 849,702 846,707 843,714 820,714 817,709 812,705 807,703 800,702 790,705 781,714 775,726 771,740 770,754 772,766 779,775 790,778 790,778 790,779 799,777 807,772 813,764 818,754 821,744 823,733 823,723 820,714 843,714 840,727 837,743 833,759 828,774 820,788 807,798 790,804 767,804 742,812 741,800 736,791 729,786 719,784 706,788 699,796 695,808 691,821 685,841 688,856 695,865 706,868 719,864 730,854 739,836 742,811 767,804 759,808 754,820 751,839 748,860 745,882 741,900 734,914 723,919 713,915 702,905 692,893 683,882 675,875 668,877 662,891 659,920 656,939 649,955 641,967 630,975 619,978 607,975 595,966 585,949 593,942 597,945 602,948 608,949 615,950 624,948 631,944 637,937 640,928 642,918 644,909 645,899 645,891 645,891 644,891 640,857 631,842 619,844 605,857 594,878 586,902 585,924 593,942 585,949 573,929 560,914 547,906 536,904 528,906 525,914 527,926 538,943 540,948 539,953 537,959 533,963 527,965 521,964 515,960 509,950 496,928 481,910 463,894 444,881 423,869 401,859 378,850 355,841 353,835 354,830 358,826 364,825 395,823 428,816 463,806 500,792 537,775 574,755 611,732 647,707 680,680 712,651 740,621 765,590 785,558 800,525 810,493 813,461 813,458 812,456 810,454 807,452 792,466 773,474 753,476 734,473 719,464 711,450 711,432 723,409 732,399 742,394 752,392 763,393 774,395 785,398 796,400 807,401 807,401 809,367 808,335 805,304 799,274 821,271 821,275 822,280 823,284 825,289 825,289 829,323 831,357 831,392 831,427 829,464 822,500 811,534 796,566 777,598 756,627 732,655 705,682 677,707 646,730 615,752 583,771 550,789 517,805 485,820 453,832 448,834 444,836 441,838 441,840 445,844 451,850 458,855 465,862 472,868 479,874 486,879 491,884 493,885 497,884 503,882 510,880 518,876 527,872 538,867 550,862 582,847 613,830 644,812 674,792 702,771 729,748 755,723 779,697 800,669 820,641 837,610 851,578 862,546 871,511 876,476 878,439 878,422 876,399 873,372 868,344 860,317 850,294 837,278 821,271 799,274 795,258 790,243 784,228 778,213 771,199 763,186 754,172 744,159 734,147 722,135 710,123 696,112 682,102 667,91 650,81 633,72 622,67 611,61 598,56 586,51 572,46 559,41 545,37 531,33 517,30 503,28 489,26 475,24 462,24 449,24 436,26 424,28 426,42 430,61 433,81 435,101 434,121 428,136 415,147 394,151 372,147 358,138 352,124 350,106 353,88 357,68 361,50 363,35 333,41 303,49 274,59 247,71 221,84 196,99 172,116 151,135 131,155 114,177 99,201 86,227 76,255 68,284 64,314 62,347 65,382 73,421 86,460 103,498 126,533 152,563 182,586 216,600 196,568 183,537 178,508 179,481 185,455 196,433 211,413 229,396 249,383 270,374 291,368 312,367 331,370 348,378 363,392 373,411 354,404 336,403 319,406 305,413 292,423 281,436 273,451 267,467 264,484 264,501 267,517 273,531 282,544 295,553 312,560 332,562 362,554 379,533 389,506 396,478 403,455 415,443 437,447 472,474 488,483 503,481 516,471 528,455 538,436 546,415 550,397 552,383 551,375 548,361 544,343 541,324 540,309 542,299 549,299 561,312 573,331 582,351 588,372 591,394 591,417 588,440 584,463 577,486 568,508 557,530 545,550 531,569 516,587 501,602 484,615 467,626 434,641 402,652 369,658 336,660 304,657 273,651 243,640 214,627 186,610 160,591 135,568 113,544 93,517 76,488 62,458 50,426 44,468 47,510 57,552 73,593 92,633 114,671 138,707 161,741 173,759 182,777 187,793 190,809 188,825 183,841 174,857 161,873 154,866 146,862 136,858 126,857 116,857 106,859 97,863 89,868 75,892 68,928 67,965 67,994 43,994 39,949 34,902 33,855 40,811 49,785 57,763 64,744 68,726 71,708 71,689 67,665 60,637 47,584 36,525 29,463 26,399 29,336 39,277 56,222 82,174 98,153 115,134 134,116 154,99 175,84 198,69 221,56 245,45 270,34 295,25 320,18 346,11 372,6 398,3 424,1 449,0 487,2 527,10 569,21 611,37 652,57 694,80 734,106 773,135 809,166 842,200 872,235 898,273 919,311 935,350 945,390 948,430 938,435 931,440 927,445 925,451 925,456 926,461 929,466 933,472 922,485 916,481 909,479 902,480 896,483 890,489 885,498 882,511 881,527 881,527 881,527 882,537 885,545 890,552 895,557 902,559 909,559 917,556 924,549 934,530 936,512 931,496 922,485 933,472"/>
</g>
</svg>
