<?xml version="1.0" encoding="UTF-8" standalone="no"?>
<!DOCTYPE svg PUBLIC "-//W3C//DTD SVG 1.0//EN" "http://www.w3.org/TR/2001/REC-SVG-20010904/DTD/svg10.dtd">
<svg xmlns="http://www.w3.org/2000/svg" xmlns:xlink="http://www.w3.org/1999/xlink" fill-rule="evenodd" height="0.494in" preserveAspectRatio="none" stroke-linecap="round" viewBox="0 0 471 494" width="0.471in">
<style type="text/css">
.brush0 { fill: rgb(255,255,255); }
.pen0 { stroke: rgb(0,0,0); stroke-width: 1; stroke-linejoin: round; }
.brush1 { fill: none; }
.pen1 { stroke: none; }
.brush2 { fill: rgb(0,0,0); }
</style>
<g>
<polygon class="pen1 brush2" points="132,119 127,123 118,131 110,143 107,159 108,170 113,180 121,189 132,198 136,202 139,206 141,210 142,214 141,220 139,226 135,232 130,237 120,247 113,258 109,268 108,279 110,289 115,298 122,307 132,315 136,318 140,324 142,330 143,337 143,339 142,343 138,347 132,352 121,359 113,369 107,380 105,392 106,401 110,411 119,421 133,431 145,409 140,406 135,402 131,397 130,392 131,387 134,381 139,376 145,372 156,364 163,355 167,347 168,338 167,325 162,312 154,302 146,294 142,291 138,287 135,282 133,278 134,273 137,268 141,262 147,256 156,247 162,236 166,225 167,213 165,203 161,193 155,184 146,177 141,173 136,169 133,164 132,159 134,153 138,147 142,143 146,140 132,119"/>
<polygon class="pen1 brush2" points="189,119 184,123 175,131 167,143 164,159 166,170 170,180 178,189 189,198 193,202 196,206 198,210 199,214 198,220 196,226 193,232 188,237 178,247 170,258 166,268 165,279 167,289 172,298 179,307 189,315 193,318 197,324 199,330 200,337 200,339 199,343 196,347 190,352 178,359 170,369 164,380 162,392 163,401 167,411 176,421 190,431 202,409 197,406 192,402 188,397 187,392 188,387 191,381 196,376 202,372 213,364 220,355 224,347 225,338 224,325 219,312 211,302 203,294 199,291 195,287 192,282 190,278 191,273 194,268 198,262 204,256 213,247 219,236 223,225 224,213 222,203 218,193 212,184 203,177 198,173 193,169 190,164 189,159 191,153 195,147 199,143 203,140 189,119"/>
<polygon class="pen1 brush2" points="250,117 247,119 242,123 234,131 226,143 222,159 224,170 228,180 236,189 247,198 251,202 254,206 256,210 257,214 256,220 254,226 251,232 246,237 236,247 229,258 224,268 223,279 225,289 230,298 237,307 247,315 251,318 255,324 257,330 258,337 258,339 257,343 254,347 248,352 236,359 228,369 222,380 220,392 221,401 225,411 234,421 248,431 260,409 255,406 250,402 247,397 245,392 246,387 250,381 254,376 260,372 272,364 279,355 283,347 284,338 282,325 277,312 270,302 261,294 257,291 253,287 250,282 248,278 249,273 252,268 256,262 262,256 271,247 277,236 281,225 282,213 280,203 276,193 270,184 261,177 256,173 252,169 248,164 247,159 248,155 250,150 253,146 257,143 257,143 258,142 258,142 258,142 259,142 260,142 261,142 261,142 250,117"/>
<polygon class="pen1 brush2" points="261,142 356,142 358,142 358,144 358,280 358,283 359,284 362,285 361,285 356,282 344,276 330,269 314,261 296,253 277,244 256,236 235,229 214,222 192,216 170,211 148,207 127,205 106,205 87,207 69,212 52,219 41,226 31,235 22,246 15,257 9,270 4,284 1,300 0,317 0,318 0,318 0,321 1,328 3,339 8,354 15,370 26,389 41,409 61,429 75,440 90,452 108,463 128,473 148,481 170,488 193,492 216,493 230,493 244,492 257,490 270,488 283,485 295,482 307,479 319,474 330,470 341,464 352,459 362,452 372,446 381,438 390,430 399,422 418,401 433,379 446,356 455,332 462,309 467,287 470,267 471,248 470,232 468,215 465,197 460,177 453,157 444,137 433,117 420,97 414,89 407,81 400,73 391,65 383,57 373,50 362,42 351,35 339,29 326,23 313,17 298,13 282,9 266,6 248,4 230,3 208,3 188,5 169,8 152,12 136,18 121,24 108,31 95,39 84,48 73,56 63,66 55,75 46,84 39,93 32,102 25,110 16,122 36,137 45,126 51,118 58,110 65,101 72,93 80,84 89,76 99,68 109,60 120,53 132,47 145,41 160,37 175,33 192,30 210,28 229,28 261,31 289,36 315,45 338,56 358,70 375,85 391,101 404,118 415,137 424,155 431,173 437,191 441,207 444,223 446,236 446,248 445,262 443,279 439,299 433,319 424,341 413,362 399,384 381,404 373,411 365,418 357,425 348,431 339,437 329,442 319,447 309,451 299,455 288,458 276,461 265,463 253,465 241,467 228,468 215,468 195,467 175,463 156,457 138,449 120,440 104,431 90,420 78,410 61,393 48,376 39,361 32,347 28,336 26,327 25,321 25,318 25,319 26,305 28,292 32,281 36,271 41,262 48,254 55,247 64,242 82,235 102,231 125,230 148,233 173,237 198,243 222,251 247,260 270,269 292,279 311,288 329,296 343,304 354,310 361,313 364,315 383,326 383,323 383,315 383,307 383,304 383,130 383,117 371,117 254,117 250,117 261,142"/>
<polygon class="pen1 brush2" points="132,119 127,123 118,131 110,143 107,159 108,170 113,180 121,189 132,198 136,202 139,206 141,210 142,214 141,220 139,226 135,232 130,237 120,247 113,258 109,268 108,279 110,289 115,298 122,307 132,315 136,318 140,324 142,330 143,337 143,339 142,343 138,347 132,352 121,359 113,369 107,380 105,392 106,401 110,411 119,421 133,431 145,409 140,406 135,402 131,397 130,392 131,387 134,381 139,376 145,372 156,364 163,355 167,347 168,338 167,325 162,312 154,302 146,294 142,291 138,287 135,282 133,278 134,273 137,268 141,262 147,256 156,247 162,236 166,225 167,213 165,203 161,193 155,184 146,177 141,173 136,169 133,164 132,159 134,153 138,147 142,143 146,140 132,119"/>
<polygon class="pen1 brush2" points="189,119 184,123 175,131 167,143 164,159 166,170 170,180 178,189 189,198 193,202 196,206 198,210 199,214 198,220 196,226 193,232 188,237 178,247 170,258 166,268 165,279 167,289 172,298 179,307 189,315 193,318 197,324 199,330 200,337 200,339 199,343 196,347 190,352 178,359 170,369 164,380 162,392 163,401 167,411 176,421 190,431 202,409 197,406 192,402 188,397 187,392 188,387 191,381 196,376 202,372 213,364 220,355 224,347 225,338 224,325 219,312 211,302 203,294 199,291 195,287 192,282 190,278 191,273 194,268 198,262 204,256 213,247 219,236 223,225 224,213 222,203 218,193 212,184 203,177 198,173 193,169 190,164 189,159 191,153 195,147 199,143 203,140 189,119"/>
<polygon class="pen1 brush2" points="250,117 247,119 242,123 234,131 226,143 222,159 224,170 228,180 236,189 247,198 251,202 254,206 256,210 257,214 256,220 254,226 251,232 246,237 236,247 229,258 224,268 223,279 225,289 230,298 237,307 247,315 251,318 255,324 257,330 258,337 258,339 257,343 254,347 248,352 236,359 228,369 222,380 220,392 221,401 225,411 234,421 248,431 260,409 255,406 250,402 247,397 245,392 246,387 250,381 254,376 260,372 272,364 279,355 283,347 284,338 282,325 277,312 270,302 261,294 257,291 253,287 250,282 248,278 249,273 252,268 256,262 262,256 271,247 277,236 281,225 282,213 280,203 276,193 270,184 261,177 256,173 252,169 248,164 247,159 248,155 250,150 253,146 257,143 257,143 258,142 258,142 258,142 259,142 260,142 261,142 261,142 250,117"/>
<polygon class="pen1 brush2" points="261,142 356,142 358,142 358,144 358,280 358,283 359,284 362,285 361,285 356,282 344,276 330,269 314,261 296,253 277,244 256,236 235,229 214,222 192,216 170,211 148,207 127,205 106,205 87,207 69,212 52,219 41,226 31,235 22,246 15,257 9,270 4,284 1,300 0,317 0,318 0,318 0,321 1,328 3,339 8,354 15,370 26,389 41,409 61,429 75,440 90,452 108,463 128,473 148,481 170,488 193,492 216,493 230,493 244,492 257,490 270,488 283,485 295,482 307,479 319,474 330,470 341,464 352,459 362,452 372,446 381,438 390,430 399,422 418,401 433,379 446,356 455,332 462,309 467,287 470,267 471,248 470,232 468,215 465,197 460,177 453,157 444,137 433,117 420,97 414,89 407,81 400,73 391,65 383,57 373,50 362,42 351,35 339,29 326,23 313,17 298,13 282,9 266,6 248,4 230,3 208,3 188,5 169,8 152,12 136,18 121,24 108,31 95,39 84,48 73,56 63,66 55,75 46,84 39,93 32,102 25,110 16,122 36,137 45,126 51,118 58,110 65,101 72,93 80,84 89,76 99,68 109,60 120,53 132,47 145,41 160,37 175,33 192,30 210,28 229,28 261,31 289,36 315,45 338,56 358,70 375,85 391,101 404,118 415,137 424,155 431,173 437,191 441,207 444,223 446,236 446,248 445,262 443,279 439,299 433,319 424,341 413,362 399,384 381,404 373,411 365,418 357,425 348,431 339,437 329,442 319,447 309,451 299,455 288,458 276,461 265,463 253,465 241,467 228,468 215,468 195,467 175,463 156,457 138,449 120,440 104,431 90,420 78,410 61,393 48,376 39,361 32,347 28,336 26,327 25,321 25,318 25,319 26,305 28,292 32,281 36,271 41,262 48,254 55,247 64,242 82,235 102,231 125,230 148,233 173,237 198,243 222,251 247,260 270,269 292,279 311,288 329,296 343,304 354,310 361,313 364,315 383,326 383,323 383,315 383,307 383,304 383,130 383,117 371,117 254,117 250,117 261,142"/>
</g>
</svg>
