<?xml version="1.0" encoding="UTF-8" standalone="no"?>
<!DOCTYPE svg PUBLIC "-//W3C//DTD SVG 1.0//EN" "http://www.w3.org/TR/2001/REC-SVG-20010904/DTD/svg10.dtd">
<svg xmlns="http://www.w3.org/2000/svg" xmlns:xlink="http://www.w3.org/1999/xlink" fill-rule="evenodd" height="0.728in" preserveAspectRatio="none" stroke-linecap="round" viewBox="0 0 735 728" width="0.735in">
<style type="text/css">
.brush0 { fill: rgb(255,255,255); }
.pen0 { stroke: rgb(0,0,0); stroke-width: 1; stroke-linejoin: round; }
.brush1 { fill: none; }
.pen1 { stroke: none; }
.brush2 { fill: rgb(0,0,0); }
</style>
<g>
<polygon class="pen1 brush2" points="728,728 728,0 0,0 0,728 728,728"/>
<polygon class="pen1 brush0" points="147,269 145,272 141,281 135,295 128,313 121,336 115,362 110,392 107,424 107,457 112,492 121,528 136,565 157,601 186,636 222,670 268,702 263,697 250,683 232,662 210,636 189,608 171,579 157,553 152,530 156,536 168,551 184,572 204,595 226,619 247,639 266,652 281,655 279,653 273,648 264,640 253,628 240,614 226,597 212,577 198,555 185,531 173,505 163,477 157,447 154,417 155,384 161,351 173,317 177,311 183,303 190,294 200,284 211,273 223,261 237,248 251,234 265,219 280,203 295,186 310,168 324,150 337,131 350,111 361,90 360,90 357,94 352,100 346,108 337,118 327,129 316,142 304,155 291,169 277,182 263,195 248,208 234,219 220,229 206,236 193,242 191,240 187,232 183,219 180,199 180,171 185,136 198,91 220,37 217,40 208,50 196,66 184,88 171,116 162,149 157,188 159,231 158,243 154,256 149,265 147,269"/>
<polygon class="pen1 brush0" points="209,201 207,198 207,193 208,186 211,178 214,168 219,158 226,147 233,135 241,124 248,113 256,104 263,97 269,91 275,87 279,85 283,86 285,89 285,94 284,101 282,109 278,118 273,129 267,140 260,152 252,163 244,174 237,183 230,190 223,196 217,200 213,201 209,201"/>
<polygon class="pen1 brush0" points="588,269 590,272 594,281 600,295 607,313 614,336 620,362 625,392 628,424 628,457 623,492 614,528 599,565 578,601 549,636 513,670 467,702 472,697 485,683 503,662 525,636 546,608 564,579 578,553 583,530 579,536 567,551 551,572 531,595 509,619 488,639 468,652 453,655 455,653 461,648 470,640 481,628 494,614 508,597 523,577 537,555 550,531 562,505 571,477 578,447 581,417 580,384 574,351 562,317 558,311 552,303 545,294 535,284 524,273 511,261 498,248 484,234 469,219 454,203 440,186 425,168 411,150 398,131 386,111 375,90 376,90 379,94 383,100 390,108 399,118 409,129 420,142 432,155 445,169 458,182 473,195 487,208 501,219 515,229 529,236 542,242 544,240 548,232 552,219 556,199 555,171 550,136 537,91 515,37 518,40 527,50 538,66 551,88 563,116 573,149 578,188 576,231 577,243 581,256 586,265 588,269"/>
<polygon class="pen1 brush0" points="525,201 527,198 528,193 527,186 524,178 520,168 515,158 509,147 502,135 494,124 487,113 479,104 472,97 466,91 460,87 455,85 452,86 450,89 449,94 450,101 453,109 457,118 462,129 468,140 475,152 483,163 490,174 498,183 505,190 511,196 517,200 522,201 525,201"/>
<polygon class="pen1 brush0" points="393,391 394,390 395,390 397,390 398,390 404,387 409,384 415,381 421,377 426,373 432,369 437,364 442,360 447,355 451,349 456,344 460,338 461,336 462,335 463,333 464,332 466,328 468,324 470,321 472,317 473,315 474,314 474,312 475,310 473,323 471,336 468,348 464,360 459,372 453,384 446,396 438,407 435,411 433,414 430,417 427,420 423,424 419,427 416,431 412,434 415,438 419,443 422,447 425,452 426,452 426,453 426,454 427,454 428,455 429,455 429,456 430,457 438,465 446,472 456,478 465,483 475,488 486,492 496,495 507,497 498,498 490,499 481,499 473,499 464,498 455,497 447,496 438,494 431,492 424,489 417,487 410,485 408,484 406,482 404,481 401,480 400,479 399,478 397,478 396,477 395,476 395,476 394,476 394,475 393,475 393,475 392,475 391,474 387,472 384,470 381,468 377,466 367,477 359,489 351,503 346,517 341,531 338,546 337,562 338,577 328,543 325,508 328,473 338,440 337,439 336,439 334,439 333,439 333,439 332,438 332,438 331,438 330,438 330,437 330,437 329,437 328,437 328,436 327,436 326,436 317,434 307,432 298,431 289,430 280,430 271,430 261,431 252,433 251,433 251,433 250,434 250,434 245,435 241,436 236,438 232,439 227,441 223,442 218,444 214,446 217,444 220,442 222,440 225,438 239,428 253,420 268,412 284,407 299,402 315,399 332,397 348,397 347,383 345,370 341,357 336,344 330,332 323,320 315,309 306,299 304,297 302,295 299,293 297,291 296,290 295,289 294,288 293,287 305,293 317,300 328,308 338,316 348,325 358,335 366,346 374,357 375,358 375,358 376,358 376,359 378,362 379,364 381,367 382,370 385,375 388,380 391,386 393,391 393,391"/>
</g>
</svg>
