<?xml version="1.0" encoding="UTF-8" standalone="no"?>
<!DOCTYPE svg PUBLIC "-//W3C//DTD SVG 1.0//EN" "http://www.w3.org/TR/2001/REC-SVG-20010904/DTD/svg10.dtd">
<svg xmlns="http://www.w3.org/2000/svg" xmlns:xlink="http://www.w3.org/1999/xlink" fill-rule="evenodd" height="1.004in" preserveAspectRatio="none" stroke-linecap="round" viewBox="0 0 980 1004" width="0.98in">
<style type="text/css">
.brush0 { fill: rgb(255,255,255); }
.pen0 { stroke: rgb(0,0,0); stroke-width: 1; stroke-linejoin: round; }
.brush1 { fill: none; }
.pen1 { stroke: none; }
.brush2 { fill: rgb(0,0,0); }
</style>
<g>
<polygon class="pen1 brush2" points="46,472 39,480 33,488 26,497 21,506 17,516 17,526 21,537 29,548 33,551 39,557 46,564 54,571 62,578 69,585 73,589 75,592 74,597 71,609 68,626 67,646 83,644 85,631 92,620 100,613 111,609 121,608 129,612 136,621 138,634 138,634 136,649 129,660 121,667 111,671 100,671 92,667 85,658 83,644 67,646 68,657 70,667 73,677 78,685 85,692 93,696 104,699 118,698 125,699 131,701 134,707 137,714 160,713 163,708 167,704 172,702 179,701 189,704 198,713 204,725 209,739 210,754 207,766 201,775 189,778 189,778 189,778 180,776 173,771 166,763 161,754 158,743 157,732 157,722 160,713 137,714 140,727 143,743 147,759 152,774 160,787 173,797 190,803 213,803 238,811 239,799 244,791 251,786 261,784 274,787 281,796 284,808 288,821 294,841 292,856 284,865 273,868 261,864 250,854 241,836 238,811 213,803 221,807 225,820 229,838 231,859 234,881 238,900 245,913 256,918 267,914 277,904 287,892 296,881 305,874 312,876 317,890 321,919 324,938 330,955 339,967 349,975 361,978 372,975 384,965 394,948 387,942 383,945 378,948 372,949 364,950 348,943 339,928 336,908 335,891 335,891 335,891 339,857 348,842 360,844 374,857 385,877 393,901 395,924 387,942 394,948 406,928 419,914 433,906 444,903 452,906 455,914 452,926 441,943 439,948 440,953 443,958 447,963 453,965 459,964 465,959 471,950 484,928 499,909 517,894 536,880 557,869 579,859 602,850 625,841 627,835 626,829 622,826 616,824 585,822 552,815 517,805 480,791 443,774 406,754 369,731 333,706 299,679 268,650 239,620 215,589 194,557 179,525 169,493 166,461 166,458 168,455 169,453 172,451 187,465 207,474 227,476 246,472 261,464 269,450 269,432 257,409 247,399 237,393 227,392 216,392 205,395 194,397 183,400 172,401 172,401 171,367 172,334 175,303 180,273 159,271 159,275 158,279 156,283 155,288 155,288 151,322 149,357 148,391 148,426 150,463 157,499 169,533 183,566 202,597 223,627 248,655 274,681 303,706 333,729 365,751 397,771 430,789 463,805 496,819 528,831 533,833 537,835 540,837 539,839 535,844 529,849 523,855 516,861 508,868 501,873 495,879 490,883 487,884 483,884 478,882 471,880 463,876 453,872 442,867 430,862 398,847 367,830 336,812 306,792 278,771 251,748 225,723 202,697 180,669 160,641 143,610 129,578 118,546 109,511 104,476 102,439 102,422 104,399 107,372 113,344 120,317 130,294 143,278 159,271 180,273 184,257 189,242 195,227 201,212 208,198 217,185 226,171 235,158 246,146 258,134 270,122 284,111 298,101 313,90 330,80 347,71 358,66 369,60 381,55 394,50 407,45 421,41 434,37 448,33 462,30 476,27 490,25 504,24 517,24 531,24 543,26 555,28 553,42 550,61 546,81 545,101 546,120 553,135 565,146 586,150 608,147 622,137 628,123 629,106 627,87 623,68 619,50 617,35 647,41 677,49 706,59 733,70 759,83 784,99 808,116 829,134 849,155 866,177 881,201 894,227 904,254 912,283 916,314 918,346 915,381 907,420 894,459 877,497 854,532 828,562 798,586 764,600 784,568 797,537 802,507 801,480 795,455 784,432 769,412 751,396 731,382 710,373 689,367 668,366 649,370 632,378 617,392 607,411 626,404 644,403 661,406 675,413 688,423 698,436 707,451 712,467 715,484 716,500 713,516 707,530 698,543 685,552 668,559 648,561 618,553 601,532 591,505 584,477 577,454 565,442 544,447 509,474 493,483 478,481 464,471 452,455 442,436 434,415 430,397 428,383 429,375 432,360 436,342 439,324 440,309 437,299 430,299 418,312 406,330 397,350 391,372 388,394 388,416 391,439 396,462 403,485 412,507 423,529 435,550 449,569 464,586 480,602 497,615 514,626 546,641 579,652 611,658 644,660 675,657 706,650 737,640 766,627 793,610 819,590 844,568 866,543 886,516 903,488 917,457 929,425 935,467 932,509 922,551 907,592 887,632 865,671 841,707 818,741 806,759 797,777 792,793 790,809 791,825 796,841 805,857 818,873 825,866 833,862 843,858 853,857 864,857 874,859 883,862 891,867 905,892 912,927 913,964 913,993 936,993 940,948 945,901 946,855 939,811 930,784 923,762 916,743 912,726 909,708 909,688 913,665 920,636 933,583 944,524 951,462 954,399 951,336 941,277 923,222 897,174 881,153 864,134 845,116 825,99 804,84 782,69 759,56 735,45 710,34 685,25 660,18 634,11 608,6 582,3 556,1 531,0 493,2 453,10 411,21 370,37 328,57 286,80 246,106 207,135 171,166 138,200 108,235 82,272 61,310 45,349 35,389 32,429 42,434 49,440 53,445 55,450 55,455 53,461 50,466 46,472 58,485 64,481 71,479 78,479 84,482 90,488 94,497 97,510 98,526 98,526 98,526 97,536 94,544 90,551 84,556 78,559 71,558 63,555 56,548 46,529 44,512 49,496 58,485 46,472"/>
</g>
</svg>
