<?xml version="1.0" encoding="UTF-8" standalone="no"?>
<!DOCTYPE svg PUBLIC "-//W3C//DTD SVG 1.0//EN" "http://www.w3.org/TR/2001/REC-SVG-20010904/DTD/svg10.dtd">
<svg xmlns="http://www.w3.org/2000/svg" xmlns:xlink="http://www.w3.org/1999/xlink" fill-rule="evenodd" height="0.156in" preserveAspectRatio="none" stroke-linecap="round" viewBox="0 0 500 156" width="0.5in">
<style type="text/css">
.brush0 { fill: rgb(255,255,255); }
.pen0 { stroke: rgb(0,0,0); stroke-width: 1; stroke-linejoin: round; }
.brush1 { fill: none; }
.pen1 { stroke: none; }
.brush2 { fill: rgb(0,0,0); }
</style>
<g>
<polygon class="pen1 brush2" points="0,154 0,154 2,154 5,154 11,154 17,155 24,155 32,155 39,156 46,156 47,156 47,156 135,150 137,150 142,150 149,149 157,149 165,149 172,148 177,148 179,148 250,155 250,155 251,155 255,155 261,155 268,155 276,155 283,155 289,155 294,155 296,155 344,147 345,147 345,147 351,145 386,153 426,150 447,156 448,156 500,154 499,145 448,148 427,142 426,142 425,142 386,145 352,136 295,147 293,147 289,147 284,147 278,147 271,147 264,147 257,147 251,147 251,147 179,139 134,142 130,142 120,143 106,144 90,145 74,146 60,147 50,148 46,148 47,148 43,148 37,148 29,147 21,146 14,146 7,145 2,145 0,145 0,154"/>
<polygon class="pen1 brush2" points="499,146 469,118 468,118 468,118 463,116 463,115 428,75 422,80 458,122 458,123 459,123 463,125 464,125 495,154 499,146"/>
<polygon class="pen1 brush2" points="350,144 389,113 391,112 394,108 400,104 407,98 413,92 419,88 422,84 424,83 425,83 425,82 427,77 428,75 418,77 384,107 382,108 378,112 371,117 364,123 357,129 350,134 346,138 344,139 350,144"/>
<polygon class="pen1 brush2" points="162,147 162,147 165,144 169,141 171,139 173,138 174,138 175,137 177,135 180,133 183,130 187,128 191,126 193,125 197,122 203,117 210,110 218,103 217,104 259,76 254,69 213,97 212,97 212,97 205,104 198,110 193,115 190,117 190,117 190,117 190,117 190,117 188,118 185,120 181,123 175,127 173,128 172,129 170,130 169,131 167,133 163,136 160,139 157,141 162,147"/>
<polygon class="pen1 brush2" points="119,32 119,32 121,34 125,37 131,41 136,46 137,47 138,47 149,50 151,42 142,40 141,39 141,39 141,39 141,39 140,38 135,34 130,30 126,27 123,25 119,32"/>
<polygon class="pen1 brush2" points="166,3 166,3 166,3 166,3 166,3 167,6 167,11 167,17 168,24 168,24 168,25 175,43 183,39 177,24 177,24 177,23 176,22 176,21 176,15 175,9 175,4 174,0 166,3"/>
<polygon class="pen1 brush2" points="210,49 218,39 218,38 220,37 229,27 224,21 213,32 212,32 212,33 203,45 210,49"/>
<polygon class="pen1 brush2" points="308,47 312,49 317,51 323,54 325,55 335,62 340,55 330,48 327,47 322,44 316,42 312,40 308,47"/>
<polygon class="pen1 brush2" points="357,6 360,11 359,36 367,36 368,10 368,9 368,8 364,2 357,6"/>
<polygon class="pen1 brush2" points="388,65 411,42 405,36 382,59 388,65"/>
<polygon class="pen1 brush2" points="254,77 261,78 262,78 262,79 342,144 347,138 266,71 265,71 264,71 255,69 254,77"/>
<polygon class="pen1 brush2" points="259,76 267,102 267,105 270,105 288,106 288,106 288,108 288,129 288,132 290,133 297,136 298,136 298,137 294,150 301,153 306,135 307,132 304,130 297,127 296,126 296,126 297,103 297,99 293,98 275,97 274,97 274,96 267,73 259,76"/>
<polygon class="pen1 brush2" points="420,83 422,95 418,104 417,108 420,110 431,115 432,116 432,117 428,122 427,125 428,127 438,141 438,142 438,143 438,150 446,150 446,141 446,139 446,138 437,125 437,125 437,124 442,116 444,113 440,110 428,104 427,104 428,103 430,97 430,96 430,95 428,82 420,83"/>
<polygon class="pen1 brush2" points="168,132 161,128 162,129 152,121 149,119 142,113 132,105 121,96 109,88 99,80 92,74 89,72 88,70 85,71 74,75 73,75 72,76 47,108 48,107 26,123 25,123 25,123 0,145 5,151 31,129 30,130 52,114 53,114 53,113 77,84 78,82 78,82 85,80 86,80 87,80 147,127 149,128 152,131 155,134 157,135 157,135 157,135 165,139 168,132"/>
<polygon class="pen1 brush2" points="82,77 83,100 83,103 86,104 96,107 97,107 97,107 97,107 97,108 97,109 96,117 96,121 96,124 97,125 98,126 99,126 100,127 101,127 103,127 106,128 110,128 114,129 114,129 114,129 114,129 115,129 115,129 116,129 116,130 116,130 134,148 140,142 120,122 119,121 118,121 115,120 112,120 108,120 105,119 105,119 105,119 105,119 104,119 103,119 103,118 104,118 104,118 104,115 105,111 105,108 106,105 106,101 103,100 92,97 91,97 91,96 90,76 82,77"/>
</g>
</svg>
