<?xml version="1.0" encoding="UTF-8" standalone="no"?>
<!DOCTYPE svg PUBLIC "-//W3C//DTD SVG 1.0//EN" "http://www.w3.org/TR/2001/REC-SVG-20010904/DTD/svg10.dtd">
<svg xmlns="http://www.w3.org/2000/svg" xmlns:xlink="http://www.w3.org/1999/xlink" fill-rule="evenodd" height="0.529in" preserveAspectRatio="none" stroke-linecap="round" viewBox="0 0 507 529" width="0.507in">
<style type="text/css">
.brush0 { fill: rgb(255,255,255); }
.pen0 { stroke: rgb(0,0,0); stroke-width: 1; stroke-linejoin: round; }
.brush1 { fill: none; }
.pen1 { stroke: none; }
.brush2 { fill: rgb(0,0,0); }
</style>
<g>
<polygon class="pen1 brush2" points="507,507 507,0 0,0 0,507 507,507"/>
<polygon class="pen1 brush0" points="254,418 241,418 227,416 214,414 202,411 189,407 177,402 165,397 154,391 75,529 433,529 353,391 342,397 330,402 318,407 306,411 293,414 280,416 267,418 254,418"/>
<polygon class="pen1 brush0" points="218,283 240,243 235,239 231,233 228,227 227,220 229,209 235,201 243,195 254,193 265,195 273,201 279,209 281,220 280,227 277,233 273,239 267,243 290,283 298,278 304,271 311,264 316,257 320,248 323,239 325,230 326,220 325,205 320,191 314,179 305,168 294,159 282,153 269,148 254,147 239,148 226,153 213,159 203,168 194,179 187,191 182,205 181,220 182,230 184,239 187,248 191,257 197,264 203,271 210,278 218,283"/>
<polygon class="pen1 brush0" points="267,243 254,220 240,243 243,244 247,246 250,247 254,247 258,247 261,246 264,244 267,243"/>
<polygon class="pen1 brush0" points="254,292 249,292 244,291 240,291 235,290 230,288 226,287 222,285 218,283 186,338 194,342 202,345 210,349 218,351 227,353 236,355 245,356 254,356 263,356 272,355 281,353 289,351 298,348 306,345 313,341 321,337 290,283 286,285 282,287 278,288 273,290 268,291 264,291 259,292 254,292"/>
<polygon class="pen1 brush0" points="154,391 186,338 171,328 158,316 146,303 137,289 129,273 123,256 119,238 118,220 121,192 129,167 141,144 158,123 178,107 201,95 227,87 254,84 281,87 306,95 329,107 349,123 366,144 378,167 386,192 389,220 388,238 384,256 378,273 370,289 361,303 349,316 336,327 321,337 353,391 374,377 393,361 410,342 425,320 436,297 445,273 450,247 452,220 451,199 448,180 443,160 436,142 428,124 418,108 407,93 394,78 380,65 365,54 348,44 331,36 313,29 294,24 274,21 254,20 234,21 214,24 195,29 176,36 159,44 142,54 127,65 113,78 100,93 88,108 78,124 70,142 63,160 58,180 55,199 54,220 56,247 61,273 70,298 82,321 96,342 113,361 133,377 154,391"/>
</g>
</svg>
