<?xml version="1.0" encoding="UTF-8" standalone="no"?>
<!DOCTYPE svg PUBLIC "-//W3C//DTD SVG 1.0//EN" "http://www.w3.org/TR/2001/REC-SVG-20010904/DTD/svg10.dtd">
<svg xmlns="http://www.w3.org/2000/svg" xmlns:xlink="http://www.w3.org/1999/xlink" fill-rule="evenodd" height="1.0in" preserveAspectRatio="none" stroke-linecap="round" viewBox="0 0 461 1000" width="0.461in">
<style type="text/css">
.brush0 { fill: rgb(255,255,255); }
.pen0 { stroke: rgb(0,0,0); stroke-width: 1; stroke-linejoin: round; }
.brush1 { fill: none; }
.pen1 { stroke: none; }
.brush2 { fill: rgb(0,0,0); }
</style>
<g>
<polygon class="pen1 brush2" points="178,963 170,949 166,928 165,902 167,871 172,836 177,798 183,758 189,715 193,672 196,629 196,586 192,545 184,506 170,469 151,437 125,409 106,396 87,389 70,386 53,385 39,383 26,378 17,369 10,352 13,340 26,337 46,339 70,347 95,357 118,368 134,378 142,386 149,399 156,412 165,425 173,437 181,449 187,462 192,474 195,486 195,468 183,424 164,364 140,295 114,225 91,162 73,113 64,87 89,130 110,173 129,218 145,263 161,309 175,356 188,404 202,453 212,420 220,374 225,317 230,255 234,193 241,135 250,85 263,48 268,44 276,42 286,43 297,45 307,47 315,50 321,53 323,54 317,79 307,122 293,178 278,242 264,308 253,372 247,428 249,471 265,413 283,354 302,295 321,236 342,177 364,118 386,59 408,0 409,4 412,10 414,17 412,21 395,78 376,136 356,193 335,251 315,309 296,367 280,425 267,483 278,467 289,450 300,432 312,413 324,394 336,374 349,354 361,333 374,313 387,294 399,274 412,256 425,238 437,222 449,207 461,193 451,224 442,252 433,280 421,312 404,351 380,399 348,460 306,537 303,612 306,684 311,753 317,815 322,869 324,913 321,945 310,963 301,969 292,974 284,979 277,983 270,987 264,990 258,992 253,994 245,997 238,998 232,999 228,998 220,996 214,991 209,984 206,977 201,970 196,965 189,962 178,963"/>
</g>
</svg>
