<?xml version="1.0" encoding="UTF-8" standalone="no"?>
<!DOCTYPE svg PUBLIC "-//W3C//DTD SVG 1.0//EN" "http://www.w3.org/TR/2001/REC-SVG-20010904/DTD/svg10.dtd">
<svg xmlns="http://www.w3.org/2000/svg" xmlns:xlink="http://www.w3.org/1999/xlink" fill-rule="evenodd" height="1.0in" preserveAspectRatio="none" stroke-linecap="round" viewBox="0 0 403 1000" width="0.403in">
<style type="text/css">
.brush0 { fill: rgb(255,255,255); }
.pen0 { stroke: rgb(0,0,0); stroke-width: 1; stroke-linejoin: round; }
.brush1 { fill: none; }
.pen1 { stroke: none; }
.brush2 { fill: rgb(0,0,0); }
</style>
<g>
<polygon class="pen1 brush2" points="224,1000 216,970 205,942 193,915 178,889 161,864 144,840 126,815 107,791 89,767 71,743 54,717 39,691 26,664 14,636 6,606 0,575 123,629 117,597 115,566 118,534 125,503 135,472 147,440 161,408 176,375 192,383 207,406 223,438 237,476 250,516 261,553 269,584 274,604 288,593 300,581 311,568 321,555 331,544 344,535 359,529 378,527 381,557 381,586 379,616 374,646 368,675 359,705 349,735 337,765 324,794 311,824 296,853 282,883 267,912 252,942 238,971 224,1000 224,1000"/>
<polygon class="pen1 brush2" points="58,230 49,209 44,188 44,166 46,143 51,121 59,98 68,76 79,55 92,44 106,34 122,25 138,17 156,10 174,6 192,4 211,4 232,14 250,24 268,35 283,47 297,62 308,79 318,98 326,121 331,138 334,157 334,176 332,195 328,213 322,231 312,246 301,260 295,272 286,283 275,292 262,299 248,305 233,309 220,311 207,311 190,314 169,311 147,302 125,290 103,275 84,260 68,244 58,230"/>
</g>
</svg>
