<?xml version="1.0" encoding="UTF-8" standalone="no"?>
<!DOCTYPE svg PUBLIC "-//W3C//DTD SVG 1.0//EN" "http://www.w3.org/TR/2001/REC-SVG-20010904/DTD/svg10.dtd">
<svg xmlns="http://www.w3.org/2000/svg" xmlns:xlink="http://www.w3.org/1999/xlink" fill-rule="evenodd" height="1.007in" preserveAspectRatio="none" stroke-linecap="round" viewBox="0 0 629 1007" width="0.629in">
<style type="text/css">
.brush0 { fill: rgb(255,255,255); }
.pen0 { stroke: rgb(0,0,0); stroke-width: 1; stroke-linejoin: round; }
.brush1 { fill: none; }
.pen1 { stroke: none; }
.brush2 { fill: rgb(0,0,0); }
</style>
<g>
<polygon class="pen1 brush2" points="3,1001 3,754 3,506 2,257 0,7 13,7 26,6 39,6 53,6 66,5 80,5 94,5 109,5 123,5 137,4 151,4 165,4 179,3 193,2 207,1 220,0 215,9 206,19 195,29 182,41 167,53 152,66 135,80 119,95 102,111 87,128 74,147 62,166 53,188 47,210 45,234 47,260 52,281 61,300 73,317 88,333 104,347 121,361 139,375 158,388 176,402 192,416 208,432 221,448 231,466 238,487 241,509 240,534 235,556 226,575 215,593 202,610 188,625 173,640 157,655 142,669 127,684 114,700 102,717 93,736 87,756 84,778 85,803 91,831 94,837 100,845 108,855 119,867 132,880 146,894 161,909 177,924 193,939 209,953 224,966 239,978 252,989 264,997 273,1003 280,1007 3,1001 3,1001"/>
<polygon class="pen1 brush2" points="355,1001 507,1001 461,973 422,946 388,919 360,893 338,867 321,841 309,815 303,789 302,762 305,734 314,705 327,675 345,644 368,612 394,577 425,541 438,524 444,506 445,489 441,472 433,456 422,439 408,422 392,404 375,387 358,369 341,351 325,332 311,313 300,293 291,272 287,250 287,229 291,208 297,186 307,165 318,144 331,124 345,105 359,87 374,70 388,55 401,41 413,29 423,19 431,11 436,6 437,3 277,0 238,36 207,70 183,102 166,131 155,159 149,186 149,212 154,238 162,264 175,290 191,317 209,345 230,375 253,407 276,440 301,477 310,496 315,514 315,531 311,548 304,564 294,580 282,596 269,612 255,628 240,644 226,660 213,678 202,696 192,715 185,735 182,756 182,780 185,802 191,821 200,839 210,855 223,869 236,883 251,896 266,908 281,920 296,932 311,944 324,957 336,970 347,985 355,1001 355,1001"/>
<polygon class="pen1 brush2" points="415,706 429,684 449,666 472,649 497,631 520,612 540,590 555,564 561,531 560,503 554,478 544,456 530,436 514,417 496,399 477,383 458,366 439,350 421,333 406,315 393,296 383,275 377,253 377,227 382,199 393,172 409,146 429,121 453,97 477,73 500,49 522,25 541,0 552,0 563,0 573,0 584,0 595,0 606,0 617,0 629,0 625,1001 605,999 585,992 564,982 543,969 522,952 502,933 482,913 465,890 448,867 434,842 423,818 414,793 409,770 407,747 409,725 415,706"/>
</g>
</svg>
