<?xml version="1.0" encoding="UTF-8" standalone="no"?>
<!DOCTYPE svg PUBLIC "-//W3C//DTD SVG 1.0//EN" "http://www.w3.org/TR/2001/REC-SVG-20010904/DTD/svg10.dtd">
<svg xmlns="http://www.w3.org/2000/svg" xmlns:xlink="http://www.w3.org/1999/xlink" fill-rule="evenodd" height="0.499in" preserveAspectRatio="none" stroke-linecap="round" viewBox="0 0 388 499" width="0.388in">
<style type="text/css">
.brush0 { fill: rgb(255,255,255); }
.pen0 { stroke: rgb(0,0,0); stroke-width: 1; stroke-linejoin: round; }
.brush1 { fill: none; }
.pen1 { stroke: none; }
.brush2 { fill: rgb(0,0,0); }
</style>
<g>
<polygon class="pen1 brush2" points="53,499 186,0 317,499 53,499"/>
<polygon class="pen1 brush2" points="193,238 178,238 164,237 150,237 136,236 123,235 110,233 97,232 85,230 72,228 61,225 49,223 39,220 28,217 18,214 9,211 0,208 0,252 9,255 18,258 28,261 39,264 50,267 61,269 73,271 85,273 97,275 110,277 123,278 137,279 151,280 164,280 179,281 193,281 208,281 222,280 236,280 250,279 264,278 278,276 291,275 303,273 316,270 327,268 339,266 350,263 360,260 370,257 379,253 388,250 388,207 379,210 370,214 360,217 350,220 339,223 327,225 316,227 303,230 291,232 278,233 264,235 250,236 236,237 222,237 208,238 193,238"/>
<polygon class="pen1 brush0" points="112,277 122,278 132,279 142,280 152,280 162,281 172,281 183,281 193,281 202,281 210,281 218,281 226,280 234,280 242,279 250,279 258,278 247,236 241,236 234,237 227,237 221,237 214,238 207,238 200,238 193,238 184,238 175,238 166,238 158,237 149,237 140,236 132,236 123,235 112,277"/>
<polygon class="pen1 brush0" points="186,371 195,369 203,364 208,357 210,348 208,338 203,330 195,325 186,323 176,325 168,330 163,338 161,348 163,357 168,364 176,369 186,371"/>
</g>
</svg>
