<?xml version="1.0" encoding="UTF-8" standalone="no"?>
<!DOCTYPE svg PUBLIC "-//W3C//DTD SVG 1.0//EN" "http://www.w3.org/TR/2001/REC-SVG-20010904/DTD/svg10.dtd">
<svg xmlns="http://www.w3.org/2000/svg" xmlns:xlink="http://www.w3.org/1999/xlink" fill-rule="evenodd" height="0.912in" preserveAspectRatio="none" stroke-linecap="round" viewBox="0 0 1009 912" width="1.009in">
<style type="text/css">
.brush0 { fill: rgb(255,255,255); }
.pen0 { stroke: rgb(0,0,0); stroke-width: 1; stroke-linejoin: round; }
.brush1 { fill: none; }
.pen1 { stroke: none; }
.brush2 { fill: rgb(0,0,0); }
</style>
<g>
<polygon class="pen1 brush2" points="202,317 200,321 194,333 186,352 176,378 166,409 157,445 151,486 147,529 148,576 154,624 166,673 187,723 216,773 255,821 305,868 368,912 366,910 361,905 353,896 343,885 331,872 318,857 304,840 289,821 274,802 260,783 246,763 234,744 224,725 215,707 210,691 208,676 209,678 214,684 220,693 229,704 240,718 252,733 266,749 280,766 294,782 309,798 324,813 339,825 352,836 365,843 376,848 386,848 383,846 375,838 363,827 348,811 330,791 311,768 291,741 272,711 253,678 237,642 224,604 216,563 212,521 213,477 222,431 238,384 243,375 251,365 262,352 275,339 290,324 307,307 326,289 345,270 365,249 385,227 406,204 426,180 445,154 464,128 481,100 496,72 495,73 491,78 484,86 474,97 462,111 449,127 433,144 417,162 399,180 380,199 360,217 341,233 321,249 302,262 283,272 265,280 263,277 257,267 251,248 246,221 247,184 254,135 272,74 302,0 298,5 286,18 270,40 252,70 235,108 222,154 216,206 218,266 217,282 211,299 205,312 202,317"/>
<polygon class="pen1 brush2" points="287,224 284,220 284,213 285,204 289,192 294,179 301,165 309,149 319,133 330,118 340,104 351,91 360,81 369,73 377,68 383,66 388,67 391,71 391,78 390,87 386,98 381,111 374,126 366,141 356,157 345,173 335,187 325,199 315,210 306,217 298,223 292,225 287,224"/>
<polygon class="pen1 brush2" points="807,317 809,321 815,333 823,352 833,378 843,409 852,445 858,486 862,529 861,576 855,624 843,673 822,723 793,773 754,821 704,868 641,912 648,905 666,885 691,857 720,821 749,783 775,744 793,707 800,676 799,678 794,684 788,693 779,704 768,718 756,733 743,749 728,766 714,782 699,798 684,813 670,825 656,836 644,843 632,848 623,848 626,846 634,838 646,827 661,811 679,791 698,768 718,741 738,711 756,678 772,642 785,604 793,563 797,521 796,477 787,431 771,384 766,375 758,365 747,352 734,339 719,324 702,307 684,289 664,270 644,249 624,227 604,204 584,180 564,154 546,128 529,100 514,72 515,73 519,78 526,86 535,97 547,111 560,127 576,144 592,162 610,180 629,199 648,217 668,233 688,249 707,262 726,272 744,280 746,277 752,267 758,248 763,221 762,184 755,135 737,74 707,0 711,5 723,18 739,40 757,70 773,108 786,154 793,206 790,266 792,282 798,299 804,312 807,317"/>
<polygon class="pen1 brush2" points="721,224 724,220 725,213 723,204 720,192 714,179 707,165 699,149 689,133 679,118 668,104 658,91 649,81 640,73 632,68 625,66 620,67 617,71 617,78 619,87 622,98 627,111 634,126 642,141 652,157 663,173 673,187 684,199 693,210 702,217 710,223 716,225 721,224"/>
<polygon class="pen1 brush2" points="539,486 541,485 542,484 544,484 546,484 550,482 554,480 557,478 561,475 565,473 569,471 574,469 578,466 585,461 593,455 600,449 607,442 614,435 620,428 626,421 631,413 633,411 634,408 636,406 637,404 640,399 643,394 645,389 648,384 649,382 650,379 651,377 652,374 650,392 647,409 642,426 636,443 629,460 621,476 612,491 601,507 597,511 594,516 590,520 586,525 580,530 576,535 571,540 566,544 570,550 575,556 579,562 584,568 585,568 585,569 585,570 586,571 587,572 588,573 590,574 591,575 602,586 614,596 626,604 639,612 653,618 667,624 681,628 696,631 684,632 673,633 661,634 649,633 637,633 625,632 613,630 601,627 596,625 591,624 587,622 582,621 577,619 573,618 568,616 563,614 560,612 556,610 553,609 549,607 548,606 546,605 545,604 543,603 543,603 542,602 541,602 540,601 539,600 539,600 538,600 537,600 532,596 527,593 522,590 517,586 504,602 492,619 482,638 474,657 468,677 464,698 463,719 464,740 450,694 446,646 450,599 464,553 463,552 461,551 460,551 458,551 457,551 456,550 455,550 455,549 454,549 453,548 452,548 451,548 450,548 450,547 449,547 448,547 435,544 423,541 410,540 397,539 385,539 372,540 359,541 346,543 345,543 344,544 343,545 343,545 336,546 330,548 324,549 318,551 312,553 306,556 300,558 294,560 298,558 301,555 304,552 308,549 317,542 327,536 337,530 347,524 357,519 368,514 378,510 389,506 400,503 411,500 422,498 433,496 444,495 455,494 467,493 478,493 476,474 473,456 468,438 461,421 453,404 443,389 432,373 420,359 417,356 414,353 411,350 408,348 407,347 405,345 404,344 402,342 419,351 434,360 450,371 464,382 478,395 491,408 503,423 514,439 514,440 515,440 516,441 517,442 519,445 521,449 522,452 525,456 529,463 533,471 536,478 539,486 539,486"/>
</g>
</svg>
