<?xml version="1.0" encoding="UTF-8" standalone="no"?>
<!DOCTYPE svg PUBLIC "-//W3C//DTD SVG 1.0//EN" "http://www.w3.org/TR/2001/REC-SVG-20010904/DTD/svg10.dtd">
<svg xmlns="http://www.w3.org/2000/svg" xmlns:xlink="http://www.w3.org/1999/xlink" fill-rule="evenodd" height="1.005in" preserveAspectRatio="none" stroke-linecap="round" viewBox="0 0 1045 1005" width="1.045in">
<style type="text/css">
.brush0 { fill: rgb(255,255,255); }
.pen0 { stroke: rgb(0,0,0); stroke-width: 1; stroke-linejoin: round; }
.brush1 { fill: none; }
.pen1 { stroke: none; }
.brush2 { fill: rgb(0,0,0); }
</style>
<g>
<polygon class="pen1 brush2" points="497,402 492,434 486,464 478,492 468,518 458,542 446,563 433,583 419,600 404,616 389,629 373,641 357,650 340,657 324,663 307,666 291,667 271,666 253,662 237,656 222,648 208,637 196,624 185,608 176,590 158,621 144,651 136,680 135,706 140,731 154,753 177,771 210,787 221,796 226,810 227,828 224,848 220,869 215,889 210,905 207,918 163,914 128,909 101,902 82,890 69,873 61,848 57,813 56,767 58,726 64,686 75,649 89,613 106,578 126,546 150,516 176,488 205,463 236,440 269,419 304,401 340,386 378,374 416,364 456,358 453,326 444,292 430,261 414,236 399,223 388,225 382,247 385,293 385,306 381,316 374,326 365,333 353,338 340,342 326,343 311,342 296,339 281,334 268,327 256,316 245,304 237,289 233,271 231,250 232,229 233,209 232,189 229,172 222,157 210,146 192,139 166,136 138,140 115,150 98,164 87,180 83,194 84,206 92,211 107,208 137,203 154,215 159,238 154,263 139,287 116,300 87,298 51,274 36,255 28,234 26,213 30,193 38,173 51,154 66,137 84,122 117,102 150,88 184,80 218,78 251,80 284,87 316,99 347,115 376,135 402,158 426,185 448,215 466,247 480,282 491,319 497,358 497,358 497,358 508,358 519,359 530,360 541,361 552,362 563,364 573,366 584,368 595,370 606,372 617,374 627,377 638,379 649,381 659,383 670,385 633,339 607,297 593,259 589,225 593,196 605,172 622,151 644,136 670,124 698,117 727,115 756,117 783,123 808,134 828,149 843,169 826,178 807,191 789,204 775,217 768,226 771,231 786,227 816,214 839,208 864,211 889,221 912,236 933,254 949,275 960,296 964,315 949,332 937,345 925,354 916,360 907,363 899,364 892,363 884,361 877,357 869,353 861,348 851,343 841,338 828,334 814,332 798,331 802,339 809,346 818,354 828,360 837,366 845,371 850,376 852,379 848,382 841,386 832,390 821,395 807,400 792,407 775,413 755,421 768,426 779,431 791,435 801,438 811,441 821,443 831,444 840,445 850,445 859,445 870,445 880,444 891,443 903,441 915,439 929,437 947,441 965,454 982,475 996,500 1006,526 1008,552 1002,573 985,588 976,592 968,594 959,596 950,596 941,597 932,596 923,596 914,596 941,622 964,636 982,644 997,649 1007,659 1014,679 1018,715 1019,771 1016,811 1009,844 999,869 985,889 969,902 952,910 934,913 917,912 901,907 887,899 875,887 867,874 863,859 864,842 871,825 885,807 894,800 902,794 911,791 920,789 930,788 939,789 949,791 960,795 962,788 962,778 959,766 954,754 947,743 940,734 933,727 926,725 919,726 913,727 906,729 899,731 893,732 887,733 881,731 875,728 878,704 878,681 875,660 874,637 850,685 830,720 813,742 800,754 789,756 780,749 772,736 766,716 760,692 754,665 748,636 741,606 733,577 723,549 711,525 696,505 692,540 694,575 697,610 697,645 693,645 689,644 685,643 680,642 675,640 670,638 665,635 659,632 666,646 674,662 682,678 689,695 694,712 694,728 689,744 678,758 658,771 644,772 635,763 630,748 626,729 623,709 618,691 611,678 605,686 603,698 604,713 605,729 607,746 607,762 605,776 600,787 586,768 568,751 549,735 529,718 511,701 496,682 486,661 482,637 483,618 486,601 491,585 498,570 506,556 515,543 526,530 538,518 551,507 564,497 578,487 593,477 607,467 622,458 637,448 651,439 640,431 626,424 610,418 592,413 572,409 549,405 524,403 497,402 458,406 445,409 428,413 409,418 387,425 364,434 340,443 317,454 295,466 274,478 255,492 240,507 228,522 221,537 220,553 224,570 236,587 253,602 270,610 288,613 307,611 326,604 344,594 362,580 379,564 395,545 410,525 424,504 435,483 445,462 452,442 456,423 458,406 497,402"/>
</g>
</svg>
