<?xml version="1.0" encoding="UTF-8" standalone="no"?>
<!DOCTYPE svg PUBLIC "-//W3C//DTD SVG 1.0//EN" "http://www.w3.org/TR/2001/REC-SVG-20010904/DTD/svg10.dtd">
<svg xmlns="http://www.w3.org/2000/svg" xmlns:xlink="http://www.w3.org/1999/xlink" fill-rule="evenodd" height="0.798in" preserveAspectRatio="none" stroke-linecap="round" viewBox="0 0 475 798" width="0.475in">
<style type="text/css">
.brush0 { fill: rgb(255,255,255); }
.pen0 { stroke: rgb(0,0,0); stroke-width: 1; stroke-linejoin: round; }
.brush1 { fill: none; }
.pen1 { stroke: none; }
.brush2 { fill: rgb(0,0,0); }
</style>
<g>
<polygon class="pen1 brush2" points="90,125 101,123 113,125 127,131 142,141 158,155 175,172 193,193 211,216 230,243 250,273 269,305 289,339 308,376 328,414 347,455 365,497 382,539 398,580 413,620 425,659 437,696 446,732 455,766 461,798 464,764 463,723 458,677 448,626 435,571 417,513 396,453 371,391 352,349 333,309 313,270 293,234 272,200 252,168 231,139 211,113 191,90 171,70 152,54 134,41 117,32 100,27 85,26 72,29 51,47 38,79 34,124 38,179 50,245 72,318 102,398 142,484 143,480 134,446 119,392 103,326 87,258 78,196 77,148 90,125"/>
<polygon class="pen1 brush2" points="226,536 217,545 207,552 197,559 186,564 175,569 163,572 151,574 140,575 128,575 116,573 104,571 93,567 82,562 71,556 61,549 51,541 35,522 23,501 16,478 13,455 15,431 21,408 32,386 47,366 56,357 66,350 76,343 87,338 98,334 110,331 122,329 133,328 145,328 157,330 169,332 180,336 191,341 202,347 212,354 222,362 238,381 250,402 258,425 260,449 259,472 252,495 241,517 226,536"/>
<polygon class="pen1 brush0" points="186,499 170,513 153,524 135,532 115,536 95,538 75,537 56,532 37,525 40,529 44,533 47,537 51,541 52,542 53,542 54,543 55,544 74,553 95,558 115,560 136,559 156,555 176,547 194,535 210,521 224,504 234,486 241,466 245,446 245,425 242,405 236,385 226,366 225,365 224,364 223,363 222,362 218,358 214,355 209,351 205,348 214,367 219,386 221,406 221,426 217,446 210,465 199,483 186,499"/>
</g>
</svg>
