<?xml version="1.0" encoding="UTF-8" standalone="no"?>
<!DOCTYPE svg PUBLIC "-//W3C//DTD SVG 1.0//EN" "http://www.w3.org/TR/2001/REC-SVG-20010904/DTD/svg10.dtd">
<svg xmlns="http://www.w3.org/2000/svg" xmlns:xlink="http://www.w3.org/1999/xlink" fill-rule="evenodd" height="0.971in" preserveAspectRatio="none" stroke-linecap="round" viewBox="0 0 1059 971" width="1.059in">
<style type="text/css">
.brush0 { fill: rgb(255,255,255); }
.pen0 { stroke: rgb(0,0,0); stroke-width: 1; stroke-linejoin: round; }
.brush1 { fill: none; }
.pen1 { stroke: none; }
.brush2 { fill: rgb(0,0,0); }
</style>
<g>
<polygon class="pen1 brush2" points="248,752 295,761 328,785 347,819 354,857 347,896 327,930 294,954 248,963 202,954 169,930 149,896 142,857 149,819 168,785 201,761 248,752 234,791 217,794 205,803 198,815 196,829 199,844 206,856 218,865 234,868 234,868 234,868 250,865 262,856 269,844 271,829 269,815 262,803 250,794 234,791 248,752"/>
<polygon class="pen1 brush2" points="919,232 958,240 987,260 1003,290 1009,323 1003,356 987,386 958,406 919,414 879,406 851,386 834,356 828,323 834,290 851,260 879,240 919,232 903,267 888,270 877,278 870,289 868,302 870,315 876,326 887,334 903,337 903,337 918,334 929,326 936,315 938,302 936,289 929,278 918,270 903,267 919,232"/>
<polygon class="pen1 brush2" points="1037,926 1059,926 1059,961 1043,961 1027,961 1011,961 995,962 979,962 963,962 947,962 931,962 914,962 898,961 882,960 866,959 850,957 834,955 819,953 803,950 786,947 769,944 752,941 735,939 718,938 701,936 684,935 667,935 650,935 632,935 615,936 598,937 581,939 564,941 547,944 530,947 514,951 499,954 483,957 467,960 451,961 436,960 420,957 405,951 415,934 423,918 430,904 436,891 441,880 444,871 446,863 446,856 442,837 436,817 428,798 417,780 405,763 391,747 375,732 358,718 340,707 321,697 302,690 282,686 262,684 241,685 221,689 201,697 195,700 190,703 184,705 178,708 172,709 166,710 160,710 154,708 156,700 160,690 166,680 174,670 182,661 191,651 198,643 204,637 220,611 229,580 230,548 224,515 212,484 194,457 172,435 144,421 120,413 103,405 92,398 86,391 85,385 87,379 93,374 101,368 111,362 123,355 135,349 147,341 158,333 168,325 176,315 181,304 188,276 191,247 190,217 184,187 174,159 160,133 142,111 120,93 102,81 88,70 80,61 75,53 74,46 76,41 81,37 89,34 98,32 109,31 122,30 135,31 148,32 162,34 175,36 187,39 201,43 215,48 229,54 243,60 258,67 273,74 287,81 302,87 317,93 331,98 346,103 360,106 374,108 388,108 402,106 416,103 432,97 447,91 462,84 475,77 488,70 501,65 513,60 524,56 534,55 544,55 553,59 562,64 570,74 578,86 585,103 591,124 595,139 601,158 609,179 618,200 629,220 642,237 656,250 671,258 684,260 697,262 710,262 723,263 736,263 749,265 762,267 774,270 772,293 769,315 765,336 762,356 763,376 769,397 781,417 802,439 819,452 836,461 853,467 871,470 888,471 905,470 922,468 938,465 954,462 969,458 984,455 998,453 1011,452 1023,453 1034,457 1044,463 1042,471 1040,478 1037,483 1033,488 1029,492 1024,496 1018,501 1010,506 990,523 974,542 961,563 951,586 944,609 941,633 941,657 943,682 949,706 957,729 968,751 981,772 997,791 1016,809 1036,823 1059,835 1059,868 1008,860 961,845 915,823 872,795 831,762 792,725 754,684 718,640 683,594 649,548 616,502 583,456 550,412 517,370 484,331 451,297 438,285 426,273 413,261 401,250 388,238 375,227 362,215 349,204 335,194 321,183 307,173 293,164 278,155 263,146 247,138 231,131 264,163 295,195 324,228 353,261 380,296 406,330 432,365 457,400 482,436 506,472 531,508 556,543 581,579 606,615 633,650 660,685 676,705 694,725 713,745 734,766 755,787 778,807 802,826 826,844 851,861 877,877 903,891 930,903 957,913 983,920 1010,924 1037,926 1037,926 1037,926"/>
<polygon class="pen1 brush2" points="775,24 814,32 842,52 858,81 864,114 858,148 842,177 814,197 775,205 736,197 708,177 691,148 685,114 691,81 708,52 736,32 775,24 781,49 767,52 756,60 750,71 748,83 750,96 757,107 767,115 782,118 782,118 796,115 807,107 813,96 815,83 813,71 807,60 796,52 781,49 775,24"/>
</g>
</svg>
