<?xml version="1.0" encoding="UTF-8" standalone="no"?>
<!DOCTYPE svg PUBLIC "-//W3C//DTD SVG 1.0//EN" "http://www.w3.org/TR/2001/REC-SVG-20010904/DTD/svg10.dtd">
<svg xmlns="http://www.w3.org/2000/svg" xmlns:xlink="http://www.w3.org/1999/xlink" fill-rule="evenodd" height="0.814in" preserveAspectRatio="none" stroke-linecap="round" viewBox="0 0 258 814" width="0.258in">
<style type="text/css">
.brush0 { fill: rgb(255,255,255); }
.pen0 { stroke: rgb(0,0,0); stroke-width: 1; stroke-linejoin: round; }
.brush1 { fill: none; }
.pen1 { stroke: none; }
.brush2 { fill: rgb(0,0,0); }
</style>
<g>
<polygon class="pen1 brush2" points="45,535 47,589 54,636 64,676 77,709 90,735 104,754 118,765 130,769 136,768 142,765 148,761 153,756 164,742 175,724 185,702 195,675 203,645 209,612 213,575 214,535 258,535 255,591 248,644 236,691 220,732 201,766 180,792 156,808 130,814 104,808 79,792 57,766 38,732 22,691 10,644 3,591 0,535 45,535"/>
<polygon class="pen1 brush2" points="45,476 46,436 50,399 56,366 64,335 74,309 84,286 95,268 107,254 112,250 117,246 123,243 130,242 136,243 142,246 148,250 153,254 164,268 175,286 185,309 195,335 203,366 209,399 213,436 214,476 258,476 255,420 248,367 236,320 220,279 201,245 180,219 156,203 130,197 104,203 79,219 57,245 38,279 22,320 10,367 3,420 0,476 45,476"/>
<polygon class="pen1 brush2" points="89,734 90,629 92,532 95,443 98,364 103,295 108,235 113,187 119,151 121,139 124,128 127,120 130,117 133,120 136,128 139,139 141,151 152,235 161,364 168,532 170,734 191,734 190,586 186,448 181,324 173,215 164,125 154,58 142,15 130,0 118,15 106,58 95,125 86,215 79,324 73,448 69,586 68,734 89,734"/>
<polygon class="pen1 brush0" points="106,255 108,240 109,226 111,213 112,200 105,202 99,205 92,209 86,214 85,233 83,252 82,273 80,294 86,282 93,271 99,262 106,255"/>
<polygon class="pen1 brush0" points="178,294 177,273 176,252 174,233 172,214 167,209 161,205 155,202 148,200 149,213 151,226 152,240 153,255 160,262 166,271 172,282 178,294"/>
</g>
</svg>
