<?xml version="1.0" encoding="UTF-8" standalone="no"?>
<!DOCTYPE svg PUBLIC "-//W3C//DTD SVG 1.0//EN" "http://www.w3.org/TR/2001/REC-SVG-20010904/DTD/svg10.dtd">
<svg xmlns="http://www.w3.org/2000/svg" xmlns:xlink="http://www.w3.org/1999/xlink" fill-rule="evenodd" height="1.023in" preserveAspectRatio="none" stroke-linecap="round" viewBox="0 0 866 1023" width="0.866in">
<style type="text/css">
.brush0 { fill: rgb(255,255,255); }
.pen0 { stroke: rgb(0,0,0); stroke-width: 1; stroke-linejoin: round; }
.brush1 { fill: none; }
.pen1 { stroke: none; }
.brush2 { fill: rgb(0,0,0); }
</style>
<g>
<polygon class="pen1 brush2" points="702,324 714,311 721,297 724,281 722,266 717,251 709,238 698,226 685,217 735,140 771,166 796,195 810,226 816,259 813,293 805,328 791,364 774,400 669,452 660,449 650,446 639,445 628,444 616,445 603,447 589,450 575,454 561,465 557,482 562,504 573,527 590,549 610,568 633,581 656,586 656,586 656,586 685,581 706,569 718,552 723,530 720,508 710,486 693,466 669,452 774,400 789,426 801,451 809,476 815,501 817,525 816,549 812,571 805,591 795,611 782,628 766,643 746,656 724,667 699,675 672,679 641,681 623,682 610,686 601,692 595,700 589,711 583,722 576,736 566,750 558,757 545,767 530,779 515,792 504,804 499,816 504,825 521,832 538,830 555,826 572,821 589,816 606,809 623,801 640,793 656,784 672,774 688,764 703,753 718,742 732,730 745,719 758,707 770,695 772,693 777,688 783,682 790,675 798,668 804,663 810,659 813,657 813,657 829,663 840,679 845,703 847,730 845,758 842,785 838,806 834,820 821,850 807,875 791,897 774,914 755,929 736,940 716,948 695,953 673,956 650,956 627,954 603,950 579,944 554,937 530,928 505,918 498,921 494,929 492,941 489,954 484,967 476,979 463,987 444,990 422,985 411,974 407,959 404,943 400,930 390,923 371,925 338,940 308,953 278,959 248,961 219,957 191,949 164,937 139,921 116,902 95,880 78,856 63,829 52,801 45,772 43,742 45,712 52,682 62,664 74,658 89,661 104,671 119,685 133,701 146,715 155,725 161,730 171,737 184,747 201,757 219,769 239,781 261,793 282,804 304,814 324,822 343,829 360,832 374,833 385,830 393,822 395,810 447,705 481,697 501,677 509,648 508,614 498,581 484,552 466,532 448,524 338,501 336,494 331,488 322,481 312,476 299,471 285,467 270,464 254,462 238,462 223,464 209,467 196,473 186,481 177,491 172,504 170,520 172,539 177,556 186,569 196,580 209,588 223,594 238,596 254,596 270,593 285,588 299,580 312,569 322,556 331,540 336,522 338,501 448,524 431,532 412,552 396,581 385,614 381,648 389,677 410,697 447,705 395,810 392,807 384,799 372,787 358,774 343,760 329,746 318,734 311,724 301,709 290,698 279,689 267,683 254,679 241,677 227,675 213,673 199,672 184,670 170,666 155,661 141,654 127,644 114,631 101,614 85,586 77,558 74,531 77,504 84,478 94,452 106,426 120,400 105,369 92,339 82,309 77,279 78,250 85,221 100,193 124,165 187,235 177,251 171,270 171,289 178,307 192,323 214,337 245,346 287,349 287,349 297,349 304,348 310,346 314,344 317,342 319,339 321,336 323,332 327,317 327,298 321,277 309,255 293,235 276,221 259,213 242,209 226,211 212,216 198,224 187,235 124,165 137,154 150,146 163,140 176,135 189,131 202,129 214,127 227,125 239,123 250,120 261,116 272,112 281,105 290,97 298,86 305,73 315,56 328,41 343,28 362,18 381,10 403,5 425,1 448,0 447,89 410,97 390,118 382,147 385,181 396,215 412,244 430,265 448,273 466,265 483,244 498,215 507,181 508,147 501,118 481,97 447,89 448,0 470,1 492,5 513,10 533,19 551,29 566,42 579,57 589,74 601,95 616,108 632,116 651,120 671,123 692,125 714,130 735,140 685,217 674,212 662,210 650,209 637,212 624,217 611,225 598,237 585,252 574,270 564,287 557,303 555,318 557,331 566,340 583,347 608,349 608,349 624,349 639,347 653,345 665,342 676,339 686,334 695,329 702,324"/>
</g>
</svg>
