<?xml version="1.0" encoding="UTF-8" standalone="no"?>
<!DOCTYPE svg PUBLIC "-//W3C//DTD SVG 1.0//EN" "http://www.w3.org/TR/2001/REC-SVG-20010904/DTD/svg10.dtd">
<svg xmlns="http://www.w3.org/2000/svg" xmlns:xlink="http://www.w3.org/1999/xlink" fill-rule="evenodd" height="0.566in" preserveAspectRatio="none" stroke-linecap="round" viewBox="0 0 566 566" width="0.566in">
<style type="text/css">
.brush0 { fill: rgb(255,255,255); }
.pen0 { stroke: rgb(0,0,0); stroke-width: 1; stroke-linejoin: round; }
.brush1 { fill: none; }
.pen1 { stroke: none; }
.brush2 { fill: rgb(0,0,0); }
</style>
<g>
<polygon class="pen1 brush0" points="284,547 311,546 337,542 362,535 386,526 409,515 431,502 452,487 470,470 487,451 503,431 516,409 527,386 536,362 543,336 547,310 548,283 547,256 543,230 536,204 527,180 516,157 503,135 487,115 470,96 452,79 431,63 409,50 386,39 362,30 337,23 311,19 284,18 257,19 230,23 205,30 181,39 157,50 136,63 115,79 96,96 79,115 64,135 51,157 40,180 31,204 24,230 20,256 19,283 20,310 24,336 31,362 40,386 51,409 64,431 79,451 96,470 115,487 136,502 157,515 181,526 205,535 230,542 257,546 284,547"/>
<polygon class="pen1 brush2" points="531,191 526,178 520,165 513,152 506,140 497,128 489,116 479,105 469,95 469,97 407,97 407,159 345,159 345,221 284,221 284,283 222,283 222,345 160,345 160,407 97,407 97,469 96,469 106,479 117,488 128,497 140,505 152,512 165,519 178,525 192,531 375,531 401,519 426,505 449,489 470,470 489,449 506,426 520,401 531,375 531,191"/>
<polygon class="pen1 brush2" points="284,37 272,37 259,38 247,40 235,42 224,44 212,47 201,51 189,55 178,60 168,66 157,71 147,78 137,85 127,92 118,100 109,109 93,127 78,147 66,167 56,189 48,211 42,235 38,259 37,283 38,307 42,331 48,355 56,377 66,399 78,419 93,439 109,457 118,465 127,473 137,481 147,488 157,494 168,500 178,505 189,510 201,515 212,518 224,522 235,524 247,526 259,528 272,529 284,529 309,528 333,524 357,518 379,510 401,499 421,487 440,473 457,457 473,439 487,420 499,400 510,378 518,356 524,332 528,308 529,283 528,259 524,235 519,211 511,189 500,167 488,147 474,127 457,109 448,100 439,92 430,85 420,78 410,71 399,66 389,60 378,55 367,51 355,47 344,44 332,42 320,40 308,38 296,37 284,37 284,0 298,0 312,1 326,3 339,5 353,8 366,12 379,16 392,21 404,27 417,33 428,40 440,47 451,55 462,64 473,73 483,83 502,104 519,126 533,150 545,175 554,201 561,228 565,255 566,283 565,311 561,339 554,365 545,391 533,416 519,440 502,462 483,483 473,493 462,502 451,510 440,518 428,526 417,533 404,539 392,544 379,549 366,554 353,557 339,560 326,563 312,565 298,566 284,566 270,566 256,565 242,563 228,560 215,557 201,554 188,549 175,544 163,539 150,533 138,526 127,518 115,510 104,502 93,493 83,483 64,462 48,440 33,416 22,391 12,365 6,339 1,311 0,283 1,254 6,226 13,199 22,173 34,148 49,125 65,103 84,83 104,65 126,48 149,34 174,22 200,13 227,6 255,1 284,0 284,37"/>
</g>
</svg>
