<?xml version="1.0" encoding="UTF-8" standalone="no"?>
<!DOCTYPE svg PUBLIC "-//W3C//DTD SVG 1.0//EN" "http://www.w3.org/TR/2001/REC-SVG-20010904/DTD/svg10.dtd">
<svg xmlns="http://www.w3.org/2000/svg" xmlns:xlink="http://www.w3.org/1999/xlink" fill-rule="evenodd" height="0.546in" preserveAspectRatio="none" stroke-linecap="round" viewBox="0 0 546 546" width="0.546in">
<style type="text/css">
.brush0 { fill: rgb(255,255,255); }
.pen0 { stroke: rgb(0,0,0); stroke-width: 1; stroke-linejoin: round; }
.brush1 { fill: none; }
.pen1 { stroke: none; }
.brush2 { fill: rgb(0,0,0); }
</style>
<g>
<polygon class="pen1 brush2" points="274,546 302,545 329,540 355,534 380,524 404,513 426,499 447,483 466,466 484,446 499,425 513,403 525,379 534,354 540,328 545,301 546,273 545,245 540,218 534,192 525,167 513,143 499,120 484,99 466,80 447,62 426,47 404,33 380,21 355,12 329,6 302,1 274,0 246,1 219,6 193,12 167,21 144,33 121,47 100,62 80,80 63,99 47,120 33,143 22,167 12,192 6,218 1,245 0,273 1,301 6,328 12,354 22,379 33,403 47,425 63,446 80,466 100,483 121,499 144,513 167,524 193,534 219,540 246,545 274,546"/>
<polygon class="pen1 brush0" points="508,285 488,262 468,244 447,230 427,222 407,216 387,215 369,216 351,219 335,224 320,231 307,238 296,246 287,254 280,262 275,268 274,273 293,260 311,252 328,246 345,244 361,245 376,249 390,254 404,262 417,272 429,283 441,296 452,309 463,323 472,337 481,351 490,365 497,346 502,326 506,306 508,285"/>
<polygon class="pen1 brush0" points="447,115 417,113 390,115 366,120 345,128 328,138 313,151 300,165 290,180 283,195 277,210 273,225 271,239 270,251 270,261 272,269 274,273 278,251 285,232 294,216 304,202 316,192 329,183 343,177 358,173 374,171 391,170 408,170 425,171 442,174 459,177 475,180 491,184 487,175 483,166 478,157 472,148 467,139 460,131 454,123 447,115"/>
<polygon class="pen1 brush0" points="364,56 355,52 346,49 336,46 327,44 317,42 307,40 296,39 286,38 245,79 223,119 216,159 220,195 232,227 247,251 263,267 274,273 261,254 253,236 247,219 245,202 246,186 249,171 255,156 263,143 272,130 283,117 296,106 309,94 322,84 336,74 350,65 364,56"/>
<polygon class="pen1 brush0" points="185,55 175,59 166,64 157,69 148,74 140,80 132,86 124,92 116,99 114,130 115,157 120,181 128,201 139,219 151,234 165,246 180,256 196,264 211,270 226,274 240,276 252,277 262,277 269,275 274,273 232,262 203,243 184,218 174,188 170,156 172,122 178,87 185,55"/>
<polygon class="pen1 brush0" points="57,182 50,201 44,220 41,241 39,262 59,285 79,303 100,316 120,325 140,330 159,332 178,331 196,327 212,322 227,315 241,308 252,300 261,292 268,284 273,278 274,273 255,286 237,294 219,300 202,302 186,301 171,298 157,292 143,284 130,275 118,263 106,251 95,238 84,224 75,210 66,196 57,182"/>
<polygon class="pen1 brush0" points="274,273 269,295 263,314 254,330 244,344 232,354 219,362 204,368 189,373 173,375 156,376 140,376 122,374 105,372 88,369 72,366 56,362 60,371 64,380 69,389 75,398 80,406 86,414 92,422 99,430 130,432 157,431 181,426 201,418 219,407 234,395 247,381 257,366 265,351 271,336 275,321 277,307 278,295 278,285 276,277 274,273"/>
<polygon class="pen1 brush0" points="274,273 286,292 295,310 300,328 302,344 301,360 298,375 292,390 284,404 275,417 263,429 251,441 238,452 224,462 210,472 196,481 182,490 191,494 201,497 211,500 221,502 231,504 241,505 252,506 262,507 303,467 325,426 332,387 328,351 316,319 300,295 285,279 274,273"/>
<polygon class="pen1 brush0" points="274,273 315,284 344,303 363,328 373,358 376,390 375,424 369,458 362,491 371,487 381,482 390,477 398,472 407,466 415,460 423,454 431,447 433,417 431,390 426,366 418,345 408,327 395,312 382,300 367,290 352,282 336,276 322,272 308,270 296,269 286,269 278,271 274,273"/>
</g>
</svg>
