<?xml version="1.0" encoding="UTF-8" standalone="no"?>
<!DOCTYPE svg PUBLIC "-//W3C//DTD SVG 1.0//EN" "http://www.w3.org/TR/2001/REC-SVG-20010904/DTD/svg10.dtd">
<svg xmlns="http://www.w3.org/2000/svg" xmlns:xlink="http://www.w3.org/1999/xlink" fill-rule="evenodd" height="0.953in" preserveAspectRatio="none" stroke-linecap="round" viewBox="0 0 954 953" width="0.954in">
<style type="text/css">
.brush0 { fill: rgb(255,255,255); }
.pen0 { stroke: rgb(0,0,0); stroke-width: 1; stroke-linejoin: round; }
.brush1 { fill: none; }
.pen1 { stroke: none; }
.brush2 { fill: rgb(0,0,0); }
</style>
<g>
<polygon class="pen1 brush2" points="170,659 171,665 173,671 176,678 179,685 183,692 188,700 193,708 200,716 222,740 243,757 264,767 284,773 305,773 325,769 345,762 364,751 384,739 404,724 424,709 445,693 466,678 487,664 509,651 531,641 549,636 565,635 579,639 593,646 606,656 618,669 629,684 640,700 651,717 662,735 673,753 684,770 696,786 709,801 722,814 737,824 749,830 761,833 773,835 787,835 802,832 817,826 834,818 852,807 865,797 876,787 883,777 887,767 889,757 888,747 885,737 880,727 874,719 867,710 859,702 850,693 840,685 829,676 817,668 805,659 953,659 954,735 954,800 953,848 951,875 937,878 920,881 900,885 877,888 851,891 823,894 793,897 762,900 728,903 693,906 657,909 620,911 582,913 544,915 505,917 466,918 427,919 389,920 351,921 314,921 277,920 242,920 209,919 176,917 146,915 118,912 92,909 69,905 48,901 30,896 15,891 4,885 2,829 1,772 1,715 1,659 170,659"/>
<polygon class="pen1 brush2" points="79,385 89,399 102,412 117,424 134,435 152,444 172,452 193,459 215,465 238,471 261,475 284,479 306,481 328,484 350,485 370,486 389,486 416,491 437,504 450,523 457,545 454,566 443,584 422,597 390,601 379,600 365,599 350,598 333,598 314,597 295,597 276,598 257,599 238,602 221,605 206,610 193,616 182,624 174,634 170,645 170,659 1,659 3,502 7,345 10,187 12,30 41,27 70,25 99,24 128,23 157,22 185,21 214,21 243,22 271,22 300,23 329,24 357,25 386,26 414,28 443,29 472,31 500,33 529,34 558,36 587,37 615,39 644,40 673,41 702,42 731,42 760,43 789,43 818,43 848,42 877,41 906,40 936,38 942,104 947,259 951,459 953,659 805,659 778,641 750,623 723,604 699,585 678,566 661,546 650,526 646,506 648,496 653,484 662,471 673,457 687,442 701,425 718,408 734,390 751,371 768,352 783,333 798,313 811,293 821,273 829,253 833,233 834,218 832,203 828,188 820,174 809,160 795,146 777,133 755,121 743,116 730,114 717,113 704,113 690,115 676,119 663,123 649,128 636,135 624,142 612,149 600,157 590,165 581,173 573,181 566,189 550,227 549,269 557,314 569,357 579,397 583,430 573,453 545,465 528,464 512,458 498,447 486,432 474,414 464,392 453,369 444,343 433,317 423,290 412,263 400,237 387,212 372,190 355,170 336,153 322,144 308,138 293,134 278,132 262,132 247,134 231,138 215,143 200,151 185,159 170,169 155,180 142,193 129,206 116,221 105,236 94,252 84,270 76,288 70,307 66,327 66,347 70,366 79,385"/>
</g>
</svg>
