<?xml version="1.0" encoding="UTF-8" standalone="no"?>
<!DOCTYPE svg PUBLIC "-//W3C//DTD SVG 1.0//EN" "http://www.w3.org/TR/2001/REC-SVG-20010904/DTD/svg10.dtd">
<svg xmlns="http://www.w3.org/2000/svg" xmlns:xlink="http://www.w3.org/1999/xlink" fill-rule="evenodd" height="0.392in" preserveAspectRatio="none" stroke-linecap="round" viewBox="0 0 994 392" width="0.994in">
<style type="text/css">
.brush0 { fill: rgb(255,255,255); }
.pen0 { stroke: rgb(0,0,0); stroke-width: 1; stroke-linejoin: round; }
.brush1 { fill: none; }
.pen1 { stroke: none; }
.brush2 { fill: rgb(0,0,0); }
</style>
<g>
<polygon class="pen1 brush0" points="515,150 517,149 523,145 531,139 541,132 552,125 562,118 571,111 577,106 583,102 590,99 599,96 609,93 619,89 630,85 642,80 653,74 663,68 669,63 674,59 677,56 680,55 684,54 688,53 695,53 703,54 711,55 718,58 725,61 731,64 736,66 739,68 740,69 742,69 747,69 755,69 763,70 772,71 778,74 783,78 783,83 780,92 777,98 773,104 769,107 764,110 758,111 750,110 741,108 732,106 722,104 714,103 706,101 700,100 694,100 691,99 690,99 674,108 673,110 671,116 670,123 671,130 677,136 685,141 692,144 695,145 699,145 708,146 722,147 738,148 754,149 768,150 779,150 784,151 790,151 803,152 821,153 841,153 861,154 879,155 892,157 898,158 904,160 912,163 919,167 920,172 917,177 912,179 909,180 907,180 866,181 789,174 787,174 781,173 773,172 764,172 755,172 747,173 742,175 741,179 747,186 757,190 766,192 770,193 811,194 923,199 925,201 931,205 935,211 935,216 930,220 922,224 914,226 911,227 838,227 779,217 777,217 773,217 766,218 759,219 752,220 746,222 742,224 741,227 744,233 748,238 751,242 753,243 813,247 816,247 826,246 838,246 853,245 868,245 882,245 892,247 896,249 896,255 893,262 890,267 888,269 847,274 768,271 766,271 762,270 756,270 750,269 743,270 738,270 735,272 735,274 738,277 742,279 748,281 754,283 759,284 764,285 768,286 769,286 842,297 846,298 853,300 861,304 864,309 862,311 856,314 849,316 841,317 832,318 825,319 820,320 818,320 813,320 801,319 783,318 762,317 741,315 722,314 708,312 702,311 696,310 684,308 668,305 649,302 631,299 615,296 602,294 596,293 592,292 586,289 578,284 570,279 561,274 554,269 547,264 543,261 537,255 532,248 528,242 526,240 508,178 507,174 507,166 509,156 515,150"/>
<polygon class="pen1 brush2" points="505,172 506,183 511,208 518,234 528,251 534,256 541,262 550,270 560,278 570,286 583,292 597,298 612,301 630,304 650,307 671,310 691,313 709,316 724,319 734,320 738,321 744,321 758,323 779,324 804,325 828,325 850,323 867,320 875,314 876,308 875,303 871,299 866,296 861,294 856,293 852,292 851,292 806,284 803,284 796,284 786,283 774,283 762,282 752,281 744,279 740,277 739,272 740,271 742,271 743,271 820,276 823,276 832,276 845,276 860,276 875,275 889,273 899,269 905,265 907,256 903,249 898,246 896,245 894,245 887,245 877,244 866,244 855,243 844,243 835,243 830,243 824,243 813,243 800,242 785,241 771,240 759,238 750,236 746,234 746,229 749,226 752,224 753,223 755,223 761,223 769,224 778,225 788,226 797,226 805,227 810,228 816,229 826,230 839,231 854,231 868,232 881,232 891,232 897,232 902,232 908,231 915,229 923,227 929,225 935,221 938,216 939,210 934,200 926,196 918,196 915,197 910,197 895,196 875,195 852,194 828,194 806,193 789,192 780,192 775,192 769,191 763,189 757,187 752,185 747,183 745,181 744,179 747,178 753,178 761,178 770,178 779,178 787,179 792,179 794,179 799,179 812,181 830,182 852,184 873,186 893,187 907,187 914,186 920,182 925,176 927,170 921,163 914,160 905,157 894,155 883,153 873,152 865,151 859,150 857,150 852,150 840,149 822,149 801,148 779,147 758,147 742,146 731,145 723,144 714,143 704,140 694,138 685,134 678,131 673,126 671,122 665,135 666,136 668,137 672,139 677,141 682,144 688,146 693,148 698,150 704,151 711,152 719,153 727,154 735,155 741,155 745,156 747,156 858,159 860,159 865,159 873,159 882,160 892,160 901,162 908,163 913,165 913,166 913,169 912,172 912,173 900,178 897,178 890,177 879,177 866,176 852,175 840,175 829,174 823,174 816,174 806,173 793,173 779,172 765,172 753,171 745,172 741,173 736,180 738,186 742,190 745,191 746,191 748,192 752,194 756,195 761,196 767,198 773,199 778,199 786,199 796,199 809,200 822,200 834,201 844,202 851,202 854,202 857,202 866,201 878,201 893,201 907,202 919,204 928,207 932,211 930,219 926,222 921,222 919,222 918,222 914,222 909,222 902,221 895,221 889,221 883,221 878,221 873,221 864,221 854,221 844,221 833,221 823,221 815,220 810,220 805,219 797,218 786,217 774,215 762,214 752,214 743,215 738,218 733,225 732,231 734,237 740,242 745,244 751,245 758,246 766,247 773,248 779,249 783,249 784,249 787,249 794,249 804,249 816,249 828,249 840,249 849,249 855,249 860,249 866,249 873,249 880,250 886,251 891,252 895,254 896,257 894,262 889,264 885,265 883,265 881,265 876,265 868,266 859,266 849,266 839,266 831,266 825,266 819,266 811,265 801,265 791,265 782,265 774,265 768,265 766,265 765,265 762,264 757,264 752,264 747,263 741,264 736,265 733,266 730,268 729,268 729,270 729,275 731,279 736,282 742,283 744,284 831,299 832,299 836,300 840,301 846,302 852,303 856,304 860,306 861,308 861,311 860,313 858,314 858,314 822,316 754,313 751,313 744,312 734,311 722,309 710,308 700,307 691,306 687,305 682,304 671,302 658,300 642,297 626,294 611,291 600,288 593,286 587,283 579,279 570,275 560,269 551,264 542,257 535,251 530,244 523,226 517,202 512,181 510,172 505,172"/>
<polygon class="pen1 brush2" points="667,134 685,113 704,107 706,108 712,109 720,111 729,113 739,115 749,116 758,115 764,113 773,107 779,102 784,97 787,89 788,81 787,75 785,72 784,71 783,71 780,70 776,69 771,68 765,67 760,66 755,65 751,64 743,62 735,59 727,57 724,56 723,55 720,54 716,52 711,49 705,48 699,47 694,47 689,49 683,52 671,58 655,66 637,74 619,82 604,89 594,93 590,95 588,96 581,100 572,105 562,111 550,118 540,125 531,131 525,137 518,146 512,156 506,164 504,168 505,169 508,169 510,168 511,167 514,165 522,160 531,153 538,148 541,145 545,141 550,137 556,132 561,128 566,124 569,122 570,121 625,97 627,96 632,93 639,88 648,83 657,77 665,72 671,68 674,66 678,63 683,61 691,59 702,58 708,59 714,60 719,63 723,65 727,68 731,71 735,72 738,73 742,73 747,73 752,73 758,73 763,73 767,73 770,73 771,73 772,74 774,77 776,81 777,86 776,91 773,95 768,99 761,102 756,103 752,103 747,104 742,104 738,105 733,104 728,104 723,103 717,101 711,99 704,97 698,95 691,93 686,92 681,92 678,93 674,102 670,116 668,128 667,134"/>
<polygon class="pen1 brush0" points="503,150 501,149 495,145 487,139 477,132 466,125 456,118 447,111 441,106 435,102 428,99 419,96 409,93 398,89 387,85 375,80 364,74 354,68 348,63 343,59 340,56 337,55 334,54 329,53 323,53 315,54 307,55 300,58 293,61 287,64 282,66 279,68 278,69 276,69 270,68 263,67 254,67 246,68 239,70 235,75 235,83 238,92 241,98 244,104 249,107 254,110 260,111 267,110 276,108 286,106 295,104 304,103 311,101 318,100 323,100 326,99 327,99 344,108 345,111 348,118 349,127 348,135 342,140 333,143 325,145 322,145 318,145 309,146 295,147 280,148 264,149 249,150 239,150 234,151 228,151 215,152 197,153 177,153 157,154 139,155 126,157 120,158 114,160 106,163 99,167 97,172 101,177 105,179 109,180 110,180 151,181 228,174 230,174 236,173 244,172 254,172 263,172 270,173 275,175 276,179 270,186 260,190 251,192 247,193 207,194 95,199 92,201 87,205 82,211 82,216 88,220 96,224 104,226 107,227 180,227 239,217 241,217 245,217 252,218 259,219 266,220 272,222 276,224 277,227 274,233 270,238 266,242 265,243 205,247 202,247 192,246 179,246 164,245 149,245 136,245 126,247 122,249 122,255 124,262 127,267 129,269 171,274 250,271 252,271 256,270 261,270 268,269 274,270 280,270 283,272 283,274 280,277 276,279 270,281 264,283 258,284 253,285 249,286 248,286 175,297 172,298 164,300 157,304 154,309 156,311 162,314 169,316 177,317 186,318 193,319 198,320 200,320 205,320 217,319 235,318 256,317 277,315 296,314 310,312 316,311 322,310 334,308 350,305 368,302 387,299 403,296 416,294 422,293 426,292 432,289 440,284 448,279 457,274 464,269 471,264 475,261 481,255 487,248 490,242 492,240 510,178 511,174 511,166 509,156 503,150"/>
<polygon class="pen1 brush2" points="513,172 512,183 508,208 501,234 491,251 485,256 477,262 468,270 459,278 448,286 435,292 421,298 406,301 388,304 368,307 347,310 326,313 308,316 293,319 283,320 279,321 273,321 259,323 238,324 214,325 190,325 168,323 151,320 143,314 142,308 143,303 147,299 152,296 157,294 161,293 165,292 166,292 211,284 214,284 221,284 231,283 243,283 255,282 265,281 273,279 277,277 279,272 277,271 275,271 274,271 198,276 195,276 186,276 173,276 158,276 142,275 128,273 118,269 112,265 111,256 114,249 119,246 121,245 124,245 130,245 140,244 151,244 163,243 174,243 183,243 188,243 187,242 194,241 208,240 225,239 242,238 258,237 270,236 274,236 273,231 270,227 266,224 264,223 262,223 256,223 248,224 239,225 229,226 220,226 212,227 207,228 201,229 191,230 179,231 164,231 150,232 137,232 126,232 120,232 115,232 109,231 102,229 95,227 88,225 83,221 79,216 79,210 84,200 92,196 99,196 102,197 107,197 122,196 142,195 166,194 190,194 212,193 228,192 237,192 242,192 248,191 254,189 260,187 266,185 270,183 273,181 273,179 270,178 264,178 256,178 247,178 238,178 230,179 225,179 223,179 218,179 205,181 187,182 165,184 144,186 125,187 111,187 104,186 98,182 93,176 91,170 97,163 104,160 113,157 123,155 134,153 144,152 152,151 158,150 160,150 165,150 177,149 195,149 216,148 238,147 259,147 276,146 287,145 295,145 304,144 315,143 325,142 334,140 342,137 348,134 350,130 352,135 351,136 349,137 345,139 340,141 335,144 330,146 324,148 319,150 313,151 306,152 298,153 290,154 282,155 276,155 272,156 270,156 159,159 157,159 152,159 144,159 135,160 126,160 117,162 110,163 105,165 105,166 106,169 106,172 106,173 117,178 120,178 128,177 139,177 152,176 165,175 178,175 188,174 195,174 202,174 212,173 225,173 239,172 252,172 264,171 273,172 277,173 282,180 280,186 275,190 272,191 271,191 269,192 266,194 261,195 256,196 250,198 245,199 239,199 231,199 221,199 209,200 196,200 184,201 174,202 167,202 164,202 161,202 152,201 140,201 125,201 111,202 99,204 90,207 86,211 88,219 92,222 97,222 99,222 100,222 104,222 109,222 116,221 122,221 129,221 135,221 139,221 144,221 153,221 163,221 173,221 184,221 194,221 202,220 207,220 212,219 221,218 232,217 244,215 256,214 266,214 275,215 280,218 285,225 286,231 284,237 278,242 273,244 266,245 259,246 252,247 245,248 239,249 235,249 234,249 231,249 224,249 214,249 202,249 189,249 177,249 168,249 162,249 158,249 152,249 145,249 138,250 132,251 127,252 123,254 122,257 124,262 128,264 132,265 134,265 136,265 142,265 150,266 159,266 169,266 179,266 187,266 193,266 199,266 207,265 217,265 227,265 236,265 244,265 250,265 252,265 253,265 256,264 261,264 266,264 271,263 277,264 282,265 285,266 288,268 289,268 289,270 289,275 287,279 281,282 276,283 273,284 186,299 181,300 172,302 162,304 157,308 157,311 158,313 159,314 159,314 196,316 263,313 266,313 273,312 283,311 295,309 307,308 318,307 327,306 331,305 336,304 347,302 360,300 376,297 392,294 406,291 418,288 425,286 431,283 439,279 448,275 458,269 468,264 477,257 484,251 489,244 496,226 502,202 506,181 508,172 513,172"/>
<polygon class="pen1 brush2" points="351,134 332,113 313,107 311,108 305,109 297,111 288,113 278,115 268,116 259,115 253,113 245,107 239,102 234,97 231,89 230,81 231,75 233,72 234,71 237,70 243,67 251,63 259,61 263,60 268,59 273,59 279,58 284,57 289,56 292,56 293,56 294,55 297,54 301,52 307,49 312,48 318,47 324,47 329,49 335,52 347,58 363,66 381,74 399,82 414,89 424,93 428,95 430,96 437,100 446,105 457,111 468,118 479,125 488,131 494,137 501,146 507,156 512,164 514,168 513,169 511,169 508,168 507,167 504,165 497,160 488,153 481,148 478,145 473,141 467,137 461,132 456,128 451,124 448,122 447,121 392,97 390,96 385,93 378,88 369,83 360,77 352,72 346,68 343,66 339,63 334,61 326,59 315,58 309,59 304,60 299,63 295,65 291,68 287,71 283,72 280,73 276,73 271,73 266,73 260,73 255,73 251,73 248,73 247,73 246,74 243,77 241,81 240,86 241,91 244,95 249,99 256,102 261,103 265,103 270,104 275,104 280,105 285,104 290,104 295,103 301,101 307,99 313,97 320,95 326,93 332,92 336,92 339,93 343,102 347,116 350,128 351,134"/>
<polygon class="pen1 brush0" points="375,180 388,198 632,218 634,213 639,201 643,189 643,181 639,177 629,171 616,163 600,154 584,144 568,136 554,129 544,124 535,121 524,120 511,119 497,118 482,119 466,120 451,122 437,124 424,128 412,136 401,145 392,155 385,164 379,172 376,178 375,180"/>
<polygon class="pen1 brush0" points="371,187 373,189 378,196 385,205 394,216 403,227 412,236 420,244 426,248 432,250 438,252 446,254 454,256 462,258 470,260 477,261 483,261 491,261 502,261 515,261 529,261 543,261 556,260 567,258 574,256 581,252 592,245 604,237 617,229 629,221 639,214 646,209 649,207 647,204 642,197 636,189 630,182 625,176 620,170 614,165 610,163 610,162 605,159 596,155 586,150 575,145 566,141 559,138 557,137 554,136 549,134 541,131 533,128 524,126 515,124 507,122 500,122 492,123 481,124 467,126 452,129 438,133 424,137 412,142 404,148 401,151 396,157 391,163 385,170 380,176 375,182 372,186 371,187"/>
<polygon class="pen1 brush2" points="437,149 435,150 429,154 421,160 411,167 402,175 393,182 386,190 382,196 381,206 383,212 387,218 392,223 396,228 403,234 413,242 424,250 436,258 449,264 460,269 471,271 482,271 495,271 510,271 524,270 538,269 549,268 556,267 559,267 563,265 572,261 586,254 601,246 617,237 631,229 641,223 646,218 646,212 640,207 633,200 626,193 623,189 619,185 614,181 609,177 602,173 594,170 585,165 575,161 562,156 546,151 527,146 508,142 488,140 468,139 451,142 437,149"/>
<polygon class="pen1 brush0" points="512,232 505,231 499,229 493,226 488,222 484,217 481,211 479,205 478,198 479,191 481,185 484,179 488,173 493,169 499,166 505,164 512,163 519,164 525,166 531,169 536,173 540,179 543,185 544,191 545,198 544,205 543,211 540,217 536,222 531,226 525,229 519,231 512,232"/>
<polygon class="pen1 brush0" points="456,167 411,196 412,198 416,204 421,212 427,221 434,230 441,239 449,245 455,248 461,249 468,250 475,251 482,251 488,252 493,252 496,252 497,252 496,251 494,250 490,248 485,244 480,240 475,235 470,229 466,223 460,207 457,188 456,173 456,167"/>
<polygon class="pen1 brush0" points="568,179 569,185 569,201 568,219 562,233 555,240 548,246 541,250 539,252 540,252 542,252 546,253 551,253 557,253 563,252 569,250 575,248 581,244 588,239 596,233 603,226 609,220 614,215 617,211 618,210 568,179"/>
<polygon class="pen1 brush2" points="650,171 648,167 645,163 642,159 639,156 630,149 617,142 603,134 587,127 572,120 558,114 546,109 538,105 531,102 522,100 513,97 503,94 494,92 486,91 480,89 476,89 471,90 464,91 454,94 444,97 433,100 423,104 414,107 408,110 405,112 401,115 396,119 391,123 386,128 381,134 376,139 371,145 370,182 375,180 378,177 380,174 381,173 384,171 390,166 401,158 414,149 428,140 443,132 457,127 470,124 483,124 497,124 511,126 524,128 535,130 544,132 550,133 552,134 554,135 560,138 569,142 578,147 589,152 598,158 605,162 610,166 613,168 617,172 621,176 627,180 633,185 639,189 645,194 650,198 650,171"/>
<polygon class="pen1 brush2" points="982,216 994,127 945,19 378,0 15,45 0,202 73,318 139,364 636,392 965,331 980,254 967,216 951,318 869,341 624,372 501,363 169,348 88,310 66,260 16,204 34,136 34,55 167,47 403,13 683,31 933,35 953,85 983,138 960,193 980,270 982,216"/>
</g>
</svg>
