<?xml version="1.0" encoding="UTF-8" standalone="no"?>
<!DOCTYPE svg PUBLIC "-//W3C//DTD SVG 1.0//EN" "http://www.w3.org/TR/2001/REC-SVG-20010904/DTD/svg10.dtd">
<svg xmlns="http://www.w3.org/2000/svg" xmlns:xlink="http://www.w3.org/1999/xlink" fill-rule="evenodd" height="1.0in" preserveAspectRatio="none" stroke-linecap="round" viewBox="0 0 630 1000" width="0.63in">
<style type="text/css">
.brush0 { fill: rgb(255,255,255); }
.pen0 { stroke: rgb(0,0,0); stroke-width: 1; stroke-linejoin: round; }
.brush1 { fill: none; }
.pen1 { stroke: none; }
.brush2 { fill: rgb(0,0,0); }
</style>
<g>
<polygon class="pen1 brush2" points="90,869 82,843 78,815 78,787 82,758 89,729 98,701 111,675 125,650 137,636 151,623 166,611 182,600 198,590 216,581 234,572 252,565 271,558 290,552 310,547 330,543 349,539 369,536 388,533 407,531 423,535 439,540 453,546 467,553 481,561 493,569 505,579 517,589 527,600 538,613 547,625 556,639 565,654 573,669 581,686 588,703 594,727 600,752 604,778 606,803 605,829 600,854 589,877 573,900 562,911 549,922 536,932 522,941 507,950 491,958 474,965 458,971 440,977 423,982 405,987 388,991 370,994 353,997 336,999 319,1000 302,999 285,998 268,995 250,992 234,987 217,981 201,975 185,967 170,958 156,949 143,938 130,926 118,913 108,900 98,885 90,869 90,869"/>
<polygon class="pen1 brush2" points="297,510 273,496 248,482 224,468 199,452 175,436 152,418 130,400 108,380 88,359 70,337 53,313 38,288 25,261 14,232 6,201 0,168 194,298 141,0 169,16 194,35 215,56 233,80 248,105 260,130 271,157 280,183 287,209 294,234 300,257 305,278 311,296 317,311 325,322 333,329 345,316 359,303 375,291 391,279 408,267 427,256 446,246 466,236 486,227 507,219 528,211 548,204 569,198 590,192 610,187 630,183 617,208 603,232 588,255 571,277 553,298 535,319 516,338 496,357 477,375 457,393 438,409 419,426 400,441 383,456 366,470 351,484 345,489 338,492 330,495 322,497 314,499 307,502 301,505 297,510"/>
</g>
</svg>
