<?xml version="1.0" encoding="UTF-8" standalone="no"?>
<!DOCTYPE svg PUBLIC "-//W3C//DTD SVG 1.0//EN" "http://www.w3.org/TR/2001/REC-SVG-20010904/DTD/svg10.dtd">
<svg xmlns="http://www.w3.org/2000/svg" xmlns:xlink="http://www.w3.org/1999/xlink" fill-rule="evenodd" height="0.545in" preserveAspectRatio="none" stroke-linecap="round" viewBox="0 0 1091 545" width="1.091in">
<style type="text/css">
.brush0 { fill: rgb(255,255,255); }
.pen0 { stroke: rgb(0,0,0); stroke-width: 1; stroke-linejoin: round; }
.brush1 { fill: none; }
.pen1 { stroke: none; }
.brush2 { fill: rgb(0,0,0); }
</style>
<g>
<polygon class="pen1 brush2" points="515,176 508,198 507,226 510,256 511,283 527,268 543,253 557,238 570,223 583,208 596,194 609,180 622,167 635,156 650,145 665,136 682,128 700,122 720,118 742,116 766,116 760,105 753,92 747,79 744,65 743,53 748,42 758,36 776,33 789,34 801,37 812,41 822,47 831,54 839,62 847,70 855,78 863,87 872,95 880,103 889,110 900,116 911,120 923,123 937,124 953,120 961,111 961,97 959,81 956,66 955,52 960,43 973,39 998,46 1019,65 1033,91 1039,120 1034,148 1016,170 984,181 934,178 961,206 985,239 1005,275 1021,314 1030,354 1031,394 1024,433 1006,469 991,486 973,498 955,503 937,503 920,497 906,485 897,468 894,445 898,420 909,402 925,391 944,382 962,374 978,365 989,353 993,335 990,303 980,273 965,246 945,222 921,201 893,183 863,169 832,159 800,153 767,151 735,154 704,161 676,173 650,191 628,214 611,242 603,267 599,294 601,321 608,346 620,369 637,387 660,399 688,403 707,401 724,395 740,386 755,372 768,355 780,334 790,308 799,279 826,288 825,308 822,329 819,349 814,369 807,388 800,407 791,424 781,441 769,456 756,470 741,483 725,493 707,501 688,508 667,512 645,513 626,511 605,506 584,498 565,486 550,472 540,455 538,436 544,415 549,406 554,398 559,391 564,383 568,375 571,366 573,357 574,347 573,328 571,309 570,290 571,271 554,287 539,302 525,318 511,333 498,347 485,361 472,373 459,385 445,396 431,406 416,415 399,422 381,428 361,432 339,435 315,436 330,466 334,490 330,507 320,518 304,521 285,518 264,509 243,492 231,480 220,468 210,457 200,448 189,440 176,434 161,430 143,429 127,433 120,442 119,456 122,471 125,487 126,501 121,510 108,514 88,510 71,499 58,483 48,463 43,442 42,421 46,401 56,385 65,378 75,373 87,371 99,370 111,371 124,373 135,375 146,377 120,348 96,312 74,271 59,227 50,182 52,138 65,98 92,65 120,49 145,49 166,60 180,80 187,105 184,131 169,154 141,173 131,176 122,180 112,183 104,187 97,193 92,199 88,208 87,219 90,250 99,278 113,304 132,327 155,348 180,366 208,380 238,391 269,399 301,402 332,401 362,397 391,387 417,373 440,354 460,330 472,304 479,275 480,245 476,216 465,189 448,168 424,153 394,148 376,150 358,156 343,166 328,180 315,198 303,220 292,246 283,276 254,265 255,245 258,224 262,204 267,184 273,165 281,146 290,128 301,111 312,96 326,82 340,70 357,59 374,51 394,44 415,40 437,39 448,39 459,40 470,42 480,45 489,48 498,52 506,57 514,63 530,78 539,92 543,106 543,119 539,133 532,146 524,161 515,176 515,176 515,176"/>
</g>
</svg>
