<?xml version="1.0" encoding="UTF-8" standalone="no"?>
<!DOCTYPE svg PUBLIC "-//W3C//DTD SVG 1.0//EN" "http://www.w3.org/TR/2001/REC-SVG-20010904/DTD/svg10.dtd">
<svg xmlns="http://www.w3.org/2000/svg" xmlns:xlink="http://www.w3.org/1999/xlink" fill-rule="evenodd" height="0.998in" preserveAspectRatio="none" stroke-linecap="round" viewBox="0 0 1053 998" width="1.053in">
<style type="text/css">
.brush0 { fill: rgb(255,255,255); }
.pen0 { stroke: rgb(0,0,0); stroke-width: 1; stroke-linejoin: round; }
.brush1 { fill: none; }
.pen1 { stroke: none; }
.brush2 { fill: rgb(0,0,0); }
</style>
<g>
<polygon class="pen1 brush2" points="787,87 781,89 776,92 771,94 766,96 762,98 759,101 756,103 754,106 727,123 724,122 721,122 717,123 714,125 709,129 705,133 699,138 694,143 665,163 637,188 613,211 605,219 596,228 587,235 584,238 566,259 559,266 551,276 545,287 539,296 523,324 515,331 508,338 501,346 496,355 484,383 478,389 472,396 467,403 461,410 444,439 438,446 432,452 425,459 416,466 399,486 393,490 387,494 380,498 374,502 349,519 343,517 336,520 329,526 322,531 299,542 295,544 291,546 287,548 283,550 278,552 274,554 268,555 263,556 234,562 226,566 217,569 206,572 194,573 182,574 170,574 159,573 148,572 150,547 188,545 223,539 255,530 284,518 312,504 337,486 361,467 383,445 404,422 424,397 444,372 463,345 482,319 502,291 522,265 543,238 534,229 524,221 515,213 505,205 495,197 485,190 474,182 464,175 453,168 443,162 432,155 421,149 410,143 399,137 387,131 376,125 364,140 353,155 343,171 333,187 323,203 313,219 303,235 293,250 281,264 269,277 255,289 241,299 224,307 206,313 186,317 164,318 136,316 111,309 88,297 68,282 52,263 39,241 32,216 29,189 30,168 35,151 41,136 48,123 56,110 65,97 73,82 80,66 102,66 96,79 90,93 86,107 83,120 83,134 85,147 92,160 102,171 115,181 129,187 143,191 157,191 171,190 185,186 198,180 212,173 225,165 238,155 250,145 262,135 273,124 284,114 294,104 303,95 291,90 278,85 266,81 254,78 241,75 229,72 216,70 204,68 192,66 179,65 166,64 154,64 141,64 128,64 115,65 102,66 80,66 70,68 60,69 50,69 40,70 30,70 20,70 10,70 0,70 0,47 21,46 41,45 62,44 82,43 102,42 123,42 143,41 163,42 183,43 203,45 223,47 243,51 263,55 283,60 302,67 322,75 336,67 350,59 364,52 378,46 393,41 407,37 421,34 436,32 450,31 465,32 479,34 494,38 508,43 523,49 538,58 553,68 548,78 526,71 506,67 487,65 468,66 449,70 431,77 413,89 394,104 404,112 414,119 425,126 435,133 446,139 456,145 467,151 478,158 488,164 499,170 510,177 520,184 530,192 540,200 550,209 560,218 578,198 598,178 620,159 644,140 670,122 697,104 725,89 754,74 784,61 814,51 844,42 875,36 904,32 934,31 962,33 990,39 991,58 964,63 939,70 914,81 891,93 869,108 848,125 828,144 810,163 791,184 774,206 758,228 742,251 727,274 713,296 699,319 685,340 707,370 727,401 743,433 757,466 768,500 777,535 783,571 788,607 790,624 792,637 794,647 797,653 807,640 819,622 832,603 847,585 863,572 881,566 900,571 921,589 936,616 936,643 928,669 914,695 900,719 890,743 887,764 898,784 912,795 925,798 936,796 946,789 955,779 963,767 970,754 976,743 988,753 995,764 998,777 996,790 992,804 984,817 973,829 960,839 946,847 930,853 913,855 895,853 878,847 861,835 844,818 829,795 824,784 819,773 814,760 810,748 805,735 800,723 794,713 788,704 781,730 777,757 774,783 770,810 765,830 758,849 750,866 741,883 730,898 718,912 704,925 690,936 675,947 658,956 641,963 623,970 605,975 586,978 567,980 547,981 547,981 530,980 513,979 495,976 478,972 460,967 443,961 426,954 411,945 396,935 382,924 370,912 360,898 352,883 345,867 341,850 340,831 342,813 346,795 353,779 362,764 373,750 386,738 400,729 415,721 431,715 447,712 464,711 480,714 495,719 510,727 523,739 535,755 546,777 550,797 550,814 544,830 535,842 523,852 510,860 495,864 480,865 465,863 452,857 441,848 434,835 431,818 433,796 440,771 443,754 437,745 426,744 410,750 394,762 379,779 368,802 364,829 368,858 378,884 394,905 414,923 438,937 465,947 494,953 524,955 554,954 583,948 610,939 634,925 654,908 670,887 680,862 684,833 679,805 666,776 649,746 631,716 617,686 610,656 613,627 631,599 653,581 673,574 693,576 712,584 728,598 743,616 755,635 765,654 767,617 764,579 756,540 745,500 729,462 711,426 691,392 670,363 653,389 636,414 618,439 600,463 580,487 560,510 539,531 517,551 493,570 469,587 444,602 417,614 389,624 360,632 329,636 297,638 278,638 260,637 241,635 223,632 205,629 187,625 169,621 152,615 135,609 118,602 102,594 86,585 70,576 55,565 40,554 26,542 26,513 42,517 57,523 70,528 84,534 98,539 113,543 130,546 150,547 148,572 148,573 149,575 150,578 152,583 156,587 161,593 168,598 178,603 189,607 200,611 210,613 220,615 229,616 237,616 243,616 246,614 246,610 244,600 241,583 234,562 263,556 268,573 273,592 279,608 287,614 292,614 298,613 304,611 311,610 318,609 323,607 327,606 328,606 324,599 316,581 306,560 299,542 322,531 328,542 334,554 340,566 346,577 352,587 356,596 359,601 360,603 364,604 369,604 375,603 381,601 386,599 391,598 394,596 395,596 394,594 390,587 385,577 378,566 371,553 363,540 356,529 349,519 374,502 380,513 387,523 393,532 400,541 407,549 414,558 422,567 430,576 430,576 430,576 435,573 440,569 446,566 451,562 455,559 459,556 461,555 462,554 458,550 454,546 451,543 448,538 444,534 440,530 436,525 431,520 427,516 423,512 419,507 415,502 411,497 408,493 403,489 399,486 416,466 423,475 432,484 441,493 450,501 460,510 470,518 480,526 489,533 497,527 505,520 512,513 518,505 510,496 501,487 492,479 483,470 473,461 463,453 454,445 444,438 461,410 467,420 475,429 486,439 498,449 510,459 523,468 534,476 543,484 550,476 557,469 563,461 569,454 531,418 531,418 484,383 496,355 502,360 509,366 517,373 528,382 539,392 553,403 568,415 584,429 592,421 599,413 604,405 609,395 609,395 599,387 588,378 577,369 566,359 555,350 544,340 533,332 523,324 539,296 624,369 631,363 637,356 643,348 649,341 645,336 637,327 625,315 611,301 597,287 584,275 573,265 566,259 584,238 591,244 600,252 611,262 622,274 634,285 645,297 655,307 664,316 664,316 664,316 670,307 676,295 683,284 690,275 681,266 671,258 662,250 653,242 643,234 633,226 623,219 613,211 637,188 640,192 647,198 657,207 669,217 681,227 692,235 701,242 707,245 710,241 717,232 726,221 734,214 726,206 718,199 709,193 701,187 692,181 684,175 675,169 665,163 694,143 746,190 753,184 761,177 768,170 774,163 766,156 759,149 753,143 747,138 742,134 737,130 732,126 727,123 754,106 756,109 759,112 763,115 767,119 773,123 779,128 785,133 792,139 798,135 807,130 814,124 818,118 817,117 814,115 811,111 806,107 801,102 796,96 791,91 787,87 815,75 833,100 837,100 841,99 845,97 849,95 853,93 856,90 860,88 863,85 860,77 857,72 854,68 851,65 847,64 843,64 838,65 831,66 831,66 815,75 787,87"/>
</g>
</svg>
