<?xml version="1.0" encoding="UTF-8" standalone="no"?>
<!DOCTYPE svg PUBLIC "-//W3C//DTD SVG 1.0//EN" "http://www.w3.org/TR/2001/REC-SVG-20010904/DTD/svg10.dtd">
<svg xmlns="http://www.w3.org/2000/svg" xmlns:xlink="http://www.w3.org/1999/xlink" fill-rule="evenodd" height="0.565in" preserveAspectRatio="none" stroke-linecap="round" viewBox="0 0 675 565" width="0.675in">
<style type="text/css">
.brush0 { fill: rgb(255,255,255); }
.pen0 { stroke: rgb(0,0,0); stroke-width: 1; stroke-linejoin: round; }
.brush1 { fill: none; }
.pen1 { stroke: none; }
.brush2 { fill: rgb(0,0,0); }
</style>
<g>
<polygon class="pen1 brush2" points="594,330 610,328 626,324 639,316 651,306 661,294 669,281 673,265 675,249 673,233 669,218 661,204 651,192 639,183 626,175 610,171 594,169 578,171 563,175 549,183 538,192 528,204 520,218 516,233 514,249 516,265 520,281 528,294 538,306 549,316 563,324 578,328 594,330"/>
<polygon class="pen1 brush2" points="485,174 500,173 513,168 526,161 537,152 545,142 552,129 557,116 558,101 557,86 552,73 545,61 537,50 526,41 513,35 500,30 485,29 470,30 457,35 445,41 434,50 425,61 419,73 414,86 413,101 414,116 419,129 425,142 434,152 445,161 457,168 470,173 485,174"/>
<polygon class="pen1 brush2" points="324,129 337,128 349,124 360,118 370,110 377,101 383,90 387,78 388,65 387,52 383,40 377,29 370,19 360,11 349,5 337,1 324,0 311,1 299,5 288,11 279,19 271,29 265,40 261,52 260,65 261,78 265,90 271,101 279,110 288,118 299,124 311,128 324,129"/>
<polygon class="pen1 brush2" points="189,193 201,192 211,189 221,183 230,176 236,168 242,158 245,148 246,136 245,125 242,114 236,105 230,96 221,90 211,84 201,81 189,80 178,81 167,84 158,90 149,96 143,105 137,114 134,125 133,136 134,148 137,158 143,168 149,176 158,183 167,189 178,192 189,193"/>
<polygon class="pen1 brush2" points="104,294 114,293 123,290 131,286 138,280 144,273 148,265 151,256 152,246 151,236 148,228 144,219 138,212 131,206 123,202 114,199 104,198 94,199 85,202 77,206 70,212 64,219 60,228 57,236 56,246 57,256 60,265 64,273 70,280 77,286 85,290 94,293 104,294"/>
<polygon class="pen1 brush2" points="58,392 66,391 74,389 80,385 86,381 91,375 95,368 97,361 98,353 97,345 95,337 91,331 86,325 80,320 74,316 66,314 58,313 50,314 42,316 36,320 30,325 25,331 21,337 19,345 18,353 19,361 21,368 25,375 30,381 36,385 42,389 50,391 58,392"/>
<polygon class="pen1 brush2" points="31,487 38,486 44,485 49,482 54,478 58,473 61,468 62,462 63,455 62,449 61,443 58,437 54,433 49,429 44,426 38,424 31,423 25,424 19,426 14,429 9,433 5,437 2,443 1,449 0,455 1,462 2,468 5,473 9,478 14,482 19,485 25,486 31,487"/>
<polygon class="pen1 brush2" points="30,565 39,563 46,558 51,551 53,542 51,532 46,525 39,520 30,518 21,520 13,525 8,532 6,542 8,551 13,558 21,563 30,565"/>
</g>
</svg>
