<?xml version="1.0" encoding="UTF-8" standalone="no"?>
<!DOCTYPE svg PUBLIC "-//W3C//DTD SVG 1.0//EN" "http://www.w3.org/TR/2001/REC-SVG-20010904/DTD/svg10.dtd">
<svg xmlns="http://www.w3.org/2000/svg" xmlns:xlink="http://www.w3.org/1999/xlink" fill-rule="evenodd" height="1.0in" preserveAspectRatio="none" stroke-linecap="round" viewBox="0 0 746 1000" width="0.746in">
<style type="text/css">
.brush0 { fill: rgb(255,255,255); }
.pen0 { stroke: rgb(0,0,0); stroke-width: 1; stroke-linejoin: round; }
.brush1 { fill: none; }
.pen1 { stroke: none; }
.brush2 { fill: rgb(0,0,0); }
</style>
<g>
<polygon class="pen1 brush2" points="87,771 80,733 83,698 93,665 111,634 133,606 158,579 185,554 212,531 231,525 250,521 270,518 290,516 311,516 332,516 352,518 373,522 393,526 413,532 432,539 451,547 469,556 486,567 502,578 517,591 533,606 549,621 563,638 576,656 587,676 595,697 599,719 600,743 595,774 587,804 577,833 565,861 550,888 532,913 511,936 486,956 473,964 459,970 445,975 431,979 417,981 403,983 389,983 375,982 361,981 346,978 332,975 318,971 304,966 290,960 277,953 263,946 249,938 235,929 221,919 208,909 195,899 182,888 170,877 159,865 147,854 137,842 127,830 118,818 109,806 101,794 94,783 87,771 87,771"/>
<polygon class="pen1 brush2" points="421,470 410,470 396,469 381,466 365,461 349,455 335,447 323,437 314,425 293,425 273,424 252,423 232,421 212,419 193,415 173,411 153,405 134,399 114,391 95,382 76,371 57,359 38,346 19,331 0,314 9,300 20,288 34,279 50,271 67,265 85,261 105,258 124,256 144,256 164,256 183,257 201,259 217,261 232,263 245,266 256,268 208,0 226,8 243,18 260,30 276,43 291,57 305,73 319,90 332,108 345,127 357,147 369,168 380,189 390,211 400,234 410,257 419,280 665,11 676,58 678,101 673,142 661,179 644,213 623,245 599,274 573,302 546,327 520,351 494,373 471,394 450,414 435,433 425,452 421,470"/>
</g>
</svg>
