<?xml version="1.0" encoding="UTF-8" standalone="no"?>
<!DOCTYPE svg PUBLIC "-//W3C//DTD SVG 1.0//EN" "http://www.w3.org/TR/2001/REC-SVG-20010904/DTD/svg10.dtd">
<svg xmlns="http://www.w3.org/2000/svg" xmlns:xlink="http://www.w3.org/1999/xlink" fill-rule="evenodd" height="0.582in" preserveAspectRatio="none" stroke-linecap="round" viewBox="0 0 763 582" width="0.763in">
<style type="text/css">
.brush0 { fill: rgb(255,255,255); }
.pen0 { stroke: rgb(0,0,0); stroke-width: 1; stroke-linejoin: round; }
.brush1 { fill: none; }
.pen1 { stroke: none; }
.brush2 { fill: rgb(0,0,0); }
</style>
<g>
<polygon class="pen1 brush2" points="124,424 105,423 87,421 72,419 59,416 48,412 39,408 33,403 30,397 30,390 32,381 39,370 49,357 63,344 82,328 105,312 134,294 156,282 180,270 205,258 231,247 257,236 284,226 312,216 340,208 367,200 394,193 421,186 448,181 473,177 497,174 520,172 542,171 556,171 567,172 577,174 584,176 590,178 595,181 598,183 599,186 599,190 598,195 595,201 589,208 580,217 568,226 553,237 534,249 520,257 505,264 489,272 473,279 456,286 439,292 421,298 404,303 386,308 369,313 352,317 335,320 319,323 304,325 289,326 275,327 266,327 259,326 253,325 249,324 246,323 244,322 242,321 242,320 242,318 243,316 245,313 248,308 253,303 260,298 270,291 282,284 291,279 300,274 310,269 321,265 332,260 343,256 354,252 365,249 376,246 387,243 398,240 408,238 418,236 428,235 437,234 446,234 455,234 461,235 463,237 464,237 464,237 464,236 464,236 464,235 463,236 460,240 453,246 440,255 429,261 416,267 402,272 389,277 375,281 361,284 348,286 337,287 337,287 333,288 330,290 328,292 327,296 328,300 331,303 333,305 337,306 337,306 349,305 363,303 378,300 393,296 408,291 423,285 437,279 450,272 459,266 466,261 472,256 477,251 480,246 482,241 483,236 482,231 480,227 478,224 475,221 471,219 466,217 460,216 453,215 445,215 436,215 426,216 416,217 405,219 394,221 383,224 371,227 360,230 348,234 336,238 325,243 313,247 302,252 292,257 282,262 272,267 259,275 248,283 239,290 232,297 227,305 223,312 222,318 223,325 225,330 229,334 233,338 239,341 246,343 255,345 264,346 275,346 289,345 305,344 321,342 338,339 355,336 373,332 391,327 409,322 427,316 445,310 463,303 481,296 498,289 514,282 529,274 544,266 558,257 573,247 586,237 598,226 608,215 615,204 619,192 618,181 615,174 610,168 603,163 595,159 584,156 572,154 558,152 542,152 520,153 496,155 471,158 445,162 418,168 391,174 363,181 334,189 306,198 278,208 250,218 223,229 197,240 172,252 148,264 125,277 103,290 81,305 61,320 42,336 27,353 16,370 10,386 11,402 14,409 20,417 28,424 39,430 53,435 72,440 96,442 124,443 159,442 195,438 234,433 273,425 315,416 357,405 399,393 442,379 485,365 528,349 570,332 612,314 652,296 691,277 728,258 763,238 758,240 745,246 723,256 694,268 659,283 619,299 574,317 526,335 475,352 422,370 369,385 316,399 264,411 214,419 167,424 124,424"/>
<polygon class="pen1 brush2" points="446,574 454,565 458,546 458,517 455,480 448,436 437,387 424,333 407,276 388,219 369,167 349,121 330,80 312,48 296,25 282,11 270,8 262,17 258,36 258,65 262,102 269,146 279,195 293,249 310,307 329,363 348,415 367,462 386,502 404,534 421,557 435,571 446,574"/>
<polygon class="pen1 brush0" points="337,287 333,288 330,290 328,292 327,296 328,300 331,303 333,305 337,306 345,306 353,305 362,303 372,301 381,299 391,296 401,293 411,290 410,286 409,283 408,280 407,276 406,275 406,273 406,272 405,271 396,274 387,277 378,280 369,282 360,284 352,285 344,286 337,287"/>
<polygon class="pen1 brush0" points="380,197 378,192 377,188 375,183 373,179 362,182 350,185 339,188 328,192 316,195 305,199 293,203 282,207 283,211 284,216 285,220 286,225 298,221 309,217 321,213 333,210 345,206 357,203 368,200 380,197"/>
<polygon class="pen1 brush0" points="294,255 296,260 297,264 299,269 300,274 311,269 323,264 335,259 347,255 359,251 372,247 384,244 396,241 394,236 392,232 391,227 389,223 377,226 365,229 353,233 341,237 329,241 317,245 305,250 294,255"/>
<polygon class="pen1 brush0" points="435,382 434,378 434,374 433,371 432,367 421,371 409,374 398,378 386,381 375,385 363,388 352,391 340,394 341,397 342,401 344,404 345,408 356,405 368,402 379,399 390,396 402,393 413,389 424,386 435,382"/>
<polygon class="pen1 brush0" points="414,300 401,304 389,308 376,311 363,314 351,317 339,320 327,322 315,324 317,328 318,333 320,337 321,342 333,340 345,338 357,336 369,333 382,330 395,326 407,323 420,319 419,314 417,310 416,305 414,300"/>
</g>
</svg>
