<?xml version="1.0" encoding="UTF-8" standalone="no"?>
<!DOCTYPE svg PUBLIC "-//W3C//DTD SVG 1.0//EN" "http://www.w3.org/TR/2001/REC-SVG-20010904/DTD/svg10.dtd">
<svg xmlns="http://www.w3.org/2000/svg" xmlns:xlink="http://www.w3.org/1999/xlink" fill-rule="evenodd" height="1.078in" preserveAspectRatio="none" stroke-linecap="round" viewBox="0 0 979 1078" width="0.979in">
<style type="text/css">
.brush0 { fill: rgb(255,255,255); }
.pen0 { stroke: rgb(0,0,0); stroke-width: 1; stroke-linejoin: round; }
.brush1 { fill: none; }
.pen1 { stroke: none; }
.brush2 { fill: rgb(0,0,0); }
</style>
<g>
<polygon class="pen1 brush2" points="80,311 78,363 75,414 73,463 73,510 78,556 91,600 112,642 145,682 170,710 187,737 196,763 200,789 198,814 191,839 180,863 165,887 147,911 127,935 106,959 83,982 61,1006 39,1030 19,1054 0,1078 67,1078 79,1063 96,1041 116,1016 138,990 161,966 182,946 202,932 219,927 242,928 265,930 290,932 314,934 339,936 364,937 389,938 414,938 438,936 462,933 484,928 506,922 527,912 546,900 564,885 580,867 671,751 661,752 653,755 647,758 642,763 636,768 630,773 622,777 612,781 590,786 568,789 547,790 527,790 508,789 489,789 471,788 453,788 435,788 418,791 401,795 383,801 366,810 349,822 332,838 314,858 301,871 288,880 275,886 261,891 247,894 232,898 217,902 202,908 196,896 216,883 236,868 255,851 273,834 291,816 309,797 326,778 343,757 360,737 376,717 392,696 408,675 424,655 439,636 455,616 470,598 467,592 465,584 463,574 463,562 421,562 407,579 394,594 381,610 368,625 355,639 343,654 331,668 319,682 308,697 297,712 287,727 277,743 267,759 258,777 250,795 242,814 224,809 231,804 238,759 244,711 249,662 251,613 247,566 236,521 216,481 186,447 168,429 152,411 140,393 128,376 117,359 106,342 94,326 80,312 80,311 80,311"/>
<polygon class="pen1 brush2" points="701,367 694,333 676,309 651,294 623,289 594,294 569,309 551,333 544,367 551,401 569,425 594,439 623,444 651,439 676,425 694,401 701,367 701,367"/>
<polygon class="pen1 brush2" points="436,298 412,266 399,235 395,206 400,179 411,155 429,135 451,117 475,103 502,93 529,88 556,87 581,91 602,101 619,116 630,137 634,165 648,165 648,137 677,118 705,106 732,101 758,103 782,110 804,121 823,137 839,155 852,175 862,197 867,219 868,241 864,262 854,281 839,297 817,310 817,310 817,318 829,318 840,318 851,319 860,322 869,326 878,331 886,339 894,350 907,374 914,398 916,422 913,446 906,468 896,489 883,508 868,525 852,540 834,551 816,560 798,564 781,564 765,560 751,551 740,537 732,547 740,569 740,589 732,608 718,625 698,639 675,650 649,658 622,662 594,662 568,658 544,649 523,635 507,616 497,590 494,559 500,521 493,526 486,531 479,535 473,538 467,540 461,542 455,543 449,543 420,540 395,530 375,516 359,498 347,476 339,453 334,428 334,402 336,377 342,354 351,333 363,316 378,302 395,294 414,293 436,298 488,257 484,264 481,271 477,280 473,289 469,300 466,312 462,326 458,340 425,352 402,371 390,395 387,421 393,446 408,466 429,480 457,484 472,483 485,483 495,484 504,487 512,491 522,496 533,504 546,513 552,557 568,588 590,606 616,612 642,607 664,591 680,564 686,527 691,524 699,519 709,513 719,507 729,502 739,497 747,494 752,492 782,501 809,497 831,481 847,458 853,432 849,404 832,379 800,361 800,361 779,288 799,264 807,238 804,213 792,190 774,172 751,163 724,163 697,177 685,185 674,191 663,194 651,196 640,196 627,195 613,194 598,194 587,174 575,159 561,149 547,143 533,140 519,141 505,145 493,151 482,160 474,171 467,183 464,197 464,212 468,227 475,242 488,257 436,298"/>
</g>
</svg>
