<?xml version="1.0" encoding="UTF-8" standalone="no"?>
<!DOCTYPE svg PUBLIC "-//W3C//DTD SVG 1.0//EN" "http://www.w3.org/TR/2001/REC-SVG-20010904/DTD/svg10.dtd">
<svg xmlns="http://www.w3.org/2000/svg" xmlns:xlink="http://www.w3.org/1999/xlink" fill-rule="evenodd" height="0.761in" preserveAspectRatio="none" stroke-linecap="round" viewBox="0 0 999 761" width="0.999in">
<style type="text/css">
.brush0 { fill: rgb(255,255,255); }
.pen0 { stroke: rgb(0,0,0); stroke-width: 1; stroke-linejoin: round; }
.brush1 { fill: none; }
.pen1 { stroke: none; }
.brush2 { fill: rgb(0,0,0); }
</style>
<g>
<polygon class="pen1 brush2" points="26,378 53,0 999,22 982,378 834,378 848,364 864,351 882,336 900,321 918,305 934,288 947,270 956,250 960,228 960,208 954,188 945,169 940,161 935,155 930,149 923,144 917,141 911,138 904,137 898,136 870,143 855,161 850,187 851,218 854,251 854,282 848,309 831,328 822,333 812,335 801,336 791,335 780,331 770,324 762,315 756,301 750,277 748,256 748,236 750,217 751,197 751,176 748,153 741,126 734,112 721,99 705,88 686,80 666,78 645,82 625,95 607,116 598,133 593,149 592,164 594,179 599,193 606,208 616,221 627,235 639,249 651,262 664,275 677,289 689,302 700,315 709,329 716,343 723,364 725,382 723,398 717,412 708,423 696,431 682,436 666,438 648,436 630,430 612,420 594,406 576,387 559,364 545,335 532,302 527,277 525,248 526,217 527,185 526,154 522,125 514,100 499,79 478,63 458,54 440,51 424,54 411,61 401,72 396,86 395,102 402,129 416,163 434,202 452,241 466,278 474,311 472,336 456,351 439,351 424,340 411,320 400,293 390,261 381,226 374,190 368,156 363,140 354,124 341,111 325,100 308,93 289,91 271,95 253,105 242,117 236,129 233,142 235,156 239,170 247,184 256,199 268,213 280,228 293,242 307,256 321,271 333,284 345,297 355,310 363,322 374,346 378,364 376,378 370,388 362,395 352,399 344,402 337,403 318,403 301,399 285,390 271,379 258,365 248,350 241,335 236,319 234,305 231,285 226,261 218,235 206,210 191,189 170,175 144,170 131,172 120,179 110,189 103,201 98,215 95,230 93,244 94,258 98,275 106,292 118,307 132,322 148,337 167,351 187,365 208,378 26,378"/>
<polygon class="pen1 brush2" points="965,755 962,756 954,756 941,756 923,756 901,756 875,756 846,756 814,756 779,756 741,756 701,755 660,755 617,754 573,754 529,753 484,752 439,752 394,751 350,750 307,750 266,749 226,748 188,747 153,747 120,746 91,745 65,744 43,744 25,743 12,742 3,742 0,741 26,378 208,378 226,388 245,398 263,408 281,417 298,426 315,435 330,444 344,452 356,460 365,468 373,476 378,483 380,490 379,497 374,504 366,511 357,515 348,518 338,518 328,516 318,513 307,509 296,503 285,496 274,489 262,482 251,474 239,466 227,459 215,452 203,445 191,440 170,434 152,434 135,438 120,446 108,458 98,473 91,491 87,510 86,524 86,538 88,553 92,567 98,581 106,595 115,608 127,620 140,630 155,637 169,639 184,639 200,636 215,631 231,624 246,616 257,610 268,603 279,596 289,590 300,584 310,578 321,573 331,568 360,556 387,547 410,540 432,536 451,534 467,534 481,535 492,539 501,543 508,549 512,556 514,563 514,571 511,579 506,587 499,595 483,607 467,616 450,623 433,629 418,636 405,644 394,655 387,670 386,679 388,688 393,696 400,703 410,710 422,714 435,716 451,716 473,708 490,692 504,670 516,643 527,615 539,587 553,560 569,538 575,532 582,526 589,521 597,517 605,513 614,511 624,511 634,511 663,523 676,550 678,586 673,627 667,668 664,702 669,725 687,731 708,725 725,712 738,696 748,676 756,653 763,629 770,606 777,583 785,562 796,545 810,532 827,524 849,524 877,530 911,546 952,572 830,430 821,417 820,404 825,391 834,378 982,378 965,755"/>
</g>
</svg>
