<?xml version="1.0" encoding="UTF-8" standalone="no"?>
<!DOCTYPE svg PUBLIC "-//W3C//DTD SVG 1.0//EN" "http://www.w3.org/TR/2001/REC-SVG-20010904/DTD/svg10.dtd">
<svg xmlns="http://www.w3.org/2000/svg" xmlns:xlink="http://www.w3.org/1999/xlink" fill-rule="evenodd" height="0.588in" preserveAspectRatio="none" stroke-linecap="round" viewBox="0 0 521 588" width="0.521in">
<style type="text/css">
.brush0 { fill: rgb(255,255,255); }
.pen0 { stroke: rgb(0,0,0); stroke-width: 1; stroke-linejoin: round; }
.brush1 { fill: none; }
.pen1 { stroke: none; }
.brush2 { fill: rgb(0,0,0); }
</style>
<g>
<polygon class="pen1 brush2" points="274,5 276,11 280,20 285,31 289,38 292,44 296,51 300,59 303,65 305,71 308,78 312,85 316,89 321,94 325,101 329,108 331,114 332,118 335,123 338,127 342,132 345,137 348,143 349,148 351,152 353,157 357,163 361,170 365,176 369,176 373,176 377,175 382,174 386,174 390,173 394,173 397,173 399,171 403,170 407,169 412,169 418,169 423,169 429,169 434,170 438,170 443,170 449,169 455,169 460,168 466,168 470,168 474,168 478,168 484,168 490,168 497,167 504,167 511,167 516,167 521,167 506,172 514,175 513,175 510,176 506,177 501,178 495,179 490,181 486,182 483,184 481,185 477,187 473,188 469,189 464,191 460,192 455,193 452,194 447,195 439,197 429,200 418,203 406,207 396,210 386,213 380,216 375,218 370,220 364,221 359,222 353,223 348,224 344,225 341,226 337,223 332,217 327,210 322,201 318,192 315,182 311,172 308,162 303,150 297,137 291,125 287,116 284,108 281,96 277,84 274,76 271,70 267,61 261,51 256,41 254,45 251,49 249,53 247,56 246,61 246,69 245,77 244,83 243,90 241,97 240,105 238,112 236,122 233,137 231,151 229,161 227,152 228,140 229,129 231,121 232,112 232,99 233,84 233,74 233,65 234,54 235,45 235,41 237,54 238,47 238,36 238,26 238,21 238,18 239,16 241,13 245,11 253,9 262,5 269,4 274,5"/>
<polygon class="pen1 brush2" points="465,484 465,75 56,75 56,484 465,484"/>
<polygon class="pen1 brush2" points="193,231 190,231 185,230 179,229 173,229 166,228 160,228 153,228 148,228 143,229 138,229 133,229 128,228 124,228 120,228 116,228 113,228 109,229 104,229 98,230 92,230 85,231 78,232 72,232 67,233 62,234 55,235 48,235 39,236 31,237 23,239 15,240 8,242 7,247 7,253 6,260 5,266 3,272 2,276 4,281 9,284 13,286 18,287 23,289 29,290 35,292 40,294 45,296 49,298 53,300 59,303 65,305 72,306 78,308 84,310 88,311 91,312 93,313 97,315 102,317 107,320 113,322 118,323 123,325 126,325 129,326 133,327 137,329 142,331 146,334 151,336 156,338 160,339 155,336 149,333 144,329 138,325 131,320 122,315 114,311 109,309 105,307 101,303 96,299 91,295 86,291 81,288 78,285 74,283 76,281 77,279 76,276 73,273 78,273 85,273 93,273 102,273 110,273 118,273 125,272 130,270 126,266 128,264 132,261 136,258 141,255 146,253 151,251 156,249 160,249 163,249 167,247 171,245 176,243 180,240 185,237 189,234 193,231"/>
<polygon class="pen1 brush2" points="521,209 515,213 508,219 501,226 496,231 491,235 486,239 481,244 478,248 475,252 470,258 463,262 458,265 453,268 448,273 442,280 437,285 434,287 431,290 427,293 422,296 418,299 413,301 409,304 406,305 400,309 397,315 396,321 397,327 400,336 403,348 408,360 412,368 418,374 425,382 432,391 438,400 444,410 452,422 460,432 467,441 471,444 475,449 479,453 483,458 487,463 491,467 494,471 497,474 502,477 505,479 506,478 505,471 502,459 499,447 495,436 493,427 492,419 488,408 483,396 477,383 470,370 463,358 456,348 451,342 448,337 447,332 445,327 441,323 448,317 455,310 460,303 462,295 468,284 476,270 483,257 488,252 493,249 498,241 503,233 507,228 509,225 513,223 517,218 521,209"/>
<polygon class="pen1 brush2" points="197,399 194,405 191,416 188,427 185,436 182,443 181,452 179,461 176,469 173,477 171,487 171,497 169,506 165,519 161,538 158,557 159,569 161,572 165,575 169,579 174,581 178,584 183,586 187,588 190,588 197,584 205,574 213,563 219,556 221,554 224,550 227,547 230,542 234,538 238,533 243,529 249,525 255,521 261,516 268,510 274,503 279,496 284,489 288,483 291,477 294,472 297,467 302,461 307,456 312,450 317,445 323,439 327,432 329,433 334,434 340,436 347,438 353,441 359,443 364,444 367,445 370,448 374,451 378,453 384,455 389,456 393,457 397,458 400,459 404,460 409,462 416,464 423,467 431,470 438,472 444,474 448,476 448,473 446,470 440,467 430,462 424,459 417,455 411,451 404,447 398,443 392,440 386,437 381,436 376,435 370,433 363,430 357,427 350,424 344,421 339,418 336,415 331,410 326,407 323,406 322,405 317,410 311,417 305,425 297,431 292,433 288,436 283,438 279,441 275,443 271,446 268,449 265,452 260,457 254,461 248,465 242,468 239,470 236,473 232,477 229,482 224,487 219,494 213,501 206,509 205,496 203,482 202,468 202,456 202,444 202,430 200,415 197,399"/>
<polygon class="pen1 brush0" points="238,112 240,105 241,97 243,90 244,83 244,81 244,80 244,78 245,75 233,75 233,86 233,100 232,113 231,121 229,129 228,140 227,152 229,161 231,151 233,137 236,122 238,112"/>
<polygon class="pen1 brush0" points="465,168 461,168 457,168 453,169 448,169 444,169 440,170 437,170 434,170 429,169 423,169 418,169 412,169 407,169 403,170 399,171 397,173 394,173 390,173 386,174 382,174 377,175 373,176 369,176 365,176 361,170 357,163 353,157 351,152 349,148 348,143 345,137 342,132 338,127 335,123 332,118 331,114 329,108 325,101 321,94 316,89 313,87 311,83 309,79 307,75 273,75 273,76 274,76 274,76 274,76 277,84 281,96 284,108 287,116 291,125 297,137 303,150 308,162 311,172 315,182 318,192 322,201 327,210 332,217 337,223 341,226 344,225 348,224 353,223 359,222 364,221 370,220 375,218 380,216 386,213 396,210 406,207 418,203 429,200 439,197 447,195 452,194 455,193 458,192 461,191 465,190 465,168"/>
<polygon class="pen1 brush0" points="465,362 461,355 457,349 454,345 451,342 448,337 447,332 445,327 441,323 448,317 455,310 460,303 462,295 463,294 464,293 464,291 465,289 465,261 463,262 462,263 460,264 458,265 453,268 448,273 442,280 437,285 434,287 431,290 427,293 422,296 418,299 413,301 409,304 406,305 400,309 397,315 396,321 397,327 400,336 403,348 408,360 412,368 418,374 425,382 432,391 438,400 444,409 451,420 458,430 465,438 465,362"/>
<polygon class="pen1 brush0" points="148,228 143,229 138,229 133,229 128,228 124,228 120,228 116,228 113,228 109,229 104,229 98,230 92,230 85,231 78,232 72,232 67,233 65,233 62,233 59,234 56,234 56,302 61,303 67,305 72,306 77,308 82,309 86,310 89,311 91,312 93,313 97,315 102,317 107,320 113,322 118,323 123,325 126,325 129,326 133,327 137,329 142,331 146,334 151,336 156,338 160,339 155,336 149,333 144,329 138,325 131,320 122,315 114,311 109,309 105,307 101,303 96,299 91,295 86,291 81,288 78,285 74,283 76,281 77,279 76,276 73,273 78,273 85,273 93,273 102,273 110,273 118,273 125,272 130,270 126,266 128,264 132,261 136,258 141,255 146,253 151,251 156,249 160,249 163,249 167,247 171,245 176,243 180,240 185,237 189,234 193,231 190,231 185,230 179,229 173,229 166,228 160,228 153,228 148,228"/>
<polygon class="pen1 brush0" points="430,462 424,459 417,455 411,451 404,447 398,443 392,440 386,437 381,436 376,435 370,433 363,430 357,427 350,424 344,421 339,418 336,415 331,410 326,407 323,406 322,405 317,410 311,417 305,425 297,431 292,433 288,436 283,438 279,441 275,443 271,446 268,449 265,452 260,457 254,461 248,465 242,468 239,470 235,474 231,478 226,484 287,484 288,482 289,480 290,479 291,477 294,472 297,467 302,461 307,456 312,450 317,445 323,439 327,432 329,433 334,434 340,436 347,438 353,441 359,443 364,444 367,445 370,448 374,451 378,453 384,455 389,456 393,457 397,458 400,459 404,460 409,462 416,464 423,467 431,470 438,472 444,474 448,476 448,473 446,470 440,467 430,462"/>
<polygon class="pen1 brush0" points="197,399 194,405 191,416 188,427 185,436 182,443 181,452 179,461 176,469 174,472 173,476 172,480 172,484 203,484 202,477 202,469 202,462 202,456 202,444 202,430 200,415 197,399"/>
</g>
</svg>
