<?xml version="1.0" encoding="UTF-8" standalone="no"?>
<!DOCTYPE svg PUBLIC "-//W3C//DTD SVG 1.0//EN" "http://www.w3.org/TR/2001/REC-SVG-20010904/DTD/svg10.dtd">
<svg xmlns="http://www.w3.org/2000/svg" xmlns:xlink="http://www.w3.org/1999/xlink" fill-rule="evenodd" height="1.138in" preserveAspectRatio="none" stroke-linecap="round" viewBox="0 0 887 1138" width="0.887in">
<style type="text/css">
.brush0 { fill: rgb(255,255,255); }
.pen0 { stroke: rgb(0,0,0); stroke-width: 1; stroke-linejoin: round; }
.brush1 { fill: none; }
.pen1 { stroke: none; }
.brush2 { fill: rgb(0,0,0); }
</style>
<g>
<polygon class="pen1 brush2" points="582,828 519,853 497,791 551,781 554,787 558,793 562,799 566,805 570,811 574,816 578,822 582,828 582,828"/>
<polygon class="pen1 brush2" points="572,774 582,770 592,766 600,763 607,760 613,759 619,757 623,756 626,756 595,810 590,803 582,792 575,781 572,774 572,774"/>
<polygon class="pen1 brush2" points="564,756 548,713 569,708 584,704 595,701 603,699 611,699 620,702 633,708 651,718 640,724 630,729 619,734 608,739 597,744 586,748 575,752 564,756 564,756 564,756"/>
<polygon class="pen1 brush2" points="658,697 639,684 666,673 658,697 658,697"/>
<polygon class="pen1 brush2" points="652,604 666,616 672,614 677,611 682,608 686,604 674,594 689,589 681,637 622,668 618,663 614,658 610,652 605,646 601,639 596,632 592,624 587,616 652,604 652,604"/>
<polygon class="pen1 brush2" points="635,586 579,596 574,588 569,577 565,566 560,553 612,544 635,586 635,586"/>
<polygon class="pen1 brush2" points="635,540 680,525 683,535 686,546 688,556 690,566 679,567 670,570 664,572 659,574 655,572 650,567 643,557 635,540 635,540 635,540"/>
<polygon class="pen1 brush2" points="219,869 178,868 158,810 193,810 219,869 219,869"/>
<polygon class="pen1 brush2" points="277,804 303,852 295,854 286,857 278,859 271,860 263,862 256,863 249,863 242,864 219,810 277,804 277,804"/>
<polygon class="pen1 brush2" points="212,791 195,730 245,730 265,785 212,791 212,791"/>
<polygon class="pen1 brush2" points="290,779 268,725 334,718 359,760 352,762 345,765 337,767 329,770 320,772 310,775 300,777 290,780 290,779 290,779"/>
<polygon class="pen1 brush2" points="276,705 263,705 248,653 303,653 328,700 276,705 276,705"/>
<polygon class="pen1 brush2" points="328,653 348,649 362,646 372,644 379,645 384,649 390,656 396,668 406,684 401,686 394,688 387,690 379,692 371,693 364,694 356,696 350,697 328,653 328,653"/>
<polygon class="pen1 brush2" points="320,632 307,586 359,582 374,622 320,632 320,632"/>
<polygon class="pen1 brush2" points="350,849 337,866 321,884 304,904 285,925 265,945 245,963 224,980 204,994 184,1004 166,1009 149,1009 134,1003 122,989 113,967 107,937 105,897 106,868 110,838 116,806 124,773 134,739 147,705 161,672 178,640 196,609 216,580 238,553 262,529 287,509 314,492 342,480 372,472 379,471 389,469 399,466 411,462 421,457 430,451 436,444 438,435 438,435 475,433 465,472 466,500 472,528 475,567 473,597 467,629 458,662 444,697 426,733 405,770 379,809 350,849 328,853 303,800 312,798 323,795 336,791 350,787 363,783 374,778 383,772 389,766 385,758 381,750 377,743 373,736 369,731 365,725 361,720 357,716 383,713 404,710 419,705 428,698 431,689 429,676 420,660 406,638 438,629 438,613 398,616 392,602 388,591 385,583 383,578 390,578 398,577 405,577 412,576 420,575 427,573 434,572 441,570 441,553 379,557 374,533 374,533 374,517 368,518 362,519 356,522 350,525 354,562 303,562 299,540 280,548 280,566 253,566 242,586 284,586 295,632 242,632 241,626 239,621 237,615 235,610 219,616 219,632 209,632 203,653 219,653 239,710 189,710 185,691 168,697 168,710 159,710 159,730 171,730 185,791 158,791 151,778 136,798 151,868 150,869 148,869 145,869 141,868 136,889 158,891 162,900 166,909 170,917 175,925 179,933 184,941 188,948 193,955 213,946 185,891 227,889 248,923 268,917 251,886 262,884 273,882 283,880 294,877 303,873 312,869 321,862 328,853 350,849"/>
<polygon class="pen1 brush2" points="530,872 548,868 537,881 525,895 512,910 498,924 482,938 467,951 450,963 433,973 416,981 400,986 383,988 367,986 351,981 337,971 323,956 311,936 331,916 350,896 369,873 387,850 405,826 421,801 436,776 450,749 462,723 473,695 482,668 488,640 493,612 496,584 496,557 494,529 490,493 490,473 491,456 492,429 512,424 526,419 537,413 546,407 555,403 566,401 581,402 603,406 602,424 606,439 613,450 623,460 635,470 647,480 659,491 670,506 626,519 614,486 595,491 603,525 555,532 548,506 530,514 535,537 540,559 546,580 553,601 551,602 548,603 545,604 542,605 542,622 564,622 599,677 590,680 581,682 573,684 565,686 559,688 553,689 547,690 543,691 536,664 516,664 523,697 516,697 509,718 530,718 543,761 492,772 486,752 468,769 474,792 481,815 488,839 497,862 438,878 432,862 414,862 415,882 406,882 398,902 421,902 424,909 428,918 434,930 441,944 460,936 444,899 506,882 513,889 530,882 529,878 529,875 529,873 530,872 530,872 530,872"/>
<polygon class="pen1 brush2" points="303,260 338,230 355,238 370,245 383,252 395,259 408,265 421,269 437,272 455,273 449,267 442,262 435,256 427,250 419,244 409,238 400,231 389,225 412,222 430,220 446,220 459,222 471,228 484,237 497,250 513,268 543,268 540,263 536,259 533,254 529,249 524,244 520,239 515,234 510,228 551,228 590,276 630,281 599,241 605,238 610,235 615,233 620,231 624,229 628,227 632,226 635,225 686,294 728,305 727,303 725,299 722,294 718,288 713,280 706,271 699,260 691,248 749,268 765,291 780,310 795,325 811,339 827,351 845,364 865,378 887,395 856,429 842,420 830,411 819,404 809,398 800,392 791,388 783,385 776,383 768,382 760,382 751,383 742,386 732,389 720,394 707,399 693,406 689,406 685,405 680,404 675,402 669,400 662,398 655,395 647,392 712,357 694,350 678,349 663,354 649,361 635,369 619,376 601,380 579,379 585,374 591,369 597,364 604,358 612,352 620,346 629,340 638,334 612,332 592,337 576,346 563,358 549,371 534,383 514,392 489,395 496,385 503,375 511,365 519,355 528,346 538,337 548,328 558,319 519,319 502,339 487,356 474,372 462,386 448,399 432,410 413,420 389,429 395,419 405,404 417,388 430,370 442,353 453,337 460,326 463,319 443,323 424,332 407,347 391,365 377,386 365,406 354,426 344,444 286,469 293,454 300,438 309,422 318,406 327,389 338,372 349,355 361,337 338,344 318,358 300,375 284,396 271,420 259,444 250,468 242,491 200,498 206,482 213,466 220,450 227,434 234,419 242,404 249,389 257,374 219,386 210,403 202,420 195,437 188,453 181,469 175,484 170,499 165,514 126,517 129,506 132,495 136,483 141,470 147,456 153,442 160,427 168,412 149,420 135,428 125,438 118,449 112,462 107,477 101,494 92,514 59,502 83,450 74,455 66,459 58,463 51,466 45,469 39,472 33,474 29,475 21,464 18,454 18,446 23,439 30,432 39,426 50,419 61,412 8,406 17,368 36,369 53,371 69,374 84,377 99,378 115,378 131,375 148,368 132,361 116,356 100,351 85,347 70,344 55,342 40,340 25,340 32,329 40,320 47,311 54,303 68,303 82,305 95,307 109,309 122,312 134,315 147,318 159,321 171,324 183,326 195,327 207,328 220,328 232,326 244,323 257,319 246,314 236,310 225,306 214,303 203,299 192,296 182,293 171,291 160,288 149,286 138,285 127,283 116,282 105,282 94,281 83,281 99,272 115,265 131,260 146,257 162,255 176,255 191,256 206,258 221,261 236,265 250,269 266,274 281,280 297,286 313,291 329,297 332,297 335,296 338,295 342,294 346,293 350,291 355,289 359,287 355,285 351,282 345,280 339,276 331,273 323,269 313,265 303,260 303,260"/>
<polygon class="pen1 brush2" points="67,105 60,70 110,70 96,47 89,30 87,20 91,15 100,15 111,21 125,32 141,47 144,34 146,24 148,17 148,13 189,27 189,40 187,53 185,68 182,84 204,105 211,90 215,74 218,58 219,42 252,63 251,77 249,94 245,114 239,137 257,153 263,134 268,115 273,96 280,79 313,95 309,116 304,137 297,158 288,180 303,193 309,185 314,176 319,167 325,158 330,149 335,140 339,130 344,120 348,123 353,127 357,130 361,133 365,136 368,139 371,141 374,144 369,157 360,172 348,190 334,207 319,223 304,237 289,247 277,252 219,238 225,236 231,235 237,233 243,232 248,230 253,229 258,227 263,225 246,208 232,211 218,213 204,215 189,218 174,220 159,222 144,223 129,225 122,218 116,209 110,201 104,191 119,191 134,190 148,189 163,188 176,187 190,185 202,182 215,180 195,159 87,162 83,154 80,146 77,138 74,129 163,127 141,105 67,105 67,105"/>
<polygon class="pen1 brush2" points="406,70 414,47 422,49 429,51 435,53 442,54 447,56 452,57 456,58 460,59 421,19 433,14 443,12 451,11 459,13 466,17 474,23 482,30 492,39 497,10 526,22 528,36 527,50 525,65 523,79 543,101 548,83 551,68 552,56 553,47 584,70 581,85 578,100 573,115 568,129 586,159 592,144 597,128 601,111 605,95 621,113 628,128 628,141 624,153 618,165 614,178 614,192 620,208 579,228 568,208 553,208 537,206 519,204 501,201 482,197 461,192 440,187 418,180 416,172 415,165 414,159 414,153 434,158 453,163 471,167 489,170 505,173 520,175 533,176 546,176 534,163 519,154 502,148 484,143 465,139 446,136 427,131 409,125 408,119 407,111 406,104 406,95 425,101 442,107 457,111 471,115 482,118 492,120 501,122 507,122 496,109 486,99 475,93 464,88 451,84 438,81 423,76 406,70 406,70"/>
</g>
</svg>
