<?xml version="1.0" encoding="UTF-8" standalone="no"?>
<!DOCTYPE svg PUBLIC "-//W3C//DTD SVG 1.0//EN" "http://www.w3.org/TR/2001/REC-SVG-20010904/DTD/svg10.dtd">
<svg xmlns="http://www.w3.org/2000/svg" xmlns:xlink="http://www.w3.org/1999/xlink" fill-rule="evenodd" height="0.41in" preserveAspectRatio="none" stroke-linecap="round" viewBox="0 0 460 410" width="0.46in">
<style type="text/css">
.brush0 { fill: rgb(255,255,255); }
.pen0 { stroke: rgb(0,0,0); stroke-width: 1; stroke-linejoin: round; }
.brush1 { fill: none; }
.pen1 { stroke: none; }
.brush2 { fill: rgb(0,0,0); }
</style>
<g>
<polygon class="pen1 brush2" points="460,0 0,0 0,410 460,410 460,0"/>
<polygon class="pen1 brush0" points="460,134 459,116 456,99 453,82 448,65 442,48 435,32 427,16 418,0 386,0 386,0 386,0 386,1 386,1 400,22 411,44 420,66 427,89 431,113 433,138 433,162 430,187 425,211 417,235 408,257 396,278 382,298 366,317 349,334 329,349 313,360 296,369 278,376 260,381 241,385 222,386 202,386 183,384 164,380 145,374 128,366 111,357 95,346 81,334 67,320 55,305 47,292 40,278 34,264 30,250 27,235 26,220 26,205 28,190 31,175 36,160 42,146 49,133 57,121 67,109 78,99 90,89 100,82 111,77 122,72 134,69 145,67 157,66 169,66 181,67 193,70 204,74 215,78 225,84 235,91 244,98 252,107 260,116 268,132 274,150 276,168 275,187 273,196 271,205 268,213 263,221 258,228 252,236 245,242 238,248 232,252 225,255 219,258 212,260 205,261 198,262 191,262 184,261 177,260 170,257 164,254 158,251 152,247 146,242 141,237 137,231 131,222 128,212 126,201 127,190 130,179 134,170 141,161 149,154 152,152 156,150 160,148 164,147 168,146 172,146 176,146 180,147 188,149 196,152 202,157 208,163 211,168 212,174 213,180 213,186 212,192 209,197 205,202 201,206 197,208 193,210 188,210 184,210 180,209 177,207 173,204 170,201 166,197 161,196 156,196 151,198 147,202 146,207 146,212 148,217 151,221 155,224 158,228 162,230 166,233 171,235 175,236 180,237 185,238 190,238 194,237 199,236 204,235 208,233 212,231 216,228 225,221 232,212 237,202 240,191 241,179 239,168 236,157 230,147 226,142 221,137 216,133 210,129 204,126 198,123 192,121 185,120 178,119 171,119 165,120 158,121 151,123 145,125 139,128 133,132 127,137 121,143 116,149 111,156 107,163 104,170 102,178 100,186 99,202 101,218 106,233 114,247 120,255 127,262 135,268 143,274 151,279 161,283 170,286 180,288 190,289 199,289 209,288 219,286 228,284 237,280 246,276 254,270 263,262 272,254 279,245 286,235 291,225 296,214 300,203 302,191 304,167 301,144 293,121 281,100 272,89 262,78 251,69 239,61 227,54 213,48 199,43 185,40 170,38 156,38 141,40 127,42 113,46 100,51 87,58 74,66 60,77 47,90 36,104 26,118 17,134 10,150 5,167 1,185 1,186 1,187 0,189 0,190 0,240 2,251 4,261 7,272 11,282 16,292 21,302 27,311 33,320 46,337 61,353 78,367 95,379 113,389 133,398 153,405 174,410 256,410 268,407 279,404 291,400 302,396 313,391 324,385 335,378 345,371 367,354 386,335 404,315 419,293 432,269 443,245 451,219 457,192 458,184 459,175 460,166 460,158 460,134"/>
</g>
</svg>
