<?xml version="1.0" encoding="UTF-8" standalone="no"?>
<!DOCTYPE svg PUBLIC "-//W3C//DTD SVG 1.0//EN" "http://www.w3.org/TR/2001/REC-SVG-20010904/DTD/svg10.dtd">
<svg xmlns="http://www.w3.org/2000/svg" xmlns:xlink="http://www.w3.org/1999/xlink" fill-rule="evenodd" height="0.999in" preserveAspectRatio="none" stroke-linecap="round" viewBox="0 0 885 999" width="0.885in">
<style type="text/css">
.brush0 { fill: rgb(255,255,255); }
.pen0 { stroke: rgb(0,0,0); stroke-width: 1; stroke-linejoin: round; }
.brush1 { fill: none; }
.pen1 { stroke: none; }
.brush2 { fill: rgb(0,0,0); }
</style>
<g>
<polygon class="pen1 brush2" points="496,929 496,904 502,868 514,822 530,768 549,708 571,644 595,576 620,508 645,440 670,375 693,315 713,260 730,213 743,176 751,150 753,137 723,177 693,219 666,262 639,308 613,354 589,402 566,452 543,501 522,552 501,603 482,654 463,705 445,755 428,806 411,855 395,904 384,912 370,917 355,917 341,914 328,907 319,897 314,884 317,868 331,818 347,769 364,722 383,676 404,631 426,587 449,543 474,499 499,455 525,410 551,365 578,319 606,271 633,222 661,170 688,117 659,125 628,145 595,177 560,217 524,265 488,319 452,378 417,439 383,501 352,564 323,624 297,681 275,732 257,777 244,814 237,841 233,853 225,863 214,869 202,871 191,871 182,867 176,860 175,850 189,784 206,720 225,658 246,598 270,540 297,484 326,430 358,378 392,328 429,281 469,235 511,191 555,150 603,111 652,74 705,39 610,73 525,116 451,168 386,225 330,287 282,352 242,419 209,485 181,549 160,610 143,666 131,716 123,757 118,788 115,807 114,814 100,814 85,813 69,811 54,809 41,807 29,804 22,801 19,797 10,763 4,728 2,692 3,655 5,632 8,609 12,586 17,563 24,540 31,517 39,494 48,472 59,448 71,425 83,402 97,379 111,356 126,334 142,312 159,291 176,270 194,250 212,230 231,211 251,193 271,175 292,157 313,141 334,126 355,111 376,97 397,84 419,72 441,60 463,50 485,40 507,31 529,24 551,17 573,11 596,7 618,3 639,1 661,0 675,0 689,1 702,2 716,4 729,6 742,8 755,11 768,15 780,19 793,24 805,29 817,35 829,41 841,48 853,56 864,64 866,77 863,95 857,117 848,142 836,171 823,202 808,236 792,271 776,308 761,345 747,382 734,420 723,456 715,492 710,525 709,557 702,596 696,632 688,668 681,701 673,733 664,763 655,791 646,818 636,844 626,868 616,891 605,912 593,932 581,951 569,969 556,986 546,989 535,988 524,984 514,977 506,968 499,957 496,943 496,929"/>
</g>
</svg>
