<?xml version="1.0" encoding="UTF-8" standalone="no"?>
<!DOCTYPE svg PUBLIC "-//W3C//DTD SVG 1.0//EN" "http://www.w3.org/TR/2001/REC-SVG-20010904/DTD/svg10.dtd">
<svg xmlns="http://www.w3.org/2000/svg" xmlns:xlink="http://www.w3.org/1999/xlink" fill-rule="evenodd" height="0.661in" preserveAspectRatio="none" stroke-linecap="round" viewBox="0 0 1002 661" width="1.002in">
<style type="text/css">
.brush0 { fill: rgb(255,255,255); }
.pen0 { stroke: rgb(0,0,0); stroke-width: 1; stroke-linejoin: round; }
.brush1 { fill: none; }
.pen1 { stroke: none; }
.brush2 { fill: rgb(0,0,0); }
</style>
<g>
<polygon class="pen1 brush2" points="559,397 590,382 555,341 531,298 516,252 508,204 506,154 506,103 509,52 512,0 548,0 546,8 544,18 543,29 544,39 546,47 551,53 558,54 569,51 587,47 602,52 611,64 616,80 616,97 610,113 599,125 581,129 569,127 560,121 553,113 549,103 546,91 544,79 541,68 538,57 533,100 529,143 527,185 528,227 535,267 549,305 572,341 604,373 608,371 611,369 615,367 618,365 606,341 599,314 601,287 612,262 624,250 637,245 650,244 662,248 671,256 676,268 677,282 671,299 668,306 665,314 666,321 674,324 688,318 699,302 705,279 707,253 704,228 696,205 683,189 663,183 654,185 646,189 639,194 633,199 627,204 620,205 612,204 603,197 615,192 625,185 635,177 645,169 655,164 667,163 681,167 697,177 714,195 725,216 731,240 733,265 729,290 721,314 708,334 690,350 681,355 673,360 664,364 655,367 646,371 637,374 628,378 619,382 641,391 663,397 686,400 708,401 730,400 751,396 772,390 791,381 809,370 825,357 840,342 852,324 862,305 870,283 874,259 876,234 875,217 872,200 868,182 860,166 851,151 838,139 823,132 805,129 793,131 784,136 778,143 776,151 776,159 780,165 787,168 797,167 809,165 817,166 820,170 820,175 817,181 811,187 803,190 794,192 776,188 763,177 755,161 752,144 753,128 760,115 770,109 785,111 789,106 789,93 794,83 802,78 811,76 820,78 827,83 831,93 830,106 832,113 838,117 844,116 849,110 860,91 874,85 889,89 903,99 912,114 915,130 909,146 892,159 886,163 882,169 882,175 884,181 888,186 893,189 901,189 909,185 932,176 951,182 964,198 972,219 972,242 965,262 951,275 927,275 914,273 904,275 898,280 896,286 896,293 899,300 905,305 914,308 936,315 948,327 952,343 950,361 941,378 928,393 911,404 893,408 882,406 874,401 868,395 863,388 859,381 855,377 849,376 842,380 827,390 812,399 798,407 783,414 768,419 753,423 738,425 724,426 709,426 694,425 679,422 664,419 649,414 634,407 618,400 603,391 590,399 616,415 631,434 635,455 631,474 621,490 607,499 590,501 573,492 566,483 564,474 566,466 569,457 573,450 577,443 578,437 576,432 564,428 552,438 541,458 532,484 527,511 529,536 539,554 558,561 568,559 571,555 571,549 569,541 566,534 564,528 566,524 573,522 586,526 593,537 594,551 590,566 582,579 570,586 555,585 537,573 523,554 513,531 508,505 508,478 513,452 524,429 539,410 559,397 559,397 559,397"/>
<polygon class="pen1 brush2" points="931,651 868,651 804,652 783,650 759,647 733,642 709,635 687,625 669,611 656,592 652,568 655,546 664,530 676,519 689,514 701,513 711,516 716,522 714,531 693,533 681,541 677,552 680,564 688,575 701,582 719,583 739,576 749,570 759,564 769,557 780,550 792,543 804,536 816,530 828,524 840,520 852,517 864,516 876,516 887,519 898,524 909,532 919,543 926,555 927,562 922,567 915,571 906,575 898,580 891,587 889,599 891,610 897,619 906,626 916,630 928,633 940,632 951,630 960,625 963,623 968,620 974,617 981,615 987,614 992,615 996,618 997,625 995,633 989,640 980,644 970,647 959,649 948,650 938,651 931,651 931,651 931,651"/>
<polygon class="pen1 brush2" points="290,404 303,404 315,403 327,401 338,399 349,396 360,392 371,387 383,382 374,378 365,374 356,371 347,367 338,364 329,360 320,355 312,350 285,322 272,287 270,250 279,215 295,186 319,169 348,167 381,185 387,189 392,193 396,196 400,197 390,204 382,205 375,204 369,199 363,194 356,189 348,185 339,183 319,189 306,205 298,228 295,253 298,279 304,302 314,318 328,324 335,321 335,311 332,299 327,284 325,269 327,256 338,247 358,244 377,248 390,258 398,274 401,292 401,312 397,332 391,350 384,365 387,367 391,369 394,371 398,373 431,340 453,305 468,267 475,228 477,187 475,144 470,101 465,57 462,68 460,79 458,91 454,103 450,113 443,121 433,127 421,129 403,125 392,113 386,97 385,80 390,64 400,52 414,47 433,51 444,55 452,53 457,48 459,39 460,29 459,19 457,9 455,0 491,0 494,51 497,103 497,154 495,204 486,252 471,298 447,342 412,382 422,388 431,393 440,397 449,401 457,406 465,412 473,420 480,431 487,448 491,471 493,496 491,522 484,546 474,566 459,580 438,585 425,582 416,575 410,565 408,554 409,543 413,533 420,526 430,523 437,525 439,529 438,535 434,542 432,549 431,555 434,559 444,561 460,555 471,540 475,519 475,495 470,471 461,450 448,435 432,429 427,431 426,436 428,444 431,453 433,463 435,473 434,483 429,491 412,500 396,499 381,490 371,474 367,455 371,435 385,415 412,399 400,391 386,399 371,406 357,412 342,417 327,421 312,424 297,426 282,427 267,427 252,425 237,422 222,417 208,412 194,404 180,395 167,385 157,378 150,376 146,377 143,381 140,387 137,393 133,399 127,404 107,409 87,402 69,389 57,370 50,350 52,331 64,316 88,308 97,305 102,300 106,293 106,286 103,280 97,275 88,273 75,275 51,275 37,264 30,245 30,222 37,201 49,184 66,176 87,181 99,186 109,188 115,185 119,181 120,174 117,167 111,161 101,155 89,145 86,130 90,114 100,99 113,88 127,84 141,88 151,104 158,115 165,117 170,110 169,96 170,88 175,82 183,78 192,77 201,78 209,84 213,93 213,106 217,111 232,109 242,115 248,128 250,144 247,161 239,177 226,188 208,192 199,190 191,186 186,181 182,175 182,169 184,165 190,163 200,165 216,167 224,162 226,153 222,142 213,133 199,128 182,131 161,143 152,152 145,162 139,173 134,184 130,197 128,209 126,222 126,234 127,251 129,267 133,283 139,299 146,313 154,327 163,341 174,353 186,364 198,374 212,383 226,390 241,396 257,400 273,403 290,404 290,404"/>
<polygon class="pen1 brush2" points="207,652 198,652 191,623 182,604 170,593 158,591 147,596 139,608 134,627 134,652 122,652 105,653 84,653 61,652 40,649 22,644 10,636 5,625 6,619 9,616 13,614 18,614 23,615 28,617 32,619 36,621 57,630 76,631 93,625 105,615 112,602 112,589 104,577 86,569 76,563 77,554 83,544 91,535 106,524 121,517 136,515 151,517 167,521 182,528 197,536 212,545 227,554 241,563 255,572 268,578 281,582 293,584 304,581 315,575 322,567 326,559 326,551 322,544 316,539 308,534 299,532 288,531 286,523 291,517 300,514 313,514 326,519 338,529 347,545 350,568 346,591 335,609 318,623 297,634 274,642 250,647 228,650 207,652 207,652 207,652"/>
</g>
</svg>
