<?xml version="1.0" encoding="UTF-8" standalone="no"?>
<!DOCTYPE svg PUBLIC "-//W3C//DTD SVG 1.0//EN" "http://www.w3.org/TR/2001/REC-SVG-20010904/DTD/svg10.dtd">
<svg xmlns="http://www.w3.org/2000/svg" xmlns:xlink="http://www.w3.org/1999/xlink" fill-rule="evenodd" height="0.912in" preserveAspectRatio="none" stroke-linecap="round" viewBox="0 0 1096 912" width="1.096in">
<style type="text/css">
.brush0 { fill: rgb(255,255,255); }
.pen0 { stroke: rgb(0,0,0); stroke-width: 1; stroke-linejoin: round; }
.brush1 { fill: none; }
.pen1 { stroke: none; }
.brush2 { fill: rgb(0,0,0); }
</style>
<g>
<polygon class="pen1 brush2" points="625,331 664,337 703,346 741,359 777,374 812,392 845,412 877,436 906,461 932,489 956,520 976,552 994,586 1008,622 1018,660 1025,700 1027,741 1026,788 1021,823 1013,849 999,867 980,878 953,885 918,889 874,892 872,880 868,863 863,843 859,822 856,801 857,783 862,769 872,761 905,746 928,728 942,707 948,683 947,657 939,628 926,598 907,566 898,583 887,598 875,611 861,622 846,630 829,636 811,640 791,641 765,639 741,634 720,627 700,616 682,603 666,588 652,571 640,553 629,533 619,512 610,490 603,467 597,444 592,421 588,398 585,376 568,376 568,376 563,377 550,379 532,382 509,386 486,391 463,398 443,404 429,412 443,421 458,430 473,439 488,449 502,459 517,469 530,480 543,491 555,503 566,515 576,529 584,543 591,559 596,575 599,592 600,611 596,635 586,656 571,675 553,692 534,708 514,725 496,742 481,761 477,737 477,701 476,668 470,653 464,657 461,668 459,682 457,699 455,717 451,731 445,742 436,746 409,741 394,729 388,711 389,688 395,665 404,641 414,620 422,604 417,607 413,610 408,612 404,614 399,616 394,617 389,618 384,619 386,584 389,548 390,512 385,480 368,500 355,523 345,549 337,576 330,604 325,632 321,659 317,684 306,722 293,734 277,726 261,706 245,678 230,648 217,624 207,611 206,627 206,644 207,661 208,677 206,690 202,699 193,704 178,703 162,703 145,709 130,720 119,734 113,747 116,758 128,765 152,766 178,770 198,785 210,807 213,832 207,857 192,877 167,887 130,885 99,867 78,833 66,789 60,740 61,693 66,653 74,625 83,615 92,614 103,611 115,606 127,600 139,592 150,585 159,578 165,571 137,569 114,563 97,555 84,544 76,531 72,516 72,501 76,486 82,471 92,456 103,443 117,432 133,423 150,417 169,415 188,417 208,420 226,422 242,421 259,419 275,416 291,410 308,403 327,394 280,377 251,365 236,358 233,352 240,346 252,338 267,324 283,304 262,304 244,310 227,318 210,328 194,335 179,338 162,335 145,321 132,306 123,295 120,286 120,277 125,268 133,257 144,243 159,226 173,209 186,195 197,185 209,178 222,175 236,176 252,181 271,190 298,203 310,205 311,201 303,190 289,177 272,163 254,150 238,141 245,131 253,123 263,115 274,109 287,103 300,98 314,95 329,92 344,90 359,89 373,89 387,90 401,92 413,95 425,99 435,103 470,129 489,160 495,193 490,228 476,263 457,298 434,330 411,358 421,358 432,357 442,356 453,354 463,352 474,349 485,347 496,344 507,342 518,340 529,337 540,335 551,333 562,332 574,331 585,331 588,297 596,264 607,233 621,203 639,175 659,149 682,126 708,106 735,88 764,74 795,64 826,57 859,54 892,56 925,63 958,74 983,86 1006,103 1027,123 1044,145 1054,169 1056,195 1049,220 1031,246 995,272 966,275 943,261 929,237 924,211 930,188 946,176 975,181 989,184 997,178 999,167 994,152 984,137 967,122 945,112 917,108 876,117 855,141 848,174 847,213 846,252 838,285 816,309 773,318 735,313 712,299 701,279 698,257 700,235 704,215 705,201 700,196 682,200 667,212 655,229 645,250 637,273 632,295 628,315 625,331 624,379 624,379 624,379 628,404 635,429 643,454 654,477 667,499 683,520 701,538 721,555 735,564 751,571 767,577 784,580 800,581 817,578 832,571 845,560 856,543 861,526 859,510 852,495 840,480 825,465 807,451 786,439 763,427 740,416 717,407 694,398 673,391 653,386 637,382 624,379 625,331"/>
</g>
</svg>
