<?xml version="1.0" encoding="UTF-8" standalone="no"?>
<!DOCTYPE svg PUBLIC "-//W3C//DTD SVG 1.0//EN" "http://www.w3.org/TR/2001/REC-SVG-20010904/DTD/svg10.dtd">
<svg xmlns="http://www.w3.org/2000/svg" xmlns:xlink="http://www.w3.org/1999/xlink" fill-rule="evenodd" height="0.537in" preserveAspectRatio="none" stroke-linecap="round" viewBox="0 0 537 537" width="0.537in">
<style type="text/css">
.brush0 { fill: rgb(255,255,255); }
.pen0 { stroke: rgb(0,0,0); stroke-width: 1; stroke-linejoin: round; }
.brush1 { fill: none; }
.pen1 { stroke: none; }
.brush2 { fill: rgb(0,0,0); }
</style>
<g>
<polygon class="pen1 brush2" points="269,537 296,536 323,532 348,525 373,516 396,505 418,491 439,476 458,458 475,439 491,419 504,397 516,373 525,349 532,323 536,296 537,269 536,242 532,215 525,189 516,165 504,141 491,119 475,98 458,79 439,62 418,46 396,33 373,21 348,12 323,5 296,1 269,0 241,1 215,5 189,12 164,21 141,33 118,46 98,62 79,79 61,98 46,119 32,141 21,165 12,189 5,215 1,242 0,269 1,296 5,323 12,349 21,373 32,397 46,419 61,439 79,458 98,476 118,491 141,505 164,516 189,525 215,532 241,536 269,537"/>
<polygon class="pen1 brush0" points="270,39 275,40 281,42 286,45 293,49 301,54 310,61 322,70 335,81 339,103 338,126 333,149 323,173 308,196 288,219 263,240 234,260 192,294 171,329 166,365 173,399 187,429 203,453 216,469 221,475 217,449 216,426 219,405 227,385 239,366 257,347 280,326 310,304 339,278 359,249 371,217 376,185 374,153 366,124 353,100 335,81 322,70 310,61 301,54 293,49 286,45 281,42 275,40 270,39 270,39 271,39 271,39 271,39 295,40 318,44 340,49 361,57 382,67 401,79 419,92 435,107 450,123 463,141 475,160 485,181 493,202 498,224 502,247 503,271 502,292 499,313 495,333 488,352 480,371 471,388 460,405 447,421 434,435 419,449 403,461 386,471 368,481 350,488 330,495 310,499 311,474 321,452 336,430 354,408 371,384 384,357 391,324 387,286 385,294 380,303 373,313 364,324 352,336 339,349 323,362 306,375 289,390 276,407 267,425 263,443 262,460 267,476 275,491 288,502 284,502 280,502 275,503 271,503 247,502 224,498 202,493 181,485 160,475 141,463 123,450 107,435 92,419 79,401 67,382 57,361 49,340 44,318 40,295 39,271 40,248 43,226 49,205 56,184 65,164 76,146 88,128 102,112 117,97 134,83 152,72 171,61 191,53 212,46 234,42 256,39 252,76 238,106 216,132 192,154 171,176 155,200 151,226 161,259 167,250 177,242 191,233 206,224 222,213 238,201 254,186 269,168 277,155 284,140 288,125 291,109 290,92 287,75 280,57 270,39"/>
</g>
</svg>
