<?xml version="1.0" encoding="UTF-8" standalone="no"?>
<!DOCTYPE svg PUBLIC "-//W3C//DTD SVG 1.0//EN" "http://www.w3.org/TR/2001/REC-SVG-20010904/DTD/svg10.dtd">
<svg xmlns="http://www.w3.org/2000/svg" xmlns:xlink="http://www.w3.org/1999/xlink" fill-rule="evenodd" height="0.466in" preserveAspectRatio="none" stroke-linecap="round" viewBox="0 0 609 466" width="0.609in">
<style type="text/css">
.brush0 { fill: rgb(255,255,255); }
.pen0 { stroke: rgb(0,0,0); stroke-width: 1; stroke-linejoin: round; }
.brush1 { fill: none; }
.pen1 { stroke: none; }
.brush2 { fill: rgb(0,0,0); }
</style>
<g>
<polygon class="pen1 brush2" points="609,466 609,0 0,0 0,466 609,466"/>
<polygon class="pen1 brush0" points="152,298 190,254 219,219 240,189 252,163 255,138 249,112 233,82 207,46 209,47 214,50 222,55 232,62 243,70 255,80 266,92 277,106 286,121 293,138 297,157 297,176 293,198 283,220 268,244 246,269 208,314 191,350 190,379 200,402 216,418 233,428 247,434 253,436 251,436 244,435 234,434 221,432 207,430 192,426 176,421 161,415 147,407 135,398 126,387 121,374 120,358 124,341 135,321 152,298"/>
<polygon class="pen1 brush0" points="249,297 287,253 316,218 337,188 349,162 351,137 345,111 329,81 304,45 306,46 311,49 319,54 329,60 340,69 352,79 363,91 374,105 383,120 390,137 394,155 394,175 390,196 380,219 365,243 343,268 305,313 288,349 287,378 297,401 312,417 330,427 343,433 349,435 347,435 340,434 330,433 318,431 303,429 288,425 272,420 257,414 243,406 231,397 223,386 217,373 217,357 221,340 232,320 249,297"/>
<polygon class="pen1 brush0" points="357,295 395,251 425,216 446,186 458,160 461,135 455,108 439,78 413,42 415,43 420,46 428,51 438,58 449,66 461,76 473,89 483,102 492,118 499,134 503,153 503,173 498,194 489,217 473,241 451,266 414,311 397,347 396,376 406,399 422,415 439,425 453,431 459,433 457,433 450,432 440,431 428,429 413,427 398,423 382,418 367,412 353,404 341,395 332,384 327,371 326,355 330,338 340,318 357,295"/>
<polygon class="pen1 brush0" points="609,445 609,402 0,402 0,445 609,445"/>
</g>
</svg>
