<?xml version="1.0" encoding="UTF-8" standalone="no"?>
<!DOCTYPE svg PUBLIC "-//W3C//DTD SVG 1.0//EN" "http://www.w3.org/TR/2001/REC-SVG-20010904/DTD/svg10.dtd">
<svg xmlns="http://www.w3.org/2000/svg" xmlns:xlink="http://www.w3.org/1999/xlink" fill-rule="evenodd" height="0.492in" preserveAspectRatio="none" stroke-linecap="round" viewBox="0 0 376 492" width="0.376in">
<style type="text/css">
.brush0 { fill: rgb(255,255,255); }
.pen0 { stroke: rgb(0,0,0); stroke-width: 1; stroke-linejoin: round; }
.brush1 { fill: none; }
.pen1 { stroke: none; }
.brush2 { fill: rgb(0,0,0); }
</style>
<g>
<polygon class="pen1 brush2" points="0,124 130,235 133,236 142,238 155,243 170,250 185,261 198,276 208,296 213,320 215,355 213,382 210,403 204,420 197,435 188,450 179,467 168,487 169,488 172,488 178,487 184,486 191,484 197,483 201,481 203,481 213,470 221,454 229,435 235,413 240,390 243,367 244,344 243,322 239,297 233,275 225,256 218,239 210,226 204,216 200,210 198,208 205,208 215,206 226,205 238,202 252,200 266,196 281,193 295,189 310,186 323,182 336,179 348,176 358,173 366,171 372,169 376,168 370,167 355,166 333,163 308,161 282,158 259,156 240,155 230,155 235,152 249,145 269,136 292,124 315,112 335,101 350,92 356,87 350,88 333,90 310,93 283,97 255,101 231,105 213,109 205,112 207,108 213,97 222,81 231,63 241,43 249,25 254,10 256,0 252,4 242,16 227,32 210,51 193,70 178,88 167,102 162,110 160,106 154,97 146,83 136,67 126,51 115,37 106,26 99,20 101,39 106,81 112,126 118,154 113,153 101,149 84,144 64,138 43,133 24,128 9,125 0,124"/>
<polygon class="pen1 brush0" points="162,196 168,196 174,194 180,192 187,189 192,186 197,182 200,178 201,174 200,169 198,164 194,158 189,152 183,148 177,144 172,141 166,140 156,144 146,153 140,164 137,175 139,183 144,190 152,194 162,196"/>
<polygon class="pen1 brush2" points="169,181 175,180 180,178 183,174 184,169 183,164 180,160 175,157 169,156 163,157 158,160 154,164 153,169 154,174 158,178 163,180 169,181"/>
</g>
</svg>
