<?xml version="1.0" encoding="UTF-8" standalone="no"?>
<!DOCTYPE svg PUBLIC "-//W3C//DTD SVG 1.0//EN" "http://www.w3.org/TR/2001/REC-SVG-20010904/DTD/svg10.dtd">
<svg xmlns="http://www.w3.org/2000/svg" xmlns:xlink="http://www.w3.org/1999/xlink" fill-rule="evenodd" height="0.888in" preserveAspectRatio="none" stroke-linecap="round" viewBox="0 0 999 888" width="0.999in">
<style type="text/css">
.brush0 { fill: rgb(255,255,255); }
.pen0 { stroke: rgb(0,0,0); stroke-width: 1; stroke-linejoin: round; }
.brush1 { fill: none; }
.pen1 { stroke: none; }
.brush2 { fill: rgb(0,0,0); }
</style>
<g>
<polygon class="pen1 brush2" points="614,885 596,885 580,883 565,878 551,872 539,864 528,855 517,845 508,834 494,810 482,785 473,759 467,735 462,714 459,697 456,686 455,682 453,683 447,686 438,690 426,695 411,701 393,708 374,715 352,721 329,728 305,735 280,740 254,745 228,748 202,750 176,751 151,749 129,746 108,740 89,733 71,722 55,709 41,693 29,674 19,652 13,631 11,611 11,592 14,574 19,557 26,541 34,525 45,510 60,492 78,476 97,461 117,447 138,434 160,422 181,412 202,402 222,394 240,387 257,381 272,376 284,371 292,368 298,366 299,364 296,360 285,348 269,330 250,305 229,277 209,244 192,210 179,174 175,155 174,135 174,117 177,98 183,81 193,64 205,48 222,33 238,22 255,14 271,10 288,7 304,7 320,9 337,13 353,19 372,28 390,38 407,50 424,63 440,77 456,91 470,105 483,119 495,133 505,145 515,157 522,167 529,174 533,180 536,183 537,183 538,181 541,176 545,170 552,162 560,153 569,143 580,132 592,121 605,110 619,99 634,88 650,78 667,69 685,61 703,55 722,50 740,47 758,46 776,47 794,50 812,56 830,64 848,76 866,90 878,102 889,114 898,126 906,138 912,150 918,162 922,174 925,186 927,225 920,263 906,297 889,328 870,353 853,373 840,386 834,391 836,392 844,396 856,402 872,411 890,422 910,435 930,450 949,468 957,476 964,484 971,493 977,502 982,512 986,522 990,532 993,543 996,560 996,578 992,597 986,617 977,637 966,653 954,666 941,676 926,683 911,688 896,691 880,692 855,691 830,686 806,680 784,672 764,665 748,658 736,653 729,651 728,664 728,701 724,751 711,804 704,819 696,833 687,847 676,858 663,868 648,876 632,882 614,885"/>
</g>
</svg>
