<?xml version="1.0" encoding="UTF-8" standalone="no"?>
<!DOCTYPE svg PUBLIC "-//W3C//DTD SVG 1.0//EN" "http://www.w3.org/TR/2001/REC-SVG-20010904/DTD/svg10.dtd">
<svg xmlns="http://www.w3.org/2000/svg" xmlns:xlink="http://www.w3.org/1999/xlink" fill-rule="evenodd" height="0.994in" preserveAspectRatio="none" stroke-linecap="round" viewBox="0 0 757 994" width="0.757in">
<style type="text/css">
.brush0 { fill: rgb(255,255,255); }
.pen0 { stroke: rgb(0,0,0); stroke-width: 1; stroke-linejoin: round; }
.brush1 { fill: none; }
.pen1 { stroke: none; }
.brush2 { fill: rgb(0,0,0); }
</style>
<g>
<polygon class="pen1 brush2" points="163,361 168,386 175,410 185,432 197,453 211,473 226,492 242,510 260,527 278,544 296,560 315,576 333,591 351,606 368,620 384,635 399,649 365,361 757,361 757,386 757,412 755,440 753,468 734,508 715,547 696,587 675,625 655,664 634,701 614,737 593,773 573,807 553,839 533,870 514,899 496,926 478,951 462,974 446,994 432,979 416,965 398,951 381,937 365,921 351,902 339,879 332,852 329,821 331,787 336,752 344,717 321,705 298,693 274,680 250,667 225,653 201,637 177,621 153,604 130,585 107,565 86,544 65,521 47,497 29,470 14,442 0,412 11,361 163,361"/>
<polygon class="pen1 brush2" points="162,308 161,321 161,334 162,348 163,361 11,361 67,108 77,99 87,90 98,82 111,74 123,67 137,61 150,56 165,52 179,49 193,47 208,46 222,47 236,50 250,54 264,60 277,68 409,193 422,174 426,153 423,131 418,108 412,85 407,63 406,42 412,24 413,21 414,17 414,14 416,10 420,6 425,4 434,2 446,1 464,4 479,15 491,30 500,50 506,73 510,97 512,120 513,143 531,150 546,151 559,147 572,141 584,134 597,128 612,125 628,126 655,135 679,150 700,170 718,197 733,229 745,267 753,311 757,361 365,361 344,183 324,179 305,176 287,176 271,176 255,179 241,183 228,189 216,196 205,205 195,215 186,227 179,240 173,255 168,271 164,289 162,308"/>
</g>
</svg>
