<?xml version="1.0" encoding="UTF-8" standalone="no"?>
<!DOCTYPE svg PUBLIC "-//W3C//DTD SVG 1.0//EN" "http://www.w3.org/TR/2001/REC-SVG-20010904/DTD/svg10.dtd">
<svg xmlns="http://www.w3.org/2000/svg" xmlns:xlink="http://www.w3.org/1999/xlink" fill-rule="evenodd" height="0.999in" preserveAspectRatio="none" stroke-linecap="round" viewBox="0 0 999 999" width="0.999in">
<style type="text/css">
.brush0 { fill: rgb(255,255,255); }
.pen0 { stroke: rgb(0,0,0); stroke-width: 1; stroke-linejoin: round; }
.brush1 { fill: none; }
.pen1 { stroke: none; }
.brush2 { fill: rgb(0,0,0); }
</style>
<g>
<polygon class="pen1 brush2" points="999,999 999,0 0,0 0,999 999,999"/>
<polygon class="pen1 brush0" points="482,537 491,536 499,534 506,530 513,524 518,518 522,511 524,503 525,494 524,485 522,477 518,470 513,463 506,458 499,453 491,451 482,450 473,451 465,453 458,458 451,463 446,470 442,477 439,485 438,494 439,503 442,511 446,518 451,524 458,530 465,534 473,536 482,537"/>
<polygon class="pen1 brush0" points="556,417 557,411 558,406 561,401 564,396 569,393 574,390 579,389 585,388 591,389 597,390 602,393 606,396 610,401 613,406 614,411 615,417 614,423 613,429 610,434 606,438 602,442 597,445 591,446 585,447 579,446 574,445 569,442 564,438 561,434 558,429 557,423 556,417"/>
<polygon class="pen1 brush0" points="642,344 642,340 644,337 645,333 648,330 651,327 655,325 658,324 662,324 666,324 670,325 673,327 676,330 679,333 681,337 682,340 682,344 680,352 676,358 670,362 662,364 658,364 655,362 651,361 648,358 645,355 644,352 642,348 642,344"/>
<polygon class="pen1 brush0" points="397,438 392,442 387,445 382,446 376,447 370,446 365,445 360,442 355,438 351,434 349,429 347,423 346,417 347,411 349,406 351,401 355,396 360,393 365,390 370,389 376,388 382,389 387,390 392,393 397,396 401,401 404,406 405,411 406,417 405,423 404,429 401,434 397,438"/>
<polygon class="pen1 brush0" points="320,344 320,340 319,337 317,333 314,330 311,327 307,325 303,324 299,324 295,324 292,325 288,327 285,330 282,333 281,337 279,340 279,344 281,352 285,358 291,362 299,364 303,364 307,362 311,361 314,358 317,355 319,352 320,348 320,344"/>
<polygon class="pen1 brush0" points="236,298 235,299 233,300 232,300 230,300 228,300 226,300 225,299 224,298 223,296 222,295 221,293 221,292 221,290 222,288 223,287 224,286 225,285 226,284 228,283 230,283 232,283 233,284 235,285 236,286 237,287 237,288 238,290 238,292 238,293 237,295 237,296 236,298"/>
<polygon class="pen1 brush0" points="719,294 718,295 717,296 715,297 713,297 712,297 710,296 709,295 707,294 706,293 705,292 705,290 705,288 705,286 705,285 706,283 707,282 709,281 710,280 712,280 713,280 715,280 717,280 718,281 719,282 720,283 721,285 722,286 722,288 722,290 721,292 720,293 719,294"/>
<polygon class="pen1 brush0" points="723,691 722,692 720,692 719,693 717,693 715,693 713,692 712,692 711,691 710,689 709,688 708,686 708,685 708,683 709,681 710,680 711,679 712,678 713,677 715,676 717,676 719,676 720,677 722,678 723,679 724,680 724,681 725,683 725,685 725,686 724,688 724,689 723,691"/>
<polygon class="pen1 brush0" points="246,684 245,685 243,686 242,686 240,686 239,686 237,685 236,685 234,684 233,682 232,681 231,679 231,678 231,676 232,674 233,673 234,672 236,671 237,670 239,669 240,669 242,669 243,670 245,671 246,672 247,673 248,674 249,676 249,678 249,679 248,681 247,682 246,684"/>
<polygon class="pen1 brush0" points="564,530 569,526 574,523 579,522 585,521 591,522 597,523 602,526 606,530 610,535 613,540 614,545 615,551 614,557 613,562 610,567 606,572 602,575 597,578 591,579 585,580 579,579 574,578 569,575 564,572 561,567 558,562 557,557 556,551 557,545 558,540 561,535 564,530"/>
<polygon class="pen1 brush0" points="642,623 642,627 644,631 645,634 648,637 651,640 655,641 658,643 662,643 666,643 670,641 673,640 676,637 679,634 681,631 682,627 682,623 680,615 676,609 670,605 662,604 658,604 655,605 651,607 648,609 645,612 644,616 642,619 642,623"/>
<polygon class="pen1 brush0" points="406,551 405,557 404,562 401,567 397,572 392,575 387,578 382,579 376,580 370,579 365,578 360,575 355,572 351,567 349,562 347,557 346,551 347,545 349,540 351,535 355,530 360,526 365,523 370,522 376,521 382,522 387,523 392,526 397,530 401,535 404,540 405,545 406,551"/>
<polygon class="pen1 brush0" points="320,623 320,627 319,631 317,634 314,637 311,640 307,641 303,643 299,643 295,643 292,641 288,640 285,637 282,634 281,631 279,627 279,623 281,615 285,609 291,605 299,604 303,604 307,605 311,607 314,609 317,612 319,616 320,619 320,623"/>
<polygon class="pen1 brush0" points="481,430 531,376 481,12 427,374 481,430"/>
<polygon class="pen1 brush0" points="481,563 430,616 481,980 535,618 481,563"/>
<polygon class="pen1 brush0" points="550,483 604,461 888,483 606,510 550,483"/>
<polygon class="pen1 brush0" points="411,483 357,461 73,483 355,510 411,483"/>
</g>
</svg>
