<?xml version="1.0" encoding="UTF-8" standalone="no"?>
<!DOCTYPE svg PUBLIC "-//W3C//DTD SVG 1.0//EN" "http://www.w3.org/TR/2001/REC-SVG-20010904/DTD/svg10.dtd">
<svg xmlns="http://www.w3.org/2000/svg" xmlns:xlink="http://www.w3.org/1999/xlink" fill-rule="evenodd" height="0.991in" preserveAspectRatio="none" stroke-linecap="round" viewBox="0 0 992 991" width="0.992in">
<style type="text/css">
.brush0 { fill: rgb(255,255,255); }
.pen0 { stroke: rgb(0,0,0); stroke-width: 1; stroke-linejoin: round; }
.brush1 { fill: none; }
.pen1 { stroke: none; }
.brush2 { fill: rgb(0,0,0); }
</style>
<g>
<polygon class="pen1 brush2" points="510,398 519,379 531,356 544,330 557,302 571,272 583,240 594,209 603,177 609,147 610,118 608,92 600,69 585,50 564,35 536,26 499,23 462,26 433,35 411,50 396,69 388,92 384,118 385,146 390,176 399,208 409,239 422,270 435,301 449,329 462,355 475,378 485,397 467,401 455,379 442,353 428,325 413,294 399,261 386,228 375,194 367,161 362,129 362,99 367,72 379,48 397,28 423,13 457,3 500,0 542,3 575,13 599,28 617,48 627,72 632,100 632,130 628,162 620,195 609,229 596,262 582,295 567,326 553,354 539,380 528,401 534,404 540,407 545,409 549,411 552,413 555,415 557,417 558,418 787,158 801,158 812,160 820,163 827,167 831,173 834,182 836,192 836,206 573,435 578,442 583,449 586,457 589,465 610,453 636,440 664,425 695,410 728,395 762,382 796,371 829,362 861,358 892,357 919,362 944,374 964,392 979,417 989,452 992,495 989,538 979,572 964,597 944,615 920,626 893,632 863,632 831,627 798,619 764,608 730,595 698,581 666,566 638,551 612,538 590,526 594,509 612,518 635,529 660,542 689,555 719,568 751,580 783,591 814,599 845,604 874,606 901,603 924,595 943,580 958,560 968,531 971,495 968,458 958,429 944,408 924,394 901,386 875,383 846,384 816,389 784,398 752,409 721,421 690,435 662,448 636,461 614,472 595,482 595,482 595,482 594,509 590,526 584,537 580,546 576,552 573,555 836,783 835,797 834,808 830,816 826,822 819,826 810,829 799,831 785,832 557,573 554,575 551,577 547,579 544,580 540,582 536,584 532,586 527,588 539,609 553,635 568,663 584,694 599,727 612,761 624,795 633,828 637,860 638,891 633,918 622,943 603,963 577,978 542,988 498,991 455,988 421,978 396,963 378,943 366,919 361,891 361,861 365,829 373,796 383,762 396,728 411,696 426,665 441,636 455,611 467,589 484,592 475,610 464,632 451,658 438,686 424,716 412,747 401,779 393,811 387,842 386,871 388,898 397,921 411,940 432,955 460,965 497,968 534,965 564,955 585,941 600,921 609,898 612,872 611,843 605,813 597,781 586,749 574,718 560,687 547,659 534,633 522,611 512,592 512,592 512,592 484,592 467,589 459,585 453,581 446,576 440,571 209,833 194,833 183,831 174,829 167,824 162,818 159,809 157,797 157,783 157,783 421,554 416,547 412,540 408,533 405,525 401,507 399,483 381,474 359,462 333,449 305,436 275,422 243,410 212,398 180,390 149,384 121,382 94,385 71,393 51,407 37,429 27,458 24,495 27,532 37,561 52,582 71,596 94,604 121,607 150,605 181,599 212,591 244,579 276,567 306,553 335,540 360,527 383,516 401,507 405,525 384,536 358,549 330,563 299,578 266,593 232,606 198,618 164,626 132,631 101,632 73,627 49,616 29,598 13,573 3,539 0,495 3,450 13,416 29,390 49,371 74,361 102,356 133,357 165,362 199,371 233,382 267,396 300,411 330,426 359,440 383,453 404,464 421,432 159,205 159,193 159,183 160,175 163,168 167,163 174,159 184,157 197,156 205,159 216,166 229,177 244,191 261,209 279,229 298,250 318,272 338,295 357,317 375,339 392,360 407,378 420,394 431,407 439,416 445,412 452,408 459,404 467,401 485,397 510,398 498,418 465,425 441,442 427,466 422,494 427,522 441,546 465,563 498,570 498,570 530,563 553,546 568,522 573,494 568,466 555,442 531,425 498,418 510,398"/>
</g>
</svg>
