<?xml version="1.0" encoding="UTF-8" standalone="no"?>
<!DOCTYPE svg PUBLIC "-//W3C//DTD SVG 1.0//EN" "http://www.w3.org/TR/2001/REC-SVG-20010904/DTD/svg10.dtd">
<svg xmlns="http://www.w3.org/2000/svg" xmlns:xlink="http://www.w3.org/1999/xlink" fill-rule="evenodd" height="1.203in" preserveAspectRatio="none" stroke-linecap="round" viewBox="0 0 1246 1203" width="1.246in">
<style type="text/css">
.brush0 { fill: rgb(255,255,255); }
.pen0 { stroke: rgb(0,0,0); stroke-width: 1; stroke-linejoin: round; }
.brush1 { fill: none; }
.pen1 { stroke: none; }
.brush2 { fill: rgb(0,0,0); }
</style>
<g>
<polygon class="pen1 brush2" points="626,437 613,436 600,433 586,429 573,423 560,415 547,407 535,397 523,386 511,374 501,362 491,349 483,335 476,321 470,307 465,293 462,279 390,254 351,239 313,238 277,249 243,270 213,301 186,338 164,380 146,426 133,474 127,522 126,567 133,609 148,646 170,676 201,696 242,706 286,647 241,637 213,609 201,568 201,519 211,468 227,418 247,376 268,345 285,330 302,321 321,317 339,317 358,322 377,331 395,343 412,357 429,373 444,392 457,411 469,431 479,451 486,470 490,489 492,506 492,506 491,506 489,522 485,536 478,551 469,564 458,576 445,588 431,599 415,608 399,617 382,625 365,631 348,637 331,641 315,644 300,646 286,647 242,706 218,735 206,768 204,804 213,841 230,878 254,914 284,948 319,980 358,1007 399,1028 440,1043 482,1051 523,1049 560,1038 594,1016 623,981 580,915 569,940 554,957 536,969 514,974 490,974 465,970 438,961 412,949 386,934 361,916 338,897 318,877 301,856 288,834 280,814 277,794 280,774 290,754 306,736 325,719 349,704 375,692 403,683 432,677 461,675 489,677 515,685 539,697 558,715 574,739 584,769 587,807 587,807 587,832 587,861 585,890 580,915 623,981 651,1016 684,1039 722,1050 762,1052 803,1045 845,1030 886,1008 924,981 960,949 990,915 1014,878 1032,841 1040,804 1039,768 1027,735 1003,706 892,704 907,713 921,722 933,733 944,744 952,756 959,768 963,781 964,794 964,794 961,799 958,806 955,817 950,829 945,841 939,854 932,866 923,876 897,900 871,921 845,938 821,953 798,964 775,972 755,975 735,975 718,971 702,962 688,948 676,930 667,907 660,879 655,846 654,807 656,781 660,758 668,738 678,721 691,707 705,696 721,688 739,682 757,678 776,676 796,677 816,679 836,683 855,689 874,696 892,704 1003,706 1044,696 1075,675 1097,646 1112,609 1118,566 1118,520 1111,472 1098,424 1080,378 1058,336 1031,298 1000,268 967,247 932,236 894,238 856,254 852,339 882,324 910,320 937,326 961,340 983,361 1003,387 1019,418 1031,451 1039,486 1043,520 1043,553 1037,583 1026,609 1009,629 986,642 957,647 957,647 957,647 953,647 947,646 939,644 931,642 920,639 908,635 895,631 880,626 857,617 835,608 816,598 800,588 785,577 773,565 763,552 757,538 752,524 751,508 752,491 756,473 763,453 774,433 787,411 804,387 810,379 816,372 822,365 828,359 834,353 840,348 846,343 852,339 856,254 850,210 835,172 810,142 779,117 741,99 700,86 656,80 611,79 566,84 523,94 483,109 449,129 421,154 401,183 390,216 390,254 462,279 461,267 461,255 462,244 465,233 469,222 475,212 482,202 491,193 502,185 515,178 529,172 546,166 565,162 585,159 609,157 634,156 682,159 720,168 748,182 769,200 781,221 787,245 786,270 780,296 769,323 755,348 737,372 716,393 694,411 672,425 648,434 626,437 622,509 652,515 673,531 686,553 690,579 686,605 673,627 652,643 622,649 622,649 592,643 570,627 557,605 553,579 557,553 571,531 592,515 622,509 626,437"/>
</g>
</svg>
