<?xml version="1.0" encoding="UTF-8" standalone="no"?>
<!DOCTYPE svg PUBLIC "-//W3C//DTD SVG 1.0//EN" "http://www.w3.org/TR/2001/REC-SVG-20010904/DTD/svg10.dtd">
<svg xmlns="http://www.w3.org/2000/svg" xmlns:xlink="http://www.w3.org/1999/xlink" fill-rule="evenodd" height="1.003in" preserveAspectRatio="none" stroke-linecap="round" viewBox="0 0 999 1003" width="0.999in">
<style type="text/css">
.brush0 { fill: rgb(255,255,255); }
.pen0 { stroke: rgb(0,0,0); stroke-width: 1; stroke-linejoin: round; }
.brush1 { fill: none; }
.pen1 { stroke: none; }
.brush2 { fill: rgb(0,0,0); }
</style>
<g>
<polygon class="pen1 brush2" points="253,993 229,983 214,968 204,949 198,926 192,902 184,878 171,855 151,835 151,819 153,804 157,790 163,777 170,764 179,751 190,739 201,728 213,717 226,706 239,695 253,685 267,675 280,664 294,654 307,644 492,570 446,953 442,958 437,962 430,966 423,969 415,973 407,977 399,981 391,986 370,966 359,962 346,964 332,969 316,976 300,984 284,990 268,994 253,993 253,993"/>
<polygon class="pen1 brush2" points="684,979 652,949 624,904 602,849 584,788 570,726 560,666 554,613 550,571 574,584 598,595 624,604 650,613 675,621 701,628 727,636 752,644 776,653 799,663 821,675 841,689 859,705 876,725 890,747 901,773 854,815 854,829 855,844 855,860 855,876 853,892 848,908 841,923 830,936 684,979 684,979"/>
<polygon class="pen1 brush2" points="116,611 465,516 450,500 433,482 415,461 394,440 373,417 350,395 326,373 302,352 277,332 252,315 226,300 201,289 175,282 151,279 126,282 103,290 90,345 75,350 61,354 47,358 35,364 25,371 16,380 9,392 5,408 4,418 5,429 8,442 13,455 20,467 29,479 41,489 56,496 64,506 66,517 66,529 65,541 67,555 74,571 90,590 116,611 116,611"/>
<polygon class="pen1 brush2" points="806,570 566,496 582,476 597,456 613,434 629,412 645,391 662,369 679,348 697,329 716,310 737,293 758,278 781,265 805,255 831,248 858,244 888,243 893,265 905,282 923,296 943,308 962,322 979,339 990,361 993,391 991,405 986,415 979,422 971,428 962,432 954,437 947,442 942,449 943,460 947,469 952,477 957,484 961,491 963,499 962,510 958,523 939,531 921,539 902,547 884,554 865,560 846,565 826,569 806,570 806,570"/>
<polygon class="pen1 brush2" points="512,483 496,464 480,444 464,422 448,400 432,376 417,351 403,325 390,299 379,272 370,245 363,217 358,189 356,161 357,133 362,105 370,78 431,78 439,61 447,46 457,32 467,21 478,13 490,6 504,3 518,2 530,4 541,8 550,16 558,26 565,39 571,54 577,73 583,95 585,95 591,95 600,95 611,96 623,97 635,99 646,102 655,107 660,132 661,157 660,182 655,206 648,230 638,254 627,278 615,301 602,325 588,348 573,371 559,393 546,416 533,439 522,461 512,483"/>
</g>
</svg>
