<?xml version="1.0" encoding="UTF-8" standalone="no"?>
<!DOCTYPE svg PUBLIC "-//W3C//DTD SVG 1.0//EN" "http://www.w3.org/TR/2001/REC-SVG-20010904/DTD/svg10.dtd">
<svg xmlns="http://www.w3.org/2000/svg" xmlns:xlink="http://www.w3.org/1999/xlink" fill-rule="evenodd" height="0.777in" preserveAspectRatio="none" stroke-linecap="round" viewBox="0 0 777 777" width="0.777in">
<style type="text/css">
.brush0 { fill: rgb(255,255,255); }
.pen0 { stroke: rgb(0,0,0); stroke-width: 1; stroke-linejoin: round; }
.brush1 { fill: none; }
.pen1 { stroke: none; }
.brush2 { fill: rgb(0,0,0); }
</style>
<g>
<polygon class="pen1 brush2" points="0,777 0,0 777,0 777,777 0,777"/>
<polygon class="pen1 brush0" points="396,218 380,216 364,212 350,204 338,194 328,182 320,168 316,152 314,136 316,119 320,104 328,90 338,78 350,68 364,60 380,56 396,54 412,56 427,60 441,68 453,78 463,90 471,104 475,119 477,136 475,152 471,168 463,182 453,194 441,204 427,212 412,216 396,218"/>
<polygon class="pen1 brush0" points="426,255 426,319 429,319 437,319 449,318 465,317 483,314 504,309 526,302 548,293 570,280 590,265 609,245 625,222 638,194 646,161 649,123 647,79 647,81 648,87 648,97 647,109 645,124 641,140 636,157 628,174 617,191 603,208 585,223 563,236 537,246 506,253 469,256 426,255"/>
<polygon class="pen1 brush0" points="371,255 371,319 368,319 360,319 348,318 332,317 313,314 293,309 271,302 248,293 226,280 205,265 186,245 170,222 157,194 149,161 146,123 148,79 148,81 147,87 147,97 148,109 150,124 154,140 159,157 167,174 178,191 192,208 210,223 232,236 259,246 291,253 328,256 371,255"/>
<polygon class="pen1 brush0" points="435,312 433,314 428,318 419,326 408,336 395,349 381,364 365,381 350,399 334,418 318,439 304,461 292,483 281,505 273,528 268,550 267,572 270,587 276,602 287,617 300,632 315,647 332,662 350,676 368,689 387,701 405,713 421,723 436,731 449,738 459,744 465,747 467,748 461,743 445,729 423,708 397,680 371,648 349,613 333,577 327,540 332,510 344,475 361,437 381,400 401,366 418,338 430,319 435,312"/>
<polygon class="pen1 brush0" points="360,312 362,314 367,318 376,326 387,336 400,349 414,364 429,381 445,399 461,418 476,439 490,461 503,483 513,505 521,528 526,550 527,572 524,587 518,602 508,617 495,632 480,647 463,662 445,676 426,689 408,701 390,713 373,723 358,731 345,738 336,744 329,747 327,748 333,743 349,729 371,708 397,680 423,648 445,613 461,577 467,540 462,510 450,475 433,437 414,400 394,366 377,338 365,319 360,312"/>
</g>
</svg>
