<?xml version="1.0" encoding="UTF-8" standalone="no"?>
<!DOCTYPE svg PUBLIC "-//W3C//DTD SVG 1.0//EN" "http://www.w3.org/TR/2001/REC-SVG-20010904/DTD/svg10.dtd">
<svg xmlns="http://www.w3.org/2000/svg" xmlns:xlink="http://www.w3.org/1999/xlink" fill-rule="evenodd" height="1.0in" preserveAspectRatio="none" stroke-linecap="round" viewBox="0 0 675 1000" width="0.675in">
<style type="text/css">
.brush0 { fill: rgb(255,255,255); }
.pen0 { stroke: rgb(0,0,0); stroke-width: 1; stroke-linejoin: round; }
.brush1 { fill: none; }
.pen1 { stroke: none; }
.brush2 { fill: rgb(0,0,0); }
</style>
<g>
<polygon class="pen1 brush2" points="375,977 365,920 363,867 368,817 379,769 394,724 414,680 437,639 462,599 488,560 514,522 540,484 563,447 583,409 600,372 611,333 617,294 616,288 613,284 609,281 603,281 597,282 591,283 585,285 581,288 555,311 530,336 508,364 487,394 468,425 450,458 433,491 418,526 403,561 389,596 376,631 363,665 351,699 339,732 326,764 314,794 304,816 293,837 282,857 270,875 258,891 246,904 233,914 219,922 206,924 189,920 172,912 155,898 141,878 133,853 131,821 138,784 155,735 177,689 202,645 231,602 261,561 294,520 327,480 361,440 395,401 427,360 458,319 487,277 512,233 534,187 552,139 564,88 537,95 510,106 484,123 458,145 432,170 407,200 382,233 357,269 333,307 310,348 287,391 264,435 242,480 220,526 199,572 179,618 170,628 155,640 137,653 117,666 97,677 79,687 65,694 56,696 44,692 34,681 25,667 17,650 12,631 8,612 8,595 10,581 34,531 61,484 91,441 123,401 157,363 191,328 225,296 259,265 292,237 324,210 353,185 379,161 401,138 420,116 434,95 442,74 414,74 386,81 359,95 332,115 306,139 281,167 256,197 232,229 208,261 184,292 161,322 139,349 117,372 95,391 74,403 54,409 41,386 33,362 29,339 29,315 32,296 37,277 45,258 55,239 67,221 81,203 97,186 115,169 125,160 135,152 146,144 157,135 168,128 179,120 191,112 204,105 216,98 229,91 242,85 255,78 268,72 281,66 295,61 308,55 327,48 346,42 365,36 384,31 402,26 421,22 440,19 458,16 476,14 494,13 511,12 528,12 545,13 561,15 576,18 591,21 613,42 631,66 646,92 657,120 665,151 670,183 672,217 672,253 667,303 659,354 648,407 634,461 618,515 600,570 581,623 561,676 546,716 530,756 516,793 502,829 489,863 477,895 468,924 460,950 449,966 436,979 423,987 410,991 397,992 387,990 379,984 375,977"/>
</g>
</svg>
