<?xml version="1.0" encoding="UTF-8" standalone="no"?>
<!DOCTYPE svg PUBLIC "-//W3C//DTD SVG 1.0//EN" "http://www.w3.org/TR/2001/REC-SVG-20010904/DTD/svg10.dtd">
<svg xmlns="http://www.w3.org/2000/svg" xmlns:xlink="http://www.w3.org/1999/xlink" fill-rule="evenodd" height="0.993in" preserveAspectRatio="none" stroke-linecap="round" viewBox="0 0 994 993" width="0.994in">
<style type="text/css">
.brush0 { fill: rgb(255,255,255); }
.pen0 { stroke: rgb(0,0,0); stroke-width: 1; stroke-linejoin: round; }
.brush1 { fill: none; }
.pen1 { stroke: none; }
.brush2 { fill: rgb(0,0,0); }
</style>
<g>
<polygon class="pen1 brush2" points="499,402 541,410 570,432 589,463 595,499 589,535 572,566 541,588 499,596 456,588 426,566 408,535 402,499 408,463 427,432 457,410 499,402 499,402"/>
<polygon class="pen1 brush2" points="496,153 502,135 508,118 515,102 523,87 532,74 541,61 551,50 562,39 573,30 586,22 599,16 614,10 630,6 647,3 665,1 684,0 723,2 755,9 779,20 798,36 811,57 820,83 825,114 826,150 843,134 859,117 873,101 885,84 894,66 901,46 905,25 907,1 994,1 994,89 967,89 945,93 925,99 908,107 892,119 876,134 859,151 841,171 874,170 904,173 930,179 952,191 970,208 983,231 991,261 994,299 992,339 986,374 975,404 959,429 938,451 912,469 879,485 841,498 841,498 877,510 908,526 934,544 955,565 972,590 984,619 991,652 993,690 990,728 983,759 971,783 954,801 932,814 906,822 876,826 841,826 858,844 874,860 891,874 909,886 928,896 948,904 970,908 994,910 994,993 905,993 904,969 900,947 893,927 884,908 873,890 859,873 844,856 826,839 825,874 821,905 813,932 800,953 782,971 758,983 726,990 687,993 668,992 649,991 632,988 616,983 601,978 587,971 574,963 562,954 550,944 540,932 531,919 523,905 516,890 509,874 504,856 499,837 494,856 488,874 481,891 473,906 465,920 456,933 445,944 434,955 422,964 409,972 395,978 379,984 363,988 345,991 327,992 307,993 267,991 236,983 212,971 194,954 181,932 173,906 169,875 168,839 150,856 134,873 121,890 109,908 101,927 94,947 90,969 89,993 0,993 0,910 24,908 46,904 66,897 85,887 103,875 120,860 136,844 153,826 118,826 88,822 62,814 40,801 23,783 11,759 4,728 1,690 3,651 10,618 22,589 38,564 60,543 86,526 117,511 153,498 115,486 83,470 57,452 36,430 20,405 9,374 2,339 0,299 3,261 11,231 24,208 42,191 64,180 90,174 120,171 153,171 135,151 118,134 102,119 86,107 69,99 49,93 27,89 0,89 0,1 87,1 88,25 93,46 99,66 109,84 120,101 134,117 150,134 168,150 169,114 173,84 181,58 194,37 212,21 237,9 269,2 310,0 329,1 347,3 364,6 380,10 394,16 408,22 421,30 432,39 443,50 453,61 462,74 470,87 478,102 485,118 491,135 496,153 493,278 482,249 472,223 462,199 453,178 445,160 438,144 431,131 425,120 438,296 424,270 408,246 390,223 372,201 352,180 332,159 311,139 291,118 292,131 301,155 316,185 335,219 354,254 373,287 389,315 399,335 382,321 367,306 352,290 337,274 322,257 306,242 290,227 272,214 273,220 277,228 282,239 289,252 298,267 310,284 323,304 338,325 324,316 309,306 294,295 278,285 261,276 245,269 228,263 211,260 227,277 245,292 263,306 281,320 299,334 316,348 332,363 346,378 332,372 318,366 304,360 290,354 276,349 263,344 249,339 235,334 221,330 207,326 193,323 178,320 164,318 149,316 134,315 118,315 120,319 126,324 136,330 148,336 162,343 178,350 195,357 213,365 231,372 249,379 267,386 283,393 297,399 310,404 320,408 327,412 316,412 306,411 295,410 284,408 274,406 263,404 253,401 242,399 231,397 220,394 209,392 198,390 187,388 176,387 165,386 153,386 160,392 168,398 177,404 187,409 197,413 208,417 220,421 232,425 244,429 255,432 267,436 279,439 290,443 301,447 311,451 320,455 300,452 280,449 261,446 241,444 222,442 202,443 183,445 164,449 166,453 170,457 177,462 186,465 196,469 208,473 222,476 235,480 249,483 264,485 277,488 290,490 302,492 312,494 321,495 327,496 292,503 261,511 234,518 212,524 195,531 181,537 172,543 168,549 310,539 291,545 274,550 257,556 241,562 226,567 211,573 198,579 186,584 174,590 163,596 154,601 145,607 137,612 130,618 123,624 118,629 309,587 309,594 298,599 286,605 274,610 262,615 250,620 238,626 226,631 214,636 202,642 190,648 179,654 168,661 157,668 146,675 136,683 127,691 138,691 150,690 161,688 172,686 182,684 193,681 204,678 215,675 225,671 236,667 246,663 257,659 267,655 278,650 288,646 299,642 286,655 272,668 257,682 242,697 227,712 214,727 203,743 196,759 215,751 235,740 256,725 276,709 296,692 314,675 331,660 346,647 334,668 320,688 304,707 288,726 273,746 260,767 250,789 245,813 256,803 268,791 281,777 296,760 313,742 331,721 350,697 371,672 361,696 352,721 343,746 336,771 329,797 324,822 321,849 320,875 338,856 354,832 368,803 380,772 390,741 399,710 407,681 415,655 383,864 392,855 402,834 413,804 425,769 436,735 445,705 452,684 456,676 453,717 447,759 445,800 453,839 463,813 471,788 478,766 484,746 488,728 491,712 493,698 494,686 503,713 513,738 522,761 531,782 539,801 548,818 557,833 565,846 571,843 540,672 550,697 562,725 574,756 587,788 601,819 615,848 631,874 647,895 649,876 644,848 635,814 623,778 610,743 597,711 587,687 581,672 594,688 607,706 621,725 635,744 649,762 665,779 680,794 696,806 690,782 681,759 672,738 661,718 650,698 637,678 624,658 610,637 782,786 779,765 770,745 757,724 742,704 724,684 707,667 690,651 676,637 688,642 700,648 712,654 724,660 736,667 748,673 760,680 772,687 784,695 796,702 808,709 820,716 832,722 844,729 857,735 869,741 865,733 859,725 853,717 846,709 837,700 828,691 817,682 806,673 793,663 779,653 765,643 749,632 732,621 714,610 696,599 676,587 884,653 877,645 868,636 858,628 847,620 835,612 822,605 808,597 795,590 780,583 766,577 752,571 737,566 724,561 711,556 698,552 687,549 687,549 687,549 704,549 721,549 736,550 752,551 767,553 783,554 799,557 815,560 813,556 808,551 798,545 786,538 769,531 748,523 724,514 696,504 707,498 721,492 737,486 756,481 774,476 792,471 809,465 824,459 811,455 796,454 779,455 762,456 745,458 728,461 711,462 696,463 700,461 708,457 721,452 737,446 758,438 783,429 812,419 846,407 837,404 828,401 818,399 808,398 798,398 787,399 776,400 765,401 754,403 743,405 732,407 722,410 712,413 702,415 693,418 684,420 703,411 721,403 738,395 754,388 769,381 783,375 796,369 808,363 819,358 829,353 838,349 845,345 852,341 857,338 862,335 865,333 854,330 841,329 827,330 812,331 796,334 780,337 763,342 746,347 729,352 713,358 697,363 682,369 667,374 654,379 643,383 633,386 645,380 656,374 668,367 680,361 692,355 704,348 717,341 729,334 740,327 752,320 763,312 774,304 785,296 796,287 806,278 815,269 796,273 777,279 758,285 739,292 721,300 702,308 684,317 666,325 690,299 711,276 730,255 746,236 760,220 771,206 780,194 786,184 771,190 755,198 738,209 721,220 704,233 689,246 675,258 663,269 676,244 687,221 696,200 704,181 710,165 714,151 717,139 718,129 707,140 694,155 679,174 663,196 645,222 625,251 604,284 581,321 583,293 589,266 596,239 605,212 614,185 622,158 627,131 629,103 619,120 608,138 597,158 586,179 575,202 564,227 552,253 540,280 541,251 544,220 548,190 552,161 546,167 540,175 534,186 527,199 519,215 511,234 502,255 493,278 496,153"/>
</g>
</svg>
