<?xml version="1.0" encoding="UTF-8" standalone="no"?>
<!DOCTYPE svg PUBLIC "-//W3C//DTD SVG 1.0//EN" "http://www.w3.org/TR/2001/REC-SVG-20010904/DTD/svg10.dtd">
<svg xmlns="http://www.w3.org/2000/svg" xmlns:xlink="http://www.w3.org/1999/xlink" fill-rule="evenodd" height="1.006in" preserveAspectRatio="none" stroke-linecap="round" viewBox="0 0 1053 1006" width="1.053in">
<style type="text/css">
.brush0 { fill: rgb(255,255,255); }
.pen0 { stroke: rgb(0,0,0); stroke-width: 1; stroke-linejoin: round; }
.brush1 { fill: none; }
.pen1 { stroke: none; }
.brush2 { fill: rgb(0,0,0); }
</style>
<g>
<polygon class="pen1 brush2" points="728,581 723,573 727,569 733,569 737,569 802,569 841,565 875,555 905,538 930,517 950,492 965,464 975,434 980,403 980,373 974,343 963,315 945,290 923,269 894,252 859,242 818,238 804,238 791,239 779,241 767,244 755,247 744,250 734,254 723,259 713,264 703,269 693,275 682,281 672,287 661,294 650,301 639,308 673,326 715,304 754,293 788,291 818,297 843,310 863,328 878,351 888,376 892,403 891,431 883,457 869,482 848,503 820,520 786,531 744,535 714,533 688,527 669,518 657,506 654,493 661,479 679,464 709,450 724,444 740,435 753,426 764,417 772,408 775,402 772,399 763,399 763,399 679,415 650,418 632,413 622,404 620,390 625,374 636,357 653,341 673,326 639,308 629,303 635,280 640,256 644,231 646,205 647,180 647,155 644,130 640,107 633,85 623,64 610,46 595,31 576,18 553,8 527,2 496,0 465,2 438,8 415,17 395,29 378,45 364,62 353,82 345,104 339,127 336,151 334,176 335,202 337,228 341,254 346,279 353,303 384,299 376,268 373,233 376,197 385,162 400,130 422,105 451,88 487,82 525,88 556,106 580,133 596,165 604,202 606,241 601,278 588,312 565,345 547,350 532,335 520,306 511,271 503,238 497,212 490,202 490,202 481,218 476,239 473,263 472,288 470,311 465,330 455,343 439,348 430,347 421,344 414,340 406,334 400,327 394,319 388,309 384,299 353,303 343,308 259,256 239,245 217,237 196,232 174,229 152,229 130,232 110,238 90,246 71,256 54,270 39,285 26,303 15,323 7,345 2,370 0,397 1,422 6,445 13,466 22,484 34,500 47,514 63,526 80,537 98,545 117,552 138,558 159,562 180,565 202,567 223,569 245,569 246,535 233,534 219,532 205,529 191,525 177,520 164,514 151,508 139,500 128,491 118,482 109,472 101,460 95,448 90,435 87,420 86,405 89,374 98,349 112,330 129,315 150,304 174,298 199,295 225,296 250,301 275,308 299,317 320,329 337,343 351,358 360,374 363,391 357,409 341,417 318,417 291,412 263,406 238,401 218,400 207,407 207,407 207,407 212,420 226,430 246,439 268,447 290,456 310,466 324,479 329,496 327,506 322,514 315,521 304,527 292,531 278,534 262,535 246,535 245,569 254,576 254,581 234,594 215,609 197,624 180,641 165,658 151,676 139,695 130,715 123,735 119,755 118,776 121,797 127,819 138,840 153,862 172,883 196,903 219,919 243,929 266,935 290,936 312,934 334,927 355,917 375,905 394,889 412,871 428,850 442,828 454,803 465,778 473,751 444,734 437,756 427,777 414,798 398,817 378,833 355,846 329,854 299,857 269,854 244,845 224,832 210,814 200,793 195,770 194,746 198,720 204,694 215,670 228,647 244,626 263,608 285,595 308,586 333,583 356,589 363,605 357,628 344,654 329,681 315,707 307,726 310,738 310,738 310,738 320,738 331,731 343,719 357,704 370,689 382,674 393,662 403,655 416,650 428,650 437,656 443,666 447,679 449,696 448,714 444,734 473,751 486,740 498,744 511,758 522,778 531,801 539,823 544,840 547,848 564,873 584,894 606,910 631,921 656,929 682,932 708,931 734,926 759,918 783,906 804,890 823,871 838,849 850,824 857,796 860,765 857,732 849,703 835,677 818,653 798,633 776,614 752,597 728,581 680,590 701,601 720,616 739,633 756,653 770,675 781,696 788,717 790,737 787,770 779,797 766,819 750,835 730,847 708,853 685,855 661,853 636,846 613,835 591,819 571,800 555,777 542,751 534,721 531,688 536,658 549,649 568,655 591,671 615,693 638,714 658,731 673,738 673,738 673,738 678,725 672,704 660,679 645,652 632,626 626,604 630,589 649,583 653,583 657,584 661,584 665,585 668,586 672,587 676,589 680,590 728,581"/>
</g>
</svg>
