<?xml version="1.0" encoding="UTF-8" standalone="no"?>
<!DOCTYPE svg PUBLIC "-//W3C//DTD SVG 1.0//EN" "http://www.w3.org/TR/2001/REC-SVG-20010904/DTD/svg10.dtd">
<svg xmlns="http://www.w3.org/2000/svg" xmlns:xlink="http://www.w3.org/1999/xlink" fill-rule="evenodd" height="0.996in" preserveAspectRatio="none" stroke-linecap="round" viewBox="0 0 810 996" width="0.81in">
<style type="text/css">
.brush0 { fill: rgb(255,255,255); }
.pen0 { stroke: rgb(0,0,0); stroke-width: 1; stroke-linejoin: round; }
.brush1 { fill: none; }
.pen1 { stroke: none; }
.brush2 { fill: rgb(0,0,0); }
</style>
<g>
<polygon class="pen1 brush2" points="6,696 5,815 3,910 2,973 0,996 810,973 810,904 810,835 809,766 807,696 762,696 762,709 761,723 759,740 754,757 747,777 738,795 728,811 715,826 702,838 687,848 672,857 656,863 639,868 622,870 605,871 588,869 572,865 556,859 541,851 527,841 504,822 482,804 460,787 440,772 420,758 401,746 383,736 365,727 348,721 332,716 316,714 300,713 285,715 271,720 256,727 242,736 225,747 210,756 195,763 181,767 168,769 155,769 144,767 133,764 124,759 115,753 107,746 99,737 93,728 87,718 82,707 78,696 6,696"/>
<polygon class="pen1 brush2" points="789,53 765,53 741,52 717,52 693,51 669,50 645,48 621,47 598,45 574,43 550,41 526,39 502,37 478,35 454,33 431,31 407,29 383,27 359,25 336,23 312,22 288,20 264,19 241,18 217,17 193,16 169,16 146,15 122,16 98,16 74,17 51,18 27,20 18,169 12,343 9,524 6,696 78,696 75,683 73,671 71,658 70,646 70,630 72,615 75,603 80,592 87,585 95,582 105,582 117,587 132,597 147,604 161,610 176,613 193,614 211,613 232,608 257,601 276,592 287,580 291,565 290,548 285,527 275,505 261,481 246,455 228,428 210,400 192,371 175,342 160,312 147,283 137,254 131,226 130,209 130,193 133,177 139,162 146,147 157,133 171,120 188,108 200,101 211,96 221,93 231,91 239,92 246,94 253,97 259,102 277,139 285,195 287,262 288,333 290,401 297,459 314,499 344,514 354,511 363,502 371,489 379,472 388,451 397,428 406,403 417,377 429,351 442,325 457,301 475,278 495,258 517,242 542,230 571,223 610,223 641,232 665,250 681,274 690,303 692,336 688,370 678,405 666,427 648,446 625,464 599,479 571,493 541,505 511,517 481,528 453,539 427,549 405,560 388,572 376,585 371,599 374,614 385,632 396,643 407,652 419,657 431,661 443,663 456,663 468,662 480,659 493,656 505,652 516,647 527,643 538,638 548,634 557,631 566,628 584,623 601,620 619,617 635,616 652,615 667,616 682,618 696,621 709,626 721,632 732,639 741,647 749,657 755,669 759,682 762,696 807,696 803,535 798,374 793,214 789,53"/>
</g>
</svg>
