<?xml version="1.0" encoding="UTF-8" standalone="no"?>
<!DOCTYPE svg PUBLIC "-//W3C//DTD SVG 1.0//EN" "http://www.w3.org/TR/2001/REC-SVG-20010904/DTD/svg10.dtd">
<svg xmlns="http://www.w3.org/2000/svg" xmlns:xlink="http://www.w3.org/1999/xlink" fill-rule="evenodd" height="0.426in" preserveAspectRatio="none" stroke-linecap="round" viewBox="0 0 558 426" width="0.558in">
<style type="text/css">
.brush0 { fill: rgb(255,255,255); }
.pen0 { stroke: rgb(0,0,0); stroke-width: 1; stroke-linejoin: round; }
.brush1 { fill: none; }
.pen1 { stroke: none; }
.brush2 { fill: rgb(0,0,0); }
</style>
<g>
<polygon class="pen1 brush2" points="558,278 281,0 0,278 79,278 138,219 284,76 427,219 323,219 323,213 322,205 320,198 317,192 312,186 307,181 301,178 294,176 286,175 278,176 271,178 265,181 260,186 255,192 252,198 250,205 249,213 249,426 323,426 323,278 558,278"/>
<polyline class="pen0" fill="none" points="558,278 281,0 0,278 79,278 138,219 284,76 427,219 323,219 323,213 323,213 322,205 320,198 317,192 312,186 307,181 301,178 294,176 286,175 286,175 278,176 271,178 265,181 260,186 255,192 252,198 250,205 249,213 249,426 323,426 323,278 558,278"/>
</g>
</svg>
