<?xml version="1.0" encoding="UTF-8" standalone="no"?>
<!DOCTYPE svg PUBLIC "-//W3C//DTD SVG 1.0//EN" "http://www.w3.org/TR/2001/REC-SVG-20010904/DTD/svg10.dtd">
<svg xmlns="http://www.w3.org/2000/svg" xmlns:xlink="http://www.w3.org/1999/xlink" fill-rule="evenodd" height="0.837in" preserveAspectRatio="none" stroke-linecap="round" viewBox="0 0 999 837" width="0.999in">
<style type="text/css">
.brush0 { fill: rgb(255,255,255); }
.pen0 { stroke: rgb(0,0,0); stroke-width: 1; stroke-linejoin: round; }
.brush1 { fill: none; }
.pen1 { stroke: none; }
.brush2 { fill: rgb(0,0,0); }
</style>
<g>
<polygon class="pen1 brush2" points="459,837 443,837 426,836 410,834 394,832 378,829 362,825 346,821 330,816 315,811 299,805 284,798 269,791 255,784 240,776 226,768 212,759 199,751 187,742 174,733 162,723 150,713 138,703 127,693 116,682 105,671 94,660 84,648 74,637 64,625 55,613 46,600 37,588 32,554 29,525 29,499 31,478 36,460 43,444 52,432 62,421 75,413 88,406 103,400 120,394 137,389 155,384 173,379 192,373 183,338 167,301 148,264 130,225 116,186 110,146 116,105 138,63 149,52 161,43 174,36 188,30 203,26 219,23 236,21 253,21 270,21 288,22 305,24 323,27 340,30 357,34 374,38 390,42 409,54 427,66 446,78 463,91 481,104 498,117 515,130 531,144 548,158 564,172 579,187 595,201 610,216 625,232 639,247 654,263 677,288 700,314 722,341 744,368 766,395 788,423 809,452 830,481 851,511 872,541 893,571 914,602 935,634 956,666 977,699 999,732 459,837"/>
</g>
</svg>
