<?xml version="1.0" encoding="UTF-8" standalone="no"?>
<!DOCTYPE svg PUBLIC "-//W3C//DTD SVG 1.0//EN" "http://www.w3.org/TR/2001/REC-SVG-20010904/DTD/svg10.dtd">
<svg xmlns="http://www.w3.org/2000/svg" xmlns:xlink="http://www.w3.org/1999/xlink" fill-rule="evenodd" height="0.591in" preserveAspectRatio="none" stroke-linecap="round" viewBox="0 0 675 591" width="0.675in">
<style type="text/css">
.brush0 { fill: rgb(255,255,255); }
.pen0 { stroke: rgb(0,0,0); stroke-width: 1; stroke-linejoin: round; }
.brush1 { fill: none; }
.pen1 { stroke: none; }
.brush2 { fill: rgb(0,0,0); }
</style>
<g>
<polygon class="pen1 brush2" points="355,254 346,248 337,243 327,238 317,234 307,231 296,229 285,227 274,227 246,230 221,238 197,250 177,267 160,287 148,311 140,336 137,364 138,381 142,398 147,414 154,430 163,444 174,457 186,468 200,478 123,591 96,571 73,548 52,522 34,494 19,464 9,432 2,399 0,364 1,336 6,309 12,283 22,257 33,234 47,211 63,190 80,170 100,153 121,137 144,123 167,112 193,102 219,96 246,91 274,90 296,91 317,93 338,98 358,103 378,111 397,120 415,130 432,141 355,254"/>
<polygon class="pen1 brush2" points="284,279 291,287 299,294 308,301 317,307 326,312 336,317 346,320 357,323 371,325 384,326 398,326 411,324 424,322 436,317 448,312 460,306 470,298 480,290 489,280 498,270 505,258 511,246 516,234 520,220 523,202 524,185 522,168 518,151 512,135 505,120 495,106 484,93 584,0 606,25 624,53 639,83 650,114 657,147 661,181 660,215 654,250 646,277 636,303 624,327 609,349 593,370 574,389 554,406 533,421 510,434 486,444 461,453 435,459 409,462 382,463 355,461 327,456 306,450 285,443 266,434 247,424 230,413 213,400 198,387 184,372 284,279"/>
</g>
</svg>
