<?xml version="1.0" encoding="UTF-8" standalone="no"?>
<!DOCTYPE svg PUBLIC "-//W3C//DTD SVG 1.0//EN" "http://www.w3.org/TR/2001/REC-SVG-20010904/DTD/svg10.dtd">
<svg xmlns="http://www.w3.org/2000/svg" xmlns:xlink="http://www.w3.org/1999/xlink" fill-rule="evenodd" height="0.244in" preserveAspectRatio="none" stroke-linecap="round" viewBox="0 0 761 244" width="0.761in">
<style type="text/css">
.brush0 { fill: rgb(255,255,255); }
.pen0 { stroke: rgb(0,0,0); stroke-width: 1; stroke-linejoin: round; }
.brush1 { fill: none; }
.pen1 { stroke: none; }
.brush2 { fill: rgb(0,0,0); }
</style>
<g>
<polygon class="pen1 brush2" points="761,244 761,0 0,0 0,244 761,244"/>
<polygon class="pen1 brush0" points="381,5 350,6 319,9 289,15 260,23 232,32 205,43 178,57 153,72 129,88 106,106 85,126 65,147 46,170 29,193 14,218 0,244 42,244 57,225 73,208 90,191 107,175 126,161 146,147 167,135 188,123 210,113 233,104 256,96 280,90 305,85 330,81 355,79 381,78 407,79 432,81 457,85 481,90 505,96 528,104 551,113 573,123 594,135 615,147 634,161 653,175 671,191 688,208 704,225 719,244 761,244 747,218 732,193 715,170 696,147 676,126 655,106 632,88 608,72 583,57 557,43 529,32 501,23 472,15 442,9 412,6 381,5"/>
<polygon class="pen1 brush0" points="25,217 718,217 718,195 33,195 25,217"/>
<polygon class="pen1 brush0" points="381,111 388,110 394,108 400,105 405,101 409,96 412,90 414,84 415,77 414,70 412,64 409,58 405,53 400,49 394,46 388,44 381,43 374,44 368,46 362,49 357,53 353,58 350,64 348,70 347,77 348,84 350,90 353,96 357,101 362,105 368,108 374,110 381,111"/>
<polygon class="pen1 brush2" points="415,79 415,79 415,78 415,78 415,77 414,70 412,64 409,58 405,53 400,49 394,46 388,44 381,43 374,44 368,46 362,49 357,53 353,58 350,64 348,70 347,77 347,78 347,78 347,79 347,79 351,79 355,79 359,79 364,78 368,78 372,78 377,78 381,78 385,78 389,78 394,78 398,78 402,79 407,79 411,79 415,79"/>
</g>
</svg>
