<?xml version="1.0" encoding="UTF-8" standalone="no"?>
<!DOCTYPE svg PUBLIC "-//W3C//DTD SVG 1.0//EN" "http://www.w3.org/TR/2001/REC-SVG-20010904/DTD/svg10.dtd">
<svg xmlns="http://www.w3.org/2000/svg" xmlns:xlink="http://www.w3.org/1999/xlink" fill-rule="evenodd" height="0.835in" preserveAspectRatio="none" stroke-linecap="round" viewBox="0 0 502 835" width="0.502in">
<style type="text/css">
.brush0 { fill: rgb(255,255,255); }
.pen0 { stroke: rgb(0,0,0); stroke-width: 1; stroke-linejoin: round; }
.brush1 { fill: none; }
.pen1 { stroke: none; }
.brush2 { fill: rgb(0,0,0); }
</style>
<g>
<polygon class="pen1 brush2" points="252,0 278,1 302,5 326,11 349,20 371,30 392,43 411,58 429,74 445,92 459,111 472,132 482,154 491,177 497,201 501,226 502,252 501,278 497,303 491,327 482,350 472,372 459,393 445,412 429,430 411,446 392,460 371,473 349,483 326,492 302,498 278,502 252,503 226,502 201,498 177,492 154,483 132,473 111,460 92,446 74,430 58,412 43,393 30,372 20,350 11,327 5,303 1,278 0,252 1,226 5,201 11,177 20,154 30,132 43,111 58,92 74,74 92,58 111,43 132,30 154,20 177,11 201,5 226,1 252,0"/>
<polygon class="pen1 brush2" points="252,0 278,1 302,5 326,11 349,20 371,30 392,43 411,58 429,74 445,92 459,111 472,132 482,154 491,177 497,201 501,226 502,252 501,278 497,303 491,327 482,350 472,372 459,393 445,412 429,430 411,446 392,460 371,473 349,483 326,492 302,498 278,502 252,503 226,502 201,498 177,492 154,483 132,473 111,460 92,446 74,430 58,412 43,393 30,372 20,350 11,327 5,303 1,278 0,252 1,226 5,201 11,177 20,154 30,132 43,111 58,92 74,74 92,58 111,43 132,30 154,20 177,11 201,5 226,1 252,0"/>
<polygon class="pen1 brush0" points="252,136 275,138 296,145 316,156 333,170 347,187 357,207 364,229 366,252 364,275 357,297 347,316 333,333 316,347 296,358 275,365 252,367 229,365 207,358 187,347 171,333 157,316 146,297 139,275 137,252 139,229 146,207 157,187 171,170 187,156 207,145 229,138 252,136"/>
<polygon class="pen1 brush2" points="249,117 322,835 175,835 249,117"/>
<polygon class="pen1 brush0" points="249,117 209,499 214,500 220,501 225,502 230,502 235,503 241,503 246,503 252,503 257,503 261,503 266,503 270,502 275,502 279,501 284,501 288,500 249,117"/>
<polygon class="pen1 brush2" points="251,137 250,137 249,137 248,137 247,137 223,363 230,364 237,366 245,367 252,367 257,367 263,366 269,366 274,365 251,137"/>
</g>
</svg>
