<?xml version="1.0" encoding="UTF-8" standalone="no"?>
<!DOCTYPE svg PUBLIC "-//W3C//DTD SVG 1.0//EN" "http://www.w3.org/TR/2001/REC-SVG-20010904/DTD/svg10.dtd">
<svg xmlns="http://www.w3.org/2000/svg" xmlns:xlink="http://www.w3.org/1999/xlink" fill-rule="evenodd" height="0.499in" preserveAspectRatio="none" stroke-linecap="round" viewBox="0 0 498 499" width="0.498in">
<style type="text/css">
.brush0 { fill: rgb(255,255,255); }
.pen0 { stroke: rgb(0,0,0); stroke-width: 1; stroke-linejoin: round; }
.brush1 { fill: none; }
.pen1 { stroke: none; }
.brush2 { fill: rgb(0,0,0); }
</style>
<g>
<polygon class="pen1 brush2" points="169,499 169,0 110,0 110,499 169,499"/>
<polygon class="pen1 brush2" points="405,499 405,0 346,0 346,499 405,499"/>
<polygon class="pen1 brush2" points="287,499 287,0 228,0 228,499 287,499"/>
<polygon class="pen1 brush2" points="40,116 37,114 36,113 36,111 37,110 38,109 39,109 40,108 41,108 46,106 53,104 60,102 68,99 78,97 88,95 100,93 113,91 126,89 141,87 156,86 173,85 191,83 210,83 229,82 250,82 270,82 290,83 308,83 326,85 342,86 358,87 372,89 386,91 398,93 410,95 420,97 430,99 438,102 445,104 452,106 457,108 458,108 459,108 459,109 460,109 462,110 462,110 461,111 458,112 453,114 446,116 439,118 431,121 421,123 411,125 399,127 387,129 373,130 358,132 343,133 326,135 309,136 290,136 271,137 250,137 229,137 209,137 190,136 172,135 155,134 139,133 125,132 111,131 98,129 87,127 76,126 67,124 58,122 51,120 45,118 40,116 23,139 32,143 41,146 52,150 64,153 77,155 90,158 104,160 119,162 135,164 151,166 167,167 183,168 200,169 217,170 233,170 250,170 269,170 287,169 306,169 325,168 343,166 362,164 379,162 396,160 412,157 427,154 441,151 454,147 465,143 475,139 483,134 489,129 494,124 497,119 498,114 498,110 498,106 497,101 494,95 489,90 483,85 475,80 465,76 454,72 441,68 427,65 412,62 396,59 379,57 362,55 343,54 325,52 306,51 287,51 269,50 250,50 238,50 226,50 215,51 203,51 192,51 181,52 170,53 159,53 148,54 138,55 128,56 118,58 109,59 100,60 91,62 82,63 62,67 45,72 31,77 20,82 11,88 5,95 1,102 0,110 0,114 2,119 5,124 9,129 12,132 15,134 19,137 23,139 40,116"/>
<polygon class="pen1 brush2" points="40,256 37,254 36,253 36,251 37,250 38,249 39,248 40,248 41,247 46,245 53,243 60,241 68,239 78,237 88,235 100,233 113,231 126,229 141,227 156,226 173,224 191,223 210,223 229,222 250,222 270,222 290,223 308,223 326,224 342,226 358,227 372,229 386,231 398,233 410,235 420,237 430,239 438,241 445,243 452,245 457,247 458,248 459,248 459,249 460,249 462,250 462,250 461,251 458,252 453,254 446,256 439,258 431,261 421,263 411,265 399,267 387,269 373,270 358,272 343,273 326,275 309,276 290,276 271,277 250,277 229,277 209,277 190,276 172,275 155,274 139,273 125,272 111,271 98,269 87,267 76,266 67,264 58,262 51,260 45,258 40,256 23,279 32,283 41,286 52,290 64,293 77,295 90,298 104,300 119,302 135,304 151,306 167,307 183,308 200,309 217,310 233,310 250,310 269,310 287,309 306,309 325,308 343,306 362,304 379,302 396,300 412,297 427,294 441,291 454,287 465,283 475,279 483,274 489,269 494,264 497,259 498,254 498,250 498,246 497,241 494,235 489,230 483,225 475,220 465,216 454,212 441,208 427,205 412,202 396,199 379,197 362,195 343,194 325,192 306,191 287,191 269,190 250,190 238,190 226,190 215,190 203,191 192,191 181,192 170,192 159,193 148,194 138,195 128,196 118,197 109,198 100,200 91,201 82,203 62,207 45,211 31,216 20,222 11,228 5,235 1,242 0,250 0,254 2,259 5,264 9,269 12,272 15,274 19,277 23,279 40,256"/>
<polygon class="pen1 brush2" points="40,395 37,393 36,392 36,390 37,389 38,388 39,387 40,387 41,386 46,384 53,382 60,380 68,378 78,376 88,374 100,372 113,370 126,368 141,366 156,365 173,363 191,362 210,362 229,361 250,361 270,361 290,362 308,362 326,363 342,365 358,366 372,368 386,370 398,372 410,374 420,376 430,378 438,380 445,382 452,384 457,386 458,387 459,387 459,387 460,388 462,389 462,389 461,390 458,391 453,393 446,395 439,397 431,399 421,401 411,403 399,405 387,407 373,409 358,411 343,412 326,413 309,415 290,415 271,416 250,416 229,416 209,416 190,415 172,414 155,413 139,412 125,411 111,410 98,408 87,406 76,405 67,403 58,401 51,399 45,397 40,395 23,418 32,422 41,425 52,429 64,432 77,434 90,437 104,439 119,441 135,443 151,445 167,446 183,447 200,448 217,449 233,449 250,449 269,449 287,448 306,448 325,447 343,445 362,443 379,441 396,439 412,436 427,433 441,430 454,426 465,422 475,418 483,413 489,408 494,403 497,398 498,393 498,389 498,385 497,380 494,374 489,369 483,364 475,360 465,355 454,352 441,348 427,345 412,342 396,339 379,337 362,335 343,334 325,332 306,331 287,331 269,330 250,330 238,330 226,330 215,330 203,331 192,331 181,332 170,332 159,333 148,334 138,335 128,336 118,337 109,338 100,340 91,341 82,343 62,347 45,351 31,356 20,361 11,367 5,374 1,381 0,389 0,393 2,398 5,403 9,408 12,411 15,413 19,416 23,418 40,395"/>
</g>
</svg>
