<?xml version="1.0" encoding="UTF-8" standalone="no"?>
<!DOCTYPE svg PUBLIC "-//W3C//DTD SVG 1.0//EN" "http://www.w3.org/TR/2001/REC-SVG-20010904/DTD/svg10.dtd">
<svg xmlns="http://www.w3.org/2000/svg" xmlns:xlink="http://www.w3.org/1999/xlink" fill-rule="evenodd" height="1.024in" preserveAspectRatio="none" stroke-linecap="round" viewBox="0 0 896 1024" width="0.896in">
<style type="text/css">
.brush0 { fill: rgb(255,255,255); }
.pen0 { stroke: rgb(0,0,0); stroke-width: 1; stroke-linejoin: round; }
.brush1 { fill: none; }
.pen1 { stroke: none; }
.brush2 { fill: rgb(0,0,0); }
</style>
<g>
<polygon class="pen1 brush2" points="311,1024 307,995 302,954 297,907 292,857 286,808 280,764 274,729 267,707 1,738 7,734 17,728 30,720 46,711 63,701 82,691 101,680 121,669 140,658 159,647 176,638 191,629 203,621 213,615 218,610 220,608 208,605 195,601 182,598 168,594 155,590 141,586 127,581 113,577 98,573 84,569 70,565 56,562 41,559 27,556 14,553 0,551 19,546 38,541 57,537 75,533 94,530 112,527 130,525 148,522 165,520 183,518 200,515 217,513 234,510 251,508 268,505 284,501 277,483 269,465 260,447 250,429 239,412 228,395 216,378 204,361 192,344 179,327 166,309 153,292 141,275 128,257 116,239 104,221 110,222 118,226 130,233 144,242 159,253 176,265 194,278 212,293 231,307 249,321 267,335 283,348 298,360 310,370 321,378 328,383 340,336 353,284 366,230 379,176 392,124 404,76 416,34 426,0 430,43 434,86 438,129 442,171 446,213 450,255 453,297 456,339 470,330 483,320 496,309 508,298 521,287 533,275 545,263 556,251 568,239 580,227 592,214 604,202 616,190 629,179 642,168 656,157 644,189 633,221 622,254 611,288 599,321 587,353 575,385 562,416 572,413 586,409 605,402 628,395 653,386 681,378 710,368 739,359 768,351 795,343 821,336 845,331 865,327 880,326 891,327 896,331 877,345 858,359 839,373 819,387 800,400 780,413 760,426 740,438 720,451 700,464 680,477 660,490 640,503 620,517 601,531 582,545 588,552 598,563 611,577 626,593 643,612 661,632 681,653 700,674 719,695 737,715 754,733 769,750 781,764 790,775 796,782 797,785 775,776 754,767 733,757 713,748 694,739 676,730 658,721 640,711 622,702 605,693 588,684 570,675 553,666 535,657 517,649 499,640 502,677 511,719 524,763 538,806 551,845 562,877 569,898 570,906 559,894 547,881 536,867 524,852 512,837 500,822 488,806 476,790 464,775 452,760 440,745 429,731 417,717 406,705 394,694 383,684 376,701 368,740 359,793 350,854 341,915 331,968 321,1007 311,1024"/>
</g>
</svg>
