<?xml version="1.0" encoding="UTF-8" standalone="no"?>
<!DOCTYPE svg PUBLIC "-//W3C//DTD SVG 1.0//EN" "http://www.w3.org/TR/2001/REC-SVG-20010904/DTD/svg10.dtd">
<svg xmlns="http://www.w3.org/2000/svg" xmlns:xlink="http://www.w3.org/1999/xlink" fill-rule="evenodd" height="0.552in" preserveAspectRatio="none" stroke-linecap="round" viewBox="0 0 451 552" width="0.451in">
<style type="text/css">
.brush0 { fill: rgb(255,255,255); }
.pen0 { stroke: rgb(0,0,0); stroke-width: 1; stroke-linejoin: round; }
.brush1 { fill: none; }
.pen1 { stroke: none; }
.brush2 { fill: rgb(0,0,0); }
</style>
<g>
<polygon class="pen1 brush2" points="451,225 226,0 0,225 226,450 451,225"/>
<polygon class="pen1 brush0" points="226,286 231,285 235,283 237,279 238,274 237,269 235,265 231,262 226,261 221,262 217,265 214,269 213,274 214,279 217,283 221,285 226,286"/>
<polygon class="pen1 brush2" points="226,552 231,551 235,548 237,544 238,539 237,535 235,531 231,528 226,527 221,528 217,531 214,535 213,539 214,544 217,548 221,551 226,552"/>
<polygon class="pen1 brush2" points="105,406 104,401 102,397 98,395 93,394 88,395 84,397 81,401 80,406 81,411 84,415 88,418 93,419 98,418 102,415 104,411 105,406"/>
<polygon class="pen1 brush2" points="371,406 370,401 367,397 363,395 358,394 353,395 349,397 347,401 346,406 347,411 349,415 353,418 358,419 363,418 367,415 370,411 371,406"/>
<polygon class="pen1 brush0" points="140,322 143,318 144,313 143,308 140,304 136,301 132,300 127,301 123,304 120,308 119,313 120,318 123,322 127,325 132,326 136,325 140,322"/>
<polygon class="pen1 brush2" points="328,509 331,505 332,500 331,496 328,492 324,489 319,488 314,489 310,492 307,496 306,500 307,505 310,509 314,512 319,513 324,512 328,509"/>
<polygon class="pen1 brush2" points="140,492 136,489 132,488 127,489 123,492 120,496 119,500 120,505 123,509 127,512 132,513 136,512 140,509 143,505 144,500 143,496 140,492"/>
<polygon class="pen1 brush0" points="328,304 324,301 319,300 314,301 310,304 307,308 306,313 307,318 310,322 314,325 319,326 324,325 328,322 331,318 332,313 331,308 328,304"/>
<polygon class="pen1 brush0" points="180,296 184,293 186,289 187,284 186,279 184,275 180,273 175,272 170,273 166,275 164,279 162,284 163,289 166,293 170,295 175,297 180,296"/>
<polygon class="pen1 brush2" points="281,541 285,538 287,534 288,530 287,525 285,521 281,518 276,517 271,518 268,520 265,524 264,529 265,534 267,538 271,541 276,542 281,541"/>
<polygon class="pen1 brush2" points="114,452 112,448 108,446 103,445 98,446 94,448 91,452 90,457 91,462 94,466 98,468 103,470 108,469 112,466 114,462 115,457 114,452"/>
<polygon class="pen1 brush2" points="360,351 357,347 353,345 348,344 343,345 339,347 337,351 335,356 336,361 339,365 343,367 348,369 353,368 357,365 360,361 361,356 360,351"/>
<polygon class="pen1 brush2" points="114,361 115,356 114,351 112,347 108,345 103,344 98,345 94,347 91,351 90,356 91,361 94,365 98,368 103,369 108,367 112,365 114,361"/>
<polygon class="pen1 brush2" points="360,462 361,457 360,452 357,448 353,446 348,445 343,446 339,448 336,452 335,457 337,462 339,466 343,469 348,470 353,468 357,466 360,462"/>
<polygon class="pen1 brush2" points="180,518 175,517 170,518 166,521 163,525 162,530 164,534 166,538 170,541 175,542 180,541 184,538 186,534 187,529 186,524 184,520 180,518"/>
<polygon class="pen1 brush0" points="281,273 276,272 271,273 267,275 265,279 264,284 265,289 268,293 271,296 276,297 281,295 285,293 287,289 288,284 287,279 285,275 281,273"/>
</g>
</svg>
