<?xml version="1.0" encoding="UTF-8" standalone="no"?>
<!DOCTYPE svg PUBLIC "-//W3C//DTD SVG 1.0//EN" "http://www.w3.org/TR/2001/REC-SVG-20010904/DTD/svg10.dtd">
<svg xmlns="http://www.w3.org/2000/svg" xmlns:xlink="http://www.w3.org/1999/xlink" fill-rule="evenodd" height="1.03in" preserveAspectRatio="none" stroke-linecap="round" viewBox="0 0 999 1030" width="0.999in">
<style type="text/css">
.brush0 { fill: rgb(255,255,255); }
.pen0 { stroke: rgb(0,0,0); stroke-width: 1; stroke-linejoin: round; }
.brush1 { fill: none; }
.pen1 { stroke: none; }
.brush2 { fill: rgb(0,0,0); }
</style>
<g>
<polygon class="pen1 brush2" points="465,963 456,962 448,961 441,958 435,955 430,950 425,944 419,937 414,929 518,578 531,598 544,618 558,639 573,659 587,679 602,700 616,721 629,742 642,763 653,785 663,808 671,831 677,854 681,878 683,903 682,929 679,933 674,936 668,937 661,938 654,939 646,939 638,940 631,942 623,957 616,971 607,984 599,995 590,1005 580,1013 569,1019 557,1023 546,1025 535,1025 523,1022 511,1017 499,1009 487,997 476,982 465,963 465,963"/>
<polygon class="pen1 brush2" points="182,906 202,916 220,920 236,919 252,916 268,912 286,911 306,913 330,922 468,560 445,570 421,580 395,589 369,598 343,607 316,616 290,625 265,635 240,646 217,658 195,672 176,687 159,704 144,724 133,746 125,770 152,790 155,807 156,824 156,840 155,854 157,868 161,882 169,894 182,906 182,906"/>
<polygon class="pen1 brush2" points="796,838 815,822 835,813 856,809 877,807 897,806 917,802 934,794 948,779 955,763 957,748 955,733 950,719 943,706 935,694 927,682 921,672 941,632 921,613 899,596 876,582 851,571 826,561 800,554 773,549 747,546 720,544 693,543 666,543 640,545 615,546 591,549 568,551 546,554 559,577 573,599 586,620 600,641 614,661 627,680 642,699 656,717 671,734 687,751 703,767 720,782 738,797 756,811 776,825 796,838 796,838"/>
<polygon class="pen1 brush2" points="133,645 449,514 429,501 408,488 386,474 364,460 342,446 319,432 295,419 272,407 248,396 223,387 199,380 175,375 151,372 127,372 103,376 79,382 79,429 76,430 67,432 54,435 40,441 25,450 12,463 3,482 0,506 4,530 12,549 23,562 37,573 50,583 63,594 73,607 79,625 84,633 89,639 95,644 102,647 109,649 117,649 125,648 133,645 133,645"/>
<polygon class="pen1 brush2" points="553,502 567,483 581,464 595,444 610,425 626,405 642,386 659,367 676,348 695,330 715,313 735,297 757,282 780,268 804,255 829,244 856,234 866,238 874,242 880,246 886,251 892,256 900,261 911,268 925,276 932,277 942,278 953,281 965,286 976,293 985,303 992,315 996,331 996,344 995,356 992,369 987,381 981,393 974,404 966,414 956,422 966,470 959,477 946,484 928,489 905,494 879,498 849,502 818,505 785,507 751,508 717,509 684,509 652,509 622,508 595,506 572,504 553,502 553,502"/>
<polygon class="pen1 brush2" points="468,476 448,464 426,452 403,440 379,429 355,417 331,405 307,393 284,379 262,365 241,349 221,332 203,314 188,293 175,271 165,246 158,219 192,206 190,180 188,153 191,126 205,98 221,82 237,77 251,80 266,87 281,97 297,105 314,110 333,109 390,112 468,476 468,476"/>
<polygon class="pen1 brush2" points="519,463 507,414 495,365 484,316 475,268 471,219 472,169 479,119 495,67 502,63 508,61 514,59 521,59 528,60 535,62 543,64 553,67 559,62 565,53 573,43 582,33 594,24 610,18 629,16 654,20 669,28 680,40 688,54 694,69 697,84 699,96 699,105 698,108 703,120 707,127 710,130 713,132 717,132 722,134 731,138 743,145 737,170 730,194 722,217 711,239 700,261 687,282 673,302 659,322 643,341 627,360 610,378 592,396 574,413 556,430 538,447 519,463"/>
</g>
</svg>
