<?xml version="1.0" encoding="UTF-8" standalone="no"?>
<!DOCTYPE svg PUBLIC "-//W3C//DTD SVG 1.0//EN" "http://www.w3.org/TR/2001/REC-SVG-20010904/DTD/svg10.dtd">
<svg xmlns="http://www.w3.org/2000/svg" xmlns:xlink="http://www.w3.org/1999/xlink" fill-rule="evenodd" height="0.652in" preserveAspectRatio="none" stroke-linecap="round" viewBox="0 0 652 652" width="0.652in">
<style type="text/css">
.brush0 { fill: rgb(255,255,255); }
.pen0 { stroke: rgb(0,0,0); stroke-width: 1; stroke-linejoin: round; }
.brush1 { fill: none; }
.pen1 { stroke: none; }
.brush2 { fill: rgb(0,0,0); }
</style>
<g>
<polygon class="pen1 brush2" points="327,652 294,650 261,645 230,637 200,626 171,613 144,596 119,578 96,556 75,533 56,508 40,481 26,453 15,423 7,392 2,359 0,326 2,293 7,260 15,229 26,199 40,171 56,144 75,119 96,95 119,74 144,56 171,39 200,26 230,15 261,7 294,2 327,0 360,2 392,7 423,15 453,26 482,39 508,56 534,74 557,95 578,119 596,144 613,171 626,199 637,229 645,260 650,293 652,326 650,359 645,392 637,423 626,453 613,481 596,508 578,533 557,556 534,578 508,596 482,613 453,626 423,637 392,645 360,650 327,652"/>
<polygon class="pen1 brush0" points="620,343 563,343 559,321 555,301 549,281 542,262 535,244 526,227 517,211 506,196 495,182 483,170 470,158 456,148 441,139 426,131 410,124 393,119 386,117 378,115 371,114 364,113 356,112 349,111 341,111 334,111 334,38 333,33 331,29 327,27 322,26 318,27 314,29 311,33 310,38 310,113 295,116 281,119 267,124 253,130 240,137 227,145 215,154 204,164 193,175 183,186 174,199 165,212 157,227 150,242 144,257 139,274 135,291 133,308 133,326 134,343 53,343 49,344 45,346 42,350 41,355 42,359 45,363 49,366 53,367 139,367 146,389 156,410 169,429 184,447 201,462 221,475 242,486 266,494 272,495 277,497 283,498 288,498 294,499 299,499 305,499 310,499 310,623 311,627 314,631 318,634 322,635 327,634 331,631 333,627 334,623 334,496 353,491 371,483 388,472 403,460 416,446 428,429 437,412 444,392 446,386 447,379 448,373 448,367 620,367 625,366 629,363 631,359 632,355 631,350 629,346 625,344 620,343"/>
<polygon class="pen1 brush2" points="387,142 416,153 443,168 466,187 487,211 505,239 519,270 531,305 538,343 447,343 443,326 437,310 429,295 419,282 407,270 393,259 378,251 361,245 354,244 348,243 341,242 334,242 334,135 341,135 347,135 354,136 361,137 367,138 374,139 380,140 387,142"/>
<polygon class="pen1 brush2" points="264,321 267,312 271,304 276,297 281,290 288,284 295,279 302,274 310,271 310,300 301,305 293,312 287,321 283,331 283,334 283,337 284,340 286,343 263,343 262,338 262,332 263,326 264,321"/>
<polygon class="pen1 brush2" points="306,337 307,335 308,333 309,331 310,329 310,343 302,343 303,341 304,340 305,338 306,337 306,337"/>
<polygon class="pen1 brush2" points="310,367 310,392 309,391 307,391 306,391 304,390 299,389 294,387 290,384 285,381 281,378 278,375 274,371 271,367 310,367"/>
<polygon class="pen1 brush2" points="334,367 355,367 351,373 346,379 340,384 334,388 334,367"/>
<polygon class="pen1 brush2" points="334,343 334,321 334,321 334,321 334,321 334,321 342,324 349,329 354,335 357,343 334,343"/>
<polygon class="pen1 brush2" points="380,343 378,335 376,328 372,321 368,315 362,309 356,305 349,301 341,298 339,297 338,297 336,297 334,296 334,266 339,266 345,267 350,268 355,269 368,273 379,279 390,287 400,296 408,307 414,318 420,330 423,343 380,343"/>
<polygon class="pen1 brush2" points="162,281 172,252 185,226 200,202 218,182 239,166 261,152 285,143 310,137 310,246 298,250 287,255 276,262 267,270 258,280 251,290 245,302 241,314 239,321 239,328 238,336 239,343 158,343 157,328 157,312 158,296 162,281"/>
<polygon class="pen1 brush2" points="272,471 252,465 234,456 218,445 203,432 190,418 179,402 170,385 163,367 245,367 249,375 254,383 259,390 266,396 273,402 280,407 289,411 298,414 301,415 304,415 307,415 310,416 310,475 305,475 301,475 296,475 291,475 287,474 282,473 277,472 272,471"/>
<polygon class="pen1 brush2" points="421,386 415,402 408,416 399,430 388,441 376,451 363,460 349,466 334,471 334,413 342,410 349,407 356,402 363,396 368,390 373,383 376,375 379,367 424,367 424,372 423,376 422,381 421,386"/>
</g>
</svg>
