<?xml version="1.0" encoding="UTF-8" standalone="no"?>
<!DOCTYPE svg PUBLIC "-//W3C//DTD SVG 1.0//EN" "http://www.w3.org/TR/2001/REC-SVG-20010904/DTD/svg10.dtd">
<svg xmlns="http://www.w3.org/2000/svg" xmlns:xlink="http://www.w3.org/1999/xlink" fill-rule="evenodd" height="1.0in" preserveAspectRatio="none" stroke-linecap="round" viewBox="0 0 768 1000" width="0.768in">
<style type="text/css">
.brush0 { fill: rgb(255,255,255); }
.pen0 { stroke: rgb(0,0,0); stroke-width: 1; stroke-linejoin: round; }
.brush1 { fill: none; }
.pen1 { stroke: none; }
.brush2 { fill: rgb(0,0,0); }
</style>
<g>
<polygon class="pen1 brush2" points="571,1000 423,861 417,837 403,818 383,803 361,790 336,777 313,764 292,749 277,729 275,718 276,708 279,697 282,686 284,676 285,665 283,653 277,642 232,619 192,594 157,568 127,540 101,511 78,480 59,448 44,414 31,379 21,342 14,304 8,265 4,224 2,183 1,139 1,95 71,129 134,168 191,211 241,258 286,308 326,361 361,417 393,475 421,536 446,599 470,663 491,729 511,796 531,863 551,932 571,1000 571,1000"/>
<polygon class="pen1 brush2" points="707,927 714,918 721,907 727,895 733,882 738,867 743,851 747,835 751,817 759,755 764,686 765,612 762,534 756,449 747,365 736,283 723,207 709,138 693,79 677,32 661,0 646,10 635,32 626,62 618,98 611,137 604,175 596,209 586,237 570,283 558,329 551,374 548,419 548,463 552,506 558,549 568,592 580,634 594,676 610,718 627,760 646,802 666,843 686,885 707,927"/>
</g>
</svg>
