<?xml version="1.0" encoding="UTF-8" standalone="no"?>
<!DOCTYPE svg PUBLIC "-//W3C//DTD SVG 1.0//EN" "http://www.w3.org/TR/2001/REC-SVG-20010904/DTD/svg10.dtd">
<svg xmlns="http://www.w3.org/2000/svg" xmlns:xlink="http://www.w3.org/1999/xlink" fill-rule="evenodd" height="0.778in" preserveAspectRatio="none" stroke-linecap="round" viewBox="0 0 467 778" width="0.467in">
<style type="text/css">
.brush0 { fill: rgb(255,255,255); }
.pen0 { stroke: rgb(0,0,0); stroke-width: 1; stroke-linejoin: round; }
.brush1 { fill: none; }
.pen1 { stroke: none; }
.brush2 { fill: rgb(0,0,0); }
</style>
<g>
<polygon class="pen1 brush2" points="458,266 456,238 452,196 447,156 443,135 432,114 417,94 400,75 381,57 363,42 346,29 331,19 321,13 307,9 288,6 266,4 243,2 220,2 199,1 183,1 174,1 163,4 146,13 125,28 102,46 78,68 56,91 38,115 25,139 16,173 12,211 13,242 16,260 20,268 28,281 38,299 52,318 67,339 84,358 103,374 123,386 129,388 140,389 154,389 170,390 185,390 198,390 208,389 214,389 222,386 234,380 249,371 266,360 282,347 298,332 311,317 320,302 326,270 323,236 318,207 315,193 313,191 309,186 303,178 295,169 285,159 275,150 265,142 255,136 235,131 213,132 191,137 170,145 151,155 134,167 122,178 114,187 112,201 113,226 114,249 115,259 117,263 122,268 129,276 137,283 145,291 153,298 160,304 166,307 170,308 177,309 186,310 196,310 206,310 214,309 221,309 225,308 229,306 233,303 238,298 244,292 249,286 253,280 257,273 260,267 261,262 260,253 259,242 256,229 252,216 246,203 237,193 227,186 217,183 207,182 197,183 188,186 179,191 171,198 165,206 160,216 190,229 194,222 200,217 207,216 214,217 224,223 230,232 232,243 230,254 227,257 221,261 214,265 205,268 196,272 188,274 182,276 179,276 176,275 172,272 168,269 162,264 157,260 153,256 150,252 148,249 145,238 143,224 143,211 145,201 153,189 164,180 178,173 194,169 209,168 223,168 235,169 244,171 248,173 253,178 260,185 267,192 273,200 279,207 282,213 282,216 284,224 286,243 287,266 284,286 273,307 257,324 238,337 217,347 196,353 175,356 156,355 140,351 133,346 123,335 109,320 95,304 81,287 68,272 59,261 55,255 52,234 53,197 56,162 61,145 62,143 67,135 75,124 85,111 96,97 106,85 113,76 117,72 121,69 129,64 141,57 155,50 170,43 184,37 196,33 205,32 212,32 224,33 240,34 257,35 274,36 289,37 300,39 306,40 310,44 317,50 327,59 338,69 349,79 359,88 366,95 370,98 374,103 379,112 384,124 390,137 395,150 400,161 403,170 405,174 410,197 413,227 413,254 412,268 412,269 412,270 411,272 411,273 372,265 379,320 372,378 327,371 273,378 280,418 273,469 236,477 206,469 176,469 182,509 176,567 144,566 105,573 74,567 69,608 74,671 41,679 2,671 12,724 0,778 467,778 467,265 458,266"/>
</g>
</svg>
