<?xml version="1.0" encoding="UTF-8" standalone="no"?>
<!DOCTYPE svg PUBLIC "-//W3C//DTD SVG 1.0//EN" "http://www.w3.org/TR/2001/REC-SVG-20010904/DTD/svg10.dtd">
<svg xmlns="http://www.w3.org/2000/svg" xmlns:xlink="http://www.w3.org/1999/xlink" fill-rule="evenodd" height="1.0in" preserveAspectRatio="none" stroke-linecap="round" viewBox="0 0 842 1000" width="0.842in">
<style type="text/css">
.brush0 { fill: rgb(255,255,255); }
.pen0 { stroke: rgb(0,0,0); stroke-width: 1; stroke-linejoin: round; }
.brush1 { fill: none; }
.pen1 { stroke: none; }
.brush2 { fill: rgb(0,0,0); }
</style>
<g>
<polygon class="pen1 brush2" points="55,305 71,282 90,265 112,253 135,245 160,241 187,240 215,241 244,244 274,248 304,253 334,258 365,263 394,266 424,267 452,265 479,261 479,235 478,206 479,175 481,143 487,112 497,83 512,57 533,34 545,26 556,19 567,13 578,8 589,5 599,3 609,2 619,3 632,4 644,7 656,12 667,18 678,26 689,35 699,46 709,58 721,75 733,95 744,116 754,138 764,162 774,188 782,215 790,244 801,284 810,326 818,368 824,412 829,457 833,502 836,547 838,592 838,650 837,706 833,760 827,811 819,858 809,900 797,937 783,967 767,971 750,974 733,977 716,980 699,983 682,986 664,988 647,989 629,991 612,992 595,992 578,992 560,992 543,991 527,989 510,987 493,981 475,975 458,969 441,962 424,955 406,947 389,938 372,929 355,920 339,911 322,901 306,890 289,879 273,868 258,857 242,845 225,832 209,818 193,804 178,790 163,775 149,760 135,745 122,729 110,714 98,698 87,682 76,665 66,649 57,632 49,615 41,598 28,562 19,526 13,489 12,452 16,415 24,378 37,342 55,305"/>
</g>
</svg>
