<?xml version="1.0" encoding="UTF-8" standalone="no"?>
<!DOCTYPE svg PUBLIC "-//W3C//DTD SVG 1.0//EN" "http://www.w3.org/TR/2001/REC-SVG-20010904/DTD/svg10.dtd">
<svg xmlns="http://www.w3.org/2000/svg" xmlns:xlink="http://www.w3.org/1999/xlink" fill-rule="evenodd" height="0.442in" preserveAspectRatio="none" stroke-linecap="round" viewBox="0 0 765 442" width="0.765in">
<style type="text/css">
.brush0 { fill: rgb(255,255,255); }
.pen0 { stroke: rgb(0,0,0); stroke-width: 1; stroke-linejoin: round; }
.brush1 { fill: none; }
.pen1 { stroke: none; }
.brush2 { fill: rgb(0,0,0); }
</style>
<g>
<polygon class="pen1 brush2" points="383,389 346,388 310,384 275,377 241,368 209,357 179,344 150,328 124,311 99,292 77,271 58,249 41,225 26,200 15,174 7,147 2,119 1,125 1,132 0,138 0,145 2,175 8,205 17,233 30,261 46,287 65,311 87,334 112,355 139,374 169,391 200,406 234,419 269,429 306,436 344,440 383,442 422,440 460,436 496,429 531,419 565,406 596,391 626,374 653,355 677,334 700,311 719,287 735,261 748,233 757,205 763,175 765,145 765,138 764,132 764,125 763,119 758,147 750,174 739,200 724,225 707,249 688,271 666,292 641,311 615,328 586,344 556,357 524,368 491,377 456,384 420,388 383,389"/>
<polygon class="pen1 brush2" points="383,289 351,288 321,284 291,277 262,268 235,257 209,243 185,228 162,210 141,191 122,171 106,148 91,124 79,99 69,73 62,46 58,18 57,25 57,31 57,37 57,44 59,75 64,104 72,133 83,160 96,186 113,210 131,233 153,254 176,273 201,291 228,305 256,318 286,328 317,335 350,339 383,341 416,339 448,335 479,328 509,318 538,305 564,291 590,273 613,254 634,233 652,210 669,186 682,160 693,133 701,104 706,75 708,44 708,37 708,31 708,25 707,18 703,46 696,73 686,99 674,124 659,148 642,171 624,191 603,210 580,228 556,243 530,257 503,268 474,277 445,284 414,288 383,289"/>
<polygon class="pen1 brush2" points="383,204 359,203 335,200 312,195 290,188 269,180 250,170 231,158 214,145 198,130 183,115 170,98 159,80 150,61 142,41 137,21 134,0 134,5 134,10 133,15 133,20 134,43 138,65 144,86 153,107 163,126 176,145 190,162 206,178 224,192 243,205 264,216 286,225 309,233 333,238 357,242 383,243 408,242 433,238 457,233 480,225 501,216 522,205 541,192 559,178 575,162 589,145 602,126 612,107 621,86 627,65 631,43 632,20 632,15 632,10 631,5 631,0 628,21 622,41 615,61 605,80 594,98 581,115 567,130 551,145 534,158 515,170 495,180 474,188 453,195 430,200 407,203 383,204"/>
<polygon class="pen1 brush2" points="382,143 394,142 404,138 414,133 423,125 429,117 435,107 438,96 439,84 438,72 435,61 429,51 423,42 414,35 404,30 394,26 382,25 370,26 359,30 349,35 340,42 333,51 328,61 324,72 323,84 324,96 328,107 333,117 340,125 349,133 359,138 370,142 382,143"/>
</g>
</svg>
