<?xml version="1.0" encoding="UTF-8" standalone="no"?>
<!DOCTYPE svg PUBLIC "-//W3C//DTD SVG 1.0//EN" "http://www.w3.org/TR/2001/REC-SVG-20010904/DTD/svg10.dtd">
<svg xmlns="http://www.w3.org/2000/svg" xmlns:xlink="http://www.w3.org/1999/xlink" fill-rule="evenodd" height="0.934in" preserveAspectRatio="none" stroke-linecap="round" viewBox="0 0 999 934" width="0.999in">
<style type="text/css">
.brush0 { fill: rgb(255,255,255); }
.pen0 { stroke: rgb(0,0,0); stroke-width: 1; stroke-linejoin: round; }
.brush1 { fill: none; }
.pen1 { stroke: none; }
.brush2 { fill: rgb(0,0,0); }
</style>
<g>
<polygon class="pen1 brush2" points="962,693 999,78 985,78 968,77 948,76 925,74 899,73 870,71 839,68 807,66 772,63 736,60 699,58 660,55 621,51 581,48 541,45 501,42 462,40 422,37 384,34 346,32 309,30 274,28 241,26 209,25 180,24 153,24 129,24 108,24 90,25 75,26 64,28 57,31 15,693 86,693 88,680 91,667 95,654 101,641 107,629 114,617 122,606 131,595 151,579 171,570 193,566 215,566 237,570 260,576 282,584 303,592 324,601 343,608 361,613 377,615 391,613 403,607 412,594 418,575 418,554 411,533 399,512 382,489 361,467 337,444 312,420 287,396 262,371 239,345 219,319 203,293 192,265 187,237 189,208 199,179 208,165 217,153 227,142 238,133 249,126 260,120 271,116 283,113 298,111 313,111 327,114 341,118 353,124 364,132 374,141 381,152 400,196 409,243 411,289 410,334 409,376 412,414 420,446 439,471 455,481 469,482 482,475 493,462 503,443 512,419 522,392 531,362 540,331 549,299 560,268 571,238 584,210 599,186 615,166 634,152 653,142 673,135 693,130 713,127 732,127 751,130 769,135 786,143 798,151 810,161 820,173 829,186 836,200 843,217 848,235 851,254 851,276 846,297 836,317 822,336 804,355 784,373 762,390 739,408 715,425 692,442 669,459 647,476 628,494 612,512 599,531 590,550 588,563 590,573 597,580 607,586 620,590 635,592 652,594 671,595 690,596 710,596 730,597 749,599 768,602 784,606 798,611 810,619 819,628 827,637 834,646 839,656 844,665 848,675 851,684 853,693 962,693"/>
<polygon class="pen1 brush2" points="0,915 948,934 962,693 853,693 853,717 847,740 837,762 821,781 801,798 777,811 749,819 718,822 695,820 673,815 651,806 630,796 609,783 589,769 569,755 550,740 532,726 513,712 496,700 479,691 463,684 447,680 432,680 417,684 404,691 391,700 378,711 365,723 353,736 340,749 327,762 314,775 300,788 286,799 272,810 257,819 241,825 225,830 207,832 189,831 161,824 137,813 118,798 104,781 93,761 87,740 85,717 86,693 15,693 0,915"/>
</g>
</svg>
