<?xml version="1.0" encoding="UTF-8" standalone="no"?>
<!DOCTYPE svg PUBLIC "-//W3C//DTD SVG 1.0//EN" "http://www.w3.org/TR/2001/REC-SVG-20010904/DTD/svg10.dtd">
<svg xmlns="http://www.w3.org/2000/svg" xmlns:xlink="http://www.w3.org/1999/xlink" fill-rule="evenodd" height="0.953in" preserveAspectRatio="none" stroke-linecap="round" viewBox="0 0 690 953" width="0.69in">
<style type="text/css">
.brush0 { fill: rgb(255,255,255); }
.pen0 { stroke: rgb(0,0,0); stroke-width: 1; stroke-linejoin: round; }
.brush1 { fill: none; }
.pen1 { stroke: none; }
.brush2 { fill: rgb(0,0,0); }
</style>
<g>
<polygon class="pen1 brush2" points="346,346 57,953 189,953 346,346"/>
<polygon class="pen1 brush0" points="388,346 99,953 145,953 388,346"/>
<polygon class="pen1 brush2" points="374,346 662,953 529,953 374,346"/>
<polygon class="pen1 brush0" points="332,346 620,953 574,953 332,346"/>
<polygon class="pen1 brush2" points="346,692 311,690 276,685 243,676 211,665 181,650 153,633 126,613 101,591 79,566 59,539 42,511 27,481 16,449 7,416 2,381 0,346 2,311 7,276 16,243 27,211 42,181 59,153 79,126 101,101 126,79 153,59 181,42 211,27 243,16 276,7 311,2 346,0 381,2 415,7 448,16 480,27 510,42 538,59 565,79 589,101 611,126 631,153 648,181 663,211 675,243 683,276 688,311 690,346 688,381 683,416 675,449 663,481 648,511 631,539 611,566 589,591 565,613 538,633 510,650 480,665 448,676 415,685 381,690 346,692"/>
<polygon class="pen1 brush0" points="346,591 321,590 297,586 273,580 251,572 229,561 209,549 190,535 173,519 157,502 143,483 131,463 120,441 112,419 106,395 102,371 101,346 102,321 106,297 112,273 120,251 131,229 143,209 157,190 173,173 190,157 209,143 229,131 251,120 273,112 297,106 321,102 346,101 371,102 395,106 418,112 441,120 462,131 482,143 501,157 518,173 534,190 548,209 560,229 571,251 579,273 585,297 589,321 590,346 589,371 585,395 579,419 571,441 560,463 548,483 534,502 518,519 501,535 482,549 462,561 441,572 418,580 395,586 371,590 346,591"/>
<polygon class="pen1 brush2" points="346,457 324,455 303,448 284,438 268,424 254,408 244,389 237,368 235,346 237,324 244,303 254,284 268,268 284,254 303,244 324,237 346,235 368,237 389,244 407,254 424,268 437,284 447,303 454,324 456,346 454,368 447,389 437,408 424,424 407,438 389,448 368,455 346,457"/>
<polygon class="pen1 brush0" points="347,289 326,292 306,300 289,312 273,325 261,338 251,350 245,358 243,361 245,364 251,372 261,384 273,397 289,410 306,422 326,430 347,433 368,430 387,422 404,410 420,397 432,384 442,372 448,364 450,361 448,358 442,350 432,338 420,325 404,312 387,300 368,292 347,289"/>
<polygon class="pen1 brush0" points="347,262 331,264 314,268 299,276 283,284 269,295 257,305 246,315 237,325 236,330 236,335 235,341 235,346 235,347 235,347 235,348 235,349 242,339 252,328 264,316 279,303 294,292 311,283 329,276 347,274 364,276 381,282 397,291 412,302 426,314 438,327 448,338 456,348 456,347 456,347 456,347 456,346 456,341 455,336 455,331 454,326 445,316 435,306 423,295 409,285 394,276 379,269 363,264 347,262"/>
<polygon class="pen1 brush2" points="344,389 337,388 331,386 326,383 321,379 317,374 314,369 312,363 311,356 312,349 314,343 317,337 321,332 326,328 331,325 337,323 344,322 351,323 357,325 363,328 368,332 372,337 375,343 377,349 378,356 377,363 375,369 372,374 368,379 363,383 357,386 351,388 344,389"/>
</g>
</svg>
