<?xml version="1.0" encoding="UTF-8" standalone="no"?>
<!DOCTYPE svg PUBLIC "-//W3C//DTD SVG 1.0//EN" "http://www.w3.org/TR/2001/REC-SVG-20010904/DTD/svg10.dtd">
<svg xmlns="http://www.w3.org/2000/svg" xmlns:xlink="http://www.w3.org/1999/xlink" fill-rule="evenodd" height="0.998in" preserveAspectRatio="none" stroke-linecap="round" viewBox="0 0 1053 998" width="1.053in">
<style type="text/css">
.brush0 { fill: rgb(255,255,255); }
.pen0 { stroke: rgb(0,0,0); stroke-width: 1; stroke-linejoin: round; }
.brush1 { fill: none; }
.pen1 { stroke: none; }
.brush2 { fill: rgb(0,0,0); }
</style>
<g>
<polygon class="pen1 brush2" points="267,87 272,89 277,92 282,94 287,96 291,98 294,101 297,103 299,106 326,123 329,122 332,122 336,123 340,125 344,129 349,133 354,138 359,143 389,163 416,188 440,211 444,215 448,219 453,223 458,228 463,232 466,235 469,237 470,238 488,259 495,266 503,276 509,287 515,296 531,324 539,331 546,338 553,346 558,355 570,383 576,389 582,396 588,403 593,410 609,439 616,446 622,452 629,459 637,466 654,486 660,490 667,494 673,498 679,502 704,519 710,517 717,520 724,526 731,531 754,542 758,544 762,546 766,548 770,550 775,552 779,554 785,555 790,556 819,562 827,566 836,569 847,572 859,573 871,574 883,574 894,573 905,572 904,547 866,545 831,539 799,530 769,518 742,504 716,486 693,467 670,445 649,422 629,397 610,372 590,345 571,319 552,291 532,265 511,238 520,229 530,221 539,213 549,205 559,197 569,190 579,182 590,175 600,168 611,162 621,155 632,149 643,143 654,137 666,131 677,125 689,140 700,155 710,171 720,187 730,203 740,219 750,235 761,250 772,264 784,277 798,289 812,299 829,307 847,313 867,317 889,318 917,316 942,309 965,297 985,282 1001,263 1014,241 1021,216 1024,189 1023,168 1018,151 1012,136 1005,123 997,110 988,97 980,82 973,66 951,66 957,79 963,93 968,107 971,120 971,134 968,147 962,160 951,171 938,181 924,187 910,191 896,191 882,190 868,186 855,180 841,173 828,165 815,155 803,145 791,135 780,124 769,114 759,104 750,95 762,90 775,85 787,81 799,78 812,75 824,72 837,70 849,68 861,66 874,65 887,64 899,64 912,64 925,64 938,65 951,66 973,66 983,68 993,69 1003,69 1013,70 1023,70 1033,70 1043,70 1053,70 1053,47 1032,46 1012,45 991,44 971,43 951,42 930,42 910,41 890,42 870,43 850,45 830,47 810,51 790,55 770,60 751,67 731,75 717,67 703,59 689,52 675,46 661,41 646,37 632,34 618,32 604,31 589,32 575,34 560,38 546,43 531,49 516,58 501,68 506,78 527,71 548,67 567,65 586,66 604,70 622,77 640,89 659,104 649,112 639,119 628,126 618,133 608,139 597,145 586,151 576,158 565,164 555,170 545,177 534,184 524,192 514,200 504,209 495,218 477,198 456,178 434,159 409,140 383,122 356,104 328,89 299,74 269,61 239,51 209,42 178,36 149,32 119,31 91,33 63,39 62,58 89,63 114,70 139,81 162,93 184,108 205,125 225,144 244,163 262,184 279,206 295,228 311,251 326,274 340,296 354,319 368,340 346,370 326,401 310,433 296,466 285,500 276,535 270,571 265,607 263,624 261,637 259,647 256,653 246,640 234,622 221,603 206,585 190,572 173,566 153,571 132,589 117,616 117,643 125,669 139,695 153,719 164,743 166,764 155,784 141,795 128,798 117,796 107,789 98,779 90,767 83,754 77,743 65,753 58,764 55,777 57,790 62,804 70,817 80,829 93,839 108,847 124,853 141,855 158,853 176,847 193,835 209,818 224,795 229,784 234,773 239,760 243,748 248,735 253,723 259,713 265,704 272,730 276,757 280,783 284,810 289,830 295,849 303,866 313,883 323,898 336,912 349,925 363,936 379,947 395,956 412,963 430,970 448,975 468,978 487,980 507,981 507,981 524,980 541,979 559,976 576,972 594,967 611,961 627,954 643,945 658,935 671,924 683,912 693,898 702,883 708,867 712,850 713,831 711,813 707,795 700,779 691,764 680,750 667,738 653,729 638,721 622,715 606,712 590,711 574,714 559,719 544,727 531,739 519,755 508,777 503,797 504,814 509,830 518,842 530,852 544,860 559,864 574,865 588,863 601,857 612,848 619,835 622,818 620,796 613,771 610,754 616,745 628,744 643,750 659,762 674,779 685,802 689,829 685,858 675,884 659,905 639,923 615,937 588,947 559,953 529,955 499,954 470,948 443,939 419,925 399,908 383,887 373,862 369,833 374,805 387,776 405,746 422,716 437,686 444,656 441,627 423,599 401,581 380,574 360,576 342,584 325,598 310,616 298,635 288,654 286,617 289,579 297,540 309,500 324,462 342,426 362,392 383,363 400,389 417,414 435,439 454,463 473,487 494,510 515,531 537,551 560,570 585,587 610,602 637,614 665,624 694,632 724,636 756,638 775,638 793,637 812,635 830,632 848,629 866,625 884,621 901,615 919,609 935,602 952,594 968,585 984,576 999,565 1014,554 1028,542 1028,513 1011,517 997,523 983,528 969,534 955,539 940,543 923,546 904,547 905,572 905,573 904,575 903,578 901,583 897,587 892,593 885,598 875,603 864,607 853,611 843,613 833,615 824,616 816,616 810,616 807,614 807,610 809,600 812,583 819,562 790,556 785,573 780,592 774,608 766,614 761,614 755,613 749,611 742,610 735,609 730,607 726,606 725,606 729,599 737,581 747,560 754,542 731,531 726,542 720,554 713,566 707,577 702,587 697,596 694,601 693,603 689,604 684,604 679,603 673,601 668,599 663,598 660,596 659,596 660,594 664,587 669,577 676,566 683,553 690,540 697,529 704,519 679,502 673,513 666,523 660,532 653,541 646,549 639,558 632,567 624,576 624,576 623,576 618,573 613,569 607,566 603,562 598,559 595,556 593,555 592,554 596,550 599,546 602,543 606,538 609,534 613,530 617,525 622,520 626,516 630,512 634,507 638,502 642,497 645,493 650,489 654,486 637,466 630,475 622,484 613,493 603,501 594,510 584,518 574,526 565,533 557,527 549,520 542,513 536,505 544,496 553,487 562,479 571,470 581,461 590,453 600,445 609,438 593,410 587,420 579,429 568,439 556,449 544,459 531,468 520,476 511,484 504,476 497,469 491,461 485,454 524,418 524,418 570,383 558,355 553,360 546,366 537,373 527,382 515,392 501,403 486,415 470,429 461,421 454,413 449,405 444,395 444,395 454,387 465,378 476,369 488,359 499,350 510,340 521,332 531,324 515,296 429,369 422,363 416,356 411,348 404,341 408,336 416,327 428,315 442,301 457,287 470,275 481,265 488,259 470,238 463,244 453,252 442,262 431,274 419,285 408,297 398,307 389,316 389,316 389,316 383,307 377,295 370,284 363,275 372,266 382,258 391,250 401,242 410,234 420,226 430,219 440,211 416,188 413,192 406,198 396,207 384,217 372,227 361,235 352,242 346,245 343,241 336,232 327,221 319,214 327,206 335,199 344,193 352,187 361,181 370,175 379,169 389,163 359,143 307,190 300,184 292,177 285,170 279,163 287,156 294,149 300,143 306,138 311,134 316,130 321,126 326,123 299,106 297,109 294,112 290,115 286,119 280,123 274,128 268,133 261,139 255,135 246,130 239,124 235,118 236,117 239,115 242,111 247,107 252,102 258,96 263,91 267,87 238,75 220,100 216,100 212,99 208,97 204,95 200,93 197,90 193,88 190,85 193,77 196,72 199,68 202,65 206,64 210,64 215,65 222,66 222,66 238,75 267,87"/>
</g>
</svg>
