<?xml version="1.0" encoding="UTF-8" standalone="no"?>
<!DOCTYPE svg PUBLIC "-//W3C//DTD SVG 1.0//EN" "http://www.w3.org/TR/2001/REC-SVG-20010904/DTD/svg10.dtd">
<svg xmlns="http://www.w3.org/2000/svg" xmlns:xlink="http://www.w3.org/1999/xlink" fill-rule="evenodd" height="0.691in" preserveAspectRatio="none" stroke-linecap="round" viewBox="0 0 691 691" width="0.691in">
<style type="text/css">
.brush0 { fill: rgb(255,255,255); }
.pen0 { stroke: rgb(0,0,0); stroke-width: 1; stroke-linejoin: round; }
.brush1 { fill: none; }
.pen1 { stroke: none; }
.brush2 { fill: rgb(0,0,0); }
</style>
<g>
<polygon class="pen1 brush2" points="346,691 311,689 276,684 243,675 211,664 181,649 153,632 126,612 101,590 79,565 59,539 42,510 27,480 16,448 7,415 2,381 0,346 2,311 7,276 16,243 27,211 42,181 59,153 79,126 101,101 126,79 153,59 181,42 211,27 243,16 276,7 311,2 346,0 381,2 415,7 448,16 480,27 510,42 539,59 565,79 590,101 612,126 632,153 649,181 664,211 675,243 684,276 689,311 691,346 689,381 684,415 675,448 664,480 649,510 632,539 612,565 590,590 565,612 539,632 510,649 480,664 448,675 415,684 381,689 346,691"/>
<polygon class="pen1 brush0" points="661,347 659,315 654,284 646,254 636,226 623,199 607,173 589,149 569,127 547,107 523,89 497,73 470,60 441,50 411,42 381,38 349,36 317,38 286,42 256,50 228,60 201,73 175,89 151,107 129,127 109,149 91,173 75,199 62,226 51,254 44,284 39,315 37,347 661,347"/>
<polygon class="pen1 brush2" points="489,334 486,306 477,280 464,256 447,236 426,219 403,206 377,198 349,195 321,198 295,206 271,219 251,236 233,256 220,280 212,306 209,334 489,334"/>
<polygon class="pen1 brush0" points="31,489 660,489 664,480 667,471 671,462 674,452 17,452 20,462 24,471 27,480 31,489"/>
<polygon class="pen1 brush0" points="68,551 623,551 629,542 635,533 641,524 647,514 44,514 49,524 55,533 61,542 68,551"/>
<polygon class="pen1 brush0" points="89,577 94,582 98,587 103,592 108,596 113,601 118,605 123,610 128,614 563,614 568,610 573,605 578,601 583,596 588,592 593,587 597,582 602,577 89,577"/>
</g>
</svg>
