<?xml version="1.0" encoding="UTF-8" standalone="no"?>
<!DOCTYPE svg PUBLIC "-//W3C//DTD SVG 1.0//EN" "http://www.w3.org/TR/2001/REC-SVG-20010904/DTD/svg10.dtd">
<svg xmlns="http://www.w3.org/2000/svg" xmlns:xlink="http://www.w3.org/1999/xlink" fill-rule="evenodd" height="1.013in" preserveAspectRatio="none" stroke-linecap="round" viewBox="0 0 378 1013" width="0.378in">
<style type="text/css">
.brush0 { fill: rgb(255,255,255); }
.pen0 { stroke: rgb(0,0,0); stroke-width: 1; stroke-linejoin: round; }
.brush1 { fill: none; }
.pen1 { stroke: none; }
.brush2 { fill: rgb(0,0,0); }
</style>
<g>
<polygon class="pen1 brush2" points="26,429 64,1013 378,984 372,429 274,429 279,447 282,464 282,481 279,498 273,514 263,530 249,546 230,561 216,571 204,580 193,589 182,598 172,610 162,623 152,639 141,659 130,687 124,717 123,748 127,780 135,812 148,843 164,872 185,898 197,909 215,921 236,933 258,944 278,955 296,963 309,969 315,972 310,971 296,970 275,968 251,966 226,964 204,961 189,960 182,959 168,943 153,921 139,892 126,859 115,824 106,786 102,749 102,713 106,690 114,668 125,646 137,623 149,601 162,579 173,557 182,534 185,517 184,493 181,464 176,429 26,429"/>
<polygon class="pen1 brush2" points="0,23 26,429 176,429 168,386 160,338 151,288 142,236 134,184 129,133 127,84 128,38 142,35 157,34 172,34 186,34 201,34 216,34 232,33 247,30 234,41 215,58 194,80 175,106 159,138 151,174 153,215 169,260 179,277 192,296 207,317 222,338 237,360 251,383 264,406 274,429 372,429 367,0 0,23"/>
</g>
</svg>
