<?xml version="1.0" encoding="UTF-8" standalone="no"?>
<!DOCTYPE svg PUBLIC "-//W3C//DTD SVG 1.0//EN" "http://www.w3.org/TR/2001/REC-SVG-20010904/DTD/svg10.dtd">
<svg xmlns="http://www.w3.org/2000/svg" xmlns:xlink="http://www.w3.org/1999/xlink" fill-rule="evenodd" height="0.624in" preserveAspectRatio="none" stroke-linecap="round" viewBox="0 0 731 624" width="0.731in">
<style type="text/css">
.brush0 { fill: rgb(255,255,255); }
.pen0 { stroke: rgb(0,0,0); stroke-width: 1; stroke-linejoin: round; }
.brush1 { fill: none; }
.pen1 { stroke: none; }
.brush2 { fill: rgb(0,0,0); }
</style>
<g>
<polygon class="pen1 brush2" points="0,17 270,6 458,2 476,209 475,247 472,332 464,423 450,479 440,492 429,506 417,521 407,535 397,548 389,558 384,565 382,567 381,568 376,569 370,572 361,575 350,579 338,584 324,588 310,592 295,596 279,599 263,601 247,603 232,603 218,602 204,599 192,595 171,583 152,569 137,555 124,541 114,528 107,518 103,511 102,509 6,368 6,180 6,38 35,39 54,203 40,326 42,330 46,340 52,356 59,374 68,393 76,411 84,426 90,437 98,448 110,464 125,483 142,504 159,524 176,541 192,555 205,563 219,566 237,567 257,567 278,565 298,563 314,560 325,559 329,558 407,498 409,494 413,484 419,469 427,450 434,428 439,405 443,382 444,360 440,301 434,228 429,165 427,138 403,43 271,37 105,41 2,48 0,17"/>
<polygon class="pen1 brush2" points="27,165 32,162 43,156 57,149 73,140 88,132 102,126 111,121 115,119 238,164 235,234 136,257 26,196 60,197 147,237 212,222 214,179 145,152 113,149 32,183 27,165"/>
<polygon class="pen1 brush2" points="84,217 85,215 86,210 89,203 93,195 98,187 103,180 110,175 118,173 126,173 133,175 140,179 145,183 150,187 154,190 156,193 157,194 154,243 127,242 84,217"/>
<polygon class="pen1 brush2" points="235,26 228,380 225,514 237,590 273,587 255,474 250,341 253,140 254,20 235,26"/>
<polygon class="pen1 brush0" points="247,188 245,240 344,304 582,428 715,482 718,397 702,26 247,188"/>
<polygon class="pen1 brush2" points="238,177 717,0 731,522 239,256 246,231 415,300 620,400 693,436 675,263 675,67 559,107 404,159 237,202 238,177"/>
<polygon class="pen1 brush2" points="163,451 210,413 245,454 273,416 325,457 236,506 163,451"/>
</g>
</svg>
