<?xml version="1.0" encoding="UTF-8" standalone="no"?>
<!DOCTYPE svg PUBLIC "-//W3C//DTD SVG 1.0//EN" "http://www.w3.org/TR/2001/REC-SVG-20010904/DTD/svg10.dtd">
<svg xmlns="http://www.w3.org/2000/svg" xmlns:xlink="http://www.w3.org/1999/xlink" fill-rule="evenodd" height="0.489in" preserveAspectRatio="none" stroke-linecap="round" viewBox="0 0 565 489" width="0.565in">
<style type="text/css">
.brush0 { fill: rgb(255,255,255); }
.pen0 { stroke: rgb(0,0,0); stroke-width: 1; stroke-linejoin: round; }
.brush1 { fill: none; }
.pen1 { stroke: none; }
.brush2 { fill: rgb(0,0,0); }
</style>
<g>
<polygon class="pen1 brush2" points="173,276 195,278 216,285 235,295 251,308 264,324 274,343 281,363 283,385 282,403 277,419 271,435 262,449 251,462 239,473 225,482 209,489 565,489 282,0 113,293 120,289 126,286 134,283 141,280 149,278 157,277 165,276 173,276"/>
<polygon class="pen1 brush2" points="62,385 62,384 62,382 62,381 63,380 0,489 136,489 120,482 106,473 94,462 83,449 74,435 68,419 63,403 62,385"/>
</g>
</svg>
