<?xml version="1.0" encoding="UTF-8" standalone="no"?>
<!DOCTYPE svg PUBLIC "-//W3C//DTD SVG 1.0//EN" "http://www.w3.org/TR/2001/REC-SVG-20010904/DTD/svg10.dtd">
<svg xmlns="http://www.w3.org/2000/svg" xmlns:xlink="http://www.w3.org/1999/xlink" fill-rule="evenodd" height="1.007in" preserveAspectRatio="none" stroke-linecap="round" viewBox="0 0 801 1007" width="0.801in">
<style type="text/css">
.brush0 { fill: rgb(255,255,255); }
.pen0 { stroke: rgb(0,0,0); stroke-width: 1; stroke-linejoin: round; }
.brush1 { fill: none; }
.pen1 { stroke: none; }
.brush2 { fill: rgb(0,0,0); }
</style>
<g>
<polygon class="pen1 brush2" points="452,394 471,395 490,396 507,399 523,403 540,408 556,414 573,422 591,430 578,435 564,440 551,444 538,449 526,455 513,461 500,468 488,475 465,494 447,517 434,542 425,569 421,597 422,626 426,653 434,679 445,703 459,723 475,739 495,750 516,755 539,753 564,744 590,726 598,719 606,714 612,711 617,709 603,699 591,696 581,699 571,705 561,713 551,721 539,727 525,729 495,720 475,696 464,662 460,623 463,585 473,551 489,527 509,518 519,523 519,537 514,556 508,577 505,599 509,618 524,632 554,637 583,631 602,616 614,593 619,565 618,535 613,505 604,477 593,455 598,452 603,449 609,446 614,444 663,493 698,547 719,604 730,663 733,726 730,790 724,855 716,921 712,905 709,887 705,869 700,851 693,835 682,823 668,814 650,811 623,818 605,835 596,859 596,885 603,910 618,928 639,936 668,929 685,924 697,927 704,936 707,949 707,964 706,981 704,995 701,1007 755,1007 757,968 759,930 761,891 763,852 765,813 765,775 764,737 761,699 756,662 748,626 738,590 725,556 708,522 688,490 664,459 635,430 650,422 665,415 679,408 692,401 705,394 717,384 728,371 739,355 750,329 756,294 758,256 755,216 745,179 729,149 706,128 675,120 651,125 636,139 630,158 631,179 637,198 647,212 660,218 674,212 679,206 678,200 675,195 670,190 665,185 662,179 663,172 669,163 673,160 678,158 684,157 689,157 694,158 699,161 704,164 708,167 722,187 730,215 731,247 727,279 718,310 704,336 687,353 666,360 657,355 657,343 662,325 669,305 673,285 670,267 656,255 627,250 614,251 602,255 592,261 583,269 576,279 570,290 567,302 566,315 567,330 572,344 578,357 587,369 597,380 609,389 622,397 635,404 631,406 627,409 622,412 617,416 596,404 575,394 553,385 530,377 508,371 485,367 462,364 439,363 416,363 393,366 371,370 349,377 327,386 306,396 286,410 266,425 259,431 253,435 248,438 243,439 239,439 235,437 230,432 226,424 214,406 200,395 185,390 169,391 153,396 137,405 123,417 110,431 100,447 92,464 89,481 89,497 95,513 106,526 123,536 147,543 161,548 170,556 174,566 174,577 170,586 161,593 147,595 129,592 92,589 69,606 59,635 60,670 70,703 89,730 114,742 145,733 163,724 178,722 188,725 194,732 195,742 191,753 181,764 166,773 148,789 143,810 150,834 165,857 185,873 207,880 227,873 243,848 248,838 253,832 258,829 263,830 267,833 270,840 271,850 270,862 271,874 279,883 290,889 304,891 318,888 329,880 336,866 336,845 343,839 366,840 382,829 390,810 392,786 387,761 374,738 355,722 328,716 314,718 303,725 294,733 289,742 288,751 292,757 301,760 315,757 330,753 341,753 349,757 354,763 355,771 353,780 349,789 343,797 334,805 324,811 312,814 299,814 284,810 269,801 253,787 236,766 219,737 208,707 202,676 201,645 204,613 212,582 224,552 239,524 258,497 280,472 304,450 330,431 359,415 389,404 420,397 452,394 452,394 452,394"/>
<polygon class="pen1 brush2" points="326,21 313,20 304,62 289,91 273,107 255,112 238,105 225,87 218,59 217,21 209,21 199,21 187,20 173,20 157,19 141,19 124,20 107,21 91,22 75,25 61,28 48,32 37,38 29,44 24,52 22,62 24,70 28,75 34,77 41,77 49,76 56,74 63,71 68,68 85,58 101,51 116,49 130,49 143,53 155,59 165,67 173,76 179,86 183,97 184,107 183,117 178,127 170,135 159,141 144,145 132,150 128,157 130,167 136,178 145,189 155,199 165,207 172,212 194,222 217,226 239,225 261,220 282,212 304,201 325,188 346,175 366,161 385,148 404,137 423,129 441,123 458,122 474,126 489,135 501,148 507,161 506,173 501,183 492,192 479,199 465,202 449,203 446,216 453,225 467,229 486,229 506,221 524,206 537,181 542,147 540,129 536,113 528,99 519,86 507,74 493,64 478,55 462,47 445,40 427,35 409,30 391,27 374,24 357,22 341,21 326,21 326,21"/>
</g>
</svg>
