<?xml version="1.0" encoding="UTF-8" standalone="no"?>
<!DOCTYPE svg PUBLIC "-//W3C//DTD SVG 1.0//EN" "http://www.w3.org/TR/2001/REC-SVG-20010904/DTD/svg10.dtd">
<svg xmlns="http://www.w3.org/2000/svg" xmlns:xlink="http://www.w3.org/1999/xlink" fill-rule="evenodd" height="0.552in" preserveAspectRatio="none" stroke-linecap="round" viewBox="0 0 552 552" width="0.552in">
<style type="text/css">
.brush0 { fill: rgb(255,255,255); }
.pen0 { stroke: rgb(0,0,0); stroke-width: 1; stroke-linejoin: round; }
.brush1 { fill: none; }
.pen1 { stroke: none; }
.brush2 { fill: rgb(0,0,0); }
</style>
<g>
<polygon class="pen1 brush2" points="546,336 541,355 513,356 511,360 508,369 504,379 501,384 522,400 513,416 485,412 467,436 480,460 466,474 443,462 439,465 429,471 419,478 414,481 423,506 404,517 387,499 386,500 382,501 377,503 372,506 366,508 361,510 357,512 355,512 355,539 337,545 324,521 323,521 319,522 314,523 307,523 301,524 296,525 292,525 290,525 282,552 279,552 274,552 268,552 265,551 264,547 261,538 258,529 257,525 256,525 252,524 247,524 242,523 236,522 231,521 228,521 226,520 213,543 196,539 192,511 165,498 144,517 130,508 136,481 113,464 89,477 75,464 90,441 87,437 81,429 74,421 71,416 44,421 35,406 54,387 52,383 48,374 43,364 41,358 13,355 9,339 31,325 30,320 29,310 27,299 27,293 1,284 0,268 25,261 25,256 26,244 28,233 29,227 5,214 9,195 37,195 39,190 43,179 48,168 50,163 31,144 32,142 35,136 37,131 39,129 44,130 53,131 62,133 66,134 69,130 76,122 82,114 86,110 72,87 84,75 111,85 135,67 129,40 143,32 164,51 190,39 191,12 209,6 222,30 223,30 226,29 231,29 236,28 242,27 247,27 251,26 253,26 262,0 279,0 286,25 287,25 291,25 296,26 301,27 307,27 312,28 316,29 318,29 334,6 350,10 351,37 352,37 356,39 360,40 366,42 371,44 376,46 379,48 381,49 402,31 416,39 409,64 413,67 422,73 432,80 437,84 461,71 474,84 462,108 465,111 471,118 478,127 481,132 508,127 518,142 499,161 501,166 506,176 511,187 513,193 539,192 545,211 522,227 523,231 524,241 526,251 526,257 552,263 552,281 526,291 526,296 525,306 524,317 523,323 546,336"/>
<polygon class="pen1 brush0" points="279,480 258,479 237,476 218,471 199,464 181,455 164,445 148,433 133,420 120,405 108,390 98,373 89,355 82,336 77,316 74,296 73,275 74,254 77,233 82,214 89,195 98,177 108,160 120,144 133,129 148,116 164,104 181,94 199,85 218,78 237,73 258,70 279,69 300,70 320,73 340,78 359,85 377,94 394,104 409,116 424,129 437,144 449,160 459,177 468,195 475,214 480,233 483,254 484,275 483,296 480,316 475,336 468,355 459,373 449,390 437,405 424,420 409,433 394,445 377,455 359,464 340,471 320,476 300,479 279,480"/>
<polygon class="pen1 brush2" points="279,487 291,487 303,486 315,484 327,481 338,478 349,474 360,470 371,465 281,186 191,467 201,472 211,476 222,479 233,482 244,484 255,486 267,487 279,487"/>
</g>
</svg>
