<?xml version="1.0" encoding="UTF-8" standalone="no"?>
<!DOCTYPE svg PUBLIC "-//W3C//DTD SVG 1.0//EN" "http://www.w3.org/TR/2001/REC-SVG-20010904/DTD/svg10.dtd">
<svg xmlns="http://www.w3.org/2000/svg" xmlns:xlink="http://www.w3.org/1999/xlink" fill-rule="evenodd" height="0.636in" preserveAspectRatio="none" stroke-linecap="round" viewBox="0 0 656 636" width="0.656in">
<style type="text/css">
.brush0 { fill: rgb(255,255,255); }
.pen0 { stroke: rgb(0,0,0); stroke-width: 1; stroke-linejoin: round; }
.brush1 { fill: none; }
.pen1 { stroke: none; }
.brush2 { fill: rgb(0,0,0); }
</style>
<g>
<polygon class="pen1 brush2" points="0,0 23,605 289,636 483,623 656,617 620,380 610,0 0,0"/>
<polygon class="pen1 brush0" points="170,76 187,72 205,68 224,64 241,60 257,57 270,54 279,52 283,51 290,51 302,52 319,54 340,57 361,62 383,69 403,79 420,92 425,96 435,103 450,112 466,122 482,132 497,142 507,151 513,157 517,163 523,174 533,190 543,207 553,225 562,240 569,252 572,258 573,281 571,325 568,369 566,395 562,407 551,425 537,446 520,469 502,490 487,508 476,521 470,526 463,530 449,538 431,548 411,559 391,570 375,578 363,583 360,583 358,584 352,585 344,585 335,584 323,583 311,582 297,580 283,577 269,575 255,572 242,570 229,567 219,564 210,562 203,559 199,557 192,550 179,535 162,515 143,493 124,470 108,449 96,432 91,422 90,399 95,370 105,339 121,307 141,277 165,250 193,230 225,218 239,217 255,219 272,223 289,229 305,235 317,240 326,244 329,245 334,246 342,253 351,262 362,274 371,286 380,298 386,307 388,312 388,324 386,340 380,360 372,380 361,401 347,418 331,432 312,440 305,441 297,440 289,439 280,437 271,434 263,431 255,428 248,425 241,417 231,403 223,388 219,378 220,374 224,366 229,356 236,345 243,335 250,325 256,319 260,316 268,315 275,315 282,317 289,321 295,325 300,331 303,338 306,345 306,355 302,364 295,371 285,375 295,418 309,413 321,406 332,398 341,387 347,375 351,362 352,349 350,335 343,319 332,306 317,295 300,286 284,279 269,275 257,272 250,272 241,275 231,278 222,283 212,288 204,294 196,299 190,304 187,309 183,323 178,348 175,373 174,388 178,396 184,405 192,416 201,426 211,437 219,445 226,452 231,455 234,456 243,459 255,462 270,466 285,470 299,474 309,475 316,475 330,467 349,454 368,437 388,415 405,391 418,365 424,337 422,309 417,294 409,278 399,262 389,247 379,234 370,224 364,217 362,215 356,213 344,208 327,201 306,194 284,188 261,183 238,181 217,183 194,191 171,205 148,223 127,243 108,263 93,281 82,296 77,305 72,326 65,364 60,403 59,427 70,457 88,486 109,513 133,538 156,560 177,578 194,591 204,599 207,601 212,603 218,605 226,607 235,609 245,611 256,613 268,615 281,617 293,618 306,619 319,619 332,619 344,618 356,617 367,615 384,610 401,603 419,594 438,584 456,573 474,560 491,547 507,534 523,520 537,507 550,494 561,482 570,471 577,462 582,454 584,448 586,435 590,413 594,386 599,355 602,323 605,293 605,267 602,247 596,233 586,213 571,189 554,163 533,136 510,111 486,88 461,69 457,67 450,65 441,62 430,58 417,54 403,50 388,46 373,42 357,37 342,33 328,30 315,26 304,23 294,21 287,19 283,18 268,17 250,21 230,27 211,35 193,43 178,51 168,56 164,58 170,76"/>
</g>
</svg>
