<?xml version="1.0" encoding="UTF-8" standalone="no"?>
<!DOCTYPE svg PUBLIC "-//W3C//DTD SVG 1.0//EN" "http://www.w3.org/TR/2001/REC-SVG-20010904/DTD/svg10.dtd">
<svg xmlns="http://www.w3.org/2000/svg" xmlns:xlink="http://www.w3.org/1999/xlink" fill-rule="evenodd" height="0.838in" preserveAspectRatio="none" stroke-linecap="round" viewBox="0 0 999 838" width="0.999in">
<style type="text/css">
.brush0 { fill: rgb(255,255,255); }
.pen0 { stroke: rgb(0,0,0); stroke-width: 1; stroke-linejoin: round; }
.brush1 { fill: none; }
.pen1 { stroke: none; }
.brush2 { fill: rgb(0,0,0); }
</style>
<g>
<polygon class="pen1 brush2" points="26,838 13,767 10,702 16,642 29,587 43,544 60,502 78,462 96,422 114,383 129,344 141,304 148,262 169,232 191,204 215,179 239,157 264,137 290,119 314,103 338,89 361,77 382,66 400,57 417,50 430,43 439,38 445,34 446,31 436,44 425,58 413,73 400,89 387,106 374,122 360,139 347,155 335,171 323,185 312,198 303,209 296,219 290,226 286,230 285,232 288,233 296,237 307,242 320,247 333,253 345,258 353,262 357,263 364,260 382,252 411,240 448,224 492,205 541,183 593,160 648,136 702,112 754,89 803,67 847,47 885,29 913,15 932,5 939,0 922,47 768,169 999,347 965,333 928,321 890,312 850,306 809,302 768,301 727,303 687,308 647,317 609,328 572,343 538,362 507,384 479,410 454,439 434,473 442,490 453,504 467,516 483,525 502,532 522,537 544,541 568,544 592,546 618,548 644,550 670,552 696,555 722,560 747,565 772,573 732,576 693,580 655,584 619,588 583,592 548,597 515,601 482,605 451,610 422,615 393,619 366,624 341,628 317,632 294,637 273,641 259,657 245,672 232,687 220,702 208,716 195,730 182,743 169,756 156,768 141,780 126,791 109,802 91,812 71,821 50,830 26,838"/>
</g>
</svg>
