<?xml version="1.0" encoding="UTF-8" standalone="no"?>
<!DOCTYPE svg PUBLIC "-//W3C//DTD SVG 1.0//EN" "http://www.w3.org/TR/2001/REC-SVG-20010904/DTD/svg10.dtd">
<svg xmlns="http://www.w3.org/2000/svg" xmlns:xlink="http://www.w3.org/1999/xlink" fill-rule="evenodd" height="0.552in" preserveAspectRatio="none" stroke-linecap="round" viewBox="0 0 552 552" width="0.552in">
<style type="text/css">
.brush0 { fill: rgb(255,255,255); }
.pen0 { stroke: rgb(0,0,0); stroke-width: 1; stroke-linejoin: round; }
.brush1 { fill: none; }
.pen1 { stroke: none; }
.brush2 { fill: rgb(0,0,0); }
</style>
<g>
<polygon class="pen1 brush2" points="277,0 249,1 221,6 195,12 169,22 145,33 122,47 101,63 81,81 63,101 47,122 33,145 22,169 12,194 6,220 1,248 0,276 1,304 6,331 12,358 22,383 33,407 47,430 63,451 81,471 101,489 122,505 145,519 169,530 195,540 221,546 249,551 277,552 305,551 332,546 358,540 384,530 408,519 430,505 452,489 471,471 489,451 505,430 519,407 530,383 540,358 546,331 551,304 552,276 551,248 546,220 540,194 530,169 519,145 505,122 489,101 471,81 452,63 430,47 408,33 384,22 358,12 332,6 305,1 277,0 277,56 299,57 321,60 342,66 362,73 381,83 399,94 416,106 432,121 446,136 458,153 469,171 479,191 486,211 492,232 495,254 496,276 495,298 492,320 486,341 479,361 469,380 458,398 446,415 432,431 416,445 399,458 381,469 362,478 342,485 321,491 299,494 277,495 254,494 233,491 211,485 191,478 172,469 154,458 137,445 121,431 107,415 94,398 83,380 74,361 67,341 61,320 58,298 57,276 58,254 61,232 67,211 74,191 83,171 94,153 107,136 121,121 137,106 154,94 172,83 191,73 211,66 233,60 254,57 277,56 277,0"/>
<polygon class="pen1 brush2" points="277,350 262,349 248,344 236,337 225,328 216,317 210,305 205,291 204,276 205,261 210,248 216,235 225,224 236,216 248,209 262,204 277,203 292,204 305,209 317,216 328,224 337,235 343,248 348,261 349,276 348,291 343,305 337,317 328,328 317,337 305,344 292,349 277,350 276,358 402,449 353,301 480,209 323,209 276,60 228,209 72,209 198,301 150,449 276,358 277,350"/>
</g>
</svg>
