<?xml version="1.0" encoding="UTF-8" standalone="no"?>
<!DOCTYPE svg PUBLIC "-//W3C//DTD SVG 1.0//EN" "http://www.w3.org/TR/2001/REC-SVG-20010904/DTD/svg10.dtd">
<svg xmlns="http://www.w3.org/2000/svg" xmlns:xlink="http://www.w3.org/1999/xlink" fill-rule="evenodd" height="1.017in" preserveAspectRatio="none" stroke-linecap="round" viewBox="0 0 1006 1017" width="1.006in">
<style type="text/css">
.brush0 { fill: rgb(255,255,255); }
.pen0 { stroke: rgb(0,0,0); stroke-width: 1; stroke-linejoin: round; }
.brush1 { fill: none; }
.pen1 { stroke: none; }
.brush2 { fill: rgb(0,0,0); }
</style>
<g>
<polygon class="pen1 brush2" points="202,987 185,981 168,974 152,967 138,959 124,950 112,941 100,932 89,922 79,911 70,900 62,889 54,878 48,866 42,853 37,841 33,828 24,787 22,743 26,698 35,652 48,607 66,561 87,517 110,474 83,452 62,426 46,397 35,364 28,330 26,294 28,257 35,220 43,191 54,162 67,133 84,106 102,80 124,57 148,38 175,22 187,18 200,15 211,13 223,11 235,9 246,9 257,8 268,9 279,10 289,11 300,13 310,15 320,17 331,20 341,23 351,27 371,35 391,44 411,53 431,63 450,74 470,85 490,95 510,106 523,98 537,90 552,82 567,74 584,67 601,61 619,55 637,49 656,45 675,41 694,38 714,35 734,34 753,33 773,33 793,35 810,45 827,54 844,64 860,74 875,85 890,96 905,107 918,119 932,134 945,149 957,166 969,183 979,202 989,223 998,244 1006,268 1004,303 998,336 988,369 975,400 959,430 940,459 919,486 895,511 912,541 926,572 940,602 951,633 960,663 967,694 971,724 973,754 973,784 970,815 965,846 955,877 941,905 923,931 898,953 867,970 845,978 822,983 799,987 776,989 752,988 728,987 704,983 680,978 656,971 632,964 609,954 586,944 564,933 542,920 522,907 502,893 486,907 470,919 454,930 437,940 420,949 402,957 385,963 366,969 348,974 328,978 309,981 289,983 268,985 246,986 225,987 202,987"/>
</g>
</svg>
