<?xml version="1.0" encoding="UTF-8" standalone="no"?>
<!DOCTYPE svg PUBLIC "-//W3C//DTD SVG 1.0//EN" "http://www.w3.org/TR/2001/REC-SVG-20010904/DTD/svg10.dtd">
<svg xmlns="http://www.w3.org/2000/svg" xmlns:xlink="http://www.w3.org/1999/xlink" fill-rule="evenodd" height="0.538in" preserveAspectRatio="none" stroke-linecap="round" viewBox="0 0 379 538" width="0.379in">
<style type="text/css">
.brush0 { fill: rgb(255,255,255); }
.pen0 { stroke: rgb(0,0,0); stroke-width: 1; stroke-linejoin: round; }
.brush1 { fill: none; }
.pen1 { stroke: none; }
.brush2 { fill: rgb(0,0,0); }
</style>
<g>
<polygon class="pen1 brush2" points="379,538 379,0 0,0 0,538 379,538"/>
<polygon class="pen1 brush0" points="88,183 110,183 131,185 151,190 171,198 190,208 207,221 223,236 237,254 253,276 268,295 282,310 296,323 308,333 321,341 333,347 345,351 345,34 34,34 34,197 40,194 46,192 53,189 60,187 66,186 73,184 81,184 88,183"/>
<polygon class="pen1 brush0" points="212,342 232,369 250,390 267,407 283,420 299,430 314,436 329,439 345,440 345,384 328,380 311,373 295,364 278,352 262,337 245,320 228,298 210,274 198,260 186,247 172,237 157,228 141,222 125,218 108,216 91,216 83,217 76,218 68,220 61,223 54,225 47,229 40,232 34,236 34,275 41,274 48,272 55,271 62,270 84,270 105,272 126,277 146,285 164,296 182,309 198,324 212,342"/>
<polygon class="pen1 brush0" points="140,446 130,433 118,422 106,412 93,404 79,397 64,392 49,389 34,388 34,504 187,504 181,498 176,491 170,485 164,478 158,470 152,463 146,454 140,446"/>
<polygon class="pen1 brush0" points="185,362 173,348 160,335 146,325 131,316 116,310 99,306 82,304 65,304 61,304 57,305 53,306 49,306 45,307 42,308 38,310 34,311 34,355 53,356 72,360 91,366 108,374 125,384 140,396 155,410 168,426 178,440 187,452 196,463 205,474 213,483 221,491 229,498 236,504 345,504 345,474 334,474 323,473 313,471 303,468 293,464 283,460 274,455 264,448 255,441 245,433 236,424 226,414 216,402 206,390 196,377 185,362"/>
</g>
</svg>
