<?xml version="1.0" encoding="UTF-8" standalone="no"?>
<!DOCTYPE svg PUBLIC "-//W3C//DTD SVG 1.0//EN" "http://www.w3.org/TR/2001/REC-SVG-20010904/DTD/svg10.dtd">
<svg xmlns="http://www.w3.org/2000/svg" xmlns:xlink="http://www.w3.org/1999/xlink" fill-rule="evenodd" height="0.534in" preserveAspectRatio="none" stroke-linecap="round" viewBox="0 0 534 534" width="0.534in">
<style type="text/css">
.brush0 { fill: rgb(255,255,255); }
.pen0 { stroke: rgb(0,0,0); stroke-width: 1; stroke-linejoin: round; }
.brush1 { fill: none; }
.pen1 { stroke: none; }
.brush2 { fill: rgb(0,0,0); }
</style>
<g>
<polygon class="pen1 brush2" points="268,534 281,534 294,533 307,531 320,529 332,526 345,522 357,518 369,514 381,508 393,502 404,496 415,489 426,481 436,473 446,464 456,455 474,436 489,415 503,393 514,369 523,345 529,320 533,294 534,267 533,241 529,215 523,189 514,165 503,141 489,119 474,98 456,78 446,69 436,60 426,52 415,45 404,38 393,31 381,26 369,20 357,16 345,11 332,8 320,5 307,3 294,1 281,0 268,0 241,1 214,5 188,12 164,21 140,32 118,46 98,61 79,78 61,97 46,118 32,140 21,163 12,188 5,213 1,240 0,267 1,294 5,320 12,345 20,369 32,393 45,415 61,436 79,455 89,464 99,473 109,481 120,489 130,496 142,502 153,508 165,514 177,518 190,522 202,526 215,529 228,531 241,533 255,534 268,534"/>
<polygon class="pen1 brush0" points="270,71 264,85 246,121 222,173 194,232 165,292 140,345 121,384 113,401 155,401 159,394 168,373 182,344 199,307 218,268 237,228 255,190 270,159 365,365 252,365 252,448 290,448 290,401 424,401 270,71"/>
</g>
</svg>
