<?xml version="1.0" encoding="UTF-8" standalone="no"?>
<!DOCTYPE svg PUBLIC "-//W3C//DTD SVG 1.0//EN" "http://www.w3.org/TR/2001/REC-SVG-20010904/DTD/svg10.dtd">
<svg xmlns="http://www.w3.org/2000/svg" xmlns:xlink="http://www.w3.org/1999/xlink" fill-rule="evenodd" height="0.548in" preserveAspectRatio="none" stroke-linecap="round" viewBox="0 0 548 548" width="0.548in">
<style type="text/css">
.brush0 { fill: rgb(255,255,255); }
.pen0 { stroke: rgb(0,0,0); stroke-width: 1; stroke-linejoin: round; }
.brush1 { fill: none; }
.pen1 { stroke: none; }
.brush2 { fill: rgb(0,0,0); }
</style>
<g>
<polygon class="pen1 brush2" points="147,190 164,191 180,193 197,196 213,201 228,208 244,215 258,223 272,233 284,214 293,193 298,171 300,148 299,133 297,118 293,104 288,90 282,76 274,64 265,52 254,41 243,31 231,23 219,16 206,10 193,6 179,3 165,1 151,0 136,1 121,3 107,6 93,11 80,17 67,25 55,34 44,44 34,55 25,67 18,79 12,92 7,106 3,120 1,135 0,150 2,172 6,192 14,212 24,231 37,222 52,214 66,207 82,201 98,196 114,193 130,191 147,190"/>
<polygon class="pen1 brush2" points="316,273 326,279 336,285 346,290 357,294 368,297 379,299 390,301 402,301 414,300 426,299 438,297 449,293 460,289 471,284 481,278 491,271 498,263 507,254 517,243 525,231 532,219 538,206 542,192 545,179 547,164 548,150 547,135 545,120 542,106 537,92 531,79 523,67 514,55 504,44 493,34 481,25 469,17 456,11 442,6 428,3 413,1 398,0 387,0 377,1 366,3 356,6 346,9 337,13 327,18 318,23 328,37 336,51 343,67 349,82 353,98 356,115 358,131 359,148 358,165 356,181 353,198 348,214 342,229 335,245 326,259 316,273"/>
<polygon class="pen1 brush2" points="402,361 385,360 369,358 352,355 337,350 321,344 306,337 292,328 278,318 266,338 257,359 252,381 250,403 250,415 252,427 254,438 258,450 262,461 267,471 273,481 280,491 286,497 296,506 307,516 318,524 330,531 343,537 356,542 369,545 384,547 398,548 413,547 428,545 442,541 456,536 469,530 481,523 493,514 504,504 514,493 523,481 531,468 537,455 542,441 545,427 547,413 548,398 547,377 543,357 536,338 526,320 512,330 498,338 483,345 467,351 452,355 435,358 419,360 402,361"/>
<polygon class="pen1 brush2" points="232,279 222,272 213,267 202,262 192,258 181,255 170,253 159,251 147,251 132,252 118,254 103,258 90,263 76,269 64,277 52,286 41,296 32,307 24,318 17,331 11,343 6,356 3,370 1,384 0,398 1,413 3,427 7,441 12,455 18,468 25,481 34,493 44,504 55,514 67,523 80,530 93,536 107,541 121,545 136,547 151,548 161,548 172,547 182,545 192,542 202,539 211,535 221,530 230,525 221,512 213,497 206,483 200,467 195,452 192,436 190,419 189,403 190,386 192,370 195,353 200,338 207,322 214,307 222,293 232,279"/>
</g>
</svg>
