<?xml version="1.0" encoding="UTF-8" standalone="no"?>
<!DOCTYPE svg PUBLIC "-//W3C//DTD SVG 1.0//EN" "http://www.w3.org/TR/2001/REC-SVG-20010904/DTD/svg10.dtd">
<svg xmlns="http://www.w3.org/2000/svg" xmlns:xlink="http://www.w3.org/1999/xlink" fill-rule="evenodd" height="0.688in" preserveAspectRatio="none" stroke-linecap="round" viewBox="0 0 748 688" width="0.748in">
<style type="text/css">
.brush0 { fill: rgb(255,255,255); }
.pen0 { stroke: rgb(0,0,0); stroke-width: 1; stroke-linejoin: round; }
.brush1 { fill: none; }
.pen1 { stroke: none; }
.brush2 { fill: rgb(0,0,0); }
</style>
<g>
<polygon class="pen1 brush2" points="290,618 266,591 240,556 215,514 192,471 172,431 156,396 148,372 147,361 144,357 146,340 153,315 161,284 171,253 179,226 186,206 188,199 236,296 210,53 116,98 0,205 82,198 142,174 135,198 126,226 118,257 110,288 103,318 97,345 93,369 92,387 94,398 100,412 108,429 118,447 131,466 144,486 159,506 174,526 189,545 204,564 218,580 230,595 240,608 248,617 253,623 255,625 261,627 267,627 273,626 278,624 283,622 287,620 289,619 290,618"/>
<polygon class="pen1 brush2" points="112,41 129,39 148,39 170,40 193,43 216,46 241,50 266,55 290,60 313,65 334,71 354,76 371,82 385,87 396,91 403,95 405,98 409,97 421,109 436,128 454,152 472,177 488,200 499,216 503,222 398,200 604,331 628,226 636,66 570,140 551,202 537,182 520,158 502,132 482,107 463,82 445,61 429,43 416,31 406,26 392,21 374,18 353,15 331,12 306,11 281,10 256,9 232,9 208,8 186,9 167,9 151,9 139,10 131,10 128,10 119,18 114,28 112,37 112,41"/>
<polygon class="pen1 brush2" points="707,191 701,227 689,270 673,317 655,364 637,406 620,441 607,464 599,471 600,473 597,475 591,478 581,482 569,486 555,490 539,495 523,500 507,504 491,509 475,513 462,517 450,520 441,522 435,523 433,524 481,429 304,594 402,640 554,688 496,610 441,576 452,572 465,568 479,565 494,561 509,557 525,553 541,549 557,545 572,541 588,537 602,533 615,529 627,525 638,520 646,516 653,511 669,489 685,452 701,405 716,354 729,304 739,262 746,232 748,221 745,215 740,209 734,204 726,200 719,196 713,193 709,192 707,191"/>
<polygon class="pen1 brush2" points="364,277 333,300 318,353 356,394 405,387 418,333 406,287 364,277"/>
</g>
</svg>
