<?xml version="1.0" encoding="UTF-8" standalone="no"?>
<!DOCTYPE svg PUBLIC "-//W3C//DTD SVG 1.0//EN" "http://www.w3.org/TR/2001/REC-SVG-20010904/DTD/svg10.dtd">
<svg xmlns="http://www.w3.org/2000/svg" xmlns:xlink="http://www.w3.org/1999/xlink" fill-rule="evenodd" height="0.455in" preserveAspectRatio="none" stroke-linecap="round" viewBox="0 0 761 455" width="0.761in">
<style type="text/css">
.brush0 { fill: rgb(255,255,255); }
.pen0 { stroke: rgb(0,0,0); stroke-width: 1; stroke-linejoin: round; }
.brush1 { fill: none; }
.pen1 { stroke: none; }
.brush2 { fill: rgb(0,0,0); }
</style>
<g>
<polygon class="pen1 brush2" points="761,455 761,0 0,0 0,455 761,455"/>
<polygon class="pen1 brush0" points="761,270 755,243 746,217 734,191 719,167 702,145 682,123 660,103 635,85 609,68 581,54 551,41 520,30 487,21 453,15 418,11 382,10 344,11 308,16 272,22 238,32 206,43 175,57 146,73 119,91 95,111 73,132 53,155 36,180 22,205 12,232 4,260 0,289 0,325 0,327 0,329 0,331 1,333 6,305 14,278 25,252 40,227 57,203 76,181 98,160 123,141 149,123 178,108 208,94 240,83 274,74 309,67 345,63 382,62 418,63 453,67 487,73 520,82 551,93 581,106 609,121 635,137 660,156 682,176 702,197 719,220 734,244 746,270 755,296 761,323 761,270"/>
<polygon class="pen1 brush0" points="382,163 413,164 444,168 473,175 502,184 529,195 555,209 579,224 602,242 623,261 641,282 658,304 673,328 685,353 695,379 702,406 706,434 707,427 707,420 707,414 707,407 705,377 700,347 692,319 681,292 668,266 651,242 633,219 612,198 589,179 563,162 537,147 508,134 478,124 447,117 415,113 382,111 349,113 316,117 285,124 255,134 227,147 200,162 175,179 152,198 130,219 112,242 95,266 82,292 71,319 63,347 58,377 56,407 56,414 56,420 56,427 57,434 61,406 68,379 78,353 90,328 105,304 122,282 141,261 161,242 184,224 208,209 234,195 262,184 290,175 320,168 350,164 382,163"/>
<polygon class="pen1 brush0" points="382,249 406,250 429,253 452,258 473,265 494,273 514,283 533,294 550,307 566,321 580,337 593,354 604,371 614,390 621,410 627,430 630,451 630,446 631,441 631,437 631,432 630,409 626,387 620,366 611,345 601,326 588,307 574,290 558,274 540,260 521,247 500,236 479,227 456,219 432,214 407,210 382,209 356,210 332,214 308,219 285,227 263,236 242,247 223,260 205,274 189,290 175,307 162,326 152,345 143,366 137,387 133,409 132,432 132,437 133,441 133,446 133,451 136,430 142,410 149,390 159,371 170,354 183,337 197,321 213,307 231,294 249,283 269,273 290,265 312,258 334,253 358,250 382,249"/>
<polygon class="pen1 brush0" points="383,310 371,311 360,314 350,320 342,327 334,335 329,345 325,356 324,368 325,380 329,391 334,401 342,409 350,417 360,422 371,426 383,427 395,426 406,422 416,417 424,409 431,401 437,391 440,380 441,368 440,356 437,345 431,335 424,327 416,320 406,314 395,311 383,310"/>
</g>
</svg>
