<?xml version="1.0" encoding="UTF-8" standalone="no"?>
<!DOCTYPE svg PUBLIC "-//W3C//DTD SVG 1.0//EN" "http://www.w3.org/TR/2001/REC-SVG-20010904/DTD/svg10.dtd">
<svg xmlns="http://www.w3.org/2000/svg" xmlns:xlink="http://www.w3.org/1999/xlink" fill-rule="evenodd" height="0.676in" preserveAspectRatio="none" stroke-linecap="round" viewBox="0 0 1047 676" width="1.047in">
<style type="text/css">
.brush0 { fill: rgb(255,255,255); }
.pen0 { stroke: rgb(0,0,0); stroke-width: 1; stroke-linejoin: round; }
.brush1 { fill: none; }
.pen1 { stroke: none; }
.brush2 { fill: rgb(0,0,0); }
</style>
<g>
<polygon class="pen1 brush2" points="574,588 578,563 590,541 605,521 622,501 637,481 648,460 651,437 645,412 634,398 620,390 603,388 585,390 567,396 551,405 536,417 524,429 503,464 495,494 495,520 501,543 507,566 509,589 504,614 486,642 479,650 471,657 464,663 457,667 450,671 443,673 437,675 431,675 422,674 413,671 406,667 398,660 392,652 386,643 381,633 377,622 370,592 368,559 373,529 385,503 364,511 342,519 320,527 297,535 274,543 251,550 228,555 205,560 182,563 159,564 136,563 114,560 92,555 71,546 50,535 30,520 22,512 16,505 11,497 7,488 4,480 3,472 2,465 3,457 5,448 9,439 13,431 19,424 25,417 32,412 40,408 47,405 63,402 78,403 93,406 107,413 121,421 135,431 148,441 162,453 175,464 189,474 203,483 218,491 233,496 249,498 265,497 283,492 290,488 297,484 304,478 309,471 313,463 315,455 313,445 307,435 285,411 263,394 240,382 219,373 199,366 181,358 167,348 156,334 149,308 153,286 165,270 183,259 204,254 226,254 246,261 263,273 351,369 361,379 373,389 386,396 399,403 413,408 428,411 443,412 458,412 473,409 486,404 495,396 501,386 504,375 504,363 501,350 494,337 486,327 477,318 466,309 454,302 442,295 428,288 415,281 401,274 388,266 376,258 365,250 356,240 348,230 342,218 339,205 338,190 344,164 357,145 376,132 398,126 422,127 447,134 470,146 489,165 499,179 509,194 519,210 528,226 536,243 545,260 553,277 561,294 572,307 586,310 599,307 612,298 622,285 628,270 628,256 621,243 616,239 609,232 600,223 590,212 579,200 567,186 557,172 547,157 538,142 532,127 528,112 528,98 531,85 538,73 550,63 567,54 585,51 601,54 614,63 625,76 634,94 643,114 651,136 659,159 666,183 675,205 684,226 695,244 708,259 723,268 741,273 762,271 773,267 778,260 780,251 778,240 772,228 764,215 754,201 743,186 730,171 717,156 705,142 693,127 683,114 674,101 669,90 666,81 668,55 678,39 694,32 714,32 736,40 756,55 774,77 786,104 797,140 810,171 824,195 838,212 853,221 868,223 882,216 896,200 901,188 900,177 896,166 888,154 877,143 865,132 852,120 838,109 825,98 814,87 805,76 799,65 796,54 799,42 807,31 821,20 830,15 840,11 850,9 860,9 871,9 882,11 893,13 904,16 922,22 941,30 959,40 977,49 996,59 1013,69 1030,78 1047,85 1039,125 1031,166 1022,209 1014,250 1007,288 1001,323 997,351 996,372 996,407 996,438 996,465 994,488 991,508 986,524 979,537 969,545 958,550 949,551 942,549 935,545 930,538 926,530 924,522 922,513 920,488 923,464 929,441 937,420 944,400 950,381 953,363 950,345 942,328 931,320 919,319 908,324 898,333 890,345 885,357 884,368 886,380 890,399 893,423 896,452 896,483 894,516 887,549 874,581 857,605 840,618 823,620 808,615 795,603 786,587 782,568 783,547 791,519 800,491 810,464 817,439 820,415 817,393 807,374 787,358 759,346 738,344 722,349 710,360 703,378 699,400 697,426 698,454 699,483 701,513 703,542 704,570 704,594 701,614 695,630 686,639 665,647 644,649 625,647 608,640 594,630 583,617 576,603 574,588"/>
</g>
</svg>
