<?xml version="1.0" encoding="UTF-8" standalone="no"?>
<!DOCTYPE svg PUBLIC "-//W3C//DTD SVG 1.0//EN" "http://www.w3.org/TR/2001/REC-SVG-20010904/DTD/svg10.dtd">
<svg xmlns="http://www.w3.org/2000/svg" xmlns:xlink="http://www.w3.org/1999/xlink" fill-rule="evenodd" height="1.018in" preserveAspectRatio="none" stroke-linecap="round" viewBox="0 0 892 1018" width="0.892in">
<style type="text/css">
.brush0 { fill: rgb(255,255,255); }
.pen0 { stroke: rgb(0,0,0); stroke-width: 1; stroke-linejoin: round; }
.brush1 { fill: none; }
.pen1 { stroke: none; }
.brush2 { fill: rgb(0,0,0); }
</style>
<g>
<polygon class="pen1 brush2" points="643,1018 636,949 625,881 612,813 597,746 579,678 561,611 542,542 523,473 501,490 477,511 453,535 428,562 402,591 376,622 350,655 324,688 299,723 274,757 249,790 226,823 204,855 183,884 163,912 146,937 157,904 170,873 185,842 202,813 221,785 241,758 262,731 284,705 306,679 329,653 352,627 375,601 398,574 419,547 440,520 460,491 442,496 425,501 408,507 391,513 375,520 358,527 342,534 325,541 309,548 293,555 276,562 259,569 242,575 225,581 208,587 190,592 204,579 220,567 236,555 252,545 270,536 288,527 306,519 325,511 344,503 363,496 383,488 402,481 422,473 442,465 461,457 480,448 466,442 447,436 422,432 393,429 361,427 325,426 288,425 250,425 211,425 173,426 136,427 101,428 70,429 42,430 18,431 0,431 11,423 30,418 55,413 86,410 122,409 160,408 202,408 244,409 287,411 329,413 369,415 406,418 439,420 467,423 488,425 503,426 495,414 483,395 466,371 446,342 423,310 398,275 372,239 346,202 320,166 295,130 272,97 253,68 236,42 224,22 217,7 216,0 233,22 250,45 267,67 285,90 302,114 319,137 337,161 354,184 372,208 389,232 407,256 424,279 442,303 459,326 477,349 494,372 496,353 488,318 472,271 451,218 431,163 413,111 401,66 399,32 443,130 473,211 492,275 503,323 508,358 511,379 513,388 518,387 536,364 552,324 568,271 582,212 596,152 609,94 622,44 635,8 628,61 615,123 597,189 579,256 560,317 546,370 537,409 537,429 562,410 586,391 609,372 631,351 653,331 674,310 695,288 716,267 736,245 757,223 778,201 800,179 822,157 844,135 868,114 892,92 874,118 855,142 835,166 814,189 793,211 772,232 750,254 728,275 706,296 684,316 661,337 639,358 618,380 596,402 575,424 555,447 576,449 596,452 617,454 637,457 658,460 679,464 699,467 720,470 741,473 762,475 783,477 804,479 825,480 846,481 868,481 889,480 891,485 891,491 891,497 889,505 870,505 850,504 830,503 811,502 791,500 771,499 751,497 731,494 711,492 690,489 670,487 650,484 630,481 610,478 590,476 570,473 577,495 592,524 614,558 640,595 666,633 691,670 712,703 726,731 714,720 703,709 692,696 682,683 672,669 663,654 653,639 644,624 634,609 625,594 615,579 605,564 595,550 585,537 574,524 562,512 570,574 581,638 594,702 608,766 624,830 641,894 658,957 676,1018 643,1018 643,1018"/>
<polygon class="pen1 brush2" points="389,858 403,832 417,802 433,768 449,730 464,688 478,643 490,596 500,545 389,858"/>
</g>
</svg>
