<?xml version="1.0" encoding="UTF-8" standalone="no"?>
<!DOCTYPE svg PUBLIC "-//W3C//DTD SVG 1.0//EN" "http://www.w3.org/TR/2001/REC-SVG-20010904/DTD/svg10.dtd">
<svg xmlns="http://www.w3.org/2000/svg" xmlns:xlink="http://www.w3.org/1999/xlink" fill-rule="evenodd" height="0.803in" preserveAspectRatio="none" stroke-linecap="round" viewBox="0 0 999 803" width="0.999in">
<style type="text/css">
.brush0 { fill: rgb(255,255,255); }
.pen0 { stroke: rgb(0,0,0); stroke-width: 1; stroke-linejoin: round; }
.brush1 { fill: none; }
.pen1 { stroke: none; }
.brush2 { fill: rgb(0,0,0); }
</style>
<g>
<polygon class="pen1 brush2" points="0,803 15,780 33,745 54,700 77,646 103,586 131,521 162,453 195,384 230,315 268,249 307,187 349,132 392,84 437,45 484,19 533,5 545,4 558,3 570,4 583,6 596,9 609,12 621,17 634,23 605,40 577,60 548,81 519,105 489,132 459,161 429,194 398,230 366,269 333,312 299,359 264,409 229,464 191,524 153,588 113,657 130,636 147,614 165,591 183,568 202,544 222,520 242,495 263,471 284,447 305,422 327,398 350,375 373,352 396,329 420,307 444,286 469,267 494,248 519,230 545,214 571,199 598,185 625,173 652,163 680,155 708,149 737,145 765,144 794,144 824,148 853,153 883,162 866,166 848,171 829,178 808,187 786,197 762,208 738,220 713,234 687,248 661,264 634,280 607,297 579,315 551,334 523,353 496,373 468,393 440,413 413,434 386,455 360,476 335,497 310,518 287,539 264,559 243,580 222,600 204,619 186,638 170,656 156,674 144,691 167,674 190,657 212,639 235,621 258,602 281,583 304,564 328,545 351,527 374,508 398,490 422,472 446,455 470,439 495,423 519,408 544,395 569,382 595,371 621,360 647,352 673,345 700,339 727,336 755,334 782,334 811,336 839,341 869,348 898,357 928,369 959,383 924,387 889,391 852,396 815,401 777,407 739,413 702,420 666,429 631,439 597,450 566,463 536,477 509,494 484,513 463,534 446,557 448,552 460,545 480,536 507,526 540,514 577,502 617,489 660,477 704,465 747,455 789,446 829,438 864,434 895,432 920,433 937,438 945,443 954,449 962,456 971,464 979,474 986,484 993,496 999,509 960,505 921,504 881,505 841,507 800,512 759,518 719,525 678,534 637,544 597,555 557,567 517,580 478,594 440,608 403,622 366,637 331,652 296,667 263,682 232,697 201,711 173,725 146,738 121,750 98,761 77,772 58,781 41,788 27,795 15,799 6,802 0,803"/>
</g>
</svg>
