<?xml version="1.0" encoding="UTF-8" standalone="no"?>
<!DOCTYPE svg PUBLIC "-//W3C//DTD SVG 1.0//EN" "http://www.w3.org/TR/2001/REC-SVG-20010904/DTD/svg10.dtd">
<svg xmlns="http://www.w3.org/2000/svg" xmlns:xlink="http://www.w3.org/1999/xlink" fill-rule="evenodd" height="0.647in" preserveAspectRatio="none" stroke-linecap="round" viewBox="0 0 991 647" width="0.991in">
<style type="text/css">
.brush0 { fill: rgb(255,255,255); }
.pen0 { stroke: rgb(0,0,0); stroke-width: 1; stroke-linejoin: round; }
.brush1 { fill: none; }
.pen1 { stroke: none; }
.brush2 { fill: rgb(0,0,0); }
</style>
<g>
<polygon class="pen1 brush2" points="310,534 316,524 323,515 332,507 342,499 353,492 365,485 376,478 388,471 401,460 409,448 411,436 409,425 401,419 389,417 372,423 350,438 348,440 343,443 336,447 328,452 318,457 307,463 294,470 281,476 267,483 252,490 236,497 221,503 205,509 190,514 175,519 160,523 144,526 129,528 116,528 106,525 97,521 89,513 84,501 81,486 80,468 83,453 89,441 98,430 109,422 121,416 134,411 148,408 164,406 180,405 198,404 217,405 236,406 256,406 276,407 296,407 325,404 341,398 346,391 344,382 336,373 325,364 314,357 306,353 291,347 277,343 263,341 250,339 236,339 223,340 210,340 196,341 182,342 168,343 153,343 138,342 121,339 104,336 86,330 66,323 49,315 34,305 23,295 15,283 10,271 7,259 7,248 9,236 15,221 24,208 36,197 51,188 68,182 87,180 108,182 130,188 145,197 167,212 191,229 217,246 242,260 264,267 281,264 289,248 288,216 275,192 254,174 230,157 206,140 185,120 173,92 172,54 174,46 177,37 181,29 188,22 197,16 209,14 224,14 243,19 270,31 291,46 307,65 319,84 327,105 332,127 334,147 336,167 343,213 357,243 376,262 396,269 417,269 434,262 447,252 452,239 450,225 444,211 435,197 423,183 409,170 394,157 380,144 366,131 355,115 350,97 352,77 360,59 373,45 391,36 414,34 441,42 458,52 473,66 485,83 497,104 506,126 516,149 525,173 535,197 545,221 557,244 570,264 586,282 605,297 626,309 652,315 681,317 704,314 724,308 740,300 752,289 758,277 759,263 753,248 739,232 730,224 719,219 707,215 695,213 681,211 667,210 653,210 639,209 625,208 612,207 600,204 588,200 578,195 569,187 561,177 556,165 550,142 550,124 554,110 562,99 573,91 587,87 603,84 622,85 641,87 661,91 681,96 700,103 718,110 735,117 750,125 762,132 779,145 796,159 812,174 827,190 842,206 856,222 870,239 883,256 897,273 910,290 923,308 936,325 949,342 963,359 977,375 991,391 961,396 932,408 907,424 885,439 868,451 857,455 852,447 854,424 857,414 863,403 869,392 875,381 878,369 877,357 871,346 857,334 827,325 805,339 787,368 773,406 760,447 745,484 726,510 702,519 678,513 664,502 660,487 662,469 669,450 678,432 689,415 698,401 707,381 705,363 695,348 681,339 664,337 648,344 636,361 630,392 625,451 616,498 604,536 591,565 576,585 561,597 546,602 533,600 521,592 512,579 506,562 504,541 507,516 515,488 529,459 550,428 559,413 560,398 556,386 547,378 535,373 522,375 508,383 495,400 487,416 480,438 474,464 468,493 461,523 452,553 441,580 428,604 420,614 411,623 401,630 390,634 377,636 363,635 348,631 331,624 328,623 322,619 315,614 307,605 301,593 299,577 301,558 310,534"/>
</g>
</svg>
