<?xml version="1.0" encoding="UTF-8" standalone="no"?>
<!DOCTYPE svg PUBLIC "-//W3C//DTD SVG 1.0//EN" "http://www.w3.org/TR/2001/REC-SVG-20010904/DTD/svg10.dtd">
<svg xmlns="http://www.w3.org/2000/svg" xmlns:xlink="http://www.w3.org/1999/xlink" fill-rule="evenodd" height="1.006in" preserveAspectRatio="none" stroke-linecap="round" viewBox="0 0 679 1006" width="0.679in">
<style type="text/css">
.brush0 { fill: rgb(255,255,255); }
.pen0 { stroke: rgb(0,0,0); stroke-width: 1; stroke-linejoin: round; }
.brush1 { fill: none; }
.pen1 { stroke: none; }
.brush2 { fill: rgb(0,0,0); }
</style>
<g>
<polygon class="pen1 brush2" points="666,1006 645,1004 623,1000 599,993 575,983 550,971 526,956 504,940 483,922 464,903 449,883 437,862 429,840 426,817 428,794 436,772 450,749 476,717 500,689 521,664 540,642 555,621 568,602 577,584 582,566 583,548 580,530 573,510 561,489 544,465 522,439 494,409 461,376 440,352 424,327 413,301 407,274 405,248 406,221 412,195 421,169 432,145 447,121 464,99 484,79 505,61 528,44 553,31 578,20 589,20 601,20 612,20 623,20 634,20 645,20 657,20 669,20 674,266 675,514 672,761 666,1006 666,1006"/>
<polygon class="pen1 brush2" points="14,993 9,748 11,504 16,260 17,13 22,12 30,11 39,11 49,10 61,10 74,10 87,10 102,10 117,10 132,11 147,11 163,11 178,12 192,13 206,13 219,14 189,38 163,62 142,87 126,111 113,137 105,162 100,187 98,212 101,246 109,280 123,314 141,347 164,379 189,411 217,442 247,473 258,487 263,501 264,515 261,529 254,544 245,559 233,575 220,592 206,609 192,627 178,647 165,667 153,689 143,712 137,737 133,763 133,786 136,810 143,836 153,863 168,892 187,923 211,955 240,990 14,993 14,993"/>
<polygon class="pen1 brush2" points="210,768 210,803 218,841 232,880 250,917 271,950 292,976 313,994 331,1000 437,1000 430,993 415,975 395,949 373,918 351,882 333,846 322,810 321,777 325,764 331,750 339,738 349,725 361,713 373,701 387,689 400,677 414,664 428,652 442,640 454,627 466,613 476,600 485,586 491,571 496,543 491,515 478,486 459,456 435,425 410,393 383,360 358,327 336,292 320,256 310,219 310,180 320,141 344,100 382,58 436,14 429,12 420,10 410,9 399,8 387,8 375,8 362,8 350,8 337,9 324,10 312,11 300,12 289,12 278,13 269,14 261,14 230,63 208,108 195,149 188,187 187,221 192,253 202,282 215,309 232,334 250,358 269,381 288,403 307,425 325,446 340,468 352,490 357,507 357,524 354,541 347,558 338,575 326,593 313,610 299,628 284,645 270,663 255,681 242,698 230,716 221,733 214,751 210,768"/>
</g>
</svg>
