<?xml version="1.0" encoding="UTF-8" standalone="no"?>
<!DOCTYPE svg PUBLIC "-//W3C//DTD SVG 1.0//EN" "http://www.w3.org/TR/2001/REC-SVG-20010904/DTD/svg10.dtd">
<svg xmlns="http://www.w3.org/2000/svg" xmlns:xlink="http://www.w3.org/1999/xlink" fill-rule="evenodd" height="0.483in" preserveAspectRatio="none" stroke-linecap="round" viewBox="0 0 509 483" width="0.509in">
<style type="text/css">
.brush0 { fill: rgb(255,255,255); }
.pen0 { stroke: rgb(0,0,0); stroke-width: 1; stroke-linejoin: round; }
.brush1 { fill: none; }
.pen1 { stroke: none; }
.brush2 { fill: rgb(0,0,0); }
</style>
<g>
<polygon class="pen1 brush2" points="250,36 107,54 58,99 58,113 59,146 60,179 62,196 61,203 54,218 45,238 35,262 25,286 18,309 15,327 18,339 25,348 34,359 43,371 53,382 63,393 72,402 82,408 91,410 101,413 114,421 128,433 142,446 155,459 168,471 178,479 185,481 192,479 202,476 214,471 228,466 241,461 254,455 264,450 272,446 280,442 293,437 308,432 325,427 343,423 361,418 378,415 392,412 406,408 423,401 440,392 457,381 471,369 482,356 488,342 487,329 478,300 471,271 467,246 468,232 471,224 477,210 483,192 490,172 497,152 503,135 507,123 509,119 426,91 390,0 250,36"/>
<polygon class="pen1 brush0" points="244,78 247,78 254,79 263,81 272,81 276,81 281,79 285,78 290,75 295,73 299,70 303,67 306,64 312,59 319,55 327,51 335,48 343,46 350,47 354,48 356,49 358,54 362,64 367,77 370,86 373,94 378,104 383,115 388,128 391,134 395,138 401,141 407,143 413,144 420,145 425,145 430,145 437,146 444,148 449,150 452,154 452,161 449,170 445,181 442,191 438,203 430,220 422,238 415,253 412,262 414,270 420,281 430,302 434,314 435,324 433,332 429,338 425,342 419,345 414,348 410,350 405,352 397,354 388,357 378,359 368,362 358,364 350,365 345,366 340,366 334,367 326,368 319,369 310,371 303,374 295,376 289,379 284,382 279,386 273,390 268,394 262,399 255,404 249,410 241,416 234,421 229,425 224,426 220,427 215,427 209,427 202,427 193,427 184,425 176,420 169,413 164,404 159,395 155,386 151,379 147,374 143,371 139,369 135,367 130,366 124,365 118,365 111,364 104,364 97,363 89,362 83,361 76,359 70,357 64,354 59,349 55,344 52,328 56,308 63,286 70,266 74,256 78,246 83,236 88,226 93,217 97,208 100,201 101,196 99,188 94,179 87,166 83,148 83,139 85,132 88,127 92,123 97,121 102,119 107,117 112,115 118,112 125,109 135,105 145,101 156,97 167,93 177,90 187,87 196,85 206,83 215,82 224,80 232,79 238,79 242,78 244,78 252,68 250,68 243,68 233,68 221,68 208,69 195,71 183,73 172,76 161,80 149,84 136,89 123,94 110,100 99,106 91,111 86,116 80,126 74,135 70,145 70,157 75,172 81,188 86,201 88,206 86,209 82,218 76,230 69,244 61,259 54,274 49,286 46,295 44,313 43,337 47,359 55,371 62,373 69,375 77,377 85,378 92,379 99,380 106,381 111,381 115,381 121,381 126,382 131,383 136,384 140,386 144,388 146,391 148,396 152,403 158,412 164,421 172,430 180,437 188,441 197,442 205,441 211,441 217,440 221,440 226,439 232,437 238,433 247,428 256,422 264,416 271,410 278,404 284,399 291,395 297,391 304,388 311,386 320,385 330,383 340,382 352,381 364,379 376,377 388,374 399,371 409,368 417,365 425,362 431,358 436,353 440,346 443,337 447,318 447,304 446,293 442,286 436,281 431,277 428,272 429,263 431,256 435,246 439,235 444,222 449,209 454,196 458,184 461,174 466,159 468,148 466,142 459,137 453,136 448,135 443,135 437,135 432,134 427,133 421,131 415,127 409,122 404,117 399,112 395,106 390,100 386,93 383,86 380,78 378,62 378,48 374,38 360,35 350,36 341,38 333,40 326,43 320,46 313,49 306,52 298,55 290,57 282,60 274,62 267,64 261,65 256,67 253,68 252,68 244,78"/>
<polygon class="pen1 brush0" points="301,118 304,118 310,118 316,119 321,124 322,130 318,133 313,135 306,137 301,137 299,132 299,125 301,118 296,108 291,110 286,112 282,116 281,122 283,130 287,138 292,145 300,148 305,148 310,148 314,148 318,147 322,146 325,143 328,140 330,135 334,125 337,118 337,113 331,108 326,106 320,105 314,105 309,106 304,106 300,107 297,108 296,108 301,118"/>
<polygon class="pen1 brush0" points="385,208 396,211 397,212 399,214 401,217 402,221 401,225 396,228 389,229 383,229 380,227 380,223 382,216 385,208 380,195 374,197 371,200 369,205 370,212 370,221 370,230 371,236 376,240 383,240 391,240 398,238 404,235 409,230 414,224 417,217 414,208 410,204 406,200 401,198 397,196 392,195 387,194 383,194 380,195 385,208"/>
<polygon class="pen1 brush0" points="355,317 352,323 351,328 352,331 354,330 358,327 362,325 366,323 366,320 363,318 359,317 356,317 355,317 353,304 354,303 355,302 355,300 356,298 359,296 363,297 368,300 372,303 375,307 376,312 375,319 373,330 370,339 364,342 357,343 350,342 344,340 342,333 343,325 343,316 344,311 346,308 349,306 353,304 355,317"/>
<polygon class="pen1 brush0" points="237,364 238,368 237,371 236,375 233,378 229,381 225,383 220,383 216,381 215,378 216,373 219,367 223,360 225,360 229,359 234,360 237,364 242,350 229,347 225,348 221,348 216,352 212,364 207,378 205,387 206,393 212,395 216,395 221,395 225,395 230,394 234,394 237,392 240,390 242,388 245,383 247,378 248,372 248,366 247,360 245,355 243,351 242,350 237,364"/>
<polygon class="pen1 brush0" points="112,304 107,307 103,311 100,315 100,319 103,321 108,321 114,320 116,319 117,318 120,316 122,313 122,309 121,306 119,303 117,302 112,304 107,289 111,289 115,289 118,290 121,290 125,292 128,297 130,303 132,308 132,313 130,319 128,323 124,326 122,328 116,331 108,333 99,333 93,330 91,324 91,317 91,309 92,302 95,297 98,294 101,291 103,290 104,290 106,290 107,289 112,304"/>
<polygon class="pen1 brush0" points="175,132 171,134 167,135 162,135 158,135 158,148 163,146 168,147 171,149 175,152 176,156 175,162 172,167 171,170 170,170 167,172 163,173 159,174 156,174 153,172 151,168 147,161 145,155 148,153 152,151 158,148 158,135 154,136 150,137 147,139 145,141 142,148 139,155 138,162 139,168 142,174 147,180 152,184 158,186 165,185 171,183 175,182 177,181 179,178 185,170 189,161 190,153 188,145 186,137 182,132 175,132"/>
<polygon class="pen1 brush0" points="280,308 272,312 263,314 254,314 245,313 235,312 226,309 217,306 209,303 196,292 188,274 183,255 181,240 183,230 188,223 197,214 209,199 216,191 223,186 230,183 236,182 242,181 247,182 250,183 251,183 253,182 258,181 267,181 280,182 287,184 294,187 300,191 306,195 311,201 315,206 320,212 324,217 328,229 326,242 321,255 315,267 312,273 310,278 306,283 303,288 298,293 293,298 287,303 280,308 287,317 292,314 299,310 305,306 312,301 318,295 323,288 327,280 330,270 334,251 338,234 337,220 330,206 325,199 319,192 312,186 305,180 297,176 288,172 279,170 268,169 267,169 264,169 260,170 254,170 248,171 241,173 233,176 225,179 218,183 211,185 205,188 199,190 194,193 190,198 185,204 181,212 174,230 168,247 166,262 170,273 173,278 177,286 182,294 189,303 198,312 211,319 228,325 250,328 255,328 260,328 264,327 269,326 273,324 277,322 282,320 287,317 280,308"/>
<polygon class="pen1 brush0" points="256,278 250,279 245,279 241,278 238,277 235,274 232,272 228,269 223,267 215,263 213,257 213,249 214,241 214,234 216,230 218,227 222,223 228,218 235,214 240,213 242,212 244,211 250,209 259,208 271,207 281,208 286,212 290,217 294,224 298,232 298,240 296,247 293,256 291,260 288,263 284,266 280,269 275,272 270,274 263,276 256,278 268,292 273,289 278,286 283,284 288,281 292,278 296,274 299,270 301,265 305,256 310,249 312,241 308,227 301,212 296,204 291,199 283,196 277,196 272,196 266,196 261,197 257,198 254,198 252,199 251,199 244,202 237,203 230,205 224,206 218,209 213,212 210,217 209,223 206,237 201,252 200,265 210,277 219,281 229,285 239,287 248,289 256,291 262,291 266,292 268,292 256,278"/>
</g>
</svg>
