<?xml version="1.0" encoding="UTF-8" standalone="no"?>
<!DOCTYPE svg PUBLIC "-//W3C//DTD SVG 1.0//EN" "http://www.w3.org/TR/2001/REC-SVG-20010904/DTD/svg10.dtd">
<svg xmlns="http://www.w3.org/2000/svg" xmlns:xlink="http://www.w3.org/1999/xlink" fill-rule="evenodd" height="0.955in" preserveAspectRatio="none" stroke-linecap="round" viewBox="0 0 958 955" width="0.958in">
<style type="text/css">
.brush0 { fill: rgb(255,255,255); }
.pen0 { stroke: rgb(0,0,0); stroke-width: 1; stroke-linejoin: round; }
.brush1 { fill: none; }
.pen1 { stroke: none; }
.brush2 { fill: rgb(0,0,0); }
</style>
<g>
<polygon class="pen1 brush2" points="422,174 503,396 769,342 769,342 548,507 698,761 474,589 265,754 362,522 157,407 384,390 422,174 418,0 314,334 0,361 279,570 149,896 479,697 860,901 650,519 908,280 908,280 535,307 418,0 422,174"/>
<polygon class="pen1 brush2" points="758,76 821,110 806,110 791,112 776,114 763,117 750,121 737,126 725,131 714,138 703,145 692,154 683,163 673,173 665,184 657,196 649,208 642,222 646,184 655,157 667,138 681,125 698,116 717,106 737,94 758,76 758,76"/>
<polygon class="pen1 brush2" points="248,265 236,242 223,220 207,200 190,181 170,163 149,147 125,132 100,118 145,72 164,94 181,117 197,141 211,164 223,189 233,214 241,239 248,265 248,265 248,265"/>
<polygon class="pen1 brush2" points="756,510 770,510 784,510 798,510 811,511 825,511 838,513 851,514 863,516 876,519 888,522 900,527 912,532 924,538 935,545 947,554 958,563 931,648 926,635 920,623 914,611 906,600 898,589 889,579 880,570 869,561 858,553 845,545 833,538 819,531 804,525 789,519 773,514 756,510 756,510"/>
<polygon class="pen1 brush2" points="506,807 517,830 527,851 535,871 541,889 546,907 549,922 551,937 552,950 475,950 484,946 491,932 496,911 500,886 503,861 505,837 506,818 506,807 506,807"/>
<polygon class="pen1 brush2" points="175,599 149,599 125,599 105,601 86,605 69,612 52,623 36,639 20,660 6,608 19,594 31,583 42,575 54,570 64,567 75,567 86,568 96,571 106,575 116,579 126,584 135,588 145,592 155,596 165,598 175,599 175,599"/>
</g>
</svg>
