<?xml version="1.0" encoding="UTF-8" standalone="no"?>
<!DOCTYPE svg PUBLIC "-//W3C//DTD SVG 1.0//EN" "http://www.w3.org/TR/2001/REC-SVG-20010904/DTD/svg10.dtd">
<svg xmlns="http://www.w3.org/2000/svg" xmlns:xlink="http://www.w3.org/1999/xlink" fill-rule="evenodd" height="0.818in" preserveAspectRatio="none" stroke-linecap="round" viewBox="0 0 436 818" width="0.436in">
<style type="text/css">
.brush0 { fill: rgb(255,255,255); }
.pen0 { stroke: rgb(0,0,0); stroke-width: 1; stroke-linejoin: round; }
.brush1 { fill: none; }
.pen1 { stroke: none; }
.brush2 { fill: rgb(0,0,0); }
</style>
<g>
<polygon class="pen1 brush2" points="281,818 281,0 0,0 0,818 281,818"/>
<polygon class="pen1 brush0" points="77,137 84,119 91,103 98,89 104,77 111,68 118,61 124,57 131,56 139,58 147,63 155,72 164,85 174,103 183,126 191,153 200,186 209,237 216,292 220,350 220,408 218,465 213,519 205,569 194,612 190,625 186,635 181,644 177,651 173,656 169,659 166,661 163,662 160,661 155,658 151,653 145,645 140,635 134,621 128,603 123,581 113,514 110,441 114,370 126,311 131,296 136,287 140,282 143,281 146,283 151,290 158,305 165,330 172,373 173,419 170,464 163,502 160,510 158,515 156,517 155,518 155,518 156,518 156,518 157,518 156,517 153,513 149,505 145,491 141,464 140,434 141,405 146,382 146,382 146,378 145,374 142,372 139,370 135,369 132,370 129,373 127,376 127,376 122,402 120,433 122,465 126,495 132,513 138,526 146,534 155,537 163,536 170,530 177,521 182,508 189,468 192,420 191,371 184,326 180,311 176,298 171,287 167,278 161,271 156,266 150,263 143,262 138,262 132,264 127,268 123,272 118,278 114,286 111,295 107,305 95,367 91,441 94,517 104,586 108,602 113,619 119,635 126,649 133,662 142,672 151,678 162,681 170,680 177,678 184,673 191,666 197,657 203,646 208,633 213,618 224,574 232,523 237,467 239,409 238,349 235,291 228,234 218,182 212,157 204,132 196,108 186,85 175,66 162,51 148,40 132,36 124,37 116,40 106,45 97,54 87,66 78,83 68,105 59,132 42,201 31,280 26,365 25,455 29,546 37,636 49,723 65,803 62,783 56,728 49,647 43,548 40,439 43,328 55,225 77,137"/>
<polygon class="pen1 brush2" points="27,423 378,423 378,387 27,387 27,423"/>
<polygon class="pen1 brush0" points="281,387 27,387 27,423 281,423 281,387"/>
<polygon class="pen1 brush2" points="321,314 436,404 320,491 375,404 321,314"/>
</g>
</svg>
