<?xml version="1.0" encoding="UTF-8" standalone="no"?>
<!DOCTYPE svg PUBLIC "-//W3C//DTD SVG 1.0//EN" "http://www.w3.org/TR/2001/REC-SVG-20010904/DTD/svg10.dtd">
<svg xmlns="http://www.w3.org/2000/svg" xmlns:xlink="http://www.w3.org/1999/xlink" fill-rule="evenodd" height="0.398in" preserveAspectRatio="none" stroke-linecap="round" viewBox="0 0 801 398" width="0.801in">
<style type="text/css">
.brush0 { fill: rgb(255,255,255); }
.pen0 { stroke: rgb(0,0,0); stroke-width: 1; stroke-linejoin: round; }
.brush1 { fill: none; }
.pen1 { stroke: none; }
.brush2 { fill: rgb(0,0,0); }
</style>
<g>
<polygon class="pen1 brush2" points="0,0 10,385 350,398 589,396 795,390 801,350 800,6 0,0"/>
<polygon class="pen1 brush0" points="245,244 239,249 226,262 208,280 188,300 168,321 151,339 139,351 134,356 643,356 643,355 642,352 640,347 637,341 632,333 627,325 620,317 612,308 605,303 593,295 579,285 563,275 547,265 533,256 522,248 516,244 510,240 498,235 482,230 463,223 443,217 421,211 400,207 380,204 372,204 363,205 351,208 339,211 326,215 313,219 300,224 287,228 275,233 264,237 255,241 248,244 242,246 240,247 241,246 245,244"/>
<polygon class="pen1 brush2" points="511,300 505,297 494,292 479,287 462,282 442,276 422,272 402,268 382,265 368,265 350,269 330,275 308,282 287,290 269,297 254,303 245,306 241,309 236,314 230,319 223,326 214,333 206,340 197,348 188,356 221,356 229,344 236,333 241,325 245,320 249,319 261,315 280,309 302,302 326,296 349,290 370,286 384,286 404,289 427,294 450,299 473,306 494,312 512,318 525,323 532,327 536,330 542,337 549,346 558,356 593,356 583,349 571,341 558,332 546,323 534,315 523,308 516,303 511,300"/>
<polygon class="pen1 brush0" points="136,333 179,283 6,222 115,291 136,333"/>
<polygon class="pen1 brush0" points="207,241 260,208 220,191 159,88 182,176 207,241"/>
<polygon class="pen1 brush0" points="334,193 378,189 350,107 367,29 325,111 334,193"/>
<polygon class="pen1 brush0" points="444,201 490,217 486,147 521,57 465,132 444,201"/>
<polygon class="pen1 brush0" points="541,236 581,219 652,101 618,218 597,273 541,236"/>
<polygon class="pen1 brush0" points="624,302 652,345 685,294 797,241 690,269 624,302"/>
</g>
</svg>
