<?xml version="1.0" encoding="UTF-8" standalone="no"?>
<!DOCTYPE svg PUBLIC "-//W3C//DTD SVG 1.0//EN" "http://www.w3.org/TR/2001/REC-SVG-20010904/DTD/svg10.dtd">
<svg xmlns="http://www.w3.org/2000/svg" xmlns:xlink="http://www.w3.org/1999/xlink" fill-rule="evenodd" height="1.023in" preserveAspectRatio="none" stroke-linecap="round" viewBox="0 0 1003 1023" width="1.003in">
<style type="text/css">
.brush0 { fill: rgb(255,255,255); }
.pen0 { stroke: rgb(0,0,0); stroke-width: 1; stroke-linejoin: round; }
.brush1 { fill: none; }
.pen1 { stroke: none; }
.brush2 { fill: rgb(0,0,0); }
</style>
<g>
<polygon class="pen1 brush2" points="0,71 0,18 35,18 70,17 105,17 141,16 177,15 213,14 249,13 285,12 321,12 357,13 393,13 428,15 464,17 499,20 533,23 567,28 573,29 582,31 594,33 609,37 625,40 642,45 660,50 678,56 695,62 712,68 726,75 739,83 749,91 755,98 758,107 756,115 744,117 729,119 714,122 698,125 684,130 673,137 665,147 662,160 665,174 674,180 687,182 702,179 718,174 733,169 747,165 757,163 781,165 803,172 824,182 843,194 861,210 877,227 892,245 906,264 914,275 920,284 925,290 927,292 913,296 896,297 877,295 858,293 840,293 826,295 816,301 812,313 814,322 821,329 829,333 838,334 872,339 899,353 921,375 939,402 952,432 963,465 971,497 979,528 974,532 965,530 956,527 948,524 940,521 932,518 924,515 915,512 907,510 901,515 908,537 919,558 934,578 949,599 963,619 973,640 978,662 974,686 975,714 978,754 980,802 981,852 979,900 974,940 962,968 944,978 932,969 921,944 910,909 901,868 892,825 885,786 880,755 876,736 868,705 858,674 848,644 836,614 824,586 810,558 796,530 780,504 764,478 747,453 728,429 709,406 690,383 669,362 647,341 625,321 602,302 578,284 554,267 529,251 503,236 476,223 449,210 421,198 392,187 363,177 333,169 303,162 272,155 241,150 209,147 177,144 166,143 155,143 144,142 133,141 122,141 111,140 100,140 89,139 77,139 66,139 55,139 44,138 33,138 22,138 11,138 0,138 0,116 45,116 90,117 134,119 177,122 219,126 260,132 301,139 342,147 381,158 420,171 459,187 497,205 535,225 572,249 609,275 645,305 678,336 709,368 737,400 763,434 786,468 807,503 826,539 844,576 859,613 873,652 885,691 896,731 905,772 914,814 921,857 928,901 930,914 933,931 937,947 944,959 952,948 956,926 958,902 958,888 957,846 954,806 950,766 944,726 936,688 926,650 915,614 903,578 888,543 872,510 855,477 836,445 816,414 795,385 772,356 747,329 722,303 695,278 667,255 638,233 607,212 576,192 543,174 510,157 475,142 439,128 403,116 365,105 326,96 287,88 247,82 206,78 193,77 180,76 168,75 155,74 142,74 129,73 116,73 103,72 90,72 78,72 65,71 52,71 39,71 26,71 13,71 0,71 0,71"/>
<polygon class="pen1 brush2" points="130,931 161,931 192,932 222,933 252,934 282,935 311,934 339,933 367,929 394,924 421,917 446,906 471,893 494,876 517,856 538,831 558,802 544,811 531,818 517,825 502,830 488,835 473,838 459,839 445,839 431,838 417,835 404,830 392,824 379,815 368,805 357,793 347,779 336,757 330,736 328,716 331,698 337,682 346,667 357,655 370,644 383,636 397,630 411,627 424,627 435,630 445,635 451,645 454,657 446,665 438,661 431,657 425,653 418,651 412,650 405,651 396,654 387,660 367,681 357,702 357,723 363,740 373,753 383,760 392,759 397,749 405,723 420,705 441,695 464,692 486,697 506,710 521,731 528,760 535,772 543,779 550,782 557,782 564,778 571,771 578,761 584,748 593,721 598,693 600,666 597,639 592,612 584,587 572,562 558,539 541,518 523,498 502,481 479,466 454,454 428,445 401,440 373,438 332,441 299,448 273,460 254,474 242,491 235,508 233,525 235,541 240,556 249,567 259,575 271,578 284,575 297,565 309,548 320,522 331,531 337,542 339,553 337,565 331,577 323,588 312,598 299,606 285,613 269,618 252,619 235,618 218,613 202,604 186,590 172,572 157,538 156,511 166,490 183,472 203,458 221,445 235,433 241,421 235,408 219,406 200,408 181,412 168,411 165,402 177,380 210,340 226,325 244,314 263,306 283,300 304,299 325,300 346,304 366,312 378,316 385,316 388,311 389,304 388,295 386,285 386,275 387,267 405,271 424,275 444,281 464,287 482,297 496,309 506,324 509,344 504,362 492,373 478,380 465,385 458,391 460,400 478,415 513,439 548,466 577,498 598,534 613,573 621,614 624,657 620,700 611,743 606,760 600,780 597,801 601,819 620,803 638,792 656,787 674,787 690,793 704,806 716,826 726,852 728,860 730,867 734,873 740,879 729,889 716,892 703,889 691,884 680,879 670,877 664,880 662,892 668,912 685,925 708,931 735,929 762,920 785,904 802,880 808,849 806,832 802,813 801,796 809,783 818,788 825,795 831,803 835,811 838,820 841,830 842,840 842,851 840,876 834,899 824,919 812,936 797,951 780,962 761,970 741,976 721,978 700,977 679,974 659,966 640,956 622,942 607,925 594,905 584,882 579,859 577,835 576,810 554,846 528,877 499,903 467,925 433,942 397,955 359,965 320,972 280,976 239,979 198,980 157,979 116,978 76,976 37,975 0,974 0,920 20,923 42,927 65,929 86,929 103,925 115,916 119,900 114,877 109,858 108,841 110,827 116,815 125,805 135,798 147,793 161,790 174,789 188,791 201,795 213,802 223,810 231,822 236,835 238,851 235,870 227,886 215,898 200,909 183,917 165,923 147,928 130,931 130,931"/>
</g>
</svg>
