<?xml version="1.0" encoding="UTF-8" standalone="no"?>
<!DOCTYPE svg PUBLIC "-//W3C//DTD SVG 1.0//EN" "http://www.w3.org/TR/2001/REC-SVG-20010904/DTD/svg10.dtd">
<svg xmlns="http://www.w3.org/2000/svg" xmlns:xlink="http://www.w3.org/1999/xlink" fill-rule="evenodd" height="1.078in" preserveAspectRatio="none" stroke-linecap="round" viewBox="0 0 1031 1078" width="1.031in">
<style type="text/css">
.brush0 { fill: rgb(255,255,255); }
.pen0 { stroke: rgb(0,0,0); stroke-width: 1; stroke-linejoin: round; }
.brush1 { fill: none; }
.pen1 { stroke: none; }
.brush2 { fill: rgb(0,0,0); }
</style>
<g>
<polygon class="pen1 brush2" points="637,925 642,923 648,921 656,919 666,916 686,907 690,904 695,902 699,900 703,898 707,896 711,894 715,893 718,891 743,879 746,878 750,876 754,874 757,872 761,870 765,868 769,866 773,863 795,851 802,846 809,840 815,835 822,829 837,817 842,812 848,807 853,801 858,795 873,780 880,771 885,763 889,757 892,752 906,737 910,728 914,720 918,712 921,704 932,684 944,658 951,632 953,626 956,620 959,612 962,604 967,578 969,570 971,561 972,552 972,543 978,519 980,513 982,505 983,495 983,483 1010,500 1008,545 1003,588 994,628 982,666 968,701 950,734 930,765 907,794 882,820 855,844 826,866 795,885 763,902 729,917 694,930 658,940 621,949 583,955 544,958 505,960 466,960 427,957 388,952 350,945 312,936 274,925 237,911 202,896 167,878 134,859 102,837 72,813 53,796 42,783 37,772 36,762 40,751 47,738 55,722 63,700 79,645 89,590 93,535 91,482 85,428 75,374 61,321 43,267 39,244 41,222 49,200 63,179 81,158 103,138 128,119 156,102 185,86 215,71 245,57 274,45 303,35 329,27 353,21 373,17 394,14 414,12 435,10 455,9 476,8 496,8 517,8 538,8 558,8 579,9 599,10 620,10 640,11 661,12 681,13 702,13 722,13 743,14 763,14 784,15 804,15 825,16 846,16 866,17 887,17 907,18 928,18 949,18 969,19 990,19 1010,19 1031,19 1031,44 935,44 935,55 939,65 945,75 952,83 959,92 965,101 969,112 971,124 969,144 964,159 955,170 945,177 933,181 920,181 906,179 893,174 881,167 871,158 863,148 858,136 857,123 860,110 868,96 881,82 887,77 892,73 898,70 902,66 906,62 909,58 910,52 911,44 893,43 874,41 856,40 837,40 818,39 799,38 780,38 761,37 742,37 723,37 704,37 685,37 666,37 647,37 628,37 610,37 652,58 687,86 716,119 739,156 756,197 766,239 770,283 768,327 760,369 747,409 727,446 701,479 670,506 632,527 590,540 541,545 524,544 507,542 490,539 474,535 457,529 442,522 427,514 413,505 400,495 388,483 377,470 368,456 361,441 356,425 352,408 351,390 355,362 366,337 383,315 405,297 429,286 455,281 482,285 507,299 527,324 530,349 520,372 502,390 480,399 458,396 439,379 429,344 427,333 423,325 417,321 411,319 405,321 398,325 392,331 386,340 374,372 371,402 377,428 389,452 408,473 432,490 459,503 489,513 519,518 550,519 579,516 606,508 628,494 646,476 658,452 662,423 661,423 661,423 656,395 645,368 629,343 613,318 598,293 590,267 590,239 601,209 607,200 614,193 621,189 629,186 637,185 646,185 656,185 667,185 678,188 688,195 696,205 705,218 713,231 721,242 731,252 742,258 744,240 743,223 739,205 732,187 724,170 713,153 700,136 687,121 672,106 656,92 639,80 622,69 605,60 589,52 572,46 557,42 544,40 525,38 502,36 477,35 453,36 432,38 418,44 413,54 415,58 422,62 431,65 442,69 452,74 461,81 468,91 470,103 468,124 463,141 455,155 445,164 433,170 421,173 408,173 395,171 384,165 373,158 365,149 359,137 356,125 358,111 363,96 374,80 378,74 382,69 385,63 386,57 386,52 382,48 376,46 367,45 352,46 333,51 311,57 286,66 260,77 233,89 206,103 179,118 153,135 129,151 107,169 89,186 75,203 65,220 61,236 63,252 77,255 92,258 106,261 120,264 135,267 149,271 163,275 177,280 207,298 233,323 254,355 270,391 279,428 280,465 271,499 251,529 238,520 243,506 242,494 238,485 231,477 221,470 210,464 199,457 188,451 170,435 156,415 142,393 130,369 118,346 105,325 90,306 73,293 90,337 104,383 113,430 118,479 118,527 115,576 108,623 97,669 92,687 91,703 92,716 97,727 105,737 116,746 131,755 149,764 174,773 194,777 210,776 223,771 234,762 242,750 248,735 254,719 259,701 263,683 269,665 275,647 283,630 293,614 306,601 322,591 331,587 341,584 352,580 364,578 376,576 389,574 403,573 417,572 416,605 413,641 407,676 396,705 407,698 418,691 428,682 439,673 449,664 460,654 470,645 481,637 492,630 504,625 516,620 529,618 542,618 556,621 571,626 586,635 611,657 627,684 633,712 630,740 618,765 599,786 572,800 539,805 538,789 560,782 579,769 593,754 603,736 606,719 602,703 591,691 571,684 537,681 512,685 495,694 482,707 472,724 461,743 447,763 428,783 406,800 383,814 361,824 338,831 315,836 292,837 269,836 246,833 223,827 201,819 179,809 157,797 136,783 116,768 96,751 77,733 65,754 64,773 73,791 88,807 108,821 130,834 151,846 171,856 202,871 233,884 264,895 295,903 326,910 357,914 387,917 417,917 446,916 475,913 503,908 531,901 558,892 584,882 609,870 634,856 657,841 679,824 701,806 721,786 740,765 757,742 773,718 788,693 801,666 813,638 823,609 832,579 838,547 843,514 846,481 847,446 846,432 843,412 841,389 839,365 839,344 843,327 851,316 865,315 876,351 895,378 918,399 944,416 969,433 990,450 1004,472 1010,500 983,483 964,470 947,459 932,449 920,442 910,436 902,431 896,429 892,428 892,439 893,450 893,460 894,471 909,480 924,487 936,495 948,501 958,507 966,511 973,516 979,519 972,543 960,535 948,527 937,520 927,514 916,507 907,502 898,496 890,491 888,499 887,507 886,516 885,524 890,527 897,532 905,537 914,543 925,551 938,559 952,568 967,578 962,604 956,599 946,592 933,582 920,572 906,562 894,554 886,548 881,546 881,546 874,583 885,590 896,597 907,603 917,610 926,616 935,622 943,627 951,632 944,658 935,650 927,642 918,635 909,628 900,622 891,616 881,610 871,604 870,612 869,619 867,627 864,635 864,635 869,638 876,643 885,650 895,657 905,665 915,672 925,679 932,684 921,704 850,657 848,662 846,669 842,678 838,690 847,695 856,700 865,705 874,711 882,717 890,723 898,730 906,737 892,752 884,745 876,738 868,731 860,725 852,719 844,714 836,709 828,704 823,711 819,718 816,724 813,729 821,736 829,743 836,750 844,756 851,762 859,768 866,774 873,780 858,795 848,786 838,777 829,770 821,763 814,757 808,752 803,747 799,744 796,750 792,756 787,763 781,770 837,817 822,829 815,824 808,818 801,812 794,807 786,801 779,796 771,792 764,788 759,792 754,796 750,802 747,807 750,810 757,816 764,823 773,830 781,838 788,844 793,849 795,851 773,863 766,856 759,849 753,843 747,838 742,833 738,829 734,826 730,823 724,827 718,832 712,836 707,841 711,847 715,852 720,857 724,861 729,865 733,870 738,874 743,879 718,891 713,886 707,880 702,875 698,871 694,866 690,862 686,859 683,855 676,859 669,863 661,868 654,872 686,907 666,916 659,909 653,901 648,891 644,883 638,885 629,889 621,894 616,896 616,896 621,903 627,910 632,918 637,925 614,930 609,923 604,916 598,910 593,902 593,902 593,902 566,914 577,938 582,938 588,937 593,936 597,935 602,934 606,933 610,931 614,930 637,925"/>
</g>
</svg>
