<?xml version="1.0" encoding="UTF-8" standalone="no"?>
<!DOCTYPE svg PUBLIC "-//W3C//DTD SVG 1.0//EN" "http://www.w3.org/TR/2001/REC-SVG-20010904/DTD/svg10.dtd">
<svg xmlns="http://www.w3.org/2000/svg" xmlns:xlink="http://www.w3.org/1999/xlink" fill-rule="evenodd" height="0.537in" preserveAspectRatio="none" stroke-linecap="round" viewBox="0 0 537 537" width="0.537in">
<style type="text/css">
.brush0 { fill: rgb(255,255,255); }
.pen0 { stroke: rgb(0,0,0); stroke-width: 1; stroke-linejoin: round; }
.brush1 { fill: none; }
.pen1 { stroke: none; }
.brush2 { fill: rgb(0,0,0); }
</style>
<g>
<polygon class="pen1 brush2" points="448,415 441,407 433,396 426,385 420,375 414,367 407,358 400,350 394,344 390,336 386,325 383,313 380,304 379,298 380,292 383,287 388,283 392,282 396,279 400,277 405,274 409,271 413,268 416,265 419,263 424,258 429,252 434,247 439,244 444,241 450,237 455,232 459,227 462,223 467,218 472,214 477,210 482,205 488,199 495,193 501,189 497,198 493,203 489,205 487,208 484,213 479,221 474,228 469,231 464,236 457,249 449,263 443,273 442,281 437,288 430,294 422,300 426,304 428,309 430,314 433,319 438,325 444,334 451,346 458,359 464,371 469,383 472,394 474,402 475,408 477,415 479,423 482,431 494,414 505,395 514,376 522,356 529,336 533,314 536,292 537,269 536,242 532,215 525,189 516,165 504,141 491,119 475,98 458,79 439,62 418,46 396,33 373,21 348,12 323,5 296,1 269,0 268,0 267,0 265,1 264,1 267,7 269,13 272,19 274,23 278,28 282,36 287,44 290,50 292,56 295,62 298,69 302,73 306,78 311,84 314,91 316,97 317,101 320,106 322,110 326,114 329,119 332,125 333,130 335,134 337,139 341,145 345,152 349,157 352,157 356,157 360,157 365,156 369,155 373,155 377,155 380,155 382,153 385,152 390,151 395,150 400,150 405,150 411,151 416,152 420,152 425,151 430,151 436,150 442,150 447,150 451,150 455,150 459,150 464,150 470,149 477,149 484,148 491,148 496,148 501,149 486,153 494,156 493,156 490,157 486,158 481,159 476,160 471,162 467,163 464,165 462,166 458,168 454,169 450,170 445,172 441,173 436,174 433,175 429,176 421,178 411,181 400,184 389,188 379,191 370,194 364,196 359,198 354,200 348,201 343,202 337,203 332,204 328,205 325,206 322,203 317,198 312,191 308,182 304,173 301,163 297,153 294,143 289,132 283,119 277,107 273,99 270,91 266,79 262,68 260,60 257,54 253,45 247,36 242,26 240,30 238,34 235,37 234,41 233,46 233,53 232,61 231,67 230,73 228,81 227,88 225,95 223,105 220,119 218,133 216,143 215,134 216,122 217,111 219,104 220,96 220,82 220,68 220,58 220,49 221,38 222,30 222,26 224,38 225,31 225,21 225,11 225,6 225,6 225,5 225,5 225,4 204,8 184,14 165,22 146,30 128,40 111,52 95,64 80,78 66,93 54,109 42,125 32,143 23,161 15,181 9,200 4,221 11,219 19,218 26,217 34,216 42,215 48,214 54,214 59,213 64,212 70,212 76,211 82,210 88,210 94,209 99,209 103,208 106,208 110,208 114,208 118,208 122,209 127,209 132,209 137,208 143,208 149,208 155,208 162,209 168,209 173,210 178,210 181,210 177,213 173,216 169,219 165,222 160,224 156,226 152,228 149,228 145,228 141,230 136,232 131,234 126,237 122,240 118,243 116,245 120,249 115,251 109,252 101,252 92,252 84,252 76,252 69,252 64,252 67,255 68,257 68,260 66,261 69,263 73,266 77,269 82,273 87,277 92,281 96,285 99,287 105,289 113,293 121,298 127,303 133,307 138,311 144,314 149,316 145,315 141,313 136,311 131,308 127,306 123,305 119,303 116,303 113,302 108,301 103,299 98,297 92,295 88,293 84,291 82,290 79,289 75,287 70,286 63,284 57,283 51,281 45,279 41,277 37,275 33,273 27,271 22,269 16,268 11,266 6,265 2,263 1,262 1,262 1,262 0,261 0,263 0,265 0,267 0,269 3,308 11,345 24,380 42,412 63,442 89,469 118,491 150,510 152,500 154,491 156,484 158,479 160,470 160,460 162,450 165,443 168,435 169,426 170,417 173,410 176,402 180,391 183,381 186,375 189,390 190,405 191,418 190,430 190,442 191,456 193,470 194,482 201,474 206,467 211,460 216,455 219,450 223,446 226,444 229,442 234,439 240,435 246,431 251,426 254,423 257,420 261,418 265,415 269,413 274,410 278,408 282,405 290,399 297,392 302,385 307,380 308,381 311,382 316,385 321,390 324,393 329,396 335,399 341,402 348,405 354,407 360,409 365,410 370,411 375,414 381,417 387,421 394,425 400,429 406,433 412,436 421,441 427,444 429,447 429,450 425,448 419,446 413,444 405,441 398,438 392,436 386,434 383,433 380,432 376,431 372,430 367,429 362,427 357,425 354,422 351,419 348,419 343,417 337,415 331,413 324,411 318,409 313,407 311,406 307,413 302,419 297,424 292,430 287,435 282,440 279,445 276,450 273,456 270,462 265,469 260,475 254,482 248,488 242,493 236,497 226,505 218,514 212,522 207,527 206,528 206,528 206,529 205,529 213,531 220,532 228,534 236,535 244,536 253,536 261,537 269,537 284,537 299,535 314,533 328,530 342,527 356,522 369,517 383,511 395,505 408,498 420,490 431,482 442,473 453,463 463,453 472,443 466,436 460,429 454,421 448,415"/>
</g>
</svg>
