<?xml version="1.0" encoding="UTF-8" standalone="no"?>
<!DOCTYPE svg PUBLIC "-//W3C//DTD SVG 1.0//EN" "http://www.w3.org/TR/2001/REC-SVG-20010904/DTD/svg10.dtd">
<svg xmlns="http://www.w3.org/2000/svg" xmlns:xlink="http://www.w3.org/1999/xlink" fill-rule="evenodd" height="1.0in" preserveAspectRatio="none" stroke-linecap="round" viewBox="0 0 852 1000" width="0.852in">
<style type="text/css">
.brush0 { fill: rgb(255,255,255); }
.pen0 { stroke: rgb(0,0,0); stroke-width: 1; stroke-linejoin: round; }
.brush1 { fill: none; }
.pen1 { stroke: none; }
.brush2 { fill: rgb(0,0,0); }
</style>
<g>
<polygon class="pen1 brush2" points="268,937 263,922 262,908 264,895 270,884 278,875 289,868 302,864 318,862 283,839 254,813 231,786 213,758 200,728 191,698 186,669 185,640 186,613 189,587 193,563 199,542 205,525 211,511 216,502 220,497 215,501 205,504 192,507 178,507 162,505 148,498 135,487 125,469 125,476 124,484 123,492 121,501 117,509 111,518 103,526 92,534 94,534 102,535 115,538 130,542 145,549 159,559 170,572 176,589 177,602 178,615 177,629 174,641 168,654 158,664 145,673 126,679 113,680 101,678 90,674 79,667 70,659 62,649 55,638 50,626 46,613 45,600 45,587 48,574 53,562 61,552 71,542 85,535 64,533 46,528 31,521 19,512 11,501 5,489 1,477 0,464 1,452 3,441 7,431 12,421 19,413 26,406 35,401 44,399 34,388 26,377 19,366 15,356 13,346 12,336 12,327 14,318 130,318 131,331 129,344 125,357 119,368 111,379 101,388 91,394 79,398 85,400 91,404 97,408 103,413 108,418 113,423 118,428 121,432 123,423 129,413 138,402 150,393 165,388 182,387 201,394 221,409 223,407 222,403 221,396 220,387 221,376 224,363 231,350 244,335 222,340 204,339 188,333 176,323 167,309 161,294 160,279 162,264 160,269 156,274 150,278 144,282 137,286 129,288 122,290 115,290 121,296 125,303 128,311 130,318 14,318 15,315 16,312 18,309 20,305 24,298 30,291 35,286 42,281 49,277 56,273 63,270 71,268 62,242 60,218 65,200 75,186 83,181 91,177 100,174 109,173 118,173 127,173 135,175 142,176 149,179 156,183 162,189 167,195 172,201 175,208 177,216 179,223 192,216 205,211 217,209 230,210 241,212 252,217 262,224 270,233 279,249 284,268 283,290 275,315 285,315 295,316 304,319 314,323 322,328 330,334 338,341 344,348 347,354 350,360 353,367 355,373 260,444 253,442 247,438 241,434 236,429 239,441 241,454 240,467 236,476 239,472 243,468 248,463 253,458 260,454 268,451 277,449 288,449 280,448 273,447 266,446 260,444 355,373 356,382 356,391 354,400 351,408 346,417 340,425 332,433 321,440 338,442 357,446 377,449 397,451 416,451 434,448 448,440 459,427 462,414 460,401 454,386 445,370 433,354 420,336 407,318 394,299 382,279 373,258 368,236 366,214 370,191 380,167 398,143 423,118 433,110 443,103 453,97 463,93 474,90 485,88 497,87 509,87 521,89 534,91 548,94 561,99 576,104 591,110 606,117 622,125 620,110 621,96 626,83 634,72 645,64 659,60 675,61 693,67 691,51 693,38 698,27 706,17 716,10 727,6 738,3 750,3 762,5 773,9 782,15 790,24 795,35 797,48 796,63 790,81 804,84 816,90 826,98 834,109 841,120 845,133 846,146 845,159 721,159 721,151 721,141 723,131 726,119 719,134 712,147 703,157 693,164 682,168 670,169 658,166 645,160 652,174 659,188 665,202 671,217 677,232 682,247 688,263 693,278 689,256 691,237 698,223 709,213 723,206 737,203 751,203 764,206 758,203 751,200 745,196 738,190 733,184 728,177 724,169 721,159 845,159 845,161 845,162 845,164 845,166 842,174 837,181 831,188 824,194 815,200 805,204 793,208 780,210 786,214 792,221 797,231 800,243 802,257 802,271 800,285 795,298 790,306 784,313 776,319 766,323 755,325 742,326 727,324 710,319 722,368 733,415 740,461 745,505 747,547 745,587 740,625 731,661 717,695 699,726 675,755 647,782 613,806 574,827 528,846 476,862 482,865 489,869 497,875 504,883 406,883 410,878 414,874 419,871 425,869 412,873 400,874 389,875 380,874 372,872 367,870 364,869 363,868 369,872 373,875 377,879 381,882 384,887 388,894 393,902 398,912 397,904 399,896 401,890 405,883 504,883 513,897 519,912 520,929 514,947 510,955 506,962 501,968 496,973 491,978 486,981 480,985 474,987 460,990 446,989 433,984 421,977 411,967 404,955 400,941 399,926 397,940 392,953 386,964 379,973 370,980 360,985 349,988 338,989 328,988 318,986 308,982 298,976 289,968 281,959 274,949 268,937"/>
</g>
</svg>
