<?xml version="1.0" encoding="UTF-8" standalone="no"?>
<!DOCTYPE svg PUBLIC "-//W3C//DTD SVG 1.0//EN" "http://www.w3.org/TR/2001/REC-SVG-20010904/DTD/svg10.dtd">
<svg xmlns="http://www.w3.org/2000/svg" xmlns:xlink="http://www.w3.org/1999/xlink" fill-rule="evenodd" height="0.742in" preserveAspectRatio="none" stroke-linecap="round" viewBox="0 0 790 742" width="0.79in">
<style type="text/css">
.brush0 { fill: rgb(255,255,255); }
.pen0 { stroke: rgb(0,0,0); stroke-width: 1; stroke-linejoin: round; }
.brush1 { fill: none; }
.pen1 { stroke: none; }
.brush2 { fill: rgb(0,0,0); }
</style>
<g>
<polygon class="pen1 brush2" points="129,371 130,353 132,335 136,317 142,300 150,283 158,266 169,250 180,234 193,218 208,203 224,188 241,173 259,159 278,146 299,132 321,120 344,108 367,96 392,85 418,75 445,65 473,56 501,47 531,39 561,32 592,25 623,20 655,14 688,10 722,7 756,4 790,2 782,2 774,1 766,1 758,1 750,0 742,0 734,0 726,0 689,0 652,2 616,4 580,8 545,12 510,17 477,23 444,29 412,37 380,45 350,54 321,63 292,74 265,85 238,96 213,109 189,122 166,135 145,149 124,164 105,179 88,194 72,210 57,227 44,243 33,261 23,278 15,296 8,314 4,333 1,352 0,371 1,390 4,409 8,427 15,446 23,463 33,481 44,498 57,515 72,531 88,547 105,563 124,578 145,593 166,607 189,620 213,633 238,645 265,657 292,668 321,678 350,688 380,697 412,705 444,713 477,719 510,725 545,730 580,734 616,738 652,740 689,742 726,742 734,742 742,742 750,742 758,741 766,741 774,741 782,740 790,740 756,738 722,735 688,732 655,727 623,722 592,716 561,710 531,702 501,694 473,686 445,677 418,667 392,656 367,645 344,634 321,621 299,609 278,596 259,582 241,568 224,554 208,539 193,523 180,508 169,492 158,475 150,459 142,442 136,424 132,407 130,389 129,371"/>
<polygon class="pen1 brush2" points="414,427 430,425 444,421 458,414 470,404 479,392 487,379 491,364 493,348 491,332 487,317 479,303 470,291 458,282 444,274 430,270 414,268 398,270 383,274 370,282 358,291 348,303 341,317 337,332 335,348 337,364 341,379 348,392 358,404 370,414 383,421 398,425 414,427"/>
</g>
</svg>
