<?xml version="1.0" encoding="UTF-8" standalone="no"?>
<!DOCTYPE svg PUBLIC "-//W3C//DTD SVG 1.0//EN" "http://www.w3.org/TR/2001/REC-SVG-20010904/DTD/svg10.dtd">
<svg xmlns="http://www.w3.org/2000/svg" xmlns:xlink="http://www.w3.org/1999/xlink" fill-rule="evenodd" height="0.562in" preserveAspectRatio="none" stroke-linecap="round" viewBox="0 0 563 562" width="0.563in">
<style type="text/css">
.brush0 { fill: rgb(255,255,255); }
.pen0 { stroke: rgb(0,0,0); stroke-width: 1; stroke-linejoin: round; }
.brush1 { fill: none; }
.pen1 { stroke: none; }
.brush2 { fill: rgb(0,0,0); }
</style>
<g>
<polygon class="pen1 brush2" points="563,293 563,263 539,258 536,234 557,219 549,191 523,191 513,167 530,150 516,124 491,131 476,112 487,90 465,69 443,81 422,66 430,42 404,28 385,46 363,38 362,11 335,5 322,27 298,24 291,0 262,1 254,25 231,29 219,6 191,14 190,39 172,48 153,30 127,44 133,70 115,83 90,73 71,93 83,114 69,134 43,129 30,151 47,171 39,193 13,193 4,223 27,236 25,261 0,267 0,296 26,304 31,328 8,341 16,368 41,369 51,390 34,409 49,434 74,428 88,446 74,468 94,489 117,477 134,489 128,514 152,529 172,512 192,521 196,547 223,555 235,533 259,536 268,562 293,562 302,537 325,534 338,555 367,549 368,523 390,512 408,531 437,513 429,489 432,487 439,482 446,477 449,474 472,486 493,465 481,443 495,425 520,429 535,404 515,388 525,367 550,367 558,338 536,325 539,301 563,293"/>
<polygon class="pen1 brush2" points="552,341 547,361 519,361 517,365 514,375 510,384 507,389 528,406 519,422 491,417 473,442 486,466 472,479 449,467 445,470 435,477 425,483 420,487 429,511 410,522 393,504 392,505 388,506 383,508 378,511 372,514 367,516 363,517 361,518 361,545 343,550 329,526 328,526 324,527 319,528 313,528 307,529 301,530 297,530 295,530 288,557 285,557 280,557 274,557 271,556 270,552 267,543 264,535 263,531 262,531 258,530 253,529 248,528 242,527 237,526 234,526 232,525 219,549 202,544 198,516 171,503 150,522 136,514 142,486 119,470 95,482 81,469 96,446 93,443 87,435 80,426 77,421 50,426 41,411 60,393 58,389 54,379 49,369 47,363 19,361 15,344 37,330 36,325 35,315 33,304 33,298 7,289 6,273 31,266 31,261 32,250 34,238 35,232 11,219 15,201 43,201 45,196 49,185 54,174 56,168 37,149 38,147 41,142 43,137 45,135 50,136 59,137 68,139 72,140 75,136 82,128 88,119 92,115 78,93 90,80 117,90 141,73 135,46 149,38 170,56 196,45 197,17 215,12 228,36 229,36 232,35 237,34 242,34 248,33 253,32 257,32 259,32 267,5 285,5 292,31 293,31 297,31 302,32 307,32 313,33 318,33 322,34 324,34 340,12 356,16 357,42 358,42 362,44 366,46 372,48 377,50 382,52 385,53 387,54 408,36 422,44 415,69 419,72 428,78 438,85 443,90 467,77 479,89 468,114 471,117 477,124 484,133 487,138 514,132 524,148 505,166 507,171 512,182 517,193 519,198 545,197 551,217 528,232 529,237 530,247 532,257 532,262 558,268 558,286 532,297 532,302 531,312 530,322 529,328 552,341"/>
<polygon class="pen1 brush0" points="281,48 292,48 304,49 315,51 326,52 337,55 348,58 359,61 369,65 380,70 390,75 400,81 409,87 419,93 428,100 437,108 445,116 461,133 474,151 486,171 496,191 503,212 509,234 512,257 513,280 512,304 508,327 503,349 495,370 485,391 473,410 460,428 445,444 429,459 411,472 392,484 371,494 350,502 328,507 305,511 281,512 281,48"/>
<polygon class="pen1 brush0" points="281,486 260,485 239,482 220,477 201,470 183,461 166,451 150,439 135,425 122,411 110,395 100,378 91,360 84,341 79,321 76,301 75,280 76,259 79,238 84,219 91,200 100,182 110,165 122,149 135,134 150,121 166,109 183,99 201,90 220,83 239,78 260,75 281,74 302,75 322,78 342,83 361,90 379,99 396,109 412,121 426,134 440,149 452,165 462,182 471,200 478,219 483,238 486,259 487,280 486,301 483,321 478,341 471,360 462,378 452,395 440,411 426,425 412,439 396,451 379,461 361,470 342,477 322,482 302,485 281,486"/>
<polygon class="pen1 brush2" points="487,280 486,259 483,238 478,219 471,200 462,182 452,165 440,149 426,134 412,121 396,109 379,99 361,90 342,83 322,78 302,75 281,74 281,486 302,485 322,482 342,477 361,470 379,461 396,451 412,439 426,425 440,411 452,395 462,378 471,360 478,341 483,321 486,301 487,280"/>
<polygon class="pen1 brush2" points="422,285 422,273 413,271 411,261 420,255 417,244 406,244 402,235 409,228 403,218 393,220 388,213 392,204 383,196 374,200 366,194 369,185 359,179 351,186 342,183 342,172 331,170 326,179 317,178 314,168 302,168 299,178 290,179 285,170 274,173 274,184 266,187 259,180 249,186 251,196 244,201 234,197 226,205 231,214 225,222 215,219 210,228 217,236 213,245 203,245 199,257 208,262 208,272 198,275 198,286 208,290 210,299 201,304 204,315 214,316 218,325 211,332 217,342 227,340 233,347 227,356 235,364 245,359 251,364 249,374 259,380 266,373 275,377 276,386 287,389 292,382 301,383 305,392 315,392 318,383 327,382 332,390 344,387 344,377 353,373 360,381 372,374 369,364 370,363 373,361 376,359 377,358 386,363 394,354 389,345 395,338 405,340 411,330 403,324 407,315 417,315 420,303 411,298 413,288 422,285"/>
<polygon class="pen1 brush2" points="418,304 416,312 405,312 404,314 403,318 401,322 400,324 408,331 405,337 393,335 386,345 391,355 386,360 377,355 375,356 371,359 367,362 365,363 369,373 361,377 354,370 352,371 348,373 343,375 341,375 342,385 334,387 329,379 327,379 323,380 318,380 316,380 313,390 312,390 310,390 307,390 306,390 306,389 305,385 303,382 303,381 301,381 297,380 292,379 290,379 285,387 278,385 277,375 266,370 258,377 252,374 254,363 245,356 236,361 230,356 236,347 235,346 232,342 230,339 228,337 218,339 214,333 222,325 221,323 220,319 218,315 217,313 205,312 204,306 213,300 213,298 212,294 211,289 211,287 200,284 200,277 210,274 210,272 211,267 211,263 212,261 202,256 204,248 215,248 216,246 218,242 219,237 220,235 212,228 212,227 214,225 215,223 216,222 218,222 222,223 225,224 227,224 228,222 231,219 233,216 234,214 229,205 234,200 244,204 254,197 252,186 257,183 266,190 276,186 276,175 284,173 289,182 291,182 295,181 299,181 301,181 305,170 312,170 315,180 317,180 321,181 325,181 327,182 333,173 339,174 340,185 342,186 346,187 350,189 352,190 360,182 366,186 363,196 365,197 369,200 372,202 374,204 384,199 389,204 384,213 385,214 388,217 390,221 392,223 403,221 407,227 399,235 400,237 402,241 404,245 405,247 415,247 417,255 408,261 408,263 409,267 410,271 410,273 420,275 420,282 410,287 410,289 410,293 409,297 409,299 418,304"/>
<polygon class="pen1 brush0" points="290,379 292,379 297,380 301,381 303,381 303,382 305,385 306,389 306,390 307,390 310,390 312,390 313,390 316,380 318,380 323,380 327,379 329,379 334,387 342,385 341,375 343,375 348,373 352,371 354,370 361,377 369,373 365,363 367,362 371,359 375,356 377,355 386,360 391,355 386,345 393,335 405,337 408,331 400,324 401,322 403,318 404,314 405,312 416,312 418,304 409,299 409,297 410,293 410,289 410,287 420,282 420,275 410,273 410,271 409,267 408,263 408,261 417,255 415,247 405,247 404,245 402,241 400,237 399,235 407,227 403,221 392,223 390,221 388,217 385,214 384,213 389,204 384,199 374,204 372,202 369,200 365,197 363,196 366,186 360,182 352,190 350,189 346,187 342,186 340,185 339,174 333,173 327,182 325,181 321,181 317,180 315,180 312,170 305,170 301,181 299,181 295,181 291,182 289,182 284,173 281,173 281,386 285,387 290,379"/>
</g>
</svg>
