<?xml version="1.0" encoding="UTF-8" standalone="no"?>
<!DOCTYPE svg PUBLIC "-//W3C//DTD SVG 1.0//EN" "http://www.w3.org/TR/2001/REC-SVG-20010904/DTD/svg10.dtd">
<svg xmlns="http://www.w3.org/2000/svg" xmlns:xlink="http://www.w3.org/1999/xlink" fill-rule="evenodd" height="0.506in" preserveAspectRatio="none" stroke-linecap="round" viewBox="0 0 559 506" width="0.559in">
<style type="text/css">
.brush0 { fill: rgb(255,255,255); }
.pen0 { stroke: rgb(0,0,0); stroke-width: 1; stroke-linejoin: round; }
.brush1 { fill: none; }
.pen1 { stroke: none; }
.brush2 { fill: rgb(0,0,0); }
</style>
<g>
<polygon class="pen1 brush2" points="442,0 460,17 475,37 489,57 500,79 510,103 516,128 521,153 522,180 520,210 515,239 506,267 494,294 479,318 461,340 441,361 418,378 433,364 446,348 457,330 467,311 475,292 480,271 484,249 485,227 484,203 480,180 473,158 465,137 454,117 441,99 426,82 409,67 419,79 427,92 434,105 441,119 446,134 449,149 451,165 452,181 451,201 447,220 442,239 434,257 425,273 414,289 401,303 387,316 394,307 400,297 406,286 411,275 414,264 417,252 418,240 419,227 418,210 415,193 410,177 403,162 394,147 384,134 372,122 359,112 369,126 376,142 380,159 382,177 380,198 374,217 364,235 352,250 337,262 320,272 300,278 280,280 259,278 240,272 222,262 207,250 195,235 185,217 179,198 177,177 178,159 183,142 190,126 200,112 187,122 175,134 165,147 157,162 149,177 144,193 141,210 140,227 141,240 142,252 145,264 149,275 153,286 159,297 165,307 172,316 158,303 145,289 134,273 125,257 117,239 112,220 108,201 107,181 108,165 110,149 113,134 118,119 124,105 131,92 140,79 149,67 133,82 118,99 105,117 94,137 86,158 79,180 75,203 74,227 75,249 79,271 84,292 92,311 102,330 113,348 126,364 141,378 118,361 98,340 80,318 65,294 53,267 44,239 39,210 37,180 38,153 42,128 49,103 58,79 69,57 83,37 99,17 116,0 91,21 68,44 49,69 32,97 18,127 8,159 2,192 0,227 1,256 6,283 13,310 22,336 34,360 48,383 64,404 82,424 102,442 123,458 146,472 171,484 197,493 223,500 251,505 280,506 308,505 336,500 363,493 388,484 413,472 436,458 457,442 477,424 495,404 511,383 525,360 537,336 546,310 553,283 558,256 559,227 557,192 551,159 541,127 527,97 510,69 490,44 467,21 442,0"/>
</g>
</svg>
