<?xml version="1.0" encoding="UTF-8" standalone="no"?>
<!DOCTYPE svg PUBLIC "-//W3C//DTD SVG 1.0//EN" "http://www.w3.org/TR/2001/REC-SVG-20010904/DTD/svg10.dtd">
<svg xmlns="http://www.w3.org/2000/svg" xmlns:xlink="http://www.w3.org/1999/xlink" fill-rule="evenodd" height="0.993in" preserveAspectRatio="none" stroke-linecap="round" viewBox="0 0 402 993" width="0.402in">
<style type="text/css">
.brush0 { fill: rgb(255,255,255); }
.pen0 { stroke: rgb(0,0,0); stroke-width: 1; stroke-linejoin: round; }
.brush1 { fill: none; }
.pen1 { stroke: none; }
.brush2 { fill: rgb(0,0,0); }
</style>
<g>
<polygon class="pen1 brush2" points="180,987 187,959 200,932 218,906 240,880 263,854 286,829 307,804 325,778 338,756 345,733 346,710 339,686 332,672 323,659 312,647 300,636 287,625 273,615 258,605 243,595 227,585 211,576 196,566 181,555 167,544 154,533 142,520 131,507 115,482 106,461 103,443 106,428 115,415 127,403 144,393 164,382 187,371 211,360 237,347 264,331 291,313 317,292 343,267 366,237 382,209 388,182 384,157 373,134 360,118 344,102 325,88 304,75 281,64 257,53 232,43 206,35 181,28 156,22 132,17 109,13 88,10 70,9 54,9 42,10 61,14 81,19 101,25 122,32 142,40 161,49 179,60 196,72 210,85 223,100 233,117 240,135 244,156 245,178 241,203 233,230 224,250 211,269 197,286 180,301 163,315 144,329 126,342 109,355 92,368 78,381 66,395 56,410 51,426 49,443 52,462 61,483 72,502 84,521 97,541 111,563 124,585 138,610 151,636 162,664 171,695 178,728 183,763 184,802 181,844 174,889 162,937 145,990 110,988 85,987 68,988 57,988 49,989 42,989 34,989 21,987 27,0 402,6 399,250 393,494 388,739 388,987 377,987 365,987 352,986 338,986 325,986 310,986 296,985 281,985 267,985 253,985 239,985 226,985 213,985 201,986 190,986 180,987"/>
</g>
</svg>
