<?xml version="1.0" encoding="UTF-8" standalone="no"?>
<!DOCTYPE svg PUBLIC "-//W3C//DTD SVG 1.0//EN" "http://www.w3.org/TR/2001/REC-SVG-20010904/DTD/svg10.dtd">
<svg xmlns="http://www.w3.org/2000/svg" xmlns:xlink="http://www.w3.org/1999/xlink" fill-rule="evenodd" height="0.845in" preserveAspectRatio="none" stroke-linecap="round" viewBox="0 0 999 845" width="0.999in">
<style type="text/css">
.brush0 { fill: rgb(255,255,255); }
.pen0 { stroke: rgb(0,0,0); stroke-width: 1; stroke-linejoin: round; }
.brush1 { fill: none; }
.pen1 { stroke: none; }
.brush2 { fill: rgb(0,0,0); }
</style>
<g>
<polygon class="pen1 brush2" points="999,845 972,831 944,818 916,805 887,792 859,780 829,768 799,756 769,744 739,733 708,722 677,712 646,702 614,693 582,683 550,675 518,667 486,659 454,652 421,645 389,639 356,633 323,628 291,624 258,620 225,617 193,614 160,612 128,611 96,610 64,610 32,611 0,612 8,600 18,590 28,581 38,572 50,565 62,559 75,554 88,549 102,545 116,542 131,540 146,538 161,537 177,537 193,537 209,537 240,539 275,544 313,552 352,561 394,571 436,583 478,596 519,608 559,621 597,634 631,645 662,655 689,664 711,671 727,675 736,677 718,667 699,657 679,647 659,637 639,627 618,617 597,607 575,598 554,588 532,579 509,569 487,560 464,551 442,543 419,534 396,526 373,518 351,511 328,504 305,497 283,490 261,484 239,478 217,473 196,468 174,464 154,460 133,457 114,454 94,452 75,450 57,449 62,443 68,437 76,431 85,424 96,417 107,410 120,404 134,397 148,392 162,387 178,382 193,379 209,376 224,375 240,375 255,376 281,380 307,385 332,391 357,398 381,406 405,414 428,424 451,434 473,445 496,456 517,468 539,480 560,493 581,506 601,520 621,534 641,548 661,562 680,576 699,591 718,605 737,619 756,633 774,647 792,661 810,675 828,688 846,701 864,713 882,725 899,736 917,747 913,738 906,727 896,715 884,701 868,685 851,668 831,651 809,632 785,612 759,591 732,570 703,548 673,526 643,503 611,480 579,457 546,435 513,412 480,390 446,368 413,346 381,325 348,305 317,286 287,268 257,251 229,236 202,221 177,208 154,197 132,188 113,180 122,171 132,163 143,156 155,150 168,145 182,141 196,137 210,135 225,134 240,133 255,134 270,135 284,137 299,140 313,144 326,149 347,159 373,175 404,197 438,223 475,253 515,286 555,321 596,357 637,394 676,430 713,465 747,498 778,528 804,554 825,575 840,591 828,562 807,528 780,490 748,450 711,408 670,364 627,320 583,277 538,234 494,194 451,156 412,122 376,93 345,68 320,50 302,38 320,27 339,19 359,13 379,8 399,6 419,5 440,6 461,8 481,12 501,17 521,24 541,32 560,41 579,51 597,63 614,75 641,99 669,134 699,178 729,230 760,288 791,349 822,414 851,479 879,544 906,607 930,665 951,719 969,765 983,802 993,830 999,845"/>
</g>
</svg>
