<?xml version="1.0" encoding="UTF-8" standalone="no"?>
<!DOCTYPE svg PUBLIC "-//W3C//DTD SVG 1.0//EN" "http://www.w3.org/TR/2001/REC-SVG-20010904/DTD/svg10.dtd">
<svg xmlns="http://www.w3.org/2000/svg" xmlns:xlink="http://www.w3.org/1999/xlink" fill-rule="evenodd" height="0.799in" preserveAspectRatio="none" stroke-linecap="round" viewBox="0 0 978 799" width="0.978in">
<style type="text/css">
.brush0 { fill: rgb(255,255,255); }
.pen0 { stroke: rgb(0,0,0); stroke-width: 1; stroke-linejoin: round; }
.brush1 { fill: none; }
.pen1 { stroke: none; }
.brush2 { fill: rgb(0,0,0); }
</style>
<g>
<polygon class="pen1 brush2" points="978,422 974,450 959,443 943,436 926,430 910,423 893,417 875,412 858,407 841,402 823,399 805,397 787,395 770,395 752,395 735,397 718,401 701,406 745,433 777,466 796,504 803,545 798,585 780,623 750,656 708,682 660,698 614,703 570,698 529,686 488,667 450,644 413,617 376,588 341,559 307,532 273,507 239,486 206,472 172,464 138,466 104,478 72,503 52,537 43,576 46,616 59,653 82,684 115,704 158,709 189,709 209,714 218,723 217,733 209,744 194,754 174,760 150,763 115,759 85,747 59,730 38,706 21,679 10,649 2,617 0,584 1,556 5,529 12,502 20,475 31,448 44,422 59,396 76,371 94,347 114,323 135,301 158,279 182,258 207,239 234,220 261,203 288,187 316,173 345,160 374,149 404,139 433,131 463,125 492,121 521,119 550,119 578,122 605,126 632,133 658,143 683,154 707,169 734,192 753,218 764,246 768,274 763,303 751,330 731,354 702,375 720,370 738,367 755,366 773,365 791,366 808,368 825,370 843,374 860,378 877,383 894,389 911,395 928,401 945,408 961,415 978,422 978,422"/>
</g>
</svg>
