<?xml version="1.0" encoding="UTF-8" standalone="no"?>
<!DOCTYPE svg PUBLIC "-//W3C//DTD SVG 1.0//EN" "http://www.w3.org/TR/2001/REC-SVG-20010904/DTD/svg10.dtd">
<svg xmlns="http://www.w3.org/2000/svg" xmlns:xlink="http://www.w3.org/1999/xlink" fill-rule="evenodd" height="0.628in" preserveAspectRatio="none" stroke-linecap="round" viewBox="0 0 729 628" width="0.729in">
<style type="text/css">
.brush0 { fill: rgb(255,255,255); }
.pen0 { stroke: rgb(0,0,0); stroke-width: 1; stroke-linejoin: round; }
.brush1 { fill: none; }
.pen1 { stroke: none; }
.brush2 { fill: rgb(0,0,0); }
</style>
<g>
<polygon class="pen1 brush2" points="431,564 418,564 403,564 388,563 371,562 354,560 337,559 320,556 303,554 287,550 271,546 256,542 243,537 231,531 220,524 212,516 206,508 197,494 186,479 173,463 160,446 146,430 134,414 123,400 114,387 210,399 36,241 25,339 0,493 47,444 71,397 80,415 90,437 102,460 114,484 126,507 138,527 149,544 158,556 165,562 175,568 187,574 201,581 217,587 235,593 253,598 272,603 292,608 312,613 331,617 350,620 369,623 386,625 401,627 415,627 429,626 443,623 459,617 476,610 493,601 511,591 529,580 547,567 565,555 583,542 600,528 617,515 632,503 647,490 660,479 672,469 674,455 672,456 666,460 657,465 646,472 632,480 615,490 597,500 578,510 558,520 538,530 518,539 498,547 479,554 461,560 445,563 431,564"/>
<polygon class="pen1 brush2" points="689,140 670,189 660,172 648,152 634,130 621,109 607,88 593,70 581,55 571,45 563,40 553,35 541,31 527,27 511,23 493,19 475,16 456,13 436,11 417,9 398,8 379,7 361,6 345,6 329,7 316,8 303,11 289,15 274,22 258,31 241,42 225,53 208,66 191,79 174,94 158,108 142,123 127,137 113,151 99,164 88,176 77,187 84,204 86,203 90,199 97,193 107,185 119,176 132,166 147,155 163,143 180,131 197,120 214,109 231,99 248,91 264,84 279,79 292,76 305,74 320,73 336,72 353,70 370,69 388,69 406,68 424,69 441,70 458,71 473,73 488,77 501,81 512,86 521,92 528,99 538,111 550,124 564,138 579,152 594,166 608,179 620,192 630,203 526,202 721,334 721,239 729,87 689,140"/>
<polygon class="pen1 brush2" points="367,118 365,294 361,372 363,543 402,548 404,361 406,89 367,118"/>
<polygon class="pen1 brush2" points="151,288 304,275 436,278 654,303 650,354 500,334 342,326 137,325 151,288"/>
</g>
</svg>
