<?xml version="1.0" encoding="UTF-8" standalone="no"?>
<!DOCTYPE svg PUBLIC "-//W3C//DTD SVG 1.0//EN" "http://www.w3.org/TR/2001/REC-SVG-20010904/DTD/svg10.dtd">
<svg xmlns="http://www.w3.org/2000/svg" xmlns:xlink="http://www.w3.org/1999/xlink" fill-rule="evenodd" height="0.572in" preserveAspectRatio="none" stroke-linecap="round" viewBox="0 0 573 572" width="0.573in">
<style type="text/css">
.brush0 { fill: rgb(255,255,255); }
.pen0 { stroke: rgb(0,0,0); stroke-width: 1; stroke-linejoin: round; }
.brush1 { fill: none; }
.pen1 { stroke: none; }
.brush2 { fill: rgb(0,0,0); }
</style>
<g>
<polygon class="pen1 brush2" points="573,564 573,8 16,8 16,564 573,564"/>
<polygon class="pen1 brush0" points="446,286 445,311 442,336 436,360 429,383 420,405 409,426 397,447 383,466 367,483 350,500 332,515 312,528 292,540 270,550 247,559 224,565 232,567 239,568 247,569 255,570 263,571 271,572 279,572 287,572 316,571 344,566 372,559 398,550 423,537 446,523 469,507 489,488 507,468 524,446 538,422 550,397 560,371 567,344 572,315 573,286 572,257 567,228 560,201 550,175 538,150 524,126 507,104 489,84 469,65 446,49 423,35 398,22 372,13 344,6 316,1 287,0 279,0 271,0 263,1 255,2 247,3 239,4 232,5 224,7 247,13 270,21 292,31 312,43 332,57 350,72 367,88 383,106 397,125 409,145 420,167 429,189 436,212 442,236 445,261 446,286"/>
<polygon class="pen1 brush0" points="50,286 48,276 43,268 35,263 25,261 15,263 7,268 2,276 0,286 2,296 7,304 15,310 25,312 35,310 43,304 48,296 50,286"/>
<polygon class="pen1 brush0" points="68,377 66,372 63,369 59,366 55,363 50,362 45,361 40,362 35,363 27,369 21,377 20,386 22,395 24,400 27,403 31,406 36,409 40,410 45,411 50,410 55,409 63,404 68,396 70,387 68,377"/>
<polygon class="pen1 brush0" points="119,453 115,450 111,447 107,446 102,445 97,446 92,447 88,450 84,453 78,461 76,471 78,481 83,489 87,492 91,495 96,496 101,496 106,496 111,495 115,492 119,489 125,481 127,471 125,461 119,453"/>
<polygon class="pen1 brush0" points="196,505 191,504 186,503 181,504 177,505 172,508 168,511 165,514 163,519 161,528 162,538 168,546 176,552 181,553 186,554 191,553 196,552 200,549 204,546 207,543 209,538 211,528 210,519 204,511 196,505"/>
<polygon class="pen1 brush0" points="68,196 66,200 63,204 59,207 55,209 50,211 45,211 40,211 35,209 27,204 21,195 20,186 22,176 24,171 27,168 31,165 36,162 40,161 45,161 50,161 55,163 63,168 68,176 70,186 68,196"/>
<polygon class="pen1 brush0" points="119,118 115,121 111,124 107,125 102,126 97,125 92,124 88,122 84,119 78,111 76,101 78,91 83,83 87,80 91,77 96,76 101,75 106,76 111,77 115,80 119,83 125,91 127,101 125,110 119,118"/>
<polygon class="pen1 brush0" points="196,66 191,68 186,68 181,68 177,67 172,64 168,61 165,58 163,53 161,43 162,33 168,25 176,20 181,19 186,18 191,19 196,20 200,22 204,25 207,29 209,33 211,43 210,52 204,61 196,66"/>
</g>
</svg>
