<?xml version="1.0" encoding="UTF-8" standalone="no"?>
<!DOCTYPE svg PUBLIC "-//W3C//DTD SVG 1.0//EN" "http://www.w3.org/TR/2001/REC-SVG-20010904/DTD/svg10.dtd">
<svg xmlns="http://www.w3.org/2000/svg" xmlns:xlink="http://www.w3.org/1999/xlink" fill-rule="evenodd" height="0.797in" preserveAspectRatio="none" stroke-linecap="round" viewBox="0 0 1006 797" width="1.006in">
<style type="text/css">
.brush0 { fill: rgb(255,255,255); }
.pen0 { stroke: rgb(0,0,0); stroke-width: 1; stroke-linejoin: round; }
.brush1 { fill: none; }
.pen1 { stroke: none; }
.brush2 { fill: rgb(0,0,0); }
</style>
<g>
<polygon class="pen1 brush2" points="504,627 541,634 567,654 582,681 588,712 582,743 567,770 540,790 504,797 466,790 439,770 423,743 419,712 424,681 441,654 467,634 504,627 504,627"/>
<polygon class="pen1 brush2" points="616,456 653,463 679,482 695,509 700,540 695,572 679,599 653,618 616,625 579,618 552,599 536,572 531,540 536,509 552,482 579,463 616,456 616,456"/>
<polygon class="pen1 brush2" points="390,456 427,463 454,482 470,509 476,540 470,572 454,599 427,618 390,625 353,618 326,599 311,572 305,540 311,509 326,482 353,463 390,456 390,456"/>
<polygon class="pen1 brush2" points="387,102 381,129 380,153 383,175 392,195 406,212 424,225 447,236 474,243 457,262 445,282 437,301 434,321 435,341 441,362 452,382 466,403 451,403 437,403 425,404 413,407 402,411 391,417 380,426 369,436 362,423 354,411 345,401 337,393 327,386 317,380 307,376 297,373 286,372 275,372 263,374 252,377 241,382 229,387 217,394 206,403 213,385 218,367 219,351 218,335 215,320 209,307 201,295 192,285 181,277 169,271 156,267 142,266 127,268 112,272 97,279 81,290 91,263 94,238 91,216 83,196 69,181 50,169 27,162 0,159 14,139 23,120 30,101 33,82 33,62 30,42 25,22 18,0 31,14 44,26 58,36 72,44 86,51 100,55 115,57 129,58 143,57 158,54 172,49 186,43 201,35 215,26 228,15 242,2 239,19 238,34 240,49 244,62 249,74 257,85 266,95 276,103 288,109 301,114 314,117 328,118 343,117 357,114 372,109 387,102 387,102 387,102"/>
<polygon class="pen1 brush2" points="988,0 980,22 975,42 973,62 973,82 976,101 982,120 992,139 1006,159 980,162 957,169 938,182 923,198 914,217 911,240 914,264 925,290 909,279 894,272 879,268 864,266 850,267 837,271 825,277 814,285 805,295 797,307 792,321 788,335 787,351 788,368 791,385 798,403 787,394 776,387 764,381 753,376 742,373 730,372 719,372 708,373 698,376 688,380 678,386 668,393 659,401 651,412 643,423 636,436 624,426 613,418 603,412 592,407 581,405 569,403 556,403 541,403 555,382 565,362 570,341 572,321 569,301 562,282 550,262 533,243 561,236 583,225 601,211 614,194 622,174 626,152 624,128 618,102 633,109 648,114 663,117 677,118 691,117 705,114 718,109 729,103 740,95 748,85 756,74 762,62 765,49 767,34 766,19 763,2 777,15 791,26 805,36 819,44 833,50 846,55 860,57 874,58 888,58 902,55 916,51 930,44 944,36 958,26 973,14 988,0 988,0"/>
</g>
</svg>
