<?xml version="1.0" encoding="UTF-8" standalone="no"?>
<!DOCTYPE svg PUBLIC "-//W3C//DTD SVG 1.0//EN" "http://www.w3.org/TR/2001/REC-SVG-20010904/DTD/svg10.dtd">
<svg xmlns="http://www.w3.org/2000/svg" xmlns:xlink="http://www.w3.org/1999/xlink" fill-rule="evenodd" height="1.025in" preserveAspectRatio="none" stroke-linecap="round" viewBox="0 0 1081 1025" width="1.081in">
<style type="text/css">
.brush0 { fill: rgb(255,255,255); }
.pen0 { stroke: rgb(0,0,0); stroke-width: 1; stroke-linejoin: round; }
.brush1 { fill: none; }
.pen1 { stroke: none; }
.brush2 { fill: rgb(0,0,0); }
</style>
<g>
<polygon class="pen1 brush2" points="552,649 553,635 555,623 558,612 563,602 570,593 579,585 589,577 601,570 604,592 611,612 621,628 634,639 648,645 663,643 679,634 695,615 698,609 701,603 703,598 704,592 706,534 707,476 710,419 720,362 706,365 692,368 678,371 664,372 650,374 636,375 621,376 607,376 592,377 578,377 563,377 549,377 534,378 520,378 505,379 491,380 485,381 477,384 468,389 460,395 452,401 446,408 442,415 440,422 441,439 445,452 451,463 459,470 470,475 482,479 497,481 513,483 498,506 479,522 458,531 434,535 408,535 380,532 351,526 322,520 292,514 263,508 234,506 207,506 181,511 157,521 135,538 116,562 105,583 100,603 98,620 101,636 107,651 115,663 126,672 137,680 150,685 163,688 175,688 187,686 197,681 205,673 210,662 212,648 211,641 210,634 207,628 203,623 198,619 192,616 184,613 176,611 187,595 203,592 220,598 235,613 245,633 246,656 236,681 210,704 187,715 165,718 144,714 126,704 110,689 96,670 85,647 76,623 71,597 70,571 73,546 79,522 90,501 106,484 126,471 152,463 153,459 144,456 136,454 129,452 122,449 115,446 109,441 102,436 96,429 104,419 112,409 121,400 130,392 140,385 151,378 162,373 174,369 185,365 197,363 209,362 221,362 233,364 245,367 257,372 269,378 284,386 303,397 325,407 347,414 368,416 385,412 397,398 401,372 399,354 393,341 384,331 373,326 360,323 346,323 332,325 317,328 298,333 279,335 260,335 243,333 225,329 208,324 192,317 176,308 161,298 147,286 133,274 120,261 108,247 96,232 86,217 76,202 88,194 102,191 116,191 130,191 143,192 153,190 160,185 162,175 159,169 153,164 143,161 132,158 120,156 109,155 100,153 94,152 82,144 75,131 71,114 70,96 71,77 74,59 77,43 81,30 95,41 110,52 124,62 139,71 155,79 170,87 186,95 202,103 217,111 233,119 249,127 265,135 280,144 296,154 311,164 326,175 349,193 372,210 395,228 418,244 442,260 465,274 489,288 514,300 538,310 564,319 590,325 617,330 644,331 673,331 702,327 732,320 738,299 746,279 755,259 766,239 778,219 793,200 808,180 826,161 811,161 796,159 783,156 770,151 759,144 751,135 745,122 742,106 740,92 735,86 729,85 721,89 713,94 704,101 696,106 689,108 683,108 677,108 670,108 664,107 658,106 652,104 646,102 639,100 641,89 643,79 646,71 649,64 629,63 606,62 583,64 561,69 541,77 526,89 515,107 511,130 514,147 522,160 534,168 548,172 562,170 576,163 586,150 592,130 594,129 597,131 602,134 606,139 608,147 607,155 601,165 590,176 572,188 555,193 539,193 526,188 514,179 504,167 497,153 494,137 493,119 497,102 504,85 516,69 532,55 554,44 581,36 614,33 631,32 648,32 666,31 684,30 702,29 720,29 738,29 756,29 775,30 793,31 811,33 828,35 846,38 862,42 879,47 895,53 902,56 910,59 918,62 928,65 937,67 946,67 954,66 960,62 983,44 1005,37 1023,38 1038,46 1046,59 1047,76 1041,96 1025,115 1018,124 1015,134 1015,145 1017,156 1021,168 1025,179 1030,189 1034,198 1043,227 1049,260 1053,295 1054,331 1054,367 1053,403 1051,437 1050,467 1046,493 1038,520 1024,547 1007,570 986,587 963,596 938,593 912,577 901,562 895,544 895,525 900,507 908,491 920,480 933,475 948,479 951,484 947,490 937,497 925,505 915,515 909,527 911,542 924,559 927,562 930,564 934,566 938,568 941,569 945,570 950,571 954,571 977,567 994,556 1006,540 1014,520 1018,498 1020,475 1020,453 1018,433 1015,435 1011,437 1007,438 1003,439 998,441 993,442 988,442 982,443 978,431 975,418 974,406 974,392 976,385 981,377 988,369 993,361 997,353 996,346 990,341 976,339 963,337 951,332 941,325 933,316 927,305 923,291 921,275 920,256 903,272 885,287 866,300 847,313 828,325 807,335 785,343 762,350 756,381 752,411 752,440 754,467 758,494 764,520 773,545 783,569 795,594 808,617 823,640 839,664 855,687 873,710 891,733 910,756 927,778 942,801 956,824 969,848 981,873 992,897 1003,923 1014,948 1018,955 1022,962 1027,969 1033,975 1038,982 1044,988 1049,994 1054,1001 1038,1005 1019,1009 999,1010 979,1010 960,1007 944,999 932,987 927,969 923,942 916,927 908,920 900,921 893,928 890,939 891,953 898,967 898,975 894,988 888,1000 883,1007 852,986 824,962 798,935 777,905 761,873 751,838 749,802 755,763 759,742 759,724 756,709 749,698 741,690 730,685 719,682 708,682 696,685 686,690 677,697 670,706 666,718 666,731 669,746 677,762 694,792 708,821 717,851 721,880 719,908 708,936 688,962 657,987 651,981 645,974 641,968 638,961 635,953 632,946 630,938 627,930 616,939 609,950 604,964 598,977 589,990 574,1001 551,1008 518,1011 475,1008 440,1001 413,990 393,975 379,959 372,940 369,921 372,902 378,884 387,868 400,854 414,844 429,837 446,835 462,839 478,850 489,865 493,881 489,896 474,907 469,888 459,876 446,871 432,871 418,877 406,887 398,901 395,918 397,936 403,951 412,963 424,972 438,978 454,981 471,981 489,978 506,973 523,965 539,955 553,942 565,927 574,910 580,890 582,868 581,841 577,814 573,787 567,760 561,733 557,706 553,678 552,649 552,649 552,649"/>
<polygon class="pen1 brush2" points="194,1010 170,1010 172,991 175,971 180,951 186,931 193,911 201,892 210,874 219,857 202,867 184,876 165,884 146,891 127,897 107,901 88,905 68,907 68,883 79,882 89,881 100,879 111,877 122,874 133,871 144,867 156,863 166,859 177,854 188,850 198,845 208,840 218,834 228,829 237,824 252,839 242,858 232,878 222,899 214,921 206,944 200,966 196,989 194,1010 194,1010 194,1010"/>
<polygon class="pen1 brush2" points="68,1010 68,954 77,952 86,950 95,948 105,946 114,943 124,940 133,937 143,933 137,952 132,971 127,991 123,1010 68,1010 68,1010"/>
</g>
</svg>
