<?xml version="1.0" encoding="UTF-8" standalone="no"?>
<!DOCTYPE svg PUBLIC "-//W3C//DTD SVG 1.0//EN" "http://www.w3.org/TR/2001/REC-SVG-20010904/DTD/svg10.dtd">
<svg xmlns="http://www.w3.org/2000/svg" xmlns:xlink="http://www.w3.org/1999/xlink" fill-rule="evenodd" height="0.709in" preserveAspectRatio="none" stroke-linecap="round" viewBox="0 0 999 709" width="0.999in">
<style type="text/css">
.brush0 { fill: rgb(255,255,255); }
.pen0 { stroke: rgb(0,0,0); stroke-width: 1; stroke-linejoin: round; }
.brush1 { fill: none; }
.pen1 { stroke: none; }
.brush2 { fill: rgb(0,0,0); }
</style>
<g>
<polygon class="pen1 brush2" points="0,697 27,666 56,634 84,601 113,566 142,531 171,495 201,458 230,421 259,383 288,345 317,307 346,269 374,231 401,193 428,155 454,118 448,152 442,186 437,220 431,254 425,288 420,321 414,355 408,388 413,392 420,398 425,403 428,405 447,396 466,387 486,377 506,368 525,359 545,350 565,340 585,331 604,321 623,310 642,299 660,288 678,276 696,263 713,250 729,236 878,104 813,249 811,257 812,263 817,267 824,270 833,271 845,271 858,271 873,270 888,268 905,267 921,266 938,265 955,265 971,267 985,269 999,273 980,281 961,289 941,297 922,305 902,312 883,319 863,326 843,332 822,338 802,344 781,349 761,354 740,359 718,363 697,366 675,369 666,371 654,373 639,376 624,380 606,384 589,389 570,395 552,402 535,410 519,418 504,427 491,437 481,448 474,459 471,471 471,484 477,496 489,501 505,503 524,503 544,503 562,504 577,509 587,519 561,529 535,540 510,551 485,564 460,577 435,591 410,605 385,619 360,632 334,645 308,658 282,669 254,680 226,689 197,696 167,702 157,703 148,704 138,705 128,706 118,706 108,707 98,707 88,707 77,706 67,706 56,705 45,704 34,703 23,701 12,699 0,697 0,697"/>
<polygon class="pen1 brush2" points="901,78 900,74 903,59 909,40 918,20 921,15 925,11 929,8 933,6 936,5 940,4 944,5 948,7 954,16 953,27 948,39 940,50 930,60 919,68 909,75 901,78"/>
</g>
</svg>
