<?xml version="1.0" encoding="UTF-8" standalone="no"?>
<!DOCTYPE svg PUBLIC "-//W3C//DTD SVG 1.0//EN" "http://www.w3.org/TR/2001/REC-SVG-20010904/DTD/svg10.dtd">
<svg xmlns="http://www.w3.org/2000/svg" xmlns:xlink="http://www.w3.org/1999/xlink" fill-rule="evenodd" height="0.499in" preserveAspectRatio="none" stroke-linecap="round" viewBox="0 0 561 499" width="0.561in">
<style type="text/css">
.brush0 { fill: rgb(255,255,255); }
.pen0 { stroke: rgb(0,0,0); stroke-width: 1; stroke-linejoin: round; }
.brush1 { fill: none; }
.pen1 { stroke: none; }
.brush2 { fill: rgb(0,0,0); }
</style>
<g>
<polygon class="pen1 brush2" points="389,31 405,35 423,42 443,53 463,68 483,85 501,105 516,127 527,151 535,175 541,198 546,221 548,244 548,268 546,292 540,318 530,345 527,355 523,365 518,376 513,388 506,399 499,410 490,421 480,431 469,441 456,450 443,460 428,469 411,477 392,483 371,487 348,489 325,488 303,484 283,477 265,468 249,457 235,445 222,433 211,420 202,408 194,394 188,381 183,367 179,354 176,341 174,328 173,317 167,304 169,292 174,279 179,264 186,250 194,237 202,226 211,217 219,211 228,207 239,203 251,199 264,196 277,193 290,192 302,193 314,195 324,199 334,203 343,208 351,214 358,220 365,225 371,231 377,236 386,250 392,270 393,291 390,309 387,316 383,324 379,332 373,339 367,345 359,351 350,355 340,358 334,359 327,359 320,359 313,359 306,358 299,356 293,354 288,351 281,345 274,338 269,331 265,323 263,314 262,306 263,297 265,289 269,281 274,275 280,269 286,264 294,262 303,261 314,263 325,267 320,266 313,266 306,267 299,268 292,271 286,276 282,282 279,291 278,308 280,323 286,335 296,345 303,348 311,349 320,349 328,347 337,345 344,341 350,337 354,332 358,317 361,296 361,277 362,267 363,261 362,254 358,246 350,240 345,237 340,234 335,231 329,228 322,226 313,224 303,224 291,225 279,227 269,228 261,231 254,234 249,238 245,243 241,250 237,258 230,279 226,304 228,329 236,350 242,358 250,366 257,373 266,379 276,385 286,389 297,392 309,394 321,395 331,397 341,399 350,401 358,401 367,401 376,398 385,393 395,386 404,377 414,368 422,359 430,350 437,341 441,333 444,327 446,300 447,269 445,238 441,213 436,206 430,198 423,189 417,179 409,170 402,161 395,152 389,145 377,138 362,131 345,122 327,114 308,107 289,102 272,100 256,101 241,104 226,108 210,113 195,119 180,125 166,132 154,139 143,147 133,155 124,162 115,170 107,177 99,185 92,194 85,203 78,214 72,227 65,242 59,258 53,275 47,294 43,312 40,331 39,349 40,382 44,415 50,453 60,499 52,488 43,474 35,459 27,443 20,426 15,409 10,393 8,378 6,351 4,324 3,295 5,264 7,248 10,232 13,217 17,201 21,187 26,173 31,161 37,150 44,140 51,129 59,117 68,106 78,95 89,85 101,75 115,67 129,59 143,50 157,42 171,33 185,26 199,19 214,13 230,9 248,6 268,5 289,5 311,7 332,11 353,16 372,23 389,31"/>
</g>
</svg>
