<?xml version="1.0" encoding="UTF-8" standalone="no"?>
<!DOCTYPE svg PUBLIC "-//W3C//DTD SVG 1.0//EN" "http://www.w3.org/TR/2001/REC-SVG-20010904/DTD/svg10.dtd">
<svg xmlns="http://www.w3.org/2000/svg" xmlns:xlink="http://www.w3.org/1999/xlink" fill-rule="evenodd" height="1.0in" preserveAspectRatio="none" stroke-linecap="round" viewBox="0 0 849 1000" width="0.849in">
<style type="text/css">
.brush0 { fill: rgb(255,255,255); }
.pen0 { stroke: rgb(0,0,0); stroke-width: 1; stroke-linejoin: round; }
.brush1 { fill: none; }
.pen1 { stroke: none; }
.brush2 { fill: rgb(0,0,0); }
</style>
<g>
<polygon class="pen1 brush2" points="710,362 717,345 723,327 726,308 726,289 722,269 714,249 701,229 682,210 662,195 641,185 620,180 600,179 580,182 560,187 542,195 524,205 508,216 493,228 480,239 469,250 459,260 453,268 448,274 447,277 446,276 442,271 435,263 426,253 416,240 403,226 389,211 373,197 356,183 338,171 320,161 301,155 281,151 261,152 242,158 222,170 202,191 191,215 187,240 190,266 198,291 210,317 224,340 239,362 30,362 0,0 849,20 848,362 710,362"/>
<polygon class="pen1 brush2" points="78,614 89,638 105,656 124,669 147,678 171,682 197,683 224,682 251,678 278,673 303,666 326,659 347,652 364,645 377,640 386,636 389,635 390,642 393,659 399,683 409,710 423,737 442,760 468,776 501,780 533,770 556,750 571,722 579,691 583,661 584,636 584,618 584,612 588,613 594,616 603,620 613,624 625,628 638,633 651,637 666,640 681,642 695,642 710,640 724,636 737,629 749,619 759,606 768,588 775,551 768,519 751,491 728,468 703,450 680,437 664,429 659,426 661,425 666,421 672,416 679,408 687,399 695,388 703,375 710,362 848,362 844,885 84,1000 30,362 239,362 247,372 254,381 260,388 266,395 271,401 274,405 276,407 277,408 274,407 266,407 253,410 238,415 220,422 200,431 179,442 158,455 138,469 119,485 102,503 88,522 78,543 73,565 72,589 78,614"/>
</g>
</svg>
