<?xml version="1.0" encoding="UTF-8" standalone="no"?>
<!DOCTYPE svg PUBLIC "-//W3C//DTD SVG 1.0//EN" "http://www.w3.org/TR/2001/REC-SVG-20010904/DTD/svg10.dtd">
<svg xmlns="http://www.w3.org/2000/svg" xmlns:xlink="http://www.w3.org/1999/xlink" fill-rule="evenodd" height="0.893in" preserveAspectRatio="none" stroke-linecap="round" viewBox="0 0 599 893" width="0.599in">
<style type="text/css">
.brush0 { fill: rgb(255,255,255); }
.pen0 { stroke: rgb(0,0,0); stroke-width: 1; stroke-linejoin: round; }
.brush1 { fill: none; }
.pen1 { stroke: none; }
.brush2 { fill: rgb(0,0,0); }
</style>
<g>
<polygon class="pen1 brush2" points="0,893 212,0 423,893 0,893"/>
<polygon class="pen1 brush2" points="168,676 168,676 169,674 172,671 175,666 181,661 187,654 195,647 204,639 214,632 225,625 237,619 251,613 265,609 281,607 297,606 315,608 333,612 351,617 369,622 386,626 404,630 421,633 438,634 454,635 470,634 486,632 501,629 515,623 528,616 540,606 551,594 562,580 571,563 545,552 539,563 533,573 526,581 518,589 510,595 500,599 490,603 478,606 466,607 452,607 437,607 421,605 403,602 384,597 363,592 341,586 319,581 298,579 278,580 260,583 243,588 227,594 212,602 198,610 186,619 176,628 167,636 159,644 153,651 149,656 146,660 145,661 168,676"/>
<polygon class="pen1 brush0" points="351,589 348,588 345,587 343,587 341,586 319,581 298,579 278,580 260,583 243,588 227,594 212,602 198,610 186,619 176,628 167,636 159,644 153,651 149,656 146,660 145,661 168,676 168,676 169,674 172,671 175,666 181,661 187,654 195,647 204,639 214,632 225,625 237,619 251,613 265,609 281,607 297,606 315,608 333,612 339,614 345,616 351,618 358,620 351,589"/>
<polygon class="pen1 brush2" points="168,756 168,756 169,754 172,751 175,746 181,740 187,734 195,726 204,719 214,712 225,705 237,698 251,693 265,689 281,687 297,686 315,688 333,692 351,697 369,702 386,706 404,710 421,712 438,714 454,715 470,714 486,712 501,708 515,703 528,695 540,686 551,674 562,660 571,643 545,631 539,642 533,652 526,660 518,668 510,674 500,679 490,683 478,685 466,687 452,687 437,686 421,684 403,681 384,677 363,671 341,665 319,660 298,658 278,659 260,662 243,667 227,674 212,681 198,689 186,698 176,707 167,715 159,723 153,730 149,735 146,739 145,740 168,756"/>
<polygon class="pen1 brush0" points="371,674 367,673 364,672 360,671 356,670 352,669 349,668 345,666 341,665 319,660 298,658 278,659 260,662 243,667 227,674 212,681 198,689 186,698 176,707 167,715 159,723 153,730 149,735 146,739 145,740 168,756 168,756 169,754 172,751 175,746 181,740 187,734 195,726 204,719 214,712 225,705 237,698 251,693 265,689 281,687 297,686 315,688 333,692 338,694 344,696 349,697 355,699 361,700 367,702 372,703 378,704 371,674"/>
<polygon class="pen1 brush2" points="196,839 196,839 197,837 200,834 204,829 209,823 216,817 223,809 232,802 242,795 254,788 266,781 279,776 293,772 309,770 325,769 342,771 360,775 378,780 396,785 414,789 432,793 449,795 466,797 483,798 499,797 514,795 529,791 543,786 556,778 568,769 580,757 590,743 599,726 574,714 568,725 562,735 555,743 547,751 539,757 529,762 519,766 507,768 494,770 480,770 465,769 449,767 431,764 412,760 391,754 368,748 346,743 326,741 306,742 288,745 271,750 255,756 240,764 227,772 215,781 204,790 195,798 187,806 181,813 177,818 174,822 173,823 196,839"/>
<polygon class="pen1 brush0" points="390,754 385,753 379,751 374,750 368,748 346,743 326,741 306,742 288,745 271,750 255,756 240,764 227,772 215,781 204,790 195,798 187,806 181,813 177,818 174,822 173,823 196,839 196,839 197,837 200,834 204,829 209,823 216,817 223,809 232,802 242,795 254,788 266,781 279,776 293,772 309,770 325,769 342,771 360,775 365,776 370,778 374,779 379,780 383,782 388,783 392,784 397,785 390,754"/>
</g>
</svg>
