<?xml version="1.0" encoding="UTF-8" standalone="no"?>
<!DOCTYPE svg PUBLIC "-//W3C//DTD SVG 1.0//EN" "http://www.w3.org/TR/2001/REC-SVG-20010904/DTD/svg10.dtd">
<svg xmlns="http://www.w3.org/2000/svg" xmlns:xlink="http://www.w3.org/1999/xlink" fill-rule="evenodd" height="0.484in" preserveAspectRatio="none" stroke-linecap="round" viewBox="0 0 527 484" width="0.527in">
<style type="text/css">
.brush0 { fill: rgb(255,255,255); }
.pen0 { stroke: rgb(0,0,0); stroke-width: 1; stroke-linejoin: round; }
.brush1 { fill: none; }
.pen1 { stroke: none; }
.brush2 { fill: rgb(0,0,0); }
</style>
<g>
<polygon class="pen1 brush2" points="279,310 259,310 239,312 220,314 202,316 184,320 168,324 152,328 138,334 125,339 114,346 104,352 96,359 89,367 84,375 81,383 80,391 477,391 476,383 473,375 468,367 461,359 453,352 443,346 432,339 419,334 405,328 390,324 373,320 356,316 338,314 319,312 299,310 279,310"/>
<polygon class="pen1 brush2" points="105,308 114,305 124,303 134,301 144,298 154,296 164,295 175,293 186,291 197,290 208,289 220,288 231,287 243,286 255,285 267,285 279,285 291,285 303,285 315,286 327,287 338,288 350,289 361,290 372,291 383,293 394,295 404,296 414,298 424,301 434,303 444,305 453,308 527,131 392,201 381,0 264,166 156,0 152,201 0,128 105,308"/>
<polygon class="pen1 brush2" points="516,469 476,418 432,465 400,418 345,465 309,418 271,464 244,423 192,465 153,418 106,465 75,417 37,469 45,479 75,448 105,484 152,450 191,483 242,455 271,484 309,451 343,483 398,450 431,484 476,451 508,479 516,469"/>
</g>
</svg>
