<?xml version="1.0" encoding="UTF-8" standalone="no"?>
<!DOCTYPE svg PUBLIC "-//W3C//DTD SVG 1.0//EN" "http://www.w3.org/TR/2001/REC-SVG-20010904/DTD/svg10.dtd">
<svg xmlns="http://www.w3.org/2000/svg" xmlns:xlink="http://www.w3.org/1999/xlink" fill-rule="evenodd" height="0.874in" preserveAspectRatio="none" stroke-linecap="round" viewBox="0 0 811 874" width="0.811in">
<style type="text/css">
.brush0 { fill: rgb(255,255,255); }
.pen0 { stroke: rgb(0,0,0); stroke-width: 1; stroke-linejoin: round; }
.brush1 { fill: none; }
.pen1 { stroke: none; }
.brush2 { fill: rgb(0,0,0); }
</style>
<g>
<polygon class="pen1 brush2" points="532,825 532,0 143,0 143,825 532,825"/>
<polygon class="pen1 brush0" points="794,473 715,473 710,443 704,415 696,388 687,362 677,337 665,314 652,292 638,272 623,253 606,236 588,220 569,206 549,193 528,182 506,173 483,166 473,164 462,161 452,159 442,158 432,157 422,156 412,156 402,156 402,55 401,49 397,43 391,39 385,38 379,39 374,43 370,49 369,55 369,158 349,162 329,167 309,173 291,181 273,191 255,202 239,214 223,228 208,242 194,259 181,276 170,294 159,314 149,335 141,356 134,379 129,403 126,426 126,450 127,473 16,473 10,474 5,478 1,483 0,489 1,495 5,501 10,505 16,506 133,506 138,521 143,536 150,551 157,565 165,578 175,591 185,603 195,615 207,626 219,637 232,646 246,655 261,663 276,670 292,676 308,681 316,683 323,685 331,686 339,687 346,688 354,688 361,688 369,688 369,857 370,864 374,869 379,873 385,874 391,873 397,869 401,864 402,857 402,684 428,677 452,666 475,652 496,635 515,615 531,592 544,568 553,541 555,532 557,523 558,514 559,506 794,506 800,505 806,501 810,495 811,489 810,483 806,478 800,474 794,473"/>
<polygon class="pen1 brush2" points="474,198 495,204 514,212 533,222 551,233 568,246 583,260 598,275 612,292 625,311 636,330 647,351 656,373 665,396 672,421 677,446 682,473 557,473 552,450 543,428 532,408 518,390 501,373 483,359 462,348 439,340 434,339 429,338 425,337 420,336 416,336 411,335 407,335 402,335 402,188 411,188 420,189 429,189 438,190 447,192 456,193 465,196 474,198"/>
<polygon class="pen1 brush2" points="306,443 310,431 315,420 322,410 330,400 338,392 348,385 358,379 369,374 369,414 362,417 356,421 351,425 346,431 341,436 337,443 334,450 331,457 331,461 332,466 333,470 336,473 304,473 303,465 303,458 304,450 306,443"/>
<polygon class="pen1 brush0" points="363,465 364,462 365,459 367,456 369,454 369,473 358,473 359,471 361,469 362,467 363,465 363,465"/>
<polygon class="pen1 brush2" points="369,506 369,540 367,540 365,539 363,539 361,539 354,536 347,533 341,530 335,526 329,521 324,517 320,511 316,506 369,506"/>
<polygon class="pen1 brush2" points="402,506 430,506 425,515 418,523 411,530 402,535 402,506"/>
<polygon class="pen1 brush2" points="402,473 402,443 402,443 402,443 402,443 402,443 407,445 413,447 417,451 422,454 425,458 429,463 431,468 433,473 402,473"/>
<polygon class="pen1 brush2" points="465,473 463,462 459,452 454,443 448,434 440,426 432,420 422,415 411,411 409,410 407,410 404,410 402,410 402,368 409,368 416,369 423,370 430,371 448,377 464,386 479,397 492,409 503,423 512,439 519,455 524,473 465,473"/>
<polygon class="pen1 brush2" points="166,388 172,368 179,348 188,330 197,312 207,296 218,281 230,266 243,253 256,241 270,230 285,221 301,212 317,205 334,199 351,194 369,191 369,340 353,346 337,353 323,362 310,373 298,386 288,401 280,417 274,434 272,444 270,453 270,463 271,473 160,473 158,452 159,430 161,409 166,388"/>
<polygon class="pen1 brush2" points="316,649 290,640 265,628 242,613 222,595 204,576 189,554 177,531 168,506 279,506 284,517 291,527 299,537 308,545 317,553 328,560 340,565 352,569 356,570 361,571 365,572 369,572 369,655 363,655 356,655 350,655 343,654 336,653 329,652 323,651 316,649"/>
<polygon class="pen1 brush2" points="522,532 514,554 504,574 491,592 477,608 460,622 442,634 423,643 402,650 402,569 413,565 423,560 432,554 441,546 448,538 455,528 460,518 464,506 526,506 525,513 524,519 523,525 522,532"/>
</g>
</svg>
