<?xml version="1.0" encoding="UTF-8" standalone="no"?>
<!DOCTYPE svg PUBLIC "-//W3C//DTD SVG 1.0//EN" "http://www.w3.org/TR/2001/REC-SVG-20010904/DTD/svg10.dtd">
<svg xmlns="http://www.w3.org/2000/svg" xmlns:xlink="http://www.w3.org/1999/xlink" fill-rule="evenodd" height="0.485in" preserveAspectRatio="none" stroke-linecap="round" viewBox="0 0 343 485" width="0.343in">
<style type="text/css">
.brush0 { fill: rgb(255,255,255); }
.pen0 { stroke: rgb(0,0,0); stroke-width: 1; stroke-linejoin: round; }
.brush1 { fill: none; }
.pen1 { stroke: none; }
.brush2 { fill: rgb(0,0,0); }
</style>
<g>
<polygon class="pen1 brush2" points="172,69 154,70 137,72 121,77 105,83 90,90 76,98 63,108 50,119 39,132 29,145 21,159 14,174 8,190 3,206 1,223 0,241 1,259 3,276 8,292 14,308 21,323 29,337 39,350 50,362 63,373 76,383 90,391 105,399 121,404 137,409 154,411 172,412 189,411 206,409 223,404 238,399 253,391 267,383 281,373 293,362 304,350 314,337 322,323 330,308 335,292 340,276 342,259 343,241 342,223 340,206 335,190 330,174 322,159 314,145 304,132 293,119 281,108 267,98 253,90 238,83 223,77 206,72 189,70 172,69"/>
<polygon class="pen1 brush0" points="172,330 154,328 137,323 122,315 109,304 98,291 90,276 85,259 83,241 85,223 90,207 98,192 109,179 122,168 137,160 154,155 172,153 190,155 206,160 221,168 234,179 245,192 253,207 258,223 260,241 258,259 253,276 245,291 234,304 221,315 206,323 190,328 172,330"/>
<polygon class="pen1 brush2" points="154,485 154,0 196,0 196,485 154,485"/>
<polygon class="pen1 brush0" points="154,412 159,412 163,412 168,412 172,412 178,412 184,412 190,412 196,411 196,71 190,70 184,70 178,69 172,69 168,69 163,69 159,69 154,70 154,412"/>
<polygon class="pen1 brush2" points="154,154 154,328 159,329 163,329 168,330 172,330 178,330 184,329 190,328 196,327 196,156 190,155 184,154 178,153 172,153 168,153 163,153 159,153 154,154"/>
</g>
</svg>
