<?xml version="1.0" encoding="UTF-8" standalone="no"?>
<!DOCTYPE svg PUBLIC "-//W3C//DTD SVG 1.0//EN" "http://www.w3.org/TR/2001/REC-SVG-20010904/DTD/svg10.dtd">
<svg xmlns="http://www.w3.org/2000/svg" xmlns:xlink="http://www.w3.org/1999/xlink" fill-rule="evenodd" height="0.878in" preserveAspectRatio="none" stroke-linecap="round" viewBox="0 0 775 878" width="0.775in">
<style type="text/css">
.brush0 { fill: rgb(255,255,255); }
.pen0 { stroke: rgb(0,0,0); stroke-width: 1; stroke-linejoin: round; }
.brush1 { fill: none; }
.pen1 { stroke: none; }
.brush2 { fill: rgb(0,0,0); }
</style>
<g>
<polygon class="pen1 brush2" points="135,878 135,0 746,0 746,878 135,878"/>
<polygon class="pen1 brush0" points="283,0 272,12 259,31 245,55 231,84 218,119 210,159 206,204 209,254 207,270 201,286 195,299 192,304 190,308 184,319 177,338 167,362 158,392 149,427 142,465 138,507 138,552 143,598 154,646 173,694 199,742 235,789 281,835 338,878 345,878 328,860 307,836 283,807 259,776 236,743 217,711 204,682 199,657 200,659 205,665 211,674 220,685 231,698 243,713 256,729 270,746 284,762 299,778 313,792 328,805 341,815 354,823 365,827 374,827 371,825 363,818 351,806 336,791 319,771 300,748 280,722 261,692 243,659 227,624 215,586 206,546 202,505 203,461 211,416 227,370 232,361 240,351 251,339 264,326 279,311 295,294 313,277 333,258 352,237 372,216 392,193 412,169 431,144 449,118 465,91 480,63 479,64 475,69 469,77 459,88 448,101 435,117 419,133 403,151 385,169 367,188 348,205 329,222 309,237 290,250 272,261 254,268 252,265 246,255 240,238 236,211 236,175 243,129 259,71 287,0 283,0"/>
<polygon class="pen1 brush0" points="276,213 273,209 273,202 274,193 278,181 283,169 290,154 298,139 308,123 318,108 329,94 339,82 348,72 357,64 365,59 371,57 376,58 379,62 379,68 378,77 374,89 369,102 362,116 354,131 344,147 334,162 323,176 313,188 304,198 295,206 287,211 281,214 276,213"/>
<polygon class="pen1 brush0" points="746,422 739,397 732,374 725,353 719,336 713,323 708,312 705,306 704,304 701,299 695,286 689,270 687,254 690,204 686,159 678,119 665,84 651,55 637,31 624,12 613,0 609,0 637,71 653,129 660,175 660,211 656,238 650,255 644,265 642,268 624,261 606,250 587,237 567,222 548,205 529,188 511,169 493,151 477,133 461,117 448,101 437,88 427,77 421,69 417,64 416,63 431,91 447,118 465,144 484,169 504,193 524,216 544,237 564,258 583,277 601,294 617,311 632,326 645,339 656,351 664,361 669,370 685,416 693,461 695,505 691,546 682,586 669,624 653,659 635,692 616,722 596,748 577,771 560,791 545,806 533,818 525,825 522,827 531,827 542,823 555,815 568,805 583,792 597,778 612,762 626,746 640,729 653,713 665,698 676,685 685,674 691,665 696,659 697,657 692,682 679,711 660,743 637,776 613,807 589,836 568,860 551,878 558,878 578,864 597,850 615,835 632,820 647,805 661,790 674,774 686,759 697,743 706,727 715,711 723,695 730,680 736,664 741,648 746,632 746,422"/>
<polygon class="pen1 brush0" points="620,213 623,209 623,202 622,193 618,181 613,169 606,154 598,139 588,123 578,108 567,94 557,82 548,72 539,64 531,59 525,57 520,58 517,62 517,68 518,77 522,89 527,102 534,116 542,131 552,147 562,162 573,176 583,188 592,198 601,206 609,211 615,214 620,213"/>
<polygon class="pen1 brush0" points="431,346 438,343 446,340 453,335 460,330 468,312 470,287 469,265 468,255 467,262 464,279 456,300 443,318 436,323 429,325 421,326 414,327 408,326 402,325 399,324 397,324 393,325 389,327 386,329 384,333 383,337 384,342 386,346 389,349 399,356 410,363 422,372 434,382 447,392 461,404 474,416 487,428 499,442 511,456 521,470 530,484 537,499 542,514 545,529 546,544 545,552 543,561 540,568 537,576 532,583 528,589 522,595 516,600 509,605 502,609 495,612 486,615 478,616 469,617 460,617 450,616 444,615 438,613 432,611 426,608 421,605 416,601 412,596 408,591 401,580 396,568 394,556 395,543 397,533 401,525 407,517 414,510 418,507 422,505 426,503 431,502 435,501 440,500 445,500 450,500 457,502 464,505 470,510 475,515 478,520 480,526 482,532 482,538 481,533 480,529 478,524 475,520 471,515 466,511 460,508 453,507 445,507 438,508 431,511 425,515 419,520 415,526 412,533 410,541 409,549 411,558 414,566 419,574 425,580 432,585 439,589 448,591 453,591 458,591 464,591 469,590 474,588 479,586 483,583 488,580 496,573 502,565 506,555 508,545 509,533 507,521 503,509 496,498 492,493 487,489 482,485 477,482 471,479 465,477 459,475 453,474 446,473 438,473 431,474 424,476 417,478 410,481 403,485 397,489 386,500 378,512 372,525 368,540 368,558 371,575 377,592 387,607 393,614 399,621 407,626 414,631 422,636 430,639 438,641 447,643 459,644 471,644 482,643 493,640 504,637 514,633 524,627 533,621 541,614 548,606 554,598 560,589 564,579 568,568 571,557 573,546 570,517 561,488 546,460 527,434 505,409 481,386 456,365 431,346"/>
</g>
</svg>
