<?xml version="1.0" encoding="UTF-8" standalone="no"?>
<!DOCTYPE svg PUBLIC "-//W3C//DTD SVG 1.0//EN" "http://www.w3.org/TR/2001/REC-SVG-20010904/DTD/svg10.dtd">
<svg xmlns="http://www.w3.org/2000/svg" xmlns:xlink="http://www.w3.org/1999/xlink" fill-rule="evenodd" height="1.0in" preserveAspectRatio="none" stroke-linecap="round" viewBox="0 0 642 1000" width="0.642in">
<style type="text/css">
.brush0 { fill: rgb(255,255,255); }
.pen0 { stroke: rgb(0,0,0); stroke-width: 1; stroke-linejoin: round; }
.brush1 { fill: none; }
.pen1 { stroke: none; }
.brush2 { fill: rgb(0,0,0); }
</style>
<g>
<polygon class="pen1 brush2" points="34,260 42,242 50,224 59,206 69,189 80,172 90,155 102,139 114,122 127,106 140,91 153,75 167,60 181,45 196,30 211,15 227,0 508,0 528,31 546,62 563,94 578,126 591,159 602,192 611,226 619,260 572,260 569,249 564,238 560,228 555,217 557,229 559,240 561,250 562,260 499,260 500,189 494,206 488,223 483,241 479,260 429,260 433,222 434,183 428,148 413,122 417,157 417,192 416,226 418,260 359,260 357,230 353,200 347,171 339,142 334,157 329,172 324,186 319,201 314,216 310,230 305,245 301,260 106,260 107,251 108,244 109,236 109,229 101,236 94,243 88,251 84,260 34,260"/>
<polygon class="pen1 brush2" points="591,706 530,899 494,863 472,831 460,802 453,778 449,757 442,740 429,726 406,716 395,745 389,777 387,809 386,842 384,875 380,907 372,936 358,963 345,956 339,943 338,927 338,908 339,889 336,872 327,858 311,848 302,861 302,878 306,897 311,917 315,936 314,953 304,966 283,973 227,744 204,762 193,787 188,817 188,852 189,889 186,927 177,964 159,1000 147,965 135,929 122,892 108,856 95,819 82,781 69,744 57,706 108,706 111,715 114,724 118,734 122,744 121,734 121,723 121,714 122,706 591,706"/>
<polygon class="pen1 brush2" points="629,545 626,569 622,592 618,616 612,639 591,706 122,706 122,692 122,679 120,668 115,659 109,671 107,683 106,694 108,706 57,706 51,686 45,666 39,645 34,625 29,605 24,585 20,565 17,545 254,545 255,571 257,597 260,623 264,649 270,637 277,624 283,611 289,598 294,585 300,572 305,558 310,545 369,545 365,564 362,583 359,602 358,621 365,620 372,615 377,608 382,598 385,587 388,574 391,560 392,545 459,545 461,564 463,583 466,603 470,622 474,641 479,659 485,678 491,696 493,545 629,545"/>
<polygon class="pen1 brush2" points="4,452 3,426 4,401 6,376 9,351 13,328 19,305 26,282 34,260 84,260 77,277 72,295 68,314 66,333 63,351 59,370 53,387 44,403 54,388 64,372 74,355 83,336 90,317 97,298 102,279 106,260 301,260 291,295 282,330 274,365 267,401 261,437 257,473 255,509 254,545 17,545 12,522 9,498 6,475 4,452 4,452"/>
<polygon class="pen1 brush2" points="359,260 418,260 419,266 421,272 423,278 425,284 426,278 427,272 428,266 429,260 479,260 471,293 464,327 459,362 456,398 454,434 454,471 455,508 459,545 392,545 393,522 392,501 390,483 386,470 383,490 378,509 374,527 369,545 310,545 322,511 332,475 341,440 349,404 355,368 358,332 360,296 359,260 359,260"/>
<polygon class="pen1 brush2" points="499,260 562,260 564,275 566,290 569,304 572,318 576,333 581,349 587,366 595,385 594,353 589,321 582,290 572,260 619,260 631,330 636,401 636,473 629,545 493,545 499,260"/>
</g>
</svg>
