<?xml version="1.0" encoding="UTF-8" standalone="no"?>
<!DOCTYPE svg PUBLIC "-//W3C//DTD SVG 1.0//EN" "http://www.w3.org/TR/2001/REC-SVG-20010904/DTD/svg10.dtd">
<svg xmlns="http://www.w3.org/2000/svg" xmlns:xlink="http://www.w3.org/1999/xlink" fill-rule="evenodd" height="0.552in" preserveAspectRatio="none" stroke-linecap="round" viewBox="0 0 552 552" width="0.552in">
<style type="text/css">
.brush0 { fill: rgb(255,255,255); }
.pen0 { stroke: rgb(0,0,0); stroke-width: 1; stroke-linejoin: round; }
.brush1 { fill: none; }
.pen1 { stroke: none; }
.brush2 { fill: rgb(0,0,0); }
</style>
<g>
<polygon class="pen1 brush2" points="430,276 429,300 426,324 421,347 414,369 405,391 394,411 382,431 369,449 354,466 337,482 320,497 301,510 281,521 260,531 239,539 216,545 224,546 231,548 239,549 246,550 254,551 261,551 269,552 277,552 305,551 332,546 359,540 384,530 408,519 431,505 452,489 472,471 489,451 505,430 519,407 530,383 540,358 546,331 551,304 552,276 551,248 546,220 540,194 530,169 519,145 505,122 489,101 472,81 452,63 431,47 408,33 384,22 359,12 332,6 305,1 277,0 269,0 261,1 254,1 246,2 239,3 231,4 224,6 216,7 239,13 260,21 281,31 301,42 320,55 337,70 354,86 369,103 382,121 394,141 405,161 414,183 421,205 426,228 429,252 430,276"/>
<polygon class="pen1 brush2" points="49,276 47,267 42,259 34,254 25,252 15,254 7,259 2,267 0,276 2,286 7,294 15,299 25,301 34,299 42,294 47,286 49,276"/>
<polygon class="pen1 brush2" points="66,364 64,359 61,356 57,353 53,350 49,349 44,349 40,349 35,351 27,356 21,364 19,372 21,381 23,386 26,389 30,392 34,395 39,396 44,397 48,396 53,395 61,389 66,382 68,373 66,364"/>
<polygon class="pen1 brush2" points="116,437 112,434 108,432 103,430 99,430 94,430 89,432 85,434 81,437 76,445 74,454 76,463 81,471 85,474 89,477 93,478 98,478 103,478 107,477 111,474 115,471 121,463 123,454 121,445 116,437"/>
<polygon class="pen1 brush2" points="189,487 184,486 180,485 175,486 171,487 167,489 163,492 160,496 157,500 155,509 157,519 162,527 170,532 175,533 180,534 185,533 189,532 193,530 197,527 200,523 202,519 204,510 202,500 197,492 189,487"/>
<polygon class="pen1 brush2" points="66,189 64,193 61,197 57,200 53,202 49,203 44,204 40,203 35,202 27,197 21,189 19,180 21,170 23,166 26,162 30,159 34,157 39,156 44,155 48,156 53,157 61,162 66,170 68,179 66,189"/>
<polygon class="pen1 brush2" points="116,115 112,118 108,120 103,121 99,122 94,121 89,120 85,118 81,115 76,107 74,97 76,88 81,80 85,77 89,75 93,74 98,73 103,74 107,75 111,77 115,80 121,88 123,97 121,107 116,115"/>
<polygon class="pen1 brush2" points="189,65 184,66 180,67 175,66 171,65 167,63 163,60 160,56 157,52 155,42 157,33 162,25 170,20 175,19 180,18 185,18 189,20 193,22 197,25 200,29 202,33 204,42 202,51 197,59 189,65"/>
</g>
</svg>
