<?xml version="1.0" encoding="UTF-8" standalone="no"?>
<!DOCTYPE svg PUBLIC "-//W3C//DTD SVG 1.0//EN" "http://www.w3.org/TR/2001/REC-SVG-20010904/DTD/svg10.dtd">
<svg xmlns="http://www.w3.org/2000/svg" xmlns:xlink="http://www.w3.org/1999/xlink" fill-rule="evenodd" height="0.886in" preserveAspectRatio="none" stroke-linecap="round" viewBox="0 0 899 886" width="0.899in">
<style type="text/css">
.brush0 { fill: rgb(255,255,255); }
.pen0 { stroke: rgb(0,0,0); stroke-width: 1; stroke-linejoin: round; }
.brush1 { fill: none; }
.pen1 { stroke: none; }
.brush2 { fill: rgb(0,0,0); }
</style>
<g>
<polygon class="pen1 brush2" points="690,491 684,502 678,515 672,527 666,539 660,549 656,558 653,564 651,567 648,570 642,575 633,582 622,590 610,598 596,605 581,611 565,614 560,615 552,618 540,621 527,626 513,630 501,633 491,636 485,636 480,635 470,634 457,632 442,630 428,628 414,627 404,625 399,624 394,621 386,613 375,602 363,589 351,577 341,565 332,557 327,552 317,533 309,503 303,474 301,459 304,442 311,410 317,380 321,370 323,365 331,356 342,344 356,330 370,318 383,306 394,298 401,294 409,294 423,293 443,293 464,293 486,294 505,294 520,295 528,297 541,307 554,321 566,339 575,359 581,382 583,405 580,428 572,451 567,459 559,466 550,474 541,480 532,485 525,489 520,492 518,493 515,495 509,496 500,497 490,497 479,496 470,495 463,494 459,493 452,488 443,480 434,469 425,456 418,441 414,426 414,412 418,398 421,394 425,390 430,386 435,382 441,378 446,375 452,372 457,369 460,368 465,368 471,369 477,370 483,371 489,372 494,374 497,375 501,383 507,400 512,417 512,428 509,433 505,437 501,440 496,442 491,443 486,443 480,442 475,440 469,436 466,429 466,422 468,414 439,400 435,410 433,420 433,430 435,440 438,449 444,457 451,464 460,470 472,473 485,473 498,470 510,465 522,459 531,453 538,447 542,443 547,430 551,414 552,400 551,390 549,387 545,381 539,375 533,367 527,360 521,353 516,349 512,346 506,344 497,342 486,340 475,338 464,337 455,337 447,337 443,337 441,339 435,343 426,349 416,357 406,365 397,372 390,379 387,383 385,395 385,411 387,431 391,453 398,474 409,494 422,511 439,524 450,528 463,531 477,533 490,534 502,534 512,534 519,534 521,534 525,531 533,527 545,521 559,512 573,503 587,492 599,480 608,467 617,431 616,388 611,351 605,330 602,325 596,317 587,307 578,295 568,284 558,274 550,266 545,262 534,258 523,254 511,252 498,250 486,249 473,249 460,249 448,250 435,251 424,253 414,254 404,256 396,258 389,259 384,260 380,261 374,264 365,270 353,279 340,290 326,303 313,317 302,332 293,346 283,371 277,401 273,433 272,464 273,494 276,519 279,537 284,547 290,554 301,567 314,582 329,600 346,617 362,633 377,645 389,653 394,655 400,657 407,659 416,661 426,662 436,664 447,665 459,666 471,667 483,667 496,667 508,667 521,666 533,664 544,662 555,659 563,655 576,647 594,635 613,622 632,608 649,596 662,587 669,582 677,574 683,562 689,548 694,533 698,519 701,507 703,499 704,496 690,491"/>
<polygon class="pen1 brush2" points="425,193 450,56 452,54 459,48 468,40 478,33 489,27 499,24 507,27 511,37 511,54 505,76 497,101 486,126 475,150 466,169 459,182 456,187 425,193"/>
<polygon class="pen1 brush2" points="580,243 585,236 598,217 617,191 640,162 665,134 688,112 709,99 724,100 732,111 732,124 728,139 720,153 711,166 702,177 696,184 693,187 593,268 580,243"/>
<polygon class="pen1 brush2" points="668,375 670,374 675,371 684,367 694,361 707,354 722,347 737,340 754,333 770,326 786,320 801,315 815,311 827,310 837,310 845,313 849,318 851,332 849,344 844,355 838,364 831,371 825,376 820,380 818,381 693,400 668,375"/>
<polygon class="pen1 brush2" points="281,256 277,251 268,237 253,217 236,195 216,173 197,156 178,144 162,143 151,149 144,158 140,169 139,179 140,189 142,198 143,204 144,206 250,268 281,256"/>
<polygon class="pen1 brush2" points="206,443 50,450 48,452 42,459 35,468 27,479 20,491 16,502 15,512 19,518 29,521 45,521 64,518 85,514 104,509 121,505 133,501 137,500 206,462 206,443"/>
<polygon class="pen1 brush2" points="231,617 225,621 208,632 185,648 158,668 133,689 112,709 100,728 100,742 109,750 120,752 132,748 145,741 156,733 166,725 173,719 175,717 244,642 231,617"/>
<polygon class="pen1 brush2" points="400,717 398,724 393,742 386,767 380,796 375,826 373,852 377,871 387,880 400,877 411,867 420,851 426,832 431,813 435,796 436,785 437,780 425,717 400,717"/>
<polygon class="pen1 brush2" points="586,730 587,736 591,752 598,774 606,799 615,825 626,849 637,866 649,874 659,874 668,872 674,867 679,860 682,854 685,848 686,844 686,842 643,761 618,711 586,730"/>
<polygon class="pen1 brush2" points="711,607 713,608 717,611 724,615 733,620 744,627 756,634 769,641 783,648 797,655 811,661 825,666 838,671 850,673 860,674 868,673 874,670 885,651 883,632 878,618 874,613 805,582 730,557 711,607"/>
</g>
</svg>
