<?xml version="1.0" encoding="UTF-8" standalone="no"?>
<!DOCTYPE svg PUBLIC "-//W3C//DTD SVG 1.0//EN" "http://www.w3.org/TR/2001/REC-SVG-20010904/DTD/svg10.dtd">
<svg xmlns="http://www.w3.org/2000/svg" xmlns:xlink="http://www.w3.org/1999/xlink" fill-rule="evenodd" height="0.547in" preserveAspectRatio="none" stroke-linecap="round" viewBox="0 0 575 547" width="0.575in">
<style type="text/css">
.brush0 { fill: rgb(255,255,255); }
.pen0 { stroke: rgb(0,0,0); stroke-width: 1; stroke-linejoin: round; }
.brush1 { fill: none; }
.pen1 { stroke: none; }
.brush2 { fill: rgb(0,0,0); }
</style>
<g>
<polygon class="pen1 brush2" points="18,263 23,268 29,276 36,284 43,293 49,302 56,311 62,319 67,326 71,332 76,336 80,340 85,343 89,346 93,348 96,350 100,352 106,355 112,356 118,359 124,365 128,372 129,374 132,376 139,378 145,380 151,382 158,385 164,389 170,393 174,397 177,401 178,405 175,410 169,411 162,411 154,411 149,412 143,414 136,415 128,416 119,417 110,417 101,417 93,415 100,422 111,430 125,438 141,446 157,454 175,461 191,466 206,469 213,468 223,468 233,470 245,473 257,476 267,479 276,482 282,484 287,484 292,485 298,484 304,484 310,483 315,483 320,483 325,483 329,483 334,482 338,482 344,481 349,480 354,479 360,479 365,478 369,478 373,478 377,478 380,478 384,477 389,476 395,473 402,469 411,464 419,460 428,457 437,455 444,452 451,448 456,444 460,438 463,432 467,425 472,419 477,413 482,408 487,404 492,400 497,398 503,388 510,376 515,364 519,355 521,360 521,371 516,386 505,400 503,404 501,410 498,417 495,424 490,431 485,438 479,443 472,447 468,452 464,457 459,462 454,467 449,472 445,477 440,481 436,484 432,487 428,492 423,497 418,502 411,508 402,514 391,519 377,524 385,526 379,528 373,530 367,532 361,533 354,535 346,536 338,537 329,539 319,540 311,541 303,541 297,541 290,541 284,541 279,542 273,543 267,544 260,545 253,545 246,545 239,544 232,543 224,542 216,540 207,538 197,536 186,533 175,529 163,524 151,517 140,510 130,500 120,500 112,493 103,484 94,474 84,462 75,450 67,437 60,425 55,413 50,407 43,406 36,410 33,421 32,434 29,448 24,461 16,470 11,472 12,467 15,459 19,450 19,443 17,437 15,431 16,424 18,415 17,405 15,395 13,387 10,380 6,372 4,363 5,354 8,340 9,317 12,290 18,263"/>
<polygon class="pen1 brush2" points="19,244 25,235 31,226 35,214 37,199 42,192 48,184 53,176 58,167 63,158 68,149 73,142 77,135 82,129 87,124 93,120 100,115 106,112 112,109 118,107 123,105 132,100 141,93 147,88 150,85 163,81 179,78 197,74 216,71 236,69 255,67 272,67 287,67 294,71 301,74 310,78 320,82 332,85 344,88 358,89 373,90 384,95 400,104 420,116 441,131 462,149 482,169 500,191 514,214 510,213 506,212 503,211 499,210 495,210 491,210 486,210 480,210 474,209 467,208 460,207 453,206 446,205 439,204 433,204 427,204 421,204 415,204 409,203 403,202 397,202 393,201 390,201 389,201 394,207 401,214 408,221 414,230 418,235 423,239 429,243 436,247 443,251 450,254 456,256 461,257 469,259 477,262 484,266 490,272 494,276 498,279 504,282 509,285 515,288 521,291 526,294 530,296 534,298 538,300 543,302 548,304 553,306 557,307 559,308 560,308 566,292 570,273 571,256 569,246 568,236 568,227 567,219 566,211 564,204 564,200 566,196 568,192 569,187 569,180 567,172 567,161 567,153 566,151 564,154 562,161 559,169 556,177 553,185 551,193 548,199 543,203 538,212 533,229 530,207 525,189 519,173 514,158 511,150 508,140 504,130 499,119 494,109 487,98 479,89 471,80 463,73 456,68 449,63 443,60 437,56 431,53 424,48 417,43 409,37 399,32 390,28 380,24 370,21 361,18 352,16 345,15 339,14 334,12 328,10 322,8 316,7 308,6 299,7 287,10 279,9 272,9 266,8 261,8 256,8 251,8 245,9 239,11 232,12 223,12 213,13 202,13 191,14 181,17 171,21 163,27 169,32 164,34 158,37 153,39 147,42 142,45 136,49 130,55 124,61 118,68 112,74 106,79 100,84 93,88 87,92 81,96 75,101 68,110 67,116 67,122 65,129 57,139 49,151 41,163 38,174 34,186 27,203 20,223 19,244"/>
</g>
</svg>
