<?xml version="1.0" encoding="UTF-8" standalone="no"?>
<!DOCTYPE svg PUBLIC "-//W3C//DTD SVG 1.0//EN" "http://www.w3.org/TR/2001/REC-SVG-20010904/DTD/svg10.dtd">
<svg xmlns="http://www.w3.org/2000/svg" xmlns:xlink="http://www.w3.org/1999/xlink" fill-rule="evenodd" height="0.886in" preserveAspectRatio="none" stroke-linecap="round" viewBox="0 0 999 886" width="0.999in">
<style type="text/css">
.brush0 { fill: rgb(255,255,255); }
.pen0 { stroke: rgb(0,0,0); stroke-width: 1; stroke-linejoin: round; }
.brush1 { fill: none; }
.pen1 { stroke: none; }
.brush2 { fill: rgb(0,0,0); }
</style>
<g>
<polygon class="pen1 brush2" points="564,655 547,663 530,672 513,682 496,693 480,704 464,716 448,728 432,740 416,752 400,764 385,775 369,785 353,793 338,801 322,807 306,811 290,813 273,813 257,810 240,804 223,795 206,782 189,766 171,746 151,718 139,693 135,673 136,655 144,641 157,630 173,621 194,614 207,611 220,608 234,606 248,605 262,604 277,603 291,603 305,603 319,603 333,603 346,604 358,604 369,605 380,605 389,606 397,606 435,602 460,587 474,565 477,540 469,515 452,493 427,477 394,471 372,471 349,470 325,468 299,466 273,463 247,458 220,453 194,447 168,441 144,432 120,423 98,413 77,401 59,388 43,374 30,358 20,341 14,322 10,301 11,279 15,256 24,230 38,202 56,173 69,156 83,140 97,124 113,110 129,98 145,86 162,76 179,68 199,60 219,54 239,51 259,50 278,52 297,56 315,64 333,75 355,95 375,119 392,145 408,175 422,206 435,237 448,269 460,301 471,331 483,360 496,385 510,407 525,425 541,438 560,445 581,446 601,441 614,433 623,420 626,405 626,386 622,365 617,342 610,318 603,292 596,266 590,240 586,213 585,188 588,163 595,140 607,118 615,109 624,99 635,89 647,79 661,70 675,61 690,53 706,45 722,39 738,33 754,30 770,27 786,27 802,28 817,31 831,37 863,55 887,74 905,94 917,115 923,136 925,158 922,180 915,203 906,225 894,246 880,268 864,289 847,311 830,331 811,352 793,371 775,390 759,409 743,426 730,442 718,457 709,471 704,483 702,494 704,512 711,530 722,547 737,564 755,581 775,598 797,614 820,630 844,647 868,663 892,679 914,695 934,710 952,726 967,742 979,758 985,770 989,782 990,794 988,805 982,817 974,829 962,840 946,852 934,860 922,867 910,873 899,877 889,881 879,883 869,885 860,885 847,884 834,882 822,879 811,873 800,867 790,859 780,849 770,839 758,823 746,807 734,789 723,771 712,753 701,736 690,718 679,702 667,688 655,675 642,664 629,656 614,650 599,648 582,650 564,655"/>
</g>
</svg>
