<?xml version="1.0" encoding="UTF-8" standalone="no"?>
<!DOCTYPE svg PUBLIC "-//W3C//DTD SVG 1.0//EN" "http://www.w3.org/TR/2001/REC-SVG-20010904/DTD/svg10.dtd">
<svg xmlns="http://www.w3.org/2000/svg" xmlns:xlink="http://www.w3.org/1999/xlink" fill-rule="evenodd" height="0.552in" preserveAspectRatio="none" stroke-linecap="round" viewBox="0 0 554 552" width="0.554in">
<style type="text/css">
.brush0 { fill: rgb(255,255,255); }
.pen0 { stroke: rgb(0,0,0); stroke-width: 1; stroke-linejoin: round; }
.brush1 { fill: none; }
.pen1 { stroke: none; }
.brush2 { fill: rgb(0,0,0); }
</style>
<g>
<polygon class="pen1 brush2" points="332,40 331,51 328,61 324,70 318,78 367,165 370,164 374,163 377,163 380,163 391,164 401,167 410,172 418,179 425,187 430,196 433,206 434,217 433,227 430,237 425,246 419,254 467,339 471,338 474,337 477,337 481,337 491,338 500,340 508,344 515,349 522,355 527,363 531,371 534,380 543,355 549,329 553,303 554,275 553,249 549,224 544,199 536,176 526,153 514,131 500,111 485,92 468,75 450,58 430,44 409,31 387,20 364,12 340,5 315,0 322,8 327,18 331,28 332,40"/>
<polygon class="pen1 brush2" points="179,270 175,270 172,270 168,269 164,268 116,353 120,358 124,363 127,369 129,376 227,376 230,368 235,360 240,354 246,348 253,343 261,340 270,338 279,337 288,338 297,340 304,343 311,348 317,354 323,360 327,368 330,376 429,376 431,369 434,363 438,358 442,353 394,269 390,270 387,270 384,270 380,270 369,269 359,266 350,261 342,254 335,247 330,238 327,228 326,217 327,206 330,196 335,187 342,179 293,92 289,93 286,93 283,94 279,94 275,94 272,93 269,93 266,92 216,178 223,186 228,195 232,206 233,217 232,228 229,238 224,247 217,254 209,261 200,266 190,269 179,270"/>
<polygon class="pen1 brush2" points="78,337 81,337 85,337 88,337 91,338 140,254 133,246 129,237 126,227 125,217 126,206 129,196 134,187 141,179 149,172 158,167 168,164 179,163 182,163 185,163 188,163 191,164 241,78 234,70 229,61 226,51 225,40 226,28 230,18 236,8 243,0 218,4 193,11 170,20 147,30 126,43 106,57 87,73 70,91 55,110 41,131 29,152 19,175 11,199 5,223 1,249 0,275 2,305 6,333 14,360 24,386 26,376 29,367 34,359 41,351 49,345 58,341 67,338 78,337"/>
<polygon class="pen1 brush2" points="481,443 472,442 463,440 455,437 448,432 441,426 436,420 432,412 429,404 330,404 327,412 323,420 317,426 311,432 304,437 297,440 288,442 279,443 270,442 261,440 253,437 246,432 240,426 235,420 230,412 227,404 129,404 126,412 122,420 117,426 110,432 103,437 95,440 87,442 78,443 71,443 65,441 59,440 54,437 64,450 74,462 85,474 97,484 110,495 123,504 136,513 150,521 165,528 180,534 195,539 211,544 227,547 244,550 261,551 278,552 295,551 311,550 328,547 343,544 359,540 374,534 389,528 404,521 417,514 431,505 444,496 456,486 468,476 479,464 489,452 499,440 495,441 490,442 486,443 481,443"/>
</g>
</svg>
