<?xml version="1.0" encoding="UTF-8" standalone="no"?>
<!DOCTYPE svg PUBLIC "-//W3C//DTD SVG 1.0//EN" "http://www.w3.org/TR/2001/REC-SVG-20010904/DTD/svg10.dtd">
<svg xmlns="http://www.w3.org/2000/svg" xmlns:xlink="http://www.w3.org/1999/xlink" fill-rule="evenodd" height="0.548in" preserveAspectRatio="none" stroke-linecap="round" viewBox="0 0 549 548" width="0.549in">
<style type="text/css">
.brush0 { fill: rgb(255,255,255); }
.pen0 { stroke: rgb(0,0,0); stroke-width: 1; stroke-linejoin: round; }
.brush1 { fill: none; }
.pen1 { stroke: none; }
.brush2 { fill: rgb(0,0,0); }
</style>
<g>
<polygon class="pen1 brush2" points="275,548 303,547 330,542 356,536 382,526 405,515 428,501 449,485 469,468 486,448 502,427 516,404 527,381 537,355 543,329 548,302 549,274 548,246 543,219 537,193 527,167 516,144 502,121 486,100 469,80 449,63 428,47 405,33 382,22 356,12 330,6 303,1 275,0 247,1 220,6 193,12 168,22 144,33 121,47 100,63 81,80 63,100 47,121 33,144 22,167 12,193 6,219 1,246 0,274 1,302 6,329 12,355 22,381 33,404 47,427 63,448 81,468 100,485 121,501 144,515 168,526 193,536 220,542 247,547 275,548"/>
<polygon class="pen1 brush0" points="510,278 510,277 510,276 510,276 510,275 509,251 505,227 499,204 491,183 481,162 470,142 456,124 441,107 424,91 406,78 386,66 365,56 344,48 321,42 297,38 273,37 265,37 257,38 249,38 241,39 233,41 225,42 217,44 209,46 510,278"/>
<polygon class="pen1 brush0" points="187,496 197,500 208,503 218,505 229,508 240,510 251,511 262,512 273,512 291,511 308,509 325,506 342,502 358,496 374,489 389,482 403,473 417,463 430,453 442,441 453,429 464,416 473,402 482,388 489,373 187,496"/>
<polygon class="pen1 brush0" points="145,74 121,92 100,112 81,134 65,159 52,186 43,214 37,244 35,275 36,298 39,320 44,341 51,362 60,382 71,400 83,418 97,434 145,74"/>
<polygon class="pen1 brush0" points="197,408 228,182 408,322 197,408"/>
</g>
</svg>
