<?xml version="1.0" encoding="UTF-8" standalone="no"?>
<!DOCTYPE svg PUBLIC "-//W3C//DTD SVG 1.0//EN" "http://www.w3.org/TR/2001/REC-SVG-20010904/DTD/svg10.dtd">
<svg xmlns="http://www.w3.org/2000/svg" xmlns:xlink="http://www.w3.org/1999/xlink" fill-rule="evenodd" height="0.646in" preserveAspectRatio="none" stroke-linecap="round" viewBox="0 0 765 646" width="0.765in">
<style type="text/css">
.brush0 { fill: rgb(255,255,255); }
.pen0 { stroke: rgb(0,0,0); stroke-width: 1; stroke-linejoin: round; }
.brush1 { fill: none; }
.pen1 { stroke: none; }
.brush2 { fill: rgb(0,0,0); }
</style>
<g>
<polygon class="pen1 brush2" points="765,646 765,0 0,0 0,646 765,646"/>
<polygon class="pen1 brush0" points="381,280 356,278 333,270 313,259 295,244 280,226 269,206 261,183 259,158 261,134 269,111 280,90 295,72 313,57 333,46 356,38 381,36 405,38 428,46 448,57 466,72 481,90 492,111 500,134 502,158 500,183 492,206 481,226 466,244 448,259 428,270 405,278 381,280"/>
<polygon class="pen1 brush0" points="765,238 756,252 745,264 731,276 715,287 697,298 676,307 654,316 630,323 604,330 577,336 548,341 518,345 487,348 454,350 421,352 387,352 349,351 312,350 276,347 242,343 209,338 178,332 149,325 122,316 97,307 75,296 55,285 38,272 23,258 12,243 4,227 0,210 0,250 4,268 12,285 23,302 38,317 55,332 75,347 97,360 122,372 149,383 178,393 209,401 242,409 276,414 312,419 349,421 387,422 421,421 454,419 487,416 518,411 548,405 577,398 604,390 630,381 654,371 676,360 697,349 715,336 731,323 745,309 756,294 765,279 765,238"/>
<polygon class="pen1 brush0" points="376,159 717,98 717,222 376,159"/>
<polygon class="pen1 brush2" points="500,182 501,176 501,170 502,164 502,158 502,153 501,147 501,142 500,137 376,159 500,182"/>
<polygon class="pen1 brush2" points="381,124 370,126 360,130 351,136 344,142 337,149 332,155 329,159 328,161 329,163 332,167 337,173 344,179 351,186 360,192 370,196 381,198 392,196 402,192 411,186 419,179 425,173 430,167 433,163 434,161 433,159 430,155 425,149 419,142 411,136 402,130 392,126 381,124"/>
</g>
</svg>
