<?xml version="1.0" encoding="UTF-8" standalone="no"?>
<!DOCTYPE svg PUBLIC "-//W3C//DTD SVG 1.0//EN" "http://www.w3.org/TR/2001/REC-SVG-20010904/DTD/svg10.dtd">
<svg xmlns="http://www.w3.org/2000/svg" xmlns:xlink="http://www.w3.org/1999/xlink" fill-rule="evenodd" height="0.562in" preserveAspectRatio="none" stroke-linecap="round" viewBox="0 0 529 562" width="0.529in">
<style type="text/css">
.brush0 { fill: rgb(255,255,255); }
.pen0 { stroke: rgb(0,0,0); stroke-width: 1; stroke-linejoin: round; }
.brush1 { fill: none; }
.pen1 { stroke: none; }
.brush2 { fill: rgb(0,0,0); }
</style>
<g>
<polygon class="pen1 brush2" points="529,562 529,0 293,0 293,562 529,562"/>
<polygon class="pen1 brush2" points="166,56 160,57 152,60 144,64 134,69 125,74 116,79 108,84 101,89 95,93 88,99 80,105 71,113 62,123 52,136 41,152 30,171 20,191 13,209 8,226 4,241 3,255 2,267 3,277 4,286 7,304 10,325 13,345 18,362 22,370 26,379 30,390 35,400 41,411 47,422 54,432 62,442 69,452 78,463 89,473 100,482 112,490 124,498 135,504 145,509 154,513 164,516 174,519 184,521 194,523 203,524 211,524 219,524 227,524 236,524 245,523 255,523 264,522 272,522 280,522 286,522 292,522 298,521 304,520 311,519 317,517 323,514 328,511 333,508 338,505 343,503 349,500 355,498 361,496 368,493 375,490 382,486 389,481 396,475 403,468 409,461 416,453 422,446 428,440 433,434 439,428 445,419 451,410 457,399 462,390 468,381 473,373 477,368 484,356 490,336 493,315 494,299 494,283 493,262 490,240 483,223 484,201 479,180 472,163 463,150 459,145 453,139 447,132 440,124 433,117 426,109 420,103 415,97 409,91 401,84 392,77 381,69 371,62 360,56 350,52 341,51 346,56 352,62 358,67 366,71 373,76 380,80 385,83 389,86 393,89 398,95 405,101 412,109 419,116 425,124 431,131 435,136 442,149 450,167 456,187 458,205 464,206 466,231 466,262 463,291 454,312 451,320 446,330 441,342 434,353 427,364 419,374 411,381 403,385 393,388 385,392 377,396 370,401 364,406 357,411 352,416 346,420 340,424 333,428 327,431 319,434 312,437 303,439 294,440 285,441 276,442 268,443 262,444 258,445 255,446 253,446 251,447 251,447 243,444 233,441 223,437 212,434 201,430 191,427 181,424 173,422 169,418 164,415 160,412 155,409 151,406 146,403 141,400 136,396 129,390 121,381 111,370 102,358 93,344 85,330 79,316 76,303 78,291 75,277 73,257 70,236 67,220 70,202 76,179 83,158 91,142 96,135 103,125 111,114 121,102 132,89 145,77 158,67 172,58 166,56"/>
<polygon class="pen1 brush2" points="210,103 206,107 200,112 193,119 186,127 179,136 173,144 168,151 165,157 161,170 158,186 156,203 156,219 158,235 162,252 169,271 181,289 188,298 194,306 199,312 204,318 209,322 214,325 219,327 224,328 230,329 236,329 243,331 249,332 255,334 260,336 264,338 267,341 272,340 278,340 284,340 290,340 296,339 301,338 307,335 313,331 319,326 325,321 331,317 337,313 344,310 350,306 357,303 363,300 368,294 373,287 378,278 383,269 388,260 392,250 395,241 397,232 398,217 397,205 394,192 387,173 378,154 372,142 369,135 368,133 367,132 363,130 357,127 351,122 343,117 336,111 328,105 322,98 329,100 336,103 345,107 354,111 362,117 370,123 377,129 383,136 388,143 394,150 400,156 405,163 410,170 413,178 415,185 415,193 418,211 422,231 425,249 424,261 423,271 421,283 418,294 409,305 405,313 401,321 397,329 393,338 388,346 383,353 378,360 372,365 366,370 360,375 354,381 347,386 338,392 329,396 319,400 306,403 292,405 279,407 266,408 254,409 243,410 232,410 223,409 215,407 207,405 198,402 188,400 178,396 168,392 158,385 149,376 140,364 132,351 126,340 121,330 116,321 112,313 109,305 106,298 104,289 100,266 99,238 102,210 110,186 116,176 124,164 132,153 140,142 148,132 155,124 161,118 165,115 169,114 173,112 178,109 183,106 188,104 193,102 197,101 200,101 206,101 210,101 212,101 210,103"/>
<polygon class="pen1 brush2" points="268,180 265,188 265,199 267,209 272,215 275,217 280,218 284,219 289,220 294,220 298,219 302,218 305,215 307,207 307,196 303,186 297,178 300,179 305,181 309,184 314,187 318,191 321,195 322,199 320,204 324,213 327,221 326,229 320,235 318,244 315,252 309,260 296,265 287,267 279,268 271,269 264,268 258,268 253,266 249,264 246,262 242,256 239,249 236,241 232,232 231,226 231,218 232,209 236,200 241,192 248,185 257,181 268,180"/>
<polygon class="pen1 brush0" points="463,150 459,145 453,139 447,132 440,124 433,117 426,109 420,103 415,97 409,91 401,84 392,77 381,69 371,62 360,56 350,52 341,51 346,56 352,62 358,67 366,71 373,76 380,80 385,83 389,86 393,89 398,95 405,101 412,109 419,116 425,124 431,131 435,136 442,149 450,167 456,187 458,205 464,206 466,231 466,262 463,291 454,312 451,320 446,330 441,342 434,353 427,364 419,374 411,381 403,385 393,388 385,392 377,396 370,401 364,406 357,411 352,416 346,420 341,424 335,427 329,430 323,433 316,435 309,437 301,439 293,440 293,522 298,521 303,520 309,519 314,517 319,515 324,513 329,511 333,508 338,505 343,503 349,500 355,498 361,496 368,493 375,490 382,486 389,481 396,475 403,468 409,461 416,453 422,446 428,440 433,434 439,428 445,419 451,410 457,399 462,390 468,381 473,373 477,368 484,356 490,336 493,315 494,299 494,283 493,262 490,240 483,223 484,201 479,180 472,163 463,150"/>
<polygon class="pen1 brush0" points="383,136 377,129 370,123 362,117 354,111 345,107 336,103 329,100 322,98 328,105 336,111 343,117 351,122 357,127 363,130 367,132 368,133 369,135 372,142 378,154 387,173 394,192 397,205 398,217 397,232 395,241 392,250 388,260 383,269 378,278 373,287 368,294 363,300 357,303 350,306 344,310 337,313 331,317 325,321 319,326 313,331 308,335 303,337 298,339 293,340 293,404 296,404 300,403 303,403 306,403 319,400 329,396 338,392 347,386 354,381 360,375 366,370 372,365 378,360 383,353 388,346 393,338 397,329 401,321 405,313 409,305 418,294 421,283 423,271 424,261 425,249 422,231 418,211 415,193 415,185 413,178 410,170 405,163 400,156 394,150 388,143 383,136"/>
<polygon class="pen1 brush0" points="297,178 303,186 307,196 307,207 305,215 303,217 300,219 297,220 293,220 293,266 294,266 295,266 295,266 296,265 309,260 315,252 318,244 320,235 326,229 327,221 324,213 320,204 322,199 321,195 318,191 314,187 309,184 305,181 300,179 297,178"/>
</g>
</svg>
