<?xml version="1.0" encoding="UTF-8" standalone="no"?>
<!DOCTYPE svg PUBLIC "-//W3C//DTD SVG 1.0//EN" "http://www.w3.org/TR/2001/REC-SVG-20010904/DTD/svg10.dtd">
<svg xmlns="http://www.w3.org/2000/svg" xmlns:xlink="http://www.w3.org/1999/xlink" fill-rule="evenodd" height="0.552in" preserveAspectRatio="none" stroke-linecap="round" viewBox="0 0 551 552" width="0.551in">
<style type="text/css">
.brush0 { fill: rgb(255,255,255); }
.pen0 { stroke: rgb(0,0,0); stroke-width: 1; stroke-linejoin: round; }
.brush1 { fill: none; }
.pen1 { stroke: none; }
.brush2 { fill: rgb(0,0,0); }
</style>
<g>
<polygon class="pen1 brush2" points="276,552 304,551 331,546 357,540 383,530 407,519 429,505 451,489 470,471 488,451 504,430 518,407 529,383 539,358 545,331 550,304 551,276 550,248 545,220 539,194 529,169 518,145 504,122 488,101 470,81 451,63 429,47 407,33 383,22 357,12 331,6 304,1 276,0 248,1 220,6 194,12 168,22 144,33 121,47 100,63 81,81 63,101 47,122 33,145 22,169 12,194 6,220 1,248 0,276 1,304 6,331 12,358 22,383 33,407 47,430 63,451 81,471 100,489 121,505 144,519 168,530 194,540 220,546 248,551 276,552"/>
<polygon class="pen1 brush0" points="478,290 444,386 411,254 348,501 365,495 381,488 396,479 411,470 425,459 438,448 450,435 462,422 472,408 481,393 489,377 496,361 502,344 506,326 509,308 511,290 478,290"/>
<polygon class="pen1 brush0" points="73,264 124,155 161,307 208,193 244,280 298,47 352,386 413,144 448,295 459,264 511,264 509,241 504,219 498,197 489,177 479,157 467,139 453,122 438,106 422,92 404,79 385,68 365,58 344,51 322,45 299,42 276,41 253,42 230,45 208,51 187,58 167,68 148,79 130,92 113,106 98,122 85,139 72,157 62,177 54,197 47,219 42,241 40,264 73,264"/>
<polygon class="pen1 brush0" points="294,174 252,366 208,261 154,389 116,234 94,283 90,290 82,290 40,290 42,313 47,335 54,357 62,377 72,397 85,415 98,432 113,448 130,462 148,475 167,486 187,496 208,503 230,509 253,512 276,513 285,513 294,512 303,511 312,510 320,509 328,507 337,504 345,502 294,174"/>
</g>
</svg>
