<?xml version="1.0" encoding="UTF-8" standalone="no"?>
<!DOCTYPE svg PUBLIC "-//W3C//DTD SVG 1.0//EN" "http://www.w3.org/TR/2001/REC-SVG-20010904/DTD/svg10.dtd">
<svg xmlns="http://www.w3.org/2000/svg" xmlns:xlink="http://www.w3.org/1999/xlink" fill-rule="evenodd" height="0.559in" preserveAspectRatio="none" stroke-linecap="round" viewBox="0 0 559 559" width="0.559in">
<style type="text/css">
.brush0 { fill: rgb(255,255,255); }
.pen0 { stroke: rgb(0,0,0); stroke-width: 1; stroke-linejoin: round; }
.brush1 { fill: none; }
.pen1 { stroke: none; }
.brush2 { fill: rgb(0,0,0); }
</style>
<g>
<polygon class="pen1 brush2" points="280,559 309,558 336,553 363,546 389,537 413,525 436,511 457,495 477,477 495,457 511,436 525,413 537,389 546,363 553,336 558,309 559,280 558,251 553,224 546,197 537,171 525,147 511,124 495,102 477,82 457,64 436,48 413,34 389,22 363,13 336,6 309,1 280,0 251,1 223,6 197,13 171,22 146,34 123,48 102,64 82,82 64,102 48,124 34,147 22,171 13,197 6,224 1,251 0,280 1,309 6,336 13,363 22,389 34,413 48,436 64,457 82,477 102,495 123,511 146,525 171,537 197,546 223,553 251,558 280,559"/>
<polygon class="pen1 brush0" points="299,289 299,41 294,40 290,40 285,40 280,40 256,41 232,45 209,51 187,59 166,69 146,81 128,95 111,110 96,127 82,145 70,165 60,186 52,208 46,231 42,255 41,279 41,282 41,284 41,287 41,289 299,289"/>
<polygon class="pen1 brush0" points="378,289 518,289 518,287 518,284 518,282 518,279 515,244 508,210 496,178 479,148 459,122 435,98 408,78 378,62 378,289"/>
<polygon class="pen1 brush0" points="299,385 66,385 74,400 83,413 92,427 103,439 114,451 126,461 139,471 152,481 167,489 181,496 197,502 212,507 229,512 245,515 263,516 280,517 285,517 290,517 294,517 299,517 299,385"/>
<polygon class="pen1 brush0" points="378,385 378,496 396,487 414,476 430,464 445,450 459,436 472,420 483,403 493,385 378,385"/>
</g>
</svg>
