<?xml version="1.0" encoding="UTF-8" standalone="no"?>
<!DOCTYPE svg PUBLIC "-//W3C//DTD SVG 1.0//EN" "http://www.w3.org/TR/2001/REC-SVG-20010904/DTD/svg10.dtd">
<svg xmlns="http://www.w3.org/2000/svg" xmlns:xlink="http://www.w3.org/1999/xlink" fill-rule="evenodd" height="1.0in" preserveAspectRatio="none" stroke-linecap="round" viewBox="0 0 574 1000" width="0.574in">
<style type="text/css">
.brush0 { fill: rgb(255,255,255); }
.pen0 { stroke: rgb(0,0,0); stroke-width: 1; stroke-linejoin: round; }
.brush1 { fill: none; }
.pen1 { stroke: none; }
.brush2 { fill: rgb(0,0,0); }
</style>
<g>
<polygon class="pen1 brush2" points="264,560 284,561 303,563 322,567 340,573 358,580 375,588 392,598 408,609 425,624 441,641 456,659 469,678 480,697 489,718 495,739 500,760 502,785 501,810 496,835 488,860 476,884 459,908 438,930 413,952 403,959 392,965 382,971 371,976 360,980 350,984 339,987 328,989 317,991 306,992 296,992 285,992 274,992 264,991 253,989 243,987 224,982 206,976 189,968 172,959 155,949 140,938 125,925 112,912 96,894 82,874 70,853 61,832 53,810 48,788 45,765 45,743 48,724 53,705 60,688 69,671 80,655 92,640 106,626 121,613 137,601 154,591 172,582 190,574 208,568 227,564 245,561 264,560 264,560"/>
<polygon class="pen1 brush2" points="267,489 260,486 252,484 244,482 235,480 226,478 218,475 209,473 200,469 216,450 234,432 253,416 273,401 294,388 317,376 340,366 365,357 389,350 415,344 441,340 467,337 494,335 521,335 547,336 574,338 571,350 563,363 551,376 534,389 514,402 492,414 468,427 442,438 416,449 390,459 364,468 339,475 317,481 297,486 280,488 267,489 267,489"/>
<polygon class="pen1 brush2" points="210,436 194,216 185,198 175,181 165,164 155,148 144,133 133,118 122,104 110,90 97,77 85,64 72,53 58,41 44,30 30,20 15,10 0,0 210,436 210,436"/>
<polygon class="pen1 brush2" points="233,410 315,352 330,317 343,281 354,245 362,209 368,173 371,137 371,101 369,64 348,75 329,89 310,106 294,124 279,144 265,165 253,188 243,211 235,236 229,261 224,287 222,312 221,337 223,362 227,387 233,410"/>
</g>
</svg>
