<?xml version="1.0" encoding="UTF-8" standalone="no"?>
<!DOCTYPE svg PUBLIC "-//W3C//DTD SVG 1.0//EN" "http://www.w3.org/TR/2001/REC-SVG-20010904/DTD/svg10.dtd">
<svg xmlns="http://www.w3.org/2000/svg" xmlns:xlink="http://www.w3.org/1999/xlink" fill-rule="evenodd" height="1.079in" preserveAspectRatio="none" stroke-linecap="round" viewBox="0 0 969 1079" width="0.969in">
<style type="text/css">
.brush0 { fill: rgb(255,255,255); }
.pen0 { stroke: rgb(0,0,0); stroke-width: 1; stroke-linejoin: round; }
.brush1 { fill: none; }
.pen1 { stroke: none; }
.brush2 { fill: rgb(0,0,0); }
</style>
<g>
<polygon class="pen1 brush2" points="366,546 373,556 380,565 387,573 393,580 399,587 405,593 410,598 414,602 470,622 516,622 569,596 573,582 579,565 586,544 595,522 599,457 598,456 596,453 593,448 589,442 585,435 580,427 574,419 569,410 508,385 459,379 447,355 433,322 421,284 413,244 412,207 421,176 442,154 478,146 521,154 548,174 561,204 563,241 556,281 543,320 526,356 508,385 569,410 572,393 578,376 586,358 596,341 608,325 621,309 635,295 650,281 666,270 683,261 699,253 716,249 732,247 748,249 762,254 776,263 789,278 797,293 798,309 794,325 786,342 774,358 759,373 742,388 723,403 703,416 683,427 663,437 644,446 626,452 611,456 599,457 595,522 643,520 684,525 717,534 743,546 762,562 776,580 783,598 784,617 780,634 771,649 757,662 738,670 716,673 690,670 660,661 627,643 615,635 605,628 596,622 589,616 583,611 578,606 574,601 569,596 516,622 526,647 539,680 552,716 561,753 563,787 553,815 529,835 486,842 526,890 556,873 579,854 596,833 608,810 614,785 615,758 612,727 604,693 607,694 611,694 614,696 618,697 623,700 627,702 633,705 638,708 670,724 702,732 732,732 760,726 785,715 807,699 825,679 839,657 847,632 851,606 848,579 839,553 822,528 798,505 765,484 724,468 727,462 729,458 730,455 731,454 769,433 800,409 823,383 839,356 849,329 853,302 850,276 843,252 830,232 811,214 789,202 762,194 731,193 697,199 659,212 619,234 615,194 605,160 588,133 568,113 543,98 517,90 489,88 461,91 435,100 410,114 389,134 373,158 362,187 358,221 362,259 375,301 366,301 366,301 355,300 343,296 332,290 319,283 307,275 294,267 281,259 268,252 254,246 240,242 225,240 210,241 195,245 179,254 163,266 146,284 130,306 118,327 111,346 107,364 108,381 111,396 117,411 126,425 136,438 149,451 163,463 178,476 193,488 209,499 224,512 239,524 201,542 171,563 148,587 132,614 123,641 120,669 123,695 132,720 145,743 164,762 188,776 216,786 248,789 284,785 324,772 366,751 370,788 379,816 393,839 408,858 423,875 437,894 446,915 450,942 429,923 406,905 382,889 357,873 330,859 303,846 275,835 246,824 217,816 187,809 158,803 128,799 98,797 69,797 40,798 12,802 0,818 28,828 55,839 82,852 107,865 132,880 157,895 181,911 204,928 227,945 250,963 272,982 294,1001 316,1020 338,1040 359,1059 381,1079 557,1079 574,1058 592,1038 611,1016 632,995 654,974 678,954 702,934 727,915 752,897 779,880 805,865 832,852 859,840 886,830 913,823 940,818 911,803 883,793 855,786 827,784 800,784 773,788 746,795 720,803 694,815 669,828 644,842 620,858 597,875 574,892 552,909 531,927 526,920 524,910 525,900 526,890 486,842 447,835 424,815 416,787 418,752 428,715 442,679 457,647 470,622 414,602 407,617 399,632 389,647 379,661 367,675 354,689 340,701 326,712 311,721 295,728 279,733 263,736 246,736 229,733 212,727 195,717 178,703 168,688 163,674 165,659 171,645 181,630 195,617 212,604 231,592 251,581 272,571 293,562 314,555 333,550 351,547 366,546 360,487 332,486 277,474 235,458 204,438 183,416 172,393 170,371 175,350 186,331 203,317 224,307 249,303 277,307 305,320 335,342 364,376 391,421 391,421 387,426 383,433 378,441 373,450 368,460 364,469 361,479 360,487 366,546"/>
</g>
</svg>
