<?xml version="1.0" encoding="UTF-8" standalone="no"?>
<!DOCTYPE svg PUBLIC "-//W3C//DTD SVG 1.0//EN" "http://www.w3.org/TR/2001/REC-SVG-20010904/DTD/svg10.dtd">
<svg xmlns="http://www.w3.org/2000/svg" xmlns:xlink="http://www.w3.org/1999/xlink" fill-rule="evenodd" height="0.966in" preserveAspectRatio="none" stroke-linecap="round" viewBox="0 0 993 966" width="0.993in">
<style type="text/css">
.brush0 { fill: rgb(255,255,255); }
.pen0 { stroke: rgb(0,0,0); stroke-width: 1; stroke-linejoin: round; }
.brush1 { fill: none; }
.pen1 { stroke: none; }
.brush2 { fill: rgb(0,0,0); }
</style>
<g>
<polygon class="pen1 brush2" points="492,462 283,195 286,168 295,147 310,130 328,120 347,116 367,120 384,131 398,151 399,148 400,132 403,109 408,81 418,52 434,27 458,9 492,2 527,8 552,24 570,48 581,76 586,103 588,127 587,144 584,150 602,135 620,126 638,123 655,127 671,136 683,151 693,170 699,194 492,462 492,462"/>
<polygon class="pen1 brush2" points="469,516 250,219 226,217 204,221 187,230 173,243 164,260 161,279 163,300 172,323 171,321 167,319 160,316 152,313 141,310 128,307 115,305 101,304 86,305 71,307 57,311 44,317 32,325 21,336 12,350 6,368 3,387 4,403 7,418 13,432 26,449 42,463 59,475 77,484 93,491 105,495 113,498 114,499 91,507 75,521 65,540 62,561 66,582 76,602 94,619 118,630 469,516 469,516"/>
<polygon class="pen1 brush2" points="523,519 874,623 895,610 910,594 919,576 923,558 921,540 914,523 899,508 879,495 881,495 886,493 896,489 907,483 921,476 935,466 949,455 962,442 969,434 975,425 980,416 984,406 986,396 986,385 985,374 982,363 975,349 965,338 954,329 941,323 928,318 913,316 898,314 884,314 870,315 857,316 845,318 834,319 826,321 821,321 818,321 818,320 832,300 837,278 833,258 823,239 807,224 786,215 762,212 736,218 523,519 523,519"/>
<polygon class="pen1 brush2" points="460,571 473,918 465,929 455,937 445,944 434,948 423,951 411,952 400,952 389,949 379,945 370,940 362,933 355,925 351,915 348,905 347,893 348,881 346,881 341,887 334,896 323,907 311,920 296,932 280,943 262,951 254,953 245,954 236,954 226,953 217,950 207,946 198,940 189,932 165,904 154,875 153,847 160,821 170,799 182,782 192,771 198,769 174,771 153,766 136,757 123,743 115,726 112,706 116,685 125,662 460,571 460,571"/>
<polygon class="pen1 brush2" points="527,571 860,665 873,688 877,711 874,733 864,753 850,769 831,778 809,780 786,773 787,776 793,789 803,809 812,834 818,862 818,891 808,918 786,942 773,950 759,955 747,957 734,957 722,956 710,953 699,948 689,942 676,933 665,924 655,914 647,905 641,897 637,890 635,886 635,884 633,896 630,906 625,916 620,924 614,931 607,937 599,942 591,945 583,947 575,947 566,946 557,944 548,940 538,934 529,927 520,918 527,571"/>
</g>
</svg>
