<?xml version="1.0" encoding="UTF-8" standalone="no"?>
<!DOCTYPE svg PUBLIC "-//W3C//DTD SVG 1.0//EN" "http://www.w3.org/TR/2001/REC-SVG-20010904/DTD/svg10.dtd">
<svg xmlns="http://www.w3.org/2000/svg" xmlns:xlink="http://www.w3.org/1999/xlink" fill-rule="evenodd" height="0.584in" preserveAspectRatio="none" stroke-linecap="round" viewBox="0 0 593 584" width="0.593in">
<style type="text/css">
.brush0 { fill: rgb(255,255,255); }
.pen0 { stroke: rgb(0,0,0); stroke-width: 1; stroke-linejoin: round; }
.brush1 { fill: none; }
.pen1 { stroke: none; }
.brush2 { fill: rgb(0,0,0); }
</style>
<g>
<polygon class="pen1 brush2" points="52,158 42,136 34,116 28,97 25,81 23,66 25,54 28,44 34,37 39,34 45,31 51,30 59,30 67,30 76,32 86,34 97,38 109,42 121,47 134,53 147,60 161,68 175,76 190,86 206,96 231,114 256,133 282,154 307,176 333,199 358,224 382,249 406,274 429,300 451,326 471,353 491,379 509,404 525,429 539,453 551,476 562,502 568,523 569,540 564,550 559,553 551,554 542,554 530,551 515,546 498,537 479,526 457,512 441,501 425,488 409,475 393,461 376,446 360,431 345,415 330,399 315,382 301,366 288,349 276,333 264,317 254,301 245,286 237,271 230,253 226,240 226,231 228,226 231,225 235,224 240,224 247,226 256,229 266,234 279,241 293,250 313,265 334,283 354,302 374,323 392,344 408,365 422,385 433,404 438,415 440,423 440,427 439,429 438,430 436,430 433,430 429,429 424,427 418,424 410,420 401,414 388,404 375,393 362,381 350,368 338,355 328,342 319,329 312,317 309,310 308,306 308,304 308,303 308,303 308,303 308,304 307,304 308,304 312,304 319,307 329,313 337,319 345,326 353,334 361,342 368,351 374,359 380,367 384,375 384,375 386,377 389,379 391,379 394,379 396,377 398,374 398,372 398,369 398,369 393,360 387,351 380,342 372,333 364,324 355,315 346,308 337,301 330,297 324,294 319,291 314,290 309,289 305,289 301,290 298,292 295,297 294,304 295,313 299,323 306,336 315,349 326,363 339,377 352,391 365,404 379,416 393,426 403,432 412,437 420,441 427,443 434,444 440,444 445,443 449,440 454,433 455,424 452,412 446,397 435,377 421,356 404,335 385,313 365,292 344,272 323,254 302,238 291,231 280,224 268,218 256,213 245,210 235,209 226,211 219,215 212,225 211,238 215,256 224,277 232,292 241,308 251,324 263,341 276,358 289,375 303,392 318,408 334,425 350,441 366,457 382,472 399,487 416,501 432,513 448,525 465,536 482,546 500,555 517,562 534,567 549,569 562,567 573,561 581,551 584,533 580,506 565,469 552,446 538,421 521,396 503,370 483,344 462,318 440,291 417,265 392,239 367,213 342,189 316,165 291,143 265,121 239,102 214,84 197,73 181,62 165,53 150,44 135,37 121,31 108,25 96,21 84,18 73,16 63,15 53,15 45,16 37,18 30,22 24,26 16,35 11,47 9,61 10,77 13,96 19,117 28,140 39,165 39,165 41,167 43,168 46,169 49,168 51,166 52,164 53,161 52,158 52,158"/>
<polygon class="pen1 brush2" points="73,245 67,236 66,226 67,216 73,208 77,205 82,202 87,201 92,201 97,201 102,203 106,205 110,209 116,218 117,227 115,237 109,246 105,249 101,251 96,253 91,253 86,252 81,251 77,248 73,245"/>
<polygon class="pen1 brush2" points="26,172 19,161 17,149 20,137 27,127 32,123 38,120 44,119 50,118 56,119 62,121 67,124 72,128 79,139 81,151 78,163 71,173 66,177 60,180 54,181 48,181 42,181 36,179 31,176 26,172"/>
<polygon class="pen1 brush2" points="123,300 119,293 117,285 119,277 123,270 127,267 130,266 134,265 138,264 142,265 146,266 150,268 153,271 157,278 159,286 157,294 152,301 145,305 137,306 129,305 123,300"/>
<polygon class="pen1 brush2" points="165,347 162,342 161,335 162,329 165,324 171,320 177,319 184,320 189,324 192,330 193,336 192,343 188,348 183,351 177,352 170,351 165,347"/>
<polygon class="pen1 brush2" points="216,397 214,394 213,390 214,386 217,383 220,381 225,380 229,381 232,384 234,387 235,391 234,395 231,398 228,400 224,401 219,400 216,397"/>
</g>
</svg>
