<?xml version="1.0" encoding="UTF-8" standalone="no"?>
<!DOCTYPE svg PUBLIC "-//W3C//DTD SVG 1.0//EN" "http://www.w3.org/TR/2001/REC-SVG-20010904/DTD/svg10.dtd">
<svg xmlns="http://www.w3.org/2000/svg" xmlns:xlink="http://www.w3.org/1999/xlink" fill-rule="evenodd" height="0.848in" preserveAspectRatio="none" stroke-linecap="round" viewBox="0 0 1085 848" width="1.085in">
<style type="text/css">
.brush0 { fill: rgb(255,255,255); }
.pen0 { stroke: rgb(0,0,0); stroke-width: 1; stroke-linejoin: round; }
.brush1 { fill: none; }
.pen1 { stroke: none; }
.brush2 { fill: rgb(0,0,0); }
</style>
<g>
<polygon class="pen1 brush2" points="391,335 377,354 361,368 343,377 324,382 304,384 283,384 261,384 238,384 197,389 161,403 131,424 106,452 87,484 74,520 66,559 63,598 66,638 75,676 90,712 111,744 137,771 169,792 208,805 252,810 269,808 274,803 270,795 259,787 244,777 228,768 215,761 208,755 197,741 190,727 188,715 188,703 192,692 199,682 208,673 218,664 230,657 243,650 257,643 271,638 284,633 297,628 308,624 318,621 340,610 357,596 369,579 377,560 382,539 386,517 391,496 396,475 347,469 342,499 329,521 310,535 288,541 266,539 247,530 234,513 229,489 229,489 234,463 247,443 266,430 288,424 310,425 329,433 342,447 347,469 396,475 399,465 403,456 408,448 414,440 421,433 429,426 439,421 450,416 458,436 462,456 462,477 460,499 455,521 449,544 442,567 436,590 432,613 429,636 429,659 433,682 442,705 456,726 476,748 503,768 516,774 535,780 557,785 580,787 601,786 620,781 632,770 637,753 623,752 609,748 595,742 583,734 573,724 564,712 559,699 557,684 560,665 570,647 583,631 599,615 615,599 631,583 645,566 654,547 592,486 588,511 576,529 560,542 542,547 523,546 507,538 495,522 491,499 491,499 491,499 495,470 507,450 523,438 542,433 560,436 576,446 588,463 592,486 654,547 660,524 664,502 663,482 660,463 655,446 646,430 636,416 623,404 609,393 593,383 575,375 556,369 537,364 516,360 495,358 474,358 484,342 496,327 509,314 523,302 538,291 554,281 570,273 587,266 605,261 623,257 641,254 659,253 677,253 695,255 713,258 731,262 759,270 783,280 806,291 828,303 848,317 867,332 885,349 900,366 915,385 928,405 939,425 949,447 957,470 963,494 967,518 970,544 971,570 971,570 943,565 916,557 892,548 870,536 850,522 832,506 815,488 801,468 789,447 779,425 771,402 765,377 760,351 758,325 758,298 759,270 731,262 732,296 734,328 737,358 743,387 750,414 759,439 769,463 782,485 797,506 814,525 834,543 855,559 880,574 907,588 936,601 969,612 964,637 950,662 933,685 914,708 897,730 887,751 885,772 896,792 915,806 936,809 956,803 975,789 992,771 1007,751 1019,730 1026,712 1035,674 1040,637 1040,600 1037,563 1030,528 1020,493 1007,459 990,427 970,397 948,368 923,341 896,317 866,294 834,275 800,258 765,244 773,216 785,189 800,164 818,142 840,123 864,109 892,99 922,96 948,99 959,107 961,119 956,134 949,151 945,169 945,186 956,202 978,214 999,214 1018,205 1032,189 1040,167 1040,143 1030,118 1008,94 986,79 964,69 943,63 921,62 901,64 880,70 860,79 842,91 824,105 807,121 791,139 777,158 764,178 752,198 743,219 735,239 718,236 702,234 686,233 670,232 655,233 639,234 624,236 610,239 595,243 581,248 567,254 553,260 539,267 525,276 512,285 498,295 489,301 482,307 475,312 469,316 464,319 460,322 457,324 455,325 464,290 472,253 475,217 474,182 464,151 445,127 414,111 369,105 369,105 369,105 355,106 341,109 326,114 312,121 298,128 284,136 269,143 255,151 241,158 226,164 212,168 198,171 184,171 170,169 157,164 143,155 127,136 122,118 126,100 135,83 143,69 148,58 146,51 133,48 117,52 102,63 90,78 80,97 72,118 66,139 62,158 61,173 64,212 71,243 83,268 99,286 117,299 139,308 163,313 189,315 215,315 243,314 270,313 297,313 323,314 348,318 371,324 391,335 353,282 337,279 324,272 314,261 307,248 305,233 306,218 312,205 324,193 354,180 380,182 400,195 413,215 416,238 408,260 388,276 353,282 391,335"/>
</g>
</svg>
