<?xml version="1.0" encoding="UTF-8" standalone="no"?>
<!DOCTYPE svg PUBLIC "-//W3C//DTD SVG 1.0//EN" "http://www.w3.org/TR/2001/REC-SVG-20010904/DTD/svg10.dtd">
<svg xmlns="http://www.w3.org/2000/svg" xmlns:xlink="http://www.w3.org/1999/xlink" fill-rule="evenodd" height="0.592in" preserveAspectRatio="none" stroke-linecap="round" viewBox="0 0 412 592" width="0.412in">
<style type="text/css">
.brush0 { fill: rgb(255,255,255); }
.pen0 { stroke: rgb(0,0,0); stroke-width: 1; stroke-linejoin: round; }
.brush1 { fill: none; }
.pen1 { stroke: none; }
.brush2 { fill: rgb(0,0,0); }
</style>
<g>
<polygon class="pen1 brush2" points="207,423 215,422 222,420 228,417 233,412 238,406 241,400 243,393 244,386 243,379 241,372 238,366 233,360 228,355 222,352 215,350 207,349 199,350 192,352 186,355 180,360 175,366 172,372 170,379 169,386 170,393 172,400 175,406 180,412 186,417 192,420 199,422 207,423"/>
<polygon class="pen1 brush2" points="207,300 189,302 173,307 158,315 146,325 135,338 127,353 122,369 120,386 122,403 127,419 135,434 146,447 158,457 173,465 189,470 207,472 224,470 240,465 255,457 267,447 277,434 285,419 290,403 292,386 290,369 285,353 277,338 267,325 255,315 240,307 224,302 207,300 207,326 219,327 230,331 240,336 249,344 256,353 261,363 265,374 266,386 265,398 261,409 256,419 249,428 240,436 230,441 219,445 207,446 195,445 183,441 173,436 164,428 156,419 151,409 147,398 146,386 147,374 151,363 156,353 164,344 173,336 183,331 195,327 207,326 207,300"/>
<polygon class="pen1 brush2" points="207,242 178,245 151,253 126,267 105,284 87,306 73,330 65,357 62,386 65,415 73,442 87,466 105,488 126,505 151,519 178,527 207,530 236,527 263,519 287,505 308,488 326,466 339,442 347,415 350,386 347,357 339,330 326,306 308,284 287,267 263,253 236,245 207,242 207,271 230,273 251,280 271,291 288,305 302,322 312,341 319,363 321,386 319,409 312,431 302,450 288,467 271,481 251,492 230,499 207,501 184,499 162,492 142,481 125,467 111,450 100,431 93,409 91,386 93,363 100,341 111,322 125,305 142,291 162,280 184,273 207,271 207,242"/>
<polygon class="pen1 brush2" points="207,180 186,181 165,184 146,189 127,196 108,205 91,215 75,227 61,240 47,255 35,271 25,288 16,306 9,325 4,344 1,365 0,386 1,407 4,427 9,447 16,466 25,484 35,501 47,517 61,531 75,545 91,557 108,567 127,576 146,583 165,588 186,591 207,592 228,591 248,588 268,583 287,576 305,567 322,557 337,545 352,531 365,517 377,501 387,484 396,466 403,447 408,427 411,407 412,386 411,365 408,344 403,325 396,306 387,288 377,271 365,255 352,240 337,227 322,215 305,205 287,196 268,189 248,184 228,181 207,180 207,210 225,211 242,214 259,218 275,224 290,231 305,240 318,250 331,262 342,274 352,288 361,302 368,318 374,334 378,351 381,368 382,386 381,404 378,421 374,438 368,454 361,470 352,484 342,497 331,510 318,521 305,531 290,540 275,547 259,553 242,557 225,560 207,561 189,560 172,557 155,553 139,547 123,540 109,531 95,521 83,510 71,497 61,484 52,470 45,454 39,438 35,421 32,404 31,386 32,368 35,351 39,334 45,318 52,302 61,288 71,274 83,262 95,250 109,240 123,231 139,224 155,218 172,214 189,211 207,210 207,180"/>
<polygon class="pen1 brush2" points="123,147 207,0 291,147 123,147"/>
<polygon class="pen1 brush2" points="231,405 231,106 183,106 183,405 231,405"/>
</g>
</svg>
