<?xml version="1.0" encoding="UTF-8" standalone="no"?>
<!DOCTYPE svg PUBLIC "-//W3C//DTD SVG 1.0//EN" "http://www.w3.org/TR/2001/REC-SVG-20010904/DTD/svg10.dtd">
<svg xmlns="http://www.w3.org/2000/svg" xmlns:xlink="http://www.w3.org/1999/xlink" fill-rule="evenodd" height="0.513in" preserveAspectRatio="none" stroke-linecap="round" viewBox="0 0 168 513" width="0.168in">
<style type="text/css">
.brush0 { fill: rgb(255,255,255); }
.pen0 { stroke: rgb(0,0,0); stroke-width: 1; stroke-linejoin: round; }
.brush1 { fill: none; }
.pen1 { stroke: none; }
.brush2 { fill: rgb(0,0,0); }
</style>
<g>
<polygon class="pen1 brush2" points="46,6 38,5 30,3 24,1 21,0 24,4 30,10 36,18 39,23 37,30 31,40 26,48 23,52 25,51 32,48 41,44 52,40 63,36 74,32 82,30 88,30 92,32 97,34 102,36 107,39 111,43 113,46 114,49 112,52 108,55 103,58 98,61 93,64 87,67 81,70 75,72 70,73 65,74 59,75 53,77 48,78 43,81 39,83 35,86 32,89 26,95 20,102 17,110 22,121 28,127 35,131 42,133 49,134 56,133 63,132 69,130 76,129 82,128 86,127 91,127 95,126 99,126 104,127 110,129 117,131 123,134 129,137 134,139 138,142 140,145 141,147 140,150 138,153 134,156 129,159 123,162 116,164 110,166 104,168 99,169 95,169 92,169 87,169 82,169 76,169 70,169 64,169 60,169 56,169 52,169 46,170 40,171 33,173 26,175 20,178 15,181 13,184 11,195 10,209 15,223 28,229 37,229 45,229 52,228 59,228 67,228 74,228 82,229 90,230 99,232 107,233 114,234 121,234 126,235 131,236 134,237 136,239 141,245 147,253 148,260 142,263 137,263 132,262 128,262 124,261 119,261 114,260 107,261 98,261 88,261 78,261 68,261 59,261 50,261 42,262 35,264 30,267 26,271 21,276 16,281 11,287 7,293 4,298 3,304 3,310 5,315 8,320 13,323 19,326 25,328 32,329 39,330 46,330 52,329 59,328 64,327 70,326 75,324 80,323 85,322 91,322 97,322 103,322 109,322 115,322 121,322 126,323 130,325 133,327 139,334 142,341 142,348 137,352 133,353 129,354 124,354 119,355 113,356 107,356 101,357 94,358 83,360 75,361 70,364 66,368 63,374 61,379 61,385 64,390 70,406 54,404 24,392 25,394 29,399 36,410 47,427 54,437 60,447 67,457 73,467 79,476 83,484 86,492 88,498 91,501 95,492 98,480 100,474 100,470 100,461 102,451 106,443 112,436 116,427 121,418 126,410 130,404 134,399 137,395 138,394 119,398 88,409 86,405 82,395 79,385 79,377 79,379 83,379 88,378 94,376 100,373 105,371 107,370 107,370 112,369 117,370 122,370 127,371 132,372 137,372 142,370 147,366 156,356 162,348 164,340 161,333 158,329 155,325 151,321 147,317 142,313 137,310 132,308 127,307 121,307 114,306 107,306 100,305 93,305 86,305 80,305 75,306 70,307 63,309 56,310 48,311 41,312 36,312 32,310 31,307 30,299 29,293 31,289 41,285 49,284 58,283 67,282 76,281 85,281 93,280 101,280 108,279 115,279 122,279 129,280 136,280 142,280 147,280 151,279 153,276 156,268 159,259 160,249 157,240 154,235 151,230 148,225 143,220 136,216 127,213 115,211 100,210 94,210 85,212 75,213 64,214 53,215 44,215 37,214 34,211 33,204 33,197 36,191 41,186 45,184 49,183 53,182 59,182 65,182 72,182 79,182 88,182 97,182 106,182 115,181 123,181 131,180 138,178 144,176 149,173 156,163 156,149 150,134 138,123 131,119 125,116 119,114 115,113 111,112 107,111 105,110 103,109 101,108 98,107 95,107 91,107 86,107 82,107 77,108 73,108 68,108 63,109 57,110 51,110 47,109 43,109 42,107 43,104 48,98 53,93 60,89 71,88 77,88 82,88 87,89 91,89 95,89 98,88 101,86 104,83 108,80 114,76 120,73 126,70 132,66 137,62 140,57 141,52 140,42 137,36 129,31 115,25 106,22 99,19 93,16 89,14 85,13 80,12 76,12 70,12 65,11 61,9 55,7 46,6"/>
</g>
</svg>
