<?xml version="1.0" encoding="UTF-8" standalone="no"?>
<!DOCTYPE svg PUBLIC "-//W3C//DTD SVG 1.0//EN" "http://www.w3.org/TR/2001/REC-SVG-20010904/DTD/svg10.dtd">
<svg xmlns="http://www.w3.org/2000/svg" xmlns:xlink="http://www.w3.org/1999/xlink" fill-rule="evenodd" height="0.768in" preserveAspectRatio="none" stroke-linecap="round" viewBox="0 0 457 768" width="0.457in">
<style type="text/css">
.brush0 { fill: rgb(255,255,255); }
.pen0 { stroke: rgb(0,0,0); stroke-width: 1; stroke-linejoin: round; }
.brush1 { fill: none; }
.pen1 { stroke: none; }
.brush2 { fill: rgb(0,0,0); }
</style>
<g>
<polygon class="pen1 brush2" points="289,767 289,0 15,0 15,767 289,767"/>
<polygon class="pen1 brush2" points="367,454 356,509 342,559 327,605 309,644 289,677 268,703 246,722 223,733 213,735 202,736 192,735 181,732 171,727 160,720 150,712 139,702 112,665 90,618 72,561 59,496 51,427 49,354 52,280 61,207 68,173 76,141 86,113 97,88 109,67 122,51 136,39 150,32 156,31 163,30 169,31 175,33 181,36 187,40 193,45 199,51 215,74 229,104 240,140 249,181 254,225 255,271 254,317 248,363 243,387 238,408 231,426 224,441 217,453 209,462 201,468 194,472 191,473 185,472 178,469 168,461 158,447 149,428 142,405 137,380 134,352 133,323 134,294 138,265 141,251 144,238 148,228 152,219 157,211 161,206 165,202 169,200 170,199 173,199 176,201 181,205 191,224 199,253 202,288 199,326 195,344 191,355 186,361 180,362 172,356 166,339 162,315 161,287 156,285 152,311 151,337 154,362 164,381 170,387 177,391 183,392 190,391 196,388 202,384 207,379 212,371 216,363 220,354 223,343 226,331 228,310 229,288 228,267 226,247 221,228 216,211 209,197 201,186 195,180 189,177 183,174 178,172 173,172 168,172 164,172 161,173 152,177 144,183 137,191 130,201 124,213 119,228 114,243 111,261 107,293 106,326 107,358 111,388 117,417 125,442 136,463 148,480 154,486 161,491 167,494 174,497 181,499 188,499 195,499 202,497 214,492 226,483 237,471 247,456 255,438 263,417 269,394 274,368 280,318 282,268 280,219 275,172 265,129 253,90 237,57 219,32 208,21 197,14 186,8 176,5 167,3 158,3 150,3 142,5 124,13 107,27 91,45 76,69 63,96 52,128 42,164 34,203 25,279 22,356 25,432 33,505 48,572 67,632 91,682 119,721 135,736 151,748 167,756 181,761 195,764 208,764 220,763 231,760 245,755 258,747 271,738 284,726 296,713 308,698 319,681 330,663 340,643 350,621 359,597 368,572 375,546 383,518 389,489 395,459 367,454"/>
<polygon class="pen1 brush0" points="289,677 282,688 274,697 266,706 258,714 249,720 241,726 232,730 223,733 213,735 202,736 192,735 181,732 171,727 160,720 150,712 139,702 112,665 90,618 72,561 59,496 51,427 49,354 52,280 61,207 68,173 76,141 86,113 97,88 109,67 122,51 136,39 150,32 156,31 163,30 169,31 175,33 181,36 187,40 193,45 199,51 215,74 229,104 240,140 249,181 254,225 255,271 254,317 248,363 243,387 238,408 231,426 224,441 217,453 209,462 201,468 194,472 191,473 185,472 178,469 168,461 158,447 149,428 142,405 137,380 134,352 133,323 134,294 138,265 141,251 144,238 148,228 152,219 157,211 161,206 165,202 169,200 170,199 173,199 176,201 181,205 191,224 199,253 202,288 199,326 195,344 191,355 186,361 180,362 172,356 166,339 162,315 161,287 156,285 152,311 151,337 154,362 164,381 170,387 177,391 183,392 190,391 196,388 202,384 207,379 212,371 216,363 220,354 223,343 226,331 228,310 229,288 228,267 226,247 221,228 216,211 209,197 201,186 195,180 189,177 183,174 178,172 173,172 168,172 164,172 161,173 152,177 144,183 137,191 130,201 124,213 119,228 114,243 111,261 107,293 106,326 107,358 111,388 117,417 125,442 136,463 148,480 154,486 161,491 167,494 174,497 181,499 188,499 195,499 202,497 214,492 226,483 237,471 247,456 255,438 263,417 269,394 274,368 280,318 282,268 280,219 275,172 265,129 253,90 237,57 219,32 208,21 197,14 186,8 176,5 167,3 158,3 150,3 142,5 124,13 107,27 91,45 76,69 63,96 52,128 42,164 34,203 25,279 22,356 25,432 33,505 48,572 67,632 91,682 119,721 135,736 151,748 167,756 181,761 195,764 208,764 220,763 231,760 239,757 246,754 254,750 261,745 268,740 275,734 282,727 289,720 289,677"/>
<polygon class="pen1 brush2" points="303,510 393,384 457,572 384,458 303,510"/>
</g>
</svg>
