<?xml version="1.0" encoding="UTF-8" standalone="no"?>
<!DOCTYPE svg PUBLIC "-//W3C//DTD SVG 1.0//EN" "http://www.w3.org/TR/2001/REC-SVG-20010904/DTD/svg10.dtd">
<svg xmlns="http://www.w3.org/2000/svg" xmlns:xlink="http://www.w3.org/1999/xlink" fill-rule="evenodd" height="0.893in" preserveAspectRatio="none" stroke-linecap="round" viewBox="0 0 571 893" width="0.571in">
<style type="text/css">
.brush0 { fill: rgb(255,255,255); }
.pen0 { stroke: rgb(0,0,0); stroke-width: 1; stroke-linejoin: round; }
.brush1 { fill: none; }
.pen1 { stroke: none; }
.brush2 { fill: rgb(0,0,0); }
</style>
<g>
<polygon class="pen1 brush2" points="0,893 212,0 423,893 0,893"/>
<polygon class="pen1 brush2" points="168,676 168,676 169,674 172,671 176,666 181,661 187,654 195,647 204,639 214,632 225,625 237,619 251,613 265,609 280,607 297,606 314,608 332,612 350,617 368,622 386,626 403,630 421,633 438,634 454,635 470,634 486,632 500,629 515,623 528,616 540,606 551,594 562,580 571,563 546,552 540,563 534,573 527,581 519,589 511,595 501,599 491,603 479,606 466,607 452,607 437,607 421,605 403,602 384,597 363,592 340,586 318,581 298,579 278,580 260,583 243,588 227,594 212,602 199,610 187,619 176,628 167,636 159,644 153,651 149,656 146,660 145,661 168,676"/>
<polygon class="pen1 brush0" points="351,589 348,588 346,587 343,587 340,586 318,581 298,579 278,580 260,583 243,588 227,594 212,602 199,610 187,619 176,628 167,636 159,644 153,651 149,656 146,660 145,661 168,676 168,676 169,674 172,671 176,666 181,661 187,654 195,647 204,639 214,632 225,625 237,619 251,613 265,609 280,607 297,606 314,608 332,612 339,614 345,616 352,618 358,620 351,589"/>
<polygon class="pen1 brush2" points="168,756 168,756 169,754 172,751 176,746 181,740 187,734 195,726 204,719 214,712 225,705 237,698 251,693 265,689 280,687 297,686 314,688 332,692 350,697 368,702 386,706 403,710 421,712 438,714 454,715 470,714 486,712 500,708 515,703 528,695 540,686 551,674 562,660 571,643 546,631 540,642 534,652 527,660 519,668 511,674 501,679 491,683 479,685 466,687 452,687 437,686 421,684 403,681 384,677 363,671 340,665 318,660 298,658 278,659 260,662 243,667 227,674 212,681 199,689 187,698 176,707 167,715 159,723 153,730 149,735 146,739 145,740 168,756"/>
<polygon class="pen1 brush0" points="371,674 367,673 363,672 360,671 356,670 352,669 348,668 344,666 340,665 318,660 298,658 278,659 260,662 243,667 227,674 212,681 199,689 187,698 176,707 167,715 159,723 153,730 149,735 146,739 145,740 168,756 168,756 169,754 172,751 176,746 181,740 187,734 195,726 204,719 214,712 225,705 237,698 251,693 265,689 280,687 297,686 314,688 332,692 338,694 344,696 350,697 355,699 361,700 367,702 372,703 378,704 371,674"/>
</g>
</svg>
