<?xml version="1.0" encoding="UTF-8" standalone="no"?>
<!DOCTYPE svg PUBLIC "-//W3C//DTD SVG 1.0//EN" "http://www.w3.org/TR/2001/REC-SVG-20010904/DTD/svg10.dtd">
<svg xmlns="http://www.w3.org/2000/svg" xmlns:xlink="http://www.w3.org/1999/xlink" fill-rule="evenodd" height="0.267in" preserveAspectRatio="none" stroke-linecap="round" viewBox="0 0 523 267" width="0.523in">
<style type="text/css">
.brush0 { fill: rgb(255,255,255); }
.pen0 { stroke: rgb(0,0,0); stroke-width: 1; stroke-linejoin: round; }
.brush1 { fill: none; }
.pen1 { stroke: none; }
.brush2 { fill: rgb(0,0,0); }
</style>
<g>
<polygon class="pen1 brush2" points="262,267 263,240 266,211 270,182 276,154 282,128 289,105 296,87 302,75 293,67 285,57 278,47 272,36 268,26 265,16 263,7 262,0 261,7 259,16 256,26 252,36 246,47 239,57 231,67 222,75 228,87 235,105 242,128 248,154 254,182 258,211 261,240 262,267"/>
<polygon class="pen1 brush2" points="262,267 249,264 235,260 221,256 207,252 193,247 180,242 166,236 153,231 141,225 129,219 118,214 108,208 99,203 92,198 86,193 81,189 71,196 60,202 49,207 37,210 26,212 16,213 7,214 0,213 7,215 15,219 24,224 33,230 42,238 50,247 58,256 64,267 70,265 77,263 86,262 97,260 108,259 120,258 133,258 147,258 162,258 176,258 191,259 206,260 220,261 235,263 249,265 262,267"/>
<polygon class="pen1 brush2" points="262,267 245,246 229,222 214,197 200,171 188,148 178,126 171,108 168,94 156,94 143,92 131,88 120,84 110,79 102,73 95,68 90,63 98,77 105,97 109,121 107,146 120,151 137,161 156,174 178,190 201,208 223,227 244,247 262,267"/>
<polygon class="pen1 brush2" points="262,267 275,264 288,260 302,256 316,252 330,247 343,242 357,236 370,231 382,225 394,219 405,214 415,208 423,203 431,198 437,193 442,189 452,196 463,202 474,207 486,210 497,212 507,213 516,214 523,213 516,215 508,219 499,224 490,230 481,238 472,247 464,256 458,267 452,265 445,263 436,262 426,260 414,259 402,258 389,258 375,258 361,258 347,258 332,259 318,260 303,261 289,263 275,265 262,267"/>
<polygon class="pen1 brush2" points="262,267 278,246 295,222 310,197 323,171 335,148 345,126 351,108 354,94 366,94 379,92 391,88 402,84 412,79 421,73 428,68 433,63 425,77 418,97 414,121 416,146 403,151 386,161 367,174 345,190 323,208 301,227 280,247 262,267"/>
</g>
</svg>
