<?xml version="1.0" encoding="UTF-8" standalone="no"?>
<!DOCTYPE svg PUBLIC "-//W3C//DTD SVG 1.0//EN" "http://www.w3.org/TR/2001/REC-SVG-20010904/DTD/svg10.dtd">
<svg xmlns="http://www.w3.org/2000/svg" xmlns:xlink="http://www.w3.org/1999/xlink" fill-rule="evenodd" height="0.481in" preserveAspectRatio="none" stroke-linecap="round" viewBox="0 0 555 481" width="0.555in">
<style type="text/css">
.brush0 { fill: rgb(255,255,255); }
.pen0 { stroke: rgb(0,0,0); stroke-width: 1; stroke-linejoin: round; }
.brush1 { fill: none; }
.pen1 { stroke: none; }
.brush2 { fill: rgb(0,0,0); }
</style>
<g>
<polygon class="pen1 brush2" points="278,29 531,467 24,467 278,29 278,0 0,481 555,481 278,0 278,29"/>
<polygon class="pen1 brush2" points="277,188 159,389 392,389 277,188 278,159 419,403 136,404 278,159 277,188"/>
<polygon class="pen1 brush2" points="531,468 474,435 278,92 278,29 278,29 531,467 531,468"/>
<polygon class="pen1 brush2" points="81,435 136,403 136,404 278,159 278,92 81,435"/>
<polygon class="pen1 brush2" points="531,468 474,435 81,435 23,468 24,467 531,467 531,468"/>
</g>
</svg>
