<?xml version="1.0" encoding="UTF-8" standalone="no"?>
<!DOCTYPE svg PUBLIC "-//W3C//DTD SVG 1.0//EN" "http://www.w3.org/TR/2001/REC-SVG-20010904/DTD/svg10.dtd">
<svg xmlns="http://www.w3.org/2000/svg" xmlns:xlink="http://www.w3.org/1999/xlink" fill-rule="evenodd" height="1.0in" preserveAspectRatio="none" stroke-linecap="round" viewBox="0 0 879 1000" width="0.879in">
<style type="text/css">
.brush0 { fill: rgb(255,255,255); }
.pen0 { stroke: rgb(0,0,0); stroke-width: 1; stroke-linejoin: round; }
.brush1 { fill: none; }
.pen1 { stroke: none; }
.brush2 { fill: rgb(0,0,0); }
</style>
<g>
<polygon class="pen1 brush2" points="60,356 62,375 65,393 71,410 78,427 87,442 98,456 111,469 125,480 106,513 89,547 76,583 65,618 58,654 55,689 57,724 64,756 71,775 80,794 93,811 108,828 125,843 146,857 169,869 196,879 214,879 231,878 247,877 263,876 279,874 294,871 309,868 324,864 338,860 352,855 365,849 379,842 392,834 404,825 417,816 429,805 444,816 460,825 476,834 493,842 510,848 528,854 545,859 564,863 582,866 601,868 620,869 638,870 657,870 675,869 694,867 712,865 750,826 776,785 790,741 794,696 789,650 777,603 757,555 733,508 748,492 763,475 776,457 788,438 798,419 806,399 813,378 818,356 846,356 879,966 8,1000 3,356 60,356"/>
<polygon class="pen1 brush2" points="655,138 639,137 624,137 608,138 593,139 577,141 562,143 547,147 532,150 518,154 505,159 491,164 479,169 467,175 456,181 445,188 436,194 420,186 404,177 388,169 373,161 357,153 342,145 327,138 311,132 295,127 279,124 263,121 247,119 230,120 212,122 194,125 175,131 149,147 125,168 105,194 88,223 74,255 65,288 60,322 60,356 3,356 0,24 828,0 846,356 818,356 819,347 820,338 821,328 821,319 815,303 809,287 802,273 794,259 785,246 776,234 767,223 756,212 746,201 734,191 722,182 710,172 697,163 683,155 669,146 655,138"/>
</g>
</svg>
