<?xml version="1.0" encoding="UTF-8" standalone="no"?>
<!DOCTYPE svg PUBLIC "-//W3C//DTD SVG 1.0//EN" "http://www.w3.org/TR/2001/REC-SVG-20010904/DTD/svg10.dtd">
<svg xmlns="http://www.w3.org/2000/svg" xmlns:xlink="http://www.w3.org/1999/xlink" fill-rule="evenodd" height="0.534in" preserveAspectRatio="none" stroke-linecap="round" viewBox="0 0 534 534" width="0.534in">
<style type="text/css">
.brush0 { fill: rgb(255,255,255); }
.pen0 { stroke: rgb(0,0,0); stroke-width: 1; stroke-linejoin: round; }
.brush1 { fill: none; }
.pen1 { stroke: none; }
.brush2 { fill: rgb(0,0,0); }
</style>
<g>
<polygon class="pen1 brush2" points="268,534 281,534 294,533 307,531 320,529 332,526 345,522 357,518 369,514 381,508 393,502 404,496 415,489 426,481 436,473 446,464 456,455 474,436 489,415 503,393 514,369 523,345 529,320 533,294 534,267 533,241 529,215 523,189 514,165 503,141 489,119 474,98 456,78 446,69 436,60 426,52 415,45 404,38 393,31 381,26 369,20 357,16 345,11 332,8 320,5 307,3 294,1 281,0 268,0 241,1 214,5 188,12 164,21 140,32 118,46 98,61 79,78 61,97 46,118 32,140 21,163 12,188 5,213 1,240 0,267 1,294 5,320 12,345 20,369 32,393 45,415 61,436 79,455 89,464 99,473 109,481 120,489 130,496 142,502 153,508 165,514 177,518 190,522 202,526 215,529 228,531 241,533 255,534 268,534"/>
<polygon class="pen1 brush0" points="37,267 38,244 41,222 47,200 55,179 64,159 76,139 89,121 105,104 113,96 122,88 131,81 140,75 149,69 159,63 169,58 179,53 190,49 201,46 211,43 222,40 234,39 245,37 256,36 268,36 279,36 291,37 302,39 313,40 324,43 335,46 345,49 356,53 366,58 376,63 386,69 395,75 404,81 413,88 422,96 430,104 446,121 459,139 471,159 481,179 488,200 494,222 497,244 498,267 497,291 493,313 488,335 480,357 470,377 458,396 445,413 430,430 414,444 396,458 377,469 357,479 336,487 314,492 291,496 268,497 256,497 245,496 234,495 222,493 211,490 201,487 190,484 179,480 169,475 159,470 149,465 140,459 131,452 122,445 113,438 105,430 89,413 76,395 64,375 55,355 47,334 41,312 38,290 37,267"/>
<polygon class="pen1 brush2" points="270,71 264,85 246,121 222,173 194,232 165,292 140,345 121,384 113,401 155,401 159,394 168,373 182,344 199,307 218,268 237,228 255,190 270,159 365,365 252,365 252,448 290,448 290,401 424,401 270,71"/>
</g>
</svg>
