<?xml version="1.0" encoding="UTF-8" standalone="no"?>
<!DOCTYPE svg PUBLIC "-//W3C//DTD SVG 1.0//EN" "http://www.w3.org/TR/2001/REC-SVG-20010904/DTD/svg10.dtd">
<svg xmlns="http://www.w3.org/2000/svg" xmlns:xlink="http://www.w3.org/1999/xlink" fill-rule="evenodd" height="0.944in" preserveAspectRatio="none" stroke-linecap="round" viewBox="0 0 792 944" width="0.792in">
<style type="text/css">
.brush0 { fill: rgb(255,255,255); }
.pen0 { stroke: rgb(0,0,0); stroke-width: 1; stroke-linejoin: round; }
.brush1 { fill: none; }
.pen1 { stroke: none; }
.brush2 { fill: rgb(0,0,0); }
</style>
<g>
<polygon class="pen1 brush2" points="401,359 387,342 366,351 351,291 329,246 307,263 329,339 337,356 324,445 325,492 344,499 394,498 447,500 460,485 453,427 457,379 471,333 482,276 482,260 462,255 443,311 429,357 418,342 401,359"/>
<polygon class="pen1 brush2" points="344,495 335,496 324,571 323,614 334,625 349,623 353,593 365,538 399,502 410,541 419,605 426,626 442,620 442,591 449,525 455,488 447,493 344,495"/>
<polygon class="pen1 brush2" points="387,342 386,328 376,319 383,293 404,269 407,270 414,273 422,277 426,281 427,288 428,297 429,305 429,309 416,324 416,353 406,358 409,323 421,306 419,285 417,285 414,285 409,285 405,286 401,289 397,293 394,296 393,298 391,301 387,307 384,315 386,320 391,322 394,323 395,323 396,323 395,359 387,342"/>
<polygon class="pen1 brush2" points="361,729 344,940 361,942 461,944 469,722 471,716 478,702 486,683 495,664 506,648 521,630 538,610 556,588 573,565 588,539 599,512 604,483 606,457 609,426 612,391 611,353 607,315 597,278 580,244 554,215 553,214 551,212 547,208 542,203 536,197 528,191 518,184 507,177 495,170 482,163 467,158 451,153 433,149 414,146 394,145 373,146 346,149 328,151 318,153 313,155 312,157 312,159 311,161 308,163 304,165 297,169 288,175 278,182 265,192 252,204 238,218 225,234 211,252 198,273 187,296 177,322 169,350 163,380 161,414 162,450 168,495 178,532 191,560 205,581 218,596 230,606 238,611 241,613 306,685 308,686 312,690 319,695 326,701 334,708 342,713 349,717 354,718 358,716 359,711 359,706 358,704 356,701 351,693 344,681 335,667 325,653 315,641 306,631 299,626 291,621 280,611 268,597 256,581 244,564 234,548 226,533 221,521 217,506 213,482 209,453 207,419 207,385 211,351 219,321 232,296 249,276 266,257 283,239 300,224 318,211 335,201 353,195 371,192 380,192 390,192 400,192 411,192 422,193 433,195 445,197 456,200 467,205 478,210 489,216 499,223 509,232 518,241 526,253 533,266 545,292 555,314 562,333 567,349 570,361 572,369 573,374 573,376 573,394 571,438 564,489 549,530 538,546 525,563 510,581 496,599 482,617 470,634 459,650 452,664 443,693 439,723 437,747 437,756 437,917 436,917 434,917 430,917 425,917 420,917 415,917 411,917 407,917 400,917 394,918 390,919 388,919 375,919 375,908 374,883 372,857 369,841 366,821 364,782 362,746 361,729"/>
<polygon class="pen1 brush2" points="437,756 434,756 427,755 416,755 404,754 392,754 380,755 372,757 367,760 364,768 363,777 363,785 363,788 364,788 368,790 373,791 379,793 385,795 391,796 397,798 401,798 405,798 411,797 416,795 422,794 428,793 432,791 435,790 436,790 437,756"/>
<polygon class="pen1 brush2" points="440,832 437,826 431,818 423,813 416,813 411,815 406,813 401,812 396,815 389,819 383,822 379,826 382,834 390,842 398,848 405,852 407,853 436,853 440,832"/>
<polygon class="pen1 brush2" points="438,874 386,855 385,855 381,855 376,856 371,860 368,869 366,879 365,889 365,893 366,894 370,895 376,898 384,900 392,903 397,906 402,906 407,904 411,902 416,900 423,898 430,896 436,895 441,894 445,893 446,893 438,874"/>
<polygon class="pen1 brush2" points="659,583 658,583 654,584 649,586 643,589 638,592 633,596 630,601 630,607 636,619 645,630 653,637 657,640 665,649 722,691 733,691 745,691 747,678 745,674 740,665 732,651 721,635 708,619 693,603 677,591 659,583"/>
<polygon class="pen1 brush2" points="18,598 16,603 14,615 15,628 23,636 29,638 36,638 43,637 50,636 55,635 60,633 63,632 64,632 76,631 143,607 150,598 156,588 146,579 142,579 131,578 116,577 96,577 75,579 54,582 34,589 18,598"/>
<polygon class="pen1 brush2" points="707,340 706,340 702,341 697,342 691,344 684,346 679,349 675,353 674,357 674,367 674,375 676,381 682,384 691,385 699,384 705,383 708,382 726,386 727,386 730,386 733,385 738,385 743,385 748,384 752,384 756,384 763,384 770,383 775,382 777,382 792,363 791,362 787,361 782,358 776,355 769,352 762,349 756,346 750,344 745,342 739,341 733,339 727,338 721,338 716,338 711,338 707,340"/>
<polygon class="pen1 brush2" points="37,314 36,314 32,315 27,316 21,317 14,319 9,322 5,326 4,331 4,340 4,348 6,354 12,357 21,358 30,357 36,356 39,355 56,359 57,359 60,359 63,358 68,358 73,358 78,357 82,357 86,357 93,357 100,356 105,355 107,355 122,336 121,335 117,334 112,331 106,328 99,325 92,322 86,319 80,317 75,316 69,314 63,313 57,312 51,312 46,312 41,312 37,314"/>
<polygon class="pen1 brush2" points="607,165 605,170 600,180 598,193 602,202 610,207 616,212 622,214 628,211 634,204 638,196 641,190 642,188 655,177 657,174 662,166 667,158 671,151 675,146 678,140 681,135 682,133 676,109 675,110 671,111 666,114 660,117 653,121 647,125 641,129 636,132 627,139 618,148 610,156 607,165"/>
<polygon class="pen1 brush2" points="388,85 389,90 391,101 396,112 405,117 414,118 422,118 428,116 431,110 432,101 432,93 431,87 430,84 434,67 434,63 434,54 433,44 433,36 433,30 433,23 432,17 432,15 413,0 410,5 405,16 398,29 393,41 390,52 387,64 386,76 388,85"/>
<polygon class="pen1 brush2" points="173,180 174,181 177,183 182,185 187,188 193,191 199,192 204,191 208,189 215,182 220,176 222,170 220,164 214,158 207,153 201,149 199,148 189,134 186,132 179,126 171,120 165,115 160,111 154,107 150,103 148,102 124,107 126,112 130,123 136,137 142,149 145,153 149,158 152,163 156,168 160,172 165,176 169,179 173,180"/>
</g>
</svg>
