<?xml version="1.0" encoding="UTF-8" standalone="no"?>
<!DOCTYPE svg PUBLIC "-//W3C//DTD SVG 1.0//EN" "http://www.w3.org/TR/2001/REC-SVG-20010904/DTD/svg10.dtd">
<svg xmlns="http://www.w3.org/2000/svg" xmlns:xlink="http://www.w3.org/1999/xlink" fill-rule="evenodd" height="1.048in" preserveAspectRatio="none" stroke-linecap="round" viewBox="0 0 1039 1048" width="1.039in">
<style type="text/css">
.brush0 { fill: rgb(255,255,255); }
.pen0 { stroke: rgb(0,0,0); stroke-width: 1; stroke-linejoin: round; }
.brush1 { fill: none; }
.pen1 { stroke: none; }
.brush2 { fill: rgb(0,0,0); }
</style>
<g>
<polygon class="pen1 brush2" points="737,576 760,577 785,578 809,578 834,578 858,576 882,573 905,569 927,562 947,554 966,543 982,529 996,513 1008,493 1017,471 1022,444 1024,414 1021,373 1014,338 1002,309 986,286 967,267 945,254 920,245 893,241 864,241 835,244 805,251 775,261 745,274 716,290 688,308 662,328 605,368 561,353 561,353 555,283 548,237 541,215 533,212 525,227 518,257 512,300 507,353 458,368 445,349 434,329 424,306 417,283 411,259 408,235 407,211 409,188 413,166 420,146 431,127 444,111 461,98 482,88 506,81 534,79 563,81 587,87 607,97 624,111 636,127 645,145 651,166 654,187 654,211 652,234 647,258 641,282 634,306 625,328 615,349 605,368 662,328 670,303 677,277 684,249 689,222 693,194 695,167 695,141 692,115 686,91 677,70 664,50 647,33 626,19 600,9 569,2 532,0 496,2 465,9 439,20 417,35 400,52 386,73 376,96 370,121 366,147 366,175 368,204 372,232 379,261 388,290 398,317 409,343 421,395 391,436 378,433 360,428 337,423 313,418 290,415 270,414 256,418 249,427 253,431 261,436 272,442 286,449 305,457 326,466 351,476 380,487 380,538 380,538 374,541 364,544 351,547 336,550 321,552 306,554 294,556 286,556 250,553 218,545 190,532 167,515 148,495 134,472 125,448 120,423 120,399 125,375 134,352 148,332 167,315 191,302 220,294 254,291 268,292 281,293 293,296 306,300 317,304 328,309 339,316 349,322 359,330 369,338 378,347 387,356 396,365 404,375 413,385 421,395 409,343 396,330 383,318 369,306 356,296 343,286 330,277 318,269 305,261 292,255 280,250 267,245 255,241 243,238 231,236 219,234 207,234 183,236 161,241 140,249 121,259 103,273 88,288 74,305 63,323 54,343 48,364 44,386 42,407 44,429 48,451 56,472 67,493 79,510 92,525 106,538 120,549 135,557 151,564 167,570 183,573 200,576 218,578 235,579 254,580 272,580 291,579 310,579 329,579 391,579 422,617 422,617 356,742 370,751 378,744 387,735 398,724 409,712 422,699 436,684 450,668 466,650 514,666 509,727 497,777 477,815 452,843 423,862 392,872 360,874 328,869 299,857 273,840 251,817 237,790 230,760 233,727 246,692 272,656 281,646 292,636 305,626 319,616 335,607 352,597 371,588 391,579 329,579 327,580 322,584 314,589 303,596 291,606 277,616 262,629 247,642 232,657 217,673 203,689 191,706 180,724 172,742 167,761 165,779 166,802 171,824 178,845 187,865 199,883 214,900 230,915 249,928 281,944 310,954 337,958 363,957 387,950 408,940 428,925 447,907 463,886 478,864 492,839 504,813 515,787 524,761 532,735 539,710 564,666 612,650 630,671 647,690 662,706 675,720 686,731 695,740 703,747 708,751 721,742 655,617 686,579 706,588 725,597 742,607 758,616 772,626 785,636 796,646 806,656 824,681 836,706 842,732 843,757 839,782 830,805 818,826 802,844 783,859 762,870 739,877 715,878 689,874 663,864 638,847 612,823 597,805 586,787 577,768 572,749 568,730 565,710 564,689 564,666 539,710 546,739 555,768 566,796 578,824 592,851 607,876 624,898 643,918 664,934 686,946 710,954 735,957 763,954 792,945 822,929 855,906 880,883 897,860 909,836 915,813 915,789 912,765 904,742 892,720 877,698 860,676 842,656 821,637 800,620 779,603 757,589 737,576 685,539 685,487 685,487 685,487 717,474 745,462 767,452 785,443 797,435 806,430 810,425 810,422 806,420 797,419 785,419 770,421 751,423 728,426 702,431 673,436 644,395 655,381 667,369 678,357 688,346 699,337 709,328 718,321 728,315 756,301 784,293 811,291 837,294 862,301 884,312 904,326 921,344 935,363 944,385 950,407 950,430 945,454 935,476 918,498 894,518 881,527 869,534 856,540 843,545 831,549 818,552 805,554 792,555 779,555 766,555 753,554 740,552 726,549 713,546 699,543 685,539 737,576"/>
</g>
</svg>
