<?xml version="1.0" encoding="UTF-8" standalone="no"?>
<!DOCTYPE svg PUBLIC "-//W3C//DTD SVG 1.0//EN" "http://www.w3.org/TR/2001/REC-SVG-20010904/DTD/svg10.dtd">
<svg xmlns="http://www.w3.org/2000/svg" xmlns:xlink="http://www.w3.org/1999/xlink" fill-rule="evenodd" height="0.942in" preserveAspectRatio="none" stroke-linecap="round" viewBox="0 0 999 942" width="0.999in">
<style type="text/css">
.brush0 { fill: rgb(255,255,255); }
.pen0 { stroke: rgb(0,0,0); stroke-width: 1; stroke-linejoin: round; }
.brush1 { fill: none; }
.pen1 { stroke: none; }
.brush2 { fill: rgb(0,0,0); }
</style>
<g>
<polygon class="pen1 brush2" points="483,935 476,936 467,934 456,931 444,925 430,918 416,909 401,901 387,892 396,890 406,889 417,889 429,888 442,887 456,886 469,885 482,882 495,879 507,875 517,869 527,862 535,853 540,842 544,829 545,814 539,788 525,768 505,753 482,743 458,736 436,731 417,729 405,729 385,730 364,733 344,738 324,744 304,752 284,761 264,770 244,781 225,791 205,802 186,813 168,823 149,833 131,843 113,851 96,858 105,833 116,814 129,800 144,787 162,774 182,757 206,735 232,706 222,692 211,678 199,665 185,651 171,638 156,624 140,611 124,598 108,584 91,571 75,558 59,544 43,531 28,517 13,504 0,490 4,485 10,482 19,480 30,479 42,479 54,479 66,480 77,480 99,476 120,463 137,442 146,412 146,373 134,324 107,266 63,199 82,207 102,215 121,223 139,228 155,230 168,227 177,218 182,202 209,44 218,53 228,60 238,65 249,67 259,67 270,66 282,63 294,59 307,53 320,47 334,40 349,32 364,24 380,16 397,8 415,0 395,17 374,35 354,53 334,71 315,91 297,111 281,132 266,153 253,176 242,200 233,226 227,252 224,281 224,310 228,342 235,375 249,381 263,378 277,370 291,357 306,344 321,330 338,319 356,313 351,329 342,346 329,363 314,380 298,397 282,415 268,432 256,448 255,453 256,460 261,468 267,477 275,487 285,498 297,509 310,520 323,530 338,540 352,549 367,557 382,564 396,568 409,571 422,571 430,568 432,559 430,546 427,530 422,512 419,494 418,476 422,459 428,479 436,500 446,521 456,542 468,563 482,583 496,602 511,619 527,635 545,648 562,658 581,666 600,670 620,670 640,666 661,658 678,642 682,621 676,595 663,565 646,534 629,503 615,472 607,443 687,457 688,460 689,467 690,480 693,496 697,516 703,538 712,563 725,589 740,617 761,646 785,674 816,703 851,730 894,755 943,779 999,800 976,815 950,827 922,837 893,844 862,850 830,855 797,859 763,863 728,867 693,871 657,877 622,884 586,893 551,904 517,918 483,935"/>
</g>
</svg>
