<?xml version="1.0" encoding="UTF-8" standalone="no"?>
<!DOCTYPE svg PUBLIC "-//W3C//DTD SVG 1.0//EN" "http://www.w3.org/TR/2001/REC-SVG-20010904/DTD/svg10.dtd">
<svg xmlns="http://www.w3.org/2000/svg" xmlns:xlink="http://www.w3.org/1999/xlink" fill-rule="evenodd" height="0.566in" preserveAspectRatio="none" stroke-linecap="round" viewBox="0 0 566 566" width="0.566in">
<style type="text/css">
.brush0 { fill: rgb(255,255,255); }
.pen0 { stroke: rgb(0,0,0); stroke-width: 1; stroke-linejoin: round; }
.brush1 { fill: none; }
.pen1 { stroke: none; }
.brush2 { fill: rgb(0,0,0); }
</style>
<g>
<polygon class="pen1 brush2" points="282,0 288,1 295,4 302,7 310,12 320,19 331,27 345,38 362,51 367,78 366,106 359,134 347,163 328,191 304,219 274,245 238,269 209,289 187,310 171,332 161,354 157,377 156,398 159,420 165,440 172,459 181,476 191,492 201,506 209,517 216,525 221,530 223,532 218,501 216,472 220,447 230,423 245,399 267,376 295,351 332,324 367,292 392,256 406,217 412,178 409,139 400,104 384,74 362,51 345,38 331,27 320,19 310,12 302,7 295,4 288,1 282,0 283,0 283,0 283,0 284,0 313,1 341,6 368,13 393,22 418,34 441,48 463,65 483,83 501,103 518,125 532,148 544,173 553,199 560,226 565,254 566,283 565,309 561,334 556,358 548,382 538,405 527,426 514,447 499,466 482,484 464,500 445,515 424,528 402,540 380,549 356,557 331,562 333,531 345,504 363,477 385,450 406,421 422,388 430,349 425,302 423,312 417,323 409,335 397,349 383,363 366,379 347,394 325,410 304,429 288,449 278,471 273,493 273,514 278,534 289,551 305,565 300,566 295,566 289,566 284,566 255,565 227,560 199,553 173,544 149,532 125,518 103,501 83,483 65,463 48,441 34,418 22,393 13,367 6,340 1,312 0,283 1,255 5,228 12,202 21,177 32,153 45,130 60,109 77,89 96,71 116,54 138,40 162,27 186,17 212,9 238,3 266,0 266,24 261,45 254,65 243,82 231,98 217,113 202,127 188,141 174,154 161,168 150,182 142,196 137,212 136,229 140,248 149,269 157,258 169,247 185,237 204,225 224,213 244,198 263,180 281,158 291,142 299,124 305,105 307,85 307,65 303,44 294,22 282,0"/>
</g>
</svg>
