<?xml version="1.0" encoding="UTF-8" standalone="no"?>
<!DOCTYPE svg PUBLIC "-//W3C//DTD SVG 1.0//EN" "http://www.w3.org/TR/2001/REC-SVG-20010904/DTD/svg10.dtd">
<svg xmlns="http://www.w3.org/2000/svg" xmlns:xlink="http://www.w3.org/1999/xlink" fill-rule="evenodd" height="1.167in" preserveAspectRatio="none" stroke-linecap="round" viewBox="0 0 1121 1167" width="1.121in">
<style type="text/css">
.brush0 { fill: rgb(255,255,255); }
.pen0 { stroke: rgb(0,0,0); stroke-width: 1; stroke-linejoin: round; }
.brush1 { fill: none; }
.pen1 { stroke: none; }
.brush2 { fill: rgb(0,0,0); }
</style>
<g>
<polygon class="pen1 brush2" points="564,768 571,767 576,772 578,778 578,781 578,831 586,875 602,913 624,944 651,969 682,988 716,1000 751,1006 786,1005 821,999 854,986 883,967 908,942 927,910 940,873 944,829 942,801 936,776 927,753 916,734 902,717 887,702 870,689 854,677 837,667 820,659 805,652 791,645 780,639 771,634 765,628 763,623 772,622 785,625 801,629 819,634 838,640 856,645 874,649 890,650 930,646 965,634 994,616 1018,592 1037,564 1050,533 1058,500 1061,465 1057,431 1049,398 1034,367 1014,339 989,315 958,297 921,285 878,281 856,282 837,285 820,289 806,294 793,301 783,309 773,317 765,327 757,336 749,346 742,356 734,366 725,375 715,384 704,393 691,400 687,387 701,369 714,353 725,337 735,322 742,306 748,287 752,267 753,242 749,200 737,163 719,132 696,106 668,86 637,71 604,62 570,58 535,60 502,67 471,80 443,98 420,121 402,149 390,183 386,222 389,250 396,276 406,299 418,321 429,341 440,360 447,378 450,396 450,396 441,396 430,382 420,369 410,357 401,345 391,334 382,324 372,315 362,307 351,299 340,293 328,287 315,283 300,279 285,276 268,275 250,274 217,277 186,285 159,298 136,315 116,335 100,359 87,385 79,412 74,440 74,469 78,498 86,526 99,552 116,577 138,599 165,618 183,627 200,633 216,637 232,639 248,639 262,638 276,635 290,632 303,628 315,625 327,621 338,618 348,616 358,616 367,616 376,619 374,623 372,627 368,630 365,633 360,635 355,637 350,639 344,641 287,664 244,693 214,727 197,764 190,803 192,842 204,880 223,916 248,949 279,976 313,996 351,1009 391,1013 432,1005 472,986 511,953 532,926 544,899 551,873 553,848 554,825 554,803 557,784 564,768 569,720 531,716 499,706 472,691 449,670 432,646 420,620 413,591 411,561 414,532 422,503 434,477 452,453 474,432 501,417 533,407 569,403 605,407 637,417 664,432 686,452 703,476 715,503 723,532 725,561 723,590 716,619 704,646 687,670 665,690 638,705 606,715 569,719 564,768"/>
</g>
</svg>
