<?xml version="1.0" encoding="UTF-8" standalone="no"?>
<!DOCTYPE svg PUBLIC "-//W3C//DTD SVG 1.0//EN" "http://www.w3.org/TR/2001/REC-SVG-20010904/DTD/svg10.dtd">
<svg xmlns="http://www.w3.org/2000/svg" xmlns:xlink="http://www.w3.org/1999/xlink" fill-rule="evenodd" height="0.506in" preserveAspectRatio="none" stroke-linecap="round" viewBox="0 0 506 506" width="0.506in">
<style type="text/css">
.brush0 { fill: rgb(255,255,255); }
.pen0 { stroke: rgb(0,0,0); stroke-width: 1; stroke-linejoin: round; }
.brush1 { fill: none; }
.pen1 { stroke: none; }
.brush2 { fill: rgb(0,0,0); }
</style>
<g>
<polygon class="pen1 brush2" points="506,142 506,506 143,506 143,142 506,142"/>
<polygon class="pen1 brush2" points="143,358 141,357 137,356 131,354 124,352 118,350 112,348 107,345 105,342 98,327 92,317 88,309 86,302 88,297 93,293 101,289 109,285 118,282 126,279 134,276 140,272 141,271 142,271 142,271 143,270 143,219 136,222 130,224 122,227 113,229 101,231 86,234 67,236 42,239 35,242 29,247 23,255 19,265 15,275 11,285 9,295 8,303 6,323 5,339 5,351 8,361 13,371 20,382 31,395 44,411 49,416 56,420 64,423 75,426 88,429 103,434 121,440 143,449 143,358"/>
<polygon class="pen1 brush0" points="143,449 149,451 156,452 163,454 170,455 177,456 184,456 192,456 199,456 217,456 235,456 253,455 270,455 286,454 301,452 315,448 327,444 340,438 354,430 370,421 386,411 400,400 412,389 421,377 426,364 429,351 433,337 437,323 440,307 441,290 438,271 432,249 421,225 419,219 415,211 409,201 398,191 390,186 382,181 373,176 363,172 353,168 343,164 333,160 323,156 319,154 315,153 311,151 307,149 303,148 300,146 296,144 292,142 223,142 229,154 235,165 243,177 252,188 263,199 276,209 291,218 309,227 318,232 326,240 332,249 338,259 341,271 343,282 342,294 339,304 335,314 332,323 329,332 326,340 321,348 315,355 306,361 295,366 281,371 268,377 254,382 241,386 228,388 215,389 203,387 191,382 182,378 174,374 167,372 161,370 155,368 150,366 146,362 143,358 143,449"/>
<polygon class="pen1 brush0" points="143,270 152,263 162,256 172,250 182,244 192,240 201,237 209,237 216,238 222,241 228,243 233,245 237,247 241,250 245,252 247,254 249,257 252,264 255,270 256,275 257,277 258,272 257,258 253,241 241,225 233,219 226,214 218,210 212,207 205,205 198,204 192,204 185,204 182,205 177,206 172,208 167,210 161,212 155,214 149,216 143,219 143,270"/>
<polygon class="pen1 brush2" points="292,142 286,139 280,136 275,132 270,129 265,125 261,121 257,117 254,113 247,104 243,98 240,94 237,86 233,68 234,53 238,42 241,35 242,27 242,15 241,5 241,0 240,5 236,16 232,28 228,38 222,52 215,73 212,99 217,127 219,131 220,134 222,138 223,142 292,142"/>
</g>
</svg>
