<?xml version="1.0" encoding="UTF-8" standalone="no"?>
<!DOCTYPE svg PUBLIC "-//W3C//DTD SVG 1.0//EN" "http://www.w3.org/TR/2001/REC-SVG-20010904/DTD/svg10.dtd">
<svg xmlns="http://www.w3.org/2000/svg" xmlns:xlink="http://www.w3.org/1999/xlink" fill-rule="evenodd" height="0.629in" preserveAspectRatio="none" stroke-linecap="round" viewBox="0 0 595 629" width="0.595in">
<style type="text/css">
.brush0 { fill: rgb(255,255,255); }
.pen0 { stroke: rgb(0,0,0); stroke-width: 1; stroke-linejoin: round; }
.brush1 { fill: none; }
.pen1 { stroke: none; }
.brush2 { fill: rgb(0,0,0); }
</style>
<g>
<polygon class="pen1 brush2" points="172,190 154,191 137,193 121,198 105,204 90,211 76,219 63,229 50,240 39,253 29,266 21,280 14,295 8,311 3,327 1,344 0,362 1,379 3,396 8,413 14,428 21,443 29,457 39,471 50,483 63,494 76,504 90,512 105,519 121,525 137,530 154,532 172,533 190,532 207,530 223,525 239,519 254,512 268,504 281,494 293,483 304,471 314,457 322,443 330,428 335,413 340,396 342,379 343,362 342,344 340,327 335,311 330,295 322,280 314,266 304,253 293,240 281,229 268,219 254,211 239,204 223,198 207,193 190,191 172,190"/>
<polygon class="pen1 brush0" points="172,450 154,448 137,443 122,435 109,424 98,411 90,396 85,380 83,362 85,344 90,327 98,312 109,299 122,288 137,280 154,275 172,273 190,275 207,280 222,288 235,299 246,312 254,327 259,344 261,362 259,380 254,396 246,411 235,424 222,435 207,443 190,448 172,450"/>
<polygon class="pen1 brush2" points="388,0 371,1 354,3 337,8 322,14 307,21 293,29 279,39 267,50 256,63 246,76 238,90 231,105 225,121 220,138 218,155 217,173 218,191 220,208 225,224 231,240 238,255 246,269 256,282 267,295 279,306 293,316 307,324 322,331 337,337 354,342 371,344 388,345 406,344 423,342 439,337 455,331 470,324 484,316 497,306 510,295 521,282 531,269 539,255 546,240 552,224 557,208 559,191 560,173 559,155 557,138 552,121 546,105 539,90 531,76 521,63 510,50 497,39 484,29 470,21 455,14 439,8 423,3 406,1 388,0"/>
<polygon class="pen1 brush0" points="388,261 370,259 354,254 339,246 326,235 315,222 307,207 302,191 300,173 302,155 307,138 315,123 326,110 339,99 354,91 370,86 388,84 406,86 423,91 438,99 451,110 462,123 470,138 475,155 477,173 475,191 470,207 462,222 451,235 438,246 423,254 406,259 388,261"/>
<polygon class="pen1 brush2" points="423,286 406,287 389,289 372,294 357,299 342,307 328,315 314,325 302,336 291,348 281,362 273,376 266,391 260,406 255,423 253,440 252,457 253,475 255,492 260,508 266,524 273,539 281,553 291,566 302,579 314,590 328,600 342,608 357,615 372,621 389,626 406,628 423,629 441,628 458,626 474,621 490,615 505,608 519,600 532,590 545,579 556,566 566,553 574,539 581,524 587,508 592,492 594,475 595,457 594,440 592,423 587,406 581,391 574,376 566,362 556,348 545,336 532,325 519,315 505,307 490,299 474,294 458,289 441,287 423,286"/>
<polygon class="pen1 brush0" points="423,546 405,544 389,539 374,531 361,520 350,507 342,492 337,475 335,457 337,439 342,423 350,408 361,395 374,384 389,376 405,371 423,369 441,371 457,376 472,384 485,395 496,408 504,423 509,439 511,457 509,475 504,492 496,507 485,520 472,531 457,539 441,544 423,546"/>
</g>
</svg>
