<?xml version="1.0" encoding="UTF-8" standalone="no"?>
<!DOCTYPE svg PUBLIC "-//W3C//DTD SVG 1.0//EN" "http://www.w3.org/TR/2001/REC-SVG-20010904/DTD/svg10.dtd">
<svg xmlns="http://www.w3.org/2000/svg" xmlns:xlink="http://www.w3.org/1999/xlink" fill-rule="evenodd" height="0.541in" preserveAspectRatio="none" stroke-linecap="round" viewBox="0 0 535 541" width="0.535in">
<style type="text/css">
.brush0 { fill: rgb(255,255,255); }
.pen0 { stroke: rgb(0,0,0); stroke-width: 1; stroke-linejoin: round; }
.brush1 { fill: none; }
.pen1 { stroke: none; }
.brush2 { fill: rgb(0,0,0); }
</style>
<g>
<polygon class="pen1 brush2" points="535,168 534,151 532,134 527,118 522,103 515,88 506,74 496,61 486,49 474,38 461,29 447,20 432,13 417,8 401,3 384,1 367,0 353,1 339,2 326,5 314,9 302,14 290,19 279,26 268,33 257,26 246,19 234,14 221,9 209,5 195,2 182,1 168,0 151,1 134,3 118,8 103,13 88,20 74,29 61,38 49,49 38,61 29,74 20,88 13,103 8,118 3,134 1,151 0,168 1,182 2,197 5,210 9,224 15,236 21,249 28,260 36,271 28,282 21,294 15,306 9,319 5,332 2,346 1,360 0,374 1,391 3,408 8,424 13,439 20,453 29,467 38,480 49,492 61,503 74,512 88,521 103,528 118,533 134,538 151,540 168,541 182,540 195,539 209,536 221,532 234,528 246,522 257,515 268,508 279,515 290,522 302,528 314,532 326,536 339,539 353,540 367,541 384,540 401,538 417,533 432,528 447,521 461,512 474,503 486,492 496,480 506,467 515,453 522,439 527,424 532,408 534,391 535,374 534,360 532,346 529,332 525,319 520,306 514,294 507,282 499,271 507,260 514,249 520,236 525,224 529,210 532,197 534,182 535,168"/>
<polygon class="pen1 brush0" points="165,203 178,204 192,205 205,208 218,212 231,217 243,222 255,229 266,237 275,221 282,204 287,187 288,168 287,156 286,144 283,133 279,122 273,111 267,101 259,92 251,83 242,75 233,69 223,63 213,58 202,55 191,52 180,51 168,50 156,51 144,52 133,55 122,59 111,64 101,70 92,77 83,85 75,94 68,103 62,114 56,124 52,135 49,146 48,158 47,170 48,188 52,204 58,220 66,235 77,228 89,221 101,216 113,211 126,208 138,205 152,204 165,203"/>
<polygon class="pen1 brush0" points="302,269 309,274 317,279 325,283 334,286 343,288 352,290 361,291 370,291 380,291 389,289 399,288 408,285 417,282 425,277 433,273 441,267 447,261 454,253 462,244 469,235 474,225 479,215 483,204 486,193 487,182 488,170 487,158 486,146 483,135 479,124 473,114 467,103 460,94 452,85 443,77 434,70 423,64 413,59 402,55 391,52 379,51 367,50 358,50 349,51 341,53 333,55 325,57 317,61 310,64 303,69 310,80 317,91 322,103 327,115 330,128 333,141 334,155 335,168 334,182 333,195 330,209 326,221 322,234 316,246 309,258 302,269"/>
<polygon class="pen1 brush0" points="370,340 356,339 343,338 330,335 317,331 305,326 293,321 281,314 270,306 260,322 253,338 249,356 248,374 250,393 254,411 262,428 272,444 277,449 285,457 294,464 303,471 312,477 323,481 333,485 344,488 355,489 367,490 379,489 391,488 402,485 413,481 423,475 434,469 443,462 452,454 460,445 467,436 473,426 479,415 483,404 486,393 487,382 488,370 487,353 483,337 477,322 469,307 458,314 447,321 435,327 423,331 410,335 397,338 383,339 370,340"/>
<polygon class="pen1 brush0" points="234,274 226,269 218,264 210,260 201,257 193,254 184,252 174,251 165,251 153,252 141,253 130,256 119,260 109,266 98,272 89,279 80,287 73,296 66,305 60,315 56,325 52,336 49,347 48,358 47,370 48,382 49,393 52,404 56,415 62,426 68,436 75,445 83,454 92,462 101,469 111,475 122,481 133,485 144,488 156,489 168,490 177,490 185,489 193,487 201,485 209,483 217,480 224,476 232,472 225,461 218,449 212,437 208,425 204,413 201,400 200,387 199,374 200,361 201,347 204,334 208,321 213,308 219,296 226,285 234,274"/>
</g>
</svg>
