<?xml version="1.0" encoding="UTF-8" standalone="no"?>
<!DOCTYPE svg PUBLIC "-//W3C//DTD SVG 1.0//EN" "http://www.w3.org/TR/2001/REC-SVG-20010904/DTD/svg10.dtd">
<svg xmlns="http://www.w3.org/2000/svg" xmlns:xlink="http://www.w3.org/1999/xlink" fill-rule="evenodd" height="1.065in" preserveAspectRatio="none" stroke-linecap="round" viewBox="0 0 896 1065" width="0.896in">
<style type="text/css">
.brush0 { fill: rgb(255,255,255); }
.pen0 { stroke: rgb(0,0,0); stroke-width: 1; stroke-linejoin: round; }
.brush1 { fill: none; }
.pen1 { stroke: none; }
.brush2 { fill: rgb(0,0,0); }
</style>
<g>
<polygon class="pen1 brush2" points="450,579 459,578 468,575 476,571 483,565 489,558 493,549 496,541 497,531 496,521 493,512 489,504 483,497 476,491 468,487 459,484 450,483 440,484 431,487 423,491 416,497 410,504 406,512 403,521 402,531 403,541 406,549 410,558 416,565 423,571 431,575 440,578 450,579"/>
<polygon class="pen1 brush2" points="531,446 532,440 534,434 537,428 541,423 546,419 551,416 557,415 564,414 570,415 576,416 582,419 587,423 591,428 594,434 595,440 596,446 595,453 594,459 591,464 587,469 582,473 577,476 571,478 564,479 557,478 551,476 546,473 541,469 537,464 534,459 532,453 531,446"/>
<polygon class="pen1 brush2" points="626,366 626,362 628,357 629,353 632,350 636,347 640,345 644,344 648,343 652,344 657,345 661,347 664,350 667,353 669,357 670,362 670,366 668,374 664,381 657,386 648,388 644,388 640,386 636,385 632,382 629,378 628,374 626,370 626,366"/>
<polygon class="pen1 brush2" points="356,469 351,473 346,476 340,478 333,479 327,478 321,476 315,473 310,469 306,464 303,459 302,453 301,446 302,440 303,434 306,428 310,423 315,419 321,416 327,415 333,414 340,415 346,416 351,419 356,423 361,428 364,434 365,440 366,446 365,453 364,459 361,464 356,469"/>
<polygon class="pen1 brush2" points="271,366 271,362 270,357 268,353 265,350 262,347 258,345 253,344 249,343 245,344 241,345 237,347 233,350 230,353 229,357 227,362 227,366 229,374 234,381 241,386 249,388 253,388 258,386 262,385 265,382 268,378 270,374 271,370 271,366"/>
<polygon class="pen1 brush2" points="179,315 177,316 176,317 174,318 172,318 170,318 169,317 167,316 166,315 165,313 164,312 163,310 163,308 163,306 164,305 165,303 166,302 167,301 169,300 170,299 172,299 174,299 176,300 177,301 179,302 180,303 181,305 182,306 182,308 182,310 181,312 180,313 179,315"/>
<polygon class="pen1 brush2" points="711,311 709,312 708,313 706,314 704,314 702,314 701,313 699,312 698,311 697,309 696,308 695,306 695,304 695,302 696,301 697,299 698,298 699,297 701,296 702,295 704,295 706,295 708,296 709,297 711,298 712,299 713,301 714,302 714,304 714,306 713,308 712,309 711,311"/>
<polygon class="pen1 brush2" points="715,747 713,748 712,749 710,750 708,750 706,750 705,749 703,748 701,747 700,746 700,744 699,743 699,741 699,739 700,737 700,736 701,734 703,733 705,732 706,731 708,731 710,731 712,732 713,733 715,734 716,736 717,737 718,739 718,741 718,743 717,744 716,746 715,747"/>
<polygon class="pen1 brush2" points="191,740 189,741 188,741 186,742 184,742 182,742 180,741 179,741 177,740 176,738 175,736 174,735 174,733 174,731 175,729 176,728 177,726 179,725 180,724 182,723 184,723 186,723 188,724 189,725 191,726 192,728 192,729 193,731 193,733 193,735 192,737 192,738 191,740"/>
<polygon class="pen1 brush2" points="541,570 546,566 551,563 557,562 564,561 570,562 576,563 582,566 587,570 591,575 594,581 595,587 596,593 595,600 594,606 591,611 587,616 582,620 576,623 570,625 564,626 557,625 551,623 546,620 541,616 537,611 534,606 532,600 531,593 532,587 534,581 537,575 541,570"/>
<polygon class="pen1 brush2" points="626,673 626,677 628,681 629,685 632,689 636,692 640,693 644,695 648,695 652,695 657,693 661,692 664,689 667,685 669,681 670,677 670,673 668,664 664,657 657,653 648,651 644,651 640,652 636,654 632,657 629,660 628,664 626,669 626,673"/>
<polygon class="pen1 brush2" points="366,593 365,600 364,606 361,611 356,616 351,620 346,623 340,625 333,626 327,625 321,623 315,620 310,616 306,611 303,606 302,600 301,593 302,587 303,581 306,575 310,570 315,566 321,563 327,562 333,561 340,562 346,563 351,566 356,570 361,575 364,581 365,587 366,593"/>
<polygon class="pen1 brush2" points="271,673 271,677 270,681 268,685 265,689 262,692 258,693 253,695 249,695 245,695 241,693 237,692 233,689 230,685 229,681 227,677 227,673 229,664 234,657 241,653 249,651 253,651 258,652 262,654 265,657 268,660 270,664 271,669 271,673"/>
<polygon class="pen1 brush2" points="449,460 503,401 449,0 389,399 449,460"/>
<polygon class="pen1 brush2" points="448,606 393,665 448,1065 507,667 448,606"/>
<polygon class="pen1 brush2" points="525,519 584,494 896,519 586,548 525,519"/>
<polygon class="pen1 brush2" points="372,519 312,494 0,519 310,548 372,519"/>
</g>
</svg>
