<?xml version="1.0" encoding="UTF-8" standalone="no"?>
<!DOCTYPE svg PUBLIC "-//W3C//DTD SVG 1.0//EN" "http://www.w3.org/TR/2001/REC-SVG-20010904/DTD/svg10.dtd">
<svg xmlns="http://www.w3.org/2000/svg" xmlns:xlink="http://www.w3.org/1999/xlink" fill-rule="evenodd" height="0.71in" preserveAspectRatio="none" stroke-linecap="round" viewBox="0 0 561 710" width="0.561in">
<style type="text/css">
.brush0 { fill: rgb(255,255,255); }
.pen0 { stroke: rgb(0,0,0); stroke-width: 1; stroke-linejoin: round; }
.brush1 { fill: none; }
.pen1 { stroke: none; }
.brush2 { fill: rgb(0,0,0); }
</style>
<g>
<polygon class="pen1 brush2" points="122,148 74,413 98,671 362,704 461,681 452,502 461,154 122,148"/>
<polygon class="pen1 brush2" points="305,698 305,676 306,658 306,646 306,642 309,638 317,627 328,611 342,590 358,566 373,539 388,512 400,485 414,458 432,428 453,398 475,367 497,336 517,305 533,276 543,248 549,224 552,205 554,191 553,182 550,178 545,179 538,184 528,194 517,209 505,229 494,253 481,280 468,307 455,333 441,357 426,378 411,396 397,415 384,432 373,447 363,461 355,471 351,478 349,480 342,358 343,353 346,338 352,317 361,291 372,265 387,239 405,217 426,201 447,189 465,179 479,170 490,161 496,154 498,149 495,145 488,142 475,143 458,148 437,156 416,165 396,174 380,183 368,189 364,191 361,194 354,203 344,217 333,234 321,254 311,275 303,297 299,317 297,316 298,265 298,204 299,174 301,169 307,156 316,138 327,115 340,91 352,68 364,47 375,32 381,22 382,14 378,10 371,8 362,10 350,13 338,19 327,27 317,38 308,53 301,68 295,84 290,99 287,112 285,120 284,123 282,120 277,114 270,104 261,92 252,80 243,68 235,58 230,52 223,47 212,40 199,34 184,27 170,21 158,16 149,13 146,12 145,16 145,26 149,38 160,49 169,55 179,65 188,76 198,88 206,99 213,109 217,116 219,118 237,169 235,168 230,167 222,164 211,160 198,156 183,151 167,146 150,141 133,137 116,132 99,128 83,125 68,123 55,122 44,122 36,123 24,127 15,132 9,136 5,139 2,143 1,145 0,146 0,147 2,147 8,147 17,148 29,149 43,150 59,151 77,153 94,155 112,157 130,160 146,163 162,166 175,169 185,173 193,177 197,182 202,194 208,210 215,228 223,248 231,267 239,285 246,298 252,307 260,321 264,338 266,352 266,358 264,357 260,354 252,349 243,342 231,335 218,325 205,315 190,305 175,293 160,282 146,270 132,258 120,247 110,236 101,225 95,216 85,202 75,195 66,193 58,195 51,199 45,203 41,207 40,209 43,212 52,221 66,233 81,248 98,264 114,279 128,292 139,302 150,311 167,325 186,340 207,356 227,371 243,383 255,392 259,395 288,502 286,500 280,496 271,489 259,480 245,469 228,456 211,443 192,428 173,413 154,398 135,382 118,367 101,353 87,340 75,329 66,319 52,305 40,297 30,294 22,296 17,301 13,308 13,317 14,326 17,332 24,340 34,349 46,360 61,372 77,385 94,398 113,412 131,426 150,440 169,453 186,465 203,476 218,486 231,494 241,500 257,510 269,521 278,532 284,542 288,550 291,557 292,561 292,563 287,560 275,553 257,543 235,531 211,518 189,505 168,494 153,485 143,481 138,484 136,492 139,503 145,518 155,533 167,548 182,561 199,572 216,581 233,587 248,592 261,596 272,598 279,600 281,600 265,710 305,698"/>
<polygon class="pen1 brush0" points="426,378 411,396 397,415 384,432 373,447 363,461 355,471 351,478 349,480 342,358 343,353 346,338 352,317 361,291 372,265 387,239 405,217 426,201 431,198 436,196 440,193 445,191 449,189 453,187 457,184 461,182 461,154 443,153 429,159 415,165 402,172 390,178 380,183 371,187 366,190 364,191 361,194 354,203 344,217 333,234 321,254 311,275 303,297 299,317 297,316 298,265 298,204 299,174 300,172 302,168 305,160 310,151 230,150 237,169 236,169 232,167 227,166 219,163 210,160 200,157 188,153 176,149 122,148 120,159 134,161 148,163 160,166 171,169 181,172 188,175 194,178 197,182 202,194 208,210 215,228 223,248 231,267 239,285 246,298 252,307 260,321 264,338 266,352 266,358 261,355 247,345 227,331 203,314 176,294 150,273 126,252 107,233 101,267 107,272 112,277 118,282 123,287 127,292 132,296 136,299 139,302 150,311 167,325 186,340 207,356 227,371 243,383 255,392 259,395 288,502 286,501 282,497 275,492 265,485 254,476 241,466 227,455 211,443 195,431 178,417 162,404 145,391 129,377 114,365 100,352 87,341 79,387 90,395 101,404 112,412 124,421 135,429 147,438 158,446 170,454 181,461 191,468 201,475 211,481 220,487 228,492 235,496 241,500 257,510 269,521 278,532 284,542 288,550 291,557 292,561 292,563 287,560 275,553 257,543 235,531 211,518 189,505 168,494 153,485 143,481 138,484 136,492 139,503 145,518 155,533 167,548 182,561 199,572 216,581 233,587 248,592 261,596 272,598 279,600 281,600 267,692 305,696 305,675 306,658 306,646 306,642 309,638 317,627 328,611 342,590 358,566 373,539 388,512 400,485 405,475 410,465 416,454 423,443 430,431 438,420 446,408 455,396 457,329 453,336 449,343 446,349 442,356 438,362 434,368 430,373 426,378"/>
</g>
</svg>
