<?xml version="1.0" encoding="UTF-8" standalone="no"?>
<!DOCTYPE svg PUBLIC "-//W3C//DTD SVG 1.0//EN" "http://www.w3.org/TR/2001/REC-SVG-20010904/DTD/svg10.dtd">
<svg xmlns="http://www.w3.org/2000/svg" xmlns:xlink="http://www.w3.org/1999/xlink" fill-rule="evenodd" height="0.684in" preserveAspectRatio="none" stroke-linecap="round" viewBox="0 0 687 684" width="0.687in">
<style type="text/css">
.brush0 { fill: rgb(255,255,255); }
.pen0 { stroke: rgb(0,0,0); stroke-width: 1; stroke-linejoin: round; }
.brush1 { fill: none; }
.pen1 { stroke: none; }
.brush2 { fill: rgb(0,0,0); }
</style>
<g>
<polygon class="pen1 brush2" points="565,520 551,530 536,541 522,552 509,563 497,573 487,581 480,587 477,589 472,591 462,594 449,597 434,600 416,602 397,602 377,599 357,593 352,591 340,589 325,585 308,580 290,575 274,571 262,567 255,563 250,559 239,551 225,540 209,528 192,516 178,505 167,497 162,492 158,486 154,473 148,455 141,435 135,414 130,395 126,381 123,372 121,360 123,344 125,324 130,302 134,282 139,264 143,252 145,246 150,240 160,228 173,212 188,195 203,178 216,165 224,156 227,155 233,150 248,144 269,138 293,131 318,125 342,121 360,118 371,119 380,123 397,132 420,145 445,159 470,174 492,188 509,199 517,207 527,227 533,252 535,280 532,310 525,340 512,369 494,394 469,415 457,421 443,425 428,427 413,429 399,429 387,429 380,429 377,429 372,430 364,427 353,422 341,415 329,407 319,400 311,394 307,390 302,379 298,364 294,345 293,324 294,303 299,282 308,265 322,251 328,248 335,246 344,244 352,243 361,242 370,242 378,242 385,243 389,245 395,248 402,253 409,258 416,264 422,269 427,274 429,277 429,290 425,313 419,337 413,350 406,353 399,355 392,356 385,355 378,353 372,349 366,345 361,339 357,330 358,320 362,311 370,304 345,267 334,276 325,287 318,299 314,312 312,325 313,338 317,351 323,363 335,376 350,385 368,391 386,395 403,398 419,398 430,397 437,395 445,390 454,382 463,374 472,365 479,357 486,349 490,341 492,336 492,319 490,289 487,260 483,243 476,237 465,230 451,222 435,215 420,208 406,202 396,199 390,197 385,197 373,198 355,200 335,202 314,204 295,207 281,209 273,212 263,225 254,245 246,271 239,301 236,333 237,364 244,394 256,420 267,432 281,443 297,452 313,461 329,468 342,473 351,477 354,478 361,478 374,480 392,483 414,485 437,485 461,484 483,480 502,471 520,456 538,435 555,410 570,385 583,360 592,337 599,320 601,309 600,301 596,286 590,266 584,244 577,221 571,201 565,185 561,176 551,164 540,152 528,140 514,130 500,119 485,110 469,101 454,93 439,85 425,78 412,72 400,67 389,63 380,59 373,57 369,55 365,55 360,55 352,55 343,56 333,58 322,60 310,62 297,65 284,68 270,72 257,76 244,80 231,85 220,90 209,95 199,101 171,125 145,156 122,192 102,229 85,266 73,298 66,324 65,339 68,352 72,373 78,400 85,430 92,461 101,490 110,514 119,531 123,536 130,543 137,550 146,558 156,566 168,575 180,584 193,593 207,602 222,611 237,619 252,627 267,633 282,639 297,644 312,648 316,648 323,648 333,648 345,647 358,646 372,645 388,644 404,642 419,641 435,639 449,638 462,637 474,635 484,634 491,634 495,633 509,628 525,619 541,607 556,592 570,579 582,567 589,558 592,555 565,520"/>
<polygon class="pen1 brush2" points="631,21 0,0 8,250 19,655 243,684 579,677 687,668 658,384 639,21 613,51 609,108 632,517 634,642 338,659 75,624 42,294 49,63 190,61 606,68 631,21"/>
</g>
</svg>
