<?xml version="1.0" encoding="UTF-8" standalone="no"?>
<!DOCTYPE svg PUBLIC "-//W3C//DTD SVG 1.0//EN" "http://www.w3.org/TR/2001/REC-SVG-20010904/DTD/svg10.dtd">
<svg xmlns="http://www.w3.org/2000/svg" xmlns:xlink="http://www.w3.org/1999/xlink" fill-rule="evenodd" height="0.811in" preserveAspectRatio="none" stroke-linecap="round" viewBox="0 0 401 811" width="0.401in">
<style type="text/css">
.brush0 { fill: rgb(255,255,255); }
.pen0 { stroke: rgb(0,0,0); stroke-width: 1; stroke-linejoin: round; }
.brush1 { fill: none; }
.pen1 { stroke: none; }
.brush2 { fill: rgb(0,0,0); }
</style>
<g>
<polygon class="pen1 brush2" points="401,0 360,2 320,9 282,19 245,33 210,50 177,71 146,94 117,120 91,149 68,180 48,213 31,249 18,286 8,325 2,365 0,406 2,447 8,487 18,526 31,563 48,598 68,631 91,662 117,691 146,717 177,741 210,761 245,778 282,792 320,802 360,809 401,811 401,0"/>
<polygon class="pen1 brush0" points="401,337 281,337 281,252 120,401 281,549 281,455 401,455 401,337"/>
</g>
</svg>
