<?xml version="1.0" encoding="UTF-8" standalone="no"?>
<!DOCTYPE svg PUBLIC "-//W3C//DTD SVG 1.0//EN" "http://www.w3.org/TR/2001/REC-SVG-20010904/DTD/svg10.dtd">
<svg xmlns="http://www.w3.org/2000/svg" xmlns:xlink="http://www.w3.org/1999/xlink" fill-rule="evenodd" height="0.992in" preserveAspectRatio="none" stroke-linecap="round" viewBox="0 0 1000 992" width="1.0in">
<style type="text/css">
.brush0 { fill: rgb(255,255,255); }
.pen0 { stroke: rgb(0,0,0); stroke-width: 1; stroke-linejoin: round; }
.brush1 { fill: none; }
.pen1 { stroke: none; }
.brush2 { fill: rgb(0,0,0); }
</style>
<g>
<polygon class="pen1 brush2" points="602,910 591,883 584,854 580,824 576,795 571,769 562,748 549,733 528,726 506,727 485,733 465,743 444,756 425,772 405,788 385,806 364,824 343,840 321,856 299,868 275,878 250,883 223,884 195,879 165,868 146,858 127,845 108,831 90,815 73,798 57,779 42,759 30,739 23,725 17,711 12,698 8,684 6,670 4,657 4,644 6,631 8,622 11,613 14,605 19,596 24,588 30,580 37,573 44,566 79,543 115,531 152,528 190,532 228,542 265,556 302,572 338,588 372,603 403,614 432,620 458,620 480,611 499,592 512,561 521,516 520,486 510,460 492,438 467,417 438,399 404,382 368,365 331,348 294,331 258,313 226,292 197,269 174,244 158,214 150,180 152,141 156,121 160,103 165,87 171,72 177,58 184,46 191,36 199,27 207,20 215,14 224,10 233,6 243,4 253,4 263,4 273,6 291,11 310,20 328,32 347,47 365,64 383,84 401,105 417,129 433,154 447,181 460,209 471,238 480,268 488,299 493,329 496,360 499,388 506,408 515,422 526,431 536,435 545,437 551,437 554,436 562,419 568,402 574,384 580,365 587,343 597,318 611,289 629,256 639,240 650,225 661,211 672,199 684,187 695,175 707,165 720,156 732,148 745,140 757,134 770,128 783,123 796,119 808,116 821,114 844,112 865,112 885,115 904,121 922,129 937,140 950,153 960,168 972,192 982,215 988,236 991,257 992,276 991,295 986,312 980,329 963,357 941,383 914,406 884,428 851,447 817,465 782,482 748,498 716,514 687,530 662,546 642,562 628,579 622,597 624,617 635,638 646,651 657,658 668,661 679,661 690,657 701,650 712,642 723,633 735,623 748,613 761,604 774,596 789,591 804,588 821,588 838,593 871,607 898,622 921,640 939,658 953,678 963,699 970,720 973,742 972,769 967,796 958,823 945,849 929,875 911,898 890,920 867,939 852,950 836,959 820,968 803,975 786,981 769,986 753,989 736,990 717,990 698,987 680,981 663,973 646,962 630,948 615,930 602,910"/>
</g>
</svg>
