<?xml version="1.0" encoding="UTF-8" standalone="no"?>
<!DOCTYPE svg PUBLIC "-//W3C//DTD SVG 1.0//EN" "http://www.w3.org/TR/2001/REC-SVG-20010904/DTD/svg10.dtd">
<svg xmlns="http://www.w3.org/2000/svg" xmlns:xlink="http://www.w3.org/1999/xlink" fill-rule="evenodd" height="1.013in" preserveAspectRatio="none" stroke-linecap="round" viewBox="0 0 949 1013" width="0.949in">
<style type="text/css">
.brush0 { fill: rgb(255,255,255); }
.pen0 { stroke: rgb(0,0,0); stroke-width: 1; stroke-linejoin: round; }
.brush1 { fill: none; }
.pen1 { stroke: none; }
.brush2 { fill: rgb(0,0,0); }
</style>
<g>
<polygon class="pen1 brush2" points="473,1013 448,1005 423,996 399,987 375,977 353,966 331,955 310,943 289,930 269,916 250,902 231,888 213,872 195,856 178,839 161,822 145,804 126,780 107,755 90,729 73,702 57,673 41,644 26,613 11,581 6,535 6,489 11,444 21,402 27,384 35,367 42,350 51,333 61,317 71,302 83,287 95,273 110,258 125,244 142,231 159,220 177,210 197,201 217,194 237,188 258,184 280,181 303,181 326,182 349,184 373,189 397,196 422,205 424,206 431,212 441,221 454,233 470,246 488,259 507,271 527,281 571,269 583,242 592,213 601,182 609,151 618,121 629,91 643,63 662,38 667,32 673,27 679,22 685,17 691,12 698,8 705,4 712,0 721,11 727,22 731,35 733,48 732,78 723,109 711,142 697,176 683,211 672,245 666,279 668,313 682,316 697,315 712,313 727,309 742,303 757,297 773,290 788,282 804,275 820,268 836,262 852,257 868,254 884,254 900,255 916,260 916,301 902,309 887,316 872,323 857,329 842,335 826,340 810,345 794,351 778,356 761,361 744,366 727,372 710,378 692,384 674,391 656,398 656,453 671,449 686,445 702,442 718,440 735,437 751,436 768,435 785,435 802,437 818,439 834,442 850,446 865,451 879,458 892,466 905,475 912,487 919,499 924,511 929,523 933,535 936,547 938,559 940,571 942,595 941,620 938,644 933,668 926,692 916,716 904,739 891,761 873,787 853,812 831,837 807,860 782,882 756,903 729,922 700,940 672,956 643,970 613,983 584,993 555,1002 527,1008 500,1012 473,1013"/>
</g>
</svg>
