<?xml version="1.0" encoding="UTF-8" standalone="no"?>
<!DOCTYPE svg PUBLIC "-//W3C//DTD SVG 1.0//EN" "http://www.w3.org/TR/2001/REC-SVG-20010904/DTD/svg10.dtd">
<svg xmlns="http://www.w3.org/2000/svg" xmlns:xlink="http://www.w3.org/1999/xlink" fill-rule="evenodd" height="1.011in" preserveAspectRatio="none" stroke-linecap="round" viewBox="0 0 878 1011" width="0.878in">
<style type="text/css">
.brush0 { fill: rgb(255,255,255); }
.pen0 { stroke: rgb(0,0,0); stroke-width: 1; stroke-linejoin: round; }
.brush1 { fill: none; }
.pen1 { stroke: none; }
.brush2 { fill: rgb(0,0,0); }
</style>
<g>
<polygon class="pen1 brush2" points="479,1001 449,998 419,992 389,986 359,977 329,967 299,956 270,943 242,929 214,914 186,898 160,880 135,861 110,842 87,821 65,799 44,777 30,756 19,731 13,703 10,674 11,644 15,613 22,585 32,558 41,541 51,524 62,509 75,496 89,485 104,475 122,468 141,463 155,461 170,461 184,462 199,464 214,468 230,473 245,478 260,484 274,491 289,499 303,507 316,515 329,523 342,531 353,539 364,547 374,553 386,560 399,564 412,568 423,568 433,565 439,559 441,547 438,514 432,481 423,450 412,420 399,390 385,361 369,332 354,303 339,274 324,244 310,214 298,182 288,150 281,116 277,81 276,44 279,30 285,18 293,9 303,4 309,3 315,3 320,5 326,8 331,12 335,18 339,26 343,35 451,383 456,336 457,285 456,232 457,180 461,131 472,88 491,52 522,27 528,25 533,23 538,21 543,21 547,20 551,21 554,22 557,24 568,37 574,58 577,85 576,116 575,149 573,182 572,213 574,240 586,220 598,203 610,189 623,177 635,168 648,162 660,158 672,156 690,158 707,164 724,174 741,188 757,206 772,227 786,251 800,277 818,320 833,368 846,419 855,473 861,528 863,584 861,641 854,696 847,733 837,769 825,803 810,836 792,867 772,895 749,921 722,943 711,951 699,959 686,966 673,972 660,978 646,983 632,988 617,992 602,996 586,999 570,1001 553,1002 535,1003 517,1003 498,1002 479,1001"/>
</g>
</svg>
