<?xml version="1.0" encoding="UTF-8" standalone="no"?>
<!DOCTYPE svg PUBLIC "-//W3C//DTD SVG 1.0//EN" "http://www.w3.org/TR/2001/REC-SVG-20010904/DTD/svg10.dtd">
<svg xmlns="http://www.w3.org/2000/svg" xmlns:xlink="http://www.w3.org/1999/xlink" fill-rule="evenodd" height="1.011in" preserveAspectRatio="none" stroke-linecap="round" viewBox="0 0 627 1011" width="0.627in">
<style type="text/css">
.brush0 { fill: rgb(255,255,255); }
.pen0 { stroke: rgb(0,0,0); stroke-width: 1; stroke-linejoin: round; }
.brush1 { fill: none; }
.pen1 { stroke: none; }
.brush2 { fill: rgb(0,0,0); }
</style>
<g>
<polygon class="pen1 brush2" points="63,1011 53,993 45,977 39,961 34,946 30,931 27,918 26,905 26,892 30,869 38,848 49,828 63,810 79,793 96,776 114,759 132,741 149,724 165,705 180,685 192,664 200,640 205,615 206,586 202,555 183,533 163,511 145,490 127,469 109,448 92,427 77,406 62,385 49,365 37,344 27,324 18,303 11,282 6,262 3,241 2,220 5,195 11,169 21,143 35,117 53,91 75,63 103,36 135,7 144,7 156,6 171,5 186,5 202,5 217,5 229,7 239,10 206,39 179,69 158,99 141,129 129,158 121,188 118,217 119,247 122,275 130,304 140,332 152,359 167,385 184,411 203,436 223,460 275,513 310,560 330,602 336,639 332,672 318,703 298,731 274,758 247,784 219,810 194,837 173,865 158,896 151,930 155,968 171,1011 158,1011 145,1011 132,1011 119,1011 106,1011 92,1011 78,1011 63,1011 63,1011"/>
<polygon class="pen1 brush2" points="289,900 287,919 289,938 295,957 303,974 311,989 319,1001 325,1008 327,1011 342,1011 356,1011 369,1011 383,1011 396,1011 409,1011 421,1011 434,1011 421,986 413,965 409,947 409,932 412,918 419,905 428,892 441,880 455,866 471,851 489,834 509,814 529,790 551,763 572,731 594,693 605,671 612,649 616,628 618,608 617,589 613,570 608,552 600,534 584,507 565,480 543,454 521,427 498,401 476,375 456,347 439,319 426,289 418,257 416,224 421,188 435,150 458,109 491,65 536,17 346,21 322,59 303,95 289,130 280,163 275,195 274,227 278,258 285,289 297,320 312,352 331,385 353,420 379,456 407,494 439,535 473,578 474,596 470,617 462,640 451,665 438,691 422,718 405,745 387,772 369,797 352,821 335,843 320,862 308,877 298,889 291,897 289,900"/>
</g>
</svg>
