<?xml version="1.0" encoding="UTF-8" standalone="no"?>
<!DOCTYPE svg PUBLIC "-//W3C//DTD SVG 1.0//EN" "http://www.w3.org/TR/2001/REC-SVG-20010904/DTD/svg10.dtd">
<svg xmlns="http://www.w3.org/2000/svg" xmlns:xlink="http://www.w3.org/1999/xlink" fill-rule="evenodd" height="0.659in" preserveAspectRatio="none" stroke-linecap="round" viewBox="0 0 1050 659" width="1.05in">
<style type="text/css">
.brush0 { fill: rgb(255,255,255); }
.pen0 { stroke: rgb(0,0,0); stroke-width: 1; stroke-linejoin: round; }
.brush1 { fill: none; }
.pen1 { stroke: none; }
.brush2 { fill: rgb(0,0,0); }
</style>
<g>
<polygon class="pen1 brush2" points="14,490 92,148 93,148 95,147 99,146 105,145 112,144 120,143 129,142 140,142 140,141 142,135 145,125 152,107 175,116 198,120 223,120 248,117 273,112 299,106 324,99 350,93 375,87 400,83 424,81 447,82 469,88 489,98 508,114 526,136 543,114 562,98 583,88 605,82 628,81 651,83 676,87 701,93 726,99 752,106 777,112 803,117 828,120 852,120 876,116 899,107 906,125 910,135 911,141 911,142 921,142 931,143 939,144 945,145 951,146 955,147 957,148 958,148 1037,492 1011,537 926,169 926,169 925,169 921,168 914,163 994,540 964,545 932,546 899,545 866,541 832,535 799,529 765,521 733,514 702,507 672,501 644,496 618,494 595,494 574,497 557,504 544,516 538,440 535,317 533,204 532,154 520,154 519,204 517,317 514,440 508,516 494,504 477,497 457,494 433,494 408,496 379,501 350,507 318,514 286,521 252,529 219,535 185,541 152,545 119,546 87,545 57,540 137,163 130,168 127,169 125,169 125,169 40,535 14,490"/>
<polygon class="pen1 brush2" points="446,639 0,640 0,580 15,591 29,598 43,604 55,607 65,609 73,609 78,609 80,609 121,609 160,608 198,606 234,602 268,597 299,593 329,588 356,584 380,581 402,579 421,578 437,579 450,583 460,589 466,598 469,611 581,611 584,598 590,589 600,583 613,579 629,578 648,579 670,581 695,584 722,588 751,593 783,597 817,602 853,606 890,608 929,609 970,609 972,609 977,609 985,609 995,607 1008,604 1021,598 1035,591 1050,580 1050,640 607,638 606,642 601,645 593,647 583,649 571,651 557,651 543,652 528,652 512,652 498,651 484,650 472,648 461,646 453,644 448,642 446,639"/>
</g>
</svg>
