<?xml version="1.0" encoding="UTF-8" standalone="no"?>
<!DOCTYPE svg PUBLIC "-//W3C//DTD SVG 1.0//EN" "http://www.w3.org/TR/2001/REC-SVG-20010904/DTD/svg10.dtd">
<svg xmlns="http://www.w3.org/2000/svg" xmlns:xlink="http://www.w3.org/1999/xlink" fill-rule="evenodd" height="1.892in" preserveAspectRatio="none" stroke-linecap="round" viewBox="0 0 2223 1892" width="2.223in">
<style type="text/css">
.brush0 { fill: rgb(255,255,255); }
.pen0 { stroke: rgb(0,0,0); stroke-width: 1; stroke-linejoin: round; }
.brush1 { fill: none; }
.pen1 { stroke: none; }
.brush2 { fill: rgb(0,0,0); }
</style>
<g>
<polygon class="pen1 brush2" points="1111,86 1102,82 1094,78 1085,74 1076,70 1067,66 1057,62 1047,59 1038,55 1028,52 1018,48 1008,46 998,42 988,39 977,36 956,31 934,26 913,21 891,17 868,14 846,10 823,8 777,4 731,1 686,0 596,4 553,10 511,17 491,21 472,26 453,31 435,37 424,41 411,44 400,47 387,51 375,54 362,57 334,62 307,67 278,73 248,77 219,80 189,83 160,85 103,88 0,86 0,173 49,176 103,176 219,167 248,163 278,159 307,155 335,150 362,144 387,138 412,131 424,128 435,125 444,121 453,119 472,114 492,109 512,104 532,100 554,97 574,94 596,92 641,88 686,88 777,90 823,94 868,100 891,104 913,109 934,113 956,118 977,124 998,130 1018,135 1028,139 1038,142 1047,146 1057,150 1067,153 1076,157 1085,161 1094,165 1102,169 1111,173 1111,86 1111,86"/>
<polygon class="pen1 brush2" points="1111,86 1120,82 1128,78 1137,74 1146,70 1156,66 1165,62 1175,59 1185,55 1194,52 1204,48 1214,46 1225,42 1234,39 1245,36 1266,31 1288,26 1309,21 1332,17 1354,14 1377,10 1400,8 1446,4 1491,1 1537,0 1627,4 1670,10 1712,17 1731,21 1751,26 1770,31 1788,37 1799,41 1810,44 1823,47 1835,51 1848,54 1861,57 1889,62 1916,67 1945,73 1974,77 2003,80 2033,83 2062,85 2120,88 2223,86 2223,173 2174,176 2120,176 2003,167 1974,163 1945,159 1916,155 1889,150 1861,144 1835,138 1810,131 1799,128 1788,125 1779,121 1770,119 1751,114 1731,109 1711,104 1691,100 1670,97 1648,94 1627,92 1582,88 1537,88 1446,90 1400,94 1354,100 1332,104 1309,109 1288,113 1266,118 1245,124 1225,130 1204,135 1194,139 1185,142 1175,146 1165,150 1156,153 1146,157 1137,161 1128,165 1120,169 1111,173 1111,86 1111,86"/>
<polygon class="pen1 brush2" points="0,120 0,1684 145,1684 145,162 0,120 0,120"/>
<polygon class="pen1 brush2" points="2223,120 2078,162 2078,1684 2223,1684 2223,120 2223,120"/>
<polygon class="pen1 brush2" points="1111,1651 1102,1647 1094,1642 1085,1639 1076,1635 1067,1631 1057,1627 1047,1623 1038,1620 1028,1616 1018,1613 1008,1610 998,1607 988,1604 977,1601 956,1595 934,1590 913,1586 891,1582 868,1579 846,1575 823,1572 777,1568 731,1566 686,1565 596,1569 553,1574 511,1582 491,1586 472,1591 453,1596 435,1602 424,1605 411,1609 400,1612 387,1616 375,1619 362,1621 334,1627 307,1632 278,1637 248,1641 219,1645 189,1647 160,1650 103,1653 0,1651 0,1738 49,1741 103,1741 219,1732 248,1728 278,1724 307,1720 335,1715 362,1709 387,1703 412,1696 424,1693 435,1689 444,1686 453,1684 472,1678 492,1673 512,1669 532,1665 554,1662 574,1659 596,1657 641,1653 686,1652 777,1655 823,1659 868,1665 891,1669 913,1673 934,1678 956,1683 977,1689 998,1694 1018,1700 1028,1704 1038,1707 1047,1710 1057,1715 1067,1718 1076,1722 1085,1726 1094,1730 1102,1734 1111,1738 1111,1651 1111,1651"/>
<polygon class="pen1 brush2" points="1111,1651 1120,1647 1128,1642 1137,1639 1146,1635 1156,1631 1165,1627 1175,1623 1185,1620 1194,1616 1205,1613 1215,1610 1225,1607 1234,1604 1245,1601 1266,1595 1288,1590 1309,1586 1332,1582 1354,1579 1377,1575 1400,1572 1446,1568 1491,1566 1537,1565 1627,1569 1670,1574 1712,1582 1731,1586 1751,1591 1770,1596 1788,1602 1800,1605 1811,1609 1823,1612 1835,1616 1848,1619 1861,1621 1889,1627 1916,1632 1945,1637 1974,1641 2004,1645 2033,1647 2062,1650 2120,1653 2223,1651 2223,1738 2174,1741 2120,1741 2003,1732 1974,1728 1945,1724 1916,1720 1889,1715 1861,1709 1835,1703 1810,1696 1799,1693 1788,1689 1779,1686 1770,1684 1751,1678 1731,1673 1712,1669 1691,1665 1670,1662 1648,1659 1627,1657 1582,1653 1537,1652 1446,1655 1400,1659 1354,1665 1332,1669 1309,1673 1288,1678 1266,1683 1245,1689 1225,1694 1204,1700 1194,1704 1185,1707 1175,1710 1165,1715 1156,1718 1146,1722 1137,1726 1128,1730 1120,1734 1111,1738 1111,1651 1111,1651"/>
<polygon class="pen1 brush2" points="1062,120 1062,1684 1160,1684 1160,120 1062,120 1062,120"/>
<polygon class="pen1 brush2" points="1111,1882 1070,1879 1037,1873 1010,1866 998,1862 988,1857 979,1851 969,1846 961,1841 953,1836 944,1832 936,1827 927,1823 918,1820 908,1817 898,1814 873,1809 846,1806 816,1804 750,1802 678,1804 607,1808 573,1812 539,1816 509,1820 480,1826 456,1831 435,1838 424,1841 412,1845 400,1848 387,1851 375,1854 362,1857 335,1863 307,1868 278,1872 248,1877 219,1881 189,1883 160,1886 103,1889 0,1887 0,1799 48,1802 103,1802 219,1794 248,1790 278,1785 307,1781 334,1776 362,1770 387,1764 411,1757 424,1754 435,1751 446,1747 459,1744 471,1741 485,1737 500,1735 515,1732 548,1727 582,1723 617,1720 690,1716 760,1715 825,1718 879,1725 901,1730 918,1735 927,1739 935,1743 945,1748 956,1753 968,1759 980,1765 992,1770 1005,1776 1018,1781 1032,1786 1045,1790 1058,1794 1072,1796 1085,1798 1111,1798 1138,1794 1166,1788 1179,1783 1192,1779 1205,1775 1218,1770 1231,1766 1243,1761 1254,1756 1266,1752 1277,1747 1287,1742 1296,1739 1304,1735 1313,1732 1322,1730 1343,1725 1369,1721 1397,1719 1462,1716 1533,1717 1605,1721 1675,1730 1707,1734 1737,1740 1764,1746 1788,1753 1799,1757 1810,1760 1823,1763 1835,1767 1848,1769 1861,1773 1888,1778 1916,1783 1944,1788 1974,1792 2003,1795 2033,1799 2062,1801 2120,1804 2223,1802 2223,1889 2174,1892 2120,1891 2003,1883 1973,1879 1944,1875 1916,1870 1888,1865 1861,1860 1835,1853 1810,1847 1799,1844 1788,1840 1777,1837 1766,1834 1755,1831 1741,1828 1713,1823 1683,1818 1650,1814 1616,1809 1580,1807 1544,1804 1473,1803 1407,1804 1348,1809 1304,1820 1295,1824 1286,1828 1278,1832 1269,1837 1261,1842 1253,1847 1244,1852 1234,1857 1224,1862 1212,1867 1200,1871 1185,1874 1170,1878 1152,1880 1111,1882 1111,1882"/>
<polygon class="pen1 brush2" points="0,1858 0,1614 145,1684 96,1840 0,1858 0,1858"/>
<polygon class="pen1 brush2" points="2078,1684 2126,1833 2223,1833 2223,1621 2078,1684 2078,1684"/>
<polygon class="pen1 brush2" points="918,1600 918,1796 1014,1831 1014,1621 918,1600 918,1600"/>
<polygon class="pen1 brush2" points="1208,1621 1208,1831 1304,1796 1304,1600 1208,1621 1208,1621"/>
</g>
</svg>
