<?xml version="1.0" encoding="UTF-8" standalone="no"?>
<!DOCTYPE svg PUBLIC "-//W3C//DTD SVG 1.0//EN" "http://www.w3.org/TR/2001/REC-SVG-20010904/DTD/svg10.dtd">
<svg xmlns="http://www.w3.org/2000/svg" xmlns:xlink="http://www.w3.org/1999/xlink" fill-rule="evenodd" height="0.734in" preserveAspectRatio="none" stroke-linecap="round" viewBox="0 0 1049 734" width="1.049in">
<style type="text/css">
.brush0 { fill: rgb(255,255,255); }
.pen0 { stroke: rgb(0,0,0); stroke-width: 1; stroke-linejoin: round; }
.brush1 { fill: none; }
.pen1 { stroke: none; }
.brush2 { fill: rgb(0,0,0); }
</style>
<g>
<polygon class="pen1 brush2" points="1049,44 1014,44 1013,46 1009,53 1002,63 990,75 975,86 955,94 929,100 897,100 882,98 867,95 853,91 839,86 825,80 812,74 798,67 784,60 780,58 776,56 772,53 768,51 763,49 759,47 755,45 751,43 742,39 733,36 722,32 710,29 697,26 684,23 670,20 656,18 642,17 628,16 613,16 600,17 586,18 573,21 561,25 550,30 543,35 536,39 530,44 525,50 520,44 514,39 507,35 500,30 489,25 477,21 464,18 450,17 436,16 422,16 408,17 394,18 379,20 366,23 352,26 340,29 328,32 317,36 307,39 299,43 295,45 290,47 286,49 282,51 277,53 273,56 269,58 265,60 251,67 238,74 224,80 210,86 196,91 182,95 167,98 152,100 120,100 94,94 74,86 59,75 47,63 40,53 36,46 35,44 0,44 0,139 0,345 0,550 0,643 1,643 2,648 4,653 7,659 11,665 15,672 21,678 27,685 33,691 42,699 52,706 64,713 79,719 95,724 113,728 133,730 155,729 173,727 190,723 206,718 222,712 237,706 252,699 267,692 281,684 285,682 289,680 293,678 297,676 301,674 305,672 309,670 313,668 321,665 329,662 339,659 349,656 360,653 372,650 384,648 396,646 408,645 420,645 432,644 444,645 455,646 466,648 475,651 484,655 493,661 499,667 504,675 506,684 524,681 541,684 544,675 549,667 555,661 563,655 572,651 581,648 592,646 603,645 614,644 626,645 638,645 651,646 663,648 675,650 686,653 697,656 708,659 717,662 726,665 733,668 737,670 741,672 745,674 749,676 753,678 757,680 761,682 765,684 780,692 794,699 809,706 825,712 841,718 857,723 874,727 892,729 914,730 934,728 952,724 968,719 982,713 994,706 1005,699 1014,691 1021,684 1027,676 1033,669 1038,662 1041,655 1044,649 1045,644 1046,639 1047,639 1047,546 1048,343 1049,138 1049,44"/>
<polygon class="pen1 brush0" points="566,61 575,57 584,54 594,52 606,51 617,51 629,51 641,52 653,53 665,55 677,57 689,59 700,62 710,65 720,68 728,71 736,74 740,76 744,78 748,80 752,82 756,85 760,87 764,89 768,91 782,98 797,106 812,113 827,119 843,125 859,129 876,133 894,135 915,135 934,134 951,131 967,127 981,121 993,115 1003,108 1012,101 1012,546 1012,546 1011,548 1007,555 999,565 988,576 972,587 952,595 926,601 894,601 879,599 864,596 850,592 836,587 822,581 809,575 795,568 781,561 777,559 773,557 769,555 765,552 760,550 756,548 752,546 748,544 739,540 730,537 719,533 707,530 694,527 681,524 667,521 653,519 639,518 625,517 610,517 597,518 583,520 570,523 558,527 547,532 546,532 545,533 543,533 542,534 542,90 544,90 546,81 551,73 557,67 566,61"/>
<polygon class="pen1 brush0" points="524,643 522,640 520,638 517,636 515,634 524,632 533,634 530,636 528,638 526,640 524,643"/>
<polygon class="pen1 brush0" points="524,594 523,593 522,591 520,590 519,589 524,588 528,589 527,590 526,591 525,593 524,594"/>
<polygon class="pen1 brush0" points="993,614 986,620 978,627 968,632 957,637 944,641 929,644 912,646 894,645 879,643 864,640 850,636 836,631 822,625 809,619 795,612 781,605 777,603 773,601 769,598 765,596 760,594 756,592 752,590 748,588 739,584 730,581 719,577 707,574 694,571 681,568 668,565 654,563 639,562 625,561 611,561 597,562 584,563 571,566 559,570 548,575 551,571 555,568 559,565 563,562 572,558 581,555 592,553 603,552 614,552 626,552 638,553 651,554 663,556 675,558 686,561 697,563 708,566 717,570 726,573 733,576 737,578 741,580 745,582 749,584 753,586 757,588 761,590 765,592 780,599 794,607 809,614 825,620 841,626 857,630 874,634 892,636 908,637 924,636 938,634 951,632 963,628 974,624 984,619 993,614"/>
<polygon class="pen1 brush0" points="155,135 173,133 190,129 206,125 222,119 237,113 252,106 267,98 281,91 285,89 289,87 293,85 297,82 301,80 305,78 309,76 313,74 321,71 329,68 339,65 349,62 360,59 372,57 384,55 396,53 408,52 420,51 432,51 444,51 455,52 466,54 475,57 484,61 493,67 499,73 504,81 506,90 507,90 507,536 505,535 504,534 502,533 500,532 489,527 477,523 464,520 450,518 436,517 422,517 408,518 394,519 379,521 366,524 352,527 340,530 328,533 317,537 307,540 299,544 295,546 290,548 286,550 282,552 277,555 273,557 269,559 265,561 251,568 238,575 224,581 210,587 196,592 182,596 167,599 152,601 120,601 94,595 74,587 59,576 47,565 40,555 36,548 35,546 34,546 34,99 43,106 54,113 66,120 80,126 96,131 113,134 133,136 155,135"/>
<polygon class="pen1 brush0" points="499,575 488,570 475,566 463,563 449,562 435,561 421,561 407,562 393,563 379,565 365,568 352,571 339,574 328,577 317,581 307,584 299,588 295,590 290,592 286,594 282,596 277,598 273,601 269,603 265,605 251,612 238,619 224,625 210,631 196,636 182,640 167,643 152,645 134,646 117,644 103,641 90,637 78,632 68,627 60,620 53,614 62,619 72,624 83,628 95,632 109,634 123,636 138,637 155,636 173,634 190,630 206,626 222,620 237,614 252,607 267,599 281,592 285,590 289,588 293,586 297,583 301,581 305,579 309,577 313,575 321,572 329,569 339,566 349,563 360,560 372,558 384,556 396,554 408,553 420,552 432,552 444,552 455,553 466,555 475,558 484,562 489,565 493,568 496,571 499,575"/>
<polygon class="pen1 brush0" points="299,637 295,639 290,641 286,643 282,645 277,647 273,650 269,652 265,654 251,661 238,668 224,674 210,680 196,685 182,689 167,692 152,694 130,694 110,692 94,688 79,681 67,674 57,666 49,659 43,651 52,657 63,663 75,669 88,673 102,677 118,680 136,681 155,680 173,678 190,674 206,670 222,664 237,658 252,651 267,643 281,636 285,634 289,632 293,630 297,627 301,625 305,623 309,621 313,619 321,616 329,613 339,610 349,607 360,604 372,602 384,600 396,598 408,597 420,596 432,596 444,596 455,597 466,599 475,602 484,606 491,610 496,615 501,620 504,626 503,625 502,625 501,625 500,624 489,619 477,615 464,612 450,611 436,610 422,610 408,610 394,612 379,614 366,616 352,619 340,622 328,626 317,629 307,633 299,637"/>
<polygon class="pen1 brush0" points="894,694 879,692 864,689 850,685 836,680 822,674 809,668 795,661 781,654 777,652 773,650 769,647 765,645 760,643 756,641 752,639 748,637 739,633 730,629 719,626 707,622 694,619 681,616 667,614 653,612 639,610 625,610 610,610 597,611 583,612 570,615 558,619 547,624 546,625 546,625 545,625 544,626 547,620 551,615 557,610 563,606 572,602 581,599 592,597 603,596 614,596 626,596 638,597 651,598 663,600 675,602 686,604 697,607 708,610 717,613 726,616 733,619 737,621 741,623 745,625 749,627 753,630 757,632 761,634 765,636 780,643 794,651 809,658 825,664 841,670 857,674 874,678 892,680 911,681 928,680 944,677 958,673 971,669 983,663 994,657 1003,651 997,659 989,666 979,674 967,681 953,688 936,692 916,694 894,694"/>
</g>
</svg>
