<?xml version="1.0" encoding="UTF-8" standalone="no"?>
<!DOCTYPE svg PUBLIC "-//W3C//DTD SVG 1.0//EN" "http://www.w3.org/TR/2001/REC-SVG-20010904/DTD/svg10.dtd">
<svg xmlns="http://www.w3.org/2000/svg" xmlns:xlink="http://www.w3.org/1999/xlink" fill-rule="evenodd" height="0.66in" preserveAspectRatio="none" stroke-linecap="round" viewBox="0 0 785 660" width="0.785in">
<style type="text/css">
.brush0 { fill: rgb(255,255,255); }
.pen0 { stroke: rgb(0,0,0); stroke-width: 1; stroke-linejoin: round; }
.brush1 { fill: none; }
.pen1 { stroke: none; }
.brush2 { fill: rgb(0,0,0); }
</style>
<g>
<polygon class="pen1 brush2" points="379,49 379,126 378,258 371,460 370,573 341,530 260,466 181,410 86,420 24,412 2,397 0,254 6,211 24,218 27,219 33,221 40,223 46,222 53,219 64,216 76,213 89,211 101,209 111,208 117,207 120,207 156,219 202,215 245,182 247,179 252,172 260,161 269,149 278,137 286,126 293,119 296,116 299,114 305,108 312,101 321,92 329,83 336,75 341,70 343,68 379,49"/>
<polygon class="pen1 brush0" points="330,114 300,148 280,167 233,220 211,248 209,248 204,248 197,247 189,247 181,247 173,246 167,246 164,246 158,245 150,243 142,241 138,240 78,251 50,255 53,341 51,374 96,387 155,380 190,376 252,423 309,472 320,483 318,324 315,192 331,128 330,114"/>
<polygon class="pen1 brush2" points="423,175 425,175 429,175 435,177 442,179 450,182 458,188 466,195 472,205 482,225 489,240 494,250 496,254 499,267 506,297 512,331 510,358 506,368 501,378 496,389 491,400 486,409 483,417 480,422 479,424 451,464 438,434 479,368 480,357 480,332 480,305 478,286 473,272 467,254 462,238 460,232 436,197 420,184 423,175"/>
<polygon class="pen1 brush2" points="519,83 521,83 527,83 536,83 546,83 557,83 567,85 575,87 580,90 584,96 589,106 596,117 602,129 608,141 613,151 617,157 618,160 621,173 629,203 637,239 642,267 645,297 648,337 649,375 649,396 646,412 641,437 635,461 632,478 629,485 623,493 616,502 608,510 599,518 591,526 583,532 578,537 571,539 565,535 561,529 559,526 560,525 564,523 569,519 574,514 580,508 586,502 590,495 592,488 597,468 604,443 610,422 613,413 622,338 621,328 619,303 616,274 611,250 604,224 595,192 587,164 584,152 544,114 519,95 519,83"/>
<polygon class="pen1 brush2" points="627,0 629,0 636,1 646,3 657,5 668,8 679,11 688,16 694,21 700,29 707,41 717,55 726,70 735,84 743,97 748,105 750,108 751,113 754,125 759,143 764,164 769,188 774,211 779,233 781,250 783,294 783,354 782,409 781,440 776,465 767,504 758,542 753,562 751,567 747,576 741,587 735,600 727,614 720,627 714,637 708,645 703,650 698,653 692,654 688,655 683,655 680,655 678,654 677,654 675,623 677,622 681,618 687,613 694,606 701,598 707,589 712,579 715,569 721,541 729,505 737,475 740,462 751,358 750,343 748,309 744,268 738,234 734,218 729,198 724,176 719,153 713,132 709,114 706,102 705,98 656,44 627,17 627,0"/>
</g>
</svg>
