<?xml version="1.0" encoding="UTF-8" standalone="no"?>
<!DOCTYPE svg PUBLIC "-//W3C//DTD SVG 1.0//EN" "http://www.w3.org/TR/2001/REC-SVG-20010904/DTD/svg10.dtd">
<svg xmlns="http://www.w3.org/2000/svg" xmlns:xlink="http://www.w3.org/1999/xlink" fill-rule="evenodd" height="0.366in" preserveAspectRatio="none" stroke-linecap="round" viewBox="0 0 214 366" width="0.214in">
<style type="text/css">
.brush0 { fill: rgb(255,255,255); }
.pen0 { stroke: rgb(0,0,0); stroke-width: 1; stroke-linejoin: round; }
.brush1 { fill: none; }
.pen1 { stroke: none; }
.brush2 { fill: rgb(0,0,0); }
</style>
<g>
<polygon class="pen1 brush2" points="0,98 0,87 214,87 214,98 0,98"/>
<polygon class="pen1 brush2" points="0,147 0,135 214,135 214,147 0,147"/>
<polygon class="pen1 brush2" points="0,196 0,184 214,184 214,196 0,196"/>
<polygon class="pen1 brush2" points="0,244 0,232 214,232 214,244 0,244"/>
<polygon class="pen1 brush2" points="0,292 0,281 214,281 214,292 0,292"/>
<polygon class="pen1 brush2" points="124,273 133,268 138,259 141,247 140,235 137,224 130,215 120,211 107,212 124,273 129,284 131,300 130,321 123,341 107,355 99,358 91,359 83,359 76,356 70,352 64,346 61,339 59,330 59,324 61,318 64,314 68,309 72,306 77,304 82,304 87,304 92,307 97,310 102,315 105,320 106,327 106,333 103,340 97,346 101,349 105,349 110,346 114,340 118,332 119,320 118,307 113,291 99,292 85,291 72,288 60,283 49,275 39,266 31,254 25,240 22,225 21,210 23,195 28,180 35,165 45,150 56,135 70,120 79,107 86,101 94,93 102,84 110,73 115,62 118,52 118,43 113,36 106,32 98,33 90,37 83,46 78,57 75,71 75,88 79,107 70,120 65,100 62,80 62,60 64,42 68,26 75,13 85,5 97,3 109,7 120,18 126,34 130,54 128,76 121,101 109,126 90,150 79,161 59,183 48,205 44,226 47,245 56,260 70,271 88,277 109,277 93,212 81,220 76,230 75,241 78,251 84,260 90,267 93,271 91,271 86,269 81,267 76,264 70,259 65,254 61,248 57,240 55,232 54,223 56,215 58,208 62,201 67,195 73,190 80,187 87,184 79,161 90,150 100,183 120,185 136,192 148,204 156,218 159,235 155,252 146,269 129,284 124,273"/>
</g>
</svg>
