<?xml version="1.0" encoding="UTF-8" standalone="no"?>
<!DOCTYPE svg PUBLIC "-//W3C//DTD SVG 1.0//EN" "http://www.w3.org/TR/2001/REC-SVG-20010904/DTD/svg10.dtd">
<svg xmlns="http://www.w3.org/2000/svg" xmlns:xlink="http://www.w3.org/1999/xlink" fill-rule="evenodd" height="1.004in" preserveAspectRatio="none" stroke-linecap="round" viewBox="0 0 888 1004" width="0.888in">
<style type="text/css">
.brush0 { fill: rgb(255,255,255); }
.pen0 { stroke: rgb(0,0,0); stroke-width: 1; stroke-linejoin: round; }
.brush1 { fill: none; }
.pen1 { stroke: none; }
.brush2 { fill: rgb(0,0,0); }
</style>
<g>
<polygon class="pen1 brush2" points="570,543 583,528 598,519 614,516 629,517 644,523 659,532 671,545 681,560 676,540 666,524 651,512 634,506 616,504 598,509 582,519 568,536 570,543 570,543"/>
<polygon class="pen1 brush2" points="154,562 159,548 174,543 190,539 205,536 221,533 238,531 254,530 270,529 287,529 303,529 320,530 336,531 353,533 369,535 385,537 400,539 416,541 416,546 399,545 383,545 366,544 350,543 333,543 317,542 301,542 284,542 268,543 252,544 235,545 219,547 203,550 187,553 170,557 154,562 154,562 154,562"/>
<polygon class="pen1 brush2" points="387,853 385,866 378,875 369,881 359,883 349,883 340,881 333,878 331,873 334,870 340,865 348,859 354,852 357,846 353,842 339,841 314,843 295,845 277,845 263,844 255,842 252,838 258,834 274,829 301,824 313,822 327,820 341,819 355,820 367,823 378,829 384,839 387,854 387,853 387,853"/>
<polygon class="pen1 brush2" points="533,858 530,879 523,888 513,889 503,884 494,877 490,870 491,867 501,870 508,871 512,869 515,864 515,858 512,852 507,848 500,847 490,851 483,852 475,851 467,848 458,845 450,843 444,843 440,847 438,856 441,868 449,866 457,862 460,871 458,876 454,879 447,881 440,881 433,879 426,874 422,867 420,858 425,845 438,836 456,831 477,829 497,831 515,837 528,846 533,858 533,858"/>
<polygon class="pen1 brush2" points="702,840 697,847 685,849 668,848 649,846 630,844 613,844 601,849 596,859 598,861 604,865 611,870 618,874 621,879 620,883 612,886 595,887 580,884 570,877 566,866 566,854 570,842 578,831 590,824 606,821 614,821 626,823 642,824 659,827 675,830 689,833 698,836 702,840 702,840 702,840"/>
<polygon class="pen1 brush2" points="648,594 646,605 640,612 632,617 623,619 614,618 606,614 600,608 598,599 600,590 606,583 614,578 623,575 632,575 640,578 646,584 648,594 648,594"/>
<polygon class="pen1 brush2" points="144,333 133,378 104,377 112,348 131,339 71,236 25,269 35,283 55,270 66,285 45,297 60,373 29,375 34,351 57,338 3,254 68,208 144,333 144,333"/>
<polygon class="pen1 brush2" points="861,491 848,475 834,459 818,445 801,432 783,420 764,409 745,397 725,386 706,373 691,358 682,342 677,326 678,310 685,294 697,278 715,264 725,248 732,221 737,192 742,168 748,139 750,115 747,95 740,80 729,68 715,59 699,53 681,50 661,48 640,49 618,50 596,52 574,54 554,56 534,57 516,58 492,62 471,74 453,91 438,112 425,136 414,160 404,184 395,205 369,215 346,227 326,241 310,257 296,276 285,296 277,319 272,343 267,359 257,373 245,388 234,401 226,415 224,429 232,443 252,457 272,468 291,477 308,486 325,493 341,500 357,504 372,508 387,509 403,509 419,507 435,503 452,497 470,488 490,477 511,464 533,448 544,450 559,452 578,455 599,459 623,463 648,468 675,473 701,480 727,487 751,494 774,503 794,512 811,522 824,533 832,544 835,557 843,567 855,600 855,600 683,594 683,587 843,567 835,557 679,569 667,554 654,545 640,540 625,539 610,543 595,549 581,559 569,572 590,580 599,572 609,566 621,562 633,561 644,563 653,568 660,577 662,591 662,591 661,591 658,609 649,621 636,629 622,632 608,630 595,623 586,612 583,597 584,593 585,588 587,584 590,580 569,572 558,571 540,569 516,567 488,564 456,562 422,560 386,558 349,556 313,556 278,556 246,558 217,560 193,565 175,570 163,578 159,588 158,609 161,624 169,637 182,649 199,659 220,668 243,676 268,683 294,689 321,693 347,697 373,700 397,703 419,704 438,705 454,706 465,706 486,706 505,705 524,704 542,703 560,702 577,701 594,701 610,701 627,701 643,702 659,704 676,706 693,710 711,715 729,721 748,729 782,725 699,687 698,663 693,644 684,628 672,617 833,623 833,623 828,630 825,640 822,653 819,667 814,682 807,697 796,711 782,725 748,729 229,729 73,609 158,609 159,588 142,588 123,587 104,586 85,585 66,586 47,588 29,591 13,597 14,602 17,608 22,614 29,620 42,635 50,653 54,673 56,695 55,718 53,741 52,763 51,784 47,786 40,789 31,792 23,795 14,798 7,801 2,804 0,806 2,809 7,816 15,826 26,839 39,854 53,870 69,888 85,906 101,924 117,941 132,958 146,972 158,984 168,994 175,1000 179,1002 790,1004 761,985 193,985 201,964 736,964 761,985 790,1004 796,1003 799,999 797,993 793,986 786,978 776,969 766,960 754,951 728,942 209,942 209,763 728,763 728,942 754,951 754,855 785,825 812,794 836,761 854,728 869,693 880,658 886,621 888,584 888,584 886,557 881,533 872,511 861,491 843,497 843,510 843,510 834,504 822,496 806,488 788,478 769,468 748,458 727,446 706,435 685,423 667,411 650,399 636,388 626,376 620,366 618,355 622,346 634,358 646,368 659,379 673,388 687,397 701,406 715,415 730,423 744,431 759,440 773,448 788,457 802,466 816,476 830,486 843,497 861,491"/>
<polygon class="pen1 brush2" points="146,137 122,174 95,163 112,138 133,137 118,45 63,61 77,114 57,151 27,142 65,117 47,39 126,18 146,137 146,137"/>
<polygon class="pen1 brush2" points="314,211 185,183 185,160 314,211 314,211"/>
<polygon class="pen1 brush2" points="334,188 192,83 203,69 334,188 334,188"/>
<polygon class="pen1 brush2" points="356,176 288,70 301,62 356,176 356,176"/>
</g>
</svg>
