<?xml version="1.0" encoding="UTF-8" standalone="no"?>
<!DOCTYPE svg PUBLIC "-//W3C//DTD SVG 1.0//EN" "http://www.w3.org/TR/2001/REC-SVG-20010904/DTD/svg10.dtd">
<svg xmlns="http://www.w3.org/2000/svg" xmlns:xlink="http://www.w3.org/1999/xlink" fill-rule="evenodd" height="0.909in" preserveAspectRatio="none" stroke-linecap="round" viewBox="0 0 994 909" width="0.994in">
<style type="text/css">
.brush0 { fill: rgb(255,255,255); }
.pen0 { stroke: rgb(0,0,0); stroke-width: 1; stroke-linejoin: round; }
.brush1 { fill: none; }
.pen1 { stroke: none; }
.brush2 { fill: rgb(0,0,0); }
</style>
<g>
<polygon class="pen1 brush2" points="557,364 554,405 546,447 533,491 515,535 493,579 467,622 438,663 405,700 370,734 332,763 293,787 252,804 209,814 166,816 122,809 78,792 105,796 132,794 161,788 189,777 218,762 247,743 275,721 304,697 331,671 358,643 383,614 407,585 430,556 451,527 470,499 487,472 501,447 514,425 524,406 533,389 540,375 544,364 547,355 548,349 552,350 555,353 556,358 557,364 557,364 557,364"/>
<polygon class="pen1 brush2" points="215,579 229,564 213,550 222,543 230,531 258,504 279,513 301,516 321,514 339,506 353,493 361,477 362,457 354,434 339,443 342,448 344,454 345,460 346,467 346,467 345,474 341,482 334,490 326,497 315,503 303,505 289,503 275,495 339,443 354,434 765,149 801,156 802,164 811,164 814,139 805,137 804,147 771,142 810,127 855,129 855,137 865,141 869,113 857,114 856,122 819,119 865,101 908,109 909,118 919,119 922,92 912,92 910,102 878,95 925,79 955,82 955,91 967,90 966,70 957,69 955,77 925,71 941,49 950,49 945,32 935,32 938,39 909,72 876,86 885,65 893,62 890,49 878,49 879,61 876,71 871,79 863,86 854,92 844,97 834,101 824,105 837,82 848,80 842,65 833,68 831,78 824,89 817,98 814,102 808,106 802,110 796,114 790,118 784,121 779,124 774,126 770,128 796,102 794,92 784,92 782,99 782,99 753,136 325,417 311,427 252,469 253,456 257,446 262,437 270,431 278,427 288,425 299,425 311,427 325,417 310,412 294,410 278,412 264,417 252,427 244,441 240,459 242,482 208,509 206,499 204,494 202,491 198,491 194,491 188,492 181,491 172,488 171,494 170,499 167,504 163,507 158,510 151,512 144,514 135,514 135,518 135,523 137,529 140,536 129,544 123,550 122,555 125,558 130,560 137,561 145,561 154,561 162,552 142,551 154,537 151,533 150,529 148,526 148,523 153,523 158,522 162,520 166,518 170,515 173,511 176,507 178,502 185,504 191,506 196,507 200,508 201,516 201,516 189,527 178,517 162,532 173,541 162,552 154,561 80,663 64,659 41,685 17,696 24,706 32,702 39,702 43,705 45,707 50,696 56,688 64,683 71,680 78,681 84,685 88,693 90,705 90,705 88,712 85,718 79,724 73,729 78,743 77,752 70,758 61,759 49,757 38,751 28,741 21,727 20,722 21,716 22,710 24,706 17,696 21,662 32,628 49,594 71,561 98,529 129,497 163,467 199,439 237,412 277,387 316,365 356,344 394,327 431,312 466,300 497,292 492,279 458,286 421,298 382,313 341,332 300,353 259,378 219,405 180,435 144,466 110,499 79,534 52,569 30,605 14,642 4,678 0,715 2,729 7,742 15,754 27,764 61,779 97,784 134,778 173,763 212,741 251,713 290,679 328,641 364,600 399,558 431,516 461,474 487,434 509,397 528,365 541,338 531,328 513,357 494,388 473,421 451,455 428,490 403,525 377,559 350,592 322,624 293,654 262,681 231,705 198,726 164,742 130,754 94,760 95,740 99,724 101,708 99,688 185,578 187,596 188,607 191,613 194,614 199,614 206,613 215,613 227,616 228,610 229,604 232,600 236,596 241,593 248,591 255,589 264,589 266,576 266,566 265,558 263,552 259,547 252,542 243,537 230,531 222,543 252,556 252,556 243,566 247,570 249,574 251,578 251,581 246,581 241,582 236,584 232,586 228,589 225,593 222,597 220,602 213,599 207,597 203,596 199,596 192,570 200,565 215,579 212,567 172,532 178,527 217,560 217,560 212,567 215,579"/>
<polygon class="pen1 brush2" points="541,338 765,182 774,185 784,188 794,190 804,191 813,190 821,186 827,179 831,168 839,172 847,174 855,175 863,174 870,171 876,167 881,160 885,151 895,152 905,153 914,152 921,150 928,146 933,139 938,131 941,119 953,122 963,120 972,117 979,110 985,103 988,95 990,86 990,78 985,66 977,58 970,54 967,53 971,39 968,28 961,20 951,16 938,15 926,17 914,23 905,32 898,28 891,26 885,26 879,28 874,32 869,36 864,42 859,49 850,46 843,45 836,45 830,47 824,51 819,56 815,63 810,71 808,70 804,68 796,67 787,68 776,72 764,82 751,97 738,120 492,279 497,292 745,127 750,120 757,110 766,99 776,88 786,81 795,78 804,82 810,95 815,85 820,75 825,65 830,58 836,54 842,54 848,60 855,73 860,63 865,54 871,45 878,39 884,36 890,37 896,44 900,58 913,40 927,30 939,26 950,26 957,31 960,39 958,48 950,58 964,60 974,65 979,73 979,82 975,90 966,97 952,102 934,103 933,114 929,122 923,128 916,131 907,133 898,134 889,133 880,132 875,143 870,151 864,157 858,159 851,160 843,159 834,156 824,151 821,163 816,170 810,174 802,175 793,174 784,171 773,168 763,165 531,328 541,338"/>
</g>
</svg>
