<?xml version="1.0" encoding="UTF-8" standalone="no"?>
<!DOCTYPE svg PUBLIC "-//W3C//DTD SVG 1.0//EN" "http://www.w3.org/TR/2001/REC-SVG-20010904/DTD/svg10.dtd">
<svg xmlns="http://www.w3.org/2000/svg" xmlns:xlink="http://www.w3.org/1999/xlink" fill-rule="evenodd" height="0.322in" preserveAspectRatio="none" stroke-linecap="round" viewBox="0 0 1019 322" width="1.019in">
<style type="text/css">
.brush0 { fill: rgb(255,255,255); }
.pen0 { stroke: rgb(0,0,0); stroke-width: 1; stroke-linejoin: round; }
.brush1 { fill: none; }
.pen1 { stroke: none; }
.brush2 { fill: rgb(0,0,0); }
</style>
<g>
<polygon class="pen1 brush2" points="902,241 913,241 927,242 943,244 960,248 976,253 989,260 999,269 1002,280 999,293 991,302 979,308 964,312 948,314 933,315 919,315 908,315 912,313 917,310 921,306 925,301 954,299 973,293 982,286 982,277 974,268 961,260 942,255 920,253 918,251 914,248 908,245 901,241 902,241 902,241"/>
<polygon class="pen1 brush2" points="815,241 826,241 840,242 856,244 873,248 889,253 902,260 912,269 915,280 912,293 904,302 892,308 877,312 861,314 846,315 832,315 821,315 825,313 830,310 834,306 838,301 867,299 886,293 895,286 895,277 887,268 874,260 855,255 833,253 831,251 827,248 821,245 815,241 815,241 815,241"/>
<polygon class="pen1 brush2" points="411,306 403,308 400,313 397,317 391,319 381,317 377,310 378,302 382,294 387,287 394,284 399,285 403,294 411,294 411,306 411,306"/>
<polygon class="pen1 brush2" points="428,306 418,306 418,294 428,293 428,306 428,306"/>
<polygon class="pen1 brush2" points="612,285 588,285 562,262 584,262 612,285 612,285"/>
<polygon class="pen1 brush2" points="524,285 496,284 473,260 500,261 524,285 524,285"/>
<polygon class="pen1 brush2" points="368,148 366,156 362,166 359,175 355,185 353,196 354,205 357,215 365,223 365,228 344,228 346,147 368,148 368,148"/>
<polygon class="pen1 brush2" points="331,228 277,229 281,218 285,212 290,209 295,209 300,211 305,214 309,217 314,218 314,206 315,195 315,183 314,172 311,163 305,156 296,151 284,149 282,145 329,147 331,228 331,228"/>
<polygon class="pen1 brush2" points="257,229 240,229 236,214 224,204 206,197 185,194 163,194 142,194 124,195 111,196 118,225 93,220 88,195 70,214 52,206 53,200 56,195 60,190 65,186 70,183 76,181 82,179 88,179 90,163 95,152 102,145 111,140 122,138 134,138 146,139 158,140 148,143 139,146 132,150 126,155 121,160 118,166 116,172 115,179 135,178 157,177 181,177 204,178 224,183 241,192 253,207 257,229 257,229 257,229"/>
<polygon class="pen1 brush2" points="685,172 694,150 697,125 694,98 684,71 669,51 652,42 635,42 618,49 602,62 587,79 574,97 564,114 558,117 547,119 530,121 510,122 486,122 459,123 431,122 401,122 371,121 341,120 313,119 286,118 262,117 241,116 224,115 212,114 200,113 187,111 171,110 155,108 138,107 120,107 102,107 85,108 68,111 52,114 38,120 25,127 15,137 7,148 2,162 0,179 2,196 9,210 21,222 37,232 57,239 82,245 112,248 146,249 182,249 218,249 255,249 291,250 327,250 363,251 400,251 436,251 472,252 508,252 545,253 581,253 617,254 653,254 689,254 725,254 733,254 743,255 755,256 768,259 780,262 790,267 797,273 800,281 799,285 797,288 793,290 787,292 766,295 745,298 723,299 701,299 679,298 656,297 634,295 611,294 589,292 566,290 544,289 522,288 500,288 478,289 456,291 435,294 435,306 452,309 469,311 486,313 505,314 523,315 542,316 561,316 580,316 599,317 618,316 637,316 656,316 674,316 693,315 711,315 728,315 740,315 754,315 769,315 784,313 798,309 809,302 817,293 820,279 820,279 820,279 818,268 812,260 802,252 789,247 774,242 757,239 738,237 718,235 698,235 679,234 660,235 642,235 625,236 611,237 600,238 592,238 569,238 547,239 524,239 501,239 478,239 455,239 432,239 409,238 386,238 364,238 341,238 318,237 295,237 272,236 249,236 226,236 216,236 204,236 190,236 175,236 158,235 141,235 124,233 107,231 90,228 74,225 60,220 47,214 37,207 29,199 24,189 22,177 24,164 28,153 36,144 46,137 58,132 71,128 86,126 102,124 118,124 134,124 149,125 165,126 179,128 191,129 202,130 211,131 222,132 238,132 259,133 284,134 312,135 342,136 373,137 404,139 435,140 465,141 492,143 516,144 537,146 552,147 562,149 566,150 579,178 594,197 611,208 628,212 644,210 660,201 674,189 685,172 672,168 669,176 663,185 654,193 643,196 639,181 629,168 613,157 595,148 575,141 555,136 537,133 523,132 523,129 547,130 569,131 590,134 609,139 627,144 644,151 659,159 672,168 685,172"/>
</g>
</svg>
