<?xml version="1.0" encoding="UTF-8" standalone="no"?>
<!DOCTYPE svg PUBLIC "-//W3C//DTD SVG 1.0//EN" "http://www.w3.org/TR/2001/REC-SVG-20010904/DTD/svg10.dtd">
<svg xmlns="http://www.w3.org/2000/svg" xmlns:xlink="http://www.w3.org/1999/xlink" fill-rule="evenodd" height="0.49in" preserveAspectRatio="none" stroke-linecap="round" viewBox="0 0 490 490" width="0.49in">
<style type="text/css">
.brush0 { fill: rgb(255,255,255); }
.pen0 { stroke: rgb(0,0,0); stroke-width: 1; stroke-linejoin: round; }
.brush1 { fill: none; }
.pen1 { stroke: none; }
.brush2 { fill: rgb(0,0,0); }
</style>
<g>
<polygon class="pen1 brush2" points="245,490 270,489 294,485 318,479 340,471 362,460 382,448 401,434 418,418 434,401 448,382 460,362 471,340 479,318 485,294 489,270 490,245 489,220 485,196 479,172 471,150 460,128 448,108 434,89 418,72 401,56 382,42 362,30 340,19 318,11 294,5 270,1 245,0 220,1 196,5 172,11 150,19 128,30 108,42 89,56 72,72 56,89 42,108 30,128 19,150 11,172 5,196 1,220 0,245 1,270 5,294 11,318 19,340 30,362 42,382 56,401 72,418 89,434 108,448 128,460 150,471 172,479 196,485 220,489 245,490"/>
<polygon class="pen1 brush0" points="228,385 238,375 245,365 249,355 251,346 252,139 269,143 282,153 294,167 302,185 309,204 315,224 319,242 322,257 325,268 329,280 336,289 348,293 341,267 343,231 349,193 352,163 349,145 341,126 328,107 312,88 295,72 276,59 257,50 239,47 239,323 237,319 234,316 231,314 227,312 227,312 227,312 209,308 188,311 167,320 147,333 132,350 122,369 121,388 130,406 139,413 151,417 163,418 177,415 190,411 204,404 217,395 228,385"/>
</g>
</svg>
