<?xml version="1.0" encoding="UTF-8" standalone="no"?>
<!DOCTYPE svg PUBLIC "-//W3C//DTD SVG 1.0//EN" "http://www.w3.org/TR/2001/REC-SVG-20010904/DTD/svg10.dtd">
<svg xmlns="http://www.w3.org/2000/svg" xmlns:xlink="http://www.w3.org/1999/xlink" fill-rule="evenodd" height="0.327in" preserveAspectRatio="none" stroke-linecap="round" viewBox="0 0 1001 327" width="1.001in">
<style type="text/css">
.brush0 { fill: rgb(255,255,255); }
.pen0 { stroke: rgb(0,0,0); stroke-width: 1; stroke-linejoin: round; }
.brush1 { fill: none; }
.pen1 { stroke: none; }
.brush2 { fill: rgb(0,0,0); }
</style>
<g>
<polygon class="pen1 brush2" points="48,152 45,168 37,170 29,173 23,177 17,179 12,180 7,177 3,170 0,158 5,142 13,133 22,135 28,151 48,152 48,152"/>
<polygon class="pen1 brush2" points="76,149 74,168 56,167 58,150 76,149 76,149"/>
<polygon class="pen1 brush2" points="367,235 337,229 312,231 294,239 284,250 285,262 297,271 324,275 366,272 365,297 334,297 308,295 288,291 272,285 261,278 254,270 252,261 253,251 258,242 266,234 277,226 290,219 306,214 324,211 344,210 366,212 367,235 367,235"/>
<polygon class="pen1 brush2" points="408,236 408,255 407,275 406,296 404,317 374,322 380,279 382,239 377,200 368,157 398,155 403,173 406,193 407,214 408,236 408,236 408,236"/>
<polygon class="pen1 brush2" points="460,153 454,196 450,237 449,277 451,320 422,318 422,277 423,236 425,195 427,153 460,153 460,153"/>
<polygon class="pen1 brush2" points="510,156 501,199 495,242 492,284 492,327 464,322 463,281 467,238 474,195 481,154 510,156 510,156"/>
<polygon class="pen1 brush2" points="402,99 368,100 365,81 398,81 402,99 402,99"/>
<polygon class="pen1 brush2" points="410,69 361,71 363,63 368,57 375,54 384,53 392,55 400,58 406,63 410,69 410,69 410,69"/>
<polygon class="pen1 brush2" points="469,80 465,99 428,100 430,81 469,80 469,80"/>
<polygon class="pen1 brush2" points="582,182 580,191 576,197 570,201 563,202 555,201 549,198 545,192 543,184 545,176 549,170 555,167 563,166 570,168 576,171 580,176 582,182 582,182 582,182"/>
<polygon class="pen1 brush2" points="770,105 782,105 793,104 805,103 818,101 830,100 842,98 854,95 867,92 878,88 890,84 901,79 912,74 923,68 933,61 942,53 951,45 965,33 975,30 983,33 988,42 991,55 993,70 994,86 994,101 994,101 994,101 993,119 991,136 987,153 981,170 974,186 965,202 954,218 942,233 923,254 908,269 896,278 887,281 879,278 872,268 865,252 857,230 851,216 843,204 833,193 822,183 808,175 792,168 775,162 756,158 771,181 777,201 777,219 771,235 759,248 742,260 722,269 698,277 673,283 646,288 619,292 592,294 566,295 542,295 521,294 504,293 510,268 515,269 523,270 533,271 545,272 558,273 572,274 586,275 601,275 615,275 629,274 641,273 652,271 662,268 669,265 673,260 675,255 673,248 669,242 662,238 653,235 642,232 629,231 616,230 602,230 587,230 573,231 559,232 546,234 534,235 524,236 516,237 510,238 510,218 517,217 527,216 541,215 557,214 574,214 593,213 612,213 631,214 649,215 665,217 680,220 691,224 700,230 704,237 704,245 698,255 710,251 721,247 730,242 738,236 743,229 748,222 750,214 751,205 748,191 740,178 728,168 712,160 692,153 671,147 647,143 622,140 597,138 572,137 548,137 525,137 504,137 486,137 472,138 462,138 433,138 406,138 380,139 355,140 331,141 308,142 287,143 266,145 247,146 230,148 213,150 197,153 183,155 170,158 159,161 148,164 149,185 152,203 157,219 165,231 176,241 191,247 209,249 232,247 233,274 211,272 189,266 169,257 152,245 138,229 129,211 126,190 130,166 123,162 116,160 109,160 101,162 99,173 84,174 85,132 100,132 100,142 121,140 142,137 163,135 184,133 205,131 226,129 247,128 268,126 289,125 310,123 330,122 351,120 372,119 393,118 414,117 435,116 456,115 477,114 498,113 519,112 540,112 560,111 581,110 602,110 623,109 644,108 665,108 686,107 707,107 728,106 749,106 770,105 821,119 830,119 840,119 853,120 866,120 880,119 894,119 908,118 922,116 935,113 946,109 956,104 963,98 969,91 971,82 970,71 965,59 965,59 965,59 949,73 933,84 916,93 899,101 880,106 861,111 842,115 821,119 770,105"/>
<polygon class="pen1 brush2" points="474,70 428,69 431,63 437,58 443,56 451,55 458,56 465,59 470,64 474,70 474,70"/>
<polygon class="pen1 brush2" points="526,85 520,104 488,102 491,82 526,85 526,85"/>
<polygon class="pen1 brush2" points="533,74 487,72 490,63 495,57 502,54 509,53 517,56 524,60 530,66 533,74 533,74 533,74"/>
</g>
</svg>
