<?xml version="1.0" encoding="UTF-8" standalone="no"?>
<!DOCTYPE svg PUBLIC "-//W3C//DTD SVG 1.0//EN" "http://www.w3.org/TR/2001/REC-SVG-20010904/DTD/svg10.dtd">
<svg xmlns="http://www.w3.org/2000/svg" xmlns:xlink="http://www.w3.org/1999/xlink" fill-rule="evenodd" height="0.26in" preserveAspectRatio="none" stroke-linecap="round" viewBox="0 0 367 260" width="0.367in">
<style type="text/css">
.brush0 { fill: rgb(255,255,255); }
.pen0 { stroke: rgb(0,0,0); stroke-width: 1; stroke-linejoin: round; }
.brush1 { fill: none; }
.pen1 { stroke: none; }
.brush2 { fill: rgb(0,0,0); }
</style>
<g>
<polygon class="pen1 brush2" points="212,168 213,168 215,169 216,169 217,170 218,171 218,172 219,174 219,175 219,176 218,178 218,179 217,180 216,181 215,181 213,182 212,182 211,182 210,181 208,181 207,180 206,179 206,178 205,176 205,175 205,174 206,172 206,171 207,170 208,169 210,169 211,168 212,168 212,168 212,168"/>
<polygon class="pen1 brush2" points="97,26 103,32 109,36 115,38 122,39 128,39 134,38 139,36 143,34 146,31 149,27 150,23 151,19 151,15 149,11 147,8 144,5 140,3 136,1 131,0 126,0 121,0 116,1 111,3 107,5 103,9 100,13 96,19 92,26 92,176 97,176 97,75 103,81 109,85 115,88 122,89 128,89 134,87 139,86 143,83 146,80 149,76 150,72 151,68 151,64 149,60 147,57 144,54 140,52 136,50 131,49 126,49 117,50 110,53 103,58 97,65 97,26"/>
<polygon class="pen1 brush2" points="60,79 55,79 55,207 49,202 43,197 37,195 31,194 25,194 19,195 14,197 9,200 6,203 3,206 2,210 1,214 2,218 3,222 5,226 8,229 12,231 16,233 21,234 26,234 32,234 37,232 41,231 46,228 50,224 53,220 57,214 60,206 60,79"/>
<polygon class="pen1 brush2" points="256,187 258,183 260,180 263,177 266,175 270,173 274,172 278,171 282,171 288,172 294,173 302,176 310,181 310,83 316,83 319,86 321,88 322,89 323,90 328,96 337,105 345,115 349,126 352,138 353,144 352,156 349,167 345,178 340,187 335,193 332,196 329,199 325,201 322,203 322,198 326,193 330,187 330,187 333,180 335,173 336,165 337,156 337,154 336,151 335,148 334,144 330,138 330,138 327,133 323,128 319,124 315,121 315,234 312,240 309,245 305,249 302,252 298,255 294,257 290,259 286,260 282,260 273,259 266,255 260,249 257,240 257,234 257,234 261,229 267,224 274,222 284,221 291,222 297,224 303,227 310,232 310,193 309,193 302,201 295,206 288,210 282,211 278,211 273,210 269,208 265,206 262,203 259,200 257,196 256,192 256,187"/>
<polygon class="pen1 brush2" points="265,73 238,89 238,66 265,49 265,30 197,70 197,184 194,192 191,198 187,202 183,206 179,209 174,210 169,212 163,212 158,212 153,211 149,209 146,207 143,204 141,201 139,197 139,192 139,188 141,184 143,181 147,178 151,175 156,173 162,172 168,172 175,173 181,176 187,180 192,186 192,90 192,49 271,1 271,138 267,144 264,148 261,151 257,154 253,156 249,158 246,160 242,161 239,161 230,160 223,157 219,151 216,144 216,138 217,134 219,131 221,128 224,126 228,124 231,122 235,121 238,121 245,122 252,124 258,127 265,132 265,73"/>
<polygon class="pen1 brush2" points="367,47 367,41 0,41 0,47 367,47"/>
<polygon class="pen1 brush2" points="367,96 367,90 0,90 0,96 367,96"/>
<polygon class="pen1 brush2" points="367,144 367,138 0,138 0,144 367,144"/>
<polygon class="pen1 brush2" points="367,193 367,187 0,187 0,193 367,193"/>
<polygon class="pen1 brush2" points="367,240 367,234 0,234 0,240 367,240"/>
</g>
</svg>
