<?xml version="1.0" encoding="UTF-8" standalone="no"?>
<!DOCTYPE svg PUBLIC "-//W3C//DTD SVG 1.0//EN" "http://www.w3.org/TR/2001/REC-SVG-20010904/DTD/svg10.dtd">
<svg xmlns="http://www.w3.org/2000/svg" xmlns:xlink="http://www.w3.org/1999/xlink" fill-rule="evenodd" height="1.032in" preserveAspectRatio="none" stroke-linecap="round" viewBox="0 0 688 1032" width="0.688in">
<style type="text/css">
.brush0 { fill: rgb(255,255,255); }
.pen0 { stroke: rgb(0,0,0); stroke-width: 1; stroke-linejoin: round; }
.brush1 { fill: none; }
.pen1 { stroke: none; }
.brush2 { fill: rgb(0,0,0); }
</style>
<g>
<polygon class="pen1 brush2" points="474,735 471,745 465,749 458,748 455,740 458,728 465,723 471,726 474,735 474,735"/>
<polygon class="pen1 brush2" points="470,662 468,677 463,683 457,682 451,676 446,668 445,660 448,654 457,651 465,653 468,656 470,660 470,662 470,662"/>
<polygon class="pen1 brush2" points="456,588 455,602 451,608 446,606 442,600 439,591 438,583 441,576 448,573 452,574 454,577 456,581 456,588 456,588 456,588"/>
<polygon class="pen1 brush2" points="519,499 516,533 510,587 504,650 501,707 491,716 488,728 492,741 503,753 514,737 511,729 512,720 516,713 524,710 526,676 525,648 527,621 533,596 545,569 572,601 572,601 559,620 550,641 546,663 545,687 526,676 524,710 530,711 536,713 541,719 543,728 549,739 553,751 556,764 556,777 555,788 552,799 548,809 543,818 543,829 537,834 530,836 524,836 515,832 510,826 508,820 510,814 513,808 518,805 524,803 530,805 537,789 540,773 540,757 535,740 528,744 523,744 518,742 514,737 503,753 503,759 504,769 505,782 505,796 498,801 495,813 496,825 502,833 500,839 497,845 494,850 491,852 436,858 443,874 449,886 455,896 460,904 464,911 468,917 471,925 473,934 513,924 515,912 521,903 529,898 538,896 547,898 555,903 561,911 563,922 563,922 563,922 561,935 555,945 547,950 538,951 529,950 521,944 515,936 513,924 473,934 474,941 475,950 475,961 474,973 474,973 458,963 442,936 428,898 416,852 407,805 402,761 403,726 409,703 411,744 416,784 424,822 436,858 491,852 486,846 480,830 475,802 469,763 458,767 449,764 443,756 439,745 439,732 443,720 451,709 464,703 455,700 446,694 438,686 432,675 429,663 431,650 439,638 454,626 444,623 435,616 428,607 423,597 422,585 425,573 431,561 443,550 425,542 413,532 407,519 406,506 408,493 413,481 420,471 428,465 414,463 404,457 398,448 396,437 398,426 403,415 411,406 423,400 417,344 413,289 409,235 403,179 392,164 387,150 388,136 389,122 390,108 387,93 378,78 360,62 344,52 330,45 317,41 305,39 294,40 284,42 275,46 267,50 259,56 251,61 243,67 235,73 226,78 217,81 208,84 197,85 200,127 214,124 231,116 249,107 267,97 286,90 305,87 322,92 337,106 345,126 345,148 340,171 333,196 327,220 324,244 327,265 338,283 340,444 345,583 353,702 365,801 371,839 378,878 389,917 403,953 422,984 447,1010 480,1026 521,1032 549,1029 572,1019 590,1004 604,984 614,960 621,932 625,903 628,871 629,838 630,805 631,773 632,741 635,712 640,685 647,662 657,643 668,646 677,646 684,641 686,629 686,629 686,629 684,623 679,613 671,601 660,586 647,570 633,553 618,536 603,520 587,505 572,492 558,482 545,475 534,473 526,476 521,484 519,499 529,499 529,494 531,491 534,489 539,488 550,493 568,507 589,527 612,550 634,574 652,597 665,615 670,627 670,627 664,636 649,631 627,616 603,594 577,569 554,542 537,518 529,499 519,499"/>
<polygon class="pen1 brush2" points="446,509 443,520 435,523 427,519 424,510 427,497 435,493 443,496 446,509 446,509 446,509"/>
<polygon class="pen1 brush2" points="434,433 432,447 428,452 422,451 416,446 411,438 410,431 413,424 421,422 428,424 432,427 434,431 434,433 434,433"/>
<polygon class="pen1 brush2" points="68,137 0,142 0,136 68,106 68,137 68,137"/>
<polygon class="pen1 brush2" points="131,137 84,141 84,93 90,90 96,87 101,85 106,84 111,84 116,84 122,86 128,88 131,137 131,137"/>
<polygon class="pen1 brush2" points="182,127 147,135 146,124 146,114 146,104 148,96 152,90 159,88 168,89 181,96 182,127 182,127"/>
</g>
</svg>
