<?xml version="1.0" encoding="UTF-8" standalone="no"?>
<!DOCTYPE svg PUBLIC "-//W3C//DTD SVG 1.0//EN" "http://www.w3.org/TR/2001/REC-SVG-20010904/DTD/svg10.dtd">
<svg xmlns="http://www.w3.org/2000/svg" xmlns:xlink="http://www.w3.org/1999/xlink" fill-rule="evenodd" height="0.989in" preserveAspectRatio="none" stroke-linecap="round" viewBox="0 0 988 989" width="0.988in">
<style type="text/css">
.brush0 { fill: rgb(255,255,255); }
.pen0 { stroke: rgb(0,0,0); stroke-width: 1; stroke-linejoin: round; }
.brush1 { fill: none; }
.pen1 { stroke: none; }
.brush2 { fill: rgb(0,0,0); }
</style>
<g>
<polygon class="pen1 brush2" points="0,495 3,444 10,395 22,348 39,302 60,259 84,218 113,180 145,145 180,113 218,85 259,60 302,39 348,22 395,10 444,3 495,0 545,3 594,10 642,22 687,39 730,60 771,85 808,113 844,145 875,180 904,218 928,259 949,302 966,348 978,395 985,444 988,495 986,534 982,572 975,609 965,645 952,680 937,714 919,746 900,777 878,806 854,833 828,859 800,883 770,904 739,923 707,940 673,955 662,959 652,963 641,966 630,970 619,973 608,975 597,978 586,980 575,982 564,984 552,986 541,987 530,988 518,988 507,989 495,989 484,989 473,988 462,988 451,987 440,986 429,985 418,983 407,981 397,979 386,977 376,974 365,972 355,969 345,966 335,962 325,959 290,945 256,928 224,909 194,887 165,864 139,838 114,810 91,781 71,750 53,717 37,683 24,648 14,611 6,573 2,535 0,495 0,495"/>
<polygon class="pen1 brush0" points="673,955 667,949 656,940 642,929 627,917 611,905 597,896 586,889 580,886 579,872 577,846 575,819 574,804 572,791 570,769 567,746 564,729 561,716 558,695 554,676 552,665 550,657 547,648 542,642 537,638 538,634 539,628 541,622 543,619 546,619 550,619 554,619 558,619 560,609 563,596 566,586 569,580 572,579 576,578 582,576 589,574 596,572 602,570 608,568 613,566 619,563 624,559 629,554 633,550 636,545 639,540 642,536 644,532 648,522 652,508 656,495 659,485 663,470 668,445 674,419 677,403 680,391 683,374 686,358 688,348 689,341 690,331 691,319 691,306 689,293 684,280 678,270 671,262 665,258 657,253 648,248 642,245 639,237 633,230 627,225 621,221 615,218 605,212 593,206 580,199 566,193 554,187 544,183 538,181 523,181 506,182 488,184 470,186 454,188 440,190 431,192 426,193 419,196 412,201 404,208 398,216 394,222 390,231 386,240 385,246 388,248 392,250 396,252 399,254 397,259 395,269 393,280 392,285 387,285 382,286 377,286 375,287 373,290 371,295 370,300 370,304 373,307 378,309 383,312 387,313 386,319 384,328 382,337 380,343 375,343 370,343 365,343 361,345 358,349 357,354 356,360 356,364 359,366 364,368 370,371 375,372 374,377 372,387 369,396 368,402 364,402 359,403 353,404 349,405 348,408 347,413 347,418 347,421 350,424 355,426 360,429 363,430 362,436 360,445 358,455 356,461 354,461 351,461 347,461 345,461 343,462 342,463 342,465 341,466 341,469 340,475 339,481 339,484 339,486 340,488 340,489 341,489 341,494 343,502 345,511 347,516 350,521 356,527 362,533 367,537 370,539 374,542 380,546 386,550 392,554 398,558 402,560 405,562 408,565 410,568 412,573 412,579 412,579 410,591 406,610 401,629 399,640 399,644 399,648 401,651 402,653 403,654 405,654 406,654 408,655 405,672 403,693 402,713 402,728 403,742 404,769 405,796 405,812 406,823 407,842 409,861 409,871 403,874 393,882 381,893 367,906 353,920 341,934 331,947 325,959 335,962 345,966 355,969 365,972 376,974 386,977 397,979 407,981 418,983 429,985 440,986 451,987 462,988 473,988 484,989 495,989 507,989 518,988 530,988 541,987 552,986 564,984 575,982 586,980 597,978 608,975 619,973 630,970 641,966 652,963 662,959 673,955"/>
<polygon class="pen1 brush2" points="435,264 428,287 400,286 406,263 435,264"/>
<polygon class="pen1 brush2" points="424,319 417,343 388,341 394,317 424,319"/>
<polygon class="pen1 brush2" points="411,379 405,402 378,400 384,377 411,379"/>
<polygon class="pen1 brush2" points="400,438 394,461 366,459 372,436 400,438"/>
<polygon class="pen1 brush2" points="457,263 534,264 577,275 519,287 451,286 457,263 457,263"/>
<polygon class="pen1 brush2" points="448,319 524,320 567,331 509,344 441,342 448,319 448,319"/>
<polygon class="pen1 brush2" points="437,380 513,382 557,392 498,405 431,403 437,380 437,380"/>
<polygon class="pen1 brush2" points="427,439 503,441 547,451 488,464 420,462 427,439 427,439"/>
</g>
</svg>
