<?xml version="1.0" encoding="UTF-8" standalone="no"?>
<!DOCTYPE svg PUBLIC "-//W3C//DTD SVG 1.0//EN" "http://www.w3.org/TR/2001/REC-SVG-20010904/DTD/svg10.dtd">
<svg xmlns="http://www.w3.org/2000/svg" xmlns:xlink="http://www.w3.org/1999/xlink" fill-rule="evenodd" height="0.999in" preserveAspectRatio="none" stroke-linecap="round" viewBox="0 0 999 999" width="0.999in">
<style type="text/css">
.brush0 { fill: rgb(255,255,255); }
.pen0 { stroke: rgb(0,0,0); stroke-width: 1; stroke-linejoin: round; }
.brush1 { fill: none; }
.pen1 { stroke: none; }
.brush2 { fill: rgb(0,0,0); }
</style>
<g>
<polygon class="pen1 brush2" points="999,999 999,0 0,0 0,999 999,999"/>
<polygon class="pen1 brush0" points="71,362 939,362 935,395 927,428 915,459 900,488 881,517 859,543 834,568 806,591 775,612 742,630 707,646 670,660 631,671 590,679 548,683 505,685 480,684 455,683 430,680 406,676 382,671 359,665 336,659 314,651 292,642 271,632 251,621 231,610 212,597 194,584 177,570 161,555 141,534 124,511 109,488 97,464 86,440 79,414 74,388 71,362 56,333 41,333 41,348 43,379 47,409 56,439 67,468 81,496 98,524 118,550 141,575 158,591 176,606 195,621 215,634 236,646 257,658 279,668 302,677 326,686 350,693 375,699 400,705 426,709 452,712 478,713 505,714 532,713 558,712 584,709 609,705 634,699 659,693 683,686 707,677 730,668 752,658 774,646 795,634 815,621 834,606 852,591 869,575 892,550 912,524 929,496 943,468 954,439 963,409 967,379 969,348 969,333 954,333 56,333 71,362"/>
<polygon class="pen1 brush0" points="940,374 938,409 931,444 921,479 906,514 888,548 866,582 841,614 813,644 782,672 749,697 713,720 675,739 635,755 593,766 550,773 505,776 484,775 463,774 442,771 421,767 401,762 380,756 360,749 340,741 320,732 301,722 282,711 264,699 246,686 228,672 211,658 195,642 167,612 143,580 121,547 103,513 89,478 79,443 72,408 70,374 41,374 43,411 50,449 61,487 76,524 95,561 118,596 144,630 174,662 191,679 209,694 228,709 247,723 267,735 287,747 308,758 329,768 350,776 372,784 394,790 416,795 438,800 460,803 483,804 505,805 527,804 550,803 572,800 594,795 616,790 638,784 660,776 681,768 702,758 723,747 743,735 763,723 782,709 801,694 819,679 836,662 866,630 892,596 915,561 934,524 949,487 960,449 967,411 969,374 940,374"/>
<polygon class="pen1 brush0" points="483,349 275,633 298,651 518,349 483,349"/>
<polygon class="pen1 brush0" points="497,349 716,651 739,633 532,348 497,349"/>
<polygon class="pen1 brush0" points="508,531 515,531 521,530 526,527 531,524 535,519 538,512 540,503 541,492 540,479 536,464 531,449 525,434 519,421 514,411 510,404 508,401 506,404 502,411 497,421 491,434 485,449 480,464 476,479 475,492 476,503 478,512 481,519 485,524 490,527 495,530 501,531 508,531"/>
<polygon class="pen1 brush0" points="723,477 731,467 734,455 730,442 718,426 708,418 695,410 680,403 666,397 652,392 641,388 634,386 631,385 632,388 634,396 637,407 643,421 649,435 656,450 664,463 672,473 680,480 688,485 695,488 701,488 707,488 713,485 718,482 723,477"/>
<polygon class="pen1 brush0" points="299,477 291,467 288,455 291,442 303,426 313,418 326,410 341,403 355,397 369,392 380,388 388,386 391,385 390,388 388,396 384,407 379,421 373,435 365,450 357,463 349,473 341,480 334,485 327,488 320,488 314,488 309,485 304,482 299,477"/>
</g>
</svg>
