<?xml version="1.0" encoding="UTF-8" standalone="no"?>
<!DOCTYPE svg PUBLIC "-//W3C//DTD SVG 1.0//EN" "http://www.w3.org/TR/2001/REC-SVG-20010904/DTD/svg10.dtd">
<svg xmlns="http://www.w3.org/2000/svg" xmlns:xlink="http://www.w3.org/1999/xlink" fill-rule="evenodd" height="0.864in" preserveAspectRatio="none" stroke-linecap="round" viewBox="0 0 561 864" width="0.561in">
<style type="text/css">
.brush0 { fill: rgb(255,255,255); }
.pen0 { stroke: rgb(0,0,0); stroke-width: 1; stroke-linejoin: round; }
.brush1 { fill: none; }
.pen1 { stroke: none; }
.brush2 { fill: rgb(0,0,0); }
</style>
<g>
<polygon class="pen1 brush2" points="126,764 102,762 80,755 60,744 43,729 28,712 17,692 10,670 8,646 10,622 17,600 28,580 43,563 60,549 80,538 102,531 126,529 150,531 172,538 192,549 209,563 224,580 235,600 242,622 244,646 242,670 235,692 224,712 209,729 192,744 172,755 150,762 126,764"/>
<polygon class="pen1 brush2" points="230,864 204,861 180,854 158,842 139,827 124,808 112,786 105,762 102,736 105,710 112,687 124,665 139,646 158,631 180,619 204,612 230,609 256,612 280,619 301,631 320,646 336,665 347,687 354,710 357,736 354,762 347,786 336,808 320,827 301,842 280,854 256,861 230,864"/>
<polygon class="pen1 brush0" points="102,736 102,743 103,749 104,756 105,762 110,763 116,763 121,764 126,764 150,762 172,755 192,744 209,729 224,712 235,692 242,670 244,646 244,636 243,627 241,618 238,609 236,609 234,609 232,609 230,609 204,612 180,619 158,631 139,646 124,665 112,687 105,710 102,736"/>
<polygon class="pen1 brush2" points="396,813 372,811 350,804 330,793 313,778 299,761 288,741 281,719 279,695 281,671 288,649 299,629 313,612 330,597 350,586 372,579 396,577 420,579 442,586 462,597 479,612 494,629 505,649 512,671 514,695 512,719 505,741 494,761 479,778 462,793 442,804 420,811 396,813"/>
<polygon class="pen1 brush0" points="299,629 290,644 284,660 280,677 279,695 280,712 283,727 289,742 296,756 305,769 315,781 327,791 340,799 347,784 353,769 356,753 357,736 356,719 353,704 348,688 341,674 332,661 322,649 311,638 299,629"/>
<polygon class="pen1 brush2" points="158,406 160,357 158,356 153,352 146,346 136,338 126,328 114,317 103,303 92,288 82,272 74,255 68,236 65,217 65,197 70,176 79,155 94,133 115,109 136,87 156,69 174,53 189,39 201,25 208,13 210,0 210,2 212,9 215,18 219,30 224,44 231,58 240,72 250,85 263,104 276,131 285,164 288,201 282,241 266,282 237,322 192,359 174,412 158,406"/>
<polygon class="pen1 brush0" points="243,96 235,86 228,75 222,64 218,53 214,43 212,35 210,28 209,23 205,80 170,396 171,397 187,346 228,312 256,276 271,238 276,202 274,168 266,138 255,113 243,96"/>
<polygon class="pen1 brush2" points="46,364 49,364 56,364 68,366 84,368 103,371 124,377 147,384 172,394 197,407 222,423 246,443 270,466 291,494 310,526 326,563 338,606 319,613 318,608 315,596 311,578 304,556 296,534 286,513 274,495 260,482 264,496 271,530 274,576 265,623 251,620 252,615 253,603 254,584 255,563 254,540 251,518 245,500 235,488 234,488 230,490 224,493 217,498 208,506 198,517 187,531 176,549 155,542 156,540 161,534 167,525 176,515 187,503 199,492 213,481 228,472 228,471 228,469 227,466 225,461 223,456 219,450 213,443 206,436 196,429 184,421 170,414 152,406 132,399 108,392 81,386 49,381 46,364"/>
<polygon class="pen1 brush2" points="253,455 294,423 296,424 302,426 311,429 322,432 337,435 353,438 370,440 388,441 407,440 426,437 445,432 462,423 479,412 493,396 505,376 515,352 523,320 529,291 533,264 537,241 540,220 545,203 551,190 561,181 559,182 553,184 543,187 531,191 516,194 501,196 484,197 468,196 457,195 444,195 430,197 415,199 399,204 382,210 365,218 349,227 333,239 318,254 305,270 293,289 284,311 276,336 272,363 271,394 236,444 253,455"/>
<polygon class="pen1 brush0" points="462,208 475,209 488,208 500,207 512,204 522,202 531,199 537,197 542,195 497,230 256,437 255,437 288,395 289,367 293,342 299,319 308,299 318,281 330,265 343,251 357,240 371,230 386,223 400,217 415,212 428,209 441,208 452,207 462,208"/>
</g>
</svg>
