<?xml version="1.0" encoding="UTF-8" standalone="no"?>
<!DOCTYPE svg PUBLIC "-//W3C//DTD SVG 1.0//EN" "http://www.w3.org/TR/2001/REC-SVG-20010904/DTD/svg10.dtd">
<svg xmlns="http://www.w3.org/2000/svg" xmlns:xlink="http://www.w3.org/1999/xlink" fill-rule="evenodd" height="0.571in" preserveAspectRatio="none" stroke-linecap="round" viewBox="0 0 539 571" width="0.539in">
<style type="text/css">
.brush0 { fill: rgb(255,255,255); }
.pen0 { stroke: rgb(0,0,0); stroke-width: 1; stroke-linejoin: round; }
.brush1 { fill: none; }
.pen1 { stroke: none; }
.brush2 { fill: rgb(0,0,0); }
</style>
<g>
<polygon class="pen1 brush2" points="78,120 81,116 84,110 88,105 93,102 96,101 100,100 105,98 109,96 114,95 118,92 122,90 125,88 128,86 133,85 138,84 144,83 150,82 155,82 159,81 161,81 166,80 172,79 178,78 183,77 177,75 169,75 161,75 155,76 149,78 142,79 134,81 127,83 120,85 114,87 107,89 99,92 92,97 86,102 80,107 75,111 70,116 64,122 59,128 56,132 54,135 51,139 51,143 52,145 54,146 57,146 60,145 64,143 69,141 72,139 75,138 77,136 81,134 88,134 95,134 101,134 95,137 87,141 79,145 73,148 67,151 61,154 54,158 48,163 41,169 34,176 27,184 22,192 18,202 13,216 8,230 2,240 1,242 1,243 3,244 5,244 7,244 11,244 15,243 20,243 25,242 30,241 35,239 39,236 35,246 31,259 27,272 25,281 24,292 22,308 21,325 23,339 24,333 26,326 27,319 28,313 30,307 31,300 33,293 36,286 39,278 43,267 48,256 53,248 56,244 59,240 64,234 68,227 72,221 77,214 80,207 83,200 80,200 76,200 72,201 68,201 63,201 58,202 53,203 49,205 53,200 56,196 60,191 64,187 69,183 76,178 82,173 87,168 94,165 101,161 108,157 114,153 118,151 124,149 131,145 138,140 145,135 152,131 157,127 162,123 158,121 153,120 147,118 141,117 135,116 130,114 125,114 121,113 114,113 107,113 101,115 96,116 92,117 88,118 83,119 78,120"/>
<polygon class="pen1 brush2" points="215,81 217,87 219,95 222,103 223,110 224,116 226,125 227,134 228,141 227,148 227,155 227,162 227,168 227,173 227,180 225,187 223,192 219,186 215,180 210,175 206,172 205,178 204,183 202,189 200,195 197,201 194,209 192,216 191,223 190,230 187,238 183,246 178,254 177,249 174,242 172,235 170,230 164,239 157,250 149,262 141,273 137,278 132,284 125,291 118,298 110,306 101,313 90,319 79,324 85,325 92,324 99,322 106,320 109,319 113,317 118,315 122,312 127,310 131,307 135,305 138,303 144,299 150,295 157,290 162,285 164,292 168,301 172,310 176,315 181,309 187,303 191,296 194,291 197,286 201,277 205,267 206,254 208,249 211,242 212,236 213,230 214,224 215,218 218,211 220,206 223,206 226,206 229,206 230,206 233,199 234,189 235,181 234,175 233,172 233,168 233,166 234,164 234,160 233,154 232,146 231,138 231,129 229,120 228,111 226,103 225,97 223,93 220,88 215,81"/>
<polygon class="pen1 brush2" points="234,71 232,66 230,62 226,58 222,56 218,55 215,53 211,51 208,48 205,43 201,36 198,30 194,26 191,21 188,15 186,9 187,4 191,3 199,5 206,7 212,8 217,9 224,11 229,15 232,19 232,23 234,27 235,31 235,33 235,36 234,41 234,47 235,52 237,57 238,62 237,67 234,71"/>
<polygon class="pen1 brush2" points="258,58 264,54 271,52 278,51 284,51 287,50 291,50 295,50 300,50 304,51 308,52 312,54 315,57 320,59 325,62 330,67 335,74 341,82 346,90 349,99 351,106 352,112 352,118 350,125 344,134 339,143 337,149 334,153 327,158 323,163 316,168 308,171 300,173 295,174 289,174 283,174 276,173 269,172 262,170 256,167 250,162 251,157 252,149 254,142 254,139 258,141 261,143 265,145 269,146 273,148 277,149 281,149 285,148 292,146 299,144 304,143 309,141 313,137 319,130 325,123 329,116 331,109 333,102 332,96 330,89 327,82 325,75 321,69 316,65 310,61 304,58 298,56 292,55 285,54 279,55 274,56 269,57 265,58 262,59 259,59 258,58"/>
<polygon class="pen1 brush2" points="350,41 355,39 362,37 368,35 373,36 379,36 387,36 395,38 401,43 406,45 411,47 416,51 420,55 423,60 426,64 428,68 431,72 433,76 434,80 435,84 436,88 438,93 440,98 440,103 437,110 433,117 430,123 427,129 424,134 421,137 418,140 415,142 412,145 408,148 405,151 401,153 396,155 391,157 387,158 383,159 379,160 376,161 372,161 367,161 362,160 356,158 350,156 343,152 336,148 339,124 345,128 352,131 359,133 366,133 373,132 379,130 385,128 390,126 395,125 400,122 404,118 408,113 412,107 416,101 418,94 419,87 418,78 415,69 411,60 407,54 402,50 395,46 388,42 380,40 376,40 372,40 367,40 362,41 358,42 355,42 352,42 350,41"/>
<polygon class="pen1 brush2" points="218,85 222,86 228,88 233,91 238,94 243,97 248,101 252,105 256,111 261,119 266,128 269,138 270,147 268,155 265,163 262,171 259,177 257,180 255,183 252,187 249,192 244,196 240,199 235,201 229,202 230,196 231,186 232,176 232,172 235,168 238,165 241,161 243,156 246,151 250,145 252,138 251,132 248,125 246,118 243,111 240,105 236,101 231,98 227,96 222,95 218,85"/>
<polygon class="pen1 brush2" points="427,120 431,120 436,120 440,120 443,120 447,121 452,121 456,122 460,124 460,126 462,128 465,129 469,131 473,134 477,138 480,142 483,146 486,151 490,159 493,168 496,176 498,182 498,186 497,190 495,195 492,201 488,209 484,217 478,222 463,202 466,200 468,197 469,193 471,189 473,185 476,181 478,176 478,171 477,166 475,159 473,152 469,146 464,140 459,135 453,131 448,128 442,126 437,124 431,123 425,123 422,123 422,123 423,123 424,123 427,120"/>
<polygon class="pen1 brush2" points="405,145 407,149 410,152 412,155 413,158 414,161 415,164 416,167 416,171 418,175 419,180 420,184 419,187 414,188 407,190 401,193 396,197 391,201 385,206 379,212 374,217 371,223 369,230 368,238 367,243 362,243 356,243 351,243 347,243 342,242 336,241 329,239 322,235 316,230 310,226 306,222 305,221 319,207 321,208 324,210 328,212 333,213 337,215 342,216 346,217 349,216 355,213 362,211 371,210 378,207 383,203 388,197 392,190 395,184 398,178 400,170 399,159 392,146 405,145"/>
<polygon class="pen1 brush2" points="418,187 421,187 425,187 430,187 435,187 440,188 445,189 449,191 451,194 456,196 461,199 466,203 471,208 475,213 480,220 484,228 486,239 488,246 487,256 485,265 481,273 477,279 474,284 471,288 466,292 463,295 460,299 457,302 451,305 447,306 444,307 439,308 435,309 430,311 425,311 420,311 414,311 408,310 403,308 397,306 392,304 387,301 382,297 378,294 374,289 368,279 364,270 362,261 362,253 363,245 364,236 365,228 367,222 369,220 370,221 371,222 371,223 370,228 370,236 371,245 373,252 377,259 382,267 388,274 396,279 403,282 409,284 414,285 419,284 422,283 426,282 430,280 435,278 439,277 444,275 447,274 450,274 454,270 459,264 462,259 464,254 466,250 468,245 470,240 469,233 467,225 464,218 461,212 457,207 453,203 448,199 442,196 438,194 434,193 429,192 424,190 418,187"/>
<polygon class="pen1 brush2" points="307,165 309,168 312,172 314,176 316,180 317,185 319,191 320,198 321,203 322,208 323,212 322,217 320,221 317,226 314,232 312,238 310,242 304,243 297,244 290,246 284,248 279,251 273,255 266,260 261,266 260,260 258,250 256,242 255,238 263,237 271,236 279,234 284,232 288,228 293,222 297,215 301,209 304,203 305,197 305,191 303,186 300,180 297,174 296,168 295,166 307,165"/>
<polygon class="pen1 brush2" points="235,198 239,202 244,207 248,213 251,217 254,222 257,229 260,237 262,243 264,250 264,257 263,264 260,271 256,278 251,285 246,292 242,297 238,301 235,304 233,306 232,307 227,304 222,302 216,299 210,297 204,295 199,293 193,292 188,293 191,288 195,288 200,286 205,285 211,284 215,282 219,280 223,278 228,274 233,269 238,264 241,258 244,250 246,243 246,238 246,235 244,232 241,226 238,218 235,209 229,204 229,203 229,200 231,198 235,198"/>
<polygon class="pen1 brush2" points="232,307 234,313 236,319 238,325 242,331 243,335 244,340 243,345 242,350 240,355 238,361 235,367 230,371 227,374 224,377 221,379 216,381 209,383 203,384 198,386 194,388 191,388 187,387 183,387 180,386 176,384 172,383 168,381 164,378 157,370 150,358 146,344 145,327 142,331 139,334 136,338 136,342 136,347 136,354 136,360 137,365 138,369 140,375 142,380 144,386 147,391 151,395 156,399 161,402 164,405 167,407 172,409 177,411 182,413 188,414 193,414 199,413 202,413 206,413 210,412 215,410 219,409 223,407 227,406 230,405 235,403 237,401 239,397 242,394 246,390 251,383 255,375 259,369 262,364 263,359 264,354 263,348 261,340 257,330 253,321 247,313 241,307 236,302 231,298 226,296 232,307"/>
<polygon class="pen1 brush2" points="310,242 314,245 322,248 330,251 337,253 341,257 344,260 346,264 347,267 348,271 349,275 351,278 353,282 354,288 354,294 353,300 350,306 347,312 344,318 340,324 335,328 332,329 328,331 324,332 320,333 315,334 311,335 308,336 305,338 301,338 296,337 292,337 287,335 283,334 279,331 276,328 272,325 265,317 260,306 256,292 256,274 249,282 249,289 247,300 247,311 248,321 251,329 255,338 261,345 268,351 272,353 275,355 277,357 280,359 283,361 287,362 292,363 299,363 306,363 313,363 318,362 323,362 327,361 331,360 334,359 337,358 342,356 345,353 348,349 351,346 355,342 359,337 364,331 367,325 369,320 371,314 372,308 372,300 372,291 371,282 369,275 366,270 363,265 357,260 350,255 342,250 338,248 334,245 330,243 326,242 322,240 318,239 314,239 309,240 310,242"/>
<polygon class="pen1 brush2" points="478,271 483,273 489,275 494,277 499,280 505,282 511,287 516,293 520,298 523,302 526,306 528,311 529,315 531,320 534,327 536,335 534,342 531,349 527,357 524,364 519,370 515,375 511,380 506,385 502,388 497,390 491,392 485,394 480,395 477,395 474,396 469,396 465,396 459,395 454,394 448,393 443,390 434,386 426,380 420,374 414,365 410,354 407,344 406,335 407,328 409,321 411,315 412,309 414,305 418,306 416,313 416,322 417,332 419,340 423,347 429,354 436,361 443,365 450,367 456,368 463,368 470,367 477,366 483,363 489,361 494,359 498,357 503,352 506,347 509,340 511,333 514,326 514,319 513,313 511,306 509,299 506,292 502,288 499,287 495,285 491,283 487,281 483,279 479,278 475,277 471,277 478,271"/>
<polygon class="pen1 brush2" points="418,356 415,361 412,366 409,372 406,377 402,382 397,386 391,390 385,393 382,394 379,395 374,397 369,398 363,398 356,398 349,396 341,393 349,423 353,424 356,424 360,425 364,425 368,425 373,425 377,425 381,424 389,422 395,420 399,419 403,416 406,412 410,408 414,405 417,402 420,399 422,394 424,390 427,387 430,384 431,379 433,374 434,370 418,356"/>
<polygon class="pen1 brush2" points="236,399 234,404 233,411 232,418 232,426 232,434 233,441 234,447 236,452 239,458 243,466 249,473 256,477 258,479 262,481 266,484 271,486 276,487 281,489 287,489 292,489 297,488 302,487 306,486 310,485 314,484 317,483 320,483 322,482 327,480 331,476 335,472 339,468 343,462 347,455 352,448 355,442 357,436 357,428 356,420 354,414 352,408 349,401 346,394 341,389 337,384 334,379 330,376 326,375 322,373 318,370 313,367 305,366 300,366 294,367 288,367 282,367 275,368 270,370 265,371 261,374 265,374 271,373 277,372 282,371 288,370 295,370 301,370 307,372 311,374 315,376 320,378 324,382 328,386 331,390 334,395 336,399 337,405 338,411 338,417 337,423 335,430 330,439 325,447 319,452 313,454 305,455 297,457 291,459 288,460 283,460 279,460 274,459 269,458 265,456 260,453 257,450 250,443 243,432 240,415 243,390 236,399"/>
<polygon class="pen1 brush2" points="485,383 487,388 491,394 493,401 493,407 491,414 489,421 485,428 482,434 479,439 476,442 472,444 468,446 462,447 456,449 449,451 443,453 438,453 433,453 429,452 424,450 420,449 416,446 413,444 410,441 404,435 399,426 395,416 394,406 386,409 386,417 387,426 388,435 390,443 393,449 397,456 402,463 410,468 414,471 419,473 423,475 428,477 432,478 437,479 441,480 446,480 455,479 462,477 468,475 473,474 478,472 482,469 486,465 490,461 493,458 496,455 499,451 501,447 505,441 509,434 512,427 513,419 512,411 510,403 506,394 500,386 485,383"/>
<polygon class="pen1 brush2" points="302,482 304,487 306,492 308,497 312,501 318,504 324,507 330,510 336,512 343,513 349,512 355,511 361,509 367,508 372,506 376,503 381,499 385,493 389,487 392,481 394,475 395,468 395,459 394,451 392,444 408,456 411,462 413,469 415,477 415,484 413,490 410,496 407,502 404,508 401,513 397,517 393,521 389,524 386,528 381,532 375,535 366,538 361,539 356,540 352,540 348,540 344,541 340,541 337,540 334,540 328,538 323,536 317,533 312,529 306,525 299,517 293,504 289,485 302,482"/>
<polygon class="pen1 brush2" points="389,519 392,523 395,528 399,533 405,537 411,539 417,542 423,543 428,544 434,541 441,539 450,538 457,535 463,531 468,526 472,521 475,516 478,511 481,505 482,498 481,492 478,484 474,476 471,470 470,467 476,461 482,467 487,474 492,480 495,488 497,495 499,501 499,508 497,518 493,529 490,539 485,546 478,551 474,555 470,559 465,562 460,565 454,567 448,569 442,569 436,570 430,570 423,569 415,567 407,564 403,563 399,561 395,558 390,554 385,549 381,543 378,535 375,526 389,519"/>
</g>
</svg>
