<?xml version="1.0" encoding="UTF-8" standalone="no"?>
<!DOCTYPE svg PUBLIC "-//W3C//DTD SVG 1.0//EN" "http://www.w3.org/TR/2001/REC-SVG-20010904/DTD/svg10.dtd">
<svg xmlns="http://www.w3.org/2000/svg" xmlns:xlink="http://www.w3.org/1999/xlink" fill-rule="evenodd" height="0.564in" preserveAspectRatio="none" stroke-linecap="round" viewBox="0 0 564 564" width="0.564in">
<style type="text/css">
.brush0 { fill: rgb(255,255,255); }
.pen0 { stroke: rgb(0,0,0); stroke-width: 1; stroke-linejoin: round; }
.brush1 { fill: none; }
.pen1 { stroke: none; }
.brush2 { fill: rgb(0,0,0); }
</style>
<g>
<polygon class="pen1 brush2" points="564,564 564,0 0,0 0,564 564,564"/>
<polygon class="pen1 brush0" points="107,129 110,125 113,120 117,115 121,112 124,111 128,110 132,108 136,107 141,105 145,103 148,101 151,99 154,97 158,96 163,95 168,94 174,94 178,93 182,93 185,92 189,91 194,90 200,90 205,89 199,87 192,87 185,87 179,88 173,89 167,91 160,92 153,94 147,96 140,98 134,100 127,103 120,107 114,112 109,117 105,121 100,125 95,131 90,136 87,140 85,143 83,146 82,150 83,152 85,153 88,153 91,152 95,150 99,148 102,147 104,145 106,144 110,142 116,142 123,141 128,141 122,144 116,148 109,152 103,155 97,157 91,160 85,164 79,168 73,173 66,180 60,188 56,195 52,205 47,218 42,230 37,239 36,241 36,243 37,243 39,243 41,243 45,243 49,243 54,242 58,242 63,240 67,239 71,236 68,245 64,257 61,269 59,278 58,288 56,302 55,318 56,331 57,326 59,319 60,312 61,307 63,302 64,295 66,288 68,282 71,275 75,265 80,255 85,247 90,239 98,228 106,215 112,203 109,203 106,203 102,203 98,203 94,204 89,205 85,206 81,207 84,203 87,198 91,194 95,191 100,187 105,182 111,177 115,173 122,170 129,167 135,163 141,159 145,158 150,155 156,151 163,147 169,143 175,138 181,134 185,131 181,130 176,128 171,127 166,125 160,124 155,123 151,123 147,122 140,122 134,122 128,124 124,125 121,126 116,127 112,128 107,129"/>
<polygon class="pen1 brush0" points="234,93 236,99 238,106 241,113 242,119 243,125 244,133 246,141 246,148 246,155 245,162 245,168 245,173 245,178 245,184 243,190 241,195 238,190 234,185 230,180 226,177 225,182 224,187 223,193 221,198 218,204 215,211 213,218 212,224 211,230 208,238 204,246 200,253 199,248 196,242 194,235 192,231 187,239 181,249 173,261 166,271 162,276 157,281 152,288 145,294 137,301 129,307 119,313 109,317 114,318 120,317 127,316 133,314 136,313 140,311 144,309 148,307 153,304 156,302 160,300 163,298 168,295 174,291 180,286 185,282 187,288 190,297 194,304 198,309 203,304 208,297 212,291 215,287 217,282 221,274 225,264 226,253 228,248 230,242 231,236 232,230 233,225 234,219 237,213 239,208 242,208 245,208 247,209 248,209 250,202 252,193 252,185 251,180 250,177 250,174 251,171 252,169 252,165 251,159 250,153 249,145 249,137 247,129 246,120 245,113 243,108 241,104 238,99 234,93"/>
<polygon class="pen1 brush0" points="252,83 250,79 248,75 245,72 241,70 237,69 234,67 231,65 228,62 225,57 222,51 218,46 215,42 212,38 209,31 208,25 208,21 212,20 219,22 226,24 231,25 236,26 242,28 247,32 250,35 250,38 251,42 252,46 252,48 252,51 251,55 252,61 253,65 254,70 255,74 255,79 252,83"/>
<polygon class="pen1 brush0" points="274,71 279,68 286,66 292,65 298,65 304,64 312,64 320,66 326,71 331,73 335,75 340,80 346,86 351,94 355,102 358,109 360,116 361,121 361,127 359,133 354,142 349,150 347,155 344,159 338,164 334,169 328,173 321,176 313,178 308,178 303,179 297,179 291,178 285,177 279,175 273,172 267,168 267,163 269,155 270,149 270,146 277,150 284,153 292,155 299,155 305,153 311,151 316,150 321,148 325,144 330,139 335,132 339,125 342,118 343,112 343,106 341,100 338,94 336,87 333,81 328,77 322,74 317,72 311,69 306,68 300,68 294,68 289,69 284,70 281,71 277,72 275,72 274,71"/>
<polygon class="pen1 brush0" points="359,56 364,54 370,51 375,50 380,51 385,51 393,51 401,53 407,57 412,59 416,61 421,64 424,68 427,73 429,77 431,81 434,84 436,87 437,91 438,95 439,99 440,103 442,108 442,113 440,119 436,126 433,132 431,137 428,141 425,144 422,147 419,149 416,152 413,155 410,157 406,159 401,161 397,163 394,164 390,165 386,166 383,166 380,166 375,166 370,165 365,164 359,161 352,159 346,155 349,132 354,136 361,139 368,141 374,141 380,139 386,137 392,136 397,134 401,133 405,130 409,127 413,122 416,117 420,111 422,105 423,98 422,90 419,81 416,74 412,68 407,64 401,60 394,57 387,55 379,54 370,55 363,57 359,56"/>
<polygon class="pen1 brush0" points="237,97 241,98 246,100 251,102 256,105 260,107 264,111 268,115 272,120 276,127 281,136 285,145 285,153 283,160 281,168 278,176 275,181 271,187 265,195 257,202 247,204 248,199 249,189 250,181 250,177 253,173 256,170 258,166 260,162 263,157 266,152 268,146 267,140 265,133 263,126 260,119 257,114 253,111 249,108 244,106 240,105 237,97"/>
<polygon class="pen1 brush0" points="431,129 434,128 439,128 443,128 446,129 449,130 454,130 458,131 461,133 461,135 463,136 466,137 469,139 473,141 477,145 480,149 482,153 485,158 488,165 492,173 494,180 496,186 496,190 495,194 493,198 490,204 487,211 483,218 477,223 463,205 466,203 468,200 470,196 471,193 473,189 476,185 477,180 477,176 476,171 475,165 473,158 470,152 465,147 460,142 455,138 450,136 445,134 439,133 434,131 429,131 426,131 425,131 426,131 427,131 431,129"/>
<polygon class="pen1 brush0" points="410,152 412,155 414,158 416,161 417,164 418,167 420,170 421,173 420,176 422,179 423,184 424,188 423,191 418,192 412,194 406,197 402,200 398,204 392,209 386,213 382,218 379,224 377,231 375,237 374,242 369,243 365,243 361,243 357,242 352,242 347,240 340,238 333,235 327,231 323,227 319,223 318,222 331,209 336,212 343,215 351,217 358,217 363,215 371,213 379,211 385,209 390,205 395,200 398,193 401,188 404,183 406,175 404,165 398,152 410,152"/>
<polygon class="pen1 brush0" points="422,190 425,190 429,190 433,190 438,190 443,191 447,192 451,194 453,197 458,199 462,202 467,205 471,210 475,215 480,221 484,229 485,239 487,246 486,254 484,263 480,270 477,275 474,280 471,284 467,288 464,291 462,294 458,297 453,299 450,300 446,302 442,303 438,304 434,305 429,306 424,306 419,305 414,304 408,303 403,301 398,299 393,296 389,293 385,289 381,285 375,276 372,268 370,260 370,252 371,244 372,236 373,229 375,223 376,222 378,222 379,223 379,224 378,229 378,236 379,244 381,251 384,258 389,265 394,271 401,276 408,279 414,280 419,281 423,280 430,278 438,275 446,273 452,271 456,267 460,262 463,257 465,253 466,249 469,245 470,239 470,233 468,226 465,219 462,214 459,209 455,205 450,202 445,199 441,197 437,196 432,195 427,193 422,190"/>
<polygon class="pen1 brush0" points="320,170 322,173 324,177 326,180 327,184 329,189 330,195 332,201 333,206 333,210 334,214 333,218 331,222 328,227 326,233 324,238 322,241 316,242 310,243 303,245 298,247 293,250 287,253 282,258 277,263 276,258 275,249 273,241 272,238 279,237 287,236 294,234 298,232 302,229 306,223 310,217 314,211 316,206 318,200 318,195 316,190 313,185 310,179 309,174 308,172 320,170"/>
<polygon class="pen1 brush0" points="253,201 256,205 261,209 265,214 268,218 271,223 273,230 276,237 278,243 279,249 280,255 279,262 276,268 272,274 268,281 263,287 259,292 256,296 253,299 251,301 250,302 246,299 241,297 235,294 230,292 225,290 219,289 214,288 209,289 212,284 216,284 220,282 225,281 230,280 234,279 238,277 241,275 246,271 251,267 255,262 259,256 261,249 262,242 263,238 263,235 261,232 258,227 256,219 252,212 247,207 247,206 247,203 249,201 253,201"/>
<polygon class="pen1 brush0" points="250,302 252,307 254,313 256,318 259,324 260,328 261,332 260,337 259,341 258,346 256,352 253,357 249,361 245,364 242,366 240,369 235,371 229,372 224,373 219,375 215,376 209,376 202,375 194,372 187,368 180,360 174,349 170,336 170,321 167,324 164,327 161,330 161,334 161,339 161,345 161,351 162,356 163,360 165,364 167,370 169,375 171,379 175,383 179,387 184,389 187,392 190,394 194,396 199,398 204,399 209,400 215,400 220,400 226,400 234,398 241,395 248,393 253,391 255,389 257,386 259,384 263,379 267,372 271,365 275,360 278,355 279,350 279,345 278,339 276,332 273,324 269,315 264,308 258,302 254,298 249,294 244,291 250,302"/>
<polygon class="pen1 brush0" points="322,241 326,244 333,247 341,250 347,252 351,255 354,258 356,262 357,265 358,269 359,272 360,275 362,278 363,284 363,289 362,295 360,301 357,307 354,312 350,317 346,321 340,323 332,325 324,327 318,330 314,330 309,330 305,329 301,328 297,326 294,325 290,322 287,319 281,311 276,301 273,288 273,271 266,279 266,286 264,295 264,306 265,315 268,323 272,330 277,337 283,342 289,346 294,349 300,352 312,354 319,354 325,353 330,353 334,352 338,351 341,350 344,350 347,349 351,347 355,345 357,341 360,338 364,334 368,330 371,324 374,319 376,314 378,308 379,302 380,295 380,287 379,279 377,272 374,267 371,263 366,258 359,253 352,249 348,247 344,245 341,243 337,241 334,240 330,239 326,239 321,240 322,241"/>
<polygon class="pen1 brush0" points="477,268 482,270 487,272 492,274 497,277 503,279 508,283 513,289 517,293 520,297 522,301 524,305 525,309 527,314 529,321 531,328 529,334 526,340 523,348 520,355 516,360 512,365 508,370 503,374 499,377 495,379 490,381 485,383 480,384 477,384 474,385 470,385 465,385 460,384 455,383 450,382 445,380 436,375 430,370 424,364 419,355 415,345 412,336 411,328 412,321 414,315 415,309 416,304 418,300 422,301 420,307 420,316 421,325 423,332 427,339 433,346 439,352 445,356 451,358 458,359 464,359 470,358 477,356 483,354 488,351 492,350 496,348 500,344 503,339 506,333 509,326 511,320 512,314 510,308 508,301 506,294 504,288 500,284 494,281 486,277 479,275 472,274 477,268"/>
<polygon class="pen1 brush0" points="422,347 420,352 417,357 414,362 411,367 407,372 402,376 397,380 392,382 389,383 386,384 381,386 376,386 370,387 364,386 357,385 350,382 358,409 361,410 365,410 368,411 372,411 376,411 380,411 384,411 388,410 395,408 401,406 405,405 408,402 411,399 415,395 418,392 421,390 423,387 425,383 427,379 430,376 433,373 434,369 436,364 437,360 422,347"/>
<polygon class="pen1 brush0" points="254,387 252,392 251,398 250,405 250,412 250,419 251,426 252,432 254,436 257,442 260,449 265,455 272,459 274,461 278,463 282,465 286,467 291,469 296,470 301,470 306,470 314,468 322,466 328,464 333,463 337,461 341,458 345,454 349,450 353,445 357,438 360,432 363,426 365,421 365,414 364,407 363,401 361,395 359,389 356,383 351,377 347,373 344,369 341,366 337,365 333,363 329,360 325,358 318,357 313,357 307,357 301,357 296,358 290,359 285,360 281,362 277,364 281,364 286,363 291,362 296,361 301,360 308,360 314,360 319,362 323,364 327,366 332,368 335,371 339,375 342,379 344,384 346,387 347,392 348,398 348,403 347,409 345,416 341,424 335,432 331,436 325,438 318,439 310,441 304,442 301,443 297,443 293,443 289,442 284,441 280,439 276,437 273,434 267,427 261,417 257,402 260,379 254,387"/>
<polygon class="pen1 brush0" points="484,372 486,377 489,383 491,388 492,394 490,400 487,407 484,414 481,419 479,424 476,427 472,429 468,430 463,431 457,433 451,435 445,437 441,437 436,437 432,436 428,434 424,433 421,431 418,429 415,426 410,420 404,412 400,403 399,393 392,396 392,403 393,411 394,420 396,427 399,433 403,440 408,446 415,451 419,453 423,455 427,457 431,459 435,460 439,461 444,462 448,462 456,461 463,459 468,457 473,456 478,455 482,452 485,448 489,444 492,441 494,439 497,435 499,431 502,426 506,420 509,413 510,406 510,399 508,391 504,383 498,375 484,372"/>
<polygon class="pen1 brush0" points="315,464 316,468 318,473 320,478 324,482 329,484 335,487 340,489 346,491 352,492 358,491 364,490 369,489 374,488 379,486 383,483 387,479 391,474 395,468 398,463 400,457 401,451 401,443 399,435 398,429 413,439 415,445 418,452 419,459 419,465 417,471 414,477 411,483 409,488 406,492 403,496 399,499 396,503 392,506 388,510 382,513 374,516 365,518 357,518 351,518 345,517 339,516 334,513 328,511 324,507 318,504 312,496 307,484 303,466 315,464"/>
<polygon class="pen1 brush0" points="396,498 398,501 401,506 405,511 410,515 416,517 422,519 426,520 431,521 436,518 444,517 452,515 458,513 463,509 468,505 471,500 474,496 477,490 480,484 481,479 480,473 477,466 474,458 472,452 471,450 476,444 481,450 486,456 490,462 493,469 495,475 497,481 497,488 495,497 492,507 489,516 484,523 477,528 474,532 470,535 466,538 461,541 455,543 450,544 444,544 439,545 433,545 426,545 419,543 412,540 405,537 396,530 389,519 383,504 396,498"/>
</g>
</svg>
