<?xml version="1.0" encoding="UTF-8" standalone="no"?>
<!DOCTYPE svg PUBLIC "-//W3C//DTD SVG 1.0//EN" "http://www.w3.org/TR/2001/REC-SVG-20010904/DTD/svg10.dtd">
<svg xmlns="http://www.w3.org/2000/svg" xmlns:xlink="http://www.w3.org/1999/xlink" fill-rule="evenodd" height="0.38in" preserveAspectRatio="none" stroke-linecap="round" viewBox="0 0 555 380" width="0.555in">
<style type="text/css">
.brush0 { fill: rgb(255,255,255); }
.pen0 { stroke: rgb(0,0,0); stroke-width: 1; stroke-linejoin: round; }
.brush1 { fill: none; }
.pen1 { stroke: none; }
.brush2 { fill: rgb(0,0,0); }
</style>
<g>
<polygon class="pen1 brush2" points="244,380 276,377 306,367 333,353 357,333 376,309 391,282 400,252 403,220 400,188 391,158 376,131 357,107 333,87 306,73 276,63 244,60 228,61 212,63 197,67 182,73 168,79 155,87 142,97 131,107 121,118 111,131 103,144 97,158 91,173 87,188 85,204 84,220 85,236 87,252 91,267 97,282 103,296 111,309 121,322 131,333 142,343 155,353 168,361 182,367 197,373 212,377 228,379 244,380"/>
<polygon class="pen1 brush2" points="75,107 74,95 72,83 69,72 64,63 58,56 52,50 45,46 38,45 30,46 23,50 17,56 11,63 6,72 3,83 1,95 0,107 2,127 7,144 16,157 26,166 26,166 26,166 26,166 26,166 26,367 27,371 29,375 33,378 38,379 42,378 46,375 48,371 49,367 49,166 49,166 49,166 49,166 49,166 59,157 68,144 73,127 75,107"/>
<polygon class="pen1 brush2" points="555,107 553,127 548,144 539,157 529,166 529,166 529,166 529,166 529,166 529,367 528,371 526,375 522,378 517,379 513,378 509,375 506,371 505,367 505,166 505,166 505,166 505,166 505,166 495,157 487,144 482,127 480,107 480,101 480,86 480,71 480,60 485,75 488,100 491,124 495,135 500,126 503,103 505,78 508,60 511,77 513,102 516,125 520,134 524,123 525,100 526,76 529,60 532,77 532,102 532,125 536,135 541,124 544,100 547,74 550,57 551,69 553,86 554,101 555,107"/>
<polygon class="pen1 brush2" points="465,12 464,7 461,3 457,1 453,0 448,7 442,24 437,50 432,81 428,113 425,143 423,169 422,187 423,205 426,219 432,230 441,237 441,258 441,302 441,347 441,367 442,371 444,375 448,378 453,379 457,378 461,375 464,371 465,367 465,12"/>
<polygon class="pen1 brush0" points="19,117 21,99 27,85 35,76 45,72 49,72 52,74 56,76 59,79 55,71 50,64 45,60 38,59 27,63 19,72 13,86 11,104 12,116 14,126 18,135 23,142 21,136 20,130 19,124 19,117"/>
<polygon class="pen1 brush0" points="238,352 266,349 292,341 316,329 336,312 353,292 365,268 373,242 376,214 373,186 365,160 353,137 336,116 316,100 292,87 266,79 238,76 210,79 184,87 161,100 141,116 124,137 111,160 103,186 100,214 103,242 111,268 124,292 141,312 161,329 184,341 210,349 238,352"/>
<polygon class="pen1 brush2" points="238,109 242,108 245,106 247,104 248,100 247,96 245,93 242,91 238,90 234,91 231,93 229,96 228,100 229,104 231,106 234,108 238,109"/>
<polygon class="pen1 brush2" points="238,317 242,318 245,320 247,323 248,327 247,331 245,334 242,336 238,337 234,336 231,334 229,331 228,327 229,323 231,320 234,318 238,317"/>
<polygon class="pen1 brush2" points="186,123 189,121 191,118 191,114 190,110 187,107 184,105 180,105 176,106 173,109 171,112 171,116 172,120 175,123 178,124 182,124 186,123"/>
<polygon class="pen1 brush2" points="290,303 294,302 298,302 301,304 304,307 305,311 305,315 303,318 300,320 297,321 293,321 289,320 287,317 286,313 286,309 287,306 290,303"/>
<polygon class="pen1 brush2" points="148,162 149,158 149,154 147,151 144,148 140,147 136,147 133,149 131,152 130,155 130,159 131,162 134,165 138,166 142,166 145,165 148,162"/>
<polygon class="pen1 brush2" points="328,266 330,263 333,261 337,261 341,262 344,265 346,268 346,272 345,276 342,279 339,280 335,280 331,279 328,277 327,274 327,270 328,266"/>
<polygon class="pen1 brush2" points="134,214 133,210 131,207 128,205 124,204 120,205 117,207 115,210 114,214 115,218 117,221 120,223 124,224 128,223 131,221 133,218 134,214"/>
<polygon class="pen1 brush2" points="342,214 343,210 345,207 347,205 351,204 355,205 358,207 360,210 361,214 360,218 358,221 355,223 351,224 347,223 345,221 343,218 342,214"/>
<polygon class="pen1 brush2" points="148,266 145,263 142,261 138,261 134,262 131,265 129,268 129,272 130,276 133,279 136,280 140,280 144,279 147,277 149,274 149,270 148,266"/>
<polygon class="pen1 brush2" points="327,162 326,158 326,154 328,151 331,148 335,147 339,147 342,149 345,152 346,155 346,159 344,162 341,165 337,166 333,166 330,165 327,162"/>
<polygon class="pen1 brush2" points="186,303 182,302 178,302 175,304 172,307 171,311 171,315 173,318 176,320 180,321 184,321 187,320 189,317 190,313 190,309 189,306 186,303"/>
<polygon class="pen1 brush2" points="290,123 287,121 286,118 286,114 287,110 289,107 292,105 296,105 300,106 303,109 305,112 305,116 304,120 301,123 298,124 294,124 290,123"/>
<polygon class="pen1 brush2" points="238,214 244,214 244,144 255,144 238,127 221,144 232,144 232,214 238,214"/>
</g>
</svg>
