<?xml version="1.0" encoding="UTF-8" standalone="no"?>
<!DOCTYPE svg PUBLIC "-//W3C//DTD SVG 1.0//EN" "http://www.w3.org/TR/2001/REC-SVG-20010904/DTD/svg10.dtd">
<svg xmlns="http://www.w3.org/2000/svg" xmlns:xlink="http://www.w3.org/1999/xlink" fill-rule="evenodd" height="0.553in" preserveAspectRatio="none" stroke-linecap="round" viewBox="0 0 553 553" width="0.553in">
<style type="text/css">
.brush0 { fill: rgb(255,255,255); }
.pen0 { stroke: rgb(0,0,0); stroke-width: 1; stroke-linejoin: round; }
.brush1 { fill: none; }
.pen1 { stroke: none; }
.brush2 { fill: rgb(0,0,0); }
</style>
<g>
<polygon class="pen1 brush2" points="277,553 305,552 333,547 359,541 384,531 408,520 431,506 452,490 472,472 490,452 506,431 520,408 531,384 541,359 547,332 552,305 553,277 552,249 547,221 541,195 531,169 520,145 506,122 490,101 472,81 452,63 431,47 408,33 384,22 359,12 333,6 305,1 277,0 249,1 221,6 195,12 169,22 145,33 122,47 101,63 81,81 63,101 47,122 33,145 22,169 12,195 6,221 1,249 0,277 1,305 6,332 12,359 22,384 33,408 47,431 63,452 81,472 101,490 122,506 145,520 169,531 195,541 221,547 249,552 277,553"/>
<polygon class="pen1 brush0" points="294,157 293,156 293,154 292,150 294,145 294,140 294,135 294,131 296,130 297,129 297,127 297,125 298,122 299,119 300,115 301,111 303,108 305,105 306,101 307,98 308,95 309,92 311,90 313,89 316,87 319,84 323,81 327,79 330,76 334,74 338,72 343,70 347,69 351,68 356,66 360,65 364,64 368,65 372,65 377,65 383,66 390,68 396,69 402,71 408,74 404,75 399,77 393,78 388,80 385,81 380,83 374,86 367,89 361,92 354,94 349,95 345,95 339,98 332,102 325,106 320,110 316,112 313,114 310,117 308,121 306,126 304,131 301,136 300,139 299,142 297,147 296,152 294,157"/>
<polygon class="pen1 brush0" points="377,102 372,102 367,102 361,102 356,102 351,104 348,106 346,109 343,111 339,113 335,115 331,118 327,121 324,123 322,126 319,129 317,132 315,135 312,139 309,142 307,146 305,150 302,155 300,160 299,166 297,168 297,170 296,172 297,173 298,172 299,170 302,167 304,165 306,164 307,162 309,159 310,157 313,156 317,155 319,153 321,151 324,150 326,149 329,148 331,148 333,148 336,147 339,145 342,143 345,142 347,143 349,143 352,142 354,139 357,134 360,129 363,126 367,121 373,113 378,106 377,102"/>
<polygon class="pen1 brush0" points="442,82 438,80 434,77 428,77 418,78 414,80 411,83 408,85 403,88 398,91 396,95 394,98 392,102 389,106 387,112 385,117 383,122 381,126 379,131 377,135 375,139 371,143 365,148 359,152 358,157 356,159 355,161 352,164 348,167 344,171 341,173 338,175 335,176 333,177 332,177 331,178 328,179 323,179 317,180 312,180 308,182 306,183 307,184 309,185 312,185 315,185 320,185 324,185 327,185 330,185 333,184 337,183 342,182 347,181 354,181 359,180 363,177 368,176 371,174 375,173 379,172 385,169 391,166 396,162 399,156 404,152 409,148 413,141 414,129 415,116 417,107 419,101 422,97 425,92 429,87 434,83 442,82"/>
<polygon class="pen1 brush0" points="267,203 269,199 271,194 272,189 272,185 273,182 275,180 277,178 277,176 277,173 279,170 281,167 282,163 283,159 284,154 284,150 283,147 279,143 274,138 268,134 264,132 260,131 255,128 249,124 244,120 246,125 248,130 249,136 249,140 248,144 248,149 248,154 250,159 252,162 253,165 254,167 253,170 254,172 255,173 256,174 258,175 260,179 262,186 264,195 267,203"/>
<polygon class="pen1 brush0" points="231,189 225,186 218,182 210,179 203,177 199,177 195,176 191,175 187,175 183,174 179,174 175,174 171,174 167,174 162,175 157,176 151,178 146,179 140,181 135,183 131,185 123,191 115,200 109,209 104,217 100,227 95,241 92,259 92,282 93,303 94,318 95,331 99,343 100,349 102,358 104,367 107,373 108,383 111,398 116,414 123,426 127,434 132,444 136,453 140,460 144,466 151,474 159,482 166,487 172,490 179,491 184,493 189,495 192,496 196,496 201,496 206,496 212,495 218,493 223,491 228,488 233,485 240,480 248,475 257,470 266,466 277,464 287,465 297,469 295,466 291,464 288,462 283,461 278,461 274,461 269,461 264,462 260,464 255,465 251,468 247,470 243,472 239,474 235,477 232,479 229,481 225,482 221,484 217,485 213,486 209,486 205,486 201,486 197,486 192,485 188,484 183,483 178,481 174,478 169,475 165,470 158,459 152,448 148,437 144,426 142,414 141,401 140,388 137,376 133,363 131,349 129,336 129,324 129,312 129,298 128,283 125,269 125,257 127,244 129,231 133,220 136,214 141,208 148,201 157,195 169,190 185,187 206,186 231,189"/>
<polygon class="pen1 brush0" points="224,216 227,217 231,217 236,218 241,219 247,219 252,220 257,219 262,218 266,217 271,215 275,213 280,212 284,210 288,208 291,207 294,206 298,205 304,204 310,202 316,199 319,197 324,194 330,191 337,189 344,187 351,185 357,185 362,185 367,186 373,187 379,188 385,190 391,192 396,194 400,197 403,201 408,204 414,208 420,214 426,221 431,229 436,236 440,244 443,251 447,262 449,270 450,278 452,287 454,298 455,310 455,324 452,340 448,357 443,370 438,381 432,392 429,398 425,405 421,412 417,419 413,426 408,432 403,438 398,443 393,453 386,464 378,474 369,480 366,483 361,486 354,488 347,490 339,490 331,489 324,487 317,482 321,483 325,483 330,484 334,484 338,483 343,482 347,481 351,478 358,472 365,465 370,457 374,447 378,434 384,421 391,408 396,398 401,389 406,379 410,368 413,355 416,340 420,324 422,307 423,293 421,280 417,264 410,246 399,228 392,220 385,213 377,208 370,205 362,202 355,201 349,201 343,201 338,202 334,202 329,203 325,204 321,205 317,206 313,208 310,210 305,213 300,215 293,217 287,219 280,220 274,222 269,222 265,222 261,222 256,222 250,222 244,222 237,222 232,222 227,221 223,220 218,217 216,216 218,215 224,216"/>
</g>
</svg>
