<?xml version="1.0" encoding="UTF-8" standalone="no"?>
<!DOCTYPE svg PUBLIC "-//W3C//DTD SVG 1.0//EN" "http://www.w3.org/TR/2001/REC-SVG-20010904/DTD/svg10.dtd">
<svg xmlns="http://www.w3.org/2000/svg" xmlns:xlink="http://www.w3.org/1999/xlink" fill-rule="evenodd" height="0.546in" preserveAspectRatio="none" stroke-linecap="round" viewBox="0 0 544 546" width="0.544in">
<style type="text/css">
.brush0 { fill: rgb(255,255,255); }
.pen0 { stroke: rgb(0,0,0); stroke-width: 1; stroke-linejoin: round; }
.brush1 { fill: none; }
.pen1 { stroke: none; }
.brush2 { fill: rgb(0,0,0); }
</style>
<g>
<polygon class="pen1 brush2" points="35,13 47,27 59,39 70,52 81,64 92,76 103,87 114,98 124,109 135,120 146,131 157,142 168,154 179,165 192,177 204,190 217,203 232,219 248,235 265,250 281,264 297,278 314,293 330,309 345,325 349,327 353,329 357,331 360,333 380,354 399,374 419,392 439,410 459,428 479,446 499,466 518,488 525,499 533,510 537,520 534,527 526,533 517,536 507,538 497,538 486,537 475,536 464,535 454,535 443,534 431,533 419,533 408,533 396,533 384,534 372,534 360,535 348,536 337,536 325,537 313,537 302,537 290,537 279,536 268,535 253,533 237,531 222,529 207,526 192,524 176,522 161,519 146,517 130,515 115,513 100,512 84,510 69,509 53,509 38,509 22,509 12,382 10,255 12,127 11,0 11,1 14,2 18,5 23,8 28,10 32,12 35,13 35,13"/>
<polygon class="pen1 brush2" points="131,105 137,103 145,101 154,100 159,99 162,98 167,98 171,97 175,97 170,95 165,95 159,95 154,96 149,97 144,98 138,100 133,101 129,102 126,102 123,103 120,104 121,105 122,106 123,108 124,109 126,108 128,107 130,106 131,105"/>
<polygon class="pen1 brush2" points="159,131 155,130 151,128 145,127 140,126 143,128 146,131 149,134 151,137 153,135 155,134 157,132 159,131"/>
<polygon class="pen1 brush0" points="93,122 89,126 84,131 80,135 78,138 76,140 75,144 74,147 75,148 77,149 79,149 81,148 85,147 88,145 91,144 92,143 94,141 97,140 102,140 108,139 112,139 107,142 102,144 96,147 91,150 87,152 82,155 77,158 72,161 67,166 61,171 56,178 53,184 50,192 45,202 41,213 37,220 36,222 37,223 37,223 39,223 43,223 51,223 59,221 66,217 63,225 59,235 57,244 55,251 54,259 53,272 52,285 53,296 54,291 55,286 56,281 57,276 58,271 59,266 61,260 63,255 65,249 69,241 73,233 76,226 81,220 88,211 94,200 99,190 94,190 88,190 80,192 73,194 76,190 79,187 82,183 85,180 89,177 94,173 98,169 102,166 107,163 113,160 118,157 123,154 128,152 135,148 143,142 151,137 149,134 146,131 143,128 140,126 136,125 133,124 130,124 128,123 123,123 117,124 113,125 109,126 106,127 103,127 99,128 95,129 97,126 100,122 103,118 106,115 110,114 114,113 119,111 124,109 123,108 122,106 121,105 120,104 118,105 116,106 113,107 111,108 105,111 101,115 96,119 93,122"/>
<polygon class="pen1 brush2" points="211,195 213,189 214,182 214,175 214,171 213,169 213,166 213,164 214,162 214,159 213,154 212,149 212,143 212,136 210,129 209,122 208,116 207,112 205,108 202,105 199,100 201,104 203,110 205,116 206,121 207,126 208,133 209,139 209,145 209,150 209,156 209,161 209,165 209,169 208,174 207,180 205,184 202,180 199,175 196,171 193,169 192,171 192,173 192,175 191,177 196,181 200,186 205,190 209,195 210,195 210,195 211,195 211,195"/>
<polygon class="pen1 brush0" points="181,207 180,212 178,219 175,225 171,231 170,227 169,222 167,217 165,213 161,220 156,229 149,238 143,246 140,250 136,254 132,260 126,265 120,270 113,276 105,280 96,284 101,285 106,284 111,283 116,281 122,279 129,275 136,271 141,268 145,265 150,262 155,259 159,255 161,260 164,267 167,274 170,278 174,273 178,268 181,263 183,259 185,255 189,249 192,241 193,231 195,227 196,222 198,217 198,213 199,208 200,203 201,199 203,195 205,195 206,195 208,195 209,195 205,190 200,186 196,181 191,177 191,179 190,181 189,184 188,186 186,191 184,196 182,202 181,207"/>
<polygon class="pen1 brush2" points="214,91 212,88 211,85 208,82 205,80 202,79 199,78 197,76 194,74 192,70 189,65 186,60 184,57 181,54 179,49 178,44 178,41 182,40 187,41 193,43 197,44 201,44 206,46 210,49 212,52 213,55 213,58 214,61 214,63 214,65 213,69 214,73 215,77 216,81 217,85 216,88 214,91"/>
<polygon class="pen1 brush2" points="232,81 236,79 242,77 247,77 252,77 257,76 264,76 271,78 276,81 280,83 284,86 288,89 292,94 296,100 300,107 303,113 304,118 304,123 305,127 303,133 299,140 295,146 293,150 291,154 286,158 282,162 277,165 271,168 264,169 260,170 256,170 251,170 246,170 241,169 236,167 231,165 226,161 227,157 228,151 229,145 229,143 235,146 241,149 246,151 252,150 258,149 263,147 267,146 271,145 275,142 279,137 284,131 287,126 289,121 290,116 290,111 288,106 286,100 284,95 281,90 277,87 272,85 268,82 263,80 258,79 249,79 241,81 235,82 232,81"/>
<polygon class="pen1 brush2" points="303,69 307,68 312,65 316,64 320,65 324,65 330,65 336,67 341,70 345,72 349,74 352,76 355,79 358,83 360,87 362,90 364,92 366,95 366,98 367,101 368,105 369,109 370,112 370,116 368,121 365,127 363,132 361,136 358,140 356,142 354,144 352,146 349,148 347,150 344,152 341,154 337,156 333,157 331,158 328,158 324,159 322,160 319,160 316,160 312,159 307,158 303,156 297,153 292,150 295,132 299,135 305,137 310,139 314,139 319,138 324,136 329,135 333,134 337,132 340,130 343,127 346,124 349,119 352,114 355,109 355,104 354,97 352,90 349,83 345,79 341,76 336,73 331,70 325,68 318,68 312,69 306,70 303,69"/>
<polygon class="pen1 brush2" points="202,103 205,104 209,105 213,107 217,109 221,111 224,114 228,118 231,122 235,128 238,135 241,143 241,149 240,155 237,162 235,168 233,172 230,177 225,183 218,189 210,191 211,187 211,179 212,171 212,168 215,166 217,163 219,160 221,157 223,153 226,148 227,143 227,138 225,133 223,127 221,122 218,117 215,114 212,112 208,111 205,110 202,103"/>
<polygon class="pen1 brush2" points="361,129 364,129 367,129 370,129 373,129 376,130 379,130 383,131 385,132 386,134 388,135 390,136 393,137 396,139 398,142 401,146 403,149 405,153 408,159 411,165 413,172 414,176 414,180 414,183 412,186 410,191 407,197 404,203 399,207 388,192 390,190 392,187 393,185 394,182 396,179 398,175 399,171 399,168 398,164 397,159 395,153 393,148 389,144 385,140 380,137 376,135 372,134 368,132 363,131 359,131 357,131 357,131 357,131 358,131 361,129"/>
<polygon class="pen1 brush2" points="344,148 346,150 347,153 349,156 350,158 351,160 352,163 353,165 352,168 353,171 355,174 355,178 355,180 351,181 346,183 341,185 337,188 334,191 329,195 324,198 321,202 319,207 317,213 316,218 315,222 311,223 308,223 304,223 301,222 297,222 293,221 287,219 282,216 277,213 272,209 269,207 268,206 280,195 284,197 290,200 296,202 302,202 306,200 312,198 318,197 323,195 327,192 331,187 334,182 337,178 339,173 340,167 339,159 334,148 344,148"/>
<polygon class="pen1 brush2" points="354,180 360,180 367,180 375,181 379,185 383,187 387,189 391,192 394,196 397,200 401,205 404,212 406,220 407,226 407,232 405,239 402,245 399,250 397,254 394,257 391,260 388,262 386,265 383,267 379,269 373,271 367,273 359,274 351,274 347,273 342,272 338,270 334,268 330,266 326,264 323,261 320,257 316,250 314,243 312,237 312,231 313,224 313,217 314,211 315,206 316,205 317,206 318,207 318,207 317,211 317,217 318,224 320,230 323,235 326,241 331,246 337,250 343,252 348,254 351,254 355,254 360,252 367,250 373,247 378,246 382,243 385,239 388,235 389,231 390,228 392,224 393,220 393,215 391,209 389,204 387,199 384,195 381,192 377,189 372,187 369,186 366,185 362,183 358,182 354,180"/>
<polygon class="pen1 brush2" points="244,231 246,230 248,228 250,227 252,226 256,225 262,223 267,222 272,222 274,219 275,215 277,210 280,206 282,202 282,199 282,196 281,192 281,188 279,183 278,179 277,175 276,171 274,168 272,165 270,163 261,164 261,166 262,170 264,175 266,179 268,183 268,188 267,193 265,197 262,201 259,207 255,211 252,214 249,215 244,217 238,218 232,219 235,222 238,225 241,228 244,231"/>
<polygon class="pen1 brush2" points="235,222 233,217 231,212 229,207 227,203 224,200 221,195 218,191 215,188 212,188 211,190 210,192 210,193 212,195 214,197 215,200 217,203 217,203 217,203 217,203 217,203 222,208 226,213 231,217 235,222"/>
<polygon class="pen1 brush0" points="244,231 242,229 240,226 237,224 235,222 231,217 226,213 222,208 217,203 217,203 217,203 217,203 217,203 218,207 219,210 220,212 221,214 223,217 223,219 223,223 221,228 219,234 217,238 214,242 210,246 206,249 203,251 199,253 196,254 192,254 188,255 185,257 182,257 179,260 183,260 187,261 191,262 196,264 200,266 204,267 209,269 212,271 213,270 215,269 217,267 220,264 223,260 227,254 231,249 234,244 235,242 235,241 236,239 236,238 238,236 240,234 242,233 244,231"/>
<polygon class="pen1 brush0" points="212,271 214,275 216,280 217,285 220,290 221,293 222,296 221,300 220,304 219,308 217,313 214,317 211,320 208,323 206,325 204,326 200,328 195,329 190,330 186,331 183,333 178,333 173,332 167,330 161,326 155,320 150,311 146,300 146,287 144,290 141,292 140,295 139,298 139,302 140,307 140,312 140,316 141,319 142,323 144,327 146,331 148,335 151,339 155,342 158,344 163,348 170,351 179,353 187,353 192,353 199,351 206,348 211,347 214,346 216,343 218,341 220,339 223,335 227,330 230,324 233,319 235,315 236,311 237,307 236,302 234,296 232,289 229,282 224,276 219,272 216,268 212,265 208,263 212,271"/>
<polygon class="pen1 brush2" points="315,285 317,281 318,277 319,272 319,266 319,259 318,253 316,247 314,243 312,240 309,235 303,231 297,228 291,224 285,221 278,220 271,221 272,222 276,224 281,226 288,228 293,230 296,233 298,235 300,238 301,241 302,244 303,247 304,250 305,252 306,256 306,261 305,265 303,270 302,273 301,275 300,278 299,280 302,282 306,285 309,288 312,292 313,290 314,288 314,287 315,285"/>
<polygon class="pen1 brush0" points="292,287 287,289 280,291 273,292 268,295 261,295 254,293 248,290 243,285 238,279 234,271 231,260 231,246 226,252 225,258 224,265 224,274 225,282 227,289 231,295 235,301 240,305 245,308 249,311 254,313 264,314 274,314 282,313 288,311 293,310 297,309 299,306 301,304 304,301 306,299 308,297 310,294 312,292 309,288 306,285 302,282 299,280 297,282 296,284 294,285 292,287"/>
<polygon class="pen1 brush2" points="399,244 403,245 408,247 412,249 416,251 420,253 425,256 429,260 432,264 434,267 436,270 438,274 439,277 440,282 442,287 443,293 442,298 439,303 437,309 434,315 431,319 427,323 424,327 421,331 417,333 414,335 409,336 405,338 401,339 396,340 389,340 381,339 373,336 366,332 360,327 355,322 351,315 347,307 345,299 345,293 346,287 347,282 348,277 349,273 350,270 354,271 352,276 352,283 353,291 355,297 358,302 363,308 368,313 373,316 378,318 383,318 388,318 393,317 398,316 403,314 407,312 411,311 415,309 418,306 421,302 423,297 425,292 427,286 427,281 426,276 424,271 423,265 421,260 418,257 413,254 407,251 400,249 395,249 399,244"/>
<polygon class="pen1 brush2" points="366,320 354,309 352,312 350,317 347,321 345,325 349,327 353,329 357,331 360,333 362,330 364,326 365,323 366,320"/>
<polygon class="pen1 brush0" points="329,337 327,338 324,339 321,340 317,341 312,341 307,341 302,340 296,337 302,360 308,361 314,362 320,362 326,361 332,360 336,358 340,357 343,355 345,352 348,350 350,347 353,345 355,342 357,339 358,335 360,333 357,331 353,329 349,327 345,325 342,329 338,332 333,335 329,337"/>
<polygon class="pen1 brush0" points="215,343 214,347 213,351 212,357 212,363 212,369 213,374 214,378 216,381 218,386 221,392 225,397 230,401 235,404 242,407 250,409 258,409 266,408 272,406 278,405 282,404 285,403 288,400 291,397 294,393 298,389 301,384 304,379 307,375 308,370 308,364 307,359 306,354 304,349 303,344 300,338 296,334 293,330 291,327 288,324 285,323 282,321 279,319 275,317 268,317 264,317 259,317 255,317 250,318 245,318 241,320 237,321 234,323 238,322 242,321 247,321 251,320 255,320 260,320 265,320 269,321 272,322 276,324 280,325 283,328 286,332 289,335 291,339 292,343 293,347 294,351 294,356 293,361 291,366 288,372 284,378 280,381 275,383 269,384 262,386 257,387 251,388 244,387 237,385 232,380 227,375 221,367 219,354 221,334 215,343"/>
<polygon class="pen1 brush2" points="412,385 413,383 415,382 416,380 417,378 420,374 423,369 425,363 426,358 426,352 424,345 421,338 416,331 405,329 407,333 409,338 411,343 411,348 410,353 408,359 405,364 403,369 402,370 401,371 400,373 399,374 402,376 406,379 409,382 412,385"/>
<polygon class="pen1 brush0" points="392,377 388,378 383,379 378,381 373,382 366,382 359,380 353,377 348,374 344,369 339,363 336,356 335,348 329,350 329,356 330,363 331,370 332,376 335,380 338,385 342,390 348,394 355,398 361,400 368,402 375,403 382,402 387,401 392,399 396,398 400,397 403,394 406,391 409,388 410,387 411,386 411,386 412,385 409,382 406,379 402,376 399,374 397,375 396,376 394,377 392,377"/>
<polygon class="pen1 brush0" points="266,404 267,408 269,412 271,416 274,419 278,421 283,424 287,426 292,427 297,428 302,427 306,426 311,425 315,424 318,422 322,420 325,417 329,413 332,408 334,404 336,399 337,394 336,387 335,381 334,377 347,384 348,389 350,394 351,400 351,406 350,411 347,415 345,420 343,424 341,428 338,431 335,434 332,436 329,439 326,442 321,445 314,447 307,449 301,449 296,449 291,448 286,447 282,445 278,443 274,440 269,437 264,431 259,421 256,406 266,404"/>
<polygon class="pen1 brush0" points="332,432 334,435 336,439 339,444 344,447 349,449 353,450 358,451 362,451 366,449 371,448 378,447 383,445 388,442 392,438 395,435 397,431 399,427 401,422 403,417 402,412 399,406 397,400 395,395 394,393 398,388 402,393 407,398 410,403 413,409 415,414 416,419 416,424 414,432 411,440 408,447 405,453 399,457 397,460 394,463 390,466 386,468 381,470 377,471 372,471 368,472 363,472 357,471 351,469 345,467 339,465 333,460 326,451 321,438 332,432"/>
</g>
</svg>
