<?xml version="1.0" encoding="UTF-8" standalone="no"?>
<!DOCTYPE svg PUBLIC "-//W3C//DTD SVG 1.0//EN" "http://www.w3.org/TR/2001/REC-SVG-20010904/DTD/svg10.dtd">
<svg xmlns="http://www.w3.org/2000/svg" xmlns:xlink="http://www.w3.org/1999/xlink" fill-rule="evenodd" height="1.596in" preserveAspectRatio="none" stroke-linecap="round" viewBox="0 0 1979 1596" width="1.979in">
<style type="text/css">
.brush0 { fill: rgb(255,255,255); }
.pen0 { stroke: rgb(0,0,0); stroke-width: 1; stroke-linejoin: round; }
.brush1 { fill: none; }
.pen1 { stroke: none; }
.brush2 { fill: rgb(0,0,0); }
</style>
<g>
<polygon class="pen1 brush2" points="1556,1472 1555,1472 1552,1474 1548,1475 1541,1478 1533,1480 1524,1483 1514,1486 1502,1490 1489,1493 1474,1497 1459,1500 1443,1503 1427,1505 1409,1508 1391,1509 1373,1510 1360,1510 1348,1510 1335,1510 1322,1509 1309,1507 1296,1505 1283,1502 1270,1499 1257,1495 1244,1490 1232,1485 1219,1479 1207,1472 1195,1464 1183,1455 1172,1446 1169,1444 1159,1438 1145,1426 1129,1408 1111,1382 1093,1346 1076,1300 1063,1243 1055,1173 1053,1089 1058,990 1073,875 1099,742 1137,591 1189,419 1256,227 1254,223 1249,211 1245,194 1244,173 1251,149 1267,125 1297,102 1344,82 1398,227 1444,365 1484,497 1517,621 1545,738 1567,848 1584,951 1598,1045 1607,1132 1614,1210 1617,1281 1619,1342 1619,1395 1617,1439 1615,1474 1613,1500 1556,1472 1556,1472"/>
<polygon class="pen1 brush2" points="1360,78 1414,225 1461,366 1501,499 1534,626 1562,744 1584,855 1601,959 1614,1054 1623,1140 1629,1219 1632,1288 1633,1349 1633,1401 1631,1443 1629,1476 1627,1499 1634,1503 1637,1500 1644,1494 1655,1484 1667,1473 1678,1462 1687,1453 1692,1447 1692,1446 1695,1446 1702,1447 1713,1446 1728,1446 1745,1444 1765,1440 1787,1435 1810,1426 1833,1415 1856,1401 1879,1383 1900,1360 1920,1333 1938,1301 1952,1264 1963,1220 1968,1187 1971,1151 1972,1113 1970,1071 1966,1026 1960,977 1950,924 1938,868 1936,862 1931,843 1923,814 1911,776 1896,730 1878,678 1857,622 1833,561 1806,499 1776,436 1744,374 1709,314 1671,257 1631,206 1588,161 1543,124 1532,116 1521,109 1511,103 1500,97 1488,92 1477,87 1466,83 1455,80 1443,77 1431,75 1420,74 1408,73 1396,73 1384,74 1372,76 1360,78"/>
<polygon class="pen1 brush2" points="365,1337 362,1337 354,1336 341,1334 323,1331 303,1327 280,1321 254,1314 227,1305 199,1293 172,1280 144,1263 118,1244 94,1222 72,1197 54,1168 39,1136 37,1134 33,1127 28,1116 22,1100 16,1079 13,1052 12,1021 16,983 21,954 29,922 41,888 55,850 73,810 96,766 122,719 154,669 173,641 194,611 216,581 240,550 266,517 293,484 322,450 353,415 386,378 421,341 458,303 497,263 538,223 582,181 627,139 675,95 675,92 675,85 677,75 680,62 685,49 694,35 707,23 725,13 733,10 743,7 753,5 764,4 776,3 790,4 804,5 820,7 800,160 778,304 752,439 724,564 694,681 663,789 631,888 599,978 567,1059 536,1131 507,1195 480,1251 455,1298 434,1336 416,1366 402,1388 365,1337 365,1337"/>
<polygon class="pen1 brush2" points="836,10 816,166 793,312 766,449 737,576 707,694 675,802 642,902 610,992 578,1073 547,1146 517,1209 490,1263 466,1309 445,1345 428,1374 415,1393 421,1400 425,1399 435,1397 448,1393 464,1389 478,1385 491,1381 498,1379 498,1378 502,1380 513,1386 530,1394 552,1402 580,1410 611,1414 646,1415 684,1410 723,1398 763,1377 803,1345 843,1302 882,1245 919,1174 953,1086 983,980 985,970 991,942 999,899 1009,842 1018,775 1027,699 1035,617 1039,532 1039,445 1034,360 1023,278 1005,203 978,136 941,80 895,37 836,10"/>
<polygon class="pen1 brush0" points="367,1139 406,1128 434,1108 453,1082 464,1053 469,1025 470,1000 470,983 469,977 470,898 478,835 493,786 510,748 528,722 543,705 555,696 559,693 590,642 603,599 604,564 595,535 581,513 566,498 554,489 549,486 515,480 482,483 452,492 424,507 398,527 375,551 353,577 334,605 317,634 302,662 289,689 279,713 270,734 265,750 261,760 260,764 247,828 239,885 237,934 239,977 245,1013 254,1043 265,1068 278,1088 293,1104 307,1117 322,1126 335,1132 347,1136 357,1138 364,1139 367,1139"/>
<polygon class="pen1 brush2" points="353,808 367,810 380,817 391,827 402,841 410,857 416,876 420,897 421,919 420,941 416,962 409,980 401,996 391,1010 379,1020 365,1026 351,1028 337,1026 324,1019 312,1009 302,996 294,980 287,961 283,940 282,918 284,895 288,875 295,856 303,840 314,826 326,816 339,810 353,808"/>
<polygon class="pen1 brush0" points="635,1264 617,1239 610,1214 611,1190 619,1168 629,1149 639,1134 648,1124 651,1121 687,1074 712,1033 726,997 734,967 736,943 735,926 732,916 731,912 736,868 747,836 764,814 782,802 801,795 817,793 829,793 833,794 874,823 897,864 906,913 905,964 897,1012 887,1053 878,1081 874,1091 852,1135 830,1172 808,1203 787,1227 766,1246 747,1259 728,1269 711,1275 695,1278 681,1278 668,1277 657,1274 648,1271 641,1268 637,1265 635,1264"/>
<polygon class="pen1 brush2" points="797,1075 786,1069 773,1066 759,1067 745,1071 730,1077 715,1087 701,1100 688,1115 677,1131 668,1148 662,1165 659,1181 658,1196 661,1210 666,1222 675,1231 687,1237 700,1240 714,1240 729,1236 744,1229 758,1220 773,1207 786,1192 797,1176 806,1159 812,1142 814,1126 814,1110 811,1097 806,1085 797,1075"/>
</g>
</svg>
