<?xml version="1.0" encoding="UTF-8" standalone="no"?>
<!DOCTYPE svg PUBLIC "-//W3C//DTD SVG 1.0//EN" "http://www.w3.org/TR/2001/REC-SVG-20010904/DTD/svg10.dtd">
<svg xmlns="http://www.w3.org/2000/svg" xmlns:xlink="http://www.w3.org/1999/xlink" fill-rule="evenodd" height="1.895in" preserveAspectRatio="none" stroke-linecap="round" viewBox="0 0 2023 1895" width="2.023in">
<style type="text/css">
.brush0 { fill: rgb(255,255,255); }
.pen0 { stroke: rgb(0,0,0); stroke-width: 1; stroke-linejoin: round; }
.brush1 { fill: none; }
.pen1 { stroke: none; }
.brush2 { fill: rgb(0,0,0); }
</style>
<g>
<polygon class="pen1 brush2" points="1027,263 1035,224 1046,188 1058,154 1073,122 1090,94 1109,69 1130,48 1154,31 1163,26 1172,22 1182,18 1192,15 1202,13 1212,11 1223,10 1234,9 1246,9 1258,10 1270,12 1283,14 1296,17 1309,20 1323,25 1337,30 1368,43 1394,57 1418,73 1437,90 1454,108 1467,128 1478,149 1485,171 1490,193 1492,217 1492,241 1490,266 1485,292 1478,318 1469,345 1459,372 1432,394 1405,419 1379,445 1352,472 1327,500 1302,529 1277,559 1254,589 1231,620 1209,650 1188,680 1168,709 1149,737 1132,764 1116,789 1101,813 1104,770 1109,734 1113,709 1115,700 1109,690 1103,681 1097,674 1090,667 1083,662 1075,657 1068,653 1060,649 1061,602 1061,554 1059,505 1056,455 1052,405 1045,356 1037,309 1027,263 1027,263"/>
<polygon class="pen1 brush2" points="1101,851 1102,864 1104,877 1106,890 1108,902 1120,896 1134,889 1149,882 1164,875 1181,867 1199,859 1218,850 1238,842 1259,833 1280,824 1302,815 1325,806 1348,797 1372,788 1396,779 1420,770 1445,762 1470,754 1495,746 1521,739 1546,732 1571,726 1596,720 1621,715 1646,710 1670,707 1694,704 1718,701 1741,700 1764,700 1786,700 1807,702 1836,674 1859,644 1877,613 1888,580 1891,544 1886,504 1870,460 1844,412 1822,381 1799,355 1775,334 1751,318 1726,307 1701,300 1675,298 1648,299 1622,304 1595,312 1568,323 1541,338 1514,354 1487,374 1460,395 1433,418 1407,444 1381,470 1355,498 1330,526 1306,555 1282,585 1260,615 1237,645 1216,674 1196,703 1177,731 1159,758 1143,784 1127,808 1113,831 1101,851 1101,851"/>
<polygon class="pen1 brush2" points="1112,918 1117,929 1122,941 1128,952 1135,962 1163,967 1195,973 1230,981 1266,989 1305,998 1346,1008 1387,1020 1430,1032 1472,1046 1515,1060 1557,1076 1598,1093 1637,1111 1675,1130 1710,1150 1743,1172 1757,1172 1770,1171 1783,1170 1796,1169 1808,1167 1820,1165 1832,1162 1843,1158 1855,1155 1865,1151 1876,1146 1886,1141 1895,1135 1905,1129 1914,1122 1922,1115 1936,1101 1949,1085 1960,1067 1969,1048 1977,1026 1983,1002 1987,976 1989,948 1989,919 1987,892 1982,867 1975,845 1967,825 1957,807 1945,791 1931,777 1914,764 1896,752 1876,743 1854,735 1832,730 1807,726 1782,723 1756,722 1729,723 1700,725 1672,728 1642,732 1613,737 1582,744 1552,751 1522,759 1491,768 1461,777 1430,787 1401,797 1371,807 1343,818 1314,829 1287,840 1261,851 1236,862 1211,872 1189,882 1167,892 1147,901 1129,910 1112,918 1112,918"/>
<polygon class="pen1 brush2" points="1131,976 1157,981 1184,987 1214,993 1245,1000 1277,1008 1310,1017 1344,1026 1378,1036 1413,1046 1447,1058 1482,1070 1516,1083 1550,1096 1583,1111 1614,1126 1645,1142 1674,1158 1701,1176 1726,1194 1750,1213 1770,1233 1788,1254 1804,1275 1816,1298 1824,1321 1830,1345 1831,1370 1829,1396 1822,1423 1811,1451 1795,1479 1774,1509 1755,1531 1737,1550 1718,1566 1698,1579 1679,1590 1659,1598 1640,1603 1620,1606 1600,1607 1580,1606 1560,1602 1540,1597 1519,1589 1499,1580 1479,1569 1459,1557 1447,1522 1431,1485 1413,1449 1393,1412 1371,1375 1347,1338 1322,1302 1296,1267 1269,1232 1242,1198 1215,1166 1189,1135 1163,1106 1139,1079 1115,1054 1094,1031 1100,1023 1105,1015 1110,1007 1115,1000 1120,993 1124,987 1127,981 1131,976 1131,976"/>
<polygon class="pen1 brush2" points="1083,1050 1120,1089 1161,1134 1205,1185 1251,1240 1295,1298 1338,1359 1377,1421 1411,1483 1439,1544 1458,1603 1466,1660 1464,1712 1448,1760 1418,1802 1371,1836 1307,1863 1292,1867 1277,1871 1263,1873 1249,1875 1235,1877 1222,1877 1209,1877 1197,1876 1185,1874 1174,1872 1162,1869 1152,1866 1141,1862 1131,1857 1121,1852 1112,1846 1093,1830 1075,1812 1059,1791 1045,1768 1032,1743 1021,1716 1011,1688 1003,1658 1017,1593 1026,1524 1032,1452 1035,1381 1035,1310 1033,1242 1030,1179 1026,1121 1083,1050 1083,1050"/>
<polygon class="pen1 brush2" points="1003,1108 997,1103 991,1097 984,1089 977,1081 969,1072 961,1064 954,1057 946,1050 932,1075 915,1103 897,1133 876,1166 854,1200 831,1235 806,1271 779,1308 752,1344 723,1380 694,1416 663,1449 633,1481 601,1511 569,1539 537,1563 530,1586 525,1609 521,1631 519,1653 519,1675 521,1696 525,1716 531,1735 539,1754 550,1772 563,1789 578,1805 597,1820 618,1834 642,1847 669,1859 686,1865 702,1870 717,1875 732,1878 746,1880 760,1881 774,1882 787,1881 799,1880 811,1878 822,1875 834,1872 844,1867 855,1863 864,1857 874,1851 903,1826 928,1795 950,1757 968,1715 982,1669 994,1620 1003,1568 1010,1514 1014,1459 1017,1403 1017,1348 1016,1295 1014,1243 1011,1194 1007,1149 1003,1108 1003,1108"/>
<polygon class="pen1 brush2" points="936,1041 925,1061 912,1083 897,1107 882,1133 864,1160 846,1189 827,1219 806,1249 784,1280 762,1311 738,1342 714,1373 689,1403 664,1432 638,1460 611,1487 585,1512 558,1535 530,1556 503,1574 476,1590 448,1603 421,1612 394,1619 368,1621 341,1619 315,1613 290,1603 265,1587 241,1567 218,1541 196,1510 170,1462 155,1417 150,1375 155,1335 168,1298 189,1264 217,1232 250,1202 290,1202 333,1199 376,1193 421,1185 466,1175 512,1163 557,1150 603,1135 647,1120 689,1104 731,1088 770,1072 806,1057 840,1042 871,1028 898,1016 903,1019 908,1022 913,1025 918,1028 923,1031 927,1035 932,1038 936,1041 936,1041"/>
<polygon class="pen1 brush2" points="880,1003 862,1011 843,1020 823,1029 801,1039 778,1049 754,1059 729,1069 702,1080 675,1090 648,1101 619,1111 591,1121 561,1130 532,1140 502,1148 473,1156 443,1164 414,1170 384,1176 356,1181 327,1185 299,1188 272,1189 246,1189 220,1188 196,1186 172,1182 150,1177 130,1169 110,1160 92,1150 76,1137 62,1123 49,1106 39,1087 30,1067 23,1044 18,1019 16,992 16,962 18,935 22,910 27,887 34,866 43,846 53,828 65,812 78,798 93,786 108,775 125,765 143,757 162,750 182,744 203,740 225,737 254,758 287,779 322,798 359,816 397,832 437,848 478,863 520,876 561,889 603,900 644,911 683,921 722,929 759,937 794,943 826,949 822,961 819,970 818,975 817,977 826,979 834,982 842,985 850,988 858,992 865,996 873,999 880,1003 880,1003"/>
<polygon class="pen1 brush2" points="828,939 831,929 835,917 839,905 843,893 847,880 852,866 857,852 862,838 839,815 816,790 791,764 767,737 742,709 718,680 693,650 670,620 647,589 625,558 604,526 585,495 567,463 551,432 537,401 526,371 506,360 487,351 467,344 448,338 428,334 409,332 390,332 371,334 352,338 333,344 314,353 296,364 278,378 260,394 242,413 225,435 206,463 192,491 181,517 174,543 172,567 172,591 177,614 184,636 194,657 207,677 223,697 241,715 261,733 284,750 308,766 334,782 362,797 390,811 420,824 451,837 483,849 515,860 548,871 581,881 613,890 646,899 678,907 710,914 741,921 771,928 800,934 828,939 828,939"/>
<polygon class="pen1 brush2" points="870,821 880,796 890,771 901,747 913,724 925,702 937,683 950,667 962,654 964,653 969,651 976,648 986,646 998,643 1011,642 1026,642 1041,644 1040,562 1037,478 1030,396 1018,317 1000,244 974,181 938,129 892,91 883,86 873,81 863,77 852,73 841,71 829,69 817,67 805,66 792,66 778,67 764,68 750,70 735,73 720,76 704,80 688,85 629,111 584,143 554,181 536,222 529,268 533,316 545,367 566,419 593,473 625,527 662,580 702,633 744,684 787,733 829,779 870,821 870,821"/>
<polygon class="pen1 brush2" points="1104,709 1095,690 1080,675 1061,664 1040,657 1018,654 996,656 977,663 962,675 975,692 991,705 1007,714 1025,720 1044,722 1064,721 1084,717 1104,709 1104,709"/>
<polygon class="pen1 brush2" points="1103,720 1092,724 1080,727 1069,729 1057,731 1045,731 1033,731 1021,730 1010,727 1001,724 992,719 985,714 979,709 973,703 968,696 963,689 958,681 933,714 910,756 889,804 871,852 855,897 844,934 836,960 834,969 853,976 872,984 890,994 907,1005 923,1016 938,1027 952,1039 965,1051 976,1062 987,1073 996,1082 1003,1091 1009,1098 1013,1103 1016,1107 1017,1108 1031,1089 1047,1066 1063,1042 1080,1017 1095,995 1107,977 1115,965 1118,960 1102,934 1093,902 1088,868 1088,833 1090,798 1094,767 1099,740 1103,720"/>
<polygon class="pen1 brush0" points="948,757 950,758 952,759 954,760 956,760 947,785 939,810 932,835 926,859 920,884 915,909 911,934 907,959 905,958 903,957 900,956 898,956 901,931 905,905 910,880 916,855 923,830 930,806 939,781 948,757 948,757"/>
<polygon class="pen1 brush0" points="999,781 1001,781 1003,782 1005,783 1007,783 999,829 991,874 985,920 979,966 977,966 975,966 972,966 970,965 975,919 982,873 990,827 999,781 999,781"/>
<polygon class="pen1 brush0" points="1043,791 1046,791 1048,791 1051,791 1053,791 1055,834 1057,877 1057,920 1057,963 1054,963 1052,963 1049,963 1047,963 1048,920 1047,877 1046,834 1043,791"/>
</g>
</svg>
