<?xml version="1.0" encoding="iso-8859-1"?>
<!DOCTYPE svg PUBLIC "-//W3C//DTD SVG 1.0//EN" "http://www.w3.org/TR/2001/REC-SVG-20010904/DTD/svg10.dtd">
<svg xmlns="http://www.w3.org/2000/svg" xml:space="preserve" width="1in" height="1in" shape-rendering="geometricPrecision" text-rendering="geometricPrecision" image-rendering="optimizeQuality" fill-rule="evenodd"
     viewBox="0 0 1000 1000">
 <g>

  <path d="M1 5l878 0 98 295 -98 0 98 295 -98 0 98 197 -98 0 98 197 -488 -295 98 0 -293 -197 98 0 -293 -296 97 0 -195 -196zm439 0m488 147m0 148m0 148m0 147m0 99m0 98m0 99m-195 -49m-195 -148m-98 -99m-97 -98m-98 -148m-97 -148m-49 -98"/>

 </g>
</svg>
