<?xml version="1.0" encoding="iso-8859-1"?>
<!DOCTYPE svg PUBLIC "-//W3C//DTD SVG 1.0//EN" "http://www.w3.org/TR/2001/REC-SVG-20010904/DTD/svg10.dtd">
<svg xmlns="http://www.w3.org/2000/svg" xml:space="preserve" width="1.1811in" height="1.1811in" style="shape-rendering:geometricPrecision; text-rendering:geometricPrecision; image-rendering:optimizeQuality; fill-rule:evenodd"
     viewBox="0 0 1182 1182">
 <g>

   <path d="M711 775l25 23 24 25 23 29 22 32 20 31 16 34 14 31 9 31 4 30 -1 27 -8 24 -14 21 -22 15 -30 11 -40 3 -49 -2 -25 -3 -23 -3 -22 -1 -21 -1 -22 0 -22 1 -23 2 -26 4 -15 2 -15 1 -15 1 -15 1 -16 0 -15 -2 -15 -2 -14 -4 -14 -4 -13 -7 -10 -8 -10 -11 -8 -11 -5 -15 -4 -17 -1 -19 6 -29 16 -39 23 -45 28 -47 30 -44 30 -37 27 -26 21 -9 2 0 3 1 5 0 6 1 7 2 8 2 9 2 11 2 18 4 19 2 18 -1 18 -1 18 -3 18 -2 18 -1 17 -1 0 0z"/>
   <path d="M191 478l12 4 14 3 16 4 16 3 19 5 18 4 19 6 19 6 18 6 17 8 15 8 14 9 11 11 9 11 5 13 2 14 1 18 1 17 4 14 4 13 6 13 7 13 9 15 10 16 4 15 0 18 -4 19 -9 21 -11 23 -15 24 -19 23 -18 23 -22 23 -21 21 -23 20 -22 17 -21 14 -20 10 -18 7 -17 3 -36 -7 -26 -18 -19 -25 -14 -33 -9 -36 -7 -35 -6 -35 -5 -30 -12 -30 -16 -35 -19 -36 -16 -37 -12 -37 -3 -37 10 -33 26 -30 16 -12 16 -6 16 -5 17 -4 16 0 17 2 18 2 18 2 0 0z"/>
   <path d="M838 533l14 -5 16 -6 17 -6 19 -7 19 -6 20 -7 21 -6 22 -6 21 -5 21 -4 21 -3 20 -1 19 1 19 3 17 4 15 8 19 26 4 40 -4 51 -12 57 -16 61 -16 56 -16 50 -9 38 -8 35 -12 28 -11 23 -15 17 -15 12 -18 7 -17 3 -19 -1 -19 -5 -20 -9 -20 -11 -19 -14 -20 -16 -19 -19 -18 -21 -17 -21 -32 -40 -24 -29 -16 -23 -8 -19 -3 -18 6 -21 13 -28 19 -36 6 -16 4 -20 2 -21 2 -21 5 -19 8 -15 14 -12 20 -3 0 0z"/>
   <path d="M462 594l4 -32 8 -28 14 -25 18 -18 21 -15 23 -12 26 -6 27 -2 25 2 26 7 23 11 21 15 18 20 14 23 8 28 4 32 -4 32 -8 28 -14 23 -18 20 -21 15 -23 11 -26 7 -25 1 -27 -1 -26 -7 -23 -11 -21 -15 -18 -20 -14 -23 -8 -28 -4 -32 0 0z"/>
   <path d="M591 209l1 25 2 29 3 30 0 29 -3 29 -7 24 -12 19 -21 12 -28 11 -23 11 -17 13 -14 12 -11 11 -9 12 -7 9 -7 9 -8 7 -9 5 -12 3 -15 0 -19 -3 -24 -7 -31 -10 -37 -14 -28 -12 -27 -13 -25 -12 -23 -14 -21 -14 -18 -16 -14 -15 -10 -17 -6 -17 -2 -17 5 -19 9 -20 15 -18 22 -21 29 -21 36 -21 17 -9 16 -9 15 -10 13 -8 12 -8 10 -7 8 -7 7 -6 23 -22 24 -19 24 -18 23 -16 23 -11 22 -10 21 -4 20 -3 18 4 18 7 15 13 13 17 10 22 7 29 6 35 1 41 0 0 0 0z"/>
   <path d="M622 376l-1 -43 -2 -51 -1 -56 3 -56 12 -51 21 -42 34 -29 50 -10 21 3 21 8 21 14 19 15 20 19 17 17 17 17 14 13 11 11 14 9 15 9 16 11 17 9 18 9 17 11 18 10 16 11 16 11 14 12 13 13 10 14 8 15 5 15 2 17 -3 20 -9 19 -14 20 -19 19 -23 18 -25 18 -28 16 -29 14 -29 11 -30 10 -29 7 -27 2 -24 0 -22 -5 -19 -8 -13 -14 -12 -14 -19 -15 -22 -14 -23 -14 -21 -13 -18 -12 -13 -11 -5 -9 0 0 0 0z"/>

  </g>
</svg>
