<?xml version="1.0" encoding="iso-8859-1"?>
<!DOCTYPE svg PUBLIC "-//W3C//DTD SVG 1.0//EN" "http://www.w3.org/TR/2001/REC-SVG-20010904/DTD/svg10.dtd">
<svg xmlns="http://www.w3.org/2000/svg" xml:space="preserve" width="1in" height="1in" shape-rendering="geometricPrecision" text-rendering="geometricPrecision" image-rendering="optimizeQuality" fill-rule="evenodd"
     viewBox="0 0 1000 1000">
<g>
 
  <path d="M617 704l20 -7 21 -3 20 0 20 3 20 6 19 9 18 11 17 12 13 10 10 11 6 11 3 13 0 12 -3 12 -5 12 -7 11 -9 11 -11 10 -12 8 -12 6 -14 5 -13 2 -14 0 -14 -2 -14 -7 -14 -9 -12 -13 -11 -17 -9 -23 -7 -26 -4 -31 -2 -37 0 0z"/>
   <path d="M237 514l-220 0 0 0 0 0 0 0 1 0 12 20 14 17 15 13 17 10 19 7 20 5 20 3 22 1 22 0 22 -1 22 -1 22 -2 22 -1 22 -1 20 0 20 2 14 34 1 35 -7 37 -13 37 -14 37 -12 37 -6 36 3 36 4 16 6 17 9 14 11 14 12 13 13 11 15 10 15 9 18 7 19 6 18 4 18 1 16 -1 15 -4 14 -6 13 -8 38 -29 
23 -37 11 -41 2 -45 -4 -48 -6 -47 -5 -46 -1 -44 17 -20 17 -15 20 -9 20 -5 21 -2 22 2 23 4 23 6 23 6 23 6 23 5 22 4 23 1 21 -1 20 -6 20 -10 10 -7 10 -9 8 -9 9 -9 7 -11 7 -11 7 -10 6 -11 2 -4 3 -5 2 -4 1 -3 -130 0 -9 13 -13 8 -18 4 -21 1 -24 -1 -26 -3 -28 -3 -29 -3 -29 0 -28 2 -28 6 -26 9 -24 17 -21 22 -17 29 -14 39 -47 144 -18 -27 -11 -30 -5 -33 -3 -34 -3 -34 -5 -34 -11 -33 -18 -33 -9 -1 -12 -2 -16 -2 -19 -3 -19 -4 -21 -4 -20 -5 -20 -5 0 0z"/>
   <path d="M31 710l6 -12 7 -12 9 -10 10 -8 11 -7 12 -7 12 -5 14 -4 13 -3 14 -2 14 -2 14 -1 14 -1 14 0 13 0 12 0 10 17 4 18 0 20 -5 21 -7 21 -9 23 -10 21 -10 21 -15 15 -17 10 -16 4 -17 2 -16 -2 -15 -6 -15 -10 -13 -12 -9 -8 -8 -10 -9 -11 -6 -11 -6 -12 -3 -13 0 -11 3 -13z"/>
   <path d="M850 481l-3 -11 -6 -10 -7 -7 -10 -5 -11 -4 -12 -3 -14 -2 -14 -1 -15 0 -16 0 -15 1 -16 1 -14 1 -15 0 -13 0 -12 0 -39 -17 -30 -26 -24 -33 -17 -37 -13 -40 -10 -39 -6 -35 -6 -28 -7 -1 -8 -1 -6 0 -7 -1 -6 0 -7 0 -8 0 -9 0 24 245 -11 21 -13 16 -15 12 -16 7 -18 5 -18 2 -20 0 -20 -3 -20 -3 -21 -4 -20 -5 -21 -6 -20 -4 -19 -4 -19 -3 -18 0 -3 9 0 8 3 8 6 6 8 7 9 6 12 6 13 5 
-220 0 -7 -20 -3 -17 0 -17 3 -15 2 -10 3 -9 4 -8 5 -8 5 -8 7 -7 7 -6 8 -6 8 -5 9 -5 9 -4 9 -4 10 -3 10 -2 11 0 10 -1 11 0 11 0 11 1 11 2 11 3 11 4 11 4 10 6 11 6 13 6 14 8 15 8 16 8 16 7 17 6 17 5 17 4 16 2 16 0 14 -3 13 -6 12 -9 10 -13 8 -17 0 -18 -4 -15 -7 -14 -9 -13 -11 -12 -13 -11 -14 -10 -14 -11 -15 -11 -15 -10 -13 -12 -13 -13 -11 -12 -9 -16 -6 -15 -4 -19 5 -27 10 -25 15 -22 18 -20 22 -18 23 -18 23 -15 24 -16 10 -4 11 -4 12 -3 
12 -2 13 -1 12 -1 14 1 13 2 12 2 11 3 11 5 11 4 9 7 8 8 7 8 5 9 11 41 4 44 -1 45 -1 47 3 43 10 42 21 36 36 29 13 0 14 0 14 -1 14 -3 15 -2 14 -3 15 -3 15 -3 14 -4 15 -2 15 -2 14 -2 14 -2 14 -1 13 1 13 1 15 2 14 5 13 6 13 10 11 12 10 15 8 19 7 21 1 18 -1 19 -5 17 -8 17 -130 0 1 -8 1 -8 0 -9 -1 -8 0 0z"/>
   <path d="M289 354l23 -2 14 -7 6 -11 -1 -13 -7 -17 -12 -17 -16 -19 -19 -17 -21 -17 -22 -16 -23 -13 -21 -8 -20 -6 -18 0 -13 6 -9 12 -2 8 -2 7 -1 8 0 7 1 8 3 8 4 8 6 8 9 9 11 9 14 9 16 10 20 11 23 10 27 12 30 13 0 0z"/>
   <path d="M768 314l22 -2 21 -7 19 -9 17 -13 14 -16 13 -18 11 -19 8 -22 7 -32 1 -32 -4 -31 -10 -28 -22 -4 -21 -1 -21 0 -21 1 -19 4 -19 6 -18 7 -16 9 -14 9 -13 12 -10 12 -9 13 -5 15 -4 14 0 17 3 16 7 10 8 10 9 10 11 13 11 12 14 14 14 14 16 16z"/>

 </g>
</svg>
