<?xml version="1.0" encoding="iso-8859-1"?>
<!DOCTYPE svg PUBLIC "-//W3C//DTD SVG 1.0//EN" "http://www.w3.org/TR/2001/REC-SVG-20010904/DTD/svg10.dtd">
<svg xmlns="http://www.w3.org/2000/svg" xml:space="preserve" width="1in" height="1in" shape-rendering="geometricPrecision" text-rendering="geometricPrecision" image-rendering="optimizeQuality" fill-rule="evenodd"
     viewBox="0 0 1000 1000">
 <g>

  <path d="M189 977l-10 -10 -8 -10 -6 -12 -3 -14 -2 -14 1 -14 3 -16 4 -16 9 -26 13 -27 17 -28 17 -27 20 -29 21 -28 24 -27 23 -28 23 -26 24 -25 22 -24 21 -21 21 -20 18 -17 15 -14 13 -11 -13 -16 -16 -19 -16 -18 -19 -20 -20 -21 -20 -21 -20 -22 -21 -23 -21 -23 -20 -23 -20 -23 -18 -23 -18 -22 -15 -23 -15 -22 -12 -21 -10 -21 -7 -19 -4 -19
 -1 -17 2 -17 6 -15 10 -14 14 -11 15 -8 15 -5 14 -2 15 2 14 4 16 6 14 9 14 11 21 20 20 26 20 27 18 31 18 31 17 34 15 33 13 34 13 32 12 30 9 30 7 25 6 24 3 18 2 13 -1 8 7 -20 8 -22 8 -25 11 -26 10 -28 11 -28 12 -29 12 -30 13 -28 14 -29 14 -28 14 -27 15 -24 15 -23 16 -21 15 -18 13 -11 12 -10 14 -7 13 -5 13 -3 12 0 13 3 12 6 14 12 8 15 
4 19 -1 22 -6 25 -10 28 -14 28 -17 30 -19 32 -21 31 -24 32 -23 30 -25 30 -24 28 -22 27 -23 23 -19 21 -17 18 -14 14 -10 9 9 7 11 9 13 12 15 13 18 17 18 17 19 19 20 21 21 22 20 22 20 25 21 24 18 25 17 26 15 26 15 27 12 28 9 26 6 26 2 24 -2 21 -7 20 -12 16 -18 13 -17 8 -18 4 -16 0 -18 -4 -16 -7 -15 -10 -15 -13 -16 -15 -16 -20 -16 -21 -14 
-23 -15 -25 -14 -25 -13 -27 -12 -27 -11 -26 -11 -27 -11 -26 -8 -24 -8 -24 -7 -20 -6 -19 -5 -17 -4 -13 -4 10 -5 15 -7 16 -7 20 -10 21 -10 25 -11 25 -11 27 -13 27 -13 27 -15 28 -14 26 -15 27 -16 23 -17 22 -16 21 -15 16 -15 13 -16 10 -16 7 -15 4 -16 0 -15 -4 -16 -8z"/>

 </g>
</svg>
