<?xml version="1.0" encoding="UTF-8" standalone="no"?>
<!DOCTYPE svg PUBLIC "-//W3C//DTD SVG 1.0//EN" "http://www.w3.org/TR/2001/REC-SVG-20010904/DTD/svg10.dtd">
<svg xmlns="http://www.w3.org/2000/svg" xmlns:xlink="http://www.w3.org/1999/xlink" fill-rule="evenodd" height="1.448in" preserveAspectRatio="none" stroke-linecap="round" viewBox="0 0 2489 1448" width="2.489in">
<style type="text/css">
.brush0 { fill: rgb(255,255,255); }
.pen0 { stroke: rgb(0,0,0); stroke-width: 1; stroke-linejoin: round; }
.brush1 { fill: none; }
.pen1 { stroke: none; }
.brush2 { fill: rgb(0,0,0); }
</style>
<g>
<polygon class="pen1 brush2" points="2372,1448 2297,1334 233,1334 233,1306 448,1089 448,971 116,971 116,481 448,481 448,364 233,147 233,63 116,0 116,189 289,364 0,364 0,1089 289,1089 116,1264 116,1448 2372,1448 2372,1448"/>
<polygon class="pen1 brush2" points="116,0 192,118 2255,118 2255,147 2041,364 2041,481 2372,481 2372,971 2041,971 2041,1089 2255,1306 2255,1390 2372,1448 2372,1264 2200,1089 2489,1089 2489,364 2200,364 2372,189 2372,0 116,0 116,0"/>
<polygon class="pen1 brush2" points="1482,726 1479,692 1471,659 1461,627 1445,597 1424,571 1402,547 1376,527 1346,511 1315,500 1283,492 1249,489 1217,490 1185,498 1154,510 1124,525 1096,544 1073,567 1053,594 1036,625 1024,656 1017,687 1014,721 1015,755 1023,789 1033,820 1048,850 1067,877 1090,901 1117,922 1145,940 1176,952 1208,961 1240,963 1274,963 1307,956 1338,944 1367,930 1395,909 1418,887 1441,860 1457,833 1470,800 1477,768 1482,735 1482,726 1482,726"/>
<polygon class="pen1 brush2" points="295,780 295,660 2200,660 2200,780 295,780 295,780"/>
<polygon class="pen1 brush2" points="233,844 233,606 350,606 350,844 233,844 233,844"/>
<polygon class="pen1 brush2" points="592,901 592,552 710,552 710,901 592,901 592,901"/>
<polygon class="pen1 brush2" points="2254,844 2254,606 2137,606 2137,844 2254,844 2254,844"/>
<polygon class="pen1 brush2" points="1895,901 1895,552 1777,552 1777,901 1895,901 1895,901"/>
</g>
</svg>
