<?xml version="1.0" encoding="UTF-8" standalone="no"?>
<!DOCTYPE svg PUBLIC "-//W3C//DTD SVG 1.0//EN" "http://www.w3.org/TR/2001/REC-SVG-20010904/DTD/svg10.dtd">
<svg xmlns="http://www.w3.org/2000/svg" xmlns:xlink="http://www.w3.org/1999/xlink" fill-rule="evenodd" height="1.788in" preserveAspectRatio="none" stroke-linecap="round" viewBox="0 0 1695 1788" width="1.695in">
<style type="text/css">
.brush0 { fill: rgb(255,255,255); }
.pen0 { stroke: rgb(0,0,0); stroke-width: 1; stroke-linejoin: round; }
.brush1 { fill: none; }
.pen1 { stroke: none; }
.brush2 { fill: rgb(0,0,0); }
</style>
<g>
<polygon class="pen1 brush0" points="166,73 167,67 167,62 164,57 160,53 154,52 149,53 144,55 140,59 132,71 126,84 126,99 135,119 136,122 139,125 142,127 145,127 148,126 151,123 152,121 153,117 154,112 156,100 160,86 166,73"/>
<polygon class="pen1 brush2" points="1042,1557 1057,1536 1074,1516 1090,1497 1107,1478 1123,1458 1138,1438 1153,1417 1166,1395 1172,1390 1179,1387 1186,1388 1193,1391 1198,1397 1201,1404 1200,1411 1197,1418 1180,1440 1162,1460 1143,1480 1123,1498 1103,1517 1082,1535 1062,1554 1043,1573 1041,1577 1038,1581 1034,1584 1030,1587 1025,1588 1021,1589 1016,1588 1012,1587 1008,1585 1004,1582 1001,1579 999,1575 989,1559 978,1543 967,1528 954,1514 941,1501 926,1491 910,1484 893,1480 881,1479 869,1479 857,1479 844,1480 832,1482 819,1485 807,1488 795,1492 783,1496 771,1501 759,1506 748,1511 738,1517 728,1522 719,1528 710,1533 706,1530 705,1524 706,1518 708,1514 717,1504 727,1495 737,1486 748,1478 759,1471 770,1464 782,1458 794,1452 806,1448 818,1444 831,1440 843,1437 856,1435 868,1434 881,1433 893,1433 919,1437 943,1444 966,1456 987,1472 1005,1490 1020,1511 1033,1533 1042,1557"/>
<polygon class="pen1 brush2" points="770,1426 788,1415 804,1402 819,1386 834,1370 848,1355 863,1342 879,1332 897,1327 911,1326 926,1326 940,1326 954,1328 968,1330 982,1334 996,1338 1010,1343 1024,1348 1037,1354 1051,1361 1064,1369 1077,1377 1089,1385 1101,1394 1113,1404 1116,1407 1120,1409 1124,1410 1128,1411 1132,1410 1136,1409 1140,1407 1143,1404 1148,1397 1150,1389 1148,1381 1143,1374 1130,1361 1116,1348 1100,1336 1084,1325 1067,1314 1049,1305 1030,1297 1012,1290 993,1285 973,1281 954,1279 935,1279 916,1280 898,1283 880,1288 863,1296 845,1307 829,1322 815,1338 802,1356 788,1374 775,1393 759,1411 741,1428 747,1431 755,1431 763,1429 770,1426"/>
<polygon class="pen1 brush2" points="564,1631 564,1638 567,1645 572,1650 579,1652 582,1652 592,1654 607,1655 628,1658 653,1660 681,1664 713,1667 747,1671 782,1675 819,1679 856,1682 893,1686 929,1690 964,1693 996,1696 1026,1698 1032,1697 1038,1695 1044,1691 1051,1686 1056,1680 1060,1675 1063,1669 1064,1665 1061,1656 1054,1646 1046,1639 1041,1636 1036,1636 1023,1635 1002,1634 975,1633 942,1631 906,1629 868,1627 828,1625 788,1623 750,1621 714,1620 681,1618 654,1616 632,1615 618,1614 613,1614 618,1604 622,1594 625,1584 626,1576 620,1577 612,1582 602,1590 591,1600 581,1611 572,1620 566,1628 564,1631"/>
<polygon class="pen1 brush2" points="932,1771 942,1772 951,1774 961,1777 970,1779 979,1781 989,1784 998,1786 1008,1787 1018,1786 1027,1781 1033,1773 1036,1763 1035,1752 1030,1743 1022,1737 1011,1734 1009,1734 1005,1733 999,1732 991,1731 982,1730 972,1729 963,1728 955,1728 932,1728 907,1727 880,1725 853,1723 824,1720 796,1717 768,1714 741,1711 716,1708 692,1706 670,1704 651,1703 636,1702 624,1703 616,1704 613,1707 621,1712 633,1717 647,1722 663,1727 681,1731 701,1736 723,1740 745,1745 769,1749 792,1753 817,1756 841,1760 865,1763 888,1766 911,1769 932,1771"/>
<polygon class="pen1 brush2" points="1104,1765 1116,1754 1130,1741 1145,1727 1162,1712 1179,1696 1198,1680 1217,1663 1236,1646 1255,1630 1274,1614 1293,1598 1312,1583 1329,1570 1346,1557 1361,1546 1375,1537 1385,1525 1393,1507 1399,1487 1398,1474 1395,1470 1391,1467 1387,1464 1383,1462 1378,1462 1373,1462 1368,1463 1364,1465 1361,1467 1354,1473 1343,1483 1328,1496 1310,1512 1290,1530 1268,1549 1245,1571 1222,1593 1199,1615 1177,1638 1156,1660 1138,1682 1122,1702 1110,1721 1101,1737 1097,1731 1092,1721 1088,1708 1085,1694 1085,1691 1084,1689 1082,1688 1079,1687 1076,1688 1074,1689 1073,1691 1072,1694 1070,1696 1066,1701 1062,1708 1058,1717 1057,1727 1060,1739 1069,1750 1085,1761 1089,1765 1094,1767 1099,1767 1104,1765"/>
<polygon class="pen1 brush2" points="1305,1386 1292,1385 1278,1383 1265,1381 1252,1379 1238,1377 1225,1375 1211,1375 1198,1375 1191,1374 1185,1370 1181,1364 1180,1357 1181,1350 1185,1344 1191,1340 1198,1339 1214,1339 1231,1340 1247,1342 1263,1345 1279,1351 1293,1358 1306,1367 1317,1378 1321,1377 1325,1376 1329,1376 1333,1376 1337,1377 1341,1378 1344,1380 1347,1382 1351,1390 1348,1399 1341,1408 1332,1417 1314,1431 1297,1446 1280,1460 1265,1476 1250,1491 1236,1507 1222,1523 1209,1539 1195,1555 1182,1571 1168,1587 1154,1603 1139,1619 1124,1635 1107,1651 1090,1667 1091,1663 1093,1654 1095,1645 1096,1641 1108,1621 1122,1600 1137,1578 1154,1556 1171,1535 1188,1514 1206,1493 1223,1474 1239,1455 1254,1439 1268,1424 1281,1411 1291,1400 1298,1393 1303,1388 1305,1386"/>
<polygon class="pen1 brush2" points="635,1459 633,1459 628,1461 621,1464 614,1467 606,1470 600,1472 596,1474 594,1475 584,1484 573,1493 562,1502 551,1511 542,1522 535,1534 532,1547 533,1563 533,1571 537,1577 542,1582 549,1584 557,1584 563,1580 567,1575 570,1567 575,1554 583,1540 593,1527 605,1515 615,1504 624,1496 631,1491 633,1489 650,1494 653,1493 658,1490 663,1487 666,1483 665,1475 662,1470 657,1465 651,1462 645,1461 640,1460 636,1459 635,1459"/>
<polygon class="pen1 brush2" points="600,1020 590,968 579,917 567,865 556,813 544,761 532,709 520,658 508,606 492,549 471,488 447,425 422,365 397,311 376,266 359,234 350,219 344,235 342,252 345,272 350,293 357,314 366,335 375,355 384,374 402,413 418,453 433,493 446,533 459,574 470,615 481,656 491,697 500,739 509,780 517,822 525,864 533,906 540,948 548,989 556,1031 560,1052 567,1092 578,1145 591,1204 605,1265 619,1323 632,1370 643,1403 646,1408 651,1411 656,1413 662,1413 667,1409 672,1402 676,1391 678,1375 676,1350 670,1314 659,1271 647,1223 633,1171 620,1118 609,1067 600,1020"/>
<polygon class="pen1 brush2" points="543,1109 559,1170 573,1226 586,1277 598,1321 607,1357 613,1385 618,1402 619,1408 617,1420 611,1423 605,1420 601,1417 575,1354 551,1291 528,1227 506,1163 485,1098 466,1033 447,968 429,902 411,836 394,770 376,703 359,636 342,569 325,501 307,433 289,364 285,348 282,333 279,319 276,304 272,290 267,274 261,258 252,241 237,252 222,262 209,272 196,281 185,289 175,295 168,300 162,303 164,299 167,293 173,285 180,277 188,267 198,257 208,246 220,235 232,224 245,213 259,202 272,192 286,183 300,175 313,168 326,162 331,160 336,160 341,163 345,167 347,173 347,178 345,183 341,187 336,190 330,193 325,196 319,199 313,202 307,205 301,209 295,212 306,227 320,261 335,310 352,369 368,434 385,500 400,563 414,618 426,664 439,712 452,762 467,813 481,866 496,920 511,975 525,1030 543,1109"/>
<polygon class="pen1 brush2" points="193,1245 195,1285 201,1327 212,1369 228,1409 249,1445 276,1476 309,1500 349,1515 365,1517 380,1518 396,1516 411,1513 425,1508 439,1501 453,1493 465,1484 476,1473 486,1461 494,1449 501,1435 506,1421 509,1406 509,1390 508,1374 498,1308 487,1243 474,1178 460,1115 442,1052 420,990 394,930 363,871 357,862 351,853 345,844 339,832 333,819 327,803 321,783 316,758 314,740 316,708 315,684 308,689 296,728 291,769 291,804 294,825 300,844 305,860 312,875 322,893 353,948 376,1005 394,1064 407,1124 417,1186 425,1247 434,1309 444,1371 445,1389 441,1405 433,1419 423,1432 409,1441 395,1448 378,1450 362,1449 339,1440 321,1425 308,1406 299,1383 292,1358 287,1332 283,1306 278,1282 256,1173 237,1046 222,908 211,767 205,630 205,504 212,398 225,319 216,331 207,343 199,355 191,367 184,378 179,389 175,400 173,411 164,452 162,527 164,630 170,750 177,880 185,1012 190,1136 193,1245"/>
<polygon class="pen1 brush2" points="1611,1076 1591,1084 1572,1093 1553,1102 1534,1112 1516,1122 1497,1132 1479,1142 1461,1153 1443,1164 1425,1175 1408,1187 1390,1198 1373,1210 1356,1222 1339,1235 1322,1247 1317,1252 1315,1259 1315,1266 1317,1272 1322,1277 1329,1279 1336,1279 1342,1276 1358,1266 1373,1257 1389,1247 1404,1237 1419,1226 1434,1216 1449,1206 1463,1196 1477,1187 1490,1177 1503,1168 1515,1160 1527,1152 1538,1144 1548,1137 1557,1131 1565,1126 1575,1119 1586,1111 1599,1102 1611,1094 1621,1087 1630,1081 1635,1077 1633,1073 1626,1073 1617,1074 1611,1076"/>
<polygon class="pen1 brush2" points="1438,1351 1431,1354 1427,1359 1424,1366 1424,1373 1427,1380 1432,1384 1439,1387 1446,1387 1462,1384 1479,1382 1497,1379 1515,1375 1534,1372 1552,1368 1571,1365 1589,1361 1606,1358 1623,1354 1639,1351 1653,1348 1666,1345 1678,1342 1687,1340 1695,1338 1692,1336 1686,1334 1677,1333 1665,1332 1651,1332 1635,1333 1617,1334 1597,1335 1577,1336 1556,1338 1535,1340 1514,1342 1493,1344 1474,1347 1455,1349 1438,1351"/>
<polygon class="pen1 brush2" points="1448,1602 1444,1600 1439,1599 1435,1599 1430,1600 1426,1602 1422,1605 1418,1608 1415,1612 1412,1621 1413,1631 1418,1639 1425,1646 1441,1654 1459,1663 1478,1672 1498,1681 1518,1690 1539,1698 1560,1707 1580,1715 1599,1722 1617,1729 1634,1734 1649,1738 1662,1741 1672,1743 1679,1743 1683,1741 1678,1735 1670,1729 1660,1722 1648,1715 1634,1707 1619,1699 1602,1690 1585,1682 1567,1673 1549,1663 1530,1653 1512,1644 1495,1633 1478,1623 1462,1613 1448,1602"/>
<polygon class="pen1 brush2" points="26,24 27,19 25,15 22,13 18,12 13,14 10,19 8,26 7,32 8,45 8,58 11,69 18,73 19,63 20,51 22,38 26,24"/>
<polygon class="pen1 brush2" points="245,125 249,130 253,135 257,140 261,145 264,150 268,153 274,154 279,154 284,151 288,146 289,141 288,135 285,126 280,117 271,106 261,95 249,84 235,73 220,62 204,51 188,41 170,32 153,23 136,15 120,9 104,4 90,1 77,0 73,0 70,1 67,2 65,5 65,9 68,13 71,17 73,19 78,21 84,24 89,26 95,28 100,30 106,33 111,35 117,38 110,50 107,63 106,78 107,97 108,100 111,103 114,104 118,104 121,103 123,101 124,99 125,95 126,90 128,78 132,63 138,50 150,56 161,62 173,69 184,75 195,82 206,90 216,98 226,106 219,108 212,112 205,117 199,122 194,129 191,136 191,145 193,154 197,156 205,157 213,158 216,157 216,153 219,144 225,137 237,137 239,135 241,131 244,128 245,125"/>
<polygon class="pen1 brush2" points="209,185 198,176 186,166 175,157 165,148 153,139 142,131 130,123 117,116 106,111 94,106 83,101 72,96 60,92 49,88 37,85 25,82 13,83 7,90 8,99 17,106 29,110 41,114 53,118 65,122 77,126 89,131 100,137 112,143 123,150 133,156 144,163 154,170 164,177 174,184 185,191 195,199 198,201 201,203 206,206 210,208 214,210 219,211 222,211 225,210 226,204 222,197 216,191 209,185"/>
</g>
</svg>
