<?xml version="1.0" encoding="UTF-8" standalone="no"?>
<!DOCTYPE svg PUBLIC "-//W3C//DTD SVG 1.0//EN" "http://www.w3.org/TR/2001/REC-SVG-20010904/DTD/svg10.dtd">
<svg xmlns="http://www.w3.org/2000/svg" xmlns:xlink="http://www.w3.org/1999/xlink" fill-rule="evenodd" height="1.789in" preserveAspectRatio="none" stroke-linecap="round" viewBox="0 0 1200 1789" width="1.2in">
<style type="text/css">
.brush0 { fill: rgb(255,255,255); }
.pen0 { stroke: rgb(0,0,0); stroke-width: 1; stroke-linejoin: round; }
.brush1 { fill: none; }
.pen1 { stroke: none; }
.brush2 { fill: rgb(0,0,0); }
</style>
<g>
<polygon class="pen1 brush2" points="560,522 560,600 319,600 319,1391 241,1391 241,1593 319,1593 319,1469 620,1469 620,1391 403,1391 403,682 620,682 620,522 560,522 560,522"/>
<polygon class="pen1 brush2" points="645,522 645,600 886,600 886,1391 964,1391 964,1593 886,1593 886,1469 585,1469 585,1391 802,1391 802,682 585,682 585,522 645,522 645,522"/>
<polygon class="pen1 brush2" points="985,1789 1011,1784 1038,1776 1064,1766 1088,1753 1111,1737 1130,1718 1149,1698 1164,1675 1178,1651 1188,1626 1195,1599 1198,1572 1200,1552 1113,1580 1107,1601 1099,1622 1088,1640 1074,1658 1058,1672 1039,1685 1019,1696 999,1703 976,1706 222,1706 201,1703 179,1696 160,1685 141,1672 125,1658 112,1640 100,1622 92,1601 86,1580 0,1552 1,1572 5,1599 12,1626 22,1651 35,1675 51,1698 69,1718 89,1737 112,1753 135,1766 161,1776 188,1784 214,1789 985,1789 985,1789"/>
<polygon class="pen1 brush2" points="1200,1552 1140,1629 61,1629 0,1552 1200,1552 1200,1552"/>
<polygon class="pen1 brush2" points="613,0 688,114 672,156 648,189 620,218 589,246 558,270 523,308 506,344 505,388 516,425 535,451 558,465 579,474 614,474 614,551 561,551 529,540 502,529 473,508 450,479 433,444 424,406 422,363 433,317 450,279 475,243 502,212 541,180 571,156 589,133 603,112 613,89 618,67 620,45 618,25 613,0 613,0"/>
<polygon class="pen1 brush2" points="613,0 655,153 680,192 699,227 712,261 721,296 723,325 725,354 719,382 706,413 686,439 663,455 646,465 631,470 614,474 584,474 584,553 637,553 674,544 702,528 728,508 749,487 766,462 781,437 792,400 798,365 800,340 798,315 792,281 783,243 766,199 742,149 717,112 688,74 655,38 613,0 613,0"/>
</g>
</svg>
