<?xml version="1.0" encoding="UTF-8" standalone="no"?>
<!DOCTYPE svg PUBLIC "-//W3C//DTD SVG 1.0//EN" "http://www.w3.org/TR/2001/REC-SVG-20010904/DTD/svg10.dtd">
<svg xmlns="http://www.w3.org/2000/svg" xmlns:xlink="http://www.w3.org/1999/xlink" fill-rule="evenodd" height="1.332in" preserveAspectRatio="none" stroke-linecap="round" viewBox="0 0 2483 1332" width="2.483in">
<style type="text/css">
.brush0 { fill: rgb(255,255,255); }
.pen0 { stroke: rgb(0,0,0); stroke-width: 1; stroke-linejoin: round; }
.brush1 { fill: none; }
.pen1 { stroke: none; }
.brush2 { fill: rgb(0,0,0); }
</style>
<g>
<polygon class="pen1 brush2" points="935,281 821,281 821,1115 606,1115 606,392 613,360 623,326 634,298 651,269 670,239 690,215 714,191 740,171 769,152 797,137 828,124 859,117 892,111 925,108 992,109 1042,0 883,0 838,8 797,19 755,36 717,57 680,80 644,108 613,140 585,173 561,211 539,249 522,289 509,332 501,376 499,1224 935,1224 935,281 935,281"/>
<polygon class="pen1 brush2" points="1042,0 1042,332 714,332 714,115 821,63 821,223 935,223 935,52 1042,0 1042,0"/>
<polygon class="pen1 brush2" points="1263,109 1308,113 1340,119 1372,128 1402,140 1432,156 1460,173 1486,194 1509,217 1529,243 1549,271 1565,300 1578,330 1587,363 1594,395 1591,441 2414,441 2483,332 1693,332 1677,292 1661,252 1639,213 1615,176 1587,143 1555,111 1520,83 1483,60 1445,39 1404,22 1361,11 1318,2 1157,2 1156,1224 1042,1224 1042,1332 2040,1332 2040,1224 1263,1224 1263,109 1263,109"/>
<polygon class="pen1 brush2" points="2369,396 2369,460 2357,530 2338,587 2294,656 2237,715 2135,778 2029,823 1952,842 1820,842 1820,1275 1927,1275 1927,950 1952,950 2047,931 2142,899 2249,842 2345,772 2407,695 2446,632 2470,561 2483,491 2483,434 2483,332 2369,396 2369,396"/>
<polygon class="pen1 brush2" points="879,1109 879,1002 1869,1002 1869,1109 879,1109 879,1109"/>
<polygon class="pen1 brush2" points="879,887 879,778 1212,778 1212,887 879,887 879,887"/>
<polygon class="pen1 brush2" points="1212,223 1376,223 1376,71 1484,115 1484,332 1212,332 1212,223 1212,223"/>
<polygon class="pen1 brush2" points="1484,1058 1484,887 1422,887 1422,924 1340,924 1340,778 1422,778 1422,816 1484,816 1484,740 1598,740 1598,816 1661,816 1661,778 1744,778 1744,924 1661,924 1661,887 1598,887 1598,1058 1484,1058 1484,1058"/>
<polygon class="pen1 brush2" points="898,567 936,528 975,567 1012,528 1050,567 1087,528 1125,567 1162,528 1202,567 1202,648 1162,687 1125,648 1087,687 1050,648 1012,687 975,648 936,687 898,648 898,567 898,567"/>
<polygon class="pen1 brush2" points="555,441 271,441 271,778 555,778 555,669 379,669 379,549 555,549 555,441 555,441"/>
<polygon class="pen1 brush2" points="202,269 200,247 192,228 183,208 168,193 151,180 132,171 112,167 91,167 71,171 52,178 33,191 20,206 9,224 2,245 0,266 1,287 7,308 17,326 31,343 47,356 67,365 87,370 108,370 129,365 149,359 165,346 180,331 191,313 198,292 202,271 202,269 202,269"/>
<polygon class="pen1 brush2" points="202,949 200,927 192,908 183,888 168,873 151,860 132,850 112,846 91,846 71,850 52,859 33,871 20,887 9,904 2,925 0,946 1,967 7,988 17,1007 31,1022 47,1036 67,1045 87,1050 108,1050 129,1046 149,1039 165,1026 180,1011 191,993 198,973 202,952 202,949 202,949"/>
<polygon class="pen1 brush2" points="328,549 157,549 157,262 50,262 50,549 0,549 0,663 50,663 50,950 157,950 157,663 328,663 328,549 328,549"/>
</g>
</svg>
