<?xml version="1.0" encoding="UTF-8" standalone="no"?>
<!DOCTYPE svg PUBLIC "-//W3C//DTD SVG 1.0//EN" "http://www.w3.org/TR/2001/REC-SVG-20010904/DTD/svg10.dtd">
<svg xmlns="http://www.w3.org/2000/svg" xmlns:xlink="http://www.w3.org/1999/xlink" fill-rule="evenodd" height="1.896in" preserveAspectRatio="none" stroke-linecap="round" viewBox="0 0 1447 1896" width="1.447in">
<style type="text/css">
.brush0 { fill: rgb(255,255,255); }
.pen0 { stroke: rgb(0,0,0); stroke-width: 1; stroke-linejoin: round; }
.brush1 { fill: none; }
.pen1 { stroke: none; }
.brush2 { fill: rgb(0,0,0); }
</style>
<g>
<polygon class="pen1 brush2" points="45,1896 90,1675 1097,1675 1140,1896 1053,1896 1024,1763 159,1763 133,1896 45,1896 45,1896"/>
<polygon class="pen1 brush2" points="45,1896 1097,1896 1097,1807 133,1807 45,1896 45,1896"/>
<polygon class="pen1 brush2" points="2,969 965,969 965,882 2,882 2,969 2,969"/>
<polygon class="pen1 brush2" points="1447,0 1447,882 1097,882 1097,794 1360,794 1360,89 1053,89 1053,131 1053,706 965,706 965,132 922,132 922,0 965,0 1447,0 1447,0"/>
<polygon class="pen1 brush2" points="922,838 922,749 834,749 834,882 922,882 922,838 922,838"/>
<polygon class="pen1 brush2" points="922,749 90,749 90,838 922,838 922,749 922,749"/>
<polygon class="pen1 brush2" points="1097,882 1100,897 1101,912 1103,942 1102,958 1101,973 1100,980 1100,988 1099,995 1097,1003 1096,1010 1095,1015 1095,1018 1094,1022 1093,1025 1091,1029 1090,1033 1090,1036 1089,1041 1088,1044 1086,1047 1085,1051 1084,1055 1083,1058 1081,1062 1080,1066 1079,1069 1078,1073 1076,1077 1075,1080 1073,1083 1071,1088 1070,1091 1069,1094 1067,1098 1065,1101 1064,1104 1062,1108 1060,1111 1058,1115 1056,1119 1055,1122 1052,1125 1050,1128 1049,1131 1046,1134 1044,1138 1042,1141 1040,1145 1038,1148 1036,1151 1034,1154 1032,1157 1029,1160 1027,1163 1024,1166 1022,1170 1020,1172 1018,1176 1013,1181 1010,1184 1008,1187 1005,1190 1003,1193 999,1196 997,1198 994,1201 992,1204 986,1209 981,1214 975,1219 969,1224 964,1229 957,1233 951,1238 945,1243 939,1247 933,1251 926,1255 919,1259 913,1263 906,1266 899,1269 892,1272 885,1275 878,1278 876,1284 874,1289 873,1294 872,1300 870,1305 868,1311 868,1316 867,1319 866,1322 865,1325 865,1328 863,1334 862,1346 859,1358 858,1371 856,1383 855,1397 853,1423 851,1477 852,1503 853,1530 853,1544 855,1556 856,1570 858,1582 859,1595 862,1607 863,1619 865,1625 865,1628 866,1631 868,1637 868,1639 868,1643 869,1645 870,1648 872,1653 873,1657 873,1659 874,1664 876,1669 878,1675 965,1675 964,1670 961,1666 959,1662 957,1657 955,1653 953,1648 951,1643 949,1638 948,1632 946,1627 944,1622 943,1617 941,1612 940,1606 939,1601 938,1596 936,1591 935,1586 934,1575 931,1563 930,1552 928,1529 927,1506 927,1494 927,1483 928,1460 929,1449 930,1437 932,1426 934,1415 936,1404 937,1399 939,1394 939,1389 941,1383 943,1378 944,1373 946,1368 948,1363 949,1358 951,1354 953,1349 954,1345 957,1340 959,1336 990,1315 996,1311 1002,1306 1008,1301 1014,1296 1019,1291 1025,1286 1030,1281 1036,1276 1041,1270 1046,1264 1052,1259 1055,1256 1057,1254 1060,1250 1062,1248 1065,1244 1067,1241 1070,1238 1072,1235 1075,1232 1076,1228 1079,1226 1081,1223 1084,1219 1086,1216 1088,1212 1090,1209 1093,1206 1095,1202 1097,1199 1100,1196 1101,1192 1104,1189 1106,1186 1108,1182 1110,1179 1112,1175 1115,1171 1116,1168 1118,1165 1120,1160 1122,1157 1124,1154 1126,1150 1128,1146 1130,1143 1131,1139 1133,1135 1135,1131 1136,1128 1139,1124 1140,1120 1142,1117 1144,1113 1145,1109 1146,1105 1148,1102 1150,1098 1151,1093 1153,1090 1154,1086 1155,1082 1157,1078 1158,1075 1160,1071 1160,1067 1162,1063 1164,1059 1165,1055 1165,1051 1167,1047 1168,1043 1169,1040 1170,1036 1171,1031 1172,1028 1173,1024 1174,1020 1175,1016 1176,1012 1177,1008 1180,993 1182,977 1185,961 1187,931 1187,916 1187,901 1186,886 1185,872 1097,882 1097,882"/>
<polygon class="pen1 brush2" points="177,1719 184,1715 190,1710 196,1705 201,1700 207,1694 212,1689 218,1683 223,1678 226,1674 228,1672 231,1669 233,1666 236,1663 238,1660 240,1657 242,1653 245,1651 247,1648 251,1641 253,1638 256,1635 257,1632 260,1628 261,1625 263,1622 265,1618 267,1615 269,1612 271,1608 272,1605 274,1601 276,1598 277,1595 279,1591 281,1588 282,1585 284,1581 285,1577 287,1574 287,1570 289,1566 291,1563 292,1560 293,1555 294,1552 295,1549 297,1544 297,1541 298,1538 299,1534 300,1530 301,1526 302,1523 302,1519 303,1515 306,1500 308,1485 310,1455 310,1424 308,1409 307,1401 307,1394 305,1386 303,1378 302,1375 302,1371 301,1368 300,1363 299,1360 298,1357 297,1352 296,1349 295,1345 293,1342 292,1338 292,1334 290,1331 288,1327 287,1323 286,1320 284,1316 282,1313 281,1309 280,1306 278,1302 276,1299 272,1292 271,1289 269,1285 267,1281 265,1278 234,1272 219,1268 204,1263 190,1258 182,1254 176,1251 169,1248 162,1244 156,1240 149,1237 143,1233 136,1228 130,1224 124,1220 118,1215 112,1211 106,1206 101,1201 95,1196 90,1191 85,1185 80,1180 75,1174 72,1171 70,1168 68,1165 65,1162 61,1156 59,1154 56,1150 55,1147 52,1145 50,1141 48,1138 46,1135 44,1132 42,1129 40,1125 39,1122 37,1119 35,1115 33,1112 31,1108 30,1105 29,1102 27,1098 25,1095 24,1092 22,1088 21,1085 20,1082 18,1077 17,1074 15,1071 15,1067 13,1063 12,1060 11,1056 10,1052 9,1049 8,1046 7,1041 6,1038 5,1034 3,1019 0,1004 0,989 0,958 0,942 1,933 2,926 90,969 90,979 91,988 92,997 94,1006 95,1010 96,1015 97,1020 99,1024 100,1028 101,1033 103,1037 105,1041 106,1046 108,1051 110,1055 111,1059 113,1063 115,1067 117,1072 120,1076 121,1080 124,1084 125,1088 128,1092 130,1096 133,1100 136,1103 138,1108 141,1111 143,1115 146,1119 148,1122 151,1125 153,1129 156,1132 158,1135 161,1139 164,1142 166,1145 169,1148 171,1151 175,1154 177,1156 180,1160 186,1165 191,1170 196,1174 201,1178 206,1181 211,1185 216,1187 221,1190 231,1194 241,1198 251,1202 260,1207 270,1210 280,1213 289,1217 297,1220 313,1225 326,1228 337,1232 339,1235 341,1238 342,1242 345,1245 347,1248 348,1252 350,1255 352,1259 353,1263 355,1266 358,1273 360,1277 361,1280 362,1284 364,1288 366,1291 367,1295 368,1299 369,1302 371,1306 372,1310 373,1314 374,1318 375,1321 377,1326 377,1329 378,1333 379,1337 380,1341 381,1345 382,1349 385,1365 387,1381 390,1397 391,1414 392,1446 392,1480 390,1496 389,1504 388,1513 387,1521 386,1529 385,1537 383,1545 382,1553 381,1557 380,1561 379,1565 378,1569 377,1573 376,1577 375,1581 374,1585 372,1589 372,1593 371,1596 369,1601 368,1604 367,1608 366,1612 364,1616 362,1620 362,1623 360,1627 358,1631 357,1634 355,1638 353,1642 352,1646 351,1649 349,1653 347,1656 346,1660 343,1664 342,1667 340,1670 338,1674 334,1680 332,1684 330,1687 328,1690 327,1694 324,1697 322,1700 320,1704 317,1707 316,1710 313,1713 311,1716 309,1719 177,1719 177,1719"/>
<polygon class="pen1 brush2" points="965,661 965,969 1053,969 1053,661 965,661 965,661"/>
<polygon class="pen1 brush2" points="90,749 90,926 2,926 2,838 90,749 90,749"/>
</g>
</svg>
