<?xml version="1.0" encoding="UTF-8" standalone="no"?>
<!DOCTYPE svg PUBLIC "-//W3C//DTD SVG 1.0//EN" "http://www.w3.org/TR/2001/REC-SVG-20010904/DTD/svg10.dtd">
<svg xmlns="http://www.w3.org/2000/svg" xmlns:xlink="http://www.w3.org/1999/xlink" fill-rule="evenodd" height="1.183in" preserveAspectRatio="none" stroke-linecap="round" viewBox="0 0 1752 1183" width="1.752in">
<style type="text/css">
.brush0 { fill: rgb(255,255,255); }
.pen0 { stroke: rgb(0,0,0); stroke-width: 1; stroke-linejoin: round; }
.brush1 { fill: none; }
.pen1 { stroke: none; }
.brush2 { fill: rgb(0,0,0); }
</style>
<g>
<polygon class="pen1 brush2" points="170,314 170,174 1581,174 1581,314 170,314 170,314 170,314"/>
<polygon class="pen1 brush2" points="1651,92 1661,102 1661,1134 1752,1097 1751,48 1748,33 1741,20 1730,10 1725,7 1698,2 48,0 33,5 21,12 11,22 4,36 0,50 0,102 90,102 100,92 1651,92 1651,92 1651,92"/>
<polygon class="pen1 brush2" points="100,1092 90,1081 90,49 0,87 0,1136 4,1150 11,1163 21,1174 26,1176 53,1182 1703,1183 1718,1179 1730,1171 1741,1161 1748,1147 1751,1133 1752,1081 1661,1081 1651,1092 100,1092 100,1092 100,1092"/>
<polygon class="pen1 brush2" points="1356,820 1485,1170 1388,1170 1291,911 465,911 368,1170 271,1170 399,820 1356,820 1356,820 1356,820"/>
<polygon class="pen1 brush2" points="548,489 532,490 516,497 502,505 490,517 481,530 474,545 471,562 473,579 477,595 485,609 497,621 510,631 525,638 541,641 562,732 530,731 506,726 481,719 461,708 441,694 423,676 407,656 396,635 387,612 383,587 382,563 384,537 389,513 398,489 411,469 427,450 445,433 466,419 487,409 512,402 540,395 1224,395 1298,487 548,489 548,489 548,489"/>
<polygon class="pen1 brush2" points="1212,640 1227,635 1243,628 1258,620 1269,609 1279,595 1286,580 1288,564 1287,546 1282,530 1274,517 1263,504 1250,495 1234,487 1218,485 1197,392 1229,394 1253,398 1278,406 1300,417 1318,432 1337,450 1352,469 1363,490 1372,514 1377,538 1378,563 1376,588 1370,613 1361,636 1348,656 1332,676 1314,693 1293,706 1272,716 1248,723 1219,730 536,730 462,638 1212,640 1212,640 1212,640"/>
<polygon class="pen1 brush2" points="897,433 907,466 915,504 918,543 918,580 915,619 908,656 897,693 545,640 562,637 577,631 591,622 604,612 613,598 618,581 621,565 618,549 615,532 606,518 595,507 581,497 566,489 549,487 545,487 897,433 897,433 897,433"/>
<polygon class="pen1 brush2" points="1111,698 1106,694 1088,676 1073,656 1062,635 1054,612 1048,587 1047,563 1049,537 1055,513 1065,489 1077,469 1092,450 1111,433 1218,487 1202,487 1186,492 1171,501 1159,511 1148,524 1141,540 1138,556 1138,572 1142,588 1149,603 1160,617 1172,627 1187,635 1204,638 1218,640 1111,698 1111,698 1111,698"/>
<polygon class="pen1 brush2" points="588,1027 586,1015 581,1006 573,999 563,994 553,994 542,997 533,1004 526,1013 524,1023 525,1034 529,1044 537,1053 545,1057 557,1059 567,1057 577,1051 583,1043 587,1033 588,1027 588,1027 588,1027"/>
<polygon class="pen1 brush2" points="711,984 709,973 704,963 696,957 686,952 676,952 666,954 656,962 649,970 647,980 648,991 652,1001 660,1010 669,1014 679,1017 691,1014 699,1008 707,1000 711,990 711,984 711,984 711,984"/>
<polygon class="pen1 brush2" points="1169,1027 1171,1015 1176,1006 1184,999 1194,994 1205,994 1215,997 1224,1004 1230,1013 1233,1023 1231,1034 1229,1044 1220,1053 1211,1057 1201,1059 1190,1057 1180,1051 1173,1043 1170,1033 1169,1027 1169,1027 1169,1027"/>
<polygon class="pen1 brush2" points="1045,984 1048,973 1053,963 1061,957 1071,952 1081,952 1091,954 1101,962 1108,970 1110,980 1109,991 1105,1001 1097,1010 1088,1014 1077,1017 1066,1014 1058,1008 1051,1000 1047,990 1045,984 1045,984 1045,984"/>
</g>
</svg>
