<?xml version="1.0" encoding="UTF-8" standalone="no"?>
<!DOCTYPE svg PUBLIC "-//W3C//DTD SVG 1.0//EN" "http://www.w3.org/TR/2001/REC-SVG-20010904/DTD/svg10.dtd">
<svg xmlns="http://www.w3.org/2000/svg" xmlns:xlink="http://www.w3.org/1999/xlink" fill-rule="evenodd" height="1.896in" preserveAspectRatio="none" stroke-linecap="round" viewBox="0 0 512 1896" width="0.512in">
<style type="text/css">
.brush0 { fill: rgb(255,255,255); }
.pen0 { stroke: rgb(0,0,0); stroke-width: 1; stroke-linejoin: round; }
.brush1 { fill: none; }
.pen1 { stroke: none; }
.brush2 { fill: rgb(0,0,0); }
</style>
<g>
<polygon class="pen1 brush2" points="150,211 170,126 150,84 151,69 152,63 153,57 153,53 154,51 156,45 157,43 159,40 160,36 163,32 166,27 169,24 172,21 176,17 179,15 187,11 195,7 203,5 220,1 255,0 290,1 308,5 325,11 333,15 340,21 344,24 347,27 350,32 352,36 355,40 357,45 359,51 361,57 363,69 363,84 341,126 363,211 278,211 278,84 235,84 235,211 150,211 150,211"/>
<polygon class="pen1 brush2" points="170,800 469,800 469,885 43,885 43,800 170,800 170,800"/>
<polygon class="pen1 brush2" points="85,842 85,253 153,211 362,211 426,253 426,842 341,842 341,295 170,295 170,842 85,842 85,842"/>
<polygon class="pen1 brush2" points="0,842 0,1054 512,1054 512,842 85,842 85,927 428,927 428,969 148,969 85,969 85,842 0,842 0,842"/>
<polygon class="pen1 brush2" points="43,1011 43,1306 85,1390 173,1390 128,1306 128,1011 43,1011 43,1011"/>
<polygon class="pen1 brush2" points="472,1011 472,1306 429,1390 341,1390 386,1306 386,1011 472,1011 472,1011"/>
<polygon class="pen1 brush2" points="85,1347 85,1432 428,1432 428,1347 85,1347 85,1347"/>
<polygon class="pen1 brush2" points="85,1432 43,1474 85,1516 43,1559 85,1601 43,1643 85,1684 170,1684 128,1643 170,1601 128,1559 170,1516 128,1474 170,1432 170,1390 85,1390 85,1432 85,1432"/>
<polygon class="pen1 brush2" points="426,1432 469,1474 426,1516 469,1559 426,1601 469,1643 426,1684 341,1684 384,1643 341,1601 384,1559 341,1516 384,1474 341,1432 341,1390 426,1390 426,1432 426,1432"/>
<polygon class="pen1 brush2" points="85,1727 428,1727 428,1643 85,1643 85,1727 85,1727"/>
<polygon class="pen1 brush2" points="85,1601 410,1601 428,1559 85,1559 85,1601 85,1601"/>
<polygon class="pen1 brush2" points="85,1516 410,1516 428,1474 85,1474 85,1516 85,1516"/>
<polygon class="pen1 brush2" points="276,1896 250,1892 226,1885 215,1879 210,1876 205,1873 200,1870 195,1866 191,1861 187,1857 182,1853 178,1849 175,1844 170,1839 167,1834 164,1829 162,1823 159,1818 158,1814 157,1812 155,1809 154,1806 153,1800 152,1797 151,1794 149,1782 148,1769 148,1684 211,1684 211,1769 211,1776 212,1782 213,1788 214,1792 216,1794 217,1797 219,1800 220,1803 222,1805 224,1808 225,1810 230,1815 234,1819 239,1824 244,1827 250,1830 256,1832 262,1834 276,1835 383,1833 383,1896 276,1896 276,1896"/>
<polygon class="pen1 brush2" points="353,1684 353,1811 291,1811 291,1684 353,1684 353,1684"/>
<polygon class="pen1 brush2" points="213,885 213,969 299,1011 299,885 213,885 213,885"/>
</g>
</svg>
