<?xml version="1.0" encoding="UTF-8" standalone="no"?>
<!DOCTYPE svg PUBLIC "-//W3C//DTD SVG 1.0//EN" "http://www.w3.org/TR/2001/REC-SVG-20010904/DTD/svg10.dtd">
<svg xmlns="http://www.w3.org/2000/svg" xmlns:xlink="http://www.w3.org/1999/xlink" fill-rule="evenodd" height="1.883in" preserveAspectRatio="none" stroke-linecap="round" viewBox="0 0 1862 1883" width="1.862in">
<style type="text/css">
.brush0 { fill: rgb(255,255,255); }
.pen0 { stroke: rgb(0,0,0); stroke-width: 1; stroke-linejoin: round; }
.brush1 { fill: none; }
.pen1 { stroke: none; }
.brush2 { fill: rgb(0,0,0); }
</style>
<g>
<polygon class="pen1 brush2" points="1422,1778 1469,1773 1492,1768 1502,1764 1513,1760 1523,1755 1533,1750 1543,1745 1552,1738 1561,1731 1566,1728 1571,1725 1575,1721 1579,1717 1583,1714 1587,1709 1591,1705 1595,1701 1598,1697 1602,1693 1606,1688 1609,1683 1612,1679 1616,1674 1619,1670 1621,1665 1624,1660 1627,1655 1630,1650 1632,1645 1635,1640 1637,1635 1639,1630 1641,1624 1643,1619 1645,1613 1646,1607 1648,1602 1649,1596 1651,1590 1654,1567 1656,1543 1655,1531 1654,1519 1652,1507 1651,1495 1649,1490 1648,1484 1646,1479 1645,1474 1643,1468 1641,1463 1639,1457 1637,1452 1635,1447 1632,1441 1630,1436 1627,1431 1624,1426 1621,1421 1619,1416 1616,1411 1612,1407 1609,1402 1606,1398 1602,1394 1595,1384 1591,1381 1587,1377 1583,1373 1579,1369 1575,1365 1571,1362 1566,1358 1561,1354 1557,1351 1552,1348 1543,1342 1533,1336 1523,1331 1513,1327 1502,1322 1492,1318 1481,1315 1469,1312 1446,1309 1422,1308 1422,1203 1457,1205 1490,1210 1507,1214 1522,1218 1538,1224 1553,1230 1568,1237 1576,1240 1582,1244 1590,1248 1596,1253 1604,1257 1611,1261 1617,1266 1624,1270 1630,1275 1636,1281 1642,1286 1648,1291 1655,1297 1661,1303 1666,1309 1671,1315 1676,1321 1682,1327 1687,1333 1692,1340 1696,1347 1699,1350 1701,1353 1704,1357 1705,1360 1708,1364 1710,1367 1712,1370 1714,1374 1716,1378 1718,1381 1720,1384 1722,1389 1724,1392 1725,1395 1727,1400 1729,1403 1730,1407 1732,1411 1734,1415 1735,1419 1737,1422 1739,1426 1740,1430 1741,1434 1742,1438 1744,1442 1746,1450 1747,1454 1748,1458 1750,1463 1750,1467 1751,1470 1752,1474 1755,1491 1757,1508 1759,1543 1759,1561 1757,1578 1756,1586 1755,1594 1752,1611 1750,1620 1750,1624 1748,1628 1747,1632 1746,1636 1745,1640 1744,1644 1742,1648 1741,1652 1740,1656 1739,1660 1737,1664 1735,1667 1734,1672 1732,1675 1730,1679 1729,1683 1727,1687 1725,1690 1724,1694 1722,1698 1720,1701 1718,1705 1716,1709 1714,1712 1710,1720 1708,1723 1705,1726 1704,1730 1701,1733 1699,1736 1696,1740 1694,1743 1692,1746 1690,1750 1687,1753 1682,1759 1676,1766 1671,1772 1666,1777 1661,1783 1655,1789 1648,1794 1642,1800 1636,1805 1630,1810 1624,1815 1617,1820 1611,1825 1604,1830 1596,1834 1590,1838 1582,1842 1576,1846 1568,1850 1561,1853 1553,1856 1538,1862 1522,1867 1507,1872 1490,1876 1473,1879 1457,1881 1422,1883 1388,1881 1354,1876 1338,1872 1323,1867 1307,1862 1292,1856 1277,1850 1269,1846 1262,1842 1255,1838 1248,1834 1241,1830 1234,1825 1228,1820 1221,1815 1214,1810 1209,1805 1202,1800 1196,1794 1190,1789 1184,1783 1179,1777 1174,1772 1168,1766 1163,1759 1158,1753 1153,1746 1148,1740 1145,1736 1144,1733 1139,1726 1137,1723 1134,1720 1130,1712 1129,1709 1126,1705 1124,1701 1123,1698 1119,1690 1117,1687 1115,1683 1114,1679 1112,1675 1110,1672 1109,1667 1106,1660 1104,1656 1104,1652 1102,1648 1101,1644 1099,1640 1099,1636 1097,1632 1096,1628 1095,1624 1094,1620 1094,1615 1093,1611 1089,1594 1088,1578 1085,1543 1086,1526 1088,1509 1089,1500 1089,1492 1093,1475 1094,1471 1094,1467 1096,1459 1097,1455 1099,1451 1099,1447 1100,1442 1102,1439 1103,1435 1104,1432 1106,1427 1107,1423 1109,1420 1112,1412 1114,1408 1115,1405 1117,1400 1119,1397 1120,1393 1122,1390 1124,1386 1126,1382 1128,1379 1129,1375 1134,1369 1136,1364 1138,1361 1143,1354 1144,1351 1147,1348 1152,1341 1154,1338 1157,1335 1161,1328 1167,1322 1172,1316 1178,1310 1183,1305 1189,1299 1194,1293 1200,1288 1206,1283 1213,1277 1219,1272 1225,1268 1232,1263 1238,1259 1245,1254 1253,1250 1259,1246 1267,1242 1273,1238 1281,1234 1288,1231 1296,1228 1303,1225 1319,1220 1334,1215 1351,1211 1367,1208 1383,1206 1417,1203 1419,1308 1373,1313 1351,1319 1340,1323 1330,1327 1319,1332 1309,1337 1300,1343 1291,1349 1282,1356 1277,1359 1273,1363 1268,1366 1264,1370 1261,1374 1257,1378 1253,1382 1249,1386 1245,1390 1242,1395 1238,1399 1235,1403 1232,1408 1229,1412 1225,1417 1223,1422 1219,1426 1217,1432 1214,1437 1212,1442 1209,1447 1208,1453 1205,1458 1204,1463 1201,1468 1199,1474 1198,1479 1197,1484 1195,1490 1194,1496 1190,1519 1189,1543 1189,1555 1190,1567 1192,1579 1194,1590 1195,1596 1197,1602 1199,1607 1199,1613 1202,1619 1204,1624 1205,1630 1208,1635 1210,1640 1212,1645 1215,1650 1218,1655 1220,1660 1223,1665 1226,1670 1229,1674 1233,1679 1236,1683 1239,1688 1243,1693 1246,1697 1250,1701 1253,1705 1258,1709 1262,1714 1266,1717 1274,1725 1278,1728 1283,1731 1288,1735 1292,1738 1302,1745 1311,1750 1322,1755 1332,1760 1343,1764 1353,1768 1364,1771 1375,1773 1398,1777 1422,1778 1422,1778"/>
<polygon class="pen1 brush2" points="1413,1203 1421,1203 1427,1203 1425,1308 1416,1308 1413,1203 1413,1203"/>
<polygon class="pen1 brush2" points="636,1479 1344,995 1344,1099 668,1555 636,1479 636,1479"/>
<polygon class="pen1 brush2" points="1397,1482 672,995 672,1099 1344,1551 1397,1482 1397,1482"/>
<polygon class="pen1 brush2" points="595,1599 616,1594 625,1589 633,1583 637,1578 640,1574 643,1569 645,1565 647,1559 648,1554 650,1543 650,1537 648,1531 647,1526 645,1521 643,1516 640,1512 637,1508 633,1504 630,1500 625,1497 616,1492 606,1489 595,1488 595,1438 616,1441 635,1447 644,1451 652,1457 660,1463 668,1469 671,1473 675,1477 677,1480 680,1484 683,1489 685,1494 688,1498 690,1502 692,1507 693,1512 695,1517 695,1522 697,1532 698,1543 697,1554 695,1564 695,1569 693,1574 692,1579 690,1584 688,1589 685,1593 683,1597 680,1601 677,1605 675,1610 671,1614 668,1617 664,1620 660,1624 656,1627 652,1630 644,1635 635,1640 625,1643 616,1646 595,1647 574,1646 554,1640 545,1635 536,1630 528,1624 521,1617 518,1614 515,1610 511,1605 508,1601 506,1597 503,1593 501,1589 499,1584 497,1579 496,1574 494,1569 493,1564 491,1554 491,1543 491,1532 493,1522 494,1517 496,1512 497,1508 499,1503 501,1499 503,1494 506,1489 508,1485 511,1481 514,1478 517,1474 521,1470 527,1463 531,1460 536,1458 544,1452 552,1447 561,1444 571,1441 592,1438 592,1488 571,1492 563,1498 555,1505 551,1508 548,1513 546,1517 543,1522 541,1527 541,1532 539,1543 540,1549 541,1554 541,1559 544,1565 546,1569 549,1574 552,1578 556,1583 560,1586 564,1589 573,1594 583,1598 595,1599 595,1599"/>
<polygon class="pen1 brush2" points="591,1438 595,1438 599,1439 597,1487 590,1488 587,1439 591,1438 591,1438"/>
<polygon class="pen1 brush2" points="595,1778 641,1773 664,1768 675,1764 685,1760 695,1755 705,1750 715,1745 725,1738 734,1731 738,1728 743,1725 747,1721 751,1717 755,1714 759,1709 763,1705 767,1701 770,1697 774,1693 778,1688 781,1683 784,1679 788,1674 790,1670 794,1665 796,1660 799,1655 802,1650 804,1645 807,1640 809,1635 811,1630 814,1624 815,1619 817,1613 819,1607 820,1602 821,1596 822,1590 826,1567 826,1543 826,1531 826,1519 824,1507 822,1495 821,1490 820,1484 819,1479 817,1474 815,1468 814,1463 811,1457 809,1452 807,1447 804,1441 802,1436 799,1431 796,1426 794,1421 790,1416 788,1411 784,1407 781,1402 778,1398 774,1394 767,1384 763,1381 759,1377 755,1373 751,1369 747,1365 743,1362 738,1358 734,1354 730,1351 725,1348 715,1342 705,1336 695,1331 685,1327 675,1322 664,1318 652,1315 641,1312 618,1309 595,1308 595,1203 629,1205 662,1210 679,1214 695,1218 710,1224 725,1230 740,1237 748,1240 755,1244 762,1248 769,1253 775,1257 783,1261 789,1266 795,1270 802,1275 809,1281 814,1286 820,1291 826,1297 831,1303 837,1309 843,1315 848,1321 853,1327 859,1333 864,1340 868,1347 871,1350 873,1353 875,1357 877,1360 880,1364 881,1367 884,1370 886,1374 888,1378 890,1381 891,1384 894,1389 896,1392 897,1395 899,1400 901,1403 902,1407 904,1411 906,1415 907,1419 909,1422 910,1426 911,1430 913,1434 914,1438 916,1442 917,1450 919,1454 920,1458 921,1463 922,1467 923,1470 924,1474 926,1491 929,1508 930,1543 930,1561 929,1578 928,1586 926,1594 924,1611 922,1620 921,1624 920,1628 919,1632 917,1636 916,1640 916,1644 914,1648 913,1652 911,1656 910,1660 909,1664 907,1667 906,1672 904,1675 902,1679 901,1683 899,1687 897,1690 896,1694 894,1698 891,1701 890,1705 888,1709 886,1712 881,1720 880,1723 877,1726 875,1730 873,1733 871,1736 868,1740 866,1743 864,1746 861,1750 859,1753 853,1759 848,1766 843,1772 837,1777 831,1783 826,1789 820,1794 814,1800 809,1805 802,1810 795,1815 789,1820 783,1825 775,1830 769,1834 762,1838 755,1842 748,1846 740,1850 733,1853 725,1856 710,1862 695,1867 679,1872 662,1876 645,1879 629,1881 595,1883 560,1881 526,1876 511,1872 495,1867 479,1862 463,1856 449,1850 442,1846 434,1842 427,1838 420,1834 413,1830 407,1825 400,1820 393,1815 387,1810 381,1805 374,1800 368,1794 362,1789 357,1783 351,1777 345,1772 340,1766 335,1759 330,1753 325,1746 320,1740 317,1736 316,1733 311,1726 308,1723 307,1720 303,1712 301,1709 298,1705 297,1701 295,1698 291,1690 289,1687 288,1683 286,1679 284,1675 283,1672 281,1667 278,1660 277,1656 276,1652 274,1648 273,1644 272,1640 271,1636 269,1632 268,1628 268,1624 267,1620 266,1615 265,1611 262,1594 259,1578 258,1543 258,1526 259,1509 261,1500 262,1492 264,1475 266,1471 267,1467 268,1459 269,1455 270,1451 272,1447 273,1442 274,1439 275,1435 277,1432 278,1427 279,1423 281,1420 284,1412 286,1408 288,1405 288,1400 291,1397 293,1393 294,1390 296,1386 298,1382 300,1379 302,1375 306,1369 308,1364 310,1361 314,1354 317,1351 319,1348 324,1341 327,1338 328,1335 333,1328 339,1322 344,1316 349,1310 355,1305 361,1299 367,1293 372,1288 378,1283 385,1277 391,1272 397,1268 404,1263 411,1259 417,1254 425,1250 432,1246 438,1242 446,1238 453,1234 461,1231 468,1228 476,1225 491,1220 506,1215 523,1211 539,1208 556,1206 590,1203 591,1308 545,1313 523,1319 512,1323 501,1327 491,1332 481,1337 472,1343 463,1349 454,1356 449,1359 445,1363 441,1366 437,1370 432,1374 429,1378 425,1382 421,1386 417,1390 414,1395 411,1399 407,1403 404,1408 401,1412 397,1417 395,1422 392,1426 389,1432 387,1437 384,1442 382,1447 379,1453 377,1458 376,1463 373,1468 372,1474 370,1479 368,1484 367,1490 366,1496 362,1519 362,1543 362,1555 362,1567 364,1579 366,1590 367,1596 369,1602 370,1607 372,1613 374,1619 376,1624 377,1630 380,1635 382,1640 384,1645 387,1650 390,1655 392,1660 395,1665 398,1670 402,1674 405,1679 407,1683 411,1688 415,1693 418,1697 422,1701 426,1705 430,1709 434,1714 438,1717 447,1725 451,1728 455,1731 460,1735 464,1738 474,1745 483,1750 493,1755 504,1760 515,1764 525,1768 536,1771 547,1773 571,1777 595,1778 595,1778"/>
<polygon class="pen1 brush2" points="586,1203 592,1203 599,1203 597,1308 588,1308 586,1203 586,1203"/>
<polygon class="pen1 brush2" points="1422,1599 1444,1594 1453,1589 1461,1583 1465,1578 1468,1574 1471,1569 1473,1565 1475,1559 1477,1554 1477,1543 1477,1537 1477,1531 1475,1526 1473,1521 1471,1516 1468,1512 1465,1508 1461,1504 1457,1500 1453,1497 1444,1492 1433,1489 1422,1488 1422,1438 1443,1441 1462,1447 1472,1451 1480,1457 1488,1463 1496,1469 1499,1473 1502,1477 1505,1480 1508,1484 1511,1489 1513,1494 1516,1498 1517,1502 1520,1507 1522,1512 1522,1517 1524,1522 1526,1532 1526,1543 1526,1554 1524,1564 1522,1569 1522,1574 1520,1579 1517,1584 1516,1589 1513,1593 1511,1597 1508,1601 1505,1605 1502,1610 1499,1614 1496,1617 1492,1620 1488,1624 1484,1627 1480,1630 1472,1635 1462,1640 1453,1643 1443,1646 1422,1647 1402,1646 1382,1640 1373,1635 1364,1630 1357,1624 1349,1617 1346,1614 1343,1610 1339,1605 1337,1601 1333,1597 1331,1593 1329,1589 1327,1584 1325,1579 1323,1574 1322,1569 1321,1564 1319,1554 1318,1543 1319,1532 1321,1522 1322,1517 1323,1512 1325,1508 1327,1503 1328,1499 1331,1494 1333,1489 1336,1485 1338,1481 1342,1478 1345,1474 1348,1470 1355,1463 1359,1460 1363,1458 1372,1452 1380,1447 1390,1444 1399,1441 1420,1438 1420,1488 1399,1492 1391,1498 1383,1505 1379,1508 1376,1513 1373,1517 1372,1522 1369,1527 1368,1532 1368,1543 1368,1549 1368,1554 1370,1559 1372,1565 1374,1569 1377,1574 1380,1578 1383,1583 1388,1586 1392,1589 1401,1594 1412,1598 1422,1599 1422,1599"/>
<polygon class="pen1 brush2" points="1419,1438 1423,1438 1427,1439 1425,1487 1417,1488 1415,1439 1419,1438 1419,1438"/>
<polygon class="pen1 brush2" points="435,1099 1656,1099 1862,628 1861,551 1860,513 1858,476 1856,457 1854,439 1853,421 1850,403 1848,386 1845,368 1843,360 1842,355 1841,351 1840,346 1839,342 1838,338 1837,334 1836,329 1835,325 1834,321 1833,317 1831,314 1830,309 1829,305 1828,301 1826,297 1825,293 1824,289 1822,285 1821,281 1820,277 1818,273 1816,269 1815,265 1813,261 1811,257 1810,254 1808,250 1806,246 1805,242 1803,239 1799,231 1797,227 1795,224 1793,219 1791,216 1789,213 1786,209 1785,205 1782,202 1780,198 1778,195 1773,188 1770,184 1768,181 1765,177 1763,174 1760,171 1757,167 1755,164 1751,161 1746,154 1743,151 1740,148 1734,141 1728,135 1721,129 1715,123 1707,117 1700,111 1693,105 1686,100 1678,94 1670,89 1661,84 1654,80 1646,75 1637,71 1628,67 1620,62 1611,58 1602,55 1593,51 1584,47 1575,44 1556,38 1537,33 1517,28 1497,23 1477,20 1457,15 1435,13 1392,8 1349,4 1304,2 1214,0 1034,1 1034,524 297,524 383,1099 466,995 416,628 1138,628 1138,105 1274,106 1404,114 1434,118 1464,124 1492,130 1507,135 1521,140 1534,145 1546,150 1560,156 1571,162 1578,167 1584,170 1590,173 1596,177 1601,182 1607,186 1613,190 1618,195 1624,199 1629,204 1634,209 1639,214 1644,218 1649,223 1653,227 1657,232 1662,237 1666,241 1671,246 1675,251 1678,256 1682,261 1686,266 1689,272 1693,277 1696,282 1699,287 1702,293 1705,298 1708,303 1711,308 1714,314 1716,320 1719,326 1721,332 1724,338 1725,344 1728,350 1730,355 1732,362 1734,368 1735,375 1737,382 1739,388 1740,392 1740,395 1741,398 1742,402 1745,416 1747,431 1750,446 1751,461 1753,477 1757,548 1759,628 1603,995 559,995 435,1099 435,1099"/>
<polygon class="pen1 brush2" points="590,995 435,995 383,1099 563,1099 590,995 590,995"/>
<polygon class="pen1 brush2" points="310,628 103,315 0,315 0,210 129,210 413,628 310,628 310,628"/>
<polygon class="pen1 brush2" points="672,1569 1360,1569 1360,1517 649,1517 672,1569 672,1569"/>
</g>
</svg>
