<?xml version="1.0" encoding="UTF-8" standalone="no"?>
<!DOCTYPE svg PUBLIC "-//W3C//DTD SVG 1.0//EN" "http://www.w3.org/TR/2001/REC-SVG-20010904/DTD/svg10.dtd">
<svg xmlns="http://www.w3.org/2000/svg" xmlns:xlink="http://www.w3.org/1999/xlink" fill-rule="evenodd" height="1.795in" preserveAspectRatio="none" stroke-linecap="round" viewBox="0 0 1479 1795" width="1.479in">
<style type="text/css">
.brush0 { fill: rgb(255,255,255); }
.pen0 { stroke: rgb(0,0,0); stroke-width: 1; stroke-linejoin: round; }
.brush1 { fill: none; }
.pen1 { stroke: none; }
.brush2 { fill: rgb(0,0,0); }
</style>
<g>
<polygon class="pen1 brush2" points="85,956 85,1675 100,1685 140,1700 235,1709 291,1709 321,1705 346,1685 435,1709 420,1739 407,1754 386,1770 361,1785 310,1795 280,1795 195,1795 125,1785 80,1774 50,1765 24,1749 4,1734 0,1709 0,1032 0,1010 0,998 3,986 8,975 18,966 29,960 40,956 85,956 85,956"/>
<polygon class="pen1 brush2" points="1439,1740 1451,1738 1462,1731 1471,1723 1476,1712 1479,1700 1479,1686 1479,1010 1479,998 1476,986 1471,975 1462,966 1451,960 1439,956 65,956 34,1041 1394,1041 1394,1654 380,1654 346,1739 1439,1740 1439,1740"/>
<polygon class="pen1 brush2" points="346,1739 346,1067 295,1077 220,1077 150,1067 85,1041 85,993 435,993 435,1720 346,1739 346,1739"/>
<polygon class="pen1 brush2" points="763,1530 747,1531 721,1530 697,1526 673,1518 650,1506 628,1492 609,1475 593,1457 580,1435 569,1412 562,1388 558,1363 557,1338 559,1312 566,1289 574,1265 588,1243 603,1223 621,1205 642,1190 663,1178 687,1169 712,1163 736,1161 763,1161 763,1082 732,1082 702,1083 672,1090 644,1100 616,1113 590,1129 566,1147 544,1169 526,1192 510,1216 496,1244 486,1273 480,1301 477,1332 477,1362 480,1392 488,1422 499,1450 511,1477 527,1503 547,1526 569,1547 593,1565 619,1580 646,1593 675,1601 705,1608 736,1611 763,1611 763,1530 763,1530"/>
<polygon class="pen1 brush2" points="721,1530 738,1531 763,1530 787,1526 811,1518 835,1506 855,1492 874,1475 890,1457 905,1435 914,1412 922,1388 926,1363 928,1338 924,1312 917,1289 909,1265 895,1243 881,1223 863,1205 841,1190 820,1178 797,1169 772,1163 747,1161 721,1161 721,1082 752,1082 782,1083 812,1090 840,1100 868,1113 894,1129 917,1147 939,1169 957,1192 973,1216 987,1244 998,1273 1003,1301 1007,1332 1007,1362 1003,1392 996,1422 986,1450 972,1477 956,1503 937,1526 915,1547 890,1565 864,1580 837,1593 809,1601 779,1608 748,1611 721,1611 721,1530 721,1530"/>
<polygon class="pen1 brush2" points="757,1425 742,1427 725,1424 709,1419 694,1411 682,1400 673,1386 666,1370 662,1354 662,1338 666,1322 672,1306 682,1293 693,1281 709,1273 724,1267 741,1265 757,1266 757,1221 736,1220 716,1223 696,1229 677,1238 660,1251 646,1265 634,1282 624,1301 619,1321 617,1342 618,1363 623,1382 630,1401 640,1420 655,1435 671,1449 689,1459 709,1466 729,1470 750,1470 757,1470 757,1425 757,1425"/>
<polygon class="pen1 brush2" points="728,1425 743,1427 760,1424 775,1419 790,1411 802,1400 812,1386 820,1370 822,1354 822,1338 820,1322 813,1306 804,1293 791,1281 776,1273 762,1267 744,1265 728,1266 728,1221 748,1220 769,1223 790,1229 808,1238 825,1251 839,1265 851,1282 860,1301 866,1321 868,1342 867,1363 863,1382 855,1401 844,1420 830,1435 814,1449 796,1459 776,1466 756,1470 736,1470 728,1470 728,1425 728,1425"/>
<polygon class="pen1 brush2" points="391,1247 391,1161 586,1161 542,1247 391,1247 391,1247"/>
<polygon class="pen1 brush2" points="942,1247 893,1162 1441,1161 1440,1247 942,1247 942,1247"/>
<polygon class="pen1 brush2" points="542,998 647,868 831,868 937,998 1042,998 867,783 867,654 782,654 782,783 697,783 697,654 612,654 612,783 435,998 542,998 542,998"/>
<polygon class="pen1 brush2" points="552,0 541,6 531,13 524,23 520,34 522,657 526,669 533,679 542,687 554,692 1188,694 1193,609 607,609 607,0 552,0 552,0"/>
<polygon class="pen1 brush2" points="1186,694 1198,689 1208,682 1214,671 1219,660 1216,37 1212,25 1206,15 1196,7 1184,2 550,0 544,85 1131,85 1131,694 1186,694 1186,694"/>
<polygon class="pen1 brush2" points="566,349 566,260 1178,260 1178,349 566,349 566,349"/>
<polygon class="pen1 brush2" points="177,998 177,893 342,893 342,998 177,998 177,998"/>
<polygon class="pen1 brush2" points="1093,998 1093,893 1359,893 1359,998 1093,998 1093,998"/>
<polygon class="pen1 brush2" points="747,1237 727,1238 707,1244 689,1253 673,1266 659,1281 649,1299 642,1318 639,1339 640,1356 643,1375 649,1393 659,1410 672,1426 690,1439 713,1448 741,1452 757,1451 773,1448 791,1442 807,1432 822,1418 834,1401 843,1379 847,1353 846,1327 840,1305 830,1285 817,1268 801,1255 784,1245 766,1238 747,1235 747,1241 746,1257 745,1274 745,1282 747,1283 750,1283 755,1284 762,1285 769,1287 776,1290 784,1295 790,1302 787,1310 785,1318 782,1325 779,1331 709,1331 705,1321 702,1312 700,1305 699,1299 705,1294 712,1290 720,1287 727,1285 734,1284 740,1283 744,1283 745,1283 746,1276 746,1259 747,1243 747,1237"/>
</g>
</svg>
