<?xml version="1.0" encoding="UTF-8" standalone="no"?>
<!DOCTYPE svg PUBLIC "-//W3C//DTD SVG 1.0//EN" "http://www.w3.org/TR/2001/REC-SVG-20010904/DTD/svg10.dtd">
<svg xmlns="http://www.w3.org/2000/svg" xmlns:xlink="http://www.w3.org/1999/xlink" fill-rule="evenodd" height="1.606in" preserveAspectRatio="none" stroke-linecap="round" viewBox="0 0 2212 1606" width="2.212in">
<style type="text/css">
.brush0 { fill: rgb(255,255,255); }
.pen0 { stroke: rgb(0,0,0); stroke-width: 1; stroke-linejoin: round; }
.brush1 { fill: none; }
.pen1 { stroke: none; }
.brush2 { fill: rgb(0,0,0); }
</style>
<g>
<polygon class="pen1 brush2" points="252,1548 252,1213 252,1178 257,1120 266,1061 281,1004 299,949 321,895 348,843 380,794 413,747 451,701 491,660 536,622 583,586 633,555 684,528 739,505 794,487 849,473 906,463 965,457 1023,456 1081,460 1137,469 1195,482 1250,499 1305,519 1357,546 1407,573 1455,608 1500,645 1544,684 1581,728 1618,775 1650,824 1678,876 1702,928 1722,983 1737,1039 1750,1097 1755,1156 1759,1213 1759,1548 1889,1548 1889,1213 1888,1150 1881,1087 1868,1025 1852,962 1833,904 1809,844 1779,788 1747,734 1712,681 1672,632 1629,585 1583,543 1534,501 1482,466 1427,434 1370,405 1314,382 1252,361 1191,346 1129,334 1068,327 1005,324 942,327 878,334 817,346 758,361 697,382 638,405 582,434 528,466 477,502 426,543 380,585 337,632 298,681 261,734 228,789 201,846 177,904 157,964 140,1025 129,1087 122,1150 120,1213 120,1548 252,1548 252,1548"/>
<polygon class="pen1 brush2" points="1971,1485 39,1485 0,1606 2009,1606 1971,1485 1971,1485"/>
<polygon class="pen1 brush2" points="321,830 98,612 371,327 594,546 503,640 366,507 276,602 413,735 321,830 321,830"/>
<polygon class="pen1 brush2" points="1809,1132 2080,1132 2070,1093 2061,1023 2046,954 2026,888 2004,822 1976,757 1945,694 1908,635 1870,576 1827,521 1781,469 1732,420 1678,374 1623,331 1565,293 1504,258 1442,228 1378,200 1312,177 1244,159 1177,147 1109,137 1066,133 1066,385 945,385 945,2 989,0 1063,2 1134,6 1208,17 1279,32 1351,50 1422,74 1489,101 1555,132 1620,169 1683,209 1742,251 1800,297 1852,348 1903,402 1951,459 1995,519 2035,580 2071,645 2105,711 2133,780 2156,850 2176,921 2191,992 2202,1066 2210,1139 2212,1213 2212,1264 1829,1264 1809,1132 1809,1132"/>
</g>
</svg>
