<?xml version="1.0" encoding="UTF-8" standalone="no"?>
<!DOCTYPE svg PUBLIC "-//W3C//DTD SVG 1.0//EN" "http://www.w3.org/TR/2001/REC-SVG-20010904/DTD/svg10.dtd">
<svg xmlns="http://www.w3.org/2000/svg" xmlns:xlink="http://www.w3.org/1999/xlink" fill-rule="evenodd" height="1.789in" preserveAspectRatio="none" stroke-linecap="round" viewBox="0 0 1317 1789" width="1.317in">
<style type="text/css">
.brush0 { fill: rgb(255,255,255); }
.pen0 { stroke: rgb(0,0,0); stroke-width: 1; stroke-linejoin: round; }
.brush1 { fill: none; }
.pen1 { stroke: none; }
.brush2 { fill: rgb(0,0,0); }
</style>
<g>
<polygon class="pen1 brush2" points="0,626 180,358 180,0 1134,0 1032,105 286,105 286,252 1075,252 1075,358 286,358 108,626 1264,626 1264,731 108,731 108,1446 1264,1446 1264,1551 108,1551 108,1684 1264,1684 1317,1789 0,1789 0,626 0,626"/>
<polygon class="pen1 brush2" points="1317,626 1137,358 1137,0 1032,33 1032,358 1209,626 1211,1757 1317,1789 1317,626 1317,626"/>
<polygon class="pen1 brush2" points="431,177 430,165 425,155 419,146 408,138 397,134 386,134 373,136 363,142 354,151 348,161 345,172 346,184 349,195 356,205 364,213 376,218 387,220 400,218 411,214 420,206 426,196 430,185 431,177 431,177"/>
<polygon class="pen1 brush2" points="551,177 550,165 545,155 538,146 528,138 517,134 506,134 493,136 483,142 474,151 468,161 465,172 467,184 469,195 477,205 485,213 496,218 507,220 520,218 531,214 540,206 546,196 550,185 551,177 551,177"/>
<polygon class="pen1 brush2" points="854,200 854,157 897,157 897,200 854,200 854,200"/>
<polygon class="pen1 brush2" points="927,200 927,157 969,157 969,200 927,200 927,200"/>
<polygon class="pen1 brush2" points="675,1327 669,1327 640,1327 612,1324 585,1317 559,1308 534,1294 511,1279 489,1261 470,1240 454,1216 440,1193 430,1166 421,1140 417,1112 416,1085 419,1056 423,1029 431,1002 442,977 458,953 474,931 494,911 517,893 540,879 565,867 592,858 619,853 647,849 675,850 675,774 643,773 610,775 579,782 548,791 518,803 490,819 464,837 440,858 417,881 397,906 379,933 364,962 353,992 345,1022 340,1054 339,1087 340,1119 345,1150 352,1182 364,1211 378,1240 394,1267 415,1293 436,1317 461,1337 488,1356 516,1372 545,1384 575,1393 608,1400 640,1403 673,1403 675,1403 675,1327 675,1327"/>
<polygon class="pen1 brush2" points="637,1327 645,1327 674,1327 701,1324 728,1317 755,1308 779,1294 803,1279 824,1261 843,1240 860,1216 873,1193 884,1166 892,1140 896,1112 897,1085 895,1056 890,1029 882,1002 871,977 856,953 839,931 819,911 797,893 773,879 747,867 721,858 694,853 665,849 637,850 637,774 669,773 702,775 734,782 765,791 795,803 823,819 849,837 873,858 896,881 917,906 934,933 949,962 960,992 968,1022 973,1054 974,1087 973,1119 968,1150 961,1182 950,1211 935,1240 919,1267 899,1293 877,1317 852,1337 825,1356 798,1372 768,1384 737,1393 705,1400 674,1403 641,1403 637,1403 637,1327 637,1327"/>
</g>
</svg>
