<?xml version="1.0" encoding="UTF-8" standalone="no"?>
<!DOCTYPE svg PUBLIC "-//W3C//DTD SVG 1.0//EN" "http://www.w3.org/TR/2001/REC-SVG-20010904/DTD/svg10.dtd">
<svg xmlns="http://www.w3.org/2000/svg" xmlns:xlink="http://www.w3.org/1999/xlink" fill-rule="evenodd" height="1.161in" preserveAspectRatio="none" stroke-linecap="round" viewBox="0 0 1994 1161" width="1.994in">
<style type="text/css">
.brush0 { fill: rgb(255,255,255); }
.pen0 { stroke: rgb(0,0,0); stroke-width: 1; stroke-linejoin: round; }
.brush1 { fill: none; }
.pen1 { stroke: none; }
.brush2 { fill: rgb(0,0,0); }
</style>
<g>
<polygon class="pen1 brush2" points="559,735 412,937 401,928 388,922 374,919 360,919 346,922 331,928 321,937 311,947 304,961 300,975 299,989 300,1004 304,1017 312,1030 321,1041 334,1050 347,1055 362,1057 376,1057 389,1054 402,1047 414,1038 423,1026 429,1013 434,999 434,985 433,970 427,957 689,804 559,735 559,735"/>
<polygon class="pen1 brush2" points="1469,736 1616,937 1626,929 1639,922 1653,920 1667,920 1682,922 1696,929 1707,937 1717,948 1723,961 1728,975 1729,990 1728,1005 1723,1018 1716,1031 1706,1041 1694,1050 1681,1056 1666,1059 1651,1057 1638,1055 1625,1048 1613,1039 1604,1027 1598,1015 1594,1000 1594,985 1595,970 1600,958 1339,805 1469,736 1469,736"/>
<polygon class="pen1 brush2" points="930,859 988,1030 976,1037 964,1046 955,1057 949,1072 947,1085 945,1100 948,1114 955,1129 962,1139 972,1150 985,1157 998,1161 1012,1161 1026,1161 1041,1156 1052,1150 1063,1139 1072,1127 1077,1113 1080,1100 1080,1085 1075,1071 1069,1057 1060,1046 1048,1037 1036,1030 1099,859 930,859 930,859"/>
<polygon class="pen1 brush2" points="185,57 187,103 190,149 198,193 209,238 222,282 238,326 258,369 280,410 305,450 331,487 362,525 395,560 429,593 466,622 504,652 545,678 587,703 631,725 677,745 723,762 770,775 819,786 868,795 915,802 965,804 1015,805 1065,803 1115,798 1164,788 1213,779 1260,764 1307,749 1352,729 1397,707 1439,683 1481,658 1519,629 1557,598 1592,565 1625,533 1655,496 1682,458 1708,419 1731,377 1751,335 1767,292 1782,248 1793,203 1800,158 1806,112 1807,66 1807,60 1909,59 1909,74 1906,124 1901,173 1892,222 1880,270 1866,318 1848,364 1828,410 1804,453 1779,496 1750,539 1719,577 1685,616 1649,652 1611,686 1571,719 1529,747 1485,776 1439,802 1393,824 1345,843 1294,861 1245,875 1193,889 1141,898 1089,905 1035,907 983,908 930,906 878,901 825,893 774,882 723,869 672,853 623,834 576,812 529,788 485,763 441,733 401,703 362,668 325,634 291,596 258,558 229,518 201,475 176,432 155,388 135,340 119,294 106,246 95,198 89,149 85,100 83,50 185,57 185,57"/>
<polygon class="pen1 brush2" points="0,103 0,0 1994,0 1994,103 0,103 0,103"/>
<polygon class="pen1 brush2" points="457,223 455,211 451,199 443,189 434,181 423,175 410,173 398,173 386,177 376,182 366,191 360,203 357,215 355,227 358,239 363,252 370,261 380,269 392,273 405,276 417,273 429,270 439,263 448,254 453,242 457,230 457,223 457,223"/>
<polygon class="pen1 brush2" points="659,223 657,211 653,199 646,189 636,181 625,175 613,173 600,173 589,177 578,182 568,191 562,203 560,215 559,227 560,239 566,252 574,261 584,269 595,273 607,276 620,273 631,270 641,263 651,254 656,242 659,230 659,223 659,223"/>
<polygon class="pen1 brush2" points="861,223 861,211 856,199 848,189 839,181 829,175 815,173 803,173 792,177 782,182 772,191 765,203 762,215 761,227 763,239 768,252 776,261 786,269 797,273 810,276 822,273 834,270 845,263 853,254 859,242 861,230 861,223 861,223"/>
<polygon class="pen1 brush2" points="1063,223 1061,211 1057,199 1049,189 1041,181 1030,175 1018,173 1004,173 994,177 983,182 973,191 967,203 963,215 962,227 964,239 969,252 977,261 987,269 999,273 1011,276 1024,273 1035,270 1046,263 1055,254 1060,242 1063,230 1063,223 1063,223"/>
<polygon class="pen1 brush2" points="1267,223 1265,211 1261,199 1253,189 1243,181 1233,175 1221,173 1208,173 1197,177 1186,182 1177,191 1169,203 1167,215 1167,227 1167,239 1174,252 1182,261 1191,269 1202,273 1214,276 1228,273 1238,270 1249,263 1258,254 1263,242 1267,230 1267,223 1267,223"/>
<polygon class="pen1 brush2" points="1469,223 1467,211 1463,199 1456,189 1446,181 1436,175 1423,173 1411,173 1399,177 1388,182 1379,191 1373,203 1370,215 1369,227 1371,239 1377,252 1384,261 1394,269 1404,273 1418,276 1430,273 1441,270 1451,263 1460,254 1467,242 1469,230 1469,223 1469,223"/>
<polygon class="pen1 brush2" points="1673,223 1671,211 1667,199 1659,189 1649,181 1639,175 1626,173 1614,173 1602,177 1593,182 1583,191 1577,203 1573,215 1572,227 1574,239 1579,252 1587,261 1597,269 1609,273 1621,276 1633,273 1645,270 1656,263 1665,254 1670,242 1673,230 1673,223 1673,223"/>
<polygon class="pen1 brush2" points="559,377 557,365 552,353 545,342 536,333 525,328 513,326 500,326 489,331 478,336 468,345 461,356 458,367 457,381 459,393 466,405 473,414 482,422 494,427 507,429 519,427 531,423 541,417 550,407 555,396 559,383 559,377 559,377"/>
<polygon class="pen1 brush2" points="761,377 759,365 755,353 748,342 738,333 727,328 715,326 702,326 691,331 680,336 671,345 663,356 661,367 661,381 663,393 668,405 675,414 685,422 697,427 709,429 722,427 733,423 743,417 752,407 758,396 761,383 761,377 761,377"/>
<polygon class="pen1 brush2" points="962,377 961,365 957,353 949,342 939,333 929,328 916,326 904,326 892,331 883,336 873,345 867,356 863,367 863,381 865,393 870,405 878,414 888,422 899,427 911,429 923,427 935,423 945,417 955,407 960,396 962,383 962,377 962,377"/>
<polygon class="pen1 brush2" points="1165,377 1163,365 1160,353 1151,342 1142,333 1131,328 1119,326 1106,326 1095,331 1084,336 1074,345 1068,356 1065,367 1065,381 1065,393 1072,405 1080,414 1089,422 1101,427 1113,429 1126,427 1137,423 1148,417 1157,407 1162,396 1165,383 1165,377 1165,377"/>
<polygon class="pen1 brush2" points="1369,377 1367,365 1363,353 1355,342 1345,333 1335,328 1323,326 1309,326 1299,331 1287,336 1277,345 1271,356 1269,367 1267,381 1270,393 1275,405 1283,414 1293,422 1304,427 1317,429 1329,427 1341,423 1351,417 1360,407 1365,396 1369,383 1369,377 1369,377"/>
<polygon class="pen1 brush2" points="1571,377 1570,365 1565,353 1558,342 1548,333 1538,328 1525,326 1513,326 1501,331 1491,336 1481,345 1475,356 1471,367 1470,381 1472,393 1477,405 1485,414 1495,422 1507,427 1519,429 1531,427 1543,423 1555,417 1562,407 1569,396 1571,383 1571,377 1571,377"/>
<polygon class="pen1 brush2" points="661,532 658,519 655,508 647,496 637,489 626,483 614,481 601,481 590,485 579,491 570,500 563,510 560,522 560,534 561,548 568,559 575,568 584,575 596,580 607,582 621,580 632,577 643,570 651,560 657,550 661,537 661,532 661,532"/>
<polygon class="pen1 brush2" points="863,532 861,519 857,508 849,496 839,489 829,483 816,481 805,481 792,485 782,491 773,500 765,510 763,522 762,534 764,548 770,559 777,568 787,575 798,580 811,582 823,580 835,577 845,570 853,560 861,550 863,537 863,532 863,532"/>
<polygon class="pen1 brush2" points="1065,532 1062,519 1058,508 1050,496 1041,489 1031,483 1018,481 1006,481 994,485 984,491 974,500 967,510 964,522 963,534 965,548 971,559 979,568 988,575 1000,580 1012,582 1025,580 1036,577 1047,570 1056,560 1061,550 1065,537 1065,532 1065,532"/>
<polygon class="pen1 brush2" points="1267,532 1265,519 1261,508 1253,496 1243,489 1233,483 1221,481 1208,481 1197,485 1186,491 1177,500 1169,510 1167,522 1167,534 1167,548 1174,559 1182,568 1191,575 1202,580 1214,582 1228,580 1238,577 1249,570 1258,560 1263,550 1267,537 1267,532 1267,532"/>
<polygon class="pen1 brush2" points="1470,532 1467,519 1465,508 1457,496 1447,489 1436,483 1424,481 1412,481 1400,485 1389,491 1381,500 1373,510 1371,522 1370,534 1372,548 1377,559 1385,568 1395,575 1406,580 1419,582 1431,580 1443,577 1452,570 1461,560 1467,550 1470,537 1470,532 1470,532"/>
<polygon class="pen1 brush2" points="962,685 961,673 957,661 949,651 939,642 929,636 916,635 904,635 892,638 883,644 873,653 867,663 863,675 863,688 865,701 870,713 878,723 888,731 899,735 911,737 923,735 935,731 945,724 955,715 960,704 962,692 962,685 962,685"/>
<polygon class="pen1 brush2" points="1165,685 1163,673 1160,661 1151,651 1142,642 1131,636 1119,635 1106,635 1095,638 1084,644 1074,653 1068,663 1065,675 1065,688 1065,701 1072,713 1080,723 1089,731 1101,735 1113,737 1126,735 1137,731 1148,724 1157,715 1162,704 1165,692 1165,685 1165,685"/>
</g>
</svg>
