<?xml version="1.0" encoding="UTF-8" standalone="no"?>
<!DOCTYPE svg PUBLIC "-//W3C//DTD SVG 1.0//EN" "http://www.w3.org/TR/2001/REC-SVG-20010904/DTD/svg10.dtd">
<svg xmlns="http://www.w3.org/2000/svg" xmlns:xlink="http://www.w3.org/1999/xlink" fill-rule="evenodd" height="1.799in" preserveAspectRatio="none" stroke-linecap="round" viewBox="0 0 1325 1799" width="1.325in">
<style type="text/css">
.brush0 { fill: rgb(255,255,255); }
.pen0 { stroke: rgb(0,0,0); stroke-width: 1; stroke-linejoin: round; }
.brush1 { fill: none; }
.pen1 { stroke: none; }
.brush2 { fill: rgb(0,0,0); }
</style>
<g>
<polygon class="pen1 brush2" points="932,186 929,174 925,163 916,152 907,145 896,142 882,141 871,143 859,149 850,158 844,169 841,180 842,193 845,204 852,216 861,223 872,229 885,231 896,230 908,225 918,217 927,207 931,196 932,186 932,186"/>
<polygon class="pen1 brush2" points="1057,186 1055,174 1050,163 1042,152 1033,145 1020,142 1008,141 995,143 985,149 976,158 969,169 966,180 967,193 970,204 977,216 986,223 997,229 1010,231 1022,230 1033,225 1043,217 1052,207 1056,196 1057,186 1057,186"/>
<polygon class="pen1 brush2" points="1171,0 1137,67 222,67 222,305 1137,305 1137,366 222,366 79,581 1286,581 1286,660 79,660 79,1414 1286,1414 1286,1493 79,1493 79,1719 1286,1719 1325,1799 0,1799 0,581 155,355 155,0 1171,0 1171,0"/>
<polygon class="pen1 brush2" points="1171,0 1171,355 1325,581 1325,1799 1246,1759 1246,581 1102,366 1102,27 1171,0 1171,0"/>
<polygon class="pen1 brush2" points="137,1605 137,1549 1188,1549 1188,1605 137,1605 137,1605"/>
<polygon class="pen1 brush2" points="137,774 137,718 1188,718 1188,774 137,774 137,774"/>
<polygon class="pen1 brush2" points="320,1216 400,1255 400,923 411,910 914,910 925,923 925,1255 1006,1216 1006,905 1005,901 1000,883 989,869 978,855 963,845 948,836 931,831 395,831 377,836 360,845 348,855 335,869 326,883 321,901 320,905 320,1216 320,1216"/>
<polygon class="pen1 brush2" points="914,1216 937,1192 1006,1216 1005,1226 1000,1244 989,1258 978,1273 963,1283 948,1291 931,1296 395,1296 377,1291 360,1283 348,1273 335,1258 326,1244 321,1226 320,1216 387,1192 411,1216 914,1216 914,1216"/>
<polygon class="pen1 brush2" points="480,507 479,501 474,494 464,487 453,481 438,476 423,471 404,467 382,465 362,463 340,462 317,463 296,464 276,467 255,470 239,474 223,479 212,486 202,492 197,499 194,506 195,513 199,520 207,527 217,533 230,539 246,544 265,548 286,550 306,552 328,553 350,553 372,552 393,550 413,547 430,543 447,538 459,532 468,525 476,519 480,513 480,507 480,507"/>
<polygon class="pen1 brush2" points="486,417 485,412 480,407 471,403 459,398 445,394 429,392 409,390 392,389 371,388 350,389 331,390 313,392 297,394 283,398 272,403 263,407 259,412 256,417 260,422 265,426 274,432 286,435 300,439 317,441 334,444 354,444 374,444 395,444 414,444 432,440 448,438 461,434 474,430 481,425 485,421 486,417 486,417"/>
<polygon class="pen1 brush2" points="846,507 847,501 852,494 861,487 872,481 886,476 903,471 923,467 942,465 962,463 985,462 1008,463 1029,464 1050,467 1069,470 1086,474 1101,479 1113,486 1122,492 1127,499 1132,506 1130,513 1126,520 1118,527 1108,533 1094,539 1079,544 1061,548 1040,550 1018,552 997,553 975,553 953,552 933,550 912,547 896,543 879,538 867,532 857,525 849,519 846,513 846,507 846,507"/>
<polygon class="pen1 brush2" points="841,417 842,412 847,407 856,403 868,398 881,394 897,392 916,390 934,389 956,388 976,389 995,390 1013,392 1029,394 1043,398 1055,403 1064,407 1068,412 1069,417 1066,422 1061,426 1052,432 1041,435 1027,439 1009,441 991,444 971,444 952,444 932,444 912,444 895,440 878,438 865,434 853,430 846,425 842,421 841,417 841,417"/>
<polygon class="pen1 brush2" points="531,265 589,236 589,158 765,158 795,107 531,107 531,265 531,265"/>
<polygon class="pen1 brush2" points="795,107 736,128 736,215 565,215 531,265 795,265 795,107 795,107"/>
<polygon class="pen1 brush2" points="360,186 359,174 354,163 346,152 336,145 325,142 312,141 300,143 290,149 279,158 273,169 270,180 272,193 274,204 280,216 291,223 301,229 315,231 326,230 338,225 348,217 356,207 360,196 360,186 360,186"/>
<polygon class="pen1 brush2" points="486,186 485,174 481,163 472,152 462,145 451,142 437,141 426,143 415,149 405,158 399,169 396,180 397,193 400,204 406,216 415,223 426,229 439,231 452,230 463,225 474,217 481,207 486,196 486,186 486,186"/>
</g>
</svg>
