<?xml version="1.0" encoding="UTF-8" standalone="no"?>
<!DOCTYPE svg PUBLIC "-//W3C//DTD SVG 1.0//EN" "http://www.w3.org/TR/2001/REC-SVG-20010904/DTD/svg10.dtd">
<svg xmlns="http://www.w3.org/2000/svg" xmlns:xlink="http://www.w3.org/1999/xlink" fill-rule="evenodd" height="1.804in" preserveAspectRatio="none" stroke-linecap="round" viewBox="0 0 887 1804" width="0.887in">
<style type="text/css">
.brush0 { fill: rgb(255,255,255); }
.pen0 { stroke: rgb(0,0,0); stroke-width: 1; stroke-linejoin: round; }
.brush1 { fill: none; }
.pen1 { stroke: none; }
.brush2 { fill: rgb(0,0,0); }
</style>
<g>
<polygon class="pen1 brush2" points="220,332 181,332 181,205 339,205 339,332 300,332 301,464 302,473 306,483 312,490 322,494 331,495 693,496 713,498 731,503 748,511 764,522 777,536 788,551 795,568 800,586 801,605 801,700 720,700 720,605 719,596 715,587 709,580 699,576 691,575 329,574 309,572 291,567 274,559 258,548 245,535 234,520 228,502 222,484 221,466 220,332 220,332"/>
<polygon class="pen1 brush2" points="720,1101 720,1203 719,1213 715,1221 709,1229 699,1233 691,1234 344,1235 344,1311 693,1313 713,1311 731,1306 748,1297 764,1287 777,1273 788,1258 795,1240 800,1223 801,1204 801,1101 720,1101 720,1101"/>
<polygon class="pen1 brush2" points="766,705 747,738 742,753 732,795 724,837 719,880 718,924 722,967 727,1009 736,1052 743,1064 819,1064 843,1147 676,1147 661,1101 649,1054 641,1006 634,958 633,910 634,860 639,812 647,763 657,716 672,669 676,658 766,705 766,705"/>
<polygon class="pen1 brush2" points="753,1101 772,1068 777,1053 788,1011 795,969 800,926 801,882 798,840 793,797 783,754 776,742 700,742 677,658 843,658 859,705 870,752 879,800 885,848 887,896 885,946 880,994 873,1042 862,1090 848,1136 843,1147 753,1101 753,1101"/>
<polygon class="pen1 brush2" points="300,1431 300,1147 220,1147 220,1431 134,1431 134,1069 386,1069 386,1431 300,1431 300,1431"/>
<polygon class="pen1 brush2" points="129,1604 264,1735 396,1604 473,1641 306,1804 220,1804 53,1641 129,1604 129,1604"/>
<polygon class="pen1 brush2" points="472,1641 472,1395 53,1395 53,1641 134,1641 134,1478 391,1478 391,1641 472,1641 472,1641"/>
<polygon class="pen1 brush2" points="82,1641 82,1562 444,1562 444,1641 82,1641 82,1641"/>
<polygon class="pen1 brush2" points="88,205 88,173 93,160 100,146 111,132 125,119 142,108 160,99 180,91 203,84 226,81 250,78 274,78 298,81 321,84 344,91 365,98 383,108 400,119 413,131 425,144 432,158 438,173 438,205 524,249 524,166 523,147 518,129 510,110 498,94 485,78 468,63 448,49 426,36 402,26 376,16 349,10 321,5 293,1 262,0 234,1 204,5 175,10 149,16 123,26 99,36 78,49 58,63 40,78 26,94 16,112 7,129 2,147 0,167 0,249 88,205 88,205"/>
<polygon class="pen1 brush2" points="524,249 476,168 50,168 1,249 524,249 524,249"/>
</g>
</svg>
