<?xml version="1.0" encoding="UTF-8" standalone="no"?>
<!DOCTYPE svg PUBLIC "-//W3C//DTD SVG 1.0//EN" "http://www.w3.org/TR/2001/REC-SVG-20010904/DTD/svg10.dtd">
<svg xmlns="http://www.w3.org/2000/svg" xmlns:xlink="http://www.w3.org/1999/xlink" fill-rule="evenodd" height="1.794in" preserveAspectRatio="none" stroke-linecap="round" viewBox="0 0 1505 1794" width="1.505in">
<style type="text/css">
.brush0 { fill: rgb(255,255,255); }
.pen0 { stroke: rgb(0,0,0); stroke-width: 1; stroke-linejoin: round; }
.brush1 { fill: none; }
.pen1 { stroke: none; }
.brush2 { fill: rgb(0,0,0); }
</style>
<g>
<polygon class="pen1 brush2" points="88,870 94,851 104,835 118,822 133,810 150,802 168,798 188,797 206,801 224,807 241,817 254,830 265,845 273,863 285,870 290,851 301,835 314,822 329,810 346,802 365,798 383,797 403,801 420,807 437,817 451,830 462,845 469,863 474,882 482,851 492,835 506,822 521,810 537,802 556,798 574,797 594,801 611,807 628,817 642,830 653,845 660,863 667,870 673,851 683,835 697,822 712,810 729,802 747,798 767,797 785,801 803,807 820,817 833,830 844,845 852,863 858,870 864,851 874,835 887,822 903,810 919,802 938,798 957,797 976,801 994,807 1010,817 1024,830 1035,845 1042,863 1049,870 1055,851 1065,835 1079,822 1094,810 1111,802 1129,798 1148,797 1167,801 1185,807 1201,817 1216,830 1226,845 1233,863 1235,870 1241,851 1252,835 1264,822 1280,810 1296,802 1315,798 1334,797 1353,801 1371,807 1388,817 1401,830 1412,845 1420,863 1456,755 1399,722 1373,713 1347,708 1320,708 1293,710 1267,717 1241,726 1238,734 1214,722 1188,713 1162,708 1135,708 1107,710 1081,717 1055,726 1047,734 1021,722 996,713 970,708 943,708 915,710 889,717 864,726 856,734 832,722 806,713 779,708 752,708 725,710 699,717 673,726 665,734 640,722 614,713 588,708 561,708 534,710 507,717 482,726 474,734 448,722 422,713 397,708 369,708 342,710 316,717 290,726 277,734 253,722 226,713 200,708 173,708 146,710 120,717 94,726 48,755 88,870 88,870"/>
<polygon class="pen1 brush2" points="0,802 5,778 16,726 31,674 48,625 71,575 96,528 124,483 156,441 192,399 228,362 269,326 312,293 356,264 404,238 451,214 501,196 552,179 605,167 658,159 711,154 764,153 818,155 872,163 924,172 976,186 1027,203 1075,225 1124,249 1168,276 1212,307 1255,342 1293,378 1329,418 1362,460 1394,503 1421,549 1444,597 1464,647 1482,697 1495,750 1505,802 1477,808 1452,829 1424,871 1420,820 1411,771 1399,723 1383,676 1362,629 1340,583 1314,541 1285,501 1252,462 1217,425 1179,392 1139,363 1097,336 1052,311 1005,291 958,275 909,260 861,251 811,245 761,243 709,244 660,249 610,258 562,271 514,287 468,307 422,330 380,357 340,386 301,418 265,454 232,492 203,533 175,575 152,618 132,665 115,713 102,761 92,810 86,860 86,871 64,839 38,813 6,802 0,802 0,802"/>
<polygon class="pen1 brush2" points="691,190 754,0 808,190 691,190 691,190"/>
<polygon class="pen1 brush2" points="707,750 707,1657 707,1660 703,1674 698,1685 688,1695 676,1702 662,1705 649,1703 636,1699 626,1691 617,1680 612,1668 611,1610 610,1597 606,1584 597,1574 587,1566 574,1563 562,1563 549,1565 537,1572 529,1582 523,1594 522,1606 522,1610 523,1680 529,1702 538,1723 551,1742 567,1759 584,1773 605,1783 626,1790 648,1794 671,1794 694,1790 715,1782 735,1771 753,1758 768,1741 782,1722 790,1701 796,1679 797,750 707,750 707,750"/>
<polygon class="pen1 brush2" points="421,762 426,711 438,652 453,594 470,539 492,482 518,428 546,376 577,324 612,276 650,229 691,187 754,237 717,278 682,322 648,368 619,415 593,464 568,516 550,568 535,623 522,676 514,734 512,765 421,762 421,762"/>
<polygon class="pen1 brush2" points="1091,762 1086,711 1074,652 1059,594 1042,539 1020,482 994,428 967,376 935,324 899,276 861,229 821,187 757,237 795,278 830,322 864,368 893,415 919,464 943,516 962,568 977,623 990,676 999,734 1000,765 1091,762 1091,762"/>
</g>
</svg>
