<?xml version="1.0" encoding="UTF-8" standalone="no"?>
<!DOCTYPE svg PUBLIC "-//W3C//DTD SVG 1.0//EN" "http://www.w3.org/TR/2001/REC-SVG-20010904/DTD/svg10.dtd">
<svg xmlns="http://www.w3.org/2000/svg" xmlns:xlink="http://www.w3.org/1999/xlink" fill-rule="evenodd" height="1.894in" preserveAspectRatio="none" stroke-linecap="round" viewBox="0 0 1155 1894" width="1.155in">
<style type="text/css">
.brush0 { fill: rgb(255,255,255); }
.pen0 { stroke: rgb(0,0,0); stroke-width: 1; stroke-linejoin: round; }
.brush1 { fill: none; }
.pen1 { stroke: none; }
.brush2 { fill: rgb(0,0,0); }
</style>
<g>
<polygon class="pen1 brush2" points="0,1 0,1894 1155,1894 1114,1800 87,1800 87,48 0,1 0,1"/>
<polygon class="pen1 brush2" points="1155,1892 1155,0 0,0 41,93 1068,93 1068,1846 1155,1892 1155,1892"/>
<polygon class="pen1 brush2" points="801,841 801,747 394,747 379,722 369,686 353,634 353,573 353,536 369,459 379,428 394,397 353,299 336,323 321,352 306,380 294,411 284,444 276,478 272,513 268,548 268,584 271,620 275,654 282,688 292,722 303,753 317,783 333,810 350,835 353,841 801,841 801,841"/>
<polygon class="pen1 brush2" points="356,299 356,393 762,393 777,418 787,454 803,506 803,567 803,604 787,681 777,712 762,743 803,841 821,817 836,789 851,760 863,729 873,697 880,662 884,627 888,592 888,556 886,520 881,486 875,452 865,418 853,387 839,357 824,330 807,305 803,299 356,299 356,299"/>
<polygon class="pen1 brush2" points="446,661 446,479 533,479 533,661 446,661 446,661"/>
<polygon class="pen1 brush2" points="621,661 621,479 708,479 708,661 621,661 621,661"/>
<polygon class="pen1 brush2" points="801,1587 801,1494 394,1494 379,1468 369,1433 353,1381 353,1319 353,1282 369,1206 379,1175 394,1143 353,1046 336,1070 321,1098 306,1127 294,1158 284,1190 276,1225 272,1259 268,1295 268,1330 271,1366 275,1400 282,1435 292,1468 303,1499 317,1529 333,1556 350,1582 353,1587 801,1587 801,1587"/>
<polygon class="pen1 brush2" points="356,1046 356,1139 762,1139 777,1165 787,1200 803,1252 803,1314 803,1350 787,1428 777,1459 762,1490 803,1587 821,1563 836,1535 851,1507 863,1475 873,1443 880,1408 884,1374 888,1338 888,1303 886,1267 881,1232 875,1198 865,1165 853,1133 839,1104 824,1077 807,1052 803,1046 356,1046 356,1046"/>
<polygon class="pen1 brush2" points="446,1407 446,1225 533,1225 533,1407 446,1407 446,1407"/>
<polygon class="pen1 brush2" points="621,1407 621,1225 708,1225 708,1407 621,1407 621,1407"/>
<polygon class="pen1 brush2" points="626,945 624,931 618,920 611,910 600,903 587,899 576,898 563,901 552,907 542,917 536,928 533,940 535,953 538,965 545,976 555,984 566,989 579,992 592,989 603,985 613,976 621,966 625,954 626,945 626,945"/>
<polygon class="pen1 brush2" points="626,201 624,188 618,177 611,167 600,159 587,155 576,154 563,158 552,164 542,174 536,185 533,196 535,209 538,221 545,232 555,240 566,246 579,248 592,246 603,241 613,232 621,222 625,210 626,201 626,201"/>
<polygon class="pen1 brush2" points="626,1686 624,1672 618,1661 611,1651 600,1644 587,1640 576,1639 563,1642 552,1648 542,1658 536,1669 533,1681 535,1693 538,1706 545,1717 555,1724 566,1730 579,1733 592,1730 603,1726 613,1717 621,1707 625,1695 626,1686 626,1686"/>
</g>
</svg>
