<?xml version="1.0" encoding="UTF-8" standalone="no"?>
<!DOCTYPE svg PUBLIC "-//W3C//DTD SVG 1.0//EN" "http://www.w3.org/TR/2001/REC-SVG-20010904/DTD/svg10.dtd">
<svg xmlns="http://www.w3.org/2000/svg" xmlns:xlink="http://www.w3.org/1999/xlink" fill-rule="evenodd" height="1.717in" preserveAspectRatio="none" stroke-linecap="round" viewBox="0 0 2494 1717" width="2.494in">
<style type="text/css">
.brush0 { fill: rgb(255,255,255); }
.pen0 { stroke: rgb(0,0,0); stroke-width: 1; stroke-linejoin: round; }
.brush1 { fill: none; }
.pen1 { stroke: none; }
.brush2 { fill: rgb(0,0,0); }
</style>
<g>
<polygon class="pen1 brush2" points="0,644 116,706 116,1600 2425,1600 2494,1717 0,1717 0,644 0,644"/>
<polygon class="pen1 brush2" points="2494,1717 2377,1655 2377,761 60,761 0,644 2494,644 2494,1717 2494,1717"/>
<polygon class="pen1 brush2" points="646,1662 646,699 771,699 771,1662 646,1662 646,1662"/>
<polygon class="pen1 brush2" points="1724,1662 1724,699 1849,699 1849,1662 1724,1662 1724,1662"/>
<polygon class="pen1 brush2" points="681,1114 681,1003 1808,1003 1808,1114 681,1114 681,1114"/>
<polygon class="pen1 brush2" points="1188,1065 1188,699 1305,699 1305,1065 1188,1065 1188,1065"/>
<polygon class="pen1 brush2" points="936,885 934,873 928,861 916,850 904,846 890,844 877,848 866,858 857,868 854,883 856,896 860,910 870,918 882,926 896,928 910,924 922,918 931,907 935,895 936,885 936,885"/>
<polygon class="pen1 brush2" points="1105,885 1102,873 1097,861 1085,850 1073,846 1058,844 1045,848 1035,858 1026,868 1024,883 1024,896 1029,910 1039,918 1051,926 1064,928 1079,924 1091,918 1099,907 1103,895 1105,885 1105,885"/>
<polygon class="pen1 brush2" points="1473,885 1470,873 1464,861 1452,850 1441,846 1426,844 1413,848 1403,858 1394,868 1391,883 1393,896 1397,910 1407,918 1418,926 1432,928 1447,924 1458,918 1467,907 1472,895 1473,885 1473,885"/>
<polygon class="pen1 brush2" points="1644,885 1640,873 1634,861 1623,850 1611,846 1596,844 1583,848 1573,858 1564,868 1561,883 1563,896 1567,910 1577,918 1589,926 1602,928 1617,924 1629,918 1638,907 1642,895 1644,885 1644,885"/>
<polygon class="pen1 brush2" points="1768,712 705,64 745,0 1808,648 1768,712 1768,712"/>
<polygon class="pen1 brush2" points="1663,443 1663,685 1780,685 1778,385 1778,368 1772,354 1762,342 1749,331 1734,327 1718,325 775,324 759,325 745,330 731,340 720,352 715,367 715,383 715,685 831,685 831,443 1663,443 1663,443"/>
<polygon class="pen1 brush2" points="577,1288 576,1258 568,1229 556,1200 540,1173 521,1152 499,1131 473,1115 445,1104 416,1096 386,1094 357,1095 328,1102 299,1114 274,1129 249,1148 230,1172 215,1198 203,1226 196,1255 192,1285 194,1315 201,1344 211,1373 226,1400 245,1423 269,1444 294,1460 322,1472 349,1480 380,1483 410,1481 439,1475 467,1464 493,1450 517,1431 537,1408 553,1381 565,1355 573,1325 577,1295 577,1288 577,1288"/>
<polygon class="pen1 brush2" points="454,949 450,931 445,914 433,899 420,887 402,881 385,879 367,881 351,887 336,899 326,912 318,931 316,949 318,966 324,982 336,997 349,1007 367,1015 385,1018 402,1015 418,1009 433,997 443,984 450,966 454,949 454,949 454,949"/>
<polygon class="pen1 brush2" points="2308,1288 2306,1258 2299,1229 2287,1200 2271,1173 2252,1152 2231,1131 2204,1115 2176,1104 2148,1096 2118,1094 2088,1095 2059,1102 2031,1114 2004,1129 1981,1148 1962,1172 1946,1198 1934,1226 1927,1255 1923,1285 1925,1315 1933,1344 1943,1373 1957,1400 1977,1423 2000,1444 2025,1460 2053,1472 2080,1480 2111,1483 2141,1481 2170,1475 2198,1464 2224,1450 2248,1431 2269,1408 2285,1381 2296,1355 2305,1325 2308,1295 2308,1288 2308,1288"/>
<polygon class="pen1 brush2" points="2185,949 2182,931 2176,914 2164,899 2151,887 2134,881 2116,879 2098,881 2082,887 2067,899 2057,912 2050,931 2047,949 2050,966 2055,982 2067,997 2080,1007 2098,1015 2116,1018 2134,1015 2149,1009 2164,997 2174,984 2182,966 2185,949 2185,949 2185,949"/>
<polygon class="pen1 brush2" points="1134,1487 1134,1224 1188,1224 1188,1487 1134,1487 1134,1487"/>
<polygon class="pen1 brush2" points="1244,1487 1244,1224 1299,1224 1299,1487 1244,1487 1244,1487"/>
<polygon class="pen1 brush2" points="1354,1487 1354,1224 1408,1224 1408,1487 1354,1487 1354,1487"/>
<polygon class="pen1 brush2" points="1464,1487 1464,1224 1519,1224 1519,1487 1464,1487 1464,1487"/>
<polygon class="pen1 brush2" points="1575,1487 1575,1224 1629,1224 1629,1487 1575,1487 1575,1487"/>
<polygon class="pen1 brush2" points="866,1288 866,1226 941,1226 941,1288 866,1288 866,1288"/>
<polygon class="pen1 brush2" points="997,1288 997,1226 1072,1226 1072,1288 997,1288 997,1288"/>
<polygon class="pen1 brush2" points="866,1489 866,1337 1072,1337 1072,1489 866,1489 866,1489"/>
</g>
</svg>
