<?xml version="1.0" encoding="UTF-8" standalone="no"?>
<!DOCTYPE svg PUBLIC "-//W3C//DTD SVG 1.0//EN" "http://www.w3.org/TR/2001/REC-SVG-20010904/DTD/svg10.dtd">
<svg xmlns="http://www.w3.org/2000/svg" xmlns:xlink="http://www.w3.org/1999/xlink" fill-rule="evenodd" height="1.045in" preserveAspectRatio="none" stroke-linecap="round" viewBox="0 0 858 1045" width="0.858in">
<style type="text/css">
.brush0 { fill: rgb(255,255,255); }
.pen0 { stroke: rgb(0,0,0); stroke-width: 1; stroke-linejoin: round; }
.brush1 { fill: none; }
.pen1 { stroke: none; }
.brush2 { fill: rgb(0,0,0); }
</style>
<g>
<polygon class="pen1 brush0" points="754,405 752,403 746,399 737,395 726,392 714,392 702,397 691,409 682,429 678,445 678,460 680,474 686,487 694,497 705,505 718,509 734,510 738,482 745,447 751,418 754,405"/>
<polygon class="pen1 brush0" points="377,855 394,852 414,844 436,830 458,814 477,798 491,782 499,768 497,759 480,741 463,717 447,691 432,663 419,635 407,610 398,589 391,574 396,533 402,494 401,458 388,427 383,418 381,410 382,403 386,395 391,388 398,381 406,374 414,366 420,361 427,356 437,349 448,341 461,333 474,324 488,315 502,305 516,296 529,287 541,278 553,269 562,261 570,254 576,247 579,242 578,225 574,208 566,190 557,174 547,158 536,145 527,136 519,130 516,131 510,134 502,137 492,142 481,148 469,155 456,162 442,170 428,178 414,186 401,193 388,201 375,207 365,213 355,218 348,222 339,227 327,234 312,243 294,255 274,268 252,283 230,298 208,314 185,330 164,345 144,360 126,373 111,385 99,395 90,403 86,408 73,436 66,463 65,488 69,511 76,532 87,552 101,570 117,586 134,600 152,613 170,624 187,633 203,640 217,646 228,650 236,652 255,660 273,675 288,696 302,719 314,745 325,771 335,797 344,819 341,843 335,883 329,920 326,937 358,943 377,855"/>
<polygon class="pen1 brush0" points="250,530 240,524 231,518 222,510 214,501 207,491 201,481 196,470 192,459 188,438 188,416 193,396 205,378 217,367 232,359 247,354 263,353 279,355 294,360 309,369 321,382 327,392 332,403 336,415 337,428 336,439 332,449 324,457 313,462 306,461 300,457 294,451 290,443 286,436 283,429 282,424 281,422 284,423 290,423 297,422 303,419 305,413 303,406 297,402 288,400 286,400 280,401 272,405 265,416 263,424 263,433 264,442 268,451 273,460 279,467 287,474 295,479 304,482 313,482 321,481 330,478 337,473 344,466 349,459 353,450 356,432 355,415 352,399 345,383 335,369 324,357 310,347 294,339 280,335 266,333 251,333 237,336 223,341 211,348 199,357 189,368 176,391 169,415 169,440 174,464 184,487 198,508 217,525 238,539 243,541 249,542 255,542 261,541 266,539 270,536 273,532 273,527 268,529 262,530 256,531 250,530"/>
<polygon class="pen1 brush0" points="342,625 348,641 353,656 360,672 367,687 369,687 372,687 376,687 379,686 381,684 383,681 383,679 381,676 378,668 374,660 370,651 366,643 361,635 357,628 353,622 350,619 346,617 343,620 342,623 342,625"/>
<polygon class="pen1 brush0" points="403,748 406,750 409,752 413,752 416,750 418,747 418,743 417,739 416,738 413,731 408,723 403,717 397,711 395,709 393,709 391,709 389,710 388,712 387,714 387,716 388,718 389,721 393,729 398,739 403,748"/>
<polygon class="pen1 brush2" points="256,516 245,511 236,504 227,496 219,487 212,478 207,467 202,457 198,446 193,425 193,403 199,383 211,364 223,353 237,345 253,340 269,339 284,341 300,347 314,356 326,368 332,378 338,389 341,402 343,414 342,425 337,435 330,443 318,448 311,448 305,444 299,438 295,430 292,423 289,416 288,411 287,409 290,409 297,408 305,407 309,405 310,400 309,393 303,389 293,387 290,387 284,388 277,393 270,403 268,410 269,419 271,428 274,437 279,446 285,454 292,460 300,465 309,468 318,469 327,468 335,464 343,460 349,453 354,446 358,437 361,419 360,402 357,385 350,370 341,356 329,343 315,333 300,326 286,322 271,320 257,320 243,323 229,328 216,335 205,344 194,355 181,378 174,402 174,427 179,451 190,474 204,495 222,512 244,526 249,527 254,528 259,528 265,526 269,524 273,522 276,518 277,514 272,516 267,517 261,517 256,516"/>
<polygon class="pen1 brush2" points="533,149 535,152 540,159 547,170 555,184 562,200 567,217 569,234 566,250 565,253 566,256 567,259 570,261 573,261 576,261 578,259 580,257 587,239 587,219 583,200 576,182 573,176 569,170 565,164 561,159 556,154 551,149 545,145 539,142 537,137 532,130 527,125 523,122 519,123 514,125 508,127 504,128 483,139 463,149 444,160 426,170 408,180 390,191 373,201 356,212 339,223 322,234 304,245 287,256 269,268 250,280 231,292 211,305 205,310 198,315 192,322 187,329 182,335 178,340 176,343 175,344 178,342 187,336 201,328 220,316 242,303 268,288 295,271 325,254 355,237 385,219 415,203 444,188 471,174 495,163 516,154 533,149"/>
<polygon class="pen1 brush2" points="387,376 385,378 385,381 385,383 386,386 388,388 391,388 394,388 396,387 408,381 420,374 432,366 444,357 456,347 467,338 477,328 487,319 496,311 506,302 517,294 527,287 537,280 547,273 555,268 561,264 558,263 554,265 547,268 538,272 528,278 516,285 503,293 490,302 476,311 462,321 448,330 434,340 421,350 409,359 397,368 387,376"/>
<polygon class="pen1 brush2" points="65,415 60,432 57,450 56,471 57,493 61,514 68,535 77,555 88,572 102,585 119,597 139,608 160,617 179,624 195,630 206,633 210,634 213,635 216,634 219,633 221,630 222,626 221,623 220,620 217,618 201,613 186,607 172,601 158,593 145,584 132,574 121,562 110,549 95,520 89,489 89,457 93,425 99,413 107,402 117,391 127,381 138,373 148,366 156,360 163,356 158,354 148,356 134,360 119,367 102,376 87,388 74,401 65,415"/>
<polygon class="pen1 brush2" points="347,604 353,620 358,635 365,651 372,666 374,666 377,666 381,666 385,665 387,663 388,660 388,658 387,655 384,647 380,639 376,630 371,622 367,614 362,607 358,601 355,598 351,597 348,599 347,602 347,604"/>
<polygon class="pen1 brush2" points="408,728 411,730 414,731 418,731 421,729 423,726 423,722 422,718 422,717 418,710 414,703 409,696 403,690 401,689 399,688 396,688 394,689 393,691 392,693 392,696 393,698 394,701 398,709 403,719 408,728"/>
<polygon class="pen1 brush2" points="394,851 389,862 384,875 379,890 374,905 369,918 365,930 363,937 362,940 362,944 360,948 358,951 354,952 352,952 350,951 348,950 346,949 344,949 339,948 335,948 332,948 324,951 320,950 317,949 314,946 313,942 313,940 314,936 315,932 315,930 323,909 327,889 331,869 337,847 338,848 339,852 340,856 341,858 341,880 339,905 336,926 334,934 348,933 354,913 361,887 367,866 370,857 368,858 364,859 358,858 353,855 351,850 347,841 343,829 338,815 332,799 326,784 319,770 313,757 304,742 296,729 288,718 280,707 272,696 264,685 254,673 243,660 239,656 235,652 231,649 230,647 230,644 228,638 225,634 225,632 230,635 238,641 247,649 257,659 267,669 278,681 287,691 296,701 309,718 321,739 333,762 343,785 352,806 358,823 363,835 364,839 368,838 380,835 397,829 416,822 437,812 456,801 471,788 481,773 483,765 481,756 477,748 472,740 467,734 462,729 456,724 452,718 441,700 431,682 421,664 412,646 403,628 395,609 387,590 381,570 378,569 376,567 375,565 375,561 377,549 381,538 385,527 387,515 386,479 383,441 380,409 380,388 386,394 393,408 401,428 408,453 414,480 417,507 415,533 409,556 415,575 421,594 427,613 433,631 440,650 448,668 456,686 466,704 469,708 474,712 479,716 484,720 490,724 495,728 499,732 503,737 508,751 511,766 510,781 506,793 497,807 486,818 473,826 458,833 443,839 427,843 410,847 394,851"/>
<polygon class="pen1 brush2" points="686,454 689,468 694,481 701,493 709,505 711,507 711,510 711,512 710,515 708,517 705,517 702,517 700,515 691,507 683,498 678,487 674,476 671,464 670,452 671,439 674,427 662,430 651,433 639,438 628,444 618,450 607,457 597,465 588,473 576,489 568,508 566,528 572,548 585,572 601,596 616,620 632,644 646,669 658,694 668,721 673,749 675,784 671,819 663,852 651,885 635,915 614,944 590,970 563,994 552,1002 540,1009 527,1015 515,1020 502,1024 489,1027 476,1030 463,1031 450,1031 437,1029 424,1027 412,1024 399,1019 387,1014 375,1007 363,999 353,987 345,971 342,957 344,950 350,962 357,972 366,981 375,989 385,996 396,1001 407,1005 419,1008 441,1011 462,1012 482,1010 501,1006 520,999 537,990 554,979 569,967 583,953 596,937 608,921 618,903 627,884 634,865 640,845 644,825 648,786 646,748 638,710 624,674 616,659 606,645 596,631 585,617 574,603 564,589 554,574 546,559 541,546 539,532 538,516 539,501 542,486 547,472 553,458 561,447 572,437 586,429 602,423 619,418 636,415 653,412 669,411 682,410 687,404 694,398 702,393 710,390 718,388 724,387 729,389 731,393 726,393 721,394 717,395 713,397 709,399 706,401 703,404 700,407 695,414 691,424 688,437 686,454"/>
<polygon class="pen1 brush2" points="739,490 746,495 752,499 759,503 766,506 774,508 781,511 789,513 796,516 798,517 801,517 803,516 805,514 805,511 804,506 802,501 801,499 793,497 785,495 778,492 771,489 763,486 756,482 750,479 743,475 744,469 745,463 746,457 747,452 749,453 756,455 766,458 778,462 792,465 806,468 821,470 834,471 837,471 840,470 841,468 842,465 842,462 841,459 839,457 836,456 824,453 810,450 796,447 783,444 770,441 760,439 753,438 751,437 753,429 755,421 757,414 759,408 759,405 758,402 756,400 753,399 750,399 748,400 746,401 745,404 741,421 734,460 728,498 729,517 731,516 734,510 737,502 739,490"/>
<polygon class="pen1 brush2" points="683,64 690,53 692,41 691,29 685,18 679,12 671,9 663,7 655,7 646,9 638,12 631,17 625,24 623,28 622,33 622,37 624,42 628,48 633,53 640,54 647,53 653,51 654,50 656,48 657,47 658,46 659,44 660,41 659,39 658,36 657,35 656,35 654,35 653,35 652,36 651,38 651,40 651,41 648,45 646,45 642,44 637,43 635,41 634,37 633,33 634,28 639,24 644,21 648,19 653,17 659,16 664,16 669,17 673,18 678,21 683,27 686,34 686,42 684,49 676,63 666,75 653,84 640,92 625,98 609,104 594,110 580,117 577,119 573,121 571,123 569,127 576,126 588,122 603,116 620,109 638,100 655,89 671,77 683,64"/>
<polygon class="pen1 brush2" points="770,52 777,48 785,44 793,40 802,37 810,36 818,36 826,38 833,43 839,53 842,65 841,76 834,85 825,90 817,92 812,92 808,90 805,88 804,85 803,83 803,82 804,79 806,76 810,75 815,75 814,76 814,77 814,78 813,79 814,81 816,81 818,82 820,81 821,80 822,78 822,77 822,75 821,71 820,68 818,66 814,65 808,65 802,67 797,71 794,76 794,78 794,82 794,88 794,93 796,96 799,99 803,101 808,103 814,104 820,104 825,103 830,102 846,90 852,73 851,53 842,36 837,31 830,27 823,26 815,26 801,29 788,33 775,37 763,43 751,49 739,56 727,63 715,71 699,81 680,92 661,103 643,114 626,124 612,133 603,141 599,146 602,145 608,142 614,139 623,134 632,128 643,122 655,115 667,108 680,100 693,93 706,85 720,78 733,70 746,64 758,57 770,52"/>
<polygon class="pen1 brush2" points="722,151 725,155 725,161 723,167 718,172 711,175 705,176 699,177 692,177 691,177 690,176 688,175 687,172 689,172 691,172 693,172 695,172 697,171 698,170 699,168 699,166 698,164 697,162 695,161 693,161 691,160 687,160 683,162 680,166 680,167 679,170 678,173 678,177 680,181 682,183 683,185 684,185 692,187 700,187 708,185 716,181 723,177 728,171 732,164 733,156 732,151 729,146 725,143 721,141 707,140 689,143 670,149 650,157 633,166 618,175 609,183 606,187 614,184 626,178 641,170 658,162 676,155 693,150 709,148 722,151"/>
</g>
</svg>
