<?xml version="1.0" encoding="UTF-8" standalone="no"?>
<!DOCTYPE svg PUBLIC "-//W3C//DTD SVG 1.0//EN" "http://www.w3.org/TR/2001/REC-SVG-20010904/DTD/svg10.dtd">
<svg xmlns="http://www.w3.org/2000/svg" xmlns:xlink="http://www.w3.org/1999/xlink" fill-rule="evenodd" height="1.516in" preserveAspectRatio="none" stroke-linecap="round" viewBox="0 0 1928 1516" width="1.928in">
<style type="text/css">
.brush0 { fill: rgb(255,255,255); }
.pen0 { stroke: rgb(0,0,0); stroke-width: 1; stroke-linejoin: round; }
.brush1 { fill: none; }
.pen1 { stroke: none; }
.brush2 { fill: rgb(0,0,0); }
</style>
<g>
<polygon class="pen1 brush2" points="1569,935 1614,981 1643,1016 1665,1066 1700,1043 1706,1009 1689,970 1654,935 1609,917 1495,884 1569,935 1569,935"/>
<polygon class="pen1 brush2" points="290,488 279,759 273,912 284,1009 296,1039 181,1039 171,1016 171,952 192,816 233,662 267,563 290,488 290,488"/>
<polygon class="pen1 brush2" points="171,0 153,22 171,154 171,276 147,426 102,569 44,764 11,888 0,1009 6,1119 22,1187 44,1205 1802,1205 1752,1107 114,1107 102,1027 102,981 114,895 136,782 188,615 227,483 250,402 262,317 262,178 255,109 318,109 352,132 467,385 857,385 857,287 530,287 432,86 381,22 323,0 171,0 171,0"/>
<polygon class="pen1 brush2" points="1711,1130 1735,1072 1746,1009 1740,970 1717,929 1689,906 1654,884 1581,862 1052,712 960,673 897,627 846,563 823,510 808,449 808,109 716,109 659,127 620,150 580,184 489,328 427,242 534,93 626,41 700,18 785,6 886,11 909,41 909,378 920,465 949,529 993,574 1063,615 1654,782 1757,827 1814,877 1843,929 1848,981 1848,1043 1802,1205 1711,1130 1711,1130"/>
<polygon class="pen1 brush2" points="846,449 620,488 637,574 875,534 846,449 846,449"/>
<polygon class="pen1 brush2" points="897,557 665,662 716,734 942,603 897,557 897,557"/>
<polygon class="pen1 brush2" points="960,632 785,798 863,850 1028,654 960,632 960,632"/>
<polygon class="pen1 brush2" points="1045,684 971,865 1063,884 1113,684 1045,684 1045,684"/>
<polygon class="pen1 brush2" points="1153,900 1194,712 1261,730 1233,912 1153,900 1153,900"/>
<polygon class="pen1 brush2" points="1308,929 1331,764 1405,775 1387,940 1308,929 1308,929"/>
<polygon class="pen1 brush2" points="107,1171 11,1436 6,1475 17,1504 44,1516 1865,1516 1911,1497 1922,1469 1928,1436 1911,1400 1877,1360 1700,1160 1581,1171 1780,1400 1774,1411 125,1411 222,1152 107,1171 107,1171"/>
<polygon class="pen1 brush2" points="534,1160 506,1273 530,1308 785,1308 808,1285 808,1160 534,1160 534,1160"/>
<polygon class="pen1 brush2" points="1301,1160 1416,1291 1416,1308 1135,1308 1112,1285 1112,1160 1301,1160 1301,1160"/>
</g>
</svg>
