<?xml version="1.0" encoding="UTF-8" standalone="no"?>
<!DOCTYPE svg PUBLIC "-//W3C//DTD SVG 1.0//EN" "http://www.w3.org/TR/2001/REC-SVG-20010904/DTD/svg10.dtd">
<svg xmlns="http://www.w3.org/2000/svg" xmlns:xlink="http://www.w3.org/1999/xlink" fill-rule="evenodd" height="1.896in" preserveAspectRatio="none" stroke-linecap="round" viewBox="0 0 2060 1896" width="2.06in">
<style type="text/css">
.brush0 { fill: rgb(255,255,255); }
.pen0 { stroke: rgb(0,0,0); stroke-width: 1; stroke-linejoin: round; }
.brush1 { fill: none; }
.pen1 { stroke: none; }
.brush2 { fill: rgb(0,0,0); }
</style>
<g>
<polygon class="pen1 brush2" points="1109,309 1163,321 1248,215 1376,144 1535,119 1727,137 1834,208 1913,321 1940,443 1918,580 1874,669 1781,820 1839,874 1928,813 2010,653 2060,473 2030,269 1900,101 1732,5 1538,0 1357,41 1215,129 1133,238 1109,309 1109,309"/>
<polygon class="pen1 brush2" points="1068,754 1123,838 1218,932 1376,992 1461,1083 1426,1219 1479,1303 1436,1437 1484,1518 1732,1518 1961,1452 2030,1377 2012,1280 1883,916 1844,963 1834,1060 1935,1342 1852,1403 1571,1434 1556,1403 1596,1311 1538,1209 1566,1093 1491,947 1335,886 1218,794 1133,686 1068,754 1068,754"/>
<polygon class="pen1 brush2" points="1571,215 1426,256 1318,438 1318,592 1396,725 1556,749 1553,701 1426,653 1360,536 1396,387 1509,282 1652,228 1626,208 1571,215 1571,215"/>
<polygon class="pen1 brush2" points="1662,299 1637,400 1669,497 1702,413 1662,299 1662,299"/>
<polygon class="pen1 brush2" points="1667,566 1639,646 1674,712 1702,627 1667,566 1667,566"/>
<polygon class="pen1 brush2" points="1632,514 1566,497 1466,536 1556,554 1632,514 1632,514"/>
<polygon class="pen1 brush2" points="1717,509 1769,471 1862,479 1796,519 1717,509 1717,509"/>
<polygon class="pen1 brush2" points="1070,274 940,282 754,287 434,264 290,407 290,580 386,730 470,707 582,580 607,431 480,418 519,539 468,602 416,597 376,527 381,461 446,333 642,369 819,369 997,346 1070,274 1070,274"/>
<polygon class="pen1 brush2" points="506,767 678,737 855,720 1038,737 1089,671 975,620 760,633 607,676 506,767 506,767"/>
<polygon class="pen1 brush2" points="1075,333 1101,453 1094,554 1010,730 1086,759 1145,653 1180,522 1165,390 1075,333 1075,333"/>
<polygon class="pen1 brush2" points="1652,1548 1662,1616 1749,1634 1913,1609 1893,1501 1822,1574 1652,1548 1652,1548"/>
<polygon class="pen1 brush2" points="1740,1662 1697,1746 1608,1800 1496,1823 1376,1800 1240,1700 1150,1569 1086,1321 975,1111 843,1040 729,1053 655,1141 614,1303 584,1393 536,1442 612,1487 660,1437 701,1328 724,1196 785,1136 858,1141 922,1196 985,1323 1050,1548 1123,1734 1306,1862 1491,1896 1669,1859 1761,1766 1817,1656 1740,1662 1740,1662"/>
<polygon class="pen1 brush2" points="454,1437 536,1470 577,1518 584,1579 546,1639 434,1734 246,1465 451,1614 480,1543 454,1437 454,1437"/>
<polygon class="pen1 brush2" points="246,1513 115,1569 163,1649 258,1561 246,1513 246,1513"/>
<polygon class="pen1 brush2" points="328,1651 226,1723 273,1771 356,1692 328,1651 328,1651"/>
<polygon class="pen1 brush2" points="358,228 145,111 290,294 358,228 358,228"/>
<polygon class="pen1 brush2" points="239,359 20,377 215,418 239,359 239,359"/>
<polygon class="pen1 brush2" points="234,554 0,646 239,620 234,554 234,554"/>
<polygon class="pen1 brush2" points="258,699 25,916 328,772 258,699 258,699"/>
</g>
</svg>
