<?xml version="1.0" encoding="UTF-8" standalone="no"?>
<!DOCTYPE svg PUBLIC "-//W3C//DTD SVG 1.0//EN" "http://www.w3.org/TR/2001/REC-SVG-20010904/DTD/svg10.dtd">
<svg xmlns="http://www.w3.org/2000/svg" xmlns:xlink="http://www.w3.org/1999/xlink" fill-rule="evenodd" height="1.617in" preserveAspectRatio="none" stroke-linecap="round" viewBox="0 0 1359 1617" width="1.359in">
<style type="text/css">
.brush0 { fill: rgb(255,255,255); }
.pen0 { stroke: rgb(0,0,0); stroke-width: 1; stroke-linejoin: round; }
.brush1 { fill: none; }
.pen1 { stroke: none; }
.brush2 { fill: rgb(0,0,0); }
</style>
<g>
<polygon class="pen1 brush2" points="228,20 232,17 237,14 244,11 251,8 258,5 265,3 270,2 273,2 277,2 285,3 295,3 305,3 316,3 326,3 333,4 337,4 342,5 348,8 353,11 356,15 359,29 365,55 370,80 373,94 379,94 391,94 406,95 423,95 440,96 456,97 468,98 476,99 478,89 478,76 477,64 473,56 478,47 484,40 491,34 499,31 505,30 513,29 523,27 533,26 543,25 552,25 559,24 563,24 569,25 575,27 582,30 587,35 592,43 597,52 602,61 604,68 613,67 625,65 637,64 650,62 663,60 675,58 685,57 693,57 700,57 710,59 721,61 733,64 745,67 755,71 764,76 770,80 776,86 785,95 795,107 806,120 816,135 825,150 831,166 834,181 830,188 827,196 825,207 825,218 827,236 830,259 834,281 835,295 833,322 831,373 827,424 824,453 818,480 810,529 802,576 798,599 801,622 805,645 807,664 806,676 802,691 795,716 788,744 785,767 785,787 785,809 786,830 786,846 789,865 794,892 800,918 802,934 802,944 802,955 802,965 800,973 800,977 803,982 807,988 812,994 818,1001 823,1007 827,1013 829,1017 834,1032 841,1055 846,1076 844,1087 848,1094 852,1101 856,1107 861,1112 865,1117 869,1121 872,1124 875,1127 881,1132 892,1140 906,1151 922,1163 937,1175 950,1185 959,1194 963,1199 965,1206 968,1216 973,1227 979,1237 986,1243 999,1254 1016,1268 1035,1284 1054,1301 1072,1317 1086,1331 1095,1342 1108,1345 1123,1350 1140,1356 1157,1362 1173,1368 1187,1373 1198,1377 1206,1379 1212,1380 1219,1381 1226,1382 1233,1382 1241,1383 1247,1384 1253,1385 1257,1386 1263,1390 1268,1395 1271,1401 1274,1404 1278,1407 1286,1413 1297,1422 1310,1431 1323,1442 1333,1451 1341,1459 1344,1465 1344,1474 1344,1482 1342,1490 1339,1497 1344,1505 1351,1515 1356,1525 1357,1533 1356,1536 1353,1540 1349,1546 1345,1552 1340,1558 1334,1563 1328,1568 1321,1572 1310,1576 1298,1579 1286,1580 1274,1581 1263,1582 1253,1582 1245,1582 1239,1582 1229,1584 1214,1586 1196,1588 1177,1590 1159,1591 1143,1593 1132,1594 1126,1595 1121,1597 1111,1599 1098,1603 1082,1606 1066,1610 1050,1613 1036,1615 1025,1616 1013,1616 996,1616 976,1616 955,1616 934,1616 915,1615 899,1614 888,1612 883,1611 875,1610 865,1610 853,1609 840,1608 825,1607 810,1606 795,1605 780,1605 765,1604 751,1604 738,1603 727,1603 717,1603 709,1604 704,1604 692,1595 681,1586 670,1578 660,1570 650,1563 641,1556 634,1551 628,1547 618,1540 609,1533 603,1528 599,1523 597,1520 592,1517 587,1512 580,1508 574,1503 569,1500 565,1497 564,1496 558,1495 553,1494 549,1493 545,1492 541,1492 537,1492 533,1493 529,1495 522,1498 512,1501 499,1506 484,1511 469,1516 455,1521 442,1526 433,1529 419,1522 400,1513 378,1504 356,1493 335,1484 317,1474 303,1467 297,1461 292,1437 286,1415 281,1394 277,1375 272,1358 269,1344 266,1333 265,1326 263,1317 259,1304 253,1287 247,1269 241,1251 235,1236 231,1224 228,1217 228,1190 234,1138 240,1087 244,1060 238,1063 231,1064 223,1063 215,1062 211,1079 207,1100 202,1119 196,1130 188,1127 180,1124 170,1119 161,1113 152,1108 144,1103 138,1098 135,1094 129,1100 121,1106 112,1112 104,1118 95,1123 88,1127 82,1130 79,1131 76,1117 75,1096 75,1075 75,1061 64,1061 51,1060 39,1058 27,1057 17,1055 8,1053 3,1050 0,1048 3,1042 7,1035 12,1026 17,1017 23,1008 29,1000 33,994 37,991 32,984 27,977 22,968 17,960 12,952 8,944 6,938 5,934 13,931 21,929 30,927 39,925 48,924 57,924 65,923 72,923 73,907 76,886 81,868 86,858 91,860 98,863 105,868 112,874 119,880 126,886 131,892 135,896 140,891 147,885 154,880 162,875 169,870 176,866 180,864 183,863 194,877 203,892 209,905 212,916 217,916 224,915 230,915 236,915 231,906 224,893 218,879 215,867 215,846 215,810 215,774 215,750 215,677 215,532 215,389 215,321 206,304 197,286 190,267 187,246 186,209 186,181 189,156 197,129 202,119 209,110 216,102 221,99 223,98 226,97 229,96 233,95 237,95 241,95 246,95 251,97 247,80 239,56 231,33 228,20"/>
<polygon class="pen1 brush0" points="177,949 172,944 167,939 162,935 158,934 152,934 145,934 138,934 134,933 130,939 120,950 112,962 109,968 112,971 116,974 118,977 117,980 112,986 104,994 99,1003 99,1009 104,1011 111,1013 117,1015 120,1016 121,1017 122,1019 122,1021 121,1023 118,1026 114,1028 110,1031 109,1034 111,1037 114,1043 119,1048 125,1052 129,1053 135,1053 141,1053 148,1053 154,1053 160,1052 165,1052 169,1051 172,1049 177,1046 182,1042 188,1037 193,1033 197,1029 201,1026 202,1024 202,1021 202,1018 202,1016 201,1013 199,1013 195,1014 190,1016 184,1019 178,1022 172,1024 168,1026 165,1027 159,1032 150,1036 142,1040 137,1039 133,1028 127,1011 121,995 119,987 120,985 122,981 124,977 126,975 130,971 135,964 140,957 142,952 145,951 149,951 154,951 160,950 165,950 170,950 174,950 177,949"/>
<polygon class="pen1 brush0" points="155,970 158,968 162,965 165,963 167,962 170,964 174,967 179,970 183,971 185,970 189,969 194,968 199,967 205,966 210,965 214,965 216,966 218,968 222,972 227,977 232,982 237,987 242,992 245,996 246,998 245,1001 244,1005 243,1009 242,1012 237,1008 230,1004 222,999 214,995 206,991 198,988 192,986 188,986 184,988 179,991 173,996 166,1000 159,1004 153,1008 148,1012 145,1014 141,1011 138,1006 136,1002 135,999 136,997 137,994 139,992 141,991 144,992 149,994 153,996 156,996 159,994 162,990 164,987 164,984 161,980 157,976 155,972 155,970"/>
<polygon class="pen1 brush0" points="282,34 286,34 291,33 297,33 302,32 306,32 311,31 314,31 316,31 320,36 324,41 329,45 333,47 333,53 335,64 337,77 341,92 346,109 352,126 359,142 368,156 364,158 358,160 352,161 345,162 338,163 332,164 327,164 324,163 319,161 316,156 315,151 315,148 317,146 319,144 322,141 324,140 326,138 328,136 328,134 326,133 322,133 317,133 312,132 310,131 309,129 308,125 307,122 309,119 313,116 317,113 321,109 323,107 324,104 325,102 324,100 321,100 316,100 310,100 304,99 300,96 298,91 296,86 296,81 297,77 300,75 303,72 306,68 307,65 302,59 293,50 286,41 282,34"/>
<polygon class="pen1 brush0" points="515,56 519,55 525,53 532,51 539,49 546,46 552,44 556,43 558,43 556,45 551,48 546,50 543,52 546,59 550,66 553,72 555,75 557,75 559,75 560,75 561,75 561,81 557,82 549,83 539,85 529,86 518,88 510,90 503,91 501,91 505,89 514,84 523,79 529,77 532,75 534,72 535,68 533,67 528,67 523,66 518,66 516,66 516,64 516,61 515,59 515,56"/>
<polygon class="pen1 brush0" points="262,133 265,139 268,148 273,159 278,171 283,183 289,193 294,202 299,207 303,208 308,208 312,208 317,208 321,208 325,207 329,207 331,207 337,230 342,256 346,279 348,294 349,309 351,331 352,356 352,376 351,402 350,439 351,478 354,506 359,530 365,559 369,588 372,607 373,623 374,643 376,664 376,685 376,707 376,732 376,755 376,771 376,786 377,806 377,826 376,844 375,860 376,876 377,890 378,900 380,910 381,923 381,934 381,943 381,953 382,970 385,990 389,1006 380,1004 370,1002 358,999 347,996 336,992 327,989 321,984 317,980 321,978 327,975 335,973 343,971 351,969 359,967 364,966 367,966 367,963 367,959 366,955 364,954 360,954 353,955 343,956 332,957 321,959 311,959 303,960 299,960 297,952 295,943 294,937 295,932 298,927 304,919 311,912 316,909 319,908 324,907 331,905 338,903 346,901 352,899 357,898 360,897 361,893 362,890 362,887 360,886 357,886 353,887 347,888 341,889 334,891 327,892 321,893 316,893 312,893 307,891 301,890 295,888 290,885 285,883 281,880 278,878 274,872 271,866 271,859 274,854 280,850 288,847 299,843 310,841 321,839 331,837 338,836 341,836 345,831 351,827 355,823 354,821 351,821 347,821 342,821 336,820 330,820 324,819 318,818 314,817 309,815 303,813 295,810 287,807 279,804 273,802 268,799 266,797 266,792 265,786 266,780 268,777 271,776 276,774 282,771 290,769 297,766 304,764 310,763 314,762 316,760 316,756 316,754 312,754 308,755 301,755 293,756 284,757 275,757 267,757 261,756 258,754 255,747 253,736 253,725 257,718 263,716 273,714 285,712 299,710 311,708 323,706 331,705 334,704 337,701 341,697 344,693 346,690 345,687 344,686 341,686 338,688 329,688 321,687 315,686 309,685 305,685 300,684 293,683 286,683 279,682 272,681 267,681 263,681 261,676 261,668 262,661 265,655 270,652 278,648 289,643 301,638 313,633 324,629 333,626 338,623 345,618 352,613 358,608 359,605 357,604 353,604 349,606 346,607 344,608 340,609 336,609 330,610 325,611 319,611 313,612 308,612 303,611 296,609 289,605 282,601 276,596 271,592 269,588 269,585 274,580 280,575 286,571 291,570 296,570 300,569 303,567 304,565 303,563 301,561 299,560 295,559 292,559 286,558 279,556 272,553 265,550 259,546 256,542 255,536 258,526 262,518 269,513 278,510 284,509 290,508 297,506 305,505 312,503 319,502 326,501 331,501 332,498 333,496 332,493 331,491 325,491 318,490 310,490 302,489 295,488 288,487 283,486 279,484 272,480 265,475 260,469 259,463 261,458 263,454 268,451 277,448 283,446 289,444 295,442 301,440 306,438 311,436 314,434 315,433 316,430 316,427 315,423 313,422 310,422 306,421 300,420 293,418 286,417 280,415 274,414 269,412 262,407 257,400 259,391 268,382 275,378 282,374 289,370 295,367 301,365 307,363 311,362 315,361 321,359 327,356 331,353 333,351 334,349 335,346 335,344 332,342 328,342 322,342 314,342 306,342 297,342 289,342 282,341 277,340 269,338 263,336 259,333 257,329 257,323 257,317 259,311 265,306 269,303 274,301 278,299 283,297 287,295 291,294 294,293 297,293 302,292 306,290 308,288 309,285 308,282 305,278 300,275 295,273 291,273 286,272 280,272 273,271 266,270 260,270 254,269 249,269 240,267 232,262 225,256 223,249 226,242 231,235 238,229 245,225 251,222 258,218 263,216 268,215 270,212 270,207 267,201 264,198 261,198 257,196 252,195 247,192 241,190 236,187 233,185 232,183 232,179 232,174 233,170 236,167 238,161 240,153 241,144 243,139 246,136 252,133 258,131 262,133"/>
<polygon class="pen1 brush0" points="279,1281 284,1283 293,1287 306,1293 321,1300 335,1307 348,1313 359,1318 365,1320 370,1321 378,1323 388,1326 400,1329 411,1332 422,1334 430,1336 436,1338 439,1361 440,1382 439,1399 437,1411 433,1428 427,1454 419,1479 411,1495 401,1492 390,1488 377,1483 363,1477 350,1471 337,1463 325,1455 316,1446 312,1430 307,1408 301,1382 295,1355 288,1329 283,1306 280,1289 279,1281"/>
<polygon class="pen1 brush0" points="605,1431 611,1439 623,1452 638,1470 656,1488 673,1507 688,1523 700,1535 705,1540 710,1543 717,1547 725,1551 732,1554 735,1555 741,1556 750,1557 761,1559 775,1560 789,1563 805,1565 821,1567 837,1569 853,1571 868,1573 881,1575 894,1576 904,1578 911,1579 916,1579 921,1579 930,1579 941,1578 955,1577 972,1576 989,1575 1008,1574 1028,1572 1047,1571 1067,1570 1085,1568 1103,1567 1118,1566 1132,1566 1142,1565 1150,1565 1164,1564 1182,1563 1203,1560 1224,1557 1244,1554 1262,1551 1275,1549 1282,1548 1286,1546 1292,1543 1298,1538 1305,1533 1312,1527 1318,1521 1322,1516 1325,1511 1330,1517 1333,1523 1335,1529 1336,1533 1334,1535 1327,1539 1317,1545 1306,1551 1294,1557 1282,1562 1272,1565 1265,1567 1257,1568 1246,1569 1234,1570 1220,1571 1206,1572 1194,1573 1184,1574 1178,1575 1174,1575 1165,1576 1153,1577 1138,1578 1121,1579 1101,1581 1081,1582 1060,1584 1038,1585 1018,1587 998,1588 981,1590 965,1591 953,1592 944,1593 939,1594 931,1595 918,1595 902,1593 885,1592 867,1590 852,1588 840,1587 833,1586 827,1585 816,1584 802,1582 787,1581 770,1579 754,1579 738,1580 725,1582 721,1578 713,1571 703,1564 691,1555 680,1548 670,1541 663,1536 659,1534 656,1532 652,1526 646,1519 640,1510 633,1502 628,1495 624,1489 621,1487 615,1484 606,1478 597,1472 592,1467 590,1462 587,1455 586,1449 585,1444 591,1449 599,1458 607,1465 612,1469 610,1460 607,1448 605,1436 605,1430 605,1431"/>
<polygon class="pen1 brush0" points="323,1032 329,1033 340,1036 356,1040 373,1046 390,1051 405,1055 415,1059 419,1060 425,1062 434,1065 444,1067 454,1070 464,1073 472,1075 479,1078 482,1079 486,1081 493,1084 499,1087 503,1089 507,1089 511,1089 515,1088 518,1086 522,1087 528,1089 535,1090 543,1092 551,1094 558,1096 564,1097 567,1099 570,1098 574,1096 579,1095 585,1093 591,1091 596,1090 600,1090 603,1090 608,1091 615,1092 621,1094 624,1095 622,1099 620,1103 618,1106 616,1108 613,1108 606,1107 597,1105 586,1104 575,1102 565,1101 557,1100 552,1099 547,1098 539,1097 529,1095 517,1094 505,1092 494,1091 485,1089 479,1088 472,1086 459,1083 442,1078 424,1073 406,1068 390,1063 379,1059 373,1057 370,1056 365,1054 359,1051 353,1049 346,1046 339,1044 334,1043 330,1042 325,1040 320,1037 319,1034 323,1032"/>
<polygon class="pen1 brush0" points="643,1088 645,1087 649,1087 651,1087 652,1087 650,1090 648,1094 645,1099 643,1102 642,1103 640,1104 637,1104 635,1104 635,1102 638,1097 641,1091 643,1088"/>
<polygon class="pen1 brush0" points="665,1087 668,1087 672,1087 676,1087 678,1087 677,1089 674,1094 671,1099 670,1103 665,1104 659,1104 654,1104 651,1104 653,1100 658,1095 662,1090 665,1087"/>
<polygon class="pen1 brush0" points="682,1098 684,1094 688,1087 691,1082 694,1079 696,1078 699,1078 701,1078 703,1078 701,1083 698,1089 694,1095 691,1098 689,1098 687,1098 685,1098 682,1098"/>
<polygon class="pen1 brush0" points="700,1096 703,1093 707,1088 711,1084 714,1082 715,1084 714,1087 713,1092 711,1095 708,1095 705,1095 702,1096 700,1096"/>
<polygon class="pen1 brush0" points="722,1095 724,1090 726,1084 729,1078 731,1074 738,1071 747,1066 755,1061 759,1060 760,1061 760,1063 762,1064 764,1064 766,1063 767,1061 768,1059 769,1057 773,1056 782,1055 791,1055 795,1056 795,1059 794,1061 795,1063 796,1064 798,1063 801,1062 804,1059 806,1057 807,1058 808,1060 808,1062 808,1064 802,1067 791,1071 777,1076 762,1082 747,1087 735,1092 726,1094 722,1095"/>
<polygon class="pen1 brush0" points="792,1051 792,1048 793,1045 795,1043 796,1042 797,1042 798,1044 799,1046 799,1048 798,1050 796,1051 794,1051 792,1051"/>
<polygon class="pen1 brush0" points="300,1072 304,1073 312,1075 321,1077 333,1080 346,1084 360,1087 375,1091 390,1095 405,1098 420,1102 434,1105 447,1108 458,1111 467,1113 474,1114 478,1115 487,1116 503,1118 523,1121 545,1124 568,1127 588,1129 604,1131 613,1131 621,1131 632,1129 645,1128 660,1125 673,1123 685,1122 694,1120 698,1120 702,1119 711,1118 723,1116 736,1113 749,1111 761,1109 770,1107 774,1106 777,1105 784,1104 792,1102 801,1099 809,1097 817,1096 822,1095 824,1095 826,1106 831,1121 836,1135 840,1142 846,1147 855,1153 866,1162 879,1170 891,1179 901,1187 910,1194 914,1198 921,1205 928,1215 934,1223 936,1229 935,1233 934,1236 932,1239 929,1240 926,1241 923,1242 918,1244 913,1246 908,1249 903,1251 899,1252 895,1253 891,1253 885,1252 877,1250 869,1249 861,1248 854,1247 848,1246 844,1247 839,1249 832,1252 824,1257 814,1262 805,1266 796,1270 789,1273 785,1274 781,1274 776,1274 770,1273 763,1272 756,1272 750,1271 746,1270 743,1270 740,1271 737,1274 737,1277 739,1278 742,1278 747,1279 753,1280 760,1280 766,1281 772,1282 777,1283 781,1283 786,1283 794,1283 805,1282 817,1280 829,1279 840,1277 850,1276 856,1276 861,1276 866,1276 872,1276 878,1276 885,1277 891,1277 898,1278 904,1280 908,1278 913,1275 918,1272 924,1268 930,1264 935,1261 938,1258 940,1257 944,1256 950,1256 957,1256 963,1256 969,1265 977,1274 984,1282 988,1285 988,1285 986,1286 982,1287 978,1287 973,1288 968,1288 963,1288 958,1287 954,1288 950,1289 946,1291 943,1292 939,1294 935,1297 931,1299 928,1301 923,1302 916,1303 908,1303 899,1303 890,1303 882,1303 877,1303 874,1303 871,1304 865,1306 858,1309 851,1312 844,1315 837,1318 832,1320 829,1322 828,1325 828,1328 828,1330 828,1331 832,1330 837,1329 842,1328 848,1326 853,1325 858,1324 862,1323 864,1323 867,1324 873,1324 881,1325 889,1326 897,1326 904,1327 909,1327 911,1327 915,1323 921,1319 926,1316 930,1315 933,1317 938,1318 943,1320 949,1321 955,1323 960,1324 964,1324 967,1324 971,1323 977,1321 985,1319 994,1316 1002,1314 1010,1312 1016,1310 1019,1309 1026,1316 1032,1323 1037,1330 1040,1334 1036,1336 1031,1340 1026,1346 1020,1352 1015,1358 1010,1363 1006,1367 1004,1370 1000,1371 994,1373 988,1374 981,1375 974,1377 969,1378 964,1378 962,1379 959,1379 953,1379 945,1378 937,1377 929,1377 921,1376 915,1376 912,1376 910,1377 906,1377 902,1378 897,1379 892,1380 887,1381 883,1382 880,1382 879,1384 879,1386 879,1388 879,1390 887,1389 899,1389 914,1388 931,1387 947,1386 960,1386 970,1385 975,1385 979,1385 985,1384 991,1384 997,1383 1004,1383 1010,1382 1016,1382 1021,1382 1024,1381 1028,1379 1034,1377 1039,1374 1044,1370 1049,1367 1052,1365 1054,1363 1058,1364 1064,1365 1072,1366 1082,1368 1093,1371 1106,1374 1119,1377 1132,1380 1146,1383 1159,1387 1172,1390 1184,1394 1195,1397 1205,1401 1213,1404 1219,1407 1231,1414 1244,1422 1258,1431 1271,1440 1284,1448 1294,1455 1302,1461 1305,1464 1308,1471 1310,1481 1309,1491 1305,1498 1301,1501 1295,1506 1287,1510 1279,1515 1270,1519 1262,1522 1254,1523 1247,1521 1242,1523 1234,1527 1224,1530 1212,1534 1199,1537 1187,1539 1175,1539 1164,1538 1157,1539 1146,1540 1133,1541 1117,1543 1099,1544 1079,1545 1059,1547 1039,1548 1019,1549 999,1550 981,1551 965,1552 952,1552 941,1552 934,1552 931,1552 929,1551 925,1550 918,1549 909,1547 899,1545 887,1542 874,1540 860,1538 844,1535 829,1533 813,1532 797,1530 781,1529 766,1529 751,1529 737,1530 732,1525 723,1515 712,1503 700,1490 687,1475 675,1462 664,1450 656,1441 646,1431 631,1415 611,1398 590,1378 568,1360 546,1345 527,1333 512,1328 501,1327 489,1324 475,1321 459,1316 443,1312 426,1307 409,1301 392,1296 376,1290 361,1285 347,1280 335,1275 324,1271 317,1268 312,1265 310,1264 309,1261 307,1256 305,1251 304,1247 306,1244 310,1240 314,1237 318,1235 321,1234 324,1234 329,1233 334,1232 339,1231 344,1230 349,1230 352,1230 354,1228 356,1225 356,1221 353,1218 350,1217 346,1216 341,1214 336,1212 331,1211 326,1209 321,1207 317,1206 316,1199 316,1190 318,1182 323,1175 327,1172 330,1170 334,1168 338,1166 342,1164 346,1163 349,1162 353,1162 359,1161 363,1156 363,1152 358,1149 353,1148 347,1147 339,1145 332,1144 325,1142 318,1141 314,1139 311,1138 307,1136 302,1133 298,1130 297,1125 300,1120 305,1117 312,1115 318,1115 322,1115 326,1115 331,1115 336,1115 340,1114 345,1114 348,1114 351,1115 352,1113 352,1111 352,1109 351,1108 345,1105 339,1103 333,1101 327,1098 322,1096 317,1094 314,1093 312,1091 308,1087 303,1081 299,1075 300,1072"/>
<polygon class="pen1 brush0" points="794,423 794,405 790,387 783,369 775,352 771,352 767,353 763,353 758,353 753,353 748,352 743,351 737,350 730,347 720,342 708,335 695,328 683,322 673,316 665,311 661,309 656,306 650,300 644,292 638,283 631,273 626,263 621,254 617,246 613,239 608,232 602,225 596,219 590,214 583,209 578,206 573,203 570,193 563,184 555,176 547,169 537,163 529,158 522,155 517,153 512,152 504,149 493,146 482,143 470,139 460,137 452,135 447,134 443,134 436,133 427,132 417,131 407,130 398,129 390,128 384,128 388,135 393,145 397,156 397,163 397,168 400,173 403,180 407,187 408,193 407,197 404,200 401,202 397,202 391,202 385,202 378,200 378,206 376,213 375,220 373,229 373,240 375,255 380,273 386,292 380,327 381,389 383,450 385,483 388,497 394,515 400,534 404,548 408,576 414,628 420,683 422,719 420,751 416,796 412,839 410,861 411,866 415,871 419,874 422,876 424,877 424,880 424,882 424,884 423,885 421,887 419,888 416,890 415,895 416,903 418,912 420,919 422,923 426,926 429,927 432,928 434,929 435,932 436,935 436,937 434,939 429,941 423,944 419,946 418,950 422,956 428,962 434,965 439,965 445,963 451,961 455,960 457,961 459,963 459,965 459,967 455,969 446,971 436,975 430,978 434,980 441,983 450,985 459,988 469,990 477,992 484,994 489,994 493,996 495,999 493,1003 488,1005 485,1005 481,1005 476,1005 472,1005 467,1006 463,1007 459,1008 455,1009 451,1012 451,1016 456,1020 465,1022 474,1023 488,1025 506,1028 525,1031 543,1034 559,1037 570,1038 574,1039 576,1039 579,1038 583,1038 588,1037 593,1037 599,1037 604,1036 608,1036 614,1036 625,1036 637,1036 652,1035 666,1035 678,1035 689,1035 695,1035 699,1035 704,1034 709,1033 715,1032 720,1031 725,1029 729,1028 732,1026 731,1025 731,1024 731,1022 732,1021 734,1019 738,1015 742,1011 746,1007 751,1001 756,996 761,990 765,984 770,973 772,963 771,955 770,951 767,941 762,920 757,898 753,883 752,864 756,835 761,807 763,789 761,774 758,753 753,732 749,716 751,705 757,686 764,666 772,651 772,644 772,634 771,624 770,616 771,608 772,599 773,589 775,579 781,532 783,514 787,492 791,471 796,452 794,423"/>
<polygon class="pen1 brush2" points="794,423 787,420 778,416 768,412 758,409 748,405 739,402 732,400 727,398 723,397 720,396 716,396 712,396 707,396 703,397 700,397 696,398 689,400 677,403 661,407 644,411 627,415 611,420 600,423 594,425 590,428 584,433 577,439 569,447 561,456 554,465 549,474 545,482 540,499 538,518 540,538 548,558 554,567 562,576 569,585 577,593 583,600 589,606 593,612 596,616 601,623 611,637 625,655 641,675 656,695 670,713 680,727 684,735 687,745 692,760 694,781 690,806 686,821 682,832 677,840 669,845 661,847 655,850 650,854 646,857 642,861 634,867 626,873 619,876 614,876 605,877 593,877 580,877 568,877 557,876 548,875 544,874 541,872 536,868 529,863 522,857 514,851 507,844 502,839 499,835 494,822 487,802 482,783 481,770 483,766 486,760 489,752 494,744 498,737 503,730 507,725 511,723 515,723 522,722 531,722 540,722 548,722 556,723 562,724 565,726 567,729 571,735 576,741 581,748 586,754 590,760 593,765 593,767 591,769 587,774 581,779 575,785 569,791 563,795 559,798 556,799 551,796 544,791 537,786 533,782 531,780 529,778 526,779 523,781 522,785 523,788 525,792 528,796 531,801 537,807 544,812 552,815 558,815 565,814 571,813 577,810 582,807 586,804 589,801 591,799 592,795 592,790 593,785 595,781 599,777 605,771 610,765 611,758 608,749 602,737 596,726 592,720 586,717 575,713 560,710 544,707 527,705 513,703 502,702 497,703 492,708 486,717 478,727 471,739 464,750 458,760 454,768 452,771 455,783 461,806 468,830 474,842 478,845 485,851 493,858 503,866 512,874 521,882 527,888 532,891 536,893 541,895 548,897 556,899 563,901 570,903 575,904 578,904 582,904 589,903 599,902 610,900 622,897 635,893 647,887 658,880 666,874 673,869 680,863 687,857 692,852 697,847 701,842 704,838 710,817 713,788 712,757 707,729 701,718 688,700 672,678 653,654 633,631 616,610 603,594 596,586 588,577 579,564 571,551 567,541 565,531 563,519 562,509 564,500 566,496 570,490 575,484 580,477 585,471 591,465 596,460 600,457 607,453 620,449 636,443 654,437 672,431 688,426 700,423 706,421 711,419 718,417 725,416 731,417 736,419 744,423 754,428 765,434 776,439 785,445 792,449 796,452 794,423"/>
<polygon class="pen1 brush2" points="781,532 778,525 773,517 768,508 762,499 756,490 750,483 745,478 742,475 739,474 735,472 731,471 726,470 720,469 715,469 710,469 706,470 701,472 694,475 687,478 679,482 672,485 666,489 661,492 659,494 655,502 649,514 643,526 639,534 639,541 642,551 646,561 651,569 654,572 658,576 664,582 671,589 679,595 687,601 694,605 700,607 704,607 710,606 718,604 726,602 733,599 740,596 745,593 747,590 748,580 748,568 746,555 742,546 737,540 731,533 723,529 714,527 706,528 700,529 694,532 691,535 690,539 690,543 691,546 695,548 701,547 707,544 713,541 717,540 720,542 723,545 726,550 727,554 727,560 728,567 727,574 725,578 722,580 717,581 712,582 707,583 701,584 697,584 693,584 691,583 687,577 680,566 672,555 665,547 666,534 669,521 673,511 678,506 681,505 687,503 695,501 703,499 712,498 719,497 725,496 728,497 731,499 735,503 741,508 747,513 753,520 759,526 763,532 765,536 768,547 771,561 773,573 775,579 781,532"/>
<polygon class="pen1 brush2" points="635,1394 637,1393 640,1392 644,1392 647,1395 651,1400 657,1407 661,1412 663,1416 663,1418 663,1420 661,1422 659,1422 653,1418 645,1409 637,1400 635,1394"/>
<polygon class="pen1 brush2" points="678,1435 681,1436 684,1439 688,1441 693,1445 698,1448 702,1451 705,1454 708,1456 711,1459 715,1463 720,1468 726,1474 731,1479 737,1484 741,1488 745,1490 752,1493 759,1496 764,1499 766,1502 763,1506 758,1510 751,1513 744,1513 739,1509 732,1502 724,1492 715,1481 706,1470 698,1461 692,1453 689,1450 684,1446 679,1441 675,1437 678,1435"/>
<polygon class="pen1 brush2" points="1187,1406 1191,1408 1198,1411 1207,1415 1216,1419 1224,1424 1232,1428 1237,1431 1240,1433 1239,1437 1235,1441 1231,1445 1228,1446 1225,1442 1220,1437 1214,1432 1207,1427 1201,1422 1195,1418 1191,1416 1188,1414 1185,1412 1183,1409 1183,1407 1187,1406"/>
<polygon class="pen1 brush2" points="1257,1442 1264,1445 1272,1450 1279,1454 1283,1458 1286,1463 1289,1469 1291,1475 1291,1481 1290,1486 1288,1490 1287,1493 1285,1495 1279,1492 1273,1489 1266,1487 1262,1485 1261,1479 1261,1469 1260,1460 1259,1454 1257,1451 1254,1449 1253,1447 1252,1445 1252,1444 1253,1443 1255,1442 1257,1442"/>
<polygon class="pen1 brush2" points="430,1244 436,1255 442,1266 446,1276 448,1282 447,1284 444,1286 439,1289 434,1292 429,1294 424,1296 419,1297 416,1297 413,1295 413,1293 415,1292 417,1291 420,1284 424,1270 428,1254 430,1244"/>
<polygon class="pen1 brush2" points="418,1265 415,1254 414,1243 413,1233 413,1225 413,1213 413,1195 411,1178 409,1169 411,1155 415,1137 419,1123 420,1115 418,1114 414,1111 408,1109 402,1106 396,1103 390,1101 386,1100 385,1101 385,1105 386,1109 387,1115 387,1122 385,1136 380,1158 374,1181 372,1195 374,1213 380,1243 386,1272 390,1285 395,1285 399,1284 404,1282 408,1281 411,1281 415,1280 417,1275 418,1265"/>
<polygon class="pen1 brush2" points="298,1308 297,1304 296,1300 296,1296 297,1295 299,1296 301,1298 302,1301 303,1303 303,1305 301,1308 300,1309 298,1308"/>
<polygon class="pen1 brush2" points="304,1329 307,1336 312,1348 317,1364 323,1382 329,1400 334,1416 338,1428 339,1434 340,1439 340,1443 339,1446 336,1446 331,1444 327,1442 323,1439 320,1436 317,1414 311,1379 306,1346 304,1329"/>
<polygon class="pen1 brush2" points="339,1370 343,1377 349,1386 353,1396 352,1401 349,1402 346,1401 344,1399 343,1396 341,1391 339,1385 337,1379 335,1375 335,1372 335,1369 337,1368 339,1370"/>
<polygon class="pen1 brush2" points="366,1414 369,1419 373,1425 379,1432 384,1440 390,1448 395,1454 398,1459 399,1462 398,1465 396,1467 393,1469 390,1470 385,1468 378,1464 370,1459 366,1454 363,1446 358,1433 354,1420 354,1413 357,1412 360,1411 363,1411 366,1414"/>
<polygon class="pen1 brush2" points="529,1000 531,998 534,996 537,996 541,997 546,999 557,1002 571,1005 586,1009 601,1012 614,1016 623,1018 626,1020 625,1022 623,1024 618,1025 613,1025 609,1025 605,1025 599,1024 593,1024 587,1024 582,1023 577,1023 574,1023 570,1023 564,1022 556,1021 547,1020 538,1019 530,1017 523,1015 519,1013 520,1010 523,1006 526,1003 529,1000"/>
<polygon class="pen1 brush2" points="740,916 745,923 749,934 752,945 753,954 752,965 748,978 744,990 739,996 733,996 726,995 719,994 714,991 717,988 720,986 721,983 723,979 726,973 731,966 734,959 736,954 736,948 737,938 738,928 737,922 736,919 737,916 738,915 740,916"/>
<polygon class="pen1 brush2" points="732,902 735,896 736,888 737,881 736,876 734,872 731,865 729,859 728,854 730,854 732,854 734,852 736,851 737,849 740,846 742,843 744,842 744,843 743,847 742,852 742,857 742,866 742,880 742,893 742,899 740,900 737,902 734,903 732,902"/>
<polygon class="pen1 brush2" points="410,461 413,462 417,465 420,469 421,473 421,478 421,485 421,492 421,497 422,500 423,504 424,508 421,510 416,509 413,505 411,499 411,492 410,483 409,473 409,465 410,461"/>
<polygon class="pen1 brush2" points="402,438 403,431 403,420 403,408 403,399 403,390 401,377 400,366 399,359 399,352 399,341 399,330 399,324 406,325 413,327 418,329 421,331 424,334 428,340 428,347 423,353 422,362 422,373 420,383 418,388 416,391 416,394 415,397 413,401 414,406 415,413 416,420 417,425 417,430 417,437 416,444 414,447 411,447 407,448 404,448 403,447 402,445 402,443 402,441 402,438"/>
<polygon class="pen1 brush2" points="420,141 427,142 435,144 444,147 452,150 460,153 466,156 472,159 476,162 479,165 484,168 489,172 495,176 500,180 505,183 509,185 511,186 511,189 510,191 508,193 505,191 502,189 497,187 490,184 484,182 477,179 471,177 466,175 463,174 460,173 456,172 451,171 446,170 441,170 436,170 432,171 430,173 427,174 425,174 423,172 422,169 421,164 421,158 420,154 419,150 418,147 418,144 418,142 420,141"/>
<polygon class="pen1 brush2" points="494,156 498,157 503,159 508,160 512,160 514,161 517,163 518,166 518,169 516,171 514,173 511,174 508,172 505,170 501,168 497,167 495,166 493,164 492,161 492,157 494,156"/>
<polygon class="pen1 brush2" points="523,179 527,182 532,186 538,191 543,197 549,204 553,210 556,216 557,222 556,226 553,227 551,227 549,223 546,217 539,210 531,203 522,200 521,195 521,188 521,182 523,179"/>
</g>
</svg>
