<?xml version="1.0" encoding="UTF-8" standalone="no"?>
<!DOCTYPE svg PUBLIC "-//W3C//DTD SVG 1.0//EN" "http://www.w3.org/TR/2001/REC-SVG-20010904/DTD/svg10.dtd">
<svg xmlns="http://www.w3.org/2000/svg" xmlns:xlink="http://www.w3.org/1999/xlink" fill-rule="evenodd" height="1.896in" preserveAspectRatio="none" stroke-linecap="round" viewBox="0 0 1184 1896" width="1.184in">
<style type="text/css">
.brush0 { fill: rgb(255,255,255); }
.pen0 { stroke: rgb(0,0,0); stroke-width: 1; stroke-linejoin: round; }
.brush1 { fill: none; }
.pen1 { stroke: none; }
.brush2 { fill: rgb(0,0,0); }
</style>
<g>
<polygon class="pen1 brush2" points="370,1322 814,1322 814,1410 370,1410 370,1322 370,1322"/>
<polygon class="pen1 brush2" points="814,1410 844,1407 865,1400 873,1395 880,1389 886,1384 888,1380 890,1377 896,1363 900,1348 903,1322 907,1301 908,1292 911,1282 912,1273 915,1264 918,1254 920,1245 923,1236 926,1227 929,1218 932,1208 935,1200 939,1191 942,1181 946,1173 950,1164 953,1155 956,1151 957,1146 959,1142 962,1138 963,1134 966,1129 968,1124 970,1120 972,1116 974,1112 976,1108 979,1103 980,1098 983,1094 985,1090 987,1086 990,1081 992,1077 994,1072 996,1068 999,1064 1002,1059 1003,1055 1006,1051 1008,1046 1011,1041 1013,1037 1015,1033 1018,1028 1020,1024 1023,1020 1025,1015 1028,1010 1030,1006 1033,1001 1035,997 1037,993 1040,988 1042,983 1045,978 1047,974 1050,969 1052,965 1055,960 1058,956 1060,951 1063,946 1065,942 1068,937 1070,932 1073,928 1075,923 1078,918 1080,913 1083,909 1086,903 1088,898 1091,893 1093,888 1096,883 1097,878 1101,873 1103,868 1105,863 1108,858 1110,852 1113,847 1115,842 1118,837 1120,831 1123,826 1125,820 1130,810 1135,799 1139,788 1144,776 1148,765 1153,753 1157,742 1162,730 1166,717 1170,706 1174,680 1177,657 1181,610 1184,565 1184,544 1184,523 1181,482 1179,463 1176,444 1173,425 1170,407 1168,399 1165,389 1164,381 1161,373 1159,363 1156,355 1153,347 1151,339 1147,331 1144,323 1138,308 1136,304 1135,300 1133,296 1131,293 1130,289 1128,285 1126,281 1124,278 1122,274 1120,271 1119,268 1116,263 1114,260 1113,257 1110,253 1108,250 1106,247 1104,243 1102,240 1100,237 1097,233 1096,230 1093,227 1091,224 1089,221 1086,217 1085,214 1082,211 1077,205 1075,202 1072,199 1070,196 1068,193 1063,187 1060,185 1058,181 1055,179 1052,176 1050,173 1047,170 1042,165 1036,159 1031,154 1025,149 1020,144 1014,139 1008,134 1003,130 997,125 991,121 985,117 979,112 973,107 967,103 961,99 954,96 948,92 941,87 935,84 929,81 922,76 916,73 909,70 902,66 895,64 889,60 882,57 875,55 868,51 862,49 854,46 840,41 826,36 811,32 798,28 783,24 768,20 754,17 739,14 725,11 710,8 680,5 651,3 592,0 533,2 474,8 445,14 430,16 416,19 401,24 387,27 372,31 358,35 344,40 330,45 316,51 309,54 302,57 295,60 288,63 282,66 275,70 268,73 262,76 255,80 249,83 243,87 236,92 230,95 223,99 217,103 211,107 205,112 199,116 193,120 187,125 181,129 176,134 170,139 164,144 159,149 153,154 148,159 142,164 137,170 131,175 129,179 126,181 124,184 121,187 119,190 116,193 114,196 111,199 107,205 104,208 102,211 99,214 98,217 95,220 92,223 88,230 87,233 84,237 81,239 80,243 77,247 75,250 74,253 71,257 70,260 68,263 65,267 64,270 62,274 60,278 58,281 56,285 54,289 53,292 51,296 49,300 47,304 46,307 39,323 33,339 28,355 23,372 18,389 14,407 10,425 8,444 3,482 0,523 0,544 0,565 3,610 4,633 7,657 10,680 14,706 18,717 22,730 26,742 31,753 36,765 40,776 45,788 49,799 54,810 59,821 61,826 64,831 66,837 69,842 71,847 74,853 75,858 78,863 81,868 83,873 86,878 88,883 91,888 93,893 96,898 98,903 101,909 103,914 105,919 108,923 110,928 113,933 115,938 118,942 120,947 123,952 126,956 128,961 131,965 133,970 136,974 138,979 141,984 143,989 146,993 148,998 151,1002 153,1007 155,1011 158,1015 160,1020 163,1025 165,1030 168,1034 170,1038 172,1042 175,1047 177,1051 180,1056 182,1061 184,1065 187,1069 188,1073 191,1077 193,1082 196,1087 198,1091 200,1095 202,1099 204,1104 207,1108 209,1113 211,1117 213,1121 215,1126 217,1130 219,1134 221,1139 223,1143 226,1148 227,1152 229,1156 233,1166 237,1174 240,1182 244,1192 248,1201 251,1209 254,1218 257,1228 260,1237 263,1245 266,1254 268,1264 271,1274 273,1283 275,1292 277,1302 281,1322 284,1349 286,1357 288,1363 290,1371 292,1374 294,1378 296,1381 299,1384 301,1387 304,1390 307,1393 311,1395 319,1400 329,1404 340,1407 370,1410 459,1322 428,1318 406,1311 395,1306 387,1301 380,1295 377,1291 373,1288 371,1285 368,1281 366,1278 364,1274 362,1270 360,1266 357,1259 352,1244 348,1232 345,1222 342,1212 339,1202 335,1192 331,1182 327,1172 324,1163 320,1154 316,1145 313,1135 309,1126 305,1117 303,1113 301,1108 299,1103 297,1099 294,1095 293,1091 290,1086 288,1082 287,1077 284,1073 283,1069 280,1065 278,1061 276,1056 274,1052 271,1048 270,1044 267,1040 266,1035 263,1031 260,1027 259,1024 256,1020 255,1015 252,1011 250,1007 248,1004 245,999 243,995 241,991 239,988 237,983 235,979 232,976 230,972 228,968 226,964 224,960 221,956 220,952 217,948 215,944 213,941 210,937 209,934 206,929 204,926 202,922 199,919 198,914 196,910 193,907 191,903 189,899 187,895 185,892 183,888 181,884 179,880 176,877 175,872 173,869 171,865 169,862 167,857 165,854 163,850 160,846 159,842 157,839 155,835 154,831 151,827 149,824 148,820 146,815 144,812 143,808 140,804 138,800 137,797 135,793 131,785 126,769 119,753 113,737 108,721 103,706 98,693 95,680 92,668 89,654 85,629 81,602 81,550 82,523 86,497 87,484 90,471 93,458 96,445 100,432 103,419 109,407 113,394 118,382 120,375 122,373 124,369 125,366 126,362 128,360 129,357 131,354 132,351 134,347 136,345 137,341 139,339 140,336 142,332 144,330 146,326 148,324 149,321 151,318 153,315 154,312 156,310 158,306 160,304 162,300 164,298 166,295 168,292 170,289 172,287 174,284 176,281 178,279 181,275 182,273 185,270 189,264 193,259 198,254 203,249 208,243 212,238 217,233 222,228 227,223 232,219 238,214 243,210 249,205 255,200 260,196 266,191 271,187 277,183 283,179 289,175 295,170 302,166 308,163 315,159 321,155 327,151 334,148 341,144 348,141 355,138 361,134 369,132 376,128 383,126 390,123 398,120 406,118 421,112 437,108 452,104 469,101 485,97 502,95 520,92 554,90 592,88 664,92 699,97 715,101 732,104 747,108 763,112 778,118 793,123 808,128 815,132 822,134 829,138 836,141 843,144 850,148 856,151 863,155 869,159 876,163 882,166 889,170 895,175 901,179 907,183 912,187 918,191 924,196 929,200 935,205 940,210 946,214 951,219 957,223 962,228 967,233 972,238 976,243 981,249 985,254 991,259 995,264 999,270 1003,275 1007,281 1012,287 1014,289 1016,292 1018,295 1020,298 1022,300 1024,304 1025,306 1028,310 1030,312 1031,315 1033,318 1035,321 1036,324 1038,326 1040,330 1042,332 1043,336 1045,339 1047,341 1048,345 1052,351 1053,354 1055,357 1056,360 1058,362 1059,366 1060,369 1062,373 1063,375 1066,382 1071,394 1075,407 1080,419 1084,432 1088,445 1091,458 1094,471 1098,497 1103,550 1102,602 1099,629 1097,642 1095,654 1092,668 1089,680 1085,693 1081,706 1079,713 1076,721 1074,730 1071,737 1069,746 1065,753 1059,769 1053,785 1047,800 1045,804 1043,808 1041,812 1040,815 1038,820 1035,824 1034,827 1032,831 1030,835 1028,839 1026,842 1024,846 1022,850 1020,854 1019,857 1016,862 1014,865 1013,869 1010,872 1008,877 1006,880 1004,884 1002,888 1000,892 997,895 996,899 993,903 991,907 989,910 987,914 985,919 983,922 980,926 978,929 976,934 974,937 972,941 969,945 967,948 965,952 963,956 960,960 958,964 956,968 953,972 951,976 949,979 946,983 944,988 942,991 940,995 938,999 935,1004 933,1007 930,1011 929,1015 926,1020 923,1024 922,1028 919,1031 917,1035 915,1040 912,1044 910,1048 908,1052 906,1056 903,1061 901,1065 899,1069 896,1073 895,1077 892,1082 890,1087 888,1091 885,1095 884,1099 881,1104 879,1108 877,1113 875,1117 873,1122 871,1126 868,1131 867,1135 864,1140 862,1145 860,1150 858,1154 854,1163 850,1173 846,1182 842,1192 839,1202 834,1212 831,1222 828,1232 823,1245 819,1259 817,1267 813,1275 811,1278 810,1282 807,1285 806,1289 803,1292 800,1296 797,1299 794,1301 790,1305 786,1307 782,1310 777,1312 767,1316 755,1319 725,1322 814,1410 814,1410"/>
<polygon class="pen1 brush2" points="459,1322 370,617 417,529 502,1322 459,1322 459,1322"/>
<polygon class="pen1 brush2" points="725,1322 814,617 767,529 678,1322 725,1322 725,1322"/>
<polygon class="pen1 brush2" points="370,617 417,529 459,617 502,529 548,617 592,529 636,617 678,529 725,617 767,529 814,617 814,529 767,440 725,529 678,440 636,546 592,440 548,529 502,440 459,529 417,440 370,529 370,617 370,617"/>
<polygon class="pen1 brush2" points="331,1613 859,1587 876,1583 883,1579 890,1573 894,1566 896,1562 898,1559 901,1541 901,1541 899,1533 895,1525 894,1521 891,1517 888,1514 885,1511 882,1509 879,1506 870,1503 862,1500 853,1499 325,1526 308,1530 301,1535 294,1540 289,1547 288,1551 286,1555 283,1572 283,1572 285,1581 288,1589 290,1592 293,1596 296,1599 299,1603 302,1605 305,1608 314,1611 322,1613 331,1613 331,1613"/>
<polygon class="pen1 brush2" points="327,1322 327,1716 373,1716 373,1322 327,1322 327,1322"/>
<polygon class="pen1 brush2" points="814,1322 814,1716 861,1716 861,1322 814,1322 814,1322"/>
<polygon class="pen1 brush2" points="331,1739 859,1713 876,1709 883,1705 890,1699 894,1692 896,1688 898,1685 901,1667 901,1667 899,1659 895,1650 894,1647 891,1644 888,1640 885,1637 882,1634 879,1632 870,1629 862,1626 853,1626 325,1652 308,1656 301,1660 294,1666 289,1673 288,1676 286,1681 283,1698 283,1698 285,1707 288,1715 290,1718 293,1722 296,1725 299,1728 302,1731 305,1733 314,1737 322,1739 331,1739 331,1739"/>
<polygon class="pen1 brush2" points="331,1495 859,1469 876,1465 883,1461 890,1455 894,1448 896,1444 898,1441 901,1423 901,1423 899,1415 895,1406 894,1403 891,1399 888,1396 885,1393 882,1390 879,1388 870,1384 862,1382 853,1382 325,1408 308,1412 301,1416 294,1422 289,1429 288,1432 286,1436 283,1454 283,1454 285,1462 288,1471 290,1474 293,1478 296,1481 299,1484 302,1487 305,1489 314,1493 322,1495 331,1495 331,1495"/>
<polygon class="pen1 brush2" points="327,1716 417,1805 767,1805 861,1716 767,1716 725,1762 459,1762 417,1716 327,1716 327,1716"/>
<polygon class="pen1 brush2" points="459,1790 548,1896 636,1896 725,1790 678,1790 618,1850 562,1850 502,1790 459,1790 459,1790"/>
</g>
</svg>
