<?xml version="1.0" encoding="UTF-8" standalone="no"?>
<!DOCTYPE svg PUBLIC "-//W3C//DTD SVG 1.0//EN" "http://www.w3.org/TR/2001/REC-SVG-20010904/DTD/svg10.dtd">
<svg xmlns="http://www.w3.org/2000/svg" xmlns:xlink="http://www.w3.org/1999/xlink" fill-rule="evenodd" height="1.794in" preserveAspectRatio="none" stroke-linecap="round" viewBox="0 0 1493 1794" width="1.493in">
<style type="text/css">
.brush0 { fill: rgb(255,255,255); }
.pen0 { stroke: rgb(0,0,0); stroke-width: 1; stroke-linejoin: round; }
.brush1 { fill: none; }
.pen1 { stroke: none; }
.brush2 { fill: rgb(0,0,0); }
</style>
<g>
<polygon class="pen1 brush2" points="56,264 1247,264 1253,255 1264,234 1272,211 1275,189 1277,166 1275,143 1268,120 1260,99 1247,78 1297,0 1314,26 1328,52 1340,81 1348,110 1353,141 1356,172 1353,202 1348,231 1341,261 1329,289 1315,317 1297,342 1297,342 56,342 56,264 56,264"/>
<polygon class="pen1 brush2" points="1298,78 108,78 102,88 91,109 84,131 80,153 78,177 81,200 87,223 95,244 108,264 59,342 41,317 27,290 15,263 7,232 2,202 0,172 2,141 7,111 14,82 26,53 40,26 59,0 59,0 1298,0 1298,78 1298,78"/>
<polygon class="pen1 brush2" points="675,880 801,1007 815,1026 821,1046 821,1726 812,1751 797,1769 781,1784 756,1794 650,1794 650,1706 718,1706 733,1691 734,1081 725,1050 655,982 675,880 675,880"/>
<polygon class="pen1 brush2" points="675,880 548,1007 533,1026 528,1046 528,1726 537,1751 552,1769 567,1784 592,1794 699,1794 699,1706 631,1706 617,1691 616,1081 625,1050 693,982 675,880 675,880"/>
<polygon class="pen1 brush2" points="636,939 636,812 645,793 660,778 685,763 1375,416 1401,401 1411,381 1411,231 1396,215 1312,215 1312,137 1440,137 1450,142 1470,152 1488,177 1493,201 1493,426 1488,441 1470,459 729,836 719,856 719,939 636,939 636,939"/>
</g>
</svg>
