<?xml version="1.0" encoding="UTF-8" standalone="no"?>
<!DOCTYPE svg PUBLIC "-//W3C//DTD SVG 1.0//EN" "http://www.w3.org/TR/2001/REC-SVG-20010904/DTD/svg10.dtd">
<svg xmlns="http://www.w3.org/2000/svg" xmlns:xlink="http://www.w3.org/1999/xlink" fill-rule="evenodd" height="1.548in" preserveAspectRatio="none" stroke-linecap="round" viewBox="0 0 2490 1548" width="2.49in">
<style type="text/css">
.brush0 { fill: rgb(255,255,255); }
.pen0 { stroke: rgb(0,0,0); stroke-width: 1; stroke-linejoin: round; }
.brush1 { fill: none; }
.pen1 { stroke: none; }
.brush2 { fill: rgb(0,0,0); }
</style>
<g>
<polygon class="pen1 brush2" points="487,940 869,940 910,933 947,904 1141,632 1182,598 1224,576 1258,568 2191,512 2253,526 2303,568 2330,603 2490,1389 2490,1453 2469,1495 2442,1522 2393,1544 2350,1548 487,1548 548,1432 2303,1432 2330,1424 2350,1404 2350,1375 2198,674 2177,653 2156,638 2107,632 1273,694 1238,715 1029,1010 1002,1039 960,1058 918,1058 548,1058 487,940 487,940"/>
<polygon class="pen1 brush2" points="487,940 487,1548 605,1495 605,997 487,940 487,940"/>
<polygon class="pen1 brush2" points="542,1024 312,1024 230,940 0,940 0,1548 230,1548 312,1466 542,1466 542,1346 249,1346 167,1432 125,1432 125,1067 167,1067 249,1151 542,1151 542,1024 542,1024"/>
<polygon class="pen1 brush2" points="243,1424 243,1067 361,1067 361,1424 243,1424 243,1424"/>
<polygon class="pen1 brush2" points="1351,574 1415,674 2033,282 2096,383 1844,547 1947,617 2260,423 2072,119 1351,574 1351,574"/>
<polygon class="pen1 brush2" points="2195,0 2169,18 2149,44 2130,72 2117,100 2110,134 2105,164 2107,197 2111,231 2122,259 2137,289 2155,315 2177,338 2203,359 2233,374 2261,387 2292,391 2324,393 2357,391 2389,383 2423,367 2195,0 2195,0"/>
<polygon class="pen1 brush2" points="727,836 728,826 731,824 737,821 743,820 811,820 822,822 831,826 840,836 843,841 846,847 848,854 848,875 848,995 967,995 1083,820 967,820 967,799 964,777 957,756 947,737 930,720 912,707 891,699 870,695 650,695 635,701 622,710 611,724 607,739 605,756 605,997 727,997 727,836 727,836"/>
<polygon class="pen1 brush2" points="1327,632 1327,1312 2406,1312 2385,1192 1454,1192 1454,624 1327,632 1327,632"/>
<polygon class="pen1 brush2" points="1643,1045 1643,799 2061,799 2061,1045 1643,1045 1643,1045"/>
<polygon class="pen1 brush2" points="855,1249 852,1231 846,1216 835,1202 820,1192 805,1187 786,1186 770,1190 755,1198 743,1210 734,1225 731,1244 731,1260 737,1276 746,1292 759,1303 776,1310 792,1312 811,1310 825,1303 839,1292 850,1276 854,1260 855,1249 855,1249"/>
<polygon class="pen1 brush2" points="1065,1249 1061,1231 1055,1216 1044,1202 1030,1192 1014,1187 996,1186 979,1190 964,1198 953,1210 943,1225 940,1244 940,1260 947,1276 956,1292 969,1303 986,1310 1002,1312 1020,1310 1035,1303 1048,1292 1059,1276 1063,1260 1065,1249 1065,1249"/>
</g>
</svg>
