<?xml version="1.0" encoding="UTF-8" standalone="no"?>
<!DOCTYPE svg PUBLIC "-//W3C//DTD SVG 1.0//EN" "http://www.w3.org/TR/2001/REC-SVG-20010904/DTD/svg10.dtd">
<svg xmlns="http://www.w3.org/2000/svg" xmlns:xlink="http://www.w3.org/1999/xlink" fill-rule="evenodd" height="0.512in" preserveAspectRatio="none" stroke-linecap="round" viewBox="0 0 356 512" width="0.356in">
<style type="text/css">
.brush0 { fill: rgb(255,255,255); }
.pen0 { stroke: rgb(0,0,0); stroke-width: 1; stroke-linejoin: round; }
.brush1 { fill: none; }
.pen1 { stroke: none; }
.brush2 { fill: rgb(0,0,0); }
</style>
<g>
<polygon class="pen1 brush2" points="300,3 272,2 230,29 205,87 199,138 201,172 186,214 162,238 181,242 209,227 216,207 220,171 219,113 247,35 273,15 300,3 300,3"/>
<polygon class="pen1 brush2" points="271,7 312,0 343,20 356,64 352,103 329,141 291,176 278,212 300,245 264,240 253,216 256,186 271,154 299,127 328,92 335,48 323,24 271,7 271,7"/>
<polygon class="pen1 brush2" points="290,37 291,66 278,79 269,76 261,92 269,104 253,122 249,109 251,75 265,48 290,37 290,37"/>
<polygon class="pen1 brush2" points="100,320 87,323 79,313 83,295 89,266 100,252 129,244 175,246 235,237 297,242 326,264 245,257 202,262 162,267 121,267 107,279 100,303 100,320 100,320"/>
<polygon class="pen1 brush2" points="116,312 145,303 199,306 251,314 256,297 268,286 271,270 282,278 285,300 275,317 271,337 253,338 220,326 158,320 130,320 116,312 116,312"/>
<polygon class="pen1 brush2" points="279,259 295,242 322,254 340,270 341,293 330,317 329,347 315,354 301,347 308,321 320,297 320,274 279,259 279,259"/>
<polygon class="pen1 brush2" points="77,359 68,348 85,340 139,335 189,340 230,343 252,357 252,379 226,415 206,466 198,457 197,438 209,407 224,392 229,368 202,357 126,352 100,355 77,359 77,359"/>
<polygon class="pen1 brush2" points="0,481 31,472 65,437 83,404 81,384 72,375 61,381 64,396 49,430 22,455 0,481 0,481"/>
<polygon class="pen1 brush2" points="35,482 64,459 82,436 96,406 107,394 111,403 100,447 118,431 134,406 141,386 149,379 152,393 151,409 113,466 94,476 82,466 58,482 35,482 35,482"/>
<polygon class="pen1 brush2" points="113,475 123,465 139,457 162,433 186,394 188,420 168,454 143,475 126,483 113,475 113,475"/>
<polygon class="pen1 brush2" points="145,493 173,464 191,469 198,489 226,504 188,512 183,498 171,488 145,493 145,493"/>
<polygon class="pen1 brush2" points="266,368 290,360 311,370 312,401 295,454 261,498 236,501 228,493 247,483 269,454 287,402 286,384 270,382 266,368 266,368"/>
<polygon class="pen1 brush2" points="236,430 252,399 262,413 265,431 244,464 235,476 210,479 219,466 231,452 236,430 236,430"/>
</g>
</svg>
