<?xml version="1.0" encoding="UTF-8" standalone="no"?>
<!DOCTYPE svg PUBLIC "-//W3C//DTD SVG 1.0//EN" "http://www.w3.org/TR/2001/REC-SVG-20010904/DTD/svg10.dtd">
<svg xmlns="http://www.w3.org/2000/svg" xmlns:xlink="http://www.w3.org/1999/xlink" fill-rule="evenodd" height="1.789in" preserveAspectRatio="none" stroke-linecap="round" viewBox="0 0 558 1789" width="0.558in">
<style type="text/css">
.brush0 { fill: rgb(255,255,255); }
.pen0 { stroke: rgb(0,0,0); stroke-width: 1; stroke-linejoin: round; }
.brush1 { fill: none; }
.pen1 { stroke: none; }
.brush2 { fill: rgb(0,0,0); }
</style>
<g>
<polygon class="pen1 brush2" points="323,375 342,370 361,365 380,356 398,347 414,336 428,323 440,310 451,295 459,281 465,265 469,247 472,231 469,215 465,198 459,182 451,167 442,153 428,138 409,126 409,263 405,265 378,277 350,286 320,293 290,296 259,296 230,293 200,286 172,276 144,263 144,126 128,138 114,153 105,167 97,182 91,198 87,215 85,231 87,247 91,265 97,281 105,295 116,310 128,323 142,336 158,347 177,356 195,365 215,370 233,375 144,437 131,430 106,416 82,398 61,378 43,357 28,334 16,310 7,285 2,259 0,232 2,206 7,180 16,154 27,130 42,107 61,86 82,66 105,49 130,33 157,20 186,10 216,2 233,1 233,206 259,210 290,210 321,206 321,0 341,2 371,10 400,20 427,33 452,49 476,66 496,86 515,107 530,130 542,154 551,180 556,206 558,232 556,259 551,285 542,310 529,334 514,357 496,378 476,398 451,416 426,430 413,437 323,375 323,375"/>
<polygon class="pen1 brush2" points="324,375 323,1413 342,1417 361,1424 380,1432 398,1442 414,1453 428,1466 440,1479 451,1493 459,1508 465,1523 469,1542 472,1557 469,1573 465,1590 459,1606 451,1621 442,1636 428,1649 409,1662 409,1526 405,1523 378,1511 350,1501 320,1495 290,1492 259,1492 230,1495 200,1502 172,1512 144,1526 144,1662 128,1649 114,1636 105,1621 97,1606 91,1590 87,1573 85,1557 87,1542 91,1523 97,1508 105,1493 116,1479 128,1466 142,1453 158,1442 177,1432 195,1424 215,1417 233,1413 233,375 142,379 144,1352 131,1358 106,1373 82,1390 61,1411 43,1432 28,1454 16,1479 7,1504 2,1530 0,1556 2,1582 7,1608 16,1633 27,1658 42,1680 61,1703 82,1722 105,1740 130,1755 157,1768 186,1778 216,1785 233,1788 233,1582 259,1578 290,1578 321,1582 321,1789 341,1785 371,1778 400,1768 427,1755 452,1740 476,1722 496,1703 515,1680 530,1658 542,1633 551,1608 556,1582 558,1556 556,1530 551,1504 542,1479 529,1454 514,1432 496,1411 476,1390 451,1373 426,1358 413,1352 415,379 324,375 324,375"/>
</g>
</svg>
