<?xml version="1.0" encoding="UTF-8" standalone="no"?>
<!DOCTYPE svg PUBLIC "-//W3C//DTD SVG 1.0//EN" "http://www.w3.org/TR/2001/REC-SVG-20010904/DTD/svg10.dtd">
<svg xmlns="http://www.w3.org/2000/svg" xmlns:xlink="http://www.w3.org/1999/xlink" fill-rule="evenodd" height="0.512in" preserveAspectRatio="none" stroke-linecap="round" viewBox="0 0 563 512" width="0.563in">
<style type="text/css">
.brush0 { fill: rgb(255,255,255); }
.pen0 { stroke: rgb(0,0,0); stroke-width: 1; stroke-linejoin: round; }
.brush1 { fill: none; }
.pen1 { stroke: none; }
.brush2 { fill: rgb(0,0,0); }
</style>
<g>
<polygon class="pen1 brush2" points="261,504 285,503 308,499 331,493 352,486 373,476 392,464 410,450 427,435 442,419 456,400 467,381 477,361 485,339 491,316 495,293 496,269 495,245 491,222 485,199 477,177 467,157 456,137 442,119 427,102 410,87 392,73 373,62 352,52 331,44 308,38 285,34 261,33 237,34 214,38 191,44 169,52 149,62 129,73 111,87 94,102 79,119 65,137 54,157 44,177 36,199 30,222 26,245 25,269 26,293 30,316 36,339 44,361 54,381 65,400 79,419 94,435 111,450 129,464 149,476 169,486 191,493 214,499 237,503 261,504"/>
<polygon class="pen1 brush2" points="394,421 369,318 369,318 365,308 359,299 350,292 341,286 331,282 320,279 311,278 303,279 300,280 292,281 279,284 263,287 244,291 222,296 199,301 175,305 151,310 128,315 106,320 87,324 71,327 58,330 50,331 47,332 42,334 37,336 32,339 27,342 22,346 18,351 14,356 10,361 5,369 2,378 1,387 2,395 4,407 5,407 27,499 30,512 42,509 65,504 75,502 75,502 88,499 110,495 123,492 123,492 134,490 156,485 169,482 169,482 179,480 202,476 212,473 212,473 225,471 247,466 258,464 258,464 271,461 293,456 304,454 304,454 316,451 338,447 349,444 349,444 361,442 383,437 397,434 394,421"/>
<polygon class="pen1 brush0" points="356,321 353,314 348,308 342,302 334,298 326,294 318,292 311,291 306,291 50,345 45,347 38,351 32,356 26,362 20,369 17,377 15,384 15,392 15,392 40,496 62,492 37,387 61,382 85,487 108,482 83,378 106,373 131,477 153,472 129,368 152,363 177,467 199,463 174,360 198,355 222,458 245,453 220,350 243,345 268,448 290,444 265,340 289,335 314,439 335,434 311,331 334,326 358,429 381,424 356,321"/>
<polygon class="pen1 brush2" points="178,89 179,84 179,80 177,75 173,72 168,71 164,71 160,73 156,77 155,79 155,82 155,85 155,88 155,86 156,88 158,91 159,93 160,94 165,95 170,95 174,93 178,89"/>
<polygon class="pen1 brush2" points="189,96 192,86 192,77 187,68 180,61 175,59 170,58 165,58 161,58 156,60 152,63 148,66 145,70 143,74 142,80 142,85 142,91 144,95 147,99 150,102 154,105 159,107 164,108 169,108 173,108 178,106 182,103 186,100 189,96"/>
<polygon class="pen1 brush2" points="532,319 532,319 530,320 527,321 523,321 517,322 509,323 500,324 488,324 481,323 473,322 465,319 455,316 445,312 435,307 423,302 412,296 401,290 389,284 377,277 366,271 354,264 343,257 332,250 322,244 314,239 307,234 299,230 292,225 285,221 278,217 271,214 265,210 261,208 258,206 254,203 250,200 246,197 243,194 239,190 235,187 231,183 228,180 225,177 221,174 217,171 213,168 208,165 204,162 199,159 194,157 188,154 183,152 182,151 181,150 180,150 179,149 192,151 184,154 176,155 168,156 160,156 152,155 144,153 137,150 130,146 124,142 118,137 113,132 108,126 104,119 101,113 98,105 96,98 94,84 95,71 98,58 104,46 113,34 124,24 136,17 149,12 163,10 177,11 191,15 204,21 210,25 216,29 221,34 225,39 229,45 233,51 235,58 237,65 239,79 239,94 235,107 229,120 227,124 224,127 221,131 218,135 215,114 217,115 219,116 221,118 224,119 230,122 236,125 243,128 251,132 257,135 264,139 270,143 276,147 283,150 289,154 295,158 301,162 305,165 316,172 331,183 349,194 367,206 382,217 393,224 397,227 417,240 436,253 453,264 469,275 483,284 494,291 502,296 507,299 532,319"/>
<polygon class="pen1 brush0" points="294,173 288,169 281,165 275,161 268,157 262,154 256,150 250,147 245,144 239,141 233,138 228,135 223,133 219,130 215,128 212,127 209,125 211,123 214,120 216,117 218,113 223,102 226,91 226,80 225,68 221,58 215,48 207,39 197,32 186,27 175,24 164,24 152,25 142,29 132,35 123,43 116,53 111,63 108,74 108,85 109,95 113,107 118,117 126,127 136,134 142,137 148,140 155,142 162,142 168,143 175,142 181,141 187,139 187,139 188,139 188,139 188,140 191,141 195,143 200,145 205,147 210,151 216,155 223,159 229,164 235,168 240,173 245,178 250,183 256,188 261,192 266,195 271,198 283,204 295,212 307,220 321,228 334,237 348,245 363,254 378,263 393,272 408,280 423,287 439,294 455,300 470,305 486,309 502,311 499,309 494,306 487,302 479,296 468,290 457,282 444,274 430,264 415,255 400,244 383,233 366,221 348,209 330,197 312,185 294,173"/>
<polygon class="pen1 brush0" points="147,116 141,112 137,106 133,100 130,94 129,86 129,78 130,70 134,63 139,57 144,52 151,48 158,46 165,45 172,45 180,47 187,50 198,60 204,73 205,88 200,103 195,109 190,114 183,118 176,120 169,121 161,121 154,119 147,116"/>
<polygon class="pen1 brush2" points="148,207 143,205 138,204 133,204 128,205 124,206 119,209 116,212 113,216 111,221 109,226 109,232 110,237 112,241 115,246 118,249 121,252 126,254 131,255 136,255 141,255 146,253 150,250 154,247 157,243 160,233 160,223 155,214 148,207"/>
<polygon class="pen1 brush2" points="563,132 556,136 543,140 526,145 505,151 482,157 458,163 434,169 412,174 290,203 283,204 276,206 269,207 261,209 254,210 247,212 241,213 235,214 230,215 224,215 219,216 215,216 210,217 206,217 203,218 199,218 197,218 195,218 192,218 190,218 201,200 206,217 207,234 204,251 197,267 188,279 178,288 166,295 153,300 139,302 125,302 111,298 97,292 91,288 86,283 81,278 76,272 72,266 69,259 66,252 64,245 62,231 63,217 66,204 72,192 81,180 92,171 104,164 117,159 131,157 145,158 159,161 172,167 175,169 178,171 180,173 183,175 174,172 175,172 176,172 177,172 178,172 182,172 186,172 191,171 197,171 203,170 210,169 216,168 223,166 228,164 234,161 239,159 244,156 248,154 252,152 257,150 261,149 266,147 270,146 275,145 279,145 286,144 293,143 301,141 309,140 316,138 325,137 333,135 341,133 353,131 364,128 375,126 386,123 397,121 408,119 419,117 429,116 439,114 449,113 459,112 469,112 478,112 487,112 496,113 504,114 513,116 522,118 532,121 541,124 550,127 557,130 561,131 563,132"/>
<polygon class="pen1 brush0" points="279,158 273,159 267,161 261,163 254,166 248,169 241,172 234,175 227,178 219,180 210,182 202,183 195,184 188,185 182,185 177,185 174,185 172,183 170,181 167,180 165,178 154,173 143,170 131,170 120,172 109,176 99,182 90,189 83,199 79,209 76,220 75,231 76,242 80,253 86,264 94,273 104,281 115,286 126,289 138,289 149,287 160,283 170,277 179,270 186,260 192,247 194,232 193,218 189,205 192,205 196,204 201,204 206,204 212,203 218,203 225,202 233,201 239,200 245,199 252,197 259,196 266,194 274,193 280,191 287,190 308,185 330,180 351,175 371,170 391,165 411,160 429,156 447,152 463,148 478,144 491,141 503,139 513,136 521,135 527,134 530,133 514,130 498,128 482,127 466,127 449,128 432,129 415,132 399,134 382,137 366,141 350,144 335,147 320,151 306,153 292,156 279,158"/>
<polygon class="pen1 brush0" points="168,249 163,256 158,261 151,265 144,267 137,268 129,268 122,266 115,263 109,259 104,253 100,247 97,241 96,233 96,225 98,217 101,210 106,203 111,198 118,194 125,192 132,191 140,191 147,193 154,196 166,206 172,220 173,235 168,249"/>
</g>
</svg>
