<?xml version="1.0" encoding="UTF-8" standalone="no"?>
<!DOCTYPE svg PUBLIC "-//W3C//DTD SVG 1.0//EN" "http://www.w3.org/TR/2001/REC-SVG-20010904/DTD/svg10.dtd">
<svg xmlns="http://www.w3.org/2000/svg" xmlns:xlink="http://www.w3.org/1999/xlink" fill-rule="evenodd" height="0.787in" preserveAspectRatio="none" stroke-linecap="round" viewBox="0 0 623 787" width="0.623in">
<style type="text/css">
.brush0 { fill: rgb(255,255,255); }
.pen0 { stroke: rgb(0,0,0); stroke-width: 1; stroke-linejoin: round; }
.brush1 { fill: none; }
.pen1 { stroke: none; }
.brush2 { fill: rgb(0,0,0); }
</style>
<g>
<polygon class="pen1 brush2" points="269,190 269,33 0,33 0,190 269,190"/>
<polygon class="pen1 brush2" points="0,35 27,0 54,35 0,35"/>
<polygon class="pen1 brush2" points="53,35 80,0 107,35 53,35"/>
<polygon class="pen1 brush2" points="106,35 133,0 160,35 106,35"/>
<polygon class="pen1 brush2" points="159,35 186,0 213,35 159,35"/>
<polygon class="pen1 brush2" points="213,35 239,0 266,35 213,35"/>
<polygon class="pen1 brush2" points="269,286 269,207 0,207 0,286 269,286"/>
<polygon class="pen1 brush2" points="163,327 165,321 168,315 172,310 178,306 184,301 191,297 199,295 206,293 210,292 214,291 218,290 223,290 227,289 231,288 235,288 239,287 242,285 247,282 252,278 255,274 14,274 17,278 22,282 27,285 30,287 34,288 38,288 42,289 46,290 50,290 54,291 58,292 62,293 70,295 77,297 85,301 91,306 97,310 103,315 107,321 109,327 109,326 101,370 94,417 87,466 85,515 87,561 93,601 100,634 109,661 118,681 126,696 132,704 135,707 139,704 146,695 155,681 164,660 172,634 179,601 184,561 186,515 184,466 177,418 170,371 162,327 163,327"/>
<polygon class="pen1 brush2" points="319,362 319,362 320,354 324,333 332,304 344,272 361,239 385,211 416,191 455,183 469,184 482,185 494,188 506,192 517,197 527,203 537,210 546,218 562,239 574,262 582,285 587,308 590,328 592,345 592,356 592,360 616,361 616,355 616,343 614,324 611,302 604,277 595,251 581,225 563,202 552,192 541,183 529,176 515,170 501,165 487,162 471,160 455,159 409,167 373,189 345,220 325,256 311,292 302,324 298,348 296,359 319,362"/>
<polygon class="pen1 brush2" points="589,502 589,555 446,555 446,460 589,460 589,502 623,502 623,359 291,359 291,787 623,787 623,502 589,502"/>
</g>
</svg>
