<?xml version="1.0" encoding="UTF-8" standalone="no"?>
<!DOCTYPE svg PUBLIC "-//W3C//DTD SVG 1.0//EN" "http://www.w3.org/TR/2001/REC-SVG-20010904/DTD/svg10.dtd">
<svg xmlns="http://www.w3.org/2000/svg" xmlns:xlink="http://www.w3.org/1999/xlink" fill-rule="evenodd" height="0.44in" preserveAspectRatio="none" stroke-linecap="round" viewBox="0 0 559 440" width="0.559in">
<style type="text/css">
.brush0 { fill: rgb(255,255,255); }
.pen0 { stroke: rgb(0,0,0); stroke-width: 1; stroke-linejoin: round; }
.brush1 { fill: none; }
.pen1 { stroke: none; }
.brush2 { fill: rgb(0,0,0); }
</style>
<g>
<polygon class="pen1 brush2" points="546,408 547,403 550,399 554,396 559,395 559,374 554,373 550,370 547,366 546,360 547,355 550,351 554,348 559,347 559,326 554,325 550,323 547,319 546,314 547,309 550,305 554,302 559,301 559,280 554,279 550,276 547,272 546,267 547,261 550,257 554,254 559,253 559,232 554,231 550,228 547,224 546,219 547,214 550,210 554,207 559,206 559,185 554,184 550,181 547,177 546,172 547,167 550,162 554,160 559,159 559,137 554,136 550,133 547,129 546,124 547,119 550,115 554,112 559,111 559,90 554,89 550,86 547,82 546,77 547,72 550,68 554,65 559,64 559,43 554,42 550,39 547,35 546,29 547,24 550,20 554,17 559,16 559,0 535,0 534,5 531,9 527,12 522,13 517,12 513,9 510,5 509,0 487,0 486,5 484,9 479,12 474,13 469,12 465,9 462,5 461,0 440,0 439,5 436,9 432,12 427,13 422,12 418,9 415,5 414,0 393,0 392,5 389,9 385,12 379,13 374,12 370,9 367,5 366,0 345,0 344,5 341,9 337,12 332,13 327,12 323,9 321,5 320,0 299,0 298,5 295,9 291,12 286,13 280,12 276,9 273,5 272,0 251,0 250,5 247,9 243,12 238,13 238,50 514,50 514,394 238,394 238,50 238,13 233,12 229,9 226,5 225,0 186,0 186,16 191,17 195,20 198,24 199,29 198,35 195,39 191,42 186,43 186,64 191,65 195,68 198,72 199,77 198,82 195,86 191,89 186,90 186,111 191,112 195,115 198,119 199,124 198,129 195,133 191,136 186,137 186,159 191,160 195,162 198,167 199,172 198,177 195,181 191,184 186,185 186,206 191,207 195,210 198,214 199,219 198,224 195,228 191,231 186,232 186,253 191,254 195,257 198,261 199,267 198,272 195,276 191,279 186,280 186,301 191,302 195,305 198,309 199,314 198,319 195,323 191,325 186,326 186,347 191,348 195,351 198,355 199,360 198,366 195,370 191,373 186,374 186,395 191,396 195,399 198,403 199,408 198,413 195,417 191,420 186,421 186,440 225,440 226,435 229,430 233,428 238,427 243,428 247,430 250,435 251,440 272,440 273,435 276,430 280,428 286,427 291,428 295,430 298,435 299,440 320,440 321,435 323,430 327,428 332,427 337,428 341,430 344,435 345,440 366,440 367,435 370,430 374,428 379,427 385,428 389,430 392,435 393,440 414,440 415,435 418,430 422,428 427,427 432,428 436,430 439,435 440,440 461,440 462,435 465,430 469,428 474,427 479,428 484,430 486,435 487,440 509,440 510,435 513,430 517,428 522,427 527,428 531,430 534,435 535,440 559,440 559,421 554,420 550,417 547,413 546,408"/>
<polygon class="pen1 brush2" points="11,111 27,106 43,101 57,98 72,95 85,92 98,91 112,90 125,89 137,90 151,91 164,92 178,95 192,98 206,101 222,106 238,111 255,116 270,121 285,124 299,128 312,130 326,132 339,133 352,134 366,133 380,132 395,130 410,128 427,124 444,120 463,115 484,109 484,109 487,108 488,106 489,103 489,100 488,97 486,95 483,94 480,95 480,95 460,101 441,105 424,109 408,113 393,115 379,117 366,118 353,118 340,118 327,116 314,115 301,112 288,109 274,105 259,101 243,96 226,91 210,86 195,83 180,80 166,77 152,76 138,75 125,74 111,75 97,76 83,77 69,80 54,83 39,86 23,91 6,96 6,96 3,97 2,100 1,103 1,106 2,109 5,110 8,111 11,111 11,111"/>
<polygon class="pen1 brush2" points="11,146 27,141 43,136 57,133 72,130 85,127 98,126 112,125 125,124 137,125 151,126 164,127 178,130 192,133 206,136 222,141 238,146 255,151 270,156 285,159 299,163 312,165 326,167 339,168 352,169 366,168 380,167 395,165 410,163 427,159 444,155 463,150 484,144 484,144 487,143 488,141 489,138 489,135 488,132 486,130 483,129 480,129 480,129 460,135 441,140 424,144 408,147 393,150 379,152 366,153 353,153 340,152 327,151 314,150 301,147 288,144 274,140 259,136 243,131 226,126 210,121 195,117 180,114 166,112 152,110 138,109 125,108 111,109 97,110 83,112 69,114 54,117 39,121 23,126 6,131 6,131 3,132 2,134 1,137 1,141 2,144 5,145 8,146 11,146 11,146"/>
<polygon class="pen1 brush2" points="11,180 27,175 43,171 57,167 72,164 85,162 98,160 112,159 125,159 137,159 151,160 164,162 178,164 192,167 206,171 222,175 238,180 255,185 270,190 285,194 299,197 312,200 326,202 339,203 352,203 366,203 380,202 395,200 410,198 427,194 444,190 463,185 484,179 484,179 487,178 488,175 489,173 489,169 488,166 486,165 483,164 480,164 480,164 460,170 441,175 424,179 408,182 393,185 379,187 366,188 353,188 340,187 327,186 314,185 301,182 288,179 274,175 259,171 243,166 226,161 210,156 195,152 180,149 166,147 152,145 138,144 125,143 111,144 97,145 83,147 69,149 54,152 39,156 23,161 6,166 6,166 3,167 2,169 1,172 1,175 2,178 5,180 8,181 11,180 11,180"/>
<polygon class="pen1 brush2" points="11,215 27,210 43,206 57,202 72,199 85,197 98,195 112,194 125,194 137,194 151,195 164,197 178,199 192,202 206,206 222,210 238,215 255,220 270,225 285,229 299,232 312,234 326,236 339,237 352,238 366,237 380,236 395,235 410,232 427,229 444,225 463,220 484,214 484,214 487,213 488,210 489,207 489,204 488,201 486,200 483,199 480,199 480,199 460,205 441,210 424,214 408,217 393,220 379,221 366,222 353,223 340,222 327,221 314,219 301,217 288,214 274,210 259,205 243,200 226,195 210,190 195,187 180,184 166,181 152,180 138,179 125,178 111,179 97,180 83,181 69,184 54,187 39,190 23,195 6,200 6,200 3,202 2,204 1,207 1,210 2,213 5,215 8,216 11,215 11,215"/>
<polygon class="pen1 brush2" points="11,250 27,245 43,241 57,237 72,234 85,232 98,230 112,229 125,229 137,229 151,230 164,232 178,234 192,237 206,241 222,245 238,250 255,255 270,260 285,264 299,267 312,269 326,271 339,272 352,273 366,272 380,271 395,270 410,267 427,264 444,260 463,255 484,249 484,249 487,247 488,245 489,242 489,239 488,236 486,235 483,234 480,234 480,234 460,240 441,244 424,248 408,252 393,254 379,256 366,257 353,257 340,257 327,256 314,254 301,252 288,248 274,245 259,240 243,235 226,230 210,225 195,222 180,219 166,216 152,215 138,214 125,213 111,214 97,215 83,216 69,219 54,222 39,225 23,230 6,235 6,235 3,237 2,239 1,242 1,245 2,248 5,249 8,250 11,250 11,250"/>
<polygon class="pen1 brush2" points="16,285 32,280 48,275 63,272 77,269 91,266 104,265 117,264 130,263 143,264 156,265 170,266 183,269 198,272 212,275 228,280 244,285 260,290 276,295 290,298 304,302 318,304 331,306 344,307 358,308 371,307 385,306 400,304 416,302 432,298 450,294 469,289 490,283 490,283 493,282 494,280 495,277 495,274 494,271 491,269 488,268 485,269 485,269 465,275 447,279 430,283 414,287 399,289 385,291 371,292 358,292 346,292 333,290 320,289 307,286 294,283 280,279 265,275 249,270 232,265 216,260 201,257 186,254 172,251 158,250 144,249 131,248 117,249 103,250 89,251 75,254 60,257 45,260 29,265 12,270 12,270 9,271 7,274 6,277 7,280 8,283 10,284 13,285 16,285 16,285"/>
<polygon class="pen1 brush2" points="16,320 32,315 48,310 63,307 77,304 91,301 104,300 117,299 130,298 143,299 156,300 170,301 183,304 198,307 212,310 228,315 244,320 260,325 276,329 290,333 304,336 318,339 331,340 344,341 358,342 371,342 385,341 400,339 416,336 432,333 450,329 469,324 490,318 490,318 493,317 494,315 495,312 495,309 494,306 491,304 488,303 485,303 485,303 465,309 447,313 430,317 414,321 399,323 385,325 371,326 358,326 346,326 333,325 320,323 307,321 294,318 280,314 265,310 249,305 232,300 216,295 201,291 186,288 172,286 158,284 144,283 131,282 117,283 103,284 89,286 75,288 60,291 45,295 29,300 12,305 12,305 9,306 7,308 6,311 7,315 8,318 10,319 13,320 16,320 16,320"/>
</g>
</svg>
