<?xml version="1.0" encoding="UTF-8" standalone="no"?>
<!DOCTYPE svg PUBLIC "-//W3C//DTD SVG 1.0//EN" "http://www.w3.org/TR/2001/REC-SVG-20010904/DTD/svg10.dtd">
<svg xmlns="http://www.w3.org/2000/svg" xmlns:xlink="http://www.w3.org/1999/xlink" fill-rule="evenodd" height="0.999in" preserveAspectRatio="none" stroke-linecap="round" viewBox="0 0 999 999" width="0.999in">
<style type="text/css">
.brush0 { fill: rgb(255,255,255); }
.pen0 { stroke: rgb(0,0,0); stroke-width: 1; stroke-linejoin: round; }
.brush1 { fill: none; }
.pen1 { stroke: none; }
.brush2 { fill: rgb(0,0,0); }
</style>
<g>
<polygon class="pen1 brush2" points="999,999 999,0 0,0 0,999 999,999"/>
<polygon class="pen1 brush0" points="393,666 390,666 380,666 365,666 346,666 323,666 297,666 270,666 242,666 214,666 187,666 161,666 138,667 119,667 104,667 94,668 91,668 100,735 119,791 143,839 170,877 197,906 221,926 237,938 243,942 249,938 265,927 288,907 314,879 341,841 365,793 384,735 393,666"/>
<polygon class="pen1 brush0" points="216,145 219,683 265,683 262,144 216,145"/>
<polygon class="pen1 brush0" points="238,93 244,93 250,94 256,96 261,99 267,102 272,106 277,110 281,114 285,118 290,124 294,129 297,134 292,134 278,134 259,134 237,134 216,134 197,134 184,135 179,135 181,134 183,131 185,128 186,126 190,120 196,114 201,108 208,103 215,99 222,96 230,94 238,93 238,69 220,71 203,76 188,84 175,95 164,109 156,124 151,141 149,159 327,157 325,139 320,123 312,108 301,95 288,84 273,76 256,71 238,69 238,93"/>
<polygon class="pen1 brush0" points="525,69 525,152 467,152 467,69 467,66 453,72 439,80 427,89 417,101 409,114 402,129 398,144 397,161 399,181 405,200 414,216 426,231 441,243 458,252 476,258 496,260 516,258 534,252 551,243 565,231 577,216 586,200 592,181 594,161 593,144 589,129 582,114 574,101 564,89 552,80 538,72 524,66 525,69"/>
<polygon class="pen1 brush0" points="495,604 490,603 486,600 483,596 482,590 483,585 486,581 490,578 495,577 501,578 505,581 508,585 509,590 508,596 505,600 501,603 495,604 496,640 498,640 503,640 509,638 516,633 523,623 529,607 533,582 535,549 533,491 528,408 522,326 516,272 517,272 519,268 524,263 532,257 540,250 548,243 556,238 561,233 563,231 430,231 432,233 437,238 444,243 452,250 460,257 468,263 473,268 475,272 475,271 469,326 463,407 458,491 456,549 458,582 462,607 468,623 475,633 482,638 489,640 494,640 496,640 495,604"/>
<polygon class="pen1 brush0" points="647,353 657,351 665,345 671,337 673,327 673,240 671,230 665,222 657,216 647,214 647,214 637,216 629,222 623,230 621,240 621,327 623,337 629,345 637,351 647,353 647,353"/>
<polygon class="pen1 brush0" points="842,327 860,332 878,341 894,352 909,364 921,375 931,385 937,391 939,392 935,354 928,323 920,299 911,280 902,267 891,257 881,251 871,246 864,244 855,242 843,241 829,240 813,239 796,238 778,238 761,237 743,237 727,237 711,237 698,237 686,237 678,237 672,237 670,237 670,326 671,326 675,326 680,325 687,325 696,325 706,324 717,324 730,323 743,323 757,323 771,323 786,323 800,324 815,325 829,326 842,327"/>
<polygon class="pen1 brush0" points="809,925 797,318 748,318 735,925 809,925"/>
<polygon class="pen1 brush0" points="512,860 517,844 519,833 519,827 518,824 514,825 509,830 504,840 497,855 493,871 491,882 491,889 493,892 496,891 501,885 506,875 512,860"/>
<polygon class="pen1 brush0" points="503,866 585,886 510,849 503,866"/>
<polygon class="pen1 brush0" points="607,798 618,810 626,818 632,822 635,822 636,819 634,812 628,801 618,788 607,776 599,769 593,766 589,766 588,769 591,775 597,785 607,798"/>
<polygon class="pen1 brush0" points="606,787 545,848 617,802 606,787"/>
</g>
</svg>
