<?xml version="1.0" encoding="UTF-8" standalone="no"?>
<!DOCTYPE svg PUBLIC "-//W3C//DTD SVG 1.0//EN" "http://www.w3.org/TR/2001/REC-SVG-20010904/DTD/svg10.dtd">
<svg xmlns="http://www.w3.org/2000/svg" xmlns:xlink="http://www.w3.org/1999/xlink" fill-rule="evenodd" height="0.574in" preserveAspectRatio="none" stroke-linecap="round" viewBox="0 0 573 574" width="0.573in">
<style type="text/css">
.brush0 { fill: rgb(255,255,255); }
.pen0 { stroke: rgb(0,0,0); stroke-width: 1; stroke-linejoin: round; }
.brush1 { fill: none; }
.pen1 { stroke: none; }
.brush2 { fill: rgb(0,0,0); }
</style>
<g>
<polygon class="pen1 brush2" points="358,155 368,161 377,167 385,174 394,182 401,190 408,199 414,208 420,218 439,207 456,195 471,183 484,170 495,157 505,145 513,133 520,122 510,108 499,96 487,83 475,72 462,61 449,51 435,42 420,33 405,26 389,19 373,13 357,9 340,5 322,2 305,1 287,0 285,0 283,0 280,0 278,0 296,18 312,37 325,56 336,76 344,96 350,116 355,136 358,155"/>
<polygon class="pen1 brush2" points="209,158 218,153 227,149 236,145 246,142 256,139 266,137 276,136 287,136 289,136 290,136 292,137 293,137 293,115 292,94 289,75 284,57 279,41 273,26 267,13 261,1 243,3 225,7 208,11 191,17 174,23 158,31 143,39 128,48 113,58 100,69 87,81 75,94 63,107 53,121 43,136 34,151 46,147 59,144 71,141 83,140 95,138 106,138 118,138 129,138 140,139 151,141 161,143 171,145 181,148 191,151 200,154 209,158"/>
<polygon class="pen1 brush2" points="364,415 355,420 346,424 337,428 327,431 318,434 308,436 297,437 287,437 285,437 283,437 281,437 279,437 279,459 280,480 284,499 288,517 294,533 300,547 306,560 312,572 330,570 348,567 365,562 382,557 399,550 415,543 430,534 445,525 460,515 473,504 486,492 498,479 510,466 520,452 530,437 539,422 527,426 514,429 502,432 490,433 478,435 467,435 455,435 444,435 433,434 422,432 412,430 402,428 392,425 382,422 373,419 364,415"/>
<polygon class="pen1 brush2" points="546,407 558,379 566,350 571,319 573,287 572,267 570,246 567,227 562,207 555,189 548,170 540,153 530,136 524,161 515,184 505,205 493,225 480,242 466,258 452,272 437,284 437,285 437,285 437,286 437,287 435,309 431,331 423,351 413,369 432,380 451,389 469,395 487,400 503,403 519,405 533,406 546,407"/>
<polygon class="pen1 brush2" points="214,418 204,412 195,406 186,399 178,392 171,384 164,375 158,366 152,356 133,367 116,379 101,391 88,403 76,416 67,428 58,440 51,451 61,465 72,478 84,490 96,501 109,512 123,522 137,532 152,540 167,548 183,555 199,560 216,565 233,569 251,572 269,573 287,574 289,574 291,573 293,573 295,573 276,555 260,537 247,517 237,497 228,477 222,457 217,437 214,418"/>
<polygon class="pen1 brush2" points="136,290 136,289 136,288 136,288 136,287 138,265 142,244 150,224 160,206 141,194 122,185 104,178 86,174 70,170 54,168 39,167 26,166 15,194 7,224 2,255 0,287 1,307 3,327 6,347 11,366 17,385 24,403 32,420 42,437 48,412 57,389 67,368 79,349 92,332 106,316 121,302 136,290"/>
</g>
</svg>
