<?xml version="1.0" encoding="UTF-8" standalone="no"?>
<!DOCTYPE svg PUBLIC "-//W3C//DTD SVG 1.0//EN" "http://www.w3.org/TR/2001/REC-SVG-20010904/DTD/svg10.dtd">
<svg xmlns="http://www.w3.org/2000/svg" xmlns:xlink="http://www.w3.org/1999/xlink" fill-rule="evenodd" height="0.837in" preserveAspectRatio="none" stroke-linecap="round" viewBox="0 0 615 837" width="0.615in">
<style type="text/css">
.brush0 { fill: rgb(255,255,255); }
.pen0 { stroke: rgb(0,0,0); stroke-width: 1; stroke-linejoin: round; }
.brush1 { fill: none; }
.pen1 { stroke: none; }
.brush2 { fill: rgb(0,0,0); }
</style>
<g>
<polygon class="pen1 brush2" points="169,59 169,171 93,171 93,59 93,56 74,64 56,74 40,87 26,102 15,120 7,139 2,160 0,182 3,209 10,233 23,256 39,275 58,291 81,304 105,311 132,314 159,311 183,304 206,291 225,275 241,256 254,233 261,209 264,182 262,160 257,139 248,120 237,102 223,86 207,73 189,63 169,55 169,59"/>
<polygon class="pen1 brush2" points="130,772 124,771 118,767 114,761 113,754 114,747 118,741 124,737 130,736 137,737 143,741 147,747 148,754 147,761 143,767 137,771 130,772 130,821 133,821 140,821 148,819 158,812 167,798 175,776 181,744 183,699 180,621 174,511 166,402 158,330 159,331 162,326 169,319 179,310 191,301 202,293 212,285 219,279 222,276 43,276 46,279 53,285 62,293 73,301 84,310 93,319 100,326 103,331 103,330 95,402 87,511 81,621 78,699 80,744 86,776 94,798 103,812 113,819 121,821 127,821 130,821 130,772"/>
<polygon class="pen1 brush2" points="436,0 615,0 615,99 325,99 325,63 436,0"/>
<polygon class="pen1 brush2" points="436,305 615,305 615,206 325,206 325,242 436,305"/>
<polygon class="pen1 brush2" points="556,211 567,196 556,182 567,167 556,152 567,137 556,123 567,108 556,93 486,93 486,211 556,211"/>
<polygon class="pen1 brush2" points="569,404 579,391 569,378 579,366 569,353 579,341 569,328 579,315 569,303 406,303 395,315 406,328 395,341 406,353 395,366 406,378 395,391 406,404 569,404"/>
<polygon class="pen1 brush2" points="506,696 505,703 501,709 495,713 488,714 481,713 475,709 471,703 470,696 471,689 475,683 481,679 488,678 495,679 501,683 505,689 506,696 549,694 549,689 550,683 550,678 550,672 549,648 546,621 542,592 538,562 506,560 505,567 501,573 495,577 488,578 481,577 475,573 471,567 470,560 471,554 475,548 481,544 488,543 495,544 501,548 505,554 506,560 538,562 532,526 525,492 520,461 515,435 516,435 518,429 521,423 525,418 531,414 537,410 545,407 552,405 559,402 561,400 558,399 552,397 543,396 532,395 518,394 504,394 488,393 473,393 458,393 445,394 433,395 424,396 417,398 415,400 416,402 423,405 430,408 437,410 444,414 450,418 456,423 460,429 462,435 462,434 458,457 453,485 448,517 442,550 437,583 432,616 429,646 428,672 429,716 431,750 436,775 442,793 451,804 462,811 476,813 492,814 506,813 517,811 527,806 535,796 541,781 545,760 548,731 549,694 506,696"/>
</g>
</svg>
