<?xml version="1.0" encoding="UTF-8" standalone="no"?>
<!DOCTYPE svg PUBLIC "-//W3C//DTD SVG 1.0//EN" "http://www.w3.org/TR/2001/REC-SVG-20010904/DTD/svg10.dtd">
<svg xmlns="http://www.w3.org/2000/svg" xmlns:xlink="http://www.w3.org/1999/xlink" fill-rule="evenodd" height="0.802in" preserveAspectRatio="none" stroke-linecap="round" viewBox="0 0 1000 802" width="1.0in">
<style type="text/css">
.brush0 { fill: rgb(255,255,255); }
.pen0 { stroke: rgb(0,0,0); stroke-width: 1; stroke-linejoin: round; }
.brush1 { fill: none; }
.pen1 { stroke: none; }
.brush2 { fill: rgb(0,0,0); }
</style>
<g>
<polygon class="pen1 brush2" points="896,478 893,480 885,485 873,493 857,504 838,517 817,531 794,547 771,563 748,579 726,594 705,609 687,622 671,633 659,642 651,648 649,650 671,677 694,700 718,719 741,736 765,750 788,761 811,770 832,776 852,782 871,785 887,787 901,789 913,789 922,789 927,789 929,789 932,783 938,764 946,735 952,696 952,650 945,597 927,540 896,478"/>
<polygon class="pen1 brush2" points="454,148 763,589 801,563 492,122 454,148"/>
<polygon class="pen1 brush2" points="443,93 448,90 454,87 460,86 466,85 472,84 479,84 485,85 491,86 496,87 503,89 510,91 515,93 511,96 499,104 484,115 466,127 449,139 433,150 423,158 419,161 419,159 419,156 419,152 419,150 420,134 424,118 432,104 443,93 429,73 415,85 405,99 397,114 393,131 391,148 393,165 398,182 407,198 552,95 541,81 527,71 512,63 495,58 478,57 461,59 445,64 429,73 443,93"/>
<polygon class="pen1 brush2" points="449,2 448,2 446,1 442,1 437,2 429,4 420,6 408,10 395,13 380,17 365,22 348,27 331,33 313,40 294,47 276,54 257,62 239,71 222,80 205,90 189,101 173,113 158,125 142,139 127,154 113,168 99,183 85,199 72,214 60,228 48,242 38,256 29,268 20,279 13,289 7,297 3,303 2,307 2,310 3,314 3,315 449,2"/>
<polygon class="pen1 brush2" points="633,701 243,149 205,175 595,728 633,701"/>
</g>
</svg>
