<?xml version="1.0" encoding="UTF-8" standalone="no"?>
<!DOCTYPE svg PUBLIC "-//W3C//DTD SVG 1.0//EN" "http://www.w3.org/TR/2001/REC-SVG-20010904/DTD/svg10.dtd">
<svg xmlns="http://www.w3.org/2000/svg" xmlns:xlink="http://www.w3.org/1999/xlink" fill-rule="evenodd" height="0.849in" preserveAspectRatio="none" stroke-linecap="round" viewBox="0 0 841 849" width="0.841in">
<style type="text/css">
.brush0 { fill: rgb(255,255,255); }
.pen0 { stroke: rgb(0,0,0); stroke-width: 1; stroke-linejoin: round; }
.brush1 { fill: none; }
.pen1 { stroke: none; }
.brush2 { fill: rgb(0,0,0); }
</style>
<g>
<polygon class="pen1 brush2" points="452,274 462,272 470,266 475,258 477,248 477,161 475,151 470,143 462,137 452,135 452,135 442,137 434,143 428,151 426,161 426,248 428,258 434,266 442,272 452,274 452,274"/>
<polygon class="pen1 brush2" points="646,248 664,253 682,262 698,273 713,285 725,296 735,306 741,312 743,313 739,275 733,244 725,220 716,201 706,188 695,178 685,172 675,167 668,165 659,163 647,162 633,161 617,160 600,160 582,159 565,159 547,159 531,159 515,159 502,159 490,159 482,159 476,159 474,159 474,247 475,247 479,247 484,246 491,246 500,246 510,245 521,245 534,244 547,244 561,244 575,244 590,244 604,245 619,246 633,247 646,248"/>
<polygon class="pen1 brush2" points="613,846 601,239 552,239 539,846 613,846"/>
<polygon class="pen1 brush2" points="382,163 201,165 201,849 380,849 347,807 380,764 347,721 380,678 347,635 380,592 347,549 380,508 347,465 380,422 347,379 380,336 347,293 380,250 347,207 382,163"/>
<polygon class="pen1 brush2" points="291,34 302,35 313,38 322,43 330,50 337,58 342,67 345,78 346,89 345,100 342,111 337,120 330,128 322,135 313,140 302,143 291,144 280,143 269,140 260,135 252,128 245,120 240,111 237,100 236,89 237,78 240,67 245,58 252,50 260,43 269,38 280,35 291,34 293,0 275,2 258,7 242,15 229,26 217,39 208,54 203,71 201,89 201,114 201,138 200,157 200,164 204,165 213,166 226,169 241,171 257,173 272,175 284,176 293,177 301,176 314,175 328,173 344,171 358,168 370,166 379,165 382,165 382,158 382,139 381,115 381,89 379,71 374,54 366,39 355,26 342,15 327,7 311,2 293,0 291,34"/>
<polygon class="pen1 brush2" points="49,61 57,57 64,53 69,50 73,46 76,44 78,42 79,40 79,38 78,37 76,37 72,37 68,37 63,39 57,41 50,43 42,47 34,51 28,55 23,59 19,62 16,65 14,68 14,70 14,72 15,73 17,73 20,73 24,72 28,71 34,68 41,65 49,61"/>
<polygon class="pen1 brush2" points="38,59 86,131 55,52 38,59"/>
<polygon class="pen1 brush2" points="31,137 41,124 48,114 50,108 50,105 49,105 46,105 43,106 40,108 36,111 31,115 26,120 20,127 10,140 4,150 2,157 3,160 6,160 11,157 20,149 31,137"/>
<polygon class="pen1 brush2" points="20,140 91,188 33,126 20,140"/>
<polygon class="pen1 brush2" points="129,85 137,89 144,93 150,96 154,97 158,99 161,99 163,99 164,98 164,94 160,89 151,81 137,72 129,68 122,64 116,62 112,60 107,60 104,60 102,60 101,61 102,65 106,70 115,76 129,85"/>
<polygon class="pen1 brush2" points="125,75 90,154 140,86 125,75"/>
<polygon class="pen1 brush2" points="714,790 719,774 722,762 722,756 720,753 717,754 712,759 706,769 700,785 695,801 693,812 694,819 696,822 699,821 703,815 708,805 714,790"/>
<polygon class="pen1 brush2" points="705,796 789,816 712,779 705,796"/>
<polygon class="pen1 brush2" points="810,728 821,740 829,748 835,752 838,752 839,748 837,741 832,731 822,718 816,711 811,706 806,701 802,698 798,696 796,695 793,695 792,695 791,699 794,705 800,715 810,728"/>
<polygon class="pen1 brush2" points="809,716 749,778 820,732 809,716"/>
</g>
</svg>
