<?xml version="1.0" encoding="UTF-8" standalone="no"?>
<!DOCTYPE svg PUBLIC "-//W3C//DTD SVG 1.0//EN" "http://www.w3.org/TR/2001/REC-SVG-20010904/DTD/svg10.dtd">
<svg xmlns="http://www.w3.org/2000/svg" xmlns:xlink="http://www.w3.org/1999/xlink" fill-rule="evenodd" height="0.563in" preserveAspectRatio="none" stroke-linecap="round" viewBox="0 0 563 563" width="0.563in">
<style type="text/css">
.brush0 { fill: rgb(255,255,255); }
.pen0 { stroke: rgb(0,0,0); stroke-width: 1; stroke-linejoin: round; }
.brush1 { fill: none; }
.pen1 { stroke: none; }
.brush2 { fill: rgb(0,0,0); }
</style>
<g>
<polygon class="pen1 brush2" points="352,284 390,207 390,192 397,193 403,192 408,188 412,183 412,183 413,177 412,170 409,165 403,161 416,153 429,123 264,52 251,82 416,153 403,161 252,96 246,95 240,96 234,99 231,105 231,105 229,111 231,117 234,123 239,127 390,192 390,207 225,135 169,247 335,319 325,327 174,262 168,260 162,261 156,265 153,270 153,270 151,277 153,283 156,288 161,292 313,357 310,368 143,297 130,327 297,397 310,368 313,357 320,359 325,357 330,354 334,348 334,348 336,342 334,336 331,330 325,327 335,319 352,284 364,289 563,365 563,563 392,563 391,554 388,547 383,541 377,536 370,533 362,531 354,529 346,529 68,529 68,521 323,521 327,520 330,518 332,514 333,510 333,510 332,505 330,501 327,499 323,498 100,498 101,490 272,490 278,489 282,486 285,482 286,477 286,477 285,471 282,467 278,464 272,463 101,463 96,464 91,467 88,471 87,477 87,477 88,482 91,486 96,489 101,490 100,498 68,498 64,499 60,501 57,505 56,510 56,510 57,514 60,518 64,520 68,521 68,529 40,529 33,529 27,530 20,532 14,535 8,539 4,545 1,553 0,563 0,0 563,0 563,310 387,241 364,289 352,284"/>
</g>
</svg>
