<?xml version="1.0" encoding="iso-8859-1"?>
<!DOCTYPE svg PUBLIC "-//W3C//DTD SVG 1.0//EN" "http://www.w3.org/TR/2001/REC-SVG-20010904/DTD/svg10.dtd">
<svg xmlns="http://www.w3.org/2000/svg" xml:space="preserve" width="1in" height="1in" style="shape-rendering:geometricPrecision; text-rendering:geometricPrecision; image-rendering:optimizeQuality; fill-rule:evenodd"
     viewBox="0 0 1000 1000">
 <g fill="000">

  <path class="fil0" d="M600 897l-11 -27 -7 -28 -3 -29 -4 -29 -5 -25 -9 -21 -13 -14 -20 -7 -22 1 -21 6 -19 9 -21 13 -18 16 -20 15 -19 18 -21 18 -21 15 -21 16 -22 12 -23 9 -25 5 -26 1 -27 -5 -30 -10 -18 -10 -19 -13 -19 -14 -17 -15 -17 -17 -16 -18 -14 -20 -12 -20 -7 -13 -6 -14 -5 -13 -4 -13 -1 -14 -2 -13 0 -13 2 -12 1 -9 3 -9 3 -8 5 -9 5 -7 6 -8 7 -7 7 -7 34 -22 35 -12 36 -3 38 4 37 10 36 13 36 16 36 16 33 14 30 11 29 6 25 0 22 -9 18 -19 13 -30 9 -44 -1 -29 -10 -26 -18 -21 -24 -21 -29 -17 -33 -17 -35 -17 -36 -16 -37 -17 -35 -18 -31 -20 -28 -23 -23 -24 -16 -30 -8 -33 2 -38 4 -20 4 -17 5 -16 6 -15 6 -13 7 -12 7 -10 7 -9 8 -7 8 -5 9 -4 9 -4 10 -2 9 0 10 0 10 2 18 5 18 8 18 12 18 15 18 17 18 19 17 21 16 23 16 25 13 26 13 28 11 28 9 29 7 31 5 29 3 30 3 28 7 19 9 14 11 9 9 4 9 2 6 0 3 -1 8 -17 6 -17 6 -17 6 -19 6 -21 10 -25 14 -28 17 -32 10 -16 11 -15 11 -14 11 -11 11 -12 11 -12 12 -10 13 -8 11 -8 13 -8 12 -6 13 -6 12 -5 13 -4 12 -3 12 -1 23 -2 21 0 19 2 19 6 17 8 15 11 13 13 10 14 11 24 10 22 6 21 3 21 1 18 -1 19 -5 16 -6 17 -17 27 -21 26 -27 22 -29 22 -32 19 -33 17 -35 17 -33 15 -31 16 -29 16 -24 15 -20 16 -14 17 -5 17 2 20 10 21 11 12 11 7 11 3 10 0 11 -4 11 -7 11 -8 11 -8 11 -10 13 -10 13 -9 12 -8 15 -4 15 -3 16 0 17 4 32 14 27 15 22 17 18 18 14 20 9 20 7 21 3 21 -1 27 -5 26 -8 27 -13 25 -16 26 -17 22 -21 22 -23 18 -14 11 -16 9 -16 9 -16 6 -17 6 -16 5 -16 3 -17 1 -18 0 -19 -3 -18 -6 -16 -7 -17 -11 -16 -14 -14 -18 -13 -19z"/>

 </g>
</svg>
