<?xml version="1.0" encoding="UTF-8" standalone="no"?>
<!DOCTYPE svg PUBLIC "-//W3C//DTD SVG 1.0//EN" "http://www.w3.org/TR/2001/REC-SVG-20010904/DTD/svg10.dtd">
<svg xmlns="http://www.w3.org/2000/svg" xmlns:xlink="http://www.w3.org/1999/xlink" fill-rule="evenodd" height="1.046in" preserveAspectRatio="none" stroke-linecap="round" viewBox="0 0 2662 1046" width="2.662in">
<style type="text/css">
.brush0 { fill: rgb(255,255,255); }
.pen0 { stroke: rgb(0,0,0); stroke-width: 1; stroke-linejoin: round; }
.brush1 { fill: none; }
.pen1 { stroke: none; }
.brush2 { fill: rgb(0,0,0); }
</style>
<g>
<polygon class="pen1 brush2" points="2662,1046 2662,0 0,0 0,1046 2662,1046"/>
<polygon class="pen1 brush0" points="583,203 580,205 574,208 565,209 556,205 540,191 522,179 503,170 482,163 461,158 439,155 417,155 394,157 371,163 347,170 324,181 302,195 280,211 258,231 238,254 218,280 213,286 207,291 200,295 192,298 184,301 175,302 165,303 156,303 157,304 162,308 169,313 178,319 190,326 205,334 222,341 241,348 262,354 285,359 310,361 337,361 365,359 395,353 427,343 460,329 482,317 497,304 508,291 514,278 519,266 523,255 528,246 536,238 546,232 555,227 563,224 570,222 576,220 580,219 583,219 584,219 583,203"/>
<polygon class="pen1 brush0" points="578,290 581,291 590,294 601,301 614,310 627,324 636,343 641,366 640,396 633,426 621,451 608,473 595,494 582,515 573,537 569,563 571,593 578,625 587,655 597,685 605,715 611,745 612,776 608,808 596,842 587,860 577,877 565,894 551,910 536,925 519,939 501,953 482,964 461,975 439,983 416,990 391,994 366,996 339,996 311,993 282,987 276,984 269,981 263,978 257,975 250,971 204,938 169,900 145,860 129,817 122,774 121,731 125,690 134,651 140,634 147,618 155,604 164,591 175,580 186,570 198,561 210,552 223,544 237,537 250,529 264,522 278,514 292,506 306,497 320,488 342,468 357,446 366,424 372,400 376,376 382,350 392,324 407,298 427,276 447,263 467,257 486,255 502,257 515,261 523,264 526,266 528,269 533,277 540,285 545,288 548,288 553,289 559,289 564,289 569,290 574,290 577,290 578,290"/>
<polygon class="pen1 brush0" points="524,286 527,281 534,267 545,247 560,224 578,202 599,181 622,167 646,160 678,217 674,215 664,212 649,210 631,211 612,217 593,231 576,255 562,292 524,286"/>
<polygon class="pen1 brush0" points="600,212 608,206 617,201 626,198 637,196 648,195 660,194 671,194 683,194 690,195 697,195 704,195 711,194 721,193 730,191 739,188 747,184 755,180 762,174 769,167 775,160 783,147 787,132 788,117 785,101 783,95 779,90 774,86 768,82 761,78 754,76 746,75 739,75 728,78 719,85 713,96 711,109 711,116 713,123 717,128 722,132 727,134 731,135 736,134 740,132 743,129 745,125 746,121 746,116 746,116 745,114 744,112 742,111 740,111 738,112 736,113 735,115 735,118 735,118 735,119 734,121 734,122 733,123 733,123 731,123 730,123 728,122 727,121 725,119 723,115 722,110 724,101 727,94 733,89 740,87 746,87 751,88 757,89 762,91 766,94 770,97 773,101 774,104 776,117 776,130 772,142 765,154 760,160 754,166 748,170 741,174 734,178 727,180 719,182 711,183 704,183 697,183 690,183 683,183 671,183 658,183 646,183 634,184 622,187 611,191 601,196 592,204 592,204 591,206 591,208 591,210 592,212 594,214 596,214 598,214 600,212 600,212"/>
<polygon class="pen1 brush0" points="602,219 604,222 609,227 618,231 628,230 648,222 669,217 690,215 711,214 733,217 755,222 776,229 797,239 817,252 836,267 854,284 871,305 886,328 900,354 911,382 921,413 924,420 928,427 933,434 939,439 946,445 954,449 963,453 972,456 970,457 965,458 957,461 946,464 932,467 916,469 897,470 877,470 855,469 832,465 807,459 782,450 756,438 729,422 703,402 676,378 660,359 649,342 644,326 642,312 642,300 642,288 640,277 635,267 628,258 620,250 612,244 605,239 599,235 594,232 590,231 589,230 602,219"/>
<polygon class="pen1 brush2" points="665,272 665,272 665,272 665,272 665,272 666,272 667,272 671,272 676,273 683,274 693,275 705,277 721,280 733,284 743,290 751,298 758,309 763,320 768,333 772,346 775,360 777,367 779,373 781,380 783,387 787,395 791,404 797,411 803,418 810,425 817,430 826,435 834,439 842,441 849,443 857,443 864,443 872,442 879,440 886,437 893,433 902,424 907,411 909,396 906,382 903,376 899,372 895,368 890,365 885,363 879,362 872,363 865,364 859,366 853,370 849,374 846,380 845,385 846,390 848,394 851,398 854,400 858,401 863,401 868,399 868,399 870,398 871,396 871,394 871,392 870,390 868,389 866,389 864,389 864,389 863,389 861,389 860,389 858,389 857,388 857,387 857,385 857,383 858,380 861,378 864,376 868,375 877,374 885,376 891,380 895,386 897,397 896,408 892,417 887,423 881,426 875,428 869,430 863,431 857,431 851,431 844,430 838,428 831,425 824,420 817,416 811,410 806,404 801,397 797,390 794,383 792,377 790,370 789,364 787,357 783,343 778,328 773,314 767,301 759,290 749,280 737,273 723,269 707,266 694,264 684,263 676,262 670,261 667,261 664,261 663,261 663,261 661,262 660,263 659,265 659,268 660,270 661,271 663,272 665,272 665,272"/>
<polygon class="pen1 brush0" points="1418,203 1415,205 1409,208 1400,209 1391,205 1375,191 1357,179 1338,170 1317,163 1296,158 1274,155 1252,155 1229,157 1206,163 1183,170 1160,181 1137,195 1115,211 1094,231 1073,254 1054,280 1049,286 1043,291 1035,295 1027,298 1019,301 1010,302 1000,303 991,303 992,304 997,308 1004,313 1013,319 1025,326 1040,334 1057,341 1076,348 1097,354 1120,359 1145,361 1172,361 1201,359 1231,353 1263,343 1296,329 1318,317 1333,304 1343,291 1349,278 1354,266 1358,255 1363,246 1371,238 1381,232 1390,227 1398,224 1405,222 1411,220 1415,219 1418,219 1419,219 1418,203"/>
<polygon class="pen1 brush0" points="1413,290 1416,291 1425,294 1436,301 1449,310 1461,324 1471,343 1476,366 1475,396 1467,426 1456,451 1443,473 1430,494 1418,515 1408,537 1404,563 1406,593 1413,625 1422,655 1431,685 1439,715 1445,745 1446,776 1442,808 1430,842 1421,860 1411,877 1399,894 1386,910 1371,925 1355,939 1337,953 1318,964 1297,975 1275,983 1252,990 1227,994 1202,996 1175,996 1147,993 1118,987 1112,984 1105,981 1099,978 1092,975 1085,971 1039,938 1004,900 980,860 964,817 957,774 956,731 960,690 969,651 975,634 982,618 990,604 999,591 1010,580 1021,570 1033,561 1045,552 1058,544 1072,537 1085,529 1099,522 1113,514 1127,506 1141,497 1155,488 1177,468 1192,446 1201,424 1207,400 1212,376 1218,350 1228,324 1243,298 1262,276 1283,263 1302,257 1321,255 1337,257 1350,261 1358,264 1361,266 1363,269 1368,277 1375,285 1381,288 1384,288 1389,289 1394,289 1399,289 1404,290 1409,290 1412,290 1413,290"/>
<polygon class="pen1 brush0" points="1359,286 1362,281 1369,267 1380,247 1396,224 1414,202 1434,181 1456,167 1480,160 1512,217 1508,215 1498,212 1483,210 1465,211 1446,217 1427,231 1410,255 1397,292 1359,286"/>
<polygon class="pen1 brush0" points="1435,212 1442,206 1451,201 1461,198 1471,196 1482,195 1494,194 1505,194 1517,194 1524,195 1532,195 1539,195 1546,194 1555,193 1564,191 1573,188 1582,184 1590,180 1597,174 1603,167 1609,160 1617,147 1621,132 1622,117 1620,101 1617,95 1613,90 1608,86 1602,82 1595,78 1588,76 1580,75 1573,75 1562,78 1553,85 1547,96 1545,109 1545,116 1548,123 1551,128 1556,132 1561,134 1565,135 1570,134 1574,132 1577,129 1579,125 1580,121 1580,116 1580,116 1579,114 1578,112 1576,111 1574,111 1572,112 1570,113 1569,115 1569,118 1569,118 1569,119 1569,121 1569,122 1568,123 1567,123 1566,123 1564,123 1562,122 1561,121 1559,119 1557,115 1556,110 1558,101 1561,94 1567,89 1574,87 1580,87 1585,88 1591,89 1596,91 1600,94 1604,97 1607,101 1608,104 1610,117 1610,130 1606,142 1600,154 1595,160 1589,166 1582,170 1576,174 1568,178 1561,180 1553,182 1545,183 1538,183 1532,183 1525,183 1518,183 1505,183 1493,183 1480,183 1468,184 1456,187 1445,191 1435,196 1426,204 1426,204 1425,206 1425,208 1425,210 1426,212 1428,214 1431,214 1433,214 1435,212 1435,212"/>
<polygon class="pen1 brush0" points="1437,219 1439,222 1444,227 1452,231 1462,230 1482,222 1503,217 1524,215 1545,214 1567,217 1589,222 1610,229 1631,239 1651,252 1670,267 1688,284 1705,305 1720,328 1734,354 1745,382 1755,413 1758,420 1762,427 1767,434 1773,439 1781,445 1789,449 1797,453 1806,456 1804,457 1799,458 1791,461 1780,464 1766,467 1750,469 1731,470 1711,470 1689,469 1666,465 1641,459 1616,450 1590,438 1563,422 1537,402 1510,378 1494,359 1484,342 1479,326 1477,312 1477,300 1476,288 1474,277 1469,267 1462,258 1454,250 1446,244 1438,238 1432,234 1427,231 1423,230 1422,229 1437,219"/>
<polygon class="pen1 brush2" points="1499,272 1499,272 1499,272 1499,272 1499,272 1500,272 1502,272 1505,272 1511,273 1518,274 1527,275 1540,277 1555,280 1567,284 1577,290 1585,298 1592,309 1597,320 1602,333 1606,346 1610,360 1612,367 1614,373 1615,380 1617,387 1621,395 1625,404 1631,411 1637,418 1644,425 1651,430 1660,435 1668,439 1676,441 1683,443 1691,443 1698,443 1706,442 1713,440 1720,437 1727,433 1736,424 1741,411 1743,396 1740,382 1737,376 1734,372 1730,368 1725,365 1719,363 1713,362 1706,363 1699,364 1693,366 1687,370 1683,374 1680,380 1680,385 1680,390 1682,394 1685,398 1688,400 1692,401 1697,401 1702,399 1702,399 1704,398 1705,396 1705,394 1705,392 1704,390 1702,389 1700,389 1698,389 1698,389 1697,389 1695,389 1694,389 1692,389 1691,388 1691,387 1691,385 1691,383 1693,380 1695,378 1698,376 1702,375 1712,374 1719,376 1725,380 1729,386 1731,397 1730,408 1727,417 1722,423 1716,426 1710,428 1704,430 1697,431 1691,431 1685,431 1678,430 1672,428 1665,425 1658,420 1651,416 1645,410 1640,404 1635,397 1631,390 1628,383 1626,377 1625,370 1623,364 1621,357 1617,343 1613,328 1607,314 1601,301 1593,290 1583,280 1571,273 1557,269 1541,266 1528,264 1518,263 1510,262 1505,261 1501,261 1499,261 1498,261 1498,261 1495,262 1494,263 1493,265 1493,268 1494,270 1495,271 1497,272 1499,272 1499,272"/>
<polygon class="pen1 brush0" points="2253,203 2250,205 2244,208 2234,209 2225,205 2209,191 2191,179 2172,170 2151,163 2130,158 2108,155 2086,155 2063,157 2040,163 2017,170 1994,181 1971,195 1949,211 1928,231 1907,254 1888,280 1883,286 1877,291 1869,295 1861,298 1853,301 1844,302 1834,303 1825,303 1826,304 1831,308 1838,313 1847,319 1859,326 1874,334 1891,341 1910,348 1931,354 1954,359 1979,361 2006,361 2035,359 2065,353 2097,343 2130,329 2152,317 2167,304 2177,291 2183,278 2188,266 2192,255 2198,246 2206,238 2215,232 2224,227 2232,224 2239,222 2245,220 2249,219 2252,219 2253,219 2253,203"/>
<polygon class="pen1 brush0" points="2247,290 2250,291 2259,294 2270,301 2283,310 2296,324 2306,343 2311,366 2310,396 2302,426 2291,451 2278,473 2264,494 2252,515 2243,537 2238,563 2240,593 2247,625 2256,655 2266,685 2275,715 2281,745 2282,776 2278,808 2266,842 2257,860 2247,877 2235,894 2221,910 2206,925 2189,939 2171,953 2152,964 2131,975 2109,983 2086,990 2061,994 2036,996 2009,996 1981,993 1952,987 1946,984 1939,981 1933,978 1926,975 1919,971 1873,938 1838,900 1814,860 1799,817 1791,774 1790,731 1795,690 1803,651 1809,634 1816,618 1824,604 1833,591 1844,580 1855,570 1867,561 1879,552 1892,544 1906,537 1919,529 1933,522 1947,514 1961,506 1975,497 1989,488 2011,468 2026,446 2035,424 2041,400 2046,376 2052,350 2062,324 2077,298 2096,276 2117,263 2136,257 2155,255 2171,257 2184,261 2192,264 2195,266 2197,269 2202,277 2209,285 2215,288 2218,288 2223,289 2228,289 2233,289 2238,290 2243,290 2246,290 2247,290"/>
<polygon class="pen1 brush0" points="2193,286 2196,281 2203,267 2214,247 2230,224 2248,202 2269,181 2291,167 2315,160 2347,217 2343,215 2333,212 2318,210 2300,211 2281,217 2262,231 2245,255 2231,292 2193,286"/>
<polygon class="pen1 brush0" points="2270,212 2277,206 2286,201 2296,198 2306,196 2317,195 2329,194 2341,194 2353,194 2360,195 2367,195 2374,195 2381,194 2390,193 2399,191 2408,188 2417,184 2425,180 2432,174 2438,167 2444,160 2452,147 2457,132 2458,117 2455,101 2452,95 2448,90 2443,86 2437,82 2430,78 2423,76 2415,75 2408,75 2397,78 2388,85 2382,96 2380,109 2380,116 2383,123 2387,128 2392,132 2396,134 2401,135 2405,134 2409,132 2412,129 2414,125 2416,121 2416,116 2416,116 2415,114 2413,112 2411,111 2409,111 2407,112 2405,113 2404,115 2404,118 2404,118 2404,119 2404,121 2404,122 2403,123 2402,123 2401,123 2399,123 2397,122 2396,121 2394,119 2392,115 2392,110 2393,101 2397,94 2402,89 2410,87 2415,87 2421,88 2426,89 2431,91 2436,94 2439,97 2442,101 2444,104 2446,117 2445,130 2441,142 2435,154 2430,160 2424,166 2418,170 2411,174 2404,178 2396,180 2388,182 2380,183 2374,183 2367,183 2360,183 2353,183 2340,183 2328,183 2315,183 2303,184 2291,187 2280,191 2270,196 2261,204 2261,204 2260,206 2260,208 2260,210 2262,212 2264,214 2266,214 2268,214 2270,212 2270,212"/>
<polygon class="pen1 brush0" points="2272,219 2274,222 2279,227 2287,231 2297,230 2317,222 2338,217 2359,215 2380,214 2402,217 2424,222 2445,229 2466,239 2486,252 2505,267 2523,284 2540,305 2555,328 2569,354 2580,382 2590,413 2593,420 2597,427 2602,434 2608,439 2616,445 2624,449 2632,453 2641,456 2639,457 2634,458 2626,461 2615,464 2601,467 2585,469 2566,470 2546,470 2524,469 2501,465 2477,459 2451,450 2425,438 2398,422 2372,402 2345,378 2329,359 2319,342 2314,326 2312,312 2312,300 2312,288 2310,277 2305,267 2297,258 2289,250 2281,244 2273,239 2266,235 2260,232 2256,231 2255,230 2272,219"/>
<polygon class="pen1 brush2" points="2334,272 2334,272 2334,272 2334,272 2334,272 2335,272 2337,272 2340,272 2346,273 2353,274 2362,275 2375,277 2390,280 2402,284 2412,290 2420,298 2427,309 2432,320 2437,333 2441,346 2445,360 2447,367 2449,373 2451,380 2453,387 2457,395 2461,404 2466,411 2472,418 2479,425 2487,430 2495,435 2503,439 2511,441 2518,443 2526,443 2534,443 2541,442 2549,440 2556,437 2563,433 2571,424 2577,411 2578,396 2575,382 2572,376 2569,372 2565,368 2560,365 2554,363 2548,362 2542,363 2535,364 2528,366 2523,370 2518,374 2516,380 2515,385 2515,390 2517,394 2520,398 2524,400 2528,401 2532,401 2537,399 2537,399 2539,398 2540,396 2541,394 2540,392 2539,390 2537,389 2535,389 2533,389 2533,389 2532,389 2531,389 2529,389 2528,389 2527,388 2526,387 2526,385 2527,383 2528,380 2531,378 2533,376 2537,375 2547,374 2554,376 2560,380 2564,386 2567,397 2566,408 2562,417 2557,423 2551,426 2545,428 2539,430 2533,431 2526,431 2520,431 2513,430 2507,428 2500,425 2493,420 2486,416 2480,410 2475,404 2470,397 2467,390 2464,383 2462,377 2460,370 2458,364 2456,357 2452,343 2448,328 2442,314 2436,301 2428,290 2418,280 2406,273 2392,269 2376,266 2363,264 2353,263 2345,262 2340,261 2336,261 2334,261 2333,261 2333,261 2331,262 2329,263 2328,265 2328,268 2329,270 2330,271 2332,272 2334,272 2334,272"/>
<polygon class="pen1 brush2" points="509,282 509,282 510,280 509,277 508,275 505,273 503,273 500,274 498,275 496,278 487,295 475,310 461,323 444,334 427,343 410,350 394,355 380,359 379,363 379,366 378,370 377,374 392,370 409,365 428,358 448,348 467,336 484,321 498,303 509,282"/>
<polygon class="pen1 brush2" points="1334,282 1334,282 1334,280 1334,277 1332,275 1330,273 1327,273 1324,274 1322,275 1321,278 1313,294 1302,308 1290,320 1276,330 1261,339 1245,346 1230,352 1216,356 1215,360 1214,363 1213,367 1212,371 1228,367 1245,361 1262,354 1280,344 1297,332 1312,318 1325,302 1334,282"/>
<polygon class="pen1 brush2" points="2168,282 2168,282 2168,280 2168,277 2166,275 2164,273 2161,273 2158,274 2156,275 2155,278 2147,294 2136,308 2124,320 2110,330 2095,339 2079,346 2064,352 2050,356 2049,360 2049,363 2048,367 2047,371 2062,367 2079,361 2097,354 2114,344 2131,332 2146,318 2159,302 2168,282"/>
</g>
</svg>
