<?xml version="1.0" encoding="UTF-8" standalone="no"?>
<!DOCTYPE svg PUBLIC "-//W3C//DTD SVG 1.0//EN" "http://www.w3.org/TR/2001/REC-SVG-20010904/DTD/svg10.dtd">
<svg xmlns="http://www.w3.org/2000/svg" xmlns:xlink="http://www.w3.org/1999/xlink" fill-rule="evenodd" height="0.922in" preserveAspectRatio="none" stroke-linecap="round" viewBox="0 0 939 922" width="0.939in">
<style type="text/css">
.brush0 { fill: rgb(255,255,255); }
.pen0 { stroke: rgb(0,0,0); stroke-width: 1; stroke-linejoin: round; }
.brush1 { fill: none; }
.pen1 { stroke: none; }
.brush2 { fill: rgb(0,0,0); }
</style>
<g>
<polygon class="pen1 brush2" points="241,834 261,838 274,848 283,862 285,878 282,894 274,908 260,918 241,922 222,918 209,908 201,894 198,878 201,862 209,848 222,838 241,834 229,851 221,855 218,863 220,871 229,875 229,875 238,871 241,863 238,855 229,851 241,834"/>
<polygon class="pen1 brush2" points="66,794 85,798 99,808 107,822 110,837 107,853 98,867 85,877 66,881 47,877 34,867 26,853 23,837 26,822 34,808 47,798 66,794 54,811 45,815 41,823 44,832 54,836 54,836 64,832 67,823 64,815 54,811 66,794"/>
<polygon class="pen1 brush2" points="78,618 97,622 111,632 119,646 122,662 119,678 111,692 97,702 78,706 60,702 46,692 38,678 36,662 38,646 46,632 59,622 78,618 67,636 58,640 55,648 58,656 67,660 67,660 67,660 76,656 79,648 76,640 67,636 78,618"/>
<polygon class="pen1 brush2" points="768,396 788,400 801,410 810,424 812,439 809,455 801,469 787,479 768,483 749,479 736,469 728,455 725,439 728,424 736,410 749,400 768,396 756,413 748,417 745,424 747,432 756,436 756,436 765,432 768,424 765,417 756,413 768,396"/>
<polygon class="pen1 brush2" points="281,131 300,130 321,146 343,175 364,212 383,252 401,291 414,323 424,345 432,298 431,248 426,198 421,150 441,147 448,250 460,231 471,212 482,194 493,178 504,162 514,147 524,134 534,121 554,134 524,166 498,201 477,239 461,279 449,320 441,363 437,406 438,450 433,448 429,445 423,440 417,435 413,395 404,355 389,315 370,275 349,236 326,198 303,163 281,131 281,131 281,131"/>
<polygon class="pen1 brush2" points="412,38 394,42 380,52 372,66 369,82 372,98 380,112 393,122 412,126 431,122 445,112 453,98 456,82 453,66 445,52 431,42 412,38 401,56 410,60 413,68 410,76 401,80 401,80 392,76 389,68 392,60 401,56 412,38"/>
<polygon class="pen1 brush2" points="589,30 608,34 622,44 630,58 633,74 630,90 622,104 608,114 589,118 570,114 557,104 548,90 546,74 549,58 557,44 570,34 589,30 577,48 568,52 565,59 568,67 577,71 577,71 577,71 586,67 589,59 586,52 577,48 589,30"/>
<polygon class="pen1 brush2" points="254,22 273,26 287,36 295,50 298,66 295,82 287,96 273,106 254,110 235,106 222,96 213,82 211,66 214,50 222,36 235,26 254,22 242,39 233,43 230,51 233,59 242,63 242,63 242,63 251,59 254,51 251,43 242,39 254,22"/>
<polygon class="pen1 brush2" points="522,815 522,834 554,833 585,828 615,821 644,811 671,799 698,785 723,768 746,749 768,729 788,707 807,683 824,657 838,631 851,603 862,574 871,544 870,543 868,542 865,542 861,541 850,560 837,579 822,599 806,620 789,641 770,662 751,682 731,702 710,721 688,739 666,755 644,769 621,782 599,792 576,799 554,804 567,795 580,782 592,766 603,749 611,730 616,712 618,694 615,677 613,671 612,665 614,661 620,658 643,652 664,644 682,633 698,619 712,602 724,583 733,561 740,536 774,544 802,541 825,531 844,514 860,492 874,467 886,438 897,409 909,442 910,481 906,521 899,556 893,583 889,609 887,632 888,655 890,678 896,701 905,726 918,753 894,767 872,783 853,799 837,816 823,834 813,854 804,874 799,895 784,892 770,885 755,875 741,867 726,863 710,865 693,876 675,899 657,891 639,883 621,875 603,868 584,862 565,858 546,855 526,854 530,867 538,882 548,898 554,912 499,912 497,901 492,887 483,872 472,854 452,854 432,854 413,855 394,855 375,857 356,859 336,862 316,866 311,847 329,844 346,841 363,839 379,838 396,837 413,836 430,836 448,836 429,818 410,803 391,791 373,781 354,774 336,768 317,765 298,764 279,764 260,767 241,770 221,775 201,781 180,789 159,797 138,806 126,790 139,782 153,775 167,768 182,762 197,756 213,751 229,747 246,743 245,740 225,734 207,728 192,723 178,718 167,714 157,711 150,708 145,705 156,689 186,698 215,706 242,715 268,724 293,733 317,742 340,751 361,761 381,770 400,780 417,790 434,800 449,810 462,820 475,831 486,841 480,818 469,794 456,770 440,746 424,723 407,701 391,680 377,660 364,638 348,608 331,572 311,530 290,485 268,437 246,387 223,337 200,289 177,243 155,200 134,162 114,131 96,107 81,91 67,86 69,90 72,97 76,107 82,119 89,134 97,152 106,173 116,196 128,225 140,254 152,283 164,312 176,341 188,370 200,398 212,426 224,455 237,483 251,510 265,538 279,565 295,592 311,619 328,645 345,670 359,691 371,709 381,724 389,735 395,743 399,748 401,750 384,737 369,724 355,713 341,703 329,693 317,684 304,677 292,670 280,664 267,660 253,656 238,653 222,651 205,650 185,650 164,651 164,613 161,581 156,553 147,529 132,506 111,485 83,465 45,443 71,414 87,385 95,358 94,331 85,306 68,283 44,263 13,246 38,219 52,191 58,163 56,134 48,104 35,75 19,46 0,17 0,10 18,12 34,17 50,26 66,36 81,49 96,63 111,79 126,94 142,110 158,126 175,140 193,153 212,163 233,172 255,177 279,179 276,209 276,236 280,260 289,282 301,301 319,318 341,335 368,350 360,375 357,400 357,423 362,446 372,466 386,485 406,501 430,515 417,544 412,576 412,610 417,644 426,678 439,710 454,741 470,767 468,709 467,650 468,592 476,535 481,513 486,487 492,458 496,428 497,398 495,370 488,346 474,326 474,317 515,313 544,302 563,284 574,262 579,236 580,207 580,176 580,145 616,150 645,148 666,140 681,126 690,105 695,80 697,49 697,14 714,22 728,30 741,38 753,45 763,50 773,55 782,59 791,61 800,61 809,60 819,57 830,53 842,46 856,36 871,24 889,10 901,12 903,24 898,44 888,68 877,95 868,123 863,148 867,169 869,171 871,175 875,180 879,186 884,194 890,202 897,212 905,223 880,224 859,227 843,233 831,242 823,255 817,271 815,292 814,317 797,318 781,321 766,327 752,334 738,342 726,352 714,364 703,376 693,390 684,404 676,419 669,434 663,449 658,465 654,481 651,496 624,509 601,525 581,543 563,563 547,586 533,609 520,635 508,661 514,618 524,578 538,540 554,503 574,468 595,434 618,401 643,368 668,337 693,305 718,273 742,241 766,209 787,175 806,141 823,105 817,100 789,132 761,164 732,196 704,228 675,260 648,293 621,327 596,361 573,396 552,431 533,468 516,507 503,547 493,588 487,631 485,676 486,707 490,759 496,808 503,830 506,803 510,777 517,752 525,728 535,704 546,681 559,659 573,637 587,616 603,596 619,575 636,555 654,536 671,516 689,497 707,478 713,483 717,488 721,492 724,495 709,510 693,526 676,543 660,561 643,579 626,599 609,618 594,638 579,659 565,681 553,702 543,724 534,747 527,769 523,792 522,815 522,815"/>
</g>
</svg>
