<?xml version="1.0" encoding="UTF-8" standalone="no"?>
<!DOCTYPE svg PUBLIC "-//W3C//DTD SVG 1.0//EN" "http://www.w3.org/TR/2001/REC-SVG-20010904/DTD/svg10.dtd">
<svg xmlns="http://www.w3.org/2000/svg" xmlns:xlink="http://www.w3.org/1999/xlink" fill-rule="evenodd" height="1.004in" preserveAspectRatio="none" stroke-linecap="round" viewBox="0 0 990 1004" width="0.99in">
<style type="text/css">
.brush0 { fill: rgb(255,255,255); }
.pen0 { stroke: rgb(0,0,0); stroke-width: 1; stroke-linejoin: round; }
.brush1 { fill: none; }
.pen1 { stroke: none; }
.brush2 { fill: rgb(0,0,0); }
</style>
<g>
<polygon class="pen1 brush2" points="399,458 470,458 477,444 484,430 490,415 496,399 501,413 507,428 513,443 521,458 590,458 583,463 576,468 568,473 561,479 554,485 546,492 539,499 532,506 551,575 546,572 541,569 535,565 528,561 521,556 513,550 505,544 496,537 483,546 472,553 463,560 455,565 448,570 444,573 441,574 439,575 459,506 453,499 446,493 440,487 432,480 425,475 417,469 408,463 399,458 399,458 399,458"/>
<polygon class="pen1 brush2" points="606,500 615,510 624,520 633,529 641,539 649,549 657,559 665,569 672,579 577,579 577,579 575,600 571,629 568,659 570,681 496,611 420,681 420,673 418,653 416,622 413,579 318,579 325,569 332,559 340,549 348,539 356,529 365,520 374,510 384,500 331,477 269,477 262,466 254,453 245,439 235,426 225,415 213,407 201,403 187,404 189,408 192,414 196,421 202,430 209,439 217,451 227,463 238,477 187,477 176,462 165,449 155,437 146,428 138,420 130,414 123,411 117,409 115,412 114,415 112,418 110,421 147,474 104,477 99,467 94,459 90,451 85,444 80,438 75,433 68,427 59,421 50,428 50,437 66,460 70,473 65,479 54,480 38,480 23,479 9,482 0,490 9,496 19,501 29,505 39,508 50,510 61,512 72,513 83,515 75,523 68,530 61,537 56,543 52,548 48,553 46,557 44,560 55,563 65,559 75,551 86,540 96,528 107,518 118,511 131,509 148,512 154,517 153,523 146,530 136,539 126,548 118,559 115,570 118,579 128,576 142,564 159,547 178,530 199,517 218,511 236,517 227,530 219,541 211,552 205,561 200,569 195,577 192,583 189,588 201,588 213,583 225,574 236,563 247,550 257,538 266,525 274,515 335,515 332,520 328,526 321,534 313,543 302,554 290,567 276,581 260,597 273,598 286,598 299,599 312,599 325,599 338,600 350,602 362,604 354,620 339,631 319,638 296,642 271,644 246,644 224,646 205,648 208,657 216,663 227,667 240,668 255,669 268,669 280,668 289,668 256,709 156,709 154,718 158,725 166,729 178,732 192,734 206,735 218,735 227,736 194,770 94,791 103,794 112,795 121,796 130,797 139,797 148,797 157,797 167,797 167,803 159,809 151,816 142,823 133,831 126,838 120,847 115,856 114,865 125,868 136,867 147,862 158,854 168,845 178,835 187,826 194,819 194,834 194,855 197,874 205,883 218,869 222,842 222,813 221,791 256,762 260,776 261,797 261,819 260,835 266,839 271,840 276,838 280,831 286,812 287,793 286,775 285,758 285,742 291,726 303,711 325,697 325,725 325,725 325,726 325,742 327,760 333,775 345,781 353,759 355,738 355,718 353,699 354,681 359,663 372,647 394,631 398,731 479,658 479,717 466,726 454,734 443,742 433,749 424,757 416,764 410,771 405,778 400,790 404,793 414,791 427,784 443,775 458,765 470,757 478,752 478,764 479,778 479,791 478,803 469,809 459,817 448,826 437,835 427,845 419,856 413,867 411,878 421,877 430,874 439,869 447,863 455,856 462,849 470,842 478,836 477,849 477,861 477,874 478,887 470,889 461,894 450,901 440,910 431,921 424,932 422,942 425,952 429,951 434,950 440,947 446,944 453,940 461,934 469,928 478,921 486,989 501,986 508,965 510,937 511,916 515,919 520,924 527,930 535,937 543,943 550,949 557,953 561,954 569,951 569,943 562,932 551,919 538,906 525,895 516,886 511,882 511,839 518,841 526,845 534,852 542,859 551,867 561,874 571,879 583,882 581,870 574,858 564,847 553,836 540,826 528,817 516,810 507,803 508,774 512,761 518,759 527,765 538,777 551,789 566,799 583,803 584,796 578,786 567,773 553,758 538,744 524,731 513,722 507,717 510,658 592,731 596,631 600,633 605,636 609,639 614,643 619,647 624,652 629,657 635,662 634,692 634,722 637,752 644,781 658,771 664,747 665,719 665,697 670,700 675,703 680,706 685,710 690,715 695,720 700,725 705,731 705,739 704,755 703,776 704,797 706,817 710,832 718,839 730,835 729,819 728,797 729,776 734,762 769,791 768,813 768,842 772,869 785,883 794,874 796,856 796,835 796,819 825,843 848,858 864,866 873,867 874,861 866,848 849,829 823,803 823,797 833,797 842,797 851,797 860,797 869,796 878,795 887,794 896,791 893,781 883,774 870,770 854,768 837,768 820,769 806,770 796,770 763,736 772,735 784,735 798,734 811,732 823,729 831,725 836,718 834,709 734,709 701,668 710,668 722,669 736,669 750,668 763,666 775,663 782,657 785,648 767,646 745,645 721,645 696,643 673,639 652,632 636,621 627,604 633,603 641,601 651,600 663,599 677,598 693,598 710,597 730,597 713,579 698,564 685,550 675,539 666,530 660,522 657,518 655,515 606,500"/>
<polygon class="pen1 brush2" points="655,515 715,515 723,525 733,538 742,550 753,563 764,574 776,583 788,588 801,588 753,517 771,509 788,511 803,520 816,534 829,550 840,565 851,576 862,580 872,577 875,571 871,561 863,550 853,538 844,528 837,521 834,517 841,507 854,508 870,516 887,528 905,541 922,553 936,560 945,560 943,555 940,550 937,545 932,539 927,533 921,527 914,521 907,515 922,513 936,511 949,508 960,505 969,502 978,498 984,494 990,490 988,484 981,482 975,481 968,481 962,481 956,481 949,481 943,481 936,481 924,480 919,476 919,470 922,462 928,454 933,445 938,436 940,428 931,421 922,426 915,432 909,438 904,444 900,452 896,459 891,468 886,477 843,474 880,421 878,418 876,415 875,412 873,409 867,411 860,414 852,420 844,428 835,437 825,449 814,462 803,477 752,477 757,468 764,459 771,450 779,441 786,433 793,424 799,414 803,404 790,403 777,407 765,416 755,427 744,440 736,453 728,466 721,477 659,477 730,399 610,395 640,358 652,358 668,359 687,360 707,361 727,360 745,358 759,353 767,346 759,332 681,332 678,325 715,283 726,284 741,285 759,286 779,287 797,286 812,283 823,277 827,267 818,262 808,261 797,261 787,262 776,262 765,261 755,258 746,251 767,231 784,220 798,215 811,215 824,218 841,219 860,219 886,213 886,192 877,192 868,191 859,190 850,190 840,189 831,188 822,187 813,186 821,179 830,170 841,160 852,149 861,138 869,127 873,115 873,104 864,100 855,107 846,114 838,121 829,129 821,136 813,144 804,151 796,159 794,132 789,112 781,100 774,97 767,104 764,121 764,148 769,186 730,228 729,217 728,205 726,191 724,177 721,165 716,155 708,148 697,145 691,168 691,187 694,203 697,217 698,232 694,248 684,267 664,290 662,269 660,241 653,216 639,203 630,226 631,256 635,288 638,316 636,322 632,328 625,334 618,340 611,346 604,351 600,355 598,358 595,343 592,321 591,291 590,254 514,321 511,280 522,269 533,258 544,248 554,239 564,230 574,221 584,213 593,205 593,192 584,188 574,190 563,195 551,203 540,213 530,222 521,230 515,236 507,183 515,176 525,169 536,161 547,152 558,143 567,134 573,125 575,116 566,111 557,111 550,113 543,118 536,125 528,131 520,137 511,141 510,135 508,126 507,115 507,100 514,94 523,88 532,81 540,73 548,65 554,56 558,46 560,36 555,37 549,40 542,44 535,49 527,54 519,59 513,63 507,66 508,49 507,29 502,12 490,0 486,16 483,32 479,48 473,64 467,59 462,55 456,51 451,47 447,44 442,41 438,38 434,36 427,41 424,47 425,53 428,58 432,64 438,69 444,74 450,79 460,87 467,93 472,98 475,103 476,109 475,116 473,124 470,136 467,134 461,131 452,125 442,120 432,114 423,109 417,105 415,104 416,117 421,129 428,139 438,149 448,158 459,166 469,175 479,183 474,221 467,216 459,210 452,204 444,198 437,192 429,187 421,183 413,180 409,189 412,200 420,213 431,226 445,239 458,251 470,262 479,269 479,315 473,319 399,254 399,295 397,325 395,347 391,358 368,335 357,313 354,294 356,275 360,257 363,239 361,221 351,203 337,217 330,241 328,268 326,290 306,267 296,248 292,232 293,218 296,204 299,188 299,169 293,145 282,148 274,155 268,166 264,178 262,192 261,205 260,218 260,228 221,186 226,148 226,121 222,104 215,97 208,100 201,111 196,131 194,159 186,151 177,144 169,136 160,129 151,121 143,114 134,107 126,100 117,104 117,114 122,125 130,136 139,148 150,159 160,169 170,179 177,186 168,187 159,187 149,187 140,188 130,188 121,189 112,190 104,192 104,213 130,219 150,219 166,218 179,215 192,215 206,220 223,231 244,251 235,258 225,261 215,262 204,261 193,260 183,260 172,262 163,267 167,277 177,284 192,287 210,288 228,287 247,285 262,284 274,283 312,325 309,332 231,332 223,346 231,353 245,358 263,360 282,361 303,360 322,359 338,358 350,358 380,395 260,399 331,477 384,500 376,490 367,480 358,470 349,460 339,451 330,441 321,431 312,421 333,421 352,421 368,421 382,420 394,420 403,419 409,419 413,418 417,396 420,370 422,341 423,307 431,314 441,322 452,330 463,338 474,347 483,355 491,363 496,370 500,364 507,356 517,347 528,338 539,329 550,320 560,313 567,307 568,342 570,372 573,397 577,418 581,419 588,419 597,420 608,420 622,421 638,421 657,421 678,421 606,500 655,515"/>
</g>
</svg>
