<?xml version="1.0" encoding="UTF-8" standalone="no"?>
<!DOCTYPE svg PUBLIC "-//W3C//DTD SVG 1.0//EN" "http://www.w3.org/TR/2001/REC-SVG-20010904/DTD/svg10.dtd">
<svg xmlns="http://www.w3.org/2000/svg" xmlns:xlink="http://www.w3.org/1999/xlink" fill-rule="evenodd" height="1.356in" preserveAspectRatio="none" stroke-linecap="round" viewBox="0 0 1979 1356" width="1.979in">
<style type="text/css">
.brush0 { fill: rgb(255,255,255); }
.pen0 { stroke: rgb(0,0,0); stroke-width: 1; stroke-linejoin: round; }
.brush1 { fill: none; }
.pen1 { stroke: none; }
.brush2 { fill: rgb(0,0,0); }
</style>
<g>
<polygon class="pen1 brush2" points="1381,987 1377,906 1380,825 1387,748 1398,675 1411,609 1423,551 1435,504 1445,469 1452,478 1462,491 1474,509 1486,531 1499,557 1511,586 1521,618 1529,653 1533,690 1532,729 1526,770 1513,812 1494,855 1466,899 1428,943 1381,987 1381,987"/>
<polygon class="pen1 brush2" points="1435,466 1383,501 1342,539 1310,577 1288,617 1274,657 1268,697 1267,736 1271,774 1279,810 1291,845 1304,877 1319,906 1334,931 1347,953 1359,970 1368,982 1366,900 1369,819 1377,741 1388,668 1401,603 1414,546 1426,500 1435,466 1435,466"/>
<polygon class="pen1 brush2" points="1979,439 1959,430 1936,421 1914,414 1892,409 1873,405 1858,401 1848,400 1844,399 1858,385 1773,378 1692,375 1612,376 1535,379 1461,386 1389,395 1320,407 1254,421 1190,437 1129,455 1070,475 1014,496 961,518 910,541 862,565 817,589 774,613 734,638 697,662 662,686 631,710 601,732 575,754 551,774 531,792 512,809 497,824 484,837 475,847 468,855 463,859 462,861 505,851 566,798 627,749 690,704 753,663 816,626 879,593 943,563 1006,537 1069,514 1131,493 1193,475 1254,460 1313,448 1371,438 1428,429 1483,423 1536,418 1587,415 1636,414 1682,413 1726,414 1766,415 1804,417 1839,420 1870,423 1898,426 1922,429 1942,432 1958,435 1969,437 1977,439 1979,439 1979,439"/>
<polygon class="pen1 brush2" points="973,1098 965,1016 962,936 964,858 970,784 978,718 987,660 996,612 1003,577 1011,586 1022,599 1035,616 1049,637 1063,662 1077,690 1089,721 1099,755 1105,792 1106,830 1103,871 1093,914 1076,959 1051,1004 1017,1051 973,1098 973,1098"/>
<polygon class="pen1 brush2" points="993,573 986,607 978,654 969,711 961,778 955,851 952,929 954,1010 962,1091 952,1080 939,1064 924,1044 908,1020 891,992 875,962 862,928 851,892 844,854 842,815 846,775 857,734 876,693 905,652 943,612 993,573 993,573"/>
<polygon class="pen1 brush2" points="603,834 596,869 587,916 577,974 569,1041 562,1114 559,1192 560,1273 567,1354 557,1343 545,1327 529,1306 513,1282 497,1254 482,1223 468,1189 458,1153 451,1115 449,1076 454,1035 465,994 485,953 514,913 553,873 603,834 603,834"/>
<polygon class="pen1 brush2" points="611,844 621,856 632,871 645,890 659,912 672,937 684,966 694,997 702,1030 707,1065 707,1103 702,1142 692,1183 675,1225 651,1268 619,1312 578,1356 571,1278 569,1200 572,1124 578,1052 586,987 595,929 604,881 611,844 611,844"/>
<polygon class="pen1 brush2" points="918,182 952,238 987,283 1024,320 1063,348 1101,369 1140,383 1178,392 1215,396 1250,396 1284,392 1315,387 1342,379 1366,372 1386,364 1402,357 1412,352 1397,344 1380,335 1359,325 1336,313 1310,301 1282,289 1252,276 1220,263 1186,250 1151,238 1114,226 1077,215 1038,204 998,195 958,188 918,182 918,182"/>
<polygon class="pen1 brush2" points="1415,342 1401,335 1384,326 1364,316 1341,305 1316,293 1288,280 1258,267 1227,254 1193,241 1158,229 1121,217 1084,205 1045,195 1005,186 965,178 925,172 938,166 956,158 980,148 1007,139 1038,131 1072,124 1108,119 1146,119 1184,122 1222,131 1260,146 1296,167 1331,197 1362,235 1391,283 1415,342 1415,342"/>
<polygon class="pen1 brush2" points="435,360 476,363 517,368 557,374 597,382 636,391 673,400 709,411 744,421 777,432 808,443 836,454 863,464 886,474 907,483 925,490 939,497 930,502 916,510 897,519 874,528 847,538 817,545 784,551 748,554 711,553 672,547 632,535 592,517 551,491 511,457 472,414 435,360 435,360"/>
<polygon class="pen1 brush2" points="945,486 931,480 913,472 893,463 869,454 843,444 815,433 784,422 751,411 717,400 681,390 644,380 605,371 566,363 526,357 486,352 445,348 458,341 476,331 499,321 526,310 556,300 590,291 625,284 663,281 701,282 740,289 778,301 816,320 852,348 886,384 917,430 945,486 945,486"/>
<polygon class="pen1 brush2" points="0,665 41,665 82,666 123,669 163,673 202,679 241,685 278,692 313,700 347,708 379,716 408,724 436,732 460,740 482,747 501,754 516,759 507,765 493,774 475,785 453,796 426,808 397,818 364,827 329,832 291,834 252,832 211,823 170,808 127,786 85,755 42,715 0,665 0,665"/>
<polygon class="pen1 brush2" points="519,749 504,744 486,738 465,731 440,724 413,716 384,708 352,700 319,691 283,684 247,677 208,670 169,665 129,660 88,657 47,655 6,655 18,646 36,635 58,623 84,609 114,597 146,585 182,575 219,569 257,567 296,570 336,579 375,595 414,619 451,652 486,695 519,749"/>
</g>
</svg>
