<?xml version="1.0" encoding="UTF-8" standalone="no"?>
<!DOCTYPE svg PUBLIC "-//W3C//DTD SVG 1.0//EN" "http://www.w3.org/TR/2001/REC-SVG-20010904/DTD/svg10.dtd">
<svg xmlns="http://www.w3.org/2000/svg" xmlns:xlink="http://www.w3.org/1999/xlink" fill-rule="evenodd" height="1.826in" preserveAspectRatio="none" stroke-linecap="round" viewBox="0 0 1984 1826" width="1.984in">
<style type="text/css">
.brush0 { fill: rgb(255,255,255); }
.pen0 { stroke: rgb(0,0,0); stroke-width: 1; stroke-linejoin: round; }
.brush1 { fill: none; }
.pen1 { stroke: none; }
.brush2 { fill: rgb(0,0,0); }
</style>
<g>
<polygon class="pen1 brush2" points="159,1826 156,1820 148,1804 137,1776 122,1739 105,1692 87,1635 69,1570 52,1496 41,1436 31,1372 23,1305 17,1233 13,1158 12,1079 14,997 20,912 20,912 25,862 31,812 39,760 48,707 58,653 71,598 85,543 101,486 111,448 121,405 127,356 128,301 123,239 109,169 85,89 49,0 50,1 54,4 60,9 69,16 79,24 92,34 107,45 123,57 141,71 161,86 182,101 205,117 229,134 254,152 280,170 307,188 334,207 363,225 392,244 421,262 451,280 481,297 511,314 542,331 572,346 602,361 632,375 661,387 689,398 717,408 745,416 771,423 771,420 773,410 776,395 780,375 785,352 793,325 803,296 815,265 829,233 846,201 865,170 888,140 914,112 944,88 977,67 1014,50 1013,52 1012,57 1011,64 1011,72 1014,80 1020,88 1031,93 1048,95 1058,95 1069,94 1080,93 1093,91 1106,88 1120,85 1135,82 1151,79 1167,75 1184,72 1202,69 1220,66 1239,64 1259,62 1280,61 1301,61 1300,63 1298,67 1296,74 1296,82 1300,91 1309,99 1326,105 1351,110 1366,111 1382,113 1399,115 1416,118 1434,121 1452,124 1470,127 1488,131 1505,135 1522,139 1539,144 1555,149 1570,154 1584,160 1597,166 1608,172 1605,173 1598,176 1590,181 1582,189 1578,198 1580,209 1591,221 1612,236 1626,244 1641,253 1656,261 1671,270 1687,279 1703,288 1719,297 1735,306 1751,316 1766,325 1781,334 1795,343 1808,352 1821,361 1832,370 1842,379 1840,379 1834,378 1827,378 1819,379 1811,382 1806,388 1805,398 1808,413 1817,436 1831,467 1850,505 1870,546 1891,589 1911,630 1929,668 1943,698 1941,697 1937,693 1931,689 1924,686 1917,686 1910,689 1905,698 1903,713 1903,746 1905,788 1907,836 1912,886 1918,937 1927,984 1938,1025 1951,1057 1919,1094 1907,1131 1909,1167 1922,1203 1941,1239 1960,1273 1976,1306 1984,1338 1945,1327 1909,1320 1877,1316 1849,1316 1823,1319 1801,1324 1782,1331 1765,1339 1751,1348 1739,1357 1730,1367 1723,1375 1717,1383 1714,1389 1712,1393 1711,1394 1695,1392 1676,1391 1655,1392 1631,1394 1607,1397 1581,1401 1555,1406 1529,1411 1503,1417 1478,1423 1454,1429 1432,1434 1412,1440 1394,1445 1380,1449 1369,1453 1355,1460 1347,1468 1346,1475 1349,1482 1354,1488 1359,1493 1364,1496 1366,1497 1350,1495 1332,1492 1313,1490 1292,1486 1269,1483 1246,1480 1223,1476 1199,1473 1176,1469 1154,1466 1132,1463 1112,1461 1094,1459 1078,1457 1065,1456 1054,1456 1039,1458 1029,1462 1025,1469 1024,1478 1026,1486 1028,1493 1031,1498 1032,1500 1021,1493 1009,1485 996,1476 983,1466 970,1456 957,1444 943,1433 930,1421 916,1408 902,1396 889,1383 875,1371 862,1358 849,1347 837,1335 825,1324 804,1308 789,1302 778,1304 771,1311 767,1320 765,1329 764,1337 764,1340 745,1321 725,1297 706,1269 687,1239 669,1207 652,1175 636,1144 623,1115 612,1092 601,1079 591,1072 582,1071 574,1074 569,1078 565,1081 564,1083 555,1051 548,1019 544,987 540,954 537,922 533,891 527,861 518,833 511,818 502,810 493,806 484,806 476,808 469,811 465,814 463,815 467,775 477,737 491,702 509,669 530,638 553,611 577,585 603,563 628,543 652,525 675,510 695,498 712,488 726,482 734,477 737,476 675,444 615,413 558,382 503,351 452,322 404,293 359,266 318,240 281,217 249,196 220,177 197,161 178,148 164,139 156,133 153,131 152,135 151,146 150,164 152,188 158,219 169,255 188,297 216,344 262,421 301,502 334,587 360,676 381,766 395,858 403,952 405,1046 401,1141 392,1234 376,1327 355,1418 328,1507 295,1593 257,1675 214,1753 233,1586 242,1389 243,1176 239,965 231,773 221,615 212,508 204,469 201,522 203,663 207,865 211,1101 211,1342 204,1561 188,1732 159,1826"/>
<polygon class="pen1 brush0" points="885,560 866,644 855,728 851,814 854,899 864,984 881,1067 905,1149 936,1229 947,1223 918,1149 894,1069 877,985 866,900 862,814 865,728 877,646 896,567 1146,746 1142,815 1142,885 1145,956 1152,1027 1163,1097 1178,1166 1197,1234 1220,1300 1231,1294 1209,1229 1191,1163 1177,1096 1166,1028 1158,960 1154,891 1154,822 1157,754 1426,946 1420,994 1418,1041 1419,1086 1424,1130 1433,1173 1446,1217 1463,1260 1484,1304 1495,1297 1474,1258 1457,1217 1445,1175 1436,1131 1431,1087 1430,1043 1433,999 1439,955 1872,1263 1879,1253 1446,943 1466,933 1487,924 1508,915 1528,907 1549,901 1570,894 1591,889 1612,885 1633,881 1655,879 1677,877 1698,877 1720,877 1743,879 1765,881 1788,885 1789,871 1768,868 1747,866 1724,865 1702,865 1679,866 1655,868 1632,870 1609,874 1585,878 1562,883 1539,890 1517,897 1495,905 1474,914 1453,924 1434,935 1166,744 1196,731 1227,718 1258,706 1290,695 1322,684 1355,674 1389,665 1422,657 1456,650 1491,643 1525,638 1560,633 1595,629 1630,627 1666,625 1701,625 1701,611 1666,611 1631,613 1595,615 1560,619 1525,623 1490,628 1455,634 1420,642 1386,650 1351,659 1317,669 1284,681 1250,693 1217,706 1185,721 1153,736 903,556 936,533 971,512 1007,492 1044,474 1083,457 1122,442 1162,429 1203,418 1244,408 1286,399 1327,393 1369,388 1410,385 1451,383 1491,383 1531,385 1532,371 1490,369 1447,370 1405,371 1363,375 1321,380 1279,387 1238,396 1197,406 1156,418 1116,431 1077,446 1038,463 1000,482 962,502 926,524 890,547 798,482 791,492 885,560"/>
</g>
</svg>
