<?xml version="1.0" encoding="UTF-8" standalone="no"?>
<!DOCTYPE svg PUBLIC "-//W3C//DTD SVG 1.0//EN" "http://www.w3.org/TR/2001/REC-SVG-20010904/DTD/svg10.dtd">
<svg xmlns="http://www.w3.org/2000/svg" xmlns:xlink="http://www.w3.org/1999/xlink" fill-rule="evenodd" height="2.01in" preserveAspectRatio="none" stroke-linecap="round" viewBox="0 0 1735 2010" width="1.735in">
<style type="text/css">
.brush0 { fill: rgb(255,255,255); }
.pen0 { stroke: rgb(0,0,0); stroke-width: 1; stroke-linejoin: round; }
.brush1 { fill: none; }
.pen1 { stroke: none; }
.brush2 { fill: rgb(0,0,0); }
</style>
<g>
<polygon class="pen1 brush2" points="1236,1062 1262,1098 1285,1137 1305,1179 1324,1223 1340,1269 1353,1316 1365,1365 1375,1414 1384,1463 1391,1513 1396,1562 1401,1611 1404,1658 1406,1704 1408,1749 1409,1791 1417,1744 1422,1696 1423,1645 1422,1594 1418,1541 1412,1488 1403,1434 1393,1380 1381,1326 1367,1273 1352,1219 1335,1167 1318,1116 1300,1067 1281,1019 1262,973 1287,1006 1312,1045 1334,1088 1355,1135 1375,1186 1394,1238 1411,1292 1427,1347 1442,1403 1455,1457 1468,1511 1480,1562 1490,1611 1500,1657 1508,1698 1516,1735 1516,1686 1514,1635 1508,1582 1500,1527 1489,1472 1477,1416 1462,1359 1445,1302 1427,1246 1408,1190 1388,1135 1367,1081 1346,1028 1324,977 1303,928 1281,882 1306,929 1331,976 1355,1025 1379,1074 1401,1125 1423,1175 1444,1227 1464,1278 1483,1330 1501,1382 1518,1435 1533,1487 1548,1539 1561,1591 1573,1643 1583,1694 1584,1649 1581,1600 1573,1547 1562,1491 1547,1433 1529,1373 1510,1311 1488,1250 1465,1188 1441,1127 1416,1067 1391,1010 1367,955 1343,903 1321,855 1300,812 1326,851 1352,893 1377,936 1401,981 1424,1027 1447,1075 1468,1123 1489,1172 1508,1221 1527,1271 1545,1320 1561,1369 1577,1418 1592,1465 1605,1512 1618,1557 1618,1513 1613,1465 1603,1414 1590,1360 1573,1305 1553,1248 1531,1190 1507,1132 1481,1074 1455,1018 1428,963 1402,911 1376,861 1351,815 1328,774 1307,737 1336,763 1365,794 1392,830 1418,869 1443,912 1467,957 1490,1004 1511,1053 1532,1103 1551,1152 1569,1202 1586,1250 1602,1297 1616,1342 1629,1384 1641,1423 1638,1376 1631,1326 1619,1274 1603,1219 1584,1163 1561,1106 1537,1048 1510,991 1483,935 1454,879 1426,826 1398,775 1371,728 1345,683 1321,643 1300,608 1333,643 1366,681 1397,721 1427,764 1455,808 1483,854 1509,902 1534,951 1558,1001 1581,1051 1602,1101 1623,1152 1643,1202 1661,1252 1679,1300 1695,1348 1691,1296 1682,1243 1669,1189 1651,1134 1630,1078 1605,1022 1578,967 1549,912 1519,858 1487,805 1455,753 1423,704 1392,657 1362,613 1333,572 1306,534 1342,569 1376,605 1409,643 1441,683 1472,724 1502,766 1530,810 1558,854 1584,899 1609,945 1633,991 1655,1038 1677,1084 1697,1131 1717,1177 1735,1223 1729,1172 1717,1120 1700,1068 1679,1014 1655,961 1627,907 1596,854 1563,802 1528,750 1493,699 1456,650 1420,602 1384,556 1348,513 1315,472 1283,433 1314,459 1345,487 1375,517 1405,548 1434,581 1462,615 1490,650 1517,686 1543,723 1568,761 1592,800 1616,839 1638,879 1660,919 1680,960 1699,1000 1673,924 1644,853 1613,788 1581,727 1547,671 1513,619 1478,572 1443,529 1409,490 1375,455 1343,424 1313,397 1284,374 1258,354 1235,338 1216,325 1197,356 1179,389 1160,425 1140,461 1121,500 1102,541 1083,583 1065,627 1047,674 1029,722 1012,771 996,823 980,876 965,931 952,988 939,1047 939,1043 940,1029 942,1009 944,980 949,945 954,904 962,858 972,807 984,752 999,693 1016,632 1037,568 1062,502 1090,436 1122,369 1158,303 1147,303 1135,303 1120,302 1104,302 1086,303 1067,303 1046,304 1024,305 1000,306 976,308 950,310 924,312 896,316 868,319 839,324 810,328 780,334 749,341 719,348 688,356 657,365 626,374 595,385 565,397 534,409 504,423 475,438 446,454 417,471 390,490 363,510 337,531 338,530 340,529 344,526 350,523 358,519 366,514 377,508 388,502 402,495 416,488 432,480 449,472 468,464 488,455 508,446 531,437 554,429 578,420 604,411 630,403 658,395 686,387 716,379 746,372 777,366 809,360 842,355 875,350 909,347 944,344 980,342 1016,341 1014,341 1009,343 999,345 987,347 972,351 954,355 933,361 910,366 884,373 857,380 828,388 797,397 765,406 731,416 697,426 662,437 627,449 591,461 555,474 519,488 483,502 448,516 414,531 380,546 348,562 317,579 288,596 260,613 234,631 211,649 190,667 171,686 172,685 176,683 182,680 190,675 200,669 212,663 226,655 242,646 259,637 279,627 300,616 322,605 345,593 370,581 396,569 424,557 452,544 481,532 511,519 542,507 573,495 605,483 637,472 670,462 703,451 736,442 770,433 803,426 836,419 870,413 902,408 935,405 912,412 887,419 862,427 837,435 811,443 784,451 757,460 729,469 702,479 674,488 645,498 617,509 589,520 560,531 532,542 504,554 476,567 448,579 421,593 394,606 368,620 342,635 317,650 292,665 268,681 245,698 223,714 202,732 181,750 162,768 144,787 127,807 148,793 170,780 191,766 214,752 236,738 259,724 282,710 305,696 329,683 353,669 377,656 401,643 425,630 450,617 475,605 499,593 524,581 549,569 574,559 599,548 624,538 649,528 674,519 699,511 724,503 749,495 774,489 798,483 823,477 847,473 871,469 895,466 877,473 857,481 836,489 814,498 791,507 767,517 742,527 716,537 690,549 663,560 635,572 607,585 579,598 551,611 522,625 494,639 466,653 437,668 410,683 382,698 355,714 329,730 304,746 279,763 255,779 232,796 211,813 190,830 171,848 153,865 137,883 122,901 137,890 154,879 171,867 190,854 209,841 229,828 249,814 270,801 292,787 315,773 337,759 361,745 384,731 408,717 432,703 456,690 480,677 504,665 528,652 552,641 576,630 600,619 623,610 646,601 669,593 691,585 713,579 734,574 754,570 773,567 792,565 810,564 790,572 769,581 746,591 723,601 699,611 674,622 648,634 622,645 596,658 569,671 541,684 514,697 486,711 458,726 431,740 403,755 376,770 349,786 323,802 297,817 271,833 247,850 223,866 200,883 178,899 157,916 137,933 118,950 101,966 85,983 71,1000 58,1017 77,1003 96,989 116,975 136,961 156,947 177,933 198,918 219,904 240,890 262,876 284,862 306,849 328,835 350,822 373,808 396,795 418,782 441,770 464,757 488,745 511,733 534,722 558,711 581,700 605,690 628,680 652,670 675,661 699,652 722,644 746,636 769,629 746,641 721,652 696,665 671,678 645,691 619,704 592,718 564,732 537,746 509,761 482,776 454,792 426,807 399,823 371,839 344,856 317,873 291,890 265,907 239,925 214,942 190,960 166,978 144,997 122,1015 101,1034 81,1053 63,1072 45,1091 29,1110 14,1129 0,1149 20,1131 41,1114 62,1097 83,1080 104,1063 125,1046 146,1029 168,1013 190,997 212,981 234,965 257,950 279,935 302,920 325,905 348,890 371,876 394,862 418,848 441,834 465,821 489,808 513,795 537,782 562,770 586,758 611,746 636,735 661,724 686,713 711,702 736,692 713,705 690,718 667,732 643,745 619,759 595,772 571,786 547,800 523,815 499,829 474,844 450,859 426,874 402,889 378,905 355,921 331,937 308,953 285,970 262,987 240,1005 218,1022 197,1040 176,1059 156,1078 136,1097 116,1116 98,1136 80,1156 62,1177 46,1198 30,1220 47,1205 65,1190 84,1175 102,1159 122,1143 141,1126 161,1110 182,1093 203,1076 224,1059 245,1042 266,1025 288,1008 310,991 332,975 354,958 377,942 399,927 421,912 444,897 466,883 488,870 510,857 532,845 554,833 576,823 597,813 619,804 640,797 661,790 681,784 701,780 660,802 618,826 574,853 530,881 485,910 441,942 397,975 353,1009 311,1045 270,1083 231,1121 195,1161 161,1202 130,1244 102,1287 78,1331 107,1298 139,1264 172,1229 208,1193 245,1157 283,1121 323,1085 364,1051 405,1018 446,987 488,958 530,932 572,908 613,889 653,873 692,861 661,884 626,910 588,939 547,971 504,1005 460,1041 415,1079 371,1118 327,1158 285,1199 246,1240 209,1281 176,1321 148,1361 124,1399 107,1436 127,1415 151,1389 178,1361 207,1329 240,1295 274,1260 309,1224 346,1188 383,1152 420,1117 457,1084 493,1054 527,1027 560,1003 590,984 618,970 589,998 556,1029 522,1063 486,1100 449,1138 412,1178 374,1220 338,1262 303,1304 270,1347 240,1389 212,1431 189,1471 170,1510 156,1547 148,1582 166,1557 188,1527 212,1493 239,1456 268,1416 299,1374 332,1332 366,1289 400,1247 436,1206 472,1167 508,1131 543,1099 578,1070 612,1047 644,1030 614,1066 582,1103 549,1143 515,1184 480,1227 446,1271 412,1316 379,1361 348,1407 319,1453 292,1498 268,1543 248,1588 231,1631 219,1673 212,1713 236,1674 260,1634 284,1594 309,1553 334,1512 359,1471 385,1430 412,1390 439,1350 467,1310 496,1272 525,1234 556,1197 587,1162 619,1128 652,1095 628,1131 603,1169 577,1209 551,1250 524,1292 497,1336 470,1380 444,1425 418,1470 394,1515 370,1561 348,1607 328,1652 310,1697 294,1741 281,1785 301,1750 322,1714 344,1677 366,1638 388,1599 411,1560 434,1520 458,1481 481,1442 506,1403 530,1366 555,1330 580,1296 605,1263 630,1233 655,1205 635,1240 614,1277 592,1316 571,1356 549,1397 527,1440 506,1483 485,1526 465,1570 446,1614 428,1658 411,1702 396,1746 383,1789 371,1831 362,1872 378,1839 395,1803 412,1766 430,1727 449,1688 468,1647 488,1606 508,1565 528,1524 549,1484 569,1445 591,1408 612,1371 633,1337 654,1306 675,1277 661,1316 646,1355 632,1394 618,1434 603,1474 589,1514 576,1554 562,1594 549,1634 536,1675 524,1715 512,1755 500,1796 489,1836 479,1876 469,1916 484,1882 500,1848 515,1814 530,1779 546,1745 561,1710 577,1676 593,1642 608,1607 624,1573 640,1539 657,1505 673,1472 690,1438 708,1405 725,1372 713,1408 702,1445 690,1482 678,1519 665,1557 653,1595 641,1633 630,1671 618,1709 607,1747 596,1785 586,1823 576,1861 567,1898 558,1936 550,1973 565,1940 580,1907 595,1873 610,1840 626,1806 641,1773 657,1739 672,1705 687,1671 702,1637 717,1603 732,1569 746,1535 760,1501 773,1466 786,1432 786,1432 764,1502 745,1574 726,1647 709,1720 692,1793 676,1866 660,1939 644,2010 661,1979 677,1948 693,1917 708,1885 723,1852 737,1820 752,1787 765,1754 779,1721 792,1688 806,1655 819,1621 832,1588 845,1555 858,1523 871,1490 860,1551 850,1614 841,1676 833,1739 826,1801 818,1864 811,1926 803,1988 817,1955 830,1922 842,1889 854,1855 866,1821 877,1787 887,1752 898,1717 907,1682 917,1647 926,1611 935,1576 943,1541 952,1506 960,1471 968,1436 965,1503 959,1572 950,1642 938,1713 926,1783 912,1853 899,1920 887,1985 915,1920 940,1851 963,1779 983,1705 999,1630 1013,1555 1025,1480 1033,1408 1037,1476 1035,1548 1030,1622 1022,1698 1013,1773 1002,1847 992,1916 983,1980 1012,1911 1036,1832 1055,1748 1071,1659 1083,1569 1093,1481 1100,1396 1105,1318 1113,1391 1117,1470 1116,1551 1113,1633 1106,1716 1099,1796 1090,1873 1081,1944 1111,1878 1133,1797 1148,1704 1157,1606 1162,1506 1163,1410 1161,1323 1158,1250 1181,1312 1196,1394 1205,1490 1209,1594 1209,1698 1206,1796 1203,1881 1199,1946 1225,1874 1240,1782 1246,1676 1245,1562 1239,1448 1229,1340 1218,1246 1208,1172 1233,1233 1254,1311 1271,1402 1286,1499 1298,1599 1307,1695 1315,1783 1321,1856 1337,1770 1340,1670 1333,1562 1319,1450 1299,1339 1278,1234 1256,1140 1236,1062 1236,1062"/>
<polygon class="pen1 brush2" points="1377,0 1394,74 1389,78 1379,89 1363,106 1344,129 1320,158 1293,193 1264,234 1232,280 1200,332 1166,388 1133,449 1100,515 1068,586 1038,660 1010,739 985,821 979,821 988,785 998,744 1011,699 1025,650 1042,599 1061,545 1083,490 1106,433 1132,375 1160,317 1190,260 1223,204 1258,149 1295,97 1335,47 1377,0"/>
</g>
</svg>
