<?xml version="1.0" encoding="UTF-8" standalone="no"?>
<!DOCTYPE svg PUBLIC "-//W3C//DTD SVG 1.0//EN" "http://www.w3.org/TR/2001/REC-SVG-20010904/DTD/svg10.dtd">
<svg xmlns="http://www.w3.org/2000/svg" xmlns:xlink="http://www.w3.org/1999/xlink" fill-rule="evenodd" height="0.959in" preserveAspectRatio="none" stroke-linecap="round" viewBox="0 0 1979 959" width="1.979in">
<style type="text/css">
.brush0 { fill: rgb(255,255,255); }
.pen0 { stroke: rgb(0,0,0); stroke-width: 1; stroke-linejoin: round; }
.brush1 { fill: none; }
.pen1 { stroke: none; }
.brush2 { fill: rgb(0,0,0); }
</style>
<g>
<polygon class="pen1 brush2" points="13,832 32,850 55,864 80,874 105,882 128,887 147,890 160,892 165,892 186,910 210,921 235,926 260,927 282,926 300,923 313,920 317,919 350,929 379,929 404,924 425,913 441,902 453,890 460,881 462,878 472,879 482,880 493,879 503,877 515,871 527,863 539,851 553,834 577,798 595,762 607,725 614,689 615,653 612,617 603,583 590,551 578,556 565,560 552,565 539,569 527,573 514,578 501,582 488,587 487,642 483,698 475,754 459,808 452,804 466,752 475,698 478,643 479,589 465,594 450,599 436,605 422,611 407,617 393,623 378,629 364,635 364,660 363,686 361,712 358,738 353,764 346,789 337,813 326,835 319,831 330,810 338,787 345,763 350,738 353,713 355,688 357,663 357,639 341,647 325,654 309,662 293,670 278,677 262,685 246,694 231,702 227,719 223,737 217,756 211,775 205,793 197,811 188,828 179,842 174,837 182,823 189,807 196,791 202,774 208,756 213,739 217,722 221,706 210,712 200,718 189,724 179,729 168,735 158,742 147,748 137,754 127,761 116,767 106,774 97,781 87,789 78,796 69,804 60,812 53,807 63,799 72,790 82,783 92,775 102,768 113,761 123,754 133,747 144,741 154,735 165,728 176,722 187,716 197,710 208,703 219,697 204,688 188,679 172,671 156,663 140,656 124,649 107,644 90,639 90,631 110,637 128,643 144,649 160,656 175,664 191,672 208,682 228,693 243,685 259,678 274,670 290,662 305,654 321,646 337,639 353,632 344,624 334,617 325,609 315,601 305,594 295,586 285,579 274,572 264,565 253,559 242,553 231,547 220,542 208,538 197,534 185,531 188,524 200,527 212,531 223,535 235,540 246,546 258,552 269,558 280,565 291,573 301,580 312,588 322,596 332,604 342,612 352,621 361,629 375,623 389,617 403,611 417,605 432,598 446,592 460,586 475,581 466,572 457,563 447,555 437,546 427,538 417,530 407,522 397,514 386,507 375,499 364,492 353,486 341,479 330,473 318,467 306,462 310,453 322,458 334,464 346,471 357,478 369,485 380,492 392,500 403,508 414,516 425,525 435,533 446,542 456,551 466,560 475,569 485,578 498,573 511,569 523,564 536,560 549,555 562,551 574,546 587,542 579,527 569,512 559,498 547,485 535,472 521,460 507,449 492,439 475,430 458,422 440,415 422,410 402,405 382,402 361,400 340,399 318,400 300,403 286,408 275,413 266,421 260,429 254,437 249,446 245,446 234,446 218,449 198,455 178,465 158,481 141,505 128,537 124,540 115,548 102,561 88,578 74,598 63,621 58,646 60,673 58,675 54,682 47,692 39,704 31,719 22,736 14,753 8,771 4,788 3,805 6,820 13,832 13,832"/>
<polygon class="pen1 brush2" points="694,446 677,440 665,434 655,428 648,421 644,413 641,406 639,397 637,389 634,388 626,385 614,379 601,370 587,358 576,340 569,318 567,291 565,288 560,279 553,266 546,249 541,230 538,210 541,189 549,169 546,155 541,121 541,78 553,38 557,33 562,29 567,26 574,23 580,21 588,19 596,18 604,18 618,18 632,20 646,22 658,25 669,28 678,31 683,32 685,33 705,24 726,21 746,23 765,28 782,35 795,41 804,46 807,48 835,49 857,56 875,66 888,79 897,92 904,104 907,112 908,115 916,117 924,119 931,122 939,126 946,133 953,143 959,155 966,172 977,210 982,245 981,277 976,307 965,335 949,361 929,387 904,412 897,403 891,394 884,385 877,376 870,367 862,357 855,348 848,338 858,319 867,300 876,280 884,260 891,240 898,220 903,199 907,177 898,176 895,197 890,217 884,237 877,256 868,275 860,294 851,312 843,331 835,322 828,313 820,304 812,295 804,286 796,276 789,267 782,257 790,238 798,219 805,199 812,179 818,160 822,139 825,119 826,99 817,101 817,120 814,138 810,157 804,176 797,195 790,214 782,232 776,250 768,239 759,228 750,217 740,207 730,197 721,187 711,177 702,167 708,141 714,109 719,78 719,51 712,52 713,77 708,106 701,134 695,160 681,147 667,134 653,120 639,107 624,95 609,83 593,72 577,61 573,68 588,79 603,90 618,102 632,113 646,126 660,139 674,152 688,165 675,166 662,166 648,167 634,167 620,166 606,165 593,163 580,160 577,169 592,171 607,173 622,174 637,174 652,174 667,174 681,174 696,173 706,183 715,193 725,203 734,214 743,224 752,235 761,245 770,256 752,261 734,265 715,269 695,273 675,275 655,276 636,275 618,271 615,278 625,280 635,282 645,283 655,284 665,284 676,283 686,282 696,281 707,279 717,278 727,276 737,273 747,271 757,268 767,266 776,263 784,272 791,282 799,291 807,301 814,310 822,320 829,329 837,338 827,341 817,344 807,347 797,350 787,352 776,355 766,357 755,359 745,361 734,362 723,364 713,365 702,365 692,366 681,366 671,365 669,375 680,376 690,376 701,375 712,374 723,373 735,372 746,370 757,368 768,366 779,363 790,360 801,357 812,354 823,351 833,348 843,345 850,355 857,364 864,373 871,382 877,391 884,400 891,409 898,419 891,424 884,428 876,433 867,438 857,443 847,447 835,451 823,454 810,457 796,459 781,460 766,459 749,458 732,456 713,452 694,446 694,446"/>
<polygon class="pen1 brush2" points="1735,206 1708,184 1682,171 1657,167 1634,168 1614,172 1599,178 1589,183 1586,185 1577,179 1568,175 1558,172 1548,170 1535,171 1521,173 1504,178 1483,186 1448,205 1418,231 1392,261 1371,295 1354,331 1342,369 1335,408 1333,446 1347,444 1361,442 1375,440 1389,438 1403,436 1417,434 1431,431 1445,429 1453,403 1462,378 1471,352 1482,327 1493,303 1506,279 1520,255 1536,233 1543,240 1527,261 1514,283 1501,306 1490,329 1480,354 1471,378 1463,403 1455,427 1470,424 1485,422 1500,420 1516,418 1531,416 1546,415 1561,413 1576,412 1584,388 1594,364 1604,340 1616,317 1629,295 1644,274 1659,254 1677,236 1681,241 1664,259 1649,278 1636,299 1624,320 1613,343 1604,366 1594,389 1586,412 1603,410 1620,408 1637,406 1654,405 1671,404 1689,403 1705,402 1722,402 1733,387 1744,371 1754,356 1764,341 1775,326 1786,311 1799,297 1813,284 1819,291 1806,301 1793,313 1782,328 1771,343 1760,358 1751,374 1742,389 1733,402 1745,402 1758,401 1770,401 1783,402 1795,402 1808,402 1820,403 1833,404 1845,405 1858,406 1870,408 1882,409 1895,411 1907,414 1919,416 1931,419 1928,427 1916,424 1904,422 1892,420 1880,418 1868,416 1856,415 1844,414 1832,413 1820,412 1808,411 1796,411 1784,411 1771,410 1759,410 1747,410 1735,410 1747,423 1759,435 1772,448 1785,460 1798,472 1811,483 1825,494 1840,503 1837,510 1821,500 1805,488 1791,476 1777,464 1763,451 1750,437 1736,424 1723,410 1706,411 1689,412 1672,413 1655,414 1637,416 1620,417 1603,418 1586,419 1598,440 1611,461 1624,481 1639,501 1655,520 1672,538 1691,554 1711,568 1706,575 1687,562 1668,546 1649,527 1632,506 1616,484 1601,462 1588,441 1577,420 1562,422 1546,424 1531,426 1516,428 1501,430 1486,432 1470,434 1455,436 1467,459 1480,482 1494,505 1509,527 1525,549 1542,569 1561,589 1580,606 1576,614 1556,595 1537,575 1520,553 1504,531 1489,508 1475,484 1460,461 1446,437 1432,439 1418,441 1404,443 1390,445 1375,447 1361,449 1347,452 1333,454 1334,463 1335,473 1337,485 1340,497 1344,511 1349,525 1356,539 1364,554 1374,569 1385,585 1399,600 1414,615 1432,630 1452,644 1475,657 1500,670 1521,678 1538,683 1553,685 1565,684 1576,681 1586,677 1594,671 1603,665 1607,667 1617,671 1632,675 1652,678 1675,676 1699,670 1724,655 1749,631 1754,630 1766,626 1783,620 1803,610 1824,597 1844,580 1859,559 1868,534 1870,533 1876,530 1884,526 1895,519 1907,512 1920,502 1933,492 1945,480 1952,472 1959,464 1964,456 1969,447 1973,438 1975,429 1976,419 1975,409 1973,398 1969,387 1964,376 1958,366 1950,356 1942,347 1934,339 1925,331 1913,322 1902,315 1891,308 1881,302 1873,298 1867,295 1862,293 1861,292 1850,268 1832,248 1812,233 1790,222 1769,214 1752,209 1740,207 1735,206 1735,206"/>
<polygon class="pen1 brush2" points="1235,598 1210,587 1184,576 1156,566 1127,557 1095,548 1062,541 1027,534 990,529 951,525 910,522 867,521 822,521 774,524 725,527 672,533 618,541 618,518 620,517 625,516 633,513 645,510 659,507 676,502 695,498 717,494 741,490 767,486 795,483 825,480 856,478 889,477 923,477 958,479 955,473 952,466 948,460 944,454 940,448 935,443 930,439 925,436 925,436 925,434 928,431 935,426 936,427 940,429 946,433 953,439 961,447 969,456 977,467 983,480 998,481 1014,483 1029,485 1045,488 1060,491 1076,494 1092,497 1108,501 1124,506 1140,510 1156,515 1172,521 1188,527 1204,534 1220,541 1236,548 1246,527 1258,511 1271,498 1285,488 1297,481 1307,477 1314,475 1316,474 1316,487 1300,494 1287,503 1277,513 1270,523 1264,533 1261,543 1259,551 1258,558 1278,569 1297,581 1317,595 1336,609 1355,623 1373,639 1392,656 1409,674 1427,693 1444,713 1461,735 1477,757 1492,780 1507,805 1522,831 1536,858 1455,767 1446,802 1446,801 1444,798 1442,792 1439,785 1434,777 1428,767 1421,756 1412,743 1402,730 1391,716 1377,701 1362,686 1345,671 1326,655 1305,640 1282,625 1235,630 1190,639 1146,650 1104,664 1064,679 1026,696 991,713 958,731 929,749 902,766 879,781 860,795 845,807 833,816 826,822 824,824 839,807 854,792 870,777 886,763 903,750 920,738 938,726 957,714 976,704 996,693 1017,683 1039,673 1061,664 1085,654 1109,645 1135,635 1153,628 1170,623 1185,618 1198,613 1210,609 1220,605 1228,602 1235,598"/>
<polygon class="pen1 brush2" points="837,612 844,613 850,617 854,622 858,628 863,629 868,629 872,629 877,627 881,626 885,623 889,619 892,615 896,610 900,607 904,605 909,604 913,603 917,603 922,604 928,605 927,611 918,610 911,610 904,613 898,619 894,623 890,627 885,630 881,632 876,634 871,635 866,635 861,635 861,635 861,636 861,637 861,638 860,644 858,649 855,654 851,659 853,669 857,677 864,683 874,687 884,692 889,699 892,708 894,719 888,717 886,709 883,702 879,696 871,693 861,688 854,681 848,672 846,662 842,664 839,665 836,666 833,666 830,666 826,664 823,663 820,662 811,666 804,672 800,681 799,692 797,703 792,710 785,715 776,720 773,714 781,711 788,707 792,701 793,692 794,681 798,671 804,662 813,656 810,653 808,648 807,644 806,638 806,636 806,634 806,633 806,632 803,628 799,625 795,623 791,621 787,620 782,620 777,620 772,622 766,623 760,623 756,622 752,621 749,618 745,615 742,612 738,608 742,605 748,611 754,616 760,617 769,615 775,614 781,614 786,614 791,615 796,617 801,619 806,622 810,625 813,620 818,616 824,613 830,611 834,602 836,593 835,584 830,575 825,564 824,555 826,546 831,537 837,541 833,548 831,556 831,563 836,571 841,581 842,591 841,602 837,612"/>
<polygon class="pen1 brush2" points="1066,700 1073,702 1079,705 1083,710 1087,717 1092,718 1096,718 1101,718 1105,716 1109,715 1113,712 1117,708 1121,704 1125,699 1129,696 1133,694 1138,693 1142,693 1146,693 1151,693 1157,694 1154,700 1146,699 1138,699 1132,701 1125,707 1121,712 1117,715 1113,719 1108,721 1104,723 1099,724 1093,724 1088,723 1088,724 1088,725 1088,726 1088,727 1087,733 1086,739 1083,743 1080,747 1081,757 1085,765 1092,772 1101,777 1111,782 1116,788 1119,797 1121,808 1115,807 1114,798 1112,791 1108,786 1100,783 1089,777 1082,770 1076,761 1073,751 1071,753 1068,754 1065,754 1061,754 1057,754 1054,753 1051,752 1047,750 1039,755 1032,761 1028,770 1026,781 1024,792 1020,799 1013,804 1003,810 1002,804 1010,800 1016,795 1020,789 1020,781 1022,769 1026,760 1033,752 1042,746 1038,741 1035,737 1034,732 1033,727 1033,725 1034,723 1035,722 1035,720 1032,717 1028,714 1024,711 1020,710 1015,709 1010,708 1005,709 999,710 993,712 988,712 984,712 981,710 977,708 974,705 970,701 966,697 972,694 977,700 983,705 990,706 998,704 1004,703 1009,702 1014,703 1019,703 1024,705 1028,707 1033,710 1037,714 1041,708 1047,704 1052,701 1059,700 1063,691 1064,681 1063,672 1057,663 1052,653 1052,644 1055,636 1060,626 1064,631 1060,638 1058,645 1059,652 1063,659 1068,669 1070,680 1070,690 1066,700"/>
</g>
</svg>
