<?xml version="1.0" encoding="UTF-8" standalone="no"?>
<!DOCTYPE svg PUBLIC "-//W3C//DTD SVG 1.0//EN" "http://www.w3.org/TR/2001/REC-SVG-20010904/DTD/svg10.dtd">
<svg xmlns="http://www.w3.org/2000/svg" xmlns:xlink="http://www.w3.org/1999/xlink" fill-rule="evenodd" height="1.98in" preserveAspectRatio="none" stroke-linecap="round" viewBox="0 0 1814 1980" width="1.814in">
<style type="text/css">
.brush0 { fill: rgb(255,255,255); }
.pen0 { stroke: rgb(0,0,0); stroke-width: 1; stroke-linejoin: round; }
.brush1 { fill: none; }
.pen1 { stroke: none; }
.brush2 { fill: rgb(0,0,0); }
</style>
<g>
<polygon class="pen1 brush2" points="394,1494 391,1492 383,1488 370,1481 354,1472 334,1461 311,1448 287,1433 261,1417 235,1401 210,1383 185,1365 162,1347 141,1329 122,1311 108,1294 98,1278 94,1268 92,1259 94,1250 98,1242 104,1235 115,1229 128,1223 145,1219 112,1186 84,1155 61,1125 44,1095 33,1063 29,1027 33,987 46,940 62,925 80,916 100,913 121,914 144,920 167,929 190,940 213,953 235,968 255,983 274,997 290,1011 304,1022 314,1032 321,1038 323,1040 333,1009 346,992 363,987 383,992 405,1006 428,1028 451,1055 476,1085 499,1119 522,1153 542,1186 561,1217 576,1244 588,1265 595,1279 598,1284 610,1229 628,1201 649,1197 674,1214 702,1248 731,1296 762,1355 792,1422 822,1493 851,1565 877,1635 900,1699 920,1755 935,1799 945,1828 948,1838 950,1837 950,1836 946,1834 939,1830 930,1826 918,1821 903,1815 887,1809 869,1802 848,1794 827,1786 804,1777 780,1768 754,1758 728,1748 702,1738 674,1727 647,1716 619,1705 592,1693 565,1682 539,1670 513,1659 488,1647 464,1636 441,1624 420,1613 400,1602 382,1591 366,1581 352,1571 341,1561 331,1549 325,1538 323,1528 326,1519 335,1511 348,1504 368,1498 394,1494 394,1494"/>
<polygon class="pen1 brush2" points="1080,683 1050,740 1065,857 1075,972 1078,1082 1078,1189 1073,1290 1065,1386 1054,1476 1042,1558 1028,1634 1014,1701 1000,1760 987,1809 976,1849 967,1878 961,1896 959,1902 1014,1980 1051,1879 1079,1773 1101,1665 1116,1555 1126,1446 1131,1338 1131,1234 1129,1134 1124,1040 1117,954 1109,878 1100,812 1093,758 1086,717 1082,692 1080,683 1080,683"/>
<polygon class="pen1 brush2" points="1320,261 1358,286 1396,314 1434,344 1472,377 1509,412 1545,448 1579,485 1613,523 1644,562 1673,601 1701,640 1725,678 1747,715 1766,752 1782,786 1794,819 1800,842 1805,863 1807,882 1807,900 1805,917 1800,931 1792,944 1782,954 1746,971 1706,968 1663,950 1618,916 1572,872 1525,818 1479,757 1434,692 1391,626 1351,560 1315,498 1284,441 1258,393 1239,355 1226,331 1222,322 1239,311 1256,301 1272,290 1288,281 1301,273 1311,267 1318,262 1320,261 1320,261"/>
<polygon class="pen1 brush2" points="1198,331 1231,386 1263,448 1293,515 1320,586 1345,660 1367,735 1385,810 1401,884 1412,955 1419,1022 1422,1083 1420,1138 1413,1184 1400,1221 1382,1247 1358,1261 1318,1260 1282,1238 1250,1198 1221,1143 1195,1075 1173,998 1154,914 1137,826 1123,738 1112,652 1102,571 1095,499 1090,437 1087,390 1085,359 1084,348 1103,346 1123,343 1142,340 1160,337 1175,335 1187,333 1195,331 1198,331 1198,331"/>
<polygon class="pen1 brush2" points="948,331 915,384 884,443 856,504 830,568 807,634 788,700 772,766 759,829 750,890 746,948 745,1000 749,1047 758,1086 771,1118 790,1140 814,1153 854,1154 889,1135 920,1100 948,1052 971,992 991,924 1008,850 1022,772 1033,694 1042,618 1049,546 1054,482 1057,427 1060,385 1061,358 1061,348 1042,345 1022,342 1003,339 985,336 970,334 958,332 951,331 948,331 948,331"/>
<polygon class="pen1 brush2" points="827,264 775,299 723,339 672,384 622,432 574,482 529,534 487,587 449,640 415,692 387,742 365,790 349,834 341,874 340,909 348,937 365,959 401,976 441,973 484,955 529,921 575,877 622,823 668,762 713,697 756,631 796,565 832,503 863,446 889,398 908,360 921,336 925,327 908,316 891,305 875,294 860,285 846,276 836,270 829,266 827,264 827,264"/>
<polygon class="pen1 brush2" points="857,250 897,277 937,296 976,309 1015,317 1053,319 1090,318 1125,312 1158,305 1188,295 1215,284 1240,273 1260,262 1277,252 1290,244 1297,239 1300,237 1299,234 1296,227 1291,216 1284,202 1275,184 1265,165 1252,144 1239,123 1224,101 1207,80 1189,60 1170,42 1150,26 1129,13 1106,4 1083,0 1074,0 1050,5 1028,14 1006,27 986,44 967,63 949,84 933,106 918,129 904,152 892,174 882,194 873,212 866,228 861,240 858,247 857,250"/>
<polygon class="pen1 brush0" points="1006,65 1008,64 1010,63 1011,61 1012,58 1011,56 1010,55 1008,54 1006,54 1004,54 1003,55 1002,56 1002,58 1002,61 1003,63 1004,64 1006,65"/>
<polygon class="pen1 brush0" points="1040,44 1042,44 1044,43 1045,42 1046,40 1045,38 1044,36 1042,35 1040,34 1039,35 1038,36 1036,38 1036,40 1036,42 1038,43 1039,44 1040,44"/>
<polygon class="pen1 brush0" points="1083,38 1085,37 1087,36 1088,35 1088,33 1088,30 1087,28 1085,27 1083,27 1081,27 1079,28 1078,30 1077,33 1078,35 1079,36 1081,37 1083,38"/>
<polygon class="pen1 brush0" points="1124,47 1127,46 1129,45 1130,43 1130,41 1130,39 1129,37 1127,36 1124,35 1122,36 1121,37 1120,39 1120,41 1120,43 1121,45 1122,46 1124,47"/>
<polygon class="pen1 brush0" points="1155,74 1157,73 1159,72 1160,70 1161,68 1160,66 1159,64 1157,63 1155,62 1153,63 1152,64 1151,66 1151,68 1151,70 1152,72 1153,73 1155,74"/>
<polygon class="pen1 brush0" points="1066,67 1067,67 1069,65 1070,64 1070,61 1070,59 1069,57 1067,56 1066,55 1064,56 1062,57 1061,59 1060,61 1061,64 1062,65 1064,67 1066,67"/>
<polygon class="pen1 brush0" points="1104,67 1106,67 1108,65 1109,64 1110,61 1109,59 1108,57 1106,56 1104,55 1102,56 1100,57 1099,59 1098,61 1099,64 1100,65 1102,67 1104,67"/>
<polygon class="pen1 brush0" points="1111,177 1113,177 1115,176 1116,175 1117,173 1116,170 1115,168 1113,167 1111,166 1109,167 1108,168 1107,170 1107,173 1107,175 1108,176 1109,177 1111,177"/>
<polygon class="pen1 brush0" points="1084,92 1086,92 1088,91 1089,90 1090,88 1089,86 1088,83 1086,82 1084,81 1082,82 1080,83 1079,86 1078,88 1079,90 1080,91 1082,92 1084,92"/>
<polygon class="pen1 brush0" points="1130,92 1131,92 1132,91 1134,90 1134,88 1134,86 1132,83 1131,82 1130,81 1128,82 1126,83 1125,86 1124,88 1125,90 1126,91 1128,92 1130,92"/>
<polygon class="pen1 brush0" points="979,92 981,92 983,91 984,90 985,88 984,86 983,83 981,82 979,81 977,82 976,83 975,86 975,88 975,90 976,91 977,92 979,92"/>
<polygon class="pen1 brush0" points="1175,101 1177,100 1179,99 1180,97 1181,95 1180,93 1179,91 1177,90 1175,89 1173,90 1171,91 1170,93 1169,95 1170,97 1171,99 1173,100 1175,101"/>
<polygon class="pen1 brush0" points="1081,146 1083,145 1085,144 1086,142 1087,140 1086,138 1085,137 1083,135 1081,135 1080,135 1079,137 1077,138 1077,140 1077,142 1079,144 1080,145 1081,146"/>
<polygon class="pen1 brush0" points="1057,119 1059,119 1060,118 1061,116 1061,113 1061,111 1060,110 1059,108 1057,108 1054,108 1053,110 1051,111 1051,113 1051,116 1053,118 1054,119 1057,119"/>
<polygon class="pen1 brush0" points="1108,121 1110,121 1112,119 1113,118 1114,115 1113,113 1112,111 1110,110 1108,109 1107,110 1106,111 1104,113 1104,115 1104,118 1106,119 1107,121 1108,121"/>
<polygon class="pen1 brush0" points="1032,149 1033,148 1035,147 1036,145 1036,143 1036,141 1035,139 1033,138 1032,138 1030,138 1028,139 1027,141 1026,143 1027,145 1028,147 1030,148 1032,149"/>
<polygon class="pen1 brush0" points="1057,184 1059,184 1062,183 1063,181 1064,179 1063,177 1062,175 1059,174 1057,173 1056,174 1055,175 1053,177 1053,179 1053,181 1055,183 1056,184 1057,184"/>
<polygon class="pen1 brush0" points="1111,237 1113,236 1115,235 1116,233 1117,231 1116,229 1115,228 1113,226 1111,226 1109,226 1108,228 1107,229 1107,231 1107,233 1108,235 1109,236 1111,237"/>
<polygon class="pen1 brush0" points="1086,214 1088,214 1089,213 1091,212 1091,210 1091,207 1089,205 1088,204 1086,203 1084,204 1082,205 1081,207 1080,210 1081,212 1082,213 1084,214 1086,214"/>
<polygon class="pen1 brush0" points="1141,206 1143,205 1145,204 1146,202 1147,200 1146,197 1145,195 1143,194 1141,194 1139,194 1137,195 1136,197 1135,200 1136,202 1137,204 1139,205 1141,206"/>
</g>
</svg>
