<?xml version="1.0" encoding="UTF-8" standalone="no"?>
<!DOCTYPE svg PUBLIC "-//W3C//DTD SVG 1.0//EN" "http://www.w3.org/TR/2001/REC-SVG-20010904/DTD/svg10.dtd">
<svg xmlns="http://www.w3.org/2000/svg" xmlns:xlink="http://www.w3.org/1999/xlink" fill-rule="evenodd" height="1.381in" preserveAspectRatio="none" stroke-linecap="round" viewBox="0 0 1996 1381" width="1.996in">
<style type="text/css">
.brush0 { fill: rgb(255,255,255); }
.pen0 { stroke: rgb(0,0,0); stroke-width: 1; stroke-linejoin: round; }
.brush1 { fill: none; }
.pen1 { stroke: none; }
.brush2 { fill: rgb(0,0,0); }
</style>
<g>
<polygon class="pen1 brush2" points="1071,682 1088,690 1109,699 1133,709 1161,719 1191,728 1224,737 1259,745 1295,751 1333,755 1373,756 1413,755 1454,749 1494,740 1535,726 1575,707 1614,683 1657,650 1695,616 1729,581 1759,546 1786,510 1809,475 1831,440 1850,405 1868,372 1886,339 1902,308 1919,279 1936,251 1955,225 1974,202 1996,182 1071,682 1071,682"/>
<polygon class="pen1 brush2" points="1989,179 1046,651 1048,637 1051,618 1056,594 1063,567 1072,537 1083,504 1097,470 1113,435 1132,400 1155,365 1181,331 1210,298 1243,268 1280,241 1321,218 1367,199 1418,183 1467,172 1514,165 1560,160 1603,159 1645,160 1686,163 1725,166 1762,171 1798,176 1833,180 1867,184 1899,186 1930,186 1960,184 1989,179 1989,179"/>
<polygon class="pen1 brush2" points="1441,1172 769,962 781,954 795,944 811,934 829,924 848,913 869,903 892,893 916,884 941,877 967,871 993,867 1021,866 1049,867 1077,871 1105,878 1134,889 1166,905 1194,922 1220,940 1244,959 1266,978 1286,998 1305,1018 1322,1038 1338,1057 1353,1077 1368,1095 1382,1113 1397,1130 1411,1145 1426,1159 1441,1172 1441,1172"/>
<polygon class="pen1 brush2" points="167,43 170,93 168,147 165,205 162,267 163,334 170,404 187,479 215,558 233,595 254,627 277,657 302,683 329,706 357,726 386,743 415,758 444,771 472,781 500,790 526,796 551,802 573,806 593,808 610,810 167,43 167,43"/>
<polygon class="pen1 brush2" points="742,1003 729,1000 716,996 702,993 688,990 673,988 659,985 645,982 631,980 617,978 605,976 593,974 582,972 571,970 563,969 555,967 549,966 541,969 530,974 516,981 501,989 484,998 464,1008 444,1019 422,1031 399,1045 375,1058 351,1073 327,1087 302,1102 277,1117 253,1133 229,1148 244,1147 259,1146 275,1146 290,1146 305,1146 321,1146 336,1147 351,1148 367,1149 382,1151 397,1153 412,1155 427,1157 442,1160 457,1163 472,1166 485,1162 499,1158 512,1154 525,1149 537,1145 550,1140 562,1135 574,1130 568,1121 564,1111 561,1101 560,1091 561,1079 565,1067 571,1057 579,1048 588,1040 599,1035 611,1031 623,1030 635,1031 646,1035 656,1040 666,1048 673,1057 679,1067 683,1079 684,1091 683,1103 679,1115 673,1125 666,1134 656,1142 646,1147 635,1151 623,1152 617,1152 612,1151 606,1150 601,1149 597,1147 592,1145 588,1142 584,1139 573,1144 563,1148 552,1153 541,1157 530,1161 519,1164 508,1168 496,1172 497,1174 502,1176 510,1180 519,1185 529,1189 538,1193 545,1197 550,1199 543,1210 536,1207 528,1204 521,1200 515,1197 508,1194 501,1191 493,1188 486,1185 499,1260 501,1259 504,1259 506,1259 508,1259 520,1260 531,1264 541,1270 551,1277 558,1286 564,1297 568,1308 569,1320 568,1332 564,1344 558,1354 551,1363 541,1371 531,1376 520,1380 508,1381 495,1380 483,1376 473,1371 463,1363 456,1354 450,1344 446,1332 445,1320 446,1310 448,1301 452,1292 458,1284 464,1277 472,1271 480,1266 489,1262 486,1241 481,1220 476,1199 469,1179 453,1175 437,1172 421,1169 404,1167 388,1164 371,1163 355,1161 338,1160 322,1160 305,1159 288,1159 272,1160 255,1160 239,1161 222,1162 206,1164 184,1179 162,1194 143,1209 125,1223 108,1236 94,1249 82,1260 73,1270 0,1281 30,1252 61,1224 94,1197 128,1171 162,1146 198,1122 235,1098 272,1076 310,1054 348,1033 387,1013 426,995 464,977 503,959 541,943 579,928 585,918 593,905 601,890 610,874 620,856 629,837 638,817 647,797 168,0 188,17 209,33 233,47 259,60 286,73 315,86 345,100 376,114 407,129 439,146 472,165 505,187 538,212 570,240 602,271 634,307 680,378 706,453 717,528 715,600 705,667 690,725 674,771 662,801 655,818 647,835 639,852 631,869 622,885 613,900 605,914 597,925 643,908 684,893 721,879 754,866 784,853 811,842 835,830 857,819 878,807 898,795 918,782 938,768 959,753 980,737 1004,719 1029,699 1027,702 1023,708 1017,717 1008,728 997,741 982,757 963,774 941,792 914,812 883,832 847,853 805,874 757,895 704,916 644,937 577,956 605,961 632,967 660,972 687,978 715,984 742,991 770,997 797,1004 825,1011 853,1018 880,1025 908,1032 935,1040 963,1047 990,1055 1018,1062 1045,1070 1072,1078 1100,1086 1127,1094 1155,1102 1182,1110 1209,1118 1237,1126 1264,1134 1291,1142 1319,1150 1346,1158 1373,1166 1401,1174 1428,1181 1455,1189 1455,1189 1434,1189 1413,1191 1391,1195 1369,1201 1346,1208 1323,1216 1298,1224 1273,1233 1246,1242 1219,1249 1189,1256 1159,1262 1127,1266 1093,1267 1057,1267 1019,1263 985,1257 954,1247 926,1234 899,1218 875,1201 853,1182 834,1161 816,1140 800,1119 787,1098 775,1078 765,1058 757,1041 750,1026 745,1013 742,1003"/>
<polygon class="pen1 brush0" points="610,1090 615,1089 620,1086 623,1082 624,1077 623,1071 620,1067 615,1064 610,1063 605,1064 601,1067 598,1071 597,1077 598,1082 601,1086 605,1089 610,1090 610,1090"/>
<polygon class="pen1 brush0" points="526,1323 531,1322 535,1319 538,1315 539,1310 538,1304 535,1300 531,1297 526,1296 521,1297 517,1300 514,1304 513,1310 514,1315 517,1319 521,1322 526,1323"/>
</g>
</svg>
