<?xml version="1.0" encoding="UTF-8" standalone="no"?>
<!DOCTYPE svg PUBLIC "-//W3C//DTD SVG 1.0//EN" "http://www.w3.org/TR/2001/REC-SVG-20010904/DTD/svg10.dtd">
<svg xmlns="http://www.w3.org/2000/svg" xmlns:xlink="http://www.w3.org/1999/xlink" fill-rule="evenodd" height="1.716in" preserveAspectRatio="none" stroke-linecap="round" viewBox="0 0 1979 1716" width="1.979in">
<style type="text/css">
.brush0 { fill: rgb(255,255,255); }
.pen0 { stroke: rgb(0,0,0); stroke-width: 1; stroke-linejoin: round; }
.brush1 { fill: none; }
.pen1 { stroke: none; }
.brush2 { fill: rgb(0,0,0); }
</style>
<g>
<polygon class="pen1 brush2" points="462,675 471,679 480,683 491,687 501,691 513,695 525,698 537,702 550,705 564,708 578,711 593,714 608,716 624,718 640,719 657,720 675,720 676,720 680,721 686,723 694,725 704,728 716,732 729,737 744,742 760,748 778,755 796,763 815,772 835,782 855,792 876,804 897,817 890,797 883,776 877,755 873,733 856,725 839,717 820,709 802,702 782,696 762,690 742,684 721,679 720,673 717,658 711,636 704,607 695,575 683,542 670,510 655,480 647,495 639,509 629,524 620,537 609,551 598,564 586,576 573,588 559,601 545,613 531,624 517,635 503,646 490,656 476,666 462,675 462,675"/>
<polygon class="pen1 brush2" points="985,888 995,898 1003,906 1009,912 1014,917 1018,923 1024,929 1031,938 1040,949 1077,912 1077,912 1078,911 1077,909 1076,905 1071,899 1064,889 1052,876 1035,858 985,888 985,888"/>
<polygon class="pen1 brush2" points="1114,1099 1121,1129 1130,1164 1141,1203 1154,1244 1169,1288 1188,1332 1208,1376 1232,1419 1231,1418 1228,1415 1224,1411 1217,1405 1209,1398 1199,1390 1187,1380 1174,1370 1158,1359 1142,1347 1123,1334 1103,1321 1082,1308 1059,1295 1034,1282 1009,1269 981,1256 952,1244 922,1232 891,1221 858,1211 824,1202 788,1193 752,1187 714,1181 675,1177 635,1175 594,1174 552,1176 509,1179 464,1185 419,1193 424,1194 439,1196 463,1201 493,1206 530,1214 572,1222 618,1232 667,1244 717,1257 768,1271 818,1286 866,1302 911,1320 952,1338 988,1358 1017,1378 1015,1378 1010,1376 1002,1374 991,1371 977,1367 960,1362 941,1357 920,1352 897,1345 872,1339 846,1332 818,1325 790,1317 760,1309 729,1301 699,1293 667,1286 636,1278 604,1270 573,1262 543,1255 513,1248 484,1242 456,1235 429,1230 404,1225 381,1220 359,1216 340,1213 323,1211 308,1209 296,1209 298,1211 302,1214 308,1220 315,1227 325,1235 336,1245 349,1256 364,1268 381,1281 399,1294 420,1308 441,1323 465,1338 490,1354 517,1369 545,1384 575,1399 607,1414 640,1428 675,1442 711,1455 749,1467 788,1478 828,1488 870,1496 914,1503 958,1509 1004,1512 1052,1514 1101,1514 1151,1512 1202,1507 1210,1508 1221,1511 1234,1516 1248,1523 1264,1533 1281,1544 1300,1557 1318,1571 1337,1587 1356,1604 1375,1621 1392,1639 1409,1658 1425,1677 1439,1697 1451,1716 1446,1627 1441,1623 1427,1610 1407,1590 1385,1564 1362,1531 1342,1494 1328,1453 1323,1408 1325,1350 1331,1294 1339,1239 1348,1189 1342,1188 1337,1187 1331,1186 1325,1184 1319,1183 1313,1182 1308,1181 1302,1180 1301,1200 1298,1220 1295,1238 1291,1255 1285,1269 1278,1281 1269,1288 1259,1291 1246,1288 1234,1278 1223,1262 1212,1241 1201,1217 1192,1191 1184,1163 1177,1136 1169,1132 1160,1127 1152,1123 1144,1118 1137,1114 1129,1109 1122,1104 1114,1099"/>
<polygon class="pen1 brush2" points="1425,1179 1438,1179 1450,1178 1463,1178 1475,1176 1488,1175 1500,1173 1512,1171 1525,1169 1537,1167 1549,1164 1561,1161 1572,1157 1584,1154 1596,1150 1607,1146 1618,1142 1502,744 1508,755 1516,770 1527,788 1539,808 1553,830 1568,854 1584,879 1601,905 1618,932 1635,958 1651,984 1667,1008 1682,1032 1696,1053 1708,1072 1719,1088 1747,1069 1773,1047 1798,1025 1822,1000 1845,975 1866,948 1885,919 1903,890 1919,859 1933,827 1946,794 1957,760 1965,726 1972,690 1977,654 1979,617 1598,574 1609,573 1624,571 1642,568 1663,565 1686,561 1711,557 1737,553 1765,548 1793,543 1821,538 1850,533 1878,528 1904,523 1930,518 1954,514 1975,510 1969,472 1961,435 1950,400 1938,365 1923,331 1907,298 1889,267 1869,237 1848,208 1825,181 1800,155 1774,131 1747,109 1718,89 1688,70 1657,54 1490,418 1496,389 1503,346 1512,292 1521,232 1530,171 1539,111 1546,58 1552,16 1536,12 1521,9 1505,7 1489,4 1473,2 1458,1 1441,0 1425,0 1392,1 1359,4 1327,9 1295,16 1264,25 1234,36 1205,48 1177,62 1149,78 1123,95 1097,114 1072,134 1049,155 1027,178 1006,202 986,227 1314,483 1302,477 1286,470 1266,461 1243,452 1218,441 1191,430 1162,418 1132,406 1102,395 1072,383 1043,371 1015,361 989,351 965,341 945,334 928,327 915,357 903,388 894,420 886,453 879,487 875,521 872,556 871,591 872,632 876,672 883,712 892,750 903,787 916,823 932,858 949,892 1310,706 1300,714 1288,725 1273,739 1256,755 1237,773 1217,793 1195,813 1174,835 1151,857 1129,878 1108,900 1087,920 1067,940 1049,958 1033,974 1019,987 1039,1009 1059,1030 1080,1049 1103,1068 1126,1085 1149,1100 1174,1115 1199,1128 1225,1140 1252,1150 1279,1159 1307,1166 1336,1172 1365,1176 1395,1178 1425,1179"/>
<polygon class="pen1 brush0" points="1435,678 1451,676 1466,672 1480,664 1492,654 1502,642 1510,629 1514,613 1516,597 1514,580 1510,565 1502,551 1492,538 1480,528 1466,520 1451,516 1435,514 1419,516 1404,520 1390,528 1378,538 1368,551 1360,565 1356,580 1354,597 1356,613 1360,629 1368,642 1378,654 1390,664 1404,672 1419,676 1435,678"/>
<polygon class="pen1 brush2" points="560,565 522,600 484,631 447,658 411,682 375,702 340,719 305,733 271,745 236,754 203,760 169,765 135,767 102,769 68,768 34,767 0,764 0,760 1,749 3,731 5,707 9,678 15,644 23,606 33,564 421,574 59,484 69,457 80,430 93,402 106,375 121,347 137,320 154,293 173,266 194,240 216,215 239,190 264,166 291,144 320,123 351,103 383,84 553,442 462,48 474,44 487,39 500,36 512,32 526,28 539,25 553,22 566,19 580,17 595,14 609,12 624,10 639,8 654,7 669,5 685,4 686,8 688,20 692,39 695,64 699,94 702,129 703,168 702,209 699,254 693,300 683,346 669,393 651,439 627,483 597,526 560,565"/>
<polygon class="pen1 brush0" points="544,504 543,502 538,496 531,488 521,478 507,467 489,456 468,447 442,439 443,442 446,452 450,465 456,481 464,499 473,517 483,532 495,545 496,544 500,542 505,538 512,533 519,527 527,520 536,512 544,504"/>
</g>
</svg>
