<?xml version="1.0" encoding="UTF-8" standalone="no"?>
<!DOCTYPE svg PUBLIC "-//W3C//DTD SVG 1.0//EN" "http://www.w3.org/TR/2001/REC-SVG-20010904/DTD/svg10.dtd">
<svg xmlns="http://www.w3.org/2000/svg" xmlns:xlink="http://www.w3.org/1999/xlink" fill-rule="evenodd" height="2.116in" preserveAspectRatio="none" stroke-linecap="round" viewBox="0 0 1439 2116" width="1.439in">
<style type="text/css">
.brush0 { fill: rgb(255,255,255); }
.pen0 { stroke: rgb(0,0,0); stroke-width: 1; stroke-linejoin: round; }
.brush1 { fill: none; }
.pen1 { stroke: none; }
.brush2 { fill: rgb(0,0,0); }
</style>
<g>
<polygon class="pen1 brush2" points="726,274 727,273 730,271 736,267 743,263 752,257 763,251 775,245 789,239 804,232 821,226 839,220 858,215 879,211 900,208 922,207 945,207 945,205 944,198 943,188 940,175 936,159 931,142 924,123 915,103 903,84 889,65 872,48 852,32 829,19 802,9 772,2 737,0 703,2 671,9 643,20 618,33 596,49 577,67 560,87 546,106 533,126 523,146 515,164 509,180 504,193 501,204 500,211 499,213 500,213 504,212 509,211 517,210 526,210 538,210 551,210 566,211 582,213 599,217 618,222 638,228 659,236 680,247 703,259 726,274 726,274"/>
<polygon class="pen1 brush2" points="1129,270 1132,269 1139,265 1151,259 1167,253 1186,246 1207,240 1230,234 1255,230 1280,229 1305,231 1330,236 1354,246 1376,260 1396,281 1413,307 1426,341 1433,371 1436,399 1434,425 1429,449 1425,460 1420,471 1415,482 1409,492 1403,502 1396,511 1389,520 1382,528 1358,551 1333,571 1307,587 1283,600 1262,610 1245,617 1234,621 1230,622 1232,613 1235,587 1238,547 1236,498 1227,442 1208,384 1177,325 1129,270 1129,270"/>
<polygon class="pen1 brush2" points="611,510 612,507 615,497 620,482 628,462 638,439 652,414 668,387 688,359 712,332 739,306 771,283 806,263 846,248 891,237 941,233 996,236 1021,241 1045,248 1068,258 1089,270 1109,285 1127,302 1144,321 1159,341 1172,364 1184,388 1194,414 1202,441 1208,469 1212,499 1215,529 1215,560 1212,593 1204,627 1191,663 1175,700 1155,738 1132,775 1105,811 1076,846 1043,879 1008,910 971,937 932,961 891,980 848,995 805,1004 760,1007 715,1004 670,997 625,985 581,969 539,949 497,926 458,899 421,870 387,838 356,804 328,768 305,732 285,694 271,655 261,616 257,577 257,544 257,511 258,479 261,448 266,419 272,390 280,364 291,339 304,317 320,297 338,279 361,264 386,252 416,243 449,238 487,236 518,237 545,239 569,243 591,247 610,252 626,258 640,265 652,271 662,278 670,285 676,291 681,296 684,300 686,304 688,306 688,307 684,310 674,321 659,337 643,360 628,389 616,424 609,464 611,510 611,510"/>
<polygon class="pen1 brush2" points="297,278 294,277 286,273 274,269 258,263 239,258 218,252 194,248 170,246 144,246 119,249 95,256 72,267 51,284 33,305 18,333 7,368 3,391 1,412 2,431 4,450 7,463 11,476 16,488 22,500 28,511 35,522 43,532 51,541 64,555 78,568 93,580 108,590 123,600 138,609 152,617 166,624 179,630 191,635 202,639 212,643 219,646 225,648 229,649 230,649 229,636 226,602 224,553 225,493 230,431 243,370 264,317 297,278"/>
<polygon class="pen1 brush2" points="165,1811 157,1802 145,1789 131,1771 115,1750 99,1725 82,1697 67,1666 54,1633 46,1609 40,1584 36,1559 34,1532 35,1506 39,1478 45,1451 55,1423 63,1405 72,1388 83,1370 96,1353 111,1336 127,1319 145,1301 165,1284 165,1811 165,1811"/>
<polygon class="pen1 brush2" points="936,1856 923,1868 906,1882 885,1898 861,1915 834,1931 804,1947 771,1960 736,1971 700,1978 662,1979 623,1975 583,1965 543,1946 502,1919 462,1883 422,1836 936,1856 936,1856"/>
<polygon class="pen1 brush2" points="178,1294 190,1306 205,1323 222,1343 239,1366 257,1393 274,1422 288,1455 300,1489 308,1525 312,1563 309,1603 300,1643 283,1684 258,1726 223,1767 178,1809 178,1294 178,1294"/>
<polygon class="pen1 brush2" points="337,1829 342,1825 358,1815 382,1798 412,1774 448,1744 488,1707 531,1665 575,1616 618,1562 659,1502 697,1437 730,1366 757,1290 776,1210 785,1124 784,1034 739,1034 740,1039 741,1055 743,1079 743,1112 740,1153 734,1200 724,1252 707,1309 684,1370 653,1433 612,1499 562,1566 500,1632 426,1698 338,1762 236,1824 337,1829 337,1829"/>
<polygon class="pen1 brush2" points="421,1824 946,1846 905,1798 864,1762 822,1735 779,1717 738,1708 696,1705 656,1707 618,1715 582,1726 548,1740 517,1756 489,1773 465,1789 446,1803 431,1815 421,1824"/>
<polygon class="pen1 brush0" points="541,324 478,315 427,322 387,343 358,376 339,419 330,469 331,524 340,582 357,641 383,698 416,752 456,800 503,839 556,869 614,886 678,888 669,872 616,873 565,859 518,833 475,796 436,752 404,701 377,647 357,591 345,535 342,482 347,434 363,393 389,361 426,340 475,332 537,340 541,324 541,324"/>
<polygon class="pen1 brush0" points="940,304 999,323 1045,351 1078,385 1100,425 1111,469 1112,516 1105,565 1090,615 1068,664 1040,712 1007,757 971,797 931,833 889,861 847,882 804,894 804,878 830,875 861,862 895,840 930,811 966,775 1000,734 1031,689 1058,641 1079,592 1093,543 1098,496 1092,450 1075,408 1045,371 1000,340 939,317 940,304"/>
</g>
</svg>
