<?xml version="1.0" encoding="UTF-8" standalone="no"?>
<!DOCTYPE svg PUBLIC "-//W3C//DTD SVG 1.0//EN" "http://www.w3.org/TR/2001/REC-SVG-20010904/DTD/svg10.dtd">
<svg xmlns="http://www.w3.org/2000/svg" xmlns:xlink="http://www.w3.org/1999/xlink" fill-rule="evenodd" height="1.822in" preserveAspectRatio="none" stroke-linecap="round" viewBox="0 0 1985 1822" width="1.985in">
<style type="text/css">
.brush0 { fill: rgb(255,255,255); }
.pen0 { stroke: rgb(0,0,0); stroke-width: 1; stroke-linejoin: round; }
.brush1 { fill: none; }
.pen1 { stroke: none; }
.brush2 { fill: rgb(0,0,0); }
</style>
<g>
<polygon class="pen1 brush2" points="991,1477 988,1472 978,1457 964,1433 945,1403 920,1367 891,1327 858,1284 821,1239 780,1194 735,1150 687,1109 636,1072 582,1039 526,1014 468,996 407,988 407,994 407,1011 408,1039 410,1075 413,1118 418,1168 425,1224 435,1283 448,1345 464,1409 484,1474 509,1537 538,1599 573,1657 613,1711 659,1760 635,1761 613,1760 591,1759 570,1757 550,1755 530,1751 512,1747 494,1742 477,1737 461,1731 445,1724 430,1717 417,1710 403,1702 391,1693 379,1685 347,1659 320,1633 299,1607 282,1583 270,1563 261,1546 257,1536 255,1532 238,1528 223,1525 209,1521 196,1518 184,1514 173,1510 162,1505 153,1500 144,1495 136,1488 128,1481 120,1473 113,1464 106,1454 99,1443 92,1430 82,1400 79,1366 81,1330 87,1295 95,1263 103,1237 110,1219 112,1213 83,1188 60,1164 40,1141 25,1118 14,1093 7,1066 2,1036 1,1001 5,963 15,923 31,883 48,846 66,814 81,788 92,771 96,765 75,711 62,662 57,618 59,577 66,541 78,508 94,479 113,454 127,439 141,426 156,414 171,403 187,394 202,385 217,378 231,371 244,366 256,361 267,357 277,354 284,352 290,350 294,349 295,349 294,300 298,257 306,222 319,192 335,167 356,146 381,130 411,116 428,111 446,107 465,105 484,104 504,104 523,105 543,106 561,109 579,111 595,114 610,117 622,120 633,122 640,124 645,126 647,126 657,111 667,97 676,84 685,72 694,61 703,52 711,43 720,36 729,29 738,24 748,19 759,14 770,11 782,8 795,6 809,5 824,6 839,9 854,14 870,22 885,31 900,41 915,52 929,64 942,75 954,86 964,97 973,106 981,114 986,121 990,125 991,126 993,125 996,121 1001,115 1008,108 1017,99 1026,89 1037,78 1049,67 1062,55 1075,45 1089,34 1103,25 1118,17 1132,11 1147,7 1161,5 1175,5 1188,5 1201,7 1212,9 1223,12 1234,17 1245,22 1255,29 1265,36 1275,45 1285,55 1295,67 1305,80 1315,94 1326,109 1338,126 1340,126 1347,124 1357,122 1371,120 1387,118 1406,115 1426,113 1448,111 1471,110 1494,110 1517,111 1540,113 1561,117 1581,122 1599,129 1615,139 1640,159 1659,179 1673,200 1682,223 1688,248 1691,277 1691,310 1690,349 1692,349 1696,350 1703,352 1712,355 1724,359 1737,363 1751,369 1766,376 1783,384 1799,394 1816,405 1833,417 1849,431 1865,446 1880,463 1893,482 1907,507 1917,535 1925,565 1928,599 1927,635 1920,675 1908,718 1890,765 1894,771 1905,788 1920,814 1937,846 1955,883 1970,923 1980,963 1984,1001 1983,1036 1978,1066 1971,1093 1959,1118 1944,1141 1925,1164 1901,1188 1873,1213 1875,1218 1881,1232 1889,1254 1897,1281 1904,1311 1909,1343 1909,1374 1904,1403 1900,1416 1895,1428 1890,1440 1883,1450 1876,1460 1869,1469 1860,1478 1850,1485 1840,1493 1828,1500 1815,1506 1801,1512 1785,1517 1768,1523 1750,1527 1730,1532 1727,1536 1721,1548 1711,1566 1696,1588 1677,1614 1653,1641 1623,1669 1588,1695 1576,1703 1564,1710 1551,1717 1538,1723 1523,1729 1509,1735 1493,1740 1477,1745 1461,1749 1443,1753 1425,1756 1407,1758 1388,1760 1368,1761 1347,1761 1326,1760 1372,1711 1412,1657 1447,1599 1476,1537 1501,1474 1521,1409 1537,1345 1550,1283 1560,1224 1567,1168 1572,1118 1575,1075 1577,1039 1578,1011 1578,994 1578,988 1517,996 1459,1014 1402,1039 1348,1072 1297,1109 1249,1150 1204,1194 1163,1239 1125,1284 1092,1327 1062,1367 1038,1403 1018,1433 1004,1457 994,1472 991,1477 991,1477"/>
<polygon class="pen1 brush2" points="991,1542 989,1537 982,1522 970,1498 953,1468 932,1432 907,1391 877,1348 843,1303 805,1258 764,1214 719,1173 671,1135 619,1103 565,1078 507,1060 447,1052 446,1099 447,1148 450,1197 454,1246 462,1296 471,1345 483,1393 497,1440 514,1486 534,1531 557,1573 582,1614 611,1651 643,1686 679,1718 718,1746 732,1754 747,1762 761,1770 777,1777 792,1783 808,1789 825,1795 841,1800 859,1805 876,1809 894,1812 913,1815 932,1818 951,1820 971,1821 991,1822 1013,1821 1034,1820 1055,1817 1075,1815 1095,1811 1114,1807 1133,1803 1151,1797 1169,1792 1186,1785 1203,1778 1219,1771 1235,1763 1250,1755 1265,1746 1279,1736 1316,1708 1351,1676 1381,1641 1409,1604 1434,1564 1455,1522 1474,1478 1491,1432 1504,1386 1516,1338 1524,1290 1531,1242 1536,1194 1538,1146 1539,1098 1538,1052 1478,1060 1421,1078 1366,1103 1315,1135 1266,1173 1221,1214 1180,1258 1142,1303 1108,1348 1078,1391 1052,1432 1030,1468 1013,1498 1001,1522 994,1537 991,1542"/>
</g>
</svg>
