<?xml version="1.0" encoding="UTF-8" standalone="no"?>
<!DOCTYPE svg PUBLIC "-//W3C//DTD SVG 1.0//EN" "http://www.w3.org/TR/2001/REC-SVG-20010904/DTD/svg10.dtd">
<svg xmlns="http://www.w3.org/2000/svg" xmlns:xlink="http://www.w3.org/1999/xlink" fill-rule="evenodd" height="1.993in" preserveAspectRatio="none" stroke-linecap="round" viewBox="0 0 1144 1993" width="1.144in">
<style type="text/css">
.brush0 { fill: rgb(255,255,255); }
.pen0 { stroke: rgb(0,0,0); stroke-width: 1; stroke-linejoin: round; }
.brush1 { fill: none; }
.pen1 { stroke: none; }
.brush2 { fill: rgb(0,0,0); }
</style>
<g>
<polygon class="pen1 brush2" points="1107,112 1091,111 1092,109 1094,102 1097,91 1103,77 1110,60 1119,41 1130,21 1144,0 1136,22 1129,43 1123,62 1117,79 1113,93 1110,103 1108,110 1107,112 1107,112"/>
<polygon class="pen1 brush2" points="280,1126 290,1115 296,1093 297,1059 293,1016 285,966 273,908 257,846 237,780 226,746 214,714 203,683 191,654 179,626 167,600 155,576 143,554 132,535 121,517 110,503 100,491 91,482 82,476 74,473 67,473 57,483 52,506 51,540 55,582 63,634 75,691 91,754 111,821 122,854 133,886 145,917 157,946 169,973 180,999 192,1023 204,1045 215,1065 226,1082 237,1097 247,1109 256,1118 265,1124 273,1127 280,1126 280,1126"/>
<polygon class="pen1 brush2" points="877,778 884,779 892,776 900,770 910,761 920,749 930,735 942,717 953,698 965,676 977,652 989,626 1001,598 1013,569 1025,538 1037,506 1048,473 1069,407 1085,345 1098,288 1107,237 1111,194 1110,160 1105,137 1094,126 1087,126 1080,129 1071,135 1062,144 1052,155 1041,170 1030,187 1019,207 1007,228 995,252 982,278 970,306 958,335 946,366 934,398 922,432 901,498 885,560 872,618 864,668 860,711 860,745 866,767 877,778 877,778"/>
<polygon class="pen1 brush2" points="296,1155 304,1170 315,1192 328,1221 344,1256 361,1297 380,1344 399,1394 419,1449 439,1507 458,1569 477,1632 493,1697 508,1763 520,1829 530,1895 536,1961 535,1961 533,1961 530,1962 526,1962 520,1962 513,1961 506,1959 497,1956 496,1948 491,1925 484,1891 475,1851 463,1807 448,1764 432,1726 413,1696 392,1669 370,1635 347,1595 325,1547 305,1490 288,1424 275,1348 267,1260 269,1263 271,1272 274,1287 279,1306 285,1329 291,1355 299,1385 309,1416 319,1448 332,1482 345,1515 361,1549 378,1581 396,1611 417,1638 439,1663 435,1655 427,1631 415,1589 398,1532 378,1459 354,1372 326,1270 296,1155 296,1155 296,1155"/>
<polygon class="pen1 brush2" points="202,1230 193,1359 192,1481 196,1593 204,1691 213,1773 222,1834 227,1871 226,1882 185,1787 156,1710 136,1646 123,1591 114,1539 108,1487 100,1430 90,1364 86,1498 94,1614 111,1714 134,1797 158,1862 180,1908 196,1936 202,1946 214,1953 225,1956 235,1957 245,1955 252,1952 258,1949 262,1947 263,1946 276,1890 277,1831 269,1765 254,1690 237,1603 221,1499 208,1376 202,1230 202,1230"/>
<polygon class="pen1 brush2" points="449,1250 467,1324 487,1422 510,1533 532,1648 553,1755 570,1845 583,1905 588,1927 601,1937 615,1942 629,1943 642,1942 654,1939 664,1935 670,1932 672,1931 677,1785 677,1649 672,1520 664,1401 653,1291 639,1189 623,1097 606,1014 588,940 570,876 553,822 537,777 523,742 511,716 502,701 497,696 525,779 548,866 568,955 583,1046 596,1136 605,1225 612,1311 616,1393 619,1471 620,1542 620,1606 619,1660 618,1705 617,1739 615,1760 615,1767 608,1731 599,1692 589,1651 576,1609 563,1566 549,1523 535,1481 521,1440 507,1401 494,1365 481,1333 471,1305 462,1282 455,1265 451,1254 449,1250 449,1250"/>
<polygon class="pen1 brush2" points="882,791 882,791 848,932 822,1086 802,1245 788,1398 779,1535 773,1645 771,1718 770,1745 777,1677 787,1610 801,1545 818,1483 837,1423 857,1366 878,1313 900,1263 922,1218 942,1178 961,1143 978,1113 993,1089 1004,1072 1011,1061 1013,1057 986,1119 961,1186 939,1258 918,1333 899,1409 881,1486 866,1562 852,1636 840,1705 829,1770 820,1828 812,1879 806,1920 802,1951 799,1969 797,1975 783,1977 772,1977 764,1975 758,1972 754,1968 752,1965 750,1962 750,1961 733,1881 723,1794 720,1702 722,1606 729,1508 740,1410 754,1314 770,1220 788,1132 806,1050 824,976 841,912 857,860 869,822 878,798 882,791 882,791"/>
<polygon class="pen1 brush2" points="1108,1480 1106,1482 1099,1489 1088,1501 1074,1517 1057,1537 1038,1561 1018,1588 997,1619 976,1654 954,1691 934,1731 916,1774 899,1820 885,1868 875,1918 868,1970 870,1971 874,1973 882,1977 891,1980 902,1983 914,1985 926,1985 939,1983 939,1981 939,1975 939,1965 940,1950 942,1931 945,1909 950,1882 956,1852 965,1818 975,1780 989,1738 1006,1693 1026,1645 1049,1593 1076,1538 1108,1480 1108,1480"/>
<polygon class="pen1 brush2" points="48,456 64,450 63,448 60,441 56,431 49,418 40,403 29,386 16,368 0,349 10,370 19,389 27,407 34,423 40,437 44,447 47,454 48,456"/>
</g>
</svg>
