<?xml version="1.0" encoding="UTF-8" standalone="no"?>
<!DOCTYPE svg PUBLIC "-//W3C//DTD SVG 1.0//EN" "http://www.w3.org/TR/2001/REC-SVG-20010904/DTD/svg10.dtd">
<svg xmlns="http://www.w3.org/2000/svg" xmlns:xlink="http://www.w3.org/1999/xlink" fill-rule="evenodd" height="1.899in" preserveAspectRatio="none" stroke-linecap="round" viewBox="0 0 1979 1899" width="1.979in">
<style type="text/css">
.brush0 { fill: rgb(255,255,255); }
.pen0 { stroke: rgb(0,0,0); stroke-width: 1; stroke-linejoin: round; }
.brush1 { fill: none; }
.pen1 { stroke: none; }
.brush2 { fill: rgb(0,0,0); }
</style>
<g>
<polygon class="pen1 brush2" points="321,1863 323,1863 328,1862 335,1862 346,1861 358,1860 373,1860 389,1860 407,1861 426,1862 446,1864 466,1867 486,1871 507,1876 527,1882 546,1890 564,1899 564,1898 567,1896 574,1893 584,1890 596,1885 611,1880 627,1875 645,1870 664,1865 684,1861 705,1857 725,1853 745,1851 765,1850 783,1850 800,1852 801,1851 805,1847 811,1841 818,1833 828,1824 840,1814 853,1804 868,1792 884,1781 901,1770 919,1760 939,1751 959,1743 980,1737 1001,1734 1023,1732 1024,1730 1028,1725 1033,1717 1040,1707 1050,1694 1060,1680 1072,1665 1086,1649 1100,1633 1116,1617 1132,1602 1149,1588 1167,1575 1184,1565 1202,1556 1220,1551 1223,1541 1230,1515 1241,1478 1257,1434 1275,1388 1296,1345 1318,1310 1342,1287 1341,1281 1338,1265 1335,1240 1334,1207 1335,1168 1340,1125 1351,1079 1369,1031 1367,1021 1362,994 1356,955 1350,909 1346,859 1345,811 1349,770 1359,739 1356,735 1350,725 1340,709 1328,689 1315,666 1303,642 1292,616 1285,592 1325,540 1361,497 1392,463 1421,436 1446,416 1468,403 1487,395 1505,392 1520,393 1535,399 1548,407 1560,418 1572,430 1584,444 1596,458 1609,472 1639,505 1665,540 1687,578 1707,618 1723,658 1737,700 1749,741 1758,782 1765,821 1771,859 1775,894 1778,927 1780,956 1781,981 1781,1002 1781,1017 1771,1021 1761,1025 1751,1029 1742,1034 1733,1039 1724,1044 1717,1049 1710,1055 1710,1055 1712,1057 1714,1059 1718,1061 1722,1064 1727,1066 1733,1069 1740,1072 1736,1073 1726,1075 1711,1080 1693,1089 1672,1101 1651,1117 1630,1139 1612,1166 1612,1166 1613,1167 1615,1168 1618,1169 1622,1170 1628,1171 1634,1171 1642,1170 1639,1172 1631,1179 1618,1190 1604,1205 1588,1222 1572,1242 1559,1264 1548,1287 1548,1287 1549,1287 1551,1286 1554,1286 1559,1287 1565,1287 1574,1289 1585,1291 1582,1296 1575,1311 1564,1332 1551,1359 1539,1388 1528,1419 1520,1449 1517,1476 1517,1475 1519,1474 1522,1471 1526,1468 1532,1464 1540,1460 1549,1457 1561,1453 1560,1459 1556,1475 1551,1499 1546,1528 1541,1560 1538,1592 1538,1623 1541,1649 1542,1648 1545,1645 1549,1641 1555,1635 1562,1628 1570,1622 1579,1615 1589,1608 1587,1625 1584,1666 1584,1716 1592,1759 1593,1758 1597,1755 1602,1750 1609,1744 1616,1738 1623,1732 1630,1725 1636,1720 1634,1728 1629,1750 1627,1782 1632,1819 1641,1814 1649,1806 1657,1795 1664,1781 1670,1767 1675,1753 1679,1740 1682,1730 1688,1746 1695,1763 1700,1778 1702,1784 1716,1770 1730,1751 1742,1730 1754,1708 1763,1687 1771,1670 1775,1658 1777,1654 1788,1675 1795,1694 1800,1708 1801,1713 1816,1691 1830,1664 1842,1634 1853,1604 1862,1576 1869,1553 1874,1537 1875,1531 1891,1548 1899,1560 1902,1569 1902,1572 1912,1547 1920,1517 1925,1485 1929,1454 1931,1425 1933,1401 1933,1385 1933,1379 1943,1382 1951,1385 1957,1387 1962,1389 1964,1390 1966,1391 1967,1392 1967,1392 1969,1367 1968,1341 1964,1317 1958,1294 1952,1274 1946,1258 1942,1248 1940,1244 1947,1249 1953,1252 1959,1254 1963,1255 1966,1256 1969,1256 1970,1256 1971,1256 1968,1223 1960,1194 1949,1169 1937,1149 1924,1133 1913,1121 1905,1114 1902,1112 1910,1113 1916,1113 1922,1113 1927,1113 1931,1113 1934,1112 1936,1112 1937,1112 1932,1100 1926,1088 1919,1077 1911,1065 1902,1054 1893,1043 1884,1032 1875,1023 1873,947 1865,875 1851,806 1833,741 1812,681 1787,625 1761,573 1734,526 1707,484 1681,447 1656,416 1634,389 1615,368 1601,353 1591,344 1588,341 1614,319 1639,295 1662,271 1682,246 1702,220 1719,196 1735,171 1749,148 1761,126 1772,106 1781,87 1788,72 1794,59 1798,49 1800,43 1801,41 1791,49 1781,57 1772,65 1764,72 1757,79 1752,84 1748,88 1747,89 1752,60 1756,31 1759,9 1760,0 1755,14 1748,30 1739,47 1727,66 1715,86 1700,106 1685,128 1668,149 1650,170 1631,190 1612,210 1593,229 1573,246 1553,262 1533,276 1514,287 1499,296 1482,307 1465,321 1447,336 1428,352 1408,370 1389,389 1369,408 1349,428 1330,449 1311,469 1293,488 1275,507 1259,525 1244,542 1231,557 1207,551 1183,542 1160,532 1138,522 1120,513 1105,505 1095,499 1092,497 1078,504 1062,509 1042,514 1020,516 996,518 972,519 947,520 922,519 898,519 875,517 854,516 835,515 820,513 808,512 801,511 798,511 775,523 752,533 730,542 707,548 686,553 665,557 645,560 627,562 610,563 594,563 581,563 569,562 560,561 553,561 548,560 547,560 538,573 526,586 510,598 492,611 472,623 451,635 429,646 407,657 385,667 365,676 345,684 328,690 314,696 303,700 296,702 294,703 290,721 283,739 274,758 262,776 250,794 236,812 221,829 206,845 192,859 178,873 164,885 153,895 143,904 136,910 131,914 129,915 127,958 116,1000 100,1039 81,1074 61,1103 44,1126 32,1141 27,1146 35,1180 37,1218 34,1257 28,1296 20,1331 12,1359 4,1378 0,1385 23,1421 40,1459 51,1499 57,1537 59,1572 59,1599 57,1617 54,1624 80,1642 101,1666 117,1693 130,1720 139,1746 143,1767 145,1782 143,1787 153,1792 164,1796 175,1801 187,1806 200,1812 212,1817 225,1822 238,1827 250,1832 262,1837 274,1842 285,1847 296,1851 305,1856 314,1859 321,1863"/>
<polygon class="pen1 brush0" points="220,1718 486,1437 486,1469 485,1503 484,1540 482,1577 478,1613 472,1649 463,1682 452,1711 463,1716 475,1683 484,1647 490,1610 495,1571 498,1532 499,1493 500,1456 500,1422 743,1159 750,1219 758,1285 764,1354 769,1425 770,1495 767,1564 759,1628 744,1686 758,1691 772,1630 780,1563 783,1492 781,1419 776,1346 770,1275 762,1207 754,1145 959,926 972,993 984,1063 994,1136 1001,1210 1004,1284 1003,1358 997,1429 984,1497 997,1500 1011,1429 1018,1356 1019,1282 1015,1206 1007,1131 996,1057 984,983 970,912 1135,733 1158,785 1175,839 1187,893 1195,948 1199,1004 1199,1060 1196,1116 1190,1172 1203,1175 1209,1118 1212,1060 1212,1002 1208,944 1200,887 1186,831 1168,776 1143,723 1233,625 1223,618 1135,713 1107,704 1079,695 1050,688 1021,683 991,678 961,675 931,673 900,672 870,672 839,673 809,675 779,678 749,682 720,687 691,692 663,699 666,712 694,706 722,700 750,696 779,692 808,689 837,687 867,686 896,686 925,687 954,689 983,692 1012,696 1041,702 1069,708 1096,715 1123,724 960,903 922,901 884,898 845,896 807,894 769,892 731,891 693,890 656,890 618,891 580,893 542,896 505,900 467,906 430,913 392,922 355,932 361,945 395,935 431,927 466,919 503,913 540,909 577,905 614,902 652,900 690,900 728,900 765,901 802,903 839,905 876,908 912,912 947,916 744,1136 711,1134 677,1133 642,1132 606,1131 570,1131 533,1131 496,1132 459,1134 422,1137 386,1141 350,1145 315,1151 281,1158 248,1166 216,1175 186,1186 193,1197 222,1186 253,1177 285,1170 318,1163 352,1159 387,1155 422,1152 458,1150 494,1149 529,1149 565,1148 600,1149 634,1149 667,1149 700,1150 731,1150 490,1412 472,1414 453,1416 434,1418 415,1421 395,1423 375,1426 355,1430 335,1433 315,1437 295,1442 276,1447 257,1452 238,1458 220,1465 203,1472 186,1480 193,1493 209,1486 225,1479 242,1473 259,1468 277,1462 295,1458 312,1454 331,1450 349,1446 367,1443 385,1440 403,1438 421,1435 439,1433 457,1431 474,1429 210,1708 220,1718"/>
</g>
</svg>
