<?xml version="1.0" encoding="UTF-8" standalone="no"?>
<!DOCTYPE svg PUBLIC "-//W3C//DTD SVG 1.0//EN" "http://www.w3.org/TR/2001/REC-SVG-20010904/DTD/svg10.dtd">
<svg xmlns="http://www.w3.org/2000/svg" xmlns:xlink="http://www.w3.org/1999/xlink" fill-rule="evenodd" height="1.98in" preserveAspectRatio="none" stroke-linecap="round" viewBox="0 0 884 1980" width="0.884in">
<style type="text/css">
.brush0 { fill: rgb(255,255,255); }
.pen0 { stroke: rgb(0,0,0); stroke-width: 1; stroke-linejoin: round; }
.brush1 { fill: none; }
.pen1 { stroke: none; }
.brush2 { fill: rgb(0,0,0); }
</style>
<g>
<polygon class="pen1 brush2" points="676,713 777,750 772,761 760,791 742,835 723,891 706,955 693,1021 687,1087 692,1149 574,1136 579,1122 591,1083 608,1027 628,960 647,888 663,819 674,758 676,713 676,713"/>
<polygon class="pen1 brush2" points="567,1193 669,1209 665,1220 655,1251 641,1298 627,1360 615,1432 607,1512 608,1597 618,1684 616,1681 606,1674 592,1665 575,1655 557,1645 542,1636 531,1630 527,1628 530,1613 537,1573 546,1515 556,1446 565,1372 571,1301 572,1239 567,1193 567,1193"/>
<polygon class="pen1 brush2" points="514,1681 502,1720 487,1766 470,1816 453,1865 437,1909 424,1946 415,1971 412,1980 519,1939 522,1913 531,1882 544,1847 558,1811 572,1778 585,1751 594,1733 597,1726 514,1681 514,1681"/>
<polygon class="pen1 brush2" points="676,679 676,682 675,687 673,690 672,692 780,734 790,719 676,679 676,679"/>
<polygon class="pen1 brush2" points="563,1152 563,1153 562,1159 561,1166 560,1169 685,1193 689,1169 563,1152 563,1152"/>
<polygon class="pen1 brush2" points="527,1645 526,1648 523,1653 520,1657 519,1659 601,1708 611,1691 527,1645 527,1645"/>
<polygon class="pen1 brush2" points="864,331 868,356 872,380 877,403 884,426 879,433 867,454 850,485 831,524 813,568 799,614 791,659 793,702 688,656 709,616 716,579 722,531 724,472 722,405 708,396 695,385 682,373 670,361 658,348 646,336 635,323 624,312 625,303 635,314 646,325 658,337 670,349 682,361 695,372 708,382 722,391 718,366 713,340 706,314 699,288 689,262 677,235 664,209 648,182 625,180 603,179 583,179 564,179 546,180 529,181 512,183 496,185 489,196 482,205 476,214 469,221 462,227 455,233 447,238 439,243 433,237 442,232 449,227 456,222 463,216 468,210 474,203 480,195 486,185 467,188 449,192 433,195 419,199 406,203 396,206 387,210 381,213 381,203 386,200 393,197 402,194 412,191 423,187 436,184 451,181 467,178 484,175 502,173 522,171 544,170 566,169 590,170 615,171 642,173 634,162 626,150 617,139 609,128 599,118 589,107 579,97 568,86 557,76 545,66 533,56 519,46 506,36 491,26 476,17 460,7 467,4 485,15 502,26 518,37 534,48 548,59 562,71 576,83 588,95 600,107 611,119 622,131 632,144 641,157 650,170 658,183 666,196 671,188 675,178 680,168 684,156 688,144 691,131 695,118 699,104 687,79 680,52 676,26 675,3 682,0 683,22 686,46 692,71 703,94 712,65 719,39 724,18 727,4 735,4 733,12 730,22 727,35 723,49 719,66 715,83 710,101 705,119 714,112 724,103 735,92 747,79 757,66 766,53 774,40 779,28 780,40 775,52 767,65 757,78 746,90 734,103 722,113 712,122 702,129 695,152 688,172 681,190 675,205 688,232 700,258 710,285 718,311 725,337 730,363 734,388 736,412 744,393 753,370 761,342 768,313 773,282 776,251 776,220 773,192 783,192 786,223 784,258 780,293 772,328 763,362 754,391 744,415 736,432 738,482 737,521 734,554 729,584 864,331"/>
<polygon class="pen1 brush2" points="195,1668 382,1641 376,1629 360,1594 338,1543 317,1479 300,1407 291,1333 297,1260 320,1193 104,1192 109,1208 123,1252 141,1316 162,1392 180,1473 194,1551 200,1619 195,1668 195,1668"/>
<polygon class="pen1 brush2" points="104,1129 293,1126 288,1114 277,1079 263,1025 251,956 245,875 249,787 269,694 307,601 306,602 301,604 293,607 282,610 269,614 254,619 238,623 221,627 204,632 187,636 172,640 158,644 146,647 137,649 131,650 129,651 131,667 135,711 139,776 142,852 141,933 136,1012 124,1079 104,1129 104,1129"/>
<polygon class="pen1 brush2" points="118,591 276,553 271,545 259,524 243,493 224,455 206,414 191,375 182,339 182,311 0,250 4,260 15,289 30,330 49,381 69,437 88,494 105,546 118,591 118,591"/>
<polygon class="pen1 brush2" points="186,1704 187,1701 185,1696 183,1693 182,1691 387,1659 402,1678 186,1704 186,1704"/>
<polygon class="pen1 brush2" points="85,1173 318,1172 317,1145 85,1153 86,1157 87,1164 87,1171 85,1173 85,1173"/>
<polygon class="pen1 brush2" points="131,632 131,628 128,622 123,617 121,615 280,574 297,594 131,632"/>
</g>
</svg>
