<?xml version="1.0" encoding="UTF-8" standalone="no"?>
<!DOCTYPE svg PUBLIC "-//W3C//DTD SVG 1.0//EN" "http://www.w3.org/TR/2001/REC-SVG-20010904/DTD/svg10.dtd">
<svg xmlns="http://www.w3.org/2000/svg" xmlns:xlink="http://www.w3.org/1999/xlink" fill-rule="evenodd" height="1.98in" preserveAspectRatio="none" stroke-linecap="round" viewBox="0 0 1648 1980" width="1.648in">
<style type="text/css">
.brush0 { fill: rgb(255,255,255); }
.pen0 { stroke: rgb(0,0,0); stroke-width: 1; stroke-linejoin: round; }
.brush1 { fill: none; }
.pen1 { stroke: none; }
.brush2 { fill: rgb(0,0,0); }
</style>
<g>
<polygon class="pen1 brush2" points="520,724 505,764 496,811 492,862 493,915 499,969 509,1023 524,1073 544,1119 568,1116 594,1113 620,1108 646,1102 673,1095 701,1087 728,1078 755,1067 781,1056 806,1044 831,1030 854,1015 875,1000 895,983 913,965 929,946 945,963 962,980 981,996 1002,1012 1024,1027 1047,1041 1071,1055 1095,1067 1121,1078 1146,1087 1172,1095 1198,1102 1223,1106 1248,1109 1273,1109 1297,1108 1299,1097 1305,1067 1311,1022 1315,966 1315,901 1309,833 1294,764 1267,699 1284,686 1301,672 1319,657 1336,641 1353,625 1370,607 1386,589 1401,570 1415,550 1428,530 1440,509 1451,487 1459,465 1466,442 1471,419 1474,395 1471,394 1463,390 1451,384 1434,377 1414,369 1390,360 1363,351 1333,342 1301,333 1268,326 1233,321 1198,317 1162,316 1127,317 1091,322 1057,331 1054,311 1051,290 1048,269 1044,248 1039,227 1032,206 1025,184 1017,163 1007,142 995,121 981,100 966,80 948,59 927,39 905,19 879,0 877,2 870,7 859,15 846,26 829,40 811,57 791,76 771,98 749,121 729,147 709,175 690,204 673,235 659,267 648,301 641,335 620,334 597,334 574,335 550,336 525,338 500,341 474,345 449,350 424,356 400,364 376,372 353,383 332,394 312,408 293,423 276,440 277,443 279,450 283,461 289,476 297,493 306,514 318,535 331,559 347,583 365,607 385,631 407,653 431,675 458,694 488,711 520,724"/>
<polygon class="pen1 brush2" points="0,1443 2,1441 7,1435 16,1425 29,1413 46,1399 66,1383 89,1367 117,1351 148,1335 183,1321 221,1310 264,1300 310,1295 359,1293 413,1296 470,1305 526,1317 576,1329 620,1341 658,1354 692,1367 721,1380 745,1394 765,1408 780,1423 792,1438 801,1455 806,1472 809,1490 808,1509 806,1529 801,1551 793,1572 782,1592 768,1610 751,1626 732,1640 711,1652 687,1663 662,1672 635,1679 606,1684 576,1688 546,1690 514,1691 482,1690 450,1687 418,1683 387,1677 356,1669 327,1659 299,1648 272,1636 246,1624 221,1610 196,1595 172,1580 148,1564 125,1548 102,1532 79,1515 56,1498 34,1482 11,1466 12,1466 15,1465 21,1464 28,1463 37,1462 48,1460 61,1458 76,1456 92,1455 109,1453 128,1451 148,1449 169,1448 192,1447 215,1446 239,1445 265,1445 291,1445 317,1446 345,1447 372,1449 400,1452 429,1455 458,1459 487,1464 516,1469 545,1476 573,1483 602,1491 630,1501 658,1511 686,1523 685,1522 682,1521 678,1519 671,1515 663,1511 654,1507 642,1502 630,1496 615,1490 600,1483 583,1477 564,1470 544,1464 524,1457 502,1450 478,1444 454,1438 429,1432 403,1427 376,1423 348,1419 319,1415 290,1413 259,1412 229,1411 197,1412 165,1414 133,1417 100,1421 67,1427 34,1434 0,1443"/>
<polygon class="pen1 brush2" points="1622,954 1625,961 1632,981 1640,1011 1645,1048 1590,1133 1595,1138 1646,1061 1646,1081 1644,1101 1640,1122 1633,1144 1624,1165 1611,1186 1595,1207 1575,1227 1577,1216 1578,1207 1577,1202 1577,1200 1553,1203 1535,1206 1521,1210 1511,1214 1504,1218 1500,1221 1498,1223 1497,1224 1500,1192 1500,1165 1499,1146 1500,1136 1484,1142 1469,1149 1456,1157 1445,1166 1435,1174 1429,1181 1424,1185 1423,1187 1423,1172 1423,1139 1422,1106 1422,1091 1429,1071 1438,1053 1449,1035 1462,1018 1478,1004 1496,990 1516,979 1540,970 1493,1065 1500,1068 1550,967 1558,965 1566,962 1575,960 1584,959 1593,957 1602,956 1612,955 1622,954 1622,954"/>
<polygon class="pen1 brush2" points="1024,1613 982,1517 955,1423 939,1333 934,1249 935,1171 942,1103 952,1044 963,997 957,992 951,986 945,980 939,974 919,973 916,977 913,981 909,985 906,988 902,992 898,996 893,999 889,1003 873,1088 865,1170 865,1249 871,1325 883,1397 900,1466 922,1531 947,1592 937,1583 926,1574 914,1565 901,1557 886,1549 870,1543 853,1538 834,1534 835,1537 834,1546 830,1560 818,1579 819,1579 822,1581 828,1583 835,1586 844,1590 854,1595 865,1600 878,1606 891,1613 905,1621 920,1629 934,1638 949,1648 964,1659 979,1669 993,1681 1013,1716 1033,1749 1054,1780 1075,1808 1095,1835 1115,1860 1134,1882 1152,1902 1169,1920 1185,1936 1198,1949 1210,1960 1220,1969 1227,1975 1231,1979 1233,1980 1263,1906 1246,1892 1230,1877 1214,1863 1199,1848 1185,1833 1170,1819 1157,1804 1144,1789 1131,1774 1119,1759 1107,1744 1096,1729 1085,1714 1075,1699 1065,1684 1055,1669 1075,1660 1097,1648 1121,1631 1146,1612 1172,1590 1199,1567 1226,1543 1252,1518 1277,1494 1300,1471 1321,1450 1339,1431 1355,1415 1366,1403 1373,1395 1376,1392 1412,1377 1443,1361 1470,1345 1492,1330 1511,1315 1526,1300 1538,1286 1548,1272 1555,1260 1560,1248 1563,1238 1564,1230 1565,1223 1565,1217 1565,1214 1565,1213 1542,1216 1524,1221 1509,1226 1499,1231 1492,1235 1487,1239 1485,1242 1484,1243 1487,1209 1489,1180 1490,1160 1490,1152 1474,1158 1460,1166 1447,1175 1437,1185 1428,1194 1421,1202 1417,1207 1416,1209 1415,1174 1414,1143 1412,1120 1411,1111 1386,1137 1367,1172 1353,1212 1343,1254 1337,1294 1333,1327 1331,1350 1331,1358 1314,1384 1295,1408 1274,1431 1253,1453 1230,1474 1208,1493 1185,1512 1163,1529 1140,1544 1119,1558 1099,1571 1080,1583 1063,1592 1047,1601 1034,1608 1024,1613"/>
<polygon class="pen1 brush0" points="869,697 841,691 815,686 792,683 771,681 752,681 735,682 720,684 706,688 694,692 682,699 672,706 662,714 653,723 644,734 635,745 626,757 624,759 622,760 620,759 618,757 630,738 643,722 656,709 670,698 684,689 699,683 714,678 729,675 744,673 758,673 773,673 788,675 802,676 816,679 829,681 842,683 826,672 815,661 807,650 801,639 797,627 793,613 788,597 781,578 776,567 769,558 762,550 754,543 744,538 734,533 724,529 712,527 701,525 689,524 677,523 665,524 653,524 641,526 630,528 619,530 618,530 618,528 618,525 618,524 634,521 650,518 664,517 679,516 692,517 705,518 717,520 729,523 739,527 749,532 758,537 766,544 773,551 778,559 783,567 787,577 794,596 800,614 807,630 814,645 823,658 835,670 849,680 867,689 867,403 872,402 872,689 891,681 907,671 919,659 928,646 936,631 942,614 948,595 955,575 959,566 964,557 970,550 977,543 985,537 993,531 1003,527 1014,523 1025,520 1037,518 1050,517 1063,516 1078,517 1092,518 1108,521 1124,524 1125,525 1125,527 1125,529 1124,530 1113,528 1102,526 1090,524 1078,524 1066,523 1054,524 1042,525 1031,527 1019,529 1009,533 999,538 989,543 981,550 974,558 967,567 962,578 955,597 950,613 946,627 941,639 936,650 927,661 915,672 899,683 912,680 926,678 940,676 954,674 969,672 984,672 999,672 1014,674 1029,677 1044,682 1059,689 1073,698 1087,709 1100,722 1113,738 1125,757 1123,759 1121,759 1119,759 1117,757 1108,745 1099,734 1090,723 1080,714 1070,706 1059,698 1048,692 1035,687 1021,684 1005,681 988,680 969,680 947,682 924,686 898,691 869,697"/>
</g>
</svg>
