<?xml version="1.0" encoding="UTF-8" standalone="no"?>
<!DOCTYPE svg PUBLIC "-//W3C//DTD SVG 1.0//EN" "http://www.w3.org/TR/2001/REC-SVG-20010904/DTD/svg10.dtd">
<svg xmlns="http://www.w3.org/2000/svg" xmlns:xlink="http://www.w3.org/1999/xlink" fill-rule="evenodd" height="2.006in" preserveAspectRatio="none" stroke-linecap="round" viewBox="0 0 425 2006" width="0.425in">
<style type="text/css">
.brush0 { fill: rgb(255,255,255); }
.pen0 { stroke: rgb(0,0,0); stroke-width: 1; stroke-linejoin: round; }
.brush1 { fill: none; }
.pen1 { stroke: none; }
.brush2 { fill: rgb(0,0,0); }
</style>
<g>
<polygon class="pen1 brush2" points="250,575 262,627 274,576 280,620 301,586 300,594 298,610 296,625 297,629 303,621 312,609 320,598 323,593 324,649 354,599 348,660 375,623 372,667 406,598 401,597 387,592 367,586 343,578 317,569 291,559 268,548 250,538 246,421 256,467 280,431 279,477 301,440 301,491 323,454 327,508 354,467 355,505 381,470 385,504 425,448 418,447 409,445 399,443 387,439 375,435 362,430 348,425 334,420 321,415 307,409 294,404 282,398 271,394 261,389 253,386 246,383 243,262 253,312 263,281 277,319 289,295 290,329 314,298 318,332 345,298 354,328 385,278 362,276 340,273 318,267 298,261 279,254 264,248 251,242 242,238 239,164 252,211 262,188 272,215 293,197 297,220 320,204 334,224 351,190 338,188 323,182 307,175 291,166 275,156 261,146 248,137 239,130 239,107 245,96 262,126 270,102 289,132 289,109 307,133 311,93 302,91 293,88 283,84 272,80 262,75 252,70 244,66 237,62 236,28 212,0 212,27 205,30 195,34 184,39 172,44 160,49 149,53 139,57 132,59 128,89 142,71 154,86 171,66 179,82 212,32 209,119 202,122 192,126 180,131 167,136 154,141 141,146 128,150 117,153 118,193 135,170 148,187 158,170 175,184 209,125 206,190 196,194 182,199 166,206 149,212 131,219 115,225 101,229 91,232 94,285 114,250 129,278 144,248 156,275 173,237 179,255 206,200 203,298 193,304 178,313 160,323 140,333 120,344 101,353 84,361 70,366 70,454 95,392 101,434 121,387 125,420 145,373 158,403 171,359 179,382 203,312 199,436 187,445 172,456 155,468 137,480 119,491 101,501 85,509 71,514 67,571 93,528 101,559 127,514 132,544 152,504 171,534 199,464 195,571 180,580 162,589 142,597 122,604 103,611 87,616 77,619 73,620 60,690 78,653 90,677 107,642 112,666 128,637 138,657 156,620 166,642 195,581 192,660 173,676 152,690 129,704 107,715 86,725 69,732 58,736 54,738 50,821 70,771 78,812 95,764 100,794 117,748 122,775 145,724 151,765 168,710 179,732 192,688 189,816 168,835 144,854 120,873 95,890 73,904 55,916 43,923 39,926 37,992 61,940 61,982 87,930 91,971 121,900 128,944 151,879 158,931 188,846 183,967 167,981 152,994 136,1006 122,1017 108,1027 94,1035 81,1043 70,1050 59,1055 49,1060 41,1064 34,1068 28,1070 24,1072 21,1073 20,1073 0,1133 33,1092 29,1146 70,1081 67,1123 108,1062 105,1099 131,1059 135,1089 154,1035 162,1072 182,994 179,1120 159,1136 136,1152 113,1166 91,1180 71,1191 56,1199 45,1205 41,1207 44,1240 58,1208 64,1245 88,1204 98,1227 122,1180 127,1220 141,1181 148,1207 179,1140 175,1237 139,1258 108,1274 81,1288 59,1297 42,1304 30,1309 22,1311 20,1312 12,1399 39,1332 44,1389 67,1325 67,1379 95,1309 94,1367 131,1285 135,1323 161,1267 162,1309 175,1284 154,1994 162,1997 170,2000 178,2002 186,2003 194,2005 203,2005 210,2006 218,2006 232,2005 245,2004 257,2002 267,2000 275,1998 282,1996 286,1995 287,1994 266,1208 277,1248 280,1207 293,1258 311,1215 323,1272 337,1245 354,1294 364,1251 388,1304 389,1259 411,1289 411,1221 407,1220 396,1216 379,1209 358,1200 334,1190 310,1178 287,1165 266,1150 263,1025 274,975 287,1041 306,1005 306,1065 328,1034 340,1095 354,1052 372,1106 381,1062 406,1113 406,1041 402,1039 391,1032 375,1021 354,1006 331,989 306,969 282,947 260,923 256,805 267,869 283,825 296,873 314,839 317,877 327,859 337,904 354,855 368,900 388,849 405,896 416,833 415,833 412,832 406,832 399,830 391,829 381,827 370,824 359,821 346,817 333,813 320,807 306,801 293,795 280,787 268,778 256,769 254,718 262,747 267,717 274,754 290,731 300,767 311,742 324,769 337,744 341,769 357,724 354,724 346,723 334,721 319,718 302,714 285,708 268,702 253,694 250,575"/>
</g>
</svg>
