<?xml version="1.0" encoding="UTF-8" standalone="no"?>
<!DOCTYPE svg PUBLIC "-//W3C//DTD SVG 1.0//EN" "http://www.w3.org/TR/2001/REC-SVG-20010904/DTD/svg10.dtd">
<svg xmlns="http://www.w3.org/2000/svg" xmlns:xlink="http://www.w3.org/1999/xlink" fill-rule="evenodd" height="1.536in" preserveAspectRatio="none" stroke-linecap="round" viewBox="0 0 1980 1536" width="1.98in">
<style type="text/css">
.brush0 { fill: rgb(255,255,255); }
.pen0 { stroke: rgb(0,0,0); stroke-width: 1; stroke-linejoin: round; }
.brush1 { fill: none; }
.pen1 { stroke: none; }
.brush2 { fill: rgb(0,0,0); }
</style>
<g>
<polygon class="pen1 brush2" points="591,1196 610,1165 622,1134 627,1101 626,1068 619,1036 609,1004 595,973 579,944 561,916 542,891 523,869 505,850 489,836 475,825 465,819 459,818 456,823 459,832 466,844 476,858 487,872 497,885 506,895 511,902 515,909 513,914 506,914 493,907 482,896 465,877 444,853 421,826 399,801 379,780 363,767 354,764 354,772 361,786 375,804 393,825 411,847 429,867 443,884 452,895 455,902 456,906 453,909 448,910 441,909 432,907 422,903 412,899 406,895 398,889 388,881 377,872 365,861 352,850 339,838 325,826 312,814 299,803 287,793 276,784 266,777 258,772 251,770 247,770 247,777 258,791 275,809 296,830 319,851 340,870 357,886 368,896 373,902 374,906 372,909 368,911 362,911 354,910 345,907 335,902 329,898 321,892 311,883 300,874 288,863 276,852 263,841 250,829 237,818 224,807 213,798 202,790 193,784 185,780 179,779 175,780 176,789 187,803 206,820 229,839 254,859 277,878 296,894 307,905 312,913 312,919 309,923 304,925 296,926 287,925 277,922 267,916 253,906 234,891 211,873 187,854 163,836 142,822 125,813 115,812 115,819 125,830 142,846 163,864 186,883 208,902 227,920 240,936 246,948 247,958 244,964 238,968 229,969 220,969 211,967 203,964 195,960 187,953 177,944 165,933 151,922 134,911 113,901 88,892 77,889 70,888 67,889 67,891 71,895 77,900 85,906 95,913 106,920 118,928 130,936 142,945 153,952 163,960 172,967 179,973 188,983 191,992 189,999 183,1003 174,1007 165,1008 156,1008 148,1007 140,1005 132,1002 123,997 114,992 105,986 96,981 86,977 77,973 67,970 58,967 51,965 46,963 42,962 39,962 37,963 37,964 40,968 48,974 57,981 69,989 82,996 94,1003 106,1009 115,1014 124,1020 130,1026 133,1031 133,1035 131,1039 127,1042 121,1044 114,1045 106,1044 96,1042 85,1039 74,1035 63,1031 52,1027 42,1024 34,1021 27,1019 21,1019 18,1019 17,1021 18,1024 22,1029 29,1035 38,1041 49,1047 60,1052 72,1056 84,1059 95,1065 99,1073 96,1080 88,1082 82,1081 76,1080 69,1079 62,1077 53,1076 44,1075 35,1073 24,1072 13,1071 6,1072 2,1075 3,1078 5,1082 10,1085 16,1088 23,1089 31,1091 39,1094 48,1097 56,1100 63,1104 69,1107 73,1111 74,1115 76,1141 81,1165 90,1187 101,1207 115,1226 131,1242 149,1257 169,1270 179,1272 185,1270 186,1264 182,1253 176,1242 170,1229 163,1216 157,1202 152,1190 151,1179 153,1171 159,1166 167,1170 175,1182 184,1200 193,1220 205,1240 218,1258 234,1269 254,1272 256,1271 256,1268 253,1265 250,1261 245,1257 241,1252 236,1248 233,1243 227,1234 219,1220 211,1202 202,1181 196,1161 193,1144 195,1130 203,1123 217,1126 228,1138 237,1158 245,1181 254,1206 264,1229 278,1249 297,1261 304,1258 303,1251 297,1239 286,1224 278,1212 269,1193 259,1170 250,1146 244,1123 243,1103 248,1089 260,1084 272,1090 281,1107 288,1132 294,1160 302,1189 312,1214 328,1234 351,1244 357,1242 358,1235 354,1222 344,1201 335,1188 324,1169 312,1145 302,1118 296,1093 294,1070 299,1053 313,1044 326,1048 333,1061 337,1083 342,1109 348,1139 360,1168 381,1196 412,1220 416,1221 420,1221 423,1220 424,1217 424,1210 420,1201 413,1187 402,1169 390,1147 380,1125 372,1103 368,1083 366,1065 368,1050 373,1039 382,1034 397,1039 407,1057 414,1084 420,1115 427,1148 438,1177 454,1199 476,1210 484,1209 484,1203 478,1192 469,1176 463,1163 454,1143 445,1121 438,1097 433,1074 432,1055 437,1042 449,1037 457,1050 464,1071 471,1097 478,1126 487,1153 497,1177 510,1193 527,1199 534,1193 533,1182 527,1170 521,1159 515,1134 508,1096 506,1061 517,1045 527,1051 534,1067 539,1089 544,1115 548,1141 554,1164 562,1182 572,1190 577,1191 583,1193 588,1194 591,1196 591,1196"/>
<polygon class="pen1 brush2" points="178,1278 182,1278 190,1277 196,1272 193,1261 188,1251 181,1238 174,1224 167,1209 161,1196 157,1185 156,1177 159,1173 166,1177 173,1190 182,1209 192,1230 205,1250 221,1267 240,1277 263,1278 266,1273 263,1267 256,1259 247,1251 240,1242 231,1227 220,1209 210,1188 202,1167 198,1149 199,1136 206,1129 216,1133 225,1147 233,1168 242,1193 252,1219 265,1242 282,1259 304,1267 311,1265 312,1258 307,1246 297,1231 289,1219 278,1200 267,1177 257,1152 250,1128 247,1107 251,1093 263,1088 271,1095 278,1113 284,1140 292,1169 302,1199 315,1226 334,1244 358,1251 364,1249 365,1243 361,1230 351,1210 343,1194 332,1172 320,1147 310,1121 303,1095 300,1073 304,1057 317,1048 325,1052 329,1067 332,1091 337,1120 345,1151 360,1182 382,1209 415,1230 419,1231 424,1231 427,1229 430,1225 431,1218 428,1208 422,1195 412,1177 400,1156 389,1133 381,1111 375,1090 371,1071 372,1056 376,1045 385,1040 394,1045 402,1063 408,1090 416,1121 425,1154 437,1183 454,1205 476,1217 486,1216 489,1211 487,1200 480,1184 473,1171 464,1152 454,1128 445,1103 438,1080 435,1060 438,1046 447,1041 453,1048 458,1066 465,1093 473,1122 482,1152 494,1179 509,1197 528,1204 537,1201 539,1195 538,1185 534,1174 530,1165 525,1149 519,1130 514,1108 510,1088 509,1070 511,1057 517,1052 525,1057 531,1073 535,1094 540,1119 544,1145 550,1168 557,1185 567,1193 577,1197 583,1199 587,1200 591,1201 590,1202 587,1205 583,1210 577,1216 570,1223 561,1232 550,1241 539,1250 526,1260 511,1270 496,1279 480,1288 462,1297 444,1304 425,1310 405,1314 385,1317 367,1320 350,1321 334,1322 318,1323 304,1323 290,1322 277,1320 264,1318 251,1314 239,1310 227,1306 215,1300 203,1293 191,1286 178,1278"/>
<polygon class="pen1 brush2" points="1389,1014 1370,983 1358,952 1353,919 1354,886 1360,854 1371,822 1385,791 1401,762 1419,734 1438,709 1457,687 1475,668 1491,654 1505,643 1515,637 1521,636 1524,642 1521,651 1514,664 1504,677 1493,691 1483,703 1474,714 1469,720 1465,727 1467,732 1474,732 1487,726 1498,715 1516,696 1537,672 1560,646 1583,621 1603,600 1619,587 1628,584 1628,592 1620,606 1606,624 1589,645 1570,666 1552,686 1537,702 1528,713 1525,720 1525,724 1528,727 1533,728 1540,727 1548,725 1557,721 1567,717 1573,713 1582,707 1591,699 1603,690 1615,679 1628,667 1641,655 1655,643 1668,632 1681,621 1693,611 1704,602 1714,595 1722,590 1729,588 1733,588 1732,596 1722,609 1705,628 1684,648 1661,669 1639,688 1622,703 1611,713 1607,719 1606,724 1608,727 1612,729 1618,729 1626,728 1635,725 1645,720 1651,716 1659,709 1669,701 1680,692 1692,681 1704,670 1717,658 1730,647 1743,636 1756,625 1767,616 1778,608 1787,602 1795,599 1801,597 1805,599 1804,608 1793,622 1774,639 1751,658 1726,678 1703,696 1684,712 1673,723 1668,731 1668,737 1671,741 1676,744 1684,745 1693,743 1703,740 1713,734 1727,724 1746,709 1769,691 1793,672 1817,655 1838,641 1855,633 1865,632 1865,638 1856,649 1839,664 1818,682 1795,701 1773,720 1753,738 1740,754 1734,766 1733,775 1736,781 1743,785 1751,787 1760,787 1769,785 1777,782 1785,777 1793,770 1803,761 1814,750 1828,739 1846,729 1867,719 1892,710 1903,707 1910,706 1913,707 1912,710 1906,716 1895,724 1880,734 1863,746 1844,758 1827,770 1812,781 1801,791 1792,801 1789,810 1791,817 1797,821 1806,825 1816,826 1825,826 1834,825 1841,823 1849,820 1857,815 1866,810 1875,804 1884,799 1894,795 1903,791 1912,788 1919,785 1926,784 1931,782 1935,781 1938,781 1940,781 1942,781 1943,784 1937,789 1928,796 1916,804 1902,812 1888,820 1875,827 1865,832 1855,838 1850,843 1847,849 1847,853 1850,857 1854,860 1860,861 1867,862 1875,861 1884,859 1895,856 1906,853 1917,849 1928,845 1938,842 1946,839 1953,837 1959,837 1962,837 1963,839 1962,842 1958,847 1951,853 1942,859 1931,865 1919,870 1907,875 1895,878 1885,884 1882,892 1885,898 1892,900 1897,899 1904,898 1911,897 1918,896 1927,895 1936,893 1946,892 1956,890 1968,890 1975,891 1978,893 1977,896 1975,899 1970,903 1964,905 1957,907 1949,909 1941,912 1932,915 1924,918 1916,922 1910,925 1906,929 1905,933 1903,959 1898,983 1890,1006 1879,1026 1865,1044 1849,1061 1831,1075 1811,1088 1801,1090 1795,1088 1793,1082 1798,1071 1804,1060 1810,1047 1817,1034 1823,1020 1827,1007 1829,996 1827,988 1821,984 1813,988 1805,1000 1796,1018 1787,1038 1775,1059 1762,1076 1746,1088 1726,1091 1724,1089 1724,1087 1726,1084 1730,1080 1735,1075 1739,1071 1744,1066 1747,1061 1753,1052 1761,1038 1770,1020 1778,1000 1784,980 1787,962 1785,949 1777,942 1763,944 1752,957 1743,976 1735,999 1726,1024 1716,1047 1702,1066 1683,1078 1677,1076 1677,1069 1684,1057 1695,1042 1702,1030 1712,1011 1722,988 1730,964 1736,941 1737,921 1732,907 1719,902 1707,908 1698,925 1692,950 1686,978 1678,1006 1668,1032 1652,1051 1629,1061 1623,1059 1622,1052 1626,1040 1636,1020 1645,1007 1656,987 1668,963 1678,936 1684,910 1686,888 1681,871 1668,862 1655,866 1647,879 1643,901 1639,927 1632,957 1620,986 1599,1014 1568,1038 1565,1039 1561,1039 1558,1038 1557,1035 1557,1028 1561,1019 1567,1005 1578,987 1590,965 1601,943 1608,921 1613,901 1614,883 1613,868 1607,857 1598,852 1583,857 1574,875 1567,902 1561,933 1553,966 1543,995 1527,1017 1504,1028 1496,1028 1496,1022 1501,1011 1510,994 1517,981 1525,961 1534,938 1542,914 1547,891 1548,872 1543,858 1531,853 1523,867 1516,888 1509,915 1502,944 1493,971 1483,995 1470,1011 1453,1017 1447,1011 1448,1000 1453,988 1459,977 1462,967 1466,952 1470,934 1473,914 1475,895 1474,879 1471,868 1463,863 1453,869 1446,884 1441,907 1436,932 1432,959 1426,982 1418,1000 1408,1008 1403,1009 1397,1011 1392,1012 1389,1014 1389,1014"/>
<polygon class="pen1 brush2" points="1803,1095 1799,1095 1791,1094 1785,1090 1787,1078 1792,1068 1799,1056 1806,1042 1813,1028 1819,1014 1823,1003 1824,995 1821,991 1814,995 1807,1008 1798,1027 1788,1048 1775,1068 1759,1085 1740,1095 1717,1095 1714,1091 1718,1084 1725,1076 1733,1068 1740,1060 1749,1045 1760,1027 1770,1006 1778,985 1782,967 1781,954 1774,947 1764,951 1755,965 1747,986 1739,1011 1728,1036 1715,1059 1698,1077 1676,1085 1669,1083 1669,1076 1674,1064 1683,1049 1691,1037 1701,1018 1712,995 1723,970 1730,946 1733,925 1729,911 1717,906 1709,913 1702,931 1696,957 1689,987 1679,1017 1666,1043 1648,1061 1624,1068 1617,1066 1616,1060 1619,1048 1629,1028 1638,1012 1649,990 1661,965 1672,939 1679,914 1682,892 1678,875 1665,866 1657,870 1652,885 1648,909 1643,938 1635,969 1620,1000 1598,1027 1565,1048 1561,1049 1556,1049 1553,1047 1550,1043 1549,1036 1551,1026 1557,1013 1567,995 1579,974 1590,951 1599,929 1605,908 1609,889 1608,874 1604,863 1595,858 1586,863 1578,881 1572,907 1564,939 1555,971 1542,1000 1525,1023 1503,1034 1494,1034 1491,1029 1493,1019 1500,1003 1507,990 1516,970 1526,946 1535,922 1542,898 1545,878 1543,864 1533,859 1528,866 1523,884 1516,911 1508,940 1498,970 1486,997 1471,1015 1452,1022 1443,1019 1441,1013 1442,1003 1446,993 1450,983 1455,968 1461,948 1466,927 1470,906 1471,888 1469,875 1463,870 1455,875 1450,891 1445,912 1441,937 1436,963 1431,986 1423,1003 1412,1011 1403,1015 1397,1017 1394,1019 1391,1020 1392,1021 1394,1024 1399,1029 1405,1035 1412,1042 1421,1050 1431,1059 1443,1068 1455,1078 1469,1088 1484,1097 1501,1106 1518,1114 1536,1121 1555,1127 1575,1132 1595,1135 1613,1137 1630,1139 1647,1140 1662,1140 1677,1140 1691,1139 1704,1137 1717,1135 1730,1132 1742,1128 1754,1123 1766,1117 1778,1111 1791,1103 1803,1095"/>
<polygon class="pen1 brush2" points="1230,402 1230,402 1230,402 1230,402 1230,402 1230,402 1230,402 1230,402 1230,402 1230,402 1231,402 1232,402 1233,403 1233,403 1225,420 1216,441 1205,465 1197,492 1190,519 1188,544 1192,568 1203,588 1219,601 1236,604 1253,601 1270,592 1285,582 1296,572 1304,564 1307,561 1310,564 1320,570 1333,577 1350,585 1368,589 1385,589 1402,583 1415,567 1422,545 1421,520 1413,494 1401,469 1387,444 1372,422 1358,403 1348,389 1344,389 1345,389 1345,389 1346,389 1347,389 1347,389 1347,389 1347,389 1347,388 1347,388 1347,388 1348,388 1348,389 1360,400 1376,414 1395,428 1415,442 1437,453 1460,461 1482,462 1504,456 1520,444 1528,428 1529,410 1525,392 1519,375 1512,361 1506,352 1504,348 1507,345 1515,338 1526,327 1537,312 1546,296 1551,279 1549,261 1537,244 1528,237 1517,233 1506,230 1493,228 1480,228 1467,229 1454,231 1440,234 1427,238 1414,242 1401,246 1389,251 1378,255 1368,260 1359,264 1351,267 1351,267 1350,267 1349,267 1349,267 1349,267 1364,257 1384,243 1405,227 1427,209 1447,189 1462,168 1472,145 1473,122 1466,103 1452,91 1435,85 1417,83 1399,85 1383,88 1372,91 1368,92 1366,88 1362,78 1354,65 1344,50 1332,37 1317,27 1299,25 1280,31 1263,47 1252,68 1245,94 1242,121 1241,149 1243,175 1245,199 1247,217 1245,217 1244,217 1243,217 1242,217 1244,214 1239,197 1232,176 1222,151 1211,125 1198,101 1182,80 1163,64 1141,57 1120,58 1105,67 1094,82 1087,99 1083,116 1082,132 1081,143 1081,147 1077,147 1066,149 1051,153 1034,159 1018,168 1005,180 998,196 999,217 1003,228 1009,238 1017,247 1027,255 1038,262 1050,268 1062,273 1076,278 1089,282 1103,286 1116,289 1129,292 1141,294 1152,296 1161,298 1169,299 1171,298 1171,298 1171,298 1171,298 1171,299 1171,301 1171,301 1171,301 1171,301 1171,301 1171,301 1171,301 1171,301 1171,301 1171,302 1171,302 1171,302 1171,302 1171,303 1171,304 1162,304 1152,303 1141,303 1128,303 1115,303 1102,303 1088,304 1075,306 1061,308 1048,311 1036,315 1024,320 1014,326 1005,333 998,341 992,351 986,370 990,387 1000,401 1014,413 1029,422 1043,429 1053,433 1057,434 1056,438 1054,449 1053,465 1053,483 1057,501 1064,518 1077,530 1097,535 1120,532 1141,521 1161,504 1179,483 1195,460 1210,437 1221,417 1230,402 1230,402 1230,402"/>
<polygon class="pen1 brush2" points="1078,545 1078,545 1080,546 1083,548 1087,549 1093,550 1101,550 1111,550 1124,548 1122,552 1117,563 1110,580 1100,605 1089,636 1078,672 1066,715 1055,763 1045,817 1037,876 1032,939 1029,1007 1030,1079 1036,1155 1047,1235 1063,1318 1077,1448 1030,1318 1026,1301 1016,1251 1004,1175 996,1076 995,959 1005,828 1031,689 1078,545 1078,545"/>
<polygon class="pen1 brush2" points="1101,1526 1104,1524 1112,1517 1126,1506 1143,1491 1164,1474 1187,1454 1212,1432 1239,1408 1266,1383 1293,1357 1319,1331 1344,1306 1366,1281 1385,1257 1401,1236 1412,1216 1420,1198 1425,1179 1428,1160 1429,1142 1427,1124 1422,1108 1416,1093 1406,1080 1394,1070 1380,1062 1363,1057 1344,1056 1322,1058 1297,1065 1270,1076 1240,1092 1211,1113 1186,1139 1165,1168 1147,1201 1133,1236 1122,1272 1114,1309 1108,1346 1103,1381 1101,1415 1099,1445 1099,1472 1099,1494 1100,1511 1101,1522 1101,1526 1101,1526"/>
<polygon class="pen1 brush2" points="1071,1536 1070,1532 1067,1522 1063,1506 1056,1484 1047,1459 1037,1430 1024,1399 1009,1367 992,1334 972,1302 950,1271 926,1242 900,1216 871,1194 839,1177 805,1166 771,1160 742,1158 716,1160 695,1165 676,1172 662,1182 651,1194 643,1208 638,1223 636,1239 637,1256 640,1273 646,1290 655,1307 666,1323 679,1338 696,1353 718,1369 744,1385 773,1402 804,1418 837,1435 870,1451 904,1466 936,1481 967,1494 996,1506 1021,1516 1041,1524 1057,1531 1067,1535 1071,1536"/>
<polygon class="pen1 brush0" points="1199,268 1099,182 1102,179 1203,265 1199,268"/>
<polygon class="pen1 brush0" points="1122,193 1223,281 1219,284 1119,197 1122,193"/>
<polygon class="pen1 brush0" points="1344,139 1287,258 1291,260 1349,140 1344,139"/>
<polygon class="pen1 brush0" points="1280,372 1294,503 1298,501 1286,369 1280,372"/>
<polygon class="pen1 brush0" points="1457,342 1325,328 1327,332 1457,348 1457,342"/>
<polygon class="pen1 brush0" points="1222,342 1104,403 1107,406 1224,346 1222,342"/>
<polygon class="pen1 brush0" points="1266,335 1274,335 1283,332 1289,327 1293,318 1293,310 1290,302 1285,295 1277,291 1268,291 1260,294 1254,300 1250,308 1250,317 1252,325 1258,331 1266,335"/>
</g>
</svg>
