<?xml version="1.0" encoding="UTF-8" standalone="no"?>
<!DOCTYPE svg PUBLIC "-//W3C//DTD SVG 1.0//EN" "http://www.w3.org/TR/2001/REC-SVG-20010904/DTD/svg10.dtd">
<svg xmlns="http://www.w3.org/2000/svg" xmlns:xlink="http://www.w3.org/1999/xlink" fill-rule="evenodd" height="1.136in" preserveAspectRatio="none" stroke-linecap="round" viewBox="0 0 1977 1136" width="1.977in">
<style type="text/css">
.brush0 { fill: rgb(255,255,255); }
.pen0 { stroke: rgb(0,0,0); stroke-width: 1; stroke-linejoin: round; }
.brush1 { fill: none; }
.pen1 { stroke: none; }
.brush2 { fill: rgb(0,0,0); }
</style>
<g>
<polygon class="pen1 brush2" points="703,514 710,514 717,515 723,516 729,518 733,517 743,513 758,508 776,502 798,496 820,492 842,490 862,491 864,489 871,483 880,475 893,466 908,458 924,451 940,447 957,447 961,445 971,441 987,434 1006,426 1028,417 1049,409 1070,402 1088,397 1102,363 1051,363 1086,315 1037,291 1086,258 1051,231 1039,223 1028,215 1016,207 1005,198 996,190 987,181 981,172 977,164 974,164 966,164 954,161 939,156 923,148 908,134 894,115 882,89 879,89 871,89 859,89 844,88 828,86 811,83 794,78 780,72 933,338 941,339 949,341 957,342 966,343 974,344 983,345 991,346 998,346 997,358 989,358 981,357 973,356 965,355 957,353 948,352 940,350 932,349 703,514 703,514"/>
<polygon class="pen1 brush2" points="757,45 751,48 919,335 727,305 575,35 587,34 599,33 610,31 619,28 627,25 633,23 637,22 638,21 658,37 678,46 698,51 717,52 733,51 746,48 754,46 757,45 757,45"/>
<polygon class="pen1 brush2" points="561,35 713,302 699,300 686,297 672,294 659,292 646,289 632,286 619,283 606,280 593,277 579,274 566,271 553,269 540,266 527,263 513,260 500,257 373,34 381,31 386,28 388,26 389,25 409,35 431,40 453,40 474,36 492,32 507,27 516,23 520,21 525,24 530,26 535,29 540,31 545,32 551,34 556,34 561,35 561,35"/>
<polygon class="pen1 brush2" points="362,37 355,38 347,38 338,37 329,36 319,33 308,30 296,26 284,20 282,21 278,24 270,27 260,30 248,32 233,33 216,31 197,25 291,193 303,197 315,202 327,206 339,210 351,214 363,218 375,222 387,225 399,229 411,233 423,236 435,240 448,243 460,246 472,249 484,252 362,37 362,37"/>
<polygon class="pen1 brush2" points="179,18 274,187 259,181 244,175 230,168 215,162 201,155 187,148 173,141 159,133 145,126 132,117 119,109 106,100 94,90 82,80 70,69 58,58 48,66 60,78 73,89 85,99 98,109 112,119 125,127 139,136 153,144 168,152 182,159 197,166 212,173 227,179 242,186 257,192 273,198 145,284 138,268 129,255 118,243 106,234 95,227 86,221 79,218 77,217 73,199 68,186 62,176 56,169 50,164 46,161 42,160 41,160 39,148 35,136 30,126 24,117 17,109 12,104 8,100 7,99 12,69 9,37 3,11 0,0 19,9 37,14 53,16 66,16 77,15 85,13 90,12 92,11 109,18 124,22 139,24 151,24 162,23 170,21 176,19 179,18 179,18"/>
<polygon class="pen1 brush2" points="153,294 162,297 172,301 184,307 196,314 208,324 220,335 229,348 237,362 240,360 245,360 253,361 262,364 273,369 284,375 296,382 308,390 483,264 471,261 458,258 446,255 433,251 421,248 408,244 396,241 384,237 371,233 359,229 347,225 335,221 322,217 311,213 299,208 287,204 153,294 153,294"/>
<polygon class="pen1 brush2" points="318,397 497,268 510,272 524,275 537,278 550,281 564,284 577,287 590,290 604,293 617,296 630,299 643,301 657,304 670,307 683,309 697,312 710,314 476,484 458,472 439,461 419,454 399,448 382,444 368,443 358,444 355,447 352,440 349,434 345,427 340,421 335,415 330,409 324,403 318,397 318,397"/>
<polygon class="pen1 brush2" points="484,494 727,316 739,318 751,321 762,323 774,325 786,327 797,329 809,331 821,333 832,335 844,336 856,338 867,340 879,341 890,343 902,344 913,346 683,514 669,515 656,517 643,519 632,521 622,522 615,524 610,525 608,525 593,516 575,509 556,505 536,501 517,499 502,498 492,498 488,498 487,497 487,496 486,494 484,494 484,494"/>
<polygon class="pen1 brush2" points="1977,502 1974,500 1967,496 1955,488 1938,479 1918,468 1893,455 1865,441 1834,427 1800,413 1764,399 1725,385 1684,372 1642,361 1598,352 1553,345 1507,341 1523,356 1463,369 1491,420 1425,413 1433,427 1459,431 1488,436 1520,441 1554,448 1589,455 1625,464 1663,473 1700,484 1738,497 1776,511 1813,527 1849,545 1883,564 1915,586 1945,609 1973,635 1943,549 1973,558 1956,524 1977,502 1977,502"/>
<polygon class="pen1 brush2" points="1186,120 1193,61 1238,99 1264,42 1291,95 1329,48 1344,103 1388,66 1388,123 1443,103 1426,160 1479,146 1450,203 1511,210 1464,251 1520,287 1467,311 1507,352 1450,365 1476,413 1413,406 1429,460 1371,440 1363,497 1322,456 1305,508 1277,460 1251,505 1227,448 1190,485 1180,426 1142,457 1146,396 1096,410 1119,359 1068,356 1105,315 1055,291 1105,258 1061,224 1118,210 1088,153 1142,162 1135,98 1186,120 1186,120"/>
<polygon class="pen1 brush2" points="1067,1099 1067,1093 1071,1096 1074,1092 1077,1096 1079,1092 1081,1098 1085,1093 1085,1099 1091,1098 1089,1102 1095,1102 1092,1106 1098,1108 1094,1112 1098,1115 1094,1118 1096,1122 1092,1123 1095,1126 1088,1126 1089,1132 1084,1129 1084,1136 1079,1132 1078,1136 1075,1132 1072,1136 1069,1130 1067,1135 1065,1129 1061,1132 1062,1126 1058,1126 1059,1122 1054,1122 1058,1118 1054,1116 1058,1112 1054,1109 1059,1108 1057,1102 1061,1102 1061,1102 1056,1094 1051,1087 1046,1079 1041,1072 1041,1075 1037,1071 1035,1075 1033,1072 1031,1075 1027,1071 1024,1075 1024,1068 1020,1072 1021,1065 1015,1066 1017,1062 1013,1062 1017,1058 1011,1055 1017,1052 1011,1048 1017,1048 1014,1041 1020,1042 1018,1037 1023,1038 1019,1030 1014,1021 1010,1012 1007,1004 1006,1008 1003,1002 1000,1008 997,1001 994,1005 993,998 988,1002 988,997 984,998 986,991 980,991 984,987 980,984 984,981 980,977 986,975 984,970 988,971 987,964 993,967 994,963 992,957 990,947 988,938 987,934 984,929 980,934 977,927 971,933 970,924 966,929 967,920 960,921 963,916 956,914 960,910 953,906 960,902 954,896 961,895 957,887 966,889 964,879 971,883 971,875 979,880 979,870 978,851 977,834 977,828 973,818 967,825 967,815 960,819 961,811 953,812 957,805 950,805 956,798 947,795 956,789 949,785 956,782 953,775 960,775 960,767 967,770 969,761 974,767 979,758 983,764 984,750 986,736 988,722 991,707 987,713 984,704 980,708 980,700 973,701 977,693 969,693 974,687 967,683 974,679 967,673 977,671 971,663 980,664 979,654 986,659 987,650 994,656 997,646 1001,654 1007,649 1012,633 1017,619 1022,605 1027,592 1021,596 1023,588 1014,589 1018,582 1011,581 1017,575 1008,572 1017,566 1010,562 1018,558 1014,551 1021,552 1021,542 1028,545 1030,537 1037,542 1040,535 1044,542 1050,535 1051,538 1056,527 1061,517 1066,508 1071,500 1065,502 1068,494 1061,497 1064,488 1055,488 1061,481 1054,478 1061,474 1054,468 1064,466 1058,457 1067,458 1065,450 1074,453 1075,443 1081,450 1085,441 1088,450 1095,441 1098,450 1104,444 1104,454 1112,450 1109,458 1116,457 1112,466 1122,466 1115,473 1123,477 1115,481 1122,487 1112,490 1116,497 1108,495 1109,504 1101,501 1099,510 1094,502 1092,511 1086,504 1084,511 1079,502 1075,508 1074,505 1069,512 1065,521 1060,530 1055,539 1059,538 1058,546 1067,544 1065,552 1071,549 1068,558 1077,558 1071,565 1078,571 1071,575 1077,581 1068,582 1071,589 1062,589 1065,596 1055,593 1054,602 1048,596 1047,602 1041,596 1038,602 1034,595 1030,599 1025,612 1021,626 1016,640 1011,654 1015,650 1015,659 1024,656 1021,663 1030,662 1025,670 1034,671 1027,677 1035,683 1027,687 1034,693 1025,694 1028,701 1020,701 1021,708 1013,707 1013,714 1006,708 1004,717 998,708 996,716 994,726 992,737 989,747 987,758 990,767 997,761 997,770 1004,767 1003,775 1010,774 1006,781 1014,782 1007,788 1017,795 1008,798 1014,804 1006,805 1010,814 1000,812 1003,821 994,818 993,825 987,819 984,828 984,825 984,836 984,853 984,869 984,879 990,873 991,880 997,876 997,883 1004,880 1003,887 1010,886 1006,893 1014,895 1007,900 1015,906 1007,909 1014,914 1006,916 1010,923 1001,921 1003,929 994,926 994,933 990,930 993,938 995,947 996,956 998,964 1001,958 1004,964 1007,958 1010,964 1014,960 1014,967 1021,964 1018,971 1024,970 1021,974 1027,975 1023,981 1028,984 1023,987 1027,991 1021,993 1024,998 1017,998 1018,1002 1013,1001 1013,1002 1016,1011 1019,1019 1022,1027 1025,1035 1028,1037 1031,1031 1034,1037 1038,1031 1040,1038 1044,1034 1044,1038 1048,1038 1047,1042 1052,1041 1050,1046 1055,1048 1051,1052 1055,1055 1051,1056 1054,1062 1050,1062 1051,1066 1045,1066 1047,1071 1051,1077 1056,1086 1062,1094 1067,1099"/>
</g>
</svg>
