<?xml version="1.0" encoding="UTF-8" standalone="no"?>
<!DOCTYPE svg PUBLIC "-//W3C//DTD SVG 1.0//EN" "http://www.w3.org/TR/2001/REC-SVG-20010904/DTD/svg10.dtd">
<svg xmlns="http://www.w3.org/2000/svg" xmlns:xlink="http://www.w3.org/1999/xlink" fill-rule="evenodd" height="1.981in" preserveAspectRatio="none" stroke-linecap="round" viewBox="0 0 1544 1981" width="1.544in">
<style type="text/css">
.brush0 { fill: rgb(255,255,255); }
.pen0 { stroke: rgb(0,0,0); stroke-width: 1; stroke-linejoin: round; }
.brush1 { fill: none; }
.pen1 { stroke: none; }
.brush2 { fill: rgb(0,0,0); }
</style>
<g>
<polygon class="pen1 brush2" points="365,103 363,93 360,82 356,70 351,58 345,47 337,38 328,30 317,25 310,23 302,21 295,19 287,17 280,16 273,15 267,14 260,15 254,17 249,19 244,23 239,29 234,35 230,44 227,53 223,65 221,82 224,98 229,111 237,123 247,132 258,140 271,146 283,149 291,149 299,149 308,147 317,144 325,141 333,138 341,134 348,130 350,131 353,132 355,133 357,133 350,138 341,144 333,152 325,161 319,173 315,187 315,203 320,221 324,229 331,236 339,242 349,246 360,248 370,248 380,245 388,238 399,222 404,209 405,198 405,187 407,180 412,172 419,166 429,160 434,162 438,164 443,166 447,168 451,170 454,172 458,174 462,176 453,179 442,184 432,191 422,200 414,211 407,225 404,241 404,261 406,271 412,281 420,291 430,298 442,304 454,306 465,305 476,299 486,292 493,285 498,278 502,272 504,266 506,260 508,254 510,248 512,243 515,239 519,235 524,232 530,229 536,227 543,225 550,224 556,227 561,230 566,234 571,237 576,241 581,245 586,250 591,254 580,253 566,253 551,256 536,260 522,268 508,280 497,297 489,319 488,331 490,343 495,356 502,368 512,378 524,385 536,388 550,387 562,383 572,378 580,373 586,368 591,362 595,357 599,351 604,346 609,341 615,338 622,336 630,335 639,334 648,335 658,337 669,339 672,346 676,353 681,359 685,366 678,364 666,361 650,358 632,358 613,361 594,369 576,384 560,407 557,418 557,431 559,445 565,458 573,470 583,480 594,486 608,487 622,485 632,483 641,479 649,475 655,471 660,466 665,461 671,457 676,454 682,452 688,450 696,450 703,451 712,453 720,457 729,461 731,466 733,471 735,476 736,481 726,477 713,473 699,471 683,471 667,474 651,481 636,493 621,511 616,521 614,534 615,547 618,561 624,573 632,584 643,592 656,595 670,595 681,594 690,592 698,588 704,585 711,581 717,577 723,573 728,571 733,570 738,569 743,570 749,571 755,573 762,576 769,579 770,585 772,591 774,597 776,603 764,598 750,594 735,592 719,592 703,595 686,602 669,613 652,630 646,641 643,655 642,671 645,686 650,701 659,713 670,722 685,727 700,729 712,728 723,726 732,723 739,720 746,716 753,712 760,708 765,706 770,706 776,705 782,706 788,708 794,710 801,713 807,717 809,722 811,727 812,733 814,738 802,733 789,729 775,727 760,727 745,730 729,736 712,746 696,761 689,771 685,785 684,799 685,815 689,830 697,843 708,853 722,859 736,862 748,862 758,862 767,860 775,857 782,853 789,850 797,846 802,845 808,845 814,846 820,847 827,850 833,853 840,857 847,862 848,867 850,872 851,878 852,883 842,876 829,870 815,865 800,862 783,862 765,865 746,873 727,887 719,897 713,909 710,924 709,940 712,955 718,969 727,980 740,988 754,992 766,994 777,994 786,993 794,991 802,988 809,986 817,984 825,983 835,985 844,989 854,995 863,1002 872,1010 879,1018 885,1027 885,1028 885,1030 885,1032 885,1034 882,1031 873,1023 859,1012 841,1002 820,996 795,994 768,1001 740,1019 732,1029 726,1041 723,1056 723,1072 725,1087 731,1101 741,1112 754,1120 768,1125 780,1127 790,1127 800,1126 808,1124 816,1121 823,1119 831,1116 839,1115 846,1116 854,1119 862,1123 870,1128 878,1135 886,1143 894,1153 894,1157 894,1161 893,1166 892,1170 884,1161 874,1152 860,1143 845,1135 827,1130 807,1130 784,1135 760,1146 751,1154 743,1165 737,1179 735,1194 735,1210 738,1224 745,1238 757,1248 771,1254 782,1258 792,1260 802,1260 810,1259 818,1258 826,1256 834,1255 840,1256 847,1257 853,1260 859,1264 864,1268 870,1274 876,1281 881,1288 864,1365 843,1435 820,1497 797,1549 775,1592 757,1624 745,1643 740,1650 827,1612 846,1576 863,1538 878,1497 892,1454 903,1407 913,1359 920,1308 925,1254 930,1249 936,1246 941,1243 947,1240 953,1239 958,1238 964,1239 969,1240 977,1242 984,1244 991,1247 999,1249 1008,1250 1018,1250 1030,1248 1044,1244 1057,1237 1067,1226 1073,1212 1076,1196 1076,1181 1073,1166 1068,1153 1060,1143 1039,1128 1019,1120 1000,1117 982,1117 966,1121 951,1127 939,1135 929,1142 929,1138 929,1133 929,1129 928,1125 933,1118 939,1112 944,1108 949,1104 955,1101 960,1099 966,1098 972,1098 980,1099 987,1100 995,1101 1004,1102 1013,1101 1023,1099 1035,1095 1048,1089 1060,1079 1068,1067 1072,1052 1072,1037 1069,1021 1064,1008 1056,996 1046,988 1024,978 1004,973 986,972 969,975 953,980 940,988 929,996 919,1005 919,1000 919,994 919,989 918,984 922,978 927,973 932,969 937,965 942,962 947,961 953,960 959,960 967,961 974,962 982,963 990,963 999,962 1009,960 1021,955 1034,948 1046,938 1053,925 1056,910 1056,895 1053,880 1047,866 1039,854 1029,846 1006,836 985,832 966,833 948,838 933,845 920,853 908,863 899,872 899,870 899,867 898,864 898,860 902,853 907,846 912,840 918,835 923,831 929,828 934,827 940,826 948,826 957,827 965,828 973,828 982,827 992,824 1003,819 1016,812 1027,801 1033,787 1035,772 1034,756 1030,742 1023,728 1014,717 1004,710 978,701 955,699 935,702 917,709 902,719 889,729 879,740 872,750 871,745 870,741 869,736 868,731 872,722 877,713 882,706 888,699 894,694 900,690 906,688 912,687 920,686 928,686 937,686 945,685 954,683 963,679 974,673 986,664 996,652 1001,639 1003,624 1000,608 994,594 987,581 977,571 966,565 937,558 913,558 891,564 874,574 859,587 848,599 840,611 835,620 834,617 833,614 832,610 831,606 834,596 837,587 841,578 845,571 850,565 855,559 861,556 868,553 876,552 883,550 891,549 899,547 907,544 916,539 926,531 936,521 944,508 948,494 947,479 942,463 934,450 925,438 914,429 902,424 877,421 856,424 837,430 822,439 810,451 800,463 792,475 787,487 785,483 784,480 782,477 780,474 782,466 785,458 788,452 792,446 796,440 800,436 805,433 810,430 818,428 826,426 834,424 842,422 850,418 859,412 868,404 877,393 884,379 886,365 883,350 877,336 868,323 858,312 846,305 834,301 810,300 790,303 773,310 759,319 747,330 738,342 731,354 726,366 724,363 722,359 719,356 717,353 720,338 726,326 733,316 742,309 749,306 757,304 764,301 772,298 780,293 787,286 796,277 804,265 810,251 810,236 806,221 798,207 788,196 776,186 764,180 752,177 727,179 706,186 689,196 676,208 666,221 659,235 654,249 651,261 649,259 647,256 644,254 642,252 642,235 645,221 650,210 659,201 665,197 671,194 678,191 684,187 690,182 697,175 703,166 709,154 713,141 711,128 706,115 698,104 688,94 676,87 664,83 652,82 625,89 605,100 590,115 580,132 575,149 572,164 571,176 571,184 562,167 556,151 555,137 560,125 568,114 576,104 582,89 585,68 583,55 578,45 569,36 559,30 547,25 535,24 523,25 513,28 496,40 483,54 476,68 472,82 470,96 471,109 473,121 476,130 471,128 466,126 461,125 456,123 450,113 446,103 444,93 446,83 451,73 456,63 459,49 458,29 455,22 452,16 447,11 441,7 435,4 429,2 422,1 415,0 411,0 407,0 403,1 399,2 395,3 391,4 388,6 385,8 373,22 365,35 360,49 359,62 361,75 364,86 368,95 372,103 370,103 369,103 367,103 365,103"/>
<polygon class="pen1 brush0" points="953,933 950,930 949,925 950,918 953,912 958,905 965,900 972,895 980,893 990,892 1000,893 1009,895 1016,898 1022,902 1025,908 1025,914 1021,920 1018,923 1015,924 1011,923 1007,922 1002,921 998,919 992,919 986,919 980,920 976,923 972,926 968,929 965,932 962,934 958,934 953,933"/>
<polygon class="pen1 brush0" points="926,801 923,797 923,792 924,786 927,780 932,774 939,768 946,764 955,761 964,760 974,761 983,763 990,765 996,770 999,775 998,781 994,788 991,791 988,792 984,791 980,790 975,788 971,786 965,785 959,785 953,787 949,790 945,793 942,797 939,800 936,802 931,803 926,801"/>
<polygon class="pen1 brush0" points="966,1079 963,1075 962,1070 964,1064 967,1057 972,1051 978,1045 985,1041 994,1038 1004,1038 1013,1038 1022,1040 1030,1043 1035,1048 1038,1053 1038,1059 1034,1066 1031,1068 1028,1069 1025,1068 1021,1067 1016,1065 1012,1064 1006,1063 1000,1063 994,1065 990,1068 986,1071 983,1075 979,1078 976,1080 971,1080 966,1079"/>
<polygon class="pen1 brush0" points="970,1218 967,1214 967,1209 970,1204 974,1198 980,1193 987,1188 995,1185 1004,1184 1014,1185 1023,1187 1032,1191 1039,1195 1044,1201 1046,1206 1045,1212 1040,1218 1036,1220 1033,1221 1029,1220 1026,1218 1022,1216 1017,1213 1012,1212 1006,1211 1000,1211 995,1213 991,1215 987,1218 983,1220 979,1221 975,1221 970,1218"/>
<polygon class="pen1 brush0" points="895,667 892,663 891,658 892,652 894,645 898,638 904,632 911,627 919,623 928,621 938,621 947,622 955,625 961,629 965,634 965,640 962,647 960,650 957,652 953,652 949,651 945,649 940,648 934,648 928,649 922,651 918,654 915,658 912,662 908,665 905,667 901,668 895,667"/>
<polygon class="pen1 brush0" points="847,531 843,528 841,523 841,517 843,510 846,502 851,495 858,489 865,485 874,483 883,482 893,482 901,484 907,487 912,491 913,497 911,505 908,508 905,509 901,509 897,509 892,508 887,508 881,508 875,509 866,516 861,524 855,530 847,531"/>
<polygon class="pen1 brush0" points="784,413 778,405 780,392 787,377 800,366 809,363 819,361 828,361 837,362 844,364 848,369 850,375 848,383 845,386 842,387 838,387 834,387 829,387 824,387 819,388 813,390 804,397 799,405 793,412 784,413"/>
<polygon class="pen1 brush0" points="716,295 709,289 708,276 714,261 727,248 735,243 744,240 753,239 761,239 768,241 773,244 775,250 774,258 772,262 769,264 766,265 762,265 757,265 752,265 746,266 740,268 733,277 729,286 725,293 716,295"/>
<polygon class="pen1 brush0" points="631,194 624,188 622,175 626,159 637,144 645,139 654,136 662,133 671,132 678,133 683,137 686,142 685,150 683,154 681,156 678,157 674,158 669,158 664,159 659,161 654,164 646,174 643,183 640,191 631,194"/>
<polygon class="pen1 brush0" points="527,130 519,128 514,117 512,103 517,88 522,81 527,75 534,70 541,66 547,65 553,65 557,69 560,76 558,83 552,87 544,92 537,99 534,109 534,118 533,125 527,130"/>
<polygon class="pen1 brush0" points="432,99 425,102 416,97 408,86 405,72 407,57 414,45 422,39 432,45 434,50 431,56 427,63 425,72 427,81 432,87 434,93 432,99"/>
<polygon class="pen1 brush0" points="852,1224 855,1220 855,1214 853,1208 849,1202 842,1197 835,1193 827,1190 818,1190 809,1191 800,1193 791,1196 784,1201 779,1206 777,1212 778,1218 783,1224 787,1226 791,1226 794,1224 798,1222 802,1220 806,1217 811,1216 817,1215 823,1216 828,1217 833,1220 837,1223 840,1225 844,1227 848,1226 852,1224"/>
<polygon class="pen1 brush0" points="854,1099 858,1095 859,1090 857,1084 854,1078 850,1072 843,1066 836,1062 827,1059 818,1058 808,1059 799,1061 792,1064 786,1069 782,1074 782,1081 786,1088 789,1090 792,1090 796,1090 800,1088 805,1087 809,1085 815,1085 821,1085 827,1087 831,1090 835,1093 839,1096 842,1099 845,1101 849,1101 854,1099"/>
<polygon class="pen1 brush0" points="838,960 842,956 842,951 841,945 838,938 833,932 826,927 819,922 810,920 801,919 792,920 783,922 775,924 769,929 766,934 766,940 770,947 773,950 777,951 780,950 784,949 789,947 794,945 799,944 806,944 812,946 816,949 820,952 823,956 826,959 829,961 833,961 838,960"/>
<polygon class="pen1 brush0" points="817,825 819,821 819,816 817,810 813,805 806,799 799,795 790,792 781,791 772,792 763,794 755,798 748,802 744,807 741,813 742,819 747,825 750,827 754,827 757,825 761,823 764,821 769,818 774,817 780,816 786,817 792,819 796,822 800,825 804,827 808,828 812,828 817,825"/>
<polygon class="pen1 brush0" points="777,684 779,680 779,675 776,670 771,664 765,659 757,655 749,652 740,652 731,653 722,656 714,660 708,665 703,670 702,676 703,682 709,687 713,689 716,689 719,688 723,686 726,683 730,681 735,679 740,677 747,678 752,680 757,682 761,685 765,687 768,688 772,687 777,684"/>
<polygon class="pen1 brush0" points="740,549 742,545 741,540 738,535 732,530 725,526 717,524 709,523 700,524 691,527 683,531 675,536 670,542 666,548 666,554 668,560 675,565 679,566 682,566 685,564 688,561 691,557 695,554 700,551 706,549 712,548 717,549 722,551 726,552 730,554 734,554 737,553 740,549"/>
<polygon class="pen1 brush0" points="682,430 684,426 683,421 680,416 675,411 668,407 660,404 651,403 642,403 633,406 624,410 617,415 611,421 607,427 606,433 609,439 615,444 619,445 622,445 625,443 628,440 631,437 635,433 640,430 646,428 652,428 658,429 663,431 667,433 671,435 675,435 678,434 682,430"/>
<polygon class="pen1 brush0" points="615,315 615,310 612,306 607,302 600,299 592,297 584,297 575,298 567,302 560,308 553,314 548,322 544,329 542,336 543,342 547,346 554,349 561,348 566,341 571,333 580,325 585,322 590,321 595,321 600,321 605,322 609,321 612,319 615,315"/>
<polygon class="pen1 brush0" points="512,221 511,217 508,213 503,211 497,209 490,209 483,210 476,213 469,217 458,230 452,244 454,256 465,261 471,258 474,252 477,243 483,235 492,231 501,229 508,228 512,221"/>
<polygon class="pen1 brush0" points="405,160 403,157 399,155 394,155 389,156 383,159 377,162 372,167 368,173 364,187 364,201 370,210 381,210 384,205 385,199 385,192 387,183 392,176 399,171 404,167 405,160"/>
<polygon class="pen1 brush0" points="325,98 323,95 319,89 313,80 306,70 298,63 290,59 283,60 277,69 275,80 279,88 286,93 296,96 306,98 316,98 322,98 325,98"/>
<polygon class="pen1 brush2" points="1544,1969 1542,1964 1539,1956 1535,1945 1528,1932 1520,1916 1510,1899 1498,1880 1484,1860 1469,1838 1451,1816 1431,1792 1409,1768 1385,1744 1359,1720 1331,1696 1300,1672 1284,1660 1267,1649 1249,1638 1230,1626 1210,1615 1189,1604 1167,1594 1144,1583 1119,1573 1094,1563 1068,1554 1040,1545 1011,1536 982,1528 950,1520 918,1512 1544,1969 1544,1969"/>
<polygon class="pen1 brush2" points="1534,1974 1528,1974 1520,1974 1510,1975 1498,1976 1484,1977 1469,1978 1451,1977 1432,1976 1419,1974 1406,1971 1393,1968 1378,1964 1363,1960 1348,1954 1331,1948 1314,1940 1304,1935 1293,1930 1282,1924 1271,1918 1259,1911 1247,1903 1235,1896 1223,1887 1211,1878 1198,1869 1185,1859 1172,1848 1158,1837 1145,1825 1131,1813 1117,1800 1103,1787 1089,1773 1075,1758 1062,1743 1048,1727 1034,1710 1021,1693 1008,1675 994,1657 981,1638 969,1619 956,1600 944,1580 931,1559 920,1539 908,1518 1196,1726 1534,1974 1534,1974"/>
<polygon class="pen1 brush2" points="155,975 156,980 159,988 164,999 170,1012 179,1027 189,1044 201,1063 214,1083 230,1105 248,1127 268,1151 290,1175 314,1199 340,1223 368,1247 399,1271 415,1283 432,1294 450,1306 469,1317 489,1328 510,1339 532,1350 555,1360 579,1370 605,1380 631,1390 658,1399 687,1407 717,1416 748,1424 780,1431 155,975 155,975"/>
<polygon class="pen1 brush2" points="165,971 172,971 183,970 195,969 210,968 228,967 248,968 271,970 296,974 323,981 353,991 386,1004 421,1022 458,1044 498,1072 540,1105 584,1144 598,1157 611,1172 625,1187 638,1202 651,1218 665,1235 678,1252 691,1270 704,1288 717,1307 730,1326 742,1345 755,1365 767,1386 778,1406 790,1427 504,1218 165,971 165,971"/>
<polygon class="pen1 brush2" points="0,1613 4,1609 10,1603 19,1595 31,1586 45,1576 62,1565 81,1553 102,1540 125,1527 151,1515 179,1502 209,1490 242,1478 276,1468 312,1458 350,1450 370,1446 390,1443 411,1441 433,1439 456,1438 479,1437 504,1437 529,1438 555,1439 582,1441 610,1444 639,1448 669,1452 699,1458 731,1464 763,1471 0,1613 0,1613"/>
<polygon class="pen1 brush2" points="7,1622 14,1625 23,1629 34,1636 47,1643 63,1651 81,1659 102,1667 127,1673 154,1679 186,1683 221,1685 260,1684 303,1680 351,1672 403,1660 460,1644 478,1638 497,1631 516,1624 535,1616 554,1607 573,1598 593,1589 612,1578 632,1568 652,1557 671,1545 691,1533 711,1520 730,1507 750,1494 769,1480 422,1544 7,1622"/>
</g>
</svg>
