<?xml version="1.0" encoding="UTF-8" standalone="no"?>
<!DOCTYPE svg PUBLIC "-//W3C//DTD SVG 1.0//EN" "http://www.w3.org/TR/2001/REC-SVG-20010904/DTD/svg10.dtd">
<svg xmlns="http://www.w3.org/2000/svg" xmlns:xlink="http://www.w3.org/1999/xlink" fill-rule="evenodd" height="1.98in" preserveAspectRatio="none" stroke-linecap="round" viewBox="0 0 1956 1980" width="1.956in">
<style type="text/css">
.brush0 { fill: rgb(255,255,255); }
.pen0 { stroke: rgb(0,0,0); stroke-width: 1; stroke-linejoin: round; }
.brush1 { fill: none; }
.pen1 { stroke: none; }
.brush2 { fill: rgb(0,0,0); }
</style>
<g>
<polygon class="pen1 brush2" points="1267,1218 1264,1262 1262,1308 1262,1357 1265,1405 1271,1453 1280,1498 1293,1539 1311,1575 1311,1565 1311,1543 1315,1519 1325,1505 1326,1508 1329,1515 1334,1526 1340,1541 1348,1559 1357,1580 1368,1603 1380,1627 1393,1652 1408,1677 1423,1703 1439,1727 1456,1751 1473,1772 1491,1792 1510,1808 1508,1805 1504,1797 1498,1786 1491,1772 1487,1758 1484,1745 1486,1734 1493,1727 1494,1729 1497,1733 1503,1740 1510,1749 1520,1761 1531,1773 1544,1787 1559,1801 1575,1816 1592,1831 1611,1846 1631,1860 1653,1873 1675,1885 1699,1895 1723,1903 1721,1901 1717,1896 1711,1888 1705,1878 1698,1867 1692,1855 1688,1844 1687,1833 1689,1835 1695,1839 1705,1847 1718,1856 1733,1867 1751,1879 1769,1892 1789,1906 1809,1919 1830,1932 1849,1944 1868,1955 1885,1964 1900,1970 1913,1974 1922,1975 1930,1972 1933,1948 1930,1909 1923,1860 1913,1808 1902,1757 1893,1714 1886,1684 1883,1673 1894,1678 1905,1687 1918,1699 1929,1711 1940,1723 1948,1734 1954,1741 1956,1744 1951,1692 1937,1641 1918,1593 1896,1549 1873,1511 1854,1482 1840,1464 1835,1457 1844,1452 1856,1454 1870,1461 1885,1470 1899,1481 1911,1491 1919,1498 1922,1501 1911,1479 1897,1456 1880,1433 1861,1411 1840,1388 1819,1366 1797,1345 1775,1325 1753,1306 1733,1289 1715,1274 1698,1261 1684,1251 1674,1243 1667,1238 1665,1236 1671,1231 1681,1230 1694,1230 1707,1231 1719,1233 1730,1235 1737,1237 1740,1238 1729,1227 1718,1217 1705,1208 1692,1198 1677,1190 1662,1181 1646,1173 1630,1166 1613,1159 1596,1152 1578,1146 1560,1140 1542,1134 1524,1129 1505,1124 1487,1119 1475,1126 1462,1133 1449,1140 1435,1147 1420,1154 1405,1161 1391,1168 1376,1174 1404,1206 1431,1240 1459,1274 1486,1310 1513,1346 1539,1382 1566,1419 1591,1456 1617,1492 1641,1529 1665,1564 1688,1599 1711,1634 1732,1667 1753,1699 1773,1729 1771,1731 1769,1734 1766,1735 1764,1734 1742,1702 1719,1668 1696,1634 1672,1600 1648,1565 1623,1529 1598,1493 1573,1457 1548,1421 1522,1386 1496,1350 1470,1315 1444,1280 1417,1246 1391,1213 1364,1180 1347,1188 1330,1195 1315,1202 1301,1208 1288,1212 1279,1216 1271,1218 1267,1218"/>
<polygon class="pen1 brush2" points="935,778 944,762 954,743 966,721 980,699 996,675 1013,650 1033,626 1054,603 1078,581 1104,561 1131,544 1162,530 1194,520 1229,514 1266,513 1305,518 1305,520 1304,527 1305,535 1308,544 1314,552 1324,556 1340,557 1362,551 1375,547 1390,543 1406,540 1422,537 1440,534 1458,532 1476,530 1495,529 1513,529 1531,529 1549,530 1565,532 1581,535 1596,540 1610,545 1622,551 1620,552 1615,556 1609,560 1604,566 1602,572 1606,576 1618,580 1639,581 1643,583 1653,590 1667,600 1683,615 1700,634 1715,657 1725,683 1730,713 1726,715 1718,721 1707,730 1696,740 1688,751 1687,760 1694,767 1713,771 1712,781 1707,807 1698,844 1684,887 1664,932 1636,972 1600,1003 1554,1020 1551,1020 1545,1022 1536,1024 1527,1027 1519,1032 1514,1038 1514,1046 1520,1055 1510,1064 1497,1073 1481,1083 1462,1094 1442,1105 1421,1116 1399,1127 1377,1137 1356,1147 1335,1156 1315,1164 1298,1172 1283,1178 1271,1182 1262,1185 1257,1186 1269,1122 1267,1072 1253,1033 1233,1004 1210,984 1190,970 1176,962 1173,957 1171,946 1172,938 1175,934 1180,931 1186,930 1191,929 1195,930 1196,930 1180,911 1164,894 1147,878 1130,864 1113,851 1095,840 1078,829 1061,820 1044,812 1027,804 1011,798 994,793 979,788 963,784 949,781 935,778 935,778"/>
<polygon class="pen1 brush2" points="561,947 574,945 584,946 589,951 591,958 589,966 584,976 574,987 561,997 522,1036 502,1078 496,1122 500,1164 510,1202 523,1232 534,1253 538,1260 548,1251 558,1250 567,1254 574,1263 581,1276 587,1292 591,1310 595,1328 599,1338 607,1349 619,1360 635,1372 653,1384 672,1395 694,1406 716,1416 738,1425 760,1432 781,1437 800,1441 818,1442 833,1441 844,1437 852,1430 862,1416 872,1405 883,1399 893,1396 903,1398 914,1404 925,1413 936,1426 944,1433 956,1438 971,1441 989,1443 1008,1443 1029,1441 1051,1437 1072,1431 1093,1424 1113,1414 1131,1403 1147,1390 1160,1374 1170,1357 1175,1337 1176,1316 1174,1279 1177,1255 1184,1242 1193,1237 1203,1238 1211,1242 1218,1246 1220,1248 1237,1208 1248,1171 1254,1139 1255,1110 1253,1085 1248,1063 1240,1044 1231,1027 1220,1012 1208,999 1196,988 1185,979 1175,971 1166,963 1160,956 1156,950 1153,939 1154,932 1157,927 1161,924 1166,923 1171,923 1175,924 1176,924 1113,870 1052,831 993,804 936,789 882,784 832,787 784,797 741,812 701,832 666,853 635,876 609,897 589,917 573,933 564,943 561,947 561,947"/>
<polygon class="pen1 brush2" points="795,781 762,790 731,801 703,814 678,828 654,842 633,857 614,872 598,887 583,901 571,915 561,927 552,938 546,947 542,954 539,958 538,960 555,958 566,958 571,961 573,966 570,972 564,980 555,988 544,997 518,1017 500,1038 489,1061 484,1084 482,1108 483,1132 485,1155 487,1177 459,1178 432,1177 405,1172 379,1165 354,1156 331,1145 308,1133 288,1121 269,1108 252,1096 237,1084 224,1074 214,1065 206,1058 202,1054 200,1052 206,1042 206,1034 201,1028 193,1023 184,1019 175,1017 169,1015 166,1015 121,997 86,965 59,925 40,880 28,836 20,799 17,773 16,763 34,760 41,753 40,743 33,732 22,721 12,712 3,705 0,703 6,673 17,648 32,626 49,607 66,593 80,583 90,577 94,575 115,574 126,570 130,566 129,560 124,554 119,550 114,546 112,545 124,538 138,533 153,528 169,525 185,523 203,523 221,523 239,523 258,525 276,527 294,530 312,534 328,538 344,542 359,547 372,552 393,558 407,557 416,550 420,540 420,529 419,519 418,511 417,508 458,504 496,506 532,513 566,524 597,540 625,559 652,580 676,603 698,628 718,653 736,678 752,703 765,726 777,747 787,766 795,781 795,781"/>
<polygon class="pen1 brush2" points="321,524 327,525 332,526 338,527 343,529 348,530 352,531 357,533 362,534 383,539 396,538 403,533 406,525 405,516 403,507 400,501 399,498 440,491 478,490 514,493 548,501 580,512 610,527 639,545 665,566 689,590 711,614 732,641 751,668 768,696 784,724 798,751 811,778 817,777 823,775 828,774 833,773 838,772 843,771 847,770 852,770 850,747 847,722 846,696 846,669 847,641 850,614 855,585 862,557 872,530 884,502 900,476 919,450 942,426 969,403 1001,381 1037,362 1037,365 1036,369 1035,374 1035,376 1030,379 1021,384 1009,390 995,399 980,410 963,424 946,440 929,460 912,484 897,511 884,542 874,577 866,617 863,662 863,712 869,768 874,768 879,768 884,769 889,770 895,771 902,772 910,773 919,775 935,747 951,719 968,690 986,663 1005,636 1025,611 1047,587 1070,565 1095,545 1121,528 1150,515 1180,504 1213,498 1247,495 1284,497 1324,504 1323,506 1320,513 1318,521 1318,530 1320,538 1327,544 1341,545 1362,540 1371,537 1382,534 1393,531 1405,528 1417,526 1430,524 1443,522 1457,521 1469,483 1480,442 1489,401 1495,359 1498,319 1496,281 1489,247 1476,218 1472,220 1460,226 1445,231 1429,233 1415,230 1406,219 1406,196 1416,160 1415,159 1412,155 1407,150 1401,143 1392,134 1382,125 1371,115 1358,104 1344,94 1328,84 1311,75 1294,66 1275,59 1255,54 1234,50 1213,49 1209,53 1198,61 1183,71 1166,80 1151,83 1139,77 1133,60 1136,27 1135,27 1131,26 1124,26 1116,26 1105,26 1093,27 1078,29 1062,33 1044,39 1025,46 1005,56 984,68 962,84 939,102 916,124 892,149 880,138 868,127 856,115 844,103 832,91 819,80 806,68 793,58 778,48 763,39 746,32 729,27 709,24 689,22 666,23 642,27 645,60 640,77 628,83 612,80 595,71 580,61 569,53 565,49 544,50 523,54 503,59 484,66 467,75 450,84 434,94 420,104 407,115 396,125 386,134 377,143 371,150 366,155 363,159 362,160 373,196 372,219 364,230 350,233 334,231 320,226 308,220 304,218 290,247 283,282 281,320 284,360 290,403 299,445 309,486 321,524"/>
<polygon class="pen1 brush0" points="952,388 959,386 964,382 968,376 969,369 968,362 964,356 959,352 952,351 945,352 939,356 935,362 933,369 935,376 939,382 945,386 952,388"/>
<polygon class="pen1 brush0" points="898,426 905,425 911,421 915,416 916,409 915,402 911,395 905,391 898,389 891,391 885,395 881,402 879,409 881,416 885,421 891,425 898,426"/>
<polygon class="pen1 brush0" points="856,486 863,484 869,480 873,474 875,467 873,460 869,454 863,450 856,449 849,450 843,454 839,460 838,467 839,474 843,480 849,484 856,486"/>
<polygon class="pen1 brush0" points="828,555 835,554 841,550 845,544 846,537 845,530 841,524 835,520 828,518 821,520 815,524 811,530 810,537 811,544 815,550 821,554 828,555"/>
<polygon class="pen1 brush0" points="815,635 822,633 829,629 833,623 835,616 833,609 829,603 822,599 815,598 808,599 803,603 799,609 798,616 799,623 803,629 808,633 815,635"/>
<polygon class="pen1 brush0" points="812,711 819,710 825,706 829,700 831,693 829,686 825,680 819,676 812,674 805,676 799,680 795,686 794,693 795,700 799,706 805,710 812,711"/>
<polygon class="pen1 brush0" points="892,727 899,726 905,722 909,717 910,710 909,703 905,696 899,692 892,690 885,692 879,696 875,703 873,710 875,717 879,722 885,726 892,727"/>
<polygon class="pen1 brush0" points="898,655 905,653 911,649 915,643 916,636 915,629 911,623 905,619 898,618 891,619 885,623 881,629 879,636 881,643 885,649 891,653 898,655"/>
<polygon class="pen1 brush0" points="906,588 913,586 918,582 922,576 923,568 922,561 918,556 913,552 906,551 899,552 892,556 888,561 886,568 888,576 892,582 899,586 906,588"/>
<polygon class="pen1 brush0" points="933,527 940,525 946,521 950,515 952,507 950,500 946,495 940,491 933,490 926,491 920,495 916,500 915,507 916,515 920,521 926,525 933,527"/>
<polygon class="pen1 brush0" points="977,474 984,473 990,469 994,463 996,456 994,448 990,441 984,437 977,436 970,437 965,441 961,448 960,456 961,463 965,469 970,473 977,474"/>
<polygon class="pen1 brush0" points="1027,446 1034,444 1040,440 1044,434 1045,426 1044,419 1040,414 1034,410 1027,409 1020,410 1014,414 1010,419 1008,426 1010,434 1014,440 1020,444 1027,446"/>
<polygon class="pen1 brush0" points="1001,362 1008,360 1015,356 1019,350 1021,342 1019,335 1015,330 1008,326 1001,325 994,326 988,330 984,335 983,342 984,350 988,356 994,360 1001,362"/>
</g>
</svg>
