<?xml version="1.0" encoding="UTF-8" standalone="no"?>
<!DOCTYPE svg PUBLIC "-//W3C//DTD SVG 1.0//EN" "http://www.w3.org/TR/2001/REC-SVG-20010904/DTD/svg10.dtd">
<svg xmlns="http://www.w3.org/2000/svg" xmlns:xlink="http://www.w3.org/1999/xlink" fill-rule="evenodd" height="1.674in" preserveAspectRatio="none" stroke-linecap="round" viewBox="0 0 1984 1674" width="1.984in">
<style type="text/css">
.brush0 { fill: rgb(255,255,255); }
.pen0 { stroke: rgb(0,0,0); stroke-width: 1; stroke-linejoin: round; }
.brush1 { fill: none; }
.pen1 { stroke: none; }
.brush2 { fill: rgb(0,0,0); }
</style>
<g>
<polygon class="pen1 brush2" points="1038,1398 1048,1370 1060,1340 1072,1310 1085,1279 1099,1248 1115,1217 1131,1185 1148,1153 1167,1121 1187,1089 1208,1057 1230,1026 1254,995 1279,965 1305,936 1333,908 1361,880 1392,854 1424,829 1457,805 1492,783 1528,763 1566,744 1606,727 1647,712 1690,700 1735,689 1781,681 1829,676 1879,673 1930,673 1984,676 1982,676 1975,677 1965,679 1950,682 1932,685 1911,690 1887,696 1860,704 1831,713 1799,724 1766,737 1731,751 1695,768 1657,787 1619,809 1580,833 1540,859 1501,889 1462,921 1423,957 1385,995 1348,1037 1312,1083 1278,1132 1245,1184 1215,1241 1187,1302 1162,1366 1139,1435 1119,1509 1103,1586 1091,1669 1089,1668 1084,1664 1076,1660 1065,1654 1051,1649 1034,1644 1015,1640 993,1638 970,1640 950,1644 933,1650 919,1657 908,1663 900,1669 895,1673 893,1674 881,1592 865,1514 845,1440 822,1372 797,1307 769,1246 739,1190 706,1137 672,1088 636,1043 599,1001 561,962 522,927 483,895 444,865 405,839 365,815 327,793 289,774 253,757 218,743 185,730 153,719 124,710 97,702 73,696 52,691 34,688 19,685 9,683 2,682 0,682 52,679 102,679 150,681 197,686 242,693 285,703 327,714 368,728 406,744 444,761 479,780 514,801 546,823 578,846 608,871 637,897 664,924 690,951 715,980 739,1009 761,1039 782,1069 803,1100 822,1130 839,1161 856,1192 872,1223 887,1253 900,1284 913,1313 925,1342 936,1371 935,1314 936,1253 940,1189 947,1124 958,1056 974,988 995,920 1021,851 1017,832 1009,806 1002,774 995,740 990,708 990,679 997,658 1011,648 1025,650 1036,659 1043,674 1048,694 1050,717 1051,742 1051,767 1051,791 1060,775 1069,758 1079,742 1090,726 1100,710 1112,694 1123,678 1136,662 1148,647 1161,631 1175,616 1189,601 1204,587 1219,572 1235,558 1251,544 1252,528 1253,505 1254,477 1257,449 1261,422 1268,400 1278,385 1291,381 1302,386 1308,398 1309,414 1306,434 1301,456 1295,479 1288,501 1281,520 1295,509 1309,499 1324,489 1339,479 1354,469 1370,460 1386,450 1402,441 1418,432 1435,423 1453,415 1470,407 1488,398 1507,390 1526,383 1545,375 1547,363 1550,346 1554,328 1559,309 1565,291 1573,277 1582,268 1592,267 1600,272 1603,280 1603,292 1600,305 1595,320 1588,336 1581,351 1574,365 1585,361 1595,358 1606,354 1617,351 1628,347 1640,344 1651,341 1663,337 1675,334 1687,331 1699,328 1711,325 1723,323 1736,320 1748,317 1761,315 1766,306 1773,293 1781,278 1790,263 1800,249 1810,239 1820,234 1829,236 1834,242 1834,251 1829,260 1822,271 1813,282 1804,292 1794,302 1785,311 1795,309 1805,307 1816,305 1826,303 1837,302 1847,300 1858,299 1868,297 1879,296 1890,294 1901,293 1912,292 1923,291 1934,289 1945,288 1956,287 1953,288 1944,289 1931,292 1912,296 1889,302 1861,309 1831,318 1796,329 1759,342 1720,356 1678,373 1635,392 1591,413 1545,437 1500,463 1454,492 1408,523 1364,558 1320,595 1278,636 1238,679 1200,726 1165,776 1133,830 1105,887 1080,948 1060,1013 1044,1082 1034,1155 1029,1231 1031,1313 1038,1398 1038,1398"/>
<polygon class="pen1 brush2" points="1532,330 1529,329 1520,326 1509,323 1495,320 1482,319 1470,322 1463,328 1460,340 1463,352 1469,360 1477,365 1488,367 1499,366 1510,365 1520,363 1528,361 1532,330 1532,330"/>
<polygon class="pen1 brush2" points="1770,266 1768,264 1762,260 1754,254 1744,248 1734,244 1724,242 1716,245 1711,253 1710,263 1713,271 1719,277 1726,282 1735,284 1743,286 1751,287 1757,287 1770,266 1770,266"/>
<polygon class="pen1 brush2" points="1230,469 1226,468 1215,466 1200,464 1182,463 1165,465 1151,470 1142,479 1140,494 1146,509 1155,519 1167,523 1181,523 1194,521 1208,517 1219,513 1227,509 1230,469 1230,469"/>
<polygon class="pen1 brush2" points="971,777 966,777 952,779 933,783 912,788 893,797 878,808 871,822 876,841 888,857 901,865 917,865 932,860 947,852 961,842 973,832 981,824 971,777 971,777"/>
<polygon class="pen1 brush2" points="1780,252 1800,232 1815,204 1824,168 1828,130 1827,91 1822,54 1814,23 1801,0 1800,1 1797,4 1793,10 1788,17 1791,104 1782,102 1781,37 1778,34 1772,25 1765,14 1758,7 1752,13 1748,20 1745,28 1743,34 1753,104 1744,104 1734,34 1726,22 1718,14 1713,10 1711,9 1696,53 1696,96 1706,137 1723,174 1742,206 1761,230 1775,246 1780,252 1780,252"/>
<polygon class="pen1 brush2" points="1351,64 1351,78 1352,93 1356,110 1362,128 1369,146 1378,166 1389,185 1401,204 1415,222 1430,240 1445,257 1463,272 1480,286 1499,297 1519,307 1539,313 1541,303 1545,277 1548,238 1548,192 1541,141 1524,92 1495,46 1451,10 1450,12 1448,20 1446,34 1446,53 1495,146 1487,151 1441,63 1438,60 1434,57 1430,54 1426,50 1421,47 1416,44 1411,42 1405,40 1397,50 1396,64 1397,77 1397,82 1441,165 1434,168 1378,74 1367,68 1359,65 1353,64 1351,64 1351,64"/>
<polygon class="pen1 brush2" points="1235,456 1238,429 1239,402 1238,374 1235,345 1230,316 1223,288 1215,260 1205,234 1194,208 1182,184 1169,161 1156,141 1141,123 1126,108 1111,96 1095,87 1094,90 1091,101 1090,118 1091,142 1156,242 1149,246 1083,151 1080,148 1076,145 1071,142 1066,139 1060,137 1054,134 1047,132 1039,131 1034,145 1033,157 1034,167 1035,175 1099,274 1092,279 1038,196 1038,196 1025,186 1013,178 1002,173 993,169 986,167 980,165 977,165 976,165 978,203 985,238 998,269 1014,299 1033,325 1055,349 1079,370 1103,389 1128,405 1151,419 1174,431 1194,440 1211,447 1224,452 1232,455 1235,456 1235,456"/>
<polygon class="pen1 brush2" points="957,753 957,731 952,707 943,679 931,650 916,619 898,587 878,555 857,524 833,493 809,464 784,438 758,414 733,394 709,378 685,367 663,361 663,367 664,383 670,408 683,442 761,531 754,537 674,443 668,441 662,439 654,436 646,434 638,432 629,431 621,432 612,435 610,454 616,476 625,496 632,510 700,588 693,594 618,507 602,502 587,500 575,498 564,498 556,498 550,499 546,500 545,500 560,544 581,583 607,616 637,645 669,669 704,690 740,707 775,720 810,731 844,739 875,745 902,749 925,751 942,752 953,753 957,753"/>
</g>
</svg>
