<?xml version="1.0" encoding="UTF-8" standalone="no"?>
<!DOCTYPE svg PUBLIC "-//W3C//DTD SVG 1.0//EN" "http://www.w3.org/TR/2001/REC-SVG-20010904/DTD/svg10.dtd">
<svg xmlns="http://www.w3.org/2000/svg" xmlns:xlink="http://www.w3.org/1999/xlink" fill-rule="evenodd" height="1.981in" preserveAspectRatio="none" stroke-linecap="round" viewBox="0 0 689 1981" width="0.689in">
<style type="text/css">
.brush0 { fill: rgb(255,255,255); }
.pen0 { stroke: rgb(0,0,0); stroke-width: 1; stroke-linejoin: round; }
.brush1 { fill: none; }
.pen1 { stroke: none; }
.brush2 { fill: rgb(0,0,0); }
</style>
<g>
<polygon class="pen1 brush2" points="400,1479 399,1540 397,1678 392,1828 386,1922 390,1919 398,1917 410,1916 424,1916 440,1916 459,1918 479,1921 501,1926 518,1929 529,1928 534,1925 536,1921 537,1917 539,1913 544,1912 554,1914 570,1919 590,1923 612,1928 634,1934 654,1940 670,1946 681,1953 683,1961 680,1964 672,1967 661,1969 648,1970 631,1971 613,1971 593,1971 572,1970 551,1970 530,1969 509,1968 490,1967 472,1966 456,1966 443,1965 433,1965 419,1964 409,1963 403,1961 398,1959 394,1957 390,1955 384,1954 375,1953 362,1954 346,1955 328,1958 308,1959 289,1960 270,1959 254,1955 240,1949 237,1845 232,1611 226,1361 224,1210 224,1208 219,1201 210,1190 199,1177 187,1161 175,1144 165,1126 157,1108 154,1110 145,1111 132,1110 116,1106 99,1098 81,1085 65,1066 52,1041 40,1000 31,940 23,867 18,789 16,712 17,644 22,591 31,561 29,557 23,552 15,546 8,540 4,536 2,532 1,529 2,526 8,523 15,525 21,526 28,520 32,511 34,501 37,494 45,493 51,496 53,501 55,505 61,510 68,511 74,509 79,508 82,514 81,523 74,532 67,542 66,551 69,551 74,553 80,559 82,572 82,594 81,639 81,699 83,767 87,836 95,898 108,945 126,972 124,948 120,884 115,793 112,689 112,586 119,497 134,434 160,412 185,431 198,479 202,547 202,628 199,714 197,798 199,871 208,925 209,928 213,935 218,944 224,955 230,966 235,976 239,982 240,983 239,895 236,762 233,602 234,432 240,270 254,134 276,40 311,7 345,62 370,204 386,405 396,636 401,871 403,1081 402,1238 402,1314 406,1313 415,1308 430,1298 447,1282 466,1257 484,1222 501,1175 514,1115 523,1036 528,941 530,836 533,732 536,636 543,557 556,503 575,483 595,504 609,561 618,644 624,741 626,843 625,939 623,1018 620,1070 616,1110 612,1147 608,1180 602,1210 596,1238 589,1264 580,1287 570,1310 557,1331 543,1351 526,1371 507,1391 485,1412 460,1433 432,1455 400,1479"/>
<polygon class="pen1 brush0" points="61,581 63,652 69,783 76,909 79,966 75,966 67,960 58,949 54,935 54,875 53,764 54,655 55,599 56,586 58,574 60,570 61,581"/>
<polygon class="pen1 brush0" points="139,467 143,523 143,672 141,835 143,937 142,944 138,936 135,919 133,899 132,832 131,706 131,581 132,514 134,497 135,484 137,473 139,467"/>
<polygon class="pen1 brush0" points="298,30 310,55 318,89 321,122 322,141 319,146 313,149 308,151 305,155 306,172 307,202 307,233 305,249 302,251 299,250 296,247 295,241 295,221 294,188 294,154 295,135 299,125 303,112 305,99 305,87 302,77 296,67 290,59 287,51 289,43 293,37 296,32 298,30"/>
<polygon class="pen1 brush0" points="294,538 293,485 292,400 291,322 291,284 292,277 295,270 299,270 302,280 307,448 311,778 313,1103 314,1257 317,1355 321,1561 325,1775 325,1899 322,1930 318,1935 314,1922 311,1899 306,1792 300,1590 295,1390 292,1293 288,1250 290,1210 288,1128 283,1046 277,1006 288,890 294,772 296,654 294,538"/>
<polygon class="pen1 brush0" points="353,1435 389,1419 422,1398 451,1372 477,1343 501,1310 521,1275 538,1236 553,1196 566,1154 576,1111 584,1067 590,1022 594,978 597,934 598,891 598,849 597,819 595,789 593,759 589,729 586,720 585,716 584,719 585,729 584,754 582,790 579,826 578,851 577,937 571,1014 561,1083 547,1142 529,1195 510,1239 489,1277 468,1309 446,1335 425,1356 405,1371 388,1383 373,1391 362,1395 355,1397 353,1396 353,1435"/>
</g>
</svg>
