<?xml version="1.0" encoding="UTF-8" standalone="no"?>
<!DOCTYPE svg PUBLIC "-//W3C//DTD SVG 1.0//EN" "http://www.w3.org/TR/2001/REC-SVG-20010904/DTD/svg10.dtd">
<svg xmlns="http://www.w3.org/2000/svg" xmlns:xlink="http://www.w3.org/1999/xlink" fill-rule="evenodd" height="1.987in" preserveAspectRatio="none" stroke-linecap="round" viewBox="0 0 1912 1987" width="1.912in">
<style type="text/css">
.brush0 { fill: rgb(255,255,255); }
.pen0 { stroke: rgb(0,0,0); stroke-width: 1; stroke-linejoin: round; }
.brush1 { fill: none; }
.pen1 { stroke: none; }
.brush2 { fill: rgb(0,0,0); }
</style>
<g>
<polygon class="pen1 brush2" points="1854,1003 1854,1018 1855,1059 1854,1117 1853,1186 1850,1258 1844,1326 1836,1382 1824,1419 1823,1361 1820,1229 1813,1086 1801,994 1800,1008 1798,1046 1795,1101 1790,1166 1785,1234 1779,1300 1773,1356 1766,1395 1767,1379 1768,1338 1769,1277 1769,1207 1768,1134 1765,1066 1758,1010 1748,976 1748,990 1747,1027 1745,1081 1742,1145 1738,1213 1732,1276 1723,1330 1713,1366 1713,1308 1714,1182 1711,1044 1699,944 1699,957 1698,990 1696,1038 1693,1095 1689,1154 1683,1209 1677,1255 1669,1284 1668,1285 1665,1284 1660,1281 1654,1275 1646,1268 1637,1260 1626,1251 1614,1241 1601,1230 1587,1220 1572,1209 1556,1198 1539,1189 1521,1180 1502,1172 1483,1165 1489,1169 1498,1174 1509,1181 1521,1189 1534,1198 1548,1208 1562,1218 1577,1230 1591,1243 1605,1256 1618,1270 1630,1285 1639,1300 1647,1316 1653,1332 1656,1348 1654,1347 1650,1345 1642,1341 1632,1336 1620,1330 1606,1323 1591,1316 1575,1309 1557,1301 1540,1295 1522,1288 1504,1283 1487,1278 1471,1275 1456,1273 1442,1273 1444,1274 1448,1276 1455,1279 1465,1283 1477,1289 1490,1296 1505,1304 1521,1314 1538,1325 1556,1337 1574,1351 1592,1366 1610,1382 1627,1400 1644,1419 1659,1439 1658,1438 1653,1435 1646,1431 1635,1426 1619,1420 1599,1414 1574,1408 1544,1402 1561,1411 1577,1423 1592,1438 1605,1455 1617,1473 1627,1492 1635,1510 1642,1528 1638,1525 1628,1519 1612,1509 1593,1498 1572,1487 1551,1477 1531,1470 1514,1466 1518,1469 1528,1476 1543,1488 1562,1503 1581,1521 1601,1541 1619,1561 1633,1582 1632,1581 1628,1579 1622,1575 1614,1570 1605,1565 1594,1559 1582,1552 1570,1545 1557,1538 1543,1532 1530,1526 1517,1520 1504,1516 1493,1513 1482,1510 1473,1510 1478,1513 1490,1521 1508,1534 1529,1549 1551,1567 1573,1586 1592,1604 1605,1621 1604,1620 1600,1618 1593,1614 1585,1610 1575,1605 1563,1598 1551,1592 1538,1585 1524,1578 1510,1571 1496,1565 1483,1559 1470,1554 1459,1549 1448,1546 1440,1544 1445,1548 1459,1558 1479,1573 1503,1591 1528,1611 1552,1630 1573,1648 1589,1662 1587,1662 1582,1660 1574,1658 1564,1656 1552,1653 1537,1649 1522,1646 1506,1642 1489,1638 1472,1634 1456,1631 1440,1628 1425,1625 1412,1623 1401,1622 1392,1621 1397,1623 1411,1629 1431,1638 1455,1648 1481,1660 1508,1673 1532,1685 1551,1696 1550,1696 1546,1695 1540,1694 1532,1693 1522,1692 1511,1691 1499,1690 1487,1688 1474,1687 1460,1686 1447,1686 1434,1685 1421,1685 1410,1685 1400,1686 1391,1687 1395,1688 1406,1691 1423,1695 1445,1702 1472,1711 1503,1723 1537,1736 1572,1753 1608,1772 1645,1793 1681,1818 1716,1845 1748,1876 1777,1910 1802,1947 1822,1987 1823,1987 1827,1986 1832,1984 1839,1982 1848,1979 1857,1975 1868,1969 1879,1963 1874,1958 1861,1941 1846,1912 1831,1869 1822,1813 1822,1740 1836,1651 1869,1545 1882,1492 1889,1424 1891,1344 1888,1261 1882,1179 1874,1105 1864,1044 1854,1003 1854,1003"/>
<polygon class="pen1 brush2" points="744,1024 752,1016 764,1009 777,1001 792,995 809,988 827,982 846,977 866,971 885,966 905,962 923,958 941,954 957,951 971,948 983,946 993,944 977,935 958,927 937,920 915,915 890,910 866,907 841,904 816,901 792,900 770,899 750,898 732,898 717,898 706,898 699,898 696,898 710,893 726,889 744,885 765,882 786,880 808,878 831,877 853,876 874,875 895,875 913,874 929,875 943,875 953,875 960,875 962,875 946,861 927,848 906,836 884,824 861,813 838,803 814,793 792,785 770,777 749,770 731,764 714,759 701,755 691,752 684,751 682,750 695,748 712,748 731,750 752,752 774,756 798,760 822,765 846,771 869,777 891,783 912,788 930,794 945,798 957,802 965,805 969,807 954,790 938,773 922,757 905,742 888,727 872,713 856,701 840,689 826,679 812,669 800,661 790,655 782,649 775,645 771,643 770,642 806,650 842,662 878,678 914,697 951,718 987,742 1024,768 1059,794 1095,822 1130,850 1164,877 1197,905 1230,931 1261,955 1292,977 1321,997 1314,983 1306,969 1297,955 1286,941 1274,928 1261,915 1247,902 1232,889 1218,877 1202,865 1187,854 1172,843 1157,833 1143,824 1129,815 1116,807 1134,810 1156,817 1178,826 1200,837 1219,847 1235,856 1246,862 1250,864 1226,843 1202,824 1179,807 1157,793 1138,781 1122,772 1113,766 1109,764 1132,767 1157,775 1183,784 1207,795 1229,806 1247,815 1259,822 1263,824 1251,813 1239,802 1226,790 1212,777 1198,764 1185,751 1171,739 1159,726 1146,715 1135,704 1125,694 1116,686 1109,679 1104,673 1100,670 1099,669 1111,672 1124,677 1137,684 1150,692 1164,701 1178,710 1191,720 1204,731 1216,741 1227,751 1237,760 1246,768 1253,774 1258,780 1262,783 1263,784 1248,764 1226,735 1200,702 1172,668 1146,635 1125,608 1110,589 1104,582 1127,595 1152,616 1178,642 1204,670 1227,698 1246,721 1258,738 1263,744 1253,717 1236,681 1215,639 1192,596 1170,555 1151,521 1138,498 1133,489 1157,510 1182,544 1208,586 1233,631 1254,674 1271,711 1283,737 1287,747 1286,704 1277,653 1263,599 1245,545 1227,496 1212,456 1200,429 1196,419 1225,452 1252,502 1275,561 1295,623 1312,683 1324,733 1331,768 1334,781 1336,729 1331,676 1320,623 1307,573 1293,529 1280,495 1271,472 1267,464 1296,501 1322,555 1343,620 1361,688 1375,754 1384,809 1390,847 1392,861 1394,787 1390,703 1385,634 1382,605 1397,638 1410,688 1420,748 1427,811 1433,871 1436,922 1438,958 1439,971 1449,901 1454,808 1456,725 1456,690 1469,721 1478,759 1483,803 1485,849 1484,898 1482,945 1480,988 1477,1027 1486,1039 1492,1051 1496,1061 1497,1065 1504,1016 1506,961 1506,907 1503,858 1519,904 1527,967 1530,1032 1531,1084 1540,1046 1544,1004 1545,959 1544,912 1540,866 1535,822 1529,782 1524,747 1531,763 1540,800 1550,850 1561,909 1570,969 1576,1023 1578,1066 1575,1091 1588,1051 1589,971 1584,879 1578,804 1589,840 1598,879 1605,922 1611,966 1616,1010 1621,1053 1625,1094 1628,1132 1635,1098 1638,1056 1637,1011 1635,963 1630,916 1625,871 1620,830 1615,797 1629,819 1641,855 1651,901 1660,952 1666,1005 1671,1055 1675,1098 1677,1129 1673,1173 1669,1212 1664,1244 1658,1264 1656,1263 1652,1258 1644,1252 1634,1244 1622,1234 1607,1223 1591,1212 1574,1200 1555,1188 1535,1177 1514,1166 1493,1156 1472,1149 1450,1143 1429,1139 1409,1138 1411,1139 1417,1141 1425,1145 1437,1151 1451,1158 1467,1166 1484,1176 1503,1187 1523,1200 1542,1215 1562,1230 1582,1247 1600,1266 1617,1285 1633,1307 1646,1329 1645,1328 1642,1327 1636,1324 1630,1321 1621,1317 1611,1313 1600,1308 1588,1302 1575,1297 1561,1291 1547,1286 1532,1280 1517,1275 1503,1271 1488,1267 1474,1263 1466,1257 1459,1252 1451,1247 1443,1243 1435,1239 1427,1235 1418,1232 1408,1230 1398,1200 1386,1173 1371,1149 1353,1129 1332,1112 1309,1099 1283,1088 1254,1081 1253,1081 1249,1080 1244,1079 1237,1078 1228,1078 1217,1078 1205,1078 1192,1080 1178,1082 1164,1086 1148,1092 1132,1100 1116,1109 1099,1121 1083,1135 1067,1152 1076,1128 1084,1109 1090,1096 1092,1091 1081,1092 1068,1096 1052,1101 1035,1108 1016,1116 997,1125 978,1134 958,1144 939,1154 922,1163 905,1172 891,1180 879,1186 870,1192 864,1195 862,1196 870,1179 881,1164 895,1149 910,1135 926,1122 943,1110 961,1099 979,1089 996,1081 1013,1073 1028,1066 1041,1061 1052,1057 1061,1053 1066,1052 1068,1051 1051,1049 1032,1051 1011,1054 988,1060 965,1068 942,1076 918,1086 896,1097 874,1107 853,1118 835,1127 819,1136 806,1144 796,1150 789,1154 787,1155 795,1140 806,1126 820,1112 836,1099 854,1086 873,1074 893,1063 913,1052 933,1043 952,1035 969,1028 985,1021 998,1017 1007,1013 1014,1011 1016,1010 1003,1006 987,1004 969,1002 949,1002 927,1003 904,1004 881,1006 858,1008 836,1011 815,1013 795,1016 778,1018 764,1021 753,1022 746,1024 744,1024 744,1024"/>
<polygon class="pen1 brush2" points="16,527 19,527 27,527 39,527 55,527 75,527 98,528 122,529 149,531 176,534 204,537 231,541 258,546 283,552 306,559 327,568 345,578 342,578 335,580 323,582 308,585 289,588 269,593 246,598 223,604 198,610 174,617 151,624 129,632 109,641 92,650 77,659 67,669 70,669 77,667 89,665 105,663 124,660 145,657 169,653 194,650 219,648 245,646 270,644 294,643 317,644 337,645 355,648 369,652 367,653 359,655 348,659 334,665 317,672 298,680 277,689 255,700 232,711 210,724 189,737 169,751 151,765 136,780 123,796 115,812 117,811 124,807 136,802 150,795 168,786 189,777 211,768 236,758 261,749 288,740 314,732 340,726 366,721 390,718 413,718 433,720 431,720 425,722 415,724 402,727 387,732 369,737 351,744 331,751 310,760 290,770 270,782 252,794 234,808 219,823 207,840 197,858 199,857 207,855 218,851 232,846 250,841 269,834 291,827 314,820 337,813 361,806 384,800 405,794 426,789 444,785 459,782 471,781 469,782 464,784 456,787 446,792 433,797 419,804 402,812 385,822 367,832 348,843 328,856 309,869 290,884 272,899 255,915 239,932 241,931 247,929 255,924 267,919 282,913 298,906 317,899 337,891 359,883 381,875 404,868 428,861 451,855 473,850 495,847 516,845 515,846 510,847 504,850 495,854 483,859 470,865 455,872 438,880 420,889 400,899 379,910 358,922 335,935 313,949 289,964 266,980 269,979 277,976 290,971 307,965 327,958 350,950 375,941 403,932 431,922 459,912 488,903 516,894 542,885 567,878 589,871 608,866 606,867 600,871 592,876 580,883 566,892 550,902 533,913 515,925 497,938 478,951 460,965 443,978 427,992 412,1004 400,1017 391,1028 393,1027 398,1024 407,1019 419,1013 433,1006 451,998 471,989 494,980 519,970 546,960 575,951 606,942 639,934 673,926 708,920 744,915 726,911 709,908 694,906 680,903 668,901 660,900 654,899 652,899 667,893 684,888 703,884 723,880 745,876 767,874 789,871 811,870 832,868 851,867 869,866 885,866 898,865 908,865 914,865 916,865 891,849 866,834 841,821 816,809 792,799 769,790 747,781 726,774 707,769 691,763 676,759 665,756 656,753 650,750 648,748 649,747 663,743 680,740 699,739 720,740 742,741 764,743 787,746 810,750 832,754 852,759 871,763 888,768 903,772 914,776 922,779 926,781 908,764 891,747 874,732 857,718 841,705 825,693 811,682 797,672 785,663 773,656 764,649 756,643 750,639 745,636 743,633 743,632 759,634 775,636 792,640 808,644 825,649 842,655 859,662 876,669 879,631 881,583 883,531 883,476 881,422 876,373 868,331 855,300 856,373 855,453 850,534 837,608 835,561 833,508 829,451 825,393 817,337 807,285 793,240 774,204 777,236 783,313 787,406 785,487 783,471 776,429 766,369 750,297 731,221 707,150 679,90 646,50 650,59 660,84 674,122 690,170 705,225 716,284 722,343 720,400 717,386 709,347 696,291 678,225 656,156 630,91 600,37 568,0 573,11 585,41 602,85 622,139 641,198 657,258 666,314 667,362 666,359 662,351 657,339 650,323 641,304 631,282 620,258 608,234 595,209 581,184 567,160 553,138 539,117 526,100 512,86 500,77 505,87 520,112 540,150 565,195 589,243 612,289 630,329 641,359 640,357 635,352 629,345 620,334 609,322 596,309 583,294 568,279 552,263 537,248 521,233 505,219 489,207 475,197 461,188 449,183 451,185 456,191 464,199 474,211 487,225 501,240 516,257 533,275 549,294 566,312 582,331 597,348 611,365 623,379 633,392 641,402 639,401 635,397 627,390 617,382 605,372 591,361 576,349 559,337 542,324 524,312 506,300 488,289 471,279 455,271 440,265 426,261 428,262 433,266 440,273 450,281 463,292 477,304 492,317 509,331 526,346 544,361 562,377 580,392 597,407 613,421 628,434 641,446 640,445 636,443 631,440 623,436 614,431 604,426 592,420 580,414 567,408 553,403 539,397 525,392 511,388 498,385 485,383 473,382 477,384 488,390 504,400 525,412 549,428 575,447 602,467 628,490 624,487 612,481 594,471 573,460 549,448 524,438 501,431 480,427 494,436 509,446 524,456 540,468 557,480 574,493 590,506 607,520 623,535 638,549 653,564 666,579 679,594 689,609 699,624 706,639 691,626 675,612 658,597 640,582 621,567 602,551 582,534 562,517 541,500 520,483 498,466 476,449 454,432 431,415 408,398 386,382 363,366 340,350 317,335 295,321 272,307 250,294 228,282 207,270 186,260 165,250 145,242 125,235 106,229 88,225 71,222 54,220 56,221 62,225 71,230 83,238 98,247 114,259 133,271 153,285 174,300 196,317 218,334 240,352 261,370 281,389 301,408 318,427 314,425 305,422 292,418 275,413 254,407 232,401 207,394 182,388 155,382 128,376 102,371 77,367 54,364 33,363 15,363 0,365 2,366 10,368 21,371 36,375 54,381 74,387 97,395 121,404 147,413 172,424 198,435 224,448 248,461 271,474 292,489 310,504 294,503 276,502 258,501 240,501 221,500 201,500 181,500 161,500 141,501 122,502 102,504 83,507 65,511 48,515 31,521 16,527 16,527"/>
<polygon class="pen1 brush2" points="1085,801 1086,747 1085,689 1083,631 1079,575 1071,523 1061,478 1046,441 1027,416 1034,457 1040,502 1047,548 1052,596 1055,643 1056,689 1053,732 1047,771 1052,775 1057,778 1061,782 1066,786 1071,790 1075,793 1080,797 1085,801 1085,801"/>
<polygon class="pen1 brush2" points="1040,767 1034,762 1027,758 1021,753 1015,749 1008,744 1002,740 995,735 989,731 992,699 990,654 985,600 977,542 966,484 954,432 942,390 929,362 935,399 940,440 945,484 949,530 951,576 951,622 949,665 943,704 949,707 955,711 960,714 966,717 971,720 976,724 982,727 987,731 996,662 996,581 991,499 987,425 1000,464 1010,506 1018,549 1024,593 1029,638 1033,682 1037,726 1040,767 1040,767"/>
<polygon class="pen1 brush2" points="936,700 936,673 935,644 933,614 930,584 925,555 919,528 910,504 899,484 904,532 907,582 907,633 903,683 907,685 912,686 916,688 920,690 924,693 928,695 932,697 936,700"/>
<polygon class="pen1 brush2" points="996,1314 997,1314 999,1313 1002,1313 1007,1312 1014,1311 1021,1310 1030,1309 1041,1308 1039,1310 1033,1315 1025,1323 1015,1334 1003,1348 992,1364 981,1382 971,1402 972,1401 975,1399 979,1396 985,1393 993,1391 1002,1389 1012,1389 1024,1391 1022,1392 1018,1396 1012,1403 1004,1412 995,1423 986,1437 976,1453 967,1471 968,1471 970,1472 973,1472 978,1473 984,1474 990,1475 997,1476 1004,1477 1003,1479 999,1483 995,1491 989,1500 982,1512 976,1525 971,1539 966,1554 967,1554 970,1553 975,1552 981,1550 987,1549 994,1547 1001,1546 1007,1544 1006,1546 1003,1551 999,1559 994,1569 989,1580 984,1593 980,1606 977,1619 978,1618 981,1616 984,1613 990,1610 995,1607 1001,1605 1008,1604 1014,1604 1010,1611 1001,1628 992,1651 987,1673 988,1673 989,1672 992,1671 996,1669 1001,1668 1007,1668 1014,1667 1021,1668 1019,1674 1013,1691 1008,1713 1004,1738 1005,1737 1007,1736 1010,1733 1015,1731 1020,1728 1026,1726 1033,1725 1040,1725 1038,1730 1035,1743 1031,1762 1028,1782 1028,1782 1030,1781 1032,1781 1036,1780 1040,1779 1046,1779 1053,1778 1061,1777 1063,1790 1068,1810 1075,1826 1082,1828 1090,1824 1097,1819 1104,1812 1111,1805 1117,1799 1121,1794 1124,1790 1125,1789 1137,1797 1144,1803 1149,1807 1150,1808 1158,1789 1163,1771 1165,1757 1166,1752 1179,1759 1187,1768 1192,1776 1193,1779 1201,1756 1206,1734 1208,1717 1209,1710 1222,1716 1231,1722 1236,1728 1237,1730 1243,1708 1245,1684 1244,1664 1244,1656 1255,1662 1264,1672 1269,1682 1271,1686 1276,1660 1278,1634 1278,1614 1278,1606 1283,1610 1289,1614 1294,1619 1299,1624 1304,1628 1308,1632 1310,1634 1311,1635 1315,1603 1315,1575 1312,1556 1311,1548 1318,1550 1325,1552 1331,1554 1336,1556 1340,1558 1343,1559 1345,1560 1346,1560 1345,1521 1340,1490 1335,1469 1332,1462 1343,1466 1353,1471 1360,1477 1366,1482 1370,1488 1373,1493 1375,1496 1375,1497 1374,1453 1367,1417 1360,1391 1356,1382 1365,1387 1373,1392 1379,1396 1384,1400 1388,1403 1391,1406 1392,1407 1393,1408 1401,1359 1404,1315 1403,1277 1398,1243 1390,1213 1379,1188 1367,1166 1353,1148 1339,1133 1325,1121 1311,1112 1298,1105 1287,1100 1279,1097 1273,1095 1271,1095 1244,1091 1218,1090 1194,1091 1171,1096 1149,1103 1129,1112 1111,1124 1093,1138 1077,1155 1062,1173 1048,1193 1035,1214 1024,1237 1013,1262 1004,1287 996,1314"/>
<polygon class="pen1 brush0" points="1061,1257 1062,1256 1066,1254 1072,1252 1079,1249 1087,1246 1095,1243 1104,1240 1112,1239 1110,1241 1105,1246 1096,1252 1085,1260 1087,1262 1092,1267 1099,1275 1105,1285 1104,1285 1102,1284 1097,1282 1092,1280 1085,1276 1078,1271 1070,1265 1061,1257 1061,1257"/>
<polygon class="pen1 brush0" points="1135,1223 1136,1222 1140,1221 1146,1218 1153,1216 1162,1213 1171,1210 1180,1208 1189,1206 1187,1208 1181,1213 1172,1219 1162,1227 1164,1229 1168,1234 1174,1242 1179,1253 1178,1253 1176,1252 1171,1250 1166,1247 1159,1243 1152,1238 1144,1231 1135,1223 1135,1223"/>
<polygon class="pen1 brush0" points="1254,1251 1255,1250 1259,1249 1265,1246 1272,1244 1281,1241 1290,1238 1299,1236 1308,1234 1306,1236 1299,1242 1291,1249 1281,1256 1283,1258 1288,1262 1294,1270 1298,1281 1297,1281 1295,1280 1291,1278 1286,1275 1279,1271 1272,1266 1263,1259 1254,1251 1254,1251"/>
<polygon class="pen1 brush0" points="1183,1287 1184,1286 1188,1284 1194,1282 1201,1279 1209,1276 1217,1273 1226,1271 1234,1270 1232,1272 1227,1277 1218,1283 1207,1291 1209,1293 1214,1297 1221,1305 1227,1315 1226,1315 1223,1314 1219,1312 1214,1310 1207,1306 1200,1301 1191,1295 1183,1287 1183,1287"/>
<polygon class="pen1 brush0" points="1301,1318 1302,1317 1306,1315 1312,1313 1319,1310 1328,1307 1337,1304 1346,1301 1355,1300 1353,1302 1347,1307 1338,1313 1328,1321 1330,1323 1335,1328 1341,1336 1345,1346 1344,1346 1342,1345 1338,1343 1333,1341 1326,1337 1319,1332 1310,1326 1301,1318 1301,1318"/>
<polygon class="pen1 brush0" points="1115,1328 1116,1327 1120,1326 1126,1323 1133,1321 1141,1318 1149,1315 1158,1313 1166,1311 1164,1313 1158,1318 1149,1325 1139,1332 1141,1334 1146,1339 1153,1347 1159,1358 1158,1358 1156,1357 1151,1355 1146,1352 1139,1348 1132,1343 1124,1336 1115,1328 1115,1328"/>
<polygon class="pen1 brush0" points="1224,1355 1225,1354 1229,1352 1235,1350 1242,1347 1250,1344 1259,1341 1268,1339 1277,1338 1275,1340 1269,1345 1260,1351 1250,1358 1252,1360 1257,1365 1263,1373 1268,1383 1267,1383 1265,1382 1260,1380 1255,1378 1248,1374 1241,1369 1233,1363 1224,1355 1224,1355"/>
<polygon class="pen1 brush0" points="1250,1446 1251,1445 1255,1443 1261,1441 1268,1438 1276,1435 1285,1432 1294,1430 1302,1429 1300,1431 1294,1436 1286,1442 1275,1450 1277,1452 1282,1457 1289,1465 1294,1476 1293,1476 1291,1475 1286,1473 1281,1470 1274,1466 1267,1461 1259,1454 1250,1446 1250,1446"/>
<polygon class="pen1 brush0" points="1149,1413 1150,1412 1154,1411 1160,1408 1167,1406 1175,1403 1184,1400 1193,1398 1202,1396 1200,1398 1194,1403 1185,1409 1175,1416 1177,1418 1182,1423 1188,1432 1193,1443 1192,1443 1190,1442 1185,1440 1180,1437 1173,1433 1166,1427 1158,1421 1149,1413 1149,1413"/>
<polygon class="pen1 brush0" points="1048,1385 1049,1384 1053,1383 1059,1380 1066,1378 1075,1375 1084,1372 1093,1370 1102,1368 1100,1370 1093,1375 1085,1381 1075,1389 1077,1391 1082,1396 1089,1404 1094,1415 1093,1415 1090,1414 1086,1412 1081,1409 1074,1405 1066,1400 1057,1393 1048,1385 1048,1385"/>
<polygon class="pen1 brush0" points="1082,1474 1083,1473 1087,1472 1092,1470 1098,1468 1105,1465 1113,1463 1121,1461 1129,1460 1127,1462 1122,1466 1114,1471 1105,1477 1107,1479 1111,1484 1117,1491 1122,1501 1121,1501 1119,1500 1115,1498 1111,1496 1105,1492 1098,1487 1090,1481 1082,1474 1082,1474"/>
<polygon class="pen1 brush0" points="1190,1504 1191,1503 1195,1502 1200,1500 1207,1497 1215,1494 1223,1492 1231,1490 1239,1489 1237,1491 1231,1495 1223,1501 1213,1507 1215,1509 1220,1513 1226,1521 1230,1531 1229,1531 1227,1530 1223,1528 1219,1525 1213,1522 1206,1517 1198,1511 1190,1504 1190,1504"/>
<polygon class="pen1 brush0" points="1210,1581 1211,1580 1215,1579 1220,1576 1227,1574 1234,1571 1242,1568 1250,1566 1258,1564 1256,1566 1251,1571 1243,1577 1233,1584 1235,1585 1240,1589 1246,1596 1250,1606 1249,1606 1247,1605 1243,1604 1239,1601 1233,1598 1226,1594 1218,1588 1210,1581 1210,1581"/>
<polygon class="pen1 brush0" points="1122,1557 1123,1556 1127,1555 1132,1553 1138,1550 1145,1547 1153,1545 1161,1543 1169,1541 1167,1543 1162,1547 1154,1553 1145,1560 1147,1561 1151,1566 1157,1573 1162,1582 1161,1582 1159,1581 1155,1580 1150,1577 1144,1574 1137,1570 1130,1564 1122,1557 1122,1557"/>
<polygon class="pen1 brush0" points="1028,1541 1029,1540 1033,1539 1038,1536 1044,1534 1051,1531 1059,1528 1067,1526 1075,1524 1073,1526 1068,1531 1060,1537 1051,1544 1053,1545 1057,1549 1063,1557 1068,1567 1067,1567 1065,1566 1061,1564 1056,1561 1050,1558 1044,1553 1036,1548 1028,1541 1028,1541"/>
<polygon class="pen1 brush0" points="1148,1621 1149,1620 1152,1619 1156,1617 1162,1614 1169,1612 1175,1609 1182,1607 1189,1606 1187,1608 1183,1612 1176,1617 1167,1623 1169,1624 1174,1629 1179,1636 1183,1645 1182,1645 1180,1644 1177,1642 1173,1640 1167,1637 1161,1632 1155,1627 1148,1621 1148,1621"/>
<polygon class="pen1 brush0" points="1064,1605 1065,1604 1068,1603 1072,1600 1078,1598 1085,1595 1091,1592 1098,1590 1105,1589 1103,1591 1099,1595 1092,1600 1084,1606 1086,1608 1090,1612 1095,1619 1099,1628 1098,1628 1096,1627 1093,1625 1089,1623 1084,1620 1078,1616 1071,1611 1064,1605 1064,1605"/>
<polygon class="pen1 brush0" points="1092,1675 1093,1674 1096,1673 1100,1671 1106,1669 1112,1667 1118,1664 1125,1663 1131,1662 1129,1663 1125,1667 1119,1671 1111,1676 1113,1677 1117,1681 1121,1687 1125,1696 1124,1696 1123,1695 1120,1694 1116,1691 1111,1689 1105,1685 1099,1680 1092,1675 1092,1675"/>
<polygon class="pen1 brush0" points="1153,1686 1154,1686 1157,1684 1161,1683 1167,1681 1173,1679 1179,1677 1186,1676 1192,1675 1190,1676 1186,1680 1180,1684 1172,1689 1174,1690 1178,1694 1182,1700 1186,1708 1185,1708 1184,1707 1181,1706 1177,1703 1172,1700 1166,1697 1160,1692 1153,1686 1153,1686"/>
<polygon class="pen1 brush0" points="1040,1666 1041,1666 1044,1664 1048,1663 1053,1661 1059,1658 1065,1656 1071,1654 1078,1653 1076,1655 1072,1658 1065,1664 1058,1669 1060,1670 1064,1674 1068,1680 1072,1687 1071,1687 1070,1686 1067,1685 1063,1683 1058,1680 1053,1676 1047,1672 1040,1666 1040,1666"/>
<polygon class="pen1 brush0" points="1062,1735 1063,1735 1065,1733 1069,1732 1074,1730 1080,1728 1086,1726 1092,1724 1098,1723 1096,1724 1092,1728 1086,1733 1079,1737 1080,1738 1084,1742 1088,1747 1092,1754 1091,1754 1090,1753 1087,1752 1083,1750 1079,1748 1073,1744 1068,1740 1062,1735 1062,1735"/>
<polygon class="pen1 brush0" points="1112,1747 1113,1747 1115,1745 1119,1744 1124,1742 1129,1740 1135,1738 1141,1736 1146,1735 1145,1736 1141,1739 1135,1744 1129,1749 1130,1750 1134,1753 1138,1758 1141,1765 1139,1764 1133,1762 1123,1756 1112,1747"/>
</g>
</svg>
