<?xml version="1.0" encoding="UTF-8" standalone="no"?>
<!DOCTYPE svg PUBLIC "-//W3C//DTD SVG 1.0//EN" "http://www.w3.org/TR/2001/REC-SVG-20010904/DTD/svg10.dtd">
<svg xmlns="http://www.w3.org/2000/svg" xmlns:xlink="http://www.w3.org/1999/xlink" fill-rule="evenodd" height="1.97in" preserveAspectRatio="none" stroke-linecap="round" viewBox="0 0 1450 1970" width="1.45in">
<style type="text/css">
.brush0 { fill: rgb(255,255,255); }
.pen0 { stroke: rgb(0,0,0); stroke-width: 1; stroke-linejoin: round; }
.brush1 { fill: none; }
.pen1 { stroke: none; }
.brush2 { fill: rgb(0,0,0); }
</style>
<g>
<polygon class="pen1 brush2" points="1019,1456 1069,1444 1116,1429 1159,1411 1198,1391 1234,1369 1266,1344 1295,1317 1322,1288 1345,1257 1365,1225 1383,1190 1398,1154 1410,1116 1421,1077 1429,1037 1435,996 1439,945 1441,893 1441,840 1438,786 1434,732 1428,677 1420,622 1412,567 1403,518 1393,470 1383,423 1373,376 1362,331 1352,286 1341,242 1331,200 1319,232 1303,264 1283,295 1260,325 1234,355 1206,384 1177,412 1145,438 1113,464 1080,488 1046,510 1013,530 980,549 948,566 918,580 889,592 925,622 956,663 984,713 1008,772 1028,836 1044,905 1056,977 1065,1049 1071,1121 1073,1191 1072,1256 1067,1315 1060,1366 1049,1408 1035,1438 1019,1456 1019,1456"/>
<polygon class="pen1 brush2" points="800,622 829,617 858,631 887,662 915,708 941,765 965,832 987,905 1005,983 1020,1064 1029,1144 1034,1222 1034,1294 1027,1360 1013,1415 991,1458 962,1486 944,1492 927,1499 910,1505 893,1510 876,1516 859,1521 841,1525 824,1529 807,1532 789,1535 772,1537 754,1538 736,1538 717,1537 698,1536 679,1533 613,1515 552,1486 496,1446 443,1397 394,1341 348,1277 306,1209 267,1136 231,1062 197,985 166,909 137,834 109,762 84,694 60,631 37,575 58,588 80,600 103,611 128,621 153,629 179,637 206,643 234,649 262,653 290,657 319,660 348,662 376,663 405,664 434,664 463,663 491,662 519,661 546,659 572,657 598,654 623,652 647,649 670,646 691,643 712,639 731,636 748,633 764,630 778,627 790,624 800,622 800,622"/>
<polygon class="pen1 brush2" points="1311,173 1303,195 1293,217 1282,239 1269,260 1255,281 1240,301 1224,321 1206,341 1187,360 1167,378 1146,396 1124,414 1102,431 1078,447 1054,463 1029,478 1003,493 977,507 950,520 923,533 895,545 868,556 839,566 811,576 783,585 754,593 726,600 697,606 669,611 641,616 613,619 585,622 534,626 486,629 440,631 396,631 355,630 316,628 280,625 246,621 213,616 183,609 156,602 130,594 106,585 85,576 65,565 47,554 45,552 40,546 34,537 28,524 23,509 22,490 25,470 34,447 41,436 50,425 60,414 73,402 87,390 104,377 123,365 145,352 156,340 162,328 165,315 167,302 172,287 183,270 202,250 233,226 249,218 266,216 282,219 299,227 315,239 330,253 345,270 360,288 373,307 386,325 397,343 407,359 415,372 422,382 428,387 431,388 425,378 412,353 396,315 382,269 375,219 380,171 403,127 448,92 464,86 480,86 495,89 511,94 528,98 547,101 569,99 593,92 593,94 618,87 637,77 651,65 663,52 674,39 685,28 699,20 716,16 746,16 772,22 795,32 814,47 831,65 845,85 856,107 865,130 873,154 878,177 882,198 885,217 887,233 888,246 888,254 888,257 890,246 889,218 888,179 890,133 897,88 910,49 933,23 968,14 1006,18 1033,26 1051,35 1063,45 1072,55 1081,64 1092,72 1108,77 1121,77 1138,75 1157,72 1178,68 1199,65 1221,64 1242,66 1262,71 1273,76 1282,82 1291,91 1298,102 1304,115 1308,131 1311,151 1311,173"/>
<polygon class="pen1 brush2" points="921,1725 918,1720 912,1706 903,1685 895,1657 890,1626 889,1592 896,1557 912,1523 926,1518 941,1513 955,1508 971,1502 986,1497 1001,1491 1017,1485 1032,1479 1047,1473 1063,1467 1078,1461 1092,1455 1107,1449 1121,1442 1134,1436 1147,1430 1173,1437 1198,1447 1221,1460 1242,1475 1261,1493 1278,1513 1292,1534 1304,1557 1303,1556 1299,1554 1294,1550 1286,1545 1277,1539 1267,1533 1255,1527 1243,1520 1229,1514 1216,1508 1202,1503 1188,1499 1174,1496 1161,1494 1149,1495 1137,1497 1137,1502 1136,1515 1132,1532 1125,1551 1126,1554 1127,1563 1130,1577 1135,1596 1141,1618 1148,1644 1158,1673 1170,1705 1185,1738 1201,1772 1221,1807 1243,1842 1268,1876 1297,1909 1329,1941 1364,1970 1361,1970 1352,1969 1339,1967 1323,1965 1304,1962 1284,1958 1264,1952 1245,1946 1243,1944 1237,1938 1229,1928 1217,1914 1203,1898 1187,1878 1170,1856 1152,1832 1133,1806 1114,1778 1095,1749 1078,1718 1061,1687 1046,1655 1033,1624 1023,1592 1022,1591 1018,1590 1012,1587 1004,1583 995,1577 985,1570 974,1561 962,1551 959,1553 953,1559 944,1570 934,1586 926,1609 919,1640 917,1678 921,1725"/>
<polygon class="pen1 brush0" points="624,291 625,288 627,279 631,266 638,251 648,234 662,216 680,200 703,186 701,189 695,196 687,207 678,221 669,237 663,253 660,270 662,285 664,283 670,278 680,270 693,262 708,254 726,247 746,244 767,244 765,245 759,246 749,249 738,254 725,262 711,271 697,283 685,298 687,298 691,297 699,297 709,298 721,300 736,305 754,312 773,322 771,322 765,323 755,323 743,324 730,326 715,327 700,330 685,332 687,333 691,335 696,339 703,346 711,356 717,370 723,388 727,410 726,408 722,402 716,394 708,384 698,373 688,362 677,353 665,345 665,354 664,376 661,408 654,444 653,434 650,411 643,382 634,356 633,358 629,365 623,374 614,386 602,399 586,411 567,423 543,433 545,431 550,427 557,419 565,409 575,397 584,383 593,368 601,352 599,353 593,357 583,361 571,365 556,369 539,371 521,370 502,365 504,365 509,363 518,361 528,358 540,353 553,346 567,338 580,328 578,327 573,325 566,320 556,313 545,303 532,288 519,270 506,247 509,249 516,254 528,262 541,271 556,281 571,290 584,297 595,301 593,294 591,272 590,239 595,193 624,291"/>
</g>
</svg>
