<?xml version="1.0" encoding="UTF-8" standalone="no"?>
<!DOCTYPE svg PUBLIC "-//W3C//DTD SVG 1.0//EN" "http://www.w3.org/TR/2001/REC-SVG-20010904/DTD/svg10.dtd">
<svg xmlns="http://www.w3.org/2000/svg" xmlns:xlink="http://www.w3.org/1999/xlink" fill-rule="evenodd" height="1.847in" preserveAspectRatio="none" stroke-linecap="round" viewBox="0 0 1979 1847" width="1.979in">
<style type="text/css">
.brush0 { fill: rgb(255,255,255); }
.pen0 { stroke: rgb(0,0,0); stroke-width: 1; stroke-linejoin: round; }
.brush1 { fill: none; }
.pen1 { stroke: none; }
.brush2 { fill: rgb(0,0,0); }
</style>
<g>
<polygon class="pen1 brush2" points="992,548 1025,550 1057,555 1088,563 1118,574 1146,587 1173,604 1198,623 1221,644 1242,667 1261,692 1277,719 1291,748 1301,778 1309,810 1314,842 1316,876 1314,909 1309,942 1301,973 1291,1003 1277,1032 1261,1059 1242,1084 1221,1107 1198,1129 1173,1148 1146,1164 1118,1178 1088,1189 1057,1197 1025,1202 992,1204 959,1202 927,1197 896,1189 866,1178 838,1164 812,1148 787,1129 764,1107 743,1084 724,1059 708,1032 694,1003 684,973 676,942 671,909 669,876 671,842 676,810 684,778 694,748 708,719 724,692 743,667 764,644 787,623 812,604 838,587 866,574 896,563 927,555 959,550 992,548"/>
<polygon class="pen1 brush2" points="496,1599 507,1600 522,1601 541,1600 565,1597 591,1592 621,1585 653,1573 687,1558 724,1539 761,1514 800,1484 839,1448 879,1405 918,1355 957,1297 995,1231 994,1231 990,1231 984,1231 976,1230 965,1229 954,1227 940,1225 926,1222 910,1218 893,1214 876,1208 858,1201 840,1193 822,1183 804,1172 786,1160 752,1131 725,1102 702,1074 685,1047 673,1025 664,1007 659,995 658,991 611,1051 571,1109 539,1164 514,1217 494,1268 480,1316 471,1361 465,1402 463,1441 464,1475 468,1506 473,1534 479,1557 485,1575 491,1589 496,1599"/>
<polygon class="pen1 brush2" points="154,633 156,643 160,658 167,676 177,697 189,721 206,747 226,774 252,801 281,830 316,858 357,885 404,911 457,935 517,957 584,976 658,991 657,986 653,972 649,951 646,923 644,890 645,853 650,813 661,772 678,730 698,694 720,663 741,637 760,617 776,603 786,594 790,591 718,565 651,545 588,532 529,525 474,523 423,525 377,530 335,539 297,550 263,562 234,576 210,589 189,603 173,615 161,625 154,633"/>
<polygon class="pen1 brush2" points="982,0 973,5 961,13 945,25 928,41 909,60 889,84 869,112 850,144 832,182 815,224 801,271 790,324 783,382 780,445 782,515 790,591 791,590 794,588 799,585 806,580 815,575 826,569 838,563 851,557 866,551 882,545 899,539 917,534 937,530 957,527 978,525 999,525 1022,526 1044,528 1064,532 1083,536 1101,540 1118,546 1133,551 1147,557 1159,562 1170,567 1179,572 1187,577 1193,581 1197,584 1200,585 1201,586 1204,510 1202,440 1196,376 1185,318 1171,266 1155,219 1137,177 1117,141 1096,109 1075,81 1055,58 1035,39 1018,24 1003,13 991,5 982,0"/>
<polygon class="pen1 brush2" points="1821,599 1814,591 1802,582 1786,570 1767,558 1743,546 1714,534 1682,523 1645,514 1604,508 1559,504 1510,504 1457,509 1399,519 1337,535 1271,557 1201,586 1205,589 1216,599 1232,614 1251,635 1271,661 1291,693 1309,729 1323,769 1333,813 1337,853 1338,889 1336,920 1332,946 1328,965 1324,977 1323,981 1397,963 1463,941 1523,917 1575,890 1622,862 1662,833 1697,803 1726,773 1751,744 1771,716 1787,689 1800,665 1809,643 1815,624 1819,610 1821,599"/>
<polygon class="pen1 brush2" points="1526,1566 1530,1556 1535,1542 1540,1524 1545,1501 1548,1474 1549,1443 1548,1409 1544,1372 1536,1331 1523,1288 1506,1242 1483,1194 1454,1143 1418,1091 1375,1037 1323,981 1321,986 1316,999 1307,1019 1294,1044 1276,1073 1253,1102 1225,1132 1192,1159 1173,1172 1155,1183 1136,1192 1119,1201 1102,1208 1085,1213 1070,1218 1056,1222 1043,1225 1031,1227 1020,1229 1012,1230 1005,1231 999,1231 996,1231 995,1231 1038,1294 1081,1349 1125,1396 1168,1436 1210,1470 1251,1497 1291,1520 1329,1537 1365,1550 1399,1560 1429,1566 1456,1569 1480,1570 1500,1570 1515,1568 1526,1566"/>
<polygon class="pen1 brush2" points="482,1204 472,1194 456,1179 433,1159 406,1136 375,1108 340,1079 303,1047 265,1014 225,980 186,947 148,914 111,882 78,852 47,825 21,802 0,782 35,792 70,804 105,820 140,838 176,858 211,880 246,903 281,927 315,952 348,978 381,1003 413,1029 444,1054 473,1078 502,1101 529,1123 527,1124 523,1130 515,1141 505,1160 495,1180 488,1194 483,1201 482,1204 482,1204"/>
<polygon class="pen1 brush2" points="1012,1653 1009,1647 1000,1631 986,1608 968,1580 947,1549 926,1518 903,1488 881,1464 879,1465 874,1469 866,1474 857,1481 845,1489 832,1498 819,1508 806,1518 808,1520 814,1528 823,1539 835,1554 849,1572 865,1593 882,1616 900,1641 919,1667 937,1694 955,1722 972,1749 988,1775 1001,1801 1012,1825 1020,1847 1029,1825 1041,1801 1055,1775 1070,1748 1086,1721 1102,1693 1119,1665 1136,1639 1152,1614 1168,1590 1182,1569 1194,1550 1204,1535 1212,1524 1217,1517 1219,1514 1206,1504 1193,1494 1180,1485 1168,1477 1159,1470 1151,1465 1146,1461 1144,1460 1122,1485 1099,1514 1077,1546 1057,1577 1039,1605 1025,1628 1015,1644 1012,1650 1012,1653"/>
<polygon class="pen1 brush2" points="1523,1197 1532,1186 1547,1170 1568,1149 1594,1123 1624,1094 1656,1063 1691,1029 1728,994 1765,958 1802,923 1839,888 1873,855 1905,823 1934,795 1959,770 1979,750 1945,761 1911,776 1877,793 1843,813 1809,834 1775,858 1741,882 1708,908 1676,935 1643,962 1612,990 1581,1017 1552,1043 1523,1069 1495,1094 1469,1117 1471,1118 1476,1123 1485,1134 1496,1153 1507,1173 1516,1186 1521,1194 1523,1197"/>
<polygon class="pen1 brush0" points="743,947 718,940 716,927 711,895 710,854 716,812 746,808 747,803 749,798 750,793 752,788 733,768 734,765 738,756 744,743 753,727 763,709 775,691 788,674 803,659 838,676 840,674 842,672 844,671 846,670 841,637 844,635 852,631 865,624 881,616 900,608 920,601 941,595 962,592 982,626 983,626 984,626 986,626 986,626 987,626 988,626 989,626 989,626 1009,595 1012,595 1022,597 1036,599 1054,603 1073,608 1093,615 1113,624 1131,635 1127,669 1130,672 1134,675 1138,678 1141,680 1172,663 1175,665 1182,671 1193,681 1207,693 1221,708 1236,725 1249,742 1259,761 1229,795 1258,798 1262,811 1269,842 1275,884 1273,926 1233,936 1232,940 1231,944 1230,949 1229,954 1255,985 1253,988 1249,997 1242,1010 1233,1025 1221,1042 1208,1060 1193,1076 1177,1089 1148,1073 1146,1075 1143,1077 1140,1080 1138,1082 1141,1115 1138,1117 1130,1121 1117,1127 1100,1135 1081,1142 1061,1149 1040,1154 1019,1156 1006,1130 1001,1131 996,1132 992,1132 988,1132 972,1160 968,1160 959,1158 944,1156 927,1153 907,1148 886,1141 866,1133 848,1123 853,1092 848,1090 844,1087 840,1084 836,1081 809,1092 806,1090 799,1083 789,1073 777,1060 764,1045 751,1027 740,1009 731,990 752,968 750,963 748,957 745,952 743,947"/>
<polygon class="pen1 brush2" points="1064,974 1057,975 1049,972 1042,966 1035,957 1030,946 1028,931 1030,913 1036,893 1056,900 1054,903 1051,911 1049,924 1053,939 1055,938 1058,937 1061,936 1064,936 1071,937 1077,941 1081,947 1083,954 1081,962 1077,968 1071,973 1064,974"/>
<polygon class="pen1 brush2" points="942,973 949,973 957,971 964,965 971,956 976,944 978,929 977,911 971,890 951,899 953,902 956,910 957,923 954,937 951,936 948,935 945,933 942,933 935,935 929,939 925,946 924,953 925,961 929,967 935,971 942,973"/>
<polygon class="pen1 brush2" points="1063,768 1056,767 1048,769 1040,775 1033,783 1029,795 1027,810 1029,828 1036,849 1054,842 1052,839 1050,830 1049,817 1052,802 1054,804 1057,805 1060,805 1063,805 1070,804 1077,800 1081,794 1083,787 1081,779 1077,773 1070,769 1063,768"/>
<polygon class="pen1 brush2" points="944,765 951,765 959,767 966,773 973,782 978,794 980,809 978,828 972,849 952,841 954,838 957,829 959,816 955,801 953,803 950,804 947,805 944,805 937,803 931,799 927,793 925,785 927,778 931,771 937,767 944,765"/>
</g>
</svg>
