<?xml version="1.0" encoding="UTF-8" standalone="no"?>
<!DOCTYPE svg PUBLIC "-//W3C//DTD SVG 1.0//EN" "http://www.w3.org/TR/2001/REC-SVG-20010904/DTD/svg10.dtd">
<svg xmlns="http://www.w3.org/2000/svg" xmlns:xlink="http://www.w3.org/1999/xlink" fill-rule="evenodd" height="1.712in" preserveAspectRatio="none" stroke-linecap="round" viewBox="0 0 1977 1712" width="1.977in">
<style type="text/css">
.brush0 { fill: rgb(255,255,255); }
.pen0 { stroke: rgb(0,0,0); stroke-width: 1; stroke-linejoin: round; }
.brush1 { fill: none; }
.pen1 { stroke: none; }
.brush2 { fill: rgb(0,0,0); }
</style>
<g>
<polygon class="pen1 brush2" points="1129,795 1155,784 1175,779 1192,778 1205,780 1217,785 1230,790 1244,796 1261,802 1274,801 1294,796 1319,786 1349,772 1382,755 1418,736 1455,715 1494,693 1531,670 1567,648 1601,626 1631,606 1656,588 1676,572 1690,560 1696,552 1701,536 1709,516 1719,493 1731,468 1745,445 1760,423 1777,405 1794,393 1793,393 1791,394 1788,396 1783,398 1777,400 1769,402 1760,405 1750,407 1738,409 1724,410 1709,411 1692,412 1673,411 1653,409 1632,407 1608,403 1598,404 1581,410 1557,420 1529,434 1497,450 1461,469 1424,490 1386,512 1349,534 1312,557 1278,579 1247,600 1221,620 1200,637 1186,652 1179,663 1176,682 1176,700 1176,718 1175,736 1172,752 1165,768 1151,782 1129,795 1129,795"/>
<polygon class="pen1 brush2" points="845,896 853,894 860,890 864,883 866,875 864,866 860,859 853,855 845,853 837,855 831,859 827,866 825,875 827,883 831,890 837,894 845,896 845,896"/>
<polygon class="pen1 brush2" points="909,1025 917,1024 924,1019 928,1013 930,1005 928,996 924,990 917,985 909,984 901,985 895,990 891,996 889,1005 891,1013 895,1019 901,1024 909,1025 909,1025"/>
<polygon class="pen1 brush2" points="952,971 960,970 967,965 971,959 973,951 971,942 967,936 960,931 952,930 944,931 938,936 933,942 932,951 933,959 938,965 944,970 952,971 952,971"/>
<polygon class="pen1 brush2" points="1088,974 1095,972 1102,968 1106,962 1108,954 1106,945 1102,939 1095,934 1088,933 1079,934 1073,939 1068,945 1067,954 1068,962 1073,968 1079,972 1088,974 1088,974"/>
<polygon class="pen1 brush2" points="1129,1035 1137,1033 1144,1029 1148,1022 1150,1014 1148,1005 1144,998 1137,994 1129,992 1122,994 1115,998 1111,1005 1109,1014 1111,1022 1115,1029 1122,1033 1129,1035 1129,1035"/>
<polygon class="pen1 brush2" points="1180,883 1189,882 1196,877 1200,871 1202,863 1200,854 1196,848 1189,843 1180,842 1172,843 1165,848 1161,854 1159,863 1161,871 1165,877 1172,882 1180,883 1180,883"/>
<polygon class="pen1 brush2" points="1109,748 1101,747 1094,742 1090,736 1088,728 1090,719 1094,713 1101,708 1109,707 1118,708 1125,713 1129,719 1131,728 1129,736 1125,742 1118,747 1109,748 1109,748"/>
<polygon class="pen1 brush2" points="1067,828 1075,826 1082,822 1086,816 1088,808 1086,799 1082,792 1075,788 1067,786 1059,788 1052,792 1047,799 1045,808 1047,816 1052,822 1059,826 1067,828 1067,828"/>
<polygon class="pen1 brush2" points="1018,903 1025,902 1031,901 1037,898 1042,894 1046,889 1049,884 1050,878 1051,872 1050,865 1049,859 1046,853 1042,848 1037,844 1031,841 1025,840 1018,839 1012,840 1006,841 1001,844 996,848 992,853 989,859 988,865 987,872 988,878 989,884 992,889 996,894 1001,898 1006,901 1012,902 1018,903 1018,903"/>
<polygon class="pen1 brush2" points="974,826 982,824 989,819 993,812 994,805 993,796 989,790 982,785 974,784 966,785 959,790 955,796 953,805 955,812 959,819 966,824 974,826 974,826"/>
<polygon class="pen1 brush2" points="933,755 940,753 947,748 951,741 953,734 951,725 947,719 940,714 933,713 924,714 918,719 913,725 912,734 913,741 918,748 924,753 933,755 933,755"/>
<polygon class="pen1 brush2" points="0,869 12,867 26,865 41,860 57,854 74,847 93,837 114,824 136,809 154,797 174,786 196,778 219,771 243,766 267,762 291,759 315,757 337,756 358,755 377,756 393,756 407,757 417,757 424,758 426,758 665,856 430,964 428,964 421,965 411,966 397,968 381,969 362,970 341,971 319,971 295,970 271,968 246,965 222,961 199,955 177,948 156,938 138,927 115,912 94,900 75,890 57,883 41,878 26,874 12,872 0,870 0,869 0,869"/>
<polygon class="pen1 brush2" points="913,826 894,822 876,820 861,820 846,821 833,825 819,830 805,836 791,843 779,845 760,840 735,831 706,817 673,800 638,780 601,757 563,733 526,708 491,684 458,660 428,638 403,618 384,601 371,588 365,579 351,535 336,500 320,471 306,450 293,435 283,424 276,419 274,417 284,422 295,426 306,430 318,433 329,436 341,437 353,439 365,440 377,440 389,440 401,440 413,439 425,438 437,437 449,436 460,434 470,436 487,442 511,453 540,467 573,485 609,505 647,527 685,551 723,575 759,599 792,622 822,645 847,665 865,683 876,698 879,710 875,729 873,746 873,761 874,774 879,787 886,800 898,812 913,826 913,826"/>
<polygon class="pen1 brush2" points="541,48 541,48 551,72 559,104 562,145 558,197 559,242 570,289 587,335 608,378 629,416 648,446 662,466 667,473 875,625 846,369 845,367 842,361 838,352 832,339 825,324 816,308 805,289 794,270 781,250 767,231 752,211 735,193 719,175 701,160 682,147 663,137 638,125 616,114 598,102 582,91 569,80 558,69 548,58 541,48 541,48"/>
<polygon class="pen1 brush2" points="1017,775 1012,747 1006,726 998,712 989,702 978,694 967,687 955,679 942,667 930,636 922,576 917,498 916,411 917,325 920,249 926,193 933,166 962,130 983,98 999,69 1009,46 1014,27 1017,13 1018,4 1018,1 1018,0 1018,3 1019,12 1022,26 1029,45 1039,69 1055,97 1077,129 1106,164 1114,191 1119,246 1123,322 1125,408 1124,495 1120,573 1112,633 1101,664 1088,676 1076,686 1065,694 1055,702 1045,713 1035,727 1026,747 1017,775 1017,775"/>
<polygon class="pen1 brush2" points="1504,8 1504,8 1494,33 1487,65 1483,106 1487,159 1486,203 1476,249 1459,295 1438,338 1417,377 1398,407 1384,427 1379,434 1170,586 1199,329 1200,327 1203,321 1207,312 1213,299 1220,284 1229,268 1240,250 1251,230 1264,211 1278,191 1293,172 1309,153 1326,136 1344,121 1363,108 1382,98 1407,87 1429,75 1447,63 1463,52 1476,40 1487,29 1497,18 1504,8 1504,8"/>
<polygon class="pen1 brush2" points="1977,846 1965,848 1951,850 1936,855 1920,861 1903,869 1884,880 1864,893 1842,909 1824,921 1803,931 1781,939 1758,946 1734,951 1710,955 1686,957 1662,959 1640,960 1619,960 1600,960 1584,959 1570,958 1560,958 1553,957 1551,957 1312,859 1547,751 1549,751 1556,750 1566,749 1580,748 1596,747 1615,746 1636,745 1659,745 1682,746 1706,748 1731,751 1755,755 1778,761 1800,768 1821,778 1839,789 1862,804 1883,816 1902,825 1920,832 1936,838 1951,842 1965,844 1977,846 1977,846 1977,846"/>
<polygon class="pen1 brush2" points="1270,907 1283,906 1302,911 1326,921 1356,935 1388,952 1424,973 1460,995 1498,1019 1534,1043 1570,1068 1603,1091 1632,1113 1657,1132 1677,1149 1690,1162 1696,1170 1704,1196 1712,1220 1721,1241 1731,1260 1743,1279 1756,1296 1772,1314 1790,1332 1789,1332 1787,1330 1784,1329 1780,1327 1773,1324 1766,1322 1757,1319 1747,1317 1734,1315 1721,1313 1706,1311 1689,1311 1670,1311 1650,1312 1628,1315 1604,1318 1594,1316 1577,1309 1554,1299 1526,1284 1494,1266 1460,1247 1423,1225 1386,1202 1349,1178 1313,1154 1280,1131 1250,1109 1224,1089 1204,1071 1190,1056 1184,1044 1181,1026 1181,1009 1181,994 1181,980 1178,965 1171,951 1157,935 1136,917 1147,920 1157,924 1168,928 1181,930 1197,930 1216,927 1240,919 1270,907 1270,907"/>
<polygon class="pen1 brush2" points="1507,1687 1507,1687 1497,1662 1490,1631 1486,1591 1488,1540 1487,1496 1475,1449 1458,1404 1436,1361 1414,1323 1394,1294 1380,1274 1375,1267 1165,1119 1196,1373 1197,1375 1200,1381 1204,1390 1211,1403 1219,1417 1228,1434 1239,1452 1251,1471 1265,1491 1279,1510 1295,1530 1312,1548 1329,1564 1347,1579 1366,1592 1386,1601 1411,1612 1432,1623 1450,1634 1466,1645 1479,1656 1490,1667 1499,1677 1507,1687 1507,1687"/>
<polygon class="pen1 brush2" points="1014,937 1020,965 1027,985 1036,999 1047,1009 1058,1017 1070,1024 1083,1033 1096,1045 1108,1076 1116,1136 1120,1214 1121,1301 1119,1388 1115,1464 1109,1520 1102,1547 1073,1583 1051,1615 1036,1643 1026,1667 1019,1686 1016,1700 1015,1709 1015,1712 1013,1691 1006,1668 996,1644 984,1621 970,1599 956,1579 942,1560 929,1545 922,1519 917,1463 913,1387 912,1301 913,1214 917,1136 925,1076 936,1045 949,1033 962,1024 973,1017 984,1009 993,998 1001,984 1008,964 1014,937 1014,937"/>
<polygon class="pen1 brush2" points="520,1677 527,1667 536,1657 547,1646 560,1635 576,1624 595,1613 617,1602 642,1591 661,1581 680,1569 698,1554 716,1537 732,1519 748,1500 762,1480 776,1460 788,1442 799,1424 808,1407 816,1392 823,1380 827,1371 830,1365 831,1363 863,1107 653,1255 648,1262 634,1282 614,1311 592,1349 570,1392 552,1437 541,1484 540,1528 542,1556 542,1580 541,1602 538,1622 534,1639 529,1653 524,1666 518,1677 520,1677 520,1677"/>
<polygon class="pen1 brush2" points="899,919 877,935 863,951 854,965 851,979 850,994 849,1009 848,1026 845,1044 838,1055 824,1070 803,1087 777,1106 746,1127 712,1150 676,1172 638,1195 601,1217 564,1238 529,1257 497,1274 469,1287 446,1298 429,1304 419,1305 408,1303 397,1301 385,1300 374,1299 361,1297 349,1297 337,1296 324,1296 312,1296 299,1297 287,1299 275,1301 264,1303 252,1306 241,1310 231,1315 234,1313 241,1308 251,1298 265,1283 280,1262 296,1234 312,1199 328,1156 334,1148 347,1136 367,1120 393,1102 423,1082 456,1060 492,1037 530,1014 568,992 605,971 641,952 675,935 704,922 730,912 750,906 763,906 779,911 795,919 812,926 829,933 846,937 864,937 881,932 899,919"/>
</g>
</svg>
