<?xml version="1.0" encoding="UTF-8" standalone="no"?>
<!DOCTYPE svg PUBLIC "-//W3C//DTD SVG 1.0//EN" "http://www.w3.org/TR/2001/REC-SVG-20010904/DTD/svg10.dtd">
<svg xmlns="http://www.w3.org/2000/svg" xmlns:xlink="http://www.w3.org/1999/xlink" fill-rule="evenodd" height="1.599in" preserveAspectRatio="none" stroke-linecap="round" viewBox="0 0 1973 1599" width="1.973in">
<style type="text/css">
.brush0 { fill: rgb(255,255,255); }
.pen0 { stroke: rgb(0,0,0); stroke-width: 1; stroke-linejoin: round; }
.brush1 { fill: none; }
.pen1 { stroke: none; }
.brush2 { fill: rgb(0,0,0); }
</style>
<g>
<polygon class="pen1 brush2" points="1103,989 1105,986 1112,979 1123,969 1138,955 1158,939 1182,922 1210,904 1243,887 1281,870 1322,855 1368,843 1419,834 1473,829 1533,830 1596,836 1664,848 1706,859 1744,870 1779,882 1811,895 1839,908 1864,922 1887,936 1906,950 1922,964 1936,979 1947,993 1956,1007 1962,1021 1967,1034 1969,1048 1969,1060 1967,1070 1964,1080 1959,1089 1953,1098 1947,1106 1938,1113 1929,1120 1919,1125 1910,1128 1900,1131 1889,1132 1877,1133 1864,1133 1850,1132 1835,1130 1820,1127 1805,1124 1788,1119 1772,1114 1755,1108 1738,1100 1720,1092 1703,1083 1685,1073 1666,1062 1643,1052 1616,1042 1587,1032 1555,1023 1521,1015 1485,1007 1447,1000 1407,994 1365,989 1323,985 1279,983 1236,982 1191,983 1147,985 1103,989 1103,989"/>
<polygon class="pen1 brush2" points="1118,1037 1149,1054 1179,1073 1209,1092 1238,1112 1265,1133 1292,1155 1317,1177 1341,1198 1363,1220 1383,1242 1402,1263 1419,1283 1434,1303 1447,1321 1457,1338 1465,1354 1480,1383 1496,1408 1513,1431 1531,1450 1548,1466 1566,1479 1582,1488 1597,1493 1605,1494 1614,1493 1625,1489 1635,1483 1645,1475 1654,1463 1662,1450 1667,1433 1670,1414 1669,1392 1663,1367 1653,1339 1638,1308 1616,1274 1588,1236 1553,1196 1514,1157 1474,1125 1435,1099 1396,1077 1359,1060 1323,1048 1289,1039 1257,1033 1227,1030 1200,1029 1177,1029 1156,1030 1140,1033 1128,1035 1121,1036 1118,1037 1118,1037"/>
<polygon class="pen1 brush2" points="1104,1104 1121,1152 1135,1201 1145,1250 1152,1296 1155,1340 1155,1379 1153,1413 1148,1440 1140,1484 1139,1523 1144,1556 1154,1579 1158,1584 1162,1588 1166,1592 1170,1594 1174,1596 1178,1598 1183,1598 1187,1598 1201,1592 1215,1578 1228,1557 1239,1531 1249,1500 1257,1465 1262,1427 1263,1387 1261,1346 1255,1305 1244,1264 1228,1225 1207,1189 1179,1156 1145,1127 1104,1104"/>
<polygon class="pen1 brush2" points="888,435 933,410 977,395 1018,389 1058,389 1095,396 1130,407 1162,423 1191,442 1218,462 1241,484 1262,505 1279,524 1292,541 1302,555 1308,564 1310,567 1259,621 1316,676 1315,679 1312,687 1307,700 1300,716 1290,735 1278,755 1262,777 1243,798 1220,817 1193,835 1163,850 1128,861 1089,867 1045,868 996,862 942,848 982,870 1013,896 1037,927 1054,960 1065,996 1071,1034 1072,1072 1069,1109 1063,1146 1055,1180 1045,1211 1035,1238 1025,1261 1016,1278 1008,1288 1003,1291 932,1272 908,1344 905,1344 896,1345 882,1346 863,1346 842,1345 817,1342 790,1336 762,1327 734,1315 706,1298 679,1276 654,1249 631,1216 612,1176 596,1129 586,1074 561,1119 533,1156 501,1184 468,1206 433,1221 397,1230 361,1235 326,1235 293,1233 261,1228 233,1221 208,1214 187,1208 171,1202 161,1198 158,1196 168,1122 94,1108 92,1100 87,1078 82,1045 81,1004 87,957 102,908 131,859 175,814 187,805 201,796 215,787 231,779 248,771 267,763 286,756 307,750 284,752 262,752 241,750 222,747 203,743 186,738 169,731 154,723 106,690 69,648 42,603 23,556 11,513 4,478 1,454 0,445 70,419 44,345 46,343 53,337 63,327 78,316 96,304 118,292 142,280 170,270 200,262 232,259 267,259 304,265 342,278 382,297 423,325 465,362 455,312 453,266 459,224 472,187 490,154 512,124 538,98 565,76 593,56 622,40 649,27 673,17 694,9 711,4 721,1 725,0 769,64 831,26 834,28 841,33 852,41 865,53 880,68 896,86 912,107 927,132 939,159 949,190 954,224 955,260 949,300 937,342 917,387 888,435"/>
<polygon class="pen1 brush0" points="854,685 862,686 870,686 877,684 884,681 890,676 895,671 899,664 902,656 903,648 903,640 901,633 898,626 893,620 887,615 881,611 873,608 865,607 857,608 849,610 843,614 836,619 831,624 827,631 824,638 824,641 824,643 824,646 824,649 812,654 798,661 783,668 767,676 752,684 738,693 726,701 718,708 720,704 725,693 734,677 744,658 755,636 768,615 780,594 792,577 799,577 806,576 812,573 818,570 823,566 828,560 831,554 833,547 834,539 834,531 832,524 829,517 824,510 818,505 811,501 803,499 795,498 788,499 781,501 774,504 768,509 763,514 759,521 756,529 755,537 756,545 758,552 762,560 754,574 744,591 733,610 722,628 710,646 699,663 688,676 679,686 683,665 687,645 692,624 697,603 703,583 708,562 714,542 719,522 728,517 735,511 740,503 743,493 744,485 744,478 742,470 739,463 734,457 728,452 722,448 714,445 706,445 698,446 691,448 684,451 678,456 673,462 669,469 667,476 666,486 667,495 670,503 675,510 670,529 664,554 658,581 651,608 645,634 641,656 638,671 637,679 630,650 624,609 620,566 617,530 622,525 626,519 629,513 631,506 632,498 632,491 630,483 627,476 622,470 616,465 609,461 601,459 593,458 586,459 578,461 572,465 566,469 561,475 557,482 554,489 553,497 554,505 556,512 560,519 564,525 569,530 576,534 583,537 583,537 589,581 592,628 593,666 593,681 589,670 581,658 572,644 562,630 551,616 540,603 530,591 522,581 523,579 523,576 524,573 525,571 526,563 525,555 523,548 519,541 515,535 509,530 502,526 495,523 487,523 479,524 472,526 465,529 459,534 454,540 450,547 448,554 447,562 447,569 449,577 452,583 456,590 462,595 469,599 476,601 481,602 486,602 491,602 496,601 520,626 536,651 547,676 552,700 554,721 555,737 554,748 553,752 569,751 584,751 600,752 615,754 629,757 643,760 657,763 669,767 680,771 691,775 700,779 707,782 714,785 718,787 721,788 722,789 723,785 727,775 734,760 746,743 761,724 781,706 807,690 839,679 843,681 846,683 850,684 854,685"/>
</g>
</svg>
