<?xml version="1.0" encoding="UTF-8" standalone="no"?>
<!DOCTYPE svg PUBLIC "-//W3C//DTD SVG 1.0//EN" "http://www.w3.org/TR/2001/REC-SVG-20010904/DTD/svg10.dtd">
<svg xmlns="http://www.w3.org/2000/svg" xmlns:xlink="http://www.w3.org/1999/xlink" fill-rule="evenodd" height="1.98in" preserveAspectRatio="none" stroke-linecap="round" viewBox="0 0 1912 1980" width="1.912in">
<style type="text/css">
.brush0 { fill: rgb(255,255,255); }
.pen0 { stroke: rgb(0,0,0); stroke-width: 1; stroke-linejoin: round; }
.brush1 { fill: none; }
.pen1 { stroke: none; }
.brush2 { fill: rgb(0,0,0); }
</style>
<g>
<polygon class="pen1 brush2" points="1912,13 1907,28 1900,46 1892,67 1882,92 1870,119 1857,150 1841,182 1824,217 1805,255 1783,294 1760,335 1734,377 1707,421 1677,466 1644,512 1609,558 1572,605 1532,653 1490,700 1445,748 1397,795 1347,841 1293,887 1237,932 1178,976 1116,1019 1051,1060 982,1100 911,1137 836,1173 758,1206 676,1237 714,1199 752,1160 790,1122 828,1084 867,1045 905,1007 943,969 981,930 1019,892 1058,854 1096,816 1134,777 1173,739 1211,701 1250,663 1288,624 1327,586 1366,548 1404,510 1443,471 1482,433 1521,395 1559,357 1598,318 1637,280 1676,242 1716,204 1755,166 1794,127 1833,89 1873,51 1912,13 1912,13"/>
<polygon class="pen1 brush2" points="662,1219 700,1180 737,1141 775,1103 813,1064 851,1025 889,987 926,948 964,910 1002,871 1040,833 1078,794 1116,756 1154,717 1192,679 1231,641 1269,603 1307,565 1345,527 1384,489 1422,451 1460,413 1499,375 1537,337 1576,299 1614,262 1653,224 1692,187 1730,149 1769,112 1808,74 1847,37 1886,0 1784,31 1688,64 1598,100 1513,137 1434,177 1359,218 1289,260 1225,304 1164,348 1108,394 1057,440 1009,487 966,534 926,581 890,627 857,674 827,720 801,765 778,810 757,853 739,895 723,936 709,975 698,1012 689,1047 681,1080 675,1110 670,1138 667,1163 664,1185 663,1204 662,1219"/>
<polygon class="pen1 brush2" points="182,1962 182,1960 181,1952 180,1941 179,1925 180,1905 183,1882 188,1856 196,1827 207,1796 223,1762 243,1726 268,1689 299,1651 337,1612 381,1573 433,1533 416,1532 395,1530 369,1527 341,1521 310,1514 278,1504 244,1493 210,1479 176,1463 143,1445 112,1424 82,1401 56,1374 33,1345 14,1313 0,1278 2,1277 9,1275 20,1271 35,1268 54,1265 77,1263 103,1262 133,1264 166,1268 201,1276 240,1288 281,1305 324,1326 370,1354 418,1388 467,1429 453,1393 440,1340 430,1276 426,1204 431,1129 447,1056 479,989 527,933 529,935 534,940 541,949 551,961 561,977 572,997 583,1020 594,1048 603,1079 610,1115 614,1155 616,1198 613,1246 606,1299 593,1356 575,1417 589,1402 606,1385 627,1368 649,1349 674,1331 701,1313 730,1295 761,1279 792,1264 825,1252 858,1242 892,1235 926,1231 960,1232 994,1237 1027,1247 1026,1250 1024,1257 1020,1268 1013,1283 1003,1300 991,1320 974,1342 954,1365 929,1389 900,1413 865,1436 825,1459 779,1480 726,1498 667,1514 601,1527 612,1532 626,1541 645,1555 666,1572 689,1594 713,1619 737,1647 761,1677 783,1710 804,1746 822,1782 837,1820 847,1860 852,1900 851,1940 844,1980 805,1970 768,1954 734,1932 703,1906 674,1876 647,1843 623,1809 601,1773 582,1739 566,1705 552,1674 540,1646 531,1623 525,1605 521,1593 520,1588 519,1592 517,1603 513,1618 507,1639 499,1663 488,1691 475,1721 458,1752 438,1784 414,1816 387,1847 355,1877 319,1904 278,1927 233,1947 182,1962"/>
<polygon class="pen1 brush0" points="591,1461 929,1297 933,1304 595,1470 598,1478 600,1485 601,1493 602,1501 601,1511 600,1520 598,1529 594,1538 590,1546 585,1554 579,1561 572,1567 787,1882 781,1886 567,1571 561,1575 555,1578 549,1581 543,1583 536,1585 529,1587 523,1588 516,1588 510,1588 504,1587 498,1586 493,1585 487,1583 482,1581 477,1578 472,1575 250,1870 243,1865 464,1571 456,1565 450,1558 444,1550 439,1541 435,1532 432,1522 430,1512 429,1501 429,1498 429,1494 429,1490 430,1487 74,1322 78,1315 433,1479 438,1466 444,1454 452,1443 462,1434 473,1426 485,1421 499,1417 513,1416 514,1021 521,1021 521,1416 532,1417 543,1420 553,1424 562,1429 571,1436 579,1444 585,1452 591,1461"/>
<polygon class="pen1 brush2" points="517,1558 528,1557 538,1554 547,1549 555,1542 562,1534 567,1524 570,1514 571,1503 570,1492 567,1482 562,1473 555,1465 547,1458 538,1453 528,1450 517,1449 506,1450 496,1453 486,1458 478,1465 471,1473 466,1482 463,1492 462,1503 463,1514 466,1524 471,1534 478,1542 486,1549 496,1554 506,1557 517,1558"/>
</g>
</svg>
