<?xml version="1.0" encoding="UTF-8" standalone="no"?>
<!DOCTYPE svg PUBLIC "-//W3C//DTD SVG 1.0//EN" "http://www.w3.org/TR/2001/REC-SVG-20010904/DTD/svg10.dtd">
<svg xmlns="http://www.w3.org/2000/svg" xmlns:xlink="http://www.w3.org/1999/xlink" fill-rule="evenodd" height="1.544in" preserveAspectRatio="none" stroke-linecap="round" viewBox="0 0 1988 1544" width="1.988in">
<style type="text/css">
.brush0 { fill: rgb(255,255,255); }
.pen0 { stroke: rgb(0,0,0); stroke-width: 1; stroke-linejoin: round; }
.brush1 { fill: none; }
.pen1 { stroke: none; }
.brush2 { fill: rgb(0,0,0); }
</style>
<g>
<polygon class="pen1 brush2" points="472,410 467,321 460,183 454,56 451,0 482,316 490,8 509,312 536,21 530,316 588,31 557,312 638,45 580,312 678,66 607,321 709,79 580,458 472,410"/>
<polygon class="pen1 brush2" points="637,494 632,406 624,268 617,141 614,85 645,400 654,93 672,396 698,106 695,400 752,116 721,396 802,129 743,396 841,152 770,406 873,164 743,542 637,494"/>
<polygon class="pen1 brush2" points="799,596 793,508 786,370 779,243 776,187 807,504 817,196 834,498 861,208 857,504 915,217 884,498 963,231 905,498 1002,254 932,508 1033,267 905,646 799,596"/>
<polygon class="pen1 brush2" points="948,681 950,647 955,593 960,526 966,455 972,386 977,328 981,287 982,272 969,589 1019,287 996,589 1061,306 1016,596 1114,322 1043,595 1161,342 1066,599 1196,369 1090,612 1225,387 1046,744 948,681"/>
<polygon class="pen1 brush2" points="1087,765 1091,731 1098,678 1107,611 1117,541 1126,472 1134,414 1139,374 1141,359 1114,676 1178,376 1141,677 1221,396 1161,684 1272,416 1188,686 1317,437 1211,690 1353,467 1235,704 1381,485 1184,833 1087,765"/>
<polygon class="pen1 brush2" points="1221,862 1226,828 1234,775 1244,708 1255,638 1265,569 1274,511 1281,471 1283,456 1249,771 1320,473 1276,774 1361,495 1296,782 1411,514 1323,784 1456,538 1344,788 1492,568 1370,802 1519,588 1314,930 1221,862"/>
<polygon class="pen1 brush2" points="1348,964 1354,930 1364,877 1377,812 1390,742 1403,674 1414,617 1422,577 1425,562 1380,876 1462,581 1407,877 1502,603 1428,887 1552,626 1455,889 1596,650 1476,895 1630,680 1499,910 1657,701 1442,1038 1348,964"/>
<polygon class="pen1 brush2" points="463,419 452,428 436,440 417,456 394,474 369,494 342,516 315,538 287,561 259,583 233,604 209,623 188,641 170,655 156,666 147,673 144,676 400,487 177,700 415,511 216,724 432,525 259,758 448,548 302,785 462,564 346,801 486,578 375,815 571,466 463,419"/>
<polygon class="pen1 brush2" points="627,498 616,506 599,518 579,533 556,551 530,570 503,591 474,613 446,635 418,656 391,677 366,696 344,713 326,727 312,738 303,745 300,747 561,565 333,771 576,588 373,797 594,602 414,832 607,626 455,859 621,643 499,875 645,656 529,889 733,547 627,498"/>
<polygon class="pen1 brush2" points="786,613 774,620 756,629 734,641 708,655 680,670 650,687 619,704 587,722 557,739 527,755 500,770 476,784 456,795 440,804 430,809 427,811 712,670 455,839 722,696 489,870 738,711 526,910 748,737 563,944 759,755 603,967 782,774 631,987 884,679 786,613"/>
<polygon class="pen1 brush2" points="927,707 915,714 898,725 877,739 852,755 825,773 797,792 767,811 737,831 707,851 679,869 653,887 631,902 611,915 597,925 587,931 584,933 857,770 615,960 870,794 654,987 887,808 692,1025 898,832 732,1056 912,850 775,1075 935,866 803,1092 1029,762 927,707"/>
<polygon class="pen1 brush2" points="1060,795 1048,802 1030,811 1008,824 983,838 955,854 926,871 895,889 864,907 834,924 805,941 778,956 754,970 734,982 719,990 709,996 706,998 988,853 736,1028 999,876 770,1058 1015,893 807,1098 1025,919 846,1132 1037,937 887,1153 1059,954 915,1172 1161,858 1060,795"/>
<polygon class="pen1 brush2" points="1213,883 1200,890 1183,899 1160,911 1135,925 1106,940 1076,957 1045,974 1014,991 983,1007 953,1023 926,1038 902,1051 882,1062 866,1071 856,1076 853,1078 1138,940 881,1106 1148,966 915,1139 1164,981 951,1180 1174,1008 986,1214 1185,1027 1026,1237 1206,1045 1053,1257 1310,950 1213,883"/>
<polygon class="pen1 brush2" points="1330,991 1317,997 1298,1005 1275,1015 1249,1027 1219,1040 1188,1054 1155,1069 1122,1084 1090,1098 1059,1112 1031,1125 1006,1136 985,1145 969,1153 959,1157 955,1159 1250,1042 982,1190 1259,1068 1013,1224 1273,1085 1046,1268 1280,1112 1080,1305 1292,1132 1117,1331 1311,1152 1144,1352 1421,1065 1330,991"/>
<polygon class="pen1 brush2" points="1708,1409 1710,1407 1709,1405 1705,1403 1700,1401 1692,1399 1682,1397 1670,1395 1656,1393 1641,1391 1624,1390 1605,1389 1584,1388 1562,1388 1539,1388 1515,1389 1489,1390 1462,1391 1435,1394 1406,1397 1377,1400 1347,1405 1316,1410 1285,1416 1254,1423 1222,1430 1190,1439 1158,1449 1126,1460 1094,1472 1062,1485 1030,1499 999,1515 1001,1515 1007,1516 1017,1518 1031,1519 1048,1521 1068,1523 1090,1525 1116,1526 1143,1528 1173,1528 1205,1529 1238,1528 1273,1527 1309,1525 1346,1522 1383,1518 1404,1515 1426,1511 1447,1507 1468,1503 1490,1498 1511,1493 1532,1487 1553,1481 1573,1474 1594,1467 1614,1459 1633,1450 1653,1441 1672,1431 1690,1420 1708,1409"/>
<polygon class="pen1 brush2" points="1756,593 1747,601 1737,644 1727,715 1722,810 1724,923 1738,1047 1767,1176 1813,1306 1817,1287 1826,1233 1836,1153 1843,1053 1842,939 1830,820 1803,703 1756,593"/>
<polygon class="pen1 brush2" points="357,308 369,306 377,300 383,292 385,281 383,269 377,260 369,254 357,252 347,254 338,260 332,269 330,281 332,292 338,300 347,306 357,308 357,308"/>
<polygon class="pen1 brush2" points="276,274 287,272 296,265 302,256 304,245 302,234 296,225 287,219 276,217 265,219 257,225 251,234 249,245 251,256 257,265 265,272 276,274 276,274"/>
<polygon class="pen1 brush2" points="181,238 192,236 200,230 206,222 208,210 206,199 200,190 192,185 181,183 170,185 161,190 154,199 152,210 154,222 161,230 170,236 181,238 181,238"/>
<polygon class="pen1 brush2" points="344,447 354,445 363,439 369,431 371,420 369,408 363,400 354,394 344,392 332,394 324,400 318,408 316,420 318,431 324,439 332,445 344,447 344,447"/>
<polygon class="pen1 brush2" points="259,410 270,408 279,402 284,393 286,382 284,371 279,361 270,355 259,353 248,355 239,361 233,371 231,382 233,393 239,402 248,408 259,410 259,410"/>
<polygon class="pen1 brush2" points="174,368 185,366 194,359 200,350 202,339 200,328 194,319 185,313 174,311 163,313 154,319 147,328 145,339 147,350 154,359 163,366 174,368"/>
<polygon class="pen1 brush2" points="0,196 28,205 56,215 84,225 113,235 142,246 171,257 200,268 230,280 260,292 290,305 320,318 350,332 381,346 411,360 442,375 473,390 504,405 536,421 567,438 599,454 630,471 662,489 694,507 726,525 759,544 791,563 823,583 856,603 888,623 921,644 953,665 986,687 1020,710 1054,734 1089,758 1123,782 1157,806 1190,831 1224,856 1258,881 1291,907 1325,933 1358,959 1391,985 1424,1011 1456,1038 1489,1065 1521,1092 1553,1119 1584,1146 1615,1174 1646,1201 1677,1229 1707,1257 1737,1285 1767,1313 1796,1341 1825,1369 1853,1397 1881,1425 1908,1453 1935,1482 1962,1510 1988,1538 1843,1484 1817,1457 1791,1431 1764,1404 1738,1378 1711,1352 1685,1327 1658,1301 1632,1276 1605,1251 1578,1226 1551,1202 1524,1178 1497,1154 1469,1130 1442,1106 1414,1082 1387,1059 1359,1036 1331,1013 1302,990 1274,968 1246,945 1217,923 1188,901 1159,879 1130,858 1101,836 1071,815 1041,794 1012,773 981,752 951,731 924,713 897,695 870,677 842,659 814,642 786,624 758,606 729,589 700,571 671,554 641,537 611,520 581,502 551,485 521,468 491,451 460,435 430,418 399,401 368,385 338,369 307,352 276,336 245,320 214,304 184,288 153,273 122,257 91,242 61,226 30,211 0,196"/>
</g>
</svg>
