<?xml version="1.0" encoding="UTF-8" standalone="no"?>
<!DOCTYPE svg PUBLIC "-//W3C//DTD SVG 1.0//EN" "http://www.w3.org/TR/2001/REC-SVG-20010904/DTD/svg10.dtd">
<svg xmlns="http://www.w3.org/2000/svg" xmlns:xlink="http://www.w3.org/1999/xlink" fill-rule="evenodd" height="1.4899328859060403in" preserveAspectRatio="none" stroke-linecap="round" viewBox="0 0 196 222" width="1.3154362416107384in">
<style type="text/css">
.brush0 { fill: rgb(255,255,255); }
.pen0 { stroke: rgb(0,0,0); stroke-width: 1; stroke-linejoin: round; }
.brush1 { fill: none; }
.pen1 { stroke: none; }
.brush2 { fill: rgb(0,0,0); }
.pen2 { stroke: none; }
.brush3 { fill: none; }
.brush4 { fill: none; }
.brush5 { fill: none; }
.brush6 { fill: none; }
</style>
<g>
<path class="pen2 brush2" d="M 871,2542  L 864,2536 861,2536 857,2534 778,2488 585,2353 581,2327 577,2292 574,2264 571,2234 567,2139 570,2067 572,2055 574,2044 618,1983 626,1982 627,1981 676,1932 762,1888 771,1878 774,1876 775,1873 785,1859 793,1848 795,1847 795,1846 796,1841 806,1838 824,1735 827,1734 827,1728 825,1710 822,1685 818,1654 790,1475 775,1392 771,1373 767,1355 763,1338 759,1322 733,1252 729,1247 672,1206 665,1182 664,1172 661,1109 656,1066 650,1041 618,968 544,850 530,827 505,780 483,711 482,700 481,683 479,668 476,647 469,608 464,577 440,393 443,339 473,296 497,276 501,276 502,274 503,272 504,269 504,265 514,265 548,221 556,215 581,216 591,219 655,251 658,254 660,254 660,255 669,330 675,355 682,381 690,407 707,461 724,516 732,544 739,572 745,601 753,661 757,693 759,696 771,723 777,744 790,797 803,859 824,948 831,973 834,984 848,1017 858,1025 859,1046 861,1059 865,1089 950,1224 952,1234 957,1234 1065,1276 1146,1307 1160,1313 1160,1317 1278,1324 1284,1326 1338,1351 1346,1351 1351,1338 1368,1329 1383,1328 1463,1349 1477,1351 1589,1338 1615,1333 1664,1322 1695,1315 1731,1307 1733,1306 1744,1292 1747,1288 1753,1280 1775,1224 1827,1119 1868,1046 1871,1035 1874,1033 1885,1018 1903,962 1906,961 1908,958 1910,955 1931,911 1972,859 1976,859 1979,859 1981,858 1982,857 1983,854 1983,852 1983,848 1985,848 1986,847 1988,845 1988,843 1990,829 1989,819 1986,786 1994,726 2000,724 2004,723 2018,702 2022,702 2024,700 2025,699 2025,696 2024,688 2024,685 2036,679 2038,677 2042,676 2048,675 2083,679 2118,707 2119,715 2127,715 2129,706 2130,703 2132,701 2133,700 2139,701 2160,713 2160,723 2186,742 2188,747 2150,879 2146,880 2139,884 2125,910 2109,980 2100,1057 2098,1100 2097,1105 2097,1109 2095,1109 2093,1109 2086,1110 2046,1127 2045,1129 2042,1130 2039,1132 2032,1137 2024,1147 2021,1153 2003,1190 1970,1300 1962,1345 1962,1348 1960,1349 1937,1380 1922,1414 1916,1422 1894,1454 1892,1457 1891,1460 1890,1465 1889,1475 1894,1512 1919,1596 1932,1627 1940,1639 1941,1640 1952,1659 1956,1672 1961,1714 1969,1743 1972,1744 1953,1841 1946,1862 1902,1986 1897,2005 1867,2126 1878,2137 1878,2146 1877,2155 1875,2165 1850,2265 1849,2266 1847,2272 1840,2283 1828,2302 1795,2369 1785,2372 1785,2379 1782,2389 1771,2401 1744,2434 1743,2438 1736,2446 1734,2449 1711,2494 1709,2495 1702,2505 1681,2546 1670,2547 1573,2543 1558,2529 1557,2524 1556,2520 1556,2515 1535,2514 1522,2513 1508,2511 1436,2502 1400,2496 1391,2495 1384,2494 1380,2494 1379,2494 1379,2494 1369,2495 1369,2496 1368,2504 1338,2513 1328,2521 1327,2523 1327,2525 1324,2525 1302,2529 1290,2532 1276,2535 1216,2548 1142,2544 1139,2541 1132,2531 1066,2471 1059,2468 1052,2467 1035,2494 1031,2494 1016,2501 996,2515 995,2516 983,2529 983,2532 983,2536 917,2562 909,2562 900,2560 871,2542 z"/>
<polygon class="pen2 brush3" points="864,2534 863,2538 861,2538 860,2538 862,2534"/>
<polygon class="pen2 brush3" points="862,2534 860,2538 856,2536 856,2536 858,2533"/>
<polygon class="pen2 brush3" points="858,2533 856,2536 777,2490 777,2490 779,2487"/>
<polygon class="pen2 brush3" points="779,2487 777,2490 584,2355 583,2353 587,2352"/>
<polygon class="pen2 brush3" points="587,2352 583,2353 579,2327 579,2327 583,2327"/>
<polygon class="pen2 brush3" points="583,2327 579,2327 575,2292 575,2292 579,2292"/>
<polygon class="pen2 brush3" points="579,2292 575,2292 572,2264 572,2264 576,2264"/>
<polygon class="pen2 brush3" points="576,2264 572,2264 569,2234 569,2234 573,2234"/>
<polygon class="pen2 brush3" points="573,2234 569,2234 565,2139 565,2139 569,2139"/>
<polygon class="pen2 brush3" points="569,2139 565,2139 568,2067 568,2067 572,2067"/>
<polygon class="pen2 brush3" points="572,2067 568,2067 570,2055 570,2055 574,2055"/>
<polygon class="pen2 brush3" points="574,2055 570,2055 572,2044 573,2043 576,2045"/>
<polygon class="pen2 brush3" points="576,2045 573,2043 617,1982 618,1981 619,1985"/>
<polygon class="pen2 brush3" points="619,1985 618,1981 625,1980 627,1983 626,1984"/>
<polygon class="pen2 brush3" points="627,1983 625,1980 626,1980 626,1980 628,1982"/>
<polygon class="pen2 brush3" points="628,1982 626,1980 675,1931 675,1931 677,1934"/>
<polygon class="pen2 brush3" points="677,1934 675,1931 761,1887 763,1889 763,1890"/>
<polygon class="pen2 brush3" points="763,1889 761,1887 770,1877 770,1877 772,1879"/>
<polygon class="pen2 brush3" points="772,1879 770,1877 773,1875 776,1877 775,1878"/>
<polygon class="pen2 brush3" points="776,1877 773,1875 773,1873 774,1872 777,1874"/>
<polygon class="pen2 brush3" points="777,1874 774,1872 784,1858 784,1858 787,1860"/>
<polygon class="pen2 brush3" points="787,1860 784,1858 792,1847 792,1847 794,1850"/>
<polygon class="pen2 brush3" points="794,1850 792,1847 794,1846 795,1847 797,1847 796,1849"/>
<polygon class="pen2 brush3" points="797,1847 795,1847 793,1847 793,1846 793,1846 797,1846"/>
<polygon class="pen2 brush3" points="797,1846 793,1846 794,1841 796,1839 798,1843"/>
<polygon class="pen2 brush3" points="798,1843 796,1839 805,1837 808,1838 807,1840"/>
<polygon class="pen2 brush3" points="808,1838 805,1837 822,1735 824,1733 826,1736"/>
<polygon class="pen2 brush3" points="826,1736 824,1733 825,1733 829,1734 828,1736"/>
<polygon class="pen2 brush3" points="829,1734 825,1733 825,1728 829,1728 829,1728"/>
<polygon class="pen2 brush3" points="829,1728 825,1728 823,1710 827,1710 827,1710"/>
<polygon class="pen2 brush3" points="827,1710 823,1710 820,1685 824,1685 824,1685"/>
<polygon class="pen2 brush3" points="824,1685 820,1685 816,1654 820,1654 820,1654"/>
<polygon class="pen2 brush3" points="820,1654 816,1654 788,1475 792,1475 792,1475"/>
<polygon class="pen2 brush3" points="792,1475 788,1475 773,1392 777,1392 777,1392"/>
<polygon class="pen2 brush3" points="777,1392 773,1392 769,1374 773,1373 773,1373"/>
<polygon class="pen2 brush3" points="773,1373 769,1374 765,1356 769,1355 769,1355"/>
<polygon class="pen2 brush3" points="769,1355 765,1356 761,1339 765,1338 765,1338"/>
<polygon class="pen2 brush3" points="765,1338 761,1339 757,1323 761,1322 761,1322"/>
<polygon class="pen2 brush3" points="761,1322 757,1323 732,1253 734,1251 735,1252"/>
<polygon class="pen2 brush3" points="734,1251 732,1253 728,1248 730,1246 730,1246"/>
<polygon class="pen2 brush3" points="730,1246 728,1248 671,1208 670,1207 674,1205"/>
<polygon class="pen2 brush3" points="674,1205 670,1207 663,1183 663,1182 667,1182"/>
<polygon class="pen2 brush3" points="667,1182 663,1182 662,1172 662,1172 666,1172"/>
<polygon class="pen2 brush3" points="666,1172 662,1172 659,1109 663,1109 663,1109"/>
<polygon class="pen2 brush3" points="663,1109 659,1109 654,1066 658,1066 658,1066"/>
<polygon class="pen2 brush3" points="658,1066 654,1066 648,1042 652,1040 652,1041"/>
<polygon class="pen2 brush3" points="652,1040 648,1042 617,969 620,967 620,967"/>
<polygon class="pen2 brush3" points="620,967 617,969 543,851 543,851 546,849"/>
<polygon class="pen2 brush3" points="546,849 543,851 529,828 529,828 532,826"/>
<polygon class="pen2 brush3" points="532,826 529,828 504,781 503,781 507,779"/>
<polygon class="pen2 brush3" points="507,779 503,781 481,712 481,711 485,711"/>
<polygon class="pen2 brush3" points="485,711 481,711 480,700 480,700 484,700"/>
<polygon class="pen2 brush3" points="484,700 480,700 479,683 483,683 483,683"/>
<polygon class="pen2 brush3" points="483,683 479,683 477,668 481,668 481,668"/>
<polygon class="pen2 brush3" points="481,668 477,668 474,647 478,647 478,647"/>
<polygon class="pen2 brush3" points="478,647 474,647 467,608 467,608 471,608"/>
<polygon class="pen2 brush3" points="471,608 467,608 462,577 462,577 466,577"/>
<polygon class="pen2 brush3" points="466,577 462,577 438,393 438,393 442,393"/>
<polygon class="pen2 brush3" points="442,393 438,393 441,339 442,338 445,340"/>
<polygon class="pen2 brush3" points="445,340 442,338 472,295 472,295 474,297"/>
<polygon class="pen2 brush3" points="474,297 472,295 496,275 497,274 498,278"/>
<polygon class="pen2 brush3" points="498,278 497,274 500,274 503,277 501,278"/>
<polygon class="pen2 brush3" points="503,277 500,274 501,273 501,273 504,275"/>
<polygon class="pen2 brush3" points="504,275 501,273 502,271 505,273 505,273"/>
<polygon class="pen2 brush3" points="505,273 502,271 502,269 506,269 506,270"/>
<polygon class="pen2 brush3" points="506,269 502,269 502,265 504,263 506,267"/>
<polygon class="pen2 brush3" points="506,267 504,263 513,263 516,266 514,267"/>
<polygon class="pen2 brush3" points="516,266 513,263 547,220 547,220 549,222"/>
<polygon class="pen2 brush3" points="549,222 547,220 555,214 556,213 557,217"/>
<polygon class="pen2 brush3" points="557,217 556,213 581,214 582,214 581,218"/>
<polygon class="pen2 brush3" points="581,218 582,214 592,217 592,218 590,221"/>
<polygon class="pen2 brush3" points="590,221 592,218 656,250 656,250 654,253"/>
<polygon class="pen2 brush3" points="654,253 656,250 659,252 658,256 657,255"/>
<polygon class="pen2 brush3" points="658,256 659,252 660,252 662,254 660,254 660,256"/>
<polygon class="pen2 brush3" points="658,254 660,254 662,254 662,255 658,255 658,255"/>
<polygon class="pen2 brush3" points="658,255 662,255 671,330 667,331 667,330"/>
<polygon class="pen2 brush3" points="667,331 671,330 677,355 673,356 673,356"/>
<polygon class="pen2 brush3" points="673,356 677,355 684,381 680,382 680,382"/>
<polygon class="pen2 brush3" points="680,382 684,381 692,407 688,408 688,408"/>
<polygon class="pen2 brush3" points="688,408 692,407 709,461 709,461 705,462"/>
<polygon class="pen2 brush3" points="705,462 709,461 726,516 726,516 722,517"/>
<polygon class="pen2 brush3" points="722,517 726,516 734,544 734,544 730,545"/>
<polygon class="pen2 brush3" points="730,545 734,544 741,572 741,572 737,573"/>
<polygon class="pen2 brush3" points="737,573 741,572 747,601 747,601 743,601"/>
<polygon class="pen2 brush3" points="743,601 747,601 755,661 755,661 751,661"/>
<polygon class="pen2 brush3" points="751,661 755,661 759,693 756,694 755,693"/>
<polygon class="pen2 brush3" points="756,694 759,693 761,695 761,695 758,697"/>
<polygon class="pen2 brush3" points="758,697 761,695 773,722 773,723 769,724"/>
<polygon class="pen2 brush3" points="769,724 773,723 779,744 779,744 775,745"/>
<polygon class="pen2 brush3" points="775,745 779,744 792,797 792,797 788,798"/>
<polygon class="pen2 brush3" points="788,798 792,797 805,859 801,860 801,860"/>
<polygon class="pen2 brush3" points="801,860 805,859 826,948 822,949 822,949"/>
<polygon class="pen2 brush3" points="822,949 826,948 833,973 833,973 829,974"/>
<polygon class="pen2 brush3" points="829,974 833,973 836,984 833,985 832,985"/>
<polygon class="pen2 brush3" points="833,985 836,984 850,1016 847,1019 847,1018"/>
<polygon class="pen2 brush3" points="847,1019 850,1016 859,1024 860,1025 856,1026"/>
<polygon class="pen2 brush3" points="856,1026 860,1025 861,1046 857,1046 857,1046"/>
<polygon class="pen2 brush3" points="857,1046 861,1046 863,1059 863,1059 859,1059"/>
<polygon class="pen2 brush3" points="859,1059 863,1059 867,1089 864,1090 863,1089"/>
<polygon class="pen2 brush3" points="864,1090 867,1089 952,1223 952,1224 948,1225"/>
<polygon class="pen2 brush3" points="948,1225 952,1224 954,1232 952,1236 950,1234"/>
<polygon class="pen2 brush3" points="952,1236 954,1232 957,1232 958,1233 957,1236"/>
<polygon class="pen2 brush3" points="957,1236 958,1233 1066,1275 1065,1278 1065,1278"/>
<polygon class="pen2 brush3" points="1065,1278 1066,1275 1147,1306 1147,1306 1145,1309"/>
<polygon class="pen2 brush3" points="1145,1309 1147,1306 1161,1312 1162,1313 1158,1314"/>
<polygon class="pen2 brush3" points="1158,1314 1162,1313 1162,1316 1160,1319 1158,1317"/>
<polygon class="pen2 brush3" points="1160,1319 1162,1316 1278,1322 1279,1322 1278,1326"/>
<polygon class="pen2 brush3" points="1278,1326 1279,1322 1285,1324 1285,1325 1283,1328"/>
<polygon class="pen2 brush3" points="1283,1328 1285,1325 1339,1349 1338,1353 1337,1353"/>
<polygon class="pen2 brush3" points="1338,1353 1339,1349 1345,1349 1348,1352 1346,1353"/>
<polygon class="pen2 brush3" points="1348,1352 1345,1349 1350,1338 1350,1337 1353,1339"/>
<polygon class="pen2 brush3" points="1353,1339 1350,1337 1367,1328 1368,1327 1369,1331"/>
<polygon class="pen2 brush3" points="1369,1331 1368,1327 1383,1326 1384,1326 1383,1330"/>
<polygon class="pen2 brush3" points="1383,1330 1384,1326 1463,1347 1463,1351 1463,1351"/>
<polygon class="pen2 brush3" points="1463,1351 1463,1347 1477,1349 1477,1353 1477,1353"/>
<polygon class="pen2 brush3" points="1477,1353 1477,1349 1589,1336 1589,1340 1589,1340"/>
<polygon class="pen2 brush3" points="1589,1340 1589,1336 1615,1331 1616,1335 1615,1335"/>
<polygon class="pen2 brush3" points="1616,1335 1615,1331 1664,1320 1665,1324 1665,1324"/>
<polygon class="pen2 brush3" points="1665,1324 1664,1320 1695,1313 1695,1313 1696,1317"/>
<polygon class="pen2 brush3" points="1696,1317 1695,1313 1731,1305 1732,1309 1732,1309"/>
<polygon class="pen2 brush3" points="1732,1309 1731,1305 1732,1305 1734,1307 1734,1308"/>
<polygon class="pen2 brush3" points="1734,1307 1732,1305 1743,1291 1746,1293 1745,1293"/>
<polygon class="pen2 brush3" points="1746,1293 1743,1291 1746,1287 1746,1287 1749,1289"/>
<polygon class="pen2 brush3" points="1749,1289 1746,1287 1752,1279 1755,1281 1755,1281"/>
<polygon class="pen2 brush3" points="1755,1281 1752,1279 1774,1224 1774,1223 1777,1225"/>
<polygon class="pen2 brush3" points="1777,1225 1774,1223 1826,1118 1826,1118 1829,1120"/>
<polygon class="pen2 brush3" points="1829,1120 1826,1118 1867,1045 1870,1047 1870,1047"/>
<polygon class="pen2 brush3" points="1870,1047 1867,1045 1869,1035 1870,1034 1873,1036"/>
<polygon class="pen2 brush3" points="1873,1036 1870,1034 1873,1032 1876,1034 1875,1035"/>
<polygon class="pen2 brush3" points="1876,1034 1873,1032 1884,1017 1887,1019 1887,1019"/>
<polygon class="pen2 brush3" points="1887,1019 1884,1017 1901,962 1903,960 1905,964"/>
<polygon class="pen2 brush3" points="1905,964 1903,960 1905,960 1908,962 1907,963"/>
<polygon class="pen2 brush3" points="1908,962 1905,960 1907,957 1907,957 1910,959"/>
<polygon class="pen2 brush3" points="1910,959 1907,957 1909,954 1912,956 1912,956"/>
<polygon class="pen2 brush3" points="1912,956 1909,954 1930,910 1930,910 1933,912"/>
<polygon class="pen2 brush3" points="1933,912 1930,910 1971,858 1972,857 1973,861"/>
<polygon class="pen2 brush3" points="1973,861 1972,857 1976,857 1976,857 1976,861"/>
<polygon class="pen2 brush3" points="1976,861 1976,857 1979,857 1980,861 1979,861"/>
<polygon class="pen2 brush3" points="1980,861 1979,857 1980,857 1982,859 1982,860"/>
<polygon class="pen2 brush3" points="1982,859 1980,857 1981,856 1984,858 1983,858"/>
<polygon class="pen2 brush3" points="1984,858 1981,856 1981,854 1985,854 1985,855"/>
<polygon class="pen2 brush3" points="1985,854 1981,854 1981,852 1981,852 1985,852"/>
<polygon class="pen2 brush3" points="1985,852 1981,852 1981,848 1983,846 1983,848 1985,848"/>
<polygon class="pen2 brush3" points="1983,850 1983,848 1983,846 1985,846 1985,848 1986,849 1985,850"/>
<polygon class="pen2 brush3" points="1986,849 1985,848 1984,847 1985,846 1985,846 1987,848"/>
<polygon class="pen2 brush3" points="1987,848 1985,846 1986,844 1990,845 1989,846"/>
<polygon class="pen2 brush3" points="1990,845 1986,844 1986,843 1986,843 1990,843"/>
<polygon class="pen2 brush3" points="1990,843 1986,843 1988,829 1992,829 1992,829"/>
<polygon class="pen2 brush3" points="1992,829 1988,829 1987,819 1987,819 1991,819"/>
<polygon class="pen2 brush3" points="1991,819 1987,819 1984,786 1984,786 1988,786"/>
<polygon class="pen2 brush3" points="1988,786 1984,786 1992,726 1994,724 1996,727"/>
<polygon class="pen2 brush3" points="1996,727 1994,724 2000,722 2000,722 2001,726"/>
<polygon class="pen2 brush3" points="2001,726 2000,722 2003,722 2006,724 2005,725"/>
<polygon class="pen2 brush3" points="2006,724 2003,722 2017,701 2018,700 2019,704"/>
<polygon class="pen2 brush3" points="2019,704 2018,700 2021,700 2023,703 2022,704"/>
<polygon class="pen2 brush3" points="2023,703 2021,700 2023,699 2023,699 2025,701"/>
<polygon class="pen2 brush3" points="2025,701 2023,699 2024,698 2025,699 2027,699 2026,700"/>
<polygon class="pen2 brush3" points="2027,699 2025,699 2023,699 2023,696 2027,696 2027,696"/>
<polygon class="pen2 brush3" points="2027,696 2023,696 2022,688 2022,688 2026,688"/>
<polygon class="pen2 brush3" points="2026,688 2022,688 2022,685 2023,684 2026,686"/>
<polygon class="pen2 brush3" points="2026,686 2023,684 2035,678 2037,680 2037,681"/>
<polygon class="pen2 brush3" points="2037,680 2035,678 2037,676 2038,675 2039,679"/>
<polygon class="pen2 brush3" points="2039,679 2038,675 2042,674 2042,674 2042,678"/>
<polygon class="pen2 brush3" points="2042,678 2042,674 2048,673 2048,673 2048,677"/>
<polygon class="pen2 brush3" points="2048,677 2048,673 2083,677 2084,678 2082,681"/>
<polygon class="pen2 brush3" points="2082,681 2084,678 2119,706 2120,707 2116,708"/>
<polygon class="pen2 brush3" points="2116,708 2120,707 2121,713 2119,717 2117,715"/>
<polygon class="pen2 brush3" points="2119,717 2121,713 2126,713 2129,716 2127,717"/>
<polygon class="pen2 brush3" points="2129,716 2126,713 2127,706 2127,706 2131,707"/>
<polygon class="pen2 brush3" points="2131,707 2127,706 2128,703 2129,702 2132,704"/>
<polygon class="pen2 brush3" points="2132,704 2129,702 2131,700 2131,700 2133,702"/>
<polygon class="pen2 brush3" points="2133,702 2131,700 2132,699 2133,698 2133,700 2134,701"/>
<polygon class="pen2 brush3" points="2133,702 2133,700 2133,698 2139,699 2140,700 2139,703"/>
<polygon class="pen2 brush3" points="2139,703 2140,700 2161,712 2162,713 2158,714"/>
<polygon class="pen2 brush3" points="2158,714 2162,713 2162,722 2159,725 2158,723"/>
<polygon class="pen2 brush3" points="2159,725 2162,722 2187,741 2188,742 2185,743"/>
<polygon class="pen2 brush3" points="2185,743 2188,742 2190,747 2190,748 2186,747"/>
<polygon class="pen2 brush3" points="2186,747 2190,748 2152,880 2151,881 2149,878"/>
<polygon class="pen2 brush3" points="2149,878 2151,881 2147,882 2145,879 2146,878"/>
<polygon class="pen2 brush3" points="2145,879 2147,882 2140,885 2138,883 2138,883"/>
<polygon class="pen2 brush3" points="2138,883 2140,885 2127,911 2123,910 2124,909"/>
<polygon class="pen2 brush3" points="2123,910 2127,911 2111,980 2107,980 2107,980"/>
<polygon class="pen2 brush3" points="2107,980 2111,980 2102,1057 2098,1057 2098,1057"/>
<polygon class="pen2 brush3" points="2098,1057 2102,1057 2100,1100 2100,1100 2096,1100"/>
<polygon class="pen2 brush3" points="2096,1100 2100,1100 2099,1105 2095,1105 2095,1105"/>
<polygon class="pen2 brush3" points="2095,1105 2099,1105 2099,1109 2097,1111 2097,1109 2095,1109"/>
<polygon class="pen2 brush3" points="2097,1107 2097,1109 2097,1111 2095,1111 2095,1111 2095,1107"/>
<polygon class="pen2 brush3" points="2095,1107 2095,1111 2093,1111 2093,1107 2093,1107"/>
<polygon class="pen2 brush3" points="2093,1107 2093,1111 2087,1112 2085,1109 2086,1108"/>
<polygon class="pen2 brush3" points="2085,1109 2087,1112 2047,1128 2045,1126 2045,1126"/>
<polygon class="pen2 brush3" points="2045,1126 2047,1128 2047,1130 2046,1131 2044,1128"/>
<polygon class="pen2 brush3" points="2044,1128 2046,1131 2043,1132 2041,1129 2042,1128"/>
<polygon class="pen2 brush3" points="2041,1129 2043,1132 2040,1134 2038,1131 2038,1131"/>
<polygon class="pen2 brush3" points="2038,1131 2040,1134 2033,1138 2031,1136 2031,1136"/>
<polygon class="pen2 brush3" points="2031,1136 2033,1138 2026,1148 2023,1146 2023,1146"/>
<polygon class="pen2 brush3" points="2023,1146 2026,1148 2023,1154 2020,1152 2020,1152"/>
<polygon class="pen2 brush3" points="2020,1152 2023,1154 2005,1191 2001,1190 2002,1189"/>
<polygon class="pen2 brush3" points="2001,1190 2005,1191 1972,1301 1968,1300 1968,1300"/>
<polygon class="pen2 brush3" points="1968,1300 1972,1301 1964,1345 1960,1345 1960,1345"/>
<polygon class="pen2 brush3" points="1960,1345 1964,1345 1964,1348 1963,1350 1960,1347"/>
<polygon class="pen2 brush3" points="1960,1347 1963,1350 1961,1351 1959,1348 1959,1348"/>
<polygon class="pen2 brush3" points="1959,1348 1961,1351 1939,1381 1936,1379 1936,1379"/>
<polygon class="pen2 brush3" points="1936,1379 1939,1381 1924,1415 1924,1415 1921,1413"/>
<polygon class="pen2 brush3" points="1921,1413 1924,1415 1918,1423 1915,1421 1915,1421"/>
<polygon class="pen2 brush3" points="1915,1421 1918,1423 1896,1455 1893,1453 1893,1453"/>
<polygon class="pen2 brush3" points="1893,1453 1896,1455 1894,1458 1890,1457 1891,1456"/>
<polygon class="pen2 brush3" points="1890,1457 1894,1458 1893,1461 1889,1460 1889,1460"/>
<polygon class="pen2 brush3" points="1889,1460 1893,1461 1892,1465 1888,1465 1888,1465"/>
<polygon class="pen2 brush3" points="1888,1465 1892,1465 1891,1475 1887,1475 1887,1475"/>
<polygon class="pen2 brush3" points="1887,1475 1891,1475 1896,1512 1892,1513 1892,1512"/>
<polygon class="pen2 brush3" points="1892,1513 1896,1512 1921,1596 1918,1597 1917,1597"/>
<polygon class="pen2 brush3" points="1918,1597 1921,1596 1934,1626 1931,1628 1931,1628"/>
<polygon class="pen2 brush3" points="1931,1628 1934,1626 1941,1638 1939,1640 1939,1640"/>
<polygon class="pen2 brush3" points="1939,1640 1941,1638 1942,1639 1943,1639 1940,1641"/>
<polygon class="pen2 brush3" points="1940,1641 1943,1639 1954,1658 1954,1659 1951,1660"/>
<polygon class="pen2 brush3" points="1951,1660 1954,1659 1958,1672 1958,1672 1954,1673"/>
<polygon class="pen2 brush3" points="1954,1673 1958,1672 1963,1714 1959,1715 1959,1714"/>
<polygon class="pen2 brush3" points="1959,1715 1963,1714 1971,1742 1969,1745 1967,1744"/>
<polygon class="pen2 brush3" points="1969,1745 1971,1742 1973,1742 1974,1744 1970,1745"/>
<polygon class="pen2 brush3" points="1970,1745 1974,1744 1955,1841 1955,1842 1951,1841"/>
<polygon class="pen2 brush3" points="1951,1841 1955,1842 1948,1863 1948,1863 1944,1862"/>
<polygon class="pen2 brush3" points="1944,1862 1948,1863 1904,1987 1900,1986 1900,1986"/>
<polygon class="pen2 brush3" points="1900,1986 1904,1987 1899,2006 1895,2005 1895,2005"/>
<polygon class="pen2 brush3" points="1895,2005 1899,2006 1869,2126 1866,2127 1865,2126"/>
<polygon class="pen2 brush3" points="1866,2127 1869,2126 1879,2136 1880,2137 1876,2138"/>
<polygon class="pen2 brush3" points="1876,2138 1880,2137 1880,2146 1880,2146 1876,2146"/>
<polygon class="pen2 brush3" points="1876,2146 1880,2146 1879,2155 1879,2155 1875,2155"/>
<polygon class="pen2 brush3" points="1875,2155 1879,2155 1877,2165 1877,2166 1873,2165"/>
<polygon class="pen2 brush3" points="1873,2165 1877,2166 1852,2266 1851,2266 1849,2264"/>
<polygon class="pen2 brush3" points="1849,2264 1851,2266 1851,2267 1847,2266 1848,2265"/>
<polygon class="pen2 brush3" points="1847,2266 1851,2267 1849,2273 1849,2273 1846,2271"/>
<polygon class="pen2 brush3" points="1846,2271 1849,2273 1842,2284 1839,2282 1839,2282"/>
<polygon class="pen2 brush3" points="1839,2282 1842,2284 1830,2303 1827,2301 1827,2301"/>
<polygon class="pen2 brush3" points="1827,2301 1830,2303 1797,2370 1796,2371 1794,2368"/>
<polygon class="pen2 brush3" points="1794,2368 1796,2371 1787,2373 1783,2372 1785,2370"/>
<polygon class="pen2 brush3" points="1783,2372 1787,2373 1787,2379 1787,2380 1783,2379"/>
<polygon class="pen2 brush3" points="1783,2379 1787,2380 1784,2390 1783,2390 1781,2388"/>
<polygon class="pen2 brush3" points="1781,2388 1783,2390 1772,2402 1770,2400 1770,2400"/>
<polygon class="pen2 brush3" points="1770,2400 1772,2402 1746,2435 1742,2434 1743,2433"/>
<polygon class="pen2 brush3" points="1742,2434 1746,2435 1745,2439 1744,2439 1742,2437"/>
<polygon class="pen2 brush3" points="1742,2437 1744,2439 1738,2447 1735,2445 1735,2445"/>
<polygon class="pen2 brush3" points="1735,2445 1738,2447 1736,2450 1733,2448 1733,2448"/>
<polygon class="pen2 brush3" points="1733,2448 1736,2450 1713,2495 1712,2496 1710,2493"/>
<polygon class="pen2 brush3" points="1710,2493 1712,2496 1710,2497 1708,2494 1708,2494"/>
<polygon class="pen2 brush3" points="1708,2494 1710,2497 1704,2506 1701,2504 1701,2504"/>
<polygon class="pen2 brush3" points="1701,2504 1704,2506 1683,2547 1681,2548 1680,2545"/>
<polygon class="pen2 brush3" points="1680,2545 1681,2548 1670,2549 1670,2549 1670,2545"/>
<polygon class="pen2 brush3" points="1670,2545 1670,2549 1573,2545 1572,2544 1574,2541"/>
<polygon class="pen2 brush3" points="1574,2541 1572,2544 1557,2530 1556,2529 1560,2528"/>
<polygon class="pen2 brush3" points="1560,2528 1556,2529 1555,2525 1559,2524 1559,2524"/>
<polygon class="pen2 brush3" points="1559,2524 1555,2525 1554,2521 1554,2520 1558,2520"/>
<polygon class="pen2 brush3" points="1558,2520 1554,2520 1554,2517 1556,2513 1558,2515"/>
<polygon class="pen2 brush3" points="1556,2513 1554,2517 1535,2516 1535,2516 1535,2512"/>
<polygon class="pen2 brush3" points="1535,2512 1535,2516 1522,2515 1522,2515 1522,2511"/>
<polygon class="pen2 brush3" points="1522,2511 1522,2515 1508,2513 1508,2509 1508,2509"/>
<polygon class="pen2 brush3" points="1508,2509 1508,2513 1436,2504 1436,2504 1436,2500"/>
<polygon class="pen2 brush3" points="1436,2500 1436,2504 1400,2498 1400,2494 1400,2494"/>
<polygon class="pen2 brush3" points="1400,2494 1400,2498 1391,2497 1391,2497 1391,2493"/>
<polygon class="pen2 brush3" points="1391,2493 1391,2497 1384,2496 1384,2492 1384,2492"/>
<polygon class="pen2 brush3" points="1384,2492 1384,2496 1380,2496 1380,2496 1380,2492"/>
<polygon class="pen2 brush3" points="1380,2492 1380,2496 1379,2496 1379,2492 1379,2492"/>
<polygon class="pen2 brush3" points="1379,2492 1379,2496 1369,2497 1369,2495 1367,2495 1369,2493"/>
<polygon class="pen2 brush3" points="1367,2495 1369,2495 1371,2495 1371,2496 1371,2496 1367,2496"/>
<polygon class="pen2 brush3" points="1367,2496 1371,2496 1370,2504 1369,2506 1367,2503"/>
<polygon class="pen2 brush3" points="1367,2503 1369,2506 1339,2515 1337,2512 1338,2511"/>
<polygon class="pen2 brush3" points="1337,2512 1339,2515 1330,2522 1327,2520 1327,2520"/>
<polygon class="pen2 brush3" points="1327,2520 1330,2522 1329,2524 1325,2523 1326,2522"/>
<polygon class="pen2 brush3" points="1325,2523 1329,2524 1329,2525 1327,2527 1327,2525 1325,2525"/>
<polygon class="pen2 brush3" points="1327,2523 1327,2525 1327,2527 1324,2527 1324,2523 1324,2523"/>
<polygon class="pen2 brush3" points="1324,2523 1324,2527 1302,2531 1302,2527 1302,2527"/>
<polygon class="pen2 brush3" points="1302,2527 1302,2531 1291,2534 1290,2534 1290,2530"/>
<polygon class="pen2 brush3" points="1290,2530 1290,2534 1276,2537 1276,2533 1276,2533"/>
<polygon class="pen2 brush3" points="1276,2533 1276,2537 1216,2550 1216,2550 1216,2546"/>
<polygon class="pen2 brush3" points="1216,2546 1216,2550 1142,2546 1141,2545 1143,2542"/>
<polygon class="pen2 brush3" points="1143,2542 1141,2545 1138,2542 1138,2542 1140,2540"/>
<polygon class="pen2 brush3" points="1140,2540 1138,2542 1131,2532 1133,2530 1134,2530"/>
<polygon class="pen2 brush3" points="1133,2530 1131,2532 1065,2473 1067,2470 1067,2470"/>
<polygon class="pen2 brush3" points="1067,2470 1065,2473 1059,2470 1059,2466 1060,2467"/>
<polygon class="pen2 brush3" points="1059,2466 1059,2470 1053,2469 1051,2466 1052,2465"/>
<polygon class="pen2 brush3" points="1051,2466 1053,2469 1037,2495 1035,2496 1034,2492"/>
<polygon class="pen2 brush3" points="1034,2492 1035,2496 1032,2496 1030,2493 1031,2492"/>
<polygon class="pen2 brush3" points="1030,2493 1032,2496 1017,2503 1015,2500 1015,2500"/>
<polygon class="pen2 brush3" points="1015,2500 1017,2503 997,2516 995,2514 995,2514"/>
<polygon class="pen2 brush3" points="995,2514 997,2516 996,2517 994,2515 994,2515"/>
<polygon class="pen2 brush3" points="994,2515 996,2517 985,2530 981,2529 982,2528"/>
<polygon class="pen2 brush3" points="981,2529 985,2530 985,2532 985,2532 981,2532"/>
<polygon class="pen2 brush3" points="981,2532 985,2532 985,2536 984,2538 981,2535"/>
<polygon class="pen2 brush3" points="981,2535 984,2538 918,2564 917,2564 917,2560"/>
<polygon class="pen2 brush3" points="917,2560 917,2564 909,2564 909,2564 909,2560"/>
<polygon class="pen2 brush3" points="909,2560 909,2564 900,2562 899,2562 901,2559"/>
<polygon class="pen2 brush3" points="901,2559 899,2562 870,2544 870,2543 872,2541"/>
<polygon class="pen2 brush3" points="872,2541 870,2543 863,2538 864,2534 865,2535"/>
<path class="pen2 brush2" d="M 171,1799  L 151,1790 148,1788 105,1765 103,1765 100,1752 92,1736 87,1727 52,1679 3,1596 0,1577 1,1569 33,1533 40,1530 62,1523 91,1518 102,1517 127,1515 156,1524 167,1535 169,1536 195,1552 202,1553 259,1567 269,1567 269,1573 270,1575 270,1576 274,1577 276,1577 280,1577 280,1579 289,1600 310,1639 311,1640 310,1651 310,1657 310,1665 321,1671 322,1688 323,1706 325,1727 329,1769 321,1827 309,1830 243,1833 235,1831 171,1799 z"/>
<polygon class="pen2 brush4" points="152,1789 150,1792 147,1790 149,1787 149,1787"/>
<polygon class="pen2 brush4" points="149,1787 147,1790 105,1767 105,1763 106,1764"/>
<polygon class="pen2 brush4" points="105,1763 105,1767 103,1767 101,1766 103,1765 103,1763"/>
<polygon class="pen2 brush4" points="105,1765 103,1765 101,1766 98,1753 102,1751 102,1752"/>
<polygon class="pen2 brush4" points="102,1751 98,1753 91,1737 94,1735 94,1735"/>
<polygon class="pen2 brush4" points="94,1735 91,1737 86,1728 89,1726 89,1726"/>
<polygon class="pen2 brush4" points="89,1726 86,1728 51,1680 51,1680 54,1678"/>
<polygon class="pen2 brush4" points="54,1678 51,1680 2,1597 1,1596 5,1596"/>
<polygon class="pen2 brush4" points="5,1596 1,1596 -2,1577 -2,1577 2,1577"/>
<polygon class="pen2 brush4" points="2,1577 -2,1577 -1,1569 0,1568 3,1570"/>
<polygon class="pen2 brush4" points="3,1570 0,1568 32,1532 32,1532 34,1535"/>
<polygon class="pen2 brush4" points="34,1535 32,1532 39,1529 40,1528 41,1532"/>
<polygon class="pen2 brush4" points="41,1532 40,1528 62,1521 62,1521 63,1525"/>
<polygon class="pen2 brush4" points="63,1525 62,1521 91,1516 91,1516 91,1520"/>
<polygon class="pen2 brush4" points="91,1520 91,1516 102,1515 102,1515 102,1519"/>
<polygon class="pen2 brush4" points="102,1519 102,1515 127,1513 128,1513 127,1517"/>
<polygon class="pen2 brush4" points="127,1517 128,1513 157,1522 157,1523 155,1526"/>
<polygon class="pen2 brush4" points="155,1526 157,1523 168,1534 166,1537 166,1536"/>
<polygon class="pen2 brush4" points="166,1537 168,1534 170,1535 170,1535 168,1538"/>
<polygon class="pen2 brush4" points="168,1538 170,1535 196,1550 195,1554 194,1554"/>
<polygon class="pen2 brush4" points="195,1554 196,1550 202,1551 203,1551 202,1555"/>
<polygon class="pen2 brush4" points="202,1555 203,1551 259,1565 259,1569 259,1569"/>
<polygon class="pen2 brush4" points="259,1569 259,1565 269,1565 271,1567 267,1569"/>
<polygon class="pen2 brush4" points="267,1569 271,1567 271,1573 268,1574 267,1573"/>
<polygon class="pen2 brush4" points="268,1574 271,1573 272,1574 272,1575 268,1576"/>
<polygon class="pen2 brush4" points="268,1576 272,1575 272,1576 270,1576 270,1578 268,1576"/>
<polygon class="pen2 brush4" points="270,1578 270,1576 271,1574 274,1575 274,1579 274,1579"/>
<polygon class="pen2 brush4" points="274,1579 274,1575 276,1575 276,1575 276,1579"/>
<polygon class="pen2 brush4" points="276,1579 276,1575 280,1575 282,1577 280,1577 280,1579"/>
<polygon class="pen2 brush4" points="278,1577 280,1577 282,1577 282,1579 279,1580 278,1579"/>
<polygon class="pen2 brush4" points="279,1580 282,1579 291,1599 288,1601 288,1601"/>
<polygon class="pen2 brush4" points="288,1601 291,1599 312,1638 309,1640 309,1640"/>
<polygon class="pen2 brush4" points="309,1640 312,1638 312,1639 313,1640 311,1640 310,1641"/>
<polygon class="pen2 brush4" points="309,1640 311,1640 313,1640 312,1651 308,1651 308,1651"/>
<polygon class="pen2 brush4" points="308,1651 312,1651 312,1657 312,1657 308,1657"/>
<polygon class="pen2 brush4" points="308,1657 312,1657 312,1664 309,1667 308,1665"/>
<polygon class="pen2 brush4" points="309,1667 312,1664 322,1670 323,1671 319,1672"/>
<polygon class="pen2 brush4" points="319,1672 323,1671 324,1688 324,1688 320,1688"/>
<polygon class="pen2 brush4" points="320,1688 324,1688 325,1706 321,1706 321,1706"/>
<polygon class="pen2 brush4" points="321,1706 325,1706 327,1727 327,1727 323,1727"/>
<polygon class="pen2 brush4" points="323,1727 327,1727 331,1769 331,1769 327,1769"/>
<polygon class="pen2 brush4" points="327,1769 331,1769 323,1827 322,1829 320,1826"/>
<polygon class="pen2 brush4" points="320,1826 322,1829 310,1832 309,1832 309,1828"/>
<polygon class="pen2 brush4" points="309,1828 309,1832 243,1835 243,1835 243,1831"/>
<polygon class="pen2 brush4" points="243,1831 243,1835 235,1833 234,1833 236,1830"/>
<polygon class="pen2 brush4" points="236,1830 234,1833 170,1801 172,1798 172,1798"/>
<polygon class="pen2 brush4" points="172,1798 170,1801 150,1792 150,1792 152,1789"/>
<path class="pen2 brush2" d="M 1466,1193  L 1460,1192 1457,1192 1456,1185 1386,1044 1381,1030 1377,1016 1375,1002 1372,966 1369,931 1368,897 1367,864 1368,831 1369,799 1372,733 1374,700 1376,666 1378,631 1380,596 1382,559 1383,521 1384,481 1384,432 1383,428 1383,410 1381,380 1380,362 1380,326 1380,308 1380,291 1381,276 1382,262 1394,233 1405,218 1406,216 1405,207 1415,192 1435,170 1435,169 1436,164 1457,150 1467,132 1494,129 1622,171 1623,171 1624,180 1626,181 1628,181 1630,181 1634,181 1635,228 1635,254 1637,280 1638,308 1640,337 1641,366 1643,397 1647,460 1650,524 1653,591 1655,657 1656,723 1655,788 1652,851 1637,905 1638,968 1595,1030 1590,1111 1587,1114 1563,1134 1537,1172 1533,1174 1519,1202 1507,1205 1475,1209 1471,1206 1466,1193 z"/>
<polygon class="pen2 brush5" points="1460,1190 1460,1194 1457,1194 1455,1192 1457,1192 1457,1190"/>
<polygon class="pen2 brush5" points="1459,1192 1457,1192 1455,1192 1454,1186 1458,1184 1458,1185"/>
<polygon class="pen2 brush5" points="1458,1184 1454,1186 1385,1045 1384,1045 1388,1043"/>
<polygon class="pen2 brush5" points="1388,1043 1384,1045 1379,1031 1379,1031 1383,1030"/>
<polygon class="pen2 brush5" points="1383,1030 1379,1031 1375,1017 1375,1016 1379,1016"/>
<polygon class="pen2 brush5" points="1379,1016 1375,1016 1373,1002 1373,1002 1377,1002"/>
<polygon class="pen2 brush5" points="1377,1002 1373,1002 1370,966 1374,966 1374,966"/>
<polygon class="pen2 brush5" points="1374,966 1370,966 1367,931 1367,931 1371,931"/>
<polygon class="pen2 brush5" points="1371,931 1367,931 1366,897 1370,897 1370,897"/>
<polygon class="pen2 brush5" points="1370,897 1366,897 1365,864 1365,864 1369,864"/>
<polygon class="pen2 brush5" points="1369,864 1365,864 1366,831 1366,831 1370,831"/>
<polygon class="pen2 brush5" points="1370,831 1366,831 1367,799 1367,799 1371,799"/>
<polygon class="pen2 brush5" points="1371,799 1367,799 1370,733 1370,733 1374,733"/>
<polygon class="pen2 brush5" points="1374,733 1370,733 1372,700 1376,700 1376,700"/>
<polygon class="pen2 brush5" points="1376,700 1372,700 1374,666 1378,666 1378,666"/>
<polygon class="pen2 brush5" points="1378,666 1374,666 1376,631 1376,631 1380,631"/>
<polygon class="pen2 brush5" points="1380,631 1376,631 1378,596 1382,596 1382,596"/>
<polygon class="pen2 brush5" points="1382,596 1378,596 1380,559 1384,559 1384,559"/>
<polygon class="pen2 brush5" points="1384,559 1380,559 1381,521 1385,521 1385,521"/>
<polygon class="pen2 brush5" points="1385,521 1381,521 1382,481 1386,481 1386,481"/>
<polygon class="pen2 brush5" points="1386,481 1382,481 1382,432 1386,432 1386,432"/>
<polygon class="pen2 brush5" points="1386,432 1382,432 1381,429 1381,428 1385,428"/>
<polygon class="pen2 brush5" points="1385,428 1381,428 1381,410 1385,410 1385,410"/>
<polygon class="pen2 brush5" points="1385,410 1381,410 1379,380 1379,380 1383,380"/>
<polygon class="pen2 brush5" points="1383,380 1379,380 1378,362 1378,362 1382,362"/>
<polygon class="pen2 brush5" points="1382,362 1378,362 1378,326 1378,326 1382,326"/>
<polygon class="pen2 brush5" points="1382,326 1378,326 1378,308 1378,308 1382,308"/>
<polygon class="pen2 brush5" points="1382,308 1378,308 1378,291 1378,291 1382,291"/>
<polygon class="pen2 brush5" points="1382,291 1378,291 1379,276 1379,276 1383,276"/>
<polygon class="pen2 brush5" points="1383,276 1379,276 1380,262 1381,261 1384,263"/>
<polygon class="pen2 brush5" points="1384,263 1381,261 1393,232 1393,232 1396,234"/>
<polygon class="pen2 brush5" points="1396,234 1393,232 1404,217 1407,219 1407,219"/>
<polygon class="pen2 brush5" points="1407,219 1404,217 1404,216 1408,216 1408,217"/>
<polygon class="pen2 brush5" points="1408,216 1404,216 1403,207 1404,206 1407,208"/>
<polygon class="pen2 brush5" points="1407,208 1404,206 1414,191 1414,191 1417,193"/>
<polygon class="pen2 brush5" points="1417,193 1414,191 1434,169 1435,170 1437,170 1436,171"/>
<polygon class="pen2 brush5" points="1437,170 1435,170 1433,170 1433,169 1433,169 1437,169"/>
<polygon class="pen2 brush5" points="1437,169 1433,169 1434,164 1435,163 1438,165"/>
<polygon class="pen2 brush5" points="1438,165 1435,163 1456,149 1459,151 1458,152"/>
<polygon class="pen2 brush5" points="1459,151 1456,149 1466,131 1467,130 1468,134"/>
<polygon class="pen2 brush5" points="1468,134 1467,130 1494,127 1495,127 1494,131"/>
<polygon class="pen2 brush5" points="1494,131 1495,127 1622,169 1622,173 1622,173"/>
<polygon class="pen2 brush5" points="1622,173 1622,169 1623,169 1625,171 1623,171 1623,173"/>
<polygon class="pen2 brush5" points="1621,171 1623,171 1625,171 1626,179 1623,182 1622,180"/>
<polygon class="pen2 brush5" points="1623,182 1626,179 1627,179 1626,183 1625,183"/>
<polygon class="pen2 brush5" points="1626,183 1627,179 1628,179 1628,179 1628,183"/>
<polygon class="pen2 brush5" points="1628,183 1628,179 1630,179 1630,179 1630,183"/>
<polygon class="pen2 brush5" points="1630,183 1630,179 1634,179 1636,181 1632,183"/>
<polygon class="pen2 brush5" points="1632,183 1636,181 1637,228 1637,228 1633,228"/>
<polygon class="pen2 brush5" points="1633,228 1637,228 1637,254 1633,254 1633,254"/>
<polygon class="pen2 brush5" points="1633,254 1637,254 1639,280 1639,280 1635,280"/>
<polygon class="pen2 brush5" points="1635,280 1639,280 1640,308 1636,308 1636,308"/>
<polygon class="pen2 brush5" points="1636,308 1640,308 1642,337 1642,337 1638,337"/>
<polygon class="pen2 brush5" points="1638,337 1642,337 1643,366 1639,366 1639,366"/>
<polygon class="pen2 brush5" points="1639,366 1643,366 1645,397 1645,397 1641,397"/>
<polygon class="pen2 brush5" points="1641,397 1645,397 1649,460 1649,460 1645,460"/>
<polygon class="pen2 brush5" points="1645,460 1649,460 1652,524 1652,524 1648,524"/>
<polygon class="pen2 brush5" points="1648,524 1652,524 1655,591 1655,591 1651,591"/>
<polygon class="pen2 brush5" points="1651,591 1655,591 1657,657 1657,657 1653,657"/>
<polygon class="pen2 brush5" points="1653,657 1657,657 1658,723 1658,723 1654,723"/>
<polygon class="pen2 brush5" points="1654,723 1658,723 1657,788 1657,788 1653,788"/>
<polygon class="pen2 brush5" points="1653,788 1657,788 1654,851 1654,852 1650,851"/>
<polygon class="pen2 brush5" points="1650,851 1654,852 1639,905 1635,905 1635,905"/>
<polygon class="pen2 brush5" points="1635,905 1639,905 1640,968 1640,969 1636,968"/>
<polygon class="pen2 brush5" points="1636,968 1640,969 1597,1031 1593,1030 1594,1029"/>
<polygon class="pen2 brush5" points="1593,1030 1597,1031 1592,1111 1591,1112 1588,1110"/>
<polygon class="pen2 brush5" points="1588,1110 1591,1112 1588,1115 1588,1115 1586,1113"/>
<polygon class="pen2 brush5" points="1586,1113 1588,1115 1564,1135 1562,1133 1562,1133"/>
<polygon class="pen2 brush5" points="1562,1133 1564,1135 1539,1173 1538,1174 1536,1171"/>
<polygon class="pen2 brush5" points="1536,1171 1538,1174 1534,1175 1532,1173 1532,1173"/>
<polygon class="pen2 brush5" points="1532,1173 1534,1175 1521,1203 1520,1204 1518,1201"/>
<polygon class="pen2 brush5" points="1518,1201 1520,1204 1508,1207 1507,1207 1507,1203"/>
<polygon class="pen2 brush5" points="1507,1203 1507,1207 1475,1211 1474,1211 1476,1207"/>
<polygon class="pen2 brush5" points="1476,1207 1474,1211 1470,1208 1470,1207 1473,1205"/>
<polygon class="pen2 brush5" points="1473,1205 1470,1207 1465,1195 1466,1191 1468,1193"/>
<polygon class="pen2 brush5" points="1466,1191 1465,1195 1460,1194 1460,1190 1460,1190"/>
<path class="pen2 brush2" d="M 1007,996  L 1003,981 978,817 998,792 1015,764 1029,758 1041,744 1040,741 1039,737 1021,709 985,668 961,643 959,642 957,639 926,595 904,537 898,515 893,493 884,448 877,403 874,381 871,360 868,340 864,319 864,316 863,312 861,301 857,281 854,266 851,249 843,195 842,178 847,131 855,121 863,119 869,106 871,104 880,73 891,57 894,56 905,46 915,35 915,25 931,3 936,0 947,0 1068,55 1091,80 1096,94 1106,127 1108,135 1113,159 1114,191 1162,479 1166,505 1170,532 1173,558 1175,583 1165,611 1159,619 1157,619 1156,620 1155,621 1155,623 1129,647 1122,689 1122,708 1123,726 1145,809 1146,833 1145,884 1138,971 1123,1025 1123,1029 1122,1032 1106,1035 1104,1036 1103,1038 1103,1046 1059,1052 1055,1050 1007,996 z"/>
<polygon class="pen2 brush6" points="1005,981 1001,981 976,817 977,816 980,818"/>
<polygon class="pen2 brush6" points="980,818 977,816 997,791 1000,793 999,793"/>
<polygon class="pen2 brush6" points="1000,793 997,791 1014,763 1014,763 1016,766"/>
<polygon class="pen2 brush6" points="1016,766 1014,763 1028,757 1030,759 1030,760"/>
<polygon class="pen2 brush6" points="1030,759 1028,757 1039,744 1043,744 1042,745"/>
<polygon class="pen2 brush6" points="1043,744 1039,744 1038,742 1038,742 1042,741"/>
<polygon class="pen2 brush6" points="1042,741 1038,742 1038,738 1041,736 1041,737"/>
<polygon class="pen2 brush6" points="1041,736 1038,738 1020,710 1022,708 1023,708"/>
<polygon class="pen2 brush6" points="1022,708 1020,710 984,669 986,667 986,667"/>
<polygon class="pen2 brush6" points="986,667 984,669 960,645 962,642 962,642"/>
<polygon class="pen2 brush6" points="962,642 960,645 958,644 958,643 960,641"/>
<polygon class="pen2 brush6" points="960,641 958,643 956,640 959,638 959,638"/>
<polygon class="pen2 brush6" points="959,638 956,640 925,596 925,596 928,594"/>
<polygon class="pen2 brush6" points="928,594 925,596 903,538 902,538 906,537"/>
<polygon class="pen2 brush6" points="906,537 902,538 896,516 896,516 900,515"/>
<polygon class="pen2 brush6" points="900,515 896,516 891,494 891,493 895,493"/>
<polygon class="pen2 brush6" points="895,493 891,493 882,448 882,448 886,448"/>
<polygon class="pen2 brush6" points="886,448 882,448 875,403 875,403 879,403"/>
<polygon class="pen2 brush6" points="879,403 875,403 872,381 876,381 876,381"/>
<polygon class="pen2 brush6" points="876,381 872,381 869,360 873,360 873,360"/>
<polygon class="pen2 brush6" points="873,360 869,360 866,340 870,340 870,340"/>
<polygon class="pen2 brush6" points="870,340 866,340 862,319 862,319 866,319"/>
<polygon class="pen2 brush6" points="866,319 862,319 862,316 866,316 866,316"/>
<polygon class="pen2 brush6" points="866,316 862,316 861,313 861,312 865,312"/>
<polygon class="pen2 brush6" points="865,312 861,312 859,301 863,301 863,301"/>
<polygon class="pen2 brush6" points="863,301 859,301 855,281 855,281 859,281"/>
<polygon class="pen2 brush6" points="859,281 855,281 852,266 852,266 856,266"/>
<polygon class="pen2 brush6" points="856,266 852,266 849,249 849,249 853,249"/>
<polygon class="pen2 brush6" points="853,249 849,249 841,195 841,195 845,195"/>
<polygon class="pen2 brush6" points="845,195 841,195 840,178 840,178 844,178"/>
<polygon class="pen2 brush6" points="844,178 840,178 845,131 846,130 849,132"/>
<polygon class="pen2 brush6" points="849,132 846,130 854,120 855,119 856,123"/>
<polygon class="pen2 brush6" points="856,123 855,119 862,118 865,120 864,121"/>
<polygon class="pen2 brush6" points="865,120 862,118 868,105 868,105 871,107"/>
<polygon class="pen2 brush6" points="871,107 868,105 870,103 873,105 872,105"/>
<polygon class="pen2 brush6" points="873,105 870,103 878,73 879,72 882,74"/>
<polygon class="pen2 brush6" points="882,74 879,72 890,56 891,55 892,59"/>
<polygon class="pen2 brush6" points="892,59 891,55 893,55 895,57 895,58"/>
<polygon class="pen2 brush6" points="895,57 893,55 904,45 906,47 906,47"/>
<polygon class="pen2 brush6" points="906,47 904,45 913,34 917,35 916,36"/>
<polygon class="pen2 brush6" points="917,35 913,34 913,25 914,24 917,26"/>
<polygon class="pen2 brush6" points="917,26 914,24 930,2 930,2 932,4"/>
<polygon class="pen2 brush6" points="932,4 930,2 935,-1 936,-2 937,2"/>
<polygon class="pen2 brush6" points="937,2 936,-2 947,-2 948,-1 947,2"/>
<polygon class="pen2 brush6" points="947,2 948,-1 1069,54 1069,54 1067,57"/>
<polygon class="pen2 brush6" points="1067,57 1069,54 1092,79 1093,80 1090,81"/>
<polygon class="pen2 brush6" points="1090,81 1093,80 1098,94 1098,94 1094,95"/>
<polygon class="pen2 brush6" points="1094,95 1098,94 1108,127 1108,127 1104,128"/>
<polygon class="pen2 brush6" points="1104,128 1108,127 1110,135 1110,135 1106,136"/>
<polygon class="pen2 brush6" points="1106,136 1110,135 1115,159 1115,159 1111,159"/>
<polygon class="pen2 brush6" points="1111,159 1115,159 1116,191 1112,191 1112,191"/>
<polygon class="pen2 brush6" points="1112,191 1116,191 1164,479 1164,479 1160,479"/>
<polygon class="pen2 brush6" points="1160,479 1164,479 1168,505 1168,505 1164,505"/>
<polygon class="pen2 brush6" points="1164,505 1168,505 1172,532 1172,532 1168,532"/>
<polygon class="pen2 brush6" points="1168,532 1172,532 1175,558 1175,558 1171,558"/>
<polygon class="pen2 brush6" points="1171,558 1175,558 1177,583 1177,584 1173,583"/>
<polygon class="pen2 brush6" points="1173,583 1177,584 1167,612 1167,612 1164,610"/>
<polygon class="pen2 brush6" points="1164,610 1167,612 1161,620 1159,621 1158,617"/>
<polygon class="pen2 brush6" points="1158,617 1159,621 1157,621 1157,619 1156,618 1157,617"/>
<polygon class="pen2 brush6" points="1156,618 1157,619 1158,620 1157,621 1157,621 1155,619"/>
<polygon class="pen2 brush6" points="1155,619 1157,621 1156,622 1155,621 1153,621 1154,620"/>
<polygon class="pen2 brush6" points="1153,621 1155,621 1157,621 1157,623 1156,624 1153,622"/>
<polygon class="pen2 brush6" points="1153,622 1156,624 1131,648 1127,647 1128,646"/>
<polygon class="pen2 brush6" points="1127,647 1131,648 1124,689 1120,689 1120,689"/>
<polygon class="pen2 brush6" points="1120,689 1124,689 1124,708 1120,708 1120,708"/>
<polygon class="pen2 brush6" points="1120,708 1124,708 1125,726 1121,727 1121,726"/>
<polygon class="pen2 brush6" points="1121,727 1125,726 1147,809 1147,809 1143,809"/>
<polygon class="pen2 brush6" points="1143,809 1147,809 1148,833 1148,833 1144,833"/>
<polygon class="pen2 brush6" points="1144,833 1148,833 1147,884 1147,884 1143,884"/>
<polygon class="pen2 brush6" points="1143,884 1147,884 1140,971 1140,972 1136,971"/>
<polygon class="pen2 brush6" points="1136,971 1140,972 1125,1025 1121,1025 1121,1025"/>
<polygon class="pen2 brush6" points="1121,1025 1125,1025 1125,1029 1125,1030 1121,1029"/>
<polygon class="pen2 brush6" points="1121,1029 1125,1030 1124,1033 1122,1034 1121,1031"/>
<polygon class="pen2 brush6" points="1121,1031 1122,1034 1107,1037 1105,1034 1106,1033"/>
<polygon class="pen2 brush6" points="1105,1034 1107,1037 1105,1037 1103,1035 1103,1035"/>
<polygon class="pen2 brush6" points="1103,1035 1105,1037 1105,1039 1101,1038 1102,1037"/>
<polygon class="pen2 brush6" points="1101,1038 1105,1039 1105,1046 1103,1048 1101,1045"/>
<polygon class="pen2 brush6" points="1101,1045 1103,1048 1059,1054 1058,1054 1059,1050"/>
<polygon class="pen2 brush6" points="1059,1050 1058,1054 1054,1052 1054,1051 1056,1049"/>
<polygon class="pen2 brush6" points="1056,1049 1054,1051 1006,997 1005,997 1009,995"/>
<polygon class="pen2 brush6" points="1009,995 1005,997 1001,982 1001,981 1005,981"/>
</g>
<g/>
</svg>
