<?xml version="1.0" encoding="UTF-8" standalone="no"?>
<!DOCTYPE svg PUBLIC "-//W3C//DTD SVG 1.0//EN" "http://www.w3.org/TR/2001/REC-SVG-20010904/DTD/svg10.dtd">
<svg xmlns="http://www.w3.org/2000/svg" xmlns:xlink="http://www.w3.org/1999/xlink" fill-rule="evenodd" height="1.98in" preserveAspectRatio="none" stroke-linecap="round" viewBox="0 0 1247 1980" width="1.247in">
<style type="text/css">
.brush0 { fill: rgb(255,255,255); }
.pen0 { stroke: rgb(0,0,0); stroke-width: 1; stroke-linejoin: round; }
.brush1 { fill: none; }
.pen1 { stroke: none; }
.brush2 { fill: rgb(0,0,0); }
</style>
<g>
<polygon class="pen1 brush2" points="382,578 349,546 315,522 282,506 248,497 216,493 184,494 154,500 125,508 99,519 75,531 53,544 35,556 20,567 9,576 2,582 0,584 38,492 77,423 118,374 160,342 202,326 244,324 284,332 323,350 360,373 394,401 424,431 450,461 471,488 487,510 498,525 501,530 499,512 498,488 498,458 499,425 502,389 507,354 516,319 528,288 554,233 574,180 590,131 602,88 610,52 615,24 617,6 618,0 619,6 623,24 630,52 639,88 653,131 670,180 691,233 717,288 730,319 739,354 744,389 747,425 748,458 747,488 746,512 744,530 748,525 758,510 774,488 795,461 821,431 852,401 886,373 922,350 961,332 1002,324 1044,326 1086,342 1128,374 1169,423 1209,492 1247,584 1245,581 1238,574 1228,562 1214,548 1197,532 1177,517 1154,501 1129,488 1101,478 1071,472 1040,471 1007,476 974,489 939,511 904,543 869,585 843,593 819,606 795,622 773,643 752,666 732,691 713,717 696,744 681,770 668,795 656,819 646,839 638,857 633,870 629,879 628,882 620,868 611,852 602,833 593,813 582,791 571,767 558,744 545,720 530,696 514,674 496,652 477,632 456,614 433,599 409,587 382,578"/>
<polygon class="pen1 brush2" points="639,1149 629,1139 617,1126 604,1112 590,1096 576,1078 560,1059 545,1038 529,1016 513,993 497,969 481,943 466,917 452,889 439,862 427,833 416,804 405,777 391,756 376,738 360,725 344,714 326,707 309,703 292,701 275,701 260,702 246,704 234,706 223,709 216,712 211,713 209,714 249,657 289,618 327,597 363,590 398,596 432,613 463,638 492,670 519,706 543,745 565,784 584,822 600,855 613,883 622,903 628,913 630,907 637,890 647,864 662,831 680,794 701,755 725,716 752,678 782,645 814,619 849,601 885,594 923,601 962,622 1003,661 1044,719 1042,718 1037,716 1030,714 1019,711 1007,708 993,706 978,705 961,705 944,707 927,711 910,718 893,728 877,742 862,759 849,781 838,808 827,837 816,865 804,893 791,919 778,945 765,971 751,995 737,1017 724,1039 710,1060 697,1079 684,1096 672,1112 660,1126 649,1138 639,1149"/>
<polygon class="pen1 brush2" points="650,1156 645,1192 639,1241 632,1298 625,1361 618,1426 612,1488 608,1546 605,1594 604,1626 602,1665 601,1710 601,1757 603,1803 606,1846 613,1882 622,1909 623,1904 628,1892 636,1871 647,1845 662,1813 680,1776 702,1736 728,1694 758,1650 793,1606 831,1562 875,1520 923,1480 975,1443 1033,1411 1096,1385 1094,1391 1088,1407 1078,1432 1064,1464 1047,1503 1025,1547 1000,1595 972,1646 940,1697 905,1749 866,1799 824,1846 779,1889 731,1926 680,1957 626,1980 622,1978 611,1968 595,1949 579,1916 564,1865 553,1794 549,1699 555,1577 565,1463 575,1375 583,1308 590,1259 596,1222 602,1193 606,1169 609,1143 616,1150 622,1158 629,1165 636,1173 639,1170 643,1166 647,1161 650,1156"/>
<polygon class="pen1 brush0" points="628,827 557,551 550,547 545,541 542,534 540,525 542,513 548,503 557,496 569,494 575,495 580,496 585,499 590,503 593,507 596,512 598,518 599,524 598,531 595,538 591,545 585,550 613,645 609,480 603,475 599,469 596,462 595,453 596,447 597,442 600,436 604,432 608,428 613,425 619,424 625,423 631,424 636,425 641,428 646,432 649,436 652,441 654,447 655,453 654,460 651,467 646,474 640,479 645,642 675,548 669,544 664,538 660,531 659,523 660,517 661,511 664,506 668,501 672,498 677,494 683,492 689,491 695,492 700,493 705,496 710,500 713,504 716,509 718,515 719,521 718,530 715,538 710,544 703,548 628,827"/>
</g>
</svg>
