<?xml version="1.0" encoding="UTF-8" standalone="no"?>
<!DOCTYPE svg PUBLIC "-//W3C//DTD SVG 1.0//EN" "http://www.w3.org/TR/2001/REC-SVG-20010904/DTD/svg10.dtd">
<svg xmlns="http://www.w3.org/2000/svg" xmlns:xlink="http://www.w3.org/1999/xlink" fill-rule="evenodd" height="1.982in" preserveAspectRatio="none" stroke-linecap="round" viewBox="0 0 1954 1982" width="1.954in">
<style type="text/css">
.brush0 { fill: rgb(255,255,255); }
.pen0 { stroke: rgb(0,0,0); stroke-width: 1; stroke-linejoin: round; }
.brush1 { fill: none; }
.pen1 { stroke: none; }
.brush2 { fill: rgb(0,0,0); }
</style>
<g>
<polygon class="pen1 brush2" points="775,638 785,611 798,591 814,576 833,568 853,565 875,569 897,578 919,593 919,596 916,599 912,602 905,605 897,610 888,617 878,627 869,640 862,637 853,634 844,631 833,630 821,630 809,633 797,638 784,646 775,638 775,638"/>
<polygon class="pen1 brush2" points="930,588 945,577 961,570 977,566 993,566 1008,569 1023,576 1038,586 1052,601 1056,612 1051,614 1047,615 1042,617 1038,619 1033,621 1028,624 1024,626 1019,628 999,610 982,598 967,593 955,591 945,591 938,592 933,591 930,588 930,588"/>
<polygon class="pen1 brush2" points="1065,603 1065,609 1070,610 1080,610 1092,611 1107,616 1122,627 1137,647 1149,680 1177,682 1201,687 1220,694 1236,704 1247,718 1254,736 1256,757 1254,782 1254,785 1262,789 1273,796 1286,806 1299,821 1307,841 1310,867 1305,900 1309,904 1320,912 1334,925 1349,941 1359,962 1362,987 1353,1017 1329,1051 1330,1053 1334,1064 1341,1080 1345,1100 1345,1122 1337,1144 1318,1164 1286,1179 1280,1213 1271,1237 1258,1253 1244,1264 1230,1271 1217,1277 1207,1285 1200,1295 1225,1308 1249,1310 1270,1301 1287,1286 1300,1265 1307,1242 1307,1219 1299,1199 1309,1191 1315,1213 1336,1202 1353,1188 1365,1172 1372,1155 1375,1136 1374,1116 1368,1094 1359,1072 1359,1072 1346,1051 1352,1045 1356,1051 1372,1033 1384,1014 1393,995 1397,976 1396,957 1390,938 1378,919 1360,900 1322,899 1322,886 1359,888 1365,869 1368,851 1366,835 1361,820 1353,806 1342,793 1328,781 1313,770 1294,784 1288,774 1312,754 1313,750 1312,740 1308,725 1301,708 1289,691 1271,676 1246,664 1214,659 1184,665 1177,655 1210,646 1199,623 1184,605 1167,591 1148,582 1128,579 1107,581 1086,589 1065,603 1065,603"/>
<polygon class="pen1 brush2" points="1200,1305 1203,1311 1202,1320 1197,1331 1190,1342 1181,1354 1170,1365 1158,1374 1146,1380 1138,1384 1127,1386 1115,1386 1103,1385 1091,1382 1081,1377 1074,1371 1069,1363 1069,1361 1072,1356 1076,1349 1082,1342 1118,1348 1145,1346 1165,1338 1179,1328 1189,1318 1194,1309 1198,1304 1200,1305 1200,1305"/>
<polygon class="pen1 brush2" points="1065,1355 1057,1370 1047,1383 1037,1395 1027,1406 1016,1414 1005,1422 993,1427 982,1430 970,1431 958,1430 947,1427 935,1421 924,1413 914,1403 904,1389 894,1373 899,1372 905,1371 910,1370 914,1369 919,1367 924,1365 928,1364 933,1362 934,1362 937,1364 942,1367 949,1372 957,1376 966,1380 978,1383 991,1385 1007,1384 1021,1379 1034,1373 1045,1367 1053,1360 1060,1356 1064,1353 1065,1355 1065,1355"/>
<polygon class="pen1 brush2" points="896,1397 893,1391 888,1383 883,1375 879,1372 870,1368 862,1363 854,1358 848,1351 841,1345 836,1338 832,1331 828,1324 828,1323 825,1323 820,1322 813,1322 805,1321 798,1320 791,1319 785,1318 759,1345 770,1369 783,1387 798,1401 814,1409 833,1413 853,1412 874,1407 896,1397 896,1397"/>
<polygon class="pen1 brush2" points="775,1318 748,1338 725,1336 704,1331 686,1323 672,1312 660,1297 653,1279 649,1258 650,1233 676,1234 670,1226 639,1221 618,1208 600,1194 586,1177 577,1159 572,1140 572,1119 579,1097 592,1074 597,1084 603,1093 610,1099 617,1104 623,1108 629,1110 632,1113 633,1115 631,1143 636,1167 646,1186 660,1202 676,1215 693,1226 709,1234 723,1241 723,1258 724,1272 727,1283 731,1293 737,1301 747,1307 759,1313 775,1318 775,1318"/>
<polygon class="pen1 brush2" points="590,1062 585,1068 553,1035 537,1004 532,975 536,949 545,928 558,912 570,902 578,900 598,899 596,917 598,934 603,951 610,967 601,974 594,984 588,996 584,1010 582,1025 582,1039 585,1052 590,1062 590,1062"/>
<polygon class="pen1 brush2" points="600,889 581,889 571,864 567,841 567,820 572,801 582,784 598,770 618,758 643,748 667,761 656,776 651,793 650,811 652,828 650,832 647,834 645,837 643,841 636,843 630,847 623,851 617,857 611,863 607,871 603,880 600,889 600,889"/>
<polygon class="pen1 brush2" points="774,655 740,641 712,639 689,646 672,658 659,675 652,694 650,712 652,727 656,736 660,743 665,747 671,750 676,741 684,735 694,730 705,726 716,724 726,722 735,721 742,720 743,713 746,704 749,695 753,685 757,676 763,667 768,660 774,655 774,655"/>
<polygon class="pen1 brush2" points="1150,691 1143,728 1132,731 1139,683 1133,661 1124,644 1112,631 1097,623 1081,619 1062,620 1042,625 1021,635 1024,683 1014,684 1011,633 1005,627 998,621 989,614 979,608 968,604 956,601 943,600 930,602 923,604 916,607 909,611 903,616 897,621 891,627 886,633 882,639 906,679 900,690 890,675 880,663 869,653 858,646 846,641 832,640 816,641 798,645 788,651 780,659 772,669 766,679 761,689 756,699 753,709 751,717 795,734 796,747 782,742 768,737 753,733 738,731 723,731 708,734 694,740 681,751 669,769 662,790 658,811 657,829 674,868 664,876 653,843 646,847 639,851 632,857 625,863 619,870 614,878 609,886 606,896 603,914 605,933 609,950 616,966 650,984 644,993 613,978 601,994 594,1011 591,1028 592,1045 597,1061 606,1076 618,1089 634,1101 653,1069 666,1071 640,1116 637,1135 639,1153 646,1170 657,1185 670,1200 687,1212 705,1222 725,1230 744,1213 751,1218 731,1241 732,1264 738,1281 747,1294 760,1302 775,1307 792,1311 810,1313 828,1315 840,1263 852,1258 835,1322 843,1337 853,1348 864,1355 877,1360 891,1362 905,1361 920,1357 934,1352 954,1308 963,1312 944,1361 965,1371 986,1374 1007,1372 1027,1366 1044,1358 1057,1350 1064,1344 1066,1341 1062,1305 1071,1299 1076,1334 1098,1335 1119,1335 1138,1334 1156,1331 1171,1324 1184,1312 1193,1295 1200,1271 1180,1234 1184,1224 1211,1268 1217,1267 1223,1266 1228,1264 1234,1261 1239,1257 1244,1254 1249,1249 1254,1244 1265,1230 1272,1213 1277,1196 1278,1179 1244,1159 1244,1146 1288,1170 1294,1166 1301,1162 1308,1158 1314,1153 1319,1147 1325,1141 1329,1133 1332,1125 1334,1106 1332,1087 1326,1068 1319,1052 1292,1020 1298,1007 1322,1038 1336,1019 1345,1002 1349,985 1348,969 1343,953 1333,938 1318,923 1299,909 1267,947 1259,940 1295,899 1300,882 1301,866 1300,851 1296,837 1289,824 1279,813 1266,803 1251,795 1217,835 1211,828 1245,788 1247,767 1244,747 1237,730 1226,716 1212,705 1194,697 1173,692 1150,691 1150,691"/>
<polygon class="pen1 brush2" points="0,994 30,1010 61,1025 95,1039 129,1051 165,1062 201,1072 238,1081 276,1088 314,1095 351,1101 389,1107 425,1111 461,1115 497,1118 531,1121 563,1123 565,1115 567,1103 572,1088 581,1074 553,1053 534,1029 523,1003 520,977 524,951 534,927 550,905 572,886 570,881 567,875 564,869 562,863 524,866 487,869 450,873 414,877 379,882 344,887 309,894 275,900 241,908 207,917 173,927 139,937 105,949 70,963 35,978 0,994 0,994"/>
<polygon class="pen1 brush2" points="413,1379 421,1368 429,1357 438,1345 447,1333 456,1321 466,1309 476,1296 486,1283 497,1270 507,1257 518,1244 529,1230 540,1217 551,1204 562,1190 573,1177 573,1174 570,1162 566,1148 565,1136 551,1135 538,1134 525,1134 512,1133 500,1132 487,1131 475,1130 463,1129 452,1128 440,1126 429,1125 418,1124 407,1123 397,1122 386,1120 376,1119 337,1139 300,1161 265,1184 232,1209 201,1235 172,1261 146,1287 122,1312 100,1335 82,1358 65,1378 52,1395 41,1410 33,1421 29,1428 27,1430 57,1430 87,1429 115,1428 143,1426 170,1424 196,1422 221,1419 246,1416 270,1412 292,1408 314,1404 336,1400 356,1395 376,1390 395,1385 413,1379 413,1379"/>
<polygon class="pen1 brush2" points="251,1722 262,1686 274,1649 289,1613 306,1577 325,1542 344,1506 366,1471 388,1437 411,1403 435,1369 459,1336 484,1304 508,1273 533,1242 557,1212 581,1183 588,1193 595,1201 603,1209 611,1216 618,1222 626,1227 633,1231 640,1233 641,1261 646,1284 654,1302 665,1317 680,1329 698,1338 721,1344 748,1349 749,1350 752,1355 756,1360 760,1368 765,1375 770,1383 775,1390 779,1396 749,1421 719,1446 688,1471 658,1495 627,1519 595,1542 563,1564 531,1586 498,1607 465,1627 431,1646 397,1663 361,1680 325,1695 289,1709 251,1722 251,1722"/>
<polygon class="pen1 brush2" points="619,1918 617,1909 614,1885 610,1848 606,1799 604,1741 606,1677 613,1607 626,1535 636,1528 646,1520 656,1513 667,1505 676,1497 686,1490 696,1482 706,1474 716,1466 726,1458 736,1450 746,1442 757,1433 767,1424 777,1415 788,1406 791,1408 794,1410 798,1412 802,1414 806,1415 811,1417 814,1418 818,1420 824,1481 830,1537 838,1590 845,1639 836,1654 826,1670 815,1686 804,1702 792,1718 780,1735 767,1752 753,1769 739,1787 724,1805 709,1823 692,1841 675,1860 657,1879 638,1898 619,1918 619,1918"/>
<polygon class="pen1 brush2" points="826,1426 836,1515 846,1593 857,1663 871,1727 889,1789 910,1849 937,1911 970,1977 971,1979 971,1981 971,1982 971,1982 973,1980 975,1977 977,1974 978,1970 1010,1899 1036,1829 1057,1760 1074,1692 1087,1622 1098,1551 1106,1477 1113,1399 1107,1397 1100,1395 1092,1392 1084,1388 1077,1385 1071,1383 1067,1381 1065,1380 1053,1393 1042,1405 1031,1415 1021,1424 1011,1431 1001,1436 992,1440 982,1442 973,1443 963,1442 953,1440 943,1436 933,1431 922,1424 911,1416 899,1406 890,1412 881,1417 873,1420 865,1421 857,1422 848,1423 838,1424 826,1426 826,1426"/>
<polygon class="pen1 brush2" points="1123,1396 1120,1441 1117,1487 1114,1532 1109,1572 1119,1591 1130,1609 1143,1629 1156,1648 1170,1668 1185,1688 1202,1709 1219,1730 1238,1751 1258,1773 1280,1795 1302,1817 1326,1840 1352,1862 1379,1886 1407,1909 1408,1901 1409,1879 1410,1844 1410,1799 1407,1745 1401,1684 1390,1619 1373,1551 1362,1543 1350,1535 1339,1526 1327,1516 1314,1507 1302,1496 1289,1486 1276,1475 1262,1464 1249,1453 1235,1442 1222,1430 1208,1419 1194,1407 1181,1396 1167,1385 1162,1388 1159,1391 1155,1392 1151,1393 1147,1394 1141,1394 1133,1395 1123,1396 1123,1396"/>
<polygon class="pen1 brush2" points="1177,1379 1183,1372 1189,1365 1195,1358 1200,1350 1205,1343 1209,1335 1212,1328 1214,1322 1236,1322 1256,1318 1273,1310 1288,1298 1300,1284 1310,1268 1317,1250 1322,1230 1329,1225 1338,1220 1348,1212 1357,1204 1366,1195 1373,1185 1378,1174 1380,1163 1410,1199 1438,1234 1465,1268 1491,1302 1515,1335 1539,1368 1561,1401 1582,1434 1602,1467 1620,1500 1638,1534 1655,1567 1670,1601 1685,1636 1698,1671 1711,1707 1672,1693 1635,1678 1599,1662 1564,1645 1529,1627 1496,1609 1463,1589 1430,1568 1398,1547 1366,1525 1335,1502 1304,1479 1272,1455 1241,1430 1209,1405 1177,1379 1177,1379"/>
<polygon class="pen1 brush2" points="1383,1153 1383,1151 1385,1146 1386,1141 1386,1139 1405,1137 1423,1136 1440,1134 1457,1133 1473,1131 1489,1130 1504,1128 1519,1127 1534,1125 1548,1124 1562,1122 1576,1120 1589,1118 1603,1116 1616,1114 1629,1111 1654,1128 1678,1145 1700,1163 1721,1180 1741,1197 1760,1213 1777,1229 1792,1244 1806,1258 1818,1271 1828,1283 1837,1292 1844,1300 1849,1306 1852,1310 1853,1311 1827,1313 1801,1315 1776,1316 1752,1317 1728,1318 1705,1318 1683,1318 1661,1318 1639,1317 1619,1316 1598,1315 1579,1313 1559,1311 1541,1309 1523,1307 1505,1304 1491,1285 1477,1266 1462,1247 1447,1228 1432,1210 1417,1191 1400,1172 1383,1153 1383,1153"/>
<polygon class="pen1 brush2" points="1954,995 1924,1012 1892,1028 1858,1042 1823,1055 1787,1067 1750,1077 1713,1086 1675,1094 1637,1101 1599,1108 1562,1113 1525,1117 1488,1121 1453,1124 1419,1127 1387,1129 1385,1114 1380,1093 1375,1075 1370,1066 1384,1047 1396,1026 1405,1004 1411,980 1412,957 1407,935 1396,914 1376,895 1377,888 1379,880 1381,870 1383,862 1421,865 1459,869 1496,873 1532,877 1568,882 1604,887 1639,893 1674,900 1709,908 1743,917 1778,927 1813,938 1848,950 1883,964 1918,979 1954,995 1954,995"/>
<polygon class="pen1 brush2" points="1382,835 1399,816 1415,797 1431,778 1445,759 1460,740 1474,721 1488,702 1502,683 1520,680 1538,677 1557,675 1576,673 1596,671 1616,670 1637,669 1659,668 1681,668 1703,668 1727,668 1750,669 1775,670 1800,672 1826,674 1852,676 1851,677 1848,681 1843,687 1836,695 1827,704 1817,716 1805,729 1791,743 1775,758 1758,774 1740,790 1720,807 1698,824 1675,842 1651,859 1626,876 1613,874 1599,871 1586,869 1572,868 1558,866 1544,865 1529,864 1515,862 1499,861 1484,860 1468,859 1451,858 1434,857 1417,855 1399,854 1380,852 1380,849 1381,844 1382,838 1382,835 1382,835"/>
<polygon class="pen1 brush2" points="1186,592 1217,567 1248,543 1279,519 1309,496 1340,473 1371,451 1403,430 1434,410 1466,390 1498,372 1531,354 1565,337 1599,321 1634,305 1670,291 1707,278 1694,314 1681,350 1666,385 1651,419 1634,453 1616,487 1597,520 1577,553 1555,586 1533,619 1509,653 1485,686 1458,720 1431,754 1403,789 1373,825 1371,815 1367,805 1362,796 1356,787 1349,778 1341,770 1334,764 1326,758 1327,734 1323,713 1315,694 1302,679 1287,666 1268,657 1247,651 1224,649 1222,642 1219,635 1215,628 1210,620 1205,613 1199,606 1193,599 1186,592 1186,592"/>
<polygon class="pen1 brush2" points="1123,568 1120,526 1116,487 1111,449 1106,413 1116,395 1128,376 1140,357 1153,337 1168,317 1183,297 1199,277 1217,256 1236,234 1256,213 1277,191 1300,169 1324,146 1349,123 1376,100 1404,76 1405,84 1406,106 1407,142 1407,187 1404,241 1398,302 1387,367 1370,434 1359,442 1348,450 1337,458 1326,466 1314,475 1303,484 1291,492 1279,501 1267,511 1255,520 1242,530 1230,540 1217,551 1204,561 1191,573 1177,584 1171,580 1164,576 1158,573 1151,570 1144,569 1137,568 1130,567 1123,568 1123,568"/>
<polygon class="pen1 brush2" points="823,561 836,557 849,555 862,555 875,556 888,560 900,565 911,571 921,578 933,570 947,563 964,557 983,555 1002,556 1022,562 1041,575 1059,595 1064,591 1069,588 1074,584 1080,580 1086,576 1094,573 1103,569 1113,566 1106,491 1097,420 1085,351 1071,283 1053,217 1031,150 1005,83 975,15 973,10 971,6 969,5 967,8 934,74 907,137 886,198 868,259 854,324 843,394 833,472 823,561 823,561"/>
<polygon class="pen1 brush2" points="617,68 615,76 612,101 607,138 604,187 602,244 604,309 610,378 623,450 633,458 644,465 654,473 665,481 675,489 685,496 696,504 706,512 716,520 727,529 737,537 747,546 758,554 768,563 779,573 789,582 795,577 801,572 807,568 813,564 820,503 827,447 835,396 842,348 833,332 823,316 813,300 802,284 790,267 778,251 765,234 752,216 737,199 722,181 707,163 690,144 673,126 655,107 636,88 617,68 617,68"/>
<polygon class="pen1 brush2" points="248,264 258,300 271,335 285,371 302,405 319,440 338,474 359,508 380,541 402,573 425,605 448,637 472,668 496,698 519,728 543,757 566,785 574,773 584,763 595,755 606,748 616,743 627,739 636,736 643,734 643,693 654,664 673,645 696,633 719,627 740,625 755,626 761,626 761,626 762,626 762,626 763,626 764,626 768,619 772,611 778,602 785,593 755,568 724,542 693,518 662,493 630,469 598,446 566,423 533,401 500,380 466,360 431,341 396,323 360,306 324,291 286,277 248,264 248,264"/>
<polygon class="pen1 brush2" points="411,608 393,602 374,597 354,591 333,587 312,582 290,578 267,574 244,570 220,567 194,565 168,562 141,560 114,559 85,558 55,557 25,557 27,559 31,566 39,577 50,592 63,609 79,629 98,651 120,675 143,700 170,726 198,752 229,777 262,802 297,826 334,848 373,868 384,867 394,865 405,864 416,863 427,862 438,860 449,859 460,858 472,857 484,856 496,855 508,854 520,852 533,851 546,850 559,849 556,836 556,822 558,808 562,795 554,789 538,770 515,742 489,710 463,676 439,645 421,621 411,608"/>
</g>
</svg>
