<?xml version="1.0" encoding="UTF-8" standalone="no"?>
<!DOCTYPE svg PUBLIC "-//W3C//DTD SVG 1.0//EN" "http://www.w3.org/TR/2001/REC-SVG-20010904/DTD/svg10.dtd">
<svg xmlns="http://www.w3.org/2000/svg" xmlns:xlink="http://www.w3.org/1999/xlink" fill-rule="evenodd" height="2.037in" preserveAspectRatio="none" stroke-linecap="round" viewBox="0 0 1947 2037" width="1.947in">
<style type="text/css">
.brush0 { fill: rgb(255,255,255); }
.pen0 { stroke: rgb(0,0,0); stroke-width: 1; stroke-linejoin: round; }
.brush1 { fill: none; }
.pen1 { stroke: none; }
.brush2 { fill: rgb(0,0,0); }
</style>
<g>
<polygon class="pen1 brush2" points="950,1133 938,1050 929,968 924,899 921,855 839,855 841,857 844,858 846,860 849,861 855,874 860,887 865,900 869,912 872,923 873,932 872,938 869,942 865,943 860,943 854,943 848,941 841,938 835,935 828,931 821,926 802,957 813,968 824,979 834,988 842,997 849,1004 854,1009 858,1013 859,1014 852,1018 845,1022 838,1026 831,1029 824,1033 818,1037 811,1040 804,1044 797,1036 790,1028 782,1020 775,1011 761,1035 769,1044 776,1056 781,1073 785,1095 785,1102 785,1108 785,1114 784,1119 819,1122 829,1100 839,1083 849,1069 858,1059 865,1052 871,1047 875,1045 876,1044 879,1063 883,1084 888,1106 893,1129 950,1133"/>
<polygon class="pen1 brush2" points="1774,1203 1773,1196 1775,1189 1779,1183 1782,1176 1785,1170 1786,1164 1784,1158 1778,1152 1769,1147 1760,1143 1750,1140 1739,1139 1729,1138 1718,1137 1708,1136 1697,1135 1690,1131 1685,1124 1679,1118 1671,1115 1665,1116 1660,1118 1656,1122 1652,1127 1648,1132 1645,1138 1641,1142 1636,1146 1631,1148 1627,1148 1623,1147 1620,1146 1616,1144 1613,1141 1610,1138 1606,1136 1599,1136 1592,1143 1585,1151 1578,1153 1570,1151 1562,1149 1554,1148 1546,1147 1538,1147 1530,1149 1523,1153 1517,1159 1509,1158 1500,1155 1493,1153 1486,1149 1480,1146 1475,1141 1471,1136 1468,1131 1466,1118 1469,1103 1474,1087 1481,1071 1488,1056 1495,1044 1500,1036 1502,1033 1509,1026 1516,1024 1523,1026 1529,1029 1536,1033 1542,1035 1548,1034 1554,1028 1560,1018 1566,1007 1573,997 1581,987 1587,984 1595,983 1602,982 1608,977 1611,969 1616,962 1621,957 1626,952 1633,949 1640,946 1648,944 1656,942 1679,919 1689,916 1697,913 1702,910 1706,907 1710,904 1713,901 1718,897 1725,893 1731,891 1738,891 1744,892 1751,893 1758,894 1764,895 1770,893 1775,890 1780,883 1782,874 1783,864 1785,855 1244,855 1229,900 1213,946 1196,992 1178,1035 1160,1073 1144,1102 1129,1120 1116,1126 1100,1116 1097,1094 1103,1065 1116,1032 1131,999 1147,969 1160,946 1167,935 1173,924 1179,914 1184,903 1190,893 1194,883 1199,874 1203,864 1207,855 1170,855 1168,863 1165,869 1162,874 1160,876 1159,872 1157,868 1156,862 1154,855 1119,855 1123,896 1122,927 1117,951 1109,967 1100,978 1089,984 1080,985 1072,984 1068,980 1064,970 1059,956 1055,939 1051,920 1047,899 1044,877 1041,855 998,855 1005,883 1012,915 1020,951 1027,988 1034,1027 1040,1067 1045,1105 1048,1142 1147,1150 1157,1131 1171,1112 1186,1093 1202,1074 1219,1057 1235,1041 1249,1028 1261,1017 1266,1020 1271,1021 1275,1021 1279,1018 1284,1014 1289,1009 1295,1004 1302,1001 1309,1001 1314,1006 1318,1013 1323,1017 1328,1016 1332,1013 1336,1010 1339,1010 1343,1013 1347,1016 1351,1019 1355,1022 1359,1024 1363,1025 1367,1025 1372,1024 1377,1021 1382,1019 1387,1016 1392,1015 1397,1014 1402,1014 1406,1015 1410,1018 1414,1023 1418,1027 1422,1029 1426,1030 1426,1041 1421,1070 1413,1101 1409,1118 1396,1115 1382,1116 1367,1119 1352,1125 1336,1132 1321,1141 1306,1151 1291,1162 1329,1166 1331,1164 1334,1162 1337,1161 1339,1159 1349,1153 1359,1149 1369,1146 1379,1144 1387,1144 1394,1144 1399,1147 1403,1150 1405,1155 1405,1160 1403,1166 1400,1172 1774,1203"/>
<polygon class="pen1 brush2" points="1390,274 1388,263 1389,252 1391,240 1394,230 1400,216 1407,199 1413,181 1417,164 1416,149 1409,137 1395,131 1373,132 1368,133 1364,135 1359,137 1355,139 1350,141 1346,142 1341,143 1336,142 1331,140 1327,138 1323,134 1319,130 1315,127 1312,123 1308,119 1304,116 1297,113 1289,111 1281,111 1273,111 1264,111 1256,112 1248,112 1240,111 1237,109 1232,107 1226,103 1220,100 1214,96 1209,93 1204,92 1200,92 1200,84 1199,76 1196,69 1190,65 1178,60 1167,61 1158,66 1150,74 1145,85 1141,96 1141,108 1143,119 1145,145 1139,160 1127,165 1112,162 1097,154 1084,141 1076,127 1076,112 1071,107 1066,104 1060,103 1053,104 1046,105 1039,108 1032,111 1025,115 1014,117 1012,107 1014,93 1015,85 1013,80 1010,75 1006,70 1002,65 1004,58 1009,46 1012,34 1007,25 999,21 990,19 981,17 971,15 962,15 952,15 943,16 934,18 926,21 919,25 911,29 904,34 896,38 888,41 879,43 870,44 867,44 865,42 862,39 859,35 851,26 842,23 832,26 823,31 814,37 806,42 799,44 794,41 790,35 786,29 782,24 777,20 776,28 775,35 772,43 769,50 764,55 759,60 753,62 747,62 743,61 739,60 735,58 731,56 726,55 722,53 718,53 714,54 703,61 694,70 685,81 678,92 671,104 665,117 659,129 653,142 646,142 639,143 632,144 625,145 619,147 612,149 605,152 599,156 593,160 589,165 585,170 579,175 568,177 559,174 552,168 546,160 541,151 537,145 532,142 527,145 522,154 518,163 513,171 504,175 501,169 497,165 493,163 488,161 482,161 477,161 471,161 465,160 458,157 453,150 450,143 447,135 442,129 437,129 432,133 427,139 423,147 420,155 418,162 417,166 414,166 411,168 408,170 404,169 398,165 392,164 386,165 382,170 377,181 370,190 363,199 355,207 345,213 335,218 325,221 313,221 307,220 302,217 297,215 292,213 288,212 284,212 280,212 275,212 271,212 267,212 264,211 261,209 259,204 258,198 256,193 254,190 245,186 236,185 227,186 217,188 208,191 198,195 188,198 179,200 173,198 167,195 162,191 157,190 152,191 146,193 141,195 136,197 130,199 125,201 119,202 113,204 104,203 100,197 97,188 93,179 88,176 82,180 77,189 75,196 72,215 69,235 66,255 65,274 407,274 411,267 413,260 416,255 421,253 429,253 438,257 444,263 448,271 448,272 448,273 449,274 450,274 745,274 744,273 743,271 742,270 741,268 739,255 742,244 748,233 758,223 763,218 767,212 772,207 778,204 782,204 786,205 789,206 793,208 797,210 801,212 805,214 809,216 815,215 820,211 825,208 832,207 839,211 843,218 846,226 852,230 860,232 867,236 873,240 876,246 878,252 880,260 881,267 883,274 1390,274"/>
<polygon class="pen1 brush2" points="1369,524 1374,515 1379,506 1385,498 1391,491 1398,484 1403,479 1409,475 1413,473 1418,472 1423,471 1428,470 1433,470 1438,470 1444,470 1449,470 1454,470 1460,470 1465,469 1470,466 1476,462 1481,458 1486,454 1491,449 1497,446 1538,444 1551,419 1558,411 1566,405 1576,400 1584,394 1590,388 1592,380 1589,371 1579,358 1575,352 1573,345 1571,337 1568,331 1563,326 1557,323 1550,321 1544,319 1537,318 1530,317 1524,314 1519,311 1500,305 1485,305 1473,308 1463,312 1453,315 1443,316 1431,313 1416,304 1406,301 1398,294 1393,285 1390,274 883,274 884,278 885,282 887,285 890,288 891,292 889,296 885,299 883,301 879,306 874,308 868,308 863,306 856,304 850,302 843,301 836,301 831,302 826,304 820,308 815,311 810,313 806,312 803,309 802,305 800,297 796,292 791,288 786,286 779,285 772,284 765,284 758,284 755,283 752,280 749,277 745,274 450,274 454,285 459,295 461,304 457,311 453,314 449,318 444,320 440,323 435,326 430,328 426,332 421,335 420,336 418,336 416,334 414,332 410,326 407,318 404,312 396,308 391,309 386,310 381,311 375,311 364,309 358,306 355,302 355,299 358,295 361,292 366,289 370,288 375,291 379,290 382,287 386,285 388,284 391,284 395,283 396,281 400,280 403,279 406,277 407,274 65,274 65,279 65,284 65,288 65,292 65,296 66,301 67,305 66,310 62,331 62,351 62,372 59,393 57,400 53,407 49,414 46,420 46,428 49,435 53,441 59,447 65,453 71,459 77,465 81,471 82,480 79,489 75,498 75,507 75,512 77,516 78,520 79,524 566,524 562,517 558,511 553,507 548,504 548,497 550,492 553,489 557,487 562,487 568,488 573,490 578,493 586,498 594,505 600,514 606,524 677,524 673,520 669,516 665,512 661,508 667,508 673,507 677,506 681,504 684,501 687,498 690,495 694,490 698,498 702,506 706,515 711,524 754,524 747,502 739,482 733,464 727,449 728,444 729,439 731,435 734,430 741,437 748,444 754,449 761,453 767,455 773,456 778,457 784,457 790,472 797,489 805,506 812,524 839,524 831,507 824,488 817,470 811,453 810,446 816,440 824,436 832,436 837,431 843,425 847,419 850,412 850,405 845,399 840,392 836,385 836,378 837,371 839,366 842,364 847,362 853,361 859,360 865,360 871,360 877,361 883,362 889,364 891,367 894,372 895,378 896,381 891,416 885,456 878,494 870,524 903,524 906,500 910,476 915,452 920,432 929,427 936,424 943,423 949,425 954,430 958,438 960,449 961,464 958,479 955,494 951,509 947,524 987,524 992,504 996,488 999,477 1000,473 1005,483 1006,496 1005,510 1004,524 1369,524"/>
<polygon class="pen1 brush2" points="1785,855 1786,853 1787,850 1789,848 1791,846 1799,841 1807,837 1815,833 1824,829 1833,826 1842,823 1851,821 1860,818 1866,811 1866,798 1865,786 1866,781 1868,767 1874,754 1882,744 1893,737 1901,734 1908,731 1916,728 1923,724 1930,719 1935,714 1940,707 1943,699 1943,691 1941,686 1936,681 1931,677 1924,674 1917,670 1910,665 1904,659 1900,655 1895,651 1890,648 1885,646 1879,645 1874,645 1868,645 1863,646 1858,648 1854,651 1850,654 1846,658 1842,662 1838,665 1834,668 1829,670 1821,670 1820,663 1821,654 1818,646 1814,644 1810,642 1806,639 1804,635 1803,624 1805,614 1809,605 1816,597 1823,591 1832,585 1842,581 1852,577 1861,569 1861,555 1856,540 1850,527 1847,521 1842,513 1836,504 1830,495 1822,486 1813,478 1803,472 1792,469 1773,467 1757,470 1746,476 1737,485 1732,495 1728,507 1725,517 1724,527 1722,538 1720,547 1716,554 1711,560 1705,566 1698,570 1690,575 1680,581 1674,586 1670,593 1666,602 1661,609 1654,619 1646,628 1638,637 1630,646 1623,656 1616,666 1610,677 1606,689 1592,687 1579,686 1565,685 1552,686 1538,687 1525,689 1511,691 1498,694 1490,698 1484,703 1477,709 1471,715 1465,722 1460,729 1454,736 1448,743 1441,748 1434,750 1426,751 1417,749 1408,746 1400,742 1391,737 1383,731 1376,731 1370,738 1364,748 1358,754 1352,756 1346,758 1339,760 1333,760 1327,760 1321,759 1316,757 1311,754 1306,748 1301,739 1298,730 1299,720 1302,715 1307,711 1313,708 1318,703 1322,693 1324,682 1327,672 1333,663 1338,661 1343,660 1348,660 1353,661 1358,663 1363,666 1367,669 1370,673 1375,680 1380,688 1385,695 1391,701 1397,707 1403,711 1411,715 1419,717 1427,703 1436,688 1444,674 1452,659 1458,644 1462,628 1464,612 1463,594 1465,586 1471,579 1481,572 1492,566 1502,560 1509,553 1512,546 1509,537 1503,534 1496,535 1487,536 1480,533 1473,527 1468,524 1463,522 1458,522 1454,523 1449,524 1445,526 1440,527 1440,527 1440,527 1435,535 1429,544 1422,552 1413,559 1403,565 1393,568 1383,570 1373,568 1364,562 1361,552 1363,539 1369,524 1004,524 1004,525 1004,526 1004,527 1004,527 1004,532 1007,543 1009,557 1005,568 997,574 990,580 983,587 978,596 979,600 982,603 986,606 988,609 991,622 995,633 1001,644 1008,655 1008,667 1004,682 1002,702 1009,727 1010,735 1006,741 1000,745 994,744 986,736 982,724 978,712 971,703 965,696 960,684 954,673 951,665 954,656 957,643 962,627 966,608 971,587 977,565 982,544 987,524 947,524 943,536 939,548 935,558 931,567 927,574 922,578 917,580 911,578 906,570 903,558 902,543 903,524 870,524 868,531 865,537 862,542 859,544 854,543 849,539 844,533 839,524 812,524 818,541 823,557 829,572 833,585 827,585 822,587 816,589 811,592 806,596 802,600 799,605 796,611 795,614 795,616 795,619 794,621 789,611 784,600 779,588 774,575 769,563 764,550 759,537 754,524 711,524 717,538 723,553 728,566 734,578 738,589 741,597 743,602 744,604 739,598 733,591 726,581 717,571 707,559 697,547 687,536 677,524 606,524 611,531 615,538 618,542 620,544 640,562 661,580 682,600 703,619 723,637 741,655 757,670 771,683 769,696 764,705 757,710 749,712 740,713 731,715 723,718 715,723 711,732 711,743 714,754 721,763 727,768 732,773 738,778 743,784 749,789 754,793 761,797 768,800 767,808 768,814 772,819 778,822 782,823 787,824 791,823 796,823 800,822 805,822 810,823 815,825 822,831 828,839 833,847 839,855 921,855 921,855 926,852 931,848 934,843 937,839 940,832 942,824 944,816 950,811 954,811 959,810 963,810 969,810 974,810 978,810 983,810 987,810 989,817 991,826 995,839 998,855 1041,855 1039,842 1037,829 1035,817 1034,807 1038,803 1043,800 1047,797 1052,796 1057,796 1063,796 1069,798 1075,801 1078,802 1082,802 1086,801 1091,799 1095,798 1099,796 1103,793 1106,791 1111,809 1114,825 1117,841 1119,855 1154,855 1149,833 1144,810 1139,786 1134,765 1136,764 1140,761 1146,759 1152,756 1157,755 1162,754 1166,754 1167,757 1171,766 1178,770 1186,771 1194,771 1193,787 1187,809 1179,833 1170,855 1207,855 1218,823 1225,795 1229,772 1230,753 1234,748 1238,745 1244,744 1249,745 1255,747 1260,749 1265,753 1268,757 1266,774 1261,796 1254,824 1244,855 1785,855"/>
<polygon class="pen1 brush2" points="821,926 814,921 807,916 801,911 795,906 798,903 800,900 802,896 804,892 804,886 798,882 791,878 786,872 785,866 784,861 782,856 778,852 771,848 766,842 760,837 752,835 747,834 742,833 737,833 732,832 727,832 722,832 718,831 713,831 703,811 685,777 661,734 635,688 609,643 586,605 571,578 565,568 572,565 574,555 571,540 566,524 79,524 83,536 89,547 96,558 105,567 109,569 114,570 118,570 124,570 129,570 133,570 138,572 142,575 148,583 153,593 158,600 167,605 175,605 184,604 192,602 200,599 208,596 216,594 225,594 233,595 239,597 244,600 249,603 254,605 261,606 268,604 275,603 282,606 287,611 292,615 298,618 304,619 308,617 311,614 315,610 319,609 324,612 329,615 335,618 341,621 346,624 352,625 358,625 363,622 374,613 385,602 396,592 407,583 418,575 431,569 443,567 457,568 462,570 467,573 472,577 477,581 482,585 487,589 493,591 500,592 505,592 510,591 515,590 519,589 523,588 528,586 532,583 536,581 556,606 575,637 593,671 610,706 626,742 639,775 650,805 659,828 655,827 649,826 642,826 636,825 629,825 624,827 620,830 619,835 623,844 628,853 633,863 633,873 627,871 620,869 614,867 608,865 601,862 595,859 589,856 583,852 575,848 565,844 554,838 544,832 536,824 531,815 530,804 534,791 540,782 549,774 559,765 569,757 578,748 584,739 586,729 582,719 577,714 572,709 566,706 560,704 554,703 548,703 542,704 536,706 532,709 528,712 525,715 521,718 518,720 514,723 510,725 505,727 500,728 495,730 491,732 487,734 483,736 479,738 475,739 470,740 464,741 459,741 453,740 448,739 440,741 432,744 424,747 416,750 408,753 400,756 392,759 383,761 372,759 368,749 366,736 359,724 354,722 348,722 342,721 338,720 330,710 331,696 333,681 329,667 325,664 320,661 315,661 309,661 304,663 300,666 297,670 296,676 299,686 302,697 302,708 295,716 285,719 275,720 265,720 255,719 245,719 236,721 226,725 217,733 210,738 204,739 197,738 190,735 183,731 177,726 171,721 166,717 162,715 157,714 153,714 149,715 144,716 140,717 136,718 132,717 127,715 122,712 118,707 114,702 111,697 107,692 103,690 99,690 93,694 87,699 82,705 77,711 71,716 65,720 58,721 51,720 44,717 38,714 32,712 25,713 18,722 16,739 16,758 14,771 10,782 10,793 12,802 17,811 23,820 30,827 38,834 46,841 50,848 50,857 50,866 54,875 57,878 61,881 65,884 69,885 74,886 79,887 84,887 89,886 90,892 91,899 90,905 85,908 76,908 67,909 61,912 58,919 58,930 61,939 66,948 73,956 81,963 90,969 99,974 109,979 115,980 122,980 128,979 135,977 141,975 148,974 154,976 161,979 167,988 168,998 168,1010 170,1021 174,1032 175,1044 170,1052 157,1055 149,1055 144,1053 140,1051 137,1049 133,1046 130,1043 124,1040 117,1037 113,1038 109,1043 105,1051 102,1061 563,1101 558,1099 553,1097 548,1094 543,1092 539,1090 534,1088 531,1087 527,1085 533,1079 540,1073 546,1068 552,1062 558,1059 564,1058 571,1058 577,1058 584,1058 591,1058 597,1057 602,1054 607,1044 608,1033 611,1021 620,1013 623,1012 626,1011 630,1012 633,1014 634,1017 635,1021 637,1024 640,1027 643,1029 647,1031 651,1031 653,1028 657,1017 659,1006 661,994 663,983 663,994 664,1006 665,1019 666,1033 666,1033 667,1052 668,1072 669,1091 670,1109 725,1115 724,1082 724,1054 725,1034 727,1027 732,1027 736,1027 741,1028 745,1028 749,1029 753,1031 757,1033 761,1035 775,1011 766,1003 758,995 749,986 741,978 733,970 725,962 716,954 708,946 706,936 703,926 704,917 714,912 720,912 726,913 731,914 737,915 742,916 748,917 753,918 759,919 765,923 770,928 776,932 781,937 786,942 791,947 797,952 802,957 821,926"/>
<polygon class="pen1 brush2" points="1072,1385 1076,1379 1080,1373 1085,1368 1089,1363 1094,1358 1099,1353 1103,1348 1108,1344 1108,1344 1125,1328 1143,1313 1161,1301 1179,1290 1197,1281 1215,1274 1233,1268 1250,1264 1276,1259 1301,1253 1323,1247 1343,1241 1361,1234 1378,1227 1392,1220 1405,1214 1416,1207 1426,1201 1434,1196 1440,1191 1445,1187 1448,1184 1450,1183 1451,1182 1460,1187 1469,1191 1478,1194 1487,1197 1496,1199 1504,1200 1511,1202 1517,1203 1519,1215 1520,1226 1522,1236 1528,1246 1531,1247 1534,1247 1538,1247 1542,1246 1546,1245 1550,1244 1555,1243 1559,1244 1564,1249 1567,1257 1570,1264 1578,1267 1583,1266 1589,1264 1596,1263 1600,1267 1603,1273 1606,1279 1610,1284 1616,1284 1621,1282 1626,1279 1631,1276 1636,1273 1641,1270 1646,1267 1651,1266 1656,1265 1661,1265 1666,1267 1671,1269 1676,1272 1681,1275 1686,1277 1691,1278 1697,1277 1704,1275 1710,1271 1715,1267 1721,1264 1726,1263 1731,1263 1736,1263 1741,1264 1746,1264 1751,1265 1756,1264 1761,1263 1771,1257 1777,1250 1780,1243 1781,1236 1780,1228 1778,1220 1776,1212 1774,1203 1400,1172 1398,1176 1395,1180 1391,1184 1387,1188 1383,1192 1378,1196 1372,1200 1366,1204 1356,1210 1346,1215 1336,1219 1327,1221 1318,1222 1311,1221 1306,1218 1302,1214 1300,1209 1300,1204 1302,1198 1305,1192 1309,1186 1315,1179 1322,1172 1329,1166 1291,1162 1283,1168 1275,1175 1268,1181 1261,1187 1254,1192 1248,1198 1242,1203 1237,1207 1222,1219 1208,1229 1195,1236 1182,1239 1171,1237 1160,1230 1150,1216 1142,1196 1140,1186 1140,1174 1143,1162 1147,1150 1048,1142 1049,1168 1049,1191 1047,1213 1044,1231 1039,1246 1032,1258 1023,1265 1012,1268 1002,1266 992,1259 984,1246 976,1230 968,1210 962,1187 956,1161 950,1133 893,1129 899,1153 905,1175 911,1197 917,1216 922,1232 926,1245 928,1253 929,1256 923,1266 915,1278 906,1290 896,1301 887,1312 880,1320 875,1326 873,1328 864,1326 852,1322 837,1317 821,1312 806,1307 794,1302 785,1299 782,1298 785,1269 788,1242 792,1217 797,1194 802,1173 808,1154 813,1137 819,1122 784,1119 779,1136 772,1151 763,1165 754,1177 745,1187 738,1194 733,1198 731,1200 729,1182 728,1161 726,1138 725,1115 670,1109 672,1130 673,1146 674,1156 674,1160 666,1153 656,1146 643,1138 628,1130 613,1123 596,1115 579,1108 563,1101 102,1061 100,1066 99,1071 99,1075 99,1078 101,1085 105,1089 111,1093 117,1098 121,1100 126,1102 131,1104 137,1105 143,1105 148,1103 153,1100 156,1095 163,1103 168,1110 173,1116 180,1121 184,1123 188,1125 192,1127 196,1129 200,1131 204,1133 209,1135 214,1136 223,1139 230,1142 235,1146 239,1150 242,1154 245,1158 248,1160 252,1162 261,1163 269,1164 278,1163 287,1162 295,1161 304,1159 313,1157 322,1156 326,1157 329,1160 331,1163 335,1166 340,1168 347,1167 356,1164 366,1161 377,1157 387,1153 396,1152 403,1153 408,1148 414,1142 420,1137 427,1132 433,1127 440,1123 448,1120 456,1118 493,1129 526,1141 555,1153 580,1167 602,1181 621,1195 636,1208 649,1222 659,1235 667,1246 673,1257 677,1266 680,1274 682,1280 683,1284 683,1285 672,1283 660,1283 647,1283 633,1284 619,1285 605,1287 591,1290 577,1292 563,1295 550,1299 537,1302 525,1305 514,1309 504,1312 495,1315 488,1317 484,1310 483,1301 481,1291 474,1284 465,1281 457,1281 448,1281 439,1283 430,1285 421,1286 412,1287 403,1287 396,1285 390,1282 383,1278 376,1275 372,1275 369,1276 366,1278 362,1280 359,1282 355,1284 351,1286 346,1287 341,1287 337,1285 333,1284 329,1281 326,1279 322,1278 319,1277 315,1278 310,1281 306,1286 302,1291 298,1296 293,1300 287,1304 281,1305 274,1304 269,1301 266,1296 263,1290 259,1285 248,1283 240,1291 234,1303 230,1315 227,1320 222,1322 216,1323 211,1323 205,1325 200,1327 196,1332 194,1341 196,1352 199,1363 201,1374 197,1382 188,1388 179,1395 172,1403 170,1413 172,1421 176,1427 183,1431 191,1434 199,1435 208,1436 217,1436 224,1436 232,1439 239,1444 246,1451 252,1457 259,1463 266,1466 275,1467 286,1463 296,1459 303,1460 308,1464 313,1471 316,1478 319,1486 322,1494 325,1500 332,1506 341,1509 349,1509 358,1507 366,1505 372,1502 375,1499 376,1497 384,1499 391,1504 397,1510 402,1517 407,1524 413,1531 419,1536 427,1540 434,1540 441,1538 448,1534 454,1528 459,1522 465,1516 471,1511 477,1508 486,1506 495,1505 504,1504 513,1502 522,1502 531,1501 539,1500 548,1500 552,1498 557,1494 561,1489 566,1483 573,1479 580,1478 587,1478 594,1479 602,1480 609,1481 616,1481 623,1479 630,1475 637,1467 642,1457 646,1445 649,1433 652,1421 653,1411 653,1403 651,1393 647,1385 640,1378 632,1373 622,1369 612,1365 602,1363 593,1361 586,1367 579,1374 571,1381 564,1386 555,1390 547,1391 539,1387 531,1379 526,1386 519,1392 512,1395 504,1396 503,1383 500,1382 499,1380 508,1365 515,1362 524,1359 533,1355 544,1352 554,1349 565,1346 574,1345 582,1344 601,1341 620,1338 638,1336 655,1334 671,1333 685,1332 696,1332 704,1332 707,1334 711,1336 714,1340 717,1344 717,1344 720,1351 724,1361 729,1373 734,1385 792,1385 789,1369 788,1356 786,1348 786,1345 802,1349 818,1353 832,1358 846,1362 858,1368 870,1373 880,1379 889,1385 941,1385 939,1377 938,1369 937,1360 937,1351 939,1328 944,1309 952,1296 961,1291 971,1296 979,1309 985,1328 987,1351 986,1360 985,1369 983,1377 981,1385 1072,1385"/>
<polygon class="pen1 brush2" points="791,1948 807,1974 829,1988 853,1992 878,1990 902,1983 922,1975 935,1968 940,1965 939,1863 944,1770 955,1685 970,1609 990,1542 1014,1482 1042,1430 1072,1385 981,1385 977,1395 973,1403 967,1408 961,1410 956,1408 951,1403 946,1395 941,1385 889,1385 897,1391 903,1397 910,1403 915,1410 920,1417 924,1425 927,1432 929,1440 928,1457 919,1476 906,1496 891,1515 874,1531 860,1545 850,1554 846,1557 836,1541 827,1522 818,1500 811,1477 805,1452 799,1428 795,1406 792,1385 734,1385 742,1411 749,1440 756,1471 763,1502 770,1533 776,1560 781,1585 785,1604 789,1633 789,1672 786,1717 782,1766 778,1816 778,1865 781,1910 791,1948"/>
</g>
</svg>
