<?xml version="1.0" encoding="UTF-8" standalone="no"?>
<!DOCTYPE svg PUBLIC "-//W3C//DTD SVG 1.0//EN" "http://www.w3.org/TR/2001/REC-SVG-20010904/DTD/svg10.dtd">
<svg xmlns="http://www.w3.org/2000/svg" xmlns:xlink="http://www.w3.org/1999/xlink" fill-rule="evenodd" height="1.984in" preserveAspectRatio="none" stroke-linecap="round" viewBox="0 0 1801 1984" width="1.801in">
<style type="text/css">
.brush0 { fill: rgb(255,255,255); }
.pen0 { stroke: rgb(0,0,0); stroke-width: 1; stroke-linejoin: round; }
.brush1 { fill: none; }
.pen1 { stroke: none; }
.brush2 { fill: rgb(0,0,0); }
</style>
<g>
<polygon class="pen1 brush2" points="751,390 792,346 820,302 838,260 847,221 851,188 851,162 849,145 848,139 827,133 805,128 784,126 763,126 742,128 722,131 702,135 683,141 664,148 646,155 629,164 613,173 597,183 583,193 569,203 557,213 551,173 544,140 538,117 535,109 529,115 524,120 518,127 512,133 507,140 502,147 497,154 493,160 480,136 466,114 451,95 435,78 419,63 403,50 388,38 373,29 359,21 345,15 334,10 323,6 315,3 308,1 304,0 303,0 279,35 262,72 252,111 246,150 246,188 249,226 255,260 264,292 240,282 216,274 195,267 175,262 159,259 146,257 138,255 135,255 139,268 144,282 150,295 157,307 164,320 172,331 181,343 190,353 164,362 140,372 118,384 99,396 81,409 66,422 52,435 40,448 30,461 22,472 15,483 9,492 5,500 2,506 1,510 0,511 12,524 25,536 39,547 53,557 68,565 83,572 98,579 114,584 129,589 145,593 161,596 177,598 193,599 208,600 224,600 239,600 221,621 205,641 191,661 179,678 169,693 162,704 158,711 156,714 176,714 196,713 215,710 234,705 253,698 270,690 288,680 304,669 297,725 299,774 307,817 320,853 335,882 348,903 358,916 362,920 379,915 395,909 411,901 426,893 440,884 453,873 466,863 478,851 489,839 500,827 510,814 519,801 528,787 536,774 543,760 550,747 565,765 581,782 595,797 608,809 619,819 627,827 633,831 635,833 639,815 641,796 641,777 640,758 637,739 632,720 626,702 619,684 647,700 675,712 702,722 727,728 752,732 775,734 797,734 818,733 836,730 853,727 867,723 879,719 889,716 896,713 900,711 902,710 899,672 891,637 879,604 862,572 843,544 821,518 798,495 774,474 791,464 806,453 819,443 831,433 839,425 846,419 850,415 851,413 840,407 828,402 816,398 803,395 791,392 778,391 764,390 751,390"/>
<polygon class="pen1 brush2" points="659,727 744,757 746,759 751,765 759,773 769,785 782,800 797,816 813,835 830,855 849,877 867,900 886,923 905,946 923,969 940,992 956,1014 970,1035 972,1034 976,1030 984,1024 995,1015 1008,1005 1024,993 1042,979 1062,964 1084,947 1109,929 1135,910 1162,891 1191,870 1221,850 1252,828 1284,807 1317,785 1350,764 1384,743 1418,723 1452,703 1486,684 1520,666 1554,649 1587,633 1619,619 1651,607 1681,596 1711,588 1739,581 1765,577 1790,575 1787,577 1778,581 1766,588 1751,596 1735,606 1719,616 1706,626 1696,636 1697,636 1701,637 1706,638 1713,639 1721,639 1730,640 1740,640 1750,639 1749,640 1747,642 1743,645 1739,649 1733,653 1728,657 1722,660 1716,663 1718,663 1725,661 1735,660 1747,658 1761,656 1775,655 1789,653 1801,653 1798,654 1790,656 1777,660 1759,666 1737,673 1711,683 1681,694 1647,708 1610,724 1570,742 1527,762 1482,785 1434,810 1385,838 1334,869 1282,902 1229,938 1175,977 1120,1020 1066,1065 1011,1113 957,1165 903,1220 851,1279 800,1341 750,1407 702,1477 656,1550 612,1627 572,1708 534,1794 499,1883 491,1858 488,1868 482,1891 475,1917 472,1939 467,1880 463,1893 453,1924 443,1958 439,1984 439,1979 440,1965 442,1943 446,1913 453,1875 463,1829 478,1778 497,1720 522,1656 554,1587 593,1514 640,1437 696,1356 761,1272 836,1185 922,1096 922,1094 921,1089 920,1081 917,1069 913,1055 907,1037 899,1017 888,994 874,968 856,940 835,910 810,877 780,843 745,806 705,767 659,727 659,727"/>
<polygon class="pen1 brush2" points="970,998 985,939 1004,885 1027,835 1053,789 1082,747 1111,709 1142,675 1173,645 1203,619 1232,596 1259,577 1283,562 1304,550 1321,542 1333,537 1339,535 1366,534 1391,532 1415,529 1436,525 1456,519 1473,513 1489,507 1502,500 1514,492 1523,485 1531,477 1536,470 1539,462 1541,456 1540,449 1537,444 1526,437 1511,436 1494,440 1476,446 1458,453 1444,460 1434,466 1430,468 1438,460 1446,449 1453,437 1460,424 1465,411 1467,399 1467,388 1462,380 1444,374 1423,382 1398,399 1374,421 1351,445 1332,468 1320,484 1315,490 1259,523 1208,559 1163,596 1122,635 1087,674 1056,712 1029,751 1006,787 987,822 971,854 958,883 948,908 941,928 936,944 934,954 933,957 970,998 970,998"/>
<polygon class="pen1 brush2" points="1463,350 1487,338 1511,328 1536,320 1559,315 1580,312 1598,312 1612,315 1621,322 1623,331 1622,342 1617,355 1610,369 1600,384 1589,399 1576,413 1561,427 1554,418 1543,414 1529,413 1515,415 1500,420 1486,425 1474,431 1466,436 1475,420 1482,406 1487,392 1489,380 1488,370 1483,361 1475,355 1463,350"/>
<polygon class="pen1 brush0" points="149,262 169,267 189,272 210,278 230,285 251,293 272,301 292,310 312,321 330,332 348,344 366,357 381,372 396,387 409,403 420,421 429,440 432,438 436,435 441,432 446,430 416,342 409,341 403,337 399,332 398,325 398,317 401,310 407,306 415,303 422,304 428,308 432,314 435,322 435,326 434,330 432,334 429,338 457,427 461,426 464,426 468,426 472,426 469,409 465,379 462,340 462,295 468,249 480,202 501,160 533,126 540,161 547,201 552,245 553,290 551,334 543,375 529,411 508,440 510,442 513,445 515,448 517,450 589,380 587,373 588,366 591,359 597,355 604,352 611,353 618,356 622,362 625,369 625,376 621,383 615,387 612,389 607,389 603,390 598,389 524,460 525,463 526,466 527,470 528,474 542,464 558,453 575,444 594,435 614,427 634,420 656,414 677,408 699,404 721,402 742,400 763,400 783,402 802,405 820,410 837,417 822,432 805,445 788,457 770,469 752,479 732,487 713,495 693,501 672,507 652,511 631,513 610,515 589,515 568,514 547,512 526,508 526,510 525,511 524,511 524,512 624,582 630,578 637,577 643,578 649,582 653,589 654,596 653,603 649,609 642,613 635,614 628,613 622,609 619,605 617,600 617,596 618,592 518,522 517,524 516,526 514,529 513,531 523,541 541,563 563,594 588,632 610,675 627,722 635,771 632,819 630,817 625,813 617,805 606,795 594,782 580,767 565,750 550,732 535,712 520,690 507,668 495,645 485,621 478,597 474,572 473,548 469,548 465,548 461,548 456,548 429,657 435,661 439,667 440,674 437,681 433,687 427,690 420,692 412,690 406,685 403,678 401,671 403,664 406,661 410,658 414,656 419,654 446,544 441,542 437,540 433,537 429,534 420,549 410,564 398,580 384,595 369,610 353,624 336,638 318,651 299,663 280,674 261,683 242,691 223,698 205,702 186,705 169,705 178,690 189,675 200,659 213,642 226,626 240,609 254,593 270,578 286,563 302,550 319,537 337,527 354,518 372,511 391,507 409,505 409,501 409,497 408,493 408,490 304,485 301,490 297,494 292,498 287,500 280,499 273,496 269,490 267,482 267,475 270,469 276,464 284,461 289,462 294,464 299,468 303,473 409,478 409,473 410,468 411,464 413,460 395,456 375,451 355,445 334,437 314,428 293,418 273,406 253,394 234,381 216,366 200,351 185,335 173,318 162,300 154,281 149,262"/>
</g>
</svg>
