<?xml version="1.0" encoding="UTF-8" standalone="no"?>
<!DOCTYPE svg PUBLIC "-//W3C//DTD SVG 1.0//EN" "http://www.w3.org/TR/2001/REC-SVG-20010904/DTD/svg10.dtd">
<svg xmlns="http://www.w3.org/2000/svg" xmlns:xlink="http://www.w3.org/1999/xlink" fill-rule="evenodd" height="1.98in" preserveAspectRatio="none" stroke-linecap="round" viewBox="0 0 1459 1980" width="1.459in">
<style type="text/css">
.brush0 { fill: rgb(255,255,255); }
.pen0 { stroke: rgb(0,0,0); stroke-width: 1; stroke-linejoin: round; }
.brush1 { fill: none; }
.pen1 { stroke: none; }
.brush2 { fill: rgb(0,0,0); }
</style>
<g>
<polygon class="pen1 brush2" points="568,1958 577,1951 589,1944 605,1934 624,1924 645,1913 669,1901 695,1887 723,1874 752,1859 782,1845 813,1829 844,1814 876,1799 907,1783 938,1768 968,1752 996,1738 1023,1723 1049,1709 1072,1696 1092,1684 1110,1672 1125,1662 1136,1652 1144,1644 1147,1637 1146,1632 1141,1628 1130,1626 1114,1626 1092,1627 1064,1631 1068,1628 1081,1621 1099,1609 1123,1595 1149,1577 1178,1558 1207,1537 1236,1516 1262,1496 1284,1477 1300,1459 1310,1444 1312,1432 1304,1424 1285,1421 1253,1423 1269,1409 1290,1390 1312,1368 1335,1343 1354,1317 1367,1292 1373,1269 1367,1248 1360,1243 1350,1241 1339,1242 1325,1246 1311,1252 1295,1260 1279,1269 1263,1279 1248,1289 1233,1300 1219,1309 1207,1319 1197,1326 1189,1333 1184,1337 1182,1338 1189,1307 1189,1288 1183,1278 1171,1278 1155,1286 1135,1300 1112,1318 1088,1341 1063,1366 1038,1391 1015,1417 993,1441 975,1462 961,1478 951,1489 948,1493 961,1445 962,1417 954,1409 938,1418 914,1441 884,1475 849,1519 812,1569 772,1624 731,1681 692,1738 654,1792 619,1841 589,1882 564,1913 547,1931 546,1932 545,1935 543,1939 539,1945 535,1952 530,1960 524,1970 517,1980 568,1958 568,1958"/>
<polygon class="pen1 brush2" points="506,1911 499,1846 495,1735 493,1600 489,1462 482,1343 470,1265 450,1251 419,1321 417,1302 411,1253 402,1187 389,1118 374,1057 356,1019 336,1017 314,1062 308,1042 299,1015 288,985 275,955 260,927 243,904 223,890 202,886 189,898 183,922 183,955 186,992 192,1029 199,1060 204,1083 206,1091 193,1079 181,1070 172,1065 164,1062 158,1062 153,1064 150,1068 148,1075 149,1104 159,1145 174,1194 193,1244 212,1291 229,1331 241,1359 246,1369 208,1337 184,1324 173,1328 174,1346 184,1378 203,1419 227,1469 257,1525 290,1584 324,1645 359,1705 391,1763 420,1815 445,1860 462,1895 472,1919 473,1924 478,1938 486,1958 497,1980 506,1911 506,1911"/>
<polygon class="pen1 brush2" points="990,437 986,444 981,451 977,459 973,468 969,477 965,487 961,499 958,511 946,416 966,414 985,409 1002,401 1019,390 1034,379 1048,367 1060,355 1071,344 1073,346 1077,351 1083,358 1090,369 1098,381 1105,395 1111,411 1115,427 1114,426 1110,424 1105,420 1097,416 1088,412 1078,408 1066,406 1054,405 1077,486 1093,563 1102,635 1105,704 1102,768 1095,828 1084,884 1069,935 1052,983 1033,1026 1013,1065 993,1101 973,1132 954,1158 937,1181 922,1200 907,1222 889,1251 869,1287 846,1328 822,1374 798,1422 773,1472 748,1521 725,1570 702,1617 682,1659 664,1697 649,1729 638,1753 631,1769 628,1774 616,1786 602,1803 586,1824 570,1846 555,1867 543,1884 534,1896 531,1901 538,1867 549,1826 566,1781 586,1732 609,1680 635,1625 662,1570 690,1514 718,1458 746,1404 773,1352 797,1303 819,1259 837,1220 852,1186 861,1160 869,1125 872,1092 871,1062 868,1034 862,1010 856,989 849,972 842,960 838,966 833,972 829,979 825,987 820,996 817,1005 813,1016 810,1027 800,943 818,941 836,936 852,929 867,919 881,909 894,897 906,886 916,876 918,878 922,882 928,890 935,899 942,911 948,924 953,938 956,953 942,945 930,939 918,936 908,934 899,935 893,935 888,936 887,937 904,999 912,1058 916,1102 916,1119 952,1066 981,1012 1004,957 1022,903 1034,849 1043,796 1047,745 1048,696 1045,649 1041,606 1034,566 1026,530 1017,499 1008,472 999,452 990,437 990,437"/>
<polygon class="pen1 brush2" points="723,855 730,865 738,874 747,882 758,889 769,895 781,899 793,901 807,902 825,900 842,895 858,888 871,877 883,864 891,850 897,833 899,815 916,812 932,806 946,798 958,787 968,774 976,760 980,744 982,727 981,716 979,705 975,694 970,684 964,675 957,667 948,659 939,652 948,629 950,606 946,584 937,564 922,547 904,533 882,524 858,521 847,522 836,523 825,526 815,530 806,535 798,541 790,548 783,555 777,552 771,549 764,547 758,545 751,543 744,542 737,541 730,541 711,543 694,548 678,556 665,567 654,581 645,596 640,613 638,631 639,647 644,662 651,677 661,690 650,696 641,703 632,712 625,721 620,732 615,743 613,755 612,767 615,789 622,808 633,825 647,838 664,848 683,854 703,857 723,855 723,855"/>
<polygon class="pen1 brush2" points="862,336 869,346 877,356 886,364 896,370 907,376 920,380 932,382 946,383 964,381 981,376 997,368 1010,358 1022,345 1030,331 1036,314 1038,297 1055,293 1070,287 1084,278 1096,267 1106,255 1113,240 1117,224 1119,207 1118,196 1116,185 1113,174 1108,164 1102,155 1095,147 1087,139 1078,132 1084,118 1088,104 1089,90 1087,76 1084,62 1078,50 1070,38 1061,27 1054,21 1047,16 1040,11 1032,7 1024,4 1015,2 1006,1 996,0 985,1 974,3 964,6 954,10 945,15 937,22 929,29 922,37 916,33 910,30 903,28 897,25 890,23 883,22 875,21 868,21 849,23 832,28 816,36 803,47 792,61 783,76 778,93 776,112 777,128 782,143 789,157 798,169 788,176 779,184 771,193 764,202 758,213 754,224 751,236 750,248 753,269 760,289 771,305 785,319 802,329 821,336 841,338 862,336"/>
<polygon class="pen1 brush0" points="865,257 867,259 870,260 875,260 879,260 885,258 890,255 896,252 902,248 911,238 917,229 920,220 919,214 916,212 913,211 908,211 903,211 898,213 892,216 887,220 881,224 872,234 866,243 863,251 865,257"/>
<polygon class="pen1 brush0" points="932,112 938,115 944,122 947,133 949,146 947,160 944,171 938,179 932,182 927,179 922,171 919,160 918,146 919,133 922,122 927,115 932,112"/>
<polygon class="pen1 brush0" points="959,206 959,209 959,212 961,216 964,219 968,223 973,227 979,230 986,233 992,235 999,237 1004,237 1010,237 1014,236 1018,235 1021,233 1023,230 1024,227 1023,224 1021,220 1018,217 1014,213 1008,210 1002,207 996,204 990,202 983,200 978,199 972,199 968,200 964,201 961,203 959,206"/>
<polygon class="pen1 brush0" points="735,775 737,777 741,778 745,778 749,777 754,775 760,772 765,769 771,765 781,756 788,746 790,737 788,731 786,729 782,728 778,728 774,729 769,731 763,734 758,737 752,741 742,751 735,760 733,769 735,775"/>
<polygon class="pen1 brush0" points="803,629 809,632 814,639 817,651 818,665 817,678 814,689 809,696 803,699 797,696 792,689 788,678 787,665 788,651 792,639 797,632 803,629"/>
<polygon class="pen1 brush0" points="828,723 829,729 835,736 843,744 855,750 862,752 869,754 875,754 881,754 885,754 889,752 892,750 894,747 893,741 888,734 879,727 867,721 861,719 854,717 848,717 842,717 837,717 833,719 830,721 828,723"/>
</g>
</svg>
