<?xml version="1.0" encoding="UTF-8" standalone="no"?>
<!DOCTYPE svg PUBLIC "-//W3C//DTD SVG 1.0//EN" "http://www.w3.org/TR/2001/REC-SVG-20010904/DTD/svg10.dtd">
<svg xmlns="http://www.w3.org/2000/svg" xmlns:xlink="http://www.w3.org/1999/xlink" fill-rule="evenodd" height="1.98in" preserveAspectRatio="none" stroke-linecap="round" viewBox="0 0 1422 1980" width="1.422in">
<style type="text/css">
.brush0 { fill: rgb(255,255,255); }
.pen0 { stroke: rgb(0,0,0); stroke-width: 1; stroke-linejoin: round; }
.brush1 { fill: none; }
.pen1 { stroke: none; }
.brush2 { fill: rgb(0,0,0); }
</style>
<g>
<polygon class="pen1 brush2" points="1397,369 1404,330 1411,288 1417,246 1422,202 1419,203 1412,206 1400,212 1383,220 1363,230 1340,243 1314,258 1285,276 1255,296 1223,319 1190,345 1157,374 1123,405 1089,439 1057,477 1025,517 1028,534 1031,551 1033,566 1032,582 1043,558 1057,536 1074,518 1094,501 1115,487 1139,475 1163,463 1189,453 1216,444 1243,435 1270,426 1297,416 1323,406 1349,395 1374,383 1397,369 1397,369"/>
<polygon class="pen1 brush2" points="1291,693 1275,699 1260,706 1245,715 1230,725 1213,738 1194,753 1174,770 1150,790 1159,763 1166,738 1171,712 1175,687 1177,662 1179,636 1179,609 1179,581 1166,585 1154,589 1141,594 1130,599 1118,605 1106,611 1095,618 1084,625 1073,632 1063,640 1052,648 1042,657 1032,665 1022,674 1012,683 1002,692 1017,646 1033,607 1051,575 1069,548 1088,526 1109,508 1131,494 1154,482 1179,472 1205,463 1232,454 1262,444 1292,434 1325,421 1359,405 1395,386 1385,430 1374,473 1361,514 1349,553 1335,591 1321,627 1306,661 1291,693 1291,693"/>
<polygon class="pen1 brush2" points="755,153 747,135 739,116 731,98 722,79 713,59 703,40 693,20 683,0 681,2 677,8 670,19 660,33 649,51 636,73 623,98 608,126 594,158 580,193 566,232 553,273 542,316 533,363 526,412 521,463 527,469 532,476 537,482 542,489 546,496 550,503 554,510 558,517 557,490 560,464 566,439 574,415 586,391 599,368 614,346 630,323 647,302 664,280 682,259 699,238 715,216 730,195 744,174 755,153 755,153"/>
<polygon class="pen1 brush2" points="843,483 833,496 824,511 816,527 809,545 801,565 793,587 785,613 775,643 768,614 761,587 752,560 743,534 732,508 719,483 705,458 689,433 672,455 658,479 645,505 634,533 625,561 617,589 609,616 603,642 596,618 589,597 583,577 576,559 570,527 568,497 570,469 577,442 586,416 598,391 612,368 628,344 646,322 664,300 682,278 700,257 718,235 734,214 749,192 761,169 778,212 792,253 805,294 816,334 825,373 832,410 838,447 843,483 843,483"/>
<polygon class="pen1 brush2" points="190,257 176,243 161,229 145,215 130,201 114,188 97,174 81,160 64,146 61,156 55,185 49,231 44,292 43,365 50,448 66,538 95,635 103,639 110,643 117,646 124,650 130,655 137,659 143,664 150,669 131,620 125,569 130,516 141,463 156,409 171,357 183,306 190,257 190,257"/>
<polygon class="pen1 brush2" points="402,534 395,566 393,600 394,643 400,700 382,677 365,656 347,636 329,618 310,601 289,584 267,567 244,551 232,603 229,659 233,714 241,767 208,733 183,700 163,669 149,640 140,611 135,583 135,555 137,528 142,500 149,471 158,442 167,411 177,379 186,345 194,309 201,270 217,287 233,303 248,320 263,337 277,354 291,371 304,388 317,405 329,421 341,438 353,455 363,471 374,487 384,503 393,519 402,534 402,534"/>
<polygon class="pen1 brush2" points="1015,531 1018,545 1020,561 1019,579 1016,601 1011,626 1004,655 995,688 985,726 995,717 1005,707 1015,697 1025,688 1036,678 1048,668 1059,659 1071,650 1083,641 1095,633 1107,625 1119,617 1132,611 1145,605 1157,600 1170,596 1170,626 1169,654 1166,682 1161,710 1155,737 1148,765 1139,793 1129,821 1138,811 1153,797 1173,780 1197,762 1221,744 1245,727 1267,713 1285,702 1255,768 1223,827 1189,880 1153,927 1117,968 1081,1004 1046,1035 1011,1062 978,1084 947,1102 919,1117 894,1129 872,1137 855,1143 842,1147 835,1149 823,1161 812,1172 801,1183 791,1194 782,1205 773,1216 765,1227 758,1237 758,1250 758,1263 758,1276 758,1290 773,1299 789,1310 805,1324 821,1341 837,1360 854,1383 872,1408 889,1437 887,1435 880,1428 870,1419 855,1408 836,1397 814,1386 788,1376 758,1369 759,1521 758,1653 754,1750 748,1796 728,1830 706,1863 684,1894 663,1922 644,1946 629,1964 620,1976 616,1980 633,1909 647,1835 657,1759 665,1681 669,1603 672,1524 672,1446 670,1369 651,1374 633,1380 616,1387 600,1395 585,1403 571,1412 559,1422 548,1431 538,1440 529,1448 521,1456 515,1463 510,1469 507,1473 505,1476 504,1477 507,1470 515,1451 528,1424 547,1392 570,1359 597,1327 628,1300 663,1281 655,1267 645,1251 634,1235 622,1219 607,1201 591,1183 574,1165 554,1146 539,1141 520,1134 498,1125 472,1113 444,1098 415,1080 383,1059 350,1033 317,1004 283,969 249,930 216,886 184,836 154,780 125,718 99,649 114,657 130,668 148,682 168,699 188,719 210,741 232,767 254,795 245,740 239,682 240,624 251,571 263,579 275,587 287,595 298,604 309,613 319,622 330,631 340,641 349,651 359,661 368,672 377,683 386,694 395,706 404,718 413,730 407,672 404,626 406,588 412,555 440,598 467,648 492,704 515,767 534,836 550,909 562,986 569,1068 579,1082 589,1095 600,1106 611,1116 623,1124 634,1129 645,1131 656,1129 651,1081 647,1037 642,998 637,963 605,898 580,833 559,769 543,706 532,645 525,587 521,530 521,477 532,493 546,519 560,551 574,586 587,620 597,649 605,670 608,679 613,646 620,614 629,583 638,553 649,525 661,499 673,475 687,454 701,470 716,499 731,536 745,577 757,616 767,650 774,673 778,682 787,650 796,622 803,597 811,574 818,554 827,536 836,519 846,504 851,587 848,664 840,734 828,797 811,854 792,904 772,947 752,983 753,1016 754,1052 754,1090 755,1131 766,1126 777,1119 788,1111 798,1100 808,1088 818,1075 827,1062 835,1048 838,1007 843,967 849,929 856,891 865,855 874,819 885,785 896,752 909,720 922,689 936,660 950,632 966,605 982,579 998,554 1015,531"/>
</g>
</svg>
