<?xml version="1.0" encoding="UTF-8" standalone="no"?>
<!DOCTYPE svg PUBLIC "-//W3C//DTD SVG 1.0//EN" "http://www.w3.org/TR/2001/REC-SVG-20010904/DTD/svg10.dtd">
<svg xmlns="http://www.w3.org/2000/svg" xmlns:xlink="http://www.w3.org/1999/xlink" fill-rule="evenodd" height="1.885in" preserveAspectRatio="none" stroke-linecap="round" viewBox="0 0 1979 1885" width="1.979in">
<style type="text/css">
.brush0 { fill: rgb(255,255,255); }
.pen0 { stroke: rgb(0,0,0); stroke-width: 1; stroke-linejoin: round; }
.brush1 { fill: none; }
.pen1 { stroke: none; }
.brush2 { fill: rgb(0,0,0); }
</style>
<g>
<polygon class="pen1 brush2" points="914,1253 918,1255 930,1259 948,1263 969,1267 993,1270 1017,1268 1040,1262 1060,1249 1057,1258 1051,1284 1042,1322 1035,1371 1017,1380 1002,1387 990,1395 981,1401 973,1407 966,1412 961,1417 956,1422 969,1421 980,1420 989,1420 998,1420 1006,1419 1014,1419 1022,1419 1030,1418 1030,1453 1032,1488 1038,1522 1049,1555 1064,1585 1084,1611 1111,1632 1144,1647 1154,1651 1161,1656 1164,1661 1162,1666 1153,1669 1139,1669 1116,1668 1086,1662 1087,1666 1089,1676 1089,1689 1088,1702 1082,1711 1071,1713 1053,1704 1026,1682 1028,1690 1032,1708 1031,1730 1022,1747 1016,1751 1011,1753 1007,1753 1004,1751 1001,1749 997,1745 992,1741 986,1737 988,1743 994,1758 1000,1777 1004,1796 1003,1808 995,1810 978,1796 948,1762 933,1740 920,1716 909,1690 901,1663 894,1635 889,1606 886,1576 884,1546 900,1541 914,1536 927,1533 937,1530 946,1529 954,1528 959,1527 963,1527 955,1524 947,1522 938,1519 928,1517 918,1514 908,1512 896,1509 884,1507 885,1467 888,1426 892,1386 898,1347 911,1345 923,1344 936,1344 947,1344 957,1344 965,1344 970,1344 972,1344 964,1339 957,1334 949,1330 941,1325 932,1321 923,1317 914,1314 904,1311 906,1296 909,1281 912,1267 914,1253 914,1253"/>
<polygon class="pen1 brush2" points="988,1219 1013,1212 1036,1194 1057,1164 1076,1124 1091,1077 1103,1022 1110,962 1113,898 1110,833 1103,773 1091,718 1076,671 1057,632 1036,602 1013,583 988,577 963,583 939,602 918,632 899,671 884,718 873,773 866,833 863,898 866,962 873,1022 884,1077 899,1124 918,1164 939,1194 963,1212 988,1219 988,1219"/>
<polygon class="pen1 brush2" points="1070,1223 1073,1224 1080,1227 1092,1231 1108,1236 1127,1241 1150,1247 1175,1252 1203,1257 1232,1261 1263,1264 1294,1265 1327,1264 1359,1261 1390,1255 1421,1246 1451,1233 1479,1218 1505,1201 1529,1184 1552,1167 1572,1149 1591,1131 1607,1114 1622,1096 1635,1079 1646,1062 1655,1047 1662,1032 1667,1018 1671,1006 1672,995 1672,986 1671,986 1667,986 1661,986 1652,986 1642,987 1629,989 1614,991 1596,995 1577,1000 1556,1007 1533,1015 1508,1025 1481,1038 1453,1052 1423,1069 1391,1089 1361,1108 1333,1125 1307,1140 1283,1152 1261,1163 1241,1172 1222,1179 1204,1184 1188,1188 1173,1191 1158,1192 1145,1193 1132,1193 1119,1192 1106,1191 1094,1189 1070,1223 1070,1223"/>
<polygon class="pen1 brush2" points="1094,1169 1105,1137 1115,1108 1125,1083 1133,1061 1140,1044 1145,1031 1149,1023 1150,1020 1161,1015 1173,1008 1186,999 1200,989 1215,977 1230,964 1246,951 1262,936 1278,921 1294,906 1310,891 1326,876 1341,862 1355,848 1368,836 1381,824 1400,807 1418,793 1435,781 1451,770 1465,761 1479,754 1491,748 1502,744 1512,740 1520,738 1527,736 1533,735 1538,734 1541,734 1543,734 1544,734 1544,743 1542,756 1539,773 1534,791 1527,813 1518,835 1508,860 1497,885 1484,910 1470,936 1455,961 1439,985 1422,1008 1405,1029 1386,1048 1367,1064 1348,1077 1328,1090 1307,1101 1284,1112 1262,1121 1239,1130 1217,1137 1195,1144 1174,1150 1155,1155 1138,1160 1123,1163 1111,1166 1102,1168 1096,1169 1094,1169 1094,1169"/>
<polygon class="pen1 brush2" points="1160,976 1159,908 1157,859 1155,830 1154,820 1201,769 1243,724 1281,685 1315,651 1345,622 1371,597 1394,576 1413,559 1429,545 1443,534 1454,526 1462,521 1468,517 1472,514 1474,513 1475,513 1462,576 1445,633 1424,685 1401,733 1376,775 1350,813 1323,846 1296,875 1269,900 1244,922 1221,939 1201,953 1184,963 1171,970 1163,975 1160,976 1160,976"/>
<polygon class="pen1 brush2" points="1106,662 1096,632 1087,609 1077,593 1069,581 1062,574 1057,570 1053,568 1052,568 1060,528 1078,465 1101,389 1127,307 1152,229 1174,162 1189,115 1195,98 1209,122 1216,152 1219,189 1218,230 1213,275 1206,323 1195,371 1184,419 1171,467 1157,511 1144,552 1132,589 1122,619 1113,642 1108,657 1106,662 1106,662"/>
<polygon class="pen1 brush2" points="1030,557 1033,538 1041,488 1049,415 1055,326 1054,232 1045,141 1023,61 986,0 986,11 976,41 960,90 944,156 930,237 923,331 928,437 948,553 950,551 955,546 964,540 975,535 987,532 1001,534 1016,541 1030,557 1030,557"/>
<polygon class="pen1 brush2" points="1361,553 1396,523 1423,501 1443,487 1457,478 1466,474 1472,472 1474,473 1475,473 1483,479 1490,489 1495,501 1499,514 1502,527 1504,538 1505,545 1505,548 1538,488 1559,432 1568,381 1570,336 1567,299 1562,271 1556,253 1554,247 1536,254 1517,267 1499,284 1482,305 1465,329 1449,354 1434,381 1420,409 1408,436 1396,463 1386,487 1377,509 1370,527 1365,541 1362,550 1361,553 1361,553"/>
<polygon class="pen1 brush2" points="1435,746 1439,743 1451,735 1469,722 1493,705 1521,684 1553,660 1587,633 1623,604 1659,573 1694,541 1728,508 1760,475 1788,442 1811,410 1829,380 1840,351 1838,351 1831,352 1821,355 1808,358 1791,363 1772,369 1750,378 1726,388 1701,401 1674,417 1646,435 1618,457 1589,482 1560,510 1532,542 1505,578 1503,582 1498,592 1490,607 1480,628 1469,653 1457,682 1445,713 1435,746 1435,746"/>
<polygon class="pen1 brush2" points="1475,980 1486,957 1499,930 1514,901 1529,872 1542,845 1554,824 1561,809 1564,804 1597,782 1629,763 1658,748 1684,735 1709,725 1731,718 1751,713 1770,709 1785,707 1799,706 1811,706 1820,707 1828,708 1833,709 1836,710 1837,710 1830,738 1816,765 1796,791 1772,816 1744,840 1714,862 1681,883 1649,902 1616,919 1584,935 1555,948 1529,959 1507,968 1490,975 1479,979 1475,980 1475,980"/>
<polygon class="pen1 brush2" points="1674,1089 1698,1038 1706,1002 1703,978 1692,964 1677,957 1661,955 1649,955 1644,956 1686,923 1725,896 1761,875 1794,859 1824,847 1852,839 1876,834 1898,832 1917,832 1934,834 1948,837 1959,841 1968,845 1974,849 1978,851 1979,852 1970,877 1956,901 1938,924 1917,946 1893,966 1868,986 1841,1004 1814,1021 1787,1036 1762,1049 1738,1061 1717,1071 1699,1079 1686,1084 1677,1088 1674,1089 1674,1089"/>
<polygon class="pen1 brush2" points="1134,800 1138,797 1148,787 1164,771 1185,749 1208,721 1234,687 1261,648 1287,603 1312,553 1334,497 1353,437 1366,372 1373,303 1373,229 1365,150 1347,68 1345,74 1338,92 1328,120 1316,157 1300,200 1283,249 1264,302 1245,356 1225,411 1205,466 1186,517 1169,565 1153,607 1140,641 1130,667 1124,682 1126,691 1129,717 1132,755 1134,800 1134,800"/>
<polygon class="pen1 brush2" points="908,1227 880,1189 868,1191 856,1192 844,1193 831,1194 818,1194 804,1193 789,1190 773,1187 756,1182 737,1176 717,1168 696,1157 672,1145 646,1131 618,1114 588,1095 556,1075 526,1058 498,1043 471,1031 446,1021 423,1012 401,1005 382,1000 365,996 350,993 337,992 326,991 317,990 311,990 307,990 306,990 306,999 308,1010 312,1023 317,1037 325,1052 334,1067 345,1084 358,1101 373,1119 389,1136 408,1154 428,1172 451,1189 475,1206 501,1222 529,1237 558,1250 589,1260 620,1266 652,1269 684,1270 716,1269 746,1266 776,1262 803,1257 828,1251 851,1245 870,1240 886,1235 898,1231 905,1228 908,1227 908,1227"/>
<polygon class="pen1 brush2" points="880,1163 878,1163 872,1162 864,1161 852,1159 837,1156 821,1153 802,1149 782,1144 761,1138 739,1131 717,1124 695,1115 673,1106 652,1095 632,1084 613,1071 594,1055 575,1035 558,1014 541,991 525,967 510,942 496,916 484,890 472,865 462,841 454,818 447,797 441,779 437,762 435,749 435,740 436,740 438,740 441,740 446,741 452,742 459,744 468,746 478,750 489,754 501,760 514,767 529,776 544,787 561,799 578,813 597,830 610,841 623,854 638,867 653,881 669,896 685,911 701,927 718,941 734,956 750,970 765,983 780,995 794,1005 807,1014 819,1021 830,1026 831,1028 834,1035 838,1046 844,1061 851,1081 860,1104 869,1132 880,1163 880,1163"/>
<polygon class="pen1 brush2" points="820,980 821,913 822,864 823,834 824,824 777,773 735,728 698,689 664,655 634,626 608,601 586,580 567,563 550,549 537,538 526,530 518,525 512,521 508,518 506,517 505,517 518,580 535,638 556,690 579,737 604,780 630,818 657,851 684,880 711,905 736,926 759,943 779,957 796,967 809,975 817,979 820,980 820,980"/>
<polygon class="pen1 brush2" points="874,666 872,661 867,646 858,623 848,593 835,556 822,515 809,471 796,424 784,375 774,327 767,280 762,235 761,194 764,158 772,127 786,104 792,121 807,167 828,234 853,312 879,394 902,471 919,533 928,574 927,574 923,576 917,580 910,587 902,598 893,614 883,637 874,666 874,666"/>
<polygon class="pen1 brush2" points="617,557 583,527 556,505 537,491 523,483 514,479 508,478 506,478 505,479 496,485 489,495 484,507 480,520 478,532 476,543 475,550 475,553 441,493 421,437 411,385 409,340 412,303 417,275 423,257 425,251 444,259 462,272 480,289 497,310 514,333 530,359 545,386 559,414 571,441 583,467 593,491 601,513 608,531 613,545 616,554 617,557 617,557"/>
<polygon class="pen1 brush2" points="543,750 533,718 522,687 511,658 500,633 490,612 482,596 477,586 475,582 447,546 419,515 390,486 362,462 333,440 305,422 278,406 253,393 229,382 207,374 187,367 170,362 157,359 147,357 140,355 138,355 149,384 167,414 190,446 218,479 250,512 284,545 319,577 356,608 391,637 425,664 457,688 485,709 509,726 527,739 539,747 543,750 543,750"/>
<polygon class="pen1 brush2" points="503,987 499,986 488,982 472,975 450,966 424,955 395,941 363,926 331,908 298,889 266,869 236,846 209,822 185,797 165,771 151,744 144,716 145,716 148,715 153,714 161,712 170,712 181,711 195,712 211,714 229,718 249,723 271,731 295,740 322,753 351,769 382,788 415,810 418,815 425,830 437,852 450,878 465,907 479,936 492,964 503,987 503,987"/>
<polygon class="pen1 brush2" points="306,1095 303,1094 294,1090 281,1085 263,1077 242,1067 219,1055 193,1042 167,1026 139,1010 113,991 87,972 63,951 42,929 23,906 9,883 0,858 1,857 5,855 11,851 20,847 31,843 45,840 62,838 81,838 103,840 128,845 156,853 186,865 219,881 256,902 295,929 337,962 332,961 320,960 304,962 289,969 277,983 274,1007 282,1044 306,1095 306,1095"/>
<polygon class="pen1 brush2" points="844,804 846,759 849,721 852,695 854,686 848,671 838,645 825,611 809,569 792,522 774,470 754,416 735,361 715,307 697,254 679,206 664,163 651,126 642,98 635,80 633,74 615,156 606,235 606,308 614,378 627,443 645,503 667,558 692,608 718,652 745,692 770,725 794,753 814,775 830,791 840,801 844,804"/>
</g>
</svg>
