<?xml version="1.0" encoding="UTF-8" standalone="no"?>
<!DOCTYPE svg PUBLIC "-//W3C//DTD SVG 1.0//EN" "http://www.w3.org/TR/2001/REC-SVG-20010904/DTD/svg10.dtd">
<svg xmlns="http://www.w3.org/2000/svg" xmlns:xlink="http://www.w3.org/1999/xlink" fill-rule="evenodd" height="1.374in" preserveAspectRatio="none" stroke-linecap="round" viewBox="0 0 1979 1374" width="1.979in">
<style type="text/css">
.brush0 { fill: rgb(255,255,255); }
.pen0 { stroke: rgb(0,0,0); stroke-width: 1; stroke-linejoin: round; }
.brush1 { fill: none; }
.pen1 { stroke: none; }
.brush2 { fill: rgb(0,0,0); }
</style>
<g>
<polygon class="pen1 brush2" points="1979,502 1977,502 1972,502 1964,502 1953,502 1940,501 1924,500 1907,499 1889,497 1869,494 1848,490 1827,485 1805,479 1784,472 1763,464 1742,454 1723,442 1725,444 1731,450 1741,458 1753,468 1768,480 1785,491 1803,502 1823,512 1819,513 1808,515 1791,518 1769,523 1743,528 1713,534 1680,541 1646,548 1610,556 1575,564 1541,571 1509,579 1479,586 1453,592 1431,598 1415,603 1407,605 1398,607 1387,610 1375,612 1361,615 1346,617 1329,619 1311,622 1292,624 1271,626 1249,628 1227,629 1203,631 1178,632 1152,633 1126,633 1098,633 1070,633 1041,632 1011,630 981,629 951,626 920,623 888,620 856,615 824,610 792,605 759,598 727,591 694,583 662,574 629,564 630,565 635,568 642,574 654,580 669,588 689,597 713,606 742,616 776,626 816,635 861,644 913,652 971,658 1036,664 1108,667 1188,668 1185,669 1177,672 1165,677 1148,684 1129,692 1107,702 1083,713 1058,724 1032,737 1007,751 982,765 959,779 938,794 920,808 905,823 895,837 898,836 907,831 921,825 940,816 962,806 987,794 1015,781 1044,768 1074,755 1104,741 1134,728 1162,716 1189,705 1213,695 1233,688 1250,682 1266,677 1286,671 1309,665 1335,658 1363,651 1392,644 1423,636 1454,628 1485,621 1515,613 1544,606 1571,599 1596,593 1619,588 1637,583 1652,579 1561,682 1703,573 1705,573 1711,572 1721,570 1734,568 1750,565 1768,562 1788,558 1809,554 1831,549 1854,544 1877,538 1900,532 1922,525 1943,518 1962,510 1979,502 1979,502"/>
<polygon class="pen1 brush2" points="1538,705 1536,709 1530,721 1521,739 1508,763 1492,791 1472,824 1450,859 1425,896 1397,935 1367,974 1335,1012 1300,1048 1264,1082 1226,1113 1186,1139 1145,1160 1146,1157 1150,1148 1155,1134 1160,1117 1163,1096 1165,1074 1164,1051 1159,1027 1161,1027 1165,1025 1172,1020 1180,1012 1189,999 1198,979 1206,953 1212,918 1215,917 1225,914 1239,908 1256,897 1274,882 1293,860 1310,831 1325,794 1328,793 1336,791 1348,787 1363,780 1379,771 1395,758 1411,742 1425,723 1426,723 1429,724 1435,724 1444,723 1459,721 1479,718 1505,713 1538,705 1538,705"/>
<polygon class="pen1 brush2" points="0,655 14,663 24,675 33,688 39,702 43,716 46,727 48,735 48,738 68,736 86,741 103,750 118,762 131,775 140,787 146,796 148,799 165,796 181,798 197,802 211,808 223,815 232,821 238,825 240,827 260,823 280,823 299,825 316,830 331,836 342,841 349,845 352,847 369,841 388,838 407,839 426,842 442,846 455,850 464,853 467,854 509,821 540,779 562,734 577,688 586,645 590,610 592,586 592,577 592,570 592,570 592,570 592,570 592,569 525,567 463,568 405,569 352,573 303,577 258,582 216,589 179,595 145,603 115,611 88,619 65,627 44,634 27,642 12,649 0,655 0,655"/>
<polygon class="pen1 brush2" points="588,553 523,552 462,552 406,554 354,557 306,562 261,567 221,573 184,580 150,588 120,596 93,604 70,613 49,621 31,629 16,637 3,644 13,632 19,619 23,604 25,590 25,577 25,566 24,559 24,556 44,552 61,543 75,529 86,513 94,498 100,484 104,475 105,471 122,469 137,463 151,454 163,444 173,435 180,426 184,420 186,418 207,417 226,412 244,405 259,396 272,387 282,379 288,373 290,371 308,372 327,369 345,363 362,356 376,348 388,340 395,335 398,333 419,340 439,349 458,361 475,374 491,388 505,404 519,420 531,437 542,454 552,470 560,487 568,503 574,518 580,531 584,543 588,553 588,553"/>
<polygon class="pen1 brush2" points="1205,57 1217,61 1232,67 1249,74 1268,83 1290,94 1315,107 1341,123 1370,141 1402,163 1435,187 1471,216 1509,248 1549,284 1591,324 1636,369 1682,418 1682,418 1678,424 1676,426 1671,430 1663,437 1653,446 1640,456 1624,468 1606,480 1587,491 1566,503 1543,513 1519,522 1494,529 1468,534 1442,536 1416,534 1389,529 1388,526 1384,518 1378,506 1369,491 1359,477 1346,462 1331,450 1315,442 1314,439 1312,431 1308,419 1301,404 1293,388 1281,373 1267,359 1250,347 1250,344 1249,337 1247,326 1243,313 1238,299 1230,285 1220,273 1206,262 1207,258 1209,248 1211,234 1211,216 1210,197 1205,178 1195,161 1180,148 1182,146 1186,139 1192,130 1198,117 1204,103 1207,88 1208,72 1205,57 1205,57"/>
<polygon class="pen1 brush2" points="1692,398 1703,376 1714,347 1726,313 1735,275 1740,235 1739,194 1732,153 1715,114 1712,113 1703,112 1689,109 1673,104 1656,97 1639,88 1623,77 1611,63 1608,63 1599,63 1587,62 1571,59 1554,54 1536,47 1519,36 1504,22 1501,22 1494,23 1484,24 1470,24 1456,22 1440,18 1425,11 1412,0 1409,2 1399,6 1385,11 1368,16 1349,19 1329,19 1311,14 1294,2 1283,15 1270,25 1257,32 1244,38 1232,42 1221,45 1212,48 1206,50 1219,52 1234,56 1251,62 1271,69 1293,79 1318,90 1345,105 1374,122 1406,143 1440,167 1476,195 1515,226 1556,262 1599,303 1644,348 1692,398 1692,398"/>
<polygon class="pen1 brush2" points="526,1357 529,1344 533,1328 539,1310 547,1289 556,1266 567,1241 581,1213 597,1182 616,1150 638,1114 663,1076 691,1036 723,994 759,948 800,901 844,851 845,851 845,851 845,851 845,851 851,856 858,862 875,879 899,906 926,940 951,982 971,1029 982,1080 980,1133 977,1135 969,1139 958,1147 945,1156 931,1168 918,1182 908,1198 901,1215 898,1216 890,1219 879,1224 865,1232 850,1242 836,1255 823,1270 813,1289 810,1289 803,1291 793,1293 780,1298 766,1304 753,1313 741,1325 732,1339 728,1338 718,1337 703,1337 685,1337 666,1341 648,1347 631,1358 619,1374 617,1373 610,1369 600,1364 587,1359 572,1354 557,1352 541,1353 526,1357 526,1357"/>
<polygon class="pen1 brush2" points="828,844 785,893 746,939 711,983 680,1025 652,1064 627,1101 606,1136 587,1169 572,1199 558,1227 547,1252 538,1276 531,1297 526,1316 522,1333 520,1347 517,1332 510,1319 502,1306 492,1295 482,1286 474,1279 468,1275 466,1273 476,1256 479,1237 478,1218 473,1200 466,1183 459,1170 454,1161 452,1158 462,1143 467,1128 470,1112 471,1097 470,1083 468,1073 467,1066 466,1063 479,1046 488,1028 494,1010 497,992 498,976 498,964 497,955 497,952 510,939 520,922 528,905 533,887 537,870 539,857 540,847 540,844 559,833 579,824 599,817 620,812 641,810 662,809 682,809 703,811 723,814 742,817 760,821 777,826 792,831 806,835 818,840 828,844"/>
</g>
</svg>
