<?xml version="1.0" encoding="UTF-8" standalone="no"?>
<!DOCTYPE svg PUBLIC "-//W3C//DTD SVG 1.0//EN" "http://www.w3.org/TR/2001/REC-SVG-20010904/DTD/svg10.dtd">
<svg xmlns="http://www.w3.org/2000/svg" xmlns:xlink="http://www.w3.org/1999/xlink" fill-rule="evenodd" height="0.689in" preserveAspectRatio="none" stroke-linecap="round" viewBox="0 0 497 689" width="0.497in">
<style type="text/css">
.brush0 { fill: rgb(255,255,255); }
.pen0 { stroke: rgb(0,0,0); stroke-width: 1; stroke-linejoin: round; }
.brush1 { fill: none; }
.pen1 { stroke: none; }
.brush2 { fill: rgb(0,0,0); }
</style>
<g>
<polygon class="pen1 brush2" points="351,70 356,74 368,86 385,105 406,129 427,159 448,193 465,230 476,270 484,351 482,423 476,475 472,495 468,501 458,516 441,538 421,564 398,592 373,618 347,640 323,655 311,660 298,664 284,668 270,672 256,675 241,678 227,680 214,682 201,684 189,685 178,687 168,687 161,688 155,689 151,689 150,689 144,687 129,680 107,670 82,656 56,640 33,622 16,602 8,582 8,582 12,583 21,587 35,592 52,597 69,603 86,608 99,612 109,613 120,612 139,609 162,605 188,599 214,593 237,587 255,581 265,575 272,565 281,546 292,523 303,497 313,472 322,451 328,436 330,430 334,409 342,359 346,301 340,256 333,236 325,210 316,180 308,149 299,119 290,94 282,75 275,65 268,59 260,51 252,40 245,29 238,18 232,9 228,2 227,0 351,70"/>
<polygon class="pen1 brush2" points="111,275 0,269 102,215 88,116 156,186 245,139 204,235 250,283 185,279 130,408 111,275"/>
</g>
</svg>
