<?xml version="1.0" encoding="UTF-8" standalone="no"?>
<!DOCTYPE svg PUBLIC "-//W3C//DTD SVG 1.0//EN" "http://www.w3.org/TR/2001/REC-SVG-20010904/DTD/svg10.dtd">
<svg xmlns="http://www.w3.org/2000/svg" xmlns:xlink="http://www.w3.org/1999/xlink" fill-rule="evenodd" height="1.933in" preserveAspectRatio="none" stroke-linecap="round" viewBox="0 0 1979 1933" width="1.979in">
<style type="text/css">
.brush0 { fill: rgb(255,255,255); }
.pen0 { stroke: rgb(0,0,0); stroke-width: 1; stroke-linejoin: round; }
.brush1 { fill: none; }
.pen1 { stroke: none; }
.brush2 { fill: rgb(0,0,0); }
</style>
<g>
<polygon class="pen1 brush2" points="851,1064 832,1058 813,1054 794,1052 774,1053 755,1055 735,1058 717,1063 699,1068 682,1075 665,1082 651,1089 637,1095 625,1102 616,1108 608,1114 602,1118 548,1160 494,1193 441,1217 390,1233 339,1243 291,1246 246,1245 203,1240 164,1232 128,1222 97,1210 70,1199 49,1189 33,1180 23,1174 20,1172 74,1115 3,1078 70,1021 0,959 71,905 7,842 88,795 30,730 125,693 70,622 146,606 105,524 109,523 120,521 138,518 162,515 192,514 226,513 263,516 304,521 347,530 391,544 437,563 483,588 528,620 571,659 613,706 652,763 656,769 662,776 670,785 679,794 689,805 701,816 714,827 729,838 744,849 760,859 777,868 794,876 813,882 831,887 850,889 869,889 871,849 863,810 847,773 827,740 805,710 783,686 764,668 750,657 694,617 648,574 610,530 580,485 557,439 540,394 529,349 522,307 519,267 519,230 521,197 525,168 529,145 533,127 536,116 537,112 605,148 622,71 695,118 736,34 808,86 849,10 916,72 963,0 1026,79 1078,7 1115,78 1182,14 1184,18 1189,28 1197,45 1206,67 1216,95 1226,127 1234,164 1241,205 1244,249 1243,295 1238,344 1226,395 1208,447 1183,500 1149,553 1105,606 1095,619 1081,640 1067,668 1053,700 1041,736 1035,775 1034,813 1043,851 1063,846 1083,839 1101,829 1117,818 1133,804 1147,789 1160,774 1172,757 1183,741 1193,725 1201,709 1208,694 1213,681 1218,669 1221,659 1223,652 1240,586 1263,527 1290,476 1321,432 1355,394 1391,362 1428,335 1465,313 1501,295 1536,282 1567,272 1595,264 1619,260 1637,257 1648,255 1652,255 1645,332 1723,321 1705,406 1797,413 1776,500 1862,511 1828,595 1912,613 1861,700 1947,723 1895,782 1979,822 1976,825 1969,834 1956,847 1939,864 1917,883 1890,904 1859,925 1823,945 1784,964 1740,981 1692,993 1641,1001 1585,1003 1527,998 1465,985 1399,964 1392,962 1382,959 1371,957 1357,955 1341,953 1324,951 1306,951 1287,951 1268,952 1248,954 1229,958 1210,963 1191,970 1173,979 1157,991 1142,1004 1155,1017 1170,1028 1186,1038 1203,1047 1220,1054 1238,1059 1256,1064 1274,1067 1291,1070 1308,1072 1323,1073 1338,1073 1351,1073 1362,1073 1371,1072 1378,1071 1446,1061 1509,1059 1566,1065 1619,1076 1668,1093 1711,1114 1751,1138 1785,1164 1815,1190 1841,1217 1863,1242 1880,1265 1894,1285 1903,1300 1909,1310 1911,1314 1837,1335 1878,1402 1793,1419 1821,1507 1733,1521 1757,1605 1665,1606 1682,1691 1581,1678 1595,1767 1520,1742 1514,1833 1510,1832 1499,1828 1482,1822 1460,1812 1434,1799 1404,1783 1373,1763 1340,1738 1307,1709 1275,1675 1245,1636 1218,1592 1195,1542 1176,1486 1164,1424 1158,1355 1156,1337 1149,1310 1139,1277 1124,1241 1104,1205 1079,1173 1048,1146 1010,1129 1010,1128 1005,1140 999,1164 994,1196 990,1234 991,1275 998,1316 1014,1355 1042,1418 1060,1477 1071,1535 1074,1589 1071,1640 1063,1687 1051,1731 1036,1771 1018,1808 1000,1840 982,1867 964,1890 949,1909 937,1922 929,1930 926,1933 885,1867 831,1926 791,1848 714,1899 678,1818 602,1865 577,1776 500,1816 486,1715 403,1752 408,1673 318,1693 318,1689 319,1677 320,1659 323,1635 329,1606 336,1573 348,1537 362,1498 382,1459 406,1419 435,1379 470,1341 512,1305 561,1272 617,1244 682,1220 688,1218 696,1214 705,1209 715,1204 727,1197 739,1189 751,1181 764,1171 777,1161 790,1149 803,1137 814,1124 825,1110 835,1096 844,1080 851,1064"/>
<polygon class="pen1 brush0" points="986,1099 1010,1097 1032,1090 1052,1078 1070,1064 1084,1046 1096,1026 1103,1004 1105,980 1103,956 1096,933 1084,912 1070,894 1052,880 1032,868 1010,861 986,859 962,861 939,868 918,880 900,894 886,912 874,933 867,956 865,980 867,1004 874,1026 886,1046 900,1064 918,1078 939,1090 962,1097 986,1099"/>
<polygon class="pen1 brush2" points="986,1085 1007,1083 1027,1077 1045,1067 1060,1053 1073,1038 1083,1019 1089,999 1091,977 1089,956 1083,936 1073,918 1060,902 1045,889 1027,879 1007,873 986,871 964,873 944,879 925,889 910,902 896,918 886,936 880,956 878,977 880,999 886,1019 896,1038 910,1053 925,1067 944,1077 964,1083 986,1085"/>
<polygon class="pen1 brush0" points="1011,936 1019,935 1025,932 1029,926 1030,919 1029,911 1025,904 1019,900 1011,899 1004,900 998,904 994,911 993,919 994,926 998,932 1004,935 1011,936"/>
<polygon class="pen1 brush0" points="1047,1001 1054,1000 1061,996 1065,990 1067,983 1065,975 1061,968 1054,964 1047,963 1040,964 1033,968 1029,975 1027,983 1029,990 1033,996 1040,1000 1047,1001"/>
<polygon class="pen1 brush0" points="1003,1065 1010,1064 1016,1059 1020,1053 1021,1045 1020,1038 1016,1032 1010,1028 1003,1027 995,1028 989,1032 984,1038 983,1045 984,1053 989,1059 995,1064 1003,1065"/>
<polygon class="pen1 brush0" points="928,1034 935,1032 940,1028 944,1022 946,1014 944,1007 940,1001 935,997 928,996 920,997 914,1001 909,1007 908,1014 909,1022 914,1028 920,1032 928,1034"/>
<polygon class="pen1 brush0" points="926,957 933,956 940,951 944,945 946,937 944,930 940,924 933,920 926,919 919,920 912,924 908,930 906,937 908,945 912,951 919,956 926,957"/>
</g>
</svg>
