<?xml version="1.0" encoding="UTF-8" standalone="no"?>
<!DOCTYPE svg PUBLIC "-//W3C//DTD SVG 1.0//EN" "http://www.w3.org/TR/2001/REC-SVG-20010904/DTD/svg10.dtd">
<svg xmlns="http://www.w3.org/2000/svg" xmlns:xlink="http://www.w3.org/1999/xlink" fill-rule="evenodd" height="1.98in" preserveAspectRatio="none" stroke-linecap="round" viewBox="0 0 1979 1980" width="1.979in">
<style type="text/css">
.brush0 { fill: rgb(255,255,255); }
.pen0 { stroke: rgb(0,0,0); stroke-width: 1; stroke-linejoin: round; }
.brush1 { fill: none; }
.pen1 { stroke: none; }
.brush2 { fill: rgb(0,0,0); }
</style>
<g>
<polygon class="pen1 brush2" points="1016,942 1033,933 1049,907 1063,865 1076,810 1086,743 1093,667 1098,582 1100,491 1098,400 1093,316 1086,240 1076,173 1063,118 1049,76 1033,50 1016,41 1000,50 984,76 970,118 958,173 948,240 940,316 935,400 933,491 935,582 940,667 948,743 958,810 970,865 984,907 1000,933 1016,942 1016,942"/>
<polygon class="pen1 brush2" points="1009,1972 1025,1963 1041,1937 1055,1895 1067,1840 1077,1774 1085,1697 1089,1612 1091,1521 1089,1430 1085,1346 1077,1270 1067,1203 1055,1148 1041,1106 1025,1080 1009,1071 992,1080 976,1106 962,1148 950,1203 939,1270 932,1346 927,1430 925,1521 927,1612 932,1697 939,1774 950,1840 962,1895 976,1937 992,1963 1009,1972 1009,1972"/>
<polygon class="pen1 brush2" points="968,960 960,964 950,965 936,963 920,957 901,949 880,938 857,924 833,908 806,889 778,868 749,845 719,819 687,792 655,763 623,732 590,700 558,667 527,635 498,603 470,571 445,541 422,512 400,484 382,457 365,432 351,409 340,389 332,370 327,354 324,340 326,329 330,321 338,317 348,316 362,318 378,324 396,332 417,344 440,357 465,374 491,393 519,414 549,437 579,463 611,490 643,519 675,550 708,582 740,615 771,647 800,679 827,710 853,741 876,770 897,798 916,824 932,849 946,872 957,893 965,912 971,928 973,941 972,952 968,960 968,960"/>
<polygon class="pen1 brush2" points="310,1686 305,1678 304,1668 306,1654 311,1638 319,1619 330,1598 344,1575 360,1551 379,1524 400,1496 423,1467 449,1437 476,1405 505,1373 536,1341 568,1308 601,1276 634,1245 666,1216 697,1189 728,1163 757,1140 785,1119 812,1100 837,1084 860,1070 881,1059 900,1051 916,1045 929,1043 940,1044 948,1048 952,1056 953,1066 951,1080 945,1096 937,1115 926,1136 912,1159 895,1183 876,1210 855,1238 832,1267 806,1297 779,1329 750,1361 719,1393 686,1426 653,1458 621,1489 589,1518 558,1545 528,1571 499,1594 471,1615 444,1634 420,1650 397,1664 376,1675 357,1684 341,1689 328,1691 317,1690 310,1686 310,1686"/>
<polygon class="pen1 brush2" points="1076,952 1072,944 1070,934 1072,920 1078,904 1086,885 1097,864 1110,841 1127,817 1145,790 1167,762 1190,733 1215,703 1243,672 1272,640 1303,608 1335,575 1368,543 1400,512 1432,482 1463,455 1494,429 1523,406 1551,385 1578,366 1602,349 1625,335 1646,324 1665,316 1681,311 1695,308 1705,310 1713,314 1717,322 1719,332 1716,346 1711,362 1703,381 1692,402 1678,425 1662,449 1643,476 1622,504 1598,534 1573,564 1545,595 1516,627 1485,660 1452,693 1419,725 1387,756 1355,785 1324,812 1294,838 1265,861 1237,882 1210,900 1186,917 1163,931 1142,942 1124,950 1108,955 1094,957 1084,956 1076,952 1076,952"/>
<polygon class="pen1 brush2" points="942,1001 940,1010 933,1018 922,1026 906,1034 887,1041 865,1048 839,1054 809,1060 777,1066 742,1071 705,1075 666,1078 624,1081 581,1083 536,1085 490,1085 444,1085 399,1083 356,1081 315,1078 276,1075 239,1071 204,1066 172,1060 143,1054 117,1048 94,1041 75,1034 60,1026 49,1018 42,1010 40,1001 42,993 49,985 60,977 75,969 94,962 117,955 143,949 172,943 204,938 239,933 276,929 315,925 356,923 399,921 444,919 490,919 536,919 581,921 624,923 666,925 705,929 742,933 777,938 809,943 839,949 865,955 887,962 906,969 922,977 933,985 940,993 942,1001 942,1001"/>
<polygon class="pen1 brush2" points="1979,1001 1977,1010 1970,1018 1959,1026 1944,1034 1925,1041 1902,1048 1876,1054 1847,1060 1815,1066 1780,1071 1743,1075 1704,1078 1663,1081 1620,1083 1575,1085 1529,1085 1483,1085 1438,1083 1395,1081 1353,1078 1314,1075 1277,1071 1242,1066 1210,1060 1180,1054 1154,1048 1132,1041 1113,1034 1097,1026 1086,1018 1079,1010 1077,1001 1079,993 1086,985 1097,977 1113,969 1132,962 1154,955 1180,949 1210,943 1242,938 1277,933 1314,929 1353,925 1395,923 1438,921 1483,919 1529,919 1575,919 1620,921 1663,923 1704,925 1743,929 1780,933 1815,938 1847,943 1876,949 1902,955 1925,962 1944,969 1959,977 1970,985 1977,993 1979,1001 1979,1001"/>
<polygon class="pen1 brush2" points="1705,1698 1697,1702 1687,1703 1673,1701 1657,1696 1638,1688 1617,1677 1594,1663 1570,1646 1543,1628 1515,1607 1486,1584 1456,1558 1424,1531 1392,1502 1360,1471 1327,1439 1295,1406 1264,1374 1235,1342 1207,1310 1182,1280 1159,1251 1137,1223 1119,1196 1102,1172 1088,1149 1077,1128 1069,1109 1064,1093 1061,1079 1063,1069 1067,1061 1075,1056 1086,1055 1100,1057 1116,1063 1134,1071 1155,1082 1178,1096 1203,1112 1230,1131 1257,1152 1287,1176 1317,1201 1348,1229 1380,1258 1412,1289 1445,1321 1477,1354 1508,1386 1537,1418 1564,1450 1590,1480 1613,1509 1634,1537 1653,1563 1669,1588 1683,1611 1694,1632 1703,1650 1708,1666 1710,1680 1709,1690 1705,1698 1705,1698"/>
<polygon class="pen1 brush2" points="1016,1045 1024,1044 1030,1042 1036,1039 1041,1035 1045,1030 1048,1024 1050,1017 1051,1010 1050,1002 1048,995 1045,989 1041,984 1036,980 1030,977 1024,975 1016,974 1009,975 1002,977 996,980 992,984 987,989 985,995 983,1002 982,1010 983,1017 985,1024 987,1030 992,1035 996,1039 1002,1042 1009,1044 1016,1045 1016,1045"/>
<polygon class="pen1 brush2" points="907,733 900,735 892,733 882,728 870,721 858,710 844,697 829,682 813,664 797,644 780,622 762,598 743,572 725,545 706,515 687,485 668,453 633,390 602,329 577,273 558,223 544,180 538,145 539,121 547,108 554,106 562,107 572,112 583,119 595,129 609,142 624,158 640,175 656,195 673,217 691,241 709,267 728,295 747,324 765,354 784,386 820,450 850,511 876,567 895,617 909,660 915,695 915,720 907,733 907,733"/>
<polygon class="pen1 brush2" points="1480,1913 1473,1915 1465,1913 1455,1909 1444,1901 1431,1891 1417,1878 1402,1862 1387,1845 1370,1825 1353,1802 1335,1778 1317,1752 1299,1725 1280,1695 1261,1665 1243,1633 1207,1569 1177,1508 1151,1452 1131,1402 1118,1359 1111,1325 1112,1301 1120,1288 1127,1286 1135,1288 1145,1292 1156,1300 1169,1310 1183,1322 1198,1338 1214,1355 1230,1375 1247,1398 1265,1422 1283,1447 1302,1475 1321,1504 1339,1535 1358,1567 1393,1631 1424,1691 1449,1747 1469,1798 1482,1841 1489,1875 1488,1900 1480,1913 1480,1913"/>
<polygon class="pen1 brush2" points="1120,717 1112,704 1111,680 1118,645 1131,602 1151,552 1176,496 1207,435 1242,371 1261,339 1279,309 1298,280 1317,252 1335,226 1353,202 1370,180 1387,160 1402,142 1417,127 1431,114 1444,104 1455,96 1465,92 1473,90 1480,92 1488,105 1489,130 1482,164 1469,207 1449,257 1424,313 1393,374 1358,437 1339,469 1320,500 1301,529 1283,557 1264,582 1246,607 1229,629 1213,649 1197,666 1182,682 1169,695 1156,705 1145,712 1135,717 1127,719 1120,717 1120,717"/>
<polygon class="pen1 brush2" points="539,1913 531,1900 530,1875 537,1841 550,1798 570,1747 595,1691 626,1631 661,1567 680,1535 698,1504 717,1475 736,1447 754,1422 772,1398 789,1375 806,1355 821,1338 836,1322 850,1310 863,1300 874,1292 884,1288 892,1286 899,1288 907,1301 907,1325 900,1359 887,1402 867,1452 841,1508 811,1569 776,1633 757,1665 738,1695 720,1725 701,1752 683,1778 665,1802 648,1825 632,1845 616,1862 601,1878 588,1891 575,1901 564,1909 554,1913 546,1915 539,1913 539,1913"/>
<polygon class="pen1 brush2" points="750,900 752,893 751,885 746,875 739,864 729,851 716,838 701,823 683,807 663,791 641,774 617,756 591,738 564,719 534,701 504,682 472,663 440,645 408,628 377,612 348,598 319,584 291,572 265,562 241,552 219,545 198,539 179,534 163,532 150,531 139,532 130,535 125,540 123,547 125,555 130,565 137,576 148,589 161,603 176,618 194,633 214,650 236,667 260,685 286,703 314,722 343,741 373,759 405,778 437,796 469,813 499,829 529,844 558,857 585,869 611,880 636,889 658,896 679,902 697,906 713,909 727,910 737,908 745,905 750,900 750,900"/>
<polygon class="pen1 brush2" points="1888,1457 1890,1450 1888,1442 1883,1432 1876,1421 1866,1408 1853,1394 1837,1380 1820,1364 1800,1347 1778,1330 1753,1313 1728,1294 1700,1276 1671,1257 1640,1239 1608,1220 1576,1202 1545,1184 1514,1168 1484,1154 1456,1140 1428,1128 1402,1118 1378,1108 1356,1101 1335,1095 1317,1091 1301,1088 1287,1087 1276,1088 1268,1091 1263,1096 1261,1103 1263,1112 1267,1122 1275,1133 1285,1146 1298,1160 1313,1175 1331,1191 1351,1207 1373,1225 1397,1242 1423,1261 1450,1279 1479,1298 1510,1316 1541,1335 1573,1353 1605,1370 1636,1386 1666,1400 1695,1414 1723,1426 1749,1436 1773,1445 1796,1453 1816,1459 1835,1463 1851,1466 1864,1466 1875,1465 1883,1462 1888,1457 1888,1457"/>
<polygon class="pen1 brush2" points="91,1466 96,1471 104,1474 115,1475 129,1474 145,1471 163,1467 184,1461 206,1453 231,1444 257,1434 284,1422 313,1408 343,1394 374,1378 406,1360 438,1342 470,1324 500,1305 530,1286 557,1268 583,1250 607,1232 629,1215 649,1198 667,1183 682,1168 695,1154 705,1141 712,1130 717,1120 718,1112 716,1105 711,1100 703,1097 692,1096 679,1097 663,1100 644,1104 624,1110 601,1117 577,1126 551,1137 524,1149 495,1162 465,1176 434,1192 403,1209 371,1227 339,1246 309,1265 279,1284 252,1302 226,1321 202,1338 180,1355 160,1372 142,1388 127,1403 114,1416 103,1429 96,1440 91,1450 89,1459 91,1466 91,1466"/>
<polygon class="pen1 brush2" points="1303,892 1308,897 1316,900 1326,901 1340,900 1356,897 1374,893 1395,887 1417,880 1442,871 1468,860 1495,848 1524,835 1554,821 1584,805 1616,788 1648,770 1680,751 1710,732 1739,714 1767,695 1793,677 1817,659 1839,642 1859,625 1877,610 1892,595 1905,581 1916,568 1923,557 1928,547 1930,538 1928,531 1923,526 1914,523 1903,522 1890,523 1873,526 1855,530 1834,536 1812,543 1787,552 1761,563 1734,575 1705,588 1675,602 1644,618 1613,635 1581,653 1549,672 1519,691 1489,710 1462,729 1436,747 1412,765 1390,782 1370,799 1352,815 1337,829 1324,843 1314,856 1307,867 1302,877 1301,885 1303,892 1303,892"/>
<polygon class="pen1 brush2" points="766,7 759,13 755,28 754,49 755,76 758,108 764,144 773,184 783,226 795,268 808,306 821,341 834,370 846,394 858,412 869,422 878,425 884,419 888,404 889,383 888,356 885,324 879,287 871,247 861,204 848,162 835,124 822,89 809,60 797,36 785,19 775,9 766,7 766,7"/>
<polygon class="pen1 brush2" points="878,1557 869,1559 859,1569 847,1586 834,1610 821,1640 808,1674 795,1712 783,1754 773,1797 765,1836 759,1873 755,1905 754,1933 756,1954 759,1968 766,1975 775,1973 785,1962 797,1945 810,1920 823,1891 836,1856 849,1818 861,1776 871,1733 879,1693 885,1656 888,1624 889,1597 888,1576 884,1563 878,1557 878,1557"/>
<polygon class="pen1 brush2" points="1262,7 1253,9 1242,19 1230,36 1218,60 1205,89 1191,124 1178,162 1166,204 1156,247 1147,287 1141,324 1138,356 1137,383 1138,404 1142,419 1149,425 1158,422 1169,412 1181,394 1194,370 1207,341 1220,306 1233,268 1245,226 1255,184 1263,144 1269,108 1272,76 1273,49 1272,28 1268,13 1262,7 1262,7"/>
<polygon class="pen1 brush2" points="1145,1552 1138,1558 1134,1573 1133,1594 1134,1621 1137,1653 1143,1689 1152,1729 1162,1771 1174,1813 1187,1852 1200,1886 1213,1916 1226,1940 1238,1957 1248,1968 1257,1970 1264,1964 1268,1950 1269,1929 1268,1902 1264,1870 1258,1833 1250,1793 1240,1750 1228,1708 1215,1670 1202,1635 1189,1606 1176,1582 1164,1565 1154,1554 1145,1552 1145,1552"/>
<polygon class="pen1 brush2" points="6,1254 8,1257 12,1260 19,1262 27,1264 36,1265 48,1265 61,1265 75,1264 90,1263 107,1261 125,1258 144,1255 163,1251 183,1247 204,1242 226,1237 247,1231 268,1225 287,1219 306,1212 324,1205 341,1199 356,1192 370,1186 383,1179 394,1173 403,1167 411,1161 417,1156 422,1151 424,1146 424,1142 422,1138 418,1135 411,1133 403,1132 394,1131 382,1130 370,1131 355,1131 340,1133 323,1135 306,1138 287,1141 267,1144 247,1149 226,1154 205,1159 183,1165 163,1171 143,1177 124,1184 106,1191 89,1197 74,1204 59,1210 47,1217 35,1223 26,1229 18,1235 12,1240 8,1245 6,1250 6,1254 6,1254"/>
<polygon class="pen1 brush2" points="1540,878 1542,882 1546,885 1553,887 1561,889 1570,890 1582,890 1595,890 1609,889 1624,888 1641,886 1659,883 1678,880 1697,876 1717,871 1738,867 1760,861 1781,855 1801,849 1821,842 1840,836 1857,829 1874,823 1889,816 1904,810 1916,804 1928,798 1937,792 1945,786 1951,781 1956,776 1958,771 1958,767 1956,763 1952,760 1945,757 1937,756 1928,755 1916,754 1904,754 1889,755 1874,757 1857,759 1840,762 1821,765 1801,769 1781,773 1760,778 1739,784 1717,790 1697,796 1677,802 1658,809 1640,815 1623,822 1608,828 1593,834 1581,841 1569,847 1560,853 1552,858 1546,864 1542,869 1540,874 1540,878 1540,878"/>
<polygon class="pen1 brush2" points="84,774 84,778 86,783 90,788 96,793 104,799 113,805 125,811 137,817 152,824 167,831 184,837 202,844 221,850 241,857 261,863 283,869 304,874 325,879 345,884 365,887 384,891 401,893 418,895 433,897 448,898 460,898 472,898 481,897 489,895 496,893 500,890 502,886 502,881 500,877 495,871 489,866 481,860 472,854 460,847 448,841 433,835 418,828 401,822 383,815 364,809 345,803 324,797 303,791 282,786 261,781 241,776 221,773 202,770 185,767 168,765 153,763 138,763 126,762 114,763 105,764 97,765 90,767 86,770 84,774 84,774"/>
<polygon class="pen1 brush2" points="1532,1135 1532,1139 1534,1144 1538,1149 1544,1154 1552,1160 1561,1166 1573,1172 1585,1178 1599,1184 1615,1191 1631,1197 1649,1204 1668,1210 1688,1217 1709,1223 1730,1229 1751,1235 1772,1239 1793,1244 1812,1248 1831,1251 1849,1254 1866,1256 1881,1257 1895,1258 1908,1258 1920,1258 1929,1257 1937,1255 1943,1253 1947,1250 1949,1246 1949,1242 1947,1237 1943,1232 1937,1226 1929,1221 1920,1215 1909,1209 1896,1202 1882,1196 1866,1190 1850,1183 1832,1177 1813,1170 1794,1164 1773,1158 1752,1152 1730,1146 1709,1141 1689,1137 1669,1133 1650,1130 1632,1127 1616,1125 1600,1124 1586,1123 1573,1123 1562,1123 1552,1124 1544,1126 1538,1128 1534,1131 1532,1135"/>
</g>
</svg>
