<?xml version="1.0" encoding="UTF-8" standalone="no"?>
<!DOCTYPE svg PUBLIC "-//W3C//DTD SVG 1.0//EN" "http://www.w3.org/TR/2001/REC-SVG-20010904/DTD/svg10.dtd">
<svg xmlns="http://www.w3.org/2000/svg" xmlns:xlink="http://www.w3.org/1999/xlink" fill-rule="evenodd" height="1.98in" preserveAspectRatio="none" stroke-linecap="round" viewBox="0 0 1568 1980" width="1.568in">
<style type="text/css">
.brush0 { fill: rgb(255,255,255); }
.pen0 { stroke: rgb(0,0,0); stroke-width: 1; stroke-linejoin: round; }
.brush1 { fill: none; }
.pen1 { stroke: none; }
.brush2 { fill: rgb(0,0,0); }
</style>
<g>
<polygon class="pen1 brush2" points="669,554 670,556 672,562 671,573 662,589 660,587 656,581 648,572 638,561 626,549 612,535 596,521 579,508 561,495 542,485 522,476 502,471 481,470 461,473 442,482 423,496 408,515 398,538 394,562 393,590 393,620 394,653 393,689 389,727 384,757 377,785 367,813 354,839 338,864 319,886 296,906 270,923 265,916 253,897 236,867 219,827 203,778 192,721 189,658 197,589 203,565 211,543 220,523 230,505 240,490 252,476 264,464 277,454 291,445 304,438 318,431 332,426 346,423 360,420 373,417 386,416 396,415 407,415 420,414 435,414 451,415 468,416 486,420 505,424 524,431 544,440 565,451 586,465 607,482 628,502 649,526 669,554 669,554"/>
<polygon class="pen1 brush2" points="788,44 781,41 775,44 771,47 762,57 750,73 739,96 732,125 733,161 744,204 768,254 769,274 771,319 772,367 771,399 770,407 769,415 766,422 763,426 757,429 749,428 739,425 724,417 714,411 699,401 682,388 663,371 643,352 624,330 606,306 590,279 578,250 572,219 570,187 576,152 590,116 614,78 647,40 692,0 689,0 681,1 669,2 652,4 633,8 612,14 589,21 566,31 543,44 521,60 500,80 482,103 468,130 457,162 451,198 450,240 453,266 459,291 468,313 479,334 492,353 506,370 522,386 539,400 556,413 574,425 591,436 608,445 624,453 639,460 652,466 663,471 681,484 695,501 704,523 707,549 704,578 695,609 679,641 656,675 628,713 605,751 586,789 572,827 563,864 558,902 558,939 564,976 574,1012 588,1047 608,1081 633,1114 662,1146 697,1176 736,1206 781,1233 825,1204 865,1173 899,1142 929,1110 954,1076 973,1043 989,1008 999,973 1004,937 1005,901 1000,864 991,827 977,789 958,751 935,713 906,675 883,641 867,609 858,578 856,549 859,523 867,501 881,484 899,471 910,466 923,460 938,453 954,445 971,436 989,425 1006,413 1024,400 1040,386 1056,370 1071,353 1084,334 1095,313 1104,291 1110,266 1113,240 1112,198 1106,162 1095,130 1080,103 1062,80 1042,60 1020,44 997,31 973,21 951,14 930,8 911,4 894,2 882,1 874,0 871,0 916,40 949,78 972,116 986,152 992,187 991,219 984,250 973,279 957,306 939,330 920,352 900,371 881,388 863,401 849,411 838,417 823,425 813,428 805,429 799,426 796,422 793,415 792,407 791,399 790,367 791,319 793,274 794,254 819,204 830,161 831,125 824,96 813,73 801,57 792,47 788,44 788,44"/>
<polygon class="pen1 brush2" points="886,551 907,523 928,499 949,479 970,462 991,448 1011,437 1032,428 1051,421 1070,417 1088,414 1105,412 1120,412 1135,412 1148,413 1159,414 1169,415 1182,416 1196,418 1209,421 1223,424 1237,429 1251,435 1265,442 1278,451 1291,462 1303,474 1315,488 1326,503 1335,521 1344,541 1352,563 1358,588 1366,657 1363,720 1352,777 1337,826 1319,866 1302,896 1290,915 1285,922 1259,904 1236,884 1217,862 1201,837 1188,811 1178,784 1171,755 1166,726 1163,688 1162,652 1163,619 1163,588 1162,560 1157,535 1148,513 1133,494 1114,480 1094,472 1074,469 1054,470 1033,475 1014,483 994,494 976,506 959,520 943,534 929,548 917,560 907,571 899,580 895,586 893,588 884,571 883,559 885,553 886,551"/>
<polygon class="pen1 brush2" points="1332,466 1568,23 1383,588 1383,585 1383,577 1382,564 1379,547 1374,528 1364,508 1351,487 1332,466 1332,466"/>
<polygon class="pen1 brush2" points="308,933 310,930 317,923 327,913 339,900 351,886 364,871 375,857 383,845 738,1672 738,1236 781,1264 821,1240 821,1666 1173,845 1175,848 1179,854 1186,865 1195,877 1205,890 1217,904 1230,916 1243,926 782,1980 308,933 308,933"/>
<polygon class="pen1 brush2" points="236,457 0,15 184,581 184,578 184,569 185,557 188,540 194,521 203,500 217,478 236,457"/>
<polygon class="pen1 brush0" points="859,753 854,747 851,741 849,737 849,734 852,733 856,735 862,739 868,744 873,749 876,754 877,758 876,761 874,762 869,761 864,758 859,753 859,753"/>
<polygon class="pen1 brush0" points="852,710 847,704 843,698 841,694 842,692 845,691 849,692 855,695 861,700 866,705 869,711 870,716 869,719 866,719 862,717 857,714 852,710 852,710"/>
<polygon class="pen1 brush0" points="842,666 837,661 834,655 833,651 834,648 836,647 840,648 846,651 852,656 857,662 860,668 861,672 861,675 858,675 853,673 848,670 842,666 842,666"/>
<polygon class="pen1 brush0" points="808,798 811,790 815,768 817,736 818,697 817,658 815,627 811,606 808,598 803,606 800,627 798,658 797,697 798,736 800,768 803,790 808,798 808,798"/>
<polygon class="pen1 brush0" points="757,795 762,787 765,766 766,734 767,696 766,657 765,624 762,603 757,595 754,603 751,624 748,657 747,696 748,734 751,766 754,787 757,795 757,795"/>
<polygon class="pen1 brush0" points="720,667 725,661 729,656 731,652 730,649 727,648 723,649 717,653 711,659 706,664 703,669 702,673 703,676 706,677 710,676 715,672 720,667 720,667"/>
<polygon class="pen1 brush0" points="711,710 716,705 720,700 721,696 720,693 718,692 714,693 708,697 703,703 698,708 694,713 692,717 693,720 696,721 701,719 706,716 711,710 711,710"/>
<polygon class="pen1 brush0" points="703,754 708,749 712,743 714,739 713,737 710,736 706,737 701,740 696,746 690,751 687,756 685,760 686,763 689,763 693,762 698,759 703,754"/>
</g>
</svg>
