<?xml version="1.0" encoding="UTF-8" standalone="no"?>
<!DOCTYPE svg PUBLIC "-//W3C//DTD SVG 1.0//EN" "http://www.w3.org/TR/2001/REC-SVG-20010904/DTD/svg10.dtd">
<svg xmlns="http://www.w3.org/2000/svg" xmlns:xlink="http://www.w3.org/1999/xlink" fill-rule="evenodd" height="1.934in" preserveAspectRatio="none" stroke-linecap="round" viewBox="0 0 1986 1934" width="1.986in">
<style type="text/css">
.brush0 { fill: rgb(255,255,255); }
.pen0 { stroke: rgb(0,0,0); stroke-width: 1; stroke-linejoin: round; }
.brush1 { fill: none; }
.pen1 { stroke: none; }
.brush2 { fill: rgb(0,0,0); }
</style>
<g>
<polygon class="pen1 brush2" points="528,267 540,235 545,197 544,154 537,111 523,71 503,37 476,12 442,0 410,17 384,34 361,53 343,73 329,93 318,113 309,132 304,151 300,169 298,186 298,200 298,213 299,224 301,232 302,237 302,239 289,229 273,219 254,210 234,203 213,196 190,191 167,187 144,184 120,184 98,185 76,189 56,194 38,203 23,213 10,227 0,243 6,271 15,297 26,321 39,342 54,361 69,377 86,392 102,404 118,415 133,425 147,432 158,439 168,444 175,448 179,450 179,452 153,473 129,504 109,542 95,583 88,625 89,665 100,699 124,726 153,727 180,724 205,718 229,710 250,700 270,688 288,675 303,662 317,649 330,636 340,623 349,613 355,604 360,597 364,593 365,592 367,608 372,625 380,643 389,660 400,678 413,695 427,712 443,727 459,740 476,752 494,762 512,769 530,774 548,775 565,773 582,767 612,706 625,652 625,605 615,565 601,533 585,509 573,495 568,490 570,490 575,491 583,492 594,492 606,492 621,491 638,488 655,484 674,477 693,468 712,456 731,440 749,421 767,398 783,370 798,338 793,324 785,310 773,298 759,286 742,275 722,266 702,258 680,251 658,247 636,243 614,242 593,243 574,245 556,250 541,257 528,267"/>
<polygon class="pen1 brush2" points="655,628 658,631 668,640 684,655 704,675 729,701 757,732 787,768 819,809 852,854 885,905 917,959 948,1018 977,1081 1002,1148 1024,1219 1041,1293 1048,1283 1058,1270 1069,1256 1082,1241 1096,1225 1112,1208 1129,1191 1147,1174 1167,1158 1187,1143 1208,1128 1231,1116 1253,1105 1276,1097 1300,1091 1324,1088 1322,1089 1316,1093 1307,1100 1295,1108 1280,1119 1262,1132 1243,1147 1223,1164 1201,1182 1178,1202 1156,1224 1133,1247 1111,1271 1089,1297 1069,1323 1050,1351 1056,1417 1058,1485 1055,1555 1046,1627 1031,1701 1010,1777 982,1855 947,1934 948,1929 952,1917 957,1897 963,1873 970,1845 977,1816 982,1787 987,1760 986,1762 983,1769 977,1778 969,1789 960,1802 948,1814 934,1825 918,1834 921,1827 931,1808 944,1778 959,1736 975,1685 989,1624 999,1554 1005,1477 1003,1393 993,1303 972,1207 939,1107 891,1003 828,897 746,788 645,678 655,628"/>
<polygon class="pen1 brush2" points="1847,601 1830,590 1808,578 1781,564 1749,549 1714,535 1675,520 1634,508 1590,497 1545,488 1499,483 1452,482 1406,485 1360,493 1316,508 1273,528 1233,556 1196,588 1161,622 1129,658 1100,695 1075,732 1052,770 1032,808 1016,845 1004,881 994,916 989,950 987,981 989,1010 995,1036 1006,1059 1020,1078 1037,1094 1052,1107 1067,1117 1082,1125 1095,1131 1108,1134 1120,1136 1131,1136 1142,1135 1152,1133 1161,1129 1170,1125 1178,1121 1186,1117 1193,1112 1199,1108 1212,1098 1226,1083 1242,1067 1259,1052 1279,1040 1301,1033 1326,1033 1354,1044 1367,1055 1375,1066 1378,1077 1376,1088 1371,1100 1363,1111 1353,1121 1341,1132 1327,1142 1313,1151 1298,1160 1284,1168 1271,1176 1260,1182 1250,1188 1244,1192 1232,1202 1221,1214 1210,1227 1203,1244 1200,1265 1202,1291 1212,1323 1230,1362 1244,1382 1262,1399 1285,1413 1312,1424 1343,1432 1376,1437 1413,1440 1451,1439 1492,1435 1534,1428 1577,1418 1621,1405 1665,1389 1709,1370 1753,1348 1795,1323 1825,1301 1851,1277 1874,1250 1895,1221 1912,1190 1926,1158 1938,1126 1947,1092 1959,1035 1965,979 1968,925 1966,873 1963,826 1958,785 1952,751 1946,726 1939,697 1937,674 1939,655 1943,640 1949,630 1954,623 1958,619 1960,618 1946,626 1931,630 1916,630 1902,628 1887,624 1873,617 1860,610 1847,601"/>
<polygon class="pen1 brush0" points="389,445 399,443 408,437 414,428 416,418 414,408 408,400 399,394 389,392 379,394 371,400 366,408 364,418 366,428 371,437 379,443 389,445 389,445"/>
<polygon class="pen1 brush0" points="489,510 507,526 524,542 539,557 552,572 564,588 575,604 585,622 595,641 594,642 593,644 591,646 589,645 583,631 575,616 565,600 553,583 539,566 523,549 504,532 483,516 483,514 485,511 487,510 489,510 489,510"/>
<polygon class="pen1 brush0" points="402,581 414,602 426,622 438,639 451,655 464,670 478,684 493,697 510,710 511,711 513,710 515,708 514,706 502,697 489,687 475,674 461,659 447,642 433,623 420,601 408,577 406,576 404,577 403,579 402,581 402,581"/>
<polygon class="pen1 brush0" points="449,544 445,547 550,675 554,673 449,544 449,544"/>
<polygon class="pen1 brush0" points="244,472 226,487 209,502 194,517 181,533 169,549 158,565 148,582 139,601 138,603 140,605 142,606 143,605 150,591 158,577 167,561 179,544 193,527 209,510 228,493 250,476 249,474 248,472 246,471 244,472 244,472"/>
<polygon class="pen1 brush0" points="329,541 317,562 306,582 294,600 282,616 269,631 255,645 240,659 223,672 222,672 219,670 217,669 217,668 230,659 243,648 257,635 272,620 286,603 299,584 312,562 324,537 326,537 328,538 329,540 329,541 329,541"/>
<polygon class="pen1 brush0" points="283,506 288,507 183,637 177,634 283,506 283,506"/>
<polygon class="pen1 brush0" points="243,398 219,394 197,390 176,384 157,378 138,371 120,362 103,353 85,341 84,339 84,337 85,335 87,334 100,343 114,352 131,361 149,369 170,377 192,383 217,388 244,392 245,394 245,396 244,398 243,398 243,398"/>
<polygon class="pen1 brush0" points="281,294 260,282 240,272 220,263 202,255 183,249 163,244 143,240 122,237 121,238 120,240 120,242 121,243 136,245 153,247 171,251 190,257 211,264 232,274 254,286 277,301 280,300 281,298 282,296 281,294 281,294"/>
<polygon class="pen1 brush0" points="258,351 261,344 105,287 102,293 258,351 258,351"/>
<polygon class="pen1 brush0" points="355,270 355,245 356,223 358,201 361,181 365,161 371,142 377,123 385,104 387,103 389,103 391,103 392,105 386,119 379,135 373,153 368,172 364,194 361,218 361,243 362,270 361,272 359,272 356,272 355,270 355,270"/>
<polygon class="pen1 brush0" points="464,290 473,267 480,245 486,225 491,205 493,185 495,165 495,145 493,124 493,122 491,121 489,121 487,122 488,137 489,155 488,173 486,194 483,215 477,238 469,262 459,287 459,289 461,290 463,290 464,290 464,290"/>
<polygon class="pen1 brush0" points="406,277 436,114 442,115 412,280 406,277 406,277"/>
<polygon class="pen1 brush0" points="517,425 529,426 541,427 553,428 564,428 575,428 585,428 595,428 605,427 615,426 625,425 634,423 644,421 653,419 663,416 673,413 683,409 685,408 685,405 685,403 683,402 676,405 669,407 661,410 653,412 644,415 635,417 625,419 615,421 604,422 593,423 581,424 569,424 557,423 544,423 531,421 517,419 515,420 515,422 515,424 517,425 517,425"/>
<polygon class="pen1 brush0" points="507,316 519,312 530,309 541,306 552,304 562,301 573,300 583,298 593,297 602,296 612,295 622,295 632,295 642,296 652,297 662,298 673,300 675,301 676,303 676,306 675,307 668,306 660,305 652,304 643,303 634,302 624,302 614,302 604,302 593,303 582,304 570,305 558,307 546,310 533,313 520,317 507,321 505,321 505,319 505,317 507,316 507,316"/>
<polygon class="pen1 brush0" points="514,375 679,358 677,352 513,368 514,375"/>
</g>
</svg>
