<?xml version="1.0" encoding="UTF-8" standalone="no"?>
<!DOCTYPE svg PUBLIC "-//W3C//DTD SVG 1.0//EN" "http://www.w3.org/TR/2001/REC-SVG-20010904/DTD/svg10.dtd">
<svg xmlns="http://www.w3.org/2000/svg" xmlns:xlink="http://www.w3.org/1999/xlink" fill-rule="evenodd" height="1.968in" preserveAspectRatio="none" stroke-linecap="round" viewBox="0 0 1976 1968" width="1.976in">
<style type="text/css">
.brush0 { fill: rgb(255,255,255); }
.pen0 { stroke: rgb(0,0,0); stroke-width: 1; stroke-linejoin: round; }
.brush1 { fill: none; }
.pen1 { stroke: none; }
.brush2 { fill: rgb(0,0,0); }
</style>
<g>
<polygon class="pen1 brush2" points="680,1358 676,1363 670,1368 661,1373 650,1376 636,1379 620,1382 603,1384 583,1385 563,1386 540,1386 517,1386 492,1384 466,1383 440,1380 412,1377 385,1373 357,1369 328,1364 300,1358 272,1351 244,1344 216,1336 190,1327 163,1318 138,1308 114,1297 91,1285 70,1273 49,1260 31,1246 15,1231 0,1216 1,1215 3,1211 7,1205 13,1197 20,1187 30,1176 40,1163 53,1149 67,1134 83,1118 101,1101 121,1084 142,1067 165,1050 191,1033 218,1016 246,1000 277,984 310,970 345,957 381,945 420,934 460,926 503,919 547,914 594,912 643,913 694,916 747,922 802,931 859,944 918,960 916,967 914,973 913,980 912,987 913,997 914,1006 917,1015 922,1024 913,1033 902,1044 889,1057 874,1073 859,1090 842,1108 825,1129 807,1150 789,1174 772,1198 754,1223 737,1249 721,1275 706,1303 692,1330 680,1358 680,1358"/>
<polygon class="pen1 brush2" points="1171,1454 1152,1433 1134,1409 1118,1384 1102,1357 1087,1330 1073,1302 1060,1273 1049,1245 1038,1217 1028,1190 1019,1165 1012,1141 1005,1119 1000,1100 995,1083 992,1070 983,1069 974,1067 966,1064 958,1060 950,1056 943,1051 936,1045 930,1038 853,1123 791,1208 742,1292 705,1374 678,1454 661,1531 652,1604 649,1673 651,1736 658,1793 667,1844 677,1886 687,1921 696,1947 703,1963 705,1968 746,1956 789,1937 832,1910 876,1878 918,1841 960,1801 999,1759 1036,1715 1070,1671 1101,1628 1127,1587 1148,1549 1163,1516 1173,1489 1176,1467 1171,1454 1171,1454"/>
<polygon class="pen1 brush2" points="1483,1070 1497,1073 1515,1086 1535,1108 1557,1138 1580,1175 1604,1218 1627,1266 1650,1317 1671,1372 1690,1427 1706,1484 1717,1539 1725,1593 1727,1644 1723,1691 1713,1733 1711,1733 1707,1733 1699,1732 1689,1731 1677,1729 1662,1727 1644,1724 1625,1720 1604,1715 1582,1709 1558,1702 1532,1693 1505,1683 1478,1671 1449,1658 1420,1643 1391,1626 1361,1607 1331,1586 1301,1563 1271,1537 1242,1509 1213,1478 1185,1445 1158,1409 1132,1370 1107,1328 1084,1282 1062,1234 1041,1182 1023,1127 1007,1068 1016,1066 1024,1063 1032,1060 1040,1056 1047,1051 1053,1045 1059,1040 1064,1033 1079,1037 1096,1041 1117,1046 1139,1051 1163,1056 1189,1061 1217,1066 1245,1070 1275,1074 1305,1077 1335,1079 1366,1080 1396,1080 1426,1078 1455,1075 1483,1070 1483,1070"/>
<polygon class="pen1 brush2" points="1297,612 1301,606 1307,601 1316,597 1327,593 1341,589 1356,586 1374,584 1393,582 1414,581 1436,580 1459,580 1484,581 1510,582 1536,584 1563,587 1591,590 1619,594 1647,598 1676,603 1704,609 1732,616 1759,623 1786,632 1812,640 1837,650 1862,660 1885,672 1906,684 1926,697 1945,710 1961,725 1976,740 1975,741 1973,745 1969,751 1963,759 1956,769 1947,781 1936,794 1924,809 1910,825 1894,841 1876,858 1857,876 1836,894 1813,912 1788,930 1761,947 1733,965 1702,981 1670,996 1636,1011 1600,1024 1562,1035 1521,1045 1479,1053 1435,1059 1389,1062 1341,1063 1291,1061 1239,1057 1185,1049 1128,1038 1070,1023 1073,1014 1076,1005 1077,996 1078,987 1077,976 1075,964 1071,953 1065,943 1074,935 1085,925 1097,913 1111,900 1125,884 1141,867 1157,849 1174,828 1190,806 1207,783 1224,758 1240,731 1256,703 1271,674 1284,644 1297,612 1297,612"/>
<polygon class="pen1 brush2" points="811,517 829,539 846,563 862,588 877,614 892,641 906,669 918,697 930,725 941,753 952,779 961,805 969,829 976,852 982,872 988,890 992,905 1001,905 1010,906 1019,908 1028,911 1036,915 1043,920 1050,926 1057,933 1138,844 1202,756 1251,670 1288,586 1312,506 1327,429 1333,356 1332,288 1325,226 1314,170 1300,121 1286,79 1272,45 1260,21 1252,5 1249,0 1208,13 1166,33 1125,60 1083,93 1043,130 1004,170 967,213 933,257 901,300 873,343 850,384 831,421 817,455 808,482 806,503 811,517 811,517"/>
<polygon class="pen1 brush2" points="486,891 513,887 542,885 573,885 604,886 637,888 670,892 702,896 735,901 766,906 796,912 824,918 851,924 874,930 895,935 912,939 925,943 929,937 934,931 939,926 945,921 951,917 958,913 965,910 973,908 956,849 938,794 917,742 895,694 871,649 846,607 820,568 793,532 765,499 736,468 706,441 677,415 647,392 617,371 587,353 558,336 529,321 501,308 473,297 447,287 421,279 397,272 375,266 354,261 335,257 318,254 303,252 291,251 280,250 273,249 269,249 267,249 257,291 252,337 254,386 261,439 272,492 286,546 304,600 324,652 345,702 368,748 391,789 413,825 435,854 454,875 472,888 486,891"/>
</g>
</svg>
