<?xml version="1.0" encoding="UTF-8" standalone="no"?>
<!DOCTYPE svg PUBLIC "-//W3C//DTD SVG 1.0//EN" "http://www.w3.org/TR/2001/REC-SVG-20010904/DTD/svg10.dtd">
<svg xmlns="http://www.w3.org/2000/svg" xmlns:xlink="http://www.w3.org/1999/xlink" fill-rule="evenodd" height="1.975in" preserveAspectRatio="none" stroke-linecap="round" viewBox="0 0 2049 1975" width="2.049in">
<style type="text/css">
.brush0 { fill: rgb(255,255,255); }
.pen0 { stroke: rgb(0,0,0); stroke-width: 1; stroke-linejoin: round; }
.brush1 { fill: none; }
.pen1 { stroke: none; }
.brush2 { fill: rgb(0,0,0); }
</style>
<g>
<polygon class="pen1 brush2" points="284,1953 277,1939 268,1922 260,1903 252,1883 243,1861 235,1836 228,1811 221,1783 215,1755 211,1725 208,1693 206,1661 207,1627 209,1593 214,1558 222,1522 232,1485 245,1448 261,1410 281,1372 304,1334 332,1295 363,1256 399,1218 439,1180 484,1141 534,1104 589,1066 649,1029 715,993 787,958 865,923 829,954 789,990 746,1031 700,1076 652,1127 603,1181 555,1240 508,1304 463,1371 421,1443 383,1519 350,1598 322,1682 302,1769 289,1859 284,1953 284,1953"/>
<polygon class="pen1 brush2" points="649,1440 657,1393 668,1346 683,1299 700,1253 719,1208 739,1164 759,1123 780,1084 801,1048 821,1016 839,987 855,963 868,943 878,928 885,919 887,916 851,950 810,988 766,1030 719,1077 670,1128 620,1183 571,1243 523,1307 477,1375 434,1448 396,1525 362,1606 335,1692 315,1782 303,1876 300,1975 321,1972 343,1965 367,1954 392,1939 418,1920 445,1897 471,1870 497,1839 522,1804 547,1765 570,1721 591,1674 609,1622 626,1565 639,1505 649,1440"/>
<polygon class="pen1 brush2" points="1114,528 1104,501 1092,470 1078,436 1060,400 1041,362 1019,323 993,285 966,246 935,210 901,175 864,144 824,116 781,92 735,74 685,61 632,55 632,59 632,72 632,91 633,117 636,149 641,186 649,226 659,270 673,317 691,365 714,414 741,463 774,512 814,559 859,604 912,646 899,644 885,642 869,640 852,639 834,637 815,636 796,634 775,634 754,633 732,633 710,634 687,635 663,636 640,639 616,642 592,645 568,650 543,656 520,662 496,669 472,678 449,687 427,698 404,710 383,723 362,737 342,753 323,771 305,789 288,810 272,831 257,855 283,870 310,883 338,894 365,903 393,912 421,918 449,923 477,927 506,930 534,932 561,932 589,932 617,930 644,928 670,925 696,921 722,916 747,911 771,905 795,899 818,893 840,886 861,879 881,872 900,865 917,858 934,851 949,844 963,837 976,831 987,825 997,819 980,842 960,869 939,900 917,934 895,971 873,1010 853,1052 835,1095 820,1141 808,1188 801,1236 799,1286 802,1335 812,1386 829,1436 854,1486 858,1484 868,1477 885,1466 906,1451 931,1431 959,1406 990,1378 1021,1345 1053,1307 1083,1265 1112,1219 1139,1169 1161,1114 1179,1055 1192,991 1198,923 1206,948 1217,978 1230,1012 1245,1049 1264,1088 1285,1129 1309,1170 1336,1210 1366,1250 1400,1287 1437,1322 1477,1353 1521,1379 1568,1400 1620,1414 1675,1422 1675,1417 1676,1404 1676,1383 1675,1355 1672,1321 1668,1282 1660,1238 1649,1191 1634,1142 1615,1091 1591,1039 1560,987 1524,937 1480,888 1429,842 1370,800 1375,801 1383,801 1394,802 1406,803 1420,805 1436,805 1454,806 1474,807 1495,807 1517,807 1540,806 1565,805 1590,803 1616,801 1643,797 1670,793 1697,788 1725,782 1752,775 1780,766 1807,756 1834,745 1860,733 1886,719 1910,703 1934,686 1957,667 1978,647 1998,624 2017,599 2034,573 2049,544 2048,543 2045,542 2040,540 2033,537 2024,533 2013,529 2001,524 1987,520 1972,515 1955,509 1936,504 1917,499 1896,495 1874,490 1851,486 1827,483 1801,480 1775,479 1749,478 1721,478 1693,479 1664,481 1635,485 1605,490 1575,496 1545,504 1514,514 1484,526 1453,540 1422,556 1391,574 1361,594 1381,568 1402,540 1422,510 1443,478 1462,444 1481,409 1498,372 1512,333 1525,294 1534,253 1540,212 1542,170 1540,128 1533,85 1521,43 1504,0 1500,2 1489,8 1472,17 1450,31 1423,48 1393,70 1361,96 1327,126 1292,160 1258,199 1225,242 1195,290 1167,342 1144,399 1126,461 1114,528"/>
<polygon class="pen1 brush0" points="1166,578 1189,578 1211,580 1232,582 1253,584 1273,588 1292,593 1310,598 1327,605 1342,612 1356,621 1368,630 1378,640 1386,652 1392,665 1396,678 1397,693 1395,708 1390,724 1381,740 1370,756 1356,771 1340,786 1323,801 1305,814 1286,827 1267,839 1249,849 1230,858 1213,865 1197,871 1184,874 1172,875 1161,874 1147,870 1131,864 1113,857 1095,848 1075,838 1056,826 1037,813 1018,799 1001,785 984,770 970,754 959,739 950,723 944,707 942,692 943,677 947,663 952,651 960,639 970,629 981,619 995,611 1009,604 1025,598 1043,592 1061,588 1081,584 1101,581 1122,579 1144,578 1166,578"/>
<polygon class="pen1 brush2" points="1165,588 1186,588 1206,589 1227,591 1246,594 1265,597 1283,602 1299,607 1315,613 1329,620 1342,628 1353,636 1363,646 1371,656 1376,668 1380,680 1381,694 1379,709 1374,723 1366,738 1355,753 1343,768 1328,782 1312,796 1295,809 1278,821 1260,832 1242,841 1225,850 1209,856 1195,861 1182,864 1171,865 1160,864 1147,861 1133,856 1116,849 1099,841 1081,831 1063,820 1045,808 1027,795 1011,782 996,767 983,753 972,738 963,723 958,708 956,693 957,679 960,666 966,655 973,644 982,635 993,626 1005,618 1019,612 1034,606 1050,601 1067,597 1086,594 1104,591 1124,589 1144,588 1165,588"/>
<polygon class="pen1 brush0" points="1272,711 1279,710 1285,709 1291,706 1296,702 1300,697 1303,692 1305,686 1306,679 1305,672 1303,665 1300,659 1296,654 1291,650 1285,647 1279,646 1272,645 1265,646 1259,647 1253,650 1248,654 1244,659 1241,665 1240,672 1239,679 1240,686 1241,692 1244,697 1248,702 1253,706 1259,709 1265,710 1272,711 1272,711"/>
<polygon class="pen1 brush0" points="1080,709 1086,708 1092,706 1098,703 1102,699 1106,694 1109,688 1111,682 1112,675 1111,668 1109,662 1106,656 1102,651 1098,647 1092,644 1086,643 1080,642 1073,643 1066,644 1060,647 1056,651 1051,656 1049,662 1047,668 1046,675 1047,682 1049,688 1051,694 1056,699 1060,703 1066,706 1073,708 1080,709 1080,709"/>
<polygon class="pen1 brush0" points="1175,809 1181,808 1187,806 1193,803 1198,799 1202,794 1205,788 1207,782 1208,775 1207,768 1205,762 1202,756 1198,751 1193,747 1187,744 1181,742 1175,741 1168,742 1161,744 1155,747 1151,751 1146,756 1144,762 1142,768 1141,775 1142,782 1144,788 1146,794 1151,799 1155,803 1161,806 1168,808 1175,809"/>
</g>
</svg>
