<?xml version="1.0" encoding="UTF-8" standalone="no"?>
<!DOCTYPE svg PUBLIC "-//W3C//DTD SVG 1.0//EN" "http://www.w3.org/TR/2001/REC-SVG-20010904/DTD/svg10.dtd">
<svg xmlns="http://www.w3.org/2000/svg" xmlns:xlink="http://www.w3.org/1999/xlink" fill-rule="evenodd" height="1.743in" preserveAspectRatio="none" stroke-linecap="round" viewBox="0 0 1976 1743" width="1.976in">
<style type="text/css">
.brush0 { fill: rgb(255,255,255); }
.pen0 { stroke: rgb(0,0,0); stroke-width: 1; stroke-linejoin: round; }
.brush1 { fill: none; }
.pen1 { stroke: none; }
.brush2 { fill: rgb(0,0,0); }
</style>
<g>
<polygon class="pen1 brush2" points="943,493 946,488 955,473 968,448 983,414 999,371 1015,319 1029,258 1040,189 1042,188 1047,184 1055,179 1065,171 1079,162 1094,152 1112,140 1131,128 1153,115 1175,102 1199,89 1224,76 1249,63 1275,51 1301,40 1327,30 1339,26 1350,23 1362,20 1373,17 1384,14 1396,12 1407,11 1418,9 1428,9 1439,9 1449,9 1459,10 1469,11 1478,13 1487,16 1496,19 1510,27 1523,37 1535,49 1545,64 1553,82 1559,102 1563,125 1565,152 1568,293 1566,454 1560,623 1552,787 1543,935 1535,1056 1529,1136 1527,1166 1528,1163 1532,1154 1539,1140 1548,1122 1561,1101 1577,1078 1597,1054 1621,1030 1648,1007 1681,985 1717,966 1759,951 1805,940 1857,935 1913,936 1976,945 1927,987 1882,1018 1840,1041 1801,1055 1766,1064 1733,1069 1703,1071 1675,1072 1650,1075 1627,1080 1606,1090 1587,1106 1570,1129 1554,1162 1540,1206 1527,1263 1524,1287 1519,1337 1513,1404 1505,1479 1498,1553 1492,1618 1488,1663 1486,1680 1476,1623 1452,1707 1456,1643 1415,1743 1417,1718 1421,1653 1426,1564 1430,1464 1431,1370 1427,1295 1416,1256 1396,1267 1367,1311 1337,1351 1306,1386 1274,1416 1242,1443 1211,1466 1181,1486 1152,1502 1124,1515 1099,1526 1077,1534 1058,1540 1042,1543 1030,1545 1023,1546 1020,1545 1023,1536 1033,1517 1048,1490 1069,1457 1093,1420 1122,1381 1153,1342 1187,1304 1223,1269 1259,1240 1296,1218 1333,1206 1369,1204 1403,1215 1436,1241 1465,1283 1469,1245 1478,1144 1492,999 1506,826 1519,646 1527,475 1530,333 1524,237 1517,208 1509,185 1498,169 1487,159 1474,154 1460,153 1446,155 1432,161 1417,169 1402,179 1388,190 1375,202 1362,213 1351,223 1341,231 1333,237 1324,244 1310,254 1292,267 1271,283 1246,300 1220,319 1192,340 1162,360 1132,381 1101,402 1071,422 1041,441 1013,457 987,472 964,484 943,493"/>
<polygon class="pen1 brush2" points="351,496 338,475 328,434 321,379 320,315 324,249 334,184 353,126 381,81 406,93 430,107 453,125 475,144 495,165 514,187 532,209 548,231 562,253 575,273 586,291 596,307 603,321 609,331 613,337 614,338 615,330 622,319 634,307 651,293 672,279 696,264 724,249 753,234 785,221 817,208 850,197 883,188 915,181 945,178 974,178 1000,181 998,210 987,253 971,305 951,360 931,413 913,457 900,488 895,500 923,504 951,511 979,522 1007,536 1034,552 1060,570 1085,589 1109,610 1131,631 1152,652 1170,673 1187,693 1201,712 1212,729 1221,744 1226,756 1224,757 1219,761 1211,766 1200,773 1186,781 1169,789 1150,798 1127,806 1103,814 1076,821 1047,826 1015,829 982,830 947,828 910,823 872,814 895,853 907,905 909,966 903,1032 891,1096 874,1155 853,1203 831,1236 829,1235 824,1233 816,1229 806,1223 793,1215 778,1206 762,1194 745,1181 727,1165 709,1147 691,1126 673,1103 656,1078 639,1049 625,1019 612,985 609,994 600,1005 586,1017 568,1030 546,1044 521,1059 493,1073 464,1087 432,1100 400,1111 367,1122 335,1130 303,1136 273,1139 245,1139 219,1135 219,1128 219,1107 221,1076 227,1035 238,988 257,936 285,882 323,827 312,827 298,824 280,817 259,807 236,794 211,779 185,762 159,743 133,722 108,701 83,678 61,654 41,630 23,606 10,582 0,558 18,545 38,534 58,523 79,514 101,506 123,500 146,494 169,490 192,487 216,485 239,484 262,484 285,486 308,488 330,491 351,496"/>
<polygon class="pen1 brush0" points="632,867 639,866 646,864 652,861 658,856 662,851 665,845 667,838 668,831 667,823 664,815 660,809 654,803 665,567 637,543 460,575 455,569 448,564 440,561 432,560 425,561 418,563 412,566 406,570 401,575 398,581 396,588 395,595 396,602 398,609 401,615 406,619 412,624 418,626 425,628 432,629 438,628 444,627 450,625 455,621 459,617 463,613 465,607 466,601 617,580 432,750 429,749 426,748 422,747 419,747 412,748 405,750 399,753 394,757 390,763 387,769 385,776 384,783 385,790 387,797 390,803 394,808 399,812 405,815 412,817 419,818 426,817 433,815 439,812 445,808 449,803 452,797 454,790 455,783 455,779 453,774 452,770 450,766 641,595 624,797 613,802 605,809 600,819 598,831 599,838 601,845 603,851 608,856 612,861 618,864 625,866 632,867"/>
</g>
</svg>
