<?xml version="1.0" encoding="UTF-8" standalone="no"?>
<!DOCTYPE svg PUBLIC "-//W3C//DTD SVG 1.0//EN" "http://www.w3.org/TR/2001/REC-SVG-20010904/DTD/svg10.dtd">
<svg xmlns="http://www.w3.org/2000/svg" xmlns:xlink="http://www.w3.org/1999/xlink" fill-rule="evenodd" height="1.98in" preserveAspectRatio="none" stroke-linecap="round" viewBox="0 0 1456 1980" width="1.456in">
<style type="text/css">
.brush0 { fill: rgb(255,255,255); }
.pen0 { stroke: rgb(0,0,0); stroke-width: 1; stroke-linejoin: round; }
.brush1 { fill: none; }
.pen1 { stroke: none; }
.brush2 { fill: rgb(0,0,0); }
</style>
<g>
<polygon class="pen1 brush2" points="736,704 742,701 758,690 784,672 816,647 853,617 892,580 931,539 968,493 1001,443 1028,388 1045,331 1052,271 1046,208 1025,144 987,78 929,11 931,14 935,24 941,39 948,58 955,81 960,106 963,134 962,163 961,162 959,160 954,156 948,152 940,147 929,141 916,136 901,132 904,137 909,152 913,181 912,226 911,224 909,223 907,221 904,220 899,217 893,214 885,209 874,202 876,208 879,225 882,253 881,290 881,290 878,288 870,286 854,283 855,292 858,317 858,356 854,408 842,471 820,542 786,620 736,704 736,704"/>
<polygon class="pen1 brush2" points="1158,604 1151,603 1143,603 1136,602 1129,602 1121,602 1113,602 1105,602 1097,602 1075,603 1053,604 1032,605 1011,607 992,610 972,612 954,615 936,619 919,623 902,627 886,631 871,636 857,641 843,647 830,653 817,659 840,641 864,621 890,598 916,573 942,546 968,517 992,485 1013,452 1032,417 1048,380 1059,342 1066,302 1067,261 1062,219 1050,176 1031,132 1041,114 1048,99 1053,89 1058,82 1059,84 1061,90 1064,99 1068,109 1072,120 1077,131 1083,141 1088,148 1089,147 1092,144 1097,140 1103,135 1111,130 1120,125 1130,121 1141,119 1141,124 1142,139 1143,163 1142,193 1143,192 1145,188 1149,182 1154,175 1161,167 1170,160 1180,154 1192,149 1196,158 1205,179 1214,203 1218,224 1220,223 1224,220 1231,217 1240,212 1250,208 1260,205 1270,202 1280,202 1278,207 1274,222 1269,242 1264,265 1267,263 1273,259 1281,254 1290,249 1301,244 1312,240 1323,238 1333,237 1332,238 1329,241 1324,246 1319,253 1313,261 1308,270 1303,281 1299,292 1299,292 1301,291 1305,289 1311,289 1319,289 1331,290 1347,293 1367,298 1363,300 1351,308 1334,322 1312,342 1288,369 1262,403 1236,446 1212,498 1206,513 1199,528 1193,542 1186,556 1179,569 1172,581 1165,593 1158,604 1158,604"/>
<polygon class="pen1 brush2" points="1368,679 1357,671 1346,663 1335,655 1323,649 1311,642 1298,636 1286,631 1273,626 1260,622 1247,618 1234,614 1221,611 1208,609 1196,607 1183,605 1171,604 1178,593 1185,581 1192,569 1199,556 1205,543 1212,529 1219,515 1226,500 1236,476 1247,454 1259,434 1270,416 1282,399 1294,384 1306,371 1317,359 1327,357 1337,356 1346,357 1355,357 1361,359 1367,360 1370,361 1371,361 1368,383 1363,404 1357,420 1355,426 1364,423 1373,420 1382,418 1390,417 1397,417 1403,416 1407,416 1408,416 1400,436 1391,451 1385,461 1382,464 1394,462 1404,460 1413,460 1420,459 1426,459 1430,460 1432,460 1433,460 1424,483 1415,501 1408,513 1405,517 1418,515 1428,515 1437,515 1444,515 1449,516 1453,517 1455,518 1456,518 1452,527 1446,537 1438,548 1429,559 1421,570 1415,578 1410,584 1408,586 1422,588 1433,590 1441,592 1447,594 1451,596 1453,597 1455,598 1455,598 1445,609 1434,619 1423,630 1412,640 1400,651 1389,661 1378,670 1368,679 1368,679"/>
<polygon class="pen1 brush2" points="747,709 761,697 778,686 797,675 817,666 839,657 862,649 885,642 910,636 934,630 959,625 983,621 1007,618 1030,616 1052,614 1072,613 1091,612 1100,611 1112,610 1126,610 1143,610 1161,611 1181,613 1201,617 1223,621 1244,627 1266,634 1287,643 1307,653 1326,666 1343,680 1359,697 1372,716 1381,732 1388,751 1393,771 1395,794 1396,818 1394,845 1389,875 1382,906 1374,894 1365,883 1356,873 1347,865 1337,859 1327,854 1317,850 1306,848 1316,882 1321,912 1323,935 1323,944 1308,933 1292,922 1276,912 1262,903 1249,896 1239,891 1232,887 1230,886 1241,927 1242,957 1238,978 1236,986 1225,988 1215,988 1206,986 1198,983 1191,980 1186,976 1183,974 1182,973 1185,994 1192,1019 1199,1041 1202,1050 1176,1035 1155,1024 1139,1016 1127,1010 1119,1007 1113,1005 1111,1004 1110,1004 1119,1023 1126,1040 1133,1053 1138,1065 1143,1076 1147,1087 1151,1098 1155,1111 1150,1110 1146,1110 1141,1109 1137,1109 1132,1108 1127,1107 1123,1106 1118,1105 1082,1094 1047,1076 1013,1054 980,1028 949,999 919,967 891,934 865,900 841,866 819,834 800,803 783,775 770,751 759,731 751,717 747,709 747,709"/>
<polygon class="pen1 brush2" points="838,1034 850,992 855,951 856,920 855,908 729,717 725,725 713,744 696,772 676,804 654,838 634,870 616,897 604,915 607,939 612,968 620,1000 631,1031 619,1028 606,1027 591,1027 575,1030 558,1035 539,1043 519,1054 498,1068 475,1087 451,1109 426,1136 399,1168 370,1205 340,1248 309,1296 276,1351 278,1348 286,1341 297,1328 312,1313 331,1294 352,1272 377,1249 404,1225 432,1201 463,1177 494,1153 526,1131 559,1111 591,1095 624,1081 655,1072 655,1073 656,1074 657,1076 658,1077 646,1079 633,1084 620,1090 607,1099 593,1111 579,1126 566,1144 552,1166 538,1192 525,1222 513,1256 501,1296 489,1340 479,1390 469,1446 460,1507 461,1503 465,1493 471,1477 479,1456 489,1431 501,1403 515,1372 531,1338 548,1304 567,1270 587,1236 609,1203 632,1173 656,1145 680,1121 706,1101 705,1127 704,1161 703,1202 704,1249 707,1301 712,1357 720,1417 730,1480 744,1544 763,1608 785,1673 813,1736 846,1797 885,1855 931,1909 983,1958 1063,1980 1059,1977 1047,1968 1029,1952 1006,1930 978,1902 948,1866 916,1824 884,1774 852,1717 822,1653 796,1580 773,1500 756,1412 746,1316 743,1211 750,1098 756,1099 758,1099 760,1098 761,1098 763,1098 788,1119 812,1144 836,1172 858,1203 879,1235 899,1269 918,1303 935,1337 950,1370 964,1401 975,1429 985,1453 993,1474 999,1490 1003,1500 1004,1503 996,1444 986,1390 976,1342 966,1299 954,1260 942,1226 930,1196 918,1170 905,1147 892,1128 879,1113 866,1100 853,1089 840,1082 828,1076 816,1072 818,1070 819,1068 821,1066 823,1064 854,1072 887,1084 920,1100 953,1119 986,1141 1018,1164 1050,1189 1080,1214 1107,1239 1133,1263 1156,1284 1175,1304 1191,1320 1203,1333 1210,1341 1213,1344 1176,1283 1141,1229 1108,1184 1076,1144 1047,1112 1019,1085 993,1063 969,1047 947,1035 926,1027 908,1022 890,1020 875,1021 861,1024 849,1029 838,1034 838,1034"/>
<polygon class="pen1 brush2" points="713,713 709,721 701,736 691,756 677,780 660,808 641,839 619,871 595,905 569,939 541,972 511,1004 480,1033 447,1060 412,1082 377,1099 341,1111 335,1112 329,1113 323,1114 317,1115 321,1102 325,1090 330,1079 335,1068 341,1057 347,1043 355,1027 364,1007 363,1007 361,1008 355,1010 347,1013 335,1018 319,1026 298,1037 272,1052 275,1043 282,1022 289,997 291,977 290,978 287,980 282,983 275,986 267,989 258,990 247,990 236,988 234,979 231,959 232,929 243,889 241,890 234,894 224,899 211,906 197,915 181,924 166,935 151,946 151,937 152,915 157,885 168,851 155,853 143,858 132,864 120,873 110,883 100,895 90,908 81,923 72,890 67,859 64,830 64,803 67,779 71,757 78,738 87,720 100,701 116,684 134,670 153,657 173,647 195,638 216,631 238,626 259,621 280,618 300,616 318,615 335,614 349,615 361,615 370,616 389,617 409,618 431,620 454,623 477,627 502,631 526,636 551,641 575,648 598,655 621,662 643,671 663,680 682,690 698,701 713,713 713,713"/>
<polygon class="pen1 brush2" points="91,689 102,681 113,673 124,665 136,658 148,652 161,646 173,640 186,635 199,630 212,626 224,622 237,619 250,616 263,613 275,611 287,609 280,598 273,587 266,575 260,563 253,550 246,536 239,522 233,507 223,484 212,462 200,443 189,425 177,408 165,393 153,380 142,368 130,367 119,367 108,367 99,368 91,369 85,371 81,372 80,372 84,394 90,415 95,431 97,437 88,434 79,431 70,429 61,428 54,428 48,427 44,427 43,427 53,447 62,463 68,473 71,476 60,474 50,473 41,472 34,472 28,472 24,473 21,473 20,473 25,485 30,496 36,506 40,514 45,521 48,526 50,529 51,530 39,528 28,528 19,528 12,528 7,529 3,530 1,531 0,531 4,540 11,550 19,561 28,572 36,582 43,590 48,596 50,598 36,601 26,603 18,605 12,607 7,609 5,610 3,611 3,611 14,622 25,632 36,643 48,653 59,663 71,672 81,681 91,689 91,689"/>
<polygon class="pen1 brush2" points="297,609 305,609 312,608 319,608 327,608 334,608 342,608 350,608 358,608 380,609 402,610 423,611 444,613 463,615 483,618 501,621 519,624 536,627 553,631 569,636 584,640 598,646 612,651 625,657 638,663 615,646 591,626 565,603 539,578 513,551 487,521 463,490 442,457 423,422 407,385 396,347 389,307 388,266 393,225 405,182 424,138 414,119 408,104 402,94 398,88 397,90 395,96 392,104 388,114 383,125 378,136 372,145 367,153 366,152 363,149 358,145 352,140 344,135 335,130 325,126 314,123 314,129 313,145 312,168 313,197 312,196 310,192 306,186 301,180 294,173 285,166 275,160 263,155 259,164 250,185 241,210 237,230 235,229 231,226 224,222 215,217 205,213 195,209 185,206 175,206 177,212 181,227 186,248 191,271 188,268 182,264 174,259 165,254 154,249 143,245 132,243 122,243 123,244 126,247 131,252 136,259 142,267 147,276 152,287 156,298 156,297 154,296 150,295 145,294 136,294 124,295 108,298 88,304 92,306 104,314 122,328 144,348 169,375 196,409 222,452 246,504 252,519 258,533 265,547 271,561 278,573 284,586 291,598 297,609 297,609"/>
<polygon class="pen1 brush2" points="722,706 676,631 643,558 620,489 606,427 598,375 595,334 595,307 595,298 582,300 577,301 576,301 577,301 575,264 577,236 581,219 583,213 572,220 563,225 557,229 552,232 549,234 546,235 545,236 543,237 542,192 544,164 548,150 550,146 534,151 521,156 511,161 504,166 499,170 495,173 494,175 493,176 491,147 493,119 497,93 503,70 509,51 514,36 518,26 520,23 462,90 424,156 403,220 398,282 406,341 424,398 452,451 485,501 523,546 563,586 603,622 640,651 673,675 699,693 716,703 722,706 722,706"/>
<polygon class="pen1 brush2" points="729,700 681,617 648,539 626,468 614,406 609,354 608,315 609,290 610,281 595,285 587,288 584,290 584,290 583,253 585,225 589,208 591,202 580,207 571,211 564,214 559,217 556,219 553,221 551,224 549,226 549,182 555,153 561,137 564,132 557,135 550,137 544,139 538,142 533,144 528,146 524,148 520,150 524,124 530,106 534,96 536,92 545,94 552,97 559,99 564,101 568,104 571,106 573,109 574,111 571,87 569,69 568,59 567,55 578,56 587,60 595,65 602,71 608,78 612,83 614,87 615,88 619,56 626,33 632,18 635,13 647,21 657,31 665,40 672,49 676,57 679,63 681,67 681,69 683,55 687,42 693,30 699,20 705,12 711,5 715,1 716,0 723,12 730,23 736,33 741,43 745,51 748,58 749,64 750,67 755,55 762,44 769,35 777,27 785,20 791,15 795,12 797,11 803,36 806,62 808,83 808,91 814,78 822,68 830,59 837,52 844,47 849,44 851,42 851,41 856,60 860,81 863,99 864,106 871,95 877,87 884,82 890,79 896,78 900,78 903,79 904,79 907,91 910,103 913,116 915,128 912,127 908,126 904,125 899,124 894,123 890,123 885,122 881,121 885,125 894,140 903,169 904,213 902,212 900,211 897,209 894,207 890,205 883,201 875,196 864,189 866,195 869,212 872,239 871,277 871,276 868,275 860,272 845,268 850,330 845,396 832,463 813,528 790,588 767,639 746,677 729,700"/>
<polygon class="pen1 brush0" points="747,318 755,306 763,297 773,291 782,289 793,290 803,295 813,304 823,317 821,318 819,320 818,322 817,324 801,308 785,303 772,307 761,319 753,337 748,361 748,388 753,419 759,469 759,530 755,587 747,623 745,624 743,624 740,624 739,622 747,565 749,514 747,470 743,431 740,397 738,367 740,341 747,318 747,318"/>
<polygon class="pen1 brush0" points="712,317 704,305 695,296 686,290 676,288 666,289 656,294 647,303 637,315 638,317 640,318 641,320 642,321 659,306 674,301 688,305 699,317 707,336 711,359 711,388 706,419 700,468 700,529 704,586 712,622 714,623 717,623 721,622 722,621 714,564 712,513 713,468 717,429 721,395 722,365 720,339 712,317"/>
</g>
</svg>
