<?xml version="1.0" encoding="UTF-8" standalone="no"?>
<!DOCTYPE svg PUBLIC "-//W3C//DTD SVG 1.0//EN" "http://www.w3.org/TR/2001/REC-SVG-20010904/DTD/svg10.dtd">
<svg xmlns="http://www.w3.org/2000/svg" xmlns:xlink="http://www.w3.org/1999/xlink" fill-rule="evenodd" height="1.98in" preserveAspectRatio="none" stroke-linecap="round" viewBox="0 0 1134 1980" width="1.134in">
<style type="text/css">
.brush0 { fill: rgb(255,255,255); }
.pen0 { stroke: rgb(0,0,0); stroke-width: 1; stroke-linejoin: round; }
.brush1 { fill: none; }
.pen1 { stroke: none; }
.brush2 { fill: rgb(0,0,0); }
</style>
<g>
<polygon class="pen1 brush2" points="512,659 519,673 527,689 536,707 546,727 557,747 569,769 581,790 593,812 606,834 619,855 632,875 645,894 657,912 670,927 682,940 693,950 697,948 709,940 726,925 746,904 767,874 788,836 806,788 820,729 814,720 808,708 802,694 798,679 794,664 791,649 790,636 791,626 795,616 801,614 807,618 814,625 821,633 828,641 833,647 837,649 841,642 847,634 853,626 859,619 866,614 872,613 877,615 881,623 882,634 882,648 880,663 876,678 872,694 866,708 860,721 854,731 849,753 840,781 829,814 816,849 799,885 779,918 757,947 732,970 734,971 740,973 750,976 763,981 777,988 793,997 810,1008 827,1021 844,1036 859,1054 873,1074 885,1097 893,1123 898,1151 899,1182 895,1217 894,1215 892,1209 889,1201 884,1189 878,1176 871,1161 862,1145 853,1129 841,1113 829,1098 816,1083 801,1071 786,1061 769,1054 751,1050 732,1050 733,1056 736,1073 742,1099 750,1135 761,1179 775,1230 792,1288 813,1350 837,1417 866,1488 899,1560 936,1635 978,1710 1025,1784 1077,1857 1134,1928 1132,1926 1125,1922 1116,1916 1105,1908 1093,1901 1081,1893 1071,1887 1063,1882 1065,1885 1069,1894 1076,1906 1085,1922 1095,1938 1105,1954 1115,1969 1124,1980 1121,1977 1111,1967 1096,1950 1075,1926 1050,1894 1022,1856 990,1811 957,1758 921,1698 884,1630 847,1554 810,1471 774,1380 740,1281 707,1174 678,1059 675,1065 665,1081 652,1105 638,1135 623,1170 610,1206 600,1243 597,1277 595,1270 591,1250 588,1219 588,1180 592,1136 605,1088 627,1038 662,990 660,988 656,982 649,973 640,960 628,944 615,926 601,905 587,882 571,858 555,832 540,805 524,778 510,750 497,722 485,694 475,666 469,662 460,655 450,647 440,637 429,626 419,615 412,604 407,594 406,584 409,579 417,579 426,582 437,586 447,590 455,592 459,592 460,574 464,555 471,543 483,548 490,557 496,570 502,585 506,600 510,617 512,633 513,647 512,659 512,659"/>
<polygon class="pen1 brush2" points="336,504 343,513 350,522 357,530 364,539 372,547 380,555 389,564 399,572 403,568 409,566 415,566 422,567 429,570 437,573 444,577 452,581 453,566 455,549 461,536 470,534 469,495 467,454 462,413 452,371 442,368 432,366 423,365 414,364 407,363 400,364 393,364 388,365 386,365 381,366 375,369 368,373 362,379 359,384 357,388 357,389 350,409 344,437 339,470 336,504"/>
<polygon class="pen1 brush2" points="871,598 876,580 882,559 888,537 895,513 901,488 909,459 917,429 925,396 942,343 963,303 984,274 1006,253 1026,241 1042,234 1053,231 1057,230 962,217 943,136 877,210 872,198 867,185 861,170 855,156 847,142 839,130 829,121 817,115 806,121 797,130 789,142 781,156 775,172 770,188 766,204 763,220 751,209 739,196 727,183 716,171 706,160 699,150 694,144 692,142 682,168 676,191 674,210 674,227 656,227 639,229 625,232 612,236 601,240 594,244 589,247 587,248 591,248 602,250 619,256 639,268 662,286 686,314 709,353 730,405 741,437 751,467 760,495 770,520 778,543 786,565 794,584 801,602 807,604 812,606 817,609 821,613 825,618 829,623 833,629 837,635 840,627 844,620 848,613 853,608 857,604 862,601 867,599 871,598"/>
<polygon class="pen1 brush2" points="311,163 298,148 284,126 269,100 254,71 241,44 230,22 223,6 220,0 208,31 201,65 197,99 196,131 197,160 199,183 201,198 202,204 201,203 197,202 191,199 182,196 172,193 160,189 147,185 133,181 117,178 101,175 84,172 67,170 50,170 33,170 16,172 0,175 5,179 19,189 39,205 62,224 86,245 109,266 127,285 138,301 138,301 135,306 127,319 116,340 104,366 92,396 82,429 76,463 76,496 81,492 93,480 112,463 134,443 158,422 182,404 204,389 222,381 228,381 229,386 233,401 240,423 250,450 263,480 280,510 300,537 323,561 323,537 326,482 332,420 343,375 343,374 345,371 348,366 354,361 361,357 367,354 372,352 374,352 383,351 394,350 406,351 420,352 435,354 451,356 466,358 482,361 497,364 511,367 524,370 536,373 545,375 553,376 557,378 559,378 541,349 518,323 493,299 467,279 443,263 424,251 410,244 405,241 404,240 410,221 421,197 436,170 452,143 468,118 482,97 491,82 495,77 479,79 462,82 446,87 430,93 414,101 399,108 385,116 371,125 359,133 348,141 338,149 329,155 322,161 317,165 314,168 313,169 311,163"/>
<polygon class="pen1 brush0" points="392,312 392,310 391,308 388,305 384,303 379,300 373,297 366,294 358,291 350,288 343,286 337,285 331,284 326,284 322,284 319,285 317,287 318,289 320,291 323,294 327,296 332,299 338,302 345,305 353,308 361,310 368,312 374,314 380,315 385,315 388,315 391,314 392,312"/>
<polygon class="pen1 brush0" points="266,294 272,293 277,290 281,285 282,278 281,273 277,268 272,265 266,264 261,265 256,268 253,273 252,278 253,285 256,290 261,293 266,294"/>
<polygon class="pen1 brush0" points="263,237 267,233 270,224 271,211 270,196 268,180 265,167 261,159 257,156 254,159 252,168 251,181 252,196 254,213 256,225 260,234 263,237"/>
<polygon class="pen1 brush0" points="226,267 226,265 225,263 222,260 218,256 213,253 207,250 200,246 193,243 185,240 178,237 172,235 166,234 161,233 157,232 154,233 152,234 152,236 154,239 157,242 161,245 166,249 171,253 178,256 185,260 192,263 199,265 206,267 212,268 217,269 221,269 224,268 226,267"/>
<polygon class="pen1 brush0" points="370,192 368,191 365,192 361,193 356,195 351,199 346,203 340,207 334,213 323,225 316,235 312,243 313,248 315,249 318,248 322,247 326,245 331,241 337,237 342,233 348,227 358,215 366,205 370,197 370,192"/>
<polygon class="pen1 brush0" points="230,297 228,296 225,297 221,298 217,300 212,304 207,308 201,312 195,318 184,330 177,340 173,349 174,354 176,355 179,354 183,353 187,350 192,347 197,342 203,337 209,331 219,320 227,310 230,302 230,297"/>
<polygon class="pen1 brush0" points="286,399 289,396 292,387 293,375 293,359 291,343 288,330 284,322 280,319 276,322 274,331 273,345 273,361 276,376 279,388 283,396 286,399"/>
</g>
</svg>
