<?xml version="1.0" encoding="UTF-8" standalone="no"?>
<!DOCTYPE svg PUBLIC "-//W3C//DTD SVG 1.0//EN" "http://www.w3.org/TR/2001/REC-SVG-20010904/DTD/svg10.dtd">
<svg xmlns="http://www.w3.org/2000/svg" xmlns:xlink="http://www.w3.org/1999/xlink" fill-rule="evenodd" height="1.976in" preserveAspectRatio="none" stroke-linecap="round" viewBox="0 0 1935 1976" width="1.935in">
<style type="text/css">
.brush0 { fill: rgb(255,255,255); }
.pen0 { stroke: rgb(0,0,0); stroke-width: 1; stroke-linejoin: round; }
.brush1 { fill: none; }
.pen1 { stroke: none; }
.brush2 { fill: rgb(0,0,0); }
</style>
<g>
<polygon class="pen1 brush2" points="1044,115 1060,114 1082,113 1110,114 1141,118 1173,127 1204,141 1232,164 1256,196 1273,238 1281,292 1279,360 1264,443 1234,543 1188,660 1124,797 1039,955 1038,954 1034,951 1027,948 1019,943 1009,939 999,934 987,931 975,929 962,929 949,932 936,936 924,941 913,946 905,951 900,954 898,955 813,797 748,660 702,543 672,443 657,360 654,292 662,238 679,196 703,164 731,141 762,127 794,118 825,114 853,113 875,114 891,115 979,246 1044,115 1044,115"/>
<polygon class="pen1 brush2" points="108,475 101,481 91,489 80,500 67,512 54,527 41,544 29,563 19,583 13,600 10,618 8,637 9,657 12,677 19,698 30,720 44,743 51,752 58,761 67,771 76,780 85,790 96,799 107,809 119,819 132,828 146,838 160,848 176,858 192,868 209,878 227,889 247,899 267,909 288,919 310,930 333,940 357,951 383,961 409,972 436,982 465,993 495,1004 526,1014 558,1025 591,1036 626,1046 662,1057 699,1068 699,1066 700,1062 702,1055 705,1046 709,1037 715,1026 721,1016 729,1006 738,997 749,989 761,983 772,978 783,974 792,972 798,970 800,970 787,921 774,875 761,831 747,788 734,748 721,710 708,674 695,639 682,607 669,576 656,547 643,520 631,495 618,471 605,449 593,428 558,379 523,339 488,310 454,289 422,275 390,268 361,267 333,271 307,279 285,290 265,303 248,317 235,332 225,346 220,358 219,368 246,522 108,475 108,475"/>
<polygon class="pen1 brush2" points="1117,1020 1137,1022 1155,1028 1169,1036 1181,1048 1190,1062 1196,1078 1200,1095 1201,1114 1200,1129 1199,1146 1195,1163 1191,1181 1184,1199 1176,1217 1165,1235 1153,1252 1138,1268 1120,1283 1100,1296 1077,1308 1050,1318 1021,1325 988,1329 952,1331 922,1330 894,1326 869,1320 846,1312 825,1302 807,1290 791,1276 776,1261 764,1245 754,1228 745,1210 738,1191 732,1171 728,1151 725,1130 723,1110 722,1091 725,1074 732,1057 741,1043 754,1031 769,1021 786,1015 804,1013 816,1014 827,1016 837,1020 847,1024 855,1030 863,1037 871,1045 877,1054 879,1039 884,1024 892,1011 902,999 914,990 928,982 943,978 959,976 975,978 990,983 1004,990 1016,1000 1026,1013 1034,1027 1038,1043 1040,1060 1040,1063 1040,1067 1040,1071 1039,1074 1040,1074 1040,1074 1040,1074 1040,1074 1045,1063 1051,1052 1059,1043 1069,1035 1079,1029 1091,1024 1104,1021 1117,1020 1117,1020"/>
<polygon class="pen1 brush2" points="1824,486 1688,533 1715,378 1714,368 1709,356 1699,342 1686,328 1670,314 1650,301 1627,290 1602,282 1575,278 1546,278 1515,284 1483,297 1450,317 1416,345 1381,382 1347,429 1334,450 1321,472 1308,496 1295,521 1282,549 1268,578 1255,609 1242,642 1228,677 1215,714 1201,753 1188,794 1174,837 1161,883 1147,930 1134,980 1136,980 1142,982 1151,985 1162,988 1173,993 1185,999 1196,1007 1205,1016 1213,1027 1219,1037 1225,1048 1229,1058 1232,1067 1234,1074 1235,1078 1235,1080 1303,1060 1366,1040 1425,1020 1480,1000 1531,981 1578,961 1622,942 1662,922 1699,903 1732,885 1763,866 1790,848 1814,830 1836,812 1855,794 1871,777 1890,752 1905,728 1916,705 1923,683 1926,661 1926,641 1923,621 1918,602 1909,580 1897,560 1884,542 1870,526 1856,513 1843,501 1832,493 1824,486 1824,486"/>
<polygon class="pen1 brush2" points="922,1354 935,1356 945,1357 951,1357 957,1356 963,1356 972,1355 984,1354 1002,1354 1006,1360 1009,1370 1011,1385 1015,1405 1019,1428 1026,1454 1036,1483 1050,1515 1068,1549 1091,1584 1120,1622 1156,1660 1200,1699 1252,1738 1313,1777 1384,1815 1415,1976 1410,1974 1396,1970 1375,1962 1346,1950 1313,1934 1275,1914 1234,1889 1191,1860 1147,1825 1104,1786 1063,1740 1024,1689 990,1632 960,1568 937,1498 922,1421 920,1392 920,1371 921,1358 922,1354 922,1354"/>
<polygon class="pen1 brush2" points="540,256 551,255 561,252 570,247 578,241 585,233 590,224 593,213 594,202 593,191 590,181 585,172 578,164 570,157 561,152 551,149 540,148 529,149 519,152 510,157 502,164 495,172 490,181 487,191 486,202 487,213 490,224 495,233 502,241 510,247 519,252 529,255 540,256 540,256"/>
<polygon class="pen1 brush2" points="1390,263 1401,262 1411,259 1420,254 1428,247 1435,239 1440,230 1443,220 1444,209 1443,198 1440,188 1435,179 1428,171 1420,164 1411,159 1401,156 1390,155 1379,156 1369,159 1360,164 1352,171 1345,179 1340,188 1337,198 1336,209 1337,220 1340,230 1345,239 1352,247 1360,254 1369,259 1379,262 1390,263 1390,263"/>
<polygon class="pen1 brush2" points="965,108 976,107 986,104 995,99 1003,92 1010,84 1015,75 1018,65 1019,54 1018,43 1015,33 1010,24 1003,16 995,9 986,4 976,1 965,0 954,1 944,4 935,9 927,16 920,24 915,33 912,43 911,54 912,65 915,75 920,84 927,92 935,99 944,104 954,107 965,108"/>
</g>
</svg>
