<?xml version="1.0" encoding="UTF-8" standalone="no"?>
<!DOCTYPE svg PUBLIC "-//W3C//DTD SVG 1.0//EN" "http://www.w3.org/TR/2001/REC-SVG-20010904/DTD/svg10.dtd">
<svg xmlns="http://www.w3.org/2000/svg" xmlns:xlink="http://www.w3.org/1999/xlink" fill-rule="evenodd" height="1.981in" preserveAspectRatio="none" stroke-linecap="round" viewBox="0 0 1711 1981" width="1.711in">
<style type="text/css">
.brush0 { fill: rgb(255,255,255); }
.pen0 { stroke: rgb(0,0,0); stroke-width: 1; stroke-linejoin: round; }
.brush1 { fill: none; }
.pen1 { stroke: none; }
.brush2 { fill: rgb(0,0,0); }
</style>
<g>
<polygon class="pen1 brush2" points="977,1415 1193,1449 997,1473 977,1415 977,1415"/>
<polygon class="pen1 brush2" points="280,1605 288,1743 244,1594 248,1595 253,1597 257,1598 262,1599 266,1601 271,1602 275,1604 280,1605 280,1605"/>
<polygon class="pen1 brush2" points="375,1605 396,1765 334,1608 339,1608 344,1608 349,1608 355,1608 360,1607 365,1607 370,1606 375,1605 375,1605"/>
<polygon class="pen1 brush2" points="494,1558 541,1760 446,1584 452,1582 459,1579 465,1576 471,1572 477,1569 483,1565 488,1562 494,1558 494,1558"/>
<polygon class="pen1 brush2" points="595,1466 673,1711 551,1517 553,1515 555,1512 557,1509 559,1507 564,1502 569,1497 573,1492 578,1487 583,1482 587,1476 591,1471 595,1466 595,1466"/>
<polygon class="pen1 brush2" points="883,1514 919,1605 854,1510 777,1500 841,1493 667,1247 784,1668 622,1426 636,1400 647,1374 656,1347 662,1321 665,1295 666,1269 664,1243 659,1219 659,1219 671,1212 684,1204 696,1197 708,1189 721,1182 733,1174 745,1167 758,1159 770,1152 783,1144 795,1137 807,1130 820,1123 832,1115 844,1108 856,1101 860,1106 863,1111 867,1116 871,1121 908,1223 1221,1205 1111,1176 1129,1170 1148,1162 1166,1153 1184,1143 1202,1132 1220,1119 1237,1106 1254,1091 1166,1885 990,1946 1173,1826 908,1863 1179,1757 842,1775 1190,1666 787,1642 1196,1557 883,1514 873,1489 994,1473 994,1473 940,1409 838,1392 829,1372 900,1361 953,1351 1202,1311 920,1260 920,1260 953,1351 900,1361 757,1182 829,1372 829,1372 838,1392 873,1489 883,1514"/>
<polygon class="pen1 brush2" points="179,1701 163,1531 166,1536 170,1540 175,1545 179,1550 183,1555 188,1559 194,1564 200,1568 179,1701 179,1701"/>
<polygon class="pen1 brush2" points="619,3 542,175 991,697 1003,689 1015,682 1028,676 1040,670 1053,665 1066,660 1079,656 1092,653 1105,650 1117,647 1130,645 1143,644 1156,644 1168,644 1181,644 1193,645 1329,472 1000,679 1290,330 936,591 1179,227 842,490 1088,152 761,419 979,61 686,341 845,10 626,270 734,0 581,219 619,3 619,3"/>
<polygon class="pen1 brush2" points="413,1071 317,892 507,1071 496,1069 484,1068 473,1067 461,1066 449,1067 437,1068 425,1069 413,1071 413,1071"/>
<polygon class="pen1 brush2" points="305,1108 310,1105 315,1103 320,1100 325,1098 330,1096 335,1094 340,1091 345,1089 226,969 305,1108 305,1108"/>
<polygon class="pen1 brush2" points="206,1190 119,1061 234,1162 232,1163 230,1165 229,1167 227,1169 221,1174 216,1179 211,1185 206,1190 206,1190"/>
<polygon class="pen1 brush2" points="142,1298 145,1290 148,1281 152,1273 156,1264 45,1186 142,1298 142,1298"/>
<polygon class="pen1 brush2" points="122,1395 15,1291 125,1358 123,1368 122,1377 122,1386 122,1395 122,1395"/>
<polygon class="pen1 brush2" points="145,1503 0,1408 126,1452 130,1465 134,1478 139,1491 145,1503 145,1503"/>
<polygon class="pen1 brush2" points="973,703 669,882 738,959 873,804 863,820 855,836 847,852 840,868 834,885 829,902 825,918 822,935 753,974 848,1088 652,1206 648,1191 642,1177 636,1164 628,1151 619,1139 610,1128 600,1117 589,1108 432,795 727,1139 629,905 567,943 622,888 578,780 649,859 876,634 483,818 794,524 420,716 737,433 349,595 669,347 321,453 609,277 325,342 565,224 348,227 527,179 973,703 973,703"/>
<polygon class="pen1 brush2" points="1338,1981 1187,1824 1437,1919 1196,1757 1521,1848 1206,1666 1605,1730 1223,1557 1646,1595 1250,1453 1679,1480 1274,1318 1711,1334 1277,1207 1666,1195 1278,1072 1276,1074 1275,1076 1273,1079 1271,1081 1180,1883 1338,1981 1338,1981"/>
<polygon class="pen1 brush2" points="196,1533 213,1548 231,1560 250,1570 271,1578 292,1583 315,1586 338,1587 362,1585 386,1582 410,1576 434,1567 458,1557 481,1544 504,1529 526,1512 547,1493 584,1450 612,1405 631,1357 642,1310 643,1263 635,1218 618,1178 591,1142 574,1127 556,1115 537,1105 516,1097 494,1092 472,1089 448,1088 425,1090 400,1093 376,1099 352,1108 329,1118 305,1131 283,1146 261,1163 240,1182 203,1225 175,1271 156,1318 146,1366 144,1413 152,1457 169,1498 196,1533 196,1533"/>
<polygon class="pen1 brush2" points="895,1112 868,1077 851,1037 844,993 845,946 855,898 875,851 903,806 939,763 960,744 982,727 1005,712 1028,699 1052,689 1076,680 1100,674 1124,671 1148,669 1171,670 1193,673 1215,678 1236,686 1255,696 1273,708 1290,723 1317,758 1334,798 1342,843 1341,890 1330,937 1311,985 1283,1030 1246,1072 1225,1091 1203,1108 1180,1123 1157,1136 1133,1146 1109,1155 1085,1161 1061,1164 1038,1166 1014,1165 992,1162 970,1157 950,1149 930,1139 912,1127 895,1112"/>
</g>
</svg>
