<?xml version="1.0" encoding="UTF-8" standalone="no"?>
<!DOCTYPE svg PUBLIC "-//W3C//DTD SVG 1.0//EN" "http://www.w3.org/TR/2001/REC-SVG-20010904/DTD/svg10.dtd">
<svg xmlns="http://www.w3.org/2000/svg" xmlns:xlink="http://www.w3.org/1999/xlink" fill-rule="evenodd" height="1.192in" preserveAspectRatio="none" stroke-linecap="round" viewBox="0 0 2010 1192" width="2.01in">
<style type="text/css">
.brush0 { fill: rgb(255,255,255); }
.pen0 { stroke: rgb(0,0,0); stroke-width: 1; stroke-linejoin: round; }
.brush1 { fill: none; }
.pen1 { stroke: none; }
.brush2 { fill: rgb(0,0,0); }
</style>
<g>
<polygon class="pen1 brush2" points="936,1178 922,1179 904,1179 881,1179 855,1177 826,1174 794,1167 760,1159 725,1146 690,1130 654,1110 620,1084 586,1053 554,1017 525,974 499,924 477,867 503,893 531,919 559,944 588,967 618,990 648,1012 678,1033 708,1053 739,1072 769,1090 799,1108 828,1124 856,1139 884,1153 911,1166 936,1178 936,1178"/>
<polygon class="pen1 brush2" points="483,850 510,876 537,902 566,927 596,951 626,974 656,996 687,1017 718,1037 748,1056 779,1075 809,1092 838,1109 867,1124 894,1139 921,1152 946,1165 945,1164 940,1159 931,1150 916,1135 896,1114 871,1083 840,1043 804,992 777,955 749,924 722,898 695,878 668,862 642,851 617,843 594,838 572,835 552,835 534,837 518,839 505,842 495,846 487,848 483,850 483,850"/>
<polygon class="pen1 brush2" points="2008,240 2004,247 1999,256 1992,266 1984,279 1974,293 1964,308 1951,325 1938,342 1923,360 1907,379 1889,398 1870,417 1850,436 1829,454 1806,473 1782,490 1757,507 1731,523 1703,537 1674,551 1644,562 1613,572 1581,579 1548,585 1513,588 1477,588 1440,585 1403,580 1364,571 1323,559 1282,544 1240,524 1242,524 1246,522 1254,520 1264,518 1277,514 1293,510 1311,505 1330,500 1352,494 1376,487 1401,480 1427,472 1455,464 1484,455 1514,446 1545,436 1576,426 1608,416 1640,405 1672,394 1704,382 1736,370 1768,358 1799,346 1829,333 1859,320 1887,307 1914,294 1940,281 1965,267 1987,254 2008,240 2008,240"/>
<polygon class="pen1 brush2" points="1244,503 1249,502 1257,500 1268,497 1280,494 1294,490 1311,486 1329,481 1349,475 1371,469 1394,463 1418,455 1443,448 1470,440 1497,432 1525,423 1554,414 1583,404 1613,394 1642,384 1672,374 1702,363 1732,352 1761,341 1790,329 1819,318 1846,306 1873,294 1899,282 1924,270 1948,258 1970,245 1991,233 1986,235 1980,237 1973,239 1964,241 1954,243 1942,246 1928,248 1912,250 1894,253 1874,255 1851,258 1826,260 1798,263 1767,265 1733,268 1696,270 1642,275 1592,283 1546,295 1503,309 1464,325 1429,342 1396,361 1367,380 1341,400 1319,419 1299,437 1283,455 1269,470 1258,484 1250,495 1244,503 1244,503"/>
<polygon class="pen1 brush2" points="2007,237 2007,236 2009,236 2010,236 2010,235 2010,236 2009,236 2007,236 2007,237 2007,237"/>
<polygon class="pen1 brush2" points="1189,553 1206,547 1218,542 1224,539 1227,537 1224,536 1216,537 1203,540 1186,544 1129,560 1073,576 1017,593 961,611 906,629 852,647 798,666 746,685 694,705 643,724 594,744 545,763 499,783 453,802 410,821 368,839 327,857 289,875 253,892 218,908 186,924 157,938 130,952 105,965 83,977 64,987 47,997 34,1005 23,1011 16,1016 12,1020 11,1022 17,1085 18,1084 21,1082 27,1078 34,1073 43,1067 55,1059 68,1050 84,1040 102,1029 122,1016 145,1003 169,988 196,973 226,956 257,939 291,921 328,902 367,882 408,862 452,841 499,819 548,797 600,774 654,751 712,727 771,703 834,679 899,654 967,629 1038,604 1112,579 1189,553 1189,553"/>
<polygon class="pen1 brush2" points="541,301 547,311 555,325 563,343 572,364 581,389 589,416 595,446 599,478 600,512 598,547 592,585 581,623 565,661 543,701 515,740 479,780 498,718 514,655 525,591 533,527 538,466 541,407 542,351 541,301 541,301"/>
<polygon class="pen1 brush2" points="463,781 455,774 441,758 425,734 410,701 402,659 402,607 416,547 447,478 473,429 492,389 506,358 515,334 520,317 523,306 525,301 525,300 526,350 525,405 522,464 517,526 509,590 498,655 482,719 463,781 463,781"/>
<polygon class="pen1 brush2" points="841,151 847,162 855,177 864,196 874,219 883,245 891,273 897,305 902,339 903,375 901,413 894,452 883,493 866,534 843,576 813,619 775,661 796,595 812,527 824,459 833,391 838,326 841,263 842,205 841,151 841,151"/>
<polygon class="pen1 brush2" points="758,662 750,655 735,638 718,611 702,576 693,530 693,475 708,411 741,337 769,285 789,243 804,210 813,185 819,167 822,155 824,149 825,148 825,202 824,261 821,324 816,390 807,458 795,527 779,595 758,662 758,662"/>
<polygon class="pen1 brush2" points="1227,996 1203,986 1178,974 1152,962 1126,949 1098,936 1070,921 1041,906 1012,889 983,872 954,854 925,836 896,816 868,796 841,774 814,752 788,729 812,781 838,825 867,863 898,896 931,923 964,945 998,962 1031,975 1064,985 1095,992 1125,996 1152,999 1176,999 1197,999 1214,997 1227,996 1227,996"/>
<polygon class="pen1 brush2" points="794,712 820,736 847,758 874,780 903,801 931,821 960,840 990,858 1019,875 1048,891 1077,907 1106,921 1134,935 1161,947 1187,959 1212,970 1236,980 1235,979 1231,976 1222,968 1208,956 1188,937 1164,910 1134,874 1098,828 1071,795 1044,768 1017,746 991,729 965,716 941,706 918,700 896,696 875,695 857,696 840,698 826,701 814,704 804,707 798,710 794,712 794,712"/>
<polygon class="pen1 brush2" points="1169,6 1170,64 1169,127 1165,195 1159,266 1150,339 1137,413 1120,486 1098,557 1139,511 1171,466 1196,420 1215,375 1227,332 1234,289 1237,248 1235,209 1231,172 1223,138 1215,107 1205,79 1195,55 1185,34 1176,18 1169,6 1169,6"/>
<polygon class="pen1 brush2" points="1078,558 1069,550 1054,532 1035,504 1019,465 1009,416 1010,357 1025,288 1061,208 1091,152 1113,106 1129,70 1139,43 1145,23 1148,11 1150,4 1150,3 1151,61 1150,125 1147,193 1141,265 1132,338 1119,413 1101,486 1078,558 1078,558"/>
<polygon class="pen1 brush2" points="1552,838 1529,830 1505,821 1480,811 1454,801 1427,790 1399,777 1372,764 1343,751 1315,736 1287,721 1259,705 1231,688 1203,670 1176,651 1150,631 1125,611 1150,658 1177,699 1207,733 1238,762 1270,786 1302,804 1335,819 1367,829 1398,837 1428,842 1456,844 1482,844 1505,844 1525,842 1541,840 1552,838 1552,838"/>
<polygon class="pen1 brush2" points="1129,595 1155,616 1181,636 1208,655 1236,673 1264,690 1293,706 1321,722 1350,736 1378,750 1406,763 1434,775 1461,787 1487,797 1513,807 1537,816 1560,824 1560,823 1555,820 1546,814 1532,803 1513,786 1488,762 1458,730 1422,689 1394,659 1367,635 1341,616 1315,601 1291,590 1267,582 1245,578 1225,576 1205,576 1188,577 1172,580 1159,584 1148,587 1139,591 1133,593 1129,595"/>
</g>
</svg>
