<?xml version="1.0" encoding="UTF-8" standalone="no"?>
<!DOCTYPE svg PUBLIC "-//W3C//DTD SVG 1.0//EN" "http://www.w3.org/TR/2001/REC-SVG-20010904/DTD/svg10.dtd">
<svg xmlns="http://www.w3.org/2000/svg" xmlns:xlink="http://www.w3.org/1999/xlink" fill-rule="evenodd" height="1.981in" preserveAspectRatio="none" stroke-linecap="round" viewBox="0 0 1495 1981" width="1.495in">
<style type="text/css">
.brush0 { fill: rgb(255,255,255); }
.pen0 { stroke: rgb(0,0,0); stroke-width: 1; stroke-linejoin: round; }
.brush1 { fill: none; }
.pen1 { stroke: none; }
.brush2 { fill: rgb(0,0,0); }
</style>
<g>
<polygon class="pen1 brush2" points="424,1081 422,1079 416,1075 406,1067 394,1055 379,1041 362,1023 344,1001 325,976 305,948 285,916 265,881 246,842 229,799 214,753 200,703 190,649 182,586 178,520 180,449 187,375 193,333 201,290 211,245 223,199 237,153 253,104 271,54 292,3 307,40 324,86 343,140 362,202 381,270 400,343 418,419 434,498 447,579 458,659 465,739 468,816 466,890 458,960 444,1024 424,1081 424,1081"/>
<polygon class="pen1 brush2" points="316,0 327,29 341,65 357,109 374,160 392,216 409,278 427,345 443,416 458,490 471,567 481,646 488,727 490,809 489,891 482,973 470,1054 518,997 558,934 589,867 613,796 628,723 636,647 636,571 629,495 614,421 592,348 563,277 527,211 484,149 435,93 379,43 316,0 316,0"/>
<polygon class="pen1 brush2" points="623,1362 623,1359 625,1352 628,1339 632,1323 638,1303 645,1279 655,1253 667,1224 686,1210 704,1195 722,1179 740,1163 757,1146 774,1128 791,1109 808,1090 824,1070 839,1051 855,1030 870,1010 885,989 899,968 913,947 927,926 951,910 976,895 1003,880 1030,865 1059,851 1089,837 1120,824 1153,811 1187,799 1223,788 1260,778 1299,768 1339,760 1380,752 1423,746 1468,740 1456,754 1443,769 1428,786 1411,804 1394,823 1375,844 1355,865 1333,887 1311,909 1287,932 1263,956 1237,980 1211,1004 1184,1029 1156,1053 1128,1077 1098,1101 1069,1125 1038,1148 1008,1171 976,1193 945,1215 913,1235 881,1255 849,1273 816,1290 784,1306 751,1321 719,1334 687,1345 655,1354 623,1362 623,1362"/>
<polygon class="pen1 brush2" points="1491,746 1491,751 1491,766 1489,790 1486,821 1480,858 1471,900 1457,947 1439,996 1433,1011 1425,1027 1418,1042 1410,1057 1401,1073 1391,1088 1381,1104 1370,1119 1359,1134 1347,1150 1334,1165 1320,1180 1306,1194 1291,1209 1275,1223 1258,1237 1242,1249 1226,1260 1209,1272 1192,1283 1173,1294 1154,1304 1134,1314 1113,1323 1091,1332 1069,1341 1046,1349 1022,1357 997,1364 971,1371 944,1377 917,1382 887,1387 861,1391 836,1394 815,1397 795,1398 777,1399 760,1398 745,1398 731,1396 718,1395 706,1392 693,1390 681,1387 669,1383 656,1380 642,1376 662,1374 685,1369 709,1361 735,1351 762,1339 791,1325 822,1309 853,1292 885,1272 918,1252 952,1230 986,1207 1020,1183 1055,1158 1089,1133 1123,1107 1156,1080 1189,1054 1221,1027 1252,1001 1282,975 1311,949 1339,924 1364,899 1388,875 1410,853 1430,831 1447,811 1462,792 1475,775 1484,759 1491,746 1491,746"/>
<polygon class="pen1 brush2" points="951,1951 1001,1916 1035,1981 1051,1912 1123,1941 1078,1873 1133,1826 1108,1826 1085,1822 1064,1815 1045,1806 1029,1795 1014,1782 1001,1768 990,1754 981,1740 973,1726 967,1712 962,1701 958,1691 956,1683 954,1678 954,1676 997,1678 1035,1683 1070,1692 1100,1702 1126,1715 1149,1729 1168,1745 1184,1760 1198,1776 1209,1792 1217,1806 1223,1819 1228,1829 1231,1838 1233,1843 1233,1845 1248,1785 1316,1816 1285,1752 1360,1730 1282,1704 1298,1634 1284,1653 1268,1667 1251,1677 1235,1684 1220,1687 1207,1689 1199,1689 1196,1689 1177,1677 1157,1665 1136,1655 1114,1646 1091,1637 1068,1629 1046,1623 1024,1616 1004,1611 985,1607 967,1603 952,1600 940,1598 931,1596 925,1595 923,1595 888,1557 854,1524 820,1497 787,1474 755,1456 724,1442 695,1431 668,1423 643,1418 620,1415 601,1413 584,1413 570,1414 560,1415 554,1416 552,1416 559,1403 566,1394 572,1387 578,1383 582,1380 586,1379 588,1378 589,1378 565,1355 547,1365 531,1374 517,1382 506,1388 496,1392 490,1395 485,1397 484,1398 490,1378 501,1356 515,1333 531,1310 550,1288 569,1268 589,1250 608,1237 662,1199 713,1153 762,1102 809,1046 853,986 894,925 933,864 968,803 999,744 1027,689 1051,639 1072,594 1088,558 1099,530 1107,512 1109,506 1089,520 1070,536 1052,552 1036,569 1019,588 1002,608 985,629 967,652 947,676 926,703 903,731 878,761 849,793 818,827 783,863 744,902 727,920 709,940 690,963 670,987 650,1013 631,1039 611,1065 593,1091 576,1116 559,1140 545,1161 533,1180 522,1195 515,1207 510,1214 508,1217 521,1037 458,1105 447,1274 427,1292 403,1316 376,1345 346,1378 314,1414 281,1451 248,1489 215,1528 183,1565 154,1601 126,1634 102,1663 82,1687 67,1705 57,1717 54,1721 52,1723 47,1728 41,1735 38,1742 38,1748 45,1752 60,1751 86,1745 116,1736 141,1728 162,1721 178,1714 190,1709 198,1704 202,1702 204,1701 243,1641 282,1592 321,1553 360,1524 398,1504 436,1491 473,1484 509,1484 544,1488 577,1497 609,1508 639,1521 667,1536 693,1551 716,1565 737,1578 757,1591 776,1605 796,1622 815,1640 833,1659 851,1678 868,1698 885,1718 900,1737 915,1756 928,1774 940,1789 951,1804 960,1815 967,1825 973,1831 981,1841 987,1851 991,1863 991,1877 987,1893 978,1911 964,1932 944,1956 951,1951"/>
</g>
</svg>
