<?xml version="1.0" encoding="UTF-8" standalone="no"?>
<!DOCTYPE svg PUBLIC "-//W3C//DTD SVG 1.0//EN" "http://www.w3.org/TR/2001/REC-SVG-20010904/DTD/svg10.dtd">
<svg xmlns="http://www.w3.org/2000/svg" xmlns:xlink="http://www.w3.org/1999/xlink" fill-rule="evenodd" height="0.816in" preserveAspectRatio="none" stroke-linecap="round" viewBox="0 0 635 816" width="0.635in">
<style type="text/css">
.brush0 { fill: rgb(255,255,255); }
.pen0 { stroke: rgb(0,0,0); stroke-width: 1; stroke-linejoin: round; }
.brush1 { fill: none; }
.pen1 { stroke: none; }
.brush2 { fill: rgb(0,0,0); }
</style>
<g>
<polygon class="pen1 brush2" points="252,346 254,355 259,379 268,413 279,455 291,499 305,541 320,578 334,605 349,626 367,648 386,669 406,689 425,707 443,722 458,734 470,740 483,746 503,756 527,768 551,782 575,795 595,806 609,813 614,816 635,761 631,760 620,757 603,752 582,744 558,735 532,723 507,709 483,693 460,674 438,654 417,633 399,613 382,595 370,580 362,571 359,567 252,346"/>
<polygon class="pen1 brush2" points="501,639 503,635 508,623 514,606 520,584 525,562 528,539 526,517 519,500 509,486 498,473 487,462 476,453 467,446 460,441 455,438 453,437 456,417 462,370 463,316 453,275 440,261 420,248 397,237 372,227 349,218 329,212 315,208 310,207 209,159 204,154 191,140 173,120 154,96 134,70 119,43 110,19 110,0 105,8 93,30 75,61 56,100 36,142 19,184 7,223 4,255 9,283 20,310 35,336 52,360 68,380 82,396 92,406 96,410 99,430 106,478 114,530 119,567 124,580 137,596 154,614 174,632 195,649 216,663 235,673 250,677 263,681 277,692 290,707 303,723 314,740 323,754 329,764 331,768 332,769 336,770 342,772 349,774 358,775 367,776 377,775 387,772 386,733 384,734 379,736 372,738 363,738 353,737 341,733 330,725 319,711 309,694 298,678 288,663 279,649 271,638 265,629 260,623 259,621 255,620 245,617 230,612 213,606 196,599 180,592 168,585 161,579 159,567 157,543 156,512 155,477 152,442 148,409 142,383 132,367 120,354 106,337 92,318 78,298 65,279 54,262 47,248 44,241 46,232 52,216 60,194 70,171 80,148 89,128 96,114 98,109 100,111 104,115 112,122 121,131 133,141 146,153 160,165 175,178 190,191 205,203 219,215 233,225 246,234 256,241 265,245 272,247 285,249 301,254 320,261 339,270 356,281 371,292 382,304 387,315 390,346 393,385 395,419 396,433 398,436 405,443 414,454 425,468 436,484 446,500 454,517 458,532 461,548 466,566 471,584 476,601 481,617 486,630 489,638 490,641 501,639"/>
</g>
</svg>
