<?xml version="1.0" encoding="UTF-8" standalone="no"?>
<!DOCTYPE svg PUBLIC "-//W3C//DTD SVG 1.0//EN" "http://www.w3.org/TR/2001/REC-SVG-20010904/DTD/svg10.dtd">
<svg xmlns="http://www.w3.org/2000/svg" xmlns:xlink="http://www.w3.org/1999/xlink" fill-rule="evenodd" height="1.981in" preserveAspectRatio="none" stroke-linecap="round" viewBox="0 0 1387 1981" width="1.387in">
<style type="text/css">
.brush0 { fill: rgb(255,255,255); }
.pen0 { stroke: rgb(0,0,0); stroke-width: 1; stroke-linejoin: round; }
.brush1 { fill: none; }
.pen1 { stroke: none; }
.brush2 { fill: rgb(0,0,0); }
</style>
<g>
<polygon class="pen1 brush2" points="1195,1430 1191,1431 1186,1432 1182,1433 1179,1434 1173,1435 1167,1436 1161,1435 1155,1434 1149,1433 1144,1434 1139,1435 1135,1438 1133,1442 1133,1445 1133,1449 1131,1453 1126,1461 1119,1468 1111,1473 1102,1477 1099,1477 1094,1476 1087,1475 1080,1473 1074,1472 1068,1472 1063,1473 1061,1475 1061,1481 1061,1487 1061,1492 1058,1497 1055,1501 1051,1503 1047,1505 1043,1506 1038,1508 1033,1510 1029,1512 1024,1515 1018,1517 1011,1514 1003,1508 996,1502 993,1501 989,1499 986,1497 983,1494 982,1487 982,1479 981,1472 976,1467 969,1466 962,1468 956,1472 950,1477 944,1482 939,1485 934,1486 929,1484 926,1477 924,1469 924,1461 922,1454 918,1448 911,1443 903,1440 895,1436 880,1437 864,1440 848,1444 832,1449 817,1455 801,1463 785,1471 769,1481 753,1511 743,1571 738,1649 737,1735 739,1820 742,1895 744,1947 745,1969 738,1972 730,1975 721,1977 713,1978 704,1979 696,1980 687,1980 679,1979 668,1979 657,1978 647,1976 638,1975 631,1974 626,1972 622,1971 621,1971 628,1894 632,1752 633,1610 627,1531 619,1521 604,1509 585,1496 563,1484 541,1473 522,1465 508,1462 502,1463 497,1469 491,1474 484,1479 476,1484 470,1489 464,1496 462,1504 462,1514 458,1516 454,1517 450,1519 446,1520 442,1520 438,1520 433,1520 429,1518 413,1513 402,1513 395,1517 391,1523 388,1529 384,1534 378,1536 370,1534 368,1531 365,1528 363,1525 360,1522 356,1521 351,1521 346,1523 341,1525 336,1526 331,1526 328,1524 325,1519 324,1508 322,1497 317,1488 308,1481 304,1479 299,1479 295,1479 290,1479 286,1480 281,1480 277,1480 273,1478 271,1476 270,1472 269,1467 267,1463 264,1458 259,1457 253,1457 247,1460 241,1463 235,1467 230,1471 226,1474 220,1476 213,1476 205,1477 199,1480 195,1489 193,1500 191,1510 185,1518 180,1521 173,1520 166,1518 158,1517 151,1513 145,1507 141,1499 138,1491 135,1483 132,1476 127,1472 121,1471 116,1472 111,1474 106,1475 101,1478 93,1477 86,1467 81,1454 78,1444 78,1441 79,1437 80,1433 81,1430 546,1430 556,1436 566,1442 576,1448 584,1453 591,1458 597,1461 601,1463 602,1464 600,1458 597,1450 592,1440 587,1430 620,1430 626,1439 632,1448 638,1455 643,1462 648,1467 652,1471 654,1473 655,1474 655,1467 655,1457 655,1444 656,1430 759,1430 760,1435 760,1438 760,1440 760,1441 764,1438 769,1435 774,1432 780,1430 1195,1430"/>
<polygon class="pen1 brush2" points="1333,1224 1334,1227 1334,1230 1334,1234 1334,1237 1330,1241 1322,1243 1315,1245 1310,1250 1307,1255 1302,1263 1299,1271 1297,1278 1299,1290 1303,1301 1306,1311 1304,1322 1301,1325 1296,1327 1291,1329 1286,1330 1280,1331 1275,1334 1270,1337 1267,1342 1267,1347 1269,1360 1270,1373 1270,1382 1268,1383 1265,1384 1259,1386 1253,1387 1246,1388 1239,1389 1232,1389 1227,1389 1227,1397 1226,1403 1223,1409 1219,1415 1213,1419 1208,1424 1201,1427 1195,1430 780,1430 792,1425 805,1420 819,1416 834,1412 849,1409 863,1407 876,1404 888,1403 880,1400 872,1400 865,1400 860,1396 854,1383 849,1371 843,1359 835,1349 830,1348 823,1350 815,1356 811,1363 811,1373 815,1384 817,1394 813,1402 806,1404 799,1401 792,1398 786,1399 780,1402 774,1405 766,1407 759,1409 759,1415 759,1420 759,1425 759,1430 656,1430 656,1413 656,1395 656,1379 656,1365 649,1362 644,1363 639,1367 635,1372 631,1378 628,1385 624,1390 620,1394 616,1396 611,1397 607,1398 604,1397 607,1405 611,1413 616,1422 620,1430 587,1430 582,1418 577,1407 572,1398 567,1390 562,1395 557,1399 551,1402 545,1405 539,1407 532,1409 525,1410 517,1410 523,1415 530,1420 538,1425 546,1430 81,1430 84,1423 87,1417 89,1410 90,1403 86,1402 85,1400 84,1397 81,1393 77,1391 73,1390 69,1389 64,1389 60,1388 56,1387 52,1385 48,1382 42,1373 37,1362 32,1349 29,1337 28,1324 31,1313 37,1303 47,1296 51,1297 56,1300 62,1304 67,1308 72,1311 77,1311 82,1309 88,1306 94,1304 100,1302 106,1302 112,1304 116,1307 120,1311 123,1315 128,1318 134,1316 140,1309 146,1303 151,1298 160,1295 171,1294 181,1296 192,1299 203,1303 214,1305 225,1306 235,1305 242,1298 241,1288 235,1275 224,1263 210,1254 194,1249 179,1252 165,1264 163,1265 160,1264 157,1262 155,1260 152,1249 148,1239 142,1230 135,1224 699,1224 702,1234 708,1243 715,1252 723,1260 725,1251 726,1242 728,1233 730,1224 787,1224 788,1227 789,1229 791,1232 793,1234 797,1234 802,1232 808,1229 814,1224 848,1224 841,1232 834,1240 827,1249 820,1257 813,1266 807,1273 801,1281 797,1287 802,1293 807,1297 813,1299 821,1298 831,1294 841,1289 851,1283 861,1278 871,1274 881,1271 892,1270 902,1271 905,1274 907,1280 910,1287 915,1292 918,1293 921,1294 925,1294 929,1293 933,1292 937,1291 941,1289 945,1288 948,1287 950,1288 953,1289 955,1291 958,1293 961,1295 964,1299 968,1302 972,1302 976,1300 980,1297 983,1296 994,1296 1004,1296 1015,1294 1025,1292 1034,1288 1043,1283 1051,1276 1058,1268 1057,1267 1056,1266 1055,1265 1054,1264 1047,1262 1040,1260 1033,1258 1027,1256 1020,1254 1013,1253 1006,1252 999,1251 995,1250 992,1249 990,1247 989,1244 987,1239 985,1234 983,1229 982,1224 1333,1224"/>
<polygon class="pen1 brush2" points="1223,988 1218,992 1214,996 1210,1002 1206,1008 1203,1009 1198,1008 1192,1006 1185,1004 1177,1002 1169,1002 1162,1005 1155,1012 1153,1016 1153,1019 1153,1023 1154,1027 1157,1034 1161,1039 1166,1042 1172,1044 1179,1045 1186,1046 1192,1047 1199,1048 1208,1053 1213,1060 1215,1069 1212,1079 1209,1084 1204,1089 1199,1096 1196,1103 1199,1104 1200,1106 1201,1108 1203,1109 1210,1110 1217,1110 1225,1110 1231,1111 1238,1111 1244,1113 1249,1117 1253,1122 1252,1127 1249,1133 1247,1142 1250,1150 1250,1150 1253,1155 1257,1159 1261,1162 1267,1163 1272,1164 1278,1165 1283,1166 1289,1167 1297,1174 1297,1183 1296,1193 1300,1201 1306,1204 1313,1207 1319,1209 1325,1214 1327,1216 1329,1219 1331,1222 1333,1224 982,1224 981,1224 980,1222 979,1221 979,1221 975,1217 970,1215 964,1214 958,1215 955,1217 952,1219 950,1222 948,1224 925,1224 919,1219 913,1214 906,1210 898,1207 891,1206 883,1204 876,1202 870,1198 865,1204 859,1210 854,1217 848,1224 814,1224 819,1220 824,1215 829,1210 834,1205 838,1200 843,1194 847,1189 851,1184 849,1181 847,1178 845,1174 844,1170 842,1167 839,1164 836,1162 832,1160 827,1160 822,1160 818,1161 814,1163 810,1166 807,1170 803,1174 800,1179 796,1183 793,1187 789,1190 784,1193 783,1201 784,1210 785,1218 787,1224 730,1224 732,1217 734,1209 735,1203 736,1197 732,1198 727,1199 723,1199 718,1199 714,1198 709,1197 705,1196 700,1194 699,1202 698,1209 698,1217 699,1224 135,1224 129,1222 123,1220 115,1221 108,1223 107,1221 105,1220 103,1219 102,1218 101,1203 97,1188 91,1175 81,1163 76,1162 69,1162 62,1165 57,1170 53,1177 49,1184 44,1190 39,1193 34,1195 28,1195 22,1191 16,1184 10,1173 8,1161 6,1150 3,1139 2,1132 4,1124 6,1117 7,1110 9,1107 13,1106 18,1105 24,1106 29,1107 34,1108 39,1109 41,1110 45,1113 49,1117 53,1122 58,1125 63,1125 68,1123 72,1119 77,1114 81,1109 85,1104 88,1101 91,1099 101,1098 109,1100 116,1105 123,1110 129,1115 134,1120 139,1123 144,1123 148,1122 152,1120 156,1119 160,1117 164,1116 167,1116 171,1116 175,1117 182,1120 189,1124 196,1128 203,1131 209,1134 216,1136 223,1135 230,1132 241,1119 243,1103 240,1086 232,1072 226,1067 218,1064 210,1063 202,1063 194,1064 185,1064 177,1062 169,1058 163,1052 159,1044 155,1037 149,1031 143,1029 137,1032 130,1036 124,1038 119,1038 115,1037 110,1034 106,1031 102,1028 98,1026 94,1025 90,1025 89,1016 85,1009 81,1003 77,997 75,995 74,992 74,990 73,988 446,988 446,988 446,988 446,988 446,988 446,994 447,1000 450,1005 455,1008 462,1010 469,1012 476,1013 483,1015 490,1016 496,1019 501,1023 506,1028 511,1034 516,1039 521,1044 527,1046 533,1047 539,1047 545,1045 551,1043 557,1040 563,1038 570,1037 577,1037 543,988 577,988 622,1058 625,1056 629,1053 633,1051 638,1049 642,1048 648,1046 655,1045 662,1045 659,1039 656,1033 652,1026 647,1018 643,1011 638,1003 633,995 628,988 648,988 652,993 657,999 661,1004 665,1008 669,1012 673,1015 676,1017 679,1018 684,1016 687,1009 689,999 691,988 729,988 729,999 730,1009 731,1017 733,1021 735,1021 739,1019 743,1016 749,1012 755,1007 762,1001 770,994 777,988 796,988 790,994 784,1001 777,1009 771,1017 765,1026 759,1035 753,1044 747,1054 751,1053 755,1052 759,1052 763,1052 769,1050 774,1047 778,1044 783,1041 788,1038 792,1035 797,1033 803,1031 809,1031 814,1032 819,1032 825,1033 830,1033 835,1032 841,1031 847,1028 864,988 888,988 868,1025 873,1025 877,1025 882,1024 886,1024 890,1023 893,1021 896,1018 899,1015 901,1012 902,1009 902,1006 902,1004 907,999 912,994 918,991 923,988 1223,988"/>
<polygon class="pen1 brush2" points="118,581 124,576 131,569 138,561 141,552 141,535 141,523 142,514 146,504 149,498 154,494 160,492 165,491 175,492 185,493 195,494 204,493 214,492 223,490 231,486 239,480 245,474 251,468 257,460 262,453 265,445 266,437 266,429 263,420 263,408 269,399 278,391 283,383 285,374 281,370 274,369 265,369 256,369 248,368 243,364 243,356 245,351 247,346 247,342 246,338 242,336 237,335 232,335 227,335 222,336 218,335 216,333 216,329 216,321 216,313 218,305 222,296 227,289 234,282 241,277 249,275 257,276 266,276 275,276 283,275 292,273 300,270 307,266 314,261 316,257 313,254 307,251 298,248 289,246 281,243 275,242 273,240 278,229 285,219 293,210 298,200 287,193 282,181 280,166 283,152 289,139 298,130 310,128 324,133 331,139 337,145 342,150 348,152 353,151 357,148 361,145 365,141 369,137 373,134 378,131 384,129 389,128 394,128 400,128 405,127 409,127 414,126 418,124 422,122 424,117 423,110 421,103 422,98 422,93 423,87 426,82 431,77 436,72 443,69 449,67 455,66 463,71 465,81 466,91 470,99 474,102 480,103 485,104 492,103 497,101 503,97 507,94 510,89 512,70 511,51 513,33 524,19 528,18 532,17 536,17 540,18 545,18 549,19 554,19 558,18 566,15 575,12 583,9 591,6 599,5 608,3 616,3 625,4 631,6 636,10 640,14 644,19 648,24 652,29 657,32 662,34 668,34 674,32 680,29 685,26 690,23 694,20 699,18 703,18 710,20 717,21 722,22 727,24 733,27 738,31 742,36 747,40 752,45 757,48 762,50 769,51 774,49 778,46 782,42 785,38 788,34 792,29 796,26 800,24 816,22 829,28 841,40 852,54 862,68 872,79 883,84 895,79 900,73 904,67 909,62 916,58 922,57 929,56 935,56 942,56 948,56 955,57 961,58 968,59 970,60 971,63 971,67 968,71 974,68 980,66 987,63 994,60 1000,59 1005,59 1010,61 1013,65 1014,72 1014,81 1013,90 1014,99 1018,105 1024,110 1029,113 1036,116 1047,120 1057,123 1068,125 1079,128 1090,132 1100,136 1110,142 1120,150 1125,152 1130,150 1136,146 1142,143 1149,143 1155,144 1160,146 1165,149 1168,154 1170,159 1170,164 1168,170 1163,183 1160,195 1160,208 1165,218 1173,225 1182,230 1191,232 1201,233 1212,232 1222,231 1233,229 1243,227 1250,227 1256,229 1263,232 1269,236 1274,242 1277,248 1278,255 1277,261 1271,274 1265,281 1259,286 1253,287 1248,288 1242,289 1236,291 1229,295 1218,306 1212,317 1210,328 1211,339 1214,350 1219,361 1224,373 1229,385 1235,380 1241,376 1248,373 1256,371 1263,371 1269,373 1274,377 1277,385 1278,392 1281,400 1284,408 1287,416 1288,422 1289,429 1290,436 1293,443 1282,440 1273,439 1266,442 1262,446 1260,453 1261,461 1264,470 1270,480 1275,491 1275,503 1273,515 1270,528 1265,525 1260,522 1254,520 1249,519 1243,519 1238,521 1234,524 1230,528 1230,534 1231,539 1233,545 1232,548 1225,554 1221,563 1219,572 1220,581 1075,581 1086,565 1093,548 1095,530 1091,512 1085,512 1080,514 1075,517 1070,520 1066,525 1061,529 1056,533 1051,537 1040,581 1010,581 1017,570 1022,557 1027,543 1031,531 1025,524 1019,520 1012,517 1003,518 996,523 994,530 994,536 995,543 995,551 994,558 989,565 979,571 971,569 965,560 960,549 956,541 958,554 961,564 965,573 969,581 938,581 935,528 924,530 916,536 911,545 908,555 908,562 910,569 914,575 918,581 571,581 568,577 566,573 564,570 563,566 559,563 554,562 548,562 542,563 536,564 531,565 525,566 521,566 521,570 521,573 521,577 521,581 463,581 460,575 457,569 454,565 450,561 447,558 444,557 440,557 435,556 439,562 443,568 447,574 452,581 435,581 429,572 423,562 418,554 412,545 407,537 403,530 399,523 395,518 390,521 385,523 380,526 375,528 378,541 382,555 386,568 389,581 354,581 352,568 351,556 350,544 348,535 343,535 339,535 334,534 330,532 326,530 323,528 319,525 316,521 310,537 309,553 313,568 321,581 118,581"/>
<polygon class="pen1 brush2" points="1229,589 1233,591 1237,591 1242,591 1246,590 1251,589 1256,588 1261,588 1266,589 1273,591 1280,591 1287,593 1294,596 1299,598 1308,601 1320,605 1332,609 1344,614 1353,619 1358,624 1358,629 1352,641 1350,655 1349,666 1348,670 1346,670 1341,670 1336,671 1334,673 1330,678 1328,684 1328,690 1331,693 1338,692 1345,692 1352,692 1358,692 1365,693 1371,693 1378,694 1384,694 1384,699 1385,703 1383,707 1379,711 1371,715 1364,720 1358,726 1354,734 1351,747 1351,761 1348,775 1341,785 1339,786 1335,787 1328,789 1321,792 1313,795 1306,797 1302,798 1300,799 1294,802 1289,807 1285,812 1280,818 1273,827 1270,834 1270,839 1273,843 1278,846 1284,848 1289,850 1294,852 1301,856 1308,860 1314,863 1320,867 1327,870 1333,873 1340,875 1348,877 1356,883 1362,893 1363,905 1361,917 1357,922 1350,923 1343,924 1337,927 1329,935 1324,945 1320,955 1313,964 1307,969 1300,973 1293,976 1287,977 1282,975 1277,972 1272,969 1267,967 1261,965 1256,964 1251,964 1246,967 1239,971 1233,976 1228,982 1223,988 923,988 929,984 934,980 939,976 944,971 948,967 951,962 954,956 956,950 950,952 944,953 938,955 933,957 927,960 922,962 917,965 911,968 906,971 902,973 898,974 894,974 888,988 864,988 870,977 866,979 863,981 860,983 858,985 855,981 851,976 847,971 844,965 841,962 838,960 834,960 831,960 826,960 822,962 818,963 814,965 810,970 806,975 801,981 796,988 777,988 783,980 789,973 795,966 800,960 796,953 793,946 789,938 786,931 781,926 776,921 770,919 762,920 753,924 747,930 743,938 741,947 739,957 737,967 734,976 729,984 729,985 729,986 729,987 729,988 691,988 691,985 692,984 692,982 692,981 689,976 686,966 683,955 681,947 677,940 671,936 665,934 658,937 651,944 645,952 640,958 634,964 637,969 640,975 644,981 648,988 628,988 626,983 623,978 620,974 618,970 610,969 604,965 598,959 593,954 583,954 577,961 573,970 570,977 577,988 543,988 541,985 534,983 528,979 523,976 519,974 514,973 510,972 505,971 501,969 496,968 492,968 487,967 483,968 479,969 473,970 467,971 462,973 456,975 451,978 448,982 446,988 73,988 72,983 71,977 71,972 70,967 64,969 58,971 51,973 46,974 40,973 36,971 32,967 30,960 29,947 31,934 37,923 46,914 49,913 55,913 63,912 72,912 80,912 87,913 92,915 94,917 92,921 93,924 97,926 103,926 109,925 116,922 121,915 125,906 125,898 122,890 118,881 113,872 109,864 106,856 105,850 107,845 115,844 123,842 132,839 139,836 145,832 150,827 152,821 151,813 148,811 142,810 134,809 126,807 119,804 114,800 113,793 117,782 125,769 135,756 148,744 161,733 176,726 192,722 207,723 223,730 229,731 234,730 239,726 244,721 248,716 252,712 256,708 260,707 268,706 275,706 283,706 291,706 298,706 306,705 313,704 321,703 325,700 328,695 330,690 328,684 322,678 315,674 307,673 299,674 290,675 282,676 273,677 264,676 256,671 251,663 247,654 243,646 238,642 233,641 227,642 222,644 216,647 211,650 206,654 202,657 195,660 189,661 182,659 177,656 173,653 170,650 170,647 172,646 163,643 155,640 146,638 137,637 129,634 120,632 112,628 104,622 101,613 103,601 109,590 115,583 115,582 116,582 117,582 118,581 321,581 324,584 328,586 332,588 336,590 340,592 345,593 350,594 355,595 354,591 354,588 354,585 354,581 389,581 391,586 393,591 395,595 396,599 402,599 407,599 412,601 416,603 423,609 428,616 434,623 438,629 443,636 448,643 454,650 460,656 465,661 469,666 473,672 476,679 487,691 489,687 492,683 495,680 499,677 498,674 497,671 497,668 496,664 491,658 484,650 477,641 470,630 461,619 453,606 444,594 435,581 452,581 458,591 465,601 472,610 478,619 483,627 489,634 493,639 496,643 494,630 493,618 493,607 492,598 482,599 475,595 468,589 463,581 521,581 523,606 525,633 528,660 530,680 534,678 538,677 541,675 545,673 549,670 553,668 556,666 560,663 564,661 568,661 572,661 576,662 580,663 584,664 589,664 593,663 602,658 607,650 608,640 604,630 601,625 598,620 594,614 589,608 585,601 580,594 576,588 571,581 918,581 918,582 919,582 919,584 919,586 916,591 911,599 911,609 921,616 925,616 930,616 935,616 941,616 938,581 969,581 974,588 980,592 987,594 996,593 999,592 1003,589 1007,586 1010,581 1040,581 1033,612 1038,610 1044,607 1049,603 1055,599 1060,595 1065,591 1070,586 1075,581 1220,581 1222,584 1224,585 1226,587 1229,589"/>
</g>
</svg>
