<?xml version="1.0" encoding="UTF-8" standalone="no"?>
<!DOCTYPE svg PUBLIC "-//W3C//DTD SVG 1.0//EN" "http://www.w3.org/TR/2001/REC-SVG-20010904/DTD/svg10.dtd">
<svg xmlns="http://www.w3.org/2000/svg" xmlns:xlink="http://www.w3.org/1999/xlink" fill-rule="evenodd" height="1.992in" preserveAspectRatio="none" stroke-linecap="round" viewBox="0 0 372 1992" width="0.372in">
<style type="text/css">
.brush0 { fill: rgb(255,255,255); }
.pen0 { stroke: rgb(0,0,0); stroke-width: 1; stroke-linejoin: round; }
.brush1 { fill: none; }
.pen1 { stroke: none; }
.brush2 { fill: rgb(0,0,0); }
</style>
<g>
<polygon class="pen1 brush2" points="301,1588 301,1596 301,1609 301,1626 301,1645 282,1649 262,1651 243,1653 224,1655 206,1655 188,1656 170,1655 154,1655 137,1654 122,1652 108,1651 95,1649 83,1647 72,1646 62,1644 54,1642 54,1623 54,1606 54,1593 54,1584 62,1585 72,1587 83,1589 95,1590 109,1592 123,1593 138,1595 154,1596 171,1597 188,1597 206,1597 224,1596 243,1595 262,1594 282,1591 301,1588 301,1588"/>
<polygon class="pen1 brush2" points="307,1731 315,1779 318,1824 318,1866 315,1904 311,1935 307,1959 304,1975 303,1980 244,1870 199,1949 159,1880 111,1992 74,1875 37,1929 36,1926 34,1917 31,1902 29,1881 29,1853 31,1819 36,1778 45,1730 53,1732 63,1733 75,1735 87,1737 101,1739 116,1740 133,1741 150,1742 168,1743 186,1743 206,1743 225,1742 245,1741 266,1738 286,1735 307,1731 307,1731"/>
<polygon class="pen1 brush2" points="301,1653 282,1656 262,1659 243,1660 224,1662 206,1662 188,1663 170,1662 154,1662 137,1661 122,1660 108,1658 95,1657 83,1655 72,1654 62,1652 54,1651 53,1669 52,1687 50,1704 47,1720 47,1720 47,1721 47,1721 46,1722 45,1723 53,1724 63,1726 75,1728 87,1729 101,1731 116,1732 133,1734 150,1735 168,1735 186,1735 206,1735 225,1734 245,1733 266,1730 286,1727 307,1723 307,1723 307,1723 308,1722 308,1721 308,1721 305,1706 303,1689 302,1671 301,1653 301,1653"/>
<polygon class="pen1 brush2" points="318,1089 297,1093 276,1096 255,1099 235,1100 215,1101 195,1102 176,1101 158,1100 141,1099 125,1098 110,1096 96,1095 84,1093 73,1091 64,1089 57,1088 53,1119 46,1170 39,1235 33,1309 29,1385 31,1459 38,1524 54,1575 54,1577 62,1578 72,1580 83,1582 95,1583 109,1585 123,1586 138,1587 154,1588 171,1589 188,1589 206,1589 224,1589 243,1587 262,1586 282,1583 301,1580 301,1579 301,1578 301,1578 301,1578 320,1528 332,1472 337,1412 338,1348 336,1283 331,1217 324,1152 318,1089 318,1089"/>
<polygon class="pen1 brush2" points="314,1011 314,1028 316,1046 317,1064 318,1082 297,1086 276,1089 255,1091 235,1092 215,1093 195,1093 176,1093 158,1092 141,1091 125,1090 110,1089 96,1087 84,1085 73,1084 64,1082 57,1081 58,1078 58,1076 58,1075 58,1074 58,1074 62,1059 64,1043 66,1026 67,1009 74,1010 83,1011 94,1013 106,1014 119,1016 133,1017 148,1018 164,1019 181,1020 199,1020 217,1020 236,1020 255,1019 275,1017 294,1014 314,1011 314,1011"/>
<polygon class="pen1 brush2" points="313,947 293,950 274,953 254,954 235,955 216,956 198,956 181,955 164,954 148,953 133,952 119,950 106,949 94,947 84,946 75,944 67,943 67,953 67,966 67,982 67,1000 74,1001 83,1003 94,1005 106,1006 119,1008 133,1010 148,1011 164,1012 181,1013 199,1013 217,1013 236,1013 255,1012 275,1010 294,1007 314,1004 313,989 313,975 313,961 313,947 313,947"/>
<polygon class="pen1 brush2" points="300,449 300,449 303,465 310,508 320,570 329,646 335,727 336,808 329,879 313,936 313,936 313,937 313,938 313,939 293,942 274,945 254,947 235,948 216,949 198,949 181,948 164,948 148,947 133,945 119,944 106,942 94,941 84,939 75,937 67,936 67,934 67,933 67,932 67,932 51,877 44,807 45,729 51,649 60,574 69,511 77,466 81,446 90,447 100,449 110,450 122,451 134,453 147,454 160,455 174,455 189,456 204,456 219,456 235,455 251,455 267,453 284,451 300,449 300,449"/>
<polygon class="pen1 brush2" points="313,51 314,58 318,78 322,108 325,146 326,190 324,238 317,288 304,337 304,337 304,338 304,341 304,344 304,349 286,352 269,354 251,355 234,356 217,357 201,357 185,356 169,356 154,355 140,354 127,352 115,351 103,349 93,348 83,346 75,345 74,345 74,345 74,345 74,345 74,345 76,345 77,345 78,345 78,345 64,292 56,242 51,197 50,157 51,124 52,99 54,84 55,78 99,122 139,74 179,122 217,0 270,116 313,51 313,51"/>
<polygon class="pen1 brush2" points="300,398 283,400 266,402 250,404 233,404 217,405 202,405 186,405 172,404 158,404 144,403 132,402 120,400 109,399 98,398 89,396 81,395 81,407 81,419 81,430 81,439 90,440 100,442 110,443 122,444 134,445 147,446 160,447 174,448 189,448 203,448 219,448 234,447 250,446 266,445 282,443 298,440 297,432 298,422 298,410 300,398 300,398"/>
<polygon class="pen1 brush2" points="303,358 285,360 268,362 251,363 233,364 217,365 200,365 184,364 169,364 154,363 140,362 127,361 115,360 103,358 93,357 83,355 75,354 76,359 78,366 79,376 80,386 88,387 98,389 108,390 119,392 131,393 144,394 158,395 172,396 186,397 201,397 217,397 233,397 250,396 266,395 283,393 300,391 301,381 301,372 302,364 303,358"/>
<polygon class="pen1 brush0" points="240,1545 251,1455 256,1375 256,1306 254,1248 249,1202 244,1168 240,1148 237,1141 237,1148 240,1168 245,1202 249,1248 251,1306 252,1375 248,1455 240,1545 240,1545"/>
<polygon class="pen1 brush0" points="178,1560 170,1560 170,1135 178,1135 178,1560 178,1560"/>
<polygon class="pen1 brush0" points="101,1545 91,1455 86,1375 85,1306 88,1248 92,1202 98,1168 102,1148 105,1141 105,1148 102,1168 97,1202 93,1248 90,1306 90,1375 93,1455 101,1545"/>
<polygon class="pen1 brush0" points="256,902 266,812 271,732 271,662 269,604 264,558 260,525 255,504 253,497 253,504 256,525 260,558 264,604 267,662 267,732 264,812 256,902 256,902"/>
<polygon class="pen1 brush0" points="192,916 186,916 186,493 192,493 192,916 192,916"/>
<polygon class="pen1 brush0" points="116,902 106,812 101,732 101,662 103,604 107,558 112,525 116,504 119,497 119,504 116,525 112,558 108,604 105,662 105,732 108,812 116,902"/>
<polygon class="pen1 brush0" points="128,314 113,248 107,193 106,156 109,143 110,156 112,193 117,248 128,314 128,314"/>
<polygon class="pen1 brush0" points="203,328 196,328 196,152 203,152 203,328 203,328"/>
<polygon class="pen1 brush0" points="291,138 293,147 293,163 292,185 289,210 284,238 279,266 272,293 264,318 275,266 284,210 289,163 291,138"/>
<polygon class="pen1 brush0" points="182,1850 175,1850 170,1757 178,1757 182,1850 182,1850"/>
<polygon class="pen1 brush0" points="72,1850 70,1843 72,1822 80,1791 97,1753 84,1791 77,1822 74,1843 72,1850 72,1850"/>
<polygon class="pen1 brush0" points="278,1858 278,1848 276,1837 274,1823 270,1809 265,1794 260,1779 255,1766 249,1753 257,1766 264,1779 270,1794 275,1809 278,1823 280,1837 280,1848 278,1858"/>
</g>
</svg>
