<?xml version="1.0" encoding="UTF-8" standalone="no"?>
<!DOCTYPE svg PUBLIC "-//W3C//DTD SVG 1.0//EN" "http://www.w3.org/TR/2001/REC-SVG-20010904/DTD/svg10.dtd">
<svg xmlns="http://www.w3.org/2000/svg" xmlns:xlink="http://www.w3.org/1999/xlink" fill-rule="evenodd" height="1.929in" preserveAspectRatio="none" stroke-linecap="round" viewBox="0 0 1979 1929" width="1.979in">
<style type="text/css">
.brush0 { fill: rgb(255,255,255); }
.pen0 { stroke: rgb(0,0,0); stroke-width: 1; stroke-linejoin: round; }
.brush1 { fill: none; }
.pen1 { stroke: none; }
.brush2 { fill: rgb(0,0,0); }
</style>
<g>
<polygon class="pen1 brush2" points="1655,1035 1676,1038 1697,1040 1716,1043 1735,1045 1753,1049 1771,1052 1787,1056 1804,1062 1820,1068 1836,1075 1852,1084 1867,1094 1883,1107 1899,1121 1915,1137 1931,1155 1933,1152 1938,1145 1945,1133 1953,1117 1961,1098 1969,1077 1975,1055 1979,1031 1868,987 1946,893 1932,873 1914,854 1895,837 1876,822 1858,809 1843,799 1833,793 1829,791 1822,815 1815,837 1808,857 1801,876 1793,893 1784,909 1775,924 1765,938 1755,952 1743,964 1731,977 1718,988 1704,1000 1689,1012 1673,1023 1655,1035 1655,1035"/>
<polygon class="pen1 brush2" points="1535,1538 1549,1577 1561,1614 1571,1648 1577,1683 1580,1718 1577,1755 1568,1795 1553,1840 1556,1840 1565,1841 1579,1842 1596,1842 1616,1841 1638,1838 1661,1833 1684,1826 1672,1706 1793,1732 1803,1710 1812,1686 1818,1660 1823,1636 1826,1615 1828,1597 1829,1585 1829,1581 1805,1586 1782,1590 1761,1593 1741,1595 1722,1596 1703,1596 1686,1594 1669,1592 1653,1589 1637,1585 1621,1579 1604,1573 1588,1566 1571,1557 1553,1548 1535,1538 1535,1538"/>
<polygon class="pen1 brush2" points="1016,1548 998,1559 981,1569 964,1579 949,1588 934,1597 919,1606 904,1613 889,1620 874,1626 858,1630 841,1634 824,1636 805,1636 785,1636 763,1633 739,1629 739,1632 740,1641 742,1655 745,1672 749,1692 756,1713 765,1735 776,1755 891,1723 888,1845 912,1852 938,1856 963,1857 988,1857 1010,1856 1027,1855 1039,1854 1043,1853 1025,1809 1011,1768 1002,1731 997,1695 995,1660 998,1625 1005,1588 1016,1548 1016,1548"/>
<polygon class="pen1 brush2" points="1236,964 1241,960 1243,946 1243,926 1243,898 1244,867 1247,831 1253,794 1263,755 1277,718 1298,682 1326,649 1363,621 1409,600 1465,585 1533,580 1614,584 1614,679 1735,631 1757,676 1771,719 1778,760 1778,799 1773,836 1762,871 1746,903 1727,934 1703,962 1677,989 1649,1013 1619,1035 1587,1056 1556,1074 1524,1090 1493,1104 1526,1096 1561,1090 1597,1084 1634,1080 1671,1079 1708,1080 1745,1083 1780,1091 1814,1102 1845,1117 1875,1137 1901,1162 1923,1192 1942,1229 1956,1271 1966,1321 1844,1359 1928,1457 1893,1492 1859,1520 1824,1540 1789,1554 1754,1562 1719,1564 1685,1561 1652,1554 1619,1543 1588,1528 1557,1511 1527,1491 1499,1470 1472,1447 1447,1424 1424,1400 1442,1428 1459,1458 1475,1490 1489,1522 1502,1556 1512,1591 1519,1626 1523,1661 1522,1696 1517,1730 1507,1764 1492,1797 1471,1829 1443,1859 1409,1888 1367,1914 1286,1814 1225,1929 1173,1905 1130,1878 1096,1846 1071,1811 1053,1774 1042,1735 1037,1694 1037,1652 1042,1610 1051,1569 1063,1528 1077,1488 1093,1450 1109,1415 1126,1383 1142,1354 1122,1380 1100,1409 1074,1438 1046,1468 1016,1497 983,1524 948,1549 912,1571 874,1588 834,1600 794,1606 753,1604 711,1595 668,1577 626,1549 583,1510 658,1406 533,1376 540,1330 551,1290 565,1255 584,1224 605,1198 630,1175 657,1157 686,1142 717,1130 749,1121 782,1115 816,1112 849,1110 883,1111 917,1113 949,1116 920,1105 890,1093 861,1078 832,1063 805,1045 779,1025 755,1003 734,979 716,953 701,925 691,894 684,860 683,824 687,786 696,744 712,700 837,727 811,599 864,582 912,574 957,574 997,580 1034,593 1067,612 1097,635 1123,663 1147,695 1167,730 1184,767 1199,806 1212,845 1222,885 1230,925 1236,964 1236,964"/>
<polygon class="pen1 brush2" points="785,1072 768,1060 751,1049 736,1038 722,1027 709,1015 697,1004 686,992 675,979 665,966 656,952 648,936 640,920 633,901 626,882 620,860 614,837 611,839 603,843 592,851 577,861 562,873 545,888 530,906 516,925 594,1014 481,1062 485,1086 492,1111 502,1135 512,1158 523,1177 531,1192 538,1202 540,1206 556,1188 572,1172 586,1157 600,1144 613,1133 626,1122 639,1113 652,1106 666,1099 680,1093 694,1088 710,1084 727,1080 745,1077 764,1074 785,1072 785,1072"/>
<polygon class="pen1 brush2" points="769,544 775,502 772,453 762,401 745,349 724,300 701,256 677,222 654,200 652,210 647,234 639,266 631,298 629,292 626,283 622,272 616,259 608,244 598,227 587,209 574,191 559,172 541,153 521,134 499,116 474,99 447,84 417,70 384,58 380,60 372,66 368,80 374,104 372,103 365,100 355,95 341,88 325,80 306,72 285,63 262,54 239,45 215,37 191,30 168,23 145,19 124,16 104,15 87,17 89,22 94,35 103,54 115,75 112,73 104,69 91,62 75,55 57,49 37,43 18,40 0,41 1,44 3,51 7,62 13,77 20,94 29,114 40,134 52,156 51,156 50,156 47,156 43,155 37,154 30,153 22,151 12,149 14,163 19,192 27,230 39,274 55,321 75,367 99,409 127,442 126,442 124,443 120,443 115,443 108,443 100,442 91,439 80,436 84,441 88,449 94,461 101,475 109,491 118,509 129,528 140,549 153,570 168,592 184,613 201,634 220,654 241,672 263,689 287,704 286,704 283,705 279,705 273,706 266,706 259,705 251,703 242,700 243,701 247,705 253,710 261,717 271,725 283,734 296,743 311,753 327,762 344,771 362,779 380,786 399,792 419,796 438,798 458,797 460,797 468,798 479,799 494,799 512,798 532,796 555,790 579,782 604,771 630,755 656,735 682,709 706,678 729,640 750,596 769,544 769,544"/>
<polygon class="pen1 brush2" points="1225,781 1231,761 1236,742 1243,724 1249,707 1256,690 1264,674 1272,659 1282,645 1292,631 1304,617 1317,604 1331,592 1347,580 1364,568 1384,556 1405,544 1401,540 1391,530 1376,517 1358,501 1340,485 1322,472 1307,463 1296,460 1226,558 1152,460 1130,470 1107,483 1086,498 1067,513 1050,528 1037,540 1029,549 1026,552 1048,564 1068,575 1086,587 1103,599 1118,611 1132,624 1144,636 1156,650 1167,663 1176,678 1185,693 1194,709 1202,725 1210,743 1218,761 1225,781"/>
<polygon class="pen1 brush0" points="186,160 567,625 553,635 172,172 186,160"/>
<polygon class="pen1 brush0" points="1395,1183 1390,1205 1381,1225 1369,1243 1354,1258 1336,1271 1317,1280 1295,1286 1273,1288 1248,1286 1225,1278 1204,1267 1186,1252 1171,1234 1160,1213 1152,1190 1150,1165 1150,1163 1150,1160 1150,1157 1150,1155 1163,1167 1178,1178 1194,1186 1210,1190 1227,1192 1244,1189 1259,1182 1273,1169 1289,1154 1306,1146 1324,1144 1341,1147 1358,1153 1372,1162 1385,1173 1395,1183 1395,1183"/>
<polygon class="pen1 brush0" points="1273,1041 1251,1043 1229,1049 1210,1059 1193,1071 1177,1087 1165,1105 1156,1125 1151,1146 1152,1147 1153,1149 1154,1150 1155,1152 1162,1129 1172,1109 1184,1091 1199,1076 1215,1064 1233,1055 1252,1050 1273,1048 1296,1050 1318,1057 1338,1068 1356,1083 1370,1101 1381,1121 1388,1143 1390,1166 1390,1166 1390,1167 1390,1168 1390,1169 1391,1170 1393,1172 1395,1174 1397,1176 1397,1174 1397,1171 1397,1168 1397,1165 1394,1140 1387,1117 1376,1095 1361,1077 1342,1062 1321,1051 1298,1043 1273,1041"/>
</g>
</svg>
