<?xml version="1.0" encoding="UTF-8" standalone="no"?>
<!DOCTYPE svg PUBLIC "-//W3C//DTD SVG 1.0//EN" "http://www.w3.org/TR/2001/REC-SVG-20010904/DTD/svg10.dtd">
<svg xmlns="http://www.w3.org/2000/svg" xmlns:xlink="http://www.w3.org/1999/xlink" fill-rule="evenodd" height="1.976in" preserveAspectRatio="none" stroke-linecap="round" viewBox="0 0 1332 1976" width="1.332in">
<style type="text/css">
.brush0 { fill: rgb(255,255,255); }
.pen0 { stroke: rgb(0,0,0); stroke-width: 1; stroke-linejoin: round; }
.brush1 { fill: none; }
.pen1 { stroke: none; }
.brush2 { fill: rgb(0,0,0); }
</style>
<g>
<polygon class="pen1 brush2" points="713,460 723,433 749,465 751,473 756,495 762,527 770,566 778,608 786,649 791,686 794,715 795,713 799,708 805,699 814,688 825,675 838,661 854,645 871,628 891,611 914,594 938,578 965,563 994,550 1024,538 1057,529 1092,523 1095,521 1102,516 1113,510 1126,502 1141,495 1157,488 1172,485 1186,484 1190,485 1195,486 1200,487 1205,488 1210,489 1216,490 1221,492 1227,493 1227,500 1225,506 1222,512 1217,516 1212,520 1205,523 1199,525 1192,526 1199,530 1206,537 1212,546 1216,554 1217,563 1217,570 1213,575 1206,577 1193,576 1178,572 1162,568 1146,562 1129,557 1113,553 1100,550 1088,550 1079,551 1071,552 1065,553 1059,554 1053,556 1047,559 1039,564 1030,570 1033,570 1040,571 1051,572 1064,574 1079,578 1094,582 1107,587 1119,594 1121,594 1127,593 1136,592 1147,592 1160,593 1174,595 1189,599 1203,605 1211,612 1215,620 1213,628 1209,637 1201,644 1191,649 1180,652 1169,652 1178,661 1185,672 1187,685 1185,696 1181,696 1176,695 1172,695 1168,693 1164,692 1160,691 1156,689 1152,688 1134,677 1119,664 1105,648 1092,633 1079,619 1066,607 1051,600 1034,598 1026,598 1015,598 1000,600 982,604 961,612 936,625 909,645 878,672 845,709 809,756 770,815 728,886 685,972 639,1073 590,1192 540,1328 533,1347 518,1392 500,1458 483,1542 472,1641 471,1748 484,1861 517,1976 516,1975 513,1973 509,1970 504,1965 498,1958 492,1950 487,1939 482,1927 479,1927 473,1924 466,1916 460,1900 457,1910 450,1926 441,1925 433,1887 431,1867 427,1841 421,1809 414,1772 405,1731 396,1687 385,1641 373,1593 360,1544 347,1496 332,1449 318,1403 302,1361 286,1321 270,1286 254,1256 266,1225 267,1226 269,1229 273,1233 277,1239 283,1245 289,1251 296,1256 303,1261 307,1271 316,1297 331,1335 348,1382 368,1433 387,1483 405,1529 420,1567 421,1563 423,1552 428,1534 434,1509 443,1478 454,1441 467,1397 483,1348 502,1294 523,1235 547,1171 574,1103 605,1030 638,953 675,873 716,790 718,787 725,775 732,755 739,723 742,680 740,622 732,549 713,460 713,460"/>
<polygon class="pen1 brush2" points="1232,629 1233,638 1233,647 1230,655 1225,661 1219,667 1211,670 1203,672 1193,672 1201,680 1206,690 1208,702 1206,713 1222,714 1237,713 1251,712 1264,710 1275,709 1283,707 1288,706 1290,705 1283,692 1276,681 1270,670 1263,661 1256,652 1249,644 1241,636 1232,629 1232,629"/>
<polygon class="pen1 brush2" points="1247,493 1247,500 1246,506 1243,512 1239,516 1234,520 1228,523 1222,525 1216,527 1222,531 1228,536 1233,542 1237,549 1239,556 1239,563 1237,571 1233,577 1247,573 1263,567 1280,559 1296,551 1310,544 1321,537 1329,533 1332,531 1324,525 1314,520 1304,515 1293,510 1282,505 1270,501 1259,497 1247,493"/>
<polygon class="pen1 brush2" points="714,317 714,331 714,350 713,372 711,395 707,418 699,439 688,456 673,467 657,471 643,468 631,460 621,448 614,435 609,424 606,415 605,412 602,413 593,414 580,416 565,415 550,413 537,407 526,396 521,379 524,359 536,340 553,322 573,305 593,291 611,280 623,272 628,269 614,274 596,280 576,287 553,293 530,296 509,296 489,292 473,281 464,267 462,252 466,238 474,226 484,215 493,206 500,200 503,198 501,195 497,187 492,175 487,161 484,146 486,131 492,118 506,108 525,104 545,108 566,116 586,128 605,142 622,156 636,168 646,178 638,166 627,151 615,132 603,112 594,91 588,71 587,51 592,33 596,27 601,23 605,19 611,17 616,15 621,14 627,14 632,14 641,16 650,20 658,24 666,28 673,32 678,35 681,37 682,38 683,37 686,34 690,30 695,25 702,20 709,14 718,10 726,6 731,4 737,3 742,3 748,4 753,5 758,8 763,12 767,17 776,34 779,54 777,75 772,97 764,119 755,139 747,156 741,169 750,158 762,143 776,126 791,109 809,95 827,83 846,77 865,77 881,84 890,95 894,109 894,124 892,139 889,151 886,160 885,163 888,165 896,169 907,176 919,185 929,196 936,209 937,224 930,240 917,253 901,261 882,265 861,266 841,265 821,262 804,259 791,257 805,263 822,270 842,280 863,291 882,305 898,320 909,336 913,355 910,371 902,383 889,390 875,395 860,396 847,397 838,396 835,396 834,399 832,408 828,420 822,434 813,447 802,456 788,461 771,459 755,449 742,434 733,415 726,394 721,372 717,351 715,332 714,317"/>
<polygon class="pen1 brush0" points="695,155 701,154 706,150 709,145 710,139 709,134 706,129 701,126 695,125 689,126 684,129 680,134 679,139 680,145 684,150 689,154 695,155"/>
<polygon class="pen1 brush0" points="787,217 792,216 797,212 800,208 801,202 800,196 797,191 792,187 787,186 780,187 775,191 771,196 770,202 771,208 775,212 780,216 787,217"/>
<polygon class="pen1 brush0" points="768,327 774,326 779,322 783,317 784,311 783,306 779,301 774,298 768,297 762,298 758,301 754,306 753,311 754,317 758,322 762,326 768,327"/>
<polygon class="pen1 brush0" points="653,332 659,331 664,327 668,323 669,317 668,312 664,307 659,304 653,303 647,304 643,307 639,312 638,317 639,323 643,327 647,331 653,332"/>
<polygon class="pen1 brush0" points="602,230 608,229 613,226 617,222 618,216 617,210 613,205 608,201 602,200 597,201 592,205 589,210 588,216 589,222 592,226 597,229 602,230"/>
<polygon class="pen1 brush0" points="712,213 791,279 693,244 692,243 691,239 690,234 689,228 690,223 694,218 701,214 712,213"/>
<polygon class="pen1 brush2" points="261,1111 261,1125 261,1144 261,1166 259,1189 255,1212 248,1233 237,1250 222,1261 205,1265 191,1262 179,1254 169,1242 162,1229 156,1218 153,1209 152,1206 149,1207 139,1208 126,1210 112,1210 96,1207 83,1201 73,1191 68,1175 71,1155 83,1135 100,1116 120,1099 141,1085 158,1074 171,1066 175,1063 161,1068 143,1074 122,1081 99,1087 77,1090 55,1090 35,1086 20,1075 10,1061 8,1047 13,1033 20,1020 25,1014 30,1008 35,1004 40,1000 44,996 47,994 49,993 50,992 47,988 40,976 34,959 30,940 31,929 34,919 41,911 53,904 72,900 92,903 112,912 133,923 152,937 169,951 184,963 195,973 186,961 175,945 163,927 151,907 142,886 136,865 135,846 141,828 152,815 165,810 180,810 194,814 208,820 219,827 226,832 229,834 231,831 238,825 248,816 260,807 274,801 288,798 302,801 315,811 324,828 327,848 325,870 320,892 312,914 303,934 295,952 288,965 298,953 310,938 324,921 340,904 357,889 375,878 393,871 412,871 428,878 437,889 441,904 441,919 439,934 436,947 433,956 432,959 435,960 443,965 454,971 466,980 476,991 483,1004 485,1018 479,1034 466,1047 449,1056 429,1060 409,1061 388,1060 369,1057 352,1054 338,1051 352,1057 370,1064 390,1074 410,1085 429,1098 445,1113 456,1130 460,1148 458,1165 449,1176 437,1184 422,1188 407,1190 395,1191 385,1190 382,1190 381,1193 379,1202 375,1214 369,1228 361,1241 350,1250 336,1255 320,1253 304,1243 291,1228 281,1209 274,1188 269,1166 265,1145 263,1126 261,1111"/>
<polygon class="pen1 brush0" points="241,949 247,948 252,945 256,940 257,935 256,929 252,924 247,920 241,919 235,920 231,924 227,929 226,935 227,940 231,945 235,948 241,949"/>
<polygon class="pen1 brush0" points="334,1011 339,1010 344,1006 347,1002 348,996 347,990 344,985 339,981 334,980 328,981 323,985 319,990 318,996 319,1002 323,1006 328,1010 334,1011"/>
<polygon class="pen1 brush0" points="317,1121 322,1120 327,1116 330,1111 331,1105 330,1100 327,1095 322,1092 317,1091 310,1092 305,1095 302,1100 301,1105 302,1111 305,1116 310,1120 317,1121"/>
<polygon class="pen1 brush0" points="200,1127 206,1126 211,1122 215,1117 216,1111 215,1106 211,1101 206,1098 200,1097 195,1098 190,1101 187,1106 186,1111 187,1117 190,1122 195,1126 200,1127"/>
<polygon class="pen1 brush0" points="151,1026 157,1025 162,1021 165,1016 166,1010 165,1004 162,999 157,995 151,994 145,995 140,999 136,1004 135,1010 136,1016 140,1021 145,1025 151,1026"/>
<polygon class="pen1 brush0" points="260,1007 339,1073 240,1040 239,1039 238,1035 237,1030 236,1023 237,1017 241,1012 249,1008 260,1007"/>
</g>
</svg>
