<?xml version="1.0" encoding="UTF-8" standalone="no"?>
<!DOCTYPE svg PUBLIC "-//W3C//DTD SVG 1.0//EN" "http://www.w3.org/TR/2001/REC-SVG-20010904/DTD/svg10.dtd">
<svg xmlns="http://www.w3.org/2000/svg" xmlns:xlink="http://www.w3.org/1999/xlink" fill-rule="evenodd" height="1.744in" preserveAspectRatio="none" stroke-linecap="round" viewBox="0 0 2033 1744" width="2.033in">
<style type="text/css">
.brush0 { fill: rgb(255,255,255); }
.pen0 { stroke: rgb(0,0,0); stroke-width: 1; stroke-linejoin: round; }
.brush1 { fill: none; }
.pen1 { stroke: none; }
.brush2 { fill: rgb(0,0,0); }
</style>
<g>
<polygon class="pen1 brush2" points="362,572 364,567 371,552 381,530 394,501 410,468 429,432 450,395 472,358 495,324 519,292 543,267 567,248 590,237 613,237 633,248 652,273 655,270 664,263 678,252 696,237 717,221 741,203 766,185 793,167 819,150 845,135 869,124 891,116 910,113 924,115 934,124 939,140 940,139 943,138 947,135 953,132 961,127 970,123 980,117 991,111 1003,105 1015,99 1029,93 1043,86 1057,80 1072,74 1086,69 1101,64 1124,57 1145,51 1166,48 1184,48 1200,51 1213,57 1223,67 1229,82 1231,81 1236,79 1245,76 1256,72 1269,67 1285,61 1302,56 1321,50 1337,45 1354,40 1370,36 1387,32 1403,28 1420,26 1435,24 1450,22 1463,22 1475,24 1486,26 1495,30 1502,35 1507,42 1510,51 1510,61 1512,60 1519,59 1529,57 1541,54 1557,51 1574,47 1592,45 1611,42 1630,41 1649,41 1666,42 1682,45 1695,50 1706,57 1713,66 1716,78 1718,78 1723,77 1731,76 1741,75 1753,74 1767,73 1782,72 1797,72 1812,72 1826,73 1839,75 1851,78 1861,82 1869,87 1874,94 1875,102 1895,103 1913,104 1931,107 1948,112 1964,119 1980,127 1995,138 2010,152 2015,171 2014,193 2009,215 2002,236 1993,255 1985,270 1978,280 1976,284 1986,297 1985,317 1975,341 1961,367 1944,391 1928,412 1917,427 1912,432 1925,452 1922,478 1908,507 1887,538 1863,567 1840,590 1824,607 1817,613 1830,623 1836,635 1835,650 1829,666 1818,684 1804,703 1786,722 1767,742 1746,760 1725,778 1706,794 1687,809 1671,821 1659,830 1651,836 1648,838 1659,852 1662,868 1658,884 1649,902 1635,919 1617,937 1597,955 1575,971 1552,988 1528,1003 1506,1016 1486,1028 1469,1038 1455,1045 1446,1049 1443,1051 1454,1063 1457,1077 1451,1090 1438,1105 1420,1119 1398,1133 1372,1147 1344,1160 1314,1173 1285,1184 1258,1194 1232,1203 1211,1211 1194,1216 1183,1220 1179,1221 1190,1250 1188,1273 1176,1291 1155,1305 1126,1315 1091,1321 1052,1325 1010,1325 967,1325 924,1322 884,1319 847,1315 816,1311 791,1307 776,1305 770,1304 759,1320 744,1330 727,1335 707,1336 685,1333 661,1326 636,1316 609,1304 583,1289 555,1273 529,1255 502,1237 477,1219 452,1200 430,1183 409,1166 428,1150 445,1137 460,1127 473,1118 483,1112 491,1107 495,1105 497,1104 557,1120 615,1132 670,1140 721,1144 770,1147 815,1146 857,1144 895,1140 929,1135 959,1129 986,1123 1007,1117 1024,1112 1037,1108 1044,1105 1047,1104 1008,1108 968,1110 926,1111 883,1110 840,1107 798,1103 757,1099 718,1093 680,1088 646,1082 616,1077 589,1072 568,1067 552,1064 542,1062 538,1061 564,1038 589,1018 612,1002 633,989 650,979 663,972 672,968 675,967 751,983 821,994 886,1002 947,1006 1002,1008 1052,1006 1098,1003 1138,998 1173,992 1204,986 1230,979 1251,972 1267,966 1279,961 1286,958 1288,957 1245,969 1200,978 1153,983 1105,985 1057,984 1010,981 963,977 919,971 877,964 838,957 803,949 773,943 749,936 731,931 719,928 715,927 716,926 716,926 716,926 716,926 717,926 732,912 753,896 775,881 799,866 822,852 841,841 854,832 861,828 935,847 1004,861 1068,872 1126,878 1179,881 1227,882 1270,880 1308,876 1341,871 1370,865 1393,859 1413,853 1427,847 1438,842 1444,839 1446,838 1408,847 1367,853 1324,856 1281,856 1237,853 1194,849 1151,843 1110,836 1072,828 1036,820 1004,812 976,804 953,798 936,793 926,789 922,788 941,772 961,757 983,744 1004,734 1023,725 1039,718 1049,714 1053,713 1121,726 1184,735 1243,740 1296,741 1344,739 1388,735 1427,728 1462,720 1492,711 1518,701 1539,692 1557,683 1570,675 1580,669 1585,664 1587,663 1527,678 1471,689 1419,697 1371,702 1328,704 1289,704 1253,702 1222,699 1195,694 1171,689 1152,684 1136,679 1124,674 1115,671 1110,668 1108,667 1249,592 1269,600 1295,606 1325,609 1358,610 1394,610 1432,607 1470,604 1509,599 1545,594 1580,588 1612,582 1639,575 1662,569 1678,562 1688,557 1690,552 1663,559 1637,565 1611,569 1585,573 1560,576 1535,577 1510,578 1486,578 1463,577 1439,576 1417,573 1395,570 1373,567 1353,562 1332,557 1313,552 1315,549 1326,543 1341,533 1360,522 1381,511 1399,501 1415,492 1425,487 1475,495 1520,501 1561,504 1598,504 1631,502 1660,499 1686,494 1708,489 1727,482 1743,476 1756,469 1766,463 1774,458 1779,454 1782,451 1783,450 1750,460 1718,468 1687,473 1659,476 1632,477 1607,477 1584,475 1563,473 1544,470 1527,466 1513,462 1501,459 1491,455 1485,453 1480,451 1479,450 1601,400 1634,402 1665,403 1692,402 1717,400 1738,397 1758,393 1775,388 1789,383 1802,378 1812,373 1820,369 1827,364 1832,361 1835,358 1837,356 1838,355 1815,362 1794,367 1773,372 1755,375 1738,377 1722,378 1708,379 1695,378 1683,378 1674,377 1665,376 1658,374 1653,373 1649,372 1647,371 1646,371 1757,315 1781,316 1805,314 1826,312 1845,309 1861,306 1873,303 1881,301 1884,300 1867,302 1850,301 1834,298 1819,294 1807,290 1799,286 1794,282 1793,280 1923,196 1780,265 1780,263 1782,256 1784,246 1787,234 1791,220 1797,206 1805,192 1814,179 1812,181 1806,188 1796,199 1785,213 1772,230 1758,249 1745,269 1732,290 1627,339 1628,336 1631,327 1636,312 1646,293 1661,270 1681,244 1708,216 1743,186 1742,186 1739,187 1735,188 1729,190 1722,193 1714,197 1704,203 1693,210 1681,220 1667,231 1654,245 1639,262 1623,281 1607,303 1591,329 1574,358 1469,416 1469,415 1470,411 1471,404 1473,395 1477,384 1481,372 1487,357 1494,341 1503,324 1515,305 1528,285 1543,265 1561,244 1582,222 1605,201 1632,179 1631,179 1627,180 1621,181 1612,184 1602,188 1590,195 1576,203 1561,215 1544,229 1527,247 1508,268 1489,294 1469,324 1449,360 1428,400 1408,446 1286,517 1287,514 1291,506 1296,494 1304,477 1313,457 1325,435 1338,410 1352,384 1368,356 1386,329 1404,301 1424,275 1444,250 1465,227 1487,206 1510,189 1508,190 1502,193 1492,199 1480,206 1464,217 1446,230 1427,246 1405,265 1382,287 1359,313 1334,342 1310,374 1286,411 1263,451 1240,495 1219,544 1205,552 1205,552 1078,619 1082,592 1089,564 1099,537 1112,508 1127,480 1144,452 1163,425 1183,397 1204,371 1225,346 1247,322 1269,299 1290,277 1311,258 1330,240 1348,224 1319,235 1291,250 1265,268 1239,289 1214,313 1191,338 1168,366 1147,395 1126,426 1107,457 1089,489 1072,521 1056,553 1042,585 1029,616 1017,646 1014,648 1006,655 993,664 976,676 957,690 935,704 911,719 887,733 894,703 902,671 911,638 921,604 933,569 945,535 958,500 973,466 988,433 1004,400 1022,369 1040,340 1059,312 1079,287 1100,264 1122,244 1096,263 1071,286 1046,312 1023,340 1000,371 978,405 956,440 936,476 917,513 899,550 882,588 866,625 851,662 838,697 826,731 815,763 811,766 802,774 786,786 767,800 744,817 718,835 692,852 665,868 668,834 673,800 680,765 689,730 700,696 712,661 726,627 742,593 759,559 777,527 796,495 817,464 838,435 860,407 883,380 906,355 876,377 848,402 821,430 795,462 771,495 749,531 727,568 708,606 690,646 673,685 658,725 644,764 632,803 621,840 612,875 604,909 590,919 576,929 562,940 549,950 535,960 521,971 507,982 493,993 496,962 499,928 503,893 508,856 514,819 521,781 529,742 538,704 548,667 559,631 572,596 586,564 602,534 619,507 638,484 659,464 632,483 608,507 585,535 565,566 546,601 529,638 514,677 501,718 488,760 478,802 469,845 460,888 453,929 447,969 442,1008 438,1044 431,1049 420,1058 406,1069 390,1082 375,1094 362,1104 352,1110 348,1112 324,1056 301,979 283,889 272,796 272,708 285,636 314,587 362,572 362,572"/>
<polygon class="pen1 brush2" points="60,1571 61,1620 63,1658 65,1687 67,1706 71,1724 74,1725 75,1717 77,1706 93,1654 109,1606 127,1560 145,1518 163,1478 182,1441 202,1406 221,1374 241,1345 260,1318 279,1293 298,1270 317,1250 334,1231 352,1215 368,1200 357,1191 347,1182 338,1174 330,1167 323,1161 317,1156 312,1152 308,1149 270,1186 234,1224 202,1262 171,1300 144,1338 118,1375 96,1411 75,1444 57,1476 42,1505 29,1530 19,1552 10,1570 5,1584 1,1592 0,1595 10,1584 19,1576 28,1570 36,1567 44,1566 50,1567 56,1568 60,1571 60,1571"/>
<polygon class="pen1 brush2" points="1696,552 1700,549 1703,547 1705,546 1706,545 1702,547 1698,549 1694,551 1689,552 1696,552"/>
</g>
</svg>
