<?xml version="1.0" encoding="UTF-8" standalone="no"?>
<!DOCTYPE svg PUBLIC "-//W3C//DTD SVG 1.0//EN" "http://www.w3.org/TR/2001/REC-SVG-20010904/DTD/svg10.dtd">
<svg xmlns="http://www.w3.org/2000/svg" xmlns:xlink="http://www.w3.org/1999/xlink" fill-rule="evenodd" height="1.96in" preserveAspectRatio="none" stroke-linecap="round" viewBox="0 0 1194 1960" width="1.194in">
<style type="text/css">
.brush0 { fill: rgb(255,255,255); }
.pen0 { stroke: rgb(0,0,0); stroke-width: 1; stroke-linejoin: round; }
.brush1 { fill: none; }
.pen1 { stroke: none; }
.brush2 { fill: rgb(0,0,0); }
</style>
<g>
<polygon class="pen1 brush2" points="863,524 876,521 890,519 905,516 922,513 939,511 958,509 977,507 996,506 1015,505 1035,505 1054,506 1074,508 1092,511 1110,516 1127,521 1143,528 1142,529 1138,533 1132,540 1123,548 1113,557 1100,568 1085,579 1068,590 1048,601 1027,612 1005,622 980,630 954,637 926,642 897,644 866,643 857,633 848,623 840,614 833,605 826,597 820,590 815,585 812,581 820,574 827,567 834,560 840,553 846,546 852,539 858,531 863,524 863,524"/>
<polygon class="pen1 brush2" points="291,542 279,540 266,537 251,534 234,531 216,528 197,526 177,524 157,522 136,521 116,521 95,522 75,523 55,526 35,531 17,537 0,544 1,545 5,549 11,555 20,563 30,573 43,583 58,594 75,605 94,616 115,627 138,637 162,645 188,652 216,657 245,659 275,659 283,650 291,641 299,633 306,624 313,616 320,608 326,601 332,594 326,589 320,584 315,578 310,571 306,564 301,557 296,549 291,542 291,542"/>
<polygon class="pen1 brush2" points="342,598 351,600 361,601 372,603 383,604 394,605 406,605 418,606 430,606 442,606 454,606 466,606 477,606 489,605 500,605 511,604 521,603 518,606 514,609 510,612 506,615 502,618 497,622 493,625 488,629 473,643 453,663 432,688 409,715 387,741 367,764 351,781 340,791 308,809 279,822 251,831 227,837 204,840 184,839 166,837 150,833 136,828 124,822 114,815 106,809 100,803 95,798 93,795 92,794 101,793 111,791 122,788 133,783 144,777 156,771 167,764 179,756 190,748 201,739 212,731 222,722 231,713 240,705 248,697 255,690 265,680 276,669 288,657 300,644 311,631 322,619 333,608 342,598 342,598"/>
<polygon class="pen1 brush2" points="805,588 794,592 783,596 772,598 761,601 749,603 737,605 725,606 714,607 703,608 691,608 681,608 671,609 661,608 652,608 644,608 637,608 649,618 662,629 674,641 686,654 697,667 709,680 720,694 732,707 743,720 754,733 765,745 776,757 787,768 799,778 810,787 821,794 853,812 882,825 910,834 934,840 957,843 977,842 995,840 1011,836 1025,831 1037,825 1047,818 1055,812 1061,806 1066,801 1068,798 1069,797 1060,796 1050,794 1039,791 1028,786 1017,780 1005,774 994,767 982,759 971,751 960,742 949,734 939,725 930,716 921,708 913,700 906,693 894,680 880,666 865,650 850,634 835,619 822,606 812,595 805,588 805,588"/>
<polygon class="pen1 brush2" points="585,0 588,5 595,18 604,38 613,61 610,73 606,86 602,100 596,115 591,111 588,108 586,107 585,106 581,110 578,113 574,117 570,121 566,125 563,128 559,132 555,136 550,127 546,118 542,108 538,98 541,86 545,73 550,60 555,47 561,34 569,21 576,10 585,0 585,0"/>
<polygon class="pen1 brush2" points="440,143 442,157 444,172 446,189 449,207 453,225 457,244 463,262 470,280 476,261 483,242 491,223 501,205 512,187 524,171 536,154 549,139 542,125 535,110 530,95 525,82 522,70 519,60 518,54 517,52 505,59 493,68 483,79 473,91 463,104 455,117 447,131 440,143 440,143"/>
<polygon class="pen1 brush2" points="696,126 690,113 682,99 675,86 666,72 656,60 646,49 635,41 623,34 622,42 618,62 611,88 602,115 617,134 631,152 642,169 652,185 661,201 668,215 674,228 679,241 685,210 690,179 694,151 696,126 696,126"/>
<polygon class="pen1 brush2" points="829,363 822,380 815,396 808,412 801,427 794,442 788,456 781,470 775,484 776,455 775,428 770,401 764,375 755,349 744,323 730,297 715,271 714,280 711,292 706,305 699,320 691,335 683,350 674,365 666,378 661,385 657,391 653,398 649,405 646,412 642,420 639,427 636,434 632,411 631,383 637,354 650,328 668,298 681,263 690,227 696,192 699,160 701,135 701,117 701,111 740,146 771,180 794,214 812,246 823,277 829,307 831,336 829,363 829,363"/>
<polygon class="pen1 brush2" points="295,282 299,259 306,235 315,211 328,185 345,159 366,133 391,107 421,81 421,87 423,102 426,126 430,156 433,172 436,189 439,207 444,225 449,242 454,260 460,276 467,291 464,303 462,313 461,323 460,334 454,348 448,362 443,377 440,392 437,408 435,425 435,443 437,463 418,433 399,406 380,383 362,362 344,343 327,323 310,303 295,282 295,282"/>
<polygon class="pen1 brush2" points="468,318 475,306 484,294 493,283 503,272 512,263 520,256 525,252 528,251 537,261 546,274 555,289 564,306 573,324 581,344 589,363 596,383 603,407 609,434 613,461 615,483 620,469 623,461 625,454 629,446 625,412 625,383 630,354 643,326 648,318 653,310 658,301 662,292 666,282 670,273 674,263 677,254 663,222 649,194 634,170 620,150 607,135 597,124 590,117 588,115 560,141 536,166 517,192 501,218 489,243 479,268 472,293 468,318 468,318"/>
<polygon class="pen1 brush2" points="339,588 337,586 332,581 325,573 316,562 305,549 294,533 282,514 272,494 262,471 254,448 249,422 246,396 247,368 253,340 263,310 279,281 283,286 295,300 312,319 332,343 353,368 374,392 391,412 404,426 418,445 428,463 434,479 439,497 443,516 449,538 457,564 470,595 454,595 437,596 419,596 401,596 383,595 367,593 352,591 339,588 339,588"/>
<polygon class="pen1 brush2" points="477,595 473,586 463,561 452,524 444,477 443,424 454,368 480,313 527,261 532,269 546,290 564,323 582,365 598,415 608,470 607,529 592,588 589,588 581,589 568,590 553,592 534,593 515,594 496,595 477,595 477,595"/>
<polygon class="pen1 brush2" points="718,595 733,594 747,593 760,591 772,588 782,586 789,584 794,583 796,582 826,555 849,528 867,501 880,473 888,446 892,419 893,394 891,369 887,347 882,326 875,307 869,292 863,279 858,269 854,263 853,261 854,285 851,312 844,341 833,372 821,404 806,436 790,468 774,498 768,520 762,537 756,551 749,561 743,570 735,578 727,586 718,595 718,595"/>
<polygon class="pen1 brush2" points="599,592 603,594 614,596 629,596 648,596 667,596 685,596 699,595 707,595 746,550 766,500 770,449 763,400 750,356 735,320 723,297 718,288 715,301 711,314 705,327 698,340 690,353 681,366 672,379 663,392 655,405 647,419 641,434 635,449 629,465 624,480 619,496 615,511 613,531 610,551 605,572 599,592 599,592"/>
<polygon class="pen1 brush2" points="606,1960 666,1957 724,1948 781,1933 835,1914 886,1889 934,1859 980,1825 1022,1787 1059,1746 1093,1700 1123,1652 1148,1600 1168,1546 1182,1490 1191,1431 1194,1371 1192,1321 1187,1272 1177,1224 1165,1178 1149,1134 1129,1092 1107,1052 1081,1014 1053,979 1022,946 988,916 951,889 912,865 871,843 827,826 781,811 755,808 732,806 713,806 698,807 686,808 677,809 672,809 670,809 669,844 668,880 667,917 665,953 662,989 657,1021 649,1050 639,1074 633,1088 632,1104 633,1120 633,1136 866,932 660,1156 951,1156 679,1207 984,1362 667,1265 964,1498 667,1352 860,1649 644,1405 724,1729 609,1487 606,1595 603,1686 600,1750 599,1774 597,1751 594,1688 588,1597 582,1490 464,1734 545,1409 328,1653 521,1358 225,1504 521,1271 204,1366 511,1210 237,1160 528,1160 323,936 558,1135 559,1119 560,1103 559,1088 554,1074 542,1051 533,1022 528,990 524,955 522,919 521,882 521,845 521,811 512,809 502,808 490,807 477,807 464,808 451,808 438,810 426,811 380,826 337,844 296,866 257,891 220,918 187,948 156,981 127,1017 102,1054 80,1094 61,1136 45,1180 33,1226 24,1273 19,1321 17,1371 20,1431 29,1490 44,1546 64,1600 89,1652 118,1700 152,1746 190,1787 232,1825 277,1859 326,1889 377,1914 431,1933 487,1948 546,1957 606,1960"/>
</g>
</svg>
