<?xml version="1.0" encoding="UTF-8" standalone="no"?>
<!DOCTYPE svg PUBLIC "-//W3C//DTD SVG 1.0//EN" "http://www.w3.org/TR/2001/REC-SVG-20010904/DTD/svg10.dtd">
<svg xmlns="http://www.w3.org/2000/svg" xmlns:xlink="http://www.w3.org/1999/xlink" fill-rule="evenodd" height="1.987in" preserveAspectRatio="none" stroke-linecap="round" viewBox="0 0 1511 1987" width="1.511in">
<style type="text/css">
.brush0 { fill: rgb(255,255,255); }
.pen0 { stroke: rgb(0,0,0); stroke-width: 1; stroke-linejoin: round; }
.brush1 { fill: none; }
.pen1 { stroke: none; }
.brush2 { fill: rgb(0,0,0); }
</style>
<g>
<polygon class="pen1 brush2" points="738,712 743,740 748,771 751,806 754,844 750,851 745,859 737,866 727,872 729,872 736,873 745,874 755,873 757,900 757,928 757,957 755,987 751,993 745,999 737,1004 727,1007 729,1008 735,1010 744,1013 754,1014 752,1042 749,1070 746,1099 741,1129 739,1131 736,1134 732,1137 729,1140 724,1142 720,1144 715,1146 710,1146 712,1147 718,1150 727,1153 737,1156 734,1173 731,1190 728,1207 724,1224 720,1241 716,1259 712,1276 707,1294 704,1297 701,1300 697,1302 692,1305 688,1307 682,1309 677,1311 671,1311 673,1313 679,1316 687,1321 698,1324 693,1342 687,1360 681,1379 674,1398 668,1417 661,1435 653,1454 646,1473 642,1475 638,1477 634,1479 629,1481 624,1482 619,1483 614,1482 609,1481 611,1483 616,1488 624,1494 635,1500 626,1519 617,1537 608,1556 598,1575 589,1593 579,1612 568,1631 558,1650 554,1652 550,1654 546,1655 541,1656 536,1657 531,1657 526,1657 521,1656 522,1658 527,1663 534,1669 544,1676 532,1695 520,1715 507,1734 494,1753 480,1773 466,1792 452,1811 438,1831 422,1850 407,1870 391,1889 374,1909 358,1928 340,1948 322,1967 304,1987 130,1980 132,1979 138,1974 148,1968 161,1958 176,1946 195,1931 216,1913 239,1893 264,1870 291,1844 319,1816 348,1786 377,1753 407,1717 437,1679 467,1639 496,1596 524,1551 552,1504 577,1454 601,1402 624,1347 643,1290 661,1232 675,1170 686,1107 694,1042 698,974 698,904 693,833 684,759 670,683 658,698 645,716 631,735 618,755 607,776 597,796 590,816 586,835 584,834 579,830 573,818 569,794 566,800 557,816 544,839 529,867 513,896 499,925 487,951 480,970 477,969 470,963 463,950 460,926 456,945 447,989 437,1041 431,1084 431,1084 429,1084 427,1084 423,1082 418,1079 410,1075 401,1069 389,1060 390,1076 393,1118 398,1175 403,1236 403,1237 402,1238 401,1239 399,1240 395,1240 389,1238 380,1233 369,1226 368,1230 365,1242 360,1259 355,1282 350,1308 345,1336 340,1366 338,1395 336,1393 331,1386 324,1373 316,1356 307,1333 299,1304 292,1270 287,1229 285,1229 279,1233 270,1244 258,1267 258,1262 257,1247 257,1224 257,1195 259,1162 264,1127 271,1090 282,1055 281,1055 276,1056 271,1058 263,1061 255,1065 247,1071 240,1078 234,1087 235,1082 237,1069 242,1049 250,1024 262,996 279,966 302,936 331,908 329,908 324,908 316,909 307,911 296,913 284,917 273,922 262,929 263,927 266,923 271,916 278,907 286,897 296,884 307,871 318,857 331,842 345,827 359,813 373,799 388,786 402,774 417,764 431,756 430,756 427,756 422,756 416,756 408,757 399,758 389,760 379,763 380,761 385,755 393,746 403,734 418,721 435,706 456,691 481,675 482,670 484,663 487,655 493,646 492,647 487,648 481,651 472,655 462,660 450,665 438,671 424,677 411,684 397,690 383,697 371,704 359,710 348,716 340,722 333,727 331,724 330,716 332,703 342,683 339,686 329,695 315,708 299,723 281,740 264,756 249,772 238,784 237,783 233,779 228,767 221,744 219,747 213,757 204,771 193,789 180,810 166,833 151,857 137,881 136,882 132,881 126,874 119,855 116,857 107,864 94,875 78,888 60,904 41,922 22,942 5,962 5,959 5,951 7,939 10,921 15,899 24,874 37,845 55,812 55,812 54,811 51,811 48,811 43,812 36,815 26,820 15,827 18,823 25,812 37,795 53,774 72,751 93,728 118,706 144,686 143,685 140,684 134,681 128,679 120,678 111,678 102,679 92,683 93,682 95,680 99,676 104,671 110,666 118,659 127,652 137,645 148,638 161,631 174,624 189,618 205,612 222,607 239,604 258,602 257,601 253,599 247,595 239,591 230,588 220,584 209,582 197,581 199,580 203,579 210,577 220,574 232,570 245,566 260,562 276,558 293,554 311,551 328,548 346,545 364,543 381,542 397,543 412,544 411,543 410,541 406,538 402,535 396,531 389,528 380,525 370,523 391,515 411,510 429,506 448,505 465,505 482,507 498,510 515,513 531,518 547,523 563,529 579,534 596,540 613,544 631,549 650,552 639,549 629,545 618,540 608,534 598,528 588,522 578,516 568,510 558,504 547,498 537,493 526,488 514,484 502,482 490,480 477,480 477,480 477,478 478,476 480,473 483,470 489,467 497,463 508,460 503,458 489,452 469,445 445,436 419,426 394,418 372,412 356,409 356,408 357,406 358,403 360,400 364,396 370,392 378,389 389,386 385,386 373,385 357,384 337,384 315,383 294,382 275,382 260,382 260,381 260,376 264,365 274,346 271,347 261,349 246,352 228,356 206,361 182,366 157,372 133,378 132,378 130,375 131,366 139,348 136,348 126,346 111,345 92,343 71,342 47,341 23,341 0,342 2,340 7,336 16,329 29,320 46,311 68,301 94,292 126,283 126,283 126,281 125,280 123,277 119,274 113,271 104,268 92,264 93,264 96,263 101,262 108,261 117,260 127,258 138,257 150,256 163,255 177,254 191,253 205,253 220,254 235,255 250,257 264,260 264,259 263,256 261,251 258,245 254,239 249,233 242,228 234,224 238,224 249,224 265,226 286,230 311,237 337,247 363,262 389,283 388,277 385,263 378,245 366,229 371,232 385,239 405,251 430,266 456,283 482,303 504,324 522,345 522,342 522,332 519,319 511,304 528,314 544,324 557,336 570,349 581,362 591,376 600,390 608,405 616,421 625,436 633,451 641,466 650,481 660,496 671,510 683,524 683,523 683,523 683,523 684,523 683,521 690,484 693,448 693,412 693,377 694,342 700,307 711,273 731,240 731,257 734,269 738,278 740,281 746,253 756,224 769,194 784,166 798,140 810,120 819,107 822,102 819,122 821,141 823,155 825,160 839,130 855,104 873,82 891,65 907,51 920,42 930,36 933,34 924,50 922,65 923,76 924,81 947,62 973,46 998,32 1022,21 1043,12 1061,5 1072,1 1076,0 1062,16 1056,26 1055,31 1055,33 1088,25 1116,21 1140,19 1161,19 1176,20 1188,22 1195,23 1197,24 1175,34 1154,45 1134,57 1116,69 1100,80 1088,88 1081,94 1078,96 1093,108 1098,115 1097,118 1096,119 1072,126 1048,133 1025,140 1003,147 985,152 970,156 960,159 957,160 967,167 975,172 980,176 984,180 986,182 988,184 988,185 988,185 974,192 957,202 939,213 920,225 903,235 889,244 880,251 876,253 887,249 895,248 902,248 908,249 912,250 914,252 916,253 916,254 903,265 887,281 869,300 851,321 835,341 821,357 811,369 808,373 819,371 828,370 835,370 839,371 843,372 845,374 846,375 846,375 830,385 815,399 800,416 786,434 773,453 761,471 752,488 744,501 760,491 774,480 787,468 800,455 812,442 823,429 834,416 846,404 858,391 870,379 883,368 898,357 913,348 931,340 950,333 971,328 958,342 951,355 948,365 947,369 959,360 972,351 987,343 1003,335 1020,328 1037,321 1054,315 1070,310 1086,305 1101,300 1115,297 1126,294 1136,291 1144,289 1148,288 1150,288 1140,295 1132,303 1125,311 1119,319 1115,326 1112,332 1110,337 1109,338 1126,330 1143,324 1160,320 1176,316 1192,314 1207,313 1221,312 1234,313 1246,313 1257,315 1267,316 1275,317 1282,319 1287,320 1290,321 1291,321 1281,323 1273,326 1266,331 1259,336 1254,342 1251,346 1249,350 1248,351 1264,352 1281,354 1297,356 1314,360 1329,364 1345,368 1359,373 1373,377 1386,382 1397,387 1408,391 1416,395 1423,398 1429,401 1432,402 1433,403 1420,403 1410,405 1402,406 1398,408 1394,410 1393,411 1392,413 1392,413 1424,432 1450,450 1471,467 1486,482 1498,495 1505,505 1510,512 1511,514 1486,506 1460,499 1435,493 1411,488 1390,484 1374,482 1363,480 1359,480 1362,501 1361,511 1358,514 1356,514 1332,501 1307,488 1283,476 1261,464 1242,454 1227,447 1217,442 1214,440 1220,463 1222,476 1221,482 1221,483 1204,478 1183,473 1160,467 1136,462 1114,457 1096,453 1084,451 1079,450 1090,456 1098,462 1103,467 1107,472 1108,477 1109,480 1109,482 1109,483 1101,482 1090,482 1078,482 1065,483 1051,484 1036,485 1020,486 1005,488 991,489 977,491 964,493 953,494 943,495 936,496 932,497 930,497 941,503 949,509 954,513 958,517 959,521 960,523 960,524 960,525 949,522 936,521 923,520 909,521 894,523 879,525 864,527 850,530 836,534 822,537 809,541 798,544 788,548 779,550 773,552 768,554 778,557 807,549 835,543 861,539 885,537 909,537 930,538 950,539 968,542 984,546 998,549 1010,553 1020,557 1028,560 1034,563 1038,564 1039,565 1029,566 1020,567 1012,570 1006,573 1001,576 997,578 995,580 994,581 1009,582 1025,584 1042,587 1059,592 1077,597 1094,603 1111,609 1127,615 1142,621 1156,627 1169,633 1180,638 1189,643 1195,646 1200,648 1201,649 1189,648 1178,649 1167,651 1157,654 1149,657 1143,659 1138,661 1137,662 1172,672 1203,687 1229,704 1251,721 1267,737 1279,751 1287,760 1289,764 1281,759 1272,757 1263,756 1255,756 1248,757 1242,758 1238,760 1237,760 1260,783 1281,809 1300,836 1315,861 1328,884 1337,902 1343,915 1345,919 1334,910 1326,904 1319,901 1314,899 1310,898 1308,898 1306,899 1306,899 1319,934 1328,965 1333,991 1335,1013 1336,1031 1335,1044 1334,1051 1333,1054 1319,1032 1304,1010 1288,989 1273,970 1259,955 1248,943 1241,935 1238,932 1227,949 1221,954 1217,954 1216,953 1206,928 1195,903 1184,879 1174,856 1166,837 1159,822 1155,812 1153,808 1143,829 1136,839 1131,843 1130,844 1120,829 1108,812 1093,792 1079,773 1065,755 1053,741 1045,731 1042,727 1050,749 1050,763 1047,771 1045,773 1031,760 1011,745 988,727 963,710 939,694 919,681 905,672 900,669 900,669 915,683 931,696 946,709 962,722 977,736 991,750 1003,765 1014,781 1004,776 994,773 985,771 977,770 971,770 965,770 962,771 961,771 975,780 990,790 1004,802 1019,816 1033,830 1047,845 1060,860 1072,875 1083,890 1094,904 1103,917 1111,928 1117,937 1122,944 1125,948 1126,950 1115,942 1104,937 1093,932 1082,929 1072,928 1065,927 1060,926 1058,926 1086,955 1108,986 1124,1016 1135,1045 1142,1070 1147,1090 1149,1103 1149,1108 1143,1099 1136,1091 1128,1086 1121,1081 1113,1078 1108,1076 1103,1075 1102,1075 1112,1110 1118,1147 1121,1182 1122,1215 1122,1244 1121,1267 1120,1282 1119,1287 1108,1264 1100,1252 1094,1248 1092,1248 1086,1289 1078,1323 1068,1352 1059,1374 1050,1392 1042,1404 1037,1411 1035,1413 1031,1354 1023,1299 1015,1259 1011,1243 999,1250 990,1254 983,1256 979,1257 977,1256 975,1255 975,1254 975,1253 982,1192 988,1135 992,1093 994,1077 982,1085 972,1091 965,1095 960,1097 956,1099 954,1099 953,1099 953,1099 948,1057 940,1004 933,959 930,940 925,964 917,977 909,983 906,984 900,965 889,939 875,909 861,879 846,851 834,827 825,811 822,805 818,830 812,842 806,846 804,846 802,831 797,814 790,797 782,779 772,761 761,744 749,727 738,712"/>
</g>
</svg>
