<?xml version="1.0" encoding="UTF-8" standalone="no"?>
<!DOCTYPE svg PUBLIC "-//W3C//DTD SVG 1.0//EN" "http://www.w3.org/TR/2001/REC-SVG-20010904/DTD/svg10.dtd">
<svg xmlns="http://www.w3.org/2000/svg" xmlns:xlink="http://www.w3.org/1999/xlink" fill-rule="evenodd" height="1.348in" preserveAspectRatio="none" stroke-linecap="round" viewBox="0 0 2009 1348" width="2.009in">
<style type="text/css">
.brush0 { fill: rgb(255,255,255); }
.pen0 { stroke: rgb(0,0,0); stroke-width: 1; stroke-linejoin: round; }
.brush1 { fill: none; }
.pen1 { stroke: none; }
.brush2 { fill: rgb(0,0,0); }
</style>
<g>
<polygon class="pen1 brush2" points="1644,283 1643,278 1637,274 1626,270 1613,267 1599,264 1586,262 1575,261 1569,260 1575,265 1584,270 1595,276 1608,281 1620,285 1630,287 1639,287 1644,283"/>
<polygon class="pen1 brush2" points="1897,356 1899,355 1901,355 1903,355 1905,354 1910,350 1908,350 1906,350 1904,351 1901,352 1904,348 1909,343 1914,337 1919,330 1923,324 1926,319 1928,314 1926,312 1918,315 1910,327 1904,341 1900,352 1893,353 1887,354 1881,355 1875,356 1878,352 1883,346 1888,339 1894,331 1898,323 1901,316 1902,311 1900,308 1891,311 1883,326 1877,343 1873,356 1869,357 1865,357 1861,358 1857,358 1852,359 1848,360 1844,360 1840,361 1839,361 1839,361 1838,361 1838,361 1842,356 1848,349 1854,341 1861,333 1866,324 1870,317 1871,311 1869,308 1864,308 1859,312 1854,319 1849,327 1845,337 1841,346 1838,354 1837,361 1833,361 1828,362 1824,362 1820,363 1815,363 1811,364 1807,364 1803,364 1802,364 1802,364 1801,364 1801,364 1806,359 1813,351 1821,342 1829,332 1835,323 1840,314 1841,308 1838,304 1832,304 1826,308 1820,316 1815,326 1809,337 1805,347 1802,357 1800,364 1795,364 1790,365 1786,365 1781,365 1777,365 1772,365 1768,365 1763,365 1763,365 1762,365 1762,365 1761,365 1766,360 1773,352 1781,343 1789,333 1796,323 1800,314 1802,306 1799,302 1793,302 1787,307 1781,315 1775,326 1770,337 1765,348 1762,358 1760,365 1755,365 1750,365 1745,365 1740,365 1735,365 1731,364 1726,364 1721,364 1725,359 1732,351 1741,341 1750,330 1757,319 1763,309 1765,301 1762,297 1756,297 1749,302 1742,311 1735,322 1730,334 1725,346 1721,356 1720,363 1715,363 1709,363 1704,363 1699,362 1694,362 1690,361 1685,361 1680,360 1684,355 1691,347 1700,337 1709,326 1716,315 1722,305 1724,297 1721,293 1715,293 1708,298 1701,307 1695,318 1689,330 1684,342 1681,353 1679,360 1673,359 1668,358 1663,357 1657,356 1652,355 1647,354 1642,352 1637,351 1641,347 1648,339 1657,329 1666,317 1673,306 1679,296 1681,288 1678,284 1672,284 1665,290 1658,298 1652,309 1646,321 1641,333 1638,343 1636,351 1630,349 1625,348 1620,346 1615,344 1610,343 1606,341 1601,340 1597,338 1601,333 1608,325 1617,315 1625,304 1633,293 1639,284 1641,276 1638,272 1632,272 1625,277 1618,286 1612,297 1606,308 1601,320 1598,330 1596,337 1587,334 1579,330 1571,327 1564,323 1558,320 1554,317 1551,316 1550,315 1551,315 1553,314 1555,314 1557,314 1580,309 1563,310 1560,310 1557,310 1553,310 1549,311 1551,304 1555,293 1561,279 1570,260 1573,254 1578,246 1584,237 1591,225 1598,229 1607,235 1618,240 1630,245 1642,249 1653,251 1661,251 1666,247 1665,242 1659,238 1649,234 1637,231 1623,228 1610,226 1599,225 1592,224 1598,216 1604,207 1611,198 1618,189 1624,193 1634,199 1645,205 1658,210 1670,214 1681,216 1690,216 1695,212 1694,207 1687,202 1676,198 1663,195 1649,192 1636,190 1625,189 1619,188 1625,181 1632,174 1639,166 1646,159 1653,163 1662,169 1674,174 1686,179 1698,183 1708,185 1716,185 1721,181 1720,176 1714,172 1704,168 1692,165 1678,162 1665,160 1654,159 1647,158 1651,155 1654,151 1658,148 1662,144 1665,140 1669,136 1673,133 1677,129 1683,134 1692,139 1703,144 1715,149 1726,153 1736,155 1744,155 1749,151 1748,146 1742,142 1732,139 1720,135 1707,133 1695,131 1685,130 1678,129 1681,126 1685,123 1689,120 1692,117 1696,114 1700,111 1704,107 1708,104 1714,108 1723,113 1733,118 1745,123 1756,127 1766,129 1773,128 1778,125 1777,120 1771,116 1762,113 1750,110 1737,107 1725,105 1715,104 1709,104 1715,99 1722,93 1730,88 1737,83 1742,86 1750,91 1759,95 1769,100 1779,103 1788,105 1795,105 1799,102 1798,98 1793,94 1784,91 1774,88 1763,86 1752,84 1743,83 1738,82 1745,77 1752,73 1759,68 1766,64 1771,67 1777,71 1785,75 1794,79 1802,83 1810,85 1816,85 1819,82 1818,78 1814,75 1807,72 1798,69 1788,67 1779,65 1771,64 1767,63 1773,60 1778,56 1784,53 1789,49 1793,52 1799,55 1806,58 1814,61 1821,64 1827,65 1832,65 1835,63 1835,60 1831,57 1825,54 1817,52 1809,51 1801,50 1795,49 1790,49 1792,48 1794,46 1796,45 1798,44 1791,44 1790,45 1788,46 1786,47 1784,48 1784,48 1784,48 1784,48 1784,48 1783,37 1781,21 1778,8 1772,4 1769,11 1772,25 1778,39 1784,49 1778,52 1773,55 1767,58 1761,62 1760,49 1758,30 1754,14 1748,10 1744,19 1748,34 1754,51 1761,62 1754,66 1747,71 1740,75 1734,80 1733,65 1731,44 1726,26 1718,20 1714,30 1718,48 1726,67 1733,80 1729,83 1725,86 1721,89 1718,92 1714,95 1710,98 1706,100 1702,103 1702,88 1701,64 1696,43 1688,36 1683,48 1686,68 1694,89 1701,103 1694,109 1687,115 1679,122 1672,128 1671,111 1668,86 1662,66 1654,60 1650,64 1649,71 1650,81 1653,92 1657,103 1662,114 1667,123 1671,129 1663,136 1656,142 1649,149 1643,156 1641,138 1637,111 1631,89 1622,81 1618,86 1617,94 1619,104 1622,116 1627,129 1632,140 1637,150 1641,157 1634,165 1626,173 1619,180 1613,187 1611,169 1608,143 1602,119 1593,112 1589,117 1588,126 1589,136 1593,149 1597,161 1602,173 1607,182 1611,189 1604,198 1598,206 1592,215 1586,223 1585,207 1581,179 1575,155 1566,147 1562,152 1561,160 1563,171 1567,183 1571,196 1576,207 1581,217 1585,223 1578,234 1571,246 1565,255 1563,259 1562,242 1559,214 1552,189 1543,181 1539,186 1538,195 1540,206 1544,219 1548,232 1554,244 1559,253 1563,259 1553,279 1547,296 1543,307 1542,311 1526,313 1526,320 1543,317 1544,318 1547,319 1551,322 1557,326 1564,330 1571,334 1580,338 1589,342 1590,349 1593,360 1597,372 1602,385 1608,397 1614,407 1621,413 1627,414 1630,410 1629,401 1624,391 1616,378 1608,366 1600,355 1594,347 1590,342 1590,343 1591,343 1591,343 1591,343 1596,345 1600,346 1605,348 1610,349 1615,351 1620,353 1625,354 1631,356 1632,363 1635,374 1638,386 1644,398 1649,409 1655,418 1662,424 1668,425 1671,421 1669,413 1665,403 1658,392 1651,380 1643,370 1636,361 1632,356 1632,356 1632,356 1632,356 1632,356 1637,357 1642,358 1647,359 1652,360 1658,361 1663,362 1669,363 1675,364 1676,372 1678,382 1682,394 1687,407 1693,418 1699,427 1705,433 1711,434 1714,430 1713,422 1709,412 1702,401 1694,389 1687,378 1680,370 1675,364 1680,365 1685,365 1690,366 1696,367 1701,368 1706,368 1712,369 1717,369 1718,377 1721,388 1725,400 1730,412 1735,423 1741,432 1747,437 1752,438 1755,434 1754,427 1751,417 1745,406 1737,395 1730,384 1724,375 1719,369 1724,369 1729,369 1733,369 1738,369 1743,370 1748,370 1753,370 1758,370 1759,377 1761,387 1764,398 1768,409 1773,419 1778,427 1784,432 1790,433 1793,430 1792,423 1788,414 1782,404 1775,393 1768,383 1762,375 1758,370 1759,370 1759,370 1759,370 1759,370 1764,370 1768,370 1773,370 1778,369 1782,369 1787,369 1792,369 1797,369 1798,376 1801,385 1805,395 1809,406 1814,415 1820,423 1825,427 1831,428 1834,424 1833,418 1829,410 1823,400 1816,391 1809,382 1802,374 1798,369 1798,369 1799,369 1799,369 1799,369 1804,369 1808,368 1813,368 1818,367 1822,366 1827,366 1831,365 1836,365 1839,380 1846,399 1855,415 1865,420 1868,417 1867,411 1863,403 1858,394 1852,385 1846,377 1841,370 1837,365 1837,365 1837,365 1837,365 1838,365 1842,365 1846,364 1850,364 1854,363 1857,362 1861,361 1865,361 1869,360 1872,373 1878,390 1886,405 1895,409 1897,406 1896,401 1893,394 1888,386 1883,377 1878,370 1874,364 1871,360 1877,359 1883,358 1889,357 1896,356 1898,367 1903,382 1910,393 1917,396 1918,389 1912,377 1903,365 1896,356 1897,356 1897,356 1897,356 1897,356"/>
<polygon class="pen1 brush2" points="1724,1298 1733,1292 1740,1272 1745,1248 1748,1233 1744,1238 1738,1246 1733,1255 1727,1265 1723,1276 1721,1285 1721,1293 1724,1298"/>
<polygon class="pen1 brush2" points="1751,1318 1759,1313 1767,1294 1772,1273 1775,1260 1771,1265 1766,1271 1761,1280 1756,1289 1751,1299 1749,1307 1749,1314 1751,1318"/>
<polygon class="pen1 brush2" points="1803,1342 1809,1339 1815,1326 1819,1310 1821,1300 1814,1308 1806,1321 1801,1334 1803,1342"/>
<polygon class="pen1 brush2" points="1620,1170 1625,1169 1631,1163 1636,1153 1640,1139 1644,1126 1648,1113 1650,1103 1651,1097 1646,1102 1639,1111 1632,1122 1626,1133 1620,1145 1617,1156 1617,1165 1620,1170"/>
<polygon class="pen1 brush2" points="1693,1269 1702,1264 1711,1243 1718,1219 1722,1203 1717,1208 1711,1216 1704,1226 1698,1236 1693,1247 1690,1256 1690,1264 1693,1269"/>
<polygon class="pen1 brush2" points="1603,1132 1608,1132 1614,1125 1619,1114 1623,1100 1627,1085 1631,1072 1633,1062 1634,1057 1629,1062 1623,1071 1616,1082 1609,1094 1604,1106 1600,1118 1600,1127 1603,1132"/>
<polygon class="pen1 brush2" points="1763,1005 1765,1000 1762,992 1755,984 1745,974 1734,965 1724,957 1715,951 1710,947 1713,954 1718,963 1725,974 1733,985 1741,994 1749,1002 1757,1006 1763,1005"/>
<polygon class="pen1 brush2" points="1976,845 1970,850 1966,864 1964,879 1964,891 1969,881 1975,866 1979,852 1976,845"/>
<polygon class="pen1 brush2" points="1883,963 1885,958 1881,951 1874,943 1865,934 1854,925 1844,917 1836,911 1831,907 1834,914 1839,923 1846,933 1853,943 1861,952 1870,960 1877,963 1883,963"/>
<polygon class="pen1 brush2" points="1802,1192 1798,1188 1790,1186 1779,1187 1767,1189 1755,1192 1744,1196 1734,1200 1728,1203 1734,1203 1744,1204 1756,1204 1770,1204 1783,1203 1793,1201 1800,1197 1802,1192"/>
<polygon class="pen1 brush2" points="1727,1024 1729,1019 1725,1013 1718,1004 1708,995 1697,986 1687,977 1678,971 1673,967 1676,974 1681,984 1688,994 1696,1005 1705,1014 1713,1021 1721,1025 1727,1024"/>
<polygon class="pen1 brush2" points="1826,1223 1822,1219 1815,1217 1804,1217 1793,1219 1781,1222 1769,1226 1760,1230 1754,1233 1760,1233 1770,1234 1782,1234 1796,1234 1808,1233 1818,1231 1825,1227 1826,1223"/>
<polygon class="pen1 brush2" points="1843,1249 1839,1245 1833,1244 1824,1245 1814,1246 1804,1249 1794,1253 1786,1256 1781,1259 1786,1259 1795,1259 1806,1259 1817,1258 1828,1257 1836,1256 1842,1253 1843,1249"/>
<polygon class="pen1 brush2" points="1843,975 1845,970 1842,963 1834,954 1825,945 1814,936 1804,927 1795,921 1790,917 1793,924 1798,933 1805,944 1813,955 1821,964 1829,972 1837,976 1843,975"/>
<polygon class="pen1 brush2" points="1689,885 1678,895 1671,918 1667,945 1667,963 1669,959 1674,950 1679,938 1685,924 1690,910 1693,898 1693,889 1689,885"/>
<polygon class="pen1 brush2" points="1952,838 1944,844 1939,860 1937,878 1937,891 1943,880 1950,863 1955,846 1952,838"/>
<polygon class="pen1 brush2" points="1846,834 1835,842 1829,863 1825,887 1826,904 1829,899 1833,890 1838,879 1844,867 1848,855 1850,845 1850,837 1846,834"/>
<polygon class="pen1 brush2" points="1969,894 1971,894 1974,894 1976,894 1978,894 1972,891 1970,891 1968,891 1966,891 1964,891 1957,891 1951,891 1944,891 1937,891 1933,891 1929,892 1925,892 1921,892 1916,892 1912,892 1908,893 1904,893 1899,893 1894,894 1889,894 1885,895 1880,896 1875,896 1871,897 1866,897 1869,892 1873,884 1879,873 1884,862 1888,851 1890,842 1890,835 1887,832 1877,839 1870,859 1865,881 1865,897 1860,898 1855,899 1850,899 1846,900 1841,901 1836,902 1831,903 1826,904 1821,905 1816,906 1811,907 1806,908 1802,909 1797,910 1793,912 1788,913 1791,906 1796,896 1801,884 1805,871 1809,859 1811,849 1811,841 1807,838 1797,846 1790,868 1786,894 1786,913 1780,914 1775,916 1770,917 1765,919 1760,920 1755,922 1751,923 1746,925 1749,919 1753,909 1759,897 1764,884 1768,872 1770,861 1770,853 1766,850 1755,859 1748,882 1744,907 1744,926 1739,928 1734,930 1729,932 1724,934 1719,936 1714,939 1710,941 1705,943 1707,938 1712,928 1717,916 1723,903 1727,890 1730,879 1730,871 1726,867 1716,875 1708,898 1704,924 1704,943 1699,946 1694,948 1689,951 1684,953 1680,956 1675,958 1671,961 1667,963 1657,969 1649,975 1642,980 1636,985 1631,989 1627,993 1625,995 1623,997 1615,994 1607,990 1597,986 1588,982 1577,978 1566,973 1554,969 1542,964 1529,960 1515,955 1501,950 1486,945 1470,940 1454,935 1437,930 1420,925 1422,922 1424,919 1427,916 1431,911 1436,907 1441,901 1447,896 1454,890 1459,897 1466,905 1474,914 1483,922 1493,930 1501,935 1509,937 1515,935 1516,930 1512,924 1504,917 1495,910 1483,903 1473,897 1463,892 1456,888 1459,885 1462,883 1466,880 1470,877 1473,874 1477,871 1482,867 1486,864 1491,871 1498,879 1507,888 1516,896 1525,903 1534,908 1541,911 1547,909 1548,904 1544,899 1537,892 1527,885 1516,878 1505,872 1495,866 1488,862 1492,859 1496,857 1500,854 1505,851 1509,849 1514,846 1518,843 1523,840 1528,847 1535,856 1543,866 1552,875 1561,883 1570,889 1577,892 1583,890 1584,885 1581,879 1573,872 1564,864 1553,856 1542,849 1532,843 1525,839 1529,837 1533,834 1538,832 1542,830 1547,828 1551,825 1556,823 1561,821 1566,828 1573,836 1581,846 1590,855 1599,863 1608,868 1615,871 1621,869 1622,864 1618,858 1611,851 1602,843 1591,836 1580,829 1570,824 1563,820 1568,818 1572,816 1577,814 1581,812 1586,811 1590,809 1595,807 1599,805 1604,812 1610,820 1618,829 1627,838 1636,845 1645,851 1652,853 1657,852 1658,847 1654,841 1647,835 1638,827 1628,820 1617,813 1608,808 1601,804 1605,802 1609,801 1614,799 1618,797 1623,796 1627,794 1632,793 1636,791 1640,798 1647,806 1654,815 1663,823 1671,831 1679,836 1686,838 1691,836 1692,832 1689,826 1682,820 1673,813 1663,806 1653,800 1644,795 1638,791 1642,790 1647,788 1651,787 1656,786 1660,784 1664,783 1669,782 1673,781 1677,787 1682,794 1688,802 1695,809 1702,816 1709,821 1715,823 1719,822 1720,818 1717,813 1711,807 1704,801 1696,794 1687,788 1680,783 1674,780 1678,779 1682,778 1685,778 1689,777 1693,776 1697,775 1700,774 1704,773 1707,778 1712,784 1717,791 1723,797 1729,803 1735,807 1739,808 1743,807 1744,804 1742,800 1737,795 1731,790 1724,785 1717,780 1711,776 1706,773 1713,772 1719,770 1725,769 1731,768 1734,772 1738,777 1743,783 1748,788 1754,792 1759,795 1764,797 1767,795 1768,792 1766,789 1761,785 1756,781 1749,777 1743,773 1737,770 1733,768 1737,767 1741,766 1746,766 1751,765 1731,762 1728,763 1726,763 1724,763 1722,764 1725,752 1728,737 1729,725 1725,720 1720,725 1718,737 1718,752 1719,764 1713,765 1707,766 1700,767 1694,768 1697,755 1700,738 1700,723 1696,717 1690,724 1689,738 1690,755 1692,769 1685,771 1677,772 1670,774 1663,776 1666,761 1670,740 1671,723 1666,716 1659,723 1657,740 1658,760 1661,776 1656,777 1652,778 1647,779 1643,781 1638,782 1634,783 1629,785 1625,786 1630,769 1636,746 1638,726 1632,718 1624,726 1620,746 1621,769 1623,786 1619,788 1614,789 1610,791 1606,792 1601,794 1597,795 1593,797 1589,799 1593,780 1597,756 1598,735 1592,726 1584,735 1582,757 1584,781 1587,800 1582,802 1577,804 1573,805 1568,807 1564,809 1559,810 1555,812 1551,814 1556,796 1562,771 1564,749 1558,739 1549,749 1546,771 1546,796 1548,815 1544,817 1539,819 1535,822 1530,824 1526,826 1521,828 1517,831 1513,833 1518,814 1524,789 1526,767 1520,758 1512,767 1508,790 1508,815 1510,835 1505,838 1501,840 1496,843 1492,845 1488,847 1484,850 1480,852 1477,855 1482,835 1488,810 1490,788 1484,779 1476,789 1472,811 1472,837 1474,857 1470,860 1465,864 1461,867 1457,870 1454,873 1450,876 1446,879 1443,882 1449,863 1454,838 1456,816 1450,807 1441,817 1438,839 1438,865 1441,884 1434,890 1428,896 1422,902 1418,907 1414,911 1410,915 1408,918 1406,921 1394,918 1382,914 1369,911 1356,908 1343,905 1330,901 1316,898 1302,895 1288,892 1274,889 1259,886 1245,883 1230,881 1214,878 1199,875 1183,873 1187,867 1193,858 1201,848 1212,836 1218,842 1225,850 1235,857 1245,865 1255,871 1264,876 1272,877 1277,875 1277,870 1273,864 1265,858 1254,852 1243,846 1231,841 1221,837 1213,834 1219,828 1226,821 1234,814 1242,807 1248,813 1256,821 1265,829 1275,836 1285,842 1294,846 1302,847 1307,845 1308,841 1304,836 1296,830 1285,824 1274,818 1262,813 1252,809 1244,806 1247,803 1251,800 1255,796 1259,793 1263,790 1267,786 1272,783 1276,780 1281,787 1289,795 1298,803 1308,812 1318,819 1327,823 1335,825 1340,823 1341,818 1337,813 1329,806 1319,799 1307,793 1296,787 1286,782 1278,778 1282,775 1286,773 1290,770 1295,767 1299,765 1304,762 1308,759 1313,756 1318,763 1326,771 1335,779 1345,787 1354,794 1363,799 1371,800 1377,798 1378,793 1373,787 1365,781 1355,775 1344,769 1332,763 1322,758 1315,755 1319,753 1323,750 1327,748 1331,746 1335,744 1339,741 1344,739 1348,737 1353,743 1361,751 1369,759 1379,767 1389,774 1398,778 1405,780 1410,778 1411,773 1407,768 1399,761 1389,755 1378,749 1367,744 1357,739 1350,736 1354,734 1358,732 1363,730 1367,728 1371,726 1376,724 1380,722 1384,720 1389,726 1396,734 1404,741 1414,749 1423,755 1431,760 1439,761 1444,759 1445,755 1441,749 1433,743 1423,737 1412,731 1402,726 1393,722 1386,719 1390,717 1394,715 1398,714 1402,712 1406,711 1410,709 1415,708 1419,706 1423,711 1429,718 1436,725 1444,732 1451,738 1459,742 1465,744 1469,742 1470,738 1466,733 1460,728 1452,722 1443,717 1434,712 1426,708 1420,705 1424,704 1428,703 1431,701 1435,700 1439,699 1443,697 1446,696 1450,695 1453,700 1458,705 1464,711 1471,717 1477,722 1483,725 1488,726 1491,724 1492,721 1489,717 1484,713 1478,709 1471,705 1463,701 1457,697 1452,695 1457,693 1463,691 1469,689 1476,687 1479,691 1484,695 1489,700 1496,705 1502,709 1508,711 1513,712 1516,711 1516,708 1513,705 1508,701 1502,697 1495,694 1488,691 1481,689 1477,687 1482,686 1486,684 1491,683 1495,682 1474,681 1472,682 1470,682 1468,683 1466,684 1468,672 1470,657 1469,645 1465,640 1460,646 1460,658 1461,673 1464,684 1458,686 1452,688 1446,689 1440,691 1442,677 1443,660 1441,646 1436,640 1431,647 1431,662 1434,679 1438,692 1434,693 1430,694 1426,695 1423,697 1419,698 1415,699 1412,701 1408,702 1411,686 1412,665 1411,648 1406,641 1400,649 1399,667 1402,687 1406,702 1402,704 1398,705 1394,707 1390,708 1385,710 1381,712 1377,713 1373,715 1376,698 1379,675 1379,655 1373,647 1365,656 1364,676 1366,699 1371,716 1366,718 1362,720 1357,722 1353,724 1349,726 1345,728 1341,730 1337,732 1340,713 1341,688 1340,667 1333,659 1327,669 1327,690 1330,714 1335,733 1331,735 1326,737 1322,740 1318,742 1313,744 1309,746 1305,749 1301,751 1305,732 1308,707 1308,685 1301,676 1293,686 1291,708 1294,733 1298,752 1294,755 1289,757 1285,760 1281,763 1277,766 1273,769 1269,771 1265,774 1268,754 1271,728 1271,706 1265,697 1257,708 1255,731 1258,756 1262,775 1258,778 1254,781 1250,784 1246,787 1243,790 1239,793 1235,797 1232,800 1236,779 1239,753 1238,731 1232,722 1224,733 1222,756 1225,782 1229,802 1221,809 1213,816 1206,823 1200,829 1204,809 1207,784 1206,762 1200,754 1192,764 1191,787 1194,812 1198,831 1187,843 1179,854 1173,863 1169,870 1118,861 1072,851 1030,840 993,830 961,819 932,808 908,797 887,786 870,776 856,766 844,757 836,748 830,741 826,734 825,729 825,725 829,721 839,714 853,705 872,694 894,681 919,667 947,651 977,634 1007,617 1038,599 1069,581 1099,563 1128,545 1155,527 1179,509 1200,493 1204,490 1208,486 1212,483 1216,480 1220,477 1224,474 1229,470 1233,467 1236,469 1239,472 1244,475 1249,478 1255,482 1262,487 1269,491 1278,496 1279,505 1281,516 1284,529 1288,542 1292,554 1298,564 1304,570 1310,572 1313,568 1313,561 1310,551 1305,539 1299,527 1292,515 1286,505 1281,497 1285,499 1290,501 1294,503 1299,505 1304,507 1310,509 1315,511 1320,513 1321,523 1323,535 1326,548 1330,561 1335,573 1340,583 1346,589 1352,590 1356,587 1356,579 1353,569 1348,558 1341,545 1335,533 1329,522 1324,514 1328,516 1333,517 1337,519 1342,520 1347,522 1352,523 1357,525 1363,527 1364,536 1366,548 1369,561 1373,574 1378,586 1383,596 1389,602 1395,603 1399,600 1398,592 1395,582 1390,570 1384,558 1377,546 1371,536 1366,528 1371,529 1376,530 1381,531 1386,532 1392,533 1397,534 1402,535 1408,536 1409,545 1410,556 1413,569 1417,582 1422,594 1427,604 1433,610 1439,611 1443,608 1443,600 1439,590 1434,578 1428,566 1421,554 1415,544 1410,537 1415,538 1420,538 1425,539 1430,540 1436,541 1441,541 1446,542 1452,542 1454,562 1459,587 1467,608 1477,615 1480,612 1481,604 1478,595 1474,583 1469,571 1463,559 1458,549 1454,542 1459,542 1463,543 1468,543 1473,543 1477,544 1482,544 1487,545 1492,545 1495,563 1501,586 1510,606 1521,612 1524,609 1524,602 1522,593 1517,583 1511,572 1505,561 1500,552 1495,545 1500,545 1505,545 1509,545 1514,545 1519,545 1524,545 1529,545 1534,545 1535,562 1540,582 1546,599 1555,605 1558,602 1558,597 1556,589 1553,579 1548,569 1544,560 1539,551 1536,545 1540,545 1544,545 1548,545 1552,544 1556,544 1560,544 1564,543 1568,543 1569,558 1573,575 1579,590 1586,595 1589,588 1585,573 1577,556 1570,543 1577,543 1584,542 1590,542 1597,541 1599,553 1603,568 1609,580 1615,584 1617,578 1613,565 1606,552 1599,541 1601,541 1604,540 1607,540 1609,540 1629,532 1624,533 1619,533 1614,533 1609,534 1613,530 1618,526 1624,520 1630,513 1635,507 1638,502 1639,498 1637,495 1629,497 1620,508 1613,522 1608,534 1601,535 1595,535 1588,535 1581,536 1585,532 1591,526 1597,519 1602,511 1607,504 1611,498 1612,493 1610,490 1606,490 1601,493 1596,499 1592,506 1588,514 1584,522 1581,530 1579,536 1575,536 1570,536 1566,536 1562,536 1558,537 1554,537 1550,537 1546,537 1551,532 1557,525 1564,517 1571,508 1577,499 1582,492 1583,486 1581,482 1576,482 1570,486 1565,493 1559,501 1554,511 1550,521 1547,530 1545,537 1540,537 1535,537 1530,537 1526,537 1521,537 1516,537 1512,536 1507,536 1512,531 1520,523 1528,514 1537,504 1544,495 1549,486 1550,479 1548,475 1542,475 1536,479 1529,486 1523,496 1517,507 1511,518 1507,528 1505,536 1500,536 1495,535 1490,535 1485,535 1480,535 1475,534 1470,534 1465,533 1471,527 1479,518 1488,509 1496,499 1504,489 1509,480 1511,473 1509,469 1503,469 1496,473 1489,481 1482,491 1476,502 1470,514 1466,524 1463,533 1458,533 1453,532 1448,532 1443,531 1437,530 1432,529 1427,529 1422,528 1429,521 1437,513 1446,503 1455,492 1463,482 1468,473 1470,466 1467,462 1461,461 1454,466 1447,474 1440,484 1433,496 1427,508 1423,518 1420,527 1414,526 1409,525 1404,524 1398,523 1393,521 1388,520 1383,518 1378,517 1384,511 1392,502 1401,492 1410,482 1418,471 1423,462 1425,455 1422,450 1416,450 1409,454 1402,463 1395,473 1389,485 1383,497 1379,508 1376,517 1370,515 1364,514 1358,512 1353,510 1348,509 1343,507 1338,506 1333,504 1340,498 1348,490 1358,480 1367,470 1375,460 1381,451 1383,444 1381,440 1375,440 1367,444 1360,452 1352,462 1345,473 1339,484 1334,495 1331,503 1326,501 1320,499 1315,497 1310,495 1306,493 1301,491 1297,489 1292,487 1299,481 1307,473 1317,463 1327,453 1335,443 1340,434 1343,427 1340,423 1334,423 1327,427 1319,435 1312,445 1305,456 1298,467 1293,478 1290,486 1281,482 1273,477 1265,473 1259,469 1254,466 1250,463 1247,461 1245,459 1267,443 1288,428 1309,415 1330,402 1350,391 1369,381 1388,371 1406,362 1424,355 1441,348 1457,342 1472,336 1487,331 1501,327 1514,323 1526,320 1526,318 1526,317 1526,315 1526,313 1506,316 1487,320 1467,326 1448,331 1429,338 1410,345 1391,353 1372,361 1354,369 1336,378 1318,388 1301,397 1284,406 1268,416 1252,426 1237,435 1236,430 1234,421 1231,409 1229,393 1237,393 1246,393 1257,391 1267,389 1277,387 1285,383 1290,379 1292,374 1290,371 1284,371 1275,372 1265,375 1255,379 1245,384 1236,388 1229,391 1229,383 1229,374 1229,366 1229,357 1237,357 1246,357 1257,355 1267,354 1277,351 1285,348 1290,344 1291,339 1289,336 1283,335 1275,337 1265,340 1255,344 1245,348 1236,352 1229,355 1230,347 1231,338 1233,329 1234,320 1241,320 1251,320 1261,320 1272,318 1282,316 1290,313 1295,309 1297,305 1295,302 1289,301 1280,302 1270,305 1260,308 1250,311 1241,315 1234,317 1236,309 1237,300 1239,292 1240,283 1247,284 1257,283 1268,283 1278,281 1288,279 1297,277 1302,273 1304,268 1301,265 1295,264 1287,266 1277,268 1266,272 1256,275 1247,279 1241,281 1243,273 1245,266 1247,258 1249,249 1256,250 1265,250 1275,249 1286,248 1296,246 1304,243 1309,239 1311,235 1309,232 1303,232 1294,233 1285,235 1274,238 1264,241 1256,245 1250,247 1252,240 1254,233 1257,225 1260,218 1266,218 1275,218 1285,217 1295,216 1304,214 1312,212 1317,208 1319,204 1317,201 1311,201 1303,202 1293,204 1283,207 1274,210 1266,214 1260,216 1262,209 1265,202 1268,195 1271,188 1277,189 1284,189 1293,189 1302,188 1310,187 1317,184 1322,182 1323,178 1321,175 1316,175 1309,175 1301,177 1292,180 1284,182 1277,185 1272,187 1274,180 1277,174 1280,168 1282,162 1287,163 1294,163 1301,163 1309,162 1315,161 1321,159 1325,157 1326,154 1324,152 1320,151 1314,151 1308,153 1300,155 1293,157 1287,159 1283,161 1285,156 1288,151 1290,147 1293,142 1297,142 1303,142 1309,141 1316,140 1322,139 1327,137 1330,134 1331,131 1329,129 1326,129 1321,130 1315,132 1309,134 1303,137 1297,139 1293,141 1295,137 1297,134 1299,130 1302,127 1288,139 1287,141 1287,142 1286,144 1285,146 1279,138 1271,128 1263,121 1258,121 1257,124 1259,127 1261,131 1265,135 1270,139 1275,142 1280,145 1284,147 1281,152 1279,157 1276,161 1274,166 1271,162 1267,157 1262,152 1257,146 1252,142 1247,139 1244,138 1241,139 1240,142 1242,146 1246,150 1251,155 1257,159 1263,162 1268,166 1273,168 1271,174 1268,180 1265,186 1262,192 1259,187 1254,181 1248,174 1242,168 1236,162 1231,158 1226,157 1223,158 1222,162 1225,167 1230,172 1236,177 1243,182 1250,187 1257,191 1262,194 1259,201 1256,208 1253,215 1250,222 1246,217 1241,210 1235,202 1228,194 1222,188 1216,183 1211,181 1207,183 1206,187 1209,193 1214,199 1221,205 1228,211 1236,216 1244,221 1250,224 1247,231 1244,239 1241,246 1239,254 1235,248 1229,241 1222,233 1215,226 1208,219 1201,214 1196,212 1192,214 1191,218 1194,224 1200,230 1207,236 1216,242 1224,248 1232,253 1239,256 1237,264 1234,272 1232,279 1229,287 1225,281 1220,274 1213,265 1206,257 1199,249 1192,244 1187,241 1183,243 1182,248 1185,254 1191,261 1198,268 1206,275 1215,281 1223,286 1229,289 1227,298 1225,306 1224,315 1222,323 1218,317 1212,309 1205,300 1198,292 1191,284 1185,279 1180,277 1176,278 1175,283 1178,289 1183,296 1191,303 1199,310 1208,317 1216,322 1222,326 1221,335 1220,343 1219,351 1219,359 1215,353 1209,345 1202,336 1195,327 1188,320 1181,314 1176,312 1172,313 1171,318 1174,325 1179,332 1187,339 1195,346 1204,353 1212,358 1219,361 1218,370 1218,379 1218,388 1219,396 1215,390 1209,382 1202,373 1195,364 1188,357 1182,352 1177,349 1173,351 1172,356 1175,362 1180,369 1188,376 1196,383 1205,390 1213,395 1219,398 1220,414 1222,426 1224,435 1226,441 1217,447 1208,453 1199,459 1190,465 1182,470 1174,475 1166,480 1158,485 1139,497 1116,511 1091,526 1062,543 1032,560 1000,578 968,596 935,614 903,632 871,649 841,664 813,678 788,691 766,701 748,708 734,713 722,716 706,720 686,725 664,730 639,735 612,741 584,746 556,752 527,758 498,763 471,769 445,774 421,779 399,783 381,786 366,789 383,774 402,757 424,739 446,721 468,704 489,688 508,676 524,668 524,658 516,662 507,667 497,674 486,681 475,690 463,699 450,708 438,718 425,728 412,738 400,748 389,758 378,767 368,776 359,783 351,790 345,791 341,791 339,792 338,792 348,773 360,749 373,723 385,697 396,673 406,653 412,640 414,635 408,593 402,609 392,630 379,656 364,684 348,713 331,741 314,767 298,789 296,774 294,755 290,735 286,713 281,693 275,673 267,657 258,644 250,646 259,659 267,677 273,698 278,720 282,743 286,765 288,784 290,800 287,803 286,804 285,805 283,807 273,815 259,825 242,836 221,848 199,861 175,874 151,887 126,899 102,912 79,923 57,934 38,943 23,950 10,956 3,960 0,961 73,981 94,966 114,953 135,941 156,929 177,918 200,908 223,898 247,889 272,879 298,870 326,861 356,851 387,841 420,830 455,819 493,807 530,796 564,788 594,782 621,779 645,778 667,779 686,780 702,783 715,787 727,791 736,796 743,800 749,804 752,807 754,809 755,810 771,828 787,851 801,879 814,910 826,944 836,981 846,1019 855,1058 852,1059 849,1061 845,1062 842,1064 837,1066 833,1069 827,1072 822,1075 815,1071 807,1067 797,1064 786,1060 776,1058 767,1057 761,1058 757,1062 758,1066 762,1069 770,1072 780,1074 791,1075 802,1076 812,1077 819,1077 812,1081 805,1085 798,1090 791,1095 785,1092 776,1088 765,1084 755,1081 744,1079 735,1078 728,1079 725,1083 726,1087 731,1090 739,1092 749,1094 760,1095 772,1096 781,1097 789,1097 783,1102 777,1107 770,1112 764,1118 757,1114 748,1110 738,1107 727,1104 717,1101 708,1101 702,1102 698,1105 699,1109 704,1112 712,1115 722,1116 733,1118 744,1118 754,1119 762,1119 756,1125 750,1131 743,1137 737,1144 731,1140 722,1136 712,1133 702,1130 692,1127 683,1127 676,1128 672,1131 673,1135 678,1139 686,1141 697,1143 708,1145 719,1145 728,1146 735,1146 730,1152 725,1158 719,1164 714,1171 708,1167 700,1163 690,1159 681,1156 671,1153 663,1152 657,1153 653,1156 654,1160 659,1163 667,1166 676,1168 687,1169 697,1171 706,1171 713,1172 708,1178 704,1184 699,1190 694,1197 688,1194 680,1190 671,1187 662,1184 653,1182 645,1182 639,1183 636,1186 637,1189 641,1192 649,1194 658,1196 668,1197 678,1198 686,1198 693,1198 689,1205 684,1211 680,1218 675,1225 670,1222 663,1219 655,1215 648,1212 640,1210 633,1209 629,1210 626,1213 626,1216 630,1219 636,1221 644,1222 652,1224 661,1225 668,1226 674,1226 671,1231 668,1237 664,1243 661,1248 656,1245 651,1243 644,1240 637,1237 631,1235 625,1234 621,1235 619,1237 619,1240 622,1242 627,1244 634,1246 641,1248 648,1249 655,1249 660,1250 658,1254 655,1259 652,1263 650,1268 646,1266 641,1264 635,1262 629,1260 623,1259 618,1258 614,1259 612,1261 613,1263 616,1265 620,1267 626,1268 632,1269 639,1269 644,1270 649,1270 648,1272 647,1274 646,1276 645,1278 642,1295 644,1291 646,1288 647,1284 649,1281 651,1290 654,1303 658,1313 662,1316 664,1310 661,1299 655,1288 650,1280 653,1274 656,1269 658,1265 661,1260 663,1271 667,1285 672,1297 678,1300 680,1293 676,1281 668,1268 661,1259 665,1253 668,1248 671,1242 675,1237 678,1250 683,1266 690,1280 697,1284 699,1281 699,1276 697,1269 694,1261 689,1254 684,1247 680,1240 676,1236 680,1229 685,1223 689,1217 694,1211 697,1225 702,1245 709,1261 716,1265 719,1261 719,1255 717,1248 713,1239 709,1230 704,1222 699,1214 695,1209 700,1202 704,1196 709,1190 714,1184 717,1199 723,1220 729,1236 737,1241 740,1237 740,1231 738,1223 734,1213 730,1204 724,1195 719,1187 715,1182 720,1175 726,1169 731,1163 736,1158 739,1174 745,1195 752,1212 761,1217 764,1213 764,1207 762,1198 758,1189 753,1179 748,1170 742,1162 738,1156 744,1150 751,1143 757,1137 763,1131 767,1148 773,1169 780,1186 788,1191 791,1187 791,1181 789,1172 785,1163 780,1153 775,1144 769,1136 765,1130 772,1124 778,1118 785,1113 791,1108 794,1124 799,1145 805,1163 813,1168 816,1164 817,1157 815,1149 812,1139 807,1130 802,1121 797,1113 793,1107 800,1101 808,1096 815,1092 822,1088 825,1104 829,1126 835,1144 843,1149 846,1145 846,1138 845,1130 841,1120 837,1110 832,1101 827,1093 823,1087 829,1084 834,1081 839,1079 844,1076 848,1075 852,1073 855,1072 858,1071 867,1119 875,1165 881,1207 886,1245 890,1277 893,1301 894,1317 895,1322 893,1253 888,1188 881,1127 872,1070 875,1070 879,1071 883,1071 888,1072 893,1073 899,1074 905,1075 912,1076 908,1092 905,1114 905,1133 912,1143 918,1135 919,1116 917,1093 914,1076 918,1077 922,1078 926,1079 930,1081 934,1082 938,1083 943,1085 947,1086 943,1102 940,1124 940,1143 947,1153 954,1145 954,1126 952,1103 949,1086 953,1088 958,1089 962,1091 967,1092 971,1094 975,1096 980,1098 984,1100 979,1117 975,1138 974,1158 980,1168 986,1161 988,1141 987,1118 986,1101 990,1103 994,1104 997,1106 1001,1108 1005,1110 1009,1112 1013,1114 1017,1116 1012,1133 1008,1154 1008,1174 1014,1184 1020,1176 1022,1157 1020,1134 1019,1117 1023,1119 1027,1121 1030,1123 1034,1126 1038,1128 1042,1130 1045,1132 1049,1135 1044,1151 1040,1172 1039,1191 1045,1200 1051,1193 1053,1175 1052,1153 1050,1136 1057,1141 1064,1145 1070,1150 1077,1155 1072,1170 1068,1191 1068,1209 1074,1218 1080,1211 1081,1193 1080,1171 1078,1156 1084,1161 1091,1165 1098,1170 1104,1175 1099,1188 1095,1206 1094,1222 1099,1230 1104,1224 1106,1208 1106,1190 1105,1176 1110,1180 1116,1185 1121,1189 1126,1194 1122,1205 1118,1220 1118,1233 1122,1239 1127,1234 1128,1221 1128,1206 1127,1195 1131,1198 1135,1202 1139,1206 1143,1211 1140,1220 1139,1233 1139,1245 1143,1251 1147,1246 1147,1235 1145,1221 1144,1211 1147,1214 1150,1217 1153,1220 1156,1223 1147,1207 1146,1205 1144,1203 1143,1202 1141,1200 1146,1199 1151,1197 1157,1194 1164,1192 1169,1189 1173,1186 1175,1183 1175,1181 1172,1179 1168,1180 1164,1182 1158,1184 1153,1188 1148,1192 1143,1196 1140,1199 1136,1195 1132,1191 1128,1188 1124,1184 1129,1182 1135,1179 1142,1176 1149,1172 1155,1168 1159,1165 1162,1162 1161,1159 1158,1158 1153,1158 1148,1161 1142,1165 1137,1169 1131,1174 1127,1179 1123,1183 1118,1178 1113,1174 1107,1169 1102,1165 1108,1163 1115,1160 1123,1156 1131,1152 1138,1148 1144,1144 1147,1140 1146,1136 1142,1134 1137,1135 1131,1138 1124,1143 1117,1148 1111,1154 1105,1160 1101,1164 1094,1159 1088,1154 1081,1150 1075,1145 1081,1143 1090,1139 1099,1135 1109,1130 1117,1126 1124,1121 1128,1117 1127,1113 1123,1111 1117,1112 1109,1115 1101,1120 1093,1126 1085,1132 1079,1138 1074,1143 1067,1138 1061,1133 1054,1129 1047,1124 1054,1121 1062,1118 1072,1113 1082,1108 1091,1103 1098,1098 1102,1093 1101,1089 1096,1087 1090,1088 1082,1092 1074,1098 1065,1104 1057,1111 1051,1118 1046,1123 1042,1120 1038,1118 1034,1116 1031,1114 1027,1111 1023,1109 1019,1107 1016,1105 1023,1103 1032,1100 1043,1095 1053,1091 1062,1086 1070,1081 1073,1076 1073,1072 1068,1069 1061,1070 1053,1074 1044,1079 1035,1085 1026,1092 1019,1099 1014,1104 1010,1102 1006,1100 1002,1098 998,1096 994,1094 991,1092 987,1090 983,1088 990,1085 1000,1082 1010,1077 1021,1072 1030,1067 1038,1062 1041,1058 1041,1054 1036,1052 1029,1053 1021,1056 1012,1062 1002,1068 994,1075 986,1082 981,1087 977,1085 973,1083 969,1082 965,1080 960,1079 956,1077 952,1076 948,1075 956,1072 966,1068 976,1063 987,1059 996,1054 1003,1049 1007,1044 1006,1040 1002,1038 995,1039 987,1042 977,1048 968,1054 959,1061 951,1068 946,1074 942,1073 937,1071 933,1070 928,1068 924,1067 920,1065 916,1064 912,1063 919,1061 929,1057 939,1053 950,1048 959,1044 967,1039 970,1034 970,1030 965,1028 958,1029 950,1032 940,1037 931,1044 922,1051 915,1057 910,1063 903,1062 897,1061 892,1060 886,1059 881,1059 877,1058 873,1058 870,1058 857,997 844,943 830,897 818,859 807,829 799,806 795,791 795,783 800,780 806,779 813,781 821,785 829,790 838,796 847,802 857,807 863,809 870,813 879,817 890,821 903,826 918,832 934,837 952,843 972,849 994,855 1018,861 1044,867 1071,873 1100,878 1131,883 1164,887 1163,894 1162,902 1160,912 1160,924 1154,928 1146,933 1138,940 1129,947 1122,955 1117,963 1114,969 1115,974 1119,975 1124,972 1130,967 1137,959 1144,950 1150,942 1155,933 1159,927 1159,935 1160,944 1160,952 1161,961 1155,965 1147,971 1139,977 1130,985 1123,993 1118,1000 1115,1007 1116,1012 1120,1013 1125,1011 1132,1005 1139,997 1145,988 1152,978 1157,970 1161,964 1163,972 1164,980 1166,988 1167,997 1160,1001 1153,1007 1144,1013 1136,1021 1129,1028 1124,1035 1121,1041 1122,1046 1126,1047 1131,1045 1137,1039 1144,1031 1151,1023 1157,1014 1163,1005 1167,999 1169,1007 1171,1016 1173,1024 1175,1033 1169,1037 1161,1042 1153,1049 1145,1056 1138,1064 1133,1071 1130,1077 1131,1082 1135,1083 1140,1080 1147,1074 1154,1066 1160,1058 1167,1049 1172,1041 1176,1035 1178,1043 1181,1050 1183,1058 1186,1066 1180,1069 1172,1074 1164,1080 1156,1087 1148,1094 1143,1100 1140,1106 1141,1110 1145,1112 1150,1109 1157,1104 1164,1097 1171,1089 1178,1081 1183,1074 1187,1068 1189,1075 1192,1083 1195,1090 1198,1097 1192,1100 1185,1105 1178,1111 1170,1118 1164,1125 1159,1131 1157,1137 1158,1141 1162,1142 1167,1140 1173,1135 1179,1128 1185,1120 1191,1112 1196,1105 1199,1099 1202,1106 1205,1113 1208,1120 1212,1127 1207,1130 1200,1134 1193,1139 1187,1145 1181,1150 1177,1156 1175,1160 1176,1164 1179,1165 1183,1163 1188,1159 1194,1153 1199,1146 1204,1139 1209,1133 1212,1128 1215,1134 1218,1140 1221,1146 1224,1152 1220,1155 1214,1158 1208,1162 1203,1167 1198,1171 1194,1175 1192,1179 1193,1182 1196,1183 1199,1182 1203,1179 1208,1174 1213,1169 1218,1163 1222,1158 1225,1154 1228,1158 1231,1163 1234,1167 1237,1172 1233,1174 1228,1178 1223,1181 1218,1186 1214,1190 1212,1194 1210,1197 1211,1200 1216,1200 1224,1193 1232,1182 1238,1174 1239,1175 1240,1177 1241,1178 1242,1180 1254,1192 1252,1188 1250,1185 1248,1182 1246,1178 1250,1180 1255,1182 1261,1184 1268,1186 1274,1188 1279,1189 1282,1188 1284,1186 1283,1183 1279,1181 1274,1179 1268,1178 1262,1177 1255,1177 1250,1177 1246,1177 1243,1172 1241,1168 1238,1163 1235,1159 1240,1160 1246,1162 1253,1164 1260,1166 1266,1167 1272,1167 1276,1166 1277,1164 1276,1161 1272,1159 1267,1157 1260,1156 1253,1156 1246,1156 1240,1156 1235,1157 1231,1152 1228,1146 1225,1140 1222,1133 1228,1135 1235,1137 1243,1140 1252,1142 1260,1143 1267,1144 1271,1143 1273,1140 1272,1136 1267,1133 1260,1132 1252,1131 1243,1130 1235,1131 1227,1131 1221,1132 1218,1125 1215,1118 1212,1112 1209,1105 1215,1107 1223,1110 1232,1113 1242,1115 1252,1117 1260,1118 1266,1117 1268,1114 1266,1110 1261,1107 1253,1104 1244,1103 1233,1102 1223,1102 1215,1102 1208,1103 1205,1096 1202,1088 1199,1081 1197,1074 1203,1076 1212,1079 1222,1082 1233,1085 1242,1087 1251,1087 1257,1086 1259,1083 1257,1079 1251,1076 1243,1073 1233,1072 1223,1071 1212,1071 1203,1071 1196,1072 1194,1064 1191,1056 1189,1048 1187,1040 1193,1042 1202,1045 1212,1049 1223,1052 1233,1054 1242,1055 1248,1054 1250,1050 1248,1046 1243,1042 1234,1040 1224,1038 1213,1037 1202,1037 1193,1037 1186,1038 1184,1030 1182,1021 1180,1013 1178,1005 1185,1007 1194,1010 1205,1013 1216,1016 1226,1018 1235,1018 1241,1017 1243,1014 1241,1009 1235,1006 1227,1003 1217,1002 1206,1001 1195,1001 1185,1002 1178,1003 1177,993 1175,984 1174,976 1173,968 1179,970 1188,974 1198,977 1209,980 1219,983 1228,984 1234,983 1236,980 1234,976 1228,972 1220,969 1210,967 1200,965 1189,965 1180,965 1173,965 1172,956 1172,948 1171,940 1171,932 1177,935 1186,938 1197,942 1207,945 1217,948 1226,949 1232,948 1234,945 1232,940 1227,936 1219,933 1209,931 1198,930 1188,929 1178,929 1171,930 1172,915 1173,903 1175,894 1176,889 1176,889 1176,889 1176,889 1177,889 1190,890 1203,892 1217,894 1230,896 1244,899 1258,901 1272,904 1287,907 1301,910 1315,913 1330,916 1344,920 1359,924 1373,927 1388,931 1402,935 1401,943 1400,953 1399,966 1399,981 1392,985 1383,992 1374,1000 1364,1009 1356,1018 1350,1027 1348,1035 1349,1041 1353,1042 1359,1039 1366,1032 1374,1022 1382,1012 1389,1001 1395,991 1399,984 1400,993 1401,1002 1402,1013 1403,1024 1396,1029 1386,1036 1377,1044 1367,1053 1359,1063 1353,1072 1351,1079 1352,1085 1356,1086 1363,1083 1370,1076 1378,1066 1385,1055 1393,1044 1399,1035 1403,1027 1405,1036 1406,1045 1408,1055 1410,1065 1403,1070 1394,1077 1385,1085 1375,1094 1367,1103 1361,1112 1359,1119 1360,1125 1365,1126 1371,1123 1379,1116 1386,1107 1394,1096 1401,1085 1407,1075 1411,1068 1413,1078 1416,1087 1419,1097 1422,1107 1415,1111 1406,1118 1397,1126 1388,1135 1380,1144 1374,1153 1372,1160 1373,1166 1378,1167 1384,1164 1391,1157 1398,1147 1406,1137 1413,1126 1419,1116 1423,1109 1426,1118 1429,1127 1433,1136 1437,1146 1430,1150 1421,1156 1411,1163 1402,1171 1394,1179 1389,1187 1386,1194 1387,1199 1391,1201 1397,1198 1404,1191 1412,1183 1420,1173 1427,1163 1433,1155 1438,1148 1441,1156 1445,1164 1449,1173 1453,1181 1446,1185 1438,1191 1430,1198 1422,1206 1414,1215 1409,1222 1407,1229 1408,1234 1412,1236 1418,1233 1424,1226 1431,1218 1438,1208 1445,1198 1450,1190 1454,1183 1458,1191 1462,1199 1466,1207 1470,1216 1464,1220 1457,1225 1449,1231 1442,1237 1435,1244 1430,1250 1428,1256 1429,1260 1433,1261 1438,1259 1444,1254 1450,1247 1456,1239 1462,1231 1467,1224 1471,1218 1475,1224 1479,1231 1482,1237 1486,1244 1481,1247 1475,1251 1468,1256 1462,1262 1457,1267 1453,1273 1451,1278 1452,1282 1455,1283 1459,1281 1464,1277 1469,1271 1475,1264 1480,1257 1484,1251 1488,1246 1491,1251 1494,1256 1497,1261 1501,1266 1496,1269 1491,1273 1486,1278 1481,1283 1476,1288 1473,1293 1472,1298 1473,1301 1479,1300 1488,1291 1496,1279 1502,1268 1503,1270 1505,1272 1506,1274 1508,1277 1523,1290 1521,1286 1518,1281 1516,1277 1513,1273 1517,1275 1524,1278 1531,1280 1538,1282 1545,1284 1551,1284 1555,1283 1557,1281 1555,1278 1551,1275 1545,1273 1538,1272 1531,1271 1524,1271 1517,1271 1513,1272 1509,1267 1506,1261 1502,1256 1498,1251 1504,1252 1511,1254 1520,1256 1528,1258 1536,1259 1543,1259 1547,1258 1549,1255 1547,1251 1543,1249 1536,1247 1528,1247 1520,1247 1511,1247 1503,1248 1497,1249 1493,1242 1490,1236 1486,1230 1483,1223 1489,1225 1497,1227 1507,1229 1518,1231 1527,1232 1535,1232 1541,1230 1543,1227 1541,1223 1535,1220 1527,1219 1518,1218 1507,1218 1497,1219 1489,1220 1482,1221 1478,1213 1474,1205 1470,1197 1466,1189 1473,1191 1482,1194 1494,1197 1505,1200 1517,1202 1526,1202 1533,1201 1535,1197 1533,1192 1526,1189 1517,1186 1506,1185 1494,1184 1483,1185 1473,1186 1465,1187 1461,1179 1458,1170 1454,1162 1450,1154 1458,1156 1468,1159 1480,1162 1493,1164 1504,1166 1514,1166 1521,1165 1523,1161 1521,1156 1514,1153 1504,1151 1493,1149 1480,1149 1468,1150 1458,1151 1450,1152 1446,1142 1443,1133 1440,1124 1437,1115 1444,1117 1455,1121 1467,1124 1480,1127 1492,1129 1502,1129 1508,1127 1511,1123 1508,1118 1502,1115 1492,1112 1480,1111 1467,1110 1455,1111 1444,1112 1436,1113 1432,1103 1429,1093 1426,1083 1424,1074 1432,1076 1443,1079 1456,1082 1468,1085 1480,1087 1491,1087 1497,1085 1500,1081 1498,1076 1491,1072 1481,1069 1469,1068 1456,1068 1443,1069 1432,1070 1423,1072 1421,1061 1419,1050 1418,1040 1416,1031 1424,1033 1434,1037 1446,1040 1459,1044 1471,1046 1481,1047 1487,1046 1490,1042 1488,1037 1481,1033 1471,1030 1460,1028 1447,1027 1435,1027 1424,1027 1415,1028 1414,1018 1413,1007 1413,998 1412,989 1420,992 1430,995 1442,999 1455,1002 1467,1005 1477,1006 1483,1004 1486,1000 1484,995 1477,991 1467,988 1456,986 1443,985 1431,985 1420,985 1412,986 1412,970 1413,956 1414,946 1415,939 1431,943 1447,948 1462,952 1478,956 1493,961 1507,965 1521,969 1535,974 1548,978 1560,982 1572,986 1584,989 1594,993 1604,997 1613,1000 1621,1003 1621,1008 1623,1019 1627,1036 1634,1057 1637,1067 1641,1077 1646,1087 1651,1097 1656,1106 1661,1115 1666,1124 1672,1134 1667,1140 1660,1149 1653,1160 1647,1172 1642,1183 1639,1194 1638,1202 1642,1208 1647,1208 1652,1202 1657,1192 1661,1180 1665,1166 1668,1153 1671,1142 1672,1135 1677,1144 1683,1153 1689,1162 1695,1170 1690,1176 1683,1185 1677,1196 1671,1207 1666,1219 1663,1229 1662,1237 1665,1242 1670,1242 1675,1236 1680,1227 1684,1215 1688,1202 1692,1190 1694,1179 1696,1172 1702,1180 1709,1187 1715,1195 1722,1203 1728,1210 1735,1218 1741,1225 1748,1233 1755,1240 1762,1246 1768,1253 1775,1260 1782,1265 1788,1271 1794,1277 1800,1282 1796,1286 1792,1292 1787,1299 1782,1307 1779,1315 1777,1323 1776,1328 1779,1332 1786,1328 1793,1312 1798,1294 1801,1283 1806,1287 1811,1291 1816,1296 1821,1300 1823,1301 1824,1302 1826,1304 1827,1305 1834,1306 1832,1304 1831,1303 1829,1301 1827,1300 1832,1300 1838,1301 1846,1301 1855,1300 1862,1300 1868,1298 1872,1297 1873,1294 1870,1291 1866,1290 1859,1290 1852,1291 1844,1293 1837,1296 1830,1298 1826,1300 1821,1296 1816,1291 1811,1287 1806,1283 1811,1283 1818,1283 1828,1282 1838,1281 1847,1280 1854,1278 1859,1275 1860,1271 1857,1268 1852,1267 1844,1268 1835,1270 1826,1273 1818,1276 1811,1280 1806,1282 1799,1276 1793,1270 1787,1265 1781,1259 1774,1252 1767,1246 1760,1240 1754,1233 1747,1226 1741,1218 1734,1211 1728,1203 1721,1195 1714,1186 1708,1178 1701,1170 1708,1170 1719,1170 1732,1170 1747,1170 1760,1169 1771,1167 1778,1164 1780,1159 1775,1155 1767,1153 1756,1153 1743,1155 1730,1158 1718,1162 1708,1166 1701,1169 1695,1161 1689,1152 1684,1144 1679,1135 1685,1135 1696,1136 1709,1136 1723,1136 1736,1135 1747,1133 1754,1129 1756,1124 1752,1120 1743,1118 1732,1118 1720,1120 1707,1124 1695,1128 1685,1132 1678,1135 1672,1125 1667,1116 1662,1106 1658,1097 1664,1097 1675,1098 1688,1098 1702,1097 1715,1096 1726,1094 1733,1091 1735,1086 1731,1082 1723,1080 1712,1080 1699,1082 1686,1085 1674,1089 1664,1093 1657,1097 1653,1087 1649,1077 1645,1067 1642,1058 1648,1058 1659,1058 1672,1058 1686,1058 1699,1057 1710,1055 1718,1052 1719,1047 1715,1043 1707,1041 1696,1041 1683,1043 1670,1046 1658,1050 1649,1054 1642,1057 1635,1038 1631,1023 1629,1012 1628,1005 1630,1006 1631,1006 1633,1006 1634,1007 1657,1015 1642,1007 1639,1005 1636,1004 1633,1002 1629,1000 1631,998 1634,995 1638,992 1643,988 1649,983 1656,978 1664,973 1673,967 1675,965 1679,963 1682,961 1686,959 1691,956 1697,953 1703,950 1710,947 1715,945 1719,943 1724,941 1729,938 1734,936 1739,934 1744,932 1750,929 1753,936 1758,946 1765,956 1774,967 1783,977 1791,984 1799,988 1805,987 1807,982 1803,975 1795,966 1786,957 1775,948 1764,939 1756,933 1751,929 1755,927 1760,926 1764,924 1769,923 1774,921 1779,920 1784,918 1790,917 1795,916 1800,915 1805,913 1810,912 1815,911 1820,909 1825,908 1831,907 1836,906 1840,905 1845,905 1850,904 1855,903 1860,902 1865,902 1870,901 1873,907 1878,916 1885,926 1892,936 1900,945 1908,951 1915,955 1921,954 1923,950 1919,943 1913,935 1904,926 1894,918 1884,910 1876,904 1871,901 1875,900 1879,900 1884,899 1888,899 1893,898 1897,898 1902,897 1906,897 1909,903 1913,910 1919,919 1925,928 1932,936 1939,942 1945,945 1950,945 1951,941 1949,935 1943,928 1935,920 1927,912 1919,905 1912,900 1907,897 1911,897 1916,896 1920,896 1924,896 1929,895 1933,895 1937,895 1941,895 1943,900 1947,907 1952,915 1957,923 1962,930 1968,936 1973,939 1977,938 1979,934 1977,929 1972,922 1966,915 1958,909 1951,902 1946,898 1942,895 1949,895 1955,894 1961,894 1968,894 1970,898 1974,904 1978,910 1983,917 1988,922 1993,926 1997,929 2001,928 2002,925 2000,921 1996,916 1991,911 1984,905 1978,901 1973,897 1969,894"/>
<polygon class="pen1 brush2" points="1922,832 1913,839 1907,858 1904,878 1904,893 1906,889 1910,881 1915,872 1919,861 1923,851 1925,842 1925,835 1922,832"/>
</g>
</svg>
