<?xml version="1.0" encoding="UTF-8" standalone="no"?>
<!DOCTYPE svg PUBLIC "-//W3C//DTD SVG 1.0//EN" "http://www.w3.org/TR/2001/REC-SVG-20010904/DTD/svg10.dtd">
<svg xmlns="http://www.w3.org/2000/svg" xmlns:xlink="http://www.w3.org/1999/xlink" fill-rule="evenodd" height="1.985in" preserveAspectRatio="none" stroke-linecap="round" viewBox="0 0 1355 1985" width="1.355in">
<style type="text/css">
.brush0 { fill: rgb(255,255,255); }
.pen0 { stroke: rgb(0,0,0); stroke-width: 1; stroke-linejoin: round; }
.brush1 { fill: none; }
.pen1 { stroke: none; }
.brush2 { fill: rgb(0,0,0); }
</style>
<g>
<polygon class="pen1 brush2" points="614,1334 614,1415 615,1529 618,1647 625,1737 626,1736 629,1732 634,1725 641,1716 649,1703 660,1686 672,1666 686,1641 676,1337 691,1316 705,1285 718,1245 729,1200 739,1151 747,1100 755,1050 761,1003 752,991 742,978 731,965 719,952 705,941 691,931 677,923 662,917 641,919 622,930 603,947 586,968 571,992 558,1017 546,1039 537,1059 544,1100 551,1142 560,1183 568,1222 578,1258 589,1289 601,1315 614,1334 614,1334"/>
<polygon class="pen1 brush2" points="811,1243 811,1240 813,1232 814,1220 815,1203 816,1183 815,1160 813,1134 810,1106 804,1078 796,1048 785,1018 770,989 752,960 729,933 702,908 670,885 647,887 626,894 606,907 588,924 571,944 556,968 543,995 531,1023 520,1053 512,1083 505,1113 499,1142 495,1170 493,1196 493,1219 494,1239 411,1208 345,1173 295,1135 260,1096 236,1055 224,1014 221,973 225,933 235,896 250,860 266,828 284,800 300,777 314,760 323,749 327,745 301,717 275,696 249,681 223,672 198,667 174,666 151,669 129,674 109,681 91,690 74,699 61,708 49,716 41,723 36,727 34,729 29,682 28,640 30,601 37,567 46,536 59,509 74,485 92,464 118,441 146,423 176,409 208,398 241,390 274,386 307,383 339,383 369,384 398,386 423,389 446,392 464,395 478,398 487,400 490,401 490,400 490,397 491,392 493,385 480,365 468,344 455,325 442,305 428,286 415,268 402,250 389,232 376,216 363,201 350,186 337,173 324,160 311,149 299,139 287,131 282,135 277,139 271,141 266,143 260,145 255,145 250,144 246,143 233,131 227,111 228,86 237,59 244,46 251,35 260,25 269,17 278,12 287,8 296,8 304,10 317,22 323,41 323,66 315,93 322,101 329,111 338,122 347,133 358,146 369,160 380,175 393,191 405,207 418,225 432,243 446,262 460,281 474,301 489,322 503,343 508,327 514,310 520,292 527,273 535,253 545,233 555,214 566,194 578,174 591,156 606,138 621,121 638,106 656,92 675,80 696,70 709,65 723,60 737,57 752,55 767,53 783,53 799,54 816,56 834,59 852,64 870,70 890,77 910,85 930,95 951,107 973,120 952,129 933,140 916,151 900,165 886,179 874,195 864,211 855,229 849,247 845,267 843,287 843,307 846,328 851,350 858,372 868,394 871,394 881,393 895,392 915,391 938,390 965,391 994,392 1026,395 1058,400 1091,408 1123,417 1155,430 1185,446 1213,465 1237,488 1258,516 1271,539 1281,564 1288,591 1292,622 1292,655 1289,692 1282,732 1271,775 1269,773 1265,768 1258,760 1248,750 1236,739 1221,728 1204,717 1185,707 1164,698 1142,692 1118,689 1092,690 1065,696 1037,706 1009,723 979,746 980,750 986,762 994,781 1004,806 1015,837 1024,871 1032,909 1036,949 1036,990 1031,1032 1018,1074 998,1114 968,1152 928,1187 876,1217 811,1243 811,1243"/>
<polygon class="pen1 brush2" points="1328,1175 1329,1180 1331,1194 1331,1217 1329,1248 1321,1287 1307,1333 1284,1385 1251,1444 1242,1458 1233,1472 1223,1486 1212,1500 1201,1515 1189,1530 1176,1545 1162,1561 1148,1576 1133,1592 1118,1608 1101,1624 1084,1641 1066,1657 1046,1674 1027,1691 1006,1708 984,1726 961,1743 938,1761 913,1779 887,1796 861,1815 833,1833 804,1851 774,1869 743,1888 711,1907 678,1925 643,1944 608,1963 571,1982 613,1932 657,1883 701,1835 746,1787 790,1741 835,1695 879,1651 921,1609 963,1568 1002,1529 1040,1492 1075,1457 1108,1424 1137,1394 1164,1366 1186,1341 1187,1339 1186,1336 1183,1333 1182,1331 1152,1361 1120,1393 1087,1425 1051,1460 1015,1495 977,1532 938,1571 899,1610 858,1652 817,1694 775,1738 733,1783 691,1830 649,1878 607,1928 565,1979 565,1977 566,1970 570,1959 575,1944 583,1925 592,1903 603,1877 615,1849 630,1818 646,1785 663,1750 682,1714 703,1677 725,1638 749,1600 774,1560 800,1522 828,1483 856,1446 886,1409 918,1374 950,1341 984,1309 1018,1280 1054,1254 1090,1231 1128,1211 1166,1195 1206,1183 1246,1176 1286,1173 1328,1175"/>
<polygon class="pen1 brush0" points="622,360 631,358 639,353 644,346 646,337 644,328 639,321 631,316 622,314 614,316 607,321 603,328 601,337 603,346 607,353 614,358 622,360"/>
<polygon class="pen1 brush0" points="758,171 767,169 774,164 779,157 781,148 779,139 774,131 767,126 758,124 750,126 743,131 738,139 736,148 738,157 743,164 750,169 758,171"/>
<polygon class="pen1 brush0" points="771,371 780,369 787,365 792,358 794,350 792,341 787,334 780,329 771,327 761,329 754,334 749,341 747,350 749,358 754,365 761,369 771,371"/>
<polygon class="pen1 brush0" points="362,637 360,628 355,622 347,618 338,617 329,620 323,626 319,634 318,643 321,651 327,657 335,661 344,662 352,659 358,654 362,646 362,637"/>
<polygon class="pen1 brush0" points="182,556 179,547 173,541 165,537 156,536 147,540 141,546 136,553 135,562 139,570 145,577 153,581 162,581 170,578 177,573 181,565 182,556"/>
<polygon class="pen1 brush0" points="452,475 449,467 443,461 435,457 426,455 417,458 411,464 407,472 406,481 409,489 415,496 423,500 432,500 440,498 447,492 451,485 452,475"/>
<polygon class="pen1 brush0" points="534,871 525,873 517,878 512,885 511,894 513,903 518,910 525,915 534,917 543,915 550,910 555,903 557,894 555,885 550,878 543,873 534,871"/>
<polygon class="pen1 brush0" points="381,1039 372,1041 365,1046 360,1054 358,1063 360,1071 365,1078 372,1082 381,1084 390,1082 397,1077 401,1070 403,1062 401,1053 397,1046 390,1041 381,1039"/>
<polygon class="pen1 brush0" points="362,795 354,797 347,801 343,808 341,817 343,826 348,833 355,838 364,840 372,838 379,833 383,826 385,817 383,808 378,801 371,797 362,795"/>
<polygon class="pen1 brush0" points="959,840 953,846 950,854 950,862 953,871 956,874 959,877 963,879 968,880 972,881 977,880 981,879 986,877 992,869 994,861 994,852 990,844 987,841 984,838 980,836 976,836 971,836 967,836 963,838 959,840"/>
<polygon class="pen1 brush0" points="959,1071 953,1078 950,1086 950,1095 953,1104 956,1107 959,1110 963,1112 968,1113 972,1113 977,1112 981,1111 986,1108 992,1102 994,1094 994,1085 990,1077 987,1073 984,1070 980,1068 976,1067 971,1067 967,1067 963,1069 959,1071"/>
<polygon class="pen1 brush0" points="842,908 835,914 832,922 833,931 837,939 840,942 843,945 847,947 852,948 856,949 860,948 865,947 869,945 875,939 878,930 877,921 873,912 870,909 867,906 863,904 859,904 854,904 850,904 846,906 842,908"/>
<polygon class="pen1 brush0" points="946,472 950,480 956,486 964,489 973,489 981,485 987,478 990,470 990,462 986,453 980,447 972,444 963,445 954,448 949,454 946,462 946,472"/>
<polygon class="pen1 brush0" points="1200,600 1204,609 1210,615 1218,618 1227,617 1235,614 1241,608 1244,600 1244,590 1240,582 1234,576 1226,573 1217,573 1208,577 1203,584 1200,592 1200,600"/>
<polygon class="pen1 brush0" points="998,637 1002,646 1008,651 1016,654 1025,654 1033,650 1039,644 1042,636 1042,627 1039,619 1033,613 1024,610 1015,610 1007,614 1002,620 998,628 998,637"/>
<polygon class="pen1 brush0" points="807,597 813,596 819,595 824,592 828,588 832,583 835,578 836,572 837,566 836,560 835,555 832,549 828,545 824,541 819,538 813,537 807,536 801,537 796,538 790,541 786,545 782,549 779,555 778,560 777,566 778,572 779,577 781,582 784,587 700,702 696,583 703,579 709,573 713,565 714,556 712,545 705,535 696,528 686,526 680,527 674,528 669,531 665,535 661,539 658,545 657,550 656,556 658,566 662,574 668,581 676,586 677,671 661,633 641,593 619,551 595,507 568,464 541,420 512,376 483,334 455,293 427,254 400,217 376,184 353,154 333,129 317,108 304,93 312,66 315,45 311,30 301,22 294,20 286,20 278,22 271,27 263,34 256,42 249,52 244,63 236,84 234,104 238,120 247,133 251,134 257,133 262,132 268,129 273,126 279,123 284,119 288,116 316,139 344,166 373,199 402,234 431,273 459,314 486,356 513,399 538,442 561,484 584,525 604,563 621,599 637,631 649,659 659,681 579,607 581,604 583,600 584,596 585,591 584,585 583,579 580,574 576,570 571,567 566,564 560,563 554,562 548,563 543,564 537,567 533,570 529,574 526,579 525,585 524,591 525,597 526,603 529,608 533,612 537,616 543,619 548,620 554,621 556,621 558,621 559,621 561,621 669,718 710,721 801,597 802,597 803,597 805,597 807,597 807,597"/>
<polygon class="pen1 brush0" points="679,702 679,702 679,702 679,702"/>
</g>
</svg>
