<?xml version="1.0" encoding="UTF-8" standalone="no"?>
<!DOCTYPE svg PUBLIC "-//W3C//DTD SVG 1.0//EN" "http://www.w3.org/TR/2001/REC-SVG-20010904/DTD/svg10.dtd">
<svg xmlns="http://www.w3.org/2000/svg" xmlns:xlink="http://www.w3.org/1999/xlink" fill-rule="evenodd" height="1.981in" preserveAspectRatio="none" stroke-linecap="round" viewBox="0 0 1241 1981" width="1.241in">
<style type="text/css">
.brush0 { fill: rgb(255,255,255); }
.pen0 { stroke: rgb(0,0,0); stroke-width: 1; stroke-linejoin: round; }
.brush1 { fill: none; }
.pen1 { stroke: none; }
.brush2 { fill: rgb(0,0,0); }
</style>
<g>
<polygon class="pen1 brush2" points="1143,1233 1142,1233 1139,1235 1134,1237 1129,1241 1124,1246 1119,1253 1116,1261 1114,1270 1115,1282 1119,1295 1127,1310 1138,1327 1155,1347 1177,1369 1206,1393 1241,1419 1236,1417 1223,1414 1206,1411 1189,1411 1175,1416 1167,1428 1170,1450 1187,1484 1182,1482 1169,1475 1150,1466 1125,1456 1098,1445 1070,1435 1042,1427 1017,1423 997,1423 982,1428 976,1441 979,1462 994,1492 1022,1532 1066,1584 1126,1649 1122,1650 1111,1654 1096,1660 1082,1670 1070,1685 1064,1703 1067,1727 1082,1757 1077,1759 1065,1766 1050,1779 1034,1800 1022,1829 1018,1868 1024,1919 1045,1981 1044,1979 1041,1973 1035,1964 1028,1952 1019,1938 1009,1923 997,1908 984,1893 970,1878 955,1865 939,1853 922,1845 905,1839 888,1838 870,1841 853,1850 842,1819 826,1801 806,1793 786,1793 766,1798 750,1804 738,1810 734,1813 721,1657 701,1577 677,1557 651,1578 627,1625 606,1679 591,1724 586,1743 573,1707 558,1690 544,1687 531,1694 519,1707 510,1721 503,1733 501,1738 509,1657 506,1600 496,1564 481,1543 465,1534 450,1533 438,1535 434,1537 459,1435 476,1352 486,1287 489,1239 487,1204 481,1182 470,1171 457,1168 442,1173 426,1182 411,1196 395,1210 382,1225 372,1238 365,1247 362,1250 361,1221 351,1208 335,1208 315,1216 294,1228 276,1242 263,1253 258,1257 277,1186 285,1134 284,1099 277,1078 267,1067 256,1063 247,1063 244,1064 250,1054 257,1044 263,1034 269,1025 275,1016 281,1007 286,998 291,990 291,990 318,943 338,904 352,872 361,845 365,825 365,809 362,798 356,790 348,786 339,784 330,784 321,786 312,788 305,790 301,792 299,793 319,755 339,711 357,666 374,621 387,580 397,544 402,517 400,501 397,490 389,462 376,421 360,374 340,324 318,278 295,240 271,217 254,304 258,307 268,316 282,332 296,353 309,381 318,415 319,454 311,499 294,496 279,492 268,486 259,481 252,475 248,470 246,467 245,466 225,471 208,471 196,469 188,464 182,458 178,453 176,449 176,447 153,451 135,450 120,444 109,437 101,428 96,420 93,414 92,412 83,411 76,409 69,405 63,401 57,397 52,392 48,387 44,382 49,372 54,361 60,352 67,343 74,334 82,326 91,318 101,311 111,304 122,298 134,293 148,288 162,284 177,281 193,279 210,277 213,272 220,256 228,232 232,200 230,161 217,117 190,68 145,16 177,0 179,3 187,13 198,28 212,48 230,73 250,102 272,135 295,171 320,209 344,249 368,290 392,333 414,376 434,418 452,460 467,501 470,506 475,513 483,520 492,527 503,535 516,544 530,552 546,561 562,570 580,579 598,587 617,595 636,603 655,610 675,616 694,622 692,623 687,625 680,629 672,634 664,641 658,649 655,657 655,667 660,678 671,689 690,702 716,714 753,728 800,742 858,756 930,770 929,771 927,772 924,775 921,778 919,783 917,789 916,796 918,804 922,814 928,824 939,836 953,848 972,863 996,878 1026,894 1062,912 1055,913 1038,915 1016,918 993,925 973,934 962,946 964,962 984,983 980,983 971,982 956,981 939,980 919,980 900,982 881,985 866,990 855,991 848,995 845,1000 845,1008 849,1018 856,1029 868,1043 883,1058 902,1075 924,1094 951,1114 981,1135 1016,1158 1054,1182 1097,1207 1143,1233 1143,1233"/>
<polygon class="pen1 brush2" points="306,510 289,507 274,503 263,498 254,492 248,486 244,482 242,478 241,477 221,482 205,483 193,480 185,475 179,470 175,465 173,461 173,459 150,463 131,461 117,455 106,447 98,438 93,430 90,424 89,422 80,421 72,419 65,416 58,412 52,407 47,402 43,397 39,392 30,416 22,441 16,468 10,494 6,530 8,567 15,604 24,639 32,660 39,679 47,696 54,711 60,723 65,732 68,738 69,740 70,740 75,738 81,736 90,733 101,728 113,723 127,716 141,708 157,699 173,688 190,676 206,663 222,648 238,632 253,614 267,594 274,583 280,572 286,561 291,550 295,540 299,530 303,520 306,510"/>
<polygon class="pen1 brush0" points="95,398 102,396 107,392 111,387 112,381 111,375 107,370 102,366 95,365 89,366 84,370 80,375 79,381 80,387 84,392 89,396 95,398 95,398"/>
<polygon class="pen1 brush0" points="147,428 153,427 158,423 162,418 163,412 162,405 158,400 153,396 147,395 141,396 137,400 133,405 132,412 133,418 137,423 141,427 147,428 147,428"/>
<polygon class="pen1 brush0" points="221,452 228,451 233,447 236,442 237,436 236,429 233,424 228,420 221,419 215,420 211,424 207,429 206,436 207,442 211,447 215,451 221,452 221,452"/>
<polygon class="pen1 brush0" points="287,470 293,469 299,465 302,461 304,455 302,449 299,444 293,440 287,439 281,440 276,444 272,449 271,455 272,461 276,465 281,469 287,470 287,470"/>
<polygon class="pen1 brush0" points="265,412 271,410 276,406 280,401 281,395 280,388 276,383 271,379 265,378 259,379 255,383 251,388 250,395 251,401 255,406 259,410 265,412 265,412"/>
<polygon class="pen1 brush0" points="200,395 207,394 212,390 216,385 217,378 216,371 212,366 207,363 200,362 194,363 189,366 185,371 184,378 185,385 189,390 194,394 200,395 200,395"/>
<polygon class="pen1 brush0" points="145,371 151,370 156,366 159,361 160,355 159,348 156,343 151,339 145,338 139,339 134,343 130,348 129,355 130,361 134,366 139,370 145,371 145,371"/>
<polygon class="pen1 brush0" points="244,357 250,356 255,352 259,347 260,341 259,334 255,329 250,325 244,324 237,325 232,329 228,334 227,341 228,347 232,352 237,356 244,357 244,357"/>
<polygon class="pen1 brush0" points="183,334 189,333 195,330 198,325 200,318 198,311 195,306 189,302 183,301 176,302 171,306 167,311 166,318 167,325 171,330 176,333 183,334"/>
</g>
</svg>
