<?xml version="1.0" encoding="UTF-8" standalone="no"?>
<!DOCTYPE svg PUBLIC "-//W3C//DTD SVG 1.0//EN" "http://www.w3.org/TR/2001/REC-SVG-20010904/DTD/svg10.dtd">
<svg xmlns="http://www.w3.org/2000/svg" xmlns:xlink="http://www.w3.org/1999/xlink" fill-rule="evenodd" height="7.774in" preserveAspectRatio="none" stroke-linecap="round" viewBox="0 0 5624 7774" width="5.625in">
<style type="text/css">
.brush0 { fill: rgb(255,255,255); }
.pen0 { stroke: rgb(0,0,0); stroke-width: 1; stroke-linejoin: round; }
.pen1 { stroke: rgb(0,0,0); stroke-width: 13; stroke-linejoin: round; }
.brush1 { fill: rgb(0,0,0); }
.pen2 { stroke: none; }
</style>
<g>
<path class="pen2 brush1" d="M 2840,18  L 2866,83 2892,147 2919,211 2945,274 2972,336 2999,398 3027,459 3054,518 3082,578 3109,636 3137,694 3165,751 3193,807 3221,863 3250,918 3278,972 3307,1026 3335,1079 3364,1131 3393,1183 3451,1284 3509,1383 3567,1480 3625,1574 3684,1666 3743,1756 3801,1844 3860,1930 3918,2013 3976,2096 4034,2176 4092,2254 4150,2331 4207,2406 4264,2480 4320,2553 4376,2624 4431,2693 4486,2762 4540,2829 4593,2896 4645,2961 4697,3025 4748,3089 4798,3152 4847,3214 4894,3275 4941,3336 4987,3396 5032,3456 5075,3516 5117,3576 5158,3635 5197,3694 5235,3753 5271,3812 5306,3871 5340,3930 5371,3990 5402,4050 5430,4110 5456,4171 5481,4232 5504,4294 5525,4356 5544,4420 5561,4484 5575,4549 5588,4615 5599,4682 5607,4750 5610,4785 5613,4819 5615,4855 5616,4890 5617,4926 5618,4962 5617,5034 5614,5106 5609,5178 5603,5249 5595,5319 5585,5389 5574,5459 5561,5527 5546,5596 5529,5663 5511,5730 5491,5796 5470,5862 5447,5927 5423,5991 5397,6054 5370,6117 5341,6178 5311,6239 5279,6299 5246,6358 5211,6417 5176,6474 5138,6531 5100,6586 5060,6641 5019,6694 4977,6747 4933,6798 4889,6848 4843,6898 4796,6946 4748,6993 4698,7039 4648,7083 4597,7127 4544,7169 4491,7210 4436,7250 4381,7288 4324,7326 4267,7361 4209,7396 4149,7429 4089,7461 4028,7491 3967,7520 3904,7547 3841,7573 3777,7597 3712,7620 3646,7641 3580,7661 3513,7679 3446,7696 3377,7710 3309,7724 3239,7735 3169,7745 3099,7753 3028,7759 2956,7764 2885,7767 2812,7767 2740,7767 2668,7764 2596,7759 2525,7753 2455,7745 2385,7735 2315,7724 2247,7710 2179,7696 2111,7679 2044,7661 1978,7641 1912,7620 1847,7597 1783,7573 1720,7547 1658,7520 1596,7491 1535,7461 1475,7429 1416,7396 1357,7361 1300,7326 1244,7288 1188,7250 1134,7210 1080,7169 1028,7127 976,7083 926,7039 876,6993 828,6946 781,6898 735,6848 691,6798 647,6747 605,6694 564,6641 524,6586 486,6531 449,6474 413,6417 378,6358 345,6299 314,6239 283,6178 254,6117 227,6054 201,5991 177,5927 154,5862 133,5796 113,5730 95,5663 78,5596 64,5527 50,5459 39,5389 29,5319 21,5249 15,5178 10,5106 8,5034 7,4962 8,4890 11,4820 16,4751 23,4683 32,4617 43,4552 57,4487 71,4424 88,4362 107,4301 127,4240 149,4180 173,4121 198,4062 225,4004 254,3946 284,3888 316,3831 349,3773 384,3716 420,3659 458,3601 497,3544 537,3486 578,3427 621,3369 665,3309 710,3250 757,3189 804,3128 853,3066 902,3003 953,2939 1005,2873 1057,2807 1111,2740 1165,2671 1220,2600 1276,2529 1333,2455 1391,2380 1449,2304 1508,2225 1567,2145 1627,2062 1688,1978 1749,1892 1811,1803 1873,1712 1936,1618 1999,1523 2031,1474 2063,1424 2094,1374 2126,1323 2158,1272 2190,1220 2223,1167 2255,1113 2287,1059 2319,1004 2352,948 2384,892 2416,835 2449,777 2481,718 2514,658 2547,598 2579,537 2612,475 2644,412 2677,348 2709,284 2742,219 2775,153 2807,86 2840,18 z"/>
<polygon class="pen2 brush1" points="2859,86 2872,80 2899,145 2886,150"/>
<polygon class="pen2 brush1" points="2886,150 2899,145 2925,209 2912,214"/>
<polygon class="pen2 brush1" points="2912,214 2925,209 2952,271 2939,277"/>
<polygon class="pen2 brush1" points="2939,277 2952,271 2979,334 2966,339"/>
<polygon class="pen2 brush1" points="2966,339 2979,334 3006,395 2993,401"/>
<polygon class="pen2 brush1" points="2993,401 3006,395 3033,456 3020,461"/>
<polygon class="pen2 brush1" points="3020,461 3033,456 3060,516 3048,521"/>
<polygon class="pen2 brush1" points="3048,521 3060,516 3088,575 3075,581"/>
<polygon class="pen2 brush1" points="3075,581 3088,575 3116,633 3103,639"/>
<polygon class="pen2 brush1" points="3103,639 3116,633 3143,691 3131,697"/>
<polygon class="pen2 brush1" points="3131,697 3143,691 3171,748 3159,754"/>
<polygon class="pen2 brush1" points="3159,754 3171,748 3199,804 3187,810"/>
<polygon class="pen2 brush1" points="3187,810 3199,804 3228,860 3215,866"/>
<polygon class="pen2 brush1" points="3215,866 3228,860 3256,915 3244,921"/>
<polygon class="pen2 brush1" points="3244,921 3256,915 3284,969 3272,975"/>
<polygon class="pen2 brush1" points="3272,975 3284,969 3313,1022 3301,1029"/>
<polygon class="pen2 brush1" points="3301,1029 3313,1022 3341,1075 3329,1082"/>
<polygon class="pen2 brush1" points="3329,1082 3341,1075 3370,1128 3358,1134"/>
<polygon class="pen2 brush1" points="3358,1134 3370,1128 3399,1179 3387,1186"/>
<polygon class="pen2 brush1" points="3387,1186 3399,1179 3457,1280 3445,1287"/>
<polygon class="pen2 brush1" points="3445,1287 3457,1280 3515,1379 3503,1387"/>
<polygon class="pen2 brush1" points="3503,1387 3515,1379 3573,1476 3561,1483"/>
<polygon class="pen2 brush1" points="3561,1483 3573,1476 3631,1570 3620,1578"/>
<polygon class="pen2 brush1" points="3620,1578 3631,1570 3690,1662 3678,1670"/>
<polygon class="pen2 brush1" points="3678,1670 3690,1662 3748,1752 3737,1760"/>
<polygon class="pen2 brush1" points="3737,1760 3748,1752 3807,1840 3795,1848"/>
<polygon class="pen2 brush1" points="3795,1848 3807,1840 3865,1926 3854,1934"/>
<polygon class="pen2 brush1" points="3854,1934 3865,1926 3924,2009 3912,2017"/>
<polygon class="pen2 brush1" points="3912,2017 3924,2009 3982,2091 3971,2100"/>
<polygon class="pen2 brush1" points="3971,2100 3982,2091 4040,2172 4029,2180"/>
<polygon class="pen2 brush1" points="4029,2180 4040,2172 4098,2250 4087,2258"/>
<polygon class="pen2 brush1" points="4087,2258 4098,2250 4155,2327 4144,2335"/>
<polygon class="pen2 brush1" points="4144,2335 4155,2327 4212,2402 4201,2411"/>
<polygon class="pen2 brush1" points="4201,2411 4212,2402 4269,2476 4258,2484"/>
<polygon class="pen2 brush1" points="4258,2484 4269,2476 4325,2548 4315,2557"/>
<polygon class="pen2 brush1" points="4315,2557 4325,2548 4381,2619 4370,2628"/>
<polygon class="pen2 brush1" points="4370,2628 4381,2619 4436,2689 4426,2698"/>
<polygon class="pen2 brush1" points="4426,2698 4436,2689 4491,2758 4480,2766"/>
<polygon class="pen2 brush1" points="4480,2766 4491,2758 4545,2825 4534,2834"/>
<polygon class="pen2 brush1" points="4534,2834 4545,2825 4598,2891 4587,2900"/>
<polygon class="pen2 brush1" points="4587,2900 4598,2891 4651,2957 4640,2965"/>
<polygon class="pen2 brush1" points="4640,2965 4651,2957 4702,3021 4692,3030"/>
<polygon class="pen2 brush1" points="4692,3030 4702,3021 4753,3085 4742,3093"/>
<polygon class="pen2 brush1" points="4742,3093 4753,3085 4803,3147 4792,3156"/>
<polygon class="pen2 brush1" points="4792,3156 4803,3147 4852,3209 4841,3218"/>
<polygon class="pen2 brush1" points="4841,3218 4852,3209 4900,3271 4889,3279"/>
<polygon class="pen2 brush1" points="4889,3279 4900,3271 4947,3332 4936,3340"/>
<polygon class="pen2 brush1" points="4936,3340 4947,3332 4993,3392 4982,3401"/>
<polygon class="pen2 brush1" points="4982,3401 4993,3392 5037,3452 5026,3461"/>
<polygon class="pen2 brush1" points="5026,3461 5037,3452 5081,3512 5069,3520"/>
<polygon class="pen2 brush1" points="5069,3520 5081,3512 5123,3572 5111,3579"/>
<polygon class="pen2 brush1" points="5111,3579 5123,3572 5163,3631 5152,3639"/>
<polygon class="pen2 brush1" points="5152,3639 5163,3631 5203,3690 5191,3698"/>
<polygon class="pen2 brush1" points="5191,3698 5203,3690 5241,3749 5229,3757"/>
<polygon class="pen2 brush1" points="5229,3757 5241,3749 5277,3808 5266,3815"/>
<polygon class="pen2 brush1" points="5266,3815 5277,3808 5312,3868 5300,3874"/>
<polygon class="pen2 brush1" points="5300,3874 5312,3868 5346,3927 5334,3934"/>
<polygon class="pen2 brush1" points="5334,3934 5346,3927 5378,3987 5365,3993"/>
<polygon class="pen2 brush1" points="5365,3993 5378,3987 5408,4047 5395,4053"/>
<polygon class="pen2 brush1" points="5395,4053 5408,4047 5436,4107 5424,4113"/>
<polygon class="pen2 brush1" points="5424,4113 5436,4107 5463,4168 5450,4173"/>
<polygon class="pen2 brush1" points="5450,4173 5463,4168 5488,4230 5475,4235"/>
<polygon class="pen2 brush1" points="5475,4235 5488,4230 5511,4292 5497,4296"/>
<polygon class="pen2 brush1" points="5497,4296 5511,4292 5531,4354 5518,4359"/>
<polygon class="pen2 brush1" points="5518,4359 5531,4354 5550,4418 5537,4422"/>
<polygon class="pen2 brush1" points="5537,4422 5550,4418 5567,4482 5554,4486"/>
<polygon class="pen2 brush1" points="5554,4486 5567,4482 5582,4548 5569,4550"/>
<polygon class="pen2 brush1" points="5569,4550 5582,4548 5595,4614 5581,4616"/>
<polygon class="pen2 brush1" points="5581,4616 5595,4614 5605,4681 5592,4683"/>
<polygon class="pen2 brush1" points="5592,4683 5605,4681 5614,4749 5600,4751"/>
<polygon class="pen2 brush1" points="5600,4751 5614,4749 5617,4784 5603,4785"/>
<polygon class="pen2 brush1" points="5603,4785 5617,4784 5620,4819 5606,4820"/>
<polygon class="pen2 brush1" points="5606,4820 5620,4819 5622,4854 5608,4855"/>
<polygon class="pen2 brush1" points="5608,4855 5622,4854 5623,4890 5609,4890"/>
<polygon class="pen2 brush1" points="5609,4890 5623,4890 5624,4926 5610,4926"/>
<polygon class="pen2 brush1" points="5610,4926 5624,4926 5624,4962 5611,4962"/>
<polygon class="pen2 brush1" points="5611,4962 5624,4962 5624,5035 5610,5034"/>
<polygon class="pen2 brush1" points="5610,5034 5624,5035 5621,5107 5607,5106"/>
<polygon class="pen2 brush1" points="5607,5106 5621,5107 5616,5178 5602,5177"/>
<polygon class="pen2 brush1" points="5602,5177 5616,5178 5610,5250 5596,5248"/>
<polygon class="pen2 brush1" points="5596,5248 5610,5250 5602,5320 5588,5318"/>
<polygon class="pen2 brush1" points="5588,5318 5602,5320 5592,5390 5578,5388"/>
<polygon class="pen2 brush1" points="5578,5388 5592,5390 5581,5460 5567,5457"/>
<polygon class="pen2 brush1" points="5567,5457 5581,5460 5567,5529 5554,5526"/>
<polygon class="pen2 brush1" points="5554,5526 5567,5529 5552,5597 5539,5594"/>
<polygon class="pen2 brush1" points="5539,5594 5552,5597 5536,5665 5523,5661"/>
<polygon class="pen2 brush1" points="5523,5661 5536,5665 5518,5732 5504,5728"/>
<polygon class="pen2 brush1" points="5504,5728 5518,5732 5498,5798 5485,5794"/>
<polygon class="pen2 brush1" points="5485,5794 5498,5798 5477,5864 5464,5860"/>
<polygon class="pen2 brush1" points="5464,5860 5477,5864 5454,5929 5441,5924"/>
<polygon class="pen2 brush1" points="5441,5924 5454,5929 5429,5993 5416,5988"/>
<polygon class="pen2 brush1" points="5416,5988 5429,5993 5403,6057 5391,6051"/>
<polygon class="pen2 brush1" points="5391,6051 5403,6057 5376,6119 5363,6114"/>
<polygon class="pen2 brush1" points="5363,6114 5376,6119 5347,6181 5335,6175"/>
<polygon class="pen2 brush1" points="5335,6175 5347,6181 5317,6242 5304,6236"/>
<polygon class="pen2 brush1" points="5304,6236 5317,6242 5285,6303 5273,6296"/>
<polygon class="pen2 brush1" points="5273,6296 5285,6303 5252,6362 5240,6355"/>
<polygon class="pen2 brush1" points="5240,6355 5252,6362 5217,6420 5205,6413"/>
<polygon class="pen2 brush1" points="5205,6413 5217,6420 5181,6478 5170,6470"/>
<polygon class="pen2 brush1" points="5170,6470 5181,6478 5144,6534 5133,6527"/>
<polygon class="pen2 brush1" points="5133,6527 5144,6534 5106,6590 5094,6582"/>
<polygon class="pen2 brush1" points="5094,6582 5106,6590 5066,6645 5055,6636"/>
<polygon class="pen2 brush1" points="5055,6636 5066,6645 5025,6698 5014,6690"/>
<polygon class="pen2 brush1" points="5014,6690 5025,6698 4982,6751 4972,6742"/>
<polygon class="pen2 brush1" points="4972,6742 4982,6751 4939,6803 4928,6793"/>
<polygon class="pen2 brush1" points="4928,6793 4939,6803 4894,6853 4884,6844"/>
<polygon class="pen2 brush1" points="4884,6844 4894,6853 4848,6902 4838,6893"/>
<polygon class="pen2 brush1" points="4838,6893 4848,6902 4801,6951 4791,6941"/>
<polygon class="pen2 brush1" points="4791,6941 4801,6951 4752,6998 4743,6988"/>
<polygon class="pen2 brush1" points="4743,6988 4752,6998 4703,7044 4694,7034"/>
<polygon class="pen2 brush1" points="4694,7034 4703,7044 4653,7089 4644,7078"/>
<polygon class="pen2 brush1" points="4644,7078 4653,7089 4601,7132 4592,7121"/>
<polygon class="pen2 brush1" points="4592,7121 4601,7132 4548,7175 4540,7164"/>
<polygon class="pen2 brush1" points="4540,7164 4548,7175 4495,7216 4486,7205"/>
<polygon class="pen2 brush1" points="4486,7205 4495,7216 4440,7256 4432,7244"/>
<polygon class="pen2 brush1" points="4432,7244 4440,7256 4385,7294 4377,7283"/>
<polygon class="pen2 brush1" points="4377,7283 4385,7294 4328,7331 4320,7320"/>
<polygon class="pen2 brush1" points="4320,7320 4328,7331 4270,7367 4263,7355"/>
<polygon class="pen2 brush1" points="4263,7355 4270,7367 4212,7402 4205,7390"/>
<polygon class="pen2 brush1" points="4205,7390 4212,7402 4153,7435 4146,7423"/>
<polygon class="pen2 brush1" points="4146,7423 4153,7435 4092,7467 4086,7454"/>
<polygon class="pen2 brush1" points="4086,7454 4092,7467 4031,7497 4025,7485"/>
<polygon class="pen2 brush1" points="4025,7485 4031,7497 3970,7526 3964,7513"/>
<polygon class="pen2 brush1" points="3964,7513 3970,7526 3907,7553 3901,7541"/>
<polygon class="pen2 brush1" points="3901,7541 3907,7553 3843,7579 3838,7566"/>
<polygon class="pen2 brush1" points="3838,7566 3843,7579 3779,7604 3774,7591"/>
<polygon class="pen2 brush1" points="3774,7591 3779,7604 3714,7627 3710,7613"/>
<polygon class="pen2 brush1" points="3710,7613 3714,7627 3648,7648 3644,7635"/>
<polygon class="pen2 brush1" points="3644,7635 3648,7648 3582,7668 3578,7654"/>
<polygon class="pen2 brush1" points="3578,7654 3582,7668 3515,7686 3512,7672"/>
<polygon class="pen2 brush1" points="3512,7672 3515,7686 3447,7702 3444,7689"/>
<polygon class="pen2 brush1" points="3444,7689 3447,7702 3379,7717 3376,7704"/>
<polygon class="pen2 brush1" points="3376,7704 3379,7717 3310,7730 3307,7717"/>
<polygon class="pen2 brush1" points="3307,7717 3310,7730 3240,7742 3238,7728"/>
<polygon class="pen2 brush1" points="3238,7728 3240,7742 3170,7752 3169,7738"/>
<polygon class="pen2 brush1" points="3169,7738 3170,7752 3100,7760 3098,7746"/>
<polygon class="pen2 brush1" points="3098,7746 3100,7760 3028,7766 3027,7752"/>
<polygon class="pen2 brush1" points="3027,7752 3028,7766 2957,7771 2956,7757"/>
<polygon class="pen2 brush1" points="2956,7757 2957,7771 2885,7774 2884,7760"/>
<polygon class="pen2 brush1" points="2884,7760 2885,7774 2812,7774 2812,7761"/>
<polygon class="pen2 brush1" points="2812,7761 2812,7774 2740,7774 2740,7760"/>
<polygon class="pen2 brush1" points="2740,7760 2740,7774 2667,7771 2668,7757"/>
<polygon class="pen2 brush1" points="2668,7757 2667,7771 2596,7766 2597,7752"/>
<polygon class="pen2 brush1" points="2597,7752 2596,7766 2525,7760 2526,7746"/>
<polygon class="pen2 brush1" points="2526,7746 2525,7760 2454,7752 2456,7738"/>
<polygon class="pen2 brush1" points="2456,7738 2454,7752 2384,7742 2386,7728"/>
<polygon class="pen2 brush1" points="2386,7728 2384,7742 2314,7730 2317,7717"/>
<polygon class="pen2 brush1" points="2317,7717 2314,7730 2245,7717 2248,7704"/>
<polygon class="pen2 brush1" points="2248,7704 2245,7717 2177,7702 2180,7689"/>
<polygon class="pen2 brush1" points="2180,7689 2177,7702 2109,7686 2113,7672"/>
<polygon class="pen2 brush1" points="2113,7672 2109,7686 2042,7668 2046,7654"/>
<polygon class="pen2 brush1" points="2046,7654 2042,7668 1976,7648 1980,7635"/>
<polygon class="pen2 brush1" points="1980,7635 1976,7648 1910,7627 1915,7613"/>
<polygon class="pen2 brush1" points="1915,7613 1910,7627 1845,7604 1850,7591"/>
<polygon class="pen2 brush1" points="1850,7591 1845,7604 1781,7579 1786,7566"/>
<polygon class="pen2 brush1" points="1786,7566 1781,7579 1717,7553 1723,7541"/>
<polygon class="pen2 brush1" points="1723,7541 1717,7553 1655,7526 1660,7513"/>
<polygon class="pen2 brush1" points="1660,7513 1655,7526 1593,7497 1599,7485"/>
<polygon class="pen2 brush1" points="1599,7485 1593,7497 1532,7467 1538,7454"/>
<polygon class="pen2 brush1" points="1538,7454 1532,7467 1472,7435 1478,7423"/>
<polygon class="pen2 brush1" points="1478,7423 1472,7435 1412,7402 1419,7390"/>
<polygon class="pen2 brush1" points="1419,7390 1412,7402 1354,7367 1361,7355"/>
<polygon class="pen2 brush1" points="1361,7355 1354,7367 1296,7331 1304,7320"/>
<polygon class="pen2 brush1" points="1304,7320 1296,7331 1240,7294 1247,7283"/>
<polygon class="pen2 brush1" points="1247,7283 1240,7294 1184,7256 1192,7244"/>
<polygon class="pen2 brush1" points="1192,7244 1184,7256 1129,7216 1138,7205"/>
<polygon class="pen2 brush1" points="1138,7205 1129,7216 1076,7175 1084,7164"/>
<polygon class="pen2 brush1" points="1084,7164 1076,7175 1023,7132 1032,7121"/>
<polygon class="pen2 brush1" points="1032,7121 1023,7132 972,7089 981,7078"/>
<polygon class="pen2 brush1" points="981,7078 972,7089 921,7044 930,7034"/>
<polygon class="pen2 brush1" points="930,7034 921,7044 872,6998 881,6988"/>
<polygon class="pen2 brush1" points="881,6988 872,6998 823,6951 833,6941"/>
<polygon class="pen2 brush1" points="833,6941 823,6951 776,6902 786,6893"/>
<polygon class="pen2 brush1" points="786,6893 776,6902 730,6853 741,6844"/>
<polygon class="pen2 brush1" points="741,6844 730,6853 686,6803 696,6793"/>
<polygon class="pen2 brush1" points="696,6793 686,6803 642,6751 653,6742"/>
<polygon class="pen2 brush1" points="653,6742 642,6751 600,6698 610,6690"/>
<polygon class="pen2 brush1" points="610,6690 600,6698 558,6645 570,6636"/>
<polygon class="pen2 brush1" points="570,6636 558,6645 519,6590 530,6582"/>
<polygon class="pen2 brush1" points="530,6582 519,6590 480,6534 492,6527"/>
<polygon class="pen2 brush1" points="492,6527 480,6534 443,6478 454,6470"/>
<polygon class="pen2 brush1" points="454,6470 443,6478 407,6420 419,6413"/>
<polygon class="pen2 brush1" points="419,6413 407,6420 372,6362 384,6355"/>
<polygon class="pen2 brush1" points="384,6355 372,6362 339,6303 351,6296"/>
<polygon class="pen2 brush1" points="351,6296 339,6303 307,6242 320,6236"/>
<polygon class="pen2 brush1" points="320,6236 307,6242 277,6181 290,6175"/>
<polygon class="pen2 brush1" points="290,6175 277,6181 248,6119 261,6114"/>
<polygon class="pen2 brush1" points="261,6114 248,6119 221,6057 234,6051"/>
<polygon class="pen2 brush1" points="234,6051 221,6057 195,5993 208,5988"/>
<polygon class="pen2 brush1" points="208,5988 195,5993 170,5929 183,5924"/>
<polygon class="pen2 brush1" points="183,5924 170,5929 147,5864 161,5860"/>
<polygon class="pen2 brush1" points="161,5860 147,5864 126,5798 139,5794"/>
<polygon class="pen2 brush1" points="139,5794 126,5798 106,5732 120,5728"/>
<polygon class="pen2 brush1" points="120,5728 106,5732 88,5665 102,5661"/>
<polygon class="pen2 brush1" points="102,5661 88,5665 72,5597 85,5594"/>
<polygon class="pen2 brush1" points="85,5594 72,5597 57,5529 70,5526"/>
<polygon class="pen2 brush1" points="70,5526 57,5529 44,5460 57,5457"/>
<polygon class="pen2 brush1" points="57,5457 44,5460 32,5390 46,5388"/>
<polygon class="pen2 brush1" points="46,5388 32,5390 22,5320 36,5318"/>
<polygon class="pen2 brush1" points="36,5318 22,5320 14,5250 28,5248"/>
<polygon class="pen2 brush1" points="28,5248 14,5250 8,5178 22,5177"/>
<polygon class="pen2 brush1" points="22,5177 8,5178 3,5107 17,5106"/>
<polygon class="pen2 brush1" points="17,5106 3,5107 1,5035 15,5034"/>
<polygon class="pen2 brush1" points="15,5034 1,5035 0,4962 14,4962"/>
<polygon class="pen2 brush1" points="14,4962 0,4962 1,4890 15,4890"/>
<polygon class="pen2 brush1" points="15,4890 1,4890 4,4819 18,4820"/>
<polygon class="pen2 brush1" points="18,4820 4,4819 9,4750 23,4751"/>
<polygon class="pen2 brush1" points="23,4751 9,4750 16,4682 30,4684"/>
<polygon class="pen2 brush1" points="30,4684 16,4682 26,4616 39,4618"/>
<polygon class="pen2 brush1" points="39,4618 26,4616 37,4550 50,4553"/>
<polygon class="pen2 brush1" points="50,4553 37,4550 50,4486 63,4489"/>
<polygon class="pen2 brush1" points="63,4489 50,4486 65,4423 78,4426"/>
<polygon class="pen2 brush1" points="78,4426 65,4423 81,4360 95,4364"/>
<polygon class="pen2 brush1" points="95,4364 81,4360 100,4299 113,4303"/>
<polygon class="pen2 brush1" points="113,4303 100,4299 120,4238 134,4243"/>
<polygon class="pen2 brush1" points="134,4243 120,4238 143,4178 156,4183"/>
<polygon class="pen2 brush1" points="156,4183 143,4178 166,4118 179,4124"/>
<polygon class="pen2 brush1" points="179,4124 166,4118 192,4059 205,4065"/>
<polygon class="pen2 brush1" points="205,4065 192,4059 219,4001 232,4007"/>
<polygon class="pen2 brush1" points="232,4007 219,4001 248,3943 260,3949"/>
<polygon class="pen2 brush1" points="260,3949 248,3943 278,3885 290,3892"/>
<polygon class="pen2 brush1" points="290,3892 278,3885 310,3827 322,3834"/>
<polygon class="pen2 brush1" points="322,3834 310,3827 343,3770 355,3777"/>
<polygon class="pen2 brush1" points="355,3777 343,3770 378,3713 390,3720"/>
<polygon class="pen2 brush1" points="390,3720 378,3713 414,3655 426,3663"/>
<polygon class="pen2 brush1" points="426,3663 414,3655 452,3598 464,3605"/>
<polygon class="pen2 brush1" points="464,3605 452,3598 491,3540 502,3548"/>
<polygon class="pen2 brush1" points="502,3548 491,3540 531,3482 543,3490"/>
<polygon class="pen2 brush1" points="543,3490 531,3482 573,3423 584,3432"/>
<polygon class="pen2 brush1" points="584,3432 573,3423 616,3365 627,3373"/>
<polygon class="pen2 brush1" points="627,3373 616,3365 660,3305 671,3314"/>
<polygon class="pen2 brush1" points="671,3314 660,3305 705,3245 716,3254"/>
<polygon class="pen2 brush1" points="716,3254 705,3245 751,3185 762,3193"/>
<polygon class="pen2 brush1" points="762,3193 751,3185 799,3123 810,3132"/>
<polygon class="pen2 brush1" points="810,3132 799,3123 847,3061 858,3070"/>
<polygon class="pen2 brush1" points="858,3070 847,3061 897,2998 908,3007"/>
<polygon class="pen2 brush1" points="908,3007 897,2998 948,2934 959,2943"/>
<polygon class="pen2 brush1" points="959,2943 948,2934 999,2869 1010,2878"/>
<polygon class="pen2 brush1" points="1010,2878 999,2869 1052,2803 1063,2811"/>
<polygon class="pen2 brush1" points="1063,2811 1052,2803 1105,2735 1116,2744"/>
<polygon class="pen2 brush1" points="1116,2744 1105,2735 1160,2666 1171,2675"/>
<polygon class="pen2 brush1" points="1171,2675 1160,2666 1215,2596 1226,2605"/>
<polygon class="pen2 brush1" points="1226,2605 1215,2596 1271,2524 1282,2533"/>
<polygon class="pen2 brush1" points="1282,2533 1271,2524 1328,2451 1339,2460"/>
<polygon class="pen2 brush1" points="1339,2460 1328,2451 1385,2376 1396,2385"/>
<polygon class="pen2 brush1" points="1396,2385 1385,2376 1443,2299 1454,2308"/>
<polygon class="pen2 brush1" points="1454,2308 1443,2299 1502,2221 1513,2229"/>
<polygon class="pen2 brush1" points="1513,2229 1502,2221 1562,2141 1573,2149"/>
<polygon class="pen2 brush1" points="1573,2149 1562,2141 1622,2058 1633,2066"/>
<polygon class="pen2 brush1" points="1633,2066 1622,2058 1683,1974 1694,1982"/>
<polygon class="pen2 brush1" points="1694,1982 1683,1974 1744,1888 1755,1895"/>
<polygon class="pen2 brush1" points="1755,1895 1744,1888 1806,1799 1817,1807"/>
<polygon class="pen2 brush1" points="1817,1807 1806,1799 1868,1708 1879,1716"/>
<polygon class="pen2 brush1" points="1879,1716 1868,1708 1930,1615 1942,1622"/>
<polygon class="pen2 brush1" points="1942,1622 1930,1615 1993,1519 2005,1526"/>
<polygon class="pen2 brush1" points="2005,1526 1993,1519 2025,1470 2037,1477"/>
<polygon class="pen2 brush1" points="2037,1477 2025,1470 2057,1420 2068,1428"/>
<polygon class="pen2 brush1" points="2068,1428 2057,1420 2089,1370 2100,1378"/>
<polygon class="pen2 brush1" points="2100,1378 2089,1370 2121,1320 2132,1327"/>
<polygon class="pen2 brush1" points="2132,1327 2121,1320 2152,1268 2164,1275"/>
<polygon class="pen2 brush1" points="2164,1275 2152,1268 2185,1216 2196,1223"/>
<polygon class="pen2 brush1" points="2196,1223 2185,1216 2217,1163 2229,1170"/>
<polygon class="pen2 brush1" points="2229,1170 2217,1163 2249,1110 2261,1117"/>
<polygon class="pen2 brush1" points="2261,1117 2249,1110 2281,1055 2293,1062"/>
<polygon class="pen2 brush1" points="2293,1062 2281,1055 2313,1000 2325,1007"/>
<polygon class="pen2 brush1" points="2325,1007 2313,1000 2346,945 2358,952"/>
<polygon class="pen2 brush1" points="2358,952 2346,945 2378,888 2390,895"/>
<polygon class="pen2 brush1" points="2390,895 2378,888 2410,831 2423,838"/>
<polygon class="pen2 brush1" points="2423,838 2410,831 2443,773 2455,780"/>
<polygon class="pen2 brush1" points="2455,780 2443,773 2475,714 2488,721"/>
<polygon class="pen2 brush1" points="2488,721 2475,714 2508,655 2520,662"/>
<polygon class="pen2 brush1" points="2520,662 2508,655 2540,595 2553,601"/>
<polygon class="pen2 brush1" points="2553,601 2540,595 2573,534 2585,540"/>
<polygon class="pen2 brush1" points="2585,540 2573,534 2606,472 2618,478"/>
<polygon class="pen2 brush1" points="2618,478 2606,472 2638,409 2650,415"/>
<polygon class="pen2 brush1" points="2650,415 2638,409 2671,345 2683,352"/>
<polygon class="pen2 brush1" points="2683,352 2671,345 2703,281 2716,287"/>
<polygon class="pen2 brush1" points="2716,287 2703,281 2736,216 2748,222"/>
<polygon class="pen2 brush1" points="2748,222 2736,216 2768,149 2781,156"/>
<polygon class="pen2 brush1" points="2781,156 2768,149 2801,82 2813,89"/>
<polygon class="pen2 brush1" points="2813,89 2801,82 2840,0 2839,35"/>
<polygon class="pen2 brush1" points="2839,35 2840,0 2872,80 2859,86"/>
</g>
</svg>
