<?xml version="1.0" encoding="UTF-8" standalone="no"?>
<!DOCTYPE svg PUBLIC "-//W3C//DTD SVG 1.0//EN" "http://www.w3.org/TR/2001/REC-SVG-20010904/DTD/svg10.dtd">
<svg xmlns="http://www.w3.org/2000/svg" xmlns:xlink="http://www.w3.org/1999/xlink" fill-rule="evenodd" height="1.978in" preserveAspectRatio="none" stroke-linecap="round" viewBox="0 0 1865 1978" width="1.865in">
<style type="text/css">
.brush0 { fill: rgb(255,255,255); }
.pen0 { stroke: rgb(0,0,0); stroke-width: 1; stroke-linejoin: round; }
.brush1 { fill: none; }
.pen1 { stroke: none; }
.brush2 { fill: rgb(0,0,0); }
</style>
<g>
<polygon class="pen1 brush2" points="1614,1772 1603,1771 1590,1769 1576,1767 1561,1764 1545,1761 1530,1758 1514,1754 1500,1750 1484,1745 1474,1741 1469,1739 1469,1739 1471,1741 1473,1743 1476,1747 1476,1752 1477,1755 1481,1757 1488,1760 1496,1764 1507,1767 1518,1770 1531,1774 1545,1778 1560,1782 1575,1785 1590,1789 1604,1793 1618,1797 1632,1801 1644,1804 1655,1808 1677,1826 1699,1844 1720,1860 1739,1876 1758,1891 1775,1905 1791,1918 1806,1930 1819,1941 1831,1950 1841,1959 1849,1965 1856,1971 1861,1975 1864,1977 1865,1978 1849,1929 1807,1896 1766,1863 1726,1831 1688,1799 1650,1768 1614,1737 1578,1707 1544,1677 1511,1648 1478,1620 1447,1593 1417,1565 1388,1539 1360,1513 1333,1488 1307,1464 1300,1449 1293,1430 1285,1410 1277,1389 1269,1370 1263,1352 1259,1338 1257,1329 1255,1316 1254,1309 1252,1307 1247,1308 1245,1321 1250,1352 1259,1392 1268,1429 1229,1392 1193,1356 1160,1323 1129,1292 1102,1263 1076,1236 1053,1212 1033,1190 1016,1170 1000,1153 988,1138 977,1126 969,1116 964,1110 960,1105 959,1104 986,1196 1005,1219 1028,1246 1056,1276 1088,1308 1123,1342 1162,1379 1203,1417 1246,1456 1291,1496 1337,1537 1384,1577 1431,1618 1478,1658 1525,1697 1570,1735 1614,1772 1614,1772"/>
<polygon class="pen1 brush2" points="1243,1268 1243,1269 1243,1270 1243,1270 1243,1270 1240,1262 1231,1240 1218,1205 1201,1158 1183,1102 1164,1038 1146,968 1129,893 1116,815 1107,736 1103,658 1106,581 1118,508 1138,441 1169,380 1212,328 1208,433 1209,568 1214,720 1220,875 1227,1020 1235,1143 1240,1230 1243,1268 1243,1268"/>
<polygon class="pen1 brush2" points="1223,325 1226,331 1233,350 1244,379 1257,418 1272,466 1288,521 1303,584 1316,651 1328,724 1335,800 1339,878 1336,957 1328,1037 1312,1116 1287,1194 1253,1268 1250,1229 1245,1142 1238,1019 1231,873 1224,719 1220,568 1219,433 1222,328 1223,327 1223,326 1223,325 1223,325 1223,325"/>
<polygon class="pen1 brush2" points="767,842 767,842 767,842 767,842 767,842 763,835 753,816 737,786 717,747 695,699 671,644 647,583 624,518 603,450 586,380 574,310 569,242 571,175 582,113 603,55 635,4 643,99 659,220 680,356 704,495 727,624 747,733 761,810 767,842 767,842"/>
<polygon class="pen1 brush2" points="648,0 648,1 647,2 646,3 646,4 654,98 670,219 691,355 714,493 737,623 757,732 771,809 777,842 799,772 813,700 819,627 818,554 811,483 800,413 785,346 767,282 747,223 727,169 707,121 689,80 672,46 659,21 651,5 648,0 648,0"/>
<polygon class="pen1 brush2" points="680,835 668,822 649,802 622,774 591,741 554,702 514,659 471,613 426,565 380,515 335,465 290,415 248,366 208,320 172,278 141,239 116,206 117,264 129,321 152,377 184,432 223,484 268,535 317,583 368,627 421,669 472,707 522,740 567,770 607,794 641,814 665,827 680,835 680,835"/>
<polygon class="pen1 brush2" points="128,200 128,201 128,202 128,203 128,204 153,237 184,276 220,319 260,365 303,414 348,464 394,515 440,565 485,614 528,660 568,703 605,742 636,775 662,803 681,823 692,835 693,835 694,836 695,837 695,837 675,765 648,697 613,633 573,573 528,516 480,464 431,416 382,372 333,333 286,298 243,269 205,245 173,225 149,211 133,203 128,200 128,200"/>
<polygon class="pen1 brush2" points="919,1135 911,1131 900,1126 886,1120 869,1112 849,1103 827,1093 803,1081 776,1069 748,1056 718,1042 686,1027 653,1011 619,995 584,978 549,961 512,943 476,925 439,907 402,889 365,870 328,852 292,834 257,815 222,797 189,780 157,763 126,746 97,730 69,714 44,699 21,685 0,672 12,705 27,737 45,767 67,795 91,823 117,848 146,873 177,896 210,917 245,938 281,957 317,975 355,992 393,1007 432,1022 471,1035 510,1048 548,1059 586,1070 623,1080 659,1088 694,1096 727,1103 759,1109 788,1115 816,1120 840,1124 863,1127 882,1130 898,1132 910,1134 919,1135 919,1135"/>
<polygon class="pen1 brush2" points="3,656 3,658 3,659 3,661 4,662 25,675 48,689 74,704 101,720 131,736 162,753 194,770 228,788 263,806 298,824 335,842 372,861 409,879 446,898 484,916 521,934 558,952 594,969 629,986 663,1002 696,1018 728,1033 758,1047 786,1061 812,1073 837,1084 858,1095 878,1104 894,1111 908,1118 919,1123 926,1126 928,1126 929,1127 930,1128 930,1128 904,1091 876,1055 846,1022 814,991 781,961 746,933 711,907 674,882 636,859 598,838 559,818 521,799 482,782 443,767 405,752 368,739 331,727 295,716 260,706 227,698 195,690 165,683 137,677 111,672 87,668 66,665 48,662 32,660 20,658 11,657 5,656 3,656 3,656"/>
<polygon class="pen1 brush2" points="1432,1752 1432,1753 1433,1754 1433,1754 1433,1755 1430,1755 1422,1754 1408,1752 1390,1750 1368,1747 1341,1743 1310,1738 1276,1732 1239,1726 1200,1718 1158,1709 1113,1699 1067,1688 1020,1676 972,1662 923,1647 873,1631 824,1613 775,1594 726,1574 679,1551 633,1528 589,1502 546,1475 506,1446 469,1415 435,1383 404,1348 377,1312 354,1273 335,1233 321,1190 345,1205 371,1222 401,1239 433,1258 467,1277 503,1297 542,1318 581,1339 623,1360 665,1382 708,1404 752,1426 797,1449 842,1471 886,1493 931,1515 975,1536 1019,1557 1061,1578 1103,1598 1143,1617 1182,1635 1218,1653 1253,1669 1286,1684 1316,1698 1343,1711 1368,1723 1389,1732 1407,1741 1421,1747 1432,1752 1432,1752"/>
<polygon class="pen1 brush2" points="321,1176 323,1176 330,1177 341,1178 356,1180 374,1183 396,1186 422,1190 450,1195 481,1201 515,1208 551,1216 589,1226 629,1236 670,1247 713,1260 757,1275 802,1290 848,1308 894,1326 941,1347 987,1369 1033,1393 1079,1418 1124,1446 1168,1475 1211,1506 1253,1540 1293,1575 1331,1613 1367,1653 1401,1695 1432,1740 1421,1735 1407,1728 1389,1720 1367,1709 1343,1698 1315,1685 1285,1671 1252,1655 1217,1639 1180,1621 1142,1602 1101,1583 1060,1563 1017,1542 974,1521 929,1500 885,1478 840,1456 795,1433 751,1411 707,1389 664,1367 621,1345 580,1324 541,1303 502,1282 466,1263 432,1244 400,1225 371,1208 345,1192 321,1177 321,1177 321,1177 321,1177 321,1176"/>
</g>
</svg>
