<?xml version="1.0" encoding="UTF-8" standalone="no"?>
<!DOCTYPE svg PUBLIC "-//W3C//DTD SVG 1.0//EN" "http://www.w3.org/TR/2001/REC-SVG-20010904/DTD/svg10.dtd">
<svg xmlns="http://www.w3.org/2000/svg" xmlns:xlink="http://www.w3.org/1999/xlink" fill-rule="evenodd" height="1.859in" preserveAspectRatio="none" stroke-linecap="round" viewBox="0 0 2004 1859" width="2.004in">
<style type="text/css">
.brush0 { fill: rgb(255,255,255); }
.pen0 { stroke: rgb(0,0,0); stroke-width: 1; stroke-linejoin: round; }
.brush1 { fill: none; }
.pen1 { stroke: none; }
.brush2 { fill: rgb(0,0,0); }
</style>
<g>
<polygon class="pen1 brush2" points="1466,348 1465,344 1461,334 1455,317 1446,295 1435,270 1420,241 1403,211 1382,179 1357,147 1329,116 1297,86 1261,60 1220,37 1175,19 1126,6 1071,0 1000,84 937,0 883,6 833,18 789,36 748,59 712,85 680,113 652,144 627,175 606,206 588,237 574,265 563,290 554,311 548,328 544,339 543,343 539,343 527,343 508,344 485,345 456,348 424,353 388,360 351,369 312,382 273,399 234,420 197,445 162,476 130,512 101,555 78,604 132,699 33,733 23,773 18,811 16,849 19,884 24,919 33,952 44,983 57,1012 69,1035 82,1057 96,1078 110,1097 124,1115 139,1132 153,1147 166,1161 179,1173 191,1184 202,1193 212,1200 219,1206 225,1210 229,1212 230,1212 229,1215 226,1224 221,1241 216,1262 211,1289 206,1321 203,1355 203,1393 205,1433 210,1475 220,1517 235,1559 255,1601 281,1642 315,1680 356,1716 463,1687 467,1792 486,1803 506,1813 525,1822 544,1829 563,1835 582,1840 601,1844 620,1847 638,1849 656,1850 674,1851 692,1850 709,1849 727,1847 744,1844 760,1841 784,1835 808,1827 831,1819 852,1810 872,1801 891,1792 908,1782 925,1773 939,1764 952,1756 963,1748 972,1742 980,1736 985,1732 989,1729 990,1728 992,1728 997,1730 1003,1734 1011,1739 1022,1746 1033,1753 1047,1762 1062,1771 1079,1780 1097,1790 1116,1799 1137,1808 1158,1817 1181,1825 1205,1833 1230,1839 1246,1842 1263,1845 1280,1848 1298,1849 1315,1850 1333,1851 1351,1850 1369,1848 1388,1846 1406,1842 1425,1838 1444,1832 1463,1825 1482,1817 1501,1808 1520,1797 1533,1689 1632,1724 1674,1689 1709,1651 1736,1612 1757,1570 1773,1528 1784,1486 1790,1445 1793,1404 1794,1366 1791,1331 1788,1299 1783,1271 1779,1248 1775,1231 1772,1220 1771,1216 1773,1215 1776,1213 1782,1209 1790,1203 1799,1196 1809,1187 1821,1176 1834,1165 1847,1151 1861,1137 1875,1121 1889,1103 1903,1085 1917,1065 1930,1043 1942,1021 1956,991 1968,959 1978,925 1984,889 1987,852 1986,813 1980,773 1970,732 1868,692 1926,604 1902,555 1874,513 1841,477 1806,446 1769,421 1730,400 1692,384 1653,372 1616,363 1581,356 1550,352 1522,349 1499,348 1481,348 1470,348 1466,348"/>
<polygon class="pen1 brush0" points="922,983 936,983 953,984 972,986 993,990 1014,997 1035,1006 1053,1018 1070,1034 1074,1018 1078,1001 1081,984 1084,965 1095,968 1091,997 1085,1022 1079,1045 1071,1066 1062,1084 1053,1101 1042,1118 1031,1134 1020,1128 1025,1121 1030,1114 1035,1107 1040,1099 1045,1090 1050,1081 1055,1071 1060,1060 1054,1054 1044,1047 1032,1038 1017,1030 998,1021 976,1014 951,1009 922,1006 920,1012 917,1018 913,1023 909,1028 903,1032 897,1035 890,1036 883,1037 875,1036 868,1034 861,1030 855,1025 849,1019 845,1012 843,1004 842,996 843,988 845,980 849,973 855,967 861,963 868,959 875,957 883,956 890,956 896,958 902,960 907,963 912,967 916,972 919,977 922,983"/>
<polygon class="pen1 brush0" points="1500,1581 1502,1576 1501,1563 1498,1542 1493,1516 1484,1484 1472,1449 1457,1411 1438,1371 1414,1330 1387,1289 1354,1250 1317,1213 1274,1179 1226,1149 1172,1125 1112,1108 1114,1109 1118,1111 1126,1116 1136,1122 1148,1129 1163,1138 1178,1149 1196,1161 1214,1175 1233,1190 1252,1207 1271,1225 1291,1244 1310,1265 1328,1287 1345,1310 1377,1358 1406,1406 1433,1452 1456,1493 1474,1529 1488,1557 1497,1575 1500,1581 1500,1581"/>
<polygon class="pen1 brush0" points="462,1604 460,1598 460,1583 463,1561 468,1534 477,1502 488,1466 504,1427 523,1386 546,1345 574,1305 606,1266 643,1229 686,1196 734,1168 788,1146 848,1131 846,1132 842,1134 834,1139 824,1145 812,1152 797,1161 782,1172 765,1184 746,1198 727,1214 708,1230 689,1248 669,1268 650,1289 632,1311 615,1334 583,1382 554,1430 528,1476 506,1517 487,1552 474,1580 465,1598 462,1604 462,1604"/>
<polygon class="pen1 brush0" points="219,679 226,676 241,674 263,672 292,672 326,673 364,676 406,682 450,692 496,704 542,721 587,743 632,770 673,802 712,841 745,886 774,939 773,938 769,934 763,927 754,919 744,909 731,898 717,885 700,871 682,857 663,842 642,828 619,813 595,799 571,786 545,774 518,763 491,753 464,744 437,735 411,727 385,720 360,713 337,706 315,701 294,696 276,691 259,688 245,685 234,682 226,680 221,679 219,679 219,679"/>
<polygon class="pen1 brush0" points="970,280 965,284 957,296 947,315 935,340 923,371 911,407 901,447 892,491 886,538 884,587 886,638 894,689 908,741 928,792 957,843 994,891 991,884 983,865 973,836 960,798 949,752 939,701 933,646 932,588 935,531 940,475 946,423 953,377 959,337 965,307 969,287 970,280 970,280"/>
<polygon class="pen1 brush0" points="1690,706 1683,704 1668,702 1645,700 1616,698 1581,697 1542,698 1500,701 1455,708 1408,717 1361,731 1314,749 1269,772 1225,800 1185,835 1150,877 1119,926 1120,925 1124,921 1131,915 1140,907 1151,898 1164,887 1179,876 1197,863 1215,850 1236,837 1258,824 1281,811 1305,799 1331,788 1358,778 1385,769 1413,761 1441,754 1468,747 1496,741 1522,735 1547,730 1571,725 1593,721 1614,717 1633,714 1649,712 1663,710 1675,708 1683,707 1688,706 1690,706"/>
</g>
</svg>
