<?xml version="1.0" encoding="UTF-8" standalone="no"?>
<!DOCTYPE svg PUBLIC "-//W3C//DTD SVG 1.0//EN" "http://www.w3.org/TR/2001/REC-SVG-20010904/DTD/svg10.dtd">
<svg xmlns="http://www.w3.org/2000/svg" xmlns:xlink="http://www.w3.org/1999/xlink" fill-rule="evenodd" height="1.969in" preserveAspectRatio="none" stroke-linecap="round" viewBox="0 0 1052 1969" width="1.052in">
<style type="text/css">
.brush0 { fill: rgb(255,255,255); }
.pen0 { stroke: rgb(0,0,0); stroke-width: 1; stroke-linejoin: round; }
.brush1 { fill: none; }
.pen1 { stroke: none; }
.brush2 { fill: rgb(0,0,0); }
</style>
<g>
<polygon class="pen1 brush2" points="916,87 913,74 923,74 923,60 933,63 934,47 946,47 947,30 957,34 961,17 973,23 977,6 988,12 997,0 1004,10 1018,0 1018,10 1035,7 1032,20 1046,21 1041,36 1049,43 1041,54 1052,63 1038,71 1048,78 1032,88 1039,101 1028,104 1029,118 1018,121 1019,135 1007,138 1005,156 994,155 994,173 980,169 977,186 964,182 961,198 948,192 943,206 930,199 919,208 913,196 900,200 900,186 889,179 893,169 886,158 894,148 887,135 899,128 890,115 904,112 897,101 909,101 902,85 916,87 916,87"/>
<polygon class="pen1 brush2" points="902,354 899,341 910,341 909,327 919,330 920,314 931,314 934,297 944,300 947,283 958,290 964,273 974,279 984,267 991,276 1004,267 1004,277 1021,274 1018,287 1032,288 1027,303 1035,310 1027,321 1038,328 1025,337 1034,344 1018,355 1025,367 1014,371 1015,385 1004,388 1005,402 992,405 991,422 980,422 980,439 965,435 963,453 950,449 947,465 934,458 929,473 916,465 904,473 900,463 886,466 886,453 875,446 879,435 873,425 880,415 875,402 884,395 876,381 890,379 884,368 894,367 887,352 902,354 902,354"/>
<polygon class="pen1 brush2" points="627,341 623,330 634,330 633,315 643,317 646,303 657,301 660,286 669,288 673,271 684,279 690,262 700,267 708,254 717,264 730,256 731,266 745,263 744,276 758,277 751,290 761,297 751,308 762,317 751,325 759,333 744,344 751,354 740,360 741,372 730,377 731,391 717,392 717,412 706,409 704,428 690,423 688,442 676,436 671,452 660,446 653,460 642,453 630,462 626,452 612,456 612,442 599,435 606,425 599,413 606,404 599,391 609,384 602,369 616,368 609,357 619,354 613,341 627,341 627,341"/>
<polygon class="pen1 brush2" points="390,682 386,669 396,669 393,655 403,655 403,639 416,638 417,622 426,625 429,607 440,612 444,594 454,600 463,587 471,595 482,585 485,595 501,591 500,604 514,604 509,618 518,624 511,635 522,644 511,652 521,659 507,672 515,682 504,688 507,702 495,706 498,719 485,723 487,742 474,740 475,760 461,756 461,774 447,770 446,787 434,781 429,797 414,790 404,800 399,790 386,796 384,783 372,777 376,766 369,756 375,746 367,733 377,725 367,712 382,709 373,698 383,695 376,682 390,682 390,682"/>
<polygon class="pen1 brush2" points="687,662 686,649 696,652 697,637 707,641 711,625 723,628 727,611 735,617 742,600 752,608 761,591 769,598 781,588 786,598 801,592 801,602 815,601 812,615 825,618 818,631 825,638 815,648 825,658 811,665 819,673 802,682 806,693 795,696 795,710 782,713 782,726 768,726 765,744 754,740 750,760 737,753 731,770 720,763 714,779 704,770 694,784 684,774 671,781 667,770 653,771 656,759 646,750 653,740 647,729 656,720 652,706 663,702 657,685 671,686 667,673 677,673 673,658 687,662 687,662"/>
<polygon class="pen1 brush2" points="853,801 839,800 846,815 836,817 842,828 828,830 836,844 825,851 832,865 825,875 832,885 826,895 838,902 839,915 852,912 856,922 867,913 880,922 886,906 899,912 903,898 914,902 917,885 930,888 931,869 944,871 944,852 957,851 956,837 967,834 965,820 977,815 971,804 985,794 977,786 990,777 978,769 988,757 978,750 984,736 971,736 973,723 957,726 956,716 943,725 936,716 927,726 916,722 910,739 900,732 896,750 886,746 883,763 872,763 870,777 860,776 862,790 850,790 853,801 853,801"/>
<polygon class="pen1 brush2" points="902,1021 902,1009 911,1013 914,997 923,1003 929,987 940,990 947,976 954,980 964,966 971,975 981,959 991,966 1001,959 1007,969 1021,963 1021,973 1035,973 1032,986 1045,990 1035,1003 1042,1010 1031,1020 1039,1030 1025,1036 1032,1044 1015,1051 1018,1064 1007,1065 1004,1080 992,1081 991,1094 977,1094 971,1111 961,1107 956,1125 944,1117 937,1134 926,1125 919,1139 909,1131 899,1145 889,1134 876,1139 873,1128 859,1128 863,1115 852,1105 860,1097 856,1084 866,1077 863,1063 875,1058 870,1043 886,1044 880,1031 892,1033 889,1017 902,1021 902,1021"/>
<polygon class="pen1 brush2" points="598,999 593,986 605,986 603,972 613,975 616,959 627,959 629,943 639,946 643,929 653,936 660,919 670,925 679,912 687,922 700,912 700,923 715,921 714,933 727,933 721,949 731,955 721,965 732,973 721,982 730,990 714,1000 721,1012 710,1016 711,1030 700,1033 701,1047 687,1050 687,1067 676,1065 674,1084 660,1081 659,1098 646,1094 642,1108 630,1102 623,1118 612,1110 600,1118 596,1108 582,1111 582,1098 569,1091 575,1081 569,1071 575,1060 569,1047 579,1040 572,1026 586,1024 579,1013 589,1012 583,996 598,999 598,999"/>
<polygon class="pen1 brush2" points="623,1338 622,1325 633,1328 634,1314 643,1317 647,1304 660,1306 666,1290 673,1296 681,1280 690,1288 700,1271 708,1280 720,1270 725,1280 740,1274 740,1284 754,1284 751,1297 764,1300 754,1314 762,1321 751,1331 761,1341 747,1347 754,1355 737,1364 741,1377 728,1378 728,1392 715,1394 715,1408 701,1406 697,1425 686,1421 681,1439 669,1432 663,1449 652,1442 644,1456 634,1448 625,1460 615,1450 602,1456 599,1446 585,1446 588,1433 578,1425 585,1415 581,1404 589,1395 586,1381 598,1377 592,1361 606,1362 602,1350 613,1351 609,1334 623,1338 623,1338"/>
<polygon class="pen1 brush2" points="258,1969 259,1964 262,1950 267,1929 274,1900 283,1866 294,1828 307,1787 323,1743 341,1699 361,1655 384,1612 409,1572 436,1535 466,1503 499,1478 534,1459 533,1458 532,1456 530,1451 528,1444 527,1435 529,1424 533,1409 540,1392 551,1371 567,1347 589,1319 616,1288 651,1253 693,1213 743,1169 802,1121 802,1121 800,1120 799,1119 797,1116 796,1113 796,1107 797,1101 800,1092 804,1082 811,1069 821,1054 834,1037 851,1016 871,992 896,965 926,935 924,936 918,937 908,940 895,943 879,947 862,950 843,953 823,956 821,959 815,967 805,981 792,997 777,1017 759,1038 740,1061 721,1083 700,1105 680,1126 660,1144 641,1158 624,1168 609,1174 596,1173 586,1165 583,1168 575,1178 562,1193 545,1213 525,1239 501,1269 476,1304 450,1343 422,1385 395,1431 368,1479 343,1531 319,1584 299,1640 281,1697 267,1755 280,1620 298,1497 320,1385 345,1284 373,1193 403,1113 434,1042 465,980 496,927 525,883 551,846 575,817 595,796 610,781 620,772 623,769 611,750 607,729 610,707 620,682 635,658 655,632 678,607 702,583 728,559 754,537 779,518 802,500 821,486 837,475 846,468 850,466 838,452 832,435 830,417 833,397 840,376 850,355 862,334 876,313 891,293 906,275 920,258 934,243 946,230 955,221 961,215 963,213 950,220 937,225 924,228 913,229 902,230 894,230 889,229 887,229 857,279 829,323 803,361 778,393 755,420 734,443 715,462 697,476 682,488 668,496 656,502 647,506 639,508 633,510 630,510 629,510 602,581 576,642 552,692 530,734 510,767 491,794 474,813 458,827 444,837 432,842 422,844 414,844 407,843 403,841 400,839 399,838 384,872 368,915 352,963 338,1011 325,1056 315,1093 308,1119 306,1128 261,1083 240,1043 236,1010 246,983 262,962 281,947 296,938 302,935 271,933 246,934 227,937 214,942 204,947 198,951 195,955 194,956 187,928 181,896 178,871 177,860 166,874 157,891 151,909 146,928 143,945 141,959 140,968 140,972 59,902 96,1004 65,1006 42,1014 27,1026 18,1040 13,1055 11,1067 11,1077 11,1080 26,1066 43,1057 60,1051 76,1047 90,1046 102,1046 110,1047 113,1047 98,1063 88,1081 82,1101 79,1120 78,1137 79,1152 80,1161 81,1165 102,1132 122,1108 141,1092 159,1083 176,1079 192,1081 207,1087 220,1096 233,1107 243,1120 253,1133 261,1146 267,1158 271,1167 274,1174 275,1176 237,1374 217,1541 212,1678 217,1787 229,1869 242,1926 253,1958 258,1969 258,1968 258,1967 258,1965 258,1964 258,1965 258,1967 258,1968 258,1969"/>
</g>
</svg>
