<?xml version="1.0" encoding="UTF-8" standalone="no"?>
<!DOCTYPE svg PUBLIC "-//W3C//DTD SVG 1.0//EN" "http://www.w3.org/TR/2001/REC-SVG-20010904/DTD/svg10.dtd">
<svg xmlns="http://www.w3.org/2000/svg" xmlns:xlink="http://www.w3.org/1999/xlink" fill-rule="evenodd" height="1.981in" preserveAspectRatio="none" stroke-linecap="round" viewBox="0 0 1970 1981" width="1.97in">
<style type="text/css">
.brush0 { fill: rgb(255,255,255); }
.pen0 { stroke: rgb(0,0,0); stroke-width: 1; stroke-linejoin: round; }
.brush1 { fill: none; }
.pen1 { stroke: none; }
.brush2 { fill: rgb(0,0,0); }
</style>
<g>
<polygon class="pen1 brush2" points="572,1958 700,1581 217,592 714,1513 828,1135 566,260 849,1068 1187,85 889,1092 1568,618 889,1142 787,1537 1753,1024 781,1605 704,1890 703,1894 700,1904 696,1918 689,1934 681,1950 672,1962 661,1970 649,1970 638,1963 633,1953 631,1940 632,1928 633,1917 632,1909 629,1906 622,1909 612,1916 603,1924 595,1932 587,1940 581,1947 576,1953 573,1957 572,1958 572,1958"/>
<polygon class="pen1 brush2" points="833,1599 838,1599 850,1599 866,1600 887,1600 911,1600 938,1601 967,1601 996,1602 1025,1603 1054,1603 1080,1604 1104,1604 1123,1604 1139,1605 1149,1605 1152,1605 960,1528 833,1599 833,1599"/>
<polygon class="pen1 brush2" points="997,1499 1002,1500 1014,1501 1030,1503 1051,1506 1075,1510 1102,1514 1130,1519 1159,1523 1187,1527 1215,1532 1241,1536 1264,1539 1284,1543 1299,1545 1309,1546 1312,1547 1133,1446 997,1499 997,1499"/>
<polygon class="pen1 brush2" points="1159,1422 1164,1422 1176,1423 1192,1424 1213,1425 1237,1426 1264,1427 1292,1429 1322,1430 1351,1432 1379,1434 1405,1435 1429,1436 1449,1437 1464,1438 1474,1439 1477,1439 1288,1358 1159,1422 1159,1422"/>
<polygon class="pen1 brush2" points="1324,1332 1329,1332 1340,1333 1357,1333 1378,1334 1402,1336 1429,1337 1457,1339 1487,1340 1516,1341 1544,1343 1571,1344 1594,1345 1614,1347 1630,1347 1640,1348 1643,1348 1453,1267 1324,1332 1324,1332"/>
<polygon class="pen1 brush2" points="1473,1247 1478,1247 1490,1248 1506,1249 1527,1250 1551,1252 1578,1253 1606,1255 1636,1257 1665,1259 1693,1261 1719,1262 1743,1264 1763,1265 1778,1266 1788,1267 1791,1267 1603,1182 1473,1247 1473,1247"/>
<polygon class="pen1 brush2" points="1657,1165 1662,1164 1673,1162 1689,1159 1710,1155 1734,1151 1760,1147 1788,1142 1817,1137 1846,1132 1873,1127 1899,1123 1922,1119 1942,1116 1957,1113 1967,1112 1970,1111 1768,1071 1657,1165 1657,1165"/>
<polygon class="pen1 brush2" points="667,1588 602,1459 402,1413 405,1415 413,1420 426,1429 442,1439 462,1452 484,1467 508,1482 532,1498 556,1514 580,1530 602,1545 623,1558 640,1570 654,1579 663,1585 667,1588 667,1588"/>
<polygon class="pen1 brush2" points="588,1411 505,1291 299,1274 302,1275 311,1280 325,1286 343,1295 364,1305 388,1316 414,1328 440,1341 467,1353 493,1365 517,1377 539,1387 558,1397 573,1404 583,1409 588,1411 588,1411"/>
<polygon class="pen1 brush2" points="497,1259 426,1132 223,1095 226,1097 234,1102 247,1110 264,1120 285,1132 307,1145 331,1160 356,1175 381,1190 406,1204 429,1218 450,1231 468,1242 482,1250 492,1256 497,1259 497,1259"/>
<polygon class="pen1 brush2" points="410,1091 341,964 137,926 140,928 148,933 162,941 179,951 199,963 221,977 245,991 271,1006 296,1021 320,1036 343,1050 364,1063 382,1074 396,1082 406,1088 410,1091 410,1091"/>
<polygon class="pen1 brush2" points="335,937 264,811 61,777 64,779 72,784 86,791 103,801 123,813 145,826 170,840 195,855 220,870 244,884 267,898 288,910 306,920 321,929 330,934 335,937 335,937"/>
<polygon class="pen1 brush2" points="228,766 190,626 0,544 3,546 10,553 21,564 35,578 52,594 71,612 91,632 112,652 133,673 154,693 173,711 190,728 205,743 217,754 225,762 228,766 228,766"/>
<polygon class="pen1 brush2" points="967,1406 1058,1358 1125,1153 967,1406 967,1406"/>
<polygon class="pen1 brush2" points="835,1483 926,1435 993,1230 835,1483 835,1483"/>
<polygon class="pen1 brush2" points="1129,1321 1223,1271 1288,1068 1129,1321 1129,1321"/>
<polygon class="pen1 brush2" points="1291,1237 1383,1187 1450,984 1291,1237 1291,1237"/>
<polygon class="pen1 brush2" points="1440,1149 1531,1101 1599,898 1440,1149 1440,1149"/>
<polygon class="pen1 brush2" points="1588,1064 1686,1027 1777,832 1588,1064 1588,1064"/>
<polygon class="pen1 brush2" points="650,1286 662,987 602,1193 650,1286 650,1286"/>
<polygon class="pen1 brush2" points="716,1422 727,1125 669,1330 716,1422 716,1422"/>
<polygon class="pen1 brush2" points="478,963 491,663 430,869 478,963 478,963"/>
<polygon class="pen1 brush2" points="406,807 416,507 358,713 406,807 406,807"/>
<polygon class="pen1 brush2" points="332,652 306,354 272,565 332,652 332,652"/>
<polygon class="pen1 brush2" points="1038,952 1098,899 1110,741 1038,952 1038,952"/>
<polygon class="pen1 brush2" points="953,1027 1011,977 1024,820 953,1027 953,1027"/>
<polygon class="pen1 brush2" points="1146,861 1207,810 1218,652 1146,861 1146,861"/>
<polygon class="pen1 brush2" points="1251,771 1312,720 1325,561 1251,771 1251,771"/>
<polygon class="pen1 brush2" points="1349,683 1410,632 1422,473 1349,683 1349,683"/>
<polygon class="pen1 brush2" points="1446,595 1512,551 1545,395 1446,595 1446,595"/>
<polygon class="pen1 brush2" points="937,1152 941,1152 949,1151 961,1150 977,1148 995,1146 1015,1143 1036,1141 1058,1138 1079,1136 1100,1134 1120,1131 1137,1129 1152,1127 1163,1126 1170,1125 1173,1125 1024,1088 937,1152 937,1152"/>
<polygon class="pen1 brush2" points="1048,1061 1052,1061 1061,1061 1073,1062 1089,1062 1107,1062 1127,1063 1149,1063 1171,1064 1193,1065 1214,1065 1234,1066 1252,1066 1267,1066 1278,1067 1285,1067 1288,1067 1145,1009 1048,1061 1048,1061"/>
<polygon class="pen1 brush2" points="1162,990 1166,990 1174,989 1187,989 1202,988 1220,987 1240,986 1262,984 1284,983 1305,982 1327,980 1346,979 1364,978 1379,977 1390,977 1397,976 1400,976 1251,930 1162,990 1162,990"/>
<polygon class="pen1 brush2" points="1277,909 1281,909 1289,908 1301,907 1317,906 1335,905 1355,904 1376,902 1398,900 1420,899 1441,897 1460,896 1478,895 1493,894 1504,893 1511,892 1514,892 1366,848 1277,909 1277,909"/>
<polygon class="pen1 brush2" points="1379,831 1383,831 1391,830 1404,830 1419,829 1438,828 1458,827 1479,826 1501,824 1523,823 1544,822 1564,821 1582,820 1597,819 1608,819 1615,818 1618,818 1470,770 1379,831 1379,831"/>
<polygon class="pen1 brush2" points="1508,753 1512,752 1520,749 1532,745 1547,741 1564,735 1584,729 1604,723 1625,716 1646,710 1666,704 1685,698 1702,693 1716,688 1727,685 1735,683 1737,682 1582,672 1508,753 1508,753"/>
<polygon class="pen1 brush2" points="825,886 872,668 802,811 825,886 825,886"/>
<polygon class="pen1 brush2" points="782,754 829,536 760,679 782,754 782,754"/>
<polygon class="pen1 brush2" points="741,625 788,405 717,550 741,625 741,625"/>
<polygon class="pen1 brush2" points="707,500 753,281 683,426 707,500 707,500"/>
<polygon class="pen1 brush2" points="672,376 690,152 639,305 672,376 672,376"/>
<polygon class="pen1 brush2" points="795,1107 762,1003 618,947 620,949 625,954 634,961 645,971 658,983 672,996 688,1010 704,1025 721,1039 736,1054 751,1067 765,1079 776,1090 786,1098 792,1104 795,1107 795,1107"/>
<polygon class="pen1 brush2" points="755,967 708,869 575,838 575,824 571,837 558,834 559,835 561,836 564,838 569,841 515,1027 564,1121 574,845 583,851 595,859 607,867 621,876 635,886 650,896 665,906 680,916 694,926 708,935 720,943 731,951 741,957 748,962 753,965 755,967 755,967"/>
<polygon class="pen1 brush2" points="706,845 669,743 521,693 523,695 529,699 538,707 549,716 563,727 578,740 594,753 611,767 628,781 645,794 660,807 675,819 687,829 696,837 703,842 706,845 706,845"/>
<polygon class="pen1 brush2" points="660,710 623,608 477,557 479,559 485,563 493,571 505,580 518,592 534,604 550,618 567,632 583,646 600,660 615,673 629,684 641,694 651,702 657,708 660,710 660,710"/>
<polygon class="pen1 brush2" points="623,588 585,486 437,437 439,439 445,443 454,450 465,460 479,471 495,483 511,496 528,510 545,524 562,538 578,550 592,562 604,572 614,580 620,585 623,588 623,588"/>
<polygon class="pen1 brush2" points="564,449 549,341 419,259 425,267 441,288 463,318 489,352 515,386 539,417 556,439 564,449 564,449"/>
<polygon class="pen1 brush2" points="1028,821 1036,813 1053,794 1077,769 1104,741 1130,713 1153,689 1170,672 1176,666 1051,726 1028,821 1028,821"/>
<polygon class="pen1 brush2" points="1055,693 1058,690 1063,685 1072,678 1083,669 1096,659 1110,648 1125,636 1141,623 1156,611 1171,599 1185,588 1197,578 1208,570 1216,564 1221,559 1223,558 1089,601 1055,693 1055,693"/>
<polygon class="pen1 brush2" points="1091,578 1099,570 1117,553 1141,529 1170,502 1197,475 1222,452 1239,435 1245,429 1116,483 1091,578 1091,578"/>
<polygon class="pen1 brush2" points="1122,455 1130,447 1148,429 1173,405 1201,377 1229,350 1253,327 1271,310 1277,304 1149,361 1122,455 1122,455"/>
<polygon class="pen1 brush2" points="1147,341 1155,333 1174,316 1199,292 1227,265 1256,239 1280,216 1297,199 1304,193 1174,247 1147,341 1147,341"/>
<polygon class="pen1 brush2" points="1191,212 1197,202 1211,181 1229,152 1251,119 1272,87 1290,58 1303,39 1308,31 1197,115 1191,212 1191,212"/>
<polygon class="pen1 brush2" points="909,818 939,724 865,607 866,612 869,626 873,647 879,672 885,701 891,730 897,758 902,783 835,922 858,996 902,787 905,799 906,808 908,814 909,818 909,818"/>
<polygon class="pen1 brush2" points="953,695 970,598 880,491 883,499 891,522 903,553 916,590 929,627 941,660 949,684 953,695 953,695"/>
<polygon class="pen1 brush2" points="981,578 1008,483 930,369 932,378 938,401 946,433 956,471 965,509 973,542 979,567 981,578 981,578"/>
<polygon class="pen1 brush2" points="1018,456 1045,362 967,247 969,256 975,279 983,311 993,349 1002,387 1010,420 1016,445 1018,456 1018,456"/>
<polygon class="pen1 brush2" points="1056,347 1082,253 1001,139 1003,148 1009,170 1018,203 1028,240 1038,278 1047,311 1053,336 1056,347 1056,347"/>
<polygon class="pen1 brush2" points="1086,213 1133,128 1082,0 1083,32 1084,104 1085,177 1086,213"/>
</g>
</svg>
