<?xml version="1.0" encoding="UTF-8" standalone="no"?>
<!DOCTYPE svg PUBLIC "-//W3C//DTD SVG 1.0//EN" "http://www.w3.org/TR/2001/REC-SVG-20010904/DTD/svg10.dtd">
<svg xmlns="http://www.w3.org/2000/svg" xmlns:xlink="http://www.w3.org/1999/xlink" fill-rule="evenodd" height="0.503in" preserveAspectRatio="none" stroke-linecap="round" viewBox="0 0 1986 503" width="1.986in">
<style type="text/css">
.brush0 { fill: rgb(255,255,255); }
.pen0 { stroke: rgb(0,0,0); stroke-width: 1; stroke-linejoin: round; }
.brush1 { fill: none; }
.pen1 { stroke: none; }
.brush2 { fill: rgb(0,0,0); }
</style>
<g>
<polygon class="pen1 brush2" points="0,503 1,502 3,498 6,491 11,482 17,472 25,459 35,444 46,428 59,411 74,392 91,372 110,351 130,330 153,308 178,285 206,263 235,240 267,218 302,195 339,174 378,153 420,132 465,113 512,95 562,78 616,63 672,49 731,38 793,28 858,21 926,16 998,13 1070,13 1138,15 1203,20 1265,26 1323,34 1379,44 1431,56 1480,69 1527,83 1571,99 1611,116 1650,133 1686,151 1719,170 1750,189 1778,209 1804,229 1829,248 1851,268 1871,288 1889,307 1905,325 1920,343 1933,360 1944,377 1954,392 1962,406 1969,418 1975,429 1980,439 1983,446 1986,452 1851,452 1850,450 1847,445 1841,436 1834,426 1826,413 1816,398 1805,383 1792,367 1779,351 1765,335 1751,320 1736,306 1721,294 1706,285 1691,278 1676,274 1675,276 1673,280 1669,287 1664,297 1657,308 1648,321 1636,335 1623,349 1607,364 1589,379 1569,393 1545,407 1519,419 1490,430 1458,439 1423,445 1414,414 1415,379 1419,350 1422,338 1416,357 1409,374 1403,391 1397,406 1390,420 1385,432 1380,441 1375,449 1373,449 1371,449 1369,449 1368,449 1355,449 1341,449 1325,449 1308,450 1290,450 1271,451 1250,451 1229,452 1222,432 1220,404 1222,372 1226,338 1232,306 1238,279 1242,261 1244,254 1230,298 1217,335 1205,367 1194,394 1183,415 1174,432 1166,444 1160,453 1145,454 1130,454 1114,455 1099,455 1083,455 1066,456 1050,456 1033,456 1016,457 999,457 982,458 965,458 947,458 929,459 911,459 893,460 892,428 889,392 886,363 885,351 884,355 881,365 877,380 871,398 865,417 859,435 853,451 848,462 843,462 839,462 834,462 829,463 831,401 836,315 841,238 842,205 826,258 813,305 801,345 791,379 782,408 774,431 768,450 763,465 749,465 736,465 722,466 708,466 694,466 680,467 666,467 653,468 639,468 625,469 611,469 597,470 583,470 569,471 556,471 542,472 539,444 541,412 543,387 545,377 540,396 535,413 530,428 525,440 520,451 516,460 512,467 508,473 491,474 475,474 458,475 442,475 426,476 410,476 394,477 379,478 363,478 348,479 333,480 318,480 304,481 289,482 275,482 261,483 262,433 268,371 275,319 278,297 267,335 257,368 248,397 240,422 232,443 226,460 221,475 216,486 196,487 176,488 158,489 140,490 123,491 106,492 91,493 77,494 64,496 51,497 40,498 30,499 21,500 13,501 6,502 0,503"/>
<polygon class="pen1 brush0" points="1582,159 1566,155 1548,151 1528,145 1506,138 1481,131 1453,124 1422,116 1388,108 1350,100 1309,93 1264,87 1216,81 1163,76 1105,73 1044,71 977,71 907,74 841,79 778,88 719,99 664,112 613,126 566,141 523,156 485,171 451,185 423,198 399,210 380,219 366,226 358,230 355,230 358,227 366,220 380,211 399,199 423,186 451,171 485,156 523,140 566,124 613,108 664,94 719,80 778,69 841,60 907,54 977,51 1044,51 1105,53 1163,56 1216,61 1264,67 1309,74 1350,82 1388,90 1422,99 1453,108 1481,118 1506,127 1528,136 1548,144 1566,152 1582,159"/>
</g>
</svg>
