<?xml version="1.0" encoding="UTF-8" standalone="no"?>
<!DOCTYPE svg PUBLIC "-//W3C//DTD SVG 1.0//EN" "http://www.w3.org/TR/2001/REC-SVG-20010904/DTD/svg10.dtd">
<svg xmlns="http://www.w3.org/2000/svg" xmlns:xlink="http://www.w3.org/1999/xlink" fill-rule="evenodd" height="1.324in" preserveAspectRatio="none" stroke-linecap="round" viewBox="0 0 1979 1324" width="1.979in">
<style type="text/css">
.brush0 { fill: rgb(255,255,255); }
.pen0 { stroke: rgb(0,0,0); stroke-width: 1; stroke-linejoin: round; }
.brush1 { fill: none; }
.pen1 { stroke: none; }
.brush2 { fill: rgb(0,0,0); }
</style>
<g>
<polygon class="pen1 brush2" points="1124,815 1125,836 1128,856 1132,876 1138,895 1145,913 1154,931 1165,947 1176,962 1189,977 1203,990 1218,1003 1234,1014 1251,1024 1269,1033 1288,1041 1307,1047 1306,1054 1284,1048 1264,1040 1245,1031 1227,1021 1211,1009 1195,996 1181,982 1168,967 1157,950 1147,933 1138,915 1130,896 1124,876 1119,856 1116,835 1114,814 971,797 972,788 1118,804 1125,785 1133,766 1143,749 1154,732 1166,716 1179,702 1193,688 1208,676 1225,664 1242,655 1259,646 1278,639 1297,633 1317,629 1337,627 1358,626 1358,635 1338,636 1318,638 1299,642 1281,647 1263,654 1246,662 1230,672 1214,682 1200,694 1186,707 1173,721 1162,736 1151,752 1142,769 1134,787 1127,805 1303,828 1310,814 1317,800 1325,787 1333,774 1342,762 1351,751 1360,741 1370,731 1381,722 1393,715 1405,708 1418,702 1432,698 1447,695 1462,693 1479,692 1476,699 1461,700 1447,702 1433,705 1420,709 1408,715 1396,721 1385,729 1375,737 1365,746 1356,756 1347,767 1339,778 1331,790 1324,802 1317,815 1311,828 1500,851 1506,841 1516,826 1527,809 1540,792 1554,776 1568,765 1583,759 1597,761 1593,768 1581,769 1569,776 1557,787 1545,801 1533,816 1523,830 1515,843 1509,852 1973,909 1961,902 1949,895 1938,887 1927,879 1916,871 1906,863 1895,855 1885,846 1875,838 1866,829 1856,820 1847,811 1837,802 1828,793 1819,783 1810,774 1810,774 1792,755 1773,736 1754,717 1735,699 1716,681 1695,663 1673,646 1651,630 1627,615 1601,601 1574,588 1544,576 1513,565 1480,557 1444,549 1405,544 1354,541 1306,543 1260,549 1217,559 1177,572 1140,588 1105,606 1073,626 1043,646 1017,668 993,689 972,709 954,729 939,746 927,762 918,774 918,774 913,781 910,786 909,789 908,790 868,800 833,812 803,826 777,841 756,858 738,875 723,893 711,911 701,929 692,945 686,961 679,975 674,986 668,996 662,1003 655,1006 648,1006 641,1003 636,998 631,990 627,981 624,971 622,959 620,947 613,950 606,953 599,955 593,956 587,958 581,958 575,959 570,959 577,976 584,993 589,1010 592,1026 593,1041 591,1053 585,1062 576,1068 559,1070 539,1064 519,1052 497,1034 474,1011 451,984 428,954 405,921 382,887 361,852 341,816 323,782 307,748 294,718 283,690 276,666 268,673 259,679 250,684 241,688 232,690 223,693 215,694 208,695 230,727 249,758 266,790 282,821 296,852 310,883 324,914 339,944 355,973 372,1003 392,1031 414,1059 440,1086 470,1112 504,1138 543,1162 574,1184 600,1209 623,1236 642,1262 656,1286 667,1306 673,1319 675,1324 684,1261 711,1297 715,1249 769,1306 742,1234 725,1170 716,1112 716,1062 723,1018 735,979 751,946 771,918 793,895 815,877 837,862 858,851 877,843 891,838 901,835 904,834 920,863 936,890 954,916 973,940 993,962 1014,983 1036,1002 1058,1020 1081,1036 1105,1051 1129,1064 1153,1076 1178,1086 1204,1096 1229,1104 1255,1110 1281,1116 1306,1120 1332,1123 1358,1125 1383,1125 1408,1125 1433,1123 1457,1121 1481,1117 1504,1113 1527,1107 1549,1101 1570,1094 1590,1086 1610,1077 1628,1067 1648,1056 1670,1045 1694,1033 1720,1022 1746,1010 1773,998 1799,987 1826,976 1852,966 1877,956 1900,947 1921,939 1940,932 1956,926 1969,921 1979,918 1508,861 1512,875 1517,891 1522,908 1529,925 1537,942 1546,956 1557,969 1569,977 1569,986 1557,982 1545,970 1534,954 1524,934 1515,912 1508,891 1503,873 1499,859 1310,838 1316,861 1324,888 1336,917 1350,946 1368,973 1388,994 1412,1009 1438,1014 1436,1023 1406,1012 1381,996 1360,975 1342,951 1328,924 1317,896 1309,866 1302,837 1124,815 1124,815"/>
<polygon class="pen1 brush2" points="618,940 611,943 604,946 597,948 591,949 584,951 578,951 572,952 567,952 561,941 556,932 551,924 547,917 544,910 542,903 542,893 543,882 549,883 557,883 564,882 572,881 581,879 590,876 598,871 607,866 615,882 618,900 617,919 618,940 618,940"/>
<polygon class="pen1 brush2" points="603,862 595,866 587,869 579,871 572,873 564,874 558,875 552,875 546,875 546,859 545,842 541,825 533,807 540,807 546,807 553,806 560,805 567,802 574,800 580,796 587,791 587,809 589,828 594,846 603,862 603,862"/>
<polygon class="pen1 brush2" points="588,784 580,789 572,793 564,796 556,798 549,799 542,799 535,799 529,798 524,794 519,789 514,785 508,780 509,771 509,762 509,753 509,743 516,743 523,743 530,742 538,741 546,739 554,735 562,730 570,724 576,733 582,741 588,748 594,753 592,761 591,769 589,776 588,784 588,784"/>
<polygon class="pen1 brush2" points="567,720 559,725 552,729 544,732 537,734 529,735 522,735 515,735 509,734 506,717 502,700 495,683 486,669 474,654 461,638 448,621 438,601 432,580 431,556 436,531 449,503 450,509 453,524 457,545 464,569 472,593 482,612 494,624 508,625 520,616 525,599 525,578 521,555 516,532 510,513 505,499 503,494 506,495 512,499 522,506 532,518 542,537 551,562 556,596 556,639 555,665 558,687 562,705 567,720 567,720"/>
<polygon class="pen1 brush2" points="275,659 266,667 256,673 246,678 236,681 227,684 217,685 209,686 202,686 199,683 195,679 191,675 187,671 182,666 176,662 171,657 165,652 166,649 167,642 170,632 172,618 179,618 187,618 196,617 206,616 217,613 227,609 238,604 248,597 252,601 257,605 263,609 269,612 269,616 270,625 272,640 275,659 275,659"/>
<polygon class="pen1 brush2" points="243,591 234,598 224,603 214,606 205,609 195,611 186,612 179,612 172,612 173,595 173,578 169,560 161,544 168,544 175,544 182,544 190,542 198,540 206,537 214,533 222,527 224,543 228,560 234,577 243,591 243,591"/>
<polygon class="pen1 brush2" points="222,520 213,526 204,530 195,533 186,534 177,535 170,535 163,535 157,534 154,531 149,527 145,523 140,519 136,516 132,514 131,513 131,514 132,511 135,504 138,493 141,480 147,481 154,481 161,480 169,479 176,476 184,473 191,469 199,463 204,470 210,476 216,481 223,486 223,488 222,495 222,506 222,520 222,520"/>
<polygon class="pen1 brush2" points="196,459 190,444 186,429 186,415 188,405 201,355 203,314 196,283 185,260 170,243 157,233 146,228 142,226 145,231 151,245 160,266 167,289 171,315 171,338 162,358 144,371 122,372 105,361 91,341 81,317 74,292 70,269 68,253 67,247 53,284 50,316 54,343 64,365 78,384 94,399 110,412 124,423 134,434 140,446 142,459 142,472 148,472 154,472 161,472 168,471 175,469 182,467 189,463 196,459 196,459"/>
<polygon class="pen1 brush2" points="43,115 34,112 26,107 19,101 13,94 7,86 3,77 1,68 0,58 1,47 5,36 10,26 17,17 26,10 36,5 47,1 59,0 70,1 81,5 91,10 100,17 107,26 112,36 116,47 117,58 115,71 111,83 105,93 97,102 121,143 86,131 141,324 137,344 124,328 64,136 36,166 43,115"/>
</g>
</svg>
