<?xml version="1.0" encoding="UTF-8" standalone="no"?>
<!DOCTYPE svg PUBLIC "-//W3C//DTD SVG 1.0//EN" "http://www.w3.org/TR/2001/REC-SVG-20010904/DTD/svg10.dtd">
<svg xmlns="http://www.w3.org/2000/svg" xmlns:xlink="http://www.w3.org/1999/xlink" fill-rule="evenodd" height="1.772in" preserveAspectRatio="none" stroke-linecap="round" viewBox="0 0 1976 1772" width="1.976in">
<style type="text/css">
.brush0 { fill: rgb(255,255,255); }
.pen0 { stroke: rgb(0,0,0); stroke-width: 1; stroke-linejoin: round; }
.brush1 { fill: none; }
.pen1 { stroke: none; }
.brush2 { fill: rgb(0,0,0); }
</style>
<g>
<polygon class="pen1 brush2" points="1163,1598 1176,1641 1192,1678 1209,1708 1225,1732 1240,1750 1253,1762 1261,1770 1264,1772 1241,1767 1218,1758 1195,1746 1173,1731 1150,1714 1129,1695 1109,1675 1089,1655 1071,1635 1055,1616 1040,1598 1028,1582 1018,1568 1010,1558 1005,1551 1003,1549 1002,1551 998,1558 992,1568 984,1581 974,1597 962,1615 948,1634 932,1654 914,1674 895,1694 873,1713 851,1730 827,1745 801,1758 774,1767 746,1772 749,1768 757,1757 769,1739 784,1715 800,1684 817,1648 832,1607 845,1562 857,1516 870,1475 884,1438 901,1406 920,1380 943,1361 970,1349 1001,1345 1020,1347 1038,1353 1055,1362 1069,1374 1083,1389 1095,1406 1106,1424 1116,1444 1125,1465 1133,1486 1140,1507 1146,1528 1151,1548 1156,1566 1160,1583 1163,1598 1163,1598"/>
<polygon class="pen1 brush2" points="1518,395 1510,373 1501,351 1492,330 1483,309 1473,289 1462,268 1451,249 1439,229 1425,209 1411,188 1395,168 1377,147 1358,126 1338,104 1315,81 1291,57 1290,65 1288,88 1283,125 1276,176 1267,239 1255,313 1241,398 1223,493 1241,476 1260,460 1278,445 1296,433 1314,421 1333,411 1351,403 1369,396 1387,391 1406,387 1424,385 1443,384 1461,385 1480,387 1499,390 1518,395 1518,395"/>
<polygon class="pen1 brush2" points="500,413 507,391 515,369 524,347 534,325 546,303 558,280 572,257 588,234 604,212 622,189 641,166 661,142 682,119 705,96 729,73 754,50 754,61 756,92 759,140 764,203 771,279 781,364 795,457 812,554 794,537 775,520 757,505 738,490 719,476 700,464 680,453 661,443 641,434 621,426 601,420 581,416 561,413 540,411 520,411 500,413 500,413"/>
<polygon class="pen1 brush2" points="1034,244 1054,205 1074,164 1094,123 1113,85 1131,51 1147,24 1160,6 1169,0 1171,4 1177,18 1185,39 1196,67 1209,103 1223,145 1237,193 1251,246 1248,274 1244,304 1240,335 1235,367 1230,399 1224,432 1217,466 1210,500 1205,505 1200,511 1195,517 1190,522 1184,528 1179,534 1174,541 1169,547 1153,511 1134,466 1112,416 1089,366 1068,320 1051,281 1039,255 1034,244 1034,244"/>
<polygon class="pen1 brush2" points="1007,791 1014,778 1031,750 1055,712 1082,670 1110,629 1135,593 1152,569 1160,560 1145,526 1129,492 1114,457 1099,422 1084,388 1069,353 1053,318 1038,283 1022,249 1007,214 991,179 975,145 959,111 943,77 926,44 909,11 887,44 867,77 849,110 832,144 817,177 803,211 791,245 781,278 785,309 789,342 793,376 798,411 803,447 809,483 815,520 822,557 837,572 852,589 868,607 884,625 899,645 915,665 930,684 944,703 957,721 969,738 980,753 989,766 997,777 1002,785 1006,790 1007,791 1007,791"/>
<polygon class="pen1 brush2" points="1013,801 1036,761 1060,721 1084,682 1109,645 1135,609 1161,574 1188,542 1216,512 1245,485 1274,461 1305,440 1337,423 1370,410 1404,401 1439,396 1476,396 1527,409 1569,433 1601,468 1623,512 1637,564 1641,621 1636,683 1623,748 1601,815 1571,881 1532,947 1486,1009 1432,1067 1371,1119 1303,1164 1227,1200 1224,1193 1219,1182 1212,1168 1204,1151 1195,1131 1185,1109 1173,1084 1159,1058 1145,1030 1129,1000 1113,969 1095,936 1076,903 1056,869 1035,835 1013,801 1013,801"/>
<polygon class="pen1 brush2" points="1220,1206 1219,1204 1216,1196 1211,1185 1204,1169 1195,1150 1184,1128 1172,1102 1158,1074 1142,1043 1125,1010 1106,976 1086,940 1065,903 1042,865 1018,827 993,788 967,750 939,713 911,676 882,641 852,607 822,575 790,545 758,517 725,493 692,472 659,454 625,440 590,430 556,425 521,424 486,429 453,439 423,453 398,472 377,494 360,520 346,549 337,581 331,615 329,651 331,688 337,727 346,767 358,807 375,848 394,888 418,928 444,967 474,1005 507,1041 544,1076 584,1108 627,1137 673,1163 722,1186 774,1206 829,1221 887,1231 948,1237 1012,1238 1079,1233 1148,1223 1220,1206 1220,1206"/>
<polygon class="pen1 brush2" points="1038,1304 1040,1305 1045,1307 1053,1310 1065,1314 1079,1318 1096,1324 1115,1330 1137,1336 1161,1342 1187,1349 1215,1355 1244,1361 1275,1367 1307,1372 1340,1376 1374,1379 1408,1382 1443,1383 1479,1383 1514,1381 1550,1378 1585,1373 1620,1367 1655,1358 1689,1346 1721,1333 1753,1317 1784,1298 1813,1276 1840,1252 1865,1224 1889,1193 1912,1157 1931,1123 1945,1091 1957,1061 1964,1032 1968,1005 1969,980 1967,956 1961,928 1952,903 1939,880 1923,860 1904,841 1884,825 1863,811 1840,799 1817,789 1793,781 1771,774 1749,769 1728,765 1709,763 1693,762 1679,763 1678,768 1675,784 1669,808 1659,839 1645,876 1626,918 1602,963 1572,1011 1535,1059 1491,1106 1439,1151 1379,1194 1309,1231 1229,1263 1139,1288 1038,1304 1038,1304"/>
<polygon class="pen1 brush2" points="939,1293 838,1277 748,1253 668,1221 599,1183 538,1141 486,1096 442,1048 406,1000 376,953 352,908 333,866 320,829 310,798 304,774 301,758 300,753 287,752 270,753 252,755 232,759 210,763 188,770 165,778 142,787 119,799 97,812 77,828 59,845 42,864 29,886 18,910 11,936 8,960 8,987 12,1015 19,1044 30,1076 45,1110 65,1145 89,1183 113,1214 138,1242 165,1266 194,1288 225,1307 257,1323 289,1336 323,1347 358,1356 392,1363 428,1368 463,1371 499,1373 534,1373 569,1371 604,1369 638,1365 671,1361 703,1356 733,1350 763,1344 790,1338 816,1331 840,1325 862,1319 881,1313 898,1307 912,1303 924,1299 932,1296 937,1294 939,1293"/>
</g>
</svg>
