<?xml version="1.0" encoding="UTF-8" standalone="no"?>
<!DOCTYPE svg PUBLIC "-//W3C//DTD SVG 1.0//EN" "http://www.w3.org/TR/2001/REC-SVG-20010904/DTD/svg10.dtd">
<svg xmlns="http://www.w3.org/2000/svg" xmlns:xlink="http://www.w3.org/1999/xlink" fill-rule="evenodd" height="2.0in" preserveAspectRatio="none" stroke-linecap="round" viewBox="0 0 1901 2000" width="1.901in">
<style type="text/css">
.brush0 { fill: rgb(255,255,255); }
.pen0 { stroke: rgb(0,0,0); stroke-width: 1; stroke-linejoin: round; }
.brush1 { fill: none; }
.pen1 { stroke: none; }
.brush2 { fill: rgb(0,0,0); }
</style>
<g>
<polygon class="pen1 brush2" points="1686,307 1726,257 1752,207 1766,161 1771,119 1770,83 1766,55 1762,37 1760,31 1738,29 1716,30 1695,32 1674,37 1654,44 1634,52 1615,61 1597,72 1580,83 1565,95 1550,108 1537,121 1524,133 1514,146 1505,158 1497,169 1481,139 1464,113 1446,91 1428,71 1408,55 1389,41 1370,30 1352,21 1334,14 1318,9 1304,5 1291,3 1281,1 1273,0 1268,0 1266,0 1249,41 1241,84 1241,126 1246,168 1256,206 1268,241 1283,271 1297,294 1264,304 1235,316 1209,330 1187,345 1167,361 1150,378 1136,395 1124,411 1114,428 1106,443 1099,457 1095,469 1092,479 1089,486 1088,491 1088,493 1107,506 1126,516 1146,524 1167,531 1188,535 1209,538 1230,539 1251,539 1271,538 1290,536 1309,533 1327,529 1343,524 1359,519 1372,514 1384,509 1376,575 1381,631 1394,679 1412,718 1432,748 1450,769 1464,782 1469,786 1507,763 1538,734 1564,700 1584,663 1598,626 1608,589 1614,556 1615,527 1645,541 1675,551 1703,557 1729,561 1754,562 1778,560 1800,557 1820,553 1838,548 1854,542 1868,535 1880,530 1889,524 1895,520 1900,517 1901,516 1896,494 1889,473 1880,454 1869,435 1856,418 1842,402 1828,387 1812,373 1796,360 1779,349 1762,339 1746,330 1730,322 1714,316 1700,311 1686,307 1686,307"/>
<polygon class="pen1 brush2" points="1695,639 1736,686 1740,699 1750,736 1763,795 1775,873 1785,968 1790,1078 1785,1200 1769,1331 1762,1369 1754,1407 1744,1446 1734,1485 1721,1525 1708,1565 1693,1606 1676,1646 1658,1687 1638,1728 1616,1768 1592,1809 1567,1850 1539,1891 1510,1931 1478,1971 1361,2000 1364,1997 1371,1990 1381,1977 1395,1961 1410,1942 1425,1919 1441,1895 1455,1869 1467,1842 1476,1814 1481,1787 1482,1760 1476,1735 1463,1711 1443,1690 1414,1672 1431,1618 1435,1621 1444,1629 1458,1642 1476,1659 1494,1679 1512,1701 1528,1724 1541,1748 1544,1745 1554,1734 1569,1716 1587,1691 1609,1658 1632,1616 1656,1566 1679,1507 1700,1439 1718,1362 1733,1275 1742,1178 1745,1071 1740,954 1728,825 1705,686 1702,671 1699,656 1696,644 1695,639 1695,639"/>
<polygon class="pen1 brush2" points="1371,1577 1362,1574 1352,1568 1340,1560 1327,1550 1312,1538 1297,1524 1279,1508 1261,1492 1241,1474 1220,1455 1198,1435 1174,1415 1148,1395 1122,1375 1094,1355 1065,1335 1034,1316 1002,1298 969,1281 935,1265 899,1250 862,1238 823,1227 783,1219 742,1212 699,1209 655,1208 610,1210 564,1216 516,1225 467,1237 416,1254 418,1254 422,1252 430,1251 440,1249 453,1246 469,1244 487,1242 507,1239 529,1238 554,1236 580,1236 608,1236 637,1237 668,1239 701,1242 734,1247 769,1253 804,1261 841,1271 878,1283 915,1297 953,1313 991,1332 1029,1353 1068,1377 1106,1404 1144,1434 1181,1467 1218,1504 1254,1544 1290,1588 1324,1635 1331,1649 1338,1667 1340,1688 1338,1710 1327,1733 1308,1753 1277,1770 1232,1782 1231,1783 1227,1785 1222,1788 1214,1791 1205,1796 1195,1800 1184,1805 1171,1809 1158,1813 1145,1816 1131,1818 1117,1819 1104,1818 1091,1816 1078,1811 1067,1805 1065,1806 1059,1808 1050,1812 1038,1817 1023,1822 1006,1827 988,1833 969,1839 949,1844 928,1848 908,1851 889,1853 871,1853 854,1852 839,1848 827,1841 825,1842 820,1843 811,1845 801,1848 787,1851 772,1853 756,1855 739,1856 721,1856 703,1855 686,1852 669,1846 653,1839 639,1829 627,1816 617,1800 615,1800 610,1800 601,1799 590,1798 577,1797 562,1794 546,1791 529,1787 512,1781 495,1774 479,1766 465,1755 452,1743 441,1729 433,1713 428,1694 423,1693 415,1691 406,1688 395,1684 383,1679 371,1672 357,1665 344,1656 331,1646 317,1634 305,1620 294,1605 283,1588 275,1568 268,1547 263,1524 261,1524 256,1523 247,1522 237,1520 224,1516 210,1512 194,1505 179,1497 163,1487 147,1475 133,1460 120,1443 110,1422 101,1399 96,1372 94,1342 90,1339 80,1330 66,1317 49,1299 32,1278 18,1256 7,1231 2,1206 3,1190 7,1174 15,1159 28,1145 45,1131 67,1119 94,1107 128,1097 128,1089 130,1070 136,1042 147,1009 166,977 193,949 231,930 282,922 283,920 285,915 288,907 293,897 299,885 307,872 317,859 329,845 343,832 359,820 378,810 398,802 421,797 446,795 474,797 505,804 509,801 515,795 522,788 530,780 540,770 552,761 565,751 579,743 595,735 612,729 630,725 651,724 672,725 695,730 719,739 745,752 747,751 753,748 762,743 775,737 790,732 807,726 826,720 847,716 869,714 891,714 914,716 937,722 959,731 981,745 1001,763 1020,787 1022,787 1028,788 1038,789 1051,791 1066,794 1083,799 1101,804 1120,812 1140,821 1159,833 1178,846 1196,863 1211,881 1225,903 1236,928 1243,956 1245,957 1251,959 1261,963 1274,968 1288,975 1304,984 1321,995 1339,1008 1356,1024 1372,1042 1386,1062 1398,1084 1408,1109 1413,1137 1415,1168 1412,1202 1416,1205 1425,1214 1438,1229 1452,1250 1464,1278 1472,1311 1473,1350 1466,1395 1467,1397 1469,1404 1473,1415 1477,1428 1481,1444 1484,1462 1486,1480 1487,1499 1485,1518 1481,1535 1474,1550 1463,1563 1447,1573 1427,1579 1402,1581 1371,1577"/>
<polygon class="pen1 brush0" points="1554,413 1558,398 1559,383 1559,368 1557,351 1559,351 1562,351 1564,351 1566,351 1569,368 1569,384 1567,399 1563,412 1561,412 1559,412 1556,413 1554,413 1554,413"/>
<polygon class="pen1 brush0" points="1462,443 1469,445 1477,446 1484,447 1492,447 1499,447 1507,446 1515,445 1524,443 1524,445 1524,447 1524,450 1524,452 1515,454 1507,456 1499,457 1491,457 1483,457 1476,456 1469,454 1462,452 1462,450 1462,447 1462,445 1462,443 1462,443"/>
<polygon class="pen1 brush0" points="1489,413 1496,412 1503,410 1509,407 1515,403 1520,398 1523,391 1525,385 1526,377 1525,369 1523,362 1520,356 1515,350 1509,346 1503,343 1496,341 1489,340 1482,341 1475,343 1469,346 1463,350 1458,356 1455,362 1453,369 1452,377 1453,385 1455,391 1458,398 1463,403 1469,407 1475,410 1482,412 1489,413 1489,413"/>
<polygon class="pen1 brush0" points="1424,405 1419,390 1417,376 1418,361 1421,344 1419,344 1416,344 1414,344 1411,344 1409,361 1409,377 1410,391 1415,405 1417,405 1420,405 1422,405 1424,405 1424,405"/>
<polygon class="pen1 brush0" points="1459,315 1466,313 1474,312 1481,311 1489,311 1496,311 1504,312 1513,313 1522,315 1522,313 1522,311 1522,309 1522,306 1513,303 1504,301 1496,300 1488,299 1481,300 1473,301 1466,303 1459,306 1459,309 1459,311 1459,313 1459,315"/>
</g>
</svg>
