<?xml version="1.0" encoding="UTF-8" standalone="no"?>
<!DOCTYPE svg PUBLIC "-//W3C//DTD SVG 1.0//EN" "http://www.w3.org/TR/2001/REC-SVG-20010904/DTD/svg10.dtd">
<svg xmlns="http://www.w3.org/2000/svg" xmlns:xlink="http://www.w3.org/1999/xlink" fill-rule="evenodd" height="1.981in" preserveAspectRatio="none" stroke-linecap="round" viewBox="0 0 960 1981" width="0.96in">
<style type="text/css">
.brush0 { fill: rgb(255,255,255); }
.pen0 { stroke: rgb(0,0,0); stroke-width: 1; stroke-linejoin: round; }
.brush1 { fill: none; }
.pen1 { stroke: none; }
.brush2 { fill: rgb(0,0,0); }
</style>
<g>
<polygon class="pen1 brush2" points="456,1751 481,1729 511,1701 545,1667 581,1626 619,1578 658,1525 695,1465 730,1399 762,1327 789,1250 810,1166 824,1076 830,981 827,879 812,773 786,660 615,765 619,759 630,743 646,720 666,691 688,660 712,627 735,597 756,571 744,538 730,505 716,471 700,437 684,403 666,368 647,333 627,298 605,262 583,226 559,189 534,152 507,115 479,77 450,39 419,0 416,2 394,19 372,38 351,58 330,81 309,105 289,130 270,157 251,185 233,215 215,245 198,277 182,310 166,343 151,377 136,411 122,446 94,523 70,600 49,676 32,750 19,820 10,885 6,944 6,995 13,1006 22,1020 34,1036 47,1053 61,1072 76,1091 91,1111 107,1130 122,1149 136,1166 150,1182 161,1197 171,1208 179,1217 183,1223 185,1225 17,1126 28,1185 42,1242 60,1296 79,1347 101,1396 124,1442 149,1485 174,1525 200,1562 226,1596 252,1628 277,1656 301,1682 324,1705 345,1724 364,1741 364,1710 365,1679 365,1648 365,1616 138,1416 145,1407 365,1600 365,1568 365,1536 366,1503 367,1470 138,1268 145,1258 367,1453 367,1416 368,1380 368,1343 368,1306 142,1113 149,1105 368,1292 369,1253 369,1214 370,1175 371,1136 144,967 152,960 371,1122 371,1087 372,1051 373,1016 374,981 155,821 165,812 374,968 375,933 375,898 376,864 377,829 172,678 182,670 378,815 378,780 379,746 380,713 381,680 209,555 217,548 381,667 381,639 383,611 384,584 385,558 233,444 243,436 385,544 385,525 386,505 387,486 388,467 250,362 260,353 388,454 389,427 390,400 391,375 392,350 294,275 301,268 394,336 395,311 397,287 398,265 399,244 330,200 337,190 401,230 405,177 409,138 413,114 416,106 420,114 425,137 428,173 431,223 482,190 490,200 432,237 432,258 433,280 434,304 435,330 517,268 526,275 435,343 436,368 436,394 436,421 436,450 560,353 568,362 436,464 437,482 438,502 439,521 439,541 577,436 587,444 439,555 439,581 440,608 441,636 442,664 602,548 611,555 442,678 442,712 442,745 442,779 443,813 638,670 646,678 443,829 444,863 445,898 446,932 446,968 655,812 665,821 446,981 446,1016 447,1051 448,1087 449,1122 668,960 675,967 449,1136 449,1175 449,1214 449,1253 450,1292 673,1112 682,1119 450,1308 450,1344 451,1380 452,1417 452,1454 673,1262 682,1272 452,1470 452,1503 453,1536 453,1568 453,1600 673,1411 682,1420 453,1616 454,1650 455,1684 455,1718 456,1751 456,1751"/>
<polygon class="pen1 brush2" points="422,373 431,741 436,1281 439,1769 440,1981 381,1930 381,1725 384,1254 391,731 405,373 410,337 415,326 419,338 422,373"/>
</g>
</svg>
