<?xml version="1.0" encoding="UTF-8" standalone="no"?>
<!DOCTYPE svg PUBLIC "-//W3C//DTD SVG 1.0//EN" "http://www.w3.org/TR/2001/REC-SVG-20010904/DTD/svg10.dtd">
<svg xmlns="http://www.w3.org/2000/svg" xmlns:xlink="http://www.w3.org/1999/xlink" fill-rule="evenodd" height="1.987in" preserveAspectRatio="none" stroke-linecap="round" viewBox="0 0 1526 1987" width="1.526in">
<style type="text/css">
.brush0 { fill: rgb(255,255,255); }
.pen0 { stroke: rgb(0,0,0); stroke-width: 1; stroke-linejoin: round; }
.brush1 { fill: none; }
.pen1 { stroke: none; }
.brush2 { fill: rgb(0,0,0); }
</style>
<g>
<polygon class="pen1 brush2" points="155,369 186,408 218,446 249,484 280,523 311,561 343,599 374,637 405,675 436,712 467,750 498,787 529,824 560,862 591,899 622,935 653,972 684,1009 715,1045 746,1081 777,1117 808,1153 839,1189 870,1225 902,1260 933,1295 964,1330 995,1365 1026,1400 1058,1435 1089,1469 1121,1503 1152,1537 1125,1598 1090,1562 1055,1525 1021,1489 987,1453 953,1416 919,1379 886,1342 853,1305 821,1268 788,1231 756,1194 725,1156 693,1119 662,1081 631,1043 601,1005 571,967 541,928 511,890 482,851 453,812 425,773 396,733 368,694 340,654 313,614 286,574 259,533 233,492 206,452 181,410 155,369 155,369"/>
<polygon class="pen1 brush2" points="0,175 2,180 2,185 3,198 4,219 5,248 7,283 11,325 15,372 21,423 28,479 37,539 47,601 59,665 74,731 90,798 109,865 130,932 154,998 181,1062 210,1124 243,1183 279,1238 318,1289 361,1335 408,1376 458,1410 513,1437 572,1457 635,1469 702,1472 774,1466 851,1449 933,1422 941,1416 924,1398 907,1381 890,1363 874,1345 858,1327 842,1309 826,1291 810,1273 425,1264 422,1263 421,1260 422,1257 425,1256 801,1264 786,1247 771,1230 756,1213 741,1196 726,1178 711,1161 696,1143 682,1125 351,1116 347,1114 346,1111 347,1108 351,1108 675,1115 662,1099 649,1083 636,1067 623,1051 610,1035 597,1019 584,1003 571,987 298,986 295,985 294,981 294,978 298,977 564,977 554,964 544,951 534,938 524,925 514,912 504,899 494,885 485,872 253,865 251,864 250,861 251,859 253,858 477,864 465,848 454,832 442,815 431,799 420,783 408,767 397,752 385,736 195,727 192,726 191,723 192,721 195,720 378,727 372,719 363,705 353,692 344,678 335,664 326,651 316,637 307,623 297,609 134,609 131,608 131,606 131,605 132,603 134,602 291,602 287,594 282,586 278,579 273,572 268,565 263,558 258,551 253,544 248,536 243,529 238,521 233,514 101,510 98,509 97,505 98,502 101,501 226,506 219,495 211,484 204,473 198,461 191,450 184,439 176,427 169,416 77,410 74,409 73,406 74,403 77,402 164,409 60,244 59,240 61,238 64,237 67,239 179,376 192,304 193,301 196,301 198,302 199,305 185,385 194,396 202,406 211,417 219,427 227,438 236,449 244,459 253,470 283,352 284,350 287,350 289,351 290,355 260,477 280,501 288,510 295,519 303,529 310,538 318,548 325,558 333,567 340,577 372,406 374,403 377,403 379,405 379,409 347,585 359,599 371,614 383,628 395,642 406,657 418,671 430,686 442,700 475,493 477,490 479,489 482,491 483,494 449,709 461,723 473,738 485,752 498,767 510,782 522,796 534,811 546,825 597,578 599,574 601,573 603,574 604,578 554,835 565,849 577,863 588,877 600,890 611,904 622,918 634,932 645,946 702,646 704,644 707,643 710,645 710,649 652,953 664,968 677,984 689,999 702,1014 715,1029 728,1044 740,1059 753,1074 821,727 822,724 825,723 828,725 828,729 760,1082 774,1098 788,1114 803,1131 817,1147 831,1164 846,1180 860,1197 874,1213 948,834 950,831 952,830 955,831 956,835 879,1221 894,1238 909,1255 924,1272 939,1289 954,1305 969,1322 985,1338 1000,1355 1043,1282 1075,1212 1097,1144 1108,1078 1110,1015 1103,954 1088,895 1066,839 1036,784 1001,733 960,683 915,636 865,591 812,548 756,508 697,470 637,434 577,401 516,370 455,341 396,314 338,290 283,268 230,249 182,231 137,216 98,204 65,193 37,185 17,180 4,176 0,175"/>
<polygon class="pen1 brush2" points="1192,0 1188,53 1178,196 1166,402 1157,647 1154,905 1162,1151 1186,1360 1229,1506 1231,1507 1236,1508 1245,1510 1255,1512 1267,1513 1279,1513 1292,1511 1304,1506 1316,1493 1325,1466 1332,1426 1335,1374 1334,1309 1327,1232 1314,1145 1294,1047 1290,1015 1291,974 1295,925 1301,873 1308,820 1314,770 1319,725 1321,689 1318,643 1309,569 1295,475 1278,371 1258,263 1237,160 1214,69 1192,0 1192,0"/>
<polygon class="pen1 brush2" points="1219,1544 1221,1545 1228,1547 1238,1550 1251,1553 1266,1554 1283,1552 1299,1547 1316,1538 1314,1553 1311,1589 1308,1635 1310,1676 1313,1666 1323,1640 1337,1603 1354,1562 1374,1523 1393,1490 1412,1470 1428,1469 1438,1481 1442,1498 1441,1519 1436,1543 1433,1557 1428,1571 1423,1585 1418,1599 1412,1613 1406,1626 1400,1638 1395,1649 1383,1674 1368,1707 1353,1746 1338,1790 1326,1836 1319,1882 1318,1928 1325,1970 1321,1971 1311,1972 1296,1975 1277,1977 1255,1979 1233,1979 1211,1978 1192,1975 1190,1929 1186,1826 1179,1714 1171,1645 1173,1644 1179,1640 1186,1633 1195,1622 1204,1608 1212,1591 1217,1570 1219,1544"/>
</g>
</svg>
