<?xml version="1.0" encoding="UTF-8" standalone="no"?>
<!DOCTYPE svg PUBLIC "-//W3C//DTD SVG 1.0//EN" "http://www.w3.org/TR/2001/REC-SVG-20010904/DTD/svg10.dtd">
<svg xmlns="http://www.w3.org/2000/svg" xmlns:xlink="http://www.w3.org/1999/xlink" fill-rule="evenodd" height="1.098in" preserveAspectRatio="none" stroke-linecap="round" viewBox="0 0 1994 1098" width="1.994in">
<style type="text/css">
.brush0 { fill: rgb(255,255,255); }
.pen0 { stroke: rgb(0,0,0); stroke-width: 1; stroke-linejoin: round; }
.brush1 { fill: none; }
.pen1 { stroke: none; }
.brush2 { fill: rgb(0,0,0); }
</style>
<g>
<polygon class="pen1 brush2" points="236,237 238,237 243,238 251,238 262,239 275,241 292,243 311,246 333,249 357,253 384,257 412,262 443,268 476,275 510,283 546,291 584,301 571,284 557,265 542,242 527,216 511,187 495,155 480,120 466,81 476,84 485,110 496,138 509,168 525,197 541,227 560,255 580,281 601,305 616,309 631,314 646,318 661,323 677,327 693,332 709,337 725,343 741,348 757,354 774,360 790,365 807,372 824,378 841,384 858,391 843,363 829,330 816,293 805,254 796,214 791,174 788,135 790,99 797,105 796,135 798,170 804,208 812,248 824,288 837,327 854,364 872,396 883,401 895,406 906,411 917,416 929,421 940,426 951,431 963,436 974,442 985,447 997,453 1008,458 1020,464 1031,470 1043,476 1054,482 1042,424 1035,363 1032,301 1031,242 1040,242 1040,256 1041,271 1041,286 1041,301 1050,294 1059,287 1069,281 1078,275 1088,269 1097,264 1107,259 1117,255 1127,252 1137,249 1147,246 1158,243 1169,242 1180,240 1191,239 1202,239 1202,247 1179,246 1156,250 1132,258 1109,267 1087,279 1069,291 1053,302 1043,313 1046,357 1049,400 1056,444 1067,487 1086,497 1105,508 1124,519 1143,529 1162,541 1181,552 1200,563 1219,575 1218,568 1217,561 1217,552 1217,544 1226,544 1226,554 1227,563 1228,572 1229,581 1251,596 1272,611 1294,626 1316,642 1337,658 1359,675 1380,692 1401,709 1422,727 1443,746 1464,764 1484,783 1504,803 1525,823 1544,844 1564,865 1564,862 1564,853 1563,840 1561,822 1557,802 1551,780 1543,756 1531,733 1538,737 1549,748 1563,765 1578,787 1592,811 1604,837 1612,864 1614,889 1616,888 1621,884 1628,878 1638,870 1648,858 1659,844 1669,827 1679,807 1702,828 1700,831 1696,837 1689,848 1680,861 1670,876 1660,892 1651,907 1642,922 1645,925 1651,932 1661,944 1674,960 1688,979 1701,1000 1715,1024 1726,1050 1724,1050 1720,1049 1714,1048 1706,1046 1698,1044 1690,1041 1683,1037 1678,1033 1676,1039 1672,1053 1667,1074 1663,1098 1662,1095 1657,1086 1649,1071 1638,1051 1623,1026 1604,997 1580,964 1553,928 1520,889 1482,847 1440,804 1391,758 1337,712 1278,665 1211,617 1139,570 1060,632 1054,624 1088,598 1074,601 1060,603 1047,604 1035,604 1022,603 1010,601 997,598 983,595 986,587 1004,592 1023,595 1042,595 1061,594 1080,590 1098,584 1115,575 1131,564 1120,558 1109,551 1098,545 1087,538 1076,532 1064,525 1053,519 1041,512 1029,506 1017,499 1005,493 993,487 981,480 968,474 956,468 943,462 932,462 921,463 910,464 898,466 887,468 876,471 865,474 854,477 843,481 832,484 821,488 811,492 800,497 790,501 780,506 770,510 770,540 774,572 783,602 794,629 786,635 776,605 767,576 761,546 760,516 746,523 733,530 719,537 706,545 693,553 680,561 666,569 653,578 648,571 661,562 676,552 691,543 708,533 725,523 743,513 761,503 780,494 798,486 817,478 836,471 855,465 873,460 892,456 909,454 926,453 903,442 880,432 857,422 833,411 809,401 784,391 759,382 733,372 707,363 681,353 654,344 627,335 599,326 571,318 542,309 513,301 498,305 483,310 468,315 454,322 440,329 427,336 414,344 402,353 390,362 378,372 366,382 354,392 343,403 332,414 321,425 310,436 304,430 313,421 322,411 332,401 343,390 354,380 365,370 377,360 390,350 402,340 415,331 428,323 441,316 454,309 467,303 480,298 493,295 478,291 462,287 447,283 432,279 416,276 400,272 385,268 369,264 353,261 336,257 320,254 304,250 287,247 270,244 253,240 236,237 236,237"/>
<polygon class="pen1 brush2" points="1844,98 1841,143 1835,211 1826,295 1813,391 1797,492 1775,594 1749,691 1716,777 1718,782 1720,788 1723,793 1726,798 1730,803 1735,806 1741,809 1747,811 1755,811 1762,810 1768,808 1774,806 1778,804 1781,802 1782,801 1783,800 1793,801 1801,799 1808,795 1814,790 1818,784 1822,779 1823,775 1824,774 1834,773 1843,770 1850,765 1856,758 1861,752 1864,746 1866,742 1867,740 1879,738 1888,733 1894,725 1898,717 1900,709 1902,702 1902,697 1902,695 1913,693 1922,688 1928,681 1933,672 1936,664 1937,656 1938,651 1938,649 1954,635 1959,617 1960,601 1959,595 1972,576 1975,558 1972,545 1970,540 1978,522 1981,500 1981,483 1980,476 1985,456 1982,435 1976,419 1973,412 1972,389 1965,369 1957,355 1953,349 1953,324 1946,305 1939,294 1935,290 1933,271 1925,255 1916,244 1912,240 1908,221 1899,204 1889,193 1885,189 1883,165 1874,148 1865,138 1861,135 1859,120 1854,109 1848,102 1844,98 1844,98"/>
<polygon class="pen1 brush2" points="1652,795 1663,797 1671,795 1678,791 1683,786 1688,780 1692,775 1695,771 1699,770 1699,771 1699,772 1699,773 1699,774 1732,687 1758,590 1780,489 1796,388 1809,293 1818,209 1824,142 1827,98 1822,98 1817,100 1812,103 1807,107 1802,112 1799,117 1796,121 1794,125 1793,125 1789,127 1783,129 1777,133 1769,138 1763,145 1757,154 1753,166 1752,167 1748,169 1742,172 1735,176 1727,182 1719,188 1712,196 1707,205 1706,205 1702,207 1697,210 1690,213 1684,219 1677,225 1672,233 1669,243 1668,244 1664,245 1659,248 1652,253 1646,259 1639,267 1633,278 1629,291 1628,292 1624,295 1619,299 1612,305 1605,312 1599,321 1594,331 1590,342 1588,343 1584,347 1579,353 1573,360 1566,369 1561,379 1558,389 1558,399 1555,406 1549,422 1544,442 1545,462 1541,466 1533,478 1529,496 1534,518 1531,524 1525,538 1524,557 1534,575 1533,577 1532,582 1531,590 1531,599 1532,608 1535,618 1541,626 1551,632 1550,634 1549,638 1547,645 1547,653 1547,662 1551,671 1557,679 1567,686 1567,693 1571,707 1579,724 1595,734 1595,736 1595,740 1597,746 1599,752 1602,759 1608,766 1615,770 1625,773 1626,776 1631,782 1639,789 1652,795 1652,795"/>
<polygon class="pen1 brush2" points="902,888 911,887 919,885 926,881 933,876 938,870 942,863 944,855 945,847 944,838 942,830 938,822 933,816 926,811 919,807 911,805 902,804 894,805 886,807 879,811 873,816 868,822 864,830 862,838 861,847 862,855 864,863 868,870 873,876 879,881 886,885 894,887 902,888 902,888"/>
<polygon class="pen1 brush2" points="997,895 1006,894 1014,892 1021,887 1028,882 1033,876 1037,868 1039,860 1040,852 1039,843 1037,835 1033,828 1028,822 1021,818 1014,814 1006,812 997,811 989,812 981,814 974,818 968,822 963,828 959,835 957,843 956,852 957,860 959,868 963,876 968,882 974,887 981,892 989,894 997,895 997,895"/>
<polygon class="pen1 brush2" points="936,787 944,786 952,784 959,780 965,775 969,769 973,762 975,754 976,746 975,738 973,730 969,722 965,716 959,711 952,706 944,704 936,703 927,704 919,706 912,711 906,716 901,722 897,730 895,738 894,746 895,754 897,762 901,769 906,775 912,780 919,784 927,786 936,787 936,787"/>
<polygon class="pen1 brush2" points="1037,800 1045,799 1053,797 1060,793 1066,787 1071,781 1075,774 1077,766 1078,757 1077,749 1075,741 1071,734 1066,728 1060,723 1053,719 1045,717 1037,716 1028,717 1020,719 1013,723 1007,728 1001,734 997,741 995,749 994,757 995,766 997,774 1001,781 1007,787 1013,793 1020,797 1028,799 1037,800 1037,800"/>
<polygon class="pen1 brush2" points="1003,707 1011,706 1019,704 1026,700 1032,695 1037,689 1041,682 1043,674 1044,665 1043,657 1041,649 1037,642 1032,636 1026,631 1019,627 1011,625 1003,624 995,625 987,627 980,631 974,636 969,642 965,649 963,657 962,665 963,674 965,682 969,689 974,695 980,700 987,704 995,706 1003,707 1003,707"/>
<polygon class="pen1 brush2" points="1098,707 1107,706 1115,704 1122,700 1129,695 1134,689 1138,682 1140,674 1141,665 1140,657 1138,649 1134,642 1129,636 1122,631 1115,627 1107,625 1098,624 1090,625 1082,627 1075,631 1069,636 1064,642 1060,649 1058,657 1057,665 1058,674 1060,682 1064,689 1069,695 1075,700 1082,704 1090,706 1098,707 1098,707"/>
<polygon class="pen1 brush2" points="938,612 946,611 954,609 961,605 967,600 972,595 976,588 978,580 979,571 978,563 976,555 972,548 967,542 961,537 954,533 946,531 938,530 930,531 922,533 914,537 908,542 903,548 898,555 896,563 895,571 896,580 898,588 903,595 908,600 914,605 922,609 930,611 938,612 938,612"/>
<polygon class="pen1 brush2" points="1254,551 1262,550 1270,548 1278,544 1284,538 1289,532 1294,525 1296,517 1297,509 1296,501 1294,493 1289,485 1284,479 1278,474 1270,469 1262,467 1254,466 1246,467 1238,469 1231,474 1225,479 1220,485 1216,493 1214,501 1213,509 1214,517 1216,525 1220,532 1225,538 1231,544 1238,548 1246,550 1254,551 1254,551"/>
<polygon class="pen1 brush2" points="1304,479 1312,478 1320,476 1327,472 1333,466 1338,460 1342,453 1344,445 1345,436 1344,428 1342,420 1338,413 1333,407 1327,402 1320,398 1312,396 1304,395 1295,396 1287,398 1280,402 1274,407 1268,413 1264,420 1262,428 1261,436 1262,445 1264,453 1268,460 1274,466 1280,472 1287,476 1295,478 1304,479 1304,479"/>
<polygon class="pen1 brush2" points="1224,236 1232,235 1240,233 1248,229 1254,223 1259,217 1264,210 1266,202 1267,193 1266,185 1264,177 1259,170 1254,164 1248,159 1240,155 1232,153 1224,152 1216,153 1208,155 1201,159 1195,164 1189,170 1185,177 1183,185 1182,193 1183,202 1185,210 1189,217 1195,223 1201,229 1208,233 1216,235 1224,236 1224,236"/>
<polygon class="pen1 brush2" points="1226,334 1234,333 1242,331 1249,327 1255,322 1260,316 1264,309 1266,301 1267,293 1266,284 1264,276 1260,268 1255,262 1249,257 1242,253 1234,251 1226,250 1218,251 1210,253 1202,257 1196,262 1191,268 1186,276 1184,284 1183,293 1184,301 1186,309 1191,316 1196,322 1202,327 1210,331 1218,333 1226,334 1226,334"/>
<polygon class="pen1 brush2" points="1080,260 1088,259 1096,257 1103,253 1109,248 1115,242 1119,235 1121,227 1122,219 1121,211 1119,203 1115,195 1109,189 1103,184 1096,179 1088,177 1080,176 1072,177 1064,179 1056,184 1050,189 1045,195 1040,203 1038,211 1037,219 1038,227 1040,235 1045,242 1050,248 1056,253 1064,257 1072,259 1080,260 1080,260"/>
<polygon class="pen1 brush2" points="993,263 1002,262 1010,260 1017,255 1024,250 1029,244 1033,236 1035,228 1036,220 1035,212 1033,204 1029,197 1024,191 1017,186 1010,182 1002,180 993,179 985,180 977,182 970,186 964,191 960,197 956,204 954,212 953,220 954,228 956,236 960,244 964,250 970,255 977,260 985,262 993,263 993,263"/>
<polygon class="pen1 brush2" points="1092,375 1100,374 1108,372 1116,367 1122,362 1127,356 1132,348 1134,340 1135,332 1134,324 1132,316 1127,309 1122,303 1116,297 1108,293 1100,291 1092,290 1084,291 1076,293 1069,297 1063,303 1058,309 1054,316 1052,324 1051,332 1052,340 1054,348 1058,356 1063,362 1069,367 1076,372 1084,374 1092,375 1092,375"/>
<polygon class="pen1 brush2" points="984,372 992,371 1000,369 1008,365 1014,360 1019,354 1024,347 1026,339 1027,330 1026,322 1024,314 1019,306 1014,300 1008,295 1000,290 992,288 984,287 976,288 969,290 962,295 956,300 950,306 946,314 944,322 943,330 944,339 946,347 950,354 956,360 962,365 969,369 976,371 984,372 984,372"/>
<polygon class="pen1 brush2" points="1105,470 1113,469 1121,467 1128,463 1134,458 1139,453 1143,446 1145,438 1146,429 1145,420 1143,412 1139,405 1134,398 1128,393 1121,389 1113,387 1105,386 1096,387 1088,389 1081,393 1075,398 1070,405 1066,412 1064,420 1063,429 1064,438 1066,446 1070,453 1075,458 1081,463 1088,467 1096,469 1105,470 1105,470"/>
<polygon class="pen1 brush2" points="831,588 840,587 848,585 855,581 862,576 867,570 871,563 873,555 874,547 873,539 871,531 867,524 862,518 855,513 848,509 840,507 831,506 823,507 815,509 808,513 802,518 797,524 793,531 791,539 790,547 791,555 793,563 797,570 802,576 808,581 815,585 823,587 831,588 831,588"/>
<polygon class="pen1 brush2" points="840,690 848,689 856,687 863,683 869,678 875,672 879,665 881,657 882,649 881,640 879,632 875,625 869,619 863,614 856,610 848,608 840,607 832,608 824,610 816,614 810,619 805,625 800,632 798,640 797,649 798,657 800,665 805,672 810,678 816,683 824,687 832,689 840,690 840,690"/>
<polygon class="pen1 brush2" points="750,712 759,711 767,709 774,705 781,699 786,693 790,686 792,678 793,669 792,661 790,653 786,646 781,640 774,635 767,631 759,629 750,628 742,629 734,631 727,635 721,640 716,646 712,653 710,661 709,669 710,678 712,686 716,693 721,699 727,705 734,709 742,711 750,712 750,712"/>
<polygon class="pen1 brush2" points="719,628 727,627 735,625 742,620 748,615 753,609 757,601 759,593 760,585 759,577 757,569 753,562 748,556 742,551 735,547 727,545 719,544 711,545 703,547 695,551 689,556 684,562 679,569 677,577 676,585 677,593 679,601 684,609 689,615 695,620 703,625 711,627 719,628 719,628"/>
<polygon class="pen1 brush2" points="642,675 650,674 658,672 666,667 672,662 677,656 682,648 684,640 685,632 684,624 682,616 677,609 672,603 666,598 658,594 650,592 642,591 634,592 626,594 619,598 613,603 608,609 604,616 602,624 601,632 602,640 604,648 608,656 613,662 619,667 626,672 634,674 642,675 642,675"/>
<polygon class="pen1 brush2" points="601,588 610,587 618,585 625,581 632,576 637,570 641,563 643,555 644,547 643,539 641,531 637,524 632,518 625,513 618,509 610,507 601,506 593,507 585,509 578,513 572,518 567,524 563,531 561,539 560,547 561,555 563,563 567,570 572,576 578,581 585,585 593,587 601,588 601,588"/>
<polygon class="pen1 brush2" points="688,537 696,536 704,534 711,529 717,524 723,518 727,510 729,502 730,494 729,485 727,477 723,470 717,464 711,460 704,456 696,454 688,453 680,454 672,456 664,460 658,464 653,470 648,477 646,485 645,494 646,502 648,510 653,518 658,524 664,529 672,534 680,536 688,537 688,537"/>
<polygon class="pen1 brush2" points="770,493 778,492 786,490 793,486 799,481 804,475 808,468 810,460 811,452 810,444 808,436 804,428 799,422 793,417 786,412 778,410 770,409 762,410 754,412 746,417 740,422 735,428 730,436 728,444 727,452 728,460 730,468 735,475 740,481 746,486 754,490 762,492 770,493 770,493"/>
<polygon class="pen1 brush2" points="561,443 569,442 577,440 584,436 590,430 594,424 598,417 600,409 601,401 600,392 598,384 594,376 590,370 584,365 577,361 569,359 561,358 552,359 544,361 537,365 531,370 526,376 522,384 520,392 519,401 520,409 522,417 526,424 531,430 537,436 544,440 552,442 561,443 561,443"/>
<polygon class="pen1 brush2" points="473,419 481,418 489,416 496,412 502,407 506,402 510,395 512,387 513,378 512,370 510,362 506,354 502,348 496,343 489,338 481,336 473,335 464,336 456,338 449,343 443,348 437,354 433,362 431,370 430,378 431,387 433,395 437,402 443,407 449,412 456,416 464,418 473,419 473,419"/>
<polygon class="pen1 brush2" points="389,465 397,464 405,462 413,458 419,452 424,446 429,439 431,431 432,422 431,414 429,406 424,399 419,393 413,388 405,384 397,382 389,381 381,382 373,384 366,388 360,393 355,399 351,406 349,414 348,422 349,431 351,439 355,446 360,452 366,458 373,462 381,464 389,465 389,465"/>
<polygon class="pen1 brush2" points="324,527 333,526 341,524 348,519 355,514 360,508 364,500 366,492 367,484 366,475 364,467 360,460 355,454 348,450 341,446 333,444 324,443 316,444 308,446 301,450 295,454 290,460 286,467 284,475 283,484 284,492 286,500 290,508 295,514 301,519 308,524 316,526 324,527 324,527"/>
<polygon class="pen1 brush2" points="237,558 246,557 254,555 261,551 268,546 273,540 277,533 279,525 280,517 279,508 277,500 273,493 268,486 261,481 254,477 246,475 237,474 229,475 221,477 214,481 208,486 203,493 199,500 197,508 196,517 197,525 199,533 203,540 208,546 214,551 221,555 229,557 237,558 237,558"/>
<polygon class="pen1 brush2" points="257,459 265,458 273,456 280,452 286,446 291,440 295,433 297,425 298,416 297,408 295,400 291,393 286,387 280,382 273,378 265,376 257,375 248,376 240,378 233,382 227,387 222,393 218,400 216,408 215,416 216,425 218,433 222,440 227,446 233,452 240,456 248,458 257,459 257,459"/>
<polygon class="pen1 brush2" points="324,385 333,384 341,382 348,378 355,373 360,367 364,359 366,351 367,342 366,334 364,326 360,319 355,313 348,308 341,304 333,302 324,301 316,302 308,304 301,308 295,313 290,319 286,326 284,334 283,342 284,351 286,359 290,367 295,373 301,378 308,382 316,384 324,385 324,385"/>
<polygon class="pen1 brush2" points="764,344 772,343 780,341 788,336 794,331 799,325 804,317 806,309 807,301 806,293 804,285 799,278 794,272 788,267 780,263 772,261 764,260 756,261 748,263 741,267 735,272 730,278 726,285 724,293 723,301 724,309 726,317 730,325 735,331 741,336 748,341 756,343 764,344 764,344"/>
<polygon class="pen1 brush2" points="876,325 884,324 892,322 900,318 906,313 911,307 916,300 918,292 919,284 918,275 916,267 911,260 906,254 900,249 892,245 884,243 876,242 868,243 860,245 853,249 847,254 841,260 837,267 835,275 834,284 835,292 837,300 841,307 847,313 853,318 860,322 868,324 876,325 876,325"/>
<polygon class="pen1 brush2" points="744,256 752,255 760,253 768,248 774,243 779,237 784,229 786,221 787,213 786,204 784,196 779,189 774,183 768,179 760,175 752,173 744,172 736,173 728,175 721,179 715,183 710,189 706,196 704,204 703,213 704,221 706,229 710,237 715,243 721,248 728,253 736,255 744,256 744,256"/>
<polygon class="pen1 brush2" points="851,240 860,239 868,237 875,233 882,228 887,223 891,216 893,208 894,199 893,191 891,183 887,175 882,169 875,164 868,159 860,157 851,156 843,157 835,159 828,164 822,169 817,175 813,183 811,191 810,199 811,208 813,216 817,223 822,228 828,233 835,237 843,239 851,240 851,240"/>
<polygon class="pen1 brush2" points="740,162 748,161 756,159 764,154 770,149 775,143 780,135 782,127 783,119 782,110 780,102 775,95 770,89 764,85 756,81 748,79 740,78 732,79 724,81 717,85 711,89 706,95 702,102 700,110 699,119 700,127 702,135 706,143 711,149 717,154 724,159 732,161 740,162 740,162"/>
<polygon class="pen1 brush2" points="845,151 853,150 861,148 869,144 875,138 880,132 885,125 887,117 888,108 887,100 885,92 880,85 875,79 869,74 861,70 853,68 845,67 837,68 829,70 822,74 816,79 811,85 807,92 805,100 804,108 805,117 807,125 811,132 816,138 822,144 829,148 837,150 845,151 845,151"/>
<polygon class="pen1 brush2" points="787,85 795,84 803,82 810,78 816,73 821,67 825,60 827,52 828,44 827,35 825,27 821,20 816,13 810,8 803,4 795,2 787,1 778,2 770,4 763,8 757,13 751,20 747,27 745,35 744,44 745,52 747,60 751,67 757,73 763,78 770,82 778,84 787,85 787,85"/>
<polygon class="pen1 brush2" points="476,264 485,263 493,261 500,257 507,252 512,246 516,239 518,231 519,223 518,214 516,206 512,199 507,192 500,187 493,183 485,181 476,180 468,181 460,183 453,187 447,192 442,199 438,206 436,214 435,223 436,231 438,239 442,246 447,252 453,257 460,261 468,263 476,264 476,264"/>
<polygon class="pen1 brush2" points="587,240 595,239 603,237 610,233 616,228 621,223 625,216 627,208 628,199 627,191 625,183 621,175 616,169 610,164 603,159 595,157 587,156 579,157 571,159 563,164 557,169 552,175 547,183 545,191 544,199 545,208 547,216 552,223 557,228 563,233 571,237 579,239 587,240 587,240"/>
<polygon class="pen1 brush2" points="442,182 450,181 458,179 465,174 471,169 476,163 480,155 482,147 483,139 482,131 480,123 476,116 471,110 465,105 458,101 450,99 442,98 434,99 426,101 418,105 412,110 407,116 402,123 400,131 399,139 400,147 402,155 407,163 412,169 418,174 426,179 434,181 442,182 442,182"/>
<polygon class="pen1 brush2" points="537,165 546,164 554,162 561,158 568,152 573,146 577,139 579,131 580,122 579,114 577,106 573,99 568,93 561,88 554,84 546,82 537,81 529,82 521,84 514,88 508,93 503,99 499,106 497,114 496,122 497,131 499,139 503,146 508,152 514,158 521,162 529,164 537,165 537,165"/>
<polygon class="pen1 brush2" points="406,98 414,97 422,95 430,90 436,85 441,79 446,71 448,63 449,55 448,46 446,38 441,31 436,25 430,20 422,16 414,14 406,13 398,14 390,16 383,20 377,25 372,31 368,38 366,46 365,55 366,63 368,71 372,79 377,85 383,90 390,95 398,97 406,98 406,98"/>
<polygon class="pen1 brush2" points="499,84 507,83 515,81 522,76 528,71 533,65 537,57 539,49 540,41 539,32 537,24 533,17 528,11 522,7 515,3 507,1 499,0 491,1 483,3 475,7 469,11 464,17 459,24 457,32 456,41 457,49 459,57 464,65 469,71 475,76 483,81 491,83 499,84 499,84"/>
<polygon class="pen1 brush2" points="237,340 246,339 254,337 261,333 268,327 273,321 277,314 279,306 280,297 279,289 277,281 273,274 268,268 261,263 254,259 246,257 237,256 229,257 221,259 214,263 208,268 203,274 199,281 197,289 196,297 197,306 199,314 203,321 208,327 214,333 221,337 229,339 237,340 237,340"/>
<polygon class="pen1 brush2" points="148,331 156,330 164,328 171,324 177,319 182,313 186,306 188,298 189,290 188,282 186,274 182,266 177,260 171,255 164,250 156,248 148,247 140,248 132,250 124,255 118,260 113,266 108,274 106,282 105,290 106,298 108,306 113,313 118,319 124,324 132,328 140,330 148,331 148,331"/>
<polygon class="pen1 brush2" points="55,334 63,333 71,331 79,326 85,321 90,315 95,307 97,299 98,291 97,282 95,274 90,267 85,261 79,257 71,253 63,251 55,250 47,251 39,253 32,257 26,261 20,267 16,274 14,282 13,291 14,299 16,307 20,315 26,321 32,326 39,331 47,333 55,334 55,334"/>
<polygon class="pen1 brush2" points="41,244 50,243 58,241 65,237 72,232 77,226 81,219 83,211 84,203 83,194 81,186 77,179 72,173 65,168 58,164 50,162 41,161 33,162 25,164 18,168 12,173 7,179 3,186 1,194 0,203 1,211 3,219 7,226 12,232 18,237 25,241 33,243 41,244 41,244"/>
<polygon class="pen1 brush2" points="134,239 142,238 150,236 157,232 163,226 169,220 173,213 175,205 176,196 175,188 173,180 169,173 163,167 157,162 150,158 142,156 134,155 126,156 118,158 110,162 104,167 99,173 94,180 92,188 91,196 92,205 94,213 99,220 104,226 110,232 118,236 126,238 134,239 134,239"/>
<polygon class="pen1 brush2" points="226,230 235,229 243,227 250,223 257,218 262,213 266,206 268,198 269,189 268,180 266,172 262,165 257,158 250,153 243,149 235,147 226,146 218,147 210,149 203,153 197,158 192,165 188,172 186,180 185,189 186,198 188,206 192,213 197,218 203,223 210,227 218,229 226,230"/>
</g>
</svg>
