<?xml version="1.0" encoding="UTF-8" standalone="no"?>
<!DOCTYPE svg PUBLIC "-//W3C//DTD SVG 1.0//EN" "http://www.w3.org/TR/2001/REC-SVG-20010904/DTD/svg10.dtd">
<svg xmlns="http://www.w3.org/2000/svg" xmlns:xlink="http://www.w3.org/1999/xlink" fill-rule="evenodd" height="1.981in" preserveAspectRatio="none" stroke-linecap="round" viewBox="0 0 1906 1981" width="1.906in">
<style type="text/css">
.brush0 { fill: rgb(255,255,255); }
.pen0 { stroke: rgb(0,0,0); stroke-width: 1; stroke-linejoin: round; }
.brush1 { fill: none; }
.pen1 { stroke: none; }
.brush2 { fill: rgb(0,0,0); }
</style>
<g>
<polygon class="pen1 brush2" points="1099,1653 1086,1672 1080,1693 1079,1716 1084,1738 1092,1760 1105,1779 1121,1795 1140,1807 1126,1830 1121,1857 1124,1886 1135,1913 1143,1927 1152,1940 1164,1951 1176,1959 1190,1965 1205,1968 1220,1967 1236,1962 1258,1947 1271,1927 1276,1902 1274,1876 1266,1850 1253,1827 1235,1807 1214,1793 1227,1773 1233,1750 1233,1726 1227,1702 1217,1680 1202,1661 1184,1646 1162,1636 1175,1617 1182,1595 1182,1572 1178,1548 1168,1526 1154,1507 1138,1491 1118,1480 1129,1460 1134,1438 1133,1415 1128,1393 1118,1372 1104,1354 1087,1339 1068,1328 1081,1309 1087,1288 1088,1266 1084,1243 1076,1222 1064,1203 1048,1186 1030,1174 1036,1154 1037,1133 1033,1111 1025,1090 1014,1071 1000,1055 983,1043 963,1035 968,1014 968,991 964,969 955,948 942,929 926,913 907,902 886,897 868,860 847,830 823,806 800,788 778,775 760,766 748,761 744,760 771,746 798,735 824,727 849,722 874,720 898,720 920,722 942,725 962,730 982,736 999,742 1015,749 1030,756 1043,763 1053,769 1062,775 1060,799 1065,822 1076,843 1091,862 1111,877 1133,888 1156,893 1180,892 1183,911 1190,928 1201,944 1214,959 1230,970 1247,979 1265,985 1284,987 1287,1007 1295,1026 1307,1043 1321,1057 1338,1069 1356,1078 1376,1083 1396,1083 1393,1107 1397,1129 1407,1151 1422,1169 1440,1185 1461,1196 1483,1203 1505,1204 1504,1227 1510,1250 1521,1271 1537,1289 1555,1304 1577,1314 1599,1320 1622,1319 1618,1342 1622,1364 1631,1384 1645,1403 1662,1419 1682,1431 1704,1438 1727,1440 1724,1452 1724,1464 1725,1477 1729,1489 1734,1501 1741,1513 1750,1524 1761,1535 1776,1546 1792,1554 1808,1560 1824,1562 1840,1561 1855,1557 1868,1549 1879,1539 1887,1527 1892,1513 1894,1499 1893,1483 1888,1467 1880,1451 1870,1437 1856,1423 1848,1417 1839,1412 1831,1407 1822,1403 1813,1400 1804,1398 1795,1396 1787,1396 1790,1372 1785,1349 1775,1328 1759,1309 1740,1294 1718,1283 1695,1277 1672,1278 1675,1254 1671,1232 1661,1210 1647,1191 1628,1175 1608,1164 1586,1157 1564,1156 1565,1134 1559,1112 1549,1092 1534,1074 1516,1059 1496,1048 1474,1042 1451,1041 1454,1019 1451,998 1442,977 1429,959 1412,943 1393,931 1372,923 1351,920 1347,899 1339,879 1326,861 1310,846 1292,834 1272,825 1251,822 1230,823 1224,800 1213,778 1196,759 1176,743 1153,733 1130,728 1107,730 1085,741 1043,713 999,694 955,683 910,679 865,681 821,687 778,698 737,711 699,727 664,743 633,760 606,776 584,790 568,801 558,808 554,811 572,749 577,695 571,649 559,610 543,581 527,559 515,546 510,542 487,552 519,594 535,645 537,701 528,763 508,827 480,894 447,962 408,1028 367,1092 326,1152 286,1207 249,1256 217,1296 191,1326 175,1345 169,1352 289,1298 326,1231 360,1173 390,1122 417,1078 441,1041 462,1010 482,985 499,964 514,949 528,938 540,930 551,925 562,924 572,924 582,927 592,930 608,939 616,949 619,961 618,973 616,986 615,999 618,1014 625,1029 640,1005 650,983 655,964 656,948 653,933 647,921 638,910 628,901 617,894 605,889 593,884 582,881 573,878 565,877 560,876 558,876 560,873 565,866 574,856 588,843 607,830 631,818 660,807 696,799 724,799 750,806 773,818 793,834 811,853 825,872 837,890 846,906 827,925 817,948 815,973 820,1000 830,1025 846,1047 866,1065 889,1075 885,1093 884,1112 886,1131 892,1149 900,1166 912,1182 925,1194 941,1204 935,1224 934,1244 936,1265 943,1285 953,1303 965,1319 981,1333 1000,1342 987,1362 980,1384 980,1407 984,1430 993,1452 1007,1472 1024,1487 1044,1498 1033,1519 1028,1541 1029,1565 1035,1588 1046,1610 1060,1629 1078,1644 1099,1653 1099,1653"/>
<polygon class="pen1 brush2" points="17,0 21,0 26,0 40,2 62,6 90,12 124,22 162,35 202,52 245,75 287,103 329,137 369,178 405,226 436,282 462,347 481,421 491,505 17,0 17,0"/>
<polygon class="pen1 brush2" points="468,522 474,521 0,5 0,19 2,41 5,68 10,101 18,137 30,176 46,218 66,260 92,303 123,344 161,384 206,421 258,455 319,483 389,506 468,522"/>
</g>
</svg>
