<?xml version="1.0" encoding="UTF-8" standalone="no"?>
<!DOCTYPE svg PUBLIC "-//W3C//DTD SVG 1.0//EN" "http://www.w3.org/TR/2001/REC-SVG-20010904/DTD/svg10.dtd">
<svg xmlns="http://www.w3.org/2000/svg" xmlns:xlink="http://www.w3.org/1999/xlink" fill-rule="evenodd" height="1.971in" preserveAspectRatio="none" stroke-linecap="round" viewBox="0 0 1970 1971" width="1.97in">
<style type="text/css">
.brush0 { fill: rgb(255,255,255); }
.pen0 { stroke: rgb(0,0,0); stroke-width: 1; stroke-linejoin: round; }
.brush1 { fill: none; }
.pen1 { stroke: none; }
.brush2 { fill: rgb(0,0,0); }
</style>
<g>
<polygon class="pen1 brush2" points="139,0 144,2 152,5 164,11 179,18 197,27 217,38 240,50 265,64 292,80 320,97 350,116 380,137 412,159 444,183 475,207 507,234 539,261 570,290 600,321 629,352 656,385 682,419 706,454 728,490 747,527 763,565 776,605 786,645 793,686 795,728 794,770 788,814 788,815 785,817 779,820 770,825 766,845 762,869 759,895 756,925 755,956 755,990 756,1024 761,1059 767,1095 777,1131 789,1166 806,1200 827,1233 851,1264 881,1292 916,1318 918,1318 923,1319 931,1321 942,1323 956,1325 973,1328 992,1331 1013,1335 1036,1340 1061,1344 1087,1349 1115,1355 1144,1360 1174,1366 1204,1372 1235,1379 1267,1386 1298,1392 1330,1399 1361,1406 1392,1414 1422,1421 1451,1428 1480,1436 1507,1443 1532,1450 1556,1458 1578,1465 1598,1472 1615,1479 1631,1486 1643,1493 1641,1488 1634,1474 1623,1452 1609,1426 1593,1395 1574,1363 1554,1331 1534,1300 1532,1303 1528,1306 1522,1311 1516,1316 1509,1323 1504,1331 1499,1340 1496,1351 1495,1351 1492,1349 1486,1348 1479,1346 1470,1345 1458,1344 1445,1343 1430,1344 1430,1342 1430,1338 1429,1332 1426,1325 1421,1319 1414,1313 1403,1309 1388,1307 1387,1307 1387,1307 1388,1307 1388,1307 1388,1305 1387,1299 1384,1290 1380,1280 1374,1270 1364,1260 1352,1251 1335,1246 1333,1242 1330,1230 1326,1213 1318,1196 1307,1183 1293,1179 1274,1186 1250,1210 1247,1209 1239,1207 1227,1205 1214,1204 1201,1206 1189,1212 1181,1222 1179,1239 1176,1238 1169,1235 1160,1232 1150,1230 1139,1230 1129,1233 1121,1240 1116,1253 1115,1252 1112,1248 1107,1243 1101,1238 1093,1234 1083,1232 1071,1234 1058,1239 1058,1234 1060,1222 1057,1207 1044,1193 1045,1191 1048,1187 1053,1181 1057,1173 1059,1164 1060,1155 1058,1146 1051,1138 1054,1135 1061,1131 1070,1124 1080,1116 1090,1108 1098,1100 1105,1093 1108,1088 1109,1088 1111,1084 1113,1078 1113,1070 1111,1063 1104,1056 1092,1052 1074,1051 1073,1051 1069,1051 1064,1052 1058,1054 1051,1057 1044,1061 1039,1067 1034,1075 1033,1073 1030,1067 1025,1060 1018,1054 1009,1049 998,1048 985,1052 971,1064 968,1062 962,1057 954,1048 943,1040 931,1034 917,1031 902,1033 886,1044 886,1042 885,1035 883,1027 879,1016 872,1006 862,998 848,991 829,989 832,988 838,986 848,983 859,977 871,969 881,959 888,947 892,932 895,932 904,932 916,931 929,929 943,924 955,916 963,904 966,888 968,889 975,893 983,897 994,900 1005,900 1015,896 1022,887 1027,871 1032,872 1045,873 1062,873 1079,871 1092,865 1097,854 1091,836 1068,810 1069,807 1070,799 1071,787 1070,774 1066,759 1058,746 1045,736 1025,729 1026,726 1028,717 1030,704 1030,690 1028,674 1022,659 1011,647 993,639 995,637 999,632 1005,625 1011,614 1015,602 1017,588 1014,573 1007,557 1009,558 1014,560 1021,562 1032,564 1044,566 1058,566 1075,564 1092,560 1094,562 1098,566 1106,571 1116,577 1128,582 1141,586 1157,587 1173,584 1173,586 1174,591 1177,598 1181,606 1188,613 1198,619 1211,622 1229,620 1231,623 1237,632 1245,642 1254,650 1263,653 1271,648 1276,632 1277,601 1280,600 1289,596 1300,591 1311,582 1321,571 1327,558 1327,542 1318,523 1321,522 1330,519 1341,513 1354,505 1366,493 1374,478 1377,459 1373,435 1375,434 1382,432 1391,428 1402,421 1412,411 1422,398 1429,380 1433,358 1437,357 1448,353 1464,348 1482,341 1501,333 1519,325 1534,316 1543,308 1545,310 1550,317 1558,327 1567,338 1578,351 1590,364 1601,375 1612,384 1611,386 1607,393 1603,403 1601,416 1601,431 1605,447 1615,463 1633,479 1630,480 1625,485 1620,493 1615,504 1611,518 1611,533 1614,550 1623,567 1622,570 1619,578 1614,589 1608,603 1601,618 1595,634 1590,651 1586,667 1585,682 1587,694 1592,704 1601,710 1615,712 1635,708 1660,698 1693,682 1694,684 1698,689 1705,697 1715,704 1728,709 1744,712 1764,710 1787,702 1788,704 1791,708 1796,714 1805,721 1817,725 1834,728 1857,726 1885,719 1880,721 1878,724 1878,725 1878,726 1878,728 1879,732 1881,738 1886,746 1895,755 1909,764 1929,774 1957,783 1956,784 1951,787 1943,793 1932,802 1922,814 1912,830 1906,850 1903,874 1901,876 1898,876 1894,875 1892,875 1888,875 1878,875 1864,877 1848,881 1832,888 1818,900 1808,916 1804,939 1803,939 1801,938 1798,936 1797,935 1794,934 1787,931 1776,928 1763,927 1749,930 1736,937 1724,950 1716,972 1711,973 1699,976 1684,982 1671,990 1663,1000 1666,1012 1683,1026 1719,1043 1719,1045 1718,1050 1718,1056 1719,1064 1724,1072 1733,1078 1748,1083 1771,1085 1770,1086 1768,1090 1766,1095 1765,1102 1766,1110 1771,1118 1781,1127 1797,1135 1792,1135 1786,1142 1785,1158 1794,1185 1791,1185 1784,1186 1774,1189 1763,1193 1752,1199 1743,1208 1738,1220 1737,1235 1736,1232 1730,1226 1722,1218 1711,1211 1699,1206 1688,1207 1678,1215 1670,1232 1668,1230 1663,1224 1656,1216 1646,1208 1635,1202 1622,1200 1609,1202 1595,1212 1970,1863 1923,1844 1963,1947 1903,1881 1903,1971 1901,1967 1895,1956 1886,1939 1874,1916 1859,1889 1842,1859 1823,1826 1803,1792 1781,1757 1758,1722 1734,1689 1710,1658 1686,1630 1663,1606 1640,1587 1619,1574 1607,1569 1592,1563 1575,1556 1554,1549 1531,1541 1506,1533 1478,1524 1447,1515 1415,1505 1380,1495 1344,1485 1305,1475 1265,1464 1223,1453 1180,1443 1136,1432 1090,1421 1043,1410 995,1399 946,1389 896,1378 846,1368 795,1358 743,1349 691,1339 639,1331 587,1322 535,1315 483,1308 431,1301 380,1295 329,1290 396,1256 192,1195 787,1286 781,1276 765,1249 744,1207 722,1152 705,1086 696,1013 701,933 723,850 710,856 696,862 681,868 666,875 649,881 632,887 614,893 596,899 577,905 558,910 538,915 517,919 497,923 476,925 454,928 433,929 435,923 437,910 434,894 423,881 424,880 429,877 435,872 441,866 446,859 450,851 450,841 446,830 448,829 455,827 465,824 475,820 485,815 491,808 492,800 486,790 474,780 460,776 446,775 431,779 418,787 407,797 399,809 395,824 392,823 385,820 375,817 363,815 351,817 338,824 328,836 321,857 318,855 311,851 300,845 286,840 271,838 256,840 241,847 227,862 226,860 224,855 219,848 212,841 202,835 189,831 171,832 150,838 152,836 157,829 164,820 172,807 180,793 185,778 186,762 183,746 185,746 192,744 201,741 210,736 219,728 226,716 228,700 226,679 229,681 236,684 247,688 259,691 270,690 280,685 286,673 287,652 291,652 300,650 313,647 327,643 339,636 348,626 351,614 345,598 333,585 319,579 305,579 290,584 276,593 264,604 256,615 251,625 250,621 245,612 238,600 227,587 213,577 194,571 172,574 145,587 145,583 145,573 144,560 140,544 132,530 120,517 101,510 75,510 74,507 72,497 68,484 61,469 52,453 40,439 25,428 7,422 8,420 11,416 15,408 17,398 18,386 17,372 11,356 0,340 2,340 7,338 14,335 21,330 29,324 35,316 38,305 38,291 40,293 47,296 56,301 66,305 78,306 89,303 98,295 105,280 107,282 113,286 123,292 134,298 147,303 162,305 176,303 189,296 190,298 194,305 200,313 209,321 219,328 229,332 238,331 247,324 251,312 247,298 238,284 224,271 208,259 192,249 176,242 163,240 164,237 165,230 166,219 165,206 161,193 153,180 140,169 121,161 122,157 126,148 130,136 135,121 136,105 134,90 127,76 112,64 139,0"/>
<polygon class="pen1 brush0" points="739,750 721,692 695,633 663,574 625,515 583,458 538,402 490,349 442,298 394,250 347,206 303,167 263,132 228,103 198,79 176,63 162,53 173,63 192,79 219,103 253,132 292,167 335,206 381,250 428,298 477,349 525,402 571,458 615,515 655,574 689,633 718,692 739,750 739,750"/>
<polygon class="pen1 brush0" points="731,759 680,705 629,656 577,613 525,574 474,540 425,510 377,485 331,462 288,443 248,428 211,414 179,404 151,395 129,388 112,382 101,378 112,380 129,383 151,388 179,395 211,404 248,417 288,432 331,450 377,473 425,499 474,530 525,565 577,605 629,651 680,702 731,759"/>
<polygon class="pen1 brush0" points="1351,990 1357,1016 1368,1050 1381,1087 1396,1127 1411,1165 1426,1200 1440,1228 1452,1247 1444,1228 1433,1199 1420,1164 1405,1125 1390,1086 1376,1048 1364,1015 1355,989 1359,986 1363,982 1366,977 1368,972 1385,979 1405,987 1426,997 1450,1007 1474,1018 1499,1030 1524,1042 1550,1054 1575,1067 1599,1078 1622,1089 1643,1100 1662,1109 1679,1117 1692,1123 1703,1128 1693,1121 1679,1112 1663,1103 1644,1092 1623,1081 1600,1069 1576,1057 1551,1044 1526,1032 1500,1020 1475,1009 1451,999 1428,989 1406,981 1386,974 1369,969 1369,964 1368,960 1367,955 1365,952 1385,937 1409,922 1437,907 1467,892 1500,878 1534,865 1569,852 1604,840 1638,828 1671,818 1702,808 1730,800 1755,792 1776,786 1793,781 1804,777 1793,778 1776,781 1755,786 1730,792 1702,800 1671,809 1638,819 1604,830 1569,842 1534,855 1500,869 1467,884 1436,900 1409,916 1384,933 1364,950 1361,947 1358,944 1353,942 1349,941 1350,911 1355,878 1361,843 1370,806 1380,767 1392,728 1405,689 1419,650 1433,612 1447,576 1461,541 1474,509 1486,480 1496,454 1505,433 1511,416 1502,433 1492,454 1480,480 1466,509 1452,541 1438,575 1423,612 1409,650 1396,688 1383,728 1372,767 1362,805 1355,842 1350,877 1347,911 1348,941 1343,940 1338,940 1334,942 1329,943 1321,932 1311,919 1299,904 1286,887 1272,870 1257,851 1241,832 1226,812 1210,793 1195,774 1181,756 1167,739 1155,724 1144,711 1135,700 1128,691 1132,700 1139,711 1148,724 1158,740 1171,757 1184,775 1199,795 1214,814 1230,834 1246,854 1262,872 1277,890 1291,907 1305,922 1317,935 1327,945 1322,950 1319,956 1318,962 1318,969 1296,967 1273,965 1248,965 1223,965 1197,966 1170,967 1144,968 1119,970 1094,973 1070,975 1048,978 1028,981 1009,983 994,986 981,988 971,990 981,990 994,990 1009,989 1028,988 1048,986 1070,984 1094,982 1119,980 1144,978 1170,976 1197,974 1223,973 1248,972 1273,971 1296,971 1318,972 1319,975 1320,979 1322,982 1325,985 1315,995 1303,1006 1292,1018 1280,1031 1268,1044 1256,1058 1244,1071 1232,1085 1221,1099 1210,1112 1200,1125 1190,1137 1182,1147 1174,1157 1168,1165 1163,1172 1170,1165 1179,1157 1188,1148 1198,1137 1209,1125 1220,1113 1231,1100 1243,1086 1255,1073 1266,1059 1278,1045 1289,1032 1300,1019 1310,1007 1319,996 1328,986 1334,990 1340,991 1345,991 1351,990"/>
<polygon class="pen1 brush0" points="721,760 670,739 623,723 578,712 537,705 499,702 463,702 431,706 401,711 374,718 350,727 328,736 310,746 293,755 280,763 269,771 260,776 269,773 280,768 293,761 310,753 328,744 350,735 374,727 401,720 431,714 463,711 499,709 537,711 578,717 623,726 670,741 721,760 721,760"/>
<polygon class="pen1 brush0" points="726,773 702,781 679,789 658,797 638,806 620,815 603,824 588,832 574,841 561,849 550,856 539,864 529,870 521,876 513,881 506,885 500,888 506,883 513,877 521,871 529,864 539,856 550,848 561,840 574,832 588,824 603,815 620,807 638,799 658,792 679,785 702,779 726,773"/>
</g>
</svg>
