<?xml version="1.0" encoding="UTF-8" standalone="no"?>
<!DOCTYPE svg PUBLIC "-//W3C//DTD SVG 1.0//EN" "http://www.w3.org/TR/2001/REC-SVG-20010904/DTD/svg10.dtd">
<svg xmlns="http://www.w3.org/2000/svg" xmlns:xlink="http://www.w3.org/1999/xlink" fill-rule="evenodd" height="1.586in" preserveAspectRatio="none" stroke-linecap="round" viewBox="0 0 1986 1586" width="1.986in">
<style type="text/css">
.brush0 { fill: rgb(255,255,255); }
.pen0 { stroke: rgb(0,0,0); stroke-width: 1; stroke-linejoin: round; }
.brush1 { fill: none; }
.pen1 { stroke: none; }
.brush2 { fill: rgb(0,0,0); }
</style>
<g>
<polygon class="pen1 brush2" points="1594,209 1633,255 1663,309 1686,368 1704,428 1715,486 1723,538 1727,581 1729,611 1621,422 1608,428 1699,588 1696,746 1584,507 1571,513 1659,699 1602,929 1514,612 1502,617 1580,902 1496,1068 1456,736 1443,737 1477,1031 1354,1170 1328,845 1314,848 1338,1146 1198,1310 1188,953 1175,953 1182,1274 1051,1382 1084,997 1071,996 1041,1324 913,1424 946,1047 932,1045 905,1374 747,1468 804,1119 790,1118 743,1407 577,1512 654,1206 639,1203 577,1456 375,1542 472,1314 459,1308 384,1486 199,1559 270,1434 257,1427 209,1515 20,1586 1594,209 1594,209"/>
<polygon class="pen1 brush2" points="1574,186 1555,163 1534,142 1510,122 1484,104 1457,88 1429,74 1401,60 1372,49 1344,38 1317,29 1291,22 1266,15 1244,10 1224,6 1208,2 1195,0 1368,132 1359,142 1213,30 1054,14 1279,158 1270,169 1095,57 861,82 1163,212 1159,223 885,108 709,169 1033,251 1030,266 743,193 590,297 908,365 905,378 611,315 430,433 783,490 780,503 463,453 340,568 725,588 725,601 396,584 280,699 656,717 656,730 328,715 215,858 567,848 567,862 273,871 146,1020 460,986 463,1000 203,1028 91,1216 328,1152 334,1165 146,1216 50,1390 185,1335 189,1348 97,1385 0,1562 1574,186 1574,186"/>
<polygon class="pen1 brush2" points="1598,162 1612,178 1624,192 1633,203 1639,211 1644,217 1646,221 1648,223 1648,224 1659,218 1675,213 1694,208 1716,203 1740,199 1765,196 1792,192 1818,189 1844,187 1868,185 1891,183 1911,182 1928,180 1941,180 1949,179 1952,179 1955,165 1960,152 1966,140 1972,129 1977,120 1982,114 1985,109 1986,108 1966,113 1942,118 1915,123 1886,128 1854,132 1822,137 1789,141 1757,145 1725,149 1696,152 1669,155 1645,157 1626,159 1611,161 1601,162 1598,162"/>
</g>
</svg>
