<?xml version="1.0" encoding="UTF-8" standalone="no"?>
<!DOCTYPE svg PUBLIC "-//W3C//DTD SVG 1.0//EN" "http://www.w3.org/TR/2001/REC-SVG-20010904/DTD/svg10.dtd">
<svg xmlns="http://www.w3.org/2000/svg" xmlns:xlink="http://www.w3.org/1999/xlink" fill-rule="evenodd" height="1.818in" preserveAspectRatio="none" stroke-linecap="round" viewBox="0 0 1979 1818" width="1.979in">
<style type="text/css">
.brush0 { fill: rgb(255,255,255); }
.pen0 { stroke: rgb(0,0,0); stroke-width: 1; stroke-linejoin: round; }
.brush1 { fill: none; }
.pen1 { stroke: none; }
.brush2 { fill: rgb(0,0,0); }
</style>
<g>
<polygon class="pen1 brush2" points="0,855 1,857 5,862 11,871 20,883 31,897 44,915 60,934 77,956 97,980 119,1005 143,1032 170,1061 198,1090 228,1120 260,1150 294,1181 329,1211 366,1242 405,1272 446,1302 488,1330 532,1358 578,1384 624,1409 673,1432 722,1453 773,1471 825,1487 879,1501 933,1511 989,1518 1046,1522 1080,1528 1111,1535 1140,1544 1167,1555 1193,1568 1218,1582 1241,1598 1264,1614 1285,1632 1307,1651 1329,1670 1351,1691 1373,1712 1396,1733 1420,1755 1445,1777 1563,1818 1558,1814 1545,1801 1525,1780 1500,1753 1471,1719 1440,1680 1407,1637 1376,1589 1347,1539 1321,1486 1301,1431 1288,1375 1283,1320 1288,1265 1304,1211 1333,1160 1362,1150 1396,1136 1434,1117 1475,1094 1518,1065 1564,1030 1610,989 1658,940 1705,884 1751,819 1796,746 1840,663 1880,571 1917,468 1950,354 1979,229 1977,230 1972,233 1963,238 1951,244 1936,253 1918,263 1898,276 1876,290 1851,306 1825,323 1798,343 1769,364 1739,387 1708,412 1677,438 1645,466 1613,496 1582,527 1550,560 1519,594 1489,631 1460,668 1432,708 1406,748 1382,791 1359,834 1338,880 1320,927 1305,975 1292,1024 1283,1076 1277,1128 1274,1137 1269,1152 1262,1171 1254,1194 1247,1218 1240,1242 1234,1265 1231,1285 1230,1283 1225,1276 1219,1266 1210,1253 1199,1237 1187,1220 1174,1200 1161,1180 1146,1159 1132,1138 1117,1118 1104,1099 1091,1081 1079,1066 1069,1053 1060,1044 1061,1039 1062,1024 1063,1002 1062,974 1059,944 1053,912 1042,880 1026,852 1027,826 1026,794 1023,757 1016,715 1006,669 991,619 971,566 945,509 912,450 872,389 823,326 765,262 697,197 619,131 530,65 429,0 430,7 433,28 439,61 448,104 461,156 478,216 499,281 525,350 557,422 594,495 637,568 687,638 744,705 809,767 881,822 962,868 967,874 975,884 983,897 992,913 999,931 1005,950 1007,970 1006,990 954,943 871,936 874,939 883,948 898,963 917,983 940,1008 967,1038 997,1073 1028,1112 1061,1155 1095,1201 1129,1251 1163,1304 1195,1360 1226,1418 1254,1479 1279,1541 1277,1539 1270,1534 1259,1526 1244,1516 1225,1505 1203,1494 1179,1483 1151,1474 1145,1460 1138,1445 1130,1429 1120,1411 1109,1392 1096,1372 1082,1351 1067,1329 1049,1306 1030,1283 1009,1259 986,1235 961,1211 934,1186 904,1162 873,1137 839,1113 803,1089 764,1066 723,1043 679,1021 632,1000 583,979 530,960 475,941 417,924 356,909 291,894 223,882 152,871 78,862 0,855"/>
<polygon class="pen1 brush0" points="1088,1470 1086,1468 1082,1464 1074,1457 1064,1448 1051,1437 1035,1425 1017,1410 997,1394 974,1377 950,1358 923,1339 895,1318 865,1296 833,1274 800,1252 766,1228 730,1205 694,1182 656,1158 618,1135 579,1112 539,1090 499,1068 459,1047 419,1027 378,1008 338,991 297,974 257,960 218,947 179,935 141,926 179,936 218,949 257,963 297,979 338,996 378,1014 419,1034 459,1055 499,1076 539,1098 579,1121 618,1144 656,1168 694,1191 730,1215 766,1238 800,1262 833,1284 865,1306 895,1328 923,1348 950,1367 974,1385 997,1402 1017,1417 1035,1431 1051,1443 1064,1453 1074,1461 1082,1466 1086,1469 1088,1470"/>
<polygon class="pen1 brush0" points="979,828 978,822 971,805 960,779 944,744 923,702 899,653 871,600 840,543 805,483 767,423 727,362 685,302 641,244 595,191 547,141 499,98 544,141 589,191 633,244 676,302 716,362 755,423 792,483 827,543 858,600 887,653 912,702 934,744 952,779 966,805 975,822 979,828"/>
<polygon class="pen1 brush0" points="1321,1114 1328,1109 1344,1095 1368,1072 1399,1042 1435,1004 1477,961 1522,911 1569,857 1618,799 1667,738 1715,674 1760,609 1802,543 1840,476 1873,410 1898,345 1869,410 1834,476 1794,543 1750,609 1703,674 1654,738 1605,799 1556,857 1509,911 1464,961 1424,1004 1389,1042 1360,1072 1338,1095 1325,1109 1321,1114"/>
</g>
</svg>
