<?xml version="1.0" encoding="UTF-8" standalone="no"?>
<!DOCTYPE svg PUBLIC "-//W3C//DTD SVG 1.0//EN" "http://www.w3.org/TR/2001/REC-SVG-20010904/DTD/svg10.dtd">
<svg xmlns="http://www.w3.org/2000/svg" xmlns:xlink="http://www.w3.org/1999/xlink" fill-rule="evenodd" height="1.98in" preserveAspectRatio="none" stroke-linecap="round" viewBox="0 0 1111 1980" width="1.111in">
<style type="text/css">
.brush0 { fill: rgb(255,255,255); }
.pen0 { stroke: rgb(0,0,0); stroke-width: 1; stroke-linejoin: round; }
.brush1 { fill: none; }
.pen1 { stroke: none; }
.brush2 { fill: rgb(0,0,0); }
</style>
<g>
<polygon class="pen1 brush2" points="356,548 349,578 345,609 344,640 344,669 347,694 352,715 358,729 367,736 374,735 382,729 389,718 397,704 405,688 413,670 420,652 426,634 391,605 417,608 394,586 415,595 398,567 416,578 400,547 421,556 408,533 409,525 426,538 416,513 432,523 424,501 440,509 442,487 454,506 466,484 470,509 485,490 486,514 498,497 497,519 513,510 505,531 522,527 506,546 520,546 502,559 516,561 497,574 511,576 488,588 505,592 483,601 500,606 475,617 488,622 466,628 483,637 456,637 444,665 433,696 423,727 416,758 413,785 416,807 425,822 442,827 473,812 496,772 512,715 522,647 527,576 527,508 523,452 516,414 452,386 487,381 448,359 481,363 446,332 475,340 442,304 473,308 468,302 460,293 451,285 445,279 460,281 455,271 450,261 445,252 440,242 435,233 431,224 426,216 422,208 384,213 411,190 367,193 396,179 351,171 380,162 333,149 361,136 321,126 348,114 311,104 338,94 308,82 332,73 311,50 343,56 331,23 360,43 355,8 380,31 373,2 396,24 401,0 415,27 427,6 431,41 445,26 441,57 456,43 452,77 467,64 458,98 477,84 466,116 487,103 475,139 492,130 478,159 502,149 478,176 484,187 490,199 496,211 502,224 509,196 522,229 536,196 545,229 555,201 563,232 580,214 577,245 598,233 583,265 602,259 583,284 603,280 582,306 602,303 576,328 599,326 573,347 598,347 569,371 587,373 566,386 568,391 587,394 570,399 576,423 582,445 588,466 594,484 600,499 607,510 615,517 624,520 639,515 651,502 660,483 668,458 673,429 676,398 678,367 679,337 624,312 668,306 620,279 659,284 618,245 653,255 612,211 651,216 616,178 651,183 620,148 654,156 631,123 662,130 655,91 684,118 694,75 711,116 729,75 740,116 752,82 762,120 784,97 779,136 806,121 788,161 812,154 788,185 813,180 786,213 810,209 778,240 808,238 775,264 805,264 769,293 793,296 759,317 792,323 736,339 728,377 718,415 707,453 694,491 681,527 666,563 652,596 638,628 624,657 610,683 598,707 588,727 579,743 572,755 568,762 566,765 600,761 630,753 658,743 682,730 703,714 721,697 736,678 750,658 761,637 770,616 777,594 783,573 787,552 791,533 793,515 794,498 771,488 794,478 768,464 794,467 790,461 782,453 773,445 767,439 793,447 763,415 791,418 765,391 791,395 768,370 793,375 776,352 799,356 794,328 815,348 823,317 834,346 847,317 855,346 864,322 871,349 887,333 884,361 902,350 890,379 906,374 890,396 907,393 888,416 905,414 883,436 903,434 881,453 902,453 876,474 894,476 869,491 893,495 839,511 834,539 833,564 837,583 848,595 866,596 885,585 905,564 925,536 944,504 961,472 976,442 987,417 974,408 989,406 990,403 991,402 991,400 992,398 971,384 1001,387 970,359 996,366 966,334 995,338 968,311 995,315 971,289 997,295 980,272 1003,276 998,249 1019,268 1026,237 1038,266 1051,237 1059,266 1068,242 1075,269 1090,253 1087,281 1107,270 1093,298 1110,294 1093,316 1111,313 1092,336 1110,333 1086,355 1107,354 1084,372 1106,373 1080,394 1097,396 1072,411 1096,415 1036,433 1022,477 1006,517 988,553 967,585 945,615 921,641 895,666 868,688 839,709 809,728 777,746 745,764 711,781 676,799 640,816 604,835 578,851 554,870 532,892 511,917 492,944 475,972 460,1002 446,1033 339,1033 337,987 331,952 324,931 321,923 320,955 320,983 320,1009 319,1033 242,1033 226,994 207,961 188,935 168,913 149,895 130,881 114,868 101,856 86,838 75,816 66,791 59,765 54,738 50,713 48,689 47,669 8,652 41,648 5,628 35,632 4,603 30,611 0,579 29,582 2,555 29,559 5,534 31,539 14,516 37,520 32,493 53,512 60,481 72,511 85,481 93,511 102,486 109,513 124,497 121,525 141,514 127,543 145,538 127,560 145,557 126,580 144,578 121,600 142,598 118,617 140,618 114,639 131,640 106,656 130,659 98,669 102,693 108,717 117,740 127,763 139,785 152,806 166,825 180,843 195,859 210,873 225,885 240,894 254,901 267,904 278,904 288,901 298,884 301,853 297,811 288,763 276,712 262,662 249,616 237,579 237,579 176,554 208,549 173,530 202,533 171,505 198,512 168,480 196,484 170,457 196,461 173,436 198,441 181,418 204,422 199,395 220,414 228,383 239,413 252,383 260,413 269,388 276,416 292,399 291,408 310,412 293,389 316,393 311,366 332,385 340,354 351,384 364,354 372,384 381,359 388,387 404,370 401,398 420,387 407,416 424,411 407,433 425,430 405,453 423,451 400,472 421,471 398,489 419,490 393,511 408,514 386,528 409,525 408,533 356,548 324,541 296,528 281,540 299,542 274,557 298,561 270,569 270,569 273,583 276,597 279,610 284,622 288,632 294,640 299,644 305,645 313,633 319,608 322,575 324,541 356,548"/>
<polygon class="pen1 brush2" points="661,1143 695,1158 679,1140 708,1144 696,1132 730,1133 714,1118 744,1120 727,1107 758,1106 743,1096 773,1091 758,1082 785,1076 769,1069 798,1056 776,1051 797,1032 774,1034 787,1009 764,1022 777,994 749,1008 759,979 733,996 730,969 716,992 701,975 699,1002 683,983 684,1016 667,996 669,1034 650,1012 652,1056 638,1033 641,1075 623,1053 636,1090 609,1073 619,1093 609,1109 597,1130 581,1153 564,1176 547,1197 529,1212 513,1221 499,1220 492,1213 493,1203 501,1188 514,1168 560,1154 541,1151 561,1139 547,1138 568,1121 551,1120 569,1105 553,1107 571,1089 557,1091 572,1072 558,1075 572,1057 558,1061 569,1038 553,1047 556,1025 543,1038 538,1016 530,1035 524,1012 514,1035 504,1012 498,1037 481,1021 486,1043 467,1040 481,1058 460,1054 479,1074 458,1071 479,1093 456,1090 480,1116 459,1110 482,1131 479,1132 472,1131 465,1130 460,1129 479,1140 477,1146 463,1148 474,1153 469,1166 464,1180 457,1195 451,1211 444,1226 438,1241 431,1254 425,1266 416,1280 408,1292 401,1303 394,1313 388,1323 381,1333 374,1344 367,1357 368,1349 370,1328 375,1294 383,1252 393,1202 407,1147 424,1090 446,1033 339,1033 337,1055 334,1078 329,1103 321,1129 321,1123 320,1105 319,1075 319,1033 242,1033 254,1074 263,1121 268,1175 271,1237 269,1308 262,1388 251,1477 234,1577 201,1272 220,1257 191,1264 212,1235 192,1241 213,1204 187,1213 205,1181 182,1192 199,1157 179,1167 191,1131 172,1143 181,1110 164,1123 166,1084 148,1105 139,1071 128,1098 108,1069 109,1101 86,1072 84,1111 57,1083 63,1122 30,1108 48,1138 19,1144 50,1163 18,1168 57,1188 24,1195 67,1214 32,1223 82,1247 48,1250 97,1269 61,1278 111,1284 76,1304 148,1308 150,1369 152,1448 157,1539 163,1636 171,1731 181,1818 194,1891 209,1943 211,1945 217,1948 227,1953 240,1957 257,1959 277,1959 300,1954 325,1943 328,1933 336,1907 348,1867 364,1818 383,1765 403,1711 426,1660 449,1616 474,1618 454,1606 482,1601 467,1593 499,1583 479,1575 508,1566 488,1559 517,1548 500,1543 526,1529 508,1525 533,1511 515,1509 538,1488 516,1490 529,1465 508,1475 512,1447 495,1466 498,1436 475,1459 475,1427 457,1453 444,1427 439,1455 419,1442 426,1470 405,1456 417,1488 394,1475 409,1509 384,1495 400,1536 378,1520 396,1558 370,1543 396,1574 364,1567 388,1591 384,1601 379,1613 373,1626 367,1640 360,1654 352,1668 345,1680 337,1690 337,1677 338,1644 343,1595 351,1536 366,1473 388,1411 420,1357 462,1316 483,1301 503,1287 522,1274 539,1262 555,1250 569,1239 583,1228 595,1218 606,1208 616,1199 626,1189 634,1180 642,1171 649,1162 655,1152 661,1143"/>
</g>
</svg>
