<?xml version="1.0" encoding="UTF-8" standalone="no"?>
<!DOCTYPE svg PUBLIC "-//W3C//DTD SVG 1.0//EN" "http://www.w3.org/TR/2001/REC-SVG-20010904/DTD/svg10.dtd">
<svg xmlns="http://www.w3.org/2000/svg" xmlns:xlink="http://www.w3.org/1999/xlink" fill-rule="evenodd" height="1.98in" preserveAspectRatio="none" stroke-linecap="round" viewBox="0 0 1203 1980" width="1.203in">
<style type="text/css">
.brush0 { fill: rgb(255,255,255); }
.pen0 { stroke: rgb(0,0,0); stroke-width: 1; stroke-linejoin: round; }
.brush1 { fill: none; }
.pen1 { stroke: none; }
.brush2 { fill: rgb(0,0,0); }
</style>
<g>
<polygon class="pen1 brush2" points="1203,274 1189,293 1174,312 1158,332 1141,352 1125,371 1107,391 1090,411 1073,430 1056,449 1039,467 1023,485 1008,501 993,517 979,532 966,545 955,557 941,571 920,591 893,615 861,644 825,675 786,709 746,745 704,782 662,818 622,854 584,888 549,919 518,947 492,971 472,991 459,1004 445,1021 437,1030 433,1033 432,1035 431,1037 428,1042 421,1052 408,1071 406,1099 403,1174 399,1282 396,1408 395,1540 396,1662 401,1761 411,1823 388,1980 360,1811 337,1845 328,1803 307,1882 303,1854 293,1780 280,1671 268,1540 259,1401 258,1265 267,1146 289,1055 304,1020 318,987 332,956 347,926 361,898 375,872 389,847 403,823 418,801 432,780 447,760 462,741 478,723 494,707 510,691 527,676 537,668 550,658 566,647 584,635 603,623 625,609 648,594 673,579 699,563 726,547 754,530 783,513 812,496 842,479 871,462 901,445 930,428 959,411 987,395 1014,380 1041,365 1066,351 1089,338 1111,325 1131,314 1149,304 1165,295 1178,288 1189,282 1196,278 1201,275 1203,274 1203,274"/>
<polygon class="pen1 brush2" points="486,86 485,92 482,110 477,138 472,173 469,195 464,222 459,253 453,284 447,316 441,345 434,371 428,390 419,418 417,440 421,456 429,469 435,471 442,470 448,467 455,462 460,456 464,451 467,447 468,446 452,557 128,167 381,588 369,580 357,572 344,563 331,554 318,545 304,537 291,528 277,520 263,512 247,504 229,497 211,490 191,483 171,475 150,467 130,457 109,444 87,428 66,410 46,391 28,374 15,360 7,351 5,348 9,367 15,386 21,404 29,421 37,438 47,454 57,470 69,485 81,501 94,515 108,530 123,544 138,559 154,573 171,587 188,602 206,615 224,626 242,635 260,642 277,647 295,651 312,653 328,654 343,655 358,654 371,653 384,651 395,650 405,648 414,647 421,646 432,646 440,648 446,652 449,656 451,661 452,665 452,668 452,669 534,642 521,596 510,526 501,441 494,349 490,260 487,180 486,120 486,86 486,86"/>
<polygon class="pen1 brush2" points="553,571 641,571 637,0 553,571 553,571"/>
<polygon class="pen1 brush2" points="682,487 732,508 1023,132 682,487"/>
</g>
</svg>
