<?xml version="1.0" encoding="UTF-8" standalone="no"?>
<!DOCTYPE svg PUBLIC "-//W3C//DTD SVG 1.0//EN" "http://www.w3.org/TR/2001/REC-SVG-20010904/DTD/svg10.dtd">
<svg xmlns="http://www.w3.org/2000/svg" xmlns:xlink="http://www.w3.org/1999/xlink" fill-rule="evenodd" height="1.991in" preserveAspectRatio="none" stroke-linecap="round" viewBox="0 0 1648 1991" width="1.648in">
<style type="text/css">
.brush0 { fill: rgb(255,255,255); }
.pen0 { stroke: rgb(0,0,0); stroke-width: 1; stroke-linejoin: round; }
.brush1 { fill: none; }
.pen1 { stroke: none; }
.brush2 { fill: rgb(0,0,0); }
</style>
<g>
<polygon class="pen1 brush2" points="543,23 545,23 552,22 564,21 578,20 597,19 618,19 641,19 667,19 694,20 723,22 752,25 782,29 812,34 841,41 870,50 897,60 920,71 941,83 960,98 978,114 993,132 1005,153 1014,176 1019,201 1022,238 1021,272 1016,302 1008,327 996,349 983,367 966,380 949,389 930,394 910,394 890,390 871,381 851,368 833,350 817,327 802,300 789,271 776,243 763,217 751,193 738,170 725,148 712,128 698,110 684,93 668,78 651,65 633,53 613,43 592,34 569,28 543,23"/>
<polygon class="pen1 brush0" points="968,330 957,295 943,263 928,233 911,206 892,181 872,158 850,138 828,120 805,103 781,89 757,76 733,65 709,56 685,48 661,41 638,36 659,43 682,51 705,61 728,71 751,83 775,96 798,111 821,128 844,146 865,166 886,188 906,212 924,238 940,267 955,297 968,330"/>
<polygon class="pen1 brush2" points="1584,57 1582,57 1575,56 1564,55 1549,54 1531,53 1510,53 1487,52 1461,52 1434,53 1406,55 1377,58 1347,62 1317,67 1288,74 1259,83 1232,93 1209,104 1187,117 1167,131 1149,147 1134,165 1122,186 1113,208 1107,233 1104,271 1106,305 1111,335 1120,360 1132,382 1146,400 1162,413 1180,422 1199,427 1219,427 1239,423 1259,415 1278,402 1296,384 1313,361 1327,334 1340,305 1353,277 1366,251 1378,227 1391,204 1403,182 1417,162 1430,144 1445,127 1460,112 1477,99 1495,87 1515,77 1536,68 1559,62 1584,57"/>
<polygon class="pen1 brush0" points="1161,364 1172,329 1186,296 1201,267 1218,239 1237,214 1257,192 1278,171 1300,153 1323,137 1347,122 1371,110 1395,99 1419,89 1444,82 1468,75 1491,70 1469,77 1447,85 1424,95 1400,105 1377,117 1353,130 1330,145 1307,162 1285,180 1263,200 1242,222 1223,246 1205,272 1189,301 1174,331 1161,364"/>
<polygon class="pen1 brush2" points="1062,461 1063,473 1064,507 1065,560 1064,631 1061,717 1055,815 1044,924 1028,1041 1006,1164 976,1291 937,1418 890,1544 832,1667 763,1784 681,1893 586,1991 593,1930 594,1929 598,1926 603,1921 610,1913 620,1904 631,1892 643,1878 657,1862 659,1817 660,1772 659,1728 656,1684 652,1640 647,1597 641,1555 633,1513 620,1502 607,1492 595,1483 582,1474 570,1466 558,1458 545,1450 533,1443 521,1437 510,1431 498,1426 487,1420 475,1416 464,1411 453,1408 442,1404 435,1423 429,1441 425,1460 422,1480 414,1480 415,1459 419,1440 425,1420 434,1401 421,1407 408,1413 397,1419 386,1426 375,1433 365,1442 355,1451 344,1461 339,1452 348,1443 358,1435 367,1427 377,1420 387,1413 397,1407 409,1402 421,1397 406,1393 391,1389 376,1387 362,1384 348,1382 335,1381 321,1380 309,1379 297,1379 285,1380 275,1381 264,1382 255,1384 247,1386 239,1388 232,1391 224,1401 218,1413 215,1424 215,1432 205,1431 207,1421 210,1410 216,1400 221,1391 210,1394 201,1397 196,1399 194,1400 201,1392 209,1386 217,1381 226,1376 236,1373 245,1369 256,1367 266,1364 258,1353 250,1338 244,1321 241,1307 249,1307 252,1321 259,1336 268,1350 276,1361 303,1358 331,1357 359,1359 386,1362 413,1368 439,1375 465,1383 489,1391 512,1401 534,1411 553,1420 571,1430 587,1438 601,1446 612,1453 620,1458 612,1429 604,1399 595,1371 586,1342 576,1314 566,1286 555,1259 544,1232 533,1205 521,1179 509,1153 497,1127 484,1102 471,1078 458,1054 445,1030 437,1025 428,1020 417,1014 406,1008 393,1003 380,998 367,994 354,990 340,988 328,987 315,988 304,991 294,995 285,1002 277,1011 272,1023 262,1019 265,1014 268,1009 272,1005 277,1000 281,997 286,993 291,990 296,988 291,984 285,979 279,974 273,968 268,962 263,956 258,950 255,945 262,938 265,944 270,951 275,957 281,963 288,968 294,974 300,979 306,983 308,981 315,980 327,979 342,980 362,983 384,989 409,999 435,1013 419,985 403,958 387,932 370,907 354,882 338,858 322,835 306,813 294,806 282,799 270,793 256,788 243,783 229,779 215,775 201,771 186,769 172,766 157,764 143,763 128,761 114,761 101,760 87,760 87,753 93,753 99,753 104,753 110,753 105,747 101,740 96,734 92,727 87,721 83,715 78,708 73,702 80,698 85,705 90,711 96,718 102,725 107,732 113,738 119,746 124,753 135,754 145,755 156,756 167,757 178,759 188,761 199,763 210,765 220,768 231,771 241,774 252,777 262,781 273,785 283,789 293,794 280,778 268,763 255,747 242,731 229,716 217,701 203,686 190,671 176,657 162,643 148,630 133,617 118,605 102,593 86,583 69,573 73,564 79,567 85,571 91,575 97,579 103,582 108,586 114,590 120,594 114,582 109,571 104,560 100,548 96,536 92,524 89,512 87,499 97,500 98,511 101,523 105,537 111,551 117,565 123,579 129,590 134,600 154,618 174,637 193,657 213,677 232,698 250,718 269,739 287,759 288,729 291,696 294,662 297,628 299,597 298,569 294,549 285,536 286,527 297,541 303,555 307,569 309,578 311,573 313,567 316,560 320,554 324,548 329,543 334,540 340,539 340,547 327,559 316,582 309,612 304,646 301,682 299,716 297,746 296,769 309,784 322,799 335,815 347,830 359,845 370,860 382,875 393,890 404,905 414,920 425,934 435,949 444,964 454,978 463,993 472,1007 495,962 495,952 494,930 491,905 486,888 495,884 500,899 503,914 505,930 506,945 511,934 516,924 521,913 526,903 531,892 536,882 540,871 545,861 553,864 544,883 535,903 526,923 516,943 506,963 497,982 488,1000 479,1017 517,1085 551,1151 581,1215 607,1278 628,1338 647,1396 662,1452 674,1505 684,1555 691,1602 696,1645 699,1685 701,1722 701,1754 700,1782 699,1805 726,1768 754,1725 784,1676 814,1622 844,1561 874,1495 903,1422 931,1343 957,1257 980,1165 1001,1066 1019,959 1033,846 1043,725 1049,597 1049,461 1062,461"/>
<polygon class="pen1 brush2" points="255,1088 265,1086 273,1080 278,1072 280,1061 278,1050 273,1042 265,1036 255,1034 244,1036 236,1042 230,1050 228,1061 230,1072 236,1080 244,1086 255,1088 255,1088"/>
<polygon class="pen1 brush2" points="300,952 310,950 319,944 325,935 327,925 325,915 319,906 310,900 300,898 289,900 280,906 274,915 272,925 274,935 280,944 289,950 300,952 300,952"/>
<polygon class="pen1 brush2" points="232,942 242,940 251,934 257,926 259,915 257,905 251,897 242,892 232,890 221,892 213,897 207,905 205,915 207,926 213,934 221,940 232,942 232,942"/>
<polygon class="pen1 brush2" points="117,827 127,825 135,819 141,811 143,800 141,790 135,781 127,775 117,773 106,775 98,781 92,790 90,800 92,811 98,819 106,825 117,827 117,827"/>
<polygon class="pen1 brush2" points="52,800 62,798 71,792 77,783 79,773 77,762 71,753 62,748 52,746 42,748 33,753 28,762 26,773 28,783 33,792 42,798 52,800 52,800"/>
<polygon class="pen1 brush2" points="40,705 51,703 60,697 65,688 67,678 65,668 60,659 51,653 40,651 30,653 21,659 15,668 13,678 15,688 21,697 30,703 40,705 40,705"/>
<polygon class="pen1 brush2" points="80,642 90,640 99,634 105,626 107,615 105,605 99,597 90,592 80,590 70,592 61,597 55,605 53,615 55,626 61,634 70,640 80,642 80,642"/>
<polygon class="pen1 brush2" points="27,593 16,591 8,585 2,577 0,567 2,556 8,548 16,542 27,540 38,542 47,548 52,556 54,567 52,577 47,585 38,591 27,593 27,593"/>
<polygon class="pen1 brush2" points="87,490 98,488 107,483 112,475 114,465 112,454 107,445 98,440 87,438 77,440 69,445 64,454 62,465 64,475 69,483 77,488 87,490 87,490"/>
<polygon class="pen1 brush2" points="259,533 270,531 279,525 284,516 286,506 284,495 279,486 270,481 259,479 249,481 241,486 235,495 233,506 235,516 241,525 249,531 259,533 259,533"/>
<polygon class="pen1 brush2" points="378,547 389,545 398,539 403,531 405,520 403,510 398,501 389,495 378,493 368,495 359,501 353,510 351,520 353,531 359,539 368,545 378,547 378,547"/>
<polygon class="pen1 brush2" points="472,874 482,872 490,866 496,858 498,847 496,837 490,829 482,823 472,821 461,823 453,829 447,837 445,847 447,858 453,866 461,872 472,874 472,874"/>
<polygon class="pen1 brush2" points="559,854 569,852 577,846 582,837 584,827 582,816 577,807 569,802 559,800 548,802 540,807 534,816 532,827 534,837 540,846 548,852 559,854 559,854"/>
<polygon class="pen1 brush2" points="583,915 593,913 602,907 608,898 610,888 608,877 602,869 593,863 583,861 572,863 564,869 558,877 556,888 558,898 564,907 572,913 583,915 583,915"/>
<polygon class="pen1 brush2" points="232,1293 242,1291 251,1285 257,1276 259,1266 257,1255 251,1246 242,1241 232,1239 221,1241 213,1246 207,1255 205,1266 207,1276 213,1285 221,1291 232,1293 232,1293"/>
<polygon class="pen1 brush2" points="164,1408 174,1406 182,1400 187,1391 189,1381 187,1371 182,1362 174,1356 164,1354 153,1356 145,1362 139,1371 137,1381 139,1391 145,1400 153,1406 164,1408 164,1408"/>
<polygon class="pen1 brush2" points="198,1495 209,1493 218,1487 223,1478 225,1468 223,1458 218,1449 209,1444 198,1442 188,1444 180,1449 174,1458 172,1468 174,1478 180,1487 188,1493 198,1495 198,1495"/>
<polygon class="pen1 brush2" points="330,1522 340,1520 349,1514 355,1505 357,1495 355,1484 349,1475 340,1470 330,1468 320,1470 311,1475 305,1484 303,1495 305,1505 311,1514 320,1520 330,1522 330,1522"/>
<polygon class="pen1 brush2" points="414,1550 425,1548 433,1542 439,1533 441,1523 439,1513 433,1504 425,1498 414,1496 404,1498 395,1504 389,1513 387,1523 389,1533 395,1542 404,1548 414,1550"/>
<polygon class="pen1 brush2" points="1648,905 1647,903 1645,896 1641,886 1636,872 1629,855 1620,836 1611,814 1600,790 1587,766 1573,740 1558,713 1542,687 1525,661 1506,635 1486,611 1465,588 1453,577 1442,566 1429,556 1417,547 1404,539 1391,531 1378,525 1365,519 1351,514 1337,511 1323,508 1309,507 1294,507 1279,508 1264,511 1249,515 1210,529 1177,546 1150,565 1129,586 1113,607 1102,630 1096,652 1096,674 1100,695 1109,715 1122,733 1140,749 1162,762 1188,772 1218,778 1252,780 1287,779 1321,779 1352,779 1383,780 1412,782 1439,784 1465,788 1490,793 1513,800 1536,808 1557,818 1577,831 1596,845 1614,862 1631,882 1648,905"/>
<polygon class="pen1 brush0" points="1144,628 1184,623 1223,621 1260,622 1295,626 1328,633 1360,643 1390,654 1419,668 1446,683 1471,700 1495,718 1517,737 1538,756 1557,776 1575,797 1591,817 1574,799 1555,781 1535,763 1514,744 1491,727 1467,710 1441,693 1414,678 1385,665 1355,652 1324,642 1291,634 1256,628 1220,625 1183,625 1144,628"/>
<polygon class="pen1 brush2" points="378,833 380,828 387,814 397,792 412,763 430,730 452,694 476,656 504,617 534,579 567,544 602,513 640,487 679,469 719,459 761,458 804,469 841,486 873,505 898,526 918,548 933,571 942,594 946,617 945,639 940,660 930,679 915,696 896,710 874,722 847,730 817,734 783,733 748,730 715,728 683,726 653,725 624,725 597,725 571,727 546,731 522,736 499,743 477,752 455,763 435,776 415,792 396,811 378,833"/>
<polygon class="pen1 brush0" points="901,590 862,582 824,577 787,576 752,578 718,582 685,590 655,599 625,611 597,624 570,639 545,655 522,673 499,691 479,710 460,729 442,749 460,732 480,715 501,698 524,682 548,666 573,650 600,636 628,623 657,611 688,601 720,593 754,587 789,583 825,583 862,585 901,590"/>
<polygon class="pen1 brush2" points="1509,1571 1510,1560 1513,1528 1516,1481 1517,1422 1514,1354 1507,1282 1494,1210 1472,1141 1466,1127 1459,1113 1452,1099 1445,1086 1437,1074 1428,1062 1419,1051 1409,1041 1398,1031 1387,1023 1375,1015 1362,1008 1349,1002 1335,996 1320,992 1304,989 1258,985 1218,986 1181,991 1150,1001 1124,1015 1102,1032 1085,1051 1074,1072 1068,1095 1067,1119 1072,1143 1082,1168 1097,1191 1118,1214 1145,1234 1178,1253 1213,1270 1246,1286 1278,1301 1307,1317 1335,1333 1361,1349 1385,1365 1407,1382 1427,1400 1445,1419 1461,1440 1475,1462 1486,1486 1496,1512 1504,1540 1509,1571"/>
<polygon class="pen1 brush0" points="1145,1050 1187,1064 1226,1081 1262,1100 1295,1121 1325,1144 1352,1169 1376,1195 1398,1222 1417,1251 1434,1280 1449,1309 1462,1339 1473,1368 1482,1398 1489,1427 1495,1455 1487,1429 1478,1402 1467,1374 1455,1346 1441,1317 1425,1288 1407,1260 1388,1231 1366,1204 1342,1177 1316,1152 1287,1128 1256,1105 1222,1085 1185,1066 1145,1050"/>
<polygon class="pen1 brush2" points="485,1439 485,1433 487,1418 490,1394 494,1362 500,1325 509,1284 520,1240 533,1195 549,1150 569,1106 592,1065 619,1029 649,999 684,976 724,963 768,959 809,963 845,971 876,982 902,996 923,1013 939,1032 951,1052 957,1073 958,1094 955,1116 947,1136 934,1156 916,1174 893,1191 865,1204 833,1215 799,1224 767,1232 736,1241 708,1250 680,1259 655,1268 631,1279 608,1290 588,1302 568,1316 551,1332 534,1349 520,1368 507,1389 495,1413 485,1439"/>
<polygon class="pen1 brush0" points="898,1040 858,1045 820,1053 785,1064 753,1077 722,1093 694,1110 667,1129 643,1150 621,1172 601,1195 582,1218 566,1242 551,1267 538,1291 526,1316 516,1340 528,1318 541,1295 556,1272 572,1249 589,1226 608,1203 629,1181 651,1159 675,1139 701,1119 729,1101 758,1085 790,1070 824,1058 860,1048 898,1040"/>
</g>
</svg>
