<?xml version="1.0" encoding="UTF-8" standalone="no"?>
<!DOCTYPE svg PUBLIC "-//W3C//DTD SVG 1.0//EN" "http://www.w3.org/TR/2001/REC-SVG-20010904/DTD/svg10.dtd">
<svg xmlns="http://www.w3.org/2000/svg" xmlns:xlink="http://www.w3.org/1999/xlink" fill-rule="evenodd" height="1.98in" preserveAspectRatio="none" stroke-linecap="round" viewBox="0 0 1021 1980" width="1.021in">
<style type="text/css">
.brush0 { fill: rgb(255,255,255); }
.pen0 { stroke: rgb(0,0,0); stroke-width: 1; stroke-linejoin: round; }
.brush1 { fill: none; }
.pen1 { stroke: none; }
.brush2 { fill: rgb(0,0,0); }
</style>
<g>
<polygon class="pen1 brush2" points="821,1004 814,942 808,877 805,812 805,750 807,755 814,770 823,791 835,816 848,842 862,866 874,886 885,900 884,896 880,884 874,867 868,847 861,826 855,805 851,787 848,774 851,775 859,778 870,781 884,786 899,790 914,795 928,798 939,800 928,789 916,779 904,768 893,757 881,747 870,736 859,725 849,714 854,715 867,716 887,719 910,722 935,725 960,727 981,729 997,730 993,729 983,725 969,720 952,714 934,707 917,700 904,695 895,690 899,689 909,688 924,686 942,683 961,680 979,678 994,677 1005,676 1002,675 992,673 979,669 963,665 946,661 929,657 914,654 903,652 907,650 916,643 930,633 947,619 966,603 985,584 1003,563 1018,541 1017,542 1013,544 1008,547 1001,552 992,557 981,563 970,569 958,576 944,583 931,589 917,596 902,601 888,606 875,611 861,614 849,616 856,611 871,600 891,584 914,566 937,547 958,527 974,510 984,496 979,499 969,506 955,514 939,523 920,533 901,541 881,547 863,550 881,537 900,522 922,505 943,487 964,469 983,451 999,432 1011,415 1007,418 994,427 976,440 954,454 929,467 904,479 881,486 860,487 865,484 878,477 896,465 919,450 942,433 965,414 984,395 998,376 996,377 991,380 983,384 973,389 961,394 949,398 936,402 923,405 926,402 933,395 943,383 954,370 967,355 978,340 988,326 994,315 991,317 984,322 973,329 960,337 946,344 932,351 919,355 909,356 922,340 937,322 953,302 969,280 985,259 999,237 1012,216 1021,196 1014,203 1005,211 993,222 980,232 966,242 953,251 940,257 929,260 942,246 955,231 967,216 979,200 991,183 1001,167 1010,149 1017,132 1015,134 1008,141 998,151 986,163 971,176 955,189 939,202 924,213 926,210 932,202 940,189 950,173 961,155 973,135 984,115 994,96 991,99 984,106 972,117 959,130 944,143 929,155 915,164 903,169 905,166 911,157 919,143 928,126 939,106 949,84 957,61 964,38 963,41 959,48 954,59 946,72 937,87 927,100 915,113 903,122 904,108 907,75 908,35 906,0 896,13 886,29 875,46 865,64 856,80 849,93 844,102 842,105 834,73 834,39 837,11 839,0 827,47 821,93 818,129 818,143 811,132 804,117 798,99 792,80 788,62 784,47 782,37 781,33 778,77 776,121 775,155 775,169 768,151 762,132 757,112 752,93 748,77 745,63 744,54 743,51 737,99 738,149 742,188 745,204 738,196 731,182 724,165 717,147 712,130 707,115 704,105 703,101 698,146 700,197 705,249 710,298 702,292 695,284 688,273 681,261 675,249 669,236 664,225 660,216 659,243 661,272 665,302 670,329 661,320 653,310 645,299 639,289 633,279 629,271 626,266 625,264 626,288 631,315 639,343 649,370 659,395 668,415 675,428 677,433 661,421 646,402 632,379 619,354 608,330 599,309 594,295 592,290 593,315 599,345 607,377 616,408 626,437 635,461 641,477 643,483 628,470 614,453 602,435 592,417 583,399 576,385 572,376 571,372 571,384 572,398 574,414 578,430 582,447 587,464 592,480 598,496 598,496 605,516 611,533 615,544 616,548 611,543 606,537 600,531 595,525 590,518 585,511 580,504 575,496 575,496 563,477 552,459 542,441 534,425 527,411 522,400 519,393 518,390 518,418 522,445 527,472 534,496 534,496 540,517 546,534 550,544 552,548 542,543 528,538 512,531 495,525 479,520 466,515 457,512 454,511 462,518 474,527 488,539 502,552 516,564 527,574 535,581 538,584 529,583 514,580 497,577 478,572 460,568 445,565 435,562 431,561 445,569 464,579 486,590 508,602 530,612 547,621 559,627 564,629 549,632 531,636 511,639 491,643 473,647 457,649 447,651 443,652 453,656 466,660 480,665 495,669 509,673 520,676 528,678 531,679 520,691 509,702 497,713 484,724 471,735 458,745 446,755 433,765 450,760 469,752 490,741 511,729 531,716 551,704 568,692 582,683 565,709 546,736 527,762 507,787 487,812 467,837 448,862 429,886 445,880 464,869 486,854 507,837 527,821 544,807 555,798 559,794 552,815 541,839 529,864 516,889 503,912 493,930 486,942 483,947 495,935 511,919 530,901 550,881 569,863 584,848 595,838 599,834 593,849 583,871 570,895 556,921 543,945 532,965 524,979 521,984 533,974 546,958 561,938 575,918 588,898 599,881 606,869 609,865 597,915 584,964 570,1014 556,1063 540,1113 524,1162 507,1210 489,1259 470,1307 451,1355 431,1403 411,1450 390,1497 369,1544 347,1590 325,1636 321,1600 313,1557 301,1512 288,1467 276,1426 265,1392 257,1369 254,1361 245,1390 243,1429 246,1474 254,1522 263,1566 272,1604 278,1629 281,1639 273,1628 262,1616 250,1602 236,1586 221,1570 205,1553 190,1536 174,1519 158,1502 144,1487 130,1473 119,1461 109,1450 101,1443 97,1438 95,1436 97,1449 102,1465 110,1483 120,1502 133,1522 147,1542 161,1563 177,1583 192,1603 206,1622 220,1639 233,1653 243,1666 251,1675 256,1681 258,1683 233,1672 208,1664 184,1658 160,1653 138,1651 117,1650 97,1650 78,1652 61,1654 46,1656 32,1659 21,1662 12,1665 6,1667 1,1668 0,1669 20,1679 42,1688 65,1697 88,1704 112,1711 135,1717 159,1723 181,1727 202,1732 222,1735 240,1738 255,1740 268,1742 277,1743 283,1744 285,1744 276,1761 266,1782 256,1806 246,1832 237,1859 230,1885 226,1908 224,1929 228,1925 238,1915 254,1899 272,1879 292,1856 312,1831 330,1805 345,1779 346,1781 350,1785 356,1793 365,1802 375,1814 387,1828 400,1842 415,1858 431,1875 449,1891 466,1908 485,1925 504,1940 523,1955 543,1968 562,1980 561,1974 556,1958 548,1935 534,1905 515,1872 489,1837 455,1803 413,1771 416,1771 423,1773 435,1774 451,1776 470,1779 491,1781 515,1783 539,1785 564,1787 590,1788 614,1788 637,1788 659,1786 678,1784 694,1780 706,1774 704,1774 697,1772 686,1770 673,1767 656,1764 637,1760 616,1756 594,1752 571,1748 548,1744 525,1740 504,1736 483,1733 464,1730 448,1728 434,1727 436,1726 444,1724 454,1721 469,1716 486,1710 505,1703 526,1695 548,1687 570,1678 591,1668 612,1657 632,1646 649,1635 664,1624 675,1612 683,1601 681,1602 674,1603 665,1605 651,1609 636,1613 617,1617 597,1623 576,1629 554,1635 532,1642 509,1649 487,1657 466,1664 447,1672 429,1680 414,1688 415,1681 422,1660 433,1629 448,1588 467,1538 488,1482 511,1420 535,1355 559,1288 583,1221 606,1155 627,1091 645,1031 660,977 671,931 677,893 677,924 678,962 681,1001 690,1033 692,992 695,948 699,905 707,865 712,885 717,905 721,925 726,945 731,965 735,984 739,1004 743,1024 744,982 746,938 752,895 761,854 765,871 770,891 776,912 783,933 790,954 799,973 809,990 821,1004"/>
</g>
</svg>
