<?xml version="1.0" encoding="UTF-8" standalone="no"?>
<!DOCTYPE svg PUBLIC "-//W3C//DTD SVG 1.0//EN" "http://www.w3.org/TR/2001/REC-SVG-20010904/DTD/svg10.dtd">
<svg xmlns="http://www.w3.org/2000/svg" xmlns:xlink="http://www.w3.org/1999/xlink" fill-rule="evenodd" height="1.977in" preserveAspectRatio="none" stroke-linecap="round" viewBox="0 0 1737 1977" width="1.737in">
<style type="text/css">
.brush0 { fill: rgb(255,255,255); }
.pen0 { stroke: rgb(0,0,0); stroke-width: 1; stroke-linejoin: round; }
.brush1 { fill: none; }
.pen1 { stroke: none; }
.brush2 { fill: rgb(0,0,0); }
</style>
<g>
<polygon class="pen1 brush2" points="324,199 328,200 338,204 354,210 373,216 395,223 418,229 440,233 461,236 479,235 492,231 499,223 499,210 490,190 472,164 442,131 399,90 403,89 414,86 430,82 450,76 472,69 495,62 515,54 533,46 547,38 554,31 553,24 542,18 520,14 485,11 436,9 370,10 342,12 316,17 292,23 270,31 251,40 236,51 224,62 216,74 211,90 211,108 214,128 221,149 230,171 240,193 250,214 260,235 268,249 277,265 288,280 300,295 312,309 324,321 336,330 346,337 355,339 361,338 365,331 365,318 362,300 354,274 342,241 324,199"/>
<polygon class="pen1 brush2" points="932,1140 959,1025 990,931 1026,857 1064,800 1105,758 1147,730 1189,713 1231,706 1271,707 1309,714 1343,725 1374,738 1399,752 1418,764 1430,773 1434,776 1450,796 1467,819 1484,845 1500,870 1515,894 1526,913 1534,926 1537,931 1535,912 1536,888 1536,869 1537,861 1548,864 1559,868 1569,873 1578,878 1586,883 1592,887 1596,890 1597,891 1587,866 1580,843 1575,827 1573,821 1585,819 1597,815 1610,811 1622,807 1632,803 1641,799 1646,797 1648,796 1638,795 1626,794 1612,791 1596,788 1580,783 1562,779 1544,774 1527,769 1509,764 1493,759 1478,755 1465,750 1454,747 1446,744 1441,743 1439,742 1361,698 1291,673 1229,664 1172,670 1123,688 1079,716 1042,753 1009,794 982,839 960,886 941,931 927,973 917,1009 910,1038 906,1057 905,1064 921,925 940,804 961,697 985,605 1011,527 1037,461 1063,407 1090,362 1115,327 1139,300 1161,280 1180,266 1196,257 1209,252 1216,250 1219,249 1189,213 1145,231 1104,262 1068,304 1035,354 1005,412 979,474 957,540 937,607 920,673 906,737 895,796 886,848 879,893 874,927 872,948 871,956 870,948 868,927 863,893 856,848 847,796 836,737 822,673 805,607 785,540 763,474 737,412 707,354 674,304 638,262 597,231 553,213 523,249 526,250 533,252 546,257 562,266 581,280 603,300 627,327 652,362 679,407 705,461 731,527 757,605 781,697 802,804 821,925 837,1064 836,1057 832,1038 825,1009 815,973 801,931 783,886 760,839 733,794 701,753 663,716 619,688 570,670 514,664 451,673 381,698 304,742 302,743 297,744 288,747 277,751 263,755 248,760 231,766 213,771 195,776 177,782 158,787 141,791 125,795 110,798 98,799 88,800 90,801 96,804 105,807 116,812 129,817 142,821 154,825 166,827 165,832 161,846 154,867 145,891 146,890 150,887 156,883 164,878 173,873 183,868 194,864 205,861 205,869 206,888 205,912 202,931 205,926 213,913 225,894 241,870 258,845 275,819 293,796 309,776 314,773 326,764 346,752 373,738 405,724 441,713 480,706 521,705 564,712 607,728 649,757 689,799 726,856 759,931 788,1025 810,1141 871,1184 932,1140 932,1140"/>
<polygon class="pen1 brush2" points="13,965 7,952 7,937 13,922 23,907 33,894 45,881 57,868 71,857 84,846 96,837 108,830 118,824 123,826 128,828 133,830 138,831 143,832 148,834 153,835 158,836 156,842 151,858 142,880 131,905 132,904 136,901 142,897 150,892 160,887 170,882 181,878 192,875 192,878 193,887 193,899 193,912 186,918 177,925 166,933 155,940 142,948 129,955 116,962 102,968 88,973 75,977 62,980 49,981 38,980 28,978 20,973 13,965 13,965"/>
<polygon class="pen1 brush2" points="1726,966 1719,974 1711,979 1701,981 1690,982 1677,981 1664,978 1651,974 1637,969 1623,963 1610,956 1597,949 1584,942 1573,934 1562,927 1553,920 1546,914 1546,899 1547,886 1547,877 1547,874 1558,876 1570,880 1580,885 1590,890 1599,896 1605,900 1609,903 1611,904 1600,878 1591,854 1586,837 1584,830 1588,830 1592,829 1597,828 1601,828 1605,827 1610,826 1614,824 1618,823 1628,829 1639,837 1652,846 1666,856 1679,868 1693,881 1705,894 1716,907 1725,923 1730,938 1731,953 1726,966 1726,966"/>
<polygon class="pen1 brush2" points="1622,23 1564,87 1560,85 1552,77 1543,66 1539,50 1622,23 1622,23"/>
<polygon class="pen1 brush2" points="120,20 179,84 183,82 191,75 200,64 205,47 120,20"/>
<polygon class="pen1 brush2" points="833,1212 827,1217 819,1224 809,1232 798,1240 785,1250 770,1260 753,1271 736,1283 716,1294 696,1306 674,1317 651,1328 627,1338 602,1348 576,1357 549,1365 522,1372 493,1377 464,1381 435,1382 405,1383 374,1381 343,1376 312,1370 281,1360 249,1348 217,1333 186,1315 154,1294 123,1269 92,1240 61,1208 833,1212 833,1212"/>
<polygon class="pen1 brush2" points="70,1198 77,1193 85,1187 95,1180 106,1173 118,1165 132,1156 146,1148 163,1139 180,1130 198,1122 218,1113 239,1105 261,1098 284,1091 307,1084 332,1079 358,1074 385,1071 412,1068 440,1067 469,1068 499,1070 530,1073 561,1079 593,1086 625,1095 658,1107 691,1121 725,1137 760,1156 795,1177 830,1201 70,1198"/>
<polygon class="pen1 brush2" points="864,1212 851,1228 834,1250 814,1279 792,1313 770,1353 748,1397 729,1445 713,1497 702,1551 697,1609 699,1668 709,1728 730,1789 762,1851 806,1912 864,1972 864,1212 864,1212"/>
<polygon class="pen1 brush2" points="878,1977 886,1967 899,1950 914,1926 932,1897 950,1862 968,1822 984,1777 998,1727 1009,1673 1014,1615 1013,1553 1005,1489 989,1421 963,1351 926,1279 878,1205 878,1977"/>
<polygon class="pen1 brush2" points="912,1208 919,1213 927,1220 937,1228 949,1237 962,1247 977,1257 993,1268 1011,1279 1030,1291 1051,1302 1072,1313 1095,1324 1119,1334 1143,1344 1169,1352 1195,1360 1222,1367 1250,1372 1279,1375 1308,1378 1337,1378 1367,1376 1397,1372 1428,1366 1459,1357 1490,1346 1521,1331 1552,1314 1582,1294 1613,1270 1644,1243 1674,1212 912,1208 912,1208"/>
<polygon class="pen1 brush2" points="1682,1201 1680,1199 1675,1196 1669,1191 1661,1185 1652,1178 1640,1170 1627,1162 1613,1153 1597,1144 1579,1134 1560,1125 1540,1115 1518,1106 1495,1097 1471,1089 1445,1082 1418,1076 1391,1070 1362,1066 1332,1064 1301,1063 1269,1063 1236,1066 1203,1070 1168,1077 1133,1086 1097,1097 1061,1111 1024,1128 986,1148 948,1172 909,1198 1682,1201"/>
<polygon class="pen1 brush2" points="1418,199 1414,200 1404,204 1389,210 1369,216 1348,223 1325,229 1303,233 1282,236 1264,235 1251,231 1244,223 1244,210 1253,190 1271,164 1301,131 1344,90 1340,89 1329,86 1313,82 1293,76 1271,69 1249,62 1228,54 1210,46 1197,38 1190,31 1191,24 1201,18 1223,14 1258,11 1308,9 1374,10 1401,12 1427,17 1451,23 1473,31 1492,40 1507,51 1519,62 1527,74 1532,90 1532,108 1529,128 1522,149 1514,171 1504,193 1493,214 1483,235 1475,249 1466,265 1455,280 1443,295 1431,309 1419,321 1408,330 1397,337 1389,339 1382,338 1378,331 1378,318 1381,300 1388,274 1401,241 1418,199"/>
</g>
</svg>
