<?xml version="1.0" encoding="UTF-8" standalone="no"?>
<!DOCTYPE svg PUBLIC "-//W3C//DTD SVG 1.0//EN" "http://www.w3.org/TR/2001/REC-SVG-20010904/DTD/svg10.dtd">
<svg xmlns="http://www.w3.org/2000/svg" xmlns:xlink="http://www.w3.org/1999/xlink" fill-rule="evenodd" height="1.975in" preserveAspectRatio="none" stroke-linecap="round" viewBox="0 0 1730 1975" width="1.73in">
<style type="text/css">
.brush0 { fill: rgb(255,255,255); }
.pen0 { stroke: rgb(0,0,0); stroke-width: 1; stroke-linejoin: round; }
.brush1 { fill: none; }
.pen1 { stroke: none; }
.brush2 { fill: rgb(0,0,0); }
</style>
<g>
<polygon class="pen1 brush2" points="852,827 873,848 895,873 919,900 943,930 967,962 990,997 1012,1033 1032,1071 1050,1110 1065,1151 1077,1193 1084,1236 1087,1279 1084,1322 1076,1366 1061,1410 1051,1434 1040,1459 1028,1483 1016,1506 1002,1528 987,1549 972,1567 956,1582 938,1594 920,1602 900,1606 880,1605 858,1598 835,1586 812,1567 787,1541 770,1540 752,1540 734,1541 716,1542 698,1543 680,1543 663,1542 648,1539 633,1535 620,1529 609,1521 599,1509 592,1494 587,1476 584,1454 585,1427 568,1428 551,1428 533,1427 515,1425 497,1421 479,1417 462,1412 446,1405 430,1397 416,1387 404,1376 393,1363 384,1349 378,1333 373,1315 372,1295 375,1294 383,1290 397,1284 415,1275 436,1263 461,1247 489,1228 519,1205 550,1177 582,1145 615,1109 648,1068 681,1021 712,969 741,912 768,848 779,859 789,863 798,861 807,854 814,846 819,837 823,831 824,828 834,829 842,829 848,828 852,827 852,827"/>
<polygon class="pen1 brush2" points="754,831 747,831 738,831 728,829 719,825 713,819 711,809 713,795 723,777 722,776 720,772 716,767 713,761 643,754 579,744 519,729 464,713 414,694 369,673 328,651 292,629 261,608 233,587 211,568 192,551 178,537 168,526 162,518 160,516 142,523 126,531 113,542 102,554 93,567 86,581 81,596 78,611 76,637 76,662 79,687 84,709 89,729 93,744 97,754 98,757 76,763 57,771 42,780 30,790 20,802 13,814 9,827 7,841 7,864 10,887 16,909 24,930 32,949 39,965 45,976 48,983 42,994 35,1007 27,1021 21,1036 16,1053 13,1069 12,1087 16,1104 19,1112 23,1121 29,1129 36,1137 44,1145 54,1153 65,1160 78,1167 93,1174 109,1180 128,1186 149,1191 172,1196 197,1200 224,1204 254,1207 301,1208 346,1203 389,1192 430,1176 469,1156 506,1133 541,1106 574,1077 604,1046 633,1014 659,981 683,948 704,916 723,886 740,857 754,831 754,831"/>
<polygon class="pen1 brush2" points="710,754 680,749 648,742 613,734 575,724 537,712 497,698 458,682 419,663 381,642 344,618 310,592 279,562 251,528 227,492 207,452 193,408 180,351 173,303 171,262 172,227 178,199 186,177 198,160 211,147 226,138 243,133 259,130 276,130 293,131 309,134 323,136 335,139 341,134 351,124 364,112 379,98 396,83 415,70 436,59 457,51 471,49 485,49 499,52 513,57 527,65 541,76 554,90 567,109 570,107 578,100 591,91 608,80 627,69 650,58 674,50 699,44 714,42 730,42 745,43 760,47 775,53 789,62 802,74 814,89 808,100 792,131 771,182 751,251 735,338 730,442 738,560 766,693 762,699 759,705 755,710 751,713 734,711 721,712 713,716 707,721 705,728 705,736 707,745 710,754 710,754"/>
<polygon class="pen1 brush2" points="773,686 769,657 765,624 761,588 759,550 758,510 759,468 762,426 768,383 776,340 787,298 802,257 820,218 843,181 870,146 902,115 939,88 960,75 980,63 999,52 1017,43 1034,35 1050,28 1066,22 1080,18 1093,14 1106,11 1118,9 1129,8 1139,8 1149,8 1158,9 1166,11 1187,21 1204,34 1216,51 1225,70 1231,89 1234,108 1237,126 1239,141 1244,144 1253,148 1264,153 1277,160 1292,168 1307,177 1322,188 1337,200 1349,214 1360,229 1368,245 1372,263 1372,283 1367,304 1356,327 1339,351 1341,352 1347,356 1355,362 1366,370 1379,380 1393,392 1407,406 1420,421 1433,438 1444,455 1452,474 1458,494 1459,515 1457,536 1449,557 1436,579 1433,578 1424,576 1410,574 1390,571 1365,569 1336,567 1303,567 1265,569 1224,573 1179,581 1132,591 1081,606 1028,625 973,648 916,678 858,713 849,711 839,711 832,712 829,712 821,697 813,687 806,680 798,676 791,676 785,678 779,681 773,686 773,686"/>
<polygon class="pen1 brush2" points="866,722 869,729 870,739 866,751 858,768 860,774 865,788 866,806 859,821 909,866 954,912 993,957 1026,1001 1054,1045 1078,1087 1098,1127 1114,1164 1127,1199 1137,1231 1144,1259 1149,1283 1152,1302 1154,1316 1155,1325 1155,1328 1180,1334 1203,1335 1224,1331 1243,1323 1261,1312 1276,1298 1290,1283 1302,1266 1313,1249 1322,1232 1329,1215 1335,1200 1339,1188 1343,1178 1344,1171 1345,1169 1373,1178 1398,1181 1419,1180 1438,1174 1453,1165 1467,1152 1478,1137 1487,1121 1494,1104 1500,1086 1504,1069 1508,1052 1511,1038 1513,1025 1514,1016 1516,1010 1527,1005 1540,999 1555,992 1569,983 1582,973 1595,961 1605,948 1612,932 1616,914 1615,894 1609,870 1598,845 1579,816 1554,784 1520,749 1477,710 1441,683 1403,662 1364,646 1323,635 1281,629 1239,626 1196,627 1154,631 1113,638 1072,647 1032,658 994,669 958,682 925,696 894,709 866,722"/>
<polygon class="pen1 brush2" points="1618,1975 1619,1967 1620,1944 1622,1908 1623,1862 1622,1807 1620,1748 1614,1685 1605,1621 1592,1558 1573,1499 1548,1447 1517,1402 1479,1368 1432,1348 1376,1343 1311,1355 1316,1361 1322,1367 1327,1376 1333,1385 1338,1395 1342,1407 1344,1420 1345,1433 1343,1431 1339,1425 1332,1416 1322,1407 1310,1396 1296,1387 1281,1380 1264,1375 1223,1411 1192,1458 1170,1513 1159,1570 1160,1627 1173,1679 1198,1722 1237,1752 1262,1763 1287,1774 1312,1785 1338,1796 1364,1808 1389,1819 1415,1831 1441,1843 1466,1856 1490,1870 1514,1885 1537,1900 1559,1917 1580,1935 1600,1954 1618,1975"/>
<polygon class="pen1 brush2" points="791,824 802,823 812,820 822,815 830,808 837,800 842,790 846,780 847,768 846,757 842,747 837,738 830,730 822,723 812,718 802,714 791,713 780,714 769,718 760,723 752,730 746,738 741,747 738,757 737,768 738,780 741,790 746,800 752,808 760,815 769,820 780,823 791,824"/>
</g>
</svg>
