<?xml version="1.0" encoding="UTF-8" standalone="no"?>
<!DOCTYPE svg PUBLIC "-//W3C//DTD SVG 1.0//EN" "http://www.w3.org/TR/2001/REC-SVG-20010904/DTD/svg10.dtd">
<svg xmlns="http://www.w3.org/2000/svg" xmlns:xlink="http://www.w3.org/1999/xlink" fill-rule="evenodd" height="2.014in" preserveAspectRatio="none" stroke-linecap="round" viewBox="0 0 1391 2014" width="1.391in">
<style type="text/css">
.brush0 { fill: rgb(255,255,255); }
.pen0 { stroke: rgb(0,0,0); stroke-width: 1; stroke-linejoin: round; }
.brush1 { fill: none; }
.pen1 { stroke: none; }
.brush2 { fill: rgb(0,0,0); }
</style>
<g>
<polygon class="pen1 brush2" points="54,1108 55,1096 60,1084 68,1073 77,1064 72,1056 72,1047 73,1039 74,1030 77,1024 82,1019 88,1015 94,1010 98,1007 103,1005 108,1003 113,1001 118,998 123,996 128,993 132,989 134,985 138,976 145,962 152,946 159,930 165,916 170,906 171,901 164,895 156,894 147,897 139,902 130,908 122,914 115,917 108,918 94,914 82,914 71,917 62,921 53,927 44,932 34,935 24,937 20,923 19,909 18,895 17,881 13,873 8,864 4,857 3,851 8,837 10,823 9,809 10,795 13,791 18,790 23,789 28,787 33,780 34,773 33,766 31,758 30,751 29,743 31,736 36,732 42,731 48,730 55,729 61,728 67,726 73,724 77,720 81,714 87,703 93,694 98,683 101,671 103,668 107,664 112,660 119,656 126,650 133,644 138,636 141,627 138,628 129,632 117,638 102,645 87,653 72,662 60,670 51,678 52,672 56,658 64,640 78,624 76,624 72,624 66,625 59,626 50,628 42,631 34,635 27,641 33,635 40,629 47,623 54,617 61,612 69,608 76,603 84,600 83,600 80,599 75,597 69,596 62,594 54,593 45,593 36,593 40,591 52,587 69,580 90,572 111,563 133,553 151,544 165,536 162,536 155,535 145,535 132,534 119,534 106,534 94,535 84,536 86,535 91,532 98,527 108,521 118,515 130,507 142,500 153,492 151,492 144,490 135,489 124,487 111,486 97,485 84,484 73,485 76,483 84,479 96,473 110,466 127,458 144,451 161,445 176,441 174,439 167,435 157,429 145,421 132,414 118,406 105,400 94,395 96,395 103,393 114,392 128,391 146,390 167,391 190,394 215,398 214,390 211,371 203,348 189,329 192,330 201,334 215,338 233,344 253,351 275,357 298,362 321,367 320,366 317,362 312,357 306,350 298,342 289,332 280,323 270,313 270,313 264,307 257,301 251,295 245,290 240,286 235,282 230,279 226,276 228,276 235,277 245,277 258,278 273,279 289,281 305,282 320,283 318,280 314,273 307,263 299,251 289,239 278,227 267,218 257,212 260,212 266,212 277,211 290,210 305,210 321,209 336,208 351,208 350,206 346,199 340,190 333,180 324,168 315,158 306,149 297,143 299,143 303,144 310,144 318,146 329,148 340,151 352,156 365,161 364,157 361,148 356,134 350,118 343,101 335,85 326,71 318,62 320,63 324,68 331,74 341,83 352,94 365,108 380,122 395,139 411,156 428,175 444,195 460,215 475,236 489,257 502,279 513,300 511,295 507,283 500,266 491,245 482,223 473,203 464,185 457,174 458,174 462,174 468,174 475,175 483,178 492,182 502,187 511,195 509,188 506,174 500,155 493,133 486,110 478,89 471,73 465,62 467,64 472,68 479,76 489,85 499,96 510,108 520,120 530,133 531,117 533,80 533,36 530,0 532,2 536,8 542,18 549,30 556,46 562,63 566,83 568,104 569,103 573,100 578,95 586,88 594,79 603,68 612,54 621,39 622,51 623,80 624,119 622,158 624,155 629,146 638,133 649,117 661,99 675,81 690,63 705,46 704,50 701,61 696,77 691,96 684,117 678,137 671,156 665,171 666,170 670,167 676,162 684,156 694,149 704,141 715,133 726,124 723,136 716,165 707,200 698,229 723,208 723,213 723,226 721,244 719,263 722,258 731,245 743,226 758,203 774,179 789,155 801,135 810,121 807,132 800,158 792,188 788,214 790,212 796,208 804,201 815,193 826,183 839,172 850,161 861,151 860,154 858,161 854,172 849,185 843,200 838,215 832,229 827,242 830,240 837,234 848,225 862,214 876,202 892,191 906,180 918,171 917,173 915,178 912,188 911,204 912,199 916,194 920,189 926,184 933,179 939,174 944,168 949,162 952,158 957,155 962,152 967,149 972,147 977,144 982,141 986,138 990,134 991,129 993,124 996,121 1008,119 1019,117 1031,117 1042,116 1053,116 1065,117 1076,117 1088,117 1095,114 1098,106 1101,98 1105,90 1110,87 1116,86 1122,86 1128,87 1136,89 1144,92 1151,96 1156,101 1162,114 1168,128 1173,141 1178,155 1176,159 1171,163 1166,168 1165,174 1168,181 1173,188 1178,195 1182,201 1186,208 1188,215 1187,222 1183,229 1179,233 1173,236 1167,238 1161,240 1154,243 1148,246 1143,250 1138,255 1138,256 1137,258 1135,261 1135,265 1138,267 1141,269 1143,271 1144,273 1141,282 1133,289 1125,296 1125,303 1128,306 1132,309 1137,312 1141,313 1150,320 1157,330 1162,341 1169,348 1174,351 1181,352 1187,354 1194,355 1200,357 1205,359 1210,364 1213,370 1215,378 1215,386 1215,394 1216,402 1219,407 1224,411 1227,415 1226,418 1220,421 1214,424 1208,427 1203,430 1199,434 1197,439 1197,445 1199,452 1204,450 1217,449 1235,451 1256,453 1278,456 1299,459 1315,461 1324,462 1207,506 1207,506 1208,507 1210,508 1214,509 1218,510 1225,511 1233,512 1243,512 1241,513 1235,515 1227,519 1217,523 1206,527 1195,532 1185,536 1176,539 1176,540 1176,542 1176,545 1177,548 1180,552 1186,556 1195,560 1207,563 1139,597 1139,603 1141,609 1141,615 1138,620 1133,624 1126,625 1120,627 1114,631 1111,638 1112,645 1117,652 1124,658 1127,660 1132,660 1136,660 1139,658 1143,653 1145,648 1147,642 1149,637 1152,634 1156,633 1160,634 1165,635 1170,637 1174,641 1178,645 1183,648 1191,652 1200,655 1208,658 1216,661 1224,664 1233,668 1241,671 1250,675 1257,679 1263,683 1270,688 1277,691 1284,693 1291,694 1299,695 1305,697 1314,703 1322,711 1325,722 1324,733 1320,741 1314,747 1307,752 1301,759 1301,763 1302,767 1303,770 1304,772 1310,784 1314,796 1315,807 1308,816 1302,820 1295,823 1289,827 1286,833 1287,843 1288,853 1289,864 1288,874 1287,880 1284,886 1283,893 1283,900 1284,905 1287,908 1291,912 1296,914 1301,916 1305,917 1310,918 1316,918 1321,918 1326,919 1330,919 1335,920 1342,923 1351,929 1358,937 1359,944 1363,940 1369,936 1377,934 1385,937 1387,943 1385,950 1382,956 1379,962 1374,971 1369,979 1362,986 1355,993 1347,1000 1338,1006 1330,1012 1321,1018 1315,1021 1309,1023 1301,1023 1294,1020 1289,1017 1284,1012 1280,1008 1275,1005 1270,1002 1266,1001 1261,1002 1256,1006 1252,1010 1249,1015 1246,1020 1243,1025 1240,1030 1236,1034 1232,1037 1226,1039 1216,1039 1206,1038 1195,1036 1185,1034 1175,1033 1165,1033 1156,1036 1148,1043 1144,1049 1144,1056 1145,1064 1148,1072 1152,1078 1158,1082 1164,1088 1168,1096 1168,1099 1169,1102 1169,1105 1169,1108 796,1108 795,1107 794,1107 794,1107 794,1106 789,1098 784,1089 779,1081 774,1074 768,1066 763,1058 758,1051 753,1043 748,1036 741,1031 735,1028 727,1025 719,1022 712,1020 704,1018 696,1016 691,1023 686,1032 681,1042 676,1053 671,1065 667,1079 664,1093 662,1108 598,1108 609,1067 615,1010 616,939 608,856 602,875 596,894 589,913 580,928 577,929 573,928 569,927 567,928 563,937 559,948 553,956 541,956 544,989 547,1031 552,1073 558,1108 474,1108 472,1073 471,1035 471,997 472,962 468,961 463,959 459,957 455,955 452,955 446,957 438,959 430,961 421,964 412,966 405,967 399,968 396,989 396,1010 395,1031 392,1052 388,1060 381,1066 375,1073 369,1080 367,1087 365,1094 364,1101 364,1108 325,1108 324,1105 323,1101 322,1097 321,1094 317,1093 312,1093 306,1095 300,1096 294,1099 288,1102 282,1105 277,1108 54,1108"/>
<polygon class="pen1 brush2" points="192,1148 187,1146 181,1145 175,1145 169,1145 164,1145 158,1145 153,1143 149,1140 147,1142 144,1146 140,1149 136,1150 131,1147 127,1143 123,1139 118,1137 112,1138 106,1139 100,1140 95,1140 91,1139 87,1138 83,1136 79,1134 75,1132 71,1130 67,1128 64,1125 60,1122 57,1119 55,1115 54,1110 54,1110 54,1110 54,1109 54,1108 277,1108 277,1109 277,1110 277,1110 276,1110 276,1110 276,1110 271,1113 266,1116 261,1118 257,1120 253,1121 249,1122 246,1124 243,1125 250,1133 259,1141 270,1150 283,1159 297,1167 314,1174 332,1179 352,1181 350,1175 343,1158 335,1135 327,1110 327,1110 327,1110 327,1110 326,1109 325,1108 364,1108 364,1109 364,1110 364,1110 364,1110 364,1111 364,1112 364,1114 364,1114 367,1131 372,1147 378,1162 385,1172 396,1181 410,1187 426,1190 442,1189 456,1184 468,1174 475,1161 477,1143 476,1136 476,1128 475,1119 474,1110 474,1110 474,1110 474,1110 474,1109 474,1108 558,1108 559,1109 560,1110 560,1110 560,1110 560,1110 563,1120 566,1128 570,1133 574,1134 581,1132 587,1128 593,1120 598,1110 598,1110 598,1110 598,1110 598,1109 598,1108 662,1108 662,1109 662,1110 662,1110 661,1110 660,1130 661,1151 665,1172 672,1195 674,1195 679,1197 688,1199 699,1201 712,1202 727,1204 743,1205 759,1205 775,1203 792,1200 807,1196 821,1189 832,1179 842,1167 849,1152 852,1134 849,1130 845,1127 842,1125 838,1123 833,1122 829,1121 824,1121 820,1121 813,1121 807,1119 802,1115 797,1110 797,1110 797,1110 797,1110 796,1109 796,1108 1169,1108 1169,1109 1169,1110 1169,1110 1169,1110 1168,1116 1168,1122 1168,1128 1169,1134 1170,1136 1171,1139 1174,1142 1176,1145 1177,1149 1175,1152 1172,1155 1169,1158 1165,1169 1166,1182 1167,1195 1165,1208 1163,1211 1161,1213 1158,1214 1154,1215 1149,1215 1145,1214 1140,1213 1135,1212 1127,1213 1124,1215 1122,1219 1121,1222 1119,1229 1119,1236 1118,1242 1115,1246 1110,1249 1105,1250 1101,1249 1097,1247 1093,1244 1089,1241 1084,1239 1080,1238 1074,1237 1068,1237 1062,1235 1058,1231 1058,1227 1058,1222 1058,1218 1058,1214 1054,1216 1048,1217 1043,1218 1038,1218 1031,1215 1027,1207 1024,1197 1020,1188 1016,1192 1012,1195 1007,1199 1003,1202 998,1204 993,1204 988,1204 983,1201 976,1191 973,1179 971,1167 967,1155 962,1153 954,1155 944,1161 933,1168 921,1176 910,1184 900,1190 892,1194 884,1200 876,1206 868,1212 861,1217 853,1223 846,1227 840,1230 835,1232 830,1233 824,1234 817,1235 808,1236 799,1236 789,1237 778,1237 767,1238 768,1249 769,1261 768,1275 767,1289 765,1288 759,1284 751,1275 744,1258 742,1268 737,1292 733,1321 733,1346 732,1345 728,1341 724,1334 721,1323 718,1309 719,1291 723,1268 732,1241 724,1242 715,1242 708,1244 701,1245 694,1247 689,1250 684,1253 680,1256 679,1256 675,1255 669,1258 664,1265 659,1278 655,1301 653,1334 655,1380 662,1394 667,1415 668,1438 663,1455 665,1458 669,1466 674,1479 681,1496 687,1517 691,1541 694,1568 693,1596 695,1604 696,1613 696,1622 696,1631 695,1646 693,1665 690,1688 687,1713 685,1741 684,1769 685,1799 688,1828 694,1856 703,1883 716,1907 734,1929 756,1947 783,1961 817,1969 857,1972 854,1973 847,1976 834,1981 816,1987 794,1993 768,1999 737,2005 703,2009 693,2010 684,2011 674,2011 664,2011 653,2012 642,2012 631,2011 620,2011 609,2011 597,2010 586,2009 574,2008 561,2007 549,2005 537,2004 524,2002 523,2002 519,2002 514,2003 506,2003 496,2003 485,2004 472,2004 458,2004 443,2004 426,2004 409,2004 391,2004 372,2003 353,2002 333,2001 314,1999 293,1996 272,1993 251,1989 231,1985 212,1980 194,1974 177,1968 162,1960 164,1960 169,1960 177,1959 187,1959 200,1959 214,1958 229,1957 245,1956 262,1955 278,1954 294,1953 310,1952 324,1950 336,1949 346,1947 354,1945 360,1943 366,1939 373,1935 380,1930 386,1924 392,1919 398,1912 402,1906 395,1907 389,1908 383,1909 378,1910 373,1912 369,1915 364,1918 358,1923 366,1907 374,1895 381,1885 388,1876 396,1868 406,1861 417,1852 430,1842 434,1829 441,1815 449,1802 457,1789 467,1776 476,1764 485,1752 493,1740 482,1748 470,1758 457,1769 445,1781 434,1793 424,1804 416,1812 412,1818 416,1810 426,1789 440,1760 458,1725 476,1688 495,1655 511,1628 524,1611 523,1596 522,1561 522,1522 528,1495 524,1485 516,1460 512,1427 517,1393 520,1379 516,1370 508,1366 497,1365 486,1368 476,1375 468,1385 465,1398 466,1416 470,1438 474,1464 478,1492 481,1521 483,1548 481,1573 476,1594 475,1588 471,1575 466,1558 460,1542 459,1548 456,1562 450,1580 442,1598 440,1578 436,1530 431,1476 429,1435 430,1405 437,1374 444,1343 448,1316 449,1303 449,1285 449,1266 448,1245 442,1244 436,1243 430,1242 424,1240 417,1239 411,1238 405,1236 399,1235 399,1256 401,1282 404,1313 408,1350 410,1384 409,1409 405,1429 399,1445 393,1460 387,1476 383,1496 381,1523 378,1555 374,1591 367,1628 360,1666 354,1702 348,1736 344,1765 342,1788 342,1823 342,1851 339,1874 334,1896 333,1885 331,1860 327,1831 324,1808 322,1810 318,1817 311,1826 304,1838 295,1851 287,1864 280,1876 274,1887 275,1884 278,1876 283,1864 289,1849 295,1831 301,1813 307,1795 311,1778 316,1756 323,1726 330,1690 338,1652 345,1614 351,1579 354,1551 355,1532 355,1501 360,1466 366,1432 372,1405 375,1374 375,1324 375,1272 375,1229 369,1228 363,1226 357,1225 352,1223 346,1222 340,1220 334,1218 328,1216 321,1239 315,1270 312,1310 310,1360 308,1415 306,1456 302,1485 298,1506 292,1521 285,1532 276,1542 267,1553 271,1531 279,1478 286,1415 287,1360 285,1329 284,1289 287,1246 297,1205 288,1200 275,1191 258,1180 241,1169 224,1158 209,1150 198,1146 192,1148"/>
<polygon class="pen1 brush0" points="628,1508 629,1512 631,1522 633,1536 633,1554 632,1573 627,1592 617,1608 602,1621 600,1618 597,1611 593,1599 591,1584 592,1567 597,1548 609,1528 628,1508"/>
</g>
</svg>
