<?xml version="1.0" encoding="UTF-8" standalone="no"?>
<!DOCTYPE svg PUBLIC "-//W3C//DTD SVG 1.0//EN" "http://www.w3.org/TR/2001/REC-SVG-20010904/DTD/svg10.dtd">
<svg xmlns="http://www.w3.org/2000/svg" xmlns:xlink="http://www.w3.org/1999/xlink" fill-rule="evenodd" height="0.615in" preserveAspectRatio="none" stroke-linecap="round" viewBox="0 0 355 615" width="0.355in">
<style type="text/css">
.brush0 { fill: rgb(255,255,255); }
.pen0 { stroke: rgb(0,0,0); stroke-width: 1; stroke-linejoin: round; }
.brush1 { fill: none; }
.pen1 { stroke: none; }
.brush2 { fill: rgb(0,0,0); }
</style>
<g>
<polygon class="pen1 brush2" points="274,154 283,161 291,170 297,180 301,190 303,201 303,211 300,222 296,232 290,241 282,248 273,253 263,257 252,259 241,259 230,257 219,253 217,265 214,276 208,286 202,294 193,301 184,307 174,310 163,311 152,310 142,307 133,302 125,295 118,287 113,277 108,267 106,255 95,259 84,261 73,262 62,260 52,256 42,251 34,244 28,235 24,225 21,215 21,204 23,193 27,183 32,174 39,165 48,157 39,150 31,141 26,131 22,121 20,110 20,100 22,89 27,79 33,70 41,63 50,58 60,54 70,52 81,52 92,54 103,58 105,46 109,36 114,26 121,17 130,11 139,5 149,2 160,1 171,2 181,5 190,10 199,17 206,25 211,35 215,45 217,57 228,53 239,51 250,50 261,52 271,56 280,61 288,68 295,77 299,87 301,97 301,107 300,118 296,128 290,137 283,146 274,154"/>
<polygon class="pen1 brush0" points="160,116 152,117 144,119 137,123 130,128 125,134 121,141 119,149 118,157 119,165 121,173 125,180 130,187 137,192 144,196 152,198 160,199 168,198 176,196 183,192 189,187 194,180 198,173 200,165 201,157 200,149 198,141 194,134 189,128 183,123 176,119 168,117 160,116"/>
<polygon class="pen1 brush2" points="103,277 99,287 89,314 76,355 65,404 58,459 60,515 75,569 105,615 124,615 115,605 104,587 92,562 81,527 75,482 75,426 84,358 103,277"/>
<polygon class="pen1 brush2" points="106,591 106,588 105,580 104,567 105,551 106,531 108,510 113,486 120,462 130,438 143,414 160,391 181,371 207,354 238,340 275,330 318,326 318,329 319,337 320,350 320,367 319,386 317,408 312,432 305,456 296,481 283,505 266,527 244,547 218,564 187,578 149,587 106,591"/>
</g>
</svg>
