<?xml version="1.0" encoding="UTF-8" standalone="no"?>
<!DOCTYPE svg PUBLIC "-//W3C//DTD SVG 1.0//EN" "http://www.w3.org/TR/2001/REC-SVG-20010904/DTD/svg10.dtd">
<svg xmlns="http://www.w3.org/2000/svg" xmlns:xlink="http://www.w3.org/1999/xlink" fill-rule="evenodd" height="1.763in" preserveAspectRatio="none" stroke-linecap="round" viewBox="0 0 1979 1763" width="1.979in">
<style type="text/css">
.brush0 { fill: rgb(255,255,255); }
.pen0 { stroke: rgb(0,0,0); stroke-width: 1; stroke-linejoin: round; }
.brush1 { fill: none; }
.pen1 { stroke: none; }
.brush2 { fill: rgb(0,0,0); }
</style>
<g>
<polygon class="pen1 brush2" points="1060,1223 1060,1235 1059,1248 1057,1263 1055,1280 1053,1297 1049,1316 1044,1336 1039,1357 1032,1378 1024,1400 1015,1423 1004,1445 991,1468 977,1491 961,1514 943,1537 923,1559 901,1581 877,1602 850,1623 821,1643 789,1661 755,1679 717,1695 677,1710 634,1723 588,1735 539,1745 486,1752 430,1758 370,1762 307,1763 309,1763 315,1762 325,1760 338,1757 354,1753 373,1749 395,1744 419,1737 445,1730 472,1722 501,1713 531,1702 562,1691 593,1678 625,1665 657,1650 688,1634 719,1616 749,1598 777,1578 805,1556 830,1534 854,1510 875,1484 893,1457 909,1429 922,1399 931,1367 936,1334 938,1299 935,1263 927,1225 915,1223 903,1220 891,1217 878,1213 866,1209 853,1204 841,1199 828,1193 815,1186 802,1179 790,1171 777,1163 764,1154 751,1144 738,1134 725,1123 728,1120 735,1111 748,1099 766,1083 788,1066 814,1048 844,1031 878,1016 915,1005 955,998 999,997 1046,1003 1095,1017 1146,1041 1200,1076 1255,1123 1254,1124 1251,1126 1247,1130 1241,1135 1233,1141 1224,1148 1213,1155 1201,1163 1187,1172 1172,1180 1156,1188 1139,1196 1121,1204 1101,1211 1081,1218 1060,1223 1060,1223"/>
<polygon class="pen1 brush2" points="601,572 574,550 545,530 515,513 484,498 451,486 417,477 382,471 345,470 307,472 267,479 226,490 184,506 140,528 95,555 48,587 0,626 0,627 2,630 4,635 8,641 12,649 18,659 25,670 33,682 43,695 53,710 65,726 79,742 94,759 110,777 128,796 148,815 169,834 191,854 216,873 242,893 270,913 300,933 332,952 365,972 401,990 439,1008 478,1026 520,1043 564,1058 610,1073 658,1087 709,1100 716,1093 725,1084 737,1073 751,1061 767,1049 786,1036 806,1023 829,1011 822,1001 812,987 801,970 788,951 774,929 759,905 743,878 727,850 710,820 693,788 676,754 659,720 643,684 628,647 614,610 601,572 601,572"/>
<polygon class="pen1 brush2" points="1141,1017 1159,1026 1177,1035 1193,1045 1210,1056 1225,1067 1240,1080 1255,1092 1269,1106 1320,1093 1368,1079 1415,1064 1459,1049 1500,1032 1540,1014 1578,996 1614,978 1647,958 1679,939 1709,919 1737,899 1763,879 1788,860 1811,840 1832,821 1851,802 1869,783 1886,765 1900,748 1914,732 1926,716 1937,701 1946,688 1954,676 1961,665 1967,655 1971,647 1975,641 1977,636 1979,633 1979,632 1936,597 1895,567 1855,542 1815,521 1777,504 1740,491 1704,482 1670,477 1636,474 1603,476 1571,480 1541,486 1511,496 1483,508 1455,522 1429,538 1421,563 1412,588 1402,614 1391,640 1378,668 1364,696 1348,724 1332,754 1313,784 1293,815 1272,847 1249,879 1224,913 1198,947 1171,981 1141,1017 1141,1017"/>
<polygon class="pen1 brush2" points="1337,110 1342,110 1357,111 1380,113 1410,116 1445,122 1484,130 1526,142 1569,158 1612,178 1654,204 1693,235 1727,272 1756,316 1778,367 1792,426 1796,494 1776,481 1754,470 1732,461 1709,454 1685,449 1661,445 1636,443 1612,443 1588,444 1564,447 1541,451 1519,457 1498,464 1478,473 1460,483 1444,494 1456,444 1460,392 1457,339 1447,286 1429,236 1405,189 1374,146 1337,110 1337,110"/>
<polygon class="pen1 brush2" points="850,1011 863,1005 877,999 891,994 906,990 921,986 937,983 954,981 970,980 988,980 1005,980 1023,982 1042,985 1061,990 1080,995 1100,1002 1120,1011 1179,939 1231,869 1276,804 1315,741 1348,681 1374,624 1396,571 1411,520 1422,472 1429,427 1431,384 1429,345 1423,308 1414,273 1401,241 1386,211 1369,184 1349,159 1327,136 1304,115 1279,96 1254,80 1227,65 1201,53 1174,42 1147,33 1121,26 1096,20 1072,17 1050,14 1029,13 1010,14 939,22 876,34 820,49 771,69 729,92 692,118 662,147 638,179 619,213 604,249 594,287 589,327 587,367 589,409 595,451 603,494 613,537 626,580 641,622 657,664 675,705 693,744 712,782 731,818 750,852 769,884 786,913 803,940 818,963 831,983 842,999 850,1011 850,1011"/>
<polygon class="pen1 brush2" points="573,494 553,485 532,477 510,469 488,463 465,457 442,453 419,449 395,447 372,446 348,446 325,448 302,452 280,456 259,463 238,471 218,481 222,414 235,355 257,305 285,263 318,227 356,198 396,175 438,156 480,143 521,133 559,126 593,122 622,120 645,119 659,119 664,119 624,153 596,194 577,240 566,290 562,342 563,394 567,445 573,494"/>
<polygon class="pen1 brush0" points="478,426 490,413 385,298 387,293 389,288 390,283 390,278 389,272 386,266 382,262 378,258 373,255 367,253 362,252 356,252 344,256 335,264 330,274 329,286 330,292 332,297 336,302 340,306 345,309 351,311 357,312 363,312 366,312 368,312 371,311 373,309 478,426 478,426"/>
<polygon class="pen1 brush0" points="519,396 442,259 439,259 437,259 434,259 432,259 420,256 412,249 406,239 404,227 406,221 408,215 412,210 416,206 421,203 426,201 432,200 438,200 444,201 450,203 455,206 459,210 462,214 464,220 465,226 465,232 464,237 463,242 461,247 458,251 535,386 519,396"/>
<polygon class="pen1 brush0" points="1546,426 1533,413 1638,298 1636,293 1634,288 1634,283 1634,278 1635,272 1637,267 1641,262 1645,258 1650,255 1656,253 1662,252 1668,252 1680,256 1688,264 1694,274 1695,286 1693,292 1691,298 1687,303 1683,307 1678,310 1673,312 1667,312 1661,312 1658,312 1656,312 1653,312 1651,311 1546,426 1546,426"/>
<polygon class="pen1 brush0" points="1503,396 1581,259 1583,260 1586,260 1588,260 1590,259 1596,258 1602,256 1607,253 1611,249 1615,244 1617,239 1618,233 1618,227 1617,221 1615,216 1611,211 1607,206 1602,203 1596,201 1590,200 1584,200 1573,203 1565,210 1559,220 1557,232 1558,238 1559,243 1562,247 1566,251 1489,386 1503,396"/>
</g>
</svg>
