<?xml version="1.0" encoding="UTF-8" standalone="no"?>
<!DOCTYPE svg PUBLIC "-//W3C//DTD SVG 1.0//EN" "http://www.w3.org/TR/2001/REC-SVG-20010904/DTD/svg10.dtd">
<svg xmlns="http://www.w3.org/2000/svg" xmlns:xlink="http://www.w3.org/1999/xlink" fill-rule="evenodd" height="1.981in" preserveAspectRatio="none" stroke-linecap="round" viewBox="0 0 1427 1981" width="1.427in">
<style type="text/css">
.brush0 { fill: rgb(255,255,255); }
.pen0 { stroke: rgb(0,0,0); stroke-width: 1; stroke-linejoin: round; }
.brush1 { fill: none; }
.pen1 { stroke: none; }
.brush2 { fill: rgb(0,0,0); }
</style>
<g>
<polygon class="pen1 brush2" points="221,1030 194,1048 221,1074 245,1094 266,1109 282,1119 295,1125 305,1129 310,1131 312,1131 298,1152 325,1185 354,1211 384,1232 415,1247 447,1258 478,1265 508,1269 538,1269 565,1268 591,1265 614,1261 634,1256 650,1251 663,1247 670,1244 673,1243 671,1247 666,1260 659,1280 651,1308 642,1342 634,1382 626,1427 621,1477 618,1532 619,1590 625,1651 636,1714 653,1780 677,1846 709,1914 750,1981 762,1909 760,1905 753,1895 744,1879 732,1856 718,1828 704,1794 690,1756 677,1712 665,1665 657,1614 652,1560 651,1502 656,1442 667,1380 685,1315 711,1249 714,1250 723,1253 737,1257 756,1261 779,1265 806,1269 835,1272 867,1272 900,1271 934,1267 969,1260 1003,1248 1037,1232 1069,1211 1099,1185 1127,1152 1115,1131 1117,1131 1122,1129 1131,1125 1144,1119 1160,1109 1180,1094 1204,1074 1231,1048 1206,1030 1219,1020 1232,1009 1245,997 1258,985 1270,972 1282,959 1294,945 1306,931 1317,917 1328,902 1338,887 1348,872 1357,857 1365,841 1372,826 1379,811 1352,797 1354,795 1359,789 1368,780 1378,769 1390,754 1402,738 1415,719 1427,699 1425,699 1421,699 1414,699 1405,698 1394,698 1382,698 1368,697 1353,697 1338,697 1322,697 1307,698 1292,698 1277,699 1264,700 1251,701 1241,703 1244,672 1243,672 1239,672 1233,673 1226,674 1216,675 1206,677 1194,679 1181,682 1168,685 1154,689 1141,694 1127,699 1114,706 1101,712 1090,720 1079,729 1075,703 1072,705 1065,710 1053,718 1039,729 1022,741 1004,754 985,767 967,780 950,787 934,785 921,774 912,758 907,737 908,716 916,695 931,676 950,659 966,641 979,622 990,603 999,584 1005,566 1009,549 1010,533 971,547 973,545 977,539 983,528 990,514 994,495 997,471 995,444 988,412 963,429 963,425 964,415 964,399 962,379 958,355 951,329 939,301 923,273 902,303 901,298 899,285 895,265 889,240 880,213 869,186 854,160 836,138 819,159 813,141 803,118 791,92 776,65 760,40 743,19 727,5 711,0 684,23 662,48 644,74 630,100 620,123 613,142 609,154 608,159 589,138 572,160 557,186 546,213 538,240 532,265 528,285 526,298 525,303 502,273 485,301 474,329 467,355 464,379 462,399 463,415 464,425 464,429 437,412 430,444 429,471 432,495 437,514 443,528 449,539 454,545 456,547 417,533 418,549 422,566 428,584 436,603 447,622 460,641 476,659 494,676 509,695 517,716 519,737 515,758 506,774 493,785 477,787 460,780 441,767 422,754 404,741 387,729 372,718 360,710 353,705 350,703 346,729 336,720 324,712 312,706 299,699 285,694 271,689 258,685 244,682 232,679 220,677 209,675 200,674 192,673 186,672 182,672 181,672 187,703 176,701 163,700 150,699 135,698 120,698 104,697 89,697 73,697 59,697 45,698 32,698 22,698 13,699 6,699 2,699 0,699 11,719 24,738 36,754 47,769 58,780 66,789 71,795 73,797 46,811 53,826 60,841 68,857 77,872 87,887 97,902 108,916 119,931 131,945 143,958 156,972 168,984 181,997 194,1008 208,1020 221,1030"/>
<polygon class="pen1 brush0" points="157,912 154,919 174,925 194,929 213,931 233,932 252,932 272,930 292,927 312,923 477,1053 466,1056 454,1059 443,1061 432,1063 420,1065 409,1067 398,1069 386,1070 375,1071 364,1072 352,1073 341,1073 329,1074 318,1074 306,1074 295,1074 295,1082 307,1082 318,1082 330,1082 342,1081 354,1081 367,1080 379,1080 391,1079 403,1077 415,1076 427,1074 439,1071 451,1069 462,1066 473,1062 484,1058 670,1203 676,1196 490,1047 487,1024 484,1001 481,976 476,952 472,926 467,901 462,874 456,848 447,849 453,875 458,900 463,925 467,949 471,973 474,997 477,1021 480,1044 316,916 315,875 312,832 305,790 295,749 286,753 297,791 303,831 305,871 306,909 116,760 110,767 302,916 279,920 258,922 238,923 220,922 203,920 187,918 172,915 157,912 157,912"/>
<polygon class="pen1 brush0" points="1100,922 1116,927 1135,930 1156,931 1178,931 1200,930 1220,927 1239,923 1254,919 1251,911 1233,916 1216,919 1198,921 1180,921 1163,921 1145,919 1127,917 1109,915 1298,767 1292,760 1103,909 1105,869 1107,829 1113,790 1123,753 1113,749 1104,788 1098,831 1096,875 1095,916 930,1041 933,1018 936,994 939,970 943,945 947,921 952,897 956,873 961,849 953,848 946,873 941,899 936,924 932,949 929,975 926,1000 923,1025 920,1050 734,1196 740,1203 927,1057 935,1061 944,1065 955,1069 966,1071 979,1074 991,1076 1005,1078 1019,1079 1032,1080 1046,1081 1059,1081 1072,1082 1083,1082 1095,1082 1104,1082 1113,1082 1113,1074 1102,1073 1091,1073 1080,1072 1069,1072 1057,1071 1046,1071 1035,1070 1023,1069 1012,1068 1000,1066 989,1065 978,1063 967,1060 956,1058 945,1055 934,1051 1100,922 1100,922"/>
<polygon class="pen1 brush0" points="707,1209 707,784 684,769 662,747 641,721 621,691 604,660 588,628 575,598 565,570 572,567 583,593 596,621 610,651 626,681 644,709 663,735 684,757 707,774 707,493 689,477 671,454 653,427 636,398 620,367 605,338 592,311 582,288 589,284 603,310 617,335 630,361 643,386 656,411 671,435 688,459 707,482 707,116 714,116 714,483 728,468 744,446 762,418 780,386 797,354 813,324 826,297 836,277 845,281 830,308 816,336 801,364 787,392 771,420 754,446 735,470 714,493 714,774 736,757 758,735 777,708 796,679 813,648 828,617 841,587 853,561 863,565 850,592 835,623 820,655 802,686 783,717 762,744 739,767 714,784 714,1209 707,1209"/>
</g>
</svg>
