<?xml version="1.0" encoding="UTF-8" standalone="no"?>
<!DOCTYPE svg PUBLIC "-//W3C//DTD SVG 1.0//EN" "http://www.w3.org/TR/2001/REC-SVG-20010904/DTD/svg10.dtd">
<svg xmlns="http://www.w3.org/2000/svg" xmlns:xlink="http://www.w3.org/1999/xlink" fill-rule="evenodd" height="1.976in" preserveAspectRatio="none" stroke-linecap="round" viewBox="0 0 902 1976" width="0.902in">
<style type="text/css">
.brush0 { fill: rgb(255,255,255); }
.pen0 { stroke: rgb(0,0,0); stroke-width: 1; stroke-linejoin: round; }
.brush1 { fill: none; }
.pen1 { stroke: none; }
.brush2 { fill: rgb(0,0,0); }
</style>
<g>
<polygon class="pen1 brush2" points="0,263 2,262 7,259 15,256 25,252 36,249 49,248 63,249 77,253 75,250 69,243 61,232 52,219 42,205 33,191 26,177 23,166 25,167 30,170 39,175 49,181 61,187 73,194 86,200 98,206 95,196 87,172 78,140 71,108 73,109 78,113 85,119 94,127 105,136 116,146 127,156 138,166 135,154 128,126 122,92 121,62 123,64 128,70 136,79 146,90 157,103 168,116 179,128 188,139 185,127 178,100 172,66 173,37 175,40 180,47 187,58 195,71 205,86 215,102 224,116 232,129 231,116 231,85 232,47 236,14 237,18 239,28 243,42 248,60 253,79 260,98 268,115 277,129 277,125 276,113 276,96 277,76 279,54 284,33 292,14 303,0 307,13 316,44 323,85 324,125 325,120 327,108 330,91 335,70 341,49 349,30 358,15 369,6 372,17 380,46 386,85 388,129 389,126 391,117 394,103 399,87 405,69 414,51 424,33 436,18 438,27 443,51 445,88 441,134 443,132 448,125 457,116 467,105 479,92 491,80 504,68 516,58 516,60 514,65 512,73 508,84 503,98 497,115 489,134 480,156 482,154 489,148 499,140 512,131 526,122 542,113 558,106 573,102 572,104 568,110 562,119 555,131 546,144 536,157 526,170 516,182 518,181 524,177 532,173 544,167 557,161 572,157 588,153 604,152 602,154 596,159 588,167 578,176 567,186 556,196 547,205 539,213 542,212 550,210 563,207 578,203 595,201 612,199 629,198 644,200 641,202 634,208 622,216 608,226 593,236 577,246 561,254 547,259 550,258 557,257 568,256 581,254 596,253 612,254 626,255 639,259 632,266 623,272 614,278 605,284 595,289 585,293 574,296 564,297 567,297 574,297 584,298 597,300 610,305 623,311 635,321 644,334 641,335 633,337 622,339 608,342 593,346 579,348 566,350 556,351 558,352 565,356 574,361 585,369 596,378 607,389 616,400 621,413 618,413 610,413 597,412 583,411 568,409 553,405 540,401 530,395 532,397 537,403 545,411 554,422 563,435 571,448 578,462 581,476 578,475 570,472 558,467 544,461 529,454 515,448 502,441 493,436 495,438 499,443 506,452 513,462 520,475 527,488 531,502 533,516 531,514 524,510 514,504 502,496 488,487 475,478 463,470 453,463 457,472 464,494 471,522 472,551 470,549 464,544 455,535 444,525 433,513 423,501 415,488 409,476 412,488 417,515 419,549 414,578 412,575 408,567 401,556 393,542 384,527 376,513 369,500 364,490 365,503 365,532 363,565 357,587 355,585 351,579 346,569 339,558 332,545 327,530 323,516 321,503 320,506 319,514 316,526 312,540 307,555 302,568 296,580 290,587 288,585 284,578 278,569 271,557 265,543 260,529 258,516 259,503 258,506 255,514 250,525 244,538 237,552 228,565 219,575 209,582 205,573 198,551 196,523 205,493 203,495 196,501 187,509 175,519 162,529 149,539 136,546 125,551 126,549 127,542 130,533 134,521 138,509 144,497 150,485 156,476 154,477 149,479 141,483 130,488 117,493 102,498 85,503 67,507 67,505 68,501 71,494 75,484 81,473 90,461 102,447 117,432 115,432 110,433 102,433 91,434 77,435 62,435 45,436 27,436 28,434 31,430 35,424 42,416 51,406 62,397 75,387 90,378 87,377 80,374 69,369 55,363 40,356 25,350 12,343 0,338 2,337 7,334 15,329 25,324 37,319 51,314 66,309 81,307 71,303 60,299 49,294 38,289 27,283 17,277 8,270 0,263 0,263"/>
<polygon class="pen1 brush2" points="273,767 266,803 259,847 252,900 246,959 241,1026 239,1098 239,1175 244,1256 253,1341 267,1429 286,1519 313,1610 346,1701 387,1793 437,1883 496,1971 487,1865 484,1862 475,1853 461,1837 444,1814 424,1784 402,1744 380,1696 357,1638 336,1570 317,1491 301,1401 289,1298 282,1184 281,1056 287,915 301,759 344,831 321,733 421,818 333,709 348,688 354,666 354,644 350,623 343,605 336,591 330,581 328,578 326,583 321,591 315,599 308,608 301,616 296,623 292,627 290,629 282,621 274,612 268,604 262,596 258,589 255,583 253,579 252,578 250,581 244,591 237,605 230,622 225,643 225,665 232,687 246,709 158,817 259,730 235,831 273,767 273,767"/>
<polygon class="pen1 brush2" points="678,1466 680,1467 686,1471 695,1478 706,1489 718,1505 731,1526 743,1554 754,1588 754,1575 754,1541 754,1492 751,1432 746,1369 736,1307 722,1254 703,1213 709,1217 724,1228 746,1245 771,1265 796,1288 818,1312 834,1336 840,1357 841,1343 841,1304 841,1248 839,1181 834,1110 825,1041 811,981 790,936 794,939 806,949 822,963 841,982 860,1002 877,1024 890,1046 896,1067 899,1014 898,933 892,835 878,732 874,709 869,686 863,664 857,643 850,623 842,603 833,585 824,568 796,587 769,611 743,639 719,670 695,704 673,740 653,777 634,813 617,848 602,882 589,912 577,939 569,962 562,979 558,990 557,994 571,978 592,964 617,951 643,940 668,931 689,925 704,920 709,919 690,933 672,951 653,974 634,1000 615,1029 598,1060 580,1092 564,1123 549,1154 536,1184 523,1211 513,1235 505,1255 498,1271 494,1281 493,1284 498,1275 507,1266 517,1258 530,1251 544,1244 559,1238 575,1232 591,1227 607,1222 622,1218 635,1215 648,1212 658,1210 666,1208 671,1207 673,1207 656,1219 639,1236 622,1256 605,1279 588,1305 571,1332 556,1359 541,1387 527,1414 514,1440 503,1463 493,1484 486,1502 480,1515 476,1524 475,1527 499,1501 520,1481 539,1467 556,1457 569,1451 579,1448 586,1447 588,1447 546,1488 520,1556 508,1642 505,1735 508,1825 514,1902 520,1956 523,1976 535,1971 550,1957 566,1936 583,1908 600,1874 618,1836 635,1795 651,1752 665,1707 677,1663 687,1621 693,1580 696,1544 695,1511 689,1485 678,1466"/>
<polygon class="pen1 brush0" points="277,230 278,227 282,219 287,209 294,200 301,196 309,199 317,211 324,237 326,234 333,226 342,216 352,209 362,205 370,210 374,224 374,253 378,253 387,252 398,253 409,255 416,259 417,267 409,280 388,297 391,300 397,307 404,316 409,327 410,337 405,345 390,349 364,348 363,352 361,360 358,371 352,381 345,388 335,387 322,376 307,352 305,356 299,364 291,375 281,384 270,389 261,386 252,373 247,345 243,346 234,348 221,350 210,350 201,346 198,339 205,325 223,304 220,300 212,291 203,279 196,267 192,256 196,249 210,248 237,257 236,253 233,244 231,232 230,221 233,212 240,208 255,214 277,230"/>
<polygon class="pen1 brush2" points="280,240 281,237 284,230 288,222 294,214 301,210 307,212 314,223 321,244 323,241 329,235 336,227 345,220 353,218 360,222 364,235 364,260 367,260 375,259 384,260 394,261 400,265 400,272 393,282 375,297 377,299 383,305 389,313 394,322 396,331 391,337 379,341 357,341 356,344 355,352 351,361 346,370 339,375 330,374 319,365 306,345 304,348 299,355 292,364 284,372 275,376 267,373 260,362 256,338 253,339 244,340 234,342 224,342 216,339 214,333 220,321 236,304 233,301 227,293 219,283 213,273 210,264 213,258 225,258 249,266 248,263 245,254 243,244 242,233 243,225 249,222 261,226 280,240"/>
<polygon class="pen1 brush0" points="304,315 311,314 316,310 320,304 321,297 320,291 316,285 311,281 304,280 297,281 292,285 288,291 287,297 288,304 292,310 297,314 304,315"/>
</g>
</svg>
