<?xml version="1.0" encoding="UTF-8" standalone="no"?>
<!DOCTYPE svg PUBLIC "-//W3C//DTD SVG 1.0//EN" "http://www.w3.org/TR/2001/REC-SVG-20010904/DTD/svg10.dtd">
<svg xmlns="http://www.w3.org/2000/svg" xmlns:xlink="http://www.w3.org/1999/xlink" fill-rule="evenodd" height="0.878in" preserveAspectRatio="none" stroke-linecap="round" viewBox="0 0 1979 878" width="1.979in">
<style type="text/css">
.brush0 { fill: rgb(255,255,255); }
.pen0 { stroke: rgb(0,0,0); stroke-width: 1; stroke-linejoin: round; }
.brush1 { fill: none; }
.pen1 { stroke: none; }
.brush2 { fill: rgb(0,0,0); }
</style>
<g>
<polygon class="pen1 brush2" points="0,554 2,553 6,552 13,549 22,546 34,542 47,538 61,533 77,527 94,522 111,516 129,510 147,504 165,498 183,492 199,487 215,482 216,481 219,478 225,474 233,469 243,462 256,455 270,447 287,438 307,429 328,421 352,412 379,404 407,396 439,389 472,383 508,378 506,379 500,380 491,383 480,386 465,390 449,395 432,400 414,406 395,413 376,420 357,427 340,435 323,442 309,450 297,457 287,465 291,464 304,462 324,459 350,455 382,451 418,447 458,442 501,438 546,434 592,431 638,429 684,428 727,429 769,431 806,435 840,442 846,439 860,434 881,427 909,420 942,412 980,403 1020,393 1062,384 1105,375 1147,366 1189,358 1228,351 1263,345 1294,340 1319,337 1337,336 1340,334 1349,328 1363,321 1381,312 1404,304 1429,298 1458,294 1488,294 1484,295 1475,298 1461,302 1444,308 1426,315 1409,324 1393,333 1381,344 1383,344 1390,343 1401,343 1417,344 1436,346 1459,349 1486,356 1517,365 1512,365 1499,365 1479,366 1451,367 1418,368 1379,370 1336,374 1289,378 1240,384 1189,390 1137,399 1085,409 1034,421 984,435 936,451 892,469 894,469 898,471 905,472 913,475 924,478 936,481 950,485 964,489 978,494 993,499 1008,504 1022,509 1035,514 1047,519 1058,524 1067,529 1065,529 1061,528 1053,527 1044,525 1032,524 1019,522 1005,519 989,517 974,515 958,512 942,510 927,507 913,505 900,503 889,501 880,499 879,504 877,518 872,537 867,559 866,555 861,543 854,528 842,510 827,492 806,477 781,467 750,465 738,465 725,466 711,466 696,466 680,466 663,466 646,466 627,466 608,466 588,467 567,467 546,468 524,469 501,470 478,471 454,473 429,475 404,478 379,481 353,485 326,489 300,493 272,499 245,505 217,511 189,519 161,527 132,536 104,545 75,556 46,568 17,580 0,554 0,554"/>
<polygon class="pen1 brush2" points="580,574 583,576 591,580 601,585 614,590 627,595 638,596 647,594 651,586 649,578 642,573 630,571 617,570 604,571 592,572 583,573 580,574 580,574"/>
<polygon class="pen1 brush2" points="607,614 610,613 619,612 630,610 644,609 657,610 668,612 676,617 678,625 674,632 665,634 654,633 641,629 628,624 618,619 610,616 607,614 607,614"/>
<polygon class="pen1 brush2" points="650,684 653,683 662,682 674,680 687,679 700,680 712,682 719,687 721,695 717,702 708,705 696,703 684,700 671,695 660,690 653,686 650,684 650,684"/>
<polygon class="pen1 brush2" points="668,719 671,721 679,725 689,730 702,736 715,740 726,741 735,739 739,732 738,724 730,719 719,716 706,715 692,716 680,717 671,718 668,719 668,719"/>
<polygon class="pen1 brush2" points="686,756 689,756 698,755 710,754 724,754 737,756 749,759 756,764 758,772 753,779 744,781 733,779 720,774 707,768 696,762 689,758 686,756 686,756"/>
<polygon class="pen1 brush2" points="702,796 705,798 712,802 723,808 735,815 747,819 759,822 768,820 773,813 772,805 764,799 753,796 740,795 726,795 714,795 705,796 702,796 702,796"/>
<polygon class="pen1 brush2" points="553,540 556,541 564,545 576,549 589,553 602,556 613,556 622,553 625,546 622,538 615,534 603,532 590,533 576,535 565,537 556,539 553,540 553,540"/>
<polygon class="pen1 brush2" points="530,505 533,506 541,509 553,512 566,516 579,518 591,517 599,514 603,506 600,498 592,494 580,494 567,495 553,498 542,501 533,504 530,505 530,505"/>
<polygon class="pen1 brush2" points="628,648 631,650 639,654 649,659 662,664 675,667 686,669 695,666 699,659 697,651 690,646 679,644 665,643 652,644 640,646 631,647 628,648 628,648"/>
<polygon class="pen1 brush2" points="515,495 509,495 510,498 515,504 523,515 534,529 546,547 561,566 576,588 593,612 609,637 625,662 641,688 655,714 668,739 678,763 686,786 691,807 696,807 691,786 683,763 673,739 660,714 646,688 631,662 615,637 598,612 582,588 567,566 553,547 540,529 530,515 522,504 517,498 515,495 515,495"/>
<polygon class="pen1 brush2" points="684,803 685,815 685,840 679,863 665,871 659,866 657,857 660,846 665,834 671,823 678,813 682,806 684,803 684,803"/>
<polygon class="pen1 brush2" points="668,763 669,775 668,800 662,824 648,831 641,826 640,817 642,806 648,794 655,782 661,772 666,766 668,763 668,763"/>
<polygon class="pen1 brush2" points="651,723 651,735 649,761 642,785 627,792 621,786 620,777 623,766 629,754 637,742 644,733 649,726 651,723 651,723"/>
<polygon class="pen1 brush2" points="634,691 634,703 631,728 623,751 608,757 602,752 602,743 605,733 612,721 619,710 626,700 632,694 634,691 634,691"/>
<polygon class="pen1 brush2" points="613,651 611,653 605,660 598,670 590,681 584,693 580,704 581,713 587,719 602,712 610,688 613,663 613,651 613,651"/>
<polygon class="pen1 brush2" points="590,621 590,633 587,658 579,682 563,688 557,682 557,673 561,662 568,651 575,640 582,630 588,623 590,621 590,621"/>
<polygon class="pen1 brush2" points="569,583 569,595 566,619 558,643 543,650 537,644 536,635 540,624 546,613 554,602 561,592 567,585 569,583 569,583"/>
<polygon class="pen1 brush2" points="543,552 541,554 534,560 526,569 518,579 510,590 505,601 505,609 510,615 519,616 526,611 532,601 536,588 539,575 542,564 543,555 543,552 543,552"/>
<polygon class="pen1 brush2" points="513,519 511,521 505,527 497,536 489,546 481,557 477,568 476,577 482,584 490,585 497,579 502,569 507,556 510,543 512,531 513,522 513,519 513,519"/>
<polygon class="pen1 brush2" points="1587,317 1588,316 1591,312 1596,306 1601,299 1608,291 1615,284 1623,278 1630,273 1624,268 1618,262 1612,256 1607,250 1602,244 1599,240 1597,237 1596,236 1599,237 1607,239 1619,243 1632,247 1643,253 1653,260 1657,268 1655,276 1654,278 1652,279 1650,280 1648,280 1646,287 1640,294 1630,300 1619,306 1607,311 1597,314 1590,316 1587,317 1587,317"/>
<polygon class="pen1 brush2" points="1631,212 1633,215 1639,221 1647,230 1656,240 1667,248 1677,254 1685,255 1692,250 1693,241 1688,234 1679,227 1667,222 1654,218 1643,215 1634,213 1631,212 1631,212"/>
<polygon class="pen1 brush2" points="1665,189 1667,191 1673,198 1682,206 1692,214 1703,222 1714,227 1723,227 1729,221 1730,212 1724,205 1714,200 1702,196 1689,193 1677,190 1668,189 1665,189 1665,189"/>
<polygon class="pen1 brush2" points="1705,171 1708,171 1717,173 1729,175 1742,178 1754,183 1764,189 1770,196 1769,205 1763,210 1754,210 1743,205 1732,197 1722,188 1713,180 1707,173 1705,171 1705,171"/>
<polygon class="pen1 brush2" points="1738,151 1741,151 1750,153 1761,155 1775,159 1787,164 1797,170 1803,177 1803,185 1796,190 1787,190 1777,185 1766,177 1755,168 1746,160 1740,153 1738,151 1738,151"/>
<polygon class="pen1 brush2" points="1779,135 1781,137 1787,144 1796,152 1807,160 1818,168 1828,173 1837,173 1844,168 1845,159 1839,152 1829,146 1816,142 1803,139 1791,136 1782,135 1779,135 1779,135"/>
<polygon class="pen1 brush2" points="1814,121 1816,123 1822,129 1831,137 1842,146 1853,153 1864,157 1873,157 1880,151 1880,143 1874,136 1864,131 1851,127 1838,124 1826,122 1817,121 1814,121 1814,121"/>
<polygon class="pen1 brush2" points="1854,107 1857,107 1866,108 1878,109 1891,112 1904,115 1915,120 1921,127 1921,135 1915,141 1906,142 1895,138 1884,131 1873,123 1863,115 1856,109 1854,107 1854,107"/>
<polygon class="pen1 brush2" points="1895,97 1898,99 1904,105 1914,112 1926,119 1938,125 1949,129 1957,128 1963,121 1963,113 1956,107 1945,103 1932,100 1919,98 1907,97 1898,97 1895,97 1895,97"/>
<polygon class="pen1 brush2" points="1500,277 1500,283 1503,281 1513,275 1528,266 1548,253 1571,239 1599,223 1629,206 1660,188 1693,170 1727,153 1761,137 1793,122 1824,109 1853,99 1879,93 1901,90 1901,84 1879,87 1853,93 1824,103 1793,115 1761,130 1727,146 1693,164 1660,182 1629,199 1599,217 1571,233 1548,247 1528,259 1513,269 1503,275 1500,277 1500,277"/>
<polygon class="pen1 brush2" points="1738,137 1737,125 1737,99 1742,75 1756,67 1763,72 1764,80 1762,92 1757,104 1751,116 1744,127 1740,134 1738,137 1738,137"/>
<polygon class="pen1 brush2" points="1583,219 1581,207 1578,182 1580,157 1593,148 1600,152 1603,160 1602,172 1598,185 1593,197 1588,208 1585,216 1583,219 1583,219"/>
<polygon class="pen1 brush2" points="1621,199 1619,187 1617,162 1621,137 1634,128 1641,133 1643,142 1642,153 1638,166 1632,178 1627,189 1623,196 1621,199 1621,199"/>
<polygon class="pen1 brush2" points="1891,77 1891,65 1894,40 1902,16 1917,9 1923,15 1923,24 1920,35 1913,47 1906,58 1899,68 1893,74 1891,77 1891,77"/>
<polygon class="pen1 brush2" points="1850,88 1850,76 1852,51 1858,27 1873,20 1879,26 1880,34 1877,45 1871,57 1864,69 1857,79 1852,85 1850,88 1850,88"/>
<polygon class="pen1 brush2" points="1810,104 1809,92 1810,66 1816,41 1831,33 1838,39 1839,48 1836,59 1830,72 1824,84 1817,94 1812,101 1810,104 1810,104"/>
<polygon class="pen1 brush2" points="1773,118 1772,106 1773,81 1778,57 1793,49 1800,54 1801,63 1799,74 1793,86 1786,98 1780,108 1775,115 1773,118 1773,118"/>
<polygon class="pen1 brush2" points="1701,155 1703,152 1708,145 1714,134 1720,122 1725,110 1728,99 1726,90 1719,86 1705,93 1700,117 1700,143 1701,155 1701,155"/>
<polygon class="pen1 brush2" points="1658,177 1657,165 1657,139 1663,115 1677,107 1683,112 1685,121 1682,132 1677,145 1671,157 1664,167 1660,174 1658,177 1658,177"/>
<polygon class="pen1 brush2" points="1671,344 1674,344 1683,342 1694,340 1707,336 1719,331 1729,325 1734,318 1733,310 1727,305 1718,305 1708,310 1698,318 1687,327 1679,335 1673,342 1671,344 1671,344"/>
<polygon class="pen1 brush2" points="1715,360 1717,357 1723,351 1732,342 1742,333 1753,325 1764,319 1773,319 1779,324 1780,332 1775,340 1765,346 1752,351 1739,355 1727,358 1718,359 1715,360 1715,360"/>
<polygon class="pen1 brush2" points="1793,388 1796,388 1805,386 1816,384 1829,380 1841,375 1851,369 1857,362 1856,354 1850,349 1841,349 1830,354 1820,362 1810,371 1801,379 1795,386 1793,388 1793,388"/>
<polygon class="pen1 brush2" points="1830,405 1832,403 1838,396 1847,388 1857,379 1868,371 1879,366 1888,366 1894,371 1894,379 1889,386 1879,392 1866,397 1853,401 1842,403 1833,405 1830,405 1830,405"/>
<polygon class="pen1 brush2" points="1867,422 1869,420 1876,414 1885,406 1895,398 1906,391 1917,386 1925,386 1931,392 1932,401 1926,408 1916,413 1904,417 1891,419 1879,421 1870,422 1867,422 1867,422"/>
<polygon class="pen1 brush2" points="1902,445 1905,445 1914,444 1926,443 1939,440 1952,437 1963,432 1969,425 1969,417 1963,411 1954,410 1943,414 1931,421 1920,429 1911,437 1904,443 1902,445 1902,445"/>
<polygon class="pen1 brush2" points="1628,333 1631,332 1640,330 1651,326 1664,322 1676,316 1686,309 1690,301 1688,293 1681,288 1673,289 1663,295 1653,304 1643,314 1635,323 1630,330 1628,333 1628,333"/>
<polygon class="pen1 brush2" points="1755,374 1758,374 1767,372 1778,370 1791,366 1803,361 1813,355 1818,348 1817,340 1811,334 1802,334 1792,339 1781,347 1771,356 1763,365 1757,371 1755,374 1755,374"/>
<polygon class="pen1 brush2" points="1665,357 1665,369 1666,394 1672,418 1686,425 1693,420 1694,411 1691,400 1686,388 1679,377 1672,367 1667,360 1665,357 1665,357"/>
<polygon class="pen1 brush2" points="1705,374 1707,377 1712,384 1719,394 1725,406 1731,418 1734,429 1733,438 1726,444 1712,436 1706,412 1705,386 1705,374 1705,374"/>
<polygon class="pen1 brush2" points="1783,404 1783,416 1784,441 1790,465 1804,472 1811,467 1812,458 1809,447 1803,435 1797,424 1790,414 1785,407 1783,404 1783,404"/>
<polygon class="pen1 brush2" points="1819,419 1819,431 1821,456 1827,481 1840,488 1847,482 1848,473 1845,462 1840,450 1833,438 1826,429 1821,422 1819,419 1819,419"/>
<polygon class="pen1 brush2" points="1856,438 1858,441 1864,447 1871,457 1878,468 1885,480 1888,491 1887,500 1881,506 1867,500 1859,476 1856,450 1856,438 1856,438"/>
<polygon class="pen1 brush2" points="1891,461 1891,464 1892,473 1893,484 1896,498 1900,510 1905,520 1912,526 1921,526 1927,520 1926,512 1922,501 1915,490 1907,479 1899,470 1893,463 1891,461 1891,461"/>
<polygon class="pen1 brush2" points="1625,347 1627,350 1631,358 1637,368 1643,381 1647,394 1649,405 1648,414 1641,418 1627,409 1623,385 1624,359 1625,347 1625,347"/>
<polygon class="pen1 brush2" points="1742,384 1742,396 1743,422 1749,446 1763,453 1770,448 1771,439 1768,428 1763,415 1756,404 1749,394 1744,387 1742,384 1742,384"/>
<polygon class="pen1 brush2" points="1584,338 1582,350 1580,376 1584,400 1597,409 1604,405 1606,396 1605,385 1601,372 1595,359 1590,349 1586,341 1584,338 1584,338"/>
<polygon class="pen1 brush2" points="1904,462 1904,455 1887,441 1864,427 1838,413 1808,399 1776,386 1742,374 1707,362 1672,350 1638,340 1606,331 1577,322 1551,315 1529,310 1512,305 1502,303 1498,302 1498,309 1502,310 1512,312 1529,317 1551,322 1577,329 1606,338 1638,347 1672,357 1707,369 1742,381 1776,393 1808,406 1838,420 1864,434 1887,448 1904,462 1904,462"/>
<polygon class="pen1 brush2" points="1175,559 1178,559 1187,558 1199,556 1212,553 1225,549 1235,544 1241,537 1240,529 1234,523 1225,523 1215,527 1203,534 1193,543 1184,551 1177,557 1175,559 1175,559"/>
<polygon class="pen1 brush2" points="1219,577 1222,577 1231,576 1243,574 1256,570 1269,566 1279,561 1285,554 1285,546 1279,540 1270,541 1259,545 1248,552 1237,561 1228,569 1221,575 1219,577 1219,577"/>
<polygon class="pen1 brush2" points="1296,610 1299,610 1308,609 1320,607 1333,604 1346,600 1356,595 1362,588 1361,580 1355,574 1346,574 1336,578 1324,585 1314,594 1305,602 1298,608 1296,610 1296,610"/>
<polygon class="pen1 brush2" points="1331,628 1334,628 1343,627 1355,625 1368,622 1381,618 1391,613 1397,606 1397,598 1391,592 1382,592 1371,597 1360,604 1349,612 1340,620 1333,626 1331,628 1331,628"/>
<polygon class="pen1 brush2" points="1367,648 1369,646 1376,640 1386,633 1397,625 1409,619 1420,615 1429,615 1435,621 1435,629 1429,635 1418,640 1405,643 1391,646 1379,647 1370,648 1367,648 1367,648"/>
<polygon class="pen1 brush2" points="1402,671 1405,669 1412,664 1421,657 1433,649 1445,643 1456,640 1465,641 1471,647 1470,655 1464,661 1453,665 1440,668 1426,670 1414,671 1405,671 1402,671 1402,671"/>
<polygon class="pen1 brush2" points="1134,546 1137,545 1146,544 1158,541 1171,536 1183,531 1193,525 1198,517 1196,509 1189,504 1180,505 1170,511 1160,519 1150,528 1142,537 1136,543 1134,546 1134,546"/>
<polygon class="pen1 brush2" points="1094,530 1097,529 1106,527 1118,523 1131,519 1143,513 1152,506 1157,498 1155,490 1148,485 1140,487 1130,493 1119,502 1110,512 1102,521 1096,527 1094,530 1094,530"/>
<polygon class="pen1 brush2" points="1258,594 1261,594 1270,592 1281,590 1295,587 1307,583 1317,577 1323,570 1323,561 1316,556 1307,556 1297,561 1286,568 1275,577 1266,585 1260,592 1258,594 1258,594"/>
<polygon class="pen1 brush2" points="1077,530 1071,534 1074,535 1082,538 1095,542 1112,548 1132,555 1155,563 1180,573 1207,583 1235,594 1263,606 1291,619 1317,632 1342,645 1365,659 1384,674 1400,688 1404,684 1388,670 1369,655 1346,641 1321,628 1295,615 1267,602 1239,590 1212,579 1185,569 1160,560 1137,552 1116,544 1100,539 1087,534 1079,531 1077,530 1077,530"/>
<polygon class="pen1 brush2" points="1391,686 1393,689 1399,696 1406,705 1413,717 1420,729 1423,740 1423,749 1417,755 1402,748 1394,723 1391,698 1391,686 1391,686"/>
<polygon class="pen1 brush2" points="1357,662 1356,674 1357,700 1363,724 1378,732 1385,726 1386,717 1383,705 1377,693 1371,682 1364,672 1359,665 1357,662 1357,662"/>
<polygon class="pen1 brush2" points="1320,641 1322,644 1327,651 1333,661 1339,673 1345,685 1347,697 1346,706 1340,711 1325,703 1320,679 1319,653 1320,641 1320,641"/>
<polygon class="pen1 brush2" points="1286,624 1288,627 1292,634 1298,644 1305,656 1309,668 1312,680 1310,689 1303,694 1289,686 1285,662 1285,636 1286,624 1286,624"/>
<polygon class="pen1 brush2" points="1246,604 1248,607 1252,614 1258,624 1265,636 1269,649 1272,660 1270,669 1263,674 1249,665 1244,641 1245,616 1246,604 1246,604"/>
<polygon class="pen1 brush2" points="1209,591 1211,594 1215,601 1222,612 1228,624 1233,636 1236,648 1234,656 1228,661 1214,653 1208,629 1208,603 1209,591 1209,591"/>
<polygon class="pen1 brush2" points="1171,573 1170,585 1169,610 1174,633 1188,641 1195,636 1197,627 1194,616 1190,604 1183,593 1177,583 1173,576 1171,573 1171,573"/>
<polygon class="pen1 brush2" points="1131,561 1129,572 1126,597 1128,622 1141,631 1149,627 1151,619 1150,608 1147,595 1142,582 1137,572 1133,564 1131,561 1131,561"/>
<polygon class="pen1 brush2" points="1090,552 1088,564 1085,589 1087,614 1100,623 1107,619 1110,610 1109,598 1105,586 1100,573 1095,562 1092,555 1090,552 1090,552"/>
<polygon class="pen1 brush2" points="601,313 603,310 608,303 614,293 621,282 627,270 629,259 628,250 621,245 606,253 601,276 600,301 601,313 601,313"/>
<polygon class="pen1 brush2" points="644,292 646,289 651,282 657,272 663,260 668,247 671,236 669,227 662,222 649,230 644,254 643,280 644,292 644,292"/>
<polygon class="pen1 brush2" points="719,256 718,244 719,218 724,193 738,185 744,190 746,199 743,211 738,223 732,235 725,246 721,253 719,256 719,256"/>
<polygon class="pen1 brush2" points="756,239 758,236 763,229 769,219 776,208 781,196 784,185 783,176 776,171 761,178 756,202 755,227 756,239 756,239"/>
<polygon class="pen1 brush2" points="794,225 794,213 796,188 803,164 817,158 824,163 825,171 822,182 816,194 808,206 801,216 796,222 794,225 794,225"/>
<polygon class="pen1 brush2" points="836,215 838,212 844,206 851,196 858,185 865,173 868,162 867,153 861,147 847,153 839,177 836,203 836,215 836,215"/>
<polygon class="pen1 brush2" points="567,337 569,334 573,326 578,315 583,303 587,290 589,278 586,270 579,266 566,275 563,299 565,325 567,337 567,337"/>
<polygon class="pen1 brush2" points="527,357 528,354 532,346 537,335 542,322 545,308 546,297 543,288 536,284 523,295 521,320 525,345 527,357 527,357"/>
<polygon class="pen1 brush2" points="681,273 680,261 681,235 686,211 699,203 706,208 708,217 705,229 700,241 694,253 688,263 683,270 681,273 681,273"/>
<polygon class="pen1 brush2" points="516,371 516,377 519,376 526,372 537,365 553,356 571,345 592,332 616,319 641,305 668,292 695,278 722,265 750,254 776,244 802,236 825,231 847,228 847,222 825,225 802,230 776,238 750,248 722,260 695,272 668,286 641,299 616,313 592,326 571,339 553,349 537,359 526,365 519,370 516,371 516,371"/>
<polygon class="pen1 brush2" points="840,233 843,233 852,233 864,234 878,236 891,239 902,244 908,250 908,259 902,265 893,265 882,261 870,255 859,248 849,240 843,235 840,233 840,233"/>
<polygon class="pen1 brush2" points="799,245 801,247 808,253 817,260 828,268 839,275 850,279 859,279 865,273 866,264 860,257 849,252 837,249 823,247 811,246 802,245 799,245 799,245"/>
<polygon class="pen1 brush2" points="759,257 761,259 768,265 777,273 787,282 799,289 809,294 818,295 824,289 825,280 819,273 809,267 796,263 783,260 771,258 762,257 759,257 759,257"/>
<polygon class="pen1 brush2" points="723,273 725,275 731,281 740,289 751,297 762,304 773,309 782,309 789,303 789,295 783,289 773,283 760,279 747,276 735,274 726,273 723,273 723,273"/>
<polygon class="pen1 brush2" points="682,289 684,291 690,298 699,306 710,314 721,322 731,327 740,327 746,321 747,312 741,305 731,300 719,296 706,293 694,290 685,289 682,289 682,289"/>
<polygon class="pen1 brush2" points="650,309 652,311 658,317 667,325 677,334 688,341 699,346 707,347 713,341 714,333 709,326 699,320 686,316 673,313 662,311 653,309 650,309 650,309"/>
<polygon class="pen1 brush2" points="610,326 612,328 618,334 627,342 637,351 648,358 659,363 668,363 674,357 674,349 669,342 659,337 646,332 633,329 622,327 613,326 610,326 610,326"/>
<polygon class="pen1 brush2" points="576,350 578,353 583,359 591,368 601,378 611,386 621,392 630,393 637,388 638,379 633,372 624,365 612,360 599,356 588,353 579,351 576,350 576,350"/>
<polygon class="pen1 brush2" points="540,374 542,377 548,383 556,392 565,402 576,410 586,416 594,417 601,412 602,403 597,396 588,389 576,384 563,380 552,377 543,375 540,374"/>
</g>
</svg>
