<?xml version="1.0" encoding="UTF-8" standalone="no"?>
<!DOCTYPE svg PUBLIC "-//W3C//DTD SVG 1.0//EN" "http://www.w3.org/TR/2001/REC-SVG-20010904/DTD/svg10.dtd">
<svg xmlns="http://www.w3.org/2000/svg" xmlns:xlink="http://www.w3.org/1999/xlink" fill-rule="evenodd" height="1.857in" preserveAspectRatio="none" stroke-linecap="round" viewBox="0 0 1992 1857" width="1.992in">
<style type="text/css">
.brush0 { fill: rgb(255,255,255); }
.pen0 { stroke: rgb(0,0,0); stroke-width: 1; stroke-linejoin: round; }
.brush1 { fill: none; }
.pen1 { stroke: none; }
.brush2 { fill: rgb(0,0,0); }
</style>
<g>
<polygon class="pen1 brush2" points="996,51 983,43 970,36 956,30 942,25 928,21 914,17 900,15 885,14 871,14 856,14 842,15 827,18 813,20 798,24 784,29 770,34 753,42 736,50 719,60 703,71 688,83 673,96 660,110 647,124 634,140 623,157 613,174 604,192 596,211 589,230 584,250 580,271 573,337 573,399 578,459 588,515 603,569 621,619 643,666 667,709 694,750 722,788 751,822 780,853 809,882 837,907 863,928 888,947 899,932 911,919 924,908 938,899 953,892 969,887 985,884 1002,882 1018,883 1034,885 1050,889 1066,895 1081,903 1095,913 1109,924 1121,937 1146,918 1172,895 1200,870 1228,841 1256,810 1283,776 1310,739 1335,698 1358,655 1378,609 1395,560 1408,508 1418,453 1422,396 1421,335 1415,271 1407,234 1396,200 1380,168 1361,138 1338,111 1313,87 1286,66 1256,48 1241,40 1225,33 1209,28 1193,23 1176,19 1159,16 1143,14 1126,14 1109,14 1093,16 1076,19 1059,23 1043,28 1027,34 1011,42 996,51 996,51"/>
<polygon class="pen1 brush2" points="167,1595 139,1581 114,1564 92,1544 73,1522 56,1498 42,1473 31,1445 23,1417 17,1379 16,1341 19,1302 28,1263 41,1226 59,1190 83,1157 111,1126 137,1103 164,1081 191,1062 218,1044 246,1028 273,1014 301,1001 328,990 356,980 383,972 410,965 437,960 464,955 491,952 517,949 543,948 568,948 593,948 617,949 641,951 664,954 687,957 709,960 730,964 750,968 769,973 788,978 805,983 821,988 837,992 851,997 864,1002 861,1029 864,1056 870,1081 882,1105 897,1126 915,1144 937,1159 962,1170 962,1170 963,1170 964,1170 966,1171 968,1171 967,1202 964,1236 959,1274 952,1313 943,1356 932,1399 917,1444 898,1489 876,1534 850,1579 819,1623 783,1666 742,1707 695,1745 643,1781 584,1813 568,1821 552,1827 535,1832 519,1837 502,1840 486,1842 469,1844 452,1844 436,1844 419,1842 403,1840 387,1837 371,1833 356,1829 341,1823 326,1817 294,1800 265,1779 238,1755 215,1728 196,1698 181,1666 171,1632 167,1595 167,1595"/>
<polygon class="pen1 brush2" points="1830,1596 1826,1631 1817,1664 1804,1695 1787,1723 1766,1749 1741,1772 1714,1793 1685,1810 1670,1817 1654,1824 1637,1830 1621,1834 1604,1838 1587,1841 1569,1843 1552,1844 1534,1844 1516,1842 1499,1840 1481,1837 1463,1833 1446,1827 1428,1821 1411,1813 1353,1781 1301,1746 1255,1708 1214,1668 1178,1626 1147,1582 1121,1538 1099,1493 1080,1448 1065,1404 1054,1361 1044,1319 1038,1280 1033,1242 1030,1208 1029,1177 1059,1169 1086,1154 1110,1136 1129,1112 1142,1086 1151,1058 1154,1028 1150,997 1164,992 1179,987 1195,982 1212,978 1230,973 1248,969 1268,964 1288,960 1309,957 1330,954 1352,951 1375,949 1398,948 1422,948 1446,948 1471,949 1496,950 1521,953 1547,957 1573,962 1599,968 1625,975 1651,983 1677,993 1704,1004 1730,1017 1756,1031 1782,1047 1808,1064 1834,1083 1860,1103 1885,1126 1912,1155 1934,1186 1952,1219 1966,1254 1975,1291 1980,1327 1980,1364 1976,1400 1969,1431 1959,1461 1945,1490 1929,1516 1909,1541 1885,1562 1859,1581 1830,1596"/>
<polygon class="pen1 brush2" points="1003,1103 1018,1102 1031,1098 1044,1091 1055,1082 1063,1072 1070,1060 1075,1047 1076,1032 1075,1018 1070,1005 1063,993 1055,982 1044,973 1031,967 1018,962 1003,961 989,962 976,967 964,973 954,982 946,993 939,1005 935,1018 934,1032 935,1047 939,1060 946,1072 954,1082 964,1091 976,1098 989,1102 1003,1103"/>
<polygon class="pen1 brush0" points="279,1542 291,1540 304,1542 319,1549 334,1558 350,1570 367,1583 384,1598 402,1614 420,1630 439,1645 457,1659 476,1672 495,1682 514,1689 532,1693 550,1692 582,1684 612,1671 642,1654 670,1632 697,1607 723,1579 748,1548 772,1515 794,1480 815,1444 834,1406 852,1369 868,1331 883,1293 896,1256 908,1220 911,1219 914,1220 917,1221 919,1221 905,1262 889,1305 870,1351 848,1398 824,1445 798,1491 770,1536 740,1577 709,1614 676,1646 641,1672 606,1690 569,1701 532,1702 494,1693 455,1673 436,1660 419,1646 404,1633 390,1621 377,1609 365,1598 353,1588 343,1578 332,1570 321,1564 311,1559 300,1556 288,1555 276,1555 263,1559 248,1564 265,1545 271,1522 269,1495 261,1464 250,1431 237,1396 226,1361 219,1325 218,1279 227,1238 244,1203 268,1172 299,1145 336,1123 377,1105 422,1089 470,1078 520,1069 571,1062 622,1058 673,1056 721,1055 767,1056 810,1058 808,1062 807,1063 805,1065 803,1069 765,1067 725,1066 683,1066 640,1067 597,1070 554,1075 511,1081 470,1088 430,1098 393,1110 358,1124 327,1141 299,1160 276,1182 258,1206 246,1234 237,1280 240,1326 249,1372 263,1415 276,1455 286,1491 288,1520 279,1542 279,1542"/>
<polygon class="pen1 brush0" points="323,1362 334,1386 348,1404 365,1417 384,1425 404,1429 425,1428 447,1422 469,1413 451,1431 439,1450 431,1469 428,1489 429,1508 435,1528 444,1546 458,1564 463,1560 467,1557 469,1556 468,1555 451,1536 442,1516 440,1495 444,1473 454,1452 468,1432 487,1413 508,1396 827,1177 817,1164 500,1383 489,1390 477,1397 465,1403 453,1408 441,1412 429,1415 417,1417 405,1417 394,1416 383,1414 372,1409 363,1403 354,1395 346,1384 339,1371 333,1356 330,1358 328,1359 327,1360 323,1362"/>
<polygon class="pen1 brush0" points="1752,1541 1740,1539 1727,1541 1712,1547 1697,1557 1681,1568 1664,1582 1646,1597 1628,1612 1610,1628 1591,1643 1572,1657 1553,1670 1534,1680 1516,1687 1497,1691 1479,1690 1448,1682 1417,1670 1388,1653 1360,1631 1333,1606 1306,1578 1282,1547 1258,1514 1236,1479 1215,1443 1195,1405 1177,1367 1161,1329 1146,1290 1133,1253 1121,1217 1119,1217 1116,1219 1112,1220 1111,1221 1124,1262 1141,1305 1160,1351 1181,1398 1205,1445 1231,1491 1259,1535 1289,1576 1320,1613 1353,1645 1388,1671 1423,1690 1460,1701 1497,1702 1535,1693 1574,1673 1593,1659 1610,1646 1626,1633 1640,1620 1654,1608 1666,1597 1677,1586 1688,1577 1699,1569 1709,1562 1720,1558 1731,1554 1742,1553 1754,1554 1768,1557 1782,1562 1765,1543 1758,1520 1761,1493 1769,1463 1780,1430 1793,1396 1803,1360 1810,1325 1811,1279 1802,1238 1785,1202 1761,1171 1730,1145 1693,1122 1652,1104 1607,1089 1559,1077 1509,1068 1458,1062 1407,1058 1356,1055 1308,1055 1262,1056 1219,1058 1222,1062 1224,1063 1225,1065 1228,1069 1266,1067 1306,1066 1348,1066 1390,1067 1434,1070 1477,1074 1519,1080 1561,1088 1600,1098 1638,1110 1672,1124 1704,1140 1731,1160 1754,1182 1772,1206 1785,1234 1793,1279 1790,1325 1780,1371 1767,1414 1753,1454 1744,1489 1742,1519 1752,1541 1752,1541"/>
<polygon class="pen1 brush0" points="1705,1362 1694,1385 1680,1402 1664,1415 1645,1423 1625,1426 1603,1426 1582,1421 1560,1412 1578,1430 1591,1448 1598,1467 1602,1487 1600,1506 1595,1525 1584,1544 1570,1562 1566,1558 1563,1556 1562,1555 1563,1554 1580,1535 1589,1514 1591,1492 1587,1470 1577,1449 1563,1429 1544,1410 1523,1393 1204,1177 1212,1163 1529,1383 1540,1390 1552,1397 1564,1403 1576,1408 1588,1412 1600,1415 1612,1416 1624,1417 1635,1415 1646,1413 1657,1408 1666,1401 1675,1393 1683,1382 1690,1369 1696,1353 1700,1356 1701,1357 1702,1359 1705,1362"/>
<polygon class="pen1 brush0" points="999,122 1004,133 1014,142 1027,151 1043,158 1062,165 1083,171 1105,177 1128,184 1151,190 1174,197 1196,205 1217,214 1236,224 1252,235 1265,249 1275,264 1286,294 1293,327 1295,361 1293,396 1288,432 1279,469 1267,507 1253,545 1236,583 1218,621 1198,658 1176,694 1154,729 1131,763 1107,795 1084,825 1085,826 1088,828 1091,831 1093,832 1119,798 1146,760 1173,718 1199,674 1225,628 1248,581 1269,533 1287,485 1300,438 1308,393 1310,350 1306,310 1294,273 1275,241 1246,215 1208,194 1186,186 1165,179 1146,173 1127,169 1110,165 1094,161 1079,157 1065,153 1052,149 1041,144 1031,138 1022,130 1014,121 1008,111 1003,98 999,83 998,96 993,108 987,118 978,127 967,134 954,140 940,146 925,151 908,155 891,160 874,164 856,169 839,174 822,180 805,186 789,194 750,219 721,249 700,283 688,321 684,361 685,404 693,448 706,494 723,540 743,587 767,633 792,677 818,720 845,761 872,799 897,833 898,829 899,827 900,824 901,819 878,789 855,756 831,721 809,685 787,648 766,610 748,571 731,532 717,494 706,456 698,419 695,384 695,351 700,319 710,291 726,265 742,248 760,233 779,220 800,210 821,200 843,193 865,186 887,180 907,174 927,168 945,163 961,157 975,150 986,142 994,133 999,122 999,122"/>
<polygon class="pen1 brush0" points="877,260 902,256 925,257 944,264 961,275 975,290 986,308 994,329 999,352 1004,327 1013,306 1024,289 1039,275 1055,266 1074,259 1095,257 1117,258 1117,264 1117,269 1116,271 1115,271 1090,268 1068,271 1049,282 1034,297 1022,317 1013,341 1008,366 1006,393 1003,779 989,779 992,393 991,367 986,341 979,317 967,296 952,279 931,269 906,266 875,271 875,267 876,265 877,264 877,260"/>
</g>
</svg>
