<?xml version="1.0" encoding="UTF-8" standalone="no"?>
<!DOCTYPE svg PUBLIC "-//W3C//DTD SVG 1.0//EN" "http://www.w3.org/TR/2001/REC-SVG-20010904/DTD/svg10.dtd">
<svg xmlns="http://www.w3.org/2000/svg" xmlns:xlink="http://www.w3.org/1999/xlink" fill-rule="evenodd" height="1.521in" preserveAspectRatio="none" stroke-linecap="round" viewBox="0 0 1979 1521" width="1.979in">
<style type="text/css">
.brush0 { fill: rgb(255,255,255); }
.pen0 { stroke: rgb(0,0,0); stroke-width: 1; stroke-linejoin: round; }
.brush1 { fill: none; }
.pen1 { stroke: none; }
.brush2 { fill: rgb(0,0,0); }
</style>
<g>
<polygon class="pen1 brush2" points="1229,642 1248,640 1260,636 1267,631 1271,628 1274,628 1279,632 1287,641 1300,657 1303,657 1312,659 1324,660 1339,661 1354,662 1369,662 1381,660 1390,657 1396,652 1401,647 1407,642 1412,637 1419,633 1428,630 1439,628 1452,628 1454,628 1458,626 1463,625 1470,622 1477,619 1483,614 1488,610 1490,604 1493,596 1499,591 1508,591 1519,594 1522,593 1529,589 1538,585 1547,582 1555,581 1560,583 1560,590 1553,603 1553,616 1547,625 1537,630 1525,634 1512,636 1501,639 1493,644 1490,651 1489,658 1485,664 1479,670 1471,675 1473,675 1477,677 1483,678 1491,680 1500,681 1508,682 1516,683 1522,682 1528,679 1534,674 1540,668 1548,662 1556,659 1565,660 1575,666 1586,679 1591,678 1604,676 1623,674 1645,672 1667,673 1686,675 1699,681 1704,692 1703,703 1700,712 1695,719 1689,723 1682,726 1675,728 1668,729 1662,729 1662,730 1664,734 1671,740 1686,746 1698,751 1699,755 1696,759 1695,766 1698,782 1698,791 1696,795 1692,794 1687,791 1680,787 1671,782 1662,780 1656,778 1650,775 1644,772 1639,768 1635,764 1631,759 1628,754 1625,749 1622,742 1618,739 1614,737 1608,732 1606,732 1602,732 1594,732 1585,731 1574,731 1562,729 1549,728 1536,726 1539,728 1547,734 1555,744 1560,757 1566,767 1571,781 1570,794 1561,803 1547,795 1536,788 1525,781 1516,774 1508,766 1500,757 1493,746 1485,732 1477,723 1462,715 1444,707 1422,701 1401,696 1380,692 1362,691 1350,692 1340,693 1329,692 1319,691 1310,690 1301,689 1293,688 1287,689 1283,692 1281,696 1283,701 1286,708 1291,716 1297,723 1305,730 1312,736 1320,740 1328,742 1337,742 1346,742 1356,742 1366,744 1377,748 1387,756 1398,770 1412,775 1428,780 1443,786 1460,791 1477,797 1494,802 1511,808 1529,812 1546,817 1564,821 1581,825 1597,828 1613,830 1629,831 1643,832 1657,831 1678,828 1695,825 1709,821 1720,819 1729,818 1738,821 1747,828 1758,840 1761,839 1768,838 1779,836 1791,835 1803,836 1815,839 1823,844 1827,854 1826,864 1823,871 1817,875 1809,878 1800,879 1792,879 1783,878 1776,878 1769,879 1760,883 1749,887 1737,891 1724,894 1708,894 1691,890 1671,882 1659,877 1645,872 1628,867 1609,862 1589,857 1567,852 1545,848 1523,843 1501,839 1479,835 1459,830 1440,826 1423,822 1408,818 1396,814 1387,810 1374,812 1360,810 1343,806 1326,800 1308,791 1289,781 1270,770 1250,759 1231,747 1213,734 1195,723 1179,712 1164,702 1151,693 1140,686 1131,682 1132,686 1133,695 1136,709 1141,725 1146,743 1152,760 1160,775 1168,786 1180,785 1188,792 1194,803 1196,814 1198,817 1203,823 1211,830 1222,834 1228,835 1234,837 1238,839 1243,842 1247,845 1251,849 1255,854 1258,860 1265,874 1272,887 1274,898 1269,905 1259,908 1248,908 1238,906 1229,902 1221,897 1214,890 1208,881 1205,871 1201,864 1195,862 1188,861 1179,857 1180,863 1183,878 1189,895 1196,908 1203,920 1206,932 1207,944 1205,955 1206,958 1209,964 1213,974 1217,985 1219,997 1218,1008 1214,1017 1205,1023 1195,1025 1187,1023 1181,1017 1178,1008 1175,998 1173,988 1172,978 1171,969 1167,962 1158,947 1152,929 1154,915 1153,908 1151,890 1148,872 1142,860 1134,877 1136,896 1138,913 1131,925 1131,935 1129,957 1122,978 1106,986 1090,980 1085,970 1085,956 1087,943 1084,936 1080,920 1080,902 1090,891 1092,888 1098,880 1102,869 1103,860 1100,848 1098,833 1099,816 1107,800 1105,788 1102,775 1099,761 1095,747 1091,734 1085,722 1078,711 1070,702 1061,693 1052,684 1044,674 1038,663 1033,651 1029,639 1027,625 1027,611 1017,603 1007,594 997,585 987,576 976,566 965,557 955,548 944,539 933,530 922,521 911,512 900,504 889,496 878,489 867,482 856,476 859,481 864,493 869,508 870,522 872,528 875,536 879,544 883,553 888,561 894,568 901,573 908,576 916,578 924,582 930,586 936,590 941,595 945,600 948,606 951,611 953,613 959,618 967,625 976,634 985,644 991,653 994,662 992,668 988,671 982,669 976,665 969,658 962,651 955,645 948,639 941,637 936,636 930,634 924,632 919,630 914,627 910,623 906,619 904,614 905,623 910,643 917,665 928,682 940,695 948,711 953,727 954,739 954,741 954,747 958,753 969,759 976,760 981,761 986,761 989,762 992,763 995,766 999,770 1002,776 1005,779 1012,786 1018,796 1016,807 1007,806 998,804 989,802 980,799 972,795 964,790 957,783 952,774 952,778 951,788 953,800 959,810 966,820 970,831 972,841 971,848 972,852 974,861 973,871 965,877 959,877 955,876 951,873 947,870 944,866 941,861 938,857 934,854 928,847 925,840 925,830 925,817 922,800 916,781 908,765 901,755 897,758 890,766 884,777 884,790 890,801 892,809 890,816 884,823 884,826 882,833 879,840 871,843 864,841 861,837 860,829 857,820 851,809 850,799 853,789 861,782 869,759 871,736 872,712 880,688 879,684 877,674 873,659 869,642 864,624 859,609 854,597 850,591 848,594 845,600 845,609 850,618 855,626 856,636 853,648 847,659 846,668 842,687 835,705 824,712 815,705 813,692 812,675 810,659 806,643 803,626 803,610 810,598 813,586 819,573 822,560 816,547 806,533 797,513 788,491 779,467 769,445 757,426 741,412 722,405 713,404 705,403 698,402 691,400 685,397 679,393 674,387 669,378 668,376 664,371 658,365 647,361 650,380 655,401 662,423 670,446 680,467 691,487 704,505 719,519 725,524 734,534 745,547 756,563 765,579 770,594 770,606 763,614 756,615 751,613 746,608 743,602 739,595 736,588 733,582 729,578 716,577 709,568 706,555 706,543 686,519 680,526 679,533 682,540 686,547 690,555 693,563 694,573 691,583 693,594 695,618 694,642 684,651 672,644 664,629 659,610 658,593 650,579 645,561 645,544 655,530 631,455 621,472 631,503 630,511 625,530 617,549 604,557 593,552 589,539 588,523 586,507 584,494 586,481 590,469 595,456 600,444 602,432 602,420 597,409 588,393 582,376 578,360 577,344 567,333 554,320 540,305 524,290 509,276 494,264 480,254 468,247 466,246 462,242 462,236 471,225 473,225 478,226 486,226 497,226 510,227 524,227 540,227 556,226 573,225 590,223 606,220 622,217 636,212 648,207 658,200 665,192 676,176 684,163 690,153 697,145 703,139 712,135 723,134 738,135 743,129 756,116 773,100 790,86 803,78 808,82 803,103 782,145 740,191 734,196 731,200 731,204 733,207 737,209 742,210 749,211 755,210 761,208 765,204 769,199 773,195 777,192 782,192 789,196 799,205 801,204 808,202 818,197 829,192 841,186 852,178 861,170 867,162 872,152 877,142 883,131 890,122 896,115 903,111 909,110 914,115 917,111 923,102 933,91 943,81 952,74 959,74 962,84 959,107 960,108 962,110 963,114 964,119 963,126 959,134 951,144 939,155 925,167 914,177 905,186 900,194 898,199 900,203 907,204 918,202 932,197 944,190 956,182 968,175 980,170 993,168 1007,170 1022,178 1027,177 1040,176 1058,175 1078,174 1099,175 1118,178 1131,185 1137,195 1134,207 1125,217 1112,224 1096,230 1079,234 1063,236 1050,237 1042,236 1037,237 1034,240 1031,244 1026,249 1020,253 1011,255 997,253 979,247 959,241 944,240 933,243 927,249 926,256 931,265 942,273 959,280 966,281 971,281 975,280 978,280 981,281 984,284 988,289 992,297 994,297 999,299 1005,301 1012,305 1019,309 1023,315 1025,322 1022,331 1017,337 1010,339 1003,339 995,336 987,332 979,327 973,324 968,323 960,325 951,325 943,324 936,322 930,318 926,313 924,307 925,300 921,298 912,292 897,283 879,274 860,265 839,257 820,251 803,250 791,252 783,255 777,258 774,262 771,264 767,264 761,262 752,256 738,250 722,248 702,249 682,251 662,255 643,259 625,263 611,266 612,267 616,271 622,277 629,284 638,291 648,297 658,303 668,306 677,307 684,309 692,310 699,313 707,316 716,320 726,327 738,335 744,338 753,345 761,353 766,358 788,375 809,389 829,399 848,407 865,412 880,415 892,416 900,415 906,414 911,412 916,411 921,410 926,411 932,412 939,414 948,418 961,423 978,426 998,428 1019,427 1038,424 1056,419 1069,411 1077,401 1081,392 1083,385 1086,380 1088,377 1091,376 1095,376 1101,377 1108,378 1125,376 1139,367 1150,354 1160,337 1170,321 1180,307 1193,298 1208,296 1215,295 1221,291 1226,284 1231,277 1236,271 1241,266 1248,264 1255,267 1260,273 1260,279 1257,286 1252,293 1246,299 1241,306 1237,312 1236,317 1236,326 1231,335 1223,342 1215,347 1206,352 1199,356 1194,363 1189,375 1186,388 1182,396 1176,402 1165,407 1155,412 1148,420 1143,428 1138,434 1144,434 1158,435 1179,434 1204,432 1230,429 1253,422 1272,412 1283,398 1289,384 1295,375 1301,370 1307,367 1312,366 1318,366 1324,365 1330,364 1338,359 1343,352 1348,342 1353,332 1358,322 1366,314 1376,308 1390,307 1394,304 1398,299 1404,293 1411,286 1417,280 1424,275 1431,274 1438,276 1442,280 1443,285 1441,291 1438,296 1434,302 1429,308 1426,314 1425,320 1423,328 1418,336 1411,344 1402,351 1393,357 1383,363 1374,368 1367,372 1363,375 1363,379 1363,382 1363,385 1362,389 1359,393 1351,397 1338,401 1324,418 1326,418 1332,418 1341,418 1352,417 1364,417 1376,415 1388,414 1397,412 1403,409 1407,405 1409,400 1412,395 1417,393 1424,393 1435,396 1451,405 1452,405 1455,404 1459,404 1464,403 1470,402 1476,400 1483,399 1489,398 1493,396 1497,393 1500,389 1505,386 1511,383 1519,383 1531,386 1546,392 1549,391 1559,387 1572,384 1587,380 1603,379 1617,381 1628,388 1634,401 1634,415 1627,426 1615,433 1601,438 1586,441 1573,442 1564,442 1560,442 1556,449 1551,456 1544,463 1536,468 1540,478 1546,483 1554,484 1562,483 1570,483 1578,484 1585,490 1590,502 1594,512 1599,518 1604,523 1608,525 1611,528 1612,530 1611,532 1606,537 1599,540 1591,539 1583,536 1576,531 1570,526 1565,521 1561,517 1560,516 1559,516 1555,517 1549,517 1543,517 1536,516 1530,513 1525,509 1522,502 1519,495 1515,490 1510,487 1504,485 1499,483 1493,481 1489,478 1485,472 1479,466 1471,465 1462,466 1452,470 1441,473 1431,476 1421,476 1412,472 1407,470 1399,468 1391,467 1384,468 1380,471 1378,476 1382,483 1392,493 1404,501 1413,505 1420,504 1424,503 1427,502 1429,504 1431,510 1432,522 1436,535 1441,543 1442,549 1435,557 1430,559 1425,559 1420,556 1415,552 1410,547 1405,543 1400,539 1395,537 1391,536 1386,534 1382,532 1377,530 1373,527 1369,523 1365,519 1361,513 1357,506 1351,499 1344,493 1336,487 1327,481 1318,478 1309,476 1300,476 1292,477 1284,478 1278,479 1274,481 1271,484 1272,489 1276,494 1283,502 1292,508 1298,509 1302,509 1305,507 1307,506 1310,508 1313,513 1317,524 1321,529 1327,534 1335,540 1343,545 1350,551 1355,557 1358,564 1356,570 1350,575 1343,576 1334,573 1325,569 1315,563 1306,557 1298,553 1292,550 1285,549 1278,547 1271,544 1264,541 1258,537 1252,532 1246,526 1242,519 1240,515 1236,510 1231,505 1224,500 1216,495 1207,489 1196,484 1184,479 1171,475 1157,471 1141,467 1124,465 1106,463 1088,462 1068,463 1047,465 1045,466 1041,468 1035,471 1027,474 1017,477 1007,481 996,483 986,485 988,486 992,489 998,493 1006,499 1015,504 1024,510 1032,515 1039,519 1051,526 1062,534 1072,543 1081,553 1090,564 1099,574 1108,585 1117,595 1127,605 1137,615 1149,623 1161,630 1176,636 1191,640 1209,642 1229,642 1229,642"/>
<polygon class="pen1 brush2" points="1823,1521 1835,1513 1845,1505 1853,1498 1860,1490 1866,1481 1873,1471 1879,1458 1887,1442 1901,1438 1916,1431 1931,1422 1946,1412 1959,1403 1969,1395 1976,1389 1979,1387 1970,1389 1962,1392 1952,1394 1943,1395 1933,1394 1922,1392 1912,1388 1900,1381 1888,1371 1876,1358 1863,1340 1850,1318 1836,1290 1821,1258 1806,1219 1790,1174 1773,1128 1755,1089 1737,1054 1718,1025 1699,1001 1679,980 1661,964 1643,950 1626,940 1610,933 1596,928 1584,924 1574,922 1566,921 1562,921 1560,921 1556,968 1541,1001 1519,1021 1493,1031 1467,1035 1444,1034 1427,1031 1421,1030 1423,1055 1427,1079 1433,1101 1441,1122 1450,1142 1460,1160 1473,1178 1486,1195 1501,1210 1518,1225 1535,1240 1554,1253 1574,1266 1595,1279 1617,1291 1640,1303 1682,1325 1719,1346 1749,1365 1774,1383 1794,1399 1810,1414 1822,1429 1830,1442 1835,1454 1837,1465 1838,1476 1836,1486 1834,1495 1830,1504 1827,1513 1823,1521 1823,1521"/>
<polygon class="pen1 brush2" points="1462,1009 1475,1008 1487,1004 1498,998 1508,989 1515,980 1521,968 1525,956 1526,943 1525,930 1521,918 1515,907 1508,897 1498,889 1487,883 1475,879 1462,878 1449,879 1436,883 1425,889 1416,897 1408,907 1402,918 1398,930 1397,943 1398,956 1402,968 1408,980 1416,989 1425,998 1436,1004 1449,1008 1462,1009 1462,1009"/>
<polygon class="pen1 brush2" points="5,41 9,31 19,24 33,18 50,14 69,12 89,12 109,13 127,16 142,20 152,27 158,35 160,44 160,53 158,61 155,68 151,73 148,78 147,86 146,96 145,106 141,115 135,121 124,124 107,121 88,115 69,107 51,97 35,87 22,75 12,64 6,52 5,41 5,41"/>
<polygon class="pen1 brush2" points="320,149 318,160 321,172 328,186 338,201 351,215 365,229 381,242 398,253 413,259 424,259 432,255 438,247 442,237 446,228 449,220 454,216 459,213 464,208 468,200 470,191 470,182 466,172 458,163 445,155 428,148 409,142 389,138 370,135 353,135 338,137 326,141 320,149 320,149"/>
<polygon class="pen1 brush2" points="168,80 168,91 173,103 181,116 193,129 207,142 224,154 241,165 259,174 275,178 287,177 294,171 298,163 301,153 303,144 306,136 310,131 315,127 319,121 322,113 323,103 322,94 317,85 308,77 294,70 276,66 256,62 236,60 217,60 199,62 184,65 174,71 168,80"/>
</g>
</svg>
