<?xml version="1.0" encoding="UTF-8" standalone="no"?>
<!DOCTYPE svg PUBLIC "-//W3C//DTD SVG 1.0//EN" "http://www.w3.org/TR/2001/REC-SVG-20010904/DTD/svg10.dtd">
<svg xmlns="http://www.w3.org/2000/svg" xmlns:xlink="http://www.w3.org/1999/xlink" fill-rule="evenodd" height="1.975in" preserveAspectRatio="none" stroke-linecap="round" viewBox="0 0 1754 1975" width="1.754in">
<style type="text/css">
.brush0 { fill: rgb(255,255,255); }
.pen0 { stroke: rgb(0,0,0); stroke-width: 1; stroke-linejoin: round; }
.brush1 { fill: none; }
.pen1 { stroke: none; }
.brush2 { fill: rgb(0,0,0); }
</style>
<g>
<polygon class="pen1 brush2" points="492,1536 493,1539 497,1548 503,1561 512,1579 524,1599 540,1621 559,1644 583,1666 611,1689 643,1709 681,1726 723,1740 771,1749 825,1753 884,1750 950,1740 948,1737 941,1727 930,1713 915,1695 897,1674 874,1650 848,1626 819,1602 787,1580 752,1559 714,1541 674,1528 632,1520 587,1517 540,1523 492,1536 492,1536"/>
<polygon class="pen1 brush2" points="1458,380 1450,393 1441,407 1431,423 1421,439 1410,457 1399,475 1386,493 1373,512 1407,505 1440,503 1472,506 1502,513 1530,523 1557,537 1582,552 1604,569 1625,586 1643,604 1659,621 1672,636 1683,649 1691,659 1695,666 1697,668 1654,675 1615,677 1579,676 1546,671 1517,664 1491,654 1467,642 1446,629 1428,615 1413,600 1399,585 1388,571 1379,557 1372,545 1367,534 1363,526 1350,543 1337,560 1323,578 1309,597 1294,616 1279,636 1263,657 1247,678 1286,669 1323,666 1359,669 1393,677 1426,688 1456,703 1484,721 1510,739 1534,759 1555,779 1573,797 1588,815 1600,829 1609,841 1614,848 1616,851 1566,859 1521,862 1480,860 1443,855 1409,846 1379,834 1353,821 1330,805 1309,788 1292,771 1277,754 1265,738 1255,722 1248,708 1242,697 1238,688 1225,705 1211,722 1197,740 1182,758 1167,777 1153,795 1137,814 1122,833 1165,823 1206,821 1246,824 1284,833 1319,846 1353,863 1384,882 1412,902 1438,924 1461,946 1481,966 1497,985 1510,1001 1520,1014 1526,1022 1528,1025 1474,1034 1424,1037 1379,1036 1338,1030 1301,1020 1268,1008 1239,993 1213,976 1191,959 1171,940 1154,921 1141,903 1129,886 1120,870 1114,857 1109,847 1095,864 1081,881 1066,898 1052,915 1037,933 1022,950 1006,968 991,986 1034,976 1076,974 1117,978 1155,987 1192,1000 1226,1017 1259,1037 1288,1058 1315,1080 1339,1102 1360,1124 1377,1143 1391,1160 1402,1173 1408,1181 1410,1184 1355,1193 1305,1196 1259,1194 1217,1187 1179,1177 1145,1164 1114,1148 1087,1131 1064,1112 1044,1093 1026,1073 1012,1055 1000,1037 991,1022 984,1009 980,999 964,1017 948,1035 931,1053 915,1072 898,1091 881,1110 863,1129 846,1148 889,1138 931,1135 971,1138 1009,1147 1045,1160 1079,1176 1110,1195 1139,1216 1165,1238 1188,1260 1207,1281 1224,1300 1237,1316 1247,1329 1253,1337 1255,1340 1200,1349 1150,1352 1104,1350 1062,1344 1025,1334 992,1321 962,1306 936,1289 914,1270 895,1251 878,1232 865,1214 854,1197 846,1182 840,1169 836,1160 818,1180 800,1199 782,1219 763,1239 744,1259 725,1280 706,1300 687,1320 731,1309 773,1305 813,1308 851,1316 887,1329 921,1345 953,1364 982,1385 1008,1407 1032,1429 1052,1450 1069,1469 1082,1486 1092,1499 1098,1507 1100,1510 1043,1519 992,1523 945,1521 903,1514 865,1503 832,1489 802,1473 776,1455 754,1436 735,1416 719,1396 706,1378 696,1361 688,1346 683,1335 680,1327 662,1346 644,1365 625,1384 606,1403 587,1422 568,1442 549,1461 529,1481 510,1500 490,1520 470,1540 449,1560 429,1580 408,1600 387,1620 366,1640 345,1661 323,1681 301,1702 279,1723 257,1743 235,1764 212,1785 189,1806 166,1827 143,1848 120,1869 96,1890 73,1911 49,1932 24,1954 0,1975 4,1891 6,1889 14,1883 25,1873 41,1860 61,1843 84,1822 112,1798 142,1772 176,1742 212,1709 251,1674 293,1637 336,1597 382,1554 429,1510 478,1464 464,1458 448,1451 431,1442 413,1431 395,1418 376,1403 357,1385 339,1365 322,1341 307,1315 293,1285 281,1252 272,1215 266,1174 264,1129 265,1080 268,1081 276,1086 289,1093 306,1103 326,1116 348,1131 371,1150 395,1170 419,1194 442,1220 463,1248 481,1280 497,1313 508,1349 514,1387 515,1428 530,1414 545,1399 560,1384 576,1370 591,1355 606,1340 622,1324 637,1309 623,1304 607,1297 590,1289 572,1278 553,1265 534,1250 515,1232 497,1212 479,1188 463,1162 449,1132 437,1098 428,1061 422,1020 419,975 420,925 423,926 431,931 445,938 461,948 481,961 504,976 527,995 552,1016 576,1039 599,1065 620,1094 639,1125 654,1159 665,1195 671,1234 671,1275 687,1259 703,1243 720,1226 736,1210 752,1193 769,1177 785,1160 801,1144 788,1140 773,1134 756,1126 738,1116 718,1104 698,1089 678,1072 658,1052 639,1028 621,1002 606,971 593,937 582,899 575,856 572,810 573,758 576,760 585,764 598,771 616,782 636,795 659,811 683,830 708,852 732,876 756,903 777,933 796,965 811,1000 821,1038 826,1078 825,1120 841,1103 856,1086 872,1069 888,1051 904,1034 920,1017 935,1000 951,982 941,980 928,976 912,970 894,962 874,951 853,938 831,921 810,902 789,879 769,852 752,821 737,785 725,745 717,699 713,649 714,593 717,595 726,599 740,607 758,618 779,632 803,649 827,669 852,691 877,717 900,746 921,777 939,811 953,847 961,887 964,929 960,973 975,956 991,939 1006,922 1021,904 1037,887 1052,869 1067,852 1082,834 1070,830 1055,825 1038,818 1020,809 1000,797 980,783 959,766 939,746 920,722 903,695 887,665 873,630 863,592 855,548 852,501 853,448 856,450 865,454 878,461 896,472 916,485 939,501 963,520 988,542 1012,566 1035,594 1056,623 1074,656 1089,691 1099,729 1104,769 1102,812 1117,795 1131,778 1146,761 1160,743 1174,726 1187,709 1201,692 1214,675 1203,672 1190,667 1175,660 1158,652 1140,642 1122,629 1103,614 1085,595 1068,574 1052,550 1038,523 1025,492 1016,457 1009,418 1006,375 1007,327 1010,328 1018,332 1030,339 1045,349 1064,360 1084,375 1106,392 1128,411 1149,433 1170,458 1189,484 1206,513 1219,545 1228,578 1232,614 1231,652 1245,634 1259,616 1273,597 1287,579 1300,561 1313,543 1326,525 1339,508 1330,505 1318,501 1304,495 1290,488 1274,479 1257,468 1240,454 1224,438 1208,419 1193,397 1180,373 1169,345 1161,313 1155,278 1152,239 1153,196 1155,197 1162,201 1173,207 1187,215 1203,226 1222,239 1241,254 1260,271 1280,291 1298,313 1315,336 1330,362 1341,390 1349,420 1353,452 1352,486 1363,470 1374,456 1384,443 1393,429 1403,415 1413,398 1423,379 1434,357 1426,355 1417,351 1405,346 1392,340 1379,332 1364,322 1349,311 1335,297 1321,280 1308,261 1296,240 1286,215 1278,187 1273,156 1270,122 1271,84 1273,85 1279,88 1289,93 1301,101 1315,110 1331,121 1348,135 1365,150 1382,167 1398,186 1413,207 1426,229 1436,253 1443,280 1447,307 1446,337 1452,326 1458,315 1464,304 1470,293 1468,281 1468,267 1467,252 1468,235 1471,217 1475,198 1480,178 1489,158 1499,137 1512,117 1528,96 1548,75 1571,55 1597,36 1628,17 1663,0 1663,3 1662,10 1661,22 1659,38 1657,56 1653,78 1647,101 1640,126 1631,152 1620,178 1607,204 1591,229 1573,253 1552,275 1528,294 1500,310 1499,312 1496,317 1492,325 1487,334 1482,343 1477,351 1473,357 1471,360 1501,355 1529,354 1557,358 1583,365 1608,375 1631,387 1653,401 1673,416 1691,431 1707,446 1721,461 1732,474 1742,485 1748,494 1753,500 1754,502 1718,508 1685,510 1655,509 1627,506 1601,500 1578,492 1558,483 1539,472 1522,460 1508,447 1495,435 1484,422 1475,410 1468,399 1462,389 1458,380"/>
</g>
</svg>
