<?xml version="1.0" encoding="UTF-8" standalone="no"?>
<!DOCTYPE svg PUBLIC "-//W3C//DTD SVG 1.0//EN" "http://www.w3.org/TR/2001/REC-SVG-20010904/DTD/svg10.dtd">
<svg xmlns="http://www.w3.org/2000/svg" xmlns:xlink="http://www.w3.org/1999/xlink" fill-rule="evenodd" height="1.987in" preserveAspectRatio="none" stroke-linecap="round" viewBox="0 0 1541 1987" width="1.541in">
<style type="text/css">
.brush0 { fill: rgb(255,255,255); }
.pen0 { stroke: rgb(0,0,0); stroke-width: 1; stroke-linejoin: round; }
.brush1 { fill: none; }
.pen1 { stroke: none; }
.brush2 { fill: rgb(0,0,0); }
</style>
<g>
<polygon class="pen1 brush2" points="928,560 925,557 920,549 918,539 925,530 921,527 914,519 910,507 916,493 913,490 907,482 906,470 916,456 912,453 906,444 903,431 913,417 909,413 902,404 901,392 912,380 909,375 905,364 905,350 916,338 915,337 912,335 909,331 906,326 905,320 906,314 910,307 919,300 916,296 911,285 911,273 923,262 921,258 918,247 920,235 933,223 931,218 929,207 933,194 946,184 944,180 943,170 946,158 960,148 960,147 959,144 958,139 958,134 960,128 964,122 970,117 980,114 980,113 979,110 979,105 979,100 981,94 985,90 993,86 1003,84 1002,79 1003,68 1009,57 1024,53 1024,52 1024,48 1025,44 1026,39 1029,34 1034,31 1041,29 1051,30 1052,25 1056,16 1063,10 1074,12 1077,13 1084,16 1089,24 1088,40 1092,41 1100,47 1104,57 1097,73 1100,75 1106,80 1109,89 1104,104 1108,108 1114,117 1116,132 1108,151 1111,154 1117,162 1118,174 1108,189 1111,192 1116,201 1116,213 1105,225 1108,229 1112,238 1111,251 1099,265 1101,270 1103,283 1100,298 1087,311 1088,315 1090,326 1086,339 1074,350 1075,351 1076,355 1077,361 1077,368 1075,375 1071,382 1065,387 1054,391 1054,393 1055,397 1055,402 1054,409 1051,417 1047,424 1041,430 1031,434 1032,438 1031,448 1025,458 1010,465 1010,466 1011,469 1011,474 1010,479 1008,485 1004,491 997,496 987,499 987,500 987,503 987,507 986,511 984,516 979,521 973,526 963,529 965,531 966,537 963,544 949,549 950,551 950,555 945,561 933,567 946,523 961,473 977,416 995,355 1014,288 1033,216 1051,140 1068,59 1061,57 1047,122 1032,186 1016,251 999,315 981,378 963,440 946,501 928,560 928,560"/>
<polygon class="pen1 brush2" points="622,57 619,58 614,63 611,73 615,88 611,90 604,97 602,108 611,122 608,124 604,131 603,141 611,155 608,159 604,169 604,185 615,202 612,205 609,214 610,226 624,239 622,243 618,252 620,263 632,273 630,277 628,288 632,300 645,311 645,312 644,316 644,322 645,329 648,336 652,343 658,350 668,354 667,359 668,370 673,382 686,390 686,392 686,396 686,401 687,408 690,415 695,421 702,426 713,428 713,430 713,433 715,439 717,445 720,452 726,458 733,461 743,463 743,467 746,477 754,487 770,490 770,491 770,495 771,499 773,505 776,510 781,515 789,518 800,520 800,521 800,524 801,527 802,532 806,536 811,540 818,543 828,544 827,547 827,553 832,559 847,560 846,562 847,567 852,573 864,577 849,549 834,520 819,492 803,463 788,433 773,404 758,374 743,344 728,314 713,284 699,254 685,224 672,193 659,163 647,133 635,103 642,101 653,131 664,161 677,191 690,221 703,251 717,281 732,311 747,340 762,370 777,399 793,429 808,458 823,487 838,516 853,544 868,573 872,563 876,553 876,544 868,537 871,533 876,524 876,512 868,499 871,496 875,487 873,476 861,465 864,461 869,450 868,437 856,425 857,424 859,421 862,416 865,410 866,404 864,398 860,392 851,388 853,383 855,371 851,357 838,348 839,347 841,344 844,340 846,334 846,328 844,322 839,316 829,311 831,306 834,295 831,282 817,274 818,270 819,259 814,247 800,239 800,238 801,234 802,229 801,223 800,216 796,210 789,205 780,202 780,201 781,198 781,193 780,188 778,183 774,177 768,172 758,169 758,168 759,165 759,160 758,155 756,150 751,146 744,142 734,141 734,140 734,136 734,132 733,126 730,121 725,117 717,115 706,115 705,110 702,100 694,90 679,88 679,87 678,84 677,80 674,75 670,72 665,69 658,69 649,71 647,67 641,59 632,54 622,57 622,57"/>
<polygon class="pen1 brush2" points="811,689 822,694 827,702 826,711 822,718 801,698 780,679 758,659 737,639 715,618 694,598 673,577 651,557 630,536 609,515 589,494 568,472 548,451 529,429 510,407 491,385 486,388 505,412 524,435 544,457 564,479 585,500 605,521 626,541 648,562 669,582 691,602 712,622 734,642 756,663 777,683 799,704 820,725 809,725 803,721 801,717 801,715 788,718 782,714 780,709 780,706 771,708 764,708 759,706 755,703 753,699 751,696 750,694 750,693 740,695 732,695 726,693 722,689 719,685 717,682 716,679 716,678 708,680 701,680 696,678 692,675 689,671 687,668 685,665 685,664 676,665 668,664 662,660 657,655 654,650 651,646 649,642 649,641 639,643 631,642 625,638 621,633 618,628 616,623 615,619 615,618 601,615 593,607 589,598 588,594 579,593 571,589 565,584 561,578 558,573 556,568 555,564 555,563 540,557 534,547 533,538 533,534 520,530 515,521 515,513 516,509 501,502 497,492 498,483 499,479 484,468 479,455 479,445 480,441 468,431 466,422 468,415 470,412 458,403 456,394 460,387 463,384 456,371 456,362 460,356 462,354 470,348 479,350 486,355 489,358 496,353 501,351 507,352 511,354 515,357 518,361 519,363 520,364 526,361 532,361 537,363 542,366 545,370 548,374 549,377 550,378 559,375 566,374 572,376 576,379 578,383 580,387 581,390 581,391 590,390 598,391 603,393 607,397 609,401 610,404 611,407 611,408 627,411 636,419 639,427 639,431 655,432 663,441 666,451 666,456 681,458 689,467 692,476 692,480 706,484 712,494 713,504 713,509 723,510 729,513 732,518 734,523 733,528 733,533 731,536 731,537 745,541 752,552 754,562 754,567 768,572 771,582 770,592 768,597 783,604 787,615 786,625 784,630 798,636 803,645 802,654 801,658 811,666 814,676 812,685 811,689 811,689"/>
<polygon class="pen1 brush2" points="757,807 757,803 756,795 751,787 740,783 740,779 738,771 732,764 717,763 717,759 716,750 709,742 696,740 696,736 693,727 686,720 673,720 672,716 667,707 658,701 645,702 645,698 643,689 636,682 621,682 620,678 616,670 608,663 595,665 595,664 593,661 591,658 588,654 584,651 579,649 573,649 565,651 565,650 563,647 561,644 557,640 553,637 548,635 541,635 534,638 534,637 533,635 531,632 528,629 524,627 518,625 512,626 504,628 504,627 502,625 500,622 497,619 493,617 488,616 481,617 473,621 473,620 471,618 469,616 466,613 461,612 456,613 450,615 443,621 442,620 440,618 437,616 433,613 428,611 423,611 417,613 412,617 409,615 403,611 394,612 385,621 382,620 374,617 366,618 362,625 361,628 359,634 362,642 372,649 371,653 370,660 373,668 386,672 385,675 385,682 390,689 402,693 402,697 405,706 413,715 429,720 429,724 431,732 438,739 453,740 454,743 456,751 463,757 476,757 477,761 481,769 490,776 504,776 505,777 506,780 509,783 513,787 518,790 524,793 532,794 540,792 540,793 542,795 544,798 548,801 552,804 557,805 563,805 570,803 571,804 573,807 576,811 580,814 585,818 591,819 597,818 605,814 606,815 608,817 611,821 616,824 622,826 628,827 635,827 642,823 643,824 644,825 647,828 651,830 656,831 661,831 667,830 673,826 674,827 675,829 678,831 682,833 687,835 692,835 699,833 706,828 707,829 708,830 711,833 714,835 718,836 724,836 730,834 737,830 738,832 741,836 747,838 757,831 758,833 760,836 765,837 774,834 750,823 726,812 702,801 678,790 654,779 630,768 605,757 581,746 557,735 533,724 509,712 485,700 461,688 438,675 415,662 392,648 395,642 418,655 441,668 465,680 488,692 512,704 536,716 560,727 584,739 608,750 632,761 656,772 680,783 704,794 728,805 752,816 776,827 773,820 771,812 766,807 757,807 757,807"/>
<polygon class="pen1 brush2" points="699,925 708,923 715,927 719,932 720,938 702,935 683,933 663,930 641,927 619,924 595,921 571,918 546,914 520,911 493,907 466,903 438,899 410,895 382,891 353,886 324,881 324,888 348,893 373,898 397,902 421,906 446,910 470,913 495,916 520,919 545,922 569,924 594,927 619,930 644,933 670,936 695,939 720,943 713,949 708,950 705,950 704,949 697,957 692,957 688,954 686,952 676,962 667,964 661,962 659,961 653,967 647,971 642,972 638,971 634,970 631,968 629,967 628,966 623,972 618,975 613,977 609,976 604,975 601,974 599,973 598,972 593,978 587,981 581,982 575,982 570,980 566,978 563,977 562,976 556,982 551,985 545,985 539,984 534,983 531,980 528,979 527,978 522,982 516,984 511,984 507,982 503,980 500,978 498,977 497,976 490,980 484,981 477,980 472,978 467,976 463,973 461,971 460,970 453,973 447,974 441,973 437,970 434,968 431,965 430,963 429,962 418,966 411,962 406,956 405,953 391,956 383,952 379,945 378,942 369,943 362,942 356,940 352,937 350,933 348,929 347,927 347,926 334,926 327,920 325,914 325,911 312,911 306,906 305,898 305,895 294,891 290,885 289,880 290,878 292,870 299,867 306,867 310,867 315,855 323,852 329,853 332,854 335,849 340,845 345,844 350,844 354,845 358,846 361,848 362,848 370,838 379,836 386,839 389,841 395,835 400,832 406,831 410,831 414,833 417,835 418,836 419,837 425,832 431,830 436,830 440,831 444,833 447,836 448,837 449,838 455,833 460,831 465,831 470,833 474,836 477,838 479,840 480,841 486,837 492,836 497,836 501,838 505,840 508,842 509,844 510,845 516,841 521,840 527,841 531,844 535,847 538,850 539,853 540,854 553,848 560,853 564,860 565,864 571,860 577,859 583,860 587,863 591,866 594,869 596,871 597,872 609,868 616,872 621,880 622,884 636,882 644,887 648,894 649,898 662,895 670,900 674,906 675,909 686,909 694,915 698,922 699,925 699,925"/>
<polygon class="pen1 brush2" points="649,1077 648,1074 643,1069 636,1065 625,1067 624,1064 619,1060 612,1058 601,1063 599,1060 594,1053 585,1049 574,1054 572,1051 567,1046 560,1043 550,1050 547,1047 540,1043 531,1041 521,1047 519,1044 514,1039 506,1036 496,1043 493,1041 487,1036 478,1035 469,1042 466,1040 460,1037 451,1037 442,1044 441,1043 439,1042 435,1040 431,1039 426,1039 421,1039 416,1042 412,1047 410,1046 404,1044 396,1045 386,1053 384,1052 377,1050 370,1052 362,1061 359,1060 352,1058 344,1061 338,1073 335,1072 327,1072 319,1075 314,1084 311,1083 304,1083 298,1087 295,1098 292,1098 286,1100 281,1104 280,1111 280,1113 281,1119 286,1123 297,1124 297,1127 300,1133 306,1137 318,1135 319,1138 322,1143 328,1146 339,1145 339,1146 341,1148 343,1150 346,1153 350,1155 355,1156 362,1155 369,1152 371,1155 376,1160 385,1163 396,1158 398,1160 403,1164 411,1166 419,1161 420,1162 421,1163 424,1165 428,1167 432,1168 438,1167 443,1165 449,1161 450,1162 452,1163 455,1165 460,1166 465,1166 470,1166 476,1163 481,1158 484,1159 491,1162 500,1161 508,1155 509,1156 512,1157 516,1158 521,1159 526,1159 531,1158 536,1154 540,1148 541,1148 544,1149 547,1150 552,1150 557,1150 562,1148 567,1144 571,1138 574,1139 580,1139 588,1136 595,1127 598,1128 605,1129 613,1126 621,1114 623,1115 629,1116 636,1113 643,1104 645,1105 649,1107 654,1104 659,1095 660,1096 663,1097 668,1096 673,1090 650,1092 628,1094 605,1096 583,1098 560,1100 538,1102 515,1104 493,1106 470,1107 448,1109 425,1110 403,1112 380,1113 357,1113 335,1114 312,1114 312,1108 334,1108 356,1107 378,1107 400,1106 423,1105 446,1104 469,1102 492,1101 515,1099 538,1097 560,1095 583,1093 605,1091 627,1088 649,1086 670,1083 666,1079 661,1075 656,1073 649,1077 649,1077"/>
<polygon class="pen1 brush2" points="628,1243 626,1238 621,1233 615,1233 608,1239 606,1237 602,1232 596,1229 588,1232 586,1230 582,1226 575,1224 567,1229 565,1227 560,1222 553,1220 544,1225 542,1222 537,1217 531,1216 523,1222 520,1220 514,1217 505,1216 497,1222 496,1219 491,1215 485,1213 476,1220 474,1218 468,1214 460,1214 453,1220 451,1219 445,1216 437,1217 430,1225 427,1223 421,1221 413,1222 406,1229 404,1228 398,1226 390,1228 383,1236 381,1235 375,1233 369,1235 364,1243 361,1242 356,1242 349,1245 345,1255 342,1254 335,1254 328,1258 324,1266 322,1266 316,1267 311,1271 310,1280 307,1280 302,1282 297,1286 297,1292 297,1294 299,1298 304,1301 314,1301 314,1304 317,1309 322,1313 331,1310 332,1312 335,1316 341,1318 351,1316 353,1318 357,1322 365,1324 376,1320 378,1322 382,1327 390,1328 399,1323 401,1325 405,1328 412,1329 419,1324 421,1326 427,1329 435,1329 443,1324 446,1325 453,1327 462,1326 472,1318 474,1319 480,1321 487,1320 493,1313 496,1314 504,1316 513,1315 520,1306 523,1307 531,1306 539,1303 545,1294 548,1295 554,1295 560,1292 565,1284 568,1285 574,1286 581,1283 587,1273 589,1274 594,1274 600,1271 605,1262 607,1263 610,1264 615,1262 618,1253 620,1253 623,1254 627,1252 629,1246 611,1250 592,1253 573,1257 554,1261 535,1264 516,1268 497,1271 478,1274 459,1277 439,1280 420,1283 401,1286 382,1288 363,1290 344,1292 325,1293 324,1286 343,1285 362,1284 381,1282 400,1280 419,1277 438,1275 457,1272 476,1269 495,1266 514,1263 533,1259 552,1256 571,1253 590,1249 609,1246 628,1243 628,1243"/>
<polygon class="pen1 brush2" points="1027,574 1016,573 1008,578 1004,587 1004,597 1034,586 1065,574 1095,563 1126,551 1156,539 1187,528 1217,516 1248,503 1278,491 1308,479 1338,466 1369,453 1398,440 1428,426 1458,412 1487,398 1490,402 1462,418 1433,433 1404,447 1374,461 1344,475 1313,488 1282,501 1252,514 1220,526 1189,538 1158,550 1127,561 1096,573 1065,584 1034,594 1004,605 1016,611 1023,610 1026,606 1027,604 1040,612 1048,611 1053,607 1054,604 1062,610 1069,612 1076,613 1081,611 1085,609 1088,607 1090,605 1091,604 1100,611 1108,614 1115,614 1121,612 1126,609 1129,606 1131,604 1132,603 1139,608 1146,611 1152,611 1158,609 1163,607 1166,604 1168,602 1169,601 1178,606 1186,608 1194,608 1202,605 1207,601 1212,598 1215,595 1216,594 1226,600 1235,601 1243,600 1250,597 1255,593 1259,589 1262,585 1263,584 1271,587 1278,586 1284,584 1290,581 1294,577 1297,574 1299,571 1300,570 1310,573 1319,573 1327,571 1333,567 1338,562 1342,558 1344,554 1345,553 1355,554 1363,553 1369,550 1374,546 1377,541 1379,537 1381,534 1381,533 1396,534 1404,526 1408,517 1409,513 1420,514 1428,512 1433,508 1437,504 1439,498 1440,494 1440,490 1440,489 1451,488 1460,484 1466,480 1470,474 1472,468 1473,464 1474,460 1474,459 1484,458 1490,455 1494,451 1496,446 1497,442 1497,438 1496,435 1496,434 1506,433 1513,430 1516,425 1518,420 1518,416 1517,411 1516,408 1516,407 1529,398 1533,389 1532,381 1531,378 1529,372 1525,368 1520,367 1515,367 1510,368 1505,369 1502,370 1501,371 1496,363 1491,359 1485,357 1480,357 1475,359 1471,361 1468,363 1467,364 1461,357 1455,354 1449,354 1443,356 1437,359 1433,362 1430,364 1429,365 1421,358 1414,354 1408,354 1403,356 1398,358 1395,361 1393,364 1392,365 1383,360 1375,357 1369,358 1363,360 1359,364 1356,367 1355,370 1354,371 1345,367 1337,367 1330,368 1324,371 1320,374 1317,377 1316,380 1315,381 1306,377 1299,377 1292,379 1287,383 1283,388 1280,392 1278,396 1277,397 1268,393 1260,392 1254,394 1249,398 1245,402 1242,407 1241,410 1240,411 1232,408 1225,408 1219,411 1214,416 1210,421 1208,426 1206,430 1206,431 1195,428 1187,429 1182,432 1179,437 1177,442 1176,447 1176,451 1176,452 1167,449 1160,450 1153,453 1148,458 1144,463 1141,468 1140,472 1139,473 1123,472 1115,480 1111,491 1111,496 1101,495 1094,497 1088,501 1085,507 1083,513 1081,518 1081,522 1081,523 1071,522 1064,524 1059,527 1056,532 1055,537 1054,541 1054,545 1054,546 1038,549 1030,559 1027,569 1027,574 1027,574"/>
<polygon class="pen1 brush2" points="714,1272 717,1271 723,1271 730,1273 736,1280 738,1279 744,1279 750,1283 753,1293 756,1292 762,1292 768,1295 771,1304 774,1303 781,1303 787,1307 790,1317 793,1317 800,1319 806,1324 808,1333 811,1332 817,1332 823,1335 825,1345 828,1345 835,1347 841,1351 842,1361 845,1362 851,1364 856,1370 856,1380 859,1380 866,1383 871,1388 872,1398 874,1399 880,1402 884,1408 885,1418 887,1419 892,1422 896,1428 895,1438 897,1439 901,1442 904,1449 901,1459 904,1461 908,1465 912,1472 909,1480 911,1482 914,1486 915,1492 910,1500 912,1502 915,1507 916,1513 912,1517 910,1518 906,1520 900,1520 892,1515 890,1516 885,1518 879,1517 875,1509 873,1510 868,1510 862,1508 856,1500 853,1501 847,1501 840,1497 834,1488 831,1488 825,1488 818,1484 814,1473 811,1474 806,1473 800,1470 798,1462 795,1462 790,1460 784,1455 781,1445 778,1444 771,1441 765,1434 764,1422 761,1421 756,1418 751,1413 750,1404 747,1403 741,1399 736,1392 737,1381 734,1379 728,1374 723,1366 724,1355 722,1354 718,1350 715,1344 716,1334 714,1333 710,1330 707,1323 709,1311 707,1310 703,1307 701,1300 703,1290 701,1290 697,1289 695,1285 697,1276 696,1276 694,1275 692,1272 693,1266 889,1500 893,1496 699,1263 703,1261 708,1261 712,1264 714,1272 714,1272"/>
<polygon class="pen1 brush2" points="957,720 957,719 959,716 961,713 964,708 968,705 973,702 980,701 987,703 987,702 988,699 990,696 994,692 998,690 1003,688 1010,689 1018,693 1018,692 1020,689 1022,685 1026,680 1030,677 1036,675 1043,675 1051,679 1051,678 1053,674 1055,670 1059,666 1063,663 1068,661 1075,663 1082,668 1083,667 1085,664 1089,661 1094,657 1099,654 1106,654 1112,656 1119,661 1119,660 1121,657 1123,653 1127,648 1131,645 1137,644 1144,646 1152,651 1153,650 1155,647 1158,644 1163,640 1168,638 1174,637 1180,639 1186,645 1187,644 1189,642 1193,639 1197,636 1203,634 1209,634 1215,636 1222,642 1223,641 1226,639 1230,636 1235,634 1241,633 1247,633 1253,635 1260,641 1261,640 1263,639 1266,637 1271,635 1276,634 1282,635 1288,638 1294,644 1295,643 1297,642 1301,640 1305,638 1310,638 1316,640 1322,644 1328,651 1329,650 1331,649 1335,647 1340,646 1345,646 1351,648 1356,653 1361,661 1362,660 1365,659 1370,658 1375,657 1381,658 1386,660 1390,665 1393,672 1397,671 1406,670 1415,674 1420,688 1424,688 1433,689 1441,693 1443,702 1443,705 1442,711 1435,718 1422,722 1422,726 1420,734 1413,741 1398,739 1397,742 1394,750 1386,755 1372,755 1372,756 1370,759 1367,762 1364,766 1358,770 1352,772 1344,772 1334,770 1334,771 1332,774 1330,778 1327,781 1322,784 1316,786 1309,784 1301,780 1300,781 1299,784 1296,787 1292,790 1288,793 1282,794 1277,794 1270,790 1269,791 1267,793 1264,796 1260,799 1255,801 1248,801 1241,800 1233,796 1232,797 1229,799 1225,802 1219,804 1212,805 1205,805 1198,803 1190,797 1189,798 1187,799 1183,801 1178,803 1172,804 1166,804 1159,802 1153,797 1152,798 1149,800 1144,802 1139,804 1132,805 1125,804 1118,800 1112,793 1111,794 1108,795 1103,797 1097,798 1090,798 1083,797 1077,793 1071,786 1070,787 1067,788 1063,789 1058,790 1053,789 1047,787 1042,783 1038,776 1037,777 1035,778 1031,779 1026,780 1020,779 1014,777 1009,773 1003,765 1002,765 1000,766 996,768 992,768 987,767 981,765 975,760 970,753 968,755 964,758 957,757 949,746 947,747 943,749 937,748 929,740 949,739 970,738 992,737 1015,737 1040,736 1065,736 1091,735 1119,735 1149,734 1179,732 1212,731 1246,728 1282,725 1320,722 1359,717 1401,712 1399,705 1365,709 1332,713 1299,716 1267,719 1235,721 1204,723 1173,725 1143,726 1114,727 1085,728 1057,729 1030,730 1004,731 978,732 954,732 930,733 935,727 942,720 949,717 957,720 957,720"/>
<polygon class="pen1 brush2" points="909,850 910,849 912,847 915,844 919,842 923,840 928,839 934,840 939,844 940,843 941,841 944,839 948,836 953,835 958,836 964,838 970,844 971,843 973,841 976,838 980,835 985,833 990,833 995,835 1001,841 1002,840 1004,838 1008,835 1012,832 1017,831 1022,831 1027,834 1031,841 1032,840 1035,839 1039,837 1044,836 1050,835 1055,836 1060,839 1064,845 1065,844 1067,842 1070,840 1074,837 1079,836 1084,837 1090,840 1095,847 1096,846 1099,845 1103,843 1108,841 1113,841 1118,842 1122,845 1126,851 1127,851 1130,850 1134,849 1138,848 1143,849 1148,851 1153,855 1156,861 1157,860 1160,859 1165,858 1170,857 1175,858 1181,860 1186,864 1189,871 1190,871 1192,870 1196,869 1200,869 1205,870 1210,872 1215,877 1219,884 1222,883 1230,882 1239,886 1246,899 1249,898 1257,898 1265,904 1270,918 1274,918 1283,919 1292,924 1294,936 1298,936 1305,938 1312,945 1312,959 1316,960 1323,963 1329,969 1327,978 1326,980 1323,985 1316,989 1304,989 1303,992 1298,998 1290,1000 1277,995 1276,998 1271,1002 1263,1004 1250,999 1249,1000 1247,1002 1244,1004 1240,1007 1235,1009 1228,1009 1221,1007 1213,1002 1212,1003 1211,1005 1208,1007 1204,1009 1200,1011 1194,1010 1189,1008 1183,1002 1180,1004 1173,1007 1164,1007 1155,999 1154,1000 1152,1001 1148,1002 1143,1003 1138,1004 1133,1002 1127,999 1122,993 1121,994 1118,995 1113,996 1107,997 1101,996 1095,994 1089,990 1084,983 1083,983 1080,984 1076,985 1072,985 1067,985 1062,983 1057,979 1054,972 1053,972 1049,973 1044,974 1039,974 1033,972 1027,969 1023,964 1020,956 1019,956 1015,957 1010,957 1005,956 999,954 993,951 989,946 987,938 983,938 975,937 966,932 962,919 958,920 950,919 941,914 935,901 932,901 924,900 916,894 910,881 908,882 903,883 897,880 893,868 892,869 888,869 884,866 879,857 903,866 928,874 953,883 978,892 1004,900 1029,909 1055,917 1082,925 1108,933 1134,940 1160,947 1186,954 1212,959 1238,965 1263,969 1288,973 1290,966 1265,962 1240,958 1214,953 1188,947 1162,941 1136,934 1110,927 1084,919 1058,911 1032,903 1006,894 981,886 956,877 931,868 907,860 883,851 890,848 897,844 903,844 909,850 909,850"/>
<polygon class="pen1 brush2" points="845,968 839,960 831,957 824,959 821,962 841,976 862,990 882,1005 903,1019 924,1034 945,1048 965,1063 986,1077 1007,1092 1028,1106 1049,1119 1070,1133 1091,1146 1112,1158 1132,1170 1153,1182 1151,1188 1129,1176 1108,1164 1086,1151 1065,1138 1043,1125 1022,1111 1001,1097 980,1083 959,1069 938,1054 917,1039 896,1025 876,1010 855,995 835,981 815,966 817,975 820,979 823,980 825,980 825,991 830,995 835,996 837,996 838,1009 843,1017 849,1019 852,1020 854,1034 861,1042 868,1045 872,1046 873,1058 879,1065 886,1068 889,1068 891,1082 900,1090 909,1094 913,1095 916,1110 925,1117 935,1120 939,1120 944,1131 952,1136 960,1138 963,1138 965,1145 969,1151 974,1154 980,1157 985,1158 989,1158 992,1158 993,1158 1000,1170 1010,1175 1018,1175 1021,1174 1028,1184 1036,1186 1044,1185 1047,1184 1055,1195 1064,1196 1071,1194 1074,1192 1080,1199 1086,1203 1091,1205 1097,1206 1101,1205 1105,1204 1107,1203 1108,1202 1118,1210 1126,1210 1131,1207 1133,1205 1143,1214 1152,1213 1157,1208 1159,1205 1171,1209 1179,1208 1184,1204 1185,1202 1188,1194 1185,1188 1179,1183 1176,1181 1180,1169 1176,1161 1169,1158 1166,1157 1167,1145 1161,1137 1153,1133 1149,1132 1149,1118 1144,1111 1136,1108 1133,1108 1131,1095 1124,1088 1117,1087 1114,1087 1110,1074 1102,1068 1094,1067 1091,1067 1087,1054 1078,1049 1068,1049 1064,1049 1060,1037 1052,1032 1044,1031 1041,1032 1035,1020 1026,1017 1017,1018 1013,1019 1006,1006 998,1004 990,1007 987,1009 985,1002 980,998 975,995 970,994 965,994 960,994 957,995 956,995 951,984 941,983 933,986 929,988 922,977 912,975 904,978 901,980 893,970 885,968 878,970 875,972 871,967 866,964 861,963 856,964 852,965 848,966 846,967 845,968 845,968"/>
<polygon class="pen1 brush2" points="777,1127 775,1116 769,1113 763,1115 757,1118 1007,1374 1004,1380 753,1121 752,1129 754,1132 756,1134 757,1134 756,1144 758,1149 762,1151 764,1151 763,1163 766,1170 771,1174 774,1175 773,1188 777,1196 782,1200 785,1201 784,1212 788,1220 794,1224 797,1225 796,1238 802,1246 809,1251 812,1253 812,1266 819,1274 827,1278 831,1279 833,1290 839,1296 845,1299 848,1300 852,1313 860,1320 868,1323 872,1324 876,1335 883,1340 890,1341 893,1341 897,1352 904,1355 910,1356 913,1355 919,1367 926,1371 933,1371 936,1370 945,1381 954,1385 961,1385 964,1384 971,1392 979,1394 985,1392 987,1391 993,1400 1000,1401 1006,1399 1008,1397 1017,1402 1024,1402 1029,1400 1031,1398 1035,1392 1034,1386 1029,1380 1027,1378 1033,1368 1032,1361 1027,1356 1024,1354 1027,1344 1023,1337 1017,1332 1014,1330 1017,1318 1013,1311 1007,1308 1004,1307 1004,1294 999,1287 993,1284 990,1283 989,1271 983,1265 976,1263 973,1263 972,1251 965,1244 958,1241 954,1240 952,1228 946,1222 939,1220 936,1220 934,1210 927,1206 919,1205 915,1205 912,1193 904,1189 896,1190 893,1191 890,1180 883,1174 875,1172 871,1172 868,1161 860,1158 852,1158 848,1159 843,1148 835,1146 827,1147 824,1148 819,1138 812,1134 806,1134 803,1135 796,1127 788,1125 780,1126 777,1127 777,1127"/>
<polygon class="pen1 brush2" points="686,1249 668,1236 673,1218 677,1200 682,1182 687,1165 692,1147 698,1130 704,1112 710,1095 733,1111 739,1104 713,1087 719,1070 725,1052 731,1034 738,1016 746,998 753,980 762,964 770,948 794,959 797,952 774,941 781,931 788,921 794,910 800,899 806,888 811,877 817,866 822,855 848,855 848,847 827,847 869,753 902,747 901,739 875,743 881,729 887,715 893,701 899,686 904,672 910,658 916,644 922,630 967,618 966,610 926,620 935,601 926,597 918,618 891,590 883,597 913,627 907,641 901,656 895,670 889,684 883,698 877,713 871,727 865,742 841,722 835,729 861,750 818,844 791,833 788,841 814,853 808,864 802,875 797,886 791,896 785,907 779,917 773,928 766,938 740,936 740,945 760,948 751,963 743,979 736,996 729,1013 722,1031 716,1049 710,1067 704,1084 683,1084 685,1094 702,1094 696,1112 690,1129 685,1147 679,1165 674,1182 669,1200 663,1218 658,1236 639,1239 641,1247 655,1246 643,1289 632,1333 623,1378 615,1424 609,1470 605,1517 603,1562 602,1607 612,1607 612,1564 614,1520 618,1474 625,1426 633,1379 642,1332 653,1287 665,1243 680,1256 686,1249"/>
<polygon class="pen1 brush2" points="216,1644 217,1645 221,1647 227,1651 235,1655 245,1659 258,1663 272,1665 288,1667 298,1668 310,1669 324,1673 339,1678 355,1685 372,1694 390,1706 407,1722 423,1740 439,1762 454,1788 467,1818 477,1853 486,1892 492,1937 494,1987 492,1985 487,1981 480,1975 470,1968 458,1960 445,1954 431,1948 416,1945 407,1943 394,1939 378,1934 360,1926 341,1917 320,1905 299,1891 279,1875 260,1856 243,1835 228,1811 217,1784 209,1754 206,1720 208,1684 216,1644"/>
<polygon class="pen1 brush2" points="389,1429 387,1427 381,1422 371,1415 358,1406 341,1396 322,1386 299,1377 274,1368 246,1362 216,1358 185,1357 151,1360 116,1368 80,1382 42,1401 4,1428 4,1432 5,1444 8,1460 15,1481 27,1503 45,1526 70,1547 104,1564 123,1571 142,1577 160,1583 178,1587 197,1589 215,1591 233,1590 251,1588 270,1584 288,1578 307,1570 326,1559 346,1545 366,1529 387,1510 408,1488 406,1489 399,1492 388,1497 374,1502 357,1509 337,1515 315,1521 291,1527 265,1531 239,1533 212,1534 185,1531 159,1526 133,1518 108,1505 85,1488 88,1489 95,1490 105,1491 118,1492 134,1493 152,1493 172,1493 194,1492 217,1490 241,1486 265,1482 291,1475 316,1467 341,1457 365,1444 389,1429 389,1429"/>
<polygon class="pen1 brush2" points="341,1462 347,1462 353,1462 358,1462 362,1462 366,1462 370,1462 373,1462 376,1462 376,1463 375,1465 373,1469 371,1474 366,1481 361,1488 353,1497 344,1506 332,1509 319,1513 306,1516 293,1520 279,1523 265,1525 250,1527 235,1528 219,1528 203,1527 187,1526 171,1522 154,1518 137,1512 120,1504 102,1495 104,1496 110,1496 117,1497 127,1498 138,1499 152,1500 167,1500 183,1499 201,1498 220,1497 239,1494 259,1490 279,1485 300,1479 321,1471 341,1462"/>
</g>
</svg>
