<?xml version="1.0" encoding="UTF-8" standalone="no"?>
<!DOCTYPE svg PUBLIC "-//W3C//DTD SVG 1.0//EN" "http://www.w3.org/TR/2001/REC-SVG-20010904/DTD/svg10.dtd">
<svg xmlns="http://www.w3.org/2000/svg" xmlns:xlink="http://www.w3.org/1999/xlink" fill-rule="evenodd" height="2.007in" preserveAspectRatio="none" stroke-linecap="round" viewBox="0 0 1028 2007" width="1.028in">
<style type="text/css">
.brush0 { fill: rgb(255,255,255); }
.pen0 { stroke: rgb(0,0,0); stroke-width: 1; stroke-linejoin: round; }
.brush1 { fill: none; }
.pen1 { stroke: none; }
.brush2 { fill: rgb(0,0,0); }
</style>
<g>
<polygon class="pen1 brush2" points="362,406 355,397 348,389 340,383 333,378 324,375 316,373 307,372 298,372 287,372 277,374 265,376 253,379 241,383 227,387 212,391 197,395 166,399 139,398 115,392 95,383 80,373 68,364 61,358 59,355 98,338 135,319 167,298 197,276 224,254 248,230 270,207 288,185 304,164 318,143 329,125 338,109 345,96 349,86 352,80 353,78 355,80 361,87 369,99 377,114 384,133 389,156 390,183 386,213 380,244 376,273 375,299 375,322 378,342 384,359 391,371 400,380 411,390 431,413 460,446 497,488 539,538 586,594 637,654 689,717 743,782 795,846 846,909 894,968 938,1022 975,1070 1006,1110 1028,1140 955,1132 949,1124 933,1101 907,1065 873,1019 832,964 786,904 736,840 684,774 630,708 577,646 525,588 477,538 432,497 393,468 361,452 338,453 318,461 298,468 278,474 259,481 241,489 224,501 209,516 196,536 186,563 179,597 175,639 175,691 179,754 188,828 202,915 221,1017 246,1123 276,1222 310,1314 347,1401 387,1481 428,1555 471,1624 515,1687 558,1744 601,1796 642,1843 681,1885 717,1923 750,1955 778,1983 802,2007 800,2007 795,2005 786,2003 774,2000 759,1996 741,1990 721,1983 699,1975 674,1965 648,1953 620,1940 590,1925 560,1908 528,1888 496,1867 463,1844 429,1818 396,1790 363,1759 330,1726 297,1690 266,1651 235,1609 205,1564 177,1516 151,1465 126,1410 104,1353 83,1291 65,1226 50,1158 38,1085 33,1044 29,999 27,951 27,901 29,850 34,799 42,748 54,697 70,649 90,603 115,561 145,523 181,489 222,462 270,441 325,427 334,425 341,422 348,419 353,415 357,412 360,409 361,407 362,406 362,406"/>
<polygon class="pen1 brush2" points="25,307 56,351 74,343 93,334 112,323 132,310 151,296 172,281 192,265 211,247 231,228 250,209 269,188 286,166 303,144 319,120 334,96 348,72 316,30 314,45 307,62 296,82 282,103 264,125 244,148 221,172 198,194 173,216 149,237 124,256 100,273 78,287 58,297 40,304 25,307 25,307"/>
<polygon class="pen1 brush2" points="282,17 266,24 249,32 230,44 211,56 192,71 172,87 152,104 133,122 114,140 95,159 78,178 62,196 47,215 35,232 24,249 15,264 10,274 8,283 7,291 8,296 12,300 17,301 25,301 35,298 45,294 56,289 67,282 80,274 93,266 106,256 120,245 135,234 149,222 164,210 179,196 193,183 207,169 221,155 235,140 248,126 271,98 288,74 301,53 308,36 310,23 306,16 297,14 282,17"/>
<polygon class="pen1 brush2" points="791,709 808,708 825,706 841,701 856,696 871,689 885,680 898,670 910,659 921,647 931,634 939,620 947,606 952,590 957,574 959,557 960,540 959,523 957,506 952,489 947,474 939,459 931,445 921,432 910,420 898,409 885,400 871,391 856,384 841,379 825,374 808,372 791,371 774,372 757,374 740,379 725,384 710,391 696,400 683,409 671,420 660,432 651,445 642,459 635,474 630,489 625,506 623,523 622,540 623,557 625,574 630,590 635,606 642,620 651,634 660,647 671,659 683,670 696,680 710,689 725,696 740,701 757,706 774,708 791,709"/>
<polygon class="pen1 brush2" points="792,721 768,719 749,715 732,710 718,704 705,696 693,688 682,679 669,669 768,790 773,791 778,791 783,791 788,791 807,790 825,786 841,780 856,771 870,761 882,749 894,736 904,721 914,706 922,691 930,676 936,661 942,646 947,632 951,620 954,609 951,609 940,633 926,654 910,673 890,690 869,703 845,713 819,719 792,721"/>
<polygon class="pen1 brush0" points="791,675 818,672 843,664 866,652 886,636 903,616 915,593 923,567 926,540 923,513 915,488 903,465 886,445 866,428 843,416 818,408 791,405 763,408 738,416 715,428 695,445 679,465 666,488 659,513 656,540 659,567 666,593 679,616 695,636 715,652 738,664 763,672 791,675 791,675"/>
<polygon class="pen1 brush0" points="791,663 766,661 743,653 722,642 704,627 688,609 677,588 670,565 667,540 670,515 677,493 688,472 704,453 722,438 743,427 766,420 791,417 816,420 839,427 859,438 878,453 892,472 904,493 911,515 913,540 911,565 904,588 892,609 878,627 859,642 839,653 816,661 791,663"/>
<polygon class="pen1 brush0" points="791,609 799,608 806,606 812,602 818,598 823,592 826,585 828,577 829,569 829,566 829,563 829,560 828,557 829,557 831,557 832,558 833,558 844,557 853,554 862,549 869,542 876,535 880,526 883,516 884,505 883,495 880,485 876,477 869,469 862,463 853,458 844,455 833,454 826,454 820,456 814,458 809,460 804,464 799,467 795,472 791,477 787,472 783,468 779,465 774,462 768,460 763,458 757,457 751,457 740,458 730,461 722,466 714,472 708,480 704,488 701,498 700,508 701,519 704,528 708,537 714,544 722,551 730,555 740,558 751,559 751,559 751,559 751,559 752,559 751,562 751,564 751,567 751,569 752,577 754,585 758,592 762,598 768,602 775,606 783,608 791,609"/>
<polygon class="pen1 brush2" points="745,525 752,524 757,521 760,516 761,511 760,504 757,499 752,495 745,494 740,495 735,499 732,504 731,511 732,516 735,521 740,524 745,525 745,525"/>
<polygon class="pen1 brush2" points="833,523 839,522 844,519 848,514 849,507 848,502 844,497 839,494 833,493 827,494 823,497 819,502 818,507 819,514 823,519 827,522 833,523"/>
<polygon class="pen1 brush0" points="724,1955 702,1938 680,1920 659,1902 637,1884 617,1865 596,1846 576,1827 556,1807 536,1788 516,1768 497,1747 478,1727 459,1706 440,1685 421,1663 403,1642 414,1644 425,1647 435,1651 445,1656 455,1661 464,1668 473,1675 482,1682 490,1676 480,1668 469,1660 457,1652 445,1645 432,1639 419,1634 406,1630 393,1629 371,1600 350,1570 330,1541 310,1511 290,1481 271,1450 252,1418 234,1386 247,1389 260,1393 273,1399 286,1405 298,1411 310,1418 321,1426 332,1433 339,1427 326,1418 313,1410 300,1403 286,1396 272,1389 258,1384 243,1378 228,1373 212,1334 196,1295 182,1256 169,1216 157,1176 146,1134 137,1093 130,1050 142,1062 155,1074 167,1087 179,1099 191,1112 203,1125 214,1139 225,1153 232,1149 220,1134 208,1119 196,1105 183,1090 170,1077 156,1063 143,1049 129,1035 121,961 117,888 118,814 123,740 129,753 134,765 139,778 144,791 149,805 154,818 158,832 163,845 171,842 168,832 164,817 158,799 152,779 145,760 138,743 131,730 126,723 129,703 132,682 135,661 139,640 143,620 147,599 152,578 157,558 149,555 143,576 138,597 133,619 129,640 125,662 122,683 119,705 116,726 107,739 98,753 89,767 82,782 74,796 68,811 61,826 55,841 65,845 69,831 74,818 80,806 87,793 93,781 101,769 108,757 115,744 110,818 110,891 113,964 119,1037 114,1054 108,1072 102,1089 97,1106 91,1123 86,1141 83,1158 80,1176 89,1176 91,1162 94,1147 97,1132 102,1117 107,1102 112,1087 117,1072 122,1058 129,1099 137,1140 147,1181 159,1222 172,1263 186,1303 203,1341 221,1379 212,1411 206,1445 203,1480 204,1513 213,1511 214,1481 218,1451 222,1422 228,1392 245,1425 263,1456 282,1488 302,1518 323,1548 344,1578 365,1607 387,1636 384,1664 384,1697 387,1732 396,1767 406,1764 399,1738 395,1706 394,1675 396,1646 414,1668 433,1690 451,1711 470,1732 489,1752 509,1773 529,1793 549,1812 569,1832 590,1851 611,1870 632,1888 653,1907 675,1925 697,1942 720,1960 724,1955"/>
<polygon class="pen1 brush0" points="116,167 128,169 136,175 142,184 144,194 142,205 136,214 128,221 116,223 106,221 97,214 91,205 89,194 91,184 97,175 106,169 116,167 116,167"/>
<polygon class="pen1 brush0" points="184,102 195,104 204,110 209,119 211,130 209,141 204,149 195,155 184,157 174,155 165,149 159,141 157,130 159,119 165,110 174,104 184,102"/>
</g>
</svg>
