<?xml version="1.0" encoding="UTF-8" standalone="no"?>
<!DOCTYPE svg PUBLIC "-//W3C//DTD SVG 1.0//EN" "http://www.w3.org/TR/2001/REC-SVG-20010904/DTD/svg10.dtd">
<svg xmlns="http://www.w3.org/2000/svg" xmlns:xlink="http://www.w3.org/1999/xlink" fill-rule="evenodd" height="1.55in" preserveAspectRatio="none" stroke-linecap="round" viewBox="0 0 1979 1550" width="1.979in">
<style type="text/css">
.brush0 { fill: rgb(255,255,255); }
.pen0 { stroke: rgb(0,0,0); stroke-width: 1; stroke-linejoin: round; }
.brush1 { fill: none; }
.pen1 { stroke: none; }
.brush2 { fill: rgb(0,0,0); }
</style>
<g>
<polygon class="pen1 brush2" points="1915,973 1912,970 1904,963 1891,952 1874,940 1852,928 1826,916 1796,908 1763,904 1764,906 1765,912 1768,921 1771,934 1773,949 1774,967 1775,987 1774,1009 1770,1032 1765,1056 1756,1082 1744,1108 1727,1134 1707,1160 1682,1185 1651,1210 1651,1207 1652,1199 1653,1187 1653,1170 1652,1150 1649,1126 1643,1100 1633,1072 1620,1042 1602,1011 1579,979 1551,947 1515,916 1473,885 1423,856 1365,828 1369,840 1381,871 1395,917 1409,972 1419,1033 1422,1094 1414,1149 1392,1195 1392,1194 1390,1189 1387,1183 1381,1174 1372,1163 1359,1152 1341,1139 1317,1125 1316,1135 1312,1161 1304,1199 1293,1245 1279,1293 1260,1338 1237,1377 1209,1405 1208,1403 1205,1399 1200,1392 1193,1383 1184,1373 1173,1361 1160,1348 1145,1334 1145,1341 1143,1359 1137,1387 1126,1420 1109,1456 1083,1491 1047,1524 999,1550 989,1550 942,1524 905,1491 877,1456 858,1420 845,1387 837,1359 834,1341 833,1334 818,1348 805,1361 794,1373 785,1383 778,1392 773,1399 770,1403 769,1405 741,1377 718,1338 699,1293 685,1245 674,1199 666,1161 662,1135 661,1125 638,1139 620,1152 607,1163 598,1174 592,1183 589,1189 587,1194 587,1195 565,1149 557,1094 560,1033 570,972 584,917 598,871 610,840 614,828 556,856 506,885 463,916 428,947 399,979 377,1011 359,1042 346,1072 337,1100 331,1126 328,1150 326,1170 327,1187 328,1199 329,1207 329,1210 298,1185 273,1160 252,1134 236,1108 224,1082 215,1056 209,1032 205,1009 204,987 204,967 206,949 208,934 210,921 213,912 214,906 215,904 182,908 153,916 127,928 105,940 88,952 75,963 67,970 64,973 61,913 65,865 76,826 92,792 112,761 135,728 159,692 182,647 172,643 160,639 147,637 133,636 119,635 103,635 88,636 73,637 59,638 45,640 33,642 22,643 13,645 6,646 2,647 0,647 23,605 53,567 90,534 132,505 178,479 226,457 277,439 327,423 376,411 423,400 466,392 504,387 536,382 560,380 576,378 581,378 559,363 534,351 507,342 477,334 447,329 416,326 385,324 355,323 325,324 298,325 274,327 252,329 234,331 221,332 212,334 209,334 230,301 252,273 275,248 298,228 322,210 345,196 368,185 390,176 410,169 429,164 446,161 460,159 472,158 481,158 487,158 489,158 473,131 453,109 431,91 409,77 388,67 372,59 360,55 356,54 391,50 426,49 460,51 493,54 525,59 555,65 584,72 611,79 636,87 658,95 678,103 694,110 708,116 718,121 724,124 726,125 727,78 723,38 718,10 715,0 756,23 794,48 827,75 856,103 882,132 904,161 923,190 939,218 953,245 964,270 972,293 979,312 984,328 987,341 988,348 989,351 990,348 991,341 995,328 999,312 1006,293 1015,270 1026,245 1040,218 1056,190 1075,161 1098,132 1123,103 1152,75 1185,48 1222,23 1263,0 1261,10 1256,38 1252,78 1252,125 1254,124 1260,121 1270,116 1284,110 1300,103 1320,95 1343,87 1368,79 1395,72 1424,65 1454,59 1487,54 1520,51 1554,49 1589,50 1624,54 1620,55 1608,59 1591,67 1571,77 1548,91 1526,109 1506,131 1489,158 1491,158 1497,158 1506,158 1518,159 1532,161 1549,164 1568,169 1589,176 1610,185 1633,196 1656,210 1680,228 1703,248 1726,273 1748,301 1769,334 1766,334 1757,332 1744,331 1726,329 1705,327 1680,325 1653,324 1624,323 1594,324 1563,326 1532,329 1502,334 1472,342 1445,351 1420,363 1398,378 1403,378 1419,380 1443,382 1475,387 1513,392 1557,400 1603,411 1653,423 1703,439 1753,457 1802,479 1848,505 1890,534 1926,567 1957,605 1979,647 1977,647 1973,646 1966,645 1957,643 1946,642 1934,640 1920,638 1906,637 1890,636 1875,635 1860,635 1845,636 1831,637 1818,639 1806,643 1796,647 1819,692 1842,730 1863,764 1882,796 1897,831 1909,869 1915,916 1915,973"/>
<polygon class="pen1 brush0" points="989,519 966,486 942,454 917,423 891,395 863,368 834,342 802,319 768,299 731,280 692,264 650,251 604,240 555,233 502,228 445,227 384,229 384,239 401,238 422,237 448,236 478,235 511,236 548,239 587,244 628,252 670,265 714,282 759,304 804,332 848,366 892,408 934,458 975,516 956,508 937,501 917,494 898,487 879,481 860,476 840,471 821,466 801,462 782,459 762,456 742,454 722,453 702,452 682,452 661,453 641,455 620,457 599,461 577,465 556,470 534,477 511,484 489,492 466,501 443,512 419,523 395,536 371,549 347,564 321,581 296,598 303,607 309,603 317,598 325,592 335,585 345,578 357,570 369,562 382,554 397,545 412,537 428,528 445,520 463,511 482,504 502,496 523,489 545,483 568,477 592,472 616,468 642,465 668,464 696,463 724,464 753,466 784,470 815,475 846,482 879,491 913,502 948,515 983,530 985,1111 995,1111 995,530 1030,515 1065,502 1099,491 1131,482 1163,475 1194,470 1224,466 1253,464 1282,464 1309,464 1336,466 1361,469 1386,473 1409,478 1432,484 1454,490 1475,498 1495,505 1514,513 1532,522 1549,530 1566,539 1581,548 1595,556 1608,565 1621,573 1632,581 1642,588 1652,595 1660,601 1668,606 1674,610 1681,601 1655,584 1630,567 1605,552 1581,539 1557,526 1533,515 1510,504 1487,495 1464,487 1442,480 1420,473 1398,468 1377,464 1356,460 1335,458 1314,456 1294,455 1273,455 1253,456 1233,457 1213,459 1194,462 1174,465 1155,469 1136,474 1116,479 1097,484 1078,490 1059,497 1040,504 1021,511 1002,519 1042,461 1085,411 1128,369 1173,335 1217,307 1262,285 1306,268 1348,255 1389,247 1428,242 1465,239 1498,238 1528,239 1554,240 1575,241 1591,242 1593,232 1532,230 1475,231 1422,235 1373,243 1328,253 1285,266 1246,282 1209,300 1175,321 1144,344 1114,369 1086,396 1060,425 1035,455 1012,486 989,519"/>
</g>
</svg>
