<?xml version="1.0" encoding="UTF-8" standalone="no"?>
<!DOCTYPE svg PUBLIC "-//W3C//DTD SVG 1.0//EN" "http://www.w3.org/TR/2001/REC-SVG-20010904/DTD/svg10.dtd">
<svg xmlns="http://www.w3.org/2000/svg" xmlns:xlink="http://www.w3.org/1999/xlink" fill-rule="evenodd" height="1.311in" preserveAspectRatio="none" stroke-linecap="round" viewBox="0 0 1976 1311" width="1.976in">
<style type="text/css">
.brush0 { fill: rgb(255,255,255); }
.pen0 { stroke: rgb(0,0,0); stroke-width: 1; stroke-linejoin: round; }
.brush1 { fill: none; }
.pen1 { stroke: none; }
.brush2 { fill: rgb(0,0,0); }
</style>
<g>
<polygon class="pen1 brush2" points="166,420 186,393 202,425 226,403 240,427 249,422 259,416 269,411 280,405 292,400 305,394 318,389 331,384 345,379 360,375 375,371 390,367 406,364 422,362 439,360 456,359 479,359 502,361 524,364 546,369 568,376 588,386 607,398 624,413 639,431 651,451 662,475 669,503 673,534 673,568 670,607 663,650 663,650 653,691 642,732 628,772 612,812 596,851 578,890 559,928 540,966 543,966 552,968 566,969 585,971 607,973 633,975 662,976 694,976 726,976 760,974 795,971 829,967 863,960 896,952 927,941 955,927 965,921 971,914 973,907 971,900 966,892 959,883 948,873 936,862 922,848 906,833 889,815 871,796 852,773 834,747 815,718 797,686 779,643 767,598 762,551 762,503 768,455 779,408 794,363 814,321 815,365 819,408 825,450 834,490 844,530 856,569 870,607 886,645 902,682 920,719 939,755 959,791 980,826 1001,862 1022,897 1044,933 1074,959 1104,986 1136,1012 1168,1038 1200,1063 1233,1087 1267,1109 1302,1131 1337,1151 1373,1169 1410,1185 1448,1199 1487,1211 1526,1220 1566,1226 1607,1229 1602,1232 1597,1235 1590,1239 1583,1242 1575,1246 1566,1250 1556,1254 1546,1258 1534,1261 1522,1265 1509,1268 1495,1270 1481,1272 1465,1274 1450,1274 1433,1274 1422,1273 1411,1272 1400,1270 1388,1268 1377,1266 1364,1262 1352,1259 1339,1255 1326,1250 1313,1245 1300,1239 1286,1232 1273,1225 1259,1217 1244,1209 1230,1200 1200,1178 1174,1156 1151,1135 1131,1113 1113,1092 1098,1072 1085,1053 1073,1036 1062,1020 1051,1006 1041,994 1031,985 1020,978 1009,974 996,973 982,976 981,976 977,978 970,979 960,982 946,985 929,987 909,991 884,994 855,997 821,1000 783,1002 741,1004 693,1005 640,1006 581,1005 517,1004 513,1014 503,1029 488,1048 469,1069 446,1093 420,1119 392,1146 363,1172 333,1199 303,1224 274,1247 247,1268 221,1285 199,1297 180,1306 165,1308 207,1243 169,1243 207,1216 244,1187 280,1157 316,1126 351,1093 384,1059 416,1023 446,987 475,949 501,909 526,869 548,827 567,785 584,741 597,696 608,650 613,624 616,599 617,574 618,551 616,528 613,507 608,488 601,469 592,453 580,439 567,426 552,416 534,409 513,404 490,401 465,402 448,404 431,406 416,408 401,411 387,414 373,417 361,421 349,425 337,430 326,435 316,440 306,445 296,450 288,456 279,461 271,467 307,479 294,511 317,530 296,551 314,584 287,598 290,636 264,638 260,673 236,666 219,700 199,683 183,716 158,687 132,713 118,680 81,693 77,662 41,662 46,629 7,616 24,591 0,561 23,541 0,506 30,498 23,460 54,463 55,425 87,432 101,403 125,416 144,392 166,420 166,420"/>
<polygon class="pen1 brush2" points="827,321 828,362 832,403 837,442 845,481 855,519 866,556 879,593 893,629 909,664 926,699 944,734 962,768 982,803 1002,837 1022,871 1043,905 1042,850 1042,793 1042,735 1043,676 1044,616 1047,556 1052,496 1059,436 1067,376 1078,317 1092,260 1109,204 1129,149 1153,97 1181,47 1213,0 1202,6 1189,14 1174,24 1157,37 1139,53 1119,72 1100,95 1080,122 1059,152 1040,187 1021,226 1003,271 986,320 972,374 959,434 949,500 947,498 941,495 931,487 917,473 900,452 879,420 855,377 827,321 827,321"/>
<polygon class="pen1 brush2" points="1226,10 1194,53 1166,100 1142,152 1122,207 1105,265 1091,325 1080,388 1071,451 1065,514 1060,578 1057,640 1056,701 1055,760 1056,816 1057,868 1058,917 1089,902 1120,885 1151,868 1181,850 1211,831 1240,811 1269,790 1298,769 1326,747 1354,724 1381,701 1408,677 1435,653 1462,628 1488,603 1515,577 1541,552 1566,526 1592,500 1617,473 1643,447 1668,421 1693,394 1718,368 1742,342 1767,316 1792,290 1817,264 1841,239 1866,214 1890,190 1915,166 1905,157 1894,150 1882,145 1869,141 1855,140 1841,140 1825,141 1809,144 1792,149 1774,154 1756,161 1738,168 1718,177 1699,186 1679,196 1659,206 1609,234 1558,263 1507,292 1457,320 1408,345 1363,365 1320,380 1282,388 1249,387 1222,375 1201,352 1188,316 1183,265 1187,198 1201,114 1226,10 1226,10"/>
<polygon class="pen1 brush2" points="1922,179 1897,203 1873,227 1848,252 1824,277 1799,303 1775,328 1750,354 1726,380 1701,406 1676,432 1652,458 1627,483 1602,509 1577,535 1551,561 1526,586 1500,611 1474,636 1448,660 1421,684 1394,708 1367,731 1340,753 1312,775 1284,797 1255,818 1226,838 1197,857 1167,875 1136,893 1105,910 1074,926 1100,930 1127,935 1154,939 1182,944 1209,948 1238,952 1266,956 1295,960 1323,963 1352,967 1382,969 1411,972 1440,974 1470,976 1499,977 1528,978 1558,978 1587,977 1616,976 1645,974 1674,972 1703,969 1731,964 1759,960 1787,954 1814,947 1841,940 1868,931 1894,921 1920,911 1945,899 1970,886 1863,895 1778,896 1711,892 1663,882 1631,866 1613,846 1608,821 1614,791 1629,758 1652,722 1681,683 1714,641 1751,597 1788,552 1824,505 1858,457 1881,421 1901,385 1917,350 1929,314 1937,279 1938,245 1934,211 1922,179 1922,179"/>
<polygon class="pen1 brush2" points="1976,899 1952,912 1928,924 1902,935 1876,944 1850,953 1823,961 1795,967 1767,973 1739,978 1710,982 1681,985 1651,988 1622,989 1592,991 1562,991 1532,991 1502,990 1471,989 1441,987 1411,985 1381,982 1352,979 1322,976 1293,973 1264,969 1235,965 1207,961 1179,957 1152,953 1126,948 1099,944 1074,940 1099,963 1125,987 1154,1011 1184,1034 1215,1058 1248,1080 1282,1102 1317,1123 1352,1142 1388,1159 1424,1175 1461,1188 1497,1199 1533,1207 1569,1212 1604,1214 1575,1192 1550,1172 1528,1155 1509,1141 1494,1128 1481,1118 1470,1109 1462,1102 1455,1096 1450,1092 1447,1088 1444,1086 1442,1084 1441,1083 1440,1082 1439,1081 1506,1081 1568,1078 1624,1072 1675,1064 1722,1053 1764,1041 1801,1027 1835,1012 1864,996 1890,980 1912,964 1930,949 1946,934 1959,921 1969,909 1976,899"/>
</g>
</svg>
