<?xml version="1.0" encoding="UTF-8" standalone="no"?>
<!DOCTYPE svg PUBLIC "-//W3C//DTD SVG 1.0//EN" "http://www.w3.org/TR/2001/REC-SVG-20010904/DTD/svg10.dtd">
<svg xmlns="http://www.w3.org/2000/svg" xmlns:xlink="http://www.w3.org/1999/xlink" fill-rule="evenodd" height="0.958in" preserveAspectRatio="none" stroke-linecap="round" viewBox="0 0 662 958" width="0.662in">
<style type="text/css">
.brush0 { fill: rgb(255,255,255); }
.pen0 { stroke: rgb(0,0,0); stroke-width: 1; stroke-linejoin: round; }
.brush1 { fill: none; }
.pen1 { stroke: none; }
.brush2 { fill: rgb(0,0,0); }
</style>
<g>
<polygon class="pen1 brush2" points="45,923 188,958 527,923 662,635 662,219 662,18 657,18 646,18 630,17 608,16 583,14 555,13 525,11 494,9 463,8 434,6 406,4 381,3 360,2 344,1 334,0 330,0 52,42 0,393 45,923"/>
<polygon class="pen1 brush0" points="421,325 434,265 485,277 458,300 421,325"/>
<polygon class="pen1 brush0" points="465,418 534,411 520,462 483,441 465,418"/>
<polygon class="pen1 brush0" points="327,420 297,379 262,420 331,437 327,420"/>
<polygon class="pen1 brush0" points="232,519 183,502 179,556 245,529 232,519"/>
<polygon class="pen1 brush0" points="343,566 379,614 354,639 343,600 343,566"/>
<polygon class="pen1 brush0" points="426,380 424,382 419,386 412,394 402,403 390,415 376,428 361,443 346,459 330,476 314,492 299,509 285,526 272,542 260,557 251,571 244,583 234,607 224,633 216,660 209,687 203,713 199,736 197,755 197,768 200,805 203,860 204,909 205,931 263,921 259,906 251,867 244,814 245,756 250,727 256,698 264,669 271,642 279,619 285,601 289,589 291,585 426,380"/>
<polygon class="pen1 brush0" points="300,744 305,743 317,741 335,738 357,733 379,725 400,716 418,704 430,689 443,657 449,628 451,608 451,600 456,598 470,593 489,585 513,574 537,562 559,548 577,533 589,518 598,475 598,420 594,373 592,353 565,248 567,241 572,223 581,198 592,168 605,138 620,112 636,92 653,82 651,82 644,82 633,82 619,82 602,83 582,83 561,85 539,86 516,88 493,90 470,93 448,97 427,102 408,107 392,113 379,120 358,139 340,162 325,188 314,215 304,240 298,260 294,274 293,279 288,282 273,289 252,300 227,313 201,326 177,340 157,351 144,360 135,372 126,392 118,418 110,446 104,476 101,503 101,525 104,541 110,572 109,612 105,647 103,662 104,665 106,671 109,682 113,694 118,707 124,719 131,731 139,739 161,693 159,692 155,689 150,683 145,675 140,665 138,653 140,639 146,623 156,588 154,555 148,531 144,522 145,517 148,502 152,482 157,458 162,434 167,411 172,393 176,383 176,385 181,385 188,384 198,382 210,379 224,375 239,370 255,364 270,357 286,349 301,340 315,331 327,321 337,310 344,299 348,288 353,271 360,250 369,228 380,206 390,185 399,167 406,154 411,148 419,145 437,142 459,139 485,135 510,132 532,130 547,129 553,128 552,134 549,148 544,169 540,194 536,221 533,245 533,266 536,279 542,294 547,317 553,345 557,376 559,407 559,435 557,456 550,469 538,478 521,489 500,502 479,516 458,528 441,539 429,546 425,549 424,553 422,563 417,579 412,597 404,617 395,636 385,653 374,665 362,675 349,687 335,698 322,710 311,720 301,728 295,734 293,736 300,744"/>
</g>
</svg>
