<?xml version="1.0" encoding="UTF-8" standalone="no"?>
<!DOCTYPE svg PUBLIC "-//W3C//DTD SVG 1.0//EN" "http://www.w3.org/TR/2001/REC-SVG-20010904/DTD/svg10.dtd">
<svg xmlns="http://www.w3.org/2000/svg" xmlns:xlink="http://www.w3.org/1999/xlink" fill-rule="evenodd" height="1.971in" preserveAspectRatio="none" stroke-linecap="round" viewBox="0 0 1962 1971" width="1.962in">
<style type="text/css">
.brush0 { fill: rgb(255,255,255); }
.pen0 { stroke: rgb(0,0,0); stroke-width: 1; stroke-linejoin: round; }
.brush1 { fill: none; }
.pen1 { stroke: none; }
.brush2 { fill: rgb(0,0,0); }
</style>
<g>
<polygon class="pen1 brush2" points="1405,1865 1401,1864 1389,1860 1370,1853 1346,1843 1316,1831 1283,1816 1246,1798 1206,1778 1165,1755 1124,1729 1082,1700 1042,1668 1003,1634 968,1597 936,1557 909,1514 912,1506 920,1484 932,1452 949,1414 969,1374 993,1334 1019,1300 1047,1274 1049,1273 1056,1271 1067,1267 1081,1262 1098,1255 1116,1246 1135,1236 1156,1225 1176,1212 1195,1197 1213,1181 1229,1163 1242,1143 1252,1122 1258,1099 1259,1075 1257,1075 1251,1076 1241,1078 1228,1080 1213,1084 1196,1089 1178,1095 1158,1102 1138,1112 1118,1123 1099,1136 1080,1151 1063,1168 1048,1187 1036,1209 1027,1234 1022,1236 1008,1244 988,1257 964,1278 938,1307 913,1346 889,1395 871,1456 870,1454 866,1449 861,1440 853,1427 844,1410 834,1389 823,1364 810,1334 797,1301 784,1262 771,1219 757,1171 744,1119 731,1061 720,998 709,930 706,922 708,902 712,874 715,840 713,802 701,765 677,729 636,699 633,705 624,720 614,745 606,776 603,812 608,853 625,895 656,937 657,942 659,956 662,979 668,1008 674,1044 683,1086 693,1132 705,1181 718,1233 734,1286 751,1340 770,1394 792,1446 815,1496 840,1543 868,1585 891,1616 914,1645 938,1673 964,1699 991,1725 1020,1749 1052,1773 1086,1796 1123,1818 1163,1840 1207,1862 1254,1883 1305,1905 1361,1927 1422,1949 1487,1971 1405,1865 1405,1865"/>
<polygon class="pen1 brush2" points="1196,1072 1209,1039 1224,1000 1239,957 1254,911 1268,861 1281,810 1291,758 1299,706 1303,655 1303,605 1297,557 1286,512 1269,471 1245,435 1213,405 1173,381 1175,380 1182,379 1193,377 1208,374 1227,372 1249,370 1274,369 1301,369 1331,370 1363,373 1397,379 1433,386 1470,396 1507,410 1545,426 1584,447 1588,517 1642,487 1644,488 1650,490 1659,494 1670,500 1685,507 1700,516 1718,528 1736,541 1755,556 1774,573 1792,592 1809,614 1826,638 1840,664 1852,693 1861,724 1827,777 1896,787 1908,812 1917,837 1926,861 1933,885 1938,909 1943,932 1946,955 1949,977 1952,1023 1951,1066 1948,1103 1944,1136 1939,1163 1934,1182 1930,1195 1929,1199 1920,1178 1910,1159 1897,1142 1884,1127 1869,1113 1852,1101 1835,1090 1816,1080 1796,1072 1776,1065 1754,1060 1732,1055 1709,1052 1685,1050 1661,1048 1637,1048 1612,1048 1587,1049 1562,1051 1537,1054 1512,1057 1487,1061 1463,1065 1439,1069 1415,1074 1392,1079 1369,1084 1347,1090 1326,1095 1306,1101 1287,1107 1269,1112 1272,1096 1273,1084 1273,1073 1273,1061 1271,1061 1267,1061 1260,1061 1251,1061 1239,1062 1226,1064 1212,1068 1196,1072 1196,1072"/>
<polygon class="pen1 brush2" points="595,750 571,720 544,688 513,654 480,619 445,584 408,550 369,517 329,487 287,461 246,439 204,422 161,411 120,407 79,411 39,424 0,446 1,444 3,437 6,426 12,412 19,395 28,375 39,352 53,328 69,303 87,276 108,249 132,222 160,196 190,170 223,145 260,122 324,152 324,91 327,89 334,83 346,75 362,64 382,53 406,41 433,30 463,20 473,17 482,15 492,13 502,11 513,10 523,8 534,8 545,7 556,7 568,7 579,8 591,9 602,10 614,12 626,15 638,18 665,74 709,18 752,23 793,30 832,40 868,52 901,66 932,81 960,97 985,112 1008,128 1028,143 1045,157 1059,170 1070,180 1078,188 1082,193 1084,195 1041,192 1001,197 963,211 928,232 896,259 866,291 839,328 814,368 791,411 771,456 752,502 736,548 721,594 708,637 697,679 688,717 682,712 676,706 670,701 663,695 656,690 648,685 640,680 632,676 631,677 628,682 623,688 617,697 611,708 605,720 599,734 595,750"/>
</g>
</svg>
