<?xml version="1.0" encoding="UTF-8" standalone="no"?>
<!DOCTYPE svg PUBLIC "-//W3C//DTD SVG 1.0//EN" "http://www.w3.org/TR/2001/REC-SVG-20010904/DTD/svg10.dtd">
<svg xmlns="http://www.w3.org/2000/svg" xmlns:xlink="http://www.w3.org/1999/xlink" fill-rule="evenodd" height="2.01in" preserveAspectRatio="none" stroke-linecap="round" viewBox="0 0 1456 2010" width="1.456in">
<style type="text/css">
.brush0 { fill: rgb(255,255,255); }
.pen0 { stroke: rgb(0,0,0); stroke-width: 1; stroke-linejoin: round; }
.brush1 { fill: none; }
.pen1 { stroke: none; }
.brush2 { fill: rgb(0,0,0); }
</style>
<g>
<polygon class="pen1 brush2" points="0,919 2,919 9,920 20,921 35,923 53,927 74,931 97,937 121,944 147,954 174,965 201,978 228,994 255,1012 281,1033 305,1056 327,1083 347,1110 365,1135 381,1158 396,1178 410,1196 422,1212 434,1226 445,1238 455,1248 464,1257 473,1264 483,1269 492,1273 501,1276 510,1277 520,1277 517,1278 510,1280 499,1283 483,1287 465,1290 443,1293 419,1296 393,1297 366,1297 338,1294 309,1289 280,1281 251,1270 224,1255 197,1236 173,1212 150,1185 129,1159 110,1132 92,1106 76,1081 62,1057 49,1034 39,1012 29,992 21,974 14,958 9,945 5,934 2,926 1,921 0,919 0,919"/>
<polygon class="pen1 brush2" points="665,607 699,657 728,705 752,753 773,799 790,843 803,886 814,926 822,964 827,999 830,1030 832,1059 833,1084 832,1105 831,1123 829,1136 828,1144 806,1214 783,1252 760,1266 739,1259 719,1238 701,1208 687,1174 676,1141 672,1126 667,1111 661,1095 654,1080 647,1064 639,1048 630,1032 620,1016 608,1000 596,983 583,967 569,949 553,932 537,914 519,896 500,878 479,861 457,845 433,831 409,819 384,809 358,800 334,792 310,786 287,780 265,776 246,773 230,771 216,769 206,768 199,767 197,767 201,788 208,808 216,829 227,849 239,869 253,888 268,907 284,925 301,943 318,960 336,976 355,991 373,1006 391,1020 408,1032 425,1044 442,1055 459,1066 477,1077 494,1087 512,1097 529,1106 545,1114 560,1122 575,1130 588,1136 600,1142 610,1146 618,1150 624,1153 628,1154 629,1155 646,1186 655,1210 658,1228 657,1241 653,1249 648,1253 644,1256 642,1256 662,1283 693,1288 711,1303 718,1323 716,1345 710,1368 702,1388 695,1403 692,1408 664,1470 643,1529 629,1584 620,1636 615,1685 615,1730 619,1771 625,1809 632,1842 642,1872 651,1897 661,1918 669,1934 676,1946 681,1954 683,1956 682,1944 683,1934 685,1927 686,1924 693,1933 703,1946 714,1960 725,1974 735,1988 743,1999 749,2007 751,2010 724,1932 704,1857 692,1787 686,1719 686,1656 693,1595 704,1539 721,1485 742,1434 767,1387 796,1343 828,1301 863,1263 900,1227 939,1194 979,1163 1020,1135 1062,1110 1104,1086 1145,1065 1186,1047 1226,1030 1263,1015 1299,1002 1332,991 1362,982 1389,974 1412,968 1431,964 1444,960 1453,959 1456,958 1441,957 1424,957 1404,958 1385,959 1367,961 1352,963 1342,964 1338,965 1345,956 1350,949 1354,944 1355,942 1315,947 1274,955 1234,966 1195,979 1157,994 1120,1010 1085,1027 1052,1044 1022,1062 994,1078 970,1093 949,1107 933,1119 920,1127 913,1133 910,1135 879,1073 864,988 863,891 870,791 883,697 897,618 908,564 913,544 897,551 879,563 862,577 845,592 830,607 819,619 811,628 808,631 792,623 771,617 748,613 724,610 701,608 683,607 670,607 665,607"/>
<polygon class="pen1 brush2" points="747,402 758,403 769,411 780,423 791,439 801,457 809,475 816,492 821,506 847,469 874,442 898,426 918,422 932,429 937,448 932,481 915,527 911,529 900,536 885,546 866,559 848,573 830,588 816,603 808,618 793,609 773,603 749,599 725,596 703,594 684,594 671,594 666,594 644,577 627,562 615,548 607,536 603,526 602,517 605,510 612,505 620,501 632,499 646,499 662,501 679,505 699,510 719,518 740,527 733,495 729,455 733,420 747,402 747,402"/>
<polygon class="pen1 brush2" points="629,104 618,100 607,99 595,100 582,103 568,109 554,118 539,129 524,144 519,143 505,140 486,139 465,140 443,146 426,159 414,180 412,213 410,213 405,215 398,218 390,221 380,226 370,233 360,241 352,250 347,258 344,267 342,278 343,290 346,302 353,317 363,332 376,348 383,356 391,364 400,372 409,380 420,389 431,398 443,407 456,416 470,426 485,436 501,446 519,457 537,468 556,479 576,490 598,502 610,493 624,489 639,487 656,489 673,492 691,497 710,504 729,510 720,502 704,487 684,467 660,442 634,414 608,383 583,351 559,318 539,285 524,254 515,224 513,199 520,177 538,161 567,151 609,148 613,133 617,121 622,112 629,104 629,104"/>
<polygon class="pen1 brush2" points="753,124 743,112 733,103 722,96 712,91 701,88 690,87 680,87 670,90 660,94 651,99 643,105 635,113 629,122 624,132 620,143 618,155 579,157 552,166 536,181 529,201 530,225 539,252 552,281 571,312 592,343 615,373 639,402 663,429 684,453 703,472 718,487 727,496 722,463 722,428 727,400 741,385 753,386 765,394 777,407 789,423 799,440 808,457 814,470 818,480 841,389 858,313 869,250 874,199 872,160 864,132 849,113 827,104 819,103 810,104 800,106 789,109 779,112 769,116 760,120 753,124 753,124"/>
<polygon class="pen1 brush2" points="716,83 721,84 726,86 731,88 737,92 742,96 747,101 752,107 757,114 797,99 829,94 854,99 871,113 883,134 889,161 890,192 888,228 882,265 875,304 865,342 855,379 845,414 836,444 828,470 822,489 829,477 840,462 852,447 866,432 882,419 899,411 917,408 935,412 942,401 951,386 962,369 974,349 987,327 1000,304 1012,279 1025,254 1036,229 1045,205 1053,180 1058,158 1061,136 1061,117 1056,101 1048,87 1035,75 1021,69 1006,66 992,67 979,70 968,73 962,76 959,77 952,67 945,58 938,51 931,45 924,40 917,37 909,35 902,33 887,33 874,36 861,41 850,48 841,55 834,61 830,65 828,67 807,61 789,58 772,57 757,58 744,62 733,67 724,74 716,83"/>
<polygon class="pen1 brush2" points="587,1344 597,1343 607,1340 616,1335 624,1329 630,1321 635,1312 638,1302 639,1291 638,1281 634,1270 629,1261 622,1253 618,1257 614,1260 609,1264 604,1266 599,1268 594,1270 588,1271 582,1271 577,1271 573,1270 568,1269 564,1267 560,1265 555,1263 552,1260 548,1257 543,1264 539,1273 536,1282 535,1291 536,1302 539,1312 544,1321 550,1329 558,1335 567,1340 576,1343 587,1344 587,1344"/>
<polygon class="pen1 brush2" points="582,1264 573,1263 565,1261 558,1257 552,1252 547,1245 543,1238 541,1229 540,1220 541,1211 543,1203 547,1196 552,1189 558,1184 565,1179 573,1177 582,1176 591,1177 600,1179 607,1184 614,1189 619,1196 623,1203 625,1211 626,1220 625,1229 623,1238 619,1245 614,1252 607,1257 600,1261 591,1263 582,1264 582,1264"/>
<polygon class="pen1 brush2" points="514,1257 503,1256 493,1253 484,1249 477,1242 471,1235 466,1226 463,1217 462,1206 463,1196 466,1186 471,1178 477,1170 484,1164 493,1159 503,1156 514,1155 520,1155 526,1156 532,1158 537,1160 542,1163 547,1166 551,1170 555,1175 545,1184 538,1194 533,1206 531,1219 532,1227 533,1236 536,1243 541,1250 535,1253 528,1255 521,1256 514,1257"/>
<polygon class="pen1 brush0" points="391,1262 373,1251 355,1239 337,1225 319,1211 301,1196 283,1180 264,1164 246,1147 229,1131 211,1114 194,1097 178,1081 162,1065 147,1049 133,1034 119,1020 120,1019 121,1018 122,1016 122,1016 137,1031 153,1046 169,1062 186,1078 202,1094 219,1111 236,1127 253,1143 271,1159 288,1175 306,1190 323,1205 341,1220 358,1234 376,1247 393,1259 391,1262"/>
<polygon class="pen1 brush0" points="314,848 332,858 350,870 369,882 387,896 406,910 425,925 443,940 462,956 480,972 497,988 515,1004 532,1020 548,1035 563,1050 578,1064 592,1077 591,1078 591,1079 590,1081 589,1081 573,1067 557,1052 541,1037 524,1022 507,1006 490,991 473,975 455,960 437,944 419,929 401,915 383,901 365,887 347,874 329,862 311,851 314,848"/>
</g>
</svg>
