<?xml version="1.0" encoding="iso-8859-1"?>
<!DOCTYPE svg PUBLIC "-//W3C//DTD SVG 1.0//EN" "http://www.w3.org/TR/2001/REC-SVG-20010904/DTD/svg10.dtd">
<svg xmlns="http://www.w3.org/2000/svg" xml:space="preserve" width="1in" height="1in" shape-rendering="geometricPrecision" text-rendering="geometricPrecision" image-rendering="optimizeQuality" fill-rule="evenodd"
     viewBox="0 0 1000 1000">
 <g>

  <path d="M847 149l-139 142 52 61 35 70 22 74 8 76 -8 75 -22 72 -35 68 -52 61 -27 26 -30 22 -31 20 -32 16 -33 12 -34 10 -34 8 -35 2 -36 0 -35 -2 -34 -6 -35 -10 -34 -12 -31 -16 -32 -20 -29 -22 37 30 37 24 42 20 41 18 44 12 43 10 46 4 43 0 45 -4 44 -8 43 -12 42 -16 41 -20 40 -24 37 -30 36 -32 63 -77 45 -86 28 -90 10 -95 -10 -94 -28 -91 -45 -88 -63 -78z"/>
  <path d="M154 848l140 -139 -51 -62 -36 -67 -21 -74 -6 -76 6 -76 21 -73 36 -70 51 -62 28 -26 29 -22 32 -18 31 -15 34 -14 33 -10 36 -6 36 -4 33 0 36 4 35 6 34 10 33 12 32 15 31 20 30 22 -38 -30 -39 -23 -39 -22 -44 -16 -43 -12 -44 -10 -43 -4 -46 0 -43 4 -45 8 -44 12 -41 14 -42 22 -39 23 -38 28 -35 32 -63 78 -46 88 -25 91 -10 94 10 95 25 90 46 86 63 77z"/>
  <path d="M673 323l-69 69 25 32 18 34 10 36 4 38 -4 40 -10 35 -18 34 -25 32 -28 24 -31 18 -34 10 -33 6 -36 -2 -35 -8 -34 -14 -30 -20 18 14 20 12 22 10 19 10 22 6 24 4 21 2 22 0 22 -2 22 -4 21 -6 22 -8 20 -10 19 -12 18 -14 18 -16 31 -38 24 -44 12 -45 6 -48 -6 -46 -12 -48 -24 -42 -31 -39z"/>
  <path d="M328 673l71 -70 -26 -31 -18 -34 -10 -36 -4 -40 4 -38 10 -36 18 -34 26 -31 27 -24 32 -18 35 -10 34 -6 35 2 34 8 33 14 30 20 -18 -14 -19 -12 -20 -12 -22 -8 -22 -6 -21 -4 -22 -2 -22 0 -23 2 -22 4 -22 6 -21 8 -20 10 -20 12 -20 14 -17 16 -32 39 -22 42 -14 48 -3 46 3 48 14 45 22 44 32 38z"/>

 </g>
</svg>
