<?xml version="1.0" encoding="iso-8859-1"?>
<!DOCTYPE svg PUBLIC "-//W3C//DTD SVG 1.0//EN" "http://www.w3.org/TR/2001/REC-SVG-20010904/DTD/svg10.dtd">
<svg xmlns="http://www.w3.org/2000/svg" xml:space="preserve" width="1in" height="1in" shape-rendering="geometricPrecision" text-rendering="geometricPrecision" image-rendering="optimizeQuality" fill-rule="evenodd"
     viewBox="0 0 1000 1000">
 <g>

  <path d="M535 975l-10 -57 -2 -53 5 -50 11 -48 15 -45 20 -44 23 -41 25 -40 26 -39 26 -38 26 -38 23 -37 20 -38 17 -37 11 -39 6 -39 -1 -6 -3 -4 -4 -3 -6 0 -6 1 -6 1 -6 2 -4 3 -26 23 -25 25 -22 28 -21 30 -19 31 -18 33 -17 33 -15 35 -15 35 -14 35 -13 35 -13 34 -12 34 -12 33 -13 32 -12 30 -10 22 -11 21 -11 20 -12 18 -12 16 -12 13 -13 10 -14 8 -13 2 -17 -4 -17 -8 -17 -14 -14 
-20 -8 -25 -2 -32 7 -37 17 -49 22 -46 25 -44 29 -43 30 -41 33 -41 33 -40 34 -40 34 -39 32 -41 31 -41 29 -42 25 -44 22 -46 18 -48 12 -51 -27 7 -27 11 -26 17 -26 22 -26 25 -25 30 -25 33 -25 36 -24 38 -23 41 -23 43 -23 44 -22 45 -22 46 -21 46 -20 46 -9 10 -15 12 -18 13 -20 13 -20 11 -18 10 -14 7 -9 2 -12 -4 -10 -11 -9 -14 -8 -17 -5 -19 -4 -19 0 -17 2 -14 24 -50 27 -47 30 -43 
32 -40 34 -38 34 -35 34 -32 34 -31 33 -28 32 -27 29 -25 26 -24 22 -23 19 -22 14 -21 8 -21 -28 0 -28 7 -27 14 -27 20 -26 24 -25 28 -25 30 -24 32 -24 32 -24 31 -23 30 -22 27 -22 23 -22 19 -21 12 -20 6 -13 -23 -8 -24 -4 -23 0 -24 3 -19 5 -19 8 -19 10 -19 12 -18 14 -18 16 -17 18 -17 10 -9 10 -8 11 -8 11 -9 11 -7 11 -8 12 -8 13 -7 12 -7 13 -7 13 -6 13 -7 13 -6 13 -6 14 -5 13 -6 
19 -7 19 -6 19 -6 19 -5 18 -5 19 -4 19 -3 18 -3 18 -2 18 -1 17 -1 17 0 17 1 16 2 15 3 15 3 22 21 18 24 15 26 11 28 8 31 5 32 2 34 0 36 -5 50 -8 51 -11 53 -14 54 -16 54 -18 55 -19 53 -20 53 -15 40 -16 40 -14 37 -14 36 -13 34 -12 32 -9 29 -8 26 -11 16 -13 13 -13 8 -13 4 -13 1 -10 -2 -8 -6 -4 -7z"/>

 </g>
</svg>
