<?xml version="1.0" encoding="iso-8859-1"?>
<!DOCTYPE svg PUBLIC "-//W3C//DTD SVG 1.0//EN" "http://www.w3.org/TR/2001/REC-SVG-20010904/DTD/svg10.dtd">
<svg xmlns="http://www.w3.org/2000/svg" xmlns:odm="http://product.corel.com/CGS/11/cddns/" xmlns:corel-charset="http://product.corel.com/CGS/11/cddns/" xml:space="preserve" width="1in" height="1in" style="shape-rendering:geometricPrecision; text-rendering:geometricPrecision; image-rendering:optimizeQuality; fill-rule:evenodd"
     viewBox="0 0 1000 1000">
 <g fill="000">

  <path d="M474 534l0 2 0 1 0 1 0 2 -5 18 -5 14 -4 13 -4 9 -5 8 -6 5 -7 4 -6 3 -9 1 -9 0 -12 -1 -13 -2 -16 -2 -17 -2 -20 -2 -22 -2 20 14 22 11 23 10 23 8 24 3 23 3 23 -1 22 -2 21 -5 19 -9 17 -10 14 -13 13 -16 8 -18 6 -21 1 -24 110 0 -2 30 -5 30 -7 30 -10 27 -13 27 -17 26 -19 22 -22 20 -13 9 -13 8 -13 9 -13 10 -13 11 -12 12 -12 15 -13 16 -27 6 -25 3 -27 3 -25 0 -26 -1 -25 -4 -23 -4 -24 -7 -23 -8 -23 -9 -22 -11 -21 -12 -21 -14 -19 -15 -19 -15 -19 -17 -19 -20 -18 -22 -17 -23 -15 -25 -14 -25 -12 -27 -11 -26 -9 -29 452 0z"/>
  <path d="M581 478l-6 -9 -9 -8 -8 -8 -12 -7 -11 -7 -13 -5 -12 -5 -13 -4 -13 -2 -12 0 -12 2 -11 3 -10 6 -7 7 -7 11 -4 13 8 11 8 8 9 9 8 7 6 8 7 8 4 8 3 10 -452 0 -7 -30 -6 -30 -2 -32 -1 -31 3 -21 5 -20 6 -20 7 -19 7 -17 8 -17 9 -16 9 -16 12 -17 11 -16 12 -15 13 -16 13 -15 13 -14 13 -15 13 -15 12 -7 11 -8 13 -7 11 -5 13 -7 12 -5 12 -6 14 -4 12 -4 13 -4 13 -4 13 -3 14 -3 13 -2 14 -2 13 -2 15 -2 15 -1 15 -1 15 0 15 0 16 1 15 1 15 2 15 2 15 2 15 2 15 3 16 4 15 4 14 4 16 4 14 5 13 4 14 6 13 5 13 5 14 7 13 6 13 6 13 7 12 8 13 
7 12 8 12 8 12 7 12 9 11 9 22 18 22 19 19 20 19 20 18 21 17 22 14 22 14 23 12 24 9 25 7 23 5 25 1 24 0 24 -2 24 -5 24 -8 30 -11 31 -14 30 -17 28 -18 28 -21 26 -23 25 -25 24 -19 17 -19 16 -20 15 -20 14 -21 13 -22 12 -22 12 -21 9 -23 10 -22 7 -22 7 -22 5 -22 4 -21 2 -21 1 -21 -1 -13 -3 -15 -2 -17 -1 -17 -2 -18 -3 -18 -5 -18 -6 -18 -11 64 -11 54 -12 46 -13 37 -13 33 -15 26 -16 22 -17 20 -17 18 -20 17 -20 17 -22 18 -22 21 -24 24 -25 29 -27 34 -29 13 -47 5 -47 -5 -50 -13 -56 -27 -31 -30 -28 -33 -28 -35 -24 -37 -23 -40 -19 -39 
-16 -41 -14 -42 -9 -42 -6 -41 -1 -42 3 -40 8 -40 12 -38 18 -37 23 -5 15 -8 11 -11 8 -11 8 -13 8 -14 9 -13 13 -13 18 -3 24 -7 24 -8 24 -4 31 19 -13 16 -15 13 -15 14 -14 14 -15 16 -14 19 -14 23 -13 26 -5 28 -4 28 -2 30 -1 30 1 30 3 31 4 29 7 30 8 29 10 26 13 26 13 24 16 22 18 19 20 16 22 4 19 3 20 1 19 -1 20 -110 0 -1 -13 -2 -14 -4 -14 -5 -15z"/>

 </g>
</svg>
