<?xml version="1.0" encoding="UTF-8" standalone="no"?>
<!DOCTYPE svg PUBLIC "-//W3C//DTD SVG 1.0//EN" "http://www.w3.org/TR/2001/REC-SVG-20010904/DTD/svg10.dtd">
<svg xmlns="http://www.w3.org/2000/svg" xmlns:xlink="http://www.w3.org/1999/xlink" fill-rule="evenodd" height="1.784in" preserveAspectRatio="none" stroke-linecap="round" viewBox="0 0 1330 1784" width="1.33in">
<style type="text/css">
.brush0 { fill: rgb(255,255,255); }
.pen0 { stroke: rgb(0,0,0); stroke-width: 1; stroke-linejoin: round; }
.brush1 { fill: none; }
.pen1 { stroke: none; }
.brush2 { fill: rgb(0,0,0); }
</style>
<g>
<polygon class="pen1 brush2" points="703,1104 698,1093 691,1084 681,1078 220,886 642,1148 653,1154 664,1155 677,1154 687,1148 697,1141 703,1132 707,1119 705,1109 703,1104 703,1104"/>
<polygon class="pen1 brush2" points="678,924 647,922 628,917 610,908 595,897 582,882 571,867 564,849 561,830 559,810 563,792 569,773 578,757 591,741 605,729 621,720 640,714 659,711 678,712 679,660 654,660 631,664 609,671 588,681 568,693 552,710 536,728 524,748 515,770 509,793 508,816 509,839 515,861 524,884 535,904 549,923 567,940 585,952 607,962 629,970 653,973 677,973 678,924 678,924"/>
<polygon class="pen1 brush2" points="658,924 689,922 708,917 725,908 741,897 754,882 765,867 772,849 776,830 777,810 774,792 767,773 758,757 747,741 730,729 714,720 696,714 677,711 658,712 657,660 681,660 704,664 727,671 748,681 769,693 785,710 801,728 813,748 821,770 827,793 828,816 827,839 821,861 813,884 802,904 787,923 769,940 751,952 729,962 707,970 683,973 659,973 658,924 658,924"/>
<polygon class="pen1 brush2" points="697,1696 652,1696 606,1694 563,1688 519,1678 475,1665 432,1649 393,1630 353,1606 316,1581 282,1553 248,1522 218,1489 191,1453 167,1416 145,1376 127,1335 112,1293 101,1249 93,1206 89,1161 87,1116 90,1071 96,1028 105,984 118,941 134,899 154,859 175,820 201,783 229,748 261,717 294,686 330,658 367,634 407,613 448,594 491,579 534,568 579,559 623,555 668,552 696,554 696,467 691,467 642,467 594,471 547,477 500,486 453,501 407,518 364,539 321,561 280,587 243,617 206,649 172,682 141,720 112,758 87,799 65,842 46,886 30,930 17,977 8,1024 2,1071 0,1119 2,1168 7,1216 14,1263 27,1310 42,1354 61,1399 82,1442 107,1483 134,1522 166,1559 199,1595 235,1627 272,1656 312,1683 354,1707 398,1728 443,1745 490,1759 537,1770 585,1778 632,1783 681,1783 696,1784 697,1696 697,1696"/>
<polygon class="pen1 brush2" points="634,1696 679,1696 725,1694 769,1688 813,1678 857,1665 898,1649 938,1630 978,1606 1014,1581 1049,1553 1082,1522 1112,1489 1140,1453 1164,1416 1185,1376 1204,1335 1218,1293 1231,1249 1238,1206 1242,1161 1243,1116 1242,1071 1236,1028 1225,984 1213,941 1198,899 1177,859 1155,820 1130,783 1101,748 1071,717 1036,686 1001,658 963,634 923,613 883,594 840,579 797,568 752,559 708,555 663,552 635,554 635,467 639,467 687,467 736,471 784,477 831,486 878,501 923,518 967,539 1010,561 1050,587 1088,617 1125,649 1159,682 1190,720 1218,758 1243,799 1266,842 1286,886 1301,930 1314,977 1323,1024 1329,1071 1330,1119 1330,1168 1324,1216 1316,1263 1304,1310 1289,1354 1270,1399 1249,1442 1224,1483 1196,1522 1165,1559 1132,1595 1096,1627 1058,1656 1018,1683 977,1707 933,1728 887,1745 841,1759 794,1770 747,1778 697,1783 649,1783 635,1784 634,1696 634,1696"/>
<polygon class="pen1 brush2" points="736,748 657,801 652,806 647,813 647,821 650,830 657,835 664,838 672,838 681,834 686,827 736,748 736,748"/>
<polygon class="pen1 brush2" points="772,188 772,310 730,310 730,533 598,533 598,310 558,310 558,188 772,188 772,188"/>
<polygon class="pen1 brush2" points="604,380 582,370 563,357 544,340 529,322 515,301 505,280 498,256 495,232 497,208 500,184 508,161 519,139 532,118 548,101 567,86 588,74 610,64 634,57 658,55 682,56 707,60 730,68 752,79 772,93 789,110 805,128 817,150 826,172 831,196 833,220 832,244 828,268 819,290 808,312 794,332 776,349 757,363 736,376 712,384 719,440 747,431 773,419 796,404 818,386 838,366 854,344 868,319 879,293 885,266 890,239 890,210 886,183 879,155 870,129 857,105 840,82 820,62 799,43 774,28 750,16 723,7 696,1 668,0 639,1 612,5 585,13 559,24 535,40 513,57 493,77 476,99 462,124 451,149 443,176 440,203 439,232 442,260 449,286 458,313 471,339 487,361 506,381 527,401 551,416 576,429 602,438 604,380 604,380"/>
<polygon class="pen1 brush2" points="970,587 1032,648 1140,540 1155,555 1237,475 1144,384 1063,465 1078,481 970,587 970,587"/>
<polygon class="pen1 brush2" points="365,584 304,645 195,539 180,554 98,472 191,381 272,463 257,478 365,584 365,584"/>
</g>
</svg>
