<?xml version="1.0" encoding="UTF-8" standalone="no"?>
<!DOCTYPE svg PUBLIC "-//W3C//DTD SVG 1.0//EN" "http://www.w3.org/TR/2001/REC-SVG-20010904/DTD/svg10.dtd">
<svg xmlns="http://www.w3.org/2000/svg" xmlns:xlink="http://www.w3.org/1999/xlink" fill-rule="evenodd" height="0.499in" preserveAspectRatio="none" stroke-linecap="round" viewBox="0 0 499 499" width="0.499in">
<style type="text/css">
.brush0 { fill: rgb(255,255,255); }
.pen0 { stroke: rgb(0,0,0); stroke-width: 1; stroke-linejoin: round; }
.brush1 { fill: none; }
.pen1 { stroke: none; }
.brush2 { fill: rgb(0,0,0); }
</style>
<g>
<polygon class="pen1 brush2" points="499,499 499,250 250,0 0,252 0,499 499,499"/>
<polygon class="pen1 brush0" points="161,406 294,315 294,335 168,420 161,406 161,406"/>
<polygon class="pen1 brush0" points="305,406 168,315 168,335 294,420 305,406 305,406"/>
<polygon class="pen1 brush0" points="123,335 354,335 393,246 392,232 392,218 390,205 388,191 388,189 387,188 387,186 386,185 383,177 380,169 375,161 369,154 362,148 355,143 346,139 338,135 326,132 313,130 301,128 288,127 275,127 262,127 250,127 237,127 237,226 97,226 114,335 129,315 120,246 257,246 257,147 266,147 275,147 284,147 294,147 303,148 312,149 321,151 330,154 336,157 341,160 347,164 352,169 356,173 360,179 364,184 366,190 367,192 367,194 368,196 368,198 371,210 372,222 373,234 373,246 344,315 147,315 123,335 123,335"/>
<polygon class="pen1 brush0" points="153,315 123,315 114,335 148,335 153,315 153,315"/>
<polygon class="pen1 brush0" points="168,423 298,423 298,413 162,413 168,423 168,423"/>
<polygon class="pen1 brush0" points="154,399 146,400 140,404 136,410 134,418 136,426 140,432 146,436 154,438 162,436 168,432 172,426 174,418 172,410 168,404 162,400 154,399 154,407 158,408 162,410 164,414 165,418 164,422 162,425 158,427 154,428 150,427 147,425 145,422 144,418 145,414 147,410 150,408 154,407 154,399"/>
<polygon class="pen1 brush0" points="310,399 302,400 296,404 292,410 290,418 292,426 296,432 302,436 310,438 318,436 324,432 328,426 330,418 328,410 324,404 318,400 310,399 310,407 314,408 317,410 319,414 320,418 319,422 317,425 314,427 310,428 306,427 302,425 300,422 299,418 300,414 302,410 306,408 310,407 310,399"/>
<polygon class="pen1 brush0" points="154,356 142,357 130,361 119,367 110,374 102,383 96,394 92,406 91,418 92,431 96,443 102,453 110,463 119,470 130,476 142,480 154,481 167,480 179,476 189,470 199,463 206,453 212,443 216,431 217,418 216,406 212,394 206,383 199,374 189,367 179,361 167,357 154,356 154,376 163,377 171,379 178,383 185,388 190,395 195,402 197,410 198,418 197,427 195,435 190,442 185,448 178,454 171,458 163,460 154,461 145,460 137,458 130,454 124,448 118,442 114,435 112,427 111,418 112,410 114,402 118,395 124,388 130,383 137,379 145,377 154,376 154,356"/>
<polygon class="pen1 brush0" points="310,356 298,357 286,361 275,367 266,374 259,383 253,394 249,406 248,418 249,431 253,443 259,453 266,463 275,470 286,476 298,480 310,481 322,480 334,476 345,470 354,463 362,453 368,443 372,431 373,418 372,406 368,394 362,383 354,374 345,367 334,361 322,357 310,356 310,376 319,377 327,379 334,383 341,388 346,395 350,402 352,410 353,418 352,427 350,435 346,442 341,448 334,454 327,458 319,460 310,461 301,460 293,458 286,454 280,448 274,442 270,435 268,427 267,418 268,410 270,402 274,395 280,388 286,383 293,379 301,377 310,376 310,356"/>
</g>
</svg>
