<?xml version="1.0" encoding="UTF-8" standalone="no"?>
<!DOCTYPE svg PUBLIC "-//W3C//DTD SVG 1.0//EN" "http://www.w3.org/TR/2001/REC-SVG-20010904/DTD/svg10.dtd">
<svg xmlns="http://www.w3.org/2000/svg" xmlns:xlink="http://www.w3.org/1999/xlink" fill-rule="evenodd" height="0.499in" preserveAspectRatio="none" stroke-linecap="round" viewBox="0 0 499 499" width="0.499in">
<style type="text/css">
.brush0 { fill: rgb(255,255,255); }
.pen0 { stroke: rgb(0,0,0); stroke-width: 1; stroke-linejoin: round; }
.brush1 { fill: none; }
.pen1 { stroke: none; }
.brush2 { fill: rgb(0,0,0); }
</style>
<g>
<polygon class="pen1 brush2" points="250,499 275,498 300,494 324,488 347,479 368,469 389,456 408,442 426,426 442,408 456,389 469,368 479,347 488,324 494,300 498,275 499,250 498,224 494,200 488,176 479,153 469,131 456,110 442,91 426,73 408,57 389,43 368,30 347,20 324,11 300,5 275,1 250,0 224,1 200,5 176,11 153,20 131,30 110,43 91,57 73,73 57,91 43,110 30,131 20,153 11,176 5,200 1,224 0,250 1,275 5,300 11,324 20,347 30,368 43,389 57,408 73,426 91,442 110,456 131,469 153,479 176,488 200,494 224,498 250,499"/>
<polygon class="pen1 brush0" points="200,337 299,337 299,355 200,355 200,337 200,337"/>
<polygon class="pen1 brush0" points="299,355 311,353 316,348 318,340 320,328 321,326 321,323 322,321 322,319 325,310 329,300 333,291 338,282 343,272 349,262 355,252 360,242 363,234 367,227 371,219 374,211 378,199 380,187 382,175 382,162 382,151 380,139 378,128 374,116 370,106 365,95 358,86 351,77 342,69 333,62 323,56 312,51 301,47 290,44 278,41 267,40 255,39 243,39 231,40 219,42 208,44 197,47 186,51 175,56 170,59 166,62 161,65 156,69 151,72 147,76 143,81 140,85 133,96 127,109 122,123 119,135 117,154 117,174 119,193 124,211 128,221 133,230 137,239 141,248 147,259 153,269 159,280 164,291 167,299 171,307 174,315 177,324 179,337 181,346 187,352 200,355 220,337 211,335 205,332 200,328 197,324 195,319 193,313 191,306 188,299 187,297 187,296 187,294 186,293 183,286 180,279 176,273 173,266 170,261 167,256 164,250 161,246 159,241 156,236 153,231 151,226 150,224 149,222 148,220 147,218 138,195 135,170 136,145 144,122 149,112 156,102 164,93 172,85 187,75 203,67 221,62 239,59 257,59 274,62 292,66 308,73 313,76 318,79 322,82 327,86 331,89 335,93 339,98 342,102 346,107 349,113 352,119 355,125 361,144 364,163 362,182 357,201 354,211 350,221 346,230 341,239 339,243 336,247 334,252 331,255 326,264 321,273 316,283 312,292 308,300 304,309 301,319 299,328 296,331 294,333 291,334 286,336 279,337 299,355 299,355"/>
<polygon class="pen1 brush0" points="220,337 200,178 210,158 229,337 220,337 220,337"/>
<polygon class="pen1 brush0" points="279,337 299,178 289,158 269,337 279,337 279,337"/>
<polygon class="pen1 brush0" points="200,178 210,158 220,178 229,158 240,178 249,158 259,178 269,158 279,178 289,158 299,178 299,158 289,138 279,158 269,138 259,162 249,138 240,158 229,138 220,158 210,138 200,158 200,178 200,178"/>
<polygon class="pen1 brush0" points="191,396 312,389 317,385 318,381 314,377 307,375 186,382 181,387 180,392 184,395 191,396 191,396"/>
<polygon class="pen1 brush0" points="190,337 190,424 200,424 200,337 190,337 190,337"/>
<polygon class="pen1 brush0" points="299,337 299,424 309,424 309,337 299,337 299,337"/>
<polygon class="pen1 brush0" points="191,424 312,418 317,413 317,409 314,405 307,404 186,411 181,415 181,419 184,423 191,424 191,424"/>
<polygon class="pen1 brush0" points="190,370 312,363 317,358 317,354 314,351 307,350 186,356 181,360 180,365 183,369 190,370 190,370"/>
<polygon class="pen1 brush0" points="190,424 210,444 289,444 309,424 289,424 279,435 220,435 210,424 190,424 190,424"/>
<polygon class="pen1 brush0" points="220,441 240,465 259,465 279,441 269,441 255,454 243,454 237,448 233,444 228,442 220,441 220,441"/>
</g>
</svg>
