<?xml version="1.0" encoding="UTF-8" standalone="no"?>
<!DOCTYPE svg PUBLIC "-//W3C//DTD SVG 1.0//EN" "http://www.w3.org/TR/2001/REC-SVG-20010904/DTD/svg10.dtd">
<svg xmlns="http://www.w3.org/2000/svg" xmlns:xlink="http://www.w3.org/1999/xlink" fill-rule="evenodd" height="0.496in" preserveAspectRatio="none" stroke-linecap="round" viewBox="0 0 496 496" width="0.496in">
<style type="text/css">
.brush0 { fill: rgb(255,255,255); }
.pen0 { stroke: rgb(0,0,0); stroke-width: 1; stroke-linejoin: round; }
.brush1 { fill: none; }
.pen1 { stroke: none; }
.brush2 { fill: rgb(0,0,0); }
</style>
<g>
<polygon class="pen1 brush2" points="496,496 496,0 0,0 0,496 496,496"/>
<polygon class="pen1 brush0" points="105,309 209,245 209,244 209,242 209,239 209,236 105,300 105,309"/>
<polygon class="pen1 brush0" points="372,458 372,450 128,450 128,458 372,458"/>
<polygon class="pen1 brush0" points="251,66 251,21 248,21 248,66 251,66"/>
<polygon class="pen1 brush0" points="261,40 239,40 239,43 261,43 261,40"/>
<polygon class="pen1 brush0" points="250,66 247,79 243,93 239,109 235,126 229,142 223,157 217,169 210,179 290,179 283,169 277,156 271,141 266,125 261,109 257,93 253,79 250,66"/>
<polygon class="pen1 brush0" points="395,309 292,245 292,244 292,242 292,239 292,236 395,300 395,309"/>
<polygon class="pen1 brush0" points="186,393 183,393 179,393 175,393 170,393 166,393 162,393 158,393 156,393 156,384 156,374 156,364 156,357 157,351 160,344 165,337 171,329 177,336 182,343 185,350 186,358 186,367 186,377 186,387 186,393 209,393 209,258 128,309 128,438 209,438 209,393 186,393"/>
<polygon class="pen1 brush0" points="315,393 315,387 315,377 315,367 315,358 316,350 319,343 324,336 330,329 336,337 340,344 343,351 344,357 344,364 344,374 344,384 344,393 338,393 330,393 321,393 315,393 292,393 292,438 372,438 372,309 292,258 292,393 315,393"/>
<polygon class="pen1 brush0" points="251,272 245,279 240,286 237,293 236,301 236,311 236,321 236,331 236,337 243,337 252,337 260,337 265,337 265,328 265,317 265,308 265,301 264,295 261,287 257,279 251,272 251,258 284,258 284,438 267,438 267,430 267,418 267,404 267,394 266,386 263,378 258,371 251,369 243,372 239,379 236,387 235,393 235,401 235,415 235,428 235,438 218,438 218,258 251,258 251,272"/>
<polygon class="pen1 brush0" points="251,197 244,200 239,207 237,217 236,227 236,232 236,232 236,231 236,233 243,233 252,233 260,233 265,233 265,229 265,228 265,228 265,226 265,219 263,209 258,201 251,197 251,187 284,187 284,249 218,249 218,187 251,187 251,197"/>
</g>
</svg>
