<?xml version="1.0" encoding="UTF-8" standalone="no"?>
<!DOCTYPE svg PUBLIC "-//W3C//DTD SVG 1.0//EN" "http://www.w3.org/TR/2001/REC-SVG-20010904/DTD/svg10.dtd">
<svg xmlns="http://www.w3.org/2000/svg" xmlns:xlink="http://www.w3.org/1999/xlink" fill-rule="evenodd" height="0.498in" preserveAspectRatio="none" stroke-linecap="round" viewBox="0 0 499 498" width="0.499in">
<style type="text/css">
.brush0 { fill: rgb(255,255,255); }
.pen0 { stroke: rgb(0,0,0); stroke-width: 1; stroke-linejoin: round; }
.brush1 { fill: none; }
.pen1 { stroke: none; }
.brush2 { fill: rgb(0,0,0); }
</style>
<g>
<polygon class="pen1 brush2" points="251,261 255,260 259,258 262,254 263,249 262,244 259,240 255,238 251,237 246,238 242,240 240,244 239,249 240,254 242,258 246,260 251,261"/>
<polygon class="pen1 brush2" points="251,273 241,271 233,266 228,258 226,249 228,240 233,232 241,227 251,225 260,227 268,232 273,240 275,249 273,258 268,266 260,271 251,273 251,289 259,288 266,286 273,282 279,277 283,271 287,265 289,257 290,249 289,241 287,233 283,227 279,221 273,216 266,212 259,210 251,209 243,210 235,212 229,216 223,221 218,227 214,233 212,241 211,249 212,257 214,265 218,271 223,277 229,282 235,286 243,288 251,289 251,273"/>
<polygon class="pen1 brush2" points="260,78 260,60 264,42 266,22 263,6 250,0 237,6 233,22 235,42 239,60 239,78 260,78"/>
<polygon class="pen1 brush2" points="260,420 260,438 264,456 266,475 263,491 250,498 237,491 233,475 235,456 239,438 239,420 260,420"/>
<polygon class="pen1 brush2" points="422,238 440,238 448,236 458,234 467,233 477,232 486,233 493,236 497,241 499,249 497,257 493,262 486,264 477,265 467,265 458,263 448,261 440,259 422,259 422,238"/>
<polygon class="pen1 brush2" points="78,238 60,238 52,236 42,234 32,233 23,232 14,233 7,236 2,241 0,249 2,257 7,262 14,264 23,265 32,265 42,263 52,261 60,259 78,259 78,238"/>
<polygon class="pen1 brush2" points="135,121 122,108 118,100 113,92 107,84 100,77 93,72 86,69 80,69 73,73 69,80 69,87 72,94 77,101 84,107 92,113 100,119 108,123 120,136 135,121"/>
<polygon class="pen1 brush2" points="121,362 108,374 100,378 92,384 84,390 77,396 72,403 69,410 69,417 73,424 80,428 86,428 93,425 100,420 107,413 113,405 118,397 122,389 135,376 121,362"/>
<polygon class="pen1 brush2" points="366,121 378,108 382,100 388,92 394,84 400,77 407,72 414,69 421,69 428,73 432,80 432,87 429,94 424,101 417,107 409,113 401,119 393,123 380,136 366,121"/>
<polygon class="pen1 brush2" points="380,362 393,374 401,378 409,384 417,390 424,396 429,403 432,410 432,417 428,424 421,428 414,428 407,425 400,420 394,413 388,405 382,397 378,389 365,376 380,362"/>
<polygon class="pen1 brush2" points="251,382 224,379 199,372 176,359 156,343 139,324 127,301 119,276 116,249 119,222 127,197 139,174 156,154 176,138 199,126 224,118 251,115 278,118 303,126 325,138 345,154 361,174 373,197 381,222 384,249 381,276 373,301 361,324 345,343 325,359 303,372 278,379 251,382 251,422 269,421 286,419 302,414 318,408 333,401 347,393 361,383 373,371 384,359 394,346 403,332 410,317 416,301 420,284 423,267 424,249 423,231 420,214 416,197 410,181 403,166 394,152 384,138 373,126 361,115 347,105 333,96 318,89 302,83 286,79 269,76 251,75 233,76 216,79 199,83 183,89 168,96 154,105 140,115 128,126 117,138 107,152 98,166 91,181 85,197 81,214 78,231 77,249 78,267 81,284 85,301 91,317 98,332 107,346 117,359 128,371 140,383 154,393 168,401 183,408 199,414 216,419 233,421 251,422 251,382"/>
<polygon class="pen1 brush2" points="265,123 265,138 257,138 260,152 262,174 260,196 251,205 242,196 240,174 242,152 245,138 237,138 237,123 265,123"/>
<polygon class="pen1 brush2" points="265,374 265,359 257,359 260,346 262,323 260,302 251,293 242,302 240,323 242,346 245,359 237,359 237,374 265,374"/>
<polygon class="pen1 brush2" points="125,235 140,235 140,243 145,242 154,240 165,239 177,238 189,238 199,240 205,243 208,249 205,255 199,258 189,260 177,260 165,259 154,258 145,256 140,255 140,263 125,263 125,235"/>
<polygon class="pen1 brush2" points="375,235 360,235 360,243 355,242 347,240 336,239 324,238 313,238 303,240 297,243 294,249 297,255 303,258 313,260 324,260 336,259 347,258 355,256 360,255 360,263 375,263 375,235"/>
<polygon class="pen1 brush2" points="332,151 322,162 327,167 323,170 316,175 307,181 299,189 291,198 285,206 283,213 285,219 291,221 298,219 306,213 315,205 322,196 329,187 334,180 336,176 342,181 352,171 332,151"/>
<polygon class="pen1 brush2" points="332,347 321,336 327,331 323,328 316,323 307,317 298,309 290,300 285,292 282,285 285,279 291,277 298,279 306,285 314,293 321,302 328,310 333,318 335,322 341,317 351,327 332,347"/>
<polygon class="pen1 brush2" points="169,151 180,162 174,167 179,170 186,175 195,181 204,189 212,198 218,206 220,213 218,219 212,221 204,219 196,213 188,205 180,196 173,187 169,180 166,176 160,181 150,171 169,151"/>
<polygon class="pen1 brush2" points="170,347 181,336 175,331 179,328 187,323 195,317 204,309 212,300 218,292 220,285 218,279 212,277 205,279 197,285 189,293 181,302 174,310 169,318 166,322 161,317 150,327 170,347"/>
</g>
</svg>
