<?xml version="1.0" encoding="UTF-8" standalone="no"?>
<!DOCTYPE svg PUBLIC "-//W3C//DTD SVG 1.0//EN" "http://www.w3.org/TR/2001/REC-SVG-20010904/DTD/svg10.dtd">
<svg xmlns="http://www.w3.org/2000/svg" xmlns:xlink="http://www.w3.org/1999/xlink" fill-rule="evenodd" height="0.579in" preserveAspectRatio="none" stroke-linecap="round" viewBox="0 0 518 579" width="0.518in">
<style type="text/css">
.brush0 { fill: rgb(255,255,255); }
.pen0 { stroke: rgb(0,0,0); stroke-width: 1; stroke-linejoin: round; }
.brush1 { fill: none; }
.pen1 { stroke: none; }
.brush2 { fill: rgb(0,0,0); }
</style>
<g>
<polygon class="pen1 brush2" points="264,576 253,576 242,575 231,573 220,571 209,569 198,565 187,562 177,558 166,553 156,548 146,542 135,535 126,528 116,521 106,513 97,504 65,465 42,422 29,377 24,330 29,283 42,238 65,195 97,156 127,130 160,110 193,95 228,87 263,83 298,85 333,91 366,102 397,118 426,138 452,161 474,188 492,219 506,253 515,290 518,330 518,330 517,358 512,384 506,409 496,432 485,454 471,475 456,493 439,510 420,526 401,539 380,550 358,560 335,567 312,572 288,575 264,576"/>
<polygon class="pen1 brush0" points="153,476 156,483 161,488 167,491 174,492 174,492 174,492 264,492 264,398 177,398 168,411 159,425 153,440 150,456 150,462 151,467 152,472 153,476"/>
<polygon class="pen1 brush0" points="172,284 166,284 154,284 137,284 119,284 101,285 88,287 82,290 86,295 103,306 98,313 93,321 88,329 83,337 80,345 78,353 79,362 82,371 139,469 138,453 140,438 146,423 153,408 162,394 172,380 181,367 190,354 190,354 193,356 197,359 202,361 206,363 209,364 212,363 212,361 209,355 172,284"/>
<polygon class="pen1 brush0" points="203,163 192,165 181,172 171,182 163,194 155,208 147,221 141,234 135,244 177,272 212,296 212,296 259,223 253,209 246,197 239,186 232,178 225,171 218,167 210,164 203,163"/>
<polygon class="pen1 brush0" points="359,279 362,274 369,265 377,252 386,237 394,223 400,211 402,202 399,199 396,200 390,203 383,206 376,209 371,198 366,188 361,178 355,170 348,163 339,158 328,154 314,153 210,153 226,160 240,169 251,181 261,194 269,209 276,225 283,240 290,256 289,257 285,259 281,261 277,264 273,267 271,269 272,271 277,272 359,279"/>
<polygon class="pen1 brush0" points="457,343 455,332 451,321 445,310 437,299 429,288 421,278 414,269 408,260 364,285 328,306 374,383 374,383 383,383 392,383 401,383 410,383 418,382 426,380 434,376 442,371 449,364 454,357 456,350 457,343"/>
<polygon class="pen1 brush0" points="459,373 446,383 432,391 415,395 398,397 381,397 363,397 346,396 330,396 330,390 329,381 326,374 322,377 282,448 285,453 291,463 298,475 306,488 314,500 322,511 328,518 332,520 335,515 336,508 335,499 335,493 341,493 350,493 361,493 372,493 383,491 392,488 398,484 400,478 400,478 459,373"/>
</g>
</svg>
