<?xml version="1.0" encoding="UTF-8" standalone="no"?>
<!DOCTYPE svg PUBLIC "-//W3C//DTD SVG 1.0//EN" "http://www.w3.org/TR/2001/REC-SVG-20010904/DTD/svg10.dtd">
<svg xmlns="http://www.w3.org/2000/svg" xmlns:xlink="http://www.w3.org/1999/xlink" fill-rule="evenodd" height="1.658in" preserveAspectRatio="none" stroke-linecap="round" viewBox="0 0 2504 1658" width="2.504in">
<style type="text/css">
.brush0 { fill: rgb(255,255,255); }
.pen0 { stroke: rgb(0,0,0); stroke-width: 1; stroke-linejoin: round; }
.brush1 { fill: none; }
.pen1 { stroke: none; }
.brush2 { fill: rgb(0,0,0); }
</style>
<g>
<polygon class="pen1 brush2" points="0,0 0,1658 2504,1658 2504,0 2395,0 2395,1547 108,1547 108,111 2286,111 2286,0 0,0 0,0"/>
<polygon class="pen1 brush2" points="979,995 984,999 989,1004 995,1009 1001,1014 1007,1019 1013,1025 1019,1030 1026,1035 1033,1039 1040,1044 1047,1048 1054,1053 1062,1057 1070,1062 1078,1066 1086,1070 1094,1073 1103,1078 1113,1081 1122,1084 1141,1090 1161,1095 1182,1099 1204,1103 1251,1105 1299,1102 1343,1093 1363,1087 1383,1079 1393,1075 1402,1072 1411,1067 1420,1062 1428,1058 1437,1054 1444,1049 1452,1045 1460,1040 1466,1035 1473,1031 1481,1026 1486,1022 1493,1018 1499,1014 1505,1009 1510,1005 1515,1002 1520,998 1524,995 1530,989 1536,984 1542,978 1546,974 1550,971 1554,966 1559,962 1564,957 1569,953 1574,947 1579,942 1585,936 1591,930 1597,924 1603,918 1610,911 1617,904 1620,901 1624,898 1628,895 1632,890 1639,883 1642,879 1647,875 1651,872 1654,868 1658,863 1662,859 1667,855 1671,852 1675,847 1679,842 1683,838 1687,834 1692,830 1696,826 1701,820 1706,816 1710,811 1715,807 1719,803 1724,798 1728,794 1733,789 1738,783 1742,778 1747,774 1752,769 1757,764 1761,759 1766,754 1771,749 1776,744 1781,739 1786,734 1792,729 1797,724 1802,719 1807,714 1812,708 1817,703 1823,698 1828,693 1833,687 1838,682 1843,677 1848,671 1854,666 1859,660 1865,655 1870,649 1876,644 1881,638 1887,633 1892,627 1897,621 1903,616 1908,610 1914,604 1919,599 1925,593 1931,587 1936,582 1941,576 1947,571 1953,565 1958,560 1964,554 1970,548 1975,542 1980,536 1986,531 1992,525 1998,519 2003,513 2009,507 2015,502 2020,496 2025,491 2031,485 2037,479 2043,474 2048,468 2054,462 2059,456 2065,450 2070,445 2076,439 2082,433 2087,427 2093,422 2098,416 2103,411 2109,405 2115,400 2120,394 2126,388 2132,383 2137,377 2142,372 2147,366 2153,360 2158,355 2164,349 2169,344 2175,338 2180,333 2185,327 2191,322 2196,317 2201,311 2206,306 2211,300 2216,295 2221,290 2227,285 2232,279 2237,274 2242,269 2247,264 2252,259 2257,254 2262,249 2267,244 2272,239 2277,234 2281,229 2286,224 2291,220 2295,214 2300,209 2305,205 2309,200 2314,195 2318,191 2323,186 2328,182 2332,177 2336,172 2341,168 2345,164 2349,160 2358,150 2362,146 2366,142 2370,138 2374,135 2377,130 2382,126 2386,122 2389,119 2393,114 2397,111 2400,107 2404,103 2411,96 2414,92 2418,89 2424,82 2431,76 2437,70 2443,63 2449,58 2454,52 2459,46 2464,42 2469,37 2473,33 2477,28 2481,24 2485,20 2488,17 2494,11 2498,7 2501,3 2504,0 2395,0 1415,958 1405,962 1396,967 1387,971 1378,977 1370,981 1362,986 1354,990 1345,994 1337,998 1327,1002 1317,1005 1306,1008 1281,1011 1251,1013 1197,1009 1176,1003 1157,997 1149,993 1141,988 1133,984 1124,980 1116,976 1107,971 1098,966 1088,961 108,0 0,0 2,3 4,7 9,11 15,17 19,20 22,23 26,28 30,32 34,36 39,41 44,46 49,51 54,56 60,62 66,68 72,75 78,81 85,87 92,94 95,98 99,102 106,108 110,113 113,116 117,120 121,124 128,132 132,136 137,140 141,145 145,148 149,152 153,156 157,161 161,166 166,170 170,174 175,178 179,183 184,188 188,192 192,197 197,202 201,206 206,211 211,215 215,220 220,225 225,230 230,235 235,240 240,245 244,250 249,255 254,260 259,265 264,270 269,275 274,280 280,285 285,291 290,296 295,301 300,306 306,312 311,317 316,322 322,328 327,333 333,338 337,344 342,349 348,355 353,360 359,366 364,371 370,377 376,383 381,388 386,394 391,399 397,405 402,411 408,416 414,422 420,427 425,432 431,438 436,444 441,449 447,455 453,461 458,467 464,472 470,478 475,484 480,490 486,495 492,501 497,507 503,512 509,517 514,523 520,529 525,535 531,540 537,546 542,552 548,557 553,563 558,569 564,574 570,580 575,586 581,592 587,597 592,602 597,608 603,613 608,619 614,624 619,630 625,635 630,641 636,646 641,652 646,657 651,663 656,668 662,673 667,679 672,684 678,689 683,694 688,700 693,705 699,710 704,715 709,720 714,726 719,731 724,736 729,741 734,746 739,751 744,757 749,761 753,766 758,771 763,776 768,780 772,785 777,790 781,794 786,799 791,804 795,809 799,813 804,818 808,822 813,826 818,831 822,835 826,840 830,844 834,848 838,852 842,856 847,860 850,864 854,868 858,873 862,876 866,880 870,884 876,891 881,895 884,899 891,905 897,912 904,918 911,925 916,931 922,937 928,943 933,948 938,953 943,958 948,962 952,967 956,971 960,975 966,982 972,987 976,992 979,995 979,995"/>
<polygon class="pen1 brush2" points="1851,111 2504,111 2504,0 2111,0 1851,111 1851,111"/>
<polygon class="pen1 brush2" points="0,1658 943,884 889,814 0,1547 0,1658 0,1658"/>
<polygon class="pen1 brush2" points="2504,1658 1557,884 1615,814 2504,1547 2504,1658 2504,1658"/>
</g>
</svg>
