<?xml version="1.0" encoding="UTF-8" standalone="no"?>
<!DOCTYPE svg PUBLIC "-//W3C//DTD SVG 1.0//EN" "http://www.w3.org/TR/2001/REC-SVG-20010904/DTD/svg10.dtd">
<svg xmlns="http://www.w3.org/2000/svg" xmlns:xlink="http://www.w3.org/1999/xlink" fill-rule="evenodd" height="1.987in" preserveAspectRatio="none" stroke-linecap="round" viewBox="0 0 1411 1987" width="1.411in">
<style type="text/css">
.brush0 { fill: rgb(255,255,255); }
.pen0 { stroke: rgb(0,0,0); stroke-width: 1; stroke-linejoin: round; }
.brush1 { fill: none; }
.pen1 { stroke: none; }
.brush2 { fill: rgb(0,0,0); }
</style>
<g>
<polygon class="pen1 brush2" points="1053,68 1041,580 1046,577 1052,575 1057,573 1063,571 1069,570 1075,570 1080,569 1086,569 1105,572 1124,580 1142,592 1159,610 1175,631 1191,656 1206,684 1219,716 1231,750 1242,786 1252,823 1260,863 1266,903 1271,944 1274,985 1275,1026 1274,1068 1271,1110 1267,1153 1261,1196 1253,1239 1244,1280 1233,1320 1221,1358 1208,1393 1194,1425 1179,1453 1162,1478 1145,1498 1128,1513 1109,1522 1090,1525 1083,1525 1075,1524 1068,1522 1061,1520 1054,1517 1048,1514 1041,1510 1034,1506 1026,1930 1073,1898 1116,1863 1156,1824 1193,1781 1226,1735 1256,1685 1283,1632 1306,1576 1327,1516 1345,1453 1361,1386 1373,1316 1384,1244 1391,1167 1397,1088 1400,1006 1400,929 1396,853 1389,778 1378,705 1364,633 1347,564 1327,497 1305,433 1280,373 1253,315 1223,262 1192,214 1159,169 1125,130 1090,96 1053,68"/>
<polygon class="pen1 brush2" points="904,1026 907,956 914,885 927,815 944,750 964,691 988,642 1015,603 1044,579 1053,68 1026,56 1001,46 976,38 952,32 929,27 905,23 882,20 860,18 836,17 813,16 788,16 763,16 737,16 710,17 681,16 651,16 637,16 624,17 610,18 597,19 583,21 569,23 556,25 542,28 534,42 531,52 531,61 533,69 534,78 534,89 530,103 520,122 600,71 680,199 849,135 669,263 566,148 479,196 473,206 468,216 463,226 458,236 452,246 447,256 442,267 437,277 439,276 520,403 692,339 508,468 406,353 401,355 394,371 388,386 381,403 374,419 368,436 362,452 356,469 350,486 360,480 439,608 611,544 428,671 326,557 320,578 314,598 308,619 303,640 297,661 292,682 287,703 283,724 316,702 396,831 568,767 385,894 282,779 272,785 263,838 257,892 252,946 250,1000 294,973 375,1100 545,1037 362,1165 259,1050 250,1056 251,1097 253,1137 256,1178 261,1220 280,1204 411,1334 552,1268 425,1399 278,1282 272,1287 276,1310 281,1332 286,1355 291,1377 297,1400 304,1423 310,1447 318,1470 333,1451 454,1590 584,1514 467,1662 347,1550 354,1569 362,1588 370,1607 379,1626 387,1646 397,1665 406,1684 416,1703 420,1698 534,1820 648,1748 570,1887 466,1794 479,1819 488,1841 495,1862 500,1882 507,1902 515,1923 528,1946 546,1972 559,1974 573,1976 588,1977 602,1978 616,1979 631,1979 645,1979 658,1979 680,1979 703,1978 726,1978 751,1978 775,1978 800,1977 825,1976 850,1975 875,1973 899,1970 923,1966 946,1961 968,1955 988,1948 1008,1940 1026,1930 1034,1506 1007,1478 982,1435 959,1379 941,1314 925,1243 914,1169 906,1096 904,1026"/>
<polygon class="pen1 brush2" points="444,1779 376,1856 251,1711 360,1788 416,1703 406,1684 397,1665 387,1646 379,1626 370,1607 362,1588 354,1569 347,1550 332,1537 222,1641 149,1486 229,1568 318,1470 310,1447 304,1423 297,1400 291,1377 286,1355 281,1332 276,1310 272,1287 159,1374 78,1230 166,1309 261,1220 256,1178 253,1137 251,1097 250,1056 100,1140 77,998 134,1075 250,1000 252,946 257,892 263,838 272,785 122,869 99,729 157,805 283,724 287,703 292,682 297,661 303,640 308,619 314,598 320,578 326,557 325,556 166,646 143,506 200,583 350,486 356,469 362,452 368,436 374,419 381,403 388,386 394,371 401,355 246,441 222,301 280,378 437,277 442,267 447,256 452,246 458,236 463,226 468,216 473,206 479,196 427,237 404,96 461,173 520,122 530,103 534,89 534,78 533,69 531,61 531,52 534,42 542,28 477,45 418,70 362,100 312,138 266,181 224,230 187,284 154,343 125,408 99,477 78,551 60,628 45,710 34,795 27,883 22,974 22,1098 30,1213 44,1319 65,1416 92,1504 124,1585 159,1657 198,1721 240,1777 283,1826 328,1868 374,1902 419,1929 463,1950 506,1964 546,1972 528,1946 515,1923 507,1902 500,1882 495,1862 488,1841 479,1819 466,1794 444,1779"/>
<polygon class="pen1 brush2" points="1091,1433 1097,1432 1112,1424 1134,1406 1158,1373 1180,1320 1197,1241 1206,1133 1203,990 1201,1005 1196,1044 1186,1099 1172,1162 1153,1225 1128,1278 1099,1314 1063,1325 1061,1328 1056,1338 1050,1352 1046,1368 1045,1387 1051,1404 1066,1420 1091,1433"/>
<polygon class="pen1 brush2" points="982,1105 981,1100 979,1088 977,1068 974,1041 971,1011 970,976 970,939 972,901 976,862 983,825 994,789 1009,757 1028,730 1053,708 1083,693 1119,686 1113,690 1096,703 1072,728 1046,767 1020,822 998,895 984,989 982,1105"/>
</g>
</svg>
