<?xml version="1.0" encoding="UTF-8" standalone="no"?>
<!DOCTYPE svg PUBLIC "-//W3C//DTD SVG 1.0//EN" "http://www.w3.org/TR/2001/REC-SVG-20010904/DTD/svg10.dtd">
<svg xmlns="http://www.w3.org/2000/svg" xmlns:xlink="http://www.w3.org/1999/xlink" fill-rule="evenodd" height="1.896in" preserveAspectRatio="none" stroke-linecap="round" viewBox="0 0 989 1896" width="0.989in">
<style type="text/css">
.brush0 { fill: rgb(255,255,255); }
.pen0 { stroke: rgb(0,0,0); stroke-width: 1; stroke-linejoin: round; }
.brush1 { fill: none; }
.pen1 { stroke: none; }
.brush2 { fill: rgb(0,0,0); }
</style>
<g>
<polygon class="pen1 brush2" points="142,1110 345,1253 511,1167 490,1147 392,1202 295,1073 258,1103 197,1103 166,1080 156,1046 159,998 135,975 119,1012 112,1049 115,1076 142,1110 142,1110"/>
<polygon class="pen1 brush2" points="176,941 203,917 240,917 288,941 311,975 318,1026 295,1070 291,1026 278,985 227,951 197,965 176,941 176,941"/>
<polygon class="pen1 brush2" points="315,1023 454,1185 494,1157 301,971 315,1023 315,1023"/>
<polygon class="pen1 brush2" points="169,1037 196,1052 228,1060 256,1047 266,1022 269,990 249,970 216,980 251,999 239,1027 211,1029 221,1012 169,919 159,880 176,827 231,775 301,736 385,678 400,641 407,574 403,551 376,562 360,598 360,656 259,721 181,765 136,813 119,845 109,898 124,947 146,999 169,1037 169,1037"/>
<polygon class="pen1 brush2" points="161,1208 115,1296 88,1396 88,1514 120,1647 183,1747 296,1840 393,1873 503,1891 604,1896 729,1866 859,1775 911,1700 969,1585 989,1444 959,1294 886,1171 787,1076 663,1023 536,1006 444,1016 366,1039 391,1061 458,1038 548,1034 642,1049 708,1081 769,1128 823,1207 856,1287 881,1367 867,1508 823,1624 758,1696 675,1736 572,1741 453,1745 690,1678 449,1689 309,1647 493,1662 618,1627 412,1607 249,1545 363,1570 519,1562 393,1539 302,1499 221,1441 311,1451 439,1463 299,1402 201,1337 303,1357 381,1367 273,1314 211,1259 316,1286 368,1303 301,1248 265,1207 233,1161 177,1309 173,1440 210,1562 282,1671 373,1740 495,1790 646,1802 558,1818 471,1818 386,1798 284,1746 188,1634 145,1482 165,1273 210,1142 161,1208 161,1208"/>
<polygon class="pen1 brush2" points="124,1435 157,1339 192,1284 256,1171 217,1140 176,1200 129,1316 124,1435 124,1435"/>
<polygon class="pen1 brush2" points="339,607 76,580 271,489 125,310 346,431 340,148 409,425 606,193 480,452 803,429 506,512 734,587 506,580 667,739 470,627 390,779 356,687 375,848 483,687 761,800 588,610 833,603 598,515 873,417 568,404 660,110 426,337 311,0 310,374 88,269 211,478 0,603 241,627 105,782 354,666 161,722 339,607 339,607"/>
</g>
</svg>
