<?xml version="1.0" encoding="UTF-8" standalone="no"?>
<!DOCTYPE svg PUBLIC "-//W3C//DTD SVG 1.0//EN" "http://www.w3.org/TR/2001/REC-SVG-20010904/DTD/svg10.dtd">
<svg xmlns="http://www.w3.org/2000/svg" xmlns:xlink="http://www.w3.org/1999/xlink" fill-rule="evenodd" height="1.785in" preserveAspectRatio="none" stroke-linecap="round" viewBox="0 0 1794 1785" width="1.794in">
<style type="text/css">
.brush0 { fill: rgb(255,255,255); }
.pen0 { stroke: rgb(0,0,0); stroke-width: 1; stroke-linejoin: round; }
.brush1 { fill: none; }
.pen1 { stroke: none; }
.brush2 { fill: rgb(0,0,0); }
</style>
<g>
<polygon class="pen1 brush2" points="562,711 487,737 416,781 346,839 281,930 249,1011 233,1091 233,1167 244,1232 271,1306 303,1371 352,1430 422,1495 492,1538 573,1570 703,1591 816,1581 907,1559 989,1522 1075,1452 1140,1382 1172,1339 1221,1274 1454,1785 173,1785 130,1780 97,1764 54,1731 22,1683 11,1634 0,1581 0,189 17,124 44,71 81,33 130,6 173,0 519,0 519,328 535,372 562,711"/>
<polygon class="pen1 brush2" points="535,383 589,995 1091,995 1297,1446 1567,1328 1535,1264 1356,1339 1161,893 687,893 676,802 1038,802 1032,700 671,700 643,436 676,431 714,415 746,383 767,339 767,291 751,248 735,226 692,194 638,184 594,189 556,216 529,253 519,285 168,0 1621,0 1702,27 1751,70 1783,119 1794,162 1794,1618 1777,1667 1762,1693 1735,1731 1697,1764 1665,1780 1615,1785 1378,1785 1107,1183 1086,1258 1043,1328 978,1403 902,1457 832,1479 735,1490 622,1479 551,1452 492,1419 443,1382 406,1339 367,1285 346,1232 335,1162 335,1087 357,1017 389,947 427,898 481,850 508,834 492,732 535,383"/>
</g>
</svg>
