<?xml version="1.0" encoding="UTF-8" standalone="no"?>
<!DOCTYPE svg PUBLIC "-//W3C//DTD SVG 1.0//EN" "http://www.w3.org/TR/2001/REC-SVG-20010904/DTD/svg10.dtd">
<svg xmlns="http://www.w3.org/2000/svg" xmlns:xlink="http://www.w3.org/1999/xlink" fill-rule="evenodd" height="0.869in" preserveAspectRatio="none" stroke-linecap="round" viewBox="0 0 1124 869" width="1.124in">
<style type="text/css">
.brush0 { fill: rgb(255,255,255); }
.pen0 { stroke: rgb(0,0,0); stroke-width: 1; stroke-linejoin: round; }
.brush1 { fill: none; }
.pen1 { stroke: none; }
.brush2 { fill: rgb(0,0,0); }
</style>
<g>
<polygon class="pen1 brush2" points="188,785 112,454 107,451 95,444 78,431 59,413 42,389 29,359 23,324 27,283 28,280 31,272 37,260 47,247 61,235 80,224 106,217 138,216 139,213 142,204 149,192 161,179 180,167 206,158 242,153 289,156 290,152 294,143 302,130 315,115 335,102 362,93 398,90 445,95 447,92 453,85 463,76 478,65 498,56 524,50 557,48 596,53 597,52 598,50 602,46 606,41 612,36 619,31 627,26 637,21 648,17 661,14 675,12 690,12 707,14 725,18 745,25 766,35 768,35 773,36 782,38 793,40 806,43 822,47 839,52 857,57 876,64 896,71 916,79 936,89 955,99 973,111 989,123 1004,137 1012,145 1018,154 1024,164 1029,174 1033,184 1036,195 1038,206 1039,217 1038,230 1036,244 1032,258 1026,273 1018,289 1009,305 997,322 983,339 891,679 453,869 188,785 226,758 454,815 844,653 944,331 946,329 951,323 958,313 967,301 975,286 982,269 987,250 989,229 987,208 980,186 966,164 945,142 915,122 876,102 827,84 766,68 761,65 749,59 730,51 708,44 683,42 658,46 635,59 616,83 610,82 595,80 573,78 547,78 521,81 497,89 478,103 468,125 462,123 446,120 423,118 397,118 370,123 346,136 328,157 318,191 312,190 296,187 274,184 248,184 222,187 199,197 181,214 173,241 167,241 153,241 133,244 111,250 91,261 75,278 68,302 72,336 72,339 73,346 76,357 81,371 89,385 101,398 118,410 141,418 227,758 188,785"/>
<polygon class="pen1 brush2" points="141,243 145,243 156,244 174,245 196,247 223,251 253,255 285,261 318,268 350,277 381,287 411,300 436,315 458,332 474,352 483,374 485,399 484,402 483,411 479,423 475,437 468,453 459,468 448,481 434,490 416,812 459,835 472,508 474,506 479,502 486,495 494,485 504,474 513,460 522,445 530,429 535,411 537,393 536,375 531,356 521,338 505,319 482,302 452,285 450,284 446,282 439,279 429,275 417,270 402,265 386,259 368,252 348,246 327,240 305,235 282,229 258,225 234,221 209,218 184,217 141,243"/>
<polygon class="pen1 brush2" points="275,185 278,185 285,186 297,186 313,188 333,190 355,194 381,198 408,204 438,212 468,221 500,232 532,244 563,260 595,277 625,297 654,320 653,318 650,314 644,307 636,297 626,286 613,274 597,260 579,246 558,231 535,217 508,202 479,189 446,177 410,167 371,158 329,152 275,185"/>
<polygon class="pen1 brush2" points="431,120 433,120 440,121 451,122 465,125 482,128 503,132 525,138 550,145 577,153 605,163 634,175 664,189 694,205 724,223 753,244 782,267 781,265 777,261 772,254 764,245 753,234 740,222 725,208 708,194 688,179 666,165 642,150 615,137 586,124 555,113 521,103 485,96 431,120"/>
<polygon class="pen1 brush2" points="569,78 571,78 578,79 589,80 603,83 620,86 641,90 664,96 689,103 716,111 744,121 773,133 803,147 833,163 863,181 893,202 922,225 921,223 917,219 911,212 902,203 891,193 878,181 862,167 845,154 825,139 803,125 778,111 752,98 724,86 693,75 661,66 627,59 569,78"/>
<polygon class="pen1 brush2" points="460,502 462,502 467,502 476,503 487,503 500,502 515,500 531,498 548,494 566,489 583,482 600,474 617,463 631,449 644,434 655,415 663,393 668,396 681,402 700,409 723,413 747,413 770,405 791,387 806,355 809,357 818,362 833,368 851,373 872,373 895,368 919,355 944,331 943,336 939,347 932,363 921,380 904,395 883,405 855,407 820,399 817,403 809,414 797,429 779,443 758,455 733,461 704,457 672,441 671,443 669,448 666,455 661,464 654,475 646,486 636,498 624,509 610,518 595,526 577,532 558,534 537,533 513,528 488,518 460,502"/>
</g>
</svg>
