<?xml version="1.0" encoding="iso-8859-1"?>
<!DOCTYPE svg PUBLIC "-//W3C//DTD SVG 1.0//EN" "http://www.w3.org/TR/2001/REC-SVG-20010904/DTD/svg10.dtd">
<svg xmlns="http://www.w3.org/2000/svg" xml:space="preserve" width="1in" height="1in" shape-rendering="geometricPrecision" text-rendering="geometricPrecision" image-rendering="optimizeQuality" fill-rule="evenodd"
     viewBox="0 0 1000 1000">
 <g>

   <path d="M112 255l261 224 6 2 18 4 27 11 30 14 30 22 26 30 20 41 10 48 4 71 -4 55 -6 42 -12 34 -14 31 -18 30 -18 34 -22 41 2 2 6 0 12 -2 12 -2 14 -4 12 -2 8 -4 4 0 20 -23 16 -32 16 -38 12 -45 10 -46 6 -47 2 -46 
-2 -45 -8 -50 -12 -45 -16 -38 -14 -35 -16 -26 -12 -20 -8 -12 -4 -4 14 0 20 -4 22 -2 24 -6 29 -4 28 -8 30 -7 28 -8 30 -6 26 -8 26 -6 24 -6 21 -6 16 -4 12 -4 8 -2 -12 -2 -30 -2 -45 -6 -50 -4 -52 -6 -46 -4 -39 -2 -20 0 
10 -6 28 -15 41 -18 46 -24 46 -24 40 -22 30 -19 13 -10 -13 2 -34 4 -46 6 -54 8 -56 9 -49 8 -36 8 -16 6 4 -8 12 -23 18 -32 18 -36 20 -41 16 -36 11 -30 4 -21 -8 8 -21 25 -30 32 -34 38 -34 39 -30 36 -22 29 -10 16 -4 -8 
-13 -19 -16 -28 -20 -32 -20 -33 -22 -28 -18 -22 -14 -12 4 38 10 85 12 91 12 57 -10 -2 -24 -8 -34 -11 -40 -12 -43 -10 -38 -10 -30 -6 -18 -2z"/>
   <path fill="#FFFFFF" d="M438 401l12 0 12 -5 12 -4 14 -6 10 -6 10 -8 6 -8 2 -8 -2 -10 -4 -10 -8 -12 -10 -12 -12 -8 -12 -9 -10 -6 -12 -2 -20 8 -21 19 -12 22 -6 22 4 16 10 14 16 8 21 5z"/>
   <path d="M452 370l12 -2 10 -4 6 -8 2 -10 -2 -10 -6 -8 -10 -6 -12 -2 -12 2 -10 6 -9 8 -2 10 2 10 9 8 10 4 12 2z"/>

 </g>
</svg>
