<?xml version="1.0" encoding="iso-8859-1"?>
<!DOCTYPE svg PUBLIC "-//W3C//DTD SVG 1.0//EN" "http://www.w3.org/TR/2001/REC-SVG-20010904/DTD/svg10.dtd">
<svg xmlns="http://www.w3.org/2000/svg" xml:space="preserve" width="1in" height="1in" shape-rendering="geometricPrecision" text-rendering="geometricPrecision" image-rendering="optimizeQuality" fill-rule="evenodd"
     viewBox="0 0 1000 1000">
 <g>

  <path d="M499 705l0 -9 193 -195 -12 0 156 -156 -26 -25 -181 181 -14 0 -116 117 0 -10 -192 191 49 50 143 -144z"/>
  <path d="M706 216l-205 207 0 -14 -91 92 -10 0 -197 197 48 47 246 -242 -9 0 11 -14 0 -14 233 -233 -26 -26z"/>
  <path d="M655 162l-156 158 0 -14 -194 195 -8 0 -146 145 48 50 195 -195 -10 0 115 -116 0 -14 181 -181 -25 -28z"/>
  <path d="M603 111l-102 103 0 -12 -300 299 -10 0 -91 93 -2 -2 49 50 142 -141 -10 0 220 -221 0 -12 130 -131 -26 -26z"/>
  <path d="M758 268l-233 233 -12 0 -14 14 0 -10 -244 242 50 50 194 -195 0 -10 92 -91 -12 0 205 -207 -26 -26z"/>
  <path d="M82 501l-10 0 429 -428 0 -14 24 -26 -26 -26 -493 494 38 37 38 -37z"/>
  <path d="M501 111l0 -12 -403 402 -10 0 -40 41 -4 -4 52 52 89 -89 -10 0 326 -325 0 -14 78 -77 -26 -26 -52 52z"/>
  <path d="M499 809l0 -10 299 -298 -14 0 103 -104 -26 -26 -129 130 -14 0 -219 218 0 -8 -141 142 50 47 91 -91z"/>
  <path d="M967 475l-26 26 -14 0 -428 427 0 -10 -35 38 35 38 494 -493 -26 -26z"/>
  <path d="M915 423l-77 78 -14 0 -325 324 0 -10 -89 89 50 48 39 -40 0 -10 402 -401 -12 0 52 -52 -26 -26z"/>

 </g>
</svg>
