<?xml version="1.0" encoding="iso-8859-1"?>
<!DOCTYPE svg PUBLIC "-//W3C//DTD SVG 1.0//EN" "http://www.w3.org/TR/2001/REC-SVG-20010904/DTD/svg10.dtd">
<svg xmlns="http://www.w3.org/2000/svg" xmlns:odm="http://product.corel.com/CGS/11/cddns/" xmlns:corel-charset="http://product.corel.com/CGS/11/cddns/" xml:space="preserve" width="1in" height="1in" style="shape-rendering:geometricPrecision; text-rendering:geometricPrecision; image-rendering:optimizeQuality; fill-rule:evenodd"
     viewBox="0 0 1000 1000">
 <g>

  <path d="M613 967l-45 -213 -516 -72 290 -65 -316 -190 13 2 14 2 12 2 14 1 14 2 12 2 14 2 12 2 14 2 12 2 14 2 14 1 12 2 14 1 12 2 14 2 -5 -21 -8 -20 -11 -22 -14 -21 -15 -21 -18 -22 -18 -24 -19 -23 -19 -25 -17 -25 -18 -27 -15 -29 -14 -31 -11 -32 -8 -35 -4 -37 339 326 66 -340 52 342 107 -351 30 229 307 -191 -304 407 369 86 -143 29 46 310 -176 -219 -103 298z"/>

 </g>
</svg>
