<?xml version="1.0" encoding="iso-8859-1"?>
<!DOCTYPE svg PUBLIC "-//W3C//DTD SVG 1.0//EN" "http://www.w3.org/TR/2001/REC-SVG-20010904/DTD/svg10.dtd">
<svg xmlns="http://www.w3.org/2000/svg" xml:space="preserve" width="1in" height="1in" style="shape-rendering:geometricPrecision; text-rendering:geometricPrecision; image-rendering:optimizeQuality; fill-rule:evenodd"
     viewBox="0 0 1000 1000">
 <g>

  <path d="M129 994l15 -29 16 -28 17 -29 17 -27 17 -28 18 -27 19 -28 18 -27 19 -27 20 -26 20 -27 20 -27 20 -26 20 -27 21 -27 21 -27 -5 -3 -9 0 -12 0 -15 2 -18 3 -19 5 -21 4 -21 6 -21 5 -22 6 -20 5 -19 6 -17 4 -15 4 -12 3 -8 2 15 -8 15 -7 15 -7 16 -6 16 -5 16 -5 16 -5 17 -4 16 -5 17 -4 16 -4 17 -5 16 -5 17 -5 16 -6 16 -6 6 -18 -12 -1 -13 -3 -13 -4 -14 -5 -14
 -5 -13 -6 -14 -5 -12 -5 13 -2 17 1 17 4 18 4 17 5 15 2 11 -2 7 -6 -16 -25 -15 -26 -16 -25 -15 -25 -16 -26 -15 -25 -16 -26 -15 -25 -15 -26 -15 -26 -15 -26 -15 -26 -15 -26 -15 -26 -14 -26 -15 -27 19 20 18 21 17 23 16 23 15 25 15 25 14 26 14 27 14 26 14 27 15 26 15 26 15 25 16 24 18 24 18 22 3 -111 3 -115 3 -115 4 -113 6 57 3 57 0 59 0 59 0 60 2 59 4 58 9 58 23 -20 24 -22 25 -22 25 -23 25 -24 26 -24 25 -25 26 -25 26 -25 25 -26 25 -25 25 -26 24 -26 23 -25 23 -25 22 -25 1 6 0 5 0 5 -2 7 -4 8 -5 11 -7 14 -9 18 -8 7 -14 12 -19 17 -22 22 -26 24 -27 26 -29 29 -30 28 -29 29 -28 28 -27 26 -23 24 -20 20 -15 16 -10 12 -4 5 7 1 16 -3 22
 -5 28 -7 33 -8 36 -11 38 -10 39 -12 38 -11 37 -10 35 -9 30 -8 26 -6 19 -3 11 -1 3 3 -405 137 300 94 -21 3 -21 1 -20 -1 -20 -3 -20 -5 -20 -5 -19 -7 -19 -7 -20 -8 -19 -8 -19 -8 -20 -7 -20 -7 -20 -6 -21 -4 -21 -3 219 257 -18 -8 -18 -9 -16 -11 -15 -13 -15 -13 -14 -14 -14 -15 -13 -15 -14 -16 -13 -16 -13 -15 -14 -16 -14 -15 -15 -14 -15 -14 -16 -12 -2 10 1 25 3 35 4 40 5 41 4 38 4 29 2 16 -14 -4 -12 -23 -8 -36 -7 -44 -4 -46 -4 -42 -3 -32 -3 -18 -10 4 -14 12 -17 18 -20 24 -22 28 -23 32 -25 35 -25 36 -24 37 -25 37 -22 36 -21 33 -19 31 -16 26 -12 22 -8 15 -37 4z"/>

 </g>
</svg>
