<?xml version="1.0" encoding="UTF-8" standalone="no"?>
<!DOCTYPE svg PUBLIC "-//W3C//DTD SVG 1.0//EN" "http://www.w3.org/TR/2001/REC-SVG-20010904/DTD/svg10.dtd">
<svg xmlns="http://www.w3.org/2000/svg" xmlns:xlink="http://www.w3.org/1999/xlink" fill-rule="evenodd" height="1.098in" preserveAspectRatio="none" stroke-linecap="round" viewBox="0 0 1983 1098" width="1.983in">
<style type="text/css">
.brush0 { fill: rgb(255,255,255); }
.pen0 { stroke: rgb(0,0,0); stroke-width: 1; stroke-linejoin: round; }
.brush1 { fill: none; }
.pen1 { stroke: none; }
.brush2 { fill: rgb(25,25,25); }
</style>
<g>
<polygon class="pen1 brush2" points="1983,270 1982,271 1981,275 1977,282 1973,290 1967,301 1959,314 1950,328 1940,344 1933,336 1927,329 1922,320 1918,311 1915,300 1913,289 1914,279 1916,270 1919,262 1924,255 1930,248 1937,242 1945,246 1952,250 1959,254 1965,257 1970,261 1975,264 1979,267 1983,270 1983,270"/>
<polygon class="pen1 brush2" points="1935,352 1930,348 1925,343 1920,338 1916,332 1912,326 1909,320 1906,314 1903,308 1900,297 1899,286 1900,276 1903,267 1907,258 1913,250 1919,243 1927,236 1920,232 1912,228 1904,224 1896,220 1887,216 1878,212 1869,207 1859,203 1851,214 1845,226 1839,239 1835,254 1833,270 1832,288 1834,307 1838,327 1841,341 1845,354 1850,367 1856,379 1863,390 1870,401 1877,412 1885,422 1892,412 1899,403 1906,394 1913,385 1919,377 1925,369 1930,360 1935,352 1935,352"/>
<polygon class="pen1 brush2" points="1878,430 1872,438 1866,446 1859,454 1852,462 1845,470 1838,478 1830,485 1822,493 1808,480 1795,465 1783,449 1772,431 1762,412 1753,392 1746,370 1740,347 1736,315 1736,287 1739,261 1746,238 1755,218 1766,200 1778,184 1791,171 1798,174 1806,177 1813,180 1820,183 1827,187 1834,190 1841,193 1848,196 1840,208 1833,221 1827,235 1823,250 1820,266 1819,284 1820,303 1824,323 1828,339 1833,354 1839,369 1845,382 1852,395 1860,408 1869,419 1878,430 1878,430"/>
<polygon class="pen1 brush2" points="1814,503 1799,488 1785,472 1772,455 1760,435 1749,414 1740,392 1732,368 1726,342 1721,310 1721,281 1725,255 1732,232 1741,211 1752,193 1764,178 1777,165 1764,159 1750,153 1737,147 1722,141 1708,136 1693,130 1678,124 1663,118 1649,134 1634,154 1621,179 1609,207 1600,240 1595,278 1594,321 1598,369 1605,407 1615,442 1627,474 1641,504 1656,530 1673,554 1691,575 1710,594 1724,583 1738,571 1752,560 1765,549 1778,538 1790,526 1802,515 1814,503 1814,503"/>
<polygon class="pen1 brush2" points="1696,605 1683,615 1669,624 1655,633 1641,642 1626,651 1612,660 1596,669 1581,678 1565,686 1549,694 1532,702 1515,710 1497,718 1480,725 1462,732 1443,739 1428,730 1412,719 1397,707 1381,692 1365,676 1349,658 1334,638 1319,615 1304,591 1291,565 1278,536 1267,505 1256,472 1247,436 1240,398 1234,357 1229,288 1231,228 1239,175 1250,129 1264,91 1279,60 1295,35 1310,16 1331,20 1352,24 1373,29 1394,34 1416,39 1437,45 1459,51 1480,57 1502,64 1523,70 1545,77 1566,84 1587,91 1608,99 1629,106 1649,114 1635,130 1621,150 1608,174 1596,202 1587,236 1581,274 1580,317 1584,365 1592,405 1602,442 1613,476 1627,507 1643,536 1659,562 1677,585 1696,605 1696,605"/>
<polygon class="pen1 brush2" points="1422,744 1407,736 1392,725 1377,713 1361,699 1346,682 1331,663 1316,642 1302,619 1288,594 1275,566 1263,536 1252,504 1242,469 1233,432 1226,392 1220,350 1216,283 1217,224 1224,173 1235,128 1248,90 1262,58 1277,33 1291,13 1276,10 1260,8 1244,6 1229,4 1213,2 1197,1 1181,0 1166,0 1152,26 1135,58 1119,96 1103,139 1090,187 1082,237 1079,289 1084,342 1095,407 1105,466 1113,521 1117,574 1116,625 1109,677 1094,730 1071,786 1094,788 1116,789 1138,789 1161,789 1183,789 1205,787 1227,785 1249,783 1271,780 1292,776 1314,772 1336,768 1357,763 1379,757 1400,751 1422,744 1422,744"/>
<polygon class="pen1 brush2" points="1054,784 1043,783 1031,781 1019,779 1008,778 996,776 984,774 972,772 960,770 948,767 936,765 924,763 912,760 899,758 887,755 875,753 862,750 887,710 906,665 920,615 929,562 934,508 936,452 935,398 932,345 930,293 932,244 938,198 946,156 957,118 968,85 980,56 990,33 1007,27 1025,21 1044,16 1063,11 1084,7 1104,4 1126,2 1148,0 1133,27 1117,60 1101,98 1087,140 1075,186 1067,234 1065,284 1070,335 1081,400 1092,460 1099,515 1103,568 1102,620 1094,673 1078,727 1054,784 1054,784"/>
<polygon class="pen1 brush2" points="847,746 872,707 892,662 906,612 915,558 920,503 922,447 921,391 918,338 916,291 917,246 922,203 929,164 939,127 949,95 960,66 970,41 950,50 931,60 912,71 895,81 879,92 864,103 850,114 837,125 827,181 819,247 814,318 814,392 814,425 808,465 798,510 785,556 768,601 749,644 728,681 706,710 723,715 740,720 757,724 775,729 793,734 811,738 829,742 847,746 847,746"/>
<polygon class="pen1 brush2" points="689,706 672,702 655,697 638,693 621,689 605,684 588,680 573,676 557,672 595,632 626,580 652,520 671,457 685,398 694,345 697,306 696,284 704,275 711,266 719,257 727,248 735,238 743,228 751,217 760,206 761,205 764,201 768,195 775,187 783,178 793,167 805,155 818,142 811,195 804,255 801,319 801,385 800,419 794,460 783,505 769,552 752,598 733,641 711,678 689,706 689,706"/>
<polygon class="pen1 brush2" points="538,666 573,632 602,588 627,537 647,483 662,429 673,378 680,334 683,300 671,312 659,324 648,334 637,344 626,353 615,362 605,369 594,377 584,383 574,389 565,395 555,400 546,404 537,408 529,412 520,415 518,434 514,458 507,486 498,517 486,549 470,581 450,611 425,639 438,642 452,645 465,648 479,651 493,655 508,659 523,662 538,666 538,666"/>
<polygon class="pen1 brush2" points="408,636 394,634 380,631 367,629 355,628 343,627 332,626 321,626 311,626 309,626 308,626 306,626 304,626 328,599 348,571 364,542 375,514 384,487 390,463 393,442 395,426 406,427 419,428 431,429 444,429 458,428 473,427 488,424 504,421 501,441 497,466 490,493 480,522 467,552 451,582 432,610 408,636 408,636"/>
<polygon class="pen1 brush2" points="281,628 307,602 328,574 345,545 357,517 367,490 373,465 377,443 379,425 375,424 371,423 366,423 362,422 350,422 339,422 328,422 317,422 306,422 296,422 286,422 276,422 275,435 273,454 268,478 261,506 250,536 235,568 215,599 189,628 200,628 211,628 222,628 234,628 246,628 257,628 269,628 281,628 281,628"/>
<polygon class="pen1 brush2" points="168,628 154,627 141,626 128,624 116,623 104,621 92,620 81,617 71,615 95,589 114,562 129,536 140,510 148,485 154,463 157,444 159,429 170,428 182,427 194,425 207,424 220,423 233,423 247,422 261,422 259,438 256,459 251,483 243,511 231,541 215,571 194,600 168,628 168,628"/>
<polygon class="pen1 brush2" points="55,608 78,585 96,560 111,536 123,511 131,488 138,467 142,448 145,432 118,437 93,443 71,451 53,460 37,471 24,483 14,497 8,513 6,533 6,550 9,564 13,576 20,586 29,595 41,602 55,608 55,608"/>
<polygon class="pen1 brush2" points="554,689 542,688 530,689 519,691 507,693 494,696 479,699 462,703 442,706 428,708 413,709 397,710 381,710 365,710 349,710 334,709 319,709 305,708 292,707 280,706 270,705 261,704 255,704 251,703 250,703 258,709 268,714 280,719 294,724 309,728 325,732 342,737 358,741 374,745 389,750 402,755 414,761 424,768 431,775 435,784 436,793 433,802 426,811 415,820 403,828 388,835 371,842 354,849 336,855 318,860 301,865 285,869 270,872 258,875 249,876 243,878 241,878 255,879 269,880 283,881 296,882 309,884 321,885 333,887 345,889 357,891 368,893 379,895 389,898 400,900 410,903 419,906 429,909 446,916 460,923 473,930 486,938 501,946 521,955 546,963 578,972 627,983 673,994 717,1003 759,1012 798,1020 835,1026 871,1032 904,1038 936,1042 967,1046 996,1049 1024,1051 1051,1053 1077,1053 1103,1054 1128,1053 1152,1052 1176,1051 1200,1049 1224,1046 1248,1043 1272,1039 1297,1035 1322,1030 1348,1025 1374,1020 1402,1014 1431,1008 1461,1001 1493,994 1526,987 1561,980 1628,965 1687,948 1738,932 1781,914 1818,897 1849,880 1874,863 1894,847 1910,832 1922,818 1930,806 1936,795 1939,786 1941,780 1942,775 1942,774 1928,764 1912,754 1892,745 1871,736 1847,728 1823,721 1797,715 1771,710 1745,706 1720,702 1695,700 1672,699 1650,699 1631,700 1614,702 1601,706 1588,711 1572,717 1554,724 1534,731 1511,739 1487,748 1461,756 1433,765 1404,773 1373,781 1342,789 1309,796 1275,802 1240,807 1204,811 1168,814 1129,815 1086,812 1040,807 991,800 941,791 889,780 839,769 789,756 742,744 698,732 658,721 623,710 594,702 573,695 559,691 554,689"/>
</g>
</svg>
