<?xml version="1.0" encoding="UTF-8" standalone="no"?>
<!DOCTYPE svg PUBLIC "-//W3C//DTD SVG 1.0//EN" "http://www.w3.org/TR/2001/REC-SVG-20010904/DTD/svg10.dtd">
<svg xmlns="http://www.w3.org/2000/svg" xmlns:xlink="http://www.w3.org/1999/xlink" fill-rule="evenodd" height="1.979in" preserveAspectRatio="none" stroke-linecap="round" viewBox="0 0 1815 1979" width="1.815in">
<style type="text/css">
.brush0 { fill: rgb(255,255,255); }
.pen0 { stroke: rgb(0,0,0); stroke-width: 1; stroke-linejoin: round; }
.brush1 { fill: none; }
.pen1 { stroke: none; }
.brush2 { fill: rgb(0,0,0); }
</style>
<g>
<polygon class="pen1 brush2" points="1409,763 1381,710 1381,611 1402,606 1419,595 1431,579 1441,560 1448,540 1454,519 1460,501 1467,486 1472,480 1483,463 1497,435 1509,399 1514,356 1508,307 1487,253 1446,195 1439,184 1432,168 1422,148 1411,125 1396,100 1377,76 1353,54 1323,34 1315,30 1307,27 1299,23 1290,20 1281,17 1272,15 1262,12 1252,10 1241,9 1230,8 1218,7 1206,7 1193,7 1180,7 1167,8 1153,10 1108,17 1064,28 1020,42 978,61 937,84 898,111 860,142 824,178 791,218 760,263 732,313 707,367 686,426 667,490 653,560 642,634 637,695 635,762 637,836 642,913 650,995 663,1079 681,1165 703,1252 730,1339 762,1424 800,1507 844,1586 894,1662 951,1732 1014,1796 1085,1853 1102,1864 1119,1876 1136,1887 1154,1898 1173,1909 1192,1919 1212,1929 1232,1938 1253,1947 1274,1955 1296,1962 1319,1968 1342,1973 1366,1976 1391,1978 1416,1979 1433,1979 1450,1978 1466,1977 1483,1975 1499,1973 1514,1970 1530,1967 1545,1963 1560,1959 1575,1955 1589,1950 1603,1945 1617,1939 1630,1933 1643,1927 1655,1920 1673,1910 1690,1898 1706,1886 1721,1874 1736,1861 1749,1847 1761,1833 1772,1818 1782,1802 1790,1786 1798,1770 1804,1753 1809,1736 1812,1719 1814,1701 1815,1683 1813,1651 1806,1620 1795,1591 1779,1562 1760,1536 1738,1511 1712,1487 1683,1466 1669,1457 1655,1449 1641,1441 1626,1434 1610,1427 1594,1421 1577,1415 1561,1409 1543,1405 1526,1401 1508,1397 1490,1394 1472,1392 1453,1390 1434,1389 1415,1389 1390,1390 1366,1391 1342,1394 1318,1397 1294,1402 1271,1408 1249,1414 1227,1421 1205,1429 1185,1438 1165,1448 1146,1458 1128,1469 1111,1481 1096,1493 1081,1506 1092,1529 1104,1551 1118,1573 1133,1592 1150,1612 1167,1630 1186,1647 1206,1664 1216,1656 1227,1648 1239,1641 1251,1633 1264,1626 1277,1619 1291,1613 1305,1607 1319,1601 1333,1596 1347,1592 1361,1588 1375,1585 1389,1583 1402,1581 1415,1581 1446,1583 1476,1589 1503,1599 1526,1611 1546,1626 1560,1643 1570,1663 1573,1683 1570,1704 1560,1724 1546,1741 1526,1757 1503,1769 1476,1779 1446,1785 1415,1787 1391,1786 1368,1783 1345,1778 1323,1771 1301,1762 1280,1752 1259,1740 1239,1727 1220,1713 1201,1699 1183,1683 1166,1667 1149,1650 1133,1633 1117,1615 1102,1598 1098,1593 1088,1579 1071,1557 1051,1525 1026,1486 999,1439 971,1385 942,1324 914,1257 888,1183 865,1104 845,1019 831,929 822,835 821,736 828,634 843,536 865,452 893,380 925,320 960,270 998,231 1037,200 1077,178 1116,163 1153,155 1188,152 1218,154 1244,160 1264,170 1278,182 1283,195 1279,224 1268,256 1253,290 1240,327 1232,365 1235,404 1251,445 1287,486 1288,491 1290,505 1295,524 1302,546 1313,569 1328,589 1347,604 1371,611 1372,611 1373,611 1374,611 1375,611 1375,710 1341,760 1345,764 1376,719 1405,766 1409,763 1409,763"/>
<polygon class="pen1 brush2" points="777,1530 779,1537 787,1552 800,1575 817,1602 836,1631 856,1662 876,1691 895,1716 894,1717 891,1720 886,1725 879,1732 871,1740 861,1749 850,1760 837,1771 823,1784 808,1797 792,1811 776,1824 758,1839 740,1853 722,1866 703,1880 687,1892 670,1904 653,1915 636,1925 618,1934 600,1942 581,1949 562,1955 543,1961 524,1966 504,1970 484,1973 464,1976 443,1978 423,1979 402,1979 376,1978 351,1977 326,1974 301,1970 278,1965 254,1958 232,1951 210,1943 189,1934 169,1924 150,1914 131,1902 114,1890 98,1877 82,1863 68,1849 53,1831 40,1812 28,1793 18,1772 10,1751 5,1730 1,1708 0,1685 1,1661 5,1637 12,1614 21,1591 33,1569 46,1548 62,1529 80,1510 94,1497 109,1484 126,1472 143,1461 160,1450 179,1441 199,1432 219,1423 240,1416 261,1410 284,1404 306,1399 330,1396 353,1393 377,1392 402,1391 423,1391 444,1392 465,1394 485,1397 505,1400 524,1404 543,1409 561,1415 574,1421 588,1428 601,1436 615,1445 628,1456 640,1468 650,1481 659,1495 639,1492 621,1489 604,1485 587,1482 571,1479 556,1476 541,1474 526,1472 511,1471 495,1471 479,1472 462,1474 445,1477 426,1482 406,1488 385,1496 362,1506 340,1517 320,1529 301,1541 283,1554 266,1568 252,1582 239,1596 227,1611 218,1626 210,1641 205,1656 202,1670 201,1685 202,1699 206,1712 212,1724 221,1735 231,1745 243,1753 257,1760 273,1766 290,1771 308,1774 327,1776 348,1776 369,1775 391,1773 414,1769 437,1763 460,1756 484,1748 502,1740 521,1731 541,1720 560,1708 580,1696 600,1682 619,1668 639,1654 658,1638 677,1623 695,1607 713,1591 730,1576 747,1560 762,1545 777,1530"/>
<polygon class="pen1 brush0" points="1315,401 1325,399 1334,393 1339,385 1341,375 1339,365 1334,357 1325,352 1315,350 1305,352 1297,357 1292,365 1290,375 1292,385 1297,393 1305,399 1315,401 1315,401"/>
<polygon class="pen1 brush0" points="1428,402 1438,400 1446,395 1451,387 1453,377 1451,366 1446,358 1438,353 1428,351 1418,353 1409,358 1404,366 1402,377 1404,387 1409,395 1418,400 1428,402"/>
</g>
</svg>
