<?xml version="1.0" encoding="UTF-8" standalone="no"?>
<!DOCTYPE svg PUBLIC "-//W3C//DTD SVG 1.0//EN" "http://www.w3.org/TR/2001/REC-SVG-20010904/DTD/svg10.dtd">
<svg xmlns="http://www.w3.org/2000/svg" xmlns:xlink="http://www.w3.org/1999/xlink" fill-rule="evenodd" height="1.633in" preserveAspectRatio="none" stroke-linecap="round" viewBox="0 0 1985 1633" width="1.985in">
<style type="text/css">
.brush0 { fill: rgb(255,255,255); }
.pen0 { stroke: rgb(0,0,0); stroke-width: 1; stroke-linejoin: round; }
.brush1 { fill: none; }
.pen1 { stroke: none; }
.brush2 { fill: rgb(0,0,0); }
</style>
<g>
<polygon class="pen1 brush2" points="847,884 845,891 842,897 839,901 833,901 822,901 814,900 809,899 806,897 804,893 803,889 804,882 804,873 806,865 809,858 814,851 817,845 819,837 818,829 814,817 804,803 800,796 799,790 800,785 803,780 808,776 813,773 820,772 826,771 832,772 837,774 840,779 844,788 842,812 841,836 843,860 847,884 847,884"/>
<polygon class="pen1 brush2" points="1137,865 1211,865 1214,866 1221,866 1228,863 1231,853 1229,847 1224,844 1216,843 1208,843 1208,796 1216,796 1224,796 1229,793 1231,788 1228,778 1221,774 1214,774 1211,775 1130,775 1138,796 1142,819 1141,842 1137,865 1137,865"/>
<polygon class="pen1 brush2" points="1241,846 1242,848 1243,853 1243,861 1241,872 1283,880 1273,865 1290,859 1269,852 1286,836 1241,846 1241,846"/>
<polygon class="pen1 brush2" points="1239,774 1239,776 1240,781 1240,789 1239,799 1282,809 1272,794 1289,786 1266,779 1283,764 1239,774 1239,774"/>
<polygon class="pen1 brush2" points="1090,903 1082,901 1076,896 1071,888 1066,877 1070,852 1071,827 1070,802 1067,778 1072,768 1076,760 1082,756 1090,755 1107,761 1119,778 1126,802 1128,829 1126,856 1119,880 1107,897 1090,903 1090,903"/>
<polygon class="pen1 brush2" points="1025,930 1040,921 1050,898 1057,866 1059,828 1057,791 1050,759 1040,736 1025,727 1017,730 1011,740 1006,754 1002,774 1006,801 1007,828 1006,856 1002,883 1006,902 1011,917 1017,927 1025,930 1025,930"/>
<polygon class="pen1 brush2" points="890,933 897,930 902,920 906,906 911,889 906,859 904,830 906,800 910,771 906,753 902,740 897,731 890,728 876,737 865,760 859,793 857,830 859,868 865,901 876,924 890,933 890,933"/>
<polygon class="pen1 brush2" points="955,937 939,927 927,902 920,866 918,825 920,785 927,749 939,724 955,714 972,724 984,749 991,785 993,825 991,866 984,902 972,927 955,937 955,937"/>
<polygon class="pen1 brush2" points="797,821 795,821 791,821 784,821 776,822 767,824 758,826 749,830 742,835 743,836 746,837 750,839 756,842 764,844 774,846 785,848 797,848 799,846 803,841 804,833 797,821 797,821"/>
<polygon class="pen1 brush2" points="1016,711 1018,710 1022,706 1030,701 1040,694 1052,685 1066,676 1082,665 1100,653 1118,641 1137,628 1158,616 1178,603 1199,591 1219,579 1239,569 1258,559 1290,545 1323,532 1358,520 1394,508 1431,497 1469,486 1507,475 1544,464 1582,452 1618,440 1654,427 1688,412 1720,397 1750,379 1778,360 1803,339 1826,365 1798,386 1769,406 1741,425 1713,442 1685,458 1656,472 1628,486 1598,498 1569,510 1539,521 1508,532 1476,542 1443,551 1410,560 1376,569 1340,578 1329,581 1316,585 1301,591 1286,598 1269,606 1251,615 1233,625 1214,635 1195,646 1175,658 1156,669 1137,681 1118,693 1100,705 1083,717 1067,728 1016,711 1016,711"/>
<polygon class="pen1 brush2" points="1816,328 1840,355 1852,345 1863,336 1873,327 1882,318 1888,310 1892,302 1892,295 1888,288 1882,285 1874,285 1865,288 1855,294 1845,302 1835,310 1825,319 1816,328 1816,328"/>
<polygon class="pen1 brush2" points="965,707 977,652 991,606 1009,567 1028,534 1048,506 1069,482 1090,459 1111,438 1136,414 1161,390 1185,367 1208,345 1231,324 1253,304 1274,285 1293,267 1312,250 1329,233 1345,218 1359,203 1371,189 1382,176 1390,164 1397,153 1402,144 1406,136 1409,128 1414,117 1387,103 1383,108 1380,113 1377,118 1374,123 1370,128 1366,133 1362,139 1357,146 1341,165 1323,185 1303,206 1281,227 1257,248 1233,270 1208,292 1183,314 1157,336 1132,357 1108,379 1084,400 1062,421 1042,442 1024,462 1008,482 984,520 965,558 950,596 940,631 933,662 929,686 927,701 927,707 965,707 965,707"/>
<polygon class="pen1 brush2" points="1395,86 1405,67 1413,49 1419,35 1424,23 1428,13 1431,7 1435,3 1439,2 1443,5 1444,12 1444,22 1442,34 1439,49 1434,65 1428,82 1421,100 1395,86 1395,86"/>
<polygon class="pen1 brush2" points="884,707 848,741 846,733 841,709 834,674 827,630 821,580 819,526 822,472 831,421 838,379 836,343 827,311 811,283 789,260 763,240 733,224 700,211 666,201 631,193 597,187 565,183 535,180 509,178 487,177 471,176 471,169 470,157 470,145 471,140 487,140 509,140 537,142 570,144 605,148 642,154 681,162 719,174 756,188 790,207 821,230 847,257 867,289 880,327 885,371 880,421 867,496 863,557 869,622 884,707 884,707"/>
<polygon class="pen1 brush2" points="454,174 433,175 412,176 392,179 375,180 360,180 350,177 343,170 343,159 348,148 355,140 366,136 379,135 394,136 412,137 431,139 452,140 454,174 454,174"/>
<polygon class="pen1 brush2" points="809,751 781,723 753,699 725,677 697,657 670,641 642,626 616,614 589,605 563,597 537,591 511,588 486,586 461,585 437,586 413,589 390,592 367,597 344,603 323,610 301,618 280,626 260,635 240,645 221,655 203,665 185,675 168,685 152,695 136,704 121,714 107,723 93,731 103,759 123,746 143,733 164,722 185,710 206,700 227,690 249,681 270,672 292,665 314,658 335,652 357,647 379,643 401,640 424,637 446,636 468,636 490,637 512,639 533,642 555,646 577,652 598,659 620,667 641,676 662,687 683,699 703,713 724,727 744,744 764,762 783,781 809,751 809,751"/>
<polygon class="pen1 brush2" points="74,738 64,741 53,746 41,751 30,757 21,764 15,772 12,780 15,789 21,796 28,800 36,799 45,796 55,791 65,784 76,776 87,768 74,738 74,738"/>
<polygon class="pen1 brush2" points="1036,938 1084,913 1102,921 1121,930 1141,938 1161,947 1182,955 1203,964 1224,971 1245,979 1266,986 1285,993 1304,998 1322,1004 1338,1008 1353,1011 1367,1014 1378,1015 1411,1017 1444,1019 1477,1022 1510,1025 1543,1029 1575,1033 1607,1038 1639,1044 1671,1051 1702,1059 1733,1068 1764,1078 1795,1090 1825,1103 1855,1117 1884,1133 1864,1157 1838,1142 1807,1129 1773,1118 1736,1108 1697,1099 1656,1092 1614,1086 1572,1080 1530,1075 1490,1071 1451,1066 1414,1062 1380,1059 1350,1054 1323,1050 1302,1045 1281,1039 1260,1032 1238,1024 1215,1016 1193,1007 1171,998 1149,989 1129,980 1110,972 1092,964 1076,957 1063,950 1051,945 1043,941 1038,939 1036,938 1036,938"/>
<polygon class="pen1 brush2" points="1877,1167 1886,1174 1898,1183 1912,1191 1926,1199 1939,1206 1952,1209 1962,1209 1969,1204 1972,1196 1970,1188 1964,1180 1955,1172 1943,1164 1929,1157 1915,1149 1900,1142 1877,1167 1877,1167"/>
<polygon class="pen1 brush2" points="988,953 949,958 951,963 955,979 964,1002 976,1030 992,1063 1013,1098 1039,1133 1069,1166 1088,1183 1109,1200 1133,1217 1158,1234 1185,1251 1212,1268 1241,1285 1270,1302 1299,1319 1327,1336 1355,1353 1382,1370 1408,1387 1431,1404 1453,1420 1472,1437 1478,1443 1483,1448 1487,1452 1492,1456 1496,1460 1500,1464 1504,1468 1508,1473 1535,1458 1528,1448 1522,1439 1516,1430 1509,1421 1500,1412 1489,1401 1477,1391 1462,1379 1445,1367 1427,1355 1407,1342 1386,1328 1364,1313 1340,1298 1315,1282 1289,1265 1263,1247 1235,1229 1207,1210 1178,1190 1166,1181 1153,1173 1141,1164 1128,1155 1116,1145 1103,1135 1091,1124 1078,1111 1066,1098 1054,1083 1042,1066 1030,1048 1019,1027 1008,1005 998,980 988,953 988,953"/>
<polygon class="pen1 brush2" points="1519,1488 1532,1506 1542,1522 1551,1535 1557,1547 1563,1555 1568,1561 1572,1564 1577,1564 1580,1560 1580,1554 1578,1545 1574,1533 1569,1520 1562,1505 1554,1490 1545,1474 1519,1488 1519,1488"/>
<polygon class="pen1 brush2" points="908,965 867,937 866,946 865,970 865,1005 865,1050 869,1101 876,1154 888,1206 905,1255 919,1293 924,1327 922,1358 914,1387 899,1413 880,1436 856,1457 829,1476 799,1492 768,1507 735,1520 703,1531 671,1540 640,1549 611,1556 586,1562 591,1594 622,1588 656,1581 691,1572 727,1562 764,1550 799,1536 833,1520 865,1501 894,1480 920,1457 941,1430 956,1401 966,1368 969,1332 965,1292 952,1248 938,1209 927,1176 919,1146 914,1116 910,1086 908,1052 907,1012 908,965 908,965"/>
<polygon class="pen1 brush2" points="567,1565 548,1568 528,1570 510,1571 494,1573 481,1577 473,1581 469,1589 471,1599 477,1609 485,1615 496,1618 508,1617 521,1614 537,1610 555,1604 574,1599 567,1565 567,1565"/>
<polygon class="pen1 brush2" points="823,930 822,931 821,934 818,940 813,947 808,955 801,965 793,976 784,988 773,1001 762,1015 748,1029 734,1043 718,1057 700,1071 681,1085 661,1098 639,1110 616,1122 591,1132 565,1141 537,1148 507,1154 476,1158 444,1159 410,1159 374,1156 336,1150 297,1142 256,1130 213,1115 169,1097 123,1075 133,1048 139,1050 146,1054 155,1057 166,1062 179,1066 193,1071 208,1077 225,1082 243,1087 262,1092 283,1096 304,1101 326,1104 349,1107 372,1109 397,1110 421,1110 447,1109 472,1107 498,1103 524,1098 550,1091 576,1082 601,1072 627,1059 652,1044 677,1027 702,1008 726,986 749,961 771,934 793,904 823,930 823,930"/>
<polygon class="pen1 brush2" points="104,1071 94,1069 82,1066 69,1062 57,1058 46,1052 37,1046 33,1038 33,1029 39,1020 46,1016 55,1015 66,1017 77,1022 90,1028 103,1035 116,1041 104,1071"/>
</g>
</svg>
