<?xml version="1.0" encoding="UTF-8" standalone="no"?>
<!DOCTYPE svg PUBLIC "-//W3C//DTD SVG 1.0//EN" "http://www.w3.org/TR/2001/REC-SVG-20010904/DTD/svg10.dtd">
<svg xmlns="http://www.w3.org/2000/svg" xmlns:xlink="http://www.w3.org/1999/xlink" fill-rule="evenodd" height="1.135in" preserveAspectRatio="none" stroke-linecap="round" viewBox="0 0 1994 1135" width="1.994in">
<style type="text/css">
.brush0 { fill: rgb(255,255,255); }
.pen0 { stroke: rgb(0,0,0); stroke-width: 1; stroke-linejoin: round; }
.brush1 { fill: none; }
.pen1 { stroke: none; }
.brush2 { fill: rgb(0,0,0); }
</style>
<g>
<polygon class="pen1 brush2" points="536,669 506,636 504,637 499,639 491,642 480,647 467,652 452,659 436,666 420,674 403,682 386,691 370,700 355,709 341,719 329,728 320,737 313,745 304,761 296,778 289,794 286,810 285,825 289,837 297,847 310,855 324,858 336,854 345,845 354,833 361,819 367,804 374,790 382,778 392,767 403,754 416,740 433,725 452,710 476,695 503,681 536,669 536,669"/>
<polygon class="pen1 brush2" points="496,572 499,609 462,613 428,619 395,626 365,633 337,642 311,651 288,660 267,669 248,679 231,688 216,697 204,705 193,713 185,720 180,725 176,730 170,740 164,753 157,769 149,784 139,798 128,807 115,812 100,809 86,800 77,788 73,773 74,755 79,735 91,714 107,691 129,666 144,654 164,643 188,632 215,623 244,615 275,607 306,600 338,594 368,589 398,584 424,580 448,577 468,575 483,573 493,572 496,572 496,572"/>
<polygon class="pen1 brush2" points="523,490 521,493 518,502 515,520 513,547 510,547 502,546 489,545 471,543 450,540 425,536 398,530 369,523 338,515 305,504 273,492 240,478 207,461 176,442 146,420 118,396 94,370 73,344 55,319 40,293 28,268 19,244 12,221 7,199 5,178 6,160 9,143 13,128 20,115 28,105 37,98 48,93 70,90 87,90 100,95 111,101 120,111 127,122 133,135 139,149 142,159 146,174 152,192 159,214 168,238 179,264 194,292 212,320 233,348 259,375 289,401 324,426 365,447 411,466 464,480 523,490 523,490"/>
<polygon class="pen1 brush2" points="560,464 570,452 581,439 594,426 609,413 625,399 643,386 662,372 683,357 704,343 727,329 751,314 776,300 801,286 828,271 855,257 884,243 912,229 942,215 972,201 1002,187 1033,174 1064,161 1095,148 1126,136 1158,124 1189,113 1221,102 1252,91 1283,81 1314,72 1345,63 1375,55 1402,48 1428,41 1454,35 1479,30 1504,25 1528,21 1551,18 1573,15 1595,14 1616,13 1635,12 1654,13 1672,15 1689,17 1705,20 1719,24 1705,69 1690,134 1676,216 1668,311 1667,415 1678,526 1702,640 1743,754 1742,755 1739,756 1733,757 1725,759 1715,760 1702,762 1687,765 1670,767 1650,769 1629,771 1604,773 1578,775 1549,777 1518,778 1485,779 1449,780 1411,780 1371,779 1328,778 1283,777 1236,774 1186,771 1135,767 1080,763 1024,757 965,750 904,742 841,734 775,724 707,712 637,700 564,686 557,673 548,654 539,629 532,599 529,567 531,533 541,498 560,464 560,464"/>
<polygon class="pen1 brush2" points="1737,27 1724,71 1709,132 1695,208 1686,298 1685,399 1695,510 1719,628 1760,751 1773,742 1788,729 1804,711 1822,690 1840,666 1859,640 1877,612 1896,582 1914,552 1931,521 1946,490 1960,460 1971,431 1980,404 1986,379 1989,356 1989,337 1986,316 1980,294 1973,270 1963,247 1951,223 1937,199 1921,175 1903,151 1884,129 1863,107 1840,87 1816,69 1791,53 1765,39 1737,27 1737,27"/>
<polygon class="pen1 brush2" points="1763,778 1775,783 1790,788 1805,795 1822,802 1840,811 1858,820 1875,830 1892,841 1908,852 1922,864 1935,876 1945,890 1952,904 1956,919 1956,934 1952,950 1948,960 1942,970 1936,979 1928,988 1920,997 1911,1006 1901,1014 1890,1021 1878,1029 1865,1035 1852,1042 1838,1047 1824,1053 1809,1057 1793,1062 1777,1065 1761,1068 1744,1071 1727,1073 1710,1075 1693,1075 1675,1075 1657,1075 1640,1073 1622,1071 1604,1068 1586,1064 1568,1059 1550,1053 1533,1047 1516,1039 1499,1031 1498,1032 1493,1035 1486,1041 1476,1047 1464,1055 1449,1063 1431,1073 1412,1082 1390,1091 1366,1100 1340,1108 1312,1115 1282,1121 1250,1125 1217,1126 1182,1126 1166,1125 1149,1123 1133,1121 1116,1118 1098,1115 1081,1111 1063,1106 1045,1100 1026,1094 1007,1086 989,1078 970,1069 950,1059 931,1049 912,1037 892,1024 890,1024 884,1025 875,1027 863,1029 848,1031 830,1033 810,1035 788,1037 765,1039 740,1040 714,1041 688,1041 661,1041 634,1040 607,1037 581,1034 561,1031 542,1027 523,1022 505,1017 488,1010 473,1002 458,994 446,984 434,973 425,961 417,947 411,932 408,916 407,898 408,879 412,858 424,824 439,795 457,772 476,753 497,738 517,726 537,716 556,709 569,712 586,715 605,718 627,722 651,727 678,732 707,736 738,742 772,747 807,752 844,758 882,763 922,768 964,773 1006,778 1049,783 1093,787 1138,791 1184,795 1230,798 1276,800 1323,802 1369,804 1415,804 1461,804 1507,803 1552,802 1596,799 1639,795 1682,791 1723,785 1763,778"/>
<polygon class="pen1 brush0" points="726,494 733,493 740,491 746,488 752,483 757,477 760,471 762,464 763,457 762,450 760,443 757,437 752,431 746,426 740,423 733,421 726,420 719,421 712,423 706,426 700,431 695,437 692,443 690,450 689,457 690,464 692,471 695,477 700,483 706,488 712,491 719,493 726,494"/>
<polygon class="pen1 brush0" points="726,659 733,658 740,656 746,653 752,648 757,643 760,637 762,630 763,622 762,615 760,608 757,602 752,596 746,591 740,588 733,586 726,585 719,586 712,588 706,591 700,596 695,602 692,608 690,615 689,622 690,630 692,637 695,643 700,648 706,653 712,656 719,658 726,659"/>
<polygon class="pen1 brush0" points="833,566 841,565 847,563 854,560 859,556 863,551 866,545 868,538 869,531 868,523 866,516 863,510 859,504 854,499 847,496 841,494 833,493 825,494 818,496 812,499 806,504 802,510 799,516 797,523 796,531 797,538 799,545 802,551 806,556 812,560 818,563 825,565 833,566"/>
<polygon class="pen1 brush0" points="892,414 900,413 907,411 914,408 920,403 924,398 928,392 930,385 931,378 930,370 928,363 924,356 920,350 914,346 907,342 900,340 892,339 885,340 878,342 872,346 866,350 861,356 858,363 856,370 855,378 856,385 858,392 861,398 866,403 872,408 878,411 885,413 892,414"/>
<polygon class="pen1 brush0" points="952,646 960,645 967,643 973,640 979,635 984,629 987,623 989,616 990,609 989,602 987,595 984,588 979,582 973,578 967,574 960,572 952,571 945,572 938,574 932,578 926,582 921,588 918,595 916,602 915,609 916,616 918,623 921,629 926,635 932,640 938,643 945,645 952,646"/>
<polygon class="pen1 brush0" points="1024,525 1032,524 1040,522 1047,518 1053,513 1058,507 1062,500 1064,492 1065,484 1064,475 1062,467 1058,460 1053,454 1047,450 1040,446 1032,444 1024,443 1016,444 1009,446 1002,450 996,454 992,460 988,467 986,475 985,484 986,492 988,500 992,507 996,513 1002,518 1009,522 1016,524 1024,525"/>
<polygon class="pen1 brush0" points="1098,345 1106,344 1114,342 1121,338 1127,333 1131,327 1135,320 1137,312 1138,304 1137,296 1135,288 1131,281 1127,274 1121,269 1114,265 1106,263 1098,262 1090,263 1082,265 1075,269 1069,274 1064,281 1060,288 1058,296 1057,304 1058,312 1060,320 1064,327 1069,333 1075,338 1082,342 1090,344 1098,345"/>
<polygon class="pen1 brush0" points="1152,663 1160,662 1167,660 1174,656 1180,651 1185,646 1189,639 1191,631 1192,622 1191,614 1189,606 1185,599 1180,593 1174,588 1167,584 1160,582 1152,581 1143,582 1135,584 1128,588 1122,593 1117,599 1113,606 1111,614 1110,622 1111,631 1113,639 1117,646 1122,651 1128,656 1135,660 1143,662 1152,663"/>
<polygon class="pen1 brush0" points="1244,501 1254,500 1263,497 1272,492 1279,486 1285,478 1290,470 1293,460 1294,450 1293,440 1290,431 1285,422 1279,415 1272,409 1263,404 1254,401 1244,400 1234,401 1225,404 1216,409 1209,415 1203,422 1199,431 1196,440 1195,450 1196,460 1199,470 1203,478 1209,486 1216,492 1225,497 1234,500 1244,501"/>
<polygon class="pen1 brush0" points="1371,672 1381,671 1390,668 1399,663 1406,657 1412,650 1417,641 1420,632 1421,622 1420,612 1417,603 1412,594 1406,587 1399,581 1390,576 1381,573 1371,572 1361,573 1352,576 1343,581 1336,587 1330,594 1325,603 1322,612 1321,622 1322,632 1325,641 1330,650 1336,657 1343,663 1352,668 1361,671 1371,672"/>
<polygon class="pen1 brush0" points="1344,298 1356,297 1368,293 1378,288 1387,280 1395,271 1400,261 1404,249 1405,237 1404,225 1400,213 1395,203 1387,194 1378,186 1368,181 1356,177 1344,176 1332,177 1321,181 1311,186 1302,194 1294,203 1289,213 1285,225 1284,237 1285,249 1289,261 1294,271 1302,280 1311,288 1321,293 1332,297 1344,298"/>
<polygon class="pen1 brush0" points="1465,470 1477,469 1488,465 1498,460 1508,452 1515,443 1521,433 1525,422 1526,410 1525,398 1521,386 1515,376 1508,367 1498,359 1488,354 1477,350 1465,349 1453,350 1442,354 1432,359 1423,367 1415,376 1410,386 1406,398 1405,410 1406,422 1410,433 1415,443 1423,452 1432,460 1442,465 1453,469 1465,470"/>
<polygon class="pen1 brush0" points="1591,697 1603,696 1614,692 1625,687 1634,679 1641,670 1647,660 1651,648 1652,636 1651,624 1647,612 1641,602 1634,593 1625,585 1614,580 1603,576 1591,575 1579,576 1567,580 1557,585 1548,593 1540,602 1535,612 1531,624 1530,636 1531,648 1535,660 1540,670 1548,679 1557,687 1567,692 1579,696 1591,697"/>
<polygon class="pen1 brush0" points="1578,278 1590,277 1601,273 1611,268 1620,260 1628,251 1633,241 1637,229 1638,217 1637,205 1633,194 1628,183 1620,174 1611,167 1601,161 1590,157 1578,156 1566,157 1554,161 1544,167 1535,174 1527,183 1522,194 1518,205 1517,217 1518,229 1522,241 1527,251 1535,260 1544,268 1554,273 1566,277 1578,278"/>
</g>
</svg>
