<?xml version="1.0" encoding="UTF-8" standalone="no"?>
<!DOCTYPE svg PUBLIC "-//W3C//DTD SVG 1.0//EN" "http://www.w3.org/TR/2001/REC-SVG-20010904/DTD/svg10.dtd">
<svg xmlns="http://www.w3.org/2000/svg" xmlns:xlink="http://www.w3.org/1999/xlink" fill-rule="evenodd" height="1.131in" preserveAspectRatio="none" stroke-linecap="round" viewBox="0 0 1983 1131" width="1.983in">
<style type="text/css">
.brush0 { fill: rgb(255,255,255); }
.pen0 { stroke: rgb(0,0,0); stroke-width: 1; stroke-linejoin: round; }
.brush1 { fill: none; }
.pen1 { stroke: none; }
.brush2 { fill: rgb(0,0,0); }
</style>
<g>
<polygon class="pen1 brush2" points="1152,949 1152,951 1153,957 1155,966 1159,976 1166,987 1176,997 1190,1005 1209,1011 1155,1098 1158,1038 1065,1131 1118,1030 1000,1077 1094,1000 1004,969 1105,966 1061,922 1152,949 1152,949"/>
<polygon class="pen1 brush2" points="1138,749 1160,778 1173,803 1179,826 1179,847 1177,868 1173,890 1170,915 1171,943 1172,950 1175,957 1180,965 1187,972 1195,978 1204,983 1212,985 1220,985 1242,949 1255,910 1260,867 1258,825 1250,784 1236,747 1218,716 1196,693 1189,701 1181,710 1171,720 1162,728 1153,737 1145,743 1140,747 1138,749 1138,749"/>
<polygon class="pen1 brush2" points="81,395 83,395 88,393 96,391 107,388 120,385 134,381 150,378 167,373 185,369 202,366 219,362 236,359 251,356 265,354 277,352 287,352 325,314 338,352 381,327 385,369 430,348 436,395 482,386 473,419 520,411 510,440 544,428 544,475 548,474 558,470 574,463 597,456 624,447 656,438 693,429 734,420 778,412 825,406 874,402 926,400 979,401 1033,406 1087,415 1142,428 1147,424 1160,412 1181,394 1209,370 1242,342 1280,310 1322,276 1367,240 1413,203 1460,167 1507,132 1553,100 1597,71 1638,47 1674,28 1706,16 1719,12 1733,8 1746,6 1759,3 1772,2 1785,1 1798,0 1811,0 1824,1 1836,2 1848,4 1860,7 1871,9 1882,13 1892,16 1902,20 1916,27 1929,36 1941,45 1951,55 1960,67 1967,79 1972,93 1976,107 1979,135 1977,170 1970,208 1957,243 1942,273 1925,299 1907,322 1889,343 1869,361 1849,377 1829,391 1808,404 1787,416 1766,426 1745,436 1724,446 1704,456 1684,467 1665,478 1646,490 1638,497 1627,508 1614,522 1601,539 1587,558 1574,579 1563,601 1555,624 1551,648 1551,671 1557,694 1569,716 1589,735 1617,753 1654,768 1702,780 1700,780 1693,780 1682,780 1668,780 1652,779 1634,776 1614,773 1595,767 1575,760 1555,750 1537,738 1521,723 1508,705 1498,683 1492,658 1490,628 1493,597 1501,568 1512,540 1527,513 1545,488 1565,464 1587,441 1610,420 1634,401 1657,383 1680,367 1702,353 1723,340 1741,330 1757,321 1769,314 1797,296 1822,274 1845,250 1863,225 1875,199 1879,174 1875,150 1861,129 1851,121 1842,114 1831,108 1821,105 1810,103 1799,102 1787,103 1775,105 1763,109 1750,115 1737,122 1724,130 1710,140 1697,152 1682,165 1668,179 1659,189 1648,201 1636,215 1621,231 1605,249 1588,269 1569,290 1549,312 1528,336 1505,360 1481,386 1456,412 1431,438 1404,465 1376,491 1348,518 1319,544 1289,570 1259,596 1229,621 1198,644 1167,667 1136,688 1104,708 1073,726 1041,743 1010,757 978,770 948,780 917,787 887,792 857,794 801,794 752,794 708,794 670,792 638,791 610,789 586,786 566,782 549,779 535,774 523,769 513,764 505,757 497,751 489,743 482,735 503,736 500,716 523,713 520,690 538,683 533,665 550,651 530,625 557,605 523,578 537,605 516,621 530,645 510,658 523,675 500,682 507,702 483,696 486,719 465,716 460,746 432,726 421,760 402,735 391,766 371,740 361,773 341,744 321,783 311,746 280,787 271,753 246,797 233,757 206,801 196,757 169,796 163,757 128,788 135,746 88,766 105,730 63,740 80,706 31,702 61,671 6,662 41,635 0,622 63,591 60,587 55,575 48,560 44,544 46,544 51,544 59,545 69,545 82,546 96,546 112,546 129,546 146,546 164,545 182,544 199,542 216,540 231,537 245,534 257,530 255,530 251,529 244,528 236,526 225,524 213,520 199,515 185,509 170,501 156,492 141,481 127,468 113,454 101,436 90,417 81,395 81,395"/>
<polygon class="pen1 brush2" points="460,912 460,914 461,921 463,930 467,940 474,951 484,962 498,970 517,976 465,1061 466,1003 375,1095 426,994 310,1040 404,966 314,933 415,929 371,885 460,912 460,912"/>
<polygon class="pen1 brush2" points="588,817 574,826 559,835 543,846 526,858 511,872 497,885 486,900 479,915 478,923 481,931 487,938 494,944 503,949 512,954 521,957 527,959 532,959 540,957 548,953 558,946 569,939 581,930 593,919 606,908 619,897 632,885 645,873 657,862 668,851 679,841 688,832 696,824 682,823 665,822 647,821 629,820 613,819 600,818 591,817 588,817"/>
<polygon class="pen1 brush0" points="1027,578 1092,597 1031,608 1027,578 1027,578"/>
<polygon class="pen1 brush0" points="949,625 1013,642 955,655 949,625 949,625"/>
<polygon class="pen1 brush0" points="800,696 865,713 804,726 800,696 800,696"/>
<polygon class="pen1 brush0" points="790,618 855,636 794,649 790,618 790,618"/>
<polygon class="pen1 brush0" points="689,659 754,676 693,689 689,659 689,659"/>
<polygon class="pen1 brush0" points="719,571 784,588 725,601 719,571 719,571"/>
<polygon class="pen1 brush0" points="631,607 696,624 635,636 631,607"/>
<polygon class="pen1 brush0" points="254,695 273,723 279,723 294,695 313,719 318,719 331,689 355,710 361,709 369,686 392,702 396,700 402,678 429,693 432,692 438,669 453,678 457,675 463,655 479,665 483,662 490,645 483,644 479,658 463,646 457,648 452,669 438,662 432,663 428,686 402,669 396,672 392,695 371,679 365,679 357,702 332,682 327,683 315,710 296,686 290,688 276,715 257,686 253,686 232,716 219,688 215,686 189,719 182,686 178,685 138,710 151,675 146,671 111,685 132,654 131,648 75,649 108,625 105,619 64,651 65,656 124,655 101,689 105,693 142,679 129,716 135,722 176,692 183,727 189,729 216,695 230,723 234,725 254,695"/>
<polygon class="pen1 brush0" points="307,473 316,471 324,466 329,459 331,449 329,440 324,432 316,427 307,425 298,427 291,432 286,440 284,449 286,459 291,466 298,471 307,473"/>
</g>
</svg>
