<?xml version="1.0" encoding="UTF-8" standalone="no"?>
<!DOCTYPE svg PUBLIC "-//W3C//DTD SVG 1.0//EN" "http://www.w3.org/TR/2001/REC-SVG-20010904/DTD/svg10.dtd">
<svg xmlns="http://www.w3.org/2000/svg" xmlns:xlink="http://www.w3.org/1999/xlink" fill-rule="evenodd" height="1.98in" preserveAspectRatio="none" stroke-linecap="round" viewBox="0 0 1027 1980" width="1.027in">
<style type="text/css">
.brush0 { fill: rgb(255,255,255); }
.pen0 { stroke: rgb(0,0,0); stroke-width: 1; stroke-linejoin: round; }
.brush1 { fill: none; }
.pen1 { stroke: none; }
.brush2 { fill: rgb(0,0,0); }
</style>
<g>
<polygon class="pen1 brush2" points="628,1248 723,1254 727,1859 858,1897 714,1907 537,1980 622,1918 490,1923 589,1892 493,1869 679,1859 680,1842 684,1795 686,1724 687,1637 683,1539 674,1437 656,1338 628,1248 628,1248"/>
<polygon class="pen1 brush2" points="0,186 534,148 543,159 552,167 563,172 572,175 581,176 588,177 593,176 595,176 587,185 582,192 577,198 572,203 568,207 563,212 557,217 549,224 540,232 528,243 512,257 494,274 471,295 444,320 411,350 373,386 337,425 309,462 289,498 276,533 268,566 266,598 268,627 273,654 281,679 291,701 302,720 313,735 323,748 332,757 338,763 341,764 357,761 374,759 391,757 408,757 425,757 442,757 458,759 473,760 487,762 500,764 512,765 522,767 530,769 536,770 540,771 541,771 527,769 511,768 494,768 477,768 459,769 440,770 422,772 404,774 388,776 372,779 358,782 345,786 335,790 328,794 323,799 321,804 322,836 326,867 332,896 340,924 351,950 363,975 377,998 392,1020 409,1041 427,1061 446,1079 467,1096 488,1113 509,1128 531,1142 554,1156 563,1136 570,1115 577,1095 583,1075 589,1055 593,1034 597,1013 601,991 602,993 604,994 606,995 608,997 605,1018 601,1039 596,1060 591,1080 585,1100 577,1119 570,1140 561,1160 572,1166 583,1172 594,1177 605,1183 615,1188 626,1193 637,1198 648,1203 655,1160 661,1117 665,1074 666,1031 668,1031 670,1032 672,1033 673,1034 673,1077 670,1120 664,1163 656,1206 671,1212 685,1219 699,1225 713,1231 726,1236 738,1242 751,1247 763,1251 760,1203 756,1155 749,1107 740,1059 742,1059 743,1060 745,1061 747,1061 762,1127 768,1189 770,1236 770,1254 792,1263 813,1275 832,1288 849,1303 866,1319 881,1337 895,1356 907,1376 919,1397 929,1419 938,1441 946,1464 953,1486 960,1509 965,1532 970,1554 983,1516 993,1480 1002,1444 1009,1409 1015,1376 1019,1343 1022,1312 1024,1281 1022,1214 1013,1152 999,1095 981,1043 958,995 931,951 902,911 871,875 849,852 826,832 803,813 781,795 758,780 736,766 715,753 695,742 676,732 659,724 643,717 628,712 616,708 607,705 599,703 595,702 519,688 464,667 426,641 405,610 398,575 403,537 418,497 442,457 471,416 504,376 539,339 574,303 607,272 635,245 658,224 672,210 689,187 703,164 713,141 719,117 720,94 714,70 701,46 680,23 673,18 666,13 659,10 652,7 644,6 637,4 630,3 623,3 616,2 610,2 604,2 598,3 592,4 586,6 580,8 575,10 570,12 566,14 561,16 557,19 553,22 549,25 545,28 541,31 533,37 526,44 520,50 515,56 512,61 509,65 508,67 507,68 0,186"/>
<polygon class="pen1 brush0" points="609,102 616,100 623,96 627,89 629,81 627,74 623,68 616,64 609,62 601,64 595,68 591,74 589,81 591,89 595,96 601,100 609,102"/>
</g>
</svg>
