<?xml version="1.0" encoding="UTF-8" standalone="no"?>
<!DOCTYPE svg PUBLIC "-//W3C//DTD SVG 1.0//EN" "http://www.w3.org/TR/2001/REC-SVG-20010904/DTD/svg10.dtd">
<svg xmlns="http://www.w3.org/2000/svg" xmlns:xlink="http://www.w3.org/1999/xlink" fill-rule="evenodd" height="1.987in" preserveAspectRatio="none" stroke-linecap="round" viewBox="0 0 1249 1987" width="1.249in">
<style type="text/css">
.brush0 { fill: rgb(255,255,255); }
.pen0 { stroke: rgb(0,0,0); stroke-width: 1; stroke-linejoin: round; }
.brush1 { fill: none; }
.pen1 { stroke: none; }
.brush2 { fill: rgb(0,0,0); }
</style>
<g>
<polygon class="pen1 brush2" points="607,379 686,433 692,418 615,366 607,379 607,379"/>
<polygon class="pen1 brush2" points="625,362 627,345 776,355 776,372 625,362 625,362"/>
<polygon class="pen1 brush2" points="634,328 713,294 702,277 628,314 634,328 634,328"/>
<polygon class="pen1 brush2" points="851,1251 839,1256 827,1261 814,1266 801,1270 788,1273 774,1275 760,1276 746,1277 727,1276 709,1273 692,1269 675,1262 659,1255 644,1245 630,1235 617,1223 605,1210 595,1196 586,1181 578,1165 572,1148 568,1131 565,1113 564,1094 566,1064 574,1036 585,1009 600,985 618,962 638,943 661,926 686,912 656,921 629,935 605,953 584,975 567,1000 555,1028 547,1059 544,1091 545,1176 548,1263 550,1349 551,1436 479,1436 479,1389 476,1385 472,1386 467,1392 462,1401 457,1411 453,1421 450,1430 448,1436 422,1436 422,1395 419,1391 415,1392 410,1396 405,1403 401,1412 397,1421 393,1430 391,1436 357,1436 356,1410 363,1387 374,1367 388,1351 403,1339 416,1329 425,1324 429,1322 424,1310 418,1292 412,1270 405,1245 399,1218 393,1192 387,1166 382,1143 348,1097 317,1051 290,1003 265,956 244,908 226,861 212,815 201,769 193,725 189,682 188,642 191,604 198,568 207,535 221,506 238,480 259,492 280,498 301,501 320,501 336,500 349,497 357,495 360,494 337,492 316,489 296,484 279,477 262,468 248,459 234,447 222,435 211,421 201,406 191,390 183,372 175,354 168,335 161,315 155,295 156,294 160,291 166,287 173,280 180,271 188,260 195,246 202,230 199,195 200,158 203,120 209,84 215,53 220,30 224,16 226,14 243,28 258,43 271,59 284,75 294,90 303,106 309,121 314,136 318,135 329,132 346,128 367,125 391,123 416,123 441,127 465,136 467,133 473,125 483,113 496,98 512,81 532,63 555,45 580,28 581,48 581,101 577,164 567,214 567,216 566,221 567,228 569,237 574,247 582,259 594,271 610,284 609,284 608,291 607,305 604,324 598,347 591,372 579,398 564,423 588,431 611,441 635,451 660,463 684,476 708,489 732,504 756,520 780,537 804,556 827,575 850,595 873,616 895,638 917,662 938,686 967,721 993,757 1017,793 1039,829 1058,866 1076,903 1091,939 1104,975 1114,1011 1123,1046 1129,1080 1134,1114 1136,1146 1136,1178 1134,1208 1130,1237 1141,1244 1151,1252 1161,1261 1171,1270 1180,1281 1189,1292 1197,1303 1205,1315 1212,1328 1219,1341 1224,1355 1230,1369 1234,1383 1238,1397 1241,1411 1243,1425 1245,1442 1245,1459 1243,1475 1241,1492 1237,1508 1231,1523 1224,1537 1216,1551 1199,1571 1182,1588 1162,1602 1142,1614 1120,1623 1098,1631 1074,1636 1050,1640 1026,1643 1000,1644 975,1645 949,1645 923,1644 897,1644 871,1643 845,1643 841,1644 829,1647 812,1652 792,1659 770,1670 750,1683 732,1699 719,1718 710,1740 703,1762 699,1785 698,1808 701,1832 710,1857 726,1883 749,1911 752,1914 757,1922 758,1936 749,1956 739,1965 726,1969 710,1969 692,1964 673,1955 654,1941 637,1924 621,1904 608,1880 598,1850 592,1815 590,1779 593,1741 602,1703 618,1668 642,1636 656,1622 669,1610 682,1599 695,1590 708,1581 721,1574 734,1568 748,1562 762,1558 778,1553 794,1550 813,1547 833,1544 854,1541 878,1538 904,1535 921,1534 937,1533 954,1532 971,1531 987,1530 1003,1529 1019,1527 1034,1525 1048,1522 1062,1518 1074,1514 1086,1508 1096,1501 1105,1492 1112,1482 1118,1470 1125,1450 1127,1432 1127,1417 1123,1404 1115,1392 1105,1380 1092,1369 1076,1358 1068,1367 1060,1375 1052,1382 1043,1389 1033,1396 1024,1402 1014,1407 1003,1412 993,1416 982,1420 971,1424 960,1426 949,1429 938,1431 926,1432 915,1433 913,1434 907,1434 898,1434 885,1435 870,1435 853,1435 835,1435 816,1436 796,1436 777,1436 758,1436 741,1436 726,1436 713,1436 704,1436 698,1436 698,1398 695,1394 691,1395 686,1399 682,1406 677,1414 673,1422 670,1430 668,1436 641,1436 641,1400 634,1397 626,1407 618,1423 613,1436 574,1436 576,1418 580,1401 585,1385 592,1371 599,1357 608,1345 618,1335 629,1325 640,1317 653,1310 666,1304 680,1299 695,1295 711,1292 727,1291 743,1290 758,1289 773,1288 788,1285 802,1280 815,1275 828,1268 840,1260 851,1251 851,1251"/>
<polygon class="pen1 brush2" points="171,402 162,389 84,440 91,454 171,402 171,402"/>
<polygon class="pen1 brush2" points="151,385 151,369 0,376 0,393 151,385 151,385"/>
<polygon class="pen1 brush2" points="145,349 151,337 76,301 64,317 145,349"/>
<polygon class="pen1 brush0" points="391,341 379,342 369,346 363,351 360,358 360,364 365,370 373,375 385,378 383,395 379,407 373,415 365,420 356,422 346,423 334,423 320,423 320,432 334,432 347,432 358,431 367,429 375,425 381,418 387,409 391,396 396,409 402,419 409,425 418,429 427,431 438,432 449,432 461,432 461,423 447,424 435,424 424,422 415,419 408,413 402,405 399,394 397,379 409,376 418,371 422,365 423,358 420,352 413,346 404,342 391,341 391,341"/>
<polygon class="pen1 brush0" points="299,317 309,315 318,308 325,299 327,288 325,277 318,268 309,262 299,260 288,262 279,268 272,277 270,288 272,299 279,308 288,315 299,317 299,317"/>
<polygon class="pen1 brush0" points="480,314 486,313 492,312 497,309 501,305 505,301 508,296 509,290 510,284 509,278 508,272 505,267 501,263 497,259 492,256 486,255 480,254 469,256 460,263 453,272 451,284 453,296 460,305 469,312 480,314"/>
</g>
</svg>
