<?xml version="1.0" encoding="UTF-8" standalone="no"?>
<!DOCTYPE svg PUBLIC "-//W3C//DTD SVG 1.0//EN" "http://www.w3.org/TR/2001/REC-SVG-20010904/DTD/svg10.dtd">
<svg xmlns="http://www.w3.org/2000/svg" xmlns:xlink="http://www.w3.org/1999/xlink" fill-rule="evenodd" height="0.765in" preserveAspectRatio="none" stroke-linecap="round" viewBox="0 0 1979 765" width="1.979in">
<style type="text/css">
.brush0 { fill: rgb(255,255,255); }
.pen0 { stroke: rgb(0,0,0); stroke-width: 1; stroke-linejoin: round; }
.brush1 { fill: none; }
.pen1 { stroke: none; }
.brush2 { fill: rgb(0,0,0); }
</style>
<g>
<polygon class="pen1 brush2" points="675,494 740,479 742,482 746,491 751,504 758,520 764,538 769,555 772,571 773,584 772,585 767,588 759,592 748,597 735,604 721,611 706,619 690,626 674,634 658,642 644,649 631,656 620,661 611,665 606,668 604,669 624,727 560,765 590,716 570,676 508,670 461,723 499,639 587,640 725,561 675,494 675,494"/>
<polygon class="pen1 brush2" points="546,248 550,268 557,288 566,307 577,325 591,343 607,360 625,377 644,393 665,408 688,422 712,436 737,449 763,462 791,473 819,484 847,495 876,504 905,513 935,521 964,528 993,534 1022,539 1051,544 1078,547 1106,550 1132,552 1157,553 1181,553 1204,552 1225,550 1244,548 1262,544 1273,542 1283,539 1292,536 1298,532 1300,527 1299,520 1294,511 1283,500 1272,490 1258,480 1242,469 1224,459 1203,450 1180,442 1155,436 1127,432 1119,430 1116,428 1116,426 1119,425 1123,424 1127,423 1130,422 1131,422 1159,428 1184,435 1206,442 1226,450 1243,459 1257,468 1270,477 1281,485 1289,494 1297,502 1303,510 1307,516 1311,522 1313,526 1315,529 1317,531 1367,552 1412,572 1452,590 1488,607 1520,622 1549,635 1576,647 1600,657 1622,666 1644,673 1665,679 1686,683 1708,685 1731,686 1755,685 1782,682 1398,517 1411,511 1797,679 1806,678 1814,677 1823,675 1832,674 1841,672 1850,671 1860,668 1870,666 1458,490 1468,487 1884,663 1895,661 1906,659 1917,656 1929,654 1941,651 1953,648 1966,645 1979,642 1972,639 1953,631 1923,619 1884,603 1837,584 1785,562 1729,539 1671,515 1612,491 1555,468 1501,445 1451,425 1407,407 1372,392 1347,382 1333,376 1323,370 1311,362 1298,354 1285,346 1270,337 1256,328 1241,319 1227,310 1213,301 1200,293 1189,286 1178,280 1170,274 1163,270 1159,268 1158,267 1125,249 1092,232 1059,216 1028,202 997,189 966,177 936,166 907,156 879,147 851,139 824,132 799,126 773,120 749,116 726,111 704,108 682,105 662,102 642,100 624,98 607,96 591,95 576,93 562,92 549,91 538,90 528,88 519,87 512,85 506,84 501,82 498,79 483,65 467,54 450,44 433,36 415,30 397,26 379,24 361,23 344,24 327,26 310,30 295,35 280,41 267,48 256,56 246,65 223,90 208,112 201,133 199,152 203,168 211,183 223,196 237,208 253,218 270,226 287,233 302,238 316,242 327,245 334,246 337,247 354,280 376,309 401,334 430,357 461,377 493,394 526,408 558,420 590,430 620,438 648,444 672,449 692,452 708,455 718,456 721,456 695,443 670,429 648,415 628,400 611,384 595,369 581,353 569,337 559,322 550,308 543,294 538,280 535,268 533,257 532,248 533,240 543,223 562,213 587,209 614,209 641,211 664,215 680,219 686,220 639,216 604,217 579,220 563,226 553,233 548,240 546,245 546,248 546,248"/>
<polygon class="pen1 brush2" points="202,84 178,146 164,145 150,146 135,147 120,149 105,152 90,155 76,159 62,162 49,166 38,170 27,173 18,176 10,179 5,181 1,183 0,183 6,168 15,154 25,142 37,132 50,122 65,114 80,107 96,102 112,97 127,93 143,90 157,88 171,86 183,85 193,84 202,84"/>
<polygon class="pen1 brush0" points="327,133 338,131 347,125 352,117 354,106 352,96 347,87 338,81 327,79 317,81 308,87 302,96 300,106 302,117 308,125 317,131 327,133"/>
<polygon class="pen1 brush0" points="438,113 441,114 449,118 462,124 477,132 494,140 512,148 528,154 543,159 538,161 526,169 510,182 494,200 481,224 477,255 483,292 505,336 500,334 486,328 466,319 443,306 417,290 393,271 372,248 357,223 354,222 346,220 334,216 320,211 306,203 293,193 282,181 276,166 278,167 283,169 291,172 301,176 314,180 327,184 342,186 357,188 372,189 387,187 400,183 413,176 423,166 431,153 436,135 438,113"/>
</g>
</svg>
