<?xml version="1.0" encoding="UTF-8" standalone="no"?>
<!DOCTYPE svg PUBLIC "-//W3C//DTD SVG 1.0//EN" "http://www.w3.org/TR/2001/REC-SVG-20010904/DTD/svg10.dtd">
<svg xmlns="http://www.w3.org/2000/svg" xmlns:xlink="http://www.w3.org/1999/xlink" fill-rule="evenodd" height="1.971in" preserveAspectRatio="none" stroke-linecap="round" viewBox="0 0 1767 1971" width="1.767in">
<style type="text/css">
.brush0 { fill: rgb(255,255,255); }
.pen0 { stroke: rgb(0,0,0); stroke-width: 1; stroke-linejoin: round; }
.brush1 { fill: none; }
.pen1 { stroke: none; }
.brush2 { fill: rgb(0,0,0); }
</style>
<g>
<polygon class="pen1 brush2" points="0,276 6,272 14,267 26,259 39,250 54,240 71,229 88,217 106,205 124,193 141,181 157,169 172,158 185,147 196,138 204,130 209,124 213,117 218,108 224,96 231,83 239,69 248,55 259,41 271,29 278,23 286,18 293,13 301,9 310,6 318,3 328,1 338,0 348,1 359,2 371,5 383,9 396,15 410,22 424,30 439,40 443,40 453,40 471,40 494,40 523,41 558,43 597,46 640,50 687,56 738,63 791,72 847,83 904,96 963,112 1023,131 1084,152 1123,167 1162,184 1200,202 1239,221 1277,242 1314,265 1351,289 1386,314 1421,342 1455,371 1488,402 1519,435 1549,470 1577,507 1603,546 1628,587 1660,650 1688,717 1711,789 1729,866 1741,948 1748,1035 1749,1127 1743,1225 1740,1226 1732,1227 1719,1230 1701,1232 1678,1235 1652,1237 1623,1238 1590,1238 1555,1236 1517,1233 1478,1227 1437,1219 1395,1207 1352,1192 1309,1174 1266,1151 1265,1151 1264,1153 1262,1155 1261,1159 1261,1163 1264,1169 1271,1175 1282,1182 1297,1191 1319,1201 1348,1211 1384,1223 1429,1235 1483,1249 1548,1264 1624,1280 1629,1281 1641,1285 1659,1292 1678,1303 1697,1319 1713,1339 1722,1366 1723,1398 1719,1420 1713,1437 1705,1450 1697,1459 1687,1465 1675,1469 1662,1471 1648,1472 1642,1472 1632,1471 1619,1469 1602,1467 1582,1464 1559,1460 1533,1456 1506,1451 1476,1445 1445,1438 1412,1431 1378,1422 1343,1413 1308,1403 1272,1392 1237,1380 1202,1367 1167,1354 1133,1339 1101,1323 1070,1307 1041,1289 1013,1270 988,1250 966,1229 947,1207 931,1184 918,1159 909,1134 904,1107 904,1079 908,1050 914,1033 923,1016 937,999 954,983 975,967 999,952 1027,940 1059,929 1094,920 1133,915 1175,912 1221,914 1270,919 1323,928 1379,943 1439,962 1434,960 1420,953 1398,944 1369,933 1335,920 1295,908 1252,898 1206,889 1158,884 1110,884 1062,889 1016,900 972,919 932,947 897,984 868,1032 861,1052 858,1075 858,1101 864,1130 876,1161 893,1195 917,1232 949,1270 946,1269 939,1266 927,1260 912,1253 893,1244 872,1233 849,1221 825,1208 800,1193 775,1178 751,1161 727,1144 705,1126 686,1108 669,1089 656,1070 645,1051 634,1031 623,1011 612,991 600,970 588,949 574,929 560,910 545,891 529,874 511,858 491,844 470,831 447,821 422,813 394,808 366,803 340,794 315,782 292,768 271,752 252,733 234,713 218,691 203,669 190,645 179,622 169,598 161,575 154,552 149,530 145,510 140,506 126,496 105,479 81,455 56,426 32,391 13,352 0,308 8,317 17,326 28,336 40,346 55,356 71,366 90,376 111,387 134,397 159,406 187,415 217,424 251,432 287,439 326,446 368,451 325,441 286,431 250,420 216,409 186,398 158,386 132,374 109,362 89,351 70,339 54,327 40,316 27,305 17,295 8,285 0,276 0,276"/>
<polygon class="pen1 brush2" points="1592,1506 1585,1505 1576,1504 1567,1503 1558,1502 1548,1500 1537,1498 1526,1496 1514,1494 1501,1492 1489,1490 1475,1487 1461,1484 1447,1481 1432,1478 1417,1475 1402,1472 1394,1475 1382,1479 1368,1483 1351,1487 1332,1491 1311,1496 1288,1500 1263,1505 1236,1510 1209,1515 1180,1519 1150,1524 1120,1529 1089,1534 1058,1539 1027,1544 997,1549 966,1553 937,1558 908,1563 880,1567 854,1571 829,1575 806,1579 785,1582 766,1585 749,1588 735,1591 724,1593 715,1595 711,1597 709,1598 790,1593 863,1589 927,1586 981,1585 1025,1586 1058,1590 1079,1596 1088,1605 1084,1617 1067,1633 1036,1653 991,1677 930,1706 854,1739 761,1778 651,1822 723,1803 787,1787 844,1775 893,1765 936,1758 973,1754 1003,1752 1027,1752 1047,1754 1061,1759 1071,1765 1076,1772 1078,1781 1076,1791 1072,1802 1064,1814 1054,1826 1042,1839 1028,1852 1013,1866 998,1879 981,1892 965,1905 948,1917 932,1928 918,1938 904,1948 892,1956 882,1962 874,1967 870,1970 868,1971 879,1969 891,1966 905,1961 920,1956 936,1950 954,1942 973,1934 993,1925 1014,1915 1036,1904 1059,1892 1082,1879 1107,1866 1131,1852 1157,1837 1183,1821 1209,1805 1236,1788 1262,1771 1289,1753 1316,1735 1343,1716 1370,1696 1396,1677 1422,1656 1448,1636 1474,1615 1499,1594 1523,1572 1547,1550 1570,1528 1592,1506 1592,1506"/>
<polygon class="pen1 brush2" points="507,1561 490,1550 478,1537 469,1524 464,1510 461,1498 459,1487 459,1481 459,1478 155,1418 202,1437 240,1453 268,1466 288,1476 299,1484 303,1490 301,1494 291,1498 276,1500 255,1502 229,1504 199,1507 165,1510 127,1515 87,1522 44,1530 98,1532 145,1533 186,1534 219,1536 246,1538 266,1540 279,1544 284,1548 283,1554 275,1561 260,1569 237,1580 208,1593 171,1607 128,1625 77,1645 108,1640 138,1634 168,1628 195,1622 221,1617 244,1613 264,1610 281,1610 294,1612 302,1616 306,1623 304,1634 297,1649 283,1668 263,1692 235,1721 507,1561 507,1561"/>
<polygon class="pen1 brush2" points="553,1000 547,1047 538,1114 528,1194 516,1278 505,1357 496,1424 489,1470 487,1487 500,1504 514,1516 530,1524 545,1529 559,1531 571,1531 578,1530 581,1530 607,1491 630,1440 652,1383 670,1326 685,1272 696,1227 704,1196 706,1185 678,1166 650,1141 625,1112 601,1082 582,1054 566,1029 556,1010 553,1000"/>
<polygon class="pen1 brush0" points="327,185 337,184 347,181 356,176 364,170 370,162 375,153 378,142 379,131 378,121 375,111 370,103 364,95 356,89 347,84 337,81 327,80 316,81 306,84 297,89 289,95 283,103 278,111 275,121 274,131 275,142 278,153 283,162 289,170 297,176 306,181 316,184 327,185"/>
<polygon class="pen1 brush0" points="1463,601 1467,585 1465,570 1457,557 1445,547 1437,544 1430,543 1422,544 1414,546 1407,549 1401,554 1395,560 1391,567 1387,582 1389,597 1396,610 1409,620 1417,623 1424,624 1432,624 1440,622 1447,618 1453,614 1459,608 1463,601 1463,601"/>
<polygon class="pen1 brush0" points="1394,713 1398,698 1396,682 1388,670 1375,661 1367,658 1359,657 1351,657 1344,659 1337,662 1331,666 1325,672 1321,679 1318,687 1317,694 1318,702 1320,710 1323,717 1328,723 1334,729 1341,733 1349,736 1356,737 1364,736 1372,734 1379,731 1385,726 1390,720 1394,713 1394,713"/>
<polygon class="pen1 brush0" points="1344,610 1347,595 1345,579 1337,566 1324,557 1316,554 1309,553 1301,553 1293,555 1286,559 1280,563 1274,569 1270,576 1267,591 1270,606 1277,619 1290,628 1298,631 1305,632 1313,632 1321,630 1328,627 1334,623 1340,617 1344,610 1344,610"/>
<polygon class="pen1 brush0" points="1169,519 1177,518 1185,516 1192,512 1198,507 1202,501 1206,494 1208,487 1209,479 1208,471 1206,463 1202,456 1198,450 1192,446 1185,442 1177,440 1169,439 1161,440 1154,442 1147,446 1141,450 1136,456 1132,463 1130,471 1129,479 1130,487 1132,494 1136,501 1141,507 1147,512 1154,516 1161,518 1169,519 1169,519"/>
<polygon class="pen1 brush0" points="1037,505 1045,504 1053,502 1060,498 1066,493 1070,487 1074,480 1076,473 1077,465 1076,457 1074,449 1070,442 1066,436 1060,432 1053,428 1045,426 1037,425 1029,426 1022,428 1015,432 1009,436 1004,442 1000,449 998,457 997,465 998,473 1000,480 1004,487 1009,493 1015,498 1022,502 1029,504 1037,505 1037,505"/>
<polygon class="pen1 brush0" points="1110,414 1118,413 1125,411 1132,407 1137,402 1142,396 1146,389 1148,382 1149,374 1148,366 1146,358 1142,351 1137,345 1132,341 1125,337 1118,335 1110,334 1102,335 1094,337 1088,341 1082,345 1077,351 1073,358 1071,366 1070,374 1071,382 1073,389 1077,396 1082,402 1088,407 1094,411 1102,413 1110,414"/>
</g>
</svg>
