<?xml version="1.0" encoding="UTF-8" standalone="no"?>
<!DOCTYPE svg PUBLIC "-//W3C//DTD SVG 1.0//EN" "http://www.w3.org/TR/2001/REC-SVG-20010904/DTD/svg10.dtd">
<svg xmlns="http://www.w3.org/2000/svg" xmlns:xlink="http://www.w3.org/1999/xlink" fill-rule="evenodd" height="1.655in" preserveAspectRatio="none" stroke-linecap="round" viewBox="0 0 1997 1655" width="1.997in">
<style type="text/css">
.brush0 { fill: rgb(255,255,255); }
.pen0 { stroke: rgb(0,0,0); stroke-width: 1; stroke-linejoin: round; }
.brush1 { fill: none; }
.pen1 { stroke: none; }
.brush2 { fill: rgb(0,0,0); }
</style>
<g>
<polygon class="pen1 brush2" points="92,1088 128,1108 163,1127 198,1146 232,1164 266,1182 300,1198 334,1214 368,1230 402,1244 437,1258 472,1271 508,1282 545,1294 583,1304 622,1313 663,1321 683,1341 704,1361 725,1379 748,1396 771,1412 796,1427 821,1441 847,1454 873,1465 900,1475 928,1483 956,1490 985,1496 1015,1500 1045,1502 1075,1503 1105,1502 1135,1500 1164,1496 1193,1490 1222,1483 1249,1475 1276,1465 1303,1454 1329,1441 1354,1428 1378,1413 1402,1397 1424,1380 1446,1362 1466,1343 1486,1323 1513,1319 1540,1316 1566,1312 1592,1308 1617,1304 1641,1300 1665,1295 1688,1291 1711,1288 1732,1284 1753,1280 1773,1277 1792,1274 1810,1271 1828,1268 1844,1266 1847,1265 1852,1265 1858,1264 1865,1264 1872,1264 1880,1264 1889,1264 1898,1264 1908,1265 1918,1266 1928,1267 1937,1268 1946,1270 1955,1272 1963,1274 1970,1277 1982,1283 1989,1291 1990,1302 1983,1314 1977,1322 1969,1330 1958,1339 1945,1349 1930,1359 1911,1370 1890,1382 1865,1394 1839,1407 1813,1419 1786,1432 1759,1444 1733,1456 1706,1469 1678,1480 1651,1492 1624,1503 1596,1514 1569,1525 1541,1536 1514,1546 1486,1556 1459,1565 1432,1574 1404,1583 1377,1591 1350,1599 1322,1606 1296,1612 1269,1619 1242,1624 1216,1629 1189,1633 1163,1637 1138,1640 1112,1643 1087,1644 1062,1645 1037,1646 1013,1645 1009,1645 998,1644 980,1643 956,1641 926,1639 891,1635 852,1630 808,1623 761,1615 711,1606 659,1594 604,1580 548,1564 492,1545 435,1524 378,1500 350,1487 323,1473 296,1459 269,1444 243,1428 217,1411 192,1394 167,1376 143,1356 120,1336 98,1315 76,1293 56,1270 36,1246 17,1221 0,1195 2,1196 6,1199 13,1204 22,1209 32,1216 45,1223 58,1230 72,1236 87,1243 101,1248 116,1252 130,1254 142,1254 154,1252 164,1247 172,1239 179,1219 178,1199 168,1179 155,1160 138,1141 120,1123 104,1105 92,1088 92,1088"/>
<polygon class="pen1 brush2" points="1071,1485 1128,1482 1183,1473 1237,1458 1288,1438 1338,1413 1384,1383 1427,1349 1468,1311 1504,1270 1537,1225 1565,1177 1589,1126 1608,1074 1622,1019 1631,963 1634,905 1633,868 1629,832 1623,796 1615,762 1605,728 1593,695 1578,663 1562,633 1544,603 1524,575 1502,548 1479,523 1454,499 1428,476 1400,455 1371,436 1367,454 1361,472 1353,490 1343,508 1331,525 1318,542 1303,558 1286,573 1268,589 1248,603 1227,616 1205,629 1182,641 1157,651 1132,661 1105,669 1072,678 1039,684 1007,687 975,688 944,686 914,683 885,677 857,669 831,659 808,647 786,634 766,619 749,602 735,584 724,564 716,543 712,524 710,505 711,487 713,468 690,488 669,509 648,531 630,555 612,580 596,606 581,633 568,660 556,689 546,718 537,748 530,778 524,810 520,841 518,873 517,905 520,963 528,1019 542,1074 560,1126 583,1177 611,1225 643,1270 679,1311 718,1349 760,1383 806,1413 855,1438 906,1458 959,1473 1014,1482 1071,1485 1071,1485"/>
<polygon class="pen1 brush2" points="1107,655 1079,663 1051,668 1021,671 991,673 962,672 932,668 904,663 876,656 849,647 824,637 801,624 780,609 762,593 746,575 734,555 725,534 719,505 720,477 726,448 737,419 753,392 774,365 799,339 828,314 841,343 861,367 886,385 915,398 948,407 983,410 1020,410 1058,406 1096,398 1134,386 1169,372 1202,354 1232,335 1257,312 1277,288 1291,262 1304,270 1316,279 1327,289 1337,299 1346,310 1354,322 1360,334 1365,348 1369,370 1370,393 1367,415 1362,438 1354,461 1343,483 1329,505 1313,526 1295,547 1274,566 1251,585 1226,602 1199,618 1170,632 1139,644 1107,655 1107,655"/>
<polygon class="pen1 brush2" points="1294,165 1299,201 1293,236 1277,268 1254,298 1223,325 1188,348 1148,367 1105,381 1061,392 1018,397 975,396 935,390 900,377 870,358 846,332 831,298 827,272 830,245 839,219 853,193 874,169 899,146 928,125 962,107 966,122 974,135 985,144 998,151 1013,156 1030,158 1047,158 1065,155 1083,151 1101,145 1118,137 1133,128 1147,116 1158,104 1166,90 1171,75 1194,81 1214,88 1233,97 1251,107 1265,119 1278,133 1287,148 1294,165 1294,165"/>
<polygon class="pen1 brush2" points="1161,50 1155,38 1146,28 1135,20 1120,14 1104,10 1086,9 1067,10 1048,14 1029,21 1012,30 998,41 986,54 977,67 971,80 968,94 970,107 976,120 986,130 998,138 1013,143 1029,145 1046,145 1065,143 1083,138 1100,132 1117,125 1132,115 1144,104 1154,92 1161,79 1163,65 1161,50"/>
</g>
</svg>
