<?xml version="1.0" encoding="UTF-8" standalone="no"?>
<!DOCTYPE svg PUBLIC "-//W3C//DTD SVG 1.0//EN" "http://www.w3.org/TR/2001/REC-SVG-20010904/DTD/svg10.dtd">
<svg xmlns="http://www.w3.org/2000/svg" xmlns:xlink="http://www.w3.org/1999/xlink" fill-rule="evenodd" height="1.991in" preserveAspectRatio="none" stroke-linecap="round" viewBox="0 0 1453 1991" width="1.453in">
<style type="text/css">
.brush0 { fill: rgb(255,255,255); }
.pen0 { stroke: rgb(0,0,0); stroke-width: 1; stroke-linejoin: round; }
.brush1 { fill: none; }
.pen1 { stroke: none; }
.brush2 { fill: rgb(0,0,0); }
</style>
<g>
<polygon class="pen1 brush2" points="722,1711 763,1710 807,1706 853,1698 901,1687 949,1671 997,1651 1044,1625 1090,1594 1132,1556 1171,1512 1206,1460 1235,1400 1259,1332 1275,1256 1284,1170 1284,1074 1277,978 1265,892 1248,814 1229,745 1206,683 1182,630 1156,583 1130,544 1104,510 1079,483 1056,460 1036,443 1019,431 1005,422 997,417 994,416 524,415 520,416 509,421 492,430 470,442 443,459 414,481 382,509 349,542 315,582 283,628 252,682 223,743 198,812 178,889 163,975 155,1071 155,1167 164,1253 181,1329 205,1398 234,1457 269,1509 309,1554 352,1592 398,1624 445,1650 494,1671 542,1687 590,1698 637,1706 681,1710 722,1711 722,1711"/>
<polygon class="pen1 brush2" points="155,477 153,478 148,482 141,487 133,494 125,503 117,512 111,521 108,530 107,539 109,547 111,555 115,563 120,571 125,578 130,584 135,591 132,591 126,592 116,594 103,596 89,600 76,604 62,611 51,619 52,612 54,596 59,578 65,564 64,564 60,564 54,565 46,567 36,570 26,575 15,583 3,594 3,592 4,587 6,579 10,570 15,561 22,551 32,543 45,536 44,536 40,535 35,535 29,535 22,536 14,538 7,541 0,546 1,544 4,539 8,531 16,523 26,514 38,506 54,500 74,497 74,497 74,495 72,493 70,491 66,489 60,486 52,484 40,483 42,482 46,480 53,477 61,474 72,472 83,470 95,470 108,472 109,472 109,469 108,462 101,449 103,450 108,451 116,454 125,458 135,462 144,467 151,472 155,477 155,477"/>
<polygon class="pen1 brush2" points="276,575 241,579 210,580 184,579 164,576 147,570 136,562 130,553 129,541 133,528 140,515 151,502 165,490 181,479 199,469 219,461 240,456 260,453 279,455 295,459 310,465 322,471 331,477 337,481 339,483 331,494 321,507 311,523 300,538 291,552 283,564 278,572 276,575 276,575"/>
<polygon class="pen1 brush2" points="430,1675 428,1730 420,1778 409,1817 395,1849 382,1873 370,1890 361,1900 358,1903 347,1895 338,1886 330,1878 323,1869 318,1862 314,1856 312,1852 311,1851 302,1877 296,1899 291,1914 290,1919 282,1906 275,1893 269,1878 265,1865 261,1853 259,1843 257,1836 257,1834 248,1845 240,1855 234,1863 229,1869 226,1874 224,1877 222,1879 222,1880 216,1843 213,1811 213,1787 213,1778 198,1789 188,1798 180,1805 175,1811 171,1815 170,1817 169,1819 169,1819 176,1780 193,1741 216,1704 242,1671 267,1643 289,1621 305,1607 311,1602 328,1615 346,1627 366,1640 386,1651 403,1661 417,1668 427,1673 430,1675 430,1675"/>
<polygon class="pen1 brush2" points="679,1738 777,1738 777,1744 778,1760 778,1785 776,1818 770,1856 761,1899 747,1944 726,1991 723,1985 716,1969 707,1945 696,1912 686,1874 679,1832 676,1786 679,1738 679,1738"/>
<polygon class="pen1 brush2" points="1014,1666 1018,1664 1027,1659 1042,1652 1060,1642 1079,1631 1099,1619 1118,1607 1135,1594 1141,1599 1156,1613 1178,1635 1203,1663 1228,1696 1251,1733 1267,1772 1274,1812 1274,1812 1273,1810 1272,1807 1269,1803 1263,1797 1255,1790 1245,1781 1230,1770 1230,1779 1231,1802 1229,1835 1223,1871 1223,1870 1221,1868 1219,1865 1215,1860 1210,1854 1204,1847 1196,1837 1186,1826 1186,1828 1185,1835 1183,1845 1180,1857 1175,1871 1170,1885 1163,1899 1155,1912 1153,1906 1149,1891 1143,1870 1135,1844 1134,1845 1132,1849 1128,1855 1123,1862 1116,1870 1108,1879 1098,1887 1087,1895 1084,1892 1075,1882 1063,1865 1049,1840 1035,1809 1024,1769 1016,1722 1014,1666 1014,1666"/>
<polygon class="pen1 brush2" points="1297,477 1301,472 1308,467 1317,462 1327,458 1336,454 1344,451 1349,450 1351,449 1345,462 1343,469 1344,472 1345,472 1357,470 1369,470 1381,472 1391,474 1400,477 1406,480 1410,482 1412,483 1400,484 1392,486 1385,489 1382,491 1379,493 1378,495 1378,497 1378,497 1398,500 1414,506 1427,514 1437,523 1445,531 1449,539 1452,544 1453,546 1446,541 1438,538 1431,536 1423,535 1416,535 1411,535 1407,536 1406,536 1419,543 1429,551 1437,561 1442,570 1446,579 1448,587 1449,592 1449,594 1438,583 1427,575 1416,570 1406,567 1398,565 1392,564 1387,564 1386,564 1393,578 1398,596 1401,612 1402,619 1391,611 1377,604 1363,600 1349,596 1337,594 1326,592 1320,591 1317,591 1322,584 1328,578 1333,571 1337,563 1341,555 1344,547 1345,539 1345,530 1342,521 1336,512 1328,503 1320,494 1311,487 1304,482 1299,478 1297,477 1297,477"/>
<polygon class="pen1 brush2" points="1176,575 1174,572 1169,564 1161,552 1152,538 1141,523 1130,507 1120,494 1112,483 1114,481 1120,477 1129,471 1141,465 1156,459 1173,455 1192,453 1213,456 1233,461 1253,469 1271,479 1287,490 1300,502 1311,515 1318,528 1322,541 1321,553 1316,562 1305,570 1289,576 1268,579 1242,580 1211,579 1176,575"/>
<polygon class="pen1 brush2" points="723,398 706,397 689,395 671,390 655,382 641,371 629,355 620,335 615,310 612,279 609,244 608,208 610,170 616,133 629,98 650,67 679,40 682,33 686,25 690,19 695,12 701,7 707,3 714,1 722,0 731,1 739,3 746,6 753,11 758,17 763,24 767,31 770,40 799,67 820,98 833,133 839,170 841,208 840,244 838,279 835,310 831,333 823,352 812,368 798,379 782,388 764,394 744,397 723,398"/>
<polygon class="pen1 brush0" points="787,169 796,167 804,162 809,155 811,145 809,136 804,128 796,123 787,121 778,123 770,128 765,136 763,145 765,155 770,162 778,167 787,169"/>
<polygon class="pen1 brush0" points="662,172 653,170 646,165 641,158 639,148 641,139 646,132 653,127 662,125 672,127 679,132 684,139 686,148 684,158 679,165 672,170 662,172"/>
<polygon class="pen1 brush0" points="332,764 347,748 363,729 377,708 389,685 398,662 401,640 399,619 389,601 409,595 430,587 451,578 472,566 490,553 506,537 517,520 524,500 533,502 543,504 554,505 565,507 576,509 588,510 599,511 611,512 623,513 635,513 646,512 657,511 668,510 678,507 688,504 697,500 697,1602 687,1597 676,1592 666,1588 656,1583 646,1578 635,1574 625,1571 615,1567 604,1565 594,1563 583,1562 573,1563 562,1564 552,1566 541,1570 530,1575 525,1561 515,1546 503,1532 487,1519 470,1508 453,1499 435,1493 419,1492 420,1476 418,1456 412,1436 404,1416 391,1397 376,1380 357,1368 334,1361 339,1335 342,1312 342,1291 340,1272 334,1255 325,1240 311,1226 293,1215 298,1192 304,1167 308,1143 310,1119 309,1096 304,1076 295,1060 280,1047 291,1025 299,1002 305,979 308,957 309,936 306,918 300,903 291,892 302,882 312,868 322,852 331,834 337,816 340,798 339,780 332,764 332,764"/>
<polygon class="pen1 brush0" points="324,763 331,780 333,797 331,815 325,832 317,849 307,865 295,879 284,892 296,908 302,927 304,947 301,968 296,990 289,1011 281,1030 273,1048 290,1062 300,1081 304,1103 304,1128 301,1153 296,1177 290,1199 284,1217 306,1228 321,1243 330,1261 334,1282 335,1304 333,1326 329,1348 324,1368 345,1371 364,1381 381,1395 395,1413 405,1434 411,1455 413,1476 409,1496 427,1498 444,1503 462,1511 479,1521 494,1534 508,1549 519,1566 527,1584 537,1578 547,1574 558,1572 568,1570 579,1570 591,1571 602,1573 613,1576 625,1579 636,1583 647,1587 658,1592 669,1597 679,1602 689,1606 699,1611 705,1608 705,490 696,495 687,499 676,502 664,504 652,506 639,507 626,507 612,506 599,505 585,504 572,502 559,500 547,497 536,495 526,492 517,490 513,511 502,530 486,547 466,562 443,574 420,584 398,592 379,598 392,618 396,639 392,663 383,686 369,709 354,730 338,748 324,763 324,763"/>
<polygon class="pen1 brush0" points="1122,764 1107,748 1091,729 1076,708 1064,685 1056,662 1052,640 1054,619 1064,601 1045,595 1024,587 1003,578 983,566 964,553 948,537 937,520 930,500 921,502 911,504 900,505 889,507 878,509 867,510 855,511 843,512 831,513 820,513 808,512 797,511 786,510 776,507 766,504 757,500 757,1602 767,1597 778,1592 788,1588 798,1583 808,1578 819,1574 829,1571 839,1567 850,1565 860,1563 870,1562 881,1563 891,1564 902,1566 912,1570 923,1575 929,1561 938,1546 951,1532 967,1519 983,1508 1001,1499 1018,1493 1035,1492 1034,1476 1036,1456 1041,1436 1050,1416 1063,1397 1079,1380 1098,1368 1121,1361 1116,1335 1113,1312 1112,1291 1115,1272 1121,1255 1130,1240 1144,1226 1162,1215 1157,1192 1151,1167 1147,1143 1145,1119 1146,1096 1150,1076 1160,1060 1175,1047 1164,1025 1155,1002 1149,979 1145,957 1144,936 1147,918 1153,903 1162,892 1152,882 1141,868 1132,852 1123,834 1117,816 1114,798 1116,780 1122,764 1122,764"/>
<polygon class="pen1 brush0" points="1131,763 1123,780 1120,797 1122,815 1128,832 1136,849 1146,865 1158,879 1169,892 1157,908 1151,927 1149,947 1152,968 1157,990 1165,1011 1173,1030 1182,1048 1165,1062 1156,1081 1151,1103 1151,1128 1154,1153 1159,1177 1164,1199 1169,1217 1148,1228 1133,1243 1124,1261 1120,1282 1120,1304 1122,1326 1126,1348 1131,1368 1110,1371 1091,1381 1074,1395 1060,1413 1050,1434 1044,1455 1042,1476 1045,1496 1028,1498 1010,1503 993,1511 976,1521 961,1534 947,1549 936,1566 928,1584 918,1578 907,1574 897,1572 886,1570 874,1570 863,1571 852,1573 841,1576 829,1579 818,1583 807,1587 796,1592 786,1597 775,1602 765,1606 756,1611 750,1608 750,490 758,495 768,499 779,502 790,504 802,506 815,507 828,507 842,506 855,505 869,504 882,502 894,500 906,497 917,495 927,492 936,490 940,511 951,530 967,547 988,562 1010,574 1033,584 1055,592 1075,598 1062,618 1058,639 1062,663 1072,686 1086,709 1101,730 1117,748 1131,763"/>
</g>
</svg>
