<?xml version="1.0" encoding="UTF-8" standalone="no"?>
<!DOCTYPE svg PUBLIC "-//W3C//DTD SVG 1.0//EN" "http://www.w3.org/TR/2001/REC-SVG-20010904/DTD/svg10.dtd">
<svg xmlns="http://www.w3.org/2000/svg" xmlns:xlink="http://www.w3.org/1999/xlink" fill-rule="evenodd" height="0.48in" preserveAspectRatio="none" stroke-linecap="round" viewBox="0 0 2040 480" width="2.04in">
<style type="text/css">
.brush0 { fill: rgb(255,255,255); }
.pen0 { stroke: rgb(0,0,0); stroke-width: 1; stroke-linejoin: round; }
.brush1 { fill: none; }
.pen1 { stroke: none; }
.brush2 { fill: rgb(0,0,0); }
</style>
<g>
<polygon class="pen1 brush2" points="298,337 309,365 321,391 336,415 353,436 373,454 396,467 424,474 456,476 491,471 521,460 548,444 571,424 591,400 609,373 624,344 638,315 650,285 662,256 674,229 686,205 698,184 712,168 727,156 744,151 760,153 773,162 785,177 795,198 805,222 815,249 825,279 836,310 849,341 864,371 881,399 901,424 925,445 953,462 985,472 1023,476 1061,472 1095,462 1125,446 1151,425 1175,401 1195,373 1214,344 1230,313 1246,283 1260,254 1273,226 1287,202 1300,181 1315,165 1330,155 1347,151 1367,155 1383,165 1397,181 1408,202 1418,226 1426,254 1435,283 1444,313 1454,344 1466,373 1480,401 1498,425 1520,446 1546,462 1578,472 1615,476 1636,475 1655,472 1673,466 1691,459 1707,450 1722,439 1737,427 1750,413 1763,398 1775,381 1787,363 1799,344 1809,324 1820,303 1831,281 1841,259 1860,218 1878,179 1895,143 1912,111 1928,84 1944,64 1961,51 1977,46 1978,45 1981,44 1986,42 1994,41 2002,42 2013,44 2026,49 2040,57 2039,55 2036,49 2031,41 2024,31 2012,22 1998,14 1979,8 1956,6 1939,8 1923,12 1907,20 1891,29 1875,42 1860,56 1846,72 1832,89 1818,108 1805,128 1792,149 1779,171 1767,192 1755,214 1744,236 1733,257 1725,271 1717,288 1707,307 1696,325 1682,342 1666,355 1647,365 1625,368 1607,363 1591,350 1576,331 1563,307 1551,282 1541,257 1531,235 1523,218 1516,200 1510,181 1503,163 1497,144 1490,126 1483,109 1475,92 1466,76 1457,61 1446,48 1434,36 1421,26 1406,17 1389,11 1371,7 1350,6 1327,8 1306,13 1287,22 1270,33 1254,47 1240,64 1226,82 1214,102 1202,124 1191,146 1180,170 1169,194 1158,218 1147,242 1136,266 1124,289 1114,304 1104,319 1094,331 1083,343 1073,352 1062,360 1051,366 1040,369 1029,371 1018,370 1007,366 997,360 986,350 976,338 966,322 956,303 944,279 933,253 922,228 912,202 902,177 891,152 881,128 870,105 859,83 847,64 834,46 819,31 804,19 787,10 769,4 749,2 727,3 707,8 689,17 673,27 658,41 644,56 632,73 620,92 610,111 600,132 591,152 583,173 574,193 566,212 558,230 550,247 540,270 530,291 519,309 509,324 498,336 487,345 477,352 466,355 454,354 443,351 432,344 421,333 409,319 398,301 386,279 375,253 366,224 361,198 355,177 349,158 339,140 323,124 301,107 269,90 254,85 237,82 221,83 204,85 187,90 170,96 154,103 138,111 123,120 109,129 97,137 86,145 77,151 71,156 66,160 65,161 65,176 67,189 70,200 75,209 65,209 55,208 45,207 35,206 25,205 15,203 7,201 0,199 8,206 19,212 31,217 45,220 59,223 72,225 83,226 91,226 102,233 115,238 129,241 143,242 157,242 172,240 186,237 199,233 211,228 222,224 232,221 241,220 249,220 257,221 265,225 274,232 280,258 286,284 291,311 298,337"/>
<polygon class="pen1 brush0" points="193,165 201,163 208,159 212,152 213,145 212,137 208,131 201,127 193,125 185,127 179,131 175,137 173,145 175,152 179,159 185,163 193,165"/>
<polygon class="pen1 brush0" points="91,220 87,212 89,212 94,212 102,211 112,211 122,210 132,209 141,207 149,205 143,210 135,213 126,216 116,218 106,219 99,220 93,220 91,220"/>
<polygon class="pen1 brush0" points="1148,391 1158,389 1166,384 1171,376 1173,365 1171,355 1166,347 1158,342 1148,340 1138,342 1129,347 1123,355 1121,365 1123,376 1129,384 1138,389 1148,391"/>
<polygon class="pen1 brush0" points="943,412 953,410 961,405 967,397 969,387 967,377 961,368 953,363 943,361 933,363 925,368 920,377 918,387 920,397 925,405 933,410 943,412"/>
<polygon class="pen1 brush0" points="847,199 857,197 865,192 870,184 872,174 870,164 865,155 857,150 847,148 837,150 828,155 823,164 821,174 823,184 828,192 837,197 847,199"/>
<polygon class="pen1 brush0" points="695,121 705,119 713,114 718,106 720,95 718,85 713,77 705,72 695,70 685,72 677,77 671,85 669,95 671,106 677,114 685,119 695,121"/>
<polygon class="pen1 brush0" points="507,435 517,433 525,428 531,420 533,409 531,399 525,391 517,386 507,384 496,386 488,391 482,399 480,409 482,420 488,428 496,433 507,435"/>
<polygon class="pen1 brush0" points="1310,118 1320,116 1328,111 1333,103 1335,93 1333,83 1328,74 1320,69 1310,67 1299,69 1291,74 1286,83 1284,93 1286,103 1291,111 1299,116 1310,118"/>
<polygon class="pen1 brush0" points="1443,175 1453,173 1461,168 1467,160 1469,149 1467,139 1461,131 1453,126 1443,124 1433,126 1425,131 1420,139 1418,149 1420,160 1425,168 1433,173 1443,175"/>
<polygon class="pen1 brush0" points="1656,438 1667,436 1675,430 1680,422 1682,411 1680,401 1675,393 1667,387 1656,385 1646,387 1638,393 1633,401 1631,411 1633,422 1638,430 1646,436 1656,438"/>
<polygon class="pen1 brush0" points="1788,282 1798,280 1807,274 1812,266 1814,256 1812,245 1807,236 1798,231 1788,229 1778,231 1770,236 1765,245 1763,256 1765,266 1770,274 1778,280 1788,282"/>
</g>
</svg>
