<?xml version="1.0" encoding="UTF-8" standalone="no"?>
<!DOCTYPE svg PUBLIC "-//W3C//DTD SVG 1.0//EN" "http://www.w3.org/TR/2001/REC-SVG-20010904/DTD/svg10.dtd">
<svg xmlns="http://www.w3.org/2000/svg" xmlns:xlink="http://www.w3.org/1999/xlink" fill-rule="evenodd" height="1.98in" preserveAspectRatio="none" stroke-linecap="round" viewBox="0 0 1107 1980" width="1.107in">
<style type="text/css">
.brush0 { fill: rgb(255,255,255); }
.pen0 { stroke: rgb(0,0,0); stroke-width: 1; stroke-linejoin: round; }
.brush1 { fill: none; }
.pen1 { stroke: none; }
.brush2 { fill: rgb(0,0,0); }
</style>
<g>
<polygon class="pen1 brush2" points="503,784 507,783 522,792 546,809 578,831 614,857 654,884 696,909 737,930 775,944 810,950 838,944 858,925 867,889 865,835 849,760 817,662 819,663 823,669 829,677 838,689 849,704 861,722 875,743 890,767 906,794 923,823 941,854 958,887 976,923 993,961 1010,1000 1026,1041 1040,1080 1053,1119 1064,1160 1075,1202 1084,1246 1091,1289 1096,1334 1100,1379 1101,1435 1098,1491 1092,1547 1082,1604 1067,1660 1047,1717 1022,1773 992,1828 994,1819 999,1796 1005,1761 1011,1718 1015,1671 1017,1623 1015,1577 1007,1537 1007,1540 1005,1550 1002,1565 999,1584 993,1608 987,1635 978,1665 969,1696 957,1729 943,1763 928,1796 910,1829 891,1860 869,1889 844,1915 817,1938 822,1928 835,1900 853,1858 873,1805 893,1745 910,1681 920,1618 922,1558 920,1562 916,1572 909,1589 898,1611 885,1637 870,1667 852,1699 832,1734 809,1769 784,1805 757,1840 728,1874 698,1906 665,1935 631,1960 595,1980 597,1977 602,1968 611,1953 622,1933 635,1910 649,1882 664,1852 680,1819 696,1785 711,1749 725,1713 737,1678 747,1642 755,1608 759,1576 760,1547 758,1550 753,1560 744,1576 732,1596 717,1620 700,1648 680,1677 658,1708 633,1740 607,1772 580,1802 551,1830 521,1856 490,1879 458,1896 426,1909 428,1907 435,1899 446,1888 460,1872 476,1852 494,1829 514,1803 534,1773 554,1741 574,1707 592,1670 608,1631 622,1591 633,1549 640,1506 642,1463 640,1466 635,1475 626,1488 615,1505 601,1526 584,1549 566,1573 545,1599 523,1625 500,1651 475,1675 450,1698 424,1717 397,1733 371,1745 345,1752 347,1750 354,1744 364,1735 377,1722 393,1706 411,1686 430,1663 450,1637 470,1607 489,1575 508,1539 525,1501 540,1460 553,1416 562,1370 567,1321 568,1322 567,1326 565,1333 562,1342 557,1353 551,1366 544,1381 534,1397 523,1415 509,1433 494,1451 477,1470 457,1489 435,1507 411,1525 384,1542 387,1539 395,1532 406,1519 421,1500 439,1476 457,1446 476,1409 494,1367 510,1318 524,1263 535,1201 541,1132 542,1056 536,973 524,882 503,784 503,784"/>
<polygon class="pen1 brush2" points="134,152 134,153 131,154 123,155 108,156 94,159 84,166 77,177 74,189 73,203 75,218 80,232 87,244 106,269 122,295 134,321 145,344 153,365 158,381 161,392 162,396 169,460 182,516 199,565 221,607 246,643 273,673 302,698 331,718 360,734 388,747 414,756 437,762 457,766 472,769 482,770 485,770 427,716 381,668 346,626 321,589 304,557 294,531 290,508 292,490 297,475 306,463 316,455 327,448 337,444 346,442 352,440 354,440 329,461 315,481 310,500 312,517 318,533 328,546 338,557 347,565 369,575 389,581 409,583 427,583 444,580 460,575 474,569 487,561 498,552 508,543 516,534 522,526 527,519 530,513 531,509 530,507 537,538 536,561 530,578 521,588 510,594 500,597 492,598 489,598 482,611 473,619 464,623 456,623 448,622 441,619 437,617 435,616 426,628 415,634 405,636 395,635 386,633 379,629 374,626 372,625 387,647 407,670 430,694 458,718 488,743 520,768 553,792 587,815 620,837 652,857 682,876 709,892 733,905 753,916 767,923 776,926 795,930 812,930 825,927 836,922 844,914 850,904 852,893 851,879 837,793 817,716 792,647 763,586 730,532 695,485 658,444 620,409 583,380 547,355 513,334 482,317 455,304 433,293 417,284 408,277 399,264 390,249 382,231 374,211 365,191 356,170 346,150 335,130 322,111 308,94 292,80 274,69 253,62 230,58 203,60 174,67 162,73 153,81 145,92 140,104 136,117 134,129 133,141 134,152 134,152"/>
<polygon class="pen1 brush2" points="138,72 135,79 129,95 122,116 120,140 114,140 108,140 102,140 95,140 3,4 3,4 3,3 3,2 3,1 3,0 7,1 19,5 37,10 58,18 80,29 103,41 122,55 138,72 138,72"/>
<polygon class="pen1 brush2" points="87,146 82,147 78,148 74,150 70,151 67,154 63,157 60,161 56,166 54,162 48,149 40,132 30,109 20,85 11,61 4,37 0,17 87,146 87,146"/>
<polygon class="pen1 brush2" points="412,771 404,798 391,819 375,836 358,847 341,856 327,861 317,864 314,866 353,934 343,882 388,873 408,900 394,936 432,906 416,881 411,857 414,837 422,820 433,806 444,796 453,789 456,787 412,771"/>
<polygon class="pen1 brush0" points="362,273 366,278 373,285 383,293 395,302 410,312 426,322 443,334 461,345 479,356 497,367 513,377 529,387 542,396 553,403 562,409 567,413 573,419 576,427 578,434 578,441 575,447 569,451 561,454 549,454 540,452 526,448 510,442 490,435 468,427 445,419 419,411 393,403 367,397 340,391 314,388 288,387 264,389 242,394 223,403 206,416 204,414 204,410 205,401 208,390 214,375 223,357 235,336 252,311 254,304 253,297 249,290 243,282 236,273 228,262 220,249 213,234 209,219 207,208 208,200 211,193 216,187 223,182 232,176 242,169 254,152 257,134 255,119 253,113 267,112 280,117 294,130 308,149 321,173 335,202 348,236 362,273"/>
<polygon class="pen1 brush0" points="202,155 211,153 218,149 223,141 225,132 223,124 218,118 211,114 202,112 194,114 187,118 183,124 181,132 183,141 187,149 194,153 202,155"/>
</g>
</svg>
