<?xml version="1.0" encoding="UTF-8" standalone="no"?>
<!DOCTYPE svg PUBLIC "-//W3C//DTD SVG 1.0//EN" "http://www.w3.org/TR/2001/REC-SVG-20010904/DTD/svg10.dtd">
<svg xmlns="http://www.w3.org/2000/svg" xmlns:xlink="http://www.w3.org/1999/xlink" fill-rule="evenodd" height="1.127in" preserveAspectRatio="none" stroke-linecap="round" viewBox="0 0 1979 1127" width="1.979in">
<style type="text/css">
.brush0 { fill: rgb(255,255,255); }
.pen0 { stroke: rgb(0,0,0); stroke-width: 1; stroke-linejoin: round; }
.brush1 { fill: none; }
.pen1 { stroke: none; }
.brush2 { fill: rgb(0,0,0); }
</style>
<g>
<polygon class="pen1 brush2" points="560,1112 586,1108 614,1103 644,1099 676,1093 708,1087 741,1079 773,1070 804,1059 834,1046 861,1030 886,1012 907,990 924,965 937,937 944,905 945,868 947,868 953,868 963,869 976,868 991,868 1009,866 1029,863 1050,859 1044,866 1034,884 1020,908 1003,938 984,970 966,1001 949,1030 935,1054 940,1057 953,1065 973,1077 996,1090 1019,1104 1042,1116 1061,1124 1074,1127 1072,1127 1068,1126 1061,1125 1051,1123 1040,1121 1027,1119 1013,1117 998,1114 983,1112 968,1109 953,1106 939,1104 926,1101 914,1099 905,1097 897,1095 893,1095 882,1096 864,1097 841,1098 814,1100 784,1101 752,1103 720,1105 687,1106 656,1108 628,1109 603,1111 582,1112 568,1112 560,1112 560,1112 560,1112"/>
<polygon class="pen1 brush2" points="614,186 605,167 595,150 584,133 573,118 562,104 549,92 537,80 524,70 510,60 497,52 483,45 469,38 454,33 440,28 425,24 411,21 397,19 383,18 370,17 356,17 343,18 330,19 317,21 305,23 293,26 282,29 271,33 261,37 252,42 244,47 236,52 229,57 208,75 191,98 178,125 170,154 167,185 169,214 177,240 191,263 207,278 226,293 245,309 263,324 281,339 297,354 310,367 319,380 341,446 366,505 395,558 426,606 459,648 495,684 533,716 573,743 614,765 657,784 701,798 745,809 790,816 836,820 882,822 927,820 973,817 1017,811 1061,804 1104,795 1146,785 1186,774 1224,762 1261,750 1295,738 1327,725 1355,713 1381,702 1404,692 1424,683 1439,675 1451,669 1473,659 1501,649 1533,640 1568,631 1606,623 1647,615 1688,607 1729,599 1770,592 1809,586 1846,579 1879,573 1908,567 1932,561 1951,556 1962,551 1970,545 1975,539 1978,533 1979,527 1977,520 1973,512 1967,506 1962,500 1786,547 1783,540 1958,494 1965,476 1964,462 1957,453 1948,446 1770,493 1769,487 1944,439 1950,431 1952,423 1952,416 1949,409 1945,404 1940,399 1934,395 1929,392 1753,442 1750,433 1928,383 1933,375 1934,367 1933,360 1930,353 1925,347 1918,342 1909,339 1898,338 1888,339 1873,344 1852,350 1827,358 1799,368 1769,379 1737,390 1704,402 1672,415 1642,426 1613,437 1588,447 1566,455 1550,461 1540,466 1536,467 1552,483 1555,499 1546,516 1530,533 1508,549 1485,562 1462,574 1444,582 1374,609 1308,632 1245,653 1185,669 1129,683 1076,694 1026,703 979,709 935,712 894,713 855,712 819,710 786,705 755,699 726,692 700,683 676,673 653,662 633,651 615,639 599,626 584,614 571,601 559,588 549,575 540,563 532,552 526,541 520,531 516,521 512,514 509,507 497,466 499,433 512,408 531,390 553,377 573,368 588,364 594,363 561,384 540,406 528,430 525,454 527,477 535,499 545,519 556,537 576,562 597,584 620,604 644,621 669,636 695,649 722,660 750,668 779,675 808,681 837,684 867,686 896,687 925,687 954,686 983,683 1011,680 1038,676 1065,672 1090,667 1114,662 1137,657 1158,651 1178,646 1196,640 1212,636 1226,631 1238,627 1247,624 1254,621 1259,620 1260,619 1310,604 1354,590 1391,577 1422,564 1448,553 1469,542 1485,532 1498,523 1506,514 1512,507 1515,500 1516,494 1515,489 1512,484 1509,481 1505,478 1464,452 1424,428 1383,406 1343,385 1303,366 1264,349 1225,333 1186,319 1149,306 1111,294 1075,284 1039,274 1005,266 971,258 938,252 907,246 877,240 847,236 820,232 793,228 768,225 745,221 724,218 704,216 685,213 669,210 655,207 642,203 632,200 624,196 618,191 614,186 614,186"/>
<polygon class="pen1 brush2" points="175,44 127,210 0,146 121,129 40,17 175,44"/>
<polygon class="pen1 brush0" points="367,371 351,356 334,342 316,329 299,315 282,302 266,289 251,275 238,261 226,246 217,231 210,214 206,197 206,178 209,158 217,136 229,112 243,93 259,78 277,67 296,59 317,54 339,53 361,54 383,58 404,64 425,73 444,83 462,95 477,109 490,124 500,140 506,157 514,187 516,202 513,206 504,201 489,189 468,175 441,159 408,146 384,141 362,143 342,149 325,161 314,176 310,194 313,215 326,237 354,277 372,308 380,331 381,348 379,360 374,367 369,370 367,371"/>
<polygon class="pen1 brush2" points="299,150 308,148 316,143 321,135 323,125 321,116 316,108 308,103 299,101 289,103 281,108 275,116 273,125 275,135 281,143 289,148 299,150"/>
</g>
</svg>
