<?xml version="1.0" encoding="UTF-8" standalone="no"?>
<!DOCTYPE svg PUBLIC "-//W3C//DTD SVG 1.0//EN" "http://www.w3.org/TR/2001/REC-SVG-20010904/DTD/svg10.dtd">
<svg xmlns="http://www.w3.org/2000/svg" xmlns:xlink="http://www.w3.org/1999/xlink" fill-rule="evenodd" height="1.246in" preserveAspectRatio="none" stroke-linecap="round" viewBox="0 0 1966 1246" width="1.966in">
<style type="text/css">
.brush0 { fill: rgb(255,255,255); }
.pen0 { stroke: rgb(0,0,0); stroke-width: 1; stroke-linejoin: round; }
.brush1 { fill: none; }
.pen1 { stroke: none; }
.brush2 { fill: rgb(0,0,0); }
</style>
<g>
<polygon class="pen1 brush2" points="276,51 281,50 286,51 291,53 297,55 303,59 309,64 315,69 322,75 337,89 352,106 366,124 380,143 393,162 404,181 413,198 419,213 445,276 473,327 502,367 534,398 568,420 604,435 642,445 681,450 722,452 764,452 808,451 853,452 900,454 948,460 997,471 1047,487 1074,498 1099,511 1124,525 1148,540 1171,556 1193,573 1214,591 1235,610 1255,630 1275,650 1294,670 1312,691 1331,713 1349,734 1367,756 1385,778 1403,800 1421,822 1439,844 1458,865 1476,886 1495,907 1514,928 1534,947 1554,967 1575,985 1596,1002 1619,1019 1642,1035 1665,1049 1690,1063 1716,1075 1728,1080 1741,1085 1753,1090 1767,1094 1780,1099 1794,1103 1809,1106 1824,1109 1840,1112 1856,1113 1872,1114 1890,1115 1907,1114 1926,1112 1945,1110 1965,1106 1965,1106 1964,1109 1962,1113 1958,1118 1951,1125 1941,1131 1926,1137 1906,1143 1899,1145 1891,1147 1882,1148 1873,1150 1862,1151 1851,1151 1839,1152 1827,1152 1794,1152 1761,1149 1731,1145 1701,1140 1673,1133 1646,1124 1620,1114 1595,1103 1571,1090 1548,1077 1525,1063 1503,1047 1482,1031 1461,1015 1441,998 1421,980 1401,962 1382,944 1362,926 1343,908 1324,890 1305,872 1285,854 1266,836 1246,820 1225,803 1205,788 1183,773 1161,759 1139,746 1115,734 1091,723 1072,716 1053,710 1032,705 1011,700 989,697 967,694 944,691 921,689 897,688 873,687 849,686 825,685 800,684 776,683 752,683 728,681 703,680 680,679 656,676 633,674 611,671 588,667 567,662 546,656 526,650 507,642 488,634 471,624 455,613 439,600 425,586 412,571 386,532 362,492 341,452 323,414 307,378 293,346 280,320 269,301 258,287 249,275 241,264 235,253 231,242 229,229 228,214 230,196 234,170 239,142 244,113 250,86 255,73 260,63 267,55 276,51 276,51"/>
<polygon class="pen1 brush2" points="588,398 602,388 614,377 624,363 632,348 638,331 642,313 645,294 646,274 644,254 636,233 624,212 609,193 594,176 579,163 566,155 557,153 547,164 545,185 547,204 548,213 551,215 559,222 568,236 572,261 570,287 561,306 552,318 548,322 588,398 588,398"/>
<polygon class="pen1 brush2" points="395,585 324,538 324,543 324,554 319,567 308,578 295,583 280,587 264,590 247,593 230,595 213,595 196,594 180,591 164,589 153,590 148,594 147,600 151,610 158,622 170,637 185,655 194,662 205,667 218,671 233,673 250,674 267,673 285,670 303,666 321,661 337,654 353,646 366,636 378,625 387,613 393,600 395,585 395,585"/>
<polygon class="pen1 brush2" points="1217,555 1217,474 1220,476 1229,482 1244,491 1262,502 1284,513 1308,523 1333,532 1359,538 1382,541 1398,543 1407,541 1411,536 1408,528 1399,515 1384,498 1364,476 1342,453 1323,434 1306,417 1290,404 1275,393 1259,383 1242,374 1223,365 1197,357 1176,352 1158,351 1143,353 1132,357 1124,365 1120,374 1118,386 1120,400 1125,420 1132,442 1142,466 1153,489 1163,510 1174,526 1183,535 1217,555 1217,555"/>
<polygon class="pen1 brush2" points="1067,869 1075,862 1085,850 1096,834 1107,817 1118,801 1126,787 1132,778 1134,774 1013,743 1010,749 1002,765 990,789 978,817 967,848 958,879 954,907 956,929 961,938 968,945 978,952 990,957 1003,961 1017,965 1032,968 1047,970 1062,971 1076,972 1089,973 1101,973 1111,973 1118,973 1123,973 1124,973 1121,992 1119,1009 1120,1024 1122,1038 1126,1057 1133,1070 1139,1078 1144,1081 1150,1076 1156,1065 1161,1052 1165,1042 1169,1025 1172,994 1171,959 1165,929 1156,917 1143,906 1127,896 1110,887 1094,879 1080,874 1071,870 1067,869 1067,869"/>
<polygon class="pen1 brush2" points="530,179 548,128 595,162 604,60 578,102 581,30 557,79 536,0 528,88 490,33 510,121 466,109 530,179 530,179"/>
<polygon class="pen1 brush2" points="180,579 125,584 155,635 51,631 98,611 24,604 78,585 0,557 90,558 37,514 124,544 117,498 180,579 180,579"/>
<polygon class="pen1 brush2" points="1402,497 1438,545 1372,564 1474,639 1446,586 1523,615 1479,568 1571,567 1484,534 1560,503 1467,504 1513,471 1402,497 1402,497"/>
<polygon class="pen1 brush2" points="1109,1061 1040,1152 1091,1125 1051,1209 1109,1153 1104,1246 1144,1162 1166,1220 1173,1140 1209,1187 1183,1062 1139,1115 1109,1061"/>
<polygon class="pen1 brush0" points="345,214 355,212 363,207 369,199 371,190 369,180 363,172 355,167 345,165 336,167 328,172 323,180 321,190 323,199 328,207 336,212 345,214"/>
</g>
</svg>
