<?xml version="1.0" encoding="UTF-8" standalone="no"?>
<!DOCTYPE svg PUBLIC "-//W3C//DTD SVG 1.0//EN" "http://www.w3.org/TR/2001/REC-SVG-20010904/DTD/svg10.dtd">
<svg xmlns="http://www.w3.org/2000/svg" xmlns:xlink="http://www.w3.org/1999/xlink" fill-rule="evenodd" height="1.214in" preserveAspectRatio="none" stroke-linecap="round" viewBox="0 0 1987 1214" width="1.987in">
<style type="text/css">
.brush0 { fill: rgb(255,255,255); }
.pen0 { stroke: rgb(0,0,0); stroke-width: 1; stroke-linejoin: round; }
.brush1 { fill: none; }
.pen1 { stroke: none; }
.brush2 { fill: rgb(0,0,0); }
</style>
<g>
<polygon class="pen1 brush2" points="1186,318 1184,286 1178,254 1167,223 1153,195 1134,171 1110,151 1083,138 1051,131 1056,100 1065,76 1078,56 1095,40 1115,28 1138,18 1165,9 1193,0 1192,0 1170,3 1151,7 1133,11 1116,16 1101,22 1088,28 1076,35 1066,43 1057,51 1049,60 1043,70 1038,80 1033,91 1030,103 1028,115 1027,128 1015,125 1004,122 993,121 983,120 972,121 961,122 950,125 938,128 936,115 934,102 931,91 926,80 921,70 915,60 907,52 898,44 888,36 876,30 863,24 849,19 832,14 815,10 795,6 774,3 774,4 802,13 827,23 850,34 870,46 887,62 900,81 910,105 916,135 885,148 858,164 837,182 821,204 809,230 802,260 799,293 801,331 806,316 813,302 821,289 829,277 839,266 849,256 860,246 873,238 886,230 899,224 913,218 928,213 944,210 960,207 976,206 993,205 1008,205 1023,207 1038,209 1053,213 1067,217 1081,222 1095,228 1108,235 1121,243 1133,251 1144,260 1154,270 1164,281 1172,293 1180,305 1186,318 1186,318"/>
<polygon class="pen1 brush2" points="1163,179 1162,178 1158,174 1153,169 1147,161 1141,152 1137,142 1134,130 1135,118 1139,105 1147,91 1156,77 1167,64 1179,55 1190,49 1199,48 1207,53 1208,54 1209,55 1209,57 1209,58 1215,54 1222,51 1229,48 1236,44 1244,41 1253,37 1262,33 1273,28 1274,29 1275,32 1276,36 1276,37 1268,41 1260,45 1252,48 1244,52 1236,56 1228,60 1219,65 1210,71 1209,85 1204,102 1196,120 1187,138 1178,154 1171,167 1165,176 1163,179 1163,179"/>
<polygon class="pen1 brush2" points="794,190 792,186 785,177 777,162 767,145 757,126 749,108 744,91 743,77 730,69 720,63 710,58 701,53 693,49 685,45 677,42 668,37 668,36 670,32 672,29 673,28 686,34 698,39 708,44 717,48 725,53 733,57 740,62 747,67 748,66 749,64 749,63 750,62 758,58 767,59 778,66 790,76 800,88 810,102 817,116 821,129 822,141 819,152 815,163 810,172 804,179 799,185 795,189 794,190 794,190"/>
<polygon class="pen1 brush2" points="1219,378 1224,374 1238,364 1260,347 1289,325 1324,300 1363,271 1407,241 1453,209 1501,178 1549,148 1597,119 1643,94 1687,72 1727,55 1762,45 1791,41 1814,41 1836,42 1858,44 1879,47 1899,52 1918,57 1934,65 1949,74 1958,82 1965,92 1971,102 1976,113 1979,126 1980,140 1979,156 1976,173 1972,187 1967,203 1960,219 1952,236 1942,255 1930,275 1917,296 1902,318 1879,347 1854,371 1828,389 1801,404 1773,414 1744,422 1714,426 1683,429 1652,430 1620,430 1589,430 1557,430 1525,431 1493,433 1461,437 1430,443 1433,443 1441,443 1454,443 1470,443 1490,444 1512,444 1536,445 1561,445 1587,446 1613,447 1637,448 1660,449 1681,451 1699,452 1714,454 1724,456 1730,461 1731,469 1728,481 1720,495 1709,511 1694,529 1677,547 1656,565 1633,583 1608,599 1582,613 1554,625 1526,633 1496,638 1467,637 1438,632 1410,624 1383,616 1357,609 1334,601 1312,595 1291,588 1272,582 1255,577 1240,572 1227,568 1216,564 1206,561 1199,558 1193,557 1190,555 1189,555 1191,552 1196,544 1202,531 1209,512 1215,487 1219,457 1221,421 1219,378 1219,378"/>
<polygon class="pen1 brush2" points="1003,634 982,633 962,630 942,625 924,618 905,610 888,600 872,588 857,575 843,561 831,545 820,529 811,511 804,493 798,474 795,454 794,433 795,412 798,392 803,373 810,354 819,337 829,320 840,305 854,290 868,278 884,266 900,256 918,248 937,241 956,236 976,233 997,232 1017,233 1037,236 1056,241 1075,248 1092,256 1108,266 1124,278 1138,290 1151,305 1162,320 1172,337 1180,354 1187,373 1192,392 1195,412 1196,433 1195,454 1192,474 1188,493 1181,511 1173,529 1164,545 1153,561 1140,575 1127,588 1112,600 1096,610 1079,618 1061,625 1043,630 1023,633 1003,634 1003,634"/>
<polygon class="pen1 brush2" points="774,378 772,424 774,462 778,493 784,517 790,535 797,547 801,553 804,555 803,555 800,557 794,558 787,561 777,564 766,568 752,572 737,577 720,582 701,588 681,595 658,601 635,609 609,616 582,624 554,632 525,637 495,638 466,633 437,625 410,613 383,599 358,583 336,565 315,547 297,529 282,511 271,495 263,481 260,469 261,461 267,456 277,454 291,452 309,451 330,449 353,448 378,447 404,446 429,445 455,445 479,444 501,444 521,443 537,443 550,443 558,443 561,443 530,436 499,432 467,429 435,429 403,429 372,429 340,429 309,428 278,425 248,421 219,414 190,403 163,389 137,371 112,347 89,318 78,301 67,285 58,270 49,255 42,241 35,228 29,215 24,203 17,180 12,159 11,140 13,123 17,108 23,95 32,84 43,74 57,65 74,57 92,52 112,47 133,44 155,42 177,41 200,41 229,45 264,55 304,72 348,94 394,119 442,148 491,178 539,209 585,241 629,271 669,300 704,325 733,347 755,364 769,374 774,378 774,378"/>
<polygon class="pen1 brush2" points="1291,628 1295,634 1306,650 1322,673 1341,698 1361,723 1380,743 1396,755 1408,756 1411,754 1412,751 1414,748 1415,744 1486,824 1497,814 1419,726 1416,716 1412,705 1405,694 1397,682 1387,671 1377,660 1366,649 1355,639 1291,628 1291,628"/>
<polygon class="pen1 brush2" points="1236,639 1238,655 1245,690 1254,727 1264,747 1271,752 1281,760 1293,773 1304,792 1312,818 1315,852 1312,895 1300,949 1299,957 1301,967 1304,977 1309,987 1316,996 1324,1003 1332,1008 1341,1010 1341,1010 1375,1111 1391,1105 1355,1000 1360,975 1365,941 1369,902 1370,861 1368,821 1363,784 1352,754 1335,733 1313,715 1293,698 1276,683 1262,668 1251,656 1243,647 1238,641 1236,639 1236,639"/>
<polygon class="pen1 brush2" points="1139,589 1125,602 1111,613 1095,623 1078,631 1061,637 1042,642 1023,645 1003,646 983,645 962,642 942,638 922,631 903,624 886,614 869,604 855,592 844,601 834,612 823,625 813,639 803,654 794,672 785,692 777,713 1220,713 1212,690 1203,670 1193,652 1183,636 1173,621 1162,609 1150,598 1139,589 1139,589"/>
<polygon class="pen1 brush2" points="1236,815 1236,814 1235,813 1233,811 1230,807 1226,804 1220,799 1213,794 1203,788 1206,792 1212,804 1220,825 1227,857 770,857 777,825 786,804 792,792 795,788 786,794 778,799 772,804 768,807 764,811 762,813 761,814 761,815 763,797 765,779 767,763 770,747 1229,747 1230,754 1233,773 1235,795 1236,815 1236,815"/>
<polygon class="pen1 brush2" points="1230,889 1231,901 1232,912 1232,924 1232,937 1203,905 1205,919 1209,954 1210,1000 1203,1048 1200,1044 1193,1035 1184,1021 1176,1004 1176,1007 1177,1014 1178,1025 1178,1040 821,1040 821,1025 822,1014 822,1007 822,1004 813,1021 804,1035 798,1044 795,1048 788,1000 789,954 793,919 795,905 767,937 767,924 767,912 767,901 767,889 1230,889 1230,889"/>
<polygon class="pen1 brush2" points="1176,1072 1175,1080 1173,1088 1172,1096 1170,1104 1169,1105 1165,1105 1156,1099 1142,1082 1142,1091 1140,1114 1135,1144 1125,1176 1124,1178 1121,1181 1114,1179 1104,1165 1104,1165 1103,1165 1101,1166 1098,1168 1093,1173 1088,1181 1080,1193 1071,1209 1044,1186 1021,1214 1000,1193 977,1214 956,1186 929,1209 920,1193 912,1181 906,1173 902,1168 898,1166 896,1165 895,1165 895,1165 884,1179 877,1181 873,1178 872,1176 862,1144 857,1114 855,1091 855,1082 842,1099 834,1105 829,1105 828,1104 827,1096 826,1088 824,1080 824,1072 1176,1072 1176,1072"/>
<polygon class="pen1 brush2" points="712,628 649,639 638,649 626,660 616,671 607,682 599,693 592,705 588,716 585,726 507,814 517,824 589,744 590,748 592,751 593,754 595,756 607,755 623,743 642,723 662,698 681,673 697,650 708,634 712,628 712,628"/>
<polygon class="pen1 brush2" points="767,639 765,641 761,647 753,656 742,668 727,683 710,698 691,715 668,733 652,753 642,781 637,816 637,853 639,891 643,928 648,959 653,984 609,1102 628,1111 662,1010 662,1010 671,1008 679,1003 687,996 694,987 699,977 703,967 704,957 703,949 691,895 688,852 692,818 700,792 711,773 722,760 733,752 740,747 750,727 758,690 765,655 767,639"/>
<polygon class="pen1 brush0" points="915,197 923,196 930,191 934,185 936,176 934,167 930,160 923,155 915,153 906,155 899,160 894,167 892,176 894,185 899,191 906,196 915,197"/>
<polygon class="pen1 brush0" points="1064,193 1057,191 1050,186 1046,179 1044,170 1046,162 1050,155 1057,151 1064,149 1073,151 1080,155 1085,162 1087,170 1085,179 1080,186 1073,191 1064,193"/>
</g>
</svg>
