<?xml version="1.0" encoding="UTF-8" standalone="no"?>
<!DOCTYPE svg PUBLIC "-//W3C//DTD SVG 1.0//EN" "http://www.w3.org/TR/2001/REC-SVG-20010904/DTD/svg10.dtd">
<svg xmlns="http://www.w3.org/2000/svg" xmlns:xlink="http://www.w3.org/1999/xlink" fill-rule="evenodd" height="1.742in" preserveAspectRatio="none" stroke-linecap="round" viewBox="0 0 1980 1742" width="1.98in">
<style type="text/css">
.brush0 { fill: rgb(255,255,255); }
.pen0 { stroke: rgb(0,0,0); stroke-width: 1; stroke-linejoin: round; }
.brush1 { fill: none; }
.pen1 { stroke: none; }
.brush2 { fill: rgb(0,0,0); }
</style>
<g>
<polygon class="pen1 brush2" points="202,373 212,369 223,362 233,354 242,345 250,334 257,322 261,311 263,299 262,287 258,276 250,265 238,256 222,248 201,242 175,238 143,237 145,234 151,227 161,217 174,204 190,189 210,174 233,160 258,148 286,138 316,132 348,131 382,136 418,147 455,167 494,195 534,234 545,246 556,259 567,272 576,286 582,300 587,314 587,329 584,344 576,359 562,374 542,390 515,405 480,421 437,436 385,452 324,467 326,467 332,467 342,467 354,467 370,465 388,464 407,461 429,456 452,451 475,444 500,435 524,424 548,411 571,395 594,377 615,356 619,358 629,364 647,374 669,389 697,407 730,429 766,455 805,484 847,517 891,554 936,595 981,639 1027,686 1071,737 1115,791 1156,848 1156,848 1156,847 1154,845 1152,843 1148,839 1143,836 1135,831 1124,826 1111,819 1094,813 1074,805 1049,796 1020,787 987,776 948,765 903,753 912,755 928,761 951,771 979,783 1013,799 1049,816 1088,835 1129,856 1169,878 1209,900 1247,922 1282,944 1313,965 1339,985 1359,1004 1372,1020 1371,1022 1369,1026 1366,1033 1362,1041 1357,1050 1350,1059 1343,1067 1334,1074 1319,1077 1303,1081 1287,1084 1270,1087 1253,1090 1236,1092 1218,1095 1200,1097 1181,1099 1162,1100 1143,1101 1123,1102 1103,1103 1083,1103 1062,1102 1041,1102 1020,1101 999,1099 977,1097 955,1094 933,1091 911,1088 888,1083 865,1078 842,1073 819,1067 795,1060 772,1053 748,1045 724,1037 700,1027 676,1017 638,993 603,967 570,940 541,912 514,883 490,854 468,825 450,798 433,771 419,747 407,725 398,706 391,691 386,679 383,672 382,669 381,667 376,660 367,649 354,634 336,616 313,596 284,575 248,554 248,541 248,528 247,515 247,501 245,481 240,459 233,438 225,418 216,400 209,386 204,376 202,373 202,373"/>
<polygon class="pen1 brush2" points="1342,1098 1328,1101 1313,1104 1298,1108 1282,1111 1266,1113 1249,1116 1231,1118 1213,1121 1195,1123 1176,1124 1157,1126 1137,1127 1117,1127 1096,1127 1075,1127 1054,1126 1032,1125 1010,1123 987,1121 964,1118 941,1115 917,1111 894,1106 869,1100 845,1094 820,1087 795,1079 770,1071 745,1062 719,1051 693,1040 667,1028 665,1027 659,1023 649,1018 637,1009 622,998 604,985 584,968 563,949 540,926 515,901 491,872 465,841 440,806 414,767 390,725 366,679 353,658 340,639 325,623 310,609 295,597 279,587 264,578 250,571 256,639 266,703 279,762 295,816 314,866 334,912 355,953 377,990 399,1024 422,1053 443,1078 464,1100 483,1117 501,1132 515,1142 527,1149 567,1168 607,1184 646,1199 685,1212 724,1222 762,1231 799,1238 836,1244 872,1248 908,1251 943,1252 977,1252 1010,1252 1042,1250 1073,1247 1103,1244 1132,1240 1159,1235 1186,1230 1211,1224 1235,1218 1257,1212 1278,1206 1297,1200 1315,1195 1331,1189 1345,1184 1358,1179 1368,1175 1377,1171 1384,1168 1389,1166 1383,1157 1377,1147 1371,1138 1364,1129 1358,1120 1353,1112 1347,1105 1342,1098 1342,1098"/>
<polygon class="pen1 brush2" points="1204,1247 1209,1250 1222,1259 1243,1273 1270,1290 1302,1312 1339,1335 1378,1361 1420,1388 1462,1416 1503,1443 1544,1468 1581,1493 1615,1514 1644,1532 1667,1546 1683,1555 1706,1564 1726,1564 1743,1560 1757,1551 1768,1541 1776,1531 1781,1524 1783,1521 1802,1521 1818,1516 1833,1508 1846,1499 1856,1490 1863,1481 1867,1475 1869,1473 1885,1467 1898,1458 1908,1448 1916,1437 1921,1426 1925,1417 1926,1411 1927,1409 1943,1406 1955,1398 1964,1387 1971,1374 1976,1361 1978,1350 1980,1342 1980,1339 1373,1112 1385,1130 1395,1144 1403,1154 1409,1161 1413,1166 1415,1169 1417,1170 1417,1170 1408,1175 1400,1180 1392,1185 1383,1189 1374,1193 1365,1198 1355,1202 1344,1205 1331,1210 1318,1214 1304,1218 1287,1223 1269,1228 1250,1234 1228,1240 1204,1247 1204,1247"/>
<polygon class="pen1 brush2" points="756,1258 825,1258 865,1311 750,1578 895,1630 744,1620 575,1742 665,1637 476,1666 648,1602 476,1597 703,1568 818,1328 756,1258 756,1258"/>
<polygon class="pen1 brush2" points="240,298 222,303 204,309 188,314 173,319 158,324 144,329 130,334 117,340 104,346 91,352 78,360 65,367 51,376 37,385 22,395 7,406 14,404 21,401 30,399 39,397 49,395 60,393 71,391 83,389 96,386 109,383 123,379 137,375 152,370 167,365 183,358 199,351 212,344 222,337 230,330 236,323 240,317 241,310 242,304 240,298 240,298"/>
<polygon class="pen1 brush2" points="131,251 129,252 125,253 118,256 108,260 85,272 66,287 49,306 34,325 22,345 13,364 5,380 0,393 16,382 30,371 44,362 58,353 71,345 84,338 97,331 110,325 123,319 137,314 151,309 165,304 180,299 196,294 213,289 231,284 222,276 211,268 198,262 184,257 170,253 156,251 143,250 131,251"/>
<polygon class="pen1 brush0" points="301,270 307,269 313,267 318,264 322,260 326,255 329,249 330,243 331,237 330,231 329,225 326,220 322,215 318,211 313,208 307,207 301,206 294,207 288,208 283,211 278,215 274,220 271,225 269,231 268,237 269,243 271,249 274,255 278,260 283,264 288,267 294,269 301,270"/>
<polygon class="pen1 brush0" points="679,912 682,913 692,917 707,923 726,928 745,932 765,931 782,925 795,912 798,914 808,918 821,922 838,926 855,926 871,921 885,909 895,889 901,889 910,889 921,888 933,887 944,883 954,876 961,865 964,848 965,852 967,861 968,874 968,888 964,902 955,913 939,919 916,918 914,921 910,930 901,941 890,952 874,962 855,967 831,964 804,953 802,955 795,961 783,967 769,971 750,970 729,961 705,943 679,912"/>
</g>
</svg>
