<?xml version="1.0" encoding="UTF-8" standalone="no"?>
<!DOCTYPE svg PUBLIC "-//W3C//DTD SVG 1.0//EN" "http://www.w3.org/TR/2001/REC-SVG-20010904/DTD/svg10.dtd">
<svg xmlns="http://www.w3.org/2000/svg" xmlns:xlink="http://www.w3.org/1999/xlink" fill-rule="evenodd" height="1.314in" preserveAspectRatio="none" stroke-linecap="round" viewBox="0 0 1972 1314" width="1.972in">
<style type="text/css">
.brush0 { fill: rgb(255,255,255); }
.pen0 { stroke: rgb(0,0,0); stroke-width: 1; stroke-linejoin: round; }
.brush1 { fill: none; }
.pen1 { stroke: none; }
.brush2 { fill: rgb(0,0,0); }
</style>
<g>
<polygon class="pen1 brush2" points="1412,1112 1409,1112 1399,1112 1385,1113 1365,1113 1342,1113 1315,1113 1285,1112 1252,1111 1218,1110 1183,1108 1148,1105 1113,1101 1079,1097 1047,1092 1016,1085 989,1078 989,1087 987,1112 984,1147 978,1187 970,1227 958,1262 942,1287 922,1297 920,1297 916,1298 910,1298 902,1299 893,1301 883,1302 871,1303 858,1304 845,1305 831,1305 817,1306 803,1306 790,1305 777,1305 764,1303 753,1301 739,1298 726,1293 717,1287 712,1279 710,1269 713,1257 722,1243 737,1226 747,1212 758,1188 768,1156 772,1119 769,1079 753,1039 723,1000 675,966 647,950 623,932 600,914 580,895 563,875 547,856 534,837 522,818 511,800 503,782 495,766 488,752 483,739 478,728 473,719 469,713 456,699 442,686 428,675 412,665 396,656 379,649 361,643 343,637 325,633 306,631 287,629 268,628 249,629 230,630 211,633 193,636 163,642 137,645 113,645 93,643 76,639 61,633 49,626 39,617 32,608 28,598 25,588 25,577 27,567 30,558 36,549 43,541 26,479 64,470 80,528 105,524 88,466 118,462 138,520 139,521 143,524 150,528 158,533 168,538 180,543 193,546 208,548 223,547 238,543 254,536 270,525 286,508 302,487 317,459 331,425 331,423 332,417 333,407 334,395 333,381 332,365 330,348 326,331 319,315 310,299 299,284 284,272 265,263 243,257 216,255 185,257 144,311 118,294 144,247 127,231 88,277 60,257 94,214 92,212 86,206 78,197 68,185 58,171 48,155 39,137 33,118 31,107 30,95 31,83 34,71 39,60 46,48 55,37 67,26 78,18 90,12 101,7 113,5 124,4 135,5 147,7 158,10 182,20 204,34 226,50 246,66 264,83 280,97 293,108 303,114 317,119 334,126 351,134 369,142 387,150 403,158 417,164 428,169 429,169 434,168 440,168 449,167 459,167 471,167 485,167 499,168 514,170 530,173 546,176 562,181 578,187 593,194 608,203 621,214 619,202 620,185 626,163 638,135 641,138 648,147 657,161 668,179 678,200 686,224 690,249 689,274 692,279 701,288 715,299 732,313 752,329 773,347 792,366 810,386 813,386 820,385 832,383 848,381 868,378 892,375 919,372 949,369 982,365 1018,362 1056,358 1096,355 1137,352 1180,349 1224,347 1269,345 1314,344 1360,344 1405,344 1450,345 1495,347 1538,351 1581,355 1622,360 1661,367 1698,375 1733,385 1765,396 1794,408 1820,423 1842,439 1861,457 1880,480 1897,505 1911,530 1923,555 1933,582 1942,608 1949,634 1955,660 1960,690 1963,721 1964,752 1962,782 1958,813 1951,843 1942,873 1931,902 1919,927 1905,952 1889,977 1872,1001 1852,1024 1830,1047 1806,1069 1780,1091 1777,1096 1775,1104 1774,1115 1772,1128 1771,1143 1768,1158 1765,1175 1759,1192 1751,1209 1741,1225 1727,1239 1710,1252 1688,1263 1662,1272 1630,1277 1593,1278 1571,1278 1550,1278 1531,1278 1512,1278 1495,1278 1480,1278 1465,1278 1452,1278 1430,1277 1413,1275 1401,1272 1396,1267 1396,1261 1402,1252 1414,1240 1433,1226 1440,1221 1448,1216 1456,1211 1465,1205 1474,1199 1484,1193 1494,1186 1505,1179 1467,1114 1441,1043 1425,969 1419,892 1423,815 1435,739 1456,665 1483,595 1450,652 1425,714 1406,779 1394,846 1388,914 1389,982 1397,1048 1412,1112"/>
<polygon class="pen1 brush0" points="499,280 505,279 511,278 516,275 520,271 524,267 527,262 528,256 529,250 528,244 527,238 524,233 520,229 516,225 511,222 505,221 499,220 493,221 488,222 482,225 478,229 474,233 471,238 470,244 469,250 470,256 471,262 474,267 478,271 482,275 488,278 493,279 499,280"/>
<polygon class="pen1 brush0" points="114,77 121,82 129,88 137,93 146,98 154,103 163,106 171,108 178,109 177,110 173,113 168,116 162,120 155,123 147,124 139,123 132,119 122,107 116,93 114,82 114,77"/>
</g>
</svg>
