<?xml version="1.0" encoding="UTF-8" standalone="no"?>
<!DOCTYPE svg PUBLIC "-//W3C//DTD SVG 1.0//EN" "http://www.w3.org/TR/2001/REC-SVG-20010904/DTD/svg10.dtd">
<svg xmlns="http://www.w3.org/2000/svg" xmlns:xlink="http://www.w3.org/1999/xlink" fill-rule="evenodd" height="0.994in" preserveAspectRatio="none" stroke-linecap="round" viewBox="0 0 1969 994" width="1.969in">
<style type="text/css">
.brush0 { fill: rgb(255,255,255); }
.pen0 { stroke: rgb(0,0,0); stroke-width: 1; stroke-linejoin: round; }
.brush1 { fill: none; }
.pen1 { stroke: none; }
.brush2 { fill: rgb(0,0,255); }
.brush3 { fill: rgb(0,0,0); }
</style>
<g>
<polygon class="pen1 brush0" points="529,362 540,364 550,366 561,369 572,372 584,376 595,380 606,384 618,389 614,388 610,386 607,385 604,383 541,592 537,363 535,363 533,362 531,362 529,362"/>
<polygon class="pen1 brush2" points="327,480 329,475 331,470 333,466 335,463 333,466 331,471 329,475 327,480"/>
<polygon class="pen1 brush0" points="506,670 500,668 494,666 489,666 484,665 480,665 476,665 473,665 470,664 470,639 469,607 466,569 462,529 455,488 446,447 434,409 419,376 424,374 429,371 434,370 439,368 443,366 448,365 453,363 458,362 465,384 474,412 484,447 493,487 500,530 506,576 508,623 506,670"/>
<polygon class="pen1 brush0" points="729,836 722,832 714,828 707,824 699,820 692,815 685,811 679,806 672,801 682,757 695,709 709,659 724,609 738,561 752,519 763,485 771,460 776,462 780,464 785,466 790,467 777,505 766,551 757,601 749,653 742,705 736,755 732,799 729,836"/>
<polygon class="pen1 brush0" points="1421,833 1414,834 1408,834 1401,835 1395,835 1389,836 1382,837 1375,837 1368,838 1374,606 1421,833"/>
<polygon class="pen1 brush0" points="1807,852 1848,864 1878,864 1898,855 1909,840 1913,820 1911,798 1905,775 1895,755 1904,768 1912,779 1919,789 1925,799 1931,809 1937,818 1942,828 1948,839 1946,842 1936,854 1926,864 1916,872 1905,879 1894,884 1882,888 1870,891 1857,893 1851,886 1845,879 1840,873 1835,868 1830,863 1824,859 1816,855 1807,852"/>
<polygon class="pen1 brush0" points="1783,845 1779,844 1774,842 1770,841 1765,840 1761,839 1756,838 1752,837 1747,836 1754,809 1762,782 1770,755 1778,729 1786,704 1794,682 1801,661 1807,643 1813,650 1820,658 1828,665 1835,673 1828,694 1821,715 1814,738 1808,760 1801,782 1795,804 1789,825 1783,845"/>
<polygon class="pen1 brush0" points="1746,595 1745,616 1742,642 1736,669 1729,695 1722,719 1715,738 1710,749 1708,751 1679,610 1676,631 1670,676 1663,723 1659,748 1654,737 1647,715 1639,686 1630,651 1621,616 1613,581 1606,550 1600,525 1626,533 1649,540 1668,547 1685,554 1701,561 1715,570 1730,581 1746,595"/>
<polygon class="pen1 brush0" points="1442,498 1447,498 1451,498 1456,499 1461,499 1465,500 1470,500 1474,501 1479,501 1497,547 1513,593 1527,639 1539,684 1549,726 1557,764 1564,799 1570,828 1565,828 1559,828 1554,828 1549,828 1543,828 1538,828 1532,828 1527,828 1518,773 1508,722 1497,673 1485,629 1473,589 1462,553 1451,523 1442,498"/>
<polygon class="pen1 brush0" points="1206,498 1217,498 1227,498 1237,498 1246,498 1255,498 1264,498 1272,497 1280,497 1283,554 1288,630 1291,698 1293,730 1290,724 1282,703 1270,673 1257,636 1242,596 1228,558 1215,524 1206,498"/>
<polygon class="pen1 brush3" points="1857,893 1869,891 1880,888 1892,883 1903,877 1915,870 1926,861 1937,851 1948,839 1949,841 1951,846 1953,853 1956,862 1957,867 1959,872 1959,878 1959,885 1957,893 1952,900 1944,908 1932,916 1925,920 1918,923 1911,925 1904,925 1897,924 1891,922 1884,920 1878,916 1869,908 1863,901 1858,895 1857,893"/>
<polygon class="pen1 brush3" points="936,886 924,886 912,885 900,885 887,884 875,882 862,881 850,878 837,876 840,856 844,831 850,803 856,775 861,748 866,727 870,712 871,707 892,755 909,703 914,737 921,789 929,844 936,886"/>
<polygon class="pen1 brush3" points="1835,673 1843,682 1851,692 1859,702 1867,712 1874,722 1881,733 1888,744 1895,755 1905,775 1911,798 1913,820 1909,840 1898,855 1878,864 1848,864 1807,852 1801,850 1795,848 1789,846 1783,845 1788,825 1794,804 1800,783 1806,760 1813,738 1820,716 1827,694 1835,673"/>
<polygon class="pen1 brush3" points="1479,501 1494,503 1509,505 1524,507 1540,510 1555,514 1570,517 1585,521 1600,525 1606,550 1613,581 1622,616 1631,651 1640,686 1648,715 1655,737 1659,748 1663,723 1670,676 1676,631 1679,610 1708,751 1710,749 1715,738 1722,719 1729,695 1736,669 1742,642 1745,616 1746,595 1754,600 1762,606 1769,612 1777,617 1784,624 1792,630 1799,636 1807,643 1801,661 1795,682 1787,704 1779,729 1771,755 1763,782 1755,809 1747,836 1738,835 1728,834 1719,832 1709,832 1698,831 1688,830 1677,829 1666,829 1654,828 1643,828 1631,828 1619,827 1607,827 1595,827 1583,828 1570,828 1564,799 1557,765 1549,727 1539,684 1527,640 1513,594 1497,547 1479,501"/>
<polygon class="pen1 brush3" points="1097,498 1111,499 1124,499 1138,500 1152,500 1165,500 1179,500 1192,499 1206,498 1215,523 1228,556 1242,595 1257,635 1271,672 1282,703 1290,724 1293,730 1290,697 1285,629 1282,553 1280,497 1290,496 1299,496 1309,496 1319,495 1329,495 1339,495 1349,495 1360,495 1370,495 1380,495 1390,495 1401,496 1411,496 1421,497 1432,497 1442,498 1451,523 1462,553 1473,588 1485,628 1497,673 1508,721 1518,773 1527,828 1514,828 1501,829 1487,830 1474,830 1461,831 1447,832 1434,833 1421,833 1374,606 1368,838 1355,839 1343,840 1330,841 1318,842 1306,843 1294,844 1282,846 1270,847 1259,848 1247,849 1236,851 1226,852 1215,854 1205,855 1195,857 1185,858 1175,831 1164,798 1152,759 1140,715 1127,666 1116,614 1106,557 1097,498"/>
<polygon class="pen1 brush3" points="871,485 881,487 891,488 901,490 911,491 921,492 932,493 942,494 953,495 964,496 975,496 987,497 998,497 1010,498 1022,498 1034,498 1047,498 1051,522 1057,555 1066,596 1078,644 1092,696 1110,751 1129,807 1152,862 1142,863 1131,865 1121,866 1110,868 1099,870 1088,872 1077,873 1066,875 1055,877 1044,878 1033,880 1022,881 1010,882 999,883 987,884 976,885 968,852 960,803 952,745 945,684 938,626 933,577 930,544 929,531 892,639 888,615 882,572 875,525 871,485"/>
<polygon class="pen1 brush3" points="790,467 798,470 807,472 816,475 825,477 835,479 844,481 855,483 865,484 797,865 788,862 779,859 770,856 762,853 753,849 745,845 737,841 729,836 732,799 736,755 741,705 748,653 756,601 765,551 777,505 790,467"/>
<polygon class="pen1 brush3" points="736,447 740,449 744,450 748,452 752,454 756,456 761,457 766,459 771,460 763,485 752,520 739,562 724,609 709,659 695,709 682,757 672,801 662,793 652,785 642,777 632,768 621,759 611,749 601,739 591,728 595,712 602,688 611,656 624,619 642,578 666,534 697,490 736,447"/>
<polygon class="pen1 brush3" points="458,362 467,361 477,360 487,360 497,359 507,360 517,361 527,362 537,363 541,592 604,383 618,389 631,395 644,401 657,407 669,413 681,419 692,425 702,431 683,453 663,480 643,511 623,545 605,581 589,620 575,660 564,701 556,695 549,690 541,685 534,681 527,677 519,674 513,672 506,670 507,620 504,574 499,532 493,493 484,457 475,423 466,392 458,362"/>
<polygon class="pen1 brush3" points="372,413 364,392 354,367 342,340 328,311 312,281 294,249 274,218 253,186 229,156 203,127 175,99 146,75 114,53 80,35 45,20 7,11 7,9 7,6 7,2 7,1 10,2 17,3 28,6 44,11 63,18 85,27 110,41 137,58 165,79 195,106 226,139 258,177 289,222 320,275 350,335 379,404 384,400 389,396 394,392 399,388 404,385 409,382 414,379 419,376 436,411 448,450 457,492 463,534 467,575 469,611 470,642 470,664 462,671 450,678 437,685 421,688 405,688 387,682 369,669 351,647 338,627 327,604 319,581 315,556 315,530 320,503 330,475 345,447 331,426 316,404 300,383 283,361 264,340 245,319 225,300 204,281 181,263 158,247 134,232 109,219 83,208 56,200 29,193 0,190 0,188 0,183 0,179 0,177 2,177 8,178 18,179 31,181 47,185 66,190 87,198 111,208 137,222 164,239 193,260 224,285 255,316 287,351 319,393 351,440 356,432 361,426 366,419 372,413"/>
<polygon class="pen1 brush3" points="862,954 861,958 859,963 856,969 852,974 846,979 839,982 830,984 820,984 810,981 803,976 797,970 793,963 791,957 790,951 790,945 790,940 792,944 795,947 798,950 802,953 806,955 811,957 816,959 821,961 828,962 835,962 841,962 846,961 851,960 855,958 859,956 862,954"/>
<polygon class="pen1 brush3" points="644,812 643,814 639,819 634,826 628,836 622,848 616,860 612,873 610,886 607,874 602,846 602,812 612,781 644,812 644,812"/>
<polygon class="pen1 brush3" points="598,770 567,741 557,753 550,769 546,787 545,805 545,822 545,836 547,845 547,849 549,836 555,822 564,809 573,797 582,786 590,778 596,772 598,770 598,770"/>
<polygon class="pen1 brush3" points="554,728 552,730 546,735 537,742 527,751 516,762 505,774 496,786 490,798 490,795 491,786 494,774 497,759 502,743 509,727 518,712 529,700 554,728"/>
<polygon class="pen1 brush0" points="331,554 449,663 448,664 444,667 437,670 429,672 418,673 406,671 393,666 378,656 365,644 355,630 347,616 341,601 336,587 333,574 332,563 331,554"/>
<polygon class="pen1 brush3" points="1553,903 1553,908 1552,913 1550,920 1548,926 1543,932 1537,937 1529,941 1519,943 1508,942 1499,939 1493,935 1487,930 1484,925 1481,919 1480,914 1479,909 1482,911 1485,914 1489,916 1494,917 1499,918 1504,919 1510,920 1516,920 1522,920 1528,919 1534,917 1539,915 1543,913 1547,910 1550,907 1553,903 1553,903"/>
<polygon class="pen1 brush3" points="1460,858 1460,860 1461,867 1463,876 1466,886 1473,896 1482,905 1496,911 1514,913 1532,910 1545,903 1554,894 1560,883 1563,872 1564,862 1564,856 1564,853 1550,853 1536,853 1523,853 1510,853 1497,854 1485,855 1472,856 1460,858 1460,858"/>
<polygon class="pen1 brush3" points="1334,916 1334,921 1334,927 1333,933 1331,939 1327,946 1321,951 1313,955 1303,957 1293,957 1284,955 1277,952 1271,947 1267,942 1264,936 1261,931 1260,926 1264,928 1268,931 1272,933 1276,934 1281,935 1286,936 1292,936 1298,936 1305,935 1311,933 1316,931 1321,929 1325,926 1328,923 1331,920 1334,916 1334,916"/>
<polygon class="pen1 brush3" points="1240,876 1240,878 1241,885 1244,894 1248,904 1255,914 1265,922 1279,928 1297,929 1314,925 1327,917 1335,906 1340,895 1342,884 1343,875 1342,868 1342,866 1329,867 1317,868 1304,868 1292,869 1279,871 1266,872 1253,874 1240,876 1240,876"/>
<polygon class="pen1 brush3" points="1101,948 1101,953 1101,959 1100,965 1098,972 1094,978 1088,983 1080,987 1070,990 1060,990 1051,988 1044,985 1038,980 1034,974 1031,969 1028,963 1027,958 1031,961 1035,963 1039,965 1043,967 1048,968 1053,968 1059,968 1065,968 1072,967 1078,966 1083,964 1088,961 1092,958 1095,955 1098,952 1101,948 1101,948"/>
<polygon class="pen1 brush3" points="1006,909 1006,911 1007,918 1010,927 1015,937 1022,947 1032,955 1046,960 1064,961 1081,957 1094,949 1102,938 1107,927 1110,915 1110,905 1110,899 1110,896 1097,898 1084,900 1071,902 1059,904 1046,905 1033,907 1020,908 1006,909 1006,909"/>
<polygon class="pen1 brush3" points="786,886 799,891 812,896 824,900 837,902 849,905 861,906 874,908 887,909 887,911 885,918 881,927 876,936 868,945 857,952 842,956 824,954 807,948 796,939 789,928 785,916 784,905 784,895 785,888 786,886"/>
<polygon class="pen1 brush3" points="1962,893 1964,905 1965,921 1960,937 1950,946 1940,947 1932,946 1924,945 1918,942 1912,940 1907,937 1903,935 1899,933 1903,933 1907,933 1911,933 1916,933 1921,932 1926,931 1932,929 1938,927 1947,919 1954,911 1959,902 1962,893"/>
<polygon class="pen1 brush0" points="1962,893 1960,902 1955,911 1948,919 1938,927 1932,929 1927,931 1922,933 1917,934 1912,934 1908,934 1903,934 1899,933 1893,929 1887,925 1882,921 1878,916 1883,919 1889,921 1894,923 1901,924 1908,924 1915,923 1923,920 1932,916 1948,903 1956,889 1958,875 1956,862 1958,869 1959,877 1961,885 1962,893"/>
<polygon class="pen1 brush0" points="1185,858 1181,858 1176,859 1172,859 1168,860 1164,860 1160,861 1156,861 1152,862 1129,807 1110,751 1092,696 1078,644 1066,596 1057,555 1051,522 1047,498 1097,498 1106,557 1116,614 1127,666 1140,715 1152,759 1164,798 1175,831 1185,858"/>
<polygon class="pen1 brush0" points="976,885 971,885 966,885 961,885 956,885 951,886 946,886 941,886 936,886 929,844 921,789 914,737 909,703 892,755 871,707 870,712 866,727 861,748 856,775 850,803 844,831 840,856 837,876 832,875 827,874 822,872 817,871 812,869 807,868 802,866 797,865 865,484 867,484 868,484 869,484 871,485 876,524 882,571 888,613 892,639 929,531 930,544 933,577 938,626 945,684 952,745 960,803 968,852 976,885"/>
<polygon class="pen1 brush0" points="591,728 584,722 577,715 571,708 564,701 574,661 587,621 603,582 622,545 641,511 662,480 682,453 702,431 706,433 710,435 714,438 719,440 723,442 727,444 732,445 736,447 697,491 666,535 642,579 624,620 611,657 602,688 595,713 591,728"/>
</g>
</svg>
