<?xml version="1.0" encoding="UTF-8" standalone="no"?>
<!DOCTYPE svg PUBLIC "-//W3C//DTD SVG 1.0//EN" "http://www.w3.org/TR/2001/REC-SVG-20010904/DTD/svg10.dtd">
<svg xmlns="http://www.w3.org/2000/svg" xmlns:xlink="http://www.w3.org/1999/xlink" fill-rule="evenodd" height="0.904in" preserveAspectRatio="none" stroke-linecap="round" viewBox="0 0 1978 904" width="1.978in">
<style type="text/css">
.brush0 { fill: rgb(255,255,255); }
.pen0 { stroke: rgb(0,0,0); stroke-width: 1; stroke-linejoin: round; }
.brush1 { fill: none; }
.pen1 { stroke: none; }
.brush2 { fill: rgb(0,0,0); }
</style>
<g>
<polygon class="pen1 brush2" points="163,646 140,639 119,633 100,627 83,621 68,616 55,612 43,607 33,604 25,600 18,597 12,595 7,593 4,591 2,590 0,589 0,589 10,589 20,589 29,589 38,588 47,587 56,586 67,584 79,582 77,581 72,578 65,573 56,567 46,559 36,550 26,541 17,531 36,516 56,501 78,487 100,474 124,461 148,450 173,439 198,430 223,421 249,413 275,407 300,401 326,397 351,393 375,391 399,390 391,399 383,409 374,420 365,432 358,445 351,458 346,471 343,484 364,457 386,429 409,400 434,372 460,342 487,313 515,284 544,255 573,227 604,200 635,173 667,148 699,124 732,102 765,81 799,62 812,55 826,49 839,43 853,37 866,31 880,26 893,22 907,17 920,14 933,10 947,7 960,5 974,3 987,1 1001,0 1014,0 1003,33 990,65 977,98 962,131 947,163 930,195 913,227 894,258 874,289 854,319 832,348 810,376 786,403 762,429 737,454 711,477 726,468 742,457 757,447 773,436 788,424 802,413 817,401 831,390 834,390 841,390 853,390 868,390 887,391 908,391 931,391 955,391 980,392 1005,392 1030,392 1053,393 1075,393 1094,393 1110,393 1123,393 1127,390 1139,381 1156,369 1177,355 1202,341 1228,329 1254,319 1278,315 1279,316 1280,319 1284,323 1288,329 1294,336 1302,344 1311,352 1322,362 1335,371 1349,381 1365,392 1383,401 1404,411 1426,420 1450,429 1477,436 1479,434 1484,429 1491,420 1502,409 1515,396 1530,382 1547,366 1565,349 1585,332 1606,315 1627,299 1649,284 1671,270 1694,258 1716,249 1737,242 1718,266 1696,296 1672,329 1648,364 1626,401 1608,438 1596,474 1592,507 1595,509 1604,514 1618,522 1637,534 1660,548 1685,566 1714,585 1744,607 1776,632 1808,658 1840,686 1872,716 1902,748 1930,780 1956,814 1978,849 1977,849 1974,850 1969,850 1962,851 1954,851 1943,850 1931,849 1917,847 1901,843 1884,839 1864,833 1843,825 1821,815 1797,802 1771,788 1744,771 1731,762 1718,753 1704,744 1690,733 1676,722 1661,711 1647,698 1632,685 1616,672 1600,657 1584,642 1568,626 1552,609 1535,592 1518,573 1501,554 1499,554 1494,555 1486,556 1476,558 1463,560 1448,564 1432,568 1414,574 1395,582 1375,590 1355,601 1334,613 1314,627 1295,644 1276,662 1258,683 1251,679 1241,676 1228,672 1214,667 1199,662 1183,656 1168,649 1153,640 1152,640 1147,642 1141,644 1133,646 1122,649 1110,652 1098,656 1084,659 1069,663 1055,667 1040,670 1026,673 1012,675 999,677 987,679 977,679 981,680 993,684 1010,690 1031,696 1055,703 1080,710 1105,716 1127,720 1128,726 1131,743 1136,768 1141,798 1147,829 1154,859 1159,885 1164,904 1161,903 1153,899 1140,894 1123,886 1103,876 1079,865 1054,852 1026,837 997,822 967,805 938,787 909,768 881,749 854,728 830,708 809,687 776,688 743,688 710,688 678,688 645,688 613,688 581,688 549,687 517,686 484,684 452,682 420,680 388,678 356,675 324,671 292,667 294,666 298,663 303,659 309,655 314,651 318,647 321,645 322,644 298,640 289,647 278,652 265,655 251,657 234,657 214,655 190,651 163,646"/>
<polygon class="pen1 brush0" points="143,542 152,540 159,535 164,528 166,519 164,510 159,502 152,497 143,495 133,497 126,502 121,510 119,519 121,528 126,535 133,540 143,542"/>
<polygon class="pen1 brush0" points="318,515 337,522 357,529 377,535 397,540 418,545 440,550 462,553 486,556 510,559 535,561 561,563 589,564 617,565 647,565 678,565 711,564 745,563 781,561 819,559 858,557 899,554 942,551 987,548 1034,544 1083,540 1135,536 1189,531 1245,526 1304,521 1365,516 1429,510 1495,504 1446,522 1397,539 1349,555 1301,569 1254,583 1208,595 1162,606 1118,616 1073,625 1030,634 987,641 946,647 905,653 865,658 826,662 787,665 750,667 714,669 678,670 644,671 611,671 579,670 548,669 518,668 489,666 461,664 435,661 410,658 386,655 363,652 342,648 322,644 298,640 301,638 307,632 316,623 324,609 330,592 333,570 329,545 318,515"/>
</g>
</svg>
