<?xml version="1.0" encoding="UTF-8" standalone="no"?>
<!DOCTYPE svg PUBLIC "-//W3C//DTD SVG 1.0//EN" "http://www.w3.org/TR/2001/REC-SVG-20010904/DTD/svg10.dtd">
<svg xmlns="http://www.w3.org/2000/svg" xmlns:xlink="http://www.w3.org/1999/xlink" fill-rule="evenodd" height="0.884in" preserveAspectRatio="none" stroke-linecap="round" viewBox="0 0 1980 884" width="1.98in">
<style type="text/css">
.brush0 { fill: rgb(255,255,255); }
.pen0 { stroke: rgb(0,0,0); stroke-width: 1; stroke-linejoin: round; }
.brush1 { fill: none; }
.pen1 { stroke: none; }
.brush2 { fill: rgb(0,0,0); }
</style>
<g>
<polygon class="pen1 brush2" points="527,249 523,265 519,280 514,293 509,306 502,319 496,334 487,350 478,370 460,414 443,446 428,468 413,483 398,492 380,496 360,498 337,500 313,502 289,504 268,503 249,497 234,483 223,459 218,423 220,371 232,362 244,352 256,343 268,334 281,326 296,317 311,309 327,301 345,293 364,286 386,279 409,272 435,266 463,260 493,254 527,249 527,249"/>
<polyline class="pen0" fill="none" points="527,249 527,249 523,265 519,280 514,293 509,306 502,319 496,334 487,350 478,370 478,370 460,414 443,446 428,468 413,483 398,492 380,496 360,498 337,500 337,500 313,502 289,504 268,503 249,497 234,483 223,459 218,423 220,371 220,371 232,362 244,352 256,343 268,334 281,326 296,317 311,309 327,301 345,293 364,286 386,279 409,272 435,266 463,260 493,254 527,249 527,249"/>
<polygon class="pen1 brush2" points="1475,476 1472,432 1457,442 1442,452 1428,462 1414,471 1400,479 1387,487 1373,495 1360,503 1347,510 1334,517 1321,524 1308,531 1295,537 1282,544 1269,550 1256,557 1252,537 1245,516 1233,496 1219,477 1204,458 1187,441 1170,425 1154,412 946,553 967,536 989,517 1011,498 1033,477 1056,456 1079,433 1101,411 1124,388 1146,365 1169,342 1190,320 1212,297 1232,275 1252,254 1272,234 1290,215 1318,185 1343,165 1366,154 1386,152 1403,156 1418,167 1431,184 1442,205 1452,230 1460,258 1466,288 1472,319 1477,350 1482,381 1485,410 1489,436 1543,858 1545,864 1547,869 1550,874 1554,877 1559,880 1563,881 1568,882 1573,881 1582,879 1589,873 1594,864 1594,851 1540,412 1534,360 1530,303 1524,244 1516,188 1504,136 1486,91 1461,57 1428,37 1415,34 1400,33 1384,34 1367,37 1348,42 1328,50 1306,60 1283,73 1249,94 1212,118 1174,144 1134,171 1094,199 1055,227 1016,255 979,282 943,308 911,333 881,355 856,374 835,390 819,402 809,409 806,412 924,287 897,278 871,270 845,263 819,257 794,252 770,248 745,245 722,242 698,241 675,240 652,239 630,240 608,241 586,242 565,244 544,246 540,261 536,274 531,286 526,299 519,313 512,329 503,346 493,367 474,412 456,447 439,472 423,489 405,500 387,507 365,511 341,513 314,516 288,518 263,517 242,510 224,496 211,470 204,432 205,378 195,386 185,393 177,399 169,406 161,412 153,419 146,427 138,435 157,481 175,516 191,543 205,562 218,578 231,592 244,605 257,621 282,599 305,584 326,573 345,567 361,565 376,566 389,570 401,576 410,584 418,593 425,602 430,611 434,619 437,625 438,629 439,631 423,614 408,602 393,594 378,589 363,587 350,587 337,590 325,595 314,601 304,608 296,615 288,622 283,629 279,636 276,641 276,644 277,664 282,685 289,707 300,728 311,750 323,771 334,790 344,807 349,814 353,819 357,823 361,827 342,832 324,836 306,841 289,845 271,850 254,855 237,859 219,864 222,871 240,866 258,861 277,856 295,852 313,847 332,843 350,838 368,834 380,837 389,834 395,824 397,810 395,797 388,778 379,757 369,734 359,713 350,696 343,684 341,679 350,685 363,690 381,695 402,700 425,704 451,707 478,710 505,713 531,715 557,717 581,719 602,720 620,721 633,722 642,722 645,722 644,724 640,729 634,738 627,749 619,763 612,779 606,797 601,817 600,827 601,834 603,840 607,844 611,847 616,847 623,845 630,841 649,846 668,851 687,856 706,861 725,866 744,871 763,876 782,881 783,879 783,877 783,876 783,874 765,869 746,864 729,859 711,854 693,849 675,844 657,839 638,834 646,827 654,819 662,809 671,797 679,783 688,768 697,750 706,729 718,698 723,674 724,654 721,639 714,629 704,622 692,618 678,617 663,618 648,620 633,624 620,628 608,632 599,636 593,638 591,639 630,618 662,604 687,597 707,596 722,600 733,608 740,619 743,633 744,648 743,665 740,681 737,696 733,709 729,720 727,726 726,729 747,733 768,735 790,737 812,737 835,736 858,735 882,733 906,729 930,725 955,720 979,715 1004,708 1029,701 1055,693 1080,685 1105,676 1130,666 1155,656 1180,646 1205,634 1230,623 1254,611 1278,599 1302,586 1325,573 1348,560 1371,546 1393,532 1414,518 1435,504 1455,490 1475,476 1475,476"/>
<polyline class="pen0" fill="none" points="1475,476 1472,432 1472,432 1457,442 1442,452 1428,462 1414,471 1400,479 1387,487 1373,495 1360,503 1347,510 1334,517 1321,524 1308,531 1295,537 1282,544 1269,550 1256,557 1256,557 1252,537 1245,516 1233,496 1219,477 1204,458 1187,441 1170,425 1154,412 946,553 946,553 967,536 989,517 1011,498 1033,477 1056,456 1079,433 1101,411 1124,388 1146,365 1169,342 1190,320 1212,297 1232,275 1252,254 1272,234 1290,215 1290,215 1318,185 1343,165 1366,154 1386,152 1403,156 1418,167 1431,184 1442,205 1452,230 1460,258 1466,288 1472,319 1477,350 1482,381 1485,410 1489,436 1543,858 1543,858 1545,864 1547,869 1550,874 1554,877 1559,880 1563,881 1568,882 1573,881 1573,881 1582,879 1589,873 1594,864 1594,851 1540,412 1540,412 1534,360 1530,303 1524,244 1516,188 1504,136 1486,91 1461,57 1428,37 1428,37 1415,34 1400,33 1384,34 1367,37 1348,42 1328,50 1306,60 1283,73 1283,73 1249,94 1212,118 1174,144 1134,171 1094,199 1055,227 1016,255 979,282 943,308 911,333 881,355 856,374 835,390 819,402 809,409 806,412 924,287 924,287 897,278 871,270 845,263 819,257 794,252 770,248 745,245 722,242 698,241 675,240 652,239 630,240 608,241 586,242 565,244 544,246 544,246 540,261 536,274 531,286 526,299 519,313 512,329 503,346 493,367 493,367 474,412 456,447 439,472 423,489 405,500 387,507 365,511 341,513 341,513 314,516 288,518 263,517 242,510 224,496 211,470 204,432 205,378 205,378 195,386 185,393 177,399 169,406 161,412 153,419 146,427 138,435 138,435 157,481 175,516 191,543 205,562 218,578 231,592 244,605 257,621 257,621 282,599 305,584 326,573 345,567 361,565 376,566 389,570 401,576 410,584 418,593 425,602 430,611 434,619 437,625 438,629 439,631 439,631 423,614 408,602 393,594 378,589 363,587 350,587 337,590 325,595 314,601 304,608 296,615 288,622 283,629 279,636 276,641 276,644 276,644 277,664 282,685 289,707 300,728 311,750 323,771 334,790 344,807 344,807 349,814 353,819 357,823 361,827 361,827 342,832 324,836 306,841 289,845 271,850 254,855 237,859 219,864 222,871 222,871 240,866 258,861 277,856 295,852 313,847 332,843 350,838 368,834 368,834 380,837 389,834 395,824 397,810 397,810 395,797 388,778 379,757 369,734 359,713 350,696 343,684 341,679 341,679 350,685 363,690 381,695 402,700 425,704 451,707 478,710 505,713 531,715 557,717 581,719 602,720 620,721 633,722 642,722 645,722 645,722 644,724 640,729 634,738 627,749 619,763 612,779 606,797 601,817 601,817 600,827 601,834 603,840 607,844 611,847 616,847 623,845 630,841 630,841 649,846 668,851 687,856 706,861 725,866 744,871 763,876 782,881 782,881 783,879 783,877 783,876 783,874 783,874 765,869 746,864 729,859 711,854 693,849 675,844 657,839 638,834 638,834 646,827 654,819 662,809 671,797 679,783 688,768 697,750 706,729 706,729 718,698 723,674 724,654 721,639 714,629 704,622 692,618 678,617 663,618 648,620 633,624 620,628 608,632 599,636 593,638 591,639 591,639 630,618 662,604 687,597 707,596 722,600 733,608 740,619 743,633 744,648 743,665 740,681 737,696 733,709 729,720 727,726 726,729 726,729 747,733 768,735 790,737 812,737 835,736 858,735 882,733 906,729 930,725 955,720 979,715 1004,708 1029,701 1055,693 1080,685 1105,676 1130,666 1155,656 1180,646 1205,634 1230,623 1254,611 1278,599 1302,586 1325,573 1348,560 1371,546 1393,532 1414,518 1435,504 1455,490 1475,476 1475,476"/>
<polygon class="pen1 brush2" points="1554,384 1577,368 1601,353 1626,338 1652,323 1677,309 1704,296 1731,284 1758,274 1786,264 1813,257 1841,251 1869,248 1897,246 1925,247 1952,251 1980,257 1978,257 1971,259 1960,261 1944,264 1926,268 1903,274 1878,280 1850,289 1819,299 1786,311 1752,324 1715,340 1677,358 1638,378 1598,400 1558,425 1554,384 1554,384"/>
<polyline class="pen0" fill="none" points="1554,384 1554,384 1577,368 1601,353 1626,338 1652,323 1677,309 1704,296 1731,284 1758,274 1786,264 1813,257 1841,251 1869,248 1897,246 1925,247 1952,251 1980,257 1980,257 1978,257 1971,259 1960,261 1944,264 1926,268 1903,274 1878,280 1850,289 1819,299 1786,311 1752,324 1715,340 1677,358 1638,378 1598,400 1558,425 1554,384 1554,384"/>
<polygon class="pen1 brush2" points="63,519 50,490 40,462 34,435 32,409 34,384 38,360 46,338 57,316 66,301 76,287 88,273 101,259 115,246 130,233 146,221 163,209 180,198 199,187 218,176 239,166 260,156 281,147 303,138 326,129 349,121 372,113 396,105 420,98 444,91 469,84 493,78 518,72 543,67 568,62 592,57 617,52 641,48 665,44 689,40 712,37 735,34 757,31 779,29 800,27 820,25 840,23 859,22 877,20 895,20 911,19 927,18 942,18 955,18 968,18 980,19 990,19 989,6 976,5 962,4 948,4 933,3 917,3 901,4 884,4 867,5 849,6 831,7 813,8 794,10 775,12 755,15 735,17 715,20 690,24 665,27 639,32 613,36 587,41 561,47 536,53 510,59 484,65 458,72 433,79 408,87 383,95 358,103 334,112 310,121 287,130 265,140 243,151 221,161 201,172 181,183 162,195 144,207 127,220 111,233 95,246 81,260 68,274 57,288 46,303 37,318 26,342 18,367 13,394 12,421 14,449 20,479 31,509 46,540 39,558 35,576 35,594 37,612 41,629 48,647 57,663 67,679 80,694 93,707 108,719 123,729 139,737 154,743 170,746 185,747 199,746 212,741 224,733 234,722 242,707 248,688 251,665 252,638 235,623 216,603 197,580 179,553 161,526 146,498 133,471 124,445 111,458 100,470 90,481 83,490 77,498 72,506 67,512 63,519"/>
<polyline class="pen0" fill="none" points="63,519 63,519 50,490 40,462 34,435 32,409 34,384 38,360 46,338 57,316 57,316 66,301 76,287 88,273 101,259 115,246 130,233 146,221 163,209 180,198 199,187 218,176 239,166 260,156 281,147 303,138 326,129 349,121 372,113 396,105 420,98 444,91 469,84 493,78 518,72 543,67 568,62 592,57 617,52 641,48 665,44 689,40 712,37 712,37 735,34 757,31 779,29 800,27 820,25 840,23 859,22 877,20 895,20 911,19 927,18 942,18 955,18 968,18 980,19 990,19 989,6 989,6 976,5 962,4 948,4 933,3 917,3 901,4 884,4 867,5 849,6 831,7 813,8 794,10 775,12 755,15 735,17 715,20 715,20 690,24 665,27 639,32 613,36 587,41 561,47 536,53 510,59 484,65 458,72 433,79 408,87 383,95 358,103 334,112 310,121 287,130 265,140 243,151 221,161 201,172 181,183 162,195 144,207 127,220 111,233 95,246 81,260 68,274 57,288 46,303 37,318 37,318 26,342 18,367 13,394 12,421 14,449 20,479 31,509 46,540 46,540 39,558 35,576 35,594 37,612 41,629 48,647 57,663 67,679 67,679 80,694 93,707 108,719 123,729 139,737 154,743 170,746 185,747 199,746 212,741 224,733 234,722 242,707 248,688 251,665 252,638 252,638 235,623 216,603 197,580 179,553 161,526 146,498 133,471 124,445 124,445 111,458 100,470 90,481 83,490 77,498 72,506 67,512 63,519"/>
<polygon class="pen1 brush0" points="118,598 128,596 136,591 142,583 144,574 142,564 136,555 128,549 118,547 108,549 100,555 95,564 93,574 95,583 100,591 108,596 118,598"/>
</g>
</svg>
