<?xml version="1.0" encoding="UTF-8" standalone="no"?>
<!DOCTYPE svg PUBLIC "-//W3C//DTD SVG 1.0//EN" "http://www.w3.org/TR/2001/REC-SVG-20010904/DTD/svg10.dtd">
<svg xmlns="http://www.w3.org/2000/svg" xmlns:xlink="http://www.w3.org/1999/xlink" fill-rule="evenodd" height="1.98in" preserveAspectRatio="none" stroke-linecap="round" viewBox="0 0 1979 1980" width="1.979in">
<style type="text/css">
.brush0 { fill: rgb(255,255,255); }
.pen0 { stroke: rgb(0,0,0); stroke-width: 1; stroke-linejoin: round; }
.brush1 { fill: none; }
.pen1 { stroke: none; }
.brush2 { fill: rgb(0,0,0); }
</style>
<g>
<polygon class="pen1 brush2" points="205,422 219,348 217,348 212,350 204,352 194,355 181,359 167,364 151,371 134,379 116,388 97,399 79,412 61,426 44,443 28,461 13,481 0,503 0,503 11,496 22,489 32,483 43,476 54,470 65,464 77,459 88,454 103,449 117,444 132,439 147,435 162,431 176,428 191,425 205,422 205,422"/>
<polygon class="pen1 brush2" points="158,513 158,546 163,578 172,606 185,627 200,638 215,636 229,617 242,579 243,571 241,562 238,553 235,544 230,535 224,525 218,516 212,507 158,513 158,513"/>
<polygon class="pen1 brush2" points="205,328 191,303 183,279 178,258 177,237 179,217 184,198 189,179 196,159 197,162 201,173 209,191 221,219 222,212 228,195 240,172 255,145 273,117 292,90 310,66 327,48 324,54 321,72 321,100 323,138 324,131 331,119 344,103 360,83 379,63 398,43 418,25 436,10 434,17 431,37 427,67 425,104 428,101 438,93 452,82 470,67 490,50 512,33 535,16 557,0 554,9 548,32 541,63 537,96 540,94 549,88 562,79 579,69 599,59 620,50 642,44 664,40 660,43 651,53 636,68 619,88 601,111 584,137 570,166 559,196 560,198 565,202 572,210 582,221 592,235 604,252 616,272 627,294 637,320 646,348 652,380 655,414 654,450 649,490 639,532 624,577 619,595 619,612 622,629 630,645 641,660 655,675 673,688 693,700 716,711 742,721 769,729 798,736 829,741 862,744 895,745 930,743 965,740 1000,734 1036,726 1071,715 1106,702 1141,686 1175,667 1207,644 1239,619 1269,590 1297,558 1323,522 1346,483 1367,440 1386,393 1401,342 1414,298 1431,257 1450,221 1473,189 1499,162 1528,140 1560,123 1595,111 1633,104 1674,104 1718,110 1765,122 1814,140 1866,166 1921,198 1979,238 1973,237 1964,234 1950,232 1933,229 1913,226 1892,223 1868,222 1844,221 1820,223 1795,226 1771,231 1748,239 1727,250 1709,264 1693,282 1681,304 1683,304 1687,303 1695,302 1705,301 1717,301 1731,301 1747,303 1764,306 1782,311 1801,318 1819,328 1838,341 1857,357 1875,376 1892,399 1908,427 1906,426 1902,423 1894,419 1884,414 1871,409 1857,403 1841,398 1823,393 1804,389 1785,387 1764,386 1744,388 1723,392 1703,399 1683,409 1664,423 1669,422 1684,423 1704,427 1727,438 1749,458 1769,491 1783,540 1787,606 1787,609 1786,604 1781,595 1772,582 1755,568 1730,556 1694,546 1645,541 1649,544 1657,552 1669,565 1680,584 1687,607 1689,634 1682,665 1664,700 1661,696 1650,681 1634,663 1616,646 1599,638 1584,644 1575,671 1574,726 1575,728 1576,735 1578,745 1581,760 1584,777 1587,798 1590,822 1592,848 1595,877 1596,908 1596,940 1596,974 1594,1009 1590,1045 1585,1081 1577,1118 1568,1155 1556,1192 1542,1228 1524,1263 1504,1298 1481,1330 1454,1362 1423,1391 1389,1418 1351,1442 1308,1464 1261,1483 1210,1498 1153,1510 1092,1517 1025,1521 961,1521 900,1520 843,1518 788,1514 736,1508 687,1500 642,1491 599,1480 558,1468 521,1454 486,1438 454,1421 425,1401 398,1380 374,1357 352,1332 333,1306 316,1278 302,1247 290,1215 280,1181 273,1145 268,1107 265,1067 264,1025 266,981 269,935 274,887 282,836 291,784 303,730 316,673 317,660 315,647 309,633 301,619 291,604 280,588 269,570 258,550 248,529 239,506 233,481 229,453 229,423 233,390 242,354 256,314 205,328 205,328"/>
<polygon class="pen1 brush2" points="1255,1855 1254,1853 1248,1850 1240,1847 1229,1842 1215,1838 1200,1832 1183,1827 1166,1821 1148,1815 1131,1809 1114,1803 1098,1797 1084,1791 1072,1786 1062,1781 1056,1777 1051,1762 1052,1734 1057,1698 1066,1658 1076,1620 1085,1587 1091,1564 1094,1555 1077,1558 1060,1560 1043,1561 1028,1562 1015,1562 1005,1561 998,1561 996,1561 1000,1583 1001,1610 1000,1639 997,1669 993,1699 987,1727 981,1751 975,1769 968,1776 954,1782 934,1787 910,1791 882,1795 852,1798 820,1801 788,1803 756,1805 727,1807 700,1809 678,1811 661,1813 650,1815 647,1818 652,1821 655,1821 662,1822 672,1823 684,1824 698,1825 713,1826 729,1828 746,1829 762,1830 778,1831 793,1832 806,1833 817,1834 826,1834 831,1835 833,1835 820,1840 805,1846 789,1852 772,1858 754,1864 737,1871 720,1878 704,1884 688,1890 674,1896 661,1901 651,1906 643,1910 638,1913 636,1915 637,1916 904,1859 780,1980 1032,1845 1255,1855 1255,1855"/>
<polygon class="pen1 brush2" points="212,490 17,506 26,500 36,495 45,489 54,484 63,480 72,475 82,471 91,467 105,462 119,457 133,452 148,448 162,444 177,440 191,436 205,433 205,446 206,457 208,471 212,490"/>
<polygon class="pen1 brush0" points="346,396 358,394 367,388 373,379 375,368 373,356 367,347 358,340 346,338 335,340 326,347 319,356 317,368 319,379 326,388 335,394 346,396"/>
<polygon class="pen1 brush0" points="763,1184 772,1184 784,1184 798,1184 813,1183 830,1183 849,1182 870,1181 891,1180 914,1179 938,1177 963,1176 989,1174 1015,1171 1042,1168 1069,1165 1096,1161 1123,1157 1151,1153 1178,1148 1205,1142 1231,1136 1256,1130 1281,1123 1305,1115 1328,1107 1349,1098 1369,1088 1388,1078 1405,1067 1420,1056 1434,1043 1445,1030 1455,1015 1461,1001 1464,988 1463,977 1458,967 1451,958 1440,950 1427,943 1411,938 1392,933 1372,930 1349,927 1324,926 1298,926 1270,927 1240,929 1242,928 1247,927 1255,924 1265,922 1278,919 1292,916 1309,913 1327,911 1345,910 1365,909 1385,911 1405,913 1424,918 1443,925 1462,934 1479,946 1482,949 1485,953 1487,958 1489,964 1491,971 1492,978 1492,986 1491,995 1490,1004 1487,1014 1482,1024 1476,1034 1469,1045 1460,1056 1449,1066 1436,1077 1420,1088 1403,1099 1383,1110 1360,1120 1335,1130 1306,1140 1275,1149 1241,1158 1203,1166 1162,1174 1118,1181 1069,1187 1017,1192 961,1196 901,1200 837,1202 809,1202 790,1200 776,1197 768,1193 764,1190 763,1187 763,1185 763,1184"/>
</g>
</svg>
