<?xml version="1.0" encoding="UTF-8" standalone="no"?>
<!DOCTYPE svg PUBLIC "-//W3C//DTD SVG 1.0//EN" "http://www.w3.org/TR/2001/REC-SVG-20010904/DTD/svg10.dtd">
<svg xmlns="http://www.w3.org/2000/svg" xmlns:xlink="http://www.w3.org/1999/xlink" fill-rule="evenodd" height="2.315in" preserveAspectRatio="none" stroke-linecap="round" viewBox="0 0 2143 2315" width="2.143in">
<style type="text/css">
.brush0 { fill: rgb(255,255,255); }
.pen0 { stroke: rgb(0,0,0); stroke-width: 1; stroke-linejoin: round; }
.brush1 { fill: none; }
.pen1 { stroke: none; }
.brush2 { fill: rgb(0,0,0); }
</style>
<g>
<polygon class="pen1 brush2" points="686,1780 689,1782 697,1788 711,1796 729,1807 752,1820 779,1834 809,1849 843,1863 879,1877 917,1890 958,1900 1000,1908 1043,1913 1087,1914 1132,1911 1176,1902 1179,1904 1187,1910 1201,1918 1219,1928 1241,1939 1267,1951 1297,1962 1329,1971 1364,1979 1401,1984 1440,1985 1479,1982 1520,1973 1561,1959 1602,1937 1642,1908 1644,1909 1648,1914 1656,1920 1666,1928 1680,1938 1697,1949 1717,1961 1740,1973 1766,1986 1795,1998 1828,2009 1863,2019 1902,2027 1944,2033 1989,2038 2037,2039 2045,2039 2052,2040 2060,2042 2068,2045 2075,2048 2083,2051 2090,2055 2098,2060 2105,2065 2111,2071 2117,2077 2123,2083 2127,2090 2132,2096 2135,2104 2138,2111 2140,2126 2138,2142 2132,2157 2121,2173 2113,2180 2103,2188 2091,2195 2078,2202 2063,2209 2046,2215 2028,2221 2007,2227 1966,2237 1930,2244 1898,2249 1869,2252 1844,2253 1822,2252 1803,2250 1785,2246 1770,2241 1756,2236 1743,2230 1731,2224 1720,2217 1708,2211 1696,2205 1683,2199 1670,2193 1658,2187 1646,2182 1635,2176 1623,2172 1612,2168 1600,2165 1587,2164 1573,2164 1558,2165 1541,2169 1523,2174 1503,2182 1481,2193 1456,2206 1429,2222 1401,2238 1373,2251 1346,2261 1320,2268 1295,2273 1271,2276 1247,2276 1224,2275 1202,2272 1180,2268 1159,2263 1139,2257 1119,2250 1100,2243 1082,2235 1064,2227 1047,2219 1031,2212 1015,2205 1000,2199 984,2193 968,2188 950,2184 931,2182 910,2181 887,2181 861,2184 832,2188 799,2194 763,2203 722,2214 676,2227 662,2231 647,2234 631,2236 615,2237 599,2238 581,2237 564,2236 546,2233 528,2230 510,2227 491,2222 473,2216 454,2210 436,2203 417,2195 399,2186 383,2178 368,2169 352,2160 337,2150 322,2140 308,2129 294,2117 281,2105 268,2092 255,2078 244,2064 233,2050 222,2035 213,2019 204,2003 196,1986 188,1964 181,1941 175,1918 169,1894 165,1870 162,1846 161,1821 160,1797 161,1768 163,1739 167,1709 172,1681 178,1652 186,1625 195,1597 206,1571 217,1545 230,1521 244,1498 260,1476 276,1455 294,1436 312,1418 332,1402 331,1399 329,1391 327,1380 326,1368 327,1356 332,1345 341,1337 355,1334 368,1335 378,1339 384,1346 386,1355 386,1366 382,1380 376,1396 368,1415 355,1437 336,1469 316,1509 300,1555 292,1606 298,1661 321,1717 368,1773 397,1799 425,1820 452,1837 477,1850 502,1860 525,1866 546,1869 567,1869 586,1866 604,1860 621,1852 636,1841 651,1829 664,1814 675,1798 686,1780 686,1780"/>
<polygon class="pen1 brush2" points="686,1747 689,1749 697,1754 709,1762 727,1773 748,1786 773,1799 802,1814 834,1828 868,1842 905,1855 943,1866 984,1875 1026,1881 1068,1883 1112,1881 1155,1875 1136,1853 1118,1827 1100,1796 1085,1761 1072,1722 1062,1678 1056,1628 1055,1574 1058,1541 1065,1509 1076,1479 1090,1452 1106,1426 1126,1402 1148,1381 1172,1361 1198,1344 1225,1329 1254,1316 1284,1305 1314,1297 1345,1291 1375,1287 1406,1286 1434,1288 1461,1293 1487,1301 1512,1312 1535,1326 1557,1342 1577,1360 1596,1379 1613,1401 1628,1424 1641,1448 1652,1472 1660,1498 1667,1524 1671,1549 1672,1575 1671,1602 1667,1627 1660,1650 1652,1671 1641,1691 1629,1709 1615,1725 1600,1739 1583,1752 1565,1762 1546,1771 1527,1778 1507,1784 1487,1788 1466,1790 1446,1790 1430,1789 1414,1785 1398,1780 1382,1774 1367,1766 1352,1756 1337,1746 1324,1734 1311,1721 1300,1707 1290,1693 1282,1677 1275,1661 1270,1645 1268,1628 1267,1611 1269,1594 1273,1578 1279,1563 1287,1549 1296,1535 1306,1523 1318,1511 1331,1500 1344,1491 1358,1482 1372,1475 1386,1469 1400,1464 1413,1460 1427,1457 1439,1456 1463,1458 1487,1465 1509,1477 1530,1493 1547,1511 1561,1532 1570,1553 1574,1575 1572,1609 1565,1638 1553,1660 1538,1678 1520,1691 1501,1700 1481,1704 1463,1706 1445,1704 1429,1698 1415,1690 1403,1678 1394,1665 1387,1650 1383,1634 1382,1618 1385,1606 1391,1595 1400,1586 1411,1578 1422,1571 1434,1567 1445,1564 1454,1563 1463,1565 1471,1570 1480,1578 1487,1587 1493,1596 1496,1603 1497,1609 1494,1611 1490,1615 1488,1610 1483,1599 1474,1586 1462,1577 1452,1575 1441,1576 1429,1579 1418,1585 1408,1593 1400,1603 1396,1615 1396,1628 1399,1644 1403,1657 1410,1668 1418,1677 1428,1684 1441,1689 1456,1692 1474,1693 1492,1691 1510,1684 1525,1673 1539,1659 1550,1641 1557,1620 1561,1597 1561,1571 1558,1558 1551,1542 1540,1524 1526,1507 1509,1492 1490,1479 1467,1471 1443,1469 1430,1470 1416,1473 1402,1476 1388,1481 1374,1487 1360,1494 1347,1502 1334,1512 1322,1522 1311,1534 1301,1547 1293,1561 1287,1576 1282,1592 1280,1610 1280,1628 1282,1647 1287,1664 1294,1681 1304,1697 1315,1712 1328,1725 1342,1738 1358,1748 1375,1758 1392,1765 1411,1771 1429,1776 1448,1778 1467,1778 1485,1776 1503,1772 1523,1766 1546,1758 1568,1747 1591,1733 1612,1712 1631,1685 1647,1649 1658,1604 1660,1582 1659,1558 1656,1533 1650,1508 1642,1483 1631,1457 1618,1433 1603,1409 1586,1387 1567,1366 1546,1347 1523,1331 1499,1318 1473,1308 1445,1302 1416,1300 1384,1301 1352,1305 1320,1310 1289,1318 1259,1328 1230,1341 1203,1355 1178,1372 1154,1391 1133,1412 1114,1435 1098,1461 1085,1488 1076,1518 1070,1550 1068,1584 1070,1637 1077,1684 1088,1726 1102,1763 1118,1796 1136,1824 1155,1849 1175,1871 1175,1871 1176,1872 1179,1874 1183,1877 1190,1881 1217,1897 1245,1910 1272,1922 1300,1932 1327,1940 1355,1946 1383,1950 1410,1952 1438,1952 1465,1949 1492,1945 1520,1938 1547,1929 1573,1918 1600,1904 1626,1888 1630,1886 1634,1883 1638,1879 1642,1875 1642,1877 1654,1867 1668,1855 1684,1841 1700,1823 1718,1804 1735,1781 1753,1756 1770,1727 1785,1696 1800,1661 1812,1623 1822,1582 1830,1537 1834,1489 1834,1437 1831,1381 1824,1326 1812,1274 1794,1224 1772,1177 1745,1133 1713,1091 1678,1053 1638,1018 1596,987 1550,959 1501,935 1450,915 1397,899 1341,887 1284,880 1226,878 1167,881 1111,889 1057,902 1005,920 957,942 911,969 868,999 829,1033 793,1071 760,1111 730,1155 705,1200 683,1248 665,1298 651,1349 641,1402 638,1422 635,1451 632,1487 632,1531 636,1579 646,1632 662,1689 686,1747"/>
<polygon class="pen1 brush0" points="1109,42 1106,44 1098,51 1085,61 1067,75 1045,94 1019,116 990,141 957,170 922,203 885,238 845,277 805,319 762,363 720,411 676,461 633,513 590,568 548,625 507,684 468,745 430,808 395,873 362,939 332,1007 306,1076 284,1146 266,1218 252,1290 243,1364 240,1438 242,1513 251,1588 72,1391 72,1389 71,1382 71,1371 71,1356 71,1337 71,1314 72,1287 74,1257 77,1224 82,1188 88,1149 95,1108 104,1064 115,1017 129,969 145,919 163,867 184,813 208,758 235,702 265,644 299,586 336,528 377,468 423,409 472,349 526,290 585,231 648,172 716,114 789,56 868,0 870,1 876,2 885,5 897,8 912,12 928,16 946,20 966,24 986,29 1006,33 1026,36 1046,39 1064,41 1081,43 1096,43 1109,42"/>
</g>
</svg>
