<?xml version="1.0" encoding="UTF-8" standalone="no"?>
<!DOCTYPE svg PUBLIC "-//W3C//DTD SVG 1.0//EN" "http://www.w3.org/TR/2001/REC-SVG-20010904/DTD/svg10.dtd">
<svg xmlns="http://www.w3.org/2000/svg" xmlns:xlink="http://www.w3.org/1999/xlink" fill-rule="evenodd" height="1.979in" preserveAspectRatio="none" stroke-linecap="round" viewBox="0 0 1934 1979" width="1.934in">
<style type="text/css">
.brush0 { fill: rgb(255,255,255); }
.pen0 { stroke: rgb(0,0,0); stroke-width: 1; stroke-linejoin: round; }
.brush1 { fill: none; }
.pen1 { stroke: none; }
.brush2 { fill: rgb(0,0,0); }
</style>
<g>
<polygon class="pen1 brush2" points="21,1039 19,1036 21,1030 27,1021 35,1009 46,996 59,980 74,964 91,947 108,930 125,913 142,897 159,881 175,868 190,856 203,847 214,841 220,842 225,858 226,881 223,899 228,897 241,893 262,887 290,879 323,869 362,859 405,849 452,840 501,831 551,824 602,819 653,816 703,816 750,820 795,828 836,841 834,848 827,869 820,900 812,938 807,982 805,1027 810,1073 822,1115 821,1115 819,1116 816,1116 811,1117 804,1118 796,1120 787,1121 777,1122 765,1123 752,1124 737,1125 722,1125 705,1125 686,1125 667,1124 646,1123 624,1122 601,1119 577,1116 552,1113 525,1108 498,1103 469,1097 439,1090 408,1082 376,1072 343,1062 309,1051 274,1038 238,1024 201,1009 163,992 165,994 171,1001 178,1012 185,1026 191,1042 192,1060 188,1079 177,1098 174,1096 167,1091 155,1084 137,1076 115,1066 88,1056 57,1047 21,1039 21,1039"/>
<polygon class="pen1 brush2" points="921,976 945,973 968,969 990,964 1011,959 1030,953 1048,947 1065,940 1082,934 1097,928 1112,922 1126,916 1139,911 1152,906 1164,902 1176,900 1187,898 1199,898 1214,898 1231,899 1251,900 1271,902 1293,904 1316,906 1339,909 1361,912 1383,914 1404,917 1424,919 1442,922 1458,923 1471,925 1481,926 1479,926 1472,926 1461,926 1447,926 1430,926 1410,927 1389,927 1366,928 1342,928 1319,929 1295,931 1272,932 1250,934 1230,935 1212,938 1197,940 1171,946 1150,952 1131,958 1114,964 1099,970 1084,975 1068,979 1051,982 1037,983 1018,983 997,982 975,980 954,979 937,977 925,976 921,976 921,976"/>
<polygon class="pen1 brush2" points="1051,915 1056,913 1068,908 1087,901 1109,893 1134,885 1158,878 1181,873 1200,871 1221,872 1237,873 1251,875 1262,877 1273,878 1284,879 1296,878 1311,875 1323,870 1337,864 1351,855 1366,845 1381,833 1396,821 1411,808 1426,795 1440,783 1452,770 1464,759 1474,749 1482,741 1489,735 1493,730 1494,729 1478,737 1464,746 1451,754 1439,763 1428,771 1417,780 1406,787 1395,795 1383,801 1371,808 1358,813 1344,817 1328,821 1311,824 1292,825 1271,825 1252,825 1233,828 1214,831 1196,836 1179,841 1163,848 1147,855 1132,862 1118,870 1105,878 1093,885 1082,893 1073,899 1064,906 1057,911 1051,915 1051,915"/>
<polygon class="pen1 brush2" points="920,928 933,927 947,926 962,923 977,919 992,915 1008,910 1023,904 1039,897 1055,891 1071,883 1086,875 1101,867 1115,859 1129,851 1142,842 1154,834 1168,825 1185,815 1206,803 1229,791 1253,779 1279,766 1305,753 1331,740 1356,728 1380,716 1402,706 1422,697 1438,690 1450,684 1458,680 1461,679 1425,684 1391,689 1360,696 1332,703 1306,711 1282,719 1260,728 1240,737 1222,746 1206,755 1192,763 1179,771 1168,779 1159,786 1150,792 1143,797 1134,802 1123,809 1108,817 1092,826 1074,837 1055,848 1035,859 1015,870 996,882 978,892 962,902 947,910 935,918 926,923 921,927 920,928 920,928"/>
<polygon class="pen1 brush2" points="1036,842 1036,840 1037,835 1039,827 1043,817 1049,804 1058,789 1069,773 1085,755 1104,737 1128,718 1157,699 1192,680 1233,662 1280,645 1334,629 1396,615 1444,606 1489,599 1531,595 1571,592 1608,590 1641,588 1673,587 1701,585 1727,583 1750,579 1770,574 1788,566 1804,556 1817,543 1827,527 1835,506 1846,458 1849,411 1846,366 1838,325 1825,286 1807,252 1786,223 1761,198 1736,178 1709,161 1683,146 1659,133 1637,124 1620,117 1609,112 1605,111 1570,125 1538,134 1510,137 1484,135 1461,130 1441,121 1423,110 1407,97 1394,83 1383,69 1374,55 1367,42 1362,30 1359,21 1357,15 1356,13 1389,12 1422,13 1455,16 1487,21 1519,28 1550,37 1581,46 1610,57 1638,69 1665,82 1690,95 1714,109 1735,123 1755,137 1773,151 1788,164 1813,191 1838,226 1859,267 1877,315 1888,366 1891,420 1884,475 1866,530 1852,556 1837,578 1819,595 1800,609 1779,619 1756,627 1731,633 1703,636 1673,639 1641,640 1606,641 1568,641 1528,642 1485,644 1439,647 1390,652 1363,656 1336,663 1309,671 1282,681 1256,693 1230,705 1205,719 1181,733 1158,747 1136,762 1115,777 1096,791 1078,805 1062,819 1048,831 1036,842 1036,842"/>
<polygon class="pen1 brush2" points="930,902 935,898 941,891 951,880 962,867 974,852 988,836 1002,818 1017,800 1032,781 1048,763 1063,746 1077,730 1090,716 1102,704 1112,694 1120,688 1128,683 1138,677 1150,671 1163,664 1178,657 1193,650 1209,643 1226,635 1242,628 1259,621 1276,614 1292,607 1308,600 1323,594 1336,589 1349,584 1347,584 1342,584 1334,584 1324,584 1311,585 1296,586 1280,587 1262,589 1244,592 1225,595 1206,599 1187,604 1169,610 1151,617 1135,626 1120,635 1095,655 1073,675 1055,695 1039,714 1025,733 1013,751 1002,768 991,784 981,801 971,820 960,839 951,858 942,875 936,889 932,899 930,902 930,902"/>
<polygon class="pen1 brush2" points="856,871 854,890 849,911 845,934 841,960 838,988 839,1018 843,1050 853,1085 854,1085 856,1084 859,1084 864,1082 870,1081 877,1080 885,1078 894,1077 893,1054 893,1000 898,936 911,884 856,871 856,871"/>
<polygon class="pen1 brush2" points="924,1003 948,1006 971,1011 993,1016 1014,1021 1033,1027 1051,1033 1068,1039 1085,1046 1100,1052 1115,1058 1129,1063 1142,1069 1155,1073 1167,1077 1179,1079 1190,1081 1202,1081 1217,1081 1235,1080 1254,1079 1275,1077 1296,1075 1319,1073 1342,1070 1364,1067 1386,1065 1407,1062 1427,1060 1445,1057 1461,1056 1474,1054 1484,1053 1482,1053 1475,1053 1464,1053 1450,1053 1433,1053 1413,1052 1392,1052 1369,1051 1345,1051 1322,1050 1298,1048 1275,1047 1253,1045 1233,1044 1215,1041 1200,1039 1174,1034 1153,1028 1134,1022 1118,1016 1102,1010 1087,1005 1071,1000 1053,997 1039,996 1021,996 1000,997 978,998 957,1000 940,1001 928,1003 924,1003 924,1003"/>
<polygon class="pen1 brush2" points="1053,1064 1058,1066 1070,1071 1089,1078 1112,1086 1136,1094 1161,1101 1184,1106 1203,1108 1224,1107 1240,1106 1254,1104 1266,1102 1276,1101 1287,1100 1299,1101 1313,1104 1325,1109 1339,1115 1353,1124 1368,1134 1384,1146 1399,1158 1414,1171 1429,1184 1443,1196 1456,1209 1468,1220 1478,1230 1486,1238 1493,1244 1497,1249 1498,1250 1482,1242 1468,1233 1455,1225 1443,1216 1431,1208 1420,1199 1409,1192 1398,1184 1386,1178 1374,1171 1361,1166 1347,1162 1332,1158 1315,1155 1296,1154 1275,1154 1256,1154 1237,1151 1218,1148 1200,1143 1183,1138 1166,1131 1150,1124 1136,1117 1121,1109 1108,1101 1096,1094 1085,1086 1075,1080 1067,1073 1059,1068 1053,1064 1053,1064"/>
<polygon class="pen1 brush2" points="923,1051 936,1052 950,1053 965,1056 980,1059 995,1064 1011,1069 1027,1075 1043,1081 1059,1088 1075,1096 1090,1104 1105,1112 1120,1120 1134,1128 1147,1137 1159,1145 1173,1154 1190,1164 1210,1176 1233,1188 1257,1200 1283,1213 1309,1226 1335,1239 1361,1251 1385,1263 1407,1273 1426,1282 1442,1289 1454,1295 1462,1299 1465,1300 1429,1295 1395,1290 1364,1283 1336,1276 1309,1268 1285,1260 1264,1251 1244,1242 1226,1233 1210,1224 1196,1216 1183,1208 1172,1200 1162,1193 1153,1187 1146,1182 1137,1177 1126,1170 1111,1162 1095,1153 1077,1142 1058,1131 1039,1120 1019,1109 1000,1097 982,1087 965,1077 951,1069 939,1061 930,1056 924,1052 923,1051 923,1051"/>
<polygon class="pen1 brush2" points="1039,1137 1039,1139 1040,1144 1042,1152 1046,1162 1052,1175 1061,1190 1072,1206 1088,1224 1107,1242 1132,1261 1161,1280 1196,1299 1236,1317 1284,1335 1338,1351 1400,1365 1448,1374 1493,1380 1535,1385 1575,1388 1611,1390 1645,1391 1676,1392 1705,1394 1730,1396 1753,1400 1774,1405 1792,1413 1807,1423 1820,1436 1830,1452 1838,1473 1849,1521 1852,1568 1850,1613 1841,1654 1828,1693 1810,1727 1789,1757 1765,1782 1739,1801 1712,1818 1686,1833 1662,1845 1641,1855 1624,1862 1613,1867 1609,1868 1574,1854 1542,1846 1514,1843 1488,1844 1465,1850 1444,1858 1426,1869 1411,1882 1398,1896 1387,1910 1378,1925 1371,1938 1365,1949 1362,1958 1360,1964 1359,1966 1392,1967 1425,1966 1458,1963 1490,1958 1522,1951 1554,1942 1584,1933 1613,1922 1642,1910 1668,1897 1694,1884 1717,1870 1739,1857 1759,1843 1777,1829 1792,1816 1817,1789 1841,1754 1863,1712 1880,1664 1891,1613 1894,1559 1887,1504 1869,1449 1855,1423 1840,1401 1822,1384 1803,1370 1782,1360 1759,1352 1734,1346 1706,1343 1676,1340 1644,1339 1609,1338 1571,1338 1531,1337 1488,1335 1442,1332 1393,1327 1366,1323 1339,1316 1312,1308 1286,1298 1260,1286 1234,1274 1209,1260 1185,1246 1162,1232 1140,1217 1119,1202 1100,1187 1082,1174 1066,1160 1051,1148 1039,1137 1039,1137"/>
<polygon class="pen1 brush2" points="934,1077 939,1081 945,1088 954,1099 965,1112 978,1127 991,1143 1006,1161 1021,1179 1036,1198 1051,1216 1066,1233 1080,1249 1093,1263 1105,1275 1115,1285 1123,1291 1131,1296 1141,1302 1153,1308 1166,1315 1180,1322 1196,1329 1212,1336 1228,1344 1245,1351 1262,1358 1279,1365 1295,1372 1311,1379 1326,1385 1340,1390 1353,1395 1351,1395 1346,1395 1338,1395 1327,1395 1315,1394 1300,1393 1283,1392 1266,1390 1247,1387 1228,1384 1209,1380 1190,1375 1172,1369 1154,1362 1138,1353 1123,1344 1098,1324 1076,1304 1058,1284 1042,1265 1028,1246 1016,1228 1005,1211 995,1195 985,1178 974,1159 964,1140 954,1121 946,1104 940,1090 936,1080 934,1077"/>
<polygon class="pen1 brush0" points="869,990 874,989 879,986 883,982 884,976 883,969 879,964 874,960 869,959 862,960 857,964 853,969 852,976 853,982 857,986 862,989 869,990"/>
</g>
</svg>
