<?xml version="1.0" encoding="UTF-8" standalone="no"?>
<!DOCTYPE svg PUBLIC "-//W3C//DTD SVG 1.0//EN" "http://www.w3.org/TR/2001/REC-SVG-20010904/DTD/svg10.dtd">
<svg xmlns="http://www.w3.org/2000/svg" xmlns:xlink="http://www.w3.org/1999/xlink" fill-rule="evenodd" height="2.0in" preserveAspectRatio="none" stroke-linecap="round" viewBox="0 0 1550 2000" width="1.55in">
<style type="text/css">
.brush0 { fill: rgb(255,255,255); }
.pen0 { stroke: rgb(0,0,0); stroke-width: 1; stroke-linejoin: round; }
.brush1 { fill: none; }
.pen1 { stroke: none; }
.brush2 { fill: rgb(0,0,0); }
</style>
<g>
<polygon class="pen1 brush2" points="1218,1622 1220,1622 1227,1623 1237,1625 1251,1629 1267,1633 1285,1640 1304,1648 1324,1658 1344,1670 1363,1685 1382,1702 1399,1722 1413,1745 1425,1772 1433,1801 1437,1835 1423,1830 1410,1826 1397,1821 1384,1815 1370,1809 1357,1803 1344,1795 1330,1786 1327,1791 1341,1800 1355,1809 1369,1816 1382,1823 1395,1828 1409,1834 1423,1838 1437,1843 1436,1862 1435,1883 1432,1905 1427,1928 1419,1924 1407,1919 1394,1912 1379,1903 1365,1894 1353,1884 1343,1875 1337,1865 1330,1867 1337,1878 1346,1888 1357,1898 1370,1907 1383,1915 1396,1922 1409,1928 1421,1933 1416,1936 1409,1941 1401,1946 1392,1951 1381,1957 1369,1963 1357,1969 1343,1975 1337,1970 1330,1963 1322,1955 1314,1946 1306,1936 1298,1925 1291,1913 1285,1901 1277,1904 1283,1915 1289,1925 1296,1934 1303,1944 1310,1953 1318,1961 1327,1970 1337,1978 1328,1981 1319,1984 1309,1987 1299,1989 1289,1991 1280,1992 1270,1994 1260,1995 1256,1987 1250,1979 1245,1969 1240,1959 1235,1947 1230,1935 1227,1921 1224,1906 1216,1907 1218,1918 1221,1929 1225,1941 1230,1952 1234,1964 1240,1975 1246,1985 1252,1995 1239,1995 1227,1993 1214,1990 1202,1986 1190,1981 1178,1975 1166,1967 1155,1957 1145,1946 1135,1932 1125,1917 1116,1900 1108,1881 1101,1860 1095,1837 1089,1811 1093,1809 1103,1801 1117,1788 1136,1769 1157,1743 1178,1711 1199,1670 1218,1622 1218,1622"/>
<polygon class="pen1 brush2" points="343,1626 341,1626 334,1627 324,1629 310,1633 294,1637 276,1643 257,1651 237,1661 217,1674 198,1688 180,1706 163,1726 148,1749 137,1776 129,1806 125,1840 139,1836 153,1831 167,1825 180,1819 194,1812 207,1805 220,1797 232,1789 235,1796 223,1803 210,1811 196,1818 182,1825 168,1832 153,1838 139,1843 125,1848 125,1867 127,1887 130,1909 135,1931 150,1925 162,1919 174,1914 184,1908 194,1901 204,1893 214,1883 225,1870 232,1872 220,1887 208,1899 197,1908 185,1916 174,1922 163,1927 152,1932 141,1936 146,1939 152,1944 160,1949 170,1954 180,1960 192,1966 205,1972 218,1978 228,1970 236,1962 244,1954 251,1945 258,1937 264,1927 270,1916 277,1904 285,1907 276,1924 267,1938 258,1949 251,1958 243,1966 237,1972 231,1977 225,1982 234,1985 243,1988 253,1990 262,1993 272,1995 281,1997 291,1998 300,1999 307,1988 313,1977 318,1966 323,1955 328,1944 332,1932 335,1921 339,1909 346,1911 342,1924 339,1936 334,1948 330,1959 325,1970 320,1980 315,1990 309,1999 322,1999 335,1997 347,1995 360,1991 372,1986 384,1979 396,1971 407,1962 418,1950 428,1937 437,1922 446,1905 455,1885 462,1864 468,1840 474,1814 470,1812 460,1804 445,1792 427,1773 406,1747 384,1715 362,1675 343,1626 343,1626"/>
<polygon class="pen1 brush2" points="1347,1189 1384,1211 1400,1202 1402,1171 1392,1125 1377,1075 1360,1028 1347,993 1341,980 1367,991 1386,994 1398,992 1405,983 1407,971 1405,954 1400,936 1392,915 1382,893 1371,871 1359,851 1348,831 1338,815 1330,802 1325,794 1323,791 1347,800 1362,799 1369,789 1369,772 1361,748 1347,721 1328,691 1303,660 1288,645 1270,629 1250,614 1227,599 1203,584 1179,570 1154,557 1129,544 1106,533 1083,522 1063,513 1045,505 1030,499 1019,494 1012,491 1009,490 999,502 986,513 971,522 954,530 936,538 917,544 897,550 878,554 859,558 841,561 825,564 810,566 798,568 789,569 784,570 782,570 780,570 775,570 766,570 755,569 741,568 726,567 708,565 690,561 672,557 653,552 634,546 615,538 598,529 582,518 568,505 556,490 553,491 546,494 535,499 520,505 502,513 482,522 459,533 436,544 411,557 386,571 362,585 338,600 315,615 295,630 277,646 262,662 237,693 217,723 203,750 196,773 195,790 202,801 218,802 242,793 240,796 235,804 227,817 217,833 206,852 194,873 183,894 173,916 165,936 159,955 157,971 159,984 166,992 179,994 198,991 224,980 218,993 205,1028 188,1075 173,1125 163,1171 165,1202 181,1211 218,1189 215,1216 211,1255 208,1299 208,1343 212,1380 222,1405 239,1409 266,1389 267,1401 270,1431 277,1472 287,1515 301,1555 320,1582 343,1590 373,1570 377,1581 387,1610 403,1649 423,1689 445,1723 468,1743 491,1741 512,1710 516,1718 527,1739 544,1767 566,1797 590,1822 616,1837 642,1836 667,1814 672,1834 680,1857 692,1881 707,1905 725,1926 744,1943 765,1952 786,1953 818,1941 844,1922 864,1899 879,1875 889,1851 896,1832 899,1818 900,1813 924,1835 950,1836 976,1821 1000,1796 1021,1766 1038,1738 1049,1717 1053,1709 1075,1741 1098,1742 1121,1722 1144,1688 1164,1647 1180,1608 1190,1579 1194,1568 1223,1588 1246,1581 1265,1554 1279,1515 1289,1471 1295,1431 1299,1401 1300,1389 1327,1409 1344,1405 1355,1380 1359,1343 1358,1299 1355,1255 1351,1216 1347,1189 1347,1189"/>
<polygon class="pen1 brush2" points="786,0 795,1 807,6 821,14 837,25 854,39 871,56 888,77 904,102 919,130 933,162 943,198 951,238 955,281 956,329 951,381 941,437 937,446 930,456 920,465 907,475 892,484 875,493 856,500 835,506 813,510 790,511 766,510 741,507 717,500 692,489 667,475 643,456 637,446 631,428 626,403 622,373 620,337 619,299 620,258 624,217 631,176 640,137 654,100 671,67 692,40 719,18 750,5 786,0 786,0"/>
<polygon class="pen1 brush2" points="554,433 545,448 534,461 522,472 509,481 496,488 482,493 469,497 455,499 442,501 430,502 420,502 410,502 402,501 396,501 392,500 391,500 383,490 376,482 371,474 367,468 364,463 362,459 360,457 360,456 329,476 299,493 271,505 244,515 220,521 196,524 175,525 154,523 135,519 118,514 102,507 87,498 73,488 61,478 50,467 40,456 53,457 66,458 79,458 93,458 106,458 119,458 132,458 145,457 159,456 172,455 185,454 198,453 211,451 224,450 237,448 250,446 249,439 236,441 222,443 209,444 196,446 182,447 169,448 155,449 142,450 129,450 115,451 102,451 88,451 75,451 62,451 48,450 35,450 29,442 24,434 19,427 15,420 11,413 8,407 5,402 3,398 18,400 33,401 48,402 63,402 78,403 93,403 108,403 123,402 138,402 153,401 168,400 183,399 198,399 213,398 228,397 243,396 243,389 229,390 215,391 200,392 185,393 169,394 154,395 138,396 122,396 106,397 90,397 74,397 59,396 43,395 28,394 14,393 0,391 6,384 12,377 18,371 24,364 30,358 35,352 41,347 46,341 58,342 70,342 82,343 94,343 107,344 119,344 131,344 143,344 155,344 168,343 180,343 192,342 204,342 216,341 227,340 239,339 239,334 228,335 217,336 205,337 194,338 182,338 170,338 158,338 146,338 134,338 122,338 110,338 98,337 87,337 75,336 64,336 53,335 58,330 63,325 69,320 74,315 79,310 84,306 89,302 94,298 111,299 129,299 147,299 164,298 182,296 199,294 216,291 233,288 232,281 216,284 200,287 184,289 167,290 151,290 134,291 117,291 101,291 160,248 214,220 264,205 310,200 351,205 388,218 421,237 450,261 475,289 497,317 515,346 529,373 540,397 548,416 553,428 554,433 554,433"/>
<polygon class="pen1 brush2" points="993,429 995,424 999,412 1007,393 1018,368 1033,341 1051,312 1073,283 1098,256 1128,232 1161,213 1199,200 1241,196 1287,201 1337,217 1392,247 1452,291 1435,291 1418,291 1401,291 1384,291 1367,291 1350,289 1333,287 1316,284 1314,291 1332,294 1350,297 1368,298 1386,299 1404,300 1422,300 1440,299 1458,298 1463,302 1468,306 1473,310 1479,315 1484,320 1489,325 1494,330 1499,335 1487,336 1476,336 1464,337 1452,337 1440,338 1428,338 1416,338 1404,338 1392,338 1380,338 1368,338 1356,338 1344,337 1332,336 1321,335 1309,334 1309,341 1321,342 1333,343 1345,344 1357,345 1369,345 1381,346 1394,346 1406,345 1419,345 1431,345 1444,344 1457,344 1469,343 1481,342 1494,342 1506,341 1510,345 1517,351 1524,358 1531,365 1537,373 1543,380 1546,386 1546,391 1531,393 1516,394 1501,395 1486,395 1470,396 1455,396 1440,396 1425,396 1409,395 1394,394 1379,393 1363,392 1348,391 1333,389 1318,388 1303,386 1303,393 1318,394 1333,396 1348,397 1363,398 1378,400 1392,401 1407,402 1422,403 1437,404 1452,405 1466,405 1481,404 1497,404 1512,402 1527,400 1543,398 1541,403 1538,408 1534,414 1530,420 1526,427 1521,435 1516,442 1510,450 1497,450 1484,451 1471,451 1457,451 1444,451 1430,450 1417,450 1403,449 1390,449 1376,448 1363,447 1349,445 1336,444 1322,442 1309,441 1296,439 1296,446 1309,448 1321,450 1334,451 1347,453 1360,454 1374,455 1387,456 1400,457 1413,458 1427,458 1440,459 1453,459 1466,459 1479,458 1492,458 1505,457 1495,468 1484,478 1471,488 1458,497 1443,504 1427,511 1409,516 1390,519 1370,520 1349,519 1326,515 1301,509 1275,499 1248,487 1219,470 1188,450 1188,451 1187,453 1185,457 1182,463 1178,469 1172,477 1166,485 1158,494 1157,494 1153,495 1147,496 1139,496 1130,497 1119,497 1107,496 1094,494 1080,492 1067,488 1053,483 1039,476 1026,468 1014,457 1003,444 993,429"/>
<polygon class="pen1 brush0" points="851,172 858,171 865,169 871,166 876,161 881,156 884,150 886,143 887,136 886,129 884,122 881,116 876,111 871,107 865,104 858,102 851,101 844,102 837,104 831,107 826,111 822,116 819,122 817,129 816,136 817,143 819,150 822,156 826,161 831,166 837,169 844,171 851,172 851,172"/>
<polygon class="pen1 brush0" points="711,176 718,175 724,173 730,170 735,166 739,160 742,154 744,148 745,141 744,134 742,127 739,121 735,115 730,111 724,108 718,106 711,105 704,106 697,108 691,111 686,115 681,121 678,127 676,134 675,141 676,148 678,154 681,160 686,166 691,170 697,173 704,175 711,176"/>
</g>
</svg>
