<?xml version="1.0" encoding="UTF-8" standalone="no"?>
<!DOCTYPE svg PUBLIC "-//W3C//DTD SVG 1.0//EN" "http://www.w3.org/TR/2001/REC-SVG-20010904/DTD/svg10.dtd">
<svg xmlns="http://www.w3.org/2000/svg" xmlns:xlink="http://www.w3.org/1999/xlink" fill-rule="evenodd" height="1.995in" preserveAspectRatio="none" stroke-linecap="round" viewBox="0 0 1351 1995" width="1.351in">
<style type="text/css">
.brush0 { fill: rgb(255,255,255); }
.pen0 { stroke: rgb(0,0,0); stroke-width: 1; stroke-linejoin: round; }
.brush1 { fill: none; }
.pen1 { stroke: none; }
.brush2 { fill: rgb(0,0,0); }
</style>
<g>
<polygon class="pen1 brush2" points="916,342 915,336 911,319 908,295 907,267 909,239 916,213 929,193 952,183 976,183 996,191 1012,206 1024,225 1033,245 1039,265 1044,282 1047,294 1049,292 1054,287 1061,285 1069,288 1076,300 1081,326 1083,370 1080,435 1083,436 1089,441 1093,459 1092,496 1092,496 1090,512 1087,531 1082,553 1075,578 1077,577 1081,576 1085,578 1089,586 1089,602 1085,629 1074,669 1055,726 1057,726 1060,729 1064,734 1067,744 1066,761 1060,785 1048,818 1027,862 1040,871 1042,887 1036,907 1025,930 1010,953 996,973 983,990 976,1000 977,1002 979,1007 980,1016 978,1030 971,1049 958,1073 936,1104 905,1141 915,1147 915,1157 908,1172 896,1187 880,1204 863,1220 847,1233 835,1243 829,1250 826,1257 825,1264 827,1271 830,1277 836,1281 845,1284 855,1284 864,1285 868,1291 867,1300 864,1311 859,1324 854,1337 850,1349 848,1359 852,1366 860,1363 868,1369 872,1403 873,1414 875,1423 878,1430 882,1433 887,1433 892,1430 897,1423 903,1412 908,1396 913,1376 916,1356 920,1336 924,1320 929,1308 935,1305 943,1311 946,1291 949,1269 954,1247 959,1227 965,1211 972,1200 979,1195 987,1199 989,1191 993,1171 1000,1144 1009,1114 1019,1086 1030,1065 1040,1056 1051,1064 1052,1056 1057,1035 1063,1006 1071,974 1080,945 1091,923 1101,913 1112,922 1111,915 1110,896 1110,870 1110,842 1112,816 1117,797 1126,790 1139,798 1139,792 1138,777 1137,756 1138,733 1141,712 1147,696 1156,689 1170,695 1170,691 1172,682 1176,669 1181,654 1190,640 1201,629 1215,622 1234,622 1252,628 1266,637 1274,649 1279,661 1281,675 1281,690 1280,705 1278,719 1280,719 1286,719 1293,721 1300,726 1304,737 1306,755 1302,782 1291,818 1293,818 1299,819 1307,823 1313,832 1316,847 1315,870 1306,904 1287,949 1302,964 1306,985 1300,1010 1289,1036 1275,1062 1260,1085 1247,1102 1239,1112 1246,1121 1246,1136 1241,1155 1232,1176 1220,1198 1207,1218 1194,1237 1183,1251 1184,1253 1187,1260 1189,1272 1189,1288 1184,1310 1173,1336 1154,1367 1124,1403 1126,1416 1122,1432 1113,1450 1100,1469 1085,1488 1070,1505 1057,1518 1047,1527 1048,1528 1050,1530 1052,1534 1053,1541 1051,1551 1045,1563 1034,1579 1016,1599 1003,1611 992,1622 982,1632 976,1640 971,1648 970,1655 973,1663 980,1671 985,1679 985,1685 981,1689 973,1693 964,1698 954,1704 945,1712 939,1723 935,1737 930,1754 926,1772 923,1791 922,1810 924,1829 930,1847 939,1863 949,1877 954,1890 955,1902 954,1911 950,1918 944,1922 938,1922 932,1919 926,1913 919,1910 912,1908 905,1908 900,1910 897,1914 897,1921 899,1931 902,1941 903,1952 901,1961 897,1968 891,1973 883,1973 874,1969 864,1958 854,1944 844,1930 835,1916 826,1902 817,1891 808,1881 800,1874 793,1870 793,1872 791,1876 789,1882 786,1888 781,1895 776,1901 769,1905 761,1907 752,1903 743,1891 733,1874 724,1854 715,1833 706,1812 697,1795 689,1782 677,1763 673,1744 676,1726 689,1711 695,1705 695,1697 691,1689 684,1680 675,1670 666,1660 657,1650 649,1639 639,1622 633,1610 636,1600 649,1591 653,1589 653,1585 650,1581 644,1577 636,1572 626,1567 614,1561 602,1555 588,1550 574,1544 561,1539 547,1534 535,1530 523,1526 514,1522 506,1520 496,1516 487,1510 479,1503 473,1497 469,1490 466,1484 464,1478 463,1474 442,1463 418,1450 395,1435 374,1420 357,1405 347,1392 347,1380 358,1372 352,1369 335,1361 312,1350 288,1337 265,1322 248,1307 242,1294 250,1284 240,1279 224,1269 203,1256 182,1240 164,1223 152,1206 149,1190 159,1176 154,1171 140,1159 122,1141 103,1121 87,1100 79,1082 81,1068 98,1061 87,1048 78,1034 70,1019 64,1003 63,988 66,974 75,962 91,953 113,946 129,943 139,944 146,948 150,955 154,962 157,969 162,976 174,968 186,968 196,976 206,988 213,1002 220,1016 224,1029 226,1037 228,1036 232,1033 240,1031 251,1032 264,1039 280,1053 298,1077 318,1112 320,1111 325,1109 333,1108 344,1110 356,1118 370,1133 386,1157 402,1193 416,1184 431,1184 445,1191 459,1204 471,1221 482,1238 491,1254 497,1267 498,1266 500,1263 505,1261 512,1262 523,1269 538,1284 557,1310 581,1348 590,1352 597,1337 596,1308 585,1271 581,1263 574,1251 566,1236 559,1220 554,1206 553,1194 558,1186 570,1185 564,1181 548,1170 526,1155 503,1138 483,1120 469,1104 467,1091 479,1085 433,1064 398,1046 373,1030 357,1016 350,1005 351,997 358,991 372,987 372,976 370,975 365,972 357,967 347,960 335,952 322,943 309,934 297,923 285,913 275,903 267,894 262,885 260,877 262,870 269,865 281,862 275,858 258,846 236,829 212,810 190,790 175,772 171,758 182,750 179,742 168,729 152,714 134,696 118,678 107,663 105,650 114,642 109,637 97,624 80,605 62,583 46,561 34,541 30,526 37,518 36,516 34,512 31,505 27,496 27,496 22,484 18,471 15,458 13,444 14,431 18,420 26,410 38,402 59,396 79,397 98,403 116,414 133,428 147,445 160,463 170,483 171,483 173,482 176,482 180,482 185,484 191,486 197,490 203,496 202,496 210,508 218,526 225,550 230,582 232,581 239,579 248,579 260,583 274,594 289,614 304,646 318,693 319,691 324,687 330,684 340,686 351,696 365,717 380,752 398,805 399,803 401,799 406,795 412,794 420,798 430,809 442,829 457,862 463,876 469,888 476,897 483,904 491,910 500,913 510,914 521,913 520,909 516,899 512,884 509,866 507,847 508,829 514,813 526,801 522,796 513,782 501,762 488,739 478,716 473,695 476,680 490,673 486,667 476,651 464,628 450,602 440,576 434,554 436,539 449,534 448,533 447,531 444,528 440,523 436,517 430,511 425,504 419,496 419,496 410,482 401,467 394,453 388,439 385,426 385,415 389,405 398,399 393,393 382,378 367,356 350,331 336,305 328,280 327,261 338,250 334,245 323,231 308,211 292,187 279,164 271,144 271,129 283,122 281,118 275,107 268,92 263,73 260,54 262,35 272,19 291,7 297,5 302,3 308,2 313,2 318,2 322,2 327,3 331,4 343,10 354,18 363,28 372,40 380,52 387,64 395,76 402,87 403,85 408,83 415,82 424,85 436,95 451,116 467,150 486,199 488,197 493,192 501,189 512,192 524,205 538,231 554,274 570,338 572,338 576,337 583,340 592,346 601,358 610,378 618,408 625,450 626,450 628,449 632,450 636,452 641,457 647,465 652,478 656,496 655,496 658,513 661,535 663,560 665,589 666,588 670,585 676,585 682,588 688,599 693,620 696,654 696,702 699,698 706,701 712,729 713,801 716,803 723,813 732,834 740,869 743,878 748,887 754,893 762,897 770,898 779,893 786,883 793,865 799,845 804,828 810,814 817,803 823,797 830,796 837,800 844,810 845,803 847,786 850,762 856,735 862,711 871,692 880,684 892,690 891,681 890,658 888,625 888,589 888,555 892,528 898,514 908,518 905,502 901,476 897,444 895,410 894,379 897,354 904,341 916,342"/>
<polygon class="pen1 brush0" fill-rule="nonzero" points="820,1815 833,1811 836,1805 820,1797 817,1803 830,1799 820,1815 829,1821 833,1811"/>
<polygon class="pen1 brush0" fill-rule="nonzero" points="795,1841 800,1829 799,1827 796,1821 794,1813 793,1805 794,1803 792,1804 802,1806 820,1815 830,1799 808,1788 792,1784 778,1793 775,1805 776,1815 778,1825 781,1833 782,1837 787,1825 795,1841 804,1837 800,1829"/>
<polygon class="pen1 brush0" fill-rule="nonzero" points="776,1840 789,1844 795,1841 787,1825 781,1828 794,1832 776,1840 781,1849 789,1844"/>
<polygon class="pen1 brush0" fill-rule="nonzero" points="836,1805 832,1793 806,1782 787,1780 773,1788 768,1803 769,1815 772,1828 775,1836 776,1840 794,1832 793,1830 790,1822 787,1813 786,1803 787,1800 789,1798 802,1800 824,1809 820,1797 836,1805 841,1797 832,1793"/>
<polygon class="pen1 brush0" points="186,1057 186,1065 164,1056 151,1055 144,1059 143,1067 145,1076 148,1085 152,1091 153,1094 149,1097 147,1094 143,1086 139,1076 137,1065 139,1056 146,1050 161,1050 186,1057"/>
<polygon class="pen1 brush0" points="297,1128 294,1135 273,1126 260,1125 254,1129 253,1136 255,1145 259,1154 262,1160 264,1163 257,1166 255,1163 252,1155 248,1145 246,1135 248,1126 256,1120 271,1120 297,1128"/>
<polygon class="pen1 brush0" points="354,1249 352,1256 331,1247 318,1246 312,1250 311,1257 313,1266 316,1275 320,1281 321,1284 315,1287 313,1284 310,1276 306,1266 304,1256 306,1247 314,1241 329,1241 354,1249"/>
<polygon class="pen1 brush0" points="476,1318 473,1325 452,1317 440,1315 434,1320 433,1327 435,1337 438,1346 442,1352 443,1355 436,1357 434,1354 431,1346 427,1336 425,1325 427,1316 435,1310 450,1310 476,1318"/>
<polygon class="pen1 brush0" points="550,1422 547,1429 526,1421 513,1419 507,1424 506,1431 508,1441 512,1450 515,1456 517,1459 510,1460 508,1457 505,1449 501,1439 499,1429 501,1420 509,1414 524,1414 550,1422"/>
<polygon class="pen1 brush0" points="126,493 124,500 104,488 92,485 85,488 82,495 83,505 85,514 87,521 88,524 81,524 80,521 77,513 75,502 75,491 79,483 87,478 103,481 126,493"/>
<polygon class="pen1 brush0" points="222,581 220,588 200,576 187,572 180,575 178,582 178,590 180,599 182,606 183,609 178,612 177,609 174,601 172,590 172,579 175,570 183,566 198,569 222,581"/>
<polygon class="pen1 brush0" points="259,710 256,716 236,704 224,701 217,704 214,711 215,721 217,730 219,737 220,740 213,740 212,737 210,729 208,718 208,707 211,699 220,695 235,698 259,710"/>
<polygon class="pen1 brush0" points="366,798 364,805 344,793 332,790 325,793 322,800 323,809 325,818 327,825 328,828 321,830 320,827 317,819 315,808 315,797 319,788 327,784 343,786 366,798"/>
<polygon class="pen1 brush0" points="422,913 419,920 399,908 386,905 379,908 377,915 377,924 379,933 381,940 382,943 376,945 375,942 373,934 371,923 371,912 374,903 383,899 398,901 422,913"/>
<polygon class="pen1 brush0" points="703,932 702,939 681,929 668,926 662,929 660,936 661,945 664,954 667,960 668,963 662,966 661,963 657,955 654,945 653,934 656,925 664,920 679,922 703,932"/>
<polygon class="pen1 brush0" points="645,1061 642,1068 621,1057 608,1055 602,1058 600,1066 601,1075 604,1084 607,1091 608,1094 602,1095 601,1092 597,1084 595,1073 594,1063 596,1054 605,1049 620,1051 645,1061"/>
<polygon class="pen1 brush0" points="814,1091 817,1098 837,1088 849,1085 856,1089 857,1096 856,1106 853,1115 850,1122 849,1125 855,1125 856,1122 860,1114 863,1104 864,1093 861,1084 853,1079 838,1081 814,1091"/>
<polygon class="pen1 brush0" points="706,1185 705,1192 684,1182 671,1179 664,1182 662,1189 663,1199 666,1207 669,1214 670,1217 665,1220 664,1217 660,1209 657,1198 656,1187 659,1178 667,1174 682,1175 706,1185"/>
<polygon class="pen1 brush0" points="734,1324 729,1328 719,1307 711,1297 704,1296 697,1300 692,1308 689,1317 687,1324 686,1327 680,1324 681,1321 684,1313 688,1303 694,1294 702,1288 711,1290 722,1301 734,1324"/>
<polygon class="pen1 brush0" points="878,946 882,953 901,940 913,936 920,938 923,945 923,954 922,963 920,970 919,973 925,973 926,970 928,962 929,951 929,941 925,933 916,929 901,933 878,946"/>
<polygon class="pen1 brush0" points="1044,1301 1047,1308 1067,1297 1080,1295 1086,1298 1088,1306 1087,1315 1085,1324 1082,1331 1081,1334 1087,1335 1088,1332 1091,1324 1094,1313 1095,1303 1092,1294 1084,1289 1068,1291 1044,1301"/>
<polygon class="pen1 brush0" points="872,1553 875,1560 896,1550 909,1547 915,1550 917,1557 916,1567 913,1575 910,1582 909,1585 916,1587 917,1584 920,1576 923,1566 924,1555 921,1546 913,1541 897,1543 872,1553"/>
<polygon class="pen1 brush0" points="766,1584 764,1591 743,1581 730,1578 724,1581 722,1588 723,1597 726,1606 729,1612 730,1615 723,1618 722,1615 719,1607 716,1597 715,1586 718,1577 726,1572 741,1574 766,1584"/>
<polygon class="pen1 brush0" points="841,1708 845,1715 865,1704 878,1702 884,1705 886,1712 885,1721 882,1730 879,1737 878,1740 885,1742 886,1739 889,1731 892,1720 893,1710 890,1701 881,1696 866,1698 841,1708"/>
<polygon class="pen1 brush0" points="642,801 641,808 620,798 607,795 601,799 599,806 600,816 603,825 606,832 607,835 601,835 600,832 596,824 593,814 592,803 595,794 603,789 618,791 642,801"/>
<polygon class="pen1 brush0" points="919,808 922,814 941,801 954,797 961,800 964,807 964,816 963,825 961,832 960,835 966,837 967,834 969,825 971,814 970,803 966,795 958,791 942,795 919,808"/>
<polygon class="pen1 brush0" points="1104,1169 1105,1176 1126,1166 1139,1163 1145,1167 1147,1174 1146,1184 1143,1193 1140,1200 1139,1203 1145,1203 1146,1200 1150,1192 1153,1182 1154,1171 1151,1162 1143,1157 1128,1159 1104,1169"/>
<polygon class="pen1 brush0" points="649,609 648,616 627,606 614,604 608,607 606,614 607,623 610,632 613,639 614,642 608,643 607,640 603,632 600,622 599,611 602,603 610,598 625,599 649,609"/>
<polygon class="pen1 brush0" points="909,675 913,682 932,669 944,665 951,668 954,674 954,684 953,693 951,700 950,703 956,703 957,700 959,692 961,681 960,670 956,662 948,658 932,662 909,675"/>
<polygon class="pen1 brush0" points="1112,1037 1114,1044 1134,1033 1147,1030 1153,1034 1155,1041 1154,1050 1152,1058 1149,1065 1148,1068 1153,1071 1154,1068 1157,1060 1160,1050 1161,1039 1159,1030 1151,1025 1136,1027 1112,1037"/>
<polygon class="pen1 brush0" points="547,577 544,584 523,574 510,571 504,574 502,581 503,591 506,599 509,606 510,609 504,611 503,608 500,600 497,590 496,579 499,570 507,565 523,567 547,577"/>
<polygon class="pen1 brush0" points="983,571 986,578 1005,565 1018,561 1025,564 1028,570 1028,580 1027,589 1025,596 1024,599 1028,599 1029,596 1031,588 1032,577 1032,566 1028,558 1020,554 1005,558 983,571"/>
<polygon class="pen1 brush0" points="1196,945 1199,952 1220,942 1233,939 1239,942 1241,949 1240,958 1237,967 1234,973 1233,976 1240,977 1241,974 1244,966 1247,956 1248,946 1245,938 1237,933 1221,935 1196,945"/>
<polygon class="pen1 brush0" points="547,419 544,426 523,416 510,413 504,417 502,424 503,434 506,443 509,450 510,453 504,453 503,450 500,442 497,432 496,421 499,412 507,407 523,409 547,419"/>
<polygon class="pen1 brush0" points="960,402 963,409 982,396 995,392 1002,394 1004,401 1004,410 1003,419 1001,426 1000,429 1007,430 1008,427 1010,419 1011,408 1011,397 1007,389 998,385 983,389 960,402"/>
<polygon class="pen1 brush0" points="1196,774 1199,780 1220,770 1233,767 1239,771 1241,778 1240,788 1237,797 1234,804 1233,807 1240,807 1241,804 1244,796 1247,786 1248,775 1245,766 1237,762 1221,764 1196,774"/>
<polygon class="pen1 brush0" points="439,284 436,291 415,281 402,279 396,283 394,290 395,299 398,308 401,315 402,318 396,320 395,317 391,309 389,299 388,288 390,279 399,274 414,275 439,284"/>
</g>
</svg>
