<?xml version="1.0" encoding="UTF-8" standalone="no"?>
<!DOCTYPE svg PUBLIC "-//W3C//DTD SVG 1.0//EN" "http://www.w3.org/TR/2001/REC-SVG-20010904/DTD/svg10.dtd">
<svg xmlns="http://www.w3.org/2000/svg" xmlns:xlink="http://www.w3.org/1999/xlink" fill-rule="evenodd" height="1.974in" preserveAspectRatio="none" stroke-linecap="round" viewBox="0 0 1581 1974" width="1.581in">
<style type="text/css">
.brush0 { fill: rgb(255,255,255); }
.pen0 { stroke: rgb(0,0,0); stroke-width: 1; stroke-linejoin: round; }
.brush1 { fill: none; }
.pen1 { stroke: none; }
.brush2 { fill: rgb(0,0,0); }
</style>
<g>
<polygon class="pen1 brush2" points="0,1974 3,1968 12,1950 26,1922 43,1885 65,1842 88,1793 114,1740 140,1685 166,1629 192,1573 216,1520 238,1471 257,1427 272,1390 283,1361 288,1342 290,1323 292,1294 295,1257 300,1213 307,1164 319,1111 335,1056 357,999 385,943 420,889 463,839 516,794 579,755 652,725 738,703 836,693 935,696 1023,711 1099,738 1166,774 1223,818 1272,868 1312,922 1345,979 1372,1037 1393,1093 1409,1147 1420,1197 1428,1241 1433,1277 1436,1304 1437,1319 1437,1335 1435,1353 1432,1374 1428,1397 1425,1422 1423,1450 1422,1479 1423,1511 1427,1544 1434,1580 1445,1617 1461,1656 1482,1696 1508,1738 1541,1781 1581,1825 1577,1824 1567,1820 1552,1816 1534,1813 1513,1811 1492,1813 1471,1819 1453,1830 1448,1828 1436,1824 1417,1818 1394,1813 1369,1809 1343,1809 1319,1814 1298,1825 1297,1824 1293,1823 1287,1821 1279,1818 1269,1814 1258,1811 1245,1808 1232,1804 1218,1802 1204,1800 1190,1799 1176,1798 1162,1800 1149,1802 1137,1807 1126,1813 1129,1812 1129,1810 1127,1808 1123,1805 1117,1801 1109,1798 1099,1794 1088,1791 1076,1788 1063,1787 1049,1786 1035,1786 1020,1787 1005,1791 990,1796 976,1803 981,1801 995,1794 1016,1783 1044,1767 1075,1748 1110,1724 1147,1697 1183,1666 1218,1632 1251,1595 1279,1555 1301,1512 1316,1466 1322,1418 1318,1367 1302,1314 1277,1264 1246,1223 1211,1191 1171,1165 1129,1147 1085,1134 1040,1127 996,1124 952,1125 911,1129 874,1136 840,1144 812,1153 791,1163 777,1172 771,1180 771,1181 772,1184 774,1188 777,1194 781,1201 788,1208 797,1216 809,1223 823,1231 842,1239 863,1245 890,1251 920,1255 955,1258 996,1259 1042,1258 1040,1259 1033,1262 1022,1267 1007,1272 989,1278 968,1284 945,1290 919,1294 891,1298 862,1300 832,1299 801,1296 769,1290 738,1280 706,1266 676,1247 676,1241 674,1227 670,1205 663,1180 650,1153 632,1128 606,1106 571,1092 573,1093 579,1096 586,1101 596,1109 605,1120 613,1133 619,1149 622,1168 621,1191 614,1217 601,1247 580,1281 551,1318 511,1360 461,1406 399,1457 405,1346 0,1974 0,1974"/>
<polygon class="pen1 brush2" points="339,931 341,925 344,918 348,912 352,905 340,895 329,885 317,873 305,861 292,846 279,830 265,810 250,788 253,790 262,796 275,806 291,817 311,830 332,843 354,856 376,868 381,861 387,853 393,846 399,838 406,831 412,824 419,816 426,809 409,790 395,770 382,750 371,729 361,709 354,690 348,671 343,655 346,659 354,671 366,688 382,708 399,730 417,751 436,770 453,784 462,775 472,767 481,759 491,751 502,743 512,735 523,728 534,720 523,696 512,670 502,641 494,611 486,579 479,548 474,517 471,487 474,494 482,513 493,540 508,573 524,609 541,643 557,674 572,697 581,693 589,688 598,684 607,680 617,675 626,671 635,667 645,663 632,634 620,599 609,560 601,516 595,470 592,421 593,371 599,322 601,333 607,363 616,406 627,457 641,512 657,565 675,612 693,647 703,644 713,642 723,640 733,638 743,636 753,635 763,633 774,632 766,590 758,535 752,472 747,405 745,338 746,275 751,219 761,176 763,194 767,241 774,308 784,387 794,467 806,540 819,596 831,626 831,626 831,626 831,626 831,626 832,626 840,626 847,626 855,626 862,626 870,627 877,627 885,628 893,629 894,595 897,559 900,522 906,485 913,448 924,413 939,380 957,349 953,383 945,464 940,559 943,633 952,635 962,636 971,638 981,640 990,642 1000,645 1009,647 1018,649 1022,632 1027,613 1032,593 1039,572 1047,553 1056,536 1067,521 1079,511 1076,527 1070,567 1063,616 1058,662 1068,665 1078,668 1088,672 1097,676 1107,680 1116,684 1126,688 1135,693 1139,677 1143,663 1147,651 1152,639 1156,628 1162,617 1168,606 1174,595 1173,616 1170,643 1168,674 1167,710 1184,719 1199,729 1214,738 1229,748 1242,758 1255,768 1267,778 1279,788 1289,798 1298,808 1307,818 1315,828 1321,838 1327,847 1332,857 1336,866 1331,857 1319,831 1303,793 1285,746 1269,693 1257,639 1252,586 1258,538 1255,534 1249,530 1240,525 1228,519 1214,511 1199,502 1182,492 1166,480 1149,467 1134,451 1119,434 1106,414 1095,392 1087,368 1083,341 1082,311 1080,310 1075,308 1067,304 1057,299 1044,292 1030,283 1016,273 1000,261 985,247 970,232 956,214 943,195 932,174 923,151 917,126 914,99 912,99 907,99 899,99 889,98 876,97 862,95 847,93 832,89 816,84 800,77 786,69 772,60 760,48 749,34 742,18 737,0 736,6 732,22 725,44 715,70 700,97 680,121 654,139 622,149 621,157 619,178 612,208 601,243 582,280 556,313 519,340 471,355 470,363 465,384 455,413 441,447 421,482 394,512 359,534 316,544 316,547 314,554 311,566 307,580 302,597 294,614 285,633 274,650 261,666 245,680 227,690 206,696 182,697 156,692 126,680 93,660 93,662 92,668 91,678 91,690 92,706 94,723 97,742 103,763 111,784 123,806 138,828 156,849 179,869 207,888 240,905 278,920 295,925 309,929 319,931 327,932 333,932 337,932 338,931 339,931"/>
<polygon class="pen1 brush0" points="416,1244 424,1243 432,1241 439,1237 445,1231 450,1225 454,1218 456,1211 457,1203 456,1195 454,1187 450,1179 445,1173 439,1168 432,1163 424,1161 416,1160 408,1161 400,1163 393,1168 387,1173 382,1179 378,1187 376,1195 375,1203 376,1211 378,1218 382,1225 387,1231 393,1237 400,1241 408,1243 416,1244"/>
</g>
</svg>
