<?xml version="1.0" encoding="UTF-8" standalone="no"?>
<!DOCTYPE svg PUBLIC "-//W3C//DTD SVG 1.0//EN" "http://www.w3.org/TR/2001/REC-SVG-20010904/DTD/svg10.dtd">
<svg xmlns="http://www.w3.org/2000/svg" xmlns:xlink="http://www.w3.org/1999/xlink" fill-rule="evenodd" height="1.364in" preserveAspectRatio="none" stroke-linecap="round" viewBox="0 0 1993 1364" width="1.993in">
<style type="text/css">
.brush0 { fill: rgb(255,255,255); }
.pen0 { stroke: rgb(0,0,0); stroke-width: 1; stroke-linejoin: round; }
.brush1 { fill: none; }
.pen1 { stroke: none; }
.brush2 { fill: rgb(0,0,0); }
</style>
<g>
<polygon class="pen1 brush2" points="1190,753 1193,752 1202,750 1215,750 1232,752 1251,759 1272,772 1293,795 1314,827 1335,866 1358,911 1382,958 1405,1006 1426,1052 1442,1093 1453,1127 1456,1152 1465,1165 1474,1178 1484,1191 1493,1205 1503,1220 1512,1235 1521,1251 1530,1267 1529,1267 1528,1268 1527,1269 1526,1270 1520,1259 1512,1247 1505,1234 1496,1220 1486,1206 1476,1191 1465,1176 1453,1161 1452,1163 1451,1165 1449,1167 1447,1168 1437,1166 1426,1155 1416,1136 1405,1112 1394,1083 1382,1050 1369,1014 1356,978 1341,942 1326,907 1309,875 1290,846 1270,823 1249,806 1225,797 1200,797 1190,753 1190,753"/>
<polygon class="pen1 brush2" points="800,760 797,759 788,757 774,757 757,759 738,767 718,781 697,804 678,837 659,878 637,924 614,974 593,1023 574,1071 560,1113 551,1147 551,1171 543,1182 536,1192 528,1204 521,1215 513,1227 505,1239 498,1252 490,1266 491,1266 494,1267 496,1269 497,1269 502,1260 508,1249 514,1239 520,1227 527,1215 535,1203 544,1191 553,1178 553,1179 554,1179 554,1180 554,1181 564,1181 573,1172 583,1155 593,1131 603,1102 614,1068 626,1032 638,995 652,957 667,921 683,887 701,858 721,833 742,815 765,804 791,803 800,760 800,760"/>
<polygon class="pen1 brush2" points="1088,656 1095,652 1101,647 1108,642 1114,637 1122,639 1131,641 1142,644 1155,647 1169,650 1183,654 1198,658 1214,662 1229,666 1244,669 1259,673 1273,676 1286,679 1298,682 1309,684 1317,685 1326,689 1337,697 1348,708 1359,721 1371,737 1383,754 1395,772 1407,790 1419,807 1431,824 1442,840 1452,853 1462,863 1471,870 1479,873 1486,872 1487,871 1488,871 1489,870 1490,868 1504,879 1516,891 1528,902 1540,913 1550,923 1559,933 1568,943 1575,952 1577,951 1579,950 1580,949 1581,949 1570,936 1558,924 1547,912 1536,901 1524,890 1513,880 1502,870 1491,861 1489,841 1479,815 1462,784 1440,752 1416,721 1391,693 1368,671 1349,658 1341,655 1332,651 1321,648 1308,644 1295,641 1280,637 1265,634 1249,631 1233,627 1217,624 1202,621 1186,618 1172,616 1158,614 1146,612 1135,610 1147,589 1156,565 1161,540 1163,514 1161,491 1155,469 1147,448 1136,428 1168,415 1196,401 1220,386 1240,372 1257,357 1271,343 1282,328 1290,314 1297,301 1301,288 1304,276 1307,265 1308,255 1309,246 1309,239 1310,233 1311,215 1310,198 1304,183 1294,172 1300,150 1306,128 1313,106 1320,88 1319,87 1316,87 1313,86 1312,85 1304,107 1298,130 1293,151 1288,168 1274,168 1269,191 1270,219 1271,233 1267,266 1255,296 1237,322 1215,344 1190,364 1165,380 1142,393 1122,402 1124,393 1125,384 1126,376 1126,367 1124,343 1118,320 1108,299 1095,280 1079,265 1061,253 1040,244 1017,239 1021,209 1026,183 1033,159 1042,138 1052,119 1064,102 1077,87 1092,74 1102,67 1111,61 1122,56 1132,50 1143,46 1154,41 1166,37 1178,33 1190,30 1202,26 1215,23 1228,20 1242,17 1255,15 1270,12 1284,9 1281,0 1264,3 1248,6 1233,10 1218,13 1204,17 1191,20 1178,24 1166,28 1154,33 1143,37 1133,42 1123,47 1113,52 1104,57 1096,62 1088,68 1069,85 1054,104 1041,124 1030,145 1022,168 1016,191 1012,215 1010,239 1003,238 997,237 991,238 986,239 983,220 979,200 975,181 969,160 959,140 947,119 929,98 906,76 898,70 890,64 882,59 873,54 864,49 854,45 843,41 832,37 819,33 806,29 791,26 776,22 758,19 740,15 720,11 699,7 699,16 714,18 729,21 743,23 758,26 772,29 785,31 799,35 812,38 824,42 837,46 849,50 860,55 871,60 882,66 892,73 902,80 916,92 928,107 939,123 950,141 958,161 966,184 972,210 976,239 953,245 933,254 916,267 901,284 889,302 880,324 875,347 874,371 874,379 875,388 876,396 878,404 863,400 848,395 833,388 818,380 804,370 790,360 776,349 764,337 752,325 742,312 733,300 725,288 719,276 714,264 711,253 710,243 709,218 708,196 704,180 697,174 693,156 687,138 679,117 669,94 668,94 666,94 663,95 662,95 670,113 677,132 684,152 690,175 677,186 671,204 670,225 672,243 673,249 674,256 675,265 677,275 679,287 683,299 688,312 695,325 704,339 716,353 730,368 748,382 768,396 793,409 822,423 855,435 846,454 839,475 834,497 834,520 836,544 841,567 849,588 859,608 849,609 837,611 824,613 810,615 795,618 780,621 764,624 748,627 733,631 718,635 703,640 689,644 676,649 665,654 654,659 646,665 630,680 610,702 588,730 565,762 544,794 527,824 515,851 511,871 502,880 493,888 484,897 474,907 465,916 455,926 446,936 436,946 436,947 438,950 439,953 439,953 446,945 453,937 462,928 471,918 481,908 491,898 502,888 514,878 514,880 514,881 515,882 517,884 524,885 532,881 541,873 550,863 560,849 571,833 582,816 593,798 605,780 616,762 627,744 639,729 650,715 660,704 670,696 679,692 688,690 698,687 710,684 723,680 737,676 751,672 767,668 782,663 797,659 812,655 827,651 840,647 853,643 864,640 874,637 882,635 886,639 891,643 896,647 901,651 894,662 886,674 878,687 870,701 862,717 854,733 846,751 838,770 1149,769 1141,752 1133,735 1125,719 1117,704 1109,690 1102,678 1095,666 1088,656 1088,656"/>
<polygon class="pen1 brush2" points="820,821 1169,820 1175,840 1181,861 1185,882 1189,905 801,905 804,883 809,861 814,841 820,821 820,821"/>
<polygon class="pen1 brush2" points="797,956 796,979 797,1001 799,1024 803,1047 1193,1046 1195,1023 1196,1001 1197,978 1196,956 797,956 797,956"/>
<polygon class="pen1 brush2" points="814,1098 818,1109 822,1121 826,1132 830,1143 835,1154 840,1166 846,1177 852,1189 1148,1188 1153,1176 1159,1165 1164,1153 1168,1142 1172,1131 1176,1120 1179,1108 1182,1097 814,1098 814,1098"/>
<polygon class="pen1 brush2" points="885,1239 893,1250 907,1267 924,1288 943,1309 962,1330 979,1347 994,1359 1003,1364 1020,1348 1037,1332 1053,1317 1067,1301 1081,1286 1094,1270 1106,1255 1118,1239 885,1239"/>
<polygon class="pen1 brush2" points="321,584 176,601 177,602 179,606 183,611 189,619 196,627 204,637 213,647 223,658 234,656 246,654 257,652 269,650 280,647 291,645 303,643 314,641 326,638 337,636 349,634 361,632 372,629 384,627 396,624 408,622 399,613 390,606 380,601 369,596 358,593 347,589 334,587 321,584 321,584"/>
<polygon class="pen1 brush2" points="227,665 412,628 416,634 420,641 425,648 429,656 433,665 438,675 442,685 446,696 428,702 411,706 396,711 382,714 369,717 358,718 348,720 339,720 323,719 308,716 293,711 279,704 265,696 251,687 239,676 227,665 227,665"/>
<polygon class="pen1 brush2" points="453,695 482,686 511,677 542,667 573,656 604,645 634,634 664,623 692,613 719,603 743,594 765,585 783,578 799,572 810,567 818,564 820,563 820,562 819,559 817,554 814,547 419,625 424,631 428,638 433,646 437,654 441,663 445,673 449,684 453,695 453,695"/>
<polygon class="pen1 brush2" points="807,526 808,525 809,527 811,533 814,543 799,546 782,549 764,552 744,556 722,560 699,564 675,569 649,574 623,579 595,585 567,590 537,596 508,602 477,608 447,615 416,621 407,612 398,604 388,598 378,593 368,590 358,587 348,585 337,583 807,526 807,526"/>
<polygon class="pen1 brush2" points="825,438 359,266 361,282 363,297 364,312 364,327 403,337 441,348 479,358 516,368 552,378 587,387 620,396 652,405 682,414 710,421 735,428 758,435 778,440 794,445 808,449 818,452 825,438 825,438"/>
<polygon class="pen1 brush2" points="362,334 817,459 813,472 810,484 808,493 807,497 747,508 690,517 637,525 587,531 540,536 497,540 456,543 418,544 382,545 349,544 319,543 291,541 265,537 241,533 219,528 199,523 221,511 241,498 259,486 276,474 291,462 304,450 315,438 325,426 334,415 341,403 347,391 352,380 356,368 359,357 361,345 362,334 362,334"/>
<polygon class="pen1 brush2" points="205,291 191,311 178,332 165,352 150,370 133,386 112,398 85,406 53,408 63,424 74,440 86,455 100,470 117,484 136,497 159,509 187,520 210,506 231,493 249,480 266,467 282,455 295,443 307,432 318,420 326,409 334,398 340,387 345,376 349,365 352,354 354,342 355,331 205,291 205,291"/>
<polygon class="pen1 brush2" points="24,246 196,290 181,311 167,332 154,351 140,368 124,382 104,393 80,399 50,401 45,394 40,386 35,379 30,372 20,355 14,339 10,322 9,306 11,290 14,275 18,260 24,246 24,246"/>
<polygon class="pen1 brush2" points="351,263 354,280 356,295 356,310 355,326 333,320 311,314 289,308 267,302 245,296 224,290 202,284 181,279 161,273 140,268 120,263 100,257 81,252 63,247 45,242 27,237 35,221 44,207 53,194 61,184 69,175 75,169 79,165 80,164 351,263 351,263"/>
<polygon class="pen1 brush2" points="1673,584 1817,601 1816,602 1814,606 1810,611 1804,619 1797,627 1789,637 1780,647 1770,658 1759,656 1747,654 1736,652 1725,650 1713,647 1702,645 1691,643 1680,641 1668,638 1657,636 1646,634 1634,632 1622,629 1611,627 1599,624 1587,622 1596,613 1605,606 1615,601 1625,596 1636,593 1648,589 1660,587 1673,584 1673,584"/>
<polygon class="pen1 brush2" points="1767,665 1582,628 1578,634 1574,641 1570,648 1565,656 1561,665 1557,675 1552,685 1548,696 1566,702 1583,706 1598,711 1611,714 1624,717 1635,718 1645,720 1653,720 1669,719 1685,716 1700,711 1715,704 1729,696 1743,687 1755,676 1767,665 1767,665"/>
<polygon class="pen1 brush2" points="1541,695 1513,686 1483,677 1452,667 1421,656 1391,645 1360,634 1331,623 1303,613 1276,603 1252,594 1230,585 1211,578 1196,572 1185,567 1177,564 1175,563 1175,562 1176,559 1177,554 1179,547 1574,625 1569,631 1565,638 1560,646 1556,654 1552,663 1549,673 1545,684 1541,695 1541,695"/>
<polygon class="pen1 brush2" points="1186,526 1186,525 1185,527 1183,533 1180,543 1195,546 1211,549 1230,552 1250,556 1271,560 1294,564 1319,569 1344,574 1371,579 1398,585 1427,590 1456,596 1486,602 1516,608 1547,615 1578,621 1587,612 1596,604 1605,598 1615,593 1625,590 1635,587 1646,585 1656,583 1186,526 1186,526"/>
<polygon class="pen1 brush2" points="1168,438 1635,266 1632,282 1630,297 1629,312 1629,327 1590,337 1552,348 1514,358 1477,368 1441,378 1406,387 1373,396 1341,405 1311,414 1284,421 1258,428 1236,435 1216,440 1199,445 1186,449 1176,452 1168,438 1168,438"/>
<polygon class="pen1 brush2" points="1631,334 1176,459 1180,472 1183,484 1185,493 1186,497 1246,508 1303,517 1356,525 1406,531 1453,536 1497,540 1537,543 1576,544 1611,545 1644,544 1674,543 1702,541 1728,537 1752,533 1774,528 1794,523 1772,511 1752,498 1733,486 1717,474 1702,462 1689,450 1677,438 1668,426 1659,415 1652,403 1646,391 1641,380 1637,368 1634,357 1632,345 1631,334 1631,334"/>
<polygon class="pen1 brush2" points="1788,291 1802,311 1815,332 1829,352 1843,370 1861,386 1882,398 1908,406 1940,408 1930,424 1919,440 1907,455 1893,470 1876,484 1856,497 1833,509 1805,520 1782,506 1762,493 1743,480 1726,467 1711,455 1698,443 1686,432 1676,420 1667,409 1659,398 1653,387 1648,376 1644,365 1641,354 1639,342 1638,331 1788,291 1788,291"/>
<polygon class="pen1 brush2" points="1970,246 1797,290 1812,311 1826,332 1839,351 1854,368 1870,382 1890,393 1915,399 1945,401 1949,394 1953,386 1958,379 1963,372 1973,355 1979,339 1983,322 1984,306 1983,290 1980,275 1976,260 1970,246 1970,246"/>
<polygon class="pen1 brush2" points="1642,263 1640,280 1638,295 1637,310 1638,326 1660,320 1683,314 1705,308 1727,302 1749,296 1770,290 1792,284 1813,279 1833,273 1854,268 1874,263 1894,257 1913,252 1931,247 1949,242 1967,237 1959,221 1950,207 1941,194 1932,184 1925,175 1918,169 1914,165 1913,164 1642,263"/>
<polygon class="pen1 brush0" points="945,324 953,322 960,317 964,310 966,301 964,293 959,286 952,282 943,280 935,282 928,287 924,294 922,303 924,311 929,318 936,322 945,324"/>
<polygon class="pen1 brush0" points="1055,326 1064,324 1071,319 1075,312 1077,304 1075,294 1070,287 1063,283 1054,281 1046,283 1040,288 1036,295 1034,304 1036,312 1040,319 1047,324 1055,326"/>
</g>
</svg>
