<?xml version="1.0" encoding="UTF-8" standalone="no"?>
<!DOCTYPE svg PUBLIC "-//W3C//DTD SVG 1.0//EN" "http://www.w3.org/TR/2001/REC-SVG-20010904/DTD/svg10.dtd">
<svg xmlns="http://www.w3.org/2000/svg" xmlns:xlink="http://www.w3.org/1999/xlink" fill-rule="evenodd" height="1.985in" preserveAspectRatio="none" stroke-linecap="round" viewBox="0 0 1679 1985" width="1.679in">
<style type="text/css">
.brush0 { fill: rgb(255,255,255); }
.pen0 { stroke: rgb(0,0,0); stroke-width: 1; stroke-linejoin: round; }
.brush1 { fill: none; }
.pen1 { stroke: none; }
.brush2 { fill: rgb(0,0,0); }
</style>
<g>
<polygon class="pen1 brush2" points="1562,1054 1562,1064 1559,1091 1554,1132 1545,1183 1530,1239 1508,1297 1477,1352 1437,1402 1433,1412 1435,1429 1442,1452 1454,1478 1472,1506 1495,1536 1524,1564 1558,1591 1554,1597 1544,1616 1530,1646 1514,1686 1498,1735 1484,1793 1474,1858 1470,1929 1437,1943 1439,1945 1441,1952 1441,1964 1433,1980 1315,1980 1316,1977 1320,1969 1326,1957 1333,1944 1340,1930 1349,1918 1357,1909 1365,1904 1366,1903 1368,1899 1372,1893 1377,1885 1384,1877 1392,1868 1401,1859 1412,1850 1413,1844 1415,1828 1419,1803 1424,1773 1430,1740 1435,1705 1441,1671 1446,1641 1443,1640 1434,1636 1420,1630 1403,1621 1383,1609 1361,1593 1339,1574 1316,1552 1295,1525 1276,1495 1261,1460 1249,1421 1243,1378 1243,1329 1251,1276 1266,1217 1263,1221 1256,1232 1245,1249 1233,1270 1220,1293 1209,1316 1202,1339 1199,1359 1195,1360 1183,1361 1163,1363 1138,1366 1108,1369 1074,1372 1037,1375 998,1378 957,1380 916,1381 877,1381 838,1380 803,1378 771,1373 744,1367 722,1359 718,1371 708,1405 695,1459 680,1527 667,1609 656,1700 652,1797 655,1897 625,1926 624,1932 621,1945 616,1963 608,1980 483,1985 486,1975 490,1964 495,1952 501,1941 509,1931 517,1923 526,1917 537,1914 538,1913 540,1909 543,1903 548,1895 555,1886 564,1876 575,1866 588,1855 585,1791 579,1646 572,1488 567,1389 563,1383 554,1365 541,1337 526,1301 511,1259 498,1212 489,1163 487,1112 456,1072 428,1029 404,981 383,932 366,881 355,830 348,779 348,730 346,730 342,731 335,732 326,733 315,735 302,736 288,738 272,739 256,740 239,741 222,741 205,740 188,739 172,737 157,734 143,730 125,727 104,728 83,730 61,731 41,728 23,718 9,698 0,666 2,665 6,663 13,660 22,656 32,651 45,645 58,638 72,630 86,622 101,613 115,604 128,594 141,584 152,574 161,564 169,554 182,535 196,519 212,506 227,495 242,487 256,481 270,476 281,473 291,432 286,427 272,413 253,390 232,358 213,319 198,273 192,219 197,159 198,166 200,186 206,215 215,250 230,287 251,324 279,357 315,382 319,380 324,376 332,371 342,365 353,358 365,349 378,339 392,327 407,315 422,300 437,284 451,267 466,248 479,227 492,204 504,180 501,176 495,167 486,152 476,132 467,110 459,86 456,62 457,37 458,40 460,50 464,63 470,78 479,94 491,108 506,119 524,125 542,124 555,116 564,102 571,84 575,64 578,42 581,20 584,0 585,2 587,7 591,15 594,27 596,42 596,60 594,82 589,107 579,136 565,168 546,203 520,242 487,284 446,330 396,379 337,432 332,466 365,487 366,486 367,483 370,478 374,471 379,464 385,455 393,446 403,436 413,426 426,416 440,406 456,397 473,389 493,382 514,376 537,372 540,377 539,391 534,412 524,437 508,463 485,487 456,507 419,520 421,522 427,527 437,534 449,545 464,559 481,574 500,592 520,612 541,634 563,658 584,683 604,709 624,736 642,764 658,792 672,821 676,822 688,825 706,830 728,836 753,845 778,855 803,867 825,881 827,881 832,881 838,880 846,879 856,878 868,877 881,875 896,873 913,872 931,870 950,869 971,868 992,867 1015,866 1039,866 1064,866 1089,867 1115,868 1143,870 1170,872 1198,876 1227,880 1256,885 1285,891 1315,898 1345,906 1374,915 1404,925 1434,937 1463,950 1492,964 1521,980 1524,975 1533,963 1548,944 1566,922 1588,896 1613,871 1641,846 1669,825 1674,861 1673,895 1666,929 1655,960 1647,975 1639,989 1629,1002 1618,1014 1605,1026 1592,1036 1578,1046 1562,1054"/>
<polygon class="pen1 brush0" points="274,619 285,617 294,610 300,601 302,589 300,578 294,569 285,563 274,561 268,562 262,563 257,566 252,569 248,574 245,578 244,583 243,589 244,595 245,601 248,606 252,610 257,614 262,617 268,618 274,619"/>
<polygon class="pen1 brush0" points="734,963 749,963 762,961 774,959 785,957 793,954 800,950 804,947 805,943 804,938 800,934 793,931 785,928 774,925 762,923 749,922 734,922 720,922 707,923 695,925 684,928 675,931 669,934 664,938 663,943 664,947 669,950 675,954 684,957 695,959 707,961 720,963 734,963 734,963"/>
<polygon class="pen1 brush0" points="1253,998 1267,998 1280,997 1292,995 1303,993 1312,990 1318,987 1323,984 1324,980 1323,975 1318,971 1312,968 1303,965 1292,962 1280,960 1267,959 1253,959 1238,959 1225,960 1213,962 1203,965 1194,968 1187,971 1183,975 1182,980 1183,984 1187,987 1194,990 1203,993 1213,995 1225,997 1238,998 1253,998 1253,998"/>
<polygon class="pen1 brush0" points="997,976 1012,976 1025,974 1037,972 1048,969 1056,966 1063,962 1067,958 1068,954 1067,950 1063,946 1056,943 1048,939 1037,937 1025,935 1012,933 997,933 982,933 969,935 957,937 947,939 938,943 931,946 927,950 926,954 927,958 931,962 938,966 947,969 957,972 969,974 982,976 997,976 997,976"/>
<polygon class="pen1 brush0" points="835,1054 849,1054 863,1052 875,1050 885,1048 894,1044 900,1041 905,1037 906,1033 905,1029 900,1025 894,1021 885,1018 875,1016 863,1014 849,1013 835,1013 820,1013 807,1014 795,1016 785,1018 776,1021 769,1025 765,1029 764,1033 765,1037 769,1041 776,1044 785,1048 795,1050 807,1052 820,1054 835,1054 835,1054"/>
<polygon class="pen1 brush0" points="700,1138 715,1138 728,1136 740,1134 751,1132 759,1129 766,1125 770,1121 771,1116 770,1112 766,1108 759,1105 751,1101 740,1099 728,1097 715,1095 700,1095 686,1095 673,1097 661,1099 650,1101 641,1105 635,1108 630,1112 629,1116 630,1121 635,1125 641,1129 650,1132 661,1134 673,1136 686,1138 700,1138 700,1138"/>
<polygon class="pen1 brush0" points="993,1146 1008,1146 1021,1144 1033,1142 1044,1140 1052,1136 1059,1133 1063,1129 1064,1125 1063,1121 1059,1117 1052,1114 1044,1111 1033,1108 1021,1107 1008,1105 993,1105 978,1105 965,1107 953,1108 943,1111 934,1114 927,1117 923,1121 922,1125 923,1129 927,1133 934,1136 943,1140 953,1142 965,1144 978,1146 993,1146 993,1146"/>
<polygon class="pen1 brush0" points="1094,1065 1108,1065 1121,1064 1133,1062 1144,1059 1153,1057 1159,1053 1164,1049 1165,1045 1164,1041 1159,1037 1153,1034 1144,1030 1133,1028 1121,1026 1108,1024 1094,1024 1079,1024 1066,1026 1054,1028 1044,1030 1035,1034 1028,1037 1024,1041 1023,1045 1024,1049 1028,1053 1035,1057 1044,1059 1054,1062 1066,1064 1079,1065 1094,1065 1094,1065"/>
<polygon class="pen1 brush0" points="1253,1146 1267,1146 1280,1144 1292,1142 1303,1140 1312,1136 1318,1133 1323,1129 1324,1125 1323,1121 1318,1117 1312,1114 1303,1111 1292,1108 1280,1107 1267,1105 1253,1105 1238,1105 1225,1107 1213,1108 1203,1111 1194,1114 1187,1117 1183,1121 1182,1125 1183,1129 1187,1133 1194,1136 1203,1140 1213,1142 1225,1144 1238,1146 1253,1146 1253,1146"/>
<polygon class="pen1 brush0" points="1386,1087 1401,1087 1414,1085 1426,1084 1437,1081 1445,1078 1452,1075 1456,1071 1457,1067 1456,1062 1452,1058 1445,1054 1437,1051 1426,1049 1414,1047 1401,1045 1386,1045 1372,1045 1359,1047 1347,1049 1336,1051 1327,1054 1321,1058 1316,1062 1315,1067 1316,1071 1321,1075 1327,1078 1336,1081 1347,1084 1359,1085 1372,1087 1386,1087"/>
</g>
</svg>
