<?xml version="1.0" encoding="UTF-8" standalone="no"?>
<!DOCTYPE svg PUBLIC "-//W3C//DTD SVG 1.0//EN" "http://www.w3.org/TR/2001/REC-SVG-20010904/DTD/svg10.dtd">
<svg xmlns="http://www.w3.org/2000/svg" xmlns:xlink="http://www.w3.org/1999/xlink" fill-rule="evenodd" height="1.98in" preserveAspectRatio="none" stroke-linecap="round" viewBox="0 0 1767 1980" width="1.767in">
<style type="text/css">
.brush0 { fill: rgb(255,255,255); }
.pen0 { stroke: rgb(0,0,0); stroke-width: 1; stroke-linejoin: round; }
.brush1 { fill: none; }
.pen1 { stroke: none; }
.brush2 { fill: rgb(0,0,0); }
</style>
<g>
<polygon class="pen1 brush2" points="703,1877 821,1875 737,1909 841,1963 693,1941 543,1980 635,1921 511,1899 666,1879 673,1693 629,1632 632,1633 640,1634 651,1636 666,1637 681,1637 696,1637 709,1634 720,1629 703,1877 703,1877"/>
<polygon class="pen1 brush2" points="54,788 111,696 159,777 209,700 254,774 312,693 368,768 418,700 537,778 506,704 523,716 545,731 570,748 599,766 631,783 666,800 703,814 741,824 781,830 821,830 862,824 903,809 943,786 981,753 1019,709 1054,653 1073,622 1093,593 1114,567 1137,543 1161,520 1187,500 1213,481 1240,464 1267,449 1295,436 1323,424 1352,414 1381,405 1410,398 1438,392 1466,388 1494,384 1521,382 1548,381 1574,382 1598,383 1622,385 1644,388 1665,392 1685,396 1703,401 1719,407 1733,414 1745,421 1754,428 1762,436 1767,444 1765,444 1758,444 1749,445 1736,446 1720,447 1702,449 1683,451 1663,454 1642,458 1621,462 1600,468 1581,474 1562,481 1546,490 1532,499 1521,510 1524,512 1531,517 1542,526 1557,538 1575,554 1595,572 1615,593 1637,617 1659,643 1679,672 1699,704 1716,737 1730,772 1741,810 1748,848 1750,889 1743,889 1737,885 1729,879 1718,872 1706,865 1693,857 1678,849 1661,840 1643,832 1624,825 1603,818 1582,812 1560,806 1537,803 1514,801 1490,800 1466,802 1469,804 1473,808 1480,815 1488,825 1497,838 1508,853 1519,870 1531,889 1531,889 1557,934 1582,987 1604,1045 1621,1107 1630,1173 1630,1240 1617,1308 1591,1376 1591,1374 1591,1369 1591,1362 1590,1352 1588,1339 1585,1324 1581,1308 1574,1290 1566,1272 1554,1252 1540,1232 1523,1211 1502,1191 1478,1170 1449,1151 1416,1132 1419,1141 1426,1168 1434,1210 1439,1265 1437,1331 1426,1405 1401,1484 1359,1568 1359,1558 1358,1530 1354,1490 1347,1441 1336,1389 1319,1338 1295,1293 1264,1258 1263,1265 1260,1286 1253,1316 1242,1352 1226,1392 1202,1432 1172,1469 1132,1500 1133,1492 1137,1483 1141,1472 1145,1456 1146,1436 1144,1410 1137,1378 1124,1338 1123,1342 1119,1353 1114,1368 1106,1387 1096,1407 1085,1426 1072,1443 1058,1456 1059,1448 1060,1428 1059,1403 1055,1378 1046,1360 1029,1355 1003,1369 966,1408 945,1434 924,1457 902,1479 881,1498 859,1516 838,1532 817,1545 797,1558 778,1568 760,1577 743,1585 727,1591 712,1596 699,1600 688,1603 679,1604 666,1604 645,1603 617,1599 582,1593 542,1583 499,1570 452,1552 404,1529 354,1500 305,1466 257,1424 212,1376 170,1319 133,1255 102,1181 77,1098 67,1048 59,996 54,943 51,889 53,889 52,864 52,838 52,813 54,788 54,788"/>
<polygon class="pen1 brush2" points="152,257 159,267 163,277 165,288 164,299 161,310 156,320 150,329 143,336 120,356 97,377 76,399 59,421 49,443 47,463 57,482 79,497 101,499 123,490 145,472 166,447 183,420 197,392 205,365 206,344 201,318 194,298 185,283 176,272 167,264 159,260 154,258 152,257 152,257"/>
<polygon class="pen1 brush2" points="54,767 108,683 112,683 160,757 206,683 207,683 254,756 310,679 314,679 368,750 415,686 418,686 514,753 486,687 464,653 446,608 431,555 418,498 406,441 397,388 388,343 379,308 368,280 354,255 339,232 321,213 302,197 281,185 258,177 234,173 212,173 194,177 179,184 166,192 155,202 144,212 133,221 121,230 125,230 133,230 142,232 149,234 175,254 196,274 211,295 221,316 226,337 228,358 226,379 220,399 212,419 202,438 190,456 177,474 163,490 148,505 134,519 121,531 109,546 98,566 88,592 79,622 71,656 64,692 58,729 54,767 54,767"/>
<polygon class="pen1 brush2" points="112,214 108,207 109,183 115,153 128,129 134,120 136,111 136,101 133,92 129,83 124,75 119,66 115,59 162,92 199,18 223,71 288,0 295,64 382,21 372,64 420,51 409,105 460,91 457,96 449,111 436,130 421,152 402,173 383,190 364,199 345,197 336,193 325,187 314,181 303,175 290,170 277,164 263,160 249,157 234,155 218,155 202,158 185,162 167,170 149,181 131,196 112,214 112,214"/>
<polygon class="pen1 brush2" points="111,240 115,242 120,246 125,250 130,255 135,260 138,266 141,272 142,278 51,284 111,240"/>
<polygon class="pen1 brush0" points="216,246 223,244 229,240 233,234 234,227 233,220 229,215 223,211 216,210 210,211 204,215 200,220 199,227 200,234 204,240 210,244 216,246"/>
<polygon class="pen1 brush0" points="1159,1179 1124,1160 1094,1141 1068,1123 1045,1106 1025,1090 1009,1074 995,1060 984,1047 974,1035 967,1025 962,1017 958,1011 955,1006 952,1004 951,1004 949,1007 949,1011 950,1019 955,1032 965,1049 982,1070 1008,1096 1045,1125 1095,1158 916,1129 987,1231 788,1186 818,1327 669,1227 655,1328 620,1315 589,1300 562,1282 539,1263 520,1242 503,1220 489,1197 478,1173 469,1150 461,1126 456,1103 451,1081 447,1059 444,1040 442,1022 439,1006 438,1023 439,1043 440,1065 444,1089 448,1114 455,1140 464,1166 475,1193 488,1219 504,1245 523,1269 545,1293 571,1314 599,1334 632,1351 668,1365 683,1257 852,1369 814,1209 1024,1256 953,1149 1159,1179"/>
</g>
</svg>
