<?xml version="1.0" encoding="UTF-8" standalone="no"?>
<!DOCTYPE svg PUBLIC "-//W3C//DTD SVG 1.0//EN" "http://www.w3.org/TR/2001/REC-SVG-20010904/DTD/svg10.dtd">
<svg xmlns="http://www.w3.org/2000/svg" xmlns:xlink="http://www.w3.org/1999/xlink" fill-rule="evenodd" height="1.182in" preserveAspectRatio="none" stroke-linecap="round" viewBox="0 0 1976 1182" width="1.976in">
<style type="text/css">
.brush0 { fill: rgb(255,255,255); }
.pen0 { stroke: rgb(0,0,0); stroke-width: 1; stroke-linejoin: round; }
.brush1 { fill: none; }
.pen1 { stroke: none; }
.brush2 { fill: rgb(0,0,0); }
</style>
<g>
<polygon class="pen1 brush2" points="1588,145 1570,132 1551,119 1532,107 1513,96 1494,86 1475,76 1455,68 1436,60 1416,52 1397,45 1377,39 1358,34 1338,29 1319,24 1299,20 1280,17 1256,14 1232,12 1208,11 1185,10 1162,9 1138,10 1115,11 1093,12 1071,14 1049,16 1027,19 1006,22 985,25 965,29 945,33 926,37 899,44 872,51 847,58 824,65 801,73 780,80 761,87 744,94 728,101 714,107 702,112 692,117 684,121 678,124 674,125 673,126 670,107 665,90 659,77 653,66 647,58 643,52 639,49 638,48 545,126 519,112 493,102 469,95 447,91 425,90 405,91 386,94 369,98 354,104 340,109 329,116 319,121 311,127 306,131 302,134 301,135 240,78 220,103 207,129 199,154 196,180 197,205 202,230 209,254 218,276 229,297 241,316 252,333 263,347 273,359 281,368 286,373 288,375 291,400 297,423 307,443 318,459 329,472 339,482 345,488 348,490 368,521 387,543 404,558 421,567 437,570 451,568 465,563 477,554 488,544 497,532 506,519 513,507 518,496 522,487 524,481 525,479 543,469 557,455 568,438 576,420 582,403 585,389 587,379 588,375 593,405 592,431 586,452 577,468 567,481 558,489 551,494 548,496 546,503 542,513 535,527 528,541 520,555 513,567 509,575 507,578 515,597 525,616 536,635 549,654 563,672 579,691 595,709 612,726 629,743 647,760 664,776 682,791 699,806 716,820 732,833 747,845 738,872 723,904 706,937 688,970 671,1000 656,1025 646,1041 642,1047 626,1062 610,1080 596,1101 584,1121 573,1139 565,1155 560,1165 558,1169 612,1133 633,1173 669,1138 711,1173 726,1085 745,1065 763,1044 781,1021 798,997 814,973 829,949 843,926 856,903 868,882 878,861 887,843 895,828 901,815 905,805 908,799 909,797 893,778 877,758 861,737 846,715 831,692 817,668 804,644 792,619 780,594 769,568 760,543 751,517 744,491 737,465 733,440 729,415 739,446 752,477 765,509 781,540 797,570 815,600 833,629 852,656 866,654 881,652 895,649 910,646 924,643 939,640 953,636 968,633 982,629 997,625 1011,621 1025,617 1040,614 1054,610 1068,606 1082,602 1089,560 1100,515 1113,469 1131,423 1152,380 1177,341 1206,309 1240,284 1213,327 1190,372 1169,419 1153,467 1139,516 1129,565 1122,615 1119,666 1120,716 1124,766 1132,816 1144,865 1159,914 1179,961 1202,1007 1230,1051 1208,1070 1192,1089 1179,1109 1171,1128 1165,1144 1162,1157 1160,1166 1160,1169 1203,1138 1221,1182 1251,1142 1278,1176 1294,1161 1310,1146 1324,1131 1337,1116 1347,1101 1354,1088 1357,1077 1356,1068 1328,984 1315,910 1312,848 1316,797 1325,757 1336,729 1344,712 1348,706 1347,737 1346,756 1345,765 1344,767 1357,756 1370,742 1383,729 1395,715 1404,702 1412,692 1417,686 1419,683 1417,710 1414,728 1411,737 1409,740 1420,730 1432,715 1445,698 1459,678 1471,658 1483,638 1491,620 1497,606 1497,619 1498,632 1499,645 1501,656 1532,618 1557,576 1578,529 1593,479 1605,428 1613,377 1617,327 1619,280 1647,284 1674,292 1700,303 1724,317 1746,334 1766,354 1785,376 1803,399 1819,424 1833,450 1845,477 1856,504 1865,532 1873,559 1879,585 1883,611 1890,668 1892,722 1890,771 1884,815 1875,856 1862,893 1848,926 1831,954 1812,980 1792,1001 1771,1019 1749,1034 1728,1045 1706,1052 1686,1057 1667,1058 1633,1053 1604,1040 1580,1021 1561,998 1547,972 1537,945 1530,919 1527,896 1529,874 1536,851 1549,829 1565,810 1584,793 1606,780 1630,772 1655,770 1678,772 1699,778 1718,787 1734,799 1747,814 1759,830 1768,849 1774,869 1774,863 1773,847 1768,824 1760,798 1746,773 1724,750 1693,735 1652,730 1629,732 1608,735 1589,741 1571,748 1555,757 1540,767 1527,779 1515,791 1505,804 1496,818 1489,833 1483,847 1479,862 1477,877 1476,892 1476,906 1477,921 1480,937 1484,953 1489,970 1496,986 1504,1003 1513,1019 1524,1035 1536,1049 1549,1063 1564,1075 1580,1086 1598,1095 1617,1102 1638,1106 1660,1108 1680,1107 1700,1105 1722,1100 1744,1093 1767,1084 1790,1073 1812,1059 1834,1042 1856,1022 1876,1000 1895,975 1913,946 1929,914 1943,879 1954,840 1963,798 1969,755 1973,709 1973,659 1970,606 1968,576 1965,545 1960,514 1954,483 1946,452 1937,421 1926,391 1913,361 1901,337 1888,314 1874,291 1859,270 1842,250 1825,231 1807,214 1787,199 1766,185 1744,173 1721,163 1697,154 1671,149 1645,145 1617,144 1588,145 1588,145"/>
<polygon class="pen1 brush2" points="263,392 268,408 274,427 282,446 292,466 304,486 318,506 335,525 355,543 352,546 343,554 329,567 311,585 290,608 267,634 243,664 219,696 196,732 174,770 155,810 140,852 130,895 125,938 127,983 136,1027 88,996 65,1044 40,1000 0,1034 0,1030 2,1017 4,996 8,969 14,935 22,897 32,853 45,806 60,757 78,705 99,651 124,597 153,544 185,491 222,440 263,392"/>
<polygon class="pen1 brush0" points="440,530 455,528 467,521 475,512 480,501 482,490 483,479 483,470 483,463 483,464 472,468 460,470 446,471 433,471 420,470 408,468 398,466 390,464 390,463 390,467 390,475 390,486 392,498 397,510 405,520 417,527 433,530 440,530 440,530"/>
<polygon class="pen1 brush0" points="481,453 471,456 459,458 446,459 433,459 420,458 408,457 398,455 390,453 390,453 369,445 354,433 342,418 334,402 329,386 326,373 325,364 325,361 307,341 293,322 284,304 279,285 279,267 283,248 292,228 305,207 322,190 339,180 357,176 375,177 392,182 408,188 422,196 434,203 439,203 451,196 465,188 481,182 498,177 516,176 534,180 551,190 568,207 581,228 590,248 594,267 594,285 589,304 580,322 566,341 548,361 548,364 547,373 544,386 539,402 530,418 518,433 502,445 481,453 481,453 481,453"/>
<polygon class="pen1 brush0" points="579,139 584,147 589,155 594,164 600,174 604,185 608,197 611,210 612,224 614,222 620,218 627,209 633,197 638,180 639,158 634,131 621,98 579,139 579,139"/>
<polygon class="pen1 brush0" points="284,158 243,116 230,149 224,177 225,199 229,216 235,228 242,237 248,242 250,243 252,229 255,216 260,204 264,193 269,183 275,174 280,165 284,158"/>
<polygon class="pen1 brush2" points="365,294 375,292 382,287 387,280 389,271 387,261 382,254 375,249 365,247 356,249 349,254 344,261 342,271 344,280 349,287 356,292 365,294 365,294"/>
<polygon class="pen1 brush2" points="496,288 504,286 511,281 516,274 518,266 516,257 511,249 504,243 496,241 487,243 480,249 475,257 473,266 475,274 480,281 487,286 496,288 496,288"/>
<polygon class="pen1 brush2" points="410,391 412,388 412,383 410,376 406,369 401,363 396,359 392,357 389,358 388,360 388,365 390,371 393,379 398,385 403,389 407,391 410,391 410,391"/>
<polygon class="pen1 brush2" points="460,388 458,385 458,379 459,373 463,366 468,360 473,356 477,354 481,354 482,357 482,361 481,368 477,375 472,381 467,386 463,388 460,388"/>
</g>
</svg>
