<?xml version="1.0" encoding="UTF-8" standalone="no"?>
<!DOCTYPE svg PUBLIC "-//W3C//DTD SVG 1.0//EN" "http://www.w3.org/TR/2001/REC-SVG-20010904/DTD/svg10.dtd">
<svg xmlns="http://www.w3.org/2000/svg" xmlns:xlink="http://www.w3.org/1999/xlink" fill-rule="evenodd" height="1.976in" preserveAspectRatio="none" stroke-linecap="round" viewBox="0 0 1282 1976" width="1.282in">
<style type="text/css">
.brush0 { fill: rgb(255,255,255); }
.pen0 { stroke: rgb(0,0,0); stroke-width: 1; stroke-linejoin: round; }
.brush1 { fill: none; }
.pen1 { stroke: none; }
.brush2 { fill: rgb(0,0,0); }
</style>
<g>
<polygon class="pen1 brush2" points="677,355 679,355 686,355 697,356 712,357 729,358 750,361 772,364 796,369 797,363 799,347 799,322 795,288 786,247 769,200 741,149 701,94 688,151 688,70 688,70 688,33 686,22 681,14 674,10 666,8 657,10 650,15 645,23 643,34 643,80 643,80 643,80 643,81 643,81 643,151 630,94 590,148 562,198 545,243 536,282 532,314 532,339 534,354 535,359 561,358 584,357 604,356 622,355 636,355 647,355 654,355 656,355 677,355 677,355"/>
<polygon class="pen1 brush2" points="640,1831 679,1830 717,1826 755,1819 792,1810 828,1799 863,1785 898,1769 931,1751 963,1731 994,1709 1024,1685 1053,1660 1080,1632 1106,1603 1130,1572 1153,1540 1182,1494 1207,1445 1229,1394 1248,1340 1263,1285 1273,1228 1280,1169 1282,1109 1281,1072 1279,1036 1275,1000 1269,964 1262,929 1253,895 1243,862 1231,829 1218,797 1204,766 1189,735 1172,706 1154,678 1135,650 1114,624 1093,599 1071,575 1048,553 1024,531 998,511 972,492 946,475 918,459 889,445 860,432 830,420 800,411 769,403 737,396 705,392 673,389 640,388 604,389 569,392 534,398 500,405 466,415 433,426 401,440 370,455 340,472 310,491 282,512 254,534 228,558 203,583 179,610 156,638 121,687 91,739 64,795 42,853 24,914 11,977 3,1042 0,1109 2,1160 6,1210 14,1259 24,1306 37,1353 53,1398 71,1441 92,1483 114,1521 138,1558 164,1592 192,1625 222,1656 254,1685 287,1711 321,1735 357,1757 395,1776 433,1792 473,1806 513,1817 555,1825 597,1829 640,1831 640,1831"/>
<polygon class="pen1 brush2" points="1130,287 1107,285 1088,285 1073,287 1060,290 1051,294 1044,297 1040,300 1039,301 1062,302 1081,306 1096,313 1107,321 1115,330 1121,338 1124,343 1125,345 1113,340 1100,337 1088,335 1077,335 1067,336 1060,337 1055,338 1053,338 1077,347 1095,359 1107,371 1116,384 1121,397 1124,407 1125,413 1125,416 1118,411 1110,403 1099,396 1087,390 1073,386 1058,387 1042,392 1025,405 1008,419 993,431 978,440 965,445 952,447 940,445 928,439 917,429 908,416 903,402 902,387 905,371 913,354 926,334 945,313 971,290 999,271 1027,263 1054,261 1079,264 1099,271 1116,278 1126,285 1130,287 1130,287"/>
<polygon class="pen1 brush2" points="170,278 174,276 184,270 201,263 221,257 246,254 273,256 301,265 329,284 355,307 374,328 387,347 395,364 398,380 397,395 392,409 383,422 372,432 360,438 348,440 335,438 322,433 307,424 292,412 275,398 258,386 242,380 227,380 213,383 201,389 191,397 182,404 176,409 176,406 177,399 180,389 185,377 193,364 206,351 224,340 247,331 245,331 240,330 233,329 223,328 212,328 200,330 188,333 176,338 177,336 180,331 185,323 193,314 205,306 219,299 238,294 261,293 260,292 256,290 249,286 240,282 227,279 211,277 192,276 170,278 170,278"/>
<polygon class="pen1 brush2" points="167,1682 170,1685 177,1692 189,1702 204,1715 221,1730 240,1746 259,1761 278,1775 277,1779 275,1790 271,1805 265,1824 257,1844 247,1864 235,1883 221,1897 218,1900 214,1903 209,1905 204,1907 198,1880 197,1856 200,1833 207,1811 201,1809 193,1833 190,1859 192,1885 198,1909 192,1911 186,1913 179,1915 172,1916 165,1918 158,1919 150,1919 143,1920 137,1893 135,1865 137,1835 142,1807 134,1807 129,1835 128,1864 129,1893 134,1920 127,1921 120,1921 113,1920 106,1919 99,1918 92,1916 85,1914 79,1912 75,1880 78,1849 85,1823 92,1802 88,1799 79,1820 72,1848 69,1878 72,1909 62,1902 53,1895 45,1885 39,1875 35,1862 33,1848 33,1832 35,1814 43,1794 55,1773 71,1754 89,1735 109,1718 129,1703 149,1691 167,1682 167,1682"/>
<polygon class="pen1 brush2" points="568,1856 571,1856 581,1857 594,1857 610,1858 627,1858 644,1859 659,1858 670,1858 669,1859 667,1862 662,1867 657,1874 649,1882 641,1891 631,1901 620,1911 608,1921 595,1931 581,1941 566,1950 551,1959 535,1966 518,1972 501,1976 504,1974 513,1968 526,1958 540,1944 553,1927 563,1907 569,1883 568,1856 568,1856"/>
<polygon class="pen1 brush2" points="1044,1711 1062,1720 1082,1732 1102,1747 1122,1764 1140,1783 1155,1802 1166,1823 1173,1843 1176,1861 1176,1877 1174,1891 1170,1903 1164,1914 1157,1923 1148,1931 1137,1937 1139,1909 1136,1883 1130,1856 1123,1829 1116,1831 1119,1843 1126,1871 1132,1907 1130,1941 1123,1943 1117,1946 1110,1947 1103,1949 1096,1950 1089,1950 1082,1951 1075,1951 1081,1924 1082,1893 1080,1863 1075,1836 1069,1838 1073,1866 1075,1893 1073,1921 1066,1949 1059,1949 1051,1948 1044,1947 1038,1946 1031,1944 1024,1943 1018,1941 1012,1939 1017,1916 1019,1892 1016,1866 1008,1838 1004,1841 1009,1865 1012,1888 1011,1912 1005,1936 990,1927 976,1914 965,1897 955,1879 947,1860 941,1841 936,1822 933,1804 952,1790 971,1775 990,1760 1007,1745 1022,1731 1034,1721 1041,1714 1044,1711"/>
<polygon class="pen1 brush0" points="622,236 630,234 637,229 641,222 643,213 641,205 637,198 630,194 622,192 613,194 606,198 602,205 600,213 602,222 606,229 613,234 622,236 622,236"/>
<polygon class="pen1 brush0" points="707,236 716,234 723,230 728,223 730,215 728,206 723,199 716,194 707,192 700,194 693,199 689,206 687,215 689,223 693,230 700,234 707,236"/>
</g>
</svg>
