<?xml version="1.0" encoding="UTF-8" standalone="no"?>
<!DOCTYPE svg PUBLIC "-//W3C//DTD SVG 1.0//EN" "http://www.w3.org/TR/2001/REC-SVG-20010904/DTD/svg10.dtd">
<svg xmlns="http://www.w3.org/2000/svg" xmlns:xlink="http://www.w3.org/1999/xlink" fill-rule="evenodd" height="0.736in" preserveAspectRatio="none" stroke-linecap="round" viewBox="0 0 1966 736" width="1.966in">
<style type="text/css">
.brush0 { fill: rgb(255,255,255); }
.pen0 { stroke: rgb(0,0,0); stroke-width: 1; stroke-linejoin: round; }
.brush1 { fill: none; }
.pen1 { stroke: none; }
.brush2 { fill: rgb(0,0,0); }
</style>
<g>
<polygon class="pen1 brush2" points="820,19 820,20 821,24 822,30 825,37 830,44 838,51 848,57 862,61 864,60 871,57 881,53 896,48 913,43 933,37 955,33 980,29 967,125 979,124 993,27 1002,26 1010,26 1019,26 1029,25 1038,26 1047,26 1057,26 1067,27 1043,142 1054,142 1078,30 1087,31 1095,33 1104,35 1112,37 1121,39 1129,42 1138,45 1146,49 1098,155 1109,158 1158,53 1166,57 1174,61 1181,66 1189,71 1196,76 1204,82 1211,88 1219,94 1168,188 1178,192 1229,103 1234,108 1239,114 1245,119 1250,125 1255,130 1260,137 1264,143 1269,150 1226,228 1236,230 1277,161 1285,174 1293,188 1300,202 1307,217 1314,233 1321,250 1328,268 1334,286 1335,286 1339,288 1344,289 1352,291 1361,294 1371,296 1383,297 1395,299 1408,300 1421,299 1435,298 1448,296 1462,292 1474,286 1486,279 1497,269 1503,263 1511,256 1520,248 1531,240 1542,231 1555,222 1568,212 1583,202 1598,192 1614,181 1631,170 1648,159 1666,149 1685,138 1703,127 1722,117 1738,108 1755,100 1771,92 1787,84 1804,77 1820,71 1836,64 1852,59 1868,54 1883,50 1898,47 1913,44 1927,42 1940,42 1953,42 1966,43 1963,45 1953,51 1938,61 1919,73 1896,89 1870,107 1843,127 1815,149 1787,173 1761,197 1736,223 1714,248 1695,274 1682,300 1674,324 1672,348 1676,373 1683,396 1692,419 1705,441 1719,462 1734,482 1751,500 1768,518 1785,535 1803,550 1820,564 1836,577 1850,589 1863,600 1873,609 1881,617 1879,617 1872,616 1862,614 1848,611 1831,606 1810,601 1786,594 1759,585 1730,574 1699,562 1665,547 1630,531 1593,511 1555,490 1515,465 1475,438 1466,433 1455,430 1442,428 1427,428 1411,428 1394,430 1377,433 1359,437 1342,442 1325,448 1310,455 1295,462 1283,470 1273,479 1265,489 1260,499 1260,500 1264,505 1272,514 1288,527 1286,529 1281,533 1273,541 1262,550 1249,562 1234,574 1219,588 1202,602 1185,617 1167,631 1150,644 1134,656 1120,667 1107,675 1096,682 1087,685 1086,684 1081,681 1075,677 1066,671 1056,663 1044,655 1031,646 1018,637 1004,627 990,617 976,607 963,598 951,589 941,580 932,573 925,567 918,566 904,566 884,566 860,566 831,566 798,567 764,567 728,567 692,568 656,568 621,567 589,566 560,565 536,563 516,560 502,556 502,557 501,561 500,567 500,574 502,583 506,594 513,605 524,617 522,620 516,628 508,640 498,655 488,673 479,693 473,715 469,736 466,730 457,714 445,691 430,662 414,631 399,601 387,573 378,550 373,550 361,550 342,549 321,549 298,547 275,545 257,543 243,539 248,534 260,521 275,501 290,474 299,443 298,407 284,367 253,326 255,332 261,349 266,375 268,405 265,439 253,474 230,506 192,533 190,532 185,530 178,527 168,523 156,518 142,512 127,505 111,498 95,491 78,483 62,475 47,467 33,459 20,452 9,445 0,438 51,421 13,371 22,362 33,351 48,338 64,324 83,308 103,292 124,275 146,259 168,242 190,227 212,212 234,199 254,187 272,178 289,172 304,168 338,107 340,106 344,103 351,99 359,92 369,85 379,76 389,65 398,54 386,144 398,144 415,27 424,27 434,24 445,20 455,16 464,11 472,7 478,4 482,3 465,125 476,124 493,6 499,7 505,8 512,9 520,9 528,9 536,8 545,6 553,3 537,111 548,110 564,5 569,6 574,7 580,7 587,7 595,7 602,7 610,5 618,3 605,100 615,100 629,3 633,5 638,7 644,9 651,10 659,11 669,10 679,7 690,3 676,101 688,100 703,0 707,2 712,5 716,8 722,10 728,11 735,11 745,10 756,6 743,100 753,100 767,13 770,15 774,17 779,19 785,21 792,22 800,22 810,21 820,19"/>
<polygon class="pen1 brush0" points="152,367 161,365 169,360 174,353 176,343 174,334 169,326 161,321 152,319 143,321 136,326 131,334 129,343 131,353 136,360 143,365 152,367"/>
<polygon class="pen1 brush0" points="459,496 467,480 479,463 493,447 509,430 528,415 547,399 567,385 587,371 607,358 626,347 643,336 659,328 672,321 681,315 688,312 690,311 668,309 644,309 620,311 596,315 571,320 546,326 522,333 499,341 476,350 454,358 435,367 416,375 400,382 386,389 375,394 367,398 371,405 373,404 378,401 387,397 399,392 413,385 430,378 448,370 469,362 491,354 514,346 538,338 562,332 587,326 611,321 635,318 659,316 657,317 652,320 644,324 633,330 620,337 605,346 589,355 572,366 555,379 537,392 520,406 503,421 488,436 474,452 462,469 453,486 459,496"/>
<polygon class="pen1 brush0" points="1047,340 1057,339 1066,336 1072,332 1074,326 1072,320 1066,315 1057,312 1047,311 1036,312 1027,315 1021,320 1019,326 1021,332 1027,336 1036,339 1047,340 1047,340"/>
<polygon class="pen1 brush0" points="1136,296 1147,295 1157,292 1163,288 1165,282 1163,276 1157,271 1147,268 1136,267 1125,268 1116,271 1110,276 1108,282 1110,288 1116,292 1125,295 1136,296 1136,296"/>
<polygon class="pen1 brush0" points="1041,245 1052,244 1061,241 1066,236 1068,230 1066,225 1061,220 1052,217 1041,216 1030,217 1021,220 1015,225 1013,230 1015,236 1021,241 1030,244 1041,245 1041,245"/>
<polygon class="pen1 brush0" points="929,290 940,289 949,286 954,281 956,276 954,270 949,266 940,263 929,262 919,263 910,266 904,270 902,276 904,281 910,286 919,289 929,290 929,290"/>
<polygon class="pen1 brush0" points="933,189 944,188 953,185 958,181 960,175 958,170 953,165 944,162 933,161 923,162 914,165 908,170 906,175 908,181 914,185 923,188 933,189 933,189"/>
<polygon class="pen1 brush0" points="840,239 851,238 860,235 866,230 868,225 866,220 860,216 851,213 840,212 829,213 820,216 813,220 811,225 813,230 820,235 829,238 840,239 840,239"/>
<polygon class="pen1 brush0" points="788,164 799,163 809,160 815,156 817,150 815,144 809,139 799,136 788,135 777,136 769,139 763,144 761,150 763,156 769,160 777,163 788,164 788,164"/>
<polygon class="pen1 brush0" points="685,236 696,235 705,232 711,228 713,222 711,217 705,213 696,210 685,209 674,210 666,213 660,217 658,222 660,228 666,232 674,235 685,236 685,236"/>
<polygon class="pen1 brush0" points="484,249 495,248 505,245 511,240 513,235 511,230 505,226 495,223 484,222 473,223 465,226 459,230 457,235 459,240 465,245 473,248 484,249 484,249"/>
<polygon class="pen1 brush0" points="423,196 434,195 443,192 448,188 450,182 448,177 443,173 434,170 423,169 412,170 403,173 397,177 395,182 397,188 403,192 412,195 423,196 423,196"/>
<polygon class="pen1 brush0" points="592,168 603,167 612,164 617,160 619,155 617,149 612,145 603,142 592,141 581,142 572,145 566,149 564,155 566,160 572,164 581,167 592,168"/>
</g>
</svg>
