<?xml version="1.0" encoding="UTF-8" standalone="no"?>
<!DOCTYPE svg PUBLIC "-//W3C//DTD SVG 1.0//EN" "http://www.w3.org/TR/2001/REC-SVG-20010904/DTD/svg10.dtd">
<svg xmlns="http://www.w3.org/2000/svg" xmlns:xlink="http://www.w3.org/1999/xlink" fill-rule="evenodd" height="1.664in" preserveAspectRatio="none" stroke-linecap="round" viewBox="0 0 1982 1664" width="1.982in">
<style type="text/css">
.brush0 { fill: rgb(255,255,255); }
.pen0 { stroke: rgb(0,0,0); stroke-width: 1; stroke-linejoin: round; }
.brush1 { fill: none; }
.pen1 { stroke: none; }
.brush2 { fill: rgb(0,0,0); }
</style>
<g>
<polygon class="pen1 brush2" points="1246,1277 1245,1277 1242,1278 1238,1281 1231,1285 1223,1289 1213,1294 1202,1297 1189,1301 1174,1303 1158,1303 1140,1302 1122,1298 1101,1291 1080,1281 1057,1268 1033,1250 1028,1247 1021,1242 1011,1236 998,1229 984,1221 967,1211 948,1200 928,1188 906,1175 883,1160 859,1145 834,1129 808,1111 781,1093 755,1074 728,1054 702,1034 679,1013 659,992 640,971 624,949 610,927 598,903 587,879 579,854 572,827 566,799 562,770 559,739 557,706 557,671 557,634 553,562 541,501 523,448 500,404 476,368 453,339 433,317 418,301 414,301 402,300 384,298 364,296 342,293 320,288 301,283 287,276 277,267 268,256 260,241 253,223 248,199 244,168 243,130 243,84 246,68 253,54 266,41 282,29 301,19 323,11 347,6 372,3 383,3 394,3 406,4 417,5 428,7 439,9 450,13 461,16 472,21 482,26 492,31 502,38 511,45 520,52 529,61 537,70 549,85 560,102 571,119 581,137 591,157 601,177 611,199 621,221 631,245 642,269 653,295 665,322 677,349 690,378 703,408 718,439 724,450 733,461 743,471 755,481 768,491 784,500 800,508 819,516 839,524 861,531 884,538 908,544 934,550 961,555 989,560 1019,564 1037,567 1055,569 1072,572 1090,576 1107,579 1124,583 1140,586 1156,590 1171,594 1186,598 1201,602 1214,606 1227,610 1239,614 1250,618 1260,622 1261,623 1266,624 1272,627 1281,630 1292,634 1305,639 1318,645 1333,650 1348,656 1364,663 1380,669 1396,676 1411,682 1426,688 1439,694 1451,699 1460,703 1470,708 1480,712 1491,716 1502,720 1514,724 1526,728 1538,731 1550,735 1563,738 1576,741 1590,744 1603,746 1617,749 1631,751 1645,753 1659,761 1669,768 1674,775 1676,782 1675,789 1670,796 1664,802 1655,807 1645,813 1634,817 1622,821 1610,825 1598,827 1586,829 1576,831 1567,831 1555,831 1543,830 1531,829 1519,827 1507,826 1495,823 1484,820 1472,817 1458,812 1445,808 1433,803 1421,797 1408,792 1396,786 1384,780 1372,774 1370,778 1382,785 1395,792 1407,798 1420,804 1432,810 1445,815 1458,819 1471,823 1484,827 1497,830 1511,832 1524,834 1538,836 1552,837 1567,838 1581,838 1586,839 1595,840 1605,843 1616,846 1627,850 1636,854 1643,858 1645,862 1636,868 1626,873 1614,877 1601,880 1588,882 1575,883 1563,885 1553,886 1539,886 1524,886 1510,885 1495,885 1480,884 1465,883 1450,881 1435,879 1420,877 1405,874 1391,871 1376,867 1362,863 1348,858 1334,853 1321,847 1316,843 1311,839 1305,835 1300,831 1296,837 1309,848 1325,857 1342,864 1361,870 1380,875 1399,879 1418,883 1435,886 1450,888 1465,890 1479,891 1494,892 1509,893 1523,894 1538,895 1553,895 1576,905 1586,914 1585,922 1575,928 1561,933 1543,937 1526,940 1512,942 1495,943 1478,944 1462,945 1445,944 1428,944 1412,943 1395,941 1379,939 1363,937 1347,933 1331,930 1316,925 1301,920 1285,915 1271,909 1256,902 1253,909 1266,916 1280,922 1295,928 1309,933 1324,937 1340,941 1355,944 1371,946 1386,948 1402,950 1418,950 1434,951 1449,951 1465,951 1480,950 1495,949 1488,955 1480,960 1471,965 1462,969 1452,973 1441,976 1431,978 1420,980 1408,982 1397,983 1386,984 1375,985 1364,985 1354,986 1344,986 1335,986 1319,986 1304,985 1290,983 1277,981 1264,978 1253,974 1241,970 1231,965 1221,961 1212,955 1203,950 1196,945 1188,940 1181,935 1175,930 1169,926 1165,932 1173,938 1182,944 1190,950 1198,955 1206,961 1215,966 1224,970 1233,974 1243,978 1253,982 1265,985 1276,988 1289,990 1303,991 1317,993 1333,993 1324,999 1314,1004 1303,1008 1291,1011 1278,1014 1264,1016 1250,1018 1236,1019 1221,1019 1207,1018 1193,1018 1180,1016 1168,1014 1156,1012 1146,1009 1137,1006 1127,1001 1118,994 1108,987 1099,979 1091,971 1083,962 1076,954 1070,946 1064,950 1071,959 1079,968 1086,976 1094,983 1102,990 1110,997 1120,1003 1130,1009 1113,1008 1098,1007 1083,1005 1070,1002 1057,999 1045,995 1033,990 1022,985 1011,980 1000,974 990,967 980,960 970,953 960,945 950,937 939,929 959,935 979,938 999,940 1019,941 1039,940 1059,937 1079,933 1099,927 1118,920 1136,911 1153,901 1170,890 1186,877 1200,863 1214,848 1226,831 1219,828 1211,840 1202,851 1192,861 1182,871 1171,881 1159,890 1147,898 1134,905 1121,912 1107,918 1092,923 1077,928 1061,931 1045,933 1029,935 1012,935 995,934 978,931 961,927 944,921 928,914 912,905 897,895 883,883 870,869 858,854 847,837 838,818 830,798 824,776 820,752 818,726 813,726 815,756 819,785 828,812 839,837 854,861 872,882 893,902 918,919 929,930 941,940 953,950 965,959 978,968 991,977 1004,984 1018,991 1032,998 1046,1003 1061,1008 1076,1011 1091,1013 1106,1014 1121,1014 1137,1013 1146,1016 1156,1018 1168,1020 1180,1022 1193,1024 1207,1025 1221,1025 1236,1025 1250,1024 1265,1023 1279,1020 1294,1017 1307,1013 1320,1007 1333,1001 1344,993 1363,993 1384,992 1406,990 1428,987 1449,982 1469,975 1488,965 1503,953 1515,958 1528,963 1542,966 1556,969 1571,971 1586,973 1601,974 1617,974 1633,974 1648,973 1664,972 1679,971 1694,969 1709,968 1723,965 1737,963 1717,986 1695,1011 1670,1039 1643,1068 1614,1098 1583,1128 1552,1157 1519,1186 1485,1212 1451,1235 1416,1255 1381,1271 1347,1281 1312,1286 1279,1285 1246,1277 1246,1277"/>
<polygon class="pen1 brush2" points="1662,754 1677,766 1683,779 1683,790 1677,801 1665,811 1651,819 1633,826 1614,831 1632,833 1651,834 1670,835 1691,835 1712,834 1734,833 1756,831 1779,829 1801,825 1823,821 1845,816 1866,810 1886,802 1906,794 1925,785 1942,774 1945,769 1952,760 1961,748 1969,734 1975,724 1977,715 1976,707 1970,702 1965,700 1960,700 1954,700 1947,701 1941,703 1935,705 1930,707 1926,709 1914,717 1902,725 1888,731 1874,737 1859,742 1843,747 1827,750 1810,753 1792,755 1774,757 1756,757 1738,758 1719,758 1700,757 1681,756 1662,754 1662,754"/>
<polygon class="pen1 brush2" points="1942,784 1924,794 1904,803 1884,811 1863,818 1842,824 1821,829 1799,833 1777,836 1755,839 1733,840 1712,841 1691,842 1670,841 1651,841 1632,840 1615,838 1622,840 1630,843 1638,847 1645,851 1649,856 1651,862 1649,868 1641,875 1635,877 1628,879 1622,881 1616,883 1610,884 1604,886 1597,887 1591,888 1606,890 1622,891 1638,892 1655,893 1672,893 1689,893 1706,892 1723,891 1740,890 1757,888 1774,886 1791,884 1807,881 1823,878 1839,875 1855,871 1867,860 1880,850 1893,841 1906,831 1918,821 1929,810 1937,798 1942,784 1942,784"/>
<polygon class="pen1 brush2" points="1847,882 1831,885 1814,889 1797,891 1780,894 1762,896 1745,898 1728,899 1710,900 1693,901 1676,902 1659,902 1643,901 1627,900 1611,899 1596,897 1581,895 1597,908 1599,919 1593,928 1579,935 1561,940 1542,944 1525,947 1513,949 1526,953 1539,957 1553,960 1568,962 1582,964 1597,965 1613,965 1628,965 1644,965 1659,964 1674,963 1689,961 1704,959 1719,957 1733,955 1747,952 1755,947 1766,941 1779,933 1793,923 1808,913 1822,903 1836,892 1847,882 1847,882"/>
<polygon class="pen1 brush2" points="39,178 32,181 24,184 18,189 12,193 7,198 3,204 1,210 0,216 2,220 7,223 14,225 24,225 35,225 48,225 62,223 77,222 93,219 113,216 135,213 156,210 176,207 193,205 204,204 208,203 47,263 47,263 47,264 48,265 49,266 51,267 55,269 60,270 68,271 77,272 89,272 103,272 121,272 142,271 167,269 196,266 229,263 218,191 213,143 212,114 212,99 212,95 210,93 208,93 203,95 198,97 191,101 182,107 172,113 161,120 148,127 134,135 118,144 101,152 82,161 61,170 39,178 39,178"/>
<polygon class="pen1 brush2" points="1147,1330 1146,1341 1143,1371 1138,1413 1131,1462 1127,1473 1118,1483 1106,1491 1091,1498 1073,1504 1054,1509 1033,1513 1012,1515 992,1517 972,1519 953,1520 936,1520 922,1520 911,1520 904,1520 902,1520 976,1554 891,1593 987,1601 969,1664 971,1663 975,1660 982,1656 992,1650 1003,1642 1016,1634 1030,1625 1045,1616 1060,1606 1075,1596 1090,1586 1105,1577 1118,1568 1130,1560 1141,1553 1149,1547 1162,1530 1171,1502 1177,1466 1181,1428 1182,1392 1182,1360 1182,1338 1182,1330 1147,1330"/>
<polygon class="pen1 brush0" points="344,161 354,159 363,153 369,144 371,132 369,122 363,113 354,107 344,105 333,107 325,113 319,122 317,132 319,144 325,153 333,159 344,161"/>
</g>
</svg>
