<?xml version="1.0" encoding="UTF-8" standalone="no"?>
<!DOCTYPE svg PUBLIC "-//W3C//DTD SVG 1.0//EN" "http://www.w3.org/TR/2001/REC-SVG-20010904/DTD/svg10.dtd">
<svg xmlns="http://www.w3.org/2000/svg" xmlns:xlink="http://www.w3.org/1999/xlink" fill-rule="evenodd" height="1.607in" preserveAspectRatio="none" stroke-linecap="round" viewBox="0 0 1979 1607" width="1.979in">
<style type="text/css">
.brush0 { fill: rgb(255,255,255); }
.pen0 { stroke: rgb(0,0,0); stroke-width: 1; stroke-linejoin: round; }
.brush1 { fill: none; }
.pen1 { stroke: none; }
.brush2 { fill: rgb(0,0,0); }
</style>
<g>
<polygon class="pen1 brush2" points="1240,865 1248,894 1256,928 1262,964 1264,1003 1263,1044 1256,1085 1243,1126 1223,1166 1240,1163 1257,1160 1274,1157 1291,1154 1308,1151 1325,1148 1342,1144 1359,1141 1376,1137 1393,1134 1410,1130 1426,1125 1443,1121 1460,1116 1476,1111 1493,1106 1510,1125 1526,1143 1542,1161 1558,1178 1573,1195 1590,1212 1607,1229 1625,1246 1644,1263 1665,1282 1688,1301 1712,1321 1739,1342 1769,1364 1801,1388 1837,1414 1798,1467 1779,1455 1759,1443 1739,1431 1720,1418 1700,1406 1680,1393 1661,1381 1641,1368 1622,1354 1603,1341 1584,1327 1566,1312 1548,1298 1530,1283 1513,1267 1497,1251 1480,1256 1462,1261 1445,1265 1427,1270 1410,1274 1392,1278 1375,1282 1357,1286 1339,1289 1321,1292 1303,1295 1285,1298 1267,1300 1249,1302 1231,1304 1213,1305 1202,1306 1190,1306 1178,1306 1165,1306 1153,1306 1140,1305 1127,1304 1115,1302 1102,1299 1091,1295 1079,1291 1069,1285 1059,1279 1051,1271 1043,1262 1037,1251 1027,1228 1018,1205 1010,1182 1004,1158 999,1135 994,1111 991,1088 987,1065 983,1108 984,1152 989,1195 999,1237 968,1240 938,1244 908,1247 879,1250 851,1253 822,1256 794,1258 765,1260 737,1262 708,1263 680,1264 651,1264 621,1263 592,1262 561,1260 530,1257 516,1251 501,1238 486,1219 471,1197 457,1175 445,1153 436,1133 431,1119 435,1145 441,1171 449,1196 458,1221 467,1245 476,1270 485,1295 492,1321 492,1334 484,1343 471,1348 454,1349 436,1349 419,1347 403,1345 392,1342 377,1337 363,1332 348,1327 334,1322 320,1316 305,1310 291,1304 278,1297 264,1291 250,1284 236,1277 223,1270 209,1263 196,1256 182,1248 169,1241 338,1478 304,1525 27,1231 14,1209 7,1188 7,1168 14,1150 18,1145 22,1141 27,1137 33,1133 40,1130 47,1127 55,1125 64,1123 77,1122 90,1121 104,1122 117,1124 132,1126 146,1129 160,1132 174,1136 189,1141 203,1146 217,1150 230,1155 244,1160 257,1165 269,1170 281,1174 272,1126 260,1068 248,1000 238,924 234,839 239,748 256,650 287,547 282,540 275,532 268,524 261,517 252,511 244,506 235,503 226,502 219,505 211,508 204,512 197,515 189,518 181,520 173,521 165,521 156,518 150,514 144,508 141,500 138,492 136,484 134,475 132,467 118,467 108,464 101,457 97,449 97,439 99,430 104,420 112,413 122,408 132,403 142,398 153,393 165,388 176,383 188,378 200,373 211,369 223,364 235,360 246,355 258,351 269,346 280,342 290,338 304,332 321,325 338,319 356,315 374,313 391,315 406,320 419,331 430,324 444,315 460,306 477,296 494,286 510,278 525,270 537,264 550,160 574,251 584,247 594,244 604,240 615,237 625,234 635,231 645,227 655,223 689,71 706,210 719,206 729,203 738,201 745,199 753,198 762,197 773,196 787,194 825,0 834,190 847,191 861,193 875,194 889,196 904,198 918,200 932,203 947,205 961,208 975,212 989,216 1002,220 1015,224 1028,229 1041,235 1053,241 1008,237 964,235 921,233 879,233 838,234 798,236 760,240 723,246 686,253 652,262 618,273 586,286 556,301 527,318 499,337 473,359 494,361 514,363 532,365 549,366 566,366 584,365 604,362 625,359 621,374 615,388 608,399 599,408 589,416 578,421 566,426 553,429 540,431 526,431 512,431 498,430 484,428 471,426 458,423 445,420 465,437 478,481 485,542 487,613 484,684 479,747 471,794 462,815 484,807 506,799 528,792 550,785 572,778 594,772 616,766 639,761 661,756 683,752 705,748 727,745 750,742 772,740 795,738 818,738 841,737 864,738 887,739 910,741 934,743 958,747 982,751 1007,756 1031,762 1056,768 1082,775 1107,784 1133,793 1159,803 1186,814 1213,826 1227,801 1242,782 1257,770 1271,764 1284,763 1297,766 1307,772 1315,781 1320,793 1322,805 1320,818 1314,831 1304,842 1288,853 1267,860 1240,865 1240,865"/>
<polygon class="pen1 brush2" points="314,1535 323,1543 333,1550 343,1558 354,1565 365,1573 377,1580 389,1586 401,1592 409,1596 417,1599 425,1601 434,1603 442,1605 450,1606 458,1607 466,1607 429,1564 479,1577 473,1562 460,1547 443,1534 424,1521 403,1510 382,1500 364,1492 350,1485 314,1535 314,1535"/>
<polygon class="pen1 brush2" points="1814,1477 1830,1490 1847,1503 1865,1515 1885,1526 1905,1536 1926,1544 1946,1548 1967,1549 1929,1508 1979,1520 1973,1505 1961,1490 1945,1476 1926,1463 1905,1452 1885,1442 1867,1433 1852,1427 1814,1477"/>
<polygon class="pen1 brush0" points="655,927 655,916 646,908 631,902 613,898 593,898 575,901 559,907 550,916 551,927 559,935 574,941 592,944 611,945 630,942 645,936 655,927"/>
<polygon class="pen1 brush0" points="800,893 791,886 778,881 763,878 747,877 731,878 716,882 704,888 696,896 698,909 711,918 730,923 752,924 773,921 791,915 801,906 800,893"/>
<polygon class="pen1 brush0" points="942,886 939,876 929,868 913,862 895,860 876,860 858,863 843,870 835,880 838,891 848,899 864,904 882,906 901,906 919,902 934,896 942,886"/>
<polygon class="pen1 brush0" points="1081,873 1074,863 1062,856 1047,852 1030,850 1013,851 997,854 984,860 976,869 977,881 988,889 1005,895 1026,898 1047,897 1065,892 1078,885 1081,873"/>
<polygon class="pen1 brush0" points="733,981 723,973 711,968 696,965 680,964 664,965 650,969 637,975 628,984 630,997 643,1006 662,1011 684,1012 706,1009 724,1003 734,993 733,981"/>
<polygon class="pen1 brush0" points="881,958 871,951 858,946 843,943 826,942 810,943 796,947 784,954 777,964 780,976 793,984 812,989 834,989 854,987 872,981 881,971 881,958"/>
<polygon class="pen1 brush0" points="831,1052 831,1041 822,1033 808,1027 789,1023 770,1023 751,1026 736,1032 726,1041 727,1052 735,1060 750,1066 768,1069 787,1070 806,1067 821,1061 831,1052"/>
<polygon class="pen1 brush0" points="321,376 330,378 337,383 342,391 344,400 342,409 337,416 330,421 321,423 313,421 305,416 300,409 298,400 300,391 305,383 313,378 321,376"/>
</g>
</svg>
