<?xml version="1.0" encoding="UTF-8" standalone="no"?>
<!DOCTYPE svg PUBLIC "-//W3C//DTD SVG 1.0//EN" "http://www.w3.org/TR/2001/REC-SVG-20010904/DTD/svg10.dtd">
<svg xmlns="http://www.w3.org/2000/svg" xmlns:xlink="http://www.w3.org/1999/xlink" fill-rule="evenodd" height="1.46in" preserveAspectRatio="none" stroke-linecap="round" viewBox="0 0 1987 1460" width="1.987in">
<style type="text/css">
.brush0 { fill: rgb(255,255,255); }
.pen0 { stroke: rgb(0,0,0); stroke-width: 1; stroke-linejoin: round; }
.brush1 { fill: none; }
.pen1 { stroke: none; }
.brush2 { fill: rgb(0,0,0); }
</style>
<g>
<polygon class="pen1 brush2" points="1319,920 1343,929 1366,937 1388,944 1410,952 1432,959 1453,965 1474,972 1494,978 1515,984 1535,990 1556,995 1576,1000 1597,1006 1618,1011 1639,1016 1660,1021 1663,1024 1673,1034 1688,1048 1708,1068 1732,1091 1758,1116 1786,1144 1815,1173 1844,1202 1872,1231 1899,1259 1923,1285 1944,1308 1961,1327 1972,1342 1977,1352 1976,1359 1970,1367 1958,1375 1943,1384 1925,1392 1904,1401 1881,1408 1857,1415 1833,1422 1808,1427 1785,1431 1764,1433 1744,1434 1728,1433 1716,1430 1708,1424 1695,1408 1676,1384 1653,1354 1625,1319 1595,1279 1562,1237 1528,1193 1494,1148 1460,1105 1428,1063 1399,1024 1372,990 1350,961 1334,939 1323,925 1319,920 1319,920"/>
<polygon class="pen1 brush2" points="984,890 998,1082 902,1261 998,1292 865,1297 696,1361 775,1301 633,1277 758,1268 700,1237 856,1247 943,1078 919,880 984,890 984,890"/>
<polygon class="pen1 brush2" points="325,92 322,107 314,145 305,201 298,267 310,276 324,285 339,296 355,307 371,318 387,330 404,342 420,355 435,367 450,379 463,390 475,401 485,411 493,421 498,429 501,437 513,486 527,531 544,572 563,610 583,645 606,677 629,705 655,731 681,754 708,774 736,792 764,807 793,821 822,832 851,842 880,849 909,856 937,860 964,864 991,866 1016,867 1040,868 1063,867 1084,867 1103,865 1121,864 1136,862 1149,860 1159,859 1167,857 1171,856 1173,856 1096,819 1028,780 968,740 917,698 872,656 835,615 804,574 778,535 757,498 742,464 730,434 721,408 715,386 712,370 710,360 710,356 723,388 738,419 753,449 768,478 785,505 802,532 819,557 837,581 856,605 876,627 896,648 916,669 938,688 959,707 981,724 1004,741 1027,757 1050,773 1074,787 1098,801 1122,814 1147,827 1172,839 1197,850 1222,861 1248,871 1274,881 1300,890 1327,899 1353,907 1379,915 1406,923 1122,616 1136,613 1430,926 1440,929 1452,933 1466,937 1481,942 1498,947 1516,952 1535,958 1554,964 1573,969 1591,975 1609,980 1625,985 1640,990 1653,994 1664,997 1673,1000 1272,619 1288,611 1703,1001 1714,1004 1728,1009 1744,1014 1762,1019 1780,1024 1798,1028 1815,1031 1831,1033 1844,1033 1853,1031 1859,1026 1861,1018 1857,1007 1847,991 1830,971 1805,947 1754,887 1703,831 1653,777 1603,726 1554,678 1505,633 1457,591 1410,551 1364,514 1318,480 1274,447 1230,417 1188,389 1147,364 1108,340 1069,318 1033,299 998,280 964,264 933,249 903,236 875,224 850,214 826,204 805,196 786,189 769,183 754,178 743,174 733,171 727,168 723,166 683,138 645,114 611,96 579,82 550,72 522,65 497,61 473,60 451,61 431,64 411,68 393,73 375,78 358,83 342,88 325,92 325,92"/>
<polygon class="pen1 brush2" points="305,95 275,187 154,153 143,155 125,160 101,166 74,172 48,178 25,183 8,186 0,186 1,185 4,182 9,177 17,170 27,163 39,154 53,145 70,136 90,127 112,119 137,111 165,105 196,99 229,96 265,94 305,95 305,95"/>
<polygon class="pen1 brush2" points="142,166 4,197 25,199 50,200 77,201 103,201 126,201 145,200 158,200 163,200 247,248 261,200 142,166"/>
<polygon class="pen1 brush0" points="423,180 433,178 441,173 446,165 448,155 446,146 441,138 433,132 423,130 414,132 407,138 402,146 400,155 402,165 407,173 414,178 423,180"/>
</g>
</svg>
