<?xml version="1.0" encoding="UTF-8" standalone="no"?>
<!DOCTYPE svg PUBLIC "-//W3C//DTD SVG 1.0//EN" "http://www.w3.org/TR/2001/REC-SVG-20010904/DTD/svg10.dtd">
<svg xmlns="http://www.w3.org/2000/svg" xmlns:xlink="http://www.w3.org/1999/xlink" fill-rule="evenodd" height="1.415in" preserveAspectRatio="none" stroke-linecap="round" viewBox="0 0 1993 1415" width="1.993in">
<style type="text/css">
.brush0 { fill: rgb(255,255,255); }
.pen0 { stroke: rgb(0,0,0); stroke-width: 1; stroke-linejoin: round; }
.brush1 { fill: none; }
.pen1 { stroke: none; }
.brush2 { fill: rgb(0,0,0); }
</style>
<g>
<polygon class="pen1 brush2" points="1001,1082 1034,1077 1055,1061 1067,1037 1070,1007 1066,973 1058,936 1047,900 1035,865 1031,854 1027,841 1024,827 1021,813 1045,776 1018,801 1016,783 1012,742 1007,690 1002,635 998,635 996,681 992,731 986,780 977,824 940,777 974,842 972,851 971,855 969,859 967,865 958,889 947,920 937,956 931,993 931,1027 941,1055 964,1075 1001,1082 1001,1082"/>
<polygon class="pen1 brush2" points="934,875 928,874 923,870 919,865 917,858 919,851 923,845 928,841 934,839 941,841 947,845 951,851 953,858 951,865 947,870 941,874 934,875 934,875"/>
<polygon class="pen1 brush2" points="1065,871 1059,869 1053,865 1049,859 1048,852 1049,845 1053,839 1059,835 1065,834 1072,835 1078,839 1082,845 1083,852 1082,859 1078,865 1072,869 1065,871 1065,871"/>
<polygon class="pen1 brush2" points="1075,912 1077,908 1083,896 1092,878 1104,855 1119,827 1134,796 1152,762 1169,727 1187,691 1204,656 1221,623 1235,592 1248,564 1258,542 1265,525 1268,514 1275,541 1299,524 1297,528 1290,541 1280,560 1267,584 1251,614 1234,646 1215,682 1196,718 1176,755 1157,791 1139,824 1123,855 1108,882 1097,903 1089,918 1085,925 1075,912 1075,912"/>
<polygon class="pen1 brush2" points="1288,516 1293,516 1298,516 1302,515 1307,513 1311,510 1314,507 1316,503 1318,499 1319,489 1316,480 1311,472 1302,467 1297,466 1292,467 1287,468 1283,470 1279,473 1276,476 1273,480 1271,484 1271,494 1274,503 1279,511 1288,516 1288,516"/>
<polygon class="pen1 brush2" points="1315,464 1298,453 1314,392 1325,321 1331,246 1334,172 1335,105 1334,50 1333,13 1332,0 1346,40 1360,0 1364,104 1362,197 1355,276 1346,342 1335,395 1325,433 1318,456 1315,464 1315,464"/>
<polygon class="pen1 brush2" points="1091,939 1383,547 1392,554 1491,490 1498,497 1805,351 1993,402 1814,378 1505,509 1507,521 1404,571 1410,580 1100,956 1091,939 1091,939"/>
<polygon class="pen1 brush2" points="1106,963 1302,822 1312,834 1450,702 1583,709 1582,716 1784,730 1877,841 1778,756 1583,737 1582,747 1463,730 1322,858 1325,868 1106,980 1106,963 1106,963"/>
<polygon class="pen1 brush2" points="1103,993 1311,906 1312,919 1450,868 1539,925 1537,933 1620,1000 1721,1186 1606,1031 1524,960 1517,967 1446,909 1323,943 1322,956 1106,1010 1103,993 1103,993"/>
<polygon class="pen1 brush2" points="1099,1024 1403,967 1399,984 1457,1051 1448,1055 1498,1261 1294,1413 1473,1253 1427,1072 1414,1077 1387,1014 1383,1024 1092,1041 1099,1024 1099,1024"/>
<polygon class="pen1 brush2" points="924,909 916,922 912,915 904,900 892,879 877,853 860,823 841,790 822,754 801,718 781,682 762,647 743,615 727,586 714,562 703,543 696,531 694,527 720,541 727,514 730,525 737,542 747,565 760,592 775,623 792,656 810,691 828,726 846,761 863,794 880,825 894,853 906,876 916,894 922,905 924,909 924,909"/>
<polygon class="pen1 brush2" points="706,516 714,511 721,504 724,495 723,486 721,481 718,477 714,474 710,471 706,469 701,468 696,468 691,469 683,474 677,481 675,490 676,500 678,505 681,509 684,512 688,514 692,516 696,517 701,517 706,516 706,516"/>
<polygon class="pen1 brush2" points="679,466 676,458 668,435 658,396 646,344 635,278 627,199 623,107 626,3 640,41 653,1 653,14 652,51 653,106 654,172 659,246 666,321 678,392 694,453 679,466 679,466"/>
<polygon class="pen1 brush2" points="910,936 900,953 585,581 589,572 487,526 488,513 177,388 0,413 187,359 495,500 502,493 602,557 610,548 910,936 910,936"/>
<polygon class="pen1 brush2" points="895,962 895,979 674,871 677,859 535,733 414,753 413,743 218,764 122,851 214,737 416,722 413,714 546,705 687,837 696,824 895,962 895,962"/>
<polygon class="pen1 brush2" points="899,990 896,1009 679,956 677,943 555,912 484,973 477,964 396,1037 285,1193 382,1006 464,939 461,929 549,871 689,920 690,908 899,990 899,990"/>
<polygon class="pen1 brush2" points="903,1021 910,1040 619,1027 613,1017 588,1080 576,1075 534,1257 714,1415 508,1266 554,1060 545,1054 602,987 598,972 903,1021"/>
</g>
</svg>
