<?xml version="1.0" encoding="UTF-8" standalone="no"?>
<!DOCTYPE svg PUBLIC "-//W3C//DTD SVG 1.0//EN" "http://www.w3.org/TR/2001/REC-SVG-20010904/DTD/svg10.dtd">
<svg xmlns="http://www.w3.org/2000/svg" xmlns:xlink="http://www.w3.org/1999/xlink" fill-rule="evenodd" height="1.723in" preserveAspectRatio="none" stroke-linecap="round" viewBox="0 0 2007 1723" width="2.007in">
<style type="text/css">
.brush0 { fill: rgb(255,255,255); }
.pen0 { stroke: rgb(0,0,0); stroke-width: 1; stroke-linejoin: round; }
.brush1 { fill: none; }
.pen1 { stroke: none; }
.brush2 { fill: rgb(0,0,0); }
</style>
<g>
<polygon class="pen1 brush0" points="290,810 301,809 312,806 321,800 330,794 336,785 342,776 345,765 346,754 345,743 342,732 336,722 330,714 321,707 312,702 301,698 290,697 279,698 268,702 258,707 250,714 243,722 238,732 234,743 233,754 234,765 238,776 243,785 250,794 258,800 268,806 279,809 290,810"/>
<polygon class="pen1 brush2" points="295,716 287,717 279,719 273,723 267,728 262,734 258,740 256,748 255,756 256,764 258,771 262,778 267,783 273,788 279,792 287,794 295,795 303,794 311,792 317,788 323,783 328,778 332,771 334,764 335,756 334,748 332,740 328,734 323,728 317,723 311,719 303,717 295,716 298,600 307,597 316,595 325,593 334,591 343,589 353,588 362,586 372,585 372,581 373,569 374,550 377,525 382,495 389,461 398,425 411,386 427,346 446,306 470,267 498,229 531,195 570,164 614,138 665,117 682,111 698,105 714,99 729,93 744,87 758,80 772,73 786,66 799,59 811,52 824,44 836,36 848,27 859,18 871,9 882,0 878,14 874,30 868,46 862,64 855,82 846,100 837,120 826,140 813,160 800,181 784,202 767,223 748,244 728,266 705,287 680,308 655,328 633,346 613,362 596,377 580,390 566,403 554,415 542,427 532,440 523,453 514,468 506,484 498,502 490,522 482,544 473,570 475,569 480,566 489,561 501,554 515,545 533,533 552,518 573,501 597,480 621,457 647,430 674,400 702,367 730,330 759,289 787,244 803,225 823,207 845,191 870,176 898,162 927,149 957,136 988,125 1019,114 1050,104 1081,94 1111,84 1139,75 1165,66 1190,56 1211,47 1209,52 1202,66 1192,88 1177,117 1157,151 1133,189 1104,231 1070,274 1032,318 989,362 941,404 888,444 830,479 767,509 699,532 626,548 603,552 584,557 568,562 556,569 546,576 537,585 529,595 521,607 526,607 532,607 540,609 549,610 559,613 570,616 582,619 594,623 607,628 619,633 632,638 644,645 655,651 667,659 677,667 686,675 693,677 703,677 715,676 729,673 745,668 763,663 781,656 801,649 821,641 841,632 861,624 881,615 900,607 919,599 936,592 952,585 983,573 1015,562 1046,552 1076,544 1107,536 1137,530 1167,525 1197,521 1226,519 1255,518 1284,518 1312,519 1340,522 1368,526 1395,532 1422,539 1448,547 1473,557 1498,569 1523,581 1547,596 1571,612 1594,629 1616,648 1638,668 1659,691 1679,714 1699,740 1718,767 1736,795 1754,826 1771,858 1773,858 1804,933 1826,1005 1838,1074 1844,1139 1842,1201 1836,1259 1825,1313 1810,1363 1794,1408 1776,1447 1758,1482 1740,1511 1725,1534 1713,1550 1705,1561 1702,1564 1704,1562 1711,1555 1723,1544 1737,1531 1755,1516 1774,1500 1796,1483 1819,1466 1843,1450 1867,1437 1890,1425 1913,1418 1934,1414 1954,1415 1970,1422 1984,1436 1991,1448 1996,1461 1998,1474 1997,1489 1994,1504 1989,1519 1982,1535 1973,1550 1963,1565 1951,1580 1938,1595 1924,1609 1908,1623 1891,1636 1874,1649 1855,1661 1836,1673 1815,1683 1795,1692 1774,1700 1752,1707 1730,1712 1708,1716 1686,1718 862,1718 862,1716 861,1711 861,1704 861,1694 863,1683 867,1670 873,1657 882,1643 895,1630 913,1618 935,1606 962,1596 996,1589 1036,1584 1083,1582 1138,1584 1131,1580 1113,1570 1089,1555 1059,1534 1027,1507 994,1476 964,1439 939,1399 921,1354 913,1305 917,1253 935,1198 970,1139 1025,1078 1102,1014 1203,948 1197,950 1180,957 1154,968 1122,984 1085,1005 1046,1030 1007,1060 969,1094 936,1134 909,1178 890,1227 881,1281 885,1340 904,1404 939,1473 994,1547 992,1547 987,1547 978,1546 967,1546 954,1545 938,1544 922,1542 904,1540 885,1538 866,1535 846,1531 828,1527 810,1522 793,1517 778,1511 765,1504 765,1511 764,1529 761,1555 757,1588 751,1624 741,1660 729,1694 713,1723 419,1723 420,1718 423,1704 430,1685 442,1661 460,1636 487,1613 522,1593 568,1579 570,1572 570,1563 568,1551 567,1536 566,1517 568,1495 574,1468 585,1436 583,1434 576,1428 566,1418 553,1406 537,1390 519,1372 499,1351 478,1329 457,1305 436,1281 415,1255 396,1229 378,1203 362,1177 349,1151 339,1127 337,1119 333,1106 328,1090 320,1073 309,1057 295,1045 278,1039 257,1041 221,1047 192,1045 169,1036 152,1023 140,1009 132,996 127,987 126,983 98,980 74,975 54,968 37,960 24,950 15,939 8,926 4,913 4,892 8,869 16,846 27,821 38,802 50,784 62,766 75,749 89,733 102,718 114,704 126,692 131,687 137,682 144,677 152,671 161,665 170,659 180,652 191,646 202,640 215,633 227,627 240,621 254,615 268,610 283,605 298,600 295,716"/>
</g>
</svg>
