<?xml version="1.0" encoding="UTF-8" standalone="no"?>
<!DOCTYPE svg PUBLIC "-//W3C//DTD SVG 1.0//EN" "http://www.w3.org/TR/2001/REC-SVG-20010904/DTD/svg10.dtd">
<svg xmlns="http://www.w3.org/2000/svg" xmlns:xlink="http://www.w3.org/1999/xlink" fill-rule="evenodd" height="1.978in" preserveAspectRatio="none" stroke-linecap="round" viewBox="0 0 1463 1978" width="1.463in">
<style type="text/css">
.brush0 { fill: rgb(255,255,255); }
.pen0 { stroke: rgb(0,0,0); stroke-width: 1; stroke-linejoin: round; }
.brush1 { fill: none; }
.pen1 { stroke: none; }
.brush2 { fill: rgb(0,0,0); }
</style>
<g>
<polygon class="pen1 brush2" points="925,459 932,458 938,454 942,448 943,440 942,433 938,427 932,423 925,422 917,423 911,427 906,433 905,440 906,448 911,454 917,458 925,459 925,459"/>
<polygon class="pen1 brush2" points="541,462 549,460 556,456 560,450 561,442 560,435 556,429 549,425 541,423 534,425 528,429 524,435 523,442 524,450 528,456 534,460 541,462 541,462"/>
<polygon class="pen1 brush2" points="896,487 884,497 871,503 859,505 847,505 837,503 828,500 823,498 821,497 819,498 815,500 808,502 799,505 787,507 774,507 760,505 744,500 742,502 737,506 728,510 716,514 701,516 684,514 664,507 643,494 641,495 637,499 630,502 621,505 610,507 597,505 584,499 570,487 572,482 577,470 582,454 584,439 583,432 581,425 579,419 575,414 570,410 564,406 557,404 547,402 537,401 529,403 521,405 515,410 510,415 506,421 504,428 503,436 504,449 507,459 509,467 510,476 509,477 505,478 499,480 491,481 481,482 471,480 460,476 449,469 448,470 444,471 438,472 430,472 420,471 409,466 397,458 384,446 381,447 374,448 364,450 352,449 339,444 326,435 315,420 307,398 308,394 310,381 315,361 322,336 332,306 346,272 363,236 384,199 409,162 438,126 473,92 513,62 559,37 610,17 668,4 733,0 798,4 856,17 907,37 953,62 993,92 1028,126 1057,162 1083,199 1103,236 1120,272 1134,306 1144,336 1151,361 1156,381 1158,394 1159,398 1151,420 1140,435 1127,444 1114,449 1102,450 1092,448 1085,447 1082,446 1069,458 1057,466 1046,471 1036,472 1028,472 1022,471 1018,470 1017,469 1006,476 995,480 985,482 975,481 967,480 961,478 957,477 956,476 957,467 960,459 962,449 963,436 962,428 960,421 956,415 951,410 945,405 937,403 929,401 919,402 909,404 902,406 896,410 891,414 887,419 885,425 883,432 882,439 884,454 889,470 894,482 896,487 896,487"/>
<polygon class="pen1 brush2" points="250,1206 250,1205 250,1204 250,1202 251,1199 249,1200 249,1201 250,1203 250,1206 250,1206"/>
<polygon class="pen1 brush2" points="163,1013 149,1034 138,1055 128,1077 119,1099 111,1123 104,1147 98,1173 92,1199 92,1199 85,1254 83,1313 89,1375 101,1440 104,1425 107,1402 111,1375 116,1346 121,1318 128,1294 134,1276 142,1267 141,1206 145,1144 152,1079 163,1013 163,1013"/>
<polygon class="pen1 brush2" points="341,851 339,885 338,920 336,955 334,990 313,1016 296,1046 282,1077 272,1108 264,1137 258,1163 253,1184 250,1199 246,1191 246,1174 244,1158 236,1154 229,1163 224,1174 219,1186 214,1199 215,1166 217,1132 220,1097 224,1062 229,1028 236,995 245,963 257,932 269,921 279,909 289,899 298,888 307,879 317,869 328,860 341,851 341,851"/>
<polygon class="pen1 brush2" points="487,774 476,780 466,785 457,790 448,794 439,799 429,805 420,810 409,817 410,851 411,888 411,927 410,966 417,956 423,946 429,936 434,926 440,916 447,907 454,897 463,888 470,858 476,829 482,801 487,774 487,774"/>
<polygon class="pen1 brush2" points="1305,1392 1316,1405 1320,1418 1320,1427 1322,1429 1332,1398 1338,1369 1341,1342 1340,1314 1337,1287 1332,1258 1325,1228 1318,1195 1319,1210 1319,1259 1315,1325 1305,1392 1305,1392"/>
<polygon class="pen1 brush2" points="1141,1108 1152,1143 1157,1171 1160,1189 1160,1196 1165,1164 1171,1149 1177,1144 1179,1144 1188,1156 1194,1170 1200,1184 1206,1199 1206,1199 1217,1233 1223,1263 1225,1285 1226,1293 1235,1263 1241,1254 1245,1256 1246,1259 1248,1263 1250,1268 1251,1274 1253,1280 1252,1208 1249,1141 1244,1080 1237,1027 1224,1007 1211,988 1199,970 1186,952 1173,935 1159,919 1144,903 1126,888 1129,948 1132,1007 1137,1062 1141,1108 1141,1108"/>
<polygon class="pen1 brush2" points="1016,965 1026,980 1031,992 1034,1001 1034,1004 1037,975 1036,961 1035,957 1034,957 1041,963 1045,969 1049,975 1054,982 1054,947 1054,913 1054,879 1055,847 1044,839 1034,831 1026,824 1017,817 1009,810 1000,803 991,797 980,791 984,810 988,831 993,852 997,873 1002,895 1006,918 1011,941 1016,965 1016,965"/>
<polygon class="pen1 brush2" points="619,1350 619,1350 618,1350 618,1350 618,1349 620,1346 624,1342 632,1335 642,1325 641,1332 637,1350 633,1377 629,1411 627,1449 627,1488 631,1526 639,1561 641,1557 646,1547 655,1530 668,1507 667,1510 666,1520 665,1535 664,1554 664,1576 667,1601 673,1626 682,1652 682,1652 684,1650 690,1644 700,1628 700,1636 703,1657 707,1688 716,1725 729,1766 749,1806 775,1843 810,1873 808,1865 801,1844 792,1812 782,1774 772,1732 764,1690 758,1651 757,1618 758,1618 760,1617 764,1617 769,1617 774,1619 780,1624 786,1631 791,1642 789,1633 786,1619 784,1601 780,1580 776,1559 770,1539 762,1521 753,1507 753,1504 757,1500 765,1502 781,1517 781,1509 782,1488 782,1457 781,1421 777,1383 771,1347 761,1317 747,1297 747,1297 749,1297 751,1298 755,1300 760,1304 766,1309 773,1316 781,1325 781,1314 779,1285 776,1244 771,1199 771,1199 767,1169 762,1142 755,1118 747,1101 747,1100 749,1101 755,1111 771,1135 772,1130 774,1115 776,1093 777,1066 777,1036 775,1005 770,976 761,949 762,949 764,951 767,953 772,957 778,963 785,970 794,979 804,990 802,982 798,961 792,930 784,895 776,858 769,825 762,800 757,786 754,778 755,775 760,777 768,782 778,791 790,802 804,815 819,829 833,844 848,859 862,874 875,887 885,898 894,907 899,913 901,915 900,885 899,865 897,855 896,852 901,854 905,857 909,861 913,865 917,869 922,874 926,879 932,885 927,855 922,825 917,796 912,767 895,759 878,751 860,741 844,730 827,718 812,705 797,691 784,676 772,660 761,644 752,626 746,608 741,589 739,569 740,548 743,527 662,536 663,541 666,556 666,579 663,608 653,640 633,675 602,710 557,744 551,782 545,821 538,860 531,899 542,885 554,869 568,853 583,836 599,821 615,809 631,799 648,794 647,800 643,816 637,840 631,870 624,903 618,936 612,968 609,996 609,996 611,994 613,992 617,988 622,984 630,978 640,971 652,963 650,969 645,987 637,1013 629,1045 621,1079 614,1114 610,1146 609,1172 610,1171 612,1167 616,1161 621,1153 628,1145 636,1136 646,1127 658,1119 648,1146 640,1174 632,1204 626,1234 621,1264 618,1294 618,1323 619,1350 619,1350"/>
<polygon class="pen1 brush2" points="494,507 466,503 464,514 458,541 449,574 439,604 435,613 431,621 427,630 423,638 418,646 412,653 406,661 399,669 399,683 401,697 402,712 402,726 414,714 424,703 433,692 441,683 448,674 453,666 458,658 462,652 472,628 480,604 486,579 490,557 492,537 493,521 494,511 494,507 494,507"/>
<polygon class="pen1 brush2" points="345,776 327,797 309,819 293,842 278,866 264,891 251,917 241,945 232,973 224,1004 217,1042 211,1085 206,1133 203,1186 202,1242 203,1301 206,1363 212,1426 222,1490 235,1554 251,1617 272,1680 297,1740 326,1798 361,1853 358,1849 348,1836 333,1814 315,1785 293,1749 270,1705 247,1654 224,1597 202,1533 184,1464 169,1389 159,1309 156,1224 159,1134 171,1041 193,943 203,913 217,881 234,850 254,818 275,788 298,759 321,732 344,709 343,726 344,742 345,759 345,776 345,776"/>
<polygon class="pen1 brush2" points="399,497 369,489 368,527 361,599 353,679 351,743 351,824 345,947 337,1068 330,1145 311,1294 309,1428 319,1545 338,1645 360,1725 381,1785 397,1821 403,1834 388,1772 377,1692 371,1598 369,1497 370,1395 374,1298 381,1213 389,1145 400,1017 401,882 396,763 392,682 391,623 393,563 397,516 399,497 399,497"/>
<polygon class="pen1 brush2" points="585,537 557,537 554,548 545,582 531,637 513,712 492,805 468,917 443,1045 418,1188 409,1263 406,1337 409,1409 417,1479 429,1547 444,1611 461,1672 480,1729 500,1781 520,1828 539,1870 556,1905 571,1934 583,1957 592,1971 595,1978 557,1882 527,1783 505,1683 490,1584 481,1490 476,1401 475,1322 476,1254 482,1176 495,1073 512,956 532,834 552,721 569,626 580,561 585,537 585,537"/>
<polygon class="pen1 brush2" points="878,534 883,558 895,623 912,719 932,832 952,954 970,1072 983,1175 990,1253 990,1320 989,1399 983,1487 974,1581 959,1680 937,1780 907,1880 869,1976 873,1969 881,1954 893,1932 909,1903 926,1867 946,1825 966,1778 985,1726 1004,1669 1022,1608 1037,1544 1048,1476 1056,1406 1059,1334 1056,1260 1047,1185 1022,1042 997,914 974,803 952,709 934,634 920,579 911,546 908,534 878,534 878,534"/>
<polygon class="pen1 brush2" points="970,506 970,510 971,520 973,536 975,555 979,578 985,601 993,625 1003,648 1006,653 1012,663 1021,675 1030,688 1040,701 1049,714 1056,724 1062,730 1064,668 1057,660 1051,652 1046,643 1041,635 1037,627 1033,618 1029,610 1024,601 1014,572 1006,539 1001,511 999,500 970,506"/>
<polygon class="pen1 brush2" points="1122,706 1145,730 1168,757 1190,786 1211,816 1231,848 1248,879 1262,911 1273,942 1294,1040 1306,1133 1309,1223 1306,1308 1296,1388 1281,1463 1262,1532 1241,1595 1218,1652 1194,1703 1171,1747 1150,1783 1132,1813 1117,1834 1107,1847 1104,1851 1138,1796 1168,1738 1193,1677 1213,1615 1230,1551 1243,1487 1252,1423 1259,1360 1262,1298 1263,1239 1262,1183 1259,1130 1254,1082 1248,1039 1241,1001 1233,970 1224,942 1214,915 1202,889 1188,863 1173,839 1157,815 1140,792 1122,770 1122,706 1122,706"/>
<polygon class="pen1 brush2" points="1109,463 1110,469 1113,484 1118,508 1126,537 1134,570 1145,604 1158,638 1172,669 1180,685 1190,704 1202,727 1215,752 1229,780 1244,810 1259,841 1275,874 1291,909 1308,944 1323,980 1339,1015 1353,1051 1366,1086 1378,1121 1389,1154 1399,1187 1407,1221 1414,1255 1419,1292 1421,1329 1421,1369 1417,1411 1410,1454 1399,1500 1383,1549 1362,1601 1336,1655 1305,1713 1267,1775 1223,1840 1172,1909 1174,1908 1178,1903 1186,1896 1196,1886 1208,1873 1222,1858 1237,1840 1254,1820 1272,1797 1290,1772 1309,1745 1328,1716 1346,1685 1364,1652 1382,1617 1398,1581 1412,1546 1424,1510 1434,1473 1442,1435 1449,1396 1453,1356 1454,1315 1453,1273 1451,1254 1449,1234 1446,1214 1442,1194 1438,1174 1433,1154 1427,1133 1420,1112 1406,1073 1391,1034 1376,996 1359,958 1343,922 1327,887 1311,853 1295,821 1280,791 1266,762 1253,736 1241,712 1230,691 1222,672 1215,657 1210,644 1201,621 1190,596 1179,570 1168,544 1158,518 1151,495 1147,474 1148,457 1109,463 1109,463"/>
<polygon class="pen1 brush2" points="1065,496 1067,515 1071,561 1073,620 1072,679 1067,761 1063,880 1064,1015 1075,1142 1083,1210 1090,1295 1094,1392 1095,1493 1093,1595 1087,1689 1076,1770 1061,1833 1067,1820 1083,1783 1104,1724 1126,1643 1145,1543 1155,1425 1153,1291 1135,1142 1127,1065 1119,944 1114,821 1114,740 1112,677 1104,596 1096,525 1095,486 1065,496 1065,496"/>
<polygon class="pen1 brush2" points="355,465 318,459 319,476 315,496 307,520 297,546 285,572 274,598 263,623 254,646 249,659 243,674 234,693 224,715 212,739 198,765 184,793 169,824 153,856 137,890 121,925 104,961 88,999 73,1037 58,1076 44,1115 38,1133 33,1151 28,1169 24,1186 20,1204 18,1221 15,1239 14,1256 11,1299 12,1341 15,1382 20,1423 28,1462 38,1500 49,1537 62,1573 78,1610 95,1646 113,1680 132,1712 152,1742 171,1770 190,1796 208,1819 226,1840 242,1859 257,1874 269,1888 280,1898 287,1906 292,1910 294,1912 243,1843 198,1778 160,1716 128,1658 102,1604 82,1552 66,1503 55,1457 48,1413 44,1372 44,1332 46,1294 51,1258 57,1223 66,1189 75,1156 86,1123 98,1089 111,1054 126,1018 141,982 157,947 173,911 189,877 205,844 221,812 236,782 250,755 263,729 275,707 286,687 294,671 307,640 319,606 330,572 338,539 345,510 351,486 354,471 355,465"/>
<polygon class="pen1 brush0" points="872,125 868,138 849,127 831,117 813,109 796,102 779,98 763,94 748,92 733,91 733,111 733,130 733,146 733,155 720,158 720,148 720,131 720,112 720,91 692,94 668,100 646,108 628,117 614,126 604,134 597,139 595,141 597,128 599,126 605,121 615,113 629,104 647,96 668,88 692,82 720,80 720,69 720,60 720,55 720,53 733,50 733,52 733,58 733,67 733,78 748,79 764,81 780,85 797,89 815,96 833,104 852,113 872,125"/>
<polygon class="pen1 brush0" points="1057,341 1061,340 1064,338 1067,335 1068,331 1067,326 1064,322 1061,319 1057,318 1052,319 1048,322 1045,326 1044,331 1045,335 1048,338 1052,340 1057,341 1057,341"/>
<polygon class="pen1 brush0" points="1026,266 1030,265 1033,262 1036,258 1037,253 1036,248 1033,245 1030,243 1026,242 1021,243 1017,245 1015,248 1014,253 1015,258 1017,262 1021,265 1026,266 1026,266"/>
<polygon class="pen1 brush0" points="970,190 974,189 978,187 981,184 982,179 981,174 978,171 974,169 970,168 965,169 962,171 960,174 959,179 960,184 962,187 965,189 970,190 970,190"/>
<polygon class="pen1 brush0" points="743,423 747,422 750,420 752,417 753,412 752,407 750,403 747,400 743,399 738,400 734,403 731,407 730,412 731,417 734,420 738,422 743,423 743,423"/>
<polygon class="pen1 brush0" points="743,351 747,350 750,348 752,345 753,340 752,335 750,331 747,328 743,327 738,328 734,331 731,335 730,340 731,345 734,348 738,350 743,351 743,351"/>
<polygon class="pen1 brush0" points="743,280 747,279 750,276 752,272 753,267 752,263 750,260 747,258 743,257 738,258 734,260 731,263 730,267 731,272 734,276 738,279 743,280 743,280"/>
<polygon class="pen1 brush0" points="422,314 427,313 431,310 434,306 435,301 434,296 431,293 427,291 422,290 418,291 414,293 411,296 410,301 411,306 414,310 418,313 422,314 422,314"/>
<polygon class="pen1 brush0" points="466,249 471,248 474,245 476,241 477,236 476,232 474,228 471,226 466,225 462,226 458,228 456,232 455,236 456,241 458,245 462,248 466,249 466,249"/>
<polygon class="pen1 brush0" points="511,186 516,185 520,182 523,179 524,175 523,170 520,166 516,163 511,162 507,163 504,166 501,170 500,175 501,179 504,182 507,185 511,186"/>
<polygon class="pen1 brush0" points="1135,368 1139,381 1132,403 1123,417 1115,424 1106,427 1099,426 1093,423 1088,420 1087,419 1074,431 1062,439 1051,444 1041,445 1032,445 1026,444 1021,443 1020,442 1010,449 1001,454 993,457 987,458 982,458 979,457 977,456 976,456 977,442 977,428 975,415 970,403 962,393 952,385 938,380 920,379 904,382 890,389 880,398 873,410 869,424 868,438 869,454 874,469 865,477 856,481 848,482 840,481 834,478 829,475 826,473 825,472 823,473 819,475 812,477 803,479 792,480 779,480 764,478 749,473 747,475 741,479 732,483 720,487 705,489 688,487 669,480 648,467 647,468 643,471 637,474 630,477 622,479 613,480 603,478 594,472 597,456 600,440 600,425 598,411 592,399 583,390 570,382 551,378 535,378 520,381 507,387 496,397 488,408 484,421 485,436 490,452 490,453 488,454 486,455 483,456 478,456 471,454 463,449 453,442 452,443 448,444 441,445 433,445 424,444 413,439 401,431 388,419 386,420 381,422 372,423 363,422 352,418 342,409 332,394 324,372 328,361 336,383 345,398 355,406 365,410 374,410 382,409 387,407 389,406 402,419 415,427 426,432 436,433 444,433 451,431 455,430 456,429 467,438 474,441 478,441 479,439 475,423 477,408 484,395 494,384 507,375 522,369 538,366 553,365 574,370 589,379 600,391 607,406 610,421 610,436 609,450 605,462 614,467 622,469 629,469 636,466 641,463 646,460 648,457 649,456 670,469 689,476 706,478 721,476 733,472 742,468 748,464 750,462 766,467 780,469 794,469 805,467 815,464 822,462 826,460 828,459 829,460 832,461 836,464 841,466 846,467 852,468 857,467 862,463 858,445 858,429 861,414 867,400 876,388 888,379 903,372 922,368 939,368 954,372 966,380 977,391 985,404 989,417 991,431 989,443 989,443 990,444 992,445 995,446 999,445 1005,442 1013,437 1023,429 1024,430 1028,431 1035,433 1043,433 1052,432 1064,427 1075,419 1088,406 1089,407 1093,410 1098,413 1105,414 1113,411 1120,404 1128,390 1135,368"/>
</g>
</svg>
