<?xml version="1.0" encoding="UTF-8" standalone="no"?>
<!DOCTYPE svg PUBLIC "-//W3C//DTD SVG 1.0//EN" "http://www.w3.org/TR/2001/REC-SVG-20010904/DTD/svg10.dtd">
<svg xmlns="http://www.w3.org/2000/svg" xmlns:xlink="http://www.w3.org/1999/xlink" fill-rule="evenodd" height="0.937in" preserveAspectRatio="none" stroke-linecap="round" viewBox="0 0 2004 937" width="2.004in">
<style type="text/css">
.brush0 { fill: rgb(255,255,255); }
.pen0 { stroke: rgb(0,0,0); stroke-width: 1; stroke-linejoin: round; }
.brush1 { fill: none; }
.pen1 { stroke: none; }
.brush2 { fill: rgb(0,0,0); }
</style>
<g>
<polygon class="pen1 brush2" points="1895,626 1893,624 1888,618 1882,608 1876,593 1873,572 1873,546 1880,514 1895,476 1894,475 1893,474 1891,471 1889,467 1889,467 1885,459 1881,449 1878,437 1877,423 1879,407 1886,391 1898,375 1916,358 1938,337 1950,317 1954,299 1950,286 1941,278 1927,277 1909,284 1888,301 1868,320 1853,333 1842,342 1833,346 1826,349 1818,351 1810,353 1800,358 1800,366 1799,389 1797,424 1791,467 1791,467 1785,497 1778,528 1769,561 1757,594 1742,627 1725,659 1704,690 1679,719 1679,721 1680,725 1683,732 1690,739 1700,747 1715,754 1736,760 1764,763 1762,767 1756,778 1746,795 1733,817 1716,842 1697,868 1674,896 1648,922 1544,922 1546,911 1549,900 1554,890 1560,880 1567,871 1575,863 1584,856 1595,849 1592,848 1582,843 1568,836 1549,826 1527,813 1501,797 1474,778 1445,756 1416,731 1388,703 1361,672 1336,637 1313,600 1294,559 1280,514 1271,467 1273,467 1270,433 1271,398 1274,360 1281,321 1280,324 1276,332 1271,345 1265,362 1259,383 1254,408 1251,436 1250,467 1250,467 1251,492 1255,518 1261,545 1269,574 1281,603 1296,633 1315,663 1338,694 1337,694 1335,695 1330,696 1324,698 1317,700 1308,702 1297,704 1285,707 1272,710 1257,713 1241,716 1223,719 1205,722 1185,726 1164,729 1142,731 1119,734 1095,737 1069,739 1043,741 1017,743 989,744 960,745 931,745 901,745 871,745 840,744 808,742 776,739 743,736 710,732 677,727 678,731 681,743 682,761 681,783 676,809 664,837 644,865 613,893 612,896 609,906 603,920 594,937 498,937 498,935 498,928 499,918 502,905 508,889 518,872 533,853 554,834 553,830 549,813 545,777 542,714 540,711 536,707 529,702 520,695 509,688 496,679 482,669 468,657 453,645 439,632 424,617 411,602 398,586 387,568 378,550 371,531 369,531 364,530 355,528 345,524 333,518 319,508 305,494 291,476 288,476 281,477 270,477 255,477 237,477 218,475 197,472 176,467 176,467 160,462 144,456 129,448 115,439 103,427 92,413 83,397 77,378 74,380 65,383 54,383 41,377 29,362 19,333 15,287 17,221 18,222 21,226 27,231 35,236 44,242 56,245 69,247 85,246 102,242 122,235 142,226 163,214 183,200 203,183 223,162 240,139 237,137 228,130 215,118 202,102 188,82 178,58 172,31 173,0 176,3 184,12 197,23 213,36 231,49 250,60 269,66 288,67 305,67 319,71 332,79 343,90 351,100 357,110 361,116 362,119 371,114 381,109 391,103 403,96 417,89 432,83 449,77 469,73 492,70 518,68 548,69 581,72 619,78 661,86 709,99 761,115 788,123 814,130 840,135 865,138 889,140 913,141 936,141 959,140 980,138 1002,135 1023,131 1044,127 1064,122 1084,116 1103,110 1122,104 1141,97 1160,90 1178,84 1197,77 1215,70 1233,64 1251,58 1268,52 1286,47 1304,42 1322,38 1340,35 1358,32 1376,31 1394,30 1413,31 1450,34 1484,38 1518,44 1549,52 1580,61 1608,72 1635,85 1660,100 1683,117 1704,137 1724,158 1742,182 1758,208 1772,236 1784,267 1795,301 1798,300 1804,298 1815,294 1828,289 1843,282 1858,273 1874,262 1888,250 1903,239 1921,234 1940,234 1959,238 1976,247 1990,261 2000,278 2003,298 1999,322 1990,340 1978,352 1965,364 1952,377 1941,394 1934,418 1932,453 1948,464 1953,484 1950,510 1941,539 1929,569 1915,595 1903,615 1895,626"/>
<polygon class="pen1 brush2" points="737,764 751,765 765,767 779,768 793,769 807,770 821,770 834,769 848,767 849,770 853,777 857,788 860,802 861,818 858,836 849,855 834,873 832,878 828,890 820,907 810,925 721,925 721,922 722,915 723,904 726,890 731,875 738,859 748,843 761,829 737,764"/>
<polygon class="pen1 brush2" points="1250,750 1263,748 1275,746 1287,744 1300,742 1312,739 1325,736 1338,732 1352,727 1356,730 1367,737 1382,748 1399,762 1413,778 1424,796 1427,815 1420,834 1406,855 1394,871 1385,882 1377,891 1371,898 1366,905 1362,913 1358,922 1250,922 1249,920 1248,915 1248,907 1251,895 1257,880 1269,863 1287,842 1314,818 1250,750"/>
<polygon class="pen1 brush0" points="240,284 246,283 252,282 257,279 262,275 266,271 269,266 270,260 271,254 270,248 269,243 266,239 262,234 257,231 252,228 246,227 240,226 229,228 220,234 214,243 212,254 214,266 220,275 229,282 240,284"/>
</g>
</svg>
