<?xml version="1.0" encoding="UTF-8" standalone="no"?>
<!DOCTYPE svg PUBLIC "-//W3C//DTD SVG 1.0//EN" "http://www.w3.org/TR/2001/REC-SVG-20010904/DTD/svg10.dtd">
<svg xmlns="http://www.w3.org/2000/svg" xmlns:xlink="http://www.w3.org/1999/xlink" fill-rule="evenodd" height="1.532in" preserveAspectRatio="none" stroke-linecap="round" viewBox="0 0 1979 1532" width="1.979in">
<style type="text/css">
.brush0 { fill: rgb(255,255,255); }
.pen0 { stroke: rgb(0,0,0); stroke-width: 1; stroke-linejoin: round; }
.brush1 { fill: none; }
.pen1 { stroke: none; }
.brush2 { fill: rgb(0,0,0); }
</style>
<g>
<polygon class="pen1 brush2" points="1949,722 1951,730 1956,754 1961,790 1963,837 1963,855 1963,873 1961,892 1959,912 1955,936 1949,961 1941,986 1932,1011 1921,1037 1908,1061 1893,1086 1875,1110 1865,1122 1853,1134 1841,1146 1828,1158 1815,1170 1800,1181 1785,1192 1769,1202 1752,1212 1734,1222 1715,1231 1696,1240 1675,1248 1653,1256 1631,1263 1607,1270 1562,1280 1518,1287 1474,1291 1431,1292 1388,1291 1346,1288 1305,1283 1266,1276 1228,1268 1191,1258 1157,1248 1124,1238 1094,1227 1066,1216 1040,1206 1017,1196 1003,1190 989,1183 975,1177 961,1169 947,1162 934,1154 920,1146 906,1138 892,1130 878,1121 864,1112 851,1102 837,1093 823,1083 810,1073 796,1063 785,1064 773,1064 760,1064 748,1063 735,1062 722,1061 709,1059 696,1057 684,1055 671,1052 659,1048 647,1045 636,1040 625,1035 615,1030 605,1024 608,1026 615,1033 627,1044 642,1058 660,1076 680,1096 702,1119 725,1144 748,1171 770,1198 791,1227 811,1256 828,1284 842,1313 852,1341 858,1367 857,1377 851,1381 840,1380 826,1375 810,1366 793,1355 776,1342 760,1327 749,1316 732,1299 709,1276 683,1248 653,1216 623,1182 592,1146 563,1110 537,1074 514,1040 497,1008 487,980 484,956 491,938 508,926 537,922 550,922 565,924 581,926 597,928 614,931 631,935 649,938 667,943 685,947 703,951 721,956 738,960 754,965 769,969 784,973 797,976 777,968 754,958 731,948 708,938 686,929 667,921 652,915 641,912 617,887 594,862 572,837 550,811 529,785 508,758 487,730 468,702 448,673 429,643 411,612 393,581 375,549 358,515 341,481 325,445 310,412 294,380 277,349 260,321 242,295 225,273 209,255 193,242 144,220 141,219 132,216 121,210 110,202 102,192 100,178 105,162 122,142 123,141 126,137 131,132 139,126 147,118 157,110 169,101 182,92 191,87 200,82 210,77 220,73 230,69 241,66 252,63 263,61 281,60 300,61 319,66 339,75 358,87 377,104 395,125 413,152 417,159 424,171 433,186 443,202 452,218 460,231 466,240 467,244 453,368 466,368 483,249 491,248 504,246 520,242 540,238 562,232 587,224 614,214 644,202 675,188 707,171 740,151 774,128 808,101 842,71 875,38 908,0 907,3 905,10 904,23 905,39 909,59 919,82 935,108 960,137 954,143 947,157 939,178 933,203 928,230 926,256 929,279 936,297 932,300 923,308 909,321 893,337 876,356 860,378 847,401 838,425 833,423 822,421 804,421 783,424 759,431 734,443 710,460 688,483 686,482 681,478 674,474 663,468 651,463 636,459 619,457 601,458 633,507 667,557 702,607 739,657 776,706 814,755 853,802 892,847 932,890 973,930 1013,966 1054,999 1095,1027 1136,1051 1176,1070 1216,1083 1246,1090 1277,1097 1309,1102 1341,1107 1373,1111 1405,1114 1437,1116 1470,1117 1502,1117 1534,1115 1565,1113 1596,1109 1627,1104 1657,1098 1686,1091 1714,1082 1741,1071 1767,1060 1791,1047 1815,1032 1836,1016 1857,998 1875,978 1892,957 1907,934 1920,909 1931,883 1939,855 1945,824 1949,792 1950,758 1949,722 1949,722"/>
<polygon class="pen1 brush2" points="788,1374 609,1378 663,1401 510,1439 659,1429 503,1496 703,1448 619,1532 744,1455 726,1530 834,1395 827,1394 819,1392 811,1389 804,1386 797,1382 792,1379 789,1376 788,1374 788,1374"/>
<polygon class="pen1 brush2" points="351,563 345,551 338,539 332,526 326,513 320,499 314,484 308,468 303,452 288,498 266,545 241,591 214,635 189,672 168,702 153,722 148,729 149,739 152,746 157,750 163,753 169,754 174,754 178,753 179,753 209,728 235,705 258,684 278,665 295,648 309,632 320,618 329,606 336,596 342,587 346,579 348,573 350,569 351,566 351,564 351,563 351,563"/>
<polygon class="pen1 brush2" points="129,739 20,750 84,767 0,806 80,801 34,869 108,824 97,898 144,813 162,862 173,770 158,772 148,769 140,765 135,758 131,751 130,745 129,741 129,739"/>
<polygon class="pen1 brush0" points="263,151 273,149 280,145 285,137 287,128 285,120 280,113 273,109 263,107 255,109 248,113 244,120 242,128 244,137 248,145 255,149 263,151"/>
</g>
</svg>
