<?xml version="1.0" encoding="UTF-8" standalone="no"?>
<!DOCTYPE svg PUBLIC "-//W3C//DTD SVG 1.0//EN" "http://www.w3.org/TR/2001/REC-SVG-20010904/DTD/svg10.dtd">
<svg xmlns="http://www.w3.org/2000/svg" xmlns:xlink="http://www.w3.org/1999/xlink" fill-rule="evenodd" height="0.981in" preserveAspectRatio="none" stroke-linecap="round" viewBox="0 0 1980 981" width="1.98in">
<style type="text/css">
.brush0 { fill: rgb(255,255,255); }
.pen0 { stroke: rgb(0,0,0); stroke-width: 1; stroke-linejoin: round; }
.brush1 { fill: none; }
.pen1 { stroke: none; }
.brush2 { fill: rgb(0,0,0); }
</style>
<g>
<polygon class="pen1 brush2" points="813,496 812,498 809,504 805,513 799,524 791,538 781,553 770,569 757,585 742,602 725,618 706,633 686,647 664,658 640,667 614,673 587,675 544,672 515,664 497,652 489,637 488,619 493,600 502,580 513,560 517,552 521,544 526,535 531,526 537,518 543,509 550,501 557,493 550,470 542,447 533,424 523,402 513,380 501,358 489,337 476,316 466,302 456,289 445,276 435,265 424,254 413,243 402,233 390,224 378,216 365,208 352,201 338,194 324,188 309,182 293,177 277,173 259,171 241,169 223,168 206,169 188,170 171,171 154,174 137,177 120,181 103,185 87,191 70,197 53,203 37,210 20,218 3,226 0,222 18,213 36,205 54,198 71,191 87,185 104,180 120,175 137,171 153,168 170,165 187,164 204,163 222,163 240,164 259,165 279,168 296,172 312,177 327,183 341,189 355,196 368,203 381,211 393,220 405,229 417,239 428,249 439,260 450,272 461,284 471,297 482,311 495,332 507,353 518,374 529,396 538,418 547,441 556,464 563,487 566,484 570,481 573,478 578,475 582,472 586,469 591,466 595,463 593,437 591,410 587,384 583,358 578,333 572,307 565,282 557,257 548,236 538,215 528,195 517,175 506,156 493,137 480,119 465,101 456,93 447,85 438,78 429,71 420,65 410,58 400,53 390,47 380,42 369,38 359,34 348,30 337,27 326,24 315,22 303,20 284,18 266,17 247,17 229,17 211,18 193,20 175,23 157,26 139,30 121,35 104,40 86,45 69,51 51,57 34,64 16,71 15,64 32,57 49,51 66,44 84,39 102,33 119,28 137,24 155,20 173,16 192,14 210,12 228,10 247,10 266,10 284,11 303,13 314,15 326,18 337,20 349,24 360,27 371,32 382,36 393,41 403,47 414,52 424,59 434,65 443,73 452,80 461,88 469,97 485,114 499,132 512,151 524,171 535,192 545,213 554,234 563,256 571,281 578,306 584,331 590,356 594,382 597,408 599,433 601,459 612,455 624,451 637,448 651,446 665,445 680,445 696,447 713,449 750,456 777,464 795,472 806,480 811,486 813,491 813,495 813,496 813,496"/>
<polygon class="pen1 brush2" points="824,499 836,532 849,562 862,589 876,613 890,635 904,653 919,669 933,683 948,694 963,703 978,710 993,715 1008,718 1023,720 1038,720 1053,718 1074,713 1095,706 1116,696 1135,685 1154,672 1172,659 1189,645 1205,631 1219,617 1232,604 1243,591 1252,580 1260,571 1265,564 1269,560 1270,558 1259,542 1247,528 1234,514 1221,503 1207,492 1193,483 1178,474 1164,467 1149,461 1133,456 1118,452 1102,449 1087,447 1071,446 1055,445 1040,445 1019,446 998,448 978,451 958,455 939,459 922,463 905,468 889,473 875,478 862,483 851,487 842,491 834,494 829,497 825,498 824,499 824,499"/>
<polygon class="pen1 brush2" points="1976,662 1951,627 1927,594 1902,565 1878,538 1854,514 1831,492 1807,472 1784,455 1761,440 1738,428 1716,417 1693,408 1671,401 1650,396 1629,393 1608,391 1572,391 1538,395 1506,403 1475,413 1446,426 1418,440 1393,456 1370,473 1349,490 1331,506 1315,521 1302,535 1291,547 1283,556 1279,562 1277,564 1294,580 1308,593 1320,604 1331,613 1341,622 1353,630 1365,638 1380,648 1568,527 1582,519 1597,514 1610,511 1624,511 1638,514 1651,520 1665,530 1678,543 1689,556 1699,571 1710,590 1721,610 1732,634 1744,661 1755,690 1766,723 1777,722 1789,720 1802,718 1815,716 1829,713 1844,711 1859,708 1874,704 1888,700 1903,696 1917,692 1931,687 1944,681 1955,675 1966,669 1976,662 1976,662"/>
<polygon class="pen1 brush2" points="1980,973 1980,979 1962,977 1945,975 1929,973 1912,970 1896,966 1880,961 1864,956 1847,949 1837,944 1827,939 1818,933 1809,926 1801,919 1793,911 1787,901 1782,891 1777,889 1773,886 1768,881 1764,875 1759,868 1755,861 1750,852 1746,843 1740,830 1735,816 1730,802 1724,787 1719,772 1714,757 1708,743 1702,729 1641,604 1635,595 1628,588 1619,584 1609,582 1598,583 1587,586 1575,592 1563,600 1548,611 1534,622 1519,633 1505,644 1490,656 1475,667 1460,678 1445,689 1430,699 1414,709 1397,719 1379,728 1360,737 1340,746 1320,754 1299,762 1298,759 1294,750 1288,737 1279,722 1283,720 1293,713 1307,704 1325,693 1344,682 1362,670 1378,660 1391,652 1570,536 1586,528 1601,523 1615,521 1628,521 1641,525 1652,531 1664,538 1674,548 1689,567 1702,589 1714,612 1725,636 1735,660 1743,684 1750,705 1756,723 1761,734 1769,753 1780,778 1790,806 1798,833 1802,858 1800,878 1790,889 1795,899 1801,908 1808,916 1815,922 1823,929 1831,934 1840,939 1850,944 1866,951 1881,956 1897,961 1914,964 1930,967 1946,970 1963,971 1980,973 1980,973"/>
<polygon class="pen1 brush2" points="1451,695 1576,602 1585,596 1593,592 1602,590 1609,590 1617,592 1623,597 1629,604 1635,614 1693,729 1671,730 1650,730 1631,730 1614,730 1597,729 1582,728 1567,726 1553,724 1540,722 1527,719 1514,716 1502,713 1489,709 1477,704 1464,700 1451,695 1451,695"/>
<polygon class="pen1 brush2" points="584,918 594,920 605,914 617,902 629,884 642,863 654,839 668,815 681,790 694,768 705,750 716,738 729,731 744,732 763,739 788,755 820,779 855,799 886,803 913,797 936,784 954,767 968,750 976,737 979,732 939,709 934,714 930,719 926,724 922,729 917,733 910,737 900,740 888,743 872,742 853,733 832,720 810,705 788,689 768,674 750,664 736,659 724,661 713,668 702,679 691,694 679,713 666,736 651,761 634,790 620,812 607,831 597,849 588,864 582,877 577,889 575,898 576,906 566,911 555,915 544,918 533,921 522,924 512,926 501,927 492,929 482,931 473,932 464,933 455,934 446,935 438,936 429,936 421,937 422,945 431,944 439,943 448,942 457,940 466,939 475,938 484,936 493,935 503,933 513,931 524,929 535,927 546,925 557,921 567,917 577,912 579,914 581,915 582,917 584,918 584,918"/>
<polygon class="pen1 brush2" points="1344,952 1333,954 1324,949 1315,939 1306,924 1297,905 1289,883 1280,858 1270,833 1260,809 1250,790 1241,776 1229,768 1213,767 1193,772 1166,784 1131,804 1095,819 1063,819 1037,809 1016,792 1000,771 988,752 981,738 979,732 1033,733 1037,738 1039,743 1041,746 1043,749 1046,751 1051,754 1058,757 1070,760 1077,761 1086,761 1095,758 1105,755 1116,750 1128,744 1140,738 1152,731 1163,725 1175,718 1186,712 1197,706 1207,702 1216,698 1223,696 1230,696 1242,699 1252,707 1261,720 1271,736 1281,756 1291,780 1303,807 1317,837 1326,857 1335,875 1341,890 1347,903 1351,915 1354,924 1355,932 1355,939 1362,942 1369,945 1376,948 1383,951 1391,954 1398,957 1406,959 1414,961 1426,964 1437,967 1448,970 1459,971 1471,973 1482,973 1494,974 1506,974 1506,981 1494,981 1482,980 1470,980 1459,978 1447,977 1436,975 1424,972 1412,969 1404,966 1397,964 1390,961 1383,958 1376,954 1369,951 1361,948 1354,944 1352,946 1349,949 1347,951 1344,952 1344,952"/>
<polygon class="pen1 brush0" points="621,567 627,566 632,565 638,562 642,559 646,554 649,550 650,545 651,539 650,533 649,527 646,521 642,517 638,513 632,510 627,508 621,507 615,508 609,510 604,513 599,517 595,521 592,527 591,533 590,539 591,545 592,550 595,554 599,559 604,562 609,565 615,566 621,567"/>
</g>
</svg>
