<?xml version="1.0" encoding="UTF-8" standalone="no"?>
<!DOCTYPE svg PUBLIC "-//W3C//DTD SVG 1.0//EN" "http://www.w3.org/TR/2001/REC-SVG-20010904/DTD/svg10.dtd">
<svg xmlns="http://www.w3.org/2000/svg" xmlns:xlink="http://www.w3.org/1999/xlink" fill-rule="evenodd" height="1.98in" preserveAspectRatio="none" stroke-linecap="round" viewBox="0 0 1779 1980" width="1.779in">
<style type="text/css">
.brush0 { fill: rgb(255,255,255); }
.pen0 { stroke: rgb(0,0,0); stroke-width: 1; stroke-linejoin: round; }
.brush1 { fill: none; }
.pen1 { stroke: none; }
.brush2 { fill: rgb(0,0,0); }
</style>
<g>
<polygon class="pen1 brush2" points="602,335 598,334 586,332 569,328 548,321 524,312 500,298 476,280 455,257 452,257 443,257 428,258 409,259 385,261 357,265 326,270 293,277 258,286 221,298 183,313 145,330 107,351 70,375 34,404 0,436 1,434 3,428 8,419 15,407 25,392 38,374 55,354 77,333 102,310 133,286 168,261 210,235 257,210 311,184 371,159 439,135 441,131 449,122 461,108 477,90 496,71 520,52 547,35 577,20 595,14 613,9 629,6 645,4 660,4 674,5 688,7 700,10 716,16 731,24 746,33 760,44 772,57 784,71 793,87 801,105 809,127 818,151 826,176 835,202 844,228 853,254 864,281 875,307 887,333 901,357 916,381 932,403 951,424 971,443 994,459 1019,473 1039,483 1060,496 1083,512 1107,529 1132,549 1158,570 1184,593 1212,617 1240,643 1269,670 1298,698 1327,726 1356,756 1386,786 1415,816 1444,846 1473,876 1501,906 1529,936 1555,965 1581,994 1607,1022 1631,1048 1654,1074 1675,1098 1695,1121 1714,1142 1731,1161 1746,1178 1759,1193 1770,1206 1779,1216 1777,1216 1773,1217 1765,1218 1755,1219 1743,1221 1728,1223 1711,1226 1692,1228 1671,1230 1648,1232 1623,1234 1597,1236 1569,1237 1540,1237 1510,1237 1478,1237 1446,1235 1413,1233 1379,1230 1345,1225 1310,1220 1275,1213 1239,1205 1204,1195 1169,1184 1134,1171 1099,1156 1065,1140 1032,1122 999,1102 967,1079 936,1055 887,1012 841,967 800,922 764,877 734,834 709,792 692,753 682,718 680,688 687,664 703,645 729,635 765,632 813,638 873,655 945,682 910,657 872,636 832,620 792,610 753,606 717,608 686,616 662,632 645,655 638,686 642,725 660,773 692,831 740,898 806,975 892,1062 915,1083 938,1103 963,1121 988,1138 1013,1153 1039,1167 1066,1180 1092,1192 1119,1203 1146,1213 1173,1221 1200,1229 1227,1236 1253,1242 1280,1247 1306,1251 1331,1255 1356,1258 1381,1260 1404,1262 1427,1263 1449,1264 1470,1265 1491,1265 1509,1265 1527,1264 1544,1264 1559,1263 1572,1262 1585,1261 1595,1261 1604,1260 1610,1271 1625,1301 1646,1344 1669,1393 1690,1443 1707,1488 1714,1522 1709,1538 1701,1538 1688,1534 1671,1525 1651,1513 1628,1497 1603,1480 1577,1461 1550,1442 1523,1422 1496,1403 1471,1385 1447,1369 1425,1356 1407,1346 1392,1339 1382,1338 1377,1339 1369,1341 1360,1344 1348,1347 1334,1351 1318,1356 1300,1361 1281,1366 1260,1371 1237,1376 1214,1381 1189,1386 1163,1390 1137,1393 1109,1395 1081,1397 1053,1397 1024,1397 994,1394 965,1391 936,1385 906,1378 877,1369 849,1358 821,1345 793,1330 767,1311 741,1291 716,1267 692,1241 670,1212 649,1179 612,1111 583,1044 561,978 544,914 534,852 528,791 527,734 530,679 536,628 545,581 557,537 570,498 584,464 599,435 614,411 628,393 602,335 602,335"/>
<polygon class="pen1 brush2" points="1013,1453 1026,1484 1035,1523 1040,1569 1040,1617 1037,1665 1031,1710 1020,1750 1007,1780 997,1792 981,1801 962,1809 940,1814 914,1818 887,1821 859,1822 831,1822 803,1821 777,1820 752,1818 730,1816 712,1814 698,1813 689,1811 686,1811 698,1815 710,1818 722,1822 734,1825 746,1828 758,1832 769,1835 781,1838 793,1841 805,1844 817,1846 828,1849 840,1852 852,1855 863,1857 875,1860 873,1861 867,1862 858,1865 846,1868 832,1872 816,1877 799,1882 781,1887 763,1892 746,1897 729,1902 713,1906 700,1910 688,1913 680,1916 675,1917 675,1918 680,1918 690,1918 703,1918 720,1917 739,1916 759,1915 781,1914 802,1913 823,1911 843,1910 861,1909 876,1908 888,1908 895,1907 898,1907 766,1980 848,1970 917,1950 974,1922 1019,1886 1055,1844 1083,1797 1102,1748 1115,1698 1122,1648 1125,1600 1124,1555 1121,1515 1117,1481 1113,1455 1109,1438 1108,1432 1089,1439 1070,1441 1051,1440 1034,1439 1020,1438 1011,1438 1009,1443 1013,1453"/>
<polygon class="pen1 brush0" points="567,166 574,165 580,163 586,160 591,156 595,151 598,145 600,139 601,132 600,125 598,119 595,113 591,108 586,104 580,101 574,99 567,98 561,99 555,101 549,104 544,108 539,113 536,119 534,125 533,132 534,139 536,145 539,151 544,156 549,160 555,163 561,165 567,166 567,166"/>
<polygon class="pen1 brush0" points="577,767 597,794 615,767 607,871 577,767 577,767"/>
<polygon class="pen1 brush0" points="642,912 668,935 679,902 698,1003 642,912 642,912"/>
<polygon class="pen1 brush0" points="645,1048 672,1068 679,1036 708,1136 645,1048"/>
</g>
</svg>
