<?xml version="1.0" encoding="UTF-8" standalone="no"?>
<!DOCTYPE svg PUBLIC "-//W3C//DTD SVG 1.0//EN" "http://www.w3.org/TR/2001/REC-SVG-20010904/DTD/svg10.dtd">
<svg xmlns="http://www.w3.org/2000/svg" xmlns:xlink="http://www.w3.org/1999/xlink" fill-rule="evenodd" height="2.004in" preserveAspectRatio="none" stroke-linecap="round" viewBox="0 0 1360 2004" width="1.36in">
<style type="text/css">
.brush0 { fill: rgb(255,255,255); }
.pen0 { stroke: rgb(0,0,0); stroke-width: 1; stroke-linejoin: round; }
.brush1 { fill: none; }
.pen1 { stroke: none; }
.brush2 { fill: rgb(0,0,0); }
</style>
<g>
<polygon class="pen1 brush2" points="521,1893 524,1901 528,1910 533,1919 539,1928 545,1937 552,1947 560,1956 570,1964 580,1972 591,1980 603,1987 616,1993 630,1997 646,2001 663,2003 681,2004 714,2001 742,1993 765,1981 784,1966 798,1949 810,1931 818,1913 824,1896 806,1903 788,1909 770,1914 752,1918 733,1922 714,1924 695,1926 676,1926 656,1925 636,1924 616,1921 597,1918 578,1913 559,1907 540,1901 521,1893 521,1893"/>
<polygon class="pen1 brush2" points="1287,1053 1289,1060 1295,1078 1302,1103 1310,1134 1316,1166 1318,1195 1316,1219 1307,1235 1307,1323 1294,1323 1294,1238 1281,1238 1273,1228 1268,1212 1267,1190 1267,1166 1266,1140 1265,1116 1260,1096 1287,1053 1287,1053"/>
<polygon class="pen1 brush2" points="1178,1523 1180,1527 1185,1539 1192,1556 1197,1576 1201,1597 1200,1617 1193,1633 1179,1644 1163,1719 1152,1719 1166,1644 1152,1637 1146,1618 1145,1599 1145,1590 1146,1589 1147,1586 1150,1581 1153,1574 1158,1565 1164,1554 1170,1540 1178,1523 1178,1523"/>
<polygon class="pen1 brush2" points="185,1523 183,1527 178,1539 171,1556 166,1576 162,1597 162,1617 168,1633 182,1644 199,1719 210,1719 196,1644 210,1637 216,1618 217,1599 217,1590 216,1589 215,1586 212,1581 209,1574 204,1565 199,1554 192,1540 185,1523 185,1523"/>
<polygon class="pen1 brush2" points="75,1053 73,1060 67,1078 59,1103 52,1134 46,1166 44,1195 46,1219 56,1235 56,1323 68,1323 68,1238 81,1238 89,1228 93,1212 95,1190 95,1166 95,1140 97,1116 102,1096 75,1053 75,1053"/>
<polygon class="pen1 brush2" points="675,618 678,1908 621,1903 565,1890 512,1868 461,1839 412,1802 366,1759 324,1709 284,1653 248,1592 216,1525 189,1454 165,1378 147,1299 133,1216 125,1130 122,1042 123,981 128,920 134,861 144,804 156,748 170,693 187,641 206,590 220,585 238,579 259,572 283,565 310,559 339,553 370,548 403,544 436,543 471,543 506,547 541,553 576,563 610,577 643,595 675,618 675,618"/>
<polygon class="pen1 brush2" points="683,607 712,585 743,567 775,553 808,543 841,536 875,531 908,529 941,529 973,531 1004,535 1034,539 1061,545 1087,551 1110,557 1131,563 1148,569 1134,539 1121,511 1106,483 1092,457 1077,432 1061,407 1044,384 1026,361 1022,379 1013,392 998,400 979,404 957,404 932,401 904,396 875,389 845,381 816,372 787,363 759,354 734,346 712,340 693,336 679,334 666,335 649,339 628,345 604,353 578,361 550,370 520,379 491,387 462,394 434,400 408,404 384,405 363,403 346,398 334,388 327,374 310,396 294,419 278,442 264,466 250,491 237,518 224,545 212,573 228,567 247,561 269,555 294,548 322,542 352,537 383,532 416,530 449,529 484,530 518,534 553,541 587,552 620,566 652,584 683,607 683,607"/>
<polygon class="pen1 brush2" points="1131,256 1132,235 1135,222 1141,217 1149,218 1166,131 1179,131 1159,218 1166,223 1172,231 1177,241 1179,252 1185,272 1199,300 1220,335 1244,373 1269,411 1293,446 1314,474 1330,493 1339,506 1345,517 1348,527 1347,535 1343,541 1336,545 1327,547 1314,547 1297,547 1275,548 1250,551 1224,554 1200,557 1180,560 1166,562 1161,563 1125,485 1146,484 1169,485 1193,488 1217,491 1238,495 1255,498 1267,501 1271,502 1255,486 1234,459 1211,424 1188,384 1166,344 1148,307 1136,276 1131,256 1131,256"/>
<polygon class="pen1 brush2" points="348,283 336,318 333,345 339,365 352,377 372,384 398,386 427,384 459,379 493,371 527,362 560,351 592,341 621,333 646,325 666,321 679,320 695,322 717,327 744,335 773,345 805,355 839,366 872,375 904,383 935,388 962,390 986,388 1004,380 1016,367 1020,347 1016,319 1003,283 993,261 983,241 972,221 962,203 951,186 940,170 929,155 918,141 942,43 871,96 849,79 826,65 801,52 776,42 751,35 725,29 699,26 672,25 645,27 619,30 593,36 568,45 543,55 518,68 495,83 473,100 402,46 428,148 417,161 407,176 396,191 386,208 376,225 367,243 357,263 348,283 348,283"/>
<polygon class="pen1 brush2" points="229,256 227,235 222,222 215,216 206,216 188,131 178,131 196,219 190,225 185,232 183,242 182,252 176,272 161,300 141,335 117,373 91,411 66,446 45,474 30,493 21,506 15,517 12,527 13,535 17,541 24,545 34,547 46,547 63,547 85,548 110,551 136,554 160,557 180,560 194,562 199,563 236,485 215,484 191,485 167,488 143,491 121,495 104,498 92,501 88,502 105,486 126,459 149,424 172,384 194,344 212,307 224,276 229,256"/>
<polygon class="pen1 brush2" points="692,620 722,599 754,583 786,569 819,560 853,553 887,548 920,546 953,546 985,548 1016,552 1045,556 1072,561 1097,567 1119,573 1139,579 1155,584 1174,635 1190,688 1205,744 1217,800 1226,859 1233,918 1238,980 1239,1042 1236,1129 1228,1214 1214,1295 1196,1374 1172,1448 1145,1519 1113,1585 1078,1646 1039,1702 996,1752 951,1796 903,1833 853,1863 800,1886 746,1901 690,1908 692,620"/>
<polygon class="pen1 brush0" points="514,265 526,264 536,260 546,255 554,248 561,240 566,230 569,220 570,209 569,198 566,187 561,178 554,170 546,163 536,158 526,155 514,154 503,155 493,158 484,163 476,170 469,178 464,187 460,198 459,209 460,220 464,230 469,240 476,248 484,255 493,260 503,264 514,265"/>
<polygon class="pen1 brush0" points="844,262 833,261 823,257 814,252 806,245 799,237 794,227 791,217 790,206 791,195 794,184 799,175 806,167 814,160 823,155 833,152 844,151 855,152 866,155 875,160 883,167 890,175 895,184 898,195 899,206 898,217 895,227 890,237 883,245 875,252 866,257 855,261 844,262"/>
</g>
</svg>
