<?xml version="1.0" encoding="UTF-8" standalone="no"?>
<!DOCTYPE svg PUBLIC "-//W3C//DTD SVG 1.0//EN" "http://www.w3.org/TR/2001/REC-SVG-20010904/DTD/svg10.dtd">
<svg xmlns="http://www.w3.org/2000/svg" xmlns:xlink="http://www.w3.org/1999/xlink" fill-rule="evenodd" height="1.978in" preserveAspectRatio="none" stroke-linecap="round" viewBox="0 0 1869 1978" width="1.869in">
<style type="text/css">
.brush0 { fill: rgb(255,255,255); }
.pen0 { stroke: rgb(0,0,0); stroke-width: 1; stroke-linejoin: round; }
.brush1 { fill: none; }
.pen1 { stroke: none; }
.brush2 { fill: rgb(0,0,0); }
</style>
<g>
<polygon class="pen1 brush2" points="950,459 965,435 981,410 997,386 1013,362 1028,338 1044,314 1060,290 1075,266 1057,341 1047,358 1034,382 1018,410 1001,440 985,468 972,494 962,513 959,524 965,525 970,526 976,527 982,528 988,530 994,531 999,532 1005,533 1009,530 1013,527 1016,523 1020,520 1024,517 1028,514 1031,511 1035,507 1136,6 1138,6 1139,6 1139,6 1139,6 1132,66 1125,126 1118,186 1111,246 1111,246 1097,361 1089,422 1086,448 1085,460 1091,457 1101,451 1113,441 1127,429 1141,417 1154,406 1165,397 1172,391 1129,466 1119,475 1109,485 1100,495 1091,506 1084,518 1079,531 1075,544 1074,558 1078,560 1082,562 1087,565 1091,567 1107,536 1123,506 1139,475 1156,445 1172,414 1188,383 1204,352 1221,322 1237,291 1253,260 1269,229 1286,199 1302,168 1318,137 1335,106 1351,75 1352,75 1352,74 1352,74 1353,74 1340,106 1328,139 1315,171 1301,203 1288,235 1274,268 1260,300 1246,332 1232,364 1218,396 1204,429 1190,461 1176,493 1162,524 1149,556 1135,588 1141,586 1150,578 1163,565 1179,548 1197,527 1217,503 1239,477 1261,450 1284,422 1307,396 1329,371 1349,348 1368,328 1385,313 1399,302 1410,297 1406,306 1399,318 1388,334 1374,352 1358,373 1340,396 1321,420 1301,444 1281,469 1261,493 1241,516 1223,538 1207,558 1193,574 1181,588 1173,598 1180,596 1191,591 1204,583 1218,575 1233,566 1246,557 1256,550 1263,546 1269,536 1280,519 1294,497 1311,470 1331,439 1352,406 1374,372 1397,337 1419,302 1441,269 1461,238 1480,211 1495,187 1508,170 1517,158 1521,154 1335,499 1339,498 1343,497 1347,494 1352,490 1357,485 1362,480 1367,474 1372,467 1388,444 1404,418 1421,390 1438,362 1454,337 1469,316 1482,301 1494,294 1485,314 1473,334 1457,356 1441,378 1424,401 1410,423 1399,443 1392,463 1405,459 1419,454 1434,447 1449,438 1464,428 1479,417 1495,405 1511,393 1527,382 1542,370 1558,359 1573,349 1588,339 1602,331 1616,325 1629,321 1626,325 1617,332 1605,342 1589,355 1569,369 1548,385 1525,402 1501,419 1476,437 1452,454 1429,471 1408,486 1388,500 1372,511 1360,520 1352,526 1341,543 1333,556 1327,566 1323,573 1320,578 1318,581 1316,585 1315,588 1317,589 1322,588 1329,588 1336,586 1344,585 1350,583 1355,582 1358,581 1373,569 1392,553 1414,535 1438,514 1465,491 1493,467 1521,443 1550,419 1577,395 1603,373 1628,352 1649,334 1667,319 1681,307 1690,300 1694,297 1682,310 1669,323 1657,335 1644,348 1632,361 1619,374 1607,386 1594,399 1582,412 1569,425 1556,438 1544,450 1531,463 1518,476 1506,489 1493,502 1501,501 1509,498 1517,493 1526,487 1534,481 1542,475 1550,470 1558,466 1550,478 1536,489 1516,501 1495,513 1473,526 1453,540 1437,554 1427,570 1435,568 1442,566 1450,565 1458,563 1466,562 1473,560 1481,559 1488,558 1471,571 1466,572 1461,574 1455,575 1448,577 1440,579 1431,582 1419,585 1406,588 1390,604 1373,621 1357,637 1340,654 1324,670 1307,687 1291,703 1274,720 1274,723 1275,725 1276,727 1278,729 1301,722 1324,711 1347,697 1371,680 1394,661 1418,641 1442,619 1467,596 1491,573 1515,550 1539,528 1564,508 1588,488 1612,471 1635,457 1659,446 1659,450 1654,458 1643,469 1628,483 1610,500 1588,518 1565,539 1539,560 1513,582 1487,604 1461,626 1437,647 1414,666 1394,684 1378,700 1365,713 1366,713 1366,713 1367,713 1369,713 1372,712 1376,712 1381,711 1388,709 1396,708 1407,706 1420,704 1435,701 1454,698 1475,694 1500,690 1528,685 1557,669 1579,658 1595,649 1605,644 1612,640 1616,639 1618,638 1619,638 1616,643 1611,648 1603,653 1595,658 1586,663 1577,669 1568,674 1561,679 1568,678 1581,676 1597,673 1618,669 1641,665 1666,660 1692,656 1719,651 1746,647 1771,642 1795,639 1816,635 1834,633 1847,631 1856,631 1859,631 1824,640 1790,649 1755,658 1721,666 1686,675 1652,684 1617,693 1582,702 1548,711 1513,720 1478,729 1444,738 1409,746 1374,755 1340,764 1305,773 1305,775 1306,778 1309,784 1315,796 1321,793 1327,790 1332,787 1338,783 1344,780 1349,777 1355,774 1361,771 1450,746 1446,749 1438,754 1428,760 1417,768 1407,775 1398,781 1393,785 1392,787 1403,784 1421,779 1445,773 1475,764 1510,755 1547,745 1586,734 1626,723 1666,712 1704,702 1740,693 1771,685 1798,679 1819,674 1833,672 1838,672 1812,681 1786,691 1760,700 1734,709 1708,718 1682,728 1656,737 1631,746 1605,755 1579,764 1553,773 1527,782 1501,791 1475,800 1449,809 1423,818 1436,818 1449,818 1462,818 1475,817 1487,817 1500,816 1512,816 1525,815 1537,814 1549,813 1561,812 1574,811 1586,810 1598,809 1611,807 1623,806 1669,782 1704,764 1729,751 1746,742 1757,736 1763,733 1766,731 1768,730 1763,735 1753,743 1738,753 1721,765 1703,776 1686,786 1672,794 1663,800 1674,799 1692,796 1716,793 1742,790 1766,788 1788,786 1802,785 1808,787 1788,791 1769,795 1749,799 1730,803 1710,807 1691,810 1672,814 1653,818 1657,819 1660,819 1662,820 1663,824 1645,826 1626,828 1607,830 1588,833 1569,836 1550,839 1530,842 1511,846 1492,850 1472,854 1453,858 1434,862 1415,866 1396,870 1377,873 1358,877 1361,878 1367,879 1375,880 1386,881 1398,881 1412,881 1427,882 1442,882 1457,882 1472,882 1486,882 1499,882 1511,882 1521,882 1528,882 1532,882 1532,882 1541,882 1555,883 1574,884 1597,884 1623,885 1651,886 1681,887 1711,888 1741,889 1770,890 1797,891 1820,892 1840,893 1856,894 1866,895 1869,896 1837,898 1804,899 1772,901 1739,902 1707,904 1675,905 1642,907 1610,908 1578,910 1545,911 1513,912 1481,914 1449,915 1417,916 1385,918 1353,919 1354,926 1355,933 1356,939 1359,943 1364,940 1369,937 1374,934 1379,932 1460,928 1454,932 1444,937 1432,944 1420,951 1407,958 1397,965 1389,971 1386,976 1394,976 1408,977 1427,978 1449,979 1475,980 1503,981 1533,983 1563,984 1592,986 1621,987 1647,989 1671,990 1691,992 1706,993 1716,995 1719,996 1698,997 1678,997 1657,998 1636,999 1616,999 1595,1000 1574,1001 1554,1001 1533,1002 1512,1003 1491,1003 1471,1004 1450,1004 1429,1005 1409,1005 1388,1006 1389,1007 1391,1009 1395,1011 1400,1015 1409,1021 1421,1028 1438,1039 1461,1054 1380,1048 1374,1045 1369,1042 1363,1041 1358,1040 1358,1045 1357,1050 1356,1056 1356,1061 1369,1062 1390,1063 1419,1064 1454,1066 1493,1068 1536,1070 1581,1072 1627,1074 1672,1077 1716,1079 1756,1081 1792,1083 1823,1085 1846,1087 1861,1089 1866,1090 1835,1091 1804,1092 1773,1093 1742,1093 1711,1094 1681,1095 1650,1096 1619,1097 1588,1099 1557,1100 1527,1101 1496,1102 1465,1102 1434,1103 1403,1104 1372,1105 1373,1106 1375,1107 1376,1108 1379,1109 1382,1110 1387,1112 1393,1114 1402,1117 1431,1122 1455,1127 1477,1131 1496,1135 1511,1138 1525,1140 1535,1142 1544,1144 1551,1145 1556,1146 1560,1147 1563,1148 1565,1148 1566,1148 1566,1148 1567,1148 1561,1145 1555,1141 1549,1138 1544,1135 1537,1131 1528,1127 1517,1121 1503,1114 1551,1110 1560,1115 1575,1122 1593,1130 1612,1139 1630,1147 1645,1155 1656,1160 1660,1162 1658,1162 1655,1162 1652,1162 1649,1162 1805,1196 1803,1198 1799,1199 1792,1198 1781,1197 1765,1195 1741,1192 1710,1188 1669,1183 1679,1189 1693,1198 1709,1208 1726,1218 1743,1229 1757,1238 1767,1245 1771,1250 1758,1244 1745,1238 1733,1231 1721,1224 1708,1217 1696,1211 1684,1204 1672,1197 1660,1191 1647,1186 1634,1181 1621,1177 1608,1174 1594,1172 1579,1171 1564,1171 1572,1174 1588,1180 1607,1187 1629,1195 1650,1202 1668,1209 1681,1214 1686,1216 1669,1213 1653,1209 1636,1205 1620,1200 1603,1196 1587,1191 1571,1187 1554,1183 1538,1178 1521,1175 1505,1171 1488,1168 1471,1166 1454,1164 1437,1162 1419,1162 1428,1169 1445,1177 1468,1187 1496,1197 1529,1207 1564,1219 1602,1230 1640,1241 1677,1253 1713,1264 1747,1274 1776,1284 1801,1292 1820,1300 1831,1306 1834,1311 1817,1306 1793,1300 1764,1291 1730,1282 1693,1271 1653,1259 1612,1247 1569,1235 1527,1224 1486,1213 1448,1202 1412,1194 1381,1187 1355,1182 1334,1179 1321,1179 1317,1189 1314,1195 1312,1201 1308,1209 1321,1212 1343,1218 1374,1226 1411,1235 1454,1246 1500,1259 1549,1271 1598,1284 1647,1297 1694,1310 1738,1321 1777,1332 1810,1341 1835,1348 1851,1353 1856,1355 1838,1352 1814,1347 1786,1341 1753,1334 1718,1326 1680,1319 1641,1310 1601,1302 1561,1295 1522,1287 1486,1281 1452,1276 1421,1272 1396,1269 1375,1269 1361,1270 1368,1276 1380,1287 1396,1302 1417,1319 1439,1340 1464,1362 1490,1385 1517,1409 1544,1432 1569,1455 1592,1476 1613,1496 1631,1512 1645,1525 1653,1533 1656,1537 1633,1519 1610,1502 1586,1484 1563,1467 1540,1449 1517,1432 1494,1414 1470,1396 1447,1379 1424,1361 1401,1344 1377,1326 1354,1309 1331,1291 1307,1274 1284,1256 1282,1257 1281,1259 1279,1262 1277,1266 1282,1273 1295,1288 1313,1307 1335,1329 1357,1351 1378,1371 1394,1387 1403,1395 1412,1398 1420,1400 1429,1402 1438,1405 1447,1407 1456,1409 1464,1411 1473,1413 1487,1423 1479,1422 1472,1420 1464,1419 1456,1417 1448,1416 1440,1415 1432,1414 1423,1413 1435,1424 1453,1438 1474,1453 1497,1469 1518,1484 1536,1497 1549,1508 1555,1514 1547,1511 1539,1507 1532,1502 1524,1497 1516,1492 1507,1487 1499,1483 1490,1480 1495,1485 1503,1493 1514,1505 1528,1518 1544,1534 1561,1551 1579,1569 1597,1587 1615,1605 1632,1623 1648,1639 1662,1654 1674,1666 1683,1675 1688,1682 1690,1684 1663,1669 1638,1653 1615,1636 1593,1618 1572,1599 1552,1580 1533,1560 1515,1540 1496,1520 1478,1500 1459,1481 1440,1463 1421,1445 1400,1428 1378,1413 1355,1399 1349,1399 1343,1398 1338,1397 1332,1396 1327,1395 1322,1394 1316,1393 1311,1392 1314,1402 1319,1413 1325,1424 1333,1435 1342,1445 1351,1455 1360,1464 1369,1472 1376,1477 1387,1485 1401,1495 1419,1508 1439,1522 1460,1537 1483,1554 1505,1570 1528,1586 1550,1602 1570,1617 1588,1631 1603,1642 1615,1652 1623,1658 1626,1662 1611,1653 1597,1644 1582,1635 1568,1626 1553,1617 1538,1608 1524,1599 1509,1590 1494,1581 1480,1572 1465,1563 1451,1554 1436,1545 1421,1536 1407,1528 1392,1519 1391,1518 1390,1517 1389,1517 1389,1517 1396,1537 1408,1558 1423,1580 1440,1603 1457,1625 1472,1648 1484,1669 1491,1689 1475,1676 1456,1651 1433,1617 1410,1579 1386,1542 1365,1511 1346,1489 1332,1483 1336,1492 1344,1506 1354,1525 1367,1548 1381,1574 1397,1603 1413,1633 1430,1663 1447,1693 1463,1723 1477,1750 1490,1775 1501,1796 1510,1812 1515,1824 1517,1829 1493,1792 1469,1756 1446,1721 1424,1687 1402,1654 1382,1623 1363,1594 1345,1566 1328,1541 1313,1518 1300,1497 1288,1479 1278,1464 1270,1453 1265,1444 1261,1439 1170,1385 1178,1395 1189,1408 1203,1425 1220,1444 1238,1466 1257,1489 1278,1513 1298,1538 1318,1562 1337,1586 1355,1609 1371,1630 1385,1648 1396,1664 1403,1676 1407,1685 1402,1682 1392,1673 1379,1660 1362,1643 1343,1623 1322,1600 1300,1576 1277,1551 1254,1525 1231,1500 1209,1476 1189,1454 1172,1435 1157,1418 1145,1406 1138,1398 1135,1398 1133,1398 1132,1398 1132,1399 1144,1426 1155,1452 1167,1479 1178,1505 1189,1532 1201,1559 1212,1585 1224,1612 1234,1623 1253,1641 1276,1665 1302,1692 1328,1717 1349,1739 1363,1755 1368,1761 1358,1752 1343,1739 1324,1722 1305,1705 1285,1688 1268,1673 1253,1662 1244,1657 1257,1687 1272,1717 1287,1749 1302,1780 1316,1813 1329,1845 1341,1876 1351,1907 1196,1621 1183,1597 1170,1572 1158,1548 1145,1524 1132,1500 1119,1475 1105,1451 1092,1426 1088,1426 1085,1427 1081,1429 1074,1432 1074,1447 1077,1460 1083,1472 1090,1483 1099,1493 1109,1503 1119,1513 1130,1523 1167,1590 1155,1580 1142,1568 1129,1556 1116,1545 1104,1536 1094,1528 1086,1523 1082,1521 1089,1576 1096,1630 1102,1684 1109,1738 1136,1788 1156,1826 1171,1854 1181,1873 1187,1886 1191,1894 1194,1900 1196,1905 1187,1896 1177,1884 1166,1868 1156,1851 1145,1833 1134,1815 1124,1799 1115,1785 1115,1790 1118,1812 1124,1869 1136,1978 1136,1978 1135,1978 1134,1978 1132,1978 1127,1949 1121,1919 1116,1890 1110,1861 1104,1832 1098,1802 1092,1773 1086,1743 1086,1743 1079,1710 1072,1677 1065,1643 1058,1609 1051,1576 1045,1542 1038,1509 1032,1476 1021,1467 1013,1461 1006,1458 1001,1457 995,1458 987,1460 975,1463 960,1466 972,1488 984,1510 996,1532 1008,1554 1019,1577 1031,1599 1043,1622 1055,1644 1071,1716 1054,1689 1037,1663 1020,1637 1003,1610 985,1584 968,1558 951,1532 934,1506 929,1513 925,1520 920,1527 916,1534 911,1541 907,1548 902,1554 898,1561 1031,1963 862,1618 854,1630 846,1642 838,1655 830,1667 822,1679 814,1691 806,1703 798,1716 814,1644 826,1622 837,1599 849,1577 861,1554 873,1532 885,1510 897,1488 909,1466 894,1463 882,1460 874,1458 868,1457 862,1458 856,1461 848,1467 836,1476 830,1509 824,1542 817,1576 811,1609 803,1643 796,1677 789,1710 782,1743 782,1743 776,1773 771,1802 765,1832 759,1861 753,1890 748,1919 742,1949 737,1978 735,1978 734,1978 734,1978 733,1978 745,1869 751,1812 754,1790 754,1785 745,1799 735,1815 724,1833 714,1851 703,1868 692,1884 682,1896 673,1905 675,1900 678,1894 683,1886 689,1873 699,1854 714,1826 734,1788 761,1738 768,1684 774,1630 780,1576 787,1521 783,1523 775,1528 765,1536 753,1545 740,1556 726,1568 713,1580 701,1590 738,1523 749,1513 760,1503 770,1493 779,1483 786,1472 792,1460 795,1447 795,1432 787,1429 783,1427 780,1426 777,1426 764,1451 750,1475 737,1500 724,1524 711,1548 699,1572 686,1597 673,1621 518,1907 528,1876 540,1845 553,1813 568,1780 583,1749 598,1717 613,1687 626,1657 616,1662 602,1673 584,1688 564,1705 545,1722 526,1739 511,1752 501,1761 506,1755 520,1739 541,1717 567,1692 593,1665 616,1641 635,1623 645,1612 657,1585 668,1559 680,1532 691,1505 703,1479 714,1452 726,1426 737,1399 737,1398 736,1398 734,1398 731,1398 724,1406 712,1418 697,1435 680,1454 660,1476 638,1500 615,1525 592,1551 569,1576 546,1600 525,1623 506,1643 490,1660 476,1673 466,1682 461,1685 465,1676 472,1664 483,1648 497,1630 514,1609 532,1586 551,1562 571,1538 591,1513 612,1489 631,1466 649,1444 666,1425 680,1408 691,1395 699,1385 609,1439 605,1444 599,1453 591,1464 581,1479 570,1497 556,1518 541,1541 524,1566 506,1594 487,1623 467,1654 445,1687 423,1721 400,1756 376,1792 352,1829 354,1824 359,1812 368,1796 379,1775 392,1750 406,1723 422,1693 439,1663 456,1633 472,1603 488,1574 502,1548 515,1525 526,1506 533,1492 538,1483 531,1484 524,1489 515,1498 505,1511 494,1525 483,1542 471,1560 460,1579 448,1598 436,1617 424,1634 413,1651 403,1665 394,1676 385,1685 378,1689 385,1669 397,1648 412,1625 429,1603 446,1580 461,1558 473,1537 480,1517 480,1517 479,1517 478,1518 477,1519 462,1528 448,1536 433,1545 419,1554 404,1563 389,1572 375,1581 360,1590 345,1599 331,1608 316,1617 302,1626 287,1635 272,1644 258,1653 243,1662 246,1658 254,1652 266,1642 281,1631 299,1617 319,1602 341,1586 364,1570 387,1554 409,1537 431,1522 451,1508 468,1495 483,1485 494,1477 501,1472 510,1464 519,1455 528,1445 536,1435 544,1424 551,1413 555,1402 558,1392 553,1393 547,1394 542,1395 537,1396 531,1397 526,1398 520,1399 514,1399 491,1413 469,1428 448,1445 429,1463 410,1481 391,1500 373,1520 354,1540 336,1560 317,1580 297,1599 276,1618 254,1636 231,1653 206,1669 179,1684 181,1682 186,1675 195,1666 207,1654 221,1639 237,1623 254,1605 272,1587 290,1569 308,1551 325,1534 341,1518 354,1505 366,1493 374,1485 379,1480 370,1483 362,1487 353,1492 346,1497 338,1502 330,1507 323,1511 315,1514 321,1508 333,1497 351,1484 373,1469 395,1453 416,1438 434,1424 446,1413 438,1414 429,1415 421,1416 413,1417 405,1419 398,1420 390,1422 382,1423 396,1413 405,1411 413,1409 422,1407 431,1405 440,1402 449,1400 457,1398 466,1395 475,1387 491,1371 511,1351 534,1329 555,1307 574,1288 587,1273 592,1266 590,1262 588,1259 587,1257 585,1256 562,1274 538,1291 515,1309 491,1326 468,1344 445,1361 422,1379 398,1396 375,1414 352,1432 329,1449 305,1467 282,1484 259,1502 236,1519 213,1537 216,1533 224,1525 238,1512 255,1496 276,1476 300,1455 325,1432 352,1409 378,1385 404,1362 429,1340 452,1319 472,1302 489,1287 501,1276 508,1270 494,1269 473,1269 448,1272 418,1276 384,1281 347,1287 309,1295 269,1302 229,1310 190,1319 152,1326 117,1334 84,1341 56,1347 32,1352 14,1355 19,1353 35,1348 60,1341 92,1332 131,1321 175,1310 222,1297 271,1284 321,1271 369,1259 415,1246 458,1235 495,1226 526,1218 548,1212 561,1209 557,1201 555,1195 552,1189 548,1179 535,1179 514,1182 488,1187 457,1194 421,1202 383,1213 342,1224 300,1235 257,1247 216,1259 176,1271 139,1282 105,1291 76,1300 52,1306 35,1311 38,1306 50,1300 68,1292 93,1284 123,1274 156,1264 192,1253 230,1241 268,1230 305,1219 340,1207 373,1197 401,1187 424,1177 441,1169 450,1162 432,1162 415,1164 398,1166 381,1168 364,1171 348,1175 331,1178 315,1183 298,1187 282,1191 266,1196 249,1200 233,1205 216,1209 200,1213 183,1216 188,1214 201,1209 219,1202 240,1195 262,1187 281,1180 297,1174 305,1171 290,1171 275,1172 261,1174 248,1177 235,1181 222,1186 209,1191 197,1197 184,1204 172,1211 160,1217 148,1224 136,1231 123,1238 111,1244 98,1250 102,1245 112,1238 126,1229 143,1218 160,1208 176,1198 190,1189 200,1183 159,1188 128,1192 104,1195 88,1197 77,1198 70,1199 67,1198 65,1196 220,1162 217,1162 214,1162 211,1162 209,1162 213,1160 224,1155 239,1147 258,1139 276,1130 294,1122 309,1115 318,1110 366,1114 352,1121 341,1127 332,1131 325,1135 320,1138 314,1141 308,1145 302,1148 303,1148 303,1148 304,1148 306,1148 309,1147 313,1146 318,1145 325,1144 334,1142 344,1140 358,1138 373,1135 392,1131 414,1127 438,1122 467,1117 476,1114 483,1112 488,1110 491,1109 493,1108 495,1107 496,1106 497,1105 466,1104 435,1103 404,1102 374,1102 343,1101 312,1100 281,1099 250,1097 220,1096 189,1095 158,1094 127,1093 96,1093 65,1092 34,1091 3,1090 8,1089 23,1087 46,1085 77,1083 113,1081 153,1079 197,1077 242,1074 288,1072 333,1070 376,1068 415,1066 450,1064 479,1063 500,1062 513,1061 513,1056 512,1050 511,1045 511,1040 506,1041 500,1042 494,1045 488,1048 407,1054 430,1039 448,1028 460,1021 469,1015 474,1011 478,1009 480,1007 481,1006 460,1005 440,1005 419,1004 398,1004 378,1003 357,1003 337,1002 316,1001 295,1001 275,1000 254,999 233,999 212,998 192,997 171,997 150,996 153,995 163,993 178,992 198,990 222,989 248,987 277,986 307,984 337,983 366,981 394,980 420,979 443,978 462,977 476,976 484,976 480,971 473,965 462,958 450,951 437,944 425,937 415,932 409,928 490,932 495,934 500,937 505,940 510,943 513,939 514,933 515,926 515,919 483,918 451,916 420,915 388,914 356,912 323,911 291,910 259,908 227,907 194,905 162,904 130,902 97,901 65,899 32,898 0,896 3,895 13,894 29,893 49,892 72,891 99,890 128,889 158,888 188,887 217,886 246,885 272,884 295,884 314,883 328,882 336,882 336,882 341,882 348,882 357,882 369,882 382,882 397,882 412,882 427,882 442,882 457,881 471,881 483,881 494,880 502,879 508,878 511,877 492,873 474,870 455,866 436,862 416,858 397,854 378,850 359,846 339,842 320,839 301,836 282,833 262,830 243,828 225,826 206,824 207,820 209,819 212,819 217,818 198,814 178,810 159,807 139,803 120,799 100,795 81,791 61,787 67,785 81,786 103,788 128,790 153,793 177,796 195,799 206,800 197,794 183,786 166,776 148,765 131,753 116,743 105,735 101,730 103,731 106,733 112,736 123,742 140,751 165,764 200,782 246,806 258,807 271,809 283,810 295,811 308,812 320,813 332,814 345,815 357,816 369,816 382,817 395,817 407,818 420,818 433,818 446,818 420,809 394,800 368,791 342,782 316,773 290,764 264,755 239,746 213,737 187,728 161,718 135,709 109,700 83,691 57,681 31,672 36,672 50,674 71,679 98,685 129,693 165,702 203,712 243,723 283,734 322,745 359,755 394,764 424,773 448,779 466,784 477,787 476,785 471,781 462,775 452,768 441,760 431,754 423,749 419,746 508,771 514,774 520,777 525,780 531,783 537,787 543,790 549,793 555,796 560,784 563,778 564,775 564,773 529,764 495,755 460,746 425,738 391,729 356,720 321,711 287,702 252,693 217,684 183,675 148,666 114,658 79,649 45,640 10,631 13,631 22,631 35,633 53,635 74,639 98,642 123,647 150,651 177,656 203,660 228,665 251,669 272,673 288,676 301,678 308,679 301,674 292,669 283,663 274,658 266,653 258,648 253,643 250,638 251,638 253,639 257,640 264,644 275,649 291,658 313,669 342,685 370,690 394,694 416,698 434,701 449,704 462,706 473,708 482,709 488,711 493,712 497,712 500,713 502,713 503,713 503,713 504,713 491,700 475,684 455,666 432,647 408,626 382,604 356,582 330,560 304,539 281,518 259,500 241,483 226,469 215,458 210,450 210,446 234,457 257,471 281,488 305,508 330,528 354,550 378,573 403,596 427,619 451,641 475,661 499,680 523,697 546,711 569,722 592,729 594,727 595,725 595,723 595,720 579,703 562,687 546,670 529,654 513,637 496,621 480,604 463,588 450,585 439,582 429,579 421,577 414,575 408,574 403,572 398,571 380,558 388,559 395,560 403,562 411,563 419,565 427,566 434,568 442,570 432,554 416,540 396,526 374,513 353,501 333,489 319,478 311,466 319,470 327,475 335,481 344,487 352,493 360,498 368,501 376,502 363,489 351,476 338,463 325,450 313,438 300,425 287,412 275,399 262,386 250,374 237,361 225,348 212,335 200,323 187,310 175,297 179,300 188,307 202,319 220,334 241,352 266,373 292,395 319,419 348,443 376,467 404,491 431,514 455,535 477,553 496,569 511,581 514,582 519,583 525,585 533,586 541,588 547,588 552,589 555,588 553,585 552,581 549,578 547,573 542,566 536,556 528,543 517,526 509,520 497,511 481,500 462,486 440,471 417,454 393,437 369,419 345,402 321,385 300,369 281,355 264,342 252,332 243,325 240,321 253,325 267,331 281,339 296,349 311,359 326,370 342,382 358,393 373,405 389,417 405,428 420,438 435,447 450,454 464,459 477,463 470,443 459,423 444,401 428,378 411,356 396,334 383,314 375,294 387,301 400,316 415,337 432,362 448,390 465,418 481,444 497,467 502,474 507,480 512,485 517,490 522,494 526,497 530,498 534,499 348,154 352,158 361,170 374,187 389,211 408,238 428,269 450,302 473,337 495,372 517,406 538,439 558,470 575,497 589,519 600,536 606,546 613,550 624,557 637,566 651,575 665,583 678,591 689,596 696,598 688,588 676,574 662,558 646,538 628,516 608,493 588,469 568,444 548,420 529,396 511,373 495,352 481,334 470,318 463,306 459,297 470,302 484,313 501,328 520,348 541,371 563,396 585,422 608,450 631,477 652,503 672,527 691,548 706,565 719,578 729,586 734,588 721,556 707,524 693,493 679,461 665,429 651,396 637,364 623,332 609,300 595,268 581,235 568,203 554,171 541,139 528,106 515,74 516,74 517,74 517,75 518,75 534,106 551,137 567,168 583,199 600,229 616,260 632,291 648,322 665,352 681,383 697,414 713,445 730,475 746,506 762,536 778,567 782,565 787,562 791,560 795,558 794,544 790,531 785,518 778,506 769,495 760,485 750,475 740,466 697,391 704,397 715,406 728,417 742,429 756,441 768,451 778,457 784,460 782,448 779,422 772,361 758,246 758,246 751,186 743,126 736,66 730,6 730,6 730,6 731,6 733,6 834,507 841,514 849,520 856,527 863,533 869,532 876,531 882,530 888,529 890,482 880,463 870,444 858,423 847,403 836,384 826,367 818,352 812,341 794,266 807,285 819,304 832,323 845,343 857,362 869,382 881,401 893,421 919,0 921,16 924,53 927,107 932,173 937,246 941,321 946,394 950,459 950,459"/>
<polygon class="pen1 brush2" points="336,855 275,844 283,849 291,854 297,858 303,861 309,864 313,867 317,869 321,871 369,871 336,855 336,855"/>
<polygon class="pen1 brush2" points="608,314 594,302 578,288 560,273 543,257 526,244 512,232 502,225 496,222 511,237 527,253 542,268 558,284 573,299 588,315 604,331 619,347 608,314 608,314"/>
<polygon class="pen1 brush2" points="743,189 734,177 724,161 714,143 703,124 694,107 684,92 676,82 669,77 684,106 698,130 709,152 719,170 727,185 734,197 740,208 744,216 743,189 743,189"/>
<polygon class="pen1 brush2" points="1532,855 1501,871 1548,871 1552,869 1556,867 1560,864 1566,861 1572,858 1578,854 1586,849 1594,844 1532,855 1532,855"/>
<polygon class="pen1 brush2" points="1261,314 1250,347 1265,331 1281,315 1296,299 1312,284 1327,268 1342,253 1358,237 1373,222 1367,225 1357,232 1343,244 1326,257 1309,273 1291,288 1275,302 1261,314 1261,314"/>
<polygon class="pen1 brush2" points="1126,189 1126,216 1130,208 1136,197 1142,185 1150,170 1160,152 1171,130 1185,106 1200,77 1193,82 1185,92 1175,107 1166,124 1155,143 1145,161 1135,177 1126,189"/>
<polygon class="pen1 brush0" points="751,990 696,1019 700,1024 758,996 761,990 717,946 711,952 751,990 751,990"/>
<polygon class="pen1 brush0" points="755,787 700,762 697,769 757,796 763,793 771,730 761,730 755,787 755,787"/>
<polygon class="pen1 brush0" points="630,950 576,976 579,983 639,953 640,948 598,904 592,909 630,950 630,950"/>
<polygon class="pen1 brush0" points="625,1206 680,1202 666,1262 675,1263 689,1198 684,1193 622,1199 625,1206 625,1206"/>
<polygon class="pen1 brush0" points="973,855 944,801 936,806 967,865 973,865 1017,821 1011,817 973,855 973,855"/>
<polygon class="pen1 brush0" points="988,737 960,683 953,686 984,746 990,747 1032,703 1028,699 988,737 988,737"/>
<polygon class="pen1 brush0" points="818,881 761,855 757,864 819,889 825,888 831,827 824,825 818,881 818,881"/>
<polygon class="pen1 brush0" points="1132,1074 1186,1044 1180,1037 1123,1071 1122,1077 1169,1119 1173,1114 1132,1074 1132,1074"/>
<polygon class="pen1 brush0" points="1092,1341 1091,1286 1149,1303 1152,1294 1088,1277 1084,1280 1085,1342 1092,1341 1092,1341"/>
<polygon class="pen1 brush0" points="1045,1240 1042,1185 1102,1202 1105,1193 1041,1176 1035,1179 1038,1240 1045,1240 1045,1240"/>
<polygon class="pen1 brush0" points="866,1242 909,1209 930,1267 939,1264 916,1202 909,1199 862,1236 866,1242 866,1242"/>
<polygon class="pen1 brush0" points="834,1358 878,1324 896,1381 905,1378 882,1315 876,1314 828,1351 834,1358 834,1358"/>
<polygon class="pen1 brush0" points="723,1137 780,1132 765,1192 773,1193 788,1129 782,1125 723,1129 723,1137 723,1137"/>
<polygon class="pen1 brush0" points="1297,1145 1254,1110 1307,1077 1302,1071 1244,1104 1244,1111 1291,1152 1297,1145 1297,1145"/>
<polygon class="pen1 brush0" points="1203,862 1214,801 1207,800 1196,865 1200,871 1260,864 1258,855 1203,862 1203,862"/>
<polygon class="pen1 brush0" points="1115,950 1126,889 1119,888 1108,953 1111,959 1172,952 1170,943 1115,950"/>
<polygon class="pen1 brush0" points="956,922 980,924 1003,931 1023,942 1041,957 1056,974 1067,995 1074,1017 1076,1041 1074,1065 1067,1088 1056,1109 1041,1127 1023,1141 1003,1153 980,1160 956,1162 932,1160 909,1153 888,1141 870,1127 856,1109 844,1088 837,1065 835,1041 837,1017 844,995 856,974 870,957 888,942 909,931 932,924 956,922"/>
<polygon class="pen1 brush2" points="956,939 977,941 996,947 1014,957 1029,969 1041,984 1051,1001 1057,1021 1059,1041 1057,1062 1051,1081 1041,1099 1029,1114 1014,1127 996,1137 977,1143 956,1145 935,1143 916,1137 898,1127 883,1114 870,1099 860,1081 854,1062 852,1041 854,1021 860,1001 870,984 883,969 898,957 916,947 935,941 956,939"/>
</g>
</svg>
