<?xml version="1.0" encoding="UTF-8" standalone="no"?>
<!DOCTYPE svg PUBLIC "-//W3C//DTD SVG 1.0//EN" "http://www.w3.org/TR/2001/REC-SVG-20010904/DTD/svg10.dtd">
<svg xmlns="http://www.w3.org/2000/svg" xmlns:xlink="http://www.w3.org/1999/xlink" fill-rule="evenodd" height="1.566in" preserveAspectRatio="none" stroke-linecap="round" viewBox="0 0 1979 1566" width="1.979in">
<style type="text/css">
.brush0 { fill: rgb(255,255,255); }
.pen0 { stroke: rgb(0,0,0); stroke-width: 1; stroke-linejoin: round; }
.brush1 { fill: none; }
.pen1 { stroke: none; }
.brush2 { fill: rgb(0,0,0); }
</style>
<g>
<polygon class="pen1 brush2" points="837,1176 894,1153 969,1264 708,1438 732,1458 747,1477 753,1494 752,1510 744,1525 732,1539 716,1553 698,1566 712,1507 651,1472 601,1504 604,1566 586,1551 570,1537 557,1524 548,1510 547,1496 553,1481 569,1464 597,1445 900,1257 837,1176 837,1176"/>
<polygon class="pen1 brush2" points="708,220 700,198 691,178 682,159 672,141 661,125 649,109 637,95 624,81 611,69 597,58 582,49 567,40 551,32 535,25 519,20 502,15 490,12 478,10 465,9 453,8 440,7 428,7 415,8 402,9 389,10 376,12 363,15 350,18 336,21 323,25 309,29 296,34 256,55 222,84 194,122 173,167 158,219 150,275 149,337 155,402 167,469 186,539 213,609 247,680 287,749 335,817 391,882 454,944 487,973 521,998 555,1022 589,1042 623,1060 658,1076 692,1090 726,1102 760,1112 794,1120 828,1126 861,1131 893,1135 926,1137 957,1138 989,1138 1019,1137 1048,1136 1077,1133 1105,1131 1132,1127 1157,1124 1182,1120 1205,1117 1227,1113 1248,1110 1267,1107 1285,1105 1301,1103 1316,1102 1329,1101 1340,1102 1362,1108 1388,1121 1415,1141 1444,1166 1474,1195 1505,1228 1535,1262 1565,1297 1593,1332 1619,1366 1643,1398 1664,1427 1682,1451 1695,1469 1703,1481 1706,1485 1721,1469 1737,1447 1755,1420 1772,1392 1787,1365 1799,1342 1807,1327 1810,1321 1825,1320 1841,1317 1856,1314 1871,1309 1886,1305 1900,1299 1913,1294 1925,1288 1937,1282 1947,1277 1956,1272 1964,1267 1970,1263 1975,1261 1978,1259 1979,1258 1964,1244 1944,1229 1920,1212 1892,1194 1860,1175 1826,1154 1790,1134 1753,1112 1715,1090 1677,1068 1639,1046 1602,1023 1567,1002 1535,980 1505,959 1479,939 1455,917 1429,891 1402,860 1375,827 1346,791 1317,753 1289,714 1260,673 1231,633 1203,593 1175,555 1149,518 1123,483 1099,451 1077,423 1056,399 1035,378 1011,359 986,340 958,323 930,308 901,293 872,280 844,269 817,258 792,249 769,241 749,234 732,229 720,225 711,222 708,220 708,220"/>
<polygon class="pen1 brush2" points="111,179 111,290 0,248 111,179"/>
<polygon class="pen1 brush0" points="847,792 850,792 858,791 869,789 881,784 894,777 906,767 914,753 918,734 922,734 931,735 944,734 959,731 974,725 986,715 995,700 998,679 1000,679 1007,678 1016,677 1027,672 1038,665 1047,655 1054,639 1056,618 1057,621 1058,629 1059,641 1059,655 1055,669 1047,681 1033,691 1013,696 1012,699 1009,706 1003,716 995,727 985,737 971,745 955,749 935,747 933,750 929,758 921,769 911,780 899,791 884,797 866,798 847,792"/>
<polygon class="pen1 brush0" points="343,273 351,272 359,270 366,266 372,261 377,254 381,247 383,239 384,231 383,223 381,215 377,208 372,202 366,197 359,193 351,191 343,190 335,191 327,193 320,197 314,202 309,208 305,215 303,223 302,231 303,239 305,247 309,254 314,261 320,266 327,270 335,272 343,273"/>
<polygon class="pen1 brush0" points="290,325 295,325 309,325 328,323 351,319 375,313 398,302 417,287 429,267 430,275 432,296 434,326 433,360 429,395 419,425 402,447 377,457 350,458 329,455 314,448 303,436 296,419 292,395 290,364 290,325"/>
<polygon class="pen1 brush0" points="557,521 558,526 560,542 564,565 571,595 582,630 597,669 617,709 643,750 675,790 715,828 763,861 819,888 885,908 960,919 1047,920 1145,909 1142,910 1132,913 1117,918 1097,923 1073,929 1045,934 1013,938 979,940 943,941 905,939 867,933 828,924 790,910 752,891 716,867 682,836 652,803 627,773 606,744 589,716 576,691 565,667 558,645 553,624 550,605 549,588 549,573 551,559 552,547 554,537 556,528 557,521"/>
<polygon class="pen1 brush0" points="239,149 246,143 256,136 269,127 284,118 301,109 319,100 339,92 359,84 380,78 400,73 420,71 439,71 457,73 473,79 487,89 498,102 500,109 496,112 486,113 472,111 455,109 435,106 415,104 394,104 370,107 344,112 318,119 294,127 272,135 255,142 243,147 239,149"/>
<polygon class="pen1 brush0" points="820,588 817,610 808,625 795,635 780,641 765,643 752,644 743,643 739,643 735,663 727,677 715,688 702,696 690,700 679,703 671,704 668,704 687,711 704,709 719,703 732,692 742,680 750,669 754,661 756,658 759,658 768,658 781,656 794,652 807,644 817,632 822,613 820,588"/>
</g>
</svg>
