<?xml version="1.0" encoding="UTF-8" standalone="no"?>
<!DOCTYPE svg PUBLIC "-//W3C//DTD SVG 1.0//EN" "http://www.w3.org/TR/2001/REC-SVG-20010904/DTD/svg10.dtd">
<svg xmlns="http://www.w3.org/2000/svg" xmlns:xlink="http://www.w3.org/1999/xlink" fill-rule="evenodd" height="0.803in" preserveAspectRatio="none" stroke-linecap="round" viewBox="0 0 1966 803" width="1.966in">
<style type="text/css">
.brush0 { fill: rgb(255,255,255); }
.pen0 { stroke: rgb(0,0,0); stroke-width: 1; stroke-linejoin: round; }
.brush1 { fill: none; }
.pen1 { stroke: none; }
.brush2 { fill: rgb(0,0,0); }
</style>
<g>
<polygon class="pen1 brush2" points="1276,364 1277,364 1281,363 1286,361 1294,359 1303,357 1313,355 1325,352 1337,349 1351,346 1365,343 1379,340 1394,338 1408,336 1422,334 1436,332 1449,331 1451,334 1456,341 1463,352 1471,366 1480,381 1489,396 1497,410 1503,422 1504,423 1502,425 1498,428 1492,431 1484,434 1475,438 1465,442 1454,445 1441,449 1429,451 1415,454 1402,455 1389,455 1375,455 1363,453 1351,449 1349,447 1343,440 1335,431 1324,419 1312,406 1300,392 1288,377 1276,364"/>
<polygon class="pen1 brush2" points="391,638 392,637 396,633 402,628 409,621 417,613 424,604 431,594 436,583 517,570 515,572 511,579 505,589 497,602 489,616 481,630 475,645 470,658 467,658 458,659 445,660 431,659 416,658 403,654 394,647 391,638"/>
<polygon class="pen1 brush2" points="379,645 318,668 368,678 330,742 398,706 401,769 439,718 473,733 470,672 467,673 458,674 446,676 432,676 416,674 401,669 388,659 379,645"/>
<polygon class="pen1 brush2" points="1355,459 1359,462 1370,464 1387,467 1407,467 1431,465 1456,459 1482,448 1507,432 1564,466 1496,466 1506,544 1459,492 1438,595 1405,509 1359,604 1361,504 1293,561 1355,459"/>
<polygon class="pen1 brush2" points="1909,253 1908,255 1907,260 1904,268 1899,279 1894,292 1887,307 1879,325 1869,343 1858,363 1846,384 1832,405 1817,427 1801,448 1783,470 1764,490 1743,510 1742,511 1740,512 1737,515 1733,518 1727,523 1719,528 1711,534 1701,541 1689,548 1677,556 1662,565 1647,574 1630,583 1611,593 1591,603 1570,614 1547,624 1522,635 1496,646 1469,657 1439,668 1409,678 1376,689 1343,699 1307,710 1270,719 1231,729 1191,738 1149,747 1105,755 1060,762 1013,769 1035,773 1059,777 1085,781 1112,784 1140,787 1170,789 1200,791 1232,792 1264,792 1297,792 1331,791 1365,790 1399,787 1433,784 1468,781 1502,776 1533,771 1564,766 1594,759 1624,752 1653,744 1681,736 1709,726 1736,716 1761,705 1786,693 1809,680 1832,666 1852,651 1872,635 1890,619 1906,601 1919,584 1931,566 1941,547 1950,527 1957,507 1961,485 1964,463 1965,439 1964,418 1961,397 1956,375 1950,352 1942,329 1933,304 1922,279 1909,253 1909,253"/>
<polygon class="pen1 brush2" points="158,426 171,420 185,414 200,407 216,400 233,393 251,385 269,376 289,368 309,359 330,349 351,340 373,330 396,320 420,310 444,300 468,289 494,279 519,268 545,257 572,247 599,236 626,225 654,214 682,203 711,193 740,182 768,172 798,161 827,151 857,141 886,132 916,122 938,115 960,109 982,102 1004,96 1026,90 1048,84 1070,78 1091,73 1113,68 1135,63 1157,58 1179,53 1200,49 1222,44 1243,41 1265,37 1286,34 1307,30 1328,28 1348,25 1369,23 1389,21 1409,20 1429,19 1449,18 1469,17 1488,17 1507,18 1525,18 1544,20 1562,21 1580,23 1608,27 1635,32 1661,38 1686,45 1710,53 1733,63 1755,74 1777,86 1797,100 1815,115 1833,132 1850,149 1865,169 1879,190 1891,212 1902,236 1899,243 1896,252 1892,263 1887,275 1881,288 1874,303 1867,318 1858,334 1849,318 1839,303 1828,289 1817,275 1804,263 1790,252 1776,241 1761,231 1745,222 1728,214 1711,206 1692,199 1673,193 1653,188 1633,183 1612,179 1573,173 1533,169 1491,167 1448,167 1403,168 1357,171 1311,176 1263,182 1215,189 1166,197 1117,207 1068,217 1018,229 969,241 920,254 871,267 823,281 775,296 729,311 683,326 638,341 595,356 553,372 512,387 474,402 437,416 402,430 369,443 339,456 311,468 286,480 263,490 259,510 253,530 246,549 237,566 227,582 217,595 205,606 193,614 176,616 159,617 143,618 129,618 115,618 102,618 91,617 80,615 69,613 60,611 51,609 44,606 37,603 30,599 25,595 20,591 98,580 9,577 4,564 4,550 7,537 13,524 18,516 23,509 29,502 36,495 42,489 49,483 55,477 61,472 62,471 63,467 66,462 71,455 76,448 83,440 91,433 100,426 106,423 112,421 119,419 126,418 133,419 141,420 150,422 158,426 158,426"/>
<polygon class="pen1 brush2" points="1847,347 1837,365 1826,382 1815,400 1802,418 1789,435 1775,452 1759,469 1742,486 1740,453 1733,423 1722,398 1707,376 1689,357 1667,341 1643,328 1615,318 1586,311 1554,306 1520,303 1484,303 1447,304 1409,307 1370,312 1331,318 1291,325 1251,333 1211,342 1172,352 1133,362 1096,372 1060,383 1025,394 993,404 962,414 934,423 908,432 886,440 866,447 850,452 838,456 782,473 729,489 678,504 630,518 583,531 539,543 498,554 458,564 420,573 385,581 351,588 319,595 289,600 261,605 235,609 210,612 229,602 244,590 257,576 268,560 276,544 283,528 287,513 291,500 314,489 340,478 368,466 399,453 432,440 466,426 503,412 541,397 580,383 622,368 664,353 707,339 752,324 797,310 844,296 890,282 937,269 985,257 1033,245 1080,234 1128,224 1175,215 1222,207 1269,200 1314,195 1359,191 1403,188 1446,186 1488,187 1529,189 1568,192 1605,198 1625,202 1645,207 1665,212 1683,218 1701,225 1718,232 1734,240 1750,249 1765,258 1779,269 1792,280 1805,292 1817,304 1828,318 1838,332 1847,347"/>
<polygon class="pen1 brush0" points="125,506 134,504 141,499 146,491 148,482 146,473 141,465 134,460 125,458 115,460 108,465 103,473 101,482 103,491 108,499 115,504 125,506"/>
<polygon class="pen1 brush0" points="635,280 640,279 644,276 647,272 648,267 647,263 644,260 640,257 635,256 630,257 627,260 625,263 624,267 625,272 627,276 630,279 635,280 635,280"/>
<polygon class="pen1 brush0" points="492,370 497,369 500,366 502,362 503,358 502,353 500,349 497,346 492,345 488,346 484,349 481,353 480,358 481,362 484,366 488,369 492,370 492,370"/>
<polygon class="pen1 brush0" points="517,327 521,326 525,323 528,319 529,314 528,309 525,306 521,304 517,303 512,304 508,306 505,309 504,314 505,319 508,323 512,326 517,327 517,327"/>
<polygon class="pen1 brush0" points="429,364 433,363 437,360 439,356 440,351 439,347 437,344 433,342 429,341 424,342 420,344 417,347 416,351 417,356 420,360 424,363 429,364"/>
<polygon class="pen1 brush0" points="1378,129 1382,128 1385,126 1387,123 1388,118 1387,113 1385,109 1382,106 1378,105 1373,106 1369,109 1366,113 1365,118 1366,123 1369,126 1373,128 1378,129 1378,129"/>
<polygon class="pen1 brush0" points="1254,155 1259,154 1263,151 1266,147 1267,142 1266,138 1263,135 1259,132 1254,131 1250,132 1247,135 1244,138 1243,142 1244,147 1247,151 1250,154 1254,155"/>
<polygon class="pen1 brush0" points="1436,263 1441,262 1445,259 1448,255 1449,250 1448,246 1445,243 1441,240 1436,239 1432,240 1428,243 1426,246 1425,250 1426,255 1428,259 1432,262 1436,263 1436,263"/>
<polygon class="pen1 brush0" points="1327,274 1331,273 1334,271 1337,268 1338,263 1337,258 1334,254 1331,251 1327,250 1322,251 1318,254 1315,258 1314,263 1315,268 1318,271 1322,273 1327,274 1327,274"/>
<polygon class="pen1 brush0" points="1216,300 1221,299 1225,297 1228,294 1229,289 1228,285 1225,281 1221,278 1216,277 1212,278 1208,281 1206,285 1205,289 1206,294 1208,297 1212,299 1216,300"/>
<polygon class="pen1 brush0" points="1793,644 1798,642 1801,638 1803,633 1803,628 1801,623 1797,619 1792,617 1787,618 1782,619 1778,623 1776,628 1776,634 1778,639 1782,642 1787,644 1793,644 1793,644"/>
<polygon class="pen1 brush0" points="1598,665 1603,662 1607,658 1609,653 1609,648 1607,643 1604,639 1599,637 1594,638 1588,640 1584,643 1582,649 1582,654 1584,659 1588,662 1593,664 1598,665 1598,665"/>
<polygon class="pen1 brush0" points="1669,683 1674,681 1677,677 1679,672 1679,666 1677,661 1674,658 1669,656 1663,656 1658,658 1655,662 1653,667 1652,672 1655,677 1659,681 1664,683 1669,683 1669,683"/>
<polygon class="pen1 brush0" points="1550,739 1555,736 1559,732 1561,727 1561,722 1559,717 1555,713 1549,711 1544,712 1539,713 1536,717 1534,722 1534,727 1536,732 1540,736 1545,738 1550,739 1550,739"/>
<polygon class="pen1 brush0" points="1723,597 1728,595 1732,591 1734,586 1733,581 1732,576 1728,572 1723,570 1717,570 1712,572 1709,575 1707,581 1706,587 1709,592 1713,595 1718,597 1723,597"/>
</g>
</svg>
