<?xml version="1.0" encoding="UTF-8" standalone="no"?>
<!DOCTYPE svg PUBLIC "-//W3C//DTD SVG 1.0//EN" "http://www.w3.org/TR/2001/REC-SVG-20010904/DTD/svg10.dtd">
<svg xmlns="http://www.w3.org/2000/svg" xmlns:xlink="http://www.w3.org/1999/xlink" fill-rule="evenodd" height="1.42in" preserveAspectRatio="none" stroke-linecap="round" viewBox="0 0 2041 1420" width="2.041in">
<style type="text/css">
.brush0 { fill: rgb(255,255,255); }
.pen0 { stroke: rgb(0,0,0); stroke-width: 1; stroke-linejoin: round; }
.brush1 { fill: none; }
.pen1 { stroke: none; }
.brush2 { fill: rgb(0,0,0); }
</style>
<g>
<polygon class="pen1 brush2" points="382,27 328,33 310,41 288,53 265,68 242,85 220,105 199,128 182,152 169,178 162,183 152,194 141,209 128,228 115,247 103,266 92,283 84,297 80,298 72,301 60,307 47,315 36,328 30,344 30,365 40,391 54,416 65,434 74,447 83,455 93,457 104,455 119,449 138,439 143,439 158,441 178,442 202,444 227,447 250,450 268,453 280,456 286,460 292,464 297,468 302,474 306,480 309,488 310,498 311,510 311,514 311,526 312,543 313,566 317,592 323,621 332,651 344,681 360,710 380,737 406,760 437,778 474,791 518,796 569,792 628,779 628,785 629,799 632,821 635,846 640,872 646,897 655,917 665,929 677,937 690,945 705,951 720,956 738,960 757,962 778,962 801,960 824,1289 868,1417 1006,1412 926,1289 1014,948 1523,921 1699,1240 1615,1385 1753,1385 1814,1240 1815,1211 1819,1134 1824,1022 1829,888 1833,747 1836,612 1836,496 1832,414 1828,384 1823,355 1816,328 1807,302 1795,277 1781,255 1765,234 1746,215 1724,197 1698,182 1670,169 1638,158 1603,150 1564,144 1521,140 1474,139 673,142 665,142 654,141 642,140 629,139 615,137 601,134 587,132 574,128 562,125 552,120 544,116 538,110 535,105 536,98 541,91 550,84 552,70 550,58 544,48 536,40 525,34 512,30 498,27 483,25 468,24 452,24 437,24 422,25 409,26 398,27 388,27 382,27 382,27"/>
<polygon class="pen1 brush2" points="655,956 665,965 678,973 693,979 710,983 727,987 745,988 763,988 780,987 793,1291 753,1420 615,1420 705,1283 655,956 655,956"/>
<polygon class="pen1 brush2" points="1408,956 1509,956 1672,1252 1584,1393 1483,1393 1571,1243 1408,956 1408,956"/>
<polygon class="pen1 brush2" points="1794,232 1732,161 1735,162 1745,166 1759,174 1779,184 1801,197 1826,212 1852,230 1879,250 1905,271 1929,294 1951,319 1969,345 1983,373 1991,401 1992,430 1986,459 1990,479 1998,526 2004,581 2001,627 1996,624 1983,615 1966,600 1948,580 1933,556 1923,528 1923,496 1936,462 1939,444 1939,426 1937,409 1932,392 1925,376 1916,361 1906,346 1895,332 1882,318 1869,304 1856,291 1843,279 1830,267 1817,255 1805,243 1794,232"/>
<polygon class="pen1 brush0" points="350,209 361,207 369,201 375,193 377,182 375,171 369,163 361,157 350,155 339,157 331,163 325,171 323,182 325,193 331,201 339,207 350,209"/>
</g>
</svg>
