<?xml version="1.0" encoding="UTF-8" standalone="no"?>
<!DOCTYPE svg PUBLIC "-//W3C//DTD SVG 1.0//EN" "http://www.w3.org/TR/2001/REC-SVG-20010904/DTD/svg10.dtd">
<svg xmlns="http://www.w3.org/2000/svg" xmlns:xlink="http://www.w3.org/1999/xlink" fill-rule="evenodd" height="0.919in" preserveAspectRatio="none" stroke-linecap="round" viewBox="0 0 1997 919" width="1.997in">
<style type="text/css">
.brush0 { fill: rgb(255,255,255); }
.pen0 { stroke: rgb(0,0,0); stroke-width: 1; stroke-linejoin: round; }
.brush1 { fill: none; }
.pen1 { stroke: none; }
.brush2 { fill: rgb(0,0,0); }
</style>
<g>
<polygon class="pen1 brush2" points="957,436 957,425 955,425 949,426 940,427 927,429 910,431 891,434 869,438 844,442 817,447 788,453 756,459 723,466 688,474 652,483 615,493 576,503 537,515 498,527 458,541 417,555 377,570 338,587 298,604 260,623 222,643 185,664 150,686 116,709 84,734 54,759 26,787 0,815 14,828 19,822 26,815 33,806 41,797 51,788 62,777 74,766 87,754 102,742 118,729 136,715 155,701 176,687 199,673 223,658 250,644 278,629 308,614 339,599 373,584 409,570 447,555 487,541 530,527 575,514 622,501 671,489 723,477 778,465 835,455 895,445 957,436"/>
<polygon class="pen1 brush2" points="1427,551 1419,564 1412,578 1407,593 1409,605 1404,609 1397,617 1389,627 1382,639 1375,654 1370,671 1369,690 1371,710 1379,710 1378,690 1380,672 1384,656 1389,642 1396,631 1402,622 1408,616 1413,612 1421,616 1430,614 1441,608 1451,598 1462,586 1471,573 1480,561 1487,551 1480,551 1472,551 1465,551 1457,551 1450,551 1442,551 1435,551 1427,551"/>
<polygon class="pen1 brush2" points="1524,551 1518,563 1512,576 1508,590 1508,601 1503,605 1495,611 1487,619 1479,631 1471,644 1466,661 1462,681 1463,703 1470,703 1470,681 1473,662 1478,647 1485,635 1492,625 1499,618 1505,612 1511,609 1518,616 1527,616 1536,610 1547,600 1557,588 1566,575 1575,562 1581,552 1574,552 1567,551 1560,551 1553,551 1546,551 1539,551 1531,551 1524,551"/>
<polygon class="pen1 brush2" points="1621,552 1616,561 1611,572 1608,584 1608,594 1602,598 1593,604 1583,613 1573,625 1564,639 1557,655 1553,674 1554,696 1561,696 1560,675 1563,657 1569,642 1578,629 1587,619 1596,611 1603,606 1609,602 1615,606 1622,604 1629,598 1637,589 1645,579 1652,569 1658,560 1663,554 1658,554 1653,554 1647,553 1642,553 1637,553 1632,552 1626,552 1621,552"/>
<polygon class="pen1 brush2" points="1693,554 1687,563 1681,574 1677,587 1676,598 1671,601 1664,607 1656,616 1648,627 1641,640 1637,655 1635,671 1638,689 1645,689 1643,672 1644,657 1648,644 1653,632 1659,622 1666,614 1672,609 1677,605 1683,609 1690,608 1698,602 1706,594 1715,584 1722,573 1729,564 1734,557 1729,556 1724,556 1719,555 1714,555 1709,555 1703,555 1698,554 1693,554"/>
<polygon class="pen1 brush2" points="1767,561 1762,570 1757,582 1754,594 1756,602 1750,606 1742,611 1733,619 1724,629 1715,641 1708,654 1704,668 1703,683 1710,683 1712,668 1716,654 1722,642 1730,632 1738,624 1746,618 1753,613 1758,611 1763,613 1768,612 1774,608 1780,602 1786,595 1792,588 1797,581 1801,575 1797,573 1793,570 1789,568 1785,566 1781,565 1776,563 1772,562 1767,561"/>
<polygon class="pen1 brush2" points="1822,591 1815,597 1808,605 1804,614 1805,623 1800,625 1795,629 1789,634 1783,640 1778,648 1773,657 1769,667 1767,679 1774,679 1777,668 1781,659 1785,652 1790,645 1795,640 1799,636 1804,633 1808,631 1811,632 1815,632 1819,631 1824,629 1829,627 1835,624 1840,621 1845,619 1840,611 1834,604 1828,597 1822,591"/>
<polygon class="pen1 brush2" points="1888,696 1861,707 1834,724 1809,746 1789,770 1772,795 1763,817 1760,835 1767,846 1781,850 1797,846 1813,838 1829,827 1843,816 1854,805 1862,797 1865,794 1857,810 1848,828 1840,847 1833,865 1827,882 1823,896 1822,906 1825,912 1830,913 1838,911 1847,905 1859,895 1874,881 1891,861 1910,836 1933,805 1929,789 1923,774 1917,759 1911,744 1904,730 1898,717 1893,706 1888,696"/>
<polygon class="pen1 brush2" points="1872,618 1885,637 1892,658 1894,677 1893,692 1899,702 1906,713 1912,724 1918,737 1925,751 1930,766 1935,783 1940,801 1957,770 1966,737 1969,704 1966,669 1957,636 1945,603 1930,572 1913,544 1911,551 1909,559 1905,567 1901,576 1896,586 1889,596 1881,607 1872,618"/>
<polygon class="pen1 brush2" points="1815,557 1823,562 1830,567 1837,574 1842,580 1847,587 1852,595 1857,603 1862,611 1865,608 1870,604 1876,598 1883,590 1889,580 1895,568 1901,552 1906,533 1905,516 1901,501 1893,488 1884,476 1874,465 1864,456 1854,449 1846,443 1846,457 1845,471 1843,485 1840,499 1835,514 1830,528 1823,542 1815,557"/>
<polygon class="pen1 brush2" points="1736,538 1742,539 1747,539 1752,540 1756,540 1760,541 1764,541 1767,542 1771,542 1776,543 1780,544 1785,545 1789,546 1793,548 1796,550 1800,552 1804,554 1812,539 1819,524 1824,509 1828,494 1831,480 1833,466 1834,452 1834,439 1831,425 1828,413 1824,401 1818,389 1809,379 1796,370 1778,362 1754,355 1759,374 1763,395 1765,417 1766,440 1763,465 1758,489 1749,514 1736,538"/>
<polygon class="pen1 brush2" points="1622,535 1637,535 1651,535 1664,536 1677,536 1689,537 1701,537 1712,538 1723,538 1737,512 1746,485 1752,460 1754,436 1753,412 1749,390 1744,370 1738,352 1733,344 1728,336 1721,330 1714,325 1707,321 1699,317 1691,314 1683,312 1674,311 1666,310 1659,310 1652,310 1645,310 1640,310 1634,311 1629,311 1635,331 1641,355 1645,381 1647,410 1647,440 1643,471 1635,503 1622,535"/>
<polygon class="pen1 brush2" points="1392,534 1406,534 1419,534 1433,534 1448,534 1462,534 1476,534 1491,534 1505,534 1519,534 1534,534 1548,534 1562,534 1575,535 1589,535 1602,535 1615,535 1627,500 1634,466 1637,434 1636,405 1633,377 1627,353 1620,331 1613,312 1613,312 1602,302 1591,294 1579,288 1567,282 1554,279 1542,276 1529,274 1517,274 1496,275 1476,278 1457,282 1441,287 1427,292 1417,297 1410,300 1408,301 1401,316 1394,336 1387,361 1382,389 1379,420 1379,455 1383,493 1392,534"/>
<polygon class="pen1 brush2" points="1139,811 1148,683 1298,533 1308,533 1318,534 1329,534 1339,534 1349,534 1360,534 1371,534 1382,534 1373,490 1368,450 1369,413 1372,380 1378,351 1385,326 1392,307 1398,292 1394,288 1391,286 1388,285 1386,284 1382,284 1377,285 1371,286 1362,288 1338,292 1308,294 1272,293 1232,291 1189,288 1143,284 1097,278 1051,273 1006,266 964,260 925,254 890,249 862,244 840,240 826,238 821,237 821,239 821,245 821,254 821,267 804,259 788,250 771,240 753,229 736,217 719,204 701,189 684,174 668,157 651,139 635,119 620,98 605,76 591,52 577,27 565,0 554,6 567,33 580,59 595,84 610,107 627,128 643,148 661,167 679,185 697,201 715,216 733,230 751,243 769,255 787,265 804,275 821,283 823,301 826,318 833,332 841,344 852,354 866,363 882,370 900,375 883,375 864,374 843,373 820,371 795,367 769,362 742,355 714,346 685,335 655,321 625,304 596,284 566,261 537,235 509,204 481,170 470,177 502,216 535,250 568,279 603,304 637,325 672,342 705,356 738,367 770,376 799,382 827,386 853,388 875,389 895,389 911,389 923,388 939,393 955,399 972,406 988,414 1003,424 1018,436 1030,448 1040,463 859,483 801,568 827,629 838,628 811,568 869,496 1048,473 1052,480 1057,486 1064,492 1074,497 899,558 825,680 851,781 863,781 839,686 913,568 1091,507 1099,509 1107,512 1115,513 1123,515 1131,517 1140,518 1149,520 1158,521 1023,598 977,771 1054,908 1065,908 990,774 1035,605 1177,527 1187,528 1198,529 1210,530 1222,530 1236,531 1250,532 1265,532 1281,533 1133,679 1125,812 1253,916 1264,913 1139,811"/>
<polygon class="pen1 brush0" points="1018,382 1024,381 1029,380 1035,377 1039,374 1043,369 1046,365 1047,360 1048,354 1047,348 1046,343 1043,338 1039,333 1035,330 1029,327 1024,326 1018,325 1007,327 998,333 992,343 990,354 992,365 998,374 1007,380 1018,382"/>
</g>
</svg>
