<?xml version="1.0" encoding="UTF-8" standalone="no"?>
<!DOCTYPE svg PUBLIC "-//W3C//DTD SVG 1.0//EN" "http://www.w3.org/TR/2001/REC-SVG-20010904/DTD/svg10.dtd">
<svg xmlns="http://www.w3.org/2000/svg" xmlns:xlink="http://www.w3.org/1999/xlink" fill-rule="evenodd" height="0.825in" preserveAspectRatio="none" stroke-linecap="round" viewBox="0 0 1999 825" width="1.999in">
<style type="text/css">
.brush0 { fill: rgb(255,255,255); }
.pen0 { stroke: rgb(0,0,0); stroke-width: 1; stroke-linejoin: round; }
.brush1 { fill: none; }
.pen1 { stroke: none; }
.brush2 { fill: rgb(0,0,0); }
</style>
<g>
<polygon class="pen1 brush2" points="27,285 37,286 49,286 62,285 75,284 90,283 105,282 121,280 137,279 152,277 168,275 183,273 197,271 211,269 223,267 234,265 244,264 256,263 272,260 293,257 318,253 347,249 378,244 412,240 447,235 484,231 521,227 558,224 595,221 631,220 665,220 698,221 727,224 729,222 734,215 743,205 754,192 767,177 782,159 799,141 817,121 835,101 854,81 873,63 891,45 909,30 925,17 939,6 952,0 951,5 949,19 944,40 938,64 930,90 920,115 907,136 892,150 893,152 896,157 901,165 906,176 911,190 916,206 920,223 922,242 924,242 929,243 937,245 949,247 963,250 980,254 999,258 1021,262 1045,267 1070,272 1097,278 1125,284 1154,290 1185,297 1216,304 1248,311 1280,319 1312,326 1344,334 1376,342 1407,350 1438,358 1468,366 1496,374 1524,382 1549,390 1573,398 1596,405 1616,413 1633,420 1649,427 1661,434 1664,432 1672,426 1684,417 1700,405 1720,391 1742,375 1767,358 1793,340 1821,322 1849,304 1877,287 1904,271 1930,257 1955,245 1977,237 1996,231 1922,325 1859,332 1855,343 1919,343 1879,403 1791,406 1778,417 1869,420 1832,467 1865,519 1784,525 1794,541 1872,535 1926,615 1862,620 1868,636 1932,629 1999,741 1996,739 1989,735 1977,727 1962,717 1943,705 1921,691 1897,675 1872,658 1845,640 1818,621 1790,601 1763,582 1736,562 1712,542 1689,523 1668,505 1665,505 1659,506 1647,507 1632,509 1613,512 1591,515 1566,519 1538,523 1507,528 1474,532 1439,538 1402,543 1363,549 1324,554 1283,560 1241,566 1200,571 1157,577 1115,582 1074,587 1033,592 993,597 954,601 916,605 881,608 847,611 815,613 786,614 760,615 736,615 716,614 700,612 697,596 690,566 682,538 679,525 659,525 727,825 726,824 722,821 716,816 709,809 699,800 689,789 677,776 665,762 651,746 638,728 624,709 611,689 598,667 586,643 574,619 564,593 562,592 554,589 541,585 524,579 503,572 480,564 455,555 428,546 402,536 375,526 350,516 327,507 307,497 290,488 278,480 271,473 155,457 253,412 251,410 247,406 240,400 230,392 228,393 225,400 224,409 223,413 206,385 202,410 182,373 176,400 159,369 152,365 135,355 110,341 83,325 57,310 36,296 25,287 27,285"/>
<polygon class="pen1 brush0" points="330,358 338,356 345,351 349,344 351,335 349,327 345,320 338,316 330,314 321,316 314,320 309,327 307,335 309,344 314,351 321,356 330,358"/>
<polygon class="pen1 brush0" points="477,393 491,400 436,484 422,477 477,393"/>
<polygon class="pen1 brush0" points="517,407 533,416 479,504 459,497 517,407"/>
<polygon class="pen1 brush0" points="558,423 578,430 518,521 501,514 558,423"/>
</g>
</svg>
