<?xml version="1.0" encoding="UTF-8" standalone="no"?>
<!DOCTYPE svg PUBLIC "-//W3C//DTD SVG 1.0//EN" "http://www.w3.org/TR/2001/REC-SVG-20010904/DTD/svg10.dtd">
<svg xmlns="http://www.w3.org/2000/svg" xmlns:xlink="http://www.w3.org/1999/xlink" fill-rule="evenodd" height="0.912in" preserveAspectRatio="none" stroke-linecap="round" viewBox="0 0 2111 912" width="2.111in">
<style type="text/css">
.brush0 { fill: rgb(255,255,255); }
.pen0 { stroke: rgb(0,0,0); stroke-width: 1; stroke-linejoin: round; }
.brush1 { fill: none; }
.pen1 { stroke: none; }
.brush2 { fill: rgb(0,0,0); }
</style>
<g>
<polygon class="pen1 brush2" points="1019,621 1015,621 1004,622 987,622 966,622 942,620 918,617 895,612 874,604 874,606 875,611 875,619 874,630 873,642 870,657 865,672 858,688 849,705 836,722 821,739 801,754 778,769 750,781 718,792 680,800 680,801 678,804 676,809 673,815 668,822 663,830 656,839 647,848 637,858 625,867 612,877 596,886 579,894 559,901 537,907 513,912 514,907 518,896 525,881 534,865 532,866 525,869 517,874 506,881 496,888 486,895 478,902 474,909 474,903 477,888 484,869 497,851 495,852 490,853 484,856 476,860 467,865 459,870 453,876 449,882 449,880 451,875 455,866 464,854 478,840 499,823 529,804 568,783 577,776 586,763 596,746 604,725 609,703 611,679 607,655 597,631 594,631 587,629 579,626 568,622 556,616 542,609 528,601 512,592 497,582 482,571 467,560 453,547 440,534 428,521 419,506 412,492 405,493 397,494 388,493 379,492 370,491 361,488 352,484 344,480 340,482 329,485 313,487 294,487 272,482 250,469 230,447 213,413 194,406 178,398 165,391 154,383 145,375 138,367 134,359 131,351 129,335 133,319 140,302 149,286 160,268 171,250 181,232 189,212 185,202 178,177 173,144 178,108 180,109 185,111 193,114 203,119 215,126 227,135 240,146 253,159 255,158 260,157 268,155 279,152 292,149 307,146 324,144 342,142 360,140 379,140 397,141 415,143 433,147 449,153 463,161 476,171 478,168 485,161 495,152 507,141 521,130 535,121 550,115 563,114 563,117 561,127 559,141 555,158 550,176 544,195 537,213 528,229 539,222 551,218 563,215 575,213 587,214 598,215 610,218 622,222 655,198 687,175 720,154 752,135 783,117 815,101 846,86 876,72 906,61 936,50 966,41 994,33 1023,26 1051,21 1078,16 1105,13 1131,11 1157,10 1182,11 1207,12 1231,14 1255,18 1278,22 1300,27 1322,33 1343,40 1363,48 1382,57 1401,66 1419,76 1436,87 1453,98 1480,120 1505,143 1526,169 1545,195 1562,223 1575,252 1585,283 1593,313 1597,345 1597,377 1595,409 1589,441 1579,473 1566,505 1549,536 1528,567 1317,831 1315,831 1311,831 1304,832 1295,832 1283,833 1271,835 1257,837 1242,839 1227,842 1211,846 1196,850 1181,855 1167,861 1154,868 1143,876 1134,885 1135,880 1140,867 1146,851 1155,835 1153,836 1148,838 1140,842 1130,847 1120,852 1111,858 1103,864 1098,869 1099,868 1100,864 1102,858 1106,851 1110,844 1115,836 1121,828 1128,821 1126,821 1122,822 1116,823 1108,824 1100,827 1091,830 1084,835 1078,840 1079,839 1081,837 1084,833 1089,829 1095,823 1102,817 1110,810 1120,803 1132,796 1144,789 1158,782 1173,775 1189,769 1207,764 1226,760 1246,757 1243,713 1207,710 1172,702 1140,689 1109,672 1081,651 1054,627 1029,600 1006,570 985,539 965,506 948,472 932,437 919,403 907,369 896,336 888,304 889,345 896,388 908,430 924,473 944,514 967,552 992,589 1019,621 1019,621"/>
<polygon class="pen1 brush2" points="1617,442 1612,465 1605,487 1595,509 1585,529 1574,548 1563,564 1554,578 1546,588 1550,593 1553,597 1557,602 1561,606 1565,611 1569,616 1573,620 1577,625 1665,490 1658,484 1651,477 1644,471 1638,465 1632,459 1627,453 1622,447 1617,442 1617,442"/>
<polygon class="pen1 brush2" points="1683,506 1594,644 1598,649 1603,653 1607,658 1611,662 1616,667 1620,671 1624,675 1628,679 1722,538 1717,535 1712,531 1708,528 1703,524 1699,521 1694,517 1690,514 1686,510 1686,510 1686,509 1685,508 1684,507 1683,506 1683,506"/>
<polygon class="pen1 brush2" points="1742,553 1646,696 1651,700 1657,705 1662,709 1667,713 1672,717 1677,721 1683,725 1688,729 1784,581 1779,578 1774,575 1768,571 1763,568 1758,564 1753,560 1747,557 1742,553 1742,553"/>
<polygon class="pen1 brush2" points="1805,594 1811,597 1817,600 1823,603 1830,606 1836,609 1842,612 1848,615 1854,618 1751,773 1745,769 1740,766 1734,762 1729,758 1723,755 1718,751 1712,747 1706,743 1805,594 1805,594"/>
<polygon class="pen1 brush2" points="1876,627 1877,627 1878,627 1878,628 1878,628 1885,630 1891,633 1898,635 1904,638 1910,640 1916,643 1922,645 1928,648 1824,806 1818,804 1811,801 1805,799 1799,796 1792,793 1786,790 1779,787 1773,784 1876,627 1876,627"/>
<polygon class="pen1 brush2" points="1949,659 1848,814 1854,816 1861,818 1867,820 1874,822 1880,823 1886,825 1893,826 1899,827 1993,682 1988,679 1983,676 1978,673 1973,670 1967,668 1961,665 1955,662 1949,659 1949,659"/>
<polygon class="pen1 brush2" points="2013,696 1925,830 1933,831 1940,832 1947,832 1954,832 1961,832 1968,832 1975,832 1982,831 2053,725 2048,721 2043,718 2039,714 2034,710 2029,707 2024,703 2018,700 2013,696 2013,696"/>
<polygon class="pen1 brush2" points="2071,742 2078,750 2085,757 2091,765 2096,772 2101,779 2105,786 2108,792 2111,798 2109,799 2104,802 2096,806 2085,810 2071,815 2054,820 2035,825 2013,828 2071,742"/>
<polygon class="pen1 brush0" points="486,185 540,138 513,206 486,185"/>
<polygon class="pen1 brush0" points="239,176 186,131 212,198 239,176"/>
<polygon class="pen1 brush0" points="344,473 340,474 330,477 314,478 295,477 275,472 254,459 235,438 219,406 217,405 210,403 201,399 189,393 177,386 165,378 155,368 146,357 141,344 141,331 146,316 158,300 178,283 206,264 245,245 294,225 296,227 300,232 307,241 315,251 324,263 333,275 341,287 349,298 351,296 355,289 362,280 370,268 380,256 390,244 400,232 409,223 412,224 420,228 433,234 448,242 465,252 483,263 501,276 518,290 531,305 542,321 547,337 547,353 540,370 525,386 501,402 467,418 455,426 447,438 440,451 432,465 421,476 404,482 379,482 344,473"/>
<polygon class="pen1 brush2" points="178,314 185,310 198,303 214,294 232,285 250,276 266,268 279,262 288,259 295,262 303,272 309,287 314,306 316,326 312,346 303,363 287,375 268,381 251,383 237,381 224,376 212,368 201,357 190,343 179,327 178,322 177,318 178,315 178,314"/>
<polygon class="pen1 brush2" points="524,317 517,312 504,305 488,297 470,287 452,279 435,271 421,264 412,261 405,264 398,274 391,290 387,309 385,330 389,349 398,366 415,378 434,385 450,387 465,386 478,381 489,373 501,361 512,347 523,331 525,326 525,321 524,318 524,317"/>
<polygon class="pen1 brush2" points="307,415 315,414 323,413 333,413 343,413 353,413 363,414 372,415 379,416 383,420 383,426 379,435 374,443 367,452 359,459 351,465 344,467 337,466 329,461 320,453 312,444 306,435 302,426 302,419 307,415"/>
<polygon class="pen1 brush0" points="269,338 278,336 285,331 289,324 291,315 289,306 285,299 278,295 269,293 260,295 253,299 248,306 246,315 248,324 253,331 260,336 269,338"/>
<polygon class="pen1 brush0" points="429,341 438,339 446,334 451,327 453,317 451,308 446,301 438,296 429,294 421,296 413,301 408,308 406,317 408,327 413,334 421,339 429,341"/>
</g>
</svg>
