<?xml version="1.0" encoding="UTF-8" standalone="no"?>
<!DOCTYPE svg PUBLIC "-//W3C//DTD SVG 1.0//EN" "http://www.w3.org/TR/2001/REC-SVG-20010904/DTD/svg10.dtd">
<svg xmlns="http://www.w3.org/2000/svg" xmlns:xlink="http://www.w3.org/1999/xlink" fill-rule="evenodd" height="0.87in" preserveAspectRatio="none" stroke-linecap="round" viewBox="0 0 1980 870" width="1.98in">
<style type="text/css">
.brush0 { fill: rgb(255,255,255); }
.pen0 { stroke: rgb(0,0,0); stroke-width: 1; stroke-linejoin: round; }
.brush1 { fill: none; }
.pen1 { stroke: none; }
.brush2 { fill: rgb(0,0,0); }
</style>
<g>
<polygon class="pen1 brush2" points="1175,522 1173,521 1169,518 1164,513 1158,506 1151,497 1146,487 1143,475 1143,461 1147,460 1157,457 1173,453 1191,447 1211,441 1229,435 1246,430 1258,425 1265,422 1274,419 1285,416 1297,412 1310,408 1325,404 1341,400 1357,396 1374,393 1391,389 1409,386 1427,383 1444,380 1461,377 1477,375 1493,374 1513,378 1528,391 1540,412 1550,439 1557,470 1562,503 1566,537 1570,570 1574,595 1578,621 1583,648 1589,674 1593,700 1596,725 1598,747 1598,767 1625,774 1651,780 1675,786 1698,791 1720,796 1742,801 1763,806 1784,810 1805,815 1827,820 1850,825 1873,830 1897,835 1923,841 1951,847 1980,854 1980,858 1979,862 1979,866 1977,870 1948,863 1920,857 1894,851 1870,845 1846,840 1824,835 1802,830 1781,825 1760,821 1738,816 1717,811 1694,806 1671,801 1647,795 1622,789 1595,783 1594,791 1592,797 1589,803 1585,806 1573,806 1561,795 1549,771 1538,736 1526,688 1514,629 1503,558 1493,475 1491,464 1486,454 1478,447 1469,441 1459,437 1447,435 1434,434 1421,434 1407,436 1393,438 1379,442 1366,446 1354,451 1343,457 1333,463 1325,469 1308,484 1290,494 1273,501 1254,506 1235,509 1216,512 1196,516 1175,522 1175,522"/>
<polygon class="pen1 brush2" points="1801,645 1801,625 1799,598 1795,564 1789,527 1780,487 1768,445 1753,403 1734,363 1711,325 1684,292 1651,264 1614,243 1572,230 1524,227 1469,236 1409,257 1348,282 1292,302 1241,316 1195,327 1154,334 1117,338 1084,338 1056,337 1032,334 1011,330 995,324 981,319 971,314 964,310 960,307 959,306 951,283 942,260 932,240 923,220 912,201 902,184 891,167 879,152 868,138 856,124 844,112 832,100 820,90 807,80 795,71 783,63 767,54 751,46 736,39 721,33 706,28 692,25 679,22 667,20 656,19 645,18 636,18 627,19 620,21 615,22 611,25 608,27 599,38 589,53 579,73 572,100 570,134 574,175 588,224 612,282 630,310 654,333 681,351 712,365 746,375 782,381 818,384 856,385 893,384 928,381 962,378 994,374 1022,370 1045,366 1064,364 1077,363 1088,363 1099,363 1112,363 1126,363 1141,363 1156,364 1171,364 1186,365 1200,366 1214,368 1228,370 1240,372 1251,375 1260,379 1268,382 1274,387 1278,391 1282,394 1286,398 1290,401 1300,398 1310,396 1321,393 1334,390 1346,387 1360,384 1374,381 1388,379 1402,376 1417,373 1431,371 1445,369 1459,367 1473,365 1486,364 1499,363 1525,369 1544,389 1559,419 1569,456 1576,496 1580,534 1584,568 1587,594 1610,603 1632,611 1654,617 1674,623 1692,628 1710,632 1726,636 1741,638 1755,640 1767,642 1777,643 1785,644 1792,645 1797,645 1800,645 1801,645 1801,645"/>
<polygon class="pen1 brush2" points="1493,581 1491,557 1488,532 1485,506 1481,479 1471,462 1457,452 1439,447 1419,447 1397,452 1375,459 1354,468 1335,479 1356,497 1376,512 1396,526 1415,539 1434,550 1454,561 1473,571 1493,581 1493,581"/>
<polygon class="pen1 brush2" points="504,574 501,577 493,583 479,589 462,592 440,589 415,577 386,552 356,512 360,497 364,486 371,477 380,471 393,468 411,467 434,469 464,473 454,494 448,511 445,526 447,539 453,550 465,559 481,567 504,574 504,574"/>
<polygon class="pen1 brush2" points="1166,691 1166,690 1168,688 1169,687 1169,686 1186,690 1201,694 1216,697 1231,701 1245,704 1258,707 1272,710 1286,712 1299,715 1313,718 1328,722 1343,725 1359,729 1375,733 1393,737 1412,742 1413,738 1414,734 1416,730 1416,726 1397,721 1380,717 1364,713 1348,709 1333,706 1318,702 1304,699 1291,696 1277,693 1264,691 1250,688 1236,685 1222,682 1207,678 1192,675 1176,671 1178,662 1178,652 1176,640 1172,627 1165,611 1157,594 1147,575 1135,553 1121,526 1112,502 1106,481 1102,463 1099,448 1095,437 1090,430 1081,428 1077,428 1072,429 1065,429 1057,430 1047,431 1037,432 1026,433 1015,434 1002,435 990,435 977,435 964,434 951,433 938,432 925,429 913,426 894,421 876,419 861,419 847,419 835,418 825,416 817,410 810,401 753,408 706,397 699,404 687,405 671,401 652,396 630,391 607,389 583,390 561,398 554,401 544,402 532,403 518,403 502,402 486,400 468,398 450,396 432,394 415,391 398,389 383,386 369,385 357,383 348,382 341,382 332,386 325,396 320,411 316,430 312,452 306,477 298,505 287,533 276,556 266,578 257,598 250,615 244,631 240,645 239,656 240,665 227,666 213,668 199,670 185,671 170,673 155,675 140,677 126,679 111,681 96,683 82,684 68,686 54,688 41,689 29,691 17,692 17,695 18,700 18,705 18,709 30,708 42,706 55,705 69,703 83,701 98,700 112,698 127,696 142,694 157,692 172,690 187,688 201,687 215,685 228,683 241,682 243,684 244,685 246,687 247,688 268,692 284,687 297,677 307,660 314,640 320,617 325,592 329,567 332,550 335,534 337,519 340,506 342,494 346,484 351,474 357,467 365,460 375,456 388,453 403,451 422,452 444,454 470,457 500,463 531,469 559,473 585,475 609,475 631,474 650,472 668,469 683,465 697,460 709,455 719,449 728,443 735,437 741,432 746,427 750,422 752,428 754,434 757,442 761,449 766,458 773,466 781,473 790,480 801,487 814,492 829,496 845,499 865,499 886,498 910,494 937,488 964,482 990,481 1014,485 1036,493 1054,507 1069,527 1079,554 1085,587 1089,612 1096,635 1106,655 1118,671 1130,683 1143,691 1155,693 1166,691 1166,691"/>
<polygon class="pen1 brush2" points="301,432 295,418 289,405 284,391 278,377 273,362 267,345 261,327 254,307 247,279 245,251 246,224 250,197 258,171 268,146 280,122 295,100 310,81 327,63 345,48 363,36 381,26 399,21 416,18 432,20 447,26 462,35 477,47 492,62 505,79 518,99 529,120 538,143 546,167 551,192 554,218 554,243 552,269 546,294 536,318 523,341 519,347 514,353 510,359 506,364 502,370 498,375 494,381 490,387 468,384 444,382 421,378 399,375 378,373 361,371 347,370 338,370 331,371 325,374 320,379 315,386 311,395 308,405 304,418 301,432 301,432"/>
<polygon class="pen1 brush2" points="243,310 230,320 215,305 197,281 178,252 159,219 142,189 128,162 119,144 115,137 109,198 109,261 113,324 120,382 127,433 134,473 140,499 142,509 100,423 78,342 71,268 75,202 86,147 99,106 110,79 115,70 144,82 170,110 192,149 210,192 224,236 235,273 241,300 243,310"/>
<polygon class="pen1 brush0" points="379,247 386,246 392,244 398,241 403,237 407,233 410,227 411,221 412,215 411,208 410,202 407,196 403,191 398,187 392,184 386,183 379,182 373,183 367,184 361,187 357,191 353,196 350,202 348,208 347,215 348,221 350,227 353,233 357,237 361,241 367,244 373,246 379,247"/>
</g>
</svg>
