<?xml version="1.0" encoding="UTF-8" standalone="no"?>
<!DOCTYPE svg PUBLIC "-//W3C//DTD SVG 1.0//EN" "http://www.w3.org/TR/2001/REC-SVG-20010904/DTD/svg10.dtd">
<svg xmlns="http://www.w3.org/2000/svg" xmlns:xlink="http://www.w3.org/1999/xlink" fill-rule="evenodd" height="1.633in" preserveAspectRatio="none" stroke-linecap="round" viewBox="0 0 1979 1633" width="1.979in">
<style type="text/css">
.brush0 { fill: rgb(255,255,255); }
.pen0 { stroke: rgb(0,0,0); stroke-width: 1; stroke-linejoin: round; }
.brush1 { fill: none; }
.pen1 { stroke: none; }
.brush2 { fill: rgb(0,0,0); }
</style>
<g>
<polygon class="pen1 brush2" points="141,807 347,737 314,776 283,816 253,857 225,900 199,944 175,989 153,1035 134,1082 116,1130 101,1178 88,1227 78,1277 70,1327 65,1378 63,1429 64,1480 47,1454 34,1428 23,1402 15,1374 10,1345 7,1312 7,1275 9,1233 14,1185 25,1132 39,1076 57,1018 77,961 98,905 120,854 141,807 141,807"/>
<polygon class="pen1 brush2" points="452,340 405,348 362,358 323,370 288,385 256,403 228,423 204,446 184,471 168,499 155,530 146,563 140,600 139,639 140,681 146,726 155,774 374,712 330,811 348,821 368,830 388,837 409,842 431,846 454,848 477,850 500,850 523,849 546,847 569,845 592,842 614,839 635,836 656,832 675,828 725,830 766,835 798,844 823,856 842,871 857,888 868,907 878,928 887,951 897,975 909,1000 924,1025 944,1051 970,1077 1004,1103 1046,1128 1060,1138 1077,1148 1097,1157 1117,1165 1139,1172 1162,1178 1184,1183 1206,1185 1226,1185 1245,1183 1262,1179 1275,1171 1286,1161 1292,1147 1293,1129 1290,1108 1283,1095 1277,1083 1271,1072 1267,1062 1263,1051 1258,1040 1254,1027 1249,1013 1243,987 1239,961 1236,934 1236,907 1237,880 1242,853 1248,828 1258,803 1272,780 1287,758 1304,737 1323,718 1343,701 1364,686 1387,674 1412,663 1383,691 1358,721 1336,752 1319,786 1306,820 1296,855 1291,891 1290,927 1294,963 1301,999 1312,1033 1328,1067 1348,1100 1373,1131 1402,1159 1435,1186 1465,1202 1495,1216 1526,1227 1557,1235 1588,1240 1620,1242 1651,1242 1682,1239 1712,1234 1742,1226 1770,1215 1798,1201 1824,1184 1848,1165 1871,1144 1892,1119 1912,1091 1929,1059 1943,1025 1955,988 1963,948 1967,906 1968,860 1965,811 1960,774 1952,736 1941,697 1928,655 1913,613 1896,568 1877,521 1858,473 1972,469 1964,461 1956,453 1947,445 1938,437 1929,430 1919,422 1908,415 1897,407 1886,400 1874,393 1861,386 1848,379 1834,372 1820,365 1805,358 1790,351 1799,345 1810,340 1823,336 1836,332 1850,329 1864,326 1876,325 1887,324 1877,319 1867,314 1856,309 1845,305 1833,301 1821,298 1809,295 1796,292 1783,289 1769,287 1756,285 1742,283 1729,281 1715,280 1702,278 1688,277 1701,269 1716,261 1731,252 1746,243 1762,236 1777,229 1792,225 1807,222 1794,216 1782,210 1770,205 1758,200 1745,195 1733,191 1721,188 1708,185 1695,182 1681,180 1666,178 1651,177 1636,176 1619,175 1602,175 1583,176 1594,167 1605,159 1616,152 1628,145 1640,138 1652,133 1665,127 1678,122 1665,119 1652,116 1639,114 1627,111 1615,109 1602,108 1590,106 1578,105 1565,104 1552,103 1539,102 1525,101 1511,101 1496,101 1481,101 1465,101 1477,91 1490,82 1503,75 1517,69 1532,64 1547,60 1562,57 1577,54 1562,51 1548,48 1533,45 1518,43 1503,42 1488,41 1473,41 1458,41 1443,41 1428,42 1413,44 1398,46 1383,48 1368,51 1353,54 1338,58 1348,51 1359,44 1369,37 1380,30 1391,24 1402,18 1413,12 1424,6 1391,6 1357,6 1324,7 1291,9 1258,12 1226,15 1193,19 1161,24 1129,29 1097,35 1065,42 1033,50 1002,58 971,67 940,76 909,86 879,97 848,109 818,121 788,134 759,147 730,162 701,177 672,192 643,208 615,225 587,243 560,261 532,280 505,299 478,319 452,340 452,340"/>
<polygon class="pen1 brush2" points="1435,1219 1499,1246 1472,1442 1546,1623 1439,1510 1259,1633 1365,1490 1175,1480 1183,1477 1194,1474 1208,1472 1223,1468 1240,1465 1257,1462 1276,1459 1294,1455 1313,1452 1330,1448 1347,1445 1362,1441 1375,1437 1386,1433 1393,1430 1398,1426 1404,1400 1409,1375 1413,1349 1418,1322 1422,1296 1426,1270 1430,1245 1435,1219 1435,1219"/>
<polygon class="pen1 brush2" points="1029,1162 1094,1189 1067,1385 1141,1566 1035,1455 856,1576 962,1433 770,1422 786,1419 802,1416 818,1413 833,1410 849,1407 864,1404 879,1400 893,1397 907,1394 921,1391 934,1388 947,1384 959,1381 970,1377 982,1373 992,1369 998,1343 1003,1318 1008,1292 1012,1265 1016,1239 1020,1213 1025,1188 1029,1162"/>
<polygon class="pen1 brush0" points="331,591 339,592 347,594 355,598 361,603 366,609 371,616 373,624 374,632 373,640 371,648 366,656 361,662 355,667 347,672 339,674 331,675 323,674 315,672 308,667 302,662 297,656 293,648 291,640 290,632 291,624 293,616 297,609 302,603 308,598 315,594 323,592 331,591"/>
</g>
</svg>
