<?xml version="1.0" encoding="UTF-8" standalone="no"?>
<!DOCTYPE svg PUBLIC "-//W3C//DTD SVG 1.0//EN" "http://www.w3.org/TR/2001/REC-SVG-20010904/DTD/svg10.dtd">
<svg xmlns="http://www.w3.org/2000/svg" xmlns:xlink="http://www.w3.org/1999/xlink" fill-rule="evenodd" height="1.269in" preserveAspectRatio="none" stroke-linecap="round" viewBox="0 0 1977 1269" width="1.977in">
<style type="text/css">
.brush0 { fill: rgb(255,255,255); }
.pen0 { stroke: rgb(0,0,0); stroke-width: 1; stroke-linejoin: round; }
.brush1 { fill: none; }
.pen1 { stroke: none; }
.brush2 { fill: rgb(0,0,0); }
</style>
<g>
<polygon class="pen1 brush2" points="1845,671 1841,674 1837,678 1832,683 1826,687 1820,693 1812,698 1803,704 1794,710 1783,716 1770,723 1756,730 1741,737 1724,744 1705,752 1684,759 1662,767 1659,750 1656,735 1653,720 1649,703 1664,701 1678,700 1692,698 1705,696 1718,694 1730,693 1742,691 1753,689 1765,687 1776,685 1787,683 1798,681 1810,678 1821,676 1833,674 1845,671 1845,671"/>
<polygon class="pen1 brush2" points="1599,499 1605,522 1611,545 1616,568 1622,591 1628,615 1633,639 1639,662 1645,686 1664,684 1683,682 1702,679 1721,676 1741,674 1760,671 1779,667 1798,664 1817,660 1836,656 1855,652 1874,647 1893,642 1911,637 1930,631 1949,625 1960,619 1969,611 1973,602 1973,591 1969,580 1961,570 1949,561 1934,552 1917,545 1896,538 1873,531 1848,526 1821,521 1793,516 1762,512 1731,509 1699,506 1666,503 1633,501 1599,499 1599,499"/>
<polygon class="pen1 brush2" points="1335,489 1336,489 1338,489 1341,489 1346,489 1351,489 1359,489 1367,489 1377,489 1388,490 1400,490 1413,490 1427,491 1443,491 1460,492 1478,492 1497,493 1502,516 1508,540 1514,565 1520,590 1526,616 1532,642 1539,669 1545,696 1519,699 1494,701 1469,704 1444,706 1420,708 1395,709 1371,711 1347,712 1323,713 1300,714 1277,715 1254,715 1231,716 1209,716 1187,715 1165,715 1174,706 1183,696 1192,686 1202,675 1211,664 1222,651 1232,638 1243,625 1254,611 1265,596 1276,580 1288,563 1299,546 1311,528 1323,509 1335,489 1335,489"/>
<polygon class="pen1 brush2" points="1567,790 1562,771 1559,752 1555,733 1550,713 1524,716 1498,719 1472,721 1447,723 1421,725 1395,727 1370,729 1345,730 1320,732 1295,733 1270,734 1245,735 1221,735 1197,736 1173,736 1150,736 1127,758 1107,775 1090,788 1076,796 1065,802 1057,804 1053,806 1051,806 1094,811 1135,815 1175,819 1212,821 1249,822 1284,823 1317,822 1349,821 1380,819 1410,817 1438,814 1466,810 1492,806 1518,801 1543,796 1567,790 1567,790"/>
<polygon class="pen1 brush2" points="571,452 569,450 562,446 550,439 535,431 515,422 490,414 462,406 430,401 423,401 417,401 411,401 406,401 402,401 398,402 393,403 388,404 388,383 388,360 386,337 384,313 380,288 374,263 366,237 357,211 344,185 330,158 312,132 292,105 268,79 241,53 210,28 175,3 173,2 167,2 162,4 160,6 194,29 223,53 250,78 273,104 294,129 311,156 326,182 338,208 348,234 356,260 363,286 367,311 370,336 372,360 373,383 373,405 370,406 367,407 364,408 362,409 355,389 348,367 339,345 328,322 317,299 303,275 287,252 269,229 249,207 225,185 199,165 170,145 137,127 101,111 60,96 16,84 13,85 8,89 3,92 3,94 45,105 84,118 119,133 151,150 180,169 206,189 230,210 251,232 269,255 286,279 300,302 313,326 324,349 334,372 342,394 349,415 327,435 315,463 313,497 319,536 330,578 346,620 365,661 385,699 397,718 410,732 424,741 438,745 452,745 466,742 479,737 493,729 505,720 517,710 527,700 536,691 544,682 549,675 553,671 554,669 572,693 593,713 616,728 642,740 669,748 696,754 724,757 752,758 778,758 803,756 826,753 846,750 863,747 875,745 883,743 886,742 915,781 948,802 984,808 1023,799 1063,779 1104,749 1145,711 1186,667 1225,619 1262,570 1296,522 1326,475 1352,433 1373,398 1388,371 1396,354 1408,332 1420,319 1432,315 1445,318 1456,326 1467,338 1476,351 1483,364 1493,400 1511,473 1534,572 1560,684 1587,797 1611,900 1630,981 1642,1026 1645,1035 1649,1043 1653,1049 1658,1053 1662,1057 1667,1059 1672,1060 1677,1060 1691,1073 1706,1086 1720,1099 1734,1112 1748,1125 1763,1138 1777,1151 1791,1164 1805,1177 1819,1190 1834,1203 1848,1216 1862,1229 1876,1243 1891,1256 1905,1269 1908,1267 1911,1267 1913,1266 1916,1265 1902,1252 1887,1239 1873,1226 1859,1212 1844,1199 1830,1186 1816,1173 1802,1159 1788,1146 1773,1133 1759,1120 1745,1107 1731,1093 1717,1080 1703,1067 1689,1054 1698,1049 1702,1041 1704,1031 1703,1019 1700,1007 1694,983 1686,949 1677,907 1665,857 1653,803 1640,745 1626,684 1611,623 1597,562 1583,504 1569,450 1556,401 1545,359 1535,326 1527,302 1520,287 1514,273 1507,262 1500,252 1492,244 1485,237 1477,232 1469,228 1459,224 1449,223 1438,223 1428,224 1418,226 1409,230 1400,234 1392,239 1382,246 1366,259 1345,278 1321,300 1294,326 1265,355 1235,385 1204,415 1173,446 1143,475 1115,503 1090,528 1068,549 1050,565 1038,576 1031,581 1039,565 1051,547 1066,528 1081,510 1097,494 1110,481 1119,472 1122,469 1091,469 1065,469 1043,469 1024,470 1009,471 995,473 982,476 970,480 961,490 954,505 949,523 945,544 942,569 941,596 940,626 939,658 931,596 933,543 942,499 956,463 972,436 986,417 997,406 1001,402 981,393 956,388 927,386 895,386 861,389 825,393 788,399 752,406 716,414 683,421 652,429 625,436 603,443 586,448 575,451 571,452 571,452"/>
<polygon class="pen1 brush2" points="781,780 782,780 786,779 791,779 798,777 807,776 816,774 827,772 839,769 840,770 843,772 848,775 855,780 863,785 872,791 884,797 896,804 909,812 924,819 939,826 955,834 972,840 989,847 1006,852 1024,857 1055,866 1075,876 1086,888 1090,900 1089,914 1084,929 1077,945 1069,962 1062,979 1055,1000 1048,1023 1039,1046 1031,1068 1021,1087 1011,1100 1000,1108 1015,1123 1031,1137 1046,1151 1061,1166 1076,1180 1091,1194 1107,1208 1122,1222 1121,1224 1120,1226 1118,1228 1116,1229 1100,1215 1085,1200 1069,1186 1053,1171 1037,1156 1021,1141 1005,1126 989,1111 987,1112 985,1112 982,1111 980,1110 972,1098 973,1079 980,1056 992,1030 1005,1003 1018,979 1028,958 1034,944 1036,935 1037,926 1036,919 1034,913 1030,907 1024,902 1016,898 1007,894 1000,892 992,889 981,886 970,883 956,879 942,874 927,868 911,862 894,855 878,847 861,839 844,829 827,818 811,807 796,794 781,780 781,780"/>
<polygon class="pen1 brush2" points="662,770 644,780 626,788 607,796 589,802 570,807 551,812 533,815 515,818 498,820 482,822 467,823 454,824 441,825 431,825 422,825 415,826 405,827 396,829 389,832 383,836 379,842 376,849 375,857 375,867 377,882 383,904 390,931 396,960 401,988 403,1013 399,1032 389,1042 387,1043 386,1043 384,1043 382,1043 363,1053 343,1064 324,1074 304,1085 284,1096 265,1107 245,1117 226,1128 224,1125 222,1122 221,1120 220,1117 239,1107 257,1097 276,1087 295,1076 313,1066 332,1056 350,1046 369,1036 360,1028 353,1013 349,992 346,969 344,943 342,918 340,895 338,875 334,857 331,841 329,825 332,811 339,800 352,791 374,786 406,784 425,784 443,783 462,781 480,779 497,776 514,773 530,769 545,766 558,762 570,759 581,755 591,752 598,750 603,748 607,746 608,746 619,751 629,756 638,760 646,763 653,766 658,768 661,770 662,770"/>
<polygon class="pen1 brush0" points="419,563 426,563 433,561 440,558 446,554 451,549 455,544 458,537 460,530 460,523 459,516 457,509 453,503 448,498 443,494 436,491 429,489 422,489 415,491 408,494 402,498 397,503 393,508 390,515 388,522 388,529 389,536 391,543 395,549 400,554 405,558 412,561 419,563"/>
<polygon class="pen1 brush0" points="1304,365 1304,401 1308,397 1312,393 1315,389 1319,385 1323,381 1327,377 1331,372 1335,368 1341,374 1334,381 1328,389 1321,395 1315,401 1341,394 1344,400 1308,411 1303,416 1299,420 1294,425 1290,429 1286,434 1282,438 1278,442 1274,446 1305,435 1310,442 1306,442 1301,444 1294,446 1287,448 1279,450 1273,452 1269,454 1267,455 1267,455 1267,455 1260,462 1254,468 1248,475 1243,482 1270,472 1273,478 1234,489 1228,496 1222,504 1216,511 1210,519 1237,509 1240,515 1202,526 1195,534 1188,541 1181,549 1175,557 1199,549 1202,554 1166,566 1162,570 1158,575 1155,579 1151,584 1147,588 1142,593 1138,598 1133,603 1158,594 1160,600 1125,611 1121,615 1118,619 1114,622 1110,626 1106,630 1103,634 1099,638 1095,642 1122,634 1125,640 1079,655 1078,607 1085,607 1085,641 1089,637 1093,633 1097,630 1100,626 1104,622 1108,618 1111,615 1115,611 1115,567 1121,567 1122,604 1126,599 1130,594 1135,589 1139,584 1143,580 1148,575 1152,571 1156,567 1156,523 1162,520 1162,559 1166,554 1170,549 1175,545 1179,540 1183,536 1187,531 1190,527 1194,523 1194,482 1200,480 1202,516 1208,508 1215,501 1221,493 1227,486 1227,445 1233,444 1233,479 1237,475 1241,471 1245,467 1249,463 1252,459 1256,454 1260,450 1264,445 1263,408 1270,408 1270,438 1276,430 1283,423 1290,415 1298,408 1298,367 1304,365"/>
</g>
</svg>
