<?xml version="1.0" encoding="UTF-8" standalone="no"?>
<!DOCTYPE svg PUBLIC "-//W3C//DTD SVG 1.0//EN" "http://www.w3.org/TR/2001/REC-SVG-20010904/DTD/svg10.dtd">
<svg xmlns="http://www.w3.org/2000/svg" xmlns:xlink="http://www.w3.org/1999/xlink" fill-rule="evenodd" height="0.516in" preserveAspectRatio="none" stroke-linecap="round" viewBox="0 0 1978 516" width="1.978in">
<style type="text/css">
.brush0 { fill: rgb(255,255,255); }
.pen0 { stroke: rgb(0,0,0); stroke-width: 1; stroke-linejoin: round; }
.brush1 { fill: none; }
.pen1 { stroke: none; }
.brush2 { fill: rgb(0,0,0); }
</style>
<g>
<polygon class="pen1 brush2" points="1734,368 1751,378 1770,382 1788,383 1807,379 1824,372 1838,363 1851,351 1859,337 1928,355 1927,348 1859,331 1861,325 1862,319 1862,314 1862,307 1930,321 1930,314 1862,301 1860,290 1857,282 1853,275 1848,270 1842,265 1837,261 1832,258 1828,254 1978,253 1978,247 1828,247 1838,243 1847,240 1853,235 1857,230 1860,224 1862,217 1863,208 1863,196 1930,182 1930,176 1863,189 1863,182 1862,177 1860,172 1856,166 1930,149 1928,142 1853,162 1844,152 1832,144 1819,138 1805,134 1790,133 1774,135 1759,141 1744,149 1749,165 1750,182 1747,199 1742,215 1735,230 1726,242 1716,250 1707,254 1722,263 1734,275 1741,290 1745,306 1746,322 1744,339 1740,354 1734,368 1734,368"/>
<polygon class="pen1 brush2" points="1589,396 1596,383 1601,367 1602,347 1600,327 1596,306 1588,286 1576,268 1562,253 1576,243 1589,230 1598,213 1605,194 1608,175 1607,155 1603,137 1593,122 1617,110 1641,105 1665,105 1688,110 1708,120 1723,133 1733,150 1737,170 1735,195 1729,214 1721,229 1712,239 1703,246 1695,250 1689,252 1687,253 1703,260 1716,270 1726,284 1732,299 1734,316 1734,333 1730,350 1724,367 1715,383 1704,396 1690,407 1674,414 1655,417 1635,416 1613,409 1589,396 1589,396"/>
<polygon class="pen1 brush2" points="1446,416 1470,425 1494,429 1518,428 1540,423 1559,413 1575,399 1585,382 1590,362 1590,334 1586,310 1579,291 1571,277 1563,266 1555,258 1550,254 1548,253 1549,252 1554,249 1562,243 1571,233 1580,221 1589,205 1595,186 1598,163 1594,142 1585,125 1569,110 1550,99 1528,92 1504,90 1479,93 1454,101 1465,120 1471,140 1472,161 1469,183 1461,203 1451,222 1437,239 1420,253 1438,268 1452,288 1461,311 1466,335 1466,359 1463,382 1456,401 1446,416 1446,416"/>
<polygon class="pen1 brush2" points="1288,426 1302,413 1312,393 1317,369 1318,342 1313,315 1304,290 1289,269 1269,254 1290,236 1305,216 1316,195 1322,174 1322,152 1316,130 1305,110 1288,91 1302,84 1317,78 1331,74 1346,72 1361,72 1375,73 1389,76 1402,79 1415,85 1426,91 1436,99 1444,108 1451,117 1457,128 1460,140 1461,152 1458,174 1452,194 1442,211 1431,226 1420,237 1411,246 1405,251 1404,253 1406,254 1413,258 1422,266 1432,277 1441,292 1449,312 1454,337 1454,368 1452,380 1449,391 1443,402 1436,411 1428,419 1418,426 1408,432 1396,437 1384,441 1371,443 1357,444 1343,443 1329,441 1315,438 1302,433 1288,426 1288,426"/>
<polygon class="pen1 brush2" points="1140,426 1153,433 1167,438 1181,441 1195,443 1209,444 1223,443 1236,440 1248,437 1260,432 1271,426 1281,419 1289,410 1297,401 1302,391 1306,380 1308,368 1307,337 1302,312 1293,292 1283,277 1273,266 1264,259 1257,255 1255,254 1256,252 1262,248 1271,240 1282,229 1293,215 1303,199 1309,180 1312,159 1311,146 1308,134 1302,123 1295,113 1287,104 1277,96 1266,89 1253,83 1240,79 1226,76 1212,75 1197,75 1182,77 1168,81 1153,86 1139,94 1157,111 1168,131 1173,152 1171,175 1165,197 1153,219 1138,237 1119,253 1135,266 1149,286 1159,310 1166,336 1168,363 1164,388 1155,410 1140,426 1140,426"/>
<polygon class="pen1 brush2" points="988,429 1006,415 1019,395 1026,370 1028,343 1024,316 1015,291 1000,269 981,253 999,234 1014,213 1025,191 1031,169 1032,146 1027,125 1016,107 998,91 1012,85 1025,81 1039,78 1053,76 1067,77 1080,78 1093,81 1106,85 1117,91 1127,98 1137,105 1145,114 1151,124 1156,134 1159,146 1160,158 1157,179 1151,198 1141,214 1130,228 1120,238 1111,246 1106,251 1105,253 1107,255 1113,259 1122,268 1132,280 1141,296 1148,318 1153,344 1153,375 1151,387 1148,398 1142,408 1136,416 1127,424 1118,431 1107,437 1096,441 1083,445 1070,447 1057,447 1043,447 1029,444 1015,441 1002,436 988,429 988,429"/>
<polygon class="pen1 brush2" points="848,425 861,432 875,437 889,441 902,443 916,443 930,442 943,440 955,436 967,431 977,425 987,417 996,409 1003,400 1008,389 1012,378 1014,366 1015,336 1011,312 1003,293 993,277 983,266 974,259 967,255 965,254 966,252 972,246 980,238 991,225 1001,211 1010,193 1017,174 1019,152 1018,140 1015,128 1010,117 1003,107 994,98 985,91 974,84 962,79 949,75 935,72 921,71 907,72 892,74 878,78 863,84 849,92 867,108 878,128 882,150 881,172 874,195 863,216 847,236 828,253 846,265 861,284 870,307 876,334 876,361 872,387 862,409 848,425 848,425"/>
<polygon class="pen1 brush2" points="680,415 694,403 703,385 708,362 708,336 704,310 696,286 684,266 667,253 687,237 703,218 713,197 718,175 718,153 712,133 701,116 684,102 698,92 713,83 729,78 744,74 760,72 775,72 790,74 805,77 818,83 831,89 842,97 851,107 859,117 865,129 869,142 870,155 868,176 861,195 852,212 842,226 832,238 824,246 819,252 818,254 820,255 827,259 836,267 845,278 854,294 861,315 865,341 863,372 860,385 856,397 849,408 841,417 831,426 820,433 808,439 795,443 781,446 767,447 752,446 737,444 723,440 708,434 694,425 680,415 680,415"/>
<polygon class="pen1 brush2" points="532,409 544,417 557,424 570,428 584,431 597,433 610,433 623,432 636,429 647,425 658,420 668,413 677,406 684,397 690,387 694,377 696,365 695,336 691,312 684,292 676,277 668,266 660,259 655,254 653,253 654,252 659,249 667,243 676,234 686,222 695,206 701,186 705,161 704,149 701,137 695,127 688,117 680,109 670,101 659,95 647,90 634,87 621,85 607,84 593,85 579,88 565,93 551,99 538,108 558,123 569,143 574,165 573,187 567,209 557,228 543,244 528,253 544,267 556,286 565,309 569,334 568,359 562,381 550,398 532,409 532,409"/>
<polygon class="pen1 brush2" points="399,389 419,377 432,361 440,343 442,323 439,303 432,283 421,266 406,253 421,245 433,231 441,213 445,194 444,174 437,155 423,139 403,128 427,110 454,100 480,98 505,101 528,111 546,126 558,145 562,168 559,191 553,210 545,225 536,236 527,244 519,249 515,252 514,253 515,254 520,257 528,264 536,273 545,286 552,304 556,325 556,352 550,374 538,393 520,407 498,415 473,419 447,416 422,406 399,389 399,389"/>
<polygon class="pen1 brush2" points="292,359 311,375 332,384 354,389 375,387 394,382 411,371 423,356 430,338 432,319 430,302 424,287 417,275 408,266 401,259 395,254 393,253 395,252 400,250 408,245 416,238 424,228 431,215 434,200 434,180 429,162 417,147 400,136 380,128 358,126 334,130 312,140 291,158 306,168 315,181 320,196 320,212 317,226 311,239 302,249 292,254 299,257 307,266 313,279 318,296 320,313 317,331 308,346 292,359 292,359"/>
<polygon class="pen1 brush2" points="173,276 172,264 174,254 176,244 180,233 0,214 0,207 180,227 182,222 183,219 184,215 186,212 127,158 130,151 188,206 192,199 195,194 198,190 201,186 146,128 150,122 207,182 223,170 240,162 257,159 273,160 288,165 300,173 308,185 311,199 310,217 306,231 300,240 293,247 287,250 281,252 277,253 275,253 281,256 288,259 293,263 299,269 303,276 307,286 310,298 311,314 308,330 299,343 285,353 269,360 250,362 231,360 212,352 196,338 150,385 147,378 193,332 189,327 186,323 183,318 180,311 130,358 129,351 178,304 177,299 176,295 175,290 173,283 0,301 0,294 173,276 173,276"/>
<polygon class="pen1 brush2" points="264,409 261,406 259,402 257,397 257,393 258,385 263,378 269,374 277,372 285,374 292,379 296,386 298,395 296,402 292,409 285,414 277,415 275,415 274,415 272,414 271,413 231,443 224,439 264,409 264,409"/>
<polygon class="pen1 brush2" points="366,437 328,466 333,470 373,442 375,443 376,443 378,443 380,443 387,441 394,437 398,430 400,422 398,414 394,407 387,403 380,401 372,402 365,406 361,412 359,420 360,425 361,430 363,434 366,437 366,437"/>
<polygon class="pen1 brush2" points="511,463 508,460 506,456 505,451 504,446 505,438 510,432 516,428 524,426 532,428 539,432 543,439 545,447 543,455 539,462 532,467 524,469 522,469 520,468 519,467 518,466 478,497 473,493 511,463 511,463"/>
<polygon class="pen1 brush2" points="663,470 623,500 630,503 670,473 671,474 672,475 674,476 676,476 684,474 690,470 694,463 696,455 694,446 690,439 684,434 676,432 667,434 660,438 656,445 654,453 655,458 656,462 659,466 663,470 663,470"/>
<polygon class="pen1 brush2" points="823,480 820,477 818,473 816,468 815,463 817,454 821,448 828,443 836,442 844,444 851,449 855,455 856,463 855,472 851,478 844,483 836,484 835,484 833,483 832,483 830,483 791,514 785,509 823,480 823,480"/>
<polygon class="pen1 brush2" points="944,516 982,486 984,486 985,486 987,487 988,487 997,485 1003,481 1008,474 1009,466 1008,457 1003,450 997,446 988,443 981,445 975,449 971,456 970,464 971,469 972,474 975,478 978,482 937,510 944,516 944,516"/>
<polygon class="pen1 brush2" points="1109,479 1107,475 1105,471 1104,467 1103,462 1105,454 1109,447 1115,443 1123,442 1131,444 1137,448 1141,455 1143,463 1141,471 1137,477 1131,482 1123,483 1121,483 1120,483 1118,483 1116,483 1076,513 1071,509 1109,479 1109,479"/>
<polygon class="pen1 brush2" points="1224,510 1265,480 1266,480 1268,481 1269,482 1271,482 1279,480 1286,476 1290,469 1292,460 1290,452 1286,445 1279,441 1271,439 1263,440 1256,444 1252,451 1250,459 1250,464 1252,469 1254,473 1258,476 1218,507 1224,510 1224,510"/>
<polygon class="pen1 brush2" points="1433,470 1429,466 1426,462 1425,458 1424,453 1426,445 1431,438 1438,434 1446,432 1453,433 1459,438 1462,444 1463,453 1462,461 1459,469 1453,474 1446,476 1444,476 1443,475 1441,474 1440,473 1400,503 1393,500 1433,470 1433,470"/>
<polygon class="pen1 brush2" points="1578,447 1538,476 1545,480 1583,452 1585,452 1587,452 1589,453 1590,453 1599,451 1606,447 1610,440 1612,432 1610,423 1606,417 1599,412 1590,411 1582,412 1576,416 1572,422 1571,430 1571,435 1573,440 1575,444 1578,447 1578,447"/>
<polygon class="pen1 brush2" points="1738,388 1746,390 1753,395 1757,401 1759,409 1757,418 1753,424 1746,429 1738,430 1737,430 1735,429 1733,429 1731,429 1693,459 1687,455 1725,426 1722,423 1720,419 1718,414 1717,409 1719,400 1724,394 1731,389 1738,388 1738,388"/>
<polygon class="pen1 brush2" points="264,105 224,77 231,71 271,101 272,101 274,101 275,101 277,101 285,102 292,106 296,113 298,121 296,129 292,136 285,140 277,142 269,141 263,137 258,130 257,122 257,117 259,112 261,108 264,105 264,105"/>
<polygon class="pen1 brush2" points="366,78 363,81 361,85 360,90 359,95 361,103 365,109 372,114 380,115 387,113 394,109 398,102 400,94 398,85 394,78 387,74 380,72 378,72 376,73 375,74 373,74 333,44 328,48 366,78 366,78"/>
<polygon class="pen1 brush2" points="511,53 473,23 478,18 518,48 519,47 520,47 522,47 524,47 532,48 539,53 543,59 545,68 543,76 539,83 532,87 524,89 516,88 510,83 505,77 504,68 505,64 506,60 508,56 511,53 511,53"/>
<polygon class="pen1 brush2" points="663,44 659,48 656,52 655,57 654,61 656,70 660,76 667,81 676,82 684,80 690,76 694,69 696,61 694,53 690,46 684,42 676,41 674,41 672,41 671,41 670,41 630,11 623,16 663,44 663,44"/>
<polygon class="pen1 brush2" points="823,36 785,7 791,1 830,31 832,31 833,30 835,30 836,30 844,32 851,36 855,43 856,51 855,60 851,67 844,71 836,74 828,72 821,68 817,61 815,53 816,48 818,43 820,39 823,36 823,36"/>
<polygon class="pen1 brush2" points="944,0 937,4 978,34 975,37 972,41 971,46 970,51 971,59 975,65 981,69 988,71 997,69 1003,65 1008,58 1009,50 1008,41 1003,34 997,30 988,28 987,28 985,29 984,30 982,30 944,0 944,0"/>
<polygon class="pen1 brush2" points="1109,37 1071,7 1076,3 1116,33 1118,32 1120,31 1121,31 1123,31 1131,32 1137,37 1141,44 1143,51 1141,60 1137,67 1131,72 1123,74 1115,72 1109,68 1105,62 1103,54 1104,49 1105,44 1107,40 1109,37 1109,37"/>
<polygon class="pen1 brush2" points="1224,4 1218,10 1258,38 1254,42 1252,46 1250,50 1250,55 1252,64 1256,71 1263,75 1271,77 1279,74 1286,70 1290,63 1292,54 1290,46 1286,40 1279,36 1271,34 1269,34 1268,34 1266,34 1265,34 1224,4 1224,4"/>
<polygon class="pen1 brush2" points="1433,45 1393,16 1400,11 1440,41 1441,41 1443,41 1444,41 1446,41 1453,42 1459,47 1462,54 1463,62 1462,70 1459,76 1453,81 1446,82 1438,81 1431,76 1426,70 1424,61 1425,57 1426,53 1429,49 1433,45 1433,45"/>
<polygon class="pen1 brush2" points="1578,68 1575,71 1573,75 1571,80 1571,84 1572,93 1576,99 1582,104 1590,105 1599,103 1606,99 1610,92 1612,84 1610,75 1606,68 1599,64 1590,62 1589,62 1587,63 1585,64 1583,64 1545,34 1538,38 1578,68 1578,68"/>
<polygon class="pen1 brush2" points="1738,128 1731,126 1724,122 1719,115 1717,107 1718,103 1720,98 1722,94 1725,91 1687,61 1693,57 1731,87 1733,86 1735,85 1737,84 1738,84 1746,86 1753,90 1757,97 1759,105 1757,114 1753,121 1746,125 1738,128"/>
</g>
</svg>
