<?xml version="1.0" encoding="UTF-8" standalone="no"?>
<!DOCTYPE svg PUBLIC "-//W3C//DTD SVG 1.0//EN" "http://www.w3.org/TR/2001/REC-SVG-20010904/DTD/svg10.dtd">
<svg xmlns="http://www.w3.org/2000/svg" xmlns:xlink="http://www.w3.org/1999/xlink" fill-rule="evenodd" height="1.985in" preserveAspectRatio="none" stroke-linecap="round" viewBox="0 0 1656 1985" width="1.656in">
<style type="text/css">
.brush0 { fill: rgb(255,255,255); }
.pen0 { stroke: rgb(0,0,0); stroke-width: 1; stroke-linejoin: round; }
.brush1 { fill: none; }
.pen1 { stroke: none; }
.brush2 { fill: rgb(0,0,0); }
</style>
<g>
<polygon class="pen1 brush2" points="841,784 852,794 861,802 869,808 875,812 879,815 882,817 884,818 885,818 860,818 834,820 807,823 780,827 752,833 725,839 698,845 673,852 649,859 627,865 607,872 590,877 576,882 566,886 559,888 557,889 526,878 495,868 466,860 438,853 411,847 385,843 361,839 339,836 319,834 301,832 285,832 272,831 261,831 253,831 249,831 247,831 231,815 215,797 199,778 184,759 171,741 161,727 154,718 152,714 156,751 158,782 159,802 159,810 143,800 128,790 114,780 101,771 90,763 81,757 76,752 74,751 81,775 87,796 93,814 97,828 100,838 103,846 104,851 105,852 80,842 58,836 40,832 26,830 14,829 6,830 2,831 0,831 11,843 22,856 33,868 44,880 54,890 61,898 66,903 68,905 49,913 34,919 23,925 15,930 10,934 8,937 6,939 6,940 21,946 37,950 52,954 68,956 84,958 100,960 115,960 130,960 143,960 156,960 167,959 176,958 184,957 190,957 194,956 195,956 220,972 247,989 274,1005 302,1020 330,1035 359,1050 388,1064 418,1077 448,1089 478,1100 508,1110 539,1118 569,1125 599,1131 629,1135 658,1138 678,1161 697,1185 717,1210 735,1233 750,1253 762,1269 770,1280 773,1284 821,1242 868,1210 913,1185 956,1168 997,1156 1035,1151 1071,1150 1104,1152 1134,1158 1161,1166 1184,1174 1204,1183 1219,1192 1231,1199 1238,1204 1240,1206 1145,1193 1061,1197 987,1217 924,1249 870,1293 825,1344 787,1402 757,1463 732,1526 714,1588 700,1646 691,1699 684,1745 681,1780 679,1803 679,1811 658,1800 637,1788 617,1776 598,1764 581,1753 568,1745 560,1739 557,1737 565,1764 571,1793 576,1817 578,1826 564,1820 549,1812 535,1802 522,1791 511,1781 502,1772 496,1766 494,1764 498,1783 503,1801 509,1818 514,1833 519,1845 522,1855 525,1861 526,1863 509,1859 492,1856 477,1852 463,1849 452,1847 443,1845 438,1843 436,1843 457,1866 481,1886 506,1904 533,1920 561,1934 589,1945 617,1955 644,1963 670,1969 694,1974 716,1978 735,1981 751,1983 763,1984 770,1985 773,1985 795,1974 818,1959 842,1939 867,1917 891,1892 915,1866 938,1838 960,1810 981,1783 1000,1757 1017,1733 1032,1712 1044,1694 1053,1681 1059,1672 1061,1669 1078,1675 1096,1681 1114,1686 1134,1690 1153,1694 1174,1698 1195,1700 1216,1702 1237,1703 1259,1704 1281,1703 1302,1702 1324,1699 1346,1696 1367,1691 1388,1686 1404,1681 1421,1676 1436,1669 1452,1662 1467,1654 1482,1646 1497,1636 1511,1626 1524,1615 1537,1603 1550,1591 1562,1577 1573,1563 1584,1547 1594,1531 1604,1514 1617,1485 1628,1453 1636,1419 1643,1382 1647,1343 1648,1301 1648,1257 1645,1210 1637,1153 1624,1097 1607,1043 1586,990 1561,939 1532,891 1499,844 1463,800 1423,759 1381,721 1335,686 1287,654 1237,625 1184,600 1130,579 1073,562 1081,551 1090,534 1098,513 1104,489 1109,463 1112,437 1112,412 1108,389 1110,389 1117,388 1128,385 1141,380 1156,372 1173,360 1191,345 1209,324 1209,322 1206,317 1200,310 1188,302 1190,300 1194,296 1202,288 1212,279 1224,267 1237,253 1252,239 1267,223 1268,222 1269,220 1271,216 1272,212 1271,208 1267,203 1259,199 1246,196 1248,194 1253,189 1260,181 1269,169 1279,155 1289,137 1299,115 1308,91 1294,80 1280,72 1264,65 1248,61 1230,58 1212,57 1194,58 1176,60 1157,63 1139,67 1121,72 1103,78 1085,84 1068,91 1052,98 1037,105 1030,94 1023,83 1014,74 1003,66 992,58 980,52 968,47 955,42 941,39 927,36 913,34 899,33 885,33 871,34 858,35 845,37 854,18 857,7 857,1 857,0 835,1 815,2 796,5 778,8 762,12 748,16 734,21 723,26 712,31 703,36 696,40 690,44 685,47 682,50 680,51 679,52 685,34 694,20 702,10 705,6 686,8 668,11 650,14 634,19 618,24 602,30 587,36 573,43 558,51 544,59 530,68 517,78 503,87 489,98 474,108 460,119 445,112 430,104 414,97 397,91 380,85 362,80 344,76 326,73 308,71 290,70 273,71 256,74 239,79 224,85 209,94 195,105 204,129 214,150 224,168 235,183 244,195 252,203 257,208 259,210 246,213 237,217 233,221 231,226 232,230 234,234 235,236 236,237 252,252 267,266 281,280 293,291 303,301 311,309 315,313 317,315 304,323 297,330 294,335 294,337 313,358 333,375 352,387 371,397 387,403 399,407 408,409 411,410 410,422 412,442 418,467 426,496 439,529 454,565 474,601 497,637 524,672 556,705 592,734 632,758 677,776 727,787 781,790 841,784"/>
<polygon class="pen1 brush0" points="426,179 421,205 414,228 408,252 405,278 402,277 394,274 382,270 368,265 352,259 337,252 323,245 311,237 312,236 314,234 317,230 322,225 328,220 335,214 343,209 352,204 351,203 348,199 343,192 336,184 328,174 320,162 310,150 300,136 306,137 321,138 341,141 365,146 389,152 409,159 422,168 426,179"/>
<polygon class="pen1 brush0" points="1067,173 1072,186 1077,199 1084,211 1090,223 1096,235 1101,247 1106,260 1108,273 1111,272 1118,268 1130,262 1143,255 1158,247 1172,238 1185,228 1196,219 1195,218 1193,216 1189,213 1183,209 1177,204 1169,200 1159,196 1149,193 1150,191 1153,187 1157,180 1163,171 1170,160 1177,147 1184,134 1192,119 1186,120 1171,123 1150,128 1126,135 1102,143 1082,152 1070,162 1067,173"/>
<polygon class="pen1 brush0" points="625,378 634,377 642,375 649,370 656,365 661,359 665,351 667,343 668,335 667,326 665,318 661,311 656,305 649,300 642,296 634,294 625,293 617,294 609,296 602,300 596,305 591,311 587,318 585,326 584,335 585,343 587,351 591,359 596,365 602,370 609,375 617,377 625,378 625,378"/>
<polygon class="pen1 brush0" points="912,379 921,378 929,376 936,372 943,367 948,361 952,354 954,346 955,338 954,329 952,321 948,314 943,307 936,302 929,297 921,295 912,294 903,295 895,297 888,302 882,307 876,314 872,321 870,329 869,338 870,346 872,354 876,361 882,367 888,372 895,376 903,378 912,379"/>
<polygon class="pen1 brush0" points="830,436 829,426 825,416 820,408 813,400 804,394 793,389 782,386 769,385 756,386 744,389 734,394 724,400 717,408 711,417 707,426 706,436 708,488 711,534 717,572 724,603 732,628 742,645 752,656 763,659 774,656 785,645 796,628 806,603 814,572 821,534 827,488 830,436"/>
</g>
</svg>
