<?xml version="1.0" encoding="UTF-8" standalone="no"?>
<!DOCTYPE svg PUBLIC "-//W3C//DTD SVG 1.0//EN" "http://www.w3.org/TR/2001/REC-SVG-20010904/DTD/svg10.dtd">
<svg xmlns="http://www.w3.org/2000/svg" xmlns:xlink="http://www.w3.org/1999/xlink" fill-rule="evenodd" height="1.984in" preserveAspectRatio="none" stroke-linecap="round" viewBox="0 0 1769 1984" width="1.769in">
<style type="text/css">
.brush0 { fill: rgb(255,255,255); }
.pen0 { stroke: rgb(0,0,0); stroke-width: 1; stroke-linejoin: round; }
.brush1 { fill: none; }
.pen1 { stroke: none; }
.brush2 { fill: rgb(0,0,0); }
</style>
<g>
<polygon class="pen1 brush2" points="148,32 151,31 159,28 170,25 184,21 202,16 223,12 247,8 274,5 281,28 287,60 288,95 280,127 281,126 285,122 291,115 297,103 304,87 310,65 315,37 317,1 328,1 339,1 350,1 361,1 372,1 383,2 394,2 406,3 417,4 429,6 440,7 452,9 464,11 475,13 487,16 499,19 498,30 497,44 494,59 491,74 487,90 481,106 473,120 463,132 465,131 469,129 477,124 486,116 497,104 510,86 523,62 537,32 550,37 564,43 577,50 590,57 603,64 616,73 628,82 640,91 652,102 663,113 674,124 685,137 695,150 705,164 714,178 723,194 717,204 709,214 700,226 689,238 677,249 664,259 650,267 635,272 637,272 641,273 650,273 661,271 676,267 694,260 716,248 742,231 752,253 761,276 770,299 779,322 787,346 796,371 803,396 811,421 804,429 795,439 784,449 771,460 757,469 741,477 725,483 709,485 710,486 715,487 723,489 735,489 751,488 771,484 795,476 824,463 830,487 837,511 843,536 849,560 855,585 861,610 867,635 872,660 864,667 853,675 840,683 826,691 810,697 794,702 777,705 761,704 762,705 767,707 775,710 787,712 803,714 824,712 850,708 882,700 888,728 894,755 900,783 906,809 912,836 918,862 924,888 931,913 922,919 912,927 898,935 884,944 868,951 852,957 835,960 818,960 819,961 824,963 832,965 845,967 861,968 883,967 910,962 942,954 948,977 954,999 960,1021 967,1043 974,1064 981,1084 989,1104 996,1123 991,1131 983,1140 972,1152 960,1164 946,1175 931,1186 915,1193 898,1198 900,1199 905,1200 913,1200 925,1200 941,1196 961,1190 985,1179 1014,1163 1023,1179 1033,1196 1043,1212 1054,1228 1065,1243 1077,1259 1089,1274 1101,1288 1098,1298 1093,1310 1086,1324 1078,1339 1069,1354 1057,1369 1045,1381 1030,1390 1032,1390 1037,1389 1045,1387 1056,1383 1070,1375 1087,1363 1106,1346 1128,1322 1143,1337 1158,1351 1173,1365 1188,1379 1203,1391 1218,1404 1234,1416 1250,1427 1252,1448 1253,1482 1247,1519 1232,1552 1233,1551 1237,1548 1243,1543 1251,1534 1260,1521 1270,1503 1280,1480 1290,1450 1301,1457 1313,1463 1324,1470 1336,1476 1348,1482 1360,1488 1373,1494 1385,1500 1398,1506 1411,1511 1424,1517 1438,1522 1451,1528 1465,1533 1480,1539 1494,1544 1496,1567 1496,1599 1490,1635 1475,1666 1477,1665 1481,1662 1487,1657 1496,1648 1505,1634 1516,1615 1526,1591 1536,1559 1559,1567 1581,1576 1602,1586 1622,1597 1642,1610 1661,1624 1678,1641 1695,1659 1691,1670 1686,1682 1680,1695 1672,1709 1663,1723 1653,1736 1642,1747 1629,1756 1631,1756 1635,1755 1643,1753 1653,1749 1666,1741 1681,1730 1699,1714 1719,1692 1735,1723 1746,1754 1752,1782 1755,1808 1756,1830 1756,1846 1755,1857 1754,1861 1751,1862 1744,1865 1732,1868 1715,1868 1693,1865 1668,1857 1638,1841 1604,1817 1600,1818 1589,1819 1573,1820 1553,1820 1530,1818 1507,1813 1484,1804 1463,1790 1461,1791 1454,1793 1444,1796 1430,1799 1414,1802 1395,1804 1374,1804 1352,1803 1329,1799 1306,1793 1283,1782 1260,1768 1238,1749 1217,1725 1199,1696 1183,1660 1180,1661 1171,1662 1157,1665 1139,1666 1117,1668 1093,1668 1068,1666 1042,1661 1016,1653 991,1642 968,1626 947,1606 930,1580 918,1548 910,1510 909,1464 907,1463 900,1461 891,1457 878,1451 864,1444 848,1434 830,1423 813,1409 796,1393 781,1374 766,1353 755,1330 746,1303 740,1274 739,1242 743,1207 737,1203 723,1190 704,1170 684,1141 667,1105 657,1062 659,1012 675,955 671,951 660,940 646,923 631,898 619,867 613,830 615,786 629,737 624,734 612,723 595,706 577,683 561,652 549,616 545,573 551,524 548,522 540,515 528,504 516,486 503,464 492,435 485,399 484,356 481,356 473,355 461,352 446,345 432,335 418,320 406,299 399,271 395,272 383,273 366,274 346,273 324,267 303,257 285,240 271,215 267,216 257,219 242,222 223,224 202,222 181,214 160,200 142,177 151,164 158,149 164,135 168,122 170,99 168,75 161,52 148,32 148,32"/>
<polygon class="pen1 brush2" points="94,15 79,15 66,17 54,21 43,28 34,37 26,49 19,63 13,80 9,99 7,120 8,141 11,162 16,182 24,198 36,210 50,217 66,218 81,212 97,202 111,188 124,172 135,155 143,138 148,122 149,106 149,89 146,72 140,56 132,41 122,29 109,20 94,15 94,15"/>
<polygon class="pen1 brush2" points="405,421 399,420 393,417 388,414 383,410 379,405 376,400 373,395 371,389 364,394 360,402 359,411 361,420 365,427 370,431 376,434 382,435 389,434 395,432 401,427 405,421 405,421"/>
<polygon class="pen1 brush2" points="317,353 311,353 305,353 299,351 294,348 290,345 286,341 282,337 279,332 274,339 272,347 272,355 276,363 281,368 286,371 293,372 299,371 305,369 310,365 315,360 317,353 317,353"/>
<polygon class="pen1 brush2" points="202,295 197,296 192,296 187,295 182,293 178,291 173,289 169,286 165,282 163,289 163,296 165,303 169,309 174,313 180,314 185,314 190,313 195,310 199,306 201,301 202,295 202,295"/>
<polygon class="pen1 brush2" points="386,312 383,319 379,328 375,340 373,353 372,367 374,381 381,393 392,404 406,410 420,411 432,407 442,400 451,392 457,384 462,378 463,376 446,371 431,363 418,353 407,341 398,330 391,321 387,314 386,312 386,312"/>
<polygon class="pen1 brush2" points="277,259 275,266 274,275 273,287 274,299 277,312 282,324 291,334 304,342 318,344 330,341 340,334 348,325 354,316 358,307 360,300 361,298 345,297 329,294 315,287 303,280 292,272 284,266 279,261 277,259 277,259"/>
<polygon class="pen1 brush2" points="155,218 155,224 156,233 157,243 160,254 164,264 171,273 180,281 192,285 204,285 214,281 222,273 227,264 230,255 233,246 234,240 234,238 220,241 206,240 192,237 180,232 170,227 162,223 157,219 155,218 155,218"/>
<polygon class="pen1 brush2" points="796,1521 788,1520 781,1517 774,1514 767,1509 762,1504 757,1498 752,1492 749,1485 741,1493 737,1503 736,1514 740,1525 746,1532 753,1537 761,1540 770,1541 778,1539 785,1535 792,1529 796,1521 796,1521"/>
<polygon class="pen1 brush2" points="611,1228 600,1218 592,1204 588,1189 588,1174 577,1178 569,1185 563,1194 561,1205 562,1214 566,1222 572,1229 579,1233 587,1235 595,1235 603,1233 611,1228 611,1228"/>
<polygon class="pen1 brush2" points="557,971 546,961 539,948 535,934 534,919 524,922 515,928 509,937 507,948 508,957 512,965 518,972 525,976 533,978 541,978 549,976 557,971 557,971"/>
<polygon class="pen1 brush2" points="763,1396 760,1405 756,1417 753,1432 752,1449 753,1466 758,1482 768,1497 784,1509 802,1514 818,1513 832,1506 844,1496 854,1484 861,1474 865,1466 867,1463 845,1460 825,1452 808,1441 793,1429 780,1417 771,1406 765,1399 763,1396 763,1396"/>
<polygon class="pen1 brush2" points="642,1099 635,1105 626,1114 616,1126 607,1140 599,1155 595,1172 596,1190 604,1208 617,1222 632,1229 648,1230 663,1226 677,1221 689,1215 696,1210 699,1208 682,1194 669,1178 659,1160 652,1142 647,1125 644,1112 642,1102 642,1099 642,1099"/>
<polygon class="pen1 brush2" points="588,843 581,849 572,858 562,870 553,884 546,900 543,917 545,935 553,953 566,966 581,972 597,973 612,970 626,965 638,959 645,955 648,953 631,939 617,922 607,904 599,886 594,869 590,856 588,846 588,843 588,843"/>
<polygon class="pen1 brush2" points="1705,1949 1699,1951 1694,1952 1688,1953 1682,1952 1676,1951 1671,1949 1666,1947 1662,1944 1659,1952 1661,1959 1665,1966 1671,1972 1678,1975 1684,1976 1691,1975 1696,1972 1701,1967 1704,1962 1705,1956 1705,1949 1705,1949"/>
<polygon class="pen1 brush2" points="1632,1881 1634,1887 1636,1896 1641,1907 1646,1918 1654,1929 1663,1938 1675,1943 1689,1945 1703,1942 1713,1935 1720,1925 1724,1914 1726,1902 1726,1893 1726,1886 1726,1883 1710,1889 1694,1892 1679,1892 1664,1890 1651,1887 1641,1884 1634,1882 1632,1881"/>
<polygon class="pen1 brush0" points="77,123 87,121 95,116 100,108 102,98 100,88 95,79 87,74 77,72 67,74 59,79 53,88 51,98 53,108 59,116 67,121 77,123"/>
</g>
</svg>
