<?xml version="1.0" encoding="UTF-8" standalone="no"?>
<!DOCTYPE svg PUBLIC "-//W3C//DTD SVG 1.0//EN" "http://www.w3.org/TR/2001/REC-SVG-20010904/DTD/svg10.dtd">
<svg xmlns="http://www.w3.org/2000/svg" xmlns:xlink="http://www.w3.org/1999/xlink" fill-rule="evenodd" height="1.968in" preserveAspectRatio="none" stroke-linecap="round" viewBox="0 0 1211 1968" width="1.211in">
<style type="text/css">
.brush0 { fill: rgb(255,255,255); }
.pen0 { stroke: rgb(0,0,0); stroke-width: 1; stroke-linejoin: round; }
.brush1 { fill: none; }
.pen1 { stroke: none; }
.brush2 { fill: rgb(0,0,0); }
</style>
<g>
<polygon class="pen1 brush2" points="1105,1173 1103,1172 1098,1168 1091,1163 1081,1156 1069,1148 1055,1140 1040,1131 1024,1122 1007,1113 990,1105 973,1099 957,1094 941,1091 927,1091 914,1093 903,1098 887,1113 878,1129 875,1147 879,1165 889,1183 906,1201 928,1218 956,1233 953,1236 946,1245 938,1259 933,1277 933,1298 940,1320 960,1343 993,1365 992,1368 989,1378 986,1393 986,1412 989,1434 999,1459 1017,1486 1045,1514 1043,1518 1038,1530 1031,1548 1025,1571 1020,1599 1020,1631 1025,1665 1038,1701 1033,1703 1019,1711 1000,1723 980,1740 961,1763 947,1791 942,1824 949,1863 942,1864 924,1868 899,1874 871,1884 843,1898 819,1917 803,1940 799,1968 798,1967 794,1966 788,1963 780,1960 770,1956 758,1952 746,1948 732,1945 718,1942 703,1940 689,1939 674,1940 660,1942 646,1946 634,1952 622,1960 617,1954 605,1939 587,1917 565,1895 540,1874 516,1859 493,1854 474,1863 474,1858 474,1846 474,1827 472,1805 468,1779 461,1754 451,1729 437,1708 446,1701 456,1690 468,1677 479,1661 490,1644 499,1624 507,1603 511,1581 513,1584 519,1591 529,1600 542,1608 559,1612 579,1610 603,1598 629,1574 630,1576 635,1583 641,1592 650,1604 660,1618 672,1633 684,1648 697,1663 692,1662 680,1660 663,1658 643,1659 623,1663 606,1673 595,1690 591,1715 593,1741 601,1760 613,1774 629,1783 648,1789 670,1791 694,1791 718,1789 742,1783 764,1771 784,1754 800,1734 813,1710 821,1685 824,1659 822,1633 818,1619 813,1602 806,1583 798,1561 789,1538 779,1515 768,1491 756,1467 743,1444 731,1422 717,1401 704,1383 691,1368 678,1356 665,1348 652,1344 583,1334 521,1321 464,1305 414,1285 369,1263 330,1239 297,1212 269,1183 245,1152 226,1120 212,1086 203,1051 197,1016 195,979 197,943 203,906 212,869 224,833 238,797 256,762 275,727 297,694 321,663 347,633 375,605 403,579 433,555 464,535 495,517 527,502 560,491 592,483 616,471 635,458 652,444 665,429 674,414 680,400 682,386 681,373 677,362 669,353 658,347 644,343 626,342 606,346 582,353 555,365 538,373 522,379 505,385 489,389 472,393 456,396 440,398 424,400 408,401 392,402 376,402 361,402 346,402 331,402 316,402 302,402 288,402 272,402 256,403 239,403 221,404 203,404 185,405 167,405 149,406 132,407 116,407 102,408 88,408 76,409 66,409 58,409 0,314 17,315 38,314 62,313 88,311 115,308 144,303 172,296 200,287 226,277 250,265 272,250 289,232 303,212 312,190 314,164 311,135 313,135 317,136 324,136 332,136 343,135 355,134 368,131 382,127 396,121 411,113 425,103 439,90 452,75 463,56 473,34 481,8 482,9 485,11 490,14 496,18 504,23 513,27 524,31 535,35 548,37 561,39 576,38 590,36 605,31 621,24 636,14 652,0 653,5 656,17 664,34 677,53 696,73 724,92 761,105 808,112 809,117 812,129 818,148 828,170 843,196 864,222 891,246 926,268 924,275 918,294 910,323 904,356 900,393 901,428 909,459 926,483 922,487 911,499 897,518 884,540 875,566 872,594 881,622 903,648 882,674 869,699 863,722 862,744 867,764 876,781 888,795 904,806 923,814 942,817 963,816 984,810 1004,799 1024,783 1041,760 1055,731 1106,780 1142,832 1165,887 1175,944 1173,1002 1160,1060 1137,1117 1105,1173"/>
<polygon class="pen1 brush0" points="389,271 396,270 403,268 409,265 415,261 420,256 423,250 425,243 426,236 425,228 423,221 420,215 415,209 409,205 403,202 396,200 389,199 382,200 375,202 369,205 363,209 358,215 355,221 353,228 352,236 353,243 355,250 358,256 363,261 369,265 375,268 382,270 389,271"/>
<polygon class="pen1 brush0" points="964,851 969,847 982,843 1001,837 1024,831 1047,827 1069,823 1087,822 1099,824 1094,826 1082,832 1065,841 1045,851 1025,861 1006,871 991,880 983,885 979,884 971,880 964,870 964,851"/>
<polygon class="pen1 brush0" points="977,919 983,916 997,913 1017,911 1040,910 1064,910 1086,911 1104,913 1116,916 1111,917 1098,921 1080,927 1058,933 1036,940 1016,947 999,952 990,956 987,955 980,949 975,938 977,919"/>
<polygon class="pen1 brush0" points="988,979 995,978 1009,979 1029,982 1051,987 1074,994 1095,1001 1112,1009 1122,1016 1117,1016 1103,1016 1084,1016 1061,1015 1038,1015 1017,1016 1000,1016 990,1017 987,1015 982,1007 981,995 988,979"/>
<polygon class="pen1 brush0" points="977,1034 984,1035 997,1042 1014,1051 1033,1064 1053,1078 1071,1091 1084,1104 1092,1114 1087,1112 1074,1108 1056,1101 1035,1094 1012,1086 992,1079 976,1074 966,1072 964,1069 961,1060 964,1048 977,1034"/>
</g>
</svg>
