<?xml version="1.0" encoding="UTF-8" standalone="no"?>
<!DOCTYPE svg PUBLIC "-//W3C//DTD SVG 1.0//EN" "http://www.w3.org/TR/2001/REC-SVG-20010904/DTD/svg10.dtd">
<svg xmlns="http://www.w3.org/2000/svg" xmlns:xlink="http://www.w3.org/1999/xlink" fill-rule="evenodd" height="1.683in" preserveAspectRatio="none" stroke-linecap="round" viewBox="0 0 1979 1683" width="1.979in">
<style type="text/css">
.brush0 { fill: rgb(255,255,255); }
.pen0 { stroke: rgb(0,0,0); stroke-width: 1; stroke-linejoin: round; }
.brush1 { fill: none; }
.pen1 { stroke: none; }
.brush2 { fill: rgb(0,0,0); }
</style>
<g>
<polygon class="pen1 brush2" points="1558,1356 1560,1353 1567,1346 1577,1334 1592,1319 1610,1301 1631,1280 1655,1257 1683,1233 1713,1208 1745,1182 1780,1157 1817,1133 1855,1110 1895,1089 1937,1070 1979,1055 1975,1058 1964,1068 1946,1083 1923,1103 1895,1128 1863,1156 1829,1187 1793,1221 1755,1257 1718,1295 1681,1333 1646,1371 1613,1409 1584,1445 1559,1480 1540,1513 1524,1542 1508,1567 1493,1589 1479,1608 1465,1623 1451,1636 1438,1647 1426,1655 1415,1662 1404,1667 1393,1671 1383,1673 1374,1675 1365,1676 1357,1677 1350,1678 1340,1679 1326,1679 1308,1680 1288,1680 1265,1680 1240,1680 1215,1680 1189,1680 1164,1680 1139,1679 1117,1679 1097,1679 1081,1678 1068,1678 1060,1678 1057,1678 1057,1639 1055,1640 1051,1641 1045,1644 1039,1649 1032,1654 1026,1661 1022,1670 1020,1680 966,1680 969,1641 967,1642 963,1644 957,1647 951,1651 944,1657 938,1664 934,1671 932,1680 882,1680 882,1679 882,1676 882,1672 883,1667 884,1660 888,1653 893,1645 900,1637 909,1630 922,1622 937,1615 957,1608 980,1603 1007,1599 1040,1596 1077,1595 1089,1595 1101,1594 1112,1593 1124,1591 1135,1588 1148,1585 1161,1582 1175,1577 1172,1578 1162,1580 1148,1582 1129,1584 1107,1585 1082,1585 1055,1583 1027,1579 999,1571 972,1560 947,1544 924,1523 904,1496 888,1463 877,1423 872,1376 873,1328 880,1288 891,1253 907,1225 925,1201 946,1183 970,1169 994,1159 1019,1152 1044,1148 1068,1146 1091,1146 1112,1148 1130,1151 1144,1153 1155,1156 1152,1154 1145,1150 1133,1145 1117,1138 1098,1132 1077,1126 1053,1122 1028,1120 1002,1122 975,1128 949,1138 923,1155 898,1178 876,1208 855,1246 838,1294 836,1293 831,1292 823,1289 812,1285 800,1281 785,1275 770,1269 753,1262 736,1254 719,1246 702,1237 685,1227 670,1218 656,1207 645,1197 635,1186 637,1195 641,1221 644,1261 643,1312 636,1372 619,1438 591,1507 547,1577 542,1586 539,1599 537,1614 535,1630 531,1645 524,1658 513,1668 497,1673 480,1675 463,1676 449,1676 437,1676 426,1676 419,1676 414,1676 412,1676 412,1632 408,1633 399,1639 389,1652 385,1676 351,1676 351,1629 347,1632 337,1642 327,1656 323,1673 284,1673 285,1668 288,1656 295,1638 307,1618 327,1599 355,1583 393,1573 443,1572 446,1558 453,1520 462,1463 469,1393 472,1315 468,1236 455,1160 429,1093 409,1057 391,1022 374,989 359,958 345,927 334,898 325,868 318,839 314,809 312,779 314,748 318,715 326,681 337,645 352,607 371,566 371,560 368,550 361,537 352,521 340,502 325,482 309,460 290,437 270,415 249,392 227,371 205,351 181,333 158,318 135,306 112,298 94,292 78,284 65,274 55,262 46,249 41,234 37,218 36,200 34,199 30,196 25,192 19,184 12,175 7,162 4,147 4,129 6,115 10,99 17,83 26,65 25,59 25,46 28,29 36,14 39,11 43,8 48,6 53,5 59,4 67,5 75,8 84,11 97,17 112,24 128,32 145,40 162,49 180,57 198,66 217,73 235,80 253,85 270,89 286,91 302,91 316,88 329,82 341,74 352,66 364,60 377,57 389,56 402,57 414,59 427,63 440,68 452,74 464,80 475,87 486,93 496,99 506,104 515,109 523,112 531,115 542,118 554,122 568,126 583,131 598,137 614,144 630,151 646,161 660,172 674,184 686,199 696,215 705,234 710,255 713,278 715,303 718,329 722,355 727,381 731,405 734,429 736,450 735,469 731,485 724,498 713,507 697,512 676,512 648,507 614,495 573,478 533,464 503,451 483,437 472,419 470,393 477,357 491,307 513,240 508,248 497,269 481,300 465,335 451,372 442,406 442,434 453,450 465,456 481,464 501,473 523,484 548,494 575,505 602,514 629,522 655,527 680,530 703,530 723,525 740,516 752,501 759,481 760,454 762,456 766,462 774,471 784,482 796,497 809,514 824,532 840,552 856,573 873,595 889,618 905,640 920,662 934,684 946,704 956,723 959,729 962,735 966,742 970,749 976,757 984,765 993,774 1004,782 1018,790 1034,798 1053,806 1075,813 1100,820 1129,826 1162,831 1199,835 1234,841 1268,855 1302,875 1334,900 1365,930 1394,964 1421,1001 1447,1041 1470,1083 1491,1125 1510,1168 1526,1209 1538,1250 1548,1289 1555,1324 1558,1356"/>
<polygon class="pen1 brush0" points="480,653 494,660 506,667 517,674 528,680 539,685 551,690 565,693 581,696 596,701 608,713 617,731 627,754 637,781 650,810 667,841 690,873 713,908 730,947 739,985 742,1018 738,1045 726,1059 706,1059 679,1041 649,1015 629,1001 617,995 610,997 606,1005 603,1017 599,1030 592,1045 585,1054 576,1060 568,1061 559,1058 550,1050 541,1036 532,1017 523,991 514,966 506,947 499,934 492,925 485,918 478,912 472,906 465,897 456,884 446,865 435,843 427,816 423,786 425,753 434,717 452,680 461,669 470,660 477,655 480,653 480,653"/>
<polygon class="pen1 brush0" points="1031,976 1043,966 1054,953 1064,940 1073,926 1081,913 1091,903 1102,896 1114,893 1122,893 1132,894 1144,895 1158,897 1173,900 1189,905 1207,911 1225,920 1244,931 1263,945 1281,962 1299,982 1317,1006 1333,1033 1348,1065 1362,1101 1366,1116 1368,1133 1366,1149 1361,1163 1351,1171 1336,1173 1314,1164 1286,1143 1270,1130 1255,1117 1240,1106 1227,1096 1213,1086 1200,1078 1187,1071 1175,1064 1162,1058 1150,1053 1137,1049 1125,1045 1112,1042 1099,1040 1085,1039 1071,1038 1047,1034 1032,1027 1024,1017 1022,1005 1023,995 1026,985 1030,978 1031,976 1031,976"/>
<polygon class="pen1 brush0" points="786,754 792,735 799,719 805,705 811,694 818,686 827,681 836,679 848,680 859,684 867,689 873,695 877,701 882,710 887,719 893,731 902,744 911,760 917,776 920,793 919,808 915,820 909,829 900,834 888,832 874,825 858,814 841,801 824,788 809,775 797,764 789,757 786,754"/>
<polygon class="pen1 brush0" points="334,210 340,209 346,208 351,205 356,201 360,197 363,192 364,186 365,180 364,174 363,168 360,163 356,158 351,154 346,151 340,150 334,149 328,150 322,151 317,154 313,158 309,163 306,168 305,174 304,180 305,186 306,192 309,197 313,201 317,205 322,208 328,209 334,210"/>
</g>
</svg>
