<?xml version="1.0" encoding="UTF-8" standalone="no"?>
<!DOCTYPE svg PUBLIC "-//W3C//DTD SVG 1.0//EN" "http://www.w3.org/TR/2001/REC-SVG-20010904/DTD/svg10.dtd">
<svg xmlns="http://www.w3.org/2000/svg" xmlns:xlink="http://www.w3.org/1999/xlink" fill-rule="evenodd" height="1.654in" preserveAspectRatio="none" stroke-linecap="round" viewBox="0 0 1973 1654" width="1.973in">
<style type="text/css">
.brush0 { fill: rgb(255,255,255); }
.pen0 { stroke: rgb(0,0,0); stroke-width: 1; stroke-linejoin: round; }
.brush1 { fill: none; }
.pen1 { stroke: none; }
.brush2 { fill: rgb(0,0,0); }
</style>
<g>
<polygon class="pen1 brush2" points="686,703 730,702 773,703 812,706 850,711 886,717 919,726 950,737 979,751 1006,767 1030,786 1053,808 1073,833 1092,861 1108,893 1123,928 1135,967 1147,1006 1162,1046 1179,1084 1198,1122 1219,1158 1241,1192 1266,1223 1291,1250 1318,1274 1346,1294 1374,1309 1403,1318 1432,1322 1462,1319 1492,1309 1521,1291 1545,1269 1560,1244 1566,1216 1564,1186 1551,1154 1529,1123 1496,1091 1452,1060 1431,1047 1410,1035 1389,1024 1369,1013 1350,1002 1331,990 1313,979 1297,966 1281,953 1267,939 1254,923 1243,905 1233,886 1225,865 1220,841 1216,815 1217,787 1223,761 1234,737 1250,715 1269,695 1292,676 1316,658 1343,642 1370,627 1397,613 1424,599 1450,586 1473,574 1495,562 1513,550 1527,538 1550,515 1570,492 1588,471 1602,450 1610,430 1613,410 1608,390 1595,371 1586,362 1576,354 1565,347 1553,341 1540,336 1526,333 1512,331 1498,330 1483,330 1468,331 1453,333 1438,336 1424,340 1409,346 1395,352 1382,359 1374,364 1364,370 1351,377 1336,386 1318,397 1298,408 1276,420 1253,433 1227,446 1199,460 1170,475 1139,489 1107,504 1074,519 1039,534 1003,548 966,562 929,575 890,588 851,599 811,610 771,620 731,628 690,635 649,641 608,644 567,646 526,647 486,645 446,640 407,634 368,625 369,625 373,623 379,622 388,619 398,616 411,611 425,606 442,601 460,594 479,587 500,579 522,570 546,561 571,550 597,539 623,527 651,515 679,501 707,487 736,472 766,456 795,439 825,421 854,403 884,384 913,364 942,343 970,322 998,299 1025,276 1052,252 1077,227 1101,204 1124,182 1149,162 1173,143 1198,126 1222,110 1247,95 1272,82 1297,70 1322,60 1347,50 1371,42 1396,35 1421,29 1445,24 1469,20 1496,17 1522,15 1547,14 1573,15 1597,16 1621,18 1644,22 1666,26 1687,31 1707,37 1726,44 1744,52 1761,60 1777,69 1791,78 1804,88 1821,103 1838,119 1855,137 1872,156 1888,177 1903,199 1917,222 1930,246 1939,265 1948,284 1955,304 1961,325 1965,346 1968,368 1970,390 1969,412 1966,439 1960,467 1951,495 1939,524 1924,553 1905,582 1882,612 1855,642 1841,655 1825,666 1807,677 1788,687 1768,696 1747,705 1726,714 1706,723 1687,732 1668,741 1652,751 1637,762 1625,773 1616,786 1610,800 1608,815 1609,832 1614,848 1621,862 1629,876 1640,889 1653,900 1667,912 1682,922 1697,932 1713,941 1730,949 1746,957 1762,965 1777,972 1791,979 1804,986 1826,999 1845,1014 1862,1031 1877,1050 1889,1071 1899,1094 1907,1117 1913,1142 1918,1170 1920,1200 1919,1230 1916,1261 1911,1292 1903,1322 1893,1353 1881,1383 1874,1398 1866,1413 1858,1427 1849,1442 1840,1456 1830,1469 1820,1483 1809,1496 1798,1509 1786,1521 1774,1533 1761,1544 1748,1555 1734,1566 1720,1576 1706,1585 1688,1595 1670,1604 1651,1612 1631,1619 1611,1625 1591,1630 1571,1634 1550,1638 1529,1640 1508,1642 1486,1643 1465,1643 1443,1642 1421,1641 1400,1638 1378,1635 1347,1629 1316,1622 1285,1613 1255,1603 1226,1592 1197,1580 1169,1566 1143,1551 1118,1535 1094,1519 1071,1501 1051,1482 1032,1463 1014,1443 999,1422 986,1400 969,1364 957,1327 949,1289 943,1251 940,1213 938,1176 936,1140 934,1105 931,1072 926,1042 917,1014 905,989 888,969 866,952 837,940 801,933 769,932 743,935 721,943 703,954 690,967 680,984 674,1002 670,1021 668,1041 668,1061 669,1081 671,1099 674,1116 676,1131 679,1143 680,1152 681,1165 681,1178 681,1192 679,1207 676,1221 671,1236 664,1249 656,1263 645,1275 632,1286 615,1295 596,1302 574,1308 548,1311 518,1311 484,1308 450,1303 418,1298 389,1292 362,1286 337,1280 314,1273 293,1267 273,1261 255,1255 238,1249 222,1244 206,1239 191,1235 177,1231 163,1229 149,1227 121,1224 95,1219 71,1211 49,1200 30,1187 16,1171 5,1151 0,1129 8,1105 22,1081 39,1059 59,1039 77,1022 94,1009 105,1000 109,997 108,999 109,1007 112,1023 121,1048 123,1047 128,1046 136,1044 146,1041 158,1039 172,1036 187,1034 203,1033 220,1032 236,1033 252,1035 267,1039 281,1045 293,1053 303,1064 311,1078 319,1092 329,1104 340,1114 353,1123 366,1130 381,1135 396,1139 411,1142 425,1144 439,1144 453,1143 465,1142 476,1140 485,1137 492,1133 496,1129 501,1120 504,1111 505,1101 504,1088 500,1074 493,1056 484,1034 473,1008 462,975 456,933 456,886 464,837 468,824 475,812 483,800 493,788 505,777 518,766 532,756 548,746 564,737 581,729 598,722 615,716 633,711 651,707 669,704 686,703"/>
<polygon class="pen1 brush0" points="125,1152 131,1151 137,1150 142,1147 147,1143 151,1139 154,1134 155,1128 156,1122 155,1116 154,1110 151,1105 147,1100 142,1096 137,1093 131,1092 125,1091 119,1092 114,1093 108,1096 104,1100 100,1105 97,1110 96,1116 95,1122 96,1128 97,1134 100,1139 104,1143 108,1147 114,1150 119,1151 125,1152"/>
<polygon class="pen1 brush0" points="726,746 794,743 798,752 808,775 816,812 818,859 757,869 757,866 757,859 756,847 755,832 751,813 746,793 737,770 726,746 726,746"/>
<polygon class="pen1 brush0" points="618,767 682,757 684,759 688,765 693,775 700,789 707,805 713,825 718,847 720,871 661,886 661,883 660,876 658,864 655,849 650,831 642,811 632,790 618,767 618,767"/>
<polygon class="pen1 brush0" points="1803,595 1750,633 1748,632 1742,628 1732,621 1720,612 1707,600 1693,586 1679,568 1666,548 1713,507 1714,509 1718,516 1725,526 1734,538 1746,552 1762,566 1781,581 1803,595 1803,595"/>
<polygon class="pen1 brush0" points="1885,520 1861,508 1841,495 1824,482 1810,469 1799,457 1792,448 1787,442 1786,440 1743,487 1758,506 1773,521 1788,534 1803,545 1815,553 1825,558 1832,561 1834,562 1885,520"/>
</g>
</svg>
