<?xml version="1.0" encoding="UTF-8" standalone="no"?>
<!DOCTYPE svg PUBLIC "-//W3C//DTD SVG 1.0//EN" "http://www.w3.org/TR/2001/REC-SVG-20010904/DTD/svg10.dtd">
<svg xmlns="http://www.w3.org/2000/svg" xmlns:xlink="http://www.w3.org/1999/xlink" fill-rule="evenodd" height="1.987in" preserveAspectRatio="none" stroke-linecap="round" viewBox="0 0 497 1987" width="0.497in">
<style type="text/css">
.brush0 { fill: rgb(255,255,255); }
.pen0 { stroke: rgb(0,0,0); stroke-width: 1; stroke-linejoin: round; }
.brush1 { fill: none; }
.pen1 { stroke: none; }
.brush2 { fill: rgb(0,0,0); }
</style>
<g>
<polygon class="pen1 brush2" points="302,912 304,913 310,914 320,917 332,920 347,924 364,929 381,935 399,941 417,947 435,954 451,962 465,969 477,977 487,985 492,993 494,1001 492,1025 488,1057 483,1096 476,1138 467,1178 457,1213 446,1241 433,1257 494,1351 487,1355 427,1261 422,1265 416,1267 411,1268 407,1267 403,1264 401,1259 401,1251 403,1240 409,1220 419,1191 430,1156 442,1119 453,1084 460,1052 464,1028 461,1014 451,1006 433,996 410,985 384,975 358,965 334,955 316,948 305,943 305,944 305,943 304,934 302,912 302,912"/>
<polygon class="pen1 brush2" points="193,910 191,911 185,912 175,915 163,918 148,922 132,927 115,932 97,938 79,945 61,952 45,960 31,967 18,975 9,983 3,992 1,1000 3,1021 8,1053 15,1093 24,1135 33,1177 43,1213 53,1241 62,1256 3,1348 8,1352 68,1260 74,1264 79,1266 85,1267 89,1266 92,1263 94,1257 94,1250 92,1239 86,1219 76,1190 65,1156 54,1119 44,1083 36,1052 33,1028 35,1014 45,1005 63,995 86,985 112,973 137,963 161,954 180,947 191,942 191,943 191,942 191,933 193,910 193,910"/>
<polygon class="pen1 brush2" points="190,1275 200,1290 203,1302 201,1309 200,1311 197,1317 188,1332 176,1355 161,1382 145,1412 130,1441 117,1467 108,1487 104,1508 106,1535 112,1568 121,1603 131,1640 142,1675 152,1707 160,1735 165,1757 164,1769 160,1774 153,1772 89,1872 82,1867 146,1769 142,1765 140,1760 138,1755 136,1750 132,1734 124,1704 113,1664 101,1618 88,1572 78,1531 71,1498 68,1479 73,1462 87,1435 107,1402 129,1366 151,1332 171,1303 185,1283 190,1275 190,1275"/>
<polygon class="pen1 brush2" points="305,1275 295,1290 292,1302 294,1309 295,1311 298,1317 307,1332 319,1355 334,1382 350,1412 365,1441 377,1467 386,1487 390,1508 388,1535 383,1568 374,1603 364,1640 353,1675 343,1707 335,1735 330,1757 331,1769 335,1774 342,1772 406,1872 413,1869 348,1769 352,1765 355,1761 357,1755 359,1750 363,1734 371,1704 382,1664 394,1618 406,1572 416,1531 423,1498 426,1479 421,1462 407,1435 388,1402 366,1366 343,1332 324,1303 310,1283 305,1275 305,1275"/>
<polygon class="pen1 brush2" points="218,966 218,992 218,1023 216,1055 214,1082 211,1096 206,1112 201,1129 196,1149 193,1171 192,1195 194,1223 200,1254 298,1254 304,1223 305,1195 304,1171 301,1149 296,1130 291,1113 287,1098 284,1084 281,1057 279,1024 279,992 280,967 218,966 218,966"/>
<polygon class="pen1 brush2" points="201,1260 203,1266 205,1271 208,1277 210,1284 211,1290 212,1303 214,1322 214,1346 284,1346 285,1323 286,1304 287,1291 288,1284 290,1278 293,1272 295,1267 297,1260 201,1260 201,1260"/>
<polygon class="pen1 brush2" points="216,1358 217,1374 217,1392 217,1410 217,1430 280,1430 281,1410 281,1392 281,1374 282,1358 216,1358 216,1358"/>
<polygon class="pen1 brush2" points="218,1443 218,1462 219,1481 220,1501 220,1521 278,1521 278,1501 278,1481 279,1462 280,1443 218,1443 218,1443"/>
<polygon class="pen1 brush2" points="220,1534 221,1554 221,1574 222,1595 223,1615 275,1615 275,1595 276,1574 277,1554 278,1534 220,1534 220,1534"/>
<polygon class="pen1 brush2" points="223,1626 223,1648 224,1669 224,1690 224,1710 274,1710 274,1690 274,1669 274,1648 275,1626 223,1626 223,1626"/>
<polygon class="pen1 brush2" points="224,1723 224,1746 224,1767 224,1787 224,1806 272,1806 272,1787 273,1767 274,1746 274,1723 224,1723 224,1723"/>
<polygon class="pen1 brush2" points="224,1816 224,1845 223,1876 223,1907 228,1933 190,1985 240,1951 244,1952 249,1952 253,1952 257,1951 308,1987 268,1936 273,1909 274,1877 273,1845 272,1816 224,1816 224,1816"/>
<polygon class="pen1 brush2" points="295,575 301,567 315,546 335,515 359,478 381,439 400,402 413,370 416,348 409,326 396,296 379,260 361,222 342,185 326,152 313,127 305,112 302,105 302,99 303,94 306,90 310,87 315,86 320,86 325,89 383,0 392,7 333,96 347,113 364,145 384,186 405,232 424,279 439,321 449,355 451,375 444,395 426,427 403,466 376,509 348,551 324,588 306,615 297,629 297,625 297,614 296,597 295,575 295,575"/>
<polygon class="pen1 brush2" points="207,578 201,570 187,549 167,518 144,481 121,443 102,406 89,374 86,352 93,330 106,300 122,264 141,226 159,188 176,156 189,130 197,115 200,108 200,102 199,97 196,93 192,91 187,90 182,90 176,92 119,4 110,10 169,101 155,118 138,149 118,189 98,235 79,282 64,324 54,358 51,379 58,399 76,430 99,469 127,512 154,554 179,590 197,618 206,632 206,628 206,617 206,600 207,578"/>
<polygon class="pen1 brush2" points="277,565 283,564 287,561 290,557 291,551 290,546 287,541 283,538 277,537 271,538 266,541 262,546 261,551 262,557 266,561 271,564 277,565 277,565"/>
<polygon class="pen1 brush2" points="224,567 229,566 233,563 236,558 237,551 236,546 233,541 229,538 224,537 218,538 214,541 211,546 210,551 211,558 214,563 218,566 224,567 224,567"/>
<polygon class="pen1 brush2" points="213,954 212,927 211,888 212,848 217,814 223,784 226,754 225,723 222,691 219,659 217,628 217,598 220,568 230,568 237,562 240,553 237,544 238,544 238,544 239,544 240,543 237,539 234,536 230,532 225,529 220,526 214,524 207,523 200,523 189,526 179,533 170,544 163,558 157,575 153,592 150,611 149,629 152,761 160,1011 168,1262 173,1398 169,1398 163,1262 155,1010 148,759 145,626 146,609 149,591 153,573 159,556 167,542 176,530 186,522 197,518 208,518 217,520 224,523 230,527 235,531 238,535 242,539 244,543 246,543 248,544 248,545 248,545 250,544 251,544 252,543 254,543 256,539 259,535 264,531 269,527 276,523 283,520 292,518 301,518 312,522 322,530 331,542 338,556 344,573 348,591 351,610 352,628 349,760 342,1010 334,1262 329,1398 325,1398 330,1262 338,1011 346,762 349,629 348,611 346,593 342,575 336,559 329,545 320,534 310,526 299,523 291,523 285,524 278,526 273,529 269,533 265,537 262,540 260,544 260,544 261,544 261,544 261,544 259,553 262,561 269,567 278,568 282,597 282,627 280,659 277,690 274,722 273,754 275,785 281,815 286,849 287,889 286,928 285,956 213,954"/>
</g>
</svg>
