<?xml version="1.0" encoding="UTF-8" standalone="no"?>
<!DOCTYPE svg PUBLIC "-//W3C//DTD SVG 1.0//EN" "http://www.w3.org/TR/2001/REC-SVG-20010904/DTD/svg10.dtd">
<svg xmlns="http://www.w3.org/2000/svg" xmlns:xlink="http://www.w3.org/1999/xlink" fill-rule="evenodd" height="0.753in" preserveAspectRatio="none" stroke-linecap="round" viewBox="0 0 1976 753" width="1.976in">
<style type="text/css">
.brush0 { fill: rgb(255,255,255); }
.pen0 { stroke: rgb(0,0,0); stroke-width: 1; stroke-linejoin: round; }
.brush1 { fill: none; }
.pen1 { stroke: none; }
.brush2 { fill: rgb(0,0,0); }
</style>
<g>
<polygon class="pen1 brush2" points="44,376 45,377 50,377 57,377 66,376 77,375 89,374 103,371 118,368 107,367 96,367 86,366 77,366 68,366 61,366 55,366 51,366 49,366 44,364 36,362 28,359 20,355 12,350 6,344 3,338 2,332 4,326 10,319 19,312 30,305 38,299 44,294 48,290 51,286 53,282 56,277 58,272 64,264 72,257 82,252 92,248 104,245 115,243 125,242 135,241 147,239 163,237 181,234 201,232 220,229 237,226 251,223 259,221 281,214 309,206 342,198 379,189 419,179 462,170 506,160 551,151 597,142 642,133 685,126 726,119 764,114 798,110 828,107 852,106 878,107 907,109 938,112 971,117 1006,123 1042,130 1080,139 1118,150 1156,162 1194,176 1232,191 1270,209 1306,227 1341,248 1374,271 1405,295 1410,296 1423,298 1443,301 1470,306 1503,313 1540,321 1581,330 1625,341 1670,354 1717,368 1763,384 1807,402 1850,422 1890,443 1925,466 1956,491 1945,492 1932,493 1915,495 1895,497 1874,498 1850,500 1823,502 1796,504 1766,506 1735,508 1703,509 1671,511 1637,512 1603,513 1569,514 1535,514 1501,514 1468,514 1436,514 1404,512 1373,511 1344,508 1317,506 1291,502 1268,498 1246,493 1227,488 1211,481 1198,474 1188,466 1182,457 1179,447 1177,447 1172,448 1163,449 1152,450 1137,452 1120,454 1100,456 1078,458 1053,461 1027,463 998,466 968,468 937,470 904,472 871,474 836,476 801,478 765,479 729,479 692,480 656,479 620,479 584,477 549,475 514,473 481,469 448,465 417,460 388,454 360,447 334,440 310,431 308,431 302,431 292,431 279,431 264,430 246,430 228,429 208,428 188,427 168,426 149,424 131,422 114,420 100,417 89,414 81,410 71,404 63,399 56,396 51,392 46,389 44,386 43,381 44,376 44,376"/>
<polygon class="pen1 brush2" points="262,207 285,201 314,194 347,186 385,178 425,168 468,159 512,149 557,139 602,130 646,121 688,113 729,106 766,100 800,96 828,93 852,92 878,93 907,95 938,98 971,103 1006,109 1042,116 1080,126 1118,136 1156,148 1194,162 1232,178 1270,195 1306,214 1341,234 1374,257 1405,281 1410,282 1423,284 1444,288 1472,293 1505,299 1543,308 1585,318 1629,329 1675,342 1722,357 1769,374 1814,392 1857,412 1896,434 1932,457 1962,483 1970,467 1973,453 1973,441 1969,430 1964,423 1959,416 1952,410 1944,405 1936,401 1928,398 1919,395 1911,393 1901,372 1889,358 1874,350 1860,345 1846,344 1834,344 1826,345 1823,346 1811,325 1796,312 1779,305 1762,303 1746,304 1732,307 1723,310 1720,311 1704,288 1687,274 1668,267 1651,265 1635,266 1623,269 1614,273 1611,274 1608,268 1605,263 1601,258 1598,254 1597,254 1586,243 1574,236 1561,232 1548,232 1537,233 1527,235 1520,237 1517,238 1504,217 1489,204 1474,197 1460,195 1446,196 1436,199 1429,202 1426,203 1416,175 1401,155 1382,143 1363,136 1345,134 1330,134 1321,135 1320,136 1311,114 1297,100 1279,91 1261,87 1243,86 1229,88 1220,91 1219,93 1209,71 1194,57 1176,49 1157,46 1139,46 1124,48 1114,51 1110,52 1104,44 1098,37 1091,31 1084,26 1076,22 1069,19 1061,16 1053,14 1039,13 1026,14 1014,15 1003,17 994,20 987,23 984,26 983,28 976,20 969,14 961,9 954,5 945,3 937,2 929,1 921,1 907,2 894,5 883,8 872,13 864,18 857,22 853,26 852,28 845,21 837,16 829,12 821,9 813,7 805,6 798,6 790,7 777,9 765,13 754,17 744,22 736,27 730,31 726,34 725,35 718,30 711,27 704,25 696,24 688,24 679,25 671,27 662,30 648,35 635,41 624,47 614,54 606,61 601,67 599,72 601,75 579,69 556,70 535,76 515,85 499,95 487,106 480,114 480,119 453,116 429,118 408,125 390,134 377,144 367,154 363,160 364,163 342,158 323,158 307,162 293,168 282,177 273,187 266,197 262,207 262,207"/>
<polygon class="pen1 brush2" points="983,487 932,578 932,580 934,585 937,592 941,599 946,606 954,611 962,614 973,612 977,609 987,600 1001,587 1017,570 1032,549 1046,527 1055,503 1057,478 1055,478 1048,479 1039,480 1028,481 1015,483 1003,484 992,486 983,487 983,487"/>
<polygon class="pen1 brush2" points="919,598 920,600 921,604 925,609 929,616 935,622 942,627 950,629 960,629 941,717 935,670 885,753 911,664 831,747 889,653 810,700 881,633 808,646 919,598 919,598"/>
<polygon class="pen1 brush2" points="351,586 351,588 353,592 355,598 358,606 363,613 370,618 378,622 388,623 357,708 357,662 297,737 334,653 245,724 316,637 230,674 308,618 236,622 351,586 351,586"/>
<polygon class="pen1 brush2" points="432,474 367,568 367,570 368,575 370,583 373,591 377,599 383,606 392,609 402,609 406,606 417,598 433,586 452,570 470,551 486,529 498,505 504,481 502,481 496,480 487,479 476,477 464,476 452,475 441,474 432,474"/>
<polygon class="pen1 brush0" points="101,304 108,303 113,299 117,294 118,288 117,281 113,276 108,272 101,271 95,272 90,276 86,281 84,288 86,294 90,299 95,303 101,304"/>
<polygon class="pen1 brush0" points="885,268 893,267 901,265 908,261 914,256 919,250 923,243 925,235 926,227 925,218 923,210 919,203 914,196 908,191 901,187 893,185 885,184 876,185 868,187 861,191 855,196 850,203 846,210 844,218 843,227 844,235 846,243 850,250 855,256 861,261 868,265 876,267 885,268 885,268"/>
<polygon class="pen1 brush0" points="828,373 835,372 841,371 847,368 852,364 856,359 859,354 860,348 861,342 860,336 859,330 856,324 852,319 847,315 841,312 835,310 828,309 821,310 815,312 810,315 805,319 801,324 798,330 797,336 796,342 797,348 798,354 801,359 805,364 810,368 815,371 821,372 828,373 828,373"/>
<polygon class="pen1 brush0" points="726,427 733,426 739,422 743,417 745,410 743,402 739,396 733,392 726,390 719,392 713,396 709,402 708,410 709,417 713,422 719,426 726,427 726,427"/>
<polygon class="pen1 brush0" points="655,372 663,371 671,369 678,365 684,360 689,354 693,347 695,339 696,331 695,323 693,315 689,307 684,301 678,296 671,291 663,289 655,288 646,289 638,291 631,296 625,301 619,307 615,315 613,323 612,331 613,339 615,347 619,354 625,360 631,365 638,369 646,371 655,372"/>
</g>
</svg>
