<?xml version="1.0" encoding="UTF-8" standalone="no"?>
<!DOCTYPE svg PUBLIC "-//W3C//DTD SVG 1.0//EN" "http://www.w3.org/TR/2001/REC-SVG-20010904/DTD/svg10.dtd">
<svg xmlns="http://www.w3.org/2000/svg" xmlns:xlink="http://www.w3.org/1999/xlink" fill-rule="evenodd" height="0.562in" preserveAspectRatio="none" stroke-linecap="round" viewBox="0 0 1980 562" width="1.98in">
<style type="text/css">
.brush0 { fill: rgb(255,255,255); }
.pen0 { stroke: rgb(0,0,0); stroke-width: 1; stroke-linejoin: round; }
.brush1 { fill: none; }
.pen1 { stroke: none; }
.brush2 { fill: rgb(0,0,0); }
</style>
<g>
<polygon class="pen1 brush2" points="194,196 213,207 233,214 253,217 273,218 291,218 305,216 315,215 318,214 330,237 346,258 364,278 386,296 408,313 431,328 455,341 477,352 465,367 458,374 455,376 454,376 456,385 464,393 475,400 489,405 503,409 515,412 524,413 527,414 533,410 541,403 550,393 561,381 573,367 585,351 597,335 608,317 618,300 627,283 633,267 637,252 637,239 634,228 627,219 616,214 634,214 647,219 654,228 657,239 656,253 652,269 645,286 636,304 625,323 613,341 602,358 590,374 580,387 572,398 565,406 562,410 574,413 586,416 600,418 614,420 629,422 644,423 660,423 676,424 669,391 666,359 668,328 679,295 683,298 674,330 672,362 675,393 682,424 687,425 691,425 696,426 702,426 707,426 712,426 716,427 721,427 720,418 720,408 719,399 719,389 724,390 724,399 725,408 726,418 727,427 733,427 740,427 747,427 754,427 760,427 767,427 774,427 780,427 773,409 767,390 761,372 757,352 755,333 754,314 756,296 761,278 765,281 761,299 760,317 760,335 763,354 767,373 772,391 778,409 785,427 805,427 825,426 844,426 863,425 881,425 898,424 914,423 930,423 943,422 956,421 967,421 976,420 983,420 988,419 992,419 993,419 965,398 941,376 921,354 908,330 900,307 899,285 907,263 922,242 937,232 952,226 967,224 983,226 998,231 1012,239 1026,249 1038,261 1026,254 1013,248 1001,243 988,239 976,237 963,239 952,245 940,255 928,276 928,299 936,322 950,345 968,367 988,386 1007,403 1023,416 1034,425 1042,432 1048,436 1053,439 1056,441 1059,442 1061,443 1065,444 1071,444 1077,444 1083,444 1090,445 1098,445 1106,444 1116,444 1128,443 1138,438 1143,429 1143,419 1141,408 1137,397 1133,388 1129,381 1128,379 1139,391 1152,402 1168,412 1186,420 1205,427 1226,432 1248,435 1271,437 1315,439 1358,440 1399,440 1439,439 1478,437 1515,434 1550,431 1584,426 1617,421 1648,415 1678,409 1706,402 1733,395 1759,388 1783,380 1806,373 1827,365 1847,357 1865,349 1882,342 1898,334 1912,327 1925,320 1937,314 1947,308 1956,303 1963,298 1969,294 1974,290 1977,288 1979,287 1980,286 1966,291 1949,295 1932,299 1913,302 1892,305 1871,307 1848,309 1824,310 1800,311 1775,312 1748,312 1722,311 1695,310 1667,308 1640,307 1612,304 1584,301 1556,298 1528,294 1501,290 1474,285 1448,280 1422,274 1396,268 1372,262 1349,255 1326,247 1305,239 1285,231 1266,222 1249,213 1233,203 1201,183 1169,166 1139,151 1110,140 1082,130 1056,123 1031,118 1009,114 988,112 970,111 954,110 941,111 930,111 922,112 918,113 916,113 900,99 883,87 864,77 845,69 826,63 806,58 786,54 767,52 742,50 719,50 698,50 680,51 665,52 653,54 646,55 643,55 635,48 626,41 616,36 606,32 595,29 584,26 573,25 561,24 542,24 524,25 507,26 492,29 479,31 470,34 463,35 461,36 442,26 423,17 404,11 386,7 369,4 352,3 335,4 319,5 287,12 259,24 234,38 214,52 197,67 185,79 178,87 175,90 172,90 163,90 151,91 138,93 124,99 111,108 102,121 98,140 97,147 98,153 99,158 102,163 55,187 0,191 0,197 48,194 17,224 21,227 58,194 105,169 116,178 129,185 144,190 159,193 172,195 183,196 191,196 194,196"/>
<polygon class="pen1 brush2" points="513,430 511,430 504,430 495,428 484,426 472,422 459,415 448,406 439,394 355,403 376,420 325,448 359,454 331,485 369,474 365,501 402,488 408,515 513,430"/>
<polygon class="pen1 brush2" points="1136,457 1132,457 1122,458 1108,460 1091,460 1072,460 1054,459 1039,456 1027,451 902,478 942,485 912,517 946,515 927,555 980,531 977,559 1024,535 1031,562 1136,457"/>
<polygon class="pen1 brush0" points="545,326 537,327 529,328 521,330 514,333 506,337 499,340 491,344 484,348 487,352 494,348 501,345 508,342 515,339 522,336 529,334 537,333 545,332 545,326 545,326"/>
<polygon class="pen1 brush0" points="548,302 542,302 536,303 530,304 523,305 517,306 510,308 503,311 497,313 500,319 507,317 514,314 520,313 525,311 530,310 536,309 542,308 548,308 548,302"/>
<polygon class="pen1 brush0" points="581,187 569,194 557,200 544,205 531,209 518,211 506,209 494,204 483,194 475,183 468,172 461,160 456,147 452,150 458,165 464,179 471,191 480,202 490,210 502,216 516,217 533,215 540,213 546,211 553,208 559,206 566,203 572,200 579,197 585,194 581,187 581,187"/>
<polygon class="pen1 brush0" points="575,221 578,227 567,233 557,240 546,245 534,251 523,256 511,260 499,263 486,265 471,264 458,259 448,253 440,244 433,233 427,221 422,208 417,194 425,193 428,204 432,215 437,227 443,237 455,251 471,257 488,258 507,254 526,247 544,238 561,229 575,221 575,221"/>
<polygon class="pen1 brush0" points="567,257 569,261 558,267 547,273 536,278 524,283 511,287 499,291 486,294 474,296 461,297 449,297 437,295 425,293 413,289 402,283 391,276 381,267 369,249 361,230 357,211 357,191 359,171 364,151 369,131 375,112 376,100 376,89 374,77 371,66 367,55 361,45 353,35 345,27 351,22 359,31 367,42 373,52 378,64 381,76 383,88 383,100 381,113 376,131 371,149 366,167 364,185 363,203 364,221 370,238 379,255 390,266 402,275 415,282 429,286 443,289 458,289 473,288 487,286 498,284 509,281 519,278 529,274 538,270 548,266 557,262 567,257"/>
<polygon class="pen1 brush0" points="230,119 238,117 244,113 248,106 250,98 248,89 244,82 238,77 230,75 221,77 214,82 209,89 207,98 209,106 214,113 221,117 230,119"/>
<polygon class="pen1 brush0" points="1821,336 1800,341 1780,345 1760,349 1739,352 1719,355 1698,358 1678,360 1658,362 1637,364 1617,365 1597,366 1576,367 1556,367 1536,368 1515,367 1495,367 1475,366 1454,365 1434,364 1414,363 1393,361 1373,360 1353,358 1332,355 1312,353 1292,350 1271,348 1251,345 1230,342 1210,339 1190,335 1169,332 1167,338 1188,342 1208,346 1228,350 1249,353 1269,357 1290,360 1310,363 1330,366 1351,368 1371,370 1391,372 1412,374 1432,375 1452,377 1473,377 1493,378 1513,378 1534,378 1554,378 1575,377 1595,376 1615,375 1636,373 1656,371 1677,368 1698,366 1718,362 1739,359 1760,355 1780,350 1801,345 1822,340 1821,336"/>
</g>
</svg>
