<?xml version="1.0" encoding="UTF-8" standalone="no"?>
<!DOCTYPE svg PUBLIC "-//W3C//DTD SVG 1.0//EN" "http://www.w3.org/TR/2001/REC-SVG-20010904/DTD/svg10.dtd">
<svg xmlns="http://www.w3.org/2000/svg" xmlns:xlink="http://www.w3.org/1999/xlink" fill-rule="evenodd" height="1.743in" preserveAspectRatio="none" stroke-linecap="round" viewBox="0 0 1978 1743" width="1.978in">
<style type="text/css">
.brush0 { fill: rgb(255,255,255); }
.pen0 { stroke: rgb(0,0,0); stroke-width: 1; stroke-linejoin: round; }
.brush1 { fill: none; }
.pen1 { stroke: none; }
.brush2 { fill: rgb(0,0,0); }
</style>
<g>
<polygon class="pen1 brush2" points="31,671 37,658 44,642 53,623 64,603 77,581 92,557 109,532 129,506 44,384 153,476 165,462 178,448 191,434 206,420 221,406 236,392 253,378 270,364 210,219 302,340 318,329 335,318 353,307 371,296 389,286 408,275 428,266 448,256 412,108 487,242 497,238 507,234 518,230 528,226 539,223 550,219 561,216 572,213 583,210 595,207 606,204 618,201 630,199 642,196 655,194 667,192 652,43 707,185 720,183 733,182 746,180 760,179 774,178 788,176 802,176 816,175 828,174 839,173 851,173 862,172 873,172 884,172 895,172 906,172 920,27 946,175 961,176 976,177 991,178 1006,180 1020,181 1034,183 1048,185 1062,187 1075,190 1089,192 1102,195 1114,197 1127,200 1140,203 1152,207 1164,210 1217,68 1204,223 1219,229 1233,235 1248,242 1262,248 1276,255 1289,262 1303,269 1316,276 1336,223 1312,0 1397,12 1386,193 1446,17 1525,71 1421,210 1542,108 1591,186 1416,277 1392,318 1409,330 1426,343 1443,356 1460,369 1477,381 1493,393 1509,403 1524,411 1589,385 1669,71 1778,108 1687,314 1856,151 1910,247 1728,374 1910,331 1910,441 1645,452 1608,489 1615,517 1621,545 1626,572 1632,599 1638,627 1644,654 1651,681 1660,709 1757,727 1971,662 1975,746 1795,770 1978,794 1940,882 1785,808 1909,908 1841,969 1717,814 1686,804 1692,842 1696,881 1698,923 1698,965 1695,1009 1689,1054 1680,1099 1667,1145 1760,1244 1653,1182 1642,1210 1629,1237 1614,1264 1597,1290 1579,1316 1559,1340 1537,1365 1514,1388 1589,1497 1484,1415 1471,1425 1458,1435 1444,1445 1430,1454 1415,1463 1400,1472 1385,1481 1369,1490 1352,1498 1336,1507 1318,1514 1300,1522 1282,1530 1263,1537 1243,1543 1223,1550 1261,1689 1180,1564 1165,1568 1150,1571 1135,1575 1119,1578 1103,1581 1087,1585 1071,1588 1054,1590 1037,1593 1020,1596 1003,1598 985,1600 967,1602 949,1604 931,1606 912,1607 897,1743 869,1608 856,1608 843,1607 829,1606 814,1605 799,1603 784,1601 769,1599 753,1596 737,1594 720,1590 704,1587 687,1583 670,1579 653,1574 635,1569 618,1564 545,1696 575,1548 560,1543 545,1537 529,1531 514,1525 499,1519 484,1512 469,1505 454,1498 439,1491 425,1483 410,1475 395,1467 381,1458 366,1450 352,1440 338,1431 258,1540 304,1406 272,1381 241,1354 211,1326 183,1296 157,1265 133,1232 110,1197 90,1160 72,1122 56,1082 44,1040 34,997 27,951 23,904 22,855 25,804 29,804 41,803 57,801 76,797 95,791 111,781 123,767 127,749 123,739 112,727 97,714 79,701 61,689 46,680 35,673 31,671"/>
<polygon class="pen1 brush0" points="268,672 275,671 282,669 288,666 294,662 299,656 302,650 304,644 305,637 304,630 302,623 299,617 294,611 288,607 282,604 275,602 268,601 261,602 254,604 248,607 242,611 237,617 234,623 232,630 231,637 232,644 234,650 237,656 242,662 248,666 254,669 261,671 268,672"/>
<polygon class="pen1 brush0" points="423,531 444,541 463,556 481,576 497,600 510,627 520,656 526,686 528,716 525,746 517,773 503,798 483,819 456,835 421,846 379,850 328,847 334,846 348,842 370,835 395,824 421,810 446,790 466,766 478,737 484,693 482,653 474,618 462,588 448,564 436,546 427,535 423,531"/>
</g>
</svg>
