<?xml version="1.0" encoding="UTF-8" standalone="no"?>
<!DOCTYPE svg PUBLIC "-//W3C//DTD SVG 1.0//EN" "http://www.w3.org/TR/2001/REC-SVG-20010904/DTD/svg10.dtd">
<svg xmlns="http://www.w3.org/2000/svg" xmlns:xlink="http://www.w3.org/1999/xlink" fill-rule="evenodd" height="1.997in" preserveAspectRatio="none" stroke-linecap="round" viewBox="0 0 1534 1997" width="1.534in">
<style type="text/css">
.brush0 { fill: rgb(255,255,255); }
.pen0 { stroke: rgb(0,0,0); stroke-width: 1; stroke-linejoin: round; }
.brush1 { fill: none; }
.pen1 { stroke: none; }
.brush2 { fill: rgb(0,0,0); }
</style>
<g>
<polygon class="pen1 brush2" points="893,1288 891,1287 884,1283 874,1277 861,1268 845,1257 828,1243 809,1227 790,1209 785,1214 778,1220 772,1225 764,1231 756,1236 749,1241 741,1246 733,1250 742,1254 751,1259 760,1262 770,1266 779,1269 789,1273 799,1275 809,1278 819,1280 829,1282 839,1284 850,1285 860,1287 871,1287 882,1288 893,1288 893,1288"/>
<polygon class="pen1 brush2" points="777,1196 770,1203 763,1209 756,1215 748,1220 741,1225 733,1229 725,1234 716,1238 695,1224 676,1207 659,1189 643,1169 629,1148 617,1125 606,1100 598,1074 611,1074 624,1073 637,1072 649,1070 662,1068 675,1065 687,1061 700,1057 706,1078 713,1097 721,1116 731,1134 742,1151 753,1167 765,1182 777,1196 777,1196"/>
<polygon class="pen1 brush2" points="696,1040 693,1019 692,997 693,976 696,954 701,934 708,913 717,894 729,875 716,867 703,858 691,849 680,838 670,827 660,815 651,803 643,791 624,822 609,853 598,885 589,918 585,952 584,986 586,1021 592,1055 606,1056 619,1056 633,1055 646,1054 659,1052 672,1049 684,1045 696,1040 696,1040"/>
<polygon class="pen1 brush2" points="740,861 727,854 714,845 702,835 692,824 681,812 672,800 663,788 655,775 664,763 674,752 684,741 694,730 705,720 717,709 729,700 741,690 754,681 768,672 782,664 796,656 811,648 827,641 843,635 859,629 862,648 865,666 869,684 874,703 879,721 885,739 892,756 899,774 875,780 853,787 831,796 810,805 790,817 772,830 755,845 740,861 740,861"/>
<polygon class="pen1 brush2" points="916,770 928,768 940,766 952,764 964,762 976,761 988,760 1000,759 1012,759 1023,759 1035,760 1047,761 1059,763 1070,765 1082,767 1094,770 1105,774 1107,755 1111,736 1117,717 1124,699 1133,681 1142,664 1153,648 1165,632 1147,626 1130,620 1112,615 1094,611 1076,609 1057,606 1039,605 1021,604 1003,605 984,606 966,607 948,609 930,612 912,616 894,620 876,625 880,644 884,662 888,680 893,698 898,716 903,734 909,752 916,770 916,770"/>
<polygon class="pen1 brush2" points="1122,781 1124,762 1128,743 1133,724 1140,706 1148,688 1158,671 1169,654 1182,639 1197,646 1212,654 1227,663 1241,672 1256,681 1270,692 1284,702 1297,714 1310,726 1323,738 1336,751 1349,765 1361,779 1373,793 1384,808 1395,824 1376,828 1357,833 1340,839 1325,847 1309,857 1295,867 1280,879 1266,893 1250,873 1232,855 1215,839 1197,824 1178,811 1160,800 1141,790 1122,781 1122,781"/>
<polygon class="pen1 brush2" points="1277,906 1289,924 1300,943 1311,963 1321,983 1330,1005 1338,1028 1345,1052 1352,1077 1369,1071 1387,1064 1405,1058 1424,1052 1443,1047 1462,1043 1481,1041 1499,1041 1490,1014 1481,987 1470,961 1459,935 1447,910 1433,885 1420,861 1405,838 1389,841 1371,846 1353,852 1335,861 1317,871 1301,882 1288,893 1277,906 1277,906"/>
<polygon class="pen1 brush2" points="1355,1095 1373,1088 1391,1081 1409,1075 1427,1069 1446,1065 1465,1062 1484,1060 1504,1059 1511,1089 1517,1119 1522,1149 1526,1180 1528,1210 1530,1240 1530,1271 1528,1301 1519,1297 1509,1293 1500,1290 1489,1287 1479,1284 1468,1281 1457,1279 1446,1277 1435,1275 1424,1274 1413,1274 1402,1274 1392,1275 1382,1276 1372,1278 1362,1281 1365,1235 1365,1188 1362,1141 1355,1095 1355,1095"/>
<polygon class="pen1 brush2" points="1359,1301 1355,1328 1351,1354 1345,1380 1339,1404 1331,1427 1323,1450 1314,1472 1305,1493 1317,1495 1328,1498 1340,1501 1351,1504 1362,1508 1372,1512 1383,1516 1393,1520 1404,1525 1414,1530 1424,1535 1434,1541 1444,1547 1454,1553 1464,1559 1474,1565 1486,1533 1496,1501 1504,1469 1511,1437 1517,1407 1522,1377 1525,1348 1527,1321 1517,1317 1507,1313 1496,1310 1486,1306 1476,1303 1465,1300 1455,1297 1444,1295 1434,1294 1423,1293 1412,1292 1402,1292 1391,1293 1380,1295 1370,1298 1359,1301 1359,1301"/>
<polygon class="pen1 brush2" points="1297,1510 1308,1511 1319,1513 1331,1515 1342,1518 1353,1522 1364,1526 1376,1530 1387,1535 1398,1540 1409,1545 1419,1551 1430,1557 1440,1563 1450,1569 1460,1575 1469,1581 1462,1598 1455,1614 1448,1631 1440,1648 1431,1664 1423,1681 1413,1697 1404,1713 1393,1729 1382,1745 1371,1761 1360,1776 1347,1791 1335,1805 1322,1819 1308,1833 1299,1809 1289,1783 1277,1756 1263,1730 1247,1706 1230,1683 1212,1664 1192,1649 1207,1635 1221,1619 1235,1603 1248,1586 1261,1568 1274,1550 1286,1530 1297,1510 1297,1510"/>
<polygon class="pen1 brush2" points="1177,1662 1166,1671 1156,1679 1145,1687 1134,1695 1122,1702 1111,1708 1100,1715 1088,1720 1077,1726 1065,1731 1054,1736 1042,1740 1031,1744 1019,1748 1007,1751 996,1754 1011,1810 1017,1865 1016,1922 1010,1980 1032,1976 1053,1971 1074,1966 1094,1960 1114,1953 1133,1946 1151,1938 1169,1930 1187,1921 1204,1911 1220,1902 1236,1891 1251,1880 1266,1869 1280,1857 1294,1845 1285,1819 1275,1793 1264,1767 1250,1743 1235,1721 1218,1699 1198,1680 1177,1662 1177,1662"/>
<polygon class="pen1 brush2" points="979,1757 995,1810 1000,1869 998,1928 990,1984 970,1986 951,1988 931,1989 911,1990 892,1990 872,1990 852,1989 832,1988 812,1987 793,1984 773,1982 753,1979 734,1976 715,1972 695,1968 676,1963 691,1939 705,1913 717,1887 727,1861 735,1834 742,1806 747,1778 750,1749 763,1752 777,1754 791,1757 805,1759 820,1760 834,1762 849,1763 863,1764 878,1764 893,1765 907,1764 922,1764 936,1763 951,1761 965,1759 979,1757 979,1757"/>
<polygon class="pen1 brush2" points="731,1745 718,1742 705,1739 691,1735 678,1731 664,1727 651,1723 637,1718 623,1712 609,1707 595,1701 581,1694 567,1688 553,1680 539,1673 525,1665 511,1656 496,1679 480,1701 462,1721 443,1740 423,1758 401,1775 379,1791 355,1806 373,1819 391,1832 409,1845 427,1857 446,1868 464,1879 483,1889 502,1899 521,1909 541,1917 560,1925 580,1933 599,1940 619,1947 639,1953 659,1958 675,1934 688,1909 700,1883 710,1857 718,1829 724,1802 729,1773 731,1745 731,1745"/>
<polygon class="pen1 brush2" points="497,1646 483,1669 467,1691 449,1711 430,1730 409,1748 387,1764 365,1779 341,1793 328,1782 316,1771 304,1759 291,1747 279,1735 268,1722 256,1710 245,1696 233,1683 222,1669 211,1655 201,1640 190,1625 180,1610 170,1594 160,1578 172,1577 185,1575 198,1574 211,1572 224,1569 238,1567 251,1564 265,1561 278,1557 292,1553 304,1548 317,1543 329,1537 340,1531 351,1524 361,1517 377,1537 393,1555 409,1573 426,1589 444,1604 461,1619 479,1633 497,1646 497,1646"/>
<polygon class="pen1 brush2" points="351,1504 336,1482 321,1459 307,1436 294,1411 281,1385 269,1357 258,1328 247,1298 236,1305 225,1311 214,1316 203,1321 192,1325 180,1329 168,1333 157,1335 145,1338 133,1340 120,1341 108,1342 96,1343 83,1343 71,1343 58,1342 67,1373 77,1402 88,1431 100,1459 111,1485 124,1511 137,1537 150,1561 162,1560 175,1558 187,1557 201,1555 214,1553 227,1551 241,1548 254,1545 268,1542 281,1538 294,1534 306,1529 318,1524 330,1518 341,1511 351,1504 351,1504"/>
<polygon class="pen1 brush2" points="241,1281 231,1288 221,1294 210,1300 199,1305 187,1310 176,1313 164,1316 152,1319 140,1321 128,1323 115,1324 103,1325 91,1325 78,1326 66,1325 54,1325 46,1295 38,1265 32,1234 26,1202 20,1170 16,1137 12,1103 8,1068 19,1071 31,1073 43,1075 55,1076 67,1078 80,1079 92,1079 105,1080 117,1079 130,1079 142,1078 154,1076 166,1074 178,1072 189,1069 200,1065 203,1095 207,1124 211,1152 216,1179 222,1206 228,1232 234,1257 241,1281 241,1281"/>
<polygon class="pen1 brush2" points="199,1048 195,992 193,936 193,881 196,825 10,777 4,846 2,914 3,983 7,1051 19,1053 31,1056 43,1058 55,1059 67,1060 79,1061 91,1062 103,1062 115,1062 127,1061 139,1060 151,1058 163,1057 175,1054 187,1051 199,1048 199,1048"/>
<polygon class="pen1 brush2" points="199,808 185,805 172,802 159,798 146,795 134,792 122,789 110,786 99,783 87,780 76,777 65,774 54,771 43,768 32,765 22,763 11,760 16,725 22,691 29,659 36,627 45,596 54,566 64,538 75,510 84,519 93,528 101,537 111,546 120,554 129,562 139,569 149,576 159,583 169,589 180,596 191,602 202,607 213,612 225,617 237,622 230,643 224,664 219,686 214,709 209,733 205,757 202,782 199,808 199,808"/>
<polygon class="pen1 brush2" points="243,605 252,581 262,559 272,537 283,516 295,496 307,476 319,458 332,440 315,422 300,401 287,378 275,353 264,327 256,302 249,277 243,254 231,266 219,278 208,291 197,304 186,318 175,332 164,346 154,360 144,375 134,391 125,407 115,423 106,439 98,456 89,473 81,491 88,500 96,509 105,518 114,527 123,536 133,544 144,552 155,559 165,566 176,573 188,580 199,586 210,591 221,596 232,601 243,605 243,605"/>
<polygon class="pen1 brush2" points="344,426 327,407 313,386 300,363 288,338 278,313 270,288 263,264 257,240 268,230 279,220 290,211 302,202 313,193 325,184 336,176 348,167 360,159 372,152 384,145 396,137 408,131 420,124 433,118 445,112 451,135 457,158 465,180 473,202 482,223 494,243 506,263 521,281 509,288 497,294 485,302 474,309 462,317 451,325 439,333 428,342 417,351 406,361 395,371 385,381 374,392 364,403 354,414 344,426 344,426"/>
<polygon class="pen1 brush2" points="537,274 548,269 559,263 571,258 582,254 593,249 604,245 615,241 626,238 637,234 647,231 658,228 669,225 679,222 690,219 700,216 710,214 698,168 693,122 691,75 693,28 679,31 665,34 651,37 637,41 622,44 608,48 594,53 579,57 564,62 550,67 535,72 521,78 506,83 491,89 477,96 462,102 467,126 473,149 480,171 488,193 498,214 509,235 522,255 537,274 537,274"/>
<polygon class="pen1 brush2" points="727,211 715,166 710,119 710,71 713,24 727,22 742,19 757,17 772,15 788,13 803,11 819,10 835,9 851,8 867,8 883,7 899,8 914,9 929,10 944,12 959,14 947,34 937,56 929,79 922,103 916,128 912,152 909,176 908,199 901,198 894,198 886,198 877,197 868,197 858,198 847,198 836,198 824,199 811,200 798,201 785,202 771,204 757,206 742,208 727,211 727,211"/>
<polygon class="pen1 brush2" points="926,200 942,203 963,208 987,215 1014,223 1043,232 1073,241 1105,249 1137,257 1169,263 1200,267 1230,268 1257,266 1282,261 1303,252 1321,238 1334,219 1338,203 1335,186 1327,170 1313,155 1294,139 1272,124 1246,109 1217,95 1187,82 1155,70 1123,58 1091,48 1060,38 1030,30 1002,23 977,17 965,37 955,59 946,81 939,105 934,129 930,153 927,177 926,200"/>
<polygon class="pen1 brush0" points="1148,166 1154,165 1160,164 1165,161 1170,157 1174,152 1177,147 1178,141 1179,135 1178,128 1177,122 1174,116 1170,111 1165,107 1160,104 1154,103 1148,102 1142,103 1136,104 1130,107 1126,111 1122,116 1119,122 1117,128 1116,135 1117,141 1119,147 1122,152 1126,157 1130,161 1136,164 1142,165 1148,166"/>
</g>
</svg>
