<?xml version="1.0" encoding="UTF-8" standalone="no"?>
<!DOCTYPE svg PUBLIC "-//W3C//DTD SVG 1.0//EN" "http://www.w3.org/TR/2001/REC-SVG-20010904/DTD/svg10.dtd">
<svg xmlns="http://www.w3.org/2000/svg" xmlns:xlink="http://www.w3.org/1999/xlink" fill-rule="evenodd" height="1.901in" preserveAspectRatio="none" stroke-linecap="round" viewBox="0 0 1873 1901" width="1.873in">
<style type="text/css">
.brush0 { fill: rgb(255,255,255); }
.pen0 { stroke: rgb(0,0,0); stroke-width: 1; stroke-linejoin: round; }
.brush1 { fill: none; }
.pen1 { stroke: none; }
.brush2 { fill: rgb(0,0,0); }
</style>
<g>
<polygon class="pen1 brush2" points="943,962 974,939 1009,907 1047,868 1087,823 1128,772 1169,717 1207,659 1243,597 1274,535 1300,471 1319,408 1330,347 1332,287 1323,231 1302,178 1269,131 1257,120 1244,110 1229,102 1213,96 1196,91 1177,88 1157,87 1136,87 1114,89 1091,92 1067,96 1042,101 1016,108 990,116 962,125 935,136 906,147 877,159 848,173 818,187 788,202 758,218 727,235 697,252 666,270 636,289 605,308 575,328 545,349 515,369 485,390 456,412 409,449 363,486 319,524 278,561 238,599 202,637 169,674 139,710 112,746 90,780 72,813 58,845 49,875 45,903 47,928 54,952 67,975 82,996 100,1015 120,1031 143,1046 167,1058 194,1068 222,1077 252,1084 283,1089 315,1093 348,1096 382,1096 416,1096 451,1094 487,1092 522,1088 557,1083 592,1077 627,1071 661,1064 694,1056 726,1048 757,1039 787,1030 815,1020 842,1010 866,1001 889,991 909,981 928,971 943,962"/>
<polygon class="pen1 brush0" points="903,837 920,836 945,805 963,775 976,746 982,717 982,690 978,664 968,640 954,617 935,596 913,578 887,562 857,548 825,537 791,529 754,524 715,522 676,524 638,529 600,538 563,550 528,564 493,580 460,598 428,617 397,637 368,658 341,679 315,700 292,721 270,741 251,759 234,776 211,802 194,826 182,850 175,871 170,890 168,906 168,919 169,928 184,928 184,916 185,903 188,887 193,870 200,851 210,832 224,811 242,790 259,773 278,755 299,735 322,715 347,694 374,673 402,653 432,633 464,614 497,596 531,580 566,566 603,555 640,546 678,541 717,539 755,541 792,545 825,553 856,563 884,575 908,590 929,608 946,627 958,648 966,671 970,696 968,722 960,749 947,777 928,807 903,837 903,837"/>
<polygon class="pen1 brush0" points="1146,506 1165,468 1176,433 1181,400 1179,369 1171,341 1158,317 1139,296 1116,279 1088,265 1056,257 1022,252 984,253 943,259 901,270 857,287 812,310 765,337 716,367 667,398 617,431 567,465 517,501 469,536 422,572 378,607 336,641 297,675 261,707 230,737 204,765 183,791 167,813 155,834 146,853 139,870 136,885 134,899 134,910 135,920 137,928 122,928 119,920 117,909 117,897 119,883 123,867 130,849 140,829 153,806 160,795 169,784 179,771 191,758 203,744 218,730 233,715 249,699 267,684 285,667 305,650 325,633 346,616 368,599 390,581 413,563 436,545 460,527 485,509 509,491 534,473 559,456 585,438 610,421 635,404 660,388 685,372 710,356 734,341 758,326 782,312 805,299 851,276 895,259 939,248 981,242 1021,242 1058,246 1092,256 1122,269 1147,286 1168,307 1184,332 1194,360 1198,390 1195,423 1184,459 1166,496 1146,506"/>
<polygon class="pen1 brush2" points="948,996 963,986 980,975 1000,963 1022,952 1046,940 1071,928 1099,917 1127,905 1157,894 1189,883 1221,873 1254,863 1288,854 1322,846 1357,839 1392,833 1427,828 1462,824 1496,822 1530,821 1563,822 1596,824 1628,829 1658,835 1687,843 1715,853 1741,866 1766,880 1788,898 1808,917 1826,940 1842,965 1851,987 1855,1010 1855,1036 1851,1063 1842,1092 1830,1122 1814,1153 1795,1185 1782,1204 1768,1224 1753,1243 1737,1263 1720,1283 1703,1303 1684,1323 1665,1343 1645,1363 1624,1383 1603,1404 1581,1424 1558,1444 1535,1464 1511,1483 1487,1503 1463,1522 1438,1541 1413,1560 1387,1579 1362,1597 1336,1615 1310,1633 1284,1650 1258,1666 1231,1683 1205,1699 1179,1714 1153,1728 1127,1743 1101,1756 1076,1769 1042,1786 1008,1801 976,1815 944,1828 913,1839 883,1848 854,1856 826,1862 800,1866 775,1868 752,1868 730,1866 710,1862 692,1856 677,1848 663,1837 631,1796 610,1748 600,1695 600,1637 609,1576 625,1512 647,1447 674,1382 706,1319 740,1257 777,1199 814,1145 851,1097 886,1055 919,1021 948,996"/>
<polygon class="pen1 brush0" points="1034,1056 1053,1040 1078,1024 1107,1008 1139,993 1174,980 1211,968 1250,958 1289,951 1328,947 1366,946 1403,949 1438,957 1469,970 1497,988 1520,1012 1538,1042 1540,1049 1545,1068 1550,1097 1553,1133 1550,1173 1540,1215 1518,1256 1484,1294 1464,1310 1444,1324 1426,1335 1409,1344 1392,1351 1376,1357 1361,1362 1347,1366 1332,1370 1319,1374 1305,1378 1291,1382 1278,1387 1265,1393 1251,1401 1237,1411 1223,1422 1208,1434 1194,1446 1179,1459 1164,1473 1149,1486 1133,1500 1118,1513 1102,1526 1086,1539 1069,1550 1053,1560 1036,1570 1019,1577 1002,1584 984,1588 965,1590 942,1587 918,1580 894,1569 871,1553 850,1532 832,1507 819,1478 812,1443 812,1403 821,1359 839,1309 868,1254 910,1193 965,1127 1034,1056"/>
<polygon class="pen1 brush2" points="1376,1154 1388,1153 1400,1149 1411,1143 1420,1135 1428,1126 1434,1115 1438,1103 1439,1091 1438,1078 1434,1067 1428,1056 1420,1047 1411,1039 1400,1034 1388,1030 1376,1029 1364,1030 1352,1034 1342,1039 1333,1047 1325,1056 1320,1067 1316,1078 1315,1091 1316,1103 1320,1115 1325,1126 1333,1135 1342,1143 1352,1149 1364,1153 1376,1154 1376,1154"/>
<polygon class="pen1 brush2" points="1059,1454 1067,1453 1075,1451 1082,1447 1088,1442 1092,1437 1096,1430 1098,1423 1099,1415 1098,1406 1096,1398 1092,1391 1088,1385 1082,1381 1075,1377 1067,1375 1059,1374 1051,1375 1044,1377 1037,1381 1031,1385 1026,1391 1022,1398 1020,1406 1019,1415 1020,1423 1022,1430 1026,1437 1031,1442 1037,1447 1044,1451 1051,1453 1059,1454"/>
</g>
</svg>
