<?xml version="1.0" encoding="UTF-8" standalone="no"?>
<!DOCTYPE svg PUBLIC "-//W3C//DTD SVG 1.0//EN" "http://www.w3.org/TR/2001/REC-SVG-20010904/DTD/svg10.dtd">
<svg xmlns="http://www.w3.org/2000/svg" xmlns:xlink="http://www.w3.org/1999/xlink" fill-rule="evenodd" height="0.964in" preserveAspectRatio="none" stroke-linecap="round" viewBox="0 0 1987 964" width="1.987in">
<style type="text/css">
.brush0 { fill: rgb(255,255,255); }
.pen0 { stroke: rgb(0,0,0); stroke-width: 1; stroke-linejoin: round; }
.brush1 { fill: none; }
.pen1 { stroke: none; }
.brush2 { fill: rgb(0,0,0); }
</style>
<g>
<polygon class="pen1 brush2" points="583,521 339,720 619,527 623,527 627,528 631,529 635,529 639,530 643,531 648,531 652,531 447,778 693,537 699,538 705,538 711,539 717,540 518,846 754,542 758,543 762,543 766,544 770,544 774,544 778,544 783,545 787,545 639,899 828,548 834,548 841,549 849,550 856,550 754,926 912,552 918,552 925,553 931,554 937,554 906,964 984,555 991,555 997,555 1003,555 1010,555 1025,964 1054,557 1061,557 1069,557 1076,557 1083,557 1152,961 1123,558 1127,558 1132,558 1136,558 1140,558 1145,558 1149,558 1153,558 1157,558 1270,959 1189,558 1194,558 1198,558 1203,558 1208,557 1212,557 1217,557 1222,557 1227,557 1376,950 1258,557 1262,557 1266,557 1269,556 1273,556 1277,556 1281,555 1284,555 1288,555 1460,935 1323,554 1328,554 1332,554 1337,554 1342,554 1552,926 1376,552 1380,552 1384,551 1388,551 1392,551 1653,895 1419,550 1426,550 1432,549 1437,548 1441,548 1970,922 1474,541 1482,538 1487,532 1490,519 1490,497 1488,478 1485,463 1480,454 1474,447 1987,92 1443,440 1439,440 1434,439 1430,439 1426,439 1424,439 1423,438 1421,437 1419,437 1670,105 1390,436 1387,436 1384,435 1380,435 1376,435 1569,68 1341,432 1336,432 1332,432 1327,431 1322,430 1478,55 1287,429 1280,428 1273,427 1265,427 1258,426 1396,35 1227,425 1222,425 1217,425 1212,424 1208,424 1203,424 1199,423 1194,423 1190,423 1289,23 1157,422 1153,422 1149,422 1145,421 1140,421 1136,421 1132,420 1127,420 1123,420 1172,14 1083,419 1077,419 1070,418 1062,417 1055,417 1045,7 1011,416 1004,416 998,416 991,416 985,416 926,0 939,415 933,415 927,415 920,415 914,415 774,31 859,415 855,415 852,415 848,415 844,415 840,415 837,415 833,415 829,415 656,52 788,415 784,415 780,415 776,415 772,415 768,415 764,415 759,416 755,416 535,101 720,416 713,416 707,416 701,416 694,417 458,165 652,419 648,419 643,419 639,419 635,420 631,420 627,421 623,421 619,422 349,219 585,427 583,429 580,431 577,434 575,437 562,430 547,421 528,412 507,403 482,393 455,384 424,375 391,366 354,359 314,352 271,347 224,343 174,341 121,341 64,343 4,348 4,347 4,349 4,352 4,355 7,354 19,353 37,351 62,350 92,348 127,347 167,348 209,349 254,352 300,357 348,364 395,374 442,387 488,403 531,423 572,446 568,457 567,468 567,480 566,490 526,513 482,533 437,549 390,561 343,571 296,578 250,583 206,586 164,587 125,587 91,586 61,584 37,583 19,581 7,579 4,578 4,581 4,585 4,587 4,588 62,593 117,595 168,595 216,593 262,589 304,584 343,578 379,571 412,563 442,554 470,545 494,535 516,526 535,517 552,509 566,501 570,509 573,515 577,518 583,521"/>
</g>
</svg>
