<?xml version="1.0" encoding="UTF-8" standalone="no"?>
<!DOCTYPE svg PUBLIC "-//W3C//DTD SVG 1.0//EN" "http://www.w3.org/TR/2001/REC-SVG-20010904/DTD/svg10.dtd">
<svg xmlns="http://www.w3.org/2000/svg" xmlns:xlink="http://www.w3.org/1999/xlink" fill-rule="evenodd" height="1.982in" preserveAspectRatio="none" stroke-linecap="round" viewBox="0 0 756 1982" width="0.756in">
<style type="text/css">
.brush0 { fill: rgb(255,255,255); }
.pen0 { stroke: rgb(0,0,0); stroke-width: 1; stroke-linejoin: round; }
.brush1 { fill: none; }
.pen1 { stroke: none; }
.brush2 { fill: rgb(0,0,0); }
</style>
<g>
<polygon class="pen1 brush2" points="287,1609 332,1606 373,1596 411,1580 445,1559 475,1534 500,1504 521,1470 537,1433 548,1393 553,1351 554,1308 548,1263 537,1218 520,1173 496,1129 466,1085 435,1044 410,1005 389,968 373,933 361,900 355,868 353,836 356,805 363,773 376,742 393,709 415,675 442,639 473,601 509,561 550,518 575,491 598,465 617,440 634,415 649,392 661,370 671,348 679,328 690,286 693,249 690,216 683,189 672,166 660,147 648,134 637,125 624,117 612,110 602,103 592,94 580,84 567,71 550,53 529,31 520,23 509,16 497,11 483,7 469,4 455,2 440,1 425,1 400,4 376,9 353,15 333,22 316,29 303,37 295,45 293,52 300,63 313,73 332,82 352,91 371,98 388,103 400,107 405,108 391,112 375,115 360,118 344,120 331,122 320,124 313,125 310,125 328,135 347,142 367,148 387,153 405,156 419,158 429,160 432,160 433,160 436,162 440,165 445,170 449,176 454,185 457,197 459,211 459,229 457,250 452,274 443,303 429,336 412,373 389,416 360,463 329,513 302,561 277,609 256,656 238,702 224,747 214,791 208,833 206,875 209,915 217,955 230,993 247,1030 271,1065 299,1100 334,1133 368,1166 394,1197 413,1228 425,1258 432,1286 433,1313 430,1339 422,1362 412,1383 399,1402 384,1419 367,1433 350,1444 332,1452 316,1457 300,1459 280,1456 261,1449 245,1440 230,1429 219,1416 210,1400 204,1384 202,1366 204,1348 210,1331 219,1316 232,1303 247,1292 264,1283 283,1278 304,1276 323,1277 340,1282 357,1288 373,1297 386,1308 397,1320 406,1333 411,1348 416,1327 417,1304 415,1281 409,1256 398,1230 382,1202 360,1175 333,1146 326,1145 317,1144 309,1143 300,1142 291,1142 283,1141 274,1141 266,1141 239,1142 213,1146 187,1152 163,1160 140,1170 118,1181 97,1195 78,1210 61,1227 46,1245 32,1264 21,1285 12,1306 5,1329 1,1352 0,1376 1,1400 5,1424 12,1446 21,1468 33,1489 47,1508 63,1526 81,1543 101,1558 123,1571 146,1583 172,1592 199,1600 227,1605 256,1608 287,1609 287,1609"/>
<polygon class="pen1 brush2" points="568,1366 568,1361 569,1346 569,1325 568,1298 565,1268 559,1237 549,1207 534,1179 535,1179 539,1180 544,1182 551,1184 560,1187 571,1191 582,1196 595,1202 608,1209 622,1217 636,1226 650,1236 665,1247 679,1260 692,1274 705,1290 716,1305 726,1322 734,1340 741,1359 747,1380 751,1401 753,1425 753,1449 752,1479 749,1506 744,1531 738,1554 730,1575 722,1593 712,1610 702,1625 683,1646 664,1664 644,1677 624,1687 607,1695 591,1701 579,1705 570,1708 563,1710 553,1713 542,1716 528,1719 513,1724 497,1729 481,1736 465,1743 449,1752 434,1763 421,1774 409,1788 400,1803 393,1820 389,1839 389,1860 393,1880 400,1898 410,1912 422,1923 436,1931 451,1937 467,1939 484,1940 500,1938 516,1934 531,1928 545,1920 557,1911 567,1900 573,1887 577,1873 577,1878 578,1890 576,1907 570,1927 559,1948 540,1965 512,1977 472,1982 431,1978 399,1969 374,1954 356,1936 344,1916 336,1896 332,1875 331,1857 331,1839 333,1821 336,1804 340,1788 345,1771 352,1756 361,1740 372,1725 385,1711 399,1697 417,1684 436,1671 458,1658 483,1646 510,1635 541,1624 559,1616 579,1603 600,1587 620,1566 638,1542 650,1515 657,1485 656,1453 648,1424 636,1403 622,1387 607,1377 592,1371 580,1367 571,1366 568,1366"/>
<polygon class="pen1 brush0" points="399,75 405,74 411,70 415,65 416,58 415,51 411,46 405,42 399,41 392,42 387,46 383,51 382,58 383,65 387,70 392,74 399,75"/>
<polygon class="pen1 brush0" points="603,264 599,241 600,219 608,202 621,195 629,195 636,197 643,199 648,203 652,209 655,217 657,227 658,239 656,269 650,292 642,310 631,323 619,332 607,337 594,340 583,341 571,340 559,337 547,332 535,323 525,310 516,292 511,269 509,239 510,227 512,217 515,209 519,203 525,199 531,197 539,195 547,195 560,202 567,219 569,241 564,264 561,273 559,282 557,291 557,299 559,306 563,312 571,316 583,317 595,316 603,313 608,307 610,301 610,293 608,284 606,274 603,264"/>
<polygon class="pen1 brush2" points="314,91 312,90 308,88 301,85 291,82 280,78 267,74 253,70 239,66 224,63 209,62 194,61 180,62 167,65 155,70 146,78 138,88 195,81 172,112 173,112 180,110 192,107 209,103 229,99 254,95 282,92 314,91"/>
</g>
</svg>
