<?xml version="1.0" encoding="UTF-8" standalone="no"?>
<!DOCTYPE svg PUBLIC "-//W3C//DTD SVG 1.0//EN" "http://www.w3.org/TR/2001/REC-SVG-20010904/DTD/svg10.dtd">
<svg xmlns="http://www.w3.org/2000/svg" xmlns:xlink="http://www.w3.org/1999/xlink" fill-rule="evenodd" height="1.448in" preserveAspectRatio="none" stroke-linecap="round" viewBox="0 0 1967 1448" width="1.967in">
<style type="text/css">
.brush0 { fill: rgb(255,255,255); }
.pen0 { stroke: rgb(0,0,0); stroke-width: 1; stroke-linejoin: round; }
.brush1 { fill: none; }
.pen1 { stroke: none; }
.brush2 { fill: rgb(0,0,0); }
</style>
<g>
<polygon class="pen1 brush2" points="449,1014 464,1005 479,993 496,979 512,963 529,945 546,927 562,908 578,889 593,871 606,853 619,837 629,823 638,811 644,802 649,796 650,794 654,833 656,860 658,876 659,881 703,839 736,795 760,752 775,711 784,676 789,647 790,629 790,622 805,658 811,682 813,694 815,693 832,644 842,595 846,546 846,501 844,462 840,431 836,410 835,403 849,414 859,424 867,433 872,440 876,447 878,452 879,455 879,456 876,417 869,376 860,336 849,298 837,265 828,239 821,222 818,216 830,223 840,229 847,233 852,236 856,238 858,239 859,240 859,240 846,216 832,194 819,173 805,153 791,134 778,117 764,100 750,86 736,72 722,60 707,50 693,41 678,33 663,27 648,23 632,20 622,19 612,19 602,19 592,19 581,20 571,22 561,24 551,27 537,32 523,37 509,44 495,52 481,61 466,71 451,82 436,94 425,85 414,76 402,68 391,61 380,55 370,49 359,43 349,38 336,33 323,29 310,26 298,24 286,23 274,23 262,23 250,24 234,27 218,31 203,38 187,45 172,55 158,65 143,77 129,91 115,106 101,122 87,139 74,158 60,178 47,199 33,221 20,244 20,244 21,243 23,242 27,239 32,236 39,232 49,227 61,220 58,226 51,243 42,269 31,302 19,339 10,379 3,420 0,460 0,459 1,456 3,451 7,444 13,437 20,428 31,418 44,408 43,415 39,435 35,466 33,505 33,550 37,598 47,648 65,696 65,695 64,692 64,687 65,680 67,671 72,659 79,645 89,628 89,635 90,653 95,681 104,716 119,757 143,800 176,843 220,885 221,880 222,865 225,838 227,798 238,813 250,829 261,844 274,860 286,875 299,890 312,906 326,920 340,935 355,948 369,961 385,974 400,985 416,996 432,1006 449,1014 449,1014"/>
<polygon class="pen1 brush2" points="801,720 803,722 807,728 811,740 815,760 818,753 827,734 839,706 852,670 864,628 873,583 878,537 876,493 876,493 879,494 886,502 899,520 900,505 902,470 900,428 892,393 894,393 900,394 910,395 924,397 939,398 958,400 978,402 1000,403 1022,404 1046,405 1069,405 1092,404 1115,402 1136,400 1156,397 1174,392 1193,387 1217,384 1245,383 1276,383 1310,385 1345,388 1382,393 1420,400 1457,409 1493,419 1528,430 1560,444 1590,459 1617,476 1639,494 1656,514 1659,514 1666,514 1678,513 1693,511 1711,509 1730,504 1751,498 1773,490 1795,479 1815,466 1834,449 1851,430 1865,406 1875,378 1881,347 1882,310 1878,275 1871,245 1861,220 1850,200 1836,183 1821,171 1805,162 1789,156 1772,153 1755,153 1740,154 1725,157 1711,162 1699,167 1689,173 1682,179 1683,180 1684,183 1686,188 1688,194 1690,202 1691,210 1690,220 1688,229 1683,239 1676,250 1665,259 1651,269 1632,278 1609,285 1581,292 1547,297 1546,291 1544,275 1545,253 1549,227 1560,201 1580,177 1611,160 1656,151 1659,149 1666,145 1677,139 1692,132 1710,125 1730,119 1752,114 1776,112 1801,114 1825,120 1850,131 1874,148 1896,172 1917,203 1935,244 1950,294 1953,307 1954,323 1955,342 1953,364 1950,387 1944,411 1935,436 1924,462 1909,488 1891,513 1869,538 1843,561 1812,582 1777,602 1736,618 1690,632 1680,678 1668,726 1657,776 1644,827 1630,877 1615,925 1599,971 1582,1014 1619,1158 1501,1443 1324,1443 1324,1440 1325,1431 1328,1418 1333,1402 1342,1387 1354,1372 1372,1360 1395,1353 1396,1347 1401,1332 1407,1308 1415,1279 1425,1246 1436,1212 1448,1179 1460,1149 1434,1122 1409,1094 1385,1064 1361,1032 1339,1000 1317,966 1297,931 1278,895 1261,859 1245,822 1230,784 1218,747 1207,709 1198,671 1191,633 1186,595 1182,637 1182,682 1185,727 1192,774 1202,819 1217,863 1235,905 1257,942 1254,943 1247,946 1235,949 1219,952 1200,955 1177,957 1153,956 1126,953 1127,954 1130,956 1135,960 1143,965 1153,971 1165,977 1181,984 1199,990 1198,990 1193,991 1187,993 1178,995 1166,997 1153,999 1139,1000 1123,1002 1106,1003 1088,1004 1069,1004 1049,1003 1030,1001 1010,997 990,993 971,987 971,988 971,991 973,996 977,1002 984,1010 995,1019 1010,1029 1031,1040 1029,1040 1025,1041 1017,1042 1007,1042 995,1043 981,1044 966,1044 950,1044 932,1044 915,1042 897,1040 879,1037 861,1033 845,1028 829,1022 815,1014 816,1015 818,1019 821,1025 827,1031 835,1039 845,1048 858,1056 873,1064 872,1064 869,1063 864,1062 857,1060 848,1057 839,1054 828,1051 816,1047 803,1042 790,1038 777,1032 763,1026 749,1020 736,1014 723,1006 710,999 708,1008 701,1034 694,1073 688,1122 684,1180 686,1244 694,1309 713,1375 666,1448 659,1448 650,1448 640,1448 628,1448 615,1448 602,1448 588,1448 574,1448 560,1448 547,1448 536,1448 525,1448 516,1448 510,1448 505,1448 504,1448 503,1446 500,1440 498,1429 498,1415 502,1397 511,1375 528,1350 555,1321 554,1313 551,1291 547,1259 541,1222 534,1182 525,1145 515,1114 505,1092 496,1078 488,1068 483,1061 479,1056 476,1053 475,1052 474,1051 474,1051 495,1034 517,1013 539,990 561,966 582,943 600,922 614,903 625,889 626,893 629,902 633,918 636,937 648,929 661,920 674,910 687,898 700,886 712,873 725,859 737,845 749,830 760,814 770,799 779,783 786,767 793,751 798,735 801,720"/>
<polygon class="pen1 brush0" points="629,186 635,178 643,171 653,168 664,166 676,166 687,168 699,173 709,179 718,188 725,198 729,209 730,223 728,238 721,255 709,274 692,294 700,251 663,256 692,223 645,223 666,190 629,186 629,186"/>
<polygon class="pen1 brush0" points="251,192 245,184 237,178 227,174 216,172 204,173 193,175 181,179 171,186 162,194 155,204 150,216 149,230 152,245 159,262 170,281 187,301 179,257 216,261 187,229 234,229 211,196 251,192 251,192"/>
<polygon class="pen1 brush0" points="484,436 472,445 465,458 462,474 465,490 473,506 486,518 506,526 532,527 556,519 572,502 580,480 584,456 584,432 582,412 579,397 578,392 592,375 605,356 616,335 623,312 627,289 625,263 618,237 605,209 595,194 584,181 571,172 558,165 544,160 531,156 517,155 503,155 491,156 479,157 468,159 458,162 451,164 445,166 441,167 440,168 431,165 421,162 411,159 400,157 389,155 378,153 367,153 356,153 344,155 333,158 322,162 312,167 302,175 292,184 283,196 274,209 260,237 253,263 252,289 255,312 263,335 273,356 286,375 301,392 300,397 297,412 295,432 294,456 297,480 306,502 322,519 346,527 372,526 392,518 406,506 414,490 417,474 415,458 408,445 396,436 377,426 368,417 367,410 373,404 386,399 402,395 421,393 442,392 462,393 481,395 497,398 509,403 515,409 514,416 504,425 484,436 484,436"/>
<polygon class="pen1 brush0" points="388,597 379,586 378,574 381,562 390,551 401,541 415,533 430,529 444,527 460,529 474,535 486,544 496,554 502,566 505,578 503,589 497,599 487,605 475,609 460,611 443,612 427,611 412,608 398,603 388,597"/>
<polygon class="pen1 brush2" points="540,305 546,304 552,303 557,300 562,296 566,291 569,286 570,280 571,274 570,268 569,262 566,256 562,251 557,247 552,244 546,242 540,241 533,242 527,244 521,247 516,251 512,256 509,262 508,268 507,274 508,280 509,286 512,291 516,296 521,300 527,303 533,304 540,305 540,305"/>
<polygon class="pen1 brush2" points="332,311 338,310 344,309 349,306 354,302 358,297 361,292 362,286 363,280 362,274 361,268 358,262 354,257 349,253 344,250 338,248 332,247 326,248 320,250 315,253 310,257 306,262 303,268 302,274 301,280 302,286 303,292 306,297 310,302 315,306 320,309 326,310 332,311"/>
</g>
</svg>
