<?xml version="1.0" encoding="UTF-8" standalone="no"?>
<!DOCTYPE svg PUBLIC "-//W3C//DTD SVG 1.0//EN" "http://www.w3.org/TR/2001/REC-SVG-20010904/DTD/svg10.dtd">
<svg xmlns="http://www.w3.org/2000/svg" xmlns:xlink="http://www.w3.org/1999/xlink" fill-rule="evenodd" height="1.981in" preserveAspectRatio="none" stroke-linecap="round" viewBox="0 0 1736 1981" width="1.736in">
<style type="text/css">
.brush0 { fill: rgb(255,255,255); }
.pen0 { stroke: rgb(0,0,0); stroke-width: 1; stroke-linejoin: round; }
.brush1 { fill: none; }
.pen1 { stroke: none; }
.brush2 { fill: rgb(0,0,0); }
</style>
<g>
<polygon class="pen1 brush2" points="949,399 938,396 927,394 916,392 905,389 894,387 883,386 872,384 860,382 849,381 837,380 826,379 814,378 803,377 791,376 779,376 767,376 728,377 688,380 649,384 611,390 573,398 536,408 500,419 464,433 430,448 396,464 364,483 333,503 304,525 276,549 250,574 225,601 200,633 176,665 154,698 133,731 114,765 97,799 81,834 67,869 54,905 43,940 33,976 25,1012 18,1048 13,1084 9,1119 6,1155 5,1195 5,1235 8,1275 12,1314 18,1352 26,1390 36,1426 47,1462 58,1492 70,1522 84,1551 99,1578 115,1605 133,1631 152,1656 172,1679 195,1710 221,1739 250,1767 281,1793 314,1818 349,1841 386,1863 425,1882 466,1900 508,1916 551,1930 596,1942 642,1952 688,1960 736,1965 784,1968 813,1969 843,1969 873,1968 902,1966 932,1963 962,1959 992,1954 1022,1948 1051,1941 1081,1933 1110,1925 1140,1915 1169,1904 1198,1892 1226,1878 1255,1864 1283,1849 1310,1832 1337,1815 1364,1796 1391,1776 1417,1754 1442,1732 1467,1708 1491,1683 1515,1657 1538,1630 1560,1601 1582,1571 1603,1540 1623,1507 1642,1473 1665,1414 1685,1356 1701,1298 1714,1240 1723,1184 1729,1128 1733,1074 1733,1020 1731,967 1727,915 1719,864 1710,814 1698,766 1684,718 1668,672 1651,628 1626,574 1599,522 1570,473 1539,428 1507,385 1473,346 1439,310 1404,279 1368,251 1333,227 1298,207 1264,191 1230,180 1198,174 1168,173 1139,176 1136,177 1131,178 1127,179 1122,180 1117,171 1111,161 1103,151 1095,141 1087,132 1077,125 1068,121 1058,119 1050,119 1041,120 1029,120 1016,121 1001,122 986,123 969,124 953,125 947,116 941,107 935,98 930,89 926,79 922,69 918,58 915,47 919,42 921,37 923,32 923,27 921,16 916,7 907,2 896,0 885,2 877,7 871,16 869,27 871,36 876,44 884,50 894,54 897,61 900,68 904,77 909,86 914,95 919,105 925,116 932,126 919,127 906,128 894,128 883,129 873,130 865,130 857,131 851,131 852,132 855,134 861,137 871,141 884,146 902,150 926,154 956,158 964,167 972,175 981,184 991,191 1001,199 1011,205 1022,211 1033,217 1005,239 987,263 977,288 974,313 975,337 981,360 988,381 996,399 1008,404 1020,410 1032,416 1044,421 1056,428 1069,434 1082,441 1095,449 1109,457 1123,466 1138,476 1154,487 1170,498 1187,511 1204,525 1223,540 1260,572 1292,606 1322,642 1347,678 1370,716 1390,755 1406,795 1420,835 1431,875 1440,915 1447,955 1452,995 1455,1034 1456,1072 1455,1109 1453,1144 1449,1183 1444,1222 1437,1258 1429,1294 1420,1328 1409,1360 1396,1392 1382,1422 1367,1450 1351,1478 1334,1504 1315,1528 1295,1552 1275,1574 1253,1595 1230,1614 1206,1632 1181,1649 1155,1665 1128,1679 1101,1692 1073,1704 1044,1715 1014,1724 983,1732 952,1739 920,1744 888,1748 855,1751 821,1753 787,1754 753,1753 681,1746 615,1734 554,1715 498,1691 447,1662 401,1628 361,1591 324,1550 293,1506 265,1460 242,1412 224,1363 209,1313 197,1262 190,1211 186,1161 187,1116 194,1068 206,1019 222,970 244,920 269,871 299,824 333,778 371,736 412,696 457,661 504,631 555,607 609,589 665,578 723,574 771,576 819,581 867,589 914,600 959,615 1002,634 1044,657 1082,685 1118,717 1150,755 1179,799 1203,848 1222,904 1237,966 1246,1035 1249,1111 1248,1152 1242,1192 1231,1231 1216,1270 1197,1307 1174,1343 1147,1377 1117,1408 1083,1437 1047,1464 1008,1487 966,1506 923,1522 877,1533 829,1541 780,1543 742,1541 705,1536 670,1528 637,1516 605,1501 576,1483 549,1462 524,1438 501,1411 481,1381 464,1348 450,1313 439,1275 431,1234 426,1191 425,1145 428,1112 434,1080 442,1049 453,1019 467,990 483,962 501,936 521,912 542,889 565,869 590,851 616,836 643,824 672,814 700,808 730,805 774,806 813,812 847,822 878,835 905,852 928,872 948,894 965,918 979,943 990,969 998,995 1005,1022 1009,1047 1012,1071 1013,1094 1013,1115 1011,1139 1006,1162 1000,1184 991,1205 981,1224 969,1243 955,1259 940,1274 923,1288 905,1299 885,1309 864,1317 842,1323 819,1326 794,1328 769,1327 748,1324 729,1319 712,1312 696,1304 682,1295 668,1284 657,1272 646,1260 637,1247 630,1233 623,1219 618,1205 613,1190 610,1176 608,1162 607,1148 611,1111 625,1078 646,1050 670,1026 694,1007 715,993 730,985 736,982 740,992 735,995 721,1002 702,1015 679,1032 657,1053 638,1079 625,1110 621,1144 624,1171 630,1198 640,1224 655,1249 674,1271 699,1289 730,1301 767,1308 791,1309 814,1308 836,1305 857,1300 877,1293 896,1284 913,1274 929,1261 944,1247 956,1232 968,1215 977,1197 985,1177 990,1157 994,1135 996,1112 996,1093 995,1071 993,1048 989,1024 984,1000 976,975 966,951 953,927 938,905 919,884 898,866 873,850 844,837 811,827 774,822 733,821 705,824 677,829 650,838 624,849 598,863 574,879 552,898 531,918 511,941 494,966 479,993 466,1021 455,1051 447,1082 442,1114 440,1148 441,1191 446,1232 454,1271 464,1308 478,1342 494,1373 513,1402 535,1428 558,1451 584,1472 613,1489 643,1504 675,1515 708,1523 743,1528 780,1530 826,1528 872,1522 915,1512 957,1498 996,1480 1034,1460 1068,1436 1101,1409 1130,1380 1156,1348 1178,1313 1198,1276 1213,1238 1224,1197 1231,1155 1233,1112 1230,1040 1222,974 1209,914 1191,861 1169,813 1143,770 1113,733 1080,700 1044,673 1004,649 963,630 919,615 874,603 826,595 778,590 729,588 674,591 620,601 568,618 519,641 472,669 428,702 387,739 349,780 315,824 285,870 260,918 238,967 222,1016 210,1066 204,1114 203,1162 207,1215 215,1268 226,1319 241,1370 260,1418 283,1465 310,1509 341,1550 377,1588 417,1622 461,1653 511,1679 565,1701 623,1718 687,1729 756,1735 789,1736 821,1736 853,1734 884,1732 915,1728 946,1723 976,1717 1005,1710 1034,1701 1062,1691 1090,1680 1116,1668 1142,1655 1168,1640 1192,1624 1215,1607 1238,1588 1259,1568 1280,1547 1299,1524 1318,1500 1335,1475 1351,1448 1366,1420 1379,1391 1392,1360 1403,1328 1412,1294 1420,1259 1427,1222 1432,1184 1436,1144 1438,1107 1438,1068 1437,1029 1433,989 1428,948 1421,908 1411,867 1399,826 1385,786 1368,747 1348,709 1325,672 1299,636 1270,603 1238,571 1202,541 1181,525 1160,510 1141,497 1123,485 1106,474 1090,464 1074,455 1059,447 1045,440 1030,434 1017,427 1003,421 990,416 976,410 963,405 949,399 949,399"/>
<polygon class="pen1 brush2" points="1091,189 1086,191 1081,193 1076,195 1071,197 1066,199 1062,201 1058,204 1054,206 1047,202 1040,198 1032,193 1024,188 1015,182 1006,175 996,169 987,161 993,161 1000,162 1007,162 1014,162 1021,162 1029,162 1036,162 1044,162 1049,162 1055,163 1060,164 1066,166 1073,170 1079,175 1085,181 1091,189"/>
</g>
</svg>
