<?xml version="1.0" encoding="UTF-8" standalone="no"?>
<!DOCTYPE svg PUBLIC "-//W3C//DTD SVG 1.0//EN" "http://www.w3.org/TR/2001/REC-SVG-20010904/DTD/svg10.dtd">
<svg xmlns="http://www.w3.org/2000/svg" xmlns:xlink="http://www.w3.org/1999/xlink" fill-rule="evenodd" height="0.581in" preserveAspectRatio="none" stroke-linecap="round" viewBox="0 0 1980 581" width="1.98in">
<style type="text/css">
.brush0 { fill: rgb(255,255,255); }
.pen0 { stroke: rgb(0,0,0); stroke-width: 1; stroke-linejoin: round; }
.brush1 { fill: none; }
.pen1 { stroke: none; }
.brush2 { fill: rgb(0,0,0); }
</style>
<g>
<polygon class="pen1 brush0" points="336,340 345,339 354,336 362,332 368,326 374,319 378,311 381,302 382,293 381,284 378,275 374,267 368,260 362,254 354,250 345,247 336,246 327,247 318,250 310,254 304,260 298,267 294,275 291,284 290,293 291,302 294,311 298,319 304,326 310,332 318,336 327,339 336,340"/>
<polygon class="pen1 brush0" points="235,350 243,349 250,347 256,344 262,339 267,333 270,327 272,320 273,313 272,306 270,299 267,293 262,287 256,283 250,280 243,278 235,277 227,278 220,280 214,283 208,287 203,293 200,299 198,306 197,313 198,320 200,327 203,333 208,339 214,344 220,347 227,349 235,350"/>
<polygon class="pen1 brush2" points="102,322 118,322 74,228 60,227 102,322 102,322"/>
<polygon class="pen1 brush2" points="75,336 95,336 17,238 0,238 75,336"/>
<polygon class="pen1 brush2" points="284,223 277,223 270,224 263,225 256,226 250,228 244,230 238,232 232,234 240,291 250,293 258,299 263,307 265,317 263,327 258,335 250,340 240,342 230,340 222,335 216,327 214,317 216,307 222,299 230,293 240,291 232,234 211,246 193,261 176,278 160,296 144,314 128,331 111,345 92,357 94,359 99,363 106,370 116,379 126,388 136,397 146,406 155,413 164,419 174,425 186,431 200,435 214,437 229,437 244,435 260,430 269,427 279,424 290,422 303,420 316,418 330,417 345,417 360,417 375,417 391,418 406,420 420,422 434,424 448,428 461,432 472,437 495,447 520,455 545,463 569,468 590,473 607,476 618,478 622,479 611,457 603,436 599,415 596,396 596,377 597,361 600,346 603,334 603,334 603,334 606,325 609,319 611,316 612,317 611,321 611,325 610,329 609,333 609,333 609,360 613,386 621,410 631,432 643,450 654,466 663,478 671,486 680,499 682,510 676,518 664,521 629,524 606,530 594,540 589,551 589,562 593,572 596,578 598,581 619,563 632,581 654,556 667,574 727,574 737,558 742,527 744,497 744,483 756,487 773,490 795,493 821,495 849,497 879,498 910,499 942,499 973,499 1002,499 1030,499 1054,498 1074,498 1090,497 1100,497 1103,497 1079,475 1058,454 1042,432 1029,411 1019,391 1012,371 1007,352 1005,334 1005,334 1006,311 1009,290 1014,271 1020,254 1026,241 1032,231 1036,225 1037,223 1031,254 1029,283 1029,309 1032,334 1032,334 1038,359 1046,381 1056,401 1068,419 1081,435 1094,450 1108,462 1122,473 1135,483 1148,491 1160,498 1170,503 1178,507 1184,510 1187,513 1187,514 1149,516 1117,519 1091,522 1071,527 1056,532 1045,537 1037,543 1033,548 1032,554 1032,559 1035,564 1038,568 1041,572 1044,575 1046,576 1047,577 1065,553 1086,570 1103,546 1117,563 1122,563 1137,564 1158,564 1182,564 1207,565 1230,565 1249,564 1260,563 1266,562 1270,560 1272,556 1275,548 1277,536 1281,519 1285,494 1292,462 1298,445 1308,432 1322,421 1339,412 1359,406 1382,401 1408,398 1437,396 1467,395 1500,395 1534,395 1570,395 1608,395 1646,394 1685,392 1725,389 1736,388 1748,385 1760,383 1773,380 1786,376 1799,371 1813,366 1827,360 1840,354 1854,347 1867,340 1880,332 1892,324 1904,315 1915,305 1925,295 1938,281 1948,266 1957,250 1963,233 1966,215 1966,197 1963,177 1956,157 1951,146 1946,135 1939,124 1931,115 1920,108 1906,104 1889,103 1869,106 1861,108 1853,111 1844,114 1834,118 1824,122 1813,127 1802,133 1790,140 1777,147 1764,155 1750,164 1735,174 1720,185 1704,197 1687,209 1669,223 1626,253 1586,275 1549,290 1515,297 1482,298 1452,294 1423,285 1396,271 1370,254 1344,234 1320,211 1296,187 1272,162 1248,137 1223,111 1198,87 1183,74 1167,62 1150,51 1133,41 1115,33 1096,25 1077,18 1058,13 1043,10 1028,7 1012,5 997,3 981,2 965,2 949,2 933,3 916,5 898,7 881,10 864,14 847,18 830,23 813,29 797,36 780,43 764,51 748,59 733,69 718,78 703,89 689,100 675,112 647,135 618,155 590,171 562,185 535,196 508,205 481,212 456,217 430,220 406,223 383,224 361,224 339,224 320,224 301,223 284,223 308,292 312,287 317,281 323,276 331,271 339,267 347,265 356,266 366,269 368,270 368,271 369,276 370,282 369,290 367,299 362,309 353,319 341,329 341,328 342,324 344,321 345,319 358,303 363,288 363,277 362,273 355,271 348,270 341,272 335,275 329,279 325,283 320,287 317,291 315,292 312,292 309,292 308,292 284,223"/>
</g>
</svg>
