<?xml version="1.0" encoding="UTF-8" standalone="no"?>
<!DOCTYPE svg PUBLIC "-//W3C//DTD SVG 1.0//EN" "http://www.w3.org/TR/2001/REC-SVG-20010904/DTD/svg10.dtd">
<svg xmlns="http://www.w3.org/2000/svg" xmlns:xlink="http://www.w3.org/1999/xlink" fill-rule="evenodd" height="0.856in" preserveAspectRatio="none" stroke-linecap="round" viewBox="0 0 2046 856" width="2.046in">
<style type="text/css">
.brush0 { fill: rgb(255,255,255); }
.pen0 { stroke: rgb(0,0,0); stroke-width: 1; stroke-linejoin: round; }
.brush1 { fill: none; }
.pen1 { stroke: none; }
.brush2 { fill: rgb(0,0,0); }
</style>
<g>
<polygon class="pen1 brush2" points="143,437 147,424 154,407 163,387 173,366 183,344 192,323 200,304 205,288 210,274 218,261 228,250 240,240 252,233 265,226 279,221 292,217 294,207 296,196 300,185 305,174 311,164 318,154 326,144 336,136 340,141 348,154 358,176 365,206 368,205 377,202 390,199 406,196 424,195 442,195 459,199 474,206 488,213 503,216 519,215 535,211 552,206 567,201 582,196 595,193 602,192 609,192 614,192 613,192 613,192 616,192 622,193 630,194 638,196 648,197 658,200 667,203 674,206 682,210 689,214 697,219 704,224 712,230 720,237 728,244 730,246 733,248 736,250 741,251 745,251 749,251 754,252 759,252 764,252 770,253 776,253 782,253 787,253 791,253 796,253 800,252 805,252 809,251 814,251 819,251 824,251 829,251 834,251 839,250 844,250 850,249 855,249 860,248 885,246 912,244 939,242 967,239 995,236 1023,233 1050,230 1077,227 1103,224 1128,221 1151,218 1173,215 1192,212 1209,210 1223,208 1234,206 1241,205 1248,204 1256,203 1263,202 1271,201 1279,201 1287,200 1295,200 1306,200 1317,200 1328,201 1339,201 1350,202 1361,203 1372,203 1382,204 1393,205 1403,206 1413,208 1423,209 1432,210 1441,211 1449,213 1457,214 1463,215 1469,216 1474,217 1478,219 1482,220 1486,221 1489,223 1492,224 1494,224 1500,224 1508,225 1520,225 1534,226 1549,227 1567,228 1585,229 1604,230 1623,230 1643,231 1661,232 1679,233 1695,233 1709,234 1721,234 1733,234 1746,234 1760,234 1776,233 1792,232 1809,230 1826,227 1843,225 1860,221 1876,218 1891,213 1906,208 1919,203 1931,197 1940,190 1948,183 1960,168 1969,153 1976,138 1980,123 1980,109 1978,96 1972,86 1963,78 1953,74 1944,73 1935,75 1928,79 1922,85 1918,93 1916,101 1916,109 1915,117 1910,123 1904,126 1897,128 1890,126 1885,121 1881,112 1882,99 1892,68 1907,48 1926,38 1947,35 1967,40 1986,49 2001,62 2011,78 2016,96 2017,116 2014,137 2008,159 1998,181 1985,201 1967,220 1946,237 1934,244 1921,251 1908,257 1894,262 1879,266 1864,270 1849,273 1833,276 1817,278 1801,280 1785,281 1768,282 1752,283 1735,284 1719,284 1703,284 1687,284 1671,284 1655,285 1639,285 1624,286 1610,287 1596,288 1583,289 1572,290 1562,291 1553,293 1546,294 1541,296 1538,297 1537,299 1538,301 1566,331 1591,362 1613,393 1632,424 1649,453 1662,480 1673,504 1680,524 1683,524 1693,523 1708,521 1726,520 1748,519 1771,518 1795,518 1819,520 1832,521 1845,523 1856,525 1867,528 1876,532 1884,536 1891,541 1896,547 1908,567 1920,591 1933,618 1947,647 1962,675 1977,702 1992,726 2008,746 2019,763 2022,780 2020,797 2013,811 2001,821 1986,826 1969,823 1951,811 1937,798 1924,785 1912,772 1901,758 1892,742 1885,723 1881,702 1879,676 1877,677 1871,678 1860,680 1847,683 1829,686 1808,689 1784,691 1758,692 1728,692 1696,691 1662,688 1626,684 1588,677 1548,667 1507,655 1464,639 1451,634 1439,628 1426,623 1413,616 1400,610 1388,603 1375,596 1362,588 1350,581 1338,574 1326,566 1314,558 1302,550 1289,541 1277,533 1265,523 1253,514 1240,504 1228,494 1216,483 1204,472 1191,461 1179,449 1167,437 1158,429 1150,420 1141,411 1133,401 1125,392 1116,382 1108,372 1099,362 1107,388 1121,414 1139,440 1160,465 1182,490 1205,513 1227,533 1247,551 1245,552 1238,557 1227,563 1212,571 1193,581 1171,592 1145,603 1117,615 1105,620 1092,624 1079,629 1066,633 1052,637 1037,641 1023,645 1008,649 991,653 975,657 957,661 940,665 923,669 906,673 889,676 872,679 866,680 859,681 852,682 846,682 839,683 832,683 825,684 819,684 815,685 811,685 807,686 802,686 798,686 794,686 789,686 785,686 781,686 778,686 774,686 770,686 766,686 763,685 759,685 755,684 752,684 748,684 744,684 740,684 737,685 733,685 729,686 725,686 720,686 716,686 710,687 705,687 699,688 692,689 685,690 678,691 670,692 663,692 654,693 646,694 617,698 586,702 554,707 521,712 488,717 455,722 422,727 390,733 359,738 330,743 304,748 280,753 260,757 243,761 231,764 223,767 209,773 195,778 182,782 170,784 159,786 150,786 142,784 136,781 127,778 111,779 92,781 75,782 62,779 58,770 67,753 92,724 97,721 104,718 113,715 125,712 137,709 151,706 166,703 181,700 197,697 212,694 227,691 241,688 254,685 266,682 276,679 284,676 292,671 302,665 314,655 328,644 344,632 360,618 376,604 393,589 410,574 426,558 441,543 455,529 466,516 476,504 483,494 487,486 486,486 481,485 475,483 467,482 457,480 446,478 435,477 423,476 417,475 411,474 405,474 400,474 397,474 395,474 393,474 392,474 389,475 383,478 372,481 360,484 346,487 331,489 317,489 305,486 290,490 275,495 260,498 245,500 231,501 218,499 205,495 193,488 191,487 188,486 185,485 181,483 180,482 179,480 177,479 176,478 171,476 166,473 161,469 157,465 153,461 149,457 146,452 144,447 143,445 143,442 143,439 143,437"/>
<polygon class="pen1 brush0" points="1295,200 1255,372 1325,211 1326,255 1327,352 1329,446 1332,483 1336,468 1344,436 1354,393 1366,345 1377,298 1387,257 1393,228 1396,217 1423,436 1457,214 1441,212 1427,209 1413,208 1401,206 1390,205 1379,203 1370,202 1361,202 1352,201 1344,201 1336,200 1328,200 1320,200 1312,200 1304,200 1295,200 1295,200"/>
<polygon class="pen1 brush0" points="819,251 823,487 860,248 819,251 819,251"/>
<polygon class="pen1 brush0" points="741,251 755,385 782,253 741,251 741,251"/>
<polygon class="pen1 brush0" points="613,192 677,490 667,203 664,202 658,200 651,198 642,196 633,195 625,193 618,192 613,192 613,192"/>
<polygon class="pen1 brush0" points="1653,599 1723,525 1713,633 1772,524 1786,606 1819,520 1801,519 1783,518 1764,518 1745,519 1727,520 1709,521 1694,522 1680,524 1653,599 1653,599"/>
<polygon class="pen1 brush0" points="1558,538 1464,639 1451,634 1438,629 1425,623 1413,618 1401,611 1389,604 1376,597 1362,588 1390,481 1393,599 1532,409 1433,619 1558,538 1558,538"/>
<polygon class="pen1 brush0" points="1117,615 1133,500 1088,619 1052,491 1055,630 957,525 1008,649 1018,647 1028,646 1039,644 1051,641 1064,637 1079,631 1097,624 1117,615 1117,615"/>
<polygon class="pen1 brush0" points="872,679 866,680 859,681 853,682 846,682 840,683 833,683 826,684 819,684 927,375 872,679 872,679"/>
<polygon class="pen1 brush0" points="785,686 745,494 740,684 745,685 752,686 759,686 766,686 773,686 778,686 783,686 785,686 785,686"/>
<polygon class="pen1 brush0" points="705,687 698,688 691,689 684,690 677,691 669,692 662,693 654,694 646,694 569,436 705,687 705,687"/>
<polygon class="pen1 brush0" points="505,714 525,585 465,720 438,650 413,728 379,680 387,734 505,714 505,714"/>
<polygon class="pen1 brush0" points="423,476 425,473 429,464 434,450 440,431 444,408 445,380 442,349 434,315 434,318 434,328 433,343 431,363 427,386 421,413 412,443 400,474 423,476"/>
<polygon class="pen1 brush0" points="271,351 281,349 289,343 294,335 296,325 294,315 289,306 281,300 271,298 261,300 252,306 246,315 244,325 246,335 252,343 261,349 271,351 271,351"/>
<polygon class="pen1 brush0" points="144,447 148,446 154,445 160,443 166,440 173,438 179,435 184,432 188,430 187,436 184,451 180,467 176,478 170,475 165,472 160,469 156,465 153,461 149,456 146,452 144,447 144,447"/>
<polygon class="pen1 brush0" points="193,488 195,488 199,486 205,484 214,480 223,474 234,467 244,458 255,446 243,454 230,462 218,468 206,473 196,478 188,481 183,482 181,483 193,488"/>
</g>
</svg>
