<?xml version="1.0" encoding="UTF-8" standalone="no"?>
<!DOCTYPE svg PUBLIC "-//W3C//DTD SVG 1.0//EN" "http://www.w3.org/TR/2001/REC-SVG-20010904/DTD/svg10.dtd">
<svg xmlns="http://www.w3.org/2000/svg" xmlns:xlink="http://www.w3.org/1999/xlink" fill-rule="evenodd" height="1.978in" preserveAspectRatio="none" stroke-linecap="round" viewBox="0 0 1083 1978" width="1.083in">
<style type="text/css">
.brush0 { fill: rgb(255,255,255); }
.pen0 { stroke: rgb(0,0,0); stroke-width: 1; stroke-linejoin: round; }
.brush1 { fill: none; }
.pen1 { stroke: none; }
.brush2 { fill: rgb(0,0,0); }
</style>
<g>
<polygon class="pen1 brush2" points="617,334 614,323 610,311 604,298 597,285 587,273 575,262 560,253 543,247 544,243 548,235 556,227 570,223 569,214 567,192 561,167 552,149 555,149 561,150 570,153 579,159 577,148 573,122 566,93 556,74 557,75 560,77 564,81 570,85 575,89 581,94 586,98 590,101 588,87 583,55 576,21 567,0 569,1 574,6 582,13 592,23 603,35 616,51 628,69 640,90 651,114 661,141 668,170 672,202 673,237 669,275 661,315 648,358 644,355 640,352 636,349 632,346 628,343 625,340 621,337 617,334 617,334"/>
<polygon class="pen1 brush2" points="449,338 452,327 456,314 462,301 470,287 479,274 491,263 506,254 523,247 522,243 518,235 510,227 495,223 496,214 499,192 505,167 515,149 512,149 505,150 496,154 488,161 489,150 493,124 500,95 509,75 508,76 505,78 501,82 496,86 490,90 485,95 480,100 476,104 478,90 483,57 490,22 498,0 496,1 491,6 483,13 473,24 462,37 449,53 437,72 425,93 414,118 405,145 398,175 393,208 393,243 396,281 404,321 418,364 422,361 426,357 429,354 433,350 437,347 441,344 445,341 449,338 449,338"/>
<polygon class="pen1 brush2" points="572,1010 591,1003 609,994 627,983 644,969 659,953 674,935 688,915 701,894 712,871 722,846 731,820 738,792 744,764 748,734 751,703 752,672 750,623 744,577 733,533 720,492 703,455 683,421 660,392 635,368 629,386 620,405 611,423 600,441 587,458 574,473 559,486 543,496 540,1010 545,1010 549,1010 553,1010 556,1010 560,1010 564,1010 568,1010 572,1010 572,1010"/>
<polygon class="pen1 brush2" points="624,362 613,355 603,348 592,342 580,337 569,333 557,330 545,329 533,328 522,328 511,330 501,332 491,335 481,339 471,343 462,349 452,355 461,384 472,409 483,430 494,447 506,462 516,473 525,481 533,486 542,481 552,473 564,463 577,449 590,433 602,413 614,389 624,362 624,362"/>
<polygon class="pen1 brush2" points="438,362 445,383 452,403 461,421 471,439 482,455 494,470 509,484 525,496 525,1007 518,1008 511,1009 503,1010 496,1010 477,1004 459,995 441,983 424,970 408,954 393,936 379,916 366,895 354,871 344,847 335,820 327,793 321,764 317,734 314,704 313,672 315,622 322,574 333,529 348,487 366,449 387,415 411,386 438,362 438,362"/>
<polygon class="pen1 brush2" points="698,1047 722,1036 741,1027 757,1019 770,1010 780,1003 790,995 799,986 809,977 818,964 826,948 832,927 837,904 840,879 844,853 847,826 850,800 853,776 856,762 859,757 864,759 881,648 891,648 873,761 874,765 876,768 877,772 877,776 876,788 874,810 870,840 866,875 860,912 853,948 845,979 837,1002 825,1019 808,1033 788,1046 768,1056 749,1064 733,1069 722,1073 718,1074 711,1057 704,1049 700,1047 698,1047 698,1047"/>
<polygon class="pen1 brush2" points="725,1098 725,1100 725,1106 724,1115 723,1127 725,1127 730,1126 738,1125 748,1124 761,1123 775,1121 791,1120 807,1119 824,1118 841,1118 858,1118 874,1118 888,1119 902,1121 913,1124 922,1128 937,1142 952,1162 965,1187 977,1214 987,1241 995,1264 1001,1282 1005,1293 1008,1299 1014,1306 1021,1312 1029,1315 1073,1433 1083,1433 1040,1317 1046,1315 1049,1308 1048,1294 1043,1273 1034,1245 1023,1216 1010,1187 996,1160 981,1136 966,1116 950,1103 935,1097 927,1096 915,1095 902,1095 887,1095 870,1095 852,1095 834,1095 816,1095 798,1096 782,1096 766,1097 753,1097 741,1097 733,1098 727,1098 725,1098 725,1098"/>
<polygon class="pen1 brush2" points="692,1166 698,1170 713,1181 735,1197 760,1215 786,1235 811,1253 831,1269 843,1279 854,1309 860,1363 862,1431 861,1500 861,1511 860,1519 860,1525 858,1530 975,1638 969,1648 854,1540 849,1546 844,1547 838,1544 833,1538 828,1530 824,1520 821,1510 820,1500 819,1458 817,1394 812,1332 803,1293 794,1281 777,1266 756,1250 734,1234 711,1219 692,1207 679,1198 674,1195 683,1185 689,1176 691,1169 692,1166 692,1166"/>
<polygon class="pen1 brush2" points="536,1202 552,1202 569,1200 584,1198 599,1195 613,1191 626,1186 639,1181 650,1175 661,1168 670,1161 678,1154 685,1145 691,1137 695,1128 697,1119 698,1109 697,1100 695,1090 691,1082 685,1073 678,1065 670,1057 661,1050 650,1044 639,1038 626,1033 613,1028 599,1024 584,1021 569,1019 552,1017 536,1017 520,1017 504,1019 488,1021 474,1024 460,1028 446,1033 434,1038 423,1044 412,1050 403,1057 395,1065 388,1073 382,1082 378,1090 376,1100 375,1109 376,1119 378,1128 382,1137 388,1145 395,1154 403,1161 412,1168 423,1175 434,1181 446,1186 460,1191 474,1195 488,1198 504,1200 520,1202 536,1202 536,1202"/>
<polygon class="pen1 brush2" points="364,1166 365,1169 368,1176 374,1185 384,1195 379,1198 365,1207 346,1219 323,1234 300,1250 279,1266 262,1281 252,1293 244,1332 239,1394 237,1458 236,1500 235,1510 233,1520 229,1530 224,1538 218,1544 213,1547 207,1546 202,1540 87,1648 83,1641 201,1530 199,1524 197,1516 196,1505 195,1493 194,1425 196,1360 203,1308 215,1279 227,1269 246,1253 270,1235 296,1215 322,1197 343,1181 358,1170 364,1166 364,1166"/>
<polygon class="pen1 brush2" points="350,1098 348,1098 343,1098 334,1097 323,1097 309,1097 294,1096 277,1096 259,1095 241,1095 223,1095 206,1095 189,1095 174,1095 161,1095 149,1096 141,1097 127,1103 112,1116 98,1136 84,1160 71,1187 59,1216 48,1245 39,1273 34,1294 34,1308 38,1315 43,1317 0,1433 10,1433 53,1315 61,1312 69,1306 76,1299 79,1293 82,1282 87,1264 94,1241 103,1214 114,1187 126,1162 139,1142 154,1128 163,1124 174,1121 188,1119 203,1118 219,1118 235,1118 252,1118 269,1119 286,1120 302,1121 316,1123 329,1124 339,1125 347,1126 352,1127 354,1127 352,1115 351,1106 350,1100 350,1098 350,1098"/>
<polygon class="pen1 brush2" points="384,1041 360,1030 341,1021 325,1013 312,1005 301,997 292,989 283,981 273,972 263,959 256,942 250,922 245,898 241,873 237,847 235,820 232,794 228,769 225,756 222,751 218,753 199,641 189,642 208,756 206,759 205,763 204,767 204,770 205,782 207,804 211,834 216,869 221,906 228,941 236,971 245,994 257,1012 274,1027 293,1039 313,1050 332,1058 348,1063 359,1067 363,1068 371,1051 378,1043 382,1041 384,1041 384,1041"/>
<polygon class="pen1 brush2" points="533,1909 517,1908 501,1905 485,1901 470,1894 456,1885 442,1873 429,1859 417,1843 661,1843 647,1860 632,1874 617,1885 601,1894 584,1901 567,1906 550,1908 533,1909 533,1909"/>
<polygon class="pen1 brush2" points="412,1839 406,1827 400,1815 394,1802 388,1789 691,1789 684,1802 678,1815 671,1827 664,1839 412,1839 412,1839"/>
<polygon class="pen1 brush2" points="387,1784 383,1770 378,1754 374,1738 371,1721 708,1721 705,1738 701,1754 697,1770 692,1784 387,1784 387,1784"/>
<polygon class="pen1 brush2" points="370,1716 368,1702 367,1687 365,1671 364,1655 718,1655 716,1671 714,1687 712,1702 709,1716 370,1716 370,1716"/>
<polygon class="pen1 brush2" points="364,1649 718,1649 718,1634 718,1618 718,1601 718,1584 363,1584 363,1601 363,1618 363,1634 364,1649 364,1649"/>
<polygon class="pen1 brush2" points="363,1580 718,1580 718,1565 717,1549 716,1534 715,1519 364,1519 364,1534 364,1549 364,1565 363,1580 363,1580"/>
<polygon class="pen1 brush2" points="367,1513 715,1513 713,1496 712,1480 710,1465 708,1450 374,1450 371,1465 369,1480 368,1496 367,1513 367,1513"/>
<polygon class="pen1 brush2" points="374,1446 706,1446 703,1426 700,1408 696,1390 692,1374 390,1374 386,1390 381,1408 377,1426 374,1446 374,1446"/>
<polygon class="pen1 brush2" points="391,1368 691,1368 686,1351 681,1336 676,1321 671,1307 411,1307 406,1321 401,1336 396,1352 391,1368 391,1368"/>
<polygon class="pen1 brush2" points="414,1303 420,1286 427,1271 433,1256 439,1243 641,1243 648,1256 656,1271 663,1286 670,1303 414,1303 414,1303"/>
<polygon class="pen1 brush2" points="441,1239 446,1229 452,1219 457,1209 462,1200 480,1204 499,1207 518,1209 538,1210 557,1210 577,1208 596,1204 614,1199 621,1209 627,1218 633,1228 638,1239 441,1239 441,1239"/>
<polygon class="pen1 brush2" points="448,1897 415,1978 489,1915 448,1897 448,1897"/>
<polygon class="pen1 brush2" points="635,1895 594,1915 668,1978 635,1895"/>
<polygon class="pen1 brush0" points="405,527 411,526 417,525 423,522 427,518 431,514 434,509 436,503 437,497 436,491 434,485 431,480 427,475 423,471 417,468 411,467 405,466 399,467 393,468 388,471 383,475 379,480 376,485 375,491 374,497 375,503 376,509 379,514 383,518 388,522 393,525 399,526 405,527"/>
<polygon class="pen1 brush0" points="661,523 655,522 649,521 644,518 640,514 636,509 633,504 632,498 631,492 632,486 633,480 636,474 640,470 644,466 649,463 655,461 661,460 667,461 673,463 678,466 682,470 686,474 689,480 690,486 691,492 690,498 689,504 686,509 682,514 678,518 673,521 667,522 661,523"/>
</g>
</svg>
