<?xml version="1.0" encoding="UTF-8" standalone="no"?>
<!DOCTYPE svg PUBLIC "-//W3C//DTD SVG 1.0//EN" "http://www.w3.org/TR/2001/REC-SVG-20010904/DTD/svg10.dtd">
<svg xmlns="http://www.w3.org/2000/svg" xmlns:xlink="http://www.w3.org/1999/xlink" fill-rule="evenodd" height="1.43in" preserveAspectRatio="none" stroke-linecap="round" viewBox="0 0 1970 1430" width="1.97in">
<style type="text/css">
.brush0 { fill: rgb(255,255,255); }
.pen0 { stroke: rgb(0,0,0); stroke-width: 1; stroke-linejoin: round; }
.brush1 { fill: none; }
.pen1 { stroke: none; }
.brush2 { fill: rgb(0,0,0); }
</style>
<g>
<polygon class="pen1 brush2" points="621,979 624,977 633,978 646,980 664,983 683,986 702,989 721,990 737,989 740,1040 599,1225 673,1296 595,1290 518,1430 538,1304 416,1424 503,1280 338,1368 341,1366 348,1361 359,1352 373,1341 390,1327 410,1311 431,1294 453,1276 475,1258 497,1239 518,1220 538,1202 555,1185 570,1170 581,1156 589,1145 600,1126 610,1109 619,1092 625,1074 629,1055 629,1033 627,1008 621,979 621,979"/>
<polygon class="pen1 brush2" points="1922,554 1882,566 1843,578 1806,589 1771,600 1738,610 1707,619 1678,627 1651,635 1626,642 1603,649 1582,655 1564,660 1548,665 1534,669 1523,672 1514,675 1514,672 1536,665 1559,658 1582,651 1606,644 1631,637 1657,629 1683,622 1709,614 1736,607 1762,599 1789,591 1816,582 1843,574 1870,565 1896,556 1922,547 1930,544 1936,541 1943,537 1948,532 1953,528 1957,523 1961,518 1964,513 1967,508 1968,502 1967,495 1964,487 1956,477 1945,471 1931,469 1916,468 1902,470 1888,472 1878,474 1872,476 1832,493 1794,510 1759,525 1725,540 1694,553 1666,566 1639,577 1615,588 1593,597 1573,606 1556,613 1540,620 1527,626 1516,631 1507,634 1500,637 1500,635 1508,631 1518,627 1531,621 1546,614 1563,607 1582,599 1603,589 1626,579 1651,569 1677,557 1706,544 1736,531 1767,518 1801,503 1835,488 1871,472 1864,467 1854,465 1842,465 1829,467 1814,471 1798,475 1782,481 1765,488 1747,495 1730,503 1713,510 1696,518 1681,525 1667,531 1654,536 1643,540 1244,696 1241,693 1626,543 1630,541 1630,537 1626,532 1615,524 1604,523 1584,526 1555,534 1519,546 1477,560 1431,577 1382,596 1333,615 1284,635 1236,654 1192,672 1153,689 1120,703 1095,714 1079,721 1074,723 1043,700 1013,678 982,658 951,640 921,622 891,606 861,592 832,578 803,566 775,555 747,544 720,535 693,527 667,519 642,513 618,507 595,502 573,498 552,494 533,491 514,489 497,487 481,485 466,484 453,483 441,482 431,482 423,482 417,482 412,482 409,482 408,482 443,426 464,378 475,340 477,309 473,285 467,269 462,260 459,257 474,259 487,262 498,267 508,272 516,277 522,282 527,286 530,289 520,272 507,255 492,238 478,224 464,211 453,202 446,195 443,193 461,192 480,193 499,196 517,201 532,206 544,210 552,214 555,215 537,194 516,178 496,167 476,159 458,154 443,152 434,151 430,151 455,143 481,138 505,136 527,136 546,137 561,139 571,140 574,141 544,118 514,101 485,91 457,85 430,84 405,87 380,93 356,103 334,114 313,127 294,141 276,156 261,170 246,184 234,196 224,206 273,277 202,300 202,312 205,326 209,339 212,347 226,363 235,379 240,395 241,414 238,435 232,460 223,488 212,521 202,557 196,594 194,630 196,665 202,697 210,726 221,751 234,771 264,804 295,834 326,860 359,883 392,902 426,919 460,932 494,943 528,952 562,958 596,961 630,963 663,963 696,961 728,958 760,953 790,947 820,941 848,933 875,925 900,916 924,907 946,898 967,889 985,880 1002,871 1016,863 1028,856 1038,849 1044,844 1049,840 1050,837 1043,811 1030,788 1011,768 988,749 961,734 932,720 901,708 869,698 838,690 808,683 780,678 755,674 733,671 717,669 707,668 703,668 767,668 824,672 873,680 916,691 953,704 983,719 1008,735 1029,752 1045,770 1057,787 1066,803 1072,817 1076,829 1078,839 1078,845 1078,848 1188,825 1285,805 1369,786 1440,769 1501,753 1551,740 1592,727 1624,717 1649,707 1668,699 1681,692 1689,686 1693,682 1695,678 1694,675 1693,673 1273,780 1274,777 1776,648 1822,630 1858,613 1884,598 1903,584 1914,573 1920,564 1923,558 1922,554 1922,554"/>
<polygon class="pen1 brush2" points="254,263 238,259 220,254 202,249 183,244 163,240 145,236 127,234 111,233 101,233 90,233 78,233 65,234 52,235 40,235 27,236 16,237 0,237 8,225 19,216 33,210 49,205 67,203 85,203 104,204 124,206 143,209 161,213 177,216 192,220 204,224 214,226 220,228 222,229 254,263 254,263"/>
<polygon class="pen1 brush2" points="53,243 61,242 69,241 76,240 84,240 91,240 98,240 105,240 111,240 127,241 145,244 164,248 183,252 202,257 221,261 239,266 256,270 246,273 234,274 222,275 208,274 194,273 180,272 165,270 150,267 135,264 121,261 107,258 94,254 82,251 71,248 61,245 53,243"/>
<polygon class="pen1 brush0" points="315,276 324,274 331,269 335,262 337,254 335,246 331,239 324,235 315,233 307,235 301,239 297,246 295,254 297,262 301,269 307,274 315,276"/>
</g>
</svg>
