<?xml version="1.0" encoding="UTF-8" standalone="no"?>
<!DOCTYPE svg PUBLIC "-//W3C//DTD SVG 1.0//EN" "http://www.w3.org/TR/2001/REC-SVG-20010904/DTD/svg10.dtd">
<svg xmlns="http://www.w3.org/2000/svg" xmlns:xlink="http://www.w3.org/1999/xlink" fill-rule="evenodd" height="1.772in" preserveAspectRatio="none" stroke-linecap="round" viewBox="0 0 1987 1772" width="1.987in">
<style type="text/css">
.brush0 { fill: rgb(255,255,255); }
.pen0 { stroke: rgb(0,0,0); stroke-width: 1; stroke-linejoin: round; }
.brush1 { fill: none; }
.pen1 { stroke: none; }
.brush2 { fill: rgb(0,0,0); }
</style>
<g>
<polygon class="pen1 brush2" points="1064,1297 1064,1296 1066,1296 1072,1297 1082,1296 1098,1295 1120,1292 1151,1287 1190,1280 1187,1292 1181,1325 1173,1372 1165,1431 1159,1494 1159,1558 1165,1616 1180,1664 791,1772 852,1711 713,1733 831,1671 754,1642 1085,1595 1094,1582 1097,1550 1095,1505 1090,1453 1083,1400 1075,1353 1069,1316 1064,1297 1064,1297"/>
<polygon class="pen1 brush2" points="1949,1004 1954,1002 1956,999 1956,995 1954,989 1951,983 1945,976 1937,969 1928,962 1917,956 1905,950 1891,944 1876,940 1859,937 1841,936 1821,936 1801,939 1766,945 1733,952 1703,958 1674,964 1648,970 1623,976 1599,982 1578,988 1557,994 1537,999 1519,1005 1501,1010 1484,1016 1467,1021 1450,1026 1434,1030 1417,1035 1400,1040 1383,1044 1365,1048 1347,1052 1328,1056 1307,1059 1286,1062 1263,1066 1238,1068 1212,1071 1184,1073 1154,1075 1122,1077 1087,1079 1050,1080 1020,1079 988,1076 956,1069 922,1059 888,1047 854,1032 821,1015 790,995 760,974 732,950 707,925 686,898 668,870 654,840 646,809 642,777 642,776 643,777 644,782 646,788 648,797 652,807 657,819 663,832 670,847 679,862 689,878 701,895 715,912 732,928 750,945 771,961 794,977 820,991 848,1004 880,1016 914,1026 952,1035 993,1041 1037,1045 1085,1047 1136,1045 1192,1041 1251,1033 1315,1022 1382,1008 1454,989 1531,966 1534,965 1543,964 1556,961 1574,957 1596,952 1620,947 1648,941 1677,935 1708,928 1740,922 1771,915 1803,908 1833,902 1862,896 1888,890 1912,885 1932,881 1949,877 1962,872 1971,868 1977,864 1980,861 1980,857 1977,854 1973,851 1967,848 1959,845 1950,842 1939,840 1928,838 1915,836 1902,834 1887,832 1870,830 1850,829 1829,827 1806,825 1782,823 1758,821 1733,819 1709,817 1685,814 1662,811 1640,809 1620,805 1603,802 1587,798 1575,794 1569,791 1561,787 1553,783 1543,777 1532,771 1519,763 1506,756 1491,747 1475,738 1458,729 1440,719 1421,709 1402,699 1381,688 1359,677 1337,667 1313,656 1289,646 1264,635 1238,625 1212,615 1185,606 1157,597 1129,588 1100,580 1071,573 1041,566 1010,561 980,556 948,552 917,549 885,547 882,547 875,547 863,547 847,546 829,543 809,538 787,529 765,518 742,502 720,482 700,457 682,426 666,389 654,344 646,293 643,233 642,214 639,195 635,175 629,156 621,138 612,120 601,103 589,87 576,73 561,60 545,49 528,39 510,33 491,28 470,26 449,27 419,33 392,41 368,53 348,68 332,84 319,103 309,122 303,143 299,165 300,187 303,210 310,231 320,253 333,273 350,291 369,308 410,346 434,383 442,420 439,457 429,493 414,528 398,564 385,598 381,613 378,631 376,651 375,674 375,699 377,725 380,753 384,782 390,813 398,844 408,876 419,907 433,939 450,971 468,1003 489,1033 513,1063 540,1091 569,1118 601,1143 637,1167 676,1188 718,1207 764,1223 813,1236 866,1245 923,1252 984,1254 1049,1253 1118,1248 1192,1238 1270,1223 1290,1219 1309,1214 1327,1208 1345,1203 1362,1197 1379,1191 1395,1184 1411,1177 1428,1170 1444,1163 1460,1156 1476,1148 1492,1140 1509,1133 1526,1125 1543,1117 1561,1109 1580,1101 1599,1093 1619,1085 1640,1077 1661,1070 1684,1062 1708,1055 1733,1047 1759,1040 1787,1034 1816,1027 1847,1021 1879,1015 1913,1009 1949,1004 1949,1004"/>
<polygon class="pen1 brush2" points="298,98 293,108 288,117 283,126 279,135 275,146 273,160 272,176 273,195 270,194 262,192 250,187 233,182 214,175 192,167 168,158 144,148 119,137 95,125 72,113 51,100 33,88 17,74 6,61 0,48 1,46 4,41 9,33 16,24 25,16 36,8 49,3 65,1 76,2 88,4 102,8 116,15 131,25 147,37 164,52 182,70 191,76 206,81 225,85 245,90 265,93 282,96 294,97 298,98"/>
<polygon class="pen1 brush0" points="430,160 436,159 441,158 447,156 451,152 455,148 458,144 459,138 460,132 459,126 458,120 455,115 451,111 447,107 441,104 436,103 430,102 419,104 410,111 404,120 402,132 404,144 410,152 419,158 430,160"/>
<polygon class="pen1 brush0" points="203,131 210,133 217,135 223,135 228,135 233,135 237,133 240,131 241,129 241,126 240,123 238,120 235,117 231,113 225,110 219,107 213,105 207,103 200,101 195,100 189,100 185,100 181,101 178,103 176,105 176,108 177,111 179,115 182,118 186,122 191,125 197,128 203,131"/>
</g>
</svg>
