<?xml version="1.0" encoding="UTF-8" standalone="no"?>
<!DOCTYPE svg PUBLIC "-//W3C//DTD SVG 1.0//EN" "http://www.w3.org/TR/2001/REC-SVG-20010904/DTD/svg10.dtd">
<svg xmlns="http://www.w3.org/2000/svg" xmlns:xlink="http://www.w3.org/1999/xlink" fill-rule="evenodd" height="1.98in" preserveAspectRatio="none" stroke-linecap="round" viewBox="0 0 1905 1980" width="1.905in">
<style type="text/css">
.brush0 { fill: rgb(255,255,255); }
.pen0 { stroke: rgb(0,0,0); stroke-width: 1; stroke-linejoin: round; }
.brush1 { fill: none; }
.pen1 { stroke: none; }
.brush2 { fill: rgb(0,0,0); }
</style>
<g>
<polygon class="pen1 brush2" points="1041,1629 1078,1643 1050,1779 1139,1804 1055,1823 1038,1832 1018,1851 997,1876 977,1903 958,1929 943,1951 933,1965 930,1968 933,1952 938,1936 944,1921 950,1907 955,1893 960,1882 963,1872 964,1865 962,1860 958,1859 949,1862 936,1868 918,1879 895,1894 865,1915 829,1941 817,1948 820,1943 832,1928 851,1908 873,1885 893,1864 907,1848 912,1840 905,1836 889,1835 869,1837 847,1839 827,1842 812,1844 804,1844 808,1842 997,1769 999,1763 1005,1747 1013,1724 1021,1697 1030,1672 1037,1649 1041,1634 1041,1629 1041,1629"/>
<polygon class="pen1 brush2" points="936,1460 941,1473 952,1494 966,1521 984,1550 1004,1577 1025,1600 1047,1615 1068,1618 1086,1609 1100,1591 1110,1566 1118,1539 1123,1510 1127,1484 1130,1463 1132,1449 1106,1454 1083,1458 1061,1460 1041,1463 1024,1464 1008,1465 993,1465 981,1465 970,1465 961,1464 953,1463 947,1462 942,1461 939,1461 937,1460 936,1460 936,1460"/>
<polygon class="pen1 brush2" points="1656,814 1660,806 1666,796 1673,784 1682,771 1692,757 1703,742 1716,728 1730,715 1744,702 1760,692 1776,684 1793,678 1810,676 1828,677 1846,683 1864,694 1863,690 1860,678 1854,662 1844,644 1829,625 1809,608 1782,595 1749,589 1753,587 1762,582 1777,576 1796,570 1817,568 1840,570 1863,578 1886,595 1887,590 1887,577 1884,559 1877,538 1862,517 1838,498 1803,483 1754,476 1757,472 1764,467 1776,460 1792,454 1811,450 1834,449 1859,453 1886,464 1884,459 1875,450 1862,436 1844,420 1822,404 1797,387 1771,373 1743,362 1715,356 1687,356 1660,364 1636,381 1614,408 1596,448 1583,500 1575,568 1576,605 1583,646 1595,690 1609,731 1624,768 1638,796 1649,813 1656,814 1656,814"/>
<polygon class="pen1 brush2" points="477,59 478,60 484,60 492,60 504,60 518,61 534,63 552,66 570,70 588,76 606,84 623,94 639,107 652,124 664,143 672,166 676,193 675,221 668,248 655,275 638,302 618,327 594,352 569,375 542,397 516,417 490,435 466,451 444,464 426,475 411,483 402,488 399,490 353,528 320,569 298,611 285,654 281,697 284,740 293,782 306,822 323,860 341,895 361,927 379,954 396,976 410,993 419,1003 422,1007 427,1063 439,1115 456,1164 480,1208 508,1248 541,1284 578,1316 619,1345 664,1369 711,1390 761,1407 813,1420 866,1430 921,1435 977,1437 1032,1436 1088,1431 1143,1422 1198,1410 1251,1394 1302,1374 1350,1352 1396,1325 1439,1296 1479,1263 1514,1226 1545,1187 1571,1144 1592,1098 1607,1048 1616,996 1618,940 1614,874 1605,814 1591,761 1572,713 1550,671 1523,634 1494,603 1461,575 1426,553 1388,534 1348,520 1307,509 1264,501 1220,496 1176,494 1131,495 1086,498 1042,502 999,508 956,516 915,524 876,534 839,543 804,553 772,563 743,573 718,581 697,589 679,596 667,601 659,604 656,605 704,553 742,501 772,451 794,402 809,355 818,310 822,267 820,227 815,189 806,155 794,124 780,97 765,74 750,55 735,41 720,31 705,24 690,18 675,13 660,9 645,6 630,5 615,5 599,7 586,9 572,12 558,17 543,22 527,30 511,38 495,48 477,59 477,59"/>
<polygon class="pen1 brush2" points="560,349 554,344 546,339 536,336 525,334 513,333 499,333 483,335 466,338 448,342 427,348 406,356 383,365 359,376 333,389 306,403 277,419 262,427 244,435 226,442 207,445 189,445 173,439 159,427 150,406 483,291 480,281 146,398 143,388 142,375 143,360 147,342 154,321 164,296 177,267 193,233 195,231 202,230 213,228 228,226 246,223 267,219 289,214 313,208 337,200 362,190 385,178 407,164 427,147 445,128 459,105 470,79 472,79 476,79 484,79 493,79 505,80 518,81 532,84 547,87 562,92 577,98 592,105 606,114 619,126 630,139 639,155 646,173 651,210 645,244 632,274 614,300 595,321 578,336 565,346 560,349 560,349"/>
<polygon class="pen1 brush2" points="176,234 163,253 149,276 138,303 129,332 125,363 127,396 137,430 156,463 149,464 132,466 107,466 79,461 51,448 28,425 12,390 8,339 11,317 18,298 27,282 39,268 52,257 67,248 82,241 98,235 113,232 128,230 142,229 154,228 164,229 171,230 175,232 176,234"/>
<polygon class="pen1 brush0" points="878,825 846,851 820,881 801,914 790,951 789,992 800,1036 825,1083 865,1132 889,1155 915,1173 941,1186 969,1195 997,1201 1025,1204 1053,1203 1081,1201 1109,1196 1136,1190 1162,1182 1186,1174 1210,1166 1232,1157 1252,1149 1270,1142 1267,1144 1258,1149 1244,1157 1225,1166 1202,1177 1175,1188 1146,1198 1114,1207 1080,1215 1045,1219 1010,1220 974,1217 939,1208 904,1194 872,1174 841,1146 813,1113 793,1081 778,1051 770,1022 767,995 769,969 774,945 782,923 793,903 805,885 819,869 833,855 846,844 859,835 870,829 878,825 883,823 882,823 880,824 878,825"/>
<polygon class="pen1 brush0" points="524,204 535,202 544,196 549,188 551,176 549,166 544,157 535,151 524,149 513,151 504,157 498,166 496,176 498,188 504,196 513,202 524,204"/>
</g>
</svg>
