<?xml version="1.0" encoding="UTF-8" standalone="no"?>
<!DOCTYPE svg PUBLIC "-//W3C//DTD SVG 1.0//EN" "http://www.w3.org/TR/2001/REC-SVG-20010904/DTD/svg10.dtd">
<svg xmlns="http://www.w3.org/2000/svg" xmlns:xlink="http://www.w3.org/1999/xlink" fill-rule="evenodd" height="1.847in" preserveAspectRatio="none" stroke-linecap="round" viewBox="0 0 1987 1847" width="1.987in">
<style type="text/css">
.brush0 { fill: rgb(255,255,255); }
.pen0 { stroke: rgb(0,0,0); stroke-width: 1; stroke-linejoin: round; }
.brush1 { fill: none; }
.pen1 { stroke: none; }
.brush2 { fill: rgb(0,0,0); }
</style>
<g>
<polygon class="pen1 brush2" points="1405,723 1406,704 1405,660 1400,610 1386,575 1387,573 1392,570 1399,565 1409,559 1421,555 1437,553 1456,555 1477,561 1475,556 1472,542 1467,521 1465,496 1465,467 1471,437 1483,408 1504,381 1369,267 1365,270 1361,271 1356,273 1351,273 1344,272 1337,270 1331,267 1326,262 1321,257 1318,251 1316,244 1315,237 1316,230 1318,223 1321,217 1326,212 1331,208 1337,205 1344,204 1351,203 1358,204 1364,205 1370,208 1375,212 1379,217 1382,222 1384,228 1385,234 1494,288 1436,79 1429,78 1423,75 1417,71 1412,67 1408,61 1405,55 1403,48 1402,41 1403,33 1405,25 1409,18 1414,12 1420,7 1427,3 1435,1 1443,0 1451,1 1458,3 1465,7 1471,12 1476,18 1480,25 1482,33 1483,41 1482,49 1479,57 1474,65 1467,71 1525,267 1584,139 1578,133 1573,126 1570,119 1569,111 1570,104 1572,97 1575,91 1580,85 1585,81 1591,78 1598,76 1605,75 1612,76 1618,78 1624,81 1629,85 1633,91 1636,97 1638,104 1639,111 1637,122 1632,132 1623,140 1612,145 1579,284 1662,199 1661,190 1661,182 1664,174 1668,167 1673,161 1680,157 1687,154 1696,153 1703,154 1710,156 1716,159 1721,163 1725,169 1728,175 1729,182 1730,189 1729,197 1727,204 1723,210 1718,215 1712,220 1706,222 1698,224 1690,223 1575,369 1576,373 1577,383 1579,400 1581,421 1581,446 1581,475 1579,506 1576,537 1569,569 1559,601 1545,631 1528,658 1505,682 1478,701 1444,715 1405,723 1405,723"/>
<polygon class="pen1 brush2" points="1476,1275 1474,1278 1468,1286 1459,1299 1447,1315 1432,1334 1415,1355 1397,1378 1378,1400 1358,1423 1338,1444 1318,1463 1299,1480 1281,1492 1265,1501 1251,1504 1239,1501 1226,1480 1225,1443 1234,1396 1250,1343 1270,1288 1292,1238 1313,1196 1329,1167 1337,1156 1348,1143 1360,1128 1374,1112 1389,1096 1405,1081 1422,1065 1441,1051 1459,1039 1478,1029 1497,1021 1516,1017 1535,1017 1553,1021 1571,1030 1588,1044 1613,1083 1623,1130 1622,1181 1613,1235 1598,1288 1580,1338 1561,1382 1545,1416 1531,1443 1518,1469 1509,1491 1506,1510 1511,1524 1526,1532 1555,1534 1598,1528 1620,1524 1642,1519 1663,1515 1685,1510 1707,1505 1728,1500 1748,1495 1768,1489 1787,1484 1805,1480 1822,1475 1838,1471 1852,1467 1865,1463 1876,1460 1885,1457 1886,1447 1889,1438 1894,1430 1900,1423 1908,1417 1917,1413 1926,1410 1936,1409 1946,1410 1955,1413 1964,1417 1972,1423 1978,1430 1983,1439 1986,1449 1987,1459 1986,1469 1983,1479 1978,1487 1972,1495 1964,1501 1955,1506 1946,1509 1936,1510 1931,1510 1926,1509 1922,1508 1917,1506 1913,1504 1909,1502 1905,1499 1902,1496 1897,1497 1891,1497 1886,1499 1881,1501 1876,1505 1873,1510 1871,1517 1871,1525 1874,1533 1879,1538 1885,1541 1892,1542 1898,1542 1904,1541 1908,1540 1909,1540 1915,1535 1922,1531 1929,1528 1937,1527 1945,1528 1953,1530 1959,1534 1965,1539 1970,1545 1974,1552 1976,1560 1977,1568 1976,1576 1974,1583 1970,1590 1965,1596 1959,1601 1953,1605 1945,1607 1937,1608 1930,1607 1924,1606 1918,1603 1913,1599 1908,1595 1904,1590 1901,1584 1899,1578 1881,1577 1869,1581 1861,1588 1858,1596 1858,1605 1863,1614 1871,1620 1882,1622 1887,1617 1893,1614 1899,1613 1906,1612 1914,1613 1921,1615 1928,1619 1934,1624 1939,1630 1943,1637 1945,1644 1946,1652 1945,1660 1943,1668 1939,1675 1934,1681 1928,1686 1921,1690 1914,1692 1906,1693 1898,1692 1891,1689 1885,1685 1879,1680 1875,1675 1871,1671 1869,1669 1869,1669 1867,1668 1861,1665 1854,1662 1844,1659 1834,1657 1825,1657 1817,1660 1811,1666 1808,1675 1807,1683 1809,1689 1812,1694 1817,1697 1824,1699 1831,1701 1838,1701 1846,1702 1854,1704 1861,1708 1867,1713 1872,1719 1876,1726 1878,1734 1879,1742 1878,1750 1876,1757 1872,1764 1867,1770 1861,1774 1854,1778 1846,1780 1838,1781 1829,1780 1820,1776 1813,1771 1808,1766 1804,1760 1800,1756 1799,1753 1798,1752 1792,1747 1786,1745 1781,1745 1775,1747 1771,1751 1768,1756 1767,1762 1768,1769 1775,1776 1780,1783 1783,1792 1784,1801 1783,1809 1781,1816 1777,1823 1773,1829 1767,1833 1760,1837 1752,1839 1744,1840 1736,1839 1729,1837 1722,1833 1716,1829 1711,1823 1707,1816 1705,1809 1704,1801 1705,1791 1709,1782 1715,1775 1721,1769 1721,1761 1719,1752 1717,1743 1713,1733 1706,1723 1697,1714 1685,1705 1669,1698 1654,1693 1635,1689 1611,1683 1585,1677 1556,1670 1526,1662 1497,1653 1468,1642 1441,1629 1416,1615 1395,1598 1379,1579 1368,1557 1364,1532 1367,1505 1379,1474 1407,1417 1427,1373 1441,1340 1450,1317 1457,1301 1463,1290 1468,1282 1476,1275 1476,1275"/>
<polygon class="pen1 brush2" points="243,1847 235,1846 227,1844 220,1840 214,1835 210,1829 206,1822 204,1814 203,1806 204,1797 207,1788 212,1780 219,1774 222,1763 220,1756 216,1753 209,1752 202,1753 195,1755 190,1756 187,1755 185,1762 182,1768 178,1773 174,1778 168,1782 162,1785 156,1786 149,1787 141,1786 133,1784 126,1780 120,1775 115,1769 111,1763 109,1755 108,1747 109,1739 111,1732 115,1725 120,1719 126,1715 133,1711 141,1709 149,1708 157,1708 164,1706 170,1703 175,1700 179,1695 180,1688 179,1680 176,1671 170,1664 162,1662 153,1662 143,1664 134,1667 127,1671 121,1673 119,1673 116,1678 113,1683 108,1688 104,1691 99,1694 93,1696 87,1698 81,1698 73,1697 66,1695 59,1691 53,1686 48,1680 44,1673 42,1665 41,1657 42,1649 44,1642 48,1635 53,1629 59,1625 66,1621 73,1619 81,1618 88,1619 94,1620 100,1623 105,1626 116,1624 124,1619 129,1611 130,1602 126,1593 118,1587 106,1583 88,1584 86,1590 83,1596 79,1600 74,1604 69,1608 63,1610 57,1611 50,1612 42,1611 34,1609 28,1606 22,1601 17,1595 13,1589 11,1582 10,1574 11,1566 13,1558 17,1551 22,1545 28,1541 34,1537 42,1535 50,1534 58,1536 67,1539 75,1542 78,1544 94,1547 106,1545 113,1538 117,1530 116,1520 110,1511 100,1504 85,1501 82,1504 78,1507 74,1509 70,1511 65,1512 61,1513 56,1514 51,1514 41,1513 32,1510 23,1505 15,1499 9,1491 4,1483 1,1473 0,1463 1,1453 4,1444 9,1435 15,1428 23,1422 32,1417 41,1414 51,1413 61,1414 70,1417 79,1422 87,1428 93,1435 98,1444 101,1453 102,1463 111,1466 122,1469 135,1472 149,1476 165,1481 182,1485 200,1490 219,1495 239,1500 259,1505 280,1510 302,1515 324,1520 345,1525 367,1530 389,1534 432,1540 461,1538 476,1530 482,1516 478,1497 469,1474 456,1448 442,1420 426,1386 407,1343 389,1294 374,1240 365,1186 364,1134 374,1087 399,1048 416,1034 434,1025 452,1021 471,1022 490,1026 509,1033 528,1044 547,1056 565,1070 582,1086 598,1102 613,1118 627,1134 639,1148 650,1162 658,1173 674,1202 695,1243 717,1294 737,1348 753,1401 762,1448 761,1485 748,1507 736,1510 722,1506 706,1498 688,1485 669,1468 649,1449 629,1428 609,1406 590,1383 572,1361 555,1340 540,1321 528,1305 519,1292 513,1284 511,1281 519,1288 524,1296 530,1307 537,1323 546,1346 560,1379 580,1423 608,1480 620,1511 623,1538 619,1562 608,1584 592,1603 571,1620 546,1634 519,1647 490,1657 461,1667 431,1675 402,1682 376,1688 352,1693 333,1698 318,1703 302,1711 290,1720 281,1729 274,1739 270,1749 268,1758 266,1767 266,1774 272,1780 278,1788 282,1796 283,1806 282,1814 280,1822 276,1829 271,1835 265,1840 258,1844 251,1846 243,1847 243,1847"/>
<polygon class="pen1 brush2" points="579,724 579,713 580,683 585,636 598,577 597,575 592,572 585,567 575,562 563,558 547,556 528,558 507,564 509,559 513,545 517,524 520,498 519,469 514,439 501,409 480,382 615,270 619,272 624,273 628,274 633,274 640,273 647,271 653,269 658,264 663,260 666,254 668,247 669,240 668,233 666,226 663,220 658,214 653,210 647,207 640,205 633,204 626,205 620,207 614,210 609,214 605,219 601,224 599,230 598,237 490,291 548,82 555,80 562,77 567,73 572,68 576,63 579,56 580,49 581,42 580,34 578,27 574,20 570,15 564,10 557,6 549,4 541,3 533,4 526,6 519,10 513,15 508,20 504,27 502,34 501,42 502,51 505,60 510,68 517,74 459,270 402,140 407,135 411,129 414,122 415,114 414,107 412,100 409,94 405,88 399,84 393,81 386,79 379,78 372,79 366,81 360,84 355,88 351,94 348,100 346,107 345,114 347,125 353,135 361,143 372,148 405,285 321,202 323,193 322,185 320,177 316,170 311,164 304,160 297,157 288,156 281,157 275,159 269,162 264,166 260,172 257,178 255,185 254,192 255,200 257,207 261,213 265,219 271,223 278,225 286,227 294,226 409,372 408,376 407,386 405,403 404,424 403,449 403,478 405,508 409,540 415,572 425,603 439,633 456,660 479,684 506,703 540,717 579,724 579,724"/>
<polygon class="pen1 brush2" points="895,129 889,127 873,123 850,121 825,123 801,134 781,156 770,192 770,247 765,257 753,285 735,330 714,389 691,461 670,543 651,634 638,731 633,834 637,939 653,1045 684,1149 730,1251 795,1348 881,1437 990,1518 996,1518 1105,1438 1191,1349 1257,1253 1304,1151 1335,1046 1352,941 1357,835 1352,733 1339,635 1322,544 1300,461 1278,389 1257,330 1240,285 1228,257 1223,247 1224,193 1212,156 1193,134 1168,123 1143,121 1120,123 1104,127 1098,129 1091,116 1082,101 1072,85 1060,71 1046,57 1032,47 1017,40 1001,37 982,39 965,45 949,54 936,66 924,80 913,96 903,112 895,129"/>
<polygon class="pen1 brush0" points="1152,227 1159,226 1165,224 1171,221 1176,216 1180,211 1183,205 1185,199 1186,192 1185,185 1183,178 1180,172 1176,166 1171,162 1165,159 1159,157 1152,156 1145,157 1138,159 1132,162 1127,166 1122,172 1119,178 1117,185 1116,192 1117,199 1119,205 1122,211 1127,216 1132,221 1138,224 1145,226 1152,227 1152,227"/>
<polygon class="pen1 brush0" points="844,227 851,226 858,224 864,221 869,216 873,211 876,205 878,199 879,192 878,185 876,178 873,172 869,166 864,162 858,159 851,157 844,156 837,157 830,159 824,162 819,166 814,172 811,178 809,185 808,192 809,199 811,205 814,211 819,216 824,221 830,224 837,226 844,227 844,227"/>
<polygon class="pen1 brush0" points="1008,366 1019,368 1025,374 1027,388 1027,412 1027,573 1027,889 1027,1199 1027,1338 1027,1343 1025,1354 1020,1366 1010,1371 1000,1367 994,1357 991,1345 990,1332 990,1181 990,863 990,549 990,406 990,400 991,386 996,372 1008,366"/>
</g>
</svg>
