<?xml version="1.0" encoding="UTF-8" standalone="no"?>
<!DOCTYPE svg PUBLIC "-//W3C//DTD SVG 1.0//EN" "http://www.w3.org/TR/2001/REC-SVG-20010904/DTD/svg10.dtd">
<svg xmlns="http://www.w3.org/2000/svg" xmlns:xlink="http://www.w3.org/1999/xlink" fill-rule="evenodd" height="1.585in" preserveAspectRatio="none" stroke-linecap="round" viewBox="0 0 1982 1585" width="1.982in">
<style type="text/css">
.brush0 { fill: rgb(255,255,255); }
.pen0 { stroke: rgb(0,0,0); stroke-width: 1; stroke-linejoin: round; }
.brush1 { fill: none; }
.pen1 { stroke: none; }
.brush2 { fill: rgb(0,0,0); }
</style>
<g>
<polygon class="pen1 brush2" points="506,1079 505,1062 504,1043 504,1023 504,1002 506,980 508,957 512,933 517,908 525,883 535,857 548,831 563,804 582,778 604,750 630,723 660,696 661,691 661,679 662,659 664,632 668,600 673,561 680,518 690,470 704,419 720,364 741,307 766,247 797,186 832,124 873,62 921,0 938,43 922,67 904,95 885,124 866,156 847,191 827,227 808,265 789,304 771,345 755,387 740,430 726,475 715,519 706,565 699,610 696,656 708,649 713,601 721,554 730,508 742,464 755,420 770,378 785,338 802,299 819,261 837,225 855,191 873,159 891,129 909,101 925,75 941,51 962,97 947,123 931,150 915,178 899,208 884,239 868,271 854,304 840,338 827,373 815,408 804,444 794,481 786,517 780,554 775,592 773,629 783,622 787,583 793,545 800,507 808,471 818,435 828,400 840,365 852,332 865,300 879,268 893,238 907,209 922,181 936,155 951,129 965,105 988,156 963,204 939,256 916,310 895,366 877,424 863,482 853,542 848,602 860,595 867,534 878,475 891,417 908,362 927,309 947,258 969,210 992,165 1018,220 1000,261 983,304 968,347 955,392 943,437 934,482 927,528 924,574 935,568 940,522 947,478 956,434 966,391 978,349 992,309 1006,269 1022,231 1052,297 1042,327 1032,357 1023,388 1016,420 1009,451 1004,483 1001,515 999,547 1010,540 1013,510 1017,480 1022,451 1028,422 1034,393 1041,365 1049,338 1057,311 1090,382 1079,418 1071,455 1065,494 1062,534 1073,534 1077,496 1083,460 1091,426 1100,393 1105,394 1110,394 1117,395 1125,396 1133,397 1143,398 1153,400 1164,402 1155,436 1147,470 1142,506 1138,543 1151,541 1155,505 1161,470 1169,437 1178,405 1185,406 1192,407 1200,409 1207,410 1215,412 1223,414 1231,417 1239,419 1231,450 1225,483 1219,516 1216,551 1229,551 1233,517 1238,484 1245,452 1252,422 1260,424 1268,426 1275,429 1283,431 1290,434 1298,437 1305,440 1313,443 1306,471 1301,500 1296,529 1294,560 1306,558 1309,530 1314,502 1319,475 1326,449 1333,452 1341,455 1348,458 1356,461 1363,465 1370,469 1377,473 1384,477 1380,500 1377,522 1374,545 1373,568 1384,567 1386,545 1389,524 1393,504 1397,484 1403,489 1410,493 1416,498 1423,502 1429,507 1435,512 1442,518 1448,523 1449,524 1450,524 1451,525 1452,526 1444,539 1437,552 1430,565 1424,579 1435,585 1442,572 1449,560 1457,548 1464,537 1472,544 1479,550 1486,556 1493,562 1500,568 1507,574 1513,580 1519,585 1512,597 1506,609 1499,621 1493,635 1506,641 1512,629 1518,618 1524,608 1530,597 1539,605 1548,612 1555,619 1562,626 1568,632 1574,638 1579,644 1584,649 1579,659 1574,669 1569,679 1564,689 1576,696 1580,687 1584,678 1589,670 1594,662 1601,670 1607,677 1612,685 1618,693 1623,701 1629,709 1635,718 1641,729 1639,732 1638,736 1636,740 1634,744 1645,750 1647,748 1648,746 1649,745 1650,743 1668,774 1685,804 1701,834 1716,864 1730,893 1744,923 1756,953 1768,982 1779,1013 1789,1043 1799,1074 1809,1106 1818,1138 1826,1171 1835,1205 1843,1240 1850,1260 1866,1297 1889,1345 1914,1397 1939,1449 1961,1494 1976,1525 1982,1537 1981,1537 1976,1535 1970,1533 1960,1531 1948,1528 1934,1526 1917,1523 1898,1520 1857,1356 1844,1358 1884,1517 1877,1517 1870,1516 1863,1516 1856,1515 1848,1515 1841,1514 1832,1514 1824,1514 1823,1514 1822,1513 1821,1513 1820,1513 1821,1375 1807,1372 1806,1513 1797,1513 1788,1513 1779,1513 1771,1513 1764,1513 1757,1513 1751,1514 1745,1514 1793,1359 1780,1354 1731,1517 1721,1518 1713,1520 1705,1522 1698,1524 1691,1526 1685,1528 1678,1531 1672,1533 1677,1521 1691,1489 1711,1445 1735,1393 1759,1342 1780,1298 1794,1266 1800,1254 1790,1231 1777,1209 1764,1188 1748,1166 1731,1146 1713,1127 1694,1108 1674,1090 1652,1073 1631,1058 1608,1043 1585,1030 1562,1018 1538,1007 1515,998 1491,990 1491,987 1489,978 1486,966 1482,951 1476,935 1467,920 1457,906 1444,896 1428,889 1407,884 1384,879 1358,877 1331,875 1301,875 1271,876 1241,878 1210,881 1181,886 1152,891 1126,897 1102,904 1081,912 1063,921 1050,930 1051,932 1056,936 1064,944 1074,953 1087,965 1102,978 1118,992 1135,1006 1153,1021 1171,1035 1190,1049 1207,1062 1224,1073 1240,1083 1253,1090 1265,1095 1263,1095 1256,1093 1244,1092 1229,1089 1210,1086 1189,1082 1165,1077 1139,1070 1111,1063 1083,1054 1055,1045 1026,1033 998,1021 972,1006 947,991 924,973 916,971 908,972 900,977 892,984 885,991 880,997 876,1002 875,1004 876,1006 877,1011 878,1018 877,1027 853,1044 830,1061 808,1079 787,1096 765,1114 745,1131 724,1149 704,1167 684,1185 664,1203 644,1221 624,1239 604,1258 584,1276 564,1295 543,1314 540,1314 535,1312 528,1309 523,1304 607,1132 12,1585 0,1574 506,1079"/>
<polygon class="pen1 brush0" points="583,1223 617,1121 586,1132 775,980 776,979 780,976 786,971 792,966 800,959 807,952 814,944 820,937 825,922 826,902 823,879 817,855 808,831 798,810 787,793 775,783 799,784 804,788 809,800 816,816 823,836 829,858 835,879 840,899 844,915 849,942 854,968 858,990 858,1007 853,1010 842,1017 827,1027 808,1040 788,1054 770,1067 753,1079 741,1088 727,1099 706,1117 680,1139 653,1162 626,1185 604,1204 589,1218 583,1223 583,1223"/>
<polygon class="pen1 brush0" points="871,987 870,987 869,988 869,988 870,987 872,985 879,980 889,972 904,960 913,954 923,948 935,941 948,935 962,929 977,923 993,917 1008,912 1024,907 1040,901 1055,897 1070,892 1084,888 1097,884 1108,881 1118,878 1143,871 1168,865 1193,861 1218,858 1243,856 1269,855 1294,855 1319,856 1345,859 1370,862 1395,866 1420,872 1444,878 1468,885 1492,893 1516,902 1547,917 1577,937 1605,960 1632,986 1657,1014 1680,1044 1702,1074 1721,1104 1739,1134 1755,1161 1768,1187 1779,1209 1788,1228 1795,1242 1799,1251 1800,1254 1799,1241 1796,1223 1792,1204 1789,1190 1780,1162 1771,1135 1761,1109 1751,1084 1740,1059 1728,1035 1716,1012 1702,989 1688,967 1673,945 1656,924 1639,903 1620,883 1600,863 1579,843 1556,824 1537,810 1515,795 1491,782 1465,769 1437,756 1409,745 1379,735 1348,726 1317,719 1287,714 1256,711 1227,709 1198,711 1171,714 1145,721 1121,730 1106,741 1087,761 1065,787 1043,815 1021,843 1003,867 990,884 985,889 970,880 953,870 934,860 915,849 898,839 884,831 875,826 871,824 877,819 887,810 896,801 900,797 889,802 877,807 866,813 856,818 847,823 839,827 835,830 833,831 838,844 844,863 850,886 857,912 862,936 866,959 870,976 871,987 871,987"/>
<polygon class="pen1 brush0" points="625,947 631,946 637,945 642,942 647,938 650,934 653,929 654,924 655,918 654,912 653,906 650,901 647,897 642,893 637,890 631,889 625,888 614,890 605,897 599,906 597,918 599,929 605,938 614,945 625,947 625,947"/>
<polygon class="pen1 brush0" points="891,822 892,820 899,813 910,804 926,791 944,777 964,762 986,746 1009,730 1021,722 1034,714 1047,707 1061,699 1074,692 1088,685 1102,679 1115,673 1127,668 1138,663 1148,658 1157,654 1165,651 1170,649 1174,647 1175,646 1162,660 1149,674 1137,687 1124,701 1112,715 1100,729 1087,742 1076,756 1064,770 1052,784 1040,799 1029,813 1018,827 1007,842 996,857 985,872 977,869 965,863 950,855 935,846 920,838 906,830 896,825 891,822"/>
</g>
</svg>
