<?xml version="1.0" encoding="UTF-8" standalone="no"?>
<!DOCTYPE svg PUBLIC "-//W3C//DTD SVG 1.0//EN" "http://www.w3.org/TR/2001/REC-SVG-20010904/DTD/svg10.dtd">
<svg xmlns="http://www.w3.org/2000/svg" xmlns:xlink="http://www.w3.org/1999/xlink" fill-rule="evenodd" height="0.635in" preserveAspectRatio="none" stroke-linecap="round" viewBox="0 0 1971 635" width="1.971in">
<style type="text/css">
.brush0 { fill: rgb(255,255,255); }
.pen0 { stroke: rgb(0,0,0); stroke-width: 1; stroke-linejoin: round; }
.brush1 { fill: none; }
.pen1 { stroke: none; }
.brush2 { fill: rgb(0,0,0); }
</style>
<g>
<polygon class="pen1 brush2" points="1812,445 1811,445 1807,444 1800,443 1791,441 1780,439 1766,436 1751,433 1733,430 1714,427 1693,423 1670,420 1646,416 1621,412 1595,409 1567,405 1538,401 1509,398 1479,395 1448,392 1417,389 1386,387 1354,385 1322,384 1290,383 1258,383 1227,383 1196,384 1166,385 1136,387 1107,390 1078,394 1051,399 999,409 948,418 899,427 851,434 806,441 762,447 721,452 681,457 643,461 608,464 574,467 543,470 514,472 488,474 464,476 442,477 421,479 399,481 376,483 353,485 330,487 307,490 284,492 263,495 242,497 222,500 204,502 188,504 174,506 162,508 152,510 146,511 137,513 130,512 125,510 122,506 122,502 123,497 126,493 131,490 136,488 145,485 158,482 174,478 192,473 212,468 233,463 254,458 275,454 296,449 315,445 331,441 346,438 357,435 364,434 366,433 355,433 341,433 323,432 303,432 281,431 258,430 233,429 209,429 184,428 160,427 138,426 117,425 99,424 83,423 70,423 62,422 50,422 39,422 29,419 20,412 14,398 10,373 9,336 11,284 12,269 13,255 15,242 17,228 20,216 24,204 28,192 34,181 40,170 48,160 58,150 69,141 82,132 96,123 113,115 132,107 153,99 176,92 202,85 231,78 262,71 296,65 333,59 374,53 418,47 465,41 516,36 570,30 629,25 691,20 757,15 828,10 855,9 882,8 909,8 937,10 965,12 993,15 1021,18 1050,23 1078,28 1106,33 1135,40 1163,47 1191,55 1219,63 1247,72 1275,81 1322,97 1369,115 1414,134 1458,154 1501,174 1542,195 1581,217 1618,239 1652,261 1685,283 1714,306 1741,328 1765,349 1786,371 1803,391 1817,411 1817,406 1820,394 1826,376 1838,355 1856,332 1884,311 1921,293 1971,281 1969,285 1963,297 1954,315 1945,337 1935,364 1928,392 1923,422 1922,452 1896,470 1917,500 1916,514 1914,549 1914,594 1917,635 1910,630 1893,617 1870,597 1845,571 1823,542 1807,510 1802,477 1812,445"/>
<polygon class="pen1 brush0" points="416,425 424,423 430,419 434,412 436,404 434,395 430,388 424,383 416,381 407,383 401,388 396,395 395,404 396,412 401,419 407,423 416,425"/>
<polygon class="pen1 brush0" points="525,368 524,351 526,351 530,353 537,356 546,359 558,364 570,368 584,374 599,379 614,385 630,390 645,395 659,400 673,405 686,408 697,411 706,413 702,411 695,409 685,405 673,399 659,389 644,376 629,357 615,333 625,323 631,337 639,352 651,366 664,380 678,392 693,403 709,412 724,418 714,418 704,417 692,415 680,413 668,411 655,408 641,405 628,401 614,397 600,393 587,389 573,384 560,380 548,376 536,372 525,368"/>
</g>
</svg>
