<?xml version="1.0" encoding="UTF-8" standalone="no"?>
<!DOCTYPE svg PUBLIC "-//W3C//DTD SVG 1.0//EN" "http://www.w3.org/TR/2001/REC-SVG-20010904/DTD/svg10.dtd">
<svg xmlns="http://www.w3.org/2000/svg" xmlns:xlink="http://www.w3.org/1999/xlink" fill-rule="evenodd" height="1.115in" preserveAspectRatio="none" stroke-linecap="round" viewBox="0 0 1973 1115" width="1.973in">
<style type="text/css">
.brush0 { fill: rgb(255,255,255); }
.pen0 { stroke: rgb(0,0,0); stroke-width: 1; stroke-linejoin: round; }
.brush1 { fill: none; }
.pen1 { stroke: none; }
.brush2 { fill: rgb(0,0,0); }
</style>
<g>
<polygon class="pen1 brush2" points="0,675 1,673 4,669 9,661 16,651 25,638 36,623 49,606 63,587 80,566 98,544 118,521 140,497 163,472 189,447 215,422 244,396 274,370 306,345 339,321 373,297 410,274 447,252 486,232 527,214 569,197 612,183 657,171 702,161 749,154 798,150 847,149 898,152 919,154 940,157 961,160 982,164 1004,168 1026,173 1048,179 1070,186 1092,193 1115,201 1138,210 1161,220 1184,230 1207,241 1230,253 1254,266 1278,279 1302,294 1326,309 1350,325 1374,342 1399,360 1424,379 1448,399 1473,420 1498,441 1524,464 1549,487 1575,512 1600,538 1626,564 1652,592 1857,486 1859,488 1865,493 1873,501 1883,512 1895,525 1908,542 1921,560 1933,581 1769,607 1773,624 1942,597 1949,612 1955,628 1960,645 1964,663 1967,681 1968,700 1967,720 1965,740 1788,706 1788,724 1962,756 1958,769 1953,783 1948,797 1941,811 1933,826 1924,840 1914,855 1902,869 1759,784 1753,800 1892,882 1885,889 1879,896 1871,903 1864,910 1856,917 1848,924 1840,932 1831,939 1637,800 1637,800 1636,801 1634,802 1632,803 1634,834 1635,869 1632,906 1621,945 1567,895 1557,909 1614,960 1609,970 1603,980 1596,990 1588,1000 1579,1011 1570,1021 1559,1031 1547,1041 1497,950 1485,962 1533,1051 1531,1053 1528,1054 1525,1056 1521,1058 1511,1065 1500,1071 1490,1077 1479,1082 1469,1087 1459,1091 1449,1095 1439,1098 1423,1000 1408,1006 1423,1103 1410,1106 1397,1109 1385,1111 1373,1112 1361,1113 1350,1114 1338,1114 1327,1113 1328,1024 1311,1030 1310,1111 1282,1106 1257,1099 1233,1090 1212,1080 1194,1069 1178,1059 1165,1049 1155,1040 1138,1045 1122,1050 1105,1055 1088,1059 1071,1063 1054,1068 1036,1072 1019,1075 1001,1079 983,1082 966,1086 948,1089 930,1091 912,1094 893,1096 875,1098 854,1100 833,1101 812,1102 791,1103 769,1103 748,1102 726,1102 704,1101 682,1099 661,1097 639,1095 617,1092 595,1088 573,1084 551,1080 529,1075 507,1069 485,1063 463,1057 441,1050 419,1042 397,1034 375,1025 353,1015 331,1005 309,994 288,982 266,970 244,957 222,943 201,928 179,913 179,912 181,909 187,904 194,898 204,890 215,880 228,869 242,857 257,845 272,831 288,816 303,801 318,785 333,769 346,752 358,736 357,738 353,743 346,751 337,761 327,773 314,787 300,801 284,815 268,829 250,842 232,854 213,864 194,872 175,876 156,878 138,875 131,871 119,862 103,847 84,829 64,808 44,787 26,766 10,746 10,746 12,746 15,745 21,744 29,743 40,741 56,739 75,736 75,736 76,736 74,734 70,730 62,723 48,712 28,696 0,675 0,675"/>
<polygon class="pen1 brush2" points="87,534 92,528 101,517 110,507 114,503 107,475 100,446 95,418 92,392 74,432 87,534 87,534"/>
<polygon class="pen1 brush2" points="125,491 130,486 135,480 140,475 145,470 150,464 156,459 161,453 166,447 157,418 151,387 148,355 145,325 139,332 133,339 128,345 123,351 118,356 114,362 110,366 107,371 109,399 113,429 118,460 125,491 125,491"/>
<polygon class="pen1 brush2" points="178,436 183,431 188,426 193,422 198,417 203,412 208,408 214,403 219,398 212,367 205,337 199,305 196,273 191,278 186,283 181,287 177,292 172,296 168,301 163,305 159,310 162,340 166,371 171,403 178,436 178,436"/>
<polygon class="pen1 brush2" points="209,260 212,293 217,325 222,357 229,389 235,384 242,378 248,373 254,368 260,363 266,357 273,352 279,347 272,315 266,284 260,252 256,220 250,225 244,230 238,235 233,240 227,245 221,250 215,255 209,260 209,260"/>
<polygon class="pen1 brush2" points="290,338 296,333 303,328 309,323 316,318 322,313 329,308 335,303 342,298 335,266 329,235 324,203 321,170 315,175 308,179 302,184 296,189 289,194 283,198 277,203 271,207 273,238 278,270 283,303 290,338 290,338"/>
<polygon class="pen1 brush2" points="334,162 336,195 341,227 347,259 354,291 361,286 368,281 376,276 383,271 391,266 399,261 407,256 415,251 408,220 401,189 395,157 392,125 384,129 377,134 369,138 362,143 355,147 348,152 341,157 334,162 334,162"/>
<polygon class="pen1 brush2" points="426,244 434,240 443,235 451,231 459,226 467,222 476,218 484,213 493,209 486,178 479,147 473,115 470,82 462,86 454,91 446,95 439,99 431,103 423,107 416,111 408,115 410,146 413,178 419,210 426,244 426,244"/>
<polygon class="pen1 brush2" points="486,75 489,108 493,140 499,173 506,205 514,201 522,198 530,194 538,191 546,187 554,184 562,181 571,178 571,176 570,176 564,143 561,110 559,78 560,47 550,50 540,53 531,57 522,60 513,64 504,68 495,71 486,75 486,75"/>
<polygon class="pen1 brush2" points="574,43 573,75 574,108 577,141 583,173 592,170 602,167 611,164 620,162 629,159 639,156 648,154 658,151 652,117 649,84 647,53 648,21 638,23 629,26 619,28 610,31 601,34 592,37 583,40 574,43 574,43"/>
<polygon class="pen1 brush2" points="671,149 680,147 689,144 697,143 706,141 715,139 724,138 733,136 743,135 737,102 733,69 731,38 732,7 723,8 715,9 706,11 697,12 688,13 680,15 671,16 663,17 663,48 664,80 666,114 671,149 671,149"/>
<polygon class="pen1 brush2" points="754,135 762,134 771,133 779,132 787,132 795,131 803,131 812,131 820,131 816,98 812,65 810,33 810,0 802,0 794,0 786,1 778,2 770,2 762,3 754,4 746,4 746,35 747,67 750,100 754,135 754,135"/>
<polygon class="pen1 brush2" points="825,0 825,32 826,66 828,99 831,131 840,131 848,131 857,131 866,132 875,132 884,133 892,133 901,134 899,102 898,69 900,34 904,1 894,1 884,0 874,0 864,0 854,0 845,0 835,0 825,0 825,0"/>
<polygon class="pen1 brush2" points="918,3 914,35 911,69 910,103 912,135 921,136 929,136 938,138 946,139 955,140 963,142 971,143 979,145 979,114 982,80 987,46 993,14 983,12 973,11 964,9 954,8 945,6 936,5 927,4 918,3 918,3"/>
<polygon class="pen1 brush2" points="1007,17 1001,48 995,82 991,116 992,148 1000,150 1009,152 1017,154 1026,156 1034,158 1043,161 1051,163 1060,166 1064,131 1069,97 1075,65 1084,34 1074,31 1065,29 1055,26 1046,24 1036,22 1026,20 1017,18 1007,17 1007,17"/>
<polygon class="pen1 brush2" points="1073,169 1081,172 1090,175 1098,178 1107,181 1115,184 1124,187 1133,190 1142,193 1145,158 1151,124 1158,92 1166,61 1158,57 1149,54 1141,51 1132,48 1124,45 1115,42 1107,40 1098,37 1093,62 1085,107 1077,150 1073,169 1073,169"/>
<polygon class="pen1 brush2" points="1181,65 1173,95 1164,132 1157,169 1155,199 1161,202 1168,205 1175,208 1181,211 1188,214 1195,218 1202,221 1209,224 1212,206 1216,189 1220,172 1225,155 1230,139 1235,124 1241,109 1247,94 1239,90 1230,87 1222,83 1214,79 1205,75 1197,72 1189,68 1181,65 1181,65"/>
<polygon class="pen1 brush2" points="1222,230 1229,234 1236,238 1243,242 1250,246 1257,250 1265,254 1272,259 1279,263 1284,245 1289,228 1295,211 1302,194 1308,179 1315,163 1323,148 1330,134 1321,130 1313,125 1304,121 1296,116 1287,112 1279,108 1270,103 1262,99 1256,114 1250,130 1245,145 1240,161 1235,178 1230,195 1226,212 1222,230 1222,230"/>
<polygon class="pen1 brush2" points="1290,270 1296,273 1302,276 1308,280 1314,283 1320,287 1326,291 1332,296 1338,300 1344,282 1351,265 1358,248 1365,231 1372,216 1380,201 1388,186 1396,172 1389,168 1383,164 1376,160 1369,156 1363,153 1356,149 1349,145 1342,142 1335,156 1328,171 1321,186 1314,202 1308,218 1301,235 1295,252 1290,270 1290,270"/>
<polygon class="pen1 brush2" points="1345,305 1354,311 1362,317 1371,323 1379,329 1388,335 1396,341 1404,348 1412,354 1420,338 1427,321 1434,305 1441,288 1448,272 1455,255 1464,239 1473,222 1465,216 1457,210 1449,205 1441,200 1433,195 1425,189 1417,184 1408,179 1404,189 1396,205 1386,226 1375,248 1365,270 1355,288 1348,301 1345,305 1345,305"/>
<polygon class="pen1 brush2" points="1487,232 1483,240 1476,255 1466,276 1454,299 1443,322 1433,342 1426,356 1423,361 1429,366 1435,371 1441,377 1448,382 1454,387 1460,392 1467,397 1473,402 1481,386 1489,370 1496,353 1503,335 1510,317 1518,300 1526,283 1536,267 1530,262 1524,257 1518,253 1512,248 1505,244 1499,240 1493,236 1487,232 1487,232"/>
<polygon class="pen1 brush2" points="1548,277 1539,293 1531,310 1523,328 1515,345 1507,362 1499,378 1491,394 1483,409 1489,415 1496,421 1502,427 1509,432 1515,438 1521,444 1528,450 1534,456 1543,439 1552,423 1560,406 1568,388 1576,371 1584,354 1594,338 1605,321 1598,315 1591,309 1584,304 1577,298 1570,293 1562,288 1555,282 1548,277 1548,277"/>
<polygon class="pen1 brush2" points="1618,331 1613,339 1604,355 1592,377 1579,401 1566,425 1555,446 1547,460 1544,466 1549,471 1555,476 1560,481 1566,486 1571,491 1576,497 1582,502 1587,507 1591,502 1599,488 1610,468 1622,444 1634,419 1646,397 1656,379 1662,368 1656,363 1650,358 1644,353 1639,349 1633,344 1628,340 1623,335 1618,331 1618,331"/>
<polygon class="pen1 brush2" points="1672,376 1667,385 1658,402 1646,425 1632,450 1619,475 1607,496 1599,511 1595,517 1600,522 1606,527 1611,532 1616,537 1621,542 1626,548 1632,553 1637,558 1717,416 1712,412 1707,407 1701,401 1694,396 1688,390 1682,385 1676,380 1672,376"/>
<polygon class="pen1 brush0" points="1354,635 1365,633 1374,627 1380,618 1382,608 1380,596 1374,587 1365,580 1354,578 1343,580 1334,587 1327,596 1325,608 1327,618 1334,627 1343,633 1354,635"/>
<polygon class="pen1 brush0" points="990,568 1001,566 1011,559 1017,550 1019,540 1017,529 1011,519 1001,512 990,510 979,512 971,519 965,529 963,540 965,550 971,559 979,566 990,568"/>
<polygon class="pen1 brush0" points="1108,720 1115,719 1122,717 1129,713 1135,709 1139,703 1143,696 1145,688 1146,680 1145,672 1143,665 1139,659 1135,653 1129,648 1122,645 1115,643 1108,642 1100,643 1092,645 1085,648 1079,653 1074,659 1070,665 1068,672 1067,680 1068,688 1070,696 1074,703 1079,709 1085,713 1092,717 1100,719 1108,720"/>
<polygon class="pen1 brush0" points="1013,878 1022,877 1030,874 1038,870 1045,865 1050,858 1054,850 1057,841 1058,832 1057,823 1054,814 1050,806 1045,800 1038,794 1030,790 1022,787 1013,786 1004,787 995,790 987,794 980,800 974,806 970,814 967,823 966,832 967,841 970,850 974,858 980,865 987,870 995,874 1004,877 1013,878"/>
<polygon class="pen1 brush0" points="1246,841 1256,840 1265,837 1274,833 1281,827 1287,820 1292,811 1295,801 1296,791 1295,781 1292,771 1287,763 1281,755 1274,749 1265,744 1256,741 1246,740 1235,741 1226,744 1217,749 1210,755 1203,763 1199,771 1196,781 1195,791 1196,801 1199,811 1203,820 1210,827 1217,833 1226,837 1235,840 1246,841"/>
<polygon class="pen1 brush0" points="1138,497 1148,496 1158,493 1166,489 1174,483 1180,476 1185,467 1188,457 1189,447 1188,437 1185,427 1180,419 1174,411 1166,405 1158,400 1148,397 1138,396 1128,397 1119,400 1110,405 1103,411 1097,419 1092,427 1089,437 1088,447 1089,457 1092,467 1097,476 1103,483 1110,489 1119,493 1128,496 1138,497"/>
<polygon class="pen1 brush0" points="186,638 194,637 202,635 209,631 215,626 219,620 223,613 225,605 226,597 225,589 223,581 219,574 215,568 209,564 202,560 194,558 186,557 178,558 171,560 164,564 158,568 152,574 148,581 146,589 145,597 146,605 148,613 152,620 158,626 164,631 171,635 178,637 186,638"/>
<polygon class="pen1 brush0" points="190,750 198,749 206,747 213,743 219,738 223,732 227,725 229,717 230,709 229,701 227,693 223,686 219,680 213,676 206,672 198,670 190,669 182,670 175,672 168,676 162,680 156,686 152,693 150,701 149,709 150,717 152,725 156,732 162,738 168,743 175,747 182,749 190,750"/>
<polygon class="pen1 brush0" points="476,757 493,755 510,753 527,751 542,749 558,746 572,743 586,740 600,736 613,731 625,726 638,720 649,714 661,707 671,698 682,689 692,679 685,670 674,680 662,689 651,697 639,705 628,711 616,717 603,723 591,727 578,731 565,735 551,738 537,741 523,744 508,746 492,748 476,750 476,757"/>
<polygon class="pen1 brush0" points="477,783 496,784 513,786 528,787 542,788 555,788 567,788 579,788 590,787 601,785 613,783 626,779 639,774 654,768 670,761 689,753 709,743 698,729 682,738 667,747 653,754 639,760 625,765 612,769 600,772 587,774 574,776 562,777 549,778 535,778 521,778 507,778 492,778 476,777 477,783"/>
<polygon class="pen1 brush0" points="456,827 469,843 481,858 492,872 502,885 512,896 521,906 531,916 541,925 551,933 563,941 575,948 589,955 605,961 623,967 643,974 665,980 666,963 644,956 624,949 607,943 591,936 578,929 565,923 554,915 543,908 534,900 524,891 515,882 505,872 495,862 484,850 472,838 459,824 456,827"/>
<polygon class="pen1 brush0" points="467,805 479,810 490,815 500,820 511,825 522,829 533,834 545,838 557,842 570,846 584,850 600,853 616,855 635,857 654,858 676,859 700,859 700,841 680,842 663,842 646,842 631,842 617,841 604,840 592,839 580,837 568,834 556,831 544,828 531,824 517,820 503,815 487,809 469,803 467,805"/>
</g>
</svg>
