<?xml version="1.0" encoding="UTF-8" standalone="no"?>
<!DOCTYPE svg PUBLIC "-//W3C//DTD SVG 1.0//EN" "http://www.w3.org/TR/2001/REC-SVG-20010904/DTD/svg10.dtd">
<svg xmlns="http://www.w3.org/2000/svg" xmlns:xlink="http://www.w3.org/1999/xlink" fill-rule="evenodd" height="1.106in" preserveAspectRatio="none" stroke-linecap="round" viewBox="0 0 1979 1106" width="1.979in">
<style type="text/css">
.brush0 { fill: rgb(255,255,255); }
.pen0 { stroke: rgb(0,0,0); stroke-width: 1; stroke-linejoin: round; }
.brush1 { fill: none; }
.pen1 { stroke: none; }
.brush2 { fill: rgb(0,0,0); }
</style>
<g>
<polygon class="pen1 brush2" points="0,510 7,505 16,498 27,489 39,479 53,467 68,455 83,441 100,426 117,411 135,396 153,380 170,363 188,347 206,331 223,316 239,301 294,342 301,334 247,294 254,287 262,280 269,273 276,267 283,261 289,256 295,251 300,247 308,252 315,258 323,263 330,268 338,273 345,279 353,284 361,290 364,288 366,285 367,283 369,281 365,278 358,273 349,266 338,258 328,251 319,244 313,239 311,237 314,234 318,231 322,228 328,224 334,219 340,214 347,208 355,202 361,208 368,213 374,219 381,224 388,230 395,235 402,241 409,247 411,245 414,242 416,240 419,238 412,232 405,227 399,221 392,215 385,209 379,204 373,198 367,193 374,188 382,182 390,176 398,170 407,164 416,158 426,151 436,145 441,152 446,158 451,165 456,172 461,179 467,185 472,193 477,200 479,198 482,196 485,195 489,193 484,186 478,178 473,171 468,164 463,158 458,151 453,144 449,138 457,133 465,127 474,122 482,117 491,112 500,107 509,101 519,96 523,104 528,111 532,120 537,128 542,136 547,144 552,152 557,160 560,159 563,158 565,156 568,156 563,147 558,139 554,130 549,122 545,114 540,106 536,99 531,91 540,86 549,82 558,77 567,73 577,69 586,66 596,62 605,58 610,66 615,74 620,83 625,92 630,101 636,110 641,119 646,129 650,128 654,127 657,126 661,125 655,115 649,106 644,97 638,87 633,78 628,69 623,61 618,52 630,48 642,44 654,40 666,36 678,32 691,28 703,24 716,21 719,42 723,64 728,88 733,112 736,111 739,110 743,109 746,109 742,84 738,61 735,38 732,17 745,15 759,12 772,10 786,8 799,6 813,5 827,4 841,3 841,26 841,50 841,76 842,102 846,102 850,102 854,102 858,102 856,75 855,49 855,24 855,1 869,1 883,1 897,1 910,2 924,3 938,4 951,6 965,7 961,31 957,55 953,81 949,109 952,109 955,109 958,110 962,111 967,84 971,59 975,34 977,11 989,13 1002,15 1014,18 1027,21 1040,24 1052,28 1065,32 1077,37 1073,47 1069,58 1065,69 1061,80 1056,92 1051,104 1046,116 1041,128 1045,129 1048,130 1051,131 1055,132 1060,120 1066,108 1070,96 1075,85 1079,73 1084,62 1088,52 1092,41 1102,45 1111,49 1121,53 1131,58 1141,63 1150,68 1160,73 1169,78 1164,87 1158,96 1152,106 1146,115 1139,125 1133,135 1126,146 1119,156 1123,157 1127,158 1130,160 1134,162 1141,152 1147,142 1154,132 1160,122 1166,113 1172,103 1177,94 1182,85 1191,90 1200,95 1209,100 1218,105 1227,111 1236,117 1244,123 1253,129 1248,138 1243,147 1237,156 1231,165 1225,174 1219,183 1212,193 1206,203 1209,205 1213,207 1216,209 1219,211 1225,202 1232,192 1238,183 1243,174 1249,165 1254,156 1259,148 1264,139 1270,144 1276,149 1282,154 1289,159 1295,164 1301,169 1308,174 1314,179 1309,187 1303,195 1298,204 1293,213 1287,222 1281,231 1275,240 1269,250 1272,253 1275,255 1277,258 1280,261 1286,252 1292,242 1298,233 1304,224 1309,215 1314,206 1319,197 1324,189 1332,196 1340,203 1348,210 1356,218 1364,226 1371,234 1379,242 1386,251 1380,259 1374,267 1368,276 1361,284 1354,292 1347,300 1339,309 1332,318 1334,321 1337,324 1339,328 1341,331 1348,322 1356,313 1363,304 1370,296 1377,287 1384,279 1390,271 1396,263 1402,270 1409,277 1415,284 1422,292 1428,299 1435,307 1441,316 1448,324 1441,332 1433,341 1426,350 1418,360 1410,369 1402,379 1394,390 1385,400 1386,404 1387,407 1389,410 1391,413 1400,403 1409,393 1417,383 1426,373 1434,363 1442,354 1449,344 1456,335 1464,345 1471,355 1479,365 1486,375 1494,386 1501,397 1509,408 1516,419 1432,449 1436,463 1523,430 1531,441 1538,452 1545,464 1551,476 1554,475 1563,472 1577,467 1595,460 1617,452 1641,443 1668,433 1697,422 1726,411 1756,400 1785,388 1813,377 1838,366 1862,356 1882,347 1898,339 1899,341 1903,347 1908,357 1914,370 1922,386 1930,405 1939,427 1948,450 1671,521 1960,490 1966,516 1972,542 1976,569 1979,596 1686,582 1979,639 1977,654 1975,670 1972,685 1968,700 1963,714 1957,729 1951,744 1943,758 1534,639 1533,640 1532,643 1529,649 1525,656 1520,664 1514,675 1506,687 1497,700 1491,691 1485,681 1479,672 1472,662 1465,652 1457,642 1450,631 1442,621 1440,624 1439,628 1437,632 1436,636 1443,647 1450,657 1457,667 1464,677 1470,687 1477,697 1483,706 1489,716 1484,724 1478,732 1471,741 1465,750 1458,759 1451,768 1443,778 1436,788 1431,780 1426,772 1420,764 1415,756 1410,748 1404,740 1398,732 1392,723 1390,726 1388,730 1386,734 1384,737 1389,746 1395,754 1400,762 1405,770 1410,778 1416,786 1421,793 1426,801 1419,810 1412,819 1404,828 1397,837 1389,846 1381,855 1373,864 1365,873 1361,865 1357,857 1353,849 1348,841 1344,833 1340,825 1335,817 1331,808 1328,811 1326,814 1323,818 1320,821 1324,830 1328,838 1332,846 1336,854 1340,862 1344,870 1348,878 1352,886 1347,892 1341,898 1335,904 1329,909 1323,915 1317,921 1310,927 1304,933 1300,925 1296,918 1292,910 1288,902 1284,894 1279,886 1275,878 1270,869 1267,871 1264,874 1260,877 1257,879 1262,888 1266,897 1271,905 1275,913 1279,921 1282,929 1286,937 1290,944 1282,951 1274,958 1265,965 1257,972 1248,979 1239,986 1230,993 1220,1000 1216,991 1212,983 1208,974 1203,965 1199,957 1194,948 1190,939 1185,930 1181,932 1177,934 1174,937 1171,939 1176,948 1181,957 1186,966 1190,974 1194,983 1199,991 1203,999 1207,1007 1199,1013 1190,1019 1181,1025 1172,1030 1163,1036 1153,1041 1144,1046 1135,1051 1129,1031 1122,1010 1115,989 1107,967 1103,969 1100,970 1096,971 1092,973 1099,995 1107,1016 1114,1037 1121,1057 1109,1062 1098,1067 1086,1072 1074,1076 1062,1080 1050,1084 1038,1088 1026,1092 1022,1068 1019,1044 1016,1019 1013,994 1009,994 1005,995 1002,996 999,997 1002,1022 1005,1047 1008,1072 1011,1095 999,1097 986,1100 973,1102 960,1103 947,1104 934,1105 920,1106 906,1106 906,1082 907,1057 908,1031 909,1004 905,1004 901,1004 898,1004 895,1004 893,1031 892,1057 892,1082 892,1106 879,1106 866,1105 853,1104 839,1102 825,1101 812,1098 798,1095 784,1092 787,1069 790,1046 794,1022 797,996 794,995 790,994 787,994 784,994 779,1018 776,1042 772,1065 770,1088 758,1085 747,1082 735,1078 723,1074 711,1070 699,1065 687,1060 675,1055 679,1046 684,1036 688,1026 693,1017 697,1007 702,997 707,986 712,976 708,975 705,973 701,972 698,971 693,981 688,991 684,1000 679,1010 674,1020 670,1029 666,1039 662,1048 653,1044 644,1039 634,1034 625,1029 616,1024 606,1019 597,1013 588,1007 592,999 596,991 599,983 603,974 607,966 612,957 616,949 621,940 617,937 613,935 610,934 608,933 603,942 599,950 594,958 590,966 586,975 583,983 579,991 575,1000 567,994 558,988 550,982 541,975 533,969 524,963 516,956 507,950 511,943 515,936 519,929 523,922 527,914 532,907 536,899 540,892 537,890 535,887 532,885 529,883 525,890 520,898 516,905 512,912 508,919 504,926 500,933 496,940 487,933 479,926 470,919 462,912 453,904 445,897 436,888 428,880 433,875 438,869 443,864 448,858 453,853 459,847 464,841 469,835 467,833 465,830 462,827 460,825 454,831 449,837 443,843 438,849 432,854 427,860 421,865 416,871 411,865 405,860 400,854 395,849 389,843 384,837 378,831 372,825 378,820 384,815 390,810 397,805 403,799 409,794 415,788 421,782 419,780 417,777 414,775 412,773 406,779 399,784 393,789 387,794 380,800 374,805 368,810 362,815 357,809 351,802 346,796 340,789 334,783 328,777 323,770 317,764 321,762 331,756 346,746 365,734 386,718 408,700 429,680 449,658 465,635 477,611 482,586 480,561 469,536 447,511 414,487 368,464 371,466 377,470 387,478 399,488 412,500 424,515 434,532 442,551 446,571 444,593 436,617 421,641 397,667 363,693 317,720 260,747 251,749 240,748 227,745 213,741 197,734 179,725 161,715 142,704 123,692 104,679 85,665 66,651 48,637 30,622 15,608 0,594 38,559 0,510"/>
<polygon class="pen1 brush0" points="144,534 155,532 164,527 170,518 172,507 170,497 164,488 155,482 144,480 133,482 125,488 119,497 117,507 119,518 125,527 133,532 144,534"/>
<polygon class="pen1 brush0" points="142,623 152,621 161,615 167,607 169,596 167,585 161,576 152,570 142,568 130,570 122,576 116,585 114,596 116,607 122,615 130,621 142,623"/>
</g>
</svg>
