<?xml version="1.0" encoding="UTF-8" standalone="no"?>
<!DOCTYPE svg PUBLIC "-//W3C//DTD SVG 1.0//EN" "http://www.w3.org/TR/2001/REC-SVG-20010904/DTD/svg10.dtd">
<svg xmlns="http://www.w3.org/2000/svg" xmlns:xlink="http://www.w3.org/1999/xlink" fill-rule="evenodd" height="1.368in" preserveAspectRatio="none" stroke-linecap="round" viewBox="0 0 2041 1368" width="2.041in">
<style type="text/css">
.brush0 { fill: rgb(255,255,255); }
.pen0 { stroke: rgb(0,0,0); stroke-width: 1; stroke-linejoin: round; }
.brush1 { fill: none; }
.pen1 { stroke: none; }
.brush2 { fill: rgb(0,0,0); }
</style>
<g>
<polygon class="pen1 brush2" points="1325,761 1325,765 1324,776 1325,792 1328,811 1333,832 1343,853 1358,871 1379,885 1378,887 1375,891 1372,899 1370,908 1369,920 1370,932 1375,946 1385,960 1382,962 1373,967 1360,973 1344,979 1326,984 1308,984 1290,980 1273,970 1268,972 1255,975 1236,980 1215,984 1193,987 1173,986 1157,981 1149,970 1147,972 1142,976 1134,982 1123,986 1109,989 1092,989 1073,983 1051,970 1049,972 1043,977 1032,984 1019,990 1002,995 982,996 960,992 935,982 933,984 927,990 918,999 907,1008 894,1017 881,1025 867,1029 855,1030 853,1032 848,1037 841,1045 831,1053 819,1060 805,1066 790,1069 774,1068 763,1261 760,1262 752,1265 741,1270 729,1278 718,1289 708,1304 703,1323 703,1347 558,1347 608,1283 610,1282 614,1280 620,1277 628,1272 637,1265 646,1258 653,1250 660,1240 669,1204 672,1148 665,1093 650,1057 647,1057 638,1056 624,1055 608,1052 589,1047 571,1039 553,1028 537,1014 533,1015 523,1018 508,1020 490,1020 471,1017 451,1008 434,991 419,966 417,966 410,964 401,959 391,951 380,939 369,922 361,899 355,868 352,867 346,863 337,856 327,846 317,833 309,817 306,797 307,773 304,769 296,757 287,739 280,716 280,716 277,700 278,682 282,664 291,645 289,643 284,637 276,628 268,616 261,603 255,588 252,573 254,558 253,557 250,553 245,547 238,539 231,529 224,517 217,504 210,489 208,491 201,497 189,505 175,514 157,523 137,529 115,533 91,531 98,463 97,466 92,474 86,485 78,496 68,506 57,512 46,513 34,506 25,488 24,462 29,429 40,391 56,352 76,312 99,274 125,241 125,236 126,224 128,208 132,188 139,170 149,153 164,142 183,139 184,136 186,129 190,118 198,106 209,93 224,80 244,70 270,64 285,60 299,53 313,45 328,40 343,38 361,43 380,57 403,81 407,79 417,74 433,69 453,65 475,65 499,72 522,88 543,114 546,113 554,113 567,114 582,117 599,126 617,140 634,162 650,193 654,193 663,193 677,195 694,198 713,204 731,214 749,228 763,247 766,244 774,238 787,229 803,220 821,212 839,209 858,211 875,220 876,219 879,217 884,213 890,208 898,203 908,198 918,192 930,187 942,183 955,179 968,177 982,177 996,179 1010,183 1024,189 1037,199 1038,198 1042,197 1047,194 1054,190 1063,187 1073,183 1084,179 1097,176 1110,173 1123,171 1137,170 1152,171 1166,174 1180,178 1194,184 1207,193 1208,192 1212,190 1219,187 1227,184 1237,180 1249,176 1261,171 1275,168 1288,165 1303,162 1317,161 1330,162 1343,164 1355,168 1366,174 1375,183 1376,182 1380,181 1386,178 1393,175 1402,171 1413,167 1425,164 1437,161 1450,158 1463,157 1477,157 1490,158 1502,161 1514,166 1525,173 1535,183 1539,181 1551,175 1568,167 1590,161 1613,157 1637,158 1660,166 1680,183 1684,182 1697,179 1714,177 1735,176 1758,179 1780,188 1799,203 1814,226 1818,226 1828,226 1842,229 1860,234 1878,244 1896,259 1912,281 1923,311 1927,313 1936,320 1949,331 1963,345 1973,363 1980,385 1978,409 1966,436 1969,439 1977,447 1987,461 1997,479 2004,501 2007,526 2002,554 1987,585 1989,587 1992,593 1997,602 2001,614 2003,628 2003,644 1998,660 1987,676 1990,679 1996,687 2005,700 2014,716 2014,716 2020,729 2024,742 2026,756 2026,770 2023,783 2016,795 2004,806 1987,815 1988,818 1992,826 1996,837 2000,849 2001,861 1998,872 1990,878 1976,879 1959,877 1945,873 1934,868 1924,860 1915,850 1907,838 1898,823 1889,804 1889,808 1889,818 1888,833 1885,851 1878,870 1869,889 1855,905 1835,918 1836,922 1838,932 1839,946 1839,963 1836,980 1829,997 1817,1011 1798,1020 1798,1023 1797,1029 1795,1040 1791,1052 1787,1065 1780,1079 1771,1091 1760,1101 1764,1102 1774,1108 1785,1118 1794,1134 1797,1159 1790,1193 1769,1237 1729,1294 1728,1295 1727,1299 1724,1304 1720,1309 1714,1315 1707,1320 1699,1324 1690,1325 1687,1328 1680,1336 1675,1350 1675,1368 1545,1368 1595,1310 1596,1310 1599,1310 1603,1309 1608,1308 1615,1306 1623,1303 1632,1299 1642,1294 1652,1284 1662,1269 1671,1249 1680,1227 1688,1205 1696,1184 1701,1166 1706,1153 1703,1153 1696,1151 1685,1148 1673,1145 1660,1140 1648,1133 1638,1125 1632,1116 1623,1112 1611,1107 1597,1101 1582,1094 1568,1084 1556,1071 1548,1055 1545,1035 1543,1036 1538,1039 1530,1041 1521,1041 1510,1037 1499,1027 1487,1009 1477,982 1473,982 1463,980 1449,975 1434,966 1419,952 1408,930 1403,899 1406,858 1403,857 1394,852 1382,844 1370,832 1360,816 1354,794 1355,767 1364,734 1349,728 1338,720 1331,709 1327,696 1326,682 1328,667 1332,653 1337,639 1334,637 1327,631 1318,620 1308,605 1301,585 1299,560 1302,530 1315,494 1311,497 1301,507 1289,523 1278,543 1271,567 1270,594 1280,624 1304,655 1297,669 1294,684 1292,699 1294,713 1298,726 1304,739 1313,751 1325,761"/>
<polygon class="pen1 brush0" points="224,331 231,330 238,328 244,325 250,320 254,314 257,308 259,301 260,294 259,287 257,280 254,274 250,268 244,264 238,261 231,259 224,258 217,259 210,261 204,264 199,268 195,274 192,280 190,287 189,294 190,301 192,308 195,314 199,320 204,325 210,328 217,330 224,331"/>
<polygon class="pen1 brush0" points="756,669 739,706 719,729 696,739 673,738 651,726 633,706 620,677 614,642 602,657 586,669 567,677 546,678 527,671 510,655 498,629 493,591 461,601 435,598 416,585 403,565 395,540 390,513 388,487 389,463 402,463 403,487 407,510 413,533 423,552 436,567 454,575 476,576 504,567 509,605 521,630 537,645 555,651 575,648 594,640 610,628 621,612 626,644 638,671 654,691 673,705 694,710 716,707 737,693 756,669"/>
<polygon class="pen1 brush0" points="321,244 325,235 330,224 334,212 339,200 343,187 347,175 350,163 352,153 353,136 349,126 342,122 331,124 326,126 320,129 314,134 308,140 300,148 292,157 284,167 274,179 266,173 274,162 282,152 289,144 296,136 303,130 310,124 317,119 325,115 338,111 349,112 358,119 362,132 362,151 357,176 346,208 328,247 321,244"/>
</g>
</svg>
