<?xml version="1.0" encoding="UTF-8" standalone="no"?>
<!DOCTYPE svg PUBLIC "-//W3C//DTD SVG 1.0//EN" "http://www.w3.org/TR/2001/REC-SVG-20010904/DTD/svg10.dtd">
<svg xmlns="http://www.w3.org/2000/svg" xmlns:xlink="http://www.w3.org/1999/xlink" fill-rule="evenodd" height="0.766in" preserveAspectRatio="none" stroke-linecap="round" viewBox="0 0 1978 766" width="1.978in">
<style type="text/css">
.brush0 { fill: rgb(255,255,255); }
.pen0 { stroke: rgb(0,0,0); stroke-width: 1; stroke-linejoin: round; }
.brush1 { fill: none; }
.pen1 { stroke: none; }
.brush2 { fill: rgb(0,0,0); }
</style>
<g>
<polygon class="pen1 brush2" points="443,568 449,570 455,572 460,573 466,574 470,574 474,575 477,575 478,575 512,607 540,630 563,647 580,658 594,663 603,663 609,660 612,653 612,644 611,634 609,623 606,613 602,603 599,595 597,590 596,588 617,593 642,596 670,599 701,601 734,603 768,604 803,604 838,603 874,603 909,601 942,600 975,598 1005,596 1033,593 1057,591 1078,588 1097,587 1116,589 1136,594 1155,600 1175,609 1193,618 1211,629 1229,640 1245,651 1259,663 1272,673 1283,682 1293,690 1299,697 1304,701 1305,702 1308,658 1318,619 1335,585 1358,555 1385,530 1415,509 1448,492 1481,478 1515,467 1548,459 1579,452 1606,448 1629,445 1647,444 1659,443 1663,443 1679,470 1697,496 1717,519 1737,541 1757,561 1778,579 1799,595 1819,609 1838,622 1856,633 1872,642 1885,649 1897,655 1906,659 1911,661 1913,662 1900,640 1884,613 1867,582 1850,549 1834,514 1821,480 1811,447 1806,416 1807,401 1812,384 1820,365 1831,346 1844,326 1859,306 1874,286 1891,267 1907,249 1923,232 1937,216 1951,203 1962,192 1970,183 1976,178 1978,176 1953,181 1927,189 1901,201 1874,214 1847,230 1821,246 1795,264 1771,282 1748,300 1727,317 1708,332 1692,346 1678,358 1668,367 1662,373 1660,375 1644,366 1623,357 1598,347 1570,337 1540,327 1509,316 1477,306 1445,296 1414,287 1384,278 1357,270 1333,263 1313,258 1298,254 1288,251 1285,250 1318,210 1160,151 1103,193 1087,191 1067,189 1045,186 1022,183 1001,180 983,178 971,177 967,176 983,145 950,133 927,178 910,179 937,129 886,109 849,178 833,179 873,105 822,85 774,178 758,179 811,81 760,62 697,178 681,179 748,58 696,38 622,178 606,179 683,34 633,14 545,178 529,179 620,10 591,0 457,180 407,186 359,194 314,204 272,215 234,227 198,240 165,254 136,267 109,280 86,293 67,304 50,314 38,323 28,329 23,334 21,335 103,412 0,386 10,408 28,428 51,447 79,464 111,480 146,494 183,506 220,517 256,527 292,535 324,542 353,548 378,552 397,556 409,557 413,558 421,550 428,541 434,533 437,530 467,537 465,540 459,548 451,557 443,568"/>
<polygon class="pen1 brush0" points="170,368 179,366 185,362 190,355 191,347 190,338 185,331 179,327 170,325 163,327 156,331 152,338 150,347 152,355 156,362 163,366 170,368"/>
<polygon class="pen1 brush0" points="423,307 491,316 551,323 603,329 649,333 689,336 725,339 757,341 785,342 812,342 837,343 861,343 886,343 912,344 941,345 972,346 1007,348 960,409 980,422 1037,351 1068,352 1098,355 1046,413 1065,429 1127,356 1180,359 1126,416 1146,429 1211,365 1240,367 1269,369 1298,372 1327,375 1355,379 1383,382 1411,386 1438,390 1464,393 1490,397 1514,400 1538,403 1561,406 1583,409 1603,411 1622,412 1602,417 1581,422 1560,427 1539,433 1517,439 1496,445 1474,452 1453,458 1432,465 1411,471 1391,478 1372,484 1353,490 1335,496 1317,502 1301,507 1283,512 1266,517 1249,521 1232,526 1216,530 1199,534 1182,537 1165,541 1148,545 1130,548 1111,551 1091,555 1071,558 1049,561 1026,564 1001,567 967,570 933,572 899,574 866,575 833,576 799,577 766,577 733,576 700,574 667,572 634,568 600,564 567,559 534,553 500,545 467,537 437,530 449,501 458,473 463,445 463,417 460,389 452,361 440,334 423,307"/>
<polygon class="pen1 brush2" points="491,419 499,415 507,411 514,408 522,404 529,400 537,396 545,393 554,389 563,386 573,383 584,381 595,378 609,376 623,374 639,373 656,372 656,385 642,385 629,385 617,386 606,387 596,388 587,389 578,390 570,392 561,394 553,397 544,400 535,404 525,407 515,412 504,417 491,422 491,419 491,419"/>
<polygon class="pen1 brush2" points="498,433 501,436 514,433 526,431 536,428 547,426 556,424 565,422 574,421 583,420 592,420 602,420 612,421 623,422 635,424 648,427 663,431 679,436 683,426 667,421 653,417 641,413 629,411 618,409 608,409 598,409 588,409 579,410 569,412 559,415 549,418 538,421 526,425 512,429 498,433 498,433"/>
<polygon class="pen1 brush2" points="502,463 527,469 550,476 571,483 591,492 608,502 625,513 640,527 653,543 647,547 632,531 617,518 600,506 583,497 565,489 545,481 524,474 502,467 502,463 502,463"/>
<polygon class="pen1 brush2" points="504,447 518,446 530,445 541,445 551,444 560,444 568,444 577,444 585,445 593,446 602,448 611,451 621,454 632,459 644,464 658,470 673,477 666,487 654,480 642,475 631,470 621,466 611,462 601,459 592,457 583,455 574,454 564,453 555,453 546,453 536,453 526,453 515,453 504,453 504,447"/>
</g>
</svg>
