<?xml version="1.0" encoding="UTF-8" standalone="no"?>
<!DOCTYPE svg PUBLIC "-//W3C//DTD SVG 1.0//EN" "http://www.w3.org/TR/2001/REC-SVG-20010904/DTD/svg10.dtd">
<svg xmlns="http://www.w3.org/2000/svg" xmlns:xlink="http://www.w3.org/1999/xlink" fill-rule="evenodd" height="0.715in" preserveAspectRatio="none" stroke-linecap="round" viewBox="0 0 1977 715" width="1.977in">
<style type="text/css">
.brush0 { fill: rgb(255,255,255); }
.pen0 { stroke: rgb(0,0,0); stroke-width: 1; stroke-linejoin: round; }
.brush1 { fill: none; }
.pen1 { stroke: none; }
.brush2 { fill: rgb(0,0,0); }
</style>
<g>
<polygon class="pen1 brush2" points="1919,88 1914,99 1907,112 1898,126 1887,142 1875,160 1862,177 1848,196 1834,214 1820,233 1806,250 1792,268 1779,283 1767,298 1757,311 1747,322 1740,330 1742,332 1748,336 1758,344 1770,354 1785,365 1802,379 1820,394 1839,409 1859,426 1880,442 1899,459 1918,475 1936,490 1952,504 1966,516 1977,527 1973,527 1963,526 1947,525 1925,524 1899,521 1869,518 1836,514 1801,508 1764,501 1727,492 1689,481 1652,469 1616,454 1582,438 1551,419 1524,397 1521,397 1512,397 1500,398 1484,399 1467,401 1450,404 1433,408 1419,414 1419,415 1421,418 1427,426 1443,438 1441,440 1436,445 1428,452 1417,461 1412,457 1408,452 1403,448 1399,444 1394,439 1390,435 1385,431 1381,427 1373,428 1378,433 1382,438 1387,443 1392,448 1397,452 1402,457 1407,461 1412,465 1406,469 1400,474 1394,478 1388,483 1382,479 1376,474 1370,469 1364,464 1358,459 1352,454 1346,448 1341,442 1334,444 1339,450 1345,455 1351,461 1357,467 1363,472 1369,478 1376,483 1382,488 1376,493 1370,498 1364,502 1358,508 1351,502 1343,496 1336,490 1328,484 1321,478 1314,471 1308,465 1301,458 1294,458 1301,466 1307,473 1314,480 1322,487 1329,493 1336,500 1344,506 1352,512 1347,516 1341,520 1335,525 1328,529 1319,523 1310,517 1301,510 1293,503 1284,496 1276,488 1268,480 1260,472 1254,475 1262,483 1270,491 1278,499 1287,506 1296,513 1305,520 1314,527 1324,533 1317,538 1311,543 1304,548 1298,553 1288,546 1278,539 1268,531 1258,523 1248,515 1239,507 1229,498 1220,489 1213,489 1222,499 1232,508 1241,517 1251,525 1262,534 1272,541 1283,549 1294,556 1287,561 1280,566 1273,571 1267,576 1256,569 1245,561 1234,553 1224,545 1213,536 1203,527 1193,518 1183,508 1176,509 1185,519 1195,529 1205,538 1216,547 1227,556 1238,564 1249,572 1261,580 1255,584 1249,588 1243,593 1237,597 1224,589 1212,581 1200,573 1188,564 1176,554 1165,544 1153,534 1142,523 1135,525 1145,536 1156,547 1168,557 1180,567 1192,576 1205,584 1218,592 1231,600 1224,605 1218,609 1213,613 1207,616 1202,619 1198,621 1193,623 1189,624 1185,622 1176,617 1162,609 1144,599 1125,586 1105,573 1087,559 1071,544 1069,544 1064,546 1055,547 1043,550 1030,552 1014,555 997,559 979,562 961,565 942,569 924,572 906,575 890,578 875,580 862,582 852,583 853,583 855,583 859,585 864,587 870,590 877,596 886,603 895,613 893,616 886,625 877,638 866,654 855,671 844,688 836,703 831,715 830,712 825,702 819,689 812,672 804,653 795,634 787,616 780,600 777,600 767,600 751,600 731,599 706,599 679,598 649,597 618,596 586,595 554,594 523,593 494,591 467,589 444,587 426,585 412,583 414,581 418,577 425,569 433,560 441,548 450,534 458,519 465,502 470,485 473,467 472,448 467,429 458,411 443,393 422,376 395,360 400,366 411,381 425,404 436,433 441,466 434,501 412,537 369,570 366,570 358,571 345,571 329,571 309,571 286,570 262,569 236,566 209,563 182,558 155,551 129,543 106,533 84,521 66,506 51,489 55,490 64,492 79,494 98,497 119,500 141,502 163,503 183,502 181,501 177,500 169,497 160,494 149,490 136,484 122,478 107,472 92,464 77,456 63,448 49,439 36,429 25,419 17,409 10,398 5,385 4,372 8,359 17,346 21,342 25,337 30,333 36,329 42,325 49,321 56,317 64,313 82,304 100,296 120,287 140,279 161,271 182,263 204,256 227,248 250,241 274,234 298,228 323,221 348,215 374,209 400,204 426,198 453,194 480,189 507,185 534,181 561,177 589,174 617,171 645,169 672,167 700,165 728,164 756,163 783,163 811,163 838,164 865,165 866,164 869,160 873,153 879,145 887,135 896,123 906,111 918,97 931,84 944,70 959,56 974,43 990,30 1007,19 1024,8 1042,0 1043,4 1045,12 1047,22 1048,29 1027,43 1007,59 988,75 970,93 953,112 938,131 925,152 915,174 923,174 935,152 948,132 963,113 979,95 996,79 1014,63 1032,49 1051,35 1053,41 1056,48 1059,56 1062,64 1048,77 1034,90 1020,103 1008,118 996,132 986,148 977,164 969,181 977,181 985,165 994,149 1004,134 1015,120 1027,107 1039,94 1052,82 1065,70 1068,78 1072,86 1077,95 1081,104 1072,113 1064,123 1055,133 1048,143 1040,154 1034,165 1028,176 1023,188 1031,188 1036,177 1042,166 1049,156 1055,146 1062,137 1070,128 1077,119 1085,110 1090,118 1096,126 1102,134 1108,142 1103,148 1099,154 1095,161 1091,168 1087,175 1084,181 1081,188 1078,195 1085,195 1092,183 1098,171 1106,161 1114,150 1120,157 1127,164 1135,171 1142,178 1140,184 1137,190 1134,196 1132,202 1141,202 1143,197 1145,192 1147,188 1149,184 1160,190 1176,197 1197,203 1221,210 1249,217 1278,223 1309,230 1342,236 1374,242 1407,248 1438,253 1467,258 1494,262 1518,266 1538,268 1554,270 1919,88"/>
<polygon class="pen1 brush0" points="1379,304 1401,320 1412,334 1414,347 1409,359 1401,368 1392,375 1385,379 1382,381 1372,381 1380,374 1388,367 1395,358 1399,348 1400,338 1396,327 1386,316 1368,304 1379,304 1379,304"/>
<polygon class="pen1 brush0" points="1294,360 1281,360 1299,371 1310,381 1315,392 1314,402 1310,412 1303,420 1295,428 1287,435 1295,435 1298,433 1306,429 1315,422 1324,412 1329,401 1327,389 1316,375 1294,360 1294,360"/>
<polygon class="pen1 brush0" points="1214,273 1236,288 1247,301 1248,314 1244,325 1236,334 1227,341 1220,345 1217,347 1207,347 1215,341 1223,334 1230,325 1234,316 1235,306 1230,295 1220,284 1203,273 1214,273 1214,273"/>
<polygon class="pen1 brush0" points="1119,383 1148,402 1162,419 1164,435 1158,450 1147,461 1136,470 1126,476 1122,478 1111,478 1121,470 1131,460 1139,449 1145,436 1146,424 1141,410 1127,397 1105,383 1119,383 1119,383"/>
<polygon class="pen1 brush0" points="1034,263 1059,280 1070,296 1072,310 1067,323 1058,333 1048,340 1040,345 1037,347 1027,347 1035,340 1044,332 1051,322 1056,312 1057,300 1052,288 1040,276 1021,263 1034,263 1034,263"/>
<polygon class="pen1 brush0" points="939,331 923,331 946,346 959,361 964,375 964,388 958,400 949,411 939,421 929,429 942,429 946,427 955,421 967,412 977,400 983,386 981,369 967,351 939,331 939,331"/>
<polygon class="pen1 brush0" points="805,258 831,276 844,292 846,307 841,320 831,331 820,340 812,345 808,347 797,347 807,340 816,331 824,321 829,309 830,297 825,284 812,271 791,258 805,258 805,258"/>
<polygon class="pen1 brush0" points="824,429 852,449 866,467 868,484 862,499 851,512 839,521 829,527 825,529 814,529 824,521 834,511 843,499 849,486 849,473 844,459 831,444 808,429 824,429 824,429"/>
<polygon class="pen1 brush0" points="707,331 692,331 715,346 729,361 734,375 733,388 727,400 719,411 709,421 699,429 710,429 714,427 724,421 736,412 746,400 752,386 750,369 736,351 707,331 707,331"/>
<polygon class="pen1 brush0" points="575,249 604,269 618,287 620,304 614,318 604,330 592,339 582,345 578,347 567,347 577,339 587,330 596,319 601,306 602,293 597,279 583,264 560,249 575,249"/>
<polygon class="pen1 brush0" points="510,546 535,535 556,525 574,516 589,507 603,497 616,485 629,470 643,452 632,452 618,470 604,484 591,495 578,505 564,513 548,521 531,530 510,540 510,546 510,546"/>
<polygon class="pen1 brush0" points="508,532 508,525 526,514 543,504 558,494 571,483 583,471 595,458 605,444 615,427 625,428 616,445 605,460 593,475 579,488 563,500 546,511 527,522 508,532 508,532"/>
<polygon class="pen1 brush0" points="508,516 508,509 520,500 531,491 542,482 551,472 560,462 569,452 577,440 584,428 592,428 586,440 579,452 570,464 560,475 548,486 536,496 523,506 508,516"/>
<polygon class="pen1 brush0" points="170,337 177,338 183,339 189,342 194,346 198,350 201,355 202,361 203,367 202,373 201,379 198,384 194,389 189,393 183,396 177,397 170,398 164,397 158,396 153,393 148,389 144,384 141,379 140,373 139,367 140,361 141,355 144,350 148,346 153,342 158,339 164,338 170,337"/>
</g>
</svg>
