<?xml version="1.0" encoding="UTF-8" standalone="no"?>
<!DOCTYPE svg PUBLIC "-//W3C//DTD SVG 1.0//EN" "http://www.w3.org/TR/2001/REC-SVG-20010904/DTD/svg10.dtd">
<svg xmlns="http://www.w3.org/2000/svg" xmlns:xlink="http://www.w3.org/1999/xlink" fill-rule="evenodd" height="1.346in" preserveAspectRatio="none" stroke-linecap="round" viewBox="0 0 1979 1346" width="1.979in">
<style type="text/css">
.brush0 { fill: rgb(255,255,255); }
.pen0 { stroke: rgb(0,0,0); stroke-width: 1; stroke-linejoin: round; }
.brush1 { fill: none; }
.pen1 { stroke: none; }
.brush2 { fill: rgb(0,0,0); }
</style>
<g>
<polygon class="pen1 brush2" points="1775,1223 1778,1225 1785,1231 1794,1240 1804,1252 1811,1266 1814,1282 1811,1299 1800,1316 1280,1346 1279,1345 1276,1341 1272,1335 1267,1327 1263,1318 1259,1308 1257,1297 1257,1286 1259,1275 1265,1264 1275,1253 1290,1244 1310,1236 1336,1229 1368,1225 1408,1223 1405,1220 1397,1210 1385,1195 1371,1175 1357,1150 1342,1120 1330,1087 1322,1051 1318,1012 1321,971 1331,928 1351,883 1381,838 1423,793 1479,748 1549,704 1545,705 1535,707 1518,712 1497,720 1473,730 1446,743 1418,761 1390,782 1363,807 1338,837 1316,873 1299,913 1287,960 1282,1012 1285,1071 1297,1137 1295,1137 1290,1136 1281,1136 1269,1134 1254,1132 1238,1128 1218,1124 1198,1119 1175,1112 1151,1103 1127,1093 1101,1082 1076,1068 1050,1052 1024,1034 999,1014 1000,1022 1002,1044 1003,1076 1002,1114 995,1155 982,1195 960,1230 928,1257 928,1260 928,1266 927,1276 925,1288 921,1300 914,1311 904,1319 891,1325 678,1338 677,1337 676,1334 674,1329 673,1323 671,1315 670,1307 671,1298 673,1289 676,1281 682,1272 691,1264 702,1257 718,1251 736,1247 759,1244 787,1244 791,1241 800,1233 811,1221 822,1204 829,1184 831,1161 823,1135 804,1107 778,1078 752,1050 727,1025 702,1000 679,975 656,952 634,928 613,903 593,879 574,852 555,825 538,795 521,764 506,730 491,692 478,652 475,645 468,635 458,622 445,608 430,592 411,575 389,558 365,540 338,523 308,507 276,492 242,478 206,467 167,458 126,453 83,451 75,450 65,448 54,444 43,439 33,433 23,427 15,420 9,413 4,406 5,398 12,392 26,387 48,383 68,380 85,377 100,373 112,369 122,364 131,358 138,349 134,347 124,341 109,333 91,323 71,313 51,302 33,293 17,285 13,221 12,217 10,208 10,197 13,187 15,185 17,184 20,183 24,183 29,183 34,185 40,187 47,191 49,191 53,190 60,190 69,189 80,188 93,187 106,185 121,184 135,182 149,181 163,179 177,177 188,175 199,173 207,172 213,170 224,165 237,156 252,146 269,136 286,126 303,119 320,114 337,115 354,117 371,119 388,120 404,120 418,120 429,119 436,119 439,119 445,102 454,82 465,62 480,43 497,26 518,13 543,3 571,0 575,20 580,42 585,65 588,87 589,109 586,130 577,150 563,167 566,168 575,171 590,176 609,180 633,185 660,188 689,189 721,187 737,185 754,184 772,183 790,182 810,181 829,181 850,182 871,184 893,188 915,192 938,199 962,207 986,216 1011,228 1037,242 1063,259 1074,265 1085,270 1097,274 1110,277 1124,278 1138,279 1152,278 1167,277 1173,276 1181,274 1193,272 1207,269 1223,265 1242,262 1263,259 1286,255 1310,252 1336,250 1363,249 1392,248 1421,249 1451,251 1482,254 1513,259 1533,263 1554,268 1574,274 1595,281 1615,289 1635,297 1655,307 1675,318 1695,330 1714,344 1733,358 1752,374 1770,391 1788,410 1805,430 1821,451 1839,476 1856,500 1871,525 1886,549 1900,574 1913,598 1924,622 1935,646 1946,671 1955,696 1962,722 1968,747 1973,773 1976,798 1978,824 1978,849 1976,876 1972,902 1967,929 1959,955 1950,982 1939,1009 1925,1035 1910,1062 1897,1082 1883,1102 1868,1122 1852,1142 1835,1163 1816,1183 1796,1203 1775,1223"/>
<polygon class="pen1 brush0" points="290,262 297,261 304,259 310,257 315,252 319,248 322,242 323,235 324,228 323,221 322,214 319,208 315,203 310,199 304,196 297,195 290,194 283,195 277,196 271,199 266,203 262,208 259,214 257,221 256,228 257,235 259,242 262,248 266,252 271,257 277,259 283,261 290,262"/>
</g>
</svg>
