<?xml version="1.0" encoding="UTF-8" standalone="no"?>
<!DOCTYPE svg PUBLIC "-//W3C//DTD SVG 1.0//EN" "http://www.w3.org/TR/2001/REC-SVG-20010904/DTD/svg10.dtd">
<svg xmlns="http://www.w3.org/2000/svg" xmlns:xlink="http://www.w3.org/1999/xlink" fill-rule="evenodd" height="1.293in" preserveAspectRatio="none" stroke-linecap="round" viewBox="0 0 2061 1293" width="2.061in">
<style type="text/css">
.brush0 { fill: rgb(255,255,255); }
.pen0 { stroke: rgb(0,0,0); stroke-width: 1; stroke-linejoin: round; }
.brush1 { fill: none; }
.pen1 { stroke: none; }
.brush2 { fill: rgb(0,0,0); }
</style>
<g>
<polygon class="pen1 brush2" points="886,952 879,944 873,932 869,918 867,903 868,887 872,873 879,860 890,851 894,849 901,845 910,840 920,835 932,828 946,821 962,812 979,803 998,792 1018,781 1039,769 1061,756 1084,742 1108,727 1132,711 1158,694 1183,677 1210,659 1236,640 1263,620 1290,599 1317,578 1343,556 1370,533 1396,510 1422,486 1447,461 1472,435 1495,409 1518,382 1540,355 1561,327 1566,324 1578,319 1596,316 1617,321 1640,340 1663,376 1682,435 1697,523 1709,617 1722,715 1735,813 1747,909 1757,996 1764,1073 1765,1134 1761,1175 1777,1181 1793,1188 1810,1195 1827,1202 1844,1209 1861,1216 1879,1223 1896,1231 1913,1238 1931,1245 1948,1252 1965,1259 1981,1266 1997,1272 2013,1278 2028,1284 2027,1286 2026,1289 2025,1291 2024,1293 2009,1287 1993,1281 1977,1275 1960,1268 1944,1261 1927,1254 1909,1247 1892,1240 1875,1233 1858,1226 1840,1219 1823,1212 1807,1205 1790,1198 1774,1191 1758,1185 1756,1191 1754,1196 1751,1199 1747,1201 1731,1178 1716,1111 1702,1014 1689,899 1677,780 1666,669 1656,580 1648,527 1641,497 1635,472 1630,451 1624,436 1615,426 1601,421 1583,423 1558,431 1549,435 1537,443 1524,453 1508,466 1491,481 1472,498 1451,517 1430,538 1406,560 1382,583 1357,608 1331,633 1305,658 1278,684 1251,710 1223,736 1196,762 1168,787 1141,811 1115,834 1089,856 1064,876 1039,895 1016,912 994,927 973,939 954,949 937,956 921,960 907,961 895,958 886,952 886,952"/>
<polygon class="pen1 brush2" points="1585,250 1559,256 1531,264 1500,275 1468,289 1433,304 1396,322 1358,342 1318,364 1277,386 1235,411 1192,436 1149,462 1105,489 1061,516 1018,543 974,571 930,598 888,625 846,651 805,677 765,702 726,725 690,747 655,768 622,787 591,803 562,818 536,830 513,840 493,847 476,850 463,851 454,851 443,853 431,857 418,863 404,870 389,878 374,887 358,897 343,908 327,918 313,929 298,940 285,950 273,959 262,968 253,975 235,967 217,963 200,964 184,969 170,978 157,988 146,1002 136,1016 136,985 144,952 160,919 183,884 213,848 249,812 290,775 337,737 389,699 445,661 504,622 567,584 633,545 701,507 771,470 842,432 914,396 986,360 1059,325 1130,292 1201,259 1270,228 1338,198 1402,170 1464,143 1522,118 1576,96 1626,75 1671,57 1710,40 1744,27 1771,16 1768,0 1739,11 1704,25 1663,42 1616,61 1563,83 1506,107 1446,133 1381,161 1313,191 1243,223 1171,256 1098,290 1023,326 948,362 873,400 799,438 726,477 655,517 585,556 519,596 455,636 396,676 341,716 290,755 245,794 206,832 173,869 147,905 128,940 117,973 115,1005 122,1036 114,1045 108,1062 105,1083 109,1108 103,1115 97,1124 92,1134 89,1145 87,1157 88,1171 93,1185 102,1201 112,1212 122,1216 130,1215 138,1210 145,1202 151,1193 156,1183 159,1175 175,1179 191,1179 207,1175 224,1168 239,1158 253,1144 266,1128 277,1110 282,1096 287,1083 290,1069 291,1056 300,1054 310,1052 321,1050 332,1048 344,1045 356,1043 369,1040 381,1037 393,1034 406,1031 417,1028 428,1025 438,1022 448,1019 456,1016 463,1013 468,1010 473,1006 477,1002 481,996 511,1008 542,1016 574,1020 607,1022 639,1022 672,1019 703,1015 733,1009 761,1003 786,997 809,990 829,983 846,978 858,973 865,970 868,969 855,947 847,926 844,908 843,892 845,879 848,869 850,863 851,861 829,871 807,881 786,889 765,897 745,904 725,910 707,915 690,920 674,924 660,927 647,930 636,932 628,933 621,934 617,935 616,935 672,916 727,895 780,873 831,849 881,825 930,799 977,772 1023,745 1067,717 1109,689 1149,661 1188,632 1226,603 1261,575 1295,547 1327,519 1358,492 1386,465 1413,440 1438,415 1461,392 1482,369 1501,349 1519,329 1534,312 1547,296 1559,283 1568,271 1576,262 1581,256 1584,251 1585,250 1585,250"/>
<polygon class="pen1 brush2" points="701,1043 704,1049 708,1054 712,1059 718,1064 724,1068 732,1072 742,1076 753,1078 766,1080 782,1081 800,1080 820,1079 844,1076 870,1072 900,1067 933,1060 966,1054 994,1051 1018,1050 1038,1051 1055,1054 1069,1059 1080,1065 1089,1073 1096,1083 1102,1093 1107,1105 1111,1117 1115,1130 1119,1143 1124,1157 1129,1171 1138,1188 1149,1199 1160,1205 1172,1207 1183,1205 1193,1201 1203,1194 1210,1186 1225,1192 1241,1199 1257,1205 1273,1212 1289,1219 1306,1226 1322,1233 1339,1240 1355,1247 1372,1253 1388,1260 1404,1267 1420,1273 1435,1279 1450,1285 1464,1290 1466,1289 1467,1286 1469,1284 1470,1283 1455,1277 1440,1271 1425,1265 1409,1258 1393,1252 1376,1245 1360,1238 1343,1231 1326,1224 1310,1218 1293,1211 1277,1204 1261,1198 1245,1191 1229,1185 1214,1179 1217,1172 1218,1167 1218,1163 1216,1158 1196,1117 1177,1084 1158,1056 1139,1035 1121,1018 1103,1006 1085,999 1067,994 1049,993 1031,994 1012,998 994,1002 975,1007 956,1013 936,1018 916,1022 878,1027 847,1030 822,1030 803,1029 790,1027 781,1025 776,1024 774,1023 763,1029 751,1033 739,1037 727,1039 717,1041 708,1042 703,1043 701,1043 701,1043"/>
<polygon class="pen1 brush2" points="453,1040 511,1026 514,1030 522,1041 532,1058 541,1078 547,1100 545,1123 534,1146 511,1165 498,1172 485,1179 472,1187 458,1194 444,1201 431,1208 417,1214 404,1220 391,1225 379,1230 368,1234 358,1237 348,1239 340,1240 334,1240 329,1239 320,1244 311,1250 301,1256 291,1262 280,1268 267,1275 253,1282 237,1290 236,1288 235,1285 234,1284 234,1283 250,1275 263,1268 276,1261 287,1255 297,1249 307,1243 316,1237 325,1232 324,1228 326,1224 329,1220 332,1216 341,1207 357,1197 377,1186 399,1175 422,1164 443,1153 459,1143 469,1135 475,1126 481,1116 485,1105 487,1092 486,1079 481,1066 470,1053 453,1040"/>
<polygon class="pen1 brush2" points="1461,753 1472,762 1481,771 1491,781 1499,791 1508,801 1516,811 1523,822 1531,833 1521,841 1511,849 1500,857 1490,865 1480,873 1469,881 1459,889 1448,897 1438,906 1427,914 1417,922 1407,930 1397,938 1387,946 1377,954 1368,962 1361,954 1354,946 1347,937 1340,929 1333,921 1326,913 1319,905 1311,899 1329,881 1348,863 1368,844 1387,826 1406,807 1425,789 1444,771 1461,753 1461,753"/>
<polygon class="pen1 brush2" points="1582,915 1565,929 1547,943 1529,958 1511,972 1492,987 1474,1001 1457,1015 1440,1029 1457,1040 1474,1049 1492,1056 1510,1059 1528,1060 1546,1057 1564,1051 1582,1040 1631,1055 1679,1066 1724,1074 1768,1080 1809,1082 1848,1083 1884,1082 1917,1080 1947,1077 1974,1073 1997,1068 2017,1064 2033,1060 2044,1057 2052,1055 2055,1054 2056,1052 2058,1049 2059,1045 2059,1044 2024,1053 1990,1060 1956,1066 1923,1070 1890,1072 1859,1074 1828,1073 1797,1072 1768,1070 1740,1067 1712,1063 1686,1058 1661,1052 1637,1046 1614,1040 1592,1033 1601,1023 1607,1012 1609,999 1608,984 1605,968 1599,952 1591,934 1582,915 1582,915"/>
<polygon class="pen1 brush2" points="1535,838 1525,846 1515,854 1505,863 1495,871 1484,879 1474,887 1464,896 1453,904 1443,912 1432,921 1422,929 1412,937 1402,945 1392,953 1382,960 1372,968 1381,977 1389,985 1397,992 1404,999 1411,1005 1418,1011 1426,1017 1433,1023 1451,1009 1469,995 1487,980 1506,965 1524,951 1543,936 1560,922 1578,908 1573,899 1568,890 1563,882 1558,873 1553,864 1547,856 1541,847 1535,838 1535,838"/>
<polygon class="pen1 brush2" points="1392,716 1383,725 1373,735 1364,745 1354,755 1344,765 1333,775 1323,785 1313,795 1302,805 1291,815 1281,825 1271,835 1260,845 1250,855 1240,864 1230,874 1241,876 1252,877 1263,880 1273,882 1282,885 1290,888 1297,891 1304,895 1322,877 1341,858 1361,840 1380,821 1399,802 1418,784 1437,766 1454,749 1446,743 1439,738 1431,733 1424,729 1416,725 1408,722 1400,719 1392,716 1392,716"/>
<polygon class="pen1 brush2" points="1132,862 1134,862 1139,862 1147,863 1158,864 1172,865 1186,867 1203,869 1220,872 1230,862 1240,853 1250,843 1260,833 1271,823 1281,813 1292,803 1302,793 1313,783 1323,773 1333,763 1344,753 1354,744 1363,734 1373,725 1382,716 1365,712 1350,708 1336,706 1324,705 1314,705 1307,705 1303,705 1301,705 1132,862"/>
</g>
</svg>
