<?xml version="1.0" encoding="UTF-8" standalone="no"?>
<!DOCTYPE svg PUBLIC "-//W3C//DTD SVG 1.0//EN" "http://www.w3.org/TR/2001/REC-SVG-20010904/DTD/svg10.dtd">
<svg xmlns="http://www.w3.org/2000/svg" xmlns:xlink="http://www.w3.org/1999/xlink" fill-rule="evenodd" height="1.762in" preserveAspectRatio="none" stroke-linecap="round" viewBox="0 0 1979 1762" width="1.979in">
<style type="text/css">
.brush0 { fill: rgb(255,255,255); }
.pen0 { stroke: rgb(0,0,0); stroke-width: 1; stroke-linejoin: round; }
.brush1 { fill: none; }
.pen1 { stroke: none; }
.brush2 { fill: rgb(0,0,0); }
</style>
<g>
<polygon class="pen1 brush2" points="128,7 131,9 136,19 145,35 155,55 167,76 179,97 192,115 203,128 205,139 201,141 190,138 174,129 156,115 140,95 127,71 123,41 128,7 128,7"/>
<polygon class="pen1 brush2" points="422,831 424,876 429,923 438,971 452,1018 470,1063 494,1102 524,1136 560,1162 561,1180 562,1201 562,1225 564,1251 567,1280 571,1310 578,1341 588,1372 599,1407 609,1445 618,1486 625,1525 630,1560 634,1589 636,1608 637,1615 611,1629 591,1646 577,1665 567,1684 561,1702 558,1717 557,1726 557,1730 668,1730 669,1707 670,1687 671,1674 672,1669 685,1669 696,1665 705,1659 712,1650 718,1639 721,1628 721,1615 719,1603 715,1586 710,1562 705,1534 698,1503 693,1475 688,1451 684,1434 683,1428 698,1403 711,1364 720,1318 728,1268 733,1221 737,1180 738,1152 739,1142 807,1156 871,1166 931,1171 987,1173 1039,1171 1087,1167 1131,1160 1171,1152 1206,1143 1236,1133 1262,1123 1284,1114 1301,1106 1313,1100 1321,1096 1323,1094 1315,1074 1306,1046 1296,1012 1286,975 1280,937 1277,902 1280,871 1290,847 1289,885 1293,922 1300,960 1310,998 1324,1035 1341,1072 1360,1108 1382,1143 1405,1178 1430,1211 1456,1243 1483,1274 1510,1303 1538,1330 1566,1356 1593,1379 1589,1417 1580,1461 1565,1508 1548,1554 1528,1598 1507,1636 1487,1666 1469,1686 1454,1699 1442,1713 1432,1725 1425,1737 1420,1747 1416,1755 1415,1760 1414,1762 1540,1762 1550,1737 1556,1713 1559,1696 1560,1689 1573,1687 1584,1685 1593,1681 1599,1675 1604,1668 1607,1659 1609,1648 1608,1635 1608,1619 1611,1600 1615,1580 1622,1558 1630,1535 1640,1511 1650,1487 1661,1463 1671,1439 1678,1414 1684,1391 1689,1369 1692,1351 1694,1337 1696,1327 1696,1324 1672,1296 1655,1267 1643,1240 1635,1215 1631,1193 1629,1177 1628,1166 1628,1162 1659,1118 1685,1068 1705,1016 1719,961 1726,905 1724,849 1713,795 1692,743 1725,737 1751,741 1771,753 1785,773 1795,798 1800,827 1803,861 1804,896 1803,933 1802,970 1802,1006 1803,1039 1806,1069 1812,1094 1823,1113 1838,1125 1843,1143 1846,1159 1849,1172 1852,1183 1856,1191 1863,1197 1873,1202 1887,1204 1904,1206 1920,1208 1935,1209 1949,1210 1961,1211 1970,1212 1976,1213 1978,1213 1974,1178 1964,1149 1950,1127 1933,1110 1915,1098 1899,1090 1886,1086 1878,1085 1864,1061 1856,1033 1852,1001 1851,967 1852,932 1854,895 1856,859 1856,823 1854,789 1848,758 1837,730 1821,706 1797,688 1765,676 1724,670 1672,672 1642,658 1616,645 1593,632 1572,620 1553,609 1535,599 1516,591 1495,585 1473,580 1447,578 1416,578 1381,581 1339,587 1290,596 1234,608 1168,624 1101,639 1041,650 988,656 942,659 902,658 867,655 838,649 814,642 794,634 778,625 765,616 756,607 750,600 746,593 744,589 743,588 703,612 723,571 683,537 631,554 649,518 614,480 567,503 593,464 558,433 505,450 533,416 497,382 443,406 478,365 429,338 358,334 349,315 332,291 312,265 288,238 263,213 239,192 217,175 199,166 182,158 161,144 139,126 117,106 96,87 79,71 68,59 64,55 75,114 88,166 104,210 120,248 138,280 157,306 176,327 195,343 213,356 230,365 246,371 259,375 271,377 280,378 285,378 287,378 281,382 277,385 274,388 271,390 266,394 257,399 243,404 223,412 202,424 184,440 170,460 157,484 145,510 130,539 114,568 93,599 71,628 52,654 38,677 29,698 25,718 26,737 34,757 49,778 69,793 92,796 115,789 139,776 159,761 176,746 188,735 192,730 210,730 228,729 245,727 261,723 276,719 290,715 304,710 316,704 327,699 337,694 346,689 353,685 359,681 364,678 366,677 367,676 375,688 384,703 393,720 402,740 410,761 416,784 420,807 422,831"/>
<polygon class="pen1 brush0" points="294,538 305,536 315,530 321,522 323,510 321,500 315,491 305,485 294,483 284,485 275,491 268,500 266,510 268,522 275,530 284,536 294,538"/>
<polygon class="pen1 brush0" points="84,713 91,705 96,697 98,690 97,686 92,684 85,685 77,689 68,696 61,705 57,713 55,720 57,724 62,726 68,724 76,720 84,713"/>
</g>
</svg>
