<?xml version="1.0" encoding="UTF-8" standalone="no"?>
<!DOCTYPE svg PUBLIC "-//W3C//DTD SVG 1.0//EN" "http://www.w3.org/TR/2001/REC-SVG-20010904/DTD/svg10.dtd">
<svg xmlns="http://www.w3.org/2000/svg" xmlns:xlink="http://www.w3.org/1999/xlink" fill-rule="evenodd" height="1.975in" preserveAspectRatio="none" stroke-linecap="round" viewBox="0 0 1450 1975" width="1.45in">
<style type="text/css">
.brush0 { fill: rgb(255,255,255); }
.pen0 { stroke: rgb(0,0,0); stroke-width: 1; stroke-linejoin: round; }
.brush1 { fill: none; }
.pen1 { stroke: none; }
.brush2 { fill: rgb(0,0,0); }
</style>
<g>
<polygon class="pen1 brush2" points="588,1277 600,1280 612,1283 625,1285 638,1288 652,1291 668,1294 685,1296 703,1298 744,1455 742,1460 735,1472 724,1493 711,1519 695,1550 676,1585 657,1623 636,1663 615,1703 595,1743 575,1780 557,1815 541,1846 527,1872 517,1892 510,1904 512,1906 518,1911 528,1920 542,1929 561,1941 585,1952 613,1963 646,1973 644,1973 637,1973 626,1973 612,1973 595,1973 577,1973 558,1972 538,1971 527,1970 516,1968 506,1967 496,1965 487,1963 479,1960 472,1957 466,1954 464,1954 458,1955 449,1956 437,1957 422,1958 405,1959 386,1960 367,1961 346,1962 325,1962 304,1962 284,1962 264,1961 246,1959 230,1957 216,1954 218,1954 224,1953 234,1951 247,1949 262,1947 279,1944 298,1940 317,1937 337,1933 357,1929 377,1924 395,1919 412,1915 426,1910 438,1905 447,1900 456,1891 468,1873 483,1848 500,1816 519,1780 539,1741 560,1699 581,1657 601,1614 621,1573 639,1536 655,1502 668,1473 678,1451 685,1437 687,1432 588,1277 588,1277"/>
<polygon class="pen1 brush2" points="1051,288 1039,275 1027,263 1015,250 1002,236 989,223 976,210 961,197 946,183 930,170 913,158 895,145 875,133 854,121 831,109 806,98 780,88 760,80 738,73 715,66 691,60 666,54 640,48 612,43 583,39 552,34 520,31 486,28 451,25 414,23 376,21 336,20 294,20 293,20 289,18 282,17 274,14 264,12 252,9 238,6 224,4 212,3 200,2 188,1 176,1 164,2 152,3 140,5 128,7 109,13 90,21 73,32 58,46 46,64 35,85 28,110 24,139 19,198 12,282 8,385 10,503 13,538 16,574 21,610 27,646 35,683 44,719 55,756 68,792 82,828 99,863 117,898 138,932 161,965 186,997 214,1028 244,1058 263,1075 283,1091 304,1107 326,1123 349,1138 373,1152 398,1166 424,1179 452,1191 480,1203 510,1214 540,1224 572,1234 605,1242 639,1250 675,1257 712,1264 750,1269 789,1273 830,1277 872,1280 916,1281 961,1282 1007,1281 1055,1280 1104,1277 1155,1273 1207,1268 1261,1262 1316,1255 1373,1247 1432,1237 1433,1235 1433,1230 1432,1222 1429,1212 1420,1201 1405,1189 1383,1178 1351,1168 1349,1168 1341,1167 1330,1167 1314,1165 1294,1164 1271,1161 1244,1159 1214,1155 1181,1151 1146,1146 1108,1140 1068,1133 1026,1126 982,1117 937,1107 891,1097 844,1085 797,1071 749,1057 701,1041 654,1024 606,1005 560,985 514,963 470,940 427,915 386,888 347,860 310,829 276,797 245,762 216,726 219,724 227,717 240,708 258,697 280,687 305,678 334,671 366,669 363,670 356,673 344,679 330,686 314,694 296,705 278,717 261,730 262,731 265,734 269,739 275,746 284,755 294,765 306,776 321,789 337,803 355,818 376,834 399,850 424,868 451,885 480,903 512,922 547,940 583,959 622,977 664,995 708,1013 755,1030 804,1046 856,1062 911,1076 968,1090 1028,1102 1091,1113 1157,1123 1226,1131 1297,1137 1372,1142 1368,1134 1360,1124 1349,1113 1334,1099 1317,1084 1298,1067 1275,1049 1251,1030 1224,1010 1195,988 1164,966 1132,944 1098,921 1063,897 1026,874 989,850 950,826 911,803 872,780 832,757 792,735 752,714 712,693 673,674 634,656 595,639 558,624 522,610 487,599 453,589 421,581 390,575 379,571 364,561 348,547 330,528 311,505 293,479 277,449 262,417 250,382 242,346 239,308 241,270 250,231 265,192 289,153 322,115 323,115 328,114 334,112 344,111 355,109 370,107 386,105 405,103 425,102 448,101 472,100 498,101 526,102 556,104 587,107 619,112 639,115 659,119 679,123 700,128 721,134 743,140 764,147 786,154 808,163 831,171 853,181 876,191 899,203 923,215 946,227 970,241 978,246 989,253 1003,260 1017,268 1030,276 1041,282 1048,286 1051,288"/>
<polygon class="pen1 brush0" points="386,766 532,673 585,730 538,733 541,771 494,760 484,803 443,788 443,828 386,766"/>
<polygon class="pen1 brush0" points="531,839 676,747 730,803 682,805 684,845 636,834 629,875 586,862 586,901 531,839"/>
<polygon class="pen1 brush0" points="666,906 811,814 866,871 818,872 821,912 772,902 764,943 723,929 723,969 666,906"/>
<polygon class="pen1 brush0" points="809,966 940,884 988,933 946,936 949,972 906,962 897,999 859,987 859,1020 809,966"/>
<polygon class="pen1 brush0" points="977,1024 1071,966 1105,1001 1075,1003 1075,1027 1045,1021 1040,1047 1013,1038 1013,1064 977,1024"/>
<polygon class="pen1 brush0" points="190,57 197,58 203,59 209,62 214,66 218,71 221,76 222,82 223,89 222,96 221,102 218,108 214,113 209,117 203,120 197,121 190,122 184,121 178,120 173,117 168,113 164,108 161,102 160,96 159,89 160,82 161,76 164,71 168,66 173,62 178,59 184,58 190,57"/>
</g>
</svg>
