<?xml version="1.0" encoding="UTF-8" standalone="no"?>
<!DOCTYPE svg PUBLIC "-//W3C//DTD SVG 1.0//EN" "http://www.w3.org/TR/2001/REC-SVG-20010904/DTD/svg10.dtd">
<svg xmlns="http://www.w3.org/2000/svg" xmlns:xlink="http://www.w3.org/1999/xlink" fill-rule="evenodd" height="1.564in" preserveAspectRatio="none" stroke-linecap="round" viewBox="0 0 1969 1564" width="1.969in">
<style type="text/css">
.brush0 { fill: rgb(255,255,255); }
.pen0 { stroke: rgb(0,0,0); stroke-width: 1; stroke-linejoin: round; }
.brush1 { fill: none; }
.pen1 { stroke: none; }
.brush2 { fill: rgb(0,0,0); }
</style>
<g>
<polygon class="pen1 brush2" points="122,1243 118,1240 106,1229 88,1212 69,1189 48,1159 29,1123 14,1081 6,1033 5,1009 6,984 9,957 14,930 22,901 33,872 47,841 64,810 77,790 94,771 112,754 133,739 155,725 179,712 204,702 229,692 255,685 281,678 307,674 332,671 357,669 380,670 402,672 422,675 432,678 444,681 457,686 472,691 488,697 506,704 524,711 544,718 565,725 587,733 610,741 633,749 657,757 682,764 707,772 732,779 757,785 783,791 809,796 835,801 860,804 886,807 911,809 936,810 960,809 983,807 1006,804 1028,799 1050,793 1070,785 1089,775 1107,763 1109,761 1115,757 1124,749 1136,739 1150,727 1165,712 1182,694 1198,675 1215,654 1231,630 1245,606 1258,579 1268,552 1275,523 1278,494 1277,463 1276,456 1272,437 1267,408 1262,372 1258,333 1257,292 1259,252 1266,216 1271,199 1276,182 1283,165 1291,147 1300,130 1309,112 1319,96 1330,80 1342,65 1354,51 1367,39 1380,28 1394,19 1407,13 1422,8 1436,6 1454,7 1471,11 1488,18 1503,28 1517,40 1530,55 1543,70 1554,87 1564,105 1573,122 1581,140 1588,158 1594,175 1599,190 1603,204 1605,216 1608,240 1609,269 1608,301 1605,337 1601,375 1597,415 1592,457 1588,499 1587,526 1586,555 1586,586 1586,619 1584,654 1581,690 1576,727 1569,764 1558,802 1542,839 1523,876 1498,912 1467,947 1430,980 1386,1012 1334,1041 1301,1055 1268,1067 1234,1075 1200,1080 1165,1082 1129,1082 1094,1080 1058,1075 1023,1069 987,1060 951,1050 916,1039 881,1026 846,1013 812,998 779,983 746,967 714,951 682,934 652,918 623,902 595,886 568,871 543,857 519,843 496,831 475,820 456,811 439,803 423,797 409,793 398,791 371,790 346,789 322,790 300,790 279,792 260,794 241,798 224,802 208,808 194,815 180,823 167,832 154,843 143,855 132,869 122,885 102,918 83,952 69,987 60,1026 59,1070 67,1120 88,1177 122,1243 122,1243"/>
<polygon class="pen1 brush2" points="679,372 679,372 678,366 677,360 674,355 670,351 666,347 661,344 655,343 649,342 639,344 630,351 624,360 622,372 624,384 630,392 639,398 649,400 660,402 671,406 680,412 687,420 690,427 686,433 675,438 655,440 650,437 645,435 640,434 635,433 624,435 615,441 609,451 607,462 609,473 615,482 624,488 635,490 645,488 653,484 659,477 663,469 668,468 674,468 680,468 687,468 693,468 700,468 707,469 714,470 728,475 748,485 770,500 792,518 809,540 821,564 822,589 812,615 795,638 780,657 766,672 754,685 744,697 736,708 730,720 727,733 728,734 733,735 739,737 748,740 758,744 769,747 782,751 796,754 809,757 823,759 837,761 850,762 862,761 874,759 883,756 891,751 898,744 907,735 917,724 926,711 935,696 943,679 949,661 952,641 952,620 948,599 940,576 926,553 907,530 881,506 848,483 807,459 801,454 798,449 800,443 804,438 810,433 817,429 826,427 834,426 844,424 853,417 860,407 862,396 860,385 853,376 844,370 834,368 828,368 823,370 818,372 814,375 811,379 808,383 805,387 804,392 799,395 794,398 789,399 785,398 783,394 784,386 789,373 798,354 798,354 798,354 799,354 800,354 810,352 819,345 826,336 828,325 826,314 819,304 810,298 800,295 794,296 789,298 783,301 779,304 775,309 772,314 771,319 770,325 771,330 772,335 775,340 777,345 774,356 771,367 766,378 761,385 756,386 750,381 745,367 740,341 745,336 749,330 752,324 753,317 751,306 745,296 735,289 724,287 713,289 704,296 698,306 696,317 697,326 701,334 707,340 716,344 720,354 724,366 726,378 726,387 723,393 714,394 700,387 679,372 679,372"/>
<polygon class="pen1 brush2" points="1065,348 1067,345 1069,341 1070,337 1071,334 1069,323 1063,313 1054,306 1044,304 1038,305 1032,306 1027,309 1023,313 1019,317 1016,323 1015,328 1014,334 1016,342 1020,350 1026,356 1034,361 1040,374 1042,383 1041,387 1038,389 1033,389 1028,386 1022,383 1017,379 1013,371 1006,365 998,361 990,359 984,360 978,361 973,364 969,368 965,372 962,377 961,383 960,389 961,395 962,401 965,406 969,410 973,413 978,416 984,417 990,418 993,418 996,417 1000,416 1003,415 1016,418 1023,421 1024,425 1022,429 1017,433 1011,436 1004,439 999,442 994,438 990,435 985,434 979,433 968,435 959,441 952,451 950,462 952,473 959,482 968,488 979,490 987,489 994,485 1000,480 1004,473 1010,471 1016,471 1022,472 1028,476 1032,482 1035,490 1036,502 1034,517 1028,576 1036,617 1053,643 1076,656 1100,661 1122,660 1139,658 1145,656 1170,643 1189,625 1203,605 1212,584 1218,565 1221,549 1223,538 1223,534 1203,526 1185,524 1168,525 1153,530 1140,536 1130,542 1124,546 1122,548 1122,528 1120,504 1117,479 1114,460 1115,455 1117,450 1122,446 1127,442 1134,439 1140,437 1147,434 1152,433 1156,435 1161,437 1165,438 1170,439 1181,437 1191,430 1197,421 1199,410 1197,399 1191,390 1181,384 1170,382 1162,383 1154,387 1148,392 1143,399 1128,404 1120,404 1118,400 1119,394 1122,387 1126,380 1129,375 1128,372 1137,368 1143,361 1148,353 1149,344 1147,333 1141,323 1132,316 1122,314 1116,315 1110,316 1105,319 1101,323 1097,327 1094,333 1093,338 1092,344 1092,345 1092,346 1092,348 1092,349 1079,385 1070,384 1066,366 1065,348 1065,348"/>
<polygon class="pen1 brush2" points="1035,1406 1040,1406 1044,1405 1049,1404 1053,1402 1066,1408 1074,1414 1077,1420 1076,1425 1072,1430 1066,1435 1060,1439 1053,1442 1049,1440 1046,1439 1042,1439 1038,1439 1028,1441 1019,1447 1012,1456 1010,1467 1012,1478 1019,1488 1028,1495 1038,1497 1043,1496 1048,1495 1053,1493 1057,1490 1061,1486 1064,1482 1066,1477 1068,1472 1087,1451 1100,1442 1108,1443 1112,1450 1113,1463 1111,1477 1109,1491 1107,1503 1098,1507 1091,1513 1087,1521 1085,1531 1087,1542 1094,1551 1103,1557 1114,1559 1124,1557 1133,1551 1140,1542 1142,1531 1141,1526 1140,1521 1138,1517 1136,1514 1143,1485 1150,1470 1157,1468 1162,1475 1166,1488 1168,1505 1168,1522 1166,1536 1167,1542 1168,1547 1171,1551 1175,1556 1179,1559 1184,1562 1190,1563 1196,1564 1207,1562 1216,1556 1222,1547 1224,1536 1223,1529 1221,1522 1217,1516 1212,1511 1205,1487 1202,1472 1202,1463 1205,1460 1210,1461 1215,1464 1220,1469 1224,1473 1223,1473 1223,1475 1223,1476 1223,1477 1224,1483 1225,1488 1228,1493 1232,1497 1236,1501 1242,1504 1247,1505 1253,1506 1264,1504 1273,1497 1279,1488 1281,1477 1279,1465 1273,1456 1264,1449 1253,1447 1243,1446 1235,1442 1228,1438 1223,1432 1220,1426 1221,1420 1224,1414 1232,1410 1240,1409 1258,1406 1281,1399 1308,1388 1334,1372 1357,1348 1373,1315 1381,1273 1381,1250 1381,1228 1379,1207 1376,1188 1372,1171 1366,1155 1359,1141 1351,1129 1341,1118 1329,1110 1316,1104 1301,1100 1283,1099 1264,1099 1243,1102 1219,1108 1202,1115 1189,1125 1181,1138 1178,1152 1179,1167 1183,1182 1191,1195 1203,1207 1216,1219 1226,1232 1233,1247 1238,1262 1238,1278 1235,1294 1226,1311 1213,1327 1180,1359 1153,1379 1130,1389 1113,1391 1098,1388 1084,1381 1072,1371 1060,1362 1055,1357 1049,1352 1042,1349 1035,1348 1024,1350 1015,1357 1009,1367 1007,1379 1009,1390 1015,1398 1024,1404 1035,1406 1035,1406"/>
<polygon class="pen1 brush2" points="1817,773 1828,771 1837,764 1843,755 1845,743 1844,736 1841,729 1837,723 1831,719 1833,705 1837,694 1845,695 1858,712 1857,714 1856,716 1855,718 1855,720 1856,726 1857,732 1860,737 1864,741 1868,745 1873,748 1879,749 1885,750 1896,748 1905,741 1911,732 1913,720 1912,711 1907,703 1901,697 1892,693 1888,688 1884,682 1881,677 1881,672 1883,669 1889,666 1900,666 1916,668 1920,674 1925,678 1932,681 1940,682 1951,680 1961,673 1967,664 1969,653 1967,642 1961,633 1951,626 1940,624 1936,624 1932,625 1929,627 1926,629 1920,628 1913,626 1908,624 1905,621 1905,617 1909,612 1917,606 1932,598 1941,594 1948,587 1953,579 1955,570 1953,559 1947,549 1937,543 1926,541 1920,542 1914,543 1909,546 1905,550 1901,554 1898,559 1897,565 1896,571 1890,581 1882,589 1874,586 1868,568 1872,564 1875,559 1877,553 1878,547 1877,541 1876,536 1873,530 1869,526 1865,522 1860,519 1854,518 1848,517 1837,519 1828,526 1822,536 1820,547 1820,552 1822,557 1824,563 1828,568 1824,577 1818,587 1810,594 1801,595 1794,593 1786,592 1777,592 1768,592 1758,594 1748,596 1739,600 1730,604 1728,600 1722,591 1713,579 1700,566 1684,554 1665,545 1643,542 1618,547 1618,554 1620,572 1625,598 1634,626 1647,655 1668,678 1696,693 1733,696 1746,695 1759,695 1770,696 1779,699 1786,703 1791,709 1794,717 1794,727 1792,730 1790,734 1789,739 1788,743 1790,755 1797,764 1806,771 1817,773"/>
<polygon class="pen1 brush0" points="1381,233 1388,232 1395,230 1401,227 1407,222 1412,217 1415,211 1417,204 1418,196 1417,189 1415,182 1412,176 1407,170 1401,165 1395,162 1388,160 1381,159 1373,160 1366,162 1359,165 1353,170 1349,176 1345,182 1343,189 1342,196 1343,204 1345,211 1349,217 1353,222 1359,227 1366,230 1373,232 1381,233"/>
<polygon class="pen1 brush0" points="1500,237 1507,236 1514,234 1520,231 1526,226 1531,220 1534,214 1536,207 1537,200 1536,192 1534,185 1531,179 1526,173 1520,168 1514,165 1507,163 1500,162 1492,163 1485,165 1479,168 1473,173 1468,179 1465,185 1463,192 1462,200 1463,207 1465,214 1468,220 1473,226 1479,231 1485,234 1492,236 1500,237"/>
</g>
</svg>
