<?xml version="1.0" encoding="UTF-8" standalone="no"?>
<!DOCTYPE svg PUBLIC "-//W3C//DTD SVG 1.0//EN" "http://www.w3.org/TR/2001/REC-SVG-20010904/DTD/svg10.dtd">
<svg xmlns="http://www.w3.org/2000/svg" xmlns:xlink="http://www.w3.org/1999/xlink" fill-rule="evenodd" height="0.78in" preserveAspectRatio="none" stroke-linecap="round" viewBox="0 0 1979 780" width="1.979in">
<style type="text/css">
.brush0 { fill: rgb(255,255,255); }
.pen0 { stroke: rgb(0,0,0); stroke-width: 1; stroke-linejoin: round; }
.brush1 { fill: none; }
.pen1 { stroke: none; }
.brush2 { fill: rgb(0,0,0); }
</style>
<g>
<polygon class="pen1 brush2" points="715,174 720,172 733,168 754,162 782,154 816,147 854,140 895,134 939,130 984,129 1030,133 1074,140 1117,153 1157,173 1193,199 1224,233 1249,276 1251,275 1256,271 1265,265 1276,258 1291,250 1309,241 1329,231 1351,221 1376,212 1403,204 1431,197 1461,191 1493,187 1526,185 1559,187 1594,191 1605,193 1616,195 1627,197 1638,200 1649,204 1660,208 1671,212 1682,217 1694,222 1705,228 1716,234 1728,241 1739,248 1750,256 1762,264 1773,273 1792,290 1811,309 1830,329 1849,352 1867,376 1885,402 1903,431 1921,461 1919,461 1912,463 1901,464 1887,467 1870,469 1852,472 1832,476 1812,479 1791,482 1771,484 1752,487 1735,488 1721,490 1709,490 1701,490 1698,488 1689,456 1680,423 1671,392 1661,363 1648,337 1631,315 1609,298 1581,286 1568,284 1553,285 1537,288 1519,293 1501,299 1481,307 1462,316 1442,326 1422,336 1402,347 1383,358 1364,369 1347,380 1331,390 1316,399 1303,407 1289,396 1275,387 1263,379 1251,370 1239,361 1228,351 1216,337 1205,321 1186,339 1164,357 1139,375 1112,392 1083,407 1052,418 1020,426 987,430 952,427 918,418 883,402 848,377 813,342 780,298 747,242 715,174 715,174"/>
<polygon class="pen1 brush2" points="1367,455 1377,459 1387,463 1398,467 1410,470 1422,474 1435,477 1449,480 1464,482 1479,484 1496,486 1513,488 1531,489 1550,491 1570,491 1592,492 1614,492 1612,477 1610,463 1608,450 1606,435 1604,422 1603,409 1601,397 1600,386 1598,376 1595,367 1590,361 1584,356 1575,354 1563,355 1548,358 1530,365 1507,375 1480,389 1448,406 1411,428 1406,431 1401,434 1396,437 1390,440 1385,444 1379,448 1373,451 1367,455 1367,455"/>
<polygon class="pen1 brush2" points="573,372 593,353 614,334 633,315 652,296 668,277 683,258 695,239 704,222 709,205 709,189 706,174 697,160 682,148 662,137 634,128 600,121 591,120 582,119 572,119 562,119 551,120 540,121 528,123 516,125 503,128 491,133 478,138 466,144 453,152 440,160 427,170 415,181 409,174 402,164 392,153 381,140 369,126 356,111 341,96 326,81 310,66 293,52 276,38 259,27 242,16 225,8 208,3 192,0 189,2 182,9 171,20 157,35 140,53 122,75 103,99 84,127 79,135 73,144 68,153 62,162 57,172 52,182 47,191 43,201 34,221 26,242 20,263 16,284 12,315 11,347 14,378 22,410 34,441 52,472 76,503 106,534 106,527 101,509 93,479 84,440 76,392 73,337 77,277 91,212 99,189 108,167 118,144 130,121 143,97 159,74 176,51 195,27 197,29 202,33 210,40 221,48 233,59 248,71 264,84 280,98 298,113 315,127 332,141 349,154 365,167 379,178 391,188 401,195 383,220 368,253 356,290 348,330 346,371 349,408 359,441 377,466 382,470 389,472 396,473 405,473 415,471 426,468 438,464 451,458 464,452 479,444 493,435 509,424 524,413 540,400 557,387 573,372 573,372"/>
<polygon class="pen1 brush2" points="473,595 484,599 497,599 512,593 527,583 543,569 559,552 574,531 588,507 601,484 613,466 625,454 638,447 654,448 674,455 699,471 732,495 750,507 767,515 783,520 799,521 813,519 826,514 839,508 850,501 860,492 869,483 876,475 882,466 887,459 891,453 893,449 894,448 854,425 848,430 844,435 839,440 835,444 829,449 822,453 813,456 800,459 784,457 765,449 743,436 721,420 699,404 678,390 660,379 645,375 633,377 620,383 607,392 593,406 578,424 562,445 545,470 527,499 515,516 505,530 495,541 487,550 480,557 474,562 469,566 466,570 246,647 249,661 465,587 466,589 468,591 470,593 473,595 473,595"/>
<polygon class="pen1 brush2" points="1236,688 1241,686 1246,683 1249,680 1252,675 1479,780 1486,767 1252,658 1253,652 1252,646 1251,638 1247,629 1243,619 1237,606 1230,590 1221,571 1208,540 1198,511 1190,484 1183,461 1177,441 1170,426 1162,416 1151,412 1144,412 1136,414 1127,418 1117,423 1106,428 1094,434 1082,441 1070,448 1058,455 1046,461 1034,467 1023,472 1012,476 1002,478 994,479 986,478 975,474 968,470 963,467 960,465 958,462 957,458 955,454 951,449 894,448 896,454 904,469 916,488 933,509 954,527 981,537 1013,537 1050,522 1084,503 1108,492 1123,488 1133,492 1138,502 1142,518 1147,539 1155,563 1166,589 1176,614 1186,637 1196,657 1205,673 1215,684 1225,690 1236,688 1236,688"/>
<polygon class="pen1 brush2" points="1242,509 1254,504 1266,499 1278,494 1290,488 1301,482 1313,475 1324,469 1336,462 1346,455 1357,449 1367,442 1377,436 1386,430 1395,424 1403,419 1411,414 1448,392 1480,375 1508,361 1531,352 1550,346 1565,344 1578,344 1587,348 1594,353 1600,361 1604,370 1606,381 1608,393 1610,406 1612,419 1614,432 1626,490 1638,541 1650,584 1663,618 1676,644 1689,661 1702,669 1715,667 1719,667 1727,669 1739,671 1755,675 1773,679 1794,684 1816,690 1839,695 1862,701 1884,707 1906,712 1926,717 1943,722 1957,725 1968,728 1975,729 1979,713 1728,654 1733,640 1734,623 1730,603 1723,580 1714,555 1703,528 1692,499 1682,469 1672,437 1663,407 1654,379 1644,354 1632,333 1618,316 1601,303 1580,294 1565,292 1547,294 1527,299 1505,307 1481,317 1456,329 1430,342 1403,357 1377,372 1350,388 1325,404 1300,419 1278,433 1257,447 1238,458 1222,468 1231,483 1237,496 1241,506 1242,509"/>
<polygon class="pen1 brush0" points="512,236 518,235 524,234 530,231 534,227 538,222 541,216 543,210 544,203 543,196 541,190 538,184 534,179 530,175 524,172 518,170 512,169 505,170 499,172 493,175 488,179 484,184 481,190 479,196 478,203 479,210 481,216 484,222 488,227 493,231 499,234 505,235 512,236"/>
</g>
</svg>
