<?xml version="1.0" encoding="UTF-8" standalone="no"?>
<!DOCTYPE svg PUBLIC "-//W3C//DTD SVG 1.0//EN" "http://www.w3.org/TR/2001/REC-SVG-20010904/DTD/svg10.dtd">
<svg xmlns="http://www.w3.org/2000/svg" xmlns:xlink="http://www.w3.org/1999/xlink" fill-rule="evenodd" height="1.445in" preserveAspectRatio="none" stroke-linecap="round" viewBox="0 0 1979 1445" width="1.979in">
<style type="text/css">
.brush0 { fill: rgb(255,255,255); }
.pen0 { stroke: rgb(0,0,0); stroke-width: 1; stroke-linejoin: round; }
.brush1 { fill: none; }
.pen1 { stroke: none; }
.brush2 { fill: rgb(0,0,0); }
</style>
<g>
<polygon class="pen1 brush2" points="1381,760 1391,768 1405,779 1423,793 1445,810 1468,829 1494,851 1521,876 1549,903 1576,931 1604,962 1630,994 1655,1028 1677,1063 1697,1099 1713,1137 1725,1175 1731,1198 1738,1227 1744,1259 1749,1295 1753,1332 1755,1371 1755,1409 1753,1445 1658,1365 1657,1354 1655,1323 1649,1277 1639,1219 1622,1155 1599,1088 1567,1022 1526,962 1519,952 1507,936 1491,915 1471,889 1448,861 1423,831 1396,801 1367,772 1368,768 1373,764 1378,761 1381,760 1381,760"/>
<polygon class="pen1 brush2" points="1351,777 1334,786 1349,803 1363,821 1377,840 1390,860 1403,881 1415,901 1426,922 1437,943 1447,964 1456,984 1465,1004 1473,1023 1480,1041 1487,1058 1493,1074 1498,1088 1513,1145 1519,1199 1520,1240 1519,1256 1614,1337 1613,1296 1611,1262 1608,1231 1602,1203 1594,1174 1584,1144 1570,1109 1553,1068 1542,1044 1529,1020 1514,995 1499,971 1482,946 1465,922 1448,899 1432,876 1416,856 1401,837 1387,820 1375,805 1365,793 1357,784 1353,779 1351,777 1351,777"/>
<polygon class="pen1 brush2" points="0,449 16,463 58,435 100,412 141,393 182,377 220,365 257,356 292,350 325,346 355,344 383,344 406,344 427,346 443,347 455,349 462,350 465,351 483,358 500,366 516,375 530,384 544,394 556,405 567,415 577,426 587,438 595,449 603,461 610,472 617,483 623,495 629,505 634,516 645,540 656,564 665,585 675,606 683,626 692,646 702,666 711,685 722,705 733,726 746,747 760,770 776,794 795,820 815,847 838,877 867,907 904,935 946,961 994,985 1044,1007 1097,1026 1152,1044 1205,1060 1257,1073 1307,1085 1352,1095 1392,1103 1425,1109 1450,1114 1466,1116 1472,1117 1463,1067 1444,1013 1420,960 1392,910 1365,866 1342,831 1326,807 1320,799 1309,805 1297,811 1284,817 1272,823 1262,829 1253,833 1247,836 1245,837 1238,828 1228,812 1215,790 1201,766 1187,741 1174,718 1162,698 1154,684 1158,683 1165,682 1172,682 1174,685 1183,701 1194,721 1206,741 1219,762 1230,780 1239,796 1246,806 1248,810 1258,805 1270,798 1283,789 1297,781 1310,772 1320,766 1327,761 1330,759 1315,746 1298,729 1280,710 1263,691 1247,673 1235,659 1226,649 1223,645 1238,637 1250,653 1267,671 1285,689 1305,707 1323,724 1339,737 1349,746 1353,749 1365,743 1378,735 1391,727 1404,718 1414,710 1423,704 1429,700 1431,698 1409,687 1385,674 1359,658 1334,643 1312,628 1294,616 1281,608 1277,605 1280,603 1285,600 1291,597 1293,597 1313,613 1337,629 1363,645 1389,659 1412,671 1431,680 1444,686 1449,688 1462,680 1477,671 1492,660 1507,650 1520,640 1530,632 1537,626 1540,624 1526,620 1512,616 1497,611 1481,606 1466,600 1451,594 1436,588 1422,582 1409,576 1396,571 1385,566 1376,562 1368,558 1362,555 1358,554 1357,553 1359,552 1363,548 1368,545 1370,544 1381,550 1394,556 1407,562 1422,568 1437,574 1452,579 1467,585 1482,589 1496,594 1509,598 1521,601 1531,604 1540,607 1546,609 1551,610 1552,610 1568,599 1583,588 1598,575 1611,564 1623,553 1632,545 1638,539 1640,537 1621,536 1602,534 1583,532 1564,529 1545,526 1527,523 1510,519 1494,515 1478,512 1465,508 1452,505 1442,502 1434,500 1427,498 1423,496 1422,496 1432,485 1445,489 1460,493 1476,497 1494,500 1512,504 1531,507 1550,510 1568,512 1586,515 1602,517 1618,519 1631,520 1642,521 1650,522 1655,523 1657,523 1671,505 1686,487 1700,470 1713,455 1724,442 1732,431 1738,424 1740,422 1716,424 1693,425 1670,426 1648,426 1628,425 1608,425 1590,423 1573,422 1557,420 1543,419 1531,417 1521,415 1513,414 1507,413 1503,412 1502,412 1505,401 1527,404 1549,406 1571,407 1593,408 1615,409 1635,409 1655,408 1674,408 1691,407 1707,406 1721,405 1733,404 1743,403 1750,403 1754,402 1756,402 1769,385 1784,365 1799,344 1814,324 1827,305 1837,291 1844,281 1847,277 1829,284 1809,290 1787,296 1763,302 1738,307 1713,312 1687,317 1662,321 1639,325 1616,328 1596,331 1578,334 1564,335 1552,337 1545,338 1543,338 1556,320 1585,317 1613,313 1641,309 1668,303 1694,298 1719,292 1743,286 1765,280 1786,274 1804,268 1820,263 1834,258 1845,254 1853,252 1858,250 1860,249 1867,230 1876,208 1885,184 1894,160 1902,139 1909,121 1913,108 1915,104 1885,124 1855,142 1825,158 1795,174 1767,188 1739,200 1712,211 1688,221 1665,229 1644,236 1626,242 1610,246 1597,249 1588,250 1583,250 1581,249 1583,239 1632,224 1678,207 1720,189 1759,170 1795,150 1827,130 1857,111 1883,91 1905,73 1925,56 1942,40 1955,27 1966,16 1973,7 1978,2 1979,0 1916,20 1854,41 1794,63 1736,86 1680,109 1625,133 1572,157 1521,182 1472,207 1424,232 1378,257 1335,282 1293,307 1253,331 1215,355 1179,379 1145,402 1113,424 1084,446 1056,466 1030,486 1007,505 985,522 966,538 949,552 934,565 922,577 912,586 904,594 898,600 895,603 894,605 880,590 896,571 918,549 943,526 969,503 992,482 1011,465 1024,453 1027,449 999,426 975,403 953,380 934,358 918,337 903,316 891,297 880,278 870,260 861,243 853,227 846,212 839,199 832,186 825,176 817,166 804,153 792,142 779,131 766,122 753,115 741,108 728,102 716,98 703,94 691,92 679,90 667,89 655,89 643,90 632,92 620,94 601,99 582,106 565,114 548,122 531,132 516,142 501,153 488,164 475,175 463,186 453,196 444,205 436,214 430,221 425,227 421,232 412,243 402,254 392,264 380,273 368,281 355,287 342,291 327,293 289,297 254,303 222,311 192,320 164,331 139,342 117,354 96,366 78,379 61,392 47,404 34,415 23,426 14,435 6,443 0,449"/>
<polygon class="pen1 brush0" points="590,273 598,272 605,270 612,266 618,262 623,256 627,249 629,241 630,233 629,225 627,218 623,212 618,206 612,201 605,198 598,196 590,195 582,196 575,198 569,201 563,206 558,212 555,218 553,225 552,233 553,241 555,249 558,256 563,262 569,266 575,270 582,272 590,273"/>
</g>
</svg>
