<?xml version="1.0" encoding="UTF-8" standalone="no"?>
<!DOCTYPE svg PUBLIC "-//W3C//DTD SVG 1.0//EN" "http://www.w3.org/TR/2001/REC-SVG-20010904/DTD/svg10.dtd">
<svg xmlns="http://www.w3.org/2000/svg" xmlns:xlink="http://www.w3.org/1999/xlink" fill-rule="evenodd" height="1.98in" preserveAspectRatio="none" stroke-linecap="round" viewBox="0 0 1301 1980" width="1.301in">
<style type="text/css">
.brush0 { fill: rgb(255,255,255); }
.pen0 { stroke: rgb(0,0,0); stroke-width: 1; stroke-linejoin: round; }
.brush1 { fill: none; }
.pen1 { stroke: none; }
.brush2 { fill: rgb(0,0,0); }
</style>
<g>
<polygon class="pen1 brush2" points="238,254 209,246 183,226 161,198 147,164 143,127 150,89 172,54 211,25 229,17 246,11 264,8 281,7 299,8 315,11 332,16 348,23 373,39 395,59 413,83 428,111 438,143 444,177 443,215 437,254 437,269 438,283 439,297 442,311 447,325 455,339 466,354 480,369 534,430 585,489 634,544 679,597 722,648 760,696 796,741 827,784 855,825 878,864 897,900 912,934 922,966 928,996 928,1024 923,1050 922,1068 926,1092 934,1120 947,1152 963,1188 982,1225 1004,1264 1026,1303 1049,1342 1073,1380 1095,1415 1117,1448 1136,1477 1153,1501 1167,1519 1177,1531 1165,1530 1154,1529 1142,1527 1130,1525 1119,1523 1107,1521 1096,1518 1085,1515 1073,1513 1062,1509 1051,1506 1040,1503 1029,1499 1019,1495 1008,1492 998,1488 778,1095 801,1106 823,1110 842,1110 858,1104 870,1093 875,1076 873,1056 862,1030 865,1059 861,1080 850,1092 834,1097 815,1096 795,1090 774,1080 754,1067 750,1089 739,1101 722,1106 700,1104 677,1097 655,1086 635,1074 619,1061 607,1080 590,1089 570,1089 549,1083 527,1069 505,1051 485,1029 468,1003 473,1025 487,1047 508,1069 533,1087 559,1100 584,1106 607,1103 623,1089 806,1395 788,1387 769,1376 748,1362 726,1345 703,1326 679,1305 654,1282 629,1256 604,1229 579,1201 553,1171 528,1140 503,1109 479,1076 455,1043 432,1010 410,976 390,943 370,909 353,877 337,844 323,813 310,782 301,753 293,725 288,698 286,673 287,651 291,630 298,611 308,595 322,582 320,583 313,586 304,592 293,602 282,615 272,634 265,658 262,687 264,724 273,768 289,819 315,879 352,948 400,1027 462,1116 538,1216 534,1212 523,1207 506,1200 483,1190 455,1178 424,1162 389,1142 352,1119 314,1091 275,1057 236,1019 198,974 162,923 128,866 98,801 72,729 68,714 65,696 62,676 61,654 60,630 62,605 65,579 70,552 77,524 87,497 99,470 115,443 134,417 157,392 183,369 214,348 227,336 235,322 240,306 241,291 241,277 240,265 239,257 238,254 238,254"/>
<polygon class="pen1 brush2" points="982,1483 768,1092 761,1109 748,1119 730,1122 708,1120 686,1115 665,1106 647,1096 633,1086 823,1402 834,1410 847,1419 863,1429 882,1439 903,1450 926,1461 953,1472 982,1483 982,1483"/>
<polygon class="pen1 brush2" points="801,1409 805,1424 817,1466 835,1528 857,1603 881,1685 905,1766 928,1842 947,1904 957,1927 970,1945 984,1958 1001,1966 1020,1970 1039,1971 1060,1970 1081,1965 934,1555 934,1554 947,1562 1089,1963 1102,1959 1114,1955 1127,1950 1139,1945 1152,1940 1163,1935 1175,1931 1186,1926 1044,1586 1056,1594 1194,1921 1200,1919 1206,1917 1212,1914 1217,1911 1222,1908 1228,1905 1234,1902 1240,1899 1250,1885 1258,1872 1263,1859 1265,1847 1266,1834 1263,1820 1259,1805 1252,1789 1243,1770 1231,1749 1217,1725 1201,1697 1183,1666 1163,1630 1140,1589 1116,1544 1088,1536 1063,1528 1039,1521 1016,1514 995,1507 975,1499 956,1492 938,1484 921,1477 904,1469 887,1460 870,1451 854,1442 837,1431 819,1421 801,1409 801,1409"/>
<polygon class="pen1 brush2" points="517,1473 438,1433 452,1407 467,1384 484,1361 501,1340 519,1319 538,1299 557,1278 576,1257 541,1245 511,1233 487,1222 468,1213 454,1206 445,1201 441,1200 441,1203 448,1216 456,1229 465,1242 474,1254 482,1265 488,1273 492,1279 494,1281 400,1423 227,1433 311,1447 211,1476 332,1463 238,1510 404,1460 517,1473 517,1473"/>
<polygon class="pen1 brush2" points="126,112 95,126 69,144 47,165 30,186 17,205 7,222 2,233 0,237 12,229 31,221 54,213 78,205 101,199 121,194 135,190 140,189 128,160 126,135 128,118 126,112"/>
<polygon class="pen1 brush0" points="217,139 226,138 233,133 238,125 240,115 238,106 233,99 226,94 217,92 208,94 201,99 196,106 194,115 196,124 201,130 209,135 217,139"/>
</g>
</svg>
