<?xml version="1.0" encoding="UTF-8" standalone="no"?>
<!DOCTYPE svg PUBLIC "-//W3C//DTD SVG 1.0//EN" "http://www.w3.org/TR/2001/REC-SVG-20010904/DTD/svg10.dtd">
<svg xmlns="http://www.w3.org/2000/svg" xmlns:xlink="http://www.w3.org/1999/xlink" fill-rule="evenodd" height="1.986in" preserveAspectRatio="none" stroke-linecap="round" viewBox="0 0 1997 1986" width="1.997in">
<style type="text/css">
.brush0 { fill: rgb(255,255,255); }
.pen0 { stroke: rgb(0,0,0); stroke-width: 1; stroke-linejoin: round; }
.brush1 { fill: none; }
.pen1 { stroke: none; }
.brush2 { fill: rgb(0,0,0); }
</style>
<g>
<polygon class="pen1 brush2" points="839,1893 805,1903 771,1913 737,1922 703,1931 669,1939 635,1947 602,1954 569,1960 536,1965 503,1970 471,1974 440,1977 410,1980 380,1981 350,1981 322,1981 302,1980 282,1978 263,1976 245,1973 227,1970 209,1965 193,1961 176,1955 161,1950 146,1943 131,1936 118,1928 105,1919 93,1909 82,1899 71,1888 54,1863 39,1837 27,1811 17,1782 10,1754 4,1724 2,1693 1,1662 3,1624 7,1586 14,1547 22,1508 33,1470 44,1431 57,1393 72,1355 86,1318 102,1282 118,1247 133,1213 149,1181 164,1150 179,1121 193,1094 219,1048 246,1009 274,975 302,947 331,923 359,904 386,889 413,877 439,869 463,863 486,860 506,858 524,858 540,858 553,860 562,861 572,801 583,724 591,633 597,528 598,411 593,283 580,146 558,0 564,22 580,81 603,170 629,278 654,396 674,516 687,629 689,725 694,711 709,672 729,613 752,538 774,453 794,363 808,271 812,183 813,193 817,221 822,263 828,318 833,381 836,451 837,524 835,598 823,616 808,639 791,666 774,695 755,725 738,753 722,779 709,800 720,806 733,786 748,762 764,736 781,709 798,683 814,657 828,634 841,615 841,615 842,614 844,610 848,603 854,594 855,592 855,591 855,591 855,591 855,591 866,572 880,549 896,522 914,492 932,459 952,424 972,387 993,349 1012,310 1032,271 1050,232 1067,194 1082,157 1095,122 1105,90 1112,60 1112,73 1110,109 1105,166 1095,239 1079,325 1055,422 1021,524 976,629 966,650 953,675 939,703 924,733 909,762 895,790 882,816 872,837 882,842 893,820 906,794 921,766 936,737 950,708 964,681 977,657 987,637 999,622 1013,605 1029,586 1047,564 1066,541 1086,517 1107,492 1128,467 1150,441 1171,416 1192,392 1211,369 1230,347 1248,326 1263,308 1277,293 1275,296 1271,305 1264,319 1255,338 1244,360 1232,385 1218,413 1204,443 1189,474 1174,506 1160,537 1146,568 1133,597 1122,624 1113,648 1105,669 1088,682 1071,695 1054,708 1038,720 1022,733 1008,744 994,754 983,763 986,777 998,767 1012,756 1027,744 1044,731 1060,718 1078,705 1095,692 1111,679 1125,669 1144,654 1168,637 1196,617 1227,594 1261,570 1296,544 1333,518 1370,492 1407,466 1443,441 1477,417 1510,396 1539,376 1564,360 1585,348 1581,352 1571,364 1556,383 1535,408 1511,437 1484,470 1454,506 1424,543 1393,581 1362,618 1333,654 1306,687 1282,717 1262,742 1247,761 1237,774 1237,774 1223,790 1209,805 1195,821 1181,836 1168,851 1156,865 1145,877 1136,888 1139,895 1151,882 1164,868 1178,852 1193,835 1209,818 1224,800 1239,783 1254,766 1267,760 1282,752 1300,743 1320,734 1341,724 1363,713 1386,703 1408,692 1431,681 1453,672 1473,662 1492,654 1509,647 1524,641 1535,637 1544,635 1552,634 1548,641 1542,651 1533,663 1523,677 1511,693 1499,710 1485,727 1470,746 1456,765 1441,784 1426,802 1412,820 1398,837 1385,853 1374,867 1364,879 1365,879 1363,881 1362,881 1360,882 1358,884 1338,893 1317,903 1296,914 1275,924 1254,934 1235,943 1218,952 1203,959 1200,972 1211,967 1229,958 1253,947 1279,935 1303,924 1325,914 1339,907 1345,904 1348,903 1353,901 1358,898 1364,895 1371,892 1379,888 1387,884 1396,879 1396,879 1423,866 1452,852 1485,836 1520,819 1556,801 1592,783 1629,765 1665,747 1699,730 1731,714 1760,700 1785,687 1806,677 1822,669 1832,664 1835,662 1827,671 1817,681 1807,691 1795,703 1782,715 1768,728 1754,742 1739,756 1723,771 1706,786 1690,801 1672,817 1655,832 1637,848 1620,864 1602,879 1602,879 1583,896 1564,913 1545,930 1527,946 1509,961 1493,976 1477,990 1462,1003 1448,1015 1436,1025 1425,1034 1416,1042 1408,1049 1403,1053 1399,1056 1398,1057 1374,1076 1350,1096 1327,1115 1305,1132 1287,1147 1273,1159 1263,1166 1260,1169 1267,1182 1272,1178 1283,1169 1299,1156 1319,1139 1342,1120 1366,1100 1391,1080 1416,1060 1438,1057 1463,1054 1492,1049 1523,1043 1555,1037 1588,1030 1622,1023 1655,1016 1687,1009 1716,1003 1744,997 1767,991 1787,987 1802,983 1812,981 1815,980 1797,990 1775,1001 1751,1013 1725,1026 1698,1040 1669,1055 1639,1070 1609,1085 1580,1100 1550,1115 1522,1129 1495,1143 1471,1155 1448,1167 1428,1177 1412,1185 1394,1190 1377,1194 1362,1198 1349,1202 1339,1205 1331,1207 1326,1209 1324,1209 1321,1220 1325,1219 1333,1218 1345,1215 1361,1211 1379,1207 1399,1201 1420,1196 1443,1190 1497,1181 1550,1174 1602,1169 1652,1167 1700,1166 1746,1167 1789,1169 1829,1172 1866,1176 1898,1180 1927,1184 1951,1189 1971,1192 1985,1195 1994,1197 1997,1198 1967,1198 1933,1199 1896,1203 1856,1209 1816,1216 1774,1225 1731,1234 1689,1244 1647,1255 1607,1266 1568,1277 1532,1287 1499,1297 1470,1306 1446,1314 1426,1320 1411,1324 1395,1328 1379,1332 1363,1336 1348,1340 1333,1344 1318,1348 1304,1351 1291,1355 1280,1358 1269,1360 1260,1363 1253,1364 1248,1366 1244,1367 1243,1367 1241,1378 1243,1378 1247,1377 1253,1376 1260,1374 1269,1372 1278,1369 1289,1367 1302,1364 1314,1360 1328,1357 1342,1353 1357,1350 1371,1346 1386,1342 1401,1339 1416,1335 1452,1342 1487,1350 1522,1359 1557,1369 1591,1380 1623,1390 1654,1401 1683,1412 1710,1422 1734,1431 1755,1440 1773,1448 1788,1454 1799,1459 1806,1462 1808,1463 1772,1455 1734,1448 1695,1443 1656,1439 1616,1436 1576,1434 1536,1434 1498,1434 1461,1435 1426,1436 1393,1438 1362,1440 1335,1442 1312,1444 1292,1446 1277,1448 1262,1445 1248,1442 1235,1440 1222,1437 1209,1435 1197,1432 1186,1430 1175,1428 1165,1426 1155,1424 1146,1423 1137,1421 1129,1419 1121,1418 1113,1416 1106,1415 1102,1426 1104,1427 1109,1428 1117,1430 1126,1432 1137,1434 1150,1436 1164,1439 1179,1442 1195,1445 1212,1448 1229,1451 1246,1455 1263,1458 1280,1461 1296,1464 1312,1467 1357,1481 1405,1499 1455,1519 1505,1541 1557,1565 1607,1589 1657,1614 1705,1639 1749,1662 1791,1685 1828,1706 1860,1724 1886,1739 1906,1750 1919,1757 1923,1760 1891,1746 1860,1732 1828,1719 1797,1706 1767,1694 1736,1683 1706,1672 1676,1662 1647,1652 1618,1643 1590,1635 1562,1627 1535,1619 1508,1612 1481,1605 1455,1599 1430,1594 1405,1588 1381,1583 1358,1579 1335,1575 1312,1571 1291,1567 1270,1564 1250,1561 1231,1558 1212,1556 1194,1554 1177,1552 1161,1551 1146,1549 1131,1548 1129,1590 1123,1628 1114,1664 1100,1696 1084,1725 1065,1752 1044,1776 1022,1797 998,1816 974,1833 949,1848 925,1860 901,1871 879,1880 858,1887 839,1893"/>
<polygon class="pen1 brush0" points="466,1300 462,1294 462,1286 464,1276 470,1266 474,1261 478,1258 482,1255 487,1252 491,1251 495,1251 499,1251 503,1253 506,1259 506,1268 503,1277 497,1287 493,1292 489,1295 485,1298 480,1301 476,1302 472,1302 469,1302 466,1300"/>
<polygon class="pen1 brush0" points="392,1013 389,1006 388,997 391,988 396,979 401,974 405,971 410,968 414,965 419,964 423,964 426,964 429,966 433,973 433,981 431,991 425,1000 421,1005 417,1008 412,1011 408,1014 403,1015 399,1015 395,1015 392,1013 392,1013"/>
<polygon class="pen1 brush0" points="288,1138 285,1131 285,1122 287,1112 293,1102 297,1098 302,1094 306,1091 311,1089 315,1088 319,1088 322,1089 325,1091 329,1097 329,1105 327,1115 321,1125 317,1130 313,1133 309,1136 304,1139 300,1140 296,1140 292,1140 288,1138 288,1138"/>
<polygon class="pen1 brush0" points="200,1297 196,1291 196,1282 198,1273 204,1263 208,1258 212,1255 217,1252 222,1249 226,1248 230,1248 234,1248 237,1250 241,1256 241,1264 239,1274 233,1284 229,1289 225,1292 221,1295 216,1298 212,1299 208,1299 204,1299 200,1297 200,1297"/>
<polygon class="pen1 brush0" points="136,1429 133,1423 133,1415 135,1405 141,1395 145,1390 150,1386 154,1383 159,1381 163,1380 167,1380 170,1381 173,1382 177,1388 177,1397 175,1407 169,1416 165,1421 161,1424 157,1427 152,1430 148,1431 144,1431 140,1431 136,1429 136,1429"/>
<polygon class="pen1 brush0" points="58,1560 54,1554 53,1546 55,1537 61,1527 65,1522 69,1518 73,1515 78,1512 82,1511 86,1511 90,1511 94,1513 97,1520 98,1529 95,1538 89,1548 85,1552 81,1556 76,1559 72,1561 68,1562 64,1563 61,1562 58,1560 58,1560"/>
<polygon class="pen1 brush0" points="693,1330 691,1322 692,1314 698,1305 706,1297 711,1294 717,1292 722,1291 727,1290 731,1290 735,1291 738,1293 740,1296 743,1303 741,1311 736,1319 727,1327 722,1330 717,1332 712,1333 707,1334 703,1334 699,1334 696,1332 693,1330 693,1330"/>
<polygon class="pen1 brush0" points="861,1513 859,1505 861,1497 866,1488 875,1480 880,1477 885,1475 890,1474 894,1473 899,1473 903,1474 906,1476 909,1479 910,1485 908,1493 903,1502 895,1510 890,1513 885,1515 880,1517 875,1517 871,1517 867,1517 863,1515 861,1513 861,1513"/>
<polygon class="pen1 brush0" points="980,1637 979,1630 982,1622 987,1614 996,1607 1001,1604 1006,1602 1011,1601 1016,1600 1020,1601 1024,1602 1027,1604 1030,1607 1031,1614 1028,1622 1022,1630 1013,1637 1007,1640 1002,1641 997,1643 992,1643 988,1643 985,1641 982,1640 980,1637 980,1637"/>
<polygon class="pen1 brush0" points="554,1156 550,1150 550,1142 552,1132 558,1122 562,1118 566,1114 570,1111 575,1109 579,1108 583,1108 587,1109 591,1111 594,1117 594,1125 591,1135 585,1145 582,1149 578,1153 574,1156 569,1158 565,1159 561,1159 557,1158 554,1156 554,1156"/>
<polygon class="pen1 brush0" points="247,1517 243,1510 243,1501 245,1492 251,1482 255,1477 259,1474 264,1471 269,1468 273,1467 277,1467 281,1467 284,1469 288,1476 288,1485 286,1494 280,1504 276,1509 272,1512 268,1515 263,1518 259,1519 255,1519 251,1519 247,1517 247,1517"/>
<polygon class="pen1 brush0" points="349,1404 346,1398 346,1389 348,1379 354,1369 358,1365 363,1361 367,1358 372,1356 376,1355 380,1355 383,1356 386,1358 390,1364 390,1372 388,1382 382,1392 378,1396 374,1400 370,1403 365,1405 361,1406 357,1406 353,1405 349,1404 349,1404"/>
<polygon class="pen1 brush0" points="136,1625 133,1619 133,1611 135,1601 141,1591 145,1587 150,1583 154,1580 159,1578 163,1576 167,1576 170,1577 173,1578 177,1584 177,1593 175,1604 169,1614 165,1618 161,1621 157,1624 152,1626 148,1627 144,1627 140,1627 136,1625 136,1625"/>
<polygon class="pen1 brush0" points="594,1432 592,1426 594,1418 599,1409 608,1401 613,1398 618,1396 623,1394 628,1393 632,1393 636,1394 639,1396 642,1398 644,1405 643,1414 637,1423 628,1431 623,1434 618,1436 613,1437 608,1437 604,1437 600,1436 596,1435 594,1432 594,1432"/>
<polygon class="pen1 brush0" points="470,1529 467,1521 469,1513 475,1504 483,1496 488,1493 493,1491 498,1489 503,1489 507,1489 511,1490 514,1491 517,1494 519,1502 518,1510 512,1519 503,1527 498,1530 493,1532 488,1534 483,1534 479,1534 475,1533 472,1532 470,1529 470,1529"/>
<polygon class="pen1 brush0" points="354,1618 352,1611 354,1602 359,1594 368,1587 373,1584 378,1581 383,1579 388,1578 392,1578 396,1579 399,1581 402,1584 403,1591 401,1599 396,1608 388,1615 383,1618 378,1621 373,1622 368,1623 363,1623 359,1622 356,1620 354,1618 354,1618"/>
<polygon class="pen1 brush0" points="210,1707 208,1700 209,1692 215,1684 223,1676 228,1673 233,1671 238,1669 243,1668 247,1668 251,1669 254,1671 257,1673 259,1681 258,1689 252,1698 244,1706 239,1709 233,1711 228,1712 223,1713 219,1713 215,1712 212,1710 210,1707 210,1707"/>
<polygon class="pen1 brush0" points="730,1594 729,1586 731,1578 736,1570 744,1563 749,1560 754,1557 759,1555 764,1554 769,1554 773,1555 776,1557 778,1560 780,1566 779,1574 773,1583 764,1591 759,1594 754,1597 749,1598 745,1599 740,1599 736,1598 733,1596 730,1594 730,1594"/>
<polygon class="pen1 brush0" points="601,1678 599,1670 601,1662 606,1654 615,1646 620,1643 625,1641 630,1639 634,1638 639,1638 643,1639 646,1641 649,1644 650,1651 648,1659 643,1667 635,1675 630,1678 625,1680 620,1682 615,1682 611,1682 607,1682 603,1680 601,1678 601,1678"/>
<polygon class="pen1 brush0" points="454,1748 452,1741 454,1733 460,1724 469,1716 474,1713 479,1711 483,1709 488,1709 493,1709 497,1710 500,1711 503,1714 504,1721 502,1729 497,1738 489,1746 484,1749 479,1751 474,1752 469,1753 464,1753 460,1752 457,1750 454,1748 454,1748"/>
<polygon class="pen1 brush0" points="300,1821 298,1814 300,1805 305,1797 314,1788 319,1785 324,1783 329,1782 333,1781 338,1781 342,1782 345,1784 348,1787 349,1794 347,1802 342,1811 334,1819 329,1822 324,1824 319,1825 314,1826 310,1826 306,1825 302,1824 300,1821 300,1821"/>
<polygon class="pen1 brush0" points="837,1721 835,1713 838,1705 844,1698 854,1691 859,1688 864,1686 869,1685 874,1684 878,1685 882,1686 885,1688 888,1691 889,1698 886,1706 880,1714 871,1721 865,1723 860,1725 855,1726 850,1726 846,1726 842,1725 839,1723 837,1721 837,1721"/>
<polygon class="pen1 brush0" points="687,1785 686,1778 689,1770 694,1762 703,1755 708,1752 714,1750 719,1749 724,1748 729,1749 733,1750 736,1752 739,1755 740,1762 737,1770 731,1778 721,1785 716,1788 711,1790 706,1791 701,1792 697,1791 693,1790 690,1788 687,1785 687,1785"/>
<polygon class="pen1 brush0" points="534,1846 532,1839 534,1831 540,1823 550,1817 555,1814 560,1812 565,1811 570,1811 574,1811 578,1812 581,1814 584,1817 585,1824 582,1832 577,1840 568,1846 563,1849 557,1852 552,1853 547,1853 542,1853 539,1852 536,1849 534,1846 534,1846"/>
<polygon class="pen1 brush0" points="359,1897 358,1890 361,1882 366,1874 375,1866 380,1863 386,1862 391,1860 396,1860 400,1861 404,1862 407,1865 409,1868 411,1875 409,1883 403,1891 393,1898 388,1900 383,1902 378,1903 373,1903 369,1903 365,1902 362,1900 359,1897 359,1897"/>
<polygon class="pen1 brush0" points="1027,1459 1045,1449 987,1421 936,1389 889,1352 847,1313 810,1272 778,1230 750,1187 726,1145 706,1105 689,1067 676,1033 666,1002 658,977 653,958 650,946 649,942 631,950 632,954 635,966 640,985 647,1011 658,1041 671,1075 688,1113 708,1154 732,1196 760,1239 792,1281 829,1323 871,1362 917,1398 969,1431 1027,1459"/>
</g>
</svg>
