<?xml version="1.0" encoding="UTF-8" standalone="no"?>
<!DOCTYPE svg PUBLIC "-//W3C//DTD SVG 1.0//EN" "http://www.w3.org/TR/2001/REC-SVG-20010904/DTD/svg10.dtd">
<svg xmlns="http://www.w3.org/2000/svg" xmlns:xlink="http://www.w3.org/1999/xlink" fill-rule="evenodd" height="2.004in" preserveAspectRatio="none" stroke-linecap="round" viewBox="0 0 1497 2004" width="1.497in">
<style type="text/css">
.brush0 { fill: rgb(255,255,255); }
.pen0 { stroke: rgb(0,0,0); stroke-width: 1; stroke-linejoin: round; }
.brush1 { fill: none; }
.pen1 { stroke: none; }
.brush2 { fill: rgb(0,0,0); }
</style>
<g>
<polygon class="pen1 brush2" points="1432,1291 1433,1293 1434,1300 1435,1310 1437,1324 1438,1342 1438,1362 1437,1385 1434,1410 1429,1438 1421,1467 1410,1497 1395,1529 1377,1561 1354,1594 1327,1627 1294,1659 1293,1663 1289,1675 1283,1693 1275,1716 1265,1742 1253,1770 1239,1797 1223,1823 1220,1833 1219,1851 1217,1875 1215,1902 1212,1928 1207,1951 1199,1969 1187,1978 1024,2000 1023,1999 1021,1998 1017,1996 1013,1992 1009,1988 1005,1984 1003,1978 1002,1972 1003,1966 1007,1959 1014,1952 1024,1944 1039,1936 1058,1928 1082,1919 1112,1911 1113,1909 1117,1902 1121,1893 1126,1882 1130,1869 1133,1857 1134,1846 1131,1836 1124,1824 1114,1806 1102,1783 1089,1754 1078,1721 1070,1685 1066,1646 1068,1605 1065,1599 1058,1583 1048,1558 1036,1527 1025,1492 1016,1454 1010,1416 1010,1379 1008,1382 1005,1392 1001,1408 998,1432 999,1464 1005,1505 1017,1555 1037,1615 1035,1616 1029,1617 1019,1619 1006,1622 991,1626 973,1630 954,1635 933,1639 912,1643 890,1648 868,1652 847,1655 827,1659 808,1661 791,1662 777,1663 776,1666 772,1676 766,1691 757,1710 747,1733 735,1759 721,1787 705,1816 688,1845 670,1875 651,1902 631,1928 611,1951 590,1971 569,1986 547,1995 419,2004 418,2003 415,2002 411,2000 406,1996 402,1992 398,1988 395,1982 394,1976 396,1970 400,1963 409,1956 421,1948 439,1940 461,1932 490,1924 526,1916 529,1903 536,1879 544,1847 554,1811 563,1776 570,1745 576,1724 578,1716 572,1707 566,1696 559,1684 550,1671 541,1657 531,1642 520,1626 507,1611 494,1595 479,1579 464,1563 447,1547 429,1533 410,1519 390,1506 369,1494 368,1494 363,1495 357,1496 348,1497 338,1498 326,1498 313,1498 299,1496 284,1494 269,1491 254,1486 239,1480 225,1471 212,1461 200,1448 189,1433 184,1433 171,1433 152,1432 130,1429 107,1424 84,1416 65,1405 51,1389 87,1318 88,1318 91,1318 95,1318 101,1318 108,1317 117,1316 127,1315 138,1314 150,1312 162,1310 176,1308 191,1305 206,1301 222,1297 238,1292 254,1287 271,1282 290,1278 309,1275 330,1273 350,1271 371,1271 392,1270 414,1271 434,1272 455,1273 475,1274 494,1275 513,1276 530,1277 546,1278 561,1278 568,1277 577,1275 589,1273 604,1269 621,1264 639,1259 659,1253 679,1246 700,1240 722,1233 743,1227 763,1220 783,1214 802,1208 819,1203 834,1199 849,1194 867,1189 888,1183 911,1177 935,1171 962,1165 990,1159 1020,1154 1051,1150 1083,1147 1116,1145 1149,1145 1183,1147 1217,1150 1252,1155 1286,1163 1308,1156 1326,1139 1339,1114 1347,1080 1352,1038 1352,990 1350,936 1344,878 1336,815 1325,749 1312,681 1298,612 1281,542 1264,473 1246,404 1227,338 1220,304 1216,267 1216,229 1221,190 1230,153 1244,118 1263,86 1288,58 1297,51 1306,44 1316,38 1327,32 1338,28 1349,23 1361,20 1374,17 1387,15 1401,13 1416,13 1431,13 1446,14 1463,16 1480,19 1497,23 1494,24 1487,26 1475,30 1461,35 1444,43 1425,53 1405,66 1385,81 1366,100 1348,121 1332,146 1320,174 1311,207 1307,243 1308,283 1315,328 1326,373 1337,416 1350,459 1362,501 1375,543 1387,584 1400,624 1412,664 1423,704 1434,744 1444,784 1453,823 1461,863 1468,903 1473,943 1476,983 1477,1019 1477,1056 1475,1094 1471,1132 1464,1171 1456,1210 1445,1250 1432,1291"/>
<polygon class="pen1 brush2" points="41,1361 40,1360 37,1359 33,1356 28,1353 22,1349 17,1344 11,1338 7,1332 4,1327 3,1321 2,1314 4,1307 7,1304 13,1302 20,1302 28,1304 34,1305 39,1307 45,1308 51,1310 56,1311 60,1313 65,1315 68,1317 41,1361"/>
<polygon class="pen1 brush0" points="237,1386 246,1384 253,1379 258,1372 260,1364 258,1355 253,1347 246,1341 237,1339 227,1341 220,1347 215,1355 213,1364 215,1372 220,1379 227,1384 237,1386"/>
<polygon class="pen1 brush0" points="91,1325 98,1327 107,1330 118,1334 130,1338 143,1342 156,1345 168,1347 178,1348 176,1349 170,1351 162,1354 153,1358 143,1362 133,1366 124,1369 118,1371 118,1371 120,1373 122,1375 126,1378 130,1381 136,1384 143,1388 151,1391 147,1391 137,1390 123,1390 107,1389 91,1388 77,1388 67,1387 64,1386 91,1325"/>
<polygon class="pen1 brush0" points="379,1491 399,1486 417,1482 434,1479 449,1476 463,1474 476,1472 488,1471 499,1470 508,1469 517,1468 526,1468 533,1467 541,1467 548,1466 554,1464 561,1463 544,1474 526,1485 507,1495 488,1504 472,1512 459,1518 450,1522 447,1523 454,1522 467,1521 484,1519 502,1517 520,1515 536,1513 547,1512 551,1511 549,1512 545,1516 538,1521 529,1526 519,1533 508,1539 498,1544 487,1548 488,1548 492,1549 497,1550 504,1550 512,1551 521,1551 531,1550 541,1548 540,1549 536,1552 530,1557 524,1563 516,1569 509,1575 502,1581 496,1585 485,1573 474,1562 463,1550 451,1539 436,1528 420,1516 401,1504 379,1491"/>
<polygon class="pen1 brush0" points="349,1341 355,1337 364,1332 375,1327 387,1321 401,1316 417,1313 433,1312 449,1314 448,1316 446,1323 443,1332 437,1344 429,1356 419,1368 406,1379 391,1388 392,1386 396,1381 400,1373 406,1364 412,1354 418,1345 422,1336 425,1329 423,1329 417,1329 408,1330 398,1331 387,1333 376,1335 366,1338 359,1341 350,1344 348,1344 348,1342 349,1341"/>
</g>
</svg>
