<?xml version="1.0" encoding="UTF-8" standalone="no"?>
<!DOCTYPE svg PUBLIC "-//W3C//DTD SVG 1.0//EN" "http://www.w3.org/TR/2001/REC-SVG-20010904/DTD/svg10.dtd">
<svg xmlns="http://www.w3.org/2000/svg" xmlns:xlink="http://www.w3.org/1999/xlink" fill-rule="evenodd" height="1.054in" preserveAspectRatio="none" stroke-linecap="round" viewBox="0 0 1978 1054" width="1.978in">
<style type="text/css">
.brush0 { fill: rgb(255,255,255); }
.pen0 { stroke: rgb(0,0,0); stroke-width: 1; stroke-linejoin: round; }
.brush1 { fill: none; }
.pen1 { stroke: none; }
.brush2 { fill: rgb(0,0,0); }
</style>
<g>
<polygon class="pen1 brush2" points="675,430 682,410 687,388 691,366 692,343 689,323 683,304 673,289 658,278 642,272 628,268 617,267 606,268 596,272 586,278 574,287 560,297 553,302 546,308 537,315 528,323 518,331 507,340 496,348 483,356 471,365 457,372 443,379 428,385 413,389 397,393 381,395 364,395 345,392 322,384 297,372 269,357 239,339 209,319 178,297 148,275 119,252 91,230 66,208 44,188 26,171 12,156 3,144 0,136 0,132 1,128 2,122 3,116 105,200 105,189 6,106 11,94 17,82 25,70 35,60 47,53 62,49 79,49 98,54 113,60 128,68 143,78 159,90 175,103 191,117 208,131 224,146 241,160 258,174 275,186 292,197 310,207 327,214 344,218 361,220 384,217 404,208 422,195 438,180 451,163 462,146 472,131 479,119 488,107 498,96 510,85 524,75 538,65 555,57 572,49 590,42 609,37 629,34 649,31 670,31 692,32 713,36 735,42 756,50 779,61 801,74 821,88 840,104 858,122 874,141 888,161 900,183 909,207 917,232 921,259 923,287 922,316 917,347 909,379 898,413 889,438 882,464 876,491 872,519 870,546 870,573 873,600 878,625 886,649 898,671 913,690 931,707 953,721 979,731 1009,738 1044,740 1072,738 1098,731 1122,721 1144,707 1164,690 1181,671 1195,649 1208,626 1217,601 1224,575 1228,549 1229,522 1227,496 1221,470 1213,446 1201,423 1192,405 1184,383 1177,357 1172,329 1169,298 1168,266 1170,233 1176,200 1184,168 1197,138 1214,110 1236,85 1263,64 1295,47 1334,36 1378,31 1414,31 1447,35 1477,41 1503,49 1526,59 1547,70 1565,82 1580,94 1593,107 1604,119 1612,131 1619,141 1624,150 1627,157 1629,161 1630,163 1631,166 1635,175 1641,189 1650,207 1662,226 1676,247 1693,268 1713,288 1736,305 1761,319 1790,328 1821,331 1856,327 1893,315 1934,293 1978,261 1977,263 1974,269 1968,278 1961,290 1951,304 1940,320 1926,336 1911,353 1894,371 1874,387 1853,403 1831,417 1806,429 1780,438 1752,444 1723,446 1695,445 1669,441 1645,435 1624,427 1606,418 1589,408 1574,397 1561,386 1549,374 1539,363 1531,352 1523,341 1517,332 1512,325 1507,319 1503,315 1494,309 1486,302 1477,295 1468,289 1459,286 1448,285 1437,289 1425,297 1423,298 1417,300 1409,306 1402,316 1398,333 1397,356 1402,388 1415,430 1432,484 1445,538 1453,593 1456,647 1454,700 1446,751 1433,801 1415,847 1391,891 1361,930 1325,964 1283,994 1234,1017 1179,1035 1117,1045 1049,1048 978,1044 914,1032 857,1015 807,991 763,962 726,928 695,890 670,847 651,802 638,753 631,702 629,650 633,595 642,541 656,485 675,430"/>
<polygon class="pen1 brush0" points="100,142 107,141 113,137 117,132 118,125 117,118 113,112 107,108 100,106 94,108 88,112 84,118 83,125 84,132 88,137 94,141 100,142"/>
<polygon class="pen1 brush0" points="157,145 247,217 247,219 246,223 244,229 241,236 237,243 230,249 220,254 208,257 209,256 213,255 217,252 221,248 224,244 225,238 224,232 218,226 208,218 196,208 184,198 171,187 160,178 151,170 144,165 142,163 157,145"/>
</g>
</svg>
