<?xml version="1.0" encoding="UTF-8" standalone="no"?>
<!DOCTYPE svg PUBLIC "-//W3C//DTD SVG 1.0//EN" "http://www.w3.org/TR/2001/REC-SVG-20010904/DTD/svg10.dtd">
<svg xmlns="http://www.w3.org/2000/svg" xmlns:xlink="http://www.w3.org/1999/xlink" fill-rule="evenodd" height="1.06in" preserveAspectRatio="none" stroke-linecap="round" viewBox="0 0 1987 1060" width="1.987in">
<style type="text/css">
.brush0 { fill: rgb(255,255,255); }
.pen0 { stroke: rgb(0,0,0); stroke-width: 1; stroke-linejoin: round; }
.brush1 { fill: none; }
.pen1 { stroke: none; }
.brush2 { fill: rgb(0,0,0); }
</style>
<g>
<polygon class="pen1 brush2" points="159,547 165,547 182,548 208,549 243,551 284,552 331,554 381,554 435,555 490,554 545,553 598,551 649,547 695,542 737,535 771,527 797,516 808,510 819,501 832,490 845,477 858,462 873,445 888,427 903,408 918,388 934,367 951,345 969,323 987,301 1005,278 1024,255 1044,232 1054,221 1064,210 1075,199 1085,188 1096,177 1107,166 1118,156 1129,145 1140,135 1152,126 1163,116 1175,107 1187,98 1199,90 1212,82 1224,74 1236,67 1249,60 1262,54 1274,48 1287,42 1300,38 1314,33 1327,30 1340,26 1354,24 1368,22 1382,21 1396,20 1410,20 1424,21 1439,22 1440,22 1442,21 1445,19 1450,17 1455,14 1462,10 1469,6 1478,0 1479,1 1482,5 1487,11 1494,19 1503,28 1514,39 1527,51 1542,63 1558,77 1576,91 1595,104 1616,118 1639,131 1663,144 1689,156 1716,166 1676,186 1680,219 1652,239 1659,289 1629,324 1646,361 1622,408 1656,442 1630,493 1667,523 1650,570 1684,591 1666,632 1707,655 1724,693 1705,703 1687,713 1670,723 1655,733 1640,743 1627,754 1615,766 1604,779 1594,792 1585,807 1577,823 1570,841 1565,860 1561,880 1557,903 1555,928 1544,928 1534,927 1525,927 1518,926 1512,925 1508,925 1505,924 1504,924 1483,933 1461,940 1438,945 1415,949 1391,952 1367,953 1342,954 1317,952 1291,950 1266,947 1240,943 1214,938 1188,933 1162,926 1136,919 1111,912 1086,904 1061,895 1036,887 1012,878 989,869 966,860 944,851 923,842 902,833 882,824 864,816 846,808 829,801 814,794 800,788 787,783 765,777 737,771 703,767 666,765 625,763 582,762 538,761 492,761 447,762 403,764 361,765 321,767 286,768 255,770 229,772 210,773 213,743 143,706 141,703 138,694 133,680 130,662 129,639 133,611 142,581 159,547 159,547"/>
<polygon class="pen1 brush2" points="1737,172 1690,192 1693,222 1663,243 1670,294 1642,326 1660,360 1635,408 1670,442 1643,492 1682,520 1665,567 1697,588 1680,628 1717,651 1734,689 1739,686 1742,683 1744,682 1745,681 1748,663 1753,646 1760,631 1767,618 1776,606 1784,595 1793,585 1801,577 1772,561 1790,526 1751,503 1778,462 1744,435 1768,398 1751,368 1781,341 1774,303 1801,287 1798,262 1808,257 1787,243 1772,229 1761,216 1755,203 1752,192 1751,183 1751,177 1751,175 1747,175 1743,173 1740,172 1737,172 1737,172"/>
<polygon class="pen1 brush2" points="1821,262 1824,264 1828,265 1832,267 1835,269 1835,275 1838,291 1846,311 1861,331 1838,351 1853,371 1831,408 1861,438 1838,468 1872,486 1867,495 1861,503 1855,512 1850,521 1844,530 1839,539 1835,548 1831,557 1829,558 1825,561 1819,566 1811,573 1785,560 1804,523 1764,502 1791,462 1757,435 1781,398 1764,371 1792,347 1785,306 1814,290 1811,264 1821,262 1821,262"/>
<polygon class="pen1 brush2" points="1870,337 1849,353 1868,371 1842,408 1873,439 1851,466 1880,482 1883,476 1887,469 1891,463 1895,456 1898,450 1902,443 1906,438 1910,432 1883,421 1902,401 1882,384 1893,372 1884,363 1879,352 1877,344 1876,341 1875,340 1873,339 1872,338 1870,337 1870,337"/>
<polygon class="pen1 brush2" points="1903,375 1904,376 1905,377 1906,377 1906,378 1941,414 1939,415 1934,417 1928,422 1920,429 1899,419 1915,401 1896,384 1903,375 1903,375"/>
<polygon class="pen1 brush2" points="58,942 66,941 73,937 79,932 84,926 97,924 113,926 130,931 148,938 167,946 186,956 206,966 224,975 233,980 242,984 250,989 259,994 268,998 277,1003 287,1007 299,1011 312,1015 326,1019 342,1023 361,1026 381,1029 405,1032 431,1035 460,1037 498,1039 539,1041 583,1042 630,1043 679,1044 730,1044 784,1044 839,1044 895,1044 953,1043 1011,1042 1070,1042 1129,1040 1188,1039 1247,1038 1305,1036 1362,1034 1417,1033 1472,1031 1524,1029 1575,1027 1623,1025 1668,1023 1711,1021 1750,1019 1786,1017 1818,1015 1846,1013 1870,1011 1889,1009 1903,1008 1912,1006 1923,1003 1934,999 1944,994 1952,989 1960,984 1967,978 1973,972 1977,966 1982,955 1982,943 1977,933 1967,924 1945,912 1921,902 1895,893 1868,886 1840,879 1811,874 1782,870 1754,867 1726,865 1700,863 1675,862 1651,861 1630,861 1612,861 1596,861 1584,861 1577,885 1572,916 1567,942 1562,953 1551,953 1540,952 1530,951 1522,949 1514,948 1509,947 1505,946 1504,946 1483,955 1461,962 1438,968 1415,972 1391,975 1366,976 1341,977 1316,976 1290,974 1265,971 1239,967 1213,962 1186,957 1160,950 1135,944 1109,936 1083,928 1058,920 1034,912 1009,903 986,894 963,885 940,876 919,867 898,859 878,850 859,842 842,835 825,828 809,821 795,815 782,810 766,805 749,802 732,798 713,795 694,793 674,791 653,789 631,788 609,787 586,786 563,786 539,786 515,786 491,786 466,787 441,788 416,789 391,790 365,791 340,792 315,793 289,795 264,796 239,797 214,799 190,800 165,801 141,801 118,802 95,803 73,803 51,803 46,798 41,794 35,791 28,790 17,792 8,799 2,809 0,820 2,832 8,841 17,848 28,850 35,849 42,846 48,841 52,834 60,833 70,833 83,833 96,833 111,834 126,835 142,836 157,838 173,840 187,842 201,845 212,849 223,852 230,857 236,862 238,867 238,871 234,875 229,879 221,881 211,884 200,886 187,888 174,889 160,890 146,891 133,891 119,892 107,892 96,892 86,892 78,892 73,889 68,886 63,885 58,884 47,886 38,893 32,903 30,914 32,925 38,934 47,940 58,942 58,942"/>
<polygon class="pen1 brush0" points="1349,189 1359,191 1332,138 1373,105 1362,104 1322,135 1349,189 1349,189"/>
<polygon class="pen1 brush0" points="1341,381 1352,378 1308,341 1334,294 1322,297 1297,343 1341,381 1341,381"/>
<polygon class="pen1 brush0" points="1342,639 1353,635 1305,604 1325,554 1314,559 1294,607 1342,639 1342,639"/>
<polygon class="pen1 brush0" points="1457,831 1466,824 1409,814 1409,760 1399,769 1399,821 1457,831"/>
</g>
</svg>
