<?xml version="1.0" encoding="UTF-8" standalone="no"?>
<!DOCTYPE svg PUBLIC "-//W3C//DTD SVG 1.0//EN" "http://www.w3.org/TR/2001/REC-SVG-20010904/DTD/svg10.dtd">
<svg xmlns="http://www.w3.org/2000/svg" xmlns:xlink="http://www.w3.org/1999/xlink" fill-rule="evenodd" height="1.082in" preserveAspectRatio="none" stroke-linecap="round" viewBox="0 0 2009 1082" width="2.009in">
<style type="text/css">
.brush0 { fill: rgb(255,255,255); }
.pen0 { stroke: rgb(0,0,0); stroke-width: 1; stroke-linejoin: round; }
.brush1 { fill: none; }
.pen1 { stroke: none; }
.brush2 { fill: rgb(0,0,0); }
</style>
<g>
<polygon class="pen1 brush2" points="1635,697 1639,711 1645,727 1653,745 1663,764 1674,783 1688,802 1704,819 1723,835 1744,849 1768,860 1796,867 1826,870 1860,867 1897,859 1938,845 1983,824 1987,820 1994,805 1999,778 1996,741 1991,724 1984,705 1973,685 1959,663 1942,640 1920,615 1895,589 1864,562 1849,579 1832,593 1812,605 1793,613 1775,620 1760,624 1750,626 1746,627 1739,643 1730,656 1717,668 1703,677 1686,684 1670,690 1652,694 1635,697"/>
<polygon class="pen1 brush2" points="1984,377 1983,375 1979,370 1972,362 1963,350 1951,337 1937,321 1919,303 1899,283 1875,263 1849,241 1820,219 1787,196 1752,174 1713,152 1671,130 1626,109 1606,100 1585,92 1564,84 1543,76 1520,68 1497,61 1473,54 1449,48 1424,42 1399,36 1373,31 1346,27 1318,23 1290,19 1261,16 1232,14 1198,12 1165,10 1133,9 1103,8 1074,8 1045,9 1018,10 992,11 967,13 943,15 920,18 898,21 876,25 856,29 837,33 818,38 785,47 754,57 727,68 702,79 680,91 660,102 643,114 628,125 614,136 603,147 593,157 585,166 578,174 572,181 568,186 564,190 556,201 551,214 547,229 547,246 549,263 554,281 562,297 574,312 571,315 564,323 556,335 550,350 548,368 552,386 567,405 594,423 594,428 596,441 599,460 606,482 618,504 635,523 660,536 692,541 693,547 697,561 706,581 720,604 741,625 768,642 802,652 844,650 847,656 854,664 867,675 884,685 905,693 930,697 958,696 990,687 989,689 991,692 995,697 1002,702 1010,708 1021,714 1033,719 1047,724 1062,729 1078,733 1096,735 1115,736 1135,735 1156,731 1177,725 1199,717 1200,717 1204,719 1210,721 1219,723 1229,725 1240,728 1253,730 1267,732 1281,733 1296,733 1311,732 1326,730 1341,726 1356,721 1369,714 1382,704 1387,707 1400,712 1419,715 1443,717 1468,715 1493,709 1516,696 1534,676 1536,677 1541,679 1549,680 1559,681 1572,682 1586,682 1601,680 1617,678 1633,675 1649,670 1665,664 1679,656 1692,646 1704,634 1713,619 1719,602 1724,601 1736,598 1754,592 1776,584 1798,572 1818,558 1835,539 1845,517 1852,517 1863,515 1877,512 1892,505 1907,496 1921,482 1932,463 1939,439 1941,439 1948,438 1957,436 1966,431 1975,424 1982,413 1986,397 1984,377 1984,377"/>
<polygon class="pen1 brush2" points="44,366 42,359 39,340 38,313 41,282 51,250 71,220 103,198 151,186 173,184 196,182 220,181 244,180 269,179 295,179 320,178 345,178 370,179 395,179 419,180 442,180 464,181 485,182 505,182 524,183 514,198 506,214 502,231 500,248 502,265 507,282 515,297 527,312 525,316 520,325 515,340 511,358 512,379 520,400 536,420 564,439 564,444 565,458 568,478 574,500 586,522 605,542 632,556 668,561 668,563 668,568 670,575 673,585 678,596 686,608 698,620 713,633 702,633 690,634 678,634 665,634 652,634 638,634 625,633 611,633 598,632 584,631 572,630 559,628 548,626 537,624 527,622 518,619 516,624 509,638 499,658 487,681 472,706 457,729 441,748 425,761 430,772 442,803 458,846 473,897 483,950 485,999 475,1037 449,1061 439,1064 427,1064 415,1063 401,1059 388,1053 373,1045 359,1036 344,1025 329,1013 314,999 299,984 285,967 271,950 258,931 245,912 233,892 217,859 203,825 192,790 186,755 183,720 185,685 193,652 207,619 226,585 245,558 264,536 282,518 299,504 316,494 332,487 347,482 360,478 372,476 383,473 392,470 399,467 405,461 408,454 409,443 408,432 404,422 397,414 389,408 379,402 368,398 355,396 342,393 328,392 314,391 300,391 286,391 273,391 260,390 249,390 240,389 225,387 207,385 188,382 168,378 148,374 130,368 113,362 99,355 110,354 121,353 134,352 146,351 159,351 171,350 181,349 190,348 179,345 165,343 149,342 133,341 117,341 103,341 91,342 84,342 83,342 79,341 74,342 68,343 61,346 55,350 49,357 44,366"/>
<polygon class="pen1 brush0" points="182,285 193,283 201,277 207,269 209,258 207,247 201,239 193,233 182,231 172,233 163,239 157,247 155,258 157,269 163,277 172,283 182,285"/>
<polygon class="pen1 brush0" points="409,710 417,708 423,704 427,697 429,689 427,680 423,673 417,668 409,666 400,668 393,673 388,680 386,689 388,697 393,704 400,708 409,710 409,710"/>
<polygon class="pen1 brush0" points="314,649 323,647 330,642 335,635 337,627 335,619 330,612 323,608 314,606 306,608 299,612 295,619 293,627 295,635 299,642 306,647 314,649 314,649"/>
<polygon class="pen1 brush0" points="409,608 417,606 423,601 427,594 429,585 427,577 423,570 417,566 409,564 400,566 393,570 388,577 386,585 388,594 393,601 400,606 409,608"/>
<polygon class="pen1 brush0" points="1882,799 1892,797 1900,792 1906,784 1908,775 1906,764 1900,756 1892,750 1882,748 1872,750 1864,756 1859,764 1857,775 1859,784 1864,792 1872,797 1882,799 1882,799"/>
<polygon class="pen1 brush0" points="1773,764 1783,762 1790,756 1795,747 1797,737 1795,728 1790,720 1783,715 1773,713 1763,715 1755,720 1749,728 1747,737 1749,747 1755,756 1763,762 1773,764 1773,764"/>
<polygon class="pen1 brush0" points="1858,697 1868,695 1875,689 1880,680 1882,670 1880,660 1875,652 1868,647 1858,645 1848,647 1839,652 1833,660 1831,670 1833,680 1839,689 1848,695 1858,697"/>
</g>
</svg>
