<?xml version="1.0" encoding="UTF-8" standalone="no"?>
<!DOCTYPE svg PUBLIC "-//W3C//DTD SVG 1.0//EN" "http://www.w3.org/TR/2001/REC-SVG-20010904/DTD/svg10.dtd">
<svg xmlns="http://www.w3.org/2000/svg" xmlns:xlink="http://www.w3.org/1999/xlink" fill-rule="evenodd" height="0.592in" preserveAspectRatio="none" stroke-linecap="round" viewBox="0 0 1974 592" width="1.974in">
<style type="text/css">
.brush0 { fill: rgb(255,255,255); }
.pen0 { stroke: rgb(0,0,0); stroke-width: 1; stroke-linejoin: round; }
.brush1 { fill: none; }
.pen1 { stroke: none; }
.brush2 { fill: rgb(0,0,0); }
</style>
<g>
<polygon class="pen1 brush2" points="152,470 154,469 155,467 156,466 156,464 257,485 260,474 156,453 154,447 152,441 148,434 143,428 138,421 131,414 124,407 115,399 103,389 92,380 80,373 70,368 60,365 52,364 45,365 40,368 37,373 36,380 38,388 42,397 48,407 56,418 66,429 78,440 89,450 101,458 112,465 123,470 132,473 140,474 147,473 152,470"/>
<polygon class="pen1 brush2" points="355,345 351,349 346,355 339,362 329,370 317,378 303,386 287,392 269,398 247,401 223,403 197,401 167,396 135,388 100,375 62,358 20,335 14,329 12,320 12,310 15,299 21,291 29,284 39,281 51,282 59,285 71,288 86,291 104,295 124,300 145,304 168,308 192,313 215,317 239,321 262,325 283,329 303,332 321,335 336,337 348,339 328,319 310,298 292,278 276,259 263,242 252,227 244,217 239,210 240,209 243,207 249,204 257,201 242,197 228,192 216,188 204,183 192,179 182,175 172,170 163,166 161,155 157,144 152,135 145,127 152,125 159,124 168,123 178,123 188,123 200,123 213,123 226,124 240,126 255,127 271,129 287,132 304,134 322,138 340,141 359,145 382,150 404,155 426,160 446,166 466,171 484,177 501,183 517,189 531,195 543,200 554,206 563,211 570,217 575,222 577,227 578,231 576,234 571,237 565,240 556,242 546,243 534,244 520,244 505,244 488,243 471,242 452,240 432,238 411,235 389,231 367,227 344,223 338,222 332,220 326,219 320,217 331,224 342,232 355,242 369,253 383,264 397,277 410,290 423,303 435,316 445,329 453,342 459,355 463,366 464,377 462,387 456,396 448,401 437,401 426,399 413,393 399,384 385,373 370,360 355,345"/>
<polygon class="pen1 brush2" points="85,244 99,243 111,239 123,233 133,224 141,214 148,203 152,191 153,177 152,164 148,152 143,141 136,131 127,123 117,116 106,112 94,109 100,104 106,99 113,94 122,89 134,83 147,77 161,71 178,65 196,60 216,56 237,52 261,49 271,48 282,47 293,47 304,46 316,46 328,46 340,46 353,46 366,46 380,46 394,47 408,47 423,48 438,49 454,51 470,52 470,45 452,44 435,42 419,41 403,40 388,39 373,39 358,38 344,38 331,38 318,38 305,38 293,38 281,39 269,40 258,41 247,42 231,44 216,47 201,51 187,54 174,58 162,62 151,66 140,71 130,75 121,80 112,85 105,90 98,94 91,99 86,104 81,108 76,109 72,109 68,110 64,112 66,107 69,101 73,94 79,86 86,79 95,71 106,63 118,55 130,49 144,43 159,37 176,31 194,26 214,21 236,17 260,14 270,13 280,13 291,12 302,12 314,12 326,11 338,11 351,11 364,12 377,12 391,13 406,13 420,14 436,15 451,17 467,18 469,11 451,9 434,8 418,7 402,6 386,5 371,4 356,3 342,3 329,3 315,3 302,3 290,3 278,4 266,5 255,6 244,7 218,11 194,16 172,23 153,29 136,37 120,44 107,52 95,60 85,69 76,77 69,85 63,92 59,99 55,106 53,111 51,116 43,120 36,126 30,132 25,139 21,147 19,156 17,166 17,177 18,191 22,203 29,214 37,224 47,233 59,239 71,243 85,244"/>
<polygon class="pen1 brush2" points="558,200 568,198 580,195 594,192 610,189 628,185 648,182 669,177 692,173 717,168 742,163 769,158 797,153 827,148 857,143 888,138 920,132 952,127 985,122 1018,117 1052,112 1086,107 1120,103 1154,99 1188,95 1222,91 1256,88 1289,85 1322,82 1354,80 1385,78 1416,77 1446,76 1469,76 1491,76 1512,77 1532,78 1552,80 1571,82 1589,84 1607,87 1623,90 1638,94 1652,98 1665,103 1677,108 1687,114 1696,120 1704,127 1708,131 1711,135 1715,140 1718,145 1720,151 1721,157 1719,164 1716,172 1709,179 1700,188 1687,196 1671,205 1650,214 1624,224 1593,234 1557,244 1552,246 1547,247 1542,249 1537,250 1531,252 1526,253 1520,255 1514,257 1490,237 1466,219 1443,201 1421,185 1402,172 1385,162 1372,156 1362,153 1352,154 1339,158 1323,165 1303,173 1282,183 1260,194 1236,207 1212,220 1187,233 1163,246 1141,259 1120,271 1100,283 1084,292 1071,300 1061,306 1018,308 976,310 935,311 894,311 855,311 816,310 780,308 744,306 711,302 680,298 651,293 624,287 600,279 578,271 559,261 544,250 554,250 563,249 570,247 577,245 582,242 586,238 589,235 591,231 590,228 589,225 586,221 582,217 578,213 572,208 565,204 558,200"/>
<polygon class="pen1 brush2" points="901,352 898,354 890,358 877,363 860,369 841,375 820,378 798,379 776,376 767,373 757,369 745,363 733,356 719,349 706,341 691,334 677,328 663,323 649,320 636,318 623,319 612,323 601,330 592,341 585,356 574,384 563,411 551,438 540,463 530,486 522,507 516,526 513,541 341,581 344,592 513,552 512,557 513,561 515,564 517,565 526,560 538,540 552,510 567,475 581,438 594,405 604,380 611,366 613,363 617,360 621,358 626,356 632,355 639,355 647,356 656,357 667,359 678,362 691,366 705,372 720,378 736,386 754,395 773,406 784,410 798,412 815,413 834,410 855,406 876,400 896,390 916,379 916,378 914,375 910,367 901,352"/>
<polygon class="pen1 brush2" points="1466,275 1451,277 1436,280 1421,282 1405,285 1389,287 1373,290 1356,292 1339,295 1321,297 1303,299 1285,302 1266,304 1246,306 1227,308 1207,310 1186,312 1200,304 1215,297 1229,289 1243,281 1257,274 1271,266 1284,259 1297,252 1309,246 1321,240 1331,235 1340,230 1349,225 1356,222 1361,219 1365,217 1370,216 1378,217 1388,221 1401,228 1415,237 1430,248 1447,260 1466,275"/>
<polygon class="pen1 brush2" points="1061,316 1064,314 1072,309 1085,302 1102,292 1122,281 1145,268 1169,254 1195,240 1221,226 1247,213 1273,200 1296,189 1318,179 1336,172 1351,167 1362,166 1373,169 1389,177 1409,190 1433,206 1458,225 1486,246 1515,269 1544,292 1573,316 1600,339 1626,361 1650,382 1670,399 1687,414 1699,424 1706,430 1709,431 1711,431 1713,432 1714,433 1974,434 1973,443 1716,446 1714,452 1708,456 1699,455 1689,449 1682,443 1670,433 1653,418 1633,401 1610,381 1585,360 1559,337 1531,314 1504,292 1477,270 1451,251 1428,233 1407,219 1389,209 1376,204 1368,204 1360,208 1348,215 1332,223 1313,234 1292,245 1269,258 1245,271 1221,284 1196,297 1173,310 1151,321 1130,331 1113,339 1098,345 1087,349 1081,349 1071,345 1066,341 1064,332 1061,316"/>
<polygon class="pen1 brush0" points="98,163 104,162 109,158 113,153 114,147 113,140 109,135 104,131 98,130 91,131 86,135 82,140 81,147 82,153 86,158 91,162 98,163"/>
</g>
</svg>
