<?xml version="1.0" encoding="UTF-8" standalone="no"?>
<!DOCTYPE svg PUBLIC "-//W3C//DTD SVG 1.0//EN" "http://www.w3.org/TR/2001/REC-SVG-20010904/DTD/svg10.dtd">
<svg xmlns="http://www.w3.org/2000/svg" xmlns:xlink="http://www.w3.org/1999/xlink" fill-rule="evenodd" height="1.851in" preserveAspectRatio="none" stroke-linecap="round" viewBox="0 0 2018 1851" width="2.018in">
<style type="text/css">
.brush0 { fill: rgb(255,255,255); }
.pen0 { stroke: rgb(0,0,0); stroke-width: 1; stroke-linejoin: round; }
.brush1 { fill: none; }
.pen1 { stroke: none; }
.brush2 { fill: rgb(0,0,0); }
</style>
<g>
<polygon class="pen1 brush2" points="575,1541 583,1829 988,1835 976,1827 961,1816 943,1804 923,1789 901,1773 877,1756 852,1737 825,1717 796,1696 766,1675 736,1652 704,1630 672,1608 640,1585 608,1563 575,1541 575,1541"/>
<polygon class="pen1 brush2" points="1508,1834 1482,1511 1092,1837 1508,1834 1508,1834"/>
<polygon class="pen1 brush2" points="1044,1851 1018,1832 992,1814 965,1795 939,1776 912,1757 886,1739 859,1720 833,1701 806,1682 780,1662 753,1643 726,1624 699,1605 673,1586 646,1566 619,1547 592,1527 565,1508 539,1489 512,1469 485,1450 458,1430 431,1410 404,1391 378,1371 351,1351 324,1332 297,1312 271,1292 244,1273 218,1253 191,1233 180,1224 172,1213 164,1201 159,1188 155,1175 152,1161 150,1147 149,1133 148,1106 150,1082 152,1062 153,1049 754,1556 755,1554 757,1553 759,1551 761,1548 159,1045 136,1025 116,1005 98,985 83,966 69,947 58,929 49,911 41,894 29,859 24,827 24,798 29,771 36,748 44,729 53,712 61,700 789,1514 791,1512 794,1510 796,1509 798,1507 65,691 65,691 65,691 65,691 65,691 50,633 43,583 44,540 51,504 64,470 81,443 101,422 122,406 143,394 161,387 175,382 184,380 839,1477 841,1476 844,1474 847,1473 849,1471 187,363 190,333 194,306 200,283 208,262 217,244 227,230 238,217 250,207 271,195 293,187 315,184 336,184 356,186 374,190 389,194 400,198 894,1448 896,1447 899,1447 901,1447 903,1446 411,191 425,162 439,137 454,116 470,98 485,83 501,71 517,61 532,54 545,50 558,47 571,45 584,45 596,45 608,47 619,49 631,52 641,55 651,59 661,63 669,67 677,71 684,75 691,79 696,83 957,1430 960,1430 962,1429 965,1429 967,1429 711,90 731,67 752,47 772,32 792,20 812,11 831,5 849,2 867,1 896,3 923,10 947,20 969,32 988,44 1003,57 1014,67 1021,75 1035,1426 1037,1426 1040,1426 1043,1426 1045,1426 1035,69 1057,51 1079,36 1099,25 1119,17 1138,12 1157,10 1174,9 1191,11 1218,17 1241,27 1263,40 1281,54 1297,68 1309,81 1319,92 1325,100 1109,1433 1110,1434 1112,1434 1114,1435 1116,1436 1338,99 1362,86 1384,77 1405,70 1425,66 1444,64 1462,65 1478,68 1494,72 1516,82 1535,95 1551,111 1565,128 1576,145 1585,161 1591,176 1596,187 1173,1444 1175,1445 1177,1446 1178,1447 1180,1447 1605,196 1630,193 1653,193 1674,194 1693,197 1711,202 1727,208 1741,215 1754,223 1772,238 1786,256 1797,274 1805,293 1811,311 1815,328 1817,343 1819,355 1232,1471 1234,1471 1235,1472 1237,1473 1238,1474 1829,370 1845,378 1859,386 1871,394 1882,403 1891,412 1899,421 1906,430 1911,440 1922,474 1924,508 1920,539 1913,565 1282,1501 1282,1502 1284,1503 1285,1504 1285,1504 1906,600 1922,611 1936,622 1949,633 1960,645 1970,656 1978,668 1985,679 1990,691 1998,717 2000,743 1998,768 1994,791 1986,813 1978,832 1969,849 1961,863 1323,1535 1324,1536 1326,1537 1327,1538 1328,1539 1954,886 1962,897 1969,909 1974,920 1979,932 1982,944 1984,955 1985,967 1985,978 1982,1014 1976,1044 1970,1064 1967,1071 1938,1095 1909,1119 1881,1143 1852,1167 1823,1192 1794,1216 1765,1240 1736,1265 1707,1289 1678,1314 1649,1338 1620,1363 1592,1387 1563,1412 1534,1436 1505,1461 1476,1486 1447,1510 1418,1535 1389,1559 1360,1584 1331,1608 1303,1633 1274,1657 1245,1682 1216,1706 1187,1730 1159,1755 1130,1779 1101,1803 1073,1827 1044,1851"/>
</g>
</svg>
