<?xml version="1.0" encoding="UTF-8" standalone="no"?>
<!DOCTYPE svg PUBLIC "-//W3C//DTD SVG 1.0//EN" "http://www.w3.org/TR/2001/REC-SVG-20010904/DTD/svg10.dtd">
<svg xmlns="http://www.w3.org/2000/svg" xmlns:xlink="http://www.w3.org/1999/xlink" fill-rule="evenodd" height="0.743in" preserveAspectRatio="none" stroke-linecap="round" viewBox="0 0 1979 743" width="1.979in">
<style type="text/css">
.brush0 { fill: rgb(255,255,255); }
.pen0 { stroke: rgb(0,0,0); stroke-width: 1; stroke-linejoin: round; }
.brush1 { fill: none; }
.pen1 { stroke: none; }
.brush2 { fill: rgb(0,0,0); }
</style>
<g>
<polygon class="pen1 brush2" points="371,272 360,263 347,252 332,241 316,228 299,215 283,201 266,187 250,173 236,159 222,145 211,132 202,120 196,109 193,99 193,91 198,84 206,81 216,83 228,90 241,101 255,114 269,130 284,148 298,167 313,186 326,205 338,222 349,238 358,252 365,263 369,270 371,272 371,272"/>
<polygon class="pen1 brush2" points="398,254 399,243 403,214 406,174 409,127 410,80 406,40 398,11 384,0 371,8 364,30 364,62 368,101 375,143 383,185 391,223 398,254 398,254"/>
<polygon class="pen1 brush2" points="445,250 454,241 466,230 482,216 500,201 521,183 544,165 570,147 598,128 628,109 659,92 693,76 727,61 763,49 801,40 839,34 878,31 899,31 920,33 941,36 962,40 983,45 1004,52 1025,60 1047,70 1068,82 1089,95 1110,110 1131,127 1152,146 1172,168 1193,191 1213,216 1242,253 1269,289 1294,322 1318,355 1340,385 1362,414 1382,441 1401,466 1420,490 1438,512 1456,533 1473,551 1490,569 1508,584 1525,598 1542,609 1560,620 1579,628 1598,635 1618,640 1639,644 1662,645 1685,645 1710,644 1737,640 1765,635 1795,628 1827,620 1862,609 1898,597 1937,584 1979,568 1978,569 1975,572 1970,576 1963,582 1954,589 1944,597 1932,606 1918,615 1903,625 1886,635 1868,645 1849,655 1828,664 1806,673 1782,681 1758,688 1741,692 1725,695 1707,697 1689,699 1671,701 1653,701 1634,701 1615,700 1595,698 1575,695 1555,691 1534,686 1514,680 1492,673 1471,665 1449,655 1436,649 1423,642 1410,634 1397,627 1383,618 1370,609 1356,600 1343,590 1329,580 1315,569 1301,558 1288,546 1274,533 1260,520 1246,506 1232,492 1232,703 1114,703 1114,701 1115,695 1117,687 1120,676 1124,665 1130,654 1138,643 1148,634 1146,632 1140,628 1131,620 1119,608 1105,594 1090,576 1074,556 1058,532 1042,505 1027,474 1014,441 1003,405 995,366 990,323 989,278 993,229 991,234 985,248 979,271 974,302 971,341 974,386 983,436 1002,492 999,492 992,493 980,494 964,495 945,496 924,498 901,499 876,501 851,502 826,503 801,504 778,504 756,504 737,503 721,502 708,500 708,691 593,691 593,688 594,682 596,672 599,659 603,646 609,632 615,619 623,608 621,604 616,595 609,580 600,562 591,542 583,522 575,503 570,486 566,486 554,485 537,485 517,484 496,483 476,482 458,480 445,479 445,250 445,250"/>
<polygon class="pen1 brush2" points="77,530 86,523 99,513 116,500 136,485 158,468 183,449 208,429 234,409 260,389 286,369 310,349 333,331 353,315 370,301 384,289 394,280 396,287 400,307 406,335 411,368 416,402 417,434 415,460 407,477 398,483 385,490 368,498 348,506 325,514 300,523 273,531 246,539 219,547 193,555 168,562 145,568 124,573 107,577 94,580 86,581 77,530 77,530"/>
<polygon class="pen1 brush2" points="52,547 49,547 42,547 33,548 23,550 14,555 8,563 6,573 9,587 13,593 17,597 23,599 29,599 36,597 43,595 49,591 56,587 52,547"/>
<polygon class="pen1 brush0" points="344,419 352,417 359,413 363,406 364,398 363,390 359,383 352,379 344,377 336,379 329,383 325,390 323,398 325,406 329,413 336,417 344,419"/>
</g>
</svg>
