<?xml version="1.0" encoding="UTF-8" standalone="no"?>
<!DOCTYPE svg PUBLIC "-//W3C//DTD SVG 1.0//EN" "http://www.w3.org/TR/2001/REC-SVG-20010904/DTD/svg10.dtd">
<svg xmlns="http://www.w3.org/2000/svg" xmlns:xlink="http://www.w3.org/1999/xlink" fill-rule="evenodd" height="1.981in" preserveAspectRatio="none" stroke-linecap="round" viewBox="0 0 1761 1981" width="1.761in">
<style type="text/css">
.brush0 { fill: rgb(255,255,255); }
.pen0 { stroke: rgb(0,0,0); stroke-width: 1; stroke-linejoin: round; }
.brush1 { fill: none; }
.pen1 { stroke: none; }
.brush2 { fill: rgb(0,0,0); }
</style>
<g>
<polygon class="pen1 brush2" points="871,58 884,60 899,63 913,68 928,74 944,81 959,89 975,99 991,109 1001,97 1011,85 1021,74 1031,63 1041,54 1052,45 1062,36 1073,29 1083,22 1094,17 1105,12 1116,7 1126,4 1137,2 1148,0 1159,0 1217,18 1265,62 1302,126 1330,210 1350,308 1363,418 1370,537 1371,661 1368,788 1361,914 1351,1035 1339,1149 1327,1252 1315,1341 1303,1413 1294,1464 1285,1551 1288,1637 1301,1719 1321,1794 1345,1861 1369,1916 1391,1957 1409,1981 1395,1981 1386,1970 1368,1940 1344,1893 1319,1831 1296,1756 1279,1670 1273,1576 1281,1476 1291,1415 1303,1336 1315,1242 1327,1137 1338,1023 1347,903 1354,780 1357,656 1356,536 1350,421 1338,315 1320,220 1295,140 1261,77 1218,34 1166,14 1153,14 1141,15 1129,17 1117,20 1105,25 1094,30 1083,36 1073,42 1062,50 1052,58 1043,66 1034,75 1025,84 1016,93 1009,102 1001,112 1029,133 1054,156 1076,183 1094,211 1107,243 1115,276 1117,312 1111,349 1098,379 1078,404 1051,426 1018,443 982,456 941,464 899,469 856,470 814,467 773,460 734,449 699,434 670,415 646,393 630,367 622,338 621,298 625,260 635,224 649,192 667,163 689,137 714,114 741,95 726,79 710,63 693,49 675,36 655,26 635,19 614,15 592,14 542,39 500,86 468,153 443,236 425,334 413,442 407,558 405,680 407,804 413,928 421,1048 430,1162 441,1266 451,1359 461,1437 470,1497 478,1597 473,1688 457,1771 435,1842 410,1900 387,1944 369,1971 361,1981 348,1981 365,1958 387,1919 410,1867 433,1804 451,1733 463,1654 466,1570 456,1484 448,1432 438,1359 427,1268 417,1163 407,1046 400,923 395,795 393,666 396,539 403,418 417,307 436,207 464,124 499,59 544,17 598,0 618,2 638,6 658,14 677,24 696,37 715,52 733,69 751,89 764,82 778,76 793,71 809,66 824,62 840,60 856,58 871,58"/>
<polygon class="pen1 brush2" points="1274,993 1278,992 1289,990 1306,987 1327,983 1353,980 1381,976 1411,973 1442,970 1472,969 1500,969 1527,972 1549,976 1567,983 1579,993 1584,1007 1582,1024 1576,1042 1569,1065 1562,1091 1553,1120 1544,1152 1534,1185 1523,1220 1512,1255 1501,1291 1489,1326 1477,1360 1465,1392 1453,1422 1441,1448 1430,1471 1418,1490 1439,1516 1461,1542 1482,1568 1503,1593 1525,1619 1546,1645 1568,1671 1590,1696 1611,1722 1633,1748 1654,1774 1676,1799 1697,1825 1718,1851 1740,1876 1761,1902 1758,1903 1756,1903 1753,1903 1750,1904 1728,1879 1707,1853 1685,1828 1664,1803 1642,1778 1621,1752 1600,1727 1578,1702 1557,1677 1536,1651 1514,1626 1493,1601 1472,1575 1450,1550 1429,1524 1408,1499 1404,1504 1399,1509 1395,1512 1391,1515 1387,1517 1383,1518 1379,1518 1376,1517 1367,1509 1362,1495 1361,1476 1363,1452 1368,1426 1375,1396 1385,1365 1395,1332 1406,1299 1419,1266 1431,1234 1442,1204 1453,1176 1463,1152 1471,1131 1477,1115 1480,1103 1479,1092 1475,1083 1468,1075 1459,1069 1447,1064 1433,1060 1418,1058 1401,1057 1383,1056 1363,1057 1344,1059 1324,1062 1303,1065 1283,1069 1264,1074 1266,1069 1271,1054 1274,1028 1274,993 1274,993"/>
<polygon class="pen1 brush2" points="749,1482 771,1479 793,1473 815,1464 838,1451 859,1435 880,1416 901,1393 919,1367 937,1338 952,1304 966,1268 977,1228 986,1184 991,1137 994,1086 993,1031 991,993 987,954 981,916 973,878 964,840 954,802 942,765 929,729 915,693 900,659 884,625 867,593 850,562 833,533 815,506 797,480 784,479 770,477 758,474 745,471 734,468 722,463 711,459 701,453 690,448 681,442 672,436 663,429 654,423 646,416 639,409 632,402 608,442 584,493 562,554 542,625 526,705 517,794 514,892 520,997 524,1052 529,1104 536,1154 544,1201 554,1244 566,1285 579,1322 593,1355 609,1385 626,1412 644,1434 663,1452 683,1466 704,1476 726,1481 749,1482 749,1482"/>
<polygon class="pen1 brush2" points="487,993 487,1028 492,1054 497,1069 499,1074 479,1069 459,1065 438,1062 418,1059 398,1057 379,1056 361,1057 344,1058 328,1060 314,1064 303,1069 293,1075 287,1083 283,1092 282,1103 285,1115 291,1131 299,1152 309,1176 320,1204 332,1234 344,1266 356,1299 367,1332 378,1365 387,1396 394,1426 398,1452 400,1476 399,1495 394,1509 385,1517 381,1518 377,1518 374,1517 370,1515 366,1512 362,1509 358,1504 354,1499 333,1524 311,1550 290,1575 268,1601 247,1626 225,1651 204,1677 183,1702 161,1727 140,1752 118,1778 97,1803 75,1828 54,1853 32,1879 11,1904 9,1903 6,1903 3,1903 0,1902 345,1491 333,1472 322,1449 309,1422 297,1392 285,1360 273,1326 261,1291 250,1256 238,1220 228,1185 218,1152 208,1120 199,1091 192,1065 185,1042 179,1024 177,1007 182,993 195,983 213,976 235,972 262,969 290,969 320,970 351,973 381,976 409,980 434,983 456,987 472,990 483,992 487,993 487,993"/>
<polygon class="pen1 brush2" points="510,604 499,635 495,649 495,653 496,653 447,628 411,616 385,613 369,619 359,632 355,651 355,672 358,696 361,719 365,742 369,763 371,782 372,798 369,810 363,818 352,820 348,819 344,818 341,815 338,811 319,824 304,835 292,842 284,848 278,852 274,855 271,857 268,859 265,861 260,864 254,868 246,873 235,881 220,892 200,905 176,922 175,920 174,918 173,917 172,915 196,898 216,884 231,874 242,866 250,860 256,856 260,853 263,850 266,848 269,846 274,843 280,839 288,833 300,825 315,815 335,801 323,760 317,704 316,644 317,588 320,574 326,564 336,557 349,554 364,553 380,555 397,558 415,563 433,569 450,576 466,583 480,589 493,595 502,600 508,603 510,604 510,604"/>
<polygon class="pen1 brush2" points="561,456 553,469 546,480 540,492 536,501 532,509 530,516 528,520 528,521 509,495 494,470 484,448 478,425 476,402 478,378 484,352 493,322 501,291 503,263 501,236 496,213 490,193 484,179 479,169 477,166 479,163 480,161 480,159 481,156 465,137 449,118 433,100 418,82 402,64 386,46 370,27 354,7 355,6 356,5 357,3 358,1 374,20 390,39 406,57 422,75 438,93 454,111 470,130 486,149 491,139 494,132 496,128 497,126 515,147 530,171 542,196 549,223 553,251 552,280 547,309 537,339 529,367 528,391 531,411 537,427 545,440 553,449 559,454 561,456 561,456"/>
<polygon class="pen1 brush2" points="756,1619 755,1619 751,1617 746,1614 740,1610 732,1605 724,1597 715,1589 706,1578 701,1584 688,1598 670,1620 650,1646 632,1673 620,1698 615,1720 622,1735 636,1740 651,1734 668,1720 686,1701 704,1678 722,1655 740,1635 756,1619 756,1619"/>
<polygon class="pen1 brush2" points="1004,1615 1005,1614 1009,1613 1014,1610 1021,1606 1029,1600 1037,1593 1046,1584 1054,1574 1059,1579 1072,1594 1091,1615 1110,1640 1128,1667 1141,1693 1146,1714 1139,1730 1125,1735 1110,1729 1093,1715 1075,1696 1057,1674 1038,1651 1021,1631 1004,1615 1004,1615"/>
<polygon class="pen1 brush2" points="878,1628 860,1627 843,1625 826,1621 809,1616 792,1609 775,1601 759,1591 743,1580 728,1567 712,1553 698,1538 683,1521 670,1503 656,1484 643,1464 631,1442 645,1456 660,1468 676,1477 693,1484 710,1489 728,1492 746,1493 764,1492 782,1489 800,1485 817,1479 834,1471 850,1462 865,1451 879,1439 892,1426 903,1439 914,1450 925,1460 936,1469 948,1477 960,1483 972,1489 985,1493 998,1496 1011,1498 1024,1498 1038,1498 1053,1496 1067,1493 1082,1489 1098,1484 1086,1501 1074,1516 1062,1531 1049,1545 1036,1558 1023,1570 1009,1580 996,1590 981,1599 967,1606 953,1613 938,1618 923,1623 908,1626 893,1627 878,1628 878,1628"/>
<polygon class="pen1 brush2" points="1251,604 1253,603 1259,600 1268,595 1281,589 1295,583 1311,576 1328,569 1346,563 1364,558 1381,555 1398,553 1413,554 1425,557 1435,564 1442,574 1445,588 1447,644 1445,704 1438,760 1427,801 1447,815 1463,825 1474,833 1483,839 1489,843 1493,846 1497,848 1499,850 1502,852 1507,855 1512,859 1520,865 1531,873 1546,883 1565,896 1589,913 1588,915 1587,917 1587,920 1585,922 1561,905 1541,892 1526,881 1515,873 1507,868 1501,864 1497,861 1494,859 1491,857 1488,855 1484,852 1478,848 1469,842 1458,835 1443,824 1423,811 1420,815 1417,818 1414,819 1409,820 1398,818 1392,810 1390,798 1391,782 1393,763 1397,742 1401,719 1405,696 1407,672 1407,651 1403,632 1393,619 1376,613 1350,616 1314,628 1266,653 1267,653 1267,649 1263,635 1251,604 1251,604"/>
<polygon class="pen1 brush2" points="1199,456 1208,469 1216,480 1222,492 1226,501 1229,509 1231,516 1233,520 1233,521 1252,495 1267,470 1277,448 1284,425 1285,402 1283,378 1277,352 1268,322 1261,291 1259,263 1261,236 1266,213 1272,193 1278,179 1282,169 1284,166 1282,162 1281,159 1279,155 1277,152 1293,132 1308,114 1323,97 1338,80 1353,63 1368,46 1383,28 1399,9 1397,7 1394,5 1393,3 1392,1 1376,20 1361,38 1347,55 1333,71 1319,88 1305,105 1290,123 1274,142 1269,134 1266,129 1265,127 1264,126 1246,147 1231,171 1220,196 1212,223 1209,251 1209,280 1214,309 1223,339 1232,367 1234,391 1230,411 1224,427 1216,440 1208,449 1201,454 1199,456 1199,456"/>
<polygon class="pen1 brush2" points="1106,1470 1095,1473 1085,1476 1074,1479 1064,1480 1053,1482 1043,1483 1032,1484 1021,1484 1001,1483 982,1479 965,1473 950,1464 936,1454 923,1442 911,1429 899,1416 922,1387 943,1353 961,1315 977,1272 989,1225 999,1173 1004,1117 1006,1057 1005,1022 1002,985 997,948 991,910 983,871 973,832 962,792 949,753 935,715 921,677 905,641 889,606 872,572 854,540 836,510 818,483 840,486 863,487 885,487 907,486 929,484 950,481 971,477 992,472 1011,466 1030,459 1048,451 1064,442 1080,431 1094,421 1107,409 1118,396 1143,447 1166,503 1188,563 1207,627 1222,695 1234,765 1241,838 1244,913 1242,997 1234,1077 1222,1155 1207,1228 1187,1297 1163,1360 1136,1418 1106,1470"/>
</g>
</svg>
