<?xml version="1.0" encoding="UTF-8" standalone="no"?>
<!DOCTYPE svg PUBLIC "-//W3C//DTD SVG 1.0//EN" "http://www.w3.org/TR/2001/REC-SVG-20010904/DTD/svg10.dtd">
<svg xmlns="http://www.w3.org/2000/svg" xmlns:xlink="http://www.w3.org/1999/xlink" fill-rule="evenodd" height="1.388in" preserveAspectRatio="none" stroke-linecap="round" viewBox="0 0 2004 1388" width="2.004in">
<style type="text/css">
.brush0 { fill: rgb(255,255,255); }
.pen0 { stroke: rgb(0,0,0); stroke-width: 1; stroke-linejoin: round; }
.brush1 { fill: none; }
.pen1 { stroke: none; }
.brush2 { fill: rgb(0,0,0); }
</style>
<g>
<polygon class="pen1 brush2" points="101,410 99,407 94,398 88,384 81,366 75,345 71,323 70,300 74,278 79,266 87,254 97,244 110,234 125,227 144,220 167,216 193,214 228,214 258,218 285,224 308,231 329,240 349,248 369,255 390,260 413,263 438,262 467,256 502,245 542,228 588,203 643,171 706,129 719,120 732,111 746,102 760,94 774,85 788,77 803,68 818,60 832,53 847,45 862,38 878,32 893,26 908,20 923,15 938,11 952,8 966,5 980,4 994,3 1008,3 1021,4 1034,5 1047,8 1059,13 1072,21 1085,31 1099,43 1111,54 1121,63 1128,70 1131,72 1138,95 1144,122 1145,150 1142,178 1139,198 1142,213 1148,226 1155,240 1162,258 1166,283 1165,318 1158,366 1157,383 1160,396 1167,406 1175,417 1182,432 1185,453 1184,484 1176,527 1175,543 1178,561 1184,581 1190,603 1197,627 1201,652 1201,678 1195,704 1200,702 1205,701 1209,699 1215,698 1221,672 1221,647 1217,622 1211,598 1204,576 1197,555 1194,537 1195,521 1204,479 1205,449 1201,427 1195,413 1187,401 1180,390 1177,377 1178,359 1185,311 1185,276 1181,252 1174,234 1167,221 1161,208 1158,193 1161,173 1165,143 1163,113 1156,85 1148,62 1161,56 1176,51 1193,48 1211,50 1229,56 1247,68 1264,88 1280,116 1281,124 1281,133 1281,142 1280,150 1279,170 1283,185 1290,197 1299,210 1307,226 1314,251 1317,285 1314,333 1315,351 1320,364 1327,374 1336,385 1344,399 1350,419 1351,449 1347,492 1347,504 1349,517 1354,531 1360,546 1367,563 1374,580 1380,598 1385,616 1389,614 1394,611 1398,608 1402,606 1397,588 1391,571 1385,555 1378,539 1372,524 1368,510 1365,497 1365,485 1369,442 1368,412 1363,391 1355,377 1346,366 1338,356 1333,344 1332,326 1339,284 1338,251 1332,224 1323,202 1313,183 1305,167 1300,150 1300,132 1306,135 1312,138 1318,140 1325,142 1333,144 1341,145 1349,146 1358,146 1374,143 1391,139 1409,135 1426,135 1442,139 1456,152 1468,174 1476,208 1477,210 1480,214 1484,219 1492,225 1500,236 1505,253 1504,276 1496,309 1495,321 1499,329 1506,336 1514,344 1520,354 1523,368 1522,388 1513,416 1512,426 1515,438 1521,451 1528,465 1535,481 1539,497 1539,514 1534,531 1539,529 1544,528 1549,526 1554,525 1559,509 1558,492 1554,476 1548,461 1541,447 1536,434 1533,422 1534,411 1542,383 1543,363 1540,349 1533,340 1525,332 1519,325 1515,317 1517,305 1523,280 1525,261 1523,246 1520,234 1540,235 1556,236 1568,238 1576,241 1582,248 1587,259 1590,275 1594,298 1595,299 1598,300 1603,303 1611,306 1616,316 1619,329 1618,346 1611,369 1610,378 1614,385 1621,390 1629,396 1635,404 1638,415 1637,431 1628,454 1627,460 1629,468 1632,476 1637,485 1643,494 1648,504 1652,514 1655,524 1660,524 1665,524 1670,523 1675,522 1673,512 1669,501 1663,491 1658,482 1653,473 1649,465 1648,457 1649,451 1657,428 1658,412 1655,401 1648,393 1640,387 1634,382 1630,375 1632,366 1638,346 1640,330 1638,318 1635,309 1641,309 1647,308 1655,307 1662,306 1680,305 1693,308 1701,313 1707,321 1710,330 1711,339 1712,348 1713,357 1714,358 1718,362 1724,367 1733,372 1740,381 1745,395 1746,414 1739,440 1738,448 1740,455 1744,460 1750,465 1757,471 1762,477 1766,486 1767,497 1771,495 1776,492 1781,489 1786,485 1784,477 1779,470 1774,465 1768,461 1762,456 1758,451 1756,445 1757,437 1763,419 1765,404 1765,392 1763,383 1769,385 1775,386 1783,386 1790,386 1808,388 1822,392 1833,400 1841,409 1845,419 1846,431 1843,442 1837,454 1838,455 1842,456 1850,457 1859,457 1870,458 1883,460 1897,463 1911,468 1926,474 1940,483 1954,494 1966,508 1977,525 1986,546 1993,570 1997,599 1997,615 1996,631 1993,648 1988,666 1982,684 1974,702 1965,720 1955,738 1944,756 1932,774 1919,790 1905,807 1890,822 1875,837 1860,850 1844,862 1827,872 1811,881 1795,890 1780,897 1766,905 1753,912 1742,920 1733,928 1726,937 1721,947 1719,958 1720,971 1724,985 1731,1002 1742,1021 1757,1042 1770,1064 1778,1085 1781,1104 1779,1121 1773,1137 1764,1150 1752,1163 1738,1173 1722,1182 1705,1189 1687,1195 1670,1199 1653,1202 1637,1203 1623,1202 1612,1200 1592,1195 1572,1192 1554,1193 1536,1199 1519,1211 1503,1231 1487,1259 1473,1296 1464,1316 1452,1333 1438,1348 1422,1359 1405,1369 1385,1375 1365,1380 1344,1383 1323,1384 1302,1383 1282,1381 1263,1377 1244,1372 1228,1366 1214,1359 1202,1351 1190,1344 1178,1337 1165,1331 1152,1325 1139,1321 1124,1316 1110,1313 1096,1310 1081,1308 1066,1306 1051,1305 1036,1305 1021,1305 1006,1306 991,1308 977,1310 963,1312 949,1313 935,1312 922,1311 908,1309 895,1305 881,1300 868,1294 855,1287 843,1278 830,1268 818,1256 805,1243 793,1228 782,1212 770,1194 758,1180 743,1170 725,1161 705,1155 684,1151 662,1148 641,1145 621,1143 611,1142 601,1140 590,1137 578,1132 567,1127 555,1121 543,1115 532,1107 520,1099 509,1091 499,1081 489,1072 480,1062 472,1051 466,1040 460,1029 449,1009 435,993 418,979 399,969 378,960 357,954 337,949 317,946 297,939 276,925 256,905 239,880 228,851 223,817 228,780 244,741 262,704 272,673 274,647 268,626 255,609 235,598 208,591 176,589 159,589 142,589 126,588 110,587 95,586 81,584 68,581 56,577 45,572 36,566 29,559 23,550 19,539 17,527 17,513 20,497 28,470 40,450 53,434 67,423 80,416 91,412 98,410 101,410"/>
<polygon class="pen1 brush0" points="1804,471 1806,471 1811,470 1820,468 1831,467 1844,467 1859,467 1875,469 1892,472 1908,478 1924,486 1940,496 1954,510 1966,528 1976,549 1982,575 1986,605 1986,621 1984,637 1981,654 1976,671 1969,689 1962,706 1953,723 1943,741 1931,758 1919,774 1906,790 1892,806 1877,820 1862,834 1846,847 1830,859 1814,869 1798,879 1782,887 1767,895 1754,903 1741,910 1730,918 1721,926 1714,936 1710,946 1707,957 1708,970 1712,985 1719,1001 1730,1020 1744,1042 1758,1064 1766,1084 1769,1102 1768,1119 1763,1133 1755,1146 1744,1157 1731,1167 1716,1174 1700,1181 1684,1185 1667,1189 1651,1190 1636,1191 1622,1190 1611,1187 1590,1182 1570,1179 1551,1181 1532,1188 1514,1200 1497,1220 1481,1248 1466,1285 1459,1303 1449,1318 1438,1332 1426,1343 1412,1352 1397,1359 1381,1365 1365,1368 1343,1371 1321,1372 1299,1371 1278,1368 1258,1363 1239,1357 1223,1349 1209,1341 1198,1333 1185,1326 1172,1320 1158,1314 1143,1309 1128,1305 1113,1301 1097,1298 1081,1295 1065,1293 1049,1292 1033,1291 1017,1291 1002,1292 987,1293 973,1295 959,1297 945,1299 932,1299 918,1298 905,1296 892,1294 880,1289 867,1284 855,1277 843,1269 831,1259 820,1248 809,1235 798,1221 787,1204 777,1186 765,1169 749,1156 730,1146 710,1140 688,1136 666,1134 645,1133 626,1133 606,1130 584,1123 562,1112 540,1098 519,1083 501,1065 485,1045 473,1025 461,1004 446,986 428,971 409,959 389,949 368,942 347,937 328,933 307,926 286,914 267,897 251,875 240,849 237,818 243,783 259,744 270,722 279,702 285,683 288,666 288,651 286,637 281,625 275,614 266,605 256,597 243,591 229,586 213,582 196,579 178,578 158,578 133,578 111,577 91,575 75,572 60,568 49,562 40,554 34,544 30,533 29,520 30,507 33,492 37,478 44,465 52,452 61,441 73,433 86,427 100,422 115,419 132,417 150,416 169,414 189,413 199,413 210,413 220,414 231,416 242,418 254,420 265,424 277,427 288,432 300,437 312,443 324,450 337,457 349,465 361,474 374,484 394,499 418,517 446,537 477,558 512,580 550,603 591,625 633,646 678,667 724,686 771,702 819,716 867,727 915,734 964,736 1011,734 1056,729 1097,724 1134,717 1168,710 1198,702 1227,694 1253,684 1278,674 1301,663 1324,651 1346,638 1369,624 1392,609 1416,593 1442,577 1469,559 1496,544 1520,532 1542,525 1562,520 1581,518 1598,518 1615,519 1632,520 1649,521 1666,521 1685,520 1704,517 1726,511 1749,502 1775,489 1804,471"/>
<polygon class="pen1 brush2" points="1567,1042 1546,1041 1525,1044 1505,1050 1486,1060 1467,1071 1450,1085 1433,1099 1418,1115 1404,1130 1391,1146 1380,1160 1371,1173 1364,1184 1358,1193 1355,1198 1354,1200 1333,1184 1310,1172 1285,1164 1258,1159 1231,1157 1204,1157 1176,1159 1150,1163 1124,1168 1100,1174 1079,1180 1060,1186 1045,1192 1033,1196 1026,1199 1023,1200 1011,1177 995,1156 977,1139 957,1124 936,1111 913,1100 891,1091 868,1084 846,1079 825,1075 806,1072 790,1070 776,1069 765,1068 758,1068 756,1068 746,1042 732,1019 716,999 698,982 679,967 658,955 638,945 617,937 597,930 577,925 560,922 544,920 531,918 522,917 515,917 513,917 503,893 493,872 481,853 468,837 454,823 440,812 426,802 412,794 399,788 385,783 373,780 362,778 352,777 343,777 336,777 331,778 328,779 329,781 332,783 338,785 347,789 357,793 368,799 381,806 395,815 409,826 423,839 437,855 451,873 464,893 476,917 486,944 488,944 495,943 504,943 517,943 533,944 551,946 570,949 590,954 611,961 632,970 653,982 672,996 691,1014 707,1035 721,1060 732,1089 734,1089 742,1089 753,1089 768,1090 785,1091 805,1094 827,1097 850,1103 874,1110 898,1119 922,1130 945,1143 966,1160 986,1179 1002,1202 1016,1228 1019,1227 1026,1224 1038,1219 1054,1214 1073,1208 1095,1202 1120,1196 1146,1191 1174,1187 1202,1185 1231,1186 1259,1189 1287,1195 1314,1205 1339,1219 1362,1237 1363,1235 1367,1229 1373,1219 1381,1207 1391,1192 1402,1175 1415,1158 1429,1139 1445,1121 1461,1104 1478,1087 1495,1072 1513,1060 1531,1050 1549,1044 1567,1042"/>
</g>
</svg>
