<?xml version="1.0" encoding="UTF-8" standalone="no"?>
<!DOCTYPE svg PUBLIC "-//W3C//DTD SVG 1.0//EN" "http://www.w3.org/TR/2001/REC-SVG-20010904/DTD/svg10.dtd">
<svg xmlns="http://www.w3.org/2000/svg" xmlns:xlink="http://www.w3.org/1999/xlink" fill-rule="evenodd" height="1.618in" preserveAspectRatio="none" stroke-linecap="round" viewBox="0 0 1984 1618" width="1.984in">
<style type="text/css">
.brush0 { fill: rgb(255,255,255); }
.pen0 { stroke: rgb(0,0,0); stroke-width: 1; stroke-linejoin: round; }
.brush1 { fill: none; }
.pen1 { stroke: none; }
.brush2 { fill: rgb(0,0,0); }
</style>
<g>
<polygon class="pen1 brush2" points="1011,817 1021,835 1031,861 1040,894 1047,933 1054,978 1059,1028 1063,1081 1065,1138 920,1138 922,1080 926,1025 931,975 938,929 947,890 956,857 966,831 977,814 982,815 987,816 992,817 998,817 1002,817 1005,817 1008,817 1011,817 1011,817"/>
<polygon class="pen1 brush2" points="1065,1162 1065,1164 1065,1167 1065,1171 1065,1175 1065,1193 1065,1212 1065,1231 1064,1249 923,1249 922,1231 921,1212 920,1193 920,1175 920,1171 920,1167 920,1164 920,1162 1065,1162 1065,1162"/>
<polygon class="pen1 brush2" points="1062,1271 1061,1296 1059,1320 1057,1343 1055,1365 932,1365 929,1343 926,1320 924,1296 923,1271 1062,1271 1062,1271"/>
<polygon class="pen1 brush2" points="1051,1388 1048,1411 1044,1432 1040,1453 1035,1471 950,1471 945,1453 941,1432 938,1411 934,1388 1051,1388 1051,1388"/>
<polygon class="pen1 brush2" points="1030,1493 1025,1504 1021,1514 1016,1523 1012,1530 1007,1536 1002,1541 998,1543 993,1544 988,1543 982,1541 978,1536 973,1530 969,1523 965,1514 961,1504 957,1493 1030,1493 1030,1493"/>
<polygon class="pen1 brush2" points="997,678 1000,678 1002,678 1005,678 1007,678 1007,671 1008,665 1008,659 1008,652 1015,645 1024,641 1037,638 1051,636 1066,634 1083,631 1101,626 1118,619 1135,608 1152,593 1167,573 1180,547 1191,514 1199,474 1205,426 1206,368 1207,368 1208,367 1210,366 1211,365 1210,424 1205,474 1197,515 1186,549 1173,576 1158,597 1141,613 1124,624 1107,632 1089,637 1073,640 1057,642 1043,644 1032,646 1023,649 1017,655 1015,661 1015,667 1014,673 1014,679 1024,683 1033,688 1041,695 1048,702 1053,711 1057,720 1060,730 1061,740 1060,753 1056,764 1050,775 1042,785 1032,793 1021,799 1010,803 997,804 984,803 973,799 962,793 952,785 944,775 938,764 934,753 933,740 934,730 937,720 941,710 946,702 953,694 961,688 970,682 980,679 979,674 979,668 978,662 977,656 971,651 963,648 951,646 937,644 922,642 905,639 888,634 870,627 853,615 837,600 822,579 808,552 797,518 789,477 785,427 784,368 786,368 787,369 787,369 788,368 789,426 795,475 803,515 814,548 827,574 842,594 859,609 876,619 893,627 911,632 927,635 943,637 957,639 969,642 978,647 984,654 985,660 986,666 986,672 987,678 989,678 992,678 994,678 997,678"/>
<polygon class="pen1 brush2" points="153,1217 148,1203 144,1184 143,1163 146,1141 160,1105 180,1074 206,1047 236,1024 270,1005 307,989 345,977 383,967 421,959 457,954 491,950 520,948 545,946 564,946 577,946 581,946 580,945 578,943 574,940 569,936 562,931 553,925 541,919 528,913 512,907 494,900 474,894 451,889 425,884 397,879 365,876 331,874 297,870 267,861 241,849 218,832 198,811 180,787 164,759 150,728 137,694 126,657 115,617 104,575 92,531 81,485 68,437 54,388 37,328 25,273 16,224 11,179 10,140 12,107 16,78 24,54 30,42 37,32 45,23 54,16 63,10 73,6 84,4 95,3 126,6 157,13 189,24 221,38 254,55 287,75 321,98 355,124 388,152 422,182 455,213 489,246 521,281 554,316 585,352 616,389 646,426 676,463 704,500 731,536 757,572 781,607 804,640 826,673 846,703 864,732 880,759 894,783 906,804 916,823 924,839 929,851 925,868 917,911 907,973 900,1043 898,1099 898,1136 897,1160 893,1172 871,1216 849,1259 825,1300 800,1339 775,1376 750,1410 725,1441 700,1468 676,1490 653,1508 631,1521 611,1528 592,1529 575,1523 561,1511 549,1491 544,1489 534,1491 521,1494 505,1497 486,1495 467,1487 448,1469 430,1439 425,1435 417,1436 405,1439 391,1441 375,1438 358,1427 340,1406 321,1371 313,1366 298,1365 278,1364 258,1360 239,1350 225,1332 219,1302 224,1257 223,1252 217,1248 207,1246 195,1243 183,1240 171,1235 160,1228 153,1217"/>
<polygon class="pen1 brush2" points="1834,1215 1838,1200 1843,1181 1844,1159 1842,1138 1828,1102 1808,1070 1782,1043 1751,1020 1717,1001 1680,985 1642,973 1604,963 1566,955 1530,950 1496,946 1467,944 1442,942 1423,942 1410,942 1406,942 1407,941 1409,939 1413,936 1418,932 1425,927 1434,921 1445,915 1459,909 1474,902 1492,896 1512,890 1536,884 1561,879 1590,875 1621,871 1656,869 1690,865 1720,857 1746,844 1769,827 1789,807 1807,782 1823,755 1837,724 1849,690 1861,653 1872,613 1883,571 1894,527 1906,481 1919,433 1933,384 1947,336 1958,291 1967,249 1973,211 1976,176 1978,145 1977,116 1974,91 1969,69 1962,51 1954,35 1944,22 1933,12 1921,5 1907,1 1892,0 1861,3 1830,10 1798,20 1766,34 1733,52 1700,72 1666,95 1632,121 1599,148 1565,178 1532,210 1498,243 1466,277 1433,312 1402,349 1371,385 1341,422 1311,459 1283,496 1256,533 1230,569 1206,604 1183,637 1161,670 1141,700 1123,729 1107,756 1093,780 1081,801 1071,820 1063,836 1058,848 1062,865 1071,908 1080,969 1086,1038 1088,1095 1088,1133 1089,1157 1092,1169 1114,1213 1137,1256 1161,1297 1185,1336 1211,1373 1236,1407 1261,1437 1286,1464 1310,1486 1333,1504 1355,1517 1375,1524 1394,1525 1410,1520 1424,1508 1436,1488 1441,1486 1451,1487 1464,1491 1481,1493 1499,1492 1518,1484 1537,1466 1555,1436 1561,1432 1569,1433 1581,1435 1595,1437 1611,1434 1629,1423 1647,1403 1666,1368 1673,1364 1688,1362 1708,1361 1729,1357 1747,1347 1761,1328 1767,1298 1761,1253 1762,1248 1769,1244 1778,1242 1790,1240 1803,1237 1816,1232 1826,1225 1834,1215"/>
<polygon class="pen1 brush0" points="1767,1121 1775,1122 1783,1124 1790,1129 1797,1134 1802,1141 1806,1148 1808,1156 1809,1165 1808,1173 1806,1181 1802,1188 1797,1194 1790,1199 1783,1203 1775,1205 1767,1206 1758,1205 1750,1203 1743,1199 1737,1194 1731,1188 1727,1181 1725,1173 1724,1165 1725,1156 1727,1148 1731,1141 1737,1134 1743,1129 1750,1124 1758,1122 1767,1121"/>
<polygon class="pen1 brush0" points="1706,1261 1713,1262 1718,1264 1724,1267 1728,1271 1732,1276 1735,1281 1736,1287 1737,1294 1736,1300 1735,1306 1732,1311 1728,1316 1724,1320 1718,1323 1713,1324 1706,1325 1699,1324 1693,1323 1687,1320 1682,1316 1678,1311 1675,1306 1674,1300 1673,1294 1674,1287 1675,1281 1678,1276 1682,1271 1687,1267 1693,1264 1699,1262 1706,1261"/>
<polygon class="pen1 brush0" points="1602,1365 1610,1367 1617,1372 1621,1379 1623,1388 1621,1396 1617,1403 1610,1407 1602,1409 1593,1407 1586,1403 1581,1396 1579,1388 1581,1379 1586,1372 1593,1367 1602,1365"/>
<polygon class="pen1 brush0" points="1491,1435 1498,1436 1504,1440 1508,1445 1510,1452 1508,1458 1504,1464 1498,1468 1491,1469 1485,1468 1480,1464 1476,1458 1474,1452 1476,1445 1480,1440 1485,1436 1491,1435"/>
<polygon class="pen1 brush0" points="1389,1471 1393,1472 1397,1475 1399,1480 1400,1485 1399,1489 1397,1493 1393,1495 1389,1496 1384,1495 1380,1493 1377,1489 1376,1485 1377,1480 1380,1475 1384,1472 1389,1471"/>
<polygon class="pen1 brush0" points="1547,479 1563,463 1581,446 1603,427 1626,408 1651,387 1677,367 1704,346 1731,326 1757,307 1783,289 1808,273 1831,259 1853,247 1871,238 1887,232 1899,229 1915,230 1924,235 1927,242 1925,251 1918,260 1908,269 1896,276 1883,280 1876,282 1867,284 1857,287 1846,291 1835,295 1823,299 1810,304 1797,309 1785,314 1772,320 1760,325 1749,330 1738,336 1729,341 1721,346 1714,350 1707,355 1698,362 1687,370 1675,379 1662,389 1648,400 1633,411 1619,422 1605,433 1592,444 1579,453 1569,462 1560,469 1553,474 1549,478 1547,479"/>
<polygon class="pen1 brush0" points="1548,331 1564,315 1582,298 1603,279 1626,259 1651,239 1677,218 1704,198 1731,178 1757,159 1783,141 1808,125 1831,110 1853,99 1871,89 1887,83 1899,81 1915,82 1924,86 1927,93 1925,102 1918,111 1908,120 1896,127 1883,131 1876,133 1867,135 1857,138 1846,142 1835,146 1823,150 1810,155 1797,160 1785,166 1772,171 1760,177 1749,182 1738,188 1729,193 1721,197 1714,202 1707,207 1698,214 1687,222 1675,231 1662,241 1648,252 1634,263 1619,274 1606,285 1592,296 1580,305 1570,314 1561,321 1554,326 1550,330 1548,331"/>
<polygon class="pen1 brush0" points="1443,834 1459,819 1477,801 1499,783 1522,763 1547,743 1573,723 1599,702 1626,682 1653,663 1679,646 1704,629 1727,615 1748,603 1766,594 1782,588 1794,585 1811,586 1820,590 1823,597 1821,606 1814,615 1805,624 1793,631 1780,635 1773,637 1764,639 1754,642 1743,646 1731,650 1719,654 1706,659 1694,664 1681,670 1669,675 1657,681 1645,686 1635,692 1626,697 1618,701 1611,706 1604,711 1595,718 1584,726 1571,735 1558,745 1544,756 1529,767 1515,778 1501,789 1488,799 1476,809 1465,817 1456,824 1449,829 1445,833 1443,834"/>
<polygon class="pen1 brush0" points="1504,645 1520,629 1538,612 1560,593 1583,574 1608,553 1634,533 1660,512 1687,492 1714,473 1740,456 1765,439 1788,425 1809,413 1827,404 1843,398 1855,396 1872,397 1881,401 1884,408 1882,417 1875,426 1866,435 1854,442 1841,446 1834,448 1825,450 1815,453 1804,456 1792,460 1780,465 1767,470 1755,475 1742,481 1730,486 1718,492 1706,497 1696,502 1687,508 1679,512 1672,517 1665,522 1656,529 1645,537 1632,546 1619,556 1605,567 1590,578 1576,589 1562,600 1549,610 1537,620 1526,628 1517,635 1510,640 1506,644 1504,645"/>
<polygon class="pen1 brush0" points="220,1125 211,1126 203,1128 196,1132 190,1137 184,1144 180,1151 178,1159 177,1168 178,1176 180,1184 184,1191 190,1197 196,1203 203,1207 211,1209 220,1210 229,1209 237,1207 244,1203 251,1197 256,1191 261,1184 263,1176 264,1168 263,1159 261,1151 256,1144 251,1137 244,1132 237,1128 229,1126 220,1125"/>
<polygon class="pen1 brush0" points="281,1264 275,1265 269,1267 264,1270 259,1274 255,1279 252,1284 251,1290 250,1297 251,1303 252,1309 255,1314 259,1319 264,1323 269,1326 275,1327 281,1328 288,1327 294,1326 299,1323 304,1319 308,1314 311,1309 313,1303 314,1297 313,1290 311,1284 308,1279 304,1274 299,1270 294,1267 288,1265 281,1264"/>
<polygon class="pen1 brush0" points="385,1369 376,1371 369,1376 364,1383 362,1392 364,1400 369,1407 376,1411 385,1413 393,1411 400,1407 404,1400 406,1392 404,1383 400,1376 393,1371 385,1369"/>
<polygon class="pen1 brush0" points="494,1439 488,1440 483,1444 479,1449 477,1456 479,1463 483,1468 488,1472 494,1473 501,1472 507,1468 511,1463 513,1456 511,1449 507,1444 501,1440 494,1439"/>
<polygon class="pen1 brush0" points="599,1476 594,1477 590,1479 587,1483 586,1488 587,1493 590,1497 594,1499 599,1500 604,1499 608,1497 611,1493 612,1488 611,1483 608,1479 604,1477 599,1476"/>
<polygon class="pen1 brush0" points="440,483 424,467 406,450 384,431 361,411 336,391 310,370 283,350 257,330 230,311 204,293 179,277 156,262 134,251 116,241 100,235 88,233 72,234 63,238 60,245 62,254 69,263 78,272 90,279 103,283 110,285 119,287 129,290 140,294 152,298 164,302 177,307 190,312 202,318 215,323 227,329 238,334 249,340 258,345 266,349 273,354 280,359 289,366 300,374 312,383 325,393 339,404 354,415 368,426 382,437 395,448 408,457 418,466 427,473 434,478 438,482 440,483"/>
<polygon class="pen1 brush0" points="440,334 424,318 406,301 384,282 361,263 336,242 310,222 283,201 257,181 230,162 204,144 179,128 156,114 134,102 116,93 100,87 88,84 71,85 62,90 59,97 61,106 68,115 78,124 90,131 103,135 110,137 119,139 129,142 140,146 152,150 164,154 177,159 190,164 202,169 215,175 227,180 238,185 249,191 258,196 266,201 273,205 280,210 289,217 300,225 312,234 325,244 339,255 354,266 368,277 382,288 395,299 408,308 418,317 427,324 434,329 438,333 440,334"/>
<polygon class="pen1 brush0" points="544,838 528,822 509,805 488,786 464,767 439,746 413,726 387,705 360,685 333,667 307,649 283,633 259,619 238,607 220,598 204,592 192,590 175,590 166,595 162,601 165,610 171,619 181,628 193,635 207,639 214,641 223,643 233,646 244,650 256,654 268,658 281,663 293,668 306,674 318,679 330,685 342,690 352,695 361,700 369,705 376,709 383,714 392,721 403,729 415,739 428,749 442,760 457,771 471,782 485,793 499,803 511,813 522,821 531,828 538,833 542,837 544,838"/>
<polygon class="pen1 brush0" points="483,648 467,633 448,615 427,597 404,577 379,557 353,537 326,516 299,496 272,477 246,460 221,443 198,429 177,417 158,408 142,402 130,399 113,400 104,404 101,411 104,420 110,429 120,438 132,445 146,449 154,451 163,453 173,456 184,460 195,464 208,468 220,473 233,478 245,484 258,489 270,495 281,500 291,506 300,511 308,515 315,520 322,525 331,532 342,540 354,549 368,559 382,570 396,581 411,592 425,603 438,613 450,623 461,631 470,638 477,643 481,647 483,648"/>
</g>
</svg>
