<?xml version="1.0" encoding="UTF-8" standalone="no"?>
<!DOCTYPE svg PUBLIC "-//W3C//DTD SVG 1.0//EN" "http://www.w3.org/TR/2001/REC-SVG-20010904/DTD/svg10.dtd">
<svg xmlns="http://www.w3.org/2000/svg" xmlns:xlink="http://www.w3.org/1999/xlink" fill-rule="evenodd" height="1.209in" preserveAspectRatio="none" stroke-linecap="round" viewBox="0 0 1995 1209" width="1.995in">
<style type="text/css">
.brush0 { fill: rgb(255,255,255); }
.pen0 { stroke: rgb(0,0,0); stroke-width: 1; stroke-linejoin: round; }
.brush1 { fill: none; }
.pen1 { stroke: none; }
.brush2 { fill: rgb(0,0,0); }
</style>
<g>
<polygon class="pen1 brush2" points="1273,986 1283,986 1296,986 1312,985 1330,985 1348,985 1366,986 1383,987 1398,989 1396,992 1392,1002 1386,1016 1379,1033 1371,1051 1365,1070 1360,1088 1357,1104 1352,1107 1337,1114 1317,1125 1292,1139 1267,1155 1244,1173 1224,1191 1212,1209 1168,1209 1168,1182 1157,1189 1150,1197 1146,1204 1145,1209 1121,1209 1121,1182 1110,1189 1103,1197 1099,1204 1097,1209 1080,1209 1080,1207 1081,1200 1083,1191 1088,1181 1097,1170 1110,1160 1129,1153 1155,1149 1159,1145 1171,1134 1189,1118 1209,1097 1229,1074 1248,1049 1263,1024 1272,1000 1273,991 1273,987 1273,986 1273,986 1273,986"/>
<polygon class="pen1 brush2" points="1647,608 1639,600 1630,592 1620,583 1609,574 1597,565 1584,556 1571,548 1556,539 1539,531 1522,524 1503,517 1482,511 1460,505 1437,501 1411,498 1384,496 1347,496 1311,499 1278,504 1245,510 1214,518 1184,526 1153,534 1123,541 1092,547 1061,551 1028,553 994,553 958,549 920,541 880,529 836,512 791,495 748,482 706,474 665,470 627,469 591,471 556,475 524,482 494,489 467,498 442,507 420,515 400,523 384,530 371,534 361,537 352,538 342,539 332,539 320,540 309,540 297,540 284,540 272,540 260,540 248,540 237,540 227,540 217,541 208,541 201,542 195,543 180,549 165,557 150,568 135,580 120,593 105,606 91,617 77,627 68,637 60,654 53,675 46,698 40,721 35,742 30,758 26,767 12,791 8,809 11,821 20,830 31,834 44,837 57,837 70,837 82,836 92,835 99,834 101,834 109,836 116,838 123,839 128,841 132,842 135,842 137,843 138,843 132,810 198,762 195,833 155,838 165,848 155,878 192,879 221,874 243,865 258,853 267,840 273,828 275,820 276,817 289,808 303,794 317,777 329,758 340,741 349,726 355,716 357,712 355,741 349,765 343,781 340,787 359,790 377,794 393,799 409,804 423,811 437,818 450,825 462,833 475,842 487,851 499,860 511,869 523,879 536,889 549,898 563,908 590,926 616,941 640,955 663,966 682,975 696,981 706,985 709,986 708,1147 685,1147 666,1153 651,1163 639,1175 631,1187 625,1198 622,1206 621,1209 645,1209 646,1204 650,1197 657,1189 668,1182 668,1209 692,1209 693,1204 698,1197 705,1189 716,1182 716,1209 756,1209 786,1161 808,1105 824,1044 833,979 838,913 839,848 838,786 834,729 847,759 857,789 864,820 869,852 871,883 871,915 868,947 863,979 882,984 898,989 913,994 928,998 945,1001 964,1002 988,1000 1017,996 1035,993 1055,989 1078,986 1102,982 1128,979 1155,975 1183,972 1211,969 1240,967 1268,964 1297,962 1324,961 1350,960 1375,960 1398,961 1419,962 1402,923 1389,890 1379,860 1372,833 1366,806 1363,778 1361,749 1361,715 1368,753 1380,788 1396,821 1415,852 1437,881 1460,910 1484,938 1509,966 1520,974 1535,982 1553,988 1575,993 1598,997 1624,1001 1650,1003 1676,1005 1702,1007 1726,1008 1749,1009 1769,1009 1786,1009 1799,1009 1807,1009 1810,1009 1841,1144 1812,1145 1787,1152 1767,1162 1751,1174 1739,1187 1731,1198 1726,1206 1725,1209 1746,1209 1748,1204 1752,1197 1759,1189 1770,1182 1770,1209 1793,1209 1795,1204 1799,1197 1806,1189 1817,1182 1817,1209 1888,1209 1891,1202 1893,1196 1896,1190 1899,1185 1903,1179 1908,1172 1914,1164 1922,1155 1933,1135 1937,1119 1936,1105 1932,1091 1922,1052 1915,1011 1911,976 1911,958 1914,941 1916,927 1916,916 1912,908 1907,904 1900,900 1889,898 1876,896 1859,895 1839,894 1815,892 1786,891 1743,880 1711,856 1689,825 1676,790 1668,755 1665,725 1664,704 1664,696 1687,709 1711,719 1736,728 1760,734 1784,738 1808,739 1831,738 1854,734 1875,728 1894,720 1912,708 1929,694 1942,677 1954,657 1963,634 1969,608 1971,573 1969,542 1961,512 1948,485 1937,468 1924,451 1909,435 1893,421 1875,407 1856,393 1835,381 1814,369 1791,358 1767,348 1742,338 1717,329 1691,321 1665,313 1638,306 1611,299 1584,292 1556,286 1529,281 1502,275 1476,270 1450,266 1424,261 1399,257 1375,253 1352,250 1330,246 1309,243 1289,240 1271,236 1254,233 1239,230 1196,218 1161,205 1133,189 1113,173 1098,155 1089,137 1083,119 1082,101 1083,83 1085,66 1089,51 1092,36 1095,24 1097,14 1095,7 1091,3 1088,2 1084,3 1080,5 1076,7 1071,11 1066,16 1061,21 1057,27 1050,38 1044,50 1039,64 1036,79 1034,95 1034,112 1037,129 1042,147 1050,165 1062,183 1077,200 1097,217 1120,234 1148,249 1182,264 1220,277 1231,280 1245,283 1262,287 1282,291 1304,295 1328,299 1354,304 1382,310 1411,316 1441,322 1472,329 1504,336 1536,344 1569,352 1601,360 1633,370 1665,380 1695,390 1725,401 1753,413 1780,425 1805,438 1828,452 1848,466 1866,481 1882,497 1894,513 1903,531 1908,549 1910,568 1908,587 1901,608 1893,623 1882,635 1870,645 1856,652 1841,658 1824,661 1808,663 1790,663 1773,662 1756,660 1740,657 1725,654 1712,650 1700,646 1690,642 1682,638 1678,636 1674,633 1670,630 1666,626 1662,622 1657,618 1652,613 1647,608 1647,608"/>
<polygon class="pen1 brush2" points="469,874 477,882 486,892 496,902 506,914 516,925 526,936 536,945 544,953 542,953 536,954 527,956 515,958 501,960 485,962 468,965 450,968 431,970 413,973 396,975 379,977 365,979 353,980 343,980 337,980 339,982 343,988 349,997 358,1008 367,1020 378,1031 388,1042 399,1050 399,1051 400,1052 401,1055 401,1057 378,1064 385,1072 394,1076 401,1078 407,1078 407,1082 407,1085 407,1089 407,1093 377,1097 381,1103 387,1107 392,1109 398,1110 397,1111 397,1111 396,1111 395,1111 394,1112 391,1113 387,1115 381,1117 374,1118 366,1119 357,1118 347,1115 342,1113 336,1110 331,1107 325,1102 319,1096 314,1090 308,1082 303,1074 297,1063 291,1049 285,1034 279,1017 274,998 270,976 266,952 263,925 263,919 267,914 275,910 288,907 306,904 329,902 359,901 395,901 397,901 402,900 410,899 419,897 428,894 438,892 446,889 452,885 460,880 465,877 468,875 469,874"/>
<polygon class="pen1 brush0" points="230,611 228,612 236,608 250,602 268,594 288,588 308,585 325,586 338,593 340,597 340,603 336,610 330,618 321,627 309,636 293,646 274,655 276,653 283,648 292,641 301,633 311,624 318,614 322,606 321,600 314,596 302,595 287,596 271,599 256,603 243,607 233,610 230,611"/>
<polygon class="pen1 brush0" points="141,713 149,711 156,706 160,699 162,691 160,682 156,675 149,670 141,668 132,670 125,675 120,682 118,691 120,699 125,706 132,711 141,713"/>
<polygon class="pen1 brush0" points="546,654 553,653 559,651 565,648 570,644 574,639 577,633 579,627 580,621 579,614 577,607 574,601 570,595 565,591 559,588 553,586 546,585 539,586 533,588 527,591 522,595 518,601 515,607 513,614 512,621 513,627 515,633 518,639 522,644 527,648 533,651 539,653 546,654 546,654"/>
<polygon class="pen1 brush0" points="631,645 637,644 643,643 648,640 652,637 656,633 659,628 660,623 661,618 660,612 659,606 656,601 652,596 648,592 643,589 637,588 631,587 625,588 619,589 614,592 610,596 606,601 603,606 602,612 601,618 602,623 603,628 606,633 610,637 614,640 619,643 625,644 631,645 631,645"/>
<polygon class="pen1 brush0" points="614,571 622,569 629,565 633,558 635,550 633,541 629,534 622,529 614,527 605,529 598,534 593,541 591,550 593,558 598,565 605,569 614,571 614,571"/>
<polygon class="pen1 brush0" points="776,674 784,673 791,671 798,667 804,662 809,657 813,650 815,643 816,635 815,627 813,620 809,614 804,608 798,603 791,600 784,598 776,597 769,598 762,600 756,603 750,608 745,614 742,620 740,627 739,635 740,643 742,650 745,657 750,662 756,667 762,671 769,673 776,674 776,674"/>
<polygon class="pen1 brush0" points="793,580 799,579 804,576 808,572 809,566 808,560 804,555 799,551 793,550 788,551 783,555 780,560 779,566 780,572 783,576 788,579 793,580 793,580"/>
<polygon class="pen1 brush0" points="851,641 855,640 859,636 864,631 869,625 874,619 878,615 880,612 881,612 880,606 879,601 876,596 872,592 868,588 863,585 857,584 851,583 845,584 839,585 834,588 830,592 826,596 823,601 822,606 821,612 822,618 823,623 826,628 830,632 834,636 839,639 845,640 851,641 851,641"/>
<polygon class="pen1 brush0" points="1017,763 1025,762 1033,760 1041,756 1047,751 1052,745 1057,738 1059,730 1060,722 1059,714 1057,706 1052,699 1047,693 1041,688 1033,684 1025,682 1017,681 1009,682 1002,684 995,688 989,693 983,699 979,706 977,714 976,722 977,732 981,740 986,747 993,753 1000,757 1006,761 1012,762 1017,763 1017,763"/>
<polygon class="pen1 brush0" points="1074,682 1066,681 1060,677 1056,671 1054,664 1056,656 1060,650 1066,646 1074,645 1081,646 1088,650 1092,656 1094,664 1092,671 1088,677 1081,681 1074,682 1074,682"/>
<polygon class="pen1 brush0" points="1117,769 1124,768 1131,766 1137,763 1143,758 1148,752 1151,746 1153,739 1154,732 1153,724 1151,717 1148,710 1143,704 1137,700 1131,696 1124,694 1117,693 1109,694 1102,696 1096,700 1090,704 1086,710 1083,717 1081,724 1080,732 1081,739 1083,746 1086,752 1090,758 1096,763 1102,766 1109,768 1117,769 1117,769"/>
<polygon class="pen1 brush0" points="1185,665 1197,663 1205,657 1211,648 1213,637 1211,626 1205,616 1197,610 1185,608 1175,610 1166,616 1160,626 1158,637 1160,648 1166,657 1175,663 1185,665 1185,665"/>
<polygon class="pen1 brush0" points="1263,658 1269,657 1275,656 1280,653 1284,649 1288,645 1291,640 1292,634 1293,628 1292,623 1291,618 1288,613 1284,609 1280,605 1275,602 1269,601 1263,600 1257,601 1251,602 1246,605 1242,609 1238,613 1235,618 1234,623 1233,628 1234,634 1235,640 1238,645 1242,649 1246,653 1251,656 1257,657 1263,658 1263,658"/>
<polygon class="pen1 brush0" points="1216,602 1222,601 1227,597 1231,593 1232,587 1231,580 1227,575 1222,571 1216,570 1209,571 1204,575 1200,580 1199,587 1200,593 1204,597 1209,601 1216,602"/>
</g>
</svg>
