<?xml version="1.0" encoding="UTF-8" standalone="no"?>
<!DOCTYPE svg PUBLIC "-//W3C//DTD SVG 1.0//EN" "http://www.w3.org/TR/2001/REC-SVG-20010904/DTD/svg10.dtd">
<svg xmlns="http://www.w3.org/2000/svg" xmlns:xlink="http://www.w3.org/1999/xlink" fill-rule="evenodd" height="1.204in" preserveAspectRatio="none" stroke-linecap="round" viewBox="0 0 1983 1204" width="1.983in">
<style type="text/css">
.brush0 { fill: rgb(255,255,255); }
.pen0 { stroke: rgb(0,0,0); stroke-width: 1; stroke-linejoin: round; }
.brush1 { fill: none; }
.pen1 { stroke: none; }
.brush2 { fill: rgb(0,0,0); }
</style>
<g>
<polygon class="pen1 brush2" points="199,295 254,295 250,294 238,291 221,286 201,279 179,272 159,263 141,254 128,244 131,243 138,240 150,237 164,232 181,229 198,225 216,224 233,224 231,223 226,219 218,214 208,206 197,197 185,186 173,173 162,158 152,142 144,125 139,106 137,87 139,66 145,45 157,23 175,0 174,1 172,6 170,12 167,21 164,32 163,44 162,57 162,72 165,87 169,102 177,118 188,133 203,148 221,162 245,175 273,187 294,166 297,173 301,181 306,191 312,201 321,211 331,222 344,233 361,243 381,252 406,261 435,268 469,274 509,277 554,279 606,278 665,274 724,270 777,268 825,267 868,269 907,272 942,276 974,281 1002,287 1028,293 1053,299 1075,305 1097,310 1118,314 1139,317 1160,319 1182,319 1205,318 1228,318 1252,317 1276,317 1299,317 1323,317 1345,317 1367,317 1388,317 1408,317 1426,317 1443,317 1458,317 1471,316 1482,316 1490,315 1496,314 1506,312 1518,309 1533,306 1551,303 1570,299 1592,296 1615,293 1639,290 1664,288 1689,288 1715,288 1741,290 1766,293 1791,298 1815,305 1839,315 1861,327 1881,342 1899,361 1914,382 1926,407 1934,436 1939,468 1941,517 1939,558 1937,595 1935,630 1935,665 1939,704 1949,748 1966,802 1971,827 1972,864 1971,909 1966,960 1958,1013 1946,1063 1931,1108 1913,1143 1911,1137 1906,1121 1900,1094 1895,1056 1894,1007 1897,949 1906,880 1925,802 1927,789 1928,771 1927,750 1924,727 1920,704 1914,681 1906,661 1896,645 1891,653 1878,674 1861,708 1844,752 1829,805 1821,866 1823,931 1838,1001 1840,1014 1839,1032 1837,1053 1832,1075 1827,1097 1820,1117 1813,1133 1805,1143 1797,1150 1790,1158 1784,1166 1778,1174 1773,1181 1770,1187 1768,1192 1767,1193 1644,1193 1645,1191 1646,1184 1650,1175 1655,1164 1662,1152 1671,1140 1683,1130 1698,1122 1699,1118 1701,1108 1703,1092 1704,1070 1704,1044 1700,1015 1693,982 1682,948 1665,912 1641,876 1610,840 1571,805 1522,771 1463,741 1393,713 1311,690 1313,691 1320,693 1330,696 1344,701 1360,707 1378,715 1398,723 1419,733 1441,743 1463,755 1484,768 1505,781 1524,795 1541,811 1556,826 1568,843 1567,843 1566,845 1563,847 1558,849 1553,852 1546,856 1538,860 1528,865 1517,869 1505,875 1491,880 1476,885 1459,890 1441,896 1421,901 1400,906 1376,911 1352,915 1325,919 1297,923 1267,926 1236,929 1202,930 1167,932 1130,932 1091,931 1050,930 1008,927 963,924 916,919 868,913 817,906 814,916 804,943 790,980 773,1023 753,1067 732,1106 712,1134 693,1146 672,1204 523,1204 523,1202 523,1197 525,1188 528,1177 534,1164 544,1148 558,1131 577,1113 596,1093 610,1071 620,1047 626,1021 628,996 627,971 623,948 618,926 613,925 598,920 577,910 552,892 526,863 501,821 480,764 465,690 460,672 450,650 436,626 419,603 401,580 382,560 364,544 348,534 347,535 343,537 338,540 330,543 320,548 309,552 295,557 281,562 264,567 247,571 228,574 208,576 188,577 166,577 144,576 121,572 111,585 100,595 88,601 76,603 64,602 52,598 41,590 30,579 21,569 14,561 9,554 6,547 4,542 4,538 5,534 7,531 10,528 13,525 18,522 23,519 28,517 34,513 40,509 46,505 59,492 75,472 92,447 109,419 124,391 138,365 148,341 154,324 156,318 159,313 164,309 169,306 175,303 182,300 190,298 199,295 199,295"/>
<polygon class="pen1 brush2" points="1489,906 1492,911 1495,917 1500,925 1506,934 1518,958 1526,984 1529,1012 1528,1039 1523,1065 1515,1088 1502,1108 1486,1122 1469,1134 1456,1147 1446,1160 1438,1173 1433,1185 1430,1195 1428,1202 1428,1204 1567,1204 1568,1202 1572,1198 1576,1192 1581,1184 1586,1176 1589,1168 1590,1161 1588,1155 1582,1143 1580,1135 1582,1129 1586,1125 1591,1123 1596,1122 1599,1122 1601,1122 1629,1107 1649,1089 1663,1070 1671,1049 1673,1028 1672,1006 1666,984 1658,962 1648,942 1637,922 1625,905 1614,890 1604,877 1596,867 1590,861 1588,859 1574,865 1561,871 1548,877 1536,882 1524,888 1512,894 1500,900 1489,906 1489,906"/>
<polygon class="pen1 brush2" points="827,926 827,928 826,935 827,944 831,956 835,967 841,986 847,1010 852,1037 855,1064 854,1087 849,1105 838,1113 825,1119 816,1130 808,1144 802,1158 798,1173 796,1185 794,1194 794,1197 913,1197 916,1181 922,1166 927,1154 930,1150 959,1129 951,1089 946,1025 943,965 942,939 921,940 904,939 889,938 876,935 864,933 852,930 840,928 827,926"/>
<polygon class="pen1 brush0" points="236,420 246,418 255,412 261,404 263,393 261,382 255,374 246,368 236,366 225,368 217,374 211,382 209,393 211,404 217,412 225,418 236,420"/>
<polygon class="pen1 brush0" points="678,730 667,721 656,712 645,702 634,691 623,679 612,667 602,655 591,642 581,629 571,617 561,604 552,591 543,579 533,567 525,555 516,544 507,548 515,557 523,568 533,581 544,596 555,611 568,627 580,643 593,659 606,675 619,690 633,704 646,716 658,727 670,735 681,741 692,744 688,731 683,718 678,704 673,691 667,678 661,665 654,652 648,639 659,651 671,664 684,678 697,691 711,704 726,715 741,724 756,730 754,720 751,710 747,699 743,688 739,678 734,668 729,658 725,649 739,663 754,676 769,689 785,701 801,712 817,723 834,733 851,743 868,752 886,760 903,768 922,775 940,782 958,788 977,793 996,798 999,791 971,784 945,776 920,767 897,757 874,746 852,734 832,721 811,707 792,692 772,677 754,660 735,643 716,625 697,606 678,586 659,566 664,573 669,581 674,588 679,595 684,602 689,609 694,616 699,622 707,633 714,644 720,655 725,667 729,679 734,692 738,704 743,717 723,704 704,688 686,670 668,652 651,633 633,614 616,596 598,581 603,589 609,597 614,605 620,613 626,621 631,629 637,637 642,646 647,656 652,667 656,677 661,688 665,698 669,709 674,719 678,730"/>
</g>
</svg>
