<?xml version="1.0" encoding="UTF-8" standalone="no"?>
<!DOCTYPE svg PUBLIC "-//W3C//DTD SVG 1.0//EN" "http://www.w3.org/TR/2001/REC-SVG-20010904/DTD/svg10.dtd">
<svg xmlns="http://www.w3.org/2000/svg" xmlns:xlink="http://www.w3.org/1999/xlink" fill-rule="evenodd" height="1.438in" preserveAspectRatio="none" stroke-linecap="round" viewBox="0 0 1978 1438" width="1.978in">
<style type="text/css">
.brush0 { fill: rgb(255,255,255); }
.pen0 { stroke: rgb(0,0,0); stroke-width: 1; stroke-linejoin: round; }
.brush1 { fill: none; }
.pen1 { stroke: none; }
.brush2 { fill: rgb(0,0,0); }
</style>
<g>
<polygon class="pen1 brush2" points="1762,1027 1978,1365 1977,1364 1975,1361 1971,1357 1966,1352 1959,1345 1951,1338 1942,1330 1932,1322 1920,1315 1908,1307 1894,1300 1879,1293 1864,1288 1847,1284 1830,1281 1812,1280 1779,1203 1762,1304 1758,1305 1746,1308 1729,1315 1709,1327 1687,1343 1665,1366 1645,1397 1630,1435 1632,1423 1638,1388 1647,1336 1657,1275 1668,1210 1678,1147 1685,1094 1690,1055 1666,1029 1641,1003 1615,978 1588,954 1560,931 1530,908 1501,887 1470,866 1438,847 1406,829 1373,812 1340,797 1306,783 1272,771 1237,761 1202,752 1167,745 1131,740 1095,737 1060,736 1024,738 988,742 952,748 916,756 880,768 845,781 810,798 775,817 740,840 706,865 673,893 640,925 637,930 639,935 645,942 653,950 665,958 678,967 693,975 709,984 725,992 741,1000 756,1008 770,1014 781,1019 790,1023 796,1026 798,1027 797,1028 795,1032 790,1037 784,1043 777,1050 768,1058 757,1066 745,1073 732,1080 717,1085 700,1088 682,1089 663,1088 643,1084 621,1076 598,1064 572,1046 553,1029 539,1014 529,1002 522,992 515,986 508,984 498,987 468,1000 438,1017 408,1036 377,1058 346,1081 315,1105 284,1130 254,1155 223,1179 192,1202 162,1223 133,1242 104,1258 76,1271 48,1280 21,1284 11,1283 5,1278 3,1271 4,1261 11,1244 23,1223 37,1200 53,1177 69,1154 82,1134 90,1117 93,1105 91,1079 92,1047 95,1009 100,965 110,917 124,864 143,808 168,748 199,687 237,623 283,558 337,493 400,428 473,363 555,300 649,238 649,236 652,232 656,226 663,219 671,209 681,198 692,186 704,173 718,159 733,145 748,130 765,115 782,100 800,86 818,72 836,59 855,46 874,35 893,26 911,18 929,12 946,9 962,8 977,11 974,17 965,33 952,56 938,84 923,114 909,144 899,171 893,193 898,194 911,196 931,199 959,204 992,210 1030,219 1072,229 1118,241 1165,255 1214,272 1264,291 1313,313 1361,337 1406,364 1449,394 1487,427 1523,462 1556,498 1587,535 1615,573 1641,611 1664,649 1685,688 1704,727 1720,765 1734,804 1745,843 1753,881 1759,918 1763,955 1764,992 1762,1027"/>
<polygon class="pen1 brush0" points="424,900 435,909 445,918 454,926 462,934 470,942 479,950 489,958 501,967 475,979 452,991 432,1002 414,1013 397,1024 382,1035 368,1047 353,1058 351,1042 353,1026 360,1009 370,991 382,972 396,951 410,927 424,900 424,900"/>
<polygon class="pen1 brush0" points="629,915 642,901 655,888 669,875 684,863 699,851 715,839 731,827 748,816 764,806 782,796 799,786 816,777 834,769 851,761 868,754 885,747 915,739 945,732 976,727 1006,724 1035,721 1065,720 1094,721 1123,723 1151,726 1178,730 1205,735 1232,741 1257,748 1282,756 1305,764 1328,774 1360,789 1390,804 1417,818 1442,831 1466,845 1488,858 1508,871 1528,884 1547,898 1565,912 1584,927 1602,943 1621,961 1641,979 1662,999 1684,1021 1669,982 1655,943 1641,903 1625,864 1607,824 1585,785 1560,745 1529,706 1498,680 1466,656 1434,633 1402,612 1369,592 1335,574 1301,558 1267,543 1233,530 1198,519 1164,510 1129,503 1094,498 1059,495 1024,494 989,494 954,498 920,503 885,510 851,520 817,532 784,547 751,564 718,583 686,605 654,629 623,656 592,686 562,718 533,753 505,791 477,832 508,837 534,843 556,851 575,860 591,871 605,884 617,899 629,915"/>
<polygon class="pen1 brush0" points="216,996 224,995 232,993 239,989 245,984 250,978 254,971 256,964 257,956 256,948 254,940 250,932 245,926 239,921 232,916 224,914 216,913 208,914 200,916 193,921 186,926 181,932 177,940 175,948 174,956 175,964 177,971 181,978 186,984 193,989 200,993 208,995 216,996"/>
</g>
</svg>
