<?xml version="1.0" encoding="UTF-8" standalone="no"?>
<!DOCTYPE svg PUBLIC "-//W3C//DTD SVG 1.0//EN" "http://www.w3.org/TR/2001/REC-SVG-20010904/DTD/svg10.dtd">
<svg xmlns="http://www.w3.org/2000/svg" xmlns:xlink="http://www.w3.org/1999/xlink" fill-rule="evenodd" height="1.557in" preserveAspectRatio="none" stroke-linecap="round" viewBox="0 0 1989 1557" width="1.989in">
<style type="text/css">
.brush0 { fill: rgb(255,255,255); }
.pen0 { stroke: rgb(0,0,0); stroke-width: 1; stroke-linejoin: round; }
.brush1 { fill: none; }
.pen1 { stroke: none; }
.brush2 { fill: rgb(0,0,0); }
</style>
<g>
<polygon class="pen1 brush2" points="114,70 118,67 123,63 130,59 137,54 146,48 156,43 167,37 179,31 192,26 206,20 221,16 236,12 253,9 271,7 289,6 308,7 322,8 336,11 350,14 365,18 380,23 395,29 411,36 427,44 443,53 459,64 476,75 493,88 510,103 527,119 544,136 562,155 601,200 632,240 656,276 675,308 691,337 705,364 719,389 735,413 754,437 779,461 810,486 851,513 902,542 965,574 1042,611 1135,651 1163,663 1190,674 1218,685 1245,696 1272,707 1298,718 1324,728 1350,738 1376,748 1402,758 1427,768 1451,778 1476,788 1500,797 1523,807 1546,816 1569,826 1591,835 1613,845 1635,854 1655,863 1676,873 1696,882 1715,891 1734,901 1752,910 1770,920 1787,929 1803,939 1819,949 1834,959 1849,969 1874,988 1897,1008 1917,1028 1934,1049 1949,1070 1961,1092 1971,1114 1977,1138 1981,1159 1982,1180 1981,1201 1978,1224 1973,1247 1966,1271 1956,1296 1943,1322 1936,1331 1925,1340 1910,1349 1890,1359 1868,1369 1843,1380 1817,1389 1789,1399 1761,1408 1732,1417 1704,1425 1678,1432 1653,1437 1630,1442 1610,1445 1594,1447 1598,1445 1610,1438 1627,1428 1647,1417 1669,1403 1691,1390 1710,1377 1724,1366 1723,1366 1719,1367 1713,1369 1705,1371 1695,1374 1684,1376 1672,1379 1659,1383 1646,1386 1632,1389 1618,1392 1605,1395 1592,1398 1581,1400 1570,1402 1561,1403 1564,1401 1573,1396 1586,1388 1603,1378 1623,1366 1644,1353 1665,1340 1686,1327 1681,1328 1669,1332 1650,1338 1629,1344 1606,1350 1583,1356 1565,1360 1551,1361 1554,1360 1561,1356 1572,1349 1586,1341 1604,1331 1623,1319 1645,1307 1667,1294 1689,1280 1712,1267 1733,1254 1754,1241 1772,1229 1787,1218 1800,1209 1808,1202 1803,1203 1795,1206 1785,1209 1773,1214 1758,1219 1741,1225 1721,1232 1700,1240 1677,1247 1652,1256 1625,1264 1596,1273 1566,1282 1535,1291 1502,1300 1467,1308 1432,1316 1395,1324 1357,1331 1319,1337 1279,1343 1239,1348 1198,1352 1156,1355 1114,1356 1072,1357 1029,1356 986,1353 943,1349 900,1344 857,1336 814,1327 862,1432 858,1431 846,1428 830,1424 810,1418 788,1412 768,1404 750,1396 737,1388 741,1391 752,1400 768,1414 789,1430 811,1448 833,1466 855,1482 873,1496 885,1557 585,1432 585,1295 579,1294 564,1290 540,1281 509,1268 474,1249 435,1222 394,1188 353,1144 313,1091 277,1026 246,950 221,860 204,756 197,638 202,503 219,351 217,351 211,351 201,351 188,350 173,348 156,346 138,343 119,338 100,332 81,325 63,316 47,305 32,293 20,277 11,260 6,240 4,228 4,215 6,201 9,186 13,170 20,153 28,134 38,115 49,100 61,89 73,81 86,76 97,73 106,71 112,70 114,70 114,70"/>
<polygon class="pen1 brush2" points="23,340 18,385 19,442 25,507 35,575 49,645 64,711 81,771 98,820 113,855 123,876 131,885 135,886 137,879 137,868 135,854 132,841 113,769 100,692 93,615 89,541 89,477 90,425 91,390 92,378 80,370 68,362 57,356 46,350 37,346 29,343 25,341 23,340 23,340"/>
<polygon class="pen1 brush2" points="361,1196 351,1305 148,1452 487,1386 503,1300 482,1287 462,1274 442,1261 423,1248 405,1234 389,1221 374,1209 361,1196"/>
<polygon class="pen1 brush0" points="189,171 196,170 203,168 209,165 214,160 218,155 221,149 223,142 224,134 223,127 221,120 218,114 214,108 209,103 203,100 196,98 189,97 182,98 175,100 169,103 163,108 158,114 155,120 153,127 152,134 153,142 155,149 158,155 163,160 169,165 175,168 182,170 189,171"/>
<polygon class="pen1 brush0" points="376,374 321,328 321,317 379,317 334,283 334,274 395,260 346,236 346,227 402,198 358,186 358,175 420,192 423,202 362,233 415,259 413,266 348,281 402,320 399,327 338,327 383,365 376,374"/>
</g>
</svg>
