<?xml version="1.0" encoding="UTF-8" standalone="no"?>
<!DOCTYPE svg PUBLIC "-//W3C//DTD SVG 1.0//EN" "http://www.w3.org/TR/2001/REC-SVG-20010904/DTD/svg10.dtd">
<svg xmlns="http://www.w3.org/2000/svg" xmlns:xlink="http://www.w3.org/1999/xlink" fill-rule="evenodd" height="0.55in" preserveAspectRatio="none" stroke-linecap="round" viewBox="0 0 1984 550" width="1.984in">
<style type="text/css">
.brush0 { fill: rgb(255,255,255); }
.pen0 { stroke: rgb(0,0,0); stroke-width: 1; stroke-linejoin: round; }
.brush1 { fill: none; }
.pen1 { stroke: none; }
.brush2 { fill: rgb(0,0,0); }
</style>
<g>
<polygon class="pen1 brush2" points="1186,108 1190,109 1201,111 1217,115 1240,119 1266,125 1297,131 1330,138 1365,146 1401,153 1437,161 1472,168 1507,175 1539,182 1567,187 1592,192 1612,196 1614,194 1621,189 1633,182 1648,172 1666,161 1688,148 1712,134 1738,119 1767,105 1796,91 1827,77 1859,65 1891,55 1922,46 1954,40 1984,37 1982,39 1977,45 1968,54 1957,66 1944,80 1929,96 1913,114 1896,132 1879,151 1861,169 1845,187 1829,204 1814,219 1802,232 1792,243 1784,250 1785,252 1790,256 1796,263 1805,273 1815,285 1827,298 1840,313 1853,328 1867,345 1881,362 1895,378 1908,395 1921,411 1932,426 1942,441 1950,453 1947,452 1938,450 1923,446 1905,441 1882,435 1857,427 1829,418 1800,407 1770,395 1740,381 1711,366 1684,350 1658,332 1636,313 1617,293 1603,271 1597,271 1587,272 1572,274 1553,277 1532,280 1508,285 1483,290 1457,296 1430,302 1404,308 1378,315 1354,322 1332,329 1313,336 1297,342 1285,349 1336,396 1335,396 1330,397 1324,398 1315,399 1304,402 1291,404 1277,408 1261,412 1203,344 1190,349 1247,416 1240,417 1233,419 1225,421 1218,423 1210,425 1203,427 1195,430 1187,432 1139,373 1125,379 1173,436 1166,438 1159,441 1152,443 1146,446 1139,448 1132,451 1125,453 1118,456 1074,403 1059,409 1105,462 1098,465 1091,468 1084,471 1077,475 1071,478 1065,482 1060,485 1055,489 1008,433 994,439 1044,497 1039,502 1035,507 1031,512 1028,517 906,442 904,442 898,444 888,445 876,447 861,450 844,452 826,455 806,457 786,459 766,460 747,461 728,461 711,460 696,458 683,455 673,450 673,451 673,454 674,458 677,464 681,472 689,481 699,492 714,504 669,550 666,547 656,539 643,527 628,512 612,495 598,478 587,461 581,446 579,446 573,446 564,446 551,446 536,445 518,445 498,444 477,442 454,440 431,437 407,434 383,430 359,424 335,418 313,411 292,403 296,399 304,388 314,372 322,350 326,326 320,300 303,273 271,246 273,250 279,261 285,278 291,298 292,321 288,346 276,369 254,391 252,391 245,390 234,390 221,388 204,387 185,384 165,382 144,378 122,374 100,370 79,364 59,358 40,351 24,343 10,335 0,325 24,304 4,278 8,274 14,270 20,265 27,259 36,253 46,247 57,240 69,233 83,226 98,218 115,210 133,203 152,195 173,187 196,179 221,171 247,163 275,155 305,148 337,140 371,133 407,127 444,121 484,115 527,110 571,105 617,101 666,98 718,95 771,93 827,91 886,91 886,89 888,85 892,78 897,70 905,61 916,51 931,42 949,33 954,33 959,35 965,39 971,44 977,49 981,53 984,57 985,58 983,59 979,60 974,64 967,68 960,74 955,81 951,89 949,99 953,99 964,98 980,96 1000,95 1023,94 1046,92 1069,91 1089,91 1091,88 1096,78 1105,65 1116,50 1131,34 1148,19 1168,7 1190,0 1244,58 1242,58 1237,59 1230,62 1221,66 1212,72 1202,81 1193,93 1186,108"/>
<polygon class="pen1 brush0" points="113,298 122,296 129,291 134,283 136,274 134,265 129,257 122,252 113,250 104,252 97,257 91,265 89,274 91,283 97,291 104,296 113,298"/>
<polygon class="pen1 brush0" points="399,285 413,287 426,289 439,291 452,292 464,294 476,295 488,295 499,295 510,295 521,295 532,294 542,292 552,290 562,288 572,285 582,281 578,275 567,278 557,281 546,283 536,285 526,287 515,288 504,289 494,289 483,289 472,289 460,289 449,288 437,287 425,286 412,284 399,283 399,285"/>
<polygon class="pen1 brush0" points="395,297 408,303 421,308 431,312 441,316 451,320 459,323 468,325 477,328 486,330 496,331 506,332 517,333 530,334 545,335 561,335 579,335 575,327 560,328 547,328 534,327 522,327 510,326 499,325 489,323 478,321 468,319 459,316 449,313 439,310 429,306 418,302 407,298 396,294 395,297"/>
<polygon class="pen1 brush0" points="385,307 398,315 410,323 421,329 432,336 441,341 450,347 460,351 469,356 478,360 488,363 499,366 511,369 524,372 538,374 554,376 572,378 572,368 554,366 538,364 523,362 510,359 498,356 487,353 477,350 467,346 458,343 449,338 440,334 431,329 421,323 410,317 399,311 386,304 385,307"/>
<polygon class="pen1 brush0" points="372,314 385,325 398,337 411,348 425,359 443,370 464,382 491,395 524,408 528,399 501,388 478,379 459,370 443,361 427,352 411,341 394,328 373,312 372,314"/>
</g>
</svg>
