<?xml version="1.0" encoding="UTF-8" standalone="no"?>
<!DOCTYPE svg PUBLIC "-//W3C//DTD SVG 1.0//EN" "http://www.w3.org/TR/2001/REC-SVG-20010904/DTD/svg10.dtd">
<svg xmlns="http://www.w3.org/2000/svg" xmlns:xlink="http://www.w3.org/1999/xlink" fill-rule="evenodd" height="1.987in" preserveAspectRatio="none" stroke-linecap="round" viewBox="0 0 1943 1987" width="1.943in">
<style type="text/css">
.brush0 { fill: rgb(255,255,255); }
.pen0 { stroke: rgb(0,0,0); stroke-width: 1; stroke-linejoin: round; }
.brush1 { fill: none; }
.pen1 { stroke: none; }
.brush2 { fill: rgb(0,0,0); }
</style>
<g>
<polygon class="pen1 brush2" points="179,1507 177,1487 178,1469 184,1451 192,1436 204,1422 220,1411 238,1402 259,1396 257,1395 253,1390 247,1384 239,1375 231,1363 223,1349 216,1333 211,1316 208,1296 209,1274 213,1251 221,1227 236,1201 256,1174 283,1145 317,1116 329,1107 341,1098 354,1091 366,1083 379,1077 392,1071 405,1066 418,1061 432,1057 446,1054 460,1051 475,1048 490,1047 505,1045 521,1044 537,1044 529,1065 525,1085 525,1103 528,1119 533,1133 540,1145 549,1155 558,1163 569,1167 582,1168 596,1168 611,1166 626,1162 642,1156 658,1150 674,1143 690,1135 706,1126 721,1118 735,1109 747,1101 759,1094 769,1087 777,1081 796,1085 814,1089 831,1093 848,1097 864,1101 879,1105 894,1109 907,1112 920,1116 932,1119 943,1122 953,1125 962,1128 970,1131 977,1133 983,1135 989,1137 998,1141 1008,1145 1021,1150 1035,1156 1051,1163 1068,1171 1087,1179 1106,1189 1127,1199 1149,1210 1172,1222 1195,1235 1218,1248 1242,1262 1266,1277 1251,1284 1237,1291 1223,1298 1208,1305 1194,1312 1180,1320 1166,1327 1152,1335 1138,1343 1124,1350 1110,1358 1096,1365 1081,1372 1067,1379 1053,1386 1039,1393 1023,1384 1008,1376 993,1368 979,1361 964,1354 950,1347 937,1341 923,1335 910,1330 897,1326 885,1322 873,1318 861,1315 849,1312 838,1310 827,1308 827,1311 826,1319 825,1332 823,1348 820,1366 816,1387 809,1409 802,1431 791,1453 779,1473 764,1492 746,1507 725,1518 701,1525 673,1526 641,1521 638,1545 631,1563 621,1576 607,1585 591,1590 573,1591 552,1590 531,1587 508,1581 485,1575 462,1567 440,1560 418,1553 398,1547 380,1542 364,1539 355,1545 346,1562 337,1587 330,1617 323,1648 318,1678 313,1704 310,1722 308,1735 306,1748 304,1761 301,1773 298,1783 293,1790 286,1793 277,1793 270,1791 264,1788 260,1784 257,1780 41,1812 40,1798 256,1766 254,1755 255,1745 257,1733 260,1717 262,1701 265,1682 268,1661 273,1638 279,1611 285,1583 293,1551 301,1517 307,1501 316,1488 326,1478 339,1470 352,1465 367,1461 381,1459 396,1459 411,1459 425,1461 438,1463 449,1465 458,1467 466,1469 470,1470 472,1471 472,1470 471,1468 471,1465 472,1460 470,1460 465,1458 457,1456 447,1454 434,1452 420,1451 405,1449 390,1449 374,1450 358,1452 342,1457 328,1463 315,1471 304,1482 296,1495 290,1512 283,1535 277,1557 273,1578 269,1598 269,1597 269,1596 269,1596 269,1596 267,1598 262,1602 254,1604 242,1602 232,1604 218,1604 200,1600 180,1592 159,1577 137,1555 116,1523 97,1481 92,1472 85,1460 76,1447 64,1434 50,1421 35,1409 18,1401 0,1396 3,1383 22,1388 40,1397 57,1409 73,1423 86,1438 98,1452 106,1464 111,1473 129,1513 146,1542 162,1562 176,1575 190,1582 202,1585 213,1586 223,1586 216,1582 209,1577 203,1570 197,1562 192,1552 187,1539 183,1525 179,1507 179,1507"/>
<polygon class="pen1 brush2" points="1344,1329 1333,1335 1321,1341 1309,1348 1296,1356 1282,1364 1267,1372 1253,1380 1238,1389 1223,1397 1208,1405 1193,1413 1178,1421 1164,1428 1151,1435 1137,1441 1125,1446 1144,1458 1163,1470 1182,1481 1200,1493 1217,1504 1234,1515 1251,1525 1268,1536 1284,1546 1300,1555 1315,1565 1330,1574 1345,1582 1360,1590 1374,1598 1388,1605 1386,1539 1383,1472 1380,1409 1377,1356 1371,1351 1367,1348 1364,1345 1361,1342 1358,1340 1354,1337 1350,1333 1344,1329 1344,1329"/>
<polygon class="pen1 brush2" points="1445,1407 1473,1436 1497,1465 1515,1495 1528,1524 1533,1553 1531,1581 1520,1609 1500,1635 1496,1638 1492,1639 1487,1640 1480,1640 1473,1640 1466,1638 1457,1636 1448,1633 1447,1580 1446,1523 1446,1464 1445,1407 1445,1407"/>
<polygon class="pen1 brush2" points="416,1568 411,1566 406,1564 401,1562 396,1561 390,1560 384,1559 378,1558 372,1558 365,1560 359,1569 353,1583 348,1602 342,1623 337,1645 333,1669 328,1691 340,1708 352,1724 364,1739 374,1752 383,1763 389,1771 393,1776 395,1778 422,1766 403,1728 390,1697 382,1673 378,1654 377,1641 376,1633 376,1628 374,1627 389,1619 401,1610 408,1601 413,1593 416,1585 417,1578 417,1572 416,1568 416,1568"/>
<polygon class="pen1 brush2" points="789,1051 841,1063 890,1072 936,1077 981,1080 1023,1080 1063,1078 1100,1073 1136,1066 1170,1056 1202,1045 1231,1032 1259,1018 1286,1002 1310,985 1333,966 1355,947 1375,927 1393,907 1411,886 1426,865 1441,844 1455,823 1467,802 1478,781 1489,761 1498,742 1507,724 1514,707 1521,691 1528,677 1534,664 1539,653 1550,626 1561,590 1572,549 1582,502 1591,451 1598,398 1602,344 1604,291 1603,250 1600,211 1595,175 1587,141 1576,112 1563,87 1547,66 1527,52 1509,43 1491,37 1472,32 1454,29 1435,28 1416,29 1397,31 1378,35 1359,41 1340,48 1321,57 1302,67 1283,78 1264,90 1245,104 1226,119 1194,146 1163,175 1132,207 1101,240 1070,276 1040,312 1010,350 981,388 953,427 925,466 898,504 872,543 847,580 822,616 799,650 777,683 743,732 712,779 683,822 656,863 632,902 611,937 592,970 576,1000 563,1027 553,1052 546,1074 542,1093 542,1110 544,1123 551,1135 560,1143 573,1149 587,1151 604,1149 622,1145 640,1139 659,1131 678,1122 697,1112 716,1101 733,1091 748,1080 762,1071 773,1063 782,1057 787,1052 789,1051 789,1051"/>
<polygon class="pen1 brush0" points="1476,424 1468,417 618,1073 1405,170 1396,163 584,1105 827,920 827,923 829,924 836,927 847,931 863,936 883,940 908,942 937,943 972,940 1011,934 1055,923 1105,907 1159,885 1218,855 1283,818 1353,772 1428,717 1426,710 1356,762 1291,805 1230,841 1173,870 1122,893 1074,910 1031,922 992,930 958,934 927,936 901,935 879,932 861,928 847,924 836,920 830,917 1476,424 1476,424"/>
<polygon class="pen1 brush2" points="862,1366 851,1420 862,1432 874,1441 887,1449 902,1455 917,1460 933,1463 950,1465 967,1466 984,1465 1002,1464 1020,1461 1037,1458 1054,1454 1070,1450 1086,1445 1101,1440 1117,1434 1134,1426 1153,1417 1172,1407 1193,1396 1214,1385 1235,1374 1256,1362 1276,1351 1295,1341 1313,1332 1330,1323 1345,1317 1358,1312 1368,1309 1375,1308 1388,1361 1396,1475 1400,1603 1401,1700 1402,1729 1405,1751 1409,1765 1415,1774 1422,1778 1428,1780 1434,1779 1438,1778 1441,1777 1444,1777 1445,1774 1446,1768 1943,1768 1942,1754 1446,1753 1445,1746 1444,1738 1441,1725 1438,1705 1434,1665 1432,1607 1431,1539 1431,1467 1429,1397 1426,1335 1419,1288 1409,1262 1402,1257 1392,1254 1381,1253 1368,1255 1353,1259 1336,1264 1317,1271 1297,1280 1275,1291 1252,1302 1227,1315 1201,1329 1173,1344 1144,1360 1114,1376 1083,1393 1052,1408 1024,1418 999,1424 976,1427 956,1427 938,1424 922,1419 908,1413 897,1406 887,1398 879,1390 872,1383 868,1376 864,1371 863,1367 862,1366 862,1366"/>
<polygon class="pen1 brush2" points="814,1484 773,1525 774,1525 776,1526 780,1528 785,1529 793,1531 803,1534 815,1536 830,1538 847,1540 867,1542 890,1543 916,1544 945,1544 978,1543 1014,1541 1054,1539 1071,1540 1085,1545 1098,1553 1111,1567 1122,1587 1133,1614 1144,1648 1155,1690 1167,1733 1178,1766 1189,1792 1198,1810 1208,1822 1217,1829 1227,1831 1237,1829 1239,1828 1240,1826 1242,1825 1243,1824 1719,1987 1723,1974 1246,1810 1248,1795 1246,1774 1241,1749 1234,1721 1225,1692 1216,1663 1208,1636 1200,1612 1194,1587 1189,1563 1183,1541 1174,1521 1161,1505 1143,1495 1118,1489 1084,1491 1065,1494 1045,1496 1025,1498 1004,1499 984,1500 964,1500 945,1500 926,1500 907,1499 890,1498 874,1496 859,1495 845,1492 833,1490 823,1487 814,1484"/>
<polygon class="pen1 brush0" points="233,1501 240,1500 246,1496 250,1490 252,1483 250,1476 246,1470 240,1466 233,1464 227,1466 222,1470 218,1476 216,1483 218,1490 222,1496 227,1500 233,1501"/>
</g>
</svg>
