<?xml version="1.0" encoding="UTF-8" standalone="no"?>
<!DOCTYPE svg PUBLIC "-//W3C//DTD SVG 1.0//EN" "http://www.w3.org/TR/2001/REC-SVG-20010904/DTD/svg10.dtd">
<svg xmlns="http://www.w3.org/2000/svg" xmlns:xlink="http://www.w3.org/1999/xlink" fill-rule="evenodd" height="1.379in" preserveAspectRatio="none" stroke-linecap="round" viewBox="0 0 1990 1379" width="1.99in">
<style type="text/css">
.brush0 { fill: rgb(255,255,255); }
.pen0 { stroke: rgb(0,0,0); stroke-width: 1; stroke-linejoin: round; }
.brush1 { fill: none; }
.pen1 { stroke: none; }
.brush2 { fill: rgb(0,0,0); }
</style>
<g>
<polygon class="pen1 brush2" points="1178,683 1157,689 1135,695 1113,701 1090,706 1066,711 1043,715 1019,718 995,721 970,723 946,724 921,725 897,725 872,724 848,722 824,720 800,716 776,712 753,707 731,700 708,693 687,685 666,675 645,665 626,653 607,640 589,626 572,611 556,594 541,576 527,557 514,536 503,514 490,485 477,459 466,434 455,411 445,390 436,371 426,354 417,338 408,324 399,311 390,300 380,290 370,282 359,275 347,269 334,265 333,266 330,270 325,276 319,284 310,294 301,304 290,315 279,327 266,338 253,349 238,359 224,368 209,376 194,382 179,385 164,386 162,388 157,392 148,399 137,407 124,416 110,425 94,433 78,439 69,441 60,443 51,443 43,442 35,440 27,436 20,431 14,423 6,406 3,389 4,373 9,358 14,345 21,333 29,321 39,308 48,296 58,284 68,273 77,261 90,242 100,222 111,202 122,181 135,160 153,138 176,117 206,95 207,92 208,85 212,74 217,60 224,45 233,29 245,14 260,0 271,82 280,77 290,72 300,66 311,60 323,54 335,48 347,42 360,37 373,31 386,26 399,22 412,18 425,15 438,14 450,13 462,13 461,14 456,18 450,23 443,31 434,39 424,49 414,60 405,71 406,71 408,69 412,68 418,65 425,63 433,60 443,57 454,53 466,50 480,47 495,45 511,43 529,41 547,40 566,40 587,41 585,42 580,43 572,47 563,51 553,57 543,64 535,72 529,82 530,82 532,81 536,80 541,78 547,77 555,75 564,74 575,73 587,72 600,72 614,73 629,74 646,76 664,80 682,85 702,91 700,91 695,91 686,93 677,95 666,98 655,104 645,111 637,121 639,121 643,121 650,122 659,123 670,124 683,126 697,128 711,130 727,133 742,136 758,140 773,145 787,150 801,155 813,162 823,169 821,169 817,168 809,167 799,167 786,169 772,173 757,180 740,190 741,190 744,191 748,192 754,194 763,196 773,200 785,205 799,210 815,218 833,226 853,236 875,248 899,262 926,277 954,295 985,315 991,316 1005,318 1025,319 1051,321 1081,323 1116,326 1153,331 1193,337 1233,345 1274,355 1314,368 1353,383 1389,401 1421,423 1450,448 1473,477 1475,476 1482,474 1493,470 1507,467 1524,463 1544,460 1566,458 1589,458 1614,460 1640,465 1666,473 1692,485 1718,501 1742,522 1766,549 1787,581 1797,599 1804,615 1811,631 1817,645 1822,658 1827,670 1833,681 1840,691 1849,699 1859,707 1872,713 1888,718 1907,722 1930,725 1958,726 1990,727 1990,728 1988,732 1984,737 1977,742 1964,747 1944,750 1918,751 1882,748 1881,748 1878,747 1875,747 1874,748 1876,751 1883,755 1897,762 1919,773 1917,774 1910,776 1899,778 1884,780 1867,780 1848,778 1826,773 1804,764 1803,764 1801,764 1800,766 1800,768 1803,771 1810,777 1824,784 1844,794 1842,794 1838,794 1831,794 1822,793 1810,792 1798,789 1784,786 1769,781 1754,775 1738,767 1723,757 1709,745 1695,730 1682,713 1671,693 1662,670 1652,634 1645,598 1636,564 1626,535 1610,513 1586,502 1552,505 1506,523 1528,537 1540,574 1545,627 1544,688 1539,750 1530,806 1521,848 1513,869 1517,871 1522,877 1527,886 1536,897 1551,910 1572,923 1603,936 1645,947 1712,1241 1710,1247 1705,1261 1698,1280 1692,1300 1634,1300 1655,1246 1564,1006 1524,992 1485,974 1448,954 1413,932 1379,907 1347,880 1317,850 1290,819 1265,786 1242,752 1223,715 1206,678 1192,639 1181,599 1173,558 1169,517 1161,533 1162,583 1168,641 1178,683 1178,683"/>
<polygon class="pen1 brush2" points="533,784 530,798 525,814 519,829 513,842 516,844 522,848 532,854 544,861 557,867 569,872 579,874 587,873 589,867 584,856 576,841 565,825 554,810 543,797 536,787 533,784 533,784"/>
<polygon class="pen1 brush2" points="511,706 512,719 511,734 509,748 506,760 509,761 515,763 525,767 537,770 549,773 560,775 570,775 576,772 576,766 570,757 560,747 548,735 534,724 523,715 514,708 511,706 511,706"/>
<polygon class="pen1 brush2" points="507,562 507,563 505,566 501,571 494,577 484,583 469,589 450,596 425,601 405,602 387,600 369,596 353,593 337,591 322,592 307,599 293,612 286,622 282,633 282,645 285,657 290,670 298,683 308,698 321,714 336,734 347,752 355,767 360,780 364,791 368,800 371,807 375,811 388,812 405,815 425,819 446,823 465,827 482,831 493,834 497,835 506,815 512,797 515,785 516,781 500,782 485,781 470,779 457,776 446,773 437,771 431,769 429,768 426,754 422,738 416,724 409,710 403,697 397,688 393,681 392,679 402,680 415,682 432,683 451,684 471,685 494,686 516,687 539,688 562,689 583,690 603,690 621,691 635,691 646,692 653,692 656,692 626,680 601,665 579,648 561,631 545,613 531,595 518,578 507,562 507,562"/>
<polygon class="pen1 brush2" points="259,638 248,617 243,599 244,582 253,566 267,553 282,546 297,544 313,546 330,549 348,553 366,555 386,554 411,548 431,542 447,534 459,527 468,520 473,515 476,511 477,510 483,520 489,531 495,542 500,550 497,552 489,557 477,564 461,572 442,579 420,583 396,584 371,580 360,577 348,575 336,573 324,572 311,574 300,577 288,583 278,592 270,603 263,616 259,628 259,638"/>
<polygon class="pen1 brush2" points="1618,1318 1584,1372 1586,1372 1593,1373 1602,1374 1614,1375 1627,1375 1639,1375 1651,1374 1661,1372 1664,1366 1671,1352 1677,1335 1679,1321 1618,1318"/>
<polygon class="pen1 brush2" points="1520,1281 1486,1335 1488,1335 1495,1336 1504,1337 1516,1338 1529,1339 1541,1338 1553,1337 1563,1335 1566,1329 1573,1315 1580,1299 1582,1285 1520,1281"/>
<polygon class="pen1 brush0" points="196,237 207,235 216,229 221,220 223,210 221,199 216,190 207,184 196,182 185,184 177,190 171,199 169,210 171,220 177,229 185,235 196,237"/>
<polygon class="pen1 brush2" points="1615,1209 1536,1029 1496,1019 1458,1005 1422,988 1389,968 1359,946 1331,922 1305,897 1282,871 1261,846 1243,820 1226,795 1213,772 1202,750 1193,731 1186,715 1182,702 1178,706 1172,709 1165,709 1158,707 1168,741 1180,774 1195,806 1211,835 1230,863 1249,890 1270,915 1292,937 1314,958 1338,977 1361,994 1385,1009 1408,1022 1432,1033 1454,1041 1476,1047 1557,1213 1536,1267 1594,1267 1601,1247 1608,1229 1613,1215 1615,1209"/>
<polygon class="pen1 brush2" points="427,696 431,705 434,717 437,730 439,741 445,744 450,746 456,748 461,749 467,750 472,750 478,750 484,750 489,737 492,724 492,713 490,705 482,707 474,707 465,707 456,705 448,703 440,700 433,698 427,696"/>
</g>
</svg>
