<?xml version="1.0" encoding="UTF-8" standalone="no"?>
<!DOCTYPE svg PUBLIC "-//W3C//DTD SVG 1.0//EN" "http://www.w3.org/TR/2001/REC-SVG-20010904/DTD/svg10.dtd">
<svg xmlns="http://www.w3.org/2000/svg" xmlns:xlink="http://www.w3.org/1999/xlink" fill-rule="evenodd" height="0.903in" preserveAspectRatio="none" stroke-linecap="round" viewBox="0 0 1953 903" width="1.953in">
<style type="text/css">
.brush0 { fill: rgb(255,255,255); }
.pen0 { stroke: rgb(0,0,0); stroke-width: 1; stroke-linejoin: round; }
.brush1 { fill: none; }
.pen1 { stroke: none; }
.brush2 { fill: rgb(0,0,0); }
</style>
<g>
<polygon class="pen1 brush2" points="537,282 534,279 524,272 510,264 491,256 469,251 444,252 417,260 389,278 385,277 376,274 361,270 344,269 325,271 305,278 287,292 272,315 88,397 86,396 81,395 73,393 64,390 53,388 42,386 31,386 21,387 12,391 7,399 6,412 11,430 14,436 18,442 23,448 28,454 103,454 129,423 200,477 217,448 261,447 217,470 200,498 129,444 103,475 49,475 59,481 69,487 80,493 91,498 102,502 114,507 126,510 139,514 151,517 164,519 177,522 189,524 202,525 215,527 228,528 240,529 256,531 272,535 288,539 304,544 319,550 334,557 349,563 363,570 377,577 390,584 404,590 416,596 429,602 441,607 453,610 464,613 475,615 487,617 499,619 510,620 522,621 534,622 545,622 557,621 568,621 578,619 588,618 598,616 607,613 615,610 622,606 629,602 629,600 630,596 632,589 635,580 639,570 645,559 651,547 659,536 669,525 680,516 693,508 708,502 725,498 745,498 766,501 790,509 784,508 769,507 747,508 722,513 696,525 673,547 655,579 646,626 643,643 639,657 634,668 627,677 619,684 610,691 600,697 588,703 588,705 590,709 593,714 598,721 606,728 616,734 629,739 646,742 650,740 661,734 677,726 696,715 716,702 737,688 755,672 770,657 773,657 781,658 794,659 811,661 831,662 854,664 879,667 906,669 932,671 959,673 985,674 1010,676 1033,677 1052,678 1069,678 1081,678 1079,675 1074,665 1067,651 1062,633 1058,612 1058,590 1064,567 1078,544 1093,528 1110,516 1128,509 1146,506 1164,507 1181,512 1196,521 1210,534 1207,532 1199,527 1187,522 1172,518 1154,517 1135,521 1115,533 1096,553 1089,565 1084,577 1081,591 1080,605 1081,619 1084,633 1089,648 1096,662 1105,676 1116,690 1129,703 1144,716 1161,727 1181,738 1202,747 1226,755 1255,763 1280,768 1300,772 1316,774 1326,773 1331,770 1331,764 1325,755 1314,743 1299,728 1283,712 1268,696 1257,680 1251,665 1253,654 1265,646 1276,643 1290,642 1308,640 1328,639 1350,639 1374,639 1401,638 1428,638 1457,637 1487,636 1517,634 1548,632 1578,629 1608,625 1638,619 1666,613 1679,609 1693,605 1707,601 1721,595 1735,589 1749,583 1763,576 1777,568 1790,560 1804,552 1817,543 1830,533 1843,523 1855,513 1867,502 1878,491 1894,473 1909,454 1921,434 1932,413 1940,391 1945,369 1948,346 1947,322 1944,295 1940,269 1936,244 1930,220 1923,197 1915,175 1905,155 1894,135 1882,117 1868,100 1852,84 1835,69 1816,55 1795,43 1772,31 1747,21 1738,18 1729,16 1719,13 1709,11 1698,9 1687,8 1676,7 1664,6 1652,6 1640,5 1628,6 1615,6 1603,7 1590,8 1578,10 1565,12 1550,15 1535,19 1520,24 1506,29 1491,35 1478,41 1464,49 1452,57 1440,65 1428,75 1417,85 1408,97 1399,109 1391,121 1384,135 1378,150 1380,149 1386,147 1395,143 1406,139 1418,135 1432,130 1445,126 1457,123 1521,159 1571,113 1619,174 1686,163 1679,234 1747,278 1686,315 1690,377 1615,329 1549,382 1497,319 1417,353 1386,271 1285,298 1210,223 1129,258 1065,198 984,255 909,203 825,262 741,214 669,271 601,231 537,282 537,282"/>
<polygon class="pen1 brush2" points="572,710 573,712 577,716 582,722 589,730 597,737 605,745 614,750 622,754 576,828 575,788 521,843 552,775 436,822 531,750 424,759 527,730 457,697 572,710 572,710"/>
<polygon class="pen1 brush2" points="1223,769 1225,770 1230,772 1239,775 1249,779 1261,782 1274,785 1288,787 1301,788 1227,887 1224,848 1170,903 1203,836 1086,882 1182,809 1075,819 1177,789 1106,758 1223,769"/>
<polygon class="pen1 brush0" points="335,350 343,348 349,344 353,337 355,329 353,321 349,315 343,311 335,309 326,311 320,315 315,321 314,329 315,337 320,344 326,348 335,350"/>
</g>
</svg>
