<?xml version="1.0" encoding="UTF-8" standalone="no"?>
<!DOCTYPE svg PUBLIC "-//W3C//DTD SVG 1.0//EN" "http://www.w3.org/TR/2001/REC-SVG-20010904/DTD/svg10.dtd">
<svg xmlns="http://www.w3.org/2000/svg" xmlns:xlink="http://www.w3.org/1999/xlink" fill-rule="evenodd" height="1.475in" preserveAspectRatio="none" stroke-linecap="round" viewBox="0 0 1945 1475" width="1.945in">
<style type="text/css">
.brush0 { fill: rgb(255,255,255); }
.pen0 { stroke: rgb(0,0,0); stroke-width: 1; stroke-linejoin: round; }
.brush1 { fill: none; }
.pen1 { stroke: none; }
.brush2 { fill: rgb(0,0,0); }
</style>
<g>
<polygon class="pen1 brush2" points="34,591 101,570 102,569 104,564 107,558 113,549 120,538 129,525 139,510 152,494 167,476 184,457 203,438 224,417 248,396 275,375 304,353 336,332 370,311 408,290 448,270 492,250 538,232 588,215 642,199 698,185 759,173 823,163 890,155 962,149 1037,146 1116,145 1199,148 1287,154 1288,152 1291,147 1295,140 1302,130 1309,118 1318,106 1329,92 1340,78 1352,64 1365,50 1379,37 1394,26 1409,17 1424,10 1439,6 1455,5 1328,165 1342,168 1469,6 1474,8 1479,10 1484,13 1489,16 1493,19 1497,23 1501,26 1504,30 1385,183 1396,189 1511,43 1516,66 1512,90 1503,115 1489,139 1473,160 1456,178 1442,191 1432,198 1433,199 1435,201 1438,204 1444,206 1452,208 1463,209 1478,209 1495,205 1517,199 1543,190 1573,176 1608,157 1648,133 1694,103 1746,67 1804,23 1838,107 1726,155 1732,168 1844,120 1871,185 1761,219 1767,235 1877,198 1898,249 1777,287 1780,303 1902,262 1945,361 1942,361 1934,360 1921,359 1903,358 1882,357 1859,355 1833,353 1805,350 1776,348 1747,345 1718,342 1691,339 1664,336 1640,333 1619,330 1601,327 1606,330 1618,338 1634,351 1652,367 1668,386 1681,407 1686,429 1681,452 1544,324 1544,343 1675,462 1673,465 1670,468 1666,471 1662,473 1660,475 1657,478 1653,480 1649,483 1526,367 1526,384 1638,487 1624,490 1609,491 1594,489 1578,484 1563,476 1549,463 1535,446 1523,424 1525,432 1530,454 1536,489 1543,536 1549,592 1552,656 1553,726 1549,801 1539,879 1522,958 1497,1037 1462,1114 1416,1188 1358,1256 1288,1317 1202,1370 1178,1382 1154,1393 1130,1404 1107,1413 1083,1422 1059,1430 1036,1438 1012,1445 989,1451 965,1456 942,1460 918,1464 895,1467 871,1469 848,1471 824,1472 806,1472 787,1472 769,1472 750,1471 731,1469 712,1467 693,1465 675,1462 655,1459 636,1456 617,1452 598,1448 578,1443 559,1438 539,1432 519,1426 472,1411 425,1392 378,1371 333,1346 290,1318 249,1286 211,1251 176,1212 146,1170 120,1123 99,1073 84,1019 75,960 72,898 77,831 90,760 44,698 78,654 34,591"/>
<polygon class="pen1 brush0" points="338,553 346,552 353,550 360,546 365,541 370,535 374,528 376,521 377,513 376,505 374,497 370,490 365,484 360,479 353,475 346,473 338,472 330,473 322,475 315,479 309,484 304,490 300,497 298,505 297,513 298,521 300,528 304,535 309,541 315,546 322,550 330,552 338,553"/>
<polygon class="pen1 brush0" points="749,925 753,1056 814,1046 749,925"/>
<polygon class="pen1 brush0" points="872,898 905,1039 969,1016 872,898"/>
<polygon class="pen1 brush0" points="1013,847 1050,972 1107,946 1013,847"/>
<polygon class="pen1 brush0" points="1145,774 1190,882 1237,855 1145,774"/>
<polygon class="pen1 brush0" points="1226,739 1300,810 1328,773 1226,739"/>
<polygon class="pen1 brush0" points="1324,652 1378,720 1408,692 1324,652"/>
<polygon class="pen1 brush0" points="254,796 202,847 229,868 254,796"/>
<polygon class="pen1 brush0" points="350,851 293,916 327,939 350,851"/>
<polygon class="pen1 brush0" points="457,894 415,986 460,999 457,894"/>
<polygon class="pen1 brush0" points="617,939 577,1039 629,1050 617,939"/>
<polygon class="pen1 brush0" points="527,610 545,613 562,616 578,619 594,621 610,623 625,624 640,625 654,625 669,625 683,624 697,622 711,619 725,615 738,610 752,605 766,598 760,588 746,594 731,600 717,604 704,608 690,610 676,613 662,614 649,615 635,615 621,615 606,614 592,612 577,611 561,609 545,607 529,604 527,610"/>
<polygon class="pen1 brush0" points="520,630 537,639 551,647 565,655 577,661 588,667 599,672 610,676 620,680 632,683 644,686 657,688 671,689 687,691 706,691 727,692 750,692 747,676 728,677 710,678 693,678 678,677 663,676 649,674 636,671 623,668 611,664 598,660 586,655 574,649 561,644 548,638 535,631 521,624 520,630"/>
<polygon class="pen1 brush0" points="504,645 520,659 534,672 547,684 559,694 570,704 581,713 592,721 604,728 615,734 628,740 641,745 656,750 672,754 691,757 711,760 734,763 734,746 711,743 690,740 672,737 656,733 641,728 627,724 615,718 603,712 592,706 581,699 571,691 560,683 548,674 536,664 522,653 507,642 504,645"/>
<polygon class="pen1 brush0" points="486,658 494,668 501,677 508,686 516,696 523,705 530,714 539,724 547,733 557,743 568,753 580,763 593,773 608,783 625,794 644,805 665,816 675,800 657,791 641,783 626,775 613,767 601,760 590,753 579,745 570,738 560,730 551,722 542,713 533,704 523,693 512,682 501,669 489,655 486,658"/>
</g>
</svg>
