<?xml version="1.0" encoding="UTF-8" standalone="no"?>
<!DOCTYPE svg PUBLIC "-//W3C//DTD SVG 1.0//EN" "http://www.w3.org/TR/2001/REC-SVG-20010904/DTD/svg10.dtd">
<svg xmlns="http://www.w3.org/2000/svg" xmlns:xlink="http://www.w3.org/1999/xlink" fill-rule="evenodd" height="1.351in" preserveAspectRatio="none" stroke-linecap="round" viewBox="0 0 1980 1351" width="1.98in">
<style type="text/css">
.brush0 { fill: rgb(255,255,255); }
.pen0 { stroke: rgb(0,0,0); stroke-width: 1; stroke-linejoin: round; }
.brush1 { fill: none; }
.pen1 { stroke: none; }
.brush2 { fill: rgb(0,0,0); }
</style>
<g>
<polygon class="pen1 brush2" points="920,696 916,673 915,644 916,612 919,579 923,548 929,520 936,499 943,487 943,484 940,479 934,471 926,461 915,449 902,436 886,421 869,404 849,387 828,368 806,348 781,327 756,306 729,284 702,262 674,240 645,218 615,196 585,175 555,154 525,134 495,115 466,96 437,79 408,64 380,50 353,37 327,27 302,18 279,12 257,8 237,7 226,7 214,7 199,7 183,8 167,9 149,12 131,15 113,19 96,24 79,31 63,40 48,50 35,63 25,78 16,95 10,114 7,128 6,144 6,161 8,179 12,199 17,220 25,243 34,267 44,281 62,298 84,320 108,348 129,384 146,428 153,482 149,547 147,580 151,608 160,631 174,650 192,666 212,678 235,687 259,694 283,698 307,701 329,702 350,702 367,701 380,700 389,699 392,699 390,700 386,702 379,705 370,710 359,716 346,723 332,732 317,742 301,753 284,766 268,780 252,796 236,812 222,831 208,850 196,871 182,902 173,935 169,971 171,1009 179,1050 194,1093 218,1138 251,1186 256,1190 265,1197 278,1205 295,1215 316,1224 340,1234 366,1243 394,1249 424,1254 456,1255 489,1252 522,1244 556,1232 590,1213 623,1188 655,1155 686,1117 715,1079 742,1039 768,1000 791,961 813,923 833,886 851,852 867,819 881,789 893,763 902,740 910,721 916,708 919,699 920,696"/>
<polygon class="pen1 brush0" points="429,908 427,908 424,909 420,910 416,911 411,913 406,914 402,915 399,915 400,912 401,904 404,895 408,887 409,884 410,882 411,880 412,878 418,874 424,873 430,874 436,878 440,884 441,890 440,896 437,902 436,903 434,905 431,906 429,908"/>
<polygon class="pen1 brush0" points="155,104 156,100 164,95 176,89 191,85 206,84 219,88 227,98 230,115 247,122 270,132 298,144 331,159 368,175 408,193 450,213 493,233 537,254 581,275 624,297 665,318 703,339 738,359 769,378 794,395 793,397 792,400 790,403 788,405 788,405 763,388 733,369 699,349 661,328 621,306 579,285 536,263 492,242 449,222 407,203 367,185 330,168 297,153 268,141 244,131 226,124 218,130 208,132 198,131 188,127 177,122 168,116 160,110 155,104"/>
<polygon class="pen1 brush0" points="166,277 169,275 177,270 188,265 201,259 215,257 228,258 239,265 246,280 249,280 257,280 269,281 286,284 307,287 332,292 361,299 394,307 430,317 469,329 512,343 558,360 606,379 657,401 711,425 767,453 767,455 766,457 765,460 764,462 730,444 693,427 655,410 616,393 575,377 535,362 495,348 456,336 418,324 383,314 350,305 320,298 294,293 272,290 255,290 243,291 235,301 225,305 215,305 205,302 194,297 184,291 174,284 166,277"/>
<polygon class="pen1 brush0" points="230,412 233,410 242,405 254,399 268,394 282,392 295,394 305,402 310,418 314,416 323,415 337,416 355,417 376,421 401,425 429,431 460,438 493,446 527,455 563,465 601,476 638,488 676,501 714,515 751,529 751,531 751,533 750,535 750,537 718,525 684,513 650,502 616,491 582,481 548,471 515,463 483,454 453,447 424,441 397,435 373,431 351,428 333,425 318,425 307,425 299,435 289,440 279,440 269,437 258,432 248,426 238,419 230,412"/>
<polygon class="pen1 brush0" points="284,554 287,552 295,546 306,539 319,533 333,529 346,529 357,536 364,550 367,547 375,546 386,544 401,544 418,545 439,546 463,548 488,551 516,555 546,560 577,565 610,572 643,579 677,588 712,597 747,607 747,608 747,609 747,610 747,611 747,612 747,613 747,614 747,615 718,606 689,599 659,591 630,585 600,579 572,574 543,569 516,565 490,562 466,559 443,558 422,556 403,556 387,557 373,558 362,560 355,570 346,575 336,577 325,575 314,571 303,566 293,560 284,554"/>
<polygon class="pen1 brush0" points="285,921 283,917 284,907 288,894 294,880 303,869 314,861 327,861 342,870 353,864 367,857 384,848 404,838 426,828 450,816 476,803 504,790 533,777 563,763 593,749 625,735 656,722 688,708 719,695 750,683 750,685 751,688 751,690 751,693 721,705 690,718 659,731 628,744 597,758 566,771 537,785 508,798 480,811 455,823 430,834 408,845 388,855 371,864 357,872 345,878 345,888 341,896 334,903 324,909 314,914 303,917 293,920 285,921"/>
<polygon class="pen1 brush0" points="291,1108 291,1105 293,1096 295,1084 300,1070 307,1058 316,1049 328,1046 344,1050 346,1047 350,1041 358,1032 369,1020 384,1006 401,989 422,970 446,949 474,927 505,903 539,879 577,853 618,827 663,801 711,776 763,750 764,752 764,755 764,757 764,760 730,777 696,796 662,816 627,837 593,859 560,881 528,904 498,926 469,947 442,968 419,988 398,1006 380,1022 366,1037 356,1049 351,1058 354,1070 351,1080 345,1089 336,1095 325,1100 313,1104 302,1106 291,1108"/>
<polygon class="pen1 brush0" points="440,1158 440,1154 442,1145 445,1132 450,1118 457,1106 467,1097 479,1095 494,1101 495,1096 499,1089 506,1078 516,1065 528,1050 543,1032 560,1013 579,993 600,971 623,949 647,926 672,902 699,879 727,855 755,832 784,810 786,813 788,815 790,818 791,821 766,841 741,862 716,883 692,905 669,926 646,948 624,969 604,990 585,1009 567,1028 551,1046 537,1062 524,1077 514,1089 506,1100 500,1108 502,1120 499,1130 493,1139 484,1145 473,1150 461,1154 450,1156 440,1158"/>
<polygon class="pen1 brush0" points="324,237 320,235 313,230 305,225 300,219 300,219 302,217 305,216 310,214 314,212 319,210 324,209 328,208 330,207 333,206 335,207 337,208 344,209 349,213 352,219 352,226 350,232 346,237 340,240 334,240 332,240 329,239 326,238 324,237"/>
<polygon class="pen1 brush0" points="433,506 429,503 422,498 414,493 409,489 411,486 418,482 427,478 436,476 438,476 441,476 444,476 446,476 452,478 457,481 461,487 462,493 459,500 455,505 449,509 443,510 441,510 438,508 435,507 433,506"/>
<polygon class="pen1 brush0" points="371,375 367,371 360,366 351,360 345,355 348,353 356,349 365,346 374,344 377,344 379,344 382,344 384,344 390,345 395,349 398,355 399,361 397,368 393,373 387,377 381,378 378,378 375,376 373,375 371,375"/>
<polygon class="pen1 brush0" points="524,1004 523,1004 520,1005 516,1005 511,1006 506,1007 501,1007 496,1007 493,1007 494,1004 497,996 502,987 507,980 509,977 510,976 512,974 514,973 520,970 526,970 532,972 537,976 540,983 540,990 538,996 534,1000 532,1002 529,1003 526,1004 524,1004"/>
<polygon class="pen1 brush2" points="1060,693 1064,670 1065,641 1064,609 1061,576 1057,545 1051,518 1044,497 1037,485 1037,482 1040,476 1046,469 1054,459 1065,447 1078,434 1094,418 1111,402 1131,384 1152,365 1174,345 1199,324 1224,303 1251,281 1278,259 1306,237 1335,215 1365,194 1395,172 1425,151 1455,131 1485,112 1514,94 1543,76 1572,61 1600,47 1627,34 1653,24 1678,15 1701,9 1723,5 1743,4 1754,4 1766,4 1781,4 1797,5 1813,6 1831,9 1849,12 1867,16 1884,21 1901,28 1917,37 1932,47 1945,60 1955,75 1964,92 1970,111 1973,125 1974,141 1974,158 1972,177 1968,196 1963,217 1955,240 1946,264 1936,278 1918,295 1896,317 1873,345 1851,381 1835,425 1827,479 1831,544 1833,577 1829,605 1820,628 1806,647 1788,663 1768,675 1745,684 1721,691 1697,695 1673,698 1651,699 1630,699 1613,698 1600,697 1591,696 1588,696 1589,697 1594,699 1600,702 1609,706 1620,712 1632,719 1646,727 1660,737 1676,748 1692,760 1708,773 1723,788 1739,804 1754,821 1767,840 1780,860 1795,891 1806,925 1811,961 1811,1000 1803,1042 1788,1086 1763,1133 1729,1183 1724,1187 1715,1194 1702,1203 1685,1212 1664,1222 1640,1231 1614,1240 1586,1247 1556,1251 1524,1252 1491,1249 1458,1242 1424,1229 1390,1210 1357,1185 1325,1152 1294,1114 1265,1076 1237,1036 1212,997 1188,958 1166,920 1147,883 1129,849 1113,816 1099,786 1087,760 1078,737 1070,718 1064,705 1061,696 1060,693"/>
<polygon class="pen1 brush0" points="1551,905 1553,905 1556,906 1560,907 1565,908 1569,910 1574,911 1578,912 1581,912 1580,909 1579,901 1576,891 1572,884 1571,881 1570,879 1569,877 1568,875 1562,871 1556,870 1550,871 1544,875 1540,880 1539,887 1540,893 1544,899 1545,901 1547,902 1549,904 1551,905"/>
<polygon class="pen1 brush0" points="1827,101 1825,97 1817,92 1804,86 1789,82 1774,81 1761,85 1753,95 1750,112 1733,119 1710,129 1682,141 1649,155 1612,172 1572,190 1530,209 1487,229 1443,251 1399,272 1356,293 1315,315 1277,336 1242,356 1211,375 1186,392 1187,394 1188,397 1190,399 1192,402 1192,402 1217,385 1247,366 1281,346 1319,325 1359,304 1402,282 1445,261 1489,240 1532,219 1574,200 1614,182 1651,165 1684,151 1713,138 1736,128 1754,121 1762,127 1772,129 1782,128 1793,124 1803,119 1813,113 1821,107 1827,101"/>
<polygon class="pen1 brush0" points="1814,274 1811,272 1803,267 1792,261 1779,256 1765,253 1752,255 1741,262 1734,277 1731,277 1724,277 1711,278 1695,280 1674,284 1648,289 1619,295 1587,303 1551,314 1511,326 1468,340 1422,357 1374,376 1323,398 1269,422 1213,450 1213,452 1214,454 1215,457 1216,459 1250,441 1287,424 1325,407 1364,390 1405,374 1445,359 1485,345 1524,332 1562,321 1597,311 1630,302 1660,295 1686,291 1708,288 1725,287 1737,289 1745,298 1755,302 1765,303 1776,299 1786,294 1796,288 1806,281 1814,274"/>
<polygon class="pen1 brush0" points="1750,408 1747,406 1738,401 1726,396 1713,391 1698,389 1686,391 1677,399 1672,415 1668,413 1658,412 1644,413 1626,415 1604,418 1579,423 1551,428 1520,435 1487,443 1453,452 1417,462 1380,473 1342,485 1304,498 1266,512 1229,526 1229,528 1230,530 1230,532 1230,534 1262,522 1296,510 1330,499 1364,488 1398,478 1432,468 1465,460 1497,451 1527,444 1556,438 1583,432 1607,428 1629,425 1647,422 1662,422 1673,422 1681,432 1691,437 1701,437 1712,434 1722,429 1732,422 1742,415 1750,408"/>
<polygon class="pen1 brush0" points="1696,551 1693,549 1685,543 1674,536 1661,530 1647,526 1634,526 1624,533 1618,547 1614,544 1607,543 1595,541 1580,541 1562,542 1541,543 1518,545 1492,548 1464,552 1434,557 1403,562 1370,569 1337,576 1303,585 1268,594 1233,604 1233,604 1233,606 1233,607 1233,608 1233,609 1233,610 1233,611 1233,612 1262,604 1291,596 1321,589 1350,582 1380,576 1408,571 1437,566 1464,562 1490,559 1514,556 1537,554 1558,553 1577,553 1593,553 1607,555 1618,557 1625,567 1634,573 1644,574 1656,572 1667,568 1678,563 1688,557 1696,551"/>
<polygon class="pen1 brush0" points="1695,918 1697,914 1696,904 1692,891 1686,877 1677,866 1666,858 1653,858 1638,867 1627,861 1613,854 1596,845 1576,836 1554,825 1530,813 1504,801 1476,788 1447,775 1417,761 1387,747 1355,733 1324,720 1292,706 1261,693 1230,681 1230,683 1230,686 1229,688 1229,691 1259,703 1290,715 1322,728 1353,742 1384,755 1414,769 1444,782 1473,795 1500,808 1526,820 1550,832 1573,842 1592,852 1609,861 1624,869 1635,875 1635,885 1639,893 1646,900 1655,906 1666,911 1677,914 1687,917 1695,918"/>
<polygon class="pen1 brush0" points="1689,1105 1689,1102 1687,1093 1685,1081 1680,1068 1673,1055 1664,1046 1652,1043 1636,1047 1635,1044 1630,1038 1623,1029 1612,1017 1597,1003 1580,986 1559,967 1535,946 1507,924 1476,900 1441,876 1403,850 1362,824 1317,798 1269,773 1217,747 1216,749 1216,751 1216,754 1216,756 1250,773 1284,792 1318,813 1353,834 1387,856 1420,878 1452,901 1482,923 1511,945 1537,965 1561,985 1582,1003 1599,1020 1613,1034 1623,1047 1628,1056 1626,1068 1628,1078 1635,1086 1644,1092 1655,1097 1667,1101 1678,1103 1689,1105"/>
<polygon class="pen1 brush0" points="1540,1155 1540,1151 1538,1142 1535,1129 1530,1115 1523,1102 1513,1094 1501,1092 1486,1098 1485,1094 1481,1086 1474,1076 1464,1063 1452,1047 1437,1030 1420,1011 1401,990 1380,969 1357,946 1333,923 1308,899 1281,876 1253,852 1225,829 1196,807 1194,809 1193,812 1191,815 1189,817 1214,837 1239,858 1264,879 1288,901 1311,923 1334,944 1356,965 1376,986 1395,1006 1413,1025 1429,1042 1443,1058 1456,1073 1466,1085 1474,1096 1480,1104 1478,1117 1481,1127 1487,1135 1496,1142 1507,1147 1519,1151 1530,1153 1540,1155"/>
<polygon class="pen1 brush0" points="1655,235 1660,232 1667,227 1675,222 1680,216 1678,214 1671,211 1662,207 1653,205 1650,204 1648,203 1645,204 1643,205 1637,206 1633,210 1629,216 1628,223 1630,229 1634,234 1640,237 1646,237 1648,237 1651,236 1653,236 1655,235"/>
<polygon class="pen1 brush0" points="1547,503 1551,500 1558,496 1566,490 1571,486 1569,484 1562,479 1553,475 1544,473 1542,473 1539,473 1536,473 1534,473 1528,475 1523,478 1520,484 1520,490 1521,497 1525,502 1531,505 1537,506 1540,506 1542,505 1545,504 1547,503"/>
<polygon class="pen1 brush0" points="1609,371 1613,368 1621,363 1629,357 1635,352 1632,350 1624,346 1615,343 1607,341 1604,341 1602,341 1599,341 1597,341 1591,343 1586,346 1582,352 1581,358 1583,365 1587,370 1593,374 1599,375 1602,375 1605,373 1607,372 1609,371"/>
<polygon class="pen1 brush0" points="1456,1002 1457,1002 1460,1003 1464,1003 1469,1004 1474,1004 1479,1005 1484,1004 1487,1004 1486,1001 1483,993 1478,985 1473,977 1472,974 1470,973 1468,971 1466,970 1460,967 1454,967 1448,969 1443,973 1440,980 1440,987 1442,993 1446,997 1448,999 1451,1001 1454,1002 1456,1002"/>
<polygon class="pen1 brush2" points="963,370 961,365 960,361 958,356 956,352 955,352 954,352 953,352 953,352 947,351 942,348 938,344 937,338 937,335 939,332 940,330 943,327 932,309 921,291 909,274 896,257 882,240 868,224 853,209 838,195 823,182 807,169 791,158 775,148 759,139 742,132 726,126 709,121 710,111 727,116 744,122 761,130 778,139 794,150 811,162 827,175 843,189 858,203 873,219 888,235 902,252 915,270 927,288 938,306 949,324 950,324 951,324 952,324 953,324 958,325 962,328 965,333 966,338 966,342 965,344 963,347 962,348 964,353 965,357 967,361 970,365 974,364 978,363 982,363 987,363 991,363 995,364 999,365 1003,367 1006,362 1008,357 1011,353 1013,348 1011,346 1010,344 1009,341 1009,338 1010,333 1013,328 1017,325 1023,324 1024,324 1024,324 1025,324 1026,324 1037,306 1048,288 1061,270 1074,252 1088,235 1102,219 1117,203 1133,189 1148,175 1165,162 1181,150 1197,139 1214,130 1231,122 1247,116 1264,111 1267,121 1250,126 1234,132 1217,139 1201,148 1185,159 1169,170 1153,182 1138,195 1123,210 1108,225 1094,240 1080,257 1067,274 1055,291 1044,309 1033,327 1034,330 1036,332 1037,335 1037,338 1036,344 1033,348 1028,351 1023,352 1022,352 1021,352 1020,352 1020,352 1018,356 1016,361 1013,365 1011,370 1023,378 1031,388 1036,401 1037,415 1035,429 1030,442 1021,452 1010,460 1017,479 1022,503 1028,532 1032,564 1036,601 1039,640 1040,681 1041,725 1040,783 1037,837 1032,886 1026,929 1018,964 1010,990 1000,1007 990,1013 980,1007 970,990 962,964 954,929 948,886 943,837 940,783 939,725 940,683 941,642 944,604 948,568 953,536 958,507 964,483 970,463 963,460 956,456 950,451 945,445 941,438 938,431 937,423 936,415 938,400 943,387 951,377 963,370"/>
</g>
</svg>
