<?xml version="1.0" encoding="UTF-8" standalone="no"?>
<!DOCTYPE svg PUBLIC "-//W3C//DTD SVG 1.0//EN" "http://www.w3.org/TR/2001/REC-SVG-20010904/DTD/svg10.dtd">
<svg xmlns="http://www.w3.org/2000/svg" xmlns:xlink="http://www.w3.org/1999/xlink" fill-rule="evenodd" height="0.453in" preserveAspectRatio="none" stroke-linecap="round" viewBox="0 0 1977 453" width="1.977in">
<style type="text/css">
.brush0 { fill: rgb(255,255,255); }
.pen0 { stroke: rgb(0,0,0); stroke-width: 1; stroke-linejoin: round; }
.brush1 { fill: none; }
.pen1 { stroke: none; }
.brush2 { fill: rgb(0,0,0); }
</style>
<g>
<polygon class="pen1 brush2" points="412,55 419,53 428,51 438,48 451,45 466,42 483,38 502,35 522,31 544,28 568,24 594,21 622,18 651,15 681,12 713,9 747,7 769,6 791,5 813,4 837,3 860,3 884,2 909,2 934,2 959,3 985,3 1011,4 1038,5 1065,6 1092,8 1120,10 1148,12 1175,15 1202,18 1229,21 1257,24 1285,28 1314,33 1343,38 1372,43 1401,48 1430,54 1460,60 1489,67 1519,74 1549,82 1580,90 1610,98 1632,104 1655,111 1678,118 1700,125 1723,133 1746,141 1769,149 1792,157 1815,166 1838,174 1861,184 1885,193 1908,203 1931,213 1954,223 1977,234 1976,235 1974,236 1971,239 1966,243 1960,247 1952,253 1943,259 1932,266 1920,274 1907,282 1892,291 1876,300 1858,309 1839,319 1818,329 1796,339 1780,346 1763,353 1746,360 1728,366 1709,373 1689,379 1669,386 1649,392 1627,398 1605,403 1582,409 1558,414 1534,419 1509,423 1483,427 1456,431 1434,434 1411,437 1388,439 1365,441 1341,443 1316,444 1291,445 1266,446 1240,446 1214,446 1187,446 1160,445 1132,444 1104,442 1075,440 1046,437 1025,435 1004,432 983,430 962,427 940,423 918,420 896,416 874,412 852,408 829,403 806,398 783,393 760,388 736,382 712,376 688,370 1916,241 1916,235 412,55 412,55"/>
<polygon class="pen1 brush2" points="418,69 398,68 379,68 361,68 343,67 326,68 309,68 293,68 277,69 262,69 248,70 234,71 221,73 208,74 195,76 183,77 172,79 153,82 135,85 119,88 104,92 91,96 78,101 67,105 57,109 48,114 40,119 33,125 27,130 22,135 18,140 15,145 12,150 7,169 8,184 10,193 12,197 26,196 34,199 38,203 39,209 38,216 36,221 34,225 33,227 42,235 51,243 61,250 71,258 81,265 91,271 101,278 112,284 123,289 133,295 145,300 156,305 167,310 179,315 190,319 202,323 219,329 236,334 253,339 270,343 287,347 305,351 322,354 339,357 356,359 374,361 391,363 407,364 424,365 440,366 456,367 472,367 493,367 514,367 533,367 552,367 569,366 586,365 601,365 615,364 628,363 639,362 649,361 657,360 663,359 668,359 671,358 672,358 1837,238 418,69"/>
<polygon class="pen1 brush0" points="131,181 137,180 143,179 148,176 152,173 156,169 159,164 160,159 161,153 160,147 159,141 156,136 152,132 148,128 143,125 137,124 131,123 120,125 111,132 104,141 102,153 104,164 111,173 120,179 131,181"/>
</g>
</svg>
