<?xml version="1.0" encoding="UTF-8" standalone="no"?>
<!DOCTYPE svg PUBLIC "-//W3C//DTD SVG 1.0//EN" "http://www.w3.org/TR/2001/REC-SVG-20010904/DTD/svg10.dtd">
<svg xmlns="http://www.w3.org/2000/svg" xmlns:xlink="http://www.w3.org/1999/xlink" fill-rule="evenodd" height="1.962in" preserveAspectRatio="none" stroke-linecap="round" viewBox="0 0 1978 1962" width="1.978in">
<style type="text/css">
.brush0 { fill: rgb(255,255,255); }
.pen0 { stroke: rgb(0,0,0); stroke-width: 1; stroke-linejoin: round; }
.brush1 { fill: none; }
.pen1 { stroke: none; }
.brush2 { fill: rgb(0,0,0); }
</style>
<g>
<polygon class="pen1 brush2" points="1099,159 1100,140 1101,116 1101,90 1104,63 1108,40 1116,20 1127,8 1143,4 1158,13 1167,33 1170,59 1170,89 1167,119 1164,144 1160,162 1159,169 1163,173 1173,184 1189,201 1207,225 1226,253 1245,286 1262,322 1275,362 1277,362 1281,363 1288,365 1298,368 1310,371 1324,375 1341,379 1359,385 1380,391 1401,398 1425,405 1449,414 1475,423 1502,432 1530,443 1558,454 1587,466 1616,479 1646,492 1676,507 1705,522 1734,537 1763,554 1791,571 1819,589 1846,608 1871,628 1896,648 1919,669 1940,691 1960,714 1978,737 1977,737 1974,735 1969,734 1963,732 1954,729 1944,727 1932,724 1919,721 1903,719 1887,718 1869,716 1849,716 1828,716 1806,718 1783,720 1758,724 1732,730 1705,737 1677,745 1648,756 1618,768 1587,783 1556,800 1523,820 1490,842 1456,867 1422,895 1386,925 1351,959 1315,997 1278,1038 1241,1082 1232,1092 1222,1102 1211,1113 1200,1123 1187,1132 1174,1142 1161,1151 1148,1159 1135,1167 1122,1174 1109,1180 1096,1185 1085,1188 1074,1191 1064,1192 1055,1192 1054,1196 1052,1205 1053,1219 1061,1236 1025,1234 1025,1262 1028,1295 1033,1330 1040,1366 1049,1400 1060,1432 1072,1460 1086,1480 1095,1493 1105,1504 1117,1515 1129,1524 1143,1534 1159,1543 1176,1551 1194,1561 1214,1570 1236,1580 1260,1592 1286,1604 1313,1618 1343,1633 1376,1650 1410,1669 1456,1706 1489,1746 1509,1787 1520,1828 1524,1868 1523,1904 1520,1936 1517,1962 1516,1954 1513,1934 1507,1904 1497,1867 1483,1827 1463,1788 1438,1752 1406,1722 1383,1706 1360,1691 1336,1679 1313,1667 1290,1657 1267,1648 1245,1639 1222,1631 1200,1623 1178,1614 1157,1606 1135,1596 1115,1585 1094,1573 1074,1559 1055,1544 1025,1502 1001,1459 983,1414 970,1371 961,1330 956,1293 953,1261 951,1236 919,1236 926,1219 927,1205 924,1196 923,1192 914,1192 904,1191 893,1188 882,1185 869,1180 856,1174 843,1167 830,1159 817,1151 804,1142 791,1132 778,1123 767,1113 756,1102 746,1092 737,1082 700,1038 663,997 627,959 592,925 556,895 522,867 488,842 455,820 422,800 391,783 360,768 330,756 301,745 273,737 246,730 220,724 195,720 172,718 150,716 129,716 109,716 91,718 75,719 59,721 46,724 34,727 24,729 15,732 9,734 4,735 1,737 0,737 18,714 38,691 59,669 82,648 107,628 132,608 159,589 186,571 215,554 243,537 273,522 302,507 332,492 362,479 391,466 420,454 448,443 476,432 503,423 529,414 554,405 577,398 599,391 619,385 638,379 655,375 669,371 681,368 691,365 698,363 702,362 704,362 717,322 733,286 752,253 772,225 790,201 805,184 815,173 819,169 818,162 815,144 811,119 809,89 809,59 812,33 821,13 835,4 851,8 863,20 870,40 875,63 877,90 878,116 878,140 879,159 882,159 889,157 900,156 915,154 931,152 948,151 965,150 981,150 998,151 1016,153 1036,154 1055,156 1072,157 1086,158 1096,159 1099,159"/>
<polygon class="pen1 brush0" points="906,284 912,283 918,282 923,279 928,275 932,270 935,264 936,258 937,251 936,245 935,239 932,234 928,229 923,225 918,222 912,221 906,220 900,221 894,222 889,225 884,229 880,234 877,239 876,245 875,251 876,258 877,264 880,270 884,275 889,279 894,282 900,283 906,284"/>
<polygon class="pen1 brush0" points="1071,284 1077,283 1083,282 1088,279 1093,275 1097,270 1100,264 1101,258 1102,251 1101,245 1100,239 1097,234 1093,229 1088,225 1083,222 1077,221 1071,220 1065,221 1059,222 1053,225 1048,229 1044,234 1041,239 1039,245 1038,251 1039,258 1041,264 1044,270 1048,275 1053,279 1059,282 1065,283 1071,284"/>
</g>
</svg>
