<?xml version="1.0" encoding="UTF-8" standalone="no"?>
<!DOCTYPE svg PUBLIC "-//W3C//DTD SVG 1.0//EN" "http://www.w3.org/TR/2001/REC-SVG-20010904/DTD/svg10.dtd">
<svg xmlns="http://www.w3.org/2000/svg" xmlns:xlink="http://www.w3.org/1999/xlink" fill-rule="evenodd" height="1.98in" preserveAspectRatio="none" stroke-linecap="round" viewBox="0 0 1980 1980" width="1.98in">
<style type="text/css">
.brush0 { fill: rgb(255,255,255); }
.pen0 { stroke: rgb(0,0,0); stroke-width: 1; stroke-linejoin: round; }
.brush1 { fill: none; }
.pen1 { stroke: none; }
.brush2 { fill: rgb(0,0,0); }
</style>
<g>
<polygon class="pen1 brush2" points="990,1980 1041,1979 1091,1975 1141,1969 1190,1960 1237,1949 1284,1936 1330,1920 1375,1902 1419,1882 1462,1861 1503,1837 1544,1811 1582,1783 1620,1754 1656,1723 1690,1690 1723,1656 1754,1620 1783,1582 1811,1544 1837,1503 1861,1462 1882,1419 1902,1375 1920,1330 1936,1284 1949,1237 1960,1190 1969,1141 1975,1091 1979,1041 1980,990 1979,939 1975,889 1969,839 1960,791 1949,743 1936,696 1920,650 1902,605 1882,561 1861,518 1837,477 1811,437 1783,398 1754,361 1723,325 1690,290 1656,257 1620,226 1582,197 1544,169 1503,144 1462,120 1419,98 1375,78 1330,60 1284,45 1237,31 1190,20 1141,11 1091,5 1041,1 990,0 939,1 889,5 840,11 791,20 743,31 696,45 650,60 605,78 562,98 519,120 477,144 437,169 398,197 361,226 325,257 291,290 258,325 227,361 197,398 170,437 144,477 120,518 98,561 78,605 60,650 45,696 31,743 20,791 11,839 5,889 1,939 0,990 1,1041 5,1091 11,1141 20,1190 31,1237 45,1284 60,1330 78,1375 98,1419 120,1462 144,1503 170,1544 197,1582 227,1620 258,1656 291,1690 325,1723 361,1754 398,1783 437,1811 477,1837 519,1861 562,1882 605,1902 650,1920 696,1936 743,1949 791,1960 840,1969 889,1975 939,1979 990,1980"/>
<polygon class="pen1 brush0" points="990,1926 1038,1925 1086,1921 1133,1915 1179,1907 1224,1897 1268,1884 1312,1869 1354,1852 1396,1834 1436,1813 1475,1791 1513,1766 1550,1740 1585,1712 1619,1683 1651,1652 1682,1619 1712,1585 1739,1550 1765,1513 1790,1475 1812,1436 1833,1396 1852,1354 1868,1312 1883,1268 1896,1224 1906,1179 1914,1133 1920,1086 1924,1038 1925,990 1924,942 1920,894 1914,848 1906,802 1896,756 1883,712 1868,669 1852,626 1833,585 1812,544 1790,505 1765,467 1739,431 1712,395 1682,361 1651,329 1619,298 1585,269 1550,241 1513,215 1475,190 1436,168 1396,147 1354,129 1312,112 1268,97 1224,84 1179,74 1133,66 1086,60 1038,56 990,55 942,56 895,60 848,66 802,74 757,84 712,97 669,112 627,129 585,147 545,168 506,190 468,215 431,241 396,269 362,298 329,329 298,361 269,395 241,431 215,467 191,505 168,544 147,585 129,626 112,669 97,712 85,756 74,802 66,848 60,894 56,942 55,990 56,1038 60,1086 66,1133 74,1179 85,1224 97,1268 112,1312 129,1354 147,1396 168,1436 191,1475 215,1513 241,1550 269,1585 298,1619 329,1652 362,1683 396,1712 431,1740 468,1766 506,1791 545,1813 585,1834 627,1852 669,1869 712,1884 757,1897 802,1907 848,1915 895,1921 942,1925 990,1926"/>
<polygon class="pen1 brush2" points="1071,801 1071,787 1075,746 1078,687 1078,622 1088,615 1098,608 1108,601 1118,593 1127,585 1137,577 1146,568 1154,559 1154,596 1149,630 1141,662 1131,692 1117,720 1103,747 1087,774 1071,801 1071,801"/>
<polygon class="pen1 brush2" points="1078,613 1088,606 1098,599 1108,592 1118,584 1127,576 1136,567 1145,558 1154,548 1152,532 1150,517 1147,502 1144,486 1136,496 1127,506 1118,516 1110,525 1101,534 1092,542 1082,550 1073,558 1074,571 1076,585 1077,599 1078,613 1078,613"/>
<polygon class="pen1 brush2" points="1071,550 1063,529 1050,503 1034,475 1017,446 1002,419 992,394 988,373 993,358 1006,350 1023,348 1044,353 1066,364 1088,382 1109,407 1127,438 1142,477 1134,487 1126,497 1117,507 1108,516 1099,525 1090,534 1081,542 1071,550 1071,550"/>
<polygon class="pen1 brush2" points="912,801 910,787 903,744 894,684 889,616 879,609 868,601 858,593 849,584 839,575 829,565 820,555 811,545 814,583 821,618 832,652 845,683 860,713 877,743 894,772 912,801 912,801"/>
<polygon class="pen1 brush2" points="889,609 879,601 868,592 858,583 848,574 838,564 829,555 820,544 811,534 811,519 813,503 814,487 817,471 825,482 834,493 843,503 852,514 862,523 872,533 882,542 892,551 890,564 889,578 889,593 889,609 889,609"/>
<polygon class="pen1 brush2" points="892,544 898,522 910,497 924,470 938,442 950,416 959,391 961,371 955,355 941,346 923,342 904,345 883,355 863,371 844,394 829,425 817,463 826,474 835,485 844,496 853,506 862,516 872,526 882,535 892,544 892,544"/>
<polygon class="pen1 brush2" points="1142,977 1144,980 1151,989 1163,1003 1178,1021 1195,1043 1214,1068 1232,1094 1250,1121 1263,1121 1275,1122 1288,1123 1301,1124 1313,1126 1326,1128 1338,1130 1351,1133 1340,1117 1329,1103 1318,1090 1306,1078 1294,1066 1281,1056 1268,1046 1255,1037 1241,1028 1227,1020 1214,1012 1199,1005 1185,998 1171,991 1156,984 1142,977 1142,977"/>
<polygon class="pen1 brush2" points="1256,1128 1268,1128 1280,1129 1292,1130 1304,1131 1317,1133 1330,1136 1342,1139 1355,1142 1363,1155 1370,1169 1377,1184 1382,1199 1370,1195 1357,1191 1345,1187 1332,1184 1319,1181 1306,1179 1294,1177 1281,1176 1276,1165 1270,1153 1263,1141 1256,1128 1256,1128"/>
<polygon class="pen1 brush2" points="1284,1184 1290,1206 1293,1233 1295,1265 1297,1297 1300,1328 1305,1354 1314,1373 1327,1382 1343,1382 1359,1374 1373,1360 1385,1339 1394,1313 1397,1282 1395,1247 1385,1207 1373,1203 1360,1199 1347,1196 1335,1192 1322,1190 1309,1187 1296,1185 1284,1184 1284,1184"/>
<polygon class="pen1 brush2" points="1004,1061 1006,1063 1011,1073 1019,1090 1030,1112 1043,1138 1058,1166 1074,1195 1091,1224 1082,1247 1075,1272 1069,1297 1064,1324 1045,1291 1031,1258 1022,1225 1015,1192 1011,1160 1008,1127 1006,1094 1004,1061 1004,1061"/>
<polygon class="pen1 brush2" points="1095,1231 1087,1255 1080,1280 1074,1306 1071,1332 1075,1339 1079,1346 1084,1352 1089,1358 1094,1364 1099,1370 1105,1376 1111,1382 1113,1354 1116,1328 1122,1302 1129,1277 1125,1272 1121,1267 1117,1261 1112,1255 1108,1250 1104,1244 1099,1237 1095,1231 1095,1231"/>
<polygon class="pen1 brush2" points="1135,1283 1143,1290 1152,1297 1164,1305 1176,1312 1189,1320 1203,1327 1217,1335 1231,1342 1244,1350 1256,1358 1267,1366 1277,1374 1285,1382 1291,1390 1294,1398 1294,1406 1292,1414 1288,1421 1282,1427 1275,1433 1266,1437 1257,1441 1246,1443 1234,1444 1221,1443 1207,1441 1193,1437 1178,1432 1163,1424 1148,1415 1132,1403 1117,1389 1119,1361 1123,1334 1128,1308 1135,1283 1135,1283"/>
<polygon class="pen1 brush2" points="848,973 847,976 840,984 829,998 814,1016 796,1038 778,1062 758,1089 740,1116 728,1116 715,1117 703,1118 690,1119 678,1121 665,1124 653,1126 641,1129 652,1113 663,1099 674,1086 686,1073 698,1062 710,1051 723,1042 736,1033 750,1024 763,1016 777,1008 791,1001 805,994 819,987 834,980 848,973 848,973"/>
<polygon class="pen1 brush2" points="736,1123 724,1123 711,1124 699,1125 686,1127 673,1129 660,1132 648,1135 635,1138 629,1149 623,1162 617,1175 611,1189 610,1190 609,1191 608,1193 608,1194 621,1190 633,1186 646,1183 659,1180 672,1178 684,1176 697,1174 709,1173 715,1160 721,1148 729,1136 736,1123 736,1123"/>
<polygon class="pen1 brush2" points="706,1179 701,1201 698,1229 696,1261 694,1293 691,1324 686,1350 678,1370 665,1379 649,1378 633,1371 618,1356 606,1335 597,1309 593,1278 595,1242 605,1203 617,1199 630,1195 642,1192 655,1188 668,1185 681,1183 693,1181 706,1179 706,1179"/>
<polygon class="pen1 brush2" points="984,1057 983,1059 978,1070 971,1086 961,1108 948,1134 933,1162 917,1192 899,1220 908,1243 916,1268 922,1293 926,1319 944,1286 958,1253 968,1221 975,1188 979,1156 981,1123 983,1090 984,1057 984,1057"/>
<polygon class="pen1 brush2" points="895,1227 904,1251 911,1276 917,1301 921,1328 916,1335 912,1341 907,1348 902,1354 897,1360 891,1366 886,1373 881,1379 878,1351 874,1324 868,1298 861,1273 866,1268 870,1263 875,1257 879,1251 883,1246 887,1240 891,1233 895,1227 895,1227"/>
<polygon class="pen1 brush2" points="857,1278 849,1286 839,1293 828,1301 816,1308 802,1316 788,1323 774,1331 760,1338 747,1346 734,1354 723,1362 713,1370 705,1378 699,1386 696,1394 696,1402 699,1410 703,1417 709,1423 716,1428 725,1433 734,1436 745,1439 757,1440 770,1439 784,1437 798,1433 813,1428 828,1420 844,1411 859,1399 875,1385 872,1357 869,1330 864,1303 857,1278 857,1278"/>
<polygon class="pen1 brush2" points="1132,959 1132,958 1135,958 1139,957 1146,955 1154,954 1164,952 1175,950 1187,947 1200,945 1214,942 1229,938 1244,935 1260,931 1276,926 1291,922 1307,917 1316,925 1326,933 1336,941 1347,948 1358,954 1369,961 1380,967 1392,973 1374,978 1356,982 1339,985 1322,986 1305,987 1289,987 1273,986 1257,985 1241,983 1225,980 1210,977 1194,974 1179,970 1163,967 1148,963 1132,959 1132,959"/>
<polygon class="pen1 brush2" points="1315,916 1325,923 1335,931 1345,938 1356,944 1367,951 1378,957 1390,963 1402,969 1409,966 1417,963 1424,960 1431,957 1438,954 1445,950 1452,947 1459,943 1446,938 1434,933 1422,927 1411,921 1399,915 1388,908 1378,902 1367,895 1361,898 1355,900 1349,903 1342,905 1336,908 1329,911 1322,913 1315,916 1315,916"/>
<polygon class="pen1 brush2" points="1374,890 1385,897 1396,904 1407,910 1418,917 1430,923 1442,929 1454,934 1466,939 1499,915 1523,889 1540,862 1551,837 1555,813 1553,792 1546,776 1534,765 1526,763 1518,764 1509,768 1499,774 1489,781 1479,790 1468,801 1457,812 1445,823 1434,835 1423,847 1413,858 1402,868 1392,877 1383,884 1374,890 1374,890"/>
<polygon class="pen1 brush2" points="1081,805 1081,805 1084,804 1088,802 1094,800 1102,796 1111,792 1121,787 1133,782 1145,777 1159,771 1173,765 1188,759 1204,753 1220,747 1236,741 1252,736 1256,724 1260,712 1265,700 1270,689 1276,677 1282,665 1289,654 1296,642 1278,648 1261,655 1244,663 1229,671 1214,680 1200,690 1186,700 1174,711 1161,722 1149,733 1137,745 1126,756 1115,768 1103,781 1092,793 1081,805 1081,805"/>
<polygon class="pen1 brush2" points="1260,734 1264,722 1269,710 1274,698 1279,686 1285,674 1291,662 1298,650 1305,639 1313,637 1320,635 1328,633 1336,632 1344,630 1352,629 1360,629 1368,628 1360,639 1353,650 1345,661 1338,673 1331,685 1325,696 1319,708 1314,720 1308,721 1301,722 1294,724 1288,725 1281,727 1274,729 1267,732 1260,734 1260,734"/>
<polygon class="pen1 brush2" points="1323,720 1328,708 1334,696 1340,684 1347,672 1354,660 1361,649 1369,637 1377,626 1398,625 1418,627 1436,629 1452,633 1467,638 1480,645 1492,652 1502,660 1511,668 1518,677 1523,686 1527,694 1529,703 1529,712 1527,720 1524,727 1519,733 1511,737 1502,740 1491,741 1478,741 1464,740 1450,738 1435,735 1419,732 1404,729 1388,726 1373,723 1359,721 1346,720 1334,719 1323,720 1323,720"/>
<polygon class="pen1 brush2" points="848,963 848,963 845,962 840,961 834,960 825,958 816,956 805,954 792,952 779,949 765,946 750,943 735,940 719,936 703,931 688,927 672,922 662,930 652,937 642,944 632,951 621,958 610,965 599,971 588,977 606,982 624,986 641,989 658,990 675,991 691,991 707,990 723,989 739,987 754,984 770,981 785,978 801,974 816,971 832,967 848,963 848,963"/>
<polygon class="pen1 brush2" points="663,919 656,917 650,914 643,912 637,909 630,907 624,904 618,902 612,899 601,906 591,912 580,919 568,925 557,931 545,936 533,941 520,946 522,947 523,948 525,949 526,950 533,954 539,957 546,960 552,963 559,966 565,968 571,971 577,973 589,968 600,962 612,955 623,949 633,942 644,934 653,927 663,919 663,919"/>
<polygon class="pen1 brush2" points="605,895 594,902 583,909 572,915 561,921 549,927 537,932 525,938 513,943 480,919 456,893 439,867 428,841 424,817 426,797 433,781 445,770 453,768 461,769 470,772 480,778 490,785 501,794 512,805 523,816 534,828 545,840 556,851 567,863 577,873 587,882 596,889 605,895 605,895"/>
<polygon class="pen1 brush2" points="898,809 898,809 895,809 891,807 885,804 877,801 868,796 858,792 846,786 834,781 820,775 806,769 791,763 775,757 759,751 743,745 727,740 723,728 719,716 714,705 708,693 703,681 696,669 690,657 683,646 701,652 719,659 735,667 751,675 766,684 780,694 793,704 806,715 818,726 830,737 842,749 853,760 865,772 876,785 887,797 898,809 898,809"/>
<polygon class="pen1 brush2" points="719,737 715,725 710,713 705,702 700,690 694,678 687,666 680,654 673,643 666,641 658,639 651,638 643,636 635,635 627,633 619,633 611,632 619,643 626,654 634,665 641,677 648,689 654,700 660,712 665,724 671,725 678,726 685,728 691,729 698,731 705,733 712,735 719,737 719,737"/>
<polygon class="pen1 brush2" points="656,723 651,711 645,699 639,688 632,676 626,664 618,653 610,642 602,631 581,630 561,631 543,634 527,637 512,643 499,649 487,656 477,663 468,672 461,680 456,689 452,698 450,707 450,715 452,724 455,731 460,737 468,742 477,744 489,745 501,745 515,744 529,742 545,739 560,736 576,733 591,730 606,727 620,725 634,723 646,723 656,723 656,723"/>
<polygon class="pen1 brush2" points="243,794 264,793 283,791 301,788 316,783 329,778 339,772 345,765 347,758 345,751 339,744 329,738 316,733 301,729 283,726 264,724 243,723 222,724 203,726 185,729 169,733 156,738 146,744 140,751 138,758 140,765 146,772 156,778 169,783 185,788 203,791 222,793 243,794 243,794"/>
<polygon class="pen1 brush2" points="538,1606 549,1589 559,1572 566,1556 571,1541 574,1528 575,1517 573,1507 568,1501 562,1499 553,1500 543,1504 531,1511 519,1522 506,1534 493,1550 480,1567 468,1584 459,1601 451,1616 446,1631 443,1644 442,1656 444,1664 449,1670 456,1673 466,1672 476,1668 488,1660 500,1650 513,1638 526,1623 538,1606 538,1606"/>
<polygon class="pen1 brush2" points="1023,1450 1022,1429 1020,1410 1017,1392 1012,1377 1007,1364 1001,1354 994,1348 986,1346 980,1348 974,1354 968,1364 963,1377 958,1392 955,1410 953,1429 952,1450 953,1471 955,1490 958,1508 963,1523 968,1536 974,1546 980,1552 986,1554 994,1552 1001,1546 1007,1536 1012,1523 1017,1508 1020,1490 1022,1471 1023,1450 1023,1450"/>
<polygon class="pen1 brush2" points="1713,791 1692,790 1672,788 1655,785 1639,781 1627,775 1617,769 1611,763 1609,756 1611,749 1617,742 1627,736 1639,730 1655,726 1672,723 1692,721 1713,720 1734,721 1753,723 1771,726 1786,730 1799,736 1809,742 1815,749 1817,756 1815,763 1809,769 1799,775 1786,781 1771,785 1753,788 1734,790 1713,791 1713,791"/>
<polygon class="pen1 brush2" points="1409,1604 1397,1587 1387,1570 1380,1554 1374,1539 1371,1525 1371,1514 1373,1504 1378,1498 1385,1496 1394,1497 1404,1501 1415,1508 1427,1518 1440,1531 1453,1545 1466,1562 1478,1580 1487,1597 1495,1613 1500,1628 1503,1641 1503,1653 1501,1661 1496,1667 1489,1670 1480,1669 1470,1664 1459,1657 1447,1647 1434,1635 1422,1620 1409,1604"/>
</g>
</svg>
