<?xml version="1.0" encoding="UTF-8" standalone="no"?>
<!DOCTYPE svg PUBLIC "-//W3C//DTD SVG 1.0//EN" "http://www.w3.org/TR/2001/REC-SVG-20010904/DTD/svg10.dtd">
<svg xmlns="http://www.w3.org/2000/svg" xmlns:xlink="http://www.w3.org/1999/xlink" fill-rule="evenodd" height="0.633in" preserveAspectRatio="none" stroke-linecap="round" viewBox="0 0 1979 633" width="1.979in">
<style type="text/css">
.brush0 { fill: rgb(255,255,255); }
.pen0 { stroke: rgb(0,0,0); stroke-width: 1; stroke-linejoin: round; }
.brush1 { fill: none; }
.pen1 { stroke: none; }
.brush2 { fill: rgb(0,0,0); }
</style>
<g>
<polygon class="pen1 brush2" points="503,560 478,560 468,573 458,583 448,591 438,597 426,601 413,605 397,607 377,610 343,614 309,617 276,620 245,621 214,622 185,622 158,621 132,620 108,617 86,614 66,610 48,605 32,599 19,593 8,585 0,577 1,577 4,576 10,575 17,573 25,572 36,570 48,568 61,567 75,566 90,565 106,565 123,565 141,566 158,569 177,572 195,576 192,574 183,567 169,558 150,548 127,539 100,531 69,526 36,526 35,525 39,520 47,513 60,503 79,490 98,477 118,465 139,452 160,441 181,429 203,419 226,408 248,398 271,388 294,379 318,370 342,361 366,353 390,345 414,337 439,330 463,323 488,317 513,311 538,305 563,300 588,295 612,290 637,286 662,282 686,278 711,275 735,272 759,270 783,268 806,266 808,265 812,261 820,254 830,246 843,236 858,224 874,211 892,198 911,183 930,169 951,155 972,141 993,127 1013,115 1034,104 1053,94 1052,108 1050,142 1051,186 1057,228 1061,228 1072,229 1089,229 1109,229 1131,230 1152,230 1172,229 1189,228 1191,227 1196,223 1203,217 1214,210 1227,201 1241,191 1258,180 1275,169 1294,158 1313,147 1333,137 1352,127 1372,119 1390,112 1408,107 1425,104 1423,120 1421,159 1425,204 1438,241 1442,240 1448,241 1456,242 1465,244 1477,246 1490,248 1504,251 1519,254 1534,256 1550,259 1567,260 1584,262 1600,262 1616,262 1632,261 1647,258 1651,253 1659,244 1670,232 1685,216 1702,198 1721,179 1743,157 1765,135 1788,113 1811,91 1834,71 1857,51 1878,34 1897,19 1914,8 1928,0 1928,12 1926,44 1920,90 1911,144 1906,166 1901,188 1895,210 1887,231 1879,252 1869,271 1859,289 1847,304 1847,304 1848,304 1848,305 1848,306 1848,306 1857,321 1872,348 1892,383 1914,423 1936,466 1956,507 1971,544 1979,573 1977,572 1970,568 1961,562 1948,554 1932,544 1914,533 1895,521 1875,509 1854,495 1833,482 1812,469 1792,456 1774,444 1757,433 1743,423 1732,415 1722,408 1712,400 1700,393 1688,386 1674,380 1660,375 1644,370 1627,367 1608,365 1588,365 1566,367 1543,370 1517,377 1490,385 1460,397 1428,411 1428,415 1429,424 1430,438 1432,455 1436,474 1442,492 1451,509 1462,522 1461,522 1458,523 1454,523 1448,523 1440,523 1430,523 1419,522 1407,520 1393,517 1379,513 1362,507 1345,500 1327,492 1307,481 1287,469 1266,454 1262,455 1251,457 1234,461 1211,466 1184,472 1154,479 1121,486 1087,494 1052,502 1017,510 983,518 952,525 923,532 899,538 880,543 866,547 864,552 860,565 855,585 848,611 845,610 838,606 827,600 813,593 796,584 778,575 760,566 742,556 739,556 732,558 721,560 706,562 688,565 668,569 646,572 624,576 600,580 577,584 554,588 533,592 513,596 496,599 482,602 472,604 473,604 475,602 479,599 483,595 488,589 494,581 499,572 503,560"/>
<polygon class="pen1 brush0" points="218,456 228,458 237,464 243,472 245,482 243,491 237,499 228,504 218,506 207,504 198,499 191,491 189,482 191,472 198,464 207,458 218,456"/>
<polygon class="pen1 brush0" points="1702,310 1627,285 1613,302 1598,285 1583,303 1566,283 1547,303 1533,285 1515,303 1496,286 1479,306 1458,286 1441,304 1424,285 1401,304 1384,283 1360,304 1339,286 1317,310 1292,283 1273,314 1239,283 1219,320 1189,292 1158,331 1123,306 1098,339 1073,313 1042,350 1012,323 983,357 958,330 931,364 910,333 881,370 854,336 827,377 789,344 762,390 759,386 752,377 743,366 735,356 733,356 726,356 716,356 702,357 686,358 668,359 648,361 626,363 604,366 582,370 560,374 539,379 519,385 501,392 485,401 472,410 474,413 478,422 483,435 488,453 491,476 492,501 488,529 478,560 503,560 535,560 569,559 603,557 638,555 674,551 712,546 749,541 788,535 827,529 866,521 906,514 947,505 987,497 1028,487 1069,478 1110,468 1150,458 1191,448 1232,437 1272,427 1312,416 1351,405 1390,395 1428,384 1465,374 1502,364 1538,354 1573,344 1607,335 1640,326 1672,318 1702,310"/>
<polygon class="pen1 brush2" points="512,458 528,456 543,454 557,452 572,451 585,450 599,449 612,448 625,448 637,449 650,450 662,452 674,454 686,458 698,462 710,467 722,473 719,485 706,479 694,474 681,470 669,466 657,463 645,461 633,459 620,458 608,457 596,457 583,457 570,458 557,458 543,459 529,461 515,462 512,458 512,458"/>
<polygon class="pen1 brush2" points="522,472 526,478 546,478 566,479 586,481 605,484 624,488 642,494 660,501 677,509 684,498 675,493 665,489 656,486 647,483 637,480 628,478 618,476 608,474 598,473 588,472 578,471 567,471 556,471 545,471 534,472 522,472 522,472"/>
<polygon class="pen1 brush2" points="525,483 527,491 542,494 555,496 565,498 574,501 582,505 591,511 601,519 614,530 621,519 609,509 599,501 590,496 581,492 571,489 558,487 544,485 525,483 525,483"/>
<polygon class="pen1 brush2" points="500,441 505,445 521,442 536,439 549,436 562,433 573,431 585,429 595,427 606,426 617,426 628,426 639,427 651,429 663,431 677,435 692,439 708,444 712,431 697,426 684,422 671,419 659,417 648,416 637,415 626,414 615,415 604,416 592,418 580,420 567,423 552,427 536,431 519,436 500,441"/>
</g>
</svg>
