<?xml version="1.0" encoding="UTF-8" standalone="no"?>
<!DOCTYPE svg PUBLIC "-//W3C//DTD SVG 1.0//EN" "http://www.w3.org/TR/2001/REC-SVG-20010904/DTD/svg10.dtd">
<svg xmlns="http://www.w3.org/2000/svg" xmlns:xlink="http://www.w3.org/1999/xlink" fill-rule="evenodd" height="1.403in" preserveAspectRatio="none" stroke-linecap="round" viewBox="0 0 1997 1403" width="1.997in">
<style type="text/css">
.brush0 { fill: rgb(255,255,255); }
.pen0 { stroke: rgb(0,0,0); stroke-width: 1; stroke-linejoin: round; }
.brush1 { fill: none; }
.pen1 { stroke: none; }
.brush2 { fill: rgb(0,0,0); }
</style>
<g>
<polygon class="pen1 brush2" points="733,827 710,848 694,872 685,897 683,924 685,951 693,979 705,1006 721,1033 739,1058 760,1082 782,1104 805,1123 829,1139 852,1152 874,1161 895,1165 918,1171 937,1185 953,1203 966,1223 976,1242 983,1259 988,1271 989,1276 1007,1260 1025,1248 1041,1239 1057,1234 1069,1231 1079,1230 1086,1230 1088,1230 1070,1239 1056,1250 1044,1263 1035,1276 1028,1288 1023,1298 1021,1305 1020,1308 1032,1325 1044,1339 1058,1351 1072,1361 1087,1369 1102,1375 1117,1380 1131,1384 1145,1386 1158,1388 1169,1389 1179,1389 1187,1389 1194,1388 1198,1388 1199,1388 1203,1364 1209,1343 1218,1326 1228,1311 1238,1300 1246,1292 1252,1287 1254,1285 1242,1320 1241,1353 1245,1378 1247,1388 1260,1389 1273,1390 1288,1390 1303,1389 1318,1387 1333,1385 1348,1383 1363,1381 1376,1378 1389,1376 1400,1373 1410,1371 1419,1369 1425,1367 1429,1366 1430,1366 1426,1321 1431,1287 1439,1266 1443,1258 1442,1281 1445,1301 1451,1317 1459,1331 1467,1341 1475,1348 1480,1353 1482,1354 1508,1347 1535,1338 1561,1326 1585,1313 1605,1301 1622,1291 1632,1284 1636,1281 1621,1253 1613,1229 1609,1209 1608,1194 1610,1182 1612,1174 1615,1169 1616,1168 1626,1191 1638,1208 1649,1222 1660,1232 1670,1239 1678,1243 1683,1245 1685,1246 1710,1230 1732,1215 1751,1200 1769,1186 1784,1172 1797,1159 1808,1147 1817,1136 1825,1126 1831,1117 1836,1109 1840,1102 1842,1097 1844,1093 1845,1091 1845,1090 1809,1081 1782,1069 1765,1054 1754,1038 1748,1024 1747,1011 1747,1002 1747,999 1769,1019 1792,1034 1813,1044 1833,1050 1850,1054 1864,1056 1873,1056 1876,1056 1910,985 1933,931 1947,892 1955,864 1957,846 1956,836 1954,832 1953,831 1926,835 1901,836 1880,834 1863,831 1849,827 1838,823 1832,820 1830,819 1859,817 1886,813 1909,806 1930,799 1947,792 1959,785 1967,781 1970,779 1976,739 1976,697 1970,655 1962,616 1951,581 1941,555 1933,538 1928,534 1904,556 1880,573 1856,586 1834,595 1815,602 1799,608 1789,611 1784,614 1820,584 1849,556 1871,530 1887,507 1898,488 1905,474 1908,464 1909,461 1900,440 1890,420 1878,400 1865,380 1851,361 1836,342 1822,325 1807,308 1793,293 1780,280 1768,268 1757,257 1748,249 1742,243 1737,239 1736,238 1725,263 1710,292 1692,322 1673,351 1654,377 1639,398 1628,413 1624,418 1635,384 1646,346 1657,307 1668,269 1677,236 1684,209 1688,191 1690,184 1650,159 1612,136 1574,115 1538,96 1502,80 1468,65 1434,52 1402,41 1370,32 1340,24 1310,17 1281,12 1254,8 1227,6 1201,4 1176,3 1152,3 1128,5 1105,8 1083,12 1062,18 1042,24 1023,32 1004,40 986,49 969,59 953,69 938,79 923,90 908,101 895,113 882,124 860,115 837,107 812,100 787,95 761,90 734,86 707,82 680,80 653,78 626,77 599,77 572,78 546,79 521,81 496,83 473,86 456,88 439,91 421,95 404,99 387,103 369,108 352,113 335,119 317,125 300,133 284,140 267,148 251,157 234,167 219,177 203,188 187,199 172,211 157,224 142,237 128,251 114,266 100,282 87,298 75,315 62,333 51,352 40,372 29,392 19,414 9,436 0,459 14,465 23,442 32,420 42,399 52,379 63,360 74,341 86,324 98,307 111,291 123,276 136,261 150,247 164,234 178,222 192,210 207,199 223,188 239,178 255,168 272,159 288,151 305,143 322,136 339,129 356,123 373,118 391,113 408,109 425,105 442,102 460,99 477,97 509,93 541,91 572,90 603,90 632,91 661,93 689,96 715,100 740,104 764,108 786,113 807,118 825,123 842,128 856,133 868,137 860,145 853,152 846,159 839,167 827,165 813,164 796,163 778,163 758,163 736,165 713,166 689,169 664,172 637,177 610,182 582,188 553,195 524,203 495,212 466,222 437,233 408,246 379,259 351,274 323,290 296,308 271,326 246,347 222,368 200,391 180,416 161,442 144,470 129,500 116,531 105,564 119,574 129,542 141,512 156,483 172,456 189,430 209,406 229,384 251,363 274,343 298,325 323,308 349,292 376,278 403,264 430,252 458,241 485,231 513,222 541,214 568,207 595,201 621,196 647,192 672,188 696,185 719,183 740,181 761,180 780,180 797,180 813,181 827,182 802,210 777,236 752,262 727,286 702,309 676,331 651,352 624,373 597,393 570,412 541,431 512,450 482,468 450,486 418,505 384,523 395,553 413,548 440,540 474,529 515,515 561,500 610,483 661,465 713,447 763,429 812,412 857,396 897,382 931,370 957,361 973,355 979,353 595,557 624,584 638,583 659,579 685,573 717,566 751,557 789,548 827,537 867,526 905,516 942,505 976,496 1006,487 1032,480 1051,474 1064,470 1068,469 1072,474 1077,479 1081,484 1086,489 1090,494 1095,498 1099,503 1104,507 1047,507 1025,519 1002,531 978,542 952,552 926,562 898,572 870,580 842,589 813,596 783,604 753,611 724,617 694,623 665,628 636,633 607,638 580,642 553,646 526,649 501,652 478,655 455,658 434,660 415,662 397,663 382,665 368,666 356,667 347,667 341,668 336,668 335,668 372,675 409,679 446,683 481,685 517,686 551,686 585,684 618,681 650,678 682,673 712,668 742,662 771,656 799,648 826,641 852,632 877,624 901,615 924,606 946,598 967,589 986,580 1004,571 1021,563 1037,554 1051,547 1064,539 1076,533 1086,527 1095,521 1102,517 1108,513 1122,525 1136,536 1149,547 1163,556 1177,564 1190,572 1203,578 1216,584 1148,584 1129,598 1108,611 1085,623 1061,635 1035,646 1008,656 980,666 951,675 921,684 891,691 860,699 829,706 797,712 766,718 735,723 705,728 674,733 645,737 617,740 589,743 563,746 539,749 516,751 494,753 475,754 457,756 442,757 429,758 419,758 411,759 407,759 405,759 446,766 486,772 526,776 565,779 603,780 640,779 676,778 712,775 747,771 780,766 813,761 845,754 876,747 906,739 935,731 962,722 989,712 1014,703 1038,693 1061,683 1083,674 1103,664 1122,654 1140,645 1157,636 1172,627 1185,619 1197,612 1208,605 1217,599 1224,594 1230,590 1255,598 1279,604 1302,608 1325,609 1346,609 1366,608 1384,605 1402,602 1417,598 1431,594 1444,590 1454,585 1462,582 1468,579 1472,577 1473,576 1487,585 1506,598 1527,618 1547,646 1562,687 1570,743 1567,817 1550,911 1528,982 1502,1038 1473,1081 1441,1112 1409,1132 1375,1144 1342,1147 1309,1144 1278,1137 1249,1126 1224,1113 1202,1100 1185,1087 1173,1077 1167,1070 1168,1069 1211,1012 1239,958 1252,908 1252,862 1242,821 1224,787 1199,760 1170,742 1154,736 1138,733 1122,732 1106,734 1090,739 1074,747 1060,757 1046,771 1034,789 1024,809 1015,834 1008,862 1003,893 1001,929 1002,969 1006,1013 997,998 987,981 975,962 961,941 947,920 931,899 914,879 897,860 878,843 859,828 839,817 818,809 797,805 776,807 755,814 733,827"/>
<polygon class="pen1 brush0" points="1027,250 1036,249 1044,247 1051,243 1058,238 1063,231 1068,224 1070,215 1071,206 1070,197 1068,189 1063,181 1058,174 1051,169 1044,165 1036,162 1027,161 1018,162 1010,165 1003,169 996,174 991,181 987,189 984,197 983,206 984,215 987,224 991,231 996,238 1003,243 1010,247 1018,249 1027,250"/>
</g>
</svg>
