<?xml version="1.0" encoding="UTF-8" standalone="no"?>
<!DOCTYPE svg PUBLIC "-//W3C//DTD SVG 1.0//EN" "http://www.w3.org/TR/2001/REC-SVG-20010904/DTD/svg10.dtd">
<svg xmlns="http://www.w3.org/2000/svg" xmlns:xlink="http://www.w3.org/1999/xlink" fill-rule="evenodd" height="1.54in" preserveAspectRatio="none" stroke-linecap="round" viewBox="0 0 1990 1540" width="1.99in">
<style type="text/css">
.brush0 { fill: rgb(255,255,255); }
.pen0 { stroke: rgb(0,0,0); stroke-width: 1; stroke-linejoin: round; }
.brush1 { fill: none; }
.pen1 { stroke: none; }
.brush2 { fill: rgb(0,0,0); }
</style>
<g>
<polygon class="pen1 brush2" points="1710,122 1705,101 1691,82 1669,67 1641,54 1608,44 1571,37 1531,33 1491,32 1450,34 1410,38 1373,46 1340,56 1312,69 1290,85 1276,104 1271,125 1276,146 1290,165 1312,180 1340,193 1373,203 1410,210 1450,214 1491,215 1531,213 1571,209 1608,201 1641,191 1669,178 1691,162 1705,143 1710,122 1710,122"/>
<polygon class="pen1 brush2" points="1119,254 1140,230 1161,207 1182,185 1202,165 1221,147 1240,130 1257,115 1273,101 1266,113 1262,125 1261,136 1264,146 1269,156 1276,165 1285,173 1296,181 1307,188 1320,195 1333,200 1345,205 1358,209 1369,213 1380,215 1389,217 1383,228 1375,241 1366,256 1355,274 1342,293 1328,315 1312,337 1295,361 1276,386 1256,412 1234,438 1211,465 1187,492 1161,519 1134,546 1105,572 1103,567 1098,551 1093,526 1089,490 1087,445 1091,391 1101,327 1119,254 1119,254"/>
<polygon class="pen1 brush2" points="1869,274 1888,300 1905,326 1920,351 1934,375 1945,399 1955,422 1964,445 1971,467 1981,509 1985,549 1984,587 1977,622 1968,650 1955,677 1940,702 1921,726 1900,748 1876,768 1850,787 1822,804 1802,815 1781,825 1759,834 1736,842 1713,850 1689,857 1665,863 1640,868 1615,873 1589,877 1564,880 1538,882 1512,884 1485,885 1459,885 1433,885 1408,884 1384,881 1359,879 1335,875 1312,871 1288,866 1265,861 1243,855 1220,848 1199,840 1178,832 1158,823 1138,814 1120,804 1102,793 1085,781 1058,759 1034,734 1013,708 996,679 984,649 975,616 972,581 973,544 977,514 985,483 996,451 1010,417 1028,383 1050,346 1075,309 1105,270 1090,341 1082,404 1080,458 1082,502 1087,538 1092,564 1097,580 1099,585 1129,559 1158,532 1186,504 1212,476 1236,449 1259,421 1281,394 1301,368 1319,343 1336,320 1351,298 1364,277 1375,259 1385,244 1393,230 1399,220 1409,222 1420,223 1430,225 1440,226 1451,226 1462,227 1472,227 1483,227 1494,227 1505,227 1515,226 1526,226 1537,225 1547,223 1558,222 1568,220 1573,232 1581,247 1590,265 1600,285 1613,307 1627,331 1642,357 1660,384 1679,411 1699,440 1721,469 1744,498 1769,526 1795,555 1823,582 1852,609 1855,604 1863,589 1872,564 1881,528 1888,481 1889,424 1884,355 1869,274 1869,274"/>
<polygon class="pen1 brush2" points="1717,111 1732,125 1747,140 1764,156 1781,174 1799,193 1818,213 1836,234 1855,256 1871,337 1879,407 1879,465 1875,512 1868,549 1860,575 1854,590 1852,595 1822,567 1793,539 1766,510 1741,481 1718,452 1697,423 1677,395 1659,368 1642,342 1628,318 1615,295 1604,275 1595,257 1588,241 1582,229 1578,219 1586,217 1596,215 1607,212 1619,208 1632,203 1645,198 1659,192 1672,186 1684,178 1695,171 1704,162 1712,153 1717,143 1720,133 1720,122 1717,111"/>
<polygon class="pen1 brush2" points="490,913 516,916 541,923 563,935 583,951 599,970 612,993 619,1017 622,1044 619,1070 612,1095 599,1117 583,1137 563,1153 541,1165 516,1173 490,1176 463,1173 439,1165 416,1153 397,1137 381,1117 369,1095 362,1070 359,1044 362,1017 369,993 381,970 397,951 416,935 439,923 463,916 490,913 490,913"/>
<polygon class="pen1 brush2" points="92,1328 104,1345 116,1361 129,1376 143,1391 157,1406 172,1419 188,1432 204,1444 215,1452 226,1459 237,1467 248,1473 260,1480 272,1486 284,1492 296,1497 308,1503 320,1508 333,1512 346,1516 359,1520 372,1524 385,1527 398,1530 383,1474 378,1417 382,1363 392,1311 405,1265 420,1226 433,1195 443,1175 434,1171 425,1167 417,1162 408,1156 400,1150 393,1143 386,1136 379,1129 373,1137 366,1147 357,1159 345,1172 332,1187 318,1203 301,1218 284,1234 264,1250 243,1266 221,1280 198,1294 173,1305 147,1315 120,1323 92,1328 92,1328"/>
<polygon class="pen1 brush2" points="27,1189 32,1206 38,1224 44,1241 51,1257 59,1273 67,1289 76,1304 85,1319 113,1314 140,1307 166,1297 191,1285 214,1272 236,1258 257,1242 277,1226 295,1210 311,1195 326,1179 339,1165 350,1151 360,1139 367,1130 373,1122 365,1108 358,1093 352,1078 349,1061 339,1061 325,1062 310,1063 292,1065 273,1068 252,1072 230,1077 207,1083 184,1090 160,1099 136,1109 112,1121 89,1135 67,1151 46,1169 27,1189 27,1189"/>
<polygon class="pen1 brush2" points="149,724 130,744 112,765 96,787 81,809 67,833 55,856 44,881 35,906 25,939 18,972 12,1006 10,1039 9,1074 12,1108 16,1142 24,1176 44,1156 66,1138 89,1122 113,1109 137,1097 162,1087 186,1079 210,1072 234,1066 256,1062 277,1059 296,1056 313,1054 327,1053 339,1052 348,1052 348,1034 351,1016 356,998 363,980 340,971 319,961 299,949 280,935 263,920 247,904 232,887 219,869 207,851 195,832 185,814 176,795 168,776 161,758 154,741 149,724 149,724"/>
<polygon class="pen1 brush2" points="256,643 243,651 229,659 216,667 204,676 191,686 179,696 167,706 156,717 161,733 168,750 175,768 183,786 192,805 202,823 213,842 225,860 239,878 253,895 269,911 286,926 304,940 324,953 345,964 368,973 374,964 381,956 388,948 396,940 405,933 414,927 423,921 433,916 431,892 427,870 421,848 414,827 405,806 394,787 383,768 370,751 357,734 343,718 329,703 314,689 299,676 284,664 270,653 256,643 256,643"/>
<polygon class="pen1 brush2" points="714,642 701,635 688,629 674,623 661,617 647,612 633,607 619,603 605,599 591,596 577,593 563,590 548,588 534,586 519,585 505,584 490,584 476,584 461,585 447,586 432,587 418,589 403,592 389,594 375,598 361,601 347,605 333,610 319,615 305,620 292,626 278,632 265,639 279,649 294,660 309,672 323,685 338,699 353,714 367,730 380,746 393,764 404,783 415,802 424,823 431,844 437,866 441,889 443,913 457,909 470,906 484,905 498,905 512,906 526,909 539,913 552,919 555,907 558,893 563,878 568,861 574,843 580,825 588,806 597,786 607,766 619,747 631,727 645,708 660,690 677,673 695,657 714,642 714,642"/>
<polygon class="pen1 brush2" points="841,740 828,726 814,713 800,701 786,689 771,677 755,666 739,656 723,646 704,661 686,677 669,694 654,713 640,732 628,751 617,771 607,791 598,811 590,830 583,849 577,867 572,883 568,899 564,913 561,925 570,930 578,935 586,941 593,948 599,955 605,963 611,971 615,980 626,974 638,967 652,959 667,950 683,939 699,927 715,913 732,899 749,883 765,866 780,848 795,829 809,808 821,787 832,764 841,740 841,740"/>
<polygon class="pen1 brush2" points="937,1217 947,1185 955,1152 960,1119 963,1086 964,1054 962,1021 959,988 953,956 946,928 937,901 926,874 914,848 900,822 884,797 867,773 848,750 839,774 827,797 815,819 800,839 785,859 769,877 752,894 735,909 718,923 701,937 685,948 669,959 654,968 641,976 629,983 619,988 625,1002 629,1017 631,1031 632,1044 642,1046 655,1048 670,1052 687,1056 706,1062 727,1068 748,1076 771,1085 793,1096 816,1108 839,1121 861,1137 882,1154 902,1173 921,1194 937,1217 937,1217"/>
<polygon class="pen1 brush2" points="869,1348 879,1334 888,1320 897,1305 905,1290 913,1275 920,1260 927,1245 933,1229 917,1206 900,1185 881,1167 861,1149 840,1134 818,1120 796,1108 774,1098 752,1088 730,1080 710,1073 691,1068 673,1063 657,1059 643,1056 632,1054 628,1074 623,1092 614,1109 604,1125 611,1137 619,1150 628,1165 639,1180 651,1196 665,1213 680,1230 696,1247 713,1264 732,1280 752,1295 773,1309 795,1321 819,1332 843,1341 869,1348 869,1348"/>
<polygon class="pen1 brush2" points="551,1534 563,1532 575,1530 586,1527 598,1525 609,1522 621,1518 632,1515 643,1511 653,1507 664,1503 675,1499 685,1494 696,1489 706,1484 716,1479 726,1473 745,1461 764,1449 782,1435 800,1420 816,1405 832,1389 848,1372 862,1355 836,1349 811,1340 788,1330 766,1317 744,1303 725,1289 706,1273 689,1256 672,1239 657,1223 644,1206 632,1190 621,1174 611,1160 603,1147 596,1135 589,1142 582,1148 575,1154 567,1160 559,1165 550,1169 541,1173 531,1176 541,1200 553,1234 565,1275 575,1322 581,1374 580,1427 571,1481 551,1534 551,1534"/>
<polygon class="pen1 brush2" points="540,1534 524,1536 507,1537 491,1538 474,1537 458,1537 441,1535 425,1533 409,1531 394,1476 389,1421 392,1367 401,1316 414,1269 428,1230 442,1198 453,1176 462,1178 470,1180 479,1181 488,1182 497,1182 506,1181 514,1180 523,1179 533,1204 545,1238 557,1279 566,1326 571,1377 569,1429 560,1482 540,1534"/>
</g>
</svg>
