<?xml version="1.0" encoding="UTF-8" standalone="no"?>
<!DOCTYPE svg PUBLIC "-//W3C//DTD SVG 1.0//EN" "http://www.w3.org/TR/2001/REC-SVG-20010904/DTD/svg10.dtd">
<svg xmlns="http://www.w3.org/2000/svg" xmlns:xlink="http://www.w3.org/1999/xlink" fill-rule="evenodd" height="1.107in" preserveAspectRatio="none" stroke-linecap="round" viewBox="0 0 1979 1107" width="1.979in">
<style type="text/css">
.brush0 { fill: rgb(255,255,255); }
.pen0 { stroke: rgb(0,0,0); stroke-width: 1; stroke-linejoin: round; }
.brush1 { fill: none; }
.pen1 { stroke: none; }
.brush2 { fill: rgb(0,0,0); }
</style>
<g>
<polygon class="pen1 brush2" points="1934,216 1918,182 1901,153 1883,130 1864,111 1844,95 1824,84 1804,76 1784,70 1765,67 1747,65 1730,66 1715,67 1702,69 1691,71 1682,73 1677,74 1640,80 1599,86 1556,90 1512,94 1466,97 1420,99 1374,100 1329,100 1285,101 1244,100 1206,99 1171,98 1141,97 1116,95 1096,93 1083,91 1048,84 1009,78 967,74 923,71 878,68 832,67 787,66 742,66 700,66 661,67 625,67 594,68 569,69 549,70 537,71 533,71 522,85 509,98 496,111 484,122 472,132 463,139 457,144 455,146 465,133 476,113 486,89 496,64 505,40 511,19 515,5 517,0 431,61 416,59 396,56 373,52 349,47 326,44 308,40 295,38 290,37 273,55 258,67 246,74 236,77 228,77 223,76 220,75 219,74 216,96 211,116 205,136 198,154 189,171 179,188 168,204 156,219 143,234 130,248 116,262 101,276 87,289 72,303 57,316 42,330 31,343 30,354 35,365 44,374 55,381 66,386 74,390 77,391 101,409 122,417 140,419 154,416 165,410 173,403 177,397 179,395 196,397 213,398 230,397 247,395 264,393 280,389 296,385 311,380 325,376 338,371 349,367 359,363 367,359 373,356 377,355 378,354 389,373 403,399 420,431 437,464 455,495 471,522 483,541 492,550 503,591 518,623 535,649 553,671 571,690 588,709 603,730 614,754 619,780 628,809 640,837 653,864 666,888 677,908 685,920 688,925 688,940 685,959 679,980 673,1001 666,1020 661,1036 657,1047 655,1051 639,1067 631,1085 627,1101 627,1107 701,1104 706,1086 711,1064 715,1047 716,1040 730,1027 741,1011 749,993 755,974 759,957 761,942 762,933 762,929 777,912 792,891 806,866 819,839 831,811 842,782 853,755 863,730 896,737 935,743 979,748 1025,751 1074,753 1125,753 1175,754 1225,753 1272,752 1317,750 1358,749 1394,747 1423,746 1446,744 1460,743 1465,743 1449,793 1445,822 1449,833 1460,831 1473,821 1486,809 1496,798 1500,793 1508,798 1517,802 1527,805 1538,808 1548,811 1556,813 1561,814 1563,814 1548,855 1545,876 1551,882 1563,877 1578,866 1592,853 1603,842 1607,837 1618,836 1630,833 1643,830 1655,825 1665,821 1673,818 1679,815 1681,814 1648,775 1620,736 1595,697 1575,659 1558,621 1545,584 1534,549 1526,516 1520,485 1516,457 1514,433 1513,412 1512,394 1512,382 1513,374 1513,371 1519,417 1528,462 1541,504 1556,545 1573,583 1592,620 1612,653 1633,685 1653,713 1673,739 1691,762 1708,781 1723,797 1735,810 1744,820 1749,825 1759,850 1764,884 1766,915 1766,928 1756,944 1747,961 1739,979 1733,995 1728,1010 1724,1022 1722,1030 1721,1033 1709,1041 1699,1052 1691,1064 1684,1076 1679,1088 1675,1098 1673,1105 1672,1107 1769,1107 1779,1102 1786,1094 1792,1084 1795,1073 1797,1063 1799,1054 1799,1048 1799,1046 1807,1038 1814,1028 1821,1017 1827,1005 1832,993 1835,981 1836,969 1834,959 1830,925 1828,866 1828,795 1830,723 1833,696 1837,671 1843,649 1851,628 1859,609 1869,589 1879,568 1890,546 1896,572 1898,597 1898,624 1897,651 1893,718 1894,775 1898,822 1903,860 1909,890 1915,910 1919,922 1921,926 1936,895 1946,856 1951,811 1952,763 1950,715 1945,671 1939,634 1932,605 1923,561 1923,514 1928,463 1936,410 1943,358 1947,307 1945,260 1934,216 1934,216"/>
<polygon class="pen1 brush2" points="86,84 94,89 106,94 121,98 137,101 153,103 167,103 180,101 188,97 188,102 187,113 184,127 178,138 175,138 168,137 157,135 144,133 131,130 119,127 108,123 101,119 94,109 89,97 87,88 86,84"/>
<polygon class="pen1 brush0" points="1719,181 1711,211 1708,239 1708,264 1708,286 1705,305 1697,321 1683,334 1658,344 1632,347 1616,339 1609,324 1608,304 1610,281 1613,259 1615,239 1614,225 1608,215 1600,205 1592,196 1584,186 1578,177 1574,167 1573,156 1577,144 1582,138 1589,133 1598,130 1609,127 1621,126 1635,126 1648,127 1662,128 1675,131 1687,135 1698,140 1708,146 1715,154 1719,162 1721,171 1719,181 1719,181"/>
<polygon class="pen1 brush0" points="1313,243 1329,242 1345,239 1358,235 1371,231 1383,227 1395,222 1405,218 1415,214 1425,211 1434,209 1443,209 1452,210 1460,213 1469,218 1478,226 1488,237 1501,260 1500,277 1489,290 1471,298 1449,305 1427,311 1408,317 1395,324 1388,333 1382,344 1376,355 1370,366 1364,375 1356,382 1346,387 1333,388 1319,381 1306,364 1295,342 1287,315 1284,289 1286,266 1296,250 1313,243 1313,243"/>
<polygon class="pen1 brush0" points="1631,493 1596,459 1576,448 1568,455 1568,473 1574,500 1582,528 1592,554 1598,571 1619,615 1641,646 1664,666 1688,675 1712,675 1736,668 1759,655 1781,637 1801,616 1820,593 1836,570 1850,547 1861,527 1868,510 1872,498 1871,493 1852,480 1839,462 1832,442 1830,420 1832,396 1836,371 1842,347 1850,324 1852,307 1846,293 1835,282 1819,275 1802,273 1785,278 1770,289 1760,308 1752,328 1741,354 1726,384 1709,415 1690,444 1670,468 1650,486 1631,493 1631,493"/>
<polygon class="pen1 brush0" points="1492,600 1488,590 1477,567 1462,536 1442,504 1418,476 1393,460 1365,460 1337,483 1323,499 1304,513 1283,527 1258,539 1232,549 1204,558 1175,565 1145,570 1116,573 1088,573 1061,571 1036,566 1014,558 995,546 980,531 969,513 960,488 954,465 950,444 948,425 946,408 945,392 944,378 942,365 938,354 932,344 923,335 910,328 893,322 871,317 844,313 810,310 804,303 799,287 795,264 792,237 789,210 785,185 780,164 773,152 762,143 749,136 735,131 720,129 707,131 696,138 690,150 688,168 690,180 694,195 700,211 706,227 712,244 718,262 722,278 725,294 727,330 723,351 714,359 702,359 687,354 671,349 655,347 640,351 633,357 631,365 632,373 636,382 643,392 652,403 663,414 675,425 689,437 704,449 719,460 734,472 748,483 762,493 774,504 785,513 790,524 797,548 804,580 808,614 804,645 792,668 768,677 728,668 716,661 705,650 695,637 684,624 674,610 663,598 651,588 638,581 618,577 599,578 584,583 572,591 566,602 567,616 576,630 594,646 620,667 641,690 657,715 670,741 679,770 686,800 692,833 696,867 701,885 711,897 723,903 736,901 750,891 762,870 772,838 779,794 783,783 792,775 804,769 816,763 827,756 835,748 838,736 833,719 826,699 824,685 825,675 831,670 838,667 848,668 859,671 871,675 903,687 939,696 980,704 1023,711 1069,716 1115,719 1162,722 1207,724 1251,725 1292,725 1329,725 1362,724 1389,723 1409,723 1422,722 1427,722 1435,721 1449,717 1467,710 1485,700 1499,685 1508,663 1506,636 1492,600"/>
<polygon class="pen1 brush0" points="240,121 255,120 270,117 285,112 299,105 312,98 325,91 337,84 347,77 355,72 362,71 367,73 371,77 373,82 374,89 373,97 371,105 366,112 357,120 345,126 331,132 316,137 301,140 286,141 273,141 262,139 254,137 248,133 244,130 242,127 241,124 240,122 240,121 240,121"/>
<polygon class="pen1 brush0" points="273,246 283,244 290,239 295,230 297,220 295,211 290,203 283,198 273,196 264,198 256,203 251,211 249,220 251,230 256,239 264,244 273,246"/>
</g>
</svg>
