<?xml version="1.0" encoding="UTF-8" standalone="no"?>
<!DOCTYPE svg PUBLIC "-//W3C//DTD SVG 1.0//EN" "http://www.w3.org/TR/2001/REC-SVG-20010904/DTD/svg10.dtd">
<svg xmlns="http://www.w3.org/2000/svg" xmlns:xlink="http://www.w3.org/1999/xlink" fill-rule="evenodd" height="1.853in" preserveAspectRatio="none" stroke-linecap="round" viewBox="0 0 1969 1853" width="1.969in">
<style type="text/css">
.brush0 { fill: rgb(255,255,255); }
.pen0 { stroke: rgb(0,0,0); stroke-width: 1; stroke-linejoin: round; }
.brush1 { fill: none; }
.pen1 { stroke: none; }
.brush2 { fill: rgb(0,0,0); }
</style>
<g>
<polygon class="pen1 brush2" points="614,1131 614,1118 617,1106 621,1094 627,1084 635,1074 644,1065 655,1058 667,1050 680,1044 694,1038 709,1033 724,1029 740,1025 757,1022 774,1019 791,1017 770,950 764,948 758,946 753,942 748,938 744,933 741,928 740,922 739,915 740,908 742,901 745,895 749,889 755,884 761,881 768,879 776,878 783,879 790,881 796,884 801,889 805,895 808,901 810,908 811,915 809,926 804,936 795,944 784,949 807,1014 821,1013 835,1012 848,1011 862,1010 875,1010 889,1010 901,1010 914,1010 902,983 899,957 901,938 902,930 915,930 914,938 913,957 915,983 926,1010 943,1010 958,1010 973,1010 987,1010 1000,1010 1015,1010 1030,1010 1047,1010 1057,982 1061,956 1062,937 1064,930 1071,930 1072,937 1073,956 1071,982 1060,1010 1069,1009 1079,1009 1089,1009 1100,1008 1111,1009 1122,1009 1133,1009 1145,1010 1168,943 1159,937 1152,930 1147,921 1145,910 1146,902 1148,895 1151,889 1156,884 1162,879 1168,876 1175,874 1182,873 1189,874 1196,876 1202,879 1208,884 1213,889 1216,895 1218,902 1219,910 1218,917 1216,924 1213,930 1208,935 1202,940 1196,943 1189,945 1182,946 1182,946 1161,1010 1179,1012 1197,1014 1215,1017 1233,1020 1250,1024 1266,1029 1282,1034 1297,1040 1310,1047 1322,1055 1333,1064 1342,1074 1349,1086 1354,1098 1357,1111 1357,1126 1353,1187 1347,1244 1341,1297 1332,1347 1321,1392 1308,1434 1293,1471 1274,1505 1252,1534 1227,1560 1198,1582 1165,1599 1127,1613 1085,1623 1038,1628 985,1630 933,1628 886,1621 844,1611 806,1597 773,1580 744,1558 719,1533 697,1504 679,1471 663,1434 650,1393 639,1349 631,1300 624,1248 618,1191 614,1131 614,1131"/>
<polygon class="pen1 brush2" points="1374,1300 1524,1247 1550,1263 1561,1234 1716,1183 1750,1204 1760,1169 1824,1142 1854,1145 1858,1118 1862,1114 1872,1104 1887,1089 1904,1070 1920,1050 1935,1030 1945,1012 1949,997 1948,1003 1945,1018 1940,1041 1933,1068 1924,1097 1914,1125 1903,1149 1891,1168 1861,1166 1854,1196 1793,1226 1760,1222 1739,1250 1594,1298 1564,1287 1547,1314 1375,1349 1375,1347 1376,1339 1376,1324 1374,1300 1374,1300"/>
<polygon class="pen1 brush2" points="1367,1366 1588,1356 1610,1391 1655,1358 1774,1389 1783,1429 1818,1422 1901,1497 1892,1525 1926,1530 1928,1535 1933,1548 1939,1568 1946,1592 1953,1618 1958,1645 1960,1671 1958,1693 1956,1688 1951,1675 1942,1656 1931,1634 1918,1611 1904,1589 1888,1570 1872,1558 1871,1534 1841,1531 1770,1481 1769,1450 1736,1469 1622,1436 1608,1412 1581,1435 1364,1415 1364,1411 1364,1401 1365,1386 1367,1366 1367,1366"/>
<polygon class="pen1 brush2" points="1355,1446 1353,1459 1349,1470 1345,1478 1343,1481 1489,1541 1537,1521 1547,1554 1604,1609 1631,1608 1615,1642 1641,1691 1668,1706 1652,1733 1657,1762 1656,1800 1653,1832 1651,1846 1677,1808 1694,1778 1704,1755 1709,1739 1710,1728 1709,1722 1707,1719 1706,1718 1689,1696 1709,1674 1688,1605 1652,1599 1655,1564 1584,1500 1553,1510 1547,1480 1355,1446 1355,1446"/>
<polygon class="pen1 brush2" points="1325,1508 1318,1517 1308,1525 1300,1531 1297,1533 1398,1624 1425,1624 1416,1640 1441,1713 1458,1723 1442,1745 1441,1756 1437,1769 1431,1781 1423,1792 1415,1803 1409,1811 1404,1816 1402,1818 1423,1812 1441,1803 1458,1793 1472,1781 1484,1770 1493,1761 1498,1754 1500,1752 1487,1725 1507,1706 1479,1608 1450,1605 1453,1578 1325,1508 1325,1508"/>
<polygon class="pen1 brush2" points="594,1307 442,1254 416,1270 405,1241 252,1189 218,1210 209,1176 144,1149 112,1152 111,1125 107,1121 97,1111 82,1095 66,1077 49,1057 34,1037 24,1019 20,1004 21,1010 24,1025 29,1048 36,1074 44,1103 54,1131 65,1156 77,1175 107,1172 112,1203 175,1233 209,1229 229,1257 374,1304 404,1294 422,1321 593,1356 593,1354 592,1346 593,1331 594,1307 594,1307"/>
<polygon class="pen1 brush2" points="601,1378 379,1368 358,1402 313,1369 193,1399 185,1440 149,1432 67,1507 75,1537 41,1541 39,1546 35,1559 29,1579 22,1603 15,1629 11,1656 8,1681 10,1703 12,1698 17,1685 26,1667 37,1644 50,1621 64,1599 79,1581 95,1568 98,1544 125,1543 198,1493 199,1460 233,1480 345,1447 361,1423 387,1446 604,1426 604,1422 604,1412 603,1397 601,1378 601,1378"/>
<polygon class="pen1 brush2" points="612,1452 422,1487 415,1517 385,1506 313,1571 316,1605 280,1612 259,1679 279,1703 263,1725 262,1726 260,1729 259,1735 260,1746 264,1762 274,1784 291,1814 317,1853 315,1839 311,1807 310,1769 316,1740 300,1713 325,1696 351,1649 337,1615 362,1616 422,1561 431,1527 477,1548 625,1489 623,1486 619,1478 615,1466 612,1452 612,1452"/>
<polygon class="pen1 brush2" points="647,1518 520,1588 522,1616 493,1618 465,1716 485,1737 472,1762 474,1764 479,1771 488,1780 500,1791 514,1803 531,1814 549,1824 570,1830 568,1828 563,1822 557,1814 549,1803 541,1791 535,1779 531,1767 530,1755 514,1733 531,1723 556,1652 547,1635 574,1635 675,1543 672,1541 664,1535 654,1527 647,1518 647,1518"/>
<polygon class="pen1 brush2" points="584,1251 534,1243 493,1234 459,1223 432,1212 411,1200 395,1188 384,1176 377,1164 373,1152 372,1141 373,1131 376,1122 379,1115 382,1110 384,1106 385,1105 324,1118 315,1113 303,1104 288,1093 270,1079 250,1062 228,1044 207,1025 185,1004 169,983 162,964 164,947 171,933 183,923 199,919 216,921 233,930 252,944 275,958 300,972 325,985 348,997 367,1006 380,1012 385,1014 402,1057 445,1027 584,1112 583,1151 583,1196 584,1235 584,1251 584,1251"/>
<polygon class="pen1 brush2" points="324,484 298,518 273,551 251,585 231,618 213,650 198,682 185,712 175,741 168,768 163,793 162,816 163,837 168,854 176,869 187,881 202,889 264,909 319,918 368,919 410,911 446,897 477,877 503,853 524,825 541,794 554,763 563,731 570,701 574,672 576,647 576,626 575,611 571,590 566,574 561,559 558,542 558,520 563,488 574,443 593,381 608,345 631,311 659,277 693,245 730,214 769,185 811,158 852,132 893,110 932,89 969,71 1001,56 1028,44 1048,35 1061,30 1066,28 1048,26 1028,26 1008,27 988,29 966,33 944,38 922,44 899,52 875,60 851,70 827,81 802,93 777,106 752,120 726,135 701,150 676,167 650,184 625,202 599,221 574,240 549,260 525,281 500,302 476,323 453,345 430,368 407,390 386,413 364,437 344,460 324,484 324,484"/>
<polygon class="pen1 brush2" points="594,524 598,524 610,522 628,519 653,514 682,507 715,498 750,485 788,470 827,451 865,428 903,401 939,370 971,334 1000,292 1025,246 1043,193 1042,198 1040,212 1037,233 1030,261 1022,293 1010,330 994,370 975,411 951,452 922,492 888,530 848,565 802,595 750,619 691,636 624,645 622,643 618,637 613,627 607,614 601,597 596,576 594,552 594,524 594,524"/>
<polygon class="pen1 brush2" points="1382,1156 1466,1092 1466,1068 1489,1062 1517,947 1511,949 1505,950 1499,950 1493,950 1488,950 1484,950 1481,950 1480,950 1448,1030 1453,1051 1432,1047 1382,1102 1383,1116 1383,1134 1382,1150 1382,1156 1382,1156"/>
<polygon class="pen1 brush2" points="1391,795 1392,801 1396,818 1403,841 1414,868 1428,894 1445,917 1467,932 1493,936 1509,931 1519,921 1523,908 1524,893 1522,877 1518,863 1514,850 1509,842 1505,843 1495,846 1480,848 1462,848 1442,845 1423,836 1405,820 1391,795 1391,795"/>
<polygon class="pen1 brush2" points="1443,778 1459,781 1472,788 1483,797 1491,807 1496,817 1500,826 1502,833 1503,835 1496,837 1489,838 1482,839 1476,839 1470,839 1465,839 1461,839 1459,839 1461,819 1455,799 1447,784 1443,778"/>
</g>
</svg>
