<?xml version="1.0" encoding="UTF-8" standalone="no"?>
<!DOCTYPE svg PUBLIC "-//W3C//DTD SVG 1.0//EN" "http://www.w3.org/TR/2001/REC-SVG-20010904/DTD/svg10.dtd">
<svg xmlns="http://www.w3.org/2000/svg" xmlns:xlink="http://www.w3.org/1999/xlink" fill-rule="evenodd" height="1.419in" preserveAspectRatio="none" stroke-linecap="round" viewBox="0 0 1979 1419" width="1.979in">
<style type="text/css">
.brush0 { fill: rgb(255,255,255); }
.pen0 { stroke: rgb(0,0,0); stroke-width: 1; stroke-linejoin: round; }
.brush1 { fill: none; }
.pen1 { stroke: none; }
.brush2 { fill: rgb(0,0,0); }
</style>
<g>
<polygon class="pen1 brush2" points="1117,820 1123,831 1130,844 1138,857 1146,871 1154,886 1161,900 1167,913 1172,926 1174,925 1180,923 1190,919 1203,914 1219,907 1239,899 1261,890 1285,880 1312,869 1341,857 1371,845 1403,832 1436,818 1471,804 1506,789 1541,774 1577,759 1613,744 1648,729 1683,714 1718,699 1751,684 1783,670 1814,656 1843,643 1870,631 1895,619 1918,608 1938,598 1955,589 1969,581 1979,574 1978,569 1974,556 1968,537 1959,513 1537,719 1535,710 1956,506 1950,490 1943,474 1936,458 1928,442 1513,671 1508,665 1925,435 1918,418 1910,401 1903,387 1897,375 1117,820 1117,820"/>
<polygon class="pen1 brush2" points="490,1419 485,1419 485,1418 490,1417 499,1415 512,1413 528,1411 545,1408 565,1405 585,1402 605,1399 625,1395 644,1391 661,1387 675,1383 686,1378 694,1374 706,1360 719,1338 734,1312 747,1283 758,1254 765,1229 767,1208 762,1196 754,1188 747,1181 740,1175 735,1169 731,1164 728,1161 726,1159 725,1158 827,1158 745,1378 900,1419 895,1419 883,1419 863,1419 837,1419 807,1419 772,1419 736,1419 698,1419 660,1419 623,1419 589,1419 557,1419 531,1419 510,1419 496,1419 490,1419 490,1419"/>
<polygon class="pen1 brush2" points="120,369 132,356 147,337 165,314 184,288 206,259 228,228 250,196 273,163 294,132 315,102 334,74 350,50 364,29 375,14 382,4 384,0 316,190 381,104 358,226 395,185 384,250 387,256 396,274 409,300 425,332 441,368 457,404 472,439 483,470 485,471 491,473 500,476 512,481 527,487 545,495 565,503 588,513 612,524 638,536 666,549 695,563 725,578 755,594 786,611 818,629 849,648 880,667 910,687 940,708 969,729 997,751 1023,774 1047,797 1070,821 1090,845 1108,869 1123,894 1135,919 1144,944 1150,970 1152,996 1151,999 1146,1003 1139,1006 1130,1009 1118,1012 1103,1014 1087,1016 1069,1018 1049,1019 1027,1019 1004,1019 980,1017 954,1015 928,1012 901,1007 873,1002 844,995 815,986 786,976 757,965 728,952 699,937 671,920 643,901 616,881 589,858 564,833 540,806 517,776 496,744 477,709 459,672 445,693 446,697 450,707 458,723 468,743 483,768 502,795 525,825 554,857 588,888 627,920 673,950 725,978 784,1003 850,1024 924,1040 1005,1051 1004,1052 1000,1054 993,1058 984,1062 972,1068 959,1074 943,1081 925,1088 906,1096 884,1103 861,1110 837,1117 811,1123 784,1129 756,1133 727,1137 696,1139 665,1140 634,1139 602,1136 569,1131 536,1124 503,1115 470,1102 436,1088 403,1070 371,1049 338,1025 306,997 275,966 245,930 215,891 197,860 182,827 170,792 161,756 155,719 152,682 150,646 151,611 145,601 136,584 128,563 124,537 178,438 120,369 120,369"/>
<polygon class="pen1 brush2" points="107,381 89,391 70,406 52,423 36,440 21,456 10,470 3,479 0,483 0,483 1,483 2,483 2,483 11,483 20,482 30,481 39,480 48,479 58,477 67,475 76,473 86,470 96,468 106,465 116,461 126,458 136,454 146,450 155,446 155,446 107,381 107,381"/>
<polygon class="pen1 brush2" points="148,466 139,470 130,473 121,477 113,480 104,483 95,486 86,488 77,490 69,491 61,493 53,494 45,495 36,496 28,497 20,498 12,499 28,508 45,516 61,522 75,527 88,530 98,532 105,534 107,534 148,466"/>
<polygon class="pen1 brush0" points="911,828 901,833 891,837 881,841 871,845 860,849 850,852 840,855 830,858 814,861 798,863 782,865 766,866 750,867 735,867 718,867 702,867 702,866 702,864 702,863 702,862 702,861 702,861 702,860 702,858 718,858 734,858 750,857 766,857 781,856 797,854 813,851 829,848 838,846 848,843 858,840 867,837 877,834 887,831 896,827 905,823 911,827 911,828 911,828"/>
<polygon class="pen1 brush0" points="837,760 828,764 819,767 810,771 801,774 792,777 782,780 773,782 763,784 747,787 732,790 716,792 700,793 684,793 667,794 651,794 635,794 635,793 635,792 635,790 635,790 635,789 635,788 635,787 635,786 651,786 667,786 683,785 699,784 715,783 731,781 747,779 762,776 771,774 779,771 788,769 796,766 804,763 813,760 821,757 830,753 837,760 837,760"/>
<polygon class="pen1 brush0" points="769,696 761,699 754,701 746,704 739,706 731,709 724,711 716,713 708,715 693,718 677,720 661,722 645,723 629,724 613,725 596,725 580,725 580,724 580,722 580,721 580,720 580,719 580,718 580,717 580,716 596,716 612,716 628,715 644,715 659,714 675,712 691,709 706,706 713,704 720,703 727,701 734,699 741,696 748,694 755,692 762,689 769,696"/>
<polygon class="pen1 brush0" points="250,419 260,417 269,412 274,404 276,394 274,384 269,375 260,370 250,368 241,370 234,375 228,384 226,394 228,404 234,412 241,417 250,419"/>
</g>
</svg>
