<?xml version="1.0" encoding="UTF-8" standalone="no"?>
<!DOCTYPE svg PUBLIC "-//W3C//DTD SVG 1.0//EN" "http://www.w3.org/TR/2001/REC-SVG-20010904/DTD/svg10.dtd">
<svg xmlns="http://www.w3.org/2000/svg" xmlns:xlink="http://www.w3.org/1999/xlink" fill-rule="evenodd" height="0.973in" preserveAspectRatio="none" stroke-linecap="round" viewBox="0 0 1978 973" width="1.978in">
<style type="text/css">
.brush0 { fill: rgb(255,255,255); }
.pen0 { stroke: rgb(0,0,0); stroke-width: 1; stroke-linejoin: round; }
.brush1 { fill: none; }
.pen1 { stroke: none; }
.brush2 { fill: rgb(0,0,0); }
</style>
<g>
<polygon class="pen1 brush2" points="0,210 3,210 13,212 29,214 49,216 73,219 100,222 128,226 158,229 188,233 218,237 246,240 271,243 294,246 312,248 325,250 332,251 344,252 360,253 379,254 401,255 423,256 445,256 466,256 484,255 495,254 511,253 532,251 556,249 583,247 613,244 643,240 675,237 706,234 736,231 765,227 792,224 816,222 836,220 851,218 862,217 863,215 867,209 874,200 883,188 894,173 907,157 922,139 939,120 957,102 976,83 996,65 1018,47 1040,32 1062,19 1086,8 1109,0 1102,4 1085,17 1061,38 1035,65 1010,98 990,137 979,180 981,227 982,227 985,227 991,227 998,228 1007,230 1019,232 1031,235 1046,238 1062,243 1080,247 1099,253 1119,259 1141,266 1163,274 1187,283 1211,293 1236,304 1262,315 1289,328 1316,342 1344,356 1372,372 1400,389 1429,408 1457,427 1486,448 1514,469 1543,493 1571,517 1598,543 1625,570 1652,599 1653,598 1657,594 1664,589 1674,582 1687,573 1703,564 1721,554 1741,543 1764,533 1789,523 1816,513 1845,505 1875,498 1907,492 1940,488 1974,487 1970,488 1957,491 1938,497 1913,506 1884,518 1853,535 1821,555 1791,580 1762,609 1737,644 1718,683 1706,729 1703,780 1710,838 1728,902 1760,973 1754,966 1738,948 1716,918 1692,880 1668,834 1648,783 1636,728 1636,670 1633,669 1626,665 1614,659 1600,652 1583,644 1564,636 1545,630 1526,624 1509,621 1493,621 1480,624 1471,631 1466,643 1466,660 1473,684 1487,714 1483,712 1474,705 1460,694 1444,680 1427,664 1411,644 1398,622 1389,599 1384,598 1370,595 1348,590 1319,583 1285,575 1247,566 1206,557 1164,547 1121,537 1080,527 1040,517 1005,509 974,501 949,495 932,490 923,487 925,489 929,495 937,503 946,513 957,524 969,534 981,544 994,552 995,555 996,562 999,573 1003,586 1008,600 1014,615 1020,628 1027,640 1022,638 1010,632 991,621 968,606 942,586 917,561 893,532 873,497 869,496 859,492 845,487 827,480 809,472 790,465 774,457 762,450 765,446 771,435 779,419 785,399 789,378 788,355 779,334 760,316 761,322 763,338 764,361 762,390 757,402 750,412 743,420 734,427 721,432 706,436 687,437 663,436 646,432 630,427 615,421 601,414 588,406 577,396 566,386 558,375 561,374 568,373 580,370 594,367 609,364 626,362 641,360 656,360 650,359 632,354 604,348 567,339 524,329 475,318 423,306 368,294 312,282 257,270 205,259 156,249 113,240 77,234 49,229 31,228 0,210"/>
<polygon class="pen1 brush0" points="662,306 670,305 676,300 680,294 681,286 680,278 676,272 670,268 662,267 654,268 648,272 643,278 642,286 643,294 648,300 654,305 662,306"/>
<polygon class="pen1 brush0" points="801,299 799,297 801,297 807,297 817,299 830,302 846,305 865,310 886,315 910,321 935,328 963,336 992,345 1023,354 1055,364 1088,374 1122,385 1156,397 1190,408 1224,421 1258,434 1292,447 1325,460 1356,474 1387,488 1416,502 1444,516 1470,531 1493,545 1515,560 1533,574 1549,589 1562,603 1560,603 1555,601 1546,599 1535,597 1520,593 1503,589 1483,584 1462,579 1438,573 1412,567 1385,561 1356,554 1327,547 1296,539 1265,531 1233,523 1201,516 1168,507 1136,499 1104,491 1073,483 1042,476 1013,468 984,460 957,453 932,446 908,440 887,434 867,428 851,423 836,418 825,414 828,396 827,377 825,359 821,342 816,327 811,314 806,305 801,299"/>
</g>
</svg>
