<?xml version="1.0" encoding="UTF-8" standalone="no"?>
<!DOCTYPE svg PUBLIC "-//W3C//DTD SVG 1.0//EN" "http://www.w3.org/TR/2001/REC-SVG-20010904/DTD/svg10.dtd">
<svg xmlns="http://www.w3.org/2000/svg" xmlns:xlink="http://www.w3.org/1999/xlink" fill-rule="evenodd" height="0.652in" preserveAspectRatio="none" stroke-linecap="round" viewBox="0 0 1980 652" width="1.98in">
<style type="text/css">
.brush0 { fill: rgb(255,255,255); }
.pen0 { stroke: rgb(0,0,0); stroke-width: 1; stroke-linejoin: round; }
.brush1 { fill: none; }
.pen1 { stroke: none; }
.brush2 { fill: rgb(0,0,0); }
</style>
<g>
<polygon class="pen1 brush2" points="450,129 437,126 423,122 408,119 393,115 377,111 361,107 344,103 328,100 311,97 295,95 279,93 263,93 248,93 234,95 220,98 208,102 204,100 195,95 180,90 162,85 142,83 122,85 103,94 86,111 85,111 82,110 77,109 71,109 64,108 57,108 49,109 41,110 35,111 29,113 23,116 18,120 14,125 11,131 9,138 8,146 8,180 8,203 8,216 8,220 39,192 136,243 72,257 35,232 34,234 30,240 27,249 24,259 25,271 29,284 38,296 55,307 69,314 86,322 106,331 127,340 149,349 173,358 197,367 222,376 247,385 271,392 296,399 319,404 341,408 361,411 380,412 396,411 402,396 408,380 417,364 427,348 440,334 456,323 476,314 500,310 494,313 483,323 469,340 454,362 438,388 424,416 413,446 406,476 252,571 335,567 302,608 393,578 363,619 444,591 433,621 436,620 445,618 458,614 473,610 489,606 505,601 518,597 528,594 537,591 547,587 557,580 567,572 576,563 584,551 589,537 592,521 594,505 596,490 599,477 603,466 607,457 612,450 618,445 625,443 628,444 637,448 651,453 671,460 695,468 724,476 757,484 793,491 833,497 877,502 922,505 971,505 1021,502 1073,495 1126,484 1180,469 1180,467 1182,460 1184,450 1187,438 1192,425 1199,412 1207,401 1218,392 1216,396 1211,405 1207,420 1205,439 1209,461 1222,483 1245,506 1282,527 1150,602 1245,590 1197,645 1294,601 1264,652 1325,607 1312,652 1317,649 1329,642 1346,631 1367,618 1388,605 1407,592 1422,581 1430,574 1436,568 1444,560 1451,550 1456,537 1457,521 1452,503 1441,481 1420,456 1407,431 1402,398 1405,368 1413,351 1417,351 1422,352 1428,356 1436,361 1445,367 1455,374 1467,381 1479,389 1492,398 1505,406 1520,414 1535,421 1550,427 1566,433 1582,437 1599,439 1616,440 1635,441 1656,441 1677,441 1700,440 1724,438 1748,435 1773,431 1799,426 1825,421 1851,414 1878,406 1904,396 1930,386 1955,374 1980,361 1899,348 1899,307 1821,321 1839,283 1754,294 1762,254 1669,262 1693,217 1600,229 1625,182 1542,195 1562,155 1403,196 1399,222 1389,241 1377,254 1363,261 1349,266 1337,267 1329,267 1326,267 1319,289 1306,306 1291,318 1274,326 1257,331 1243,332 1234,332 1230,330 1222,355 1206,374 1186,387 1163,395 1140,400 1120,402 1106,402 1100,401 1074,423 1048,436 1022,440 997,439 976,434 959,428 948,423 944,421 919,432 895,435 872,433 852,427 835,419 822,411 814,404 811,402 782,409 756,410 732,405 712,397 696,387 683,378 676,371 673,368 647,369 627,362 610,351 597,337 588,323 582,310 579,301 578,297 559,292 544,282 532,271 523,257 516,245 511,234 509,226 508,223 492,217 478,207 468,195 460,181 455,166 451,152 450,139 450,129 450,129"/>
<polygon class="pen1 brush2" points="475,119 489,111 504,104 518,97 532,90 546,83 561,77 575,71 589,65 603,60 617,55 631,50 644,45 658,41 672,37 686,33 700,30 716,26 733,22 749,19 765,16 781,13 797,11 813,8 829,7 844,5 860,4 875,3 890,3 906,2 920,2 935,3 950,3 968,4 985,5 1002,7 1019,9 1035,11 1052,13 1068,16 1084,19 1099,22 1115,25 1130,28 1145,32 1159,35 1173,39 1187,43 1201,47 1226,55 1250,63 1272,71 1293,80 1313,88 1331,96 1348,104 1363,111 1377,118 1389,125 1399,131 1408,135 1414,139 1419,142 1422,144 1423,145 1418,156 1413,165 1406,172 1400,176 1395,180 1390,182 1387,183 1386,183 1382,208 1373,226 1361,239 1348,247 1335,251 1323,253 1315,253 1312,253 1305,273 1293,289 1278,300 1261,308 1244,313 1230,316 1221,317 1217,317 1209,341 1193,358 1173,370 1150,377 1128,382 1109,384 1095,384 1090,384 1065,405 1040,417 1014,421 990,420 969,415 953,409 942,404 938,402 915,413 892,416 870,414 850,408 833,401 820,393 811,387 808,385 780,392 754,392 731,386 712,378 695,368 683,358 676,351 673,348 649,349 630,344 615,334 604,322 597,309 592,298 590,289 589,286 571,281 557,271 545,258 536,243 530,229 525,218 523,209 522,206 503,199 490,188 482,174 477,158 475,144 474,131 475,122 475,119"/>
<polygon class="pen1 brush0" points="146,156 156,154 164,149 169,141 171,131 169,121 164,112 156,106 146,104 135,106 127,112 121,121 119,131 121,141 127,149 135,154 146,156"/>
<polygon class="pen1 brush0" points="258,307 275,278 284,248 289,218 288,190 285,166 280,146 273,134 267,129 266,146 270,190 270,248 258,307"/>
</g>
</svg>
