<?xml version="1.0" encoding="UTF-8" standalone="no"?>
<!DOCTYPE svg PUBLIC "-//W3C//DTD SVG 1.0//EN" "http://www.w3.org/TR/2001/REC-SVG-20010904/DTD/svg10.dtd">
<svg xmlns="http://www.w3.org/2000/svg" xmlns:xlink="http://www.w3.org/1999/xlink" fill-rule="evenodd" height="0.916in" preserveAspectRatio="none" stroke-linecap="round" viewBox="0 0 1976 916" width="1.976in">
<style type="text/css">
.brush0 { fill: rgb(255,255,255); }
.pen0 { stroke: rgb(0,0,0); stroke-width: 1; stroke-linejoin: round; }
.brush1 { fill: none; }
.pen1 { stroke: none; }
.brush2 { fill: rgb(0,0,0); }
</style>
<g>
<polygon class="pen1 brush2" points="60,379 55,374 49,368 43,361 35,354 28,346 22,337 17,329 13,321 12,313 15,305 21,298 34,294 48,291 67,286 92,281 122,275 155,269 193,263 234,256 278,251 324,246 373,241 422,238 473,237 524,237 576,239 626,243 676,250 677,245 680,230 687,207 697,177 712,140 733,97 759,50 793,0 794,1 795,3 798,7 801,13 805,19 811,27 817,35 824,44 806,65 790,88 775,113 761,139 750,167 741,196 736,227 733,260 743,260 747,228 753,197 761,168 772,141 784,116 798,93 813,71 828,51 831,56 835,61 839,66 843,71 847,76 852,82 856,87 861,92 848,111 836,131 825,153 816,175 808,198 802,222 799,247 797,273 807,273 810,247 814,223 820,199 827,177 836,156 845,136 855,117 867,100 871,105 875,109 879,115 884,120 888,125 893,130 897,136 902,141 893,157 886,173 879,190 874,208 869,226 866,245 863,264 862,284 871,284 873,265 876,247 880,229 884,212 889,195 895,179 902,163 909,148 914,153 919,158 924,163 929,168 934,174 939,179 944,184 949,189 940,213 933,240 929,268 926,297 936,297 939,270 944,244 950,219 958,196 963,201 969,206 974,211 979,215 985,220 990,224 996,229 1002,233 998,251 994,269 991,288 990,308 1000,310 1002,291 1005,273 1008,256 1012,240 1019,245 1026,249 1032,253 1039,257 1046,261 1053,265 1060,268 1067,271 1065,274 1061,282 1054,297 1046,320 1051,321 1065,324 1086,329 1114,336 1148,343 1185,351 1226,361 1269,370 1312,379 1355,388 1396,397 1435,405 1469,411 1498,417 1521,420 1537,422 1541,419 1551,412 1568,401 1590,387 1616,369 1646,350 1679,328 1714,306 1750,284 1786,261 1823,240 1858,219 1891,201 1921,186 1948,173 1970,165 1970,172 1969,184 1965,200 1961,221 1954,245 1946,271 1936,300 1924,330 1911,361 1896,392 1880,423 1862,453 1843,481 1823,507 1800,530 1777,550 1779,553 1784,560 1793,572 1803,589 1816,608 1830,631 1844,656 1859,683 1873,712 1886,742 1898,773 1908,803 1915,833 1919,862 1919,890 1915,916 1913,915 1908,913 1901,909 1890,903 1877,896 1861,887 1844,876 1824,864 1803,850 1781,835 1757,818 1732,799 1706,778 1680,756 1654,732 1627,706 1613,692 1596,678 1577,663 1558,649 1539,637 1520,626 1503,619 1489,615 1506,649 1504,650 1499,651 1490,653 1479,655 1446,618 1435,621 1469,659 1465,660 1461,661 1457,662 1452,664 1448,665 1443,666 1439,668 1435,669 1401,632 1388,634 1423,672 1419,673 1414,674 1410,676 1406,677 1402,679 1397,681 1392,684 1387,686 1354,646 1341,648 1377,689 1372,691 1367,693 1362,695 1358,697 1353,700 1349,702 1344,704 1340,706 1298,661 1287,662 1331,710 1326,713 1322,715 1317,718 1313,720 1308,722 1304,725 1300,727 1296,730 1246,675 1236,678 1287,736 1283,739 1279,742 1275,745 1272,748 1268,751 1264,754 1260,757 1256,760 1192,689 1182,690 1250,767 1245,774 1240,780 1235,786 1230,791 1224,787 1214,780 1202,771 1189,760 1176,749 1164,738 1153,728 1145,719 1067,723 1084,756 997,736 1016,766 922,736 935,770 827,736 844,774 745,736 757,773 676,736 676,739 676,746 677,758 678,772 682,787 687,803 695,818 706,831 705,833 700,837 695,844 687,853 679,863 671,874 664,885 658,895 656,890 652,878 647,859 640,836 634,810 628,782 625,756 625,732 547,692 557,737 469,675 476,723 409,653 409,685 335,628 331,662 266,584 266,615 264,613 258,608 250,601 240,591 229,579 218,566 208,552 199,537 203,535 212,529 225,518 239,500 250,475 257,442 256,399 246,345 246,353 246,375 244,405 239,439 228,471 210,496 183,510 146,507 129,500 110,489 89,475 69,458 48,438 30,416 13,392 0,367 60,379"/>
<polygon class="pen1 brush0" points="138,351 148,349 155,344 160,337 162,328 160,318 155,310 148,305 138,303 129,305 121,310 116,318 114,328 116,337 121,344 129,349 138,351"/>
<polygon class="pen1 brush0" points="324,314 328,318 336,330 346,350 354,374 356,403 349,433 329,464 293,494 314,466 327,440 334,415 336,392 335,371 331,351 327,332 324,314"/>
<polygon class="pen1 brush0" points="327,547 342,549 357,551 372,553 386,555 399,557 412,560 424,563 436,566 447,569 458,573 469,578 479,583 489,588 498,594 507,601 516,608 509,614 499,607 490,600 480,594 470,589 459,584 449,579 438,575 427,571 415,568 404,565 392,562 379,559 366,557 353,554 339,552 325,550 327,547"/>
<polygon class="pen1 brush0" points="351,534 371,533 388,532 404,531 419,530 432,530 444,530 457,530 468,531 480,532 493,534 506,536 520,539 536,543 553,548 572,554 594,560 583,568 566,562 550,557 534,552 519,549 505,546 491,543 478,541 465,539 452,538 438,538 425,537 411,537 397,537 382,537 367,538 351,538 351,534"/>
<polygon class="pen1 brush0" points="351,524 372,520 391,516 409,512 425,509 440,506 454,503 468,501 482,500 496,499 510,499 524,500 540,501 557,503 575,506 596,509 618,514 611,524 589,520 568,516 549,514 532,512 517,510 502,510 488,510 474,510 461,511 448,512 434,514 420,516 405,519 389,521 371,524 352,527 351,524"/>
<polygon class="pen1 brush0" points="357,510 372,505 387,501 401,496 415,492 429,488 444,483 460,479 476,475 494,472 513,469 533,465 555,463 580,460 607,458 636,457 668,456 666,469 640,470 616,470 595,471 575,472 556,474 539,475 522,477 506,479 491,482 475,484 458,488 441,491 423,495 403,500 381,505 358,511 357,510"/>
</g>
</svg>
