<?xml version="1.0" encoding="UTF-8" standalone="no"?>
<!DOCTYPE svg PUBLIC "-//W3C//DTD SVG 1.0//EN" "http://www.w3.org/TR/2001/REC-SVG-20010904/DTD/svg10.dtd">
<svg xmlns="http://www.w3.org/2000/svg" xmlns:xlink="http://www.w3.org/1999/xlink" fill-rule="evenodd" height="1.987in" preserveAspectRatio="none" stroke-linecap="round" viewBox="0 0 1244 1987" width="1.244in">
<style type="text/css">
.brush0 { fill: rgb(255,255,255); }
.pen0 { stroke: rgb(0,0,0); stroke-width: 1; stroke-linejoin: round; }
.brush1 { fill: none; }
.pen1 { stroke: none; }
.brush2 { fill: rgb(0,0,0); }
</style>
<g>
<polygon class="pen1 brush2" points="872,92 880,82 886,71 890,61 891,51 890,40 886,30 879,22 871,15 860,10 847,7 832,6 815,8 821,18 824,30 826,43 824,57 825,58 829,59 835,62 842,65 850,70 858,76 865,84 872,92 872,92"/>
<polygon class="pen1 brush2" points="812,139 808,126 802,114 793,104 783,96 773,89 765,85 759,82 757,81 758,64 756,49 750,36 743,25 752,23 760,21 769,19 777,17 784,15 791,14 798,12 804,11 811,21 815,33 816,46 814,61 816,62 820,64 826,67 834,71 842,77 850,84 858,92 865,101 860,106 854,111 847,116 841,121 834,126 827,130 819,135 812,139 812,139"/>
<polygon class="pen1 brush2" points="751,169 757,166 764,164 771,161 778,158 784,155 791,152 798,149 804,145 800,131 793,120 784,110 774,102 764,96 755,91 749,89 747,88 749,69 746,53 739,40 730,30 724,32 717,33 711,35 705,37 698,39 692,41 685,43 679,45 688,56 694,69 696,84 695,102 698,103 704,106 714,112 725,119 735,128 744,140 750,153 751,169 751,169"/>
<polygon class="pen1 brush2" points="307,1288 305,1293 299,1305 291,1325 282,1352 274,1383 269,1418 267,1455 270,1494 273,1509 278,1523 284,1537 292,1549 302,1560 313,1571 325,1581 339,1590 354,1599 371,1607 389,1615 409,1623 429,1631 451,1638 474,1645 499,1652 520,1659 538,1666 554,1674 568,1682 580,1691 590,1700 600,1709 608,1718 606,1718 602,1719 595,1721 587,1724 578,1728 569,1733 561,1740 554,1748 549,1759 547,1772 548,1787 554,1804 564,1825 580,1848 602,1874 631,1904 631,1960 616,1982 622,1987 635,1968 645,1987 652,1982 639,1960 639,1904 645,1898 654,1889 664,1879 675,1866 687,1852 698,1837 709,1821 719,1805 726,1789 731,1774 733,1759 731,1745 724,1733 713,1723 696,1715 673,1710 673,1709 673,1707 671,1704 669,1699 666,1693 660,1686 653,1678 644,1668 631,1658 616,1646 597,1633 574,1618 548,1603 517,1587 481,1569 440,1551 429,1545 418,1536 408,1524 400,1507 395,1487 394,1462 397,1433 406,1398 413,1381 422,1367 432,1356 444,1347 456,1341 470,1337 484,1335 498,1334 513,1335 527,1337 541,1339 555,1342 567,1346 579,1349 589,1352 598,1355 611,1359 625,1365 640,1372 656,1380 672,1388 690,1397 708,1407 727,1416 733,1314 714,1303 695,1292 677,1282 660,1273 644,1265 629,1259 615,1255 604,1254 607,1254 615,1252 628,1251 645,1249 665,1247 687,1245 711,1244 737,1243 741,1142 698,1144 654,1148 610,1151 566,1155 522,1158 480,1160 439,1161 401,1160 366,1157 334,1152 306,1143 283,1130 264,1114 252,1093 246,1068 247,1037 255,1009 269,988 289,974 315,965 344,962 378,964 414,970 452,979 491,991 531,1005 571,1021 611,1038 648,1056 683,1073 715,1090 743,1105 750,963 738,957 726,950 714,943 702,937 690,930 679,923 668,916 657,909 646,902 636,895 626,888 616,881 607,875 598,868 590,861 582,855 583,855 586,854 590,853 596,852 603,851 612,849 622,847 634,846 646,844 660,842 674,840 690,838 706,836 722,834 739,832 757,831 764,703 697,712 636,717 580,717 530,712 484,705 444,694 409,680 379,663 354,645 334,626 319,605 308,584 302,562 301,541 304,520 311,501 330,469 352,445 377,428 404,417 432,412 462,412 494,417 526,426 558,439 590,455 623,473 655,494 686,515 715,537 744,560 770,582 778,429 770,421 762,414 755,406 748,399 741,391 734,384 728,376 723,369 724,369 727,369 732,369 739,369 748,369 758,370 769,370 781,371 785,287 767,285 749,283 732,281 715,278 699,275 683,272 668,268 655,264 643,259 632,254 622,248 614,242 608,235 604,227 602,219 602,210 607,193 613,181 621,174 631,171 642,171 654,174 668,179 682,185 685,186 690,186 696,186 704,184 712,182 722,180 732,177 743,173 741,158 735,144 725,133 715,124 704,117 695,112 688,109 686,108 688,89 685,73 678,59 669,48 658,53 647,57 638,62 630,66 623,71 618,76 614,80 612,85 608,97 604,108 599,119 594,128 589,136 583,142 577,147 570,150 555,156 540,166 528,179 519,195 516,215 520,237 533,264 557,293 554,292 544,290 528,288 508,285 484,282 456,281 426,281 393,282 360,286 326,293 293,303 261,317 231,336 204,359 180,388 160,423 146,458 137,492 133,524 133,555 136,584 144,612 154,638 167,663 183,687 201,709 220,730 241,750 263,769 285,787 308,803 331,818 280,823 235,836 196,856 163,883 136,916 116,952 102,991 96,1032 96,1073 104,1114 119,1154 141,1191 171,1223 208,1251 254,1273 307,1288"/>
<polygon class="pen1 brush2" points="727,1416 740,1421 753,1427 767,1433 781,1438 796,1444 811,1450 826,1455 841,1460 866,1465 891,1466 916,1463 940,1457 963,1446 983,1433 1001,1417 1016,1397 1026,1376 1032,1352 1032,1326 1026,1299 1013,1270 993,1239 965,1208 928,1176 930,1176 938,1177 949,1177 963,1177 981,1176 1001,1173 1022,1169 1045,1162 1069,1154 1092,1142 1115,1127 1137,1108 1158,1086 1176,1059 1191,1027 1203,990 1209,961 1211,933 1210,908 1206,884 1199,862 1189,842 1177,823 1163,805 1147,788 1129,772 1110,756 1090,742 1069,728 1047,714 1025,700 1003,686 1005,686 1011,685 1020,684 1032,682 1047,679 1063,675 1080,669 1099,660 1117,650 1135,637 1152,622 1168,603 1182,582 1193,556 1202,527 1207,494 1208,461 1204,431 1197,406 1186,384 1173,365 1157,349 1139,335 1120,324 1100,316 1079,309 1059,304 1039,300 1020,297 1002,295 986,294 973,293 967,293 960,292 952,292 943,292 934,292 923,292 911,292 899,291 886,291 873,291 859,291 844,290 830,290 815,289 800,288 785,287 781,371 803,372 827,374 853,376 880,379 907,383 934,388 961,394 986,400 1010,408 1032,417 1051,427 1067,438 1079,451 1086,465 1089,480 1087,497 1079,514 1069,527 1055,536 1040,542 1022,545 1002,544 981,541 959,535 936,527 913,518 889,506 865,493 842,478 820,462 798,446 778,429 770,582 792,601 812,620 830,636 845,651 857,663 866,672 872,678 874,680 859,684 845,687 831,691 817,694 803,697 790,699 777,701 764,703 757,831 782,830 808,829 834,829 859,829 884,831 908,834 931,838 953,843 973,849 991,857 1007,867 1021,878 1033,891 1041,907 1046,924 1048,943 1046,965 1041,983 1033,998 1021,1009 1007,1018 991,1023 973,1026 952,1026 930,1025 907,1021 882,1015 856,1007 830,998 804,987 777,976 750,963 743,1105 757,1112 769,1119 779,1125 788,1130 795,1135 801,1138 804,1140 805,1141 797,1140 789,1140 782,1140 774,1140 766,1141 758,1141 749,1142 741,1142 737,1243 752,1243 767,1244 782,1245 797,1246 811,1248 825,1251 837,1254 849,1258 860,1263 870,1268 878,1275 885,1282 890,1290 894,1299 895,1310 895,1321 892,1333 888,1343 883,1351 876,1356 868,1360 859,1361 849,1362 838,1360 827,1358 815,1354 802,1349 789,1343 775,1336 761,1329 747,1322 733,1314 727,1416"/>
<polygon class="pen1 brush0" points="220,1082 178,1041 135,1082 178,1125 220,1082 220,1082"/>
<polygon class="pen1 brush0" points="237,973 195,930 152,973 195,1014 237,973"/>
<polygon class="pen1 brush0" points="612,1838 617,1837 622,1833 625,1829 626,1823 625,1818 622,1813 617,1809 612,1808 606,1809 602,1813 599,1818 598,1823 599,1829 602,1833 606,1837 612,1838"/>
<polygon class="pen1 brush0" points="665,1838 670,1837 675,1833 678,1829 679,1823 678,1818 675,1813 670,1809 665,1808 659,1809 654,1813 650,1818 649,1823 650,1829 654,1833 659,1837 665,1838"/>
</g>
</svg>
