<?xml version="1.0" encoding="UTF-8" standalone="no"?>
<!DOCTYPE svg PUBLIC "-//W3C//DTD SVG 1.0//EN" "http://www.w3.org/TR/2001/REC-SVG-20010904/DTD/svg10.dtd">
<svg xmlns="http://www.w3.org/2000/svg" xmlns:xlink="http://www.w3.org/1999/xlink" fill-rule="evenodd" height="1.007in" preserveAspectRatio="none" stroke-linecap="round" viewBox="0 0 1986 1007" width="1.986in">
<style type="text/css">
.brush0 { fill: rgb(255,255,255); }
.pen0 { stroke: rgb(0,0,0); stroke-width: 1; stroke-linejoin: round; }
.brush1 { fill: none; }
.pen1 { stroke: none; }
.brush2 { fill: rgb(0,0,0); }
</style>
<g>
<polygon class="pen1 brush2" points="1121,221 1123,220 1127,219 1135,216 1146,213 1159,209 1175,205 1193,200 1214,195 1236,189 1261,184 1287,179 1315,174 1345,169 1376,164 1408,161 1441,157 1475,155 1509,154 1544,154 1580,154 1616,157 1652,160 1688,165 1724,172 1759,181 1794,191 1829,204 1862,218 1895,235 1927,255 1957,276 1986,301 1985,303 1981,307 1975,314 1967,324 1957,335 1944,349 1930,364 1913,380 1895,397 1875,415 1853,433 1830,452 1805,470 1778,488 1750,505 1721,521 1691,535 1660,548 1627,560 1594,569 1559,575 1524,579 1488,580 1451,577 1414,571 1377,561 1338,547 1300,529 1261,506 1222,477 1183,444 1144,405 1146,401 1150,389 1154,371 1158,348 1158,320 1153,289 1141,256 1121,221 1121,221"/>
<polygon class="pen1 brush2" points="1138,413 1136,414 1132,418 1127,424 1121,430 1116,437 1112,443 1111,448 1114,451 1128,481 1138,522 1144,569 1149,617 1151,663 1152,701 1152,727 1152,737 1205,752 1253,762 1296,767 1335,767 1369,762 1399,754 1426,743 1449,730 1469,714 1486,697 1500,678 1511,659 1521,640 1528,621 1533,603 1537,586 1514,588 1491,589 1467,588 1443,586 1418,582 1394,576 1369,569 1344,559 1319,548 1293,535 1268,520 1242,503 1216,484 1190,463 1164,439 1138,413 1138,413"/>
<polygon class="pen1 brush2" points="1053,118 1073,116 1097,111 1121,104 1146,97 1168,90 1185,84 1198,80 1202,78 1195,75 1189,71 1186,69 1185,68 1192,67 1200,65 1209,63 1218,59 1226,56 1233,54 1237,52 1239,51 1233,49 1228,46 1224,45 1223,44 1229,42 1239,37 1251,31 1264,25 1276,18 1287,12 1294,9 1297,7 1285,6 1271,8 1257,11 1244,15 1233,20 1223,24 1217,27 1215,28 1216,20 1219,13 1222,9 1223,7 1215,11 1206,17 1196,22 1188,28 1180,34 1173,38 1168,42 1165,44 1166,36 1169,30 1172,26 1173,25 1160,32 1142,43 1122,58 1102,75 1083,91 1068,105 1057,114 1053,118 1053,118"/>
<polygon class="pen1 brush2" points="938,116 934,112 923,103 908,89 889,73 868,56 849,41 831,30 817,24 819,25 822,29 825,35 825,42 822,40 817,37 810,32 802,26 794,21 785,15 776,9 767,5 768,7 772,11 775,18 776,25 774,24 768,21 758,17 747,13 733,9 719,6 706,4 693,4 696,6 703,10 714,16 726,23 739,30 751,36 761,40 767,42 766,43 763,44 758,46 752,48 754,49 758,51 765,54 773,58 782,61 791,64 799,65 806,65 805,66 802,69 796,73 789,76 793,78 805,82 823,88 845,96 869,103 894,109 917,114 938,116 938,116"/>
<polygon class="pen1 brush2" points="993,176 982,175 971,173 960,169 951,165 944,159 938,152 934,144 933,136 934,128 938,121 944,115 951,109 960,104 971,101 982,99 993,98 1005,99 1017,101 1027,104 1036,109 1044,115 1049,121 1053,128 1054,136 1053,144 1049,152 1044,159 1036,165 1027,169 1017,173 1005,175 993,176 993,176"/>
<polygon class="pen1 brush2" points="999,1007 1027,1000 1053,981 1076,950 1097,909 1114,859 1127,802 1135,740 1138,673 1137,639 1135,607 1132,575 1127,545 1121,517 1114,490 1107,465 1098,442 1087,452 1076,460 1064,468 1051,474 1037,479 1023,483 1008,485 993,486 980,485 966,483 953,480 939,476 926,471 914,464 902,458 892,450 881,480 874,508 868,535 865,560 862,586 861,613 861,642 861,673 864,740 872,802 885,859 902,909 922,950 945,981 971,1000 999,1007 999,1007"/>
<polygon class="pen1 brush2" points="993,477 1023,474 1051,465 1076,451 1098,433 1116,411 1130,386 1139,358 1142,328 1140,302 1134,278 1124,256 1111,236 1094,218 1075,203 1054,191 1031,183 1027,185 1023,187 1019,188 1014,190 1009,191 1004,191 998,192 993,192 988,192 983,191 978,191 973,190 968,188 964,187 960,185 956,183 933,191 912,203 892,218 876,236 863,256 853,278 846,302 844,328 847,358 856,386 870,411 888,433 910,451 936,465 963,474 993,477 993,477"/>
<polygon class="pen1 brush2" points="865,223 845,257 833,290 828,320 829,347 833,370 838,388 842,399 844,403 805,442 766,475 727,504 688,527 650,545 612,559 574,569 537,575 500,578 464,577 429,573 394,567 361,558 328,547 296,534 266,520 237,504 209,487 182,470 157,452 134,433 112,415 92,398 73,380 57,364 42,350 30,336 19,325 11,315 5,308 1,304 0,302 29,278 59,256 91,237 123,220 157,205 191,193 226,182 262,174 298,167 334,162 370,158 406,156 441,155 476,156 511,157 545,159 578,162 610,166 641,171 670,175 698,181 725,186 749,191 772,197 793,202 811,207 827,211 840,215 851,218 859,221 863,222 865,223 865,223"/>
<polygon class="pen1 brush2" points="848,413 850,414 855,418 862,425 869,432 876,439 880,447 882,452 879,456 866,485 856,525 850,571 847,618 846,662 846,699 847,725 847,734 794,750 745,760 701,765 662,765 627,762 595,754 567,744 543,730 522,715 504,698 489,680 477,661 467,642 459,623 453,605 449,588 472,590 496,590 519,589 543,587 568,583 592,577 617,569 643,560 668,549 693,536 719,521 745,503 770,484 796,463 822,439 848,413"/>
<polygon class="pen1 brush0" points="375,481 377,480 381,477 388,474 396,470 404,467 413,467 420,469 425,474 430,488 429,501 423,513 414,523 416,521 423,517 431,510 439,501 446,490 449,479 448,467 439,456 427,448 415,447 404,451 395,457 387,465 380,473 376,479 375,481"/>
<polygon class="pen1 brush0" points="361,540 358,534 358,525 361,516 367,507 371,503 376,500 380,498 384,496 388,495 392,495 395,496 398,498 402,504 402,512 400,521 394,530 390,534 386,537 381,539 376,541 372,542 368,542 364,541 361,540"/>
<polygon class="pen1 brush0" points="247,500 244,494 244,485 247,476 253,467 257,463 261,460 265,457 270,455 274,454 278,454 281,455 284,457 288,463 288,471 286,480 280,490 276,494 272,497 267,499 262,501 258,501 254,502 250,501 247,500"/>
<polygon class="pen1 brush0" points="158,439 155,433 154,424 157,415 162,406 166,402 171,398 175,395 180,393 184,393 188,393 192,394 195,396 198,402 198,410 195,418 189,427 185,431 181,435 177,438 172,440 168,441 164,441 161,440 158,439"/>
<polygon class="pen1 brush0" points="71,368 68,362 68,353 71,344 77,335 81,331 85,328 89,325 94,323 98,322 102,322 105,323 108,325 112,331 112,339 110,348 104,358 100,362 96,365 92,367 87,369 83,370 79,370 75,369 71,368"/>
<polygon class="pen1 brush0" points="270,426 272,425 276,422 282,419 290,415 298,412 307,412 314,414 320,419 325,433 323,447 316,459 307,469 310,467 316,462 324,455 333,446 340,435 344,423 342,412 334,400 321,393 310,392 299,395 289,402 281,410 275,418 271,424 270,426"/>
<polygon class="pen1 brush0" points="175,375 177,374 181,371 188,368 196,364 204,361 213,361 220,363 226,368 231,381 229,394 222,406 213,416 216,414 222,410 230,403 239,394 246,383 250,372 248,360 240,348 228,341 216,340 205,343 196,350 187,359 181,367 176,373 175,375"/>
<polygon class="pen1 brush0" points="87,311 89,310 93,307 100,304 108,300 116,298 124,297 131,299 137,305 142,319 140,332 134,343 125,353 128,351 134,347 142,339 151,330 158,320 162,308 160,297 152,285 139,278 128,276 116,280 107,287 99,295 92,303 88,309 87,311"/>
<polygon class="pen1 brush0" points="560,662 556,717 555,717 552,715 547,712 541,708 534,703 526,697 519,689 513,679 560,662"/>
<polygon class="pen1 brush0" points="627,694 645,746 644,746 640,746 635,747 628,746 620,745 611,742 601,737 591,731 627,694"/>
<polygon class="pen1 brush0" points="709,693 750,730 749,731 746,733 741,735 734,738 726,741 716,743 705,744 693,743 709,693"/>
<polygon class="pen1 brush0" points="1620,540 1623,534 1623,525 1620,516 1614,507 1610,503 1606,500 1602,498 1597,496 1593,495 1589,495 1586,496 1583,498 1579,504 1578,512 1581,521 1587,530 1591,534 1596,537 1600,539 1604,541 1609,542 1613,542 1616,541 1620,540"/>
<polygon class="pen1 brush0" points="1733,500 1736,494 1737,485 1734,476 1729,467 1725,463 1720,460 1716,457 1711,455 1707,454 1703,454 1699,455 1696,457 1693,463 1693,471 1696,480 1702,490 1706,494 1710,497 1714,499 1719,501 1723,501 1727,502 1730,501 1733,500"/>
<polygon class="pen1 brush0" points="1823,439 1827,433 1827,424 1824,415 1818,406 1814,402 1809,398 1805,395 1801,393 1797,393 1793,393 1790,394 1787,396 1783,402 1783,410 1785,418 1791,427 1795,431 1799,435 1804,438 1808,440 1812,441 1816,441 1820,440 1823,439"/>
<polygon class="pen1 brush0" points="1908,368 1912,362 1913,353 1910,344 1905,335 1901,331 1896,328 1892,325 1887,323 1883,322 1879,322 1875,323 1872,325 1869,331 1869,339 1872,348 1878,358 1882,362 1886,365 1890,367 1895,369 1899,370 1902,370 1905,369 1908,368"/>
<polygon class="pen1 brush0" points="1712,426 1710,425 1706,422 1699,419 1691,415 1683,412 1674,412 1667,414 1662,419 1657,433 1658,447 1664,459 1673,469 1671,467 1664,462 1656,455 1648,446 1641,435 1637,423 1639,412 1647,400 1660,393 1672,392 1683,395 1692,402 1700,410 1707,418 1711,424 1712,426"/>
<polygon class="pen1 brush0" points="1806,375 1804,374 1800,371 1793,368 1785,364 1776,361 1768,361 1761,363 1756,368 1750,381 1751,394 1757,406 1766,416 1764,414 1757,410 1749,403 1741,394 1734,383 1731,372 1732,360 1740,348 1752,341 1764,340 1775,343 1785,350 1794,359 1800,367 1805,373 1806,375"/>
<polygon class="pen1 brush0" points="1894,311 1892,310 1888,307 1881,304 1873,300 1865,298 1856,297 1849,299 1844,305 1839,319 1841,332 1847,343 1855,353 1853,351 1846,347 1838,339 1830,330 1823,320 1820,308 1822,297 1830,285 1842,278 1854,276 1864,280 1874,287 1882,295 1889,303 1893,309 1894,311"/>
<polygon class="pen1 brush0" points="1419,662 1425,717 1426,717 1429,715 1434,712 1441,708 1448,703 1455,697 1462,689 1469,679 1419,662"/>
<polygon class="pen1 brush0" points="1354,694 1335,746 1336,746 1340,746 1345,747 1352,746 1361,745 1370,742 1380,737 1391,731 1354,694"/>
<polygon class="pen1 brush0" points="1273,693 1232,730 1233,731 1236,733 1241,735 1247,738 1255,741 1264,743 1275,744 1287,743 1273,693"/>
</g>
</svg>
