<?xml version="1.0" encoding="UTF-8" standalone="no"?>
<!DOCTYPE svg PUBLIC "-//W3C//DTD SVG 1.0//EN" "http://www.w3.org/TR/2001/REC-SVG-20010904/DTD/svg10.dtd">
<svg xmlns="http://www.w3.org/2000/svg" xmlns:xlink="http://www.w3.org/1999/xlink" fill-rule="evenodd" height="1.973in" preserveAspectRatio="none" stroke-linecap="round" viewBox="0 0 1720 1973" width="1.72in">
<style type="text/css">
.brush0 { fill: rgb(255,255,255); }
.pen0 { stroke: rgb(0,0,0); stroke-width: 1; stroke-linejoin: round; }
.brush1 { fill: none; }
.pen1 { stroke: none; }
.brush2 { fill: rgb(0,0,0); }
</style>
<g>
<polygon class="pen1 brush2" points="480,919 483,919 493,919 508,918 528,916 553,912 581,906 612,897 647,886 683,870 720,851 758,827 796,798 834,763 871,723 906,676 939,622 943,623 956,624 975,628 1001,634 1033,642 1069,653 1109,667 1151,684 1196,706 1242,732 1289,763 1335,799 1380,840 1423,887 1462,941 1498,1001 1530,1066 1557,1133 1580,1201 1599,1269 1613,1337 1624,1404 1630,1469 1633,1532 1632,1593 1628,1649 1620,1702 1609,1750 1594,1793 1576,1829 1556,1859 1532,1882 1521,1890 1509,1898 1495,1906 1480,1914 1464,1922 1447,1929 1428,1936 1409,1943 1388,1949 1367,1955 1345,1959 1321,1963 1297,1967 1273,1969 1247,1970 1221,1970 1203,1969 1185,1968 1166,1966 1147,1963 1128,1960 1109,1956 1089,1951 1070,1945 1050,1938 1030,1931 1009,1923 989,1914 969,1904 948,1893 928,1881 907,1868 884,1853 861,1836 838,1817 815,1797 792,1776 769,1753 746,1729 723,1703 700,1675 677,1646 655,1615 633,1582 611,1548 589,1511 567,1473 546,1433 510,1345 486,1256 474,1169 469,1090 470,1021 474,967 478,932 480,919 480,919"/>
<polygon class="pen1 brush2" points="453,1308 437,1331 427,1352 423,1371 422,1390 426,1409 434,1429 444,1451 457,1477 463,1490 471,1513 482,1542 494,1573 506,1603 516,1629 524,1646 528,1651 531,1673 534,1697 537,1722 538,1747 541,1747 539,1724 538,1699 535,1675 531,1649 540,1626 540,1595 533,1561 521,1527 508,1495 496,1468 487,1450 483,1443 475,1398 477,1367 484,1348 488,1342 453,1308 453,1308"/>
<polygon class="pen1 brush2" points="1322,740 1345,784 1347,783 1352,782 1360,781 1371,780 1385,782 1402,787 1422,795 1444,807 1445,808 1449,812 1456,818 1464,826 1475,835 1487,845 1500,855 1514,866 1529,876 1544,886 1560,894 1575,901 1590,907 1604,910 1617,910 1629,908 1641,913 1652,918 1663,923 1675,928 1686,932 1697,936 1707,940 1718,943 1720,940 1708,936 1696,932 1684,928 1673,923 1662,919 1652,914 1642,910 1632,905 1626,900 1611,888 1589,871 1563,851 1537,831 1512,813 1493,798 1483,790 1472,780 1461,771 1452,762 1443,755 1434,748 1425,742 1417,737 1408,733 1399,731 1390,729 1381,728 1371,728 1360,729 1348,732 1336,735 1322,740 1322,740"/>
<polygon class="pen1 brush2" points="893,547 929,582 930,581 934,578 942,574 952,570 965,568 983,567 1003,569 1028,574 1030,575 1035,577 1043,581 1053,586 1066,592 1080,598 1095,604 1112,610 1129,615 1146,620 1164,624 1180,626 1196,626 1211,625 1223,621 1234,615 1247,617 1259,619 1272,620 1285,621 1297,621 1309,622 1321,622 1332,622 1332,619 1319,619 1307,618 1294,618 1282,617 1270,616 1259,615 1248,613 1237,612 1236,610 1231,608 1224,604 1214,600 1202,596 1188,591 1173,586 1157,580 1141,575 1126,569 1111,564 1097,560 1084,555 1074,552 1066,549 1061,547 1047,541 1035,535 1023,529 1012,525 1001,521 991,518 982,516 973,515 963,515 954,516 945,518 936,521 926,525 915,531 905,538 893,547 893,547"/>
<polygon class="pen1 brush2" points="431,825 410,842 396,858 386,874 380,890 378,909 378,929 381,952 385,979 386,1016 388,1077 391,1135 394,1158 391,1179 387,1201 382,1224 376,1247 380,1249 386,1228 391,1205 395,1181 399,1156 414,1138 423,1111 427,1078 427,1044 425,1011 421,983 418,964 417,957 419,933 424,914 430,899 437,887 443,878 449,872 453,869 454,868 431,825 431,825"/>
<polygon class="pen1 brush2" points="738,797 759,782 778,767 797,751 813,736 829,720 843,704 855,688 866,673 875,658 882,644 888,630 892,617 893,605 893,593 891,583 886,574 881,568 875,563 869,559 861,556 852,554 843,553 833,552 822,552 811,554 799,555 786,558 773,561 760,565 746,570 731,576 717,582 677,714 738,797 738,797"/>
<polygon class="pen1 brush2" points="669,712 706,588 696,593 686,598 676,604 666,609 656,615 645,621 635,628 625,635 612,644 599,654 587,663 576,673 565,683 554,693 544,703 535,713 660,712 669,712 669,712"/>
<polygon class="pen1 brush2" points="670,722 527,722 510,742 495,762 484,782 475,800 470,817 469,833 471,847 477,859 484,866 492,872 502,877 514,879 527,881 541,880 557,879 574,875 591,871 610,865 629,858 649,849 669,839 689,828 710,816 731,802 723,792 715,782 708,772 700,762 693,752 685,742 678,732 670,722 670,722"/>
<polygon class="pen1 brush2" points="711,437 712,438 715,439 719,442 725,446 731,450 737,456 743,463 748,470 749,470 754,468 759,466 767,462 774,457 782,451 789,443 795,434 798,423 799,410 797,395 790,379 779,360 763,339 740,316 711,291 706,286 700,282 694,278 688,274 682,270 677,268 671,265 666,264 657,253 649,242 641,231 634,220 627,210 620,200 614,191 609,183 608,184 606,185 605,186 605,186 612,197 619,208 626,218 633,229 640,239 647,248 653,258 660,267 658,270 657,273 657,275 659,279 662,285 668,293 675,304 686,318 709,343 726,362 736,378 741,390 740,401 734,411 724,423 711,437 711,437"/>
<polygon class="pen1 brush2" points="451,562 431,594 422,619 422,639 430,654 444,663 460,669 477,671 493,669 507,666 522,662 536,657 550,652 564,647 578,641 592,634 606,626 620,617 633,607 646,597 659,585 672,572 684,559 696,543 708,527 722,498 722,477 712,463 695,454 675,449 656,447 642,447 636,447 628,480 618,508 606,530 592,547 577,560 562,569 546,575 530,578 515,578 500,577 487,575 475,571 465,568 457,565 453,563 451,562 451,562"/>
<polygon class="pen1 brush2" points="397,643 398,648 402,659 408,674 417,689 404,706 390,717 376,723 362,724 348,720 334,713 321,702 308,689 296,673 284,656 274,637 266,618 259,599 253,580 249,562 248,545 237,535 226,525 215,517 205,509 195,502 186,496 178,489 170,483 171,481 182,489 192,497 203,505 213,512 222,519 231,527 240,535 248,543 252,541 256,540 260,541 264,544 268,549 274,556 281,567 291,582 308,612 322,634 333,649 344,657 354,660 366,658 380,652 397,643 397,643"/>
<polygon class="pen1 brush2" points="525,557 513,556 502,553 492,549 482,543 474,536 467,527 461,518 457,507 454,509 451,511 447,512 443,513 434,511 427,506 422,499 420,490 422,481 427,474 434,469 443,467 446,467 449,468 452,470 456,472 458,463 461,455 466,447 471,440 459,420 446,400 433,382 420,365 407,349 393,335 379,321 365,309 350,298 336,288 321,280 306,272 290,266 275,262 259,258 243,256 229,255 214,255 200,255 185,257 170,260 155,264 141,269 126,275 110,282 95,290 80,299 64,310 49,321 33,333 18,347 2,361 2,360 1,358 0,356 0,355 16,341 32,328 48,315 63,304 79,294 95,285 110,277 126,270 141,264 156,260 171,256 186,253 200,251 215,250 229,250 243,251 260,253 277,257 293,262 309,269 325,276 340,285 355,295 370,306 384,319 398,333 412,347 425,363 438,380 450,398 462,417 474,437 480,432 487,427 493,424 500,420 482,385 468,350 457,317 450,284 447,252 447,222 452,192 460,164 472,138 489,113 509,89 534,68 563,48 596,30 634,14 676,0 677,1 678,3 679,5 679,6 640,18 605,32 573,48 545,66 521,85 500,107 482,131 469,156 459,183 453,212 452,242 454,274 460,308 471,344 485,381 504,419 509,417 513,416 518,416 525,416 532,417 539,418 546,420 552,422 554,413 559,406 566,401 575,399 584,401 591,406 596,413 598,422 597,430 593,436 588,442 581,445 587,454 591,464 594,475 595,487 594,501 589,514 583,526 574,537 563,545 552,552 539,556 525,557"/>
</g>
</svg>
