<?xml version="1.0" encoding="UTF-8" standalone="no"?>
<!DOCTYPE svg PUBLIC "-//W3C//DTD SVG 1.0//EN" "http://www.w3.org/TR/2001/REC-SVG-20010904/DTD/svg10.dtd">
<svg xmlns="http://www.w3.org/2000/svg" xmlns:xlink="http://www.w3.org/1999/xlink" fill-rule="evenodd" height="1.17in" preserveAspectRatio="none" stroke-linecap="round" viewBox="0 0 1993 1170" width="1.993in">
<style type="text/css">
.brush0 { fill: rgb(255,255,255); }
.pen0 { stroke: rgb(0,0,0); stroke-width: 1; stroke-linejoin: round; }
.brush1 { fill: none; }
.pen1 { stroke: none; }
.brush2 { fill: rgb(0,0,0); }
</style>
<g>
<polygon class="pen1 brush2" points="997,57 1000,56 1009,55 1022,52 1040,48 1062,44 1087,39 1114,35 1143,30 1173,25 1204,20 1235,16 1266,13 1295,10 1322,8 1347,8 1368,9 1392,11 1424,14 1463,19 1508,27 1556,38 1608,54 1661,75 1715,101 1767,134 1817,173 1863,221 1904,277 1939,342 1967,418 1985,504 1993,601 1988,665 1976,726 1958,784 1934,838 1904,888 1870,935 1832,978 1790,1016 1744,1051 1696,1081 1645,1107 1593,1128 1540,1145 1486,1157 1432,1163 1379,1165 1329,1164 1284,1163 1244,1161 1208,1159 1177,1156 1149,1153 1125,1150 1103,1146 1085,1141 1068,1137 1054,1132 1041,1126 1029,1120 1018,1114 1007,1108 997,1101 999,1099 1004,1092 1012,1082 1023,1068 1036,1051 1050,1030 1066,1006 1083,979 1097,982 1115,985 1135,989 1158,992 1183,995 1211,998 1240,1000 1270,1002 1301,1002 1332,1001 1364,998 1396,993 1427,987 1457,978 1486,967 1514,953 1512,954 1505,956 1493,958 1478,962 1459,965 1436,969 1411,973 1383,977 1352,979 1319,981 1284,982 1248,981 1211,979 1172,975 1133,968 1094,959 1113,923 1132,884 1150,842 1166,797 1179,751 1190,702 1197,652 1199,601 1198,537 1195,476 1189,418 1181,364 1171,313 1157,265 1141,222 1121,182 1160,172 1199,165 1238,161 1276,158 1312,157 1347,157 1380,159 1411,162 1440,165 1466,169 1488,173 1507,176 1523,180 1534,182 1542,184 1544,185 1516,171 1486,160 1455,152 1424,145 1392,141 1359,138 1327,137 1296,138 1265,139 1236,142 1209,145 1184,148 1161,152 1141,156 1123,159 1110,162 1099,146 1087,130 1074,115 1060,102 1045,89 1030,77 1014,67 997,57 997,57"/>
<polygon class="pen1 brush2" points="706,573 704,599 697,622 687,641 674,658 658,671 641,682 622,691 603,698 584,704 565,707 548,710 532,711 519,712 509,712 502,712 500,712 515,734 533,754 552,770 572,783 591,794 606,801 616,806 620,807 608,817 603,822 600,824 600,824 622,839 646,851 671,861 695,869 717,875 734,878 746,880 750,881 737,891 729,897 724,900 722,901 733,907 745,913 758,918 772,921 787,924 801,927 816,929 830,930 843,931 856,931 867,931 877,932 885,931 892,931 896,931 897,931 885,939 877,945 871,950 867,953 865,955 864,956 864,956 864,956 930,953 985,944 1031,928 1067,907 1095,882 1116,853 1131,821 1140,788 1144,755 1144,721 1142,689 1137,658 1130,630 1124,606 1117,587 1112,573 706,573 706,573"/>
<polygon class="pen1 brush2" points="1110,551 1112,545 1117,531 1123,510 1130,484 1136,454 1140,420 1142,385 1139,349 1132,313 1119,278 1098,246 1070,218 1033,195 985,178 926,168 855,166 855,166 855,166 856,167 858,169 861,172 867,177 876,183 888,191 887,191 883,191 876,191 868,191 858,191 847,191 834,192 821,193 807,194 793,196 778,199 764,202 750,206 737,210 726,216 715,222 716,223 721,226 730,233 743,243 739,244 727,246 710,250 688,256 664,265 640,275 616,288 594,303 594,303 597,305 602,310 614,320 610,321 600,326 586,333 568,344 549,357 529,374 512,393 497,416 499,416 506,416 516,416 529,416 545,418 562,420 581,423 600,428 619,435 638,444 656,455 672,468 685,484 696,503 703,525 706,551 1110,551 1110,551"/>
<polygon class="pen1 brush2" points="0,544 625,493 627,496 632,504 638,517 643,532 646,550 644,568 637,587 621,604 0,544"/>
</g>
</svg>
