<?xml version="1.0" encoding="UTF-8" standalone="no"?>
<!DOCTYPE svg PUBLIC "-//W3C//DTD SVG 1.0//EN" "http://www.w3.org/TR/2001/REC-SVG-20010904/DTD/svg10.dtd">
<svg xmlns="http://www.w3.org/2000/svg" xmlns:xlink="http://www.w3.org/1999/xlink" fill-rule="evenodd" height="0.703in" preserveAspectRatio="none" stroke-linecap="round" viewBox="0 0 1986 703" width="1.986in">
<style type="text/css">
.brush0 { fill: rgb(255,255,255); }
.pen0 { stroke: rgb(0,0,0); stroke-width: 1; stroke-linejoin: round; }
.brush1 { fill: none; }
.pen1 { stroke: none; }
.brush2 { fill: rgb(0,0,0); }
</style>
<g>
<polygon class="pen1 brush2" points="1728,307 1741,302 1751,301 1759,304 1765,310 1770,316 1773,322 1774,326 1775,328 1781,325 1786,323 1793,323 1799,324 1804,327 1809,330 1814,335 1817,341 1823,337 1830,335 1836,335 1842,337 1847,340 1851,343 1854,347 1855,351 1865,345 1873,343 1880,344 1885,347 1888,352 1891,357 1893,360 1894,362 1904,353 1912,349 1919,349 1925,351 1930,355 1934,358 1936,361 1938,361 1947,350 1955,344 1963,342 1971,344 1977,347 1982,351 1985,354 1986,355 1984,367 1980,377 1973,384 1966,389 1958,393 1951,395 1947,396 1945,396 1944,408 1940,416 1934,421 1927,424 1921,425 1915,426 1911,425 1909,425 1906,435 1901,442 1894,447 1887,450 1880,452 1874,452 1870,451 1868,450 1863,462 1857,470 1850,475 1843,476 1836,476 1830,474 1826,473 1823,472 1816,484 1808,492 1800,495 1792,495 1784,494 1778,491 1774,488 1772,486 1757,495 1745,498 1735,497 1727,493 1721,488 1718,483 1716,479 1715,477 1702,487 1690,491 1679,491 1670,487 1662,481 1657,475 1653,471 1652,469 1640,475 1629,478 1620,476 1613,473 1607,468 1603,463 1600,458 1598,456 1583,459 1571,459 1562,456 1556,451 1551,445 1549,440 1547,436 1547,435 1533,442 1521,444 1511,443 1503,438 1496,432 1492,426 1489,421 1488,418 1474,419 1463,417 1454,412 1448,406 1443,400 1441,394 1440,390 1441,388 1428,392 1417,392 1409,389 1403,384 1399,378 1396,373 1394,369 1394,367 1381,368 1370,366 1363,361 1358,355 1355,349 1353,344 1353,340 1354,338 1353,339 1349,343 1343,346 1335,349 1327,351 1319,349 1311,342 1304,330 1302,333 1298,341 1291,353 1281,367 1269,383 1255,398 1240,412 1223,423 1207,434 1194,447 1183,461 1174,476 1167,492 1163,507 1161,523 1161,537 1152,543 1142,548 1131,550 1119,551 1107,550 1097,547 1087,543 1080,537 1072,524 1065,509 1060,492 1057,474 1055,456 1054,439 1055,424 1057,412 1061,399 1067,387 1075,374 1084,361 1096,350 1109,339 1123,330 1138,323 1134,323 1124,325 1109,330 1092,337 1074,347 1057,362 1042,382 1033,408 1031,411 1022,414 1008,416 989,418 966,420 939,422 910,422 880,422 848,422 816,420 785,418 755,414 727,409 703,403 682,395 665,386 664,384 662,380 658,374 652,365 645,355 636,344 626,333 614,321 622,335 631,355 640,380 648,408 653,440 654,475 650,510 640,547 630,551 621,553 611,553 602,552 594,549 586,545 579,540 573,534 576,516 576,498 574,480 570,462 564,445 557,427 548,410 537,394 525,379 512,365 498,352 483,340 468,329 452,320 435,313 419,308 392,307 364,303 336,298 308,291 280,283 252,273 224,262 197,250 171,237 145,224 121,210 98,196 76,182 57,168 39,155 23,142 16,135 10,128 5,122 2,115 12,118 24,121 37,125 51,129 64,132 76,134 86,135 94,134 86,129 76,123 63,117 50,112 36,106 22,101 10,97 0,94 9,82 22,73 38,65 55,59 71,55 84,52 93,50 97,50 103,38 110,28 117,20 123,14 130,9 137,6 144,4 151,3 162,3 173,5 184,9 193,14 200,19 206,23 210,26 211,27 227,24 242,23 257,22 271,23 285,24 298,26 312,29 325,33 338,38 351,43 363,50 376,57 389,65 402,74 415,84 428,95 454,114 478,126 500,133 518,136 533,136 544,135 552,133 554,132 566,128 578,124 590,120 601,117 613,114 624,111 636,108 647,105 643,129 641,153 641,177 646,198 655,217 670,231 692,241 721,246 752,244 778,233 800,215 818,191 832,163 842,133 848,102 851,71 862,70 873,69 883,68 894,68 904,68 915,68 925,68 935,68 935,96 939,125 946,154 958,180 973,202 992,220 1017,232 1046,236 1075,233 1098,225 1116,211 1128,194 1136,173 1140,149 1140,122 1138,94 1164,101 1188,109 1210,117 1231,125 1250,133 1268,141 1284,148 1298,156 1310,163 1321,169 1330,175 1338,180 1344,184 1348,187 1350,189 1351,190 1363,176 1375,169 1386,168 1397,170 1405,175 1412,180 1415,184 1415,186 1427,176 1439,172 1450,173 1460,177 1468,182 1474,188 1479,193 1480,195 1490,184 1501,178 1511,177 1521,180 1530,184 1536,189 1540,193 1542,195 1554,189 1564,188 1573,190 1580,195 1586,201 1589,207 1590,211 1590,213 1604,207 1615,206 1623,209 1629,215 1633,221 1635,228 1636,233 1635,236 1653,231 1666,232 1675,236 1680,242 1683,250 1685,257 1685,262 1685,264 1697,259 1706,259 1714,263 1720,269 1724,278 1726,288 1728,298 1728,307 1728,307"/>
<polygon class="pen1 brush2" points="1046,230 1074,227 1095,219 1112,206 1123,189 1130,169 1134,146 1134,120 1132,92 1122,90 1111,88 1100,86 1090,83 1078,82 1067,80 1055,78 1043,76 1031,75 1019,73 1006,72 994,71 981,70 968,69 954,68 941,68 941,95 945,123 952,150 962,175 976,197 995,215 1018,226 1046,230 1046,230"/>
<polygon class="pen1 brush2" points="654,102 649,124 646,147 646,169 650,190 659,209 673,224 694,235 722,240 751,237 776,227 796,209 813,185 826,159 835,129 841,100 844,71 833,72 822,73 811,75 799,76 788,77 776,79 765,81 753,82 741,84 729,86 717,88 704,91 692,93 679,96 667,99 654,102 654,102"/>
<polygon class="pen1 brush2" points="1073,554 992,604 1044,605 999,672 1071,619 1063,703 1107,617 1132,679 1131,611 1168,635 1144,567 1130,569 1117,568 1105,566 1095,563 1086,560 1079,557 1075,555 1073,554 1073,554"/>
<polygon class="pen1 brush2" points="570,546 480,580 533,591 476,649 557,608 533,690 591,612 607,679 617,611 648,642 634,564 624,568 613,568 602,567 592,563 583,559 576,554 572,550 570,546"/>
<polygon class="pen1 brush0" points="164,88 172,85 179,79 184,71 185,61 181,51 175,44 167,40 158,40 148,42 141,49 136,57 135,67 139,76 145,83 154,88 164,88"/>
<polygon class="pen1 brush0" points="1212,247 1220,246 1226,242 1230,236 1232,229 1230,222 1226,215 1220,211 1212,209 1205,211 1200,215 1196,222 1195,229 1196,236 1200,242 1205,246 1212,247 1212,247"/>
<polygon class="pen1 brush0" points="1248,330 1255,328 1261,324 1265,318 1266,311 1265,303 1261,297 1255,293 1248,291 1241,293 1235,297 1231,303 1229,311 1231,318 1235,324 1241,328 1248,330 1248,330"/>
<polygon class="pen1 brush0" points="1118,288 1125,287 1131,283 1135,277 1137,270 1135,262 1131,256 1125,252 1118,250 1111,252 1105,256 1101,262 1100,270 1101,277 1105,283 1111,287 1118,288 1118,288"/>
<polygon class="pen1 brush0" points="907,365 915,363 922,359 926,352 928,344 926,335 922,328 915,323 907,321 898,323 891,328 886,335 884,344 886,352 891,359 898,363 907,365 907,365"/>
<polygon class="pen1 brush0" points="799,334 807,332 814,328 818,321 820,313 818,304 814,297 807,292 799,290 790,292 783,297 779,304 777,313 779,321 783,328 790,332 799,334 799,334"/>
<polygon class="pen1 brush0" points="877,259 885,257 892,252 896,245 898,236 896,228 892,221 885,217 877,215 869,217 862,221 857,228 855,236 857,245 862,252 869,257 877,259"/>
</g>
</svg>
