<?xml version="1.0" encoding="UTF-8" standalone="no"?>
<!DOCTYPE svg PUBLIC "-//W3C//DTD SVG 1.0//EN" "http://www.w3.org/TR/2001/REC-SVG-20010904/DTD/svg10.dtd">
<svg xmlns="http://www.w3.org/2000/svg" xmlns:xlink="http://www.w3.org/1999/xlink" fill-rule="evenodd" height="0.855in" preserveAspectRatio="none" stroke-linecap="round" viewBox="0 0 1975 855" width="1.975in">
<style type="text/css">
.brush0 { fill: rgb(255,255,255); }
.pen0 { stroke: rgb(0,0,0); stroke-width: 1; stroke-linejoin: round; }
.brush1 { fill: none; }
.pen1 { stroke: none; }
.brush2 { fill: rgb(0,0,0); }
</style>
<g>
<polygon class="pen1 brush2" points="594,815 671,848 587,841 444,855 560,817 566,740 565,739 562,734 557,728 551,721 544,713 536,704 528,696 519,689 522,689 529,689 539,689 552,688 567,687 582,685 597,683 611,679 607,689 598,717 592,760 594,815 594,815"/>
<polygon class="pen1 brush2" points="1020,352 1022,350 1029,345 1039,340 1054,333 1072,325 1093,315 1117,304 1145,293 1174,280 1206,267 1240,253 1276,239 1313,224 1352,209 1392,193 1432,177 1473,162 1514,146 1555,131 1596,116 1636,102 1676,88 1715,74 1752,61 1788,50 1822,39 1854,29 1884,20 1911,13 1935,7 1957,3 1975,0 1975,1 1974,5 1971,11 1967,19 1958,29 1946,40 1929,53 1907,67 1915,35 1904,41 1894,74 1889,76 1884,78 1878,81 1872,84 1864,88 1857,91 1849,95 1840,99 1850,64 1837,68 1827,105 1820,108 1814,111 1807,114 1799,118 1792,121 1784,125 1775,128 1767,132 1782,85 1769,91 1755,139 1746,143 1738,147 1729,150 1720,154 1711,158 1702,162 1693,166 1684,170 1701,112 1688,118 1671,176 1662,180 1653,184 1644,189 1635,193 1626,197 1616,202 1607,206 1597,210 1615,149 1603,153 1584,217 1575,221 1567,225 1558,229 1549,233 1540,237 1531,241 1522,246 1513,250 1532,186 1519,190 1500,256 1492,259 1484,263 1476,266 1468,270 1459,274 1451,278 1443,281 1435,285 1455,216 1442,220 1421,291 1412,296 1403,300 1393,305 1384,309 1375,314 1365,318 1356,323 1347,327 1368,250 1355,257 1334,332 1326,336 1318,339 1311,343 1303,347 1296,351 1288,354 1281,358 1273,362 1296,280 1283,284 1259,368 1250,372 1242,376 1234,380 1226,384 1218,388 1210,391 1203,395 1195,399 1222,304 1209,309 1182,406 1163,415 1146,423 1129,431 1114,439 1099,446 1086,453 1074,460 1063,466 1034,482 1006,499 976,516 946,534 916,551 886,568 855,584 824,600 792,615 760,629 728,641 695,652 663,661 630,668 596,673 563,675 531,675 500,674 472,672 445,668 421,663 398,657 378,649 359,640 342,629 328,616 316,601 305,585 297,567 290,546 286,524 284,500 285,488 290,476 298,465 309,454 323,444 340,435 358,426 379,418 402,410 427,403 453,396 480,390 509,384 538,380 569,375 599,371 630,368 661,365 692,363 723,361 753,360 782,359 810,359 837,359 863,360 887,361 909,363 930,365 948,368 963,371 976,375 986,379 985,382 983,389 979,400 971,413 958,426 941,438 917,447 887,453 885,457 877,467 865,482 849,498 828,512 802,523 773,529 739,525 736,528 728,536 716,547 700,560 681,574 659,586 636,595 611,599 615,599 627,598 645,596 666,593 688,587 711,579 730,567 746,551 750,552 761,552 778,552 800,549 824,542 850,530 876,511 900,483 905,482 919,479 938,473 960,462 982,446 1001,423 1015,392 1020,352 1020,352"/>
<polygon class="pen1 brush2" points="236,217 224,223 212,227 200,231 188,233 176,234 165,235 156,235 148,234 127,231 110,232 96,237 86,244 78,252 73,259 70,265 69,267 80,280 86,288 90,303 93,335 96,346 102,360 111,374 122,391 136,408 151,425 167,443 184,460 201,477 217,493 232,507 245,520 257,530 265,538 271,543 273,545 261,506 263,474 275,448 293,427 314,412 334,401 348,395 354,393 304,361 269,329 248,300 237,273 233,250 233,232 235,221 236,217 236,217"/>
<polygon class="pen1 brush2" points="0,349 57,281 60,284 66,291 71,302 74,315 0,349"/>
<polygon class="pen1 brush0" points="140,290 146,289 152,285 155,279 157,273 155,267 152,261 146,257 140,256 133,257 128,261 124,267 123,273 124,279 128,285 133,289 140,290"/>
</g>
</svg>
