<?xml version="1.0" encoding="UTF-8" standalone="no"?>
<!DOCTYPE svg PUBLIC "-//W3C//DTD SVG 1.0//EN" "http://www.w3.org/TR/2001/REC-SVG-20010904/DTD/svg10.dtd">
<svg xmlns="http://www.w3.org/2000/svg" xmlns:xlink="http://www.w3.org/1999/xlink" fill-rule="evenodd" height="1.401in" preserveAspectRatio="none" stroke-linecap="round" viewBox="0 0 1973 1401" width="1.973in">
<style type="text/css">
.brush0 { fill: rgb(255,255,255); }
.pen0 { stroke: rgb(0,0,0); stroke-width: 1; stroke-linejoin: round; }
.brush1 { fill: none; }
.pen1 { stroke: none; }
.brush2 { fill: rgb(0,0,0); }
</style>
<g>
<polygon class="pen1 brush2" points="970,1401 997,1401 1025,1400 1052,1398 1079,1396 1106,1393 1133,1390 1159,1385 1186,1381 1212,1376 1238,1370 1263,1364 1289,1357 1314,1349 1339,1341 1364,1333 1388,1324 1412,1315 1436,1305 1459,1295 1483,1284 1505,1273 1528,1262 1550,1250 1571,1237 1592,1225 1613,1212 1633,1198 1653,1184 1672,1170 1691,1156 1709,1141 1727,1126 1754,1102 1779,1078 1803,1053 1826,1027 1847,1001 1867,974 1885,947 1902,920 1917,892 1930,864 1942,836 1951,808 1959,779 1965,750 1969,722 1971,693 1961,709 1949,726 1937,744 1923,763 1909,781 1893,800 1876,818 1859,836 1841,852 1822,868 1803,882 1783,894 1763,903 1742,911 1721,915 1700,917 1681,915 1665,909 1650,899 1637,887 1625,872 1614,856 1604,838 1594,820 1585,802 1575,784 1564,768 1553,753 1541,740 1528,730 1513,724 1496,721 1466,729 1445,751 1430,784 1419,823 1409,865 1395,904 1376,938 1348,963 1332,969 1316,971 1300,970 1284,966 1268,959 1252,951 1236,942 1221,933 1206,925 1192,917 1179,911 1166,907 1153,906 1142,909 1132,915 1122,927 1115,943 1112,963 1111,985 1112,1009 1114,1035 1116,1063 1118,1090 1118,1118 1115,1145 1110,1171 1101,1195 1087,1217 1067,1236 1041,1252 1008,1264 967,1271 906,1274 858,1270 822,1259 797,1242 780,1220 772,1194 770,1165 773,1134 780,1102 789,1070 800,1039 811,1010 820,984 827,962 830,944 827,933 820,927 811,924 801,924 789,927 775,932 761,938 746,945 730,952 713,960 696,967 678,973 660,977 643,978 625,978 608,974 591,966 565,940 546,905 533,867 522,827 510,790 495,758 475,736 446,726 430,727 417,731 404,740 393,751 382,766 372,781 363,799 353,817 343,835 333,852 322,869 309,884 295,897 280,907 263,914 243,917 227,916 210,913 193,907 176,900 159,890 143,879 126,867 110,853 94,839 79,824 64,808 50,793 37,777 25,762 13,747 3,733 7,767 12,801 21,835 31,868 43,900 57,932 74,963 92,993 112,1023 134,1052 158,1080 183,1107 210,1133 239,1158 269,1183 301,1206 318,1217 335,1228 352,1239 369,1249 387,1259 406,1269 424,1278 443,1287 462,1296 482,1304 502,1313 522,1320 542,1328 562,1335 583,1342 604,1348 626,1355 647,1360 669,1366 691,1371 713,1376 736,1380 758,1384 781,1387 804,1391 827,1393 851,1396 874,1398 898,1399 922,1400 946,1401 970,1401 970,1401"/>
<polygon class="pen1 brush2" points="1943,704 1923,728 1905,750 1888,771 1872,789 1857,806 1843,821 1829,834 1816,846 1803,856 1791,865 1778,873 1766,879 1753,885 1740,890 1726,893 1712,896 1693,895 1677,891 1663,882 1650,870 1638,856 1627,840 1617,822 1608,804 1598,785 1587,767 1576,751 1564,735 1550,723 1535,713 1517,706 1497,704 1460,713 1435,735 1418,767 1407,805 1397,845 1385,883 1369,915 1344,939 1328,945 1312,948 1296,947 1280,943 1265,938 1250,931 1235,923 1220,914 1205,907 1191,900 1177,895 1163,892 1150,892 1137,896 1124,903 1112,916 1102,933 1097,952 1094,974 1094,998 1096,1024 1098,1050 1100,1076 1101,1103 1100,1129 1096,1154 1089,1177 1077,1199 1060,1217 1038,1233 1008,1246 970,1254 914,1258 870,1255 837,1243 814,1226 799,1204 792,1178 791,1149 794,1118 801,1086 811,1054 821,1024 832,995 841,970 848,950 850,935 848,926 840,914 831,907 819,904 806,904 792,907 776,912 760,919 743,926 725,934 707,942 689,949 671,954 653,958 635,959 618,956 602,950 591,944 582,934 573,920 566,904 559,885 552,865 545,843 539,822 531,800 523,779 514,760 503,742 491,727 477,715 461,707 442,703 424,705 409,711 395,720 383,732 372,746 362,763 352,780 343,798 333,816 323,834 313,850 301,866 289,879 274,889 258,896 240,899 226,898 210,895 194,889 178,880 162,870 145,858 128,844 112,829 95,814 79,798 64,782 49,765 36,749 23,734 11,719 1,706 2,667 6,629 13,591 22,554 34,518 49,483 66,449 85,416 101,391 118,367 136,344 155,321 175,299 196,278 218,258 241,238 246,253 253,270 261,289 270,310 281,333 294,355 308,378 324,400 341,422 360,441 380,459 402,474 425,486 450,494 476,498 504,498 536,493 564,486 587,476 607,464 623,451 637,437 650,422 661,407 670,393 680,379 690,367 701,355 713,346 727,340 744,336 763,335 782,338 799,346 813,358 824,373 834,390 842,409 850,430 856,451 862,472 869,492 875,511 883,527 891,541 901,551 913,558 927,559 944,557 959,551 972,540 983,527 992,510 1000,492 1007,472 1014,452 1021,431 1029,411 1036,392 1045,375 1056,360 1067,348 1082,339 1098,335 1117,336 1134,339 1148,346 1160,355 1171,366 1182,378 1192,392 1202,406 1213,421 1226,435 1241,449 1258,462 1278,474 1301,484 1329,492 1361,497 1390,497 1417,492 1443,481 1467,467 1490,448 1512,427 1532,403 1550,378 1567,351 1582,324 1596,298 1608,272 1618,248 1627,226 1634,207 1639,191 1651,199 1663,208 1675,217 1687,227 1699,236 1711,246 1723,256 1735,267 1747,277 1759,288 1771,299 1783,310 1794,322 1806,333 1817,344 1828,356 1856,388 1882,420 1905,452 1925,484 1942,517 1956,548 1965,579 1970,609 1971,622 1970,634 1968,647 1966,659 1962,671 1957,682 1950,693 1943,704 1943,704"/>
<polygon class="pen1 brush2" points="1622,181 1605,170 1587,159 1569,149 1551,139 1532,129 1513,120 1493,110 1474,101 1453,93 1433,84 1412,77 1391,69 1370,62 1348,55 1326,48 1304,42 1284,37 1265,32 1245,28 1225,24 1204,20 1184,16 1163,13 1142,10 1121,8 1100,6 1079,4 1057,3 1036,1 1014,1 992,0 970,0 945,0 921,1 897,2 872,3 848,5 825,8 801,10 778,13 754,17 731,21 709,26 686,30 664,36 642,41 620,47 598,54 574,61 550,69 526,78 503,87 480,96 458,106 436,116 414,127 393,138 372,150 352,162 332,174 313,187 294,200 275,213 257,227 262,242 269,260 277,279 287,300 297,322 309,344 322,365 337,387 353,407 371,425 390,442 410,456 432,467 455,475 480,479 507,478 538,473 564,465 586,455 604,443 619,430 631,416 641,401 651,386 660,372 669,358 679,346 690,335 704,326 721,319 741,315 766,315 788,319 806,326 822,338 835,352 845,369 854,388 861,408 868,428 873,449 879,469 884,487 891,504 898,519 906,530 917,538 929,541 945,539 958,532 969,521 978,507 985,490 992,471 998,451 1004,430 1010,409 1017,389 1025,370 1034,353 1045,338 1059,326 1075,319 1095,315 1116,317 1134,321 1150,329 1164,339 1176,350 1188,363 1199,377 1210,392 1222,407 1235,422 1249,436 1265,449 1284,460 1305,469 1330,476 1358,480 1386,480 1412,475 1436,465 1460,451 1481,434 1501,414 1520,391 1537,367 1553,342 1567,316 1579,290 1591,265 1601,241 1609,218 1616,198 1622,181"/>
</g>
</svg>
