<?xml version="1.0" encoding="UTF-8" standalone="no"?>
<!DOCTYPE svg PUBLIC "-//W3C//DTD SVG 1.0//EN" "http://www.w3.org/TR/2001/REC-SVG-20010904/DTD/svg10.dtd">
<svg xmlns="http://www.w3.org/2000/svg" xmlns:xlink="http://www.w3.org/1999/xlink" fill-rule="evenodd" height="0.861in" preserveAspectRatio="none" stroke-linecap="round" viewBox="0 0 1964 861" width="1.964in">
<style type="text/css">
.brush0 { fill: rgb(255,255,255); }
.pen0 { stroke: rgb(0,0,0); stroke-width: 1; stroke-linejoin: round; }
.brush1 { fill: none; }
.pen1 { stroke: none; }
.brush2 { fill: rgb(0,0,0); }
</style>
<g>
<polygon class="pen1 brush2" points="1516,540 1516,476 1589,497 1598,419 1680,442 1676,372 1737,394 1746,337 1793,351 1814,296 1858,304 1879,247 1919,252 1923,206 1956,206 1950,179 1964,149 1930,161 1905,147 1893,179 1849,169 1828,213 1784,192 1750,243 1706,226 1689,260 1646,247 1606,283 1558,252 1504,304 1456,256 1403,296 1348,235 1270,277 1234,195 1114,239 1088,144 963,209 906,110 794,218 737,131 665,218 608,156 543,230 561,144 508,144 543,23 399,122 379,0 244,165 153,61 119,247 54,175 37,328 25,340 17,351 12,362 10,372 11,382 15,391 20,400 27,408 36,416 46,423 57,429 69,436 80,441 91,446 101,451 111,455 121,459 135,464 151,469 169,476 189,483 210,490 232,498 254,506 277,514 299,522 321,530 342,537 361,543 378,549 393,554 405,558 423,569 436,586 445,607 451,630 454,652 456,671 456,684 456,689 339,683 405,713 335,749 418,739 365,791 443,762 405,810 483,770 456,827 548,757 555,722 587,706 578,675 608,662 578,604 612,576 574,553 591,514 543,510 548,465 504,459 568,439 564,493 621,497 599,544 646,567 604,614 635,676 712,641 737,689 802,641 841,692 906,641 950,683 1006,628 1048,666 1105,618 1149,654 1196,605 1247,641 1278,588 1247,529 1300,516 1300,455 1365,485 1386,438 1429,472 1392,459 1369,506 1318,480 1318,529 1270,540 1300,588 1274,641 1321,658 1321,706 1373,683 1376,686 1381,696 1384,711 1382,732 1266,766 1329,770 1278,810 1342,797 1308,844 1373,810 1373,861 1408,817 1433,861 1473,749 1475,747 1480,742 1487,733 1495,720 1504,704 1511,683 1518,658 1521,628 1520,624 1518,614 1514,600 1508,583 1500,565 1490,549 1478,536 1464,529 1516,540"/>
<polygon class="pen1 brush0" points="206,343 212,342 218,341 223,338 228,334 232,330 235,325 236,319 237,313 236,307 235,302 232,296 228,292 223,288 218,285 212,284 206,283 200,284 194,285 189,288 185,292 181,296 178,302 177,307 176,313 177,319 178,325 181,330 185,334 189,338 194,341 200,342 206,343"/>
<polygon class="pen1 brush0" points="1726,296 1713,334 1662,307 1658,308 1642,362 1585,327 1581,331 1568,391 1507,343 1504,347 1568,398 1572,395 1587,335 1642,370 1648,368 1662,314 1714,341 1719,340 1731,297 1726,296 1726,296"/>
<polygon class="pen1 brush0" points="1293,337 1264,381 1210,331 1206,333 1169,394 1111,331 1105,333 1069,401 1011,323 1007,327 1068,408 1072,408 1109,338 1168,401 1173,399 1209,338 1263,388 1267,388 1298,340 1293,337 1293,337"/>
<polygon class="pen1 brush0" points="1000,509 971,553 919,503 913,504 876,566 818,504 814,504 777,574 720,496 714,499 774,581 781,581 817,512 875,573 879,573 916,510 970,560 974,560 1004,512 1000,509 1000,509"/>
<polygon class="pen1 brush0" points="602,378 606,378 668,299 662,294 605,371 568,304 562,303 506,362 469,303 463,303 410,351 382,307 376,310 408,357 412,358 466,307 503,370 507,370 564,307 602,378"/>
</g>
</svg>
