<?xml version="1.0" encoding="UTF-8" standalone="no"?>
<!DOCTYPE svg PUBLIC "-//W3C//DTD SVG 1.0//EN" "http://www.w3.org/TR/2001/REC-SVG-20010904/DTD/svg10.dtd">
<svg xmlns="http://www.w3.org/2000/svg" xmlns:xlink="http://www.w3.org/1999/xlink" fill-rule="evenodd" height="1.186in" preserveAspectRatio="none" stroke-linecap="round" viewBox="0 0 1981 1186" width="1.981in">
<style type="text/css">
.brush0 { fill: rgb(255,255,255); }
.pen0 { stroke: rgb(0,0,0); stroke-width: 1; stroke-linejoin: round; }
.brush1 { fill: none; }
.pen1 { stroke: none; }
.brush2 { fill: rgb(0,0,0); }
</style>
<g>
<polygon class="pen1 brush2" points="1264,809 1261,810 1253,812 1241,816 1224,821 1203,826 1179,832 1153,837 1124,843 1092,848 1060,852 1026,856 992,858 958,858 924,856 892,852 860,846 858,852 851,869 842,894 830,924 818,955 806,986 794,1012 785,1032 797,1105 761,1090 761,1153 636,1153 690,1082 691,1077 695,1062 701,1041 707,1017 712,991 717,967 720,947 720,934 717,923 710,909 701,894 690,876 680,857 670,837 662,816 657,796 654,794 644,790 629,783 609,775 584,766 555,758 522,750 487,744 449,740 409,739 367,742 325,750 283,762 241,781 200,806 160,839 158,838 153,835 145,830 135,823 123,816 110,807 95,797 81,786 66,776 52,765 38,754 27,744 17,734 10,725 5,717 4,710 6,699 9,692 14,687 20,685 27,684 36,683 46,684 58,684 70,683 86,679 104,673 125,664 147,652 170,636 194,617 217,595 218,595 222,590 226,586 229,581 233,576 237,572 241,567 244,563 248,558 260,540 273,520 285,501 298,480 310,460 323,439 337,419 351,399 366,379 382,361 399,343 416,327 435,312 456,298 478,287 501,277 504,274 511,265 523,252 540,235 560,214 584,192 612,167 642,142 675,117 710,92 747,69 785,48 825,31 865,17 906,8 947,4 943,7 931,14 913,25 893,38 872,53 853,68 837,82 828,95 830,94 837,91 848,86 863,81 881,74 902,67 925,59 951,51 979,44 1008,38 1038,32 1069,28 1101,26 1132,26 1164,27 1194,32 1188,33 1174,38 1152,44 1127,52 1100,62 1075,72 1055,84 1041,95 1043,95 1051,94 1062,92 1077,91 1095,89 1116,88 1139,86 1163,86 1189,86 1216,86 1242,88 1268,91 1294,96 1318,102 1340,109 1360,119 1356,119 1345,120 1328,121 1307,123 1285,127 1263,133 1242,142 1224,153 1226,153 1233,154 1243,154 1257,156 1274,158 1293,160 1314,163 1336,167 1359,171 1382,177 1405,183 1428,191 1449,199 1469,208 1486,219 1501,231 1497,231 1486,230 1469,229 1449,227 1427,227 1405,226 1385,226 1369,227 1371,228 1378,230 1388,234 1401,239 1416,245 1434,252 1453,260 1474,269 1494,278 1515,288 1535,298 1554,309 1572,319 1587,330 1600,340 1609,350 1605,349 1595,346 1579,342 1560,338 1540,336 1519,335 1500,337 1484,342 1485,343 1490,345 1496,349 1505,354 1516,360 1528,367 1540,375 1554,384 1568,392 1582,401 1596,410 1609,419 1622,428 1632,436 1642,443 1649,450 1653,452 1660,454 1668,454 1679,454 1691,454 1705,452 1719,449 1734,446 1750,441 1765,435 1780,429 1795,421 1809,411 1821,401 1832,389 1841,376 1842,370 1847,355 1856,332 1869,307 1887,281 1912,257 1943,240 1981,231 1980,237 1975,254 1967,279 1955,307 1940,336 1920,362 1895,382 1866,393 1865,394 1862,399 1858,405 1852,413 1844,423 1835,433 1824,445 1811,456 1798,467 1782,477 1766,486 1748,494 1729,499 1709,503 1688,503 1666,500 1667,501 1669,506 1673,513 1677,523 1682,537 1688,553 1693,573 1697,595 1696,595 1700,619 1702,647 1704,678 1703,711 1701,748 1696,788 1689,831 1679,876 1682,886 1692,902 1707,922 1723,946 1738,970 1749,993 1753,1013 1748,1028 1738,1040 1730,1051 1724,1063 1719,1075 1715,1089 1713,1105 1711,1125 1711,1149 1679,1132 1670,1186 1566,1186 1565,1181 1564,1169 1566,1154 1575,1140 1583,1131 1594,1117 1607,1100 1620,1082 1633,1064 1643,1050 1650,1040 1653,1036 1589,1007 1530,976 1476,944 1427,911 1383,876 1343,841 1307,804 1275,766 1247,727 1222,686 1200,644 1180,601 1163,557 1149,512 1136,465 1125,417 1120,433 1118,453 1118,475 1122,501 1127,528 1134,557 1144,587 1154,617 1166,647 1179,676 1193,704 1207,731 1222,755 1236,777 1250,795 1264,809"/>
<polygon class="pen1 brush0" points="451,545 458,544 465,542 471,539 477,534 482,529 485,523 487,516 488,508 487,501 485,494 482,488 477,483 471,479 465,476 458,474 451,473 444,474 437,476 431,479 426,483 422,488 419,494 417,501 416,508 417,516 419,523 422,529 426,534 431,539 437,542 444,544 451,545"/>
<polygon class="pen1 brush0" points="146,677 154,690 161,702 166,714 172,725 178,736 187,746 198,757 213,769 160,799 146,677"/>
</g>
</svg>
