<?xml version="1.0" encoding="UTF-8" standalone="no"?>
<!DOCTYPE svg PUBLIC "-//W3C//DTD SVG 1.0//EN" "http://www.w3.org/TR/2001/REC-SVG-20010904/DTD/svg10.dtd">
<svg xmlns="http://www.w3.org/2000/svg" xmlns:xlink="http://www.w3.org/1999/xlink" fill-rule="evenodd" height="1.276in" preserveAspectRatio="none" stroke-linecap="round" viewBox="0 0 1979 1276" width="1.979in">
<style type="text/css">
.brush0 { fill: rgb(255,255,255); }
.pen0 { stroke: rgb(0,0,0); stroke-width: 1; stroke-linejoin: round; }
.brush1 { fill: none; }
.pen1 { stroke: none; }
.brush2 { fill: rgb(0,0,0); }
</style>
<g>
<polygon class="pen1 brush2" points="65,237 327,271 91,260 102,268 116,276 132,285 151,295 172,304 196,313 223,321 254,329 287,336 324,341 364,346 408,348 455,349 507,348 562,344 621,338 621,344 623,358 627,378 636,401 650,423 670,441 699,451 737,452 739,455 743,465 748,479 751,496 750,515 742,534 727,552 700,568 701,570 706,576 713,584 724,593 738,602 756,609 777,614 803,615 807,613 815,608 826,601 839,593 854,582 869,570 885,557 901,542 915,526 927,509 937,491 944,471 947,452 946,431 939,410 926,389 929,391 936,396 945,405 955,418 964,434 969,455 969,480 962,510 964,510 970,512 979,514 991,517 1006,520 1022,523 1040,527 1059,531 1079,535 1099,538 1118,541 1137,543 1155,545 1170,546 1184,546 1195,545 1196,540 1200,527 1207,508 1216,485 1229,463 1244,442 1262,425 1284,416 1256,449 1234,482 1219,515 1210,547 1208,579 1214,612 1227,646 1249,680 1268,685 1284,689 1297,691 1308,691 1319,691 1330,690 1343,688 1358,685 1354,672 1345,645 1338,614 1338,592 1347,577 1360,564 1376,553 1396,543 1419,535 1444,529 1469,525 1496,523 1522,524 1549,527 1573,533 1597,541 1617,552 1635,567 1649,584 1659,604 1666,636 1667,670 1663,705 1653,739 1639,771 1621,800 1598,825 1573,844 1553,855 1528,869 1499,885 1466,904 1432,925 1396,948 1359,973 1322,1000 1286,1028 1251,1059 1220,1091 1191,1125 1167,1161 1148,1198 1135,1236 1128,1276 1128,1275 1130,1273 1132,1270 1136,1266 1140,1261 1146,1254 1153,1248 1161,1240 1179,1274 1182,1219 1185,1217 1188,1214 1191,1211 1195,1207 1219,1246 1223,1183 1227,1180 1231,1177 1235,1175 1239,1172 1273,1223 1281,1141 1286,1137 1290,1134 1295,1131 1300,1128 1327,1176 1332,1108 1337,1106 1341,1103 1346,1100 1351,1098 1382,1149 1385,1078 1387,1077 1390,1075 1393,1074 1396,1072 1432,1136 1446,1048 1448,1047 1451,1046 1453,1045 1456,1044 1492,1118 1507,1023 1509,1021 1512,1020 1515,1019 1519,1018 1550,1094 1563,1001 1566,1000 1568,1000 1571,1000 1573,999 1608,1067 1622,981 1626,980 1631,979 1635,978 1639,976 1675,1044 1682,963 1686,962 1691,960 1696,958 1702,955 1736,1013 1742,933 1747,930 1753,927 1758,924 1763,920 1818,980 1800,893 1803,891 1806,888 1809,885 1813,882 1881,926 1845,849 1849,846 1852,842 1855,838 1858,834 1939,864 1882,795 1884,792 1887,787 1889,783 1892,780 1966,794 1909,733 1910,728 1911,722 1912,716 1913,710 1975,716 1919,666 1919,658 1919,651 1919,643 1919,636 1979,632 1915,595 1913,586 1912,576 1910,567 1908,558 1970,530 1892,507 1889,499 1887,492 1884,484 1881,477 1932,445 1858,429 1854,421 1850,414 1846,406 1841,399 1888,358 1811,352 1808,347 1804,341 1799,336 1796,331 1854,277 1763,294 1758,289 1753,283 1748,278 1743,273 1787,210 1702,234 1697,229 1692,225 1686,220 1680,216 1717,156 1642,187 1636,183 1630,179 1623,175 1617,172 1644,105 1578,149 1572,146 1565,143 1558,140 1551,136 1568,71 1506,116 1499,114 1491,111 1484,109 1477,106 1496,35 1425,91 1418,90 1412,89 1405,88 1398,87 1409,16 1344,78 1340,78 1336,77 1332,77 1328,76 1324,75 1320,75 1315,74 1311,74 1315,0 1252,72 1246,72 1240,72 1233,72 1227,72 1230,0 1162,71 1156,71 1150,71 1144,71 1138,72 1141,4 1074,74 1067,74 1060,74 1053,75 1047,75 1047,0 990,80 985,81 979,81 973,81 966,81 959,7 904,88 900,89 897,90 894,91 891,91 885,20 821,101 817,102 813,103 808,105 804,105 790,35 734,121 725,123 718,126 711,128 706,129 701,130 698,131 697,132 696,132 692,127 682,113 666,96 647,79 625,68 602,66 578,78 557,108 555,105 551,97 543,88 533,80 520,75 505,77 488,89 470,112 466,113 455,114 437,117 415,121 387,125 357,129 324,134 289,139 254,144 219,149 185,153 154,157 126,160 102,162 83,163 70,163 69,163 67,161 64,159 59,157 54,155 48,152 41,150 34,149 28,148 22,148 16,150 11,153 6,158 3,165 1,174 0,186 2,208 7,223 15,232 24,237 35,238 46,237 56,237 65,237"/>
<polygon class="pen1 brush2" points="688,574 689,577 694,583 701,593 711,603 723,614 737,623 754,630 773,632 766,720 743,676 686,749 702,672 582,723 655,646 555,633 642,604 581,572 688,574"/>
<polygon class="pen1 brush2" points="1246,696 1249,697 1258,701 1271,705 1288,709 1306,712 1325,712 1344,708 1362,699 1405,776 1347,754 1338,845 1310,771 1236,878 1257,774 1165,815 1223,746 1155,750 1246,696"/>
<polygon class="pen1 brush0" points="514,142 521,140 528,136 532,130 534,122 532,115 528,109 521,105 514,104 507,105 501,109 497,115 496,122 497,130 501,136 507,140 514,142"/>
</g>
</svg>
