<?xml version="1.0" encoding="UTF-8" standalone="no"?>
<!DOCTYPE svg PUBLIC "-//W3C//DTD SVG 1.0//EN" "http://www.w3.org/TR/2001/REC-SVG-20010904/DTD/svg10.dtd">
<svg xmlns="http://www.w3.org/2000/svg" xmlns:xlink="http://www.w3.org/1999/xlink" fill-rule="evenodd" height="1.963in" preserveAspectRatio="none" stroke-linecap="round" viewBox="0 0 1181 1963" width="1.181in">
<style type="text/css">
.brush0 { fill: rgb(255,255,255); }
.pen0 { stroke: rgb(0,0,0); stroke-width: 1; stroke-linejoin: round; }
.brush1 { fill: none; }
.pen1 { stroke: none; }
.brush2 { fill: rgb(0,0,0); }
</style>
<g>
<polygon class="pen1 brush2" points="817,1223 837,1219 856,1216 874,1213 891,1212 907,1211 923,1211 937,1212 951,1214 965,1216 977,1219 989,1223 1000,1227 1010,1232 1020,1237 1029,1243 1037,1250 1053,1267 1065,1286 1075,1308 1082,1331 1087,1357 1089,1384 1090,1412 1088,1442 1084,1475 1078,1508 1071,1542 1061,1576 1051,1609 1040,1641 1027,1673 1014,1703 1001,1731 988,1757 975,1780 962,1801 950,1819 938,1833 928,1844 919,1850 933,1861 946,1873 960,1885 973,1898 986,1912 1000,1926 1013,1942 1027,1958 1026,1959 1024,1960 1022,1962 1021,1963 1012,1951 1001,1939 989,1925 976,1911 961,1897 945,1882 927,1868 909,1854 901,1852 895,1842 890,1822 887,1791 891,1745 905,1693 927,1636 953,1577 979,1518 1002,1459 1020,1405 1027,1356 1027,1343 1025,1331 1022,1319 1018,1308 1012,1299 1004,1290 995,1282 984,1276 971,1271 955,1266 938,1263 919,1262 897,1262 873,1263 847,1266 818,1270 818,1353 818,1429 818,1496 817,1551 816,1588 814,1621 811,1650 807,1676 802,1698 796,1718 788,1735 778,1749 766,1760 751,1770 734,1777 714,1782 690,1786 663,1788 633,1788 598,1788 598,711 606,711 615,711 625,711 636,710 648,710 660,709 673,709 687,708 700,706 714,705 727,703 739,701 752,699 763,696 774,693 783,690 793,700 800,712 805,726 807,741 809,757 809,773 809,787 810,801 868,794 918,789 961,785 996,782 1024,781 1044,780 1056,782 1061,784 1058,787 1047,792 1027,798 1000,805 965,813 922,822 871,833 811,844 813,920 815,1012 816,1115 817,1223 817,1223"/>
<polygon class="pen1 brush2" points="398,673 380,682 367,694 358,709 353,726 350,744 349,762 349,781 348,800 297,795 251,792 212,789 180,788 154,787 135,787 123,788 118,790 120,794 129,798 146,803 170,808 202,815 242,823 289,832 345,841 343,916 341,1008 339,1112 338,1220 319,1217 300,1214 283,1212 266,1211 250,1211 235,1212 221,1214 208,1216 195,1219 183,1223 172,1227 162,1233 152,1239 144,1245 135,1252 128,1260 114,1279 102,1300 94,1324 89,1349 86,1376 85,1405 87,1435 91,1466 96,1498 103,1530 112,1562 122,1594 133,1626 144,1656 156,1686 169,1714 182,1740 195,1764 207,1786 220,1805 231,1822 242,1835 252,1844 260,1850 246,1861 233,1872 219,1884 205,1897 192,1911 178,1926 163,1942 149,1958 155,1963 164,1951 175,1939 187,1925 201,1911 215,1897 231,1882 248,1868 267,1854 274,1852 281,1842 287,1822 290,1791 289,1766 284,1739 276,1710 266,1679 253,1647 239,1615 224,1581 209,1548 194,1514 180,1482 168,1450 159,1419 152,1391 148,1364 149,1340 155,1318 159,1310 163,1303 169,1296 175,1290 182,1284 191,1280 200,1275 211,1271 222,1268 235,1266 249,1264 264,1263 281,1263 298,1264 318,1265 338,1267 338,1351 338,1428 339,1496 340,1551 342,1592 344,1627 348,1658 352,1685 359,1707 367,1726 376,1742 388,1754 402,1764 418,1772 438,1778 460,1782 485,1785 513,1787 545,1788 580,1789 580,1573 580,1250 580,928 581,713 568,713 554,712 541,711 528,710 515,709 502,707 490,704 478,702 466,699 454,696 444,693 433,689 424,686 414,682 406,677 398,673 398,673"/>
<polygon class="pen1 brush2" points="591,416 602,416 615,416 628,415 642,413 656,412 669,409 682,406 695,401 705,396 715,389 722,381 728,372 730,361 730,348 727,334 720,318 726,314 731,309 734,302 735,294 733,283 727,273 718,267 706,265 701,266 696,267 692,270 688,274 682,268 676,262 669,257 663,252 657,248 650,245 643,242 635,240 639,224 644,206 649,188 655,169 662,150 671,132 680,113 691,95 704,79 719,63 735,49 754,37 774,28 798,20 823,16 852,14 871,15 889,20 907,27 923,36 939,48 954,63 969,80 983,99 1003,132 1021,170 1037,212 1053,258 1067,307 1080,360 1092,415 1103,473 1112,534 1121,596 1129,659 1135,724 1141,789 1146,856 1150,922 1154,988 1162,1234 1163,1454 1160,1630 1155,1744 1169,1744 1171,1631 1173,1456 1174,1238 1168,994 1165,927 1161,860 1156,793 1150,727 1143,662 1136,597 1127,534 1118,473 1107,414 1095,358 1081,305 1067,254 1050,208 1033,165 1014,126 993,92 978,72 963,55 946,40 929,27 911,17 892,9 872,4 851,1 823,3 797,7 774,14 753,22 735,32 718,43 703,57 690,72 678,88 667,106 658,125 649,145 642,166 635,189 628,212 622,236 615,235 608,235 599,235 591,235 583,235 574,236 567,237 560,237 554,213 547,189 540,167 533,145 524,125 515,106 505,88 493,72 480,57 465,44 448,32 429,23 408,15 385,9 359,5 331,3 308,4 287,8 266,16 247,28 228,43 210,61 194,82 178,106 159,141 142,180 126,222 111,268 97,318 85,370 74,425 64,482 55,541 46,602 39,664 33,727 28,791 23,855 19,920 16,984 8,1234 7,1457 10,1633 13,1744 24,1744 21,1625 19,1448 21,1229 30,987 38,859 48,731 62,607 79,488 100,377 125,277 154,189 189,116 204,93 219,73 236,55 253,41 271,30 290,22 310,18 331,17 361,20 388,25 412,33 433,43 452,56 468,69 483,85 495,101 505,118 514,136 522,154 529,172 534,190 539,208 543,225 547,241 541,242 535,244 529,247 523,251 517,256 510,262 504,270 496,280 492,274 487,270 480,268 473,267 463,269 454,275 448,284 446,295 448,306 453,315 461,321 472,324 463,353 466,375 478,392 496,403 519,410 544,414 569,416 591,416 591,416"/>
<polygon class="pen1 brush2" points="399,480 381,479 360,478 338,476 315,473 296,469 280,464 271,458 270,450 280,429 294,405 311,380 327,353 341,329 351,306 355,288 350,275 345,273 338,274 330,279 321,287 307,280 293,273 278,265 263,256 248,246 232,235 216,224 200,211 196,217 209,227 222,237 235,246 250,255 265,264 280,273 297,282 314,291 297,310 278,334 260,362 242,390 228,418 216,444 210,465 209,480 212,486 217,491 225,496 234,501 245,505 258,509 271,512 286,515 300,518 315,520 330,522 344,524 358,525 371,526 382,527 392,528 389,546 386,564 382,584 377,605 376,627 384,645 400,660 424,671 453,680 486,685 523,689 562,691 600,691 638,690 674,689 706,686 733,684 755,682 768,681 773,680 789,675 800,666 807,653 810,636 811,615 809,590 805,561 800,528 811,527 822,526 835,524 848,523 861,521 875,519 888,516 901,513 914,510 926,507 937,503 946,499 955,495 961,490 966,485 969,480 968,465 961,443 949,417 934,389 916,360 897,332 878,307 860,288 877,279 893,270 909,261 924,252 939,243 953,233 966,224 979,214 976,210 960,222 944,234 928,244 913,253 898,262 883,270 869,277 855,284 846,277 839,273 833,273 828,275 824,288 828,306 837,329 852,353 868,380 884,405 898,429 908,450 907,457 900,463 887,467 870,471 851,474 830,477 810,479 791,480 786,460 778,444 769,433 758,425 745,419 731,416 714,414 696,413 687,417 676,420 664,423 651,425 638,426 623,428 609,428 594,429 579,428 564,428 550,427 537,425 524,423 512,421 502,418 493,415 469,417 450,421 435,426 424,432 415,441 408,452 403,465 399,480"/>
</g>
</svg>
