<?xml version="1.0" encoding="UTF-8" standalone="no"?>
<!DOCTYPE svg PUBLIC "-//W3C//DTD SVG 1.0//EN" "http://www.w3.org/TR/2001/REC-SVG-20010904/DTD/svg10.dtd">
<svg xmlns="http://www.w3.org/2000/svg" xmlns:xlink="http://www.w3.org/1999/xlink" fill-rule="evenodd" height="0.656in" preserveAspectRatio="none" stroke-linecap="round" viewBox="0 0 1987 656" width="1.987in">
<style type="text/css">
.brush0 { fill: rgb(255,255,255); }
.pen0 { stroke: rgb(0,0,0); stroke-width: 1; stroke-linejoin: round; }
.brush1 { fill: none; }
.pen1 { stroke: none; }
.brush2 { fill: rgb(0,0,0); }
</style>
<g>
<polygon class="pen1 brush2" points="315,234 316,233 320,229 325,224 333,217 343,209 355,200 368,191 383,182 399,173 417,166 435,160 455,155 476,153 497,153 519,156 542,162 544,161 549,157 557,150 569,142 584,132 602,121 624,110 648,97 676,84 707,72 741,60 779,49 819,38 862,30 909,23 958,18 1009,18 1060,23 1110,34 1159,49 1207,68 1253,89 1297,113 1339,138 1379,164 1416,189 1449,214 1480,237 1507,258 1529,275 1548,289 1562,298 1577,304 1598,311 1625,318 1655,325 1688,332 1723,340 1760,347 1797,355 1833,362 1867,370 1899,377 1927,384 1950,391 1968,398 1980,404 1984,410 1983,417 1979,425 1972,433 1962,443 1947,452 1928,461 1905,469 1877,476 1843,482 1803,487 1758,489 1706,489 1648,487 1583,481 1510,472 1430,460 1430,462 1430,469 1429,480 1426,494 1419,510 1409,527 1394,544 1373,562 1362,569 1352,573 1341,576 1330,581 1316,589 1300,602 1280,621 1255,649 1210,608 1125,648 1159,589 1062,606 1142,561 1072,525 1083,527 1093,529 1104,531 1114,533 1125,536 1136,538 1146,540 1157,541 1167,542 1178,543 1189,543 1199,542 1210,541 1221,539 1232,535 1243,531 1241,530 1234,527 1224,522 1212,514 1199,505 1185,493 1171,478 1158,461 1148,442 1140,419 1137,395 1138,367 1145,336 1159,303 1180,267 1210,227 1205,229 1193,237 1177,252 1158,274 1140,304 1125,344 1116,395 1116,457 1114,458 1107,460 1095,464 1081,468 1062,473 1040,478 1016,483 990,487 961,491 930,494 899,495 866,494 833,491 800,486 767,478 734,467 734,464 735,455 734,441 731,424 725,404 714,383 698,360 674,338 676,341 682,350 690,364 698,381 705,402 709,425 710,449 704,474 693,498 677,516 659,530 639,541 619,548 600,553 584,556 572,558 570,561 566,568 560,579 553,591 546,606 539,620 534,632 531,643 483,595 420,642 433,577 369,575 419,535 366,504 371,504 384,504 403,505 425,505 449,504 472,503 491,501 505,498 515,491 525,481 533,468 538,454 538,441 532,430 519,423 498,420 485,420 472,421 460,421 448,421 436,421 425,421 414,421 404,420 394,419 384,418 374,417 365,416 356,414 348,412 340,409 332,406 335,402 341,390 348,372 354,349 356,322 352,293 339,263 315,234"/>
<polygon class="pen1 brush2" points="1062,605 1062,605 1062,605"/>
<polygon class="pen1 brush2" points="1062,605 1062,605 1062,605 1062,605"/>
<polygon class="pen1 brush2" points="295,247 285,254 274,261 261,266 248,271 234,276 221,279 210,282 200,284 195,285 188,286 179,287 169,288 158,290 147,291 135,293 122,295 109,298 97,300 85,303 73,306 62,308 53,311 45,315 38,318 28,326 20,338 16,351 15,365 19,379 27,390 40,398 59,402 77,403 96,403 116,403 137,403 158,403 179,403 200,403 220,402 238,402 256,402 272,401 285,401 296,401 305,400 310,400 312,400 330,370 336,341 335,316 328,293 317,274 307,259 298,250 295,247 295,247"/>
<polygon class="pen1 brush2" points="355,577 404,537 350,507 360,528 361,551 357,569 355,577 355,577"/>
<polygon class="pen1 brush2" points="410,650 423,584 359,582 373,592 384,602 393,614 400,625 405,635 408,643 409,648 410,650 410,650"/>
<polygon class="pen1 brush2" points="528,653 483,608 420,655 435,651 450,648 464,646 478,646 491,647 504,648 516,651 528,653 528,653"/>
<polygon class="pen1 brush2" points="1051,604 1125,561 1061,528 1065,553 1062,576 1056,594 1051,604 1051,604"/>
<polygon class="pen1 brush2" points="1129,653 1149,650 1170,649 1190,649 1210,650 1226,652 1239,654 1248,655 1251,656 1208,616 1129,653 1129,653"/>
<polygon class="pen1 brush2" points="1112,656 1143,599 1054,615 1070,620 1082,625 1092,630 1098,635 1103,640 1107,646 1109,651 1112,656"/>
<polygon class="pen1 brush0" points="450,294 460,291 468,285 473,276 474,266 472,255 466,247 457,241 447,240 436,242 428,249 422,258 420,268 421,274 423,279 426,283 430,287 434,290 439,292 444,294 450,294"/>
<polygon class="pen1 brush0" points="75,379 80,378 84,375 87,370 88,365 86,360 83,356 78,353 73,352 68,353 64,356 62,360 61,366 62,371 65,375 70,378 75,379"/>
</g>
</svg>
