<?xml version="1.0" encoding="UTF-8" standalone="no"?>
<!DOCTYPE svg PUBLIC "-//W3C//DTD SVG 1.0//EN" "http://www.w3.org/TR/2001/REC-SVG-20010904/DTD/svg10.dtd">
<svg xmlns="http://www.w3.org/2000/svg" xmlns:xlink="http://www.w3.org/1999/xlink" fill-rule="evenodd" height="0.649in" preserveAspectRatio="none" stroke-linecap="round" viewBox="0 0 1978 649" width="1.978in">
<style type="text/css">
.brush0 { fill: rgb(255,255,255); }
.pen0 { stroke: rgb(0,0,0); stroke-width: 1; stroke-linejoin: round; }
.brush1 { fill: none; }
.pen1 { stroke: none; }
.brush2 { fill: rgb(0,0,0); }
</style>
<g>
<polygon class="pen1 brush2" points="102,460 91,449 79,439 68,429 57,419 47,408 38,397 31,385 25,371 25,371 27,369 29,367 32,364 36,360 42,356 48,351 57,346 66,339 77,333 90,326 105,318 121,311 139,303 160,294 182,286 207,277 233,269 263,260 294,251 328,243 365,234 405,226 447,217 492,209 540,202 592,195 646,188 704,181 765,175 829,170 897,165 898,162 902,152 909,137 918,117 929,92 943,64 958,33 975,0 976,1 979,3 983,6 989,10 995,15 1002,20 1010,26 1017,31 954,188 968,188 1028,40 1033,44 1038,48 1043,52 1049,57 1054,61 1060,66 1066,70 1072,75 1025,193 1039,193 1083,84 1089,88 1095,92 1101,96 1107,99 1113,103 1119,107 1124,111 1130,115 1096,199 1110,199 1142,122 1148,126 1154,129 1160,133 1166,137 1172,140 1178,143 1184,146 1190,149 1167,206 1183,206 1203,155 1208,158 1213,160 1219,162 1224,164 1229,166 1234,167 1239,168 1244,169 1227,205 1230,206 1239,208 1253,212 1272,217 1294,222 1318,228 1345,235 1374,241 1403,248 1432,254 1460,259 1486,264 1511,268 1532,270 1549,270 1562,269 1575,265 1593,260 1614,252 1639,243 1667,233 1697,222 1728,210 1760,198 1793,186 1825,174 1856,163 1885,152 1912,143 1936,136 1957,130 1974,127 1971,133 1964,149 1953,172 1937,199 1919,229 1897,259 1872,286 1846,307 1850,312 1862,326 1879,346 1899,371 1921,400 1943,430 1963,459 1978,486 1975,485 1966,484 1953,481 1935,478 1914,474 1889,469 1862,463 1834,457 1804,450 1774,443 1744,435 1714,427 1686,419 1661,411 1638,402 1618,394 1616,395 1610,397 1601,401 1588,406 1574,412 1557,420 1539,428 1520,437 1501,447 1481,457 1462,468 1444,480 1427,491 1412,503 1400,514 1390,526 1388,525 1384,523 1377,519 1368,514 1357,509 1345,503 1332,496 1318,490 1316,491 1310,493 1300,497 1288,501 1272,506 1255,513 1236,519 1216,526 1196,533 1175,540 1154,546 1134,552 1116,558 1099,562 1084,566 1072,568 1073,568 1075,569 1078,571 1082,574 1088,578 1096,583 1105,590 1116,598 1115,599 1112,603 1107,609 1100,616 1093,624 1086,632 1079,641 1072,649 1069,647 1062,642 1051,634 1037,624 1022,613 1005,601 989,589 974,577 971,577 964,579 952,581 935,583 914,586 890,589 862,592 831,595 796,597 760,600 721,602 680,603 638,603 594,603 549,601 504,598 468,595 432,591 397,586 361,580 325,573 291,565 256,555 223,545 190,533 159,519 128,504 99,488 72,470 46,450 22,429 0,406 102,460"/>
<polygon class="pen1 brush0" points="764,313 770,321 774,317 784,310 797,299 808,285 815,268 813,250 799,230 768,209 758,213 788,233 802,251 806,267 801,281 791,292 780,302 770,308 764,313"/>
<polyline class="pen0" fill="none" points="764,313 770,321 770,321 774,317 784,310 797,299 808,285 815,268 813,250 799,230 768,209 758,213 758,213 788,233 802,251 806,267 801,281 791,292 780,302 770,308 764,313"/>
<polygon class="pen1 brush0" points="153,394 162,392 169,387 174,380 176,371 174,362 169,355 162,350 153,348 144,350 137,355 132,362 130,371 132,380 137,387 144,392 153,394"/>
<polygon class="pen1 brush0" points="308,300 335,316 358,337 374,362 383,391 381,424 367,458 338,494 291,530 294,527 302,519 313,507 325,491 338,473 349,452 357,431 360,409 358,378 353,353 344,334 335,320 325,310 316,304 310,301 308,300"/>
<polygon class="pen1 brush0" points="427,472 449,479 468,486 486,493 501,501 515,510 526,520 535,531 541,544 531,547 523,534 514,523 503,513 491,504 477,496 461,489 444,482 426,476 427,475 427,474 427,473 427,472"/>
<polygon class="pen1 brush0" points="430,456 444,457 457,457 469,458 480,458 490,459 500,460 509,461 517,463 526,465 535,467 544,470 553,474 563,478 574,483 587,489 600,496 586,503 567,492 549,483 531,476 513,470 494,467 474,464 453,461 430,459 430,458 430,457 430,456 430,456 430,456"/>
<polygon class="pen1 brush0" points="429,442 447,441 464,439 479,438 494,437 507,437 519,436 531,436 542,436 553,437 565,438 576,440 588,442 600,445 613,449 627,454 642,459 630,467 615,462 601,457 588,453 575,450 564,448 553,446 542,444 531,443 520,443 509,442 498,443 486,443 473,443 460,444 445,444 429,445 429,444 429,443 429,442 429,442"/>
<polygon class="pen1 brush0" points="423,431 434,429 445,427 456,425 467,423 478,421 489,420 500,418 512,417 525,415 538,414 552,414 567,413 583,413 600,413 619,414 639,415 633,425 617,423 601,422 588,421 575,420 562,420 551,420 540,420 529,420 518,421 507,422 495,423 483,424 470,426 456,428 441,430 424,432 424,432 424,432 423,432 423,431"/>
<polygon class="pen1 brush0" points="667,359 674,368 678,365 688,357 701,346 713,332 720,316 718,297 703,277 673,256 663,260 692,280 706,298 709,314 704,328 694,339 683,348 673,355 667,359"/>
<polyline class="pen0" fill="none" points="667,359 674,368 674,368 678,365 688,357 701,346 713,332 720,316 718,297 703,277 673,256 663,260 663,260 692,280 706,298 709,314 704,328 694,339 683,348 673,355 667,359"/>
<polygon class="pen1 brush0" points="831,406 838,413 841,410 850,403 862,393 873,380 880,365 878,348 865,329 836,310 826,314 853,333 867,350 870,365 866,377 856,388 846,396 836,402 831,406"/>
<polyline class="pen0" fill="none" points="831,406 838,413 838,413 841,410 850,403 862,393 873,380 880,365 878,348 865,329 836,310 826,314 826,314 853,333 867,350 870,365 866,377 856,388 846,396 836,402 831,406"/>
<polygon class="pen1 brush0" points="1048,513 1054,521 1057,518 1067,510 1079,500 1090,487 1096,471 1094,454 1081,435 1052,415 1042,419 1069,438 1083,455 1087,470 1083,483 1074,494 1063,502 1053,509 1048,513"/>
<polyline class="pen0" fill="none" points="1048,513 1054,521 1054,521 1057,518 1067,510 1079,500 1090,487 1096,471 1094,454 1081,435 1052,415 1042,419 1042,419 1069,438 1083,455 1087,470 1083,483 1074,494 1063,502 1053,509 1048,513"/>
<polygon class="pen1 brush0" points="1288,348 1294,357 1297,354 1306,347 1318,336 1329,323 1336,307 1334,290 1321,271 1292,252 1282,256 1309,275 1323,292 1326,307 1322,320 1313,330 1302,338 1293,344 1288,348"/>
<polyline class="pen0" fill="none" points="1288,348 1294,357 1294,357 1297,354 1306,347 1318,336 1329,323 1336,307 1334,290 1321,271 1292,252 1282,256 1282,256 1309,275 1323,292 1326,307 1322,320 1313,330 1302,338 1293,344 1288,348"/>
<polygon class="pen1 brush0" points="1427,378 1430,385 1433,382 1441,376 1450,368 1459,358 1464,346 1462,333 1452,318 1430,303 1423,306 1444,321 1454,334 1457,345 1453,355 1446,363 1438,370 1431,375 1427,378"/>
<polyline class="pen0" fill="none" points="1427,378 1430,385 1430,385 1433,382 1441,376 1450,368 1459,358 1464,346 1462,333 1452,318 1430,303 1423,306 1423,306 1444,321 1454,334 1457,345 1453,355 1446,363 1438,370 1431,375 1427,378"/>
<polygon class="pen1 brush0" points="1356,433 1362,442 1365,439 1374,432 1384,423 1394,411 1400,398 1399,383 1387,367 1362,350 1352,352 1377,369 1389,384 1392,397 1388,408 1380,417 1370,424 1361,430 1356,433"/>
<polyline class="pen0" fill="none" points="1356,433 1362,442 1362,442 1365,439 1374,432 1384,423 1394,411 1400,398 1399,383 1387,367 1362,350 1352,352 1352,352 1377,369 1389,384 1392,397 1388,408 1380,417 1370,424 1361,430 1356,433"/>
</g>
</svg>
