<?xml version="1.0" encoding="UTF-8" standalone="no"?>
<!DOCTYPE svg PUBLIC "-//W3C//DTD SVG 1.0//EN" "http://www.w3.org/TR/2001/REC-SVG-20010904/DTD/svg10.dtd">
<svg xmlns="http://www.w3.org/2000/svg" xmlns:xlink="http://www.w3.org/1999/xlink" fill-rule="evenodd" height="0.86in" preserveAspectRatio="none" stroke-linecap="round" viewBox="0 0 1979 860" width="1.979in">
<style type="text/css">
.brush0 { fill: rgb(255,255,255); }
.pen0 { stroke: rgb(0,0,0); stroke-width: 1; stroke-linejoin: round; }
.brush1 { fill: none; }
.pen1 { stroke: none; }
.brush2 { fill: rgb(0,0,0); }
</style>
<g>
<polygon class="pen1 brush2" points="500,705 603,803 519,843 543,769 419,796 500,705 500,705"/>
<polygon class="pen1 brush2" points="638,628 536,697 617,796 769,735 803,644 793,645 782,646 772,646 761,647 750,647 739,646 728,646 718,645 707,643 696,642 686,640 676,638 666,636 656,634 647,631 638,628 638,628"/>
<polygon class="pen1 brush2" points="1079,790 958,729 897,824 1013,776 1015,860 1079,790 1079,790"/>
<polygon class="pen1 brush2" points="1056,620 1065,619 1074,617 1085,615 1095,613 1107,611 1118,609 1130,606 1142,603 1153,600 1164,596 1175,593 1185,589 1195,585 1204,581 1211,577 1218,573 1212,665 1086,782 982,712 1056,620 1056,620"/>
<polygon class="pen1 brush2" points="1383,371 1374,388 1367,405 1361,422 1355,439 1348,457 1340,474 1331,491 1320,508 1321,509 1325,512 1332,516 1342,521 1355,528 1370,536 1387,544 1406,553 1426,563 1446,572 1468,582 1490,592 1512,601 1534,609 1555,617 1576,624 1597,630 1621,637 1646,643 1673,649 1701,655 1729,661 1758,667 1786,672 1814,677 1841,682 1866,686 1890,689 1911,691 1929,693 1944,694 1956,694 1959,691 1966,684 1971,674 1969,662 1967,661 1960,659 1948,656 1934,652 1916,647 1895,641 1872,634 1847,627 1821,619 1793,610 1765,601 1737,592 1710,582 1683,572 1658,563 1634,553 1611,542 1588,530 1565,516 1543,501 1522,486 1502,470 1483,454 1465,438 1448,423 1433,409 1419,397 1408,387 1398,379 1391,373 1386,370 1383,371 1383,371"/>
<polygon class="pen1 brush2" points="317,259 319,264 326,277 336,299 351,326 369,358 391,394 416,432 445,471 461,490 478,507 497,523 518,538 540,552 563,564 587,576 613,586 639,594 667,602 696,608 726,613 757,617 789,619 822,620 856,620 890,619 923,616 955,611 986,605 1017,599 1046,591 1075,582 1102,572 1128,562 1152,552 1175,541 1196,531 1216,520 1233,509 1249,499 1263,489 1289,466 1313,438 1336,406 1355,375 1372,346 1384,322 1392,306 1395,300 1378,292 1361,285 1346,279 1332,273 1320,268 1310,265 1304,263 1302,262 1289,292 1271,329 1249,368 1226,408 1204,444 1185,474 1173,495 1168,502 1155,493 1148,488 1145,486 1144,485 1160,462 1181,424 1206,377 1231,326 1254,277 1274,235 1287,206 1292,195 1279,185 1264,175 1250,167 1236,159 1224,153 1214,149 1207,146 1205,145 1194,178 1179,224 1160,278 1141,333 1122,386 1106,429 1095,460 1091,471 1077,465 1070,459 1068,455 1070,452 1082,426 1098,381 1116,325 1135,263 1153,203 1168,152 1178,116 1182,103 1168,96 1153,90 1139,85 1125,81 1113,77 1103,75 1096,74 1094,73 1084,124 1069,181 1052,241 1035,299 1019,352 1005,395 996,423 992,434 979,432 970,430 965,429 963,428 964,427 966,427 968,427 971,428 981,398 995,348 1010,285 1026,217 1041,152 1054,96 1063,57 1066,42 1037,35 1012,29 991,25 974,22 962,21 953,21 949,21 948,23 945,69 941,128 935,193 928,259 922,321 916,372 912,407 911,420 902,421 895,421 889,421 884,421 881,421 879,420 877,420 877,420 884,379 891,321 896,253 900,181 903,114 905,57 907,18 907,3 892,3 875,3 858,5 842,7 828,9 817,11 810,12 807,13 817,106 817,234 813,349 810,398 800,399 791,400 785,400 781,401 778,401 776,401 775,401 775,401 778,296 774,167 768,59 765,13 747,13 729,15 711,17 694,19 677,23 660,27 644,31 627,36 611,42 596,48 580,54 565,61 551,68 536,76 523,83 509,91 491,102 474,114 457,126 441,138 426,151 412,163 399,175 386,186 374,198 363,208 353,219 344,229 336,237 329,246 322,253 317,259 317,259"/>
<polygon class="pen1 brush2" points="269,266 261,273 254,279 248,285 243,291 237,296 232,302 226,309 219,316 216,315 208,311 197,306 184,297 171,287 158,273 148,258 142,239 136,206 131,181 125,158 117,133 120,134 128,138 140,144 155,151 172,159 189,168 205,177 219,185 231,194 241,206 249,219 256,233 262,246 266,256 268,263 269,266 269,266"/>
<polygon class="pen1 brush2" points="2,796 3,802 6,806 12,808 18,809 25,808 30,807 34,806 36,806 63,769 92,734 122,702 154,673 186,647 218,623 249,602 280,583 308,567 335,553 359,542 380,532 397,525 410,520 418,517 421,516 400,493 379,460 357,421 337,380 320,340 306,307 297,283 294,272 265,294 236,321 209,351 183,383 158,418 135,455 113,493 93,531 75,570 58,608 44,645 31,681 20,714 12,745 6,772 2,796"/>
<polygon class="pen1 brush0" points="265,475 272,474 278,472 284,469 289,464 293,459 296,453 298,446 299,439 298,432 296,426 293,420 289,415 284,411 278,408 272,406 265,405 258,406 251,408 245,411 240,415 235,420 232,426 230,432 229,439 230,446 232,453 235,459 240,464 245,469 251,472 258,474 265,475"/>
</g>
</svg>
