<?xml version="1.0" encoding="UTF-8" standalone="no"?>
<!DOCTYPE svg PUBLIC "-//W3C//DTD SVG 1.0//EN" "http://www.w3.org/TR/2001/REC-SVG-20010904/DTD/svg10.dtd">
<svg xmlns="http://www.w3.org/2000/svg" xmlns:xlink="http://www.w3.org/1999/xlink" fill-rule="evenodd" height="1.193in" preserveAspectRatio="none" stroke-linecap="round" viewBox="0 0 1966 1193" width="1.966in">
<style type="text/css">
.brush0 { fill: rgb(255,255,255); }
.pen0 { stroke: rgb(0,0,0); stroke-width: 1; stroke-linejoin: round; }
.brush1 { fill: none; }
.pen1 { stroke: none; }
.brush2 { fill: rgb(0,0,0); }
</style>
<g>
<polygon class="pen1 brush2" points="914,179 912,179 906,178 897,177 887,175 877,172 867,168 860,162 855,155 849,136 843,114 837,95 831,84 828,82 826,80 823,79 821,78 784,0 775,1 811,78 809,79 807,80 806,83 805,88 809,106 816,133 824,159 833,173 839,177 849,181 861,186 873,191 885,195 896,199 905,201 910,202 911,201 912,198 913,191 914,179"/>
<polygon class="pen1 brush2" points="1058,183 1060,183 1066,182 1075,181 1085,178 1096,175 1106,171 1114,166 1119,159 1125,140 1131,118 1137,99 1143,87 1145,85 1148,84 1151,82 1153,81 1190,4 1200,6 1163,81 1165,82 1167,84 1168,87 1167,92 1164,110 1158,136 1149,162 1140,177 1134,180 1125,185 1113,189 1101,193 1089,198 1078,201 1070,203 1065,204 1064,203 1062,201 1059,194 1058,183"/>
<polygon class="pen1 brush2" points="1558,419 1574,421 1594,423 1617,425 1642,429 1669,432 1697,437 1726,443 1754,449 1782,456 1808,464 1832,473 1854,483 1872,494 1886,507 1895,520 1899,535 1898,545 1895,556 1888,568 1879,580 1866,593 1849,607 1829,621 1804,636 1774,653 1744,668 1714,681 1684,693 1655,704 1626,713 1597,722 1568,729 1539,734 1512,739 1484,743 1457,746 1430,748 1404,749 1379,750 1354,750 1330,749 1306,748 1284,747 1262,745 1240,742 1220,740 1201,737 1182,734 1165,731 1148,729 1133,726 1118,723 1105,721 1093,719 1082,717 1072,716 1071,707 1069,685 1066,651 1061,611 1054,569 1047,528 1039,492 1029,466 1039,463 1052,460 1069,457 1089,453 1112,449 1138,445 1167,442 1200,438 1235,434 1273,431 1314,428 1358,425 1404,423 1453,421 1504,420 1558,420 1558,419"/>
<polygon class="pen1 brush2" points="1083,233 1085,233 1090,231 1099,229 1111,226 1126,222 1144,218 1164,212 1187,207 1212,201 1238,194 1267,188 1296,180 1327,173 1359,166 1392,158 1426,151 1460,143 1494,136 1528,129 1562,122 1595,115 1628,109 1659,103 1690,98 1719,93 1747,89 1773,85 1797,83 1819,81 1839,80 1856,80 1870,81 1888,84 1905,88 1921,94 1934,100 1946,108 1955,117 1961,127 1964,139 1964,147 1962,155 1959,164 1954,174 1946,185 1937,196 1926,208 1913,220 1902,229 1889,239 1875,248 1860,258 1844,269 1826,280 1806,291 1785,302 1763,314 1739,326 1713,338 1686,351 1657,364 1626,377 1593,391 1559,405 1506,405 1456,406 1408,408 1363,410 1320,413 1280,416 1243,419 1209,423 1177,426 1148,430 1123,434 1100,437 1080,441 1064,444 1051,447 1041,450 1045,440 1051,422 1058,399 1065,371 1072,340 1078,306 1082,270 1083,233"/>
<polygon class="pen1 brush2" points="412,416 396,417 376,419 353,421 328,424 301,428 273,432 244,437 216,443 188,451 162,459 137,468 116,478 98,490 84,502 75,516 71,531 72,541 75,553 82,564 92,577 105,590 121,603 142,617 166,632 196,649 226,664 256,677 286,689 315,700 345,709 374,717 402,724 431,730 459,735 486,738 513,741 540,743 566,745 591,745 616,745 640,744 664,743 687,741 709,739 730,737 750,734 769,731 788,729 805,726 822,723 837,720 851,717 865,715 877,713 887,711 897,710 898,701 900,679 903,645 908,605 915,563 922,522 930,486 940,460 930,458 917,455 900,452 880,448 857,445 831,441 802,437 770,433 735,430 697,427 656,424 613,421 567,419 518,417 466,416 412,416 412,416"/>
<polygon class="pen1 brush2" points="886,229 884,229 879,227 870,225 858,222 843,218 825,214 805,208 782,203 757,197 731,190 702,184 673,176 642,169 610,162 577,154 543,147 509,139 475,132 441,125 407,118 374,111 341,105 310,99 279,94 250,89 222,85 196,81 172,79 150,77 130,76 113,76 99,77 84,79 70,82 57,86 45,90 34,96 24,102 17,110 11,118 8,126 7,135 7,145 11,156 17,167 25,180 36,192 51,206 62,216 74,225 88,235 103,246 120,257 138,268 158,279 179,290 202,302 226,315 252,327 280,340 310,354 341,367 375,382 410,396 463,396 514,397 562,399 607,401 650,404 690,407 727,411 762,414 793,418 822,422 848,426 870,429 890,433 906,436 919,439 929,442 925,431 918,414 911,392 904,364 897,334 891,300 887,265 886,229"/>
<polygon class="pen1 brush2" points="1055,838 1055,835 1055,831 1055,828 1055,825 1054,763 1051,704 1046,650 1040,601 1032,558 1023,522 1012,493 1001,473 998,474 995,475 991,476 987,476 982,475 977,474 972,471 967,467 956,486 945,515 936,551 928,595 921,645 916,701 913,761 912,825 912,828 912,831 912,835 912,838 1055,838"/>
<polygon class="pen1 brush2" points="1052,916 1053,901 1054,886 1055,871 1055,855 912,855 913,871 913,886 913,901 913,916 1052,916"/>
<polygon class="pen1 brush2" points="1045,1000 1047,984 1049,968 1051,950 1052,933 914,933 915,950 917,968 918,984 920,1000 1045,1000"/>
<polygon class="pen1 brush2" points="1034,1084 1037,1068 1039,1052 1042,1035 1044,1017 923,1017 924,1035 927,1052 930,1068 933,1084 1034,1084"/>
<polygon class="pen1 brush2" points="983,1193 990,1191 996,1187 1003,1179 1009,1169 1015,1156 1021,1140 1026,1122 1031,1101 936,1101 941,1122 946,1140 952,1156 958,1169 964,1179 970,1187 977,1191 983,1193"/>
<polygon class="pen1 brush2" points="987,469 1002,465 1015,454 1027,438 1038,415 1046,388 1053,357 1057,323 1058,287 1057,250 1053,215 1047,184 1038,158 1046,157 1053,154 1059,150 1065,144 1070,138 1073,131 1075,123 1076,115 1075,107 1073,100 1070,94 1066,88 1060,83 1054,79 1047,76 1039,74 1038,65 1035,57 1031,50 1025,43 1018,38 1011,34 1002,32 993,31 985,32 977,34 969,38 963,43 957,49 952,56 949,64 947,72 939,73 931,76 924,80 918,86 913,92 909,99 907,107 906,115 907,122 908,129 911,136 915,141 920,147 926,151 932,154 939,156 930,183 923,215 918,250 916,287 917,323 922,357 928,388 937,415 947,438 959,454 973,465 987,469"/>
<polygon class="pen1 brush0" points="948,149 941,148 935,146 929,143 924,139 919,134 916,128 914,122 913,115 914,108 916,101 919,95 924,89 929,85 935,82 941,80 948,79 955,80 961,82 967,85 973,89 977,95 980,101 982,108 983,115 982,122 980,128 977,134 973,139 967,143 961,146 955,148 948,149 948,149"/>
<polygon class="pen1 brush0" points="1032,152 1039,151 1046,149 1052,146 1058,141 1062,135 1065,129 1067,122 1068,115 1067,108 1065,101 1062,95 1058,89 1052,85 1046,82 1039,80 1032,79 1025,80 1018,82 1012,85 1006,89 1001,95 998,101 996,108 995,115 996,122 998,129 1001,135 1006,141 1012,146 1018,149 1025,151 1032,152"/>
<polygon class="pen1 brush0" points="437,567 433,568 428,567 424,566 419,563 414,559 410,554 406,548 403,541 399,527 398,514 401,504 407,497 412,496 416,497 421,498 426,501 430,505 434,510 438,516 441,523 446,537 447,550 444,560 437,567"/>
<polygon class="pen1 brush0" points="410,227 406,228 401,227 396,226 391,223 386,219 381,214 377,208 373,202 369,188 369,174 372,164 379,159 383,158 388,158 393,159 398,162 402,166 406,171 410,177 413,183 418,198 419,211 416,221 410,227"/>
<polygon class="pen1 brush0" points="1532,571 1537,572 1541,571 1546,570 1551,567 1556,563 1560,558 1564,552 1568,545 1572,531 1572,518 1569,508 1562,501 1558,500 1553,501 1549,502 1544,505 1539,509 1535,514 1531,520 1528,527 1524,541 1523,554 1526,564 1532,571"/>
<polygon class="pen1 brush0" points="1561,226 1565,227 1570,226 1575,225 1580,222 1584,218 1589,213 1593,207 1596,200 1601,186 1601,173 1598,163 1592,156 1587,155 1582,156 1577,157 1573,160 1568,164 1564,169 1560,175 1556,182 1552,196 1551,209 1554,219 1561,226"/>
<polygon class="pen1 brush0" points="598,365 612,363 627,361 641,358 656,354 671,350 685,346 700,341 714,335 727,328 741,321 753,313 765,304 775,294 785,282 794,270 802,257 798,253 780,253 761,253 742,252 723,251 703,250 684,248 664,246 644,244 624,241 604,238 585,234 566,229 547,224 529,219 511,213 494,206 491,213 507,219 524,225 541,229 558,234 576,238 593,241 611,244 628,247 646,249 664,251 682,253 699,254 717,255 735,256 752,257 770,258 738,264 705,268 672,272 639,274 606,275 573,275 540,274 507,272 474,268 441,264 409,258 377,251 345,243 313,233 282,222 251,210 248,197 243,184 237,171 229,159 221,148 211,138 201,129 189,122 187,129 197,136 206,144 215,153 222,162 229,172 235,183 240,194 244,206 231,200 219,194 206,188 194,181 181,175 168,169 156,162 143,156 139,162 154,170 170,178 186,186 201,194 217,201 233,208 249,215 266,222 282,228 299,234 315,239 332,245 349,249 366,254 383,258 400,261 400,297 382,292 364,288 347,283 329,277 312,272 295,266 278,260 261,254 258,260 290,271 323,282 356,291 389,300 423,308 456,314 490,319 525,322 558,323 592,323 626,320 659,315 692,307 725,296 757,283 788,267 780,278 771,288 761,298 751,306 740,314 728,321 716,327 704,332 691,337 678,342 664,345 651,349 638,352 624,354 611,356 598,358 598,365 598,365"/>
<polygon class="pen1 brush2" points="605,314 605,283 616,282 627,282 638,281 649,280 660,279 670,278 681,277 692,276 703,275 714,274 724,272 735,271 746,269 757,268 768,266 779,264 769,269 759,275 749,279 738,284 727,288 717,292 706,296 695,299 683,302 672,305 661,307 650,309 639,311 627,312 616,313 605,314 605,314"/>
<polygon class="pen1 brush2" points="598,283 598,314 586,315 573,315 561,315 549,315 537,315 525,314 513,314 502,313 490,312 478,310 466,309 454,307 442,305 430,303 418,301 406,298 406,264 418,266 430,268 442,270 454,272 466,273 478,275 490,277 502,278 514,279 526,280 538,281 550,282 562,283 574,283 586,283 598,283"/>
<polygon class="pen1 brush0" points="1362,365 1348,363 1333,361 1319,358 1304,354 1289,350 1275,346 1260,341 1246,335 1233,328 1220,321 1207,313 1196,304 1185,294 1175,282 1167,270 1159,257 1162,253 1180,253 1199,253 1218,252 1237,251 1257,250 1277,248 1296,246 1316,244 1336,241 1356,238 1375,234 1394,229 1413,224 1431,219 1449,213 1466,206 1468,213 1452,219 1435,225 1419,229 1402,234 1384,238 1367,241 1349,244 1332,247 1314,249 1296,251 1278,253 1260,254 1243,255 1225,256 1207,257 1190,258 1222,264 1255,268 1288,272 1321,274 1354,275 1387,275 1419,274 1452,272 1485,268 1518,264 1550,258 1582,251 1614,243 1646,233 1677,222 1708,210 1712,197 1717,184 1723,171 1731,159 1739,148 1749,138 1759,129 1771,122 1774,129 1764,136 1754,144 1745,153 1737,162 1730,172 1724,183 1720,194 1716,206 1729,200 1742,194 1755,188 1767,181 1780,175 1793,169 1805,162 1818,156 1821,162 1805,170 1790,178 1774,186 1758,194 1742,201 1727,208 1710,215 1694,222 1678,228 1662,234 1645,239 1629,245 1612,249 1595,254 1578,258 1561,261 1561,297 1579,292 1596,288 1614,283 1631,277 1648,272 1665,266 1683,260 1700,254 1701,260 1669,271 1637,282 1604,291 1571,300 1538,308 1504,314 1470,319 1436,322 1402,323 1369,323 1335,320 1302,315 1269,307 1236,296 1204,283 1173,267 1181,278 1190,288 1200,298 1210,306 1221,314 1232,321 1244,327 1257,332 1269,337 1282,342 1295,345 1309,349 1322,352 1335,354 1349,356 1362,358 1362,365 1362,365"/>
<polygon class="pen1 brush2" points="1356,314 1356,283 1345,282 1333,282 1322,281 1311,280 1300,279 1290,278 1279,277 1268,276 1257,275 1247,274 1236,272 1225,271 1214,269 1203,268 1192,266 1181,264 1191,269 1201,275 1212,279 1222,284 1233,288 1244,292 1255,296 1266,299 1277,302 1288,305 1299,307 1311,309 1322,311 1333,312 1345,313 1356,314 1356,314"/>
<polygon class="pen1 brush2" points="1362,283 1362,314 1374,315 1386,315 1398,315 1410,315 1422,315 1434,314 1446,314 1458,313 1470,312 1482,310 1494,309 1506,307 1518,305 1530,303 1542,301 1554,298 1554,264 1542,266 1530,268 1518,270 1507,272 1495,273 1483,275 1471,277 1459,278 1447,279 1435,280 1423,281 1411,282 1398,283 1386,283 1374,283 1362,283"/>
<polygon class="pen1 brush0" points="667,689 681,685 695,681 709,676 723,670 737,664 751,657 764,650 777,642 790,633 801,624 812,614 822,603 831,591 838,579 845,565 850,551 846,547 828,550 810,552 791,555 772,557 752,559 732,561 712,562 693,563 673,564 653,564 633,563 613,562 594,560 575,558 557,555 539,551 538,558 555,561 572,564 590,566 608,568 625,569 643,569 661,570 679,569 697,569 715,568 732,566 750,565 768,563 786,562 803,560 821,558 790,568 758,578 726,586 694,593 662,599 629,605 597,609 564,612 531,614 498,614 465,614 432,612 399,609 366,605 333,599 301,592 295,579 289,567 280,556 271,545 261,536 249,528 237,522 224,517 224,524 235,529 245,534 255,542 264,550 272,559 280,568 286,579 292,589 278,586 265,582 251,578 238,574 225,570 211,566 198,561 184,557 183,562 200,568 216,574 233,579 250,584 266,589 283,593 300,598 317,601 334,605 352,608 369,611 386,613 403,615 421,617 438,618 456,619 460,653 442,652 424,650 406,648 388,645 370,642 352,639 334,636 316,632 315,639 348,645 382,650 416,655 450,658 485,660 519,661 553,661 587,658 621,654 654,649 687,641 719,630 750,618 781,602 810,585 839,564 833,576 825,588 817,598 808,608 799,617 789,626 778,634 766,641 755,648 742,654 730,660 717,665 705,670 692,675 679,679 666,683 667,689 667,689"/>
<polygon class="pen1 brush2" points="666,639 660,606 671,604 682,602 693,599 704,597 714,595 725,592 735,590 746,587 756,584 766,581 777,578 787,575 797,572 808,568 818,565 829,561 820,568 811,574 802,581 793,587 783,593 773,598 763,604 752,609 742,613 731,618 720,622 710,626 699,630 688,633 677,636 666,639 666,639"/>
<polygon class="pen1 brush2" points="654,608 660,639 648,642 636,644 624,646 612,648 600,650 588,651 576,652 564,653 552,654 540,655 528,655 516,655 504,655 492,655 479,654 467,653 461,619 473,619 485,620 497,620 509,620 522,620 534,620 546,619 558,619 570,618 583,617 595,616 607,615 619,613 631,612 642,610 654,608"/>
<polygon class="pen1 brush0" points="1294,689 1280,685 1266,681 1252,676 1237,670 1223,664 1209,657 1196,650 1183,642 1170,633 1159,624 1148,614 1138,603 1129,591 1121,579 1114,565 1109,551 1113,547 1131,550 1150,552 1169,555 1188,557 1207,559 1227,561 1247,562 1267,563 1287,564 1307,564 1326,563 1346,562 1365,560 1384,558 1402,555 1420,551 1423,558 1406,561 1388,564 1371,566 1353,568 1335,569 1317,569 1299,570 1281,569 1263,569 1245,568 1227,566 1209,565 1192,563 1174,562 1156,560 1139,558 1170,568 1202,578 1234,586 1266,593 1299,599 1331,605 1364,609 1397,612 1430,614 1463,614 1496,614 1529,612 1562,609 1595,605 1628,599 1660,592 1666,579 1672,567 1680,556 1689,545 1699,536 1710,528 1722,522 1735,517 1737,524 1726,529 1715,534 1705,542 1696,550 1687,559 1680,568 1673,579 1667,589 1681,586 1695,582 1708,578 1722,574 1735,570 1749,566 1762,561 1775,557 1778,562 1761,568 1745,574 1728,579 1711,584 1695,589 1678,593 1661,598 1644,601 1626,605 1609,608 1592,611 1575,613 1557,615 1539,617 1522,618 1504,619 1500,653 1518,652 1536,650 1554,648 1572,645 1590,642 1608,639 1625,636 1643,632 1645,639 1612,645 1578,650 1544,655 1509,658 1475,660 1441,661 1406,661 1372,658 1339,654 1305,649 1273,641 1240,630 1209,618 1178,602 1149,585 1120,564 1126,576 1134,588 1142,598 1151,608 1161,617 1172,626 1183,634 1194,641 1206,648 1218,654 1231,660 1243,665 1256,670 1269,675 1282,679 1295,683 1294,689 1294,689"/>
<polygon class="pen1 brush2" points="1295,639 1299,606 1288,604 1277,602 1267,599 1256,597 1246,595 1235,592 1225,590 1214,587 1204,584 1193,581 1183,578 1172,575 1162,572 1151,568 1141,565 1130,561 1139,568 1148,574 1158,581 1167,587 1177,593 1188,598 1198,604 1208,609 1219,613 1230,618 1240,622 1251,626 1262,630 1273,633 1284,636 1295,639 1295,639"/>
<polygon class="pen1 brush2" points="1306,608 1301,639 1313,642 1325,644 1337,646 1349,648 1361,650 1373,651 1385,652 1397,653 1408,654 1420,655 1432,655 1444,655 1456,655 1468,655 1481,654 1493,653 1498,619 1486,619 1474,620 1462,620 1450,620 1438,620 1426,620 1414,619 1402,619 1390,618 1378,617 1366,616 1354,615 1342,613 1330,612 1318,610 1306,608"/>
</g>
</svg>
