<?xml version="1.0" encoding="UTF-8" standalone="no"?>
<!DOCTYPE svg PUBLIC "-//W3C//DTD SVG 1.0//EN" "http://www.w3.org/TR/2001/REC-SVG-20010904/DTD/svg10.dtd">
<svg xmlns="http://www.w3.org/2000/svg" xmlns:xlink="http://www.w3.org/1999/xlink" fill-rule="evenodd" height="0.832in" preserveAspectRatio="none" stroke-linecap="round" viewBox="0 0 1978 832" width="1.978in">
<style type="text/css">
.brush0 { fill: rgb(255,255,255); }
.pen0 { stroke: rgb(0,0,0); stroke-width: 1; stroke-linejoin: round; }
.brush1 { fill: none; }
.pen1 { stroke: none; }
.brush2 { fill: rgb(0,0,0); }
</style>
<g>
<polygon class="pen1 brush2" points="825,182 834,173 844,162 854,150 865,138 876,125 888,111 900,98 913,84 926,70 939,57 953,45 966,33 980,23 994,14 1008,6 1022,0 1026,10 1038,36 1055,74 1076,118 1100,165 1124,209 1146,246 1166,271 1168,271 1174,272 1184,273 1195,275 1208,279 1222,285 1235,293 1247,304 1249,304 1255,303 1264,302 1277,301 1293,299 1312,296 1334,292 1360,288 1366,294 1376,306 1391,325 1410,349 1434,376 1461,406 1491,438 1525,470 1561,501 1601,530 1642,556 1686,578 1732,594 1779,605 1827,607 1877,601 1879,608 1885,628 1894,657 1907,692 1922,730 1939,768 1958,803 1978,832 1976,832 1971,831 1963,830 1952,828 1937,824 1920,819 1900,811 1878,802 1852,789 1825,774 1795,755 1763,733 1729,707 1693,676 1655,641 1615,601 1617,606 1623,620 1631,641 1640,668 1565,680 1563,675 1556,662 1545,643 1531,620 1515,595 1497,572 1478,552 1458,537 1454,538 1443,541 1427,547 1409,553 1389,561 1369,569 1352,579 1339,588 1338,586 1333,581 1326,573 1317,563 1305,551 1291,538 1276,524 1258,510 1238,497 1217,484 1195,472 1172,462 1147,455 1121,450 1095,449 1068,452 1129,503 960,635 959,633 955,626 949,615 941,601 930,585 917,566 901,547 883,528 862,508 839,490 814,473 785,458 755,447 721,439 685,435 647,436 669,394 600,439 597,438 587,437 572,436 554,435 534,436 512,438 490,442 470,449 470,476 448,462 419,482 424,507 403,493 372,513 377,538 356,523 322,546 328,570 306,555 275,577 279,602 258,588 220,612 224,639 203,625 167,646 173,672 152,658 115,682 119,709 98,693 62,717 66,743 44,729 0,749 25,695 18,669 41,683 76,659 71,632 93,646 129,621 123,594 146,609 180,585 173,558 197,574 234,547 227,520 251,536 281,513 275,487 298,503 329,480 322,453 346,467 375,448 368,421 392,436 420,416 413,389 440,402 464,370 488,341 511,317 534,295 556,277 578,261 600,248 623,236 645,227 668,219 692,212 716,205 742,200 768,194 796,188 825,182"/>
<polygon class="pen1 brush0" points="794,327 801,327 811,328 823,328 836,329 849,331 860,333 868,337 872,341 871,347 867,354 860,362 851,371 842,380 833,388 826,395 822,401 823,399 827,394 831,387 837,379 842,370 846,362 849,355 849,351 846,348 839,344 830,340 820,336 811,333 802,330 796,328 794,327"/>
<polygon class="pen1 brush0" points="849,310 856,310 866,311 878,311 891,312 904,314 915,316 923,320 927,324 926,330 922,337 915,345 907,354 898,363 889,371 881,378 876,384 877,382 881,377 886,370 891,362 896,353 900,345 903,338 903,334 900,330 893,326 885,322 875,319 865,315 857,312 851,311 849,310"/>
<polygon class="pen1 brush0" points="735,341 742,341 752,341 764,342 778,343 790,345 801,347 810,351 814,355 813,361 809,368 802,376 793,385 783,394 774,402 767,409 762,415 763,413 767,408 772,401 778,393 783,384 788,376 791,369 791,365 787,362 781,358 772,354 762,350 752,347 743,344 737,342 735,341"/>
<polygon class="pen1 brush0" points="603,335 611,334 618,329 622,323 623,315 622,307 618,301 611,297 603,296 596,297 590,301 586,307 585,315 586,323 590,329 596,334 603,335"/>
</g>
</svg>
