<?xml version="1.0" encoding="UTF-8" standalone="no"?>
<!DOCTYPE svg PUBLIC "-//W3C//DTD SVG 1.0//EN" "http://www.w3.org/TR/2001/REC-SVG-20010904/DTD/svg10.dtd">
<svg xmlns="http://www.w3.org/2000/svg" xmlns:xlink="http://www.w3.org/1999/xlink" fill-rule="evenodd" height="1.667in" preserveAspectRatio="none" stroke-linecap="round" viewBox="0 0 1973 1667" width="1.973in">
<style type="text/css">
.brush0 { fill: rgb(255,255,255); }
.pen0 { stroke: rgb(0,0,0); stroke-width: 1; stroke-linejoin: round; }
.brush1 { fill: none; }
.pen1 { stroke: none; }
.brush2 { fill: rgb(0,0,0); }
</style>
<g>
<polygon class="pen1 brush2" points="597,1557 593,1554 581,1547 562,1536 539,1521 513,1501 485,1478 456,1451 429,1420 405,1385 384,1346 369,1303 362,1256 362,1205 373,1151 396,1093 431,1031 440,1020 454,1009 470,999 489,990 511,982 535,976 561,972 588,970 616,970 645,974 674,981 703,992 732,1007 759,1026 785,1051 810,1080 809,1077 806,1070 802,1059 795,1046 785,1030 773,1012 757,995 739,977 717,961 691,946 661,934 627,926 589,921 546,922 498,929 445,943 437,921 426,899 413,876 397,854 380,832 361,811 341,790 319,771 297,753 274,736 250,722 227,709 203,699 180,691 157,687 135,685 134,706 131,728 126,750 120,772 111,793 99,813 86,829 69,841 47,806 32,769 25,733 27,697 37,663 58,633 91,608 135,588 141,587 150,587 160,588 172,590 186,593 200,596 216,600 232,603 250,607 267,610 285,612 304,614 322,614 340,614 357,612 374,608 374,558 372,559 368,560 361,562 351,564 339,566 325,567 309,568 291,567 272,565 251,560 230,554 208,544 186,532 163,516 140,496 117,472 164,398 161,399 152,402 138,406 122,411 103,416 83,420 64,422 46,422 37,420 29,418 22,413 18,408 16,401 16,392 19,381 25,369 37,350 54,331 74,311 98,291 124,271 152,251 180,232 210,213 239,196 267,181 293,167 318,156 339,146 356,140 370,136 378,136 380,131 388,118 399,100 416,78 436,54 460,32 488,13 519,0 522,15 529,54 531,104 523,155 524,156 528,157 534,160 542,165 552,171 564,178 577,188 590,199 605,212 620,228 635,246 651,266 666,289 681,315 695,344 708,375 749,391 788,413 826,442 862,476 897,515 931,558 963,605 993,654 1021,705 1048,757 1073,810 1096,862 1117,913 1136,963 1153,1011 1168,1055 1160,995 1153,931 1150,864 1149,795 1151,725 1156,654 1165,583 1179,514 1196,447 1218,383 1245,322 1277,267 1314,217 1357,173 1406,136 1462,108 1476,103 1489,97 1503,93 1516,88 1528,84 1541,81 1553,77 1566,74 1578,72 1589,69 1601,67 1612,65 1623,64 1634,63 1645,62 1655,61 1672,61 1689,61 1705,62 1721,64 1736,67 1751,70 1765,73 1779,78 1792,82 1805,88 1817,93 1829,100 1840,106 1850,113 1860,120 1870,128 1885,141 1898,156 1910,170 1921,185 1931,200 1939,216 1946,231 1952,246 1964,281 1969,314 1968,343 1962,365 1947,390 1929,406 1910,413 1890,413 1869,407 1848,396 1827,382 1807,365 1796,355 1784,345 1769,334 1754,323 1736,312 1718,302 1698,293 1678,285 1656,279 1634,274 1612,273 1589,274 1566,278 1542,285 1519,296 1496,311 1451,349 1411,388 1376,428 1346,470 1320,513 1298,558 1281,603 1267,650 1256,698 1249,746 1245,796 1243,846 1244,898 1247,950 1252,1002 1259,1055 1263,1082 1268,1111 1272,1142 1276,1173 1280,1206 1281,1239 1282,1272 1279,1306 1275,1340 1267,1373 1255,1405 1239,1437 1219,1467 1194,1496 1164,1524 1128,1549 1129,1555 1129,1568 1126,1586 1120,1606 1108,1627 1091,1646 1067,1660 1036,1667 373,1667 379,1659 385,1651 392,1643 400,1635 409,1626 419,1617 431,1609 443,1601 457,1593 472,1585 488,1579 507,1572 526,1567 548,1563 572,1559 597,1557"/>
<polygon class="pen1 brush0" points="998,1303 994,1285 988,1263 979,1236 969,1207 955,1174 940,1140 922,1103 903,1065 880,1027 856,989 829,951 800,914 768,878 734,845 698,814 660,786 649,775 639,759 631,742 627,725 629,712 639,706 658,710 688,727 707,740 728,755 749,773 772,793 794,815 817,839 840,865 862,893 884,922 904,953 924,986 941,1020 956,1055 970,1092 980,1129 988,1168 998,1233 1004,1276 1006,1302 1006,1313 1004,1315 1001,1311 999,1306 998,1303 998,1303"/>
<polygon class="pen1 brush0" points="1118,1385 1118,1370 1117,1328 1113,1265 1105,1186 1090,1095 1067,997 1035,899 992,804 976,776 959,748 939,720 919,691 897,662 874,634 852,607 829,581 806,556 784,532 763,511 743,491 725,474 709,460 695,448 684,440 665,431 649,428 635,430 626,436 621,446 621,459 627,474 640,490 649,499 661,510 675,522 690,536 707,552 726,569 745,588 766,608 787,629 808,651 829,675 851,700 872,726 892,753 912,781 931,810 949,841 966,873 981,905 996,939 1009,973 1021,1007 1032,1043 1043,1079 1053,1115 1063,1152 1072,1190 1081,1228 1090,1267 1099,1306 1108,1345 1118,1385 1118,1385"/>
<polygon class="pen1 brush0" points="358,331 366,330 374,328 381,324 388,319 393,314 397,307 399,299 400,290 399,282 397,275 393,268 388,262 381,257 374,253 366,251 358,250 350,251 342,253 335,257 329,262 324,268 320,275 318,282 317,290 318,299 320,307 324,314 329,319 335,324 342,328 350,330 358,331"/>
</g>
</svg>
