<?xml version="1.0" encoding="UTF-8" standalone="no"?>
<!DOCTYPE svg PUBLIC "-//W3C//DTD SVG 1.0//EN" "http://www.w3.org/TR/2001/REC-SVG-20010904/DTD/svg10.dtd">
<svg xmlns="http://www.w3.org/2000/svg" xmlns:xlink="http://www.w3.org/1999/xlink" fill-rule="evenodd" height="1.981in" preserveAspectRatio="none" stroke-linecap="round" viewBox="0 0 1851 1981" width="1.851in">
<style type="text/css">
.brush0 { fill: rgb(255,255,255); }
.pen0 { stroke: rgb(0,0,0); stroke-width: 1; stroke-linejoin: round; }
.brush1 { fill: none; }
.pen1 { stroke: none; }
.brush2 { fill: rgb(0,0,0); }
</style>
<g>
<polygon class="pen1 brush2" points="563,753 564,752 566,749 569,744 574,737 580,730 587,722 596,713 607,705 618,696 632,688 647,681 663,675 682,670 701,668 723,667 746,669 747,668 749,666 752,662 757,657 764,652 771,646 781,640 791,634 803,629 817,625 832,622 849,621 866,621 886,624 907,628 929,636 931,635 935,633 942,630 952,626 963,622 977,619 991,615 1007,613 1024,611 1042,611 1059,614 1077,618 1094,625 1111,635 1127,648 1142,665 1144,665 1148,665 1156,666 1166,667 1177,669 1190,672 1204,675 1219,679 1234,684 1249,690 1263,698 1277,706 1289,716 1300,728 1308,741 1314,756 1319,758 1332,763 1351,773 1371,787 1390,805 1405,829 1412,858 1408,892 1401,914 1389,940 1374,971 1356,1005 1334,1041 1309,1079 1281,1117 1250,1155 1218,1192 1183,1226 1146,1257 1107,1285 1068,1307 1027,1324 985,1334 942,1337 899,1333 855,1325 812,1313 768,1297 726,1277 684,1254 645,1228 607,1198 572,1166 540,1131 511,1094 487,1055 466,1014 450,971 440,927 435,881 437,851 445,824 459,800 477,781 498,766 520,756 542,751 563,753 563,753"/>
<polygon class="pen1 brush2" points="1091,554 1079,595 1108,607 1117,558 1126,556 1134,551 1141,544 1145,536 1148,522 1146,508 1137,496 1125,487 1118,485 1110,485 1103,486 1097,488 1090,492 1085,497 1080,502 1077,509 1075,522 1077,534 1082,545 1091,554 1091,554"/>
<polygon class="pen1 brush2" points="767,555 770,599 803,599 793,551 801,545 807,538 811,530 812,520 811,513 809,506 805,500 801,494 795,489 789,486 782,484 775,483 768,484 761,486 755,489 750,494 745,500 742,506 740,513 739,520 741,532 747,543 755,551 767,555 767,555"/>
<polygon class="pen1 brush2" points="1418,953 1462,1057 1519,1015 1565,972 1602,929 1630,885 1650,843 1663,801 1671,761 1673,722 1672,687 1668,654 1661,626 1654,601 1647,581 1640,566 1636,556 1634,553 1546,572 1627,503 1629,426 1618,346 1597,267 1571,193 1544,128 1519,76 1502,42 1495,30 1431,216 1435,331 1391,260 1327,280 1310,236 1250,256 1235,212 1195,240 1169,188 1138,227 1050,183 1055,200 1066,220 1084,242 1106,265 1131,290 1160,315 1190,340 1221,364 1252,388 1282,410 1310,430 1335,448 1356,463 1373,474 1383,481 1387,483 1394,498 1403,514 1414,531 1428,550 1446,572 1466,598 1491,629 1519,665 1538,694 1550,723 1555,751 1555,777 1550,802 1541,826 1529,848 1514,869 1498,887 1482,904 1466,918 1451,930 1438,940 1427,947 1420,952 1418,953 1418,953"/>
<polygon class="pen1 brush2" points="1466,23 1465,27 1461,39 1455,57 1448,79 1440,104 1431,129 1423,153 1415,175 1367,126 1327,155 1275,102 1231,131 1178,91 1121,135 1042,102 1043,101 1047,98 1053,93 1061,86 1072,78 1085,70 1100,61 1117,51 1136,41 1157,32 1180,24 1204,16 1231,9 1259,4 1289,1 1321,0 1338,0 1356,1 1374,3 1392,5 1410,9 1428,13 1447,17 1466,23 1466,23"/>
<polygon class="pen1 brush2" points="1270,1199 1299,1243 1446,1179 1458,1152 1490,1183 1627,1219 1660,1207 1668,1240 1759,1335 1796,1344 1779,1372 1840,1537 1851,1341 1827,1324 1831,1284 1719,1179 1678,1179 1678,1144 1490,1088 1455,1115 1422,1088 1270,1199 1270,1199"/>
<polygon class="pen1 brush2" points="1209,1276 1222,1351 1407,1355 1435,1331 1451,1368 1563,1469 1594,1469 1590,1504 1651,1625 1679,1645 1658,1669 1675,1814 1726,1672 1702,1636 1726,1605 1658,1460 1623,1445 1627,1409 1486,1280 1442,1300 1418,1269 1209,1276 1209,1276"/>
<polygon class="pen1 brush2" points="1125,1344 1097,1440 1290,1493 1314,1480 1323,1504 1387,1656 1411,1665 1407,1692 1411,1826 1427,1850 1407,1861 1363,1978 1462,1885 1458,1858 1482,1821 1462,1680 1438,1661 1455,1641 1378,1449 1330,1456 1319,1416 1125,1344 1125,1344"/>
<polygon class="pen1 brush2" points="581,1203 429,1091 398,1119 361,1091 174,1148 174,1183 134,1183 20,1287 25,1328 0,1344 13,1540 73,1376 56,1348 93,1341 185,1243 194,1212 225,1223 361,1188 394,1155 405,1183 553,1247 581,1203 581,1203"/>
<polygon class="pen1 brush2" points="642,1280 434,1271 410,1304 365,1284 225,1412 229,1449 194,1463 125,1608 150,1641 125,1676 178,1816 194,1672 174,1649 202,1628 262,1509 258,1473 290,1473 401,1372 418,1335 445,1359 631,1355 642,1280 642,1280"/>
<polygon class="pen1 brush2" points="726,1348 755,1445 563,1497 539,1484 530,1509 465,1661 442,1669 445,1696 442,1829 425,1853 445,1865 489,1981 390,1890 394,1861 370,1826 390,1685 414,1665 398,1645 473,1453 522,1460 535,1421 726,1348 726,1348"/>
<polygon class="pen1 brush2" points="429,960 427,961 422,962 414,964 403,965 391,967 376,967 361,965 345,962 329,956 313,947 297,935 283,919 270,899 260,874 251,844 246,808 250,804 260,791 274,774 292,752 310,729 327,706 341,685 350,669 354,667 363,660 379,649 399,635 423,619 450,600 479,579 509,557 540,534 569,512 598,490 624,468 647,448 665,431 679,415 687,403 623,432 577,408 542,456 498,423 462,487 414,447 390,516 354,463 286,524 285,516 285,493 291,456 306,408 233,239 231,242 225,250 215,263 203,281 188,304 172,330 155,360 138,394 121,430 105,470 90,511 78,555 68,600 62,647 60,695 62,744 158,784 66,808 66,811 68,821 71,835 76,854 83,876 93,900 105,926 121,953 141,979 165,1004 193,1028 226,1048 264,1064 308,1075 358,1081 414,1080 429,960 429,960"/>
<polygon class="pen1 brush2" points="258,223 262,223 272,222 288,220 310,219 336,219 366,219 399,221 433,224 470,230 506,238 543,248 579,262 613,279 645,300 673,325 698,355 642,335 618,368 567,335 510,372 465,344 429,379 381,359 330,392 328,387 321,373 311,353 300,327 287,300 276,272 265,245 258,223"/>
</g>
</svg>
