<?xml version="1.0" encoding="UTF-8" standalone="no"?>
<!DOCTYPE svg PUBLIC "-//W3C//DTD SVG 1.0//EN" "http://www.w3.org/TR/2001/REC-SVG-20010904/DTD/svg10.dtd">
<svg xmlns="http://www.w3.org/2000/svg" xmlns:xlink="http://www.w3.org/1999/xlink" fill-rule="evenodd" height="1.98in" preserveAspectRatio="none" stroke-linecap="round" viewBox="0 0 1612 1980" width="1.612in">
<style type="text/css">
.brush0 { fill: rgb(255,255,255); }
.pen0 { stroke: rgb(0,0,0); stroke-width: 1; stroke-linejoin: round; }
.brush1 { fill: none; }
.pen1 { stroke: none; }
.brush2 { fill: rgb(0,0,0); }
</style>
<g>
<polygon class="pen1 brush2" points="955,1359 968,1360 982,1361 997,1362 1013,1363 1030,1364 1047,1365 1064,1365 1081,1365 1097,1397 1113,1428 1127,1459 1137,1488 1144,1518 1145,1549 1140,1580 1127,1612 1119,1627 1106,1649 1090,1677 1071,1709 1051,1740 1032,1770 1014,1796 1000,1815 1199,1862 972,1862 723,1980 862,1869 646,1887 845,1830 665,1799 919,1793 921,1792 925,1787 933,1781 942,1772 953,1761 966,1748 980,1735 995,1720 1009,1704 1024,1688 1038,1671 1051,1655 1063,1639 1074,1624 1082,1609 1088,1596 1091,1580 1090,1562 1085,1544 1078,1524 1067,1504 1055,1485 1041,1465 1027,1446 1012,1428 998,1412 985,1397 973,1384 964,1373 957,1366 954,1361 955,1359 955,1359"/>
<polygon class="pen1 brush2" points="1581,1500 1585,1496 1589,1491 1592,1487 1595,1483 1449,1382 1455,1375 1600,1474 1605,1464 1609,1456 1611,1451 1612,1449 1601,1442 1587,1432 1571,1420 1552,1404 1532,1388 1511,1370 1489,1351 1467,1332 1446,1313 1426,1295 1407,1279 1391,1264 1377,1252 1367,1242 1360,1236 1358,1234 1361,1255 1360,1272 1355,1286 1347,1298 1336,1306 1322,1312 1306,1315 1287,1316 1266,1314 1243,1310 1218,1303 1192,1294 1165,1284 1137,1271 1108,1257 1078,1241 1048,1223 1019,1204 989,1183 960,1161 931,1138 904,1114 877,1089 852,1063 829,1036 807,1008 788,980 771,952 756,923 744,894 736,864 730,835 755,889 789,943 830,996 876,1046 927,1094 980,1139 1034,1179 1088,1214 1140,1243 1190,1266 1235,1282 1274,1290 1306,1289 1329,1279 1342,1258 1344,1227 1340,1206 1335,1183 1328,1158 1319,1132 1309,1105 1297,1076 1283,1047 1268,1017 1252,986 1235,956 1216,925 1196,895 1175,865 1153,836 1130,808 1106,781 1081,756 1055,732 1028,710 1001,690 973,672 945,657 916,645 886,635 857,629 826,626 796,627 765,631 734,640 703,653 672,671 641,693 628,701 614,709 600,716 585,720 570,723 555,722 540,718 526,710 509,695 497,679 490,662 487,644 489,625 494,605 503,584 516,563 530,541 548,518 567,495 588,471 611,447 634,423 658,399 682,375 720,328 747,278 762,227 768,177 764,131 752,91 733,59 707,38 697,30 685,22 674,16 661,10 648,6 635,3 622,2 608,1 594,1 580,2 567,5 553,8 540,12 527,18 515,24 503,31 487,42 475,52 465,62 457,72 450,82 445,91 439,101 433,111 438,116 453,125 474,138 498,152 522,166 543,178 558,187 564,190 550,198 539,206 530,213 523,219 518,223 515,227 514,229 513,230 534,236 547,245 552,256 550,269 543,285 531,302 515,321 496,341 474,364 452,388 429,414 407,441 386,469 367,499 352,529 341,561 328,614 322,662 320,703 323,739 330,770 340,797 352,819 367,837 382,851 397,863 412,871 425,878 437,882 447,884 453,886 455,886 475,923 498,958 522,991 548,1023 576,1053 605,1081 635,1108 666,1133 698,1157 731,1180 764,1201 798,1221 832,1239 866,1257 899,1273 933,1288 966,1301 999,1314 1031,1326 1062,1337 1092,1346 1121,1355 1148,1363 1174,1371 1199,1377 1221,1383 1241,1388 1259,1393 1275,1396 1288,1400 1299,1403 1307,1405 1321,1410 1337,1416 1355,1424 1374,1432 1394,1441 1415,1451 1436,1461 1456,1471 1475,1481 1494,1490 1510,1498 1525,1506 1537,1512 1546,1517 1552,1520 1554,1521 1559,1518 1564,1515 1569,1511 1574,1507 1426,1415 1432,1408 1581,1500 1581,1500"/>
<polygon class="pen1 brush2" points="524,199 489,227 486,227 476,228 458,230 435,233 407,236 374,240 338,244 300,249 261,254 221,258 182,263 145,267 109,271 77,274 50,276 27,277 58,270 88,264 119,258 150,252 181,247 212,241 243,236 274,231 306,227 337,222 368,218 399,214 430,210 462,206 493,202 524,199 524,199"/>
<polygon class="pen1 brush2" points="406,111 416,114 430,121 447,131 466,143 485,155 502,166 516,174 526,179 526,179 493,183 460,187 427,191 394,196 361,200 328,205 295,210 262,215 229,220 196,226 163,232 130,238 98,244 65,250 32,257 0,264 7,260 18,253 33,244 51,233 73,220 98,207 125,193 154,179 184,165 216,152 248,140 281,129 313,121 345,114 376,111 406,111"/>
<polygon class="pen1 brush0" points="391,163 398,161 404,159 409,157 414,154 417,152 420,149 422,147 422,145 421,143 419,141 415,140 411,140 405,140 400,140 393,141 386,142 379,143 373,145 368,147 363,149 360,152 357,154 355,157 355,159 356,161 359,163 362,164 367,164 372,165 378,164 384,164 391,163"/>
<polygon class="pen1 brush0" points="537,139 546,137 553,132 558,125 560,116 558,108 553,101 546,97 537,95 528,97 521,101 516,108 514,116 516,125 521,132 528,137 537,139"/>
</g>
</svg>
