<?xml version="1.0" encoding="UTF-8" standalone="no"?>
<!DOCTYPE svg PUBLIC "-//W3C//DTD SVG 1.0//EN" "http://www.w3.org/TR/2001/REC-SVG-20010904/DTD/svg10.dtd">
<svg xmlns="http://www.w3.org/2000/svg" xmlns:xlink="http://www.w3.org/1999/xlink" fill-rule="evenodd" height="1.839in" preserveAspectRatio="none" stroke-linecap="round" viewBox="0 0 1306 1839" width="1.306in">
<style type="text/css">
.brush0 { fill: rgb(255,255,255); }
.pen0 { stroke: rgb(0,0,0); stroke-width: 1; stroke-linejoin: round; }
.brush1 { fill: none; }
.pen1 { stroke: none; }
.brush2 { fill: rgb(0,0,0); }
</style>
<g>
<polygon class="pen1 brush0" points="607,1414 526,1406 467,1429 236,1365 246,1340 64,1344 39,1308 26,1289 8,1265 31,1205 44,1196 42,1181 64,1166 78,1131 98,1144 167,1116 194,1116 261,1106 433,1179 491,1160 927,1159 956,1171 1050,1268 1170,1310 1193,1341 1258,1364 1255,1401 1232,1465 1215,1425 1138,1429 1017,1445 873,1433 764,1459 607,1414"/>
<polygon class="pen1 brush2" points="1167,1342 1166,1351 1160,1358 1146,1355 1140,1349 1132,1334 1167,1342"/>
<polygon class="pen1 brush2" points="456,1170 431,1170 432,1170 259,1097 258,1097 258,1097 185,1111 186,1111 158,1104 157,1104 157,1104 100,1124 100,1124 100,1124 92,1128 93,1128 74,1124 73,1124 73,1125 54,1149 54,1149 54,1150 54,1163 55,1162 43,1162 42,1162 42,1163 27,1187 27,1187 27,1188 28,1196 29,1194 22,1200 22,1200 22,1201 0,1280 0,1281 1,1281 17,1292 16,1291 13,1311 13,1312 14,1312 36,1323 35,1323 54,1353 54,1354 55,1354 226,1357 226,1354 199,1361 194,1362 199,1363 465,1441 465,1442 465,1441 526,1425 528,1425 526,1423 510,1408 510,1408 509,1408 462,1419 463,1419 258,1358 258,1361 359,1346 359,1343 330,1334 330,1334 329,1334 69,1334 70,1335 50,1304 49,1303 49,1303 36,1296 36,1298 36,1280 36,1280 36,1279 27,1266 27,1267 40,1209 40,1210 57,1202 59,1201 57,1200 49,1191 49,1192 60,1177 59,1178 77,1178 80,1178 78,1176 70,1166 70,1168 84,1144 83,1144 96,1154 97,1154 97,1154 155,1131 154,1131 201,1142 203,1142 203,1140 200,1125 199,1127 258,1120 258,1120 438,1195 439,1196 439,1195 457,1172 458,1170 456,1170"/>
<polygon class="pen1 brush2" points="393,577 328,504 328,526 226,426 226,440 258,500 186,398 169,425 223,515 151,426 151,481 214,562 128,480 128,524 212,597 124,546 134,584 196,632 132,594 155,651 203,683 159,676 183,734 219,752 188,752 190,774 208,832 230,850 210,847 212,874 237,889 216,891 210,914 241,942 219,942 243,984 270,991 250,1004 290,1037 290,1052 336,1077 335,1092 398,1120 379,1127 456,1171 594,799 393,577"/>
<polygon class="pen1 brush0" points="757,1509 804,1530 836,1557 858,1572 863,1622 828,1652 775,1674 785,1615 770,1604 759,1577 737,1569 722,1600 734,1622 680,1649 678,1647 674,1641 668,1632 661,1622 654,1611 648,1599 644,1589 642,1580 644,1571 648,1559 655,1547 662,1533 669,1521 676,1511 680,1505 682,1502 757,1509"/>
<polygon class="pen1 brush0" points="655,1650 755,1677 774,1722 777,1729 782,1746 785,1767 780,1785 771,1798 765,1807 760,1812 759,1814 715,1822 725,1799 672,1802 697,1775 689,1745 650,1702 619,1705 604,1714 615,1762 565,1724 559,1687 600,1650 655,1650"/>
<polygon class="pen1 brush2" points="1276,225 1238,300 1283,125 1228,190 1179,334 1234,43 1166,135 1096,367 1166,15 1092,110 1034,320 1084,0 1014,112 968,303 995,67 948,156 905,317 917,166 886,211 863,317 853,280 830,299 822,358 802,364 796,425 766,436 766,480 747,481 745,495 731,563 718,566 700,594 714,608 694,610 665,651 673,668 652,675 639,706 652,713 632,721 616,754 626,768 608,768 594,799 456,1171 438,1194 487,1185 556,1191 527,1250 527,1250 526,1251 495,1261 495,1269 495,1270 494,1270 433,1335 448,1346 463,1350 463,1350 464,1351 473,1372 494,1381 494,1381 495,1382 500,1402 510,1408 510,1408 510,1408 513,1410 518,1415 524,1421 526,1423 548,1440 598,1436 600,1436 599,1438 597,1447 597,1447 597,1448 512,1570 526,1573 544,1569 544,1569 544,1569 557,1569 557,1569 558,1570 562,1581 562,1581 562,1581 558,1605 581,1613 593,1604 594,1604 595,1604 609,1613 631,1603 632,1602 633,1604 646,1632 647,1632 647,1632 647,1643 647,1645 645,1644 618,1640 588,1647 583,1652 575,1662 567,1670 564,1674 552,1688 555,1731 627,1783 614,1719 614,1717 615,1717 629,1713 629,1713 629,1713 652,1716 653,1716 653,1716 681,1747 681,1747 681,1748 686,1773 686,1774 685,1774 650,1816 714,1804 716,1804 715,1806 707,1839 723,1817 724,1817 724,1817 748,1792 752,1777 735,1767 726,1786 725,1787 725,1787 684,1795 683,1793 710,1775 712,1763 700,1763 699,1763 699,1761 699,1739 653,1698 640,1700 640,1700 639,1699 632,1696 615,1702 615,1702 614,1702 599,1702 596,1712 606,1749 607,1753 604,1750 573,1722 573,1722 573,1721 569,1690 569,1690 569,1689 600,1660 600,1659 601,1659 603,1659 607,1659 613,1659 620,1659 627,1659 633,1659 637,1659 639,1659 670,1662 670,1662 670,1662 674,1663 684,1665 693,1668 697,1669 728,1675 728,1675 728,1675 756,1686 757,1686 757,1687 759,1707 759,1708 759,1708 759,1731 773,1755 773,1755 773,1756 777,1769 777,1769 777,1769 777,1786 777,1786 777,1786 762,1804 762,1804 761,1804 725,1817 707,1839 764,1822 794,1792 794,1770 785,1743 777,1731 777,1731 777,1731 772,1686 771,1685 772,1685 799,1671 799,1671 800,1671 819,1671 831,1667 824,1646 824,1646 824,1645 834,1615 831,1599 823,1590 818,1599 818,1628 818,1629 817,1629 803,1644 803,1644 803,1644 783,1660 783,1660 783,1660 759,1669 758,1669 758,1669 754,1668 745,1665 735,1662 731,1660 713,1654 711,1653 713,1651 733,1638 735,1636 737,1633 739,1630 740,1629 743,1623 733,1613 733,1613 733,1613 727,1599 727,1599 727,1598 740,1581 740,1580 741,1580 756,1587 756,1587 757,1587 766,1610 779,1622 780,1623 780,1623 759,1669 780,1662 797,1623 795,1606 779,1600 779,1600 778,1599 768,1576 734,1559 723,1565 712,1599 712,1600 711,1600 701,1600 695,1608 701,1621 710,1624 725,1627 729,1628 725,1630 691,1643 691,1643 690,1643 675,1627 675,1626 675,1626 668,1591 668,1591 668,1590 679,1558 673,1554 672,1554 672,1553 672,1540 672,1539 672,1539 679,1523 679,1522 680,1522 711,1514 711,1514 712,1514 749,1527 762,1522 762,1522 763,1522 796,1534 797,1534 797,1535 807,1552 830,1558 831,1559 831,1559 836,1572 849,1573 850,1573 850,1574 858,1615 858,1615 858,1616 821,1648 831,1667 873,1623 862,1569 848,1561 847,1561 847,1560 842,1547 818,1538 818,1538 818,1538 788,1507 788,1507 788,1507 781,1493 781,1493 781,1493 781,1479 781,1479 781,1478 791,1467 791,1467 792,1467 860,1463 862,1462 867,1459 872,1456 878,1452 884,1449 889,1446 893,1444 894,1443 923,1427 932,1412 901,1415 898,1415 900,1412 922,1385 913,1352 913,1351 914,1350 942,1324 934,1316 907,1312 907,1310 956,1297 931,1281 930,1280 931,1279 947,1264 947,1264 948,1264 967,1258 950,1246 948,1245 950,1244 966,1239 955,1212 931,1168 935,1134 921,1068 1010,885 1174,730 1306,203 1276,225"/>
<polygon class="pen1 brush2" points="1273,1385 1269,1366 1269,1366 1269,1366 1264,1355 1264,1354 1263,1354 1255,1350 1255,1350 1255,1350 1205,1337 1178,1304 1177,1303 1177,1303 1059,1264 936,1133 934,1131 933,1134 929,1171 929,1172 930,1172 961,1192 1049,1281 1049,1281 1050,1281 1165,1322 1190,1352 1191,1353 1191,1353 1235,1366 1237,1366 1240,1368 1245,1369 1248,1370 1250,1378 1250,1385 1248,1402 1234,1444 1226,1416 1226,1415 1225,1415 1160,1415 1160,1415 1160,1415 1019,1433 924,1427 924,1427 923,1427 894,1443 890,1445 894,1445 1023,1455 1023,1455 1023,1455 1163,1435 1185,1435 1210,1435 1224,1496 1224,1499 1226,1496 1257,1442 1257,1442 1257,1442 1266,1414 1268,1409 1270,1399 1272,1390 1273,1385 1273,1385 1273,1385"/>
<polygon class="pen1 brush2" points="1137,1337 1138,1335 1108,1328 1107,1330 1137,1337"/>
<polygon class="pen1 brush2" points="1175,1360 1166,1342 1165,1342 1173,1361 1175,1360"/>
</g>
</svg>
