<?xml version="1.0" encoding="UTF-8" standalone="no"?>
<!DOCTYPE svg PUBLIC "-//W3C//DTD SVG 1.0//EN" "http://www.w3.org/TR/2001/REC-SVG-20010904/DTD/svg10.dtd">
<svg xmlns="http://www.w3.org/2000/svg" xmlns:xlink="http://www.w3.org/1999/xlink" fill-rule="evenodd" height="1.698in" preserveAspectRatio="none" stroke-linecap="round" viewBox="0 0 1979 1698" width="1.979in">
<style type="text/css">
.brush0 { fill: rgb(255,255,255); }
.pen0 { stroke: rgb(0,0,0); stroke-width: 1; stroke-linejoin: round; }
.brush1 { fill: none; }
.pen1 { stroke: none; }
.brush2 { fill: rgb(0,0,0); }
</style>
<g>
<polygon class="pen1 brush2" points="1944,960 1956,958 1965,952 1971,943 1973,932 1971,921 1965,911 1956,904 1944,902 1937,903 1930,906 1923,911 1918,917 1802,929 1931,869 1935,871 1940,873 1945,874 1951,875 1962,873 1971,866 1977,857 1979,846 1977,836 1971,827 1962,820 1951,818 1946,818 1941,820 1936,822 1932,824 1928,827 1925,831 1923,834 1921,838 1804,869 1935,770 1938,772 1942,773 1946,774 1951,774 1962,772 1971,765 1977,756 1979,744 1977,733 1971,724 1962,718 1951,716 1945,717 1939,718 1934,721 1929,725 1925,730 1922,735 1921,741 1921,747 1739,875 1817,764 1819,765 1822,766 1825,767 1827,767 1833,766 1839,765 1844,762 1848,758 1852,754 1855,749 1856,743 1857,737 1856,731 1855,725 1852,720 1848,716 1844,712 1839,709 1833,708 1827,707 1821,708 1815,710 1810,713 1806,718 1802,723 1800,729 1799,736 1800,743 1588,933 1579,907 1567,873 1552,832 1534,786 1513,735 1490,683 1465,629 1439,575 1411,523 1383,474 1353,430 1324,391 1294,359 1265,336 1237,323 1209,321 1191,333 1174,359 1159,398 1146,445 1135,498 1126,552 1118,604 1113,652 1096,637 1079,623 1062,609 1044,595 1026,582 1007,569 988,557 969,546 950,534 931,524 911,513 891,503 871,493 851,484 830,475 810,467 828,453 847,439 867,424 887,409 907,395 924,382 941,371 954,363 949,356 935,338 916,312 892,280 867,247 843,215 823,188 809,169 800,42 804,38 807,34 809,29 810,24 808,15 803,7 795,2 786,0 777,2 769,7 764,15 762,24 763,29 765,34 767,38 770,42 776,146 719,65 720,62 721,59 722,57 722,54 720,45 715,38 707,33 698,31 689,33 681,38 676,45 674,54 676,64 681,72 689,77 699,78 743,155 625,82 624,72 620,63 612,56 601,54 592,56 584,61 579,69 577,78 579,88 584,95 592,100 601,102 604,102 609,101 612,100 614,101 740,183 654,199 650,194 646,190 640,187 634,186 625,188 617,193 612,201 610,210 612,220 617,227 625,232 634,234 641,233 648,229 654,224 657,217 773,214 782,233 791,252 800,271 809,289 818,306 826,321 834,335 841,345 840,346 836,347 829,350 821,354 811,358 800,364 788,369 775,375 761,382 748,388 734,395 721,401 708,407 697,413 687,418 678,423 664,419 651,416 637,413 624,410 610,407 597,405 583,402 570,400 568,394 565,388 560,384 554,380 547,376 539,374 531,373 522,372 515,372 508,374 501,375 495,378 489,381 484,384 480,388 476,392 456,392 436,393 417,394 399,397 381,400 365,403 349,408 335,413 321,419 308,426 297,434 286,442 277,451 269,461 262,472 256,483 250,500 247,518 247,537 250,555 256,574 265,593 277,612 291,632 308,652 327,671 349,691 372,711 398,731 426,751 455,770 486,790 482,833 479,878 478,919 478,950 473,950 463,949 450,948 435,946 416,945 396,943 375,941 353,939 331,937 309,935 288,933 269,931 253,929 239,927 228,926 221,925 178,818 182,812 185,805 186,798 184,791 181,787 178,783 174,780 170,778 166,776 161,776 156,776 151,777 144,783 139,791 138,800 140,809 143,815 147,819 153,822 158,824 178,907 52,825 52,822 52,819 51,817 50,814 47,810 44,806 40,803 36,801 32,800 27,800 22,800 17,801 10,807 5,815 4,823 6,832 9,837 12,840 16,843 21,845 26,846 31,846 36,845 40,842 154,922 67,913 65,908 62,904 58,900 54,898 49,896 44,895 38,895 33,896 26,902 21,910 20,919 22,929 24,933 27,936 31,939 35,941 39,942 44,942 49,942 53,940 55,939 58,937 61,936 63,936 161,954 63,991 58,989 53,988 47,988 42,990 34,996 28,1004 27,1012 29,1021 31,1026 34,1029 38,1032 42,1035 46,1036 51,1036 56,1036 60,1034 65,1031 68,1027 71,1023 73,1018 83,1015 98,1009 116,1002 137,994 157,986 175,980 188,975 196,974 204,976 216,979 233,984 252,989 274,996 298,1003 324,1010 350,1017 377,1024 403,1030 428,1036 452,1040 473,1043 492,1045 507,1044 519,1042 522,1036 529,1021 539,999 551,971 563,940 575,907 585,876 591,848 605,855 619,862 633,868 647,875 661,882 675,888 690,895 704,901 718,907 733,913 747,919 761,925 776,931 790,936 805,942 819,947 798,956 774,965 749,976 722,987 694,998 667,1010 639,1022 612,1035 587,1047 563,1059 542,1071 523,1083 508,1094 496,1104 489,1114 486,1123 486,1133 487,1143 488,1152 490,1162 494,1171 499,1179 506,1188 515,1196 527,1204 542,1211 561,1218 583,1224 608,1230 638,1235 673,1240 712,1244 753,1248 794,1253 835,1257 875,1261 914,1265 952,1269 988,1273 1022,1276 1053,1280 1082,1283 1108,1287 1130,1290 1149,1293 1164,1296 1175,1298 1181,1301 999,1518 993,1518 987,1520 981,1522 976,1525 971,1530 968,1535 966,1541 965,1548 966,1554 968,1560 971,1565 975,1569 979,1573 984,1575 990,1576 996,1576 1007,1574 1016,1567 1021,1558 1023,1546 1023,1544 1022,1541 1021,1538 1020,1534 1131,1453 1123,1466 1108,1489 1088,1519 1065,1552 1044,1584 1025,1612 1011,1632 1005,1639 994,1642 986,1649 980,1658 978,1669 979,1675 981,1681 983,1686 987,1690 991,1693 996,1696 1002,1697 1008,1698 1019,1695 1028,1689 1034,1679 1036,1669 1035,1665 1034,1661 1032,1657 1030,1654 1125,1520 1103,1637 1094,1641 1087,1648 1082,1656 1080,1666 1081,1672 1082,1678 1085,1683 1089,1687 1094,1690 1099,1693 1105,1694 1111,1695 1122,1692 1131,1685 1136,1676 1138,1664 1137,1659 1136,1655 1134,1650 1131,1646 1185,1514 1178,1632 1172,1636 1168,1642 1166,1649 1165,1656 1166,1662 1167,1668 1170,1673 1174,1677 1178,1681 1183,1684 1189,1685 1195,1686 1207,1683 1215,1676 1221,1667 1223,1656 1221,1646 1217,1638 1211,1633 1202,1629 1286,1298 1287,1295 1288,1289 1286,1281 1280,1274 1273,1270 1260,1264 1242,1257 1220,1249 1195,1241 1167,1231 1137,1221 1105,1212 1073,1202 1041,1193 1009,1184 979,1176 951,1170 925,1164 903,1161 885,1159 876,1157 876,1154 885,1148 901,1141 924,1132 952,1121 984,1109 1018,1095 1054,1080 1090,1063 1126,1045 1159,1026 1189,1006 1215,985 1235,962 1248,939 1263,890 1273,841 1278,791 1279,741 1278,693 1277,646 1275,601 1275,559 1286,591 1302,626 1322,663 1344,701 1369,740 1395,779 1422,817 1450,854 1476,890 1502,922 1525,951 1546,977 1563,998 1577,1014 1585,1024 1588,1027 1917,942 1921,949 1927,955 1935,959 1944,960"/>
</g>
</svg>
