<?xml version="1.0" encoding="UTF-8" standalone="no"?>
<!DOCTYPE svg PUBLIC "-//W3C//DTD SVG 1.0//EN" "http://www.w3.org/TR/2001/REC-SVG-20010904/DTD/svg10.dtd">
<svg xmlns="http://www.w3.org/2000/svg" xmlns:xlink="http://www.w3.org/1999/xlink" fill-rule="evenodd" height="1.643in" preserveAspectRatio="none" stroke-linecap="round" viewBox="0 0 2013 1643" width="2.013in">
<style type="text/css">
.brush0 { fill: rgb(255,255,255); }
.pen0 { stroke: rgb(0,0,0); stroke-width: 1; stroke-linejoin: round; }
.brush1 { fill: none; }
.pen1 { stroke: none; }
.brush2 { fill: rgb(0,0,0); }
</style>
<g>
<polygon class="pen1 brush2" points="0,1089 1,1083 3,1068 7,1044 15,1014 27,980 43,943 64,906 91,871 105,856 121,842 137,829 156,817 176,807 197,798 221,791 246,786 288,779 331,773 372,767 413,760 454,752 494,741 533,728 571,710 608,689 644,661 679,628 712,588 744,540 775,484 804,418 831,343 845,303 861,266 878,232 896,201 915,173 936,147 957,124 979,104 997,89 1016,76 1034,64 1053,53 1072,44 1092,35 1111,28 1131,22 1144,18 1156,15 1169,13 1181,10 1193,8 1205,7 1218,5 1230,4 1242,4 1253,4 1265,4 1276,4 1288,5 1299,5 1309,7 1320,8 1343,11 1365,16 1385,20 1403,26 1420,31 1434,37 1446,44 1456,50 1458,50 1465,50 1474,52 1485,56 1495,63 1504,74 1511,90 1513,111 1520,109 1530,109 1544,110 1559,113 1573,120 1585,131 1593,146 1595,167 1599,167 1609,167 1623,169 1640,173 1656,179 1670,189 1680,203 1683,222 1686,223 1693,225 1704,229 1717,235 1729,243 1740,254 1747,269 1750,286 1753,287 1761,290 1772,296 1784,305 1796,317 1807,333 1813,353 1814,377 1817,378 1825,381 1837,387 1850,397 1862,409 1872,426 1877,446 1877,471 1880,472 1887,476 1897,483 1907,493 1916,507 1923,524 1924,545 1919,570 1922,572 1928,577 1937,585 1946,597 1953,613 1956,632 1953,655 1943,681 1945,683 1950,688 1956,696 1962,708 1966,723 1967,742 1963,765 1952,792 1953,793 1956,796 1961,800 1966,807 1972,815 1977,824 1982,836 1985,848 1985,862 1984,875 1980,890 1972,905 1974,907 1978,914 1982,925 1986,939 1987,956 1983,975 1974,997 1958,1019 1960,1023 1963,1035 1968,1052 1971,1073 1971,1096 1967,1118 1956,1139 1938,1155 1939,1158 1942,1165 1944,1177 1946,1190 1944,1206 1937,1221 1925,1236 1905,1249 1905,1252 1906,1261 1905,1274 1902,1290 1895,1306 1884,1322 1867,1335 1844,1344 1844,1347 1842,1356 1838,1370 1832,1387 1822,1409 1808,1432 1789,1458 1764,1484 1732,1510 1693,1536 1646,1560 1590,1582 1525,1601 1449,1616 1362,1627 1263,1632 1227,1633 1191,1634 1154,1634 1118,1635 1081,1636 1045,1636 1008,1637 972,1637 935,1637 899,1637 863,1636 827,1635 791,1634 756,1632 721,1630 686,1627 656,1624 626,1621 596,1617 567,1612 538,1607 510,1602 482,1596 455,1590 428,1583 401,1575 375,1566 350,1557 326,1548 302,1537 278,1526 256,1514 230,1498 205,1481 182,1463 159,1443 138,1422 118,1400 100,1376 83,1351 67,1324 53,1296 40,1266 29,1234 19,1200 11,1165 5,1128 0,1089"/>
<polygon class="pen1 brush0" points="81,1158 91,1157 100,1154 108,1150 115,1144 120,1137 124,1129 127,1120 128,1111 127,1101 124,1092 120,1084 115,1077 108,1071 100,1067 91,1064 81,1063 72,1064 63,1067 55,1071 48,1077 42,1084 38,1092 35,1101 34,1111 35,1120 38,1129 42,1137 48,1144 55,1150 63,1154 72,1157 81,1158"/>
<polygon class="pen1 brush0" points="107,1296 114,1306 189,1331 253,1347 307,1355 352,1357 388,1354 416,1345 437,1333 453,1318 463,1302 469,1285 472,1267 473,1252 472,1238 470,1227 468,1221 468,1219 485,1201 492,1181 493,1160 490,1141 483,1123 476,1109 470,1099 468,1096 483,1073 489,1050 487,1027 481,1006 472,989 462,974 455,965 452,962 454,931 449,908 436,890 417,878 393,870 366,867 336,867 304,870 272,875 241,881 211,888 185,895 162,902 145,907 134,910 131,911 127,919 131,918 143,914 161,908 184,902 211,895 241,888 272,882 305,878 336,875 366,875 393,879 416,887 434,899 446,916 450,939 445,969 448,972 455,981 464,994 473,1011 479,1030 480,1051 474,1073 459,1094 461,1097 467,1106 474,1120 481,1136 484,1155 483,1175 476,1194 459,1212 460,1215 462,1222 464,1234 465,1248 465,1264 463,1281 457,1298 447,1314 432,1329 410,1340 382,1348 346,1351 302,1348 248,1339 183,1322 107,1296 107,1296"/>
<polygon class="pen1 brush0" points="85,982 84,975 101,967 122,959 144,951 168,943 193,936 219,930 244,926 269,924 291,925 312,929 330,936 345,947 355,962 361,981 362,1006 357,1036 359,1039 365,1048 372,1061 379,1077 383,1094 384,1112 378,1130 365,1145 373,1180 375,1210 372,1234 363,1253 350,1268 332,1279 312,1285 289,1289 264,1290 238,1288 211,1284 184,1278 158,1272 132,1264 109,1257 88,1249 84,1243 104,1250 127,1257 151,1265 177,1271 204,1277 231,1281 257,1283 282,1283 305,1280 325,1274 343,1264 356,1250 365,1232 369,1208 367,1179 358,1144 372,1130 378,1114 378,1097 374,1080 367,1065 360,1052 354,1043 351,1039 357,1009 356,985 351,965 341,951 326,940 309,934 289,930 266,930 243,932 218,936 193,942 168,949 144,957 122,966 102,974 85,982 85,982"/>
<polygon class="pen1 brush0" points="47,1177 55,1183 66,1189 79,1193 95,1197 111,1199 128,1200 146,1200 163,1197 180,1193 196,1187 210,1179 223,1169 232,1156 240,1140 243,1122 243,1101 239,1080 232,1064 221,1051 208,1042 193,1036 176,1033 159,1031 141,1031 124,1033 107,1035 92,1038 79,1041 68,1043 60,1045 56,1045 56,1044 60,1044 60,1043 65,1040 73,1037 84,1034 97,1031 113,1028 130,1026 147,1025 165,1026 182,1028 199,1033 214,1040 228,1050 238,1063 246,1079 250,1100 250,1122 246,1141 239,1157 229,1171 216,1182 202,1191 186,1197 169,1202 151,1204 133,1205 116,1205 100,1202 85,1199 72,1194 61,1189 53,1182 47,1177"/>
<polygon class="pen1 brush0" points="801,1455 818,1453 834,1448 849,1440 862,1430 872,1417 880,1403 885,1387 887,1370 885,1353 880,1337 872,1323 862,1310 849,1300 834,1293 818,1288 801,1286 784,1288 768,1293 754,1300 741,1310 731,1323 723,1337 718,1353 716,1370 718,1387 723,1403 731,1417 741,1430 754,1440 768,1448 784,1453 801,1455"/>
<polygon class="pen1 brush0" points="1485,1114 1496,1118 1512,1104 1521,1090 1525,1077 1524,1063 1521,1051 1517,1041 1512,1034 1510,1029 1524,1009 1531,992 1534,978 1533,966 1529,957 1525,951 1521,947 1520,946 1529,932 1532,915 1531,898 1528,882 1523,867 1518,855 1515,847 1513,844 1523,821 1525,801 1522,784 1515,769 1507,757 1498,749 1492,744 1489,742 1495,721 1494,703 1488,688 1479,676 1469,666 1459,660 1452,656 1449,655 1450,636 1446,620 1439,607 1430,597 1421,590 1413,585 1407,582 1405,581 1404,562 1399,546 1390,531 1380,518 1369,508 1359,501 1353,497 1350,495 1350,474 1346,458 1338,445 1328,435 1318,428 1309,424 1302,422 1300,421 1297,404 1290,392 1280,382 1270,376 1260,372 1251,369 1244,368 1242,368 1239,349 1232,334 1223,324 1212,317 1202,313 1193,311 1187,310 1185,310 1182,289 1174,274 1162,264 1149,259 1135,257 1123,257 1115,257 1112,258 1101,266 1104,266 1113,265 1124,265 1138,267 1152,273 1163,282 1172,297 1175,319 1177,319 1183,320 1192,322 1202,326 1212,333 1221,343 1227,357 1230,375 1232,375 1239,376 1248,379 1258,383 1269,389 1279,399 1286,411 1289,428 1291,429 1298,431 1307,434 1317,441 1326,450 1334,462 1338,478 1338,499 1341,501 1347,505 1357,513 1368,523 1378,535 1387,550 1393,567 1394,586 1396,587 1402,590 1410,594 1419,601 1428,611 1435,624 1438,639 1438,658 1441,659 1448,663 1458,669 1468,678 1477,690 1484,704 1485,722 1479,742 1482,744 1488,749 1496,757 1505,769 1511,784 1514,801 1512,821 1502,844 1504,847 1507,855 1512,867 1517,881 1520,897 1520,914 1516,930 1507,944 1509,945 1512,949 1517,955 1521,963 1522,975 1520,989 1513,1005 1499,1025 1501,1030 1505,1037 1510,1047 1513,1059 1513,1073 1510,1086 1501,1100 1485,1114 1485,1114"/>
<polygon class="pen1 brush0" points="1553,1440 1572,1433 1586,1423 1594,1411 1598,1399 1599,1387 1599,1376 1598,1367 1598,1361 1618,1348 1631,1335 1638,1323 1641,1312 1640,1303 1638,1295 1636,1291 1635,1289 1649,1279 1658,1266 1663,1250 1666,1234 1667,1219 1666,1206 1665,1197 1665,1194 1682,1176 1692,1158 1695,1141 1694,1125 1690,1111 1685,1100 1681,1093 1679,1090 1692,1073 1698,1056 1697,1040 1693,1026 1687,1014 1680,1004 1674,998 1672,996 1680,979 1682,963 1680,949 1676,937 1670,927 1664,920 1660,916 1658,914 1664,896 1665,878 1662,861 1657,846 1650,833 1644,822 1639,815 1637,813 1644,794 1646,777 1643,762 1637,750 1630,741 1623,734 1617,729 1615,728 1618,712 1616,698 1611,686 1604,677 1595,669 1588,664 1582,661 1580,660 1584,641 1582,626 1578,613 1571,603 1563,596 1556,591 1551,588 1549,587 1553,566 1550,549 1543,536 1532,526 1521,519 1510,515 1502,513 1499,512 1513,508 1516,509 1524,511 1535,515 1546,522 1556,532 1564,545 1566,562 1561,583 1563,584 1569,587 1576,592 1584,599 1591,609 1596,622 1597,638 1593,658 1595,659 1601,662 1608,667 1617,674 1624,684 1629,696 1631,710 1628,726 1630,728 1635,732 1642,739 1649,749 1655,762 1658,777 1656,794 1648,813 1650,815 1655,822 1661,833 1668,846 1673,861 1676,878 1675,896 1669,914 1671,916 1675,920 1681,928 1687,938 1691,950 1693,964 1691,980 1683,998 1685,1000 1691,1006 1698,1016 1704,1028 1709,1043 1709,1059 1704,1076 1691,1094 1693,1097 1697,1104 1702,1115 1706,1129 1706,1145 1703,1162 1693,1180 1675,1198 1675,1201 1676,1210 1677,1223 1676,1239 1673,1256 1668,1272 1659,1286 1645,1296 1646,1298 1648,1302 1650,1310 1650,1319 1647,1331 1640,1343 1628,1356 1608,1370 1608,1375 1609,1384 1609,1395 1607,1407 1602,1420 1594,1431 1580,1441 1561,1448 1553,1440 1553,1440"/>
<polygon class="pen1 brush0" points="1756,1125 1773,1114 1783,1102 1788,1089 1789,1076 1787,1063 1784,1053 1782,1044 1780,1039 1795,1022 1804,1007 1808,994 1808,982 1805,973 1802,967 1798,962 1797,961 1808,948 1813,933 1814,916 1813,899 1809,884 1805,872 1802,863 1801,860 1813,839 1818,820 1817,803 1812,788 1804,775 1797,766 1791,760 1789,758 1797,738 1797,720 1793,704 1785,692 1775,681 1766,674 1759,670 1756,668 1759,649 1757,633 1752,620 1744,609 1736,600 1728,595 1722,591 1720,590 1722,572 1718,555 1711,539 1702,526 1692,515 1684,506 1677,501 1675,499 1677,478 1674,461 1668,448 1659,437 1649,430 1641,425 1634,422 1632,421 1631,404 1625,391 1617,380 1607,372 1597,367 1589,363 1582,362 1580,361 1579,342 1573,327 1565,316 1556,309 1547,304 1538,301 1532,299 1530,299 1529,277 1522,261 1512,250 1499,243 1486,240 1474,238 1466,238 1463,238 1476,231 1479,231 1487,231 1499,233 1512,236 1525,243 1535,254 1542,270 1543,292 1545,292 1551,294 1559,297 1568,303 1577,311 1585,322 1590,338 1591,357 1593,358 1600,359 1609,363 1619,368 1629,376 1637,386 1643,399 1645,415 1647,416 1654,419 1662,424 1672,432 1680,443 1686,457 1689,474 1686,495 1688,497 1695,502 1704,511 1713,522 1723,536 1730,552 1734,570 1733,589 1735,590 1741,594 1748,599 1756,608 1764,619 1769,632 1771,648 1769,667 1772,669 1778,673 1788,681 1797,691 1805,704 1809,720 1808,738 1800,758 1802,760 1808,766 1816,775 1823,788 1828,803 1830,821 1825,841 1813,863 1814,866 1817,875 1821,887 1824,903 1825,920 1824,936 1818,952 1807,965 1808,966 1812,971 1816,977 1818,986 1819,998 1815,1011 1806,1027 1790,1044 1792,1050 1796,1058 1799,1069 1801,1081 1799,1095 1794,1108 1784,1121 1766,1133 1756,1125"/>
</g>
</svg>
