<?xml version="1.0" encoding="UTF-8" standalone="no"?>
<!DOCTYPE svg PUBLIC "-//W3C//DTD SVG 1.0//EN" "http://www.w3.org/TR/2001/REC-SVG-20010904/DTD/svg10.dtd">
<svg xmlns="http://www.w3.org/2000/svg" xmlns:xlink="http://www.w3.org/1999/xlink" fill-rule="evenodd" height="1.981in" preserveAspectRatio="none" stroke-linecap="round" viewBox="0 0 1165 1981" width="1.165in">
<style type="text/css">
.brush0 { fill: rgb(255,255,255); }
.pen0 { stroke: rgb(0,0,0); stroke-width: 1; stroke-linejoin: round; }
.brush1 { fill: none; }
.pen1 { stroke: none; }
.brush2 { fill: rgb(0,0,0); }
</style>
<g>
<polygon class="pen1 brush2" points="328,1240 331,1238 341,1235 357,1231 377,1226 399,1221 423,1215 447,1209 470,1203 471,1208 475,1220 483,1239 493,1261 506,1287 523,1314 544,1339 568,1362 540,1981 234,1981 467,1903 494,1415 493,1414 490,1411 485,1407 478,1401 470,1393 460,1384 449,1374 437,1363 425,1350 411,1337 398,1322 383,1307 369,1291 355,1275 341,1257 328,1240 328,1240"/>
<polygon class="pen1 brush2" points="243,702 229,703 213,704 199,700 189,689 185,669 191,635 209,586 241,519 262,479 282,438 301,397 318,357 334,316 348,277 359,239 368,202 373,167 374,135 372,105 365,78 354,54 337,34 315,18 287,6 281,4 275,3 270,3 264,3 259,4 254,6 249,8 244,10 233,17 224,27 217,39 212,53 210,69 212,85 217,102 226,120 240,143 251,165 259,186 263,207 263,230 259,256 249,285 233,318 223,339 209,363 194,391 177,423 159,456 141,492 121,530 103,568 84,607 67,646 52,684 38,722 27,757 19,791 15,823 14,851 14,851 14,851 14,851 14,851 16,868 19,885 22,903 27,920 33,937 39,954 46,970 54,987 65,1010 77,1032 90,1053 103,1072 116,1089 129,1103 142,1116 155,1125 194,1149 234,1167 273,1180 311,1188 348,1191 385,1191 420,1188 453,1182 485,1175 514,1165 541,1155 566,1145 588,1134 606,1125 621,1116 633,1110 645,1103 660,1093 679,1080 700,1064 722,1046 746,1026 770,1004 794,981 817,956 838,930 858,903 875,876 888,848 897,820 902,792 902,764 897,738 890,715 879,695 866,677 850,662 833,648 814,637 793,628 772,620 750,613 727,608 704,604 682,601 660,598 638,596 618,594 592,593 565,595 537,599 509,605 481,613 453,622 426,632 399,642 374,653 349,663 326,673 305,682 286,690 269,696 255,700 243,702 243,702"/>
<polygon class="pen1 brush2" points="540,1199 569,1226 596,1247 623,1263 648,1275 671,1283 693,1288 714,1289 733,1289 749,1286 764,1282 777,1278 788,1273 797,1268 803,1264 807,1261 808,1260 791,1261 773,1260 756,1258 740,1256 726,1254 716,1251 709,1250 706,1249 718,1247 734,1243 752,1236 772,1228 790,1221 805,1214 815,1210 819,1208 803,1209 788,1208 775,1206 764,1203 755,1201 749,1198 744,1197 743,1196 759,1193 773,1189 785,1184 796,1178 804,1173 810,1168 814,1165 815,1164 795,1160 774,1154 754,1147 735,1140 718,1133 705,1127 696,1123 693,1122 681,1133 660,1145 635,1157 608,1169 582,1180 560,1189 545,1196 540,1199 540,1199"/>
<polygon class="pen1 brush2" points="811,1033 813,1030 819,1022 829,1010 842,994 856,976 872,954 888,930 904,904 918,877 931,848 940,820 946,791 947,762 943,734 933,708 916,683 919,682 927,681 939,679 955,678 973,677 994,678 1016,681 1039,687 1061,695 1083,708 1103,725 1121,747 1135,774 1146,808 1151,848 1152,895 1151,892 1148,884 1143,872 1135,858 1123,842 1108,827 1088,813 1064,801 1065,808 1069,826 1073,853 1077,887 1078,925 1077,966 1071,1006 1060,1044 1059,1040 1057,1030 1053,1016 1046,998 1036,979 1021,960 1002,942 977,928 978,932 980,944 983,961 985,982 986,1005 984,1028 979,1051 970,1070 968,1067 963,1058 956,1046 946,1032 933,1018 919,1005 902,994 885,989 884,992 883,1002 880,1015 876,1032 872,1050 867,1069 861,1086 855,1101 855,1100 853,1096 851,1090 847,1081 842,1071 834,1060 824,1047 811,1033 811,1033"/>
<polygon class="pen1 brush2" points="203,23 200,35 197,47 194,58 192,70 44,83 203,23 203,23"/>
<polygon class="pen1 brush2" points="190,83 190,91 190,98 190,106 190,114 45,90 190,83"/>
<polygon class="pen1 brush0" points="378,816 372,828 364,844 354,863 345,884 337,905 330,928 327,950 328,971 334,990 346,1006 365,1019 392,1028 428,1032 474,1030 531,1022 601,1006 599,1007 593,1010 584,1015 572,1020 557,1026 540,1033 521,1039 501,1044 479,1049 457,1051 434,1052 411,1050 388,1046 366,1038 345,1026 325,1010 309,985 306,955 314,923 328,891 344,862 361,838 373,822 378,816"/>
<polygon class="pen1 brush0" points="268,709 253,711 233,714 212,714 192,708 179,692 176,663 187,616 216,549 237,507 257,464 277,422 295,379 312,337 328,297 340,257 351,219 358,183 362,149 362,118 357,90 349,65 335,45 316,28 291,16 286,14 280,13 274,12 269,13 263,13 257,15 252,17 247,19 238,25 230,34 224,46 221,59 222,74 225,91 233,110 246,131 260,154 269,179 273,205 273,231 269,257 261,284 251,311 237,338 225,358 211,383 195,411 178,443 159,477 140,514 120,553 101,592 83,632 67,672 52,711 40,749 31,785 25,819 23,850 25,877 26,876 30,872 36,867 43,860 50,851 57,841 64,829 69,817 69,820 72,828 79,842 92,864 94,859 99,845 106,824 114,800 115,801 118,804 123,808 130,813 139,819 150,824 164,828 179,830 177,827 171,817 165,802 160,780 160,780 162,780 165,781 169,781 175,782 182,783 192,783 204,783 205,782 205,778 203,768 197,750 268,709"/>
<polygon class="pen1 brush2" points="267,73 274,71 281,67 285,61 287,53 285,46 281,40 274,36 267,34 260,36 253,40 249,46 247,53 249,61 253,67 260,71 267,73"/>
</g>
</svg>
