<?xml version="1.0" encoding="UTF-8" standalone="no"?>
<!DOCTYPE svg PUBLIC "-//W3C//DTD SVG 1.0//EN" "http://www.w3.org/TR/2001/REC-SVG-20010904/DTD/svg10.dtd">
<svg xmlns="http://www.w3.org/2000/svg" xmlns:xlink="http://www.w3.org/1999/xlink" fill-rule="evenodd" height="1.865in" preserveAspectRatio="none" stroke-linecap="round" viewBox="0 0 2014 1865" width="2.014in">
<style type="text/css">
.brush0 { fill: rgb(255,255,255); }
.pen0 { stroke: rgb(0,0,0); stroke-width: 1; stroke-linejoin: round; }
.brush1 { fill: none; }
.pen1 { stroke: none; }
.brush2 { fill: rgb(0,0,0); }
</style>
<g>
<polygon class="pen1 brush2" points="151,105 53,158 57,165 155,112 151,105 151,105"/>
<polygon class="pen1 brush2" points="128,41 21,41 21,48 128,48 128,41 128,41"/>
<polygon class="pen1 brush2" points="131,75 132,82 3,115 0,106 131,75"/>
<polygon class="pen1 brush2" points="169,0 172,0 181,0 195,1 212,1 234,2 258,3 284,4 312,5 340,6 368,7 395,9 421,10 444,12 464,13 481,15 493,17 505,19 520,22 537,26 557,31 579,40 603,51 629,65 655,84 682,108 709,137 736,171 762,212 788,261 812,316 834,380 855,453 858,466 861,482 865,499 870,518 876,537 885,558 896,578 910,598 928,617 950,635 976,652 1007,667 1044,679 1087,689 1136,696 1192,699 1223,700 1254,703 1286,707 1318,712 1351,718 1384,726 1418,735 1451,744 1485,755 1518,767 1552,780 1584,794 1617,809 1648,825 1679,842 1709,859 1739,877 1767,896 1794,915 1819,935 1844,956 1866,977 1888,999 1907,1021 1925,1044 1940,1067 1954,1090 1965,1114 1974,1137 1981,1161 1985,1186 1986,1210 1987,1219 1988,1244 1988,1283 1984,1332 1973,1387 1954,1448 1924,1509 1882,1568 1866,1585 1847,1605 1826,1627 1801,1650 1775,1673 1747,1696 1718,1719 1688,1740 1657,1760 1626,1777 1595,1791 1565,1802 1536,1808 1509,1810 1483,1806 1460,1796 1685,1622 1678,1613 1449,1789 1442,1784 1434,1779 1427,1773 1420,1767 1413,1761 1406,1754 1399,1746 1392,1738 1653,1586 1648,1576 1384,1730 1378,1723 1372,1715 1366,1707 1360,1700 1355,1691 1351,1683 1348,1674 1345,1664 1628,1545 1622,1534 1342,1652 1341,1631 1344,1612 1351,1595 1362,1580 1376,1566 1392,1554 1410,1543 1430,1533 1451,1525 1473,1517 1495,1511 1517,1505 1538,1499 1558,1494 1577,1489 1594,1484 1621,1476 1642,1469 1657,1462 1664,1456 1662,1451 1649,1446 1625,1443 1587,1440 1573,1440 1558,1440 1542,1440 1525,1440 1508,1441 1490,1442 1472,1443 1452,1444 1433,1444 1412,1445 1392,1446 1370,1446 1348,1447 1326,1447 1304,1446 1281,1446 1257,1445 1234,1443 1210,1442 1185,1439 1161,1436 1136,1433 1111,1428 1087,1423 1061,1418 1036,1411 1011,1404 986,1395 960,1386 935,1376 910,1364 885,1352 885,1348 885,1337 887,1319 890,1295 898,1265 909,1229 926,1189 949,1145 945,1148 936,1158 922,1174 905,1196 888,1223 871,1256 858,1294 849,1337 847,1339 841,1343 832,1350 819,1359 803,1369 784,1381 763,1394 738,1406 711,1419 682,1432 651,1444 617,1454 582,1463 546,1470 508,1474 469,1476 456,1475 445,1471 436,1465 431,1456 430,1446 435,1434 445,1420 463,1405 484,1388 505,1368 524,1347 543,1325 560,1304 575,1284 588,1266 599,1251 608,1240 614,1231 619,1223 620,1215 617,1204 610,1189 598,1169 581,1141 561,1106 541,1064 522,1014 503,952 487,877 472,786 459,678 449,551 448,540 444,525 439,505 431,483 422,457 411,429 398,400 384,369 369,338 353,307 335,277 317,247 298,220 279,194 259,172 239,153 204,121 179,93 162,69 153,49 150,32 153,18 160,8 169,0"/>
<polygon class="pen1 brush0" points="369,135 377,134 384,132 390,129 396,124 400,118 403,112 405,105 406,97 405,89 403,82 400,75 396,69 390,65 384,61 377,59 369,58 361,59 354,61 348,65 342,69 337,75 334,82 332,89 331,97 332,105 334,112 337,118 342,124 348,129 354,132 361,134 369,135"/>
</g>
</svg>
