<?xml version="1.0" encoding="UTF-8" standalone="no"?>
<!DOCTYPE svg PUBLIC "-//W3C//DTD SVG 1.0//EN" "http://www.w3.org/TR/2001/REC-SVG-20010904/DTD/svg10.dtd">
<svg xmlns="http://www.w3.org/2000/svg" xmlns:xlink="http://www.w3.org/1999/xlink" fill-rule="evenodd" height="1.983in" preserveAspectRatio="none" stroke-linecap="round" viewBox="0 0 1490 1983" width="1.49in">
<style type="text/css">
.brush0 { fill: rgb(255,255,255); }
.pen0 { stroke: rgb(0,0,0); stroke-width: 1; stroke-linejoin: round; }
.brush1 { fill: none; }
.pen1 { stroke: none; }
.brush2 { fill: rgb(0,0,0); }
</style>
<g>
<polygon class="pen1 brush2" points="378,0 568,368 591,378 501,570 652,621 666,669 668,657 672,648 677,639 686,629 687,626 689,620 692,610 696,598 702,586 710,574 719,564 729,557 729,553 728,544 728,530 730,513 726,489 719,459 710,427 698,393 683,361 667,334 647,314 626,303 628,291 649,302 668,322 686,349 701,379 714,412 724,444 732,473 736,497 739,492 742,487 744,483 747,479 748,470 747,449 746,421 745,390 746,359 748,332 754,313 763,307 773,315 779,333 782,358 783,388 783,418 782,446 781,469 780,484 781,484 782,484 785,487 787,492 792,467 800,438 810,407 823,376 838,347 855,322 873,304 893,294 895,303 875,314 856,334 839,360 825,391 813,424 803,457 796,487 791,511 791,519 791,527 791,540 790,560 794,563 804,573 813,596 817,635 818,636 821,641 825,652 830,671 844,621 993,570 903,377 925,365 1116,0 1135,0 943,364 1038,581 834,686 835,702 835,721 834,741 831,765 825,791 818,819 807,851 794,885 794,905 794,957 793,1031 790,1116 784,1201 772,1274 756,1326 733,1345 710,1325 696,1276 687,1206 684,1125 684,1043 686,969 688,913 689,885 687,880 682,866 676,844 669,817 663,786 659,753 658,719 662,686 456,581 551,364 358,0 378,0 378,0"/>
<polygon class="pen1 brush2" points="824,868 825,870 830,874 836,882 846,892 858,904 872,918 888,934 907,950 928,968 950,986 975,1004 1001,1022 1029,1040 1058,1057 1089,1073 1121,1088 1154,1100 1187,1109 1220,1116 1252,1119 1283,1120 1313,1118 1342,1115 1369,1109 1393,1101 1415,1092 1434,1082 1449,1070 1461,1057 1469,1043 1473,1028 1472,1013 1462,997 1440,979 1407,960 1366,940 1318,920 1265,900 1209,879 1151,860 1094,841 1038,823 987,808 940,794 901,783 871,774 852,769 845,767 845,794 840,821 832,847 824,868 824,868"/>
<polygon class="pen1 brush2" points="666,861 657,841 649,816 643,789 643,763 636,765 617,770 587,779 548,790 502,803 450,819 395,836 338,855 280,874 224,894 171,915 124,935 83,954 50,973 28,991 18,1007 17,1022 21,1037 29,1051 41,1064 56,1076 75,1087 97,1096 122,1103 148,1109 177,1113 207,1114 238,1113 270,1110 303,1103 336,1094 369,1082 401,1068 432,1052 461,1035 489,1017 515,999 540,980 562,962 583,944 602,928 618,912 632,898 644,885 654,875 660,868 665,863 666,861 666,861"/>
<polygon class="pen1 brush2" points="1034,1081 1007,1260 1023,1254 1375,1659 1388,1656 1037,1253 1043,1250 1065,1084 1034,1081 1034,1081"/>
<polygon class="pen1 brush2" points="938,1034 931,1066 915,1114 894,1173 871,1235 848,1294 827,1344 813,1379 808,1392 811,1392 817,1392 826,1392 834,1392 982,1983 994,1980 848,1392 850,1392 853,1392 854,1393 854,1394 866,1366 881,1320 900,1262 919,1199 936,1138 951,1087 961,1051 965,1037 938,1034 938,1034"/>
<polygon class="pen1 brush2" points="429,1081 399,1084 422,1250 426,1253 74,1656 88,1659 440,1254 456,1260 429,1081 429,1081"/>
<polygon class="pen1 brush2" points="526,1034 499,1037 503,1051 513,1087 528,1138 545,1199 564,1262 583,1320 599,1366 611,1394 610,1393 611,1392 612,1392 615,1392 469,1974 483,1978 629,1392 638,1392 647,1392 653,1392 655,1392 650,1379 636,1344 616,1294 592,1235 569,1173 548,1114 533,1066 526,1034"/>
</g>
</svg>
