<?xml version="1.0" encoding="UTF-8" standalone="no"?>
<!DOCTYPE svg PUBLIC "-//W3C//DTD SVG 1.0//EN" "http://www.w3.org/TR/2001/REC-SVG-20010904/DTD/svg10.dtd">
<svg xmlns="http://www.w3.org/2000/svg" xmlns:xlink="http://www.w3.org/1999/xlink" fill-rule="evenodd" height="1.828in" preserveAspectRatio="none" stroke-linecap="round" viewBox="0 0 1959 1828" width="1.959in">
<style type="text/css">
.brush0 { fill: rgb(255,255,255); }
.pen0 { stroke: rgb(0,0,0); stroke-width: 1; stroke-linejoin: round; }
.brush1 { fill: none; }
.pen1 { stroke: none; }
.brush2 { fill: rgb(0,0,0); }
</style>
<g>
<polygon class="pen1 brush2" points="1101,783 1958,783 1959,788 1155,1044 1155,1044 1635,1823 1631,1828 959,1199 959,1199 308,1824 304,1821 752,1044 752,1044 0,764 2,759 817,777 817,777 975,0 980,0 1101,783 1101,783"/>
<polygon class="pen1 brush0" points="1104,1061 1100,1070 1074,1063 1058,1053 1050,1042 1048,1029 1051,1017 1056,1004 1062,993 1067,984 1075,958 1077,941 1072,931 1065,926 1055,926 1045,928 1036,930 1031,932 1012,936 997,939 986,939 978,938 973,936 971,933 969,929 969,925 968,897 964,878 958,865 950,858 939,854 926,854 911,854 894,855 879,851 870,841 867,826 867,809 870,793 873,778 877,768 878,764 888,766 887,769 883,779 880,792 877,806 876,821 878,833 886,842 899,845 917,845 932,844 945,845 956,849 965,857 971,870 975,890 976,918 976,922 977,925 980,928 985,929 992,930 1003,929 1018,926 1037,922 1043,920 1052,919 1063,919 1073,921 1082,928 1087,939 1086,958 1078,984 1074,993 1068,1004 1062,1015 1059,1027 1060,1038 1066,1048 1080,1056 1104,1061 1104,1061"/>
<polygon class="pen1 brush0" points="845,1185 834,1173 824,1163 816,1155 811,1146 810,1137 814,1125 823,1111 837,1092 842,1083 843,1076 841,1069 835,1063 828,1057 819,1052 809,1046 800,1041 791,1035 784,1029 779,1023 777,1015 779,1007 785,997 796,986 813,974 822,970 834,966 846,961 856,954 864,945 866,932 861,915 848,892 838,895 848,911 854,924 856,934 853,941 847,948 838,954 825,960 810,967 802,971 795,975 788,980 781,985 775,991 770,997 767,1004 766,1010 767,1018 771,1027 778,1037 790,1045 808,1055 821,1063 828,1071 831,1078 830,1084 827,1090 821,1097 815,1103 809,1110 804,1118 800,1126 799,1135 801,1146 808,1158 819,1171 837,1187 845,1185 845,1185"/>
<polygon class="pen1 brush0" points="1070,1159 1073,1149 1053,1153 1038,1155 1026,1156 1017,1154 1012,1152 1008,1149 1006,1145 1006,1141 1005,1114 1001,1094 995,1081 986,1073 975,1069 962,1068 947,1069 929,1070 915,1066 907,1056 904,1042 906,1025 909,1008 913,994 917,984 918,980 908,980 907,984 903,994 899,1009 896,1027 895,1044 898,1060 907,1071 922,1077 939,1078 954,1077 967,1077 979,1080 987,1086 994,1098 998,1117 999,1145 1000,1149 1002,1154 1006,1158 1013,1161 1022,1164 1035,1164 1051,1163 1070,1159"/>
</g>
</svg>
