<?xml version="1.0" encoding="UTF-8" standalone="no"?>
<!DOCTYPE svg PUBLIC "-//W3C//DTD SVG 1.0//EN" "http://www.w3.org/TR/2001/REC-SVG-20010904/DTD/svg10.dtd">
<svg xmlns="http://www.w3.org/2000/svg" xmlns:xlink="http://www.w3.org/1999/xlink" fill-rule="evenodd" height="1.205in" preserveAspectRatio="none" stroke-linecap="round" viewBox="0 0 1994 1205" width="1.994in">
<style type="text/css">
.brush0 { fill: rgb(255,255,255); }
.pen0 { stroke: rgb(0,0,0); stroke-width: 1; stroke-linejoin: round; }
.brush1 { fill: none; }
.pen1 { stroke: none; }
.brush2 { fill: rgb(0,0,0); }
</style>
<g>
<polygon class="pen1 brush2" points="929,351 855,330 853,331 847,332 838,335 827,338 813,343 798,349 782,356 766,364 749,373 734,382 720,393 708,406 698,419 691,433 688,448 689,464 695,501 701,542 707,585 714,626 721,663 730,692 739,711 750,716 750,716 825,832 835,830 757,710 762,692 758,664 751,629 744,591 740,565 734,537 729,509 726,482 728,457 735,435 751,417 777,405 808,396 837,386 863,377 885,369 904,362 917,356 926,352 929,351 929,351"/>
<polygon class="pen1 brush2" points="1004,355 1018,355 1030,355 1040,356 1048,356 1054,357 1058,358 1060,358 1061,358 1050,371 1034,389 1015,410 995,433 975,456 958,477 944,495 936,509 935,526 938,555 944,591 951,632 957,673 962,710 963,741 959,760 1031,874 1021,878 950,764 933,755 919,728 908,690 900,644 894,597 891,554 889,520 888,500 893,486 906,466 925,442 946,417 967,394 986,374 999,360 1004,355 1004,355"/>
<polygon class="pen1 brush2" points="1173,358 1168,363 1154,378 1134,401 1111,429 1089,460 1070,493 1058,526 1055,557 1058,586 1061,617 1065,648 1071,678 1077,705 1086,727 1096,742 1108,749 1175,851 1184,848 1119,747 1125,733 1124,710 1118,680 1109,645 1100,609 1093,575 1092,546 1099,523 1114,502 1132,479 1153,454 1174,428 1195,403 1213,378 1228,357 1237,338 1235,339 1230,341 1223,344 1214,348 1204,352 1193,355 1183,357 1173,358 1173,358"/>
<polygon class="pen1 brush2" points="1666,426 1664,426 1659,425 1651,424 1641,424 1630,424 1618,426 1606,430 1596,437 1594,441 1588,448 1582,458 1575,470 1570,481 1568,491 1570,497 1578,500 1595,571 1601,568 1582,497 1585,495 1589,491 1591,486 1594,481 1598,475 1602,470 1606,466 1612,463 1620,460 1629,457 1638,453 1648,450 1657,448 1667,447 1676,446 1684,447 1666,426 1666,426"/>
<polygon class="pen1 brush2" points="1869,878 1859,898 1845,913 1829,922 1812,926 1795,923 1782,914 1772,897 1767,872 1767,844 1770,818 1776,795 1785,774 1795,755 1808,737 1821,721 1834,707 1839,726 1844,746 1849,767 1853,789 1858,811 1862,833 1866,855 1869,878 1869,878"/>
<polygon class="pen1 brush2" points="1848,706 1853,724 1858,744 1863,765 1868,787 1872,809 1876,832 1879,854 1882,876 1900,888 1919,894 1937,894 1952,889 1964,879 1972,864 1973,845 1967,822 1957,801 1943,782 1926,764 1909,748 1891,734 1874,722 1859,712 1848,706 1848,706"/>
<polygon class="pen1 brush2" points="1878,457 1869,466 1860,474 1851,484 1841,493 1830,503 1819,513 1807,523 1795,533 1814,562 1829,591 1842,617 1852,641 1860,660 1865,676 1868,686 1869,689 1990,750 1984,714 1976,678 1964,641 1951,604 1935,567 1917,530 1898,493 1878,457 1878,457"/>
<polygon class="pen1 brush2" points="1763,290 1776,308 1790,326 1803,346 1817,365 1830,385 1843,405 1856,425 1869,446 1861,455 1852,464 1843,474 1833,483 1822,493 1811,503 1799,513 1787,523 1774,505 1760,487 1744,469 1727,452 1709,435 1689,420 1668,405 1646,392 1663,379 1680,366 1697,352 1712,339 1727,326 1740,313 1752,301 1763,290 1763,290"/>
<polygon class="pen1 brush2" points="1527,91 1526,108 1524,130 1521,158 1518,190 1512,224 1504,260 1494,295 1481,330 1494,333 1507,337 1520,341 1535,346 1549,351 1565,356 1581,362 1598,368 1603,370 1607,371 1612,373 1617,375 1621,377 1626,380 1630,382 1635,384 1653,371 1670,358 1687,345 1702,331 1717,317 1731,304 1743,292 1754,280 1738,260 1721,240 1705,222 1690,205 1675,189 1661,174 1647,160 1635,148 1624,139 1613,130 1600,122 1586,115 1572,108 1557,102 1542,96 1527,91 1527,91"/>
<polygon class="pen1 brush2" points="1243,53 1250,53 1260,53 1271,53 1285,53 1299,54 1315,54 1332,55 1351,56 1370,58 1390,60 1410,62 1431,65 1452,69 1473,73 1494,78 1514,84 1514,101 1513,124 1511,152 1507,183 1502,217 1494,252 1483,288 1470,322 1450,317 1432,313 1414,310 1398,307 1383,305 1369,304 1356,303 1344,303 1333,302 1322,303 1313,303 1304,303 1295,304 1288,304 1281,305 1274,305 1277,266 1276,227 1272,188 1266,152 1259,119 1253,91 1247,69 1243,53 1243,53"/>
<polygon class="pen1 brush2" points="312,57 314,58 321,61 332,65 347,71 366,77 389,83 416,90 446,95 480,100 517,103 557,104 600,103 645,99 694,93 745,82 798,68 794,101 796,100 802,97 811,91 823,83 836,72 850,59 865,43 879,24 879,64 881,63 885,60 893,55 902,47 913,38 926,27 939,15 953,0 955,0 960,1 969,3 980,5 994,7 1010,10 1028,13 1048,15 1068,18 1089,20 1111,22 1133,24 1154,25 1175,26 1195,25 1213,24 1213,24 1214,28 1218,37 1224,54 1224,54 1224,54 1225,54 1226,54 1231,69 1237,92 1244,120 1251,153 1256,189 1260,228 1261,267 1258,307 1254,309 1249,311 1242,313 1234,316 1224,319 1212,322 1199,325 1184,328 1167,331 1149,333 1129,335 1107,337 1084,337 1059,337 1032,336 1004,334 982,332 961,329 941,327 922,324 905,321 888,318 871,314 856,311 841,307 827,303 813,299 800,294 787,290 775,285 762,279 750,274 717,279 684,285 654,292 624,299 596,307 569,316 543,325 519,335 496,346 474,357 453,369 434,381 416,394 399,408 383,422 369,436 346,464 327,493 312,522 301,553 294,584 290,615 290,646 293,678 299,709 308,740 319,770 333,800 349,829 367,857 387,884 409,909 424,924 440,939 456,954 473,969 491,983 510,997 529,1010 549,1024 570,1036 591,1049 613,1061 636,1072 659,1083 683,1094 708,1104 733,1113 759,1122 786,1130 813,1138 840,1145 869,1152 898,1157 927,1163 957,1167 988,1171 1019,1174 1050,1176 1083,1178 1116,1179 1149,1179 1183,1178 1217,1176 1206,1189 1179,1190 1152,1191 1125,1191 1098,1191 1071,1190 1043,1189 1016,1187 988,1184 960,1181 933,1177 905,1173 878,1168 850,1162 823,1156 796,1149 770,1141 743,1133 717,1124 691,1114 665,1103 640,1092 615,1080 591,1068 567,1054 543,1040 520,1025 498,1009 476,993 455,975 435,957 415,938 396,918 373,891 352,863 333,834 316,804 302,773 290,742 280,709 274,677 271,644 271,611 274,579 281,546 293,514 308,483 328,453 352,423 366,409 382,395 398,381 416,368 435,355 455,343 476,332 499,321 523,311 548,302 574,293 601,285 630,277 660,271 691,265 723,260 720,259 716,258 713,256 710,254 698,254 684,255 669,255 652,256 634,257 614,258 593,260 571,262 548,263 524,266 500,268 475,271 449,274 423,277 396,281 369,285 343,289 316,294 289,300 262,305 236,311 210,318 185,325 161,332 137,340 114,349 92,358 71,368 52,378 33,389 16,400 1,412 0,393 15,382 31,371 48,360 67,351 86,341 107,333 129,325 151,317 174,310 198,303 222,296 247,290 272,285 297,280 322,275 348,271 373,267 399,263 424,260 448,257 473,254 497,252 520,249 542,248 564,246 585,245 605,243 624,242 641,241 658,241 672,240 686,240 681,238 677,235 673,233 669,231 666,230 663,228 659,225 655,223 659,223 669,222 684,220 703,217 724,213 746,209 766,203 785,196 785,194 782,193 778,192 772,192 764,192 755,193 745,193 733,194 721,195 707,195 694,195 679,195 665,194 650,193 636,190 622,187 639,166 638,166 635,167 630,167 623,168 614,168 604,169 592,170 579,170 565,171 549,171 533,170 516,170 499,169 480,167 462,165 443,162 456,142 453,142 444,142 430,140 412,135 390,125 366,110 339,88 312,57"/>
<polygon class="pen1 brush0" points="908,185 915,184 921,182 927,179 932,175 937,170 940,164 942,158 943,151 942,144 940,137 937,131 932,126 927,121 921,118 915,116 908,115 901,116 895,118 889,121 883,126 879,131 876,137 874,144 873,151 874,158 876,164 879,170 883,175 889,179 895,182 901,184 908,185"/>
</g>
</svg>
