<?xml version="1.0" encoding="UTF-8" standalone="no"?>
<!DOCTYPE svg PUBLIC "-//W3C//DTD SVG 1.0//EN" "http://www.w3.org/TR/2001/REC-SVG-20010904/DTD/svg10.dtd">
<svg xmlns="http://www.w3.org/2000/svg" xmlns:xlink="http://www.w3.org/1999/xlink" fill-rule="evenodd" height="1.511in" preserveAspectRatio="none" stroke-linecap="round" viewBox="0 0 2032 1511" width="2.032in">
<style type="text/css">
.brush0 { fill: rgb(255,255,255); }
.pen0 { stroke: rgb(0,0,0); stroke-width: 1; stroke-linejoin: round; }
.brush1 { fill: none; }
.pen1 { stroke: none; }
.brush2 { fill: rgb(0,0,0); }
</style>
<g>
<polygon class="pen1 brush2" points="1134,183 1136,183 1140,181 1146,179 1151,174 1156,168 1158,159 1156,146 1150,131 1137,100 1131,74 1133,61 1144,68 1186,14 1192,21 1148,77 1148,79 1150,81 1151,83 1151,85 1161,102 1171,120 1179,137 1184,153 1184,169 1178,184 1165,198 1144,211 1141,211 1134,207 1130,199 1134,183 1134,183"/>
<polygon class="pen1 brush2" points="905,183 903,183 899,181 894,179 888,174 884,168 882,159 883,146 890,131 903,100 909,75 908,63 898,71 857,17 850,23 892,77 891,79 890,81 888,83 888,85 878,102 868,120 860,137 856,153 856,169 862,184 875,198 897,211 900,211 906,207 909,199 905,183 905,183"/>
<polygon class="pen1 brush2" points="958,105 952,108 946,111 941,114 936,118 931,123 927,127 924,133 922,139 917,161 916,179 919,192 929,204 935,202 943,201 951,199 960,198 970,197 981,196 993,195 1005,194 1017,194 1030,194 1043,195 1056,196 1069,198 1082,200 1095,203 1107,206 1118,194 1123,180 1121,162 1117,139 1115,133 1112,127 1108,123 1103,118 1098,114 1092,111 1086,108 1080,105 1081,104 1081,102 1081,100 1081,98 1079,88 1074,79 1066,73 1057,71 1056,71 1054,71 1053,71 1051,72 1049,69 1048,67 1046,64 1043,62 1077,21 1070,15 1037,58 1032,56 1028,54 1023,54 1017,54 1010,54 1005,54 1001,55 996,58 963,17 958,21 989,64 988,65 986,67 985,69 983,71 982,71 981,71 980,71 979,71 971,73 963,79 958,88 956,98 956,100 956,102 957,104 958,105 958,105"/>
<polygon class="pen1 brush2" points="996,1436 996,1511 1019,1450 1040,1509 1040,1438 1045,1429 1050,1417 1054,1403 1057,1388 980,1388 984,1402 987,1415 991,1426 996,1436 996,1436"/>
<polygon class="pen1 brush2" points="931,216 928,236 923,269 917,314 914,364 912,418 915,472 923,520 938,561 949,583 958,604 965,626 971,647 976,669 980,689 983,710 986,730 1053,730 1055,710 1058,689 1062,669 1067,647 1073,626 1081,604 1090,583 1101,561 1116,521 1124,472 1126,420 1125,366 1121,316 1116,271 1111,237 1108,217 1096,213 1083,211 1070,208 1058,207 1045,206 1032,205 1019,205 1007,205 995,206 983,207 972,208 962,209 953,211 945,213 937,214 931,216 931,216"/>
<polygon class="pen1 brush2" points="986,746 987,763 988,780 988,796 988,812 1050,812 1050,796 1050,780 1050,763 1051,746 986,746 986,746"/>
<polygon class="pen1 brush2" points="988,828 988,831 988,835 988,839 988,842 987,852 986,865 986,881 985,899 1053,899 1052,881 1051,865 1050,852 1050,842 1050,839 1050,835 1050,831 1050,828 988,828 988,828"/>
<polygon class="pen1 brush2" points="983,915 982,929 981,945 980,962 979,980 1059,980 1058,962 1057,945 1055,929 1054,915 983,915 983,915"/>
<polygon class="pen1 brush2" points="978,994 977,1010 976,1026 976,1042 976,1058 1063,1058 1063,1042 1062,1026 1060,1010 1060,994 978,994 978,994"/>
<polygon class="pen1 brush2" points="975,1074 974,1091 973,1108 972,1126 972,1143 1067,1143 1066,1126 1065,1108 1064,1091 1063,1074 975,1074 975,1074"/>
<polygon class="pen1 brush2" points="972,1159 972,1175 972,1191 971,1207 971,1223 1067,1223 1067,1207 1067,1191 1067,1175 1067,1159 972,1159 972,1159"/>
<polygon class="pen1 brush2" points="971,1237 972,1254 972,1270 972,1286 972,1301 1066,1301 1067,1286 1067,1270 1067,1254 1067,1237 971,1237 971,1237"/>
<polygon class="pen1 brush2" points="973,1315 974,1330 976,1345 977,1359 978,1372 1060,1372 1062,1359 1063,1345 1064,1330 1066,1315 973,1315 973,1315"/>
<polygon class="pen1 brush2" points="1145,443 1146,443 1150,442 1157,441 1167,440 1172,444 1178,449 1185,454 1193,460 1201,466 1211,473 1221,479 1232,486 1243,492 1256,499 1269,504 1282,510 1297,515 1311,519 1327,522 1343,525 1352,535 1364,549 1380,568 1396,591 1413,618 1429,648 1442,681 1452,717 1430,720 1409,723 1389,725 1370,727 1351,729 1334,731 1317,732 1302,733 1288,734 1275,734 1263,735 1252,735 1243,735 1236,735 1230,734 1225,734 1203,728 1180,717 1157,702 1137,685 1119,665 1107,646 1100,626 1101,609 1107,592 1113,573 1121,553 1128,532 1135,511 1140,488 1144,466 1145,443 1145,443"/>
<polygon class="pen1 brush2" points="1178,440 1190,449 1205,458 1222,469 1242,480 1264,490 1287,500 1312,508 1339,514 1367,518 1396,518 1425,515 1456,508 1487,496 1518,479 1549,455 1580,426 1548,426 1516,426 1484,427 1453,427 1423,428 1394,429 1366,430 1339,431 1313,432 1288,434 1265,435 1244,436 1224,437 1207,438 1191,439 1178,440 1178,440"/>
<polygon class="pen1 brush2" points="1593,426 1620,426 1646,426 1672,427 1698,428 1724,428 1748,430 1772,431 1796,433 1818,435 1840,437 1861,440 1880,443 1899,447 1916,451 1932,455 1946,460 1917,482 1888,499 1857,512 1826,521 1795,526 1765,528 1734,527 1705,524 1677,520 1650,514 1626,507 1603,500 1583,493 1566,486 1552,480 1542,476 1549,471 1555,466 1561,460 1567,454 1573,447 1580,440 1586,433 1593,426 1593,426"/>
<polygon class="pen1 brush2" points="1955,463 1938,477 1921,489 1904,499 1886,508 1867,515 1849,521 1830,526 1811,529 1792,532 1773,533 1755,534 1736,533 1718,532 1700,530 1682,527 1665,524 1676,532 1690,543 1707,556 1725,572 1744,590 1762,609 1778,630 1792,652 1811,646 1829,640 1846,634 1863,627 1879,621 1895,614 1909,606 1923,599 1936,591 1949,583 1960,575 1970,566 1979,558 1987,549 1994,539 2000,530 2004,519 2005,509 2004,500 1999,491 1991,483 1982,476 1969,469 1955,463 1955,463"/>
<polygon class="pen1 brush2" points="1782,653 1764,627 1744,602 1722,580 1701,561 1682,545 1666,533 1656,526 1652,523 1629,516 1608,510 1590,504 1575,498 1561,493 1550,489 1540,485 1533,481 1522,489 1510,495 1499,501 1488,507 1477,512 1466,516 1455,519 1444,522 1433,525 1422,527 1411,528 1400,529 1390,529 1379,529 1369,529 1358,528 1365,536 1377,549 1392,567 1409,589 1425,616 1441,647 1455,680 1465,717 1484,714 1504,712 1523,709 1543,706 1563,702 1583,699 1604,695 1624,691 1644,687 1664,683 1684,679 1704,674 1724,669 1744,664 1763,659 1782,653 1782,653"/>
<polygon class="pen1 brush2" points="1137,267 1138,272 1139,277 1140,283 1141,288 1156,284 1176,279 1199,273 1226,266 1255,257 1287,247 1320,236 1354,224 1388,211 1422,197 1454,182 1486,165 1515,148 1542,129 1565,110 1584,89 1543,104 1502,119 1462,134 1423,149 1384,164 1347,179 1312,193 1279,207 1249,219 1221,231 1197,241 1176,250 1160,257 1147,263 1140,266 1137,267 1137,267"/>
<polygon class="pen1 brush2" points="1601,85 1627,76 1653,67 1679,59 1704,51 1729,43 1753,37 1776,31 1798,25 1820,20 1840,16 1859,13 1877,10 1894,9 1910,8 1924,9 1936,10 1918,29 1896,47 1871,63 1843,77 1814,90 1783,101 1751,111 1719,119 1687,126 1657,132 1628,138 1601,142 1578,145 1557,147 1541,149 1530,150 1541,143 1551,135 1561,127 1570,119 1579,111 1587,103 1594,94 1601,85 1601,85"/>
<polygon class="pen1 brush2" points="1948,11 1938,24 1925,37 1911,49 1895,60 1878,71 1860,81 1840,90 1820,98 1799,106 1778,113 1756,119 1735,125 1713,130 1692,135 1671,139 1651,143 1657,144 1665,146 1674,148 1684,151 1696,155 1708,159 1720,164 1734,170 1747,178 1760,186 1773,195 1786,206 1798,218 1809,231 1819,246 1828,263 1857,246 1883,229 1907,212 1927,195 1945,179 1960,163 1973,148 1982,132 1989,117 1994,102 1996,88 1995,74 1991,60 1985,47 1976,34 1965,21 1962,18 1959,16 1954,13 1948,11 1948,11"/>
<polygon class="pen1 brush2" points="1820,267 1806,275 1791,283 1775,291 1759,299 1742,308 1725,316 1707,324 1688,332 1673,339 1657,345 1642,351 1626,357 1611,363 1596,368 1581,373 1567,378 1559,362 1549,346 1536,332 1521,319 1505,307 1488,296 1470,286 1452,277 1434,269 1416,262 1399,256 1383,250 1369,246 1357,243 1347,240 1340,238 1351,235 1363,231 1374,227 1385,223 1397,219 1408,214 1419,209 1430,205 1441,200 1452,194 1463,189 1474,184 1484,178 1495,172 1505,166 1515,160 1519,160 1526,159 1537,159 1551,157 1567,156 1586,154 1607,151 1630,148 1634,149 1641,150 1649,151 1659,154 1671,157 1684,161 1698,166 1713,171 1728,179 1743,187 1758,196 1772,207 1786,220 1799,234 1810,250 1820,267 1820,267"/>
<polygon class="pen1 brush2" points="1559,381 1520,391 1482,400 1446,407 1411,411 1378,415 1347,417 1318,418 1290,418 1264,417 1241,415 1219,413 1199,410 1182,407 1167,404 1154,401 1144,398 1145,391 1146,371 1146,339 1141,298 1147,296 1155,294 1164,292 1174,289 1184,287 1195,283 1207,280 1220,277 1233,273 1246,269 1260,265 1273,261 1287,257 1300,253 1313,248 1326,244 1333,245 1343,247 1355,250 1369,254 1385,259 1402,265 1420,272 1439,280 1458,289 1476,299 1494,310 1511,322 1526,336 1540,350 1551,365 1559,381 1559,381"/>
<polygon class="pen1 brush2" points="888,443 889,466 893,488 898,511 905,532 912,553 919,573 925,592 931,609 932,626 925,646 913,665 896,685 876,702 854,717 831,728 809,734 804,734 798,735 790,735 780,735 769,735 757,734 744,734 729,733 713,732 696,731 679,729 660,727 640,725 620,723 599,720 577,717 587,681 600,648 615,618 632,591 648,568 663,549 675,535 684,525 700,522 715,519 730,515 745,510 759,504 772,499 785,492 797,486 809,479 819,473 829,466 838,460 846,454 854,449 860,444 865,440 875,441 882,442 887,443 888,443 888,443"/>
<polygon class="pen1 brush2" points="854,440 841,439 825,438 808,437 789,436 767,435 744,434 720,432 694,431 667,430 638,429 609,428 579,427 548,427 516,426 484,426 452,426 483,455 514,479 545,496 576,508 607,515 637,518 666,518 694,514 720,508 745,500 769,490 790,480 810,469 827,458 842,449 854,440 854,440"/>
<polygon class="pen1 brush2" points="441,426 448,433 455,440 462,447 469,453 475,458 482,464 489,469 496,474 488,478 476,483 460,490 440,497 417,504 392,511 365,517 336,522 305,525 274,525 242,524 210,518 178,510 147,497 117,479 88,457 103,452 118,448 136,444 154,441 173,438 194,435 215,433 238,431 261,430 285,429 310,428 335,427 361,427 387,426 414,426 441,426 441,426"/>
<polygon class="pen1 brush2" points="77,463 63,469 50,476 41,483 33,491 29,500 27,509 28,519 33,530 38,539 45,549 53,557 61,566 71,574 82,582 93,590 106,597 119,605 134,612 149,618 165,625 182,631 199,637 217,643 236,649 250,627 266,606 283,587 300,570 318,556 333,543 347,533 358,525 341,528 324,531 306,533 289,534 271,535 253,534 235,533 217,530 199,527 181,522 163,516 145,508 128,499 110,489 94,477 77,463 77,463"/>
<polygon class="pen1 brush2" points="245,653 264,659 284,664 303,669 324,674 344,679 364,683 385,687 406,691 426,695 447,699 467,702 488,706 508,709 528,712 548,714 567,717 577,680 590,646 605,615 621,588 637,565 651,546 662,532 669,524 659,525 649,526 638,526 628,526 618,526 608,525 598,523 588,521 578,518 567,515 557,511 547,506 536,501 525,495 514,488 503,481 486,488 471,495 457,501 444,507 430,512 416,517 399,521 380,524 376,527 365,534 348,546 328,561 306,581 283,602 263,627 245,653 245,653"/>
<polygon class="pen1 brush2" points="897,267 895,272 893,277 892,283 891,288 876,284 857,279 833,273 806,266 777,257 746,247 713,236 679,224 645,211 611,197 578,182 547,165 517,148 491,129 467,110 448,89 489,104 530,119 571,134 611,149 649,164 686,179 722,193 755,207 785,219 813,231 837,241 858,250 874,257 887,263 894,266 897,267 897,267"/>
<polygon class="pen1 brush2" points="428,85 402,76 376,68 350,59 325,52 301,44 277,38 254,31 232,26 211,21 191,17 172,13 154,11 137,9 122,8 108,9 96,10 114,29 136,47 161,63 189,77 218,90 249,101 281,111 313,119 344,126 374,132 403,138 429,142 453,145 473,147 489,149 500,150 489,143 479,135 469,127 460,119 451,111 442,103 435,94 428,85 428,85"/>
<polygon class="pen1 brush2" points="84,11 94,24 107,37 121,49 136,60 153,71 171,81 191,90 211,98 231,106 253,113 274,119 296,125 317,130 339,135 360,139 380,143 374,144 366,146 356,148 346,151 334,155 322,159 309,164 296,170 283,178 269,186 256,195 243,206 231,218 220,231 210,246 201,263 172,246 146,229 123,212 103,195 85,179 70,163 58,148 49,132 42,117 38,102 36,88 37,74 41,60 47,47 56,34 67,21 71,18 74,15 78,13 84,11 84,11"/>
<polygon class="pen1 brush2" points="209,267 223,275 239,283 255,291 271,299 289,308 307,316 325,324 344,332 360,339 376,345 391,351 407,357 422,363 437,368 452,373 466,378 474,361 484,346 496,332 510,318 526,306 543,295 560,285 578,276 596,267 613,260 630,254 645,249 659,244 671,241 681,239 688,237 677,233 666,229 654,225 643,221 632,216 622,212 611,207 600,202 589,197 579,192 568,186 558,181 547,175 537,169 527,163 517,157 513,157 506,156 495,156 482,155 465,154 447,152 426,149 404,146 400,147 393,148 384,150 374,152 362,156 348,160 334,165 319,171 304,178 288,186 273,196 258,207 244,220 231,234 219,250 209,267 209,267"/>
<polygon class="pen1 brush2" points="476,379 484,363 495,348 509,334 524,321 540,309 558,298 576,289 594,280 613,272 630,265 647,259 663,254 677,250 689,247 698,245 705,244 718,248 731,253 745,257 758,261 772,265 786,269 799,272 812,276 824,279 836,282 848,285 858,288 868,291 877,293 885,295 891,297 886,339 886,370 887,391 888,398 878,401 865,404 850,407 833,410 813,413 792,415 768,416 743,417 715,417 686,416 655,413 622,410 588,405 552,398 515,389 476,379"/>
<polygon class="pen1 brush0" points="980,115 987,113 993,109 997,103 999,96 997,89 993,83 987,79 980,78 974,79 969,83 965,89 963,96 965,103 969,109 974,113 980,115"/>
<polygon class="pen1 brush0" points="1057,115 1064,113 1069,109 1073,103 1074,96 1073,89 1069,83 1064,79 1057,78 1050,79 1045,83 1041,89 1040,96 1041,103 1045,109 1050,113 1057,115"/>
</g>
</svg>
