<?xml version="1.0" encoding="UTF-8" standalone="no"?>
<!DOCTYPE svg PUBLIC "-//W3C//DTD SVG 1.0//EN" "http://www.w3.org/TR/2001/REC-SVG-20010904/DTD/svg10.dtd">
<svg xmlns="http://www.w3.org/2000/svg" xmlns:xlink="http://www.w3.org/1999/xlink" fill-rule="evenodd" height="1.055in" preserveAspectRatio="none" stroke-linecap="round" viewBox="0 0 1972 1055" width="1.972in">
<style type="text/css">
.brush0 { fill: rgb(255,255,255); }
.pen0 { stroke: rgb(0,0,0); stroke-width: 1; stroke-linejoin: round; }
.brush1 { fill: none; }
.pen1 { stroke: none; }
.brush2 { fill: rgb(0,0,0); }
</style>
<g>
<polygon class="pen1 brush2" points="885,170 886,169 887,165 890,158 894,150 899,140 906,129 914,116 923,103 933,89 945,75 959,61 974,47 991,34 1009,21 1029,10 1050,0 1048,6 1045,21 1042,38 1039,52 1023,66 1009,81 995,96 982,112 969,130 957,148 946,168 936,190 930,188 923,185 917,183 911,180 904,178 898,175 891,173 885,170 885,170"/>
<polygon class="pen1 brush2" points="1039,66 1026,79 1014,93 1001,108 990,124 978,140 967,157 956,175 946,194 952,197 959,200 965,203 972,206 978,209 984,212 991,214 997,217 1003,205 1010,194 1017,183 1024,172 1031,162 1038,152 1046,142 1054,133 1045,115 1040,98 1038,82 1039,66 1039,66"/>
<polygon class="pen1 brush2" points="1060,143 1053,152 1046,161 1039,171 1032,181 1026,191 1019,201 1013,212 1007,223 1013,226 1020,229 1026,232 1033,235 1039,238 1045,241 1052,244 1058,248 1063,239 1068,230 1074,221 1079,213 1085,204 1091,196 1096,188 1102,180 1096,176 1091,172 1086,168 1080,163 1075,158 1070,153 1065,148 1060,143 1060,143"/>
<polygon class="pen1 brush2" points="1111,187 1116,191 1122,195 1128,199 1133,204 1139,208 1145,212 1152,217 1158,221 1153,228 1148,235 1143,242 1138,249 1133,256 1128,264 1123,271 1118,279 1112,276 1106,273 1100,269 1093,266 1087,262 1081,259 1074,255 1068,252 1073,243 1078,235 1084,226 1089,218 1095,210 1100,202 1106,195 1111,187 1111,187"/>
<polygon class="pen1 brush2" points="1166,228 1161,235 1157,241 1152,248 1147,255 1143,263 1138,270 1133,278 1128,285 1134,289 1141,292 1147,296 1153,300 1160,304 1166,307 1172,311 1178,315 1182,308 1186,301 1190,294 1194,287 1198,281 1203,274 1207,268 1212,262 1206,258 1200,254 1195,250 1189,245 1183,241 1178,237 1172,232 1166,228 1166,228"/>
<polygon class="pen1 brush2" points="1222,269 1226,272 1230,276 1235,279 1239,283 1243,286 1248,290 1252,293 1256,296 1252,302 1249,308 1245,314 1241,321 1237,327 1234,333 1230,340 1226,346 1221,343 1216,340 1211,337 1206,333 1201,330 1196,327 1191,324 1186,321 1190,314 1195,307 1199,300 1204,294 1208,287 1213,281 1217,275 1222,269 1222,269"/>
<polygon class="pen1 brush2" points="1266,305 1262,310 1259,316 1255,322 1251,327 1247,333 1244,339 1240,346 1236,352 1243,356 1249,360 1256,365 1263,369 1269,357 1276,346 1283,336 1290,325 1284,320 1278,315 1272,310 1266,305 1266,305"/>
<polygon class="pen1 brush2" points="1300,332 1304,335 1308,338 1312,341 1316,345 1320,348 1324,352 1329,355 1333,359 1326,369 1319,379 1313,390 1307,400 1303,397 1298,394 1294,391 1289,388 1285,385 1280,382 1276,379 1271,376 1278,364 1285,353 1293,343 1300,332 1300,332"/>
<polygon class="pen1 brush2" points="1341,366 1335,376 1329,386 1322,397 1316,407 1320,411 1325,414 1329,418 1334,421 1338,425 1342,428 1347,431 1351,434 1356,424 1361,413 1367,403 1374,393 1370,389 1365,386 1361,382 1357,379 1353,376 1349,373 1345,369 1341,366 1341,366"/>
<polygon class="pen1 brush2" points="1382,400 1389,406 1395,412 1401,418 1408,423 1403,433 1398,442 1393,452 1388,463 1381,458 1374,452 1368,446 1361,441 1366,431 1372,420 1377,410 1382,400 1382,400"/>
<polygon class="pen1 brush2" points="1418,433 1413,442 1407,451 1402,460 1396,470 1403,475 1409,480 1415,485 1421,490 1425,480 1430,471 1434,462 1439,454 1434,449 1429,443 1423,438 1418,433 1418,433"/>
<polygon class="pen1 brush2" points="1449,461 1454,467 1460,473 1465,479 1470,484 1466,492 1462,500 1457,509 1453,518 1448,513 1442,508 1437,503 1431,498 1435,488 1439,479 1444,470 1449,461 1449,461"/>
<polygon class="pen1 brush2" points="1479,492 1475,500 1471,508 1466,517 1462,525 1473,534 1480,542 1485,546 1486,548 1497,539 1505,533 1509,529 1512,527 1513,527 1514,527 1513,528 1513,528 1509,524 1505,519 1501,515 1497,510 1493,506 1488,501 1484,497 1479,492"/>
<polygon class="pen1 brush2" points="1043,998 1044,997 1048,996 1055,993 1064,990 1074,986 1086,980 1100,974 1115,967 1185,1031 1180,1034 1176,1037 1171,1040 1167,1043 1163,1046 1159,1049 1155,1052 1151,1055 1149,1054 1142,1049 1132,1043 1119,1035 1103,1027 1084,1017 1064,1007 1043,998 1043,998"/>
<polygon class="pen1 brush2" points="1124,963 1192,1025 1196,1022 1200,1019 1203,1016 1207,1013 1211,1010 1216,1007 1220,1004 1225,1001 1162,944 1157,947 1152,949 1147,952 1142,954 1137,956 1133,958 1128,961 1124,963 1124,963"/>
<polygon class="pen1 brush2" points="1171,940 1230,995 1235,992 1239,989 1244,985 1248,982 1253,978 1257,974 1262,971 1266,967 1213,920 1208,923 1203,925 1197,928 1192,930 1187,933 1182,935 1176,938 1171,940 1171,940"/>
<polygon class="pen1 brush2" points="1222,917 1227,914 1231,912 1236,909 1241,906 1245,904 1250,901 1255,899 1260,896 1304,937 1300,940 1296,944 1292,947 1289,950 1285,953 1281,956 1277,960 1273,963 1222,917 1222,917"/>
<polygon class="pen1 brush2" points="1266,893 1311,934 1315,930 1320,927 1324,923 1328,920 1332,917 1336,914 1340,910 1344,907 1304,872 1300,875 1295,877 1291,880 1286,882 1281,885 1276,888 1271,890 1266,893 1266,893"/>
<polygon class="pen1 brush2" points="1311,867 1315,864 1320,862 1324,859 1328,857 1332,854 1335,852 1339,850 1343,848 1378,880 1372,885 1365,891 1358,897 1351,903 1311,867 1311,867"/>
<polygon class="pen1 brush2" points="1348,842 1385,876 1394,869 1402,862 1409,856 1415,851 1419,847 1423,844 1425,843 1426,842 1379,819 1376,822 1373,825 1369,828 1365,830 1361,833 1357,836 1353,839 1348,842"/>
<polygon class="pen1 brush2" points="195,858 189,857 172,856 149,853 122,848 95,842 71,834 54,824 46,811 45,798 46,787 49,777 53,769 59,763 65,757 73,753 80,750 78,751 71,754 61,757 50,759 38,759 27,755 18,746 12,730 8,710 5,692 4,676 6,661 7,655 10,650 13,644 16,638 21,632 26,626 33,619 40,612 58,593 77,570 97,543 115,511 132,476 146,438 158,396 165,352 169,330 177,310 187,292 200,275 215,259 232,245 251,233 273,222 295,212 320,203 345,196 372,189 399,184 428,179 457,176 486,173 515,171 545,170 574,170 603,170 631,170 659,171 685,173 711,175 735,177 758,179 779,181 799,184 816,187 831,189 844,192 854,194 905,210 956,229 1006,252 1056,277 1105,303 1152,331 1198,360 1241,389 1282,418 1320,446 1355,472 1386,496 1413,518 1436,537 1455,551 1468,562 1478,570 1488,576 1498,580 1507,583 1517,585 1526,585 1536,584 1546,581 1556,577 1567,572 1578,565 1590,557 1602,547 1616,537 1630,524 1645,511 1661,496 1679,478 1698,460 1717,440 1738,420 1759,399 1780,379 1802,358 1824,339 1846,320 1867,303 1889,288 1910,275 1930,264 1950,256 1969,251 1969,253 1967,257 1964,265 1960,276 1955,289 1947,306 1938,326 1927,348 1914,374 1899,402 1881,434 1861,468 1837,505 1811,544 1782,587 1750,632 1752,634 1757,638 1765,646 1776,656 1789,668 1803,684 1820,701 1837,720 1855,742 1874,765 1892,789 1910,815 1928,842 1944,871 1959,900 1972,930 1968,928 1958,921 1942,910 1921,896 1896,880 1868,861 1837,841 1804,820 1771,799 1738,778 1706,759 1676,741 1649,725 1625,712 1605,702 1591,696 1571,689 1554,683 1540,678 1527,676 1514,678 1500,683 1484,692 1463,707 1459,711 1453,716 1446,723 1438,730 1428,738 1417,748 1406,758 1392,769 1378,780 1363,792 1346,805 1329,818 1310,831 1290,844 1270,858 1248,871 1225,885 1201,898 1176,911 1150,924 1123,936 1095,948 1066,959 1036,969 1005,979 974,988 941,995 908,1002 874,1008 839,1012 803,1015 766,1017 734,1017 702,1016 669,1014 635,1011 601,1006 567,1001 532,993 496,985 460,975 424,963 387,950 349,935 311,918 273,900 234,880 195,858"/>
<polygon class="pen1 brush0" points="310,390 317,389 323,387 329,385 334,380 338,376 341,370 343,363 344,356 343,349 341,342 338,336 334,331 329,327 323,324 317,323 310,322 303,323 296,324 290,327 285,331 280,336 277,342 275,349 274,356 275,363 277,370 280,376 285,380 290,385 296,387 303,389 310,390"/>
<polygon class="pen1 brush0" points="473,683 486,675 499,667 511,660 524,653 536,647 547,641 559,635 571,631 582,627 594,623 605,621 617,619 629,617 641,617 653,618 666,619 665,629 652,629 639,629 627,630 615,631 603,633 592,636 580,639 569,642 558,646 547,651 535,656 524,661 512,667 500,673 488,680 476,687 473,683"/>
<polygon class="pen1 brush0" points="460,667 472,654 482,642 492,631 501,621 509,613 517,605 525,597 533,591 542,584 552,578 563,572 576,566 590,560 606,553 624,547 645,539 646,555 629,560 613,565 598,570 585,576 572,582 561,588 550,594 540,601 530,608 521,615 511,623 502,632 493,640 483,650 473,660 463,670 460,667"/>
<polygon class="pen1 brush0" points="441,656 451,639 459,623 467,608 474,595 481,583 488,571 495,561 503,551 511,542 521,533 531,524 543,516 556,507 571,499 588,489 608,480 614,494 594,504 577,513 562,522 549,531 537,539 526,548 517,556 509,565 501,574 493,584 486,594 479,605 472,616 464,629 455,642 445,657 441,656"/>
<polygon class="pen1 brush0" points="436,636 444,613 451,590 459,568 468,544 481,519 498,492 521,461 551,427 566,440 540,467 518,490 502,511 488,532 476,553 465,576 453,604 439,636 436,636"/>
</g>
</svg>
