<?xml version="1.0" encoding="UTF-8" standalone="no"?>
<!DOCTYPE svg PUBLIC "-//W3C//DTD SVG 1.0//EN" "http://www.w3.org/TR/2001/REC-SVG-20010904/DTD/svg10.dtd">
<svg xmlns="http://www.w3.org/2000/svg" xmlns:xlink="http://www.w3.org/1999/xlink" fill-rule="evenodd" height="1.994in" preserveAspectRatio="none" stroke-linecap="round" viewBox="0 0 1263 1994" width="1.263in">
<style type="text/css">
.brush0 { fill: rgb(255,255,255); }
.pen0 { stroke: rgb(0,0,0); stroke-width: 1; stroke-linejoin: round; }
.brush1 { fill: none; }
.pen1 { stroke: none; }
.brush2 { fill: rgb(0,0,0); }
</style>
<g>
<polygon class="pen1 brush2" points="534,1975 536,1975 534,1973 547,1970 557,1967 570,1962 586,1956 604,1948 624,1939 645,1927 669,1914 694,1899 720,1882 748,1862 776,1840 805,1816 835,1789 865,1759 896,1727 926,1691 956,1649 980,1603 999,1553 1014,1500 1025,1446 1032,1390 1036,1333 1037,1277 1035,1222 1031,1169 1026,1118 1019,1071 1011,1028 1003,989 994,956 986,929 979,906 972,885 965,866 959,848 952,831 945,815 937,798 929,781 919,764 908,745 896,725 882,703 865,679 847,652 826,622 803,589 763,538 726,491 691,450 659,413 629,381 601,353 576,328 552,307 530,290 509,275 490,263 472,254 455,247 439,242 423,238 408,236 407,236 402,236 395,236 386,236 375,237 363,237 349,237 334,237 318,237 301,236 285,236 268,235 252,234 237,233 222,232 209,230 191,227 175,225 160,222 147,219 136,216 126,212 118,208 112,203 51,214 17,247 13,243 43,213 0,206 0,200 48,209 108,196 105,186 107,176 112,168 119,160 125,156 132,152 140,149 147,146 153,145 158,143 161,142 162,142 163,142 167,140 175,136 186,130 200,124 217,116 237,107 259,97 283,87 310,77 338,67 368,58 400,49 432,40 466,33 501,27 508,20 516,15 526,12 535,12 544,15 552,22 559,32 563,48 564,48 564,48 564,49 565,50 570,46 578,41 587,38 596,36 605,37 613,44 619,56 622,75 623,75 624,75 625,75 625,75 630,72 638,68 647,64 656,63 665,65 673,72 679,84 682,104 682,105 683,105 684,105 685,105 691,102 699,98 709,95 720,95 730,98 739,107 746,122 750,145 751,145 752,145 753,146 753,146 760,143 769,141 779,140 789,141 799,146 807,154 812,169 814,189 815,190 816,190 817,190 817,190 824,187 832,184 842,182 852,183 861,187 869,197 873,212 874,236 875,237 876,238 877,239 878,240 886,236 895,233 906,232 916,233 925,238 931,248 933,265 930,290 931,291 932,291 932,291 932,291 939,288 949,285 959,283 969,284 978,289 983,300 984,318 980,344 980,344 980,344 981,345 982,345 988,344 996,342 1006,342 1015,344 1023,350 1027,360 1028,376 1023,398 1023,399 1024,399 1024,399 1024,399 1030,399 1038,398 1047,400 1056,403 1063,410 1068,420 1068,436 1063,457 1064,459 1069,460 1077,462 1087,465 1095,470 1102,478 1106,489 1105,503 1098,521 1099,522 1100,523 1101,524 1101,525 1107,527 1115,529 1124,534 1131,540 1137,548 1139,559 1137,572 1129,588 1129,588 1130,590 1131,591 1131,592 1137,593 1145,594 1152,598 1160,604 1164,612 1166,623 1163,638 1155,656 1155,656 1155,657 1155,658 1155,659 1161,663 1169,669 1178,678 1186,688 1192,699 1193,711 1189,724 1178,737 1179,737 1183,740 1189,744 1196,750 1202,759 1206,769 1207,781 1203,794 1193,809 1193,810 1193,812 1194,813 1195,815 1200,818 1206,823 1213,830 1218,839 1221,849 1221,861 1216,874 1206,888 1206,890 1206,893 1206,895 1206,898 1212,903 1218,909 1224,916 1229,925 1231,935 1230,946 1225,958 1215,971 1215,973 1215,975 1215,977 1215,979 1221,983 1227,988 1232,995 1236,1004 1236,1004 1235,1012 1233,1021 1227,1030 1217,1040 1217,1041 1217,1042 1217,1043 1217,1044 1222,1049 1229,1056 1234,1065 1239,1075 1240,1087 1238,1099 1231,1110 1217,1122 1217,1124 1217,1125 1217,1126 1217,1128 1221,1132 1226,1139 1230,1147 1233,1156 1234,1166 1232,1177 1225,1187 1213,1197 1213,1199 1213,1200 1213,1201 1213,1203 1218,1208 1223,1215 1228,1223 1231,1232 1232,1243 1229,1253 1220,1264 1206,1274 1206,1275 1206,1276 1205,1277 1205,1277 1209,1281 1214,1288 1219,1296 1222,1306 1222,1318 1218,1330 1208,1342 1192,1354 1192,1355 1192,1356 1192,1357 1192,1358 1196,1364 1201,1372 1206,1382 1209,1394 1209,1406 1203,1417 1192,1428 1172,1437 1172,1438 1172,1439 1172,1440 1172,1440 1175,1447 1179,1456 1183,1468 1184,1480 1182,1492 1176,1504 1165,1513 1146,1520 1145,1521 1145,1522 1145,1523 1145,1524 1148,1530 1151,1538 1153,1547 1154,1557 1151,1567 1145,1577 1134,1587 1117,1595 1116,1596 1115,1598 1115,1600 1114,1602 1116,1609 1117,1619 1118,1630 1117,1641 1113,1652 1105,1662 1092,1671 1074,1676 1074,1677 1073,1678 1071,1680 1071,1681 1072,1688 1073,1696 1073,1705 1071,1714 1067,1723 1060,1730 1049,1736 1033,1740 1031,1742 1029,1744 1027,1746 1026,1749 1026,1757 1025,1767 1023,1777 1019,1787 1012,1795 1003,1802 990,1807 974,1808 973,1810 972,1811 971,1812 970,1813 970,1819 968,1826 965,1835 961,1844 953,1852 942,1859 928,1864 909,1867 906,1869 904,1871 901,1872 899,1874 897,1881 893,1888 888,1897 881,1905 872,1912 860,1917 847,1919 830,1918 829,1918 828,1918 828,1918 828,1919 824,1923 818,1929 810,1937 801,1944 790,1950 777,1954 764,1954 750,1950 750,1950 748,1952 744,1957 738,1962 729,1967 717,1972 703,1974 685,1974 665,1970 664,1970 663,1970 662,1970 661,1970 657,1972 651,1975 643,1978 635,1981 626,1982 617,1982 607,1980 598,1975 597,1976 593,1978 587,1980 579,1982 570,1983 560,1983 549,1980 537,1975 536,1975 536,1975 535,1975 534,1975 534,1975"/>
<polygon class="pen1 brush2" points="953,906 949,904 937,898 921,890 901,882 879,875 859,871 841,872 828,879 822,890 822,902 826,915 832,929 840,943 848,957 854,969 857,981 857,997 855,1003 849,1004 840,1007 830,1013 823,1019 822,1027 828,1035 835,1039 844,1041 855,1042 866,1041 877,1039 887,1036 895,1032 899,1028 905,1016 910,999 912,981 909,967 914,968 922,972 934,978 946,986 960,994 972,1002 982,1010 989,1017 989,1015 988,1009 986,999 983,986 979,970 973,951 964,929 953,906 953,906"/>
<polygon class="pen1 brush2" points="807,1014 726,967 753,1004 709,991 746,1018 706,1024 746,1035 710,1050 749,1054 726,1078 817,1050 815,1047 811,1040 807,1028 807,1014 807,1014"/>
<polygon class="pen1 brush2" points="595,376 591,378 582,382 569,389 554,397 540,406 528,416 521,425 520,433 527,439 540,443 556,444 575,443 593,441 611,438 625,434 635,430 634,428 630,424 626,417 620,409 613,401 606,392 600,383 595,376 595,376"/>
<polygon class="pen1 brush2" points="501,422 422,372 447,410 402,399 440,426 401,430 440,443 405,457 443,461 422,486 510,457 508,454 505,447 502,436 501,422"/>
<polygon class="pen1 brush0" points="317,156 325,154 332,150 336,143 338,136 336,128 332,121 325,117 317,115 310,117 303,121 299,128 297,136 299,143 303,150 310,154 317,156"/>
</g>
</svg>
