<?xml version="1.0" encoding="UTF-8" standalone="no"?>
<!DOCTYPE svg PUBLIC "-//W3C//DTD SVG 1.0//EN" "http://www.w3.org/TR/2001/REC-SVG-20010904/DTD/svg10.dtd">
<svg xmlns="http://www.w3.org/2000/svg" xmlns:xlink="http://www.w3.org/1999/xlink" fill-rule="evenodd" height="1.027in" preserveAspectRatio="none" stroke-linecap="round" viewBox="0 0 1980 1027" width="1.98in">
<style type="text/css">
.brush0 { fill: rgb(255,255,255); }
.pen0 { stroke: rgb(0,0,0); stroke-width: 1; stroke-linejoin: round; }
.brush1 { fill: none; }
.pen1 { stroke: none; }
.brush2 { fill: rgb(0,0,0); }
</style>
<g>
<polygon class="pen1 brush2" points="970,575 970,583 967,592 961,601 952,611 942,621 929,631 914,642 897,653 878,663 858,673 836,683 813,692 788,700 762,708 736,715 709,720 681,725 652,728 624,730 595,730 566,728 537,724 508,719 480,711 452,701 425,689 398,674 373,656 349,636 326,613 304,586 284,557 279,550 270,538 260,522 250,501 242,478 239,452 242,425 253,396 266,370 272,349 273,331 269,316 260,304 248,292 233,281 216,270 210,267 195,259 174,250 150,239 124,228 99,220 77,214 61,213 52,212 42,208 32,202 23,193 15,183 9,171 6,158 7,144 9,137 11,131 15,124 20,117 25,111 32,104 41,98 50,92 67,83 86,74 106,65 128,57 150,50 172,43 195,37 217,32 239,28 261,25 282,23 302,22 320,22 337,23 351,26 364,30 379,37 403,50 434,68 471,90 514,115 560,143 609,173 659,205 710,237 759,269 807,300 851,330 890,358 924,383 950,405 969,422 959,455 955,498 958,540 970,575 970,575"/>
<polygon class="pen1 brush2" points="1016,575 1017,583 1021,592 1027,601 1036,611 1047,622 1061,632 1076,642 1093,653 1112,663 1132,673 1154,682 1177,691 1202,699 1227,707 1254,713 1281,718 1308,723 1336,725 1365,727 1394,726 1422,724 1451,721 1479,715 1507,707 1535,697 1562,684 1588,669 1613,652 1637,632 1660,608 1682,582 1702,553 1707,546 1716,534 1726,517 1736,497 1743,474 1746,449 1744,422 1733,394 1720,368 1714,346 1713,328 1717,313 1726,300 1738,289 1752,278 1769,267 1775,264 1790,256 1811,247 1836,236 1861,225 1886,216 1907,211 1923,209 1932,208 1941,205 1950,199 1959,192 1966,183 1973,173 1977,161 1979,149 1979,141 1977,134 1974,126 1970,118 1963,111 1956,103 1947,96 1936,88 1919,79 1900,70 1879,61 1858,54 1836,46 1814,40 1791,34 1769,29 1746,24 1725,21 1704,19 1684,18 1666,18 1649,20 1634,23 1622,27 1606,35 1582,48 1551,66 1513,88 1470,114 1424,142 1375,172 1324,204 1274,237 1224,269 1177,301 1133,331 1094,359 1060,384 1034,405 1016,422 1027,456 1031,498 1027,540 1016,575"/>
<polygon class="pen1 brush0" points="1044,470 1062,459 1084,447 1108,434 1134,421 1162,407 1191,394 1221,381 1251,368 1280,356 1308,345 1335,336 1360,328 1383,321 1402,317 1418,315 1430,315 1446,320 1453,326 1455,333 1451,341 1442,348 1431,354 1418,357 1405,358 1397,358 1389,359 1378,359 1367,360 1355,362 1343,363 1330,365 1317,367 1304,369 1291,371 1278,373 1267,376 1256,378 1246,381 1237,383 1230,386 1222,389 1212,394 1200,399 1187,405 1172,412 1156,419 1140,426 1124,434 1109,441 1094,447 1080,454 1068,459 1058,464 1051,467 1046,469 1044,470"/>
<polygon class="pen1 brush0" points="1050,601 1075,593 1104,584 1137,575 1172,567 1209,558 1248,550 1287,542 1326,535 1365,529 1402,524 1437,520 1469,517 1498,515 1523,515 1543,517 1557,520 1574,529 1581,539 1581,548 1573,556 1561,562 1546,566 1529,567 1513,565 1504,563 1494,561 1482,559 1468,557 1454,555 1438,554 1422,552 1406,551 1390,550 1374,549 1358,549 1344,549 1330,549 1317,549 1306,550 1297,551 1287,553 1273,555 1257,558 1239,562 1220,566 1199,570 1178,574 1157,579 1136,583 1116,587 1098,591 1082,594 1069,597 1059,599 1052,601 1050,601"/>
<polygon class="pen1 brush0" points="1041,540 1069,528 1101,516 1137,503 1176,490 1218,477 1261,464 1304,452 1348,441 1391,430 1433,421 1472,413 1508,406 1541,402 1569,399 1591,399 1608,402 1628,411 1638,422 1638,432 1631,442 1618,450 1601,456 1583,458 1564,457 1554,456 1541,454 1527,453 1511,453 1495,452 1477,452 1459,452 1441,452 1422,452 1404,453 1386,453 1370,455 1354,456 1340,458 1327,460 1317,462 1306,465 1291,469 1273,473 1253,479 1231,485 1208,492 1184,498 1160,505 1137,512 1115,518 1095,524 1077,529 1062,534 1051,537 1044,539 1041,540"/>
<polygon class="pen1 brush0" points="1807,159 1794,167 1781,175 1770,183 1760,189 1752,195 1747,200 1743,203 1743,205 1745,205 1749,203 1756,201 1765,197 1776,192 1787,185 1800,179 1814,171 1827,163 1840,155 1851,148 1861,141 1869,135 1874,130 1878,127 1878,125 1876,125 1872,126 1865,129 1856,133 1845,138 1834,144 1821,151 1807,159"/>
<polygon class="pen1 brush0" points="1710,128 1697,136 1684,144 1673,151 1663,158 1655,163 1650,168 1646,171 1645,173 1647,173 1652,172 1659,169 1668,165 1678,160 1690,154 1702,147 1716,139 1730,131 1743,124 1754,117 1764,110 1772,104 1777,100 1781,96 1781,94 1779,94 1775,95 1768,98 1759,102 1748,107 1737,113 1724,120 1710,128"/>
<polygon class="pen1 brush0" points="1631,99 1618,107 1605,115 1594,123 1584,129 1576,135 1570,140 1566,143 1565,145 1567,145 1572,144 1579,141 1588,137 1598,132 1610,126 1623,119 1636,111 1650,103 1663,95 1674,87 1684,80 1692,75 1698,70 1701,67 1702,65 1700,65 1695,67 1688,69 1679,73 1669,78 1657,85 1645,91 1631,99"/>
<polygon class="pen1 brush0" points="943,473 925,462 903,450 879,438 853,424 825,411 796,398 766,385 737,372 707,360 679,349 652,339 627,331 604,325 585,320 569,318 557,318 541,323 533,329 532,337 536,344 544,351 555,357 568,360 581,361 589,361 598,362 608,362 619,364 631,365 644,366 657,368 670,370 683,372 696,374 709,377 720,379 731,382 741,384 750,387 757,389 765,392 775,397 787,402 800,408 815,415 831,422 847,429 863,436 878,443 893,450 907,456 919,462 929,466 936,470 941,472 943,473"/>
<polygon class="pen1 brush0" points="936,605 911,597 882,588 850,579 815,570 778,562 739,553 700,546 661,539 623,532 586,527 551,523 519,520 490,518 466,518 446,520 432,524 415,533 407,542 407,551 414,559 426,565 441,569 457,570 473,568 482,566 493,564 505,562 519,560 534,558 549,557 565,555 581,554 597,553 613,552 629,552 644,552 657,552 670,552 681,553 690,554 700,556 714,558 730,561 748,565 767,569 788,573 809,578 830,582 851,587 870,591 888,595 904,598 917,601 927,603 934,605 936,605"/>
<polygon class="pen1 brush0" points="946,543 919,531 886,519 851,506 812,493 770,480 727,467 684,455 640,443 597,432 555,423 516,415 480,408 447,404 419,402 396,402 379,405 359,414 349,425 349,435 356,444 369,453 386,458 404,461 423,460 433,459 446,457 460,456 476,456 493,455 510,455 529,455 547,455 566,455 584,456 602,457 619,458 634,459 649,461 661,463 672,465 683,468 698,472 716,476 736,482 758,488 781,495 804,501 828,508 851,515 872,521 893,527 910,532 925,537 936,540 943,542 946,543"/>
<polygon class="pen1 brush0" points="179,162 193,170 205,178 217,186 227,192 234,198 240,202 243,205 244,207 242,207 238,206 231,204 222,200 211,195 200,188 187,181 173,173 160,165 147,158 136,151 127,144 119,138 113,134 109,130 108,128 110,128 115,129 122,132 131,136 141,141 153,147 165,154 179,162"/>
<polygon class="pen1 brush0" points="277,132 290,140 303,147 314,154 324,161 332,166 337,171 341,174 341,176 339,176 335,175 328,173 319,169 308,164 297,157 284,150 270,142 257,134 244,127 233,120 223,113 215,108 210,103 206,100 206,98 208,97 212,98 219,101 228,105 239,110 250,116 263,124 277,132"/>
<polygon class="pen1 brush0" points="358,102 371,110 384,118 395,126 404,132 412,138 418,143 421,146 422,148 420,148 416,147 409,144 400,140 389,135 378,129 365,122 351,114 338,106 325,98 314,90 304,83 296,78 290,73 287,70 286,68 288,68 292,69 299,72 308,76 319,81 331,87 344,94 358,102"/>
<polygon class="pen1 brush2" points="993,595 1002,612 1010,658 1015,727 1017,811 1015,895 1010,964 1002,1010 993,1027 984,1010 977,964 972,895 970,811 972,727 977,658 984,612 993,595 993,595"/>
<polygon class="pen1 brush2" points="1006,416 1014,429 1020,449 1024,473 1026,499 1025,517 1023,534 1020,549 1016,563 1011,574 1005,583 999,588 993,590 987,588 981,583 976,574 971,563 967,549 964,534 963,517 962,499 963,472 968,448 974,429 982,415 985,416 988,417 991,418 994,418 997,418 1000,418 1003,417 1006,416 1006,416"/>
<polygon class="pen1 brush2" points="1013,344 1202,26 1209,27 1020,348 1026,354 1030,360 1032,368 1033,376 1032,383 1030,390 1027,396 1022,402 1016,407 1010,410 1003,412 996,413 989,412 982,410 976,407 970,402 965,396 962,390 960,383 959,376 959,368 961,361 964,355 969,349 786,27 794,26 976,345 980,343 985,341 989,340 995,339 1000,339 1004,340 1009,342 1013,344"/>
</g>
</svg>
