<?xml version="1.0" encoding="UTF-8" standalone="no"?>
<!DOCTYPE svg PUBLIC "-//W3C//DTD SVG 1.0//EN" "http://www.w3.org/TR/2001/REC-SVG-20010904/DTD/svg10.dtd">
<svg xmlns="http://www.w3.org/2000/svg" xmlns:xlink="http://www.w3.org/1999/xlink" fill-rule="evenodd" height="1.896in" preserveAspectRatio="none" stroke-linecap="round" viewBox="0 0 1976 1896" width="1.976in">
<style type="text/css">
.brush0 { fill: rgb(255,255,255); }
.pen0 { stroke: rgb(0,0,0); stroke-width: 1; stroke-linejoin: round; }
.brush1 { fill: none; }
.pen1 { stroke: none; }
.brush2 { fill: rgb(0,0,0); }
</style>
<g>
<polygon class="pen1 brush2" points="874,1310 876,1311 883,1312 892,1315 904,1317 918,1320 933,1323 948,1324 963,1325 1013,1408 976,1708 1074,1799 955,1771 726,1896 824,1781 604,1796 796,1730 652,1678 919,1691 948,1415 874,1310 874,1310"/>
<polygon class="pen1 brush2" points="583,0 562,1 541,4 518,8 495,15 471,22 448,31 424,41 400,52 376,63 353,75 331,88 309,101 288,114 268,127 249,140 232,152 217,171 207,200 201,240 199,288 201,343 208,404 219,470 234,538 252,609 275,679 302,749 332,816 367,880 405,938 447,991 493,1035 522,1059 550,1081 577,1102 604,1121 631,1139 658,1156 684,1172 710,1187 736,1200 762,1213 788,1224 813,1235 839,1245 865,1254 892,1262 918,1270 945,1277 972,1284 1000,1289 1028,1294 1057,1299 1088,1302 1119,1306 1151,1308 1184,1310 1218,1312 1254,1313 1291,1313 1329,1313 1369,1313 1410,1312 1453,1311 1467,1315 1484,1328 1506,1347 1530,1373 1556,1404 1584,1438 1613,1475 1641,1513 1669,1551 1695,1588 1719,1623 1741,1654 1759,1680 1772,1700 1781,1713 1784,1718 1803,1722 1822,1724 1840,1723 1857,1720 1874,1715 1890,1708 1905,1700 1919,1692 1931,1683 1942,1674 1952,1666 1960,1658 1967,1652 1972,1647 1975,1643 1976,1642 1962,1623 1942,1597 1917,1566 1888,1530 1855,1491 1821,1450 1785,1408 1748,1365 1711,1324 1676,1284 1643,1248 1613,1215 1587,1188 1565,1167 1549,1153 1540,1148 1444,1146 1355,1142 1273,1135 1196,1125 1126,1112 1061,1098 1001,1081 947,1063 898,1043 854,1022 814,1000 778,976 747,952 719,927 695,902 674,876 656,851 642,826 629,801 619,777 612,753 606,731 602,710 599,690 598,672 597,655 597,641 598,628 599,618 600,611 601,607 601,605 608,658 619,706 635,751 655,793 678,831 705,866 735,898 767,927 802,953 839,977 878,998 918,1017 959,1033 1001,1047 1044,1059 1087,1070 1129,1079 1171,1086 1213,1091 1253,1096 1292,1099 1329,1101 1365,1103 1397,1104 1427,1104 1455,1103 1478,1102 1499,1102 1515,1101 1527,1100 1534,1099 1537,1099 1524,1050 1508,1002 1490,956 1470,911 1448,868 1425,827 1399,787 1372,748 1343,711 1314,676 1283,642 1251,609 1218,578 1185,548 1151,519 1116,492 1081,466 1046,442 1011,418 976,396 941,376 907,356 873,338 840,321 807,306 776,291 745,278 716,266 688,255 662,245 637,237 614,229 575,214 545,197 524,179 510,161 502,142 500,123 503,104 510,86 519,68 531,52 543,38 555,25 566,15 575,7 581,2 583,0 583,0"/>
<polygon class="pen1 brush2" points="178,165 171,195 166,237 164,282 168,321 23,339 111,264 0,196 178,165"/>
<polygon class="pen1 brush0" points="334,281 341,280 347,278 353,276 358,271 362,267 365,261 367,254 368,247 367,240 365,234 362,228 358,223 353,219 347,216 341,214 334,213 327,214 321,216 315,219 310,223 306,228 303,234 301,240 300,247 301,254 303,261 306,267 310,271 315,276 321,278 327,280 334,281"/>
<polygon class="pen1 brush0" points="682,629 790,675 817,626 922,690 959,646 1087,709 976,683 942,731 837,680 799,719 682,629"/>
<polygon class="pen1 brush0" points="860,774 968,817 996,771 1101,832 1135,788 1266,852 1155,827 1120,875 1014,824 976,862 860,774"/>
<polygon class="pen1 brush0" points="1446,1004 1333,956 1294,994 1176,906 1284,950 1314,902 1402,973 1446,1004"/>
</g>
</svg>
