<?xml version="1.0" encoding="UTF-8" standalone="no"?>
<!DOCTYPE svg PUBLIC "-//W3C//DTD SVG 1.0//EN" "http://www.w3.org/TR/2001/REC-SVG-20010904/DTD/svg10.dtd">
<svg xmlns="http://www.w3.org/2000/svg" xmlns:xlink="http://www.w3.org/1999/xlink" fill-rule="evenodd" height="1.28in" preserveAspectRatio="none" stroke-linecap="round" viewBox="0 0 1979 1280" width="1.979in">
<style type="text/css">
.brush0 { fill: rgb(255,255,255); }
.pen0 { stroke: rgb(0,0,0); stroke-width: 1; stroke-linejoin: round; }
.brush1 { fill: none; }
.pen1 { stroke: none; }
.brush2 { fill: rgb(0,0,0); }
</style>
<g>
<polygon class="pen1 brush2" points="1777,345 1792,343 1808,344 1824,346 1840,351 1856,357 1871,364 1885,373 1898,384 1911,397 1923,413 1935,431 1946,451 1955,473 1962,497 1968,523 1972,550 1973,582 1972,615 1967,649 1958,685 1946,721 1929,759 1908,796 1881,834 1866,854 1851,873 1836,892 1820,910 1805,928 1790,945 1775,961 1760,976 1745,991 1730,1004 1715,1017 1701,1029 1687,1040 1673,1050 1659,1059 1646,1067 1621,1080 1598,1088 1577,1093 1557,1094 1541,1092 1526,1088 1515,1080 1506,1071 1501,1060 1499,1047 1502,1033 1508,1018 1518,1003 1533,987 1553,971 1578,956 1576,956 1572,955 1564,953 1554,950 1543,947 1529,942 1515,938 1500,932 1484,925 1468,918 1452,909 1438,900 1424,890 1411,879 1401,868 1392,855 1386,840 1382,823 1380,802 1381,779 1384,753 1389,726 1396,699 1405,670 1417,641 1432,612 1449,584 1469,557 1491,532 1516,508 1544,487 1574,469 1573,469 1568,470 1561,472 1552,475 1541,479 1529,484 1515,491 1500,499 1484,509 1468,521 1451,535 1435,551 1419,569 1404,590 1390,613 1377,639 1345,640 1313,640 1281,640 1248,639 1215,638 1182,636 1150,634 1117,630 1085,626 1052,621 1020,615 989,608 958,600 927,592 897,582 867,571 865,578 906,624 934,663 951,698 957,730 955,761 945,792 929,824 908,859 898,875 889,892 879,908 868,924 858,940 847,956 836,972 825,987 813,1001 802,1015 790,1028 778,1040 766,1051 754,1061 742,1070 729,1078 714,1086 699,1094 685,1100 672,1105 660,1110 649,1113 638,1116 627,1117 618,1118 609,1118 600,1118 592,1116 584,1114 577,1112 570,1109 564,1105 554,1095 549,1080 547,1063 548,1043 554,1021 563,999 575,977 591,956 618,924 641,894 659,864 673,835 684,807 691,780 694,754 694,729 691,704 684,681 675,659 663,638 648,617 631,598 611,580 590,562 566,546 540,531 513,517 484,504 454,492 422,481 390,471 356,462 322,455 287,448 252,443 216,439 180,435 144,433 108,433 73,433 57,424 43,414 31,404 22,393 14,382 10,371 9,359 12,347 27,311 44,279 62,250 81,225 99,203 115,184 129,168 139,155 140,151 142,141 147,126 153,108 161,87 172,67 186,48 202,31 215,23 230,17 246,13 263,13 283,17 304,26 326,39 351,58 352,57 355,56 359,53 365,49 373,45 382,40 392,35 404,30 417,25 431,20 446,15 462,11 479,7 496,4 514,2 533,1 544,1 555,2 567,3 579,4 590,6 602,9 614,13 626,17 637,22 649,28 661,34 673,42 685,50 696,59 708,70 719,81 720,80 724,78 730,75 738,71 749,67 762,61 776,55 793,49 812,43 833,37 856,31 881,25 907,20 935,16 965,12 996,10 1012,10 1028,9 1045,9 1062,10 1079,11 1097,12 1115,13 1133,15 1152,17 1171,20 1190,23 1209,27 1229,31 1249,36 1269,41 1290,47 1318,56 1346,66 1375,77 1404,89 1434,102 1464,117 1494,133 1524,151 1555,169 1586,190 1617,212 1649,235 1680,260 1712,287 1745,315 1777,345 1777,345"/>
<polygon class="pen1 brush2" points="1337,874 1336,840 1336,808 1339,778 1343,749 1348,723 1354,698 1361,675 1369,653 1339,654 1309,654 1279,654 1249,654 1219,653 1189,651 1159,649 1129,646 1099,642 1069,638 1040,633 1010,627 981,621 952,614 923,606 894,597 927,627 951,658 968,690 976,723 977,758 970,792 956,828 935,865 961,873 990,879 1021,883 1054,886 1087,888 1120,889 1153,888 1186,887 1216,886 1245,884 1270,881 1293,879 1311,877 1325,876 1334,874 1337,874 1337,874"/>
<polygon class="pen1 brush2" points="661,1132 657,1133 645,1136 628,1138 608,1140 586,1140 564,1137 543,1129 527,1116 516,1102 510,1091 508,1083 509,1076 512,1070 516,1063 520,1056 523,1047 520,1047 513,1046 501,1046 485,1045 466,1045 445,1045 422,1045 398,1045 374,1046 350,1048 327,1051 305,1054 285,1059 269,1065 255,1072 246,1080 251,1080 265,1079 284,1079 308,1078 333,1078 358,1079 379,1081 395,1084 393,1085 389,1086 382,1089 373,1092 362,1097 349,1102 335,1107 321,1114 306,1121 291,1128 276,1136 262,1144 249,1153 237,1161 227,1170 219,1179 220,1179 225,1177 231,1175 240,1172 250,1169 263,1165 276,1162 290,1157 305,1153 321,1150 336,1146 351,1143 366,1140 380,1138 393,1136 405,1136 400,1139 388,1149 371,1162 350,1179 328,1198 307,1217 289,1236 277,1253 281,1251 291,1245 307,1237 326,1227 348,1216 372,1204 395,1194 416,1185 414,1187 408,1192 400,1201 391,1213 381,1227 371,1243 363,1261 358,1280 360,1279 366,1275 375,1270 387,1263 401,1255 417,1246 435,1237 455,1227 475,1217 496,1207 517,1197 537,1189 557,1181 576,1175 593,1171 608,1169 632,1166 648,1161 657,1155 662,1148 664,1142 663,1137 662,1133 661,1132 661,1132"/>
<polygon class="pen1 brush2" points="1493,977 1491,977 1484,977 1473,977 1459,977 1442,976 1423,976 1402,975 1379,975 1355,974 1330,973 1305,972 1281,970 1257,969 1235,967 1214,964 1196,962 1197,962 1201,964 1206,968 1212,972 1217,977 1222,984 1224,990 1224,998 1219,1006 1211,1014 1197,1022 1177,1030 1151,1037 1116,1045 1073,1051 1020,1057 1023,1057 1033,1057 1048,1057 1066,1057 1088,1058 1110,1059 1133,1062 1156,1065 1176,1070 1193,1076 1206,1083 1213,1093 1214,1104 1207,1118 1190,1134 1164,1152 1166,1151 1173,1149 1184,1147 1197,1144 1212,1141 1228,1138 1245,1136 1262,1136 1277,1137 1291,1140 1302,1146 1310,1155 1313,1167 1312,1183 1305,1203 1291,1227 1298,1221 1308,1214 1319,1206 1332,1198 1345,1190 1359,1182 1374,1175 1388,1170 1402,1167 1415,1166 1427,1168 1437,1173 1446,1183 1452,1196 1455,1214 1456,1237 1621,1111 1618,1112 1611,1113 1601,1115 1587,1116 1571,1117 1554,1118 1536,1117 1519,1114 1503,1109 1489,1101 1478,1090 1470,1076 1467,1058 1470,1036 1478,1009 1493,977 1493,977"/>
<polygon class="pen1 brush2" points="87,443 86,444 89,447 97,451 109,456 123,463 140,469 158,477 177,484 197,492 217,499 236,506 254,512 270,518 283,522 294,525 300,527 309,537 323,550 342,567 365,586 391,608 419,631 449,655 480,679 511,703 542,727 570,749 597,769 621,787 640,802 655,813 665,820 673,793 678,767 679,742 677,719 673,696 665,675 655,654 643,635 628,617 611,600 593,584 572,569 550,555 527,541 503,529 478,518 452,507 425,498 398,489 370,481 343,474 316,468 288,462 262,457 236,453 211,450 187,447 164,445 142,444 122,443 103,443 87,443"/>
<polygon class="pen1 brush0" points="281,179 289,178 297,176 304,172 310,167 314,161 318,154 320,146 321,138 320,130 318,122 314,115 310,109 304,105 297,101 289,99 281,98 273,99 265,101 258,105 252,109 247,115 243,122 241,130 240,138 241,146 243,154 247,161 252,167 258,172 265,176 273,178 281,179"/>
</g>
</svg>
