<?xml version="1.0" encoding="UTF-8" standalone="no"?>
<!DOCTYPE svg PUBLIC "-//W3C//DTD SVG 1.0//EN" "http://www.w3.org/TR/2001/REC-SVG-20010904/DTD/svg10.dtd">
<svg xmlns="http://www.w3.org/2000/svg" xmlns:xlink="http://www.w3.org/1999/xlink" fill-rule="evenodd" height="1.716in" preserveAspectRatio="none" stroke-linecap="round" viewBox="0 0 1987 1716" width="1.987in">
<style type="text/css">
.brush0 { fill: rgb(255,255,255); }
.pen0 { stroke: rgb(0,0,0); stroke-width: 1; stroke-linejoin: round; }
.brush1 { fill: none; }
.pen1 { stroke: none; }
.brush2 { fill: rgb(0,0,0); }
</style>
<g>
<polygon class="pen1 brush2" points="21,453 19,450 22,446 28,439 39,430 53,421 71,411 93,400 118,389 147,379 178,369 213,361 251,354 292,349 335,346 381,345 429,348 427,322 429,290 435,253 444,213 456,172 471,132 488,94 507,61 516,48 526,36 536,26 547,17 558,11 569,6 580,4 591,4 606,7 619,12 631,18 642,25 650,34 658,44 664,55 668,67 675,99 675,135 671,171 663,207 653,240 643,268 633,290 625,303 629,300 639,293 655,282 676,268 701,252 729,235 760,218 793,201 827,187 861,175 895,166 927,162 957,163 983,170 1007,185 1025,207 1034,228 1036,248 1032,267 1022,284 1006,301 986,317 963,331 936,345 906,357 875,368 843,379 810,388 778,395 747,402 717,408 689,412 710,421 732,431 754,442 776,453 798,465 820,478 843,492 866,506 889,521 912,537 935,554 959,572 982,591 1006,610 1030,631 1054,652 1154,751 1232,846 1290,937 1330,1025 1353,1107 1362,1184 1358,1257 1343,1323 1318,1384 1286,1438 1249,1485 1208,1525 1164,1558 1121,1583 1079,1600 1041,1608 1046,1608 1060,1609 1082,1609 1112,1608 1147,1605 1186,1600 1229,1591 1274,1578 1319,1560 1365,1537 1408,1507 1449,1471 1486,1427 1518,1375 1543,1313 1561,1242 1567,1197 1570,1149 1570,1097 1566,1042 1559,983 1548,920 1533,854 1514,783 1499,714 1493,649 1496,589 1507,533 1525,481 1549,433 1580,390 1615,352 1655,318 1698,289 1743,265 1791,246 1840,232 1890,223 1939,219 1987,220 1981,221 1963,223 1937,228 1902,235 1863,246 1819,261 1774,280 1729,305 1686,336 1646,372 1612,416 1586,468 1570,527 1564,595 1572,673 1595,760 1615,827 1632,893 1644,956 1653,1017 1657,1077 1658,1134 1656,1189 1650,1242 1644,1278 1636,1313 1627,1347 1616,1379 1604,1410 1590,1439 1575,1467 1558,1494 1540,1519 1520,1543 1500,1565 1478,1586 1455,1605 1430,1622 1405,1638 1378,1652 1352,1663 1326,1673 1298,1681 1270,1688 1241,1693 1211,1696 1180,1698 1149,1697 1117,1696 1085,1692 1052,1687 1018,1680 984,1671 949,1660 914,1647 879,1632 348,1632 347,1630 345,1623 342,1613 341,1601 341,1587 344,1572 351,1557 364,1543 382,1530 407,1520 441,1513 483,1510 536,1511 601,1519 677,1533 767,1554 765,1547 758,1527 749,1496 737,1456 725,1409 713,1358 703,1304 696,1249 692,1196 693,1146 700,1102 714,1066 737,1040 769,1025 811,1025 865,1040 859,1028 855,1018 850,1011 846,1006 843,1003 839,1000 836,998 832,997 827,995 817,991 803,988 785,986 765,987 744,991 723,1000 703,1016 686,1039 672,1071 662,1113 658,1166 661,1232 672,1311 691,1406 721,1516 716,1514 706,1509 691,1501 672,1489 650,1474 626,1456 600,1435 573,1410 547,1382 522,1350 498,1315 477,1277 460,1236 447,1191 439,1143 437,1092 436,1056 430,1026 421,1001 408,981 393,966 375,956 355,950 334,947 312,948 290,953 268,960 246,970 225,982 206,997 189,1013 175,1031 176,1029 178,1023 181,1015 184,1004 189,992 195,978 202,964 211,948 221,933 234,918 249,904 267,891 287,879 310,870 336,863 365,859 365,856 363,847 360,833 356,814 349,791 340,764 327,735 312,704 293,671 269,638 241,604 208,570 170,538 127,507 77,479 21,453"/>
<polygon class="pen1 brush0" points="388,490 396,489 404,487 411,483 417,478 422,473 426,466 428,458 429,449 428,441 426,433 422,426 417,420 411,415 404,411 396,409 388,408 380,409 372,411 365,415 358,420 353,426 349,433 347,441 346,449 347,458 349,466 353,473 358,478 365,483 372,487 380,489 388,490"/>
<polygon class="pen1 brush2" points="64,392 55,392 75,271 82,271 64,392 64,392"/>
<polygon class="pen1 brush2" points="79,392 187,207 179,207 71,392 79,392"/>
<polygon class="pen1 brush2" points="64,500 57,500 77,621 84,621 64,500 64,500"/>
<polygon class="pen1 brush2" points="81,500 189,686 179,686 71,500 81,500"/>
</g>
</svg>
