<?xml version="1.0" encoding="UTF-8" standalone="no"?>
<!DOCTYPE svg PUBLIC "-//W3C//DTD SVG 1.0//EN" "http://www.w3.org/TR/2001/REC-SVG-20010904/DTD/svg10.dtd">
<svg xmlns="http://www.w3.org/2000/svg" xmlns:xlink="http://www.w3.org/1999/xlink" fill-rule="evenodd" height="0.388in" preserveAspectRatio="none" stroke-linecap="round" viewBox="0 0 1978 388" width="1.978in">
<style type="text/css">
.brush0 { fill: rgb(255,255,255); }
.pen0 { stroke: rgb(0,0,0); stroke-width: 1; stroke-linejoin: round; }
.brush1 { fill: none; }
.pen1 { stroke: none; }
.brush2 { fill: rgb(0,0,0); }
</style>
<g>
<polygon class="pen1 brush2" points="1522,138 1535,144 1548,151 1561,159 1577,165 1595,167 1618,162 1646,150 1680,128 1698,114 1714,101 1729,89 1744,78 1758,67 1772,57 1786,48 1801,40 1817,33 1834,27 1852,23 1872,19 1895,17 1920,17 1947,18 1978,20 1975,22 1965,28 1951,38 1934,51 1914,67 1893,85 1872,106 1853,128 1836,152 1822,177 1814,203 1811,228 1816,254 1830,280 1853,304 1887,328 1886,328 1882,328 1876,327 1869,326 1860,325 1849,323 1837,321 1825,319 1812,316 1799,313 1785,309 1772,305 1760,301 1748,296 1737,290 1727,284 1718,277 1708,271 1697,264 1686,258 1675,252 1663,247 1652,242 1640,237 1629,234 1617,231 1607,229 1597,229 1587,230 1579,232 1571,235 1565,240 1657,335 1653,334 1641,332 1623,328 1600,322 1575,313 1549,301 1524,286 1501,267 1385,284 1385,286 1386,292 1387,301 1390,312 1394,325 1401,339 1410,353 1423,367 1418,366 1406,364 1388,360 1366,354 1342,346 1318,335 1297,322 1279,305 1277,305 1272,306 1264,307 1253,308 1239,310 1222,312 1204,314 1182,317 1159,319 1134,322 1107,325 1079,328 1049,330 1019,333 987,335 955,338 921,340 888,342 854,343 820,345 787,346 753,346 721,346 688,345 657,344 627,343 598,341 570,338 544,334 520,329 497,324 477,318 481,315 492,305 506,291 519,272 529,251 531,227 523,202 500,176 502,179 506,186 511,198 512,213 509,232 498,254 477,278 443,305 439,305 429,303 414,302 396,299 376,295 357,291 339,286 325,280 322,232 282,270 279,269 272,267 260,264 245,259 227,253 206,245 184,237 161,228 136,218 112,206 88,195 66,182 45,168 27,154 12,140 0,125 2,125 7,126 15,127 26,128 40,128 56,129 74,130 94,130 115,130 137,129 161,128 185,126 209,123 234,119 258,113 282,107 305,100 327,94 348,88 368,82 387,78 405,73 422,70 437,66 452,64 466,61 479,60 491,58 501,58 512,57 521,57 529,58 591,20 653,53 714,13 779,57 853,0 927,48 1000,4 1089,58 1147,17 1244,78 1298,41 1359,88 1360,87 1365,85 1371,82 1380,79 1391,74 1403,69 1417,64 1432,58 1449,52 1466,47 1483,42 1501,37 1519,34 1537,31 1554,29 1571,28 1570,29 1568,32 1566,38 1564,44 1564,52 1566,61 1572,71 1583,81 1522,138"/>
<polygon class="pen1 brush0" points="314,169 321,168 326,164 330,158 332,151 330,143 326,137 321,133 314,132 307,133 301,137 297,143 295,151 297,158 301,164 307,168 314,169"/>
<polygon class="pen1 brush0" points="680,64 714,37 754,64 714,91 680,64"/>
<polygon class="pen1 brush0" points="554,68 589,41 627,68 589,95 554,68"/>
<polygon class="pen1 brush0" points="819,53 855,27 893,53 855,81 819,53"/>
<polygon class="pen1 brush0" points="968,53 1002,27 1041,53 1002,81 968,53"/>
<polygon class="pen1 brush0" points="1112,65 1147,40 1187,65 1147,94 1112,65"/>
<polygon class="pen1 brush0" points="1262,90 1296,64 1336,90 1296,118 1262,90"/>
<polygon class="pen1 brush0" points="618,229 633,228 648,227 662,225 675,224 688,222 701,221 713,218 725,216 736,213 748,210 758,207 769,203 779,199 789,194 799,189 808,183 802,179 792,185 781,190 771,194 761,198 750,202 739,206 729,209 718,211 706,214 695,216 683,218 671,220 658,222 645,223 632,225 618,226 618,229"/>
<polygon class="pen1 brush0" points="616,242 632,244 646,246 658,248 670,250 680,251 690,252 700,252 710,253 719,252 730,252 741,251 753,249 767,247 782,244 799,241 818,237 812,230 797,234 782,237 769,240 756,242 744,244 732,245 721,246 710,246 699,246 688,245 677,244 666,243 655,242 643,241 631,239 618,237 616,242"/>
<polygon class="pen1 brush0" points="610,250 619,254 627,259 635,263 643,267 651,271 660,275 669,279 678,283 688,287 699,291 712,294 725,298 740,301 756,305 774,308 794,311 796,300 780,298 765,296 751,294 739,291 728,289 717,287 707,285 698,282 688,279 679,276 669,273 659,269 649,265 638,261 625,256 612,250 610,250"/>
</g>
</svg>
