<?xml version="1.0" encoding="UTF-8" standalone="no"?>
<!DOCTYPE svg PUBLIC "-//W3C//DTD SVG 1.0//EN" "http://www.w3.org/TR/2001/REC-SVG-20010904/DTD/svg10.dtd">
<svg xmlns="http://www.w3.org/2000/svg" xmlns:xlink="http://www.w3.org/1999/xlink" fill-rule="evenodd" height="1.397in" preserveAspectRatio="none" stroke-linecap="round" viewBox="0 0 1736 1397" width="1.736in">
<style type="text/css">
.brush0 { fill: rgb(255,255,255); }
.pen0 { stroke: rgb(0,0,0); stroke-width: 1; stroke-linejoin: round; }
.brush1 { fill: none; }
.pen1 { stroke: none; }
.brush2 { fill: rgb(0,0,0); }
</style>
<g>
<polygon class="pen1 brush2" points="352,736 325,736 306,730 292,717 283,700 278,681 275,660 273,639 271,619 269,651 265,684 259,715 248,742 233,766 213,783 185,792 150,793 141,782 130,770 117,759 104,747 90,737 75,728 61,720 48,714 21,714 21,709 22,702 24,692 27,679 24,672 15,662 6,650 1,638 1,634 2,631 4,627 7,623 11,620 17,617 25,614 34,612 38,607 47,592 60,570 76,541 97,506 122,467 152,425 186,380 224,334 267,288 315,242 367,199 424,160 485,124 552,94 623,71 659,61 693,52 724,44 754,37 783,31 810,25 835,20 860,15 884,11 908,8 931,6 954,3 977,2 1000,1 1024,0 1048,0 1072,0 1096,1 1122,2 1149,3 1177,4 1207,6 1239,8 1272,11 1308,13 1346,16 1386,19 1429,22 1474,25 1523,28 1574,31 1629,34 1643,35 1654,36 1660,38 1662,39 1660,41 1654,42 1643,43 1629,43 1620,43 1609,43 1597,43 1585,43 1571,43 1558,44 1543,44 1529,45 1514,46 1500,47 1486,47 1472,48 1458,49 1446,50 1434,50 1423,51 1405,53 1384,58 1363,69 1344,86 1329,112 1321,147 1324,194 1338,253 1356,313 1369,363 1377,403 1380,437 1379,466 1374,492 1365,516 1352,540 1375,528 1396,518 1414,510 1431,504 1447,498 1463,494 1480,489 1498,484 1473,526 1456,569 1446,611 1444,654 1449,695 1463,734 1486,771 1517,805 1512,803 1498,799 1478,792 1454,783 1428,773 1404,764 1383,754 1368,746 1371,749 1377,759 1386,777 1393,802 1396,836 1394,878 1384,930 1362,991 1353,1015 1347,1039 1345,1063 1346,1086 1354,1107 1367,1124 1388,1136 1417,1143 1426,1144 1437,1146 1448,1147 1460,1149 1473,1150 1486,1152 1499,1154 1513,1155 1527,1157 1541,1159 1555,1161 1569,1162 1582,1164 1595,1165 1607,1167 1619,1168 1639,1170 1655,1173 1667,1176 1672,1178 1671,1181 1663,1183 1645,1183 1619,1183 1617,1185 1610,1187 1600,1188 1585,1189 1567,1190 1546,1191 1522,1191 1495,1191 1466,1191 1434,1190 1401,1189 1366,1188 1330,1187 1292,1185 1254,1183 1216,1180 1177,1178 1138,1175 1099,1172 1061,1168 1024,1165 987,1161 952,1157 919,1152 888,1148 859,1143 832,1137 808,1132 787,1126 769,1120 755,1114 744,1108 743,1106 740,1101 735,1092 729,1081 722,1067 714,1051 707,1033 699,1013 699,1016 699,1026 699,1041 701,1060 704,1084 709,1111 717,1140 727,1170 741,1202 758,1233 780,1264 807,1293 838,1320 876,1344 920,1364 970,1380 968,1381 962,1382 952,1384 939,1386 922,1387 903,1386 882,1383 859,1377 828,1366 799,1352 771,1336 744,1317 719,1295 695,1272 672,1247 651,1220 630,1193 612,1164 594,1134 577,1105 561,1075 547,1045 533,1016 521,987 520,989 519,997 522,1016 532,1052 530,1051 523,1049 512,1045 497,1040 480,1032 459,1023 436,1012 410,999 383,984 355,967 325,948 295,926 265,902 234,876 205,847 176,815 215,815 250,811 282,806 310,797 335,787 356,774 373,759 386,742 396,722 401,701 403,678 401,654 395,627 385,600 370,570 352,540 362,563 373,590 383,621 390,652 393,682 388,707 375,726 352,736 352,736"/>
<polygon class="pen1 brush2" points="1709,429 1578,445 1543,485 1517,523 1499,560 1488,595 1483,629 1484,661 1489,691 1498,718 1510,743 1523,766 1538,786 1552,803 1566,817 1578,828 1588,835 1594,839 1609,843 1625,847 1643,851 1660,854 1676,857 1688,860 1697,861 1700,862 1709,843 1717,821 1723,796 1728,768 1731,738 1733,707 1734,675 1734,642 1731,579 1725,519 1717,468 1709,429"/>
<polygon class="pen1 brush0" points="183,575 189,574 195,573 200,570 205,566 209,561 212,556 213,550 214,543 213,536 212,530 209,525 205,520 200,516 195,513 189,512 183,511 177,512 171,513 165,516 160,520 156,525 153,530 151,536 150,543 151,550 153,556 156,561 160,566 165,570 171,573 177,574 183,575"/>
<polygon class="pen1 brush0" fill-rule="nonzero" points="577,758 572,754 567,750 562,746 557,743 552,739 546,735 540,732 533,727 529,735 536,738 542,741 548,745 553,749 558,752 563,756 568,760 573,764"/>
<polygon class="pen1 brush0" fill-rule="nonzero" points="599,729 591,726 586,723 579,720 573,718 567,716 559,715 550,713 540,712 540,720 550,721 559,723 565,724 571,726 577,728 582,731 589,734 597,737"/>
<polygon class="pen1 brush0" fill-rule="nonzero" points="633,689 617,687 604,686 593,686 584,686 575,687 565,689 552,692 537,696 539,704 554,700 565,697 575,695 584,694 593,694 604,694 617,695 633,697"/>
<polygon class="pen1 brush0" fill-rule="nonzero" points="676,642 651,641 630,642 610,645 592,648 576,654 561,660 545,668 530,677 534,683 549,674 563,668 578,662 594,656 610,653 630,650 651,649 676,650"/>
<polygon class="pen1 brush0" fill-rule="nonzero" points="717,597 701,596 686,596 672,596 657,597 644,599 630,601 617,604 604,607 592,611 580,615 568,620 556,626 545,632 534,639 523,646 512,653 516,659 527,652 538,645 549,638 560,634 570,628 582,623 594,619 606,615 619,612 630,609 644,607 657,605 672,604 686,604 701,604 717,605"/>
<polygon class="pen1 brush0" fill-rule="nonzero" points="751,557 727,553 704,551 683,551 663,553 643,556 624,561 606,567 590,574 573,581 559,590 545,598 532,606 521,614 510,621 500,627 491,632 495,638 504,633 514,627 525,620 536,612 549,604 563,596 577,589 592,582 608,575 626,569 643,564 663,561 683,559 704,559 727,561 749,565"/>
</g>
</svg>
