<?xml version="1.0" encoding="UTF-8" standalone="no"?>
<!DOCTYPE svg PUBLIC "-//W3C//DTD SVG 1.0//EN" "http://www.w3.org/TR/2001/REC-SVG-20010904/DTD/svg10.dtd">
<svg xmlns="http://www.w3.org/2000/svg" xmlns:xlink="http://www.w3.org/1999/xlink" fill-rule="evenodd" height="1.824in" preserveAspectRatio="none" stroke-linecap="round" viewBox="0 0 1994 1824" width="1.994in">
<style type="text/css">
.brush0 { fill: rgb(255,255,255); }
.pen0 { stroke: rgb(0,0,0); stroke-width: 1; stroke-linejoin: round; }
.brush1 { fill: none; }
.pen1 { stroke: none; }
.brush2 { fill: rgb(0,0,0); }
</style>
<g>
<polygon class="pen1 brush2" points="80,894 87,905 94,917 101,929 109,941 119,953 129,963 142,972 157,980 175,986 197,989 222,990 251,988 285,983 324,975 369,962 419,945 424,991 433,1033 448,1073 466,1110 487,1144 510,1176 534,1204 559,1229 584,1252 609,1271 631,1287 651,1301 668,1311 682,1319 690,1323 693,1325 712,1371 730,1409 747,1439 763,1462 777,1479 788,1491 795,1497 797,1499 812,1493 826,1487 841,1481 855,1475 869,1470 883,1464 895,1459 907,1455 918,1450 928,1447 937,1443 945,1440 951,1438 955,1436 958,1435 959,1435 948,1391 942,1353 940,1325 940,1315 969,1321 998,1326 1029,1329 1059,1332 1089,1335 1119,1336 1148,1337 1175,1338 1201,1338 1224,1338 1245,1337 1263,1337 1278,1336 1289,1336 1296,1335 1298,1335 1273,1260 1262,1184 1263,1110 1271,1042 1284,983 1298,937 1309,907 1313,896 1297,983 1295,1067 1302,1145 1317,1214 1334,1272 1350,1316 1363,1345 1368,1355 1348,1361 1328,1368 1309,1374 1291,1381 1274,1387 1258,1393 1243,1399 1229,1405 1216,1410 1205,1415 1196,1419 1188,1423 1181,1426 1177,1428 1174,1430 1173,1430 1142,1429 1111,1431 1082,1433 1053,1437 1025,1443 999,1449 973,1457 948,1465 924,1474 901,1484 879,1494 858,1504 837,1515 818,1525 799,1536 781,1546 775,1549 768,1554 758,1560 747,1568 734,1577 721,1587 707,1599 694,1611 680,1625 666,1639 653,1654 642,1670 631,1687 623,1704 616,1722 612,1740 615,1740 623,1738 636,1734 652,1729 670,1721 690,1710 711,1695 732,1677 723,1697 715,1716 708,1735 703,1751 698,1764 695,1775 693,1782 692,1784 700,1783 710,1780 721,1775 734,1768 748,1760 762,1750 777,1739 792,1728 807,1716 821,1704 834,1692 847,1680 858,1669 868,1658 875,1649 881,1640 898,1632 916,1625 934,1617 954,1610 975,1603 997,1597 1020,1591 1045,1585 1071,1580 1098,1576 1127,1572 1158,1569 1190,1566 1224,1565 1260,1564 1298,1564 1367,1561 1430,1550 1486,1533 1537,1510 1583,1484 1623,1454 1658,1422 1689,1389 1715,1356 1737,1324 1755,1294 1769,1267 1781,1245 1789,1227 1794,1216 1797,1212 1835,1196 1868,1173 1894,1143 1915,1106 1931,1065 1943,1019 1951,970 1956,919 1953,867 1941,813 1923,762 1901,714 1879,673 1860,640 1846,619 1841,611 1854,595 1871,577 1891,557 1913,535 1935,513 1954,489 1971,464 1983,439 1987,427 1989,415 1989,403 1988,391 1985,380 1980,368 1973,356 1963,344 1932,308 1907,275 1888,245 1875,220 1865,200 1860,185 1859,175 1861,172 1821,191 1788,219 1764,254 1747,292 1737,330 1733,365 1737,393 1746,411 1788,462 1810,502 1817,533 1813,557 1802,573 1789,584 1778,589 1773,591 1744,572 1715,555 1687,540 1658,528 1630,517 1602,507 1574,500 1547,494 1519,490 1492,487 1466,486 1439,486 1414,487 1388,489 1363,493 1338,497 1313,503 1289,510 1266,517 1243,525 1220,534 1198,543 1176,553 1155,563 1135,574 1115,585 1095,596 1076,607 1058,619 1040,630 1023,642 1007,653 976,673 945,690 916,702 888,712 862,718 837,722 814,723 793,723 774,721 756,718 742,715 729,711 719,708 712,705 708,703 706,702 678,647 650,605 623,572 598,548 578,532 561,522 551,517 547,516 552,498 560,482 571,466 586,452 604,440 627,430 656,421 690,415 709,411 730,404 751,395 773,383 794,370 816,354 836,337 856,319 875,299 892,279 907,259 920,238 930,217 938,197 942,177 943,158 944,122 947,91 952,64 958,41 965,23 970,10 974,3 976,0 921,17 868,40 817,70 769,104 725,143 683,184 644,226 609,269 577,311 549,351 524,388 504,420 488,448 477,469 469,482 467,487 429,480 395,477 364,476 336,478 311,481 289,487 270,493 253,501 238,509 226,517 217,525 209,532 203,539 199,544 197,547 196,548 183,566 170,584 157,602 143,620 130,637 117,654 104,672 92,688 80,705 68,722 58,738 48,754 39,770 32,786 25,802 20,817 19,818 17,822 16,828 15,835 15,843 18,851 25,860 36,868 38,869 43,870 52,872 64,872 78,869 94,863 112,853 131,837 134,834 133,837 129,845 122,856 112,868 102,879 91,888 80,894 80,894"/>
<polygon class="pen1 brush2" points="901,1676 911,1671 921,1666 931,1661 941,1655 952,1650 963,1644 974,1639 985,1633 997,1628 1008,1624 1020,1619 1033,1615 1045,1612 1058,1609 1071,1607 1084,1606 1089,1613 1101,1626 1118,1644 1139,1667 1159,1694 1179,1723 1193,1754 1202,1785 1200,1783 1189,1778 1173,1770 1154,1761 1134,1753 1117,1745 1105,1740 1100,1738 1148,1824 1143,1823 1130,1821 1111,1817 1088,1811 1062,1803 1036,1794 1011,1782 990,1767 971,1750 954,1734 939,1719 926,1705 915,1693 908,1684 903,1678 901,1676"/>
<polygon class="pen1 brush0" points="341,706 350,705 358,703 365,699 372,694 377,688 382,680 384,672 385,663 384,655 382,647 377,640 372,634 365,629 358,625 350,623 341,622 333,623 325,625 318,629 312,634 307,640 303,647 301,655 300,663 301,672 303,680 307,688 312,694 318,699 325,703 333,705 341,706"/>
</g>
</svg>
