<?xml version="1.0" encoding="UTF-8" standalone="no"?>
<!DOCTYPE svg PUBLIC "-//W3C//DTD SVG 1.0//EN" "http://www.w3.org/TR/2001/REC-SVG-20010904/DTD/svg10.dtd">
<svg xmlns="http://www.w3.org/2000/svg" xmlns:xlink="http://www.w3.org/1999/xlink" fill-rule="evenodd" height="0.941in" preserveAspectRatio="none" stroke-linecap="round" viewBox="0 0 1980 941" width="1.98in">
<style type="text/css">
.brush0 { fill: rgb(255,255,255); }
.pen0 { stroke: rgb(0,0,0); stroke-width: 1; stroke-linejoin: round; }
.brush1 { fill: none; }
.pen1 { stroke: none; }
.brush2 { fill: rgb(0,0,0); }
</style>
<g>
<polygon class="pen1 brush2" points="246,194 247,196 249,202 253,212 257,224 261,238 265,254 267,271 269,289 268,306 264,322 258,337 248,351 234,361 215,368 191,372 162,371 152,370 141,367 129,364 117,360 105,355 93,349 81,343 69,337 57,330 47,323 36,316 27,309 18,302 11,295 5,289 0,283 41,287 0,250 0,249 1,247 3,244 6,240 10,234 14,228 20,221 27,213 36,205 45,197 56,188 69,179 83,170 99,161 117,152 136,144 158,136 181,129 207,122 234,116 264,111 297,107 331,104 368,103 408,103 450,104 495,107 543,112 594,119 647,127 704,138 764,151 987,26 990,29 999,38 1013,51 1032,69 1055,91 1082,116 1111,142 1142,171 1175,200 1208,229 1242,258 1276,286 1309,312 1340,335 1369,355 1395,371 1348,434 1351,436 1358,443 1369,453 1383,465 1400,479 1418,495 1438,511 1457,526 1459,524 1467,519 1478,511 1494,501 1515,490 1539,477 1566,464 1597,451 1632,440 1669,429 1709,421 1752,415 1797,412 1844,413 1893,418 1944,428 1952,431 1959,434 1965,437 1970,441 1974,444 1977,447 1979,448 1980,449 1964,453 1945,458 1923,464 1899,471 1872,479 1845,489 1816,499 1788,510 1760,522 1733,535 1709,549 1686,563 1666,579 1650,594 1638,610 1631,627 1628,644 1630,663 1635,683 1643,704 1654,726 1667,748 1682,771 1699,793 1716,815 1734,837 1752,858 1770,877 1787,896 1803,913 1817,928 1829,941 1828,941 1825,940 1820,939 1813,937 1805,935 1795,932 1783,928 1770,924 1756,918 1741,912 1725,905 1708,897 1691,888 1673,878 1654,867 1635,854 1622,845 1609,835 1596,824 1583,813 1571,802 1558,790 1545,777 1533,763 1520,749 1508,734 1496,718 1485,701 1474,684 1463,666 1453,647 1443,627 1442,627 1439,626 1433,624 1426,622 1418,620 1408,617 1397,615 1385,612 1372,609 1359,607 1346,604 1332,603 1319,601 1305,600 1293,600 1281,600 1328,678 1325,677 1318,673 1306,667 1290,660 1271,652 1247,643 1221,633 1192,624 1160,615 1127,607 1091,600 1054,595 1016,592 977,592 938,594 899,600 898,596 897,584 894,567 889,547 882,527 872,507 861,490 846,479 835,475 819,471 797,467 771,463 742,459 710,455 676,451 640,447 604,444 569,442 534,439 501,438 471,437 444,437 420,437 402,439 402,441 401,445 401,452 402,461 404,471 409,482 417,494 429,506 425,518 416,548 406,586 402,621 399,616 391,601 379,578 366,550 352,518 340,484 332,450 329,418 327,418 323,417 317,416 309,414 300,411 291,408 284,403 277,398 279,392 285,375 291,350 295,319 295,286 288,252 273,221 246,194"/>
<polygon class="pen1 brush0" points="106,245 115,243 122,238 126,231 128,223 126,215 122,208 115,204 106,202 98,204 91,208 87,215 85,223 87,231 91,238 98,243 106,245"/>
<polygon class="pen1 brush0" points="560,185 561,185 563,186 567,186 573,187 580,188 589,189 599,191 611,192 616,222 617,251 615,277 611,302 604,324 595,345 586,363 575,380 570,379 564,379 559,378 553,378 547,377 542,377 536,377 531,377 533,373 538,361 546,342 553,318 560,289 564,257 565,222 560,185 560,185"/>
<polygon class="pen1 brush0" points="619,194 624,223 626,250 625,276 620,301 614,323 606,344 596,364 585,381 590,381 596,381 601,382 607,383 612,383 618,384 623,385 628,385 638,369 647,350 654,330 660,308 663,284 664,257 661,229 656,198 651,197 646,197 641,196 636,196 631,195 627,195 623,194 619,194 619,194"/>
<polygon class="pen1 brush0" points="666,201 671,201 676,202 681,203 687,204 692,205 698,206 704,208 710,209 716,238 720,265 721,290 719,313 715,335 708,355 700,375 689,394 682,393 675,392 669,391 663,389 657,388 651,387 645,386 638,385 648,368 656,349 664,329 669,306 673,282 673,257 671,230 666,201 666,201"/>
<polygon class="pen1 brush0" points="720,211 726,239 729,265 729,290 726,314 722,337 715,357 708,377 699,394 704,395 709,396 714,397 719,397 723,398 728,399 734,400 739,401 747,383 755,364 761,343 766,322 769,298 769,274 767,247 761,219 756,218 751,216 745,215 740,214 735,213 730,212 725,211 720,211 720,211"/>
<polygon class="pen1 brush0" points="771,221 777,222 783,224 789,225 796,227 802,228 808,230 815,231 821,232 826,261 827,288 826,313 823,336 817,357 810,377 801,395 792,411 786,410 781,409 775,407 770,406 764,405 759,404 753,403 747,402 755,384 763,365 770,345 775,323 778,299 779,275 777,248 771,221 771,221"/>
<polygon class="pen1 brush0" points="831,236 835,263 836,289 834,313 831,336 825,357 818,377 810,395 801,411 807,412 814,414 820,415 827,416 833,418 839,419 846,420 852,421 860,405 867,387 873,368 877,347 880,324 880,299 878,273 872,246 866,245 860,243 854,242 849,241 844,239 840,238 835,237 831,236 831,236"/>
<polygon class="pen1 brush0" points="879,249 884,250 890,251 895,253 901,254 907,256 912,257 918,259 923,260 930,288 933,314 933,338 931,361 927,382 921,401 915,418 908,434 902,432 896,431 890,429 884,428 877,427 871,426 865,425 859,424 867,407 874,388 880,368 885,347 887,324 887,300 885,275 879,249 879,249"/>
<polygon class="pen1 brush0" points="933,263 939,290 941,315 941,339 938,361 934,382 929,402 922,419 916,435 922,436 929,437 935,439 942,440 948,442 954,443 961,445 967,446 973,431 979,414 984,396 988,376 990,355 990,332 987,307 981,280 976,278 970,276 964,274 958,272 952,270 946,267 939,265 933,263 933,263"/>
<polygon class="pen1 brush0" points="991,283 997,285 1003,287 1009,289 1015,291 1021,294 1027,296 1032,298 1038,300 1043,326 1044,350 1044,372 1041,393 1037,412 1031,429 1025,445 1018,459 1013,458 1007,456 1002,455 996,453 991,452 985,451 979,449 973,448 980,433 986,415 991,397 995,376 998,355 998,332 996,308 991,283 991,283"/>
<polygon class="pen1 brush0" points="1050,304 1053,329 1053,352 1052,374 1049,394 1045,413 1039,431 1033,447 1027,461 1033,462 1038,464 1044,465 1050,467 1056,468 1062,470 1068,471 1074,472 1080,459 1086,444 1091,427 1094,409 1097,390 1097,369 1096,347 1092,323 1087,321 1082,318 1076,316 1071,313 1066,311 1061,309 1055,306 1050,304 1050,304"/>
<polygon class="pen1 brush0" points="1102,327 1107,330 1112,332 1118,335 1123,337 1128,340 1133,342 1138,345 1143,347 1146,369 1147,390 1146,409 1144,427 1140,444 1135,459 1130,473 1125,486 1120,485 1114,483 1109,482 1103,480 1098,479 1092,478 1087,476 1081,475 1087,461 1093,445 1098,428 1102,410 1105,391 1106,371 1105,349 1102,327 1102,327"/>
<polygon class="pen1 brush0" points="1152,351 1155,372 1155,392 1154,411 1152,428 1148,445 1143,461 1138,475 1132,488 1138,489 1144,491 1149,492 1155,494 1160,495 1165,497 1171,498 1176,500 1185,475 1193,445 1196,412 1193,374 1188,371 1183,368 1178,365 1173,362 1168,359 1162,356 1157,354 1152,351 1152,351"/>
<polygon class="pen1 brush0" points="1203,378 1208,381 1212,383 1217,386 1221,389 1226,391 1230,394 1235,397 1239,400 1240,433 1236,463 1229,490 1220,513 1216,512 1211,510 1207,509 1202,507 1198,506 1193,505 1188,503 1183,502 1192,477 1200,447 1204,415 1203,378 1203,378"/>
<polygon class="pen1 brush0" points="1248,407 1248,438 1244,467 1237,492 1229,516 1235,518 1240,519 1246,521 1252,522 1258,524 1263,526 1269,527 1274,529 1281,509 1286,486 1289,462 1290,435 1285,431 1280,428 1275,424 1270,420 1264,417 1259,413 1254,410 1248,407 1248,407"/>
<polygon class="pen1 brush0" points="1298,442 1303,446 1308,449 1313,453 1318,456 1323,460 1328,464 1332,467 1337,471 1337,492 1335,511 1332,529 1327,546 1321,544 1316,543 1310,541 1305,539 1299,537 1293,535 1287,534 1281,532 1288,512 1293,490 1297,466 1298,442 1298,442"/>
<polygon class="pen1 brush0" points="1345,479 1344,498 1342,516 1339,533 1335,549 1340,551 1345,552 1350,554 1355,555 1360,557 1365,559 1370,561 1375,563 1378,552 1380,541 1381,529 1382,516 1378,511 1374,506 1369,501 1365,497 1360,492 1355,488 1350,483 1345,479 1345,479"/>
<polygon class="pen1 brush0" points="1391,525 1397,532 1403,539 1409,546 1415,553 1421,561 1426,568 1431,576 1436,584 1435,584 1432,583 1428,581 1422,579 1414,576 1405,573 1394,569 1382,564 1385,555 1387,546 1389,535 1391,525"/>
</g>
</svg>
