<?xml version="1.0" encoding="UTF-8" standalone="no"?>
<!DOCTYPE svg PUBLIC "-//W3C//DTD SVG 1.0//EN" "http://www.w3.org/TR/2001/REC-SVG-20010904/DTD/svg10.dtd">
<svg xmlns="http://www.w3.org/2000/svg" xmlns:xlink="http://www.w3.org/1999/xlink" fill-rule="evenodd" height="0.943in" preserveAspectRatio="none" stroke-linecap="round" viewBox="0 0 1976 943" width="1.976in">
<style type="text/css">
.brush0 { fill: rgb(255,255,255); }
.pen0 { stroke: rgb(0,0,0); stroke-width: 1; stroke-linejoin: round; }
.brush1 { fill: none; }
.pen1 { stroke: none; }
.brush2 { fill: rgb(0,0,0); }
</style>
<g>
<polygon class="pen1 brush2" points="0,479 3,468 8,455 13,440 21,423 31,404 45,384 62,362 84,339 111,316 143,291 182,266 227,240 279,215 340,189 409,164 487,139 491,133 503,119 520,98 540,73 562,49 582,28 599,14 611,8 614,8 620,7 629,6 640,4 653,3 667,2 683,1 700,0 646,131 662,131 714,0 727,0 741,1 756,1 772,2 788,4 806,6 824,8 843,11 795,128 811,128 856,14 869,16 882,19 896,22 909,26 923,30 938,34 952,39 967,44 926,149 940,149 980,47 996,52 1011,58 1027,64 1044,71 1060,78 1077,86 1095,94 1112,102 1058,193 1072,197 1125,109 1137,115 1149,121 1161,128 1173,134 1185,141 1197,148 1209,155 1221,163 1167,240 1183,243 1234,170 1244,177 1255,184 1266,191 1277,198 1288,206 1299,214 1310,222 1322,230 1270,294 1284,298 1332,237 1342,244 1352,251 1362,259 1372,266 1382,274 1392,281 1402,289 1412,297 1366,321 1367,322 1369,324 1373,328 1379,333 1386,337 1396,342 1409,346 1424,350 1441,352 1462,352 1485,351 1512,347 1543,340 1577,329 1614,315 1656,297 1691,281 1723,268 1752,257 1778,248 1801,241 1822,236 1841,232 1857,230 1872,229 1886,229 1898,230 1909,231 1919,233 1929,236 1938,238 1947,240 1964,245 1972,252 1976,260 1976,270 1976,717 1975,725 1972,732 1965,736 1956,736 1942,732 1924,728 1903,723 1880,719 1855,713 1829,708 1801,701 1773,695 1744,687 1717,679 1689,670 1664,661 1639,651 1617,640 1598,628 1582,615 1564,600 1545,588 1524,578 1503,571 1482,566 1460,563 1438,563 1417,564 1396,567 1376,572 1357,578 1339,585 1323,594 1309,603 1297,614 1287,625 1290,627 1299,632 1313,638 1331,647 1351,655 1373,664 1395,671 1417,676 1415,678 1408,683 1398,691 1384,701 1367,714 1346,728 1324,744 1299,760 1273,777 1244,794 1215,811 1185,827 1155,842 1125,855 1094,866 1065,875 1063,874 1058,871 1050,865 1040,859 1027,850 1013,841 998,830 982,819 965,808 949,796 933,784 917,772 903,761 891,751 881,741 873,733 870,733 862,734 849,736 833,738 813,740 790,743 766,745 740,747 713,749 686,751 660,752 634,752 611,752 590,750 571,748 557,744 558,747 561,753 566,764 573,777 581,791 592,806 605,821 619,835 617,838 613,846 606,859 596,874 584,891 570,909 555,927 538,943 533,937 519,919 500,893 477,861 453,824 431,785 414,746 403,710 395,708 387,707 380,705 373,704 365,702 358,700 352,698 345,696 382,652 335,638 284,673 245,660 209,647 177,635 148,622 122,610 99,598 79,586 62,576 48,566 36,557 26,548 18,542 13,536 9,531 7,528 7,527 10,525 17,520 26,512 38,504 49,496 58,488 65,483 68,480 0,479"/>
<polygon class="pen1 brush0" points="191,378 197,377 202,376 208,373 212,369 216,365 219,360 220,354 221,348 220,342 219,336 216,331 212,327 208,323 202,320 197,319 191,318 180,320 171,327 164,336 162,348 164,360 171,369 180,376 191,378"/>
<polygon class="pen1 brush0" points="558,239 570,237 578,231 584,222 586,210 584,200 578,191 570,185 558,183 548,185 539,191 533,200 531,210 533,222 539,231 548,237 558,239"/>
<polygon class="pen1 brush0" points="733,231 742,229 749,224 753,216 755,207 753,198 749,190 742,185 733,183 724,185 716,190 711,198 709,207 711,216 716,224 724,229 733,231"/>
<polygon class="pen1 brush0" points="882,254 890,252 897,248 901,241 903,233 901,225 897,219 890,215 882,213 875,215 868,219 864,225 862,233 864,241 868,248 875,252 882,254"/>
<polygon class="pen1 brush0" points="1014,297 1020,296 1026,293 1029,288 1031,281 1029,275 1026,270 1020,267 1014,266 1008,267 1003,270 999,275 998,281 999,288 1003,293 1008,296 1014,297"/>
<polygon class="pen1 brush0" points="1160,368 1165,367 1170,364 1173,360 1174,354 1173,348 1170,343 1165,340 1160,339 1155,340 1150,343 1147,348 1146,354 1147,360 1150,364 1155,367 1160,368"/>
<polygon class="pen1 brush0" points="1707,315 1715,312 1724,308 1735,305 1746,302 1759,298 1773,295 1787,292 1802,289 1818,286 1834,284 1851,282 1867,280 1884,278 1900,277 1917,276 1933,276 1931,276 1927,278 1919,280 1909,283 1897,286 1884,291 1869,296 1854,301 1838,307 1822,314 1806,321 1791,328 1777,336 1765,344 1754,352 1745,361 1707,315"/>
<polygon class="pen1 brush0" points="1768,383 1774,401 1776,411 1777,421 1780,439 1785,437 1798,432 1817,424 1840,415 1864,405 1888,395 1908,386 1922,378 1768,383"/>
<polygon class="pen1 brush0" points="1774,467 1788,467 1806,467 1825,467 1846,468 1867,468 1887,470 1906,471 1923,473 1918,474 1904,477 1883,482 1859,487 1833,493 1809,499 1788,504 1774,507 1774,467"/>
<polygon class="pen1 brush0" points="1707,649 1715,652 1724,655 1735,658 1746,662 1759,665 1773,668 1787,671 1802,674 1818,677 1834,679 1851,681 1867,683 1884,685 1900,686 1917,687 1933,687 1931,687 1927,685 1919,683 1909,680 1897,677 1884,672 1869,668 1854,662 1838,656 1822,650 1806,643 1791,635 1777,627 1765,619 1754,611 1745,602 1707,649"/>
<polygon class="pen1 brush0" points="1768,581 1774,563 1776,552 1777,542 1780,524 1785,526 1798,531 1817,539 1840,549 1864,559 1888,569 1908,578 1922,585 1768,581"/>
<polygon class="pen1 brush0" points="375,327 424,320 471,314 516,310 560,307 602,306 643,306 682,307 720,309 756,313 791,317 825,323 858,329 889,336 919,344 948,352 976,361 1003,370 1028,380 1053,390 1077,400 1100,411 1123,421 1144,432 1165,442 1185,452 1205,463 1224,472 1242,482 1260,491 1277,499 1294,507 1311,514 1291,520 1271,527 1250,535 1229,543 1208,552 1186,561 1163,570 1140,580 1117,590 1093,599 1068,609 1043,618 1017,628 990,637 963,645 935,653 907,661 878,668 848,674 817,680 785,684 753,688 720,690 686,692 651,692 615,691 579,688 541,684 503,679 464,672 423,663 382,652 335,638 344,631 355,622 367,612 379,600 391,587 402,572 413,555 421,536 428,516 432,494 433,471 431,446 424,419 413,390 397,359 375,327"/>
</g>
</svg>
