<?xml version="1.0" encoding="UTF-8" standalone="no"?>
<!DOCTYPE svg PUBLIC "-//W3C//DTD SVG 1.0//EN" "http://www.w3.org/TR/2001/REC-SVG-20010904/DTD/svg10.dtd">
<svg xmlns="http://www.w3.org/2000/svg" xmlns:xlink="http://www.w3.org/1999/xlink" fill-rule="evenodd" height="1.419in" preserveAspectRatio="none" stroke-linecap="round" viewBox="0 0 1993 1419" width="1.993in">
<style type="text/css">
.brush0 { fill: rgb(255,255,255); }
.pen0 { stroke: rgb(0,0,0); stroke-width: 1; stroke-linejoin: round; }
.brush1 { fill: none; }
.pen1 { stroke: none; }
.brush2 { fill: rgb(0,0,0); }
</style>
<g>
<polygon class="pen1 brush2" points="1168,1048 1146,1078 1131,1111 1121,1144 1114,1175 1111,1203 1110,1226 1111,1241 1111,1246 1176,1230 1174,1182 1182,1143 1195,1111 1212,1087 1229,1069 1245,1057 1257,1050 1261,1048 1252,1033 1245,1020 1240,1006 1236,991 1232,973 1227,950 1220,921 1210,885 1194,832 1177,787 1157,749 1136,717 1112,692 1087,671 1059,656 1030,645 998,638 964,635 928,634 890,636 849,640 807,645 762,651 715,658 695,661 675,665 654,669 633,673 612,677 591,682 570,687 549,693 528,699 506,705 485,711 463,717 441,724 419,731 397,738 376,745 353,752 331,760 309,767 287,774 265,782 243,789 221,797 199,805 177,812 155,819 133,827 111,834 89,841 67,848 46,855 24,862 44,885 70,882 98,880 128,878 160,875 194,873 229,871 265,869 303,868 342,867 382,867 422,866 463,867 505,868 547,869 588,871 630,874 672,877 713,882 754,887 795,893 834,899 872,907 910,916 946,926 980,937 1013,949 1044,962 1073,977 1101,993 1125,1010 1148,1028 1168,1048"/>
<polygon class="pen1 brush2" points="1220,872 1229,909 1237,940 1243,966 1249,987 1254,1006 1261,1023 1268,1038 1277,1054 1273,1056 1261,1061 1245,1072 1227,1087 1210,1109 1196,1138 1187,1174 1186,1219 1215,1211 1242,1203 1265,1195 1285,1187 1303,1179 1319,1171 1332,1163 1343,1155 1352,1149 1359,1142 1365,1136 1370,1132 1373,1128 1375,1125 1376,1123 1376,1122 1356,1031 1337,912 1318,776 1300,637 1282,507 1263,396 1243,318 1222,284 1181,288 1139,293 1098,299 1057,306 1015,314 974,324 933,334 893,345 852,357 812,370 771,383 731,398 691,414 652,430 613,447 574,465 535,483 496,502 458,522 420,543 383,564 346,586 309,608 273,631 237,655 202,679 167,703 133,728 99,753 65,779 32,805 0,832 4,836 12,844 20,851 24,855 45,848 65,841 86,834 107,827 128,819 150,812 171,804 193,796 215,789 237,781 258,773 280,765 302,758 325,750 347,743 369,735 391,728 413,721 436,714 458,707 480,700 502,694 524,688 547,682 569,676 591,671 612,666 634,661 656,657 677,653 699,649 720,646 767,640 812,633 854,628 895,624 933,622 969,622 1004,625 1036,632 1066,642 1094,657 1120,678 1144,703 1166,735 1186,773 1204,819 1220,872"/>
<polygon class="pen1 brush2" points="1288,402 1297,405 1308,408 1321,411 1336,414 1352,417 1369,420 1388,422 1408,424 1430,425 1452,426 1475,425 1498,424 1522,422 1547,418 1572,413 1597,406 1669,929 1665,938 1662,954 1660,971 1659,983 1657,984 1649,987 1638,992 1624,998 1607,1005 1587,1013 1566,1022 1543,1031 1520,1041 1497,1050 1474,1059 1452,1067 1432,1075 1415,1081 1400,1086 1388,1089 1288,402 1288,402"/>
<polygon class="pen1 brush2" points="1626,504 1685,922 1694,917 1703,912 1714,906 1726,899 1739,892 1753,885 1767,877 1781,869 1742,578 1723,566 1705,554 1688,543 1672,533 1658,524 1645,516 1635,509 1626,504 1626,504"/>
<polygon class="pen1 brush2" points="1759,585 1767,591 1775,597 1784,602 1792,608 1801,613 1810,618 1818,624 1827,629 1855,834 1848,838 1840,841 1833,845 1826,849 1819,853 1812,856 1804,860 1797,864 1759,585 1759,585"/>
<polygon class="pen1 brush2" points="1844,638 1871,828 1877,825 1884,822 1890,819 1896,815 1902,812 1908,809 1914,805 1920,802 1903,675 1896,670 1889,666 1882,661 1875,656 1867,652 1860,647 1852,643 1844,638 1844,638"/>
<polygon class="pen1 brush2" points="1919,683 1932,690 1944,697 1954,703 1964,708 1972,712 1978,716 1984,718 1987,720 1988,724 1989,735 1990,751 1987,771 1986,772 1983,773 1979,776 1973,779 1965,783 1957,787 1947,792 1936,797 1919,683"/>
<polygon class="pen1 brush2" points="274,1122 275,1121 279,1120 285,1117 293,1114 301,1111 311,1107 321,1104 332,1101 330,1103 325,1108 318,1116 309,1126 298,1139 287,1153 277,1170 267,1187 246,1171 226,1153 208,1135 191,1116 176,1096 162,1076 149,1056 136,1036 124,1016 113,997 103,978 92,959 82,941 72,925 62,909 51,895 78,892 106,890 136,887 168,885 201,882 236,880 271,879 308,877 346,876 384,875 424,875 463,875 503,876 543,878 584,880 624,882 664,886 704,890 743,895 782,900 820,907 857,915 893,923 929,933 962,943 995,955 1026,968 1055,982 1082,997 1108,1014 1131,1032 1152,1051 1134,1075 1121,1102 1112,1130 1106,1159 1102,1186 1101,1210 1100,1231 1101,1247 1089,1249 1077,1251 1063,1254 1049,1257 1034,1261 1019,1264 1004,1266 990,1268 989,1240 987,1220 985,1209 984,1206 995,1215 1006,1223 1017,1230 1026,1237 1035,1243 1041,1247 1045,1250 1047,1251 1045,1228 1038,1205 1027,1181 1014,1159 1001,1140 990,1125 982,1115 979,1111 989,1114 997,1116 1003,1117 1008,1119 1012,1121 1017,1124 1023,1127 1031,1131 1017,1106 1002,1082 984,1060 966,1040 946,1021 925,1004 902,988 879,974 854,961 829,950 803,941 777,933 749,927 722,922 694,919 666,918 638,918 610,920 582,924 554,929 526,936 499,944 473,955 447,966 421,980 397,995 373,1012 351,1031 330,1051 310,1073 291,1097 274,1122"/>
<polygon class="pen1 brush2" points="702,1359 595,1361 588,1369 580,1378 569,1385 557,1393 541,1399 522,1405 501,1409 476,1412 442,1409 415,1396 395,1377 380,1355 370,1332 365,1313 362,1298 361,1293 347,1309 339,1324 335,1335 334,1339 326,1315 322,1289 322,1263 324,1239 327,1217 331,1200 334,1189 335,1185 323,1190 312,1197 301,1205 291,1213 282,1221 276,1227 272,1231 270,1233 276,1211 288,1186 304,1162 322,1138 339,1117 354,1100 364,1089 368,1085 357,1086 346,1087 336,1089 328,1091 320,1093 315,1095 311,1096 310,1097 321,1084 333,1071 345,1059 357,1048 369,1037 382,1027 396,1017 410,1008 424,999 439,991 455,983 472,976 489,969 508,962 527,956 548,950 529,942 506,930 478,913 449,891 416,864 383,830 349,788 314,740 281,683 249,617 218,541 191,456 168,360 148,252 134,132 125,0 146,0 155,133 170,254 189,362 214,458 242,544 273,619 305,684 340,740 375,788 410,828 444,861 476,888 506,909 533,925 557,936 575,943 587,941 598,939 610,938 622,937 633,936 645,936 656,936 668,936 679,936 691,937 702,938 714,939 725,940 737,942 749,945 761,947 777,941 799,932 825,918 855,899 889,875 924,843 961,804 998,757 1035,701 1070,636 1103,560 1133,473 1159,374 1180,263 1196,138 1205,0 1223,0 1214,137 1199,261 1178,372 1153,471 1125,558 1093,635 1060,701 1025,758 989,806 954,847 920,879 888,906 858,926 832,941 811,951 794,957 810,962 826,966 841,972 855,978 869,984 883,992 897,1000 910,1008 922,1017 934,1028 946,1039 958,1051 969,1063 980,1077 991,1092 1001,1108 1000,1107 997,1105 992,1102 985,1098 977,1094 967,1091 957,1089 946,1088 949,1092 959,1102 972,1118 987,1138 1002,1160 1016,1184 1027,1208 1033,1230 1032,1228 1027,1224 1021,1217 1012,1209 1002,1201 991,1193 979,1186 967,1180 970,1196 975,1236 975,1288 963,1339 962,1335 958,1324 950,1309 935,1293 934,1298 932,1313 926,1332 916,1355 902,1377 882,1396 855,1409 821,1412 796,1409 775,1405 757,1399 741,1393 728,1385 718,1377 709,1368 702,1359"/>
<polygon class="pen1 brush0" points="717,1037 724,1038 730,1039 736,1041 741,1044 745,1048 748,1053 749,1058 750,1064 749,1070 746,1076 742,1081 737,1085 731,1088 725,1090 719,1091 712,1091 683,1132 694,1143 703,1158 709,1174 712,1192 730,1173 728,1187 724,1200 719,1211 712,1221 706,1228 702,1232 699,1234 700,1233 705,1233 710,1234 715,1234 720,1235 724,1235 729,1235 734,1234 739,1233 735,1244 728,1252 720,1256 710,1259 699,1260 689,1261 680,1260 672,1260 671,1261 670,1264 667,1266 662,1268 670,1278 678,1286 687,1294 697,1301 705,1307 713,1311 718,1315 722,1318 719,1316 709,1314 694,1311 675,1309 653,1308 628,1308 603,1311 578,1317 585,1312 592,1307 599,1301 606,1295 612,1289 619,1282 626,1275 632,1267 628,1266 624,1265 621,1262 619,1258 611,1259 602,1260 593,1259 584,1258 575,1255 569,1250 564,1242 561,1231 565,1233 569,1234 573,1235 578,1235 582,1235 586,1235 591,1235 595,1234 585,1220 576,1207 570,1193 567,1173 584,1189 586,1172 592,1157 600,1143 612,1132 588,1094 581,1095 574,1094 568,1093 561,1090 555,1086 551,1081 548,1075 547,1068 548,1063 549,1058 552,1053 556,1049 561,1046 567,1043 573,1042 580,1041 587,1042 592,1043 598,1046 602,1049 606,1053 609,1058 610,1063 611,1068 610,1073 609,1078 606,1082 602,1087 626,1124 632,1122 637,1121 643,1120 648,1120 653,1120 658,1121 664,1123 669,1125 696,1084 691,1079 688,1074 687,1069 686,1064 687,1058 688,1053 691,1048 695,1044 699,1041 705,1039 711,1038 717,1037"/>
<polygon class="pen1 brush2" points="646,1131 657,1132 667,1136 676,1142 684,1149 691,1158 696,1169 699,1181 700,1193 699,1205 696,1217 691,1228 684,1237 676,1245 667,1251 657,1255 646,1256 636,1255 626,1251 617,1245 610,1237 603,1228 598,1217 595,1205 594,1193 595,1181 598,1169 603,1158 610,1149 617,1142 626,1136 636,1132 646,1131"/>
<polyline class="pen0" fill="none" points="646,1131 646,1131 657,1132 667,1136 676,1142 684,1149 691,1158 696,1169 699,1181 700,1193 700,1193 699,1205 696,1217 691,1228 684,1237 676,1245 667,1251 657,1255 646,1256 646,1256 636,1255 626,1251 617,1245 610,1237 603,1228 598,1217 595,1205 594,1193 594,1193 595,1181 598,1169 603,1158 610,1149 617,1142 626,1136 636,1132 646,1131"/>
</g>
</svg>
