<?xml version="1.0" encoding="UTF-8" standalone="no"?>
<!DOCTYPE svg PUBLIC "-//W3C//DTD SVG 1.0//EN" "http://www.w3.org/TR/2001/REC-SVG-20010904/DTD/svg10.dtd">
<svg xmlns="http://www.w3.org/2000/svg" xmlns:xlink="http://www.w3.org/1999/xlink" fill-rule="evenodd" height="1.836in" preserveAspectRatio="none" stroke-linecap="round" viewBox="0 0 1944 1836" width="1.944in">
<style type="text/css">
.brush0 { fill: rgb(255,255,255); }
.pen0 { stroke: rgb(0,0,0); stroke-width: 1; stroke-linejoin: round; }
.brush1 { fill: none; }
.pen1 { stroke: none; }
.brush2 { fill: rgb(0,0,0); }
</style>
<g>
<polygon class="pen1 brush2" points="0,639 2,638 7,635 15,630 25,624 39,617 54,609 71,602 89,594 109,587 129,581 150,576 172,573 193,572 214,573 235,577 254,584 265,589 277,596 292,604 308,614 326,624 346,636 367,648 390,661 414,675 439,690 466,705 493,720 521,736 550,752 580,767 611,783 642,798 673,813 705,828 737,842 769,855 800,867 832,879 864,889 895,899 926,907 957,914 987,919 1016,923 1044,925 1072,925 1098,923 1135,918 1171,912 1207,904 1242,895 1276,885 1310,873 1343,861 1375,847 1407,833 1437,817 1467,802 1495,785 1523,768 1549,751 1574,733 1598,715 1694,817 1657,861 1619,901 1581,938 1542,972 1504,1002 1466,1029 1427,1053 1388,1074 1350,1093 1311,1109 1273,1122 1235,1132 1197,1141 1159,1146 1122,1150 1085,1152 1043,1152 1003,1151 965,1148 929,1144 895,1139 863,1133 833,1125 804,1117 776,1108 748,1098 722,1087 696,1075 671,1063 646,1050 620,1037 595,1023 599,1016 610,999 624,973 637,942 647,909 649,877 641,850 619,830 604,825 587,825 570,829 553,835 536,843 521,851 509,858 501,864 504,863 511,860 522,856 537,852 552,849 569,848 586,850 602,855 613,863 621,876 623,894 618,917 605,946 583,981 550,1024 504,1075 503,1076 501,1079 497,1081 491,1084 484,1084 474,1083 463,1077 450,1067 451,1064 456,1056 461,1044 469,1029 476,1013 484,996 491,980 497,966 492,963 479,954 458,940 431,922 398,900 361,875 321,848 279,820 236,792 193,763 151,736 112,710 76,687 45,667 19,650 0,639 0,639"/>
<polygon class="pen1 brush2" points="1646,676 1731,769 1742,754 1753,739 1763,724 1774,709 1784,694 1793,679 1803,663 1812,648 1727,588 1718,600 1709,611 1699,622 1688,633 1678,644 1667,655 1657,665 1646,676 1646,676"/>
<polygon class="pen1 brush2" points="1764,537 1771,527 1777,516 1784,504 1791,492 1798,480 1805,468 1812,455 1819,442 1897,472 1892,486 1886,501 1880,516 1873,531 1866,547 1859,562 1851,578 1842,594 1764,537 1764,537"/>
<polygon class="pen1 brush2" points="1845,385 1850,371 1855,357 1861,343 1866,328 1871,314 1876,299 1880,284 1885,269 1940,281 1937,312 1932,344 1925,377 1916,412 1845,385 1845,385"/>
<polygon class="pen1 brush2" points="1899,209 1906,158 1909,106 1909,53 1903,0 1905,4 1909,15 1916,33 1924,58 1931,89 1938,127 1942,170 1944,219 1899,209 1899,209"/>
<polygon class="pen1 brush2" points="440,1085 418,1123 407,1159 405,1193 409,1223 416,1248 424,1267 431,1279 434,1283 427,1249 428,1216 432,1192 434,1183 437,1200 442,1218 448,1236 455,1253 462,1268 468,1279 472,1287 474,1290 469,1257 467,1223 467,1197 467,1186 472,1201 479,1217 488,1231 497,1245 505,1257 512,1266 517,1272 519,1274 508,1246 500,1215 495,1190 494,1179 498,1189 504,1197 511,1205 519,1211 526,1216 532,1220 536,1222 538,1223 531,1211 524,1194 517,1173 510,1152 503,1131 498,1114 495,1102 494,1098 482,1098 471,1097 462,1095 454,1093 448,1090 444,1087 441,1086 440,1085 440,1085"/>
<polygon class="pen1 brush2" points="937,1186 941,1186 952,1185 969,1185 990,1183 1013,1182 1037,1181 1060,1179 1081,1178 1078,1183 1069,1198 1055,1218 1039,1243 1021,1269 1004,1294 988,1315 975,1330 980,1336 993,1352 1011,1375 1034,1401 1058,1430 1080,1457 1100,1479 1115,1494 1121,1501 1122,1511 1120,1522 1115,1532 1106,1541 1096,1546 1085,1548 1072,1545 1062,1538 1049,1528 1033,1516 1015,1503 995,1488 975,1471 954,1453 935,1434 916,1414 899,1393 885,1373 874,1351 866,1331 863,1310 865,1290 873,1270 893,1237 908,1214 920,1199 928,1190 933,1186 935,1185 937,1185 937,1186 937,1186"/>
<polygon class="pen1 brush2" points="1062,1566 1026,1564 993,1563 964,1565 939,1568 916,1572 897,1578 880,1584 866,1591 854,1598 844,1605 837,1611 831,1617 827,1622 824,1626 822,1629 822,1630 843,1618 867,1610 892,1604 916,1601 937,1599 955,1599 967,1599 971,1599 928,1611 893,1625 865,1639 845,1653 831,1666 821,1676 816,1683 815,1686 831,1676 850,1667 871,1659 891,1653 909,1648 924,1645 934,1643 938,1642 893,1674 861,1702 838,1726 824,1745 816,1760 812,1771 812,1778 812,1780 820,1768 829,1755 840,1743 853,1732 866,1721 879,1710 893,1700 907,1691 920,1682 932,1675 944,1668 954,1663 962,1658 969,1655 973,1653 974,1652 942,1692 918,1728 901,1759 890,1786 883,1807 880,1823 879,1833 879,1836 888,1813 899,1792 912,1771 926,1753 941,1735 956,1719 971,1704 987,1691 1001,1679 1015,1669 1028,1660 1039,1653 1048,1647 1055,1643 1059,1641 1061,1640 1058,1659 1050,1678 1041,1698 1030,1717 1019,1733 1010,1746 1003,1755 1001,1758 1028,1741 1051,1717 1069,1688 1084,1657 1095,1629 1102,1604 1107,1587 1108,1581 1101,1580 1093,1579 1085,1576 1078,1573 1072,1571 1067,1568 1063,1567 1062,1566"/>
<polygon class="pen1 brush0" points="160,662 170,660 179,654 185,645 187,635 185,623 179,615 170,609 160,607 149,609 140,615 134,623 132,635 134,645 140,654 149,660 160,662"/>
</g>
</svg>
