<?xml version="1.0" encoding="UTF-8" standalone="no"?>
<!DOCTYPE svg PUBLIC "-//W3C//DTD SVG 1.0//EN" "http://www.w3.org/TR/2001/REC-SVG-20010904/DTD/svg10.dtd">
<svg xmlns="http://www.w3.org/2000/svg" xmlns:xlink="http://www.w3.org/1999/xlink" fill-rule="evenodd" height="0.844in" preserveAspectRatio="none" stroke-linecap="round" viewBox="0 0 1984 844" width="1.984in">
<style type="text/css">
.brush0 { fill: rgb(255,255,255); }
.pen0 { stroke: rgb(0,0,0); stroke-width: 1; stroke-linejoin: round; }
.brush1 { fill: none; }
.pen1 { stroke: none; }
.brush2 { fill: rgb(0,0,0); }
</style>
<g>
<polygon class="pen1 brush2" points="960,186 958,186 956,185 954,184 952,184 956,170 925,165 919,183 917,183 915,183 913,183 911,183 916,163 886,156 878,183 876,183 874,183 871,183 869,183 878,156 848,149 838,183 835,183 833,183 830,183 827,183 838,148 808,142 796,184 794,184 791,185 789,186 786,186 800,140 770,136 753,187 751,188 748,189 745,189 743,189 760,133 730,129 710,193 708,193 706,193 703,193 700,194 722,126 714,124 708,120 702,114 696,109 668,200 666,200 663,200 660,200 658,200 689,101 665,75 624,207 622,207 619,208 617,209 614,210 659,65 635,38 580,217 578,217 575,218 572,219 570,219 629,30 607,0 598,26 586,60 574,98 562,136 551,172 542,201 536,221 534,229 515,233 492,239 467,247 439,256 410,268 379,280 347,294 314,308 281,323 248,338 216,353 184,368 154,383 125,397 98,411 74,423 74,423 63,429 52,434 42,439 34,443 26,447 19,451 13,454 9,457 74,507 54,508 38,510 26,513 16,516 8,519 4,522 1,524 0,525 10,539 24,553 42,566 62,579 84,591 107,603 132,613 157,623 183,632 207,640 231,647 253,654 273,658 290,662 304,665 314,666 342,668 366,667 389,665 409,662 427,656 443,650 457,641 469,632 472,635 475,638 478,641 482,645 474,655 468,663 463,669 459,674 456,677 454,679 452,680 452,680 467,685 483,690 500,695 515,700 529,704 540,707 547,709 550,710 563,740 582,767 603,790 625,809 645,824 663,835 675,842 679,844 671,806 671,772 673,746 675,736 698,738 725,738 756,736 788,733 823,728 858,723 893,716 928,709 962,702 993,695 1022,689 1047,683 1068,678 1083,674 1093,671 1097,670 1110,679 1124,688 1139,697 1154,705 1170,713 1186,720 1201,727 1216,734 1231,740 1244,745 1256,750 1266,754 1275,757 1282,759 1286,761 1287,761 1278,751 1270,742 1263,732 1256,722 1249,711 1241,698 1232,682 1222,663 1225,642 1231,628 1241,620 1252,617 1262,617 1272,618 1278,620 1281,621 1289,602 1299,590 1311,584 1322,583 1333,585 1342,588 1349,591 1351,592 1358,574 1367,562 1378,557 1389,555 1400,557 1409,560 1416,563 1418,564 1423,547 1431,536 1441,531 1451,530 1460,531 1468,534 1474,537 1476,538 1479,520 1485,509 1494,503 1503,501 1513,502 1522,504 1528,506 1530,507 1536,488 1545,478 1555,473 1566,472 1576,475 1584,478 1590,482 1592,483 1595,465 1601,454 1610,448 1619,447 1628,447 1636,450 1642,452 1644,453 1646,443 1652,433 1659,423 1669,415 1679,407 1689,401 1700,395 1709,392 1722,410 1735,428 1749,446 1763,463 1777,481 1793,498 1808,514 1825,531 1841,547 1859,563 1877,578 1896,594 1915,609 1935,623 1956,638 1977,652 1980,654 1982,653 1982,651 1980,648 1960,619 1942,587 1924,553 1908,517 1893,481 1880,445 1869,409 1859,375 1821,358 1859,332 1859,306 1866,266 1876,217 1890,164 1904,112 1918,65 1930,28 1939,7 1939,5 1938,4 1937,4 1936,4 1913,19 1890,38 1869,60 1848,85 1828,111 1810,139 1793,166 1777,194 1763,221 1750,247 1739,270 1730,291 1723,308 1717,321 1714,329 1713,332 1699,333 1684,332 1668,328 1653,323 1639,317 1628,311 1620,306 1618,301 1605,306 1594,307 1585,305 1578,300 1573,295 1570,290 1568,286 1567,284 1554,291 1543,294 1534,292 1527,289 1521,284 1516,279 1514,275 1513,273 1499,280 1487,281 1477,279 1470,275 1463,269 1459,264 1457,260 1456,258 1443,266 1431,268 1421,267 1413,262 1407,256 1403,250 1400,246 1399,244 1386,254 1375,257 1365,255 1357,250 1350,244 1345,237 1342,232 1341,230 1323,242 1308,246 1296,244 1286,239 1279,232 1274,224 1272,218 1271,216 1255,227 1241,231 1228,230 1218,225 1209,218 1203,211 1199,205 1198,203 1192,211 1185,216 1179,219 1173,220 1167,218 1161,216 1156,212 1152,207 1151,210 1150,213 1149,215 1148,217 1146,217 1143,216 1141,215 1138,214 1140,211 1142,208 1144,205 1145,202 1141,196 1137,189 1133,183 1129,177 1124,186 1120,193 1115,201 1111,207 1109,207 1107,206 1104,205 1102,204 1107,195 1113,186 1119,177 1125,167 1122,159 1120,151 1117,144 1115,136 1109,145 1104,153 1099,161 1094,169 1089,177 1084,184 1080,192 1075,199 1073,199 1071,198 1068,197 1065,197 1070,189 1075,180 1081,172 1087,162 1092,153 1098,144 1105,134 1111,125 1109,116 1108,108 1106,99 1105,91 1096,104 1087,117 1078,130 1069,143 1060,156 1052,169 1044,181 1037,193 1035,192 1033,192 1031,192 1029,192 1036,179 1045,165 1053,150 1063,136 1072,121 1082,106 1092,92 1102,78 1101,70 1100,61 1098,52 1098,44 1086,60 1073,77 1060,95 1048,114 1035,133 1022,151 1011,170 1000,187 997,187 995,187 992,187 990,187 1002,167 1015,147 1028,126 1042,105 1057,84 1071,65 1084,47 1097,31 1096,19 1095,11 1095,5 1095,3 1080,16 1061,36 1041,60 1020,87 999,115 982,142 968,167 960,186"/>
<polygon class="pen1 brush0" points="182,486 193,484 202,478 207,469 209,459 207,448 202,439 193,434 182,432 172,434 163,439 157,448 155,459 157,469 163,478 172,484 182,486"/>
<polygon class="pen1 brush0" points="469,632 472,635 475,638 478,641 482,645 506,661 532,675 561,685 593,693 626,698 662,700 699,701 737,699 777,695 818,689 860,682 902,673 945,662 988,651 1031,639 1074,625 1116,611 1158,596 1199,581 1239,566 1277,551 1314,536 1350,521 1383,506 1415,492 1444,479 1470,466 1494,455 1515,445 1533,436 1547,429 1558,423 1560,423 1572,416 1585,409 1597,402 1610,395 1623,388 1635,381 1648,373 1661,366 1658,366 1650,365 1638,365 1620,364 1599,363 1573,362 1544,360 1511,359 1475,358 1436,356 1395,355 1352,354 1307,353 1260,352 1212,352 1163,351 1113,352 1063,352 1013,353 963,354 913,355 865,358 817,360 771,363 727,367 685,372 645,377 607,383 573,390 542,397 514,406 490,415 490,415 491,416 492,419 493,423 493,423 498,438 503,460 508,487 511,517 509,548 503,578 490,607 469,632"/>
<polygon class="pen1 brush2" points="693,585 682,582 672,580 660,577 649,575 638,573 627,571 615,569 604,567 602,575 613,576 625,578 636,580 647,582 658,584 670,586 681,589 692,592 693,585 693,585"/>
<polygon class="pen1 brush2" points="774,555 764,553 753,551 743,550 732,548 721,547 710,546 700,545 689,544 678,543 667,542 656,541 645,541 634,540 624,539 613,539 602,538 602,544 613,545 623,547 634,548 645,549 656,549 666,550 677,551 688,552 699,553 709,553 720,554 731,555 741,556 752,558 762,559 773,561 774,555 774,555"/>
<polygon class="pen1 brush2" points="892,513 874,510 856,507 838,505 819,504 801,503 782,503 764,503 745,503 726,504 708,505 689,507 671,509 652,511 634,513 616,515 598,517 600,524 618,522 637,520 655,518 673,517 691,516 709,514 727,514 746,513 764,513 782,513 800,513 818,514 836,515 854,516 873,518 891,520 892,513 892,513"/>
<polygon class="pen1 brush2" points="1105,444 1073,441 1041,439 1008,438 975,438 941,439 908,440 874,442 840,445 806,449 772,453 738,457 705,462 672,468 640,474 608,480 577,487 578,494 610,488 642,482 674,476 707,470 740,465 774,461 807,457 841,453 874,450 908,448 941,446 975,446 1008,446 1040,447 1073,449 1105,452 1105,444"/>
</g>
</svg>
