<?xml version="1.0" encoding="UTF-8" standalone="no"?>
<!DOCTYPE svg PUBLIC "-//W3C//DTD SVG 1.0//EN" "http://www.w3.org/TR/2001/REC-SVG-20010904/DTD/svg10.dtd">
<svg xmlns="http://www.w3.org/2000/svg" xmlns:xlink="http://www.w3.org/1999/xlink" fill-rule="evenodd" height="1.715in" preserveAspectRatio="none" stroke-linecap="round" viewBox="0 0 1979 1715" width="1.979in">
<style type="text/css">
.brush0 { fill: rgb(255,255,255); }
.pen0 { stroke: rgb(0,0,0); stroke-width: 1; stroke-linejoin: round; }
.brush1 { fill: none; }
.pen1 { stroke: none; }
.brush2 { fill: rgb(0,0,0); }
</style>
<g>
<polygon class="pen1 brush2" points="1104,1389 1108,1366 1116,1332 1129,1288 1146,1236 1166,1178 1190,1115 1216,1050 1245,982 1276,916 1308,851 1342,790 1376,734 1411,686 1447,646 1482,616 1516,599 1524,596 1534,592 1545,588 1559,582 1573,577 1589,573 1605,570 1622,568 1638,568 1654,571 1669,576 1683,585 1696,598 1707,616 1716,638 1722,665 1725,668 1732,670 1742,670 1755,670 1769,669 1786,670 1803,671 1820,674 1837,679 1852,687 1866,698 1877,713 1885,733 1890,757 1890,786 1885,822 1889,826 1899,833 1913,843 1929,857 1944,874 1956,895 1962,921 1960,952 1955,971 1946,993 1935,1019 1921,1046 1906,1075 1889,1106 1871,1136 1853,1166 1834,1196 1817,1224 1800,1249 1785,1272 1771,1292 1760,1308 1752,1319 1747,1325 1743,1327 1736,1327 1725,1325 1711,1323 1694,1320 1674,1317 1651,1314 1627,1311 1640,1284 1654,1257 1668,1231 1682,1205 1697,1180 1713,1156 1728,1133 1744,1111 1760,1089 1776,1069 1792,1050 1809,1032 1825,1015 1842,1000 1858,986 1875,974 1867,973 1850,985 1833,999 1816,1014 1800,1030 1783,1048 1767,1067 1750,1087 1734,1108 1718,1131 1703,1154 1687,1178 1673,1203 1658,1229 1644,1255 1630,1282 1617,1310 1608,1309 1600,1308 1591,1308 1582,1307 1574,1306 1565,1305 1556,1305 1547,1305 1561,1273 1576,1242 1591,1212 1607,1182 1623,1153 1640,1124 1657,1097 1675,1071 1692,1046 1711,1022 1729,999 1748,978 1766,959 1785,941 1804,926 1823,912 1813,909 1794,923 1775,939 1756,956 1737,976 1719,997 1700,1019 1682,1043 1664,1069 1646,1095 1629,1123 1612,1152 1595,1181 1580,1211 1564,1242 1550,1273 1536,1305 1526,1305 1516,1306 1506,1306 1496,1307 1485,1308 1474,1309 1463,1310 1452,1311 1466,1274 1481,1237 1497,1200 1514,1163 1532,1128 1551,1093 1570,1060 1590,1027 1611,996 1631,967 1653,939 1674,914 1696,890 1718,869 1740,851 1762,835 1752,831 1730,848 1708,867 1686,888 1664,912 1643,938 1621,966 1600,996 1580,1027 1560,1060 1540,1094 1522,1129 1504,1165 1487,1201 1471,1239 1456,1276 1442,1314 1434,1315 1426,1317 1418,1318 1410,1320 1402,1322 1394,1323 1386,1326 1378,1328 1391,1287 1406,1245 1422,1204 1440,1163 1458,1123 1478,1083 1499,1045 1520,1008 1542,973 1565,939 1588,907 1612,878 1636,851 1660,826 1684,805 1708,787 1698,785 1674,803 1649,825 1625,849 1601,876 1577,906 1554,938 1531,973 1509,1008 1487,1046 1466,1085 1447,1125 1428,1165 1411,1206 1395,1248 1380,1290 1367,1331 1356,1335 1344,1339 1333,1344 1321,1348 1310,1354 1298,1359 1286,1365 1274,1371 1286,1325 1299,1278 1315,1231 1333,1184 1352,1137 1372,1090 1395,1045 1418,1001 1442,958 1468,918 1494,880 1520,844 1547,812 1575,783 1602,758 1630,737 1620,734 1592,756 1564,781 1537,811 1509,843 1482,879 1456,918 1430,959 1406,1002 1382,1047 1360,1093 1339,1140 1320,1188 1303,1236 1287,1284 1274,1331 1263,1378 1256,1382 1248,1387 1241,1391 1233,1396 1226,1401 1219,1406 1212,1411 1205,1416 1211,1367 1221,1315 1234,1262 1249,1208 1268,1153 1288,1099 1311,1045 1336,992 1363,941 1391,892 1420,845 1451,802 1482,763 1513,728 1545,698 1577,673 1573,668 1541,693 1508,723 1476,759 1445,799 1414,842 1385,890 1356,939 1329,991 1304,1045 1281,1100 1260,1155 1242,1211 1227,1265 1214,1319 1205,1370 1199,1420 1195,1423 1190,1427 1186,1431 1182,1434 1177,1438 1173,1442 1168,1446 1164,1450 1161,1443 1156,1435 1149,1425 1142,1415 1133,1406 1124,1398 1114,1392 1104,1389"/>
<polygon class="pen1 brush2" points="807,1537 794,1531 778,1523 760,1513 740,1502 717,1488 692,1474 666,1458 638,1441 609,1423 578,1403 547,1383 515,1362 483,1341 450,1319 418,1297 385,1274 403,1270 420,1265 437,1257 453,1247 469,1234 482,1219 495,1201 506,1179 514,1193 526,1209 540,1227 556,1246 574,1267 593,1289 614,1311 636,1333 659,1356 682,1379 705,1400 728,1421 750,1441 771,1460 791,1476 810,1491 808,1504 807,1515 806,1527 807,1537 807,1537"/>
<polygon class="pen1 brush2" points="380,1270 401,1266 421,1260 440,1251 458,1238 475,1221 490,1201 503,1177 513,1148 517,1145 525,1146 537,1149 553,1153 570,1157 590,1161 610,1163 631,1162 632,1162 632,1162 632,1162 632,1162 632,1162 645,1159 658,1155 670,1148 681,1138 691,1126 701,1112 709,1094 716,1074 712,1063 708,1049 703,1031 698,1010 698,1010 699,1010 689,1037 678,1058 664,1074 649,1086 632,1093 615,1097 598,1099 581,1098 564,1096 548,1092 533,1088 520,1085 509,1082 500,1080 495,1080 492,1082 485,1104 476,1123 467,1140 456,1154 444,1167 431,1177 418,1186 404,1193 389,1198 374,1202 359,1204 344,1205 328,1206 313,1205 298,1203 283,1200 295,1209 307,1217 319,1226 331,1235 343,1244 355,1253 368,1261 380,1270 380,1270"/>
<polygon class="pen1 brush2" points="693,1010 693,994 686,964 678,930 670,894 661,856 652,817 644,777 636,737 628,697 612,689 596,684 581,681 566,681 552,683 539,686 526,690 515,695 504,701 494,707 485,713 477,719 470,724 465,727 461,730 458,730 426,721 396,716 370,715 347,718 326,723 307,730 291,739 277,749 264,760 254,771 245,782 237,792 231,800 226,807 222,811 218,812 187,810 160,811 134,815 112,821 92,829 74,838 58,848 45,859 33,870 24,882 16,892 10,903 5,912 2,920 1,925 0,929 1,938 6,949 12,961 22,974 33,989 47,1004 63,1020 81,1037 100,1055 121,1073 144,1092 168,1112 193,1132 219,1152 246,1173 274,1194 289,1197 305,1200 320,1201 336,1201 352,1201 368,1199 383,1195 398,1190 412,1183 426,1175 439,1164 451,1152 463,1137 473,1120 482,1100 489,1078 492,1076 498,1075 506,1077 517,1080 530,1084 545,1087 560,1090 577,1093 594,1093 611,1092 627,1088 643,1081 658,1070 672,1055 684,1035 693,1010 693,1010"/>
<polygon class="pen1 brush2" points="719,1081 712,1102 703,1119 694,1133 683,1144 672,1153 660,1159 648,1164 635,1166 641,1178 649,1191 658,1206 668,1222 680,1239 692,1257 704,1276 718,1295 732,1315 746,1335 761,1355 776,1374 791,1393 805,1412 820,1430 834,1447 835,1446 839,1443 843,1439 849,1434 855,1429 859,1424 863,1421 864,1420 852,1399 836,1370 819,1334 800,1292 780,1245 759,1193 739,1139 719,1081 719,1081"/>
<polygon class="pen1 brush2" points="831,1450 817,1432 802,1414 787,1395 771,1375 756,1355 741,1335 727,1315 712,1295 698,1275 685,1257 673,1239 662,1222 651,1206 642,1192 634,1179 628,1168 608,1168 588,1166 569,1162 552,1158 537,1154 525,1151 518,1150 514,1152 513,1157 511,1162 509,1167 507,1172 516,1186 527,1203 542,1221 558,1241 576,1262 596,1284 617,1307 639,1329 661,1352 684,1375 707,1397 730,1418 752,1438 773,1456 793,1473 811,1487 814,1477 818,1468 824,1459 831,1450"/>
<polygon class="pen1 brush2" points="868,1418 857,1400 845,1376 831,1347 815,1313 799,1275 782,1233 765,1187 747,1138 730,1087 714,1034 698,979 684,923 671,866 660,809 651,752 644,696 657,714 672,731 688,747 705,761 722,774 741,784 760,792 780,797 777,833 778,891 784,964 795,1048 813,1138 836,1229 867,1316 905,1393 900,1396 895,1399 890,1402 885,1405 880,1408 876,1411 872,1415 868,1418 868,1418"/>
<polygon class="pen1 brush2" points="642,686 650,697 658,708 667,718 676,728 685,738 695,747 706,756 717,764 728,772 739,778 751,783 764,788 776,791 789,793 802,794 816,793 818,795 820,800 823,809 827,821 831,835 837,850 844,867 854,883 866,900 880,915 897,930 918,942 942,952 971,958 1003,961 1040,960 1043,961 1046,965 1050,971 1055,979 1060,988 1067,998 1074,1008 1083,1019 1092,1028 1103,1037 1116,1045 1130,1051 1145,1055 1162,1056 1181,1054 1201,1048 1201,1048 1202,1047 1203,1047 1204,1046 1205,1045 1215,1021 1223,1002 1229,986 1233,974 1194,983 1161,979 1136,966 1115,947 1100,926 1088,907 1080,893 1074,888 1037,889 1005,886 976,880 952,870 931,858 914,843 899,828 887,811 878,794 870,778 865,763 860,749 857,737 854,728 852,722 850,720 831,721 813,719 796,715 779,708 763,700 748,690 733,678 719,665 706,652 694,637 682,622 672,607 662,592 653,577 646,563 639,550 638,582 638,616 640,651 642,686 642,686"/>
<polygon class="pen1 brush2" points="1203,1051 1189,1087 1174,1127 1159,1169 1143,1213 1129,1257 1116,1301 1105,1342 1097,1381 1093,1379 1088,1378 1084,1377 1079,1376 1075,1375 1070,1375 1066,1374 1061,1373 1062,1320 1066,1268 1072,1219 1080,1173 1088,1131 1097,1096 1105,1068 1111,1048 1123,1054 1135,1058 1147,1060 1158,1061 1169,1060 1180,1058 1192,1055 1203,1051 1203,1051"/>
<polygon class="pen1 brush2" points="1056,1372 1050,1371 1043,1370 1036,1369 1030,1369 1023,1369 1016,1369 1009,1369 1003,1369 990,1237 989,1116 996,1020 1005,966 1009,966 1012,966 1016,966 1020,966 1024,966 1029,965 1033,965 1037,964 1041,966 1046,972 1051,982 1059,994 1067,1007 1078,1021 1090,1034 1105,1045 1099,1065 1092,1093 1083,1128 1075,1170 1067,1216 1061,1266 1057,1319 1056,1372 1056,1372"/>
<polygon class="pen1 brush2" points="996,1369 984,1239 983,1119 989,1023 997,966 977,964 959,961 942,956 927,951 913,944 900,936 889,928 878,919 875,946 876,987 879,1038 886,1098 896,1165 910,1235 928,1306 949,1376 949,1376 949,1376 949,1376 949,1376 955,1375 962,1373 968,1372 974,1371 979,1370 985,1370 991,1369 996,1369 996,1369"/>
<polygon class="pen1 brush2" points="943,1379 921,1306 904,1233 890,1161 879,1093 873,1031 869,980 869,940 872,915 856,895 844,875 834,855 827,836 822,820 818,808 816,799 813,797 806,798 800,798 793,798 787,798 783,834 784,891 790,964 801,1047 818,1137 841,1228 871,1315 908,1392 912,1390 917,1388 921,1386 926,1384 930,1383 934,1381 939,1380 943,1379 943,1379"/>
<polygon class="pen1 brush2" points="639,540 646,553 653,568 662,583 671,598 682,614 694,629 706,644 719,658 734,672 748,684 764,695 781,704 798,710 816,715 834,717 853,716 855,718 857,723 860,732 863,743 868,757 873,773 881,789 890,805 902,822 917,838 934,852 955,864 979,874 1008,881 1040,884 1077,883 1083,888 1092,902 1103,921 1119,942 1139,961 1165,974 1197,979 1236,970 1248,945 1259,920 1272,895 1284,870 1297,846 1309,823 1322,800 1335,777 1349,756 1362,735 1375,716 1389,697 1402,680 1416,663 1429,648 1443,635 1431,581 1411,542 1387,516 1361,500 1335,491 1314,485 1299,480 1293,473 1285,425 1273,383 1257,347 1238,317 1217,292 1194,272 1170,256 1145,243 1121,234 1098,227 1076,222 1056,218 1040,216 1026,214 1017,212 1013,209 1003,190 992,171 981,154 970,138 958,124 945,110 933,97 920,85 907,75 894,65 881,56 868,48 854,41 841,34 827,29 814,24 800,19 785,15 771,12 757,9 744,7 730,5 717,4 705,4 678,3 654,4 632,6 613,9 597,12 586,14 579,16 576,17 580,25 590,49 604,88 619,144 632,216 642,303 646,407 641,527 641,530 640,533 639,536 639,540"/>
<polygon class="pen1 brush2" points="469,1617 675,1490 739,1524 725,1533 712,1542 698,1551 685,1559 671,1568 658,1577 645,1586 632,1595 618,1604 605,1612 592,1621 578,1629 565,1638 551,1646 538,1654 524,1662 515,1664 504,1662 492,1657 481,1648 472,1639 466,1630 465,1622 469,1617 469,1617"/>
<polygon class="pen1 brush2" points="394,1561 390,1567 391,1575 396,1585 405,1594 416,1603 427,1609 439,1612 449,1610 463,1602 477,1595 490,1587 504,1579 518,1571 531,1563 545,1554 558,1546 572,1538 585,1529 599,1521 612,1512 626,1504 639,1496 653,1487 666,1479 605,1443 394,1561 394,1561"/>
<polygon class="pen1 brush2" points="320,1506 316,1511 317,1519 322,1528 331,1538 341,1546 352,1553 363,1556 372,1555 386,1548 401,1541 415,1534 429,1526 443,1519 457,1512 471,1504 485,1497 499,1489 513,1481 527,1474 541,1466 555,1459 569,1451 583,1444 597,1436 539,1396 320,1506"/>
<polygon class="pen1 brush2" points="1328,1698 1336,1703 1345,1704 1355,1704 1364,1700 1372,1695 1378,1689 1380,1681 1378,1673 1368,1660 1351,1641 1328,1618 1304,1593 1280,1570 1260,1550 1245,1536 1240,1531 1243,1526 1252,1513 1265,1493 1280,1470 1294,1447 1307,1425 1315,1407 1318,1395 1316,1388 1312,1384 1306,1382 1298,1383 1289,1386 1279,1393 1268,1403 1257,1416 1171,1548 1328,1698"/>
<polygon class="pen1 brush2" points="1442,1673 1450,1677 1459,1678 1469,1677 1478,1674 1486,1669 1492,1662 1494,1655 1492,1647 1482,1634 1465,1615 1443,1592 1418,1567 1394,1543 1374,1523 1359,1509 1354,1504 1357,1499 1366,1486 1379,1467 1393,1444 1408,1421 1420,1399 1429,1381 1432,1369 1430,1362 1426,1358 1420,1356 1412,1356 1402,1359 1392,1366 1382,1376 1371,1389 1283,1523 1442,1673"/>
<polygon class="pen1 brush2" points="1553,1661 1560,1665 1570,1667 1579,1666 1588,1663 1596,1658 1601,1651 1603,1644 1601,1635 1591,1622 1574,1603 1552,1580 1528,1555 1504,1532 1484,1512 1470,1498 1465,1493 1468,1488 1477,1474 1490,1455 1504,1432 1518,1409 1531,1387 1540,1369 1543,1358 1541,1351 1536,1347 1530,1345 1522,1345 1512,1349 1503,1355 1492,1365 1482,1379 1394,1511 1553,1661"/>
<polygon class="pen1 brush2" points="897,1627 894,1631 890,1636 886,1639 881,1643 876,1646 871,1649 866,1651 860,1652 851,1652 843,1650 835,1648 829,1643 824,1638 820,1632 818,1625 817,1617 818,1608 822,1598 828,1590 837,1583 842,1590 848,1597 855,1603 862,1609 870,1614 878,1619 887,1623 897,1627"/>
<polygon class="pen1 brush2" points="1020,1627 1051,1616 1079,1601 1102,1583 1121,1562 1135,1540 1144,1516 1146,1493 1142,1469 1138,1458 1132,1447 1125,1437 1117,1428 1107,1420 1096,1413 1085,1407 1072,1401 1059,1397 1045,1394 1030,1392 1015,1391 1000,1391 985,1392 969,1394 953,1398 923,1409 896,1424 872,1442 853,1462 839,1484 831,1508 828,1531 831,1555 835,1566 841,1577 849,1587 857,1595 867,1604 877,1611 889,1617 901,1622 914,1627 928,1630 943,1633 957,1634 973,1634 988,1633 1004,1630 1020,1627"/>
<polygon class="pen1 brush0" points="266,916 274,917 282,919 289,923 295,928 300,934 304,941 306,948 307,956 306,964 304,972 300,979 295,985 289,990 282,994 274,996 266,997 258,996 251,994 244,990 238,985 233,979 229,972 227,964 226,956 227,948 229,941 233,934 238,928 244,923 251,919 258,917 266,916"/>
<polygon class="pen1 brush0" points="189,1010 195,1021 202,1031 210,1040 219,1048 230,1054 241,1059 252,1063 264,1065 282,1065 299,1061 315,1054 329,1045 341,1033 351,1019 358,1003 361,986 361,977 361,968 360,959 358,950 368,967 374,986 376,1006 374,1025 368,1043 359,1059 347,1072 333,1083 317,1091 300,1096 282,1097 263,1095 248,1091 235,1084 222,1075 212,1065 203,1053 196,1039 191,1025 189,1010"/>
<polygon class="pen1 brush0" points="492,807 500,808 507,810 514,814 520,819 526,824 530,831 532,838 533,846 532,854 530,862 526,868 520,874 514,879 507,882 500,884 492,885 484,884 476,882 469,879 463,874 459,868 455,862 453,854 452,846 453,838 455,831 459,824 463,819 469,814 476,810 484,808 492,807"/>
<polygon class="pen1 brush0" points="415,899 421,910 427,920 435,929 445,936 455,943 466,948 478,952 490,954 508,954 525,951 541,944 555,934 567,922 577,908 584,892 587,875 587,867 587,858 586,849 584,841 593,857 599,875 602,894 600,913 594,931 585,947 573,961 559,972 543,980 526,985 508,986 489,984 474,980 461,973 448,964 438,954 429,942 422,928 417,914 415,899"/>
<polygon class="pen1 brush0" points="858,284 866,298 868,314 865,329 855,341 849,346 842,349 835,352 827,352 819,352 812,349 805,346 799,341 790,327 788,312 791,297 800,284 807,278 814,275 822,272 830,272 838,272 845,275 852,279 858,284"/>
<polygon class="pen1 brush0" points="737,294 730,317 730,341 736,364 749,385 761,398 776,408 791,414 808,418 824,418 841,416 857,410 872,400 878,395 884,388 890,381 895,373 893,383 890,392 886,401 881,409 875,417 868,425 861,431 853,437 836,445 818,449 800,450 782,448 766,442 750,433 737,421 726,406 719,392 714,377 712,362 712,347 715,333 720,319 728,306 737,294"/>
<polygon class="pen1 brush0" points="1272,609 1280,623 1281,639 1277,654 1267,666 1260,671 1253,675 1246,676 1238,676 1231,675 1223,672 1216,668 1210,663 1202,649 1201,634 1205,619 1215,606 1221,601 1228,598 1235,596 1243,596 1251,598 1258,600 1266,604 1272,609"/>
<polygon class="pen1 brush0" points="1151,614 1143,637 1141,661 1146,684 1158,706 1170,719 1184,730 1199,737 1216,742 1233,743 1250,741 1267,735 1282,727 1288,721 1294,715 1300,707 1306,700 1303,710 1300,719 1295,728 1289,736 1283,744 1276,751 1268,758 1260,763 1243,770 1225,774 1207,774 1190,770 1173,764 1158,754 1145,741 1135,726 1128,712 1124,697 1123,682 1124,667 1127,652 1133,638 1141,625 1151,614"/>
<polygon class="pen1 brush0" points="1083,456 1089,470 1090,485 1085,499 1074,511 1067,515 1060,518 1052,519 1045,519 1037,517 1030,514 1023,510 1017,504 1011,490 1010,474 1015,459 1026,447 1033,443 1040,441 1048,440 1055,440 1063,442 1070,445 1077,450 1083,456"/>
<polygon class="pen1 brush0" points="962,450 953,473 950,496 953,520 963,543 974,557 987,569 1002,577 1018,582 1035,584 1051,583 1068,579 1084,571 1091,566 1098,561 1104,555 1110,548 1107,557 1103,566 1098,574 1092,582 1085,589 1077,595 1069,601 1060,605 1042,612 1025,614 1007,613 990,608 974,601 960,590 948,577 939,561 934,546 931,531 930,516 932,501 936,487 943,473 951,461 962,450"/>
<polygon class="pen1 brush0" points="992,1575 997,1576 1002,1579 1005,1583 1006,1588 1005,1594 1002,1599 997,1602 992,1603 986,1602 982,1599 980,1594 979,1588 980,1583 982,1579 986,1576 992,1575"/>
<polygon class="pen1 brush0" points="871,1521 876,1522 881,1525 884,1529 885,1534 884,1540 881,1544 876,1547 871,1548 866,1547 862,1544 859,1540 858,1534 859,1529 862,1525 866,1522 871,1521"/>
</g>
</svg>
