<?xml version="1.0" encoding="UTF-8" standalone="no"?>
<!DOCTYPE svg PUBLIC "-//W3C//DTD SVG 1.0//EN" "http://www.w3.org/TR/2001/REC-SVG-20010904/DTD/svg10.dtd">
<svg xmlns="http://www.w3.org/2000/svg" xmlns:xlink="http://www.w3.org/1999/xlink" fill-rule="evenodd" height="1.108in" preserveAspectRatio="none" stroke-linecap="round" viewBox="0 0 1983 1108" width="1.983in">
<style type="text/css">
.brush0 { fill: rgb(255,255,255); }
.pen0 { stroke: rgb(0,0,0); stroke-width: 1; stroke-linejoin: round; }
.brush1 { fill: none; }
.pen1 { stroke: none; }
.brush2 { fill: rgb(0,0,0); }
</style>
<g>
<polygon class="pen1 brush0" points="241,454 254,453 266,449 277,443 286,434 294,425 300,413 304,401 305,388 304,374 300,362 294,351 286,341 277,332 266,326 254,322 241,321 228,322 216,326 205,332 196,341 188,351 182,362 178,374 177,388 178,401 182,413 188,425 196,434 205,443 216,449 228,453 241,454"/>
<polygon class="pen1 brush2" points="248,353 255,354 262,356 268,359 274,363 278,369 281,375 283,382 284,389 283,396 281,403 278,409 274,414 268,419 262,422 255,424 248,425 241,424 234,422 228,419 223,414 218,409 215,403 213,396 212,389 213,382 215,375 218,369 223,363 228,359 234,356 241,354 248,353 176,273 159,289 144,305 129,322 114,338 100,354 88,369 75,385 64,399 54,413 44,426 35,439 27,450 20,460 14,470 8,477 4,484 58,548 0,543 17,568 35,590 53,610 72,628 91,643 110,656 128,667 146,677 163,685 178,691 192,696 204,700 214,703 221,705 225,706 227,706 286,688 331,665 364,640 387,612 401,582 406,551 405,520 399,489 388,460 375,431 360,406 345,383 331,365 319,350 311,341 308,338 358,386 394,431 418,473 432,512 436,548 432,581 422,611 407,638 388,662 368,682 346,700 325,714 307,726 292,734 282,738 278,740 303,755 330,769 357,782 386,793 415,804 443,813 471,821 499,828 524,834 548,839 569,843 587,846 602,849 613,851 621,852 623,852 637,903 656,951 678,994 701,1032 722,1064 740,1088 752,1103 757,1108 760,1086 770,1061 786,1035 804,1009 823,986 840,967 852,955 856,950 838,942 819,930 801,917 784,903 769,890 757,879 749,872 746,869 768,874 794,878 823,880 853,882 885,882 917,882 950,881 982,880 1012,879 1041,877 1067,875 1090,873 1109,872 1123,870 1132,869 1135,869 1270,927 1608,770 1504,740 1505,739 1509,737 1514,733 1522,729 1530,723 1539,716 1548,708 1557,700 1565,692 1572,686 1579,681 1586,679 1594,679 1602,681 1611,686 1621,693 1641,707 1662,721 1686,733 1710,745 1736,756 1762,767 1787,776 1812,784 1835,792 1857,798 1877,804 1895,809 1909,812 1920,815 1927,816 1929,817 1917,789 1899,754 1878,718 1856,681 1835,648 1818,620 1806,602 1801,595 1817,584 1832,570 1848,554 1864,536 1880,517 1895,497 1909,476 1923,456 1935,436 1947,418 1957,401 1966,386 1973,374 1979,364 1982,358 1983,356 1970,356 1954,357 1935,360 1914,365 1891,370 1866,376 1841,383 1815,391 1790,400 1764,409 1740,418 1717,427 1696,436 1678,445 1662,454 1649,462 1622,480 1599,495 1579,506 1562,514 1548,520 1535,523 1525,524 1517,523 1510,520 1504,515 1499,510 1495,503 1492,496 1488,489 1484,481 1480,473 1471,458 1462,444 1453,429 1445,415 1436,402 1427,389 1418,376 1409,364 1383,429 1369,429 1400,352 1391,340 1382,328 1373,317 1364,306 1355,296 1346,286 1338,276 1329,267 1301,338 1285,338 1319,257 1310,247 1300,238 1291,229 1281,220 1272,212 1262,204 1253,197 1244,189 1213,267 1197,266 1233,182 1221,174 1209,166 1197,158 1185,151 1173,145 1162,139 1150,133 1139,128 1108,209 1092,207 1128,122 1108,114 1088,108 1069,103 1052,99 1035,96 1019,93 1005,92 992,91 980,91 970,91 960,91 953,92 947,93 943,93 940,94 939,94 967,7 885,6 844,109 828,109 872,4 783,4 739,112 723,112 767,4 687,3 645,109 629,109 673,3 571,0 518,105 493,106 469,110 444,114 421,120 397,128 375,137 352,147 331,158 309,170 288,183 268,197 249,211 229,226 211,241 193,257 176,273 248,353"/>
</g>
</svg>
