<?xml version="1.0" encoding="UTF-8" standalone="no"?>
<!DOCTYPE svg PUBLIC "-//W3C//DTD SVG 1.0//EN" "http://www.w3.org/TR/2001/REC-SVG-20010904/DTD/svg10.dtd">
<svg xmlns="http://www.w3.org/2000/svg" xmlns:xlink="http://www.w3.org/1999/xlink" fill-rule="evenodd" height="1.763in" preserveAspectRatio="none" stroke-linecap="round" viewBox="0 0 1973 1763" width="1.973in">
<style type="text/css">
.brush0 { fill: rgb(255,255,255); }
.pen0 { stroke: rgb(0,0,0); stroke-width: 1; stroke-linejoin: round; }
.brush1 { fill: none; }
.pen1 { stroke: none; }
.brush2 { fill: rgb(0,0,0); }
</style>
<g>
<polygon class="pen1 brush2" points="1179,1567 1202,1567 1225,1565 1247,1560 1268,1554 1289,1545 1308,1535 1327,1522 1344,1508 1359,1493 1373,1476 1386,1458 1397,1438 1405,1417 1412,1396 1417,1373 1419,1350 1419,1327 1417,1304 1412,1282 1406,1260 1397,1240 1387,1220 1374,1202 1361,1185 1345,1169 1328,1155 1310,1142 1290,1132 1270,1123 1248,1116 1226,1111 1203,1109 1186,1109 1168,1110 1150,1113 1132,1116 1114,1120 1097,1126 1081,1132 1067,1139 1067,1165 1065,1191 1060,1216 1052,1240 1042,1263 1029,1284 1014,1304 996,1323 1002,1326 1018,1336 1040,1353 1065,1377 1090,1410 1110,1451 1122,1499 1122,1557 1129,1559 1136,1561 1143,1563 1150,1564 1157,1565 1164,1566 1171,1566 1179,1567 1179,1567"/>
<polygon class="pen1 brush2" points="1381,1192 1367,1175 1351,1160 1334,1147 1316,1135 1297,1125 1277,1116 1257,1110 1235,1105 1214,1102 1192,1101 1170,1101 1148,1104 1127,1109 1106,1115 1085,1124 1065,1134 1063,1115 1060,1098 1056,1082 1051,1067 1045,1053 1040,1040 1033,1028 1027,1017 1026,992 1028,968 1032,944 1040,921 1049,898 1061,877 1075,857 1090,838 1108,821 1127,806 1148,793 1169,782 1192,773 1217,767 1241,763 1267,763 1290,764 1313,768 1335,773 1356,781 1376,791 1395,802 1413,816 1429,831 1444,847 1457,865 1469,883 1479,903 1487,924 1492,946 1496,969 1497,992 1495,1023 1488,1053 1478,1082 1465,1109 1448,1134 1428,1156 1406,1176 1381,1192 1381,1192"/>
<polygon class="pen1 brush2" points="594,1139 582,1137 570,1134 557,1130 543,1125 529,1120 515,1113 500,1105 484,1096 469,1085 453,1073 437,1059 420,1044 404,1026 388,1007 371,986 355,963 331,919 315,875 306,832 302,792 299,756 296,725 291,699 281,681 273,673 262,665 248,658 232,651 214,645 195,639 174,635 153,632 131,631 109,632 88,635 67,640 48,647 30,657 14,670 0,686 1,685 3,681 7,674 13,667 20,658 29,648 41,638 54,627 70,618 87,609 107,602 130,596 155,593 183,592 213,595 246,601 244,600 239,598 231,595 220,591 207,586 192,580 176,574 158,568 139,562 119,556 99,550 79,544 59,539 39,535 21,532 4,530 6,530 10,530 18,529 28,529 41,529 55,529 71,529 89,530 107,531 127,533 147,535 167,538 188,541 208,546 227,551 246,557 243,550 233,532 220,506 204,476 186,444 170,414 156,390 146,374 158,389 176,410 198,436 221,464 244,490 263,513 276,528 281,534 283,494 290,454 299,414 310,377 320,345 329,320 336,303 338,297 325,372 321,454 320,521 321,548 327,515 335,486 345,460 357,438 370,419 384,403 398,389 413,378 427,369 441,362 453,356 464,352 474,350 481,348 485,347 487,347 449,365 420,395 398,432 383,473 375,514 372,553 375,586 383,609 389,618 398,627 409,635 422,645 437,654 453,663 471,673 489,683 508,693 527,703 545,714 564,725 582,736 598,747 614,759 628,771 635,778 641,785 647,792 651,798 655,805 659,811 662,818 666,824 668,841 671,857 675,874 680,890 686,906 693,921 701,936 710,949 705,952 692,962 674,978 652,999 631,1027 613,1059 599,1097 594,1139 594,1139"/>
<polygon class="pen1 brush2" points="1445,837 1454,832 1464,826 1474,820 1484,812 1495,804 1505,795 1516,785 1527,775 1538,764 1549,752 1560,739 1571,726 1582,711 1593,697 1604,681 1615,665 1639,621 1655,577 1664,534 1669,495 1672,458 1674,427 1680,401 1689,382 1697,374 1708,367 1722,359 1738,353 1756,347 1776,342 1797,338 1819,335 1841,334 1863,335 1884,338 1905,342 1925,350 1943,360 1959,372 1973,388 1972,387 1970,383 1966,377 1960,369 1953,360 1943,350 1932,340 1918,330 1903,320 1885,312 1865,304 1842,299 1817,296 1790,295 1760,298 1727,304 1729,303 1734,301 1742,298 1752,294 1765,289 1780,283 1797,277 1815,271 1834,265 1853,258 1873,252 1893,247 1913,242 1932,237 1950,234 1967,232 1965,232 1961,232 1953,232 1943,231 1930,231 1916,232 1900,232 1883,233 1864,234 1845,236 1825,238 1805,241 1784,244 1765,249 1745,254 1727,260 1730,253 1740,235 1753,209 1769,178 1786,146 1802,116 1815,92 1824,77 1813,91 1795,112 1774,138 1751,166 1729,192 1710,215 1697,230 1692,236 1690,197 1683,156 1674,117 1664,80 1653,48 1644,23 1637,6 1635,0 1647,75 1651,157 1650,224 1649,252 1643,219 1635,189 1625,164 1614,141 1601,122 1587,105 1573,92 1559,80 1545,71 1532,64 1519,59 1508,55 1499,53 1492,51 1488,50 1486,50 1523,68 1553,97 1574,134 1589,175 1597,217 1599,257 1596,290 1588,313 1582,321 1574,328 1563,335 1551,342 1538,348 1523,355 1507,362 1490,370 1473,379 1454,388 1436,399 1418,411 1399,425 1382,441 1364,459 1348,479 1319,521 1296,562 1279,601 1266,638 1257,673 1252,704 1251,732 1253,757 1266,756 1280,756 1293,757 1306,759 1320,761 1332,764 1345,768 1358,773 1370,779 1382,785 1393,792 1404,799 1415,808 1426,817 1436,827 1445,837 1445,837"/>
<polygon class="pen1 brush2" points="1018,1009 1020,1000 1022,982 1025,957 1031,927 1044,894 1064,859 1095,824 1139,791 1135,770 1130,749 1122,730 1112,710 1101,692 1088,675 1074,658 1059,643 1042,629 1024,617 1006,606 986,597 966,590 945,584 924,581 902,580 879,581 856,585 834,590 813,598 793,608 775,619 757,632 741,647 726,663 712,680 701,699 691,719 683,740 678,762 674,785 673,808 674,827 676,846 680,864 685,882 691,899 699,916 708,931 719,946 738,937 758,929 779,924 800,920 821,918 842,918 863,920 883,923 903,928 923,935 942,943 959,953 976,965 991,978 1006,993 1018,1009 1018,1009"/>
<polygon class="pen1 brush2" points="990,1318 979,1313 967,1309 955,1305 943,1302 930,1300 917,1298 904,1297 891,1297 879,1297 867,1298 856,1299 844,1301 833,1304 822,1307 811,1310 800,1314 790,1319 780,1323 770,1329 761,1335 752,1341 743,1347 735,1355 727,1362 700,1346 675,1327 654,1304 635,1279 620,1252 608,1222 601,1191 599,1158 600,1134 604,1112 609,1089 617,1068 627,1048 638,1028 652,1010 667,994 683,979 701,965 719,953 739,944 760,936 782,930 805,926 828,925 852,925 876,928 898,933 920,940 940,950 959,962 976,975 992,990 1007,1007 1020,1026 1031,1045 1040,1066 1048,1088 1053,1111 1056,1134 1057,1158 1056,1181 1052,1203 1047,1225 1039,1246 1029,1266 1018,1284 1005,1302 990,1318"/>
<polygon class="pen1 brush2" points="888,1763 911,1762 934,1758 955,1753 976,1745 996,1735 1015,1724 1032,1711 1048,1696 1063,1679 1076,1662 1088,1643 1097,1623 1105,1602 1110,1580 1114,1557 1115,1534 1114,1511 1110,1488 1105,1467 1097,1446 1088,1426 1076,1407 1063,1389 1048,1373 1032,1358 1015,1345 996,1334 976,1324 955,1316 934,1311 911,1307 888,1306 864,1307 842,1311 820,1316 799,1324 779,1334 760,1345 742,1358 726,1373 711,1389 698,1407 687,1426 677,1446 669,1467 664,1488 660,1511 659,1534 660,1557 664,1580 669,1602 677,1623 687,1643 698,1662 711,1679 726,1696 742,1711 760,1724 779,1735 799,1745 820,1753 842,1758 864,1762 888,1763"/>
<polygon class="pen1 brush0" points="889,1599 903,1598 916,1594 928,1587 938,1579 947,1569 953,1557 958,1544 959,1530 958,1516 953,1503 947,1491 938,1480 928,1471 916,1465 903,1460 889,1459 875,1460 862,1465 850,1471 840,1480 832,1491 825,1503 821,1516 820,1530 821,1544 825,1557 832,1569 840,1579 850,1587 862,1594 875,1598 889,1599 889,1599"/>
<polygon class="pen1 brush0" points="964,1456 960,1450 1017,1392 1023,1398 964,1456 964,1456"/>
<polygon class="pen1 brush0" points="991,1531 991,1523 1074,1523 1074,1531 991,1531 991,1531"/>
<polygon class="pen1 brush0" points="959,1604 964,1598 1023,1657 1017,1664 959,1604 959,1604"/>
<polygon class="pen1 brush0" points="883,1632 892,1632 892,1714 883,1716 883,1632 883,1632"/>
<polygon class="pen1 brush0" points="811,1598 817,1603 757,1662 751,1657 811,1598 811,1598"/>
<polygon class="pen1 brush0" points="784,1523 784,1530 700,1530 699,1523 784,1523 784,1523"/>
<polygon class="pen1 brush0" points="818,1449 811,1456 753,1396 758,1391 818,1449 818,1449"/>
<polygon class="pen1 brush0" points="892,1422 885,1422 885,1340 892,1340 892,1422"/>
<polygon class="pen1 brush0" points="1196,1412 1210,1411 1222,1407 1234,1400 1244,1391 1252,1381 1259,1369 1263,1356 1264,1341 1263,1327 1259,1314 1252,1302 1244,1292 1234,1283 1222,1277 1210,1272 1196,1271 1181,1272 1168,1277 1156,1283 1146,1292 1137,1302 1130,1314 1126,1327 1125,1341 1126,1356 1130,1369 1137,1381 1146,1391 1156,1400 1168,1407 1181,1411 1196,1412 1196,1412"/>
<polygon class="pen1 brush0" points="1270,1269 1264,1263 1324,1203 1329,1209 1270,1269 1270,1269"/>
<polygon class="pen1 brush0" points="1298,1344 1297,1335 1382,1335 1382,1344 1298,1344 1298,1344"/>
<polygon class="pen1 brush0" points="1264,1416 1270,1411 1328,1469 1324,1476 1264,1416 1264,1416"/>
<polygon class="pen1 brush0" points="1189,1443 1197,1443 1197,1527 1189,1527 1189,1443 1189,1443"/>
<polygon class="pen1 brush0" points="1116,1409 1122,1415 1111,1426 1110,1425 1109,1423 1108,1421 1108,1419 1116,1409 1116,1409"/>
<polygon class="pen1 brush0" points="1089,1334 1089,1342 1047,1342 1045,1340 1042,1338 1040,1336 1037,1334 1089,1334 1089,1334"/>
<polygon class="pen1 brush0" points="1124,1261 1118,1267 1068,1219 1069,1217 1070,1214 1071,1212 1071,1210 1124,1261 1124,1261"/>
<polygon class="pen1 brush0" points="1199,1234 1190,1234 1190,1152 1199,1152 1199,1234 1199,1234"/>
<polygon class="pen1 brush0" points="1264,1070 1278,1069 1291,1064 1303,1058 1314,1049 1323,1039 1329,1027 1334,1014 1335,1000 1334,986 1329,973 1323,961 1314,951 1303,943 1291,936 1278,932 1264,931 1250,932 1237,936 1225,943 1215,951 1207,961 1200,973 1196,986 1195,1000 1196,1014 1200,1027 1207,1039 1215,1049 1225,1058 1237,1064 1250,1069 1264,1070 1264,1070"/>
<polygon class="pen1 brush0" points="1341,928 1335,922 1393,864 1399,869 1341,928 1341,928"/>
<polygon class="pen1 brush0" points="1368,1003 1368,993 1450,993 1450,1003 1368,1003 1368,1003"/>
<polygon class="pen1 brush0" points="1334,1074 1339,1068 1399,1128 1392,1134 1334,1074 1334,1074"/>
<polygon class="pen1 brush0" points="1186,1067 1192,1074 1176,1090 1173,1090 1170,1090 1167,1091 1163,1091 1186,1067 1186,1067"/>
<polygon class="pen1 brush0" points="1159,993 1159,1002 1075,1002 1075,993 1159,993 1159,993"/>
<polygon class="pen1 brush0" points="1193,921 1186,926 1128,868 1133,862 1193,921 1193,921"/>
<polygon class="pen1 brush0" points="1267,894 1260,894 1260,811 1267,811 1267,894 1267,894"/>
<polygon class="pen1 brush0" points="903,882 917,881 931,877 943,870 953,862 961,852 968,840 972,827 973,813 972,799 968,786 961,774 953,763 943,755 931,748 917,744 903,743 889,744 876,748 864,755 854,763 846,774 839,786 835,799 834,813 835,827 839,840 846,852 854,862 864,870 876,877 889,881 903,882 903,882"/>
<polygon class="pen1 brush0" points="979,740 973,734 1031,675 1037,681 979,740 979,740"/>
<polygon class="pen1 brush0" points="1006,815 1006,807 1089,807 1089,815 1006,815 1006,815"/>
<polygon class="pen1 brush0" points="973,886 977,882 1024,929 1024,931 1024,933 1024,936 1023,938 973,886 973,886"/>
<polygon class="pen1 brush0" points="825,881 831,885 807,911 803,911 799,911 796,912 793,912 825,881 825,881"/>
<polygon class="pen1 brush0" points="797,806 797,814 714,814 714,806 797,806 797,806"/>
<polygon class="pen1 brush0" points="831,733 827,740 767,681 773,675 831,733 831,733"/>
<polygon class="pen1 brush0" points="908,706 899,706 899,622 908,622 908,706 908,706"/>
<polygon class="pen1 brush0" points="835,1223 849,1222 862,1218 874,1211 885,1203 893,1193 900,1181 904,1168 905,1154 904,1140 900,1127 893,1115 885,1104 874,1096 862,1089 849,1085 835,1084 821,1085 808,1089 796,1096 785,1104 776,1115 770,1127 765,1140 764,1154 765,1168 770,1181 776,1193 785,1203 796,1211 808,1218 821,1222 835,1223 835,1223"/>
<polygon class="pen1 brush0" points="910,1081 905,1074 963,1016 970,1021 910,1081 910,1081"/>
<polygon class="pen1 brush0" points="937,1155 937,1148 1020,1148 1020,1155 937,1155 937,1155"/>
<polygon class="pen1 brush0" points="903,1229 909,1223 969,1281 963,1287 903,1229 903,1229"/>
<polygon class="pen1 brush0" points="828,1256 837,1256 837,1288 835,1289 833,1290 830,1290 828,1290 828,1256 828,1256"/>
<polygon class="pen1 brush0" points="757,1222 763,1227 703,1287 697,1280 757,1222 757,1222"/>
<polygon class="pen1 brush0" points="729,1146 730,1155 645,1155 645,1146 729,1146 729,1146"/>
<polygon class="pen1 brush0" points="763,1074 757,1080 699,1020 703,1014 763,1074 763,1074"/>
<polygon class="pen1 brush0" points="838,1047 829,1047 829,963 838,963 838,1047"/>
</g>
</svg>
