<?xml version="1.0" encoding="UTF-8" standalone="no"?>
<!DOCTYPE svg PUBLIC "-//W3C//DTD SVG 1.0//EN" "http://www.w3.org/TR/2001/REC-SVG-20010904/DTD/svg10.dtd">
<svg xmlns="http://www.w3.org/2000/svg" xmlns:xlink="http://www.w3.org/1999/xlink" fill-rule="evenodd" height="1.4in" preserveAspectRatio="none" stroke-linecap="round" viewBox="0 0 1938 1400" width="1.938in">
<style type="text/css">
.brush0 { fill: rgb(255,255,255); }
.pen0 { stroke: rgb(0,0,0); stroke-width: 1; stroke-linejoin: round; }
.brush1 { fill: none; }
.pen1 { stroke: none; }
.brush2 { fill: rgb(0,0,0); }
</style>
<g>
<polygon class="pen1 brush2" points="674,1225 675,1202 674,1178 671,1154 665,1129 654,1102 638,1075 616,1046 587,1015 571,999 555,984 539,968 523,952 508,936 493,920 478,903 465,885 452,866 440,846 429,825 420,803 412,779 406,753 401,726 398,696 397,694 397,696 394,696 384,694 371,690 353,684 334,674 314,660 294,641 276,616 244,620 214,618 186,611 161,599 139,583 119,563 102,540 88,515 77,487 68,459 62,429 60,398 60,368 64,339 70,311 80,284 69,274 58,263 46,251 34,239 23,226 14,212 7,198 3,183 3,173 4,163 7,153 12,143 18,132 27,122 38,110 51,99 62,92 72,87 82,84 91,82 101,81 110,82 119,83 128,86 143,92 157,100 170,110 184,120 196,131 208,142 219,152 230,161 241,158 253,154 266,151 280,147 295,144 311,140 327,137 344,134 360,132 377,129 394,128 410,126 426,125 441,124 455,124 468,125 470,121 477,110 488,94 502,75 519,56 540,36 562,20 587,8 597,5 608,4 618,4 629,4 640,7 652,11 663,17 674,25 705,53 724,78 733,100 734,120 730,140 724,160 717,181 713,204 728,193 745,183 762,176 780,170 798,166 817,164 836,163 855,163 874,165 893,168 912,172 931,177 949,183 966,189 982,197 998,204 1029,208 1061,211 1093,212 1126,211 1159,210 1192,207 1225,204 1258,200 1291,195 1324,190 1357,185 1390,179 1422,174 1454,169 1486,164 1517,160 1529,159 1542,157 1557,156 1573,155 1591,155 1609,155 1629,156 1649,159 1670,163 1691,168 1712,175 1733,183 1755,194 1776,207 1796,223 1816,241 1844,272 1868,306 1888,343 1904,382 1917,423 1926,466 1932,511 1935,556 1934,619 1928,682 1918,745 1905,805 1888,864 1869,919 1847,969 1824,1015 1823,1016 1822,1021 1821,1029 1821,1042 1825,1059 1832,1083 1845,1113 1864,1150 1874,1175 1876,1201 1872,1226 1863,1251 1848,1276 1829,1299 1808,1319 1786,1337 1766,1353 1747,1364 1732,1372 1723,1376 1719,1377 1713,1378 1706,1379 1697,1381 1688,1382 1677,1384 1665,1386 1653,1387 1640,1388 1626,1389 1613,1390 1599,1389 1586,1389 1572,1388 1559,1386 1547,1383 1537,1380 1527,1376 1519,1371 1511,1365 1505,1358 1500,1350 1496,1340 1493,1330 1491,1313 1492,1298 1495,1285 1500,1274 1507,1264 1516,1255 1526,1247 1537,1241 1549,1235 1562,1230 1575,1225 1589,1220 1603,1216 1617,1211 1631,1206 1644,1201 1643,1200 1638,1198 1631,1195 1622,1190 1611,1185 1599,1178 1584,1170 1569,1162 1553,1153 1536,1142 1519,1132 1502,1120 1485,1109 1468,1096 1453,1084 1438,1071 1418,1077 1396,1084 1373,1090 1349,1096 1324,1101 1298,1106 1273,1111 1246,1114 1220,1117 1194,1119 1168,1119 1143,1118 1119,1116 1095,1112 1072,1107 1051,1100 914,1231 914,1235 912,1247 907,1264 897,1284 881,1307 858,1329 826,1349 784,1366 773,1369 761,1372 748,1375 735,1377 721,1379 707,1380 691,1382 675,1382 658,1382 641,1382 622,1382 603,1380 583,1379 562,1376 540,1373 517,1370 508,1363 502,1348 502,1327 509,1302 524,1278 548,1256 583,1239 631,1231 637,1231 643,1230 649,1229 654,1229 659,1228 664,1227 669,1226 674,1225"/>
<polygon class="pen1 brush0" points="385,598 398,681 395,681 386,679 373,676 357,670 339,661 320,647 301,629 283,605 281,605 275,606 266,607 254,607 239,607 223,605 206,601 188,595 170,586 152,574 135,558 119,539 105,515 94,485 85,451 80,410 79,369 84,332 93,300 107,272 124,248 144,227 167,209 191,194 217,182 243,172 269,164 294,158 317,153 339,149 358,146 374,143 390,141 409,139 431,139 455,139 481,142 508,146 536,152 564,161 591,172 618,186 643,204 666,226 686,251 703,280 717,314 726,353 731,392 731,425 728,455 722,480 713,502 702,520 689,534 676,546 661,555 647,562 633,567 620,570 608,572 599,573 591,573 587,572 585,576 577,588 566,604 549,622 527,641 501,658 471,671 435,677 424,598 426,597 431,595 439,591 448,585 456,578 463,571 468,562 469,552 467,541 464,532 460,525 454,520 445,517 434,516 420,516 402,517 384,518 368,520 355,522 345,526 337,531 332,538 330,548 331,562 335,575 342,585 351,591 361,595 370,597 378,598 383,598 385,598"/>
<polygon class="pen1 brush2" points="219,362 238,348 258,338 278,330 297,326 314,325 330,328 343,334 354,343 360,355 362,370 360,385 355,402 346,419 334,436 318,452 300,468 281,482 261,492 241,499 223,504 205,505 190,502 177,496 167,487 161,475 158,460 160,445 165,428 174,411 186,394 201,377 219,362"/>
<polygon class="pen1 brush2" points="556,345 537,331 517,321 497,313 478,309 460,308 445,311 431,317 421,326 415,338 412,353 414,368 419,385 428,402 440,419 455,435 473,451 492,465 512,475 532,482 551,487 568,488 584,485 597,479 607,470 614,458 616,443 615,427 610,410 601,393 589,376 574,360 556,345"/>
<polygon class="pen1 brush0" points="269,433 275,432 281,431 287,428 291,424 295,419 298,413 300,407 301,400 300,394 298,388 295,383 291,378 287,374 281,371 275,370 269,369 263,370 257,371 252,374 248,378 244,383 241,388 239,394 238,400 239,407 241,413 244,419 248,424 252,428 257,431 263,432 269,433"/>
<polygon class="pen1 brush0" points="498,413 505,412 511,411 516,408 521,404 525,400 528,394 529,388 530,382 529,376 528,370 525,364 521,359 516,355 511,352 505,350 498,349 491,350 485,352 480,355 475,359 471,364 468,370 467,376 466,382 467,388 468,394 471,400 475,404 480,408 485,411 491,412 498,413"/>
<polygon class="pen1 brush0" points="1010,217 1044,220 1077,222 1107,223 1136,223 1164,222 1190,221 1215,219 1240,216 1264,213 1287,210 1310,206 1334,202 1357,198 1381,194 1406,190 1431,186 1456,182 1482,177 1509,173 1538,170 1567,168 1597,168 1627,169 1657,173 1687,180 1716,189 1744,203 1771,220 1797,242 1822,269 1844,301 1864,339 1857,341 1838,347 1809,358 1772,374 1729,394 1682,421 1633,453 1583,491 1536,536 1493,587 1456,646 1427,712 1409,786 1402,868 1410,959 1434,1058 1431,1059 1422,1062 1409,1065 1391,1070 1369,1076 1344,1082 1317,1088 1288,1093 1258,1098 1227,1102 1196,1105 1165,1106 1136,1105 1109,1101 1084,1095 1063,1086 1066,1080 1076,1064 1090,1038 1107,1004 1126,962 1146,913 1164,858 1180,798 1192,735 1198,668 1198,599 1189,529 1171,459 1142,390 1100,322 1044,257 1030,243 1020,233 1014,225 1011,221 1009,218 1009,217 1010,217 1010,217"/>
</g>
</svg>
