<?xml version="1.0" encoding="UTF-8" standalone="no"?>
<!DOCTYPE svg PUBLIC "-//W3C//DTD SVG 1.0//EN" "http://www.w3.org/TR/2001/REC-SVG-20010904/DTD/svg10.dtd">
<svg xmlns="http://www.w3.org/2000/svg" xmlns:xlink="http://www.w3.org/1999/xlink" fill-rule="evenodd" height="0.828in" preserveAspectRatio="none" stroke-linecap="round" viewBox="0 0 1981 828" width="1.981in">
<style type="text/css">
.brush0 { fill: rgb(255,255,255); }
.pen0 { stroke: rgb(0,0,0); stroke-width: 1; stroke-linejoin: round; }
.brush1 { fill: none; }
.pen1 { stroke: none; }
.brush2 { fill: rgb(0,0,0); }
</style>
<g>
<polygon class="pen1 brush2" points="389,474 373,480 355,487 338,496 321,506 306,518 295,531 287,545 284,561 278,561 264,562 245,565 224,571 204,580 190,594 184,613 190,639 206,663 225,677 247,683 269,682 289,676 305,668 316,658 319,649 320,650 324,651 329,653 337,655 346,658 356,660 368,661 381,662 395,662 409,661 423,658 438,653 453,646 467,637 481,626 494,611 487,602 480,593 473,583 467,573 461,562 456,551 451,539 447,527 442,517 437,508 431,500 424,493 416,487 408,482 399,478 389,474 389,474"/>
<polygon class="pen1 brush2" points="867,687 861,703 853,720 843,739 832,758 818,777 802,795 783,813 762,828 763,827 767,826 774,823 782,820 793,815 804,809 817,802 831,793 846,784 861,773 876,761 891,748 906,734 920,718 932,701 944,683 939,683 934,683 930,684 926,685 919,685 911,686 904,686 896,686 889,686 881,686 874,687 867,687 867,687"/>
<polygon class="pen1 brush2" points="759,692 768,692 777,692 786,691 795,691 805,691 814,690 824,690 833,690 821,707 808,723 795,738 780,752 766,764 751,775 737,786 722,795 709,803 696,809 685,815 675,820 667,823 661,826 657,827 656,828 676,813 694,796 710,779 724,760 735,742 745,724 753,707 759,692 759,692"/>
<polygon class="pen1 brush2" points="646,685 639,700 631,716 621,734 610,751 596,769 581,785 564,801 545,815 546,815 550,813 555,811 563,808 572,804 582,798 594,792 606,785 619,777 633,768 647,758 661,746 675,734 688,720 701,706 713,690 704,690 696,689 687,689 679,688 670,687 662,687 654,686 646,685 646,685"/>
<polygon class="pen1 brush2" points="748,98 738,85 727,71 714,57 701,43 687,30 673,18 658,8 643,0 644,0 647,0 651,1 658,3 665,4 675,7 685,11 697,15 710,21 724,27 738,35 754,45 770,56 787,68 804,83 822,99 813,99 804,98 794,98 785,97 776,97 766,97 757,97 748,98 748,98"/>
<polygon class="pen1 brush2" points="623,106 631,105 639,104 647,103 655,102 664,102 673,101 681,100 690,99 672,83 654,68 637,56 621,45 605,35 590,27 576,21 563,15 551,11 541,7 531,4 524,3 517,1 513,0 510,0 509,0 526,9 542,21 558,34 573,49 588,64 601,79 613,93 623,106 623,106"/>
<polygon class="pen1 brush2" points="490,135 480,122 468,106 455,90 440,74 424,58 407,44 390,31 372,21 373,21 376,22 380,22 386,24 394,26 403,29 413,32 425,37 438,42 452,49 467,57 482,66 498,77 515,89 533,103 551,119 543,121 534,122 526,124 519,126 511,128 504,131 497,133 490,135 490,135"/>
<polygon class="pen1 brush2" points="1717,486 1725,493 1734,501 1745,510 1756,518 1769,526 1782,534 1796,540 1810,544 1824,547 1838,547 1852,544 1865,537 1878,527 1890,513 1901,494 1911,470 1912,470 1916,469 1922,468 1929,465 1936,462 1944,457 1951,451 1957,443 1962,432 1965,419 1964,403 1961,383 1970,375 1976,361 1979,342 1980,322 1977,301 1973,283 1966,269 1957,260 1962,233 1961,211 1956,195 1948,183 1938,174 1929,169 1923,167 1920,166 1913,148 1905,134 1897,122 1888,113 1878,106 1867,101 1856,99 1845,98 1825,101 1805,108 1786,118 1768,130 1751,143 1735,156 1722,169 1710,180 1725,210 1735,247 1741,289 1742,332 1740,375 1735,417 1727,455 1717,486 1717,486"/>
<polygon class="pen1 brush2" points="1599,179 1618,164 1634,155 1648,150 1660,149 1670,153 1679,160 1687,170 1694,183 1713,234 1722,287 1722,338 1717,388 1707,434 1695,475 1683,509 1673,535 1672,533 1671,529 1668,521 1664,512 1659,502 1654,490 1647,479 1639,467 1633,424 1625,385 1618,358 1615,348 1626,329 1633,307 1636,284 1636,261 1631,238 1624,216 1613,196 1599,179 1599,179"/>
<polygon class="pen1 brush2" points="1494,173 1512,192 1526,215 1536,241 1542,269 1542,297 1539,325 1530,350 1517,373 1521,389 1531,420 1541,463 1546,514 1557,525 1567,536 1575,547 1582,557 1587,565 1590,571 1592,576 1593,577 1612,550 1620,515 1622,477 1619,438 1612,403 1605,373 1598,353 1596,345 1613,314 1620,279 1618,243 1608,209 1590,182 1565,165 1533,161 1494,173 1494,173"/>
<polygon class="pen1 brush2" points="1390,180 1412,171 1432,166 1451,167 1467,171 1482,179 1495,191 1505,205 1514,221 1520,239 1524,258 1526,278 1526,298 1523,318 1518,337 1511,355 1501,371 1504,379 1510,402 1518,435 1525,475 1529,518 1527,560 1518,599 1498,629 1497,627 1495,623 1492,616 1487,606 1480,596 1472,584 1462,572 1450,560 1451,529 1449,498 1445,467 1439,439 1433,415 1428,396 1424,383 1423,379 1435,357 1442,331 1445,302 1444,273 1437,244 1426,218 1410,196 1390,180 1390,180"/>
<polygon class="pen1 brush2" points="1277,200 1290,209 1301,222 1310,237 1316,257 1320,280 1320,307 1318,337 1312,372 1314,377 1320,392 1327,413 1335,439 1341,469 1343,499 1341,529 1332,555 1348,569 1361,584 1373,598 1383,611 1390,622 1396,631 1399,637 1400,639 1421,609 1431,571 1432,529 1429,486 1421,446 1413,413 1407,390 1404,382 1415,365 1423,345 1428,325 1430,304 1430,284 1427,263 1422,244 1414,226 1404,210 1392,197 1377,187 1361,180 1343,178 1322,180 1301,187 1277,200 1277,200"/>
<polygon class="pen1 brush2" points="1099,210 1108,225 1116,242 1123,262 1130,284 1135,309 1139,336 1141,366 1142,399 1142,410 1142,426 1141,445 1140,467 1137,491 1132,516 1125,542 1113,568 1168,589 1213,599 1249,601 1277,596 1297,584 1311,567 1320,546 1323,522 1323,497 1320,471 1315,446 1309,423 1302,403 1297,387 1293,377 1291,373 1297,336 1299,305 1297,278 1292,255 1284,237 1273,222 1260,211 1245,203 1228,197 1210,194 1191,194 1172,195 1153,197 1134,201 1116,205 1099,210 1099,210"/>
<polygon class="pen1 brush2" points="1119,392 1119,402 1119,416 1120,432 1119,451 1118,472 1115,494 1110,517 1103,539 1093,562 1079,584 1061,604 1039,623 1012,639 980,651 941,661 897,666 851,669 807,671 767,673 729,673 693,672 660,669 630,665 602,659 576,651 552,641 531,628 512,612 494,593 479,572 466,547 454,518 446,502 435,489 422,479 406,472 389,467 370,463 349,461 328,459 320,467 310,476 298,485 284,495 269,505 252,514 233,523 213,530 191,537 168,541 144,543 117,542 90,538 61,531 31,521 0,506 0,498 29,512 57,523 83,530 108,534 131,535 152,533 173,530 191,524 209,517 225,509 239,500 253,490 265,481 276,471 285,462 294,453 284,451 277,448 272,445 267,442 257,445 246,448 235,451 222,453 209,454 196,454 182,454 168,451 154,448 140,443 125,436 111,427 97,416 84,402 71,386 58,368 58,361 70,379 82,393 94,405 107,414 119,421 132,426 144,428 157,429 169,429 181,428 193,425 205,422 216,419 227,415 238,411 248,408 237,391 231,373 230,354 233,334 240,314 252,294 268,274 289,254 298,247 307,239 318,232 329,224 341,217 354,209 369,201 383,193 399,186 416,178 433,171 452,164 471,158 491,151 511,145 533,139 555,134 578,130 602,126 627,122 652,119 678,117 705,115 733,115 761,115 790,116 820,118 850,120 881,124 913,129 945,135 978,142 997,147 1020,157 1044,173 1067,196 1088,228 1105,270 1116,324 1119,392"/>
<polygon class="pen1 brush0" points="589,562 596,561 603,559 609,556 615,551 620,545 623,539 625,532 626,524 625,517 623,510 620,504 615,498 609,493 603,490 596,488 589,487 582,488 575,490 569,493 563,498 558,504 555,510 553,517 552,524 553,532 555,539 558,545 563,551 569,556 575,559 582,561 589,562"/>
</g>
</svg>
