<?xml version="1.0" encoding="UTF-8" standalone="no"?>
<!DOCTYPE svg PUBLIC "-//W3C//DTD SVG 1.0//EN" "http://www.w3.org/TR/2001/REC-SVG-20010904/DTD/svg10.dtd">
<svg xmlns="http://www.w3.org/2000/svg" xmlns:xlink="http://www.w3.org/1999/xlink" fill-rule="evenodd" height="1.588in" preserveAspectRatio="none" stroke-linecap="round" viewBox="0 0 1991 1588" width="1.991in">
<style type="text/css">
.brush0 { fill: rgb(255,255,255); }
.pen0 { stroke: rgb(0,0,0); stroke-width: 1; stroke-linejoin: round; }
.brush1 { fill: none; }
.pen1 { stroke: none; }
.brush2 { fill: rgb(0,0,0); }
</style>
<g>
<polygon class="pen1 brush2" points="627,259 629,257 633,253 640,246 647,238 655,229 662,218 667,208 670,199 669,199 665,200 660,200 652,201 643,200 632,199 619,196 606,192 610,191 620,189 637,186 659,182 687,177 721,173 759,168 801,164 847,160 897,158 949,157 1005,157 1062,159 1122,164 1182,170 1244,180 1275,186 1306,193 1336,201 1367,209 1397,218 1427,228 1456,239 1485,250 1514,263 1542,276 1569,289 1597,304 1623,319 1649,334 1674,351 1699,368 1722,386 1745,404 1767,423 1788,443 1809,463 1828,484 1847,505 1864,527 1880,550 1895,573 1909,597 1922,621 1934,646 1944,671 1953,697 1961,723 1960,725 1957,729 1952,736 1944,744 1935,754 1924,766 1911,779 1896,792 1880,807 1862,822 1844,838 1824,853 1803,869 1782,884 1760,898 1737,912 1737,909 1738,900 1737,886 1735,867 1730,845 1721,820 1707,793 1688,763 1663,733 1630,703 1588,673 1537,644 1477,617 1404,593 1320,571 1223,554 1174,547 1126,541 1081,536 1037,531 995,527 955,524 917,521 880,519 844,517 810,516 778,516 747,516 718,516 690,517 663,518 637,519 613,521 590,523 568,525 547,528 528,530 509,533 491,536 474,539 459,542 444,545 429,547 416,550 403,553 391,555 380,558 369,560 347,564 324,569 299,574 274,578 248,583 223,587 199,591 176,593 155,594 136,594 119,593 106,590 96,584 90,577 88,567 92,554 90,554 83,552 74,549 62,545 49,540 37,534 25,526 15,516 7,501 6,484 12,465 28,442 44,426 65,409 92,389 122,367 156,343 192,317 229,290 267,262 305,232 342,201 376,169 408,137 437,103 460,69 479,35 491,0 492,6 493,25 492,60 487,111 489,109 495,105 504,97 515,87 527,75 541,62 554,47 566,31 565,34 564,43 561,56 556,73 550,92 542,113 531,134 518,155 521,154 529,150 540,145 555,138 571,130 588,121 605,111 620,101 619,104 615,112 609,123 601,138 591,154 580,171 566,188 551,203 552,204 556,206 563,208 572,211 583,214 597,216 614,217 633,216 632,217 630,220 626,225 621,230 614,237 606,245 598,252 588,260 588,261 588,262 588,264 592,267 598,270 608,273 624,275 646,277 645,278 643,281 640,285 635,291 629,299 621,308 611,319 599,330 602,329 609,326 619,321 632,313 645,304 658,293 670,281 679,266 678,266 676,265 672,264 667,263 659,262 650,261 640,260 627,259 627,259"/>
<polygon class="pen1 brush2" points="505,679 430,719 474,719 434,760 490,736 471,784 512,740 521,790 539,743 561,780 566,706 552,704 540,700 530,696 521,691 514,686 509,683 506,680 505,679 505,679"/>
<polygon class="pen1 brush2" points="582,547 565,562 552,580 542,599 535,617 530,633 527,647 525,656 525,659 530,666 537,671 545,676 555,679 565,681 575,681 584,681 592,679 601,672 612,658 623,638 633,615 642,592 650,573 655,559 657,554 649,550 638,547 626,546 613,546 601,546 591,546 585,547 582,547 582,547"/>
<polygon class="pen1 brush2" points="1419,617 1379,644 1350,670 1331,694 1321,716 1318,736 1321,753 1330,767 1342,778 1356,783 1369,782 1381,777 1393,768 1404,757 1416,746 1426,735 1437,726 1448,717 1460,708 1470,698 1480,688 1489,679 1495,672 1499,668 1501,666 1495,654 1485,644 1472,636 1457,629 1443,624 1431,620 1422,618 1419,617 1419,617"/>
<polygon class="pen1 brush2" points="1302,776 1227,814 1269,814 1230,855 1286,831 1268,878 1309,837 1318,885 1336,838 1357,876 1363,801 1349,799 1337,795 1327,791 1318,787 1311,783 1306,779 1303,777 1302,776 1302,776"/>
<polygon class="pen1 brush2" points="1971,740 1965,748 1957,757 1948,769 1938,781 1926,795 1912,809 1898,824 1883,839 1866,854 1849,868 1830,882 1812,896 1792,908 1772,919 1752,928 1731,935 1718,939 1702,943 1684,948 1664,954 1641,961 1617,968 1590,977 1563,986 1534,996 1504,1007 1473,1019 1441,1032 1409,1046 1376,1061 1344,1077 1311,1094 1279,1113 1247,1132 1216,1152 1186,1174 1156,1197 1128,1221 1102,1246 1077,1272 1054,1300 1033,1329 1014,1360 998,1391 984,1424 973,1459 966,1495 961,1532 965,1533 972,1537 981,1543 994,1550 1010,1558 1030,1566 1052,1573 1078,1578 1089,1580 1101,1581 1113,1582 1126,1583 1139,1583 1152,1582 1167,1581 1182,1580 1197,1578 1213,1575 1230,1572 1247,1568 1265,1563 1283,1557 1302,1551 1322,1544 1343,1536 1364,1527 1386,1517 1409,1505 1432,1493 1456,1479 1481,1465 1506,1449 1532,1432 1559,1413 1587,1393 1615,1372 1644,1349 1673,1324 1703,1298 1734,1271 1748,1259 1762,1245 1777,1231 1793,1215 1809,1198 1825,1181 1840,1162 1856,1142 1833,1160 1809,1179 1786,1197 1762,1215 1738,1233 1714,1251 1690,1269 1665,1286 1640,1303 1615,1320 1591,1336 1565,1352 1540,1367 1515,1382 1489,1396 1464,1410 1438,1423 1412,1435 1386,1447 1360,1458 1334,1468 1308,1477 1282,1485 1256,1493 1229,1499 1203,1504 1177,1509 1150,1512 1124,1514 1098,1515 1071,1515 1045,1513 1057,1481 1070,1450 1084,1421 1099,1393 1115,1366 1133,1340 1151,1315 1171,1291 1192,1268 1214,1246 1237,1225 1262,1204 1287,1185 1315,1165 1343,1146 1373,1128 1399,1115 1424,1102 1451,1090 1477,1078 1504,1067 1530,1057 1557,1046 1584,1036 1611,1025 1638,1015 1664,1004 1691,994 1717,982 1744,970 1769,958 1795,945 1811,936 1826,926 1840,916 1855,906 1868,895 1881,884 1893,873 1905,860 1916,848 1926,835 1935,821 1944,806 1952,791 1959,775 1966,758 1971,740 1971,740"/>
<polygon class="pen1 brush2" points="1870,1121 1894,1084 1917,1044 1937,1002 1954,956 1967,907 1976,854 1979,799 1977,740 1962,785 1940,826 1912,862 1879,894 1843,923 1802,949 1759,972 1713,993 1666,1013 1618,1032 1570,1050 1522,1068 1476,1086 1432,1105 1390,1126 1352,1148 1328,1163 1305,1179 1282,1197 1259,1216 1237,1236 1216,1258 1195,1280 1175,1303 1156,1327 1138,1352 1121,1377 1105,1403 1090,1429 1077,1455 1065,1482 1055,1508 1081,1509 1108,1508 1135,1506 1162,1503 1189,1498 1217,1493 1244,1486 1272,1478 1300,1469 1327,1459 1355,1448 1382,1436 1410,1424 1437,1410 1464,1396 1491,1382 1518,1367 1545,1352 1571,1336 1597,1320 1622,1303 1647,1286 1672,1270 1696,1253 1720,1236 1743,1219 1766,1202 1788,1185 1810,1169 1830,1152 1851,1136 1870,1121"/>
<polygon class="pen1 brush0" points="230,432 231,431 235,429 242,427 251,424 262,421 275,417 290,413 306,409 324,404 342,400 361,395 380,391 400,387 420,383 439,379 458,376 464,411 450,412 436,413 422,415 407,417 392,419 377,421 361,423 346,425 331,428 316,430 301,433 286,435 272,438 258,441 245,443 232,446 230,432"/>
<polygon class="pen1 brush0" points="1724,1169 1734,1167 1742,1161 1748,1153 1750,1142 1748,1132 1742,1124 1734,1119 1724,1117 1713,1119 1705,1124 1699,1132 1697,1142 1699,1153 1705,1161 1713,1167 1724,1169 1724,1169"/>
<polygon class="pen1 brush0" points="1417,1198 1427,1196 1435,1190 1441,1182 1443,1172 1441,1161 1435,1152 1427,1147 1417,1145 1407,1147 1398,1152 1392,1161 1390,1172 1392,1182 1398,1190 1407,1196 1417,1198 1417,1198"/>
<polygon class="pen1 brush0" points="1295,1398 1306,1396 1315,1391 1320,1383 1322,1372 1320,1362 1315,1353 1306,1347 1295,1345 1285,1347 1277,1353 1271,1362 1269,1372 1271,1383 1277,1391 1285,1396 1295,1398 1295,1398"/>
<polygon class="pen1 brush0" points="1240,1552 1248,1551 1254,1546 1258,1540 1259,1532 1258,1525 1254,1519 1248,1515 1240,1513 1233,1515 1227,1519 1223,1525 1221,1532 1223,1540 1227,1546 1233,1551 1240,1552 1240,1552"/>
<polygon class="pen1 brush0" points="1015,1498 1022,1497 1029,1493 1033,1487 1035,1480 1033,1472 1029,1466 1022,1462 1015,1460 1008,1462 1003,1466 999,1472 998,1480 999,1487 1003,1493 1008,1497 1015,1498 1015,1498"/>
<polygon class="pen1 brush0" points="1113,1317 1120,1315 1127,1311 1131,1305 1133,1297 1131,1290 1127,1283 1120,1279 1113,1277 1105,1279 1099,1283 1095,1290 1093,1297 1095,1305 1099,1311 1105,1315 1113,1317"/>
<polygon class="pen1 brush0" points="1382,517 1389,516 1394,515 1400,512 1404,508 1408,503 1411,497 1412,491 1413,484 1412,478 1411,472 1408,467 1404,462 1400,458 1394,455 1389,454 1382,453 1376,454 1370,455 1364,458 1359,462 1355,467 1352,472 1350,478 1349,484 1350,491 1352,497 1355,503 1359,508 1364,512 1370,515 1376,516 1382,517 1382,517"/>
<polygon class="pen1 brush0" points="1626,487 1632,486 1638,485 1643,482 1648,478 1652,473 1655,468 1656,462 1657,456 1656,449 1655,443 1652,438 1648,433 1643,429 1638,426 1632,424 1626,423 1620,424 1614,426 1609,429 1604,433 1600,438 1597,443 1596,449 1595,456 1596,462 1597,468 1600,473 1604,478 1609,482 1614,485 1620,486 1626,487 1626,487"/>
<polygon class="pen1 brush0" points="1721,679 1727,678 1733,677 1738,674 1743,670 1747,665 1750,660 1751,654 1752,648 1751,642 1750,636 1747,630 1743,625 1738,621 1733,618 1727,616 1721,615 1715,616 1709,618 1703,621 1698,625 1694,630 1691,636 1689,642 1688,648 1689,654 1691,660 1694,665 1698,670 1703,674 1709,677 1715,678 1721,679"/>
<polygon class="pen1 brush0" points="163,477 173,475 182,469 188,461 190,450 188,440 182,431 173,425 163,423 152,425 144,431 138,440 136,450 138,461 144,469 152,475 163,477"/>
</g>
</svg>
