<?xml version="1.0" encoding="UTF-8" standalone="no"?>
<!DOCTYPE svg PUBLIC "-//W3C//DTD SVG 1.0//EN" "http://www.w3.org/TR/2001/REC-SVG-20010904/DTD/svg10.dtd">
<svg xmlns="http://www.w3.org/2000/svg" xmlns:xlink="http://www.w3.org/1999/xlink" fill-rule="evenodd" height="1.975in" preserveAspectRatio="none" stroke-linecap="round" viewBox="0 0 1527 1975" width="1.527in">
<style type="text/css">
.brush0 { fill: rgb(255,255,255); }
.pen0 { stroke: rgb(0,0,0); stroke-width: 1; stroke-linejoin: round; }
.brush1 { fill: none; }
.pen1 { stroke: none; }
.brush2 { fill: rgb(0,0,0); }
</style>
<g>
<polygon class="pen1 brush2" points="771,1649 803,1647 833,1642 863,1634 892,1624 919,1610 944,1594 968,1575 990,1554 1010,1531 1028,1507 1044,1480 1057,1452 1067,1422 1075,1392 1079,1360 1081,1327 1080,1301 1077,1276 1073,1252 1066,1228 1059,1205 1049,1183 1038,1162 1026,1141 1012,1122 997,1104 980,1087 962,1072 944,1058 924,1045 903,1034 881,1024 872,1040 861,1054 848,1067 833,1077 817,1086 800,1093 782,1097 763,1098 744,1096 725,1092 707,1085 690,1076 673,1065 659,1052 647,1039 637,1024 617,1034 598,1046 580,1060 563,1074 548,1090 533,1107 520,1125 508,1145 498,1165 488,1186 480,1208 474,1231 469,1254 465,1278 463,1302 462,1327 464,1360 468,1392 476,1422 486,1452 499,1480 515,1507 533,1531 553,1554 575,1575 599,1594 624,1610 651,1624 679,1634 709,1642 740,1647 771,1649"/>
<polygon class="pen1 brush2" points="763,1078 789,1075 814,1067 836,1055 856,1039 872,1019 884,997 892,972 895,946 894,930 891,914 887,899 880,885 873,872 863,860 853,849 841,839 845,834 848,828 849,821 850,814 849,806 847,798 842,790 837,784 831,779 823,774 815,772 807,771 798,772 790,774 783,779 777,784 772,790 768,798 765,806 764,814 763,814 763,814 763,814 763,814 762,814 761,814 759,814 757,814 755,806 752,799 748,793 743,787 737,783 730,780 723,778 716,777 707,778 699,780 692,785 685,790 680,797 676,804 673,812 672,821 673,827 674,832 676,838 679,842 668,852 659,863 651,876 644,888 638,902 634,916 632,931 631,946 634,972 641,997 653,1019 669,1039 689,1055 711,1067 736,1075 763,1078"/>
<polygon class="pen1 brush2" points="895,848 898,845 905,836 917,822 933,804 951,783 971,759 993,733 1015,706 1038,679 1060,653 1080,628 1099,606 1114,586 1127,571 1135,560 1138,554 1148,514 1159,468 1170,419 1179,369 1186,320 1189,276 1187,238 1178,209 1162,182 1141,150 1117,115 1093,81 1070,50 1051,24 1038,6 1033,0 1035,2 1041,8 1050,17 1062,28 1076,42 1092,58 1109,75 1127,93 1144,112 1161,130 1177,147 1192,164 1204,179 1214,191 1220,202 1223,209 1224,233 1222,273 1218,326 1213,386 1205,447 1195,504 1184,551 1172,584 1164,597 1153,614 1140,633 1125,654 1108,676 1090,700 1071,724 1052,748 1033,771 1014,794 996,815 980,834 965,850 952,863 942,873 935,878 934,878 933,879 930,879 926,878 920,876 913,870 905,861 895,848 895,848"/>
<polygon class="pen1 brush2" points="922,919 924,949 926,962 926,965 926,964 930,963 943,959 963,952 989,944 1020,934 1054,923 1092,911 1131,898 1170,885 1209,872 1245,859 1280,848 1310,837 1335,827 1353,820 1365,814 1378,800 1386,775 1391,744 1394,708 1393,670 1391,633 1388,600 1384,572 1375,551 1357,525 1334,496 1308,466 1282,438 1260,415 1245,399 1239,393 1243,399 1254,415 1271,439 1289,469 1309,500 1326,532 1340,561 1348,584 1355,629 1354,671 1348,718 1337,777 1332,781 1318,787 1298,795 1271,805 1239,816 1204,828 1167,841 1128,853 1090,866 1053,878 1018,889 986,899 960,907 940,913 927,918 922,919 922,919"/>
<polygon class="pen1 brush2" points="945,1008 949,1007 961,1003 979,998 1002,992 1030,984 1062,976 1095,967 1131,959 1166,951 1201,944 1235,938 1266,934 1293,931 1315,931 1332,934 1342,940 1350,950 1360,964 1372,982 1386,1003 1400,1026 1415,1051 1431,1078 1446,1105 1460,1133 1474,1160 1486,1186 1496,1210 1504,1232 1509,1252 1511,1268 1510,1280 1505,1291 1497,1306 1486,1324 1472,1344 1457,1365 1441,1388 1423,1411 1406,1435 1388,1457 1372,1479 1356,1498 1342,1516 1331,1530 1322,1541 1316,1549 1314,1551 1316,1548 1321,1541 1329,1529 1340,1514 1352,1496 1366,1475 1381,1452 1396,1429 1411,1404 1425,1380 1439,1357 1451,1335 1461,1314 1468,1297 1472,1282 1473,1271 1470,1260 1465,1246 1458,1228 1448,1208 1437,1186 1425,1163 1412,1140 1398,1116 1384,1092 1370,1070 1356,1049 1343,1031 1331,1015 1320,1003 1310,995 1303,991 1293,991 1278,992 1258,994 1234,997 1207,1001 1177,1006 1147,1010 1116,1016 1086,1021 1056,1026 1029,1031 1005,1035 985,1039 969,1042 960,1043 956,1044 945,1008 945,1008"/>
<polygon class="pen1 brush2" points="1054,1152 1088,1217 1091,1217 1100,1219 1112,1222 1128,1226 1146,1232 1164,1239 1182,1249 1199,1260 1207,1283 1208,1330 1204,1394 1195,1466 1183,1540 1171,1608 1158,1663 1148,1698 1141,1711 1131,1726 1117,1745 1100,1765 1081,1788 1061,1811 1040,1834 1018,1858 996,1881 976,1902 957,1922 940,1940 925,1954 914,1965 907,1973 905,1975 908,1973 915,1967 926,1957 941,1945 959,1930 979,1914 1001,1896 1024,1877 1048,1857 1072,1838 1096,1819 1118,1802 1139,1786 1158,1772 1173,1760 1186,1752 1205,1725 1220,1674 1232,1607 1240,1531 1245,1452 1248,1378 1250,1316 1250,1274 1248,1259 1242,1246 1232,1233 1219,1221 1205,1210 1188,1200 1170,1191 1152,1183 1134,1175 1116,1169 1099,1164 1085,1160 1072,1156 1062,1154 1056,1152 1054,1152 1054,1152"/>
<polygon class="pen1 brush2" points="479,1170 477,1170 471,1172 461,1174 448,1178 434,1182 417,1187 399,1193 381,1200 363,1208 345,1217 328,1227 314,1238 301,1250 291,1263 285,1276 283,1291 283,1333 285,1395 288,1469 293,1548 301,1625 313,1692 328,1743 347,1771 360,1779 376,1789 394,1802 415,1816 438,1832 461,1849 485,1867 509,1884 532,1901 554,1918 575,1933 592,1946 607,1957 618,1966 625,1971 628,1973 625,1971 618,1964 606,1953 590,1939 571,1922 551,1903 528,1882 505,1860 481,1838 458,1815 435,1792 415,1771 397,1751 382,1733 371,1717 364,1705 355,1671 346,1617 338,1551 332,1479 328,1409 327,1348 332,1303 341,1280 357,1269 375,1259 393,1251 411,1244 426,1239 439,1236 447,1234 450,1233 479,1170 479,1170"/>
<polygon class="pen1 brush2" points="583,1014 571,1050 567,1049 558,1047 542,1045 522,1041 498,1036 471,1032 442,1027 411,1021 380,1016 350,1011 321,1007 294,1003 270,1000 251,998 235,997 226,997 218,1001 209,1009 198,1021 185,1037 172,1056 158,1076 144,1099 129,1122 116,1146 102,1170 90,1193 79,1214 70,1234 63,1252 58,1266 56,1277 57,1288 61,1303 68,1320 78,1341 90,1363 103,1387 117,1411 132,1435 147,1459 162,1481 175,1502 188,1521 198,1536 206,1548 211,1555 213,1558 211,1556 205,1548 196,1537 185,1523 171,1505 155,1486 139,1464 121,1441 104,1418 86,1395 70,1372 55,1350 41,1330 30,1312 22,1297 17,1285 16,1273 18,1257 23,1238 31,1216 42,1192 54,1166 67,1139 82,1111 97,1084 112,1058 128,1032 142,1009 155,988 167,970 177,956 185,946 195,940 212,937 234,937 262,940 292,944 326,950 361,957 397,965 432,973 466,982 498,990 526,998 549,1004 567,1009 579,1013 583,1014 583,1014"/>
<polygon class="pen1 brush2" points="601,925 596,924 583,920 563,913 536,905 505,895 470,884 433,872 394,860 355,847 318,835 283,823 251,812 225,802 204,793 190,787 185,783 175,723 169,674 169,631 173,589 181,566 194,537 212,506 232,474 251,445 267,421 279,405 283,399 277,405 262,421 241,444 216,472 190,502 167,531 148,558 138,578 134,598 131,628 128,665 128,705 130,744 134,779 143,805 156,821 168,826 186,834 211,843 241,854 275,866 312,878 351,891 390,904 429,917 466,929 500,940 531,950 557,958 577,965 590,969 594,970 594,971 595,968 597,955 601,925 601,925"/>
<polygon class="pen1 brush2" points="627,854 617,866 609,875 602,880 596,883 592,883 589,883 588,882 587,882 580,877 570,867 557,854 542,838 526,819 508,798 489,776 470,753 451,729 432,705 414,681 398,659 382,637 369,618 358,602 350,588 338,555 327,507 317,450 309,389 303,330 299,277 297,236 297,213 300,206 307,196 317,183 330,169 344,153 360,135 378,117 395,99 413,81 430,64 446,48 460,34 472,23 481,14 487,8 489,6 484,12 471,29 452,55 429,85 405,119 381,154 360,186 344,213 335,242 333,280 336,325 343,374 353,424 364,473 375,520 385,560 388,565 396,576 408,591 424,611 442,633 463,658 485,684 507,711 530,738 551,764 571,788 590,810 605,828 617,842 624,851 627,854"/>
<polygon class="pen1 brush0" points="847,1477 851,1460 854,1449 850,1438 835,1419 819,1392 814,1366 819,1340 835,1314 848,1293 849,1279 844,1271 841,1268 709,1268 708,1269 706,1271 703,1274 701,1279 701,1285 702,1293 707,1303 716,1314 731,1340 736,1366 731,1392 716,1419 707,1430 701,1438 697,1444 696,1449 697,1454 699,1460 701,1467 703,1477 847,1477"/>
</g>
</svg>
