<?xml version="1.0" encoding="UTF-8" standalone="no"?>
<!DOCTYPE svg PUBLIC "-//W3C//DTD SVG 1.0//EN" "http://www.w3.org/TR/2001/REC-SVG-20010904/DTD/svg10.dtd">
<svg xmlns="http://www.w3.org/2000/svg" xmlns:xlink="http://www.w3.org/1999/xlink" fill-rule="evenodd" height="1.98in" preserveAspectRatio="none" stroke-linecap="round" viewBox="0 0 1967 1980" width="1.967in">
<style type="text/css">
.brush0 { fill: rgb(255,255,255); }
.pen0 { stroke: rgb(0,0,0); stroke-width: 1; stroke-linejoin: round; }
.brush1 { fill: none; }
.pen1 { stroke: none; }
.brush2 { fill: rgb(0,0,0); }
</style>
<g>
<polygon class="pen1 brush2" points="659,1913 277,1789 255,1777 236,1764 220,1750 207,1734 198,1715 193,1693 192,1665 196,1633 197,1629 201,1617 209,1601 220,1583 235,1565 255,1550 280,1540 310,1538 326,1540 339,1542 350,1545 361,1548 370,1552 378,1556 386,1561 395,1565 403,1569 412,1573 423,1577 434,1580 448,1583 464,1585 482,1586 503,1586 519,1586 534,1585 546,1585 557,1585 566,1584 575,1584 582,1583 588,1582 585,1547 581,1512 577,1477 572,1441 565,1405 558,1368 550,1330 540,1291 501,1145 472,1038 451,962 438,909 430,872 426,844 425,817 426,784 430,759 439,724 453,681 471,630 493,574 518,514 545,451 574,386 604,322 634,260 664,200 693,145 721,96 746,55 769,22 788,0 789,14 792,53 795,114 796,193 781,212 765,234 750,256 736,279 723,299 713,316 706,328 703,332 689,358 670,397 648,444 625,495 602,546 581,595 564,636 553,665 554,666 555,667 556,668 557,669 571,637 588,599 607,557 627,511 648,465 669,419 690,376 710,338 720,321 730,305 740,288 750,271 761,254 771,237 783,220 794,204 794,238 794,273 792,310 790,348 782,361 774,374 766,385 760,396 755,404 750,411 748,415 747,417 733,443 714,482 692,529 668,580 645,631 625,680 607,721 595,750 597,751 598,752 600,754 601,754 615,723 632,685 651,643 671,597 691,550 713,505 733,462 753,423 758,416 762,409 767,402 771,395 776,387 780,380 784,372 788,365 784,415 779,466 772,517 764,569 753,620 740,670 726,719 709,767 710,770 714,778 721,791 729,808 739,829 751,854 764,881 779,911 794,942 810,976 826,1010 842,1045 858,1079 874,1114 889,1147 903,1179 1044,1557 1057,1552 963,1291 970,1283 979,1272 989,1258 1000,1241 1012,1220 1025,1195 1039,1166 1052,1132 1066,1095 1080,1052 1093,1005 1106,952 1117,894 1128,831 1138,761 1146,686 1152,681 1169,666 1196,642 1232,612 1273,575 1321,533 1372,487 1425,438 1479,388 1533,338 1584,288 1632,240 1675,195 1712,155 1740,120 1759,92 1760,103 1762,133 1762,180 1757,241 1747,253 1736,265 1725,277 1713,290 1702,302 1690,315 1679,327 1667,340 1655,352 1644,364 1632,376 1621,387 1610,398 1599,409 1588,419 1578,429 1561,443 1545,457 1528,472 1511,486 1494,499 1476,513 1458,525 1440,537 1440,538 1441,538 1442,539 1442,540 1442,541 1443,542 1443,543 1443,544 1463,531 1486,514 1509,497 1531,479 1551,462 1567,449 1578,439 1582,436 1588,431 1596,425 1604,417 1613,408 1623,398 1634,388 1645,376 1657,364 1669,351 1681,338 1694,325 1707,311 1720,297 1732,283 1745,269 1757,256 1752,285 1746,316 1739,348 1730,382 1712,401 1694,420 1676,440 1658,458 1641,476 1623,493 1607,509 1591,524 1575,538 1558,552 1542,567 1525,581 1507,594 1490,608 1472,620 1453,632 1454,632 1455,633 1456,634 1456,635 1456,636 1457,637 1457,638 1457,639 1477,626 1500,611 1523,593 1545,575 1565,559 1581,545 1592,535 1597,531 1607,523 1619,511 1633,497 1649,481 1667,463 1685,443 1705,423 1724,402 1717,424 1709,447 1700,470 1689,493 1678,516 1666,539 1653,563 1638,586 1622,610 1605,633 1586,657 1567,680 1545,703 1523,725 1499,748 1473,770 1473,781 1473,812 1472,858 1468,917 1461,985 1449,1058 1430,1133 1405,1206 1390,1240 1376,1272 1362,1301 1348,1328 1335,1353 1323,1376 1311,1398 1300,1419 1289,1439 1279,1458 1270,1478 1261,1497 1254,1516 1247,1536 1241,1557 1236,1579 1230,1579 1241,1583 1254,1588 1270,1594 1287,1601 1306,1609 1326,1617 1347,1626 1368,1635 1389,1644 1410,1653 1430,1661 1449,1669 1467,1676 1483,1682 1497,1687 1509,1691 1523,1694 1543,1699 1569,1704 1599,1710 1633,1718 1669,1725 1707,1734 1746,1742 1783,1751 1820,1760 1854,1770 1885,1779 1911,1787 1933,1796 1947,1804 1955,1811 1961,1829 1961,1841 1956,1850 1947,1857 1696,1798 1696,1810 1936,1867 1938,1869 1939,1874 1941,1879 1940,1886 1938,1893 1931,1899 1921,1905 1905,1909 1689,1835 1688,1845 1895,1918 1895,1926 1894,1935 1891,1944 1885,1953 1876,1961 1863,1966 1845,1967 1821,1963 1804,1959 1786,1954 1767,1949 1748,1944 1729,1939 1709,1933 1690,1927 1670,1922 1651,1916 1633,1911 1615,1906 1598,1902 1581,1898 1566,1895 1552,1893 1540,1891 1496,1888 1455,1886 1418,1887 1384,1889 1352,1893 1322,1898 1294,1903 1268,1910 1242,1917 1217,1924 1192,1931 1167,1938 1140,1944 1113,1950 1085,1955 1054,1958 1030,1960 1006,1961 980,1961 955,1961 929,1960 902,1958 876,1955 850,1952 824,1949 798,1945 773,1940 748,1936 724,1930 702,1925 680,1919 659,1913 659,1913"/>
<polygon class="pen1 brush2" points="175,1642 175,1652 173,1677 168,1705 158,1728 147,1736 131,1743 111,1749 88,1754 65,1758 42,1759 21,1759 3,1757 3,1752 5,1741 12,1726 27,1713 40,1707 56,1699 76,1690 97,1680 119,1670 140,1660 159,1651 175,1642"/>
<polygon class="pen1 brush0" points="63,1742 68,1741 72,1738 74,1733 75,1728 74,1723 72,1719 68,1716 63,1715 58,1716 54,1719 51,1723 50,1728 51,1733 54,1738 58,1741 63,1742"/>
<polygon class="pen1 brush0" points="790,1923 661,1904 283,1784 263,1774 244,1763 229,1751 216,1736 206,1718 200,1696 199,1669 202,1636 203,1632 207,1621 214,1605 224,1588 238,1570 257,1556 281,1546 311,1544 326,1546 339,1548 350,1551 360,1554 370,1558 378,1563 386,1567 395,1572 403,1576 413,1580 423,1584 435,1587 448,1590 463,1592 481,1594 501,1594 538,1593 565,1593 583,1592 596,1590 606,1588 618,1585 633,1581 655,1575 612,1665 726,1700 659,1803 790,1923"/>
<polygon class="pen1 brush2" points="286,1669 295,1667 303,1662 309,1655 311,1645 309,1635 303,1627 295,1621 286,1619 276,1621 268,1627 262,1635 260,1645 262,1655 268,1662 276,1667 286,1669"/>
</g>
</svg>
