<?xml version="1.0" encoding="UTF-8" standalone="no"?>
<!DOCTYPE svg PUBLIC "-//W3C//DTD SVG 1.0//EN" "http://www.w3.org/TR/2001/REC-SVG-20010904/DTD/svg10.dtd">
<svg xmlns="http://www.w3.org/2000/svg" xmlns:xlink="http://www.w3.org/1999/xlink" fill-rule="evenodd" height="1.987in" preserveAspectRatio="none" stroke-linecap="round" viewBox="0 0 956 1987" width="0.956in">
<style type="text/css">
.brush0 { fill: rgb(255,255,255); }
.pen0 { stroke: rgb(0,0,0); stroke-width: 1; stroke-linejoin: round; }
.brush1 { fill: none; }
.pen1 { stroke: none; }
.brush2 { fill: rgb(0,0,0); }
</style>
<g>
<polygon class="pen1 brush2" points="524,236 524,225 522,214 519,205 513,196 506,189 497,184 488,180 477,179 466,180 456,184 447,189 439,196 433,205 429,214 427,225 427,236 433,234 439,233 445,232 452,231 458,230 464,229 471,229 477,229 483,229 489,229 495,230 501,231 507,232 513,233 519,234 524,236 524,236"/>
<polygon class="pen1 brush2" points="477,459 451,457 425,451 402,443 381,431 362,417 347,402 335,384 328,366 314,356 306,343 303,329 305,314 312,302 321,293 334,288 349,291 353,286 358,281 362,277 367,273 371,269 376,266 381,263 386,260 374,250 361,236 349,216 338,190 329,156 323,114 321,62 325,0 335,7 331,69 333,120 339,161 349,193 361,217 374,234 387,246 399,253 408,249 417,245 425,242 434,240 444,239 454,238 465,237 477,237 485,237 493,238 500,238 507,239 513,241 520,243 527,245 534,248 544,244 556,235 570,221 584,199 595,169 604,128 607,75 604,8 612,3 616,67 614,119 608,160 598,193 586,217 573,235 560,247 548,254 555,258 562,262 569,266 576,271 582,276 588,281 593,286 598,291 614,287 628,290 640,299 648,311 651,326 649,340 640,354 623,365 617,385 606,402 592,418 574,432 553,443 530,452 504,457 477,459 477,459"/>
<polygon class="pen1 brush2" points="292,923 294,923 298,924 304,925 310,927 317,932 324,938 328,947 331,959 326,962 311,970 290,983 266,999 240,1019 215,1040 195,1064 182,1088 173,1121 164,1167 155,1221 147,1279 138,1334 129,1380 119,1414 109,1429 109,1585 95,1585 95,1427 90,1407 91,1369 96,1318 104,1260 113,1201 124,1148 134,1106 143,1081 153,1064 168,1045 186,1024 207,1002 229,980 251,959 273,940 292,923 292,923"/>
<polygon class="pen1 brush2" points="274,656 250,655 229,656 209,657 191,660 175,663 161,668 148,673 137,678 127,684 118,691 111,697 104,704 99,710 95,717 91,723 88,729 80,747 68,775 55,811 43,850 33,888 28,921 30,945 40,956 41,956 42,956 43,956 44,956 42,1067 57,1067 58,954 70,941 81,919 90,889 98,855 105,820 111,787 117,759 122,739 133,724 153,711 177,700 204,691 230,685 253,680 268,677 274,676 273,665 273,659 274,657 274,656 274,656"/>
<polygon class="pen1 brush2" points="676,930 675,930 671,931 665,932 659,934 653,938 647,944 642,953 640,964 645,967 659,975 679,987 702,1002 726,1021 749,1042 768,1065 781,1088 790,1119 798,1163 806,1215 815,1269 823,1321 831,1366 840,1398 849,1412 851,1560 865,1561 863,1410 868,1391 868,1355 863,1306 856,1251 846,1196 836,1145 826,1105 818,1081 808,1065 794,1047 776,1027 756,1006 735,985 714,965 694,946 676,930 676,930"/>
<polygon class="pen1 brush2" points="693,676 715,675 736,676 755,677 771,680 787,683 800,687 812,692 823,698 833,703 841,710 848,716 854,722 860,729 864,735 868,741 871,747 879,764 890,791 902,825 914,862 924,898 928,929 927,952 917,962 916,963 915,963 914,963 913,963 915,1068 900,1068 899,960 887,948 877,927 869,898 861,866 854,833 848,802 843,775 838,756 828,741 809,729 786,719 760,710 735,704 714,699 699,697 693,696 694,686 694,680 693,677 693,676 693,676"/>
<polygon class="pen1 brush2" points="677,585 678,587 681,592 684,601 687,615 692,613 704,606 721,596 741,580 761,561 780,537 794,509 802,477 810,415 817,368 818,338 808,328 808,239 794,237 794,328 784,353 782,397 782,443 778,473 773,484 764,497 753,513 740,529 725,545 709,561 693,574 677,585 677,585"/>
<polygon class="pen1 brush2" points="585,439 574,447 563,454 550,460 536,465 522,469 507,472 492,473 477,474 463,473 449,472 435,470 422,466 410,462 398,458 387,452 376,446 357,474 335,512 315,560 300,618 292,685 297,760 316,845 355,937 356,938 361,939 367,941 377,943 388,946 402,949 417,952 434,954 453,956 473,957 494,957 516,956 539,954 563,950 587,945 612,937 634,888 651,841 663,797 671,754 674,714 674,676 670,641 665,608 657,578 647,550 637,525 626,502 614,482 603,465 594,451 585,439 585,439"/>
<polygon class="pen1 brush2" points="288,589 271,578 254,564 238,548 222,531 208,514 197,498 188,484 182,473 178,441 177,393 174,347 165,321 166,224 150,224 150,318 143,321 139,329 139,342 140,361 143,383 147,410 152,441 156,476 164,511 179,541 199,566 220,586 241,602 260,613 272,620 277,622 281,607 285,597 287,591 288,589 288,589"/>
<polygon class="pen1 brush2" points="599,959 604,983 610,1011 617,1046 623,1087 332,1087 339,1045 346,1009 352,980 356,956 361,958 368,960 377,962 388,964 400,967 413,969 428,971 444,973 461,975 479,975 498,975 517,974 537,972 557,969 578,965 599,959 599,959"/>
<polygon class="pen1 brush2" points="625,1099 331,1099 328,1119 325,1139 321,1159 318,1180 638,1180 634,1159 631,1139 628,1119 625,1099 625,1099"/>
<polygon class="pen1 brush2" points="639,1193 318,1193 316,1210 314,1227 311,1244 309,1261 646,1261 645,1244 643,1227 641,1210 639,1193 639,1193"/>
<polygon class="pen1 brush2" points="648,1274 308,1274 307,1293 305,1313 304,1332 302,1352 653,1352 652,1332 651,1313 649,1293 648,1274 648,1274"/>
<polygon class="pen1 brush2" points="655,1365 301,1365 301,1384 300,1404 299,1423 298,1443 658,1443 657,1423 656,1404 656,1384 655,1365 655,1365"/>
<polygon class="pen1 brush2" points="658,1456 298,1456 298,1472 298,1488 299,1505 300,1521 656,1521 657,1505 658,1488 658,1472 658,1456 658,1456"/>
<polygon class="pen1 brush2" points="656,1534 300,1534 301,1551 302,1568 303,1585 304,1602 652,1602 653,1585 654,1568 656,1551 656,1534 656,1534"/>
<polygon class="pen1 brush2" points="650,1615 648,1635 645,1655 642,1674 639,1693 317,1693 313,1674 310,1655 307,1635 305,1615 650,1615 650,1615"/>
<polygon class="pen1 brush2" points="636,1706 633,1719 630,1731 627,1744 623,1757 331,1757 328,1744 325,1731 321,1719 318,1706 636,1706 636,1706"/>
<polygon class="pen1 brush2" points="621,1769 615,1786 608,1803 602,1819 595,1835 361,1835 354,1819 347,1803 341,1786 335,1769 621,1769 621,1769"/>
<polygon class="pen1 brush2" points="588,1850 586,1855 581,1865 574,1877 563,1891 550,1904 533,1915 512,1923 487,1926 461,1923 437,1914 417,1902 400,1888 386,1874 376,1862 370,1853 368,1850 370,1850 376,1849 386,1849 399,1849 414,1849 431,1849 450,1849 469,1849 489,1849 509,1849 527,1850 544,1850 560,1850 572,1850 582,1850 588,1850 588,1850"/>
<polygon class="pen1 brush2" points="601,1885 581,1933 649,1985 601,1885 601,1885"/>
<polygon class="pen1 brush2" points="381,1894 332,1987 400,1936 381,1894"/>
<polygon class="pen1 brush0" points="345,632 477,849 615,619 477,898 345,632"/>
<polygon class="pen1 brush0" points="341,356 352,354 361,348 367,340 369,328 367,317 361,308 352,302 341,300 330,302 321,308 314,317 312,328 314,340 321,348 330,354 341,356 341,356"/>
<polygon class="pen1 brush0" points="613,356 601,354 592,348 586,339 584,327 586,316 592,306 601,300 613,298 624,300 634,306 640,316 642,327 640,339 634,348 624,354 613,356"/>
</g>
</svg>
