<?xml version="1.0" encoding="UTF-8" standalone="no"?>
<!DOCTYPE svg PUBLIC "-//W3C//DTD SVG 1.0//EN" "http://www.w3.org/TR/2001/REC-SVG-20010904/DTD/svg10.dtd">
<svg xmlns="http://www.w3.org/2000/svg" xmlns:xlink="http://www.w3.org/1999/xlink" fill-rule="evenodd" height="1.465in" preserveAspectRatio="none" stroke-linecap="round" viewBox="0 0 1985 1465" width="1.985in">
<style type="text/css">
.brush0 { fill: rgb(255,255,255); }
.pen0 { stroke: rgb(0,0,0); stroke-width: 1; stroke-linejoin: round; }
.brush1 { fill: none; }
.pen1 { stroke: none; }
.brush2 { fill: rgb(0,0,0); }
</style>
<g>
<polygon class="pen1 brush2" points="283,832 290,815 298,791 309,760 322,723 338,681 356,635 377,585 402,533 430,479 462,425 498,370 538,316 582,264 631,214 684,167 743,125 765,111 789,98 812,86 837,74 862,63 888,53 915,44 942,35 970,28 1000,21 1029,16 1060,12 1091,9 1124,7 1157,6 1191,7 1237,9 1280,13 1321,17 1360,22 1396,28 1430,35 1462,42 1493,51 1521,60 1547,71 1571,82 1594,94 1616,106 1635,120 1654,134 1671,149 1697,177 1720,206 1740,238 1759,272 1776,308 1792,347 1807,387 1822,429 1838,474 1853,521 1870,569 1889,620 1909,672 1931,727 1957,784 1985,842 1985,843 1983,845 1981,850 1977,855 1973,862 1967,871 1960,880 1952,890 1942,902 1931,914 1918,926 1904,940 1888,953 1871,967 1852,982 1831,996 1808,1010 1783,1024 1756,1038 1727,1051 1695,1064 1662,1077 1626,1088 1588,1099 1548,1109 1505,1117 1460,1125 1412,1131 1361,1136 1308,1139 1252,1140 1193,1140 1134,1138 1077,1135 1022,1130 969,1123 919,1116 870,1107 824,1097 780,1087 737,1075 697,1063 659,1051 623,1037 588,1024 556,1010 525,996 497,981 470,967 445,953 423,940 401,926 382,913 365,901 349,889 335,878 322,868 312,859 303,851 296,845 290,839 286,835 284,833 283,832 283,832"/>
<polygon class="pen1 brush2" points="334,910 332,910 325,910 314,911 299,912 282,913 262,914 241,916 217,918 193,921 169,925 145,928 121,933 98,938 78,943 59,950 43,957 32,965 22,974 15,985 9,997 5,1010 2,1023 0,1037 0,1051 2,1086 7,1116 12,1138 14,1146 34,1125 57,1108 80,1094 103,1083 125,1076 143,1070 157,1067 165,1065 166,1066 166,1068 166,1072 164,1078 158,1084 147,1091 131,1098 107,1106 85,1116 73,1128 69,1142 71,1155 77,1167 83,1178 89,1184 91,1187 126,1187 161,1184 196,1179 231,1171 264,1161 296,1150 327,1137 356,1125 383,1112 407,1099 429,1088 447,1077 462,1068 473,1061 480,1057 482,1055 334,910"/>
<polygon class="pen1 brush2" points="794,1142 788,1151 782,1159 776,1167 771,1176 767,1185 764,1197 761,1210 760,1226 760,1248 761,1276 763,1308 765,1342 765,1375 763,1403 758,1426 749,1440 742,1444 733,1448 723,1452 712,1455 699,1459 686,1462 672,1464 658,1465 643,1465 628,1463 613,1461 599,1458 585,1453 573,1446 561,1438 550,1427 549,1415 544,1383 539,1336 536,1281 538,1222 548,1165 569,1116 604,1081 616,1086 628,1090 639,1095 649,1099 660,1102 670,1106 680,1110 690,1113 700,1116 711,1120 723,1123 735,1127 748,1130 762,1134 777,1138 794,1142"/>
<polygon class="pen1 brush2" points="1534,1166 1537,1165 1543,1164 1553,1162 1565,1158 1580,1155 1597,1150 1616,1145 1635,1139 1656,1133 1676,1126 1697,1119 1717,1112 1735,1104 1753,1096 1768,1089 1781,1081 1792,1114 1805,1150 1816,1189 1827,1231 1836,1276 1843,1324 1846,1375 1845,1430 1843,1431 1836,1434 1826,1438 1811,1442 1793,1446 1772,1450 1747,1453 1719,1454 1705,1454 1690,1454 1676,1452 1660,1451 1644,1448 1628,1445 1611,1441 1594,1436 1592,1428 1588,1407 1582,1374 1575,1334 1566,1290 1556,1245 1546,1203 1534,1166"/>
<polygon class="pen1 brush0" points="749,1383 735,1370 723,1366 713,1369 704,1376 698,1386 693,1396 691,1403 691,1406 676,1383 662,1372 650,1371 638,1377 629,1386 621,1397 615,1406 612,1410 605,1390 597,1378 589,1373 581,1372 574,1375 567,1379 563,1384 561,1386 563,1374 568,1364 575,1355 582,1349 591,1348 599,1351 606,1361 612,1379 614,1376 619,1369 626,1359 636,1350 647,1345 660,1345 675,1354 691,1375 692,1372 696,1365 701,1357 708,1349 717,1346 727,1348 738,1360 749,1383"/>
<polygon class="pen1 brush0" points="132,1025 143,1023 152,1018 157,1010 159,1000 157,989 152,980 143,975 132,973 122,975 114,980 109,989 107,1000 109,1010 114,1018 122,1023 132,1025"/>
<polygon class="pen1 brush0" points="1820,1382 1806,1367 1793,1363 1782,1365 1772,1373 1765,1383 1760,1393 1758,1400 1759,1403 1740,1379 1723,1368 1709,1367 1697,1373 1687,1384 1680,1395 1675,1404 1673,1409 1666,1387 1659,1375 1650,1369 1641,1368 1633,1371 1626,1376 1621,1380 1618,1382 1621,1371 1626,1360 1633,1351 1641,1345 1650,1344 1659,1348 1666,1359 1673,1378 1676,1375 1681,1367 1689,1356 1699,1346 1711,1340 1725,1340 1741,1350 1759,1372 1760,1369 1764,1361 1770,1352 1777,1344 1786,1341 1797,1344 1808,1357 1820,1382"/>
<polygon class="pen1 brush0" points="465,879 516,730 519,720 521,710 522,700 520,690 517,681 511,672 503,664 493,658 415,621 412,625 492,665 506,676 513,692 514,710 510,727 458,875 465,879 465,879"/>
<polygon class="pen1 brush0" points="550,734 553,725 557,717 562,711 568,705 575,702 584,700 593,700 604,703 692,729 704,733 713,737 720,741 724,747 727,753 728,761 728,771 726,784 689,956 681,953 718,783 720,772 721,763 721,756 719,751 715,747 710,743 702,740 691,736 604,709 594,707 585,707 577,708 571,712 566,717 562,722 559,729 556,737 499,896 492,895 550,734 550,734"/>
<polygon class="pen1 brush0" points="973,1027 996,859 997,849 995,839 993,830 989,822 983,815 977,809 970,804 963,801 857,773 847,771 837,771 827,772 816,774 807,778 798,783 791,790 786,798 715,967 720,969 791,801 795,795 801,789 808,784 816,780 825,778 834,776 844,776 854,778 959,807 966,809 972,813 978,819 982,826 986,834 989,842 990,851 990,861 966,1027 973,1027 973,1027"/>
<polygon class="pen1 brush0" points="1273,1047 1267,1047 1269,892 1268,879 1266,868 1263,858 1258,851 1252,844 1244,840 1234,836 1223,834 1098,821 1086,820 1076,821 1066,822 1057,825 1049,830 1043,836 1039,844 1036,854 999,1033 993,1031 1030,852 1034,840 1039,831 1046,824 1055,819 1064,816 1075,814 1086,814 1098,815 1226,828 1239,831 1249,835 1258,841 1265,848 1269,857 1273,867 1274,879 1274,892 1273,1047 1273,1047"/>
<polygon class="pen1 brush0" points="1571,1007 1527,844 1523,833 1518,823 1512,816 1504,810 1495,806 1484,804 1472,803 1459,805 1345,831 1331,834 1320,839 1311,844 1305,851 1300,859 1298,868 1297,880 1298,893 1313,1047 1318,1045 1307,892 1306,881 1306,871 1308,863 1311,856 1316,849 1323,844 1334,840 1347,836 1459,812 1470,811 1480,810 1489,811 1497,814 1504,819 1511,826 1516,835 1520,848 1566,1008 1571,1007 1571,1007"/>
<polygon class="pen1 brush0" points="1831,895 1825,898 1733,764 1727,757 1721,751 1714,746 1706,743 1697,741 1689,741 1680,743 1671,747 1591,787 1582,792 1575,798 1568,805 1564,814 1561,823 1559,833 1560,844 1564,855 1622,1003 1617,1007 1558,856 1555,845 1554,834 1555,823 1558,812 1562,803 1569,794 1578,787 1588,781 1666,741 1677,737 1687,735 1698,735 1707,737 1717,740 1725,746 1732,753 1739,761 1831,895 1831,895"/>
<polygon class="pen1 brush0" points="1861,648 1817,669 1805,676 1795,683 1788,691 1782,700 1778,710 1777,721 1777,733 1780,746 1852,875 1858,872 1786,743 1784,730 1783,719 1785,710 1788,701 1794,694 1801,687 1810,681 1820,675 1864,653 1861,648"/>
</g>
</svg>
