<?xml version="1.0" encoding="UTF-8" standalone="no"?>
<!DOCTYPE svg PUBLIC "-//W3C//DTD SVG 1.0//EN" "http://www.w3.org/TR/2001/REC-SVG-20010904/DTD/svg10.dtd">
<svg xmlns="http://www.w3.org/2000/svg" xmlns:xlink="http://www.w3.org/1999/xlink" fill-rule="evenodd" height="1.968in" preserveAspectRatio="none" stroke-linecap="round" viewBox="0 0 1338 1968" width="1.338in">
<style type="text/css">
.brush0 { fill: rgb(255,255,255); }
.pen0 { stroke: rgb(0,0,0); stroke-width: 1; stroke-linejoin: round; }
.brush1 { fill: none; }
.pen1 { stroke: none; }
.brush2 { fill: rgb(0,0,0); }
</style>
<g>
<polygon class="pen1 brush2" points="1202,1176 1195,1161 1186,1145 1176,1130 1165,1114 1152,1097 1136,1081 1119,1064 1099,1046 1076,1029 1051,1010 1023,992 991,972 957,952 918,932 876,911 830,889 781,867 730,844 678,820 626,796 576,770 528,743 483,714 442,684 406,652 377,617 355,580 341,540 336,497 342,451 359,401 388,348 406,319 423,287 437,254 446,221 450,190 445,161 431,135 405,115 389,107 373,103 357,101 341,102 326,105 311,111 297,118 284,127 271,138 260,149 250,162 241,175 234,189 229,203 226,216 225,230 225,262 225,301 222,343 214,383 199,417 174,439 137,445 87,429 70,420 56,409 45,398 36,387 29,375 25,362 23,349 23,335 28,305 40,274 56,244 75,216 96,190 115,167 132,149 145,136 152,130 160,122 170,114 181,104 194,94 208,83 223,72 240,62 256,51 274,41 292,32 310,23 329,16 348,10 366,5 385,3 398,2 410,3 422,4 434,7 445,11 456,16 466,22 476,30 510,66 533,106 545,150 547,197 540,246 525,296 502,347 473,398 459,422 451,444 447,465 449,484 454,500 462,514 474,526 489,535 505,541 524,544 543,543 564,540 585,532 605,521 625,506 644,487 645,485 650,481 656,474 666,465 677,454 691,442 706,428 724,414 743,400 764,386 786,372 809,359 834,347 860,337 886,328 913,322 932,320 951,319 970,320 989,322 1008,326 1028,331 1047,339 1066,349 1085,361 1103,375 1122,392 1140,411 1158,433 1175,458 1192,485 1209,516 1229,561 1249,612 1267,668 1284,731 1300,801 1314,877 1327,961 1338,1051 1338,1048 1336,1040 1332,1028 1326,1013 1316,996 1303,978 1285,959 1263,942 1265,948 1269,964 1275,989 1282,1019 1289,1052 1293,1087 1296,1120 1294,1149 1292,1145 1286,1132 1276,1115 1265,1093 1250,1070 1235,1046 1219,1025 1202,1007 1202,1176 1202,1176"/>
<polygon class="pen1 brush2" points="922,960 857,950 869,1352 866,1354 856,1359 842,1367 824,1377 804,1388 781,1399 758,1410 736,1419 716,1438 700,1474 688,1522 678,1575 670,1628 666,1673 663,1704 662,1716 689,1672 710,1725 729,1676 754,1725 760,1467 869,1405 870,1432 871,1503 869,1602 861,1711 855,1736 846,1757 833,1774 818,1789 800,1800 781,1809 761,1816 741,1821 721,1825 701,1827 684,1828 668,1828 654,1828 644,1828 637,1828 635,1828 710,1862 711,1864 707,1867 698,1871 687,1876 675,1881 662,1886 649,1891 639,1897 719,1902 679,1968 905,1848 907,1734 910,1620 913,1506 916,1392 918,1337 922,1085 922,1007 922,994 922,982 922,971 922,960 922,960"/>
<polygon class="pen1 brush2" points="922,1007 922,1085 1091,1233 918,1337 916,1392 1175,1247 922,1007 922,1007"/>
<polygon class="pen1 brush2" points="29,435 26,443 19,467 11,507 3,562 3,573 4,583 6,594 9,604 13,614 19,624 25,634 31,643 35,641 39,640 43,638 47,637 51,635 56,633 60,631 64,629 56,616 50,604 46,593 44,584 46,549 50,514 56,480 64,446 57,444 50,441 44,439 39,438 35,437 32,436 30,435 29,435 29,435"/>
<polygon class="pen1 brush2" points="77,449 69,483 63,516 58,550 57,584 58,593 62,603 67,615 73,626 78,624 84,623 89,621 94,619 96,618 98,618 100,617 102,616 99,608 97,601 95,597 94,595 125,470 121,468 117,465 111,463 105,460 98,457 91,454 84,452 77,449 77,449"/>
<polygon class="pen1 brush2" points="104,626 102,627 100,628 97,628 95,628 91,630 87,631 82,633 77,635 83,644 89,654 96,663 103,673 109,682 116,692 122,701 127,710 122,687 116,665 110,645 104,626 104,626"/>
<polygon class="pen1 brush2" points="125,727 121,718 115,707 108,697 100,685 92,674 84,662 76,650 68,639 64,640 60,641 56,643 52,644 48,646 45,648 41,650 37,652 49,666 62,678 75,690 87,700 99,710 110,717 118,723 125,727"/>
<polygon class="pen1 brush0" points="1193,960 1190,953 1186,946 1182,938 1177,931 1171,923 1164,915 1156,907 1146,899 1136,890 1124,882 1111,872 1096,863 1080,853 1062,843 1043,833 1021,822 968,798 920,770 878,739 841,706 809,672 784,638 764,605 751,573 744,544 744,518 750,497 763,481 783,471 810,469 845,475 887,490 868,488 849,486 832,485 817,486 803,489 791,495 781,505 774,520 774,534 776,549 780,565 785,581 791,597 800,614 810,631 823,648 838,666 855,683 874,701 896,719 920,737 947,755 977,773 1010,791 1031,799 1050,807 1067,815 1083,823 1097,830 1110,838 1121,845 1131,852 1140,859 1148,866 1155,873 1162,879 1167,886 1172,892 1176,899 1179,905 1172,831 1180,839 1187,848 1195,858 1202,868 1208,877 1213,885 1216,890 1217,892 1215,864 1207,834 1200,811 1196,801 1207,808 1216,816 1224,823 1230,831 1235,838 1239,843 1241,847 1242,848 1230,785 1216,731 1200,684 1183,645 1166,613 1148,588 1129,568 1111,554 1134,565 1157,583 1180,610 1201,645 1221,692 1239,749 1253,819 1264,902 1263,901 1262,897 1259,890 1255,883 1249,874 1242,865 1233,856 1223,848 1226,859 1231,886 1236,919 1236,949 1235,947 1232,941 1228,932 1223,922 1216,910 1209,899 1201,889 1193,881 1193,960"/>
<polygon class="pen1 brush0" points="110,382 119,380 126,375 130,368 132,358 130,349 126,342 119,337 110,335 101,337 94,342 89,349 87,358 89,368 94,375 101,380 110,382"/>
</g>
</svg>
