<?xml version="1.0" encoding="UTF-8" standalone="no"?>
<!DOCTYPE svg PUBLIC "-//W3C//DTD SVG 1.0//EN" "http://www.w3.org/TR/2001/REC-SVG-20010904/DTD/svg10.dtd">
<svg xmlns="http://www.w3.org/2000/svg" xmlns:xlink="http://www.w3.org/1999/xlink" fill-rule="evenodd" height="1.977in" preserveAspectRatio="none" stroke-linecap="round" viewBox="0 0 1108 1977" width="1.108in">
<style type="text/css">
.brush0 { fill: rgb(255,255,255); }
.pen0 { stroke: rgb(0,0,0); stroke-width: 1; stroke-linejoin: round; }
.brush1 { fill: none; }
.pen1 { stroke: none; }
.brush2 { fill: rgb(0,0,0); }
</style>
<g>
<polygon class="pen1 brush0" points="579,212 591,211 601,207 611,202 620,195 626,187 632,177 635,166 636,155 635,144 632,133 626,124 620,115 611,109 601,103 591,100 579,99 568,100 557,103 548,109 539,115 533,124 527,133 524,144 523,155 524,166 527,177 533,187 539,195 548,202 557,207 568,211 579,212"/>
<polygon class="pen1 brush2" points="225,928 229,986 94,843 56,978 60,873 0,974 47,813 17,602 77,754 102,585 102,797 225,928 225,928"/>
<polygon class="pen1 brush2" points="263,175 265,187 262,216 259,251 263,280 13,267 15,266 20,264 28,260 38,254 51,248 67,241 83,233 102,225 121,217 141,209 162,202 183,194 204,188 224,182 244,178 263,175"/>
<polygon class="pen1 brush2" points="585,124 592,125 599,127 605,130 611,134 615,140 618,146 620,153 621,160 620,168 618,175 615,181 611,186 605,191 599,194 592,196 585,197 577,196 570,194 564,191 559,186 554,181 551,175 549,168 548,160 549,153 551,146 554,140 559,134 564,130 570,127 577,125 585,124 526,22 503,28 482,35 463,43 445,51 429,59 414,67 401,76 388,84 377,93 367,101 357,109 349,116 340,123 333,130 325,135 318,140 300,157 289,180 283,208 283,237 290,267 303,295 322,318 347,334 371,347 388,360 397,374 401,387 400,401 395,416 389,430 381,444 329,546 291,642 264,730 248,811 241,885 242,952 249,1013 261,1067 277,1114 295,1154 315,1189 333,1216 350,1238 364,1253 374,1262 377,1265 237,1956 292,1909 313,1973 356,1922 385,1973 419,1926 453,1973 492,1926 537,1977 584,1464 532,1392 492,1320 464,1249 445,1179 435,1112 433,1047 437,986 445,929 457,876 472,828 488,786 504,750 518,721 530,700 538,687 541,682 496,817 470,938 461,1048 467,1145 485,1232 513,1307 549,1373 591,1430 637,1478 683,1517 729,1549 771,1573 808,1592 837,1604 856,1611 863,1613 901,1453 926,1305 938,1169 940,1045 932,933 917,833 896,743 870,664 842,595 812,536 783,488 755,448 731,419 711,397 699,385 694,381 716,345 736,294 751,233 763,168 770,107 773,55 770,19 761,5 761,5 742,4 724,4 707,4 690,4 673,4 657,4 642,5 627,6 613,8 599,9 585,11 573,13 560,15 548,17 537,19 526,22 585,124"/>
</g>
</svg>
