<?xml version="1.0" encoding="UTF-8" standalone="no"?>
<!DOCTYPE svg PUBLIC "-//W3C//DTD SVG 1.0//EN" "http://www.w3.org/TR/2001/REC-SVG-20010904/DTD/svg10.dtd">
<svg xmlns="http://www.w3.org/2000/svg" xmlns:xlink="http://www.w3.org/1999/xlink" fill-rule="evenodd" height="1.034in" preserveAspectRatio="none" stroke-linecap="round" viewBox="0 0 1990 1034" width="1.99in">
<style type="text/css">
.brush0 { fill: rgb(255,255,255); }
.pen0 { stroke: rgb(0,0,0); stroke-width: 1; stroke-linejoin: round; }
.brush1 { fill: none; }
.pen1 { stroke: none; }
.brush2 { fill: rgb(0,0,0); }
</style>
<g>
<polygon class="pen1 brush2" points="1688,761 1687,759 1686,755 1683,748 1679,738 1674,728 1667,716 1660,704 1650,691 1640,680 1627,669 1614,660 1598,652 1581,647 1562,645 1541,647 1519,652 1480,671 1450,699 1431,734 1421,773 1421,815 1431,857 1450,898 1479,935 1488,944 1497,952 1507,959 1517,966 1527,972 1537,978 1548,983 1559,987 1570,991 1581,994 1593,997 1604,1000 1616,1001 1627,1003 1639,1004 1651,1004 1666,1004 1680,1003 1695,1002 1710,1000 1724,997 1738,994 1752,990 1766,986 1779,981 1792,975 1804,970 1816,963 1828,957 1839,950 1849,943 1858,935 1887,906 1912,875 1931,841 1947,804 1960,762 1970,715 1977,663 1982,605 1982,566 1977,524 1966,480 1951,434 1931,388 1907,341 1879,295 1848,250 1831,228 1813,207 1794,186 1775,167 1755,148 1735,130 1713,113 1692,98 1669,83 1647,70 1624,58 1600,48 1576,40 1552,33 1528,27 1503,24 1454,21 1407,20 1363,21 1321,24 1280,29 1241,36 1204,44 1169,53 1135,64 1102,75 1070,88 1040,101 1010,115 981,129 953,144 926,158 898,174 868,194 837,216 805,241 772,268 740,296 707,325 674,353 642,382 611,410 581,436 553,461 527,483 503,501 481,517 463,528 447,536 429,543 409,551 388,558 366,564 344,570 322,576 300,581 278,586 258,590 238,594 220,597 205,600 191,602 180,604 172,605 169,604 161,601 149,599 134,598 119,599 105,605 93,617 84,636 78,657 71,676 64,694 56,710 47,725 38,740 27,754 16,769 11,777 8,786 7,795 7,803 10,812 15,821 21,830 30,838 40,835 53,832 68,828 84,823 99,819 113,816 125,813 134,811 126,817 116,823 104,829 91,834 78,839 65,844 54,848 44,851 55,856 66,861 79,865 93,868 108,870 125,872 143,872 162,871 186,868 211,865 237,860 263,855 290,850 317,844 343,838 370,831 395,824 420,817 444,810 466,802 486,795 505,787 522,780 536,773 552,765 574,753 600,739 631,722 665,704 701,684 739,664 778,643 817,621 856,600 892,580 927,561 958,543 984,528 1007,514 1023,504 1039,494 1059,481 1082,467 1109,452 1139,436 1171,420 1205,404 1241,388 1278,374 1315,361 1353,350 1391,342 1429,336 1465,334 1501,336 1534,342 1566,352 1595,363 1624,376 1650,391 1675,407 1697,424 1718,442 1738,461 1755,480 1770,500 1784,520 1795,539 1805,558 1812,577 1818,595 1821,612 1825,642 1828,674 1829,705 1826,737 1818,768 1805,798 1783,827 1753,854 1739,864 1725,872 1711,879 1698,885 1686,890 1674,893 1662,895 1651,896 1640,896 1630,895 1620,893 1610,891 1601,887 1592,884 1583,879 1575,874 1560,862 1548,846 1538,827 1532,806 1529,785 1531,764 1538,745 1550,729 1566,717 1582,712 1598,711 1613,715 1630,723 1647,734 1667,747 1688,761 1688,761"/>
<polygon class="pen1 brush2" points="457,906 458,912 460,925 466,944 477,963 449,1034 443,989 385,1020 415,969 348,953 418,925 385,895 457,906 457,906"/>
<polygon class="pen1 brush2" points="645,771 652,779 657,791 658,807 655,825 647,845 634,865 616,884 592,902 567,917 545,930 527,939 512,945 499,948 489,947 482,941 476,932 474,921 475,912 480,903 488,894 497,886 508,878 518,870 527,861 535,849 544,831 554,812 566,792 581,775 598,765 620,762 645,771 645,771"/>
<polygon class="pen1 brush2" points="1450,504 1450,506 1450,510 1452,516 1457,523 1465,530 1477,536 1495,540 1520,540 1484,607 1470,567 1436,625 1435,560 1369,602 1405,540 1334,547 1411,513 1361,476 1450,504 1450,504"/>
<polygon class="pen1 brush2" points="1483,359 1492,360 1503,361 1514,364 1525,369 1534,377 1540,386 1542,398 1538,413 1531,442 1533,463 1540,478 1547,490 1547,497 1542,505 1534,512 1524,518 1512,523 1498,524 1485,521 1473,514 1460,500 1445,480 1433,455 1425,429 1424,404 1431,382 1450,366 1483,359"/>
<polygon class="pen1 brush0" points="148,712 158,710 167,704 173,695 175,685 173,674 167,664 158,658 148,656 137,658 128,664 121,674 119,685 121,695 128,704 137,710 148,712"/>
<polygon class="pen1 brush0" points="1618,956 1624,955 1630,951 1634,946 1635,939 1634,934 1630,928 1624,925 1618,923 1612,925 1607,928 1603,934 1602,939 1603,946 1607,951 1612,955 1618,956 1618,956"/>
<polygon class="pen1 brush0" points="1817,898 1824,896 1831,892 1835,885 1837,878 1835,871 1831,864 1824,860 1817,858 1810,860 1803,864 1799,871 1797,878 1799,885 1803,892 1810,896 1817,898 1817,898"/>
<polygon class="pen1 brush0" points="1902,733 1909,732 1916,727 1920,721 1922,713 1920,705 1916,698 1909,694 1902,692 1894,694 1887,698 1883,705 1881,713 1883,721 1887,727 1894,732 1902,733 1902,733"/>
<polygon class="pen1 brush0" points="1882,554 1891,552 1898,547 1903,540 1905,530 1903,520 1898,512 1891,506 1882,504 1872,506 1864,512 1859,520 1857,530 1859,540 1864,547 1872,552 1882,554 1882,554"/>
<polygon class="pen1 brush0" points="1788,381 1795,380 1801,378 1807,375 1812,371 1816,366 1819,360 1820,354 1821,348 1820,341 1819,335 1816,329 1812,324 1807,320 1801,317 1795,315 1788,314 1782,315 1776,317 1770,320 1766,324 1762,329 1759,335 1758,341 1757,348 1758,354 1759,360 1762,366 1766,371 1770,375 1776,378 1782,380 1788,381 1788,381"/>
<polygon class="pen1 brush0" points="1635,267 1644,266 1652,264 1659,260 1665,255 1669,250 1673,243 1675,235 1676,226 1675,218 1673,210 1669,203 1665,197 1659,193 1652,189 1644,187 1635,186 1627,187 1619,189 1612,193 1606,197 1601,203 1597,210 1595,218 1594,226 1595,235 1597,243 1601,250 1606,255 1612,260 1619,264 1627,266 1635,267 1635,267"/>
<polygon class="pen1 brush0" points="1413,199 1423,198 1432,195 1441,190 1448,184 1454,177 1459,169 1462,160 1463,151 1462,141 1459,132 1454,123 1448,116 1441,110 1432,105 1423,102 1413,101 1404,102 1395,105 1387,110 1380,116 1374,123 1369,132 1366,141 1365,151 1366,160 1369,169 1374,177 1380,184 1387,190 1395,195 1404,198 1413,199 1413,199"/>
<polygon class="pen1 brush0" points="1155,250 1164,249 1172,247 1179,243 1185,239 1189,233 1193,226 1195,218 1196,210 1195,202 1193,194 1189,187 1185,181 1179,176 1172,172 1164,170 1155,169 1147,170 1140,172 1133,176 1127,181 1122,187 1118,194 1116,202 1115,210 1116,218 1118,226 1122,233 1127,239 1133,243 1140,247 1147,249 1155,250 1155,250"/>
<polygon class="pen1 brush0" points="948,355 955,354 961,352 967,349 972,344 977,339 980,333 982,327 983,320 982,313 980,306 977,300 972,295 967,290 961,287 955,285 948,284 941,285 934,287 928,290 923,295 918,300 915,306 913,313 912,320 913,327 915,333 918,339 923,344 928,349 934,352 941,354 948,355 948,355"/>
<polygon class="pen1 brush0" points="763,489 770,488 777,486 783,483 788,478 792,473 795,467 797,460 798,453 797,445 795,438 792,432 788,427 783,422 777,419 770,417 763,416 756,417 749,419 743,422 737,427 732,432 729,438 727,445 726,453 727,460 729,467 732,473 737,478 743,483 749,486 756,488 763,489 763,489"/>
<polygon class="pen1 brush0" points="567,605 573,604 579,603 584,600 589,596 593,591 596,586 597,580 598,574 597,568 596,562 593,557 589,553 584,549 579,546 573,545 567,544 561,545 555,546 550,549 546,553 542,557 539,562 538,568 537,574 538,580 539,586 542,591 546,596 550,600 555,603 561,604 567,605"/>
</g>
</svg>
