<?xml version="1.0" encoding="UTF-8" standalone="no"?>
<!DOCTYPE svg PUBLIC "-//W3C//DTD SVG 1.0//EN" "http://www.w3.org/TR/2001/REC-SVG-20010904/DTD/svg10.dtd">
<svg xmlns="http://www.w3.org/2000/svg" xmlns:xlink="http://www.w3.org/1999/xlink" fill-rule="evenodd" height="0.905in" preserveAspectRatio="none" stroke-linecap="round" viewBox="0 0 1986 905" width="1.986in">
<style type="text/css">
.brush0 { fill: rgb(255,255,255); }
.pen0 { stroke: rgb(0,0,0); stroke-width: 1; stroke-linejoin: round; }
.brush1 { fill: none; }
.pen1 { stroke: none; }
.brush2 { fill: rgb(0,0,0); }
</style>
<g>
<polygon class="pen1 brush2" points="264,527 273,526 284,524 296,521 308,518 321,517 332,518 342,522 349,530 357,552 366,577 377,604 388,633 401,663 415,693 430,724 446,754 463,783 481,810 501,835 521,857 542,876 564,890 588,900 612,905 615,903 623,899 635,892 651,884 669,877 690,870 713,866 737,864 588,628 591,626 744,865 746,865 750,862 760,854 776,843 795,830 817,817 839,804 860,794 880,787 703,592 707,588 888,787 888,787 890,782 896,769 905,750 916,728 930,706 946,685 963,669 980,659 844,526 848,521 981,652 981,639 983,620 985,599 989,577 995,556 1003,537 1014,523 1028,514 1035,513 1046,511 1062,509 1083,508 1106,506 1134,504 1164,502 1197,500 1233,497 1271,495 1310,493 1351,491 1393,488 1436,486 1480,484 1524,482 1567,480 1610,477 1653,475 1694,473 1734,471 1772,470 1808,468 1841,466 1872,465 1900,464 1924,463 1945,462 1961,461 1974,460 1981,460 1984,460 1986,457 1983,457 1976,457 1963,456 1947,455 1926,454 1902,453 1874,452 1843,450 1809,449 1773,447 1735,445 1696,443 1654,441 1612,439 1569,437 1525,435 1481,432 1438,430 1394,428 1352,426 1311,423 1271,421 1234,419 1198,416 1165,414 1134,412 1107,410 1083,408 1063,407 1047,405 1035,403 1028,402 1014,393 1004,378 996,358 990,336 986,314 983,293 982,275 981,263 848,392 844,386 980,257 964,248 947,235 932,218 917,199 904,180 893,162 884,148 879,138 704,331 700,327 873,135 854,129 833,118 811,105 789,90 768,76 751,62 738,52 731,47 571,293 567,290 724,47 702,45 682,40 666,32 653,23 643,15 636,7 631,2 630,0 591,10 556,23 524,41 496,62 470,86 447,112 426,140 408,168 393,197 379,227 368,255 358,283 351,309 344,332 340,353 336,371 331,383 323,391 313,395 300,396 288,396 275,394 264,392 255,389 248,385 239,378 229,369 219,359 207,349 194,341 180,335 165,334 148,337 128,342 107,350 87,360 67,370 50,380 37,390 28,399 17,415 8,431 3,447 3,463 4,472 7,481 10,491 15,500 20,509 26,517 32,524 38,530 54,541 71,551 89,560 108,568 126,574 144,578 161,580 177,580 190,577 202,571 213,562 224,553 234,543 244,535 254,529 264,527 264,527"/>
<polygon class="pen1 brush2" points="1058,384 1056,383 1052,382 1045,379 1037,375 1029,369 1021,362 1015,354 1011,345 1028,230 1219,209 1299,31 1261,151 1321,74 1274,172 1338,121 1282,202 1334,185 1253,257 1065,281 1058,384 1058,384"/>
<polygon class="pen1 brush2" points="1065,527 1075,629 1261,655 1346,723 1291,709 1346,790 1282,740 1329,838 1270,760 1308,879 1227,702 1037,680 1020,565 1024,556 1030,549 1038,542 1046,537 1053,532 1059,529 1063,528 1065,527"/>
<polygon class="pen1 brush0" points="102,519 110,517 117,513 121,506 123,497 121,489 117,482 110,478 102,476 95,478 88,482 84,489 82,497 84,506 88,513 95,517 102,519 102,519"/>
<polygon class="pen1 brush0" points="101,440 109,439 116,434 120,428 122,420 120,412 116,405 109,401 101,399 93,401 87,405 82,412 81,420 82,428 87,434 93,439 101,440"/>
<polygon class="pen1 brush2" points="298,543 299,543 300,542 303,542 308,541 313,541 320,541 327,542 336,543 336,656 237,787 253,882 227,828 210,896 207,822 159,892 182,811 122,848 169,790 130,783 194,761 298,645 298,543"/>
<polygon class="pen1 brush2" points="284,375 285,375 286,375 289,376 293,376 298,376 304,376 312,376 321,375 321,260 221,129 237,34 210,88 193,20 192,94 142,24 166,107 106,68 153,125 109,139 190,155 284,273 284,375"/>
</g>
</svg>
