<?xml version="1.0" encoding="UTF-8" standalone="no"?>
<!DOCTYPE svg PUBLIC "-//W3C//DTD SVG 1.0//EN" "http://www.w3.org/TR/2001/REC-SVG-20010904/DTD/svg10.dtd">
<svg xmlns="http://www.w3.org/2000/svg" xmlns:xlink="http://www.w3.org/1999/xlink" fill-rule="evenodd" height="0.883in" preserveAspectRatio="none" stroke-linecap="round" viewBox="0 0 1980 883" width="1.98in">
<style type="text/css">
.brush0 { fill: rgb(255,255,255); }
.pen0 { stroke: rgb(0,0,0); stroke-width: 1; stroke-linejoin: round; }
.brush1 { fill: none; }
.pen1 { stroke: none; }
.brush2 { fill: rgb(0,0,0); }
</style>
<g>
<polygon class="pen1 brush2" points="1487,531 1527,551 1526,553 1522,559 1517,567 1511,579 1503,576 1495,574 1488,571 1480,569 1472,566 1465,564 1457,561 1449,558 1446,565 1454,568 1462,570 1469,573 1477,575 1485,578 1493,580 1501,583 1509,585 1505,593 1500,601 1496,610 1492,619 1480,615 1467,611 1455,608 1443,603 1430,599 1418,595 1406,590 1394,585 1392,592 1403,596 1415,600 1427,605 1439,609 1452,613 1464,617 1477,620 1489,623 1485,630 1482,637 1479,644 1476,650 1459,646 1442,641 1425,637 1408,632 1391,627 1374,621 1358,616 1341,610 1340,616 1357,622 1373,628 1390,633 1406,639 1423,643 1439,648 1456,652 1473,656 1468,667 1465,677 1464,685 1463,691 1462,691 1459,690 1454,689 1447,688 1439,686 1430,684 1419,682 1407,678 1394,675 1381,671 1366,666 1352,661 1337,656 1321,650 1306,643 1291,636 1287,637 1277,641 1261,647 1240,655 1214,664 1185,675 1154,686 1121,697 1087,708 1053,719 1020,730 989,739 960,747 934,753 912,757 896,758 898,761 903,769 912,780 925,795 923,798 919,806 912,817 903,831 894,846 886,860 878,873 872,883 869,879 861,867 850,851 837,831 823,809 812,788 804,769 801,754 749,757 699,758 650,758 603,756 558,753 515,748 473,742 434,734 396,726 359,716 325,706 292,694 261,681 231,668 204,654 178,639 207,633 176,618 169,617 161,616 154,615 147,613 140,610 132,606 125,602 117,596 112,592 101,582 85,566 67,547 47,526 28,504 12,483 0,464 81,480 74,471 67,463 60,455 53,446 46,438 39,430 33,421 26,412 26,411 26,409 27,405 28,400 31,395 36,389 42,383 52,377 63,372 78,367 97,364 120,361 147,361 178,362 215,366 257,372 300,379 341,386 378,391 413,396 445,401 476,404 504,407 530,409 554,410 577,410 599,409 620,408 640,405 659,402 678,397 696,392 703,382 713,362 724,336 736,307 750,276 765,247 781,222 797,204 799,205 805,208 814,212 826,217 841,224 857,232 875,240 894,248 913,257 933,266 952,275 970,283 987,291 1002,298 1014,304 1024,308 1023,309 1019,313 1014,318 1008,324 1002,331 998,339 995,347 995,355 999,362 1008,368 1021,372 1041,374 1068,374 1103,371 1147,366 1200,356 1215,351 1228,341 1242,329 1255,316 1268,303 1282,292 1297,283 1313,279 1341,304 1340,305 1336,308 1332,312 1327,316 1323,321 1320,326 1320,330 1324,333 1332,335 1346,334 1365,331 1392,325 1428,315 1472,301 1527,283 1592,260 1601,255 1613,246 1626,233 1640,217 1656,199 1672,180 1689,159 1706,137 1722,116 1739,95 1755,76 1769,58 1783,42 1795,29 1805,20 1813,15 1825,10 1835,8 1844,8 1851,10 1857,15 1861,22 1865,32 1868,44 1870,65 1872,100 1874,146 1879,199 1888,256 1904,315 1927,371 1959,423 1963,428 1970,438 1976,446 1979,450 1968,461 1955,470 1940,476 1923,479 1904,481 1885,480 1865,478 1844,475 1823,470 1802,465 1781,459 1762,452 1743,446 1726,439 1710,433 1696,427 1685,425 1673,426 1661,428 1647,432 1633,437 1619,444 1604,451 1590,459 1575,468 1561,478 1547,487 1533,497 1520,506 1508,515 1497,523 1487,531"/>
<polygon class="pen1 brush0" points="108,478 115,477 122,472 126,466 128,458 126,450 122,444 115,440 108,439 101,440 94,444 90,450 88,458 90,466 94,472 101,477 108,478"/>
<polygon class="pen1 brush0" points="209,468 225,477 238,487 246,498 251,508 253,518 252,528 248,537 242,546 233,554 223,562 210,568 197,572 182,576 166,577 149,577 132,575 180,562 208,544 220,523 222,502 216,484 210,471 206,465 209,468"/>
<polygon class="pen1 brush0" points="176,618 190,619 205,620 219,618 233,616 247,612 260,607 272,601 282,593 291,584 299,573 304,562 308,548 308,534 307,517 302,500 294,481 354,495 411,507 466,517 519,526 569,534 617,539 663,544 707,546 749,548 790,549 829,548 867,546 903,543 939,539 973,534 1007,529 1040,522 1072,515 1104,508 1136,499 1168,491 1199,481 1231,472 1262,462 1294,452 1327,441 1360,431 1394,421 1429,410 1465,400 1502,390 1540,380 1554,391 1571,399 1588,405 1603,408 1616,410 1625,412 1627,415 1621,419 1582,443 1542,466 1502,489 1461,511 1420,532 1379,553 1337,573 1294,593 1251,611 1208,629 1165,645 1121,660 1077,674 1032,687 988,699 943,709 898,718 852,726 807,731 761,736 715,738 669,739 623,737 577,734 531,729 485,722 438,713 392,702 346,688 299,672 253,654 207,633 176,618"/>
</g>
</svg>
