<?xml version="1.0" encoding="UTF-8" standalone="no"?>
<!DOCTYPE svg PUBLIC "-//W3C//DTD SVG 1.0//EN" "http://www.w3.org/TR/2001/REC-SVG-20010904/DTD/svg10.dtd">
<svg xmlns="http://www.w3.org/2000/svg" xmlns:xlink="http://www.w3.org/1999/xlink" fill-rule="evenodd" height="0.849in" preserveAspectRatio="none" stroke-linecap="round" viewBox="0 0 1978 849" width="1.978in">
<style type="text/css">
.brush0 { fill: rgb(255,255,255); }
.pen0 { stroke: rgb(0,0,0); stroke-width: 1; stroke-linejoin: round; }
.brush1 { fill: none; }
.pen1 { stroke: none; }
.brush2 { fill: rgb(0,0,0); }
</style>
<g>
<polygon class="pen1 brush2" points="34,359 45,354 60,347 78,338 100,328 125,317 153,305 184,293 219,280 257,267 298,255 342,243 390,231 440,221 493,213 550,205 609,200 610,194 614,179 621,156 630,128 640,96 653,62 668,30 684,0 917,206 918,206 920,206 923,206 929,206 937,206 947,206 959,206 974,206 977,201 986,186 1000,166 1017,140 1037,114 1058,87 1079,63 1099,45 1365,236 1346,268 1348,269 1355,270 1366,272 1380,275 1398,278 1417,281 1438,284 1460,287 1482,289 1505,291 1527,292 1548,292 1567,292 1584,289 1597,285 1608,280 1618,272 1633,262 1650,251 1670,238 1693,224 1718,210 1744,195 1772,181 1800,168 1828,156 1856,146 1883,139 1910,133 1935,131 1958,133 1978,138 1973,146 1958,167 1938,198 1915,235 1892,275 1872,313 1857,346 1852,371 1854,395 1861,427 1871,465 1883,505 1897,545 1913,581 1929,611 1944,632 1941,632 1934,630 1923,628 1907,625 1889,620 1867,615 1843,608 1818,599 1790,590 1762,578 1733,565 1704,551 1675,534 1647,516 1621,495 1596,473 1589,468 1577,463 1562,459 1544,455 1524,453 1502,451 1478,451 1454,451 1429,453 1405,457 1381,462 1359,468 1339,477 1321,487 1306,499 1294,513 1362,575 1243,747 1139,609 1137,610 1129,614 1118,619 1102,626 1082,635 1060,644 1034,653 1005,662 973,672 940,680 905,687 868,693 830,697 792,699 752,699 713,695 708,699 695,711 676,728 654,750 631,775 610,800 593,826 582,849 579,846 571,836 558,820 544,799 527,773 511,743 496,709 484,672 479,670 470,667 459,663 445,659 429,653 411,647 393,640 373,634 353,627 333,620 314,613 296,607 280,601 265,595 253,591 244,587 247,587 255,587 267,585 283,583 301,580 321,575 342,568 363,558 383,546 402,531 417,513 430,491 438,465 440,434 437,399 427,359 428,361 429,367 430,377 431,389 431,403 429,420 425,437 418,456 407,475 392,493 373,511 348,527 317,542 280,554 235,564 183,570 182,569 178,567 172,563 164,557 154,551 143,543 131,535 117,525 103,515 88,504 73,492 57,481 42,469 27,456 13,444 0,432 85,439 34,359"/>
<polygon class="pen1 brush0" points="180,388 186,387 192,386 197,383 201,379 205,375 208,370 209,364 210,358 209,352 208,346 205,341 201,337 197,333 192,330 186,329 180,328 174,329 169,330 163,333 159,337 155,341 152,346 151,352 150,358 151,364 152,370 155,375 159,379 163,383 169,386 174,387 180,388"/>
<polygon class="pen1 brush0" points="501,334 541,339 579,343 616,347 650,351 683,354 715,357 745,360 774,363 802,365 829,367 856,368 881,370 906,371 930,372 954,373 978,373 1002,373 1026,374 1050,373 1074,373 1098,373 1123,372 1149,371 1176,370 1203,369 1231,368 1261,367 1292,366 1324,364 1358,362 1393,361 1430,359 1430,363 1430,365 1429,367 1429,369 1389,371 1350,373 1314,375 1278,377 1245,378 1212,379 1181,380 1151,381 1122,382 1094,382 1067,383 1040,383 1014,383 989,382 963,382 939,381 914,380 890,379 865,378 841,377 816,375 791,373 766,371 740,369 713,367 686,364 658,361 629,358 598,355 567,351 535,348 501,344 501,340 501,338 501,336 501,334"/>
<polygon class="pen1 brush0" points="491,402 526,407 560,411 592,416 622,419 652,423 679,426 706,429 732,431 756,434 780,436 803,437 826,439 848,440 869,441 890,442 912,442 932,442 953,443 974,442 996,442 1017,442 1039,441 1062,440 1085,440 1109,439 1134,437 1160,436 1187,435 1215,434 1245,432 1276,431 1308,429 1308,433 1308,435 1308,437 1308,439 1273,441 1239,443 1207,445 1176,446 1146,448 1117,449 1090,450 1063,451 1038,451 1013,452 989,452 966,452 943,452 920,452 898,451 877,451 855,450 833,449 812,447 790,446 768,444 746,442 724,440 701,438 677,436 653,433 628,430 603,427 576,423 549,420 520,416 490,412 490,408 491,406 491,404 491,402"/>
<polygon class="pen1 brush0" points="545,476 596,486 642,495 684,503 722,509 758,514 791,518 823,520 854,522 885,523 916,523 948,523 982,522 1018,520 1057,518 1099,516 1146,513 1146,515 1146,517 1145,519 1145,523 1094,526 1048,529 1005,531 965,532 929,533 894,533 861,532 829,530 797,527 765,524 733,520 700,515 665,509 628,502 588,495 545,486 545,484 545,482 545,480 545,476"/>
</g>
</svg>
