<?xml version="1.0" encoding="UTF-8" standalone="no"?>
<!DOCTYPE svg PUBLIC "-//W3C//DTD SVG 1.0//EN" "http://www.w3.org/TR/2001/REC-SVG-20010904/DTD/svg10.dtd">
<svg xmlns="http://www.w3.org/2000/svg" xmlns:xlink="http://www.w3.org/1999/xlink" fill-rule="evenodd" height="1.972in" preserveAspectRatio="none" stroke-linecap="round" viewBox="0 0 1827 1972" width="1.827in">
<style type="text/css">
.brush0 { fill: rgb(255,255,255); }
.pen0 { stroke: rgb(0,0,0); stroke-width: 1; stroke-linejoin: round; }
.brush1 { fill: none; }
.pen1 { stroke: none; }
.brush2 { fill: rgb(0,0,0); }
</style>
<g>
<polygon class="pen1 brush2" points="933,1390 935,1390 943,1395 957,1404 976,1415 997,1429 1022,1442 1047,1456 1072,1468 1098,1478 1124,1488 1150,1496 1175,1504 1196,1510 1212,1515 1223,1518 1227,1519 1222,1557 1218,1591 1213,1624 1208,1656 1202,1689 1194,1722 1184,1757 1172,1796 1389,1953 1136,1869 839,1926 1075,1796 1052,1705 1052,1705 1049,1696 1040,1666 1026,1622 1008,1570 989,1514 969,1462 950,1419 933,1390 933,1390"/>
<polygon class="pen1 brush2" points="469,760 470,763 476,775 487,794 502,820 520,852 542,888 567,928 596,971 626,1016 659,1061 695,1106 731,1150 770,1192 809,1231 849,1266 890,1296 921,1320 953,1343 987,1364 1022,1384 1059,1402 1096,1418 1133,1433 1171,1447 1210,1460 1248,1472 1287,1482 1325,1492 1362,1500 1399,1508 1435,1516 1470,1522 1706,1972 1740,1859 1560,1522 1567,1513 1567,1513 1567,1513 1567,1513 1568,1513 1568,1513 1569,1513 1570,1513 1571,1513 1747,1842 1774,1761 1629,1506 1631,1506 1634,1504 1637,1503 1640,1502 1777,1744 1818,1624 1703,1458 1702,1458 1699,1458 1694,1457 1687,1457 1678,1456 1667,1455 1655,1454 1641,1452 1625,1450 1607,1447 1588,1444 1568,1440 1546,1435 1523,1430 1498,1425 1472,1418 1445,1411 1416,1403 1387,1394 1356,1384 1325,1373 1292,1361 1259,1348 1225,1334 1190,1319 1154,1303 1117,1285 1080,1267 1042,1247 1004,1225 965,1202 926,1178 882,1138 843,1101 810,1067 781,1035 756,1006 736,978 719,953 705,929 694,907 686,886 680,866 675,847 672,828 669,811 668,793 666,776 665,758 664,738 665,716 667,693 671,669 676,644 683,620 693,597 705,574 719,552 736,533 756,515 779,500 805,488 835,480 868,475 863,477 851,484 833,494 812,507 791,522 771,538 756,556 747,573 737,593 725,622 714,661 706,706 704,756 710,810 727,867 757,924 776,952 797,979 818,1005 840,1030 863,1055 886,1079 911,1102 936,1125 962,1146 989,1167 1017,1186 1045,1205 1074,1222 1104,1239 1134,1255 1165,1269 1181,1276 1197,1283 1214,1290 1231,1297 1249,1304 1267,1311 1286,1319 1305,1326 1324,1333 1344,1340 1364,1348 1384,1355 1405,1361 1426,1368 1447,1374 1469,1380 1490,1386 1512,1392 1534,1397 1556,1402 1579,1406 1601,1410 1623,1414 1646,1417 1669,1419 1691,1421 1714,1422 1737,1423 1759,1423 1782,1422 1805,1421 1827,1419 1824,1413 1815,1395 1801,1366 1782,1329 1759,1284 1732,1233 1701,1177 1668,1118 1633,1056 1595,994 1556,932 1517,873 1476,816 1436,765 1397,720 1358,682 1327,655 1293,628 1258,600 1220,572 1181,543 1140,514 1098,486 1056,457 1013,430 970,402 928,376 886,350 844,326 804,302 766,280 729,260 701,245 678,229 660,212 646,197 635,183 629,172 626,165 626,162 639,134 645,110 645,88 640,67 639,64 636,57 630,49 620,39 605,28 585,19 557,11 521,5 505,4 489,4 473,5 456,7 439,10 422,14 405,18 388,23 361,31 335,40 312,49 291,58 274,65 261,72 253,76 250,77 249,115 252,158 259,203 270,252 283,302 299,353 316,404 335,455 355,505 374,553 394,598 413,640 430,678 446,711 459,739 469,760 469,760"/>
<polygon class="pen1 brush2" points="233,262 237,316 233,316 222,315 206,314 187,311 168,308 150,302 135,296 125,287 233,262 233,262"/>
<polygon class="pen1 brush2" points="220,104 218,105 213,109 205,114 194,121 182,129 167,139 152,150 136,161 119,173 102,185 86,197 72,209 58,220 46,230 37,240 30,248 23,264 25,281 32,299 42,317 54,333 65,345 74,354 77,357 85,262 91,261 107,257 130,252 156,246 183,241 206,237 223,235 230,236 226,199 223,163 221,131 220,104"/>
<polygon class="pen1 brush0" points="469,736 459,716 447,690 432,659 416,623 398,583 379,540 361,494 342,446 324,398 308,349 293,300 280,252 270,207 263,163 260,123 261,87 264,85 273,81 286,75 304,67 325,58 349,48 375,39 403,30 418,26 433,23 448,20 462,17 477,16 491,15 505,15 518,16 552,22 578,30 598,39 612,49 621,59 627,67 630,74 632,77 635,96 633,115 626,136 612,162 612,165 617,174 625,187 637,203 653,221 671,239 691,257 713,272 700,404 622,354 606,536 548,462 530,614 467,562 469,736"/>
<polygon class="pen1 brush2" points="365,97 355,99 346,104 340,112 338,123 340,133 346,141 355,146 365,148 375,146 383,141 388,133 390,123 388,112 383,104 375,99 365,97"/>
<polygon class="pen1 brush0" points="1061,1713 1085,1645 1126,1720 1159,1634 1161,1634 1166,1635 1173,1638 1180,1641 1188,1646 1194,1652 1197,1661 1197,1671 1195,1684 1192,1698 1189,1714 1184,1731 1179,1748 1174,1765 1168,1782 1162,1798 1351,1933 1135,1859 882,1909 1085,1798 1061,1713"/>
</g>
</svg>
