<?xml version="1.0" encoding="UTF-8" standalone="no"?>
<!DOCTYPE svg PUBLIC "-//W3C//DTD SVG 1.0//EN" "http://www.w3.org/TR/2001/REC-SVG-20010904/DTD/svg10.dtd">
<svg xmlns="http://www.w3.org/2000/svg" xmlns:xlink="http://www.w3.org/1999/xlink" fill-rule="evenodd" height="0.929in" preserveAspectRatio="none" stroke-linecap="round" viewBox="0 0 1986 929" width="1.986in">
<style type="text/css">
.brush0 { fill: rgb(255,255,255); }
.pen0 { stroke: rgb(0,0,0); stroke-width: 1; stroke-linejoin: round; }
.brush1 { fill: none; }
.pen1 { stroke: none; }
.brush2 { fill: rgb(0,0,0); }
</style>
<g>
<polygon class="pen1 brush2" points="857,151 870,156 887,165 909,176 934,189 962,204 993,220 1025,238 1058,257 1091,277 1124,298 1156,318 1187,338 1216,358 1242,377 1264,395 1283,412 1285,412 1289,412 1296,412 1304,411 1314,411 1325,410 1336,409 1347,408 1348,412 1352,424 1356,442 1362,466 1365,469 1374,476 1388,486 1404,497 1421,510 1438,521 1454,531 1466,537 1469,535 1477,529 1490,519 1508,507 1530,493 1556,478 1587,463 1621,448 1658,435 1698,423 1741,414 1786,409 1834,407 1883,411 1934,420 1986,435 1982,436 1972,440 1958,445 1942,451 1924,458 1908,466 1894,474 1885,482 1854,459 1851,462 1841,469 1827,481 1808,498 1786,518 1761,541 1735,568 1708,597 1681,628 1656,660 1632,694 1612,729 1595,765 1583,800 1577,836 1577,870 1581,898 1582,916 1581,924 1577,925 1571,913 1562,888 1552,854 1541,815 1530,773 1521,732 1514,697 1510,669 1508,655 1504,641 1498,628 1490,616 1481,604 1471,594 1459,585 1447,576 1433,569 1419,562 1404,557 1388,552 1372,549 1356,547 1340,547 1323,547 1351,605 1349,604 1345,601 1338,598 1329,592 1317,587 1304,580 1288,574 1272,567 1253,561 1234,555 1215,550 1194,547 1173,545 1152,544 1131,546 1111,550 1036,618 976,537 974,536 968,535 958,532 945,529 928,525 909,520 887,516 863,511 836,507 808,503 779,499 748,496 716,494 684,493 651,493 618,495 596,495 575,495 557,497 543,505 535,522 536,552 547,598 570,662 568,662 561,661 549,656 535,645 516,627 495,599 472,560 446,506 441,505 428,504 408,501 383,496 353,491 320,485 285,477 250,469 216,459 184,449 156,438 133,425 116,412 107,398 108,384 118,368 125,366 137,364 154,364 173,365 194,367 213,370 230,374 243,379 241,378 235,375 227,371 216,365 202,359 187,354 171,348 155,343 139,340 123,338 108,339 95,342 83,349 75,359 69,373 67,391 66,391 64,390 60,388 56,386 51,383 45,379 38,375 32,370 25,364 20,358 14,352 11,345 8,338 7,330 7,322 10,314 14,306 19,298 27,289 38,280 50,271 66,262 85,253 107,243 145,229 185,216 225,204 266,194 307,184 348,176 388,169 427,162 465,157 501,152 535,149 566,146 594,144 619,142 641,141 658,141 660,140 665,135 672,129 683,121 695,111 710,100 726,88 744,75 763,63 783,50 804,38 825,28 845,18 866,10 886,4 905,0 902,3 894,11 884,23 874,39 866,58 863,79 867,101 881,124 857,151"/>
<polygon class="pen1 brush0" points="270,313 278,311 285,306 289,299 290,291 289,283 285,276 278,272 270,270 262,272 255,276 251,283 249,291 251,299 255,306 262,311 270,313"/>
<polygon class="pen1 brush0" points="377,300 387,305 397,314 405,327 410,343 410,361 403,380 388,399 362,418 363,415 367,410 371,405 377,397 383,389 387,380 391,369 392,358 390,335 385,317 379,305 377,300"/>
<polygon class="pen1 brush0" points="418,301 428,306 438,315 446,328 451,344 451,362 444,381 429,400 404,419 408,412 418,399 428,382 432,360 430,337 425,318 420,306 418,301"/>
<polygon class="pen1 brush0" points="453,301 463,306 474,315 482,328 487,344 487,362 480,381 465,400 439,419 440,416 444,412 448,406 454,399 460,391 464,382 468,371 469,360 467,337 461,318 456,306 453,301"/>
</g>
</svg>
