<?xml version="1.0" encoding="UTF-8" standalone="no"?>
<!DOCTYPE svg PUBLIC "-//W3C//DTD SVG 1.0//EN" "http://www.w3.org/TR/2001/REC-SVG-20010904/DTD/svg10.dtd">
<svg xmlns="http://www.w3.org/2000/svg" xmlns:xlink="http://www.w3.org/1999/xlink" fill-rule="evenodd" height="1.561in" preserveAspectRatio="none" stroke-linecap="round" viewBox="0 0 1979 1561" width="1.979in">
<style type="text/css">
.brush0 { fill: rgb(255,255,255); }
.pen0 { stroke: rgb(0,0,0); stroke-width: 1; stroke-linejoin: round; }
.brush1 { fill: none; }
.pen1 { stroke: none; }
.brush2 { fill: rgb(0,0,0); }
</style>
<g>
<polygon class="pen1 brush2" points="479,987 474,978 468,967 462,956 454,944 445,931 435,918 425,904 413,889 400,874 385,858 370,842 353,825 335,808 316,791 295,774 273,757 268,728 256,649 237,537 216,407 192,272 170,150 151,54 137,0 139,2 144,7 152,16 163,29 175,45 189,64 205,86 221,112 237,141 253,172 268,207 282,244 295,284 305,326 314,371 319,419 321,360 325,231 333,103 344,44 347,54 356,81 369,122 383,174 397,233 408,295 414,357 414,416 417,407 424,383 433,348 445,307 456,264 467,224 474,191 478,169 481,175 489,191 499,218 510,252 519,293 524,340 524,392 516,446 519,444 528,435 542,422 559,403 576,381 593,355 606,327 615,298 619,323 626,386 630,466 624,542 627,544 635,549 647,559 664,572 684,588 707,606 731,627 758,649 785,672 812,696 839,721 864,746 889,770 911,793 930,815 945,835 943,836 940,839 934,846 927,855 917,866 905,880 891,895 875,913 857,933 837,954 815,977 791,1001 764,1026 736,1052 705,1080 672,1108 677,1105 691,1095 713,1080 743,1059 778,1032 819,1000 863,964 910,922 958,876 1007,826 1056,772 1104,714 1148,653 1189,589 1226,522 1256,452 1258,451 1263,448 1271,444 1282,438 1296,431 1313,422 1332,412 1353,401 1375,389 1400,376 1426,362 1453,348 1482,332 1511,317 1541,300 1572,284 1603,267 1633,250 1664,233 1695,216 1724,199 1753,183 1781,166 1808,151 1834,136 1858,121 1880,107 1900,95 1918,83 1933,72 1946,62 1956,54 1955,57 1950,66 1942,79 1930,97 1916,119 1898,143 1878,170 1856,198 1832,227 1807,256 1780,284 1753,311 1724,336 1696,359 1667,378 1638,393 1641,392 1649,388 1661,383 1678,376 1697,367 1720,356 1745,345 1772,332 1800,318 1828,303 1856,288 1884,273 1911,257 1936,241 1959,225 1979,210 1977,212 1973,218 1966,228 1956,241 1943,257 1929,275 1912,295 1893,316 1872,338 1850,360 1826,383 1800,405 1774,426 1746,446 1717,464 1688,480 1690,479 1697,477 1707,474 1720,469 1735,463 1753,456 1773,449 1794,440 1816,431 1838,422 1859,412 1880,402 1900,391 1918,380 1935,370 1948,359 1948,360 1946,364 1943,371 1939,380 1933,390 1926,403 1917,417 1906,433 1892,450 1876,468 1858,487 1837,507 1813,527 1786,548 1756,568 1722,589 1723,589 1727,588 1733,586 1740,585 1749,582 1760,579 1772,575 1785,571 1799,566 1814,561 1828,555 1844,549 1858,542 1873,535 1887,527 1901,518 1886,562 1865,602 1837,640 1805,674 1770,705 1732,733 1692,758 1652,780 1613,800 1576,816 1542,830 1512,841 1487,849 1468,855 1457,858 1454,859 1452,862 1447,870 1439,882 1428,898 1415,917 1399,939 1382,963 1363,989 1342,1015 1320,1041 1297,1067 1274,1092 1250,1116 1226,1136 1202,1154 1179,1169 1182,1169 1192,1170 1208,1173 1229,1176 1254,1181 1283,1185 1316,1190 1351,1195 1389,1199 1427,1202 1466,1205 1506,1206 1545,1205 1582,1202 1618,1197 1651,1190 1652,1195 1653,1208 1654,1228 1655,1252 1653,1279 1648,1306 1639,1332 1625,1355 1337,1278 1615,1379 1615,1384 1610,1394 1601,1409 1589,1426 1573,1445 1554,1463 1532,1480 1509,1494 1506,1492 1500,1487 1491,1480 1478,1470 1464,1458 1448,1445 1431,1431 1414,1416 1396,1401 1380,1387 1364,1374 1350,1362 1338,1352 1329,1345 1323,1340 1321,1338 1483,1511 1480,1513 1472,1518 1459,1525 1444,1533 1426,1542 1406,1550 1386,1557 1367,1561 1365,1556 1360,1544 1351,1526 1339,1504 1323,1478 1302,1450 1277,1421 1246,1392 1211,1366 1169,1342 1122,1322 1068,1308 1007,1301 940,1301 865,1311 783,1331 777,1331 766,1330 749,1328 729,1325 704,1321 676,1315 646,1309 612,1302 577,1294 540,1285 501,1276 463,1265 423,1254 385,1242 347,1230 310,1217 290,1210 269,1202 249,1195 230,1188 211,1181 193,1174 176,1167 160,1159 145,1152 132,1143 120,1135 111,1125 103,1115 98,1105 95,1093 94,1081 101,1053 115,1032 137,1016 163,1004 194,997 229,992 265,991 302,991 338,993 372,995 404,998 432,1000 455,1000 471,999 479,994 479,987 479,987"/>
<polygon class="pen1 brush2" points="100,1021 99,1018 90,1017 75,1019 56,1026 38,1037 22,1055 12,1080 10,1112 11,1110 13,1106 17,1101 24,1095 33,1091 44,1088 59,1090 76,1096 76,1094 75,1089 75,1081 76,1071 78,1059 82,1047 89,1034 100,1021 100,1021"/>
<polygon class="pen1 brush2" points="79,1102 78,1102 74,1104 68,1105 61,1108 53,1110 44,1113 36,1116 29,1118 29,1119 31,1121 34,1124 40,1128 49,1131 61,1134 77,1135 97,1135 93,1133 87,1126 81,1115 79,1102"/>
<polygon class="pen1 brush0" points="199,1081 208,1079 215,1075 219,1068 221,1060 219,1051 215,1044 208,1040 199,1038 191,1040 184,1044 180,1051 178,1060 180,1068 184,1075 191,1079 199,1081"/>
</g>
</svg>
