<?xml version="1.0" encoding="UTF-8" standalone="no"?>
<!DOCTYPE svg PUBLIC "-//W3C//DTD SVG 1.0//EN" "http://www.w3.org/TR/2001/REC-SVG-20010904/DTD/svg10.dtd">
<svg xmlns="http://www.w3.org/2000/svg" xmlns:xlink="http://www.w3.org/1999/xlink" fill-rule="evenodd" height="1.149in" preserveAspectRatio="none" stroke-linecap="round" viewBox="0 0 1979 1149" width="1.979in">
<style type="text/css">
.brush0 { fill: rgb(255,255,255); }
.pen0 { stroke: rgb(0,0,0); stroke-width: 1; stroke-linejoin: round; }
.brush1 { fill: none; }
.pen1 { stroke: none; }
.brush2 { fill: rgb(0,0,0); }
</style>
<g>
<polygon class="pen1 brush2" points="11,227 9,213 10,199 15,186 22,172 32,159 44,147 59,136 75,125 92,115 110,107 129,99 148,93 167,88 185,84 203,82 219,82 233,83 248,85 263,87 279,89 294,91 310,94 326,96 341,99 364,68 372,108 378,108 404,75 409,116 413,119 439,84 445,128 450,129 473,96 479,139 482,139 497,104 506,146 510,148 530,112 540,153 544,155 561,115 573,156 577,156 588,112 608,155 610,154 613,153 616,153 618,152 632,105 651,146 654,145 662,96 689,131 692,129 698,81 725,112 730,108 733,62 763,94 770,92 771,47 797,81 804,79 807,31 838,71 845,69 845,21 875,64 879,62 882,10 908,58 913,58 921,7 939,55 946,54 959,0 976,54 980,54 997,0 1011,52 1017,52 1034,0 1048,54 1053,54 1070,0 1084,58 1087,58 1105,1 1121,62 1125,64 1142,6 1158,69 1163,71 1186,15 1192,79 1198,81 1232,28 1230,95 1234,96 1271,45 1264,112 1266,113 1267,113 1268,114 1269,115 1304,64 1297,136 1298,136 1299,137 1300,139 1301,139 1345,91 1327,163 1331,167 1382,122 1359,193 1365,197 1412,153 1395,224 1399,229 1459,182 1439,247 1445,250 1493,200 1483,261 1492,263 1529,219 1527,271 1537,274 1570,233 1570,283 1580,285 1608,247 1608,294 1615,297 1639,257 1644,305 1647,306 1650,307 1653,309 1655,310 1682,271 1682,319 1684,320 1687,321 1689,323 1692,324 1723,285 1719,336 1727,341 1760,301 1759,358 1760,358 1762,360 1764,361 1767,362 1797,318 1790,378 1793,379 1795,380 1796,382 1798,383 1837,346 1823,405 1825,406 1826,408 1828,410 1831,413 1871,382 1850,435 1851,437 1853,439 1854,441 1855,443 1906,416 1872,470 1877,474 1935,467 1894,508 1895,510 1896,512 1897,515 1898,517 1942,521 1909,551 1910,553 1911,554 1911,556 1912,558 1963,568 1919,602 1919,603 1919,605 1919,606 1919,608 1979,621 1921,643 1919,649 1972,672 1915,685 1913,690 1959,720 1902,727 1902,728 1901,729 1900,730 1899,731 1936,770 1885,761 1885,763 1884,764 1883,766 1882,767 1909,818 1861,800 1858,804 1878,858 1834,831 1830,836 1841,899 1798,866 1794,869 1807,933 1760,896 1754,899 1760,964 1722,920 1716,923 1713,976 1686,940 1679,943 1675,1000 1639,963 1631,967 1628,1017 1598,981 1590,986 1584,1031 1553,1000 1547,1003 1544,1048 1513,1015 1506,1017 1493,1062 1466,1031 1457,1034 1442,1082 1413,1047 1406,1048 1392,1092 1368,1058 1361,1061 1345,1102 1321,1071 1313,1071 1290,1113 1267,1081 1257,1085 1240,1123 1219,1092 1210,1092 1190,1135 1168,1101 1163,1101 1148,1138 1127,1106 1121,1108 1108,1143 1081,1112 1077,1112 1067,1149 1043,1125 1007,1119 1013,1116 1029,1109 1055,1097 1089,1081 1130,1062 1175,1040 1225,1017 1277,991 1331,965 1384,938 1435,910 1484,884 1528,859 1567,835 1599,814 1622,795 1651,767 1674,739 1691,713 1704,688 1711,664 1714,641 1713,619 1708,598 1699,578 1687,560 1672,543 1654,526 1633,511 1610,497 1585,485 1559,473 1531,463 1502,455 1472,447 1441,441 1411,436 1380,432 1350,430 1321,429 1292,430 1264,431 1238,435 1214,440 1192,446 1172,453 1155,462 1141,473 1124,488 1105,504 1086,521 1067,538 1049,553 1033,567 1020,579 1011,588 1007,590 999,591 989,590 979,588 969,583 962,575 959,563 962,548 965,540 971,529 978,515 988,499 999,482 1012,464 1027,444 1043,425 1060,405 1078,387 1098,369 1118,353 1138,340 1159,328 1180,320 1202,315 1201,315 1198,314 1193,314 1187,314 1179,314 1170,316 1159,318 1146,322 1133,328 1118,336 1102,345 1086,358 1068,373 1050,391 1031,412 1011,437 1009,437 1004,437 995,438 984,438 970,439 955,439 937,439 919,438 899,438 878,436 858,434 837,432 817,428 798,424 780,418 763,412 765,409 772,401 780,389 789,373 798,357 803,339 804,323 800,308 791,297 780,288 766,283 751,280 734,280 715,283 696,289 676,298 681,297 693,295 711,293 732,292 752,294 770,301 782,313 787,332 785,345 779,358 769,372 757,387 742,402 726,417 708,432 689,446 670,459 650,472 632,483 615,493 599,502 586,508 575,512 568,514 558,514 548,511 539,505 531,497 526,487 525,474 530,460 540,443 550,432 558,423 566,415 573,409 579,404 586,399 592,393 598,386 593,386 580,385 559,384 532,382 498,379 461,376 419,371 375,366 330,359 283,351 238,342 193,332 152,320 113,306 79,291 51,274 63,276 77,278 91,280 106,282 121,284 137,286 153,288 169,290 185,292 200,293 215,294 229,294 243,295 256,294 267,293 277,292 265,290 251,288 236,286 219,283 201,280 183,277 164,273 145,270 126,266 108,263 90,260 74,257 58,254 44,251 33,249 23,247 19,242 16,237 13,232 11,227 11,227"/>
<polygon class="pen1 brush2" points="519,444 327,447 429,464 304,501 442,496 320,557 456,524 378,591 480,551 442,605 550,525 535,520 524,512 516,501 512,489 511,476 512,464 515,453 519,444"/>
<polygon class="pen1 brush2" points="945,550 945,553 945,561 946,572 949,583 956,594 967,602 984,605 1007,601 932,696 945,639 851,704 918,622 787,670 904,588 784,601 895,561 827,547 945,550"/>
<polygon class="pen1 brush0" points="244,207 255,205 265,198 271,189 273,177 271,166 265,157 255,151 244,149 233,151 224,157 218,166 216,177 218,189 224,198 233,205 244,207"/>
</g>
</svg>
