<?xml version="1.0" encoding="UTF-8" standalone="no"?>
<!DOCTYPE svg PUBLIC "-//W3C//DTD SVG 1.0//EN" "http://www.w3.org/TR/2001/REC-SVG-20010904/DTD/svg10.dtd">
<svg xmlns="http://www.w3.org/2000/svg" xmlns:xlink="http://www.w3.org/1999/xlink" fill-rule="evenodd" height="1.389in" preserveAspectRatio="none" stroke-linecap="round" viewBox="0 0 2071 1389" width="2.071in">
<style type="text/css">
.brush0 { fill: rgb(255,255,255); }
.pen0 { stroke: rgb(0,0,0); stroke-width: 1; stroke-linejoin: round; }
.brush1 { fill: none; }
.pen1 { stroke: none; }
.brush2 { fill: rgb(0,0,0); }
</style>
<g>
<polygon class="pen1 brush2" points="1033,510 1038,510 1043,510 1048,510 1053,511 1058,511 1063,512 1068,513 1073,514 1081,499 1090,483 1099,466 1110,449 1123,432 1137,414 1152,396 1170,378 1189,360 1211,343 1236,326 1263,310 1292,295 1325,280 1361,267 1400,255 1437,246 1477,240 1518,236 1561,233 1604,232 1648,230 1692,229 1735,227 1776,225 1816,220 1853,214 1887,206 1918,194 1945,180 1968,161 1985,138 2004,94 2007,63 1996,43 1978,34 1957,34 1938,43 1925,59 1924,80 1920,80 1919,67 1921,56 1927,46 1935,39 1945,33 1956,30 1967,29 1979,30 1989,34 1999,40 2006,49 2011,61 2012,76 2010,94 2002,115 1990,140 1972,164 1950,183 1923,198 1892,210 1858,218 1821,225 1781,229 1740,231 1697,233 1654,235 1610,236 1566,238 1523,240 1481,245 1441,251 1403,260 1361,273 1324,287 1290,301 1259,317 1232,333 1207,350 1186,367 1167,385 1150,402 1135,420 1122,437 1110,454 1100,470 1091,486 1083,501 1075,515 1093,522 1109,529 1124,538 1136,547 1146,558 1154,570 1160,584 1164,598 1171,590 1180,580 1192,569 1205,558 1220,546 1237,533 1256,519 1277,506 1298,491 1321,477 1346,462 1371,448 1398,433 1425,419 1453,405 1482,392 1512,379 1542,367 1572,355 1603,344 1633,335 1664,326 1695,319 1725,313 1755,308 1785,305 1814,304 1843,304 1871,306 1898,310 1924,317 1949,325 1944,366 1935,410 1923,456 1906,504 1887,553 1864,602 1838,651 1810,699 1779,745 1747,790 1712,831 1676,868 1638,901 1600,929 1560,952 1520,968 1530,1012 1535,1071 1532,1137 1524,1205 1508,1270 1486,1325 1458,1365 1422,1383 1405,1379 1386,1374 1366,1367 1346,1360 1325,1350 1303,1340 1281,1330 1259,1318 1237,1306 1216,1294 1196,1282 1176,1269 1158,1257 1141,1245 1126,1233 1112,1222 1106,1257 1099,1287 1090,1314 1080,1335 1069,1353 1058,1366 1048,1374 1038,1377 1019,1368 1002,1349 989,1323 978,1295 970,1267 964,1243 961,1227 959,1221 939,1237 918,1253 896,1269 873,1284 851,1298 828,1311 805,1324 782,1335 760,1346 739,1356 718,1364 699,1372 681,1378 665,1383 650,1387 638,1389 604,1369 576,1329 555,1275 539,1211 531,1144 529,1079 533,1022 545,978 506,967 467,948 429,922 392,889 355,852 320,810 287,764 255,715 226,665 199,613 175,561 154,509 136,459 122,410 112,365 106,323 131,314 158,308 185,303 213,300 241,300 271,300 300,303 330,307 360,312 391,319 421,326 451,335 482,345 512,356 542,368 571,380 600,393 628,407 656,421 683,435 709,449 734,464 758,479 781,493 802,508 823,522 842,535 859,549 875,561 889,573 901,585 911,595 916,581 922,569 930,557 940,547 951,538 964,530 978,523 994,517 986,503 978,488 969,472 959,455 948,438 935,421 920,403 903,386 884,368 863,351 838,334 811,318 781,302 747,287 709,273 667,260 629,251 589,245 547,240 504,238 461,236 417,235 373,233 331,231 290,229 250,225 213,218 179,210 148,198 121,183 99,164 81,140 69,115 61,94 59,76 60,61 65,49 72,40 82,34 92,30 104,29 115,30 126,33 136,39 144,46 150,56 152,67 151,80 147,80 146,59 133,43 114,34 93,34 75,43 64,63 67,94 86,138 103,161 126,180 153,194 184,206 218,214 255,220 295,225 336,227 379,229 423,230 466,232 510,233 552,236 594,240 633,246 670,255 709,267 745,281 778,295 808,311 835,327 859,344 881,361 901,379 918,397 934,415 948,433 960,451 971,468 980,485 989,501 997,516 1001,515 1005,514 1010,513 1014,512 1019,511 1023,511 1028,510 1033,510"/>
<polygon class="pen1 brush2" points="1098,1008 1105,1038 1109,1071 1111,1106 1112,1143 1111,1189 1107,1232 1100,1271 1090,1305 1078,1333 1065,1354 1051,1368 1038,1373 1024,1369 1011,1356 998,1336 986,1309 975,1277 967,1239 961,1197 958,1152 958,1112 960,1074 964,1040 970,1009 976,1029 984,1048 991,1063 1000,1077 1009,1087 1018,1095 1027,1100 1037,1101 1046,1099 1055,1093 1064,1085 1072,1074 1080,1060 1087,1045 1093,1027 1098,1008"/>
<polygon class="pen1 brush2" points="1085,706 1097,741 1105,784 1108,832 1108,882 1108,894 1107,907 1106,920 1105,931 1102,968 1096,1000 1089,1028 1080,1052 1070,1071 1059,1084 1048,1093 1037,1096 1022,1092 1007,1079 993,1059 981,1032 970,1000 962,963 956,921 954,876 954,840 958,793 967,745 979,707 991,711 1005,714 1019,716 1033,716 1047,715 1061,713 1074,710 1085,706"/>
<polygon class="pen1 brush2" points="1161,607 1159,629 1153,648 1141,666 1126,680 1107,692 1085,701 1061,707 1035,710 1011,709 988,704 968,696 950,685 935,671 924,655 917,637 914,617 915,596 922,577 934,560 949,545 968,533 989,524 1011,518 1034,516 1055,517 1077,522 1098,529 1117,539 1134,552 1148,567 1157,586 1161,607"/>
<polygon class="pen1 brush2" points="953,930 939,938 924,946 908,952 891,958 872,963 853,967 831,970 809,973 784,975 758,976 731,977 702,977 671,976 638,975 603,974 566,972 528,968 490,954 451,932 413,903 376,867 340,826 305,780 271,730 240,679 212,625 186,571 164,517 145,465 130,415 120,369 114,327 125,322 137,317 151,313 166,310 182,308 200,306 218,305 238,305 259,306 281,308 304,310 327,313 352,318 377,323 403,329 430,336 458,344 486,353 514,364 543,375 573,387 603,401 633,415 663,431 694,448 725,466 756,485 787,506 818,528 849,551 879,575 910,601 910,622 913,640 919,656 928,669 938,681 950,691 962,699 975,705 967,729 961,756 956,783 952,812 950,842 950,871 951,901 953,930"/>
<polygon class="pen1 brush2" points="954,934 941,942 927,949 911,955 895,961 877,965 857,970 836,973 814,976 789,979 764,980 736,981 707,982 676,982 643,981 608,980 571,978 567,978 562,978 558,978 553,977 552,980 550,983 549,986 548,988 538,1024 535,1078 537,1143 545,1211 560,1277 582,1332 610,1370 646,1383 658,1380 672,1376 688,1371 706,1365 724,1358 744,1349 765,1340 786,1330 808,1318 831,1306 853,1293 875,1279 897,1264 918,1248 939,1231 959,1214 954,1162 953,1109 957,1057 967,1005 963,988 959,972 956,954 954,934"/>
<polygon class="pen1 brush2" points="1108,929 1121,937 1135,944 1150,950 1166,955 1184,960 1204,963 1225,966 1247,968 1272,970 1297,971 1325,971 1355,971 1386,971 1419,969 1454,968 1491,966 1531,958 1571,941 1610,918 1649,887 1687,851 1723,811 1757,766 1790,719 1820,669 1848,618 1872,566 1894,515 1912,465 1926,417 1936,372 1941,330 1930,325 1918,321 1905,317 1890,314 1874,312 1857,310 1839,310 1820,310 1800,311 1778,313 1756,316 1733,319 1709,324 1685,329 1659,336 1633,343 1606,351 1579,361 1551,371 1523,382 1494,394 1465,408 1436,422 1406,437 1376,454 1346,472 1316,490 1285,510 1255,532 1224,554 1194,577 1164,602 1163,630 1155,653 1143,671 1129,685 1114,694 1102,701 1092,704 1089,705 1101,740 1109,782 1112,829 1111,879 1111,891 1110,903 1109,916 1108,928 1108,928 1108,928 1108,928 1108,929"/>
<polygon class="pen1 brush2" points="1108,934 1121,942 1135,949 1150,955 1167,960 1185,965 1205,969 1226,972 1249,974 1273,976 1299,977 1327,977 1357,977 1388,977 1422,976 1457,975 1494,973 1498,973 1502,973 1507,973 1511,972 1513,975 1514,977 1516,980 1517,983 1526,1019 1530,1072 1527,1137 1519,1206 1504,1271 1482,1326 1453,1364 1417,1378 1405,1375 1392,1371 1376,1367 1360,1360 1342,1353 1323,1345 1303,1336 1282,1326 1261,1315 1239,1303 1218,1290 1196,1277 1175,1263 1154,1248 1134,1232 1114,1216 1116,1161 1115,1102 1110,1048 1100,1005 1105,973 1107,951 1108,938 1108,934"/>
<polygon class="pen1 brush0" points="1098,733 1106,724 1115,715 1125,706 1136,697 1148,688 1160,679 1172,669 1185,660 1185,662 1186,664 1188,665 1190,666 1192,666 1195,665 1197,664 1198,662 1198,660 1198,658 1196,656 1194,654 1202,649 1209,643 1217,638 1225,633 1234,628 1242,622 1250,617 1259,612 1259,614 1261,616 1262,618 1265,619 1268,619 1271,618 1274,617 1275,614 1275,611 1275,608 1274,606 1272,604 1280,600 1288,595 1295,591 1303,586 1311,582 1319,577 1327,573 1335,569 1336,572 1338,574 1340,576 1343,578 1347,578 1352,577 1355,574 1357,570 1358,567 1357,564 1356,561 1354,558 1362,554 1370,550 1378,546 1386,542 1393,538 1401,534 1409,530 1417,526 1418,530 1421,533 1423,535 1427,537 1433,537 1438,536 1443,532 1446,527 1446,523 1446,520 1445,516 1443,513 1450,510 1458,506 1465,503 1473,499 1480,495 1488,492 1495,488 1502,485 1504,489 1506,492 1509,494 1513,496 1520,497 1526,495 1531,491 1534,485 1535,481 1535,478 1534,475 1533,472 1541,468 1549,465 1557,461 1565,458 1573,454 1580,451 1588,448 1595,445 1597,450 1601,454 1605,458 1610,460 1619,461 1627,459 1634,453 1638,446 1639,442 1639,437 1638,433 1636,429 1644,426 1651,423 1659,420 1666,418 1673,415 1679,413 1686,411 1692,409 1694,417 1698,423 1704,429 1711,432 1716,433 1722,433 1727,432 1732,430 1736,428 1740,424 1743,419 1745,414 1746,403 1744,393 1737,385 1727,380 1722,379 1716,379 1711,380 1706,381 1702,384 1698,388 1695,393 1693,398 1692,400 1692,402 1692,404 1692,406 1686,408 1679,410 1672,412 1665,415 1658,417 1650,420 1643,423 1635,426 1633,423 1630,421 1627,419 1623,418 1615,417 1606,419 1600,425 1595,432 1594,435 1594,437 1594,440 1595,442 1587,445 1580,448 1572,451 1564,455 1556,458 1547,462 1539,465 1531,469 1526,465 1521,463 1516,463 1511,465 1507,468 1504,472 1502,477 1502,483 1494,486 1487,490 1479,493 1472,497 1464,500 1457,504 1449,507 1441,511 1433,508 1425,509 1419,515 1417,523 1409,527 1401,531 1393,535 1385,540 1376,544 1368,548 1360,553 1352,557 1346,555 1341,557 1337,561 1335,567 1327,571 1319,576 1310,580 1302,585 1294,589 1286,594 1279,598 1271,603 1267,603 1263,604 1260,607 1259,610 1250,616 1241,621 1233,627 1224,632 1216,637 1208,643 1200,648 1192,654 1190,654 1188,655 1187,657 1186,658 1173,667 1160,677 1148,686 1136,695 1125,704 1115,713 1106,722 1098,731 1098,731 1098,732 1098,732 1098,733"/>
<polygon class="pen1 brush0" points="1108,779 1116,773 1125,768 1134,762 1144,756 1154,750 1164,744 1175,739 1186,733 1186,735 1186,737 1188,738 1189,739 1191,740 1193,739 1195,738 1197,736 1197,734 1197,732 1196,730 1195,729 1203,725 1211,722 1219,718 1227,714 1236,710 1244,707 1252,703 1261,700 1261,702 1262,703 1263,705 1265,706 1268,707 1271,707 1274,705 1276,703 1277,701 1277,698 1276,696 1275,694 1283,691 1290,688 1298,685 1306,682 1314,680 1322,677 1330,674 1338,671 1338,674 1339,677 1341,679 1343,681 1347,682 1351,681 1355,679 1358,676 1359,673 1359,670 1358,667 1357,664 1365,661 1373,659 1381,656 1389,653 1396,651 1404,648 1412,646 1420,643 1421,647 1422,650 1424,653 1427,655 1432,656 1438,655 1442,652 1445,648 1447,645 1447,642 1447,639 1446,636 1453,633 1460,631 1468,629 1475,627 1482,624 1490,622 1497,620 1504,618 1505,622 1507,625 1509,627 1512,629 1518,631 1524,630 1529,627 1533,622 1534,619 1535,616 1535,613 1534,610 1542,608 1550,606 1558,604 1566,602 1573,600 1581,598 1588,596 1596,594 1597,599 1599,603 1602,607 1606,610 1614,612 1622,611 1629,607 1634,601 1636,597 1637,593 1637,589 1636,585 1643,584 1651,582 1658,581 1665,579 1671,578 1678,577 1684,576 1690,575 1690,582 1693,589 1697,595 1703,599 1708,601 1712,601 1717,601 1722,600 1726,598 1730,595 1734,591 1737,587 1740,577 1739,568 1735,559 1727,553 1722,551 1717,551 1713,551 1708,552 1703,554 1699,557 1696,561 1693,565 1692,567 1691,568 1691,570 1690,572 1684,573 1678,574 1671,575 1664,576 1657,578 1650,579 1643,581 1635,582 1633,580 1631,577 1629,575 1626,573 1618,571 1611,572 1604,577 1598,583 1597,585 1597,587 1596,589 1596,591 1588,593 1581,595 1573,597 1565,599 1557,601 1549,604 1541,606 1533,608 1526,601 1516,601 1508,606 1504,616 1497,618 1489,620 1482,622 1474,624 1467,627 1459,629 1452,631 1444,634 1438,629 1430,630 1424,634 1420,641 1412,644 1404,646 1396,649 1388,652 1380,654 1372,657 1364,660 1356,663 1351,660 1345,661 1341,664 1338,669 1330,672 1322,675 1313,678 1305,681 1297,684 1289,687 1281,690 1273,693 1270,692 1266,692 1263,695 1261,698 1252,702 1243,705 1234,709 1226,713 1217,717 1209,720 1201,724 1193,728 1191,728 1189,729 1188,730 1186,731 1175,737 1164,742 1154,748 1144,754 1134,760 1125,766 1116,771 1108,777 1108,777 1108,777 1108,777 1108,777 1108,778 1108,778 1108,778 1108,778 1108,778 1108,778 1108,778 1108,778 1108,778 1108,778 1108,778 1108,778 1108,778 1108,778 1108,778 1108,778 1108,778 1108,778 1108,778 1108,778 1108,778 1108,779"/>
<polygon class="pen1 brush0" points="1111,815 1119,811 1128,808 1137,804 1146,801 1156,797 1166,794 1177,790 1188,787 1188,789 1188,790 1188,792 1189,793 1191,794 1193,794 1195,793 1196,792 1197,790 1198,788 1197,787 1196,785 1203,783 1210,781 1218,780 1225,778 1233,777 1240,775 1248,774 1256,772 1256,774 1256,775 1257,777 1258,778 1260,780 1263,780 1265,779 1267,777 1268,775 1269,773 1269,771 1268,769 1275,768 1282,767 1289,766 1296,764 1303,763 1310,762 1317,761 1324,760 1324,762 1325,765 1326,767 1327,769 1330,771 1334,771 1337,770 1340,767 1342,765 1343,763 1343,760 1342,758 1349,757 1356,756 1363,755 1370,754 1376,753 1383,753 1390,752 1397,751 1397,754 1398,757 1399,760 1401,762 1405,764 1409,764 1414,763 1417,760 1419,757 1420,754 1420,751 1420,748 1426,748 1433,747 1439,747 1446,746 1452,745 1458,745 1465,744 1471,744 1471,747 1472,750 1474,753 1476,755 1480,758 1485,758 1490,757 1494,753 1496,751 1497,748 1498,745 1498,742 1505,742 1511,741 1518,741 1525,741 1532,740 1538,740 1545,740 1551,740 1551,744 1552,748 1554,752 1557,755 1563,758 1569,759 1576,757 1581,752 1583,749 1585,746 1586,743 1586,739 1592,739 1599,739 1605,739 1611,739 1616,739 1622,739 1627,740 1632,740 1631,746 1632,752 1635,758 1639,763 1643,765 1646,767 1650,767 1654,767 1658,766 1662,764 1666,762 1669,759 1673,751 1674,742 1672,734 1666,728 1662,725 1659,724 1655,723 1651,723 1647,724 1643,726 1639,728 1636,731 1635,732 1635,734 1634,735 1633,737 1628,737 1622,736 1616,736 1611,736 1604,736 1598,736 1592,736 1585,736 1584,734 1583,731 1581,729 1580,727 1574,724 1567,723 1560,725 1555,730 1554,732 1553,733 1552,735 1551,737 1545,737 1538,738 1531,738 1525,738 1518,739 1511,739 1504,740 1497,740 1492,733 1484,731 1476,734 1471,742 1465,742 1458,743 1452,743 1445,744 1439,745 1432,745 1426,746 1419,746 1414,741 1408,740 1402,743 1398,749 1391,750 1384,751 1377,751 1370,752 1362,753 1355,754 1348,755 1341,756 1337,753 1332,752 1328,754 1325,758 1318,759 1310,760 1303,761 1296,763 1288,764 1281,765 1274,767 1267,768 1264,766 1261,766 1258,767 1256,770 1248,772 1240,773 1232,775 1225,777 1217,778 1210,780 1202,782 1195,784 1193,784 1192,784 1190,785 1189,786 1178,789 1167,792 1157,795 1147,799 1137,802 1128,806 1119,810 1111,814 1111,815"/>
<polygon class="pen1 brush0" points="967,728 959,720 951,711 941,703 931,694 921,686 909,677 897,668 885,659 885,661 884,662 882,663 880,664 878,665 875,664 873,663 872,660 872,658 873,656 874,654 876,653 868,648 861,642 853,637 845,632 836,627 828,621 820,616 811,611 811,613 810,615 808,616 806,617 802,618 799,617 796,615 795,612 795,609 795,607 796,605 798,603 790,598 783,594 775,589 767,585 759,580 751,576 743,571 735,567 734,570 733,573 730,575 727,576 723,577 719,575 715,573 713,569 712,565 713,562 714,559 716,557 708,553 700,549 692,545 685,540 677,536 669,532 661,528 653,524 652,528 650,531 647,533 643,535 637,535 632,534 627,530 624,525 624,521 624,518 625,515 627,512 620,508 612,505 605,501 597,498 590,494 583,491 576,487 569,484 567,488 565,490 562,493 558,494 551,495 545,493 540,489 537,483 536,480 536,476 537,473 538,470 530,466 522,463 514,459 506,456 498,452 491,449 483,446 476,443 474,448 470,452 466,456 461,458 453,459 444,457 438,452 433,444 432,440 433,435 433,431 435,427 427,424 420,421 412,419 405,416 398,414 392,412 385,410 379,408 377,415 373,422 367,427 360,431 355,432 349,432 344,431 339,429 335,426 331,422 328,418 326,413 325,402 328,392 334,383 344,378 349,377 355,377 360,378 365,380 369,383 373,387 376,391 378,396 379,398 379,400 379,402 379,404 385,406 392,408 399,410 406,413 413,415 421,418 429,421 437,424 439,422 441,420 444,418 448,416 456,415 465,418 471,423 476,431 477,433 477,435 477,438 476,440 484,443 491,447 499,450 507,454 515,457 524,461 532,464 540,468 545,464 550,462 555,461 560,463 564,466 568,470 570,475 570,481 577,484 584,488 591,491 599,495 606,499 614,503 621,506 629,510 637,506 645,508 651,513 653,522 661,526 669,530 677,534 686,538 694,543 702,547 710,551 718,555 724,554 729,555 733,559 735,565 743,570 751,574 760,579 768,583 776,588 784,592 792,597 800,602 804,601 807,602 810,605 811,609 820,614 829,620 837,625 846,630 854,636 862,641 870,647 878,652 880,652 882,653 884,655 885,657 898,666 910,675 921,684 932,692 942,701 951,710 960,718 968,727 968,727 968,727 968,728 967,728"/>
<polygon class="pen1 brush0" points="884,732 884,733 884,735 882,736 881,737 879,738 877,738 875,737 873,735 873,733 873,731 874,729 875,727 867,723 859,720 851,716 843,712 835,709 826,705 818,702 809,698 809,700 808,702 807,703 805,705 802,706 799,705 796,704 794,701 793,699 793,696 794,694 795,692 787,689 780,687 772,684 764,681 756,678 748,675 740,673 732,670 732,672 731,675 729,677 727,679 723,680 719,679 715,677 712,674 711,671 711,668 712,665 713,663 705,660 697,657 689,654 682,652 674,649 666,647 658,644 650,642 649,645 648,648 646,651 643,653 638,654 633,653 628,651 625,647 623,643 623,640 623,637 625,634 618,632 610,630 603,627 595,625 588,623 581,621 574,619 567,617 566,620 564,623 562,626 559,628 553,630 547,629 542,626 538,621 537,618 536,614 536,611 537,608 529,606 521,604 513,602 505,600 498,598 490,596 483,595 475,593 474,597 472,602 469,605 465,608 457,610 449,609 442,605 437,599 435,595 435,591 434,588 435,584 428,582 420,581 413,579 407,578 400,576 394,575 388,574 382,573 381,580 378,587 374,593 368,597 363,599 359,599 354,599 349,598 345,596 341,593 337,589 334,585 331,576 332,566 336,558 344,552 349,550 354,549 358,549 363,550 368,552 372,555 375,559 378,563 379,565 380,566 381,568 381,570 387,571 393,572 400,573 407,575 414,576 421,578 428,579 436,581 438,578 440,576 442,574 445,572 453,570 461,571 468,575 473,581 474,583 474,585 475,588 475,590 483,592 490,594 498,596 506,598 514,600 522,602 530,604 538,606 545,599 555,599 563,604 567,614 574,616 581,618 589,621 596,623 604,625 611,627 619,630 626,632 632,628 640,628 646,632 650,640 658,642 666,645 674,647 682,650 690,653 698,656 706,658 714,661 720,659 725,660 730,663 732,668 740,671 748,674 757,677 765,679 773,682 781,685 789,688 797,691 800,690 804,690 807,693 809,696 818,700 827,703 836,707 844,711 853,715 861,718 869,722 877,726 879,726 881,727 882,728 884,730 895,736 905,741 915,746 924,751 933,757 941,762 949,767 957,773 957,774 949,768 941,763 933,758 924,753 915,747 905,742 895,737 884,732"/>
<polygon class="pen1 brush0" points="953,811 945,807 937,804 929,800 921,797 912,795 903,792 893,789 882,786 882,787 882,789 882,790 881,791 879,792 877,792 875,792 874,790 873,788 873,786 873,785 874,783 867,781 860,780 852,778 845,776 837,775 830,773 822,772 814,770 814,772 814,773 813,775 812,777 810,778 807,778 805,777 803,775 802,773 801,771 801,770 802,768 795,767 788,765 781,764 774,763 767,761 760,760 753,759 746,758 746,761 745,763 744,765 743,767 740,769 736,769 733,768 730,766 729,764 728,761 728,758 728,756 721,755 714,754 707,753 701,752 694,751 687,751 680,750 673,749 673,752 672,755 671,758 669,760 665,762 661,762 656,761 653,758 651,755 650,752 650,750 650,747 644,746 637,746 631,745 625,744 618,744 612,743 605,743 599,742 599,746 598,749 596,751 594,753 590,756 585,756 580,755 576,751 574,749 573,746 573,743 573,741 566,740 560,740 553,739 546,739 539,739 533,739 526,738 520,738 520,742 519,747 517,751 514,754 508,757 502,757 495,755 490,750 488,747 487,744 486,741 486,737 479,737 473,737 467,737 461,737 455,738 449,738 444,738 439,738 440,744 439,750 437,756 433,761 429,763 425,765 421,765 417,765 413,765 409,763 405,760 402,757 398,749 398,740 400,732 405,726 409,723 412,722 416,721 420,721 424,722 428,724 432,727 435,730 436,731 437,732 437,734 438,735 443,735 449,735 455,735 461,735 467,735 473,735 479,735 486,735 487,732 488,730 490,727 492,725 498,722 504,722 511,724 516,728 517,730 518,732 519,734 520,736 526,736 533,736 539,736 546,737 553,737 560,737 566,738 573,738 578,731 586,729 594,732 599,740 605,740 612,741 618,741 625,742 631,743 638,744 644,744 651,745 656,740 662,739 668,741 672,747 679,748 686,749 693,750 701,750 708,751 715,752 722,753 729,754 733,751 738,751 742,753 745,757 752,758 760,759 767,760 774,761 782,763 789,764 796,765 803,766 806,764 809,764 812,766 814,768 822,770 830,772 838,773 845,775 853,777 860,778 868,780 875,782 877,782 878,782 880,783 881,784 892,787 902,790 911,793 920,795 928,798 936,802 945,805 953,809 953,810 953,810 953,810 953,811"/>
<polygon class="pen1 brush0" points="853,1128 849,1131 845,1134 841,1137 837,1141 832,1145 828,1150 823,1154 819,1159 819,1160 819,1162 819,1163 818,1165 817,1166 816,1166 814,1166 813,1166 809,1171 805,1176 800,1181 796,1187 797,1189 798,1191 797,1193 796,1195 794,1196 793,1197 791,1197 789,1197 785,1202 782,1207 778,1213 774,1218 775,1220 775,1222 774,1225 773,1227 771,1228 770,1229 768,1229 766,1229 762,1235 759,1241 755,1247 751,1253 751,1253 753,1256 755,1260 754,1264 752,1267 750,1269 747,1270 745,1270 742,1270 738,1276 735,1282 732,1288 730,1293 734,1296 736,1300 735,1305 733,1310 730,1312 725,1313 721,1313 717,1311 714,1307 713,1303 714,1299 716,1295 719,1293 722,1291 726,1291 729,1292 731,1287 734,1281 737,1275 740,1269 737,1266 735,1262 735,1258 737,1254 740,1252 744,1251 747,1251 750,1252 753,1246 757,1240 760,1235 764,1229 761,1227 759,1224 759,1220 761,1216 764,1214 767,1214 770,1214 773,1216 776,1211 780,1206 783,1201 787,1196 785,1194 784,1191 784,1189 786,1186 788,1184 790,1184 793,1184 795,1185 798,1181 803,1175 809,1168 811,1165 809,1162 811,1158 814,1157 818,1158 818,1158 822,1153 827,1148 831,1144 836,1139 840,1136 844,1132 847,1129 851,1127 853,1128 853,1128"/>
<polygon class="pen1 brush0" points="797,1092 796,1090 792,1092 787,1094 782,1096 777,1098 772,1101 767,1104 761,1107 755,1110 754,1109 752,1108 751,1108 749,1109 747,1110 747,1112 746,1113 747,1115 742,1119 737,1122 731,1126 726,1130 724,1128 722,1127 719,1127 717,1128 715,1130 714,1133 714,1135 715,1138 710,1142 706,1145 701,1149 696,1153 695,1153 695,1153 695,1153 695,1153 693,1151 690,1149 687,1149 684,1150 682,1152 681,1155 681,1158 682,1161 683,1162 683,1162 683,1163 684,1163 679,1167 674,1172 669,1176 664,1181 661,1179 658,1178 654,1178 651,1180 648,1183 647,1187 647,1191 649,1195 645,1200 640,1205 636,1209 632,1214 629,1212 626,1211 622,1211 619,1213 616,1216 614,1220 614,1224 616,1228 619,1232 623,1233 627,1233 631,1232 635,1228 636,1224 636,1219 633,1215 637,1210 641,1206 646,1201 651,1196 653,1197 656,1197 659,1197 662,1196 665,1193 666,1190 666,1186 665,1182 670,1177 675,1173 680,1168 685,1164 687,1165 689,1165 691,1165 693,1164 695,1162 696,1160 696,1157 696,1155 701,1151 707,1147 712,1143 717,1139 719,1140 721,1140 722,1140 724,1139 726,1138 727,1136 727,1134 727,1132 732,1128 738,1124 743,1120 748,1117 750,1118 751,1118 753,1118 754,1117 755,1116 756,1115 756,1113 756,1112 762,1108 768,1105 773,1102 778,1099 783,1097 788,1095 793,1093 797,1092 797,1092"/>
<polygon class="pen1 brush0" points="763,1037 763,1035 758,1036 753,1038 748,1040 743,1042 737,1044 731,1046 725,1049 719,1052 718,1051 716,1050 714,1050 712,1050 711,1051 710,1053 710,1055 710,1057 705,1060 699,1063 693,1066 688,1069 686,1067 684,1066 681,1066 679,1066 677,1068 675,1071 675,1073 676,1076 671,1079 666,1082 660,1086 655,1089 653,1086 650,1085 647,1084 644,1085 641,1088 640,1091 640,1095 642,1098 637,1102 631,1106 626,1110 621,1114 618,1112 615,1110 612,1110 608,1111 605,1114 603,1118 603,1122 605,1126 600,1130 595,1135 590,1139 586,1143 583,1141 580,1140 577,1140 573,1141 570,1144 568,1148 568,1152 569,1156 572,1160 575,1162 579,1162 583,1161 587,1158 590,1154 589,1149 587,1144 592,1140 596,1136 601,1131 606,1127 609,1129 612,1129 614,1130 617,1129 620,1126 622,1123 623,1119 622,1115 622,1115 622,1115 622,1115 621,1115 627,1111 633,1107 638,1103 644,1099 646,1100 648,1100 649,1100 651,1099 653,1098 655,1096 655,1093 655,1091 661,1087 666,1084 672,1081 677,1077 679,1078 681,1079 683,1079 685,1078 686,1077 688,1075 688,1073 688,1071 694,1067 700,1064 706,1061 711,1058 713,1059 714,1059 716,1059 717,1059 718,1058 718,1057 719,1055 719,1054 725,1051 732,1048 737,1046 743,1043 749,1041 754,1039 759,1038 763,1037 763,1037"/>
<polygon class="pen1 brush0" points="953,1137 954,1136 941,1139 926,1140 911,1140 894,1138 877,1134 860,1129 843,1122 826,1113 811,1103 797,1090 784,1076 774,1061 766,1043 761,1024 759,1003 760,980 760,980 758,1003 761,1024 766,1043 774,1061 784,1077 796,1091 810,1103 826,1114 842,1122 859,1130 876,1135 893,1139 910,1141 926,1141 940,1140 953,1137"/>
<polygon class="pen1 brush0" points="1217,1125 1221,1128 1225,1131 1229,1134 1234,1138 1238,1142 1243,1147 1247,1151 1252,1156 1251,1157 1251,1159 1251,1160 1252,1162 1254,1163 1255,1163 1257,1163 1258,1163 1262,1168 1266,1173 1270,1179 1274,1184 1273,1186 1273,1188 1274,1190 1275,1192 1277,1193 1278,1194 1280,1194 1282,1194 1286,1199 1290,1204 1293,1210 1297,1215 1296,1217 1296,1219 1297,1222 1298,1224 1300,1225 1301,1226 1303,1226 1305,1226 1309,1232 1312,1238 1316,1244 1319,1250 1319,1250 1317,1253 1316,1257 1316,1261 1318,1264 1320,1266 1323,1267 1326,1267 1329,1267 1332,1273 1335,1279 1338,1285 1340,1290 1336,1293 1335,1298 1335,1303 1337,1307 1341,1310 1345,1311 1350,1310 1353,1308 1356,1305 1357,1300 1357,1296 1354,1292 1351,1290 1348,1288 1345,1288 1342,1289 1340,1284 1337,1278 1334,1272 1330,1266 1334,1263 1335,1259 1335,1255 1333,1251 1330,1249 1327,1248 1324,1248 1321,1249 1317,1244 1314,1238 1310,1232 1306,1226 1309,1224 1311,1221 1311,1217 1309,1214 1306,1212 1304,1211 1301,1211 1298,1213 1294,1208 1291,1203 1287,1198 1283,1193 1285,1191 1286,1188 1286,1186 1285,1183 1283,1181 1280,1181 1277,1181 1275,1182 1272,1178 1267,1172 1261,1165 1259,1162 1261,1159 1260,1155 1257,1154 1253,1155 1253,1155 1249,1150 1244,1145 1240,1141 1235,1136 1231,1133 1227,1129 1223,1126 1219,1124 1217,1125 1217,1125"/>
<polygon class="pen1 brush0" points="1274,1089 1275,1087 1279,1089 1284,1091 1289,1093 1294,1095 1299,1098 1304,1101 1309,1104 1315,1107 1317,1106 1319,1105 1320,1105 1322,1106 1323,1108 1324,1109 1324,1111 1323,1113 1328,1116 1334,1120 1339,1123 1345,1127 1347,1125 1349,1124 1352,1124 1354,1125 1356,1127 1357,1130 1357,1133 1355,1135 1360,1139 1365,1143 1370,1147 1375,1151 1375,1150 1375,1150 1375,1150 1375,1150 1377,1148 1380,1146 1383,1146 1386,1148 1388,1150 1390,1153 1390,1155 1389,1158 1388,1159 1388,1159 1387,1160 1387,1160 1392,1164 1397,1169 1402,1173 1407,1178 1410,1176 1413,1175 1416,1175 1419,1177 1422,1180 1424,1184 1423,1188 1421,1192 1426,1197 1431,1202 1435,1206 1438,1211 1441,1209 1445,1208 1448,1208 1451,1210 1455,1213 1456,1217 1456,1221 1455,1226 1452,1229 1448,1230 1444,1230 1439,1229 1435,1225 1434,1221 1434,1216 1437,1212 1433,1207 1429,1203 1425,1198 1420,1193 1417,1194 1415,1195 1412,1195 1409,1193 1406,1191 1405,1187 1405,1183 1406,1180 1401,1175 1396,1170 1390,1166 1385,1161 1383,1162 1382,1162 1380,1162 1378,1161 1376,1159 1375,1157 1374,1155 1374,1152 1369,1148 1364,1144 1359,1140 1354,1136 1352,1137 1351,1138 1349,1138 1347,1137 1345,1135 1344,1133 1344,1131 1344,1129 1339,1125 1333,1121 1327,1118 1322,1114 1321,1115 1320,1115 1318,1115 1317,1114 1316,1113 1315,1112 1315,1110 1315,1109 1309,1105 1303,1102 1298,1099 1293,1096 1288,1094 1283,1092 1278,1090 1274,1089 1274,1089"/>
<polygon class="pen1 brush0" points="1307,1034 1308,1033 1312,1034 1317,1035 1322,1037 1328,1039 1334,1041 1340,1043 1346,1046 1352,1049 1353,1048 1355,1047 1356,1047 1358,1047 1360,1048 1361,1050 1361,1052 1361,1054 1366,1057 1372,1060 1377,1063 1383,1066 1385,1064 1387,1063 1390,1063 1392,1063 1394,1065 1395,1068 1395,1070 1394,1073 1399,1076 1405,1080 1411,1083 1416,1087 1417,1084 1420,1082 1423,1081 1426,1082 1429,1085 1430,1088 1430,1092 1428,1095 1434,1099 1439,1103 1445,1107 1450,1111 1453,1109 1456,1107 1459,1107 1462,1108 1466,1111 1467,1115 1467,1119 1465,1123 1471,1127 1476,1132 1480,1136 1484,1140 1487,1138 1491,1137 1494,1137 1497,1138 1501,1141 1503,1145 1503,1149 1502,1153 1500,1157 1496,1159 1492,1159 1487,1158 1483,1155 1481,1151 1481,1146 1483,1141 1479,1137 1475,1133 1470,1128 1464,1124 1462,1126 1459,1127 1456,1127 1453,1126 1450,1123 1448,1120 1448,1116 1449,1113 1449,1112 1444,1108 1438,1104 1432,1100 1427,1096 1425,1097 1423,1097 1421,1097 1419,1096 1417,1095 1416,1093 1415,1091 1415,1088 1410,1085 1404,1081 1399,1078 1393,1074 1391,1075 1390,1076 1388,1076 1386,1075 1384,1074 1383,1072 1382,1070 1382,1068 1377,1064 1371,1061 1365,1058 1359,1055 1358,1056 1357,1056 1355,1056 1354,1056 1353,1055 1352,1054 1351,1052 1351,1051 1345,1048 1339,1045 1333,1043 1328,1041 1322,1039 1317,1037 1312,1035 1307,1034 1307,1034"/>
<polygon class="pen1 brush0" points="1116,1135 1116,1133 1129,1136 1144,1137 1160,1137 1176,1135 1193,1131 1211,1126 1228,1119 1244,1110 1260,1100 1274,1087 1286,1073 1296,1058 1304,1040 1309,1021 1312,1000 1310,977 1311,977 1312,1000 1310,1021 1305,1040 1297,1058 1287,1074 1274,1088 1260,1100 1245,1111 1228,1120 1211,1127 1194,1133 1176,1137 1160,1139 1144,1139 1129,1138 1116,1135"/>
</g>
</svg>
