<?xml version="1.0" encoding="UTF-8" standalone="no"?>
<!DOCTYPE svg PUBLIC "-//W3C//DTD SVG 1.0//EN" "http://www.w3.org/TR/2001/REC-SVG-20010904/DTD/svg10.dtd">
<svg xmlns="http://www.w3.org/2000/svg" xmlns:xlink="http://www.w3.org/1999/xlink" fill-rule="evenodd" height="1.977in" preserveAspectRatio="none" stroke-linecap="round" viewBox="0 0 1716 1977" width="1.716in">
<style type="text/css">
.brush0 { fill: rgb(255,255,255); }
.pen0 { stroke: rgb(0,0,0); stroke-width: 1; stroke-linejoin: round; }
.brush1 { fill: none; }
.pen1 { stroke: none; }
.brush2 { fill: rgb(0,0,0); }
</style>
<g>
<polygon class="pen1 brush2" points="1012,269 1002,247 989,227 972,209 954,195 933,183 910,175 885,170 860,168 835,170 812,175 790,184 770,195 752,210 736,227 723,246 712,268 726,270 741,271 758,273 776,274 795,275 815,276 836,277 856,278 877,278 898,278 919,278 939,277 959,276 978,274 996,272 1012,269 1012,269"/>
<polygon class="pen1 brush2" points="1074,471 1079,469 1093,462 1111,451 1132,436 1152,415 1168,389 1176,357 1174,320 1168,291 1162,261 1157,233 1153,205 1148,180 1143,158 1138,139 1131,124 1140,110 1148,96 1156,84 1164,71 1172,57 1180,41 1189,23 1199,2 1197,1 1193,1 1189,2 1186,2 1176,23 1167,41 1158,57 1150,70 1143,83 1135,96 1128,109 1120,123 1114,117 1109,113 1103,112 1097,113 1085,127 1085,154 1093,190 1103,232 1111,275 1111,316 1098,352 1067,378 1069,384 1072,399 1075,427 1074,471 1074,471"/>
<polygon class="pen1 brush2" points="649,472 644,470 629,463 609,452 588,436 567,415 550,389 542,358 544,321 550,292 555,262 560,234 564,207 569,182 574,160 580,142 587,127 579,112 571,98 563,85 555,72 547,59 539,43 530,25 520,3 522,2 526,2 529,2 531,2 541,23 550,41 558,57 566,71 574,84 582,96 589,110 597,124 602,118 608,114 614,112 621,114 634,127 634,152 625,186 614,226 607,268 608,308 623,344 658,373 656,378 652,395 649,426 649,472 649,472"/>
<polygon class="pen1 brush2" points="675,277 678,277 685,278 696,280 712,281 731,283 753,285 777,287 804,289 833,290 863,291 894,291 926,290 958,288 989,286 1020,281 1050,276 1051,280 1053,292 1055,313 1056,342 1055,382 1051,431 1043,491 1029,562 1017,551 1007,541 996,532 987,524 977,516 968,510 959,504 950,498 941,493 932,489 922,486 912,483 901,480 889,478 876,476 862,475 848,474 835,474 822,475 810,477 798,479 786,482 775,486 764,491 753,496 743,502 732,508 722,515 712,523 703,532 693,541 683,550 675,492 669,424 668,350 675,277 675,277"/>
<polygon class="pen1 brush2" points="865,1783 899,1777 932,1765 964,1748 994,1725 1023,1697 1050,1664 1076,1627 1099,1585 1120,1540 1139,1491 1156,1438 1169,1383 1180,1325 1188,1264 1193,1201 1195,1137 1193,1073 1188,1011 1180,951 1169,893 1156,838 1139,786 1121,737 1100,691 1076,650 1051,612 1024,580 995,551 965,528 934,511 901,499 867,493 865,1783 865,1783"/>
<polygon class="pen1 brush2" points="1223,1233 1225,1235 1230,1240 1238,1248 1249,1260 1261,1273 1274,1290 1288,1308 1301,1328 1315,1349 1327,1372 1337,1395 1345,1419 1350,1443 1352,1468 1350,1492 1343,1516 1327,1559 1311,1604 1293,1649 1276,1693 1259,1734 1243,1769 1229,1798 1216,1818 1221,1841 1226,1862 1232,1882 1237,1900 1242,1918 1247,1937 1252,1956 1256,1977 1253,1977 1250,1976 1246,1975 1243,1975 1238,1949 1233,1928 1228,1911 1223,1895 1219,1880 1214,1865 1209,1847 1203,1825 1193,1839 1182,1848 1172,1853 1165,1850 1160,1840 1161,1820 1168,1790 1183,1747 1203,1699 1222,1653 1238,1606 1249,1557 1253,1504 1248,1445 1233,1379 1206,1304 1208,1299 1212,1286 1217,1263 1223,1233 1223,1233"/>
<polygon class="pen1 brush2" points="480,1225 478,1227 473,1232 465,1240 455,1252 443,1265 430,1281 416,1300 403,1319 390,1341 378,1363 368,1386 360,1410 355,1434 353,1459 355,1483 362,1506 377,1550 394,1597 411,1645 429,1691 446,1733 462,1769 477,1797 490,1813 484,1835 478,1854 473,1871 468,1887 463,1904 458,1923 453,1945 448,1972 450,1972 453,1972 456,1972 459,1972 464,1945 469,1924 474,1905 479,1888 484,1872 490,1856 495,1837 500,1815 516,1815 525,1809 530,1799 531,1786 530,1773 527,1759 523,1747 520,1739 488,1667 464,1609 448,1560 439,1516 440,1473 450,1425 469,1367 499,1296 497,1291 493,1277 487,1255 480,1225 480,1225"/>
<polygon class="pen1 brush2" points="537,749 526,795 524,827 527,845 529,851 495,858 466,867 441,878 421,890 405,905 392,921 383,939 378,959 375,980 374,1003 376,1028 380,1055 385,1083 392,1113 400,1145 409,1178 412,1197 411,1214 407,1228 400,1238 391,1243 381,1243 371,1236 361,1222 347,1237 335,1249 323,1261 311,1272 298,1284 285,1297 270,1313 253,1333 252,1331 250,1328 249,1325 247,1323 264,1302 279,1286 293,1272 305,1259 317,1248 329,1236 343,1223 357,1208 347,1182 337,1148 328,1110 320,1068 312,1024 306,980 302,937 300,897 302,874 309,854 321,835 336,819 354,806 374,793 395,783 417,775 440,768 461,762 481,757 500,754 515,752 527,750 534,749 537,749 537,749"/>
<polygon class="pen1 brush2" points="1175,752 1178,752 1185,753 1196,754 1210,757 1227,760 1246,764 1267,769 1288,776 1309,784 1329,794 1348,806 1364,820 1379,836 1389,854 1396,874 1398,897 1396,937 1393,981 1387,1026 1380,1070 1371,1113 1362,1152 1353,1185 1343,1212 1357,1227 1369,1240 1381,1252 1393,1263 1406,1275 1419,1289 1435,1306 1452,1326 1450,1328 1448,1331 1446,1334 1445,1336 1429,1316 1414,1299 1401,1286 1388,1274 1376,1263 1364,1252 1351,1240 1337,1225 1328,1239 1318,1246 1308,1246 1299,1241 1292,1231 1287,1217 1286,1200 1290,1181 1299,1148 1307,1116 1315,1086 1321,1058 1326,1031 1329,1006 1329,983 1328,962 1323,942 1315,924 1304,908 1288,893 1269,881 1245,870 1216,861 1182,854 1184,848 1187,830 1186,798 1175,752 1175,752"/>
<polygon class="pen1 brush2" points="850,1783 850,1565 851,1174 851,765 851,493 803,497 759,511 719,535 683,566 652,604 624,648 600,696 579,747 561,801 546,856 535,910 525,963 518,1013 514,1060 511,1101 510,1137 511,1173 513,1215 518,1262 525,1313 534,1366 546,1420 560,1475 578,1529 598,1580 622,1628 650,1672 682,1710 717,1741 757,1765 801,1779 850,1783"/>
<polygon class="pen1 brush2" points="553,226 519,249 483,275 445,301 406,328 365,356 325,384 285,412 246,438 209,464 174,488 142,509 113,529 89,545 69,559 55,568 47,574 36,584 27,597 22,610 21,622 25,630 35,633 52,630 76,617 88,609 104,598 124,583 148,566 174,547 203,526 234,504 267,480 301,455 336,429 372,403 407,377 442,352 476,327 509,303 540,280 553,226 553,226"/>
<polygon class="pen1 brush2" points="790,151 770,134 750,126 731,125 711,129 692,137 674,149 655,162 637,175 622,232 637,220 653,206 669,191 685,179 701,171 717,168 733,173 749,187 750,186 752,183 755,179 759,174 765,168 772,162 780,156 790,151 790,151"/>
<polygon class="pen1 brush2" points="929,151 949,134 968,126 988,126 1007,130 1026,139 1044,151 1062,165 1080,178 1093,233 1078,221 1063,207 1047,193 1032,181 1016,172 1001,169 985,174 970,187 969,186 967,183 964,179 960,174 954,168 947,162 939,156 929,151 929,151"/>
<polygon class="pen1 brush2" points="1164,226 1197,249 1233,275 1272,301 1311,328 1351,356 1392,384 1432,412 1471,438 1508,464 1543,488 1575,509 1603,529 1628,545 1647,559 1661,568 1669,574 1680,584 1689,597 1694,610 1696,622 1692,630 1682,633 1665,630 1641,617 1629,609 1613,598 1593,583 1569,566 1543,547 1514,526 1483,504 1450,480 1415,455 1380,429 1345,403 1309,377 1274,352 1239,327 1206,303 1175,280 1164,226"/>
</g>
</svg>
