<?xml version="1.0" encoding="UTF-8" standalone="no"?>
<!DOCTYPE svg PUBLIC "-//W3C//DTD SVG 1.0//EN" "http://www.w3.org/TR/2001/REC-SVG-20010904/DTD/svg10.dtd">
<svg xmlns="http://www.w3.org/2000/svg" xmlns:xlink="http://www.w3.org/1999/xlink" fill-rule="evenodd" height="1.962in" preserveAspectRatio="none" stroke-linecap="round" viewBox="0 0 1965 1962" width="1.965in">
<style type="text/css">
.brush0 { fill: rgb(255,255,255); }
.pen0 { stroke: rgb(0,0,0); stroke-width: 1; stroke-linejoin: round; }
.brush1 { fill: none; }
.pen1 { stroke: none; }
.brush2 { fill: rgb(0,0,0); }
</style>
<g>
<polygon class="pen1 brush2" points="1144,1177 1145,1153 1145,1127 1147,1097 1152,1065 1160,1031 1174,995 1195,959 1225,921 1243,901 1262,877 1283,851 1304,822 1326,791 1348,759 1370,726 1392,692 1414,658 1435,624 1455,591 1475,558 1492,527 1509,498 1523,471 1535,447 1547,425 1560,404 1574,384 1589,366 1605,349 1622,332 1638,317 1655,303 1672,290 1689,278 1705,266 1721,256 1735,247 1749,238 1761,231 1772,224 1770,226 1765,231 1757,240 1746,252 1733,266 1719,282 1703,300 1687,320 1670,341 1653,362 1636,384 1620,405 1605,427 1592,447 1581,467 1573,485 1565,505 1555,530 1542,559 1529,591 1514,626 1498,663 1481,701 1464,739 1446,777 1428,813 1411,848 1393,879 1377,908 1361,932 1346,951 1333,964 1308,982 1286,998 1266,1013 1249,1026 1233,1038 1219,1050 1207,1061 1195,1072 1184,1085 1174,1100 1166,1118 1158,1135 1152,1151 1148,1165 1145,1174 1144,1177 1144,1177"/>
<polygon class="pen1 brush2" points="1554,917 1556,937 1560,958 1563,977 1564,995 1561,1011 1551,1024 1533,1034 1506,1039 1494,1038 1481,1035 1465,1029 1447,1022 1428,1015 1409,1009 1389,1006 1370,1005 1336,1010 1306,1018 1279,1029 1255,1043 1234,1059 1216,1076 1200,1095 1186,1115 1175,1136 1165,1157 1157,1178 1150,1198 1145,1217 1140,1235 1136,1251 1133,1265 1128,1226 1126,1185 1126,1142 1129,1100 1136,1058 1145,1017 1158,978 1175,941 1190,915 1207,889 1226,862 1247,834 1267,806 1288,776 1309,745 1329,714 1347,681 1364,647 1378,612 1389,575 1396,537 1400,497 1400,456 1394,413 1377,331 1361,258 1344,195 1327,141 1311,95 1296,58 1282,29 1269,7 1272,18 1282,50 1294,97 1308,155 1322,220 1333,287 1340,351 1340,409 1338,435 1335,461 1331,486 1326,511 1319,536 1312,560 1304,584 1294,608 1283,633 1270,657 1256,681 1241,705 1223,729 1204,753 1184,777 1161,802 1134,833 1109,871 1086,914 1065,960 1048,1007 1034,1054 1024,1100 1019,1142 1012,1032 1011,994 1010,957 1008,922 1008,887 1010,852 1016,816 1025,778 1040,738 1063,678 1079,623 1088,574 1092,528 1092,488 1087,452 1080,421 1070,394 1046,341 1028,303 1013,275 1002,255 993,239 984,224 975,206 965,181 955,146 953,114 959,86 968,62 979,43 990,29 999,20 1002,17 999,17 988,27 971,46 952,72 932,102 917,135 907,168 907,200 914,234 923,260 933,282 945,303 958,326 974,354 992,392 1012,443 1019,466 1024,491 1025,519 1023,549 1017,583 1005,619 988,658 965,700 941,749 927,803 920,860 919,920 922,980 929,1040 937,1097 945,1150 936,1100 927,1052 917,1007 905,964 888,923 867,882 839,842 804,802 781,777 761,753 741,729 724,705 708,681 694,657 682,633 671,608 661,584 652,560 645,536 639,511 634,486 630,461 627,435 625,409 625,351 632,287 644,220 658,155 672,97 685,50 694,18 698,7 685,29 670,58 655,95 639,141 622,195 606,258 589,331 573,413 567,456 567,497 571,537 578,575 589,612 603,647 620,681 638,714 658,745 678,776 699,806 720,834 739,862 758,889 775,915 790,941 807,978 820,1017 830,1058 837,1099 840,1141 840,1183 838,1225 833,1265 826,1228 817,1195 806,1164 793,1135 779,1110 764,1087 748,1067 731,1049 713,1035 695,1022 676,1012 658,1005 640,1001 621,998 604,998 587,1001 558,1008 531,1014 508,1019 488,1023 470,1026 455,1027 442,1027 432,1025 423,1020 417,1014 412,1005 409,993 408,979 408,962 409,941 411,917 417,850 419,793 418,744 412,703 404,670 393,645 380,626 364,613 347,606 328,604 307,606 286,613 264,623 242,636 220,651 198,669 185,683 171,698 157,713 143,725 128,733 113,735 98,729 83,714 63,693 46,686 31,690 20,700 11,714 5,728 1,740 0,744 26,722 44,717 58,723 68,737 78,753 89,768 104,776 124,774 136,770 153,761 172,748 194,733 218,717 242,702 266,690 289,681 310,678 329,681 344,693 355,714 361,747 361,792 354,852 340,927 337,945 335,963 334,982 334,1001 337,1020 340,1039 346,1056 353,1072 361,1087 372,1100 384,1110 399,1118 416,1123 435,1124 456,1121 479,1115 509,1106 537,1099 562,1096 584,1096 604,1097 622,1101 638,1107 652,1114 664,1123 674,1132 682,1141 689,1151 694,1161 698,1171 701,1179 702,1187 709,1228 719,1265 730,1298 744,1327 758,1352 774,1374 790,1392 806,1408 821,1421 836,1431 850,1439 862,1445 872,1449 880,1452 885,1454 887,1454 883,1465 877,1474 872,1481 866,1487 861,1492 857,1497 854,1503 853,1511 857,1531 867,1550 877,1565 881,1571 855,1618 836,1661 824,1702 818,1740 817,1775 821,1807 828,1836 840,1862 854,1886 870,1906 888,1923 907,1937 926,1948 945,1956 963,1960 979,1962 1017,1959 1049,1950 1075,1936 1097,1918 1114,1895 1127,1870 1135,1841 1140,1811 1142,1779 1140,1747 1136,1714 1129,1682 1120,1651 1109,1622 1097,1595 1083,1571 1084,1569 1088,1565 1093,1559 1099,1550 1104,1541 1109,1531 1113,1521 1114,1511 1113,1503 1110,1497 1105,1492 1100,1487 1094,1481 1088,1474 1083,1465 1079,1454 1081,1454 1086,1452 1094,1449 1104,1445 1116,1439 1130,1431 1145,1421 1161,1408 1177,1392 1192,1374 1208,1352 1222,1327 1236,1298 1247,1265 1256,1228 1263,1187 1265,1179 1268,1170 1272,1160 1277,1149 1285,1139 1293,1128 1304,1118 1316,1109 1330,1102 1345,1096 1363,1092 1383,1090 1405,1091 1430,1096 1457,1103 1486,1115 1507,1122 1527,1125 1545,1124 1561,1120 1576,1112 1589,1102 1601,1089 1611,1074 1619,1057 1625,1039 1630,1021 1633,1002 1634,982 1633,963 1631,945 1627,927 1619,895 1613,863 1611,833 1612,805 1616,779 1622,755 1630,734 1641,715 1654,700 1668,689 1685,681 1703,678 1722,679 1742,685 1764,696 1786,713 1804,728 1819,738 1832,745 1843,750 1853,752 1861,751 1868,750 1876,747 1883,744 1890,740 1898,737 1908,735 1919,734 1932,735 1947,738 1965,744 1964,742 1961,737 1956,730 1948,722 1937,715 1923,711 1905,709 1884,713 1866,716 1851,716 1838,712 1827,704 1817,695 1807,684 1796,672 1783,660 1775,654 1762,647 1747,640 1729,633 1709,628 1688,625 1667,626 1646,630 1625,640 1606,655 1588,677 1574,706 1562,744 1555,791 1552,849 1554,917 1554,917"/>
<polygon class="pen1 brush2" points="1029,1035 1029,1032 1030,1019 1034,998 1040,970 1051,936 1068,897 1091,855 1123,812 1127,804 1135,786 1145,759 1158,725 1172,684 1187,638 1201,587 1215,534 1226,478 1236,422 1242,367 1243,313 1240,261 1232,214 1216,172 1194,136 1194,141 1194,155 1194,177 1194,206 1192,242 1189,283 1185,329 1180,379 1172,433 1162,488 1149,544 1133,601 1114,657 1092,712 1066,765 1036,815 1032,843 1025,908 1022,982 1029,1035 1029,1035"/>
<polygon class="pen1 brush2" points="910,934 910,937 906,929 897,914 886,894 873,871 859,848 846,829 833,815 829,807 821,789 811,761 798,726 784,684 769,637 754,586 741,531 729,475 720,418 714,361 712,306 715,254 724,206 739,163 762,127 761,131 760,141 758,159 756,182 755,211 754,246 755,286 759,330 764,379 773,431 785,487 801,545 822,607 847,670 878,735 915,802 913,819 909,859 907,904 910,934 910,934"/>
<polygon class="pen1 brush2" points="823,1171 822,1168 819,1159 815,1147 809,1132 801,1115 792,1099 781,1084 770,1072 755,1058 739,1045 723,1031 706,1016 688,1002 668,986 646,969 621,951 606,937 590,918 574,895 557,867 541,837 524,803 508,768 492,732 476,696 461,659 446,624 433,590 421,559 410,531 400,507 392,487 384,469 373,449 360,428 345,407 329,385 313,363 296,341 279,321 263,301 247,283 233,266 220,252 210,240 202,231 197,226 195,224 206,231 218,238 232,247 246,256 262,266 278,278 295,290 312,303 328,317 345,332 362,349 378,366 393,384 407,404 420,425 431,447 443,471 457,498 473,527 491,558 510,591 531,624 552,658 574,692 596,726 618,760 641,792 663,823 684,852 705,878 724,902 742,923 771,960 793,995 807,1030 816,1062 820,1093 822,1122 822,1148 823,1171"/>
<polygon class="pen1 brush0" points="928,1534 937,1532 945,1527 950,1519 952,1509 950,1500 945,1492 937,1487 928,1485 919,1487 911,1492 906,1500 904,1509 906,1519 911,1527 919,1532 928,1534"/>
<polygon class="pen1 brush0" points="1040,1532 1049,1530 1056,1525 1061,1517 1063,1508 1061,1498 1056,1491 1049,1486 1040,1484 1031,1486 1023,1491 1018,1498 1016,1508 1018,1517 1023,1525 1031,1530 1040,1532"/>
<polygon class="pen1 brush0" points="716,994 726,992 734,987 740,980 742,970 740,960 734,951 726,946 716,944 706,946 698,951 693,960 691,970 693,980 698,987 706,992 716,994"/>
<polygon class="pen1 brush0" points="1249,997 1259,995 1266,989 1271,981 1273,971 1271,961 1266,952 1259,946 1249,944 1239,946 1230,952 1224,961 1222,971 1224,981 1230,989 1239,995 1249,997"/>
<polygon class="pen1 brush0" points="640,917 650,915 659,908 665,899 667,889 665,878 659,869 650,864 640,862 629,864 621,869 615,878 613,889 615,899 621,908 629,915 640,917"/>
<polygon class="pen1 brush0" points="1317,926 1327,924 1336,918 1342,909 1344,899 1342,888 1336,879 1327,874 1317,872 1306,874 1298,879 1292,888 1290,899 1292,909 1298,918 1306,924 1317,926"/>
<polygon class="pen1 brush0" points="580,828 589,826 596,821 601,814 603,805 601,795 596,788 589,783 580,781 571,783 563,788 558,795 556,805 558,814 563,821 571,826 580,828"/>
<polygon class="pen1 brush0" points="1370,836 1379,834 1387,829 1392,821 1394,812 1392,802 1387,795 1379,790 1370,788 1361,790 1354,795 1349,802 1347,812 1349,821 1354,829 1361,834 1370,836"/>
<polygon class="pen1 brush0" points="529,725 537,724 543,719 547,713 549,705 547,697 543,690 537,686 529,684 521,686 515,690 510,697 509,705 510,713 515,719 521,724 529,725"/>
<polygon class="pen1 brush0" points="1422,744 1430,742 1437,738 1441,732 1442,724 1441,716 1437,710 1430,706 1422,704 1414,706 1408,710 1404,716 1402,724 1404,732 1408,738 1414,742 1422,744"/>
<polygon class="pen1 brush0" points="483,640 490,639 496,634 500,628 502,620 500,613 496,607 490,603 483,602 476,603 470,607 466,613 465,620 466,628 470,634 476,639 483,640"/>
<polygon class="pen1 brush0" points="1472,656 1479,654 1485,650 1489,643 1490,636 1489,629 1485,623 1479,619 1472,617 1465,619 1458,623 1454,629 1452,636 1454,643 1458,650 1465,654 1472,656"/>
<polygon class="pen1 brush0" points="441,541 447,540 452,537 455,532 456,525 455,519 452,514 447,510 441,509 435,510 430,514 426,519 425,525 426,532 430,537 435,540 441,541"/>
<polygon class="pen1 brush0" points="1515,559 1521,558 1526,554 1529,550 1530,544 1529,538 1526,533 1521,529 1515,528 1509,529 1504,533 1500,538 1499,544 1500,550 1504,554 1509,558 1515,559"/>
<polygon class="pen1 brush0" points="398,458 403,457 408,453 411,449 412,443 411,437 408,432 403,428 398,427 392,428 388,432 384,437 383,443 384,449 388,453 392,457 398,458"/>
<polygon class="pen1 brush0" points="1559,474 1565,473 1570,469 1573,464 1574,457 1573,452 1570,447 1565,444 1559,443 1553,444 1548,447 1544,452 1543,457 1544,464 1548,469 1553,473 1559,474"/>
<polygon class="pen1 brush0" points="344,380 350,379 355,375 359,371 360,365 359,359 355,354 350,350 344,349 338,350 334,354 330,359 329,365 330,371 334,375 338,379 344,380"/>
<polygon class="pen1 brush0" points="1617,386 1623,385 1628,382 1632,377 1633,370 1632,365 1628,360 1623,357 1617,356 1611,357 1606,360 1602,365 1601,370 1602,377 1606,382 1611,385 1617,386"/>
<polygon class="pen1 brush0" points="857,786 867,784 874,780 879,772 881,762 879,753 874,745 867,740 857,738 848,740 840,745 835,753 833,762 835,772 840,780 848,784 857,786"/>
<polygon class="pen1 brush0" points="1108,778 1117,776 1124,771 1129,763 1131,754 1129,745 1124,737 1117,732 1108,730 1099,732 1092,737 1086,745 1084,754 1086,763 1092,771 1099,776 1108,778"/>
<polygon class="pen1 brush0" points="804,666 811,664 817,660 821,654 823,646 821,639 817,633 811,629 804,627 797,629 791,633 787,639 786,646 787,654 791,660 797,664 804,666"/>
<polygon class="pen1 brush0" points="1151,656 1159,654 1165,650 1169,643 1171,636 1169,629 1165,623 1159,619 1151,617 1144,619 1139,623 1135,629 1134,636 1135,643 1139,650 1144,654 1151,656"/>
<polygon class="pen1 brush0" points="766,517 772,516 777,512 781,507 782,501 781,495 777,490 772,486 766,485 761,486 756,490 753,495 752,501 753,507 756,512 761,516 766,517"/>
<polygon class="pen1 brush0" points="1191,501 1196,500 1201,497 1204,493 1205,487 1204,481 1201,476 1196,472 1191,471 1185,472 1180,476 1176,481 1175,487 1176,493 1180,497 1185,500 1191,501"/>
<polygon class="pen1 brush0" points="732,312 737,311 742,307 745,302 746,296 745,290 742,286 737,283 732,282 726,283 721,286 717,290 716,296 717,302 721,307 726,311 732,312"/>
<polygon class="pen1 brush0" points="1215,309 1220,308 1225,304 1228,299 1229,292 1228,287 1225,282 1220,279 1215,278 1209,279 1204,282 1200,287 1199,292 1200,299 1204,304 1209,308 1215,309"/>
<polygon class="pen1 brush0" points="1209,400 1216,399 1221,395 1224,390 1225,384 1224,378 1221,373 1216,370 1209,369 1204,370 1199,373 1196,378 1195,384 1196,390 1199,395 1204,399 1209,400"/>
<polygon class="pen1 brush0" points="742,410 747,409 752,405 755,400 756,394 755,388 752,384 747,381 742,380 736,381 731,384 727,388 726,394 727,400 731,405 736,409 742,410"/>
</g>
</svg>
