<?xml version="1.0" encoding="UTF-8" standalone="no"?>
<!DOCTYPE svg PUBLIC "-//W3C//DTD SVG 1.0//EN" "http://www.w3.org/TR/2001/REC-SVG-20010904/DTD/svg10.dtd">
<svg xmlns="http://www.w3.org/2000/svg" xmlns:xlink="http://www.w3.org/1999/xlink" fill-rule="evenodd" height="1.165in" preserveAspectRatio="none" stroke-linecap="round" viewBox="0 0 1972 1165" width="1.972in">
<style type="text/css">
.brush0 { fill: rgb(255,255,255); }
.pen0 { stroke: rgb(0,0,0); stroke-width: 1; stroke-linejoin: round; }
.brush1 { fill: none; }
.pen1 { stroke: none; }
.brush2 { fill: rgb(0,0,0); }
</style>
<g>
<polygon class="pen1 brush2" points="1963,865 1961,866 1958,861 1954,850 1948,834 1941,815 1933,792 1924,768 1913,744 1901,719 1888,696 1873,675 1857,657 1839,643 1820,635 1799,633 1777,638 1770,642 1763,650 1758,661 1756,676 1755,697 1759,722 1766,753 1777,790 1780,802 1782,814 1782,826 1781,839 1777,851 1772,864 1765,876 1756,888 1675,746 1659,750 1744,899 1739,904 1733,909 1727,913 1721,918 1714,923 1707,927 1700,931 1692,935 1598,769 1581,772 1679,941 1672,944 1664,946 1657,948 1649,950 1641,952 1632,954 1624,956 1615,958 1520,790 1504,793 1601,960 1593,961 1584,962 1576,963 1567,964 1558,965 1549,965 1540,966 1531,966 1443,811 1426,814 1514,966 1505,966 1496,965 1487,965 1478,964 1468,963 1459,962 1449,961 1439,960 1365,833 1349,837 1419,959 1406,957 1392,955 1378,952 1364,950 1350,947 1335,944 1320,941 1305,937 1290,933 1274,929 1258,925 1242,920 1226,915 1209,910 1192,904 1175,898 1167,898 1154,899 1137,902 1117,906 1096,910 1075,914 1056,918 1040,921 1040,927 1039,942 1036,965 1030,995 977,918 970,925 1027,1006 1022,1022 1017,1038 1011,1055 1003,1071 898,924 892,931 997,1081 994,1087 990,1093 986,1099 982,1105 978,1111 973,1117 968,1123 963,1129 837,935 829,942 957,1135 953,1139 949,1143 945,1147 941,1151 937,1154 932,1158 927,1161 922,1165 916,1157 901,1134 880,1102 855,1063 829,1022 806,982 788,947 778,921 776,921 771,921 763,921 752,922 739,922 724,922 708,922 691,922 674,923 656,923 639,923 622,923 607,922 593,922 581,922 572,921 578,912 594,888 613,851 631,804 642,751 642,695 626,638 587,584 587,584 578,575 568,567 558,558 547,550 535,543 522,535 508,528 493,520 495,521 499,524 506,529 514,537 525,546 536,557 548,569 561,584 561,584 581,612 598,644 610,680 615,721 612,766 597,814 570,866 527,921 523,920 510,919 490,916 463,913 432,908 396,903 357,897 317,890 275,883 232,875 191,866 152,856 116,847 84,836 58,825 37,814 30,809 23,803 17,798 12,792 7,786 4,781 3,775 3,770 6,765 11,761 18,758 29,756 42,755 59,755 80,757 105,760 116,762 126,764 135,768 143,771 150,774 155,777 158,779 159,780 146,766 134,753 121,740 107,727 92,715 75,704 55,693 33,683 26,679 19,675 15,669 13,662 13,659 15,656 18,652 21,649 26,646 33,643 41,640 50,638 51,637 55,634 60,630 68,623 77,616 88,606 101,596 116,584 116,584 136,568 158,551 181,533 206,514 233,495 260,475 289,454 319,434 349,414 379,394 410,375 441,357 471,340 501,324 531,310 560,297 561,295 565,289 571,281 580,269 591,255 605,239 622,221 642,202 647,214 653,227 658,239 665,251 672,263 679,276 687,288 696,301 709,296 700,283 692,269 685,256 678,243 671,230 665,217 659,204 653,191 662,183 671,175 681,167 691,159 701,151 712,143 723,136 734,128 737,146 741,164 746,183 752,201 758,221 766,240 775,260 785,280 801,276 791,255 783,234 775,213 768,193 762,173 757,154 753,135 750,117 761,110 773,103 784,96 796,90 808,84 821,78 834,72 847,66 847,90 848,114 850,139 854,164 860,190 868,216 877,243 889,270 903,269 892,240 884,212 877,185 871,158 867,132 865,106 864,81 864,57 875,53 885,49 896,45 907,42 919,38 930,34 941,30 953,27 951,55 951,83 952,112 955,141 960,171 968,202 978,234 991,266 1007,263 995,229 985,197 978,166 973,135 969,106 968,77 968,50 970,23 983,20 996,17 1009,14 1023,12 1037,10 1051,8 1065,6 1079,4 1071,33 1065,64 1061,96 1059,129 1060,163 1064,197 1071,233 1081,270 1097,270 1083,194 1079,125 1084,61 1098,3 1111,2 1124,1 1138,1 1151,1 1166,1 1180,1 1195,1 1210,2 1198,31 1187,62 1179,94 1172,128 1168,163 1168,200 1170,237 1175,276 1190,274 1186,234 1185,196 1187,160 1190,125 1196,92 1204,61 1214,31 1226,3 1236,3 1246,4 1256,5 1267,7 1277,9 1287,11 1298,14 1308,17 1294,45 1282,75 1271,107 1263,140 1258,174 1255,209 1254,246 1257,284 1273,284 1272,246 1273,209 1276,174 1282,140 1289,108 1298,78 1309,49 1321,22 1331,25 1342,29 1352,33 1362,37 1373,42 1383,47 1393,52 1403,57 1393,83 1383,110 1376,139 1370,168 1365,199 1363,231 1363,263 1366,297 1383,304 1381,269 1382,236 1385,204 1389,174 1395,145 1402,117 1410,90 1420,64 1428,69 1436,74 1444,79 1452,84 1460,89 1468,94 1475,99 1483,104 1475,128 1467,153 1461,178 1457,205 1454,232 1453,261 1453,290 1456,320 1473,320 1471,291 1471,263 1472,236 1475,210 1479,185 1485,161 1491,137 1499,114 1508,121 1518,128 1527,135 1536,142 1545,150 1554,157 1562,165 1571,172 1560,213 1553,256 1550,301 1551,348 1568,348 1567,305 1570,263 1577,224 1587,186 1594,193 1601,200 1608,208 1615,215 1622,223 1629,230 1636,238 1643,245 1638,275 1635,306 1634,338 1636,371 1649,374 1648,344 1649,315 1652,287 1656,260 1668,275 1680,291 1692,306 1703,322 1713,338 1723,354 1732,369 1740,385 1745,389 1752,389 1762,385 1773,377 1786,366 1801,351 1816,334 1831,314 1847,292 1862,269 1877,243 1890,217 1902,189 1912,161 1920,133 1925,104 1934,74 1943,110 1947,190 1945,291 1942,325 1939,357 1934,388 1928,417 1920,442 1911,464 1901,481 1889,493 1901,502 1912,514 1921,528 1930,544 1937,563 1943,582 1949,603 1953,625 1963,703 1966,776 1965,834 1963,865"/>
<polygon class="pen1 brush0" points="257,645 267,643 275,638 281,630 283,621 281,611 275,603 267,597 257,595 247,597 240,603 235,611 233,621 235,630 240,638 247,643 257,645"/>
<polygon class="pen1 brush0" points="730,729 745,721 759,714 772,706 786,699 798,691 810,684 821,676 832,667 842,659 852,650 861,640 870,630 878,620 886,609 893,597 899,584 889,581 882,593 874,605 867,616 858,626 850,636 841,645 832,654 822,663 812,671 801,679 790,687 778,694 766,702 754,710 741,717 727,725 730,729"/>
<polygon class="pen1 brush0" points="734,749 752,746 768,744 782,741 795,739 807,737 818,734 828,731 839,728 849,724 859,719 870,713 882,705 895,697 909,686 925,675 942,661 930,651 916,663 904,674 891,683 879,692 867,699 856,706 845,711 833,716 822,721 811,725 799,728 787,731 774,734 761,737 747,740 733,743 734,749"/>
<polygon class="pen1 brush0" points="733,770 753,771 771,772 787,773 803,774 817,775 830,775 843,774 855,773 867,770 879,767 892,763 906,758 920,751 935,743 952,733 970,722 962,710 943,721 926,730 910,738 895,745 882,750 869,755 857,758 845,760 833,762 821,764 809,764 796,765 782,765 768,765 752,766 734,766 733,770"/>
<polygon class="pen1 brush0" points="727,789 738,792 749,794 760,797 770,800 781,803 792,805 804,807 816,809 828,810 842,811 857,811 872,810 889,809 908,807 928,804 950,800 947,784 929,788 912,791 897,794 883,796 870,798 858,799 846,800 835,800 824,800 812,799 800,798 788,796 775,794 760,792 744,789 727,786 727,789"/>
</g>
</svg>
