<?xml version="1.0" encoding="UTF-8" standalone="no"?>
<!DOCTYPE svg PUBLIC "-//W3C//DTD SVG 1.0//EN" "http://www.w3.org/TR/2001/REC-SVG-20010904/DTD/svg10.dtd">
<svg xmlns="http://www.w3.org/2000/svg" xmlns:xlink="http://www.w3.org/1999/xlink" fill-rule="evenodd" height="1.211in" preserveAspectRatio="none" stroke-linecap="round" viewBox="0 0 1987 1211" width="1.987in">
<style type="text/css">
.brush0 { fill: rgb(255,255,255); }
.pen0 { stroke: rgb(0,0,0); stroke-width: 1; stroke-linejoin: round; }
.brush1 { fill: none; }
.pen1 { stroke: none; }
.brush2 { fill: rgb(0,0,0); }
</style>
<g>
<polygon class="pen1 brush2" points="841,663 846,670 850,677 855,685 859,692 862,700 866,707 869,716 871,724 861,723 851,721 842,719 833,717 824,714 815,710 807,706 800,700 814,688 825,674 835,659 843,643 849,627 854,610 857,593 859,575 843,582 828,592 813,603 801,615 790,629 781,645 776,662 775,680 756,681 741,684 728,690 717,697 708,707 699,719 691,733 683,750 677,760 669,769 661,778 653,788 646,797 639,807 634,818 632,829 634,834 638,837 644,838 650,837 656,836 663,833 668,831 673,829 685,830 696,830 707,829 718,826 728,822 739,816 748,809 757,801 772,819 787,837 803,854 819,870 837,884 856,897 877,907 899,916 916,920 933,922 949,922 965,920 980,917 996,912 1012,906 1028,899 1030,901 1034,906 1039,913 1048,921 1058,932 1071,945 1087,960 1106,977 1106,1005 1106,1032 1108,1059 1111,1086 1103,1086 1094,1086 1086,1086 1078,1087 1070,1087 1062,1089 1053,1090 1045,1092 1027,1098 1012,1106 999,1116 989,1129 982,1143 978,1159 978,1177 981,1196 987,1182 993,1170 1000,1159 1010,1148 1014,1192 1017,1185 1021,1179 1024,1172 1028,1166 1031,1160 1035,1154 1039,1148 1044,1143 1051,1187 1220,1187 1242,1127 1264,1068 1284,1008 1303,948 1319,888 1333,826 1343,764 1349,700 1366,746 1382,792 1398,838 1414,884 1431,929 1451,974 1472,1017 1497,1058 1511,1076 1526,1094 1541,1111 1557,1127 1573,1142 1591,1156 1610,1168 1631,1179 1646,1184 1661,1188 1676,1190 1690,1191 1704,1191 1718,1189 1732,1186 1745,1182 1758,1177 1771,1171 1783,1165 1796,1157 1808,1148 1819,1139 1831,1129 1842,1119 1864,1094 1885,1069 1905,1042 1924,1014 1942,985 1958,956 1973,926 1987,896 1980,904 1973,911 1966,919 1960,926 1953,934 1946,941 1939,949 1933,957 1922,968 1911,979 1899,991 1887,1003 1874,1015 1861,1027 1847,1038 1833,1049 1818,1059 1803,1068 1788,1077 1773,1084 1757,1089 1741,1093 1725,1096 1709,1096 1691,1093 1675,1088 1660,1080 1647,1070 1635,1058 1624,1044 1614,1030 1605,1014 1589,978 1575,941 1564,903 1554,865 1546,827 1538,788 1531,749 1524,710 1518,677 1511,644 1505,613 1498,582 1490,552 1481,523 1471,495 1460,468 1447,441 1433,416 1417,391 1399,367 1378,343 1356,320 1330,298 1302,277 1281,264 1260,251 1239,240 1217,230 1195,221 1172,213 1149,206 1126,199 1102,194 1078,190 1054,186 1030,183 1006,182 981,181 957,180 932,181 908,182 883,184 858,186 834,189 809,193 785,197 760,202 736,207 712,213 688,219 665,226 642,233 619,240 596,248 574,257 552,265 532,271 511,276 491,280 471,282 451,283 432,282 413,280 395,276 377,271 360,265 343,256 328,246 313,234 299,221 287,206 275,189 296,171 314,151 330,129 342,105 352,80 359,53 363,27 364,0 339,10 314,23 291,40 271,59 254,81 242,105 236,130 237,157 220,157 205,159 191,162 178,166 166,172 154,180 142,190 131,203 124,212 118,221 113,230 108,239 103,248 98,257 93,266 88,275 77,289 66,302 54,315 43,327 32,340 22,354 14,369 8,386 8,398 13,405 21,409 32,409 44,406 55,403 66,399 74,396 92,397 111,396 129,393 146,389 163,383 179,374 194,363 207,349 211,363 218,378 227,394 237,409 249,425 262,441 276,458 291,474 306,489 321,505 336,519 351,534 365,547 379,559 391,571 402,581 615,538 595,545 574,553 553,560 532,568 510,577 488,586 466,595 444,604 423,614 401,624 380,634 360,645 340,656 321,668 302,680 285,692 277,698 270,705 264,712 260,719 256,727 255,735 257,744 261,754 265,760 268,767 271,773 275,779 278,785 282,791 286,796 291,801 305,808 317,805 327,797 337,783 344,768 350,751 355,737 358,726 456,687 476,686 495,684 515,683 534,680 554,678 573,675 593,672 612,669 632,666 651,662 671,659 690,656 709,653 729,650 748,648 767,646 757,590 750,534 749,479 754,423 755,444 757,468 761,492 766,517 773,541 781,565 790,586 801,605 815,592 828,582 840,575 850,571 857,568 863,567 867,567 868,567 862,605 855,633 847,652 841,663"/>
<polygon class="pen1 brush0" points="183,230 191,232 198,237 202,244 204,253 202,261 198,268 191,272 183,274 174,272 167,268 162,261 160,253 162,244 167,237 174,232 183,230"/>
<polygon class="pen1 brush0" points="740,730 745,731 750,734 753,739 754,744 753,749 750,754 745,757 740,758 734,757 730,754 727,749 726,744 727,739 730,734 734,731 740,730"/>
</g>
</svg>
