<?xml version="1.0" encoding="UTF-8" standalone="no"?>
<!DOCTYPE svg PUBLIC "-//W3C//DTD SVG 1.0//EN" "http://www.w3.org/TR/2001/REC-SVG-20010904/DTD/svg10.dtd">
<svg xmlns="http://www.w3.org/2000/svg" xmlns:xlink="http://www.w3.org/1999/xlink" fill-rule="evenodd" height="1.361in" preserveAspectRatio="none" stroke-linecap="round" viewBox="0 0 1989 1361" width="1.989in">
<style type="text/css">
.brush0 { fill: rgb(255,255,255); }
.pen0 { stroke: rgb(0,0,0); stroke-width: 1; stroke-linejoin: round; }
.brush1 { fill: none; }
.pen1 { stroke: none; }
.brush2 { fill: rgb(0,0,0); }
</style>
<g>
<polygon class="pen1 brush2" points="1142,396 1145,395 1153,391 1163,386 1176,379 1189,371 1200,361 1209,352 1213,342 1211,320 1209,272 1212,224 1223,201 1226,201 1230,204 1233,208 1236,213 1372,113 1375,125 1237,224 1246,255 1251,291 1254,325 1253,349 1249,361 1242,373 1231,384 1218,395 1204,405 1190,413 1177,419 1166,423 1165,421 1163,415 1155,406 1142,396 1142,396"/>
<polygon class="pen1 brush2" points="1176,449 1178,452 1180,455 1182,459 1183,463 1683,312 1676,291 1671,271 1670,251 1674,233 1685,216 1703,201 1731,189 1770,180 1770,184 1744,190 1722,197 1703,207 1689,219 1680,235 1677,255 1681,281 1692,312 1835,268 1835,275 1814,281 1794,288 1772,294 1751,300 1730,307 1708,313 1687,320 1665,326 1643,333 1621,340 1600,346 1578,353 1557,359 1536,365 1515,372 1494,378 1496,387 1499,395 1504,402 1512,409 1521,413 1532,417 1544,419 1559,420 1575,420 1593,418 1612,414 1634,409 1656,402 1681,393 1707,382 1734,369 1734,376 1721,383 1705,391 1688,398 1670,405 1651,411 1631,417 1611,421 1592,425 1572,427 1554,427 1537,425 1522,421 1508,415 1497,406 1488,394 1483,379 1455,388 1427,396 1401,404 1376,412 1352,420 1329,427 1307,433 1287,439 1269,445 1251,451 1236,455 1222,459 1210,463 1200,466 1192,468 1186,470 1187,475 1188,479 1189,483 1190,487 1815,440 1831,437 1846,429 1861,418 1875,405 1888,388 1901,369 1913,349 1924,327 1934,304 1944,280 1952,257 1960,234 1967,211 1973,190 1979,170 1983,152 1985,134 1984,120 1978,109 1970,101 1958,96 1943,93 1925,93 1904,95 1881,99 1855,106 1828,114 1799,125 1768,136 1736,149 1703,164 1670,179 1635,195 1601,212 1566,230 1531,248 1497,266 1463,284 1430,302 1398,320 1367,337 1338,354 1310,369 1284,384 1261,398 1240,411 1221,422 1206,431 1193,439 1184,444 1178,448 1176,449 1176,449"/>
<polygon class="pen1 brush2" points="1777,451 1778,456 1780,464 1782,474 1783,486 1783,500 1782,515 1780,531 1775,548 1768,566 1758,583 1745,600 1728,617 1707,632 1681,647 1651,659 1615,670 1575,678 1536,683 1499,684 1464,681 1430,676 1397,668 1367,658 1338,647 1312,635 1287,621 1265,607 1245,593 1228,579 1213,566 1200,554 1190,544 1190,543 1191,539 1192,532 1193,521 1224,525 1255,528 1286,533 1318,537 1349,541 1381,546 1413,551 1445,555 1477,560 1509,565 1542,569 1574,574 1607,578 1639,582 1672,586 1705,589 1703,582 1463,549 1466,529 1471,515 1479,507 1489,503 1501,502 1514,504 1529,508 1546,512 1547,507 1521,500 1500,497 1484,499 1472,505 1464,513 1459,524 1456,536 1455,549 1193,514 1193,509 1193,504 1193,499 1192,494 1209,493 1231,491 1256,489 1284,487 1316,485 1350,482 1386,480 1425,477 1466,474 1508,471 1551,468 1596,465 1641,461 1686,458 1732,455 1777,451 1777,451"/>
<polygon class="pen1 brush2" points="1159,649 1153,658 1147,666 1141,673 1136,678 1131,683 1128,687 1126,689 1125,690 1130,691 1137,693 1146,697 1156,701 1168,707 1180,713 1193,720 1206,727 1220,734 1233,742 1245,749 1257,756 1268,763 1277,769 1284,774 1290,778 1298,791 1303,813 1306,840 1309,870 1311,899 1315,923 1322,941 1331,947 1333,947 1336,946 1338,945 1340,943 1463,1088 1473,1085 1349,940 1354,911 1351,869 1344,819 1337,771 1334,757 1327,745 1317,732 1305,721 1292,710 1277,700 1261,691 1245,682 1228,675 1213,668 1198,662 1186,658 1175,654 1166,651 1161,650 1159,649 1159,649"/>
<polygon class="pen1 brush2" points="1159,788 1164,789 1176,793 1194,800 1215,812 1237,829 1256,853 1270,885 1277,926 1283,996 1288,1058 1289,1107 1283,1139 1409,1288 1398,1291 1271,1143 1269,1145 1267,1147 1264,1148 1260,1149 1247,1120 1243,1055 1241,982 1234,930 1228,914 1222,899 1214,886 1206,874 1197,863 1187,855 1176,849 1165,845 1166,840 1167,828 1166,810 1159,788 1159,788"/>
<polygon class="pen1 brush2" points="1081,696 1083,713 1087,732 1093,755 1102,781 1114,809 1128,841 1147,876 1169,914 1169,915 1169,916 1169,916 1169,916 1145,923 1120,929 1095,934 1070,937 1046,940 1021,941 998,941 975,941 952,940 931,938 911,936 893,934 876,931 860,928 847,926 835,923 857,883 874,846 888,813 898,783 906,757 911,733 914,714 915,697 924,702 934,706 944,709 954,712 964,714 975,716 986,717 997,717 1008,717 1019,716 1030,714 1041,712 1052,709 1062,705 1072,701 1081,696 1081,696"/>
<polygon class="pen1 brush2" points="1193,963 1201,982 1208,1001 1212,1021 1216,1041 1195,1050 1171,1058 1144,1064 1115,1068 1085,1071 1054,1073 1022,1073 990,1073 959,1072 928,1071 899,1069 871,1066 847,1064 825,1062 806,1060 791,1058 794,1035 800,1013 806,990 814,968 846,978 877,986 908,991 938,995 968,997 996,998 1023,997 1049,995 1074,992 1097,988 1118,984 1137,980 1155,975 1170,971 1183,967 1193,963 1193,963"/>
<polygon class="pen1 brush2" points="1220,1092 1211,1095 1200,1100 1185,1104 1168,1109 1148,1114 1126,1119 1101,1124 1074,1127 1045,1130 1014,1131 980,1131 945,1130 908,1126 870,1120 830,1112 788,1101 789,1124 792,1147 796,1169 801,1190 817,1192 836,1195 857,1197 881,1200 906,1202 933,1203 961,1205 990,1205 1020,1205 1050,1204 1079,1203 1108,1200 1136,1196 1163,1190 1188,1183 1212,1175 1216,1155 1219,1134 1220,1113 1220,1092 1220,1092"/>
<polygon class="pen1 brush2" points="1189,1237 1176,1241 1161,1246 1145,1250 1128,1254 1109,1258 1088,1261 1067,1264 1044,1266 1020,1268 995,1268 969,1268 942,1266 913,1263 884,1258 855,1252 824,1244 831,1257 839,1269 847,1281 856,1292 866,1303 876,1312 886,1321 897,1329 909,1336 921,1343 933,1348 946,1353 960,1356 974,1359 989,1360 1004,1361 1019,1359 1034,1356 1049,1352 1063,1347 1077,1342 1090,1335 1103,1328 1115,1320 1126,1312 1137,1303 1148,1293 1157,1283 1166,1272 1175,1261 1182,1249 1189,1237 1189,1237"/>
<polygon class="pen1 brush2" points="994,703 1011,702 1028,700 1045,695 1060,689 1075,682 1090,674 1103,664 1115,653 1126,641 1136,627 1145,613 1153,598 1159,583 1164,566 1167,549 1168,532 1167,508 1162,485 1154,463 1144,443 1130,425 1115,408 1097,394 1078,382 1068,389 1057,395 1046,401 1034,405 1022,408 1010,411 997,412 984,413 973,413 962,412 951,410 940,408 929,405 919,402 910,398 901,393 885,405 870,419 857,435 847,452 838,470 831,490 827,511 825,532 826,549 828,566 832,583 838,598 845,613 853,627 863,641 874,653 885,664 899,674 913,682 927,689 943,695 959,700 976,702 994,703 994,703"/>
<polygon class="pen1 brush2" points="849,798 844,799 831,803 813,810 792,822 770,839 750,864 734,896 726,937 719,1007 716,1067 717,1115 724,1146 592,1295 601,1300 732,1153 734,1156 737,1158 740,1159 743,1159 756,1130 760,1065 762,993 769,941 775,925 782,911 790,897 799,884 809,874 819,865 830,859 841,856 840,852 839,839 841,821 849,798 849,798"/>
<polygon class="pen1 brush2" points="847,656 845,657 840,658 831,661 820,665 807,669 792,675 777,681 760,689 744,697 727,706 712,716 698,727 686,739 676,751 669,764 665,778 657,825 651,872 648,911 653,939 526,1083 530,1095 656,950 658,952 661,953 663,953 665,953 675,947 682,930 687,905 690,876 693,847 697,820 702,798 710,785 716,781 724,775 733,769 744,763 756,756 769,748 783,741 796,734 810,727 823,720 835,714 847,709 857,704 866,700 873,698 878,697 877,696 876,694 873,690 869,685 864,680 859,673 853,665 847,656 847,656"/>
<polygon class="pen1 brush2" points="858,403 844,413 836,422 833,428 832,430 821,426 809,419 795,411 781,402 769,391 758,380 750,368 747,356 747,331 750,296 756,260 766,230 632,129 638,120 770,220 773,214 776,210 779,208 783,208 793,231 793,279 789,327 787,349 792,359 801,368 812,378 825,386 837,393 848,398 855,402 858,403 858,403"/>
<polygon class="pen1 brush2" points="983,403 1014,400 1043,391 1070,376 1093,357 1112,333 1127,306 1137,277 1141,245 1140,228 1137,212 1133,197 1126,182 1118,168 1109,155 1099,143 1088,132 1100,124 1115,114 1131,103 1149,92 1166,81 1183,72 1198,64 1210,59 1226,56 1246,53 1267,51 1288,48 1307,46 1321,43 1330,39 1331,34 1324,25 1317,18 1309,12 1301,8 1291,5 1282,3 1272,2 1261,3 1247,5 1234,9 1219,14 1205,20 1191,27 1177,34 1163,43 1149,52 1136,61 1124,70 1112,79 1101,88 1091,96 1082,103 1074,110 1068,116 1059,110 1049,105 1038,100 1028,96 1017,93 1006,91 994,89 983,89 972,89 961,91 950,93 939,95 928,99 918,102 908,107 899,112 892,105 883,98 874,90 864,82 853,74 842,65 830,57 817,49 805,41 792,33 778,26 765,20 752,15 739,11 726,8 713,7 703,7 694,8 684,10 676,13 668,17 660,23 653,30 646,38 647,43 656,47 671,51 690,53 711,56 732,58 752,61 767,65 778,69 791,75 805,83 820,92 836,101 850,111 864,121 876,129 865,141 855,153 847,167 840,181 835,196 831,212 829,228 828,245 830,277 839,306 853,333 872,357 895,376 922,391 951,400 983,403 983,403"/>
<polygon class="pen1 brush2" points="821,446 819,445 814,441 805,436 792,428 777,419 759,408 739,396 716,383 691,368 664,352 635,336 605,319 574,301 542,283 508,265 475,247 440,229 406,212 372,195 338,178 304,163 271,148 239,134 208,122 178,111 150,102 124,94 100,89 78,85 58,84 41,85 27,89 15,96 8,107 4,123 6,143 14,181 26,225 40,272 58,318 79,360 103,395 131,419 163,430 804,484 805,481 806,477 808,472 811,467 805,465 796,463 785,459 771,456 756,451 739,446 720,440 699,434 677,427 654,420 629,413 604,405 577,397 550,389 522,380 494,372 488,387 480,398 469,407 455,413 440,417 423,418 405,418 386,416 367,413 347,408 328,402 310,396 292,389 275,381 260,374 247,366 247,359 274,372 300,383 324,392 346,399 367,405 387,409 404,411 421,411 435,410 447,408 458,404 467,399 474,393 479,386 482,378 483,369 463,363 442,356 421,350 401,344 380,337 359,331 338,324 317,318 296,311 275,305 253,298 232,292 211,285 191,279 170,273 149,267 149,258 297,304 308,272 312,247 309,227 300,211 285,199 266,190 243,183 217,177 217,170 256,179 285,192 304,206 316,224 320,243 320,263 315,284 307,305 813,461 814,458 816,454 818,450 821,446 821,446"/>
<polygon class="pen1 brush2" points="203,443 248,446 294,450 340,454 386,457 432,461 477,465 520,468 562,471 603,475 641,478 676,481 709,483 738,486 764,488 786,490 803,491 802,496 801,501 801,506 801,511 517,541 517,527 515,515 511,504 504,495 493,490 477,488 457,490 430,497 432,504 449,499 464,495 477,493 488,494 496,498 503,507 508,521 510,541 270,571 270,570 270,573 270,576 271,578 304,574 337,569 370,565 403,561 436,557 469,553 503,549 536,545 569,541 603,538 636,534 669,530 702,527 735,524 768,520 801,517 801,527 803,535 804,539 804,541 794,551 780,563 764,575 745,589 723,602 699,616 672,629 644,641 613,652 581,661 546,668 511,673 474,676 436,675 397,670 357,662 322,651 292,638 267,624 247,608 230,592 218,575 208,557 202,540 197,523 195,507 195,492 196,478 197,466 199,456 201,448 203,443"/>
<polygon class="pen1 brush0" points="918,241 928,239 935,234 940,226 942,216 940,206 935,197 928,192 918,190 907,192 899,197 894,206 892,216 894,226 899,234 907,239 918,241"/>
<polygon class="pen1 brush0" points="1054,241 1044,239 1035,234 1029,226 1027,216 1029,206 1035,197 1044,192 1054,190 1064,192 1072,197 1078,206 1080,216 1078,226 1072,234 1064,239 1054,241"/>
</g>
</svg>
