<?xml version="1.0" encoding="UTF-8" standalone="no"?>
<!DOCTYPE svg PUBLIC "-//W3C//DTD SVG 1.0//EN" "http://www.w3.org/TR/2001/REC-SVG-20010904/DTD/svg10.dtd">
<svg xmlns="http://www.w3.org/2000/svg" xmlns:xlink="http://www.w3.org/1999/xlink" fill-rule="evenodd" height="1.67in" preserveAspectRatio="none" stroke-linecap="round" viewBox="0 0 1979 1670" width="1.979in">
<style type="text/css">
.brush0 { fill: rgb(255,255,255); }
.pen0 { stroke: rgb(0,0,0); stroke-width: 1; stroke-linejoin: round; }
.brush1 { fill: none; }
.pen1 { stroke: none; }
.brush2 { fill: rgb(0,0,0); }
</style>
<g>
<polygon class="pen1 brush2" points="1310,1226 1326,1224 1341,1222 1356,1221 1371,1219 1385,1217 1399,1215 1413,1212 1428,1208 1141,1467 1232,1512 1080,1524 922,1670 1000,1524 783,1597 934,1507 766,1501 1080,1439 1310,1226 1310,1226"/>
<polygon class="pen1 brush2" points="1456,664 1766,687 1769,610 1768,506 1767,371 1766,203 1766,136 1764,87 1761,52 1756,30 1747,17 1734,11 1716,10 1692,11 1685,250 1675,247 1682,11 1676,11 1670,11 1664,10 1658,9 1652,9 1646,8 1640,8 1634,8 1625,245 1615,243 1624,8 1607,7 1593,8 1582,11 1573,17 1567,28 1563,43 1561,64 1560,92 1559,104 1556,130 1550,166 1542,208 1531,254 1517,299 1500,339 1479,372 1454,400 1429,425 1404,447 1378,467 1351,484 1325,499 1298,512 1271,522 1244,530 1218,536 1191,541 1164,544 1138,545 1112,545 1086,543 1061,540 1036,536 1011,531 988,525 965,518 943,510 921,502 901,494 881,485 862,476 845,467 828,458 813,449 799,440 787,431 776,423 766,416 747,403 728,390 708,378 687,367 666,357 644,347 623,339 601,331 580,324 559,319 538,314 519,311 500,309 482,307 465,308 449,309 385,321 330,336 285,354 248,374 218,397 195,420 178,444 167,469 160,493 157,516 157,538 160,558 164,576 170,591 176,602 181,609 198,629 214,650 229,672 244,695 257,718 270,743 282,767 295,793 307,818 319,844 331,870 343,896 356,922 369,948 383,974 398,999 414,1024 431,1048 449,1072 468,1095 489,1117 512,1139 537,1159 563,1178 591,1195 622,1212 655,1227 691,1240 729,1252 770,1262 814,1271 861,1277 909,1281 954,1282 999,1281 1041,1277 1082,1271 1121,1264 1159,1254 1195,1243 1229,1230 1262,1216 1293,1201 1323,1185 1351,1168 1377,1151 1402,1133 1426,1114 1447,1096 1468,1077 1487,1059 1504,1041 1520,1023 1535,1006 1548,990 1560,975 1570,961 1579,949 1586,937 1592,928 1597,920 1600,915 1602,911 1603,910 1543,924 1486,935 1434,944 1385,949 1340,953 1300,955 1263,955 1230,953 1201,951 1176,948 1155,945 1138,941 1124,938 1115,935 1109,934 1107,933 1167,932 1225,931 1281,928 1334,924 1384,919 1432,913 1478,907 1521,900 1562,892 1601,884 1638,875 1673,866 1705,856 1735,846 1764,836 1790,826 1815,817 1837,807 1858,797 1877,787 1894,778 1909,769 1923,761 1935,753 1946,746 1955,740 1963,734 1969,729 1973,725 1976,722 1978,721 1979,720 1954,720 1926,720 1893,720 1858,719 1820,718 1781,717 1741,715 1701,713 1661,710 1622,706 1586,702 1552,696 1521,690 1495,682 1473,674 1456,664 1456,664"/>
<polygon class="pen1 brush2" points="135,551 116,553 96,554 76,556 57,559 39,563 24,568 10,575 0,585 2,581 9,571 20,556 34,538 52,519 73,502 97,487 124,478 135,551"/>
<polygon class="pen1 brush0" points="321,522 329,521 336,519 342,516 348,511 353,505 356,499 358,492 359,484 358,476 356,469 353,463 348,457 342,452 336,449 329,447 321,446 313,447 306,449 299,452 293,457 289,463 285,469 283,476 282,484 283,492 285,499 289,505 293,511 299,516 306,519 313,521 321,522"/>
</g>
</svg>
