<?xml version="1.0" encoding="UTF-8" standalone="no"?>
<!DOCTYPE svg PUBLIC "-//W3C//DTD SVG 1.0//EN" "http://www.w3.org/TR/2001/REC-SVG-20010904/DTD/svg10.dtd">
<svg xmlns="http://www.w3.org/2000/svg" xmlns:xlink="http://www.w3.org/1999/xlink" fill-rule="evenodd" height="1.0in" preserveAspectRatio="none" stroke-linecap="round" viewBox="0 0 2014 1000" width="2.014in">
<style type="text/css">
.brush0 { fill: rgb(255,255,255); }
.pen0 { stroke: rgb(0,0,0); stroke-width: 1; stroke-linejoin: round; }
.brush1 { fill: none; }
.pen1 { stroke: none; }
.brush2 { fill: rgb(0,0,0); }
</style>
<g>
<polygon class="pen1 brush2" points="2011,500 2010,533 2008,564 2004,594 1998,623 1991,650 1982,677 1971,702 1959,726 1945,749 1930,771 1912,792 1894,812 1873,830 1851,848 1827,864 1801,879 1773,894 1744,907 1713,919 1681,931 1646,941 1610,951 1572,959 1532,967 1491,974 1447,980 1402,985 1355,989 1306,992 1256,994 1203,996 1149,997 1094,996 1039,992 985,985 931,977 877,966 825,953 773,938 721,921 671,903 622,884 574,863 527,842 482,820 437,797 395,774 354,751 315,728 277,705 242,682 209,660 177,639 148,618 121,599 97,581 75,564 56,549 39,536 25,524 14,515 6,509 2,504 0,503 2,502 6,497 14,491 25,481 39,470 56,457 75,441 97,424 121,406 148,386 178,366 209,344 242,322 278,299 315,275 355,252 396,228 438,205 483,182 528,160 575,138 623,118 673,98 723,80 774,63 827,48 880,35 933,24 987,15 1042,8 1097,4 1152,3 1206,4 1259,6 1309,8 1358,12 1405,16 1450,21 1494,27 1535,33 1575,41 1613,50 1649,59 1684,69 1716,81 1747,93 1776,107 1804,121 1830,136 1854,153 1876,170 1897,189 1915,208 1933,229 1948,251 1962,273 1974,297 1985,323 1994,349 2001,377 2007,405 2011,435 2013,467 2014,499 2011,500 2011,500"/>
<polygon class="pen1 brush0" points="1673,626 1684,625 1694,622 1703,617 1711,611 1717,604 1722,595 1725,585 1726,574 1725,564 1722,554 1717,546 1711,538 1703,532 1694,527 1684,524 1673,523 1663,524 1654,527 1645,532 1637,538 1631,546 1626,554 1623,564 1622,574 1623,585 1626,595 1631,604 1637,611 1645,617 1654,622 1663,625 1673,626 1673,626"/>
<polygon class="pen1 brush0" points="1673,428 1684,427 1694,424 1703,419 1711,412 1717,404 1722,395 1725,385 1726,375 1725,365 1722,355 1717,346 1711,338 1703,331 1694,326 1684,323 1673,322 1663,323 1654,326 1645,331 1637,338 1631,346 1626,355 1623,365 1622,375 1623,385 1626,395 1631,404 1637,412 1645,419 1654,424 1663,427 1673,428 1673,428"/>
<polygon class="pen1 brush0" points="645,750 657,750 657,246 645,246 645,750 645,750"/>
<polygon class="pen1 brush0" points="706,621 720,621 720,405 706,405 706,621 706,621"/>
<polygon class="pen1 brush0" points="578,636 591,636 591,411 578,411 578,636 578,636"/>
<polygon class="pen1 brush0" points="515,697 528,697 528,317 515,317 515,697 515,697"/>
<polygon class="pen1 brush0" points="1801,571 1812,571 1812,439 1801,439 1801,571 1801,571"/>
<polygon class="pen1 brush0" points="1851,638 1862,638 1862,342 1851,342 1851,638 1851,638"/>
<polygon class="pen1 brush0" points="1896,563 1907,563 1907,436 1896,436 1896,563"/>
</g>
</svg>
