<?xml version="1.0" encoding="UTF-8" standalone="no"?>
<!DOCTYPE svg PUBLIC "-//W3C//DTD SVG 1.0//EN" "http://www.w3.org/TR/2001/REC-SVG-20010904/DTD/svg10.dtd">
<svg xmlns="http://www.w3.org/2000/svg" xmlns:xlink="http://www.w3.org/1999/xlink" fill-rule="evenodd" height="1.43in" preserveAspectRatio="none" stroke-linecap="round" viewBox="0 0 1996 1430" width="1.996in">
<style type="text/css">
.brush0 { fill: rgb(255,255,255); }
.pen0 { stroke: rgb(0,0,0); stroke-width: 1; stroke-linejoin: round; }
.brush1 { fill: none; }
.pen1 { stroke: none; }
.brush2 { fill: rgb(0,0,0); }
</style>
<g>
<polygon class="pen1 brush2" points="1497,1004 1498,1015 1497,1032 1495,1056 1491,1084 1484,1115 1474,1149 1461,1183 1445,1216 1424,1248 1398,1277 1368,1302 1332,1321 1291,1334 1243,1338 1189,1333 1128,1318 1125,1321 1117,1329 1105,1341 1090,1354 1074,1368 1058,1380 1043,1389 1030,1394 708,1417 712,1365 710,1366 706,1369 699,1374 692,1380 685,1388 678,1397 674,1407 672,1417 645,1417 645,1374 643,1375 639,1377 632,1381 625,1386 618,1393 611,1399 607,1407 605,1414 604,1413 602,1409 600,1404 598,1397 597,1389 599,1379 602,1370 609,1359 620,1349 636,1340 657,1330 685,1322 719,1316 761,1311 812,1308 872,1307 869,1303 862,1299 851,1292 837,1284 821,1274 804,1261 787,1246 770,1228 756,1208 744,1184 735,1156 732,1125 733,1091 741,1051 756,1008 779,960 774,964 762,976 745,997 726,1025 709,1062 697,1106 693,1159 699,1220 697,1220 691,1219 681,1217 669,1215 653,1212 635,1208 616,1203 594,1198 572,1191 549,1184 525,1175 502,1165 479,1154 456,1142 435,1129 416,1114 416,1115 415,1118 414,1122 411,1127 407,1134 400,1141 391,1149 380,1156 365,1164 346,1172 324,1179 297,1185 265,1190 229,1194 186,1196 138,1196 137,1197 134,1199 129,1203 124,1207 117,1211 110,1214 102,1216 95,1216 88,1215 83,1212 78,1207 76,1200 77,1191 81,1181 89,1170 101,1158 101,1155 102,1147 104,1136 109,1123 117,1110 128,1098 144,1089 165,1083 167,1084 171,1086 177,1090 186,1095 195,1101 206,1107 216,1115 227,1122 229,1122 233,1120 241,1118 250,1115 260,1112 270,1107 280,1101 290,1094 286,1083 277,1056 267,1021 263,989 262,990 259,993 253,997 246,1003 236,1010 225,1017 211,1025 196,1033 179,1041 160,1049 140,1056 118,1063 94,1068 69,1072 42,1075 14,1075 12,1068 8,1047 4,1016 4,977 6,960 10,942 15,924 22,905 30,886 41,866 54,847 70,827 70,827 81,815 92,804 105,792 119,780 135,769 151,758 169,747 189,736 188,732 188,720 188,703 192,682 199,659 212,636 232,615 260,597 261,600 265,610 269,625 273,644 276,665 276,689 272,713 263,736 264,737 267,739 272,742 278,745 286,750 296,755 307,761 318,766 331,772 344,778 358,783 373,788 387,793 402,796 417,799 432,800 447,800 464,799 482,798 501,795 520,792 540,788 561,784 581,780 601,775 621,770 640,765 659,760 676,756 692,752 706,748 719,745 731,742 748,739 768,736 793,732 820,730 850,728 882,727 915,728 950,730 985,735 1019,742 1054,752 1087,766 1118,782 1147,803 1174,827 1174,827 1186,840 1196,855 1206,871 1216,888 1224,906 1231,926 1237,947 1242,969 1244,989 1242,1016 1238,1048 1231,1083 1220,1118 1206,1152 1188,1183 1166,1209 1169,1209 1176,1208 1187,1206 1201,1203 1217,1198 1235,1191 1254,1181 1273,1169 1290,1153 1307,1133 1321,1109 1332,1081 1340,1047 1342,1009 1340,964 1331,914 1330,910 1327,904 1322,896 1315,885 1307,874 1298,860 1288,844 1277,827 1277,827 1261,800 1244,771 1227,739 1210,704 1194,668 1179,631 1165,592 1153,553 1143,513 1136,473 1132,434 1131,395 1134,357 1141,321 1152,286 1169,254 1183,230 1199,207 1215,185 1233,163 1252,143 1272,124 1293,105 1315,88 1339,73 1363,59 1390,46 1417,35 1446,26 1476,19 1507,13 1540,10 1565,9 1591,9 1617,12 1643,16 1670,21 1698,29 1725,39 1753,51 1781,66 1808,83 1836,102 1863,124 1891,148 1917,176 1943,206 1969,239 1977,254 1984,279 1989,313 1993,352 1994,372 1993,393 1991,413 1988,433 1984,452 1977,469 1969,485 1959,499 1951,506 1943,513 1934,519 1924,523 1913,527 1902,529 1889,530 1875,530 1864,527 1848,521 1829,511 1805,500 1779,488 1750,477 1720,466 1688,458 1656,453 1624,452 1593,455 1563,465 1535,482 1510,507 1487,541 1469,584 1458,631 1453,682 1454,736 1458,792 1466,848 1475,903 1486,955 1497,1004"/>
<polygon class="pen1 brush0" points="142,918 148,917 154,916 160,913 164,909 168,904 171,899 173,893 174,887 173,880 171,874 168,868 164,863 160,859 154,856 148,855 142,854 136,855 130,856 125,859 120,863 116,868 113,874 112,880 111,887 112,893 113,899 116,904 120,909 125,913 130,916 136,917 142,918"/>
<polygon class="pen1 brush0" points="337,867 353,870 370,872 386,875 404,877 421,880 440,881 460,882 481,882 504,882 528,880 555,878 583,874 614,869 648,862 684,854 723,844 746,838 769,832 791,828 812,824 833,822 853,820 872,820 891,821 909,824 926,828 943,833 958,839 973,848 986,857 999,869 1010,882 1008,882 1003,881 995,879 985,877 973,875 959,872 943,870 927,867 911,865 894,863 878,861 863,860 849,860 836,860 825,862 817,864 834,878 830,878 818,879 801,881 780,882 758,884 735,886 715,887 699,887 730,914 725,914 710,913 689,912 664,911 637,909 611,907 590,905 574,902 632,942 630,942 626,941 619,940 610,939 599,937 586,935 572,933 558,931 543,929 528,926 514,924 500,922 487,920 476,917 466,916 459,914 479,949 479,951 475,951 468,948 458,944 446,937 432,930 417,922 402,913 387,904 373,895 360,887 349,880 341,874 336,869 334,867 337,867"/>
<polygon class="pen1 brush0" points="1398,902 1388,887 1373,865 1356,837 1336,804 1315,766 1295,724 1274,679 1256,631 1240,582 1228,531 1220,480 1218,430 1223,380 1234,332 1254,286 1284,243 1319,205 1354,174 1388,148 1422,128 1456,114 1488,103 1520,97 1550,94 1578,94 1605,97 1629,101 1652,106 1671,113 1688,120 1702,126 1713,132 1733,145 1756,163 1779,185 1799,210 1814,238 1822,269 1820,300 1804,333 1795,345 1787,352 1778,355 1766,355 1750,353 1729,348 1700,343 1662,337 1663,334 1665,326 1669,314 1674,300 1681,285 1690,269 1701,255 1713,243 1712,243 1709,244 1703,246 1696,248 1687,251 1677,255 1666,260 1654,265 1640,272 1627,279 1612,288 1598,297 1583,307 1569,319 1555,331 1541,345 1541,331 1540,299 1542,262 1547,235 1543,241 1532,257 1517,281 1499,313 1480,349 1463,389 1450,429 1442,470 1440,465 1437,453 1431,435 1425,414 1420,391 1415,369 1414,350 1415,337 1411,349 1404,374 1395,408 1385,449 1378,494 1374,541 1374,588 1382,631 1380,629 1375,622 1367,612 1358,601 1348,587 1339,574 1332,561 1327,550 1332,592 1340,638 1350,686 1361,735 1372,782 1383,827 1392,868 1398,902"/>
<polygon class="pen1 brush0" points="149,1108 143,1115 136,1127 131,1138 131,1147 137,1151 143,1153 149,1152 155,1148 157,1139 155,1126 151,1113 149,1108"/>
<polygon class="pen1 brush0" points="166,1104 166,1115 167,1129 169,1141 175,1148 182,1148 188,1145 192,1141 195,1135 194,1131 191,1127 186,1122 181,1116 175,1112 171,1108 167,1105 166,1104"/>
</g>
</svg>
