<?xml version="1.0" encoding="UTF-8" standalone="no"?>
<!DOCTYPE svg PUBLIC "-//W3C//DTD SVG 1.0//EN" "http://www.w3.org/TR/2001/REC-SVG-20010904/DTD/svg10.dtd">
<svg xmlns="http://www.w3.org/2000/svg" xmlns:xlink="http://www.w3.org/1999/xlink" fill-rule="evenodd" height="1.009in" preserveAspectRatio="none" stroke-linecap="round" viewBox="0 0 1971 1009" width="1.971in">
<style type="text/css">
.brush0 { fill: rgb(255,255,255); }
.pen0 { stroke: rgb(0,0,0); stroke-width: 1; stroke-linejoin: round; }
.brush1 { fill: none; }
.pen1 { stroke: none; }
.brush2 { fill: rgb(0,0,0); }
</style>
<g>
<polygon class="pen1 brush2" points="1838,734 1840,744 1847,770 1855,809 1865,854 1874,901 1881,946 1884,984 1882,1009 1880,1007 1876,1002 1868,993 1859,982 1847,968 1834,952 1820,934 1805,914 1790,894 1775,872 1760,850 1746,828 1733,805 1722,784 1713,763 1706,743 1672,760 1638,739 1616,769 1582,743 1557,777 1508,756 1491,794 1453,773 1419,807 1385,781 1368,815 1316,798 1315,802 1313,813 1310,830 1308,850 1307,872 1309,894 1315,915 1325,932 1321,930 1311,925 1296,916 1277,903 1256,888 1235,870 1215,848 1197,824 1192,825 1178,826 1155,828 1126,831 1090,833 1049,836 1005,839 957,841 908,843 858,844 808,844 759,843 713,840 670,835 632,829 599,821 597,825 593,835 588,850 582,871 577,894 575,920 575,947 581,975 577,971 565,960 548,942 528,919 508,892 489,860 474,826 466,790 464,789 459,787 451,784 441,779 429,774 415,767 400,760 384,753 369,746 353,738 338,731 325,723 313,716 302,710 295,705 290,700 292,699 298,697 307,694 318,689 332,682 347,674 363,665 379,654 394,641 409,627 423,611 434,593 443,573 448,552 450,529 447,504 447,504 443,488 437,471 429,454 419,436 427,453 431,471 432,489 430,508 425,527 417,546 408,565 396,583 382,600 368,617 351,632 334,645 316,657 298,666 279,674 261,679 246,668 229,656 212,644 194,631 175,618 156,605 137,592 118,578 100,564 82,550 65,535 49,520 34,505 21,489 9,473 0,457 72,479 64,469 55,458 46,446 37,434 30,422 24,410 21,399 21,388 26,387 40,383 62,378 92,372 127,364 168,356 212,347 260,338 310,329 360,321 410,314 460,309 507,305 551,303 591,304 625,307 625,303 628,294 634,281 643,263 655,242 668,218 684,193 701,166 719,139 738,113 757,87 777,63 796,42 816,24 834,10 852,0 852,1 851,5 851,10 853,17 857,26 863,35 874,46 889,57 876,69 863,81 849,94 836,107 823,121 810,136 797,151 784,166 771,182 759,199 747,217 735,235 723,253 712,273 701,293 691,313 694,313 697,313 699,313 701,313 711,293 722,274 733,255 744,237 755,220 767,203 779,187 791,171 804,156 816,141 829,127 841,113 854,100 867,88 879,76 892,64 891,71 892,80 900,92 915,104 894,126 874,150 853,175 834,201 815,229 797,258 780,288 764,320 767,320 769,320 772,321 774,321 790,290 806,260 823,232 841,206 860,180 879,156 898,134 917,112 916,116 916,121 917,126 919,132 923,137 929,143 938,148 950,152 934,171 918,191 903,212 888,234 873,257 859,281 845,305 832,331 834,332 837,333 839,334 842,334 854,309 866,286 879,263 892,241 906,220 921,200 936,180 951,162 952,167 954,173 957,179 961,185 965,190 971,195 978,199 986,202 975,219 964,236 953,253 943,271 932,290 923,309 914,328 905,348 906,349 908,350 910,350 913,351 922,331 931,312 940,293 950,275 960,258 970,241 981,225 991,209 994,216 997,223 1001,229 1006,234 1011,238 1017,242 1024,245 1031,247 1023,261 1014,275 1006,290 999,304 991,319 984,334 978,349 971,365 973,366 976,367 978,368 980,368 986,353 993,338 1000,323 1007,308 1014,294 1022,280 1030,266 1038,253 1038,258 1040,264 1042,270 1046,277 1052,284 1059,290 1069,296 1081,300 1076,309 1070,319 1065,329 1060,339 1055,349 1051,360 1046,370 1041,381 1044,382 1046,382 1048,382 1049,382 1054,372 1058,361 1063,351 1068,341 1073,331 1078,322 1083,312 1088,303 1091,307 1095,313 1101,320 1108,329 1117,339 1126,349 1137,359 1149,368 1147,371 1144,380 1140,393 1138,411 1139,411 1142,412 1146,413 1153,415 1161,418 1170,422 1181,426 1193,432 1195,431 1199,428 1206,424 1216,418 1227,412 1241,404 1257,397 1274,389 1293,382 1313,375 1334,370 1355,365 1378,362 1400,360 1423,361 1446,364 1440,366 1426,371 1406,379 1383,392 1360,408 1342,429 1330,453 1329,483 1363,470 1383,504 1382,504 1385,507 1397,504 1430,504 1453,537 1497,534 1521,567 1565,567 1574,601 1616,607 1638,635 1680,628 1710,675 1719,665 1730,653 1743,640 1758,625 1774,610 1790,594 1808,578 1826,562 1845,548 1864,534 1883,521 1902,510 1920,502 1938,495 1955,492 1971,492 1959,519 1945,552 1929,588 1912,625 1894,661 1876,693 1857,718 1838,734"/>
<polygon class="pen1 brush2" points="1397,504 1423,496 1430,504 1397,504"/>
<polygon class="pen1 brush0" points="153,443 162,441 170,436 175,428 177,419 175,409 170,402 162,397 153,395 143,397 136,402 131,409 129,419 131,428 136,436 143,441 153,443"/>
<polygon class="pen1 brush0" points="748,524 691,503 710,466 677,449 696,406 717,412 706,439 743,452 723,493 757,507 748,524"/>
<polygon class="pen1 brush0" points="913,541 856,520 875,483 842,466 861,423 882,429 870,456 907,470 888,510 922,523 913,541"/>
<polygon class="pen1 brush0" points="1072,557 1015,534 1034,497 1001,482 1018,439 1041,445 1028,470 1066,486 1047,524 1081,537 1072,557"/>
<polygon class="pen1 brush0" points="757,411 815,432 798,469 829,486 812,529 791,523 802,497 765,483 784,442 750,429 757,411"/>
<polygon class="pen1 brush0" points="924,432 981,455 963,492 995,507 980,550 959,544 970,519 932,504 950,465 916,452 924,432"/>
</g>
</svg>
