<?xml version="1.0" encoding="UTF-8" standalone="no"?>
<!DOCTYPE svg PUBLIC "-//W3C//DTD SVG 1.0//EN" "http://www.w3.org/TR/2001/REC-SVG-20010904/DTD/svg10.dtd">
<svg xmlns="http://www.w3.org/2000/svg" xmlns:xlink="http://www.w3.org/1999/xlink" fill-rule="evenodd" height="1.98in" preserveAspectRatio="none" stroke-linecap="round" viewBox="0 0 1054 1980" width="1.054in">
<style type="text/css">
.brush0 { fill: rgb(255,255,255); }
.pen0 { stroke: rgb(0,0,0); stroke-width: 1; stroke-linejoin: round; }
.brush1 { fill: none; }
.pen1 { stroke: none; }
.brush2 { fill: rgb(0,0,0); }
</style>
<g>
<polygon class="pen1 brush2" points="36,177 39,176 47,176 59,179 73,184 88,193 102,206 115,223 125,246 124,248 120,254 116,264 110,277 104,293 100,312 96,332 95,354 91,352 81,344 67,331 52,312 39,288 30,257 28,220 36,177 36,177"/>
<polygon class="pen1 brush2" points="135,261 128,291 121,312 114,325 112,331 118,330 125,328 131,326 138,323 143,321 147,320 150,318 151,318 149,300 145,279 139,264 135,261 135,261"/>
<polygon class="pen1 brush2" points="48,152 48,152 98,168 133,197 156,236 169,280 175,325 176,369 174,406 172,433 172,490 179,545 191,597 207,647 227,693 250,736 275,776 301,812 328,846 354,875 379,901 403,923 423,941 440,955 453,965 460,970 487,989 513,1009 537,1029 559,1049 579,1068 597,1088 614,1107 629,1126 642,1144 654,1161 664,1177 673,1192 680,1206 686,1218 690,1228 693,1237 699,1252 712,1281 731,1321 755,1370 782,1427 813,1490 845,1556 878,1624 911,1691 943,1756 973,1816 999,1870 1022,1915 1039,1950 1050,1972 1054,1980 815,1192 804,1180 790,1164 774,1146 755,1126 734,1103 712,1079 689,1054 665,1028 641,1002 617,977 594,951 572,927 552,904 533,884 517,865 504,849 489,831 471,808 449,780 426,749 402,715 378,679 356,641 335,602 317,563 303,525 294,488 291,453 294,420 305,391 325,366 354,346 386,335 419,332 452,338 484,351 516,370 546,393 576,419 603,448 628,478 652,507 672,536 690,561 704,584 714,601 721,612 723,616 705,542 685,474 663,411 639,353 614,300 587,252 560,209 533,171 506,137 479,108 452,83 427,62 404,45 382,32 362,23 345,17 321,12 299,8 278,6 258,5 239,6 221,7 204,10 188,14 157,26 130,41 108,59 89,78 74,98 63,118 54,136 48,152 48,152"/>
<polygon class="pen1 brush2" points="627,940 622,934 607,918 585,893 557,862 525,824 490,782 454,736 420,688 387,638 359,589 336,541 322,495 316,453 321,416 339,386 371,362 373,361 378,359 386,356 398,355 413,355 431,357 453,363 477,374 504,391 534,414 566,444 601,483 639,532 679,591 722,661 767,744 811,828 848,903 879,970 905,1029 926,1081 943,1126 956,1164 965,1196 972,1223 976,1245 978,1262 979,1275 978,1284 977,1290 976,1293 976,1294 958,1280 940,1265 921,1249 902,1233 884,1216 866,1199 848,1184 831,1169 825,1164 819,1157 811,1150 804,1142 702,727 690,727 787,1125 772,1108 756,1091 740,1073 724,1056 709,1039 696,1025 685,1013 676,1003 628,734 618,737 662,986 627,940 627,940"/>
<polygon class="pen1 brush2" points="304,1074 246,1136 263,1082 196,1030 138,1084 172,1176 74,1081 176,973 180,972 192,969 209,963 228,954 246,942 261,924 271,902 273,875 275,877 281,882 291,889 302,897 315,906 329,914 342,922 354,927 355,929 355,936 354,945 348,957 335,968 315,980 284,989 240,996 304,1074"/>
<polygon class="pen1 brush0" points="182,152 190,150 196,146 200,139 202,131 200,122 196,115 190,111 182,109 173,111 167,115 162,122 161,131 162,139 167,146 173,150 182,152"/>
<polygon class="pen1 brush0" points="209,233 212,240 218,250 225,260 234,271 246,281 261,289 278,294 298,294 316,290 331,283 344,272 354,259 362,246 368,233 373,220 377,210 376,215 373,226 369,243 362,263 352,283 339,300 322,312 300,318 276,315 256,306 240,292 228,277 219,261 213,247 210,237 209,233"/>
</g>
</svg>
