<?xml version="1.0" encoding="UTF-8" standalone="no"?>
<!DOCTYPE svg PUBLIC "-//W3C//DTD SVG 1.0//EN" "http://www.w3.org/TR/2001/REC-SVG-20010904/DTD/svg10.dtd">
<svg xmlns="http://www.w3.org/2000/svg" xmlns:xlink="http://www.w3.org/1999/xlink" fill-rule="evenodd" height="1.984in" preserveAspectRatio="none" stroke-linecap="round" viewBox="0 0 1189 1984" width="1.189in">
<style type="text/css">
.brush0 { fill: rgb(255,255,255); }
.pen0 { stroke: rgb(0,0,0); stroke-width: 1; stroke-linejoin: round; }
.brush1 { fill: none; }
.pen1 { stroke: none; }
.brush2 { fill: rgb(0,0,0); }
</style>
<g>
<polygon class="pen1 brush2" points="52,928 51,926 48,922 42,916 36,908 28,898 19,888 10,878 0,868 0,867 2,863 4,858 8,851 12,842 18,831 25,819 33,806 43,792 54,777 66,762 79,746 94,729 111,712 129,696 149,679 170,663 193,648 218,633 244,619 272,605 302,594 334,583 368,574 404,567 442,561 482,558 524,556 569,558 615,561 664,568 715,577 718,571 725,552 738,524 754,487 775,444 798,395 825,344 855,291 887,238 922,187 957,140 994,99 1032,64 1070,38 1109,23 1147,20 1145,24 1139,36 1131,55 1120,80 1096,86 1071,97 1046,112 1021,131 997,154 972,180 947,210 923,243 899,279 876,318 853,359 832,402 811,447 791,495 772,543 755,593 763,593 779,546 797,500 816,454 836,410 858,367 880,327 904,288 927,252 951,219 976,189 1000,162 1024,139 1048,120 1071,105 1093,95 1115,90 1109,104 1103,119 1096,136 1090,155 1069,161 1048,171 1027,184 1007,200 987,219 968,241 949,267 930,294 911,325 893,358 875,394 858,433 840,473 823,516 806,561 790,608 799,608 814,564 830,522 846,481 863,442 880,404 898,369 917,336 935,305 954,276 973,251 992,228 1011,208 1030,191 1049,178 1068,168 1087,162 1083,172 1080,183 1076,194 1072,204 1068,216 1065,227 1061,238 1057,250 1041,258 1025,267 1009,279 994,292 980,308 965,326 951,345 938,367 924,391 911,418 898,447 885,478 872,512 859,548 847,587 834,629 841,632 852,594 864,557 876,523 888,490 901,459 914,431 927,404 940,379 954,357 968,336 982,318 996,301 1010,287 1025,274 1039,264 1054,256 1049,273 1044,290 1038,308 1034,326 1029,344 1024,362 1020,381 1016,399 997,406 980,419 963,438 947,464 932,498 916,540 899,592 881,654 883,654 886,654 887,655 888,655 904,598 920,550 935,509 951,476 966,449 982,429 998,416 1015,408 1009,435 1004,462 999,489 996,516 987,523 979,533 971,546 963,564 954,585 945,612 936,643 925,679 932,682 940,650 948,621 956,597 964,576 972,559 980,545 988,535 996,527 992,577 991,627 994,675 1000,722 1008,721 1015,721 1021,720 1027,720 1034,719 1041,719 1050,717 1060,715 1061,716 1063,718 1066,722 1071,726 1076,731 1082,737 1088,744 1094,750 1025,800 1033,814 1104,760 1111,769 1118,778 1124,787 1130,797 1136,809 1143,821 1149,835 1155,850 1073,889 1077,901 1159,860 1170,888 1178,918 1184,951 1188,985 1088,986 1090,996 1188,996 1188,1022 1186,1049 1182,1078 1175,1108 1063,1091 1063,1102 1172,1118 1169,1130 1165,1143 1161,1155 1156,1168 1151,1181 1145,1194 1138,1206 1131,1219 1043,1178 1037,1188 1127,1229 1121,1240 1114,1252 1107,1263 1100,1274 1092,1286 1084,1297 1076,1309 1067,1320 990,1270 986,1280 1060,1330 1053,1338 1047,1346 1040,1355 1032,1363 1025,1372 1017,1381 1008,1389 1000,1398 999,1396 996,1392 991,1385 984,1377 976,1369 966,1361 956,1355 945,1351 938,1351 931,1354 924,1363 917,1377 912,1398 907,1425 904,1460 904,1503 898,1496 893,1487 889,1476 885,1464 881,1450 878,1434 874,1415 871,1395 870,1395 868,1395 867,1396 865,1397 869,1421 873,1442 876,1459 881,1474 886,1487 891,1498 897,1506 904,1513 904,1536 905,1562 906,1589 908,1618 893,1609 880,1596 869,1578 858,1555 849,1526 841,1492 833,1451 826,1405 824,1405 822,1405 819,1405 817,1405 825,1455 833,1498 842,1534 853,1563 864,1586 877,1604 892,1617 909,1625 912,1656 916,1690 920,1726 925,1763 900,1742 877,1715 857,1681 838,1640 821,1592 806,1538 793,1478 782,1412 780,1412 778,1412 776,1412 775,1412 787,1484 800,1547 815,1602 832,1649 851,1689 874,1722 899,1749 927,1770 929,1789 932,1810 935,1831 938,1853 921,1844 905,1832 889,1817 873,1799 858,1779 844,1756 830,1731 816,1703 804,1673 791,1642 780,1608 769,1573 759,1536 750,1498 741,1459 733,1418 731,1418 730,1418 728,1418 725,1418 734,1461 743,1502 753,1542 763,1579 774,1615 785,1649 798,1680 811,1710 824,1737 838,1762 853,1784 869,1804 886,1822 903,1837 922,1849 941,1859 943,1875 946,1890 949,1906 952,1922 932,1912 912,1898 892,1881 873,1860 853,1835 834,1808 815,1778 797,1745 780,1710 763,1674 748,1635 733,1595 720,1553 708,1511 698,1468 689,1424 688,1424 686,1423 684,1422 682,1422 692,1468 702,1514 714,1558 728,1600 742,1641 757,1680 774,1717 791,1752 809,1785 828,1815 847,1842 867,1867 888,1888 909,1906 930,1921 952,1932 954,1945 957,1958 960,1971 962,1984 959,1983 952,1979 941,1972 925,1962 907,1948 886,1930 863,1907 838,1879 813,1846 787,1807 760,1762 735,1710 711,1651 688,1585 668,1510 650,1428 648,1428 644,1429 637,1430 627,1431 615,1431 600,1432 583,1432 565,1432 545,1432 523,1430 500,1428 475,1425 450,1421 423,1415 396,1408 369,1399 341,1389 313,1377 285,1363 257,1347 230,1329 203,1309 176,1286 151,1260 127,1232 103,1200 82,1166 62,1129 43,1088 27,1044 12,996 0,945 52,928"/>
<polygon class="pen1 brush0" points="189,847 195,846 200,845 206,842 210,838 214,834 217,829 218,823 219,817 218,811 217,805 214,800 210,796 206,792 200,789 195,788 189,787 183,788 177,789 172,792 167,796 163,800 160,805 159,811 158,817 159,823 160,829 163,834 167,838 172,842 177,845 183,846 189,847"/>
<polygon class="pen1 brush0" points="292,881 288,904 281,925 271,945 256,961 237,973 211,980 178,979 138,970 141,970 148,969 159,968 172,967 187,964 202,960 216,955 229,949 241,940 253,930 264,919 273,907 281,897 287,889 291,883 292,881"/>
<polygon class="pen1 brush0" points="374,931 386,930 398,928 409,927 420,925 431,923 441,921 452,918 462,916 472,912 481,909 491,905 500,900 510,895 519,890 528,884 537,877 533,871 514,884 495,894 476,903 457,910 437,915 417,920 396,924 374,928 374,931"/>
<polygon class="pen1 brush0" points="371,936 386,938 399,939 412,941 423,942 433,943 443,943 452,944 462,944 471,943 482,942 493,940 505,938 519,935 534,932 552,927 571,922 567,912 551,917 536,922 522,926 509,929 497,931 485,933 474,935 463,936 452,937 442,937 431,937 420,936 410,936 398,935 386,934 374,933 371,936"/>
<polygon class="pen1 brush0" points="370,945 392,951 411,955 427,960 442,965 455,973 469,982 485,996 502,1013 496,1019 478,1001 463,988 449,978 435,970 422,964 407,958 390,953 370,946 370,945"/>
<polygon class="pen1 brush0" points="365,952 374,961 382,969 390,978 398,988 407,1000 415,1016 425,1035 434,1060 427,1067 419,1046 413,1029 406,1015 400,1002 393,991 385,980 376,968 364,953 365,952"/>
</g>
</svg>
