<?xml version="1.0" encoding="UTF-8" standalone="no"?>
<!DOCTYPE svg PUBLIC "-//W3C//DTD SVG 1.0//EN" "http://www.w3.org/TR/2001/REC-SVG-20010904/DTD/svg10.dtd">
<svg xmlns="http://www.w3.org/2000/svg" xmlns:xlink="http://www.w3.org/1999/xlink" fill-rule="evenodd" height="0.638in" preserveAspectRatio="none" stroke-linecap="round" viewBox="0 0 1979 638" width="1.979in">
<style type="text/css">
.brush0 { fill: rgb(255,255,255); }
.pen0 { stroke: rgb(0,0,0); stroke-width: 1; stroke-linejoin: round; }
.brush1 { fill: none; }
.pen1 { stroke: none; }
.brush2 { fill: rgb(0,0,0); }
</style>
<g>
<polygon class="pen1 brush2" points="64,385 61,385 54,385 44,384 32,381 20,376 10,368 3,356 0,340 1,335 3,329 6,323 11,316 17,310 23,303 31,297 39,290 51,282 63,273 77,265 92,257 107,249 123,241 139,234 156,227 172,220 188,214 205,208 220,202 235,198 250,194 263,190 276,188 278,181 280,161 276,132 263,98 264,98 268,98 273,100 281,104 290,112 300,125 311,145 323,171 325,167 331,156 338,140 347,120 355,97 361,74 363,51 361,30 363,34 368,45 375,61 384,81 391,104 397,127 401,150 400,171 403,166 411,151 423,130 438,105 452,77 466,48 478,22 485,0 487,7 491,24 496,51 500,83 502,119 501,156 494,190 481,220 484,216 494,205 507,188 523,167 540,144 556,119 570,95 579,73 578,80 576,97 573,124 568,155 560,188 551,221 540,250 526,272 528,271 535,268 544,264 555,258 567,251 578,242 589,231 597,219 596,223 594,232 590,247 585,264 578,282 571,301 562,318 553,331 555,329 562,324 571,315 583,301 594,281 604,254 613,221 618,179 617,180 612,184 606,189 599,196 591,204 582,212 574,220 567,228 569,222 574,208 579,187 584,165 620,167 656,169 693,171 731,172 769,174 808,176 846,179 886,181 925,183 965,186 1005,189 1045,192 1085,195 1125,199 1166,203 1206,207 1246,211 1286,216 1326,222 1366,227 1405,234 1444,241 1483,248 1521,256 1559,264 1596,273 1633,282 1669,293 1705,303 1740,315 1774,327 1807,340 1775,351 1743,361 1710,370 1677,378 1644,385 1610,391 1577,397 1543,402 1510,406 1476,410 1443,413 1409,415 1376,417 1344,419 1311,421 1279,422 1273,421 1267,420 1261,418 1256,417 1250,416 1244,414 1238,413 1232,412 1229,412 1222,412 1210,413 1193,414 1173,415 1148,416 1120,417 1090,418 1056,419 1019,421 981,422 940,424 898,425 854,427 810,428 764,430 719,431 672,433 627,434 581,435 536,436 493,437 450,438 410,439 371,439 334,439 300,439 269,439 241,438 217,438 196,436 179,435 141,430 110,426 86,422 69,417 58,412 53,405 56,396 64,385 64,385"/>
<polygon class="pen1 brush2" points="1979,353 1956,338 1932,324 1908,310 1885,297 1861,284 1838,272 1814,260 1790,249 1767,238 1743,228 1720,218 1696,208 1673,199 1649,191 1626,183 1603,175 1573,165 1543,156 1513,148 1483,140 1454,133 1424,126 1395,120 1366,114 1337,110 1309,105 1281,101 1253,97 1225,94 1198,91 1171,89 1144,87 1085,84 1028,84 974,84 922,87 873,90 827,94 785,99 746,104 711,110 680,115 653,121 630,126 612,130 599,133 591,136 588,137 588,142 588,148 587,153 587,159 623,160 660,161 698,163 735,164 773,166 812,167 851,169 890,171 929,174 969,176 1008,179 1048,182 1088,185 1128,189 1168,193 1208,198 1248,203 1288,208 1328,214 1368,220 1407,226 1446,233 1485,241 1524,249 1562,258 1600,267 1637,277 1674,288 1711,299 1747,311 1782,324 1817,337 1817,343 1787,355 1757,366 1726,376 1695,385 1663,393 1631,400 1599,406 1567,411 1534,416 1501,419 1468,422 1436,424 1403,426 1371,427 1339,428 1307,428 1349,436 1389,442 1428,447 1466,451 1502,454 1537,455 1571,456 1603,455 1634,454 1664,451 1692,448 1719,445 1744,440 1768,436 1791,431 1813,425 1833,419 1852,413 1870,407 1886,401 1901,395 1914,389 1927,383 1938,378 1947,373 1956,368 1963,364 1969,360 1973,357 1976,355 1978,353 1979,353 1979,353"/>
<polygon class="pen1 brush2" points="1002,438 999,439 991,442 981,449 972,459 966,474 967,494 976,520 996,553 998,554 1002,556 1008,559 1016,561 1025,562 1033,560 1041,555 1047,546 1043,539 1034,522 1027,503 1026,487 1032,478 1038,470 1044,464 1050,459 1050,458 1051,455 1050,451 1048,447 1043,442 1034,439 1021,437 1002,438 1002,438"/>
<polygon class="pen1 brush2" points="978,556 979,557 982,560 988,564 995,569 1003,573 1013,577 1024,578 1036,577 1019,628 1003,604 978,638 978,603 942,628 958,590 922,591 952,567 928,553 978,556 978,556"/>
<polygon class="pen1 brush2" points="542,453 551,470 553,490 548,509 540,522 535,527 531,533 529,540 528,546 531,552 538,556 550,556 567,553 585,545 598,531 607,514 613,496 616,478 617,463 617,453 617,449 605,450 593,451 580,452 568,452 558,453 550,453 544,453 542,453 542,453"/>
<polygon class="pen1 brush2" points="510,534 510,536 511,541 512,547 515,555 520,563 526,569 535,573 546,574 509,630 510,591 468,624 486,584 438,595 472,564 431,564 510,534"/>
<polygon class="pen1 brush0" points="166,346 176,344 184,339 189,331 191,321 189,312 184,304 176,299 166,297 156,299 149,304 144,312 142,321 144,331 149,339 156,344 166,346"/>
<polygon class="pen1 brush0" points="800,148 805,147 809,145 811,141 812,136 811,132 809,128 805,125 800,124 796,125 792,128 789,132 788,136 789,141 792,145 796,147 800,148"/>
<polygon class="pen1 brush0" points="947,154 952,153 956,150 959,146 960,141 959,135 956,131 952,128 947,127 942,128 938,131 935,135 934,141 935,146 938,150 942,153 947,154"/>
<polygon class="pen1 brush0" points="1072,170 1077,169 1081,166 1084,162 1085,157 1084,152 1081,148 1077,145 1072,144 1067,145 1063,148 1060,152 1059,157 1060,162 1063,166 1067,169 1072,170"/>
<polygon class="pen1 brush0" points="1151,132 1155,131 1159,129 1162,125 1163,120 1162,115 1159,111 1155,109 1151,108 1146,109 1142,111 1140,115 1139,120 1140,125 1142,129 1146,131 1151,132"/>
<polygon class="pen1 brush0" points="1493,194 1498,193 1502,191 1504,187 1505,182 1504,177 1502,173 1498,171 1493,170 1489,171 1485,173 1483,177 1482,182 1483,187 1485,191 1489,193 1493,194"/>
<polygon class="pen1 brush0" points="1388,162 1394,161 1398,158 1401,154 1402,148 1401,143 1398,139 1394,136 1388,135 1383,136 1379,139 1376,143 1375,148 1376,154 1379,158 1383,161 1388,162"/>
<polygon class="pen1 brush0" points="1330,205 1335,204 1339,201 1342,197 1343,191 1342,186 1339,182 1335,179 1330,178 1324,179 1320,182 1317,186 1316,191 1317,197 1320,201 1324,204 1330,205"/>
<polygon class="pen1 brush0" points="1236,176 1242,175 1246,172 1249,168 1250,163 1249,158 1246,154 1242,151 1236,150 1231,151 1227,154 1224,158 1223,163 1224,168 1227,172 1231,175 1236,176"/>
<polygon class="pen1 brush0" points="1562,238 1567,237 1571,234 1574,230 1575,225 1574,219 1571,215 1567,212 1562,211 1557,212 1553,215 1550,219 1549,225 1550,230 1553,234 1557,237 1562,238"/>
<polygon class="pen1 brush0" points="1759,418 1763,417 1767,415 1770,411 1771,407 1770,402 1767,398 1763,396 1759,395 1754,396 1750,398 1748,402 1747,407 1748,411 1750,415 1754,417 1759,418"/>
<polygon class="pen1 brush0" points="1891,372 1896,371 1901,368 1903,364 1904,358 1903,353 1901,349 1896,346 1891,345 1886,346 1882,349 1879,353 1878,358 1879,364 1882,368 1886,371 1891,372"/>
<polygon class="pen1 brush0" points="1629,439 1634,438 1638,435 1641,431 1642,426 1641,421 1638,417 1634,414 1629,413 1624,414 1620,417 1617,421 1616,426 1617,431 1620,435 1624,438 1629,439"/>
<polygon class="pen1 brush0" points="1786,304 1792,303 1796,300 1799,296 1800,291 1799,285 1796,281 1792,278 1786,277 1781,278 1777,281 1774,285 1773,291 1774,296 1777,300 1781,303 1786,304"/>
<polygon class="pen1 brush0" points="1660,249 1665,248 1669,245 1672,241 1673,236 1672,230 1669,226 1665,223 1660,222 1655,223 1651,226 1648,230 1647,236 1648,241 1651,245 1655,248 1660,249"/>
</g>
</svg>
