<?xml version="1.0" encoding="UTF-8" standalone="no"?>
<!DOCTYPE svg PUBLIC "-//W3C//DTD SVG 1.0//EN" "http://www.w3.org/TR/2001/REC-SVG-20010904/DTD/svg10.dtd">
<svg xmlns="http://www.w3.org/2000/svg" xmlns:xlink="http://www.w3.org/1999/xlink" fill-rule="evenodd" height="1.528in" preserveAspectRatio="none" stroke-linecap="round" viewBox="0 0 1990 1528" width="1.99in">
<style type="text/css">
.brush0 { fill: rgb(255,255,255); }
.pen0 { stroke: rgb(0,0,0); stroke-width: 1; stroke-linejoin: round; }
.brush1 { fill: none; }
.pen1 { stroke: none; }
.brush2 { fill: rgb(0,0,0); }
</style>
<g>
<polygon class="pen1 brush2" points="911,788 909,788 902,787 891,786 877,785 861,784 842,782 822,780 801,778 779,776 758,774 737,772 718,770 700,768 685,767 673,765 665,764 661,770 650,787 634,812 614,841 592,871 570,901 548,926 530,943 198,943 198,942 198,939 198,934 199,928 201,921 204,913 209,905 216,897 225,889 238,882 253,876 272,872 295,870 321,869 353,871 389,876 392,874 401,867 414,856 428,840 442,820 455,795 464,765 467,731 466,725 464,718 459,711 454,703 447,694 439,685 429,676 419,666 419,666 414,661 409,656 404,651 399,646 393,641 387,636 381,631 375,626 352,625 330,623 309,621 289,618 270,616 251,613 234,609 217,605 200,601 184,597 168,591 153,586 138,580 123,573 109,566 94,558 94,582 94,606 95,630 98,650 92,650 89,629 88,604 88,579 88,555 83,552 78,549 72,546 67,542 62,577 57,621 55,666 57,706 54,706 51,665 53,618 58,574 63,540 58,536 52,533 46,530 41,527 36,549 30,577 25,606 23,632 19,632 21,605 26,575 32,546 37,524 33,520 28,517 24,513 19,510 15,506 10,503 5,500 0,497 9,489 21,476 36,461 53,444 73,424 95,404 118,382 143,361 169,341 196,322 224,305 251,290 279,279 307,271 334,268 361,270 360,262 358,241 358,209 362,169 372,126 391,81 422,38 467,0 470,5 477,21 486,46 494,79 499,121 498,170 488,226 467,288 469,289 474,291 482,294 494,299 508,303 526,307 545,311 568,314 592,315 618,315 647,313 677,309 708,302 741,292 775,278 810,260 845,240 882,221 920,202 958,184 997,169 1036,155 1075,144 1115,135 1154,130 1193,129 1232,132 1269,139 1306,151 1343,169 1377,192 1411,221 1441,254 1467,287 1489,319 1507,352 1521,384 1533,416 1541,446 1548,476 1552,504 1554,531 1555,557 1554,581 1553,603 1551,623 1549,640 1547,655 1548,655 1552,655 1558,656 1566,657 1576,659 1588,661 1601,664 1615,667 1631,672 1648,677 1665,683 1684,691 1702,699 1722,709 1741,720 1760,733 1760,733 1776,744 1793,756 1809,770 1824,785 1839,801 1853,819 1867,838 1879,859 1898,896 1912,934 1922,972 1929,1011 1931,1050 1930,1089 1926,1127 1919,1164 1908,1201 1895,1235 1879,1269 1861,1300 1840,1328 1818,1354 1793,1377 1767,1397 1739,1414 1708,1430 1676,1444 1642,1456 1607,1466 1572,1474 1536,1480 1501,1482 1466,1483 1432,1480 1399,1475 1369,1466 1340,1454 1314,1439 1290,1420 1270,1397 1239,1345 1225,1295 1223,1249 1231,1208 1246,1173 1267,1143 1289,1121 1310,1108 1321,1104 1333,1100 1346,1097 1361,1094 1376,1093 1392,1092 1408,1092 1425,1094 1441,1096 1458,1100 1473,1105 1488,1112 1501,1121 1514,1131 1525,1142 1534,1156 1532,1155 1527,1153 1520,1150 1510,1146 1497,1142 1483,1137 1468,1133 1451,1129 1434,1127 1416,1125 1397,1125 1380,1127 1362,1131 1346,1138 1331,1147 1317,1160 1295,1188 1281,1215 1273,1241 1271,1267 1276,1292 1286,1318 1303,1343 1324,1370 1338,1383 1356,1394 1377,1402 1402,1409 1429,1414 1458,1417 1489,1418 1520,1416 1553,1412 1585,1407 1617,1398 1648,1388 1678,1375 1706,1360 1731,1342 1754,1322 1775,1300 1793,1278 1811,1254 1826,1229 1839,1203 1850,1177 1859,1150 1865,1122 1869,1094 1870,1066 1869,1037 1865,1008 1857,979 1847,950 1834,922 1817,893 1802,870 1787,850 1772,832 1758,816 1743,801 1729,789 1715,778 1700,769 1686,761 1671,755 1656,749 1641,745 1625,741 1608,738 1591,735 1574,733 1574,733 1568,732 1561,731 1555,730 1549,729 1543,729 1536,728 1530,727 1523,727 1523,727 1523,728 1522,730 1520,733 1519,733 1514,753 1506,773 1495,792 1481,810 1465,828 1447,845 1427,860 1405,875 1381,888 1357,900 1331,911 1305,920 1279,927 1252,933 1225,937 1199,939 814,939 815,938 816,935 820,930 824,925 831,918 839,911 849,903 861,896 875,890 892,884 911,880 933,877 957,876 984,878 1015,882 1048,889 1023,866 1002,841 983,814 968,786 956,756 947,726 942,694 941,662 942,630 948,598 957,565 969,533 986,501 1006,469 1030,439 1058,409 1034,421 1012,437 993,454 976,474 961,496 948,520 937,545 928,571 921,598 915,625 911,653 909,681 907,709 907,736 909,763 911,788 911,788"/>
<polygon class="pen1 brush0" points="273,433 281,432 288,430 294,426 300,422 305,416 308,409 310,401 311,393 310,385 308,378 305,372 300,366 294,361 288,358 281,356 273,355 265,356 258,358 252,361 246,366 241,372 238,378 236,385 235,393 236,401 238,409 241,416 246,422 252,426 258,430 265,432 273,433 273,433"/>
<polygon class="pen1 brush0" points="405,284 409,282 414,276 419,266 424,253 430,237 436,219 441,198 446,176 454,133 458,97 457,72 452,61 448,63 443,68 438,78 432,91 427,108 421,127 416,147 411,170 403,213 399,248 400,273 405,284"/>
</g>
</svg>
