<?xml version="1.0" encoding="UTF-8" standalone="no"?>
<!DOCTYPE svg PUBLIC "-//W3C//DTD SVG 1.0//EN" "http://www.w3.org/TR/2001/REC-SVG-20010904/DTD/svg10.dtd">
<svg xmlns="http://www.w3.org/2000/svg" xmlns:xlink="http://www.w3.org/1999/xlink" fill-rule="evenodd" height="1.206in" preserveAspectRatio="none" stroke-linecap="round" viewBox="0 0 1993 1206" width="1.993in">
<style type="text/css">
.brush0 { fill: rgb(255,255,255); }
.pen0 { stroke: rgb(0,0,0); stroke-width: 1; stroke-linejoin: round; }
.brush1 { fill: none; }
.pen1 { stroke: none; }
.brush2 { fill: rgb(0,0,0); }
</style>
<g>
<polygon class="pen1 brush2" points="1912,1096 1924,1086 1935,1072 1947,1055 1958,1035 1967,1012 1976,987 1982,961 1986,933 1987,908 1987,882 1983,856 1976,830 1966,804 1952,780 1934,756 1912,734 1911,728 1907,712 1900,689 1889,661 1874,631 1854,601 1829,575 1798,555 1798,549 1795,533 1790,510 1780,484 1765,457 1743,432 1712,413 1672,403 1671,401 1670,396 1667,388 1663,377 1657,365 1650,350 1641,335 1631,319 1619,303 1605,286 1588,271 1570,256 1549,243 1526,232 1501,223 1473,217 1472,215 1468,210 1462,203 1453,193 1443,182 1431,170 1417,158 1401,145 1384,133 1366,122 1347,113 1327,106 1307,101 1286,100 1265,102 1243,109 1222,92 1201,79 1182,67 1163,59 1145,52 1128,48 1111,46 1095,45 1080,45 1066,47 1052,50 1038,54 1025,58 1013,62 1001,67 989,72 969,61 948,53 927,49 906,47 886,49 866,52 847,57 829,63 812,71 797,78 784,86 772,93 763,99 756,104 751,108 750,109 728,102 707,100 686,101 666,106 646,113 627,122 609,133 592,145 576,158 562,170 550,182 540,193 531,203 525,210 521,215 520,217 492,223 467,232 444,243 423,256 404,271 388,286 374,303 362,319 351,335 342,350 335,365 329,377 325,388 322,396 321,401 320,403 280,413 250,432 228,457 213,484 203,510 198,533 195,549 195,555 164,575 139,601 119,631 103,661 92,689 85,712 81,728 80,734 59,755 42,777 28,800 18,823 10,847 6,871 4,895 4,919 8,949 14,978 23,1005 33,1030 44,1052 56,1070 68,1085 80,1096 95,1106 112,1115 130,1121 148,1126 167,1130 187,1132 207,1132 228,1131 248,1129 268,1125 288,1121 307,1115 325,1109 343,1102 360,1094 375,1085 379,1085 390,1085 406,1084 426,1079 447,1071 469,1057 490,1036 507,1007 508,1007 512,1006 519,1005 527,1004 537,1001 549,998 562,994 577,989 592,983 608,976 624,967 640,958 657,946 672,934 688,919 702,903 703,903 708,903 714,902 723,902 733,901 745,899 759,896 774,893 789,889 805,884 821,878 838,870 854,861 870,851 885,839 899,825 901,826 905,827 912,830 922,833 933,837 947,841 961,844 977,846 994,848 1011,849 1029,848 1047,846 1064,842 1081,835 1096,826 1111,814 1112,815 1116,818 1121,821 1129,827 1138,832 1149,839 1161,845 1173,852 1187,858 1201,864 1216,868 1230,872 1245,874 1259,874 1273,872 1286,868 1288,871 1292,878 1301,890 1315,903 1334,917 1359,930 1390,942 1429,951 1434,954 1440,960 1447,967 1454,975 1462,985 1471,995 1481,1005 1492,1016 1504,1026 1517,1036 1531,1045 1546,1052 1562,1059 1580,1063 1598,1066 1618,1066 1620,1068 1625,1072 1633,1078 1644,1086 1657,1095 1673,1104 1691,1114 1711,1122 1732,1129 1755,1135 1780,1138 1805,1138 1831,1134 1858,1126 1885,1114 1912,1096"/>
<polygon class="pen1 brush0" points="95,809 95,806 96,799 97,789 100,777 105,764 113,753 124,744 139,738 139,735 141,727 144,714 149,700 156,685 166,671 179,660 195,652 196,649 197,639 201,626 206,611 212,596 221,582 232,572 246,568 247,565 250,556 255,544 261,530 269,517 279,506 291,498 304,497 305,494 307,488 311,478 316,468 323,458 332,449 343,444 355,444 356,441 360,434 366,425 374,414 385,403 398,395 414,389 432,389 434,386 438,380 445,370 455,360 466,349 480,341 495,336 512,335 514,333 518,327 526,318 535,309 547,301 561,294 575,290 591,291 593,288 599,282 607,273 619,264 634,256 650,250 668,249 688,254 691,251 698,245 709,237 723,228 740,221 758,216 778,217 797,225 799,223 805,218 814,211 826,205 840,200 857,197 875,199 895,207 899,205 908,202 922,197 939,193 958,190 976,191 993,195 1007,206 1010,205 1018,201 1029,198 1043,194 1059,192 1075,194 1090,199 1104,210 1107,209 1115,207 1127,205 1142,203 1158,203 1175,206 1190,213 1203,224 1206,223 1216,222 1230,222 1247,222 1265,225 1282,230 1298,239 1311,252 1314,252 1321,251 1331,251 1344,252 1357,256 1371,263 1384,273 1395,288 1397,287 1404,285 1414,283 1426,282 1440,283 1454,287 1467,295 1479,309 1482,309 1488,310 1498,313 1509,317 1521,323 1533,333 1542,345 1548,362 1551,362 1558,364 1568,366 1580,372 1592,380 1602,391 1610,407 1614,427 1617,427 1623,428 1633,430 1645,434 1657,441 1669,450 1679,463 1685,480 1687,481 1694,484 1703,488 1714,496 1724,505 1734,518 1740,533 1743,551 1745,552 1750,555 1758,560 1766,567 1774,577 1782,589 1787,603 1789,620 1791,622 1797,626 1804,633 1813,642 1822,653 1830,665 1835,677 1837,690 1838,690 1841,691 1846,693 1851,698 1856,706 1861,717 1866,733 1868,754 1870,755 1875,759 1882,764 1890,772 1899,781 1906,792 1912,805 1915,818 1920,823 1926,828 1931,834 1935,841 1937,848 1937,854 1934,860 1928,866 1919,871 1910,871 1903,867 1897,861 1892,853 1888,845 1885,838 1882,832 1880,830 1876,826 1869,820 1862,811 1853,801 1845,791 1838,779 1833,768 1832,768 1829,766 1824,763 1818,759 1811,752 1804,743 1797,731 1791,716 1789,716 1785,714 1779,711 1772,705 1765,698 1758,688 1751,675 1747,659 1745,658 1741,656 1736,651 1729,645 1722,636 1716,624 1711,610 1709,592 1707,591 1702,590 1695,586 1686,581 1677,574 1668,564 1660,552 1654,537 1654,537 1653,533 1652,530 1652,527 1651,525 1648,524 1641,522 1631,517 1619,510 1607,502 1596,490 1588,477 1585,460 1583,460 1578,460 1571,458 1562,456 1551,451 1541,445 1531,435 1523,423 1521,423 1516,423 1509,423 1500,421 1490,417 1480,410 1469,400 1460,386 1458,386 1453,386 1444,385 1434,383 1422,378 1409,372 1397,362 1385,348 1382,348 1373,347 1360,345 1345,342 1329,338 1315,332 1304,323 1298,312 1295,312 1286,313 1273,313 1258,312 1241,310 1225,306 1210,299 1199,289 1196,290 1187,292 1174,294 1159,295 1142,295 1126,292 1112,287 1102,277 1099,278 1092,279 1082,281 1069,282 1055,282 1041,280 1027,276 1016,268 1012,269 1002,271 988,274 970,276 951,278 932,277 916,274 902,267 900,269 893,274 882,281 869,287 854,293 837,296 820,295 803,289 801,291 794,296 784,303 770,310 754,317 737,321 718,322 699,318 697,320 691,324 682,330 670,337 656,344 642,348 626,351 611,349 610,351 606,358 599,367 591,376 579,386 565,393 549,397 531,396 530,399 526,405 519,414 510,424 500,433 488,440 474,443 459,440 458,443 456,449 452,458 445,468 436,478 423,485 407,489 388,487 385,497 381,507 376,517 370,527 363,536 354,543 345,547 334,549 334,552 333,559 331,569 328,580 322,592 314,603 302,611 287,616 286,619 285,626 282,635 277,647 270,658 261,669 249,676 235,680 235,683 233,692 231,705 227,720 220,735 211,748 198,759 182,764 182,767 180,774 178,783 173,794 167,805 158,815 146,821 132,822 132,824 132,830 131,837 128,845 124,853 117,858 107,860 93,858 81,849 79,835 84,820 95,809 95,809"/>
<polygon class="pen1 brush0" points="202,978 210,980 217,980 223,978 228,975 231,972 234,968 236,964 237,960 238,956 239,952 239,949 239,947 248,947 256,944 263,939 269,932 273,925 276,917 278,910 280,903 281,900 282,897 283,895 283,893 298,889 309,880 318,868 324,854 327,841 330,829 331,821 331,818 339,816 347,813 354,808 359,802 364,795 368,788 371,781 374,775 376,769 377,765 378,761 378,758 385,757 390,755 396,752 400,749 404,745 407,741 410,736 412,731 416,721 418,711 419,704 419,700 432,698 443,691 452,683 459,672 463,662 467,654 468,647 469,645 486,646 501,643 512,636 520,628 526,619 530,610 532,604 533,602 546,604 559,602 570,595 579,587 587,578 593,570 597,564 598,562 615,563 629,560 641,553 651,545 659,537 665,529 668,523 669,521 683,522 697,520 710,516 723,510 733,504 742,498 747,495 749,493 766,497 782,496 798,492 812,486 824,480 833,473 839,469 841,467 856,473 872,474 887,471 902,466 914,459 923,453 930,449 932,447 944,453 959,456 976,457 993,456 1008,454 1021,452 1030,450 1033,449 1043,455 1055,459 1069,460 1082,460 1093,459 1103,458 1110,457 1112,456 1121,465 1134,470 1148,472 1163,472 1176,471 1188,469 1196,468 1199,467 1209,476 1222,482 1237,486 1252,488 1266,488 1278,489 1286,488 1289,488 1294,498 1304,506 1317,511 1331,515 1344,518 1356,519 1364,520 1367,520 1377,532 1388,541 1399,547 1409,551 1419,553 1426,554 1431,554 1433,554 1442,567 1451,576 1461,582 1470,585 1478,587 1484,587 1488,586 1490,586 1498,598 1507,606 1516,613 1526,616 1534,619 1541,620 1545,620 1547,620 1550,635 1556,647 1566,657 1576,665 1587,670 1596,674 1603,676 1605,677 1608,688 1611,698 1616,707 1623,715 1630,723 1638,729 1648,734 1658,737 1660,752 1663,765 1668,775 1674,784 1680,790 1686,794 1690,797 1692,798 1692,798 1692,798 1692,798 1692,798 1694,807 1696,815 1700,822 1705,830 1710,836 1716,842 1724,846 1732,850 1734,857 1737,864 1741,871 1745,878 1750,884 1756,889 1762,894 1769,897 1774,907 1781,917 1788,927 1796,936 1803,943 1809,949 1813,953 1814,954 1817,961 1820,968 1824,975 1828,981 1833,986 1839,989 1847,989 1855,985 1861,979 1863,972 1862,965 1858,958 1853,952 1848,947 1845,944 1843,943 1841,931 1835,920 1829,910 1821,902 1813,895 1806,889 1802,886 1800,885 1797,864 1793,848 1788,838 1783,832 1776,824 1770,816 1765,807 1759,798 1754,789 1747,781 1739,772 1729,764 1728,754 1726,744 1722,735 1718,727 1712,719 1705,712 1697,705 1689,700 1686,684 1679,671 1671,660 1661,652 1651,646 1643,642 1637,640 1635,639 1629,623 1621,612 1610,603 1599,597 1589,594 1580,592 1573,591 1571,591 1568,573 1562,559 1552,549 1542,541 1531,536 1522,534 1515,532 1513,532 1508,517 1499,506 1489,497 1479,492 1469,488 1460,486 1454,485 1452,485 1441,472 1429,465 1416,461 1403,460 1392,461 1383,463 1377,465 1375,466 1365,453 1353,443 1341,437 1329,434 1317,433 1308,433 1302,434 1300,434 1288,422 1273,414 1257,409 1241,407 1226,407 1214,408 1205,409 1202,409 1191,399 1177,393 1163,390 1148,390 1135,391 1124,393 1117,395 1114,396 1102,386 1088,381 1073,380 1059,381 1047,384 1036,388 1030,391 1027,392 1014,383 998,378 982,378 965,380 949,384 937,388 928,392 925,393 907,386 891,384 876,387 863,391 852,398 844,404 839,408 837,410 820,403 802,402 786,406 771,412 758,420 748,428 741,434 739,436 721,432 705,433 690,437 678,444 667,453 659,460 654,466 652,468 638,467 625,471 613,477 602,485 593,493 587,501 582,506 581,508 566,508 552,512 540,520 530,529 521,538 514,547 510,553 509,555 492,555 478,560 466,568 456,578 449,588 443,597 440,604 439,606 428,606 419,611 411,618 404,627 399,637 395,645 393,651 392,653 386,653 380,655 374,658 369,662 364,668 359,674 355,681 351,687 351,687 346,698 343,708 342,715 341,717 334,718 327,721 322,726 317,731 313,738 309,746 306,753 303,761 299,772 297,781 296,788 296,792 282,799 270,810 261,822 255,836 250,849 248,860 246,867 246,870 233,875 222,883 215,893 211,905 208,916 206,925 206,932 206,934 195,944 190,957 192,970 202,978 202,978"/>
<polygon class="pen1 brush0" points="333,985 347,992 359,992 369,988 377,982 384,974 388,966 391,960 392,958 400,956 407,950 412,942 416,932 419,922 421,914 422,908 422,906 440,906 455,901 466,893 473,883 478,872 479,862 478,854 475,850 487,848 497,845 506,839 515,832 521,826 526,820 529,817 530,815 540,816 551,813 561,807 571,801 579,793 585,786 589,781 591,778 605,779 617,776 629,769 638,761 646,752 652,743 655,736 655,733 674,738 691,737 707,732 722,726 733,719 742,714 747,711 749,714 771,711 790,703 805,692 817,680 825,667 831,657 833,650 833,647 850,655 867,659 882,660 896,658 908,654 918,649 924,643 926,637 940,637 956,639 972,641 988,643 1001,643 1012,641 1018,637 1020,629 1032,634 1046,638 1062,639 1077,639 1091,639 1103,637 1111,636 1114,636 1133,650 1150,659 1166,665 1181,667 1192,668 1201,667 1207,667 1209,666 1216,679 1227,688 1240,696 1253,701 1266,704 1277,706 1284,707 1287,707 1299,722 1313,732 1328,738 1343,742 1356,743 1368,742 1375,741 1378,741 1386,754 1395,764 1404,770 1413,774 1420,777 1427,778 1431,778 1432,778 1438,788 1445,799 1452,810 1459,820 1464,828 1469,835 1472,839 1473,841 1482,853 1492,862 1504,868 1516,873 1526,876 1535,878 1541,879 1543,879 1551,891 1560,902 1569,911 1577,918 1584,923 1590,927 1594,929 1595,930 1603,939 1611,946 1619,950 1625,954 1630,956 1635,957 1637,957 1638,957 1643,965 1649,972 1656,977 1662,981 1669,983 1676,983 1682,981 1688,977 1691,971 1692,964 1691,955 1689,947 1684,939 1679,933 1672,928 1665,927 1665,925 1664,921 1662,915 1659,908 1653,901 1646,895 1635,890 1622,887 1621,884 1619,876 1614,865 1608,853 1599,841 1588,832 1575,827 1560,829 1559,827 1556,821 1551,814 1545,805 1537,798 1527,792 1516,789 1503,791 1505,788 1506,781 1506,771 1503,760 1497,748 1487,736 1473,725 1453,716 1450,715 1446,710 1439,704 1431,696 1421,689 1410,684 1398,682 1385,684 1383,681 1377,675 1369,665 1358,655 1344,646 1330,640 1314,638 1298,642 1296,639 1290,632 1281,623 1270,614 1256,606 1241,601 1225,601 1208,608 1205,606 1197,600 1184,592 1169,584 1152,576 1135,571 1118,570 1104,575 1091,566 1079,561 1067,558 1055,557 1044,558 1032,561 1019,566 1006,572 991,567 976,565 961,566 946,569 933,573 923,577 916,580 914,581 899,576 883,577 866,582 849,590 834,599 822,607 814,614 811,616 794,609 777,609 762,614 749,622 738,631 729,640 724,647 722,650 706,647 689,649 674,654 661,662 649,671 640,679 634,685 632,687 619,685 606,688 594,694 583,702 574,711 566,719 562,725 560,727 545,727 533,731 523,738 515,746 509,755 506,762 504,768 503,770 491,769 480,771 471,777 463,784 456,792 452,799 449,804 448,806 432,806 420,813 410,826 402,840 397,856 393,869 392,879 391,883 378,886 368,892 362,899 358,908 355,916 354,923 354,928 354,930 346,932 340,937 334,945 330,953 327,963 327,972 328,979 333,985"/>
<polygon class="pen1 brush2" points="1443,767 1449,766 1454,763 1457,759 1458,754 1457,748 1454,744 1449,741 1443,740 1438,741 1434,744 1432,748 1431,754 1432,759 1434,763 1438,766 1443,767 1443,767"/>
<polygon class="pen1 brush2" points="1256,670 1261,669 1265,666 1268,662 1269,657 1268,652 1265,648 1261,646 1256,645 1250,646 1246,648 1243,652 1242,657 1243,662 1246,666 1250,669 1256,670 1256,670"/>
<polygon class="pen1 brush2" points="683,720 688,719 693,716 695,712 696,706 695,701 693,697 688,694 683,693 677,694 673,697 670,701 669,706 670,712 673,716 677,719 683,720 683,720"/>
<polygon class="pen1 brush2" points="1593,650 1598,649 1602,646 1604,641 1605,636 1604,631 1602,626 1598,623 1593,622 1588,623 1584,626 1581,631 1580,636 1581,641 1584,646 1588,649 1593,650 1593,650"/>
<polygon class="pen1 brush2" points="1335,487 1341,486 1346,483 1349,479 1350,474 1349,469 1346,464 1341,461 1335,460 1330,461 1326,464 1324,469 1323,474 1324,479 1326,483 1330,486 1335,487 1335,487"/>
<polygon class="pen1 brush2" points="1067,443 1073,442 1077,439 1080,435 1081,430 1080,424 1077,420 1073,417 1067,416 1062,417 1058,420 1055,424 1054,430 1055,435 1058,439 1062,442 1067,443 1067,443"/>
<polygon class="pen1 brush2" points="705,487 710,486 714,483 717,479 718,474 717,469 714,464 710,461 705,460 699,461 695,464 692,469 691,474 692,479 695,483 699,486 705,487 705,487"/>
<polygon class="pen1 brush2" points="493,619 498,618 502,615 505,611 506,606 505,601 502,596 498,593 493,592 488,593 483,596 480,601 479,606 480,611 483,615 488,618 493,619 493,619"/>
<polygon class="pen1 brush2" points="337,791 342,790 346,787 349,783 350,778 349,772 346,768 342,765 337,764 332,765 328,768 325,772 324,778 325,783 328,787 332,790 337,791 337,791"/>
<polygon class="pen1 brush2" points="1834,743 1839,742 1844,739 1847,735 1848,730 1847,724 1844,720 1839,717 1834,716 1829,717 1824,720 1821,724 1820,730 1821,735 1824,739 1829,742 1834,743 1834,743"/>
<polygon class="pen1 brush2" points="1699,558 1705,557 1709,554 1712,550 1713,545 1712,540 1709,535 1705,532 1699,531 1694,532 1690,535 1687,540 1686,545 1687,550 1690,554 1694,557 1699,558 1699,558"/>
<polygon class="pen1 brush2" points="1506,389 1512,388 1516,385 1519,381 1520,376 1519,371 1516,366 1512,363 1506,362 1501,363 1497,366 1494,371 1493,376 1494,381 1497,385 1501,388 1506,389 1506,389"/>
<polygon class="pen1 brush2" points="1259,282 1264,281 1269,279 1272,275 1273,270 1272,264 1269,259 1264,256 1259,255 1254,256 1250,259 1247,264 1246,270 1247,275 1250,279 1254,281 1259,282 1259,282"/>
<polygon class="pen1 brush2" points="858,255 863,254 867,251 870,247 871,241 870,236 867,232 863,229 858,228 853,229 848,232 845,236 844,241 845,247 848,251 853,254 858,255 858,255"/>
<polygon class="pen1 brush2" points="568,352 573,351 577,348 580,344 581,339 580,333 577,329 573,326 568,325 563,326 558,329 555,333 554,339 555,344 558,348 563,351 568,352 568,352"/>
<polygon class="pen1 brush2" points="344,518 350,517 354,514 357,509 358,504 357,499 354,495 350,492 344,491 339,492 335,495 332,499 331,504 332,509 335,514 339,517 344,518 344,518"/>
<polygon class="pen1 brush2" points="186,721 191,720 195,717 198,713 199,707 198,702 195,697 191,694 186,693 181,694 177,697 174,702 173,707 174,713 177,717 181,720 186,721 186,721"/>
<polygon class="pen1 brush2" points="1933,734 1940,733 1946,729 1950,724 1952,717 1950,710 1946,704 1940,700 1933,699 1926,700 1920,704 1916,710 1915,717 1916,724 1920,729 1926,733 1933,734 1933,734"/>
<polygon class="pen1 brush2" points="1821,558 1828,557 1834,553 1838,548 1840,541 1838,534 1834,528 1828,524 1821,522 1814,524 1809,528 1805,534 1804,541 1805,548 1809,553 1814,557 1821,558 1821,558"/>
<polygon class="pen1 brush2" points="1689,399 1696,397 1701,393 1705,387 1706,380 1705,373 1701,367 1696,363 1689,362 1682,363 1677,367 1673,373 1672,380 1673,387 1677,393 1682,397 1689,399 1689,399"/>
<polygon class="pen1 brush2" points="1486,208 1493,207 1499,203 1503,197 1504,190 1503,183 1499,178 1493,174 1486,173 1479,174 1474,178 1470,183 1469,190 1470,197 1474,203 1479,207 1486,208 1486,208"/>
<polygon class="pen1 brush2" points="1249,91 1256,89 1261,85 1265,79 1266,72 1265,65 1261,60 1256,56 1249,55 1242,56 1236,60 1232,65 1230,72 1232,79 1236,85 1242,89 1249,91 1249,91"/>
<polygon class="pen1 brush2" points="1002,55 1009,54 1015,50 1019,44 1020,37 1019,30 1015,24 1009,20 1002,18 995,20 989,24 985,30 983,37 985,44 989,50 995,54 1002,55 1002,55"/>
<polygon class="pen1 brush2" points="743,93 750,92 756,88 760,83 762,76 760,69 756,63 750,59 743,58 736,59 731,63 727,69 726,76 727,83 731,88 736,92 743,93 743,93"/>
<polygon class="pen1 brush2" points="506,211 513,210 518,206 522,200 523,193 522,186 518,181 513,177 506,176 499,177 493,181 489,186 487,193 489,200 493,206 499,210 506,211 506,211"/>
<polygon class="pen1 brush2" points="304,393 311,392 316,388 319,382 320,375 319,368 316,362 311,358 304,356 297,358 291,362 287,368 286,375 287,382 291,388 297,392 304,393 304,393"/>
<polygon class="pen1 brush2" points="168,552 175,551 180,547 184,542 185,535 184,528 180,522 175,518 168,517 161,518 155,522 151,528 149,535 151,542 155,547 161,551 168,552 168,552"/>
<polygon class="pen1 brush2" points="56,734 63,733 69,729 73,724 74,717 73,710 69,704 63,700 56,699 49,700 44,704 40,710 39,717 40,724 44,729 49,733 56,734 56,734"/>
<polygon class="pen1 brush2" points="1595,906 1601,905 1606,902 1609,898 1610,893 1609,888 1606,883 1601,880 1595,879 1590,880 1586,883 1584,888 1583,893 1584,898 1586,902 1590,905 1595,906 1595,906"/>
<polygon class="pen1 brush2" points="435,903 441,902 445,899 448,894 449,889 448,884 445,879 441,876 435,875 430,876 426,879 423,884 422,889 423,894 426,899 430,902 435,903 435,903"/>
<polygon class="pen1 brush2" points="1763,870 1768,869 1773,867 1776,863 1777,858 1776,852 1773,847 1768,844 1763,843 1758,844 1754,847 1751,852 1750,858 1751,863 1754,867 1758,869 1763,870 1763,870"/>
<polygon class="pen1 brush2" points="381,1130 388,1129 394,1125 398,1119 399,1112 398,1105 394,1099 388,1095 381,1093 374,1095 369,1099 365,1105 364,1112 365,1119 369,1125 374,1129 381,1130 381,1130"/>
<polygon class="pen1 brush2" points="530,1048 537,1047 542,1043 546,1038 547,1031 546,1024 542,1018 537,1014 530,1012 523,1014 517,1018 513,1024 512,1031 513,1038 517,1043 523,1047 530,1048 530,1048"/>
<polygon class="pen1 brush2" points="716,949 723,947 729,943 733,937 735,930 733,923 729,918 723,914 716,913 709,914 704,918 700,923 699,930 700,937 704,943 709,947 716,949 716,949"/>
<polygon class="pen1 brush2" points="909,876 916,875 922,871 926,866 928,859 926,852 922,846 916,842 909,841 902,842 896,846 892,852 891,859 892,866 896,871 902,875 909,876 909,876"/>
<polygon class="pen1 brush2" points="1112,865 1119,863 1125,859 1129,853 1131,846 1129,839 1125,834 1119,830 1112,829 1105,830 1099,834 1095,839 1094,846 1095,853 1099,859 1105,863 1112,865 1112,865"/>
<polygon class="pen1 brush2" points="1270,916 1277,914 1282,910 1286,904 1287,897 1286,890 1282,884 1277,880 1270,879 1263,880 1257,884 1253,890 1252,897 1253,904 1257,910 1263,914 1270,916 1270,916"/>
<polygon class="pen1 brush2" points="1421,997 1428,996 1434,992 1438,987 1439,980 1438,973 1434,966 1428,962 1421,960 1414,962 1408,966 1404,973 1402,980 1404,987 1408,992 1414,996 1421,997 1421,997"/>
<polygon class="pen1 brush2" points="1611,1112 1618,1110 1623,1106 1627,1100 1628,1093 1627,1086 1623,1080 1618,1076 1611,1075 1604,1076 1598,1080 1594,1086 1593,1093 1594,1100 1598,1106 1604,1110 1611,1112"/>
</g>
</svg>
