<?xml version="1.0" encoding="UTF-8" standalone="no"?>
<!DOCTYPE svg PUBLIC "-//W3C//DTD SVG 1.0//EN" "http://www.w3.org/TR/2001/REC-SVG-20010904/DTD/svg10.dtd">
<svg xmlns="http://www.w3.org/2000/svg" xmlns:xlink="http://www.w3.org/1999/xlink" fill-rule="evenodd" height="1.975in" preserveAspectRatio="none" stroke-linecap="round" viewBox="0 0 1615 1975" width="1.615in">
<style type="text/css">
.brush0 { fill: rgb(255,255,255); }
.pen0 { stroke: rgb(0,0,0); stroke-width: 1; stroke-linejoin: round; }
.brush1 { fill: none; }
.pen1 { stroke: none; }
.brush2 { fill: rgb(0,0,0); }
</style>
<g>
<polygon class="pen1 brush2" points="794,1865 758,1864 723,1861 688,1856 654,1849 620,1841 588,1831 555,1820 524,1807 494,1792 464,1776 435,1759 407,1740 380,1720 354,1699 329,1676 306,1652 283,1627 261,1601 241,1574 222,1546 204,1517 188,1487 173,1456 159,1424 147,1392 137,1358 127,1324 120,1290 114,1254 109,1218 107,1182 106,1145 107,1099 112,1053 118,1009 128,966 140,924 154,883 171,843 190,805 211,768 235,732 260,698 287,666 316,636 347,607 379,580 413,555 432,565 453,574 475,583 499,591 523,598 548,605 573,611 599,617 625,622 651,626 676,630 702,633 726,636 750,638 773,639 794,640 794,1865 794,1865"/>
<polygon class="pen1 brush2" points="819,640 840,639 863,638 887,636 911,633 936,630 962,626 988,622 1014,617 1039,611 1065,605 1090,598 1114,591 1137,583 1159,574 1180,565 1200,555 1234,580 1267,607 1297,636 1326,666 1354,698 1379,732 1402,768 1423,805 1442,843 1459,883 1473,924 1485,966 1495,1009 1501,1053 1506,1099 1507,1145 1506,1182 1504,1218 1499,1254 1493,1290 1486,1324 1476,1358 1466,1392 1454,1424 1440,1456 1425,1487 1409,1517 1391,1546 1372,1574 1352,1601 1330,1627 1307,1652 1284,1676 1259,1699 1233,1720 1206,1740 1178,1759 1149,1776 1119,1792 1089,1807 1058,1820 1025,1831 993,1841 959,1849 925,1856 890,1861 855,1864 819,1865 819,640 819,640"/>
<polygon class="pen1 brush2" points="1383,1640 1376,1650 1369,1658 1363,1665 1358,1671 1352,1676 1347,1680 1342,1685 1336,1690 1344,1717 1352,1740 1360,1760 1368,1777 1376,1793 1384,1807 1392,1821 1400,1835 1409,1849 1419,1864 1430,1878 1441,1891 1452,1901 1463,1909 1474,1911 1484,1909 1525,1975 1535,1965 1494,1901 1498,1894 1499,1887 1498,1880 1494,1871 1489,1862 1482,1851 1473,1839 1463,1825 1443,1796 1426,1765 1413,1734 1402,1705 1393,1679 1387,1658 1384,1645 1383,1640 1383,1640"/>
<polygon class="pen1 brush2" points="1585,1461 1586,1447 1584,1429 1579,1409 1571,1386 1565,1371 1558,1357 1551,1345 1543,1335 1536,1327 1530,1321 1523,1318 1518,1318 1513,1328 1513,1347 1518,1373 1528,1403 1533,1415 1539,1427 1545,1438 1551,1447 1557,1455 1563,1462 1568,1467 1573,1470 1602,1521 1615,1513 1585,1461 1585,1461"/>
<polygon class="pen1 brush2" points="903,64 921,101 930,136 932,169 929,198 921,225 910,248 898,267 886,282 876,280 867,278 857,277 847,276 837,275 826,274 816,274 806,274 795,274 785,274 775,275 765,276 754,277 744,278 734,280 724,282 712,267 700,248 690,225 682,198 679,169 681,136 691,101 710,64 717,63 723,61 728,58 733,54 737,49 740,44 742,38 743,31 742,25 740,19 737,14 733,9 728,5 723,2 717,1 710,0 704,1 698,2 693,5 688,9 684,14 681,19 680,25 679,31 679,38 681,44 683,49 687,54 676,70 666,91 657,116 651,144 650,177 654,212 665,252 684,294 668,300 651,307 634,316 616,326 598,337 580,349 562,363 544,379 554,382 563,387 572,393 579,401 585,409 589,419 592,429 593,440 592,453 588,465 582,476 575,485 566,493 555,499 543,503 531,504 521,503 512,501 503,497 495,492 487,486 481,478 475,470 471,461 466,469 461,477 455,486 450,494 445,503 440,512 434,521 429,531 443,541 460,550 477,557 496,563 516,568 536,572 555,575 575,578 593,580 610,581 626,582 640,582 651,582 660,582 665,582 667,582 683,561 701,549 720,542 740,542 759,545 776,551 792,558 805,565 818,558 834,551 852,545 871,542 891,542 910,549 928,561 944,582 946,582 951,582 960,582 971,582 985,582 1001,581 1018,580 1037,578 1056,575 1076,572 1096,568 1116,563 1135,557 1152,550 1169,541 1183,531 1178,521 1172,512 1167,503 1161,494 1156,486 1150,477 1145,469 1139,461 1135,470 1130,478 1124,486 1117,492 1109,497 1100,501 1091,503 1081,504 1068,503 1056,499 1046,493 1036,485 1029,476 1023,465 1019,453 1018,440 1019,429 1022,419 1026,409 1032,401 1039,393 1047,387 1056,382 1066,379 1048,363 1030,349 1012,337 995,326 977,316 960,307 943,300 927,294 946,252 957,212 961,177 960,144 954,116 945,91 935,70 924,54 928,49 931,44 932,38 933,31 932,25 931,19 928,14 924,9 919,5 913,2 907,1 900,0 894,1 888,2 883,5 878,9 874,14 871,19 870,25 869,31 870,38 872,44 875,49 880,54 885,58 891,61 897,63 903,64 903,64"/>
<polygon class="pen1 brush2" points="1231,535 1240,551 1248,561 1256,567 1264,569 1269,569 1274,567 1277,565 1278,564 1288,538 1293,509 1294,478 1290,447 1284,416 1277,388 1268,362 1260,342 1254,323 1252,302 1253,281 1257,261 1261,244 1266,230 1270,220 1271,217 1261,211 1289,159 1277,153 1248,203 1237,196 1229,206 1222,223 1216,244 1212,270 1210,297 1211,326 1217,353 1227,379 1237,404 1242,430 1243,456 1241,481 1238,502 1235,519 1232,531 1231,535 1231,535"/>
<polygon class="pen1 brush2" points="379,535 378,531 375,519 371,502 368,481 367,456 368,430 373,404 383,379 393,353 398,326 400,297 398,270 393,244 387,223 380,206 372,196 363,201 335,150 322,157 350,210 339,217 340,220 344,230 348,244 353,261 356,281 358,302 356,323 350,342 342,362 333,388 325,416 319,447 316,478 316,509 321,538 332,564 333,565 336,567 340,569 346,569 353,567 361,561 370,551 379,535 379,535"/>
<polygon class="pen1 brush2" points="28,1460 27,1447 29,1429 34,1409 42,1386 49,1371 56,1357 63,1345 70,1335 77,1327 84,1321 90,1318 95,1318 100,1328 101,1347 95,1373 85,1403 80,1416 74,1428 68,1438 62,1448 56,1456 50,1462 44,1467 39,1470 12,1520 0,1513 28,1460 28,1460"/>
<polygon class="pen1 brush2" points="231,1640 230,1645 226,1658 221,1679 212,1705 201,1734 188,1765 171,1796 152,1825 141,1839 131,1851 124,1862 118,1871 115,1880 114,1887 115,1894 119,1901 81,1965 92,1975 132,1911 142,1912 152,1909 163,1901 174,1891 184,1878 195,1864 204,1849 213,1835 221,1821 229,1807 237,1793 246,1777 254,1760 262,1740 270,1717 278,1690 272,1685 266,1680 261,1676 256,1671 251,1665 245,1658 238,1650 231,1640"/>
</g>
</svg>
