<?xml version="1.0" encoding="UTF-8" standalone="no"?>
<!DOCTYPE svg PUBLIC "-//W3C//DTD SVG 1.0//EN" "http://www.w3.org/TR/2001/REC-SVG-20010904/DTD/svg10.dtd">
<svg xmlns="http://www.w3.org/2000/svg" xmlns:xlink="http://www.w3.org/1999/xlink" fill-rule="evenodd" height="0.764in" preserveAspectRatio="none" stroke-linecap="round" viewBox="0 0 1978 764" width="1.978in">
<style type="text/css">
.brush0 { fill: rgb(255,255,255); }
.pen0 { stroke: rgb(0,0,0); stroke-width: 1; stroke-linejoin: round; }
.brush1 { fill: none; }
.pen1 { stroke: none; }
.brush2 { fill: rgb(0,0,0); }
</style>
<g>
<polygon class="pen1 brush2" points="0,389 13,383 31,376 53,366 77,355 105,343 135,330 167,317 199,304 233,291 266,278 299,267 331,257 361,248 389,242 415,237 437,236 438,231 440,216 443,193 448,163 454,127 462,87 472,45 484,1 484,1 487,3 492,5 499,9 507,13 517,19 528,25 539,31 497,231 511,230 552,37 558,40 564,43 571,47 577,50 584,54 591,58 598,63 605,67 569,231 585,231 616,74 622,78 629,81 636,85 643,89 649,93 656,96 663,100 670,104 643,233 657,231 683,111 689,115 696,118 702,122 709,126 715,130 722,133 728,137 735,141 714,233 731,233 748,148 779,165 808,182 834,196 857,210 876,221 891,229 900,234 903,236 904,235 907,232 911,227 917,220 925,212 934,203 944,193 955,181 967,169 980,157 993,144 1007,131 1021,117 1035,104 1050,91 1064,79 1066,84 1072,99 1081,120 1093,146 987,243 997,254 1099,159 1104,169 1110,179 1116,189 1122,199 1055,260 1062,270 1129,210 1136,221 1142,232 1149,242 1157,251 1164,260 1171,266 1177,271 1184,275 1194,279 1208,285 1225,291 1246,298 1268,306 1293,314 1319,323 1345,331 1371,340 1396,348 1420,356 1443,362 1463,368 1479,373 1492,377 1501,379 1504,376 1512,369 1525,357 1542,342 1564,324 1589,304 1618,283 1649,260 1683,238 1720,216 1758,196 1797,178 1838,162 1879,150 1920,142 1961,138 1958,140 1948,147 1934,158 1915,172 1892,188 1867,207 1840,228 1812,249 1784,271 1756,293 1730,315 1706,335 1685,354 1668,371 1656,385 1650,395 1652,397 1658,403 1667,412 1679,424 1694,439 1712,455 1732,473 1754,492 1778,511 1804,531 1831,549 1859,567 1888,583 1918,598 1948,610 1978,619 1975,619 1966,620 1951,620 1932,621 1908,620 1881,618 1850,614 1816,609 1780,601 1742,590 1703,576 1663,559 1623,538 1584,512 1545,482 1507,447 1504,448 1495,452 1481,458 1462,465 1440,474 1415,484 1389,495 1361,506 1332,517 1304,529 1277,539 1251,549 1229,558 1209,565 1194,571 1184,574 1207,591 1206,591 1204,593 1201,595 1196,598 1191,601 1185,606 1178,611 1170,616 1147,585 1139,595 1162,625 1157,629 1153,633 1148,636 1143,640 1138,645 1134,649 1129,654 1125,659 1082,598 1072,608 1116,668 1111,673 1107,679 1102,684 1098,689 1094,695 1091,701 1088,707 1085,713 1014,618 1007,629 1079,726 1075,735 1072,744 1070,754 1069,764 1066,760 1058,750 1046,735 1031,715 1013,693 994,669 975,644 956,619 953,619 944,620 931,621 913,622 891,624 867,626 841,628 813,629 784,631 756,632 729,633 702,634 679,635 658,634 640,634 627,632 575,706 505,616 491,614 477,613 462,611 448,609 433,607 419,604 404,602 389,599 375,596 360,593 345,590 330,587 315,583 300,579 285,575 270,571 285,558 261,551 260,551 257,552 253,554 249,555 243,556 238,557 234,558 230,557 227,556 221,553 213,551 203,547 192,543 178,538 163,532 148,527 131,520 114,514 96,507 78,500 61,492 43,485 27,478 11,470 85,453 0,389"/>
<polygon class="pen1 brush0" points="119,412 127,410 134,406 138,400 140,392 138,383 134,377 127,372 119,371 110,372 104,377 99,383 98,392 99,400 104,406 110,410 119,412"/>
<polygon class="pen1 brush0" points="527,338 534,338 540,337 546,335 552,333 556,331 559,328 561,325 562,322 561,319 559,316 556,314 552,311 546,310 540,308 534,307 527,307 520,307 513,308 507,310 501,311 496,314 493,316 491,319 490,322 491,325 493,328 496,331 501,333 507,335 513,337 520,338 527,338"/>
<polygon class="pen1 brush0" points="734,325 741,325 748,324 754,322 760,320 764,318 767,315 769,312 770,308 769,305 767,302 764,299 760,296 754,294 748,293 741,291 734,291 727,291 720,293 714,294 708,296 703,299 700,302 698,305 697,308 698,312 700,315 703,318 708,320 714,322 720,324 727,325 734,325"/>
<polygon class="pen1 brush0" points="645,400 652,400 658,399 664,397 670,395 674,393 677,391 679,388 680,385 679,381 677,378 674,375 670,373 664,371 658,369 652,368 645,368 637,368 630,369 624,371 618,373 614,375 611,378 609,381 608,385 609,388 611,391 614,393 618,395 624,397 630,399 637,400 645,400"/>
<polygon class="pen1 brush0" points="829,395 836,395 843,394 849,392 855,390 859,388 862,385 864,382 865,379 864,375 862,372 859,369 855,367 849,365 843,363 836,362 829,362 821,362 814,363 808,365 803,367 798,369 795,372 793,375 792,379 793,382 795,385 798,388 803,390 808,392 814,394 821,395 829,395"/>
<polygon class="pen1 brush0" points="964,341 971,341 977,340 983,338 988,336 992,334 995,331 997,328 998,325 997,322 995,319 992,316 988,313 983,311 977,310 971,308 964,308 956,308 949,310 943,311 938,313 933,316 930,319 928,322 927,325 928,328 930,331 933,334 938,336 943,338 949,340 956,341 964,341"/>
<polygon class="pen1 brush0" points="304,443 329,443 355,444 381,444 408,445 435,445 463,446 492,446 521,447 551,447 581,448 612,448 644,449 677,450 710,450 744,451 778,451 813,452 849,452 886,453 923,453 961,454 999,454 1039,454 1079,454 1120,455 1161,455 1204,455 1247,454 1291,454 1335,454 1381,454 1427,453 1383,469 1341,484 1302,498 1264,512 1229,524 1194,536 1160,547 1126,556 1092,565 1057,573 1022,580 985,586 946,592 905,596 862,599 816,602 785,603 754,604 722,605 690,605 658,605 625,605 592,604 559,602 526,600 492,597 458,593 424,588 389,583 355,576 320,567 285,558 261,551 271,546 279,538 286,529 292,517 297,502 300,485 303,466 304,443"/>
</g>
</svg>
