<?xml version="1.0" encoding="UTF-8" standalone="no"?>
<!DOCTYPE svg PUBLIC "-//W3C//DTD SVG 1.0//EN" "http://www.w3.org/TR/2001/REC-SVG-20010904/DTD/svg10.dtd">
<svg xmlns="http://www.w3.org/2000/svg" xmlns:xlink="http://www.w3.org/1999/xlink" fill-rule="evenodd" height="1.987in" preserveAspectRatio="none" stroke-linecap="round" viewBox="0 0 1091 1987" width="1.091in">
<style type="text/css">
.brush0 { fill: rgb(255,255,255); }
.pen0 { stroke: rgb(0,0,0); stroke-width: 1; stroke-linejoin: round; }
.brush1 { fill: none; }
.pen1 { stroke: none; }
.brush2 { fill: rgb(0,0,0); }
</style>
<g>
<polygon class="pen1 brush2" points="973,1911 999,1898 1022,1882 1042,1864 1057,1844 1068,1824 1074,1803 1075,1782 1070,1762 1066,1753 1060,1745 1053,1737 1046,1730 1037,1724 1027,1719 1017,1715 1006,1711 1014,1693 1019,1674 1018,1656 1013,1638 1009,1629 1003,1620 996,1613 989,1606 980,1600 970,1595 960,1591 949,1588 957,1570 962,1551 962,1532 957,1514 952,1505 947,1497 940,1489 932,1482 924,1476 915,1471 905,1466 894,1463 902,1445 906,1426 906,1407 901,1389 897,1380 891,1372 885,1364 877,1358 868,1352 859,1346 848,1342 837,1339 845,1320 850,1301 849,1283 844,1266 840,1257 834,1248 828,1241 820,1234 811,1228 802,1223 791,1219 780,1216 788,1197 793,1178 793,1160 788,1142 784,1132 778,1124 772,1116 764,1109 755,1103 746,1098 736,1094 725,1091 733,1073 737,1054 737,1035 733,1017 728,1008 723,1000 716,993 708,986 700,980 690,975 680,971 669,967 677,949 681,930 681,911 675,893 671,884 665,876 659,869 651,862 642,856 633,851 623,847 612,844 620,825 624,806 624,788 619,770 615,761 609,752 602,745 595,738 586,732 577,727 567,723 556,720 564,701 569,682 569,664 564,646 560,636 554,628 547,620 540,613 531,607 521,602 511,598 500,595 508,577 512,558 512,539 507,521 503,512 498,504 492,496 484,489 476,483 466,478 456,474 445,470 453,452 457,433 457,414 452,396 448,387 442,379 436,372 428,365 419,359 410,354 399,350 388,346 396,328 401,309 400,290 395,273 391,264 385,255 378,248 371,241 362,235 352,230 342,226 331,223 339,204 344,185 344,167 340,149 336,139 330,131 323,123 314,116 305,110 295,105 284,101 273,98 275,88 276,78 274,69 271,60 262,45 250,32 234,23 216,17 195,13 173,14 150,18 127,25 105,36 85,49 69,64 57,81 48,98 43,116 42,133 46,150 48,155 51,160 54,165 58,169 62,173 67,177 72,180 77,183 69,202 65,221 66,239 71,257 75,266 81,275 87,282 95,289 104,295 113,300 124,304 135,307 127,325 122,344 122,363 127,381 132,390 137,398 144,406 152,412 160,418 169,423 179,427 190,430 182,449 178,468 178,487 183,506 187,515 193,523 200,531 208,537 216,543 226,548 236,552 247,555 239,573 235,592 235,611 240,629 244,638 250,647 256,654 264,661 273,667 282,672 293,676 304,679 296,697 291,716 291,736 296,754 300,763 306,771 313,779 320,785 329,791 338,797 348,801 359,804 351,822 347,841 347,860 351,878 356,887 361,895 368,903 376,909 384,915 394,920 404,924 415,927 407,946 403,965 403,983 409,1000 413,1010 419,1018 425,1026 433,1033 442,1039 451,1044 462,1048 473,1051 464,1069 460,1088 460,1107 465,1125 469,1134 475,1142 482,1150 489,1157 498,1163 507,1168 517,1173 527,1176 519,1194 515,1213 515,1232 520,1250 524,1259 530,1267 537,1274 545,1281 553,1287 563,1292 573,1296 584,1300 576,1318 572,1337 571,1356 575,1373 580,1382 586,1391 593,1398 600,1405 609,1411 618,1416 628,1420 639,1423 631,1442 627,1461 627,1479 632,1497 636,1507 642,1515 648,1523 656,1530 665,1536 674,1541 685,1545 696,1548 688,1566 684,1585 684,1604 689,1622 693,1631 699,1640 706,1647 714,1654 722,1660 732,1665 742,1670 753,1673 745,1691 740,1710 740,1729 744,1747 748,1756 754,1764 761,1772 769,1778 778,1784 787,1789 797,1793 808,1796 800,1815 795,1834 795,1853 800,1870 805,1880 810,1888 817,1896 825,1903 834,1909 844,1914 855,1918 866,1921 878,1923 891,1924 904,1925 917,1924 931,1922 945,1919 959,1916 973,1911 973,1911"/>
<polygon class="pen1 brush2" points="723,1715 723,1717 723,1722 724,1729 726,1738 729,1748 734,1759 742,1770 753,1781 716,1808 717,1786 698,1794 709,1771 679,1774 699,1750 673,1747 696,1733 679,1723 723,1715 723,1715"/>
<polygon class="pen1 brush2" points="1000,1592 1036,1564 1033,1585 1057,1577 1043,1598 1074,1598 1050,1619 1077,1625 1058,1635 1074,1649 1030,1659 1029,1644 1025,1630 1021,1619 1015,1609 1009,1602 1005,1596 1001,1593 1000,1592 1000,1592"/>
<polygon class="pen1 brush2" points="668,1591 668,1593 668,1597 669,1604 670,1613 674,1624 679,1634 686,1645 696,1656 659,1683 662,1662 641,1669 654,1646 622,1650 644,1625 618,1622 639,1609 622,1598 668,1591 668,1591"/>
<polygon class="pen1 brush2" points="943,1469 979,1439 976,1460 1000,1452 986,1473 1019,1474 994,1494 1020,1500 1002,1511 1019,1524 975,1534 974,1519 970,1506 965,1495 959,1485 953,1478 948,1473 944,1470 943,1469 943,1469"/>
<polygon class="pen1 brush2" points="611,1466 611,1468 611,1472 612,1480 613,1489 617,1499 622,1510 629,1522 639,1533 604,1558 605,1538 584,1545 598,1521 567,1525 587,1501 561,1498 584,1486 567,1474 611,1466 611,1466"/>
<polygon class="pen1 brush2" points="888,1345 923,1315 921,1337 945,1328 931,1349 962,1349 939,1371 965,1376 946,1388 963,1399 919,1409 918,1394 914,1382 909,1371 904,1362 898,1354 893,1349 889,1346 888,1345 888,1345"/>
<polygon class="pen1 brush2" points="554,1342 554,1344 554,1349 555,1356 557,1365 561,1375 566,1387 574,1398 584,1409 547,1435 548,1415 529,1422 541,1398 510,1402 530,1378 506,1373 527,1362 510,1349 554,1342 554,1342"/>
<polygon class="pen1 brush2" points="831,1220 867,1192 865,1212 888,1203 874,1226 905,1226 882,1247 909,1253 889,1264 905,1275 861,1285 860,1270 856,1258 852,1246 846,1237 840,1230 836,1224 832,1221 831,1220 831,1220"/>
<polygon class="pen1 brush2" points="500,1217 500,1219 500,1224 500,1231 502,1240 505,1251 510,1262 517,1273 527,1284 492,1311 493,1290 473,1298 486,1274 455,1277 476,1254 449,1250 472,1237 455,1226 500,1217 500,1217"/>
<polygon class="pen1 brush2" points="776,1095 811,1068 807,1088 832,1079 817,1102 850,1102 825,1122 852,1129 834,1139 850,1152 806,1162 805,1147 801,1133 797,1122 791,1112 785,1105 781,1099 777,1096 776,1095 776,1095"/>
<polygon class="pen1 brush2" points="443,1094 443,1096 443,1100 444,1107 446,1116 449,1127 454,1137 462,1148 473,1159 436,1186 438,1166 416,1173 429,1149 398,1153 419,1129 394,1125 415,1112 398,1102 443,1094 443,1094"/>
<polygon class="pen1 brush2" points="719,973 754,944 752,964 776,956 761,977 794,979 770,998 796,1004 777,1014 794,1027 750,1037 749,1022 745,1010 740,999 735,990 729,982 724,977 720,974 719,973 719,973"/>
<polygon class="pen1 brush2" points="388,970 388,972 388,976 389,983 390,992 394,1002 399,1013 406,1024 416,1035 379,1061 382,1041 361,1048 374,1024 342,1030 362,1004 337,1001 359,990 342,979 388,970 388,970"/>
<polygon class="pen1 brush2" points="662,848 699,819 696,841 719,831 706,854 736,855 713,875 740,881 720,892 737,903 693,913 692,898 688,886 683,874 678,865 672,858 667,852 663,849 662,848 662,848"/>
<polygon class="pen1 brush2" points="331,846 331,848 331,853 332,860 333,869 337,879 342,890 349,901 359,912 324,939 324,919 304,926 317,902 287,906 307,882 280,879 304,865 286,855 331,846 331,846"/>
<polygon class="pen1 brush2" points="607,724 642,696 639,716 663,707 648,730 681,730 656,750 683,757 665,767 681,780 636,790 631,762 622,741 612,728 607,724 607,724"/>
<polygon class="pen1 brush2" points="274,723 274,725 274,729 275,736 277,745 280,755 285,766 293,777 304,788 267,814 269,794 249,801 261,777 229,781 250,757 225,754 246,741 229,730 274,723 274,723"/>
<polygon class="pen1 brush2" points="550,601 585,571 582,591 608,584 592,605 625,605 601,626 628,632 608,643 625,656 581,666 580,651 576,638 571,627 566,617 560,610 555,605 551,602 550,601 550,601"/>
<polygon class="pen1 brush2" points="219,598 219,600 219,604 220,611 221,620 225,631 230,641 237,652 247,663 210,690 213,669 192,677 205,653 173,658 195,633 169,629 190,616 173,605 219,598 219,598"/>
<polygon class="pen1 brush2" points="494,476 530,447 527,467 550,460 537,481 568,481 544,503 571,508 551,518 568,531 524,541 523,526 519,514 515,502 509,493 503,486 499,480 495,477 494,476 494,476"/>
<polygon class="pen1 brush2" points="162,473 162,475 162,479 163,487 165,496 168,506 173,517 181,529 192,540 155,567 156,545 135,552 148,530 118,534 138,510 112,506 135,493 118,481 162,473 162,473"/>
<polygon class="pen1 brush2" points="439,352 475,322 472,344 496,335 482,356 511,358 490,379 514,385 496,395 513,406 469,416 468,401 464,389 460,378 454,369 448,361 444,356 440,353 439,352 439,352"/>
<polygon class="pen1 brush2" points="105,349 105,351 105,356 106,363 108,372 112,382 117,394 125,405 135,416 98,442 100,422 80,429 92,405 61,409 81,385 56,382 78,369 61,358 105,349 105,349"/>
<polygon class="pen1 brush2" points="382,227 418,199 415,220 439,210 425,233 456,233 432,254 459,260 440,271 457,283 412,293 411,278 407,265 403,253 397,244 391,237 387,231 383,228 382,227 382,227"/>
<polygon class="pen1 brush2" points="50,226 50,228 50,232 51,239 52,248 56,259 61,269 68,280 78,291 41,318 44,298 23,304 37,281 4,284 26,260 0,257 21,244 4,233 50,226 50,226"/>
<polygon class="pen1 brush2" points="327,104 361,75 358,95 384,87 368,108 401,108 377,129 404,135 385,146 401,159 357,169 356,154 352,141 348,130 342,120 336,113 332,108 328,105 327,104 327,104"/>
<polygon class="pen1 brush2" points="919,1985 912,1936 916,1936 926,1936 942,1934 962,1930 984,1923 1008,1911 1032,1895 1054,1872 1080,1909 1057,1906 1065,1933 1041,1924 1044,1951 1021,1941 1023,1966 1000,1953 996,1975 977,1958 973,1982 952,1965 946,1987 932,1968 919,1985"/>
<polygon class="pen1 brush0" points="173,216 172,215 171,211 170,205 169,198 170,190 173,182 179,174 188,168 198,164 207,164 215,167 222,171 227,176 230,181 233,185 233,186 230,191 227,194 224,196 220,196 216,196 211,196 207,197 202,199 196,204 191,210 184,216 173,216"/>
<polygon class="pen1 brush0" points="246,210 247,211 248,216 250,221 251,229 250,237 248,245 242,252 233,258 222,262 213,262 205,260 198,255 193,250 189,245 187,242 186,240 189,235 192,232 196,230 200,230 204,230 208,230 213,230 217,229 223,223 228,216 235,210 246,210"/>
</g>
</svg>
