<?xml version="1.0" encoding="UTF-8" standalone="no"?>
<!DOCTYPE svg PUBLIC "-//W3C//DTD SVG 1.0//EN" "http://www.w3.org/TR/2001/REC-SVG-20010904/DTD/svg10.dtd">
<svg xmlns="http://www.w3.org/2000/svg" xmlns:xlink="http://www.w3.org/1999/xlink" fill-rule="evenodd" height="1.875in" preserveAspectRatio="none" stroke-linecap="round" viewBox="0 0 2005 1875" width="2.005in">
<style type="text/css">
.brush0 { fill: rgb(255,255,255); }
.pen0 { stroke: rgb(0,0,0); stroke-width: 1; stroke-linejoin: round; }
.brush1 { fill: none; }
.pen1 { stroke: none; }
.brush2 { fill: rgb(0,0,0); }
</style>
<g>
<polygon class="pen1 brush2" points="1784,1188 1786,1193 1790,1206 1799,1225 1812,1249 1830,1273 1854,1297 1883,1318 1918,1334 1917,1347 1914,1383 1911,1435 1910,1498 1912,1566 1918,1633 1931,1694 1951,1742 1948,1744 1940,1749 1929,1758 1916,1771 1904,1789 1893,1812 1886,1841 1885,1875 1777,1875 1778,1872 1779,1865 1783,1855 1788,1843 1794,1831 1803,1819 1814,1810 1827,1805 1831,1799 1835,1791 1840,1781 1846,1770 1851,1757 1857,1743 1863,1728 1868,1713 1866,1705 1861,1682 1852,1648 1841,1607 1828,1563 1813,1519 1797,1478 1780,1445 1747,1424 1714,1401 1682,1376 1651,1350 1621,1321 1591,1291 1563,1260 1537,1227 1511,1193 1488,1158 1465,1122 1445,1086 1426,1049 1409,1012 1395,974 1382,936 1387,972 1394,1009 1404,1047 1416,1085 1431,1122 1448,1157 1467,1190 1489,1220 1488,1220 1484,1221 1478,1222 1470,1223 1460,1225 1448,1227 1435,1230 1421,1233 1405,1237 1388,1241 1370,1247 1351,1252 1332,1259 1313,1267 1294,1275 1274,1284 1254,1292 1232,1298 1208,1302 1183,1304 1157,1305 1131,1304 1104,1302 1077,1299 1050,1295 1023,1290 997,1285 973,1279 949,1273 927,1266 907,1259 889,1253 885,1268 874,1308 859,1369 843,1445 828,1532 818,1623 814,1715 821,1802 819,1803 813,1805 806,1810 797,1817 789,1827 783,1839 779,1854 780,1873 672,1873 672,1871 674,1864 676,1855 681,1842 689,1828 700,1813 715,1798 734,1783 702,1213 693,1198 684,1184 673,1170 662,1156 650,1142 637,1129 623,1116 609,1104 594,1093 579,1083 564,1073 548,1065 532,1058 516,1052 499,1047 483,1044 493,1076 501,1110 507,1145 509,1179 505,1172 499,1165 492,1159 485,1153 477,1148 469,1143 460,1139 453,1135 453,1135 454,1135 455,1136 455,1138 456,1138 457,1150 459,1171 461,1199 462,1233 455,1218 447,1203 438,1189 429,1174 420,1161 410,1147 399,1135 388,1122 392,1140 393,1159 393,1178 391,1196 384,1175 375,1152 365,1130 353,1107 340,1085 325,1064 309,1043 292,1024 274,1007 255,992 234,980 213,971 190,964 167,962 143,963 118,969 117,970 113,972 108,976 101,980 93,985 83,990 73,994 63,997 52,1000 41,1000 31,999 23,995 15,988 9,978 5,964 3,946 2,931 3,917 6,904 12,892 22,881 37,870 58,859 85,847 89,845 99,841 113,834 129,827 145,819 160,812 171,807 176,804 190,794 204,782 218,768 234,753 251,739 270,726 292,716 317,709 326,672 292,676 261,675 232,671 204,663 179,652 156,637 135,621 117,601 100,580 86,556 73,531 63,505 55,477 49,449 45,420 43,391 65,434 86,463 105,478 122,481 135,470 146,448 153,412 155,365 172,411 189,442 206,459 221,462 234,453 246,430 256,395 263,348 263,359 263,388 265,430 271,477 282,523 301,561 329,583 368,584 407,559 427,515 430,459 423,395 407,331 389,272 372,224 360,192 366,201 382,222 405,246 431,266 457,272 479,257 494,210 499,125 504,137 518,166 539,199 563,224 587,229 610,202 629,129 641,0 643,15 651,51 662,96 678,138 698,165 721,164 748,123 777,30 785,83 787,135 783,186 775,235 762,282 745,327 723,371 698,413 669,452 636,490 601,524 563,557 523,587 481,614 437,638 391,659 401,692 402,692 404,691 407,690 412,688 418,686 426,684 435,681 445,678 456,675 468,672 482,669 496,666 512,663 529,660 547,658 566,655 569,653 576,649 588,642 605,633 626,623 652,614 681,605 714,597 751,591 791,587 834,587 880,591 929,600 981,614 1035,635 1091,662 1098,664 1110,667 1125,668 1144,670 1166,671 1191,671 1219,672 1248,672 1279,671 1311,670 1344,669 1378,667 1412,665 1445,662 1478,659 1510,655 1540,652 1567,652 1593,653 1616,656 1638,661 1657,667 1676,674 1693,682 1708,690 1723,699 1736,709 1749,718 1762,727 1774,735 1785,743 1797,750 1799,749 1803,748 1810,746 1819,743 1830,739 1843,736 1857,732 1873,729 1889,726 1906,723 1923,721 1940,720 1958,721 1974,722 1990,725 2005,730 2004,730 2000,732 1994,734 1987,736 1977,740 1966,744 1955,749 1942,754 1928,760 1915,767 1901,773 1887,781 1873,788 1861,796 1849,804 1838,813 1859,860 1873,909 1878,959 1876,1009 1865,1058 1846,1105 1819,1149 1784,1188"/>
<polygon class="pen1 brush2" points="1674,1471 1687,1506 1699,1542 1709,1578 1719,1612 1726,1642 1732,1666 1736,1681 1737,1687 1732,1702 1726,1717 1720,1731 1715,1744 1709,1755 1704,1765 1700,1773 1696,1779 1683,1784 1672,1793 1663,1805 1657,1817 1652,1829 1648,1839 1647,1846 1646,1849 1754,1849 1755,1815 1762,1786 1773,1763 1785,1745 1798,1732 1809,1723 1817,1718 1820,1716 1810,1697 1802,1675 1795,1651 1790,1624 1786,1596 1783,1567 1781,1538 1780,1508 1776,1500 1772,1493 1768,1487 1764,1481 1761,1475 1756,1469 1751,1462 1745,1453 1731,1443 1717,1434 1703,1424 1688,1414 1674,1404 1659,1393 1645,1382 1630,1370 1615,1357 1600,1344 1584,1330 1568,1315 1552,1298 1536,1281 1519,1262 1502,1242 1496,1243 1489,1243 1482,1244 1475,1245 1468,1246 1461,1248 1455,1250 1450,1254 1455,1264 1462,1275 1471,1287 1482,1300 1494,1314 1507,1329 1521,1344 1537,1359 1553,1375 1569,1390 1587,1406 1604,1420 1622,1434 1639,1448 1657,1460 1674,1471"/>
<polygon class="pen1 brush2" points="622,1161 665,1750 646,1765 631,1780 620,1795 612,1809 607,1822 605,1831 603,1838 603,1840 650,1840 653,1833 657,1825 660,1816 665,1806 671,1797 680,1788 690,1779 703,1772 699,1681 692,1508 685,1329 678,1226 673,1217 666,1208 659,1200 652,1191 644,1183 636,1175 629,1167 622,1161"/>
<polygon class="pen1 brush0" points="307,842 313,841 319,840 325,837 330,833 334,828 337,823 339,817 340,811 339,804 337,798 334,792 330,787 325,783 319,780 313,778 307,777 301,778 295,780 289,783 284,787 280,792 277,798 275,804 274,811 275,817 277,823 280,828 284,833 289,837 295,840 301,841 307,842"/>
</g>
</svg>
