<?xml version="1.0" encoding="UTF-8" standalone="no"?>
<!DOCTYPE svg PUBLIC "-//W3C//DTD SVG 1.0//EN" "http://www.w3.org/TR/2001/REC-SVG-20010904/DTD/svg10.dtd">
<svg xmlns="http://www.w3.org/2000/svg" xmlns:xlink="http://www.w3.org/1999/xlink" fill-rule="evenodd" height="1.055in" preserveAspectRatio="none" stroke-linecap="round" viewBox="0 0 1977 1055" width="1.977in">
<style type="text/css">
.brush0 { fill: rgb(255,255,255); }
.pen0 { stroke: rgb(0,0,0); stroke-width: 1; stroke-linejoin: round; }
.brush1 { fill: none; }
.pen1 { stroke: none; }
.brush2 { fill: rgb(0,0,0); }
</style>
<g>
<polygon class="pen1 brush2" points="167,669 155,660 137,647 116,632 93,613 68,594 46,574 25,553 9,534 9,534 9,534 9,533 8,532 8,531 7,527 10,523 16,521 25,519 37,520 52,522 69,527 88,534 88,534 91,535 94,536 97,538 99,540 92,534 92,534 11,479 13,470 16,457 21,441 28,423 37,402 49,380 64,357 83,333 106,310 134,287 166,265 205,244 249,225 300,209 358,196 423,187 446,156 474,179 494,151 525,169 546,142 578,162 595,131 626,151 644,119 677,143 701,111 732,131 733,130 737,127 744,123 752,118 763,111 776,104 790,95 806,86 824,77 843,68 863,58 885,49 907,40 930,31 954,24 978,17 989,15 999,13 1010,11 1021,9 1031,8 1042,7 1053,6 1063,5 1074,5 1084,5 1095,6 1105,7 1115,8 1126,10 1136,12 1146,14 1144,15 1137,19 1128,24 1116,32 1103,41 1089,52 1075,64 1063,77 1051,91 1043,106 1038,122 1037,138 1041,154 1052,171 1069,187 1093,203 1105,209 1120,216 1136,223 1155,232 1175,242 1197,254 1219,266 1243,281 1266,297 1289,316 1313,336 1335,359 1357,384 1377,412 1396,443 1413,476 1474,497 1478,495 1490,491 1508,483 1532,474 1561,462 1595,449 1632,436 1671,422 1712,407 1754,393 1796,380 1837,368 1877,358 1914,350 1947,344 1977,341 1976,342 1972,346 1965,352 1957,360 1947,370 1935,382 1921,395 1906,409 1891,424 1874,439 1857,455 1840,471 1822,488 1805,504 1788,519 1772,534 1772,534 1760,546 1748,557 1737,567 1727,576 1717,584 1709,591 1703,597 1697,601 1703,605 1711,615 1721,629 1732,647 1744,668 1758,692 1771,717 1785,744 1799,771 1813,798 1827,824 1839,849 1851,871 1861,891 1869,907 1876,919 1871,916 1858,908 1837,895 1810,879 1778,859 1742,837 1703,813 1663,788 1622,763 1582,738 1544,714 1510,691 1480,671 1455,654 1437,641 1427,632 1369,635 1368,638 1365,644 1361,653 1354,665 1345,679 1334,694 1320,711 1304,729 1285,747 1264,765 1240,783 1212,800 1182,815 1149,829 1112,840 1072,849 1059,852 1046,856 1032,862 1019,868 1006,875 995,884 985,894 977,905 971,918 968,933 969,949 973,966 982,986 995,1007 1014,1030 1038,1055 1037,1055 1034,1055 1029,1054 1021,1053 1013,1051 1002,1049 990,1046 977,1042 962,1038 946,1032 929,1026 911,1019 893,1010 873,1000 853,989 833,977 820,968 806,957 792,946 779,935 765,922 751,909 737,895 724,881 722,881 715,880 706,878 693,875 677,872 659,869 639,865 619,860 597,856 575,850 553,845 532,839 513,833 495,827 478,821 465,815 464,824 464,849 470,885 484,929 480,928 467,924 449,915 427,901 402,880 376,851 352,812 330,763 323,759 311,754 295,747 277,739 257,730 237,720 218,708 200,695 213,692 225,688 236,685 246,682 254,679 260,677 264,676 265,675 211,652 209,653 204,655 197,658 189,661 180,664 173,667 169,669 167,669"/>
<polygon class="pen1 brush0" points="140,480 150,478 158,473 164,466 166,456 164,445 158,436 150,431 140,429 130,431 121,436 115,445 113,456 115,466 121,473 130,478 140,480"/>
<polygon class="pen1 brush0" points="323,460 338,452 357,446 378,441 403,438 430,436 460,436 492,437 526,439 561,443 598,447 637,452 676,458 716,465 757,472 798,480 839,489 880,497 920,506 960,515 999,525 1037,534 1073,543 1108,552 1141,560 1172,568 1200,576 1226,583 1249,589 1269,594 1286,599 1299,602 1309,605 1283,631 1256,655 1229,677 1202,697 1175,716 1148,733 1120,749 1092,762 1064,775 1035,785 1006,794 976,802 946,808 916,812 885,816 854,817 822,818 789,817 757,814 723,811 689,806 654,800 618,792 582,784 545,774 508,763 469,751 430,738 390,724 349,708 308,692 265,675 211,652 217,650 232,645 253,634 276,617 299,593 316,559 326,515 323,460"/>
<polygon class="pen1 brush2" points="393,609 416,621 437,634 455,647 471,661 484,675 495,690 503,706 508,723 492,727 485,710 477,694 467,679 455,665 441,653 425,640 407,628 387,616 389,615 390,613 391,611 393,609 393,609"/>
<polygon class="pen1 brush2" points="406,578 406,580 406,583 406,586 406,588 419,591 432,594 444,597 456,601 468,605 479,608 491,613 502,617 512,622 523,628 534,634 544,640 555,648 566,655 577,664 588,673 609,666 593,655 578,645 564,636 551,628 539,622 528,615 517,610 506,605 495,601 484,597 473,593 461,590 449,587 435,584 421,581 406,578 406,578"/>
<polygon class="pen1 brush2" points="396,551 397,553 398,556 399,559 400,561 420,563 438,564 455,566 471,567 486,569 501,571 516,574 530,577 545,580 559,584 575,589 590,595 607,602 624,610 643,619 663,629 681,619 661,609 643,600 625,592 609,585 593,579 577,574 562,570 547,566 531,563 515,560 498,558 480,556 462,555 441,554 420,552 396,551 396,551"/>
<polygon class="pen1 brush2" points="375,531 391,530 407,529 422,529 438,528 454,528 471,528 488,528 506,529 524,530 544,531 564,533 586,536 610,539 635,543 661,548 690,554 677,568 653,563 632,558 612,554 593,551 576,548 559,545 543,543 527,541 512,540 496,539 479,538 462,538 444,538 424,538 403,538 380,538 378,537 377,535 376,533 375,531"/>
</g>
</svg>
