<?xml version="1.0" encoding="UTF-8" standalone="no"?>
<!DOCTYPE svg PUBLIC "-//W3C//DTD SVG 1.0//EN" "http://www.w3.org/TR/2001/REC-SVG-20010904/DTD/svg10.dtd">
<svg xmlns="http://www.w3.org/2000/svg" xmlns:xlink="http://www.w3.org/1999/xlink" fill-rule="evenodd" height="1.994in" preserveAspectRatio="none" stroke-linecap="round" viewBox="0 0 1529 1994" width="1.529in">
<style type="text/css">
.brush0 { fill: rgb(255,255,255); }
.pen0 { stroke: rgb(0,0,0); stroke-width: 1; stroke-linejoin: round; }
.brush1 { fill: none; }
.pen1 { stroke: none; }
.brush2 { fill: rgb(0,0,0); }
</style>
<g>
<polygon class="pen1 brush2" points="442,291 455,272 458,240 453,201 445,158 437,116 434,80 439,53 456,41 468,41 480,46 492,54 503,66 514,79 525,95 536,111 547,128 558,146 569,162 580,178 592,191 603,203 615,211 628,216 641,216 661,203 669,177 670,142 668,103 668,65 673,32 689,9 719,0 736,9 749,34 759,68 768,107 777,146 789,180 804,203 826,210 842,203 855,188 865,165 874,138 882,109 892,80 903,53 918,31 924,25 930,20 936,16 944,13 952,12 960,11 969,12 979,14 998,29 1002,57 997,94 988,134 980,176 976,215 983,246 1005,267 1020,270 1033,268 1045,260 1056,248 1066,233 1076,216 1085,197 1094,178 1103,158 1112,140 1122,123 1133,109 1144,99 1156,93 1170,93 1185,98 1199,109 1207,122 1211,137 1210,154 1205,172 1199,191 1190,211 1180,231 1170,252 1161,272 1154,291 1148,310 1146,327 1147,343 1153,357 1165,369 1179,376 1194,377 1208,373 1223,364 1237,352 1252,337 1266,320 1281,303 1296,286 1311,271 1325,258 1340,247 1355,241 1370,240 1386,245 1401,257 1408,269 1410,283 1405,299 1397,317 1385,336 1371,357 1355,378 1338,401 1321,423 1305,446 1292,469 1281,491 1274,512 1271,533 1274,552 1283,569 1286,568 1293,564 1305,559 1320,552 1337,545 1357,538 1378,531 1400,524 1422,520 1444,517 1464,516 1483,519 1498,525 1511,535 1519,549 1523,569 1522,584 1516,597 1505,608 1492,617 1476,625 1458,631 1438,638 1418,644 1398,650 1378,656 1360,664 1343,672 1329,682 1318,693 1311,707 1309,723 1311,735 1318,743 1329,749 1342,752 1359,754 1377,755 1396,755 1416,754 1435,754 1454,755 1472,757 1488,761 1501,767 1511,776 1517,789 1519,805 1516,822 1508,835 1497,846 1483,854 1467,861 1449,865 1430,868 1410,870 1390,872 1371,873 1353,874 1336,876 1321,878 1310,881 1301,886 1297,893 1296,905 1300,916 1309,925 1320,933 1334,940 1350,946 1367,953 1385,959 1402,967 1417,975 1431,984 1443,995 1450,1008 1454,1023 1453,1040 1446,1061 1436,1080 1423,1091 1410,1098 1395,1099 1380,1096 1363,1091 1347,1083 1330,1073 1314,1064 1298,1054 1283,1046 1268,1040 1255,1037 1244,1038 1234,1044 1226,1055 1221,1069 1221,1083 1224,1097 1230,1110 1238,1123 1248,1135 1259,1148 1270,1160 1281,1173 1290,1185 1298,1197 1303,1210 1305,1222 1304,1235 1298,1248 1287,1261 1273,1272 1260,1277 1246,1278 1233,1276 1219,1270 1206,1262 1193,1252 1180,1241 1168,1230 1156,1219 1145,1208 1134,1200 1124,1193 1114,1190 1105,1190 1097,1194 1089,1214 1091,1244 1099,1281 1108,1320 1114,1359 1111,1392 1095,1417 1062,1430 1036,1425 1017,1407 1003,1380 992,1349 981,1319 967,1296 948,1283 922,1287 898,1305 883,1331 875,1362 870,1395 863,1426 851,1452 831,1470 799,1477 769,1470 754,1453 751,1428 754,1399 759,1370 759,1345 751,1326 729,1318 715,1319 702,1324 691,1332 681,1343 672,1356 663,1370 656,1386 648,1401 640,1417 632,1431 623,1445 613,1456 602,1464 590,1469 576,1470 560,1467 535,1451 527,1428 531,1400 540,1370 551,1340 558,1313 555,1291 539,1277 526,1275 513,1277 500,1283 487,1292 474,1304 460,1317 446,1331 432,1346 418,1360 404,1374 390,1385 376,1394 362,1399 348,1401 333,1398 319,1389 308,1377 302,1364 301,1351 304,1337 311,1322 320,1307 331,1292 343,1277 355,1262 367,1248 377,1233 386,1220 392,1207 394,1194 392,1183 385,1173 375,1166 363,1164 351,1166 338,1171 323,1179 308,1188 293,1199 277,1210 261,1220 245,1229 229,1236 213,1240 198,1241 183,1237 168,1228 154,1214 144,1197 140,1182 141,1168 146,1155 155,1143 166,1132 180,1121 195,1110 209,1100 224,1089 237,1078 248,1067 256,1055 261,1042 261,1029 256,1014 247,1001 237,993 225,989 212,988 197,989 182,992 167,997 151,1002 135,1007 120,1012 105,1015 90,1016 77,1015 65,1010 55,1001 46,988 41,974 41,961 45,950 53,941 64,932 77,924 92,916 107,908 123,900 139,891 154,882 167,872 178,860 186,847 191,832 191,815 187,799 180,786 170,777 158,771 144,767 129,764 113,763 97,762 81,762 66,761 52,759 39,756 29,750 21,742 17,732 16,717 19,702 25,691 35,683 48,676 62,671 79,668 97,664 115,661 134,658 153,653 171,647 187,639 202,628 215,614 225,596 232,574 231,565 225,557 215,549 200,543 184,536 165,530 144,524 124,518 103,511 83,504 66,496 50,487 38,476 30,464 27,451 30,436 38,422 49,413 63,408 79,407 97,408 117,412 138,417 159,423 180,429 202,435 222,440 242,443 259,444 275,442 289,436 299,426 305,413 306,399 303,384 297,368 289,352 279,336 268,319 256,301 245,284 234,267 226,250 220,234 217,218 219,202 225,188 236,174 250,164 265,160 279,161 294,166 308,175 322,188 335,202 349,217 362,233 375,249 387,263 399,276 411,286 422,292 432,294 442,291"/>
<polygon class="pen1 brush2" points="269,1234 269,1287 266,1342 261,1400 253,1460 265,1467 281,1476 298,1486 318,1495 338,1505 360,1514 382,1522 404,1528 401,1529 391,1530 376,1530 356,1529 332,1525 306,1518 278,1505 249,1487 246,1504 242,1522 238,1539 234,1555 229,1572 224,1588 218,1603 212,1619 221,1625 233,1632 247,1640 264,1649 284,1659 307,1669 331,1679 359,1690 388,1699 420,1709 455,1717 491,1724 529,1730 570,1734 613,1737 657,1737 654,1738 647,1739 634,1741 618,1743 597,1744 572,1746 544,1746 513,1746 497,1745 480,1744 462,1742 444,1740 425,1737 406,1733 387,1729 367,1724 346,1719 325,1712 304,1705 283,1697 261,1688 240,1679 218,1668 196,1656 188,1679 182,1701 179,1723 178,1743 179,1762 183,1781 188,1798 196,1815 206,1831 218,1846 231,1860 246,1873 263,1885 281,1897 301,1908 323,1918 345,1927 369,1936 394,1944 420,1951 446,1957 474,1962 503,1967 532,1972 562,1975 592,1978 623,1980 655,1982 686,1983 718,1983 750,1983 782,1982 815,1981 847,1979 879,1976 911,1973 942,1969 973,1964 1003,1959 1032,1953 1061,1946 1088,1939 1115,1931 1140,1922 1164,1912 1187,1902 1208,1890 1227,1878 1245,1865 1262,1852 1276,1837 1289,1821 1299,1805 1308,1787 1314,1769 1318,1750 1319,1729 1318,1708 1315,1686 1309,1662 1300,1638 1288,1612 1273,1586 1255,1558 1232,1570 1208,1581 1184,1589 1161,1596 1137,1601 1115,1605 1094,1608 1074,1610 1055,1611 1038,1612 1023,1611 1010,1611 999,1610 992,1610 987,1609 985,1609 1008,1608 1030,1607 1052,1604 1072,1601 1092,1597 1110,1592 1128,1587 1145,1581 1161,1575 1176,1568 1190,1561 1203,1555 1215,1548 1226,1541 1237,1534 1246,1528 1239,1497 1233,1467 1228,1438 1225,1408 1221,1379 1219,1351 1217,1322 1215,1294 1198,1282 1182,1267 1166,1251 1152,1235 1139,1221 1127,1211 1117,1207 1108,1210 1105,1232 1111,1264 1120,1302 1128,1341 1131,1380 1123,1413 1102,1437 1062,1450 1028,1447 1006,1429 991,1402 981,1371 972,1341 961,1317 946,1303 922,1305 900,1324 891,1350 888,1381 887,1414 883,1444 869,1470 842,1488 796,1494 759,1488 741,1471 735,1446 738,1418 744,1389 747,1363 743,1345 725,1336 714,1337 705,1341 696,1350 687,1361 679,1375 672,1391 663,1407 655,1423 646,1439 636,1454 625,1467 613,1477 599,1484 583,1487 566,1485 546,1478 518,1463 507,1442 507,1417 516,1389 527,1360 538,1334 542,1311 536,1294 523,1292 510,1295 497,1301 484,1310 470,1322 457,1336 443,1350 429,1365 415,1379 400,1392 386,1404 371,1412 357,1417 342,1419 327,1415 312,1406 298,1393 289,1379 285,1365 286,1350 291,1334 298,1319 307,1304 318,1288 330,1273 341,1259 352,1245 361,1232 368,1219 372,1208 372,1198 368,1190 358,1184 348,1183 337,1186 326,1192 313,1201 300,1212 285,1223 269,1234"/>
<polygon class="pen1 brush0" points="617,510 622,500 622,485 620,466 616,445 613,425 612,407 615,394 624,388 636,390 647,400 658,414 668,431 678,447 689,461 700,469 712,470 724,462 729,448 729,431 727,411 726,392 727,376 734,364 749,359 760,364 767,376 772,393 777,413 781,432 786,449 793,460 803,464 813,458 820,445 826,427 832,408 839,389 849,374 863,366 881,366 890,374 892,388 889,407 885,427 881,448 879,467 882,482 892,491 904,488 914,477 923,460 933,441 943,423 954,409 968,402 983,406 994,418 995,435 989,455 979,477 968,499 961,519 959,535 966,547 979,549 994,540 1009,525 1025,508 1041,491 1058,479 1074,476 1091,484 1096,498 1091,519 1079,542 1063,568 1046,592 1032,614 1023,630 1023,640 1032,642 1047,639 1066,633 1087,626 1107,621 1124,621 1136,628 1140,645 1136,660 1124,670 1107,677 1088,683 1069,689 1053,695 1041,705 1036,718 1040,727 1052,731 1067,732 1086,731 1104,731 1121,734 1133,742 1138,757 1134,771 1123,781 1107,787 1089,790 1069,792 1052,793 1039,795 1033,798 1033,809 1042,818 1058,825 1077,833 1096,842 1110,853 1118,868 1114,888 1103,903 1088,907 1072,903 1056,894 1040,884 1025,877 1012,876 1003,885 1001,899 1005,912 1014,924 1025,937 1036,949 1042,961 1043,974 1035,987 1021,995 1008,994 995,987 982,977 970,966 958,956 948,952 939,954 935,964 936,978 940,997 945,1016 948,1036 946,1053 938,1065 921,1072 908,1069 899,1060 893,1046 887,1030 882,1015 875,1004 866,998 853,1000 841,1009 833,1022 829,1037 826,1053 823,1068 817,1080 807,1089 790,1092 775,1089 768,1080 767,1068 769,1054 771,1040 771,1028 767,1018 756,1014 743,1018 732,1028 723,1042 716,1057 708,1072 698,1084 686,1090 671,1089 658,1081 654,1070 656,1056 661,1041 667,1026 670,1012 669,1001 661,994 648,994 635,1002 621,1014 608,1029 594,1043 579,1053 565,1057 550,1051 542,1038 543,1025 551,1010 563,995 575,980 584,966 588,954 584,944 573,940 561,943 546,951 531,962 515,971 499,977 483,975 469,964 461,949 464,935 474,924 488,913 503,902 515,891 521,879 519,865 510,854 497,851 483,854 467,858 451,863 437,866 424,863 415,852 412,838 418,828 430,819 445,811 461,803 474,793 484,780 486,764 481,750 470,742 456,739 440,738 425,738 412,735 403,729 400,716 405,703 418,695 435,690 455,686 475,682 494,676 508,666 515,649 511,641 498,635 481,629 461,623 442,615 427,606 418,594 418,578 427,567 442,563 460,564 481,569 502,575 521,579 536,580 546,574 548,562 544,548 535,532 525,516 516,499 510,483 510,467 519,453 533,445 548,448 562,458 575,472 588,487 599,501 609,509 617,510"/>
<polygon class="pen1 brush2" points="621,514 627,505 629,490 626,472 623,451 619,431 617,414 619,402 627,396 639,398 649,408 658,422 668,439 677,456 688,469 699,477 713,477 726,468 732,453 733,435 731,415 730,397 731,382 738,371 752,368 760,373 765,385 769,402 773,421 777,440 783,456 791,467 803,470 814,464 822,451 828,434 834,415 841,396 850,381 861,373 877,373 885,381 886,394 884,412 879,432 875,453 874,472 877,487 888,497 902,497 913,488 924,472 933,453 943,434 953,419 965,411 979,413 989,424 990,440 984,460 974,480 964,502 956,521 954,538 962,551 976,555 991,547 1007,533 1023,516 1038,500 1054,487 1069,483 1084,491 1088,504 1082,523 1070,546 1055,570 1038,595 1025,617 1017,634 1017,646 1026,649 1041,646 1060,640 1080,632 1099,626 1116,625 1128,630 1133,646 1129,659 1118,668 1101,675 1082,681 1063,687 1046,694 1035,704 1030,718 1034,728 1046,732 1062,734 1081,733 1100,734 1116,736 1127,744 1131,757 1126,772 1113,781 1097,786 1079,788 1060,790 1044,791 1031,793 1026,798 1028,809 1038,818 1054,825 1072,833 1090,841 1103,852 1110,866 1107,885 1096,899 1083,902 1068,898 1053,889 1037,880 1022,873 1009,873 999,882 996,896 1000,909 1009,922 1019,934 1029,946 1036,958 1037,971 1029,983 1017,991 1004,989 992,982 980,972 969,961 958,951 947,947 937,950 932,959 932,974 936,992 940,1011 943,1030 942,1046 935,1059 919,1065 907,1062 899,1053 893,1040 888,1025 883,1010 876,999 866,993 851,994 838,1002 830,1014 826,1029 824,1045 821,1060 816,1073 807,1082 792,1085 778,1082 771,1074 770,1062 772,1049 774,1035 773,1023 768,1014 756,1010 741,1012 730,1021 722,1034 715,1050 708,1065 699,1077 689,1083 675,1082 663,1075 660,1064 661,1050 666,1036 671,1021 674,1007 672,996 664,988 651,988 637,995 624,1008 610,1022 597,1036 583,1047 570,1051 556,1045 548,1034 549,1021 557,1007 569,993 581,979 590,965 593,952 587,940 576,935 564,938 550,946 534,956 519,966 503,972 489,971 475,960 468,945 472,933 482,922 496,911 511,900 522,889 527,875 523,859 513,848 500,846 486,848 471,854 456,859 443,862 431,859 422,849 420,837 426,827 437,819 452,811 468,803 482,793 491,780 493,763 488,749 477,741 463,737 447,736 431,736 418,734 408,728 405,716 410,703 423,696 440,692 460,689 480,686 498,679 512,668 520,649 517,641 506,634 489,628 470,622 451,615 436,606 427,596 427,582 436,571 450,568 468,571 488,576 508,582 527,586 542,585 553,578 556,565 552,551 544,536 533,520 523,503 516,488 515,473 523,459 537,452 551,455 564,465 577,479 589,494 601,506 611,514 621,514"/>
<polygon class="pen1 brush0" points="769,815 798,813 825,809 850,801 871,792 889,780 902,766 911,751 914,734 911,717 902,701 889,687 871,674 850,664 825,657 798,652 769,650 740,652 714,657 689,664 668,674 650,687 637,701 628,717 625,734 628,751 637,766 650,780 668,792 689,801 714,809 740,813 769,815"/>
<polygon class="pen1 brush2" points="769,809 796,807 822,803 845,796 865,787 881,776 893,763 901,749 904,734 901,719 893,705 881,692 865,681 845,672 822,665 796,661 769,659 742,661 717,665 694,672 674,681 658,692 646,705 638,719 635,734 638,749 646,763 658,776 674,787 694,796 717,803 742,807 769,809"/>
</g>
</svg>
