<?xml version="1.0" encoding="UTF-8" standalone="no"?>
<!DOCTYPE svg PUBLIC "-//W3C//DTD SVG 1.0//EN" "http://www.w3.org/TR/2001/REC-SVG-20010904/DTD/svg10.dtd">
<svg xmlns="http://www.w3.org/2000/svg" xmlns:xlink="http://www.w3.org/1999/xlink" fill-rule="evenodd" height="2.016in" preserveAspectRatio="none" stroke-linecap="round" viewBox="0 0 1581 2016" width="1.581in">
<style type="text/css">
.brush0 { fill: rgb(255,255,255); }
.pen0 { stroke: rgb(0,0,0); stroke-width: 1; stroke-linejoin: round; }
.brush1 { fill: none; }
.pen1 { stroke: none; }
.brush2 { fill: rgb(0,0,0); }
</style>
<g>
<polygon class="pen1 brush2" points="838,1969 841,1895 842,1761 840,1589 836,1399 828,1214 817,1055 802,945 783,903 763,938 748,1031 737,1168 730,1333 727,1510 727,1685 730,1840 737,1962 749,1937 761,1920 775,1911 789,1909 802,1914 815,1926 827,1944 838,1969 838,1969"/>
<polygon class="pen1 brush2" points="794,7 799,7 807,7 817,7 829,7 842,7 857,8 874,9 893,11 913,14 934,17 956,21 979,26 1004,32 1029,39 1055,48 1081,58 1151,91 1215,130 1272,175 1324,225 1369,279 1410,337 1445,399 1475,465 1501,532 1523,602 1540,674 1554,746 1565,819 1572,892 1576,965 1578,1037 1578,1089 1575,1143 1571,1199 1564,1256 1556,1314 1544,1372 1531,1430 1515,1488 1496,1545 1475,1600 1451,1654 1424,1705 1395,1753 1362,1798 1326,1840 1287,1877 1267,1894 1245,1909 1223,1924 1201,1937 1177,1948 1153,1959 1128,1968 1102,1975 1075,1981 1047,1986 1018,1989 989,1990 959,1989 927,1987 895,1983 862,1977 864,1723 861,1502 853,1315 843,1163 829,1044 814,959 798,908 781,891 765,907 749,958 735,1043 723,1162 715,1315 711,1501 711,1722 716,1977 713,1977 705,1978 693,1980 676,1981 656,1981 632,1981 605,1980 575,1977 543,1972 510,1966 474,1956 438,1944 400,1929 362,1910 325,1887 287,1860 244,1823 206,1782 171,1738 141,1691 114,1642 91,1590 71,1537 54,1483 40,1427 29,1370 20,1313 13,1256 8,1199 5,1143 4,1088 4,1034 6,962 10,889 18,815 29,742 43,669 61,597 83,527 109,459 140,394 176,332 217,274 263,220 315,170 373,126 437,87 507,55 533,45 559,37 584,30 609,24 632,19 654,15 675,12 695,10 714,8 731,7 746,6 759,6 771,6 781,6 789,7 794,7"/>
<polygon class="pen1 brush0" points="454,518 463,514 474,513 488,516 504,523 522,533 540,548 559,566 578,588 596,614 613,645 628,680 642,719 653,762 661,810 665,863 665,920 659,979 648,1036 632,1092 612,1146 588,1197 562,1244 533,1289 503,1329 473,1365 443,1396 414,1423 387,1443 363,1457 341,1465 324,1466 311,1460 305,1446 307,1426 316,1400 331,1369 351,1334 374,1296 400,1256 428,1215 457,1173 485,1131 512,1091 536,1053 557,1018 573,986 583,960 587,939 584,919 577,897 566,872 551,845 535,817 517,787 498,757 480,726 464,695 449,665 437,636 430,608 427,582 429,558 438,536 454,518 454,518"/>
<polygon class="pen1 brush0" points="1115,524 1106,520 1095,519 1081,522 1065,529 1047,539 1029,554 1010,572 991,594 973,620 956,651 940,686 927,725 916,768 909,816 905,869 905,926 910,985 921,1043 937,1099 957,1152 981,1203 1007,1251 1036,1296 1065,1336 1096,1372 1125,1403 1154,1430 1182,1450 1206,1464 1228,1472 1245,1473 1258,1467 1264,1453 1262,1433 1253,1407 1239,1376 1219,1341 1196,1303 1169,1263 1142,1221 1113,1179 1085,1137 1058,1097 1034,1058 1013,1023 997,992 987,965 983,944 986,924 993,902 1004,877 1019,850 1035,822 1053,792 1072,762 1090,731 1106,701 1121,671 1132,642 1140,614 1143,588 1140,564 1131,542 1115,524"/>
</g>
</svg>
