<?xml version="1.0" encoding="UTF-8" standalone="no"?>
<!DOCTYPE svg PUBLIC "-//W3C//DTD SVG 1.0//EN" "http://www.w3.org/TR/2001/REC-SVG-20010904/DTD/svg10.dtd">
<svg xmlns="http://www.w3.org/2000/svg" xmlns:xlink="http://www.w3.org/1999/xlink" fill-rule="evenodd" height="1.417in" preserveAspectRatio="none" stroke-linecap="round" viewBox="0 0 1976 1417" width="1.976in">
<style type="text/css">
.brush0 { fill: rgb(255,255,255); }
.pen0 { stroke: rgb(0,0,0); stroke-width: 1; stroke-linejoin: round; }
.brush1 { fill: none; }
.pen1 { stroke: none; }
.brush2 { fill: rgb(0,0,0); }
</style>
<g>
<polygon class="pen1 brush2" points="68,421 38,394 80,402 83,397 86,391 90,385 94,379 98,373 102,366 106,360 111,353 80,313 125,331 128,327 132,322 136,318 139,313 143,309 147,304 151,299 155,294 131,252 172,276 176,271 181,267 186,262 191,257 196,253 201,248 207,244 212,239 199,194 232,225 237,221 243,216 248,212 253,208 259,205 265,201 271,198 277,195 287,88 321,171 330,167 338,162 347,158 357,154 366,150 376,147 386,143 396,140 435,30 439,127 451,123 463,120 476,117 489,114 502,111 516,109 530,106 544,104 588,6 584,98 595,97 606,95 617,94 629,93 641,92 653,91 666,90 678,90 746,0 713,90 718,89 723,89 728,88 733,88 738,88 743,88 748,88 753,88 759,88 765,88 771,89 777,89 783,89 789,90 795,90 801,90 869,0 835,94 847,96 858,97 870,99 881,101 892,104 903,106 914,108 925,111 1017,23 953,121 964,125 975,129 987,132 998,136 1009,141 1019,145 1030,150 1040,155 1128,71 1064,167 1074,172 1083,176 1092,181 1101,186 1109,191 1118,196 1126,201 1135,206 1216,130 1156,221 1167,228 1177,235 1187,242 1196,249 1206,256 1215,263 1224,269 1233,276 1315,212 1249,290 1262,301 1275,312 1286,322 1296,331 1305,340 1313,348 1321,354 1327,360 1328,359 1331,356 1336,351 1343,344 1352,336 1362,328 1373,318 1386,309 1400,299 1414,289 1430,280 1446,272 1462,265 1479,259 1496,255 1513,253 1498,269 1483,286 1469,302 1456,316 1444,329 1436,338 1430,345 1428,347 1431,344 1440,337 1453,325 1470,311 1488,296 1508,281 1528,267 1547,255 1554,257 1561,259 1568,262 1575,265 1581,269 1587,273 1593,278 1598,283 1581,298 1564,314 1547,328 1532,342 1519,354 1508,363 1501,369 1499,371 1502,369 1510,363 1522,355 1538,344 1556,333 1575,321 1595,309 1615,299 1621,305 1626,311 1631,317 1635,323 1639,329 1643,334 1646,340 1648,346 1632,356 1616,366 1602,375 1589,383 1578,390 1570,395 1565,399 1563,400 1565,399 1571,396 1579,392 1591,387 1604,381 1619,374 1635,367 1652,360 1654,376 1653,391 1649,405 1644,418 1637,429 1630,438 1623,447 1617,453 1636,462 1659,473 1685,486 1712,501 1741,517 1771,534 1802,553 1831,572 1860,593 1887,614 1911,635 1933,657 1951,680 1964,702 1973,724 1976,746 1961,735 1947,724 1933,713 1922,704 1912,697 1904,691 1900,687 1898,686 1900,688 1905,693 1913,701 1923,711 1935,723 1948,737 1961,751 1975,766 1970,788 1964,808 1956,826 1946,841 1930,824 1914,807 1899,791 1885,775 1872,762 1863,752 1856,745 1854,743 1856,746 1862,754 1871,766 1881,781 1893,799 1906,818 1918,838 1929,857 1918,864 1907,869 1894,873 1880,874 1866,873 1851,870 1836,865 1821,857 1819,817 1818,783 1817,759 1817,750 1816,759 1815,781 1811,812 1806,847 1801,843 1797,839 1792,836 1788,831 1783,827 1779,823 1774,818 1770,813 1758,795 1752,775 1750,755 1750,736 1749,717 1747,699 1741,684 1729,671 1712,660 1692,648 1670,638 1647,628 1624,621 1603,615 1585,613 1570,613 1572,614 1579,617 1587,622 1598,629 1608,638 1617,650 1624,663 1628,679 1612,672 1596,666 1582,660 1570,655 1559,650 1551,647 1546,645 1544,644 1546,645 1551,648 1560,653 1571,659 1583,667 1597,676 1612,685 1627,695 1624,708 1618,721 1609,733 1598,742 1584,730 1571,717 1559,706 1549,696 1540,687 1533,680 1529,676 1527,674 1528,676 1532,680 1538,687 1545,696 1554,708 1564,720 1574,734 1584,749 1572,750 1560,748 1549,745 1539,741 1530,737 1523,733 1519,730 1517,729 1516,731 1513,737 1508,746 1501,758 1492,774 1481,791 1469,812 1455,834 1470,842 1487,851 1503,860 1519,869 1533,876 1544,883 1551,887 1554,888 1536,890 1520,891 1505,889 1491,886 1477,883 1463,879 1448,874 1431,870 1425,878 1418,887 1412,897 1405,906 1397,916 1390,926 1382,936 1375,946 1386,959 1399,974 1412,989 1424,1004 1435,1017 1445,1027 1451,1034 1453,1037 1435,1033 1421,1028 1408,1023 1396,1015 1385,1008 1374,999 1362,989 1348,979 1340,989 1332,999 1324,1009 1315,1019 1306,1029 1297,1039 1288,1049 1279,1059 1288,1073 1299,1090 1310,1108 1321,1125 1332,1142 1340,1155 1346,1165 1348,1168 1331,1161 1316,1154 1304,1146 1293,1136 1283,1126 1272,1115 1260,1103 1246,1090 1237,1099 1228,1108 1219,1117 1209,1125 1199,1134 1189,1142 1179,1150 1169,1158 1176,1174 1183,1192 1191,1210 1198,1227 1205,1243 1210,1256 1214,1264 1215,1267 1200,1258 1188,1249 1178,1239 1169,1230 1161,1219 1154,1208 1146,1197 1137,1184 1126,1191 1115,1198 1105,1205 1094,1212 1083,1219 1072,1226 1061,1233 1050,1239 1054,1256 1060,1275 1065,1295 1071,1314 1077,1331 1081,1345 1084,1355 1085,1358 1070,1347 1059,1336 1049,1325 1041,1314 1034,1302 1027,1289 1019,1275 1010,1259 1001,1263 992,1266 983,1270 975,1273 966,1276 957,1279 948,1283 939,1286 945,1320 952,1355 957,1381 959,1392 947,1381 937,1370 929,1359 923,1347 917,1336 912,1324 907,1310 901,1296 890,1298 878,1300 867,1302 856,1303 845,1305 833,1306 822,1306 810,1307 816,1342 822,1378 826,1406 828,1417 814,1404 804,1391 796,1379 789,1366 784,1353 778,1339 772,1323 764,1306 754,1305 743,1304 733,1304 723,1303 713,1302 703,1302 693,1301 683,1300 686,1336 689,1372 691,1401 692,1412 680,1398 670,1385 663,1372 658,1359 653,1345 649,1330 644,1314 638,1296 629,1295 620,1294 610,1293 601,1291 592,1290 582,1289 573,1287 564,1286 566,1322 568,1357 569,1384 570,1395 558,1381 549,1367 543,1354 538,1340 534,1327 530,1313 526,1297 521,1280 511,1278 500,1276 490,1274 480,1272 470,1269 460,1267 450,1265 440,1262 439,1298 439,1334 438,1362 438,1373 427,1357 419,1342 413,1328 409,1314 406,1299 403,1284 399,1267 395,1248 386,1245 378,1242 370,1238 362,1235 354,1232 346,1229 339,1226 331,1222 327,1256 323,1289 321,1313 320,1323 310,1307 304,1293 299,1278 296,1264 294,1250 293,1235 291,1218 288,1199 278,1192 267,1186 257,1178 247,1171 237,1163 228,1155 218,1147 209,1138 204,1170 199,1200 196,1221 195,1229 180,1195 174,1165 172,1133 169,1094 165,1089 161,1083 157,1077 153,1071 149,1065 146,1059 142,1052 138,1046 132,1055 126,1064 121,1073 116,1081 111,1088 108,1093 106,1097 105,1098 106,1082 108,1063 113,1040 121,1012 114,995 107,977 101,958 95,939 86,955 79,969 73,978 71,982 72,967 75,950 81,931 88,908 85,891 82,874 79,858 77,840 68,853 60,865 55,874 53,877 54,860 58,841 65,819 74,790 73,779 73,767 73,755 73,742 65,752 59,761 54,767 53,769 54,754 59,737 65,718 74,695 74,685 74,675 74,664 75,654 23,613 64,577 0,517 10,505 19,494 28,483 36,471 45,459 53,447 60,434 68,421"/>
<polygon class="pen1 brush0" points="199,411 206,410 212,408 218,405 223,401 227,396 230,390 232,384 233,377 232,370 230,364 227,358 223,353 218,349 212,346 206,345 199,344 193,345 187,346 181,349 176,353 172,358 169,364 167,370 166,377 167,384 169,390 172,396 176,401 181,405 187,408 193,410 199,411"/>
<polygon class="pen1 brush0" points="426,310 429,318 432,328 436,339 439,351 441,364 442,377 442,391 441,404 437,417 431,429 422,440 410,449 394,457 375,462 352,465 324,465 327,464 335,461 347,457 362,450 377,443 391,433 403,422 412,409 421,379 425,346 426,321 426,310"/>
<polygon class="pen1 brush0" points="485,358 488,366 492,376 495,388 498,400 500,413 502,427 502,441 500,454 496,467 489,479 480,490 468,499 452,507 433,512 409,515 381,515 384,514 392,511 404,506 419,500 434,492 449,482 461,471 470,459 480,428 484,395 485,369 485,358"/>
<polygon class="pen1 brush0" points="587,605 602,593 617,581 632,569 647,557 662,545 678,532 695,520 713,507 732,494 753,481 776,467 800,454 827,440 856,426 887,412 922,398 916,419 886,432 860,444 836,456 814,466 794,476 776,486 759,496 742,505 727,515 711,526 695,536 678,548 661,560 642,573 621,588 598,604 596,604 593,604 589,605 587,605"/>
<polygon class="pen1 brush0" points="610,627 631,615 650,603 668,593 685,583 701,575 716,567 731,560 746,553 761,547 776,542 792,538 809,534 826,530 846,528 866,525 889,523 878,542 856,544 835,547 816,550 798,553 781,557 766,561 751,565 737,570 723,576 709,582 695,588 681,595 666,603 651,611 634,620 617,630 615,629 613,628 611,628 610,627"/>
<polygon class="pen1 brush0" points="628,651 643,645 656,639 669,634 681,630 693,626 704,623 716,620 727,617 739,615 752,614 765,613 779,612 795,612 811,612 830,612 850,613 834,630 820,628 806,627 792,627 779,626 767,627 754,627 742,629 730,630 718,632 706,635 694,638 682,641 669,645 657,649 644,653 631,658 631,656 630,654 629,653 628,651"/>
<polygon class="pen1 brush0" points="634,688 647,686 660,685 673,684 685,684 696,684 707,684 718,685 729,686 738,688 748,690 757,693 766,696 774,700 782,705 789,710 796,716 783,728 768,718 751,710 734,704 716,699 697,696 676,695 654,695 631,696 631,694 632,692 633,690 634,688"/>
</g>
</svg>
