<?xml version="1.0" encoding="UTF-8" standalone="no"?>
<!DOCTYPE svg PUBLIC "-//W3C//DTD SVG 1.0//EN" "http://www.w3.org/TR/2001/REC-SVG-20010904/DTD/svg10.dtd">
<svg xmlns="http://www.w3.org/2000/svg" xmlns:xlink="http://www.w3.org/1999/xlink" fill-rule="evenodd" height="1.064in" preserveAspectRatio="none" stroke-linecap="round" viewBox="0 0 2072 1064" width="2.072in">
<style type="text/css">
.brush0 { fill: rgb(255,255,255); }
.pen0 { stroke: rgb(0,0,0); stroke-width: 1; stroke-linejoin: round; }
.brush1 { fill: none; }
.pen1 { stroke: none; }
.brush2 { fill: rgb(0,0,0); }
</style>
<g>
<polygon class="pen1 brush2" points="1663,575 1676,585 1692,596 1709,607 1728,618 1748,627 1769,636 1790,642 1812,646 1829,648 1845,650 1861,652 1877,654 1892,656 1906,658 1919,660 1930,662 1939,665 1946,669 1951,673 1954,678 1954,684 1950,692 1944,700 1934,710 1940,713 1953,723 1969,737 1983,753 1990,771 1983,789 1960,805 1913,818 1915,821 1921,829 1926,840 1928,852 1923,864 1908,873 1881,878 1838,877 1838,880 1836,886 1831,893 1821,898 1805,901 1781,896 1748,884 1703,860 1703,863 1701,871 1697,880 1690,886 1679,888 1663,882 1643,864 1616,832 1595,804 1575,777 1556,752 1538,728 1521,706 1505,686 1490,667 1476,650 1496,646 1513,641 1528,634 1541,627 1551,620 1559,614 1563,610 1565,609 1581,607 1596,604 1610,600 1623,596 1635,591 1645,586 1655,580 1663,575 1663,575"/>
<polygon class="pen1 brush2" points="419,210 402,248 395,278 398,301 406,318 416,330 428,338 436,342 440,343 438,376 443,401 454,418 467,429 481,436 494,439 503,440 507,440 511,485 522,519 540,543 560,559 580,568 598,572 611,574 616,574 623,591 632,605 643,617 655,626 669,634 683,640 698,644 713,647 727,650 741,651 754,651 765,651 775,650 782,650 786,649 788,649 797,657 807,662 818,666 831,668 844,669 857,668 871,667 884,665 897,662 910,659 921,655 930,652 939,649 945,647 949,646 950,645 966,654 981,661 997,667 1012,670 1026,672 1040,673 1053,673 1066,672 1077,670 1087,668 1096,665 1104,663 1110,661 1114,659 1117,657 1118,657 1149,668 1177,672 1204,669 1227,663 1247,654 1261,645 1271,639 1274,636 1311,645 1343,648 1369,646 1390,640 1405,633 1416,626 1422,621 1424,619 1452,621 1478,619 1500,612 1518,604 1532,595 1543,587 1549,581 1551,578 1580,573 1605,567 1626,559 1643,551 1656,543 1665,536 1671,531 1672,528 1692,527 1712,523 1730,517 1746,509 1759,501 1769,493 1776,486 1777,481 1816,473 1842,466 1858,458 1867,451 1869,446 1868,441 1866,438 1865,437 1878,428 1887,419 1894,409 1898,401 1901,393 1902,387 1903,383 1903,382 1879,346 1850,311 1818,277 1784,244 1748,212 1711,182 1674,153 1638,127 1603,103 1570,82 1540,63 1513,47 1492,34 1475,25 1465,19 1461,17 1438,28 1416,36 1394,41 1372,44 1351,45 1331,44 1312,42 1295,38 1278,34 1263,29 1250,23 1239,18 1230,12 1224,7 1219,3 1218,0 1193,14 1168,26 1144,34 1121,40 1099,44 1078,46 1059,46 1040,45 1023,42 1008,39 994,35 982,31 972,27 964,23 958,20 954,17 938,26 920,33 901,38 880,41 858,44 836,44 814,44 793,43 772,41 753,38 736,35 720,31 708,27 698,23 692,19 690,15 678,25 663,37 645,50 624,65 603,81 580,97 557,114 534,130 511,146 490,161 471,174 454,186 439,196 428,204 421,208 419,210 419,210"/>
<polygon class="pen1 brush2" points="366,299 365,320 368,337 375,351 383,361 392,368 401,372 407,374 409,375 407,408 412,433 423,450 436,461 450,467 463,470 472,471 476,471 477,495 479,516 484,534 491,549 498,562 507,573 517,582 527,589 515,602 503,614 491,626 479,637 469,646 461,654 456,658 454,660 459,676 466,691 474,705 485,718 496,730 509,741 522,751 537,760 553,769 569,778 586,786 603,794 621,802 638,810 656,818 673,826 690,835 707,843 723,852 739,860 754,869 768,877 781,886 793,895 804,904 813,913 821,922 827,932 831,942 834,952 834,963 832,974 826,990 819,1004 811,1016 803,1026 793,1034 783,1040 772,1045 761,1048 735,1051 708,1049 682,1043 658,1035 636,1027 620,1019 609,1013 605,1011 609,1049 572,1042 538,1033 507,1022 480,1009 456,995 435,980 416,965 401,950 387,935 376,920 367,907 360,896 355,886 352,878 350,874 349,872 338,914 306,884 279,848 257,810 239,772 226,738 218,710 213,691 211,684 173,706 181,659 192,619 205,588 220,563 236,544 253,531 271,522 289,517 306,515 323,516 338,519 352,523 363,527 372,531 377,534 379,535 373,518 364,505 352,495 339,490 325,487 309,487 293,489 277,493 261,498 246,503 232,509 219,515 209,521 201,525 196,528 194,529 182,520 167,513 149,506 131,499 112,494 93,488 76,482 61,476 54,472 47,467 40,461 34,454 28,446 23,438 18,429 14,420 8,400 4,379 3,360 5,342 8,335 12,329 17,322 24,315 31,309 39,303 48,297 58,291 75,281 93,272 112,264 130,257 147,252 163,248 176,245 187,244 192,244 199,246 207,247 216,250 226,253 237,256 249,260 262,264 275,268 288,272 302,277 315,282 328,286 341,291 354,295 366,299"/>
<polygon class="pen1 brush0" points="184,389 190,388 196,387 202,384 207,380 211,376 214,371 216,365 217,359 216,353 214,347 211,342 207,337 202,333 196,330 190,329 184,328 178,329 173,330 168,333 163,337 159,342 156,347 154,353 153,359 154,365 156,371 159,376 163,380 168,384 173,387 178,388 184,389"/>
<polygon class="pen1 brush0" points="1623,338 1510,177 1416,164 1413,167 1403,254 1488,420 1494,416 1407,251 1419,170 1505,183 1619,342 1623,338 1623,338"/>
<polygon class="pen1 brush0" points="1464,426 1459,429 1376,255 1299,214 1261,285 1308,474 1302,477 1254,285 1295,207 1299,207 1382,252 1464,426 1464,426"/>
<polygon class="pen1 brush0" points="1280,488 1230,288 1156,231 1153,233 1099,302 1102,502 1108,502 1105,305 1156,238 1224,291 1274,491 1280,488 1280,488"/>
<polygon class="pen1 brush0" points="1075,511 1075,305 1011,237 1005,237 943,298 910,498 916,500 949,299 1007,244 1068,308 1068,511 1075,511 1075,511"/>
<polygon class="pen1 brush0" points="875,494 869,493 919,301 879,221 805,261 805,261 710,437 706,434 801,255 879,216 883,217 924,298 875,494 875,494"/>
<polygon class="pen1 brush0" points="775,254 680,426 686,429 782,257 771,170 768,167 674,180 559,342 565,345 679,184 765,174 775,254"/>
</g>
</svg>
