<?xml version="1.0" encoding="UTF-8" standalone="no"?>
<!DOCTYPE svg PUBLIC "-//W3C//DTD SVG 1.0//EN" "http://www.w3.org/TR/2001/REC-SVG-20010904/DTD/svg10.dtd">
<svg xmlns="http://www.w3.org/2000/svg" xmlns:xlink="http://www.w3.org/1999/xlink" fill-rule="evenodd" height="0.967in" preserveAspectRatio="none" stroke-linecap="round" viewBox="0 0 1973 967" width="1.973in">
<style type="text/css">
.brush0 { fill: rgb(255,255,255); }
.pen0 { stroke: rgb(0,0,0); stroke-width: 1; stroke-linejoin: round; }
.brush1 { fill: none; }
.pen1 { stroke: none; }
.brush2 { fill: rgb(0,0,0); }
</style>
<g>
<polygon class="pen1 brush2" points="1066,581 1035,599 1035,600 1034,603 1034,608 1035,614 1037,619 1025,623 1021,635 1012,663 1003,695 999,719 1012,720 1005,737 1006,740 1010,747 1016,757 1023,769 1032,783 1041,795 1050,806 1059,814 1069,802 1076,818 1081,818 1093,816 1110,812 1129,805 1149,794 1168,779 1181,758 1188,731 1185,733 1178,739 1168,748 1154,757 1138,766 1121,774 1104,779 1087,780 1076,787 1077,774 1076,773 1073,769 1068,763 1062,755 1056,747 1050,738 1044,729 1040,721 1027,716 1039,706 1041,696 1047,674 1053,648 1060,629 1050,619 1063,616 1063,613 1065,604 1066,593 1066,581 1066,581"/>
<polygon class="pen1 brush2" points="968,614 985,615 989,620 996,633 1002,651 1002,669 1001,671 998,678 992,688 985,700 975,713 962,728 948,741 931,754 928,754 924,756 919,758 917,760 921,771 919,780 915,799 910,820 908,832 898,839 914,846 914,850 914,860 914,875 915,893 918,912 924,932 933,951 945,967 942,965 934,959 923,949 910,936 896,920 883,902 873,881 867,859 880,841 867,838 869,828 873,805 880,779 887,758 900,753 900,737 903,734 910,727 921,716 934,704 947,691 960,678 971,668 979,662 977,658 974,647 970,632 968,614 968,614"/>
<polygon class="pen1 brush2" points="955,614 929,611 925,616 919,623 912,631 905,638 898,645 892,651 888,655 887,656 887,669 871,666 866,669 858,674 848,679 836,685 825,690 816,695 809,698 807,699 806,710 793,703 789,706 782,709 774,711 765,714 756,716 749,718 744,720 742,720 736,733 725,723 719,724 712,726 703,727 695,728 687,729 681,730 677,731 675,731 664,744 660,733 625,737 601,746 586,760 579,775 576,791 577,805 579,814 580,818 583,793 592,776 604,766 619,760 633,758 645,759 654,760 657,761 664,753 671,760 677,759 686,759 696,758 706,758 716,757 724,757 730,757 732,757 739,743 749,750 753,749 761,746 769,744 779,741 788,738 796,735 802,734 804,733 810,719 823,727 832,723 843,718 855,712 867,706 878,700 887,695 893,691 895,690 898,677 908,679 916,672 924,663 932,653 939,642 945,631 950,622 954,616 955,614 955,614"/>
<polygon class="pen1 brush2" points="897,602 868,599 862,607 854,614 847,619 844,621 844,632 830,629 825,632 817,636 809,639 800,642 792,645 785,647 781,649 779,649 776,662 762,656 756,657 747,659 736,661 726,663 715,665 706,667 700,668 698,668 691,679 681,670 654,663 631,662 613,667 598,675 587,684 580,693 575,700 574,703 591,692 609,686 627,685 644,687 659,691 670,695 678,699 681,700 694,689 701,696 709,697 719,696 730,695 742,693 752,691 761,689 767,688 769,687 779,669 792,677 798,675 806,672 815,668 825,664 833,659 841,656 846,653 848,652 851,641 866,645 871,640 877,634 882,627 887,620 891,613 894,607 896,603 897,602 897,602"/>
<polygon class="pen1 brush2" points="850,591 848,593 843,598 836,604 826,612 816,621 804,629 793,635 783,639 776,628 769,639 768,640 764,641 759,643 752,645 744,647 737,649 729,649 722,649 715,639 704,649 702,649 698,648 692,647 685,646 676,644 668,642 660,639 654,636 652,622 641,629 640,628 638,626 634,622 629,618 623,613 617,609 610,605 604,602 605,602 609,601 615,600 621,599 629,598 636,597 644,596 650,595 658,608 671,602 672,603 675,604 680,606 686,608 692,610 699,613 706,614 712,615 719,625 726,616 727,616 731,616 736,615 742,615 749,614 756,613 761,612 766,611 773,619 782,608 783,608 786,607 790,606 795,604 802,601 809,597 818,591 827,585 850,591 850,591"/>
<polygon class="pen1 brush2" points="816,578 813,581 803,587 788,595 770,602 748,606 725,605 701,596 678,577 681,578 691,581 704,584 722,586 741,587 762,585 783,579 803,568 816,578 816,578"/>
<polygon class="pen1 brush2" points="1060,381 1027,362 1027,361 1026,358 1026,353 1027,348 1030,342 1018,338 1014,326 1005,298 996,267 992,244 1006,241 996,224 997,221 1002,215 1008,204 1015,192 1024,180 1034,167 1043,156 1052,148 1062,159 1067,142 1072,142 1084,144 1101,148 1121,156 1142,167 1160,182 1174,203 1181,230 1178,228 1171,222 1161,214 1147,205 1131,196 1114,189 1096,184 1079,183 1067,173 1069,187 1068,188 1065,192 1060,198 1054,206 1048,214 1042,223 1037,232 1033,240 1020,244 1033,257 1035,266 1040,288 1046,313 1053,332 1043,341 1056,345 1057,348 1058,357 1059,369 1060,381 1060,381"/>
<polygon class="pen1 brush2" points="951,355 969,355 973,350 981,337 988,320 989,302 988,300 986,293 981,283 975,270 966,256 954,241 941,227 924,213 922,212 918,209 913,207 911,206 917,194 916,185 913,166 910,145 910,132 898,125 915,119 915,115 915,105 917,90 920,72 924,53 931,33 942,15 955,0 952,2 944,8 932,17 918,29 903,44 888,61 876,81 868,102 881,122 868,122 869,132 872,156 876,184 881,204 894,212 891,227 894,230 901,238 911,250 923,263 936,278 948,291 958,301 966,308 964,312 960,322 955,338 951,355 951,355"/>
<polygon class="pen1 brush2" points="938,355 911,355 908,349 903,342 897,334 890,326 884,318 879,313 875,308 874,307 874,293 858,295 853,292 846,287 836,281 825,275 814,268 806,263 799,259 797,258 796,247 783,251 779,249 772,246 764,242 755,239 747,235 740,233 735,231 733,230 729,219 716,227 711,225 704,223 696,221 688,219 680,217 674,215 670,214 668,214 658,203 652,213 618,206 595,195 581,180 575,164 574,148 576,135 579,125 580,122 581,147 588,164 599,175 613,181 627,184 639,184 648,184 651,183 658,193 667,186 673,187 681,188 691,189 701,190 710,192 718,193 724,194 726,194 732,209 742,200 747,202 754,205 763,209 772,213 781,217 789,220 794,222 796,223 803,239 814,230 823,235 834,241 846,248 857,256 868,263 876,269 882,273 884,274 884,285 895,285 902,292 910,302 917,314 924,326 929,337 934,346 937,353 938,355 938,355"/>
<polygon class="pen1 brush2" points="878,362 850,362 845,354 838,346 832,340 829,338 830,327 814,328 809,324 802,321 794,317 786,313 779,310 772,307 768,306 766,305 763,291 749,297 743,295 735,293 725,290 714,287 704,284 695,282 689,281 687,280 679,267 668,275 641,281 619,280 601,273 588,264 578,254 571,244 567,237 566,234 582,247 600,254 617,257 634,256 649,254 660,250 668,247 671,246 682,258 691,250 699,251 709,252 720,255 732,258 742,261 751,263 757,265 759,266 768,284 779,277 785,279 794,283 803,288 812,293 820,299 827,303 832,306 834,307 837,319 850,317 860,328 869,343 876,356 878,362 878,362"/>
<polygon class="pen1 brush2" points="831,369 829,367 825,362 818,355 809,346 799,337 789,328 779,322 769,317 759,325 756,314 755,313 751,312 745,310 738,307 731,304 723,302 715,301 708,300 701,311 689,300 688,300 683,300 677,301 670,301 662,302 653,304 645,306 638,308 637,321 627,314 626,315 623,317 619,321 613,324 607,329 600,333 594,336 587,338 588,338 592,339 597,341 604,342 611,344 618,346 625,347 631,348 641,338 654,342 655,342 658,341 663,339 669,338 675,337 682,335 689,334 695,334 702,325 709,334 710,334 714,335 719,335 725,336 732,338 738,339 744,341 749,342 756,335 765,346 766,346 768,347 772,349 777,351 783,355 790,359 798,365 806,372 831,369 831,369"/>
<polygon class="pen1 brush2" points="796,379 793,376 784,369 770,360 752,352 731,346 708,346 684,352 660,369 663,368 673,366 687,364 704,363 723,364 744,367 764,375 783,388 796,379 796,379"/>
<polygon class="pen1 brush2" points="1077,477 1077,495 1076,515 1072,534 1066,551 1055,567 1041,579 1025,588 1008,594 990,599 970,600 950,600 930,598 910,595 890,590 871,585 853,579 836,573 822,566 809,560 799,554 784,534 779,507 778,483 779,473 779,474 779,464 780,439 786,412 802,392 809,389 820,385 834,381 851,378 870,374 890,372 912,369 934,367 956,367 978,367 998,369 1018,371 1035,376 1050,382 1062,390 1070,400 1076,418 1078,437 1079,457 1079,476 1077,477 1077,477"/>
<polygon class="pen1 brush2" points="1590,456 1599,457 1611,457 1626,458 1642,459 1659,460 1678,461 1697,462 1715,463 1734,465 1751,466 1767,468 1781,469 1793,471 1802,473 1808,475 1810,477 1809,480 1805,483 1797,485 1788,487 1776,489 1762,491 1747,492 1730,493 1713,495 1695,496 1676,498 1658,499 1640,501 1622,503 1605,505 1590,507 1590,456 1590,456"/>
<polygon class="pen1 brush2" points="1458,437 1581,456 1581,507 1458,517 1458,437 1458,437"/>
<polygon class="pen1 brush2" points="1329,425 1448,436 1448,518 1329,534 1329,425 1329,425"/>
<polygon class="pen1 brush2" points="1189,412 1320,425 1320,535 1189,552 1189,412 1189,412"/>
<polygon class="pen1 brush2" points="1076,399 1076,400 1077,401 1077,402 1077,402 1084,433 1086,478 1083,523 1074,554 1071,558 1068,562 1065,566 1062,569 1181,554 1181,412 1076,399 1076,399"/>
<polygon class="pen1 brush2" points="1959,430 1962,426 1964,420 1964,413 1962,406 1960,402 1957,398 1955,395 1952,392 1948,388 1942,386 1935,386 1925,388 1915,391 1903,396 1890,402 1877,408 1863,415 1850,423 1836,431 1823,438 1811,446 1799,453 1789,460 1780,466 1785,466 1790,467 1794,468 1798,468 1802,469 1806,470 1809,471 1813,471 1959,430 1959,430"/>
<polygon class="pen1 brush2" points="1961,480 1946,480 1929,480 1910,480 1891,480 1871,480 1852,480 1835,479 1820,479 1820,478 1819,476 1818,475 1816,474 1961,436 1964,440 1967,444 1969,449 1971,453 1971,463 1968,471 1965,476 1961,480 1961,480"/>
<polygon class="pen1 brush2" points="1955,528 1957,526 1961,522 1964,515 1966,506 1967,501 1966,496 1965,490 1962,484 1945,484 1927,484 1909,484 1891,483 1872,483 1854,483 1837,483 1820,483 1820,484 1819,485 1817,486 1814,487 1955,528 1955,528"/>
<polygon class="pen1 brush2" points="1779,494 1789,501 1800,508 1812,516 1824,525 1837,533 1851,542 1864,550 1878,558 1891,565 1903,571 1915,576 1925,579 1935,582 1942,582 1948,581 1952,577 1954,572 1956,566 1958,560 1959,554 1960,548 1960,543 1959,538 1958,534 1810,490 1807,490 1804,491 1800,492 1796,492 1791,493 1787,494 1783,494 1779,494 1779,494"/>
<polygon class="pen1 brush2" points="783,396 771,418 767,444 766,465 766,474 766,473 765,482 766,504 770,530 783,551 613,555 658,518 647,517 633,516 618,514 601,513 582,512 561,511 540,511 517,511 493,511 468,512 442,514 416,517 390,520 363,524 336,529 309,535 282,543 256,551 230,561 204,572 180,585 156,599 134,615 112,633 93,652 74,673 58,697 43,722 30,749 20,779 12,811 6,845 5,835 11,799 19,766 31,736 44,708 60,682 77,658 97,637 118,617 140,599 164,583 189,569 215,557 242,546 269,536 297,528 325,521 353,516 381,511 409,508 437,505 463,503 489,502 514,501 538,501 561,502 582,503 601,504 619,505 635,506 648,508 659,509 668,510 689,493 547,476 546,473 689,456 667,439 659,440 649,441 636,442 621,444 604,445 585,446 564,447 542,448 518,448 493,448 467,447 440,445 413,442 384,439 356,435 328,429 299,423 271,415 243,405 216,395 189,382 164,368 139,352 116,335 94,315 74,293 56,270 40,244 26,215 15,184 6,151 0,115 2,105 8,139 16,172 27,201 40,229 55,254 71,278 90,299 110,318 132,336 154,352 178,366 203,379 229,390 255,400 282,408 309,415 336,421 363,426 390,430 417,433 443,436 469,437 494,438 518,438 541,438 562,437 583,437 601,435 618,434 633,433 646,431 657,430 611,393 783,396"/>
<polygon class="pen1 brush0" points="712,453 719,452 724,448 728,443 729,436 728,429 724,423 719,419 712,418 705,419 699,423 695,429 694,436 695,443 699,448 705,452 712,453 712,453"/>
<polygon class="pen1 brush0" points="715,497 722,499 727,503 730,509 731,516 729,522 725,528 719,532 712,533 705,530 700,526 696,520 695,513 697,507 702,502 708,498 715,497"/>
</g>
</svg>
