<?xml version="1.0" encoding="UTF-8" standalone="no"?>
<!DOCTYPE svg PUBLIC "-//W3C//DTD SVG 1.0//EN" "http://www.w3.org/TR/2001/REC-SVG-20010904/DTD/svg10.dtd">
<svg xmlns="http://www.w3.org/2000/svg" xmlns:xlink="http://www.w3.org/1999/xlink" fill-rule="evenodd" height="1.989in" preserveAspectRatio="none" stroke-linecap="round" viewBox="0 0 1474 1989" width="1.474in">
<style type="text/css">
.brush0 { fill: rgb(255,255,255); }
.pen0 { stroke: rgb(0,0,0); stroke-width: 1; stroke-linejoin: round; }
.brush1 { fill: none; }
.pen1 { stroke: none; }
.brush2 { fill: rgb(0,0,0); }
</style>
<g>
<polygon class="pen1 brush2" points="359,1419 352,1424 335,1439 311,1461 284,1487 256,1515 233,1543 217,1568 212,1588 217,1606 228,1631 245,1661 265,1694 287,1727 310,1759 332,1787 352,1808 302,1980 319,1989 368,1820 373,1823 377,1826 381,1827 383,1828 391,1825 398,1822 403,1817 406,1812 407,1805 405,1796 400,1785 392,1772 380,1757 364,1738 348,1719 332,1698 318,1678 309,1659 307,1643 312,1629 322,1617 333,1604 343,1592 354,1579 364,1566 374,1555 383,1544 392,1534 391,1531 388,1524 384,1513 379,1498 373,1481 368,1461 363,1441 359,1419 359,1419"/>
<polygon class="pen1 brush2" points="413,905 411,905 404,905 394,905 381,905 365,905 348,906 328,907 309,908 288,910 268,912 249,915 232,918 216,923 203,928 193,933 186,940 179,958 173,986 168,1021 165,1060 162,1101 162,1141 162,1175 165,1203 0,1321 10,1335 166,1223 168,1227 170,1230 171,1232 173,1233 181,1236 188,1238 194,1238 200,1236 205,1231 208,1223 211,1211 213,1196 213,1176 213,1152 212,1126 213,1100 215,1076 219,1056 227,1041 240,1034 256,1031 273,1027 290,1025 307,1022 324,1019 340,1017 355,1015 368,1014 369,1011 371,1004 374,993 379,979 386,962 393,944 402,924 413,905 413,905"/>
<polygon class="pen1 brush2" points="510,677 325,507 323,485 318,432 315,367 318,311 133,233 143,214 319,288 321,279 324,273 328,270 332,270 343,279 348,299 351,329 352,363 352,399 355,433 360,461 371,480 379,487 388,494 400,501 413,509 426,517 441,525 456,533 471,540 486,548 500,556 514,563 526,570 537,576 546,582 553,587 557,592 561,600 563,608 561,618 557,628 549,639 539,650 526,663 510,677 510,677"/>
<polygon class="pen1 brush2" points="737,908 733,908 723,907 707,905 687,903 664,899 639,894 612,887 586,878 561,868 538,855 519,839 505,822 496,801 493,777 499,750 514,719 527,699 539,683 551,671 562,661 573,653 583,647 594,641 605,635 615,647 629,657 647,664 666,670 687,675 707,678 726,681 743,682 747,682 757,680 772,678 790,674 809,668 828,660 844,649 855,635 865,641 876,648 886,654 896,661 907,670 917,680 928,692 939,707 954,734 963,760 965,783 962,804 955,823 943,840 928,854 910,867 889,879 867,888 845,896 821,901 798,905 776,908 756,909 737,908 737,908"/>
<polygon class="pen1 brush2" points="751,1772 789,1769 826,1761 862,1747 895,1729 927,1706 957,1678 984,1647 1009,1611 1032,1573 1052,1531 1070,1486 1084,1438 1096,1388 1104,1336 1109,1282 1111,1226 1109,1159 1103,1096 1093,1037 1079,981 1061,929 1038,881 1010,838 977,798 973,815 967,831 959,845 950,857 939,869 926,878 913,887 898,894 882,900 865,906 847,910 829,914 809,917 789,919 768,921 747,922 751,1772 751,1772"/>
<polygon class="pen1 brush2" points="733,922 729,1772 691,1768 654,1758 618,1744 584,1725 551,1702 521,1674 492,1643 465,1608 441,1569 419,1528 400,1483 385,1436 372,1386 363,1335 357,1281 355,1226 357,1165 364,1105 375,1048 391,994 410,943 432,895 458,851 487,811 493,828 503,844 517,858 533,870 552,881 572,890 593,898 615,905 637,910 658,914 677,918 695,920 710,922 722,922 729,922 733,922 733,922"/>
<polygon class="pen1 brush2" points="1108,1419 1110,1420 1115,1424 1123,1431 1133,1439 1145,1449 1159,1461 1173,1474 1188,1487 1203,1501 1217,1515 1230,1529 1242,1543 1252,1556 1259,1568 1263,1579 1264,1588 1259,1606 1248,1632 1231,1663 1212,1696 1190,1730 1167,1762 1145,1790 1126,1811 1175,1982 1156,1989 1108,1820 1103,1823 1099,1826 1095,1827 1092,1828 1085,1825 1078,1822 1073,1817 1071,1812 1070,1805 1072,1796 1077,1785 1085,1772 1097,1757 1112,1738 1128,1719 1144,1698 1157,1678 1166,1659 1168,1643 1163,1629 1152,1617 1141,1604 1130,1592 1118,1579 1106,1566 1095,1555 1085,1544 1075,1534 1076,1531 1079,1524 1084,1513 1089,1498 1094,1481 1100,1461 1105,1441 1108,1419 1108,1419"/>
<polygon class="pen1 brush2" points="1062,905 1064,905 1071,905 1081,905 1094,905 1110,905 1128,906 1147,907 1167,908 1187,910 1207,912 1226,915 1244,918 1260,923 1273,928 1283,933 1290,940 1298,958 1304,986 1310,1022 1314,1062 1317,1103 1318,1143 1318,1178 1315,1206 1474,1322 1466,1335 1310,1223 1308,1227 1307,1230 1305,1232 1304,1233 1296,1236 1288,1238 1282,1238 1276,1236 1271,1231 1267,1223 1265,1211 1263,1196 1263,1176 1263,1152 1264,1126 1264,1100 1262,1076 1257,1056 1249,1041 1236,1034 1220,1031 1204,1027 1187,1025 1170,1022 1153,1019 1137,1017 1122,1015 1108,1014 1107,1011 1105,1004 1101,993 1096,979 1090,962 1082,944 1073,924 1062,905 1062,905"/>
<polygon class="pen1 brush2" points="966,677 1152,507 1155,485 1160,431 1164,366 1162,308 1339,234 1334,214 1158,288 1155,279 1152,273 1147,270 1143,270 1133,279 1127,299 1125,329 1124,363 1124,399 1121,433 1116,461 1105,480 1097,487 1088,494 1077,501 1064,509 1050,517 1036,525 1021,533 1006,540 991,548 976,556 963,563 950,570 940,576 930,582 924,587 919,592 914,600 913,608 914,618 919,628 926,639 937,650 950,663 966,677 966,677"/>
<polygon class="pen1 brush2" points="737,656 739,656 745,655 755,655 766,653 779,651 794,647 808,642 821,636 834,629 843,619 851,608 854,595 853,579 846,561 834,540 815,517 801,497 791,473 784,446 781,415 780,383 781,348 784,313 787,277 855,335 1027,185 1026,177 1023,157 1018,128 1010,96 1001,65 989,40 974,26 957,27 945,40 943,59 948,80 958,103 970,125 981,145 988,162 990,173 852,295 788,244 790,206 791,170 790,135 787,103 779,75 768,51 751,31 729,17 716,17 694,32 678,52 667,76 660,104 657,135 657,168 659,204 662,240 594,295 456,173 458,162 465,145 476,125 488,103 498,80 503,59 501,40 489,27 472,26 457,40 445,65 436,96 428,128 423,157 420,177 419,185 591,335 665,273 669,310 672,346 675,381 675,415 673,446 667,475 658,500 645,521 627,545 615,566 610,584 610,600 614,613 623,624 634,633 647,640 662,645 677,649 692,652 706,654 718,655 728,656 735,656 737,656 737,656"/>
<polygon class="pen1 brush0" points="682,592 688,591 693,590 698,587 703,583 706,578 709,573 711,567 712,561 711,555 709,550 706,544 703,540 698,536 693,533 688,532 682,531 676,532 671,533 665,536 661,540 657,544 654,550 653,555 652,561 653,567 654,573 657,578 661,583 665,587 671,590 676,591 682,592"/>
<polygon class="pen1 brush0" points="787,596 776,594 767,588 760,579 758,567 760,556 767,546 776,540 787,538 793,539 799,540 804,543 809,546 813,551 816,556 817,561 818,567 817,573 816,579 813,584 809,588 804,591 799,594 793,595 787,596"/>
</g>
</svg>
