<?xml version="1.0" encoding="UTF-8" standalone="no"?>
<!DOCTYPE svg PUBLIC "-//W3C//DTD SVG 1.0//EN" "http://www.w3.org/TR/2001/REC-SVG-20010904/DTD/svg10.dtd">
<svg xmlns="http://www.w3.org/2000/svg" xmlns:xlink="http://www.w3.org/1999/xlink" fill-rule="evenodd" height="1.868in" preserveAspectRatio="none" stroke-linecap="round" viewBox="0 0 1971 1868" width="1.971in">
<style type="text/css">
.brush0 { fill: rgb(255,255,255); }
.pen0 { stroke: rgb(0,0,0); stroke-width: 1; stroke-linejoin: round; }
.brush1 { fill: none; }
.pen1 { stroke: none; }
.brush2 { fill: rgb(0,0,0); }
</style>
<g>
<polygon class="pen1 brush2" points="717,1655 721,1660 724,1665 726,1669 728,1673 731,1677 735,1681 742,1684 752,1687 766,1686 784,1680 803,1670 823,1658 843,1646 862,1635 878,1628 890,1625 900,1627 909,1633 917,1643 926,1656 936,1673 946,1693 958,1716 971,1741 982,1762 992,1780 999,1794 1005,1805 1008,1814 1010,1821 1010,1826 1008,1831 1028,1837 1046,1843 1065,1847 1082,1851 1098,1854 1113,1857 1127,1859 1140,1861 1141,1862 1140,1864 1140,1867 1140,1868 1121,1865 1102,1862 1084,1859 1067,1855 1050,1852 1033,1848 1017,1843 1002,1839 1001,1839 1001,1840 1000,1841 998,1841 989,1843 981,1839 973,1831 965,1818 957,1802 949,1783 940,1762 930,1740 921,1720 913,1706 904,1696 894,1691 881,1691 864,1696 840,1706 809,1721 777,1732 750,1735 728,1731 710,1723 697,1713 687,1703 682,1695 680,1692 662,1715 641,1728 617,1733 594,1732 572,1727 554,1721 542,1715 537,1713 508,1694 485,1682 468,1676 455,1677 444,1683 435,1694 426,1710 417,1730 411,1743 404,1756 398,1768 392,1781 386,1793 380,1805 374,1815 369,1824 369,1824 369,1824 365,1830 361,1835 357,1840 354,1843 350,1846 346,1847 342,1847 338,1846 335,1844 333,1842 331,1839 329,1836 313,1841 297,1845 281,1848 265,1851 250,1854 235,1856 221,1858 207,1860 207,1851 224,1850 240,1848 256,1845 272,1843 287,1840 302,1836 316,1833 329,1829 329,1822 330,1814 334,1805 339,1795 346,1782 354,1768 364,1751 375,1731 388,1706 400,1683 411,1663 420,1646 429,1633 438,1623 447,1617 457,1615 470,1618 486,1626 504,1637 524,1650 544,1662 563,1672 579,1679 593,1679 604,1676 611,1674 616,1671 620,1669 623,1666 625,1663 628,1659 632,1655 634,1655 639,1657 647,1658 657,1659 670,1660 684,1660 700,1658 717,1655 717,1655"/>
<polygon class="pen1 brush2" points="988,1701 993,1709 1000,1716 1008,1721 1017,1724 1027,1726 1037,1726 1047,1724 1055,1721 1067,1714 1079,1704 1091,1692 1103,1679 1114,1665 1125,1652 1136,1639 1146,1628 1180,1595 1210,1573 1236,1559 1259,1554 1280,1556 1298,1564 1314,1578 1329,1596 1343,1617 1356,1640 1370,1665 1383,1690 1398,1715 1414,1738 1431,1758 1451,1775 1467,1784 1487,1791 1510,1796 1535,1800 1561,1802 1589,1803 1618,1802 1646,1800 1674,1796 1701,1792 1725,1787 1748,1780 1767,1773 1783,1765 1794,1757 1801,1748 1814,1749 1828,1749 1842,1749 1857,1749 1872,1749 1888,1748 1904,1747 1921,1745 1921,1744 1921,1742 1920,1740 1920,1740 1909,1740 1896,1741 1883,1741 1868,1741 1853,1742 1836,1741 1819,1741 1802,1740 1802,1738 1802,1737 1802,1736 1802,1735 1797,1726 1788,1720 1775,1716 1760,1715 1742,1715 1722,1716 1700,1718 1677,1720 1653,1722 1629,1724 1605,1725 1582,1725 1559,1722 1538,1718 1519,1711 1502,1701 1487,1689 1473,1674 1458,1657 1444,1638 1430,1618 1417,1597 1403,1576 1390,1555 1376,1535 1363,1515 1350,1498 1337,1482 1325,1469 1312,1459 1299,1452 1287,1449 1271,1449 1253,1454 1233,1462 1212,1474 1190,1489 1168,1505 1145,1524 1123,1544 1100,1565 1079,1587 1059,1609 1040,1630 1024,1650 1009,1669 997,1686 988,1701 988,1701"/>
<polygon class="pen1 brush2" points="1443,1614 1457,1596 1469,1577 1479,1558 1487,1538 1493,1517 1498,1495 1500,1473 1501,1449 1498,1413 1491,1380 1479,1348 1463,1318 1442,1291 1418,1266 1390,1243 1359,1223 1342,1227 1325,1230 1308,1233 1292,1236 1275,1239 1259,1242 1243,1244 1227,1246 1211,1248 1195,1250 1179,1252 1164,1253 1148,1254 1133,1255 1117,1256 1102,1257 1102,1260 1102,1268 1102,1279 1102,1294 1101,1318 1098,1341 1094,1364 1087,1386 1079,1408 1070,1429 1059,1449 1046,1469 1032,1488 1017,1506 1000,1523 982,1540 963,1555 943,1569 921,1582 899,1594 908,1607 918,1619 928,1631 939,1642 950,1652 962,1662 976,1672 990,1681 1001,1665 1014,1647 1030,1628 1047,1608 1066,1587 1086,1566 1107,1546 1128,1525 1150,1506 1171,1488 1193,1472 1213,1459 1233,1447 1251,1439 1267,1434 1282,1433 1292,1435 1302,1439 1312,1445 1322,1452 1333,1461 1343,1472 1353,1484 1364,1496 1374,1510 1384,1524 1394,1538 1404,1554 1414,1569 1424,1584 1434,1599 1443,1614 1443,1614"/>
<polygon class="pen1 brush2" points="680,1635 722,1633 763,1628 803,1620 841,1608 877,1594 911,1577 943,1557 972,1535 999,1511 1023,1485 1043,1456 1061,1427 1075,1395 1085,1363 1091,1329 1093,1294 1093,1283 1092,1274 1091,1266 1089,1256 1046,1257 1005,1256 965,1255 927,1252 890,1248 855,1244 823,1239 792,1234 763,1229 736,1223 712,1217 690,1212 671,1207 655,1202 641,1198 630,1195 623,1195 625,1188 630,1178 638,1166 647,1151 659,1135 672,1118 686,1100 700,1082 715,1064 730,1045 744,1028 758,1012 770,997 781,984 789,974 796,966 782,963 768,960 754,958 740,956 725,955 710,954 695,953 680,953 638,955 596,960 557,968 519,980 482,994 448,1011 416,1031 387,1053 360,1077 336,1103 315,1131 298,1161 284,1192 273,1225 267,1259 265,1294 267,1329 273,1363 284,1395 298,1427 315,1456 336,1485 360,1511 387,1535 416,1557 448,1577 482,1594 519,1608 557,1620 596,1628 638,1633 680,1635 680,1635"/>
<polygon class="pen1 brush2" points="366,1687 367,1684 370,1676 374,1664 379,1648 385,1628 391,1606 397,1581 403,1554 372,1530 344,1503 319,1473 299,1442 282,1409 270,1374 263,1337 260,1300 222,1310 193,1328 173,1351 160,1379 153,1411 153,1445 159,1480 170,1516 154,1516 138,1514 123,1512 108,1508 94,1504 81,1498 69,1490 58,1481 48,1471 39,1458 31,1444 25,1428 20,1410 17,1389 15,1366 15,1341 0,1344 1,1371 4,1396 8,1417 15,1437 22,1454 32,1469 42,1482 54,1493 66,1502 80,1510 94,1516 109,1520 125,1524 141,1526 157,1527 174,1527 180,1541 188,1555 195,1569 204,1582 214,1594 224,1606 235,1618 246,1628 259,1638 272,1648 286,1657 300,1664 316,1671 332,1678 349,1683 366,1687 366,1687"/>
<polygon class="pen1 brush2" points="637,1175 648,1161 663,1143 680,1120 702,1094 726,1064 752,1031 782,994 813,955 847,914 883,871 920,826 959,779 999,732 1040,683 1082,634 1125,585 1168,536 1211,487 1254,440 1297,393 1340,347 1381,303 1422,261 1462,222 1501,185 1538,150 1573,119 1607,92 1638,68 1667,49 1693,33 1717,23 1739,16 1759,10 1778,7 1796,6 1813,6 1828,8 1843,11 1856,16 1813,74 1769,130 1725,186 1680,240 1635,293 1589,344 1544,394 1498,443 1452,491 1406,537 1361,582 1316,625 1271,667 1227,708 1184,747 1141,785 1099,821 1058,856 1018,889 979,921 942,951 905,979 871,1006 837,1032 805,1055 775,1078 747,1098 721,1117 697,1134 675,1149 655,1163 637,1175 637,1175"/>
<polygon class="pen1 brush2" points="1869,20 1845,53 1820,85 1796,118 1770,150 1745,181 1719,212 1694,243 1668,274 1641,304 1615,334 1588,364 1562,393 1535,422 1508,451 1481,479 1454,507 1454,510 1468,508 1487,504 1510,500 1536,493 1566,485 1598,476 1632,465 1669,452 1706,437 1744,420 1783,402 1822,381 1860,359 1897,334 1933,307 1967,278 1969,265 1970,255 1971,248 1971,246 1971,239 1969,218 1966,189 1958,153 1946,115 1928,78 1903,45 1869,20 1869,20"/>
<polygon class="pen1 brush2" points="1450,519 1440,520 1422,538 1405,556 1387,574 1369,592 1352,609 1334,626 1316,643 1299,660 1281,676 1264,693 1246,709 1229,725 1212,741 1194,756 1177,772 1160,787 1160,790 1165,791 1172,792 1180,792 1190,793 1201,794 1214,794 1228,794 1243,794 1260,794 1278,793 1297,791 1317,789 1339,787 1362,784 1385,780 1410,775 1436,770 1462,764 1490,757 1518,749 1547,740 1578,730 1608,718 1640,706 1672,692 1705,677 1739,661 1773,643 1807,624 1842,603 1878,581 1914,557 1925,516 1934,476 1942,438 1949,403 1955,370 1959,340 1963,314 1965,291 1946,308 1926,325 1905,342 1881,358 1856,374 1829,391 1800,406 1770,421 1737,436 1703,450 1666,464 1627,477 1586,489 1543,500 1498,510 1450,519 1450,519"/>
<polygon class="pen1 brush2" points="1150,797 1179,800 1208,801 1237,802 1266,801 1294,799 1323,797 1351,793 1379,789 1407,784 1434,779 1461,772 1488,765 1515,758 1541,750 1567,741 1592,732 1616,723 1641,713 1664,703 1688,693 1710,682 1732,672 1753,661 1774,651 1794,640 1813,630 1832,619 1849,609 1866,599 1882,589 1898,580 1912,571 1905,597 1897,623 1888,650 1880,677 1870,704 1860,731 1850,759 1839,786 1797,814 1755,840 1712,864 1670,886 1628,906 1586,924 1544,940 1503,954 1462,967 1422,978 1383,988 1344,996 1306,1003 1270,1009 1234,1013 1200,1017 1167,1020 1135,1021 1105,1022 1077,1023 1050,1023 1025,1022 1002,1021 980,1019 961,1018 945,1016 930,1014 918,1012 909,1010 902,1009 897,1008 896,1007 910,996 925,985 939,973 954,961 969,949 984,936 1000,924 1016,911 1031,897 1047,884 1064,870 1080,856 1096,841 1113,827 1130,812 1147,797 1150,797 1150,797"/>
<polygon class="pen1 brush2" points="889,1013 935,1019 980,1023 1024,1026 1067,1028 1109,1028 1150,1027 1190,1025 1229,1022 1266,1017 1303,1012 1339,1006 1374,999 1408,992 1440,984 1472,975 1502,965 1532,956 1560,946 1587,935 1613,925 1637,914 1661,903 1683,892 1704,882 1724,871 1743,861 1760,851 1777,841 1792,832 1805,823 1818,815 1829,807 1814,839 1798,870 1781,900 1764,930 1745,959 1725,988 1704,1015 1681,1041 1658,1065 1633,1088 1607,1110 1580,1129 1552,1147 1522,1163 1491,1177 1458,1188 1420,1199 1383,1209 1345,1218 1309,1225 1272,1231 1237,1237 1201,1241 1167,1244 1133,1247 1100,1248 1067,1249 1036,1249 1005,1249 975,1248 946,1246 918,1244 891,1241 865,1238 840,1235 816,1231 793,1228 772,1224 752,1220 733,1216 716,1212 700,1208 685,1204 672,1201 661,1198 651,1195 643,1192 636,1190 646,1184 659,1175 675,1164 694,1152 713,1138 734,1123 756,1108 778,1092 799,1077 819,1062 837,1049 854,1037 868,1027 879,1020 886,1015 889,1013 889,1013"/>
<polygon class="pen1 brush2" points="1180,1735 1193,1735 1206,1734 1219,1733 1232,1731 1244,1730 1257,1727 1268,1724 1280,1721 1292,1718 1303,1714 1314,1709 1325,1705 1335,1700 1346,1694 1356,1688 1366,1682 1356,1664 1346,1647 1337,1631 1328,1615 1318,1601 1308,1589 1298,1579 1287,1571 1275,1566 1262,1564 1248,1566 1233,1571 1215,1580 1197,1594 1176,1612 1153,1636 1145,1645 1137,1656 1127,1669 1117,1682 1107,1695 1095,1707 1083,1718 1071,1726 1084,1730 1098,1732 1111,1734 1125,1735 1138,1735 1152,1735 1166,1735 1180,1735"/>
<polygon class="pen1 brush0" points="245,1541 254,1540 262,1538 269,1534 276,1529 281,1522 286,1515 288,1506 289,1497 288,1488 286,1480 281,1473 276,1466 269,1461 262,1456 254,1454 245,1453 236,1454 228,1456 221,1461 215,1466 210,1473 206,1480 204,1488 203,1497 204,1506 206,1515 210,1522 215,1529 221,1534 228,1538 236,1540 245,1541"/>
</g>
</svg>
