<?xml version="1.0" encoding="UTF-8" standalone="no"?>
<!DOCTYPE svg PUBLIC "-//W3C//DTD SVG 1.0//EN" "http://www.w3.org/TR/2001/REC-SVG-20010904/DTD/svg10.dtd">
<svg xmlns="http://www.w3.org/2000/svg" xmlns:xlink="http://www.w3.org/1999/xlink" fill-rule="evenodd" height="1.481in" preserveAspectRatio="none" stroke-linecap="round" viewBox="0 0 1979 1481" width="1.979in">
<style type="text/css">
.brush0 { fill: rgb(255,255,255); }
.pen0 { stroke: rgb(0,0,0); stroke-width: 1; stroke-linejoin: round; }
.brush1 { fill: none; }
.pen1 { stroke: none; }
.brush2 { fill: rgb(0,0,0); }
</style>
<g>
<polygon class="pen1 brush2" points="1320,1116 1333,1114 1344,1113 1353,1113 1361,1113 1369,1113 1378,1113 1389,1112 1404,1110 1401,1120 1392,1146 1381,1184 1369,1231 1359,1282 1353,1333 1352,1379 1360,1417 1296,1409 1219,1481 1219,1403 1100,1413 1169,1349 1121,1305 1123,1305 1129,1307 1138,1309 1150,1311 1164,1313 1180,1315 1197,1317 1215,1318 1233,1318 1251,1317 1268,1315 1283,1312 1296,1306 1307,1299 1315,1289 1320,1277 1326,1221 1325,1169 1322,1131 1320,1116 1320,1116"/>
<polygon class="pen1 brush2" points="1098,671 1112,637 1130,611 1151,592 1175,579 1201,571 1228,569 1256,570 1283,574 1310,581 1336,589 1359,598 1380,607 1397,615 1411,622 1419,627 1422,629 1401,622 1379,616 1356,610 1333,604 1310,600 1287,596 1265,594 1243,594 1222,596 1202,599 1184,606 1167,614 1153,626 1140,640 1131,658 1124,680 1121,697 1121,712 1123,726 1127,740 1133,752 1141,764 1150,774 1161,784 1174,793 1189,801 1204,808 1221,814 1239,820 1259,825 1279,829 1300,832 1331,836 1361,841 1390,845 1417,850 1443,855 1468,860 1493,866 1516,871 1538,877 1560,883 1581,889 1601,895 1621,901 1640,908 1659,914 1677,921 1695,928 1713,936 1731,943 1748,951 1766,959 1784,967 1801,975 1819,983 1838,992 1856,1001 1875,1010 1895,1019 1915,1029 1936,1038 1957,1048 1979,1058 1965,1017 1950,978 1934,941 1916,905 1897,871 1877,838 1856,807 1834,777 1812,749 1788,722 1764,696 1739,672 1714,650 1688,628 1662,608 1636,590 1610,572 1584,556 1557,541 1531,527 1506,514 1480,503 1455,492 1431,483 1407,475 1384,468 1362,461 1340,456 1320,452 1301,448 1283,446 1266,444 1235,445 1205,452 1177,465 1150,483 1124,503 1099,525 1075,548 1052,571 1031,593 1010,612 991,627 972,637 955,641 938,638 922,626 907,605 897,578 894,552 899,526 909,500 924,474 943,449 966,425 990,401 1015,379 1040,357 1065,336 1087,317 1107,299 1123,282 1134,267 1140,254 1143,226 1142,199 1137,175 1128,153 1116,133 1101,116 1082,103 1061,92 1068,85 1076,79 1084,73 1093,68 1102,64 1111,60 1121,57 1131,54 1117,47 1100,44 1082,44 1064,46 1048,50 1035,54 1026,57 1023,58 1027,48 1032,38 1038,28 1045,19 1050,12 1055,6 1059,2 1061,0 1042,4 1020,12 999,23 978,35 959,48 945,58 935,65 931,68 933,47 938,34 943,27 945,25 927,32 905,40 879,51 853,66 828,86 807,113 792,148 786,194 789,240 802,276 822,303 844,322 867,334 887,342 902,345 907,346 883,358 862,374 842,392 825,411 809,433 795,455 782,478 772,501 763,523 755,545 749,566 745,584 742,601 741,615 741,626 742,633 764,693 790,747 819,796 851,841 885,880 922,915 961,946 1001,973 1043,996 1086,1015 1130,1031 1175,1044 1220,1054 1265,1061 1311,1066 1355,1069 1400,1070 1443,1069 1485,1066 1526,1063 1564,1058 1601,1052 1636,1046 1668,1040 1698,1033 1724,1027 1747,1021 1766,1015 1782,1011 1794,1007 1801,1005 1803,1004 1787,995 1769,986 1749,977 1727,967 1704,957 1678,947 1651,937 1621,926 1589,916 1555,906 1518,896 1480,886 1439,877 1395,868 1349,860 1300,852 1254,844 1216,833 1184,821 1157,807 1137,793 1121,778 1109,762 1100,747 1095,732 1093,718 1092,705 1093,694 1094,684 1096,677 1097,673 1098,671 1098,671"/>
<polygon class="pen1 brush2" points="752,248 760,262 770,276 782,292 795,306 810,321 825,333 842,343 858,350 855,352 847,357 835,366 820,378 804,394 788,412 773,434 760,458 749,487 737,520 724,556 709,592 692,628 673,661 650,689 624,711 608,721 586,733 559,746 528,760 493,774 455,789 414,803 371,816 326,829 279,840 232,849 184,855 136,860 90,861 44,858 0,852 752,248"/>
<polygon class="pen1 brush0" points="868,238 874,237 879,236 885,233 889,230 893,225 896,221 897,216 898,210 897,204 896,199 893,193 889,189 885,185 879,182 874,181 868,180 857,182 848,189 842,199 840,210 842,221 848,230 857,236 868,238"/>
</g>
</svg>
