<?xml version="1.0" encoding="UTF-8" standalone="no"?>
<!DOCTYPE svg PUBLIC "-//W3C//DTD SVG 1.0//EN" "http://www.w3.org/TR/2001/REC-SVG-20010904/DTD/svg10.dtd">
<svg xmlns="http://www.w3.org/2000/svg" xmlns:xlink="http://www.w3.org/1999/xlink" fill-rule="evenodd" height="1.922in" preserveAspectRatio="none" stroke-linecap="round" viewBox="0 0 1974 1922" width="1.974in">
<style type="text/css">
.brush0 { fill: rgb(255,255,255); }
.pen0 { stroke: rgb(0,0,0); stroke-width: 1; stroke-linejoin: round; }
.brush1 { fill: none; }
.pen1 { stroke: none; }
.brush2 { fill: rgb(0,0,0); }
</style>
<g>
<polygon class="pen1 brush2" points="1004,1354 1010,1370 1019,1388 1030,1408 1042,1428 1054,1449 1066,1467 1077,1483 1087,1496 1087,1500 1085,1510 1083,1525 1079,1543 1080,1543 1083,1544 1088,1545 1094,1546 1101,1547 1109,1547 1117,1547 1125,1546 1128,1549 1135,1557 1145,1568 1157,1582 1170,1597 1183,1611 1194,1625 1203,1635 1203,1640 1203,1652 1201,1668 1199,1684 1200,1684 1204,1683 1209,1681 1215,1680 1222,1678 1229,1675 1237,1673 1243,1670 1245,1672 1250,1677 1257,1684 1265,1693 1275,1703 1284,1713 1293,1723 1301,1731 1301,1734 1301,1743 1301,1755 1301,1768 1302,1768 1306,1767 1311,1767 1317,1766 1324,1764 1331,1763 1337,1760 1342,1758 1344,1760 1350,1765 1359,1773 1370,1782 1381,1792 1392,1801 1402,1809 1410,1815 1410,1818 1412,1826 1413,1837 1416,1849 1418,1848 1424,1846 1431,1843 1439,1839 1441,1840 1446,1842 1454,1845 1464,1849 1474,1853 1484,1858 1493,1862 1500,1866 1499,1870 1502,1877 1505,1888 1510,1900 1512,1898 1519,1894 1528,1888 1538,1881 1540,1882 1545,1885 1552,1888 1561,1892 1570,1896 1580,1898 1590,1899 1598,1898 1607,1892 1612,1880 1612,1862 1606,1836 1608,1835 1613,1832 1621,1825 1631,1815 1629,1813 1623,1809 1613,1803 1602,1797 1601,1789 1598,1770 1594,1748 1591,1731 1592,1731 1595,1725 1600,1716 1605,1706 1604,1706 1602,1705 1599,1704 1595,1702 1590,1700 1585,1698 1579,1696 1574,1694 1571,1685 1564,1662 1555,1635 1547,1611 1549,1610 1554,1605 1561,1598 1568,1588 1567,1587 1565,1586 1561,1583 1556,1580 1550,1577 1544,1573 1539,1570 1533,1567 1532,1565 1529,1559 1525,1550 1520,1539 1513,1526 1507,1513 1500,1499 1494,1486 1495,1485 1498,1483 1502,1478 1506,1473 1511,1467 1516,1459 1521,1451 1524,1443 1522,1444 1518,1443 1513,1441 1506,1438 1497,1435 1489,1431 1480,1428 1472,1425 1471,1422 1468,1415 1463,1403 1457,1389 1450,1374 1443,1358 1436,1344 1429,1331 1431,1329 1435,1322 1440,1311 1446,1297 1445,1297 1443,1296 1440,1295 1435,1293 1429,1292 1423,1290 1416,1288 1409,1286 1397,1267 1384,1247 1370,1225 1355,1204 1340,1184 1323,1165 1307,1148 1290,1135 1302,1133 1314,1131 1328,1127 1342,1123 1356,1119 1371,1115 1385,1110 1399,1105 1412,1100 1424,1096 1435,1091 1444,1088 1452,1084 1458,1082 1462,1081 1463,1080 1470,1082 1477,1085 1483,1087 1489,1088 1494,1089 1497,1090 1499,1091 1500,1091 1504,1076 1506,1065 1506,1057 1506,1054 1519,1047 1533,1040 1547,1031 1562,1022 1574,1014 1585,1008 1591,1004 1594,1002 1602,1004 1611,1006 1621,1007 1629,1009 1637,1011 1643,1012 1647,1013 1648,1014 1651,997 1651,981 1650,968 1649,963 1661,956 1673,948 1686,941 1698,934 1708,927 1717,922 1722,919 1724,918 1731,919 1739,920 1746,921 1753,921 1758,922 1763,922 1766,922 1767,922 1766,910 1765,900 1764,893 1763,891 1772,885 1782,877 1794,868 1805,859 1815,851 1823,844 1829,840 1831,838 1836,839 1842,841 1848,842 1853,844 1857,845 1861,846 1863,847 1864,847 1865,835 1866,825 1866,818 1865,817 1872,812 1879,805 1887,797 1895,789 1902,781 1908,775 1912,771 1913,769 1919,770 1925,771 1930,771 1936,771 1940,771 1943,770 1945,770 1946,770 1944,756 1942,747 1940,741 1939,739 1949,731 1957,723 1963,716 1967,709 1970,703 1971,697 1971,692 1970,688 1965,681 1956,675 1946,671 1936,668 1926,666 1917,665 1911,664 1909,664 1904,652 1899,641 1896,634 1895,631 1890,635 1885,639 1880,642 1876,645 1872,648 1869,651 1868,653 1868,654 1860,653 1851,652 1840,650 1830,648 1820,646 1812,644 1806,643 1804,642 1799,634 1794,627 1791,623 1790,621 1781,629 1773,637 1768,643 1766,645 1756,645 1743,646 1728,648 1713,649 1699,651 1688,653 1680,654 1677,654 1671,644 1661,634 1653,627 1649,624 1642,634 1635,643 1631,649 1629,652 1618,654 1604,657 1591,660 1577,663 1564,665 1554,667 1548,669 1545,669 1537,658 1528,647 1520,638 1517,635 1509,648 1502,662 1495,674 1493,678 1480,681 1463,684 1444,689 1425,694 1407,698 1392,702 1382,705 1378,706 1372,701 1365,696 1358,692 1352,688 1346,686 1342,684 1339,682 1338,682 1331,699 1324,712 1319,722 1317,725 1303,730 1285,737 1264,746 1243,756 1222,766 1201,777 1183,787 1169,797 1170,750 1172,704 1174,658 1172,611 1182,599 1189,589 1194,582 1196,580 1189,575 1183,571 1177,568 1172,566 1168,565 1165,564 1164,563 1163,563 1158,532 1151,499 1145,473 1142,462 1147,455 1152,447 1156,439 1161,431 1165,424 1168,419 1170,415 1172,415 1165,410 1157,406 1149,403 1142,401 1135,400 1129,399 1125,398 1124,398 1119,369 1112,340 1107,319 1105,310 1112,297 1117,285 1121,276 1122,272 1116,270 1110,269 1105,267 1100,267 1096,266 1093,266 1092,266 1091,266 1084,242 1075,216 1067,194 1064,185 1071,174 1078,165 1082,158 1084,155 1078,153 1073,150 1068,148 1063,145 1060,144 1058,143 1057,143 1057,144 1054,136 1049,127 1044,117 1039,107 1035,98 1031,90 1028,85 1027,83 1032,73 1036,63 1037,56 1038,53 1031,51 1025,50 1019,49 1015,49 1012,49 1009,50 1008,50 1007,50 1002,36 996,25 991,17 985,10 980,6 975,4 970,3 966,4 958,8 950,14 943,22 937,31 933,39 929,46 927,51 926,53 920,53 914,54 908,54 903,54 898,54 895,54 893,54 892,54 896,68 900,79 903,86 905,87 902,94 897,103 891,113 886,122 881,131 876,138 873,143 872,145 863,147 855,149 849,150 847,151 853,163 858,173 861,180 862,182 856,204 849,232 843,257 841,267 836,269 829,271 823,274 817,278 811,281 806,283 803,285 802,286 810,296 817,305 822,311 824,314 821,339 817,366 813,389 812,398 806,399 799,401 792,404 785,406 779,408 774,410 771,412 770,412 775,418 781,424 786,430 791,436 796,441 799,445 801,448 802,449 799,480 796,519 792,553 791,567 784,571 778,576 772,581 767,586 763,590 760,594 758,596 757,597 764,603 770,609 776,615 781,620 785,625 788,628 789,630 790,631 790,669 793,719 800,767 811,800 796,792 778,783 757,775 735,766 713,758 692,750 674,744 659,740 657,737 651,728 643,715 635,699 634,699 631,701 627,703 622,706 616,710 609,715 603,720 597,726 593,725 583,723 567,721 549,717 529,714 510,711 493,708 480,706 477,702 470,692 461,679 453,665 450,669 443,678 434,690 426,702 424,702 417,701 407,700 395,698 382,696 368,695 355,693 344,692 342,689 336,682 329,673 321,664 318,667 310,676 301,686 294,696 291,696 283,695 272,695 258,694 243,694 229,694 216,694 206,695 204,693 198,687 190,679 180,671 179,673 176,678 172,686 169,695 167,696 161,697 153,699 143,702 132,705 122,707 112,708 104,709 104,708 103,707 100,705 96,702 92,699 87,696 81,693 75,689 74,692 72,699 69,710 64,722 62,722 57,723 49,725 40,728 30,731 21,735 13,741 7,747 5,752 4,757 5,763 8,769 13,776 20,783 29,791 41,800 40,802 38,808 35,817 34,831 35,831 37,831 40,832 45,832 50,831 55,831 61,829 67,827 69,828 73,832 79,838 87,845 95,853 103,860 111,867 118,872 117,874 119,880 121,890 122,901 123,901 125,900 129,899 133,897 139,896 144,894 150,893 156,891 158,892 164,897 172,902 183,910 194,917 206,925 217,932 227,938 226,940 225,947 224,957 224,969 225,969 228,968 233,968 239,967 245,966 252,965 259,963 266,962 268,963 274,966 283,971 294,976 306,983 320,990 333,997 345,1003 345,1008 344,1021 345,1037 349,1054 350,1052 354,1051 360,1049 368,1047 376,1044 385,1042 394,1040 402,1037 405,1038 412,1042 423,1048 436,1055 451,1063 466,1071 481,1078 494,1084 494,1087 495,1094 498,1105 503,1120 504,1120 506,1119 509,1118 514,1116 519,1114 525,1111 531,1108 538,1105 539,1105 543,1107 549,1109 557,1112 567,1115 579,1118 591,1122 605,1126 619,1130 633,1134 648,1138 663,1141 677,1144 691,1146 704,1147 716,1148 700,1161 684,1177 668,1196 653,1217 639,1239 625,1260 613,1281 602,1299 594,1301 587,1303 581,1305 575,1307 570,1309 567,1310 565,1311 564,1311 570,1325 575,1336 579,1342 581,1344 574,1357 568,1371 561,1387 555,1402 549,1416 545,1428 542,1435 541,1438 533,1441 524,1445 516,1449 508,1452 500,1456 495,1458 491,1459 489,1459 496,1474 506,1487 514,1496 517,1500 511,1513 505,1527 499,1540 494,1553 489,1564 485,1573 482,1579 481,1581 475,1585 469,1588 463,1592 458,1596 453,1599 449,1602 447,1603 446,1604 454,1613 460,1620 465,1625 467,1626 460,1649 452,1676 446,1699 443,1709 438,1711 432,1713 426,1715 421,1717 417,1719 413,1720 411,1721 410,1721 416,1731 421,1740 425,1746 426,1746 423,1765 420,1787 417,1806 416,1814 404,1819 396,1825 390,1830 388,1832 397,1841 405,1847 410,1850 412,1851 407,1878 407,1896 412,1907 420,1913 429,1915 439,1914 449,1912 458,1908 467,1904 474,1900 478,1897 480,1896 486,1899 491,1903 497,1906 501,1909 505,1911 508,1913 509,1915 510,1915 514,1903 517,1892 519,1884 518,1881 525,1877 534,1872 544,1867 554,1863 563,1859 571,1855 576,1853 578,1852 586,1857 594,1860 600,1862 602,1863 604,1851 606,1840 607,1832 608,1829 616,1822 625,1814 636,1804 647,1794 657,1785 665,1777 671,1772 673,1770 679,1772 685,1774 692,1775 699,1776 706,1777 711,1778 715,1778 716,1778 716,1766 716,1755 716,1746 716,1743 723,1734 732,1725 742,1714 751,1705 759,1696 766,1689 771,1684 773,1682 779,1684 786,1686 793,1688 800,1690 806,1692 811,1693 814,1694 815,1694 814,1678 813,1662 811,1650 811,1645 820,1634 832,1621 844,1606 858,1591 870,1577 880,1565 886,1557 889,1554 897,1555 905,1555 912,1555 920,1554 926,1553 931,1552 934,1551 935,1551 931,1533 928,1518 927,1507 926,1503 935,1491 947,1473 960,1453 974,1430 986,1408 996,1386 1002,1368 1004,1354"/>
<polygon class="pen1 brush0" points="990,1051 865,1024 936,942 990,1051"/>
<polygon class="pen1 brush0" points="1020,1091 960,1202 1068,1202 1020,1091"/>
<polygon class="pen1 brush0" points="1047,1046 1172,1019 1101,935 1047,1046"/>
</g>
</svg>
