<?xml version="1.0" encoding="UTF-8" standalone="no"?>
<!DOCTYPE svg PUBLIC "-//W3C//DTD SVG 1.0//EN" "http://www.w3.org/TR/2001/REC-SVG-20010904/DTD/svg10.dtd">
<svg xmlns="http://www.w3.org/2000/svg" xmlns:xlink="http://www.w3.org/1999/xlink" fill-rule="evenodd" height="1.125in" preserveAspectRatio="none" stroke-linecap="round" viewBox="0 0 1979 1125" width="1.979in">
<style type="text/css">
.brush0 { fill: rgb(255,255,255); }
.pen0 { stroke: rgb(0,0,0); stroke-width: 1; stroke-linejoin: round; }
.brush1 { fill: none; }
.pen1 { stroke: none; }
.brush2 { fill: rgb(0,0,0); }
</style>
<g>
<polygon class="pen1 brush2" points="1142,700 1133,712 1125,726 1120,742 1117,761 1114,762 1106,764 1094,767 1076,771 1055,776 1030,780 1002,785 970,788 937,791 901,793 863,792 824,791 784,786 743,780 702,770 661,757 660,752 658,738 651,717 639,692 648,692 662,691 681,691 704,690 731,690 762,689 796,689 832,689 869,689 909,689 949,690 989,691 1029,693 1068,695 1106,697 1142,700"/>
<polygon class="pen1 brush2" points="1330,927 1332,926 1337,922 1345,916 1354,908 1362,899 1369,889 1373,879 1374,869 1457,923 1411,919 1455,1030 1398,966 1396,1122 1365,976 1311,1125 1332,973 1260,1031 1330,927 1330,927"/>
<polygon class="pen1 brush2" points="84,426 69,427 57,430 45,432 35,436 27,440 20,444 14,448 10,453 5,465 4,478 6,492 13,507 17,509 23,513 30,517 38,521 46,526 56,531 66,536 77,542 89,547 100,553 112,558 125,563 137,568 149,572 161,575 173,578 153,578 132,574 111,569 91,562 72,555 55,547 41,539 29,533 37,542 45,552 54,562 64,571 74,581 85,590 96,599 107,608 126,621 150,634 178,645 209,655 242,664 276,673 311,680 346,687 380,692 412,697 441,701 467,704 489,707 505,709 515,710 519,710 526,732 526,758 521,785 513,812 503,837 493,857 486,870 483,875 477,887 478,898 485,908 494,918 504,926 514,932 521,936 524,937 540,932 554,921 568,907 580,889 592,869 603,847 613,824 622,801 631,773 633,744 631,717 627,692 620,671 614,654 609,643 607,639 612,644 617,649 621,654 626,659 629,664 633,669 636,674 638,679 646,679 659,679 677,678 700,678 727,677 758,677 792,677 828,677 866,677 906,677 946,678 987,679 1027,681 1067,683 1105,686 1142,689 1153,678 1165,669 1176,663 1186,658 1195,655 1203,653 1207,652 1209,652 1189,666 1173,684 1161,703 1152,724 1146,746 1143,768 1143,789 1145,810 1149,827 1156,842 1166,855 1177,866 1191,876 1205,884 1220,891 1235,896 1250,900 1265,904 1278,906 1290,908 1301,909 1308,910 1313,910 1315,910 1326,905 1336,898 1343,889 1349,881 1353,872 1356,866 1358,861 1358,859 1349,853 1340,849 1332,844 1324,839 1317,832 1312,822 1308,808 1307,790 1309,769 1316,750 1327,733 1339,719 1351,707 1362,698 1369,692 1372,690 1425,683 1474,675 1521,666 1564,657 1605,648 1643,638 1678,627 1711,616 1742,604 1770,592 1796,580 1819,567 1841,553 1860,540 1878,525 1894,511 1910,494 1923,477 1935,459 1944,440 1952,422 1958,403 1963,383 1966,364 1969,335 1970,308 1968,283 1964,259 1957,237 1948,217 1936,198 1922,180 1909,166 1894,152 1877,140 1859,128 1840,118 1819,108 1797,99 1773,91 1747,84 1721,79 1693,76 1664,76 1634,77 1603,80 1570,85 1535,90 1499,97 1462,105 1422,113 1381,122 1338,130 1292,139 1245,147 1195,155 1146,160 1101,160 1060,155 1023,147 990,136 960,123 934,108 911,92 891,76 874,59 860,44 849,30 841,18 835,8 832,2 831,0 837,28 848,54 863,78 882,99 904,118 928,134 954,149 982,161 1011,172 1040,181 1070,188 1098,194 1126,198 1151,201 1174,202 1195,203 1216,202 1241,200 1269,196 1300,191 1334,185 1370,179 1407,172 1445,166 1483,159 1521,154 1559,149 1595,145 1629,142 1662,141 1691,142 1717,145 1741,150 1763,156 1783,163 1802,171 1819,181 1835,192 1849,204 1860,217 1870,231 1878,246 1885,262 1889,279 1891,297 1892,316 1890,335 1886,355 1872,394 1849,427 1818,455 1781,478 1740,496 1694,510 1647,520 1599,527 1551,532 1505,534 1463,535 1425,534 1393,533 1369,532 1354,531 1348,530 1304,506 1261,484 1218,465 1176,449 1135,434 1094,422 1054,412 1014,403 976,397 938,392 901,388 866,386 831,385 798,386 766,387 735,389 706,393 678,396 652,401 627,406 603,411 582,416 562,421 544,427 528,432 514,437 502,441 491,445 483,448 478,451 474,452 473,453 427,426 384,406 344,391 306,381 272,375 240,374 211,375 184,379 161,385 141,392 124,400 109,408 98,415 90,421 86,425 84,426 84,426"/>
<polygon class="pen1 brush2" points="459,893 460,895 462,902 467,910 473,921 481,931 491,941 503,948 517,952 499,1023 490,984 449,1041 466,977 401,1028 443,963 379,994 429,933 381,927 459,893"/>
<polygon class="pen1 brush0" points="1239,596 1246,594 1252,588 1254,582 1254,574 1252,567 1247,562 1240,559 1232,558 1224,561 1218,566 1216,573 1216,581 1218,588 1223,593 1230,596 1239,596 1239,596"/>
<polygon class="pen1 brush0" points="1149,601 1158,597 1165,591 1169,583 1169,574 1165,565 1159,558 1151,554 1142,554 1133,558 1126,564 1121,572 1121,581 1125,590 1132,597 1140,601 1149,601 1149,601"/>
<polygon class="pen1 brush0" points="1063,604 1073,600 1080,592 1085,582 1085,571 1083,565 1081,560 1077,556 1073,552 1068,550 1063,548 1058,547 1053,548 1042,552 1034,560 1030,570 1030,581 1032,586 1034,591 1038,595 1042,598 1046,601 1052,603 1057,604 1063,604 1063,604"/>
<polygon class="pen1 brush0" points="966,602 972,600 978,597 983,593 987,588 990,583 992,577 993,571 993,565 991,559 988,553 984,547 980,543 974,540 968,538 962,537 955,537 948,539 942,542 937,546 933,551 930,557 928,562 928,569 928,575 930,582 933,588 937,593 942,597 948,600 953,602 960,602 966,602 966,602"/>
<polygon class="pen1 brush0" points="855,596 862,595 868,592 873,588 877,583 880,578 882,572 882,565 882,558 880,552 877,546 873,541 868,537 862,534 857,532 850,531 844,531 837,533 831,536 826,540 822,545 819,551 817,556 817,563 817,569 819,576 822,582 826,587 831,591 836,594 842,596 849,596 855,596 855,596"/>
<polygon class="pen1 brush0" points="746,588 757,584 765,576 770,566 770,555 768,550 766,545 762,541 758,538 753,535 748,533 742,533 736,533 726,537 718,544 713,554 713,565 715,571 717,576 721,580 725,584 730,586 735,588 741,589 746,588 746,588"/>
<polygon class="pen1 brush0" points="645,575 654,572 661,566 665,558 665,548 661,539 655,533 647,530 638,530 629,533 622,539 618,548 618,558 622,566 628,572 636,575 645,575 645,575"/>
<polygon class="pen1 brush0" points="557,567 564,564 570,558 573,552 574,544 571,537 565,532 558,529 550,528 543,531 538,537 535,544 534,551 537,558 543,563 550,566 557,567"/>
<polygon class="pen1 brush0" points="193,524 200,522 206,519 211,515 215,511 218,505 219,500 220,493 219,487 217,481 214,475 211,469 206,465 201,462 195,460 189,459 182,460 170,465 162,473 157,484 156,497 158,503 161,509 165,513 169,517 175,520 180,523 187,524 193,524"/>
</g>
</svg>
