<?xml version="1.0" encoding="UTF-8" standalone="no"?>
<!DOCTYPE svg PUBLIC "-//W3C//DTD SVG 1.0//EN" "http://www.w3.org/TR/2001/REC-SVG-20010904/DTD/svg10.dtd">
<svg xmlns="http://www.w3.org/2000/svg" xmlns:xlink="http://www.w3.org/1999/xlink" fill-rule="evenodd" height="1.979in" preserveAspectRatio="none" stroke-linecap="round" viewBox="0 0 1252 1979" width="1.252in">
<style type="text/css">
.brush0 { fill: rgb(255,255,255); }
.pen0 { stroke: rgb(0,0,0); stroke-width: 1; stroke-linejoin: round; }
.brush1 { fill: none; }
.pen1 { stroke: none; }
.brush2 { fill: rgb(0,0,0); }
</style>
<g>
<polygon class="pen1 brush2" points="269,710 275,646 280,645 292,640 307,634 322,624 331,612 332,597 319,580 289,561 268,553 247,548 225,548 204,551 185,558 167,568 151,581 138,597 129,616 124,638 124,662 129,688 140,716 157,747 182,779 214,812 212,808 207,797 203,781 201,763 204,745 214,728 235,716 269,710 269,710"/>
<polygon class="pen1 brush2" points="303,650 326,650 321,703 311,736 298,754 284,760 270,757 258,751 249,744 246,741 262,738 274,731 283,720 291,708 296,694 299,679 302,664 303,650 303,650"/>
<polygon class="pen1 brush2" points="12,254 14,281 17,305 21,325 26,344 32,361 39,378 49,395 60,414 57,403 55,376 52,337 51,290 52,241 55,193 61,152 71,122 71,127 70,142 70,164 71,194 73,229 79,268 87,309 100,352 99,341 99,311 100,268 105,215 115,158 132,101 158,50 195,8 192,15 183,35 171,65 159,104 149,150 142,200 142,252 151,304 153,293 160,265 172,223 188,174 209,122 234,72 263,30 296,0 292,7 281,25 266,53 250,89 236,130 226,175 224,220 232,265 233,264 236,258 241,248 248,236 257,220 267,202 278,182 290,162 303,141 318,120 333,99 348,80 364,62 380,47 396,34 412,25 407,32 393,51 373,80 350,115 328,154 309,192 296,229 293,260 295,258 299,253 306,244 316,233 328,220 341,205 356,189 372,173 389,156 406,140 423,124 441,110 457,97 473,87 488,79 502,75 496,80 481,94 460,115 436,141 411,171 389,202 372,232 364,260 366,259 370,255 377,250 387,243 398,235 412,226 427,217 444,206 461,196 480,186 499,176 519,168 539,160 559,153 579,149 598,146 596,147 590,150 581,155 570,162 556,171 540,180 523,191 506,202 488,215 471,228 455,241 440,254 427,267 416,280 408,292 404,304 405,303 409,300 416,296 425,290 435,283 448,276 462,268 478,260 495,253 514,245 533,239 553,233 573,229 593,226 614,226 635,227 633,227 629,229 622,231 612,234 601,238 588,242 574,248 560,253 545,260 530,267 516,274 502,281 490,289 479,298 470,306 464,315 466,315 470,314 478,312 488,311 499,309 513,308 527,306 543,305 559,304 575,304 591,305 607,306 622,309 635,312 647,317 657,324 656,324 652,324 646,324 638,324 629,324 618,325 606,326 593,327 580,328 566,330 552,333 539,336 526,340 513,345 502,350 492,356 494,356 498,356 505,355 515,355 526,355 539,355 553,356 568,357 583,360 598,363 613,367 627,373 641,380 653,388 663,398 671,410 668,409 658,407 644,404 626,401 605,399 583,399 560,401 539,406 543,406 554,406 570,407 590,411 612,418 634,430 656,449 674,474 671,473 662,470 648,467 631,464 613,462 596,463 581,467 569,476 572,476 579,475 590,476 604,479 619,485 637,497 654,514 671,538 661,531 650,529 641,530 632,534 625,538 621,543 619,546 621,548 666,560 707,575 745,595 781,618 814,646 844,679 872,715 898,756 921,802 943,852 962,906 980,966 997,1030 1012,1099 1026,1172 1039,1251 1035,1245 1024,1228 1005,1201 981,1167 951,1128 918,1084 881,1038 842,991 803,946 763,904 724,867 686,836 652,814 622,802 596,802 576,815 579,815 587,818 600,822 618,830 641,841 669,858 700,880 736,909 775,946 818,991 864,1045 913,1109 964,1183 1019,1270 1075,1369 1134,1481 1133,1483 1129,1485 1121,1487 1110,1488 1096,1488 1080,1487 1060,1485 1038,1482 1015,1478 989,1473 961,1466 932,1459 901,1450 870,1439 837,1427 804,1413 770,1397 737,1379 703,1360 669,1338 636,1315 603,1289 571,1261 540,1230 511,1197 483,1162 456,1124 432,1083 409,1040 389,994 372,944 357,892 353,878 349,858 345,833 342,803 341,769 343,730 348,688 357,643 359,628 359,614 356,601 352,588 346,577 338,567 328,557 318,549 306,542 293,536 280,531 265,527 251,525 235,525 220,526 205,528 174,537 151,546 132,553 117,557 104,555 91,546 77,527 60,497 47,471 35,446 25,422 17,399 10,378 5,358 3,340 3,324 6,295 9,273 11,259 12,254 12,254"/>
<polygon class="pen1 brush2" points="635,1555 573,1480 616,1472 646,1458 666,1441 679,1423 684,1405 686,1390 686,1380 685,1376 672,1376 657,1376 643,1376 629,1375 617,1375 607,1375 600,1375 598,1375 597,1401 588,1421 574,1435 557,1445 540,1452 525,1455 514,1457 510,1457 408,1564 506,1657 472,1565 529,1512 596,1565 580,1618 635,1555 635,1555"/>
<polygon class="pen1 brush2" points="803,1441 796,1937 797,1945 801,1953 807,1960 814,1967 822,1972 831,1976 841,1978 850,1979 859,1979 868,1978 876,1976 883,1973 889,1969 894,1965 897,1959 898,1952 908,1649 952,1940 955,1949 960,1957 968,1963 977,1969 987,1973 998,1976 1009,1978 1019,1979 1030,1978 1041,1975 1051,1972 1060,1967 1067,1961 1071,1953 1074,1944 1073,1933 1022,1643 1120,1935 1122,1942 1124,1949 1127,1956 1132,1963 1140,1970 1151,1975 1167,1978 1188,1979 1208,1977 1221,1973 1229,1966 1232,1957 1231,1948 1229,1939 1225,1930 1222,1923 1059,1511 1041,1509 1022,1507 1004,1504 987,1501 969,1497 952,1493 935,1488 919,1483 903,1479 888,1473 873,1468 859,1463 845,1458 833,1453 821,1448 810,1444 803,1441"/>
<polygon class="pen1 brush0" points="333,501 342,499 350,494 355,486 357,476 355,467 350,459 342,453 333,451 323,453 315,459 309,467 307,476 309,486 315,494 323,499 333,501"/>
</g>
</svg>
