<?xml version="1.0" encoding="UTF-8" standalone="no"?>
<!DOCTYPE svg PUBLIC "-//W3C//DTD SVG 1.0//EN" "http://www.w3.org/TR/2001/REC-SVG-20010904/DTD/svg10.dtd">
<svg xmlns="http://www.w3.org/2000/svg" xmlns:xlink="http://www.w3.org/1999/xlink" fill-rule="evenodd" height="0.739in" preserveAspectRatio="none" stroke-linecap="round" viewBox="0 0 1980 739" width="1.98in">
<style type="text/css">
.brush0 { fill: rgb(255,255,255); }
.pen0 { stroke: rgb(0,0,0); stroke-width: 1; stroke-linejoin: round; }
.brush1 { fill: none; }
.pen1 { stroke: none; }
.brush2 { fill: rgb(0,0,0); }
</style>
<g>
<polygon class="pen1 brush2" points="225,219 218,216 209,213 198,209 186,206 172,202 157,198 142,193 126,188 110,183 95,177 80,171 66,164 54,156 43,148 34,138 27,128 15,96 14,83 19,80 22,81 28,78 38,75 49,70 62,65 77,59 93,52 110,46 127,39 144,32 161,26 178,20 193,15 207,10 219,7 229,4 237,3 252,3 269,3 288,6 308,9 330,15 352,22 373,32 394,43 405,50 418,59 433,69 450,79 468,90 489,100 511,110 534,119 559,128 586,134 614,138 643,141 674,140 706,136 739,129 773,118 799,109 824,101 850,93 875,87 900,82 925,78 950,75 974,74 999,73 1022,74 1046,75 1069,78 1092,82 1115,87 1137,93 1159,100 1180,109 1201,119 1221,130 1240,142 1260,156 1278,170 1296,187 1313,204 1330,222 1346,242 1361,263 1375,286 1389,310 1402,335 1414,361 1425,389 1428,393 1433,400 1440,409 1450,418 1462,429 1476,439 1493,450 1511,459 1531,468 1554,474 1578,479 1604,480 1632,479 1662,474 1693,464 1726,450 1748,437 1768,422 1785,405 1800,385 1812,365 1822,343 1828,321 1831,298 1831,276 1827,255 1819,234 1807,216 1791,199 1771,185 1746,173 1716,165 1718,164 1723,162 1732,159 1743,156 1757,153 1772,151 1789,149 1808,149 1827,152 1847,156 1867,164 1886,175 1905,190 1923,209 1940,234 1955,263 1968,300 1975,336 1975,370 1969,402 1963,420 1954,438 1944,455 1932,471 1918,487 1903,501 1886,514 1868,526 1845,539 1820,549 1794,558 1767,566 1739,571 1710,575 1680,577 1650,576 1619,574 1588,569 1558,562 1527,553 1497,541 1468,527 1439,511 1411,492 1411,493 1410,497 1408,503 1405,511 1401,519 1395,529 1388,540 1378,551 1367,562 1353,572 1336,582 1317,591 1295,598 1269,603 1240,606 1208,607 1176,607 1149,606 1125,606 1106,606 1091,606 1078,606 1069,606 1062,606 1057,606 1054,606 1052,606 1051,607 1052,607 1052,607 1053,607 1053,607 951,695 951,655 881,689 925,629 878,624 1056,553 1043,509 1037,466 1039,425 1048,386 1065,351 1090,321 1125,297 1168,280 1144,279 1123,282 1104,288 1087,297 1071,309 1058,323 1046,339 1036,356 1028,375 1021,395 1016,415 1011,435 1009,456 1007,476 1006,496 1006,514 1004,514 999,515 991,516 980,518 965,519 949,520 930,522 908,522 885,522 860,521 833,520 805,517 775,513 745,508 713,501 681,492 679,498 673,515 662,542 646,575 625,613 597,655 564,697 523,739 526,689 463,729 486,682 419,702 466,673 499,642 520,609 529,575 528,540 519,505 502,469 479,434 451,400 420,367 386,336 351,307 316,280 282,256 252,236 225,219"/>
<polygon class="pen1 brush0" points="202,111 210,109 217,105 221,98 223,90 221,81 217,74 210,69 202,67 194,69 187,74 183,81 181,90 183,98 187,105 194,109 202,111"/>
<polygon class="pen1 brush0" points="283,57 308,55 326,60 336,70 340,82 338,96 331,109 320,121 306,128 314,117 318,106 319,95 317,84 312,75 304,67 295,61 283,57"/>
</g>
</svg>
