<?xml version="1.0" encoding="UTF-8" standalone="no"?>
<!DOCTYPE svg PUBLIC "-//W3C//DTD SVG 1.0//EN" "http://www.w3.org/TR/2001/REC-SVG-20010904/DTD/svg10.dtd">
<svg xmlns="http://www.w3.org/2000/svg" xmlns:xlink="http://www.w3.org/1999/xlink" fill-rule="evenodd" height="1.67in" preserveAspectRatio="none" stroke-linecap="round" viewBox="0 0 1981 1670" width="1.981in">
<style type="text/css">
.brush0 { fill: rgb(255,255,255); }
.pen0 { stroke: rgb(0,0,0); stroke-width: 1; stroke-linejoin: round; }
.brush1 { fill: none; }
.pen1 { stroke: none; }
.brush2 { fill: rgb(0,0,0); }
</style>
<g>
<polygon class="pen1 brush2" points="217,1307 202,1279 184,1239 167,1188 154,1128 147,1059 150,983 165,902 197,816 210,791 225,764 243,736 263,708 285,679 307,650 331,621 354,593 377,566 400,540 421,516 440,494 457,474 472,457 483,443 491,432 503,410 512,382 518,352 520,320 518,290 510,263 495,241 473,226 449,220 427,222 409,230 392,242 376,257 361,274 346,290 329,304 311,315 293,322 275,327 258,329 243,329 232,329 224,328 221,328 211,141 212,139 215,135 221,128 228,119 238,108 249,96 263,84 278,70 295,57 314,45 334,33 356,22 380,13 405,6 432,2 460,0 488,1 515,5 540,11 563,19 584,29 603,41 621,54 637,69 651,85 664,102 674,120 684,139 691,158 697,178 701,199 704,219 708,257 709,290 708,317 705,340 700,360 694,379 687,397 679,415 672,428 661,447 646,470 627,498 607,529 584,562 560,597 535,632 511,668 487,702 465,735 445,765 427,792 413,815 403,832 397,844 392,861 388,879 385,898 385,917 387,936 393,956 403,975 417,993 426,1001 437,1008 448,1013 459,1017 471,1019 484,1019 497,1019 510,1018 523,1015 537,1012 550,1008 562,1004 575,999 587,994 598,988 608,983 621,974 642,959 669,938 702,913 739,883 780,851 824,817 870,781 917,746 965,711 1012,678 1058,648 1101,621 1142,599 1179,582 1211,571 1241,564 1270,559 1300,555 1329,552 1358,549 1386,548 1414,547 1441,547 1467,548 1492,549 1516,551 1538,554 1559,557 1579,560 1597,563 1613,567 1611,568 1606,570 1598,574 1588,580 1576,586 1562,594 1548,603 1533,612 1517,622 1503,633 1489,645 1476,657 1465,669 1456,681 1450,694 1447,706 1450,706 1458,704 1470,703 1487,701 1507,699 1531,697 1557,695 1585,693 1615,693 1645,692 1677,693 1708,695 1738,699 1768,704 1796,710 1822,719 1820,720 1814,723 1804,727 1792,733 1777,740 1760,747 1742,756 1723,765 1703,775 1684,785 1665,795 1647,804 1631,813 1616,822 1605,830 1596,837 1600,837 1610,837 1626,836 1647,836 1672,836 1700,836 1731,836 1763,836 1796,837 1829,838 1862,839 1892,840 1920,842 1945,845 1965,848 1981,852 1978,853 1971,855 1961,859 1947,864 1930,871 1910,879 1888,889 1865,901 1839,914 1813,930 1786,947 1758,966 1730,987 1703,1011 1676,1036 1650,1063 1649,1065 1648,1070 1645,1078 1640,1089 1635,1103 1628,1119 1620,1137 1610,1158 1599,1180 1587,1204 1572,1229 1557,1255 1540,1282 1521,1309 1500,1338 1478,1366 1454,1394 1429,1422 1401,1450 1372,1477 1341,1503 1307,1528 1272,1551 1235,1573 1196,1593 1155,1611 1112,1627 1066,1641 1019,1651 969,1659 917,1664 863,1665 772,1661 690,1651 617,1636 552,1616 494,1592 443,1565 399,1537 362,1506 329,1475 302,1445 279,1415 261,1387 246,1361 234,1339 224,1320 217,1307 217,1307"/>
<polygon class="pen1 brush2" points="187,172 185,176 180,187 172,203 162,222 151,242 140,262 129,280 120,294 108,310 95,325 82,339 68,352 55,364 42,375 29,386 17,395 8,405 3,415 3,426 7,435 10,439 14,442 18,445 22,447 27,449 33,450 39,449 45,448 59,440 79,426 103,408 128,389 151,369 171,353 185,341 190,337 187,172"/>
<polygon class="pen1 brush0" points="1010,1013 967,1093 970,1091 980,1086 995,1079 1016,1068 1041,1056 1070,1043 1102,1028 1138,1013 1176,997 1216,982 1257,967 1299,954 1342,942 1384,931 1425,923 1465,918 1460,920 1447,924 1426,932 1398,943 1364,956 1324,972 1281,991 1235,1011 1187,1034 1137,1058 1087,1084 1038,1112 990,1141 944,1171 903,1203 865,1235 865,1228 870,1214 878,1195 887,1173 896,1151 905,1132 911,1119 913,1114 910,1115 902,1119 889,1126 873,1134 853,1144 830,1156 805,1169 779,1183 753,1198 726,1214 700,1229 675,1245 653,1261 633,1276 616,1290 603,1304 605,1301 612,1292 623,1278 637,1260 656,1239 677,1215 701,1190 729,1163 758,1137 790,1111 823,1086 859,1064 895,1045 933,1029 971,1018 1010,1013"/>
<polygon class="pen1 brush0" points="295,182 301,181 307,180 312,177 316,174 320,169 323,165 324,160 325,154 324,148 323,142 320,137 316,133 312,129 307,126 301,125 295,124 284,126 275,133 269,142 267,154 269,165 275,174 284,180 295,182"/>
</g>
</svg>
