<?xml version="1.0" encoding="UTF-8" standalone="no"?>
<!DOCTYPE svg PUBLIC "-//W3C//DTD SVG 1.0//EN" "http://www.w3.org/TR/2001/REC-SVG-20010904/DTD/svg10.dtd">
<svg xmlns="http://www.w3.org/2000/svg" xmlns:xlink="http://www.w3.org/1999/xlink" fill-rule="evenodd" height="0.96in" preserveAspectRatio="none" stroke-linecap="round" viewBox="0 0 1969 960" width="1.969in">
<style type="text/css">
.brush0 { fill: rgb(255,255,255); }
.pen0 { stroke: rgb(0,0,0); stroke-width: 1; stroke-linejoin: round; }
.brush1 { fill: none; }
.pen1 { stroke: none; }
.brush2 { fill: rgb(0,0,0); }
</style>
<g>
<polygon class="pen1 brush2" points="1804,575 1771,596 1796,621 1801,632 1814,660 1832,700 1853,746 1875,794 1895,838 1911,873 1919,892 1916,890 1909,883 1898,873 1882,860 1864,844 1844,826 1822,806 1799,785 1775,764 1752,742 1729,720 1708,700 1688,680 1671,663 1658,647 1648,635 1647,637 1643,640 1637,645 1630,650 1622,654 1613,655 1603,653 1594,646 1593,647 1590,650 1585,654 1580,657 1573,659 1565,658 1558,654 1550,646 1549,648 1547,652 1544,657 1539,662 1532,666 1525,667 1517,664 1507,656 1506,657 1504,661 1501,666 1496,670 1490,674 1482,674 1473,671 1463,663 1462,665 1460,668 1457,673 1453,678 1447,682 1439,683 1430,680 1419,673 1418,675 1415,679 1411,684 1405,689 1397,692 1389,692 1379,689 1368,679 1367,681 1364,685 1359,691 1352,697 1344,701 1335,702 1325,698 1314,689 1313,691 1310,695 1306,700 1300,704 1293,707 1284,706 1274,701 1263,689 1260,692 1253,700 1245,713 1240,732 1239,757 1247,787 1265,823 1298,865 1297,864 1294,864 1289,863 1283,863 1276,862 1267,860 1257,857 1246,853 1233,848 1219,840 1203,830 1186,818 1168,803 1148,785 1127,764 1105,739 1100,740 1087,741 1065,743 1037,746 1004,749 966,752 925,755 881,758 837,760 792,762 748,762 707,762 668,760 635,756 606,751 584,744 585,753 587,774 587,800 584,823 574,835 555,829 526,796 483,729 471,726 460,723 449,720 438,718 427,715 417,712 406,710 396,707 403,704 413,699 423,694 434,689 443,685 451,681 457,678 459,677 429,666 427,667 422,670 414,674 404,679 392,683 379,687 365,689 351,689 342,688 331,684 317,678 300,670 281,659 260,648 238,634 214,620 189,604 163,587 136,570 109,552 81,534 54,516 27,498 0,480 2,479 8,475 17,469 28,463 43,457 59,451 78,447 98,446 98,446 98,446 96,443 92,438 87,432 80,423 71,413 61,402 48,388 34,373 37,371 46,366 61,359 81,349 105,338 133,326 165,313 200,299 238,287 277,274 319,263 361,254 405,247 448,243 491,241 534,244 538,236 548,214 564,181 585,143 608,101 633,61 658,26 683,0 683,2 684,8 686,17 690,29 695,43 703,60 713,79 727,100 743,122 763,145 787,169 815,192 849,216 887,240 931,262 980,284 984,281 991,277 1001,272 1014,266 1029,259 1047,252 1065,244 1086,237 1108,230 1131,223 1154,218 1178,213 1202,210 1226,208 1250,208 1273,210 1266,212 1250,217 1227,227 1203,242 1182,263 1168,290 1166,324 1179,365 1183,370 1188,372 1194,374 1202,375 1210,377 1220,382 1229,390 1239,403 1242,406 1246,406 1252,404 1259,403 1267,403 1275,407 1283,415 1290,429 1293,431 1298,432 1304,431 1312,430 1320,430 1328,432 1335,437 1340,446 1332,446 1338,446 1339,447 1340,448 1341,451 1341,453 1343,455 1347,453 1352,450 1358,448 1365,447 1373,449 1382,457 1391,471 1394,473 1399,472 1406,470 1415,468 1423,468 1432,471 1439,480 1445,494 1447,496 1452,495 1459,492 1467,490 1476,490 1484,493 1491,500 1496,513 1498,514 1503,513 1510,510 1517,508 1525,508 1532,510 1539,518 1544,531 1546,532 1550,530 1555,528 1562,525 1568,524 1576,526 1582,532 1588,543 1591,545 1596,543 1601,539 1608,535 1616,533 1624,534 1633,541 1642,555 1663,541 1683,527 1704,514 1724,500 1745,486 1765,472 1786,459 1806,445 1827,431 1847,417 1867,404 1888,390 1908,376 1928,362 1949,348 1969,334 1959,349 1949,364 1938,379 1928,394 1918,409 1908,424 1897,439 1887,454 1877,469 1866,484 1856,499 1845,514 1835,529 1825,545 1814,560 1804,575"/>
<polygon class="pen1 brush0" points="520,466 546,471 571,475 595,480 619,484 641,488 663,493 685,497 706,501 728,505 749,509 771,512 793,516 816,520 839,524 863,528 889,532 915,536 943,540 973,544 1004,548 1037,552 1072,556 1109,560 1148,565 1190,569 1234,574 1282,579 1332,584 1385,589 1442,594 1501,599 1565,605 1536,612 1506,620 1475,627 1442,635 1409,642 1375,650 1340,657 1305,664 1269,671 1232,678 1195,684 1157,691 1119,696 1081,702 1043,707 1005,711 967,715 929,718 892,721 854,723 817,724 781,725 745,724 709,723 675,721 641,718 608,714 576,709 545,702 515,695 486,687 459,677 429,666 455,652 478,634 497,612 511,588 521,561 526,531 526,499 520,466"/>
<polygon class="pen1 brush0" points="220,436 226,435 232,434 238,431 243,427 247,422 250,417 252,411 253,405 252,398 250,392 247,386 243,381 238,377 232,374 226,373 220,372 214,373 208,374 202,377 198,381 194,386 191,392 190,398 189,405 190,411 191,417 194,422 198,427 202,431 208,434 214,435 220,436"/>
<polygon class="pen1 brush2" points="543,615 556,615 569,614 582,614 594,615 606,615 618,616 629,617 640,619 651,621 662,623 673,626 683,629 693,632 703,637 713,641 722,646 716,656 706,651 696,647 686,644 676,640 666,637 656,634 645,632 635,630 624,628 614,626 603,625 592,624 581,623 570,622 559,622 547,622 543,615"/>
<polygon class="pen1 brush2" points="550,602 567,599 584,597 600,595 616,593 631,592 646,591 661,591 675,591 689,592 703,593 717,595 730,598 744,602 757,606 771,612 784,618 780,632 766,625 752,620 738,615 724,610 711,607 698,604 684,602 671,600 657,600 643,599 629,599 615,600 601,601 586,602 570,603 554,605 550,602"/>
<polygon class="pen1 brush2" points="563,578 581,574 596,569 611,565 624,561 637,558 648,555 660,553 671,551 683,550 695,549 709,550 723,551 739,553 756,557 775,561 797,567 793,581 775,575 759,571 743,567 729,565 716,563 703,562 691,562 679,563 667,564 655,566 643,568 630,570 616,573 601,577 585,580 567,584 563,578"/>
</g>
</svg>
