<?xml version="1.0" encoding="UTF-8" standalone="no"?>
<!DOCTYPE svg PUBLIC "-//W3C//DTD SVG 1.0//EN" "http://www.w3.org/TR/2001/REC-SVG-20010904/DTD/svg10.dtd">
<svg xmlns="http://www.w3.org/2000/svg" xmlns:xlink="http://www.w3.org/1999/xlink" fill-rule="evenodd" height="1.979in" preserveAspectRatio="none" stroke-linecap="round" viewBox="0 0 642 1979" width="0.642in">
<style type="text/css">
.brush0 { fill: rgb(255,255,255); }
.pen0 { stroke: rgb(0,0,0); stroke-width: 1; stroke-linejoin: round; }
.brush1 { fill: none; }
.pen1 { stroke: none; }
.brush2 { fill: rgb(0,0,0); }
</style>
<g>
<polygon class="pen1 brush2" points="302,0 308,7 325,25 348,54 375,92 402,136 426,187 444,241 452,298 456,301 463,309 473,322 485,339 499,359 513,383 528,410 542,438 556,468 567,500 577,531 584,563 587,595 587,625 581,654 571,681 568,683 560,689 546,697 528,706 506,716 481,726 452,735 420,741 386,745 350,744 313,738 275,727 236,708 198,682 159,647 122,602 113,586 105,564 99,536 95,502 92,465 93,424 96,380 102,334 111,288 125,241 142,195 164,150 190,107 222,67 259,31 302,0"/>
<polygon class="pen1 brush0" points="318,447 316,452 309,467 300,490 290,518 281,551 274,585 270,619 271,652 266,650 255,643 238,632 219,617 199,598 182,576 171,550 166,521 170,521 182,519 199,515 220,509 244,500 270,487 295,469 318,447 318,447"/>
<polygon class="pen1 brush0" points="288,45 265,69 243,95 223,124 205,154 189,186 174,218 162,250 152,282 144,314 138,344 135,372 134,398 135,421 139,441 146,456 155,468 164,472 177,471 193,467 212,458 232,447 254,434 277,419 299,403 322,387 343,371 362,355 380,341 394,329 405,320 412,314 415,312 415,273 403,230 383,185 358,142 333,104 310,73 294,53 288,45 288,45"/>
<polygon class="pen1 brush0" points="436,353 427,366 416,380 404,396 392,414 379,433 366,452 353,473 342,495 331,517 322,539 316,562 312,585 310,607 312,630 318,652 328,673 339,687 353,697 368,704 385,706 403,706 421,704 439,699 458,693 476,686 492,679 508,671 521,664 532,657 541,652 546,648 548,647 547,581 536,523 518,472 497,430 475,397 455,373 441,358 436,353"/>
<polygon class="pen1 brush2" points="301,470 299,474 294,486 287,503 279,525 271,551 265,577 262,604 263,629 259,627 250,622 236,614 221,603 206,589 192,572 183,552 179,530 182,530 192,528 206,525 223,519 243,512 263,501 283,488 301,470 301,470"/>
<polygon class="pen1 brush2" points="433,376 415,401 393,430 370,465 349,502 332,542 323,582 324,622 338,660 348,673 359,682 373,688 387,690 403,690 419,688 436,684 452,678 468,672 483,665 497,658 509,652 519,646 526,641 531,638 533,637 531,579 521,527 505,482 486,445 467,415 450,394 438,380 433,376 433,376"/>
<polygon class="pen1 brush2" points="287,68 266,89 246,113 228,139 211,166 196,194 183,223 172,252 163,281 156,309 151,336 148,362 147,385 148,406 152,424 158,439 166,450 174,453 186,453 200,448 217,440 235,430 255,418 275,405 295,390 315,375 334,361 352,347 367,334 380,324 390,315 397,310 399,308 399,273 389,234 371,194 349,155 327,121 307,93 293,75 287,68"/>
<polygon class="pen1 brush2" points="24,1749 25,1750 28,1751 33,1754 40,1756 48,1760 58,1763 69,1766 82,1768 95,1770 109,1770 124,1770 139,1768 155,1764 171,1758 187,1750 203,1739 204,1741 207,1749 207,1764 202,1786 205,1790 209,1801 210,1817 203,1837 205,1841 207,1852 208,1868 204,1886 206,1889 211,1898 213,1912 210,1930 200,1941 188,1950 175,1959 161,1966 146,1971 131,1976 116,1978 101,1979 91,1979 81,1978 70,1976 59,1973 48,1970 37,1965 25,1958 14,1950 12,1945 10,1933 10,1918 15,1904 13,1898 10,1884 11,1867 20,1852 18,1846 16,1831 17,1814 27,1800 24,1796 19,1784 17,1768 24,1749"/>
<polygon class="pen1 brush2" points="98,612 99,613 101,617 104,623 109,630 115,639 123,649 132,660 142,672 154,684 167,696 182,707 198,719 216,729 235,739 255,747 277,753 279,757 284,767 292,784 303,806 315,833 328,864 342,899 356,936 370,975 383,1016 394,1057 404,1099 410,1139 414,1178 414,1216 410,1250 397,1310 384,1360 371,1401 358,1435 345,1463 332,1486 319,1507 307,1525 293,1545 277,1568 261,1592 244,1617 229,1643 217,1668 209,1691 206,1712 205,1713 204,1715 200,1719 196,1723 190,1728 183,1733 174,1739 164,1743 152,1747 139,1750 124,1752 108,1752 89,1750 69,1746 48,1739 24,1729 24,1723 26,1706 31,1681 38,1648 50,1610 67,1568 89,1524 118,1481 134,1460 150,1439 166,1419 181,1399 195,1377 207,1355 218,1332 227,1306 234,1278 238,1248 238,1214 236,1177 230,1136 219,1091 204,1040 185,985 147,881 121,797 105,732 97,683 94,649 95,627 97,615 98,612"/>
</g>
</svg>
