<?xml version="1.0" encoding="UTF-8" standalone="no"?>
<!DOCTYPE svg PUBLIC "-//W3C//DTD SVG 1.0//EN" "http://www.w3.org/TR/2001/REC-SVG-20010904/DTD/svg10.dtd">
<svg xmlns="http://www.w3.org/2000/svg" xmlns:xlink="http://www.w3.org/1999/xlink" fill-rule="evenodd" height="0.712in" preserveAspectRatio="none" stroke-linecap="round" viewBox="0 0 1990 712" width="1.99in">
<style type="text/css">
.brush0 { fill: rgb(255,255,255); }
.pen0 { stroke: rgb(0,0,0); stroke-width: 1; stroke-linejoin: round; }
.brush1 { fill: none; }
.pen1 { stroke: none; }
.brush2 { fill: rgb(0,0,0); }
</style>
<g>
<polygon class="pen1 brush2" points="996,712 1004,711 1012,709 1019,706 1027,702 1034,697 1041,690 1048,683 1054,675 936,675 943,683 949,690 956,697 964,702 971,706 979,709 988,711 996,712 996,712"/>
<polygon class="pen1 brush2" points="1058,668 1062,662 1066,654 1069,647 1072,638 919,638 922,647 925,654 929,662 932,668 1058,668 1058,668"/>
<polygon class="pen1 brush2" points="1075,633 1078,625 1080,616 1082,608 1084,600 908,600 909,608 911,616 913,624 916,633 1075,633 1075,633"/>
<polygon class="pen1 brush2" points="1084,593 1086,585 1087,578 1088,569 1088,560 902,560 903,569 904,578 905,585 906,593 1084,593 1084,593"/>
<polygon class="pen1 brush2" points="1088,553 1088,544 1088,536 1088,527 1087,519 905,519 904,527 903,536 902,544 902,553 1088,553 1088,553"/>
<polygon class="pen1 brush2" points="1087,519 905,519 905,518 905,518 905,518 905,518 1087,518 1087,518 1087,518 1087,518 1087,519 1087,519"/>
<polygon class="pen1 brush2" points="1085,512 1084,503 1083,495 1081,487 1080,479 912,479 910,487 908,495 906,503 905,512 1085,512 1085,512"/>
<polygon class="pen1 brush2" points="1078,473 1075,464 1071,455 1067,447 1064,439 929,439 925,447 921,455 917,464 913,473 1078,473 1078,473"/>
<polygon class="pen1 brush2" points="1061,432 1055,423 1048,417 1041,411 1033,405 1025,411 1016,415 1007,417 998,418 988,416 980,413 972,408 966,401 961,404 956,406 951,409 947,413 942,417 938,421 934,426 930,432 1061,432 1061,432"/>
<polygon class="pen1 brush2" points="1034,348 1038,353 1041,357 1043,361 1044,367 1040,383 1031,394 1017,401 1002,403 986,401 972,394 963,383 959,367 960,361 962,357 965,354 969,350 976,353 984,355 992,356 1001,356 1009,356 1018,354 1026,351 1034,348 1034,348"/>
<polygon class="pen1 brush2" points="1058,293 1057,286 1055,280 1052,275 1047,269 1037,276 1024,281 1011,284 996,285 981,284 968,281 955,276 945,269 940,275 936,280 933,286 932,293 938,315 952,331 973,340 996,343 1019,340 1039,331 1053,315 1058,293 1058,293"/>
<polygon class="pen1 brush2" points="1055,241 1050,255 1036,266 1017,272 996,274 974,272 955,266 941,255 936,241 937,234 939,227 944,221 952,216 946,210 938,202 928,194 918,186 906,178 893,172 880,167 865,165 868,157 883,160 897,165 911,172 924,181 935,190 945,199 953,208 959,215 967,212 976,209 985,208 994,207 1003,208 1012,209 1021,211 1030,214 1036,207 1044,198 1054,189 1066,179 1078,171 1091,163 1105,158 1119,155 1122,164 1108,166 1095,171 1083,177 1072,185 1062,193 1053,201 1045,209 1038,216 1047,221 1052,226 1054,233 1055,241 1055,241"/>
<polygon class="pen1 brush2" points="926,296 910,287 904,280 902,270 902,252 901,249 899,247 896,246 892,245 868,218 859,218 885,245 878,251 876,263 878,277 881,286 884,290 890,295 898,300 907,305 916,309 923,313 928,315 930,316 928,309 927,303 926,298 926,296 926,296"/>
<polygon class="pen1 brush2" points="1064,296 1064,298 1064,303 1063,309 1061,316 1063,315 1068,313 1075,309 1084,305 1093,300 1101,295 1107,290 1111,286 1114,277 1116,263 1114,251 1107,245 1132,218 1124,218 1098,245 1095,246 1092,247 1090,249 1089,252 1089,262 1089,270 1089,275 1088,280 1085,283 1081,287 1074,291 1064,296 1064,296"/>
<polygon class="pen1 brush2" points="878,454 877,454 873,456 867,457 861,460 854,464 848,468 844,473 841,479 838,497 835,520 832,542 831,556 831,565 833,574 838,580 847,580 814,644 821,644 857,579 859,576 860,570 859,563 859,553 859,534 860,512 866,493 881,481 880,478 879,472 878,463 878,454 878,454"/>
<polygon class="pen1 brush2" points="1111,459 1112,459 1116,461 1121,463 1127,465 1134,469 1139,473 1144,478 1146,483 1149,501 1152,525 1155,549 1156,563 1156,571 1154,579 1149,585 1141,584 1173,648 1165,650 1132,583 1130,580 1129,575 1128,567 1128,557 1129,539 1128,517 1122,497 1108,485 1109,482 1110,476 1111,467 1111,459 1111,459"/>
<polygon class="pen1 brush2" points="1057,380 1059,380 1066,380 1076,380 1090,380 1107,380 1128,380 1151,380 1177,380 1205,381 1236,381 1268,382 1302,382 1337,383 1373,384 1410,385 1448,387 1486,388 1523,390 1561,392 1598,395 1634,398 1670,401 1704,404 1736,408 1767,412 1795,416 1822,421 1845,427 1866,432 1884,438 1898,445 1909,452 1926,468 1941,484 1955,501 1967,519 1977,537 1984,554 1988,571 1989,587 1987,602 1981,616 1971,628 1957,638 1939,646 1917,652 1890,655 1858,654 1841,653 1823,652 1805,650 1786,648 1767,646 1748,644 1728,641 1708,637 1688,634 1667,630 1646,626 1624,621 1602,616 1579,610 1556,604 1532,597 1508,590 1483,582 1457,574 1431,565 1405,556 1377,545 1350,535 1321,523 1292,512 1262,499 1232,486 1200,472 1168,457 1136,441 1102,425 1068,408 1068,407 1066,403 1063,394 1057,380 1057,380"/>
<polygon class="pen1 brush2" points="1054,339 1056,338 1062,335 1071,331 1083,325 1099,317 1117,308 1138,298 1162,287 1188,275 1215,262 1244,248 1275,234 1307,219 1340,204 1374,189 1408,174 1443,159 1478,144 1513,130 1547,116 1581,103 1614,90 1646,78 1677,67 1706,58 1734,49 1759,42 1783,37 1804,33 1823,31 1838,30 1851,32 1879,40 1904,51 1928,63 1948,78 1965,94 1978,111 1985,129 1987,148 1985,159 1980,170 1973,182 1963,193 1950,204 1934,215 1915,225 1893,236 1877,243 1860,250 1843,256 1825,263 1807,269 1788,275 1769,281 1749,287 1729,293 1708,299 1686,304 1664,309 1641,314 1617,319 1592,324 1567,328 1542,333 1515,337 1488,341 1460,344 1431,347 1401,350 1371,353 1340,356 1308,358 1275,360 1241,361 1206,362 1170,363 1134,364 1096,364 1058,364 1058,364 1059,361 1058,353 1054,339 1054,339"/>
<polygon class="pen1 brush2" points="937,375 932,390 929,399 927,403 926,404 892,421 858,437 826,453 794,468 762,482 732,495 702,508 673,520 644,531 617,542 589,552 563,561 537,570 511,578 486,586 462,593 438,600 415,606 392,612 370,617 348,622 327,627 306,631 286,634 266,638 246,640 227,643 208,645 189,647 171,649 153,650 136,651 104,651 77,648 55,642 37,634 24,624 14,611 9,598 7,583 8,567 11,550 18,533 27,515 38,497 52,480 67,464 84,448 95,441 109,434 127,428 148,422 172,417 198,412 227,408 257,404 290,400 324,397 359,393 396,391 433,388 470,386 508,384 546,382 584,381 621,379 657,378 692,378 726,377 758,376 789,376 817,375 843,375 866,375 887,375 904,375 918,375 928,375 935,375 937,375 937,375"/>
<polygon class="pen1 brush2" points="943,337 939,352 938,360 939,363 939,363 901,363 863,363 827,362 792,362 757,360 723,359 690,357 658,355 627,352 597,350 567,347 538,343 510,340 483,336 456,332 430,327 405,323 381,318 357,313 334,308 312,303 290,297 269,292 248,286 228,280 209,274 190,268 172,261 154,255 137,248 120,242 104,235 75,221 52,206 34,191 22,176 14,161 11,146 12,131 17,117 25,103 36,90 50,77 66,65 84,55 103,45 124,37 146,30 159,28 175,29 193,31 215,35 238,40 264,47 292,56 321,65 352,76 384,88 417,101 451,114 485,128 520,142 555,157 590,172 624,187 658,202 691,217 722,232 753,246 782,260 810,273 835,285 859,296 880,306 898,315 914,323 926,329 935,333 941,336 943,337"/>
<polygon class="pen1 brush0" points="223,593 226,578 237,560 253,541 272,521 293,502 314,486 333,472 348,462 359,460 370,458 382,457 393,455 404,453 415,452 426,450 438,449 449,447 460,446 471,445 483,443 494,442 505,441 517,439 528,438 515,448 496,461 476,477 455,495 436,514 420,533 411,552 409,569 416,566 416,553 426,536 443,516 465,496 488,476 511,459 530,444 543,435 556,434 569,432 582,431 595,430 607,429 620,428 633,426 646,425 659,424 672,423 685,422 698,421 711,420 724,420 737,419 750,418 738,425 725,432 712,441 699,450 687,460 676,471 668,483 663,496 670,499 678,484 690,469 706,455 723,443 739,433 754,425 763,420 767,418 862,412 861,405 841,406 821,407 801,408 781,409 761,410 741,412 721,413 701,414 681,416 661,417 641,419 621,420 601,422 581,424 561,426 541,428 541,428 513,432 489,435 465,438 440,441 416,444 392,448 367,451 343,455 319,459 295,464 271,469 247,475 223,481 200,488 177,496 154,504 132,513 117,521 101,530 87,540 76,551 66,563 61,577 60,593 64,611 70,608 67,596 66,585 67,575 71,567 77,559 85,551 94,544 104,536 117,529 130,522 144,515 157,510 171,504 185,499 200,495 214,490 229,486 243,483 258,479 273,476 287,473 302,470 317,468 331,465 316,476 298,490 280,505 261,522 244,539 230,558 220,576 216,594 223,593 223,593"/>
<polygon class="pen1 brush0" points="206,228 209,221 215,215 222,208 232,202 242,197 254,192 267,187 280,182 294,178 307,174 321,171 334,168 346,165 357,164 366,162 374,161 385,164 396,167 407,169 418,173 428,176 439,179 450,182 461,186 472,189 483,193 494,196 505,200 515,204 526,208 537,211 548,215 541,216 531,218 521,220 509,222 497,225 484,228 470,231 457,235 444,239 432,244 420,249 410,255 401,261 393,268 388,275 385,283 392,283 394,277 398,271 405,266 414,260 426,255 438,250 452,245 466,240 481,236 495,232 509,229 523,225 535,223 546,221 554,219 561,218 574,222 586,227 598,231 611,236 623,240 636,245 648,249 660,254 672,258 685,263 697,267 709,272 721,276 733,281 745,285 757,290 743,291 728,293 713,295 697,298 682,302 668,308 655,316 645,326 652,330 665,319 682,311 702,305 723,301 742,299 758,298 769,298 773,297 861,333 862,327 844,319 825,311 807,304 788,296 770,288 751,281 733,273 714,266 695,259 677,252 658,245 639,238 621,231 602,225 583,218 564,212 564,212 536,202 513,195 490,188 466,180 443,173 420,166 396,159 372,152 349,146 325,140 301,134 277,129 253,125 229,121 205,118 180,116 156,114 139,115 122,117 106,120 90,125 77,132 66,143 58,157 54,175 60,175 62,162 67,152 72,144 80,138 88,133 99,130 110,127 122,124 136,123 151,122 166,122 181,123 195,124 210,126 225,128 240,130 255,133 270,136 285,139 299,142 314,146 329,150 344,153 358,157 339,160 318,165 294,171 270,178 247,187 227,198 210,211 199,225 206,228"/>
<polygon class="pen1 brush0" points="1773,593 1770,578 1760,560 1744,541 1724,521 1703,502 1682,486 1663,472 1649,462 1638,460 1626,458 1615,457 1603,455 1592,453 1581,452 1569,450 1558,449 1547,447 1535,446 1524,445 1513,443 1501,442 1490,441 1478,439 1467,438 1481,448 1499,461 1520,477 1541,495 1560,514 1576,533 1586,552 1588,569 1580,566 1580,553 1569,536 1552,516 1531,496 1507,476 1485,459 1466,444 1453,435 1440,434 1427,432 1415,431 1402,430 1389,429 1376,428 1363,426 1350,425 1337,424 1324,423 1311,422 1298,421 1285,420 1272,420 1259,419 1246,418 1258,425 1271,432 1285,441 1298,450 1309,460 1320,471 1327,483 1332,496 1325,499 1318,484 1305,469 1290,455 1273,443 1257,433 1243,425 1233,420 1230,418 1135,412 1135,405 1155,406 1175,407 1195,408 1215,409 1235,410 1255,412 1275,413 1295,414 1315,416 1335,417 1355,419 1375,420 1395,422 1415,424 1435,426 1455,428 1455,428 1483,432 1507,435 1531,438 1555,441 1580,444 1604,448 1628,451 1652,455 1677,459 1701,464 1725,469 1749,475 1772,481 1796,488 1819,496 1842,504 1865,513 1880,521 1895,530 1909,540 1920,551 1929,563 1935,577 1936,593 1932,611 1926,608 1929,596 1930,585 1928,575 1924,567 1918,559 1911,551 1902,544 1892,536 1879,529 1866,522 1852,515 1839,510 1825,504 1810,499 1796,495 1782,490 1767,486 1752,483 1738,479 1723,476 1708,473 1694,470 1679,468 1665,465 1680,476 1697,490 1716,505 1735,522 1752,539 1766,558 1776,576 1780,594 1773,593 1773,593"/>
<polygon class="pen1 brush0" points="1790,228 1787,221 1781,215 1773,208 1764,202 1753,197 1741,192 1729,187 1715,182 1702,178 1688,174 1675,171 1662,168 1650,165 1639,164 1630,162 1622,161 1611,164 1600,167 1589,169 1578,173 1568,176 1557,179 1546,182 1535,186 1524,189 1513,193 1502,196 1491,200 1480,204 1469,208 1458,211 1447,215 1455,216 1464,218 1475,220 1486,222 1499,225 1512,228 1526,231 1539,235 1552,239 1564,244 1576,249 1587,255 1596,261 1603,268 1609,275 1612,283 1605,283 1603,277 1599,271 1592,266 1582,260 1571,255 1559,250 1545,245 1531,240 1516,236 1501,232 1487,229 1473,225 1461,223 1450,221 1442,219 1435,218 1422,222 1410,227 1398,231 1385,236 1373,240 1361,245 1349,249 1336,254 1324,258 1312,263 1300,267 1288,272 1276,276 1264,281 1252,285 1240,290 1254,291 1268,293 1284,295 1300,298 1315,302 1329,308 1341,316 1351,326 1345,330 1332,319 1315,311 1295,305 1274,301 1254,299 1238,298 1227,298 1223,297 1135,333 1134,327 1152,319 1171,311 1189,304 1208,296 1226,288 1245,281 1263,273 1282,266 1301,259 1319,252 1338,245 1357,238 1375,231 1394,225 1413,218 1432,212 1432,212 1460,202 1483,195 1506,188 1529,180 1552,173 1576,166 1599,159 1623,152 1647,146 1670,140 1694,134 1718,129 1742,125 1766,121 1790,118 1815,116 1839,114 1856,115 1874,117 1890,120 1906,125 1919,132 1930,143 1938,157 1943,175 1936,175 1934,162 1930,152 1924,144 1917,138 1908,133 1898,130 1887,127 1875,124 1860,123 1846,122 1831,122 1816,123 1801,124 1786,126 1771,128 1756,130 1741,133 1726,136 1711,139 1696,142 1682,146 1667,150 1653,153 1639,157 1657,160 1679,165 1702,171 1726,178 1749,187 1770,198 1786,211 1797,225 1790,228"/>
</g>
</svg>
