<?xml version="1.0" encoding="UTF-8" standalone="no"?>
<!DOCTYPE svg PUBLIC "-//W3C//DTD SVG 1.0//EN" "http://www.w3.org/TR/2001/REC-SVG-20010904/DTD/svg10.dtd">
<svg xmlns="http://www.w3.org/2000/svg" xmlns:xlink="http://www.w3.org/1999/xlink" fill-rule="evenodd" height="0.503in" preserveAspectRatio="none" stroke-linecap="round" viewBox="0 0 1987 503" width="1.987in">
<style type="text/css">
.brush0 { fill: rgb(255,255,255); }
.pen0 { stroke: rgb(0,0,0); stroke-width: 1; stroke-linejoin: round; }
.brush1 { fill: none; }
.pen1 { stroke: none; }
.brush2 { fill: rgb(0,0,0); }
</style>
<g>
<polygon class="pen1 brush2" points="207,372 190,370 173,368 158,366 143,363 129,360 116,357 104,354 93,350 82,347 72,343 63,339 55,335 47,331 40,326 34,322 28,317 12,297 5,276 5,255 10,234 12,233 17,229 26,224 36,218 49,212 62,206 76,202 89,199 89,196 90,189 95,180 103,170 118,162 141,157 173,158 216,167 219,167 226,165 237,163 252,161 270,158 290,155 312,151 336,147 361,144 385,140 410,137 433,133 455,130 476,128 493,126 508,125 509,124 511,120 516,115 521,108 529,100 537,90 547,80 559,70 571,59 585,49 601,39 617,30 634,22 653,16 672,11 692,8 714,7 737,7 760,9 783,11 805,14 827,17 849,21 870,26 891,30 910,35 929,40 947,45 963,50 978,54 992,59 1004,62 1000,65 992,73 983,85 979,102 980,102 983,101 988,101 994,100 1002,100 1010,100 1018,101 1027,102 1028,101 1032,100 1037,97 1045,93 1054,89 1065,84 1077,79 1090,73 1104,68 1119,63 1134,58 1150,54 1166,50 1182,47 1198,46 1214,45 1231,46 1252,48 1275,51 1300,56 1327,61 1354,67 1382,73 1410,80 1438,87 1464,95 1489,102 1512,108 1532,115 1549,120 1563,125 1572,129 1570,131 1565,137 1560,145 1556,155 1554,165 1557,175 1567,182 1585,186 1599,187 1617,188 1640,190 1665,192 1693,195 1723,199 1754,203 1785,208 1817,215 1848,222 1877,231 1904,241 1929,252 1950,264 1967,278 1979,294 1982,307 1980,324 1973,344 1963,365 1958,375 1952,385 1946,394 1940,403 1934,411 1928,418 1922,424 1917,429 1910,432 1900,435 1887,436 1871,437 1853,436 1832,434 1809,432 1785,428 1759,423 1732,418 1704,411 1675,403 1646,395 1617,385 1588,375 1560,363 1552,361 1540,358 1525,355 1506,352 1486,349 1464,346 1441,343 1418,340 1394,338 1371,336 1349,334 1329,332 1310,331 1295,331 1283,331 1275,332 1266,335 1251,341 1232,349 1208,358 1181,368 1151,378 1120,387 1087,395 1054,401 1022,405 991,406 962,403 936,395 914,383 896,366 883,342 880,342 870,343 855,344 835,346 811,348 784,351 756,354 726,357 695,360 665,363 636,366 609,369 585,373 564,376 548,378 538,381 540,385 547,394 557,409 568,427 579,447 590,467 599,486 605,503 604,503 599,502 593,501 584,499 574,497 562,493 549,489 535,483 521,477 506,468 491,459 477,448 463,435 450,420 439,404 429,385 426,385 420,384 409,384 397,383 383,382 368,382 354,381 342,381 345,376 352,364 359,346 364,324 364,300 355,277 334,257 298,241 302,246 312,260 324,279 335,302 340,325 336,346 319,363 285,372 271,373 257,373 244,373 232,373 222,373 214,372 209,372 207,372"/>
<polygon class="pen1 brush0" points="173,290 179,289 184,287 190,284 194,280 198,276 201,270 202,264 203,258 202,252 201,246 198,241 194,237 190,234 184,231 179,230 173,229 167,230 161,231 156,234 151,237 147,241 144,246 143,252 142,258 143,264 144,270 147,276 151,280 156,284 161,287 167,289 173,290"/>
<polygon class="pen1 brush0" points="585,108 578,106 576,99 579,87 589,74 606,59 631,47 665,36 710,31 687,101 671,101 655,102 640,103 627,103 614,104 603,105 593,107 585,108 585,108"/>
<polygon class="pen1 brush0" points="730,31 709,101 719,101 729,101 740,101 750,101 761,101 771,101 782,101 792,101 812,37 801,36 789,34 779,33 768,32 758,32 749,31 739,31 730,31 730,31"/>
<polygon class="pen1 brush0" points="831,40 846,43 862,46 878,49 895,53 912,57 930,62 948,67 967,72 964,75 958,83 951,94 946,104 943,104 935,104 923,103 906,103 886,102 864,102 839,101 812,101 831,40"/>
<polygon class="pen1 brush0" points="1112,111 1106,110 1105,105 1110,99 1121,92 1138,85 1162,78 1193,74 1231,72 1217,116 1201,115 1186,113 1172,112 1158,111 1145,111 1133,110 1122,110 1112,111 1112,111"/>
<polygon class="pen1 brush0" points="1250,72 1258,73 1266,73 1275,74 1284,75 1293,76 1302,77 1311,79 1321,81 1304,132 1295,130 1287,129 1278,127 1269,125 1261,124 1252,122 1244,121 1236,119 1250,72 1250,72"/>
<polygon class="pen1 brush0" points="1339,84 1349,86 1359,87 1368,89 1378,91 1388,94 1398,96 1409,98 1419,101 1402,150 1393,148 1383,147 1374,145 1364,142 1354,140 1344,138 1334,137 1324,135 1339,84 1339,84"/>
<polygon class="pen1 brush0" points="1436,105 1448,109 1461,113 1473,116 1485,120 1498,125 1511,129 1524,134 1537,139 1536,142 1533,151 1530,164 1531,179 1529,179 1523,177 1513,175 1500,172 1484,169 1465,165 1444,160 1422,155 1436,105"/>
<polygon class="pen1 brush0" points="926,335 920,337 918,342 922,348 930,354 943,361 962,366 985,370 1014,371 997,325 988,326 979,327 970,328 962,329 953,331 944,332 935,334 926,335 926,335"/>
<polygon class="pen1 brush0" points="1034,371 1042,370 1050,369 1058,368 1066,366 1075,365 1084,363 1093,361 1102,359 1088,318 1079,318 1071,318 1062,319 1053,320 1044,320 1035,321 1026,322 1017,322 1034,371 1034,371"/>
<polygon class="pen1 brush0" points="1122,355 1133,352 1145,348 1157,344 1170,340 1182,335 1195,330 1209,325 1223,319 1221,319 1214,319 1204,318 1191,318 1174,318 1154,318 1132,318 1108,318 1122,355"/>
<polygon class="pen1 brush0" points="1699,223 1704,223 1712,223 1721,224 1732,224 1744,225 1758,226 1772,228 1787,230 1781,254 1759,247 1741,242 1727,236 1716,232 1708,228 1703,225 1700,224 1699,223 1699,223"/>
<polygon class="pen1 brush0" points="1807,233 1815,234 1823,235 1831,237 1838,238 1846,240 1854,242 1861,245 1869,247 1862,277 1857,275 1851,273 1845,271 1840,269 1834,268 1828,266 1821,265 1815,263 1812,262 1808,260 1804,259 1801,258 1807,233 1807,233"/>
<polygon class="pen1 brush0" points="1885,253 1891,256 1897,259 1903,262 1908,265 1913,268 1917,272 1921,276 1925,280 1934,292 1939,299 1939,303 1934,303 1926,300 1913,296 1898,290 1879,283 1885,253"/>
<polygon class="pen1 brush0" points="1626,361 1631,363 1637,366 1645,369 1655,373 1666,378 1678,382 1692,387 1706,392 1696,359 1679,358 1665,358 1653,358 1643,358 1636,359 1630,360 1627,361 1626,361 1626,361"/>
<polygon class="pen1 brush0" points="1730,399 1739,402 1749,404 1759,406 1769,408 1779,410 1789,412 1798,414 1808,415 1794,381 1790,380 1787,379 1783,378 1779,377 1775,376 1772,375 1768,374 1764,373 1758,372 1751,370 1745,369 1739,367 1734,366 1728,365 1722,364 1717,363 1730,399 1730,399"/>
<polygon class="pen1 brush0" points="1828,416 1834,416 1840,416 1845,415 1850,415 1855,414 1860,413 1865,411 1869,409 1884,403 1891,398 1891,395 1885,392 1873,390 1857,388 1838,386 1815,383 1828,416"/>
</g>
</svg>
