<?xml version="1.0" encoding="UTF-8" standalone="no"?>
<!DOCTYPE svg PUBLIC "-//W3C//DTD SVG 1.0//EN" "http://www.w3.org/TR/2001/REC-SVG-20010904/DTD/svg10.dtd">
<svg xmlns="http://www.w3.org/2000/svg" xmlns:xlink="http://www.w3.org/1999/xlink" fill-rule="evenodd" height="1.803in" preserveAspectRatio="none" stroke-linecap="round" viewBox="0 0 1973 1803" width="1.973in">
<style type="text/css">
.brush0 { fill: rgb(255,255,255); }
.pen0 { stroke: rgb(0,0,0); stroke-width: 1; stroke-linejoin: round; }
.brush1 { fill: none; }
.pen1 { stroke: none; }
.brush2 { fill: rgb(0,0,0); }
</style>
<g>
<polygon class="pen1 brush2" points="1973,1426 1947,1434 1922,1442 1898,1449 1875,1457 1852,1464 1829,1471 1807,1478 1785,1484 1763,1491 1741,1497 1719,1503 1696,1509 1673,1515 1650,1520 1626,1526 1601,1531 1576,1537 1549,1542 1521,1547 1493,1553 1462,1558 1431,1563 1397,1568 1362,1573 1325,1578 1287,1583 1246,1588 1203,1593 1158,1598 1110,1603 1060,1608 1007,1613 897,1619 800,1615 716,1602 644,1582 583,1555 531,1524 489,1489 455,1452 428,1415 407,1378 393,1343 382,1311 376,1284 373,1263 371,1250 371,1245 376,1187 388,1134 407,1085 433,1040 464,999 501,961 542,927 589,895 639,866 693,840 750,816 809,793 871,773 935,754 1000,736 1066,719 1132,703 1198,687 1264,671 1329,656 1392,640 1454,623 1513,606 1569,588 1623,568 1672,547 1718,524 1759,499 1795,471 1825,442 1850,409 1868,373 1881,335 1890,299 1894,265 1896,234 1893,205 1888,179 1879,154 1867,132 1860,122 1852,112 1843,103 1834,94 1824,86 1814,78 1802,71 1791,64 1778,57 1765,51 1752,46 1737,41 1723,36 1708,32 1692,28 1676,24 1653,20 1630,16 1606,13 1581,11 1556,9 1530,8 1503,8 1476,7 1448,8 1420,9 1392,10 1363,12 1334,15 1305,17 1276,20 1246,24 1214,28 1181,33 1149,38 1117,43 1085,48 1053,54 1022,60 991,66 960,72 930,78 901,85 872,91 844,98 816,104 790,110 764,117 739,123 716,129 693,135 672,140 652,146 633,151 615,156 599,160 584,164 571,168 560,171 550,174 542,176 536,178 531,179 529,180 521,181 512,180 503,179 493,178 482,176 472,173 461,170 449,168 438,165 426,162 415,160 403,158 392,156 381,155 370,155 359,156 346,160 327,168 305,179 279,193 251,209 221,227 190,246 159,265 128,285 99,303 72,321 48,336 28,349 13,359 3,366 0,368 1,376 4,382 8,389 14,394 21,399 30,403 39,406 50,409 246,362 246,365 81,415 101,416 121,416 143,416 165,415 187,413 209,411 232,409 253,406 274,403 294,400 312,397 329,395 344,392 357,390 367,388 375,386 379,385 389,381 405,375 424,367 445,358 466,348 486,338 503,328 505,327 511,326 521,324 534,321 550,318 569,314 592,310 617,305 644,300 674,295 706,289 740,283 775,277 812,271 850,265 889,259 929,253 970,247 1011,242 1052,236 1094,231 1135,227 1176,222 1216,218 1256,215 1294,212 1332,210 1368,208 1402,208 1435,208 1465,208 1494,210 1518,212 1540,215 1560,219 1577,224 1591,230 1603,237 1612,244 1618,253 1620,263 1620,274 1615,286 1607,299 1596,314 1580,329 1560,347 1536,365 1523,373 1505,381 1482,388 1455,396 1423,404 1388,412 1350,421 1309,429 1264,439 1218,449 1169,459 1118,471 1066,483 1012,496 958,511 903,526 847,543 791,561 736,580 681,601 628,624 575,648 524,674 475,702 427,732 383,764 341,798 302,834 266,873 234,914 206,958 182,1004 168,1040 156,1077 147,1116 141,1157 137,1199 137,1242 140,1288 146,1335 151,1360 157,1384 164,1407 171,1429 180,1450 190,1471 200,1490 211,1509 223,1527 236,1544 250,1561 264,1576 279,1591 294,1606 310,1619 327,1632 371,1662 417,1688 466,1710 515,1728 565,1743 615,1756 665,1765 713,1772 759,1777 803,1781 843,1782 880,1783 912,1783 939,1782 961,1780 976,1779 995,1777 1015,1775 1037,1772 1060,1769 1085,1766 1110,1763 1137,1759 1165,1755 1194,1751 1224,1746 1255,1740 1286,1734 1319,1727 1352,1720 1385,1711 1419,1703 1453,1693 1488,1682 1523,1671 1559,1659 1594,1646 1630,1632 1665,1616 1701,1600 1736,1583 1771,1564 1806,1544 1840,1523 1874,1501 1908,1477 1941,1452 1973,1426"/>
<polygon class="pen1 brush0" points="216,315 226,313 233,308 238,301 240,291 238,282 233,274 226,269 216,267 206,269 199,274 194,282 192,291 194,301 199,308 206,313 216,315"/>
</g>
</svg>
