<?xml version="1.0" encoding="UTF-8" standalone="no"?>
<!DOCTYPE svg PUBLIC "-//W3C//DTD SVG 1.0//EN" "http://www.w3.org/TR/2001/REC-SVG-20010904/DTD/svg10.dtd">
<svg xmlns="http://www.w3.org/2000/svg" xmlns:xlink="http://www.w3.org/1999/xlink" fill-rule="evenodd" height="1.371in" preserveAspectRatio="none" stroke-linecap="round" viewBox="0 0 1979 1371" width="1.979in">
<style type="text/css">
.brush0 { fill: rgb(255,255,255); }
.pen0 { stroke: rgb(0,0,0); stroke-width: 1; stroke-linejoin: round; }
.brush1 { fill: none; }
.pen1 { stroke: none; }
.brush2 { fill: rgb(0,0,0); }
</style>
<g>
<polygon class="pen1 brush2" points="138,827 119,820 101,813 82,805 65,796 48,788 31,780 15,772 0,766 0,765 0,761 1,756 2,748 4,738 6,727 10,714 14,699 20,683 26,666 35,648 45,629 56,609 69,588 85,566 102,545 122,523 144,501 169,478 196,456 226,435 259,413 295,392 334,372 377,353 423,334 472,317 526,300 583,285 644,272 709,260 779,250 781,247 787,239 796,227 808,211 822,192 839,171 859,149 880,126 902,103 926,82 950,61 975,43 1000,28 1025,17 1050,11 1074,10 1074,13 1076,22 1077,36 1078,54 1062,62 1046,71 1030,80 1015,90 999,100 984,111 970,123 955,136 941,150 928,164 915,180 902,196 891,213 880,231 869,251 860,271 871,278 881,258 892,239 904,221 916,205 928,189 940,174 953,160 967,146 980,134 994,122 1008,112 1022,102 1036,92 1050,83 1064,75 1078,68 1079,83 1080,98 1080,115 1080,132 1058,148 1036,166 1016,185 996,206 978,229 961,254 946,281 932,310 945,317 959,290 973,265 989,242 1006,221 1023,201 1041,183 1059,167 1078,152 1076,175 1073,198 1069,221 1064,244 1058,266 1050,287 1040,306 1029,324 1031,325 1036,329 1043,334 1053,341 1065,349 1079,359 1095,370 1111,382 1128,394 1146,406 1164,419 1181,431 1198,443 1213,454 1227,464 1240,473 1354,450 1463,571 1395,599 1399,603 1408,613 1422,628 1439,646 1458,664 1477,681 1495,695 1510,703 1523,708 1535,713 1549,716 1564,717 1581,712 1601,699 1625,678 1652,645 1668,625 1685,604 1703,583 1723,561 1743,538 1764,516 1785,494 1807,472 1829,452 1851,433 1873,415 1895,399 1917,385 1938,374 1959,365 1979,359 1978,367 1976,390 1971,424 1965,466 1871,480 1867,499 1962,486 1957,512 1952,539 1945,567 1938,595 1858,578 1851,597 1933,614 1929,627 1925,640 1921,654 1917,667 1913,680 1908,692 1903,704 1898,716 1814,670 1800,685 1889,733 1885,741 1881,750 1876,758 1872,765 1867,772 1863,779 1857,785 1852,791 1727,791 1727,810 1835,811 1837,814 1840,819 1845,827 1850,837 1857,850 1864,864 1871,881 1879,899 1790,947 1804,963 1888,916 1893,928 1898,940 1903,952 1908,965 1913,979 1917,992 1922,1006 1926,1020 1842,1038 1848,1058 1932,1038 1939,1067 1945,1096 1949,1124 1952,1152 1858,1139 1861,1159 1952,1172 1951,1202 1947,1231 1939,1258 1926,1284 1923,1281 1915,1274 1902,1263 1884,1247 1864,1229 1841,1208 1815,1184 1789,1159 1761,1133 1734,1106 1707,1079 1682,1052 1658,1026 1638,1002 1620,979 1607,959 1595,941 1583,928 1572,919 1561,914 1550,912 1539,911 1527,912 1514,912 1500,912 1482,911 1463,910 1443,910 1423,912 1403,915 1386,921 1371,929 1429,981 1398,1014 1287,942 1281,950 1392,1023 1341,1077 1208,987 1202,997 1334,1085 1287,1135 1142,1040 1135,1048 1280,1143 1240,1189 1078,1081 1073,1091 1233,1196 1189,1243 1010,1126 1004,1135 1182,1251 1125,1312 932,1182 929,1183 921,1186 908,1189 890,1194 867,1199 841,1203 811,1207 778,1209 742,1210 704,1209 663,1205 621,1198 577,1187 532,1173 486,1153 440,1129 441,1131 443,1135 446,1142 452,1152 460,1163 470,1176 483,1190 499,1205 499,1211 499,1227 499,1250 500,1278 476,1254 455,1230 437,1206 421,1185 407,1166 396,1149 386,1137 379,1128 365,1136 370,1142 379,1153 391,1170 407,1191 426,1215 448,1241 474,1269 503,1297 504,1317 507,1337 510,1355 514,1371 513,1370 509,1367 503,1361 494,1354 484,1345 473,1334 460,1320 446,1305 431,1289 416,1270 401,1250 385,1228 370,1205 355,1179 340,1153 327,1125 324,1123 315,1118 301,1110 283,1099 261,1086 237,1070 210,1052 183,1032 155,1010 127,987 101,962 76,936 55,910 36,883 22,855 13,827 138,827"/>
<polygon class="pen1 brush0" points="227,714 233,713 239,712 244,709 248,705 252,700 255,695 256,689 257,683 256,677 255,672 252,667 248,662 244,659 239,656 233,654 227,653 216,656 207,662 200,672 198,683 200,695 207,705 216,712 227,714"/>
<polygon class="pen1 brush0" points="327,561 347,564 368,571 389,582 409,596 427,613 443,633 455,655 463,679 465,705 461,731 450,759 430,787 402,815 363,843 314,870 253,896 255,895 261,892 270,887 281,880 295,872 310,862 326,851 343,838 360,825 377,810 392,794 407,778 419,762 428,744 435,727 438,709 435,675 423,645 405,620 384,599 363,582 345,570 332,563 327,561"/>
</g>
</svg>
