<?xml version="1.0" encoding="UTF-8" standalone="no"?>
<!DOCTYPE svg PUBLIC "-//W3C//DTD SVG 1.0//EN" "http://www.w3.org/TR/2001/REC-SVG-20010904/DTD/svg10.dtd">
<svg xmlns="http://www.w3.org/2000/svg" xmlns:xlink="http://www.w3.org/1999/xlink" fill-rule="evenodd" height="1.104in" preserveAspectRatio="none" stroke-linecap="round" viewBox="0 0 1980 1104" width="1.98in">
<style type="text/css">
.brush0 { fill: rgb(255,255,255); }
.pen0 { stroke: rgb(0,0,0); stroke-width: 1; stroke-linejoin: round; }
.brush1 { fill: none; }
.pen1 { stroke: none; }
.brush2 { fill: rgb(0,0,0); }
</style>
<g>
<polygon class="pen1 brush2" points="1001,959 1013,958 1025,956 1035,952 1044,947 1052,941 1057,935 1061,927 1062,919 1061,914 1060,909 1058,905 1055,901 1067,896 1078,891 1087,885 1096,879 1103,873 1109,865 1113,857 1116,848 1375,766 1673,831 1758,1104 1764,1093 1677,823 1373,756 1116,831 1116,824 1116,818 1114,813 1112,806 1390,593 1656,598 1882,1026 1889,1016 1660,587 1383,583 1099,790 1094,785 1090,782 1085,778 1079,774 1365,352 1691,325 1971,668 1980,658 1699,314 1362,344 1065,766 1060,764 1056,762 1051,761 1047,759 1043,758 1038,757 1033,755 1027,753 1183,232 1514,13 1883,273 1892,262 1514,0 1173,226 1010,753 1005,753 1000,752 995,752 990,752 985,752 980,752 975,753 970,753 806,226 466,0 89,262 95,273 466,13 795,232 953,756 947,758 942,759 937,761 933,762 928,764 924,766 920,768 916,770 618,344 281,314 0,658 8,668 288,325 615,352 903,777 898,781 893,785 889,789 885,794 595,583 318,587 89,1016 98,1026 324,598 589,593 875,810 872,815 870,821 870,827 870,834 606,756 301,823 214,1093 221,1104 306,831 605,766 872,850 876,860 881,868 888,876 896,883 906,890 917,896 930,901 943,905 941,908 940,911 940,915 940,919 941,927 945,935 950,941 958,947 967,952 977,956 989,958 1001,959"/>
</g>
</svg>
