<?xml version="1.0" encoding="UTF-8" standalone="no"?>
<!DOCTYPE svg PUBLIC "-//W3C//DTD SVG 1.0//EN" "http://www.w3.org/TR/2001/REC-SVG-20010904/DTD/svg10.dtd">
<svg xmlns="http://www.w3.org/2000/svg" xmlns:xlink="http://www.w3.org/1999/xlink" fill-rule="evenodd" height="1.67in" preserveAspectRatio="none" stroke-linecap="round" viewBox="0 0 2001 1670" width="2.001in">
<style type="text/css">
.brush0 { fill: rgb(255,255,255); }
.pen0 { stroke: rgb(0,0,0); stroke-width: 1; stroke-linejoin: round; }
.brush1 { fill: none; }
.pen1 { stroke: none; }
.brush2 { fill: rgb(0,0,0); }
</style>
<g>
<polygon class="pen1 brush2" points="2001,1048 1999,1047 1995,1044 1988,1040 1979,1035 1968,1029 1955,1022 1941,1014 1926,1006 1910,998 1893,990 1876,982 1858,975 1841,969 1825,963 1810,959 1795,956 1801,964 1816,987 1838,1021 1864,1061 1890,1105 1916,1148 1936,1186 1950,1217 1949,1216 1944,1212 1938,1207 1929,1200 1918,1191 1905,1182 1891,1171 1875,1160 1858,1149 1841,1138 1822,1127 1803,1117 1784,1107 1765,1099 1746,1091 1727,1086 1728,1088 1732,1092 1738,1099 1746,1108 1756,1120 1767,1134 1780,1150 1793,1168 1807,1187 1821,1207 1836,1229 1850,1251 1864,1274 1877,1298 1889,1322 1900,1346 1899,1345 1896,1343 1890,1340 1883,1335 1874,1329 1864,1323 1852,1316 1839,1308 1825,1300 1810,1292 1794,1284 1778,1276 1761,1268 1744,1261 1726,1254 1709,1248 1712,1252 1720,1263 1731,1282 1747,1309 1765,1343 1784,1385 1805,1434 1825,1491 1825,1490 1824,1489 1822,1487 1820,1483 1816,1479 1811,1474 1805,1469 1796,1463 1786,1456 1774,1448 1759,1441 1742,1432 1723,1424 1700,1415 1675,1405 1646,1396 1649,1403 1658,1420 1670,1447 1686,1480 1701,1516 1717,1554 1730,1590 1740,1621 1738,1620 1733,1616 1724,1609 1712,1601 1697,1591 1680,1580 1661,1568 1640,1556 1618,1543 1595,1530 1570,1517 1546,1505 1520,1494 1495,1485 1471,1477 1447,1471 1445,1478 1438,1495 1427,1521 1412,1552 1393,1586 1371,1618 1345,1647 1316,1670 889,1670 890,1669 894,1666 900,1661 908,1656 917,1649 929,1641 943,1633 958,1624 975,1616 994,1608 1014,1601 1035,1594 1057,1589 1080,1586 1104,1584 1129,1584 1132,1583 1139,1580 1149,1576 1158,1569 1165,1560 1167,1549 1162,1536 1149,1521 1139,1511 1127,1496 1114,1477 1101,1455 1088,1429 1075,1400 1064,1368 1054,1334 1046,1297 1041,1259 1038,1218 1040,1176 1045,1133 1056,1088 1071,1043 1092,998 1085,1007 1069,1033 1045,1074 1020,1128 996,1193 978,1268 969,1351 974,1440 972,1440 967,1440 958,1441 947,1441 932,1441 916,1442 898,1442 879,1442 858,1442 836,1442 814,1441 792,1440 770,1439 749,1438 728,1436 709,1434 510,1651 186,1651 188,1650 195,1647 205,1643 218,1636 234,1628 251,1617 270,1605 291,1590 311,1573 332,1554 352,1532 370,1508 387,1481 402,1452 414,1420 423,1385 422,1385 419,1385 414,1384 407,1383 399,1382 390,1381 379,1379 368,1377 355,1374 342,1371 329,1368 315,1363 301,1359 287,1353 274,1347 261,1340 259,1350 250,1365 236,1383 218,1399 196,1413 171,1421 145,1420 118,1409 0,1409 1,1405 3,1395 6,1378 12,1355 18,1327 26,1294 36,1257 47,1217 60,1174 74,1128 90,1081 107,1033 126,984 147,935 169,887 193,840 193,840 202,823 212,806 222,789 232,773 243,757 253,741 264,726 275,711 286,697 298,684 310,671 322,658 334,647 347,636 360,625 373,616 375,612 373,631 371,675 373,745 375,741 380,728 388,708 399,681 413,650 429,614 448,575 468,533 490,490 513,446 537,404 562,362 588,324 614,289 640,258 666,233 663,247 655,285 647,340 640,403 642,399 649,388 661,371 676,348 696,321 719,291 746,258 776,223 809,189 845,154 884,121 926,91 969,64 1015,40 1063,23 1112,11 1108,14 1096,22 1078,37 1057,56 1034,81 1010,111 988,146 970,186 977,181 991,173 1011,162 1036,149 1067,135 1102,120 1140,105 1181,89 1224,74 1268,60 1314,47 1359,37 1404,29 1448,24 1489,22 1528,25 1526,26 1521,28 1512,32 1501,38 1487,45 1470,53 1452,64 1432,76 1410,89 1387,104 1363,121 1338,140 1313,160 1287,182 1262,205 1237,230 1241,229 1252,226 1269,221 1293,215 1321,208 1353,200 1389,192 1427,184 1467,177 1508,170 1550,165 1591,161 1630,159 1668,159 1703,161 1734,167 1731,168 1722,171 1708,176 1690,182 1668,190 1644,199 1617,210 1589,221 1559,234 1530,248 1501,262 1474,278 1449,293 1426,309 1407,326 1392,342 1396,341 1409,340 1428,338 1454,335 1486,333 1522,331 1563,330 1606,330 1652,331 1700,335 1748,341 1796,349 1843,361 1888,375 1931,394 1970,416 1967,416 1958,417 1944,419 1926,421 1903,424 1878,427 1850,431 1820,436 1789,442 1758,448 1726,455 1695,463 1665,472 1638,482 1613,492 1591,504 1594,504 1602,504 1615,505 1633,507 1654,510 1679,513 1706,518 1736,525 1767,533 1800,544 1833,556 1866,571 1898,589 1930,609 1960,632 1988,659 1987,659 1983,658 1977,657 1968,655 1958,654 1945,652 1931,651 1915,650 1897,649 1878,649 1858,649 1836,650 1813,652 1790,655 1765,659 1740,664 1747,667 1756,672 1767,677 1780,684 1795,693 1811,702 1828,712 1847,723 1865,736 1884,749 1903,762 1921,777 1939,792 1956,807 1972,823 1986,840 1969,836 1953,832 1938,828 1924,825 1910,822 1897,820 1884,818 1872,816 1860,814 1848,812 1837,811 1826,809 1815,807 1805,806 1794,804 1784,802 1799,814 1814,827 1829,841 1844,855 1858,870 1873,886 1888,901 1902,917 1916,933 1930,950 1943,966 1956,983 1968,999 1980,1016 1991,1032 2001,1048"/>
<polygon class="pen1 brush0" points="238,1190 247,1189 256,1186 264,1182 271,1177 276,1170 280,1162 283,1153 284,1143 283,1134 280,1126 276,1118 271,1111 264,1106 256,1102 247,1099 238,1098 229,1099 221,1102 213,1106 207,1111 201,1118 197,1126 194,1134 193,1143 194,1153 197,1162 201,1170 207,1177 213,1182 221,1186 229,1189 238,1190"/>
</g>
</svg>
