<?xml version="1.0" encoding="UTF-8" standalone="no"?>
<!DOCTYPE svg PUBLIC "-//W3C//DTD SVG 1.0//EN" "http://www.w3.org/TR/2001/REC-SVG-20010904/DTD/svg10.dtd">
<svg xmlns="http://www.w3.org/2000/svg" xmlns:xlink="http://www.w3.org/1999/xlink" fill-rule="evenodd" height="1.406in" preserveAspectRatio="none" stroke-linecap="round" viewBox="0 0 1979 1406" width="1.979in">
<style type="text/css">
.brush0 { fill: rgb(255,255,255); }
.pen0 { stroke: rgb(0,0,0); stroke-width: 1; stroke-linejoin: round; }
.brush1 { fill: none; }
.pen1 { stroke: none; }
.brush2 { fill: rgb(0,0,0); }
</style>
<g>
<polygon class="pen1 brush2" points="510,257 496,253 482,249 469,246 456,245 444,245 433,246 423,249 415,253 417,250 423,241 432,229 443,215 458,202 474,191 493,184 513,183 510,257 510,257"/>
<polygon class="pen1 brush2" points="411,527 395,541 379,554 363,569 348,583 332,598 318,613 303,629 289,644 275,660 261,677 248,693 235,710 222,726 209,743 197,760 185,777 201,782 219,786 238,790 259,793 282,794 306,795 331,794 358,791 386,787 416,781 447,773 479,762 512,750 547,735 583,717 620,696 619,698 614,704 607,713 596,725 582,738 565,753 543,769 517,785 487,801 452,816 413,829 369,840 319,849 264,854 204,855 138,852 132,862 127,871 121,881 115,890 110,900 104,909 99,918 94,927 110,932 128,937 147,941 168,944 191,947 215,947 241,947 268,944 297,940 327,935 359,926 391,916 426,903 461,888 498,869 536,848 535,850 530,856 523,865 512,877 498,890 481,905 459,921 433,937 403,953 369,968 330,981 285,992 236,1001 182,1006 122,1007 56,1004 43,1032 32,1057 22,1079 14,1098 8,1114 4,1125 1,1133 0,1135 10,1145 21,1153 33,1158 46,1161 60,1162 74,1162 88,1161 102,1158 115,1155 127,1151 139,1147 148,1144 157,1140 163,1138 167,1136 168,1135 189,1143 210,1147 229,1149 248,1147 265,1144 282,1139 297,1133 311,1125 323,1117 334,1109 344,1101 352,1093 358,1087 363,1082 366,1078 367,1077 392,1077 416,1075 437,1070 456,1064 473,1056 488,1046 501,1036 513,1025 523,1014 531,1004 538,994 543,985 547,977 550,971 551,967 552,966 590,956 619,941 640,924 654,906 662,890 666,875 668,866 668,862 686,867 706,871 726,874 746,876 767,878 787,878 808,879 827,878 845,878 862,877 877,876 890,875 900,874 908,873 913,872 915,872 925,877 935,882 947,887 960,891 974,896 988,901 1003,906 1018,910 1034,915 1049,919 1064,923 1079,927 1094,930 1108,934 1122,937 1134,940 1159,954 1180,981 1198,1017 1212,1058 1223,1102 1231,1145 1237,1183 1239,1213 1256,1209 1273,1204 1293,1198 1313,1191 1334,1182 1357,1173 1380,1162 1404,1150 1428,1137 1452,1122 1477,1106 1502,1087 1527,1068 1552,1046 1577,1022 1601,997 1583,982 1565,967 1545,952 1525,937 1505,923 1485,909 1465,895 1446,882 1427,870 1410,858 1394,847 1379,838 1367,829 1357,821 1349,814 1344,808 1335,786 1333,755 1337,718 1343,679 1343,679 1351,643 1357,613 1362,592 1364,584 1391,558 1413,529 1429,498 1442,468 1450,442 1455,420 1458,405 1459,400 1497,396 1530,385 1556,370 1577,352 1592,335 1603,320 1609,309 1611,305 1647,301 1678,290 1704,276 1726,258 1743,241 1755,227 1763,216 1765,212 1794,206 1820,195 1841,181 1859,165 1873,149 1883,135 1889,126 1891,122 1911,114 1929,103 1944,90 1956,77 1966,64 1973,54 1978,47 1979,44 1966,41 1953,37 1939,34 1926,31 1913,28 1900,26 1888,23 1875,21 1862,19 1849,17 1837,15 1824,13 1812,11 1800,10 1787,8 1775,7 1745,61 1715,108 1684,148 1653,184 1623,214 1593,239 1564,259 1537,276 1511,289 1488,299 1467,306 1449,311 1435,314 1424,316 1417,317 1415,317 1448,297 1479,277 1508,256 1534,236 1558,215 1580,194 1599,173 1617,152 1633,132 1647,112 1659,92 1670,73 1679,55 1687,37 1693,19 1698,3 1681,2 1664,1 1648,1 1632,0 1616,0 1600,0 1584,1 1569,1 1539,60 1508,112 1477,158 1445,196 1414,229 1383,257 1353,280 1324,298 1297,312 1272,323 1251,331 1232,336 1216,339 1205,341 1197,342 1195,342 1231,321 1264,299 1294,276 1322,254 1347,231 1369,209 1389,186 1407,164 1423,142 1436,121 1448,100 1458,79 1466,60 1473,41 1478,24 1482,7 1446,11 1411,16 1378,21 1347,27 1317,33 1289,39 1263,45 1239,52 1216,58 1196,64 1178,70 1163,75 1149,80 1138,84 1130,88 1124,91 1115,96 1106,104 1096,113 1084,124 1073,136 1061,149 1048,163 1036,177 1023,192 1010,206 997,219 985,231 973,242 962,251 951,259 941,264 920,267 898,262 876,251 855,236 834,218 816,200 801,183 789,169 783,163 775,155 766,148 755,140 743,132 729,125 715,118 699,113 683,109 666,108 649,109 632,112 614,118 597,128 580,141 563,159 538,196 529,228 532,256 545,280 565,301 587,318 611,331 631,342 645,354 652,370 653,388 649,408 640,427 629,445 615,461 600,473 591,478 581,482 569,486 557,489 543,492 529,495 515,497 501,500 487,503 473,505 460,508 448,511 436,514 426,518 418,522 411,527 411,527"/>
<polygon class="pen1 brush2" points="1642,1037 1653,1051 1663,1065 1669,1079 1674,1092 1675,1105 1673,1117 1667,1128 1658,1139 1626,1168 1603,1186 1588,1194 1579,1196 1574,1193 1573,1189 1574,1184 1574,1182 1573,1185 1570,1193 1563,1205 1554,1218 1542,1231 1525,1243 1504,1251 1479,1254 1479,1257 1479,1264 1477,1274 1472,1285 1462,1296 1447,1305 1423,1311 1391,1312 1386,1316 1373,1325 1353,1335 1330,1342 1306,1344 1282,1336 1261,1314 1246,1274 1262,1271 1281,1266 1301,1260 1322,1254 1346,1245 1370,1236 1395,1225 1422,1212 1449,1197 1477,1181 1504,1162 1532,1142 1560,1119 1588,1094 1615,1067 1642,1037"/>
<polygon class="pen1 brush0" points="614,230 623,228 631,223 636,215 638,206 636,196 631,189 623,184 614,182 604,184 597,189 592,196 590,206 592,215 597,223 604,228 614,230"/>
<polygon class="pen1 brush0" points="631,287 640,285 649,281 658,276 666,270 674,262 679,253 683,242 685,230 687,232 690,236 696,242 701,250 705,260 708,270 707,281 702,291 693,298 682,301 670,301 659,299 648,295 639,291 633,288 631,287"/>
</g>
</svg>
