<?xml version="1.0" encoding="UTF-8" standalone="no"?>
<!DOCTYPE svg PUBLIC "-//W3C//DTD SVG 1.0//EN" "http://www.w3.org/TR/2001/REC-SVG-20010904/DTD/svg10.dtd">
<svg xmlns="http://www.w3.org/2000/svg" xmlns:xlink="http://www.w3.org/1999/xlink" fill-rule="evenodd" height="1.9in" preserveAspectRatio="none" stroke-linecap="round" viewBox="0 0 1989 1900" width="1.989in">
<style type="text/css">
.brush0 { fill: rgb(255,255,255); }
.pen0 { stroke: rgb(0,0,0); stroke-width: 1; stroke-linejoin: round; }
.brush1 { fill: none; }
.pen1 { stroke: none; }
.brush2 { fill: rgb(0,0,0); }
</style>
<g>
<polygon class="pen1 brush0" points="292,567 299,566 305,564 310,561 315,557 319,552 322,547 324,541 325,534 324,527 322,521 319,516 315,511 310,507 305,504 299,502 292,501 285,502 279,504 274,507 269,511 265,516 262,521 260,527 259,534 260,541 262,547 265,552 269,557 274,561 279,564 285,566 292,567"/>
<polygon class="pen1 brush2" points="118,525 117,525 115,523 111,522 106,521 100,520 93,520 84,521 75,523 66,528 57,536 49,545 43,555 37,565 33,573 31,579 30,581 39,577 49,574 61,573 73,572 84,573 93,573 100,574 102,574 118,525 118,525"/>
<polygon class="pen1 brush2" points="171,515 164,512 157,510 151,510 147,510 143,511 140,512 139,513 138,513 129,533 113,571 94,622 75,678 60,734 54,782 59,818 80,833 107,822 128,788 144,737 156,678 163,618 168,566 170,529 171,515 171,515"/>
<polygon class="pen1 brush2" points="630,1559 598,1721 382,1719 526,1752 378,1803 547,1777 486,1864 629,1770 724,1770 651,1721 667,1599 630,1559 630,1559"/>
<polygon class="pen1 brush2" points="1276,571 1281,573 1295,580 1314,594 1338,618 1363,653 1387,702 1407,766 1421,848 1424,892 1422,933 1416,971 1407,1006 1395,1039 1381,1068 1366,1095 1350,1119 1333,1140 1316,1158 1301,1173 1287,1186 1275,1196 1265,1202 1259,1207 1257,1208 1254,1275 1260,1327 1272,1365 1288,1391 1306,1408 1321,1418 1333,1422 1337,1423 1432,1345 1511,1261 1576,1172 1628,1079 1668,984 1698,889 1719,795 1733,704 1739,618 1741,538 1739,466 1735,403 1729,352 1723,313 1719,289 1717,280 1703,294 1683,311 1658,329 1630,350 1599,372 1565,395 1530,418 1495,442 1459,464 1424,486 1391,507 1360,525 1332,541 1309,555 1290,565 1276,571 1276,571"/>
<polygon class="pen1 brush2" points="1914,0 1904,20 1892,40 1879,62 1865,83 1851,104 1837,125 1822,145 1808,165 1795,183 1782,199 1771,214 1761,227 1753,238 1746,245 1742,250 1741,252 1772,394 1788,527 1790,650 1780,764 1761,869 1734,965 1700,1051 1662,1129 1622,1197 1581,1256 1541,1306 1505,1347 1473,1378 1448,1401 1432,1414 1426,1419 1460,1406 1493,1390 1526,1372 1557,1352 1588,1330 1616,1308 1643,1285 1668,1263 1691,1241 1711,1220 1729,1202 1745,1185 1757,1171 1766,1161 1771,1154 1773,1152 1758,1156 1747,1158 1741,1158 1737,1157 1735,1156 1735,1154 1736,1153 1736,1152 1758,1133 1779,1110 1798,1086 1815,1059 1831,1031 1846,1002 1859,974 1871,946 1881,919 1890,893 1897,870 1903,850 1908,834 1911,821 1913,813 1914,810 1900,819 1888,827 1879,833 1873,837 1868,840 1865,842 1863,843 1863,843 1897,795 1924,735 1946,669 1963,601 1975,538 1983,485 1988,447 1989,430 1978,444 1968,457 1957,469 1948,480 1940,489 1934,495 1929,500 1928,501 1938,462 1946,414 1950,361 1952,308 1952,259 1952,219 1951,192 1951,182 1943,195 1936,205 1929,213 1924,219 1920,223 1917,226 1915,228 1914,228 1922,155 1921,81 1917,23 1914,0"/>
<polygon class="pen1 brush2" points="290,510 281,512 273,517 268,525 266,535 268,544 273,552 281,557 290,559 300,557 308,552 313,544 315,535 313,525 308,517 300,512 290,510 330,471 352,480 372,493 389,508 403,527 413,547 417,568 417,590 410,611 398,632 383,651 367,669 350,686 333,702 319,717 306,730 297,741 290,752 284,765 278,779 275,795 274,812 277,832 284,853 297,877 298,875 302,869 308,859 316,847 325,832 337,815 349,796 363,776 377,756 392,735 408,715 424,696 439,677 455,661 470,646 484,634 483,639 481,653 478,672 475,695 479,692 486,686 496,678 509,668 523,657 539,645 557,631 577,617 597,603 618,589 640,575 661,562 683,549 704,538 725,529 745,522 743,525 738,533 730,549 721,573 723,572 728,570 736,567 747,563 761,558 777,552 794,547 813,540 833,534 855,529 876,523 898,518 920,514 942,511 962,509 982,508 980,511 976,519 969,530 959,541 962,541 972,541 987,541 1008,542 1032,544 1059,548 1089,553 1121,560 1154,570 1187,583 1220,598 1251,618 1281,641 1308,668 1331,700 1350,737 1365,776 1375,814 1382,850 1385,885 1384,918 1381,949 1375,978 1367,1005 1356,1030 1344,1052 1330,1072 1315,1088 1299,1102 1282,1112 1264,1119 1247,1123 1245,1120 1241,1113 1234,1102 1224,1088 1211,1071 1196,1051 1179,1031 1159,1009 1138,987 1114,966 1088,946 1061,927 1032,910 1001,897 969,887 936,881 948,889 965,901 985,916 1009,933 1034,953 1061,974 1088,997 1115,1020 1141,1044 1164,1068 1184,1092 1201,1114 1212,1136 1219,1155 1218,1172 1211,1187 1106,1074 1097,1078 1111,1094 1126,1109 1140,1125 1155,1140 1169,1155 1183,1171 1198,1186 1212,1202 1212,1220 1209,1240 1202,1259 1188,1273 1087,1164 1078,1168 1191,1290 1190,1298 1189,1305 1185,1313 1180,1319 1172,1325 1162,1329 1149,1332 1132,1332 1043,1235 1033,1240 1148,1364 1166,1398 1188,1440 1210,1487 1231,1535 1247,1581 1257,1621 1257,1652 1246,1672 1056,1464 1047,1468 1236,1677 1238,1681 1242,1691 1247,1706 1249,1723 1248,1739 1241,1754 1226,1764 1201,1767 975,1516 966,1521 1186,1765 1187,1768 1189,1776 1190,1786 1188,1797 1181,1806 1167,1811 1144,1809 1111,1799 900,1566 891,1570 1096,1798 1094,1803 1090,1808 1085,1813 1077,1817 1067,1820 1054,1821 1038,1819 1019,1813 996,1802 969,1787 937,1766 901,1738 859,1703 813,1659 760,1607 702,1546 674,1515 648,1484 624,1454 602,1425 581,1397 563,1369 546,1342 531,1315 517,1290 505,1265 495,1241 486,1217 478,1195 472,1173 467,1152 464,1132 464,1132 461,1095 461,1061 466,1030 474,1003 485,979 499,958 514,941 532,928 532,928 512,937 491,949 471,966 453,987 438,1013 428,1046 423,1085 425,1131 425,1131 430,1162 438,1197 450,1234 465,1275 485,1319 508,1366 536,1417 568,1471 567,1471 563,1470 557,1469 549,1466 539,1463 528,1459 516,1452 503,1445 489,1435 475,1423 461,1409 447,1393 433,1374 419,1352 407,1327 396,1299 393,1300 387,1308 382,1329 382,1369 380,1365 373,1355 363,1338 352,1316 339,1289 327,1257 316,1221 307,1182 305,1187 300,1200 295,1220 293,1243 292,1240 289,1233 284,1222 278,1207 271,1190 264,1171 258,1152 252,1132 251,1132 250,1126 249,1120 247,1114 246,1109 240,1109 223,1106 200,1099 173,1085 148,1061 126,1027 113,978 111,914 119,888 138,858 164,826 192,793 221,761 246,730 263,701 270,676 266,674 255,667 241,657 224,643 208,625 195,603 187,578 186,550 192,523 204,502 220,485 239,474 260,467 283,464 307,466 330,471 290,510"/>
</g>
</svg>
