<?xml version="1.0" encoding="UTF-8" standalone="no"?>
<!DOCTYPE svg PUBLIC "-//W3C//DTD SVG 1.0//EN" "http://www.w3.org/TR/2001/REC-SVG-20010904/DTD/svg10.dtd">
<svg xmlns="http://www.w3.org/2000/svg" xmlns:xlink="http://www.w3.org/1999/xlink" fill-rule="evenodd" height="2.036in" preserveAspectRatio="none" stroke-linecap="round" viewBox="0 0 1138 2036" width="1.138in">
<style type="text/css">
.brush0 { fill: rgb(255,255,255); }
.pen0 { stroke: rgb(0,0,0); stroke-width: 1; stroke-linejoin: round; }
.brush1 { fill: none; }
.pen1 { stroke: none; }
.brush2 { fill: rgb(0,0,0); }
</style>
<g>
<polygon class="pen1 brush2" points="31,296 33,276 39,253 47,230 60,207 77,187 100,171 128,161 163,159 166,154 175,143 190,127 209,111 232,98 258,91 287,94 317,109 318,108 321,104 325,100 332,93 340,86 350,79 361,72 374,65 388,60 404,56 421,54 439,54 458,57 479,64 501,74 524,88 525,87 530,84 536,80 545,76 555,70 568,65 581,60 596,55 612,52 628,50 645,50 662,52 679,57 696,65 712,76 727,91 728,90 732,87 738,84 746,79 756,74 767,69 780,65 793,61 808,60 823,59 838,62 854,67 869,75 885,86 899,102 913,122 918,120 930,116 949,112 971,111 994,115 1016,127 1036,149 1050,183 1071,182 1089,195 1102,218 1113,247 1120,277 1125,304 1128,324 1129,331 1128,336 1124,349 1117,367 1106,388 1091,407 1071,422 1046,429 1015,427 1014,428 1012,432 1009,437 1004,443 997,450 989,458 980,466 970,474 958,481 945,488 930,492 915,495 898,496 879,494 860,489 839,481 838,482 834,486 827,491 819,498 809,506 797,513 783,521 768,528 752,535 736,539 718,542 701,542 683,539 665,532 647,522 630,507 629,508 625,511 619,515 611,520 601,526 589,531 576,537 561,541 546,544 529,545 512,545 495,541 477,535 460,525 442,511 425,493 423,494 419,496 412,498 402,502 391,505 378,508 363,511 348,513 331,513 314,512 297,509 279,504 263,496 246,485 231,471 217,453 212,455 198,458 179,460 156,460 132,455 111,443 94,422 85,390 82,390 76,389 66,386 56,379 45,368 37,352 32,328 31,296 31,296"/>
<polygon class="pen1 brush2" points="27,318 23,348 20,431 19,550 21,693 27,846 40,994 60,1124 88,1221 105,1261 123,1305 142,1353 162,1403 183,1455 203,1508 223,1562 243,1616 261,1670 277,1723 292,1774 305,1822 314,1867 321,1909 325,1947 325,1979 326,1980 329,1981 333,1983 339,1987 347,1990 357,1995 368,1999 380,2004 376,1962 371,1918 365,1873 357,1826 347,1778 336,1729 324,1679 311,1630 297,1581 282,1532 266,1485 249,1439 231,1394 212,1352 193,1311 173,1274 140,1193 116,1086 99,963 87,832 81,702 78,583 77,484 78,414 74,414 67,412 58,408 49,400 40,389 33,372 28,349 27,318 27,318"/>
<polygon class="pen1 brush2" points="461,2026 458,1977 451,1909 440,1826 424,1732 404,1633 379,1532 349,1433 315,1342 285,1251 262,1138 245,1012 233,881 225,753 221,637 218,542 217,474 213,475 202,477 187,480 168,480 147,479 127,473 109,462 95,444 94,523 95,625 97,742 103,866 114,989 130,1104 153,1203 183,1279 203,1316 223,1357 241,1399 259,1443 276,1489 293,1537 308,1585 322,1634 335,1683 347,1733 358,1781 368,1830 376,1877 383,1922 388,1966 392,2008 400,2010 407,2013 416,2015 424,2017 433,2020 442,2022 451,2024 461,2026 461,2026"/>
<polygon class="pen1 brush2" points="551,2035 551,1980 550,1913 548,1835 542,1749 533,1655 520,1556 501,1453 476,1348 452,1241 436,1123 425,1000 420,878 418,763 418,660 421,575 423,514 419,516 413,518 405,521 396,524 385,527 373,530 360,532 346,534 332,534 317,534 302,532 287,528 272,522 257,514 243,503 230,490 231,561 233,658 237,773 245,899 257,1027 273,1149 296,1259 325,1348 359,1438 389,1535 414,1635 434,1734 450,1827 462,1909 470,1978 473,2028 482,2029 492,2030 501,2032 511,2033 521,2034 531,2034 541,2035 551,2035 551,2035"/>
<polygon class="pen1 brush2" points="612,2035 614,1843 621,1656 629,1470 637,1285 643,1100 645,914 641,724 630,529 626,532 621,536 613,540 604,545 594,550 583,555 570,559 557,563 543,565 528,566 512,566 497,563 481,558 465,550 449,539 434,525 432,586 430,669 430,769 433,881 439,1000 450,1119 466,1234 490,1339 515,1444 533,1547 546,1648 555,1743 560,1831 562,1910 563,1979 562,2036 568,2036 574,2036 580,2036 587,2036 593,2036 599,2036 606,2035 612,2035 612,2035"/>
<polygon class="pen1 brush2" points="673,2028 676,1975 682,1904 691,1819 705,1725 723,1626 745,1527 772,1430 805,1342 831,1258 847,1156 855,1041 858,920 855,800 849,686 842,587 835,507 830,511 823,517 815,523 806,529 796,536 784,542 772,549 759,554 745,558 731,562 717,563 702,563 687,561 672,556 657,548 642,538 653,718 657,900 656,1085 650,1272 642,1461 634,1651 626,1843 622,2035 629,2034 635,2033 642,2033 648,2032 655,2031 661,2030 667,2029 673,2028 673,2028"/>
<polygon class="pen1 brush2" points="764,2006 767,1965 771,1922 776,1878 783,1833 791,1786 799,1739 809,1692 820,1644 832,1597 846,1550 860,1504 876,1459 893,1416 911,1374 930,1334 950,1296 979,1224 999,1129 1011,1018 1017,897 1018,774 1016,656 1012,549 1007,460 1003,465 998,471 992,477 986,483 978,489 970,495 961,500 952,505 941,510 930,513 918,516 905,517 891,516 877,514 862,511 846,505 853,586 860,687 866,802 869,923 867,1044 859,1159 843,1262 818,1345 785,1434 757,1530 734,1630 716,1728 702,1821 693,1905 687,1974 684,2026 696,2024 707,2022 718,2019 728,2017 738,2014 747,2011 756,2009 764,2006 764,2006"/>
<polygon class="pen1 brush2" points="1125,369 1120,382 1113,397 1104,412 1093,426 1079,439 1062,448 1041,452 1018,450 1023,538 1028,646 1031,767 1030,892 1025,1015 1013,1129 993,1226 964,1299 944,1337 925,1376 907,1418 890,1461 874,1505 859,1551 846,1597 833,1643 822,1690 812,1737 802,1784 795,1830 788,1875 782,1919 778,1962 775,2003 787,1999 798,1994 807,1990 814,1986 820,1983 825,1981 827,1980 828,1979 828,1947 832,1909 839,1867 849,1822 861,1774 876,1723 893,1670 911,1616 931,1562 951,1508 971,1455 992,1403 1012,1353 1032,1305 1050,1261 1067,1221 1090,1142 1107,1039 1118,920 1124,793 1127,667 1128,548 1127,446 1125,369"/>
</g>
</svg>
