<?xml version="1.0" encoding="UTF-8" standalone="no"?>
<!DOCTYPE svg PUBLIC "-//W3C//DTD SVG 1.0//EN" "http://www.w3.org/TR/2001/REC-SVG-20010904/DTD/svg10.dtd">
<svg xmlns="http://www.w3.org/2000/svg" xmlns:xlink="http://www.w3.org/1999/xlink" fill-rule="evenodd" height="1.983in" preserveAspectRatio="none" stroke-linecap="round" viewBox="0 0 1124 1983" width="1.124in">
<style type="text/css">
.brush0 { fill: rgb(255,255,255); }
.pen0 { stroke: rgb(0,0,0); stroke-width: 1; stroke-linejoin: round; }
.brush1 { fill: none; }
.pen1 { stroke: none; }
.brush2 { fill: rgb(0,0,0); }
</style>
<g>
<polygon class="pen1 brush2" points="429,1746 594,1815 466,1810 345,1903 388,1815 175,1866 341,1795 101,1815 429,1746 429,1746"/>
<polygon class="pen1 brush2" points="105,197 104,202 100,219 94,252 87,304 79,380 70,482 62,615 54,781 53,896 58,1002 69,1098 85,1186 104,1265 126,1335 150,1397 175,1452 200,1499 225,1539 249,1572 270,1598 288,1618 302,1632 311,1640 314,1643 312,1614 313,1589 316,1572 317,1565 325,1590 336,1616 350,1642 365,1665 379,1686 391,1702 399,1713 402,1717 394,1672 395,1644 399,1630 402,1626 412,1650 422,1671 434,1689 445,1704 455,1716 463,1724 468,1729 470,1731 470,1697 477,1681 486,1677 490,1677 506,1694 524,1709 544,1722 566,1732 589,1742 612,1750 636,1756 659,1761 681,1765 702,1768 721,1770 737,1771 751,1772 761,1773 768,1773 770,1773 761,1754 747,1725 730,1688 709,1644 686,1595 662,1540 636,1483 609,1423 583,1363 557,1304 533,1246 510,1191 491,1141 474,1096 461,1059 453,1029 436,947 428,879 428,824 435,779 448,745 464,719 485,702 508,691 532,685 557,684 580,686 602,691 621,696 636,701 646,705 649,707 616,701 585,699 558,702 534,708 513,718 496,732 481,749 470,769 461,792 456,818 453,847 454,879 458,913 464,949 474,988 486,1028 498,1064 513,1107 531,1155 551,1209 573,1266 597,1326 622,1389 649,1452 676,1516 705,1579 734,1641 764,1700 793,1756 823,1808 852,1855 881,1895 896,1915 912,1932 927,1947 942,1959 956,1969 970,1975 983,1979 996,1979 1009,1974 1022,1964 1034,1950 1045,1931 1056,1909 1065,1885 1074,1858 1081,1829 1094,1745 1100,1644 1098,1529 1090,1401 1075,1262 1052,1115 1021,961 983,803 953,699 921,607 888,527 855,458 822,399 790,350 758,309 728,276 700,250 674,231 651,216 631,206 615,199 602,196 595,194 592,194 345,434 105,197 105,197"/>
<polygon class="pen1 brush2" points="513,157 521,139 532,118 545,95 560,71 575,48 590,28 605,11 618,0 618,3 618,10 618,23 618,41 619,40 624,37 630,34 637,29 646,24 655,20 664,16 673,14 672,15 669,19 665,25 660,32 654,41 648,50 642,60 636,69 637,68 642,66 648,64 656,60 665,58 675,55 686,54 696,55 351,392 347,392 0,55 10,54 21,55 31,58 40,60 48,64 54,66 59,68 60,69 54,60 48,50 42,41 36,32 31,25 27,19 24,15 23,14 32,16 41,20 51,24 59,29 67,34 73,37 77,40 78,41 78,23 78,10 78,3 78,0 91,11 106,28 121,48 136,71 151,95 164,118 176,139 185,157 513,157"/>
<polygon class="pen1 brush0" points="304,572 313,568 322,565 331,562 340,560 350,560 360,563 371,568 382,576 345,674 304,572"/>
<polygon class="pen1 brush0" points="212,562 231,560 248,555 263,546 277,535 288,522 296,506 301,489 303,471 301,452 296,435 288,420 277,406 263,395 248,387 231,382 212,380 194,382 177,387 161,395 148,406 137,420 128,435 123,452 121,471 123,489 128,506 137,522 148,535 161,546 177,555 194,560 212,562"/>
<polygon class="pen1 brush0" points="484,566 503,564 520,559 536,550 550,539 561,526 570,510 575,493 577,474 575,456 570,439 561,423 550,410 536,399 520,390 503,385 484,383 466,385 449,390 434,399 421,410 410,423 401,439 396,456 394,474 396,493 401,510 410,526 421,539 434,550 449,559 466,564 484,566"/>
<polygon class="pen1 brush2" points="484,518 490,517 495,516 501,513 505,510 509,505 512,501 513,496 514,490 513,484 512,479 509,474 505,469 501,466 495,463 490,462 484,461 473,463 464,469 458,479 456,490 458,501 464,510 473,516 484,518 484,518"/>
<polygon class="pen1 brush2" points="219,511 225,510 230,509 235,506 240,502 243,498 246,493 248,488 249,482 248,476 246,471 243,467 240,462 235,459 230,456 225,455 219,454 213,455 208,456 202,459 198,462 194,467 191,471 190,476 189,482 190,488 191,493 194,498 198,502 202,506 208,509 213,510 219,511"/>
</g>
</svg>
