<?xml version="1.0" encoding="UTF-8" standalone="no"?>
<!DOCTYPE svg PUBLIC "-//W3C//DTD SVG 1.0//EN" "http://www.w3.org/TR/2001/REC-SVG-20010904/DTD/svg10.dtd">
<svg xmlns="http://www.w3.org/2000/svg" xmlns:xlink="http://www.w3.org/1999/xlink" fill-rule="evenodd" height="1.974in" preserveAspectRatio="none" stroke-linecap="round" viewBox="0 0 1963 1974" width="1.963in">
<style type="text/css">
.brush0 { fill: rgb(255,255,255); }
.pen0 { stroke: rgb(0,0,0); stroke-width: 1; stroke-linejoin: round; }
.brush1 { fill: none; }
.pen1 { stroke: none; }
.brush2 { fill: rgb(0,0,0); }
</style>
<g>
<polygon class="pen1 brush2" points="1329,1064 1330,1068 1333,1079 1340,1094 1352,1108 1368,1119 1391,1123 1420,1118 1458,1100 1305,1324 1339,1216 1231,1323 1282,1209 1160,1273 1247,1171 1143,1178 1260,1114 1181,1086 1329,1064 1329,1064"/>
<polygon class="pen1 brush2" points="752,1026 769,1009 788,985 807,955 827,921 847,883 866,842 885,799 902,756 918,713 932,672 943,633 952,597 958,565 960,539 957,519 951,506 937,497 920,493 901,496 880,503 858,513 835,527 812,544 790,561 768,580 747,599 728,617 712,633 698,647 688,658 681,665 679,668 689,646 700,624 714,602 729,581 746,560 763,541 782,523 802,507 821,492 842,479 862,468 882,460 901,454 920,452 937,452 954,455 978,473 990,503 993,541 989,582 980,622 971,656 963,679 960,688 967,687 978,686 992,683 1009,681 1028,678 1049,675 1070,672 1093,668 1114,665 1135,662 1155,659 1172,656 1186,654 1197,652 1204,651 1207,651 1197,614 1192,580 1191,550 1194,523 1200,500 1209,479 1220,462 1234,447 1249,434 1265,424 1283,416 1301,411 1318,407 1336,405 1353,404 1369,405 1408,415 1440,435 1464,462 1483,490 1496,519 1504,543 1509,561 1510,567 1494,540 1479,516 1464,496 1449,480 1434,466 1420,456 1405,448 1392,442 1378,438 1364,437 1351,437 1338,438 1325,440 1312,444 1300,448 1288,452 1266,464 1249,483 1238,507 1232,536 1230,568 1231,604 1236,642 1244,682 1253,723 1265,764 1277,804 1291,843 1304,879 1317,913 1329,943 1339,968 1343,984 1345,1005 1347,1028 1350,1052 1354,1073 1362,1091 1375,1102 1393,1104 1439,1082 1464,1034 1474,967 1471,890 1460,812 1446,739 1431,681 1420,644 1499,662 1566,696 1622,745 1667,806 1701,878 1725,957 1741,1043 1748,1133 1748,1224 1740,1316 1726,1405 1707,1489 1682,1567 1652,1637 1619,1696 1583,1742 1542,1782 1501,1814 1461,1840 1423,1860 1385,1873 1349,1882 1314,1885 1282,1883 1251,1877 1223,1867 1198,1853 1175,1836 1156,1816 1140,1793 1128,1768 1119,1741 1114,1713 1113,1687 1115,1662 1121,1640 1129,1620 1140,1601 1153,1585 1168,1570 1185,1557 1202,1546 1220,1538 1239,1531 1258,1526 1277,1522 1295,1521 1312,1522 1343,1529 1368,1542 1387,1561 1402,1583 1411,1607 1416,1630 1417,1652 1414,1671 1410,1688 1404,1703 1398,1716 1390,1728 1381,1737 1369,1744 1356,1748 1340,1749 1322,1748 1307,1743 1296,1737 1287,1728 1281,1717 1277,1705 1277,1692 1278,1677 1283,1665 1291,1659 1302,1657 1313,1657 1324,1660 1334,1664 1340,1667 1343,1668 1341,1652 1333,1638 1320,1628 1304,1621 1287,1620 1269,1625 1252,1638 1238,1659 1231,1684 1232,1707 1240,1729 1253,1748 1270,1765 1290,1778 1311,1788 1332,1795 1353,1797 1374,1792 1396,1783 1415,1769 1433,1751 1449,1731 1460,1709 1468,1685 1471,1665 1473,1646 1472,1627 1469,1608 1464,1590 1458,1572 1450,1556 1441,1540 1430,1525 1417,1511 1404,1498 1389,1486 1373,1476 1357,1467 1339,1460 1321,1455 1301,1452 1279,1452 1255,1454 1231,1459 1206,1467 1180,1478 1156,1491 1132,1507 1110,1527 1089,1549 1072,1575 1057,1603 1046,1635 1038,1670 1036,1708 1038,1749 1042,1771 1048,1792 1056,1812 1066,1832 1077,1850 1091,1867 1106,1882 1123,1897 1141,1910 1161,1922 1182,1933 1204,1942 1227,1950 1251,1956 1276,1961 1302,1964 1325,1965 1348,1965 1372,1964 1396,1961 1420,1957 1444,1951 1468,1944 1492,1936 1516,1926 1540,1915 1564,1902 1587,1887 1610,1871 1633,1853 1655,1833 1677,1812 1701,1786 1723,1759 1745,1731 1765,1702 1783,1673 1801,1644 1817,1613 1833,1582 1847,1551 1860,1519 1872,1486 1884,1453 1894,1420 1903,1386 1912,1352 1920,1317 1934,1239 1944,1159 1951,1079 1955,999 1955,918 1953,839 1950,760 1944,682 1939,640 1933,599 1925,560 1916,522 1905,485 1893,450 1880,417 1866,384 1851,353 1834,324 1817,296 1798,269 1779,243 1758,219 1736,196 1714,175 1689,154 1663,134 1636,115 1608,98 1580,83 1550,68 1520,55 1489,44 1458,34 1426,25 1393,18 1359,12 1325,7 1291,3 1256,1 1221,0 1199,1 1178,2 1157,3 1137,5 1116,7 1096,10 1077,13 1057,16 1038,19 1020,23 1002,27 984,31 967,36 950,40 933,45 917,50 883,61 851,73 821,85 793,97 767,109 743,121 721,133 701,144 684,155 668,165 655,174 644,181 636,187 630,192 626,195 625,196 625,225 621,255 615,287 606,319 594,352 582,384 568,416 553,446 539,475 524,502 511,525 499,546 489,563 481,575 476,583 474,586 518,489 549,408 570,342 582,289 588,249 590,222 590,206 589,201 572,198 552,199 529,203 505,208 478,216 451,225 423,236 396,247 369,258 345,269 322,280 302,290 285,298 273,304 265,309 262,310 253,300 243,290 233,282 220,275 206,270 188,268 168,270 143,276 120,288 104,306 94,328 89,351 87,373 87,391 87,404 88,409 75,422 63,438 52,456 43,475 34,495 26,516 20,537 14,556 22,556 31,557 41,557 52,558 64,558 76,559 88,559 102,560 115,560 130,561 144,562 159,562 173,562 188,563 203,563 218,563 202,567 186,571 170,574 154,577 139,579 123,581 109,583 94,584 80,585 67,586 54,586 42,587 31,587 21,587 12,587 4,587 2,596 1,602 0,607 0,608 23,637 49,663 76,684 105,703 135,718 165,730 195,740 225,748 252,754 278,758 302,761 322,762 339,763 352,763 360,763 363,763 382,780 404,793 430,801 459,806 489,807 521,806 553,803 585,798 615,792 644,786 671,779 694,772 714,766 728,761 738,757 741,756 744,785 741,815 734,846 723,876 710,907 695,935 679,962 663,985 658,1002 662,1015 673,1025 688,1031 706,1035 724,1035 740,1032 752,1026 752,1026"/>
<polygon class="pen1 brush2" points="632,1003 633,1005 636,1013 641,1026 651,1039 667,1052 690,1060 720,1061 760,1052 629,1275 642,1155 534,1260 585,1148 463,1211 549,1110 444,1117 562,1053 484,1023 632,1003"/>
<polygon class="pen1 brush0" points="187,395 195,395 202,393 209,390 215,385 220,380 224,373 227,365 228,357 227,349 225,341 221,334 217,328 211,323 204,319 196,317 188,316 180,316 173,317 166,321 160,325 155,331 151,338 148,346 147,354 147,362 150,370 153,377 158,383 164,388 171,392 179,394 187,395"/>
</g>
</svg>
