<?xml version="1.0" encoding="UTF-8" standalone="no"?>
<!DOCTYPE svg PUBLIC "-//W3C//DTD SVG 1.0//EN" "http://www.w3.org/TR/2001/REC-SVG-20010904/DTD/svg10.dtd">
<svg xmlns="http://www.w3.org/2000/svg" xmlns:xlink="http://www.w3.org/1999/xlink" fill-rule="evenodd" height="2.943in" preserveAspectRatio="none" stroke-linecap="round" viewBox="0 0 1172 2943" width="1.172in">
<style type="text/css">
.brush0 { fill: rgb(255,255,255); }
.pen0 { stroke: rgb(0,0,0); stroke-width: 1; stroke-linejoin: round; }
.brush1 { fill: none; }
.pen1 { stroke: none; }
.brush2 { fill: rgb(0,0,0); }
</style>
<g>
<polygon class="pen1 brush2" points="831,1059 831,1063 829,1067 828,1072 827,1077 828,1091 829,1107 830,1125 831,1144 800,1133 769,1124 738,1117 708,1111 677,1106 646,1102 615,1101 584,1100 552,1101 521,1103 489,1107 458,1112 426,1119 393,1127 361,1136 328,1147 328,1131 328,1117 328,1103 329,1090 326,1085 324,1078 322,1071 321,1063 322,1053 325,1044 330,1036 336,1029 344,1024 352,1020 362,1018 372,1017 385,1013 400,1009 416,1005 433,1001 452,997 473,994 496,991 520,989 511,980 501,972 490,965 478,959 465,954 452,948 438,943 423,938 427,934 446,939 462,944 477,950 491,957 503,964 513,972 522,980 530,989 544,988 559,987 575,987 590,987 606,987 623,987 639,988 656,989 664,981 673,973 683,965 695,958 709,951 724,945 741,939 760,934 763,938 748,943 734,948 721,953 709,959 697,965 686,972 675,981 666,990 680,992 693,994 706,997 719,999 732,1002 745,1005 759,1009 773,1013 784,1012 794,1013 804,1016 813,1021 820,1028 826,1037 830,1047 831,1059 831,1059"/>
<polygon class="pen1 brush2" points="831,1155 800,1144 768,1135 737,1127 706,1121 675,1116 644,1113 613,1111 581,1110 550,1111 519,1113 487,1117 456,1122 424,1129 392,1137 360,1146 328,1157 327,1186 327,1216 327,1248 328,1284 361,1273 393,1264 426,1255 458,1249 489,1243 521,1239 552,1237 584,1236 615,1236 646,1238 677,1241 708,1246 739,1252 770,1259 801,1268 832,1279 832,1244 832,1212 832,1183 831,1155 831,1155"/>
<polygon class="pen1 brush2" points="577,1878 552,1856 527,1832 503,1805 479,1776 457,1745 436,1712 416,1678 398,1642 382,1606 368,1569 357,1531 348,1494 342,1456 340,1418 341,1381 345,1344 342,1347 339,1350 335,1353 332,1355 332,1339 330,1324 329,1308 328,1293 361,1282 393,1273 426,1265 458,1258 489,1253 521,1249 552,1246 583,1245 614,1245 646,1247 677,1250 708,1254 739,1260 770,1268 801,1277 832,1287 831,1305 830,1324 829,1344 828,1364 825,1359 821,1354 817,1350 814,1347 814,1351 815,1361 815,1377 815,1399 814,1425 810,1456 805,1491 797,1529 786,1569 771,1612 752,1656 728,1701 700,1746 665,1791 624,1835 577,1878 577,1878"/>
<polygon class="pen1 brush2" points="821,1377 821,1381 822,1391 823,1407 823,1428 822,1455 819,1486 814,1520 806,1558 794,1598 779,1641 760,1685 735,1729 706,1774 670,1819 627,1863 578,1905 579,1915 581,1944 586,1990 591,2049 599,2119 608,2198 618,2283 630,2370 644,2459 658,2546 674,2629 692,2704 711,2770 731,2824 752,2862 774,2884 795,2894 816,2902 838,2908 860,2913 883,2916 905,2917 926,2915 946,2911 965,2904 983,2894 998,2881 1012,2864 1023,2844 1031,2820 1036,2793 1038,2761 1037,2717 1035,2655 1031,2578 1026,2488 1019,2387 1010,2279 1000,2167 988,2052 974,1938 958,1827 940,1722 920,1625 899,1540 875,1468 849,1413 821,1377 821,1377"/>
<polygon class="pen1 brush2" points="332,1378 304,1414 278,1469 254,1541 233,1626 213,1723 195,1828 179,1939 165,2053 153,2168 143,2280 134,2388 127,2489 122,2579 118,2657 116,2719 115,2763 117,2795 122,2822 130,2846 141,2866 155,2882 171,2895 188,2905 207,2912 228,2917 249,2918 271,2918 293,2915 315,2910 337,2904 359,2895 379,2886 402,2864 423,2826 443,2772 462,2706 480,2631 496,2548 511,2461 525,2372 537,2285 547,2200 556,2121 564,2051 569,1992 574,1946 576,1917 577,1907 528,1864 485,1821 449,1776 419,1731 395,1686 375,1642 360,1600 348,1559 340,1521 335,1487 332,1456 330,1429 330,1408 331,1392 332,1382 332,1378 332,1378"/>
<polygon class="pen1 brush2" points="217,1624 205,1637 196,1647 189,1655 184,1661 180,1667 176,1674 170,1682 163,1694 156,1706 151,1717 147,1728 143,1737 139,1744 133,1748 125,1749 115,1746 62,1830 57,1827 109,1742 100,1730 101,1712 110,1691 125,1668 142,1646 160,1625 175,1608 186,1597 193,1600 200,1604 205,1608 209,1613 213,1617 215,1621 217,1623 217,1624 217,1624"/>
<polygon class="pen1 brush2" points="295,1175 295,1177 297,1183 297,1192 297,1201 296,1210 292,1218 285,1224 274,1225 271,1225 264,1223 255,1217 243,1205 232,1184 222,1152 214,1107 211,1047 142,980 146,975 151,980 159,988 170,999 182,1010 193,1021 203,1030 210,1037 213,1039 214,1039 218,1040 224,1042 231,1047 239,1055 247,1068 255,1086 263,1111 268,1134 272,1149 274,1159 275,1164 277,1166 281,1168 286,1170 295,1175 295,1175"/>
<polygon class="pen1 brush2" points="933,1624 933,1623 935,1621 937,1617 941,1613 945,1608 951,1604 958,1600 966,1597 976,1608 991,1625 1009,1646 1026,1669 1041,1692 1050,1714 1051,1731 1041,1743 1094,1828 1088,1830 1034,1746 1024,1749 1017,1748 1011,1744 1007,1737 1003,1728 999,1717 994,1706 987,1694 980,1682 975,1674 970,1667 966,1661 961,1655 954,1647 945,1637 933,1624 933,1624"/>
<polygon class="pen1 brush2" points="855,1175 855,1177 854,1183 853,1192 853,1201 854,1210 858,1218 865,1224 876,1225 879,1225 885,1223 895,1217 906,1205 918,1184 928,1152 935,1107 939,1047 1010,980 1004,975 999,980 991,988 980,999 968,1010 957,1021 947,1030 940,1037 937,1039 936,1039 932,1040 927,1042 920,1047 912,1055 904,1068 896,1086 889,1111 883,1134 879,1149 877,1159 875,1164 872,1166 869,1168 863,1170 855,1175"/>
<polygon class="pen1 brush2" points="480,463 477,464 470,466 458,468 443,471 426,474 406,477 384,479 362,479 339,478 318,475 297,469 278,460 262,448 248,432 239,412 234,388 234,358 240,334 251,315 267,301 286,292 308,286 332,282 357,282 382,283 407,286 430,289 452,292 470,296 485,298 495,298 500,297 501,294 504,286 509,274 516,259 524,243 534,226 544,210 556,197 569,186 582,180 596,180 610,186 624,200 638,224 652,258 666,304 669,303 677,302 690,300 706,297 725,295 747,293 769,292 793,292 816,293 839,297 859,303 877,311 892,323 903,338 909,356 910,379 906,402 899,422 889,440 877,454 863,466 847,476 830,483 812,488 794,491 775,492 757,492 740,490 723,487 708,482 694,477 683,470 677,511 670,547 661,577 650,602 638,620 625,634 611,642 597,644 581,641 566,632 551,617 535,598 520,572 506,541 493,505 480,463"/>
<polygon class="pen1 brush0" points="518,105 508,141 496,169 482,188 468,201 452,208 436,209 420,205 404,198 388,188 373,175 360,160 348,145 339,130 331,115 327,102 325,91 322,72 313,56 301,44 287,37 272,38 260,48 251,67 248,98 243,130 230,154 212,169 190,176 166,175 143,166 123,149 108,124 93,96 80,81 66,77 55,79 45,86 38,95 33,102 31,105 29,159 34,212 46,264 63,313 84,361 109,407 135,450 164,490 192,527 221,561 247,590 272,616 293,638 309,655 320,667 325,674 322,730 325,774 334,807 346,832 363,848 382,857 404,860 428,858 452,853 477,844 501,834 524,823 546,813 565,804 580,798 592,796 595,798 604,804 618,813 636,823 657,834 680,844 705,853 730,858 755,860 779,857 800,848 819,832 834,807 844,774 848,730 846,674 851,667 863,655 879,638 900,616 925,590 951,561 980,527 1008,490 1036,450 1063,407 1087,361 1108,313 1125,264 1136,212 1141,159 1139,105 1137,102 1131,94 1122,85 1112,78 1100,76 1088,81 1076,98 1065,128 1053,154 1034,171 1011,180 986,180 962,171 942,155 928,130 923,98 920,67 911,48 899,38 885,37 870,44 858,56 849,72 846,91 844,102 840,115 832,130 822,145 811,160 797,175 783,188 767,198 751,205 734,209 718,208 703,201 688,188 674,169 662,141 652,105 641,71 626,47 607,32 586,28 565,33 546,47 530,71 518,105"/>
</g>
</svg>
