<?xml version="1.0" encoding="UTF-8" standalone="no"?>
<!DOCTYPE svg PUBLIC "-//W3C//DTD SVG 1.0//EN" "http://www.w3.org/TR/2001/REC-SVG-20010904/DTD/svg10.dtd">
<svg xmlns="http://www.w3.org/2000/svg" xmlns:xlink="http://www.w3.org/1999/xlink" fill-rule="evenodd" height="1.973in" preserveAspectRatio="none" stroke-linecap="round" viewBox="0 0 1486 1973" width="1.486in">
<style type="text/css">
.brush0 { fill: rgb(255,255,255); }
.pen0 { stroke: rgb(0,0,0); stroke-width: 1; stroke-linejoin: round; }
.brush1 { fill: none; }
.pen1 { stroke: none; }
.brush2 { fill: rgb(0,0,0); }
</style>
<g>
<polygon class="pen1 brush2" points="788,30 794,37 801,45 808,54 817,64 827,74 837,86 849,98 861,111 875,124 890,138 905,153 922,168 940,183 959,199 978,215 999,231 1021,248 1044,264 1069,281 1094,297 1120,314 1148,330 1176,346 1206,362 1237,377 1269,393 1302,407 1337,422 1372,435 1409,449 1447,461 1486,473 1485,483 1480,510 1472,551 1459,605 1336,584 1346,598 1454,618 1447,643 1438,668 1428,695 1417,721 1405,749 1391,776 1376,804 1359,831 1256,793 1263,808 1352,841 1344,853 1335,865 1326,877 1317,889 1307,900 1297,911 1286,922 1276,933 1265,943 1253,954 1242,963 1229,973 1217,982 1204,991 1191,999 1177,1007 1125,942 1123,960 1166,1013 1153,1019 1140,1025 1127,1031 1114,1036 1100,1040 1086,1045 1071,1049 1056,1052 1041,1055 1026,1058 1010,1060 994,1062 977,1063 960,1064 943,1064 925,1064 924,1065 922,1067 920,1071 919,1078 921,1089 927,1104 938,1124 956,1149 954,1150 950,1151 943,1154 934,1158 923,1163 911,1169 897,1176 882,1184 866,1192 850,1202 834,1211 818,1222 803,1232 789,1244 776,1255 764,1267 764,1274 766,1281 771,1285 777,1287 776,1287 777,1288 782,1288 797,1287 796,1289 793,1295 791,1309 792,1331 800,1380 809,1432 819,1485 827,1542 830,1600 829,1662 820,1725 801,1792 788,1824 774,1851 759,1874 743,1894 727,1910 710,1923 694,1934 678,1942 663,1948 648,1952 635,1954 624,1956 615,1956 608,1956 604,1956 602,1956 639,1931 662,1912 673,1897 676,1886 673,1879 667,1875 662,1873 659,1872 697,1846 718,1827 726,1813 725,1804 718,1800 708,1797 700,1797 696,1797 740,1758 761,1694 763,1612 753,1523 736,1438 718,1364 702,1313 696,1294 709,1292 717,1287 721,1280 721,1271 709,1259 696,1248 681,1237 666,1226 651,1216 635,1206 619,1197 603,1189 589,1182 575,1175 562,1169 552,1164 543,1160 536,1157 531,1156 530,1155 548,1130 559,1110 565,1095 567,1084 566,1077 564,1073 562,1071 561,1070 542,1070 524,1070 506,1069 489,1067 472,1065 455,1063 439,1060 424,1056 408,1053 393,1048 379,1043 365,1038 351,1033 337,1026 324,1020 311,1013 359,956 358,938 298,1007 284,999 271,990 258,980 245,971 233,961 221,951 210,940 199,929 189,918 178,907 169,895 159,883 150,871 141,859 133,847 125,834 210,804 217,787 118,821 102,794 88,766 74,739 62,711 52,685 42,658 34,633 27,608 119,594 131,578 24,595 13,548 5,510 1,486 0,477 39,465 77,453 114,440 149,426 184,412 217,397 249,382 280,366 310,350 339,334 367,317 393,300 419,284 443,267 467,250 489,233 510,217 530,200 549,184 567,169 584,153 600,138 615,124 629,110 641,97 653,84 664,72 674,62 683,51 690,42 697,34 703,27 704,26 706,23 710,18 715,13 721,9 728,4 737,1 746,0 756,1 764,5 771,9 777,15 782,21 785,25 787,29 788,30"/>
<polygon class="pen1 brush0" points="662,226 673,224 682,217 688,208 690,197 688,186 682,177 673,171 662,169 651,171 642,177 635,186 633,197 635,208 642,217 651,224 662,226"/>
<polygon class="pen1 brush0" points="825,226 835,224 844,217 850,208 852,197 850,186 844,177 835,171 825,169 814,171 805,177 799,186 797,197 799,208 805,217 814,224 825,226"/>
<polygon class="pen1 brush0" points="846,340 850,335 856,328 864,322 873,318 882,316 892,319 901,327 909,341 908,341 907,340 905,339 901,337 897,336 892,335 886,334 879,334 872,334 866,335 861,336 856,337 852,338 849,339 847,340 846,340"/>
<polygon class="pen1 brush0" points="852,384 857,379 864,373 872,368 881,365 890,364 899,368 907,378 913,394 911,392 906,389 897,384 885,381 878,380 872,380 866,381 861,381 857,382 854,383 853,384 852,384"/>
<polygon class="pen1 brush0" points="852,435 857,430 864,424 873,420 882,417 891,417 900,421 907,431 912,447 910,445 905,441 897,436 885,433 878,432 872,432 866,432 861,433 857,434 854,434 853,435 852,435"/>
<polygon class="pen1 brush0" points="794,528 800,526 808,524 818,523 827,524 836,527 843,534 846,546 845,563 844,561 841,554 835,547 825,540 819,537 813,534 808,532 803,530 799,529 796,528 795,528 794,528"/>
<polygon class="pen1 brush0" points="831,486 837,483 846,480 855,477 865,476 874,478 882,484 887,495 889,511 888,509 883,505 876,499 865,493 859,491 853,489 847,488 842,487 837,486 834,486 832,486 831,486"/>
<polygon class="pen1 brush0" points="643,335 639,330 633,324 626,318 617,313 608,312 598,314 589,323 581,338 582,338 583,336 586,335 589,333 593,331 599,330 605,328 612,328 618,328 624,329 629,330 634,331 638,333 641,334 642,335 643,335"/>
<polygon class="pen1 brush0" points="639,379 634,374 627,369 618,364 609,361 599,361 591,364 583,373 578,389 580,387 584,384 593,380 605,378 612,377 618,377 624,377 629,377 633,378 636,378 638,379 639,379"/>
<polygon class="pen1 brush0" points="639,429 634,425 627,420 618,416 609,413 599,414 590,418 583,427 578,443 580,441 584,437 593,432 605,429 612,428 618,428 624,428 629,428 633,428 636,429 638,429 639,429"/>
<polygon class="pen1 brush0" points="696,526 690,523 682,521 672,519 663,520 654,523 647,530 644,541 645,558 646,556 649,551 656,544 666,536 672,533 677,531 683,529 687,528 691,527 694,526 695,526 696,526"/>
<polygon class="pen1 brush0" points="659,483 653,479 645,476 636,473 626,472 617,474 609,480 604,491 602,507 603,505 608,501 615,495 625,489 631,487 637,485 643,484 648,483 653,483 656,483 658,483 659,483"/>
</g>
</svg>
