<?xml version="1.0" encoding="UTF-8" standalone="no"?>
<!DOCTYPE svg PUBLIC "-//W3C//DTD SVG 1.0//EN" "http://www.w3.org/TR/2001/REC-SVG-20010904/DTD/svg10.dtd">
<svg xmlns="http://www.w3.org/2000/svg" xmlns:xlink="http://www.w3.org/1999/xlink" fill-rule="evenodd" height="1.172in" preserveAspectRatio="none" stroke-linecap="round" viewBox="0 0 1979 1172" width="1.979in">
<style type="text/css">
.brush0 { fill: rgb(255,255,255); }
.pen0 { stroke: rgb(0,0,0); stroke-width: 1; stroke-linejoin: round; }
.brush1 { fill: none; }
.pen1 { stroke: none; }
.brush2 { fill: rgb(0,0,0); }
</style>
<g>
<polygon class="pen1 brush2" points="1006,1143 1005,1139 1004,1129 1005,1114 1009,1097 1017,1081 1032,1066 1055,1056 1087,1052 1089,1047 1095,1035 1104,1017 1114,996 1125,975 1134,954 1141,937 1144,926 1142,925 1135,920 1126,914 1113,905 1097,894 1080,881 1062,867 1043,852 1023,835 1004,817 986,799 969,780 955,762 943,743 934,724 929,706 930,705 933,704 937,701 943,698 950,694 959,690 969,686 980,681 993,677 1006,674 1019,670 1034,668 1049,666 1065,666 1081,667 1097,669 1098,672 1102,678 1108,687 1116,700 1127,714 1138,731 1151,749 1166,767 1180,787 1195,807 1210,826 1225,845 1240,863 1253,879 1265,893 1276,905 1271,914 1258,939 1240,975 1219,1016 1197,1058 1178,1097 1163,1126 1155,1143 1101,1143 1101,1112 1099,1114 1094,1120 1088,1129 1083,1143 1056,1143 1056,1111 1053,1113 1048,1119 1041,1129 1036,1143 1006,1143 1006,1143"/>
<polygon class="pen1 brush2" points="797,737 812,727 828,718 845,708 862,699 880,690 899,682 918,674 937,667 957,661 976,655 996,650 1015,647 1035,644 1054,643 1072,643 1090,645 1073,615 1058,581 1044,546 1032,512 1023,482 1016,457 1012,441 1010,435 1036,492 1062,546 1088,595 1114,640 1140,682 1166,720 1190,754 1213,784 1235,811 1255,834 1272,853 1287,869 1299,882 1308,890 1314,896 1316,898 1313,925 1307,953 1299,981 1291,1006 1283,1028 1276,1046 1271,1057 1269,1061 1240,1066 1219,1075 1206,1089 1198,1103 1194,1118 1194,1131 1194,1140 1195,1143 1221,1143 1225,1127 1231,1116 1237,1110 1240,1108 1240,1143 1266,1143 1270,1128 1277,1117 1283,1111 1286,1109 1286,1143 1347,1143 1352,1121 1364,1087 1379,1045 1397,1000 1415,957 1430,920 1441,895 1445,885 1432,863 1421,838 1414,813 1408,789 1404,767 1402,749 1401,737 1401,733 1406,721 1411,707 1415,690 1418,672 1418,672 1430,628 1436,584 1437,550 1436,535 1437,538 1441,545 1446,557 1453,573 1462,593 1471,617 1481,643 1492,672 1492,672 1505,706 1520,742 1536,780 1555,817 1575,855 1598,891 1622,926 1649,959 1677,988 1708,1014 1740,1036 1775,1052 1812,1063 1851,1067 1892,1065 1936,1054 1948,1048 1957,1041 1962,1032 1964,1022 1961,1014 1953,1008 1940,1005 1921,1006 1868,1008 1820,999 1778,981 1741,955 1709,921 1680,882 1654,838 1631,789 1609,739 1590,686 1571,633 1553,581 1535,530 1517,482 1497,438 1475,399 1462,379 1449,361 1435,345 1421,329 1406,316 1391,303 1375,292 1360,282 1344,273 1328,265 1312,259 1296,253 1279,248 1263,244 1247,241 1231,239 1213,237 1195,236 1178,236 1161,236 1144,237 1129,238 1114,240 1099,242 1086,244 1073,247 1061,249 1050,251 1041,253 1032,255 1025,257 1019,258 1006,260 989,262 968,264 944,266 917,268 888,269 858,270 827,270 796,269 765,268 735,266 707,263 682,259 659,254 640,247 625,240 612,232 598,224 584,217 569,211 553,205 537,199 522,194 506,189 491,185 476,182 462,179 450,176 438,175 427,173 418,172 411,172 406,171 400,171 395,172 390,173 385,176 382,179 381,184 381,190 378,219 374,246 367,269 357,287 354,294 350,306 346,322 339,338 329,353 314,366 295,372 269,372 269,394 260,410 244,420 225,424 205,421 189,411 179,395 178,372 171,373 163,373 157,372 150,370 144,368 138,366 133,364 128,361 125,365 123,370 121,375 121,379 123,409 122,444 117,488 107,547 104,562 104,577 106,592 110,608 115,624 122,640 129,656 138,672 138,672 151,695 164,717 178,738 190,757 202,775 211,791 219,804 223,815 228,875 228,966 225,1049 223,1085 199,1097 182,1111 170,1125 163,1138 159,1150 158,1159 158,1166 158,1168 188,1168 190,1151 193,1140 196,1134 198,1132 199,1135 202,1142 205,1153 208,1168 245,1168 247,1151 251,1140 254,1134 256,1132 257,1135 260,1142 263,1153 266,1168 297,1168 297,1162 298,1154 300,1146 303,1136 307,1126 314,1117 323,1108 334,1101 334,761 347,761 347,1101 342,1108 337,1114 333,1122 329,1129 327,1138 327,1148 330,1159 337,1172 338,1172 340,1172 343,1172 348,1172 353,1172 360,1172 367,1172 375,1172 377,1154 380,1142 383,1135 385,1133 386,1136 390,1144 394,1156 397,1172 401,1172 406,1172 410,1172 415,1172 419,1172 423,1172 428,1172 432,1172 435,1154 439,1142 442,1135 444,1133 445,1136 448,1144 452,1156 455,1172 461,1172 468,1172 475,1172 482,1172 493,1169 499,1161 500,1150 497,1136 493,1123 488,1112 484,1104 482,1101 482,761 484,762 489,765 497,768 508,773 522,778 539,783 557,787 578,791 601,793 626,793 652,792 679,788 707,780 737,770 767,756 797,737"/>
<polygon class="pen1 brush2" points="124,52 118,50 109,45 96,37 81,29 64,20 46,11 27,4 9,0 9,4 13,12 22,23 33,35 45,49 58,63 68,75 76,85 76,100 75,122 74,148 74,177 75,207 79,236 86,261 97,281 100,288 103,300 108,315 116,331 126,346 141,358 160,365 185,364 185,368 184,390 193,405 207,414 224,417 242,414 256,404 265,389 265,368 263,365 288,366 307,360 321,348 332,333 339,318 344,303 347,291 350,284 361,264 367,239 371,211 373,181 373,152 372,125 371,103 371,88 375,80 383,69 392,56 401,43 410,29 418,17 422,7 422,1 405,5 389,13 373,22 358,32 346,41 335,49 327,55 323,57 315,49 306,42 295,36 282,31 269,27 255,24 241,22 226,21 211,22 196,23 182,25 168,29 155,33 143,38 133,45 124,52"/>
<polygon class="pen1 brush0" points="283,227 290,226 297,221 301,215 303,207 301,199 297,193 290,189 283,187 276,189 270,193 266,199 265,207 266,215 270,221 276,226 283,227 283,227"/>
<polygon class="pen1 brush0" points="167,227 174,226 180,222 184,216 185,209 184,201 180,194 174,190 167,189 160,190 154,194 150,201 148,209 150,216 154,222 160,226 167,227"/>
</g>
</svg>
