<?xml version="1.0" encoding="UTF-8" standalone="no"?>
<!DOCTYPE svg PUBLIC "-//W3C//DTD SVG 1.0//EN" "http://www.w3.org/TR/2001/REC-SVG-20010904/DTD/svg10.dtd">
<svg xmlns="http://www.w3.org/2000/svg" xmlns:xlink="http://www.w3.org/1999/xlink" fill-rule="evenodd" height="0.962in" preserveAspectRatio="none" stroke-linecap="round" viewBox="0 0 1969 962" width="1.969in">
<style type="text/css">
.brush0 { fill: rgb(255,255,255); }
.pen0 { stroke: rgb(0,0,0); stroke-width: 1; stroke-linejoin: round; }
.brush1 { fill: none; }
.pen1 { stroke: none; }
.brush2 { fill: rgb(0,0,0); }
</style>
<g>
<polygon class="pen1 brush0" points="107,862 116,861 125,859 133,856 140,851 146,846 150,840 153,833 154,826 153,819 150,812 146,806 140,800 133,796 125,793 116,791 107,790 97,791 88,793 80,796 73,800 67,806 63,812 60,819 59,826 60,833 63,840 67,846 73,851 80,856 88,859 97,861 107,862"/>
<polygon class="pen1 brush2" points="1474,65 1477,59 1487,50 1502,40 1522,30 1543,22 1566,16 1588,14 1607,18 1606,46 1605,111 1609,184 1620,236 1615,235 1603,232 1585,225 1563,211 1539,190 1515,160 1493,119 1474,65 1474,65"/>
<polygon class="pen1 brush2" points="1457,86 1441,130 1433,173 1432,214 1438,253 1449,290 1465,324 1484,357 1505,386 1528,414 1551,438 1574,459 1595,477 1614,491 1630,502 1641,510 1646,513 1656,514 1666,513 1676,512 1687,511 1698,508 1709,505 1720,501 1731,497 1742,492 1753,487 1764,481 1774,475 1785,468 1794,461 1804,454 1813,446 1833,426 1847,408 1855,391 1858,376 1856,362 1850,349 1840,338 1827,327 1810,317 1790,309 1768,300 1743,293 1717,286 1690,279 1662,272 1633,266 1606,258 1581,248 1560,236 1541,222 1525,207 1511,191 1499,175 1489,159 1481,144 1474,130 1469,116 1465,105 1462,96 1460,89 1458,86 1457,86 1457,86"/>
<polygon class="pen1 brush2" points="111,804 102,806 94,811 89,819 87,829 89,838 94,846 102,851 111,853 121,851 129,846 134,838 136,829 134,819 129,811 121,806 111,804 139,728 150,723 161,719 173,714 186,710 199,705 213,701 227,696 242,692 258,688 275,684 292,680 310,676 329,673 348,669 368,666 389,663 411,660 434,657 457,654 482,652 507,650 533,648 560,646 588,644 617,643 647,642 677,641 709,640 742,640 776,640 810,640 846,641 846,640 848,635 852,629 858,621 869,612 884,602 904,592 931,581 965,572 1007,563 1058,556 1119,551 1190,549 1272,549 1367,553 1475,560 1484,560 1500,560 1522,560 1549,558 1580,555 1614,551 1650,546 1687,538 1724,528 1759,516 1792,501 1822,483 1847,462 1867,437 1880,409 1886,377 1890,385 1899,405 1912,438 1927,478 1941,525 1954,576 1961,629 1963,680 1961,706 1956,731 1948,754 1937,775 1923,794 1905,811 1883,824 1856,834 1835,840 1812,846 1789,852 1765,858 1741,864 1716,869 1690,875 1664,881 1638,886 1612,892 1585,897 1559,902 1532,907 1506,912 1479,916 1454,920 1428,924 1403,928 1379,932 1355,935 1332,938 1310,941 1289,943 1269,946 1250,947 1232,949 1215,950 1200,950 1186,951 1174,951 1163,950 1154,949 1147,944 1138,937 1125,928 1110,918 1094,909 1076,901 1057,896 1038,894 1032,894 1023,894 1012,895 998,895 982,895 964,896 944,897 923,897 900,898 876,899 851,900 825,901 798,902 770,903 742,903 714,904 686,905 658,906 631,907 603,908 577,909 551,909 527,910 503,910 481,911 461,911 442,912 425,912 411,912 398,912 388,911 381,911 383,908 389,900 395,886 398,867 397,843 389,814 372,779 342,740 344,747 350,766 356,792 360,823 361,854 355,883 341,904 316,915 294,918 271,920 247,922 223,923 198,923 173,923 148,922 124,920 101,918 80,915 60,911 43,907 27,903 15,898 6,892 0,886 4,886 15,886 31,886 51,887 72,888 92,889 110,891 124,894 130,895 125,893 110,888 89,881 66,873 42,867 22,862 8,860 8,857 9,848 14,834 23,817 38,797 61,774 94,751 139,728 111,804"/>
</g>
</svg>
