<?xml version="1.0" encoding="UTF-8" standalone="no"?>
<!DOCTYPE svg PUBLIC "-//W3C//DTD SVG 1.0//EN" "http://www.w3.org/TR/2001/REC-SVG-20010904/DTD/svg10.dtd">
<svg xmlns="http://www.w3.org/2000/svg" xmlns:xlink="http://www.w3.org/1999/xlink" fill-rule="evenodd" height="0.756in" preserveAspectRatio="none" stroke-linecap="round" viewBox="0 0 1977 756" width="1.977in">
<style type="text/css">
.brush0 { fill: rgb(255,255,255); }
.pen0 { stroke: rgb(0,0,0); stroke-width: 1; stroke-linejoin: round; }
.brush1 { fill: none; }
.pen1 { stroke: none; }
.brush2 { fill: rgb(0,0,0); }
</style>
<g>
<polygon class="pen1 brush2" points="416,556 417,557 419,560 423,565 428,570 434,575 442,580 450,583 460,584 420,668 413,635 348,698 369,632 284,683 354,610 280,621 359,585 301,563 416,556 416,556"/>
<polygon class="pen1 brush2" points="339,324 367,349 392,370 413,391 429,412 440,434 444,461 442,492 432,530 432,540 435,549 441,555 449,560 458,564 467,565 476,565 483,563 496,558 511,551 525,541 539,529 551,514 562,498 569,479 574,458 575,432 573,407 568,386 563,367 556,352 551,341 547,333 545,331 557,343 567,358 576,376 584,394 590,411 594,425 597,435 598,439 609,443 622,446 636,449 652,451 669,453 686,454 704,455 721,456 738,457 753,458 767,458 780,458 790,458 798,458 803,458 805,458 821,416 843,386 868,367 894,355 919,350 940,349 954,349 959,350 930,355 903,365 880,379 860,398 843,420 831,444 823,470 819,497 822,524 829,550 841,574 855,596 871,613 887,625 902,629 916,625 926,614 930,599 931,583 929,565 925,549 921,536 917,526 916,523 928,520 943,515 961,509 981,501 1003,492 1026,483 1049,473 1073,463 1095,453 1117,444 1137,435 1154,427 1168,420 1179,415 1187,412 1189,411 1210,439 1240,460 1277,475 1319,483 1366,486 1416,485 1468,480 1520,473 1570,463 1619,453 1664,441 1703,430 1737,420 1762,412 1778,407 1784,405 1800,400 1816,394 1830,387 1844,380 1857,372 1870,364 1881,356 1892,347 1902,337 1911,327 1919,317 1927,307 1934,296 1940,285 1945,274 1950,262 1958,235 1962,209 1963,182 1960,155 1953,130 1943,105 1929,82 1913,60 1899,45 1885,33 1871,23 1857,15 1843,9 1829,5 1815,3 1801,2 1771,4 1744,11 1718,22 1696,34 1678,46 1664,57 1655,64 1652,67 1668,66 1684,65 1700,64 1716,64 1732,65 1748,67 1763,69 1777,72 1790,75 1803,79 1814,84 1824,90 1833,97 1840,104 1845,113 1848,122 1850,136 1851,150 1851,162 1848,174 1844,184 1839,194 1832,203 1824,211 1814,219 1803,225 1790,232 1775,237 1759,242 1742,246 1723,250 1703,254 1682,256 1659,254 1634,249 1606,243 1578,235 1548,227 1517,218 1485,209 1453,202 1422,196 1390,193 1359,193 1329,196 1301,203 1273,215 1248,233 1229,199 1206,171 1178,147 1148,127 1114,112 1079,100 1042,90 1004,84 967,80 930,79 894,79 861,80 830,82 803,84 780,87 761,90 733,93 704,96 675,98 645,100 615,100 586,101 558,101 531,101 506,101 483,100 462,99 444,99 430,98 419,98 412,97 410,97 390,78 367,62 343,50 319,41 298,34 281,30 269,28 265,27 259,21 252,16 245,11 239,8 232,6 225,4 217,3 210,3 195,5 181,9 168,15 156,21 147,28 139,34 135,37 133,39 115,43 97,45 79,46 61,48 44,50 29,55 17,62 8,74 19,85 31,97 44,111 59,124 73,137 87,149 100,159 112,166 99,166 84,161 69,152 53,141 38,129 24,117 12,105 3,95 4,111 10,126 20,140 31,154 44,169 58,185 71,204 82,226 98,257 115,283 134,303 155,319 176,330 197,337 219,342 239,344 259,343 278,341 295,338 310,334 322,331 331,327 337,325 339,324 339,324"/>
<polygon class="pen1 brush2" points="855,617 856,618 859,621 864,626 870,630 877,635 885,639 893,641 902,641 863,727 855,693 790,756 812,692 727,743 797,668 721,681 801,645 743,621 855,617"/>
<polygon class="pen1 brush0" points="210,76 217,74 223,70 227,63 227,56 226,48 222,42 215,38 207,37 200,39 194,43 190,50 189,57 191,64 196,70 202,74 210,76"/>
<polygon class="pen1 brush0" points="542,151 546,150 549,148 550,145 551,141 550,137 549,134 546,132 542,131 538,132 536,134 534,137 533,141 534,145 536,148 538,150 542,151"/>
<polygon class="pen1 brush0" points="581,149 585,148 588,146 590,144 591,141 590,137 588,134 585,132 581,131 577,132 574,134 572,137 571,141 572,144 574,146 577,148 581,149"/>
<polygon class="pen1 brush0" points="619,149 622,148 626,146 628,143 629,139 628,135 626,132 622,130 619,129 614,130 611,132 610,135 609,139 610,143 611,146 614,148 619,149"/>
<polygon class="pen1 brush0" points="517,178 521,177 524,175 526,172 527,168 526,164 524,161 521,159 517,158 513,159 510,161 508,164 507,168 508,172 510,175 513,177 517,178"/>
<polygon class="pen1 brush0" points="558,178 562,177 565,175 567,172 568,168 567,164 565,161 562,159 558,158 554,159 551,161 549,164 548,168 549,172 551,175 554,177 558,178"/>
<polygon class="pen1 brush0" points="598,175 601,174 605,173 607,170 608,165 607,162 605,158 601,156 598,155 594,156 591,158 589,162 588,165 589,170 591,173 594,174 598,175"/>
<polygon class="pen1 brush0" points="540,206 544,205 547,203 549,200 550,195 549,191 547,188 544,186 540,185 536,186 533,188 531,191 530,195 531,200 533,203 536,205 540,206"/>
<polygon class="pen1 brush0" points="579,205 583,204 586,202 588,199 589,195 588,191 586,188 583,186 579,185 576,186 573,188 570,191 569,195 570,199 573,202 576,204 579,205"/>
<polygon class="pen1 brush0" points="619,202 623,201 626,199 628,196 629,192 628,187 626,184 623,183 619,182 616,183 613,184 610,187 609,192 610,196 613,199 616,201 619,202"/>
<polygon class="pen1 brush0" points="642,175 645,174 649,172 651,169 652,165 651,161 649,158 645,156 642,155 638,156 635,158 633,161 632,165 633,169 635,172 638,174 642,175"/>
<polygon class="pen1 brush0" points="659,281 666,280 671,277 675,273 676,266 675,259 671,254 666,250 659,249 653,250 647,254 643,259 642,266 643,273 647,277 653,280 659,281"/>
<polygon class="pen1 brush0" points="723,281 729,280 735,276 738,271 740,264 738,258 735,253 729,250 723,249 716,250 711,253 707,258 706,264 707,271 711,276 716,280 723,281"/>
<polygon class="pen1 brush0" points="785,280 791,279 797,275 801,270 802,263 801,257 797,251 791,247 785,246 779,247 775,251 771,257 770,263 771,270 775,275 779,279 785,280"/>
<polygon class="pen1 brush0" points="619,326 625,325 630,322 634,317 635,310 634,303 630,298 625,294 619,293 612,294 607,298 603,303 602,310 603,317 607,322 612,325 619,326"/>
<polygon class="pen1 brush0" points="684,326 691,325 696,322 700,317 702,310 700,303 696,298 691,294 684,293 678,294 674,298 670,303 669,310 670,317 674,322 678,325 684,326"/>
<polygon class="pen1 brush0" points="750,324 757,323 762,319 766,314 767,307 766,301 762,295 757,292 750,290 744,292 739,295 735,301 734,307 735,314 739,319 744,323 750,324"/>
<polygon class="pen1 brush0" points="656,372 662,371 667,368 671,364 672,357 671,350 667,345 662,342 656,341 649,342 644,345 640,350 639,357 640,364 644,368 649,371 656,372"/>
<polygon class="pen1 brush0" points="720,371 727,370 732,366 736,361 737,355 736,349 732,343 727,340 720,338 714,340 709,343 705,349 704,355 705,361 709,366 714,370 720,371"/>
<polygon class="pen1 brush0" points="788,367 795,366 800,362 804,357 805,350 804,344 800,339 795,335 788,334 782,335 778,339 774,344 773,350 774,357 778,362 782,366 788,367"/>
<polygon class="pen1 brush0" points="825,323 831,322 836,318 840,313 841,306 840,300 836,295 831,291 825,290 818,291 813,295 809,300 808,306 809,313 813,318 818,322 825,323"/>
<polygon class="pen1 brush0" points="909,176 914,175 919,173 922,168 923,162 922,157 919,152 914,149 909,148 904,149 899,152 896,157 895,162 896,168 899,173 904,175 909,176"/>
<polygon class="pen1 brush0" points="963,175 969,174 973,171 976,167 977,162 976,156 973,152 969,149 963,148 958,149 954,152 951,156 950,162 951,167 954,171 958,174 963,175"/>
<polygon class="pen1 brush0" points="1017,175 1022,174 1027,171 1030,167 1031,161 1030,156 1027,151 1022,148 1017,147 1011,148 1007,151 1004,156 1003,161 1004,167 1007,171 1011,174 1017,175"/>
<polygon class="pen1 brush0" points="873,215 879,214 884,211 887,207 888,201 887,195 884,190 879,187 873,186 867,187 863,190 860,195 859,201 860,207 863,211 867,214 873,215"/>
<polygon class="pen1 brush0" points="930,215 936,214 940,211 943,207 944,201 943,195 940,190 936,187 930,186 925,187 920,190 917,195 916,201 917,207 920,211 925,214 930,215"/>
<polygon class="pen1 brush0" points="987,212 992,211 996,208 999,204 1000,199 999,193 996,189 992,186 987,185 982,186 977,189 974,193 973,199 974,204 977,208 982,211 987,212"/>
<polygon class="pen1 brush0" points="906,254 911,253 915,250 918,246 919,240 918,235 915,230 911,227 906,226 901,227 896,230 893,235 892,240 893,246 896,250 901,253 906,254"/>
<polygon class="pen1 brush0" points="963,253 968,252 973,249 976,245 977,239 976,234 973,230 968,227 963,226 957,227 953,230 950,234 949,239 950,245 953,249 957,252 963,253"/>
<polygon class="pen1 brush0" points="1018,249 1024,248 1029,245 1032,241 1033,235 1032,229 1029,224 1024,221 1018,220 1013,221 1008,224 1005,229 1004,235 1005,241 1008,245 1013,248 1018,249"/>
<polygon class="pen1 brush0" points="1050,212 1055,211 1060,208 1063,204 1064,198 1063,192 1060,187 1055,184 1050,183 1044,184 1039,187 1036,192 1035,198 1036,204 1039,208 1044,211 1050,212"/>
<polygon class="pen1 brush0" points="237,212 240,213 243,213 246,211 248,208 249,204 249,200 247,197 244,195 240,194 236,194 233,196 231,199 230,203 231,207 233,210 237,212"/>
<polygon class="pen1 brush0" points="271,227 275,228 279,227 282,225 284,222 285,219 285,215 283,212 280,209 276,209 272,209 269,211 267,215 266,218 266,222 268,225 271,227"/>
<polygon class="pen1 brush0" points="305,242 309,242 313,242 316,240 318,236 319,233 319,229 317,226 314,223 310,223 306,223 303,225 301,229 300,232 300,236 302,239 305,242"/>
<polygon class="pen1 brush0" points="203,226 207,227 211,227 214,225 217,222 218,218 217,214 215,211 211,209 207,208 204,208 201,210 199,213 198,217 198,221 200,224 203,226"/>
<polygon class="pen1 brush0" points="240,243 243,244 247,243 250,241 253,237 253,234 253,230 251,227 247,225 244,224 240,224 237,226 234,229 234,233 234,237 236,240 240,243"/>
<polygon class="pen1 brush0" points="277,256 280,257 284,257 288,255 290,253 290,249 290,245 288,242 284,239 281,238 277,239 274,241 271,245 271,248 271,252 273,255 277,256"/>
<polygon class="pen1 brush0" points="213,260 216,261 220,261 222,259 224,256 225,252 225,248 223,245 220,243 216,242 212,242 209,244 207,247 206,251 207,255 209,258 213,260"/>
<polygon class="pen1 brush0" points="248,276 252,276 256,276 259,274 261,272 262,268 262,264 260,261 257,259 253,258 249,258 246,260 244,263 243,267 243,271 245,274 248,276"/>
<polygon class="pen1 brush0" points="288,289 291,289 294,289 298,287 300,284 301,281 300,277 298,274 294,272 291,271 287,272 285,274 283,277 282,280 283,284 285,287 288,289"/>
<polygon class="pen1 brush0" points="317,274 320,275 324,274 327,273 329,270 330,266 329,262 328,259 325,256 321,255 317,256 314,258 311,262 310,265 311,269 313,272 317,274"/>
</g>
</svg>
