<?xml version="1.0" encoding="UTF-8" standalone="no"?>
<!DOCTYPE svg PUBLIC "-//W3C//DTD SVG 1.0//EN" "http://www.w3.org/TR/2001/REC-SVG-20010904/DTD/svg10.dtd">
<svg xmlns="http://www.w3.org/2000/svg" xmlns:xlink="http://www.w3.org/1999/xlink" fill-rule="evenodd" height="1.377in" preserveAspectRatio="none" stroke-linecap="round" viewBox="0 0 1987 1377" width="1.987in">
<style type="text/css">
.brush0 { fill: rgb(255,255,255); }
.pen0 { stroke: rgb(0,0,0); stroke-width: 1; stroke-linejoin: round; }
.brush1 { fill: none; }
.pen1 { stroke: none; }
.brush2 { fill: rgb(0,0,0); }
</style>
<g>
<polygon class="pen1 brush2" points="514,563 517,562 521,563 526,565 532,569 540,573 548,578 558,583 569,589 580,595 594,600 608,605 623,609 639,613 657,615 676,616 696,615 696,616 695,619 695,623 694,628 695,634 696,641 699,647 703,653 710,658 718,662 729,664 743,665 761,663 781,659 806,652 835,641 850,635 865,629 880,623 895,617 910,611 926,605 942,599 959,593 975,588 993,583 1011,578 1030,573 1049,569 1070,565 1091,561 1113,558 1136,556 1161,554 1186,552 1213,551 1240,551 1270,551 1300,552 1332,554 1366,556 1401,560 1438,564 1477,569 1517,575 1560,581 1604,589 1650,598 1662,599 1678,600 1697,599 1719,597 1742,595 1767,592 1794,588 1820,583 1847,579 1873,573 1898,568 1921,562 1942,557 1961,551 1976,546 1987,541 1986,543 1982,547 1977,555 1969,566 1959,579 1948,595 1934,612 1919,632 1902,653 1883,676 1863,700 1842,726 1819,752 1795,779 1769,807 1743,835 1716,863 1687,891 1658,918 1628,945 1598,972 1566,997 1535,1022 1503,1045 1470,1067 1438,1087 1405,1105 1372,1121 1339,1134 1306,1145 1273,1154 1241,1159 1249,1153 1256,1146 1261,1138 1264,1129 1264,1121 1260,1114 1251,1109 1238,1105 1240,1105 1245,1101 1251,1095 1257,1088 1260,1079 1259,1069 1252,1058 1237,1048 1242,1049 1249,1046 1256,1040 1262,1032 1264,1023 1262,1013 1254,1004 1238,997 1249,996 1258,990 1265,982 1268,973 1266,964 1260,955 1247,949 1228,947 1130,949 1130,952 1132,961 1133,974 1134,991 1134,1012 1132,1034 1129,1058 1124,1082 1115,1106 1103,1128 1088,1149 1068,1166 1043,1179 1012,1188 976,1191 934,1188 888,1180 846,1170 809,1158 775,1145 745,1130 720,1113 699,1095 682,1075 670,1054 662,1030 658,1006 660,979 666,951 677,922 693,891 714,858 712,860 706,865 697,873 685,883 673,897 660,912 648,930 637,950 628,971 622,994 620,1018 623,1043 631,1069 647,1095 669,1121 700,1148 729,1168 760,1184 793,1199 827,1210 862,1220 897,1227 932,1233 968,1236 1003,1239 1037,1239 1070,1239 1101,1237 1131,1235 1158,1231 1183,1227 1205,1223 1264,1206 1317,1188 1366,1170 1410,1149 1452,1128 1490,1105 1526,1080 1561,1053 1594,1025 1628,995 1661,962 1694,928 1729,891 1766,851 1806,809 1848,764 1847,766 1846,772 1843,783 1838,796 1833,812 1826,831 1818,852 1808,875 1797,900 1784,925 1770,951 1755,977 1738,1004 1719,1029 1699,1054 1677,1078 1655,1101 1631,1125 1607,1149 1582,1174 1556,1199 1529,1224 1500,1248 1469,1271 1437,1292 1403,1312 1366,1330 1328,1345 1287,1358 1244,1367 1198,1373 1150,1375 1113,1375 1078,1375 1043,1375 1010,1376 977,1376 946,1376 916,1376 887,1376 859,1376 831,1376 805,1375 780,1375 756,1375 733,1374 710,1374 689,1373 668,1373 648,1372 629,1371 611,1371 593,1370 577,1368 561,1367 545,1366 531,1365 517,1363 504,1361 491,1360 479,1358 468,1356 457,1353 447,1351 393,1333 344,1307 300,1274 263,1235 232,1189 209,1139 194,1085 188,1028 190,969 202,908 225,847 259,786 304,727 361,669 431,614 514,563 514,563"/>
<polygon class="pen1 brush2" points="707,577 734,528 761,485 786,445 810,406 830,368 845,329 855,287 859,240 858,216 854,192 848,169 840,147 830,126 818,106 804,88 789,70 771,55 753,41 733,29 712,19 690,11 667,5 643,1 619,0 594,1 570,3 546,7 523,13 500,21 478,31 458,42 438,56 421,72 404,89 390,109 378,132 368,156 360,183 355,212 353,244 355,268 363,295 375,322 392,347 412,370 436,388 462,400 491,403 525,406 549,414 564,428 572,445 572,465 567,486 558,507 545,527 560,538 575,547 589,555 604,561 618,566 631,571 643,574 655,576 666,578 676,579 685,579 692,579 698,579 703,579 706,578 707,577 707,577"/>
<polygon class="pen1 brush2" points="339,131 328,186 322,231 323,275 333,324 315,332 297,339 278,346 259,352 240,358 222,364 203,369 184,374 173,377 161,379 150,381 138,383 127,385 115,386 104,388 92,389 80,390 69,391 57,392 46,393 34,394 23,395 11,395 0,396 2,390 6,384 10,379 15,375 19,372 24,369 28,367 32,366 72,351 108,335 140,318 170,302 197,285 221,268 242,251 261,234 278,218 292,203 304,188 314,174 323,161 330,150 335,140 339,131 339,131 339,131"/>
<polygon class="pen1 brush2" points="339,339 342,346 346,353 350,359 354,366 358,373 363,380 368,388 373,395 370,396 361,398 347,401 329,405 307,409 282,414 254,418 225,423 195,426 164,429 133,431 104,431 76,429 50,426 27,420 8,412 19,411 30,410 41,410 52,409 63,408 74,407 85,406 96,404 107,403 119,402 130,400 141,399 152,397 164,395 175,393 186,391 205,386 225,380 244,374 263,368 282,361 301,354 320,346 339,339"/>
<polygon class="pen1 brush0" points="515,229 523,228 531,226 538,222 544,218 548,212 552,205 554,197 555,189 554,181 552,174 548,167 544,161 538,156 531,152 523,150 515,149 507,150 500,152 494,156 488,161 483,167 480,174 478,181 477,189 478,197 480,205 483,212 488,218 494,222 500,226 507,228 515,229"/>
</g>
</svg>
