<?xml version="1.0" encoding="UTF-8" standalone="no"?>
<!DOCTYPE svg PUBLIC "-//W3C//DTD SVG 1.0//EN" "http://www.w3.org/TR/2001/REC-SVG-20010904/DTD/svg10.dtd">
<svg xmlns="http://www.w3.org/2000/svg" xmlns:xlink="http://www.w3.org/1999/xlink" fill-rule="evenodd" height="2.061in" preserveAspectRatio="none" stroke-linecap="round" viewBox="0 0 1916 2061" width="1.916in">
<style type="text/css">
.brush0 { fill: rgb(255,255,255); }
.pen0 { stroke: rgb(0,0,0); stroke-width: 1; stroke-linejoin: round; }
.brush1 { fill: none; }
.pen1 { stroke: none; }
.brush2 { fill: rgb(0,0,0); }
</style>
<g>
<polygon class="pen1 brush2" points="1060,1694 1122,1681 1141,1722 1054,1872 1138,1909 1040,1914 1026,1967 798,2061 906,1963 734,2004 866,1943 723,1904 973,1901 1077,1736 1060,1694 1060,1694"/>
<polygon class="pen1 brush2" points="695,675 680,628 665,586 649,548 633,516 616,487 598,463 579,443 559,427 538,415 517,407 494,402 470,400 445,401 418,405 390,412 361,422 333,434 309,448 289,464 272,481 259,499 250,518 243,538 240,558 240,577 242,597 246,615 253,632 261,647 272,661 284,672 297,681 320,699 336,722 344,746 348,771 348,794 346,813 343,826 342,831 373,837 399,836 419,829 434,817 444,801 451,782 454,759 455,736 453,712 450,688 446,665 441,644 437,627 433,613 430,604 429,601 462,658 485,707 499,748 504,782 501,810 493,832 480,849 464,862 445,871 425,876 404,879 385,880 368,880 354,879 345,878 342,877 342,921 344,964 348,1006 355,1048 363,1089 373,1129 385,1168 399,1206 415,1243 433,1280 452,1315 474,1348 497,1381 521,1412 548,1441 576,1469 606,1496 637,1520 670,1543 704,1564 740,1584 777,1601 816,1616 856,1629 898,1641 941,1649 985,1656 1030,1660 1077,1662 1125,1661 1174,1657 1224,1651 1274,1644 1321,1639 1367,1635 1410,1632 1451,1631 1489,1630 1526,1631 1561,1633 1594,1636 1625,1639 1654,1643 1682,1648 1707,1653 1731,1659 1753,1666 1774,1672 1793,1679 1810,1686 1826,1693 1840,1700 1853,1707 1865,1714 1875,1720 1884,1727 1892,1732 1899,1738 1904,1742 1909,1746 1912,1750 1914,1752 1916,1753 1916,1754 1879,1654 1839,1561 1797,1474 1753,1393 1708,1319 1661,1249 1613,1186 1564,1127 1514,1073 1464,1025 1413,980 1363,940 1313,904 1263,872 1213,843 1165,817 1118,795 1072,776 1027,759 984,744 944,732 905,722 869,713 836,706 806,700 779,696 755,692 735,688 718,685 706,682 698,679 695,675 695,675"/>
<polygon class="pen1 brush2" points="213,554 224,672 221,672 213,670 201,668 186,665 170,661 154,656 139,649 126,641 128,638 133,630 141,618 152,603 165,589 180,574 196,562 213,554 213,554"/>
<polygon class="pen1 brush2" points="320,414 320,404 320,390 319,375 316,358 312,340 305,323 297,306 287,292 274,281 258,274 239,271 217,274 192,284 162,301 129,327 91,361 81,366 68,363 56,355 46,343 41,329 42,314 53,299 74,286 71,282 66,271 59,255 55,236 55,217 63,200 81,186 112,179 113,177 114,172 117,163 122,153 128,141 135,129 144,116 154,105 166,95 180,87 196,81 214,80 233,82 255,90 279,103 305,123 324,142 341,165 355,193 366,225 372,260 373,300 369,344 359,391 355,400 350,406 344,410 337,413 330,414 325,414 321,414 320,414"/>
<polygon class="pen1 brush0" points="365,590 372,589 379,587 385,584 391,580 395,575 398,569 400,563 401,556 400,549 398,542 395,536 391,530 385,526 379,523 372,521 365,520 358,521 352,523 346,526 341,530 337,536 334,542 332,549 331,556 332,563 334,569 337,575 341,580 346,584 352,587 358,589 365,590"/>
<polygon class="pen1 brush0" points="426,476 434,475 443,474 453,472 464,471 475,470 486,470 498,470 510,471 522,474 534,478 545,483 557,491 567,500 577,512 586,526 594,543 592,541 585,535 573,528 557,520 537,513 512,508 483,506 449,509 426,476"/>
<polygon class="pen1 brush0" points="936,1208 943,1212 954,1217 968,1224 985,1232 1004,1240 1025,1249 1048,1259 1073,1269 1099,1279 1126,1289 1154,1299 1182,1308 1210,1317 1238,1325 1266,1331 1293,1337 1319,1341 1344,1344 1367,1345 1388,1344 1407,1341 1424,1336 1438,1328 1449,1318 1456,1305 1460,1288 1460,1269 1456,1246 1448,1219 1434,1189 1416,1154 1392,1116 1394,1118 1400,1125 1409,1136 1420,1149 1433,1166 1446,1185 1460,1205 1473,1227 1484,1250 1493,1272 1499,1295 1501,1316 1499,1337 1491,1355 1477,1371 1457,1384 1430,1392 1398,1394 1362,1390 1322,1382 1280,1370 1237,1355 1193,1338 1149,1319 1107,1299 1068,1280 1031,1261 1000,1244 973,1229 953,1218 940,1211 936,1208"/>
<polygon class="pen1 brush0" points="838,1322 832,1326 824,1333 816,1344 808,1357 800,1371 793,1386 789,1401 787,1414 787,1415 789,1418 791,1422 796,1426 801,1430 809,1434 819,1437 831,1438 833,1436 837,1430 844,1421 852,1410 860,1396 868,1381 874,1364 878,1347 877,1346 874,1342 870,1338 864,1332 858,1327 851,1323 844,1321 838,1322"/>
<polygon class="pen1 brush0" points="919,1374 913,1379 905,1387 898,1399 891,1412 885,1427 880,1443 876,1458 875,1471 876,1472 878,1475 881,1478 886,1483 892,1487 900,1490 910,1492 922,1492 924,1490 928,1483 934,1473 941,1461 948,1446 954,1429 958,1412 960,1394 959,1393 956,1390 951,1386 945,1381 938,1377 931,1374 925,1373 919,1374"/>
<polygon class="pen1 brush0" points="1011,1417 1005,1421 999,1430 992,1442 986,1456 980,1471 975,1487 973,1502 972,1516 973,1517 974,1519 978,1523 982,1527 989,1530 996,1533 1006,1534 1018,1533 1020,1531 1024,1524 1029,1514 1036,1502 1043,1487 1048,1470 1052,1453 1054,1435 1053,1434 1049,1431 1044,1427 1038,1423 1031,1420 1024,1417 1017,1416 1011,1417"/>
<polygon class="pen1 brush0" points="1105,1442 1099,1447 1093,1456 1087,1468 1081,1483 1076,1498 1072,1514 1070,1529 1070,1543 1071,1544 1073,1546 1076,1550 1081,1554 1087,1557 1095,1560 1105,1561 1116,1560 1117,1558 1121,1551 1126,1541 1133,1528 1139,1513 1144,1496 1148,1479 1149,1461 1148,1460 1144,1457 1139,1453 1132,1449 1125,1445 1118,1442 1111,1441 1105,1442"/>
<polygon class="pen1 brush0" points="1199,1462 1194,1468 1189,1477 1184,1490 1180,1505 1176,1521 1174,1537 1173,1552 1175,1566 1176,1567 1178,1569 1181,1572 1187,1575 1193,1578 1202,1579 1211,1579 1223,1577 1227,1568 1236,1544 1243,1511 1244,1475 1243,1474 1239,1472 1233,1469 1227,1465 1219,1463 1212,1461 1205,1460 1199,1462"/>
</g>
</svg>
