<?xml version="1.0" encoding="UTF-8" standalone="no"?>
<!DOCTYPE svg PUBLIC "-//W3C//DTD SVG 1.0//EN" "http://www.w3.org/TR/2001/REC-SVG-20010904/DTD/svg10.dtd">
<svg xmlns="http://www.w3.org/2000/svg" xmlns:xlink="http://www.w3.org/1999/xlink" fill-rule="evenodd" height="2.006in" preserveAspectRatio="none" stroke-linecap="round" viewBox="0 0 1751 2006" width="1.751in">
<style type="text/css">
.brush0 { fill: rgb(255,255,255); }
.pen0 { stroke: rgb(0,0,0); stroke-width: 1; stroke-linejoin: round; }
.brush1 { fill: none; }
.pen1 { stroke: none; }
.brush2 { fill: rgb(0,0,0); }
</style>
<g>
<polygon class="pen1 brush2" points="409,1884 445,1876 483,1866 524,1855 565,1842 609,1828 653,1812 699,1795 745,1777 793,1757 840,1737 888,1714 937,1691 985,1666 1033,1641 1081,1614 1128,1585 1175,1556 1220,1526 1264,1494 1307,1461 1349,1428 1389,1393 1427,1357 1462,1321 1496,1283 1527,1245 1556,1205 1582,1165 1604,1124 1624,1082 1640,1039 1653,995 1663,945 1668,895 1668,843 1662,791 1651,737 1634,683 1610,629 1580,573 1547,530 1510,498 1468,476 1423,464 1375,459 1327,461 1277,469 1229,481 1181,496 1136,514 1095,533 1057,552 1025,570 999,585 981,597 970,604 967,602 965,601 962,600 959,600 958,589 955,568 949,539 942,503 932,463 920,419 904,373 885,326 863,281 837,238 806,199 772,165 733,139 690,121 641,113 587,117 557,123 526,132 495,144 463,158 432,175 400,194 369,217 338,242 308,271 279,302 251,337 225,375 200,416 178,460 157,508 139,559 128,600 118,642 110,687 103,733 98,781 95,832 94,884 95,939 98,986 103,1035 109,1086 117,1138 127,1191 139,1246 152,1303 168,1361 185,1421 205,1482 226,1545 250,1610 276,1677 305,1745 335,1814 368,1886 372,1895 370,1908 363,1922 353,1937 341,1952 329,1965 319,1976 311,1984 274,1905 240,1827 209,1751 180,1677 154,1605 130,1534 108,1465 89,1398 71,1333 56,1269 44,1207 33,1147 24,1089 18,1032 13,978 10,925 9,844 11,766 19,693 29,624 44,559 61,498 82,441 105,388 127,345 150,305 176,267 202,233 230,201 258,171 287,144 318,120 348,98 379,78 410,61 441,46 471,34 501,23 531,15 560,9 579,6 597,5 616,5 633,6 650,9 667,12 683,17 698,23 713,30 727,37 741,45 754,54 767,64 779,75 790,86 801,98 826,129 849,163 870,198 888,235 905,273 919,311 932,348 942,384 951,419 959,450 965,479 969,504 973,524 975,540 977,550 977,553 986,557 987,556 992,553 999,549 1008,543 1020,536 1033,528 1049,518 1067,509 1087,498 1108,487 1130,476 1154,465 1179,455 1205,444 1232,434 1260,425 1270,421 1281,418 1291,415 1302,412 1313,409 1324,407 1334,404 1345,402 1368,398 1392,396 1415,394 1438,394 1461,395 1483,397 1505,401 1527,407 1548,414 1568,423 1588,434 1607,447 1625,462 1642,479 1657,498 1672,520 1682,537 1691,555 1700,573 1708,593 1715,613 1722,634 1728,656 1734,678 1742,716 1747,756 1750,796 1750,837 1748,880 1742,925 1734,970 1722,1016 1716,1037 1709,1057 1701,1078 1692,1099 1683,1120 1673,1141 1663,1163 1651,1184 1639,1206 1626,1227 1612,1249 1597,1271 1582,1292 1565,1314 1548,1335 1530,1357 1502,1389 1473,1419 1442,1449 1411,1478 1379,1506 1346,1533 1312,1559 1278,1584 1242,1609 1206,1633 1169,1656 1132,1678 1094,1700 1055,1721 1016,1741 977,1761 937,1780 897,1798 857,1816 816,1833 775,1850 735,1866 694,1881 653,1896 611,1910 570,1924 530,1938 489,1951 448,1964 408,1976 368,1988 328,1999 327,1997 333,1989 344,1975 359,1957 375,1937 390,1917 402,1899 409,1884 409,1884"/>
<polygon class="pen1 brush2" points="183,1344 193,1378 203,1412 214,1446 225,1480 236,1514 248,1547 261,1581 274,1614 287,1647 300,1681 314,1713 328,1746 343,1779 357,1812 373,1844 388,1876 406,1862 422,1837 434,1805 445,1769 454,1731 461,1695 469,1663 476,1638 450,1583 426,1529 404,1477 383,1426 364,1376 347,1328 332,1280 319,1234 306,1190 296,1146 287,1104 279,1063 273,1023 269,985 265,947 263,911 262,835 267,764 277,698 291,637 310,582 332,531 357,486 385,444 415,408 446,376 479,349 513,325 547,306 581,291 614,279 646,272 680,269 710,272 739,280 765,292 789,309 810,329 830,352 847,377 863,404 876,432 888,460 899,489 908,517 915,543 921,568 926,590 932,592 939,593 945,595 952,597 949,577 944,551 937,519 929,483 917,444 904,403 888,361 869,320 847,280 822,243 793,210 761,181 725,159 684,145 640,139 591,142 551,151 511,165 469,183 427,207 385,236 345,270 305,309 268,354 234,405 203,461 175,524 152,592 134,667 121,748 115,836 115,931 118,977 122,1025 128,1074 136,1124 145,1177 156,1231 169,1286 183,1344 183,1344"/>
<polygon class="pen1 brush2" points="976,607 982,609 988,612 993,615 997,617 1018,606 1041,594 1066,583 1093,572 1121,561 1150,552 1180,545 1210,539 1240,537 1269,537 1298,540 1325,548 1351,559 1375,576 1397,597 1416,624 1443,675 1464,724 1478,773 1485,821 1487,868 1483,914 1473,959 1459,1003 1446,1034 1430,1065 1413,1094 1393,1124 1371,1153 1348,1181 1323,1208 1296,1235 1268,1261 1238,1287 1208,1312 1176,1336 1143,1359 1109,1382 1075,1404 1040,1425 1004,1446 968,1465 932,1484 895,1502 859,1519 822,1536 786,1551 750,1565 714,1579 679,1592 645,1604 611,1614 579,1624 547,1633 516,1641 487,1648 480,1675 476,1701 472,1727 468,1752 463,1777 456,1801 446,1826 432,1852 505,1831 575,1808 643,1786 707,1762 769,1738 828,1713 885,1688 939,1663 991,1637 1040,1610 1087,1583 1131,1556 1173,1528 1213,1500 1251,1472 1287,1444 1320,1415 1351,1386 1381,1358 1408,1329 1433,1300 1457,1270 1479,1241 1499,1212 1517,1184 1534,1155 1549,1126 1562,1098 1574,1069 1584,1041 1593,1013 1601,986 1613,926 1619,868 1619,812 1614,759 1605,710 1591,664 1574,622 1554,584 1525,545 1492,516 1455,495 1415,482 1373,475 1330,475 1286,480 1242,489 1198,501 1156,516 1117,532 1080,549 1047,566 1018,582 994,596 976,607 976,607"/>
<polygon class="pen1 brush2" points="484,1611 490,1594 499,1577 510,1559 521,1542 532,1526 540,1514 545,1504 546,1499 485,1360 438,1232 405,1114 385,1006 375,908 376,820 386,741 403,670 427,609 456,556 490,510 526,473 565,443 605,420 644,404 682,394 704,392 724,393 743,397 761,403 777,411 793,422 807,435 820,449 832,464 844,481 854,498 863,516 871,535 879,553 885,572 891,590 897,589 904,588 912,589 919,590 914,568 908,543 900,518 891,492 881,465 869,439 856,413 841,388 824,366 806,345 785,327 763,312 738,301 712,294 683,291 652,294 607,305 560,324 513,352 467,388 423,432 382,486 347,550 318,624 297,707 285,802 284,907 295,1024 319,1152 357,1293 412,1446 484,1611 484,1611"/>
<polygon class="pen1 brush2" points="1003,621 1010,626 1017,631 1023,636 1028,641 1045,634 1063,628 1081,622 1100,617 1119,613 1138,610 1157,609 1175,608 1194,610 1212,613 1229,618 1245,625 1261,635 1275,646 1289,661 1301,678 1316,709 1328,744 1336,782 1341,822 1341,866 1337,911 1326,958 1310,1006 1303,1023 1295,1040 1286,1057 1277,1074 1266,1091 1255,1108 1243,1125 1230,1142 1215,1159 1200,1176 1184,1192 1167,1209 1149,1226 1129,1242 1109,1258 1088,1275 1065,1291 1041,1306 1016,1322 990,1337 963,1352 934,1367 904,1381 873,1396 841,1410 807,1423 772,1436 735,1449 697,1461 658,1473 617,1485 575,1496 563,1513 552,1530 543,1546 534,1561 525,1577 516,1592 507,1607 496,1623 496,1624 550,1609 602,1593 652,1577 700,1560 747,1543 791,1525 834,1507 875,1489 914,1471 952,1452 988,1433 1022,1413 1055,1394 1086,1374 1116,1354 1144,1333 1170,1313 1196,1292 1219,1272 1242,1251 1263,1230 1282,1209 1301,1188 1318,1167 1334,1146 1349,1125 1362,1104 1374,1083 1386,1062 1396,1041 1405,1021 1413,1000 1430,946 1441,893 1445,842 1444,794 1437,749 1427,707 1412,669 1395,635 1377,610 1357,590 1335,575 1311,564 1286,556 1260,552 1233,551 1205,553 1178,557 1150,563 1123,571 1096,580 1071,590 1046,600 1024,611 1003,621 1003,621"/>
<polygon class="pen1 brush2" points="557,1475 561,1476 565,1476 569,1476 574,1475 578,1473 582,1472 587,1470 591,1469 611,1443 628,1416 643,1386 655,1356 664,1324 671,1292 675,1259 676,1226 679,1189 686,1153 696,1118 710,1086 726,1055 744,1027 762,1003 780,982 803,957 821,934 834,912 844,889 852,865 858,837 865,804 872,766 877,749 881,734 886,720 891,709 877,699 865,687 855,676 847,664 841,653 839,641 838,630 841,620 844,614 848,609 852,605 857,600 862,597 868,594 875,592 882,590 876,573 870,557 863,540 855,523 846,507 837,492 827,477 815,463 803,451 789,440 775,431 760,424 743,419 725,416 706,416 686,418 650,427 613,442 575,464 538,492 503,528 471,571 443,622 420,681 403,748 394,824 393,909 403,1002 422,1106 454,1219 498,1342 557,1475 557,1475"/>
<polygon class="pen1 brush2" points="1034,648 1047,664 1054,680 1056,696 1053,711 1045,722 1034,730 1020,736 1003,739 984,740 964,738 943,733 921,725 917,723 912,720 908,718 903,716 899,728 895,741 891,754 888,769 880,808 874,840 867,868 859,893 849,916 836,938 819,961 796,986 777,1006 758,1031 740,1059 724,1089 710,1122 700,1157 693,1192 690,1229 689,1261 685,1292 680,1323 672,1353 661,1382 648,1410 633,1437 615,1462 682,1441 745,1419 804,1397 859,1373 910,1349 958,1324 1002,1298 1043,1272 1080,1246 1114,1219 1146,1192 1174,1165 1199,1137 1222,1109 1242,1082 1259,1054 1274,1027 1286,1000 1297,973 1305,947 1311,921 1315,896 1318,871 1319,847 1318,824 1316,802 1312,780 1308,760 1302,740 1295,722 1287,705 1278,689 1267,674 1256,660 1243,649 1229,640 1215,633 1200,628 1184,625 1168,623 1151,622 1134,623 1117,625 1100,628 1083,632 1066,637 1050,642 1034,648"/>
</g>
</svg>
