<?xml version="1.0" encoding="UTF-8" standalone="no"?>
<!DOCTYPE svg PUBLIC "-//W3C//DTD SVG 1.0//EN" "http://www.w3.org/TR/2001/REC-SVG-20010904/DTD/svg10.dtd">
<svg xmlns="http://www.w3.org/2000/svg" xmlns:xlink="http://www.w3.org/1999/xlink" fill-rule="evenodd" height="1.973in" preserveAspectRatio="none" stroke-linecap="round" viewBox="0 0 1416 1973" width="1.416in">
<style type="text/css">
.brush0 { fill: rgb(255,255,255); }
.pen0 { stroke: rgb(0,0,0); stroke-width: 1; stroke-linejoin: round; }
.brush1 { fill: none; }
.pen1 { stroke: none; }
.brush2 { fill: rgb(0,0,0); }
</style>
<g>
<polygon class="pen1 brush2" points="704,1973 726,1971 747,1967 768,1959 788,1949 807,1935 825,1919 843,1901 859,1880 550,1880 566,1901 584,1919 602,1935 621,1949 641,1959 661,1967 682,1971 704,1973 704,1973"/>
<polygon class="pen1 brush2" points="869,1867 876,1855 883,1843 890,1830 897,1817 903,1804 909,1790 914,1776 919,1762 490,1762 495,1776 501,1790 507,1804 513,1817 520,1830 527,1843 534,1855 541,1867 869,1867 869,1867"/>
<polygon class="pen1 brush2" points="925,1748 932,1725 938,1700 944,1675 950,1648 460,1648 465,1675 471,1700 477,1725 484,1748 925,1748 925,1748"/>
<polygon class="pen1 brush2" points="952,1635 955,1610 958,1584 959,1559 960,1533 449,1533 450,1559 452,1584 454,1610 457,1635 952,1635 952,1635"/>
<polygon class="pen1 brush2" points="960,1520 960,1518 960,1517 960,1516 960,1514 960,1491 959,1468 957,1446 954,1423 453,1423 451,1446 450,1468 449,1491 449,1514 449,1516 449,1517 449,1518 449,1520 960,1520 960,1520"/>
<polygon class="pen1 brush2" points="953,1411 950,1387 946,1364 941,1341 936,1320 473,1320 468,1341 463,1364 459,1387 456,1411 953,1411 953,1411"/>
<polygon class="pen1 brush2" points="933,1307 929,1293 925,1280 920,1267 916,1254 911,1242 905,1230 900,1218 895,1207 514,1207 509,1218 504,1230 499,1242 494,1254 489,1267 485,1280 481,1293 477,1307 933,1307 933,1307"/>
<polygon class="pen1 brush2" points="888,1195 882,1184 876,1173 869,1163 862,1153 855,1144 848,1135 840,1126 832,1118 819,1128 805,1136 790,1143 774,1150 758,1155 742,1158 724,1160 707,1161 688,1160 671,1158 653,1154 637,1148 621,1142 605,1134 591,1125 578,1115 570,1123 563,1132 555,1141 548,1151 541,1161 534,1172 527,1183 521,1195 888,1195 888,1195"/>
<polygon class="pen1 brush2" points="710,1135 690,1134 670,1132 651,1128 633,1123 616,1116 600,1108 585,1098 571,1088 558,1076 547,1063 537,1049 528,1034 522,1018 517,1002 514,984 513,966 514,944 518,924 525,905 533,888 544,873 557,858 572,845 588,832 602,840 616,846 631,852 646,857 662,860 678,863 694,864 710,865 726,864 742,863 758,860 773,857 788,852 803,846 817,840 831,832 847,845 862,858 875,873 886,888 895,905 901,924 906,944 907,966 906,984 903,1002 898,1018 891,1034 883,1049 873,1063 862,1076 849,1088 835,1098 820,1108 804,1116 786,1123 768,1128 749,1132 730,1134 710,1135 710,1135"/>
<polygon class="pen1 brush2" points="710,845 734,844 757,840 779,834 800,827 821,817 840,805 858,791 875,776 890,760 903,742 915,722 925,702 932,680 938,658 942,635 943,611 941,577 933,544 922,514 906,485 887,460 865,437 839,417 811,401 809,425 803,445 794,463 781,477 765,488 748,496 730,500 711,502 692,500 673,495 656,487 641,475 628,461 619,443 613,423 612,399 583,415 557,435 534,458 514,484 498,512 487,543 479,576 477,611 478,635 482,658 487,680 495,702 505,722 517,742 530,760 545,776 562,791 580,805 599,817 619,827 641,834 663,840 686,844 710,845 710,845"/>
<polygon class="pen1 brush2" points="710,480 694,478 679,474 665,466 653,456 643,444 635,430 631,414 629,398 631,381 635,365 643,351 653,338 665,328 679,321 694,316 710,314 727,316 743,321 757,328 770,338 780,351 787,365 792,381 794,398 792,414 787,430 780,444 770,456 757,466 743,474 727,478 710,480 710,480"/>
<polygon class="pen1 brush2" points="480,1071 486,1070 492,1069 497,1066 501,1062 505,1058 508,1052 509,1047 510,1041 509,1035 508,1030 505,1026 501,1021 497,1018 492,1015 486,1014 480,1013 468,1015 459,1022 454,1031 452,1042 454,1053 459,1062 468,1069 480,1071 480,1071"/>
<polygon class="pen1 brush2" points="474,935 480,934 485,933 491,930 495,926 499,922 502,917 503,911 504,905 503,899 502,894 499,888 495,884 491,880 485,877 480,876 474,875 463,877 454,884 448,894 446,905 448,917 454,926 463,933 474,935 474,935"/>
<polygon class="pen1 brush2" points="490,862 496,861 502,860 507,857 511,854 515,849 518,845 519,840 520,834 519,828 518,822 515,817 511,813 507,809 502,806 496,805 490,804 478,806 469,813 464,822 462,833 464,844 469,853 478,860 490,862 490,862"/>
<polygon class="pen1 brush2" points="442,1041 440,1054 443,1066 451,1076 463,1081 454,1085 441,1091 425,1098 406,1106 386,1115 364,1125 342,1134 319,1144 296,1154 274,1164 254,1174 235,1183 219,1191 205,1199 195,1205 189,1210 179,1235 173,1279 170,1336 168,1399 165,1460 161,1512 154,1548 143,1561 135,1649 126,1646 136,1560 128,1543 123,1503 121,1447 122,1382 125,1315 130,1254 138,1205 148,1176 155,1167 167,1158 183,1148 202,1137 223,1127 246,1116 270,1106 295,1095 320,1086 345,1076 368,1068 389,1060 408,1053 423,1048 435,1044 442,1041 442,1041"/>
<polygon class="pen1 brush2" points="447,878 443,882 437,891 434,905 440,922 430,920 417,916 400,911 381,905 359,899 336,891 313,884 288,876 264,869 241,862 219,855 198,850 180,845 165,842 153,841 145,841 132,853 118,881 104,920 89,964 75,1008 61,1046 49,1072 38,1081 11,1159 3,1156 28,1078 22,1065 25,1033 35,990 51,941 70,891 91,845 112,811 132,793 144,790 160,790 180,792 203,797 228,803 254,810 281,818 309,827 335,836 361,845 384,854 405,861 422,868 436,873 444,877 447,878 447,878"/>
<polygon class="pen1 brush2" points="450,835 444,833 434,830 421,825 404,818 386,811 365,802 343,793 320,783 298,773 276,763 255,753 236,744 220,735 206,728 196,721 190,716 181,700 171,673 161,638 152,600 146,563 144,531 147,509 156,501 112,433 122,429 166,500 176,511 185,531 194,557 201,587 208,619 214,647 219,671 224,687 229,693 237,700 249,708 264,716 281,724 299,733 320,742 340,751 361,760 382,768 401,775 419,782 436,788 449,794 460,797 467,800 458,806 452,815 449,825 450,835 450,835"/>
<polygon class="pen1 brush2" points="937,1075 926,1073 917,1067 911,1058 909,1047 911,1035 917,1026 926,1019 937,1017 950,1019 959,1026 965,1035 967,1046 965,1057 959,1066 950,1073 937,1075 937,1075"/>
<polygon class="pen1 brush2" points="949,935 943,934 938,933 932,930 928,926 924,922 921,917 920,911 919,905 920,899 921,894 924,888 928,884 932,880 938,877 943,876 949,875 960,877 969,884 975,894 977,905 975,917 969,926 960,933 949,935 949,935"/>
<polygon class="pen1 brush2" points="934,862 947,860 956,853 961,844 963,833 961,822 956,813 947,806 934,804 923,806 914,813 908,822 906,834 908,845 914,854 923,860 934,862 934,862"/>
<polygon class="pen1 brush2" points="977,1044 984,1047 996,1051 1011,1056 1030,1063 1051,1071 1074,1080 1099,1089 1124,1099 1149,1109 1173,1120 1196,1130 1217,1141 1236,1151 1252,1161 1264,1170 1271,1179 1280,1209 1288,1258 1293,1319 1297,1386 1298,1451 1296,1507 1291,1547 1284,1564 1291,1651 1284,1651 1274,1564 1264,1551 1257,1516 1253,1464 1251,1403 1249,1340 1245,1283 1239,1239 1230,1214 1224,1209 1214,1203 1200,1196 1184,1188 1165,1179 1144,1169 1122,1160 1099,1149 1076,1139 1053,1130 1032,1120 1011,1111 993,1103 976,1096 963,1090 954,1085 961,1083 967,1080 971,1075 975,1070 978,1064 979,1057 979,1051 977,1044 977,1044"/>
<polygon class="pen1 brush2" points="977,878 981,882 988,891 991,905 983,922 993,920 1006,916 1023,911 1042,905 1064,899 1087,891 1110,884 1135,876 1159,869 1182,862 1204,855 1225,850 1243,845 1258,842 1270,841 1278,841 1291,853 1304,881 1317,920 1331,964 1344,1008 1357,1046 1370,1072 1381,1081 1406,1161 1415,1159 1389,1080 1395,1066 1392,1035 1383,991 1369,941 1352,891 1332,846 1311,811 1291,793 1279,790 1263,790 1243,792 1220,797 1196,803 1169,810 1142,818 1115,827 1088,836 1063,845 1040,854 1019,861 1002,868 988,873 980,877 977,878 977,878"/>
<polygon class="pen1 brush2" points="973,839 974,828 971,818 966,810 957,804 964,801 975,797 988,792 1004,786 1022,778 1042,770 1062,762 1083,753 1104,744 1124,735 1143,725 1160,717 1174,708 1186,700 1194,693 1199,687 1204,671 1209,647 1215,619 1222,587 1230,557 1238,531 1247,511 1257,500 1304,428 1311,432 1267,500 1276,508 1279,531 1277,562 1271,599 1262,638 1253,673 1243,700 1234,716 1228,721 1218,728 1205,736 1188,745 1170,754 1149,764 1127,775 1104,785 1082,796 1060,805 1039,814 1020,822 1003,829 989,834 979,838 973,839 973,839"/>
<polygon class="pen1 brush2" points="561,413 559,411 553,405 544,395 534,382 521,365 508,345 495,321 482,295 471,266 462,234 456,200 453,164 455,126 462,86 475,44 494,0 508,0 489,44 476,86 470,126 468,164 470,200 476,234 485,266 497,295 509,321 522,345 535,365 548,382 559,395 567,405 573,411 575,413 561,413 561,413"/>
<polygon class="pen1 brush2" points="861,416 848,416 850,414 856,408 864,398 875,385 887,368 900,348 914,324 926,298 937,269 946,237 952,203 954,167 952,129 945,89 932,47 913,3 926,3 945,47 958,89 965,129 967,167 965,203 959,237 950,269 939,298 927,324 914,348 901,368 888,385 877,398 869,408 863,414 861,416"/>
</g>
</svg>
