<?xml version="1.0" encoding="UTF-8" standalone="no"?>
<!DOCTYPE svg PUBLIC "-//W3C//DTD SVG 1.0//EN" "http://www.w3.org/TR/2001/REC-SVG-20010904/DTD/svg10.dtd">
<svg xmlns="http://www.w3.org/2000/svg" xmlns:xlink="http://www.w3.org/1999/xlink" fill-rule="evenodd" height="1.997in" preserveAspectRatio="none" stroke-linecap="round" viewBox="0 0 2065 1997" width="2.065in">
<style type="text/css">
.brush0 { fill: rgb(255,255,255); }
.pen0 { stroke: rgb(0,0,0); stroke-width: 1; stroke-linejoin: round; }
.brush1 { fill: none; }
.pen1 { stroke: none; }
.brush2 { fill: rgb(0,0,0); }
</style>
<g>
<polygon class="pen1 brush2" points="1680,1532 1679,1540 1675,1561 1669,1592 1662,1629 1653,1668 1643,1705 1633,1738 1623,1762 1623,1764 1624,1768 1625,1776 1626,1786 1626,1799 1625,1813 1623,1829 1619,1846 1613,1864 1604,1883 1593,1902 1578,1921 1560,1940 1538,1958 1512,1976 1481,1992 1349,1992 1347,1989 1344,1981 1344,1968 1349,1953 1347,1954 1342,1957 1334,1961 1326,1967 1317,1973 1309,1981 1304,1989 1302,1997 1301,1996 1299,1994 1297,1991 1295,1987 1293,1982 1292,1975 1292,1969 1294,1961 1299,1954 1307,1946 1318,1938 1333,1929 1352,1921 1377,1914 1407,1906 1443,1899 1445,1898 1450,1896 1458,1892 1467,1886 1476,1880 1486,1871 1494,1861 1500,1850 1497,1848 1488,1841 1474,1831 1456,1816 1434,1797 1409,1775 1383,1749 1355,1719 1352,1720 1344,1722 1330,1726 1311,1731 1288,1736 1260,1741 1228,1746 1193,1750 1154,1753 1113,1754 1068,1754 1021,1752 972,1747 922,1739 869,1728 816,1713 815,1715 811,1722 804,1732 796,1745 786,1761 774,1780 760,1800 746,1821 730,1843 713,1865 696,1887 678,1908 661,1928 643,1946 626,1962 609,1975 494,1975 484,1940 483,1941 480,1943 476,1947 471,1951 465,1957 460,1964 456,1971 454,1979 451,1978 445,1973 438,1966 434,1956 437,1944 449,1929 475,1911 517,1891 523,1886 531,1875 539,1859 546,1838 553,1813 557,1784 558,1751 555,1715 548,1676 535,1634 516,1591 489,1545 455,1498 412,1450 359,1401 295,1352 293,1352 288,1352 279,1351 268,1351 255,1350 241,1349 225,1347 208,1346 192,1345 175,1343 159,1341 144,1339 131,1337 120,1334 112,1332 106,1329 99,1323 93,1317 85,1310 77,1304 68,1298 58,1292 47,1288 35,1285 32,1281 28,1275 23,1266 18,1255 14,1244 13,1234 13,1224 18,1216 30,1215 45,1212 62,1208 79,1202 98,1194 117,1185 136,1174 154,1162 163,1155 174,1148 185,1140 197,1133 210,1125 224,1118 240,1112 257,1107 276,1103 297,1100 319,1099 344,1099 371,1101 400,1106 432,1113 467,1122 491,1130 514,1137 536,1144 557,1151 578,1158 599,1163 620,1167 642,1170 665,1172 690,1172 716,1170 744,1166 774,1160 807,1152 844,1140 883,1126 887,1124 892,1122 899,1120 906,1117 915,1114 925,1111 936,1107 948,1104 961,1100 975,1096 989,1092 1004,1088 1020,1085 1036,1081 1052,1077 1069,1074 1069,1074 1082,1072 1096,1070 1109,1068 1123,1066 1136,1065 1150,1064 1164,1063 1178,1063 1192,1063 1205,1063 1219,1064 1232,1065 1246,1067 1259,1069 1272,1071 1285,1074 1286,1074 1295,1076 1304,1078 1313,1081 1321,1084 1330,1088 1338,1092 1346,1096 1355,1101 1356,1099 1356,1094 1356,1086 1353,1074 1353,1074 1351,1068 1349,1062 1346,1056 1341,1048 1336,1041 1330,1033 1322,1024 1313,1015 1303,1006 1291,996 1277,985 1262,974 1245,963 1225,951 1204,938 1181,925 1169,917 1152,903 1132,882 1109,856 1086,825 1063,790 1042,749 1024,705 1011,657 1004,606 1004,551 1013,494 1031,435 1061,373 1104,310 1161,246 1169,239 1181,228 1199,214 1220,198 1246,181 1276,163 1310,145 1347,128 1387,113 1430,100 1476,90 1524,85 1574,84 1626,89 1680,101 1735,119 1788,143 1834,170 1875,199 1909,230 1938,263 1961,297 1978,333 1990,370 1997,408 1998,446 1993,484 1984,522 1969,560 1950,597 1925,634 1896,669 1895,666 1893,656 1890,641 1885,623 1878,601 1868,578 1857,554 1843,530 1827,509 1807,489 1785,474 1760,464 1731,459 1699,462 1663,473 1623,493 1618,496 1606,507 1592,526 1581,555 1578,595 1586,649 1612,717 1659,801 1686,845 1712,890 1736,936 1758,981 1777,1027 1792,1073 1804,1119 1812,1166 1815,1212 1814,1258 1807,1305 1795,1351 1776,1396 1751,1442 1719,1487 1680,1532"/>
<polygon class="pen1 brush0" points="211,1261 223,1259 232,1253 238,1244 240,1234 238,1222 232,1214 223,1208 211,1206 201,1208 192,1214 186,1222 184,1234 186,1244 192,1253 201,1259 211,1261"/>
<polygon class="pen1 brush0" points="313,1216 324,1211 337,1208 349,1207 361,1209 371,1213 380,1220 386,1230 389,1244 387,1258 380,1269 370,1279 357,1285 343,1290 328,1292 314,1293 301,1292 304,1292 311,1290 321,1288 333,1284 344,1278 353,1270 359,1261 359,1248 355,1236 349,1227 342,1222 334,1218 326,1216 319,1216 315,1216 313,1216"/>
<polygon class="pen1 brush0" points="234,1157 245,1153 257,1150 270,1146 285,1144 302,1142 321,1140 342,1140 364,1141 388,1144 414,1147 442,1153 472,1160 504,1169 538,1180 574,1193 612,1209 614,1209 619,1209 627,1210 639,1210 653,1211 670,1210 688,1210 709,1209 732,1207 756,1205 782,1201 809,1197 837,1191 865,1184 894,1176 923,1166 952,1156 983,1147 1014,1138 1046,1131 1077,1126 1109,1121 1141,1118 1171,1116 1201,1116 1229,1117 1256,1120 1281,1125 1303,1131 1323,1140 1341,1150 1355,1162 1352,1161 1343,1160 1329,1158 1311,1156 1288,1155 1261,1154 1231,1155 1198,1157 1163,1162 1126,1169 1087,1180 1047,1194 1007,1212 966,1234 926,1261 887,1294 888,1295 892,1296 898,1299 907,1302 917,1306 930,1310 944,1316 960,1321 978,1327 997,1333 1018,1339 1039,1345 1062,1352 1087,1358 1111,1363 1137,1369 1163,1374 1190,1378 1218,1381 1245,1384 1273,1386 1301,1387 1328,1388 1356,1386 1383,1384 1409,1380 1436,1375 1461,1368 1485,1360 1509,1350 1532,1338 1553,1324 1575,1309 1598,1291 1618,1269 1633,1241 1637,1205 1627,1159 1601,1102 1553,1030 1523,990 1492,948 1462,906 1433,863 1407,820 1383,776 1363,732 1347,689 1335,646 1330,603 1331,562 1340,521 1356,481 1381,443 1416,407 1461,372 1471,365 1481,355 1491,345 1501,333 1509,321 1515,308 1519,295 1520,282 1517,270 1511,259 1499,249 1483,241 1461,234 1433,230 1397,229 1355,231 1356,230 1357,227 1360,223 1365,218 1372,212 1381,205 1392,198 1406,191 1422,184 1442,179 1465,174 1491,170 1521,168 1556,168 1594,170 1637,175 1657,178 1677,184 1696,191 1714,200 1730,210 1745,222 1758,234 1769,247 1777,261 1782,275 1784,289 1783,302 1777,316 1768,328 1753,340 1734,351 1713,360 1694,367 1676,373 1660,377 1644,381 1630,385 1616,389 1603,394 1590,400 1577,408 1564,418 1551,430 1538,446 1524,466 1510,489 1495,517 1482,547 1474,578 1469,608 1469,638 1472,667 1478,697 1488,727 1500,756 1514,786 1530,815 1548,845 1568,875 1588,905 1610,935 1632,965 1654,996 1692,1056 1718,1115 1732,1173 1736,1227 1732,1278 1720,1324 1703,1365 1681,1399 1675,1406 1667,1415 1656,1425 1644,1437 1630,1449 1613,1462 1595,1475 1575,1489 1553,1502 1529,1516 1504,1529 1476,1541 1447,1553 1416,1564 1383,1574 1349,1582 1313,1588 1276,1593 1236,1596 1196,1596 1154,1594 1110,1590 1065,1582 1019,1572 971,1558 922,1541 871,1520 819,1495 766,1466 712,1432 657,1395 600,1352 588,1342 575,1331 562,1318 548,1304 533,1290 518,1275 502,1260 486,1245 469,1230 452,1215 435,1201 417,1189 398,1177 380,1167 361,1159 342,1153 328,1151 311,1151 293,1151 276,1152 259,1154 246,1155 237,1157 234,1157"/>
</g>
</svg>
