<?xml version="1.0" encoding="UTF-8" standalone="no"?>
<!DOCTYPE svg PUBLIC "-//W3C//DTD SVG 1.0//EN" "http://www.w3.org/TR/2001/REC-SVG-20010904/DTD/svg10.dtd">
<svg xmlns="http://www.w3.org/2000/svg" xmlns:xlink="http://www.w3.org/1999/xlink" fill-rule="evenodd" height="0.689in" preserveAspectRatio="none" stroke-linecap="round" viewBox="0 0 1978 689" width="1.978in">
<style type="text/css">
.brush0 { fill: rgb(255,255,255); }
.pen0 { stroke: rgb(0,0,0); stroke-width: 1; stroke-linejoin: round; }
.brush1 { fill: none; }
.pen1 { stroke: none; }
.brush2 { fill: rgb(0,0,0); }
</style>
<g>
<polygon class="pen1 brush2" points="1554,277 1622,294 1625,293 1632,289 1643,284 1659,276 1678,268 1699,258 1723,247 1749,236 1776,224 1805,213 1833,202 1862,191 1890,182 1917,174 1943,167 1967,162 1927,358 1978,523 1599,403 1545,416 1596,459 1595,460 1593,462 1589,465 1583,468 1576,473 1567,478 1556,484 1544,490 1537,476 1530,461 1524,446 1518,430 1510,429 1515,446 1521,463 1528,478 1535,494 1531,496 1527,498 1522,500 1517,502 1512,504 1507,506 1501,508 1495,510 1487,493 1479,475 1472,457 1466,439 1457,439 1460,448 1463,458 1466,467 1470,476 1474,486 1478,495 1483,504 1487,513 1483,514 1478,515 1474,516 1469,517 1465,518 1460,519 1455,520 1450,521 1445,512 1441,502 1436,493 1432,483 1428,473 1424,463 1420,453 1416,443 1407,443 1411,453 1414,463 1419,473 1423,483 1427,494 1432,504 1436,514 1441,524 1436,525 1430,525 1425,526 1420,527 1414,527 1409,528 1403,529 1397,530 1393,521 1388,512 1384,502 1379,492 1375,483 1370,473 1366,462 1362,452 1355,452 1358,462 1362,472 1365,482 1370,492 1374,502 1378,511 1383,521 1387,530 1382,530 1376,531 1371,531 1365,532 1360,532 1354,533 1348,533 1342,533 1338,524 1334,516 1329,507 1325,498 1321,488 1318,479 1314,470 1311,460 1302,460 1305,470 1308,479 1312,488 1316,498 1320,507 1324,516 1328,524 1332,533 1326,533 1320,533 1314,533 1308,533 1302,533 1296,532 1290,532 1284,531 1277,516 1270,500 1264,485 1258,470 1248,469 1254,485 1260,500 1267,515 1274,530 1268,530 1262,530 1256,529 1249,528 1243,528 1237,527 1230,526 1224,526 1219,514 1214,502 1209,490 1204,479 1196,477 1200,489 1204,501 1209,513 1214,524 1205,523 1195,521 1185,520 1176,518 1166,516 1156,515 1146,512 1136,510 1137,512 1139,517 1142,526 1146,536 1152,549 1160,562 1169,577 1179,591 1177,591 1173,592 1165,593 1155,593 1143,594 1129,595 1113,595 1095,595 1076,594 1056,593 1035,591 1014,587 993,583 971,577 950,570 929,561 925,561 912,561 892,560 866,560 835,559 801,559 764,558 725,556 685,555 646,553 609,551 574,549 543,546 518,543 498,540 485,536 487,533 493,526 501,514 511,498 522,480 534,459 544,437 553,413 560,389 563,366 563,343 557,323 546,304 528,288 502,276 468,268 470,269 475,272 482,277 491,284 501,294 511,305 520,318 528,332 534,349 536,368 535,388 530,410 519,433 502,459 478,486 447,514 446,519 443,531 441,550 441,574 444,602 452,631 467,661 490,689 485,686 473,678 456,665 436,647 415,624 396,597 382,566 375,531 369,530 357,528 341,524 321,520 297,515 271,509 243,503 213,495 183,487 153,478 123,468 95,457 70,446 47,434 27,421 12,408 64,416 0,358 11,352 25,344 43,334 63,323 87,310 114,296 145,282 179,267 217,252 259,237 305,223 354,209 407,196 465,184 526,174 592,166 596,161 607,151 622,139 641,123 663,106 688,88 714,69 741,51 733,65 724,80 717,96 710,112 703,129 698,146 693,164 689,182 697,182 702,162 708,143 715,124 722,106 730,89 738,73 746,58 755,43 766,36 776,30 787,23 797,18 806,13 815,8 824,4 832,0 816,19 801,39 787,61 773,84 761,108 750,134 741,161 734,189 741,189 749,160 759,132 770,106 782,82 795,59 809,38 824,18 839,0 834,32 828,80 820,130 814,166 817,166 824,167 835,168 850,170 868,172 889,174 911,177 935,180 960,183 985,186 1009,190 1033,193 1056,197 1077,201 1095,205 1110,209 1111,208 1114,206 1120,203 1127,199 1137,195 1149,190 1163,184 1180,179 1175,192 1172,204 1169,217 1166,230 1174,230 1178,216 1182,203 1186,189 1190,176 1196,175 1202,174 1208,172 1215,171 1221,170 1228,169 1234,169 1241,168 1235,185 1229,202 1224,220 1220,239 1228,239 1233,220 1239,201 1245,183 1251,166 1257,166 1263,165 1269,165 1275,164 1281,164 1287,163 1294,163 1301,163 1293,183 1286,203 1280,225 1275,247 1282,247 1289,225 1295,203 1303,183 1311,163 1316,163 1322,163 1328,164 1333,164 1339,165 1345,165 1352,166 1358,166 1349,188 1341,210 1334,233 1329,257 1338,256 1344,232 1351,209 1358,188 1366,166 1372,167 1378,168 1383,169 1389,169 1395,170 1401,171 1407,171 1413,172 1408,183 1404,195 1399,206 1395,218 1392,229 1388,241 1385,252 1383,264 1392,264 1398,241 1405,218 1413,196 1421,175 1426,175 1430,176 1435,177 1440,178 1445,179 1450,180 1455,181 1460,182 1451,202 1444,223 1438,245 1433,268 1441,267 1447,245 1453,224 1460,204 1468,185 1474,186 1479,187 1485,189 1490,190 1495,192 1500,193 1506,195 1511,196 1504,216 1498,236 1492,256 1487,277 1495,277 1501,256 1507,236 1514,217 1521,199 1525,200 1529,201 1533,203 1537,204 1541,205 1545,207 1550,208 1554,209 1576,217 1591,225 1600,232 1602,239 1598,247 1588,255 1573,265 1554,277"/>
<polygon class="pen1 brush0" points="190,361 200,359 209,353 215,345 217,334 215,323 209,314 200,309 190,307 179,309 171,314 165,323 163,334 165,345 171,353 179,359 190,361"/>
<polygon class="pen1 brush0" points="724,391 630,345 631,344 636,341 642,337 651,332 661,325 674,319 688,312 703,305 719,299 736,294 754,290 772,288 790,288 808,289 825,294 842,301 724,391"/>
</g>
</svg>
