<?xml version="1.0" encoding="UTF-8" standalone="no"?>
<!DOCTYPE svg PUBLIC "-//W3C//DTD SVG 1.0//EN" "http://www.w3.org/TR/2001/REC-SVG-20010904/DTD/svg10.dtd">
<svg xmlns="http://www.w3.org/2000/svg" xmlns:xlink="http://www.w3.org/1999/xlink" fill-rule="evenodd" height="1.354in" preserveAspectRatio="none" stroke-linecap="round" viewBox="0 0 1970 1354" width="1.97in">
<style type="text/css">
.brush0 { fill: rgb(255,255,255); }
.pen0 { stroke: rgb(0,0,0); stroke-width: 1; stroke-linejoin: round; }
.brush1 { fill: none; }
.pen1 { stroke: none; }
.brush2 { fill: rgb(0,0,0); }
</style>
<g>
<polygon class="pen1 brush2" points="818,1354 815,1310 811,1267 807,1223 804,1179 797,1184 791,1192 786,1200 778,1205 783,1193 789,1180 794,1165 798,1150 801,1135 802,1121 800,1108 794,1096 790,1120 786,1145 782,1170 778,1195 774,1185 773,1162 773,1137 773,1121 763,1128 754,1140 746,1155 738,1173 732,1191 726,1209 721,1224 717,1236 716,1236 715,1236 714,1236 713,1236 715,1220 716,1211 716,1205 716,1201 711,1208 705,1219 699,1232 693,1246 687,1259 682,1270 678,1277 676,1280 677,1270 678,1264 677,1260 676,1256 673,1261 669,1266 665,1271 662,1276 659,1276 668,1249 675,1223 680,1198 685,1173 688,1148 690,1123 693,1097 695,1070 684,1077 672,1093 658,1115 644,1141 629,1168 614,1192 600,1211 588,1222 588,1219 589,1215 589,1212 588,1209 585,1215 580,1223 575,1232 570,1241 564,1250 558,1258 553,1264 548,1267 553,1253 558,1241 564,1227 571,1209 581,1185 595,1152 614,1108 638,1050 623,1045 609,1043 596,1043 584,1045 572,1049 560,1054 549,1060 538,1067 527,1074 516,1082 504,1090 493,1098 481,1106 469,1113 456,1119 442,1124 444,1120 451,1114 460,1106 471,1097 482,1088 493,1080 501,1074 507,1070 500,1071 493,1074 487,1077 480,1080 483,1076 491,1068 502,1059 515,1048 528,1037 541,1028 551,1020 557,1016 555,1014 551,1011 545,1007 538,1003 530,999 523,996 517,992 513,990 513,988 513,984 513,975 513,958 497,948 481,938 465,928 449,917 434,907 418,897 402,887 386,877 370,867 355,856 339,846 323,836 307,825 292,815 276,804 260,794 335,813 342,817 352,822 363,828 375,835 389,843 404,851 418,859 433,867 448,875 462,883 476,890 488,896 499,902 508,906 515,908 519,909 520,898 522,886 525,874 527,863 521,856 514,848 508,841 501,834 0,732 0,732 0,731 0,730 0,729 15,731 30,733 45,735 61,736 76,738 91,740 106,742 121,744 136,746 151,748 166,750 181,751 195,753 210,755 225,757 240,759 240,759 275,763 306,767 332,770 355,773 375,775 391,777 405,779 416,780 425,781 432,782 438,782 443,783 446,783 449,783 452,783 455,783 452,777 445,767 435,755 424,741 411,727 400,715 390,704 384,698 459,739 468,749 478,759 489,769 499,778 511,785 523,791 537,795 551,796 553,792 556,787 558,783 561,779 530,763 500,746 469,730 438,714 408,697 377,681 346,665 316,649 285,632 254,616 223,600 193,584 162,567 131,551 101,535 70,519 69,518 68,517 68,516 68,516 100,529 132,542 165,555 197,568 229,582 261,595 293,609 326,623 358,637 390,651 422,665 454,679 486,693 517,707 549,721 581,735 579,729 572,720 558,707 541,691 520,672 496,652 470,630 443,608 416,585 389,562 364,540 341,520 322,501 306,484 295,470 290,459 299,463 311,470 327,481 346,495 367,511 389,529 413,548 438,568 462,588 486,608 509,627 531,645 550,662 567,676 581,687 591,695 589,689 584,678 576,665 567,651 558,637 549,624 542,613 538,607 528,600 511,590 489,575 462,558 432,539 399,517 365,495 330,472 296,450 263,428 232,408 204,390 181,374 164,362 152,354 148,350 492,536 491,532 490,527 487,523 484,518 479,514 474,509 468,504 462,499 451,491 438,483 425,474 412,466 398,457 383,448 369,440 356,432 343,423 330,415 319,408 309,400 301,393 294,386 289,380 287,374 297,378 307,383 317,389 328,396 339,404 350,412 361,420 372,429 383,437 394,445 405,453 416,460 427,466 437,471 447,475 457,478 448,451 431,421 410,390 387,358 363,327 342,296 324,266 314,239 318,242 325,251 335,264 348,280 362,299 378,321 395,344 413,369 430,393 448,417 464,440 480,462 493,481 505,497 514,509 520,517 537,528 550,536 559,542 566,546 571,549 574,551 578,553 581,554 581,548 579,534 576,520 575,512 563,497 547,478 528,455 507,431 485,404 461,376 436,348 412,319 388,292 366,266 345,242 327,220 312,202 301,188 293,179 291,175 304,188 316,200 329,213 342,225 355,238 367,251 380,263 393,276 405,289 418,301 430,314 443,327 456,339 469,352 481,364 494,377 493,369 490,361 486,352 480,344 475,335 469,327 464,318 460,311 471,319 483,333 494,352 507,374 519,396 533,416 547,432 563,442 560,426 557,411 554,396 551,381 564,398 567,408 570,421 575,439 581,463 598,480 614,496 631,513 648,529 664,546 681,562 698,579 715,596 716,596 718,595 720,594 723,591 716,568 705,546 691,522 674,499 655,475 635,451 613,427 590,403 567,379 544,354 522,330 501,306 482,281 465,257 450,233 439,209 443,209 450,214 461,225 476,240 492,259 511,280 531,304 553,329 575,355 597,382 619,408 640,432 659,455 677,475 693,492 706,505 706,501 703,482 695,434 679,341 663,312 652,290 643,274 638,263 634,257 633,253 632,250 632,249 637,252 641,258 646,265 651,274 656,284 662,293 667,302 672,309 669,289 662,251 653,203 644,150 635,98 628,53 624,22 624,10 642,79 660,149 678,218 696,287 714,356 732,425 749,494 767,563 769,563 772,562 778,559 788,554 782,543 776,531 770,520 764,509 740,418 742,423 747,431 753,441 760,452 767,463 773,471 778,477 780,478 772,449 757,395 737,323 716,244 695,166 678,99 668,51 666,32 684,83 703,135 721,187 739,238 757,290 776,342 794,394 813,446 812,395 809,345 804,296 798,246 774,200 756,166 743,141 735,124 729,113 726,107 725,103 724,101 729,106 737,116 747,131 759,148 770,166 780,182 788,196 794,205 790,177 784,128 780,82 781,61 785,81 789,100 792,120 796,139 800,159 804,178 809,197 813,216 813,211 813,208 814,206 817,205 821,243 826,281 832,319 839,358 847,397 855,436 863,474 871,512 874,485 875,429 875,371 875,337 876,337 878,273 882,158 886,49 891,0 897,129 902,259 907,388 912,516 919,515 926,515 933,513 938,509 934,504 931,499 928,495 926,490 922,409 926,416 931,425 938,437 946,450 953,462 960,473 966,480 970,483 972,419 977,306 984,199 990,151 992,233 995,316 998,399 1000,482 1001,480 1003,477 1005,474 1009,468 1014,460 1022,447 1033,430 1047,408 1043,489 1039,495 1036,500 1034,506 1033,512 1038,512 1044,512 1049,513 1055,513 1059,416 1067,242 1076,77 1082,3 1087,127 1091,250 1096,373 1099,496 1100,494 1102,490 1105,482 1111,468 1121,415 1129,374 1134,345 1138,326 1140,314 1142,307 1142,304 1142,303 1138,309 1135,315 1132,320 1129,326 1125,333 1120,341 1114,353 1107,367 1104,319 1109,310 1116,295 1125,277 1133,258 1142,240 1148,224 1153,213 1155,209 1155,211 1156,214 1156,216 1156,219 1189,64 1192,69 1190,87 1185,128 1176,201 1183,191 1191,177 1202,160 1212,143 1223,127 1232,113 1239,102 1244,98 1232,124 1219,148 1205,173 1192,197 1181,222 1172,248 1166,276 1165,306 1168,297 1174,282 1181,262 1189,240 1196,219 1203,201 1208,189 1210,185 1202,218 1194,250 1185,282 1176,315 1168,347 1161,380 1157,414 1156,449 1171,423 1191,372 1212,304 1235,229 1257,156 1277,93 1294,50 1305,36 1294,77 1276,139 1253,216 1229,299 1206,382 1187,456 1175,513 1172,547 1178,550 1182,552 1186,554 1189,555 1192,557 1195,558 1198,559 1203,560 1212,525 1229,458 1252,369 1278,271 1303,176 1325,93 1341,35 1348,13 1340,55 1327,116 1312,190 1295,269 1280,347 1269,418 1262,474 1263,509 1269,502 1280,490 1295,473 1313,453 1333,430 1356,405 1379,379 1403,352 1427,326 1449,300 1471,277 1490,256 1506,238 1518,224 1527,216 1530,213 1512,236 1495,259 1477,283 1460,306 1442,329 1425,352 1407,376 1390,399 1373,422 1355,445 1338,468 1320,492 1303,515 1285,538 1268,561 1250,584 1251,586 1253,588 1256,590 1260,593 1267,588 1281,575 1300,556 1322,534 1344,512 1364,491 1380,475 1389,466 1394,448 1399,430 1403,413 1408,395 1416,382 1413,398 1411,414 1409,430 1408,446 1419,433 1433,415 1448,394 1463,372 1478,350 1492,332 1502,320 1509,314 1506,322 1501,330 1496,338 1490,346 1485,354 1479,362 1475,371 1473,380 1478,375 1487,367 1498,355 1512,341 1528,326 1545,309 1563,291 1581,272 1599,254 1617,237 1633,221 1648,207 1660,195 1669,186 1676,181 1678,179 1663,206 1647,231 1630,254 1612,276 1593,297 1574,317 1554,336 1534,354 1514,373 1495,391 1476,410 1457,429 1439,449 1423,470 1408,492 1394,515 1392,526 1390,537 1388,547 1386,559 1396,556 1407,550 1418,544 1429,536 1439,527 1449,518 1458,509 1466,500 1471,493 1479,482 1489,468 1501,450 1515,430 1531,409 1547,386 1563,363 1579,341 1595,319 1610,299 1624,281 1635,265 1645,253 1651,245 1655,242 1637,271 1620,301 1602,330 1584,360 1566,390 1548,419 1529,449 1511,478 1511,479 1511,479 1511,479 1511,480 1521,478 1531,474 1541,468 1552,462 1563,455 1574,447 1585,439 1596,430 1607,422 1619,414 1630,406 1641,398 1652,391 1662,386 1672,381 1682,378 1678,386 1669,394 1658,404 1644,414 1628,425 1610,436 1591,448 1572,460 1553,472 1535,483 1519,494 1504,505 1492,515 1483,524 1477,532 1476,539 1485,534 1499,526 1518,516 1542,503 1568,488 1596,473 1627,456 1657,439 1687,423 1717,407 1744,392 1768,379 1789,369 1805,360 1816,355 1821,354 1784,378 1748,401 1713,424 1680,446 1647,467 1616,488 1586,507 1559,525 1534,541 1511,557 1490,570 1472,582 1457,591 1446,599 1437,605 1432,608 1378,698 1388,690 1402,679 1418,665 1438,648 1460,630 1483,611 1507,591 1532,571 1556,551 1580,532 1603,514 1624,498 1642,484 1658,473 1670,466 1679,462 1676,467 1667,477 1654,491 1637,507 1617,526 1594,547 1570,570 1545,593 1519,616 1494,639 1470,661 1448,681 1429,698 1412,713 1400,725 1392,732 1392,734 1392,736 1393,737 1394,738 1407,732 1421,726 1434,720 1447,714 1461,708 1474,702 1487,696 1501,691 1514,685 1527,679 1540,673 1554,667 1567,661 1580,656 1594,650 1607,644 1617,634 1635,616 1659,592 1685,567 1710,542 1732,521 1748,506 1754,502 1745,512 1732,526 1716,544 1699,563 1682,583 1667,601 1657,615 1652,625 1666,619 1681,612 1696,605 1711,598 1727,591 1743,583 1759,576 1775,569 1791,561 1807,554 1823,547 1839,541 1855,535 1870,529 1886,524 1901,519 1615,674 1603,680 1591,687 1578,693 1566,699 1554,706 1542,712 1529,719 1517,725 1505,731 1492,738 1480,744 1468,750 1456,757 1443,763 1431,770 1419,776 1420,780 1421,784 1423,788 1426,796 1440,796 1453,793 1465,788 1476,780 1487,771 1497,761 1507,750 1517,739 1584,702 1573,714 1562,727 1550,740 1539,753 1529,765 1521,775 1516,782 1514,786 1528,784 1542,783 1555,781 1569,779 1583,778 1596,776 1610,775 1624,773 1637,772 1651,770 1664,769 1678,767 1692,766 1705,765 1719,763 1733,762 1759,748 1782,735 1802,724 1819,715 1834,707 1847,700 1857,695 1866,690 1873,686 1878,683 1883,681 1887,678 1890,677 1893,675 1896,674 1899,672 1890,681 1878,691 1862,702 1845,713 1826,725 1808,736 1792,746 1778,755 1779,755 1779,755 1781,755 1783,755 1786,755 1790,754 1796,754 1804,753 1814,752 1827,750 1842,748 1861,746 1882,743 1908,740 1937,736 1970,732 1970,733 1970,734 1970,735 1970,736 1955,739 1941,742 1926,745 1912,748 1897,751 1882,754 1868,757 1853,759 1839,762 1824,765 1809,768 1795,771 1780,774 1766,777 1751,780 1737,783 1737,783 1720,786 1704,790 1687,793 1670,796 1653,800 1637,803 1620,807 1603,810 1586,813 1570,817 1553,820 1536,824 1520,827 1503,830 1487,834 1470,837 1461,848 1455,856 1451,862 1451,868 1451,874 1454,882 1456,893 1459,908 1470,902 1481,897 1493,891 1504,885 1515,880 1526,874 1537,868 1548,862 1559,856 1570,850 1581,844 1592,838 1603,832 1614,826 1625,820 1636,814 1709,799 1694,809 1679,819 1663,828 1648,838 1633,848 1617,858 1602,868 1586,878 1571,888 1556,898 1540,908 1525,918 1509,928 1494,938 1478,948 1463,958 1463,966 1463,974 1463,982 1463,990 1457,993 1450,996 1441,999 1433,1003 1425,1006 1418,1009 1414,1013 1412,1016 1421,1023 1436,1034 1454,1048 1475,1064 1495,1080 1512,1094 1525,1105 1530,1111 1508,1101 1490,1092 1475,1085 1460,1078 1444,1070 1426,1061 1402,1049 1372,1033 1367,1034 1363,1035 1358,1036 1354,1037 1350,1039 1346,1040 1342,1042 1338,1043 1341,1065 1348,1090 1359,1117 1372,1145 1386,1173 1400,1202 1412,1230 1422,1256 1422,1255 1421,1254 1419,1253 1419,1253 1403,1229 1387,1204 1371,1180 1355,1156 1340,1132 1324,1108 1309,1084 1294,1060 1291,1060 1289,1061 1286,1062 1284,1063 1284,1066 1285,1069 1288,1074 1293,1084 1289,1083 1286,1080 1282,1076 1278,1074 1280,1088 1284,1103 1289,1119 1296,1135 1303,1151 1310,1167 1318,1183 1324,1198 1319,1195 1314,1189 1309,1181 1304,1172 1299,1164 1295,1157 1291,1152 1287,1150 1289,1179 1291,1208 1293,1238 1295,1267 1290,1259 1283,1239 1274,1210 1264,1177 1254,1143 1246,1112 1239,1089 1236,1077 1230,1078 1223,1079 1217,1081 1211,1082 1205,1083 1199,1085 1192,1086 1186,1087 1190,1109 1197,1130 1207,1151 1218,1171 1229,1191 1239,1211 1248,1231 1253,1252 1245,1247 1238,1238 1230,1226 1222,1212 1214,1199 1207,1188 1200,1179 1193,1175 1195,1184 1196,1196 1195,1206 1192,1211 1190,1202 1185,1187 1179,1168 1172,1148 1164,1129 1155,1113 1146,1101 1138,1097 1137,1129 1136,1147 1136,1159 1135,1171 1130,1161 1126,1139 1123,1115 1122,1100 1119,1100 1117,1100 1114,1100 1111,1101 1100,1226 1095,1294 1092,1323 1088,1330 1083,1274 1078,1218 1072,1163 1067,1107 1059,1107 1054,1107 1050,1107 1045,1108 1057,1249 1054,1247 1049,1238 1044,1225 1038,1210 1033,1194 1028,1180 1025,1170 1024,1165 1018,1173 1012,1185 1004,1201 997,1218 990,1236 983,1254 977,1269 973,1280 971,1280 970,1280 970,1280 970,1279 974,1258 978,1237 981,1216 985,1195 989,1174 993,1153 997,1132 1001,1111 996,1111 992,1111 987,1111 983,1111 978,1111 974,1111 969,1111 965,1111 959,1142 953,1174 946,1207 942,1240 932,1185 932,1166 932,1147 931,1128 930,1108 924,1107 918,1107 912,1107 906,1107 910,1131 914,1156 919,1180 924,1205 929,1230 934,1255 938,1279 942,1304 941,1304 940,1304 939,1304 939,1304 912,1242 892,1195 878,1161 868,1138 862,1124 858,1117 856,1114 855,1113 854,1120 852,1128 850,1136 848,1141 848,1138 848,1134 848,1129 848,1124 846,1124 845,1124 845,1124 845,1124 839,1181 834,1238 828,1296 822,1353 821,1353 820,1353 819,1354 818,1354 818,1354"/>
<polygon class="pen1 brush2" points="848,337 864,368 865,321 860,314 854,304 846,292 837,276 848,337 848,337"/>
<polygon class="pen1 brush2" points="307,607 340,621 324,605 309,589 293,573 278,558 262,542 246,527 231,511 215,496 218,502 225,512 236,526 250,542 265,560 280,578 295,594 307,607 307,607"/>
<polygon class="pen1 brush2" points="182,742 209,743 201,739 190,733 178,727 163,719 145,709 124,698 99,684 71,669 76,676 86,684 100,694 118,703 136,713 154,723 170,733 182,742"/>
<polygon class="pen1 brush0" points="1074,1027 1419,986 1081,1054 1078,1052 1071,1048 1068,1039 1074,1027 1074,1027"/>
<polygon class="pen1 brush0" points="1151,969 1148,981 1152,987 1159,990 1162,990 1436,844 1151,969 1151,969"/>
<polygon class="pen1 brush0" points="1159,942 1148,939 1144,932 1144,925 1145,922 1385,749 1159,942 1159,942"/>
<polygon class="pen1 brush0" points="1045,945 1322,712 1067,965 1063,966 1054,965 1046,960 1045,945 1045,945"/>
<polygon class="pen1 brush0" points="1125,830 1232,553 1105,820 1106,823 1108,829 1114,833 1125,830 1125,830"/>
<polygon class="pen1 brush0" points="1063,887 1095,530 1034,881 1036,884 1041,891 1050,894 1063,887 1063,887"/>
<polygon class="pen1 brush0" points="1033,926 956,533 1000,931 1001,932 1003,934 1007,937 1011,939 1016,939 1022,938 1028,934 1033,926 1033,926"/>
<polygon class="pen1 brush0" points="973,844 970,858 963,862 955,862 952,861 736,577 973,844 973,844"/>
<polygon class="pen1 brush0" points="903,819 662,644 888,837 891,837 898,836 903,831 903,819 903,819"/>
<polygon class="pen1 brush0" points="969,907 970,919 965,925 959,928 956,928 699,759 969,907 969,907"/>
<polygon class="pen1 brush0" points="864,897 584,796 854,918 857,917 863,914 867,908 864,897 864,897"/>
<polygon class="pen1 brush0" points="895,944 595,877 888,966 891,965 897,962 900,955 895,944 895,944"/>
<polygon class="pen1 brush0" points="999,979 661,1050 1001,1006 1004,1004 1008,997 1009,989 999,979"/>
</g>
</svg>
