<?xml version="1.0" encoding="UTF-8" standalone="no"?>
<!DOCTYPE svg PUBLIC "-//W3C//DTD SVG 1.0//EN" "http://www.w3.org/TR/2001/REC-SVG-20010904/DTD/svg10.dtd">
<svg xmlns="http://www.w3.org/2000/svg" xmlns:xlink="http://www.w3.org/1999/xlink" fill-rule="evenodd" height="2.001in" preserveAspectRatio="none" stroke-linecap="round" viewBox="0 0 1375 2001" width="1.375in">
<style type="text/css">
.brush0 { fill: rgb(255,255,255); }
.pen0 { stroke: rgb(0,0,0); stroke-width: 1; stroke-linejoin: round; }
.brush1 { fill: none; }
.pen1 { stroke: none; }
.brush2 { fill: rgb(0,0,0); }
</style>
<g>
<polygon class="pen1 brush2" points="1083,866 1080,944 1075,1042 1066,1154 1053,1275 1034,1401 1009,1527 976,1646 935,1754 920,1744 905,1733 891,1721 876,1708 863,1694 849,1679 837,1665 825,1650 814,1634 804,1619 796,1604 788,1590 782,1575 778,1562 774,1549 773,1537 778,1496 791,1427 809,1340 830,1243 851,1148 871,1063 886,997 894,961 911,957 927,953 943,948 958,944 972,939 986,933 998,928 1011,922 1022,916 1033,909 1043,903 1052,896 1061,889 1069,881 1076,874 1083,866 1083,866"/>
<polygon class="pen1 brush2" points="928,1767 913,1758 898,1747 883,1735 868,1722 854,1709 840,1695 827,1680 815,1665 804,1650 793,1635 784,1620 776,1605 770,1591 765,1577 762,1564 760,1552 755,1564 749,1577 742,1590 733,1603 723,1613 712,1622 701,1628 688,1630 676,1628 665,1622 655,1612 646,1601 638,1588 631,1575 626,1562 622,1550 621,1565 617,1580 612,1596 605,1612 596,1628 586,1644 574,1660 562,1676 548,1692 534,1706 520,1720 505,1733 490,1745 475,1756 460,1766 446,1774 458,1798 471,1821 485,1842 498,1861 513,1879 527,1896 543,1910 558,1923 574,1935 590,1945 606,1953 622,1960 638,1965 655,1969 671,1971 688,1972 705,1971 721,1968 738,1964 754,1958 770,1951 786,1942 802,1931 818,1919 833,1905 848,1890 862,1874 876,1855 890,1836 903,1814 916,1791 928,1767 928,1767"/>
<polygon class="pen1 brush2" points="442,1759 399,1651 365,1532 339,1406 319,1279 306,1157 297,1044 291,945 288,867 295,875 303,883 311,890 321,898 331,905 341,912 353,918 365,924 378,931 392,936 407,942 422,947 438,952 455,956 472,960 490,964 499,1003 515,1069 536,1154 557,1248 578,1342 596,1428 608,1495 612,1536 611,1548 608,1561 603,1576 596,1590 588,1606 579,1621 569,1637 557,1653 544,1669 531,1684 517,1699 503,1713 488,1726 473,1738 457,1749 442,1759 442,1759"/>
<polygon class="pen1 brush2" points="510,965 526,1034 545,1118 564,1209 583,1299 599,1383 613,1451 622,1497 625,1513 626,1518 629,1529 633,1546 640,1565 649,1585 660,1602 673,1613 689,1618 706,1613 720,1601 732,1584 742,1563 750,1543 756,1526 759,1514 760,1509 764,1489 776,1435 793,1356 812,1264 833,1169 852,1081 868,1009 878,965 856,969 834,972 811,975 788,978 765,979 741,981 718,981 694,981 670,981 647,980 623,979 600,977 577,975 554,972 532,969 510,965 510,965"/>
<polygon class="pen1 brush2" points="847,580 834,587 819,594 802,600 782,606 762,611 739,614 716,616 693,617 681,617 669,616 657,615 645,613 633,612 621,609 610,607 598,604 587,601 577,598 567,595 558,591 549,588 542,584 535,581 529,577 506,581 482,586 458,592 435,599 412,607 390,616 369,626 349,638 331,651 314,665 300,682 288,700 278,719 271,741 267,764 267,790 270,808 276,826 286,843 299,860 316,875 335,889 358,903 384,915 413,926 444,935 479,944 516,950 556,956 598,959 643,961 690,961 686,961 733,961 777,959 819,956 859,950 896,944 930,935 962,926 991,915 1017,903 1039,889 1059,875 1076,860 1089,843 1099,826 1105,808 1108,790 1108,765 1104,742 1097,721 1087,702 1075,684 1061,669 1044,654 1026,641 1006,630 985,620 963,611 940,603 917,596 894,590 870,585 847,580 847,580"/>
<polygon class="pen1 brush2" points="689,506 699,505 709,502 717,497 725,491 731,483 736,474 739,465 740,455 739,444 736,434 731,425 725,417 717,411 709,406 699,403 689,402 679,403 670,406 661,411 653,417 647,425 642,434 639,444 638,455 639,465 642,474 647,483 653,491 661,497 670,502 679,505 689,506 689,506"/>
<polygon class="pen1 brush2" points="858,535 854,550 844,563 827,574 806,583 780,590 752,595 722,598 691,599 659,598 629,595 601,590 575,583 554,574 537,563 527,550 523,535 524,527 527,519 533,512 541,505 551,500 564,494 579,489 597,485 592,468 586,445 576,416 565,382 550,345 533,306 512,266 488,225 461,186 430,149 395,115 356,86 313,63 266,46 214,36 158,36 158,18 217,19 271,30 320,48 365,73 405,103 441,138 474,176 502,216 527,257 548,298 566,338 581,375 594,409 603,439 610,462 615,479 619,479 622,478 625,477 631,476 640,494 654,508 671,516 690,518 709,516 726,508 740,495 750,476 753,477 756,478 759,479 763,479 768,461 775,436 785,406 797,372 812,335 831,295 852,255 877,215 905,176 938,139 974,105 1014,76 1058,51 1107,34 1161,24 1219,22 1222,39 1167,39 1116,48 1069,64 1026,87 987,115 952,148 920,184 892,222 868,262 846,301 828,340 812,376 800,410 790,440 782,464 777,482 796,486 812,492 826,498 838,504 847,511 853,519 857,527 858,535 858,535"/>
<polygon class="pen1 brush2" points="357,616 355,617 351,619 344,623 335,627 326,632 317,638 308,645 301,651 299,649 295,644 289,635 283,624 278,610 275,594 275,576 280,557 289,532 298,505 307,477 317,447 327,419 338,391 349,366 362,344 236,225 240,219 368,337 376,327 384,319 393,313 401,312 407,315 410,324 410,341 405,366 396,398 385,430 374,459 363,485 353,509 345,529 341,546 341,557 345,577 351,596 355,610 357,616 357,616"/>
<polygon class="pen1 brush2" points="277,975 274,1053 261,1062 250,1081 241,1105 234,1134 228,1166 224,1197 221,1225 219,1249 217,1270 214,1291 210,1312 204,1333 196,1353 186,1372 173,1391 158,1408 149,1417 141,1422 134,1423 128,1422 124,1418 121,1413 119,1406 118,1398 4,1505 0,1498 118,1390 119,1382 120,1377 122,1372 125,1367 131,1358 138,1346 146,1332 154,1316 161,1299 167,1281 171,1262 172,1243 177,1150 188,1081 205,1033 225,1002 244,985 261,977 272,975 277,975 277,975"/>
<polygon class="pen1 brush2" points="304,1333 301,1334 293,1339 281,1348 268,1365 255,1391 243,1427 234,1476 230,1539 228,1604 226,1659 222,1703 216,1740 210,1770 202,1795 192,1817 181,1837 171,1853 164,1870 159,1886 158,1901 50,1992 57,2001 158,1911 159,1920 162,1926 166,1931 171,1933 178,1932 187,1928 198,1920 210,1909 233,1876 252,1832 267,1781 279,1726 288,1672 293,1623 296,1583 297,1556 296,1536 297,1514 298,1492 301,1471 305,1451 310,1434 316,1420 324,1411 322,1404 318,1386 311,1361 304,1333 304,1333"/>
<polygon class="pen1 brush2" points="1071,1329 1064,1356 1058,1380 1054,1398 1053,1405 1060,1414 1067,1428 1072,1445 1076,1465 1078,1487 1080,1509 1081,1531 1080,1552 1080,1579 1083,1619 1088,1668 1096,1722 1108,1776 1123,1827 1142,1871 1165,1904 1178,1916 1189,1924 1197,1928 1204,1930 1210,1929 1213,1925 1215,1919 1216,1911 1321,2001 1327,1994 1217,1903 1216,1886 1211,1868 1205,1849 1196,1832 1184,1812 1174,1790 1166,1765 1159,1735 1153,1698 1149,1654 1147,1600 1145,1535 1141,1471 1132,1422 1120,1386 1107,1360 1094,1344 1082,1334 1074,1330 1071,1329 1071,1329"/>
<polygon class="pen1 brush2" points="1100,971 1104,971 1116,973 1133,981 1152,998 1170,1029 1187,1077 1199,1146 1203,1239 1204,1257 1208,1276 1214,1294 1221,1311 1229,1328 1237,1342 1244,1354 1250,1363 1253,1368 1255,1374 1256,1381 1257,1388 1375,1492 1371,1499 1256,1398 1256,1406 1254,1412 1251,1417 1247,1419 1242,1420 1235,1418 1227,1412 1217,1404 1202,1387 1189,1368 1179,1348 1171,1328 1165,1307 1161,1286 1158,1264 1156,1243 1155,1219 1152,1191 1148,1160 1143,1129 1135,1101 1126,1076 1115,1058 1101,1049 1100,971 1100,971"/>
<polygon class="pen1 brush2" points="1020,610 1022,604 1026,590 1031,572 1036,553 1036,541 1031,524 1023,504 1013,480 1002,453 990,424 979,392 969,360 964,335 964,319 968,309 974,306 983,307 992,312 1001,320 1009,330 1135,212 1142,219 1013,340 1026,362 1038,387 1049,415 1059,443 1069,473 1079,501 1088,528 1097,553 1101,572 1101,589 1098,605 1092,618 1086,629 1080,638 1076,643 1074,645 1067,639 1058,632 1049,626 1041,621 1033,617 1026,613 1022,611 1020,610"/>
</g>
</svg>
