<?xml version="1.0" encoding="UTF-8" standalone="no"?>
<!DOCTYPE svg PUBLIC "-//W3C//DTD SVG 1.0//EN" "http://www.w3.org/TR/2001/REC-SVG-20010904/DTD/svg10.dtd">
<svg xmlns="http://www.w3.org/2000/svg" xmlns:xlink="http://www.w3.org/1999/xlink" fill-rule="evenodd" height="2.003in" preserveAspectRatio="none" stroke-linecap="round" viewBox="0 0 1565 2003" width="1.565in">
<style type="text/css">
.brush0 { fill: rgb(255,255,255); }
.pen0 { stroke: rgb(0,0,0); stroke-width: 1; stroke-linejoin: round; }
.brush1 { fill: none; }
.pen1 { stroke: none; }
.brush2 { fill: rgb(0,0,0); }
</style>
<g>
<polygon class="pen1 brush2" points="1004,1003 1164,955 1177,968 1200,948 1206,951 1220,962 1239,978 1260,1001 1279,1029 1293,1063 1297,1102 1289,1145 1288,1140 1285,1126 1279,1106 1270,1082 1257,1057 1240,1035 1218,1017 1190,1006 1177,986 1164,1003 983,1044 986,1039 993,1027 1000,1013 1004,1003 1004,1003"/>
<polygon class="pen1 brush2" points="1011,935 1010,948 1007,962 1003,974 1002,979 1187,919 1208,891 1209,892 1211,894 1214,896 1219,900 1224,904 1229,907 1235,911 1241,914 1250,914 1256,908 1260,902 1261,899 1265,899 1268,900 1272,901 1278,901 1275,885 1271,868 1267,852 1264,835 1255,834 1248,833 1243,832 1238,831 1227,831 1219,833 1212,837 1208,841 1204,846 1202,851 1201,854 1201,855 1180,841 1011,935 1011,935"/>
<polygon class="pen1 brush2" points="1342,847 1356,850 1370,854 1384,859 1397,864 1411,869 1423,875 1436,882 1447,889 1458,898 1468,907 1477,917 1485,927 1492,939 1497,952 1502,965 1504,980 1501,978 1491,974 1477,967 1458,958 1436,948 1411,938 1385,928 1358,918 1354,899 1350,881 1346,864 1342,847 1342,847"/>
<polygon class="pen1 brush2" points="1305,712 1310,727 1315,743 1319,758 1323,774 1340,777 1357,781 1373,785 1389,791 1404,797 1419,803 1433,810 1446,816 1457,823 1468,829 1477,835 1485,840 1491,844 1496,847 1499,849 1500,850 1495,830 1488,811 1480,795 1471,780 1460,768 1448,757 1435,747 1422,739 1408,732 1393,726 1379,721 1364,718 1349,715 1334,714 1319,712 1305,712 1305,712"/>
<polygon class="pen1 brush2" points="1024,854 1163,739 1186,757 1189,747 1193,739 1197,732 1202,727 1207,722 1215,719 1223,717 1233,716 1237,731 1241,747 1246,763 1250,779 1244,780 1240,783 1235,786 1231,789 1227,792 1223,794 1218,795 1213,794 1202,791 1194,787 1188,784 1186,783 1177,807 1019,899 1020,894 1022,881 1023,867 1024,854 1024,854"/>
<polygon class="pen1 brush2" points="1011,752 1014,796 1153,718 1160,685 1168,688 1176,689 1184,689 1191,689 1198,688 1203,686 1206,685 1207,685 1206,673 1204,664 1201,657 1200,655 1203,654 1206,653 1209,652 1211,652 1208,643 1205,634 1202,626 1198,617 1195,618 1192,618 1190,618 1188,618 1178,622 1170,627 1164,635 1160,642 1158,650 1157,656 1156,660 1156,662 1129,658 1011,752 1011,752"/>
<polygon class="pen1 brush2" points="1268,608 1284,607 1300,606 1317,605 1334,605 1351,606 1369,607 1386,609 1403,611 1419,615 1434,620 1449,626 1462,633 1474,641 1485,651 1494,663 1501,676 1500,676 1497,674 1491,672 1484,670 1475,667 1464,664 1452,660 1438,657 1423,653 1406,650 1388,647 1369,645 1348,644 1327,643 1305,643 1282,644 1279,635 1276,626 1272,617 1268,608 1268,608"/>
<polygon class="pen1 brush2" points="1214,482 1339,405 1231,523 1226,511 1222,501 1218,491 1214,482 1214,482"/>
<polygon class="pen1 brush2" points="995,652 1012,718 1093,648 1099,611 1132,617 1177,563 1171,548 1165,535 1159,521 1153,507 1089,547 1081,588 1048,571 995,652"/>
<polygon class="pen1 brush2" points="559,1000 400,952 386,966 365,945 359,949 345,959 325,976 304,999 285,1027 271,1061 267,1100 275,1144 276,1139 279,1125 285,1105 294,1081 306,1056 324,1034 346,1016 373,1005 386,986 400,1000 581,1043 578,1038 571,1025 564,1011 559,1000 559,1000"/>
<polygon class="pen1 brush2" points="552,932 554,946 557,960 560,972 562,976 377,918 356,889 355,890 353,892 350,894 345,898 340,902 334,905 328,909 322,912 313,912 308,907 305,901 304,898 299,898 295,898 291,899 285,901 289,884 293,867 296,850 299,834 308,832 315,831 320,830 325,830 336,830 345,832 352,836 356,840 359,845 361,850 362,853 362,854 383,838 552,932 552,932"/>
<polygon class="pen1 brush2" points="221,844 207,847 194,851 180,856 167,861 153,867 140,873 128,880 116,887 105,896 95,905 86,915 78,926 71,938 66,951 62,964 59,979 62,977 72,972 86,965 105,956 127,946 152,935 179,925 206,915 210,897 213,879 217,862 221,844 221,844"/>
<polygon class="pen1 brush2" points="258,709 254,724 250,740 245,756 241,773 224,775 207,779 191,784 175,789 160,795 145,801 132,807 119,814 107,820 97,826 87,832 80,837 73,841 69,844 66,846 65,847 70,827 76,808 84,792 94,778 104,765 116,754 128,744 142,736 156,730 170,724 185,719 200,716 215,713 229,711 244,710 258,709 258,709"/>
<polygon class="pen1 brush2" points="539,851 400,737 377,756 374,746 371,737 367,730 362,724 356,720 349,717 341,714 332,713 327,729 322,745 318,761 313,776 319,778 324,781 328,784 333,787 337,790 341,793 346,794 352,793 362,790 370,786 375,783 377,782 386,807 544,898 543,892 542,879 540,864 539,851 539,851"/>
<polygon class="pen1 brush2" points="552,749 549,793 410,716 403,684 395,687 387,688 379,688 372,687 365,686 360,685 357,684 356,684 357,671 360,661 362,654 363,652 360,651 358,651 355,651 352,651 355,642 359,632 363,623 366,614 369,615 371,615 374,615 376,615 386,619 394,625 400,633 404,641 406,649 408,656 409,660 409,662 434,657 552,749 552,749"/>
<polygon class="pen1 brush2" points="295,607 279,605 263,604 246,604 229,603 212,604 195,605 178,607 161,609 145,613 129,618 115,624 101,631 89,640 78,650 69,662 62,675 63,675 66,673 71,671 79,669 88,666 98,662 111,659 125,655 140,652 157,649 175,646 194,644 214,642 236,641 258,641 281,642 284,633 288,624 292,615 295,607 295,607"/>
<polygon class="pen1 brush2" points="350,479 224,402 332,520 337,510 341,499 345,489 350,479 350,479"/>
<polygon class="pen1 brush2" points="569,651 551,716 470,647 465,608 433,615 386,560 392,546 398,532 404,519 410,506 474,546 483,587 515,570 569,651"/>
<polygon class="pen1 brush2" points="758,1701 777,1700 796,1699 814,1696 832,1692 848,1687 864,1681 878,1674 892,1666 904,1658 915,1649 924,1639 932,1629 939,1618 943,1607 946,1595 947,1583 946,1571 943,1559 939,1548 932,1537 924,1527 915,1517 904,1508 892,1500 878,1492 864,1486 848,1480 832,1475 814,1471 796,1468 777,1467 758,1466 739,1467 720,1468 702,1471 685,1475 668,1480 652,1486 638,1492 625,1500 612,1508 601,1517 592,1527 584,1537 578,1548 573,1559 570,1571 569,1583 570,1595 573,1607 578,1618 584,1629 592,1639 601,1649 612,1658 625,1666 638,1674 652,1681 668,1687 685,1692 702,1696 720,1699 739,1700 758,1701 758,1701"/>
<polygon class="pen1 brush2" points="609,1976 600,1980 592,1983 583,1985 575,1986 567,1987 559,1987 552,1986 545,1984 534,1981 525,1977 516,1973 509,1969 503,1965 499,1962 496,1960 495,1959 476,1965 457,1966 439,1963 423,1959 410,1953 399,1948 392,1944 390,1942 382,1906 379,1872 381,1840 387,1810 398,1783 411,1758 427,1735 444,1715 463,1697 482,1682 501,1670 519,1661 536,1654 550,1650 562,1650 571,1652 576,1656 582,1660 589,1664 595,1668 602,1672 610,1677 618,1681 627,1685 631,1707 637,1739 648,1776 662,1816 681,1853 704,1885 733,1907 768,1915 807,1908 839,1889 863,1860 882,1825 895,1786 904,1746 909,1708 910,1675 916,1672 921,1668 926,1665 931,1662 936,1660 940,1657 944,1654 948,1652 957,1650 969,1650 983,1654 1000,1661 1018,1670 1037,1682 1056,1697 1075,1715 1092,1735 1108,1758 1121,1783 1132,1810 1138,1840 1140,1872 1137,1906 1129,1942 1127,1944 1120,1948 1109,1953 1095,1959 1079,1963 1061,1966 1042,1965 1022,1959 1021,1960 1019,1961 1016,1964 1012,1967 1006,1971 1000,1975 992,1979 983,1982 976,1984 967,1986 959,1987 949,1986 940,1985 930,1983 919,1980 909,1976 908,1977 904,1980 898,1983 890,1987 879,1991 867,1995 852,1997 836,1998 827,1998 818,1997 809,1995 800,1993 790,1990 780,1986 770,1981 760,1976 749,1977 739,1978 729,1980 719,1983 710,1987 701,1990 693,1993 684,1996 675,1998 667,1998 658,1998 650,1997 640,1995 631,1990 620,1984 609,1976 609,1976"/>
<polygon class="pen1 brush2" points="643,1691 655,1695 667,1700 680,1704 694,1707 708,1710 723,1712 738,1714 754,1714 765,1714 785,1713 804,1711 822,1708 839,1704 855,1699 870,1694 884,1688 897,1682 894,1715 889,1752 880,1788 867,1824 850,1855 829,1880 801,1897 768,1903 740,1896 716,1879 695,1853 679,1821 666,1786 655,1751 648,1718 643,1691 643,1691"/>
<polygon class="pen1 brush2" points="569,1540 572,1529 576,1515 582,1500 588,1484 595,1467 602,1452 609,1437 615,1425 624,1421 634,1416 645,1411 658,1406 672,1401 687,1396 704,1392 721,1389 741,1387 761,1386 783,1387 806,1390 831,1394 857,1401 885,1410 914,1422 919,1432 925,1444 930,1458 936,1472 941,1487 945,1502 949,1516 951,1529 940,1521 929,1513 918,1505 907,1498 896,1491 885,1485 874,1480 863,1475 852,1470 840,1466 828,1463 816,1460 803,1458 789,1456 775,1455 760,1455 741,1455 724,1457 708,1459 693,1461 679,1465 666,1469 654,1473 643,1479 632,1485 622,1491 613,1498 604,1506 595,1514 586,1522 578,1531 569,1540 569,1540"/>
<polygon class="pen1 brush2" points="589,1431 606,1421 623,1412 642,1403 661,1396 680,1390 701,1385 722,1382 744,1380 766,1380 790,1381 814,1384 839,1389 865,1396 891,1406 919,1417 947,1431 944,1418 941,1405 938,1392 934,1380 930,1368 926,1358 921,1349 917,1343 890,1329 864,1318 839,1310 815,1304 791,1300 769,1299 748,1299 729,1301 710,1304 693,1308 677,1313 662,1319 649,1325 638,1331 627,1337 619,1343 614,1350 610,1359 606,1369 602,1380 598,1392 595,1404 592,1418 589,1431 589,1431"/>
<polygon class="pen1 brush2" points="586,1350 590,1329 595,1310 600,1292 606,1276 612,1263 617,1251 622,1242 627,1235 636,1232 647,1228 659,1224 672,1220 687,1216 703,1213 720,1210 737,1208 756,1207 776,1206 796,1207 818,1209 840,1212 863,1217 886,1223 910,1232 914,1241 919,1251 924,1264 928,1278 933,1294 937,1311 940,1329 943,1347 928,1339 912,1330 895,1322 877,1314 857,1307 837,1301 815,1296 792,1293 769,1291 744,1291 719,1294 694,1299 668,1307 641,1318 614,1332 586,1350 586,1350"/>
<polygon class="pen1 brush2" points="592,1256 603,1245 618,1234 636,1225 656,1217 678,1211 702,1206 727,1202 753,1200 780,1200 806,1201 833,1204 859,1209 883,1215 907,1223 928,1234 947,1246 945,1215 941,1189 937,1167 933,1151 904,1137 877,1127 850,1119 824,1114 799,1111 775,1110 753,1111 732,1113 713,1117 694,1122 678,1127 663,1133 650,1139 639,1146 629,1152 622,1157 617,1160 613,1168 608,1178 604,1190 600,1205 597,1221 594,1238 592,1256 592,1256"/>
<polygon class="pen1 brush2" points="593,1171 597,1141 602,1109 608,1077 616,1051 625,1043 637,1033 651,1023 667,1013 684,1002 703,992 723,983 744,976 766,971 789,968 813,968 837,972 861,979 885,991 909,1008 933,1030 940,1056 948,1089 956,1125 960,1159 952,1153 941,1147 927,1139 909,1132 889,1125 866,1118 842,1113 816,1108 789,1106 761,1106 732,1108 703,1113 674,1122 646,1134 619,1150 593,1171"/>
<polygon class="pen1 brush2" points="957,1047 961,1038 970,1011 981,969 992,914 998,848 998,772 986,689 961,601 956,585 952,568 950,550 949,531 950,513 953,496 958,479 965,464 974,450 986,439 1000,431 1016,425 1035,423 1057,425 1082,432 1110,443 1110,441 1112,436 1115,427 1120,417 1126,404 1134,391 1145,377 1159,364 1156,363 1149,359 1136,353 1121,347 1101,340 1079,333 1055,328 1030,324 1003,322 976,324 950,329 924,339 899,353 876,374 856,401 839,435 838,432 836,422 834,407 833,388 833,365 836,340 843,313 855,285 872,258 895,231 926,207 966,185 1015,167 1074,154 1145,146 1228,145 1227,144 1225,143 1221,140 1215,137 1207,134 1198,130 1186,127 1171,125 1154,123 1135,122 1113,123 1088,125 1060,129 1029,135 995,144 957,155 958,153 962,148 969,141 978,131 989,120 1002,108 1018,95 1036,81 1056,69 1077,57 1101,46 1127,38 1154,31 1183,28 1213,28 1245,32 1243,31 1238,29 1230,25 1218,22 1204,18 1186,16 1166,15 1144,16 1127,18 1108,22 1089,27 1068,34 1047,44 1025,56 1002,70 979,88 955,108 930,132 905,159 880,190 855,225 829,264 804,307 778,355 751,305 724,260 697,219 670,184 643,152 617,124 591,101 566,80 541,63 518,49 495,38 473,29 452,23 432,18 413,15 396,14 377,14 359,16 344,19 332,23 322,26 314,29 310,31 308,32 340,28 371,28 400,31 428,38 453,46 477,57 499,69 520,81 537,95 553,108 567,120 578,131 587,141 594,148 598,153 599,155 561,144 526,135 495,129 467,125 442,123 419,122 400,123 383,125 369,127 356,130 347,134 339,137 333,140 329,143 327,144 326,145 409,146 480,154 539,167 588,185 628,207 659,231 683,258 700,285 711,313 718,340 721,365 721,388 720,407 718,422 716,432 715,435 698,401 678,374 655,353 631,339 605,329 578,324 551,322 525,324 499,328 475,333 453,340 434,347 418,353 406,359 399,363 396,364 410,377 421,391 429,404 435,417 440,427 442,436 444,441 444,443 472,432 497,425 519,423 538,425 555,431 569,439 581,450 590,464 597,479 602,496 605,513 606,531 606,550 604,568 600,585 595,601 569,689 558,772 557,848 563,914 574,969 586,1011 595,1038 599,1047 601,1045 608,1038 619,1028 633,1016 651,1003 672,990 695,977 721,966 748,957 776,952 806,951 837,955 867,966 898,985 928,1011 957,1047 957,1047"/>
<polygon class="pen1 brush2" points="429,445 372,570 327,699 291,831 264,963 246,1095 234,1224 228,1349 227,1467 230,1579 236,1681 244,1771 252,1850 261,1913 268,1961 273,1991 275,2001 231,1818 202,1644 185,1481 179,1329 183,1187 195,1056 213,937 236,828 262,732 290,648 318,576 344,517 368,470 386,436 399,416 403,409 429,445 429,445"/>
<polygon class="pen1 brush2" points="1135,446 1160,412 1164,419 1177,439 1196,473 1219,519 1245,579 1274,651 1302,735 1328,831 1351,939 1369,1058 1381,1189 1385,1331 1379,1483 1362,1646 1332,1820 1288,2003 1290,1993 1295,1963 1302,1915 1311,1851 1319,1773 1327,1682 1333,1580 1336,1469 1335,1350 1329,1225 1318,1096 1299,964 1272,832 1237,700 1191,571 1135,446"/>
</g>
</svg>
