<?xml version="1.0" encoding="UTF-8" standalone="no"?>
<!DOCTYPE svg PUBLIC "-//W3C//DTD SVG 1.0//EN" "http://www.w3.org/TR/2001/REC-SVG-20010904/DTD/svg10.dtd">
<svg xmlns="http://www.w3.org/2000/svg" xmlns:xlink="http://www.w3.org/1999/xlink" fill-rule="evenodd" height="1.271in" preserveAspectRatio="none" stroke-linecap="round" viewBox="0 0 2020 1271" width="2.02in">
<style type="text/css">
.brush0 { fill: rgb(255,255,255); }
.pen0 { stroke: rgb(0,0,0); stroke-width: 1; stroke-linejoin: round; }
.brush1 { fill: none; }
.pen1 { stroke: none; }
.brush2 { fill: rgb(0,0,0); }
</style>
<g>
<polygon class="pen1 brush2" points="33,697 27,691 21,684 16,675 11,664 7,652 4,637 3,621 3,602 4,584 7,563 12,541 19,515 18,513 15,507 11,497 7,484 6,468 7,449 12,428 21,405 28,394 36,383 45,372 56,360 68,349 81,337 97,326 114,314 143,297 169,284 192,275 213,269 232,266 249,265 263,266 276,268 286,272 295,276 302,281 308,286 312,291 315,295 316,297 317,298 324,284 333,266 346,244 361,219 380,192 402,164 427,136 456,109 469,98 482,87 497,76 511,66 527,57 543,48 560,40 577,32 596,25 614,19 634,14 654,10 675,7 697,5 720,4 743,4 760,5 778,7 796,9 815,12 834,16 854,20 874,26 894,32 915,39 936,47 958,55 980,65 1003,75 1026,87 1049,99 1073,113 1090,122 1115,133 1145,146 1180,160 1219,175 1261,191 1305,207 1349,223 1394,239 1437,254 1478,268 1516,281 1549,292 1577,301 1599,307 1614,311 1636,316 1658,323 1679,331 1698,340 1716,349 1731,357 1744,365 1753,372 1756,371 1763,367 1774,363 1788,357 1805,352 1824,346 1844,342 1865,340 1885,340 1905,343 1922,350 1938,361 1951,377 1960,399 1965,426 1965,461 1975,486 1983,520 1989,558 1989,597 1983,634 1969,665 1946,686 1911,694 1913,688 1916,677 1919,662 1920,644 1920,622 1918,598 1912,570 1902,541 1897,529 1893,518 1891,506 1891,494 1894,482 1900,471 1911,462 1926,453 1926,448 1924,435 1918,419 1908,403 1891,390 1866,386 1830,393 1783,416 1804,468 1817,522 1823,577 1821,632 1812,686 1794,738 1769,787 1736,832 1739,838 1747,855 1754,881 1759,916 1757,958 1744,1005 1717,1055 1673,1109 1667,1117 1661,1129 1654,1143 1647,1158 1639,1174 1629,1188 1617,1201 1602,1210 1581,1252 1468,1252 1519,1185 1521,1183 1526,1177 1533,1169 1543,1159 1553,1149 1564,1138 1575,1128 1585,1119 1589,1105 1597,1069 1607,1022 1614,976 1584,953 1555,928 1527,900 1500,871 1475,841 1452,809 1430,776 1411,741 1393,705 1377,669 1363,632 1351,594 1342,556 1335,517 1331,479 1330,440 1319,476 1315,515 1317,558 1323,603 1334,647 1346,691 1361,732 1375,770 1372,772 1365,777 1352,784 1334,794 1313,805 1287,817 1257,829 1223,842 1186,853 1146,863 1103,872 1058,878 1010,881 960,880 908,875 854,866 852,831 847,796 838,761 827,727 812,693 795,662 776,632 754,605 766,635 777,667 787,701 796,736 803,771 807,807 809,843 809,878 806,913 799,947 789,979 775,1009 757,1036 734,1061 707,1083 675,1102 674,1106 670,1116 665,1131 657,1150 647,1170 636,1191 623,1211 608,1229 574,1271 473,1271 523,1198 525,1194 531,1184 540,1169 550,1151 560,1131 570,1110 578,1090 583,1073 582,1069 579,1056 574,1037 568,1012 561,983 554,950 547,915 540,879 536,879 526,877 510,874 490,868 468,861 446,851 424,838 405,821 404,824 401,833 396,846 390,861 383,877 376,893 368,906 360,916 352,914 347,911 342,904 334,892 334,905 333,937 327,979 314,1019 312,1016 306,1009 297,997 286,983 274,965 262,946 251,926 242,905 242,907 240,911 235,919 225,930 224,929 223,927 220,922 216,915 211,906 206,894 199,880 192,862 189,862 182,863 170,864 156,864 139,863 121,859 102,854 84,845 76,839 69,833 62,826 55,817 49,808 44,798 40,787 37,774 33,758 32,739 32,719 33,697"/>
<polygon class="pen1 brush0" points="216,480 222,474 227,469 230,465 233,462 235,459 239,455 243,450 250,443 249,439 245,427 240,410 234,389 228,366 221,343 216,322 212,305 218,310 233,325 253,347 274,375 291,407 301,440 298,474 280,505 255,527 238,535 226,532 219,522 216,509 215,495 216,484 216,480 216,480"/>
<polygon class="pen1 brush0" points="172,628 178,627 184,625 190,622 195,618 199,613 202,608 204,602 205,595 204,589 202,583 199,577 195,572 190,568 184,565 178,563 172,562 166,563 160,565 154,568 149,572 145,577 142,583 140,589 139,595 140,602 142,608 145,613 149,618 154,622 160,625 166,627 172,628"/>
</g>
</svg>
