<?xml version="1.0" encoding="UTF-8" standalone="no"?>
<!DOCTYPE svg PUBLIC "-//W3C//DTD SVG 1.0//EN" "http://www.w3.org/TR/2001/REC-SVG-20010904/DTD/svg10.dtd">
<svg xmlns="http://www.w3.org/2000/svg" xmlns:xlink="http://www.w3.org/1999/xlink" fill-rule="evenodd" height="1.771in" preserveAspectRatio="none" stroke-linecap="round" viewBox="0 0 1931 1771" width="1.931in">
<style type="text/css">
.brush0 { fill: rgb(255,255,255); }
.pen0 { stroke: rgb(0,0,0); stroke-width: 1; stroke-linejoin: round; }
.brush1 { fill: none; }
.pen1 { stroke: none; }
.brush2 { fill: rgb(0,0,0); }
</style>
<g>
<polygon class="pen1 brush2" points="147,1227 160,1223 176,1218 191,1212 203,1202 211,1187 212,1165 202,1133 181,1091 159,1052 140,1019 123,989 108,964 97,941 89,920 84,900 83,881 88,864 100,833 119,789 144,735 173,672 206,603 242,530 280,454 318,378 357,303 395,232 430,167 463,109 493,60 517,23 536,0 537,4 539,14 540,30 541,51 539,77 533,106 523,138 506,173 506,173 506,173 506,174 506,175 290,575 297,582 513,182 518,190 522,201 525,216 525,234 521,258 513,286 499,320 479,359 479,359 479,359 479,359 479,359 310,675 317,683 486,368 491,377 495,390 498,406 497,426 493,451 484,480 470,515 448,554 448,554 448,554 448,553 448,552 316,801 323,808 459,554 466,556 473,561 479,568 483,579 484,594 482,613 476,638 465,669 320,936 329,943 446,723 453,722 460,723 468,725 475,731 482,741 487,755 491,775 493,801 493,815 494,832 495,850 495,869 496,878 500,890 508,904 518,919 532,934 548,948 568,962 590,975 615,985 643,992 674,995 708,995 744,989 783,978 824,961 868,937 918,899 966,857 1011,811 1055,762 1096,710 1135,656 1173,600 1208,542 1242,484 1274,426 1304,368 1333,311 1361,255 1387,201 1412,150 1435,101 1432,110 1425,134 1414,172 1400,220 1385,277 1369,340 1354,406 1341,474 1212,717 1219,723 1337,504 1332,536 1329,568 1327,598 1326,628 1242,783 1249,790 1326,648 1328,680 1333,709 1340,734 1351,754 1354,758 1358,762 1362,766 1366,769 1370,772 1375,775 1379,778 1384,781 1296,815 1296,825 1397,785 1408,788 1419,791 1430,794 1442,795 1454,797 1466,797 1478,798 1490,798 1260,890 1262,902 1535,791 1564,787 1593,782 1622,777 1652,770 1682,763 1711,755 1740,748 1768,740 1795,732 1820,725 1844,718 1866,711 1886,706 1904,701 1919,698 1931,696 1918,707 1898,720 1873,734 1844,750 1810,766 1771,783 1730,801 1685,821 1638,841 1589,861 1538,883 1486,905 1433,927 1380,950 1328,973 1276,996 1226,1020 1177,1044 1130,1068 1086,1092 1045,1115 1008,1139 975,1162 946,1185 922,1208 904,1230 892,1251 886,1272 887,1292 896,1312 912,1330 937,1348 935,1349 945,1351 954,1353 964,1356 972,1358 980,1360 988,1362 995,1364 1002,1366 1025,1376 1042,1385 1054,1395 1062,1404 1065,1413 1066,1420 1065,1427 1063,1433 812,1490 812,1500 1088,1437 1131,1433 1164,1432 1188,1435 1206,1441 1218,1448 1224,1456 1227,1465 1228,1473 945,1537 945,1547 1225,1484 1225,1484 1224,1485 1223,1486 1223,1486 1247,1481 1269,1477 1289,1474 1308,1473 1324,1473 1339,1474 1352,1475 1364,1478 1374,1481 1383,1484 1391,1488 1398,1492 1404,1496 1408,1500 1412,1504 1415,1507 1100,1578 1100,1588 1452,1508 1488,1505 1518,1505 1542,1507 1562,1512 1576,1518 1587,1525 1595,1531 1600,1537 1235,1619 1235,1629 1624,1541 1658,1539 1688,1541 1715,1545 1737,1550 1755,1557 1768,1562 1776,1566 1779,1568 1760,1577 1739,1586 1716,1595 1691,1604 1663,1614 1635,1623 1604,1631 1573,1640 1540,1649 1506,1657 1471,1665 1435,1673 1398,1680 1361,1688 1324,1695 1286,1701 1248,1707 1210,1713 1172,1718 1135,1723 1098,1727 1061,1731 1025,1734 991,1737 957,1739 924,1740 892,1741 862,1741 834,1740 807,1738 782,1736 759,1733 750,1731 740,1729 729,1726 718,1722 707,1717 694,1711 682,1704 668,1696 654,1686 640,1674 625,1661 609,1645 592,1628 576,1608 558,1586 540,1561 522,1537 504,1516 486,1498 469,1484 452,1472 436,1463 421,1455 407,1450 394,1446 382,1444 372,1442 363,1442 356,1442 351,1442 348,1443 347,1443 345,1445 340,1451 331,1460 320,1471 306,1484 289,1498 271,1511 251,1524 230,1535 207,1544 184,1550 161,1552 137,1549 114,1541 91,1527 69,1506 54,1487 43,1469 34,1450 29,1432 26,1414 25,1396 27,1379 30,1362 40,1336 52,1313 66,1292 81,1274 98,1258 115,1245 131,1235 147,1227 147,1227"/>
<polygon class="pen1 brush2" points="36,1506 25,1532 17,1553 13,1568 11,1579 11,1586 12,1590 13,1592 13,1592 21,1583 31,1577 42,1571 55,1567 66,1564 75,1562 82,1561 84,1561 36,1506"/>
<polygon class="pen1 brush0" points="165,1466 176,1464 185,1457 190,1448 192,1437 190,1427 185,1418 176,1411 165,1409 154,1411 146,1418 140,1427 138,1437 140,1448 146,1457 154,1464 165,1466"/>
</g>
</svg>
