<?xml version="1.0" encoding="UTF-8" standalone="no"?>
<!DOCTYPE svg PUBLIC "-//W3C//DTD SVG 1.0//EN" "http://www.w3.org/TR/2001/REC-SVG-20010904/DTD/svg10.dtd">
<svg xmlns="http://www.w3.org/2000/svg" xmlns:xlink="http://www.w3.org/1999/xlink" fill-rule="evenodd" height="1.986in" preserveAspectRatio="none" stroke-linecap="round" viewBox="0 0 862 1986" width="0.862in">
<style type="text/css">
.brush0 { fill: rgb(255,255,255); }
.pen0 { stroke: rgb(0,0,0); stroke-width: 1; stroke-linejoin: round; }
.brush1 { fill: none; }
.pen1 { stroke: none; }
.brush2 { fill: rgb(0,0,0); }
</style>
<g>
<polygon class="pen1 brush2" points="572,546 578,576 579,613 576,660 566,716 549,782 523,858 489,946 444,1044 416,1118 398,1195 390,1274 390,1353 398,1433 412,1511 433,1586 458,1658 487,1726 519,1787 553,1842 588,1889 623,1927 657,1955 690,1972 720,1977 727,1976 734,1973 740,1971 747,1967 767,1950 785,1931 801,1908 814,1883 826,1855 835,1825 842,1793 848,1759 852,1712 853,1663 852,1611 848,1558 842,1502 834,1446 825,1388 814,1330 799,1258 782,1187 763,1116 744,1046 724,979 704,914 684,852 665,795 646,741 629,693 614,651 600,615 588,586 580,564 574,551 572,546 572,546"/>
<polygon class="pen1 brush2" points="301,550 295,579 292,610 291,642 294,675 299,709 306,743 314,777 325,812 336,847 348,881 361,914 375,947 388,979 401,1010 414,1039 426,1066 404,1130 390,1196 381,1263 379,1330 382,1398 391,1465 404,1531 422,1594 409,1633 395,1671 379,1707 364,1743 347,1776 330,1807 312,1837 294,1864 276,1889 257,1911 239,1931 221,1948 203,1961 186,1972 169,1979 153,1982 148,1983 143,1983 138,1982 133,1981 128,1980 124,1978 119,1975 115,1972 93,1954 73,1931 57,1906 43,1877 32,1846 23,1811 17,1775 13,1736 11,1695 10,1653 12,1609 15,1563 19,1517 26,1469 33,1420 42,1371 57,1297 74,1223 93,1149 113,1077 133,1006 155,938 176,874 197,813 217,757 235,706 253,661 268,623 281,592 291,569 298,555 301,550 301,550"/>
<polygon class="pen1 brush2" points="369,901 374,867 382,834 392,802 403,771 415,741 429,713 443,686 458,660 472,637 487,616 501,596 514,579 527,565 538,553 547,543 555,537 562,570 565,605 565,641 561,679 554,718 545,756 534,795 522,832 509,869 495,904 482,936 469,966 457,993 446,1016 437,1036 430,1050 425,1039 419,1025 412,1010 404,992 396,973 388,951 379,927 369,901 369,901"/>
<polygon class="pen1 brush2" points="317,550 336,563 355,583 373,607 389,633 402,658 412,680 419,696 420,705 410,725 401,746 393,767 385,788 378,810 372,833 366,858 361,885 345,840 331,794 319,748 309,703 304,660 303,619 307,583 317,550 317,550"/>
<polygon class="pen1 brush2" points="329,520 334,524 341,528 351,531 362,533 375,535 389,537 404,538 421,538 437,538 454,537 471,536 488,534 504,531 520,528 535,524 548,519 550,521 551,523 551,524 552,526 533,545 516,564 499,584 483,603 468,623 454,644 441,665 429,686 428,681 421,666 409,645 394,620 376,595 357,571 337,552 318,540 322,534 324,530 326,526 329,520 329,520"/>
<polygon class="pen1 brush2" points="525,340 517,346 509,351 500,355 490,359 480,362 470,363 459,365 449,365 436,364 424,362 412,359 401,355 390,350 380,343 370,336 362,327 344,363 331,394 323,421 318,445 317,466 320,484 326,499 335,513 340,517 347,521 357,524 368,526 381,528 396,530 411,531 427,531 444,531 460,530 476,528 492,526 506,524 519,521 531,517 541,513 553,501 559,483 560,461 557,436 550,410 542,384 533,360 525,340 525,340"/>
<polygon class="pen1 brush2" points="565,373 569,371 581,366 596,356 612,341 627,319 637,292 640,256 632,213 632,204 636,198 642,196 649,199 658,188 666,179 673,170 679,162 686,154 693,144 703,134 714,121 720,124 708,137 699,148 691,157 685,166 679,174 672,182 665,191 656,202 658,206 659,209 659,212 659,216 662,231 665,253 666,279 663,307 654,335 638,362 614,385 578,401 578,400 578,395 574,387 565,373 565,373"/>
<polygon class="pen1 brush2" points="716,780 718,780 725,782 733,787 744,799 754,819 762,850 769,895 771,955 773,964 779,976 788,990 797,1004 806,1019 814,1033 818,1046 818,1056 822,1061 826,1067 830,1072 835,1078 840,1085 847,1093 854,1101 862,1110 861,1111 860,1111 859,1112 858,1114 850,1105 843,1096 837,1089 832,1083 827,1077 823,1072 819,1066 815,1061 806,1067 795,1061 783,1048 771,1029 760,1009 751,989 745,974 743,965 742,947 741,926 739,904 736,881 731,860 723,842 711,826 696,816 716,780 716,780"/>
<polygon class="pen1 brush2" points="146,783 144,783 137,785 129,790 119,802 108,823 100,854 93,899 91,959 89,968 83,980 75,993 65,1008 56,1023 49,1037 44,1050 44,1060 39,1065 35,1071 30,1076 25,1082 20,1089 14,1096 8,1105 0,1114 1,1114 3,1115 4,1116 5,1117 13,1108 20,1100 26,1093 31,1087 36,1081 40,1076 44,1071 48,1066 58,1071 69,1066 81,1052 92,1033 103,1013 111,993 117,977 119,969 120,951 121,930 123,908 126,885 131,864 139,845 151,830 166,819 146,783 146,783"/>
<polygon class="pen1 brush2" points="308,375 301,389 298,399 298,404 298,405 262,388 237,366 221,339 213,311 210,283 211,257 213,236 216,221 217,216 217,212 218,209 220,206 211,195 203,186 196,177 189,169 181,161 173,151 164,140 152,127 156,123 167,136 177,147 185,157 192,165 199,173 207,182 215,191 224,202 231,200 238,202 241,208 241,218 234,261 237,296 247,323 261,344 278,359 293,368 304,373 308,375"/>
<polygon class="pen1 brush2" points="450,351 473,349 495,342 515,331 533,317 547,301 558,281 565,259 567,236 567,227 566,219 564,213 561,205 573,222 586,242 599,263 612,287 626,313 639,341 653,370 665,402 676,435 687,469 696,505 703,542 708,581 712,620 713,661 711,702 713,702 717,702 722,702 724,702 723,699 723,690 724,676 724,657 723,634 721,607 717,575 712,541 704,503 693,462 680,419 662,373 641,325 615,276 584,226 548,174 546,170 543,166 540,162 537,158 537,158 537,158 536,157 535,156 534,155 526,148 517,141 507,135 497,130 486,126 475,123 463,122 450,121 435,122 420,125 406,130 392,137 380,146 369,156 359,168 351,181 316,232 286,282 261,331 240,378 223,423 210,465 199,506 192,543 187,577 183,608 182,635 181,658 181,676 181,690 181,699 180,702 182,702 187,702 191,702 193,702 191,661 192,621 195,581 200,543 208,506 216,471 227,436 238,404 250,373 263,343 277,315 290,289 304,265 317,243 330,224 342,206 339,214 338,221 336,228 336,236 338,259 345,281 356,301 370,317 387,331 406,342 428,349 450,351 450,351"/>
<polygon class="pen1 brush2" points="422,43 417,30 410,19 402,9 393,0 394,0 397,2 402,4 408,7 415,11 423,15 432,21 442,27 437,31 432,35 427,39 422,43 422,43"/>
<polygon class="pen1 brush2" points="548,131 464,110 469,85 474,67 478,55 483,46 494,55 505,65 515,76 525,86 533,97 539,108 544,120 548,131 548,131"/>
<polygon class="pen1 brush2" points="363,130 373,107 391,84 412,62 436,42 459,25 478,12 492,3 497,0 486,11 477,26 469,44 463,63 459,81 456,96 454,106 453,110 363,130"/>
</g>
</svg>
