<?xml version="1.0" encoding="UTF-8" standalone="no"?>
<!DOCTYPE svg PUBLIC "-//W3C//DTD SVG 1.0//EN" "http://www.w3.org/TR/2001/REC-SVG-20010904/DTD/svg10.dtd">
<svg xmlns="http://www.w3.org/2000/svg" xmlns:xlink="http://www.w3.org/1999/xlink" fill-rule="evenodd" height="1.085in" preserveAspectRatio="none" stroke-linecap="round" viewBox="0 0 1979 1085" width="1.979in">
<style type="text/css">
.brush0 { fill: rgb(255,255,255); }
.pen0 { stroke: rgb(0,0,0); stroke-width: 1; stroke-linejoin: round; }
.brush1 { fill: none; }
.pen1 { stroke: none; }
.brush2 { fill: rgb(0,0,0); }
</style>
<g>
<polygon class="pen1 brush2" points="1140,701 1140,693 1158,693 1175,694 1193,694 1210,694 1227,693 1244,693 1261,691 1277,690 1294,688 1311,685 1327,683 1344,679 1361,675 1377,670 1394,665 1411,659 1405,654 1395,647 1384,638 1372,630 1360,621 1350,615 1343,611 1341,610 1329,615 1317,620 1305,624 1293,627 1281,630 1269,633 1257,635 1245,637 1232,638 1220,639 1207,640 1194,640 1181,640 1168,640 1154,640 1140,640 1140,632 1153,632 1167,632 1179,632 1192,632 1204,631 1216,630 1228,629 1240,628 1252,626 1264,624 1276,622 1288,619 1300,615 1312,611 1324,607 1337,602 1330,596 1324,590 1317,584 1311,578 1305,572 1298,566 1292,559 1285,552 1267,561 1249,569 1232,574 1214,579 1197,582 1179,584 1160,585 1140,585 1140,578 1157,578 1175,577 1193,575 1211,572 1228,568 1245,562 1261,556 1276,547 1266,536 1256,524 1247,513 1238,500 1228,488 1219,476 1211,463 1202,451 1203,450 1204,449 1205,448 1206,447 1221,467 1236,486 1251,504 1267,522 1283,540 1300,557 1318,573 1336,589 1356,583 1373,579 1389,577 1402,575 1413,575 1421,575 1425,575 1427,575 1861,737 1824,625 1479,541 1482,529 1820,612 1790,521 1493,484 1495,474 1796,511 1874,447 1506,433 1506,423 1888,436 1979,362 1974,362 1960,363 1937,363 1908,364 1874,365 1835,367 1794,368 1752,369 1709,371 1668,373 1629,374 1594,375 1564,377 1541,378 1525,379 1519,380 1471,350 1423,323 1375,298 1327,274 1280,252 1234,232 1189,214 1144,197 1100,182 1057,169 1014,156 973,145 934,136 895,127 858,120 822,113 788,108 755,103 724,99 695,96 668,94 642,92 619,91 597,90 578,90 562,90 547,90 535,90 526,90 519,91 514,91 513,91 499,79 485,68 472,58 459,49 446,40 433,33 421,26 409,20 397,16 385,11 373,8 362,5 351,3 340,2 329,1 319,1 299,2 279,6 261,11 243,18 227,27 212,36 198,47 185,59 173,72 162,84 153,97 144,110 137,123 132,135 127,146 124,156 125,174 135,189 152,202 172,213 193,222 210,230 221,237 223,244 195,294 182,330 179,355 185,371 197,382 210,390 222,398 231,410 251,460 273,505 296,546 320,582 345,615 372,644 399,670 428,692 456,711 485,727 515,741 544,752 574,760 603,766 632,770 661,773 689,774 716,773 743,771 768,768 792,764 815,760 836,755 856,749 874,744 890,739 904,734 916,729 925,726 932,723 937,721 938,720 909,715 880,709 852,702 825,693 797,683 771,671 744,659 719,645 693,630 669,615 645,598 621,581 598,563 576,544 554,525 533,505 535,504 538,502 541,501 543,500 569,524 596,547 623,568 650,587 678,605 707,622 736,637 766,651 796,664 827,676 859,687 891,697 924,706 958,714 992,721 1027,728 1072,734 1117,739 1162,742 1206,744 1250,744 1292,744 1332,743 1369,741 1404,738 1436,736 1464,733 1487,730 1507,728 1521,726 1530,724 1533,724 1530,722 1526,720 1521,718 1517,717 1504,711 1491,704 1478,698 1466,691 1454,685 1442,678 1431,671 1421,664 1403,671 1385,676 1367,681 1350,685 1333,689 1315,692 1298,694 1281,696 1264,698 1247,699 1230,700 1212,700 1195,701 1177,701 1159,701 1140,701"/>
<polygon class="pen1 brush2" points="691,794 699,792 705,790 711,789 716,788 722,787 729,786 737,785 746,785 746,848 631,993 742,1035 611,1017 425,1085 520,1021 384,1037 505,1001 401,983 594,978 696,835 691,794 691,794"/>
<polygon class="pen1 brush2" points="198,258 185,259 172,260 159,261 147,262 134,264 122,265 110,267 98,269 86,272 74,275 62,278 50,281 38,285 26,289 14,293 2,298 2,298 1,298 0,298 0,298 2,295 8,288 18,276 30,262 46,246 63,230 83,214 104,199 114,203 127,209 141,216 157,224 172,232 184,241 194,250 198,258 198,258"/>
<polygon class="pen1 brush2" points="199,268 187,269 175,270 163,271 151,272 139,274 127,276 116,278 104,280 93,282 81,285 70,288 58,291 47,295 36,299 24,303 13,308 34,314 58,318 81,319 103,319 122,318 138,317 148,316 152,315 158,307 166,300 173,294 180,289 187,284 193,279 197,274 199,268"/>
<polygon class="pen1 brush2" points="691,794 699,792 705,790 711,789 716,788 722,787 729,786 737,785 746,785 746,848 631,993 742,1035 611,1017 425,1085 520,1021 384,1037 505,1001 401,983 594,978 696,835 691,794"/>
<polygon class="pen1 brush0" points="263,179 274,177 284,171 290,162 292,152 290,141 284,132 274,127 263,125 253,127 245,132 240,141 238,152 240,162 245,171 253,177 263,179 263,179"/>
<polygon class="pen1 brush0" points="347,295 335,294 323,290 313,285 304,277 296,268 291,258 287,246 286,234 287,222 291,210 296,200 304,191 313,183 323,178 335,174 347,173 359,174 371,178 381,183 390,191 398,200 403,210 407,222 408,234 407,246 403,258 398,268 390,277 381,285 371,290 359,294 347,295"/>
<polygon class="pen1 brush0" points="1013,416 1113,417 1009,708 990,704 974,701 959,697 944,694 927,690 908,685 885,678 857,670 1013,416"/>
</g>
</svg>
