<?xml version="1.0" encoding="UTF-8" standalone="no"?>
<!DOCTYPE svg PUBLIC "-//W3C//DTD SVG 1.0//EN" "http://www.w3.org/TR/2001/REC-SVG-20010904/DTD/svg10.dtd">
<svg xmlns="http://www.w3.org/2000/svg" xmlns:xlink="http://www.w3.org/1999/xlink" fill-rule="evenodd" height="1.987in" preserveAspectRatio="none" stroke-linecap="round" viewBox="0 0 1740 1987" width="1.74in">
<style type="text/css">
.brush0 { fill: rgb(255,255,255); }
.pen0 { stroke: rgb(0,0,0); stroke-width: 1; stroke-linejoin: round; }
.brush1 { fill: none; }
.pen1 { stroke: none; }
.brush2 { fill: rgb(0,0,0); }
</style>
<g>
<polygon class="pen1 brush2" points="657,1225 653,1226 643,1230 627,1236 604,1243 577,1252 545,1261 508,1271 468,1281 424,1291 378,1300 329,1308 279,1314 227,1319 174,1322 121,1322 68,1319 196,1377 21,1443 226,1420 106,1544 258,1454 216,1562 219,1560 226,1553 238,1543 254,1529 275,1512 299,1493 327,1472 359,1449 393,1426 431,1402 471,1377 514,1354 559,1331 606,1309 654,1289 704,1272 657,1225 657,1225"/>
<polygon class="pen1 brush2" points="636,777 632,776 622,772 606,766 583,759 556,750 524,740 487,730 447,720 403,710 357,701 308,693 258,686 206,681 153,678 100,678 47,681 176,625 0,558 203,582 85,458 237,548 194,439 197,441 204,448 216,458 232,472 253,489 278,508 306,529 337,552 372,576 410,600 450,624 493,648 538,671 584,693 633,712 683,730 636,777 636,777"/>
<polygon class="pen1 brush2" points="1257,653 1259,653 1265,655 1275,657 1288,661 1303,665 1321,670 1340,676 1361,683 1382,690 1404,698 1426,707 1447,717 1468,727 1486,738 1503,749 1518,761 1520,760 1527,757 1537,753 1550,746 1566,739 1583,730 1601,719 1619,708 1637,695 1654,681 1669,667 1683,652 1693,636 1699,620 1702,603 1699,586 1687,481 1685,328 1688,190 1690,130 1582,223 1576,221 1494,0 1492,1 1490,1 1488,2 1486,4 1469,227 1463,228 1233,35 1233,36 1233,37 1232,38 1231,38 1402,275 1399,281 1072,217 1073,218 1074,220 1075,222 1075,224 1353,370 1352,376 1139,439 1147,440 1162,442 1182,445 1206,449 1233,454 1263,459 1295,465 1328,471 1361,478 1393,486 1423,494 1451,502 1475,511 1495,520 1509,529 1518,538 1516,538 1509,538 1499,538 1486,539 1470,540 1452,542 1432,545 1410,549 1388,555 1366,562 1345,571 1324,583 1304,596 1286,612 1270,631 1257,653 1257,653"/>
<polygon class="pen1 brush2" points="1342,372 1138,433 1133,409 1127,382 1119,354 1111,326 1102,299 1093,274 1085,252 1078,234 1342,372 1342,372"/>
<polygon class="pen1 brush2" points="1390,272 1078,211 1101,192 1124,170 1147,146 1168,122 1187,98 1204,76 1217,58 1227,45 1390,272 1390,272"/>
<polygon class="pen1 brush2" points="1463,218 1246,37 1265,39 1284,40 1302,41 1320,40 1337,39 1354,37 1370,35 1386,32 1400,30 1414,26 1427,23 1440,20 1451,16 1461,13 1470,10 1478,7 1463,218 1463,218"/>
<polygon class="pen1 brush2" points="1581,214 1504,4 1510,12 1518,21 1528,30 1539,40 1551,49 1565,58 1578,67 1592,76 1606,85 1620,93 1634,100 1646,107 1658,113 1668,119 1676,123 1683,126 1581,214 1581,214"/>
<polygon class="pen1 brush2" points="1569,988 1565,1033 1558,1074 1548,1112 1533,1145 1515,1175 1493,1201 1466,1224 1436,1244 1401,1261 1362,1275 1319,1285 1271,1293 1218,1299 1161,1302 1099,1303 1032,1301 998,1299 964,1295 930,1290 897,1284 865,1276 833,1268 802,1258 771,1248 741,1236 712,1224 684,1212 657,1199 630,1185 605,1172 581,1158 557,1144 535,1130 514,1116 493,1103 475,1089 457,1077 441,1064 426,1053 412,1042 400,1032 389,1023 380,1015 373,1008 367,1003 363,999 360,996 359,995 360,994 363,991 367,987 373,982 380,975 389,967 400,958 412,948 426,938 441,926 457,914 475,901 493,888 514,875 535,861 557,847 581,833 605,819 630,806 657,792 684,779 712,767 741,755 771,743 802,733 833,723 865,715 897,707 930,701 964,696 998,692 1032,690 1099,688 1161,689 1219,691 1271,696 1319,703 1363,713 1402,725 1437,741 1467,759 1493,781 1516,806 1534,835 1548,867 1559,903 1566,944 1569,988 1569,988"/>
<polygon class="pen1 brush2" points="1268,1335 1281,1357 1297,1375 1316,1391 1336,1405 1357,1416 1379,1425 1401,1432 1423,1438 1444,1442 1464,1445 1482,1447 1498,1448 1511,1448 1521,1448 1528,1448 1530,1448 1522,1457 1507,1467 1488,1476 1464,1484 1436,1493 1406,1501 1375,1508 1342,1516 1310,1522 1278,1528 1248,1534 1220,1538 1196,1542 1176,1545 1162,1547 1153,1548 1365,1612 1365,1618 1088,1763 1086,1765 1085,1767 1085,1769 1085,1771 1410,1707 1413,1712 1243,1949 1244,1950 1244,1951 1245,1952 1246,1952 1476,1758 1481,1761 1497,1984 1500,1985 1502,1986 1505,1986 1507,1987 1588,1766 1595,1764 1700,1857 1688,1805 1680,1746 1678,1681 1680,1616 1684,1552 1691,1492 1700,1441 1710,1400 1713,1383 1711,1367 1705,1351 1695,1335 1682,1320 1666,1306 1649,1292 1631,1279 1613,1267 1595,1257 1578,1248 1562,1240 1549,1234 1539,1229 1532,1226 1530,1225 1515,1237 1498,1249 1479,1260 1459,1270 1438,1280 1416,1289 1394,1298 1372,1305 1352,1312 1332,1318 1314,1323 1299,1327 1286,1331 1276,1333 1270,1335 1268,1335 1268,1335"/>
<polygon class="pen1 brush2" points="1355,1616 1091,1754 1097,1736 1105,1715 1113,1690 1122,1662 1130,1634 1138,1606 1144,1579 1149,1555 1355,1616 1355,1616"/>
<polygon class="pen1 brush2" points="1403,1714 1238,1942 1229,1928 1216,1910 1199,1888 1180,1865 1159,1840 1136,1816 1113,1795 1089,1776 1403,1714 1403,1714"/>
<polygon class="pen1 brush2" points="1474,1768 1490,1981 1482,1978 1473,1975 1462,1971 1451,1968 1439,1964 1426,1961 1412,1958 1397,1955 1381,1952 1365,1950 1349,1948 1331,1947 1313,1947 1295,1947 1277,1948 1258,1950 1474,1768 1474,1768"/>
<polygon class="pen1 brush2" points="1594,1773 1694,1861 1687,1864 1679,1869 1669,1874 1657,1880 1645,1887 1631,1895 1617,1903 1603,1912 1589,1921 1575,1930 1562,1939 1549,1948 1538,1958 1528,1967 1520,1976 1514,1984 1594,1773"/>
<polygon class="pen1 brush0" points="505,1072 516,1070 525,1064 530,1055 532,1045 530,1034 525,1025 516,1020 505,1018 494,1020 486,1025 480,1034 478,1045 480,1055 486,1064 494,1070 505,1072 505,1072"/>
<polygon class="pen1 brush0" points="505,930 516,932 525,937 530,946 532,956 530,966 525,974 516,979 505,981 494,979 486,974 480,966 478,956 480,946 486,937 494,932 505,930"/>
</g>
</svg>
