<?xml version="1.0" encoding="UTF-8" standalone="no"?>
<!DOCTYPE svg PUBLIC "-//W3C//DTD SVG 1.0//EN" "http://www.w3.org/TR/2001/REC-SVG-20010904/DTD/svg10.dtd">
<svg xmlns="http://www.w3.org/2000/svg" xmlns:xlink="http://www.w3.org/1999/xlink" fill-rule="evenodd" height="2.001in" preserveAspectRatio="none" stroke-linecap="round" viewBox="0 0 953 2001" width="0.953in">
<style type="text/css">
.brush0 { fill: rgb(255,255,255); }
.pen0 { stroke: rgb(0,0,0); stroke-width: 1; stroke-linejoin: round; }
.brush1 { fill: none; }
.pen1 { stroke: none; }
.brush2 { fill: rgb(0,0,0); }
</style>
<g>
<polygon class="pen1 brush2" points="287,1223 199,1192 186,1199 176,1186 121,1155 105,1168 102,1145 99,1144 90,1141 78,1137 63,1131 46,1124 29,1115 13,1105 0,1094 2,1097 7,1105 15,1117 26,1131 38,1146 53,1161 68,1175 85,1186 101,1183 101,1196 172,1220 183,1213 190,1226 297,1254 287,1223 287,1223"/>
<polygon class="pen1 brush2" points="303,1173 307,1210 195,1159 189,1144 176,1151 102,1109 105,1097 87,1097 70,1082 56,1064 42,1044 31,1025 22,1008 16,993 11,984 10,980 22,995 38,1008 55,1021 72,1032 87,1041 100,1048 109,1052 112,1054 112,1081 131,1068 186,1114 195,1129 209,1125 303,1173 303,1173"/>
<polygon class="pen1 brush2" points="301,1108 300,1151 182,1073 179,1054 162,1060 88,1002 92,987 71,984 56,964 43,941 32,917 24,894 17,873 13,856 10,844 9,840 20,859 35,877 51,895 68,910 84,923 97,933 106,940 109,942 104,970 126,960 180,1020 187,1040 206,1037 301,1108 301,1108"/>
<polygon class="pen1 brush2" points="321,1019 227,936 209,939 203,918 151,850 125,858 134,827 131,824 122,817 109,806 93,791 76,774 60,754 46,734 36,713 37,717 39,730 42,748 47,771 55,796 64,823 76,848 91,871 112,875 107,889 180,957 197,953 199,973 318,1063 321,1019 321,1019"/>
<polygon class="pen1 brush2" points="321,419 323,417 328,412 336,403 346,392 358,377 371,360 383,341 396,319 408,295 418,270 426,242 432,214 434,184 432,152 426,121 415,88 412,97 404,120 391,154 374,194 353,236 330,277 305,313 278,338 278,328 280,302 284,264 293,218 309,168 332,118 366,73 411,37 408,36 401,32 390,28 375,23 356,19 335,17 312,16 287,19 275,21 264,24 252,28 240,33 228,39 215,46 203,54 191,63 179,74 167,86 155,99 143,114 132,130 121,148 110,168 99,189 78,249 67,316 63,385 66,454 76,519 90,577 108,624 129,658 127,659 121,662 114,669 106,678 101,691 99,708 102,730 112,756 126,780 140,795 152,804 163,808 172,808 179,806 183,804 185,803 190,809 203,825 223,848 246,876 270,904 293,930 312,952 325,965 342,909 339,906 332,898 320,886 307,871 292,855 277,837 264,819 253,803 256,801 263,796 273,788 283,776 292,762 298,744 298,723 291,700 283,685 274,674 265,666 256,661 246,658 238,656 230,655 223,654 223,607 229,603 244,593 264,577 286,555 307,527 322,495 328,459 321,419 321,419"/>
<polygon class="pen1 brush2" points="668,1223 756,1192 768,1199 780,1186 834,1154 849,1166 852,1144 855,1143 864,1141 876,1136 891,1130 908,1123 925,1114 940,1104 953,1092 951,1095 946,1103 939,1115 929,1129 916,1144 902,1160 886,1174 869,1186 854,1182 854,1195 783,1220 771,1213 764,1225 658,1254 668,1223 668,1223"/>
<polygon class="pen1 brush2" points="652,1172 648,1209 760,1159 766,1144 778,1149 852,1108 851,1095 868,1097 885,1081 900,1063 913,1043 924,1024 933,1007 940,992 944,983 945,979 932,994 917,1008 900,1021 883,1032 867,1041 854,1048 845,1052 842,1054 844,1080 824,1067 770,1112 760,1128 746,1124 652,1172 652,1172"/>
<polygon class="pen1 brush2" points="655,1108 655,1151 773,1073 777,1054 793,1060 868,1002 862,986 884,983 899,963 912,940 923,916 932,892 938,871 943,854 945,842 946,838 935,857 920,875 903,893 887,908 871,921 857,931 848,938 845,940 851,969 828,959 774,1020 767,1040 750,1036 655,1108 655,1108"/>
<polygon class="pen1 brush2" points="634,1017 727,936 747,938 753,916 804,848 830,858 821,827 824,824 833,817 846,805 862,790 879,773 895,753 909,733 919,712 918,716 916,729 913,747 907,770 900,795 890,821 878,846 864,869 842,874 848,888 774,956 757,952 756,972 638,1063 634,1017 634,1017"/>
<polygon class="pen1 brush2" points="634,419 632,417 627,412 619,403 609,392 597,377 584,360 571,340 559,318 547,294 537,269 528,241 523,212 521,182 523,151 529,119 541,87 544,96 552,119 565,153 582,193 602,236 625,277 650,313 676,338 676,328 675,302 670,264 661,217 646,167 622,117 589,72 544,36 547,34 556,31 570,26 588,21 610,17 636,15 663,17 693,23 703,27 713,31 724,36 734,41 745,48 755,55 766,64 776,73 787,83 797,95 807,107 817,121 827,136 836,152 846,170 855,189 876,249 887,315 891,384 888,453 879,518 865,576 846,624 825,658 827,659 833,662 841,669 848,678 854,691 856,708 852,730 842,756 828,780 815,795 803,804 792,808 783,808 776,806 772,804 770,803 765,809 752,825 732,848 709,875 685,903 662,929 643,950 629,963 612,909 615,906 622,898 634,886 647,871 662,855 677,837 691,819 702,803 699,801 692,796 682,787 672,775 663,760 657,743 656,722 663,699 672,684 681,673 690,665 699,660 708,657 717,655 725,654 732,652 732,607 726,603 711,593 691,577 668,555 648,527 633,495 627,459 634,419 634,419"/>
<polygon class="pen1 brush2" points="359,1753 361,1662 385,1651 361,1638 362,1534 388,1519 362,1502 364,1402 392,1388 365,1371 365,1261 376,1263 387,1265 399,1267 412,1268 425,1269 439,1270 452,1270 466,1270 470,1270 484,1270 499,1269 513,1268 528,1267 542,1265 555,1263 567,1261 578,1259 581,1371 551,1388 582,1405 585,1499 554,1519 587,1537 589,1634 557,1651 591,1665 594,1753 592,1753 591,1752 591,1751 591,1751 563,1761 537,1769 513,1774 490,1777 469,1778 451,1778 433,1776 418,1774 405,1771 393,1767 383,1763 375,1760 369,1756 365,1754 362,1752 361,1751 361,1751 361,1752 360,1753 359,1753 359,1753"/>
<polygon class="pen1 brush2" points="599,1767 595,1769 590,1770 586,1772 582,1773 577,1775 573,1776 568,1777 564,1778 635,1930 643,1932 651,1933 660,1934 670,1933 680,1930 690,1926 702,1919 714,1909 725,1897 730,1884 731,1872 727,1859 720,1847 710,1836 698,1824 684,1814 670,1804 655,1795 641,1787 627,1780 616,1775 607,1770 601,1768 599,1767 599,1767"/>
<polygon class="pen1 brush2" points="631,1934 557,1780 551,1782 545,1784 539,1785 534,1786 528,1788 522,1789 516,1789 510,1790 534,1968 558,1977 578,1979 594,1976 607,1970 616,1961 623,1951 628,1942 631,1934 631,1934"/>
<polygon class="pen1 brush2" points="527,1964 504,1790 499,1791 494,1791 488,1792 483,1792 478,1793 473,1793 469,1793 464,1792 442,1964 442,1964 442,1965 444,1968 447,1972 451,1977 457,1982 464,1986 473,1989 484,1990 486,1990 496,1989 504,1987 511,1983 517,1979 521,1974 524,1970 526,1967 527,1964 527,1964"/>
<polygon class="pen1 brush2" points="435,1968 457,1792 450,1792 444,1791 437,1791 431,1790 425,1789 419,1788 414,1786 409,1785 338,1936 341,1943 346,1952 353,1961 363,1970 375,1976 391,1979 411,1976 435,1968 435,1968"/>
<polygon class="pen1 brush2" points="334,1930 403,1782 395,1779 388,1777 383,1774 378,1772 374,1770 371,1768 370,1767 369,1767 367,1768 361,1770 352,1775 341,1780 327,1787 313,1795 298,1804 284,1814 270,1824 258,1836 248,1847 241,1859 237,1872 238,1884 243,1897 254,1909 266,1919 278,1926 288,1930 299,1933 308,1934 317,1933 326,1932 334,1930"/>
<polygon class="pen1 brush2" points="473,787 469,787 465,787 460,786 455,786 450,786 444,787 438,788 432,790 428,783 423,775 417,768 411,761 404,756 395,752 386,750 375,750 368,756 359,772 347,798 332,834 316,879 297,931 277,992 255,1060 231,1134 205,1215 178,1302 150,1393 121,1490 90,1590 59,1695 27,1802 30,1793 39,1767 52,1728 70,1676 90,1614 114,1545 139,1470 165,1392 191,1314 217,1237 242,1164 265,1096 285,1037 301,988 314,952 321,931 332,899 342,869 350,844 357,822 364,804 370,791 375,783 381,781 391,785 397,791 401,799 405,807 390,824 377,849 364,884 354,929 345,985 339,1055 337,1140 338,1240 341,1241 350,1243 364,1247 382,1251 402,1254 425,1257 449,1258 473,1257 477,1257 501,1258 525,1257 548,1254 569,1251 586,1247 600,1243 609,1241 612,1240 613,1142 611,1059 606,990 598,934 588,889 576,854 562,828 548,810 553,800 557,792 563,785 574,781 580,783 585,791 591,804 597,821 604,843 613,868 623,897 634,929 641,950 654,987 670,1036 690,1095 713,1162 738,1236 764,1313 790,1392 816,1470 842,1544 865,1614 886,1675 903,1727 916,1767 925,1793 928,1802 896,1694 864,1590 834,1489 804,1393 776,1301 749,1214 724,1133 700,1059 678,991 657,931 639,878 623,834 609,798 597,772 588,756 581,750 569,749 559,751 550,756 542,761 536,768 530,776 526,783 523,790 516,788 509,787 503,786 497,786 491,786 486,787 481,787 477,787 473,787 473,787"/>
<polygon class="pen1 brush2" points="470,752 469,755 466,758 460,760 453,763 446,764 439,765 432,765 428,763 418,731 413,702 411,680 411,671 416,680 422,690 429,701 437,711 444,722 451,731 457,740 462,746 460,733 456,713 452,689 447,662 441,632 435,601 427,570 419,540 429,540 437,572 445,605 452,639 458,671 463,700 466,724 469,742 470,752 470,752"/>
<polygon class="pen1 brush2" points="489,753 491,723 495,694 500,664 506,635 511,608 517,583 523,560 528,541 537,540 530,569 523,598 517,628 511,656 506,683 502,707 499,727 497,742 502,735 508,727 514,718 521,708 527,698 534,689 539,679 544,671 544,680 542,702 537,731 527,763 526,763 523,764 519,765 514,765 508,765 501,763 495,759 489,753"/>
</g>
</svg>
