<?xml version="1.0" encoding="UTF-8" standalone="no"?>
<!DOCTYPE svg PUBLIC "-//W3C//DTD SVG 1.0//EN" "http://www.w3.org/TR/2001/REC-SVG-20010904/DTD/svg10.dtd">
<svg xmlns="http://www.w3.org/2000/svg" xmlns:xlink="http://www.w3.org/1999/xlink" fill-rule="evenodd" height="1.987in" preserveAspectRatio="none" stroke-linecap="round" viewBox="0 0 1519 1987" width="1.519in">
<style type="text/css">
.brush0 { fill: rgb(255,255,255); }
.pen0 { stroke: rgb(0,0,0); stroke-width: 1; stroke-linejoin: round; }
.brush1 { fill: none; }
.pen1 { stroke: none; }
.brush2 { fill: rgb(0,0,0); }
</style>
<g>
<polygon class="pen1 brush2" points="1087,0 1082,6 1067,22 1044,47 1014,81 978,123 938,170 896,222 851,278 806,337 762,397 720,458 682,518 648,576 621,632 601,684 590,730 584,778 578,823 573,864 569,902 569,938 571,972 577,1005 587,1037 469,1148 471,1155 588,1043 592,1052 596,1061 601,1070 606,1079 611,1088 617,1097 624,1106 631,1115 506,1234 509,1240 634,1121 640,1129 647,1137 654,1145 661,1153 669,1161 676,1169 685,1177 694,1186 554,1311 555,1312 556,1313 557,1314 559,1315 698,1190 706,1198 714,1206 722,1213 731,1221 739,1228 747,1235 755,1243 763,1250 617,1386 618,1388 619,1389 620,1390 621,1392 767,1254 776,1261 785,1269 794,1276 802,1283 810,1290 818,1297 825,1304 833,1311 681,1450 682,1451 683,1452 684,1453 685,1454 837,1315 891,1371 746,1507 748,1507 749,1508 750,1509 752,1510 895,1375 903,1384 912,1393 920,1402 927,1410 935,1419 942,1427 948,1435 955,1443 821,1558 822,1560 824,1561 825,1561 827,1562 959,1446 967,1456 975,1466 982,1476 989,1485 995,1494 1001,1502 1007,1510 1013,1518 904,1609 905,1610 907,1611 908,1612 909,1612 1016,1524 1024,1535 1032,1545 1039,1555 1045,1563 1051,1570 1056,1576 1061,1581 1066,1585 1080,1594 1095,1602 1111,1611 1128,1620 1145,1630 1162,1640 1177,1651 1192,1662 1193,1664 1195,1670 1199,1679 1204,1691 1212,1706 1222,1723 1234,1741 1248,1760 1265,1781 1285,1801 1308,1821 1333,1841 1362,1860 1394,1877 1430,1893 1469,1906 1479,1910 1488,1914 1496,1917 1502,1921 1507,1925 1511,1929 1513,1934 1515,1938 1515,1950 1509,1961 1502,1971 1495,1978 1491,1980 1486,1982 1481,1984 1475,1984 1468,1984 1460,1984 1453,1982 1445,1980 1439,1979 1432,1977 1426,1974 1421,1971 1415,1968 1410,1964 1406,1960 1402,1955 1398,1952 1390,1948 1377,1943 1360,1936 1339,1929 1315,1919 1288,1909 1257,1898 1224,1885 1189,1871 1151,1855 1112,1839 1071,1821 1029,1803 986,1783 943,1761 899,1739 855,1716 811,1691 768,1665 726,1639 684,1611 644,1582 606,1552 570,1520 536,1488 504,1455 476,1421 450,1385 428,1349 409,1311 395,1273 383,1234 373,1196 364,1158 357,1121 351,1085 347,1048 345,1012 345,976 346,940 349,905 355,869 362,833 372,797 384,761 399,725 416,688 435,651 457,613 482,575 510,536 540,497 574,457 610,416 650,374 692,331 738,287 788,243 840,197 897,149 956,101 1020,51 1087,0"/>
<polygon class="pen1 brush2" points="614,979 616,974 620,961 628,943 639,921 652,899 668,880 687,865 709,858 713,853 722,840 736,820 751,796 766,770 780,743 789,718 793,697 793,700 794,708 797,719 803,729 812,738 827,742 847,739 874,726 872,729 868,738 865,751 863,765 865,778 873,789 889,795 915,794 909,798 893,807 871,821 845,837 817,854 792,870 771,883 759,892 758,896 756,907 750,923 741,943 726,964 705,985 677,1005 641,1021 639,1020 635,1018 629,1014 622,1008 616,1002 612,995 611,987 614,979"/>
<polygon class="pen1 brush2" points="313,1047 311,1042 306,1030 297,1012 285,991 271,970 254,952 234,939 212,933 208,928 198,916 183,897 166,874 148,848 133,822 122,798 117,777 117,780 117,788 115,799 110,810 101,819 86,824 65,822 37,810 39,813 43,822 48,834 51,848 50,861 42,872 27,879 0,879 2,880 6,882 13,886 22,891 33,897 46,904 59,911 73,919 87,927 101,935 115,943 127,950 139,956 148,962 156,967 161,970 162,974 165,985 172,1000 183,1019 200,1039 222,1059 252,1077 289,1091 291,1090 295,1087 301,1083 307,1077 312,1070 316,1063 317,1055 313,1047"/>
<polygon class="pen1 brush2" points="627,1591 344,1470 345,1471 352,1478 362,1488 372,1501 377,1514 374,1526 360,1536 331,1541 334,1542 341,1546 350,1552 359,1561 366,1572 368,1585 362,1600 348,1618 627,1591"/>
<polygon class="pen1 brush2" points="929,1381 962,1075 961,1075 958,1083 951,1096 942,1110 931,1119 918,1121 904,1111 890,1085 890,1088 888,1096 885,1106 880,1117 871,1127 859,1132 842,1131 821,1122 929,1381"/>
<polygon class="pen1 brush0" points="1093,1750 1103,1748 1110,1742 1115,1734 1117,1725 1115,1714 1110,1706 1103,1700 1093,1698 1083,1700 1075,1706 1069,1714 1067,1725 1069,1734 1075,1742 1083,1748 1093,1750"/>
</g>
</svg>
