<?xml version="1.0" encoding="UTF-8" standalone="no"?>
<!DOCTYPE svg PUBLIC "-//W3C//DTD SVG 1.0//EN" "http://www.w3.org/TR/2001/REC-SVG-20010904/DTD/svg10.dtd">
<svg xmlns="http://www.w3.org/2000/svg" xmlns:xlink="http://www.w3.org/1999/xlink" fill-rule="evenodd" height="0.998in" preserveAspectRatio="none" stroke-linecap="round" viewBox="0 0 1973 998" width="1.973in">
<style type="text/css">
.brush0 { fill: rgb(255,255,255); }
.pen0 { stroke: rgb(0,0,0); stroke-width: 1; stroke-linejoin: round; }
.brush1 { fill: none; }
.pen1 { stroke: none; }
.brush2 { fill: rgb(0,0,0); }
</style>
<g>
<polygon class="pen1 brush2" points="227,210 229,191 230,174 229,157 227,140 223,124 217,108 209,92 199,76 191,76 182,75 175,72 168,67 163,61 159,54 156,47 155,38 156,31 158,24 162,17 167,11 172,7 179,3 186,1 193,0 201,1 208,3 214,7 220,11 225,17 228,24 230,31 231,38 231,43 230,48 229,52 227,56 233,69 241,84 250,101 262,119 276,138 293,156 311,173 332,187 347,196 363,206 381,215 399,225 419,236 439,246 460,257 481,267 502,278 523,288 544,298 564,308 584,317 602,326 620,335 636,343 656,353 675,364 693,375 710,387 726,399 742,410 758,423 774,435 790,448 807,461 824,475 843,488 863,502 885,516 908,530 934,545 962,559 992,574 1026,589 1062,604 1102,620 1146,635 1193,651 1244,667 1300,683 1361,699 1426,715 1497,732 1573,748 1654,765 1741,781 1835,798 1850,802 1870,811 1893,823 1915,839 1937,856 1954,875 1967,894 1971,912 1970,922 1965,932 1955,940 1940,948 1920,954 1894,959 1861,963 1822,964 1804,964 1785,965 1765,966 1744,966 1723,967 1701,968 1679,969 1656,970 1633,970 1609,971 1584,972 1559,972 1533,972 1507,972 1481,972 1454,972 1427,971 1399,970 1371,969 1343,968 1314,966 1286,963 1256,961 1227,957 1198,954 1168,950 1138,945 1108,940 1078,934 1048,928 1017,921 987,913 953,904 919,894 885,883 851,871 817,858 783,844 749,829 716,813 683,796 650,778 617,759 585,738 553,716 521,693 490,668 459,642 420,608 385,577 354,549 327,523 303,499 282,477 264,458 248,439 234,422 223,407 213,392 204,378 196,364 189,351 182,338 176,325 164,304 149,282 131,259 112,236 93,214 76,194 60,177 47,163 38,164 30,162 22,159 15,155 9,149 4,142 1,134 0,125 1,117 3,109 6,103 11,97 17,92 23,88 30,86 38,85 45,86 52,88 59,92 65,97 69,103 73,109 75,117 76,125 76,131 74,136 72,141 69,146 78,154 89,164 104,174 122,184 143,194 168,202 196,207 227,210"/>
<polygon class="pen1 brush0" points="534,439 543,444 551,448 560,451 567,452 575,452 581,450 587,447 591,443 593,438 594,432 592,426 590,419 586,413 581,406 574,399 567,393 558,388 550,384 542,381 534,379 527,379 520,381 515,383 511,387 508,392 507,398 508,405 511,412 515,419 520,426 527,433 534,439 534,439"/>
<polygon class="pen1 brush0" points="534,585 543,590 551,593 560,596 567,597 575,597 581,596 587,593 591,589 593,584 594,578 592,571 590,565 586,558 581,551 574,544 567,538 558,533 550,529 542,526 534,525 527,525 520,526 515,528 511,532 508,537 507,544 508,550 511,557 515,565 520,572 527,579 534,585 534,585"/>
<polygon class="pen1 brush0" points="666,561 675,566 683,570 692,573 699,574 707,574 713,572 719,569 723,565 725,560 726,555 725,549 722,542 719,535 714,528 707,521 700,514 691,509 683,506 674,503 667,502 659,502 653,503 647,506 643,510 641,515 640,521 641,527 644,534 647,541 652,548 659,555 666,561 666,561"/>
<polygon class="pen1 brush0" points="811,606 819,612 827,616 836,619 843,620 851,620 857,619 862,616 866,612 869,607 870,601 869,594 867,587 863,580 858,573 851,567 844,561 835,556 827,551 819,549 811,547 804,547 797,548 792,551 788,555 785,560 784,566 785,573 787,580 791,587 796,594 803,600 811,606"/>
</g>
</svg>
