<?xml version="1.0" encoding="UTF-8" standalone="no"?>
<!DOCTYPE svg PUBLIC "-//W3C//DTD SVG 1.0//EN" "http://www.w3.org/TR/2001/REC-SVG-20010904/DTD/svg10.dtd">
<svg xmlns="http://www.w3.org/2000/svg" xmlns:xlink="http://www.w3.org/1999/xlink" fill-rule="evenodd" height="1.024in" preserveAspectRatio="none" stroke-linecap="round" viewBox="0 0 1978 1024" width="1.978in">
<style type="text/css">
.brush0 { fill: rgb(255,255,255); }
.pen0 { stroke: rgb(0,0,0); stroke-width: 1; stroke-linejoin: round; }
.brush1 { fill: none; }
.pen1 { stroke: none; }
.brush2 { fill: rgb(0,0,0); }
</style>
<g>
<polygon class="pen1 brush2" points="0,537 6,526 14,513 24,497 36,479 51,459 70,439 92,417 117,394 147,372 181,349 220,327 265,306 314,286 369,267 430,251 498,236 501,229 511,208 526,178 546,142 570,103 596,64 624,29 653,0 654,1 659,2 666,4 677,7 691,9 708,11 729,11 754,11 740,21 726,31 712,43 699,55 685,68 672,81 659,95 647,110 635,126 624,142 614,160 605,178 596,197 589,216 583,237 579,258 589,260 595,238 601,216 609,196 618,177 628,158 638,141 649,124 661,109 673,94 686,80 699,67 712,55 725,43 738,32 751,22 764,13 767,15 772,19 778,24 786,29 796,34 808,40 822,46 839,51 818,71 797,93 777,116 759,141 743,168 730,197 719,227 711,260 721,261 731,228 743,197 757,168 773,141 790,116 808,94 828,73 848,54 849,54 849,54 849,54 849,54 851,56 856,60 863,66 873,74 884,81 896,89 909,94 923,98 908,115 894,134 880,154 868,175 857,197 848,220 840,245 835,271 845,271 851,245 859,221 869,198 880,176 892,156 904,137 918,119 933,102 934,105 935,110 938,116 942,122 947,129 953,135 961,141 971,146 962,160 953,175 945,190 938,205 931,221 926,238 921,256 917,274 927,274 932,256 937,238 943,221 950,205 957,189 965,174 974,160 983,146 987,145 993,144 999,142 1006,140 1014,138 1023,135 1033,132 1043,128 1054,124 1066,119 1078,113 1091,107 1104,101 1118,94 1132,86 1147,77 1127,96 1107,117 1089,139 1072,164 1057,190 1044,219 1034,249 1027,281 1037,283 1046,249 1057,218 1071,189 1086,162 1103,137 1122,115 1141,94 1160,75 1165,79 1171,84 1180,89 1190,95 1201,100 1215,104 1230,107 1247,109 1230,127 1214,147 1200,167 1186,189 1174,213 1164,238 1156,264 1150,291 1159,291 1167,263 1176,237 1187,212 1199,189 1212,167 1226,147 1241,128 1257,111 1264,117 1270,123 1277,129 1283,135 1291,142 1299,148 1308,154 1318,159 1306,175 1294,192 1283,210 1273,229 1264,248 1257,268 1250,289 1245,311 1255,312 1261,290 1268,269 1276,249 1285,230 1294,212 1305,194 1316,178 1328,162 1329,163 1330,163 1331,164 1332,165 1332,167 1331,171 1332,178 1333,186 1338,195 1345,204 1357,213 1373,220 1365,233 1358,246 1352,260 1346,274 1340,289 1336,304 1332,319 1329,335 1339,337 1343,321 1348,306 1353,291 1358,277 1364,263 1370,250 1376,237 1383,224 1384,224 1385,224 1386,224 1386,224 1391,228 1393,235 1394,245 1396,256 1398,267 1403,277 1411,285 1424,291 1392,335 1396,337 1406,341 1421,346 1440,353 1459,359 1478,365 1495,368 1508,368 1515,364 1527,356 1543,343 1563,327 1586,308 1612,287 1640,265 1671,243 1703,220 1736,199 1770,178 1805,160 1840,145 1874,134 1908,127 1940,125 1940,130 1940,143 1939,165 1937,192 1917,195 1899,199 1881,203 1864,207 1848,211 1832,216 1818,221 1805,225 1793,229 1783,234 1773,237 1765,241 1758,243 1753,245 1749,247 1747,247 1751,254 1755,252 1761,250 1767,248 1774,244 1783,241 1792,237 1802,233 1814,229 1826,225 1839,221 1853,217 1868,213 1884,209 1901,206 1918,203 1937,200 1934,221 1930,242 1926,265 1920,288 1904,288 1889,288 1874,289 1860,290 1846,291 1833,293 1820,295 1809,296 1798,298 1789,300 1780,302 1773,303 1766,304 1761,305 1757,305 1755,305 1757,314 1761,314 1767,313 1773,312 1780,311 1788,309 1796,308 1806,306 1816,304 1827,302 1838,301 1850,299 1863,298 1876,297 1889,297 1903,297 1917,297 1913,310 1909,322 1904,335 1899,348 1871,349 1845,351 1822,355 1802,358 1784,362 1770,365 1761,367 1755,368 1758,375 1766,374 1777,372 1791,369 1807,365 1826,361 1847,358 1871,356 1896,355 1890,367 1884,378 1877,389 1870,400 1862,410 1854,421 1845,430 1836,439 1837,440 1839,443 1843,447 1849,454 1855,462 1862,471 1870,482 1879,494 1855,493 1833,491 1813,488 1795,485 1779,482 1766,479 1756,477 1748,476 1747,484 1752,484 1761,485 1774,488 1790,492 1810,495 1832,499 1858,501 1885,503 1889,509 1894,516 1898,523 1903,529 1907,536 1911,543 1916,551 1920,558 1905,559 1890,559 1875,558 1861,557 1848,555 1835,552 1822,549 1810,546 1799,543 1789,540 1779,537 1771,535 1763,532 1757,530 1751,529 1747,528 1744,538 1747,538 1751,539 1757,540 1764,542 1772,545 1781,548 1792,551 1804,554 1817,558 1830,561 1845,564 1860,566 1876,568 1892,569 1909,569 1926,568 1933,581 1940,593 1946,604 1951,614 1956,622 1959,630 1962,637 1964,642 1941,641 1920,639 1899,637 1880,634 1862,631 1845,627 1829,623 1815,619 1801,615 1789,611 1778,607 1768,603 1760,599 1752,596 1746,593 1741,591 1737,599 1740,600 1745,601 1751,604 1759,607 1769,611 1780,615 1792,620 1807,624 1822,629 1839,634 1857,638 1877,642 1898,646 1920,649 1943,651 1967,652 1970,666 1974,685 1977,704 1978,716 1976,716 1969,717 1957,718 1942,719 1923,719 1900,718 1874,715 1846,710 1814,703 1780,692 1744,679 1705,662 1666,640 1624,614 1582,583 1539,547 1533,545 1523,546 1509,549 1492,554 1473,561 1454,570 1436,582 1420,596 1406,611 1396,629 1392,650 1393,672 1402,697 1420,723 1447,752 1484,783 1478,784 1470,787 1459,791 1447,795 1432,801 1415,805 1397,810 1376,813 1353,815 1329,814 1303,812 1275,806 1245,797 1213,784 1180,766 1145,744 1142,745 1135,747 1124,751 1109,756 1091,762 1071,769 1049,777 1026,785 1002,793 978,801 955,809 933,816 912,823 894,829 878,834 866,838 866,839 867,843 869,850 873,857 879,866 889,875 903,884 921,892 921,893 921,894 920,896 920,898 904,896 889,893 874,890 860,886 847,882 835,877 824,872 814,867 804,862 795,858 787,853 779,849 773,845 767,842 762,840 758,838 754,848 756,848 760,850 764,852 770,855 777,859 785,863 794,868 805,872 816,878 829,883 842,888 856,892 872,897 888,901 905,904 923,906 924,911 926,915 929,921 932,926 936,931 941,936 947,942 954,947 954,947 929,946 905,942 883,938 862,932 842,925 823,918 806,910 790,901 775,893 761,884 749,876 738,869 729,862 720,857 714,852 708,849 704,858 707,859 712,862 719,867 728,872 738,880 750,887 763,896 778,905 795,914 813,923 832,931 853,939 874,945 897,951 922,955 947,957 944,966 944,977 949,991 960,1007 958,1007 951,1007 941,1008 928,1007 911,1006 891,1004 869,1001 845,996 819,989 791,980 762,968 733,954 703,937 672,917 642,893 613,865 607,865 591,865 565,865 532,863 492,860 446,855 397,847 345,836 292,822 239,804 188,782 139,754 95,721 56,682 24,637 0,585 88,575 0,537"/>
<polygon class="pen1 brush0" points="224,470 230,469 236,468 241,465 246,461 250,456 253,451 254,445 255,439 254,433 253,428 250,422 246,418 241,414 236,411 230,410 224,409 218,410 212,411 207,414 202,418 198,422 195,428 194,433 193,439 194,445 195,451 198,456 202,461 207,465 212,468 218,469 224,470"/>
<polygon class="pen1 brush0" points="356,494 365,501 374,511 383,523 392,537 400,553 407,570 412,588 415,606 415,624 413,643 407,660 397,677 383,692 365,706 341,718 312,727 315,725 324,718 336,707 351,693 365,677 377,659 386,639 389,619 388,598 384,576 379,555 373,536 366,519 361,506 357,497 356,494"/>
<polygon class="pen1 brush0" points="406,400 419,408 435,421 452,436 471,456 489,477 506,502 521,528 532,556 539,585 541,616 536,646 525,677 504,708 475,738 435,767 383,794 388,791 403,781 423,766 447,746 470,722 490,693 505,660 510,625 506,587 494,548 477,510 458,475 439,445 422,421 410,406 406,400"/>
<polygon class="pen1 brush0" points="593,615 611,619 628,624 645,628 661,633 677,638 692,643 706,649 719,655 732,661 745,668 756,676 768,684 778,693 788,703 797,714 806,726 795,733 785,721 775,711 765,701 754,692 743,684 732,676 720,669 708,662 695,656 682,651 668,645 654,640 639,636 624,631 608,626 592,622 593,615"/>
<polygon class="pen1 brush0" points="598,595 619,594 637,592 654,591 669,590 682,590 695,590 708,590 720,591 732,593 745,595 758,599 772,604 788,610 805,617 824,625 846,635 835,648 818,639 802,631 786,624 771,618 757,613 743,609 729,606 716,603 702,602 689,601 675,600 661,600 646,600 631,600 615,600 598,601 598,595"/>
<polygon class="pen1 brush0" points="593,574 616,568 636,562 655,557 673,552 689,548 704,544 719,542 733,540 748,539 763,539 778,540 794,542 811,545 830,549 850,555 873,562 863,578 840,571 819,565 800,561 783,557 767,555 752,554 737,554 724,554 710,555 696,557 682,560 667,563 651,566 634,570 616,574 596,578 593,574"/>
<polygon class="pen1 brush0" points="583,554 599,549 615,543 631,538 646,532 662,527 678,522 695,517 712,512 731,507 751,503 773,499 797,496 823,493 851,490 882,488 916,487 913,504 885,505 860,505 837,506 816,508 796,509 778,511 760,514 743,516 726,520 709,523 692,527 674,532 654,538 633,544 610,551 585,558 583,554"/>
</g>
</svg>
