<?xml version="1.0" encoding="UTF-8" standalone="no"?>
<!DOCTYPE svg PUBLIC "-//W3C//DTD SVG 1.0//EN" "http://www.w3.org/TR/2001/REC-SVG-20010904/DTD/svg10.dtd">
<svg xmlns="http://www.w3.org/2000/svg" xmlns:xlink="http://www.w3.org/1999/xlink" fill-rule="evenodd" height="0.806in" preserveAspectRatio="none" stroke-linecap="round" viewBox="0 0 1980 806" width="1.98in">
<style type="text/css">
.brush0 { fill: rgb(255,255,255); }
.pen0 { stroke: rgb(0,0,0); stroke-width: 1; stroke-linejoin: round; }
.brush1 { fill: none; }
.pen1 { stroke: none; }
.brush2 { fill: rgb(0,0,0); }
</style>
<g>
<polygon class="pen1 brush2" points="185,468 180,465 168,458 149,446 127,431 101,414 76,395 51,376 30,357 42,358 56,358 72,358 88,357 105,355 123,352 141,348 159,342 136,342 113,341 91,340 70,339 51,337 34,335 19,334 7,332 5,328 4,324 3,320 3,316 3,306 4,293 7,279 11,264 17,247 24,230 31,212 40,194 49,176 59,159 70,143 80,128 91,115 102,103 114,93 125,86 131,116 133,113 138,106 146,95 156,83 166,69 177,56 188,44 197,35 197,41 199,54 200,69 203,82 204,79 209,72 215,61 223,48 233,34 244,21 255,10 267,2 267,11 266,31 266,55 268,75 272,72 281,66 296,56 313,44 331,32 348,21 364,11 375,4 373,7 369,17 363,30 356,46 349,63 343,79 339,92 337,102 340,101 349,98 362,95 378,90 394,85 410,81 423,77 433,75 430,78 423,86 412,98 400,113 387,128 375,142 366,154 361,163 364,163 372,163 384,163 398,163 413,164 429,165 442,166 453,167 450,169 443,174 433,181 421,190 408,200 396,208 386,216 379,221 382,222 391,225 405,230 421,235 437,241 454,246 469,251 480,254 476,255 464,259 447,264 427,270 407,276 388,281 373,286 364,288 367,291 375,297 387,307 401,319 416,331 430,343 441,353 449,360 328,338 362,413 360,413 355,412 347,412 337,411 326,409 315,408 304,405 294,403 294,407 294,418 295,432 297,444 295,444 291,442 284,440 276,437 267,434 257,430 248,427 240,423 240,427 240,438 240,452 239,467 237,466 233,462 227,458 219,452 211,446 204,441 197,437 192,434 191,437 189,446 186,457 185,468 185,468"/>
<polygon class="pen1 brush2" points="445,706 374,806 379,725 294,792 344,707 240,732 328,667 244,659 342,626 281,579 398,602 397,604 395,611 393,621 394,634 398,650 406,668 422,687 445,706 445,706"/>
<polygon class="pen1 brush2" points="477,488 469,485 466,493 467,510 470,528 471,537 470,545 468,553 464,561 459,569 451,577 440,584 427,592 417,602 413,615 415,629 422,644 431,658 444,670 457,679 470,683 501,684 527,682 550,677 568,669 582,660 594,650 602,638 608,626 612,613 614,601 615,590 615,579 614,571 613,564 612,560 612,558 588,549 563,539 541,527 520,515 503,505 489,496 480,490 477,488 477,488"/>
<polygon class="pen1 brush2" points="365,366 383,380 403,395 426,412 452,430 480,448 510,466 542,485 576,503 611,520 649,536 688,551 728,564 770,574 812,582 856,587 901,589 956,586 1008,579 1058,567 1105,551 1149,533 1190,513 1228,491 1263,469 1294,447 1321,425 1345,405 1365,386 1380,371 1392,359 1399,352 1401,349 1431,351 1466,347 1506,338 1551,325 1597,309 1646,290 1695,269 1743,247 1790,225 1834,203 1874,182 1909,164 1939,148 1961,136 1975,128 1980,125 1969,123 1952,120 1930,116 1904,111 1874,106 1840,100 1804,94 1767,88 1729,82 1691,77 1653,71 1617,66 1583,62 1552,59 1524,56 1501,55 1481,54 1461,55 1441,56 1422,58 1403,61 1385,64 1369,68 1353,72 1339,76 1326,79 1315,83 1305,86 1297,89 1292,91 1288,93 1287,93 1263,81 1240,71 1216,61 1192,52 1168,43 1144,36 1120,30 1097,24 1073,19 1049,14 1025,11 1001,7 977,5 953,3 930,2 906,1 872,1 838,3 805,5 773,8 741,12 710,16 679,22 650,27 621,34 594,40 567,47 542,54 518,61 495,69 473,76 453,83 399,146 504,144 426,218 537,254 532,255 519,259 500,265 478,271 455,278 434,284 418,289 409,292 412,295 420,304 432,317 446,332 461,348 475,363 487,375 496,383 365,366 365,366"/>
<polygon class="pen1 brush2" points="1227,532 1233,528 1247,518 1268,504 1292,486 1317,468 1339,450 1356,435 1365,423 1365,425 1366,432 1369,440 1374,450 1383,460 1397,468 1415,473 1440,474 1440,477 1441,485 1440,497 1438,512 1431,528 1420,544 1403,559 1379,572 1351,582 1324,587 1299,589 1276,587 1257,581 1242,569 1232,553 1227,532 1227,532"/>
<polygon class="pen1 brush2" points="1328,613 1333,612 1347,608 1367,601 1390,590 1414,576 1436,556 1453,532 1462,502 1465,504 1471,511 1481,523 1491,538 1500,556 1507,578 1510,602 1508,629 1507,628 1506,624 1503,619 1500,613 1496,607 1490,601 1484,596 1477,592 1477,604 1476,632 1472,666 1463,697 1462,688 1458,667 1452,643 1442,622 1441,626 1438,637 1434,653 1428,671 1420,692 1412,711 1403,729 1393,742 1394,729 1395,698 1395,664 1392,639 1390,642 1384,652 1376,665 1365,681 1353,697 1341,714 1329,728 1318,738 1321,727 1329,701 1338,672 1344,649 1341,651 1332,658 1318,667 1302,678 1285,690 1268,700 1253,708 1241,713 1244,710 1253,702 1265,690 1279,675 1294,658 1309,642 1320,626 1328,613"/>
<polygon class="pen1 brush0" points="165,258 175,256 183,251 188,243 190,232 188,222 183,214 175,209 165,207 155,209 147,214 141,222 139,232 141,243 147,251 155,256 165,258"/>
<polygon class="pen1 brush0" points="602,316 783,261 783,296 942,248 942,277 1085,237 1088,265 1207,220 1216,251 1348,211 1203,301 1192,268 1074,316 1065,281 919,325 922,285 767,340 758,301 602,316"/>
</g>
</svg>
