<?xml version="1.0" encoding="UTF-8" standalone="no"?>
<!DOCTYPE svg PUBLIC "-//W3C//DTD SVG 1.0//EN" "http://www.w3.org/TR/2001/REC-SVG-20010904/DTD/svg10.dtd">
<svg xmlns="http://www.w3.org/2000/svg" xmlns:xlink="http://www.w3.org/1999/xlink" fill-rule="evenodd" height="0.7in" preserveAspectRatio="none" stroke-linecap="round" viewBox="0 0 1973 700" width="1.973in">
<style type="text/css">
.brush0 { fill: rgb(255,255,255); }
.pen0 { stroke: rgb(0,0,0); stroke-width: 1; stroke-linejoin: round; }
.brush1 { fill: none; }
.pen1 { stroke: none; }
.brush2 { fill: rgb(0,0,0); }
</style>
<g>
<polygon class="pen1 brush2" points="116,291 130,291 144,291 158,291 173,291 187,291 202,290 215,290 228,289 216,288 204,286 193,285 181,283 170,282 158,281 148,280 137,279 126,278 116,277 107,276 97,276 88,275 79,275 71,274 63,274 51,267 40,259 30,249 23,237 18,223 17,207 21,189 29,169 30,167 34,163 41,155 49,145 61,134 74,121 90,107 108,92 118,85 128,78 138,71 150,64 161,57 173,51 186,44 199,38 212,32 226,27 240,22 255,17 270,13 285,10 301,7 317,5 330,4 343,4 356,4 370,5 383,6 397,8 411,11 426,14 440,18 455,22 469,27 484,33 500,40 515,48 530,56 546,65 548,64 554,63 565,60 579,56 597,52 618,47 642,42 670,37 700,32 733,27 768,23 806,19 846,16 887,14 931,14 976,14 999,15 1022,16 1045,18 1069,20 1093,23 1117,26 1141,29 1166,33 1190,37 1215,42 1239,48 1264,54 1289,61 1314,68 1339,76 1364,85 1366,85 1373,84 1383,83 1398,82 1415,81 1436,80 1459,80 1485,81 1512,82 1542,85 1572,88 1604,93 1636,100 1668,109 1701,119 1733,132 1689,258 1695,261 1739,135 1753,142 1767,149 1781,156 1795,164 1808,172 1821,181 1834,191 1847,201 1800,309 1807,312 1850,207 1862,218 1874,230 1885,242 1896,256 1906,270 1915,285 1924,301 1932,318 1893,378 1898,380 1935,325 1944,346 1952,369 1958,393 1964,418 1968,445 1970,473 1972,503 1972,534 1968,530 1958,520 1941,504 1918,484 1889,461 1856,435 1819,409 1778,383 1733,358 1687,336 1638,317 1588,302 1537,294 1485,293 1434,299 1383,315 1368,322 1353,329 1337,337 1321,346 1305,355 1288,364 1271,374 1253,383 1235,393 1216,402 1196,411 1176,420 1154,428 1132,435 1109,442 1084,448 1059,454 1032,458 1004,461 975,463 944,463 912,462 878,460 843,455 806,449 768,441 728,431 686,419 642,405 596,389 548,370 498,348 493,349 479,350 458,353 431,355 399,358 363,360 326,362 288,363 250,362 214,360 182,355 154,348 132,339 117,326 112,311 116,291 116,291"/>
<polygon class="pen1 brush2" points="570,399 567,412 561,427 554,442 545,456 537,469 530,479 525,486 523,488 522,503 527,515 536,522 547,527 558,530 569,531 576,531 579,531 589,526 599,520 609,512 620,502 629,489 639,473 647,453 654,429 644,427 631,423 617,418 603,413 590,408 580,403 573,400 570,399 570,399"/>
<polygon class="pen1 brush2" points="499,501 395,501 469,522 391,566 469,548 421,620 492,568 475,649 526,575 529,636 563,555 543,550 528,543 516,534 509,525 503,516 501,508 499,503 499,501 499,501"/>
<polygon class="pen1 brush2" points="1245,557 1160,618 1232,592 1194,673 1246,612 1249,700 1277,616 1310,691 1309,602 1347,649 1326,565 1313,571 1299,573 1285,572 1273,569 1262,565 1253,561 1247,558 1245,557 1245,557"/>
<polygon class="pen1 brush2" points="1232,417 1221,426 1218,441 1218,464 1219,493 1222,508 1229,522 1238,533 1250,542 1265,549 1280,552 1297,552 1314,548 1328,542 1335,534 1336,524 1334,513 1329,501 1323,488 1316,476 1310,464 1308,451 1310,436 1315,420 1321,404 1327,389 1333,377 1337,369 1339,366 1326,373 1312,381 1299,388 1286,395 1272,401 1259,407 1245,412 1232,417"/>
<polygon class="pen1 brush0" points="202,182 211,180 219,175 224,167 226,157 224,147 219,140 211,135 202,133 192,135 185,140 180,147 178,157 180,167 185,175 192,180 202,182"/>
<polygon class="pen1 brush0" points="647,169 657,167 664,161 669,153 671,143 669,133 664,126 657,121 647,119 637,121 629,126 623,133 621,143 623,153 629,161 637,167 647,169"/>
<polygon class="pen1 brush0" points="617,223 627,221 634,215 639,207 641,197 639,187 634,179 627,174 617,172 607,174 599,179 593,187 591,197 593,207 599,215 607,221 617,223"/>
<polygon class="pen1 brush0" points="678,221 688,219 696,214 702,206 704,197 702,187 696,178 688,172 678,170 668,172 660,178 654,187 652,197 654,206 660,214 668,219 678,221"/>
<polygon class="pen1 brush0" points="806,309 812,308 818,306 824,304 829,299 834,295 837,289 839,282 840,275 839,268 837,262 834,256 829,251 824,247 818,244 812,242 806,241 799,242 792,244 786,247 781,251 776,256 773,262 771,268 770,275 771,282 773,289 776,295 781,299 786,304 792,306 799,308 806,309"/>
<polygon class="pen1 brush0" points="765,382 772,381 778,379 784,376 789,372 793,367 796,361 798,355 799,348 798,341 796,334 793,328 789,323 784,319 778,316 772,315 765,314 758,315 752,316 746,319 741,323 737,328 734,334 732,341 731,348 732,355 734,361 737,367 741,372 746,376 752,379 758,381 765,382"/>
<polygon class="pen1 brush0" points="847,380 854,379 861,377 867,375 873,370 877,366 880,360 882,353 883,346 882,339 880,333 877,327 873,322 867,318 861,315 854,313 847,312 841,313 835,315 829,318 824,322 819,327 816,333 814,339 813,346 814,353 816,360 819,366 824,370 829,375 835,377 841,379 847,380"/>
<polygon class="pen1 brush0" points="438,113 429,115 422,119 417,126 415,135 417,143 422,150 429,154 438,156 445,154 452,150 456,143 458,135 456,126 452,119 445,115 438,113"/>
<polygon class="pen1 brush0" points="462,68 454,69 447,74 443,80 441,89 443,97 447,104 454,108 462,110 471,108 477,104 482,97 483,89 482,80 477,74 471,69 462,68"/>
<polygon class="pen1 brush0" points="411,68 402,70 395,75 390,82 388,91 390,99 395,106 402,110 411,112 418,110 425,106 429,99 431,91 429,82 425,75 418,70 411,68"/>
<polygon class="pen1 brush0" points="839,98 830,99 823,104 818,110 816,119 818,127 823,134 830,138 839,140 847,138 854,134 858,127 860,119 858,110 854,104 847,99 839,98"/>
<polygon class="pen1 brush0" points="864,51 855,53 849,58 844,65 843,74 844,82 849,89 855,93 864,95 872,93 879,89 883,82 885,74 883,65 879,58 872,53 864,51"/>
<polygon class="pen1 brush0" points="812,52 804,54 797,59 792,66 790,75 792,82 797,89 804,93 812,95 820,93 827,89 831,82 833,75 831,66 827,59 820,54 812,52"/>
<polygon class="pen1 brush0" points="1151,311 1145,312 1139,313 1134,316 1130,320 1126,324 1123,329 1122,335 1121,341 1122,347 1123,352 1126,357 1130,361 1134,365 1139,368 1145,369 1151,370 1157,369 1163,368 1168,365 1172,361 1176,357 1179,352 1180,347 1181,341 1180,335 1179,329 1176,324 1172,320 1168,316 1163,313 1157,312 1151,311"/>
<polygon class="pen1 brush0" points="1185,247 1174,249 1165,256 1159,266 1157,278 1159,289 1165,299 1174,306 1185,308 1191,307 1197,306 1202,303 1206,299 1210,295 1213,289 1214,284 1215,278 1214,272 1213,266 1210,261 1206,256 1202,252 1197,249 1191,248 1185,247"/>
<polygon class="pen1 brush0" points="1114,250 1108,251 1102,252 1097,255 1092,258 1088,263 1085,268 1084,274 1083,280 1084,286 1085,291 1088,295 1092,300 1097,303 1102,306 1108,307 1114,308 1120,307 1125,306 1131,303 1135,300 1139,295 1142,291 1143,286 1144,280 1143,274 1142,268 1139,263 1135,258 1131,255 1125,252 1120,251 1114,250"/>
</g>
</svg>
