<?xml version="1.0" encoding="UTF-8" standalone="no"?>
<!DOCTYPE svg PUBLIC "-//W3C//DTD SVG 1.0//EN" "http://www.w3.org/TR/2001/REC-SVG-20010904/DTD/svg10.dtd">
<svg xmlns="http://www.w3.org/2000/svg" xmlns:xlink="http://www.w3.org/1999/xlink" fill-rule="evenodd" height="1.585in" preserveAspectRatio="none" stroke-linecap="round" viewBox="0 0 1979 1585" width="1.979in">
<style type="text/css">
.brush0 { fill: rgb(255,255,255); }
.pen0 { stroke: rgb(0,0,0); stroke-width: 1; stroke-linejoin: round; }
.brush1 { fill: none; }
.pen1 { stroke: none; }
.brush2 { fill: rgb(0,0,0); }
</style>
<g>
<polygon class="pen1 brush2" points="1179,1208 1177,1217 1173,1227 1166,1237 1156,1248 1145,1259 1131,1272 1115,1285 1097,1300 1077,1316 1054,1333 1030,1351 1004,1372 976,1393 946,1417 914,1442 880,1469 1036,1526 863,1509 625,1585 765,1504 533,1516 718,1475 509,1458 821,1441 824,1439 831,1434 842,1426 857,1415 875,1402 895,1388 916,1372 938,1355 960,1339 981,1322 1001,1306 1019,1291 1035,1277 1047,1265 1055,1256 1059,1249 1062,1227 1063,1209 1064,1197 1064,1192 1179,1208 1179,1208"/>
<polygon class="pen1 brush2" points="499,87 499,23 479,28 461,34 446,41 433,47 424,54 417,58 412,62 411,63 413,34 418,14 422,3 424,0 400,12 380,25 363,38 351,51 341,63 335,72 331,79 330,81 327,51 328,29 329,16 330,12 309,36 293,64 282,94 274,123 269,150 267,171 266,186 266,191 388,313 296,364 296,454 304,537 319,614 341,685 368,750 402,809 440,862 483,911 530,955 581,994 636,1028 693,1059 752,1085 812,1108 875,1127 937,1144 1000,1157 1063,1168 1125,1176 1186,1182 1245,1187 1302,1189 1357,1191 1408,1191 1455,1190 1499,1189 1537,1187 1571,1185 1599,1183 1621,1182 1636,1181 1644,1181 1654,1184 1668,1190 1684,1200 1702,1212 1721,1227 1742,1243 1764,1260 1785,1277 1806,1295 1825,1312 1844,1328 1860,1342 1873,1354 1883,1363 1890,1369 1892,1371 1906,1358 1921,1343 1935,1329 1949,1315 1961,1303 1970,1294 1977,1287 1979,1285 1961,1258 1939,1228 1914,1196 1886,1162 1855,1126 1821,1088 1785,1049 1747,1008 1707,966 1665,923 1622,879 1578,835 1533,790 1488,746 1442,702 1396,657 1351,614 1305,571 1261,530 1217,489 1174,450 1133,413 1094,377 1057,343 1021,312 988,283 958,257 931,234 907,214 887,197 870,184 857,174 835,160 812,148 789,137 765,129 740,121 716,115 691,110 667,106 643,103 619,101 597,98 575,96 554,94 534,92 516,90 499,87 499,87"/>
<polygon class="pen1 brush2" points="330,302 317,304 301,305 284,305 265,304 245,303 223,301 201,298 178,295 154,291 131,287 107,282 84,276 61,270 40,263 19,256 0,249 1,249 5,248 11,246 18,244 28,242 40,239 54,237 69,233 86,230 105,227 125,223 146,220 169,217 193,213 217,211 243,208 330,302"/>
<polygon class="pen1 brush0" points="481,260 489,259 497,257 504,253 510,248 515,243 519,236 521,229 522,221 521,213 519,205 515,198 510,191 504,186 497,182 489,180 481,179 473,180 465,182 458,186 451,191 446,198 442,205 440,213 439,221 440,229 442,236 446,243 451,248 458,253 465,257 473,259 481,260"/>
<polygon class="pen1 brush0" points="773,593 762,599 749,607 736,617 724,629 712,642 701,657 692,674 685,692 681,712 681,733 685,755 693,778 706,803 725,829 750,856 782,884 800,898 820,911 842,923 864,935 888,945 913,955 939,965 965,973 993,981 1021,989 1049,995 1078,1002 1107,1007 1137,1012 1167,1017 1197,1021 1226,1024 1256,1028 1285,1030 1314,1033 1342,1035 1370,1036 1397,1037 1423,1038 1449,1039 1473,1039 1496,1039 1519,1039 1539,1039 1559,1038 1577,1038 1593,1037 1591,1037 1586,1038 1578,1039 1567,1040 1552,1041 1536,1043 1516,1044 1495,1046 1471,1047 1446,1049 1418,1050 1389,1050 1359,1051 1327,1051 1294,1050 1261,1049 1227,1047 1192,1044 1157,1041 1121,1037 1086,1031 1051,1025 1016,1018 982,1009 948,999 915,988 884,976 854,962 825,947 797,930 772,911 748,891 708,850 679,813 659,780 649,749 645,722 648,697 656,676 669,657 684,641 700,628 718,617 735,608 750,601 762,597 770,594 773,593"/>
</g>
</svg>
