<?xml version="1.0" encoding="UTF-8" standalone="no"?>
<!DOCTYPE svg PUBLIC "-//W3C//DTD SVG 1.0//EN" "http://www.w3.org/TR/2001/REC-SVG-20010904/DTD/svg10.dtd">
<svg xmlns="http://www.w3.org/2000/svg" xmlns:xlink="http://www.w3.org/1999/xlink" fill-rule="evenodd" height="1.973in" preserveAspectRatio="none" stroke-linecap="round" viewBox="0 0 1342 1973" width="1.342in">
<style type="text/css">
.brush0 { fill: rgb(255,255,255); }
.pen0 { stroke: rgb(0,0,0); stroke-width: 1; stroke-linejoin: round; }
.brush1 { fill: none; }
.pen1 { stroke: none; }
.brush2 { fill: rgb(0,0,0); }
</style>
<g>
<polygon class="pen1 brush2" points="858,1070 917,1070 991,1355 802,1782 815,1785 829,1788 844,1791 860,1794 876,1797 892,1800 908,1803 924,1806 938,1809 952,1812 964,1814 975,1817 984,1819 990,1821 994,1823 995,1824 789,1828 539,1973 698,1838 457,1885 460,1882 466,1878 477,1874 490,1868 505,1863 523,1857 541,1850 560,1844 579,1838 597,1832 613,1827 628,1822 639,1818 648,1815 652,1812 652,1811 639,1810 624,1808 608,1806 592,1803 575,1801 558,1798 541,1796 525,1793 510,1791 496,1788 483,1786 473,1783 465,1781 460,1780 457,1778 458,1777 461,1777 470,1778 483,1779 500,1779 521,1780 544,1781 569,1781 596,1781 622,1780 649,1778 674,1776 698,1773 719,1768 737,1763 751,1756 760,1747 771,1731 783,1709 796,1684 810,1655 825,1624 840,1591 855,1558 870,1524 884,1491 897,1460 909,1431 919,1406 928,1385 934,1369 939,1359 940,1355 858,1070 858,1070"/>
<polygon class="pen1 brush2" points="336,713 337,694 340,675 345,656 352,639 351,654 352,670 354,686 358,702 362,718 369,732 377,745 387,756 386,738 388,724 391,716 392,713 396,723 403,732 410,740 419,747 426,752 433,756 437,759 439,760 436,733 440,719 444,714 447,713 480,750 514,784 546,816 579,846 610,873 641,898 672,922 702,943 731,962 760,980 787,996 814,1010 840,1023 865,1034 889,1044 913,1053 935,1060 956,1067 976,1072 994,1076 1012,1080 1028,1083 1043,1085 1056,1086 1068,1088 1079,1088 1088,1088 1095,1089 1101,1088 1106,1088 1108,1088 1109,1088 1100,1076 1089,1065 1078,1052 1065,1040 1052,1027 1038,1013 1024,999 1008,984 992,968 976,950 958,932 941,912 922,891 904,868 885,844 865,818 842,782 822,743 805,701 791,658 781,613 774,568 771,525 772,483 780,539 794,590 812,638 834,682 860,724 888,763 918,800 950,835 982,870 1014,904 1045,938 1074,973 1101,1008 1125,1045 1146,1084 1162,1125 1176,1164 1188,1183 1197,1187 1204,1179 1209,1165 1212,1150 1213,1137 1214,1132 1224,1194 1233,1232 1241,1249 1249,1251 1256,1240 1263,1220 1270,1196 1277,1170 1278,1178 1280,1199 1283,1227 1288,1258 1293,1285 1299,1302 1305,1305 1312,1288 1322,1240 1329,1191 1333,1143 1335,1096 1334,1049 1331,1002 1325,956 1316,911 1310,884 1303,857 1295,831 1286,805 1277,779 1267,753 1256,728 1245,703 1232,679 1219,654 1205,630 1191,607 1176,584 1160,561 1143,539 1126,517 1108,496 1090,475 1071,455 1052,435 1032,416 1011,397 990,379 968,361 946,343 923,327 900,311 876,295 852,280 827,266 802,252 777,239 762,235 747,233 733,233 719,235 706,239 693,244 680,250 668,258 657,267 646,277 636,288 627,299 619,311 611,323 605,335 599,348 587,374 571,399 552,421 531,440 509,451 488,455 468,449 450,430 438,407 435,388 439,371 451,356 470,341 496,327 528,313 565,297 600,279 626,257 644,233 656,207 663,181 665,156 665,134 663,114 665,115 671,117 679,120 690,125 727,140 759,147 784,147 805,142 820,134 830,127 836,121 838,118 827,119 815,119 803,118 791,116 779,114 766,110 754,107 742,103 730,98 719,93 708,88 698,83 690,78 682,72 675,67 670,62 653,45 635,32 616,21 597,13 576,7 556,4 535,3 514,3 499,4 484,6 469,8 455,11 441,15 427,18 414,22 402,26 391,30 380,34 370,38 361,42 353,45 346,47 340,50 336,51 326,55 318,61 312,69 307,77 305,85 303,92 302,96 302,98 0,294 325,187 333,190 347,193 366,195 388,195 411,192 435,186 458,176 478,161 495,147 509,139 522,137 533,137 541,140 547,144 551,148 552,149 552,151 553,158 554,167 554,177 551,188 546,198 538,207 525,212 497,218 472,226 450,236 431,245 416,253 405,260 398,265 396,267 355,305 326,353 307,406 297,459 293,509 293,550 294,578 295,588 300,564 308,551 315,545 318,544 315,565 313,586 314,608 316,630 319,651 324,673 330,693 336,713"/>
<polygon class="pen1 brush0" points="403,115 411,113 418,109 422,102 424,94 422,85 418,78 411,73 403,71 394,73 387,78 382,85 380,94 382,102 387,109 394,113 403,115"/>
</g>
</svg>
