<?xml version="1.0" encoding="UTF-8" standalone="no"?>
<!DOCTYPE svg PUBLIC "-//W3C//DTD SVG 1.0//EN" "http://www.w3.org/TR/2001/REC-SVG-20010904/DTD/svg10.dtd">
<svg xmlns="http://www.w3.org/2000/svg" xmlns:xlink="http://www.w3.org/1999/xlink" fill-rule="evenodd" height="1.376in" preserveAspectRatio="none" stroke-linecap="round" viewBox="0 0 1980 1376" width="1.98in">
<style type="text/css">
.brush0 { fill: rgb(255,255,255); }
.pen0 { stroke: rgb(0,0,0); stroke-width: 1; stroke-linejoin: round; }
.brush1 { fill: none; }
.pen1 { stroke: none; }
.brush2 { fill: rgb(0,0,0); }
</style>
<g>
<polygon class="pen1 brush2" points="149,149 150,149 152,147 156,145 162,143 170,140 180,137 192,133 207,130 224,127 244,124 268,122 294,120 323,119 356,118 392,119 432,121 438,121 446,120 456,119 468,117 481,115 496,113 512,110 530,107 550,104 571,102 594,99 618,96 643,94 670,92 698,91 728,90 759,90 791,90 824,92 859,94 894,97 931,101 969,107 1008,114 1048,122 1089,131 1131,142 1174,155 1218,169 1263,185 1309,203 1355,223 1359,222 1373,221 1395,220 1425,219 1461,218 1503,217 1549,216 1598,214 1649,213 1702,211 1754,209 1806,206 1855,204 1901,201 1943,198 1980,195 1977,203 1972,229 1967,269 1961,317 1956,371 1951,424 1948,474 1947,514 1943,511 1931,506 1913,499 1888,489 1857,479 1822,467 1782,455 1738,442 1692,430 1643,418 1592,408 1540,398 1487,391 1435,385 1384,382 1334,382 1331,382 1322,385 1309,389 1292,395 1270,403 1246,412 1219,422 1190,433 1160,444 1128,456 1095,467 1062,479 1030,490 998,501 968,511 940,520 944,513 951,492 955,453 949,395 949,398 949,406 949,419 947,435 944,454 939,474 932,494 922,514 916,512 909,510 903,508 897,506 890,504 884,503 877,501 871,500 870,501 869,503 867,504 866,506 873,508 880,510 887,512 893,514 900,516 907,518 913,521 920,523 919,529 918,536 915,544 912,553 908,562 902,570 896,578 888,585 881,582 873,579 866,576 858,572 851,569 843,566 836,563 828,560 827,562 826,563 824,565 822,567 830,570 838,573 846,576 854,579 862,582 870,586 877,589 885,593 884,599 883,608 881,617 877,627 871,638 862,647 851,656 835,662 835,658 828,652 822,645 815,639 808,633 800,626 793,620 785,614 777,608 776,609 774,610 773,611 771,612 779,619 787,626 795,633 803,640 811,647 819,654 827,661 834,669 832,674 829,681 824,687 819,694 811,701 801,707 789,712 774,716 768,706 762,696 755,687 749,678 742,669 735,659 728,650 721,641 719,643 718,644 716,645 713,645 721,655 729,665 736,675 744,685 751,695 758,705 764,716 771,726 769,731 766,737 762,743 756,749 749,754 739,759 728,763 714,766 710,753 705,739 700,726 695,714 689,701 683,689 678,677 672,665 671,665 670,665 668,665 667,665 666,666 666,666 666,666 665,666 671,679 676,692 682,705 688,718 693,731 698,744 703,758 707,771 704,775 701,780 695,786 688,791 679,795 669,799 656,801 642,801 640,770 637,739 631,707 625,675 624,675 623,675 622,675 621,675 620,675 619,675 618,675 616,675 622,707 628,738 632,769 635,800 635,800 634,802 634,809 634,820 633,834 632,848 631,862 630,877 628,891 624,909 620,925 614,938 607,949 598,958 588,964 576,968 562,969 562,973 561,984 558,1000 553,1018 545,1037 532,1053 514,1064 491,1068 491,1072 489,1081 486,1095 479,1110 470,1125 456,1139 437,1148 412,1152 409,1157 401,1170 388,1186 374,1204 357,1218 341,1226 326,1224 314,1208 311,1213 304,1226 294,1242 281,1259 265,1273 249,1280 233,1277 217,1260 214,1265 206,1277 193,1293 179,1309 164,1322 150,1329 137,1325 129,1307 123,1266 118,1200 115,1117 115,1025 116,932 120,846 128,774 139,726 153,695 170,666 189,639 210,614 232,590 255,567 279,544 303,521 326,497 349,473 371,448 391,421 409,392 424,360 437,326 446,289 445,293 441,304 434,319 426,338 414,358 401,377 386,393 369,405 367,405 362,404 353,402 342,400 329,397 314,394 297,389 280,384 261,378 243,371 224,363 207,354 190,344 174,332 161,320 149,307 150,305 153,297 157,285 161,268 163,246 162,219 158,187 149,149 149,149"/>
<polygon class="pen1 brush2" points="145,256 128,259 111,262 94,266 76,269 58,274 41,278 24,283 7,289 12,289 25,291 44,293 67,295 90,297 111,299 128,300 139,301 141,290 143,278 144,267 145,256 145,256"/>
<polygon class="pen1 brush2" points="133,155 91,180 59,204 36,224 19,242 9,257 3,268 1,275 0,277 0,277 18,271 36,265 54,260 72,255 90,250 108,246 126,242 145,239 143,206 139,179 135,162 133,155"/>
<polygon class="pen1 brush0" points="284,233 294,231 302,225 307,217 309,206 307,196 302,188 294,183 284,181 273,183 265,188 259,196 257,206 259,217 265,225 273,231 284,233"/>
</g>
</svg>
