<?xml version="1.0" encoding="UTF-8" standalone="no"?>
<!DOCTYPE svg PUBLIC "-//W3C//DTD SVG 1.0//EN" "http://www.w3.org/TR/2001/REC-SVG-20010904/DTD/svg10.dtd">
<svg xmlns="http://www.w3.org/2000/svg" xmlns:xlink="http://www.w3.org/1999/xlink" fill-rule="evenodd" height="1.983in" preserveAspectRatio="none" stroke-linecap="round" viewBox="0 0 1446 1983" width="1.446in">
<style type="text/css">
.brush0 { fill: rgb(255,255,255); }
.pen0 { stroke: rgb(0,0,0); stroke-width: 1; stroke-linejoin: round; }
.brush1 { fill: none; }
.pen1 { stroke: none; }
.brush2 { fill: rgb(0,0,0); }
</style>
<g>
<polygon class="pen1 brush2" points="168,0 182,7 196,13 209,19 222,25 235,30 247,34 260,39 273,43 287,47 302,50 317,53 333,56 350,59 369,62 389,65 411,67 435,69 459,71 485,74 511,78 537,84 562,91 588,101 612,113 634,129 655,149 674,172 691,200 705,233 715,271 723,314 726,364 785,419 840,476 890,535 935,597 977,661 1015,726 1050,794 1081,863 1108,933 1133,1005 1155,1079 1175,1153 1192,1228 1207,1304 1221,1381 1232,1459 1236,1489 1240,1520 1244,1552 1248,1583 1253,1614 1260,1645 1267,1674 1277,1703 1288,1730 1302,1755 1318,1779 1337,1800 1359,1819 1384,1834 1413,1847 1446,1856 1445,1857 1442,1859 1436,1863 1429,1868 1419,1873 1408,1880 1395,1887 1380,1894 1363,1901 1344,1908 1324,1915 1303,1922 1279,1928 1255,1933 1228,1936 1201,1939 1186,1939 1171,1939 1155,1939 1139,1938 1123,1936 1107,1934 1090,1932 1073,1929 1056,1925 1038,1921 1021,1915 1003,1909 984,1903 966,1895 947,1887 928,1878 938,1891 945,1906 948,1923 948,1939 944,1955 937,1969 926,1978 911,1983 307,1983 312,1967 319,1953 329,1941 341,1931 354,1923 370,1916 386,1911 403,1907 420,1904 438,1902 455,1901 472,1900 488,1900 502,1900 516,1900 527,1900 549,1899 573,1896 595,1891 615,1883 628,1874 634,1863 631,1849 615,1834 601,1825 584,1816 563,1804 540,1791 514,1774 486,1753 456,1728 426,1698 395,1662 364,1619 334,1569 305,1512 277,1446 251,1370 228,1285 208,1189 185,1038 175,911 175,805 183,717 198,647 217,590 238,545 259,509 265,491 270,468 274,441 276,410 274,378 269,343 257,307 240,270 215,226 193,187 174,154 159,124 146,97 135,73 127,50 120,27 240,121 168,0 168,0"/>
<polygon class="pen1 brush2" points="134,1036 93,1124 67,1215 53,1304 49,1387 51,1460 56,1517 62,1554 64,1568 69,1542 84,1512 106,1480 132,1449 159,1422 184,1400 204,1387 215,1385 199,1347 185,1297 172,1241 160,1183 150,1128 142,1082 137,1050 134,1036"/>
<polygon class="pen1 brush0" points="469,230 476,229 483,227 489,224 494,220 498,215 501,209 502,203 503,196 502,189 501,182 498,176 494,171 489,167 483,164 476,162 469,161 462,162 455,164 449,167 445,171 440,176 438,182 436,189 435,196 436,203 438,209 440,215 445,220 449,224 455,227 462,229 469,230"/>
<polygon class="pen1 brush0" points="899,1973 918,1968 930,1959 937,1947 938,1933 936,1918 931,1902 923,1887 914,1873 951,1841 984,1807 1014,1771 1040,1734 1061,1695 1079,1654 1092,1611 1101,1565 1105,1517 1103,1466 1097,1412 1084,1355 1066,1295 1043,1231 1012,1165 976,1094 957,1123 938,1163 921,1214 908,1279 900,1358 899,1454 907,1567 925,1699 921,1696 908,1686 890,1670 867,1646 840,1614 812,1574 783,1526 755,1469 730,1403 708,1328 693,1242 684,1146 684,1040 694,922 715,793 749,652 736,621 720,593 704,567 685,543 664,522 642,504 617,489 591,476 562,466 531,458 498,454 463,453 426,455 386,460 344,468 300,480 292,494 282,510 271,528 258,548 246,572 233,599 221,630 210,666 201,707 193,754 188,808 186,868 188,936 194,1011 204,1096 219,1189 239,1282 262,1365 287,1439 314,1504 343,1560 373,1610 403,1652 433,1688 463,1718 492,1743 519,1764 545,1781 568,1795 588,1806 605,1816 618,1824 631,1835 640,1845 645,1855 647,1863 645,1871 641,1878 635,1884 627,1890 618,1895 607,1899 595,1902 583,1905 570,1907 558,1909 547,1910 536,1910 525,1910 512,1910 498,1909 483,1909 467,1909 450,1910 434,1911 417,1913 401,1915 386,1919 371,1924 358,1930 346,1938 337,1947 329,1958 324,1971 408,1971 421,1927 432,1936 432,1971 459,1971 472,1927 483,1936 483,1971 899,1973"/>
</g>
</svg>
