<?xml version="1.0" encoding="UTF-8" standalone="no"?>
<!DOCTYPE svg PUBLIC "-//W3C//DTD SVG 1.0//EN" "http://www.w3.org/TR/2001/REC-SVG-20010904/DTD/svg10.dtd">
<svg xmlns="http://www.w3.org/2000/svg" xmlns:xlink="http://www.w3.org/1999/xlink" fill-rule="evenodd" height="0.858in" preserveAspectRatio="none" stroke-linecap="round" viewBox="0 0 1987 858" width="1.987in">
<style type="text/css">
.brush0 { fill: rgb(255,255,255); }
.pen0 { stroke: rgb(0,0,0); stroke-width: 1; stroke-linejoin: round; }
.brush1 { fill: none; }
.pen1 { stroke: none; }
.brush2 { fill: rgb(0,0,0); }
</style>
<g>
<polygon class="pen1 brush2" points="0,338 1,337 4,334 10,330 17,323 26,316 38,307 51,297 66,285 83,273 102,260 123,246 145,231 169,216 195,201 222,186 251,170 281,154 313,139 347,123 381,109 417,94 455,81 493,68 533,56 574,45 617,35 660,26 704,19 750,14 796,10 844,7 892,7 916,8 940,9 964,10 988,12 1013,15 1038,18 1063,22 1088,26 1113,31 1139,36 1164,42 1190,49 1216,57 1242,65 1268,74 1295,83 1321,93 1348,104 1374,116 1401,128 1428,141 1455,155 1482,170 1509,186 1537,202 1564,220 1592,238 1619,257 1647,277 1674,298 1702,319 1730,342 1732,343 1738,346 1747,351 1759,357 1774,366 1791,376 1809,388 1829,401 1850,415 1871,431 1893,448 1914,467 1934,486 1954,507 1971,529 1987,551 1987,551 1985,553 1983,555 1980,558 1975,563 1969,568 1962,574 1953,581 1952,580 1948,577 1943,573 1935,568 1925,562 1913,554 1898,547 1882,538 1864,530 1844,521 1823,513 1799,505 1774,498 1748,492 1720,487 1690,483 1683,498 1676,512 1667,528 1658,543 1648,559 1638,574 1626,590 1613,606 1599,622 1584,638 1568,653 1551,669 1533,684 1514,699 1493,714 1471,728 1448,742 1423,755 1398,768 1370,780 1341,791 1311,802 1279,812 1246,821 1211,829 1174,837 1136,843 1096,848 1054,852 1011,855 965,857 918,858 846,857 778,852 714,845 653,836 595,824 541,810 490,794 443,777 398,758 356,737 318,716 282,693 248,670 218,646 190,622 164,598 140,574 119,550 100,526 83,503 68,480 54,459 43,438 33,419 24,402 17,386 12,372 7,360 4,351 2,344 0,339 0,338"/>
<polygon class="pen1 brush0" points="37,344 40,345 47,348 60,353 77,359 99,366 126,375 156,384 191,394 229,405 271,416 316,428 365,439 416,450 471,460 528,470 587,479 649,487 713,494 779,499 846,503 915,505 985,505 1057,502 1129,498 1202,490 1276,480 1350,467 1425,451 1499,431 1573,408 1647,381 1720,350 1722,351 1728,354 1737,358 1749,365 1763,373 1779,382 1798,393 1817,406 1838,420 1859,435 1880,451 1901,469 1921,488 1940,508 1957,528 1973,550 1974,550 1973,551 1967,556 1953,567 1950,565 1944,560 1933,554 1920,545 1902,536 1882,525 1859,515 1832,504 1803,494 1772,484 1738,476 1702,470 1664,467 1624,465 1583,467 1540,473 1516,477 1491,481 1464,486 1435,491 1405,496 1373,501 1339,506 1304,510 1267,515 1228,519 1188,523 1147,527 1104,529 1060,532 1014,534 967,534 918,535 869,534 818,532 765,529 712,525 657,520 601,514 545,506 486,497 427,486 367,474 306,460 243,444 180,427 116,407 51,386 37,344"/>
<polygon class="pen1 brush0" points="1487,303 1484,313 1420,331 1357,346 1295,359 1235,370 1176,379 1118,385 1061,390 1006,393 953,395 901,395 851,393 803,391 756,387 711,382 669,376 628,370 589,363 552,355 517,347 485,339 455,331 427,322 401,314 378,306 357,298 339,291 324,284 311,278 301,273 294,269 289,266 288,264 290,254 291,255 296,256 303,259 313,263 326,268 341,274 359,280 380,287 403,294 429,301 457,309 487,316 519,324 554,331 591,338 630,345 671,351 714,357 758,361 805,365 853,368 904,370 955,371 1009,370 1064,368 1120,364 1178,359 1237,352 1298,343 1360,332 1423,318 1487,303"/>
</g>
</svg>
