<?xml version="1.0" encoding="UTF-8" standalone="no"?>
<!DOCTYPE svg PUBLIC "-//W3C//DTD SVG 1.0//EN" "http://www.w3.org/TR/2001/REC-SVG-20010904/DTD/svg10.dtd">
<svg xmlns="http://www.w3.org/2000/svg" xmlns:xlink="http://www.w3.org/1999/xlink" fill-rule="evenodd" height="2.008in" preserveAspectRatio="none" stroke-linecap="round" viewBox="0 0 1936 2008" width="1.936in">
<style type="text/css">
.brush0 { fill: rgb(255,255,255); }
.pen0 { stroke: rgb(0,0,0); stroke-width: 1; stroke-linejoin: round; }
.brush1 { fill: none; }
.pen1 { stroke: none; }
.brush2 { fill: rgb(0,0,0); }
</style>
<g>
<polygon class="pen1 brush2" points="1406,1226 1394,1229 1380,1232 1366,1235 1350,1238 1333,1241 1316,1244 1297,1247 1278,1250 1258,1253 1237,1255 1216,1258 1194,1260 1172,1261 1149,1262 1125,1263 1102,1264 1078,1264 1054,1263 1029,1262 1005,1260 981,1258 956,1255 932,1251 908,1246 884,1241 860,1235 837,1228 814,1220 791,1211 769,1202 748,1191 727,1179 716,1257 704,1335 692,1413 678,1491 664,1568 650,1645 636,1722 622,1797 619,1811 615,1824 610,1837 606,1850 601,1863 597,1876 594,1889 592,1902 608,1902 611,1886 615,1871 619,1857 624,1844 630,1832 635,1822 641,1812 646,1804 683,1787 700,1839 740,1792 745,1797 747,1819 745,1853 737,1893 722,1934 698,1969 663,1993 616,2001 593,1997 572,1989 552,1974 534,1954 519,1928 505,1894 494,1854 485,1806 478,1750 473,1685 472,1611 473,1528 477,1435 483,1332 493,1218 506,1093 503,1091 492,1091 473,1092 449,1091 420,1087 388,1079 354,1065 320,1042 287,1011 257,969 231,914 210,845 196,760 190,658 194,537 209,395 207,392 200,385 191,374 179,358 166,339 153,317 141,293 131,266 125,244 121,221 120,198 123,175 129,151 139,127 153,104 173,81 180,75 188,69 197,64 206,61 216,59 227,59 238,62 250,66 258,69 266,74 274,79 283,85 292,93 301,101 310,110 319,121 320,120 325,117 332,112 342,107 354,101 369,94 386,87 406,81 427,76 451,72 476,70 503,70 532,72 563,77 595,86 628,98 629,96 633,91 639,82 646,72 656,61 667,49 679,37 693,26 702,20 712,15 721,11 731,8 742,7 752,7 763,8 774,12 797,29 811,55 819,87 822,121 821,154 818,182 815,202 814,209 828,204 842,199 858,195 876,191 894,187 913,185 934,185 955,186 978,190 1002,196 1026,205 1052,217 1078,234 1105,254 1133,278 1162,307 1164,307 1168,308 1175,310 1185,312 1198,315 1212,319 1229,323 1248,328 1268,334 1291,340 1314,348 1339,356 1366,364 1393,374 1421,384 1450,395 1479,407 1509,420 1539,433 1569,447 1598,463 1628,479 1657,496 1686,513 1713,532 1740,551 1766,572 1790,593 1813,616 1835,639 1854,663 1872,688 1887,712 1899,736 1910,762 1919,788 1925,815 1929,843 1931,872 1930,902 1916,1049 1902,1171 1888,1271 1874,1350 1862,1413 1854,1462 1848,1500 1848,1530 1852,1563 1857,1608 1863,1660 1868,1717 1871,1774 1872,1826 1869,1870 1861,1902 1850,1924 1838,1942 1826,1957 1813,1969 1801,1980 1788,1989 1774,1998 1761,2006 1727,1942 1673,2001 1645,1937 1569,1988 1568,1988 1566,1986 1563,1984 1560,1980 1557,1975 1555,1969 1554,1961 1555,1952 1557,1941 1563,1928 1572,1914 1584,1898 1600,1880 1621,1860 1647,1838 1679,1814 1676,1811 1670,1802 1661,1786 1653,1760 1647,1724 1645,1676 1650,1615 1662,1540 1657,1536 1645,1519 1625,1491 1599,1453 1569,1406 1535,1354 1499,1296 1462,1236 1425,1174 1389,1111 1356,1051 1326,994 1301,942 1282,896 1270,859 1267,831 1267,835 1268,849 1271,875 1280,913 1296,966 1321,1034 1357,1121 1406,1226 1406,1226"/>
<polygon class="pen1 brush2" points="1426,1280 1412,1282 1397,1284 1382,1286 1366,1288 1350,1290 1334,1292 1317,1294 1300,1295 1282,1296 1264,1298 1246,1299 1227,1299 1209,1300 1190,1300 1171,1300 1152,1299 1168,1323 1182,1345 1195,1363 1206,1379 1215,1391 1221,1400 1226,1404 1227,1405 1214,1481 1210,1541 1212,1589 1218,1625 1226,1651 1235,1667 1241,1676 1244,1679 1212,1703 1186,1725 1165,1745 1148,1762 1136,1779 1127,1793 1122,1805 1119,1816 1118,1826 1119,1834 1121,1840 1124,1845 1127,1849 1130,1852 1132,1853 1133,1854 1210,1802 1239,1866 1291,1807 1325,1871 1338,1862 1352,1854 1365,1844 1378,1834 1390,1821 1402,1806 1414,1788 1425,1766 1433,1734 1436,1691 1435,1638 1432,1582 1427,1525 1421,1472 1416,1427 1412,1394 1412,1373 1415,1347 1419,1317 1426,1280 1426,1280"/>
<polygon class="pen1 brush2" points="207,1002 204,1011 195,1037 180,1077 162,1129 140,1191 116,1261 92,1336 69,1414 55,1468 42,1522 31,1574 22,1626 15,1675 12,1721 12,1763 16,1800 20,1819 25,1837 32,1853 41,1866 51,1877 64,1886 78,1892 94,1896 124,1898 150,1895 174,1888 194,1877 213,1864 228,1848 242,1830 253,1811 263,1792 270,1774 276,1756 281,1740 284,1727 286,1716 288,1709 288,1707 230,1724 224,1672 183,1679 178,1687 172,1697 166,1708 160,1720 154,1734 149,1749 145,1765 142,1783 125,1783 128,1766 132,1750 137,1736 142,1722 147,1710 153,1699 159,1689 165,1681 167,1676 173,1660 183,1635 196,1603 211,1565 229,1522 248,1476 268,1427 288,1378 308,1329 327,1283 345,1239 361,1201 375,1168 385,1143 392,1127 373,1120 356,1114 340,1107 326,1100 313,1093 301,1086 289,1079 279,1072 269,1064 260,1057 251,1049 242,1040 234,1031 225,1022 216,1012 207,1002"/>
<polygon class="pen1 brush0" points="294,159 286,174 278,188 270,203 261,218 253,233 246,248 239,264 233,281 230,276 222,263 212,244 202,220 194,194 192,168 197,143 212,122 231,110 248,107 262,112 274,122 283,134 289,146 293,155 294,159 294,159"/>
<polygon class="pen1 brush0" points="680,129 688,144 696,158 704,173 713,188 721,203 728,219 735,235 741,252 744,247 752,234 762,214 772,190 780,164 782,138 777,114 761,93 742,80 725,78 711,82 700,92 691,104 685,116 681,125 680,129"/>
<polygon class="pen1 brush0" points="611,833 611,846 609,864 603,884 593,904 577,923 555,939 524,949 483,952 438,946 403,933 377,916 358,897 345,877 337,858 333,843 331,833 611,833 611,833"/>
<polygon class="pen1 brush0" points="331,816 327,813 319,805 309,788 301,761 299,723 304,671 322,604 355,519 372,481 389,448 406,420 421,398 437,380 452,367 468,359 483,356 497,358 512,365 527,377 542,395 557,417 572,444 588,477 604,514 633,600 647,668 650,721 646,760 636,788 625,805 616,814 612,817 331,816"/>
<polygon class="pen1 brush0" points="371,345 378,344 384,342 390,339 395,335 400,330 403,324 405,317 406,310 405,303 403,297 400,291 395,286 390,282 384,279 378,277 371,276 364,277 357,279 351,282 346,286 341,291 338,297 336,303 335,310 336,317 338,324 341,330 346,335 351,339 357,342 364,344 371,345 371,345"/>
<polygon class="pen1 brush0" points="592,344 599,343 605,341 611,339 616,334 620,330 623,324 624,317 625,310 624,303 623,296 620,290 616,285 611,281 605,278 599,277 592,276 584,277 578,278 572,281 567,285 563,290 560,296 558,303 557,310 558,317 560,324 563,330 567,334 572,339 578,341 584,343 592,344"/>
<polygon class="pen1 brush2" points="444,543 454,539 462,530 467,515 469,497 467,479 462,465 454,456 444,452 435,456 428,465 422,479 420,497 422,515 428,530 435,539 444,543 444,543"/>
<polygon class="pen1 brush2" points="527,543 536,539 544,530 549,515 551,497 549,479 544,465 536,456 527,452 517,456 509,465 503,479 501,497 503,515 509,530 517,539 527,543"/>
</g>
</svg>
