<?xml version="1.0" encoding="UTF-8" standalone="no"?>
<!DOCTYPE svg PUBLIC "-//W3C//DTD SVG 1.0//EN" "http://www.w3.org/TR/2001/REC-SVG-20010904/DTD/svg10.dtd">
<svg xmlns="http://www.w3.org/2000/svg" xmlns:xlink="http://www.w3.org/1999/xlink" fill-rule="evenodd" height="1.369in" preserveAspectRatio="none" stroke-linecap="round" viewBox="0 0 1971 1369" width="1.971in">
<style type="text/css">
.brush0 { fill: rgb(255,255,255); }
.pen0 { stroke: rgb(0,0,0); stroke-width: 1; stroke-linejoin: round; }
.brush1 { fill: none; }
.pen1 { stroke: none; }
.brush2 { fill: rgb(0,0,0); }
</style>
<g>
<polygon class="pen1 brush2" points="1903,614 1971,628 1941,657 1968,685 1933,692 1957,726 1924,729 1947,770 1872,742 1867,747 1861,751 1856,754 1850,756 1845,757 1839,757 1834,757 1829,756 1820,751 1812,744 1807,734 1803,722 1801,708 1802,693 1804,677 1808,661 1814,645 1822,630 1831,618 1841,608 1851,600 1862,596 1873,594 1883,596 1889,599 1895,603 1899,608 1903,614 1903,614"/>
<polygon class="pen1 brush2" points="907,813 910,812 920,808 936,802 956,794 979,786 1006,776 1035,766 1065,756 1096,746 1126,737 1155,729 1182,722 1206,717 1226,715 1242,715 1252,718 1259,726 1268,742 1279,766 1291,796 1305,830 1318,869 1332,909 1345,951 1357,993 1367,1034 1376,1072 1382,1107 1385,1138 1385,1162 1381,1179 1373,1188 1368,1191 1365,1195 1361,1197 1355,1199 1414,1367 1400,1369 1341,1201 1325,1200 1309,1192 1293,1174 1277,1143 1261,1097 1245,1034 1228,950 1210,843 1207,845 1197,852 1182,861 1162,872 1139,884 1113,897 1085,908 1057,918 1029,924 1001,928 976,926 953,919 933,905 919,883 910,853 907,813 907,813"/>
<polygon class="pen1 brush2" points="592,742 596,764 602,782 608,797 616,808 625,816 636,821 650,822 666,819 701,811 727,808 744,809 756,813 762,821 766,830 768,840 771,850 775,861 778,875 783,889 788,902 794,914 802,924 812,930 825,932 889,1113 903,1110 839,932 852,927 859,919 862,907 861,890 857,870 850,844 842,813 832,777 825,760 814,746 800,736 783,728 764,724 744,721 723,720 702,721 681,723 661,726 642,730 626,733 612,736 601,739 594,741 592,742 592,742"/>
<polygon class="pen1 brush2" points="328,360 330,371 337,398 346,437 359,481 373,525 388,562 404,587 420,594 437,588 458,580 480,574 502,570 523,574 542,587 557,612 566,652 569,686 567,711 561,727 551,735 602,915 586,917 535,735 529,734 522,732 515,727 509,722 503,714 498,706 494,696 490,685 484,665 478,653 473,647 467,646 460,649 453,653 444,657 434,661 422,663 411,666 400,669 389,671 379,671 369,670 359,665 349,657 339,644 329,627 319,604 309,574 298,538 287,494 276,441 264,380 266,379 271,375 279,371 289,366 299,362 310,359 320,358 328,360 328,360"/>
<polygon class="pen1 brush2" points="163,312 201,306 210,444 163,312 163,312"/>
<polygon class="pen1 brush2" points="1907,516 1896,497 1886,479 1875,461 1864,443 1853,426 1841,410 1830,394 1818,378 1673,559 1649,537 1798,351 1787,338 1776,325 1765,312 1754,300 1743,288 1731,277 1720,265 1708,254 1696,243 1684,233 1672,222 1660,212 1647,203 1635,193 1623,184 1610,175 1470,431 1440,415 1582,157 1568,148 1555,140 1541,132 1527,124 1513,117 1499,109 1485,102 1471,96 1456,89 1442,83 1427,77 1412,71 1398,66 1383,60 1368,55 1353,50 1289,358 1257,351 1322,42 1305,37 1289,33 1272,29 1256,26 1239,22 1222,19 1205,17 1188,14 1172,12 1155,10 1138,8 1121,6 1104,5 1087,4 1071,3 1054,2 1015,327 983,323 1021,2 1005,2 989,2 973,2 957,2 942,3 926,4 910,5 895,6 879,7 864,8 848,10 833,11 817,13 802,15 787,17 772,19 772,319 740,319 740,23 711,28 683,33 656,39 629,45 603,51 577,57 552,64 528,70 504,77 482,83 460,90 439,96 418,103 399,109 381,115 363,121 357,103 347,86 334,72 319,59 302,48 284,40 266,34 248,30 236,29 223,29 211,30 198,32 186,35 173,40 161,46 149,53 134,63 121,72 108,80 96,89 84,97 74,105 64,113 55,121 41,134 30,146 21,159 14,172 10,185 8,199 9,213 12,228 16,239 22,249 28,258 35,265 43,271 52,275 62,279 74,282 87,284 101,286 117,287 135,288 154,288 176,288 199,289 225,289 232,289 239,288 246,288 253,287 259,285 266,284 272,281 278,279 311,316 346,353 383,389 421,423 460,457 500,491 541,523 583,554 626,585 668,615 711,645 754,674 796,702 838,729 879,756 920,782 936,776 956,768 979,760 1003,752 1030,744 1057,735 1085,727 1113,719 1140,712 1167,706 1191,701 1214,697 1233,694 1250,694 1262,695 1270,698 1278,709 1289,732 1302,763 1316,801 1331,844 1346,890 1360,936 1373,982 1431,988 1484,988 1534,984 1579,977 1621,966 1659,953 1693,938 1723,921 1750,905 1773,888 1792,872 1808,858 1820,845 1828,836 1833,829 1835,827 1805,798 1785,770 1773,742 1768,714 1770,688 1776,662 1787,637 1802,614 1818,593 1835,574 1853,558 1870,543 1885,532 1896,523 1904,518 1907,516 1907,516"/>
<polygon class="pen1 brush2" points="1208,948 1206,928 1204,910 1202,891 1198,867 1196,869 1192,872 1186,876 1179,881 1169,886 1157,892 1143,898 1127,905 1141,912 1152,918 1161,924 1169,929 1177,934 1186,938 1196,943 1208,948"/>
<polygon class="pen1 brush0" points="197,171 204,170 210,169 216,166 221,162 225,157 228,151 230,145 231,138 230,131 228,125 225,119 221,114 216,110 210,107 204,105 197,104 190,105 184,107 178,110 173,114 169,119 166,125 164,131 163,138 164,145 166,151 169,157 173,162 178,166 184,169 190,170 197,171"/>
</g>
</svg>
