<?xml version="1.0" encoding="UTF-8" standalone="no"?>
<!DOCTYPE svg PUBLIC "-//W3C//DTD SVG 1.0//EN" "http://www.w3.org/TR/2001/REC-SVG-20010904/DTD/svg10.dtd">
<svg xmlns="http://www.w3.org/2000/svg" xmlns:xlink="http://www.w3.org/1999/xlink" fill-rule="evenodd" height="1.472in" preserveAspectRatio="none" stroke-linecap="round" viewBox="0 0 1979 1472" width="1.979in">
<style type="text/css">
.brush0 { fill: rgb(255,255,255); }
.pen0 { stroke: rgb(0,0,0); stroke-width: 1; stroke-linejoin: round; }
.brush1 { fill: none; }
.pen1 { stroke: none; }
.brush2 { fill: rgb(0,0,0); }
</style>
<g>
<polygon class="pen1 brush2" points="1925,838 1921,859 1920,889 1920,927 1923,968 1928,1011 1938,1054 1952,1093 1971,1127 1966,1124 1954,1113 1937,1093 1918,1065 1901,1026 1889,976 1885,913 1892,838 1897,813 1902,788 1907,762 1911,736 1913,710 1913,685 1911,660 1905,637 1898,677 1890,718 1880,760 1868,802 1855,844 1841,884 1824,923 1806,958 1781,1003 1758,1050 1738,1101 1722,1155 1712,1212 1710,1274 1716,1341 1732,1412 1731,1414 1727,1421 1721,1430 1711,1441 1698,1452 1681,1462 1659,1469 1634,1472 1620,1472 1605,1470 1590,1467 1573,1463 1556,1457 1537,1450 1517,1440 1496,1429 1498,1421 1503,1399 1510,1365 1517,1322 1523,1272 1528,1218 1529,1162 1525,1107 1519,1093 1507,1076 1488,1054 1465,1029 1438,1001 1410,969 1382,933 1354,894 1329,851 1307,805 1290,755 1280,702 1277,645 1284,585 1301,522 1330,455 1299,492 1277,532 1262,573 1254,616 1252,659 1256,703 1265,748 1278,792 1295,835 1316,878 1339,919 1364,958 1390,995 1417,1030 1444,1062 1471,1090 1467,1090 1457,1091 1440,1092 1418,1094 1392,1096 1363,1097 1330,1098 1296,1099 1261,1100 1225,1099 1190,1098 1157,1096 1125,1093 1097,1088 1073,1082 1053,1074 1050,1083 1044,1109 1037,1148 1030,1196 1025,1249 1026,1304 1033,1357 1050,1404 1048,1406 1044,1410 1036,1417 1025,1425 1011,1433 995,1441 976,1447 954,1451 939,1452 924,1451 907,1449 891,1446 873,1440 855,1433 836,1424 816,1412 820,1403 829,1379 840,1341 851,1292 858,1235 857,1173 847,1108 823,1042 819,1036 812,1031 803,1025 792,1018 778,1011 762,1002 744,991 724,978 701,962 677,944 651,923 622,898 592,869 561,836 527,798 492,756 473,761 457,763 443,763 430,761 418,758 406,755 391,753 374,752 360,743 346,737 332,733 318,730 304,730 290,731 276,734 262,738 251,751 239,764 226,778 213,791 199,804 184,817 169,829 154,840 145,861 137,882 132,904 128,926 127,949 128,972 132,994 138,1016 148,1040 160,1062 174,1082 189,1100 206,1115 222,1128 238,1139 254,1147 268,1152 281,1154 292,1153 300,1149 305,1142 306,1131 303,1116 296,1098 295,1097 292,1093 290,1088 290,1082 294,1077 302,1073 317,1070 340,1070 342,1074 348,1085 355,1101 360,1121 363,1142 360,1163 349,1181 329,1196 315,1202 301,1207 287,1211 272,1213 256,1214 240,1213 224,1209 207,1203 189,1194 171,1181 152,1165 133,1145 113,1121 93,1092 72,1059 50,1020 35,989 24,956 16,922 11,887 9,852 11,816 15,779 22,743 29,712 38,682 49,652 60,622 73,592 87,564 102,535 118,508 135,481 153,456 171,431 189,408 208,386 228,366 247,347 266,330 268,325 270,316 274,304 278,290 284,274 291,256 301,239 312,221 326,204 342,188 361,175 384,163 409,156 439,151 472,152 509,157 511,155 516,150 525,143 536,133 549,122 565,110 581,97 599,84 617,71 635,60 652,50 669,42 684,37 698,35 710,36 719,42 727,53 735,72 742,96 749,125 754,158 757,194 759,232 757,270 753,309 745,347 733,383 717,416 696,445 670,469 638,488 600,499 629,499 655,496 678,489 700,479 719,465 735,449 750,429 762,407 771,383 778,356 784,328 786,297 787,265 786,231 782,197 776,161 782,160 790,157 800,154 811,150 824,145 839,139 855,132 873,125 892,118 912,110 934,103 957,95 981,88 1006,80 1033,73 1060,67 1086,61 1112,57 1139,52 1167,49 1195,46 1224,45 1254,44 1284,44 1314,46 1345,49 1376,54 1407,60 1438,67 1470,76 1501,87 1533,100 1552,109 1571,118 1591,128 1610,139 1629,151 1648,163 1667,177 1686,191 1705,206 1724,222 1743,239 1761,257 1780,276 1798,295 1816,316 1834,338 1877,397 1909,457 1933,519 1947,580 1953,643 1951,707 1942,772 1925,838 1925,838"/>
<polygon class="pen1 brush2" points="557,938 513,982 492,1031 490,1081 500,1129 518,1172 538,1207 554,1230 560,1239 552,1274 547,1303 546,1327 548,1346 553,1360 560,1370 569,1377 580,1381 591,1381 602,1380 615,1377 627,1373 640,1368 653,1362 666,1356 678,1349 690,1342 701,1336 711,1329 720,1323 727,1318 733,1314 738,1311 740,1310 735,1297 726,1274 716,1246 704,1214 692,1182 682,1153 675,1130 671,1115 674,1104 684,1092 699,1079 717,1066 735,1054 751,1044 762,1037 766,1035 754,1030 742,1023 730,1016 718,1008 706,1000 694,990 683,981 671,971 660,961 648,951 638,941 627,931 617,922 608,913 599,905 591,898 590,899 588,903 584,908 579,915 573,921 568,928 562,934 557,938 557,938"/>
<polygon class="pen1 brush2" points="1360,1131 1360,1132 1360,1138 1360,1152 1360,1178 1358,1198 1354,1224 1348,1253 1342,1283 1335,1310 1329,1333 1325,1348 1323,1354 1352,1374 1379,1387 1403,1394 1423,1397 1439,1396 1452,1394 1459,1392 1462,1391 1472,1367 1481,1335 1488,1300 1493,1263 1497,1227 1499,1194 1500,1167 1500,1148 1495,1122 1485,1113 1475,1113 1471,1114 1455,1118 1440,1122 1425,1125 1410,1127 1396,1129 1383,1130 1371,1131 1360,1131"/>
<polygon class="pen1 brush0" points="327,493 334,492 340,490 346,488 351,483 355,479 358,473 360,466 361,459 360,452 358,446 355,441 351,436 346,432 340,429 334,428 327,427 320,428 314,429 308,432 303,436 299,441 296,446 294,452 293,459 294,466 296,473 299,479 303,483 308,488 314,490 320,492 327,493"/>
<polygon class="pen1 brush0" points="242,604 253,604 263,603 273,604 282,605 290,609 297,616 304,626 311,640 309,642 305,649 298,660 288,673 276,690 261,707 245,727 227,746 208,766 187,785 165,803 142,819 119,832 95,842 71,848 47,850 49,849 53,845 60,839 69,831 79,821 92,809 105,796 120,781 134,766 149,749 164,732 179,715 192,697 205,679 216,661 225,644 232,631 237,618 241,608 242,604"/>
</g>
</svg>
