<?xml version="1.0" encoding="UTF-8" standalone="no"?>
<!DOCTYPE svg PUBLIC "-//W3C//DTD SVG 1.0//EN" "http://www.w3.org/TR/2001/REC-SVG-20010904/DTD/svg10.dtd">
<svg xmlns="http://www.w3.org/2000/svg" xmlns:xlink="http://www.w3.org/1999/xlink" fill-rule="evenodd" height="2.062in" preserveAspectRatio="none" stroke-linecap="round" viewBox="0 0 1635 2062" width="1.635in">
<style type="text/css">
.brush0 { fill: rgb(255,255,255); }
.pen0 { stroke: rgb(0,0,0); stroke-width: 1; stroke-linejoin: round; }
.brush1 { fill: none; }
.pen1 { stroke: none; }
.brush2 { fill: rgb(0,0,0); }
</style>
<g>
<polygon class="pen1 brush2" points="1056,1605 1021,1661 987,1619 979,1619 950,1661 923,1622 918,1622 888,1658 881,1610 876,1563 873,1515 872,1467 873,1420 877,1373 883,1326 891,1279 902,1233 916,1188 933,1143 952,1100 975,1057 1000,1015 1029,974 1061,935 1081,940 1100,945 1120,950 1139,955 1159,961 1178,968 1198,975 1217,982 1236,990 1254,998 1273,1007 1290,1017 1308,1028 1325,1039 1341,1051 1357,1064 1362,1058 1347,1045 1330,1033 1313,1021 1295,1010 1277,1000 1258,991 1238,982 1218,973 1198,966 1177,958 1157,952 1137,945 1116,940 1096,934 1076,930 1057,925 1027,960 999,997 973,1036 951,1077 930,1119 912,1162 897,1208 885,1254 875,1302 867,1351 863,1401 861,1453 862,1505 865,1559 872,1613 881,1668 888,1671 921,1631 946,1671 953,1671 983,1629 1019,1671 1027,1671 1057,1618 1063,1644 1069,1671 1076,1698 1084,1726 1093,1755 1102,1785 1113,1815 1125,1846 1123,1847 1116,1851 1107,1857 1094,1865 1079,1875 1062,1887 1045,1901 1026,1915 1008,1931 990,1948 974,1966 960,1985 948,2004 939,2023 933,2043 932,2062 665,2062 663,2059 660,2049 659,2034 661,2015 669,1994 687,1971 716,1947 760,1924 757,1920 749,1908 736,1890 720,1865 701,1834 681,1798 659,1757 638,1712 617,1663 598,1611 582,1557 569,1500 560,1443 557,1384 560,1325 570,1267 548,1239 528,1212 509,1185 491,1159 473,1133 457,1106 442,1080 427,1053 414,1026 401,998 389,970 377,941 367,911 357,880 347,848 338,815 339,840 344,870 352,903 362,937 373,972 384,1006 396,1037 406,1063 394,1087 380,1117 364,1154 347,1197 331,1244 315,1296 302,1352 291,1410 284,1471 282,1533 285,1596 294,1659 311,1722 336,1783 369,1843 413,1900 440,1849 470,1898 503,1846 537,1900 570,1846 572,1854 576,1874 578,1904 577,1938 568,1973 548,2004 516,2027 467,2039 436,2039 402,2034 366,2025 328,2011 290,1991 251,1966 213,1934 176,1897 141,1853 108,1802 79,1744 54,1679 33,1606 18,1525 8,1436 6,1338 11,1240 23,1149 42,1066 65,990 93,921 125,858 159,802 195,751 231,707 267,668 303,634 336,606 367,582 393,563 415,548 432,537 413,496 410,495 403,492 392,488 378,481 361,473 344,462 326,449 309,433 294,415 281,395 271,372 265,346 265,318 270,287 283,252 303,215 315,198 327,183 341,170 355,160 369,151 384,144 399,139 413,135 427,134 441,134 453,135 465,138 475,142 484,147 492,153 497,161 500,159 507,154 519,147 535,138 554,129 576,119 601,109 628,101 657,94 687,90 718,90 749,93 780,101 810,115 840,134 868,161 870,160 875,157 883,152 894,147 906,141 921,137 937,133 954,132 972,133 990,137 1009,146 1026,158 1043,177 1059,201 1073,231 1085,269 1094,308 1099,342 1099,371 1097,395 1091,416 1082,434 1072,448 1059,459 1046,468 1031,475 1016,480 1001,484 986,486 972,489 959,491 948,493 926,531 928,532 934,534 943,537 955,542 970,549 988,556 1008,565 1031,576 1055,588 1082,601 1109,616 1138,632 1168,650 1199,669 1230,690 1262,712 1293,735 1324,760 1355,786 1385,814 1414,843 1441,874 1468,906 1492,939 1515,974 1535,1011 1553,1049 1568,1088 1580,1129 1589,1171 1595,1215 1597,1260 1596,1261 1593,1264 1588,1269 1581,1274 1572,1281 1560,1287 1546,1292 1529,1297 1509,1301 1486,1302 1460,1301 1431,1297 1398,1290 1363,1279 1323,1263 1280,1243 1108,1163 1104,1169 1092,1189 1078,1222 1062,1270 1049,1331 1042,1407 1043,1498 1056,1605 1056,1605"/>
<polygon class="pen1 brush2" points="956,2062 1459,2062 1470,2054 1482,2043 1495,2029 1509,2014 1523,1996 1538,1976 1552,1953 1566,1929 1579,1904 1591,1877 1601,1848 1610,1818 1617,1786 1622,1754 1625,1720 1624,1686 1621,1652 1616,1620 1610,1589 1602,1560 1593,1532 1582,1506 1571,1482 1558,1459 1544,1438 1530,1419 1514,1401 1498,1384 1481,1369 1463,1356 1445,1344 1426,1334 1388,1315 1353,1298 1320,1282 1290,1267 1262,1254 1237,1242 1214,1231 1193,1222 1175,1214 1159,1207 1145,1201 1134,1197 1126,1193 1120,1191 1116,1189 1115,1189 1091,1235 1074,1284 1062,1337 1055,1391 1053,1446 1056,1501 1061,1554 1070,1604 1080,1651 1089,1691 1098,1724 1107,1752 1116,1778 1126,1803 1136,1829 1148,1858 1127,1866 1107,1876 1087,1888 1068,1900 1050,1914 1033,1928 1016,1943 1002,1958 989,1973 977,1988 968,2003 960,2017 955,2030 953,2042 953,2053 956,2062"/>
<polygon class="pen1 brush0" points="510,641 512,592 519,550 526,521 530,510 503,497 483,478 469,454 460,426 457,398 459,369 466,343 476,320 491,298 506,281 522,269 537,260 552,256 567,254 582,255 596,259 609,264 622,271 634,278 645,286 654,294 663,302 670,309 676,314 676,314 682,309 689,302 698,295 708,287 718,279 730,271 743,265 756,259 770,256 785,255 800,256 815,261 830,270 845,282 860,299 875,321 885,343 892,370 894,398 891,427 883,454 869,479 849,498 823,511 826,522 833,551 839,592 841,641 814,654 787,664 761,671 735,677 710,680 686,681 662,681 640,680 619,677 598,673 580,669 562,663 547,658 533,652 520,646 510,641 510,641"/>
<polygon class="pen1 brush0" points="662,817 692,817 732,809 764,796 789,779 809,758 823,734 833,708 838,681 841,654 814,667 787,677 761,684 735,690 710,693 686,694 662,694 640,693 619,690 598,686 580,682 562,676 547,671 533,665 520,659 510,654 513,681 519,708 529,734 544,758 564,779 590,796 622,809 662,817 662,817"/>
<polygon class="pen1 brush0" points="904,210 915,222 925,235 935,249 944,264 951,282 957,301 961,322 963,345 966,343 972,338 981,329 990,316 997,301 1001,283 1000,262 992,239 979,219 964,207 950,201 936,200 923,202 913,205 906,209 904,210 904,210"/>
<polygon class="pen1 brush0" points="466,210 464,209 457,205 447,202 434,200 420,201 406,207 391,219 378,239 369,262 368,283 372,301 379,316 388,329 397,338 403,343 406,345 408,322 412,301 418,282 426,264 435,249 445,235 455,222 466,210"/>
<polygon class="pen1 brush2" points="749,565 756,564 762,560 766,554 767,547 766,540 762,535 756,531 749,530 742,531 736,535 732,540 730,547 732,554 736,560 742,564 749,565 749,565"/>
<polygon class="pen1 brush2" points="611,567 618,565 624,561 628,555 629,548 628,541 624,535 618,531 611,530 604,531 599,535 595,541 594,548 595,555 599,561 604,565 611,567 611,567"/>
<polygon class="pen1 brush2" points="773,436 780,435 787,433 794,430 800,425 804,419 808,413 810,406 811,398 810,391 808,384 804,378 800,372 794,367 787,364 780,362 773,361 765,362 758,364 752,367 746,372 741,378 738,384 736,391 735,398 736,406 738,413 741,419 746,425 752,430 758,433 765,435 773,436 773,436"/>
<polygon class="pen1 brush2" points="581,439 588,438 595,436 601,433 607,428 612,422 615,416 617,409 618,402 617,394 615,386 612,380 607,374 601,370 595,367 588,365 581,364 574,365 567,367 560,370 555,374 550,380 546,386 544,394 543,402 544,409 546,416 550,422 555,428 560,433 567,436 574,438 581,439"/>
</g>
</svg>
