<?xml version="1.0" encoding="UTF-8" standalone="no"?>
<!DOCTYPE svg PUBLIC "-//W3C//DTD SVG 1.0//EN" "http://www.w3.org/TR/2001/REC-SVG-20010904/DTD/svg10.dtd">
<svg xmlns="http://www.w3.org/2000/svg" xmlns:xlink="http://www.w3.org/1999/xlink" fill-rule="evenodd" height="1.26in" preserveAspectRatio="none" stroke-linecap="round" viewBox="0 0 1990 1260" width="1.99in">
<style type="text/css">
.brush0 { fill: rgb(255,255,255); }
.pen0 { stroke: rgb(0,0,0); stroke-width: 1; stroke-linejoin: round; }
.brush1 { fill: none; }
.pen1 { stroke: none; }
.brush2 { fill: rgb(0,0,0); }
</style>
<g>
<polygon class="pen1 brush2" points="179,31 183,29 186,25 188,22 189,17 188,11 185,5 180,1 175,0 169,1 164,5 160,11 158,17 159,20 160,24 162,27 165,30 165,71 172,74 179,79 184,84 189,91 195,89 201,87 207,85 213,84 219,83 225,81 230,80 236,79 239,83 243,85 248,86 253,85 259,83 263,79 265,73 265,68 262,62 258,58 252,56 246,57 243,58 240,60 238,62 236,65 195,75 219,48 223,50 228,50 232,48 236,45 239,40 240,34 238,29 235,24 230,20 224,19 218,20 213,24 211,27 210,31 209,35 209,38 179,71 179,31 179,31"/>
<polygon class="pen1 brush2" points="449,1085 517,1123 438,1109 283,1119 414,1085 446,915 444,912 438,903 430,889 420,874 409,857 399,840 390,826 384,815 387,816 394,818 405,821 419,824 435,827 452,828 470,826 488,822 449,1085 449,1085"/>
<polygon class="pen1 brush2" points="132,179 120,176 109,172 100,167 92,161 86,153 82,145 79,135 78,123 79,112 82,102 87,94 94,87 102,82 112,78 123,76 135,75 148,77 160,81 171,89 181,98 190,110 198,123 206,137 212,152 218,172 222,199 226,233 228,270 227,309 224,347 218,384 208,415 209,417 212,422 218,428 228,435 242,442 262,447 287,448 320,446 340,444 363,441 389,439 418,437 450,436 483,436 518,437 554,439 591,443 628,449 665,457 701,468 737,482 771,498 804,518 834,542 863,568 893,596 922,624 952,653 983,683 1013,712 1044,740 1074,767 1105,793 1136,817 1167,839 1198,858 1230,874 1261,887 1292,896 1323,900 1355,902 1386,904 1418,905 1449,907 1480,908 1510,908 1540,909 1568,910 1596,911 1622,912 1646,913 1670,914 1691,916 1710,919 1728,922 1743,925 1780,932 1813,938 1842,944 1868,949 1890,955 1909,960 1925,966 1938,972 1949,978 1958,985 1966,993 1971,1002 1975,1013 1978,1024 1980,1037 1982,1052 1982,1068 1977,1083 1970,1099 1959,1114 1946,1128 1931,1142 1914,1155 1895,1168 1875,1179 1855,1190 1834,1199 1814,1207 1793,1213 1774,1218 1756,1222 1739,1223 1729,1224 1717,1226 1704,1227 1690,1228 1674,1229 1657,1230 1638,1230 1618,1230 1597,1230 1575,1229 1552,1228 1528,1227 1503,1224 1477,1221 1450,1217 1423,1213 1395,1207 1366,1201 1336,1194 1306,1186 1276,1176 1245,1166 1213,1154 1182,1141 1150,1127 1118,1112 1086,1095 1054,1077 1021,1057 989,1036 957,1013 925,988 925,985 925,977 925,964 925,946 923,925 920,900 916,873 910,844 901,813 890,782 876,750 858,718 837,686 813,656 784,628 750,602 752,604 757,608 765,616 775,627 787,642 800,659 813,679 828,701 841,727 854,755 866,786 876,820 883,856 888,895 889,936 887,980 886,977 883,968 879,955 872,939 864,922 855,903 843,885 830,869 830,875 829,893 828,919 825,951 819,987 811,1024 801,1060 786,1092 786,1085 786,1065 786,1035 784,999 781,960 776,920 769,883 759,852 759,855 758,865 755,879 751,897 744,919 735,944 722,970 706,997 706,994 707,984 708,969 708,950 708,927 707,901 704,874 699,845 692,816 683,788 670,762 655,738 635,717 612,700 584,688 551,682 555,684 565,689 580,697 597,709 615,724 633,742 648,764 658,790 654,791 644,793 628,796 607,800 581,803 551,806 519,807 484,807 447,805 409,800 372,791 334,779 298,763 264,741 233,715 205,682 204,682 202,683 198,685 193,686 187,686 179,685 171,683 161,679 161,680 159,682 157,685 154,688 149,691 143,693 136,694 128,692 124,690 120,686 114,680 108,673 101,664 94,654 87,643 80,631 87,634 94,636 101,637 109,638 116,637 122,636 129,634 134,631 137,629 139,626 142,624 144,621 150,626 157,629 164,632 172,633 179,633 187,631 193,629 199,625 205,618 209,610 211,603 212,595 211,600 208,605 205,610 201,615 195,619 187,621 180,622 172,622 164,621 157,619 150,616 144,611 142,614 140,616 137,619 135,621 128,625 121,627 112,629 104,628 96,627 87,624 80,620 73,615 73,615 68,603 64,590 60,578 57,565 57,565 58,566 59,567 60,568 67,573 74,577 82,580 91,581 99,582 107,580 114,578 121,574 123,572 126,569 128,567 130,564 136,569 143,572 150,574 158,575 165,575 173,574 179,572 185,568 191,561 195,554 197,546 198,538 196,543 194,548 190,552 186,557 180,561 173,564 166,565 158,565 150,564 143,562 136,559 130,554 128,556 126,559 123,562 121,564 114,568 107,571 99,572 91,572 82,570 74,568 67,563 60,558 58,556 57,554 55,553 53,551 52,540 51,529 50,517 50,504 52,506 54,507 55,509 57,511 64,516 71,521 79,523 88,525 96,525 104,524 111,521 118,517 121,515 123,512 125,509 127,506 133,511 140,515 147,517 155,518 163,518 170,517 178,514 184,510 189,504 193,496 195,488 195,480 194,485 191,490 188,495 184,500 178,504 170,507 163,508 155,508 147,507 140,505 133,501 127,496 125,499 124,502 121,505 118,507 112,511 105,513 97,514 88,514 80,513 72,510 64,506 57,500 55,499 54,497 52,496 50,494 52,478 55,463 59,447 65,431 72,415 81,398 91,382 103,366 106,358 113,338 122,309 131,275 139,242 143,212 141,189 132,179 132,179"/>
<polygon class="pen1 brush2" points="0,125 70,145 72,132 72,119 71,110 70,106 0,125"/>
<polygon class="pen1 brush0" points="127,132 132,131 137,128 140,124 141,119 140,113 137,109 132,106 127,105 121,106 117,109 114,113 113,119 114,124 117,128 121,131 127,132"/>
<polygon class="pen1 brush0" points="1726,1018 1738,1017 1750,1016 1760,1013 1769,1010 1777,1006 1782,1001 1786,996 1787,990 1786,984 1782,979 1777,974 1769,970 1760,967 1750,965 1738,964 1726,963 1714,964 1703,965 1693,967 1685,970 1677,974 1672,979 1668,984 1667,990 1668,996 1672,1001 1677,1006 1685,1010 1693,1013 1703,1016 1714,1017 1726,1018"/>
<polygon class="pen1 brush0" points="1275,994 1287,993 1299,992 1309,989 1318,985 1326,981 1331,976 1335,971 1336,966 1335,960 1331,955 1326,950 1318,945 1309,942 1299,939 1287,938 1275,937 1263,938 1252,939 1242,942 1233,945 1225,950 1220,955 1216,960 1215,966 1216,971 1220,976 1225,981 1233,985 1242,989 1252,992 1263,993 1275,994"/>
<polygon class="pen1 brush0" points="1615,1085 1627,1084 1638,1083 1648,1080 1657,1077 1665,1073 1670,1068 1674,1063 1675,1058 1674,1052 1670,1046 1665,1042 1657,1038 1648,1034 1638,1032 1627,1031 1615,1030 1603,1031 1592,1032 1582,1034 1574,1038 1566,1042 1561,1046 1557,1052 1556,1058 1557,1063 1561,1068 1566,1073 1574,1077 1582,1080 1592,1083 1603,1084 1615,1085"/>
<polygon class="pen1 brush0" points="1164,1061 1176,1060 1187,1059 1197,1056 1206,1053 1213,1048 1218,1044 1222,1039 1223,1033 1222,1027 1218,1022 1213,1017 1206,1012 1197,1009 1187,1006 1176,1005 1164,1004 1152,1005 1141,1006 1130,1009 1121,1012 1114,1017 1108,1022 1104,1027 1103,1033 1104,1039 1108,1044 1114,1048 1121,1053 1130,1056 1141,1059 1152,1060 1164,1061"/>
<polygon class="pen1 brush0" points="1887,1091 1899,1090 1910,1089 1920,1086 1929,1082 1936,1078 1941,1073 1945,1068 1946,1062 1945,1057 1941,1052 1936,1047 1929,1043 1920,1039 1910,1036 1899,1035 1887,1034 1875,1035 1863,1036 1853,1039 1844,1043 1836,1047 1831,1052 1827,1057 1826,1062 1827,1068 1831,1073 1836,1078 1844,1082 1853,1086 1863,1089 1875,1090 1887,1091"/>
<polygon class="pen1 brush0" points="1434,1065 1446,1064 1458,1063 1468,1061 1477,1057 1485,1054 1490,1049 1494,1044 1495,1038 1494,1032 1490,1027 1485,1023 1477,1018 1468,1015 1458,1012 1446,1011 1434,1010 1422,1011 1411,1012 1401,1015 1392,1018 1384,1023 1379,1027 1375,1032 1374,1038 1375,1044 1379,1049 1384,1054 1392,1057 1401,1061 1411,1063 1422,1064 1434,1065"/>
<polygon class="pen1 brush0" points="1534,998 1546,997 1557,996 1567,994 1576,990 1584,986 1589,982 1593,976 1594,970 1593,965 1589,960 1584,955 1576,951 1567,948 1557,945 1546,944 1534,943 1522,944 1511,945 1501,948 1493,951 1485,955 1480,960 1476,965 1475,970 1476,976 1480,982 1485,986 1493,990 1501,994 1511,996 1522,997 1534,998"/>
<polygon class="pen1 brush0" points="1529,1175 1541,1174 1553,1173 1563,1170 1572,1167 1580,1163 1585,1158 1589,1152 1590,1146 1589,1141 1585,1136 1580,1131 1572,1127 1563,1124 1553,1121 1541,1120 1529,1119 1517,1120 1506,1121 1496,1124 1487,1127 1479,1131 1474,1136 1470,1141 1469,1146 1470,1152 1474,1158 1479,1163 1487,1167 1496,1170 1506,1173 1517,1174 1529,1175"/>
<polygon class="pen1 brush0" points="1757,1146 1769,1145 1780,1144 1790,1142 1799,1138 1807,1135 1812,1130 1816,1125 1817,1119 1816,1113 1812,1108 1807,1104 1799,1099 1790,1096 1780,1093 1769,1092 1757,1091 1745,1092 1734,1093 1724,1096 1716,1099 1708,1104 1703,1108 1699,1113 1698,1119 1699,1125 1703,1130 1708,1135 1716,1138 1724,1142 1734,1144 1745,1145 1757,1146"/>
<polygon class="pen1 brush0" points="1306,1122 1318,1121 1329,1120 1339,1117 1348,1113 1355,1109 1360,1104 1364,1099 1365,1094 1364,1088 1360,1083 1355,1078 1348,1073 1339,1070 1329,1067 1318,1066 1306,1065 1294,1066 1283,1067 1273,1070 1264,1073 1256,1078 1251,1083 1247,1088 1246,1094 1247,1099 1251,1104 1256,1109 1264,1113 1273,1117 1283,1120 1294,1121 1306,1122"/>
<polygon class="pen1 brush2" points="1887,1051 1877,1052 1869,1055 1863,1058 1861,1062 1863,1067 1869,1071 1877,1074 1887,1075 1897,1074 1905,1071 1910,1067 1912,1062 1910,1058 1905,1055 1897,1052 1887,1051 1887,1051"/>
<polygon class="pen1 brush2" points="1759,1106 1748,1107 1740,1110 1734,1114 1732,1119 1734,1123 1740,1127 1748,1130 1759,1131 1769,1130 1776,1127 1781,1123 1783,1119 1781,1114 1776,1110 1769,1107 1759,1106 1759,1106"/>
<polygon class="pen1 brush2" points="1530,1135 1520,1136 1511,1138 1505,1141 1503,1146 1505,1151 1511,1155 1520,1158 1530,1159 1539,1158 1547,1155 1552,1151 1554,1146 1552,1141 1547,1138 1539,1136 1530,1135 1530,1135"/>
<polygon class="pen1 brush2" points="1728,979 1718,980 1709,982 1704,985 1702,990 1704,995 1709,999 1718,1002 1728,1003 1738,1002 1746,999 1751,995 1753,990 1751,985 1746,982 1738,980 1728,979 1728,979"/>
<polygon class="pen1 brush2" points="1615,1045 1605,1046 1597,1049 1592,1053 1590,1058 1592,1063 1597,1066 1605,1068 1615,1069 1626,1068 1634,1066 1639,1063 1641,1058 1639,1053 1634,1049 1626,1046 1615,1045 1615,1045"/>
<polygon class="pen1 brush2" points="1534,959 1524,960 1516,962 1511,966 1509,970 1511,975 1516,979 1524,982 1534,983 1545,982 1553,979 1558,975 1560,970 1558,966 1553,962 1545,960 1534,959 1534,959"/>
<polygon class="pen1 brush2" points="1435,1025 1425,1026 1416,1029 1410,1033 1408,1038 1410,1042 1416,1046 1425,1049 1435,1050 1445,1049 1453,1046 1459,1042 1461,1038 1459,1033 1453,1029 1445,1026 1435,1025 1435,1025"/>
<polygon class="pen1 brush2" points="1307,1081 1296,1082 1288,1084 1282,1089 1280,1094 1282,1099 1288,1102 1296,1104 1307,1105 1316,1104 1324,1102 1329,1099 1331,1094 1329,1089 1324,1084 1316,1082 1307,1081 1307,1081"/>
<polygon class="pen1 brush2" points="1164,1021 1154,1022 1146,1024 1140,1028 1138,1033 1140,1038 1146,1041 1154,1043 1164,1044 1174,1043 1182,1041 1187,1038 1189,1033 1187,1028 1182,1024 1174,1022 1164,1021 1164,1021"/>
<polygon class="pen1 brush2" points="1276,953 1266,954 1257,957 1251,961 1249,966 1251,971 1257,974 1266,976 1276,977 1286,976 1293,974 1298,971 1300,966 1298,961 1293,957 1286,954 1276,953"/>
</g>
</svg>
