<?xml version="1.0" encoding="UTF-8" standalone="no"?>
<!DOCTYPE svg PUBLIC "-//W3C//DTD SVG 1.0//EN" "http://www.w3.org/TR/2001/REC-SVG-20010904/DTD/svg10.dtd">
<svg xmlns="http://www.w3.org/2000/svg" xmlns:xlink="http://www.w3.org/1999/xlink" fill-rule="evenodd" height="0.962in" preserveAspectRatio="none" stroke-linecap="round" viewBox="0 0 1971 962" width="1.971in">
<style type="text/css">
.brush0 { fill: rgb(255,255,255); }
.pen0 { stroke: rgb(0,0,0); stroke-width: 1; stroke-linejoin: round; }
.brush1 { fill: none; }
.pen1 { stroke: none; }
.brush2 { fill: rgb(0,0,0); }
</style>
<g>
<polygon class="pen1 brush2" points="25,33 27,32 33,29 43,24 56,19 73,14 93,9 117,5 143,3 152,3 161,2 170,2 179,3 189,3 198,4 208,6 219,7 229,10 239,12 250,15 261,18 272,22 283,26 294,31 306,36 319,42 333,49 346,56 360,65 375,73 389,83 404,94 418,105 433,117 448,130 463,143 479,158 494,174 510,190 525,208 541,226 543,226 547,225 554,224 564,223 577,222 592,221 608,220 627,218 648,217 670,216 693,215 718,215 743,214 770,214 797,215 825,216 849,217 873,219 897,222 921,225 944,228 968,233 991,238 1014,243 1036,250 1058,257 1078,265 1098,274 1117,284 1135,295 1152,307 1167,320 1172,319 1186,318 1208,316 1238,314 1273,312 1314,311 1360,310 1408,310 1459,311 1511,314 1564,318 1616,325 1666,334 1714,345 1758,360 1798,378 1827,395 1853,414 1877,435 1898,456 1916,480 1931,503 1943,528 1953,553 1959,576 1962,599 1964,622 1963,645 1960,667 1955,689 1947,710 1937,730 1928,745 1918,759 1906,772 1893,785 1880,797 1865,809 1850,819 1833,829 1816,839 1798,848 1780,856 1761,864 1742,871 1722,878 1702,884 1681,890 1658,895 1635,900 1611,905 1588,908 1565,912 1543,914 1520,916 1499,918 1478,919 1457,920 1438,920 1419,920 1401,919 1385,918 1370,917 1356,915 1344,914 1331,912 1316,910 1299,908 1282,906 1263,903 1242,901 1221,899 1199,896 1176,894 1152,892 1128,890 1103,889 1078,888 1052,887 1027,886 1001,886 976,886 950,887 925,888 901,890 877,892 853,896 831,900 809,904 788,910 768,916 750,923 733,931 717,941 703,951 690,962 692,960 697,955 705,946 717,936 733,924 753,910 777,897 805,883 837,870 873,858 915,847 960,840 1011,835 1067,834 1127,836 1193,844 1260,852 1323,857 1383,859 1440,857 1493,853 1543,846 1588,837 1630,827 1668,814 1702,801 1732,786 1758,770 1780,754 1797,738 1810,721 1819,705 1828,672 1829,638 1823,603 1811,569 1791,537 1765,509 1732,485 1693,466 1672,460 1648,455 1621,451 1591,448 1559,446 1525,446 1490,446 1453,447 1416,449 1378,451 1340,454 1303,458 1267,462 1232,466 1198,471 1167,476 1151,478 1134,481 1116,484 1097,486 1076,489 1054,492 1032,495 1008,498 984,501 960,504 934,507 909,509 882,511 856,513 830,515 803,516 777,516 750,516 724,516 698,515 673,513 648,511 623,508 600,505 577,500 555,495 534,488 514,481 495,473 477,464 461,453 446,442 447,446 448,456 448,472 447,490 443,508 435,526 422,540 403,550 396,552 388,553 380,554 370,556 359,556 348,557 335,557 322,556 352,434 345,432 316,554 303,552 289,549 274,545 260,540 244,534 229,526 213,517 197,507 275,401 271,397 191,505 180,497 170,489 159,480 148,470 137,459 127,447 116,435 106,421 217,351 211,347 102,417 95,406 87,394 80,383 72,370 65,358 57,345 50,331 42,317 177,293 176,287 39,310 34,299 29,287 24,275 19,263 14,251 9,238 5,225 0,211 248,226 25,33 25,33"/>
<polygon class="pen1 brush2" points="487,486 491,515 487,545 478,575 466,602 454,626 442,645 433,658 430,662 438,672 448,679 459,685 470,688 481,690 490,692 496,692 498,692 525,649 542,613 552,584 556,561 557,545 555,533 552,527 551,525 487,486 487,486"/>
<polygon class="pen1 brush2" points="424,675 346,701 389,702 342,752 403,728 375,784 427,740 419,797 463,745 474,784 498,706 496,706 491,707 482,708 472,707 461,704 448,698 436,689 424,675 424,675"/>
<polygon class="pen1 brush2" points="1049,516 1046,552 1050,582 1061,608 1074,630 1089,647 1102,658 1111,666 1115,668 1124,668 1133,667 1141,664 1149,661 1155,657 1160,654 1163,652 1164,651 1154,631 1149,607 1147,581 1147,555 1149,532 1151,513 1153,500 1154,495 1137,499 1119,503 1101,507 1085,510 1070,513 1059,514 1052,516 1049,516 1049,516"/>
<polygon class="pen1 brush2" points="1099,675 1022,696 1064,698 1018,746 1079,723 1049,780 1102,736 1093,793 1137,740 1150,780 1171,669 1169,669 1165,672 1157,677 1148,682 1137,685 1125,686 1112,683 1099,675"/>
<polygon class="pen1 brush0" points="260,123 268,121 275,116 279,109 281,101 279,91 275,84 268,79 260,77 251,79 244,84 239,91 237,101 239,109 244,116 251,121 260,123"/>
</g>
</svg>
