<?xml version="1.0" encoding="UTF-8" standalone="no"?>
<!DOCTYPE svg PUBLIC "-//W3C//DTD SVG 1.0//EN" "http://www.w3.org/TR/2001/REC-SVG-20010904/DTD/svg10.dtd">
<svg xmlns="http://www.w3.org/2000/svg" xmlns:xlink="http://www.w3.org/1999/xlink" fill-rule="evenodd" height="1.149in" preserveAspectRatio="none" stroke-linecap="round" viewBox="0 0 1973 1149" width="1.973in">
<style type="text/css">
.brush0 { fill: rgb(255,255,255); }
.pen0 { stroke: rgb(0,0,0); stroke-width: 1; stroke-linejoin: round; }
.brush1 { fill: none; }
.pen1 { stroke: none; }
.brush2 { fill: rgb(0,0,0); }
</style>
<g>
<polygon class="pen1 brush2" points="1968,1071 1967,1072 1965,1073 1961,1076 1955,1078 1947,1081 1937,1083 1925,1085 1911,1085 1926,1052 1932,1032 1931,1023 1924,1023 1912,1031 1897,1043 1881,1059 1864,1076 1860,1075 1856,1074 1853,1073 1849,1071 1845,1070 1841,1068 1837,1067 1833,1065 1856,1020 1866,994 1865,982 1857,982 1843,992 1825,1007 1805,1026 1787,1045 1783,1042 1778,1039 1773,1037 1768,1034 1794,984 1806,954 1806,941 1798,941 1782,952 1763,969 1743,989 1725,1008 1720,1005 1715,1002 1709,998 1704,994 1726,941 1736,909 1736,895 1728,895 1715,906 1697,923 1679,945 1661,966 1658,963 1654,961 1650,959 1646,957 1642,955 1637,953 1632,952 1627,951 1635,901 1636,873 1632,863 1624,866 1613,881 1601,902 1588,926 1577,950 1572,951 1567,952 1563,953 1558,954 1553,955 1549,956 1544,957 1539,959 1523,910 1510,884 1501,876 1496,882 1492,899 1491,923 1491,950 1492,977 1487,979 1482,981 1477,983 1472,985 1467,988 1462,990 1457,993 1452,996 1428,954 1412,931 1402,925 1397,931 1397,947 1400,970 1405,995 1411,1021 1407,1023 1404,1026 1400,1028 1396,1031 1392,1033 1389,1036 1385,1038 1381,1041 1355,995 1338,971 1327,966 1323,974 1324,993 1327,1018 1333,1045 1339,1071 1335,1074 1330,1076 1326,1079 1321,1081 1317,1084 1312,1087 1307,1089 1302,1092 1280,1041 1264,1013 1254,1006 1249,1013 1248,1032 1249,1057 1252,1085 1256,1112 1250,1114 1245,1117 1239,1119 1233,1121 1227,1123 1221,1124 1214,1126 1208,1128 1198,1067 1188,1035 1180,1025 1173,1034 1167,1055 1163,1083 1159,1113 1157,1140 1152,1141 1147,1142 1142,1143 1137,1143 1132,1144 1127,1145 1122,1146 1117,1146 1111,1084 1105,1051 1098,1040 1090,1046 1083,1066 1076,1093 1069,1122 1064,1149 1057,1149 1051,1149 1044,1149 1037,1149 1031,1148 1024,1148 1017,1147 1010,1146 1027,1080 1032,1045 1027,1033 1016,1040 1001,1060 984,1086 968,1114 956,1136 949,1135 942,1133 934,1131 927,1128 952,1062 962,1026 959,1012 948,1017 930,1034 911,1058 892,1084 877,1105 873,1103 869,1101 865,1098 861,1096 857,1094 854,1091 850,1089 846,1086 867,1049 882,1020 892,998 898,982 900,972 898,967 893,967 886,971 877,977 866,986 855,997 843,1008 832,1020 821,1032 811,1042 803,1051 797,1044 791,1038 785,1031 779,1024 807,995 829,971 844,953 853,939 858,930 858,924 854,922 847,923 837,927 826,932 813,938 799,946 785,954 772,962 760,970 749,977 746,971 742,964 738,956 735,949 763,920 784,897 800,878 810,864 816,855 817,848 815,845 809,845 801,847 791,852 779,857 766,864 753,872 739,880 727,888 715,895 713,886 710,878 707,870 705,862 735,831 758,807 774,787 785,772 791,762 792,756 789,753 783,752 775,755 764,760 751,766 738,773 724,781 711,789 698,798 687,805 684,797 681,788 678,779 675,771 704,741 726,718 742,699 752,685 757,675 758,669 756,666 750,666 741,669 730,673 718,679 705,686 691,694 678,702 665,710 654,717 652,711 649,705 647,700 644,694 670,667 690,645 704,627 713,614 718,605 719,600 716,597 710,597 701,600 691,604 679,610 666,617 653,625 640,632 628,640 617,647 613,641 609,636 604,632 600,628 632,577 647,547 648,535 637,535 620,546 598,563 575,582 554,599 548,597 541,596 533,595 525,594 526,538 524,506 518,496 510,502 500,519 490,544 480,571 472,596 468,597 464,598 460,599 456,600 452,601 447,601 443,602 438,603 426,542 416,510 408,501 401,510 395,532 391,561 389,592 387,618 383,619 380,620 376,621 372,622 368,623 365,624 361,625 357,626 332,562 315,530 304,522 299,532 298,556 299,587 302,618 306,645 302,646 299,648 295,649 291,651 287,652 284,654 280,655 276,656 219,657 214,656 209,656 204,655 199,653 194,652 189,650 184,648 179,646 196,574 202,533 198,519 188,524 174,542 158,569 142,597 130,621 125,618 121,614 116,611 112,607 108,604 104,601 100,597 96,594 131,537 147,503 149,488 140,487 123,498 101,516 79,536 59,555 54,549 48,541 43,534 39,525 64,500 84,480 98,463 108,451 112,442 114,437 111,434 106,433 98,435 88,439 77,444 65,450 52,456 40,463 27,470 16,477 12,467 9,457 6,446 5,436 40,417 68,401 88,388 102,378 110,370 113,365 111,361 106,359 97,359 85,360 72,362 57,365 42,368 27,372 13,376 0,379 0,369 1,360 3,351 5,342 39,331 66,322 86,314 101,307 110,302 115,297 115,293 112,290 106,288 97,286 86,285 73,285 59,285 45,285 31,286 18,287 19,280 21,274 24,268 26,261 57,255 81,250 101,245 115,241 125,237 130,233 132,230 131,226 126,224 119,221 111,219 100,217 88,215 76,213 63,211 50,210 55,202 60,193 65,184 71,176 112,189 138,194 151,193 154,188 147,179 135,167 117,154 98,140 104,134 111,127 117,121 123,115 156,140 178,154 190,157 193,152 190,141 181,125 170,106 157,86 162,83 168,78 173,74 178,71 212,101 235,118 248,122 252,118 249,106 242,89 231,69 219,48 224,45 229,42 234,40 239,37 272,69 295,87 308,93 313,89 311,78 305,61 295,41 283,20 299,15 316,11 332,8 349,5 366,3 383,1 400,0 418,0 432,1 446,4 460,8 473,14 485,21 496,29 506,38 513,48 520,61 523,75 521,88 514,101 501,112 482,122 456,130 422,136 390,141 359,147 331,155 305,164 281,174 259,186 240,198 222,212 207,226 194,242 182,258 173,274 166,291 161,309 158,327 157,345 159,378 165,405 174,427 187,444 202,456 219,463 238,466 259,464 268,462 279,458 292,452 306,444 322,436 339,427 358,419 378,410 400,403 423,396 448,391 473,389 500,388 529,391 558,397 589,406 619,418 646,429 670,440 692,451 711,462 729,473 745,484 759,495 771,507 782,519 791,531 800,544 807,558 814,573 820,588 826,605 832,623 838,643 845,665 853,688 862,712 871,736 882,760 893,784 905,807 918,830 932,851 948,871 964,888 981,904 1000,916 1019,926 1038,933 1056,939 1072,944 1088,948 1102,951 1115,953 1127,954 1140,953 1151,952 1163,949 1175,945 1188,940 1201,934 1214,927 1229,919 1245,909 1262,898 1281,886 1302,874 1324,861 1348,848 1373,836 1400,824 1428,813 1456,804 1486,796 1517,791 1548,787 1580,787 1612,789 1644,795 1677,805 1701,814 1725,823 1748,833 1770,842 1792,852 1813,863 1833,873 1851,884 1869,896 1886,908 1901,920 1915,932 1928,945 1939,959 1948,973 1956,987 1964,1007 1969,1027 1970,1049 1968,1071"/>
<polygon class="pen1 brush0" points="411,78 418,76 424,72 428,66 429,58 428,51 424,45 418,41 411,40 404,41 398,45 394,51 393,58 394,66 398,72 404,76 411,78"/>
</g>
</svg>
