<?xml version="1.0" encoding="UTF-8" standalone="no"?>
<!DOCTYPE svg PUBLIC "-//W3C//DTD SVG 1.0//EN" "http://www.w3.org/TR/2001/REC-SVG-20010904/DTD/svg10.dtd">
<svg xmlns="http://www.w3.org/2000/svg" xmlns:xlink="http://www.w3.org/1999/xlink" fill-rule="evenodd" height="1.488in" preserveAspectRatio="none" stroke-linecap="round" viewBox="0 0 1973 1488" width="1.973in">
<style type="text/css">
.brush0 { fill: rgb(255,255,255); }
.pen0 { stroke: rgb(0,0,0); stroke-width: 1; stroke-linejoin: round; }
.brush1 { fill: none; }
.pen1 { stroke: none; }
.brush2 { fill: rgb(0,0,0); }
</style>
<g>
<polygon class="pen1 brush2" points="1765,658 1765,663 1764,675 1762,695 1758,722 1753,753 1746,789 1737,827 1725,868 1710,909 1691,951 1669,991 1643,1029 1613,1064 1578,1094 1537,1119 1492,1138 1479,1142 1465,1146 1451,1151 1436,1155 1422,1159 1407,1163 1392,1166 1376,1170 1361,1174 1345,1177 1329,1181 1313,1184 1297,1187 1281,1190 1264,1193 1248,1196 1172,1176 1103,1151 1042,1122 987,1089 938,1054 896,1016 859,976 827,935 801,894 779,852 762,811 749,771 739,732 733,696 731,662 731,632 731,594 736,557 745,521 758,486 774,452 794,420 817,390 843,362 871,337 901,314 933,294 967,276 1002,263 1038,252 1075,246 1113,243 1147,243 1181,247 1215,254 1249,265 1282,279 1314,296 1344,315 1373,336 1400,360 1425,386 1447,413 1466,441 1481,471 1494,501 1502,532 1506,564 1507,596 1507,626 1505,656 1500,684 1493,711 1484,737 1472,761 1458,784 1441,805 1421,824 1398,841 1371,856 1342,869 1308,880 1272,889 1231,895 1212,896 1194,896 1175,895 1157,892 1139,888 1122,883 1104,876 1088,868 1072,860 1056,850 1041,839 1027,826 1014,813 1001,799 990,783 979,767 971,750 963,730 956,708 951,684 947,660 944,638 944,619 945,604 949,585 954,567 961,551 968,536 977,522 987,509 999,498 1011,488 1023,479 1037,471 1051,465 1065,460 1080,456 1096,453 1111,452 1127,452 1164,457 1196,469 1222,488 1243,511 1259,537 1270,565 1276,591 1279,615 1293,611 1292,599 1290,586 1286,572 1282,558 1276,543 1269,529 1260,514 1251,500 1240,487 1227,475 1214,464 1199,454 1183,446 1165,440 1146,436 1125,435 1109,436 1093,438 1077,441 1061,446 1046,452 1031,459 1016,468 1002,477 989,489 977,501 965,515 955,529 946,546 939,563 933,581 928,601 927,616 927,637 930,660 934,685 940,711 947,734 955,755 965,771 976,788 988,804 1002,820 1016,834 1031,848 1046,860 1063,871 1080,881 1097,890 1115,897 1134,903 1153,908 1172,911 1191,913 1211,913 1231,912 1273,905 1311,896 1346,884 1377,870 1404,853 1428,835 1449,815 1467,793 1482,769 1495,744 1505,717 1513,689 1518,659 1521,629 1522,597 1522,565 1519,534 1511,503 1499,472 1483,442 1464,412 1442,384 1417,357 1389,332 1360,309 1328,288 1295,270 1260,254 1225,242 1189,233 1153,227 1117,226 1077,229 1038,236 1000,247 963,261 927,279 893,301 862,325 832,352 805,381 781,413 760,446 742,482 729,518 719,556 713,595 712,635 714,673 719,711 726,751 735,792 748,832 765,873 786,913 810,953 840,991 874,1028 914,1063 959,1096 1011,1127 1069,1154 1133,1179 1205,1200 1164,1207 1123,1212 1083,1217 1044,1221 1006,1224 969,1227 934,1228 900,1228 868,1227 838,1225 810,1222 784,1218 761,1212 740,1206 723,1197 708,1188 680,1165 653,1140 628,1113 603,1085 581,1054 559,1023 540,990 522,956 505,920 491,884 478,848 468,810 460,773 454,735 450,696 449,658 450,626 452,595 456,564 461,533 468,503 475,474 485,445 495,417 507,389 520,362 534,336 549,310 566,286 583,262 602,238 621,216 644,192 668,169 694,147 720,127 748,107 777,90 806,73 837,58 868,45 900,34 933,24 967,15 1001,9 1036,4 1071,1 1107,0 1141,1 1174,3 1207,8 1240,13 1271,21 1302,30 1333,40 1363,52 1392,65 1420,80 1447,96 1474,113 1500,131 1524,151 1548,171 1571,193 1593,216 1614,240 1633,265 1652,291 1669,317 1685,345 1700,373 1713,402 1725,432 1735,463 1744,494 1752,525 1757,558 1762,591 1764,624 1765,658 1765,658"/>
<polygon class="pen1 brush2" points="49,756 49,759 44,753 39,749 33,747 26,746 16,748 8,753 2,761 0,771 2,781 8,790 16,795 26,797 33,796 38,794 43,791 46,787 81,797 113,808 141,818 166,828 187,839 205,851 220,864 232,878 241,894 247,912 250,932 250,954 248,979 243,1007 235,1038 225,1073 230,1098 236,1122 242,1146 250,1168 258,1189 268,1210 278,1229 289,1248 300,1266 313,1282 326,1298 340,1314 354,1328 369,1342 385,1355 401,1367 417,1378 434,1389 451,1399 469,1408 487,1416 505,1424 524,1431 543,1438 562,1444 581,1450 601,1455 621,1460 641,1464 661,1468 681,1471 701,1474 715,1476 730,1478 744,1480 758,1481 772,1483 787,1484 801,1485 815,1485 829,1486 843,1486 857,1487 870,1487 884,1487 897,1487 911,1486 924,1486 945,1485 965,1484 985,1482 1005,1481 1023,1479 1041,1477 1058,1476 1075,1474 1090,1472 1104,1471 1118,1469 1130,1468 1141,1466 1152,1465 1160,1465 1168,1464 1181,1463 1197,1460 1216,1458 1238,1455 1262,1451 1288,1447 1316,1442 1345,1437 1376,1432 1409,1426 1442,1421 1476,1415 1511,1409 1546,1402 1581,1396 1616,1390 1651,1384 1685,1378 1718,1372 1750,1366 1781,1360 1811,1355 1839,1350 1864,1345 1888,1341 1909,1337 1928,1333 1943,1330 1956,1328 1965,1326 1971,1325 1973,1325 1965,1317 1954,1308 1942,1299 1927,1289 1910,1278 1892,1267 1872,1256 1852,1245 1830,1234 1809,1224 1787,1213 1765,1203 1744,1193 1723,1184 1704,1176 1685,1168 1667,1161 1650,1156 1633,1152 1616,1149 1599,1147 1582,1146 1566,1146 1549,1147 1533,1149 1517,1152 1502,1155 1486,1159 1471,1163 1455,1168 1440,1173 1425,1179 1403,1186 1377,1194 1348,1201 1315,1209 1279,1217 1242,1224 1202,1231 1161,1238 1119,1244 1077,1249 1034,1253 992,1256 951,1258 911,1259 873,1258 837,1256 809,1252 782,1247 756,1239 731,1230 706,1219 681,1207 657,1192 632,1176 607,1157 581,1137 555,1115 527,1090 498,1064 468,1036 436,1006 402,973 368,941 336,913 305,888 277,866 249,846 224,829 200,815 178,803 157,792 137,784 119,776 102,771 87,766 73,762 60,759 49,756"/>
<polygon class="pen1 brush0" points="336,1060 342,1059 348,1057 353,1054 358,1050 362,1045 365,1039 366,1033 367,1027 366,1021 365,1015 362,1010 358,1005 353,1001 348,998 342,997 336,996 329,997 323,998 317,1001 312,1005 308,1010 305,1015 304,1021 303,1027 304,1033 305,1039 308,1045 312,1050 317,1054 323,1057 329,1059 336,1060"/>
</g>
</svg>
