<?xml version="1.0" encoding="UTF-8" standalone="no"?>
<!DOCTYPE svg PUBLIC "-//W3C//DTD SVG 1.0//EN" "http://www.w3.org/TR/2001/REC-SVG-20010904/DTD/svg10.dtd">
<svg xmlns="http://www.w3.org/2000/svg" xmlns:xlink="http://www.w3.org/1999/xlink" fill-rule="evenodd" height="0.441in" preserveAspectRatio="none" stroke-linecap="round" viewBox="0 0 1997 441" width="1.997in">
<style type="text/css">
.brush0 { fill: rgb(255,255,255); }
.pen0 { stroke: rgb(0,0,0); stroke-width: 1; stroke-linejoin: round; }
.brush1 { fill: none; }
.pen1 { stroke: none; }
.brush2 { fill: rgb(0,0,0); }
</style>
<g>
<polygon class="pen1 brush2" points="590,59 651,59 651,425 590,435 590,59 590,59"/>
<polygon class="pen1 brush2" points="656,60 717,60 717,412 656,424 656,60 656,60"/>
<polygon class="pen1 brush2" points="725,60 784,60 784,400 725,411 725,60 725,60"/>
<polygon class="pen1 brush2" points="791,60 852,61 852,388 791,398 791,60 791,60"/>
<polygon class="pen1 brush2" points="860,61 919,63 919,375 860,387 860,61 860,61"/>
<polygon class="pen1 brush2" points="926,63 986,63 986,363 926,374 926,63 926,63"/>
<polygon class="pen1 brush2" points="993,63 1054,64 1054,350 993,361 993,63 993,63"/>
<polygon class="pen1 brush2" points="1060,64 1121,66 1121,338 1060,350 1060,64 1060,64"/>
<polygon class="pen1 brush2" points="1128,66 1189,67 1189,326 1128,337 1128,66 1128,66"/>
<polygon class="pen1 brush2" points="1195,67 1256,67 1256,313 1195,324 1195,67 1195,67"/>
<polygon class="pen1 brush2" points="1263,67 1323,69 1323,302 1263,313 1263,67 1263,67"/>
<polygon class="pen1 brush2" points="1330,69 1391,70 1391,289 1330,300 1330,69 1330,69"/>
<polygon class="pen1 brush2" points="1398,70 1458,70 1458,276 1398,287 1398,70 1398,70"/>
<polygon class="pen1 brush2" points="1465,70 1526,71 1526,265 1465,276 1465,70 1465,70"/>
<polygon class="pen1 brush2" points="1531,71 1592,73 1592,252 1531,263 1531,71 1531,71"/>
<polygon class="pen1 brush2" points="1600,73 1659,73 1659,239 1600,250 1600,73 1600,73"/>
<polygon class="pen1 brush2" points="1666,73 1727,74 1727,228 1666,239 1666,73 1666,73"/>
<polygon class="pen1 brush2" points="1735,74 1794,76 1794,215 1735,225 1735,74 1735,74"/>
<polygon class="pen1 brush2" points="1801,76 1861,77 1861,202 1801,213 1801,76 1801,76"/>
<polygon class="pen1 brush2" points="1868,77 1929,77 1929,191 1868,202 1868,77 1868,77"/>
<polygon class="pen1 brush2" points="1936,77 1987,79 1988,87 1991,109 1991,141 1987,179 1936,188 1936,77 1936,77"/>
<polygon class="pen1 brush2" points="583,435 583,435 583,435 571,419 554,389 536,348 520,298 513,242 518,182 540,121 583,60 583,435 583,435"/>
<polygon class="pen1 brush2" points="395,405 394,405 391,406 386,406 381,407 374,409 367,410 359,413 352,415 351,411 350,402 350,390 351,380 350,380 346,381 340,382 333,383 325,385 317,388 308,391 300,395 299,390 297,378 296,363 297,347 294,349 287,353 276,360 264,367 251,376 239,385 229,393 223,400 224,391 227,371 231,349 236,334 232,336 223,342 209,351 192,362 173,376 155,390 138,404 125,418 127,408 131,383 138,355 146,333 141,336 127,346 107,359 83,376 58,394 34,411 14,428 0,441 2,437 6,425 13,407 23,385 35,361 50,337 66,315 84,296 81,297 72,299 60,303 46,307 31,312 17,316 6,320 0,324 4,320 14,311 29,297 47,280 67,262 88,245 108,230 125,219 121,218 112,216 98,213 80,210 61,207 42,206 24,206 9,209 12,207 19,203 30,197 45,191 61,184 78,179 95,176 111,175 126,176 139,177 152,179 164,181 175,185 185,190 195,196 203,205 195,213 186,222 177,233 168,244 160,255 153,265 148,274 144,280 186,271 224,266 257,266 286,269 311,275 332,284 350,295 365,307 376,320 385,334 392,349 396,363 398,376 399,387 397,397 395,405 395,405"/>
<polygon class="pen1 brush2" points="523,87 520,82 514,78 505,76 495,75 483,75 472,75 461,76 452,76 440,83 432,100 427,116 426,124 432,118 438,114 443,112 445,111 441,128 438,149 436,167 436,175 441,169 445,164 449,162 450,161 444,186 439,218 435,245 433,257 433,235 434,212 435,194 435,186 425,194 420,198 417,201 416,202 419,183 422,164 425,150 426,144 418,151 411,155 407,157 405,158 407,134 411,106 414,83 416,74 403,85 395,96 390,105 389,108 391,80 395,56 400,39 402,33 395,37 389,44 383,51 378,58 374,65 371,71 369,75 368,77 367,54 370,28 375,8 378,0 366,13 356,30 350,49 345,68 342,86 341,100 340,110 340,114 325,123 312,132 298,141 286,149 274,157 263,165 251,173 241,181 230,190 220,199 210,209 200,219 189,230 179,242 169,255 158,269 181,262 205,258 229,255 252,255 275,256 297,260 317,265 337,272 354,282 370,294 383,307 394,323 402,341 406,361 408,384 405,408 407,412 410,414 411,415 412,415 425,415 439,410 455,400 470,388 484,376 496,365 503,357 506,354 489,304 483,256 485,211 492,171 502,136 512,110 520,93 523,87"/>
</g>
</svg>
