<?xml version="1.0" encoding="UTF-8" standalone="no"?>
<!DOCTYPE svg PUBLIC "-//W3C//DTD SVG 1.0//EN" "http://www.w3.org/TR/2001/REC-SVG-20010904/DTD/svg10.dtd">
<svg xmlns="http://www.w3.org/2000/svg" xmlns:xlink="http://www.w3.org/1999/xlink" fill-rule="evenodd" height="1.98in" preserveAspectRatio="none" stroke-linecap="round" viewBox="0 0 1103 1980" width="1.103in">
<style type="text/css">
.brush0 { fill: rgb(255,255,255); }
.pen0 { stroke: rgb(0,0,0); stroke-width: 1; stroke-linejoin: round; }
.brush1 { fill: none; }
.pen1 { stroke: none; }
.brush2 { fill: rgb(0,0,0); }
</style>
<g>
<polygon class="pen1 brush2" points="363,68 371,146 0,382 363,68 363,68"/>
<polygon class="pen1 brush2" points="436,173 388,195 348,221 315,252 289,287 268,324 253,363 243,404 236,445 234,485 235,525 238,562 244,598 251,629 259,657 268,679 276,696 315,756 357,812 401,865 445,913 490,957 534,998 578,1034 620,1067 659,1096 695,1121 728,1142 756,1159 779,1173 796,1182 807,1188 811,1190 803,1174 795,1159 788,1145 781,1132 773,1118 766,1104 758,1089 749,1073 739,1055 727,1034 714,1012 699,986 683,957 664,924 642,887 618,845 579,773 552,712 536,661 528,621 527,589 534,564 545,547 561,535 579,528 599,525 619,525 639,527 656,531 669,534 679,537 682,538 648,534 619,534 594,536 574,542 558,550 547,562 539,576 536,594 536,615 540,638 548,665 559,695 573,728 590,764 611,803 634,845 659,890 685,937 713,985 741,1034 769,1082 797,1130 825,1176 852,1221 877,1262 900,1300 922,1334 940,1363 956,1386 969,1404 977,1414 982,1417 998,1400 1012,1382 1025,1363 1036,1343 1046,1323 1055,1302 1063,1280 1070,1258 1080,1215 1087,1171 1090,1127 1089,1082 1086,1036 1081,991 1073,947 1063,903 1048,849 1031,798 1012,750 993,706 973,666 954,631 935,602 918,579 852,507 792,452 738,411 689,383 645,367 606,361 572,363 543,372 517,386 496,403 479,422 465,441 455,459 448,473 444,483 443,487 413,466 391,445 376,423 366,401 362,378 362,356 366,335 374,314 384,294 397,275 411,258 426,242 440,228 455,216 468,207 479,200 499,190 516,180 530,169 541,157 549,144 555,129 559,112 560,92 559,72 556,54 551,39 543,25 532,15 519,7 503,2 483,0 463,2 444,8 427,16 411,27 399,41 389,56 383,72 381,88 383,122 390,146 398,161 409,170 419,174 427,174 434,174 436,173 436,173"/>
<polygon class="pen1 brush2" points="607,1094 615,1098 621,1101 626,1104 632,1107 637,1110 645,1114 655,1118 668,1122 674,1362 689,1392 675,1430 698,1794 790,1833 693,1838 551,1980 610,1860 459,1911 590,1838 448,1840 655,1784 640,1429 615,1396 631,1366 607,1094"/>
<polygon class="pen1 brush0" points="463,99 472,97 479,92 484,85 486,77 484,68 479,61 472,56 463,54 455,56 448,61 444,68 442,77 444,85 448,92 455,97 463,99"/>
<polygon class="pen1 brush0" points="841,1006 843,1009 849,1015 857,1026 868,1038 881,1051 896,1064 912,1076 928,1086 944,1092 960,1094 974,1090 987,1080 998,1062 1006,1034 1012,997 1013,949 1014,955 1017,972 1019,995 1020,1023 1018,1052 1011,1078 999,1099 979,1112 956,1115 936,1112 919,1103 902,1090 887,1073 872,1052 857,1030 841,1006"/>
</g>
</svg>
