<?xml version="1.0" encoding="UTF-8" standalone="no"?>
<!DOCTYPE svg PUBLIC "-//W3C//DTD SVG 1.0//EN" "http://www.w3.org/TR/2001/REC-SVG-20010904/DTD/svg10.dtd">
<svg xmlns="http://www.w3.org/2000/svg" xmlns:xlink="http://www.w3.org/1999/xlink" fill-rule="evenodd" height="1.981in" preserveAspectRatio="none" stroke-linecap="round" viewBox="0 0 1431 1981" width="1.431in">
<style type="text/css">
.brush0 { fill: rgb(255,255,255); }
.pen0 { stroke: rgb(0,0,0); stroke-width: 1; stroke-linejoin: round; }
.brush1 { fill: none; }
.pen1 { stroke: none; }
.brush2 { fill: rgb(0,0,0); }
</style>
<g>
<polygon class="pen1 brush2" points="207,100 190,117 172,137 154,159 136,180 120,201 105,219 94,234 86,244 79,250 68,258 54,270 40,283 26,299 15,316 8,333 7,352 13,355 22,355 33,354 44,351 55,347 64,344 70,341 72,339 63,347 56,354 48,358 42,360 35,362 27,362 20,361 11,360 15,365 21,370 28,373 35,374 43,375 51,374 58,373 65,370 73,366 83,361 92,354 102,346 112,338 121,331 129,325 136,321 154,321 173,319 191,316 210,311 227,304 243,295 258,285 271,272 276,294 284,331 295,380 309,439 325,506 343,580 363,659 384,740 407,822 431,902 456,979 482,1051 507,1115 533,1170 559,1214 585,1245 587,1260 592,1300 600,1358 611,1427 623,1499 637,1568 653,1626 669,1666 670,1699 677,1775 686,1851 690,1886 738,1893 758,1340 761,1342 769,1346 782,1353 798,1361 816,1370 836,1378 856,1386 876,1392 875,1381 873,1352 872,1310 871,1260 871,1207 874,1157 881,1113 892,1082 888,1122 886,1167 887,1214 890,1263 897,1310 908,1355 924,1395 944,1429 957,1446 970,1462 982,1476 994,1489 1005,1501 1015,1512 1026,1522 1036,1532 1046,1540 1057,1549 1067,1557 1078,1565 1089,1572 1101,1580 1114,1588 1127,1596 1127,1883 1174,1890 1175,1879 1177,1850 1181,1808 1187,1758 1195,1705 1206,1654 1218,1610 1233,1578 1193,1454 1194,1443 1197,1413 1198,1369 1196,1315 1189,1256 1174,1197 1151,1142 1115,1095 1091,1074 1064,1051 1034,1029 1001,1006 967,983 932,960 896,938 862,917 828,898 797,880 769,864 744,850 723,839 707,830 697,825 694,823 713,798 637,717 659,697 603,637 619,616 541,531 558,518 483,433 487,431 495,427 502,422 504,417 500,412 492,404 483,393 473,381 463,369 454,359 448,353 446,350 470,329 400,255 421,244 340,143 342,139 349,128 358,112 368,93 378,72 386,51 392,32 393,17 389,19 379,25 364,34 346,46 327,59 309,74 293,88 281,102 280,101 278,99 276,97 272,95 266,94 259,93 248,93 235,95 233,52 237,47 239,42 241,36 242,29 240,17 233,8 224,2 213,0 207,1 201,2 195,5 191,8 187,12 184,17 182,23 181,29 183,40 188,48 195,55 204,59 207,100 207,100"/>
<polygon class="pen1 brush2" points="687,1918 679,1926 673,1933 668,1940 664,1946 661,1952 658,1960 654,1970 650,1981 744,1981 744,1918 742,1918 736,1917 727,1917 717,1916 707,1916 698,1916 691,1917 687,1918 687,1918"/>
<polygon class="pen1 brush2" points="1120,1915 1112,1924 1106,1931 1101,1937 1097,1944 1094,1950 1091,1958 1087,1968 1083,1979 1177,1979 1177,1915 1175,1915 1169,1914 1160,1914 1150,1913 1140,1913 1131,1913 1124,1914 1120,1915 1120,1915"/>
<polygon class="pen1 brush2" points="1133,1071 1146,1073 1161,1078 1177,1087 1194,1099 1211,1113 1229,1130 1246,1148 1263,1167 1280,1188 1296,1208 1310,1228 1323,1248 1335,1267 1344,1284 1351,1299 1356,1312 1374,1327 1389,1346 1402,1367 1412,1388 1420,1408 1426,1425 1430,1436 1431,1440 1405,1435 1384,1424 1366,1408 1352,1390 1341,1370 1332,1350 1326,1330 1322,1313 1314,1287 1301,1258 1285,1229 1266,1201 1244,1176 1220,1155 1194,1140 1167,1133 1133,1071"/>
<polygon class="pen1 brush0" points="69,306 76,302 81,297 83,292 83,288 81,287 76,288 69,291 62,295 55,300 50,304 47,308 48,312 50,313 55,313 62,310 69,306"/>
<polygon class="pen1 brush0" points="214,224 222,222 230,217 235,210 237,201 235,193 230,186 222,182 214,180 205,182 198,186 193,193 191,201 193,210 198,217 205,222 214,224"/>
</g>
</svg>
