<?xml version="1.0" encoding="UTF-8" standalone="no"?>
<!DOCTYPE svg PUBLIC "-//W3C//DTD SVG 1.0//EN" "http://www.w3.org/TR/2001/REC-SVG-20010904/DTD/svg10.dtd">
<svg xmlns="http://www.w3.org/2000/svg" xmlns:xlink="http://www.w3.org/1999/xlink" fill-rule="evenodd" height="1.628in" preserveAspectRatio="none" stroke-linecap="round" viewBox="0 0 2012 1628" width="2.012in">
<style type="text/css">
.brush0 { fill: rgb(255,255,255); }
.pen0 { stroke: rgb(0,0,0); stroke-width: 1; stroke-linejoin: round; }
.brush1 { fill: none; }
.pen1 { stroke: none; }
.brush2 { fill: rgb(0,0,0); }
</style>
<g>
<polygon class="pen1 brush2" points="1595,483 1599,487 1606,495 1616,506 1629,521 1643,539 1659,560 1675,584 1693,611 1710,640 1727,673 1743,708 1757,746 1770,786 1780,828 1788,872 1792,919 1764,931 1738,940 1712,947 1688,952 1664,955 1642,956 1621,955 1601,952 1582,947 1564,941 1547,933 1532,924 1518,914 1505,903 1493,890 1483,877 1471,851 1456,827 1440,804 1421,783 1400,765 1377,748 1352,734 1325,722 1344,721 1363,719 1383,715 1403,710 1423,702 1443,693 1462,682 1481,668 1499,653 1517,636 1533,616 1549,594 1563,570 1575,544 1586,515 1595,483 1595,483"/>
<polygon class="pen1 brush2" points="1794,932 1766,944 1739,953 1714,960 1690,965 1667,968 1645,969 1624,969 1604,966 1586,963 1568,957 1552,951 1537,943 1523,934 1510,924 1499,913 1488,901 1496,936 1501,972 1503,1010 1500,1047 1493,1084 1481,1120 1465,1153 1444,1183 1451,1196 1459,1210 1467,1223 1476,1236 1485,1250 1494,1263 1504,1275 1515,1288 1526,1299 1537,1310 1549,1321 1562,1330 1575,1338 1588,1346 1602,1352 1617,1357 1638,1338 1659,1318 1677,1297 1695,1274 1711,1251 1726,1226 1739,1201 1751,1174 1762,1147 1771,1118 1778,1089 1785,1059 1789,1028 1792,997 1794,965 1794,932 1794,932"/>
<polygon class="pen1 brush2" points="1608,1364 1587,1380 1566,1395 1545,1408 1522,1420 1500,1430 1476,1439 1453,1446 1429,1452 1404,1456 1380,1459 1355,1460 1330,1460 1304,1458 1279,1455 1253,1450 1227,1443 1221,1386 1224,1330 1230,1283 1235,1254 1249,1256 1263,1257 1277,1258 1291,1257 1304,1256 1318,1255 1332,1252 1345,1248 1358,1244 1370,1239 1383,1233 1395,1226 1406,1218 1417,1210 1428,1200 1438,1189 1445,1201 1452,1214 1460,1228 1469,1241 1478,1254 1488,1268 1498,1281 1508,1293 1519,1306 1531,1317 1543,1328 1555,1337 1568,1346 1581,1353 1594,1359 1608,1364 1608,1364"/>
<polygon class="pen1 brush2" points="1217,1441 1213,1406 1214,1345 1220,1287 1230,1256 1205,1250 1182,1241 1162,1230 1145,1217 1130,1202 1117,1186 1107,1169 1099,1152 1087,1158 1073,1166 1058,1175 1041,1186 1024,1199 1007,1212 990,1227 974,1243 983,1263 994,1282 1006,1300 1019,1317 1033,1332 1048,1347 1063,1360 1079,1373 1096,1384 1113,1395 1130,1405 1147,1413 1165,1421 1182,1429 1200,1435 1217,1441 1217,1441"/>
<polygon class="pen1 brush2" points="971,1235 961,1203 954,1169 950,1134 950,1098 952,1062 957,1028 966,994 977,963 993,964 1010,965 1027,968 1045,972 1063,977 1080,983 1095,990 1109,997 1100,1012 1093,1029 1088,1047 1085,1066 1084,1085 1086,1105 1089,1125 1096,1144 1086,1149 1073,1156 1058,1165 1041,1176 1024,1189 1006,1203 988,1218 971,1235 971,1235"/>
<polygon class="pen1 brush2" points="981,959 996,959 1013,961 1030,963 1048,967 1066,972 1083,978 1099,985 1113,993 1119,984 1126,977 1134,970 1142,964 1150,959 1160,954 1169,950 1179,946 1178,939 1176,929 1172,917 1168,903 1162,888 1154,871 1144,854 1133,837 1111,843 1090,851 1069,861 1048,874 1029,890 1011,909 995,932 981,959 981,959"/>
<polygon class="pen1 brush2" points="1140,837 1150,835 1161,833 1171,832 1182,831 1192,830 1203,830 1213,830 1224,830 1235,831 1245,833 1255,835 1266,837 1276,840 1286,843 1296,847 1305,851 1303,869 1299,886 1295,902 1290,916 1285,928 1281,938 1277,945 1275,950 1265,946 1254,943 1243,941 1232,940 1221,939 1209,940 1197,942 1184,945 1182,938 1180,928 1177,915 1172,901 1166,886 1159,870 1150,854 1140,837 1140,837"/>
<polygon class="pen1 brush2" points="1311,852 1308,870 1304,887 1300,903 1295,917 1290,929 1286,940 1282,948 1279,953 1285,957 1291,960 1297,965 1303,969 1308,974 1313,979 1317,984 1321,989 1327,989 1335,987 1345,985 1357,981 1370,977 1384,971 1399,964 1413,955 1404,937 1393,920 1380,905 1367,892 1353,880 1339,869 1325,860 1311,852 1311,852"/>
<polygon class="pen1 brush2" points="1414,959 1401,967 1387,974 1374,980 1361,985 1349,989 1339,992 1330,994 1323,995 1335,1020 1341,1047 1340,1074 1332,1100 1336,1102 1341,1106 1348,1109 1356,1114 1365,1118 1376,1122 1388,1125 1400,1128 1410,1109 1418,1089 1424,1068 1427,1046 1428,1024 1426,1001 1421,980 1414,959 1414,959"/>
<polygon class="pen1 brush2" points="1397,1132 1385,1129 1374,1126 1364,1122 1355,1118 1347,1114 1340,1110 1335,1107 1331,1104 1326,1113 1320,1120 1313,1127 1306,1132 1297,1137 1287,1141 1277,1143 1265,1145 1268,1153 1273,1165 1280,1181 1291,1198 1304,1196 1318,1193 1332,1188 1346,1181 1360,1172 1373,1161 1386,1147 1397,1132 1397,1132"/>
<polygon class="pen1 brush2" points="1285,1198 1274,1180 1267,1164 1263,1151 1261,1145 1250,1144 1240,1142 1230,1138 1222,1133 1214,1126 1208,1118 1203,1109 1200,1098 1197,1099 1194,1102 1189,1104 1185,1108 1179,1112 1174,1117 1168,1122 1163,1128 1173,1143 1186,1157 1200,1169 1215,1179 1232,1187 1249,1193 1267,1197 1285,1198 1285,1198"/>
<polygon class="pen1 brush2" points="1162,1125 1154,1101 1153,1076 1158,1052 1170,1030 1178,1031 1186,1032 1193,1034 1200,1036 1205,1038 1210,1040 1214,1042 1217,1043 1209,1053 1203,1065 1200,1079 1200,1094 1197,1095 1194,1097 1189,1100 1184,1103 1179,1108 1173,1113 1168,1119 1162,1125 1162,1125"/>
<polygon class="pen1 brush2" points="1173,1027 1182,1028 1190,1029 1197,1031 1204,1033 1210,1035 1214,1037 1218,1039 1221,1041 1225,1038 1229,1037 1234,1036 1238,1035 1243,1035 1248,1036 1252,1037 1257,1039 1258,1037 1260,1032 1263,1027 1265,1020 1256,1015 1246,1012 1234,1009 1222,1008 1209,1009 1196,1013 1184,1018 1173,1027 1173,1027"/>
<polygon class="pen1 brush2" points="1268,1020 1278,1030 1284,1042 1286,1056 1285,1068 1283,1070 1280,1070 1276,1068 1272,1064 1272,1058 1271,1052 1267,1046 1261,1040 1264,1034 1266,1030 1267,1026 1268,1020 1268,1020"/>
<polygon class="pen1 brush2" points="1285,1071 1282,1072 1279,1072 1276,1069 1272,1064 1271,1067 1271,1070 1270,1073 1268,1075 1268,1080 1270,1083 1271,1084 1272,1085 1276,1083 1279,1079 1282,1075 1285,1071 1285,1071"/>
<polygon class="pen1 brush2" points="1271,1087 1266,1089 1260,1090 1255,1089 1252,1088 1246,1085 1241,1080 1236,1076 1232,1072 1227,1069 1221,1069 1214,1071 1204,1077 1206,1070 1208,1063 1211,1057 1215,1051 1220,1046 1226,1043 1233,1041 1241,1040 1250,1055 1251,1065 1248,1070 1244,1073 1254,1065 1253,1054 1247,1044 1244,1040 1257,1042 1265,1048 1269,1057 1269,1067 1266,1075 1260,1081 1253,1082 1244,1077 1251,1083 1258,1084 1263,1082 1268,1077 1268,1081 1268,1084 1269,1086 1271,1087 1271,1087"/>
<polygon class="pen1 brush2" points="1241,1085 1234,1086 1227,1092 1219,1103 1215,1121 1210,1112 1207,1102 1205,1091 1204,1081 1212,1076 1218,1073 1223,1072 1227,1072 1231,1074 1234,1077 1237,1081 1241,1085 1241,1085"/>
<polygon class="pen1 brush2" points="1244,1087 1246,1088 1248,1089 1249,1090 1251,1091 1250,1094 1249,1098 1249,1104 1251,1110 1254,1116 1259,1124 1268,1131 1279,1139 1272,1140 1264,1141 1256,1141 1247,1140 1239,1138 1232,1135 1224,1130 1218,1125 1222,1105 1230,1093 1238,1088 1244,1087 1244,1087"/>
<polygon class="pen1 brush2" points="1254,1091 1260,1092 1266,1092 1272,1090 1277,1088 1278,1091 1281,1095 1285,1099 1290,1102 1297,1104 1306,1104 1317,1101 1329,1094 1326,1102 1322,1110 1317,1116 1312,1122 1306,1127 1299,1131 1292,1135 1285,1138 1273,1130 1264,1123 1258,1116 1255,1109 1253,1103 1252,1098 1253,1094 1254,1091 1254,1091"/>
<polygon class="pen1 brush2" points="1278,1087 1283,1082 1286,1075 1288,1068 1289,1061 1293,1060 1299,1058 1306,1055 1314,1051 1320,1045 1325,1036 1329,1026 1329,1013 1335,1031 1337,1050 1336,1070 1332,1088 1320,1096 1310,1100 1301,1101 1293,1100 1287,1098 1283,1094 1280,1090 1278,1087 1278,1087"/>
<polygon class="pen1 brush2" points="1289,1058 1300,1055 1310,1050 1318,1043 1323,1035 1326,1026 1327,1016 1324,1006 1319,996 1319,996 1316,992 1309,983 1301,974 1292,967 1282,961 1271,956 1260,952 1247,950 1234,949 1246,957 1256,965 1263,974 1267,983 1270,992 1271,1001 1270,1009 1269,1017 1279,1026 1286,1036 1289,1047 1289,1058 1289,1058"/>
<polygon class="pen1 brush2" points="1265,1016 1266,1008 1266,999 1265,990 1261,980 1256,971 1248,963 1237,955 1223,948 1200,950 1179,956 1159,965 1140,976 1124,991 1111,1008 1101,1028 1095,1050 1104,1043 1113,1038 1123,1033 1132,1030 1141,1027 1150,1026 1159,1026 1167,1026 1179,1016 1192,1009 1206,1005 1219,1004 1233,1005 1245,1007 1256,1011 1265,1016 1265,1016"/>
<polygon class="pen1 brush2" points="1164,1030 1152,1052 1148,1078 1150,1104 1159,1128 1150,1142 1143,1158 1139,1177 1139,1198 1125,1183 1114,1167 1105,1150 1098,1132 1094,1114 1091,1095 1091,1076 1093,1057 1102,1050 1111,1044 1120,1039 1129,1036 1138,1033 1147,1031 1156,1030 1164,1030 1164,1030"/>
<polygon class="pen1 brush2" points="1160,1132 1152,1146 1146,1162 1143,1181 1143,1202 1153,1211 1164,1218 1176,1225 1188,1231 1200,1237 1213,1241 1226,1245 1239,1248 1252,1250 1266,1251 1279,1251 1293,1251 1306,1249 1319,1247 1332,1244 1345,1240 1336,1237 1327,1233 1319,1229 1312,1225 1306,1220 1300,1214 1294,1208 1289,1202 1270,1202 1252,1199 1233,1193 1215,1185 1198,1175 1183,1162 1170,1148 1160,1132 1160,1132"/>
<polygon class="pen1 brush2" points="1295,1202 1309,1200 1324,1196 1338,1190 1353,1182 1366,1173 1379,1161 1391,1148 1402,1132 1410,1134 1418,1134 1426,1135 1435,1134 1443,1133 1451,1131 1459,1128 1467,1125 1463,1136 1458,1145 1454,1153 1449,1160 1444,1167 1440,1172 1436,1177 1433,1181 1433,1181 1425,1190 1417,1199 1408,1207 1398,1214 1388,1222 1377,1228 1365,1234 1353,1239 1343,1236 1334,1233 1326,1229 1319,1224 1312,1219 1306,1214 1300,1208 1295,1202 1295,1202"/>
<polygon class="pen1 brush2" points="1404,1129 1412,1130 1420,1130 1428,1130 1436,1130 1445,1129 1453,1127 1462,1124 1471,1121 1481,1094 1488,1066 1493,1036 1494,1006 1493,975 1490,945 1483,915 1474,885 1469,897 1464,908 1458,917 1452,926 1444,935 1437,942 1428,949 1420,956 1427,977 1432,999 1433,1021 1432,1044 1429,1066 1423,1088 1414,1109 1404,1129 1404,1129"/>
<polygon class="pen1 brush2" points="1417,952 1424,946 1433,937 1443,927 1453,916 1461,905 1467,894 1471,884 1470,875 1463,860 1456,847 1448,833 1440,821 1431,809 1421,797 1411,786 1401,776 1389,766 1376,757 1363,749 1348,741 1333,734 1316,727 1298,721 1278,716 1288,732 1296,749 1303,766 1307,783 1310,799 1312,816 1313,832 1312,847 1326,855 1341,864 1356,875 1370,887 1384,901 1396,917 1407,934 1417,952 1417,952"/>
<polygon class="pen1 brush2" points="1306,844 1296,840 1286,836 1276,833 1265,831 1254,829 1244,827 1233,826 1222,825 1211,825 1200,825 1189,825 1178,826 1167,827 1157,828 1146,829 1136,831 1125,818 1113,805 1099,794 1084,783 1067,774 1048,766 1028,760 1005,756 1020,748 1036,741 1052,734 1068,728 1085,723 1101,719 1118,715 1135,712 1152,709 1169,708 1186,707 1202,706 1219,707 1236,708 1252,710 1268,713 1280,729 1289,746 1296,763 1301,780 1304,796 1306,813 1307,829 1306,844 1306,844"/>
<polygon class="pen1 brush2" points="1130,833 1119,820 1106,807 1092,796 1076,785 1058,777 1039,770 1018,765 995,762 976,775 959,789 942,803 926,819 912,835 898,851 886,869 874,886 864,905 855,923 847,942 840,961 835,980 830,999 827,1018 825,1037 841,1017 858,1001 877,988 896,977 915,970 935,964 954,961 973,959 987,932 1004,908 1023,889 1043,872 1064,858 1086,848 1108,839 1130,833 1130,833"/>
<polygon class="pen1 brush2" points="970,965 951,967 932,971 913,977 894,985 875,997 857,1011 839,1028 823,1048 818,1091 818,1136 822,1182 831,1229 843,1274 859,1318 879,1359 902,1396 905,1374 909,1353 914,1332 921,1312 929,1293 939,1274 951,1257 965,1240 955,1208 947,1174 943,1139 942,1102 944,1066 950,1031 958,997 970,965 970,965"/>
<polygon class="pen1 brush2" points="970,1250 956,1267 945,1285 935,1304 928,1324 922,1344 918,1365 915,1387 913,1408 923,1421 935,1435 949,1449 965,1464 982,1479 1001,1493 1023,1508 1047,1522 1072,1536 1100,1549 1131,1561 1164,1571 1199,1581 1237,1589 1278,1595 1321,1599 1305,1584 1288,1568 1273,1551 1259,1532 1246,1513 1235,1493 1226,1473 1220,1452 1202,1446 1184,1440 1166,1432 1148,1424 1130,1415 1112,1405 1095,1395 1078,1383 1061,1370 1045,1356 1030,1342 1016,1326 1003,1308 991,1290 980,1271 970,1250 970,1250"/>
<polygon class="pen1 brush2" points="1231,1455 1257,1461 1283,1466 1309,1469 1335,1471 1361,1471 1386,1469 1412,1466 1437,1462 1462,1456 1486,1448 1510,1439 1534,1429 1557,1416 1580,1402 1602,1387 1623,1370 1643,1375 1662,1379 1679,1382 1697,1384 1713,1385 1729,1385 1744,1384 1759,1383 1773,1380 1787,1377 1801,1372 1815,1367 1828,1361 1842,1354 1855,1346 1869,1337 1845,1373 1819,1406 1792,1436 1764,1464 1735,1488 1705,1510 1674,1530 1641,1547 1607,1561 1573,1573 1536,1583 1499,1590 1461,1596 1421,1599 1381,1600 1339,1599 1322,1586 1305,1571 1289,1554 1273,1536 1259,1516 1247,1496 1238,1476 1231,1455 1231,1455"/>
<polygon class="pen1 brush2" points="1633,1361 1653,1366 1672,1369 1690,1372 1707,1373 1723,1374 1739,1373 1755,1372 1770,1369 1784,1365 1799,1361 1813,1355 1827,1348 1841,1340 1856,1332 1870,1322 1885,1311 1904,1276 1921,1240 1937,1203 1951,1164 1963,1126 1974,1086 1983,1046 1991,1006 1998,954 2001,902 2003,851 2001,799 1997,749 1990,701 1980,653 1968,608 1967,633 1966,657 1964,681 1960,705 1956,728 1950,751 1943,773 1935,794 1925,814 1913,834 1900,852 1886,869 1869,885 1851,900 1830,913 1808,925 1809,956 1808,987 1805,1018 1801,1048 1795,1078 1787,1108 1778,1137 1768,1165 1756,1193 1742,1220 1727,1247 1711,1272 1694,1296 1675,1319 1654,1341 1633,1361 1633,1361"/>
<polygon class="pen1 brush2" points="1808,912 1850,886 1884,853 1911,814 1931,772 1945,726 1954,678 1958,629 1957,580 1947,555 1937,531 1925,507 1912,484 1898,461 1884,439 1868,417 1852,395 1833,372 1813,349 1793,328 1772,306 1750,286 1727,266 1703,247 1680,229 1655,212 1630,195 1605,179 1579,164 1553,150 1527,137 1501,125 1474,114 1516,144 1549,180 1574,221 1592,265 1603,313 1608,364 1606,416 1598,469 1605,475 1614,484 1626,497 1640,513 1656,533 1672,555 1690,581 1707,609 1725,640 1741,673 1757,708 1772,746 1785,785 1795,826 1803,868 1808,912 1808,912"/>
<polygon class="pen1 brush2" points="1430,98 1407,90 1384,82 1360,75 1337,69 1313,62 1288,57 1263,52 1238,48 1213,44 1187,41 1162,38 1135,37 1109,35 1082,35 1055,35 1028,36 1001,38 973,40 945,44 917,48 889,53 860,58 832,65 803,72 774,81 744,90 715,100 685,111 655,123 625,136 595,150 565,165 519,191 475,220 434,250 395,282 359,316 325,351 293,387 263,425 235,464 209,505 186,546 164,587 143,630 125,673 108,716 93,760 75,818 60,877 47,935 37,992 28,1049 21,1105 16,1160 12,1213 9,1297 10,1374 12,1443 16,1502 21,1551 26,1586 30,1609 32,1616 61,1618 90,1620 118,1621 145,1622 172,1623 198,1623 224,1623 249,1623 273,1622 297,1621 320,1620 342,1619 364,1617 385,1614 406,1612 426,1609 445,1606 464,1604 483,1600 501,1597 518,1594 535,1590 551,1586 567,1581 582,1577 597,1573 611,1568 625,1563 639,1558 651,1553 664,1547 676,1542 698,1531 719,1520 738,1509 756,1497 772,1486 787,1475 801,1463 813,1452 824,1441 834,1431 843,1421 851,1411 857,1402 863,1393 868,1386 872,1379 844,1313 824,1247 812,1181 809,1116 812,1053 824,992 842,935 868,883 900,835 939,793 984,758 1035,730 1092,711 1156,700 1224,699 1298,709 1355,708 1406,696 1451,674 1491,642 1525,603 1553,559 1574,509 1589,457 1596,403 1596,348 1589,295 1573,245 1550,198 1519,157 1479,123 1430,98"/>
</g>
</svg>
