<?xml version="1.0" encoding="UTF-8" standalone="no"?>
<!DOCTYPE svg PUBLIC "-//W3C//DTD SVG 1.0//EN" "http://www.w3.org/TR/2001/REC-SVG-20010904/DTD/svg10.dtd">
<svg xmlns="http://www.w3.org/2000/svg" xmlns:xlink="http://www.w3.org/1999/xlink" fill-rule="evenodd" height="2.007in" preserveAspectRatio="none" stroke-linecap="round" viewBox="0 0 1402 2007" width="1.402in">
<style type="text/css">
.brush0 { fill: rgb(255,255,255); }
.pen0 { stroke: rgb(0,0,0); stroke-width: 1; stroke-linejoin: round; }
.brush1 { fill: none; }
.pen1 { stroke: none; }
.brush2 { fill: rgb(0,0,0); }
</style>
<g>
<polygon class="pen1 brush2" points="1274,339 1277,342 1283,351 1292,364 1302,380 1313,398 1323,417 1331,436 1337,453 1336,453 1333,451 1328,449 1322,446 1314,442 1305,437 1295,431 1283,425 1284,428 1288,437 1294,450 1300,466 1306,485 1311,506 1314,527 1314,548 1317,558 1327,584 1341,625 1357,680 1373,748 1387,826 1396,913 1399,1008 1395,1057 1388,1106 1378,1153 1365,1198 1351,1242 1334,1284 1317,1324 1297,1362 1277,1397 1256,1430 1235,1460 1214,1487 1192,1510 1171,1531 1151,1548 1132,1561 1099,1933 1098,1947 1097,1960 1095,1972 1093,1981 1088,1988 1083,1992 1075,1992 1065,1987 1060,1984 1055,1981 1049,1977 1042,1973 1034,1969 1026,1964 1017,1960 1007,1955 1079,1548 1076,1547 1072,1546 1067,1544 1064,1544 990,1946 980,1941 969,1936 957,1931 945,1926 932,1921 920,1916 906,1911 893,1906 1008,1524 1005,1522 1001,1520 997,1518 993,1517 878,1901 864,1897 851,1892 837,1888 824,1884 811,1880 798,1877 786,1874 774,1872 943,1488 939,1486 935,1484 932,1482 929,1479 757,1869 751,1868 745,1867 740,1866 735,1865 730,1865 725,1865 720,1865 716,1865 702,1864 693,1861 687,1856 685,1849 685,1840 688,1831 691,1821 696,1811 882,1434 879,1418 872,1373 862,1306 853,1224 846,1134 844,1042 850,956 865,881 859,894 845,930 827,987 810,1058 796,1140 790,1228 796,1317 817,1403 815,1401 810,1395 802,1385 791,1370 778,1351 765,1328 750,1300 735,1269 720,1233 705,1193 692,1149 681,1101 671,1049 665,993 662,933 662,869 663,864 665,852 668,832 672,808 678,781 686,752 695,724 706,697 720,669 737,637 754,603 771,568 787,535 800,504 810,479 814,460 815,446 813,431 810,417 805,403 798,389 789,376 778,363 766,351 768,348 774,338 783,322 793,301 804,276 815,248 824,217 831,184 838,121 840,68 839,31 838,18 874,20 910,22 946,25 981,29 1016,34 1049,40 1082,48 1113,58 1142,71 1170,85 1196,103 1220,124 1241,148 1260,176 1277,208 1290,244 1289,243 1286,241 1282,238 1275,234 1267,230 1257,225 1245,220 1231,216 1245,230 1259,245 1273,261 1287,279 1299,297 1310,315 1319,334 1324,352 1322,351 1316,349 1308,346 1299,344 1290,342 1282,340 1276,339 1274,339 1274,339"/>
<polygon class="pen1 brush2" points="801,21 768,17 736,15 704,12 674,11 645,10 616,10 588,10 561,11 535,13 510,15 485,18 462,21 439,25 416,29 395,33 374,38 329,51 288,66 250,82 216,100 184,118 156,137 130,157 108,177 87,196 69,215 53,234 39,252 27,268 16,283 8,296 0,307 8,302 19,296 30,289 44,282 59,275 76,267 95,259 115,251 137,243 160,235 185,227 211,219 239,212 268,205 299,199 331,193 358,121 369,186 373,186 377,186 380,185 384,185 388,184 392,184 395,183 399,183 433,64 450,179 455,179 460,179 465,179 470,179 499,86 514,177 529,177 543,177 558,177 573,178 588,178 604,179 619,180 635,182 651,183 667,185 683,187 699,189 716,191 732,194 749,197 766,200 777,167 785,135 791,105 796,77 798,54 800,37 801,25 801,21 801,21"/>
<polygon class="pen1 brush2" points="758,217 751,216 743,214 732,212 721,210 708,208 693,206 678,204 661,202 642,200 623,199 603,197 581,196 559,195 536,195 512,195 487,195 461,196 435,198 408,200 381,203 353,207 325,211 296,216 267,222 238,229 209,237 179,246 150,256 121,267 91,280 62,293 33,308 33,308 45,305 60,303 77,301 95,300 116,299 137,298 161,297 185,297 211,297 237,298 264,298 292,299 320,300 348,301 376,302 404,303 432,305 459,306 485,308 511,309 535,311 559,313 580,314 601,315 619,317 636,318 651,319 663,320 673,321 680,322 684,322 686,322 698,311 709,299 719,287 729,274 737,260 745,246 752,232 758,217"/>
<polygon class="pen1 brush0" points="906,89 916,89 929,90 942,92 956,95 971,98 986,103 1001,108 1015,115 1029,123 1041,132 1052,143 1061,155 1068,168 1072,184 1073,200 1071,219 1067,237 1060,253 1052,266 1041,277 1030,287 1017,294 1004,300 990,304 976,307 962,309 948,310 934,310 922,310 910,308 900,307 892,305 888,322 889,325 894,327 903,329 914,331 928,332 943,333 960,332 978,329 996,325 1014,319 1032,311 1048,301 1063,288 1076,272 1087,252 1094,230 1098,237 1109,256 1123,286 1138,324 1151,369 1159,418 1159,469 1149,520 1139,544 1125,566 1109,586 1090,603 1069,617 1046,629 1023,638 1000,644 977,648 955,649 935,647 916,642 900,634 886,623 877,608 871,591 861,521 856,464 852,422 845,396 840,387 834,379 828,370 822,362 816,355 811,348 806,343 802,339 805,335 812,324 822,308 834,288 846,266 858,244 868,224 875,207 880,190 886,172 891,152 896,133 900,116 903,102 905,92 906,89"/>
<polygon class="pen1 brush0" points="1213,1194 1258,1294 1284,1194 1213,1194"/>
<polygon class="pen1 brush0" points="1213,1194 1197,1294 1146,1194 1213,1194"/>
<polygon class="pen1 brush0" points="1020,1231 1006,1331 956,1231 1020,1231"/>
<polygon class="pen1 brush0" points="1020,1231 1067,1331 1092,1231 1020,1231"/>
<polygon class="pen1 brush0" points="41,271 39,271 42,267 48,259 58,248 70,235 84,220 100,204 117,188 135,173 152,159 170,147 187,137 202,131 215,129 226,131 234,139 238,149 238,160 234,169 226,179 216,188 203,197 188,205 172,213 154,221 136,229 118,236 100,244 83,251 67,258 53,264 41,271"/>
<polygon class="pen1 brush2" points="964,229 971,228 977,226 983,223 989,219 993,213 996,207 998,201 999,194 998,187 996,181 993,176 989,171 983,167 977,164 971,163 964,162 957,163 951,164 946,167 941,171 937,176 934,181 933,187 932,194 933,201 934,207 937,213 941,219 946,223 951,226 957,228 964,229"/>
</g>
</svg>
