<?xml version="1.0" encoding="UTF-8" standalone="no"?>
<!DOCTYPE svg PUBLIC "-//W3C//DTD SVG 1.0//EN" "http://www.w3.org/TR/2001/REC-SVG-20010904/DTD/svg10.dtd">
<svg xmlns="http://www.w3.org/2000/svg" xmlns:xlink="http://www.w3.org/1999/xlink" fill-rule="evenodd" height="1.995in" preserveAspectRatio="none" stroke-linecap="round" viewBox="0 0 1983 1995" width="1.983in">
<style type="text/css">
.brush0 { fill: rgb(255,255,255); }
.pen0 { stroke: rgb(0,0,0); stroke-width: 1; stroke-linejoin: round; }
.brush1 { fill: none; }
.pen1 { stroke: none; }
.brush2 { fill: rgb(0,0,0); }
</style>
<g>
<polygon class="pen1 brush2" points="946,358 929,360 912,361 894,364 876,366 859,368 841,370 824,372 808,373 792,375 778,375 765,375 753,374 742,372 734,369 727,365 723,359 717,343 715,327 717,313 722,299 730,286 741,273 755,261 770,250 787,240 805,231 824,222 844,214 864,206 883,200 902,194 920,189 872,27 979,152 983,152 1091,27 1044,183 1062,188 1081,194 1101,201 1122,209 1143,217 1163,226 1183,236 1202,246 1218,258 1233,270 1246,283 1256,296 1262,311 1265,326 1263,342 1257,359 1253,364 1246,369 1237,371 1226,373 1213,374 1199,374 1184,373 1167,372 1150,370 1132,368 1114,366 1095,364 1077,361 1059,359 1041,357 1024,356 1024,193 1011,189 998,187 985,187 973,188 962,189 954,191 948,192 946,193 946,358 946,358"/>
<polygon class="pen1 brush2" points="737,460 697,457 670,443 656,422 650,395 651,365 656,335 663,307 669,283 678,247 680,223 675,208 662,200 656,200 651,202 648,205 646,209 528,0 517,4 641,219 625,267 610,311 601,350 598,383 600,412 606,436 615,456 627,473 641,486 656,496 671,504 686,509 700,513 712,515 721,517 728,517 730,517 729,490 732,472 735,463 737,460 737,460"/>
<polygon class="pen1 brush2" points="1251,460 1253,463 1256,472 1259,490 1258,517 1260,517 1266,517 1276,515 1288,513 1302,509 1317,504 1332,496 1347,486 1361,473 1373,456 1382,436 1388,412 1390,383 1387,350 1379,311 1364,267 1349,220 1470,4 1460,1 1342,210 1339,205 1337,202 1332,200 1325,200 1313,208 1309,223 1311,247 1320,283 1326,307 1333,335 1338,365 1339,395 1333,422 1318,443 1291,457 1251,460 1251,460"/>
<polygon class="pen1 brush2" points="993,706 1017,705 1041,702 1064,697 1086,691 1107,683 1127,673 1145,662 1163,649 1178,636 1192,621 1204,605 1214,588 1222,571 1228,552 1232,533 1233,514 1232,495 1228,478 1223,461 1215,445 1205,430 1194,416 1181,402 1166,389 1155,388 1144,386 1132,385 1121,383 1109,382 1097,380 1085,379 1073,377 1061,376 1050,374 1038,373 1027,373 1016,372 1006,372 996,372 987,372 977,372 966,372 956,373 946,373 936,374 926,375 916,376 906,377 895,378 885,379 875,381 865,382 855,383 845,384 834,385 824,386 809,400 795,414 784,428 774,444 766,460 761,477 757,495 756,514 757,533 761,552 767,571 775,588 785,605 796,621 810,636 825,649 842,662 860,673 880,683 901,691 922,697 945,702 969,705 993,706 993,706"/>
<polygon class="pen1 brush2" points="1244,525 1246,527 1250,532 1258,541 1267,554 1271,580 1277,613 1285,653 1297,696 1312,741 1330,787 1352,833 1379,875 1388,899 1398,926 1410,957 1423,990 1439,1025 1456,1061 1475,1097 1497,1132 1466,1131 1437,1127 1410,1119 1385,1108 1362,1094 1342,1077 1323,1058 1305,1038 1290,1015 1276,991 1263,967 1252,941 1242,915 1234,888 1226,862 1220,836 1240,767 1251,708 1257,658 1257,616 1255,582 1251,556 1246,537 1244,525 1244,525"/>
<polygon class="pen1 brush2" points="1274,565 1278,587 1283,613 1289,643 1298,675 1308,709 1319,744 1333,779 1349,813 1368,847 1389,878 1412,907 1438,932 1468,953 1500,968 1535,978 1574,981 1551,947 1527,914 1505,882 1482,850 1460,820 1438,790 1418,761 1397,733 1378,707 1360,682 1342,658 1326,636 1311,615 1297,597 1285,580 1274,565 1274,565"/>
<polygon class="pen1 brush2" points="1575,984 1560,984 1546,983 1533,981 1519,979 1506,975 1494,971 1482,965 1470,959 1459,953 1448,946 1438,938 1428,929 1418,920 1409,911 1400,900 1391,890 1400,915 1411,944 1423,975 1437,1008 1453,1042 1471,1077 1490,1111 1512,1144 1536,1176 1562,1204 1591,1230 1622,1251 1656,1267 1692,1278 1732,1283 1774,1280 1762,1262 1751,1244 1739,1225 1727,1207 1715,1188 1702,1170 1690,1151 1677,1132 1664,1114 1652,1095 1639,1076 1626,1058 1613,1039 1601,1021 1588,1002 1575,984 1575,984"/>
<polygon class="pen1 brush2" points="1777,1284 1800,1320 1822,1356 1842,1390 1862,1424 1880,1456 1897,1486 1912,1514 1925,1541 1887,1549 1849,1548 1814,1540 1780,1525 1748,1504 1718,1478 1689,1448 1663,1416 1639,1383 1616,1348 1597,1314 1579,1281 1564,1250 1552,1223 1542,1200 1535,1183 1546,1196 1558,1208 1571,1220 1584,1231 1597,1241 1611,1251 1625,1259 1640,1266 1656,1273 1671,1278 1688,1282 1705,1285 1722,1287 1740,1287 1758,1286 1777,1284 1777,1284"/>
<polygon class="pen1 brush2" points="1926,1544 1911,1549 1896,1553 1881,1555 1867,1555 1852,1555 1838,1553 1824,1549 1811,1545 1797,1540 1784,1534 1771,1526 1758,1518 1746,1510 1733,1500 1722,1490 1710,1479 1718,1492 1728,1509 1740,1528 1754,1550 1769,1573 1785,1598 1803,1623 1821,1649 1840,1675 1859,1700 1879,1725 1898,1748 1918,1769 1936,1787 1955,1803 1972,1815 1975,1790 1977,1763 1977,1735 1974,1706 1970,1676 1963,1645 1954,1614 1943,1582 1939,1573 1935,1564 1931,1554 1926,1544 1926,1544"/>
<polygon class="pen1 brush2" points="1970,1821 1964,1843 1956,1864 1947,1882 1937,1899 1924,1914 1911,1926 1896,1936 1879,1943 1861,1931 1842,1916 1823,1900 1803,1882 1783,1862 1762,1842 1742,1820 1722,1798 1702,1775 1682,1753 1663,1730 1645,1708 1627,1686 1611,1666 1596,1646 1582,1628 1594,1641 1608,1653 1622,1664 1637,1674 1652,1684 1668,1692 1685,1699 1702,1705 1720,1709 1738,1712 1756,1714 1774,1714 1793,1712 1811,1709 1830,1703 1848,1696 1863,1717 1879,1736 1895,1755 1911,1772 1926,1787 1941,1801 1956,1812 1970,1821 1970,1821"/>
<polygon class="pen1 brush2" points="1872,1946 1856,1935 1840,1922 1822,1907 1804,1891 1785,1874 1766,1855 1746,1836 1726,1815 1706,1793 1685,1770 1665,1746 1644,1722 1624,1698 1604,1672 1584,1647 1565,1621 1544,1623 1524,1623 1504,1623 1485,1620 1467,1617 1449,1613 1432,1608 1415,1602 1430,1618 1445,1633 1460,1649 1475,1664 1490,1680 1505,1695 1521,1710 1536,1725 1551,1740 1566,1755 1581,1770 1595,1785 1610,1799 1624,1814 1638,1829 1652,1843 1668,1860 1683,1875 1699,1888 1714,1901 1729,1912 1744,1921 1758,1929 1772,1936 1786,1941 1799,1945 1812,1948 1825,1950 1837,1951 1849,1950 1861,1949 1872,1946 1872,1946"/>
<polygon class="pen1 brush2" points="1403,1589 1421,1597 1439,1603 1457,1608 1477,1612 1497,1615 1517,1617 1539,1617 1561,1615 1546,1594 1531,1573 1517,1552 1504,1531 1491,1510 1479,1490 1468,1470 1457,1450 1438,1452 1419,1453 1401,1452 1384,1451 1367,1449 1352,1446 1336,1442 1322,1437 1308,1432 1295,1426 1282,1419 1271,1412 1259,1404 1249,1396 1238,1388 1229,1379 1238,1392 1247,1406 1257,1419 1267,1432 1277,1445 1288,1459 1298,1472 1309,1485 1320,1498 1332,1511 1343,1524 1355,1537 1367,1550 1379,1563 1391,1576 1403,1589 1403,1589"/>
<polygon class="pen1 brush2" points="1213,1356 1223,1367 1233,1377 1244,1387 1256,1396 1268,1405 1281,1413 1295,1420 1310,1427 1325,1433 1341,1438 1357,1442 1375,1445 1393,1447 1413,1448 1433,1448 1454,1446 1445,1429 1437,1411 1430,1395 1423,1378 1417,1362 1413,1347 1409,1332 1406,1318 1406,1318 1382,1278 1360,1237 1342,1195 1325,1153 1312,1113 1300,1075 1291,1042 1283,1014 1272,995 1261,975 1251,954 1243,933 1235,912 1228,890 1222,869 1217,848 1212,864 1206,880 1200,896 1193,913 1186,930 1179,947 1171,965 1162,984 1145,1032 1136,1079 1134,1126 1138,1173 1149,1219 1166,1265 1187,1311 1213,1356 1213,1356"/>
<polygon class="pen1 brush2" points="1501,1138 1484,1138 1468,1137 1452,1135 1436,1132 1421,1128 1407,1123 1393,1117 1379,1110 1366,1102 1354,1094 1342,1085 1331,1075 1321,1065 1311,1054 1302,1043 1293,1031 1301,1058 1310,1089 1320,1122 1333,1158 1347,1195 1363,1232 1382,1269 1403,1304 1426,1338 1452,1368 1481,1395 1514,1417 1549,1434 1588,1444 1631,1448 1677,1443 1643,1398 1613,1352 1586,1306 1565,1263 1547,1226 1534,1196 1527,1176 1524,1169 1524,1169 1518,1161 1513,1154 1507,1146 1501,1138 1501,1138"/>
<polygon class="pen1 brush2" points="1682,1447 1660,1450 1639,1451 1619,1451 1600,1449 1581,1446 1562,1441 1545,1435 1528,1428 1511,1419 1496,1410 1481,1399 1466,1388 1453,1375 1440,1362 1428,1349 1416,1334 1423,1353 1432,1377 1445,1407 1461,1439 1480,1475 1501,1511 1525,1548 1552,1583 1581,1617 1612,1647 1646,1672 1681,1692 1719,1705 1759,1710 1801,1706 1844,1691 1815,1651 1788,1611 1763,1573 1740,1538 1722,1507 1707,1484 1698,1468 1695,1463 1695,1463 1691,1459 1688,1455 1685,1451 1682,1447 1682,1447"/>
<polygon class="pen1 brush2" points="739,525 737,537 733,556 729,582 727,616 727,658 733,708 744,767 764,836 758,862 750,888 742,915 732,941 721,967 708,991 694,1015 678,1038 661,1058 642,1077 621,1094 598,1108 574,1119 547,1127 518,1131 487,1132 508,1097 528,1061 545,1025 561,990 574,957 586,926 596,899 605,875 631,833 653,787 671,741 686,696 698,653 707,613 713,580 717,554 726,541 733,532 738,527 739,525 739,525"/>
<polygon class="pen1 brush2" points="709,565 698,580 686,597 672,615 657,636 641,658 623,682 605,707 586,733 565,761 545,790 523,820 501,850 478,882 456,914 432,947 409,981 448,978 483,968 516,953 545,932 571,907 595,878 616,847 634,813 650,779 664,744 676,709 686,675 694,643 700,613 705,587 709,565 709,565"/>
<polygon class="pen1 brush2" points="409,984 396,1002 383,1021 370,1039 357,1058 344,1076 331,1095 318,1114 306,1132 293,1151 281,1170 269,1188 257,1207 245,1225 233,1244 221,1262 210,1280 252,1283 291,1278 328,1267 362,1251 393,1230 422,1204 448,1176 472,1144 494,1111 513,1077 531,1042 547,1008 561,975 574,944 585,915 594,890 585,900 576,911 567,920 557,929 547,938 536,946 525,953 514,959 503,965 491,971 478,975 465,979 452,981 438,983 424,984 409,984 409,984"/>
<polygon class="pen1 brush2" points="206,1284 225,1286 244,1287 262,1287 279,1285 296,1282 312,1278 328,1273 343,1266 358,1259 372,1251 386,1241 399,1231 412,1220 424,1208 436,1196 447,1183 440,1200 431,1223 418,1250 403,1281 386,1314 366,1348 344,1383 320,1416 294,1448 266,1478 236,1504 204,1525 170,1540 135,1548 98,1549 60,1541 73,1514 87,1486 104,1456 122,1424 141,1390 162,1356 183,1320 206,1284 206,1284"/>
<polygon class="pen1 brush2" points="58,1544 53,1554 48,1564 44,1573 41,1582 30,1614 20,1645 14,1676 9,1706 7,1735 7,1763 9,1790 13,1815 30,1803 48,1787 67,1769 86,1748 106,1725 125,1700 144,1675 163,1649 181,1623 199,1598 215,1573 230,1550 244,1528 256,1509 266,1492 274,1479 262,1490 251,1500 238,1510 226,1518 213,1526 200,1534 187,1540 174,1545 160,1549 146,1553 132,1555 117,1555 103,1555 88,1553 73,1549 58,1544 58,1544"/>
<polygon class="pen1 brush2" points="14,1821 28,1812 42,1801 57,1787 73,1772 88,1755 104,1736 120,1717 135,1696 153,1703 172,1709 191,1712 209,1714 227,1714 246,1712 264,1709 281,1705 298,1699 315,1692 331,1684 347,1674 361,1664 376,1653 389,1641 401,1628 387,1646 372,1666 356,1686 338,1708 320,1730 301,1753 282,1775 262,1798 242,1820 221,1842 201,1862 181,1882 161,1900 141,1916 122,1931 104,1943 87,1936 72,1926 59,1914 47,1899 36,1882 27,1864 20,1843 14,1821 14,1821"/>
<polygon class="pen1 brush2" points="112,1946 123,1949 134,1950 146,1951 158,1950 171,1948 184,1945 197,1941 211,1936 225,1929 240,1921 254,1912 269,1901 285,1888 300,1875 316,1860 332,1843 345,1829 359,1814 373,1799 388,1785 402,1770 417,1755 432,1740 447,1725 462,1710 477,1695 493,1680 508,1664 523,1649 538,1633 553,1618 568,1602 551,1608 534,1613 516,1617 498,1620 479,1623 459,1623 439,1623 419,1621 400,1647 380,1672 360,1698 340,1722 319,1746 299,1770 278,1793 258,1815 238,1836 218,1855 199,1874 180,1891 162,1907 144,1922 128,1935 112,1946 112,1946"/>
<polygon class="pen1 brush2" points="581,1589 593,1576 605,1563 617,1550 629,1537 641,1524 652,1511 663,1498 675,1485 685,1472 696,1459 707,1445 717,1432 727,1419 737,1406 747,1392 756,1379 746,1388 736,1396 725,1404 713,1412 701,1419 688,1426 675,1432 661,1437 647,1442 632,1446 616,1449 600,1451 583,1452 565,1453 546,1452 527,1450 516,1470 505,1490 492,1510 479,1531 466,1552 452,1573 437,1594 422,1615 444,1617 466,1617 487,1615 507,1612 526,1608 545,1603 563,1597 581,1589 581,1589"/>
<polygon class="pen1 brush2" points="770,1356 796,1311 818,1265 834,1219 845,1173 850,1126 848,1079 838,1032 821,984 812,965 804,947 797,930 790,913 783,896 778,880 772,864 767,848 761,869 755,890 748,912 741,933 732,954 723,975 713,995 702,1014 694,1042 684,1075 672,1113 659,1153 643,1195 624,1237 603,1278 578,1318 578,1318 575,1332 571,1347 566,1362 560,1378 553,1395 546,1411 537,1429 528,1446 549,1448 570,1448 589,1447 608,1445 626,1442 643,1438 659,1433 674,1427 689,1420 702,1413 715,1405 728,1396 739,1387 750,1377 760,1367 770,1356 770,1356"/>
<polygon class="pen1 brush2" points="483,1138 477,1146 472,1154 466,1161 460,1169 460,1169 457,1176 449,1196 437,1226 419,1263 397,1306 370,1352 340,1398 305,1443 352,1448 394,1444 433,1434 469,1417 501,1395 531,1368 557,1338 581,1304 602,1269 620,1232 637,1195 651,1158 664,1122 675,1089 684,1058 692,1031 683,1043 674,1054 664,1065 654,1075 642,1085 631,1094 618,1102 605,1110 592,1117 578,1123 563,1128 548,1132 532,1135 516,1137 500,1138 483,1138 483,1138"/>
<polygon class="pen1 brush2" points="302,1447 299,1451 296,1455 292,1459 288,1463 290,1463 287,1468 278,1484 263,1507 245,1538 222,1573 196,1611 168,1651 139,1691 182,1706 224,1710 264,1705 302,1692 338,1672 371,1647 403,1617 432,1583 458,1548 482,1511 504,1475 522,1439 538,1407 551,1377 561,1353 567,1334 556,1349 543,1362 531,1375 517,1388 503,1399 488,1410 473,1419 456,1428 439,1435 422,1441 403,1446 384,1449 365,1451 345,1451 324,1450 302,1447 302,1447"/>
<polygon class="pen1 brush2" points="1237,521 1237,522 1237,524 1237,525 1237,527 1238,528 1240,530 1241,532 1243,534 1241,529 1240,526 1238,523 1237,521 1237,521"/>
<polygon class="pen1 brush2" points="1260,1436 1258,1483 1255,1527 1252,1567 1248,1604 1242,1638 1235,1668 1226,1695 1215,1719 1202,1740 1186,1758 1168,1774 1146,1786 1121,1795 1092,1802 1060,1806 1023,1808 983,1807 947,1803 916,1796 889,1786 865,1773 846,1756 829,1736 815,1712 804,1684 794,1653 787,1617 781,1578 776,1535 771,1487 768,1435 764,1379 793,1331 818,1282 838,1233 851,1184 858,1135 857,1085 847,1034 829,984 786,879 758,789 742,714 736,652 736,604 739,567 744,541 747,525 749,525 751,544 755,563 762,582 770,599 781,616 793,632 807,647 823,661 840,674 859,685 879,695 900,703 922,710 945,715 969,718 993,719 1017,718 1041,715 1064,710 1085,704 1106,696 1126,686 1144,675 1162,663 1177,650 1191,635 1204,620 1214,604 1223,587 1230,569 1235,551 1237,533 1241,552 1246,580 1249,618 1248,666 1240,727 1224,799 1196,885 1155,984 1143,1013 1135,1042 1129,1071 1126,1099 1126,1128 1128,1157 1133,1185 1140,1213 1149,1242 1160,1270 1172,1298 1187,1326 1203,1353 1221,1381 1240,1409 1260,1436 1260,1436"/>
<polygon class="pen1 brush2" points="747,527 747,525 747,525 747,527 747,527"/>
<polygon class="pen1 brush2" points="802,1781 809,1774 811,1760 810,1742 804,1722 800,1712 796,1702 791,1694 786,1687 781,1682 776,1678 771,1676 767,1676 761,1683 759,1696 761,1714 766,1735 768,1743 769,1749 771,1754 774,1759 645,1987 655,1995 784,1771 789,1776 794,1779 798,1781 802,1781 802,1781"/>
<polygon class="pen1 brush2" points="1231,1781 1236,1781 1240,1779 1245,1776 1250,1771 1379,1995 1391,1987 1260,1759 1264,1754 1265,1749 1266,1743 1268,1735 1273,1714 1275,1696 1273,1683 1267,1676 1263,1676 1258,1678 1253,1682 1248,1687 1243,1694 1238,1702 1234,1712 1230,1722 1224,1742 1223,1760 1225,1774 1231,1781"/>
</g>
</svg>
