<?xml version="1.0" encoding="UTF-8" standalone="no"?>
<!DOCTYPE svg PUBLIC "-//W3C//DTD SVG 1.0//EN" "http://www.w3.org/TR/2001/REC-SVG-20010904/DTD/svg10.dtd">
<svg xmlns="http://www.w3.org/2000/svg" xmlns:xlink="http://www.w3.org/1999/xlink" fill-rule="evenodd" height="1.917in" preserveAspectRatio="none" stroke-linecap="round" viewBox="0 0 2021 1917" width="2.021in">
<style type="text/css">
.brush0 { fill: rgb(255,255,255); }
.pen0 { stroke: rgb(0,0,0); stroke-width: 1; stroke-linejoin: round; }
.brush1 { fill: none; }
.pen1 { stroke: none; }
.brush2 { fill: rgb(0,0,0); }
</style>
<g>
<polygon class="pen1 brush2" points="1119,1111 1133,1116 1152,1123 1175,1131 1202,1139 1232,1149 1263,1159 1297,1169 1331,1179 1365,1189 1399,1198 1431,1207 1461,1215 1489,1221 1513,1226 1533,1229 1548,1230 1552,1232 1559,1237 1569,1246 1580,1256 1592,1268 1603,1281 1614,1294 1623,1307 1628,1313 1640,1327 1657,1346 1679,1372 1705,1402 1733,1437 1764,1475 1797,1515 1830,1558 1863,1602 1894,1646 1924,1690 1952,1733 1976,1774 1995,1813 2010,1848 1626,1418 1616,1426 2017,1875 2018,1882 2019,1890 2020,1897 2019,1904 2019,1909 2017,1913 2015,1915 2012,1917 1566,1460 1558,1469 1995,1917 1980,1911 1962,1902 1940,1889 1916,1872 1890,1852 1861,1829 1830,1803 1798,1775 1764,1745 1728,1714 1692,1680 1655,1646 1617,1610 1579,1574 1541,1537 1503,1500 1466,1463 1429,1427 1393,1391 1358,1356 1325,1323 1293,1290 1264,1260 1236,1232 1210,1206 1188,1182 1168,1162 1151,1144 1137,1130 1127,1120 1121,1113 1119,1111 1119,1111"/>
<polygon class="pen1 brush2" points="846,982 721,1088 829,1198 787,1100 846,1041 916,1105 906,1171 964,1105 846,982 846,982"/>
<polygon class="pen1 brush2" points="163,118 165,119 170,124 177,130 187,139 199,149 213,161 227,173 242,187 258,201 273,214 289,228 303,241 315,253 327,264 336,274 342,281 356,306 362,330 358,355 346,382 328,413 315,436 307,453 303,467 301,477 302,487 305,497 308,510 331,576 360,636 395,689 433,735 475,776 519,811 564,841 608,867 652,888 693,906 731,920 765,931 793,940 815,947 829,951 835,955 819,943 801,929 780,913 758,894 734,874 709,851 683,828 656,803 629,777 603,750 577,722 552,695 528,667 505,639 484,612 466,585 453,561 448,540 450,522 459,507 472,495 490,486 511,478 534,473 558,469 582,467 605,465 626,465 644,465 658,465 668,466 671,466 621,470 581,476 549,484 524,493 507,503 495,513 489,524 487,535 488,546 491,556 497,565 503,574 510,581 515,586 519,590 521,591 554,633 587,673 619,710 651,745 682,779 713,810 744,840 774,867 805,893 835,918 865,941 896,962 926,982 957,1001 988,1019 1020,1035 1051,1051 1083,1066 1116,1080 1150,1093 1184,1105 1218,1117 1254,1129 1290,1140 1328,1151 1366,1161 1405,1172 1446,1182 1487,1193 1530,1203 1574,1214 1620,1225 1676,1237 1715,1243 1737,1243 1746,1238 1743,1229 1730,1216 1709,1201 1682,1183 1650,1165 1617,1147 1583,1129 1551,1113 1523,1099 1500,1088 1485,1081 1480,1078 1467,1050 1451,1020 1433,990 1412,958 1388,927 1363,894 1335,861 1306,828 1276,795 1244,762 1211,728 1177,695 1143,663 1108,630 1073,598 1039,567 1004,537 970,508 937,479 904,452 873,426 843,402 815,379 788,357 764,338 741,320 721,304 704,291 690,279 678,270 670,264 666,260 660,253 654,244 646,233 638,219 627,203 616,187 603,169 588,151 571,132 553,113 533,95 510,77 485,61 458,46 428,32 396,21 372,14 349,10 327,7 308,6 289,6 272,8 257,12 243,16 222,25 205,37 191,50 181,64 172,78 167,92 164,106 163,118 163,118"/>
<polygon class="pen1 brush2" points="308,287 310,290 316,298 322,310 328,324 331,340 330,357 322,374 306,389 286,399 268,399 253,392 241,381 230,369 223,357 219,348 217,344 228,342 240,338 253,332 266,323 278,314 290,305 300,295 308,287 308,287"/>
<polygon class="pen1 brush2" points="156,141 292,270 279,286 263,297 244,304 225,308 207,309 193,309 183,308 179,308 177,345 169,385 160,416 156,429 111,343 90,276 87,225 98,189 115,165 134,150 150,143 156,141"/>
<polygon class="pen1 brush0" points="322,169 332,167 340,161 346,152 348,142 346,132 340,124 332,119 322,117 312,119 303,124 297,132 295,142 297,152 303,161 312,167 322,169"/>
<polygon class="pen1 brush0" points="406,297 328,222 329,221 334,217 340,212 349,207 359,204 370,203 383,206 396,213 406,224 412,238 414,251 414,265 412,278 409,288 407,294 406,297"/>
</g>
</svg>
