<?xml version="1.0" encoding="UTF-8" standalone="no"?>
<!DOCTYPE svg PUBLIC "-//W3C//DTD SVG 1.0//EN" "http://www.w3.org/TR/2001/REC-SVG-20010904/DTD/svg10.dtd">
<svg xmlns="http://www.w3.org/2000/svg" xmlns:xlink="http://www.w3.org/1999/xlink" fill-rule="evenodd" height="0.971in" preserveAspectRatio="none" stroke-linecap="round" viewBox="0 0 1970 971" width="1.97in">
<style type="text/css">
.brush0 { fill: rgb(255,255,255); }
.pen0 { stroke: rgb(0,0,0); stroke-width: 1; stroke-linejoin: round; }
.brush1 { fill: none; }
.pen1 { stroke: none; }
.brush2 { fill: rgb(0,0,0); }
</style>
<g>
<polygon class="pen1 brush2" points="1369,411 1361,400 1354,387 1349,374 1343,361 1336,348 1327,335 1316,323 1301,313 1315,361 1321,404 1319,441 1311,474 1297,503 1278,529 1257,553 1233,576 1233,579 1234,589 1236,602 1242,618 1253,636 1269,654 1293,670 1325,684 1172,944 1167,945 1153,947 1134,949 1112,950 1091,950 1073,947 1061,939 1058,927 1061,913 1068,901 1077,892 1088,884 1101,878 1114,873 1127,869 1139,866 1144,857 1152,842 1163,822 1175,800 1187,777 1199,756 1210,737 1219,724 1192,713 1167,699 1143,683 1120,665 1099,646 1080,624 1062,601 1045,577 1030,552 1016,526 1004,500 994,473 985,445 977,417 971,390 967,362 968,394 970,427 975,461 982,495 991,529 1002,562 1015,593 1030,622 1028,623 1022,624 1013,627 1001,631 987,635 970,639 950,644 930,648 908,653 885,657 861,660 837,662 813,664 789,664 766,663 744,660 746,638 747,614 747,588 745,561 740,536 733,512 723,491 709,474 719,523 723,578 718,633 704,680 690,712 674,747 657,782 640,816 624,848 610,876 599,898 592,913 586,923 580,931 574,938 570,944 566,949 563,952 561,954 560,955 544,954 528,955 512,956 497,957 484,956 473,953 463,947 457,936 458,929 463,921 472,912 483,902 498,892 514,882 532,874 551,866 553,859 560,841 569,815 579,784 590,753 600,724 607,701 611,688 611,681 607,674 601,666 592,657 581,645 568,630 554,612 540,589 538,591 533,597 531,610 535,630 531,628 521,621 507,610 490,597 473,582 456,565 442,548 433,531 433,538 434,555 437,580 442,606 429,591 417,574 404,556 392,538 382,518 373,498 366,478 362,458 359,476 357,494 356,513 358,531 350,509 342,487 333,464 326,440 319,417 313,394 309,371 308,349 300,348 289,346 275,343 259,340 241,336 222,332 202,328 182,323 161,319 142,313 123,308 106,303 91,298 78,292 68,287 61,282 64,276 71,260 76,240 77,220 81,219 91,218 105,215 123,211 141,205 159,199 174,192 186,184 196,174 206,162 217,149 229,137 241,125 253,114 265,107 277,102 277,91 278,64 280,31 284,0 286,1 290,5 296,12 304,21 313,33 322,48 331,65 339,86 340,84 345,78 351,68 360,57 371,45 384,32 398,19 413,8 414,17 417,41 418,75 417,113 421,115 430,121 445,130 462,141 481,153 500,167 517,180 531,193 537,200 545,208 553,218 564,228 577,239 593,249 614,257 638,264 668,269 704,271 745,270 794,264 850,255 914,240 987,220 1069,193 1091,187 1112,182 1134,180 1156,180 1177,181 1199,184 1220,189 1240,196 1260,204 1279,214 1297,224 1315,236 1331,249 1346,264 1360,279 1372,295 1376,301 1382,307 1389,314 1398,320 1408,327 1420,332 1433,337 1449,340 1465,341 1484,341 1505,337 1528,331 1552,322 1579,309 1608,292 1639,271 1671,250 1702,236 1732,227 1761,222 1788,222 1814,225 1839,232 1862,240 1883,251 1902,263 1919,275 1934,287 1947,299 1957,310 1965,319 1970,325 1968,326 1962,327 1953,330 1942,334 1929,340 1917,346 1905,354 1895,362 1865,390 1835,417 1803,441 1771,463 1738,483 1705,499 1671,511 1637,520 1603,525 1569,525 1534,520 1501,510 1467,494 1434,473 1401,445 1369,411 1369,411"/>
<polygon class="pen1 brush2" points="60,221 60,236 58,249 52,261 42,275 40,275 35,274 27,272 18,268 11,264 7,258 6,251 10,241 17,232 25,226 33,222 41,220 49,220 55,220 59,221 60,221"/>
<polygon class="pen1 brush0" points="287,232 296,230 304,225 309,217 311,207 309,198 304,190 296,185 287,183 277,185 269,190 263,198 261,207 263,217 269,225 277,230 287,232"/>
</g>
</svg>
