<?xml version="1.0" encoding="UTF-8" standalone="no"?>
<!DOCTYPE svg PUBLIC "-//W3C//DTD SVG 1.0//EN" "http://www.w3.org/TR/2001/REC-SVG-20010904/DTD/svg10.dtd">
<svg xmlns="http://www.w3.org/2000/svg" xmlns:xlink="http://www.w3.org/1999/xlink" fill-rule="evenodd" height="1.936in" preserveAspectRatio="none" stroke-linecap="round" viewBox="0 0 1979 1936" width="1.979in">
<style type="text/css">
.brush0 { fill: rgb(255,255,255); }
.pen0 { stroke: rgb(0,0,0); stroke-width: 1; stroke-linejoin: round; }
.brush1 { fill: none; }
.pen1 { stroke: none; }
.brush2 { fill: rgb(0,0,0); }
</style>
<g>
<polygon class="pen1 brush2" points="663,1575 667,1615 670,1656 674,1696 677,1737 678,1751 678,1763 675,1774 671,1784 666,1794 660,1804 653,1815 646,1826 643,1832 641,1838 640,1843 639,1850 636,1871 630,1892 621,1912 611,1931 531,1931 527,1921 526,1910 528,1899 533,1887 539,1877 546,1866 553,1857 559,1850 565,1844 570,1838 575,1832 580,1827 584,1821 588,1815 592,1808 596,1801 612,1747 618,1690 615,1633 606,1578 663,1575 663,1575"/>
<polygon class="pen1 brush2" points="598,1551 593,1527 589,1503 584,1480 579,1456 658,1456 660,1554 652,1554 645,1554 637,1553 629,1553 622,1552 614,1552 606,1551 598,1551 598,1551"/>
<polygon class="pen1 brush2" points="575,1427 572,1412 569,1398 567,1384 565,1369 575,1365 585,1361 595,1357 605,1353 615,1349 625,1345 635,1342 645,1339 554,1304 545,1265 662,1265 659,1426 575,1427 575,1427"/>
<polygon class="pen1 brush2" points="538,1229 534,1217 529,1204 524,1192 520,1180 537,1180 555,1179 574,1178 592,1177 611,1175 630,1174 648,1171 666,1169 666,1184 665,1198 664,1212 663,1227 648,1227 632,1227 616,1228 601,1228 585,1228 569,1229 553,1229 538,1229 538,1229"/>
<polygon class="pen1 brush2" points="811,1555 746,1554 747,1592 748,1629 749,1666 748,1703 747,1720 746,1737 745,1755 742,1773 737,1790 731,1806 723,1821 713,1835 703,1845 693,1855 684,1866 676,1878 670,1890 667,1903 666,1917 669,1931 750,1931 760,1913 769,1893 775,1873 777,1852 780,1837 785,1823 792,1810 799,1797 806,1784 812,1770 816,1754 817,1737 815,1691 813,1646 812,1601 811,1555 811,1555"/>
<polygon class="pen1 brush2" points="746,1531 743,1440 811,1466 811,1531 746,1531 746,1531"/>
<polygon class="pen1 brush2" points="743,1434 737,1369 809,1368 808,1409 743,1434 743,1434"/>
<polygon class="pen1 brush2" points="734,1342 727,1290 808,1290 809,1342 734,1342 734,1342"/>
<polygon class="pen1 brush2" points="721,1265 713,1233 777,1170 819,1217 814,1229 811,1240 810,1252 809,1264 721,1265 721,1265"/>
<polygon class="pen1 brush2" points="699,1200 791,1122 842,1190 849,1185 855,1180 861,1175 868,1170 804,1035 677,1173 684,1180 690,1188 694,1194 699,1200 699,1200"/>
<polygon class="pen1 brush2" points="24,567 51,568 72,571 88,578 100,588 107,601 110,618 109,638 105,663 85,663 66,658 49,649 35,637 25,622 19,605 18,586 24,567 24,567"/>
<polygon class="pen1 brush2" points="116,665 122,664 127,663 131,662 136,660 140,659 145,657 150,654 155,652 155,612 155,579 152,554 145,536 132,524 112,519 82,521 41,528 27,555 61,554 86,555 104,560 116,570 122,584 124,605 121,631 116,665 116,665"/>
<polygon class="pen1 brush2" points="165,646 197,626 197,584 197,548 196,518 190,494 178,477 157,467 125,465 78,471 48,514 94,504 127,501 148,505 161,517 167,537 168,565 167,601 165,646 165,646"/>
<polygon class="pen1 brush2" points="207,619 246,589 244,561 243,535 243,512 243,491 242,472 240,456 238,442 234,430 228,421 220,414 210,409 196,407 179,408 159,410 134,415 105,423 84,457 112,449 137,444 157,441 173,442 187,445 197,450 204,458 210,468 213,480 214,495 215,511 214,529 212,549 210,571 209,594 207,619 207,619"/>
<polygon class="pen1 brush2" points="1528,1820 1524,1829 1520,1837 1517,1846 1514,1855 1510,1875 1507,1895 1503,1916 1497,1936 1398,1935 1399,1919 1401,1904 1405,1890 1410,1878 1416,1866 1424,1855 1434,1844 1446,1833 1464,1793 1483,1753 1502,1713 1520,1673 1534,1631 1542,1589 1544,1546 1538,1501 1549,1493 1560,1486 1571,1478 1582,1471 1593,1464 1605,1457 1617,1450 1629,1444 1616,1447 1604,1450 1591,1452 1579,1455 1567,1458 1555,1461 1543,1465 1531,1469 1500,1372 1598,1315 1584,1318 1571,1322 1557,1326 1544,1330 1531,1334 1518,1339 1504,1344 1491,1349 1453,1261 1565,1183 1546,1186 1529,1189 1512,1193 1497,1198 1481,1204 1466,1212 1452,1222 1437,1234 1433,1227 1427,1220 1422,1214 1416,1207 1434,1173 1454,1140 1476,1106 1500,1074 1525,1042 1552,1012 1581,983 1611,956 1643,932 1676,910 1710,891 1746,875 1783,863 1822,855 1861,851 1902,852 1911,875 1918,898 1923,922 1926,946 1940,983 1951,1020 1959,1056 1965,1093 1967,1131 1967,1168 1963,1207 1956,1246 1961,1271 1964,1294 1965,1316 1965,1337 1961,1358 1955,1379 1946,1401 1934,1423 1920,1372 1916,1320 1918,1268 1921,1216 1923,1164 1920,1112 1908,1061 1883,1011 1879,1023 1874,1034 1869,1045 1863,1057 1843,1057 1823,1057 1804,1057 1785,1057 1766,1058 1748,1058 1729,1060 1712,1062 1694,1064 1676,1068 1658,1072 1641,1077 1623,1084 1605,1092 1587,1101 1569,1112 1586,1111 1604,1109 1621,1108 1638,1107 1655,1106 1672,1105 1689,1104 1706,1104 1722,1104 1739,1105 1756,1106 1772,1108 1789,1110 1806,1113 1822,1117 1839,1122 1835,1133 1831,1145 1827,1156 1822,1168 1818,1179 1813,1191 1809,1202 1804,1214 1790,1213 1776,1213 1762,1212 1748,1212 1734,1212 1720,1212 1707,1212 1693,1212 1680,1213 1667,1214 1653,1216 1640,1218 1626,1221 1612,1224 1599,1228 1585,1233 1598,1234 1610,1235 1623,1236 1635,1237 1648,1238 1660,1239 1673,1240 1685,1241 1698,1242 1710,1243 1723,1245 1735,1246 1748,1247 1760,1248 1773,1250 1785,1251 1757,1336 1740,1337 1723,1338 1706,1339 1690,1341 1674,1343 1658,1347 1641,1351 1625,1358 1746,1375 1727,1486 1645,1497 1726,1513 1720,1550 1711,1586 1699,1622 1686,1658 1673,1694 1661,1730 1652,1767 1646,1804 1640,1837 1640,1869 1638,1902 1629,1935 1531,1935 1531,1920 1533,1906 1536,1893 1539,1881 1544,1869 1550,1857 1558,1845 1567,1833 1580,1799 1592,1766 1603,1732 1612,1699 1620,1665 1626,1630 1630,1595 1632,1558 1528,1820 1528,1820"/>
<polygon class="pen1 brush2" points="408,622 429,627 449,625 466,619 482,608 497,593 510,574 522,553 532,530 542,505 551,479 559,452 567,426 574,401 581,377 588,355 595,336 590,329 584,320 579,311 577,304 466,514 557,277 548,261 452,423 534,240 532,238 530,234 527,230 525,227 443,304 507,197 484,166 513,0 501,13 488,26 476,39 463,52 450,65 437,78 425,91 412,104 414,135 415,165 416,195 415,224 412,252 406,280 397,309 383,338 387,285 390,233 389,182 382,129 377,136 373,150 368,169 364,192 360,216 356,238 352,257 349,270 335,136 329,147 325,158 321,170 318,182 315,194 312,206 309,218 304,230 288,131 272,124 258,114 245,102 233,89 222,75 211,61 199,47 187,34 180,59 177,84 178,110 182,137 188,163 196,189 205,213 213,237 167,317 174,320 182,322 189,325 197,328 204,331 212,334 219,336 227,339 217,340 207,341 198,343 188,344 178,345 169,346 159,347 149,348 112,409 144,394 172,384 194,378 213,377 228,379 240,384 249,393 256,405 260,420 262,437 263,457 262,479 261,503 260,528 259,554 258,582 315,538 312,412 346,511 416,392 412,411 407,430 403,449 397,468 392,487 386,505 381,524 375,542 378,552 382,562 386,572 390,582 395,592 400,602 404,612 408,622 408,622"/>
<polygon class="pen1 brush2" points="413,736 413,652 436,660 458,662 477,658 495,650 511,638 526,622 539,603 552,581 563,558 573,533 582,506 590,480 599,453 606,427 614,402 621,379 626,388 634,400 642,414 649,429 640,459 631,488 623,517 614,545 606,571 596,597 586,621 575,644 562,664 548,683 532,699 514,712 493,723 469,730 443,735 413,736 413,736"/>
<polygon class="pen1 brush2" points="413,859 411,839 411,818 411,797 412,777 444,791 472,797 498,796 521,789 542,776 561,758 578,736 593,710 606,682 618,652 630,621 640,590 649,559 658,530 667,502 676,477 683,489 690,500 696,512 703,524 695,553 686,583 677,615 666,647 654,680 641,711 626,741 610,770 592,796 572,819 551,838 528,853 502,863 475,868 445,867 413,859 413,859"/>
<polygon class="pen1 brush2" points="506,1139 501,1130 497,1121 492,1112 488,1103 484,1095 481,1086 477,1077 473,1068 501,1077 526,1083 548,1085 567,1084 584,1079 598,1072 611,1062 621,1049 631,1035 639,1018 646,1000 653,980 659,959 666,937 672,914 679,890 665,912 654,933 643,952 634,969 625,983 616,996 607,1007 597,1016 586,1022 574,1027 560,1029 543,1029 523,1026 500,1021 474,1013 443,1003 434,980 427,958 422,936 419,913 456,922 489,924 520,919 548,909 573,894 596,874 617,851 636,824 653,794 668,763 682,730 694,696 705,662 715,628 725,596 733,565 767,588 764,665 762,741 763,818 771,895 795,599 852,621 846,670 839,720 831,768 822,817 812,865 799,913 785,960 767,1006 753,1029 739,1049 726,1066 712,1081 699,1094 686,1104 672,1113 658,1120 643,1126 627,1130 610,1133 592,1135 573,1137 552,1138 530,1138 506,1139 506,1139"/>
<polygon class="pen1 brush2" points="906,1163 897,1141 889,1120 881,1098 874,1076 867,1055 859,1033 852,1012 844,990 852,945 859,901 866,856 871,811 876,765 880,720 882,675 883,629 908,633 925,712 936,787 943,859 948,927 954,994 962,1060 975,1126 994,1193 982,1191 970,1188 959,1184 947,1181 936,1177 925,1172 915,1168 906,1163 906,1163"/>
<polygon class="pen1 brush2" points="1173,1217 1183,1218 1192,1218 1200,1219 1207,1219 1214,1219 1222,1219 1230,1218 1241,1217 1229,1144 1229,1071 1236,998 1251,925 1269,852 1291,780 1312,709 1331,638 1237,649 1227,691 1219,733 1211,776 1204,819 1198,862 1192,904 1187,947 1182,990 1173,907 1172,821 1176,735 1182,650 1061,649 1068,791 994,645 936,639 955,708 968,777 976,848 983,918 989,989 996,1060 1007,1131 1024,1202 1037,1205 1050,1207 1063,1209 1077,1211 1090,1213 1103,1215 1116,1216 1129,1217 1116,1172 1104,1128 1094,1084 1087,1040 1082,996 1081,951 1083,906 1088,859 1093,906 1099,952 1106,997 1115,1042 1125,1086 1138,1130 1154,1174 1173,1217 1173,1217"/>
<polygon class="pen1 brush2" points="1273,1217 1277,1217 1281,1217 1285,1216 1289,1216 1294,1216 1298,1215 1303,1214 1308,1213 1314,1169 1322,1125 1333,1083 1346,1042 1361,1001 1378,962 1397,924 1417,886 1440,850 1464,815 1490,780 1517,747 1546,714 1576,682 1607,652 1640,622 1625,620 1610,618 1595,616 1581,615 1566,614 1551,614 1536,614 1521,614 1506,615 1491,616 1476,617 1461,619 1447,621 1432,624 1417,626 1402,629 1376,687 1350,751 1326,820 1303,894 1285,971 1273,1051 1269,1134 1273,1217 1273,1217"/>
<polygon class="pen1 brush2" points="1336,1211 1340,1211 1345,1211 1349,1211 1353,1210 1357,1210 1361,1209 1365,1208 1369,1207 1386,1166 1405,1126 1427,1089 1450,1053 1476,1020 1503,988 1533,958 1564,930 1597,905 1632,881 1668,859 1706,839 1745,820 1786,804 1828,790 1872,777 1859,756 1844,737 1828,718 1811,701 1792,686 1772,672 1750,661 1727,652 1689,675 1653,701 1619,728 1587,758 1557,789 1528,821 1502,855 1478,891 1455,928 1433,966 1414,1005 1395,1045 1379,1085 1363,1127 1349,1169 1336,1211"/>
</g>
</svg>
