<?xml version="1.0" encoding="UTF-8" standalone="no"?>
<!DOCTYPE svg PUBLIC "-//W3C//DTD SVG 1.0//EN" "http://www.w3.org/TR/2001/REC-SVG-20010904/DTD/svg10.dtd">
<svg xmlns="http://www.w3.org/2000/svg" xmlns:xlink="http://www.w3.org/1999/xlink" fill-rule="evenodd" height="2.085in" preserveAspectRatio="none" stroke-linecap="round" viewBox="0 0 2004 2085" width="2.004in">
<style type="text/css">
.brush0 { fill: rgb(255,255,255); }
.pen0 { stroke: rgb(0,0,0); stroke-width: 1; stroke-linejoin: round; }
.brush1 { fill: none; }
.pen1 { stroke: none; }
.brush2 { fill: rgb(0,0,0); }
</style>
<g>
<polygon class="pen1 brush0" points="1253,1886 1264,1885 1275,1882 1284,1877 1292,1870 1299,1862 1304,1852 1307,1842 1308,1830 1307,1819 1304,1809 1299,1800 1292,1792 1284,1785 1275,1780 1264,1777 1253,1776 1242,1777 1232,1780 1223,1785 1215,1792 1208,1800 1203,1809 1200,1819 1199,1830 1200,1842 1203,1852 1208,1862 1215,1870 1223,1877 1232,1882 1242,1885 1253,1886"/>
<polygon class="pen1 brush2" points="1754,1654 1746,1647 1737,1639 1726,1629 1714,1618 1702,1606 1689,1594 1675,1580 1661,1566 1648,1551 1635,1536 1622,1520 1610,1505 1599,1489 1589,1473 1581,1458 1574,1443 1575,1445 1579,1450 1585,1457 1593,1468 1603,1480 1614,1494 1627,1509 1640,1525 1655,1541 1671,1558 1686,1574 1703,1590 1719,1604 1735,1618 1751,1629 1766,1638 1792,1627 1816,1613 1838,1596 1857,1576 1874,1555 1889,1532 1902,1508 1914,1484 1923,1461 1930,1438 1936,1416 1940,1396 1942,1378 1942,1364 1941,1352 1939,1345 1937,1345 1931,1344 1922,1342 1910,1339 1896,1336 1879,1332 1861,1328 1841,1323 1821,1317 1800,1310 1779,1303 1758,1295 1739,1287 1720,1277 1704,1268 1689,1257 1691,1258 1697,1261 1707,1265 1720,1270 1735,1276 1752,1283 1772,1290 1792,1297 1813,1303 1835,1310 1856,1315 1877,1320 1897,1323 1915,1325 1932,1324 1946,1322 1965,1286 1978,1248 1985,1209 1987,1170 1983,1131 1974,1093 1959,1055 1939,1020 1939,1020 1937,1020 1932,1021 1924,1022 1913,1024 1900,1025 1885,1027 1868,1029 1850,1030 1831,1031 1811,1031 1792,1031 1772,1031 1753,1029 1735,1026 1718,1023 1702,1018 1704,1018 1710,1019 1719,1019 1731,1020 1746,1021 1762,1021 1780,1021 1799,1021 1819,1021 1839,1020 1859,1019 1878,1016 1895,1013 1911,1009 1925,1004 1937,998 1930,966 1921,935 1909,904 1894,874 1875,846 1853,821 1827,800 1797,784 1794,787 1789,791 1782,797 1774,804 1764,812 1753,820 1742,829 1729,839 1716,848 1702,858 1688,867 1674,875 1660,883 1646,890 1632,895 1619,899 1621,898 1625,896 1632,892 1642,886 1653,880 1665,872 1679,863 1693,854 1708,844 1722,834 1737,823 1750,812 1762,801 1772,790 1781,780 1787,770 1777,763 1766,755 1753,746 1739,736 1723,726 1706,716 1687,705 1667,694 1646,682 1623,671 1599,660 1575,649 1548,638 1521,628 1493,618 1464,609 1462,621 1459,642 1454,668 1448,698 1439,729 1429,760 1416,788 1402,811 1405,804 1411,787 1420,760 1430,729 1439,694 1446,660 1449,630 1446,605 1425,600 1404,595 1383,591 1362,587 1341,584 1320,581 1299,579 1278,577 1257,576 1236,576 1215,576 1193,577 1172,578 1151,580 1129,582 1108,585 1113,599 1120,619 1128,644 1136,673 1142,703 1147,734 1150,763 1148,790 1147,783 1144,765 1140,738 1134,706 1126,672 1116,639 1104,610 1091,588 1065,593 1040,599 1015,606 990,614 966,622 943,632 920,642 898,653 877,665 856,678 837,691 817,706 799,721 782,737 765,754 750,771 765,775 780,781 795,788 809,797 822,806 836,816 848,826 860,837 871,847 881,858 890,868 899,877 906,886 911,894 916,901 919,906 918,905 914,901 907,895 899,887 889,877 878,867 865,855 851,844 837,832 822,821 808,810 793,801 779,793 766,787 754,783 743,781 723,809 706,839 691,869 680,900 671,933 664,965 660,998 659,1032 662,1032 669,1031 677,1030 687,1028 700,1027 713,1025 728,1024 744,1023 761,1022 778,1021 795,1021 812,1022 828,1023 844,1025 859,1028 872,1032 870,1032 865,1032 856,1031 845,1031 831,1030 816,1030 800,1030 782,1030 764,1031 746,1032 728,1033 711,1035 695,1038 681,1042 669,1047 659,1052 659,1085 661,1119 664,1152 668,1185 673,1218 680,1250 689,1281 699,1311 703,1309 709,1305 716,1301 726,1295 737,1289 749,1283 762,1276 776,1269 791,1262 806,1255 821,1249 837,1243 852,1239 867,1235 881,1232 895,1231 893,1232 888,1233 880,1236 870,1240 857,1244 843,1250 828,1256 812,1262 796,1270 779,1277 764,1285 749,1294 735,1303 723,1311 713,1320 706,1329 715,1349 724,1367 732,1384 741,1399 751,1412 760,1424 770,1435 780,1445 790,1455 801,1463 812,1471 824,1479 837,1486 850,1493 864,1500 879,1508 882,1502 890,1487 903,1465 920,1438 939,1409 961,1381 984,1355 1007,1336 1002,1341 991,1356 973,1377 954,1404 934,1433 916,1462 902,1490 896,1514 911,1519 925,1523 940,1527 955,1530 970,1532 985,1534 1001,1536 1016,1537 1031,1538 1047,1538 1062,1538 1077,1538 1093,1537 1108,1537 1123,1535 1138,1534 1136,1522 1132,1502 1128,1475 1124,1443 1122,1409 1121,1375 1123,1343 1128,1315 1128,1323 1128,1344 1128,1374 1130,1409 1134,1446 1140,1482 1149,1511 1162,1531 1182,1528 1201,1524 1220,1519 1237,1514 1254,1509 1271,1503 1286,1497 1301,1490 1315,1483 1329,1476 1342,1468 1354,1460 1365,1451 1376,1442 1386,1433 1396,1423 1387,1415 1374,1402 1357,1386 1338,1367 1319,1345 1302,1323 1287,1300 1277,1278 1281,1283 1290,1296 1305,1315 1323,1338 1344,1361 1365,1383 1386,1401 1406,1413 1427,1385 1444,1355 1457,1324 1467,1290 1473,1257 1475,1222 1474,1187 1470,1153 1466,1154 1460,1156 1453,1158 1444,1160 1434,1163 1423,1165 1412,1168 1399,1170 1387,1172 1374,1174 1361,1175 1348,1176 1335,1176 1323,1176 1312,1175 1301,1173 1302,1173 1307,1173 1313,1172 1322,1172 1332,1171 1344,1170 1356,1168 1370,1166 1384,1164 1398,1162 1412,1159 1425,1156 1438,1153 1449,1148 1459,1144 1467,1139 1462,1119 1456,1101 1448,1085 1440,1070 1431,1056 1421,1044 1411,1034 1399,1025 1388,1017 1376,1010 1363,1004 1351,999 1338,995 1326,992 1313,989 1301,987 1301,987 1300,991 1298,1002 1295,1019 1290,1039 1284,1061 1277,1082 1268,1102 1257,1119 1259,1115 1263,1103 1269,1086 1276,1065 1283,1043 1288,1021 1291,1000 1290,984 1272,983 1254,984 1237,986 1220,989 1203,994 1187,1000 1171,1008 1157,1017 1144,1027 1133,1039 1123,1052 1116,1067 1110,1083 1106,1100 1105,1119 1107,1139 1111,1156 1119,1173 1130,1191 1143,1207 1158,1221 1174,1233 1190,1241 1206,1246 1203,1258 1186,1253 1167,1244 1148,1230 1130,1212 1114,1192 1101,1169 1092,1144 1089,1119 1093,1082 1106,1051 1125,1025 1151,1004 1181,989 1215,979 1251,975 1288,976 1326,983 1362,995 1396,1013 1426,1037 1452,1066 1473,1101 1486,1142 1491,1189 1490,1237 1484,1281 1474,1321 1459,1358 1441,1391 1419,1421 1394,1447 1365,1470 1333,1490 1299,1507 1261,1521 1221,1533 1179,1542 1135,1549 1088,1553 1040,1555 980,1553 927,1544 879,1529 836,1509 799,1484 767,1454 739,1420 715,1383 695,1344 679,1301 666,1257 656,1212 649,1166 644,1120 642,1073 641,1028 644,976 654,926 669,879 690,834 715,793 746,754 780,718 819,686 861,657 906,631 954,609 1004,590 1056,575 1110,564 1164,558 1220,555 1275,557 1329,562 1381,571 1432,582 1480,596 1527,611 1571,628 1612,646 1651,664 1686,682 1719,700 1747,716 1772,732 1793,745 1809,757 1821,765 1858,716 1889,658 1913,592 1928,522 1934,451 1931,382 1917,319 1892,264 1857,238 1822,213 1786,191 1750,170 1714,151 1678,133 1642,117 1605,102 1569,89 1533,77 1498,66 1462,57 1427,49 1392,42 1358,36 1324,31 1332,62 1342,105 1353,159 1364,219 1373,283 1377,347 1376,407 1368,461 1367,446 1365,406 1361,348 1353,278 1342,204 1327,133 1306,71 1280,25 1256,23 1231,21 1206,19 1180,18 1154,17 1127,17 1100,17 1073,18 1046,19 1019,21 992,23 964,26 937,29 910,33 883,38 856,43 830,50 803,57 777,65 752,73 727,83 703,93 679,104 655,116 633,130 611,144 590,159 570,175 551,192 532,211 515,230 499,251 508,258 520,268 536,281 554,296 573,313 595,332 618,353 641,375 664,398 688,422 710,447 732,473 752,499 769,524 785,550 797,575 795,572 788,564 777,551 763,533 745,513 725,490 703,465 678,439 653,413 626,387 599,362 572,339 545,318 520,301 495,287 472,278 425,294 382,314 341,338 304,366 270,397 240,430 212,467 188,505 166,546 148,589 132,633 120,678 110,724 103,771 99,818 97,865 110,864 127,863 148,862 172,862 198,861 227,861 257,862 288,863 321,865 353,868 386,871 418,876 449,882 478,890 505,899 530,909 526,908 515,907 498,904 476,900 449,897 418,893 385,889 349,886 312,883 275,881 238,880 202,881 168,884 137,888 110,894 87,903 81,927 75,955 70,988 65,1025 62,1065 61,1107 62,1151 66,1197 74,1244 85,1291 101,1337 123,1383 149,1427 182,1469 221,1508 268,1544 274,1538 284,1529 296,1518 311,1504 329,1488 349,1471 370,1454 394,1435 418,1417 443,1398 469,1381 496,1364 522,1350 548,1337 573,1326 598,1318 595,1320 587,1325 574,1333 557,1343 536,1356 513,1371 488,1388 462,1406 435,1426 409,1446 383,1467 359,1488 337,1509 318,1530 302,1550 291,1569 308,1607 327,1644 348,1681 371,1716 396,1749 423,1781 452,1811 483,1838 516,1863 550,1885 586,1904 623,1921 662,1933 702,1942 744,1947 787,1948 788,1928 790,1897 795,1856 801,1811 811,1763 823,1715 838,1671 857,1633 854,1643 846,1670 836,1711 825,1759 816,1812 809,1864 808,1912 814,1950 826,1955 844,1962 867,1969 894,1978 925,1986 960,1993 997,1999 1038,2004 1080,2006 1124,2005 1170,2001 1216,1992 1262,1979 1308,1962 1354,1938 1398,1908 1386,1886 1371,1856 1354,1820 1337,1780 1321,1737 1308,1694 1300,1652 1297,1613 1300,1623 1307,1649 1319,1687 1335,1733 1354,1782 1375,1829 1399,1870 1423,1901 1446,1897 1470,1890 1495,1882 1520,1873 1546,1862 1572,1849 1597,1835 1622,1820 1646,1803 1668,1785 1688,1766 1707,1746 1723,1724 1737,1702 1747,1678 1754,1654"/>
<polygon class="pen1 brush0" points="425,534 432,533 438,531 444,528 449,524 454,519 457,513 459,507 460,500 459,493 457,486 454,480 449,474 444,470 438,467 432,465 425,464 418,465 412,467 406,470 401,474 397,480 394,486 392,493 391,500 392,507 394,513 397,519 401,524 406,528 412,531 418,533 425,534 425,534"/>
<polygon class="pen1 brush0" points="314,784 321,783 328,782 334,779 339,775 343,770 346,764 348,758 349,751 348,744 346,737 343,731 339,726 334,722 328,719 321,717 314,716 307,717 301,719 295,722 290,726 286,731 283,737 281,744 280,751 281,758 283,764 286,770 290,775 295,779 301,782 307,783 314,784 314,784"/>
<polygon class="pen1 brush0" points="565,754 572,753 579,751 585,748 590,744 594,739 597,733 598,727 599,720 598,713 597,706 594,700 590,694 585,690 579,687 572,685 565,684 558,685 552,687 546,690 541,694 536,700 533,706 531,713 530,720 531,727 533,733 536,739 541,744 546,748 552,751 558,753 565,754 565,754"/>
<polygon class="pen1 brush0" points="810,315 817,314 823,312 829,309 834,305 838,300 841,294 843,288 844,281 843,274 841,267 838,261 834,256 829,252 823,249 817,247 810,246 803,247 797,249 791,252 786,256 782,261 779,267 777,274 776,281 777,288 779,294 782,300 786,305 791,309 797,312 803,314 810,315 810,315"/>
<polygon class="pen1 brush0" points="1077,241 1084,240 1090,238 1096,235 1101,231 1105,226 1108,220 1110,214 1111,207 1110,200 1108,193 1105,187 1101,182 1096,178 1090,175 1084,174 1077,173 1070,174 1064,175 1058,178 1053,182 1049,187 1046,193 1045,200 1044,207 1045,214 1046,220 1049,226 1053,231 1058,235 1064,238 1070,240 1077,241 1077,241"/>
<polygon class="pen1 brush0" points="1034,480 1041,479 1048,477 1054,474 1059,469 1063,464 1066,458 1067,452 1068,446 1067,439 1066,432 1063,426 1059,420 1054,416 1048,413 1041,411 1034,410 1027,411 1021,413 1015,416 1010,420 1006,426 1003,432 1001,439 1000,446 1001,452 1003,458 1006,464 1010,469 1015,474 1021,477 1027,479 1034,480 1034,480"/>
<polygon class="pen1 brush0" points="1521,315 1528,314 1535,312 1541,309 1547,305 1551,300 1554,294 1556,288 1557,281 1556,274 1554,267 1551,261 1547,256 1541,252 1535,249 1528,247 1521,246 1514,247 1508,249 1502,252 1497,256 1493,261 1490,267 1488,274 1487,281 1488,288 1490,294 1493,300 1497,305 1502,309 1508,312 1514,314 1521,315 1521,315"/>
<polygon class="pen1 brush0" points="1760,363 1767,362 1774,360 1780,357 1785,353 1789,348 1792,342 1793,335 1794,328 1793,321 1792,315 1789,309 1785,304 1780,300 1774,297 1767,295 1760,294 1753,295 1747,297 1741,300 1736,304 1732,309 1729,315 1727,321 1726,328 1727,335 1729,342 1732,348 1736,353 1741,357 1747,360 1753,362 1760,363 1760,363"/>
<polygon class="pen1 brush0" points="1625,558 1632,557 1639,555 1645,552 1650,548 1654,543 1657,537 1658,531 1659,524 1658,517 1657,511 1654,505 1650,500 1645,496 1639,493 1632,491 1625,490 1618,491 1612,493 1606,496 1601,500 1597,505 1594,511 1592,517 1591,524 1592,531 1594,537 1597,543 1601,548 1606,552 1612,555 1618,557 1625,558 1625,558"/>
<polygon class="pen1 brush0" points="241,1156 248,1155 254,1153 260,1150 266,1145 270,1140 273,1134 275,1128 276,1122 275,1115 273,1108 270,1102 266,1096 260,1092 254,1089 248,1087 241,1086 234,1087 228,1089 222,1092 217,1096 213,1102 210,1108 208,1115 207,1122 208,1128 210,1134 213,1140 217,1145 222,1150 228,1153 234,1155 241,1156 241,1156"/>
<polygon class="pen1 brush0" points="278,1393 285,1392 291,1390 297,1387 302,1383 306,1378 309,1372 311,1366 312,1359 311,1352 309,1345 306,1339 302,1334 297,1330 291,1327 285,1326 278,1325 271,1326 265,1327 259,1330 254,1334 250,1339 247,1345 245,1352 244,1359 245,1366 247,1372 250,1378 254,1383 259,1387 265,1390 271,1392 278,1393 278,1393"/>
<polygon class="pen1 brush0" points="517,1203 524,1202 530,1200 536,1198 541,1193 545,1189 548,1183 550,1176 551,1169 550,1162 548,1156 545,1150 541,1145 536,1141 530,1138 524,1136 517,1135 510,1136 503,1138 497,1141 492,1145 488,1150 485,1156 483,1162 482,1169 483,1176 485,1183 488,1189 492,1193 497,1198 503,1200 510,1202 517,1203 517,1203"/>
<polygon class="pen1 brush0" points="602,1534 609,1533 615,1531 621,1528 626,1524 630,1519 633,1513 635,1507 636,1500 635,1493 633,1486 630,1480 626,1474 621,1470 615,1467 609,1465 602,1464 595,1465 589,1467 583,1470 578,1474 574,1480 571,1486 569,1493 568,1500 569,1507 571,1513 574,1519 578,1524 583,1528 589,1531 595,1533 602,1534 602,1534"/>
<polygon class="pen1 brush0" points="412,1668 419,1667 426,1665 432,1662 437,1658 441,1653 444,1647 445,1640 446,1633 445,1626 444,1620 441,1614 437,1609 432,1605 426,1602 419,1600 412,1599 405,1600 399,1602 393,1605 388,1609 384,1614 381,1620 379,1626 378,1633 379,1640 381,1647 384,1653 388,1658 393,1662 399,1665 405,1667 412,1668 412,1668"/>
<polygon class="pen1 brush0" points="651,1820 658,1819 664,1817 670,1815 675,1810 679,1806 682,1800 684,1793 685,1786 684,1779 682,1773 679,1767 675,1762 670,1758 664,1755 658,1753 651,1752 644,1753 638,1755 632,1758 626,1762 622,1767 619,1773 617,1779 616,1786 617,1793 619,1800 622,1806 626,1810 632,1815 638,1817 644,1819 651,1820 651,1820"/>
<polygon class="pen1 brush0" points="1064,1702 1070,1701 1076,1700 1081,1697 1086,1693 1090,1688 1093,1683 1094,1677 1095,1671 1094,1665 1093,1659 1090,1653 1086,1649 1081,1645 1076,1642 1070,1640 1064,1639 1058,1640 1052,1642 1047,1645 1043,1649 1039,1653 1036,1659 1035,1665 1034,1671 1035,1677 1036,1683 1039,1688 1043,1693 1047,1697 1052,1700 1058,1701 1064,1702 1064,1702"/>
<polygon class="pen1 brush0" points="949,1938 955,1937 961,1936 966,1933 971,1930 975,1926 978,1921 979,1915 980,1909 979,1902 978,1896 975,1891 971,1886 966,1882 961,1879 955,1878 949,1877 943,1878 937,1879 932,1882 928,1886 924,1891 921,1896 920,1902 919,1909 920,1915 921,1921 924,1926 928,1930 932,1933 937,1936 943,1937 949,1938 949,1938"/>
<polygon class="pen1 brush0" points="1205,1928 1211,1927 1217,1925 1222,1922 1227,1918 1231,1914 1234,1908 1235,1902 1236,1896 1235,1890 1234,1884 1231,1879 1227,1874 1222,1870 1217,1867 1211,1866 1205,1865 1198,1866 1192,1867 1187,1870 1182,1874 1178,1879 1175,1884 1174,1890 1173,1896 1174,1902 1175,1908 1178,1914 1182,1918 1187,1922 1192,1925 1198,1927 1205,1928 1205,1928"/>
<polygon class="pen1 brush0" points="1430,1582 1441,1580 1451,1574 1457,1565 1459,1555 1457,1543 1451,1535 1441,1529 1430,1527 1420,1529 1411,1535 1404,1543 1402,1555 1404,1565 1411,1574 1420,1580 1430,1582 1430,1582"/>
<polygon class="pen1 brush0" points="1480,1820 1490,1818 1499,1812 1505,1804 1507,1793 1505,1781 1499,1772 1490,1766 1480,1764 1469,1766 1460,1772 1454,1781 1452,1793 1454,1804 1460,1812 1469,1818 1480,1820 1480,1820"/>
<polygon class="pen1 brush0" points="1601,1734 1612,1732 1620,1726 1626,1718 1628,1708 1626,1696 1620,1687 1612,1680 1601,1678 1590,1680 1582,1687 1576,1696 1574,1708 1576,1718 1582,1726 1590,1732 1601,1734 1601,1734"/>
<polygon class="pen1 brush0" points="1564,1380 1575,1378 1584,1372 1590,1363 1592,1352 1590,1342 1584,1333 1575,1327 1564,1325 1554,1327 1545,1333 1539,1342 1537,1352 1539,1363 1545,1372 1554,1378 1564,1380 1564,1380"/>
<polygon class="pen1 brush0" points="1754,1558 1765,1556 1774,1550 1779,1541 1781,1530 1779,1519 1774,1509 1765,1503 1754,1501 1743,1503 1734,1509 1728,1519 1726,1530 1728,1541 1734,1550 1743,1556 1754,1558 1754,1558"/>
<polygon class="pen1 brush0" points="1815,1430 1826,1428 1836,1422 1842,1413 1844,1402 1842,1391 1836,1381 1826,1375 1815,1373 1804,1375 1795,1381 1789,1391 1787,1402 1789,1413 1795,1422 1804,1428 1815,1430 1815,1430"/>
<polygon class="pen1 brush0" points="1564,1194 1574,1192 1582,1187 1587,1179 1589,1169 1587,1160 1582,1152 1574,1147 1564,1145 1555,1147 1547,1152 1542,1160 1540,1169 1542,1179 1547,1187 1555,1192 1564,1194 1564,1194"/>
<polygon class="pen1 brush0" points="1858,1261 1868,1259 1875,1254 1880,1247 1882,1237 1880,1227 1875,1219 1868,1213 1858,1211 1848,1213 1840,1219 1834,1227 1832,1237 1834,1247 1840,1254 1848,1259 1858,1261 1858,1261"/>
<polygon class="pen1 brush0" points="1858,1133 1868,1131 1875,1126 1880,1118 1882,1109 1880,1099 1875,1091 1868,1086 1858,1084 1848,1086 1840,1091 1834,1099 1832,1109 1834,1118 1840,1126 1848,1131 1858,1133 1858,1133"/>
<polygon class="pen1 brush0" points="1541,1045 1550,1043 1557,1039 1562,1032 1564,1024 1562,1015 1557,1008 1550,1003 1541,1001 1532,1003 1525,1008 1520,1015 1518,1024 1520,1032 1525,1039 1532,1043 1541,1045 1541,1045"/>
<polygon class="pen1 brush0" points="1766,913 1775,911 1782,906 1786,899 1788,890 1786,882 1782,875 1775,870 1766,868 1757,870 1750,875 1745,882 1743,890 1745,899 1750,906 1757,911 1766,913 1766,913"/>
<polygon class="pen1 brush0" points="1803,981 1812,979 1819,974 1823,967 1825,959 1823,950 1819,943 1812,938 1803,936 1794,938 1787,943 1782,950 1780,959 1782,967 1787,974 1794,979 1803,981 1803,981"/>
<polygon class="pen1 brush0" points="1460,937 1469,935 1476,930 1481,923 1483,915 1481,906 1476,899 1469,894 1460,892 1452,894 1445,899 1441,906 1439,915 1441,923 1445,930 1452,935 1460,937 1460,937"/>
<polygon class="pen1 brush0" points="1528,748 1537,746 1544,741 1549,734 1551,726 1549,717 1544,710 1537,705 1528,703 1520,705 1513,710 1508,717 1506,726 1508,734 1513,741 1520,746 1528,748 1528,748"/>
<polygon class="pen1 brush0" points="1639,804 1647,802 1654,797 1658,789 1660,781 1658,771 1654,764 1647,759 1639,757 1629,759 1622,764 1617,771 1615,781 1617,789 1622,797 1629,802 1639,804 1639,804"/>
<polygon class="pen1 brush0" points="1277,913 1286,911 1294,906 1299,899 1301,890 1299,882 1294,875 1286,870 1277,868 1269,870 1262,875 1258,882 1256,890 1258,899 1262,906 1269,911 1277,913 1277,913"/>
<polygon class="pen1 brush0" points="1205,687 1214,685 1221,680 1225,673 1227,665 1225,656 1221,649 1214,644 1205,642 1197,644 1190,649 1185,656 1183,665 1185,673 1190,680 1197,685 1205,687 1205,687"/>
<polygon class="pen1 brush0" points="1332,700 1341,698 1348,693 1353,686 1355,676 1353,668 1348,661 1341,657 1332,655 1324,657 1317,661 1312,668 1310,676 1312,686 1317,693 1324,698 1332,700 1332,700"/>
<polygon class="pen1 brush0" points="1082,980 1091,978 1098,973 1103,966 1105,957 1103,949 1098,942 1091,938 1082,936 1074,938 1067,942 1062,949 1060,957 1062,966 1067,973 1074,978 1082,980 1082,980"/>
<polygon class="pen1 brush0" points="893,804 902,802 909,797 914,789 916,781 914,771 909,764 902,759 893,757 885,759 878,764 874,771 872,781 874,789 878,797 885,802 893,804 893,804"/>
<polygon class="pen1 brush0" points="1023,743 1031,741 1038,736 1042,729 1044,720 1042,711 1038,704 1031,699 1023,697 1014,699 1007,704 1002,711 1000,720 1002,729 1007,736 1014,741 1023,743 1023,743"/>
<polygon class="pen1 brush0" points="991,1044 1000,1042 1007,1038 1011,1031 1013,1024 1011,1015 1007,1009 1000,1005 991,1004 983,1005 977,1009 973,1015 972,1024 973,1031 977,1038 983,1042 991,1044 991,1044"/>
<polygon class="pen1 brush0" points="749,899 757,897 763,893 767,886 768,879 767,870 763,864 757,860 749,859 741,860 735,864 730,870 729,879 730,886 735,893 741,897 749,899 749,899"/>
<polygon class="pen1 brush0" points="723,983 731,981 737,977 741,971 743,963 741,955 737,948 731,944 723,943 716,944 709,948 705,955 703,963 705,971 709,977 716,981 723,983 723,983"/>
<polygon class="pen1 brush0" points="980,1153 987,1152 994,1147 998,1141 1000,1132 998,1125 994,1118 987,1114 980,1112 972,1114 966,1118 962,1125 960,1132 962,1141 966,1147 972,1152 980,1153 980,1153"/>
<polygon class="pen1 brush0" points="737,1140 744,1139 751,1135 755,1129 757,1121 755,1113 751,1106 744,1102 737,1101 729,1102 722,1106 718,1113 716,1121 718,1129 722,1135 729,1139 737,1140 737,1140"/>
<polygon class="pen1 brush0" points="754,1227 762,1225 769,1221 773,1214 774,1207 773,1198 769,1192 762,1187 754,1186 746,1187 740,1192 736,1198 734,1207 736,1214 740,1221 746,1225 754,1227 754,1227"/>
<polygon class="pen1 brush0" points="1014,1251 1022,1249 1029,1245 1033,1238 1034,1230 1033,1222 1029,1216 1022,1212 1014,1210 1006,1212 999,1216 995,1222 993,1230 995,1238 999,1245 1006,1249 1014,1251 1014,1251"/>
<polygon class="pen1 brush0" points="797,1366 805,1365 812,1361 816,1355 818,1346 816,1338 812,1332 805,1328 797,1326 790,1328 783,1332 779,1338 777,1346 779,1355 783,1361 790,1365 797,1366 797,1366"/>
<polygon class="pen1 brush0" points="845,1429 853,1427 860,1422 864,1415 865,1407 864,1399 860,1393 853,1389 845,1388 838,1389 831,1393 826,1399 824,1407 826,1415 831,1422 838,1427 845,1429 845,1429"/>
<polygon class="pen1 brush0" points="980,1476 987,1474 992,1470 996,1464 997,1457 996,1450 992,1444 987,1440 980,1439 973,1440 967,1444 963,1450 962,1457 963,1464 967,1470 973,1474 980,1476 980,1476"/>
<polygon class="pen1 brush0" points="1047,1493 1054,1491 1060,1487 1063,1481 1064,1474 1063,1467 1060,1462 1054,1458 1047,1457 1040,1458 1034,1462 1030,1467 1028,1474 1030,1481 1034,1487 1040,1491 1047,1493 1047,1493"/>
<polygon class="pen1 brush0" points="1180,1322 1187,1321 1193,1317 1197,1311 1199,1304 1197,1297 1193,1291 1187,1287 1180,1285 1173,1287 1167,1291 1163,1297 1162,1304 1163,1311 1167,1317 1173,1321 1180,1322 1180,1322"/>
<polygon class="pen1 brush0" points="1180,1481 1187,1480 1193,1476 1197,1470 1199,1463 1197,1456 1193,1450 1187,1446 1180,1444 1173,1446 1167,1450 1163,1456 1162,1463 1163,1470 1167,1476 1173,1480 1180,1481 1180,1481"/>
<polygon class="pen1 brush0" points="1266,1450 1273,1449 1279,1445 1283,1440 1284,1433 1283,1426 1279,1419 1273,1415 1266,1413 1259,1415 1253,1419 1249,1426 1247,1433 1249,1440 1253,1445 1259,1449 1266,1450 1266,1450"/>
<polygon class="pen1 brush0" points="1271,1255 1278,1254 1284,1250 1288,1244 1290,1237 1288,1230 1284,1224 1278,1220 1271,1219 1264,1220 1258,1224 1254,1230 1253,1237 1254,1244 1258,1250 1264,1254 1271,1255 1271,1255"/>
<polygon class="pen1 brush0" points="1375,1341 1382,1339 1388,1335 1392,1329 1393,1322 1392,1315 1388,1310 1382,1306 1375,1305 1368,1306 1363,1310 1359,1315 1358,1322 1359,1329 1363,1335 1368,1339 1375,1341 1375,1341"/>
<polygon class="pen1 brush0" points="1393,1248 1400,1247 1406,1243 1410,1237 1412,1230 1410,1223 1406,1218 1400,1214 1393,1213 1386,1214 1380,1218 1376,1223 1375,1230 1376,1237 1380,1243 1386,1247 1393,1248 1393,1248"/>
<polygon class="pen1 brush0" points="1284,1156 1290,1155 1296,1151 1300,1146 1301,1139 1300,1132 1296,1127 1290,1123 1284,1122 1277,1123 1272,1127 1268,1132 1267,1139 1268,1146 1272,1151 1277,1155 1284,1156 1284,1156"/>
<polygon class="pen1 brush0" points="1327,1076 1333,1075 1338,1071 1341,1067 1342,1061 1341,1054 1338,1049 1333,1045 1327,1044 1321,1045 1316,1049 1312,1054 1311,1061 1312,1067 1316,1071 1321,1075 1327,1076 1327,1076"/>
<polygon class="pen1 brush0" points="1388,1132 1394,1130 1399,1126 1402,1121 1403,1115 1402,1108 1399,1103 1394,1100 1388,1099 1381,1100 1376,1103 1373,1108 1372,1115 1373,1121 1376,1126 1381,1130 1388,1132 1388,1132"/>
<polygon class="pen1 brush0" points="1205,1193 1211,1192 1216,1188 1219,1183 1220,1176 1219,1169 1216,1164 1211,1160 1205,1159 1199,1160 1194,1164 1190,1169 1189,1176 1190,1183 1194,1188 1199,1192 1205,1193 1205,1193"/>
<polygon class="pen1 brush0" points="1199,1076 1205,1075 1210,1071 1213,1067 1214,1061 1213,1054 1210,1049 1205,1045 1199,1044 1192,1045 1187,1049 1184,1054 1183,1061 1184,1067 1187,1071 1192,1075 1199,1076 1199,1076"/>
<polygon class="pen1 brush0" points="1143,1138 1149,1137 1154,1133 1158,1127 1159,1121 1158,1115 1154,1110 1149,1106 1143,1105 1137,1106 1133,1110 1129,1115 1128,1121 1129,1127 1133,1133 1137,1137 1143,1138"/>
</g>
</svg>
