<?xml version="1.0" encoding="UTF-8" standalone="no"?>
<!DOCTYPE svg PUBLIC "-//W3C//DTD SVG 1.0//EN" "http://www.w3.org/TR/2001/REC-SVG-20010904/DTD/svg10.dtd">
<svg xmlns="http://www.w3.org/2000/svg" xmlns:xlink="http://www.w3.org/1999/xlink" fill-rule="evenodd" height="1.965in" preserveAspectRatio="none" stroke-linecap="round" viewBox="0 0 1987 1965" width="1.987in">
<style type="text/css">
.brush0 { fill: rgb(255,255,255); }
.pen0 { stroke: rgb(0,0,0); stroke-width: 1; stroke-linejoin: round; }
.brush1 { fill: none; }
.pen1 { stroke: none; }
.brush2 { fill: rgb(0,0,0); }
</style>
<g>
<polygon class="pen1 brush2" points="196,1626 191,1612 193,1592 200,1568 213,1540 229,1509 248,1476 269,1442 291,1408 314,1375 336,1344 357,1316 376,1292 392,1273 404,1259 411,1252 412,1253 400,1252 382,1250 359,1245 330,1239 299,1232 264,1223 229,1214 192,1203 156,1191 122,1179 90,1166 61,1153 37,1139 18,1125 5,1112 0,1098 17,1084 38,1069 64,1053 93,1037 124,1020 157,1004 190,988 223,973 256,959 286,946 314,934 338,924 358,915 374,909 383,905 385,904 376,897 362,885 345,868 325,848 302,825 279,799 255,771 230,742 207,712 185,683 166,654 149,627 137,602 129,580 126,561 129,547 151,544 177,544 206,545 239,547 274,551 311,556 347,561 384,566 419,572 453,577 484,582 511,587 533,590 551,593 562,594 567,593 555,566 538,516 519,451 500,379 485,306 477,240 479,189 494,160 497,161 505,163 517,168 534,174 554,182 578,191 604,203 632,217 661,232 691,250 721,269 751,291 781,315 809,341 835,369 859,400 865,399 866,388 870,370 875,347 883,320 892,289 902,255 914,220 926,184 940,149 954,116 969,84 984,57 998,33 1013,16 1027,4 1041,0 1043,2 1048,9 1056,19 1067,33 1079,50 1094,71 1109,95 1124,121 1140,150 1156,181 1170,214 1183,248 1195,285 1204,322 1210,360 1213,399 1224,389 1240,375 1261,360 1285,343 1312,324 1342,305 1373,286 1405,268 1437,250 1469,235 1500,221 1528,211 1554,203 1576,200 1594,201 1608,207 1606,263 1600,319 1590,376 1575,432 1556,487 1533,540 1506,590 1474,636 1484,631 1501,625 1524,618 1551,610 1583,601 1617,592 1654,584 1691,576 1729,569 1765,563 1799,560 1831,558 1859,558 1882,562 1899,568 1909,578 1899,606 1885,634 1870,661 1853,687 1834,714 1814,739 1794,764 1773,788 1753,811 1734,833 1715,854 1698,875 1684,894 1671,911 1661,928 1655,943 1662,946 1673,952 1686,960 1702,969 1719,980 1739,993 1760,1007 1781,1023 1804,1039 1826,1056 1849,1073 1871,1091 1892,1108 1911,1126 1930,1143 1946,1160 1955,1171 1963,1182 1970,1192 1976,1202 1980,1211 1983,1219 1984,1227 1983,1234 1962,1241 1936,1248 1906,1253 1873,1258 1838,1262 1802,1266 1765,1269 1728,1272 1692,1274 1658,1277 1627,1279 1600,1281 1577,1283 1560,1286 1548,1288 1544,1291 1550,1301 1560,1316 1571,1338 1583,1363 1597,1393 1611,1425 1625,1459 1639,1494 1652,1530 1663,1565 1672,1598 1679,1628 1683,1656 1684,1679 1681,1698 1673,1710 1652,1705 1627,1698 1599,1687 1568,1674 1537,1660 1504,1644 1471,1627 1439,1611 1408,1594 1379,1578 1353,1564 1330,1551 1312,1540 1298,1533 1289,1528 1287,1527 1293,1556 1300,1608 1306,1675 1309,1749 1309,1823 1304,1889 1291,1939 1271,1965 1253,1954 1232,1938 1209,1919 1185,1897 1160,1873 1134,1847 1108,1821 1083,1794 1058,1768 1035,1743 1014,1720 995,1700 979,1683 967,1671 958,1663 954,1660 950,1666 944,1676 935,1688 924,1702 911,1719 896,1737 880,1756 863,1777 844,1798 825,1819 806,1839 786,1860 766,1879 746,1897 727,1914 709,1928 697,1936 685,1944 675,1950 665,1954 655,1958 647,1959 640,1959 633,1957 624,1910 620,1847 619,1775 620,1702 622,1634 624,1578 624,1540 622,1528 589,1549 554,1566 518,1581 482,1594 447,1604 411,1612 377,1618 344,1622 313,1625 285,1627 260,1628 238,1629 220,1628 207,1627 199,1627 196,1626"/>
<polygon class="pen1 brush0" points="956,859 949,846 912,826 918,866 926,879 919,839 956,859"/>
<polygon class="pen1 brush0" points="882,737 874,724 837,703 842,743 851,755 845,717 882,737"/>
<polygon class="pen1 brush0" points="882,737 874,724 837,703 842,743 851,755 845,717 882,737"/>
<polygon class="pen1 brush0" points="807,613 798,599 761,579 767,619 776,633 770,592 807,613"/>
<polygon class="pen1 brush0" points="807,613 798,599 761,579 767,619 776,633 770,592 807,613"/>
<polygon class="pen1 brush0" points="731,490 723,477 686,457 693,495 700,508 695,470 731,490"/>
<polygon class="pen1 brush0" points="731,490 723,477 686,457 693,495 700,508 695,470 731,490"/>
<polygon class="pen1 brush0" points="656,366 649,353 612,332 618,372 625,386 621,346 656,366"/>
<polygon class="pen1 brush0" points="656,366 649,353 612,332 618,372 625,386 621,346 656,366"/>
<polygon class="pen1 brush0" points="582,244 574,230 537,210 543,248 551,261 545,223 582,244"/>
<polygon class="pen1 brush0" points="582,244 574,230 537,210 543,248 551,261 545,223 582,244"/>
<polygon class="pen1 brush0" points="1179,1039 1193,1044 1234,1032 1206,1008 1193,1004 1220,1028 1179,1039"/>
<polygon class="pen1 brush0" points="1310,1075 1324,1079 1365,1068 1338,1045 1324,1041 1351,1065 1310,1075"/>
<polygon class="pen1 brush0" points="1310,1075 1324,1079 1365,1068 1338,1045 1324,1041 1351,1065 1310,1075"/>
<polygon class="pen1 brush0" points="1440,1110 1454,1115 1494,1103 1467,1079 1453,1076 1480,1099 1440,1110"/>
<polygon class="pen1 brush0" points="1440,1110 1454,1115 1494,1103 1467,1079 1453,1076 1480,1099 1440,1110"/>
<polygon class="pen1 brush0" points="1571,1146 1585,1150 1625,1139 1598,1116 1584,1112 1612,1136 1571,1146"/>
<polygon class="pen1 brush0" points="1571,1146 1585,1150 1625,1139 1598,1116 1584,1112 1612,1136 1571,1146"/>
<polygon class="pen1 brush0" points="1700,1183 1714,1186 1756,1174 1729,1152 1714,1147 1741,1170 1700,1183"/>
<polygon class="pen1 brush0" points="1700,1183 1714,1186 1756,1174 1729,1152 1714,1147 1741,1170 1700,1183"/>
<polygon class="pen1 brush0" points="1831,1217 1845,1221 1885,1210 1858,1187 1845,1183 1872,1207 1831,1217"/>
<polygon class="pen1 brush0" points="1831,1217 1845,1221 1885,1210 1858,1187 1845,1183 1872,1207 1831,1217"/>
<polygon class="pen1 brush0" points="872,1025 855,1025 821,1051 858,1065 874,1064 837,1049 872,1025"/>
<polygon class="pen1 brush0" points="727,1034 710,1035 676,1058 713,1072 729,1072 690,1058 727,1034"/>
<polygon class="pen1 brush0" points="727,1034 710,1035 676,1058 713,1072 729,1072 690,1058 727,1034"/>
<polygon class="pen1 brush0" points="581,1041 565,1042 530,1066 568,1081 584,1079 545,1065 581,1041"/>
<polygon class="pen1 brush0" points="581,1041 565,1042 530,1066 568,1081 584,1079 545,1065 581,1041"/>
<polygon class="pen1 brush0" points="436,1049 420,1051 385,1075 422,1089 437,1088 401,1074 436,1049"/>
<polygon class="pen1 brush0" points="436,1049 420,1051 385,1075 422,1089 437,1088 401,1074 436,1049"/>
<polygon class="pen1 brush0" points="291,1058 276,1058 240,1082 277,1096 293,1095 256,1082 291,1058"/>
<polygon class="pen1 brush0" points="291,1058 276,1058 240,1082 277,1096 293,1095 256,1082 291,1058"/>
<polygon class="pen1 brush0" points="145,1065 129,1066 95,1091 132,1105 148,1103 111,1089 145,1065"/>
<polygon class="pen1 brush0" points="145,1065 129,1066 95,1091 132,1105 148,1103 111,1089 145,1065"/>
<polygon class="pen1 brush0" points="1068,852 1068,836 1047,799 1031,836 1031,852 1047,815 1068,852"/>
<polygon class="pen1 brush0" points="1068,706 1068,690 1047,653 1031,690 1031,706 1047,670 1068,706"/>
<polygon class="pen1 brush0" points="1068,706 1068,690 1047,653 1031,690 1031,706 1047,670 1068,706"/>
<polygon class="pen1 brush0" points="1068,559 1068,544 1047,508 1031,544 1031,559 1047,522 1068,559"/>
<polygon class="pen1 brush0" points="1068,559 1068,544 1047,508 1031,544 1031,559 1047,522 1068,559"/>
<polygon class="pen1 brush0" points="1068,413 1068,397 1047,360 1031,397 1031,413 1047,376 1068,413"/>
<polygon class="pen1 brush0" points="1068,413 1068,397 1047,360 1031,397 1031,413 1047,376 1068,413"/>
<polygon class="pen1 brush0" points="1068,268 1068,251 1047,214 1031,251 1031,268 1047,231 1068,268"/>
<polygon class="pen1 brush0" points="1068,268 1068,251 1047,214 1031,251 1031,268 1047,231 1068,268"/>
<polygon class="pen1 brush0" points="1068,122 1068,106 1047,68 1031,106 1031,122 1047,85 1068,122"/>
<polygon class="pen1 brush0" points="1068,122 1068,106 1047,68 1031,106 1031,122 1047,85 1068,122"/>
<polygon class="pen1 brush0" points="1146,1110 1156,1122 1193,1136 1182,1101 1172,1089 1183,1125 1146,1110"/>
<polygon class="pen1 brush0" points="1233,1214 1243,1226 1281,1238 1270,1204 1260,1191 1271,1227 1233,1214"/>
<polygon class="pen1 brush0" points="1233,1214 1243,1226 1281,1238 1270,1204 1260,1191 1271,1227 1233,1214"/>
<polygon class="pen1 brush0" points="1321,1318 1331,1329 1368,1342 1358,1306 1348,1295 1358,1331 1321,1318"/>
<polygon class="pen1 brush0" points="1321,1318 1331,1329 1368,1342 1358,1306 1348,1295 1358,1331 1321,1318"/>
<polygon class="pen1 brush0" points="1409,1420 1419,1431 1456,1444 1445,1410 1436,1399 1446,1433 1409,1420"/>
<polygon class="pen1 brush0" points="1409,1420 1419,1431 1456,1444 1445,1410 1436,1399 1446,1433 1409,1420"/>
<polygon class="pen1 brush0" points="1497,1524 1507,1535 1544,1548 1533,1512 1523,1501 1534,1537 1497,1524"/>
<polygon class="pen1 brush0" points="1497,1524 1507,1535 1544,1548 1533,1512 1523,1501 1534,1537 1497,1524"/>
<polygon class="pen1 brush0" points="1585,1626 1595,1637 1632,1651 1621,1616 1611,1605 1622,1639 1585,1626"/>
<polygon class="pen1 brush0" points="1585,1626 1595,1637 1632,1651 1621,1616 1611,1605 1622,1639 1585,1626"/>
<polygon class="pen1 brush0" points="963,1136 956,1150 963,1193 991,1164 997,1149 969,1179 963,1136"/>
<polygon class="pen1 brush0" points="905,1274 898,1288 903,1331 933,1301 939,1287 909,1315 905,1274"/>
<polygon class="pen1 brush0" points="905,1274 898,1288 903,1331 933,1301 939,1287 909,1315 905,1274"/>
<polygon class="pen1 brush0" points="845,1412 839,1426 845,1468 875,1440 882,1424 852,1454 845,1412"/>
<polygon class="pen1 brush0" points="845,1412 839,1426 845,1468 875,1440 882,1424 852,1454 845,1412"/>
<polygon class="pen1 brush0" points="787,1548 781,1564 787,1606 815,1576 822,1562 793,1592 787,1548"/>
<polygon class="pen1 brush0" points="787,1548 781,1564 787,1606 815,1576 822,1562 793,1592 787,1548"/>
<polygon class="pen1 brush0" points="729,1687 722,1702 727,1744 757,1715 764,1700 733,1729 729,1687"/>
<polygon class="pen1 brush0" points="729,1687 722,1702 727,1744 757,1715 764,1700 733,1729 729,1687"/>
<polygon class="pen1 brush0" points="669,1823 663,1839 669,1881 699,1852 704,1837 676,1866 669,1823"/>
<polygon class="pen1 brush0" points="669,1823 663,1839 669,1881 699,1852 704,1837 676,1866 669,1823"/>
<polygon class="pen1 brush0" points="864,957 851,953 828,917 865,920 879,926 841,924 864,957"/>
<polygon class="pen1 brush0" points="740,896 727,890 703,856 741,858 754,865 717,862 740,896"/>
<polygon class="pen1 brush0" points="740,896 727,890 703,856 741,858 754,865 717,862 740,896"/>
<polygon class="pen1 brush0" points="616,835 602,829 579,794 618,795 631,802 594,801 616,835"/>
<polygon class="pen1 brush0" points="616,835 602,829 579,794 618,795 631,802 594,801 616,835"/>
<polygon class="pen1 brush0" points="493,774 480,767 456,733 493,734 507,741 470,738 493,774"/>
<polygon class="pen1 brush0" points="493,774 480,767 456,733 493,734 507,741 470,738 493,774"/>
<polygon class="pen1 brush0" points="368,711 355,704 332,670 369,673 383,679 345,676 368,711"/>
<polygon class="pen1 brush0" points="368,711 355,704 332,670 369,673 383,679 345,676 368,711"/>
<polygon class="pen1 brush0" points="244,649 231,643 209,609 246,610 260,616 223,615 244,649"/>
<polygon class="pen1 brush0" points="244,649 231,643 209,609 246,610 260,616 223,615 244,649"/>
<polygon class="pen1 brush0" points="1177,967 1192,960 1214,926 1176,930 1162,937 1202,933 1177,967"/>
<polygon class="pen1 brush0" points="1304,903 1318,896 1342,862 1304,866 1290,872 1328,869 1304,903"/>
<polygon class="pen1 brush0" points="1304,903 1318,896 1342,862 1304,866 1290,872 1328,869 1304,903"/>
<polygon class="pen1 brush0" points="1433,839 1446,832 1470,798 1430,801 1418,808 1456,805 1433,839"/>
<polygon class="pen1 brush0" points="1433,839 1446,832 1470,798 1430,801 1418,808 1456,805 1433,839"/>
<polygon class="pen1 brush0" points="1560,775 1574,768 1597,734 1558,737 1544,744 1582,741 1560,775"/>
<polygon class="pen1 brush0" points="1560,775 1574,768 1597,734 1558,737 1544,744 1582,741 1560,775"/>
<polygon class="pen1 brush0" points="1686,710 1700,704 1723,670 1686,672 1672,679 1710,676 1686,710"/>
<polygon class="pen1 brush0" points="1686,710 1700,704 1723,670 1686,672 1672,679 1710,676 1686,710"/>
<polygon class="pen1 brush0" points="1814,646 1828,639 1851,605 1812,608 1798,615 1838,612 1814,646"/>
<polygon class="pen1 brush0" points="1814,646 1828,639 1851,605 1812,608 1798,615 1838,612 1814,646"/>
<polygon class="pen1 brush0" points="1047,1156 1051,1172 1081,1200 1088,1162 1085,1146 1077,1186 1047,1156"/>
<polygon class="pen1 brush0" points="1078,1294 1081,1308 1111,1338 1118,1298 1115,1284 1108,1322 1078,1294"/>
<polygon class="pen1 brush0" points="1078,1294 1081,1308 1111,1338 1118,1298 1115,1284 1108,1322 1078,1294"/>
<polygon class="pen1 brush0" points="1108,1430 1112,1446 1141,1474 1149,1436 1145,1420 1138,1460 1108,1430"/>
<polygon class="pen1 brush0" points="1108,1430 1112,1446 1141,1474 1149,1436 1145,1420 1138,1460 1108,1430"/>
<polygon class="pen1 brush0" points="1139,1568 1142,1582 1170,1612 1179,1572 1176,1558 1168,1596 1139,1568"/>
<polygon class="pen1 brush0" points="1139,1568 1142,1582 1170,1612 1179,1572 1176,1558 1168,1596 1139,1568"/>
<polygon class="pen1 brush0" points="1169,1705 1172,1719 1202,1749 1210,1710 1206,1695 1197,1734 1169,1705"/>
<polygon class="pen1 brush0" points="1169,1705 1172,1719 1202,1749 1210,1710 1206,1695 1197,1734 1169,1705"/>
<polygon class="pen1 brush0" points="1199,1842 1202,1857 1231,1886 1240,1847 1237,1832 1229,1871 1199,1842"/>
<polygon class="pen1 brush0" points="1199,1842 1202,1857 1231,1886 1240,1847 1237,1832 1229,1871 1199,1842"/>
<polygon class="pen1 brush0" points="1115,883 1124,870 1159,852 1153,890 1145,903 1152,866 1115,883"/>
<polygon class="pen1 brush0" points="1189,765 1197,753 1233,734 1227,772 1220,785 1226,747 1189,765"/>
<polygon class="pen1 brush0" points="1189,765 1197,753 1233,734 1227,772 1220,785 1226,747 1189,765"/>
<polygon class="pen1 brush0" points="1264,647 1271,635 1308,616 1301,654 1294,666 1300,629 1264,647"/>
<polygon class="pen1 brush0" points="1264,647 1271,635 1308,616 1301,654 1294,666 1300,629 1264,647"/>
<polygon class="pen1 brush0" points="1338,529 1345,517 1382,498 1375,537 1368,548 1374,511 1338,529"/>
<polygon class="pen1 brush0" points="1338,529 1345,517 1382,498 1375,537 1368,548 1374,511 1338,529"/>
<polygon class="pen1 brush0" points="1410,412 1419,399 1456,380 1449,419 1442,431 1447,393 1410,412"/>
<polygon class="pen1 brush0" points="1410,412 1419,399 1456,380 1449,419 1442,431 1447,393 1410,412"/>
<polygon class="pen1 brush0" points="1484,294 1493,281 1530,262 1524,301 1516,314 1521,275 1484,294"/>
<polygon class="pen1 brush0" points="1484,294 1493,281 1530,262 1524,301 1516,314 1521,275 1484,294"/>
<polygon class="pen1 brush0" points="889,1098 875,1108 855,1146 895,1135 908,1126 868,1136 889,1098"/>
<polygon class="pen1 brush0" points="766,1189 753,1197 733,1237 771,1226 785,1216 747,1227 766,1189"/>
<polygon class="pen1 brush0" points="766,1189 753,1197 733,1237 771,1226 785,1216 747,1227 766,1189"/>
<polygon class="pen1 brush0" points="643,1278 629,1288 611,1328 649,1316 662,1306 624,1318 643,1278"/>
<polygon class="pen1 brush0" points="643,1278 629,1288 611,1328 649,1316 662,1306 624,1318 643,1278"/>
<polygon class="pen1 brush0" points="520,1369 507,1379 487,1419 527,1407 540,1397 500,1409 520,1369"/>
<polygon class="pen1 brush0" points="520,1369 507,1379 487,1419 527,1407 540,1397 500,1409 520,1369"/>
<polygon class="pen1 brush0" points="399,1460 385,1470 365,1510 403,1497 418,1488 379,1500 399,1460"/>
<polygon class="pen1 brush0" points="399,1460 385,1470 365,1510 403,1497 418,1488 379,1500 399,1460"/>
<polygon class="pen1 brush0" points="276,1551 263,1561 243,1599 281,1589 294,1579 256,1591 276,1551"/>
<polygon class="pen1 brush0" points="276,1551 263,1561 243,1599 281,1589 294,1579 256,1591 276,1551"/>
</g>
</svg>
