<?xml version="1.0" encoding="UTF-8" standalone="no"?>
<!DOCTYPE svg PUBLIC "-//W3C//DTD SVG 1.0//EN" "http://www.w3.org/TR/2001/REC-SVG-20010904/DTD/svg10.dtd">
<svg xmlns="http://www.w3.org/2000/svg" xmlns:xlink="http://www.w3.org/1999/xlink" fill-rule="evenodd" height="1.365in" preserveAspectRatio="none" stroke-linecap="round" viewBox="0 0 1983 1365" width="1.983in">
<style type="text/css">
.brush0 { fill: rgb(255,255,255); }
.pen0 { stroke: rgb(0,0,0); stroke-width: 1; stroke-linejoin: round; }
.brush1 { fill: none; }
.pen1 { stroke: none; }
.brush2 { fill: rgb(0,0,0); }
</style>
<g>
<polygon class="pen1 brush2" points="768,1038 776,1038 784,1037 792,1037 800,1036 807,1035 815,1034 823,1032 831,1030 836,1125 717,1263 732,1278 743,1292 748,1305 750,1318 747,1329 741,1340 731,1351 717,1361 726,1321 676,1298 636,1318 636,1365 625,1347 617,1330 612,1314 611,1300 616,1287 628,1276 648,1267 676,1260 795,1118 768,1038 768,1038"/>
<polygon class="pen1 brush2" points="1335,665 1327,677 1319,688 1311,700 1303,711 1294,722 1286,734 1278,745 1270,757 1281,759 1296,762 1314,766 1333,772 1351,778 1367,786 1378,795 1383,805 1381,808 1376,810 1370,813 1363,814 1356,816 1349,817 1344,818 1341,818 1324,821 1307,823 1290,825 1273,827 1255,829 1238,831 1221,833 1204,834 1187,836 1170,837 1153,838 1135,840 1118,841 1101,842 1084,844 1067,845 1073,835 1075,825 1074,816 1068,805 1071,796 1074,786 1075,776 1076,766 1074,756 1070,747 1064,740 1054,734 1052,723 1050,713 1046,705 1041,698 1034,693 1026,689 1016,687 1004,686 1011,725 1017,767 1019,809 1013,848 999,849 986,850 972,851 958,851 945,852 931,853 917,853 903,854 913,842 919,831 919,820 913,807 917,789 919,769 914,750 899,737 897,726 895,716 891,708 885,701 878,696 870,692 860,690 848,689 855,728 861,773 862,818 854,855 844,856 834,856 823,857 813,858 802,858 791,859 780,859 769,860 758,860 747,860 736,860 725,859 715,858 704,857 694,856 684,854 664,842 646,827 629,810 613,790 600,769 588,747 578,725 571,703 573,730 577,759 583,787 593,813 606,838 623,858 645,873 673,882 700,884 727,885 754,886 781,886 808,886 836,886 863,886 891,885 918,884 945,883 973,881 1000,880 1027,878 1053,876 1080,873 1106,871 1083,886 1060,901 1036,916 1011,930 986,943 960,956 934,967 907,978 880,987 853,995 825,1002 797,1007 769,1011 741,1013 712,1013 684,1011 652,1005 621,998 590,989 559,978 529,967 499,954 469,940 441,924 413,907 386,889 359,870 334,850 310,828 287,806 265,782 244,757 226,730 209,704 195,677 184,649 174,621 167,592 162,562 159,530 173,512 190,496 210,482 232,470 255,461 279,454 304,450 330,448 356,448 382,451 406,456 430,463 452,473 473,486 491,501 506,518 517,518 528,517 539,517 550,516 561,516 573,515 584,514 595,513 616,512 638,512 659,511 680,511 702,512 723,512 744,513 765,514 786,515 807,517 827,519 848,521 869,523 890,525 910,528 931,531 952,534 972,537 993,541 1013,545 1034,549 1054,553 1075,557 1095,562 1115,567 1136,572 1156,577 1177,582 1197,587 1217,593 1238,599 1258,605 1780,14 1789,10 1799,8 1808,6 1817,7 1825,9 1832,13 1839,20 1845,30 1857,33 1870,36 1883,41 1896,46 1908,51 1920,58 1931,66 1940,74 1948,75 1956,77 1962,79 1968,81 1972,84 1976,87 1978,91 1980,95 1980,104 1976,113 1969,122 1960,132 1935,154 1908,177 1880,201 1850,226 1819,252 1786,280 1751,309 1715,340 1676,373 1635,407 1591,444 1545,483 1497,524 1446,569 1392,615 1335,665 1335,665"/>
<polygon class="pen1 brush2" points="0,568 13,554 28,542 43,532 60,524 77,517 94,513 112,512 131,513 125,584 111,579 96,574 80,570 64,566 48,564 32,563 16,564 0,568"/>
<polygon class="pen1 brush0" points="190,518 207,509 224,502 241,495 258,490 275,485 292,482 309,480 326,479 343,479 360,481 377,484 394,488 410,493 427,500 444,508 460,518 443,516 426,514 409,512 392,511 375,510 359,509 342,509 325,509 309,510 292,510 275,511 258,512 242,513 225,515 207,516 190,518"/>
<polygon class="pen1 brush0" points="1382,524 1831,71 1838,61 1839,53 1835,46 1828,40 1819,37 1810,36 1801,37 1794,41 1373,513 1369,521 1370,527 1374,529 1382,524 1382,524"/>
<polygon class="pen1 brush0" points="1396,551 1892,95 1902,89 1912,87 1922,88 1930,92 1935,97 1938,105 1935,113 1927,122 1405,564 1398,568 1392,566 1391,559 1396,551"/>
<polygon class="pen1 brush0" points="275,545 286,547 294,553 299,561 301,571 299,582 294,590 286,596 275,598 265,596 257,590 252,582 250,571 252,561 257,553 265,547 275,545"/>
</g>
</svg>
