<?xml version="1.0" encoding="UTF-8" standalone="no"?>
<!DOCTYPE svg PUBLIC "-//W3C//DTD SVG 1.0//EN" "http://www.w3.org/TR/2001/REC-SVG-20010904/DTD/svg10.dtd">
<svg xmlns="http://www.w3.org/2000/svg" xmlns:xlink="http://www.w3.org/1999/xlink" fill-rule="evenodd" height="1.961in" preserveAspectRatio="none" stroke-linecap="round" viewBox="0 0 2053 1961" width="2.053in">
<style type="text/css">
.brush0 { fill: rgb(255,255,255); }
.pen0 { stroke: rgb(0,0,0); stroke-width: 1; stroke-linejoin: round; }
.brush1 { fill: none; }
.pen1 { stroke: none; }
.brush2 { fill: rgb(0,0,0); }
</style>
<g>
<polygon class="pen1 brush2" points="1012,1094 1012,1162 1011,1232 1008,1302 1003,1368 1054,1368 1050,1302 1047,1232 1045,1162 1046,1094 1012,1094 1012,1094"/>
<polygon class="pen1 brush2" points="1175,200 1173,186 1168,172 1160,160 1149,148 1134,138 1117,130 1097,123 1074,118 1076,111 1079,104 1083,96 1087,88 1094,80 1101,72 1111,63 1122,55 1136,47 1153,40 1172,34 1194,28 1219,23 1248,20 1281,18 1317,17 1317,0 1278,1 1244,4 1213,8 1186,14 1162,21 1141,29 1123,38 1108,48 1096,57 1085,67 1077,77 1070,86 1066,95 1062,104 1060,111 1058,117 1051,116 1044,115 1037,115 1030,114 1022,114 1015,114 1007,115 1000,115 998,109 996,101 993,93 988,84 981,75 973,65 963,56 950,46 935,37 918,28 897,21 873,14 846,8 816,4 781,1 743,0 742,13 778,14 810,16 839,20 865,24 887,30 907,37 923,44 938,52 950,60 959,69 968,77 974,86 979,94 983,102 985,110 987,117 963,121 941,127 922,136 906,146 893,158 883,171 877,185 875,200 878,220 888,238 903,253 922,265 945,274 970,281 997,285 1025,286 1053,285 1080,281 1105,274 1128,265 1147,253 1162,238 1172,220 1175,200 1175,200"/>
<polygon class="pen1 brush2" points="1145,372 1147,370 1153,366 1161,358 1170,349 1178,337 1186,323 1190,308 1190,291 1189,280 1188,264 1188,245 1190,225 1193,206 1200,191 1211,182 1226,180 1311,61 1321,71 1236,190 1242,197 1245,209 1245,222 1239,233 1228,250 1222,272 1218,297 1219,320 1219,331 1215,341 1210,352 1203,362 1194,373 1184,383 1175,392 1165,401 1165,401 1163,397 1157,389 1145,372 1145,372"/>
<polygon class="pen1 brush2" points="901,372 889,389 884,397 881,401 881,401 872,392 862,383 853,373 844,362 837,352 832,341 828,331 828,320 828,297 825,272 818,248 807,230 802,219 800,207 803,196 810,189 725,68 736,61 821,180 836,182 847,191 853,206 857,225 858,245 858,264 858,280 857,291 857,308 861,323 868,337 877,349 885,358 893,366 899,370 901,372 901,372"/>
<polygon class="pen1 brush2" points="990,301 1000,302 1009,303 1019,304 1028,304 1037,304 1046,304 1055,304 1064,303 1075,319 1088,339 1101,362 1115,388 1128,416 1140,448 1150,481 1158,516 1162,553 1163,591 1160,631 1151,670 1137,711 1117,751 1089,791 1054,831 1003,831 968,791 940,751 920,711 906,670 897,631 894,591 894,553 899,516 907,481 917,447 928,416 941,387 954,361 967,337 979,317 990,301 990,301"/>
<polygon class="pen1 brush2" points="904,733 901,734 894,736 882,739 867,743 849,749 829,755 808,761 785,768 762,776 740,784 718,791 699,799 681,806 667,813 656,819 649,825 643,836 633,854 622,877 612,903 603,928 599,950 601,966 611,973 574,1278 587,1281 624,973 637,967 646,955 652,937 656,916 659,895 663,876 669,861 678,852 685,849 695,845 707,841 721,836 737,831 754,826 771,819 790,813 808,806 827,800 845,793 863,785 879,778 894,771 907,764 918,757 917,758 914,758 910,751 904,733 904,733"/>
<polygon class="pen1 brush2" points="939,794 938,800 933,817 925,843 913,877 895,915 870,956 839,999 800,1041 791,1060 784,1093 780,1135 778,1183 780,1233 785,1278 794,1316 807,1341 729,1799 742,1801 820,1347 829,1349 836,1343 840,1325 840,1294 837,1254 832,1216 827,1181 822,1149 820,1120 821,1096 826,1077 837,1064 853,1050 873,1028 894,1001 916,970 936,936 954,901 966,866 973,834 939,794 939,794"/>
<polygon class="pen1 brush2" points="1158,733 1152,751 1148,758 1145,758 1144,757 1155,764 1168,771 1183,778 1199,785 1216,793 1234,800 1253,806 1272,813 1290,819 1308,826 1325,831 1340,836 1354,841 1367,845 1377,849 1384,852 1393,861 1398,876 1402,895 1405,916 1409,937 1415,955 1424,967 1438,973 1475,1281 1487,1278 1450,973 1460,966 1462,949 1458,927 1450,902 1439,877 1428,854 1418,835 1412,825 1405,819 1394,813 1380,806 1362,799 1342,791 1321,784 1299,776 1276,768 1254,761 1232,755 1212,749 1194,743 1179,739 1168,736 1161,734 1158,733 1158,733"/>
<polygon class="pen1 brush2" points="1121,794 1087,834 1094,866 1108,901 1125,936 1146,970 1168,1001 1189,1028 1209,1050 1225,1064 1235,1077 1240,1096 1240,1120 1238,1149 1234,1181 1229,1216 1225,1254 1222,1294 1222,1324 1227,1342 1234,1349 1242,1347 1320,1801 1331,1799 1253,1341 1266,1316 1275,1278 1280,1233 1282,1183 1280,1135 1276,1093 1269,1060 1260,1041 1221,999 1190,956 1165,915 1147,877 1135,843 1127,817 1122,800 1121,794 1121,794"/>
<polygon class="pen1 brush2" points="1004,848 1006,887 1008,940 1010,1006 1012,1081 1046,1081 1047,1006 1049,940 1051,887 1053,848 1004,848 1004,848"/>
<polygon class="pen1 brush2" points="1003,1379 1054,1379 1057,1406 1061,1433 1066,1459 1071,1486 1076,1512 1082,1538 1088,1564 1094,1591 963,1591 969,1564 975,1538 981,1512 986,1486 991,1459 996,1433 1000,1406 1003,1379 1003,1379"/>
<polygon class="pen1 brush2" points="962,1601 1098,1601 1104,1631 1110,1661 1114,1690 1118,1718 940,1718 944,1690 949,1661 955,1631 962,1601 962,1601"/>
<polygon class="pen1 brush2" points="939,1728 1118,1728 1120,1750 1120,1772 1119,1793 1117,1812 942,1812 940,1793 939,1772 938,1750 939,1728 939,1728"/>
<polygon class="pen1 brush2" points="943,1824 948,1843 955,1861 963,1879 974,1897 986,1914 1000,1930 1016,1946 1033,1961 1046,1951 1059,1936 1072,1917 1084,1897 1095,1876 1104,1856 1111,1838 1115,1824 943,1824"/>
<polygon class="pen1 brush0" points="1104,206 1113,204 1121,199 1126,190 1128,180 1126,170 1121,162 1113,157 1104,155 1094,157 1085,162 1079,170 1077,180 1079,190 1085,199 1094,204 1104,206 1104,206"/>
<polygon class="pen1 brush0" points="953,206 963,204 971,199 977,190 979,180 977,170 971,162 963,157 953,155 944,157 936,162 931,170 929,180 931,190 936,199 944,204 953,206"/>
<polygon class="pen1 brush2" points="888,460 886,459 879,457 868,453 853,449 835,443 813,436 789,428 761,420 731,411 699,401 666,391 630,381 594,370 556,360 518,349 479,339 440,329 402,320 363,311 326,302 289,295 254,288 221,282 189,277 160,274 133,272 109,271 88,272 70,275 56,279 46,286 40,294 34,312 32,330 34,347 38,364 46,380 57,396 70,411 86,425 105,438 126,451 150,463 176,474 203,484 233,494 264,502 297,510 295,511 288,514 278,519 267,525 256,533 245,543 237,554 232,566 231,580 237,595 250,610 271,627 302,644 344,662 398,681 465,700 489,706 513,711 537,716 562,719 587,722 612,723 637,723 663,721 688,718 714,713 741,706 768,696 795,685 822,670 850,654 878,634 877,631 875,621 872,606 871,585 870,559 873,530 878,496 888,460"/>
<polygon class="pen1 brush0" points="440,632 789,474 787,469 748,458 709,447 669,437 630,426 591,416 552,406 512,396 473,385 434,376 394,366 355,356 315,346 276,336 237,327 197,317 158,308 156,314 169,317 183,321 196,324 209,327 223,331 236,334 249,337 263,341 276,344 289,347 302,351 316,354 329,358 342,361 356,364 369,368 363,380 359,394 355,408 354,420 341,419 329,417 316,416 304,414 291,413 278,412 266,410 253,409 240,407 228,406 215,404 202,403 190,401 177,400 165,398 152,396 151,405 171,407 190,409 210,411 230,414 250,416 269,418 289,420 309,422 329,425 349,427 368,429 388,431 408,433 428,435 447,437 467,439 463,461 461,485 461,509 467,530 450,534 432,537 414,540 396,543 378,545 361,547 343,549 325,551 325,558 341,557 356,555 371,553 387,551 402,549 418,546 433,544 448,541 464,539 479,536 494,533 509,530 524,527 540,524 555,521 570,518 573,530 576,541 580,552 584,563 566,571 549,579 531,588 513,595 494,603 476,611 458,618 439,625 440,632 440,632"/>
<polygon class="pen1 brush2" points="759,482 748,487 738,491 727,496 716,501 706,506 695,511 685,516 674,521 664,526 653,530 643,535 632,540 622,545 612,550 601,555 591,560 586,550 583,539 579,528 577,517 588,515 600,513 611,511 623,509 634,507 645,504 657,502 668,500 679,498 691,495 702,493 713,491 725,488 736,486 748,484 759,482 759,482"/>
<polygon class="pen1 brush2" points="764,473 746,477 728,480 710,484 692,488 674,491 656,495 638,498 620,502 601,505 583,509 565,512 547,516 529,519 511,523 493,526 475,530 468,506 467,483 471,462 475,440 493,442 511,444 529,446 547,448 565,450 583,453 601,455 620,457 638,459 656,462 674,464 692,466 710,468 728,470 746,471 764,473 764,473"/>
<polygon class="pen1 brush2" points="746,463 722,460 698,458 674,455 649,453 625,450 601,448 577,445 553,442 529,440 505,437 481,435 457,432 433,430 409,427 385,425 361,422 362,409 366,394 371,379 377,369 400,375 423,380 446,386 469,392 492,398 515,404 538,410 561,416 584,422 607,428 630,434 653,440 676,446 700,452 723,457 746,463"/>
<polygon class="pen1 brush2" points="1165,466 1167,465 1174,463 1185,459 1200,455 1218,449 1240,442 1264,434 1292,426 1322,417 1354,407 1387,397 1423,387 1459,376 1497,366 1535,355 1574,345 1613,335 1651,325 1690,316 1727,308 1764,300 1799,293 1832,287 1864,282 1893,279 1920,277 1944,276 1965,277 1983,279 1997,284 2007,290 2013,298 2019,317 2021,335 2019,352 2015,369 2007,385 1996,401 1983,416 1967,430 1948,444 1927,457 1903,469 1877,480 1850,491 1820,500 1789,509 1756,517 1758,518 1765,521 1775,526 1786,532 1797,540 1808,549 1816,560 1821,572 1822,586 1816,600 1803,616 1782,633 1751,650 1709,668 1655,687 1588,706 1564,712 1540,717 1515,722 1491,725 1466,728 1441,729 1415,729 1390,727 1364,723 1338,718 1311,711 1285,701 1258,689 1231,675 1203,658 1175,639 1176,636 1178,626 1181,611 1182,590 1183,565 1180,536 1175,502 1165,466"/>
<polygon class="pen1 brush0" points="1618,639 1271,483 1273,476 1312,465 1351,455 1390,444 1429,434 1468,424 1508,414 1547,404 1586,394 1626,384 1665,374 1705,365 1744,355 1784,345 1823,336 1863,326 1902,317 1904,322 1891,326 1877,329 1864,332 1850,336 1837,339 1823,343 1810,346 1797,349 1783,353 1770,356 1756,359 1743,362 1729,365 1716,369 1702,372 1689,375 1696,387 1701,400 1705,415 1706,429 1719,427 1731,426 1744,424 1756,423 1769,421 1782,420 1794,418 1807,417 1820,415 1832,414 1845,412 1858,411 1870,409 1883,408 1895,406 1908,405 1908,412 1888,414 1869,417 1849,419 1830,421 1810,424 1790,426 1770,428 1751,430 1731,432 1711,435 1691,437 1671,439 1651,441 1631,443 1611,445 1591,447 1596,469 1599,493 1598,517 1592,538 1609,541 1627,544 1644,547 1662,550 1680,553 1698,555 1715,558 1733,560 1733,567 1718,565 1703,563 1687,561 1672,559 1657,557 1642,554 1627,552 1612,549 1596,546 1581,543 1566,541 1551,538 1536,535 1520,532 1505,530 1490,527 1487,538 1484,549 1480,560 1476,571 1494,579 1511,587 1529,595 1547,603 1566,611 1584,619 1602,627 1621,634 1618,639 1618,639"/>
<polygon class="pen1 brush2" points="1301,490 1312,495 1322,500 1333,505 1343,509 1354,514 1364,519 1375,524 1385,529 1395,533 1406,538 1416,543 1427,548 1437,553 1448,558 1458,563 1469,568 1474,557 1477,547 1480,536 1483,526 1472,524 1460,521 1449,519 1437,517 1426,514 1415,512 1403,510 1392,507 1381,505 1369,503 1358,500 1347,498 1335,496 1324,494 1312,492 1301,490 1301,490"/>
<polygon class="pen1 brush2" points="1296,480 1314,484 1332,487 1350,491 1368,495 1386,499 1404,502 1422,506 1441,510 1459,513 1477,517 1495,520 1513,524 1531,527 1549,530 1567,534 1585,537 1592,514 1593,491 1589,469 1585,447 1567,449 1549,452 1531,454 1513,456 1495,459 1477,461 1459,463 1441,465 1422,468 1404,470 1386,472 1368,474 1350,475 1332,477 1314,479 1296,480 1296,480"/>
<polygon class="pen1 brush2" points="1314,472 1338,469 1362,466 1386,463 1410,460 1434,458 1458,455 1482,452 1507,450 1531,447 1555,445 1579,442 1603,439 1627,437 1651,434 1675,432 1699,429 1698,416 1694,401 1689,387 1682,376 1659,382 1636,388 1613,394 1590,400 1568,406 1545,413 1522,419 1499,425 1476,431 1453,437 1430,443 1407,449 1384,455 1360,461 1337,466 1314,472"/>
</g>
</svg>
