<?xml version="1.0" encoding="UTF-8" standalone="no"?>
<!DOCTYPE svg PUBLIC "-//W3C//DTD SVG 1.0//EN" "http://www.w3.org/TR/2001/REC-SVG-20010904/DTD/svg10.dtd">
<svg xmlns="http://www.w3.org/2000/svg" xmlns:xlink="http://www.w3.org/1999/xlink" fill-rule="evenodd" height="1.978in" preserveAspectRatio="none" stroke-linecap="round" viewBox="0 0 1750 1978" width="1.75in">
<style type="text/css">
.brush0 { fill: rgb(255,255,255); }
.pen0 { stroke: rgb(0,0,0); stroke-width: 1; stroke-linejoin: round; }
.brush1 { fill: none; }
.pen1 { stroke: none; }
.brush2 { fill: rgb(0,0,0); }
</style>
<g>
<polygon class="pen1 brush2" points="537,115 529,107 520,99 510,91 500,83 488,75 476,67 463,60 450,52 436,45 421,39 406,32 390,27 374,21 358,17 341,13 324,10 314,8 304,7 293,6 283,6 273,5 262,6 252,7 242,8 232,9 221,11 211,14 201,17 191,21 181,25 172,29 162,34 142,46 124,60 107,76 91,93 76,113 63,134 51,158 40,184 31,213 23,245 16,279 10,316 6,357 2,400 1,447 0,497 0,518 2,542 4,567 8,594 13,623 19,653 26,684 34,716 44,749 56,784 69,818 84,853 100,889 119,924 139,960 161,995 185,1031 211,1065 239,1099 270,1133 302,1165 337,1196 375,1226 415,1255 457,1282 502,1307 550,1331 600,1352 654,1372 710,1389 769,1403 831,1415 860,1419 895,1422 935,1427 978,1433 1024,1442 1072,1454 1121,1471 1169,1493 1216,1522 1261,1558 1303,1601 1340,1654 1373,1717 1399,1791 1417,1877 1428,1975 1429,1975 1432,1975 1437,1975 1444,1975 1452,1975 1462,1974 1473,1974 1486,1973 1499,1971 1514,1970 1529,1968 1545,1965 1561,1962 1578,1958 1595,1953 1612,1948 1632,1940 1652,1932 1671,1922 1690,1910 1707,1898 1723,1884 1738,1868 1750,1851 1746,1845 1736,1830 1720,1805 1700,1773 1675,1735 1647,1691 1616,1645 1584,1595 1552,1546 1519,1496 1488,1448 1458,1404 1432,1364 1408,1329 1390,1302 1376,1283 1375,1283 1370,1284 1364,1286 1354,1288 1343,1291 1329,1293 1313,1296 1295,1298 1275,1301 1253,1303 1229,1304 1204,1305 1178,1305 1150,1304 1121,1303 1091,1300 1060,1295 1028,1290 996,1282 962,1274 929,1263 894,1250 860,1235 825,1218 791,1199 756,1177 722,1153 688,1126 655,1096 622,1063 589,1026 558,987 542,962 522,925 502,879 487,829 481,776 488,726 512,681 558,645 554,650 543,666 530,691 519,725 512,767 515,817 530,873 561,936 572,953 584,970 597,987 611,1004 625,1022 641,1039 658,1056 675,1074 694,1091 714,1107 734,1124 755,1140 778,1155 801,1170 825,1185 850,1198 876,1211 902,1223 930,1234 958,1244 987,1253 1017,1261 1048,1268 1080,1273 1112,1277 1146,1280 1180,1281 1215,1280 1250,1278 1287,1274 1324,1268 1362,1261 1362,1259 1362,1254 1361,1244 1360,1232 1359,1217 1356,1199 1353,1178 1349,1154 1343,1129 1337,1101 1328,1072 1319,1041 1307,1009 1294,975 1278,941 1261,905 1241,870 1218,833 1193,797 1165,761 1135,725 1101,689 1064,654 1024,620 980,587 933,556 882,526 827,497 768,471 704,446 637,424 565,405 564,401 562,391 557,374 549,352 536,326 519,297 496,266 466,234 537,115 537,115"/>
<polygon class="pen1 brush2" points="733,247 726,251 717,256 708,262 697,268 686,274 674,281 662,287 650,294 637,301 625,307 613,313 602,319 591,324 581,328 572,332 565,334 564,332 562,326 557,317 551,306 542,293 531,279 518,265 503,250 514,248 526,246 537,244 548,243 559,241 571,240 582,240 594,239 612,239 629,239 646,239 664,240 681,241 698,243 715,245 733,247 733,247"/>
<polygon class="pen1 brush2" points="555,139 569,140 582,141 595,143 607,145 619,148 631,151 642,155 654,160 665,166 676,172 687,179 698,187 709,195 720,205 732,215 743,227 743,227 743,228 743,229 743,229 724,226 706,224 687,222 668,220 649,219 631,217 612,217 594,217 582,218 569,219 557,220 545,222 533,223 521,225 509,228 497,230 555,139 555,139"/>
<polygon class="pen1 brush2" points="655,1411 659,1410 671,1411 687,1414 704,1419 720,1426 731,1436 736,1449 730,1466 727,1470 721,1476 713,1485 704,1495 693,1506 681,1519 668,1533 654,1546 641,1560 627,1574 614,1587 602,1599 592,1610 582,1619 575,1627 570,1632 707,1693 551,1679 348,1782 445,1688 264,1730 426,1653 261,1645 263,1645 269,1644 278,1642 289,1640 303,1637 319,1635 336,1631 354,1628 372,1624 391,1621 408,1617 425,1614 440,1610 454,1607 465,1604 473,1602 490,1596 507,1589 523,1580 540,1570 555,1560 570,1548 585,1536 598,1523 610,1510 622,1496 631,1482 640,1467 646,1453 651,1439 654,1425 655,1411"/>
<polygon class="pen1 brush0" points="313,220 321,219 329,217 336,213 342,208 347,202 351,195 353,187 354,179 353,171 351,163 347,156 342,150 336,146 329,142 321,140 313,139 305,140 297,142 290,146 284,150 278,156 274,163 272,171 271,179 272,187 274,195 278,202 284,208 290,213 297,217 305,219 313,220"/>
</g>
</svg>
