<?xml version="1.0" encoding="UTF-8" standalone="no"?>
<!DOCTYPE svg PUBLIC "-//W3C//DTD SVG 1.0//EN" "http://www.w3.org/TR/2001/REC-SVG-20010904/DTD/svg10.dtd">
<svg xmlns="http://www.w3.org/2000/svg" xmlns:xlink="http://www.w3.org/1999/xlink" fill-rule="evenodd" height="1.98in" preserveAspectRatio="none" stroke-linecap="round" viewBox="0 0 1980 1980" width="1.98in">
<style type="text/css">
.brush0 { fill: rgb(255,255,255); }
.pen0 { stroke: rgb(0,0,0); stroke-width: 1; stroke-linejoin: round; }
.brush1 { fill: none; }
.pen1 { stroke: none; }
.brush2 { fill: rgb(0,0,0); }
</style>
<g>
<polygon class="pen1 brush2" points="1058,177 1062,178 1067,178 1071,179 1075,179 1079,180 1083,180 1087,181 1091,182 1164,14 1171,196 1175,196 1179,197 1183,198 1187,199 1191,200 1194,201 1198,202 1202,203 1297,48 1280,229 1284,230 1288,232 1291,233 1295,235 1299,236 1303,238 1306,239 1310,241 1425,101 1382,277 1386,279 1389,281 1393,283 1397,285 1400,288 1404,290 1408,292 1412,294 1544,170 1479,338 1485,343 1491,348 1498,354 1505,359 1654,256 1564,413 1570,419 1576,424 1581,430 1587,436 1749,355 1638,498 1643,505 1648,512 1653,519 1658,525 1830,467 1702,594 1705,601 1709,608 1713,616 1716,623 1895,589 1749,696 1752,704 1755,712 1758,719 1762,727 1942,720 1783,805 1785,814 1787,822 1789,830 1790,838 1970,855 1801,917 1802,926 1803,934 1803,943 1803,952 1980,991 1803,1031 1803,1039 1803,1047 1802,1055 1801,1064 1970,1129 1790,1143 1789,1152 1787,1160 1785,1168 1783,1176 1942,1265 1760,1254 1758,1261 1755,1269 1752,1276 1749,1284 1894,1396 1716,1359 1713,1366 1709,1374 1705,1381 1701,1388 1828,1517 1658,1456 1653,1463 1648,1470 1643,1476 1638,1483 1746,1629 1587,1544 1581,1550 1575,1556 1569,1562 1564,1568 1651,1728 1503,1622 1497,1627 1491,1632 1484,1637 1478,1642 1541,1813 1411,1688 1407,1690 1404,1692 1400,1694 1396,1696 1392,1699 1389,1701 1385,1703 1381,1705 1422,1882 1310,1740 1306,1742 1302,1744 1298,1745 1295,1747 1291,1748 1287,1750 1283,1751 1279,1752 1293,1933 1202,1777 1198,1778 1194,1780 1190,1781 1186,1782 1182,1783 1178,1784 1173,1785 1169,1786 1158,1967 1091,1799 1087,1800 1083,1800 1078,1801 1074,1802 1070,1802 1065,1803 1061,1803 1057,1803 1022,1980 978,1806 974,1806 969,1806 965,1806 961,1806 957,1806 953,1805 949,1805 945,1804 885,1975 864,1796 860,1795 856,1795 852,1794 848,1793 844,1793 840,1792 835,1792 831,1791 747,1951 753,1771 749,1770 745,1768 741,1767 738,1766 734,1764 730,1763 726,1762 722,1761 617,1909 647,1730 643,1728 640,1726 636,1724 632,1722 628,1721 625,1719 621,1717 617,1715 493,1847 547,1675 540,1670 533,1666 527,1661 520,1656 378,1769 456,1606 450,1601 444,1595 438,1590 432,1585 276,1677 375,1527 370,1520 365,1513 359,1507 354,1500 186,1571 307,1436 302,1429 297,1421 293,1414 290,1408 114,1453 252,1336 248,1329 245,1322 241,1314 237,1307 57,1327 210,1230 207,1222 205,1214 203,1207 201,1199 20,1193 185,1119 183,1111 182,1103 180,1095 179,1086 0,1057 175,1006 174,1002 174,998 174,994 174,990 175,949 178,908 183,867 190,828 199,788 210,750 223,713 237,676 253,640 271,605 290,571 311,538 334,507 358,476 383,447 410,418 438,391 467,366 497,342 529,319 561,298 595,278 630,260 665,243 702,228 739,215 778,204 817,194 856,187 897,181 938,178 979,176 1026,0 1058,177"/>
<polyline class="pen0" fill="none" points="1058,177 1058,177 1062,178 1067,178 1071,179 1075,179 1079,180 1083,180 1087,181 1091,182 1164,14 1171,196 1171,196 1175,196 1179,197 1183,198 1187,199 1191,200 1194,201 1198,202 1202,203 1297,48 1280,229 1280,229 1284,230 1288,232 1291,233 1295,235 1299,236 1303,238 1306,239 1310,241 1425,101 1382,277 1382,277 1386,279 1389,281 1393,283 1397,285 1400,288 1404,290 1408,292 1412,294 1544,170 1479,338 1479,338 1485,343 1491,348 1498,354 1505,359 1654,256 1564,413 1564,413 1570,419 1576,424 1581,430 1587,436 1749,355 1638,498 1638,498 1643,505 1648,512 1653,519 1658,525 1830,467 1702,594 1702,594 1705,601 1709,608 1713,616 1716,623 1895,589 1749,696 1749,696 1752,704 1755,712 1758,719 1762,727 1942,720 1783,805 1783,805 1785,814 1787,822 1789,830 1790,838 1970,855 1801,917 1801,917 1802,926 1803,934 1803,943 1803,952 1980,991 1803,1031 1803,1031 1803,1039 1803,1047 1802,1055 1801,1064 1970,1129 1790,1143 1790,1143 1789,1152 1787,1160 1785,1168 1783,1176 1942,1265 1760,1254 1760,1254 1758,1261 1755,1269 1752,1276 1749,1284 1894,1396 1716,1359 1716,1359 1713,1366 1709,1374 1705,1381 1701,1388 1828,1517 1658,1456 1658,1456 1653,1463 1648,1470 1643,1476 1638,1483 1746,1629 1587,1544 1587,1544 1581,1550 1575,1556 1569,1562 1564,1568 1651,1728 1503,1622 1503,1622 1497,1627 1491,1632 1484,1637 1478,1642 1541,1813 1411,1688 1411,1688 1407,1690 1404,1692 1400,1694 1396,1696 1392,1699 1389,1701 1385,1703 1381,1705 1422,1882 1310,1740 1310,1740 1306,1742 1302,1744 1298,1745 1295,1747 1291,1748 1287,1750 1283,1751 1279,1752 1293,1933 1202,1777 1202,1777 1198,1778 1194,1780 1190,1781 1186,1782 1182,1783 1178,1784 1173,1785 1169,1786 1158,1967 1091,1799 1091,1799 1087,1800 1083,1800 1078,1801 1074,1802 1070,1802 1065,1803 1061,1803 1057,1803 1022,1980 978,1806 978,1806 974,1806 969,1806 965,1806 961,1806 957,1806 953,1805 949,1805 945,1804 885,1975 864,1796 864,1796 860,1795 856,1795 852,1794 848,1793 844,1793 840,1792 835,1792 831,1791 747,1951 753,1771 753,1771 749,1770 745,1768 741,1767 738,1766 734,1764 730,1763 726,1762 722,1761 617,1909 647,1730 647,1730 643,1728 640,1726 636,1724 632,1722 628,1721 625,1719 621,1717 617,1715 493,1847 547,1675 547,1675 540,1670 533,1666 527,1661 520,1656 378,1769 456,1606 456,1606 450,1601 444,1595 438,1590 432,1585 276,1677 375,1527 375,1527 370,1520 365,1513 359,1507 354,1500 186,1571 307,1436 307,1436 302,1429 297,1421 293,1414 290,1408 114,1453 252,1336 252,1336 248,1329 245,1322 241,1314 237,1307 57,1327 210,1230 210,1230 207,1222 205,1214 203,1207 201,1199 20,1193 185,1119 185,1119 183,1111 182,1103 180,1095 179,1086 0,1057 175,1006 175,1006 174,1002 174,998 174,994 174,990 174,990 175,949 178,908 183,867 190,828 199,788 210,750 223,713 237,676 253,640 271,605 290,571 311,538 334,507 358,476 383,447 410,418 438,391 467,366 497,342 529,319 561,298 595,278 630,260 665,243 702,228 739,215 778,204 817,194 856,187 897,181 938,178 979,176 1026,0 1058,177"/>
<polygon class="pen1 brush0" points="290,943 299,943 308,942 316,939 323,934 329,929 334,922 338,914 340,906 340,897 339,888 336,880 331,873 326,867 319,862 311,858 303,856 294,855 285,857 277,860 270,864 264,870 259,877 255,884 253,893 252,902 254,911 257,919 261,926 267,932 274,937 281,941 290,943 290,943"/>
<polygon class="pen1 brush0" points="445,956 438,954 431,951 426,947 421,942 418,937 416,930 415,923 415,916 417,909 420,902 424,897 429,892 434,889 441,887 448,886 455,886 462,888 468,891 473,895 478,900 481,905 484,912 485,919 485,926 483,933 480,940 476,945 471,950 465,953 458,955 452,956 445,956 445,956"/>
<polygon class="pen1 brush0" points="576,967 582,967 587,967 592,965 597,962 601,958 604,954 606,949 608,943 607,932 602,922 594,915 584,912 578,911 573,912 567,914 563,916 559,920 556,925 554,930 553,936 553,946 557,956 565,963 576,967 576,967"/>
<polygon class="pen1 brush0" points="695,979 687,976 681,970 677,962 676,953 679,944 685,938 693,934 702,933 710,937 716,942 720,950 720,960 718,968 712,974 704,978 695,979 695,979"/>
<polygon class="pen1 brush0" points="816,990 823,989 829,986 833,982 835,976 835,969 832,962 827,957 820,954 813,955 807,958 802,963 800,970 801,977 804,983 809,987 816,990 816,990"/>
<polygon class="pen1 brush0" points="327,764 335,766 343,767 352,766 360,764 367,760 374,755 380,748 384,740 387,731 388,723 387,714 384,706 380,699 375,692 368,687 361,683 352,680 344,679 335,680 327,682 320,686 313,691 307,698 303,706 300,715 299,723 300,732 303,740 307,747 312,754 319,760 327,764 327,764"/>
<polygon class="pen1 brush0" points="472,815 461,808 454,797 451,784 453,770 457,763 462,758 467,754 473,751 480,749 486,748 493,749 499,751 511,759 518,770 521,784 519,798 515,804 510,809 505,813 499,816 492,818 486,819 479,818 472,815 472,815"/>
<polygon class="pen1 brush0" points="597,861 602,862 608,863 613,862 618,861 622,858 626,855 630,850 632,845 635,834 633,824 627,815 618,809 613,808 607,807 602,808 597,809 592,811 587,815 584,819 581,824 579,835 582,845 588,855 597,861 597,861"/>
<polygon class="pen1 brush0" points="709,902 702,897 697,890 695,882 696,872 699,868 702,865 705,863 709,861 713,860 718,860 722,860 726,862 733,866 738,873 740,881 739,890 736,894 733,898 730,901 726,903 721,904 717,904 713,904 709,902 709,902"/>
<polygon class="pen1 brush0" points="821,946 828,948 835,946 841,942 845,936 847,929 845,922 841,916 835,913 829,911 823,913 817,916 813,922 811,929 812,936 816,942 821,946 821,946"/>
<polygon class="pen1 brush0" points="408,599 415,603 423,606 432,608 440,608 448,606 456,603 463,598 469,592 477,576 478,559 473,544 462,531 454,526 446,523 438,521 429,521 421,523 414,526 407,531 401,538 393,554 391,571 397,586 408,599 408,599"/>
<polygon class="pen1 brush0" points="536,687 526,677 522,665 523,652 530,639 535,634 540,630 546,627 553,625 560,625 566,626 572,628 578,632 588,643 592,656 591,669 584,682 579,687 574,691 568,694 561,695 554,695 548,694 542,691 536,687 536,687"/>
<polygon class="pen1 brush0" points="644,764 648,767 653,769 659,769 664,769 669,768 674,766 679,762 682,758 687,749 688,738 685,728 678,720 673,717 668,715 662,713 657,713 652,714 647,716 642,719 638,723 633,734 632,745 636,755 644,764 644,764"/>
<polygon class="pen1 brush0" points="742,832 736,826 733,818 733,809 737,801 740,798 744,795 748,794 753,793 757,793 761,794 765,795 769,798 775,804 777,811 777,820 773,828 769,831 765,834 761,836 757,837 753,837 749,837 745,835 742,832 742,832"/>
<polygon class="pen1 brush0" points="840,903 835,898 833,892 833,885 837,879 842,874 849,872 855,872 861,875 865,881 868,887 867,894 864,900 859,905 852,907 846,906 840,903 840,903"/>
<polygon class="pen1 brush0" points="530,463 535,469 542,474 549,477 558,479 566,480 574,478 583,475 591,470 602,457 608,442 606,425 598,409 592,403 585,398 578,394 570,392 561,392 553,393 545,396 537,400 526,414 521,430 522,447 530,463 530,463"/>
<polygon class="pen1 brush0" points="630,581 624,568 623,555 627,542 637,531 643,528 649,525 655,525 662,525 669,527 675,529 680,533 685,538 691,551 691,564 687,577 678,588 672,591 665,594 659,594 652,594 646,592 640,590 635,586 630,581 630,581"/>
<polygon class="pen1 brush0" points="715,682 718,686 722,689 727,691 732,692 737,692 743,691 748,689 753,686 761,678 765,668 764,657 759,648 755,644 751,641 746,638 741,637 735,636 730,637 724,639 719,642 712,651 709,661 710,672 715,682 715,682"/>
<polygon class="pen1 brush0" points="790,774 787,766 786,757 789,749 794,743 798,740 802,738 807,738 812,738 816,739 820,741 824,744 827,747 830,755 830,763 827,771 821,777 817,780 813,781 809,782 804,782 800,781 796,780 793,777 790,774 790,774"/>
<polygon class="pen1 brush0" points="867,868 872,872 879,875 886,874 892,871 897,866 899,859 898,852 895,845 890,841 883,839 877,839 871,842 866,847 863,854 864,861 867,868 867,868"/>
<polygon class="pen1 brush0" points="682,361 686,368 691,375 698,380 705,385 713,387 722,388 730,388 739,385 747,381 754,375 759,369 763,361 765,354 766,345 765,337 763,328 759,320 753,313 747,308 739,304 731,301 723,300 714,301 705,304 697,308 691,313 685,319 682,327 679,335 678,344 679,352 682,361 682,361"/>
<polygon class="pen1 brush0" points="747,501 745,488 748,475 755,464 767,456 774,454 781,453 788,454 795,456 800,459 806,464 810,469 813,476 815,489 812,502 805,513 793,521 786,523 780,523 773,522 767,520 761,516 755,512 751,507 747,501 747,501"/>
<polygon class="pen1 brush0" points="803,621 806,626 810,630 814,633 819,636 824,638 830,638 835,638 841,636 850,630 855,621 857,610 855,599 853,594 849,590 845,587 841,584 836,583 831,582 825,583 820,585 810,590 803,599 801,610 803,621 803,621"/>
<polygon class="pen1 brush0" points="854,730 852,721 854,712 858,705 865,700 870,699 875,699 879,699 883,701 887,703 890,706 893,709 895,713 896,721 895,729 890,736 882,741 874,743 865,741 859,737 854,730 854,730"/>
<polygon class="pen1 brush0" points="904,839 902,833 903,826 907,821 912,817 919,815 926,817 932,821 936,827 937,833 936,840 932,845 926,849 920,851 913,849 908,845 904,839 904,839"/>
<polygon class="pen1 brush0" points="855,302 857,311 861,319 865,326 872,332 879,337 887,340 895,341 904,341 913,339 920,335 927,330 933,324 938,317 941,309 942,300 942,291 940,283 937,275 932,268 926,262 919,258 911,255 903,253 894,254 885,256 878,259 871,264 865,270 860,277 857,285 855,293 855,302 855,302"/>
<polygon class="pen1 brush0" points="882,456 882,449 884,442 886,435 890,430 895,425 900,421 907,418 914,416 921,416 927,417 933,419 939,423 943,427 947,433 950,439 952,446 952,453 951,460 949,467 946,473 941,478 936,482 929,485 922,486 915,486 908,485 901,482 896,478 891,474 887,469 884,463 882,456 882,456"/>
<polygon class="pen1 brush0" points="905,585 907,591 909,596 912,600 916,604 921,607 926,609 931,609 936,609 947,606 955,599 961,589 962,578 960,572 958,567 955,563 951,559 946,556 941,554 936,554 931,554 920,557 912,564 906,574 905,585 905,585"/>
<polygon class="pen1 brush0" points="925,703 926,694 931,686 937,681 945,679 954,679 962,683 968,689 970,697 970,706 966,714 959,720 951,723 942,722 935,718 929,712 925,703 925,703"/>
<polygon class="pen1 brush0" points="945,822 947,829 952,834 958,837 966,838 972,835 977,831 980,825 980,818 978,811 973,806 967,803 960,802 954,805 948,809 945,815 945,822"/>
<polygon class="pen1 brush0" points="449,1065 280,1040 468,984 470,986 476,990 484,998 491,1007 496,1019 498,1032 493,1046 482,1061 488,1066 494,1072 500,1079 505,1088 507,1097 507,1108 504,1120 496,1132 503,1136 511,1141 518,1147 524,1155 528,1164 529,1174 528,1186 522,1199 529,1202 537,1206 545,1212 551,1218 556,1227 559,1236 558,1248 554,1261 562,1263 571,1266 579,1270 587,1276 594,1284 598,1293 599,1305 597,1319 605,1320 614,1322 623,1325 631,1330 638,1337 644,1346 647,1357 647,1372 655,1371 664,1371 673,1373 682,1376 690,1382 697,1390 701,1401 703,1416 711,1415 720,1414 729,1414 739,1416 748,1421 756,1428 762,1438 766,1452 773,1449 782,1447 791,1446 801,1446 810,1449 819,1455 826,1464 831,1477 838,1474 847,1471 856,1469 866,1468 876,1470 885,1475 894,1483 901,1496 907,1491 915,1487 924,1483 934,1481 943,1482 953,1485 963,1492 972,1503 978,1497 985,1492 993,1487 1002,1483 1011,1482 1022,1484 1032,1490 1043,1500 1048,1494 1054,1487 1062,1482 1070,1477 1080,1475 1091,1475 1102,1479 1114,1487 1118,1480 1123,1473 1129,1467 1137,1461 1146,1458 1157,1457 1169,1460 1182,1466 1185,1458 1190,1450 1195,1443 1202,1436 1211,1431 1221,1429 1233,1429 1246,1434 1248,1427 1251,1418 1256,1410 1262,1403 1269,1397 1279,1393 1290,1392 1304,1395 1306,1387 1308,1378 1312,1369 1317,1360 1324,1353 1333,1348 1344,1345 1358,1346 1358,1338 1359,1329 1361,1320 1365,1311 1371,1303 1379,1297 1390,1293 1405,1291 1404,1283 1403,1275 1404,1265 1406,1256 1410,1247 1418,1240 1428,1234 1442,1230 1440,1223 1438,1214 1438,1205 1439,1195 1443,1186 1449,1178 1459,1171 1472,1166 1468,1158 1465,1150 1463,1140 1463,1130 1465,1120 1470,1111 1478,1103 1490,1096 1486,1090 1482,1082 1479,1073 1478,1063 1479,1054 1482,1044 1489,1034 1500,1025 1495,1019 1490,1012 1486,1004 1483,994 1483,985 1485,975 1490,964 1500,954 1494,949 1489,943 1483,936 1479,927 1477,918 1478,907 1482,896 1490,885 1484,880 1477,874 1471,867 1466,859 1462,850 1462,839 1465,828 1472,815 1464,812 1456,807 1449,801 1442,794 1438,785 1436,775 1437,763 1442,750 1435,747 1427,744 1419,739 1412,733 1406,725 1402,715 1402,704 1405,690 1397,688 1388,685 1379,682 1371,676 1364,669 1359,660 1357,649 1358,635 1350,635 1341,633 1332,631 1323,627 1315,620 1309,612 1305,600 1304,586 1296,587 1288,587 1279,586 1269,583 1261,578 1254,571 1249,561 1246,547 1238,548 1229,550 1219,550 1210,548 1201,545 1193,538 1187,529 1182,515 1174,518 1166,521 1156,523 1147,522 1137,520 1128,515 1120,506 1114,493 1107,497 1099,501 1090,503 1080,504 1070,503 1061,499 1051,492 1043,480 1036,485 1027,491 1017,495 1007,497 996,496 986,491 976,482 966,467 1014,280 1047,447 1112,290 1121,460 1209,314 1195,484 1301,352 1263,517 1388,400 1326,561 1466,461 1382,612 1534,534 1432,670 1594,613 1472,734 1639,702 1503,804 1674,794 1523,878 1695,892 1534,953 1702,990 1534,1028 1695,1089 1523,1105 1674,1186 1503,1177 1639,1280 1472,1247 1593,1368 1431,1311 1534,1447 1381,1369 1466,1520 1326,1420 1387,1581 1262,1463 1300,1631 1193,1497 1209,1667 1121,1521 1112,1691 1046,1534 1013,1701 970,1537 915,1698 895,1528 817,1681 820,1510 722,1649 749,1480 634,1606 683,1443 551,1551 624,1396 478,1484 570,1341 414,1409 526,1280 361,1324 490,1211 320,1234 465,1140 293,1138 449,1065"/>
<polygon class="pen1 brush0" points="568,1048 438,1028 584,984 586,985 590,989 596,995 602,1003 606,1012 607,1022 603,1033 594,1045 599,1049 605,1054 610,1060 614,1067 616,1074 616,1083 613,1091 607,1101 612,1104 618,1108 623,1113 627,1119 630,1126 631,1134 630,1142 625,1152 631,1155 637,1158 643,1163 649,1168 653,1175 655,1182 654,1191 651,1202 657,1203 664,1205 670,1208 676,1213 681,1219 685,1226 686,1236 685,1247 691,1247 698,1249 704,1251 711,1255 717,1260 721,1267 723,1276 722,1287 729,1287 736,1287 743,1288 750,1291 757,1295 762,1301 765,1310 766,1321 772,1320 780,1320 787,1320 795,1322 802,1325 808,1330 813,1338 816,1348 822,1346 829,1345 836,1345 843,1345 851,1348 857,1352 863,1359 867,1369 873,1366 879,1364 887,1363 894,1362 901,1364 909,1368 915,1374 921,1383 926,1380 932,1377 939,1374 947,1373 954,1373 962,1376 969,1381 976,1389 980,1385 986,1381 992,1377 999,1375 1007,1374 1015,1376 1022,1380 1030,1388 1034,1383 1039,1378 1045,1373 1052,1369 1059,1368 1067,1368 1076,1371 1085,1378 1089,1373 1093,1367 1099,1362 1105,1357 1112,1355 1120,1354 1128,1356 1138,1361 1141,1355 1145,1348 1149,1342 1155,1337 1161,1333 1169,1331 1178,1331 1189,1335 1191,1329 1193,1323 1196,1316 1201,1310 1207,1306 1215,1303 1225,1302 1236,1304 1236,1298 1238,1291 1240,1285 1244,1278 1249,1272 1256,1268 1265,1266 1276,1267 1276,1261 1277,1254 1279,1247 1282,1240 1287,1233 1293,1228 1302,1225 1313,1224 1312,1218 1311,1211 1312,1204 1314,1197 1317,1190 1322,1184 1330,1180 1341,1177 1340,1171 1339,1164 1338,1157 1339,1150 1342,1142 1347,1136 1354,1130 1364,1126 1362,1120 1360,1113 1359,1106 1359,1099 1360,1091 1364,1084 1370,1077 1380,1072 1374,1061 1370,1047 1374,1031 1388,1017 1380,1007 1374,994 1375,979 1388,963 1383,959 1378,954 1374,948 1371,941 1369,933 1370,925 1373,917 1380,908 1375,904 1369,900 1364,894 1360,888 1357,881 1357,873 1359,865 1364,855 1359,852 1353,848 1347,843 1342,837 1339,831 1337,823 1337,814 1341,804 1335,802 1329,799 1323,796 1317,791 1313,784 1310,777 1310,768 1313,757 1307,756 1300,753 1293,750 1286,746 1281,741 1277,733 1275,724 1276,713 1270,713 1263,712 1256,710 1250,707 1243,703 1239,696 1236,687 1235,676 1229,677 1221,677 1214,676 1207,674 1201,670 1195,664 1191,656 1189,645 1183,646 1176,647 1169,647 1162,646 1154,643 1148,638 1142,631 1138,621 1132,623 1126,625 1118,626 1111,626 1103,624 1096,620 1090,614 1085,604 1080,607 1074,610 1067,612 1059,612 1052,612 1044,608 1037,603 1030,594 1025,598 1019,602 1011,605 1003,607 995,606 986,603 978,596 970,584 1009,437 1034,568 1085,446 1093,578 1161,463 1148,596 1233,493 1202,622 1300,531 1252,656 1361,579 1296,696 1414,635 1334,741 1459,697 1364,791 1496,765 1389,845 1522,838 1405,902 1539,915 1414,961 1543,990 1414,1020 1537,1068 1405,1078 1522,1142 1388,1136 1496,1216 1364,1190 1459,1284 1334,1240 1414,1346 1294,1285 1360,1402 1250,1325 1299,1450 1202,1359 1232,1488 1148,1385 1161,1517 1091,1402 1085,1535 1033,1413 1009,1544 975,1415 932,1541 915,1409 855,1527 858,1395 783,1504 803,1372 712,1470 752,1342 648,1426 705,1305 591,1375 665,1264 541,1315 630,1214 500,1250 601,1163 469,1179 581,1106 449,1105 568,1048"/>
<polygon class="pen1 brush0" points="678,1034 580,1018 689,986 690,987 694,990 698,994 702,1000 705,1007 706,1014 703,1022 696,1031 703,1038 710,1046 711,1058 705,1071 714,1077 721,1085 724,1096 719,1111 723,1113 728,1115 733,1118 737,1122 740,1127 742,1133 741,1140 739,1148 743,1149 748,1150 753,1152 758,1155 761,1160 764,1165 764,1172 763,1180 768,1181 773,1182 778,1184 783,1187 788,1190 791,1195 793,1202 793,1210 797,1210 802,1211 807,1212 812,1214 817,1217 821,1221 823,1228 824,1236 829,1235 834,1235 839,1235 845,1237 850,1239 855,1243 859,1249 861,1257 865,1256 870,1254 875,1254 881,1254 886,1255 891,1259 895,1264 898,1271 902,1269 907,1268 912,1267 918,1267 924,1268 929,1270 934,1274 939,1281 943,1279 948,1276 953,1274 958,1273 964,1274 969,1276 975,1280 980,1287 983,1284 987,1280 992,1278 997,1276 1003,1275 1008,1276 1014,1279 1020,1284 1023,1280 1027,1277 1031,1274 1036,1271 1042,1270 1048,1270 1054,1272 1061,1277 1064,1273 1067,1269 1071,1265 1075,1262 1081,1260 1087,1259 1093,1260 1101,1264 1103,1260 1105,1256 1108,1252 1112,1248 1117,1245 1123,1244 1130,1244 1138,1247 1139,1243 1141,1238 1144,1233 1147,1229 1151,1225 1157,1223 1164,1222 1172,1223 1172,1219 1173,1214 1175,1209 1178,1204 1182,1200 1187,1197 1194,1196 1202,1196 1203,1186 1207,1175 1215,1167 1229,1165 1229,1154 1230,1143 1237,1134 1252,1129 1249,1120 1249,1109 1255,1099 1267,1092 1264,1082 1263,1071 1267,1060 1280,1051 1275,1043 1272,1032 1274,1021 1286,1011 1279,1003 1275,993 1276,981 1286,970 1278,963 1273,954 1272,942 1280,929 1272,923 1265,914 1262,903 1267,889 1259,884 1251,877 1247,866 1252,852 1247,850 1242,848 1238,845 1233,841 1230,837 1228,831 1227,825 1229,817 1225,816 1220,815 1215,812 1210,809 1206,805 1203,799 1202,793 1202,784 1198,784 1193,783 1188,782 1183,779 1178,776 1175,771 1173,765 1172,757 1167,757 1162,757 1157,756 1151,755 1146,752 1142,748 1139,742 1138,734 1133,735 1128,736 1123,736 1117,735 1112,733 1107,730 1103,724 1101,717 1097,718 1092,719 1086,720 1081,720 1075,719 1069,716 1064,711 1060,703 1056,706 1052,708 1047,709 1042,710 1036,709 1030,707 1025,703 1020,696 1016,699 1011,702 1005,705 1000,706 993,706 987,703 982,698 976,689 1003,579 1023,676 1060,585 1066,684 1117,599 1108,699 1169,622 1148,717 1219,649 1183,743 1264,686 1216,771 1304,727 1245,805 1338,774 1269,842 1365,824 1287,883 1385,878 1299,926 1397,933 1304,970 1401,990 1304,1013 1397,1048 1299,1055 1385,1104 1286,1098 1365,1158 1267,1139 1338,1209 1245,1176 1304,1254 1216,1210 1264,1295 1183,1238 1219,1331 1147,1264 1169,1359 1108,1283 1117,1382 1066,1297 1060,1396 1023,1304 1003,1400 979,1305 948,1399 935,1301 891,1389 892,1291 837,1372 851,1274 784,1346 814,1251 736,1314 779,1224 695,1275 749,1193 658,1231 722,1156 628,1183 702,1119 604,1131 686,1077 587,1075 678,1034"/>
<polygon class="pen1 brush0" points="763,1021 692,1011 772,987 775,990 782,997 784,1008 777,1020 782,1024 786,1031 788,1040 783,1050 789,1054 794,1059 797,1067 793,1078 800,1081 806,1086 809,1094 807,1105 814,1106 821,1111 826,1118 826,1129 833,1130 840,1133 845,1139 847,1150 854,1150 861,1152 867,1158 870,1169 877,1168 885,1168 893,1173 897,1183 903,1181 911,1181 918,1185 924,1194 931,1191 939,1191 946,1194 953,1203 956,1201 959,1199 962,1197 967,1196 971,1196 975,1198 979,1201 983,1206 985,1204 988,1201 991,1199 995,1197 999,1197 1003,1198 1008,1200 1013,1204 1017,1199 1024,1194 1032,1194 1041,1199 1046,1193 1052,1188 1060,1186 1070,1190 1074,1184 1079,1178 1087,1174 1097,1176 1100,1170 1104,1163 1111,1159 1122,1159 1123,1152 1127,1145 1134,1140 1145,1139 1145,1132 1147,1125 1153,1119 1164,1116 1163,1110 1164,1102 1169,1096 1179,1092 1178,1085 1179,1076 1183,1069 1192,1064 1190,1057 1189,1049 1192,1041 1201,1034 1197,1028 1195,1020 1197,1012 1205,1004 1201,999 1198,992 1198,984 1205,976 1200,971 1196,964 1196,956 1201,946 1195,942 1190,936 1188,927 1192,917 1186,913 1180,908 1177,900 1179,889 1173,887 1167,883 1163,876 1164,865 1157,863 1150,859 1145,852 1145,842 1138,841 1130,838 1124,831 1122,821 1115,821 1107,820 1100,814 1097,804 1090,806 1082,805 1075,801 1070,791 1063,793 1055,793 1047,790 1041,781 1035,785 1027,787 1019,785 1012,777 1009,779 1006,781 1002,783 998,784 993,783 988,781 984,777 980,771 1000,693 1013,763 1041,696 1046,768 1083,706 1076,778 1121,723 1104,792 1157,744 1131,811 1189,768 1155,831 1219,798 1175,856 1243,832 1192,883 1263,869 1205,913 1276,909 1215,943 1286,950 1219,976 1289,990 1219,1007 1286,1031 1213,1038 1276,1072 1205,1068 1263,1112 1192,1098 1243,1149 1175,1125 1219,1183 1155,1149 1189,1213 1131,1170 1157,1237 1104,1189 1121,1258 1076,1203 1081,1274 1044,1213 1041,1284 1013,1219 999,1288 983,1220 959,1288 951,1216 918,1281 919,1209 878,1267 889,1196 841,1248 861,1180 807,1226 837,1160 776,1197 814,1138 749,1166 796,1112 726,1131 780,1084 709,1092 770,1052 698,1051 763,1021"/>
<polygon class="pen1 brush0" points="834,1011 786,1004 841,987 843,989 847,995 849,1003 844,1011 848,1014 851,1018 852,1024 848,1031 852,1034 856,1038 857,1044 855,1051 860,1052 865,1055 867,1061 865,1068 870,1070 875,1073 878,1078 878,1085 883,1086 888,1088 891,1092 891,1099 897,1099 902,1101 906,1105 908,1112 913,1112 918,1113 923,1116 925,1122 931,1121 937,1122 942,1124 945,1131 949,1129 954,1128 960,1130 965,1136 969,1133 974,1132 980,1133 985,1138 989,1134 994,1132 999,1132 1006,1136 1009,1133 1013,1130 1019,1130 1026,1133 1029,1130 1032,1126 1037,1124 1044,1126 1047,1122 1051,1118 1057,1116 1064,1118 1065,1113 1068,1108 1072,1105 1080,1106 1081,1102 1084,1097 1088,1093 1095,1092 1096,1087 1098,1082 1102,1078 1110,1077 1109,1072 1110,1066 1114,1062 1121,1059 1119,1054 1119,1049 1122,1044 1128,1041 1126,1036 1126,1030 1128,1025 1135,1021 1132,1016 1131,1011 1132,1005 1137,1000 1134,996 1133,991 1133,986 1137,980 1133,977 1130,973 1130,967 1135,960 1131,957 1127,953 1125,947 1128,940 1124,938 1120,935 1119,929 1121,922 1116,920 1111,916 1109,912 1110,905 1105,903 1100,900 1096,896 1095,889 1091,888 1086,886 1082,882 1080,875 1075,875 1070,873 1066,870 1064,862 1059,864 1053,863 1048,860 1044,854 1040,855 1035,856 1030,854 1026,848 1021,850 1015,851 1010,850 1005,844 1000,847 995,849 989,848 983,841 996,785 1006,835 1026,788 1027,838 1053,795 1049,845 1080,807 1068,855 1104,821 1087,866 1127,838 1103,882 1147,859 1118,899 1164,882 1128,917 1176,908 1138,937 1186,934 1144,959 1192,963 1147,980 1195,990 1147,1001 1192,1018 1144,1023 1186,1047 1138,1044 1176,1074 1128,1064 1164,1098 1117,1082 1147,1122 1103,1099 1127,1142 1087,1115 1104,1159 1068,1126 1080,1175 1049,1136 1053,1184 1027,1142 1026,1192 1006,1146 996,1194 983,1148 969,1193 963,1145 941,1189 942,1139 914,1179 922,1132 888,1167 902,1121 864,1152 885,1106 843,1132 870,1091 824,1111 858,1074 810,1086 847,1054 797,1059 840,1034 790,1033 834,1011"/>
<polygon class="pen1 brush0" points="884,1004 851,1000 888,988 889,990 892,993 893,999 891,1004 893,1006 895,1009 896,1013 894,1017 896,1019 899,1022 899,1026 898,1031 901,1033 904,1035 906,1038 905,1044 908,1045 911,1046 913,1050 914,1055 916,1055 920,1057 922,1060 922,1065 925,1065 929,1066 933,1069 935,1074 938,1074 941,1074 944,1076 946,1081 949,1080 953,1080 956,1082 959,1086 962,1085 966,1084 970,1085 973,1089 976,1088 980,1087 983,1088 986,1092 989,1089 992,1088 996,1088 1000,1091 1002,1088 1006,1086 1009,1086 1014,1088 1016,1085 1019,1083 1022,1082 1027,1084 1029,1081 1032,1079 1035,1077 1040,1078 1041,1075 1044,1072 1047,1069 1053,1069 1053,1066 1055,1062 1058,1060 1063,1061 1063,1058 1064,1054 1067,1051 1071,1050 1071,1046 1071,1042 1074,1039 1080,1038 1078,1035 1078,1031 1080,1027 1084,1024 1084,1021 1083,1017 1084,1014 1088,1011 1087,1008 1087,1004 1087,1000 1091,997 1089,994 1087,991 1088,987 1091,984 1088,981 1086,978 1086,974 1088,970 1086,968 1083,964 1083,961 1084,956 1082,954 1079,951 1079,948 1080,943 1076,942 1073,940 1071,937 1071,932 1068,931 1064,929 1062,925 1063,920 1059,920 1055,919 1053,916 1053,912 1049,912 1045,911 1041,908 1040,903 1037,904 1034,904 1030,902 1027,896 1024,898 1021,898 1017,896 1014,892 1011,894 1007,895 1004,894 1000,890 997,892 993,893 989,893 985,888 995,851 1002,883 1014,852 1016,886 1033,858 1030,890 1051,865 1043,898 1068,875 1057,906 1084,886 1067,916 1097,900 1077,927 1108,916 1084,940 1118,933 1091,954 1124,953 1095,969 1128,971 1097,984 1131,990 1097,997 1128,1010 1095,1013 1124,1028 1091,1027 1118,1048 1084,1041 1108,1065 1077,1054 1097,1081 1067,1065 1084,1095 1057,1075 1068,1106 1043,1084 1051,1116 1030,1089 1033,1123 1016,1095 1013,1129 1000,1098 995,1131 986,1098 976,1129 972,1096 956,1126 958,1092 938,1121 943,1086 921,1112 931,1079 905,1101 918,1069 889,1088 908,1059 877,1072 899,1047 867,1055 892,1034 858,1038 887,1020 854,1020 884,1004"/>
<polygon class="pen1 brush0" points="921,1000 898,997 922,988 923,989 926,992 927,996 925,1000 926,1001 928,1002 928,1005 926,1008 928,1010 930,1012 930,1014 929,1017 931,1018 934,1019 935,1022 935,1025 936,1025 939,1027 940,1029 939,1033 941,1033 944,1034 945,1036 946,1040 948,1040 951,1041 952,1042 953,1045 955,1045 958,1045 960,1047 962,1050 964,1049 966,1049 968,1051 970,1054 972,1052 974,1052 977,1053 979,1055 981,1054 983,1053 985,1054 987,1057 989,1055 991,1054 994,1054 996,1057 998,1055 1001,1053 1003,1053 1006,1054 1007,1052 1009,1051 1011,1050 1014,1051 1015,1050 1017,1048 1019,1047 1023,1048 1024,1046 1025,1043 1027,1042 1030,1042 1031,1040 1032,1038 1034,1037 1037,1037 1037,1034 1039,1031 1040,1029 1043,1028 1043,1026 1044,1024 1046,1022 1049,1021 1048,1019 1048,1016 1050,1014 1053,1013 1052,1011 1051,1008 1052,1006 1054,1004 1053,1002 1053,999 1054,996 1057,994 1055,993 1054,990 1054,988 1057,986 1055,984 1053,982 1053,980 1054,977 1053,976 1052,974 1052,972 1053,969 1051,967 1049,965 1048,963 1049,960 1047,959 1044,957 1043,955 1043,952 1041,952 1039,950 1038,948 1037,944 1035,944 1033,943 1031,941 1030,939 1028,939 1026,938 1024,936 1023,933 1021,933 1018,933 1016,932 1014,929 1012,930 1010,930 1008,929 1006,926 1004,927 1001,927 998,927 996,925 994,926 992,927 989,926 986,923 993,899 997,920 1006,899 1006,923 1019,903 1016,926 1030,908 1026,929 1041,915 1033,936 1051,923 1040,942 1060,932 1047,950 1068,943 1053,957 1074,953 1057,967 1078,966 1060,977 1081,979 1060,986 1083,990 1060,994 1081,1003 1060,1004 1078,1015 1057,1014 1074,1027 1053,1024 1067,1038 1047,1031 1060,1050 1040,1040 1051,1058 1033,1045 1041,1067 1026,1051 1030,1072 1016,1055 1019,1078 1006,1058 1006,1081 997,1061 993,1082 987,1061 982,1081 979,1059 969,1079 969,1058 956,1075 959,1054 945,1069 952,1048 933,1062 943,1042 925,1054 936,1035 916,1044 931,1027 909,1034 925,1018 904,1021 922,1010 901,1010 921,1000"/>
<polygon class="pen1 brush0" points="341,1081 138,1048 364,981 367,983 374,989 383,998 392,1010 398,1025 400,1040 395,1057 381,1075 388,1081 396,1088 403,1097 409,1107 412,1119 412,1131 407,1144 398,1159 406,1164 415,1170 424,1178 431,1187 436,1198 438,1210 435,1224 428,1240 437,1244 447,1248 456,1255 465,1263 471,1273 474,1285 474,1299 469,1315 478,1318 488,1322 499,1327 508,1334 515,1343 520,1355 522,1369 519,1386 529,1387 539,1388 550,1392 560,1397 568,1405 575,1416 578,1429 578,1446 587,1446 598,1447 609,1450 620,1454 630,1461 638,1470 643,1483 645,1500 654,1498 665,1497 677,1498 688,1500 699,1506 708,1514 715,1526 720,1542 729,1539 740,1537 752,1536 763,1537 775,1541 785,1548 793,1559 800,1575 808,1571 818,1567 829,1565 841,1564 853,1566 864,1571 875,1581 884,1595 892,1590 901,1584 911,1580 923,1578 935,1579 946,1583 958,1591 969,1605 976,1598 984,1592 994,1586 1005,1582 1016,1581 1028,1583 1041,1590 1053,1602 1059,1594 1067,1587 1076,1580 1087,1574 1098,1572 1111,1572 1124,1577 1138,1586 1143,1578 1149,1570 1157,1562 1167,1556 1177,1552 1190,1550 1204,1553 1219,1561 1223,1552 1228,1542 1235,1533 1244,1525 1254,1519 1266,1516 1281,1517 1297,1523 1299,1514 1303,1504 1308,1494 1315,1485 1325,1477 1336,1473 1351,1471 1368,1474 1369,1465 1372,1455 1376,1444 1382,1434 1390,1426 1401,1419 1415,1416 1432,1417 1432,1407 1433,1397 1435,1386 1440,1375 1446,1366 1456,1358 1469,1354 1486,1352 1485,1342 1485,1331 1486,1320 1489,1308 1495,1298 1503,1289 1516,1282 1532,1278 1529,1269 1527,1259 1526,1248 1528,1236 1532,1225 1539,1215 1551,1206 1567,1200 1563,1191 1560,1181 1558,1170 1557,1159 1560,1147 1566,1136 1576,1126 1591,1118 1586,1110 1581,1100 1577,1089 1575,1077 1576,1066 1580,1054 1589,1043 1603,1033 1597,1025 1591,1017 1585,1007 1582,996 1581,984 1584,972 1591,959 1603,947 1596,941 1588,933 1582,924 1577,913 1574,902 1575,889 1581,876 1591,862 1583,857 1574,850 1566,842 1560,833 1556,822 1555,809 1559,796 1567,781 1559,777 1549,771 1541,764 1533,755 1527,744 1525,732 1526,719 1532,703 1523,700 1513,695 1503,689 1494,681 1487,672 1483,660 1482,646 1486,629 1476,627 1466,624 1456,620 1446,614 1438,605 1433,594 1430,581 1432,564 1422,564 1411,562 1400,559 1390,555 1380,547 1373,537 1369,524 1368,507 1358,508 1347,508 1336,507 1325,503 1314,497 1306,488 1300,476 1297,459 1287,461 1276,462 1265,462 1253,460 1242,456 1232,448 1225,436 1219,420 1210,424 1200,427 1189,429 1177,429 1166,426 1155,420 1146,410 1138,395 1130,399 1120,403 1109,406 1097,408 1085,406 1074,402 1063,393 1053,379 1045,386 1035,392 1023,397 1011,399 998,398 985,393 972,381 960,363 1020,138 1057,339 1138,150 1148,355 1253,179 1235,383 1364,223 1317,423 1466,284 1392,476 1560,356 1460,537 1642,443 1520,606 1712,538 1567,683 1769,645 1604,767 1810,757 1630,855 1834,872 1642,946 1843,990 1642,1037 1834,1109 1630,1126 1810,1226 1604,1214 1769,1338 1567,1298 1712,1443 1519,1375 1642,1538 1459,1446 1560,1625 1391,1507 1466,1698 1316,1558 1362,1757 1233,1598 1253,1801 1147,1625 1137,1830 1057,1642 1019,1843 966,1645 901,1838 875,1635 783,1818 787,1612 669,1781 702,1578 563,1728 622,1533 465,1663 551,1477 375,1582 487,1410 300,1491 433,1336 236,1390 391,1256 188,1281 360,1169 155,1166 341,1081"/>
</g>
</svg>
