<?xml version="1.0" encoding="UTF-8" standalone="no"?>
<!DOCTYPE svg PUBLIC "-//W3C//DTD SVG 1.0//EN" "http://www.w3.org/TR/2001/REC-SVG-20010904/DTD/svg10.dtd">
<svg xmlns="http://www.w3.org/2000/svg" xmlns:xlink="http://www.w3.org/1999/xlink" fill-rule="evenodd" height="1.595in" preserveAspectRatio="none" stroke-linecap="round" viewBox="0 0 1982 1595" width="1.982in">
<style type="text/css">
.brush0 { fill: rgb(255,255,255); }
.pen0 { stroke: rgb(0,0,0); stroke-width: 1; stroke-linejoin: round; }
.brush1 { fill: none; }
.pen1 { stroke: none; }
.brush2 { fill: rgb(0,0,0); }
</style>
<g>
<polygon class="pen1 brush2" points="498,794 501,812 505,834 507,858 509,885 510,913 509,943 506,974 500,1006 492,1039 481,1072 466,1104 448,1135 425,1165 398,1194 366,1221 328,1246 326,1245 319,1241 309,1234 296,1226 281,1216 263,1204 244,1192 224,1178 203,1165 183,1151 163,1137 144,1123 128,1111 113,1099 101,1089 93,1080 91,1080 86,1079 78,1077 69,1074 58,1070 48,1066 38,1060 30,1053 25,1044 24,1032 30,1018 44,1002 43,1002 41,1000 37,998 32,996 27,992 22,988 17,984 12,979 8,974 6,968 5,961 7,955 11,948 19,940 30,933 44,925 43,896 47,866 57,837 71,808 90,780 112,752 137,725 164,700 192,675 222,652 252,630 281,611 309,593 336,577 360,564 382,553 384,547 387,536 392,519 398,498 407,472 417,444 429,412 444,379 460,344 479,309 501,273 525,238 551,205 581,172 613,143 648,116 600,377 624,368 671,100 689,90 707,81 726,73 746,66 766,60 786,56 808,52 830,50 793,333 817,330 851,49 861,49 871,48 882,49 892,49 902,50 913,51 923,52 933,54 943,56 954,58 964,61 974,63 984,66 994,70 1003,73 1013,77 932,348 953,353 1030,84 1055,97 1078,112 1099,128 1118,145 1136,163 1153,182 1168,202 1182,222 1070,404 1094,408 1192,242 1214,289 1231,336 1243,382 1250,426 1253,467 1252,503 1247,532 1240,553 1390,611 1397,593 1407,568 1419,537 1435,501 1454,461 1475,417 1500,371 1527,324 1556,276 1588,228 1623,182 1661,138 1700,96 1743,59 1787,27 1834,0 1837,4 1845,16 1856,35 1871,60 1888,91 1905,127 1922,168 1938,212 1748,319 1759,333 1942,228 1953,270 1962,313 1967,359 1969,405 1780,435 1786,452 1968,421 1965,454 1960,488 1952,522 1941,556 1775,554 1780,571 1934,570 1923,593 1911,616 1897,639 1881,661 1863,683 1843,705 1821,726 1797,746 1823,762 1846,780 1867,800 1886,820 1903,842 1919,866 1932,890 1944,915 1757,929 1762,946 1949,931 1957,953 1963,976 1969,999 1973,1022 1976,1046 1979,1071 1981,1095 1982,1120 1766,1057 1765,1074 1982,1135 1981,1174 1978,1213 1973,1251 1966,1289 1739,1181 1738,1198 1965,1304 1960,1325 1955,1345 1950,1366 1945,1385 1939,1405 1933,1424 1927,1442 1921,1460 1916,1459 1903,1457 1882,1453 1855,1446 1822,1435 1785,1420 1744,1401 1701,1377 1656,1346 1610,1309 1565,1266 1521,1214 1480,1154 1443,1086 1410,1007 1382,919 1375,941 1367,964 1356,988 1345,1011 1332,1034 1319,1057 1304,1080 1289,1102 1273,1123 1257,1143 1241,1162 1224,1180 1208,1196 1192,1210 1176,1222 1161,1232 1168,1232 1184,1231 1206,1233 1231,1239 1257,1252 1282,1272 1302,1301 1316,1343 1315,1375 1311,1403 1304,1427 1294,1448 1282,1466 1269,1481 1253,1493 1237,1502 1220,1509 1202,1514 1185,1517 1167,1519 1150,1518 1135,1517 1120,1514 1107,1511 1092,1504 1075,1494 1057,1480 1039,1463 1023,1442 1010,1418 1001,1390 998,1358 996,1359 991,1362 983,1367 972,1373 958,1380 941,1388 921,1395 900,1401 876,1407 850,1411 822,1414 793,1414 762,1411 729,1405 696,1396 661,1383 662,1386 666,1395 672,1408 678,1425 684,1445 688,1467 692,1489 692,1511 690,1528 686,1543 680,1557 670,1569 656,1579 638,1586 616,1590 590,1590 558,1583 532,1573 511,1559 496,1543 485,1524 479,1504 477,1482 479,1460 482,1444 487,1428 494,1413 503,1398 512,1386 523,1374 535,1365 547,1358 545,1358 541,1356 534,1354 524,1352 513,1348 500,1344 487,1339 472,1334 457,1328 443,1321 428,1314 415,1306 402,1297 391,1288 382,1279 375,1269 378,1267 385,1262 395,1253 409,1240 425,1223 442,1203 459,1179 476,1151 492,1120 506,1085 517,1046 524,1003 527,957 524,906 516,852 500,794 498,794"/>
<polygon class="pen1 brush0" points="202,881 210,880 218,878 225,874 231,870 235,864 239,857 241,849 242,841 241,833 239,826 235,819 231,814 225,809 218,805 210,803 202,802 195,803 188,805 181,809 176,814 171,819 167,826 165,833 164,841 165,849 167,857 171,864 176,870 181,874 188,878 195,880 202,881"/>
</g>
</svg>
