<?xml version="1.0" encoding="UTF-8" standalone="no"?>
<!DOCTYPE svg PUBLIC "-//W3C//DTD SVG 1.0//EN" "http://www.w3.org/TR/2001/REC-SVG-20010904/DTD/svg10.dtd">
<svg xmlns="http://www.w3.org/2000/svg" xmlns:xlink="http://www.w3.org/1999/xlink" fill-rule="evenodd" height="2.0in" preserveAspectRatio="none" stroke-linecap="round" viewBox="0 0 1811 2000" width="1.811in">
<style type="text/css">
.brush0 { fill: rgb(255,255,255); }
.pen0 { stroke: rgb(0,0,0); stroke-width: 1; stroke-linejoin: round; }
.brush1 { fill: none; }
.pen1 { stroke: none; }
.brush2 { fill: rgb(0,0,0); }
</style>
<g>
<polygon class="pen1 brush2" points="1520,1680 1510,1679 1500,1678 1490,1675 1479,1672 1469,1668 1459,1665 1449,1661 1440,1658 1446,1631 1452,1605 1460,1580 1469,1556 1478,1532 1489,1509 1500,1486 1511,1463 1523,1441 1536,1419 1548,1397 1561,1374 1574,1352 1586,1329 1599,1306 1611,1283 1621,1289 1632,1294 1642,1298 1653,1301 1664,1304 1675,1305 1687,1307 1700,1308 1689,1331 1676,1354 1664,1377 1651,1400 1638,1422 1625,1445 1611,1467 1598,1490 1586,1513 1574,1535 1562,1559 1552,1582 1542,1606 1533,1630 1526,1655 1520,1680 1520,1680"/>
<polygon class="pen1 brush2" points="1501,2000 1500,1906 1502,1826 1508,1757 1517,1698 1507,1697 1497,1695 1487,1693 1477,1690 1467,1687 1457,1683 1447,1680 1437,1676 1432,1747 1435,1811 1445,1866 1459,1913 1473,1950 1487,1977 1497,1994 1501,2000 1501,2000"/>
<polygon class="pen1 brush2" points="1618,1267 1629,1273 1639,1277 1650,1281 1662,1284 1673,1287 1685,1289 1697,1290 1709,1290 1726,1254 1743,1216 1759,1177 1774,1140 1787,1104 1797,1072 1804,1043 1807,1020 1808,987 1807,958 1804,931 1799,907 1791,884 1779,862 1764,839 1744,814 1732,802 1719,792 1704,784 1689,778 1672,773 1654,770 1636,769 1617,769 1597,771 1578,774 1558,779 1539,786 1520,794 1501,803 1483,814 1466,827 1455,837 1442,851 1428,868 1412,889 1394,912 1376,937 1356,964 1335,992 1346,1001 1357,1010 1370,1018 1383,1026 1396,1033 1410,1039 1424,1044 1437,1047 1446,1036 1456,1025 1465,1014 1474,1003 1483,993 1492,983 1501,974 1510,966 1530,949 1549,935 1567,925 1584,918 1600,914 1616,912 1630,914 1643,917 1654,923 1665,930 1674,940 1681,951 1688,963 1692,977 1695,992 1697,1007 1697,1033 1693,1061 1686,1093 1676,1126 1664,1161 1650,1197 1634,1232 1618,1267 1618,1267"/>
<polygon class="pen1 brush2" points="1426,1063 1401,1098 1375,1135 1348,1173 1321,1210 1294,1246 1265,1281 1236,1313 1205,1341 1174,1366 1141,1385 1107,1399 1071,1407 1034,1407 996,1399 955,1382 913,1355 881,1326 856,1294 839,1259 829,1223 825,1186 827,1146 834,1106 845,1064 862,1059 882,1056 903,1053 924,1053 944,1056 963,1062 980,1073 993,1088 989,1109 987,1130 986,1149 988,1166 991,1182 998,1197 1006,1209 1018,1219 1034,1228 1051,1233 1069,1233 1087,1230 1106,1223 1126,1213 1146,1200 1166,1184 1186,1166 1206,1147 1227,1125 1247,1103 1267,1079 1286,1055 1305,1030 1324,1006 1336,1015 1349,1023 1360,1031 1372,1039 1385,1046 1398,1052 1411,1058 1426,1063 1426,1063"/>
<polygon class="pen1 brush2" points="851,1044 870,1040 890,1038 910,1036 929,1037 948,1040 967,1045 984,1054 1000,1067 1011,1033 1024,1001 1038,969 1053,939 1070,909 1087,879 1105,851 1124,822 1143,794 1162,766 1181,738 1200,709 1218,681 1235,651 1252,622 1268,591 1260,576 1248,562 1233,551 1217,542 1199,536 1180,531 1162,528 1145,527 1136,549 1124,573 1109,598 1092,626 1073,656 1052,687 1031,720 1009,753 986,788 963,823 941,860 920,896 900,933 882,970 865,1007 851,1044 851,1044"/>
<polygon class="pen1 brush2" points="1152,510 1156,489 1156,469 1154,452 1148,436 1140,423 1130,412 1117,404 1103,398 1087,395 1069,395 1051,398 1032,405 1012,415 992,428 972,445 952,466 944,476 935,486 927,497 920,507 912,519 905,530 898,542 891,554 880,545 870,534 859,524 849,512 839,501 830,489 821,477 812,466 820,451 829,436 838,421 847,407 856,392 867,379 877,365 889,352 908,333 928,315 948,299 969,284 989,271 1010,260 1032,251 1053,244 1074,240 1096,237 1117,237 1138,240 1159,245 1180,253 1200,263 1220,277 1252,305 1276,336 1294,370 1304,406 1307,444 1304,485 1294,527 1277,571 1266,557 1253,544 1238,534 1222,525 1205,518 1188,514 1170,511 1152,510 1152,510"/>
<polygon class="pen1 brush2" points="882,568 860,604 835,638 808,672 779,703 749,731 716,755 683,775 649,791 615,801 581,805 547,802 514,792 482,774 451,748 422,712 395,666 404,651 414,634 426,616 439,599 453,582 468,567 483,555 499,547 511,576 527,598 544,614 563,625 584,631 605,632 628,628 651,621 674,611 696,597 718,582 739,564 758,545 776,525 791,504 804,483 812,494 821,506 830,517 840,528 850,539 860,550 871,559 882,568 882,568"/>
<polygon class="pen1 brush2" points="386,646 395,631 406,615 419,597 432,579 447,562 462,548 478,537 493,530 486,499 480,465 472,427 463,385 450,341 432,294 407,244 375,192 361,198 348,204 336,212 326,221 316,232 307,242 299,254 291,266 312,310 327,356 338,404 345,453 352,503 360,552 371,600 386,646 386,646"/>
<polygon class="pen1 brush2" points="112,155 91,152 71,144 53,134 36,120 22,103 11,84 5,61 3,37 5,32 12,26 22,20 36,15 53,11 73,8 96,8 121,10 134,12 147,15 161,19 176,23 190,29 205,36 220,44 236,53 251,64 267,75 283,89 299,103 315,119 332,137 348,157 364,178 351,182 339,189 327,197 316,206 306,217 297,228 288,239 280,249 271,237 262,225 253,215 244,206 236,198 227,191 218,184 209,179 199,174 189,170 178,166 167,163 154,160 141,158 127,156 112,155"/>
<polygon class="pen1 brush0" points="74,75 82,74 89,69 93,63 95,54 93,47 89,40 82,36 74,34 67,36 60,40 56,47 54,54 56,63 60,69 67,74 74,75"/>
</g>
</svg>
