<?xml version="1.0" encoding="iso-8859-1"?>
<!DOCTYPE svg PUBLIC "-//W3C//DTD SVG 1.0//EN" "http://www.w3.org/TR/2001/REC-SVG-20010904/DTD/svg10.dtd"
[<!ENTITY elem1  '
  <circle cx="504" cy="498" r="486"/>
' > ]>
<svg xmlns="http://www.w3.org/2000/svg"  xml:space="preserve" width="353px" height="505px" 
style="shape-rendering:geometricPrecision; text-rendering:geometricPrecision; 
image-rendering:optimizeQuality; fill-rule:evenodd"
     viewBox="0 0 48250 20000">
<g transform="translate(48000, 19000)"
> &elem1; </g>
<g transform="translate(46000, 19000) "
> &elem1; </g>
<g transform="translate(45000, 19000) "
> &elem1; </g>
<g transform="translate(44000, 19000) "
> &elem1; </g>
<g transform="translate(43000, 19000) "
> &elem1; </g>
<g transform="translate(42000, 19000) "
> &elem1; </g>
<g transform="translate(41000, 19000) "
> &elem1; </g>
<g transform="translate(40000, 19000) "
> &elem1; </g>
<g transform="translate(39000, 19000) "
> &elem1; </g>
<g transform="translate(38000, 19000) "
> &elem1; </g>
<g transform="translate(37000, 19000) "
> &elem1; </g>
<g transform="translate(36000, 19000) "
> &elem1; </g>
<g transform="translate(35000, 19000) "
> &elem1; </g>
<g transform="translate(34000, 19000) "
> &elem1; </g>
<g transform="translate(33000, 19000) "
> &elem1; </g>
<g transform="translate(32000, 19000) "
> &elem1; </g>
<g transform="translate(31000, 19000) "
> &elem1; </g>
<g transform="translate(30000, 19000) "
> &elem1; </g>
<g transform="translate(29000, 19000) "
> &elem1; </g>
<g transform="translate(28000, 19000) "
> &elem1; </g>
<g transform="translate(27000, 19000) "
> &elem1; </g>
<g transform="translate(26000, 19000) "
> &elem1; </g>
<g transform="translate(25000, 19000) "
> &elem1; </g>
<g transform="translate(24000, 19000) "
> &elem1; </g>
<g transform="translate(23000, 19000) "
> &elem1; </g>
<g transform="translate(22000, 19000) "
> &elem1; </g>
<g transform="translate(21000, 19000) "
> &elem1; </g>
<g transform="translate(20000, 19000) "
> &elem1; </g>
<g transform="translate(19000, 19000) "
> &elem1; </g>
<g transform="translate(18000, 19000) "
> &elem1; </g>
<g transform="translate(17000, 19000) "
> &elem1; </g>
<g transform="translate(16000, 19000) "
> &elem1; </g>
<g transform="translate(15000, 19000) "
> &elem1; </g>
<g transform="translate(14000, 19000) "
> &elem1; </g>
<g transform="translate(13000, 19000) "
> &elem1; </g>
<g transform="translate(12000, 19000) "
> &elem1; </g>
<g transform="translate(11000, 19000) "
> &elem1; </g>
<g transform="translate(10000, 19000) "
> &elem1; </g>
<g transform="translate(9000, 19000) "
> &elem1; </g>
<g transform="translate(8000, 19000) "
> &elem1; </g>
<g transform="translate(7000, 19000) "
> &elem1; </g>
<g transform="translate(6000, 19000) "
> &elem1; </g>
<g transform="translate(5000, 19000) "
> &elem1; </g>
<g transform="translate(4000, 19000) "
> &elem1; </g>
<g transform="translate(3000, 19000) "
> &elem1; </g>
<g transform="translate(2000, 19000) "
> &elem1; </g>
<g transform="translate(1000, 19000) "
> &elem1; </g>
<g transform="translate(0, 19000) "
> &elem1; </g>
<g transform="translate(48000, 18000) "
> &elem1; </g>
<g transform="translate(47000, 18000) "
> &elem1; </g>
<g transform="translate(46000, 18000) "
> &elem1; </g>
<g transform="translate(45000, 18000) "
> &elem1; </g>
<g transform="translate(44000, 18000) "
> &elem1; </g>
<g transform="translate(43000, 18000) "
> &elem1; </g>
<g transform="translate(42000, 18000) "
> &elem1; </g>
<g transform="translate(41000, 18000) "
> &elem1; </g>
<g transform="translate(40000, 18000) "
> &elem1; </g>
<g transform="translate(39000, 18000) "
> &elem1; </g>
<g transform="translate(38000, 18000) "
> &elem1; </g>
<g transform="translate(37000, 18000) "
> &elem1; </g>
<g transform="translate(36000, 18000) "
> &elem1; </g>
<g transform="translate(35000, 18000) "
> &elem1; </g>
<g transform="translate(34000, 18000) "
> &elem1; </g>
<g transform="translate(33000, 18000) "
> &elem1; </g>
<g transform="translate(32000, 18000) "
> &elem1; </g>
<g transform="translate(31000, 18000) "
> &elem1; </g>
<g transform="translate(30000, 18000) "
> &elem1; </g>
<g transform="translate(29000, 18000) "
> &elem1; </g>
<g transform="translate(28000, 18000) "
> &elem1; </g>
<g transform="translate(27000, 18000) "
> &elem1; </g>
<g transform="translate(26000, 18000) "
> &elem1; </g>
<g transform="translate(25000, 18000) "
> &elem1; </g>
<g transform="translate(24000, 18000) "
> &elem1; </g>
<g transform="translate(23000, 18000) "
> &elem1; </g>
<g transform="translate(22000, 18000) "
> &elem1; </g>
<g transform="translate(21000, 18000) "
> &elem1; </g>
<g transform="translate(20000, 18000) "
> &elem1; </g>
<g transform="translate(19000, 18000) "
> &elem1; </g>
<g transform="translate(18000, 18000) "
> &elem1; </g>
<g transform="translate(17000, 18000) "
> &elem1; </g>
<g transform="translate(16000, 18000) "
> &elem1; </g>
<g transform="translate(15000, 18000) "
> &elem1; </g>
<g transform="translate(14000, 18000) "
> &elem1; </g>
<g transform="translate(13000, 18000) "
> &elem1; </g>
<g transform="translate(12000, 18000) "
> &elem1; </g>
<g transform="translate(11000, 18000) "
> &elem1; </g>
<g transform="translate(10000, 18000) "
> &elem1; </g>
<g transform="translate(9000, 18000) "
> &elem1; </g>
<g transform="translate(8000, 18000) "
> &elem1; </g>
<g transform="translate(7000, 18000) "
> &elem1; </g>
<g transform="translate(6000, 18000) "
> &elem1; </g>
<g transform="translate(5000, 18000) "
> &elem1; </g>
<g transform="translate(4000, 18000) "
> &elem1; </g>
<g transform="translate(3000, 18000) "
> &elem1; </g>
<g transform="translate(2000, 18000) "
> &elem1; </g>
<g transform="translate(1000, 18000) "
> &elem1; </g>
<g transform="translate(0, 18000) "
> &elem1; </g>
<g transform="translate(48000, 17000) "
> &elem1; </g>
<g transform="translate(47000, 17000) "
> &elem1; </g>
<g transform="translate(46000, 17000) "
> &elem1; </g>
<g transform="translate(45000, 17000) "
> &elem1; </g>
<g transform="translate(44000, 17000) "
> &elem1; </g>
<g transform="translate(43000, 17000) "
> &elem1; </g>
<g transform="translate(42000, 17000) "
> &elem1; </g>
<g transform="translate(41000, 17000) "
> &elem1; </g>
<g transform="translate(40000, 17000) "
> &elem1; </g>
<g transform="translate(39000, 17000) "
> &elem1; </g>
<g transform="translate(38000, 17000) "
> &elem1; </g>
<g transform="translate(37000, 17000) "
> &elem1; </g>
<g transform="translate(36000, 17000) "
> &elem1; </g>
<g transform="translate(35000, 17000) "
> &elem1; </g>
<g transform="translate(34000, 17000) "
> &elem1; </g>
<g transform="translate(33000, 17000) "
> &elem1; </g>
<g transform="translate(32000, 17000) "
> &elem1; </g>
<g transform="translate(31000, 17000) "
> &elem1; </g>
<g transform="translate(30000, 17000) "
> &elem1; </g>
<g transform="translate(29000, 17000) "
> &elem1; </g>
<g transform="translate(28000, 17000) "
> &elem1; </g>
<g transform="translate(27000, 17000) "
> &elem1; </g>
<g transform="translate(26000, 17000) "
> &elem1; </g>
<g transform="translate(25000, 17000) "
> &elem1; </g>
<g transform="translate(24000, 17000) "
> &elem1; </g>
<g transform="translate(23000, 17000) "
> &elem1; </g>
<g transform="translate(22000, 17000) "
> &elem1; </g>
<g transform="translate(21000, 17000) "
> &elem1; </g>
<g transform="translate(20000, 17000) "
> &elem1; </g>
<g transform="translate(19000, 17000) "
> &elem1; </g>
<g transform="translate(18000, 17000) "
> &elem1; </g>
<g transform="translate(17000, 17000) "
> &elem1; </g>
<g transform="translate(16000, 17000) "
> &elem1; </g>
<g transform="translate(15000, 17000) "
> &elem1; </g>
<g transform="translate(14000, 17000) "
> &elem1; </g>
<g transform="translate(13000, 17000) "
> &elem1; </g>
<g transform="translate(12000, 17000) "
> &elem1; </g>
<g transform="translate(11000, 17000) "
> &elem1; </g>
<g transform="translate(10000, 17000) "
> &elem1; </g>
<g transform="translate(9000, 17000) "
> &elem1; </g>
<g transform="translate(8000, 17000) "
> &elem1; </g>
<g transform="translate(7000, 17000) "
> &elem1; </g>
<g transform="translate(6000, 17000) "
> &elem1; </g>
<g transform="translate(5000, 17000) "
> &elem1; </g>
<g transform="translate(4000, 17000) "
> &elem1; </g>
<g transform="translate(3000, 17000) "
> &elem1; </g>
<g transform="translate(2000, 17000) "
> &elem1; </g>
<g transform="translate(1000, 17000) "
> &elem1; </g>
<g transform="translate(0, 17000) "
> &elem1; </g>
<g transform="translate(48000, 16000) "
> &elem1; </g>
<g transform="translate(47000, 16000) "
> &elem1; </g>
<g transform="translate(46000, 16000) "
> &elem1; </g>
<g transform="translate(45000, 16000) "
> &elem1; </g>
<g transform="translate(44000, 16000) "
> &elem1; </g>
<g transform="translate(43000, 16000) "
> &elem1; </g>
<g transform="translate(42000, 16000) "
> &elem1; </g>
<g transform="translate(41000, 16000) "
> &elem1; </g>
<g transform="translate(40000, 16000) "
> &elem1; </g>
<g transform="translate(39000, 16000) "
> &elem1; </g>
<g transform="translate(38000, 16000) "
> &elem1; </g>
<g transform="translate(37000, 16000) "
> &elem1; </g>
<g transform="translate(36000, 16000) "
> &elem1; </g>
<g transform="translate(35000, 16000) "
> &elem1; </g>
<g transform="translate(34000, 16000) "
> &elem1; </g>
<g transform="translate(33000, 16000) "
> &elem1; </g>
<g transform="translate(32000, 16000) "
> &elem1; </g>
<g transform="translate(31000, 16000) "
> &elem1; </g>
<g transform="translate(30000, 16000) "
> &elem1; </g>
<g transform="translate(29000, 16000) "
> &elem1; </g>
<g transform="translate(28000, 16000) "
> &elem1; </g>
<g transform="translate(27000, 16000) "
> &elem1; </g>
<g transform="translate(26000, 16000) "
> &elem1; </g>
<g transform="translate(25000, 16000) "
> &elem1; </g>
<g transform="translate(24000, 16000) "
> &elem1; </g>
<g transform="translate(23000, 16000) "
> &elem1; </g>
<g transform="translate(22000, 16000) "
> &elem1; </g>
<g transform="translate(21000, 16000) "
> &elem1; </g>
<g transform="translate(20000, 16000) "
> &elem1; </g>
<g transform="translate(19000, 16000) "
> &elem1; </g>
<g transform="translate(18000, 16000) "
> &elem1; </g>
<g transform="translate(17000, 16000) "
> &elem1; </g>
<g transform="translate(16000, 16000) "
> &elem1; </g>
<g transform="translate(15000, 16000) "
> &elem1; </g>
<g transform="translate(14000, 16000) "
> &elem1; </g>
<g transform="translate(13000, 16000) "
> &elem1; </g>
<g transform="translate(12000, 16000) "
> &elem1; </g>
<g transform="translate(11000, 16000) "
> &elem1; </g>
<g transform="translate(10000, 16000) "
> &elem1; </g>
<g transform="translate(9000, 16000) "
> &elem1; </g>
<g transform="translate(8000, 16000) "
> &elem1; </g>
<g transform="translate(7000, 16000) "
> &elem1; </g>
<g transform="translate(6000, 16000) "
> &elem1; </g>
<g transform="translate(5000, 16000) "
> &elem1; </g>
<g transform="translate(4000, 16000) "
> &elem1; </g>
<g transform="translate(3000, 16000) "
> &elem1; </g>
<g transform="translate(2000, 16000) "
> &elem1; </g>
<g transform="translate(1000, 16000) "
> &elem1; </g>
<g transform="translate(0, 16000) "
> &elem1; </g>
<g transform="translate(48000, 15000) "
> &elem1; </g>
<g transform="translate(47000, 15000) "
> &elem1; </g>
<g transform="translate(46000, 15000) "
> &elem1; </g>
<g transform="translate(45000, 15000) "
> &elem1; </g>
<g transform="translate(44000, 15000) "
> &elem1; </g>
<g transform="translate(43000, 15000) "
> &elem1; </g>
<g transform="translate(42000, 15000) "
> &elem1; </g>
<g transform="translate(41000, 15000) "
> &elem1; </g>
<g transform="translate(40000, 15000) "
> &elem1; </g>
<g transform="translate(39000, 15000) "
> &elem1; </g>
<g transform="translate(38000, 15000) "
> &elem1; </g>
<g transform="translate(37000, 15000) "
> &elem1; </g>
<g transform="translate(36000, 15000) "
> &elem1; </g>
<g transform="translate(35000, 15000) "
> &elem1; </g>
<g transform="translate(34000, 15000) "
> &elem1; </g>
<g transform="translate(33000, 15000) "
> &elem1; </g>
<g transform="translate(32000, 15000) "
> &elem1; </g>
<g transform="translate(31000, 15000) "
> &elem1; </g>
<g transform="translate(30000, 15000) "
> &elem1; </g>
<g transform="translate(29000, 15000) "
> &elem1; </g>
<g transform="translate(28000, 15000) "
> &elem1; </g>
<g transform="translate(27000, 15000) "
> &elem1; </g>
<g transform="translate(26000, 15000) "
> &elem1; </g>
<g transform="translate(25000, 15000) "
> &elem1; </g>
<g transform="translate(24000, 15000) "
> &elem1; </g>
<g transform="translate(23000, 15000) "
> &elem1; </g>
<g transform="translate(22000, 15000) "
> &elem1; </g>
<g transform="translate(21000, 15000) "
> &elem1; </g>
<g transform="translate(20000, 15000) "
> &elem1; </g>
<g transform="translate(19000, 15000) "
> &elem1; </g>
<g transform="translate(18000, 15000) "
> &elem1; </g>
<g transform="translate(17000, 15000) "
> &elem1; </g>
<g transform="translate(16000, 15000) "
> &elem1; </g>
<g transform="translate(15000, 15000) "
> &elem1; </g>
<g transform="translate(14000, 15000) "
> &elem1; </g>
<g transform="translate(13000, 15000) "
> &elem1; </g>
<g transform="translate(12000, 15000) "
> &elem1; </g>
<g transform="translate(11000, 15000) "
> &elem1; </g>
<g transform="translate(10000, 15000) "
> &elem1; </g>
<g transform="translate(9000, 15000) "
> &elem1; </g>
<g transform="translate(8000, 15000) "
> &elem1; </g>
<g transform="translate(7000, 15000) "
> &elem1; </g>
<g transform="translate(6000, 15000) "
> &elem1; </g>
<g transform="translate(5000, 15000) "
> &elem1; </g>
<g transform="translate(4000, 15000) "
> &elem1; </g>
<g transform="translate(3000, 15000) "
> &elem1; </g>
<g transform="translate(2000, 15000) "
> &elem1; </g>
<g transform="translate(1000, 15000) "
> &elem1; </g>
<g transform="translate(0, 15000) "
> &elem1; </g>
<g transform="translate(48000, 14000) "
> &elem1; </g>
<g transform="translate(47000, 14000) "
> &elem1; </g>
<g transform="translate(46000, 14000) "
> &elem1; </g>
<g transform="translate(45000, 14000) "
> &elem1; </g>
<g transform="translate(44000, 14000) "
> &elem1; </g>
<g transform="translate(43000, 14000) "
> &elem1; </g>
<g transform="translate(42000, 14000) "
> &elem1; </g>
<g transform="translate(41000, 14000) "
> &elem1; </g>
<g transform="translate(40000, 14000) "
> &elem1; </g>
<g transform="translate(39000, 14000) "
> &elem1; </g>
<g transform="translate(38000, 14000) "
> &elem1; </g>
<g transform="translate(37000, 14000) "
> &elem1; </g>
<g transform="translate(36000, 14000) "
> &elem1; </g>
<g transform="translate(35000, 14000) "
> &elem1; </g>
<g transform="translate(34000, 14000) "
> &elem1; </g>
<g transform="translate(33000, 14000) "
> &elem1; </g>
<g transform="translate(32000, 14000) "
> &elem1; </g>
<g transform="translate(31000, 14000) "
> &elem1; </g>
<g transform="translate(30000, 14000) "
> &elem1; </g>
<g transform="translate(29000, 14000) "
> &elem1; </g>
<g transform="translate(28000, 14000) "
> &elem1; </g>
<g transform="translate(27000, 14000) "
> &elem1; </g>
<g transform="translate(26000, 14000) "
> &elem1; </g>
<g transform="translate(25000, 14000) "
> &elem1; </g>
<g transform="translate(24000, 14000) "
> &elem1; </g>
<g transform="translate(23000, 14000) "
> &elem1; </g>
<g transform="translate(22000, 14000) "
> &elem1; </g>
<g transform="translate(21000, 14000) "
> &elem1; </g>
<g transform="translate(20000, 14000) "
> &elem1; </g>
<g transform="translate(19000, 14000) "
> &elem1; </g>
<g transform="translate(18000, 14000) "
> &elem1; </g>
<g transform="translate(17000, 14000) "
> &elem1; </g>
<g transform="translate(16000, 14000) "
> &elem1; </g>
<g transform="translate(15000, 14000) "
> &elem1; </g>
<g transform="translate(14000, 14000) "
> &elem1; </g>
<g transform="translate(13000, 14000) "
> &elem1; </g>
<g transform="translate(12000, 14000) "
> &elem1; </g>
<g transform="translate(11000, 14000) "
> &elem1; </g>
<g transform="translate(10000, 14000) "
> &elem1; </g>
<g transform="translate(9000, 14000) "
> &elem1; </g>
<g transform="translate(8000, 14000) "
> &elem1; </g>
<g transform="translate(7000, 14000) "
> &elem1; </g>
<g transform="translate(6000, 14000) "
> &elem1; </g>
<g transform="translate(5000, 14000) "
> &elem1; </g>
<g transform="translate(4000, 14000) "
> &elem1; </g>
<g transform="translate(3000, 14000) "
> &elem1; </g>
<g transform="translate(2000, 14000) "
> &elem1; </g>
<g transform="translate(1000, 14000) "
> &elem1; </g>
<g transform="translate(0, 14000) "
> &elem1; </g>
<g transform="translate(48000, 13000) "
> &elem1; </g>
<g transform="translate(47000, 13000) "
> &elem1; </g>
<g transform="translate(46000, 13000) "
> &elem1; </g>
<g transform="translate(45000, 13000) "
> &elem1; </g>
<g transform="translate(44000, 13000) "
> &elem1; </g>
<g transform="translate(43000, 13000) "
> &elem1; </g>
<g transform="translate(42000, 13000) "
> &elem1; </g>
<g transform="translate(41000, 13000) "
> &elem1; </g>
<g transform="translate(40000, 13000) "
> &elem1; </g>
<g transform="translate(39000, 13000) "
> &elem1; </g>
<g transform="translate(38000, 13000) "
> &elem1; </g>
<g transform="translate(37000, 13000) "
> &elem1; </g>
<g transform="translate(36000, 13000) "
> &elem1; </g>
<g transform="translate(35000, 13000) "
> &elem1; </g>
<g transform="translate(34000, 13000) "
> &elem1; </g>
<g transform="translate(33000, 13000) "
> &elem1; </g>
<g transform="translate(32000, 13000) "
> &elem1; </g>
<g transform="translate(31000, 13000) "
> &elem1; </g>
<g transform="translate(30000, 13000) "
> &elem1; </g>
<g transform="translate(29000, 13000) "
> &elem1; </g>
<g transform="translate(28000, 13000) "
> &elem1; </g>
<g transform="translate(27000, 13000) "
> &elem1; </g>
<g transform="translate(26000, 13000) "
> &elem1; </g>
<g transform="translate(25000, 13000) "
> &elem1; </g>
<g transform="translate(24000, 13000) "
> &elem1; </g>
<g transform="translate(23000, 13000) "
> &elem1; </g>
<g transform="translate(22000, 13000) "
> &elem1; </g>
<g transform="translate(21000, 13000) "
> &elem1; </g>
<g transform="translate(20000, 13000) "
> &elem1; </g>
<g transform="translate(19000, 13000) "
> &elem1; </g>
<g transform="translate(18000, 13000) "
> &elem1; </g>
<g transform="translate(17000, 13000) "
> &elem1; </g>
<g transform="translate(16000, 13000) "
> &elem1; </g>
<g transform="translate(15000, 13000) "
> &elem1; </g>
<g transform="translate(14000, 13000) "
> &elem1; </g>
<g transform="translate(13000, 13000) "
> &elem1; </g>
<g transform="translate(12000, 13000) "
> &elem1; </g>
<g transform="translate(11000, 13000) "
> &elem1; </g>
<g transform="translate(10000, 13000) "
> &elem1; </g>
<g transform="translate(9000, 13000) "
> &elem1; </g>
<g transform="translate(8000, 13000) "
> &elem1; </g>
<g transform="translate(7000, 13000) "
> &elem1; </g>
<g transform="translate(6000, 13000) "
> &elem1; </g>
<g transform="translate(5000, 13000) "
> &elem1; </g>
<g transform="translate(4000, 13000) "
> &elem1; </g>
<g transform="translate(3000, 13000) "
> &elem1; </g>
<g transform="translate(2000, 13000) "
> &elem1; </g>
<g transform="translate(1000, 13000) "
> &elem1; </g>
<g transform="translate(0, 13000) "
> &elem1; </g>
<g transform="translate(48000, 12000) "
> &elem1; </g>
<g transform="translate(47000, 12000) "
> &elem1; </g>
<g transform="translate(46000, 12000) "
> &elem1; </g>
<g transform="translate(45000, 12000) "
> &elem1; </g>
<g transform="translate(44000, 12000) "
> &elem1; </g>
<g transform="translate(43000, 12000) "
> &elem1; </g>
<g transform="translate(42000, 12000) "
> &elem1; </g>
<g transform="translate(41000, 12000) "
> &elem1; </g>
<g transform="translate(40000, 12000) "
> &elem1; </g>
<g transform="translate(39000, 12000) "
> &elem1; </g>
<g transform="translate(38000, 12000) "
> &elem1; </g>
<g transform="translate(37000, 12000) "
> &elem1; </g>
<g transform="translate(36000, 12000) "
> &elem1; </g>
<g transform="translate(35000, 12000) "
> &elem1; </g>
<g transform="translate(34000, 12000) "
> &elem1; </g>
<g transform="translate(33000, 12000) "
> &elem1; </g>
<g transform="translate(32000, 12000) "
> &elem1; </g>
<g transform="translate(31000, 12000) "
> &elem1; </g>
<g transform="translate(30000, 12000) "
> &elem1; </g>
<g transform="translate(29000, 12000) "
> &elem1; </g>
<g transform="translate(28000, 12000) "
> &elem1; </g>
<g transform="translate(27000, 12000) "
> &elem1; </g>
<g transform="translate(26000, 12000) "
> &elem1; </g>
<g transform="translate(25000, 12000) "
> &elem1; </g>
<g transform="translate(24000, 12000) "
> &elem1; </g>
<g transform="translate(23000, 12000) "
> &elem1; </g>
<g transform="translate(22000, 12000) "
> &elem1; </g>
<g transform="translate(21000, 12000) "
> &elem1; </g>
<g transform="translate(20000, 12000) "
> &elem1; </g>
<g transform="translate(19000, 12000) "
> &elem1; </g>
<g transform="translate(18000, 12000) "
> &elem1; </g>
<g transform="translate(17000, 12000) "
> &elem1; </g>
<g transform="translate(16000, 12000) "
> &elem1; </g>
<g transform="translate(15000, 12000) "
> &elem1; </g>
<g transform="translate(14000, 12000) "
> &elem1; </g>
<g transform="translate(13000, 12000) "
> &elem1; </g>
<g transform="translate(12000, 12000) "
> &elem1; </g>
<g transform="translate(11000, 12000) "
> &elem1; </g>
<g transform="translate(10000, 12000) "
> &elem1; </g>
<g transform="translate(9000, 12000) "
> &elem1; </g>
<g transform="translate(8000, 12000) "
> &elem1; </g>
<g transform="translate(7000, 12000) "
> &elem1; </g>
<g transform="translate(6000, 12000) "
> &elem1; </g>
<g transform="translate(5000, 12000) "
> &elem1; </g>
<g transform="translate(4000, 12000) "
> &elem1; </g>
<g transform="translate(3000, 12000) "
> &elem1; </g>
<g transform="translate(2000, 12000) "
> &elem1; </g>
<g transform="translate(1000, 12000) "
> &elem1; </g>
<g transform="translate(0, 12000) "
> &elem1; </g>
<g transform="translate(48000, 11000) "
> &elem1; </g>
<g transform="translate(47000, 11000) "
> &elem1; </g>
<g transform="translate(46000, 11000) "
> &elem1; </g>
<g transform="translate(45000, 11000) "
> &elem1; </g>
<g transform="translate(44000, 11000) "
> &elem1; </g>
<g transform="translate(43000, 11000) "
> &elem1; </g>
<g transform="translate(42000, 11000) "
> &elem1; </g>
<g transform="translate(41000, 11000) "
> &elem1; </g>
<g transform="translate(40000, 11000) "
> &elem1; </g>
<g transform="translate(39000, 11000) "
> &elem1; </g>
<g transform="translate(38000, 11000) "
> &elem1; </g>
<g transform="translate(37000, 11000) "
> &elem1; </g>
<g transform="translate(36000, 11000) "
> &elem1; </g>
<g transform="translate(35000, 11000) "
> &elem1; </g>
<g transform="translate(34000, 11000) "
> &elem1; </g>
<g transform="translate(33000, 11000) "
> &elem1; </g>
<g transform="translate(32000, 11000) "
> &elem1; </g>
<g transform="translate(31000, 11000) "
> &elem1; </g>
<g transform="translate(30000, 11000) "
> &elem1; </g>
<g transform="translate(29000, 11000) "
> &elem1; </g>
<g transform="translate(28000, 11000) "
> &elem1; </g>
<g transform="translate(27000, 11000) "
> &elem1; </g>
<g transform="translate(26000, 11000) "
> &elem1; </g>
<g transform="translate(25000, 11000) "
> &elem1; </g>
<g transform="translate(24000, 11000) "
> &elem1; </g>
<g transform="translate(23000, 11000) "
> &elem1; </g>
<g transform="translate(22000, 11000) "
> &elem1; </g>
<g transform="translate(21000, 11000) "
> &elem1; </g>
<g transform="translate(20000, 11000) "
> &elem1; </g>
<g transform="translate(19000, 11000) "
> &elem1; </g>
<g transform="translate(18000, 11000) "
> &elem1; </g>
<g transform="translate(17000, 11000) "
> &elem1; </g>
<g transform="translate(16000, 11000) "
> &elem1; </g>
<g transform="translate(15000, 11000) "
> &elem1; </g>
<g transform="translate(14000, 11000) "
> &elem1; </g>
<g transform="translate(13000, 11000) "
> &elem1; </g>
<g transform="translate(12000, 11000) "
> &elem1; </g>
<g transform="translate(11000, 11000) "
> &elem1; </g>
<g transform="translate(10000, 11000) "
> &elem1; </g>
<g transform="translate(9000, 11000) "
> &elem1; </g>
<g transform="translate(8000, 11000) "
> &elem1; </g>
<g transform="translate(7000, 11000) "
> &elem1; </g>
<g transform="translate(6000, 11000) "
> &elem1; </g>
<g transform="translate(5000, 11000) "
> &elem1; </g>
<g transform="translate(4000, 11000) "
> &elem1; </g>
<g transform="translate(3000, 11000) "
> &elem1; </g>
<g transform="translate(2000, 11000) "
> &elem1; </g>
<g transform="translate(1000, 11000) "
> &elem1; </g>
<g transform="translate(0, 11000) "
> &elem1; </g>
<g transform="translate(48000, 10000) "
> &elem1; </g>
<g transform="translate(47000, 10000) "
> &elem1; </g>
<g transform="translate(46000, 10000) "
> &elem1; </g>
<g transform="translate(45000, 10000) "
> &elem1; </g>
<g transform="translate(44000, 10000) "
> &elem1; </g>
<g transform="translate(43000, 10000) "
> &elem1; </g>
<g transform="translate(42000, 10000) "
> &elem1; </g>
<g transform="translate(41000, 10000) "
> &elem1; </g>
<g transform="translate(40000, 10000) "
> &elem1; </g>
<g transform="translate(39000, 10000) "
> &elem1; </g>
<g transform="translate(38000, 10000) "
> &elem1; </g>
<g transform="translate(37000, 10000) "
> &elem1; </g>
<g transform="translate(36000, 10000) "
> &elem1; </g>
<g transform="translate(35000, 10000) "
> &elem1; </g>
<g transform="translate(34000, 10000) "
> &elem1; </g>
<g transform="translate(33000, 10000) "
> &elem1; </g>
<g transform="translate(32000, 10000) "
> &elem1; </g>
<g transform="translate(31000, 10000) "
> &elem1; </g>
<g transform="translate(30000, 10000) "
> &elem1; </g>
<g transform="translate(29000, 10000) "
> &elem1; </g>
<g transform="translate(28000, 10000) "
> &elem1; </g>
<g transform="translate(27000, 10000) "
> &elem1; </g>
<g transform="translate(26000, 10000) "
> &elem1; </g>
<g transform="translate(25000, 10000) "
> &elem1; </g>
<g transform="translate(24000, 10000) "
> &elem1; </g>
<g transform="translate(23000, 10000) "
> &elem1; </g>
<g transform="translate(22000, 10000) "
> &elem1; </g>
<g transform="translate(21000, 10000) "
> &elem1; </g>
<g transform="translate(20000, 10000) "
> &elem1; </g>
<g transform="translate(19000, 10000) "
> &elem1; </g>
<g transform="translate(18000, 10000) "
> &elem1; </g>
<g transform="translate(17000, 10000) "
> &elem1; </g>
<g transform="translate(16000, 10000) "
> &elem1; </g>
<g transform="translate(15000, 10000) "
> &elem1; </g>
<g transform="translate(14000, 10000) "
> &elem1; </g>
<g transform="translate(13000, 10000) "
> &elem1; </g>
<g transform="translate(12000, 10000) "
> &elem1; </g>
<g transform="translate(11000, 10000) "
> &elem1; </g>
<g transform="translate(10000, 10000) "
> &elem1; </g>
<g transform="translate(9000, 10000) "
> &elem1; </g>
<g transform="translate(8000, 10000) "
> &elem1; </g>
<g transform="translate(7000, 10000) "
> &elem1; </g>
<g transform="translate(6000, 10000) "
> &elem1; </g>
<g transform="translate(5000, 10000) "
> &elem1; </g>
<g transform="translate(4000, 10000) "
> &elem1; </g>
<g transform="translate(3000, 10000) "
> &elem1; </g>
<g transform="translate(2000, 10000) "
> &elem1; </g>
<g transform="translate(1000, 10000) "
> &elem1; </g>
<g transform="translate(0, 10000) "
> &elem1; </g>
<g transform="translate(48000, 9000) "
> &elem1; </g>
<g transform="translate(47000, 9000) "
> &elem1; </g>
<g transform="translate(46000, 9000) "
> &elem1; </g>
<g transform="translate(45000, 9000) "
> &elem1; </g>
<g transform="translate(44000, 9000) "
> &elem1; </g>
<g transform="translate(43000, 9000) "
> &elem1; </g>
<g transform="translate(42000, 9000) "
> &elem1; </g>
<g transform="translate(41000, 9000) "
> &elem1; </g>
<g transform="translate(40000, 9000) "
> &elem1; </g>
<g transform="translate(39000, 9000) "
> &elem1; </g>
<g transform="translate(38000, 9000) "
> &elem1; </g>
<g transform="translate(37000, 9000) "
> &elem1; </g>
<g transform="translate(36000, 9000) "
> &elem1; </g>
<g transform="translate(35000, 9000) "
> &elem1; </g>
<g transform="translate(34000, 9000) "
> &elem1; </g>
<g transform="translate(33000, 9000) "
> &elem1; </g>
<g transform="translate(32000, 9000) "
> &elem1; </g>
<g transform="translate(31000, 9000) "
> &elem1; </g>
<g transform="translate(30000, 9000) "
> &elem1; </g>
<g transform="translate(29000, 9000) "
> &elem1; </g>
<g transform="translate(28000, 9000) "
> &elem1; </g>
<g transform="translate(27000, 9000) "
> &elem1; </g>
<g transform="translate(26000, 9000) "
> &elem1; </g>
<g transform="translate(25000, 9000) "
> &elem1; </g>
<g transform="translate(24000, 9000) "
> &elem1; </g>
<g transform="translate(23000, 9000) "
> &elem1; </g>
<g transform="translate(22000, 9000) "
> &elem1; </g>
<g transform="translate(21000, 9000) "
> &elem1; </g>
<g transform="translate(20000, 9000) "
> &elem1; </g>
<g transform="translate(19000, 9000) "
> &elem1; </g>
<g transform="translate(18000, 9000) "
> &elem1; </g>
<g transform="translate(17000, 9000) "
> &elem1; </g>
<g transform="translate(16000, 9000) "
> &elem1; </g>
<g transform="translate(15000, 9000) "
> &elem1; </g>
<g transform="translate(14000, 9000) "
> &elem1; </g>
<g transform="translate(13000, 9000) "
> &elem1; </g>
<g transform="translate(12000, 9000) "
> &elem1; </g>
<g transform="translate(11000, 9000) "
> &elem1; </g>
<g transform="translate(10000, 9000) "
> &elem1; </g>
<g transform="translate(9000, 9000) "
> &elem1; </g>
<g transform="translate(8000, 9000) "
> &elem1; </g>
<g transform="translate(7000, 9000) "
> &elem1; </g>
<g transform="translate(6000, 9000) "
> &elem1; </g>
<g transform="translate(5000, 9000) "
> &elem1; </g>
<g transform="translate(4000, 9000) "
> &elem1; </g>
<g transform="translate(3000, 9000) "
> &elem1; </g>
<g transform="translate(2000, 9000) "
> &elem1; </g>
<g transform="translate(1000, 9000) "
> &elem1; </g>
<g transform="translate(0, 9000) "
> &elem1; </g>
<g transform="translate(48000, 8000) "
> &elem1; </g>
<g transform="translate(47000, 8000) "
> &elem1; </g>
<g transform="translate(46000, 8000) "
> &elem1; </g>
<g transform="translate(45000, 8000) "
> &elem1; </g>
<g transform="translate(44000, 8000) "
> &elem1; </g>
<g transform="translate(43000, 8000) "
> &elem1; </g>
<g transform="translate(42000, 8000) "
> &elem1; </g>
<g transform="translate(41000, 8000) "
> &elem1; </g>
<g transform="translate(40000, 8000) "
> &elem1; </g>
<g transform="translate(39000, 8000) "
> &elem1; </g>
<g transform="translate(38000, 8000) "
> &elem1; </g>
<g transform="translate(37000, 8000) "
> &elem1; </g>
<g transform="translate(36000, 8000) "
> &elem1; </g>
<g transform="translate(35000, 8000) "
> &elem1; </g>
<g transform="translate(34000, 8000) "
> &elem1; </g>
<g transform="translate(33000, 8000) "
> &elem1; </g>
<g transform="translate(32000, 8000) "
> &elem1; </g>
<g transform="translate(31000, 8000) "
> &elem1; </g>
<g transform="translate(30000, 8000) "
> &elem1; </g>
<g transform="translate(29000, 8000) "
> &elem1; </g>
<g transform="translate(28000, 8000) "
> &elem1; </g>
<g transform="translate(27000, 8000) "
> &elem1; </g>
<g transform="translate(26000, 8000) "
> &elem1; </g>
<g transform="translate(25000, 8000) "
> &elem1; </g>
<g transform="translate(24000, 8000) "
> &elem1; </g>
<g transform="translate(23000, 8000) "
> &elem1; </g>
<g transform="translate(22000, 8000) "
> &elem1; </g>
<g transform="translate(21000, 8000) "
> &elem1; </g>
<g transform="translate(20000, 8000) "
> &elem1; </g>
<g transform="translate(19000, 8000) "
> &elem1; </g>
<g transform="translate(18000, 8000) "
> &elem1; </g>
<g transform="translate(17000, 8000) "
> &elem1; </g>
<g transform="translate(16000, 8000) "
> &elem1; </g>
<g transform="translate(15000, 8000) "
> &elem1; </g>
<g transform="translate(14000, 8000) "
> &elem1; </g>
<g transform="translate(13000, 8000) "
> &elem1; </g>
<g transform="translate(12000, 8000) "
> &elem1; </g>
<g transform="translate(11000, 8000) "
> &elem1; </g>
<g transform="translate(10000, 8000) "
> &elem1; </g>
<g transform="translate(9000, 8000) "
> &elem1; </g>
<g transform="translate(8000, 8000) "
> &elem1; </g>
<g transform="translate(7000, 8000) "
> &elem1; </g>
<g transform="translate(6000, 8000) "
> &elem1; </g>
<g transform="translate(5000, 8000) "
> &elem1; </g>
<g transform="translate(4000, 8000) "
> &elem1; </g>
<g transform="translate(3000, 8000) "
> &elem1; </g>
<g transform="translate(2000, 8000) "
> &elem1; </g>
<g transform="translate(1000, 8000) "
> &elem1; </g>
<g transform="translate(0, 8000) "
> &elem1; </g>
<g transform="translate(48000, 7000) "
> &elem1; </g>
<g transform="translate(47000, 7000) "
> &elem1; </g>
<g transform="translate(46000, 7000) "
> &elem1; </g>
<g transform="translate(45000, 7000) "
> &elem1; </g>
<g transform="translate(44000, 7000) "
> &elem1; </g>
<g transform="translate(43000, 7000) "
> &elem1; </g>
<g transform="translate(42000, 7000) "
> &elem1; </g>
<g transform="translate(41000, 7000) "
> &elem1; </g>
<g transform="translate(40000, 7000) "
> &elem1; </g>
<g transform="translate(39000, 7000) "
> &elem1; </g>
<g transform="translate(38000, 7000) "
> &elem1; </g>
<g transform="translate(37000, 7000) "
> &elem1; </g>
<g transform="translate(36000, 7000) "
> &elem1; </g>
<g transform="translate(35000, 7000) "
> &elem1; </g>
<g transform="translate(34000, 7000) "
> &elem1; </g>
<g transform="translate(33000, 7000) "
> &elem1; </g>
<g transform="translate(32000, 7000) "
> &elem1; </g>
<g transform="translate(31000, 7000) "
> &elem1; </g>
<g transform="translate(30000, 7000) "
> &elem1; </g>
<g transform="translate(29000, 7000) "
> &elem1; </g>
<g transform="translate(28000, 7000) "
> &elem1; </g>
<g transform="translate(27000, 7000) "
> &elem1; </g>
<g transform="translate(26000, 7000) "
> &elem1; </g>
<g transform="translate(25000, 7000) "
> &elem1; </g>
<g transform="translate(24000, 7000) "
> &elem1; </g>
<g transform="translate(23000, 7000) "
> &elem1; </g>
<g transform="translate(22000, 7000) "
> &elem1; </g>
<g transform="translate(21000, 7000) "
> &elem1; </g>
<g transform="translate(20000, 7000) "
> &elem1; </g>
<g transform="translate(19000, 7000) "
> &elem1; </g>
<g transform="translate(18000, 7000) "
> &elem1; </g>
<g transform="translate(17000, 7000) "
> &elem1; </g>
<g transform="translate(16000, 7000) "
> &elem1; </g>
<g transform="translate(15000, 7000) "
> &elem1; </g>
<g transform="translate(14000, 7000) "
> &elem1; </g>
<g transform="translate(13000, 7000) "
> &elem1; </g>
<g transform="translate(12000, 7000) "
> &elem1; </g>
<g transform="translate(11000, 7000) "
> &elem1; </g>
<g transform="translate(10000, 7000) "
> &elem1; </g>
<g transform="translate(9000, 7000) "
> &elem1; </g>
<g transform="translate(8000, 7000) "
> &elem1; </g>
<g transform="translate(7000, 7000) "
> &elem1; </g>
<g transform="translate(6000, 7000) "
> &elem1; </g>
<g transform="translate(5000, 7000) "
> &elem1; </g>
<g transform="translate(4000, 7000) "
> &elem1; </g>
<g transform="translate(3000, 7000) "
> &elem1; </g>
<g transform="translate(2000, 7000) "
> &elem1; </g>
<g transform="translate(1000, 7000) "
> &elem1; </g>
<g transform="translate(0, 7000) "
> &elem1; </g>
<g transform="translate(48000, 6000) "
> &elem1; </g>
<g transform="translate(47000, 6000) "
> &elem1; </g>
<g transform="translate(46000, 6000) "
> &elem1; </g>
<g transform="translate(45000, 6000) "
> &elem1; </g>
<g transform="translate(44000, 6000) "
> &elem1; </g>
<g transform="translate(43000, 6000) "
> &elem1; </g>
<g transform="translate(42000, 6000) "
> &elem1; </g>
<g transform="translate(41000, 6000) "
> &elem1; </g>
<g transform="translate(40000, 6000) "
> &elem1; </g>
<g transform="translate(39000, 6000) "
> &elem1; </g>
<g transform="translate(38000, 6000) "
> &elem1; </g>
<g transform="translate(37000, 6000) "
> &elem1; </g>
<g transform="translate(36000, 6000) "
> &elem1; </g>
<g transform="translate(35000, 6000) "
> &elem1; </g>
<g transform="translate(34000, 6000) "
> &elem1; </g>
<g transform="translate(33000, 6000) "
> &elem1; </g>
<g transform="translate(32000, 6000) "
> &elem1; </g>
<g transform="translate(31000, 6000) "
> &elem1; </g>
<g transform="translate(30000, 6000) "
> &elem1; </g>
<g transform="translate(29000, 6000) "
> &elem1; </g>
<g transform="translate(28000, 6000) "
> &elem1; </g>
<g transform="translate(27000, 6000) "
> &elem1; </g>
<g transform="translate(26000, 6000) "
> &elem1; </g>
<g transform="translate(25000, 6000) "
> &elem1; </g>
<g transform="translate(24000, 6000) "
> &elem1; </g>
<g transform="translate(23000, 6000) "
> &elem1; </g>
<g transform="translate(22000, 6000) "
> &elem1; </g>
<g transform="translate(21000, 6000) "
> &elem1; </g>
<g transform="translate(20000, 6000) "
> &elem1; </g>
<g transform="translate(19000, 6000) "
> &elem1; </g>
<g transform="translate(18000, 6000) "
> &elem1; </g>
<g transform="translate(17000, 6000) "
> &elem1; </g>
<g transform="translate(16000, 6000) "
> &elem1; </g>
<g transform="translate(15000, 6000) "
> &elem1; </g>
<g transform="translate(14000, 6000) "
> &elem1; </g>
<g transform="translate(13000, 6000) "
> &elem1; </g>
<g transform="translate(12000, 6000) "
> &elem1; </g>
<g transform="translate(11000, 6000) "
> &elem1; </g>
<g transform="translate(10000, 6000) "
> &elem1; </g>
<g transform="translate(9000, 6000) "
> &elem1; </g>
<g transform="translate(8000, 6000) "
> &elem1; </g>
<g transform="translate(7000, 6000) "
> &elem1; </g>
<g transform="translate(6000, 6000) "
> &elem1; </g>
<g transform="translate(5000, 6000) "
> &elem1; </g>
<g transform="translate(4000, 6000) "
> &elem1; </g>
<g transform="translate(3000, 6000) "
> &elem1; </g>
<g transform="translate(2000, 6000) "
> &elem1; </g>
<g transform="translate(1000, 6000) "
> &elem1; </g>
<g transform="translate(0, 6000) "
> &elem1; </g>
<g transform="translate(48000, 5000) "
> &elem1; </g>
<g transform="translate(47000, 5000) "
> &elem1; </g>
<g transform="translate(46000, 5000) "
> &elem1; </g>
<g transform="translate(45000, 5000) "
> &elem1; </g>
<g transform="translate(44000, 5000) "
> &elem1; </g>
<g transform="translate(43000, 5000) "
> &elem1; </g>
<g transform="translate(42000, 5000) "
> &elem1; </g>
<g transform="translate(41000, 5000) "
> &elem1; </g>
<g transform="translate(40000, 5000) "
> &elem1; </g>
<g transform="translate(39000, 5000) "
> &elem1; </g>
<g transform="translate(38000, 5000) "
> &elem1; </g>
<g transform="translate(37000, 5000) "
> &elem1; </g>
<g transform="translate(36000, 5000) "
> &elem1; </g>
<g transform="translate(35000, 5000) "
> &elem1; </g>
<g transform="translate(34000, 5000) "
> &elem1; </g>
<g transform="translate(33000, 5000) "
> &elem1; </g>
<g transform="translate(32000, 5000) "
> &elem1; </g>
<g transform="translate(31000, 5000) "
> &elem1; </g>
<g transform="translate(30000, 5000) "
> &elem1; </g>
<g transform="translate(29000, 5000) "
> &elem1; </g>
<g transform="translate(28000, 5000) "
> &elem1; </g>
<g transform="translate(27000, 5000) "
> &elem1; </g>
<g transform="translate(26000, 5000) "
> &elem1; </g>
<g transform="translate(25000, 5000) "
> &elem1; </g>
<g transform="translate(24000, 5000) "
> &elem1; </g>
<g transform="translate(23000, 5000) "
> &elem1; </g>
<g transform="translate(22000, 5000) "
> &elem1; </g>
<g transform="translate(21000, 5000) "
> &elem1; </g>
<g transform="translate(20000, 5000) "
> &elem1; </g>
<g transform="translate(19000, 5000) "
> &elem1; </g>
<g transform="translate(18000, 5000) "
> &elem1; </g>
<g transform="translate(17000, 5000) "
> &elem1; </g>
<g transform="translate(16000, 5000) "
> &elem1; </g>
<g transform="translate(15000, 5000) "
> &elem1; </g>
<g transform="translate(14000, 5000) "
> &elem1; </g>
<g transform="translate(13000, 5000) "
> &elem1; </g>
<g transform="translate(12000, 5000) "
> &elem1; </g>
<g transform="translate(11000, 5000) "
> &elem1; </g>
<g transform="translate(10000, 5000) "
> &elem1; </g>
<g transform="translate(9000, 5000) "
> &elem1; </g>
<g transform="translate(8000, 5000) "
> &elem1; </g>
<g transform="translate(7000, 5000) "
> &elem1; </g>
<g transform="translate(6000, 5000) "
> &elem1; </g>
<g transform="translate(5000, 5000) "
> &elem1; </g>
<g transform="translate(4000, 5000) "
> &elem1; </g>
<g transform="translate(3000, 5000) "
> &elem1; </g>
<g transform="translate(2000, 5000) "
> &elem1; </g>
<g transform="translate(1000, 5000) "
> &elem1; </g>
<g transform="translate(0, 5000) "
> &elem1; </g>
<g transform="translate(48000, 4000) "
> &elem1; </g>
<g transform="translate(47000, 4000) "
> &elem1; </g>
<g transform="translate(46000, 4000) "
> &elem1; </g>
<g transform="translate(45000, 4000) "
> &elem1; </g>
<g transform="translate(44000, 4000) "
> &elem1; </g>
<g transform="translate(43000, 4000) "
> &elem1; </g>
<g transform="translate(42000, 4000) "
> &elem1; </g>
<g transform="translate(41000, 4000) "
> &elem1; </g>
<g transform="translate(40000, 4000) "
> &elem1; </g>
<g transform="translate(39000, 4000) "
> &elem1; </g>
<g transform="translate(38000, 4000) "
> &elem1; </g>
<g transform="translate(37000, 4000) "
> &elem1; </g>
<g transform="translate(36000, 4000) "
> &elem1; </g>
<g transform="translate(35000, 4000) "
> &elem1; </g>
<g transform="translate(34000, 4000) "
> &elem1; </g>
<g transform="translate(33000, 4000) "
> &elem1; </g>
<g transform="translate(32000, 4000) "
> &elem1; </g>
<g transform="translate(31000, 4000) "
> &elem1; </g>
<g transform="translate(30000, 4000) "
> &elem1; </g>
<g transform="translate(29000, 4000) "
> &elem1; </g>
<g transform="translate(28000, 4000) "
> &elem1; </g>
<g transform="translate(27000, 4000) "
> &elem1; </g>
<g transform="translate(26000, 4000) "
> &elem1; </g>
<g transform="translate(25000, 4000) "
> &elem1; </g>
<g transform="translate(24000, 4000) "
> &elem1; </g>
<g transform="translate(23000, 4000) "
> &elem1; </g>
<g transform="translate(22000, 4000) "
> &elem1; </g>
<g transform="translate(21000, 4000) "
> &elem1; </g>
<g transform="translate(20000, 4000) "
> &elem1; </g>
<g transform="translate(19000, 4000) "
> &elem1; </g>
<g transform="translate(18000, 4000) "
> &elem1; </g>
<g transform="translate(17000, 4000) "
> &elem1; </g>
<g transform="translate(16000, 4000) "
> &elem1; </g>
<g transform="translate(15000, 4000) "
> &elem1; </g>
<g transform="translate(14000, 4000) "
> &elem1; </g>
<g transform="translate(13000, 4000) "
> &elem1; </g>
<g transform="translate(12000, 4000) "
> &elem1; </g>
<g transform="translate(11000, 4000) "
> &elem1; </g>
<g transform="translate(10000, 4000) "
> &elem1; </g>
<g transform="translate(9000, 4000) "
> &elem1; </g>
<g transform="translate(8000, 4000) "
> &elem1; </g>
<g transform="translate(7000, 4000) "
> &elem1; </g>
<g transform="translate(6000, 4000) "
> &elem1; </g>
<g transform="translate(5000, 4000) "
> &elem1; </g>
<g transform="translate(4000, 4000) "
> &elem1; </g>
<g transform="translate(3000, 4000) "
> &elem1; </g>
<g transform="translate(2000, 4000) "
> &elem1; </g>
<g transform="translate(1000, 4000) "
> &elem1; </g>
<g transform="translate(0, 4000) "
> &elem1; </g>
<g transform="translate(48000, 3000) "
> &elem1; </g>
<g transform="translate(47000, 3000) "
> &elem1; </g>
<g transform="translate(46000, 3000) "
> &elem1; </g>
<g transform="translate(45000, 3000) "
> &elem1; </g>
<g transform="translate(44000, 3000) "
> &elem1; </g>
<g transform="translate(43000, 3000) "
> &elem1; </g>
<g transform="translate(42000, 3000) "
> &elem1; </g>
<g transform="translate(41000, 3000) "
> &elem1; </g>
<g transform="translate(40000, 3000) "
> &elem1; </g>
<g transform="translate(39000, 3000) "
> &elem1; </g>
<g transform="translate(38000, 3000) "
> &elem1; </g>
<g transform="translate(37000, 3000) "
> &elem1; </g>
<g transform="translate(36000, 3000) "
> &elem1; </g>
<g transform="translate(35000, 3000) "
> &elem1; </g>
<g transform="translate(34000, 3000) "
> &elem1; </g>
<g transform="translate(33000, 3000) "
> &elem1; </g>
<g transform="translate(32000, 3000) "
> &elem1; </g>
<g transform="translate(31000, 3000) "
> &elem1; </g>
<g transform="translate(30000, 3000) "
> &elem1; </g>
<g transform="translate(29000, 3000) "
> &elem1; </g>
<g transform="translate(28000, 3000) "
> &elem1; </g>
<g transform="translate(27000, 3000) "
> &elem1; </g>
<g transform="translate(26000, 3000) "
> &elem1; </g>
<g transform="translate(25000, 3000) "
> &elem1; </g>
<g transform="translate(24000, 3000) "
> &elem1; </g>
<g transform="translate(23000, 3000) "
> &elem1; </g>
<g transform="translate(22000, 3000) "
> &elem1; </g>
<g transform="translate(21000, 3000) "
> &elem1; </g>
<g transform="translate(20000, 3000) "
> &elem1; </g>
<g transform="translate(19000, 3000) "
> &elem1; </g>
<g transform="translate(18000, 3000) "
> &elem1; </g>
<g transform="translate(17000, 3000) "
> &elem1; </g>
<g transform="translate(16000, 3000) "
> &elem1; </g>
<g transform="translate(15000, 3000) "
> &elem1; </g>
<g transform="translate(14000, 3000) "
> &elem1; </g>
<g transform="translate(13000, 3000) "
> &elem1; </g>
<g transform="translate(12000, 3000) "
> &elem1; </g>
<g transform="translate(11000, 3000) "
> &elem1; </g>
<g transform="translate(10000, 3000) "
> &elem1; </g>
<g transform="translate(9000, 3000) "
> &elem1; </g>
<g transform="translate(8000, 3000) "
> &elem1; </g>
<g transform="translate(7000, 3000) "
> &elem1; </g>
<g transform="translate(6000, 3000) "
> &elem1; </g>
<g transform="translate(5000, 3000) "
> &elem1; </g>
<g transform="translate(4000, 3000) "
> &elem1; </g>
<g transform="translate(3000, 3000) "
> &elem1; </g>
<g transform="translate(2000, 3000) "
> &elem1; </g>
<g transform="translate(1000, 3000) "
> &elem1; </g>
<g transform="translate(0, 3000) "
> &elem1; </g>
<g transform="translate(48000, 2000) "
> &elem1; </g>
<g transform="translate(47000, 2000) "
> &elem1; </g>
<g transform="translate(46000, 2000) "
> &elem1; </g>
<g transform="translate(45000, 2000) "
> &elem1; </g>
<g transform="translate(44000, 2000) "
> &elem1; </g>
<g transform="translate(43000, 2000) "
> &elem1; </g>
<g transform="translate(42000, 2000) "
> &elem1; </g>
<g transform="translate(41000, 2000) "
> &elem1; </g>
<g transform="translate(40000, 2000) "
> &elem1; </g>
<g transform="translate(39000, 2000) "
> &elem1; </g>
<g transform="translate(38000, 2000) "
> &elem1; </g>
<g transform="translate(37000, 2000) "
> &elem1; </g>
<g transform="translate(36000, 2000) "
> &elem1; </g>
<g transform="translate(35000, 2000) "
> &elem1; </g>
<g transform="translate(34000, 2000) "
> &elem1; </g>
<g transform="translate(33000, 2000) "
> &elem1; </g>
<g transform="translate(32000, 2000) "
> &elem1; </g>
<g transform="translate(31000, 2000) "
> &elem1; </g>
<g transform="translate(30000, 2000) "
> &elem1; </g>
<g transform="translate(29000, 2000) "
> &elem1; </g>
<g transform="translate(28000, 2000) "
> &elem1; </g>
<g transform="translate(27000, 2000) "
> &elem1; </g>
<g transform="translate(26000, 2000) "
> &elem1; </g>
<g transform="translate(25000, 2000) "
> &elem1; </g>
<g transform="translate(24000, 2000) "
> &elem1; </g>
<g transform="translate(23000, 2000) "
> &elem1; </g>
<g transform="translate(22000, 2000) "
> &elem1; </g>
<g transform="translate(21000, 2000) "
> &elem1; </g>
<g transform="translate(20000, 2000) "
> &elem1; </g>
<g transform="translate(19000, 2000) "
> &elem1; </g>
<g transform="translate(18000, 2000) "
> &elem1; </g>
<g transform="translate(17000, 2000) "
> &elem1; </g>
<g transform="translate(16000, 2000) "
> &elem1; </g>
<g transform="translate(15000, 2000) "
> &elem1; </g>
<g transform="translate(14000, 2000) "
> &elem1; </g>
<g transform="translate(13000, 2000) "
> &elem1; </g>
<g transform="translate(12000, 2000) "
> &elem1; </g>
<g transform="translate(11000, 2000) "
> &elem1; </g>
<g transform="translate(10000, 2000) "
> &elem1; </g>
<g transform="translate(9000, 2000) "
> &elem1; </g>
<g transform="translate(8000, 2000) "
> &elem1; </g>
<g transform="translate(7000, 2000) "
> &elem1; </g>
<g transform="translate(6000, 2000) "
> &elem1; </g>
<g transform="translate(5000, 2000) "
> &elem1; </g>
<g transform="translate(4000, 2000) "
> &elem1; </g>
<g transform="translate(3000, 2000) "
> &elem1; </g>
<g transform="translate(2000, 2000) "
> &elem1; </g>
<g transform="translate(1000, 2000) "
> &elem1; </g>
<g transform="translate(0, 2000) "
> &elem1; </g>
<g transform="translate(48000, 1000) "
> &elem1; </g>
<g transform="translate(47000, 1000) "
> &elem1; </g>
<g transform="translate(46000, 1000) "
> &elem1; </g>
<g transform="translate(45000, 1000) "
> &elem1; </g>
<g transform="translate(44000, 1000) "
> &elem1; </g>
<g transform="translate(43000, 1000) "
> &elem1; </g>
<g transform="translate(42000, 1000) "
> &elem1; </g>
<g transform="translate(41000, 1000) "
> &elem1; </g>
<g transform="translate(40000, 1000) "
> &elem1; </g>
<g transform="translate(39000, 1000) "
> &elem1; </g>
<g transform="translate(38000, 1000) "
> &elem1; </g>
<g transform="translate(37000, 1000) "
> &elem1; </g>
<g transform="translate(36000, 1000) "
> &elem1; </g>
<g transform="translate(35000, 1000) "
> &elem1; </g>
<g transform="translate(34000, 1000) "
> &elem1; </g>
<g transform="translate(33000, 1000) "
> &elem1; </g>
<g transform="translate(32000, 1000) "
> &elem1; </g>
<g transform="translate(31000, 1000) "
> &elem1; </g>
<g transform="translate(30000, 1000) "
> &elem1; </g>
<g transform="translate(29000, 1000) "
> &elem1; </g>
<g transform="translate(28000, 1000) "
> &elem1; </g>
<g transform="translate(27000, 1000) "
> &elem1; </g>
<g transform="translate(26000, 1000) "
> &elem1; </g>
<g transform="translate(25000, 1000) "
> &elem1; </g>
<g transform="translate(24000, 1000) "
> &elem1; </g>
<g transform="translate(23000, 1000) "
> &elem1; </g>
<g transform="translate(22000, 1000) "
> &elem1; </g>
<g transform="translate(21000, 1000) "
> &elem1; </g>
<g transform="translate(20000, 1000) "
> &elem1; </g>
<g transform="translate(19000, 1000) "
> &elem1; </g>
<g transform="translate(18000, 1000) "
> &elem1; </g>
<g transform="translate(17000, 1000) "
> &elem1; </g>
<g transform="translate(16000, 1000) "
> &elem1; </g>
<g transform="translate(15000, 1000) "
> &elem1; </g>
<g transform="translate(14000, 1000) "
> &elem1; </g>
<g transform="translate(13000, 1000) "
> &elem1; </g>
<g transform="translate(12000, 1000) "
> &elem1; </g>
<g transform="translate(11000, 1000) "
> &elem1; </g>
<g transform="translate(10000, 1000) "
> &elem1; </g>
<g transform="translate(9000, 1000) "
> &elem1; </g>
<g transform="translate(8000, 1000) "
> &elem1; </g>
<g transform="translate(7000, 1000) "
> &elem1; </g>
<g transform="translate(6000, 1000) "
> &elem1; </g>
<g transform="translate(5000, 1000) "
> &elem1; </g>
<g transform="translate(4000, 1000) "
> &elem1; </g>
<g transform="translate(3000, 1000) "
> &elem1; </g>
<g transform="translate(2000, 1000) "
> &elem1; </g>
<g transform="translate(1000, 1000) "
> &elem1; </g>
<g transform="translate(0, 1000) "
> &elem1; </g>
<g transform="translate(48000, 0) "
> &elem1; </g>
<g transform="translate(47000, 0) "
> &elem1; </g>
<g transform="translate(46000, 0) "
> &elem1; </g>
<g transform="translate(45000, 0) "
> &elem1; </g>
<g transform="translate(44000, 0) "
> &elem1; </g>
<g transform="translate(43000, 0) "
> &elem1; </g>
<g transform="translate(42000, 0) "
> &elem1; </g>
<g transform="translate(41000, 0) "
> &elem1; </g>
<g transform="translate(40000, 0) "
> &elem1; </g>
<g transform="translate(39000, 0) "
> &elem1; </g>
<g transform="translate(38000, 0) "
> &elem1; </g>
<g transform="translate(37000, 0) "
> &elem1; </g>
<g transform="translate(36000, 0) "
> &elem1; </g>
<g transform="translate(35000, 0) "
> &elem1; </g>
<g transform="translate(34000, 0) "
> &elem1; </g>
<g transform="translate(33000, 0) "
> &elem1; </g>
<g transform="translate(32000, 0) "
> &elem1; </g>
<g transform="translate(31000, 0) "
> &elem1; </g>
<g transform="translate(30000, 0) "
> &elem1; </g>
<g transform="translate(29000, 0) "
> &elem1; </g>
<g transform="translate(28000, 0) "
> &elem1; </g>
<g transform="translate(27000, 0) "
> &elem1; </g>
<g transform="translate(26000, 0) "
> &elem1; </g>
<g transform="translate(25000, 0) "
> &elem1; </g>
<g transform="translate(24000, 0) "
> &elem1; </g>
<g transform="translate(23000, 0) "
> &elem1; </g>
<g transform="translate(22000, 0) "
> &elem1; </g>
<g transform="translate(21000, 0) "
> &elem1; </g>
<g transform="translate(20000, 0) "
> &elem1; </g>
<g transform="translate(19000, 0) "
> &elem1; </g>
<g transform="translate(18000, 0) "
> &elem1; </g>
<g transform="translate(17000, 0) "
> &elem1; </g>
<g transform="translate(16000, 0) "
> &elem1; </g>
<g transform="translate(15000, 0) "
> &elem1; </g>
<g transform="translate(14000, 0) "
> &elem1; </g>
<g transform="translate(13000, 0) "
> &elem1; </g>
<g transform="translate(12000, 0) "
> &elem1; </g>
<g transform="translate(11000, 0) "
> &elem1; </g>
<g transform="translate(10000, 0) "
> &elem1; </g>
<g transform="translate(9000, 0) "
> &elem1; </g>
<g transform="translate(8000, 0) "
> &elem1; </g>
<g transform="translate(7000, 0) "
> &elem1; </g>
<g transform="translate(6000, 0) "
> &elem1; </g>
<g transform="translate(5000, 0) "
> &elem1; </g>
<g transform="translate(4000, 0) "
> &elem1; </g>
<g transform="translate(3000, 0) "
> &elem1; </g>
<g transform="translate(2000, 0) "
> &elem1; </g>
<g transform="translate(1000, 0) "
> &elem1; </g>
<g transform="translate(0, 0) "
> &elem1; </g>
</svg>
